# vtk DataFile Version 3.0
Velocity field
ASCII
DATASET STRUCTURED_POINTS
DIMENSIONS 8 8 8
SPACING 0.8 0.8 0.8
ORIGIN 0 0 0
POINT_DATA 512
VECTORS velocity float
0 0.109119 0
0 0.076024 0
0 -0.00318623 0
0 -0.0804637 0
0 -0.108933 0
0 -0.071325 0
0 0.00954783 0
0 0.084629 0
0 0.0429289 0.111372
0 0.0299088 0.0822678
0 -0.0012535 -0.00344791
0 -0.0316555 -0.0870722
0 -0.0428557 -0.11788
0 -0.0280602 -0.0771829
0 0.00375624 0.010332
0 0.0332942 0.0863765
0 -0.0493013 0.155188
0 -0.0343486 0.114633
0 0.00143958 -0.00480436
0 0.0363545 -0.121328
0 0.0492173 -0.164255
0 0.0322255 -0.107548
0 -0.00431383 0.0143967
0 -0.0382364 0.120358
0 -0.111626 0.104868
0 -0.0777706 0.0774635
0 0.00325943 -0.00324656
0 0.0823124 -0.0819873
0 0.111436 -0.110996
0 0.0729637 -0.0726755
0 -0.00976719 0.00972861
0 -0.0865734 0.0813322
0 -0.10624 -0.00906282
0 -0.074018 -0.00669447
0 0.00310216 0.000280571
0 0.0783406 0.00708542
0 0.106059 0.00959234
0 0.069443 0.00628069
0 -0.0092959 -0.000840756
0 -0.082396 -0.00702881
0 -0.03641 -0.117496
0 -0.0253671 -0.0867916
0 0.00106316 0.00363751
0 0.0268485 0.0918601
0 0.0363479 0.124362
0 0.0237992 0.0814271
0 -0.00318585 -0.0109001
0 -0.0282384 -0.0911263
0 0.0555057 -0.154658
0 0.0386712 -0.114242
0 -0.00162074 0.00478798
0 -0.0409295 0.120914
0 -0.055411 0.163695
0 -0.0362809 0.107181
0 0.0048567 -0.0143476
0 0.0430483 -0.119948
0 0.113752 -0.0980066
0 0.079252 -0.0682818
0 -0.00332152 0.00286175
0 -0.0838803 0.0722694
0 -0.113558 0.0978395
0 -0.0743535 0.0640614
0 0.00995324 -0.00857549
0 0.0882224 -0.0760106
0 0.076024 0
0 0.0575058 0
0 -0.00241012 0
0 -0.0608641 0
0 -0.0823987 0
0 -0.0539514 0
0 0.00722214 0
0 0.0589616 0
0.023741 0.0299088 0.110005
0.0573547 0.021051 0.0773774
0.0559562 -0.000882306 -0.00324309
0.0206143 -0.0222814 -0.0818996
-0.0272317 -0.0301648 -0.110877
-0.0585592 -0.0197507 -0.0725979
-0.0543653 0.00264318 0.0097157
-0.0170346 0.0231963 0.0853165
0.033081 -0.0343486 0.153283
0.0799189 -0.0241536 0.107819
0.0779697 0.00101234 -0.00451897
0.0287243 0.0255651 -0.11412
-0.037945 0.0346104 -0.154498
-0.0815972 0.0226615 -0.101159
-0.0757533 -0.00303281 0.013538
-0.0237363 -0.0266396 0.118881
0.0223545 -0.0777706 0.103581
0.0540054 -0.0546876 0.0728586
0.0526881 0.0022921 -0.0030537
0.0194105 0.0578836 -0.0771168
-0.0256413 0.0783637 -0.104402
-0.0551397 0.0513094 -0.0683583
-0.0511902 -0.00686677 0.00914833
-0.0160398 -0.0603162 0.0803341
-0.0019319 -0.074018 -0.0089516
-0.00466719 -0.0520487 -0.00629651
-0.00455338 0.0021815 0.000263904
-0.00167748 0.0550907 0.00666451
0.00221595 0.0745827 0.00902251
0.00476522 0.0488338 0.00590758
0.00442391 -0.00653542 -0.000790607
0.00138618 -0.0574058 -0.00694255
-0.0250464 -0.0253671 -0.116055
-0.0605088 -0.0178379 -0.0816322
-0.0590329 0.000747635 0.00342143
-0.0217479 0.0188804 0.0864034
0.028729 0.0255605 0.116974
0.0617796 0.0167361 0.0765899
0.0573545 -0.00223979 -0.01025
0.0179713 -0.0196739 -0.0900079
-0.0329681 0.0386712 -0.15276
-0.0796449 0.0271916 -0.107449
-0.0777024 -0.00113967 0.00450348
-0.0286258 -0.0287807 0.113729
0.0378149 -0.0389638 0.153968
0.0813174 -0.0255119 0.100812
0.0754935 0.00341428 -0.0134916
0.0236553 0.029992 -0.118476
-0.0208918 0.079252 -0.0968038
-0.0500028 0.0552154 -0.0674439
-0.0487827 -0.00231412 0.00282663
-0.0179717 -0.05844 0.0713825
0.0237407 -0.0791169 0.0966387
0.0510523 -0.0518026 0.0632752
0.0473963 0.00693449 -0.00847025
0.0149903 0.0614652 -0.0750777
0 -0.00318623 0
0 -0.00241012 0
0 0.00010101 0
0 0.00255086 0
0 0.0034534 0
0 0.00226115 0
0 -0.000302686 0
0 -0.00247113 0
0.033081 -0.0012535 0.0419109
0.0799189 -0.000882306 0.0294726
0.0779697 3.69799e-05 -0.00123527
0.0287243 0.000933874 -0.0311952
-0.037945 0.00126429 -0.0422324
-0.0815972 0.000827809 -0.0276522
-0.0757533 -0.000110783 0.00370068
-0.0237363 -0.000972174 0.0325046
0.0460955 0.00143958 0.0583991
0.11136 0.00101234 0.0410675
0.108644 -4.24298e-05 -0.00172125
0.0400249 -0.0010715 -0.0434676
-0.0528729 -0.00145061 -0.058847
-0.113698 -0.000949808 -0.0385308
-0.105555 0.000127113 0.00515657
-0.0330744 0.00111649 0.0452924
0.0311491 0.00325943 0.0394633
0.0752518 0.0022921 0.0277514
0.0734167 -9.60683e-05 -0.00116314
0.0270469 -0.00242606 -0.0293733
-0.035729 -0.00328443 -0.039766
-0.0768323 -0.00215051 -0.0260372
-0.0713293 0.000287804 0.00348457
-0.0223501 0.0025279 0.0306064
-0.00269193 0.00310216 -0.00341046
-0.00650332 0.0021815 -0.00239831
-0.00634471 -9.14324e-05 0.000100519
-0.00233741 -0.002309 0.00253846
0.00308774 -0.00312596 0.00343663
0.00663991 -0.00204675 0.00225016
0.00616436 0.000273917 -0.00030114
0.00193152 0.00240592 -0.00264503
-0.0349 0.00106316 -0.0442155
-0.0843137 0.000747635 -0.0310933
-0.0822572 -3.13353e-05 0.0013032
-0.0303039 -0.00079133 0.0329104
0.0400315 -0.00107131 0.0445548
0.0860846 -0.000701451 0.0291726
0.0799188 9.38755e-05 -0.00390418
0.0250415 0.000824547 -0.034292
-0.0459383 -0.00162074 -0.0582
-0.110979 -0.00113967 -0.0409267
-0.108272 4.77667e-05 0.00171535
-0.0398876 0.00120628 0.0433187
0.0526917 0.00163308 0.0586453
0.113309 0.00106928 0.0383987
0.105193 -0.000143101 -0.0051389
0.0329616 -0.00125699 -0.0451379
-0.0291109 -0.00332152 -0.0368812
-0.0696745 -0.00231412 -0.0256954
-0.0679745 9.69868e-05 0.00107691
-0.025042 0.00244927 0.0271959
0.0330806 0.00331585 0.0368183
0.0711369 0.00217109 0.0241071
0.0660426 -0.00029063 -0.00322707
0.0208877 -0.00257606 -0.0286038
0 -0.0804637 0
0 -0.0608641 0
0 0.00255086 0
0 0.0644185 0
0 0.0872108 0
0 0.0571021 0
0 -0.00764391 0
0 -0.0624049 0
0.0223545 -0.0316555 -0.0516064
0.0540054 -0.0222814 -0.0362907
0.0526881 0.000933874 0.00152104
0.0194105 0.0235836 0.0384116
-0.0256413 0.0319279 0.0520021
-0.0551397 0.0209051 0.034049
-0.0511902 -0.00279766 -0.00455678
-0.0160398 -0.0245509 -0.0400241
0.0311491 0.0363545 -0.071909
0.0752518 0.0255651 -0.0505679
0.0734167 -0.0010715 0.00211943
0.0270469 -0.0270593 0.0535232
-0.035729 -0.0366333 0.0724606
-0.0768323 -0.023986 0.0474442
-0.0713293 0.00321004 -0.00634945
-0.0223501 0.0281953 -0.0557702
0.021049 0.0823124 -0.0485926
0.0508513 0.0578836 -0.0341713
0.0496114 -0.00242606 0.00143221
0.018277 -0.0612668 0.0361684
-0.024144 -0.0829435 0.0489654
-0.0519193 -0.0543083 0.0320605
-0.0482009 0.00726806 -0.00429066
-0.0151031 0.0638386 -0.0376868
-0.00181908 0.0783406 0.00419942
-0.00439463 0.0550907 0.00295311
-0.00428745 -0.002309 -0.000123773
-0.00157952 -0.0583103 -0.00312571
0.00208655 -0.0789414 -0.00423163
0.00448693 -0.0516876 -0.00277071
0.00416557 0.00691738 0.000370803
0.00130522 0.0607583 0.00325693
-0.0235837 0.0268485 0.0544441
-0.0569748 0.0188804 0.0382862
-0.0555856 -0.00079133 -0.00160467
-0.0204778 -0.0199838 -0.0405236
0.0270514 -0.0270545 -0.0548618
0.0581715 -0.0177141 -0.0359213
0.0540053 0.00237069 0.00480735
0.0169218 0.0208228 0.042225
-0.0310428 -0.0409295 0.0716638
-0.0749937 -0.0287807 0.0503944
-0.073165 0.00120628 -0.00211217
-0.0269541 0.0304628 -0.0533396
0.0356065 0.041241 -0.0722122
0.0765687 0.027003 -0.0472815
0.0710847 -0.00361381 0.0063277
0.0222739 -0.0317435 0.05558
-0.0196718 -0.0838803 0.0454131
-0.0470826 -0.05844 0.0316396
-0.0459338 0.00244927 -0.00132604
-0.0169222 0.0618528 -0.0334874
0.0223543 0.0837372 -0.0453357
0.0480709 0.0548278 -0.029684
0.0446284 -0.00733946 0.00397361
0.0141149 -0.0650547 0.0352209
0 -0.108933 0
0 -0.0823988 0
0 0.0034534 0
0 0.0872108 0
0 0.118067 0
0 0.0773057 0
0 -0.0103484 0
0 -0.0844846 0
-0.0019319 -0.0428557 -0.11382
-0.00466719 -0.0301648 -0.0800403
-0.00455338 0.00126429 0.0033547
-0.00167748 0.0319279 0.0847183
0.00221595 0.0432246 0.114692
0.00476522 0.0283016 0.0750962
0.00442391 -0.00378752 -0.0100501
0.00138618 -0.0332374 -0.0882748
-0.00269193 0.0492173 -0.158598
-0.00650332 0.0346104 -0.111529
-0.00634471 -0.00145061 0.00467449
-0.00233741 -0.0366333 0.118047
0.00308774 -0.0495947 0.159814
0.00663991 -0.0324725 0.10464
0.00616436 0.0043458 -0.014004
0.00193152 0.0381712 -0.123003
-0.00181908 0.111436 -0.107173
-0.00439463 0.0783637 -0.075366
-0.00428745 -0.00328443 0.0031588
-0.00157952 -0.0829435 0.0797707
0.00208655 -0.112291 0.107995
0.00448693 -0.0735234 0.0707106
0.00416557 0.00983962 -0.00946322
0.00130522 0.0864257 -0.0831196
0.000157206 0.106059 0.00926199
0.00037979 0.0745826 0.0065132
0.000370526 -0.00312596 -0.000272985
0.000136503 -0.0789414 -0.00689388
-0.000180321 -0.106872 -0.00933302
-0.000387765 -0.0699755 -0.0061109
-0.000359992 0.00936483 0.000817819
-0.000112799 0.0822555 0.00718328
0.00203813 0.0363479 0.120079
0.00492383 0.0255605 0.0844418
0.00480376 -0.00107131 -0.00353918
0.00176972 -0.0270545 -0.0893767
-0.0023378 -0.0366268 -0.121
-0.00502725 -0.0239817 -0.0792257
-0.00466718 0.00320947 0.0106028
-0.0014624 0.0281902 0.0931289
0.00268275 -0.055411 0.158057
0.00648102 -0.0389638 0.111147
0.00632297 0.00163308 -0.00465847
0.00232941 0.041241 -0.117643
-0.00307716 0.0558327 -0.159266
-0.00661714 0.036557 -0.104281
-0.00614322 -0.00489243 0.013956
-0.00192493 -0.0429749 0.122584
0.00170005 -0.113558 0.10016
0.00406893 -0.0791169 0.0697824
0.00396965 0.00331585 -0.00292464
0.00146243 0.0837372 -0.0738577
-0.00193188 0.113365 -0.0999896
-0.00415433 0.0742267 -0.0654692
-0.00385683 -0.00993626 0.00876395
-0.00121982 -0.088072 0.077681
0 -0.071325 0
0 -0.0539514 0
0 0.00226115 0
0 0.0571021 0
0 0.0773057 0
0 0.0506167 0
0 -0.00677574 0
0 -0.0553172 0
-0.0250464 -0.0280602 -0.106992
-0.0605088 -0.0197507 -0.0752386
-0.0590329 0.000827809 0.00315346
-0.0217479 0.0209051 0.0796358
0.028729 0.0283016 0.107812
0.0617796 0.0185308 0.070591
0.0573545 -0.00247992 -0.00944723
0.0179713 -0.0217625 -0.0829791
-0.0349 0.0322255 -0.149084
-0.0843137 0.0226615 -0.104838
-0.0822572 -0.000949808 0.00439406
-0.0303039 -0.023986 0.110966
0.0400315 -0.0324725 0.150227
0.0860846 -0.0212618 0.098363
0.0799188 0.00284546 -0.0131639
0.0250415 0.024993 -0.115624
-0.0235837 0.0729637 -0.100743
-0.0569748 0.0513094 -0.0708448
-0.0555856 -0.00215051 0.00296929
-0.0204778 -0.0543083 0.0749851
0.0270514 -0.0735234 0.101516
0.0581715 -0.0481402 0.0664688
0.0540053 0.00644258 -0.00889551
0.0169218 0.0565881 -0.0781332
0.00203813 0.069443 0.00870635
0.00492383 0.0488338 0.00612249
0.00480376 -0.00204675 -0.000256609
0.00176972 -0.0516876 -0.00648029
-0.0023378 -0.0699755 -0.00877311
-0.00502725 -0.0458172 -0.00574429
-0.00466719 0.00613174 0.000768761
-0.0014624 0.0538576 0.00675235
0.0264237 0.0237992 0.112875
0.0638359 0.0167361 0.0793759
0.0622793 -0.000701451 -0.00332685
0.0229438 -0.0177141 -0.084015
-0.0303089 -0.0239817 -0.11374
-0.0651766 -0.0157022 -0.0744732
-0.0605087 0.00210144 0.00996672
-0.0189595 0.0184578 0.087542
0.034781 -0.0362809 0.148575
0.0840246 -0.0255119 0.104479
0.0819752 0.00106928 -0.00437899
0.0302 0.027003 -0.110586
-0.0398942 0.036557 -0.149712
-0.0857893 0.0239361 -0.0980257
-0.0796447 -0.00320337 0.0131188
-0.0249561 -0.0281382 0.11523
0.0220406 -0.0743535 0.0941517
0.0527523 -0.0518026 0.0655961
0.0514652 0.00217109 -0.00274919
0.0189599 0.0548278 -0.0694269
-0.0250462 0.0742267 -0.0939912
-0.0538596 0.0486007 -0.0615417
-0.0500025 -0.00650587 0.0082382
-0.0158146 -0.057666 0.0730209
0 0.00954783 0
0 0.00722213 0
0 -0.000302686 0
0 -0.0076439 0
0 -0.0103484 0
0 -0.00677574 0
0 0.000907025 0
0 0.00740496 0
-0.0329681 0.00375624 -0.0352638
-0.0796449 0.00264316 -0.0247994
-0.0777024 -0.000110782 0.00103941
-0.0286258 -0.00279764 0.0262488
0.0378149 -0.00378749 0.0355359
0.0813174 -0.0024799 0.0232675
0.0754935 0.00033188 -0.0031139
0.0236553 0.00291321 -0.0273494
-0.0459383 -0.00431383 -0.0491371
-0.110979 -0.00303278 -0.0345558
-0.108272 0.000127112 0.00144833
-0.0398876 0.00321001 0.0365755
0.0526917 0.00434577 0.0495164
0.113309 0.00284544 0.0324213
0.105193 -0.00038081 -0.00433894
0.0329616 -0.00334565 -0.0381091
-0.0310428 -0.00976719 -0.0332045
-0.0749937 -0.00686671 -0.0233511
-0.073165 0.000287802 0.000978711
-0.0269541 0.00726801 0.0247159
0.0356065 0.00983954 0.0334607
0.0765687 0.00644253 0.0219088
0.0710847 -0.000862216 -0.00293204
0.0222739 -0.00757509 -0.0257523
0.00268275 -0.0092959 0.00286956
0.00648102 -0.00653538 0.00201803
0.00632297 0.000273915 -8.45812e-05
0.00232941 0.00691733 -0.00213598
-0.00307716 0.00936476 -0.00289171
-0.00661714 0.00613169 -0.00189338
-0.00614322 -0.000820611 0.00025339
-0.00192493 -0.00720958 0.00222553
0.034781 -0.00318585 0.037203
0.0840246 -0.00223978 0.0261631
0.0819752 9.38748e-05 -0.00109656
0.0302 0.00237067 -0.0276922
-0.0398942 0.00320944 -0.0374901
-0.0857893 0.00210142 -0.0245471
-0.0796447 -0.000281236 0.00328512
-0.0249561 -0.00247083 0.0288533
0.0457816 0.0048567 0.0489695
0.110598 0.00341425 0.0344373
0.107901 -0.0001431 -0.00144336
0.0397509 -0.00361379 -0.0364501
-0.052511 -0.0048924 -0.0493466
-0.11292 -0.00320334 -0.0323102
-0.104833 0.00042871 0.00432407
-0.0328492 0.00376669 0.0379791
0.0290117 0.00995324 0.0310319
0.0694369 0.00693449 0.0216201
0.0677426 -0.00029063 -0.000906116
0.0249566 -0.00733946 -0.0228827
-0.0329678 -0.00993626 -0.0309789
-0.0708943 -0.00650587 -0.0202838
-0.0658173 0.0008709 0.00271526
-0.0208164 0.00771939 0.0240673
0 0.084629 0
0 0.0589616 0
0 -0.00247113 0
0 -0.0624049 0
0 -0.0844847 0
0 -0.0553172 0
0 0.00740496 0
0 0.0656353 0
-0.0208918 0.0332942 0.0578546
-0.0500027 0.0231963 0.0403077
-0.0487827 -0.000972175 -0.00168933
-0.0179717 -0.0245509 -0.0426616
0.0237407 -0.0332374 -0.0577559
0.0510523 -0.0217625 -0.0378163
0.0473962 0.00291321 0.00506223
0.0149903 0.0258218 0.04487
-0.0291109 -0.0382364 0.0806153
-0.0696745 -0.0266396 0.0561652
-0.0679744 0.00111649 -0.00235393
-0.025042 0.0281953 -0.0594452
0.0330806 0.0381712 -0.0804779
0.0711369 0.024993 -0.0526937
0.0660425 -0.00334566 0.00705377
0.0208877 -0.0296549 0.0625225
-0.0196718 -0.0865734 0.0544759
-0.0470826 -0.0603162 0.0379537
-0.0459338 0.0025279 -0.00159067
-0.0169222 0.0638386 -0.0401702
0.0223542 0.0864257 -0.054383
0.0480709 0.0565881 -0.0356078
0.0446283 -0.00757509 0.0047666
0.0141149 -0.0671433 0.0422497
0.00170005 -0.082396 -0.00470786
0.00406893 -0.0574058 -0.00328
0.00396965 0.00240593 0.000137467
0.00146243 0.0607583 0.00347155
-0.00193188 0.0822555 0.00469983
-0.00415433 0.0538576 0.00307726
-0.00385682 -0.00720958 -0.000411934
-0.00121982 -0.0639035 -0.00365126
0.0220406 -0.0282384 -0.0610359
0.0527523 -0.0196739 -0.0425241
0.0514652 0.000824547 0.00178222
0.0189599 0.0208228 0.0450075
-0.0250461 0.0281902 0.0609318
-0.0538596 0.0184578 0.0398957
-0.0500025 -0.00247083 -0.00534059
-0.0158146 -0.0219007 -0.0473374
0.0290117 0.0430483 -0.0803404
0.0694369 0.029992 -0.0559737
0.0677426 -0.00125699 0.0023459
0.0249566 -0.0317435 0.0592425
-0.0329678 -0.0429749 0.0802034
-0.0708943 -0.0281382 0.052514
-0.0658173 0.00376669 -0.00702972
-0.0208164 0.0333868 -0.0623093
0.0183846 0.0882224 -0.0509115
0.044002 0.0614652 -0.0354704
0.0429283 -0.00257606 0.00148659
0.0158149 -0.0650547 0.0375418
-0.0208916 -0.088072 0.0508247
-0.0449255 -0.057666 0.033278
-0.0417083 0.00771939 -0.00445471
-0.0131913 0.0684223 -0.0394852
