# vtk DataFile Version 3.0
Velocity field
ASCII
DATASET STRUCTURED_POINTS
DIMENSIONS 5 5 5
SPACING 1.33333 1.33333 1.33333
ORIGIN 0 0 0
POINT_DATA 125
VECTORS velocity float
0 0.328506 0
0 0.0772771 0
0 -0.29215 0
0 -0.214726 0
0 0.191126 0
0 -0.173952 0.570517
0 -0.0409201 0.15467
0 0.1547 -0.584738
0 0.113703 -0.429775
0 -0.101206 0.331929
0 -0.410347 0.268414
0 -0.096529 0.0727685
0 0.364932 -0.275105
0 0.268221 -0.202198
0 -0.238741 0.156164
0 -0.0191057 -0.444235
0 -0.00449437 -0.120434
0 0.0169912 0.455308
0 0.0124883 0.334646
0 -0.0111157 -0.258458
0 0.401358 -0.477416
0 0.0944145 -0.112306
0 -0.356938 0.424579
0 -0.262345 0.31206
0 0.233512 -0.277762
0 0.0772771 0
0 0.0231311 0
0 -0.0874482 0
0 -0.0642733 0
0 0.04496 0
0.244179 -0.0409201 0.200356
0.372189 -0.00994032 0.0489319
-0.0780101 0.0376008 -0.18511
-0.408912 0.0276392 -0.136071
-0.110334 -0.0238075 0.116568
0.11488 -0.096529 0.0942624
0.175106 -0.0235112 0.0230213
-0.036702 0.0889388 -0.0870895
-0.192383 0.0653766 -0.064018
-0.0519096 -0.0561608 0.0548422
-0.190131 -0.00449437 -0.156008
-0.289761 -0.00109784 -0.0380951
0.0607334 0.00415322 0.144113
0.31835 0.00305298 0.105935
0.0859123 -0.00261484 -0.0907658
-0.204332 0.0944145 -0.16766
-0.300465 0.0222098 -0.0394399
0.0629708 -0.0839653 0.149105
0.330092 -0.0617134 0.10959
0.0923292 0.0549307 -0.0975452
0 -0.29215 0
0 -0.0874483 0
0 0.330602 0
0 0.242988 0
0 -0.169974 0
0.11488 0.1547 -0.476255
0.175106 0.0376008 -0.116069
-0.036702 -0.142233 0.439077
-0.192383 -0.104551 0.322756
-0.0519096 0.0900052 -0.277087
0.0540483 0.364932 -0.224066
0.0823827 0.0889388 -0.0546078
-0.0172673 -0.336443 0.206575
-0.0905109 -0.247312 0.151848
-0.0244222 0.212319 -0.130362
-0.0894519 0.0169912 0.370837
-0.136326 0.00415322 0.0903642
0.0285736 -0.0157123 -0.341835
0.149776 -0.01155 -0.251275
0.0404196 0.00988552 0.215755
-0.0961332 -0.356938 0.398536
-0.141362 -0.0839653 0.0937506
0.0296262 0.317435 -0.354429
0.1553 0.233311 -0.2605
0.0434386 -0.207668 0.23187
0 -0.214726 0
0 -0.0642734 0
0 0.242988 0
0 0.178593 0
0 -0.124928 0
-0.190131 0.113703 -0.424422
-0.289761 0.0276393 -0.103447
0.0607334 -0.104552 0.391326
0.31835 -0.076853 0.287656
0.0859123 0.0661527 -0.24693
-0.0894519 0.268221 -0.19968
-0.136326 0.0653768 -0.0486691
0.0285736 -0.247313 0.18411
0.149776 -0.181795 0.135335
0.0404196 0.156052 -0.116175
0.148046 0.0124883 0.330477
0.225589 0.00305299 0.0805371
-0.0472829 -0.01155 -0.30466
-0.247846 -0.00849032 -0.22395
-0.0668959 0.00726573 0.192273
0.159104 -0.262345 0.355161
0.233958 -0.0617134 0.0835473
-0.0490324 0.233311 -0.315854
-0.257027 0.17148 -0.232149
-0.0718924 -0.152633 0.206634
0 0.191126 0
0 0.04496 0
0 -0.169974 0
0 -0.124928 0
0 0.111198 0
-0.204332 -0.101206 0.276575
-0.300465 -0.0238075 0.0650608
0.0629707 0.0900052 -0.245966
0.330091 0.0661527 -0.180781
0.0923292 -0.0588821 0.160912
-0.0961332 -0.238741 0.130122
-0.141361 -0.0561609 0.0306095
0.0296261 0.212319 -0.115721
0.1553 0.156052 -0.0850532
0.0434386 -0.1389 0.0757052
0.159104 -0.0111157 -0.215356
0.233958 -0.00261484 -0.0506598
-0.0490323 0.00988552 0.191522
-0.257027 0.00726573 0.140766
-0.0718924 -0.00646718 -0.125295
0.170988 0.233512 -0.231441
0.251433 0.0549307 -0.0544437
-0.0526947 -0.207668 0.205827
-0.276225 -0.152633 0.15128
-0.0772622 0.135858 -0.134653
