# vtk DataFile Version 3.0
Velocity field
ASCII
DATASET STRUCTURED_POINTS
DIMENSIONS 8 8 8
SPACING 0.8 0.8 0.8
ORIGIN 0 0 0
POINT_DATA 512
VECTORS velocity float
0 0.205494 0
0 0.143169 0
0 -0.00600034 0
0 -0.15153 0
0 -0.205144 0
0 -0.13432 0
0 0.0179806 0
0 0.159374 0
0 0.0808443 0.209738
0 0.0563247 0.154928
0 -0.00236062 -0.00649315
0 -0.059614 -0.163975
0 -0.0807064 -0.221992
0 -0.0528433 -0.145352
0 0.0070738 0.0194573
0 0.0627 0.162665
0 -0.0928449 0.292251
0 -0.0646857 0.215879
0 0.00271103 -0.00904765
0 0.0684633 -0.228486
0 0.0926866 -0.309327
0 0.0606875 -0.202535
0 -0.00812386 0.0271121
0 -0.0720074 0.22666
0 -0.210216 0.197489
0 -0.146459 0.14588
0 0.0061382 -0.00611396
0 0.155012 -0.154399
0 0.209857 -0.209028
0 0.137406 -0.136863
0 -0.0183937 0.0183211
0 -0.163036 0.153166
0 -0.200072 -0.0170672
0 -0.139392 -0.0126071
0 0.00584202 0.000528374
0 0.147532 0.0133433
0 0.199731 0.0180644
0 0.130776 0.0118279
0 -0.0175062 -0.00158332
0 -0.155169 -0.0132367
0 -0.0685678 -0.221271
0 -0.0477717 -0.163447
0 0.00200215 0.0068502
0 0.0505615 0.172992
0 0.0684509 0.2342
0 0.0448189 0.153345
0 -0.00599963 -0.0205273
0 -0.0531789 -0.17161
0 0.104529 -0.291255
0 0.0728261 -0.215142
0 -0.0030522 0.00901679
0 -0.0770791 0.227706
0 -0.104351 0.308272
0 -0.0683247 0.201844
0 0.0091462 -0.0270197
0 0.0810691 -0.225887
0 0.21422 -0.184567
0 0.149248 -0.128589
0 -0.00625512 0.00538928
0 -0.157964 0.136099
0 -0.213855 0.184253
0 -0.140023 0.120641
0 0.0187441 -0.0161495
0 0.166142 -0.143144
0 0.143169 0
0 0.108296 0
0 -0.00453876 0
0 -0.11462 0
0 -0.155174 0
0 -0.101602 0
0 0.0136008 0
0 0.111037 0
0.0447093 0.0563247 0.207164
0.108893 0.0399867 0.146923
0.106241 -0.00167616 -0.00615866
0.0391398 -0.0423285 -0.155526
-0.0517034 -0.0573051 -0.210552
-0.111184 -0.0375209 -0.137862
-0.103218 0.00501792 0.0184379
-0.0320798 0.0436835 0.160669
0.0622985 -0.0646857 0.288665
0.151734 -0.0458497 0.204723
0.148038 0.0019219 -0.00858152
0.0545375 0.0485341 -0.21671
-0.0720449 0.0657061 -0.293389
-0.154926 0.0430217 -0.192099
-0.143827 -0.00575402 0.0256916
-0.0447004 -0.050168 0.223879
0.0420983 -0.146459 0.195066
0.102534 -0.103811 0.138342
0.100037 0.00435153 -0.00579899
0.0368538 0.10989 -0.146444
-0.0486843 0.14877 -0.198258
-0.104691 0.097409 -0.129811
-0.097191 -0.0130281 0.0173612
-0.0302064 -0.113588 0.151286
-0.00363818 -0.139392 -0.0168578
-0.00886118 -0.0988022 -0.0119557
-0.00864531 0.00414154 0.000501153
-0.00318494 0.104587 0.0126558
0.00420733 0.141592 0.0171335
0.00904757 0.0927092 0.0112184
0.0083993 -0.0123995 -0.00150037
0.00261046 -0.108107 -0.0130743
-0.0471678 -0.0477717 -0.218555
-0.114882 -0.0338613 -0.155002
-0.112083 0.00141938 0.00649729
-0.0412918 0.0358439 0.164078
0.0545465 0.0485258 0.22213
0.117298 0.0317727 0.145443
0.108894 -0.0042495 -0.0194518
0.0338438 -0.0370501 -0.169504
-0.062086 0.0728261 -0.28768
-0.151207 0.0516093 -0.204012
-0.147523 -0.00216333 0.00855171
-0.054348 -0.0546311 0.215957
0.0717945 -0.0739602 0.292368
0.154387 -0.0484262 0.191431
0.143327 0.00647693 -0.0256025
0.044548 0.0564814 -0.223115
-0.0393437 0.149248 -0.182302
-0.0941659 0.103982 -0.127011
-0.0918682 -0.00435799 0.00532314
-0.0338445 -0.110055 0.134429
0.0447088 -0.148994 0.181991
0.0961423 -0.0975553 0.119161
0.0892573 0.0130591 -0.0159513
0.0282299 0.115752 -0.141387
0 -0.00600034 0
0 -0.00453876 0
0 0.000190223 0
0 0.00480382 0
0 0.00650349 0
0 0.00425823 0
0 -0.000570022 0
0 -0.00465366 0
0.0622985 -0.00236062 0.0789271
0.151734 -0.00167616 0.0559528
0.148038 7.02618e-05 -0.00234541
0.0545375 0.00177433 -0.0592294
-0.0720449 0.00240212 -0.0801849
-0.154926 0.00157282 -0.0525019
-0.143827 -0.000210339 0.00702187
-0.0447004 -0.00183081 0.0612131
0.0868076 0.00271103 0.109978
0.211428 0.0019219 0.0779655
0.206277 -8.0561e-05 -0.00326811
0.0759937 -0.00203443 -0.0825304
-0.100388 -0.00275424 -0.111731
-0.215874 -0.00180338 -0.0731576
-0.20041 0.000241192 0.0097844
-0.0622862 0.00210258 0.0852952
0.0586603 0.0061382 0.0743178
0.142874 0.00435153 0.052685
0.139393 -0.000182406 -0.00220845
0.0513524 -0.00460632 -0.05577
-0.0678372 -0.00623613 -0.0755025
-0.145879 -0.00408313 -0.0494362
-0.135427 0.0005461 0.00661179
-0.04209 0.00476058 0.0576383
-0.00506948 0.00584202 -0.00642262
-0.0123473 0.00414154 -0.00455313
-0.0120465 -0.000173603 0.000190856
-0.00443797 -0.00438407 0.00481972
0.00586258 -0.00593522 0.00652497
0.012607 -0.00388614 0.00427231
0.0117038 0.000519748 -0.000571401
0.00363746 0.00453087 -0.00498116
-0.0657242 0.00200215 -0.0832672
-0.160077 0.00141938 -0.0590297
-0.156179 -5.94971e-05 0.00247438
-0.0575368 -0.00150249 0.0624855
0.0760063 -0.00203408 0.0845945
0.163444 -0.00133183 0.0553889
0.151735 0.000178126 -0.00740802
0.0471584 0.0015528 -0.0645792
-0.0865115 -0.0030522 -0.109603
-0.210693 -0.00216333 -0.0776945
-0.205561 9.06815e-05 0.00325676
-0.0757296 0.00229001 0.0822437
0.100039 0.00310024 0.111343
0.215124 0.00202991 0.0729032
0.199713 -0.000271494 -0.00975043
0.0620738 -0.00236718 -0.0850043
-0.0548221 -0.00625512 -0.0694551
-0.131212 -0.00435799 -0.0483898
-0.12801 0.000182647 0.00202806
-0.0471594 0.00461249 0.0512158
0.0622978 0.00624446 0.0693367
0.133966 0.00408862 0.0453989
0.124372 -0.000547318 -0.00607726
0.039336 -0.00485126 -0.053867
0 -0.15153 0
0 -0.11462 0
0 0.00480382 0
0 0.121314 0
0 0.164237 0
0 0.107536 0
0 -0.0143951 0
0 -0.117522 0
0.0420983 -0.059614 -0.0971858
0.102534 -0.0423285 -0.0688965
0.100037 0.00177433 0.00288798
0.0368538 0.0448075 0.0729309
-0.0486843 0.0606614 0.0987347
-0.104691 0.0397184 0.0646471
-0.097191 -0.00531173 -0.00864625
-0.0302064 -0.0462346 -0.075374
0.0586603 0.0684633 -0.13542
0.142874 0.0485341 -0.0960012
0.139393 -0.00203443 0.00402411
0.0513524 -0.0513757 0.101623
-0.0678372 -0.0695538 0.137578
-0.145879 -0.045541 0.0900804
-0.135427 0.00609087 -0.0120478
-0.04209 0.0530978 -0.105027
0.0396398 0.155012 -0.0915102
0.0965468 0.10989 -0.0648727
0.0941953 -0.00460632 0.0027193
0.0347018 -0.116325 0.0686715
-0.0458412 -0.157482 0.0929686
-0.0985777 -0.103112 0.0608723
-0.091515 0.0137908 -0.00814129
-0.0284423 0.120222 -0.0709722
-0.00342571 0.147532 0.0079084
-0.00834364 0.104587 0.00560638
-0.00814038 -0.00438407 -0.000235007
-0.00299897 -0.110711 -0.00593467
0.00396161 -0.149883 -0.00803438
0.00851915 -0.0981377 -0.00526061
0.00790876 0.0131253 0.000703579
0.00245802 0.114421 0.00613349
-0.0444132 0.0505615 0.10253
-0.108172 0.0358439 0.0726851
-0.105537 -0.00150249 -0.00304677
-0.0388806 -0.0379426 -0.0769408
0.0513609 -0.0513669 -0.104163
0.110448 -0.0336332 -0.0682022
0.102534 0.00449828 0.00912171
0.0318674 0.0392138 0.0795187
-0.0584603 -0.0770791 0.134958
-0.142377 -0.0546311 0.0956677
-0.138909 0.00229001 -0.00401013
-0.051174 0.0578298 -0.101269
0.0676015 0.078291 -0.1371
0.145372 0.0512615 -0.0897674
0.134956 -0.0068561 0.012006
0.0419464 -0.0597799 0.104669
-0.0370461 -0.157964 0.0855226
-0.0886666 -0.110055 0.0595842
-0.0865032 0.00461249 -0.00249722
-0.031868 0.116482 -0.0630638
0.0420978 0.157695 -0.0853768
0.0905277 0.103252 -0.0559013
0.0840447 -0.0138218 0.00748316
0.0265813 -0.122512 0.0663284
0 -0.205144 0
0 -0.155174 0
0 0.00650349 0
0 0.164237 0
0 0.222346 0
0 0.145583 0
0 -0.0194883 0
0 -0.159103 0
-0.00363818 -0.0807064 -0.214347
-0.00886118 -0.0573051 -0.151953
-0.00864531 0.00240212 0.00636952
-0.00318494 0.0606614 0.16085
0.00420733 0.0821239 0.217761
0.00904757 0.0537713 0.142583
0.0083993 -0.00719112 -0.0190696
0.00261046 -0.0625931 -0.16624
-0.00506948 0.0926866 -0.298674
-0.0123473 0.0657061 -0.211733
-0.0120465 -0.00275424 0.0088754
-0.00443797 -0.0695538 0.224131
0.00586258 -0.094163 0.303433
0.012607 -0.0616544 0.198677
0.0117038 0.00824589 -0.0265718
0.00363746 0.0718845 -0.231641
-0.00342571 0.209857 -0.201829
-0.00834364 0.14877 -0.14308
-0.00814038 -0.00623613 0.00599758
-0.00299897 -0.157482 0.151457
0.00396161 -0.2132 0.205044
0.00851915 -0.139596 0.134255
0.00790876 0.0186701 -0.017956
0.00245802 0.162758 -0.156532
0.000296053 0.199731 0.0174423
0.000721069 0.141592 0.0123651
0.000703503 -0.00593522 -0.000518312
0.000259172 -0.149883 -0.013089
-0.000342367 -0.202915 -0.0177203
-0.000736236 -0.132859 -0.0116025
-0.000683485 0.0177693 0.00155178
-0.000212424 0.154905 0.0135276
0.00383823 0.0684509 0.226134
0.0093484 0.0485258 0.160309
0.00912074 -0.00203408 -0.00671973
0.00336007 -0.0513669 -0.169695
-0.00443871 -0.0695419 -0.229737
-0.00954504 -0.0455332 -0.150423
-0.00886122 0.00608983 0.0201182
-0.00275401 0.0530882 0.175382
0.00505219 -0.104351 0.297655
0.0123044 -0.0739602 0.210998
0.0120047 0.00310024 -0.00884459
0.00442256 0.078291 -0.223353
-0.00584221 0.105991 -0.302379
-0.0125631 0.069399 -0.197986
-0.0116631 -0.00928187 0.0264796
-0.00362505 -0.0809309 0.230851
0.00320156 -0.213855 0.188623
0.00766266 -0.148994 0.131415
0.00747569 0.00624446 -0.00550772
0.00275407 0.157695 -0.13909
-0.00363814 0.21349 -0.188302
-0.00782349 0.139785 -0.123292
-0.00726323 -0.0187121 0.0165044
-0.00229718 -0.165858 0.14629
0 -0.13432 0
0 -0.101602 0
0 0.00425823 0
0 0.107536 0
0 0.145583 0
0 0.0953221 0
0 -0.0127602 0
0 -0.104174 0
-0.0471678 -0.0528433 -0.201488
-0.114882 -0.0375209 -0.142838
-0.112083 0.00157282 0.00598744
-0.0412918 0.0397184 0.151201
0.0545465 0.0537713 0.204697
0.117298 0.0352076 0.134028
0.108894 -0.00470845 -0.0179257
0.0338438 -0.0409835 -0.156267
-0.0657242 0.0606875 -0.280756
-0.160077 0.0430217 -0.199032
-0.156179 -0.00180338 0.00834292
-0.0575368 -0.045541 0.210685
0.0760063 -0.0616544 0.285231
0.163444 -0.0403685 0.186758
0.151735 0.00539908 -0.0249779
0.0471584 0.0470671 -0.217745
-0.0444132 0.137406 -0.189721
-0.108172 0.097409 -0.134496
-0.105537 -0.00408313 0.00563775
-0.0388806 -0.103112 0.142372
0.0513609 -0.139596 0.192745
0.110448 -0.0914018 0.126201
0.102534 0.0122245 -0.0168788
0.0318674 0.106567 -0.147141
0.00383823 0.130776 0.0163959
0.0093484 0.0927092 0.0116233
0.00912074 -0.00388614 -0.000487219
0.00336007 -0.0981377 -0.0123039
-0.00443871 -0.132859 -0.0166571
-0.00954504 -0.086991 -0.0109064
-0.00886122 0.0116347 0.00145868
-0.00275401 0.101425 0.0127161
0.0497615 0.0448189 0.212568
0.1212 0.0317727 0.150692
0.118247 -0.00133183 -0.00631669
0.0435623 -0.0336332 -0.159515
-0.0575463 -0.0455332 -0.215953
-0.123749 -0.0298134 -0.141399
-0.114883 0.00398736 0.0189113
-0.0357048 0.03476 0.16486
0.0655001 -0.0683247 0.279799
0.159521 -0.0484262 0.19834
0.155636 0.00202991 -0.00831394
0.0573369 0.0512615 -0.209953
-0.0757422 0.069399 -0.28424
-0.162876 0.0454398 -0.186109
-0.151208 -0.00607741 0.0248911
-0.0469976 -0.0529903 0.217002
0.0415072 -0.140023 0.177308
0.0993439 -0.0975553 0.123532
0.0969199 0.00408862 -0.00517731
0.0357056 0.103252 -0.130746
-0.0471672 0.139785 -0.177005
-0.101429 0.0915255 -0.115896
-0.0941654 -0.0122519 0.0155143
-0.0297823 -0.108597 0.137514
0 0.0179806 0
0 0.0136008 0
0 -0.000570022 0
0 -0.0143951 0
0 -0.0194883 0
0 -0.0127602 0
0 0.00170812 0
0 0.0139451 0
-0.062086 0.0070738 -0.0664093
-0.151207 0.00501785 -0.0470863
-0.147523 -0.000210336 0.00197374
-0.054348 -0.00531166 0.0498436
0.0717945 -0.00719102 0.0674786
0.154387 -0.00470839 0.0441823
0.143327 0.000629723 -0.0059091
0.044548 0.0054862 -0.0515048
-0.0865115 -0.00812386 -0.0925357
-0.210693 -0.00575394 -0.0656106
-0.205561 0.000241189 0.00275024
-0.0757296 0.00609079 0.0694525
0.100039 0.00824577 0.0940259
0.215124 0.005399 0.0615647
0.199713 -0.000722139 -0.0082338
0.0620738 -0.00630058 -0.0717675
-0.0584603 -0.0183937 -0.0625311
-0.142377 -0.0130279 -0.0443364
-0.138909 0.000546092 0.00185849
-0.051174 0.0137906 0.0469327
0.0676015 0.0186699 0.0635379
0.145372 0.0122243 0.0416022
0.134956 -0.00163505 -0.00556399
0.0419464 -0.0142655 -0.048497
0.00505219 -0.0175062 0.005404
0.0123044 -0.0123993 0.0038316
0.0120047 0.000519741 -0.000160612
0.00442256 0.0131251 -0.00405596
-0.00584221 0.0177691 -0.00549101
-0.0125631 0.0116345 -0.0035953
-0.0116631 -0.00155616 0.000480848
-0.00362505 -0.0135772 0.00419116
0.0655001 -0.00599963 0.0700611
0.159521 -0.00424944 0.0496755
0.155636 0.000178124 -0.00208227
0.0573369 0.00449821 -0.0525841
-0.0757422 0.00608974 -0.0711894
-0.162876 0.0039873 -0.046612
-0.151208 -0.00053332 0.00623404
-0.0469976 -0.00465311 0.054337
0.0862165 0.0091462 0.0922201
0.209961 0.00647684 0.0653827
0.204846 -0.00027149 -0.00274068
0.0754666 -0.00685601 -0.0692112
-0.0996911 -0.00928173 -0.0936993
-0.214377 -0.00607732 -0.0613505
-0.199018 0.000812878 0.00820524
-0.0618621 0.00709348 0.0715227
0.0546351 0.0187441 0.0584396
0.130764 0.0130591 0.0407153
0.127574 -0.000547318 -0.00170641
0.0469986 -0.0138218 -0.043093
-0.0620853 -0.0187121 -0.05834
-0.133509 -0.0122519 -0.0381987
-0.123948 0.00164009 0.00511342
-0.0392018 0.0145373 0.0453238
0 0.159374 0
0 0.111037 0
0 -0.00465366 0
0 -0.117522 0
0 -0.159103 0
0 -0.104174 0
0 0.0139451 0
0 0.123605 0
-0.0393437 0.0627 0.108952
-0.0941658 0.0436835 0.0759079
-0.0918682 -0.00183081 -0.00318136
-0.0338445 -0.0462346 -0.0803409
0.0447088 -0.0625931 -0.108767
0.0961423 -0.0409835 -0.0712161
0.0892572 0.0054862 0.00953325
0.0282299 0.048628 0.0844998
-0.0548221 -0.0720074 0.151816
-0.131212 -0.050168 0.105771
-0.12801 0.00210258 -0.00443295
-0.0471594 0.0530978 -0.111948
0.0622978 0.0718846 -0.151557
0.133966 0.0470671 -0.0992335
0.124372 -0.00630058 0.0132838
0.039336 -0.0558464 0.117743
-0.0370461 -0.163036 0.10259
-0.0886666 -0.113588 0.071475
-0.0865032 0.00476058 -0.00299557
-0.031868 0.120222 -0.075649
0.0420978 0.162758 -0.102415
0.0905277 0.106567 -0.0670571
0.0840447 -0.0142655 0.00897652
0.0265813 -0.126445 0.0795651
0.00320156 -0.155169 -0.00886591
0.00766266 -0.108107 -0.00617694
0.00747569 0.00453087 0.00025888
0.00275407 0.114421 0.00653766
-0.00363813 0.154905 0.00885079
-0.00782349 0.101425 0.00579514
-0.00726322 -0.0135772 -0.00077576
-0.00229718 -0.120344 -0.0068761
0.0415072 -0.0531789 -0.114944
0.0993439 -0.0370501 -0.080082
0.0969199 0.0015528 0.0033563
0.0357056 0.0392138 0.0847587
-0.0471672 0.0530882 0.114748
-0.101429 0.03476 0.0751322
-0.0941654 -0.00465311 -0.0100575
-0.0297823 -0.0412437 -0.0891463
0.0546351 0.0810691 -0.151298
0.130764 0.0564814 -0.10541
0.127574 -0.00236718 0.00441784
0.0469986 -0.0597799 0.111566
-0.0620853 -0.0809309 0.15104
-0.133509 -0.0529903 0.098895
-0.123948 0.00709348 -0.0132385
-0.0392018 0.0628744 -0.117342
0.0346221 0.166142 -0.0958772
0.0828651 0.115752 -0.0667983
0.0808432 -0.00485126 0.00279957
0.0297829 -0.122512 0.0706992
-0.0393433 -0.165858 0.0957137
-0.0846044 -0.108597 0.0626695
-0.0785456 0.0145373 -0.00838917
-0.0248421 0.128854 -0.0743591
