# vtk DataFile Version 3.0
Velocity field
ASCII
DATASET STRUCTURED_POINTS
DIMENSIONS 10 10 10
SPACING 0.631579 0.631579 0.631579
ORIGIN 0 0 0
POINT_DATA 1000
VECTORS velocity float
0 0.0863809 0
0 0.0697177 0
0 0.0261569 0
0 -0.0274954 0
0 -0.0705398 0
0 -0.0863694 0
0 -0.068877 0
0 -0.0248114 0
0 0.0288266 0
0 0.0713432 0
0 0.0530545 0.0676642
0 0.0428201 0.0567528
0 0.0160654 0.0212927
0 -0.0168875 -0.0223823
0 -0.043325 -0.057422
0 -0.0530474 -0.0703079
0 -0.0423038 -0.0560685
0 -0.015239 -0.0201974
0 0.0177051 0.023466
0 0.0438184 0.0558848
0 -0.000740708 0.109223
0 -0.000597822 0.09161
0 -0.000224293 0.0343705
0 0.000235771 -0.0361293
0 0.000604872 -0.0926902
0 0.000740609 -0.113491
0 0.000590614 -0.0905054
0 0.000212755 -0.0326025
0 -0.000247186 0.0378786
0 -0.000611761 0.0902088
0 -0.0542501 0.108643
0 -0.0437851 0.0911233
0 -0.0164274 0.0341879
0 0.0172681 -0.0359374
0 0.0443014 -0.0921979
0 0.0542429 -0.112888
0 0.0432571 -0.0900246
0 0.0155824 -0.0324293
0 -0.0181041 0.0376774
0 -0.0448059 0.0897296
0 -0.0868294 0.0661474
0 -0.0700797 0.0554806
0 -0.0262927 0.0208154
0 0.0276382 -0.0218806
0 0.0709061 -0.0561349
0 0.0868179 -0.0687319
0 0.0692347 -0.0548116
0 0.0249403 -0.0197447
0 -0.0289763 0.0229399
0 -0.0717136 0.054632
0 -0.0859093 -0.00186818
0 -0.0693371 -0.00156692
0 -0.0260141 -0.000587883
0 0.0273453 0.000617966
0 0.0701547 0.0015854
0 0.0858979 0.00194117
0 0.068501 0.00154803
0 0.024676 0.000557642
0 -0.0286693 -0.000647886
0 -0.0709537 -0.00154295
0 -0.0518448 -0.069163
0 -0.0418437 -0.0580099
0 -0.015699 -0.0217643
0 0.0165024 0.0228781
0 0.0423371 0.058694
0 0.0518379 0.0718653
0 0.0413392 0.0573104
0 0.0148915 0.0206448
0 -0.0173014 -0.0239858
0 -0.0428193 -0.0571227
0 0.00222195 -0.109774
0 0.00179333 -0.0920723
0 0.000672825 -0.034544
0 -0.000707256 0.0363117
0 -0.00181447 0.093158
0 -0.00222165 0.114063
0 -0.0017717 0.0909621
0 -0.000638216 0.0327671
0 0.000741499 -0.0380698
0 0.00183514 -0.090664
0 0.0554313 -0.108034
0 0.0447384 -0.0906124
0 0.0167851 -0.0339962
0 -0.017644 0.0357359
0 -0.045266 0.091681
0 -0.055424 0.112255
0 -0.044199 0.0895199
0 -0.0159217 0.0322475
0 0.0184983 -0.0374661
0 0.0457815 -0.0892265
0 0.087255 -0.064613
0 0.0704232 -0.0521489
0 0.0264216 -0.0195654
0 -0.0277736 0.0205666
0 -0.0712536 0.0527639
0 -0.0872434 0.0646044
0 -0.069574 0.0515201
0 -0.0250625 0.018559
0 0.0291183 -0.0215624
0 0.0720651 -0.0533648
0 0.0697177 0
0 0.059196 0
0 0.0222093 0
0 -0.0233459 0
0 -0.059894 0
0 -0.0733346 0
0 -0.0584822 0
0 -0.0210669 0
0 0.0244762 0
0 0.0575808 0
0.00983828 0.0428201 0.0748852
0.0259009 0.0348173 0.0608759
0.0319016 0.0130633 0.0228403
0.0255941 -0.0137318 -0.0240092
0.00941225 -0.0352291 -0.0615958
-0.0104009 -0.0431347 -0.0754184
-0.0262013 -0.0343986 -0.0601439
-0.0318931 -0.0123913 -0.0216655
-0.0252801 0.0143956 0.02517
-0.00885145 0.0353657 0.0618487
0.0158809 -0.000597822 0.120879
0.041809 -0.000485823 0.0982654
0.0514954 -0.000182278 0.0368687
0.0413137 0.000191606 -0.0387555
0.0151931 0.000491568 -0.0994276
-0.016789 0.000601879 -0.12174
-0.042294 0.00047998 -0.0970838
-0.0514817 0.000172902 -0.0349723
-0.0408067 -0.00020087 0.0406292
-0.0142879 -0.00049375 0.0998358
0.0157965 -0.0437851 0.120237
0.0415869 -0.0355865 0.0977434
0.0512218 -0.0133519 0.036673
0.0410943 0.0140352 -0.0385496
0.0151124 0.0360073 -0.0988994
-0.0166998 0.0440876 -0.121093
-0.0420693 0.0351586 -0.0965681
-0.0512081 0.0126651 -0.0347865
-0.0405899 -0.0147137 0.0404133
-0.014212 -0.0361627 0.0993054
0.00961774 -0.0700797 0.0732065
0.0253203 -0.0569577 0.0595112
0.0311864 -0.0213702 0.0223284
0.0250204 0.0224638 -0.023471
0.00920124 0.0576312 -0.060215
-0.0101677 0.070564 -0.0737277
-0.025614 0.0562727 -0.0587958
-0.0311781 0.0202709 -0.0211799
-0.0247133 -0.0235499 0.0246057
-0.00865303 -0.0578798 0.0604623
-0.000271631 -0.0693371 -0.00206755
-0.00071511 -0.0563541 -0.00168076
-0.000880789 -0.0211438 -0.000630612
-0.000706644 0.0222257 0.000662884
-0.000259867 0.0570205 0.00170063
0.000287165 0.0698162 0.00208226
0.000723406 0.0556763 0.00166055
0.000880555 0.0200561 0.000598176
0.000697971 -0.0233003 -0.000694932
0.000244385 -0.0572664 -0.00170762
-0.0100562 -0.0418437 -0.076544
-0.0264745 -0.0340086 -0.0622244
-0.0326082 -0.0127599 -0.0233463
-0.026161 0.0134128 0.024541
-0.00962071 0.0344108 0.0629603
0.0106313 0.0421329 0.0770889
0.0267817 0.0335996 0.0614761
0.0325996 0.0121035 0.0221454
0.02584 -0.0140613 -0.0257275
0.00904751 -0.0345593 -0.0632187
-0.015961 0.00179333 -0.121489
-0.04202 0.00145752 -0.0987614
-0.0517552 0.000546858 -0.0370548
-0.0415222 -0.000574842 0.0389511
-0.0152698 -0.00147476 0.0999294
0.0168738 -0.00180571 0.122354
0.0425075 -0.00144 0.0975737
0.0517415 -0.000518727 0.0351488
0.0410126 0.000602634 -0.0408342
0.01436 0.00148113 -0.10034
-0.015708 0.0447384 -0.119563
-0.041353 0.0363598 -0.0971939
-0.0509338 0.013642 -0.0364667
-0.0408632 -0.0143401 0.0383329
-0.0150275 -0.0367897 0.0983433
0.016606 -0.0450456 0.120412
0.0418328 -0.0359225 0.0960252
0.0509203 -0.0129403 0.0345909
0.0403617 0.0150335 -0.0401861
0.0141324 0.0369501 -0.0987487
-0.00939464 0.0704232 -0.0715084
-0.0245594 0.0568383 -0.0577142
-0.030249 0.0213248 -0.0216534
-0.0242683 -0.022416 0.0227615
-0.00892467 -0.0575085 0.0583948
0.00986212 -0.0704138 0.0714989
0.024844 -0.0561529 0.0570183
0.0302409 -0.0202278 0.0205396
0.0239707 0.0235013 -0.0238635
0.00845231 0.0581635 -0.0590598
0 0.0261569 0
0 0.0222093 0
0 0.00833256 0
0 -0.00875897 0
0 -0.0224712 0
0 -0.0275139 0
0 -0.0219415 0
0 -0.00790395 0
0 0.00918304 0
0 0.0216033 0
0.0158809 0.0160654 0.053215
0.041809 0.0130633 0.0432522
0.0514954 0.00490129 0.016228
0.0413137 -0.0051521 -0.0170584
0.0151931 -0.0132178 -0.0437637
-0.016789 -0.016184 -0.0535844
-0.042294 -0.0129062 -0.0427321
-0.0514817 -0.00464918 -0.0153932
-0.0408067 0.00540118 0.0178832
-0.0142879 0.0132686 0.043951
0.0256348 -0.000224293 0.0858992
0.0674876 -0.000182278 0.0698173
0.0831231 -6.839e-05 0.0261951
0.0666882 7.18897e-05 -0.0275356
0.0245247 0.000184434 -0.070643
-0.0271008 0.000225823 -0.0864959
-0.0682705 0.000180086 -0.0689776
-0.083101 6.48721e-05 -0.0248477
-0.06587 -7.53655e-05 0.028867
-0.0230635 -0.000185246 0.0709454
0.0254986 -0.0164274 0.0854429
0.0671291 -0.0133519 0.0694464
0.0826815 -0.00500957 0.0260561
0.0663342 0.00526592 -0.0273893
0.0243944 0.0135098 -0.0702677
-0.0269568 0.0165415 -0.0860364
-0.0679078 0.0131913 -0.0686112
-0.0826596 0.00475188 -0.0247157
-0.0655202 -0.00552052 0.0287136
-0.022941 -0.0135676 0.0705685
0.0155249 -0.0262927 0.0520221
0.0408717 -0.0213702 0.0422826
0.050341 -0.00801802 0.0158642
0.0403875 0.00842829 -0.016676
0.0148526 0.021623 -0.0427827
-0.0164128 0.0264752 -0.0523833
-0.0413458 0.0211132 -0.0417741
-0.0503276 0.00760556 -0.0150482
-0.039892 -0.00883581 0.0174823
-0.0139677 -0.0217155 0.0429658
-0.000438464 -0.0260141 -0.00146924
-0.00115433 -0.0211438 -0.00119417
-0.00142176 -0.00793304 -0.000448049
-0.00114066 0.00833897 0.000470975
-0.000419476 0.0213938 0.00120829
0.00046354 0.0261947 0.00147944
0.00116772 0.0208895 0.00117981
0.00142138 0.00752496 0.000425
0.00112666 -0.00874217 -0.000493747
0.000394484 -0.0214854 -0.00121347
-0.0162326 -0.015699 -0.0543937
-0.0427352 -0.0127599 -0.0442102
-0.0526357 -0.00478746 -0.0165875
-0.0422289 0.00503243 0.0174363
-0.0155297 0.0129108 0.0447331
0.0171609 0.015808 0.0547713
0.0432309 0.0126065 0.0436787
0.0526217 0.0045412 0.0157342
0.0417107 -0.00527575 -0.0182793
0.0146044 -0.0129661 -0.0449245
-0.0257642 0.000672825 -0.0863327
-0.0678283 0.000546858 -0.0701697
-0.0835426 0.000205178 -0.0263272
-0.0670248 -0.000215678 0.0276745
-0.0246485 -0.000553325 0.0709995
0.0272375 -0.000677496 0.0869324
0.068615 -0.000540281 0.0693258
0.0835204 -0.000194625 0.0249731
0.0662024 0.000226106 -0.0290126
0.0231799 0.000555696 -0.0713034
-0.0253557 0.0167851 -0.0849639
-0.0667517 0.013642 -0.069056
-0.0822167 0.00511842 -0.0259095
-0.0659612 -0.00538036 0.0272353
-0.0242573 -0.0138033 0.0698726
0.0268052 -0.0169009 0.0855527
0.067526 -0.013478 0.0682255
0.0821948 -0.00485513 0.0245768
0.0651518 0.00564048 -0.0285522
0.0228124 0.013863 -0.0701729
-0.0151648 0.0264216 -0.0508154
-0.0396436 0.0213248 -0.0410129
-0.0488277 0.00800069 -0.0153873
-0.0391736 -0.00841011 0.0161748
-0.0144061 -0.0215762 0.0414965
0.0159194 -0.0264181 0.0508086
0.040103 -0.0210676 0.0405184
0.0488147 -0.00758914 0.0145958
0.0386933 0.00881729 -0.0169579
0.0136437 0.0218219 -0.0419691
0 -0.0274954 0
0 -0.0233459 0
0 -0.00875897 0
0 0.00920719 0
0 0.0236211 0
0 0.0289219 0
0 0.0230644 0
0 0.00830842 0
0 -0.00965297 0
0 -0.0227088 0
0.0157965 -0.0168875 0.011014
0.0415869 -0.0137318 0.00895199
0.0512218 -0.0051521 0.00335874
0.0410943 0.00541577 -0.00353062
0.0151124 0.0138942 -0.00905787
-0.0166998 0.0170121 -0.0110905
-0.0420693 0.0135667 -0.00884434
-0.0512081 0.00488709 -0.00318598
-0.0405899 -0.00567758 0.00370133
-0.014212 -0.0139476 0.00909663
0.0254986 0.000235771 0.0177787
0.0671291 0.000191606 0.0144502
0.0826815 7.18897e-05 0.00542167
0.0663342 -7.55685e-05 -0.00569908
0.0243944 -0.000193872 -0.0146211
-0.0269568 -0.000237378 -0.0179022
-0.0679078 -0.000189302 -0.0142765
-0.0826596 -6.81918e-05 -0.00514277
-0.0655202 7.92222e-05 0.00597464
-0.022941 0.000194726 0.0146837
0.0253632 0.0172681 0.0176843
0.0667725 0.0140352 0.0143735
0.0822423 0.00526592 0.00539287
0.0659819 -0.0055354 -0.00566884
0.0242648 -0.0142011 -0.0145435
-0.0268136 -0.0173879 -0.0178071
-0.0675471 -0.0138664 -0.0142006
-0.0822204 -0.00499505 -0.00511545
-0.0651721 0.00580302 0.0059429
-0.0228191 0.0142619 0.0146057
0.0154424 0.0276382 0.0107671
0.0406546 0.0224638 0.00875131
0.0500736 0.00842829 0.00328344
0.0401731 -0.00885963 -0.00345147
0.0147737 -0.0227294 -0.00885481
-0.0163256 -0.0278301 -0.0108419
-0.0411262 -0.0221937 -0.00864606
-0.0500603 -0.00799478 -0.00311456
-0.0396801 0.00928796 0.00361835
-0.0138935 0.0228268 0.00889272
-0.000436135 0.0273453 -0.000304092
-0.0011482 0.0222257 -0.000247161
-0.00141421 0.00833897 -9.27331e-05
-0.0011346 -0.00876574 9.74791e-05
-0.000417248 -0.0224886 0.000250083
0.000461078 -0.0275351 0.000306203
0.00116152 -0.0219585 0.000244188
0.00141384 -0.00791005 8.79635e-05
0.00112067 0.00918954 -0.000102192
0.000392388 0.0225849 -0.000251154
-0.0161464 0.0165024 -0.011258
-0.0425082 0.0134128 -0.00915029
-0.0523563 0.00503243 -0.00343313
-0.0420046 -0.00528997 0.00360884
-0.0154472 -0.0135714 0.00925847
0.0170698 -0.016617 0.0113362
0.0430013 -0.0132515 0.00904026
0.0523424 -0.00477359 0.00325655
0.0414891 0.00554573 -0.0037833
0.0145268 0.0136296 -0.00929813
-0.0256273 -0.000707256 -0.0178685
-0.0674679 -0.000574842 -0.0145231
-0.0830988 -0.000215678 -0.00544903
-0.0666686 0.000226715 0.00572785
-0.0245175 0.00058164 0.0146949
0.0270929 0.000712162 0.0179926
0.0682506 0.000567931 0.0143485
0.0830767 0.000204584 0.00516872
0.0658508 -0.000237676 -0.00600479
0.0230567 -0.000584132 -0.0147578
-0.025221 -0.017644 -0.0175852
-0.0663971 -0.0143401 -0.0142927
-0.0817799 -0.00538036 -0.00536255
-0.0656108 0.00565569 0.00563696
-0.0241284 0.0145097 0.0144617
0.0266628 0.0177658 0.017707
0.0671673 0.0141677 0.0141208
0.0817582 0.00510359 0.00508669
0.0648057 -0.00592912 -0.00590949
0.0226912 -0.0145725 -0.0145238
-0.0150842 -0.0277736 -0.0105174
-0.039433 -0.022416 -0.00848853
-0.0485683 -0.00841011 -0.00318475
-0.0389655 0.00884048 0.00334772
-0.0143296 0.0226803 0.00858863
0.0158348 0.02777 0.010516
0.03989 0.0221457 0.00838617
0.0485554 0.0079775 0.00302093
0.0384877 -0.0092685 -0.00350981
0.0135712 -0.0229386 -0.00868644
0 -0.0705398 0
0 -0.059894 0
0 -0.0224712 0
0 0.0236211 0
0 0.0606003 0
0 0.0741994 0
0 0.0591719 0
0 0.0213153 0
0 -0.0247648 0
0 -0.0582598 0
0.00961774 -0.043325 -0.0354362
0.0253203 -0.0352291 -0.0288019
0.0311864 -0.0132178 -0.0108064
0.0250204 0.0138942 0.0113593
0.00920124 0.0356458 0.0291425
-0.0101677 0.0436449 0.0356823
-0.025614 0.0348055 0.0284556
-0.0311781 0.0125379 0.0102505
-0.0247133 -0.0145659 -0.0119085
-0.00865303 -0.0357827 -0.0292673
0.0155249 0.000604872 -0.0572009
0.0408717 0.000491568 -0.0464917
0.050341 0.000184434 -0.0174435
0.0403875 -0.000193872 0.0183362
0.0148526 -0.000497381 0.0470415
-0.0164128 -0.000608996 0.0575982
-0.0413458 -0.000485656 0.0459326
-0.0503276 -0.000174947 0.0165463
-0.039892 0.000203246 -0.0192226
-0.0139677 0.000499572 -0.047243
0.0154424 0.0443014 -0.056897
0.0406546 0.0360073 -0.0462447
0.0500736 0.0135098 -0.0173508
0.0401731 -0.0142011 0.0182388
0.0147737 -0.0364332 0.0467916
-0.0163256 -0.044609 0.0572922
-0.0411262 -0.0355744 0.0456886
-0.0500603 -0.0128149 0.0164584
-0.0396801 0.0148877 -0.0191206
-0.0138935 0.0365891 -0.0469921
0.00940214 0.0709061 -0.0346419
0.0247527 0.0576312 -0.0281563
0.0304873 0.021623 -0.0105641
0.0244595 -0.0227294 0.0111047
0.00899502 -0.0583128 0.0284893
-0.00993984 -0.0713985 0.0348824
-0.0250399 -0.0569382 0.0278176
-0.0304792 -0.0205106 0.0100207
-0.0241593 0.0238284 -0.0116416
-0.00845906 0.0585623 -0.0286112
-0.000265542 0.0701547 0.000978379
-0.000699083 0.0570205 0.000795207
-0.000861043 0.0213938 0.000298359
-0.000690802 -0.0224886 -0.000313626
-0.000254043 -0.0576949 -0.000804613
0.000280728 -0.0706419 -0.000985172
0.000707192 -0.0563348 -0.000785647
0.000860814 -0.0202933 -0.000283012
0.000682326 0.0235759 0.000328789
0.000238906 0.0579417 0.000808057
-0.00983078 0.0423371 0.0362212
-0.0258812 0.0344108 0.0294399
-0.0318773 0.0129108 0.0110457
-0.0255746 -0.0135714 -0.0116109
-0.00940508 -0.0348177 -0.0297879
0.010393 -0.0426311 -0.0364727
0.0261813 -0.033997 -0.0290859
0.0318688 -0.0122467 -0.0104775
0.0252608 0.0142276 0.0121723
0.0088447 0.0349668 0.0299156
-0.0156032 -0.00181447 0.0574896
-0.041078 -0.00147476 0.0467263
-0.0505951 -0.000553325 0.0175315
-0.0405914 0.00058164 -0.0184286
-0.0149275 0.0014922 -0.0472789
0.0164956 0.00182707 -0.0578888
0.0415545 0.00145703 -0.0461644
0.0505817 0.000524861 -0.0166297
0.0400933 -0.00060976 0.0193196
0.0140381 -0.0014986 0.0474814
-0.0153558 -0.045266 0.0565781
-0.040426 -0.0367897 0.0459848
-0.049792 -0.0138033 0.0172533
-0.0399472 0.0145097 -0.0181362
-0.0146906 0.0372248 -0.0465286
0.0162338 0.0455782 -0.0569701
0.040895 0.0363474 -0.0454318
0.0497788 0.0130933 -0.0163658
0.039457 -0.0152112 0.0190131
0.0138156 -0.0373858 0.0467286
-0.00918405 -0.0712536 0.0338383
-0.0240089 -0.0575085 0.0273108
-0.0295709 -0.0215762 0.0102465
-0.0237242 0.0226803 -0.0107709
-0.00872461 0.0581867 -0.0276328
0.00964105 0.0712441 -0.0338338
0.0242871 0.0568151 -0.0269815
0.029563 0.0204664 -0.00971947
0.0234333 -0.0237784 0.0112924
0.00826284 -0.0588493 0.0279475
0 -0.0863694 0
0 -0.0733347 0
0 -0.0275139 0
0 0.0289219 0
0 0.0741994 0
0 0.0908503 0
0 0.0724504 0
0 0.0260986 0
0 -0.0303222 0
0 -0.0713336 0
-0.000271631 -0.0530474 -0.0682149
-0.00071511 -0.0431347 -0.0554437
-0.000880789 -0.016184 -0.0208022
-0.000706644 0.0170121 0.0218668
-0.000259867 0.0436449 0.0560994
0.000287165 0.053439 0.0686884
0.000723406 0.0426161 0.0547769
0.000880555 0.0153515 0.0197322
0.000697971 -0.0178346 -0.0229239
0.000244385 -0.0438126 -0.0563397
-0.000438464 0.000740609 -0.110112
-0.00115433 0.000601879 -0.0894969
-0.00142176 0.000225823 -0.0335787
-0.00114066 -0.000237378 0.0352972
-0.000419476 -0.000608996 0.0905555
0.00046354 -0.000745656 0.110876
0.00116772 -0.000594641 0.0884208
0.00142138 -0.000214206 0.0318516
0.00112666 0.000248855 -0.0370037
0.000394484 0.000611679 -0.0909431
-0.000436135 0.0542429 -0.109527
-0.0011482 0.0440876 -0.0890215
-0.00141421 0.0165415 -0.0334003
-0.0011346 -0.0173879 0.0351097
-0.000417248 -0.044609 0.0900744
0.000461078 -0.0546194 0.110287
0.00116152 -0.0435576 0.087951
0.00141384 -0.0156906 0.0316824
0.00112067 0.0182286 -0.0368071
0.000392388 0.0448 -0.0904599
-0.000265542 0.0868179 -0.0666858
-0.000699083 0.070564 -0.0542008
-0.000861043 0.0264752 -0.0203359
-0.000690802 -0.0278301 0.0213766
-0.000254043 -0.0713985 0.0548418
0.000280728 -0.0874209 0.0671486
0.000707192 -0.0697153 0.0535491
0.000860814 -0.0251135 0.0192898
0.000682326 0.0291757 -0.0224101
0.000238906 0.0717041 -0.0550767
7.4996e-06 0.0858979 0.00188338
1.97439e-05 0.0698162 0.00153078
2.43182e-05 0.0261947 0.000574342
1.95101e-05 -0.0275351 -0.00060373
7.17486e-06 -0.0706419 -0.00154888
-7.9285e-06 -0.0864945 -0.00189646
-1.99729e-05 -0.0689765 -0.00151237
-2.43118e-05 -0.0248473 -0.000544797
-1.92706e-05 0.0288665 0.00063292
-6.74735e-06 0.0709442 0.00155551
0.000277647 0.0518379 0.0697259
0.000730951 0.0421329 0.056672
0.0009003 0.015808 0.0212631
0.000722293 -0.016617 -0.0223512
0.000265624 -0.0426311 -0.0573422
-0.000293526 -0.0521979 -0.07021
-0.000739429 -0.0416261 -0.0559904
-0.00090006 -0.0149948 -0.0201692
-0.000713428 0.0174204 0.0234318
-0.000249798 0.0428136 0.0575876
0.000440677 -0.00222165 0.110668
0.00116015 -0.00180571 0.0899486
0.00142893 -0.000677496 0.0337482
0.00114642 0.000712162 -0.0354754
0.000421593 0.00182707 -0.091012
-0.000465876 0.00223708 -0.111436
-0.00117361 0.001784 -0.088867
-0.00142855 0.000642644 -0.0320124
-0.00113235 -0.000746595 0.0371904
-0.000396475 -0.00183489 0.091402
0.00043369 -0.055424 0.108913
0.00114174 -0.0450456 0.088521
0.00140626 -0.0169009 0.0332126
0.00112822 0.0177658 -0.0349123
0.000414902 0.0455782 -0.0895678
-0.000458485 0.0558064 -0.109667
-0.00115498 0.044504 -0.0874567
-0.00140588 0.0160316 -0.0315043
-0.00111437 -0.0186247 0.0366002
-0.000390188 -0.0457754 0.0899528
0.000259382 -0.0872434 0.0651389
0.000678074 -0.0704138 0.0525734
0.000835161 -0.0264181 0.0197246
0.000670036 0.02777 -0.020734
0.000246406 0.0712441 -0.0531933
-0.000272289 0.0872318 -0.0651303
-0.000685933 0.0695648 -0.0519395
-0.000834939 0.0250591 -0.01871
-0.000661819 -0.0291145 0.0217379
-0.000233365 -0.0720555 0.0537991
0 -0.068877 0
0 -0.0584822 0
0 -0.0219415 0
0 0.0230644 0
0 0.0591719 0
0 0.0724504 0
0 0.0577771 0
0 0.0208129 0
0 -0.024181 0
0 -0.0568865 0
-0.0100562 -0.0423038 -0.0746758
-0.0264745 -0.0343986 -0.0606949
-0.0326082 -0.0129062 -0.0227724
-0.0261611 0.0135667 0.0239378
-0.00962071 0.0348055 0.0614126
0.0106313 0.0426161 0.0751943
0.0267817 0.033985 0.059965
0.0325996 0.0122423 0.0216012
0.02584 -0.0142225 -0.0250952
0.00904751 -0.0349392 -0.0616758
-0.0162326 0.000590614 -0.120541
-0.0427352 0.00047998 -0.0979735
-0.0526357 0.000180086 -0.0367592
-0.0422289 -0.000189302 0.0386402
-0.0155297 -0.000485656 0.0991322
0.0171609 -0.000594641 0.121378
0.0432309 -0.000474208 0.0967952
0.0526217 -0.000170823 0.0348683
0.0417107 0.000198455 -0.0405084
0.0146044 0.000487796 -0.0995566
-0.0161464 0.0432571 -0.119901
-0.0425082 0.0351586 -0.097453
-0.0523563 0.0131913 -0.036564
-0.0420046 -0.0138664 0.0384349
-0.0154472 -0.0355744 0.0986055
0.0170698 -0.0435576 0.120733
0.0430013 -0.0347357 0.096281
0.0523424 -0.0125128 0.0346831
0.0414891 0.0145368 -0.0402932
0.0145268 0.0357266 -0.0990277
-0.00983078 0.0692347 -0.0730018
-0.0258812 0.0562727 -0.0593345
-0.0318773 0.0211132 -0.0222621
-0.0255746 -0.0221937 0.0234012
-0.00940508 -0.0569382 0.060036
0.010393 -0.0697153 0.0735087
0.0261814 -0.0555959 0.0586211
0.0318688 -0.0200272 0.0211169
0.0252608 0.0232667 -0.0245326
0.0088447 0.0571819 -0.0602932
0.000277647 0.068501 0.00206177
0.000730951 0.0556763 0.00167576
0.0009003 0.0208895 0.000628738
0.000722293 -0.0219585 -0.000660914
0.000265624 -0.0563348 -0.00169558
-0.000293526 -0.0689765 -0.00207608
-0.000739429 -0.0550067 -0.00165561
-0.00090006 -0.019815 -0.000596398
-0.000713428 0.0230201 0.000692868
-0.000249798 0.0565759 0.00170284
0.010279 0.0413392 0.0763299
0.027061 0.0335996 0.0620394
0.0333304 0.0126065 0.0232769
0.0267405 -0.0132515 -0.0244681
0.00983383 -0.033997 -0.0627731
-0.0108668 -0.0416261 -0.0768597
-0.0273749 -0.0331956 -0.0612933
-0.0333215 -0.011958 -0.0220796
-0.0264123 0.0138922 0.0256511
-0.00924792 0.0341426 0.0630419
0.0163146 -0.0017717 0.121149
0.0429509 -0.00144 0.098468
0.0529014 -0.000540281 0.0369447
0.0424421 0.000567931 -0.0388352
0.0156081 0.00145703 -0.0996325
-0.0172475 0.001784 -0.12199
-0.0434491 0.00142268 -0.0972837
-0.0528873 0.000512491 -0.0350443
-0.0419212 -0.000595388 0.0407128
-0.0146781 -0.00146327 0.100059
0.0160559 -0.044199 0.119229
0.0422692 -0.0359226 0.0969051
0.0520619 -0.013478 0.0363584
0.0417684 0.0141677 -0.038219
0.0153603 0.0363474 -0.0980512
-0.0169738 0.044504 -0.120054
-0.0427595 0.0354906 -0.0957397
-0.0520481 0.0127847 -0.0344881
-0.0412558 -0.0148527 0.0400667
-0.0144454 -0.0365045 0.0984725
0.00960274 -0.069574 0.0713085
0.0251034 -0.0561529 0.0575528
0.030919 -0.0210676 0.0215928
0.0248058 0.0221457 -0.0226978
0.00912235 0.0568151 -0.0582315
-0.0100806 0.0695648 -0.071299
-0.0253943 0.0554758 -0.0568588
-0.0309108 0.0199839 -0.0204821
-0.0245016 -0.0232179 0.0237967
-0.00863954 -0.0574621 0.0588946
0 -0.0248114 0
0 -0.0210669 0
0 -0.00790395 0
0 0.00830842 0
0 0.0213153 0
0 0.0260986 0
0 0.0208129 0
0 0.00749738 0
0 -0.00871068 0
0 -0.0204921 0
-0.015961 -0.015239 -0.0523262
-0.04202 -0.0123913 -0.0425298
-0.0517552 -0.00464918 -0.015957
-0.0415222 0.00488709 0.0167735
-0.0152698 0.0125379 0.0430327
0.0168738 0.0153515 0.0526893
0.0425075 0.0122423 0.0420183
0.0517415 0.00441004 0.0151361
0.0410126 -0.00512335 -0.0175845
0.01436 -0.0125861 -0.0432169
-0.0257642 0.000212755 -0.0844645
-0.0678283 0.000172902 -0.068651
-0.0835426 6.48721e-05 -0.0257576
-0.0670248 -6.81918e-05 0.0270757
-0.0246485 -0.000174947 0.0694629
0.0272375 -0.000214206 0.085051
0.068615 -0.000170823 0.0678254
0.0835204 -6.15352e-05 0.0244326
0.0662024 7.14889e-05 -0.0283847
0.0231799 0.000175718 -0.0697604
-0.0256273 0.0155824 -0.0840158
-0.0674679 0.0126651 -0.0682863
-0.0830988 0.00475188 -0.0256208
-0.0666686 -0.00499505 0.0269318
-0.0245175 -0.0128149 0.0690939
0.0270928 -0.0156906 0.0845992
0.0682506 -0.0125128 0.0674651
0.0830767 -0.00450746 0.0243028
0.0658508 0.00523655 -0.028234
0.0230567 0.0128697 -0.0693898
-0.0156032 0.0249403 -0.0511532
-0.041078 0.0202709 -0.0415763
-0.0505951 0.00760556 -0.0155992
-0.0405914 -0.00799478 0.0163975
-0.0149275 -0.0205106 0.042068
0.0164956 -0.0251135 0.0515085
0.0415545 -0.0200272 0.0410763
0.0505817 -0.00721437 0.0147969
0.0400933 0.00838129 -0.0171903
0.0140381 0.0205985 -0.0422481
0.000440677 0.024676 0.0014447
0.00116015 0.0200561 0.00117423
0.00142893 0.00752496 0.000440565
0.00114642 -0.00791005 -0.000463111
0.000421593 -0.0202933 -0.00118811
-0.000465876 -0.0248473 -0.00145473
-0.00117361 -0.019815 -0.00116011
-0.00142855 -0.00713792 -0.000417901
-0.00113235 0.0082925 0.0004855
-0.000396475 0.0203802 0.0011932
0.0163146 0.0148915 0.0534852
0.0429509 0.0121035 0.0434718
0.0529014 0.0045412 0.0163104
0.0424421 -0.00477359 -0.017145
0.0156081 -0.0122467 -0.0439859
-0.0172475 -0.0149948 -0.0538565
-0.0434491 -0.011958 -0.0429491
-0.0528873 -0.00430759 -0.0154714
-0.0419212 0.00500437 0.017974
-0.0146781 0.0122991 0.0441742
0.0258942 -0.000638216 0.0848907
0.0681705 -0.000518727 0.0689975
0.0839643 -0.000194625 0.0258876
0.067363 0.000204584 -0.0272123
0.0247729 0.000524861 -0.0698135
-0.027375 0.000642644 -0.0854803
-0.0689613 0.000512491 -0.0681678
-0.083942 0.000184613 -0.024556
-0.0665362 -0.000214475 0.028528
-0.0232968 -0.000527111 0.0701125
0.0254836 -0.0159217 0.0835448
0.0670886 -0.0129403 0.0679024
0.0826316 -0.00485513 0.0254767
0.0662941 0.00510359 -0.0267804
0.0243797 0.0130933 -0.0687054
-0.0269405 0.0160316 -0.0841235
-0.0678668 0.0127847 -0.0670858
-0.0826096 0.00460539 -0.0241662
-0.0654805 -0.00535034 0.0280752
-0.0229275 -0.0131499 0.0690008
0.0152413 -0.0250625 0.0499666
0.0398437 -0.0202278 0.0403279
0.0490741 -0.00758914 0.0151303
0.0393713 0.0079775 -0.0159046
0.0144788 0.0204664 -0.0408034
-0.0159997 0.0250591 -0.04996
-0.0403054 0.0199839 -0.0398416
-0.049061 0.00719876 -0.0143521
-0.0388885 -0.00836374 0.0166746
-0.0137125 -0.0206995 0.0412681
0 0.0288266 0
0 0.0244762 0
0 0.00918304 0
0 -0.00965297 0
0 -0.0247648 0
0 -0.0303222 0
0 -0.024181 0
0 -0.00871068 0
0 0.0101203 0
0 0.0238083 0
-0.015708 0.0177051 -0.00978876
-0.041353 0.0143956 -0.00795692
-0.0509338 0.00540117 -0.0029854
-0.0408632 -0.00567757 0.00313818
-0.0150275 -0.0145659 0.00805103
0.016606 -0.0178345 0.00985772
0.0418328 -0.0142225 0.00786124
0.0509203 -0.00512334 0.00283184
0.0403617 0.00595206 -0.00328989
0.0141324 0.0146229 -0.00808467
-0.0253557 -0.000247186 -0.0158009
-0.0667517 -0.00020087 -0.012844
-0.0822167 -7.53654e-05 -0.004819
-0.0659612 7.9222e-05 0.00506561
-0.0242573 0.000203245 0.0129959
0.0268052 0.000248855 0.0159123
0.067526 0.000198454 0.0126896
0.0821948 7.14888e-05 0.00457113
0.0651518 -8.30524e-05 -0.00531052
0.0228124 -0.000204154 -0.0130502
-0.025221 -0.0181041 -0.015717
-0.0663971 -0.0147137 -0.0127757
-0.0817799 -0.00552051 -0.00479341
-0.0656108 0.00580301 0.0050387
-0.0241284 0.0148876 0.0129269
0.0266628 0.0182286 0.0158277
0.0671673 0.0145368 0.0126222
0.0817582 0.00523654 0.00454685
0.0648057 -0.00608358 -0.00528231
0.0226912 -0.0149524 -0.0129809
-0.0153558 -0.0289763 -0.00956933
-0.040426 -0.0235498 -0.00777855
-0.049792 -0.00883579 -0.00291847
-0.0399472 0.00928794 0.00306783
-0.0146906 0.0238283 0.00787054
0.0162338 0.0291756 0.00963673
0.040895 0.0232666 0.007685
0.0497788 0.00838127 0.00276836
0.039457 -0.00973699 -0.00321614
0.0138156 -0.023932 -0.00790344
0.00043369 -0.0286693 0.000270263
0.00114174 -0.0233003 0.000219687
0.00140626 -0.00874215 8.24257e-05
0.00112822 0.00918952 -8.66436e-05
0.000414902 0.0235758 -0.000222285
-0.000458485 0.0288664 -0.000272167
-0.00115498 0.02302 -0.000217045
-0.00140588 0.00829248 -7.81858e-05
-0.00111437 -0.00963381 9.08325e-05
-0.000390188 -0.0236783 0.000223214
0.0160559 -0.0173014 0.0100056
0.0422692 -0.0140613 0.00813316
0.0520619 -0.00527573 0.00305153
0.0417684 0.00554572 -0.00320769
0.0153603 0.0142276 -0.00822936
-0.0169738 0.0174204 -0.0100761
-0.0427595 0.0138922 -0.00803538
-0.0520481 0.00500436 -0.00289456
-0.0412558 -0.00581384 0.00336276
-0.0144454 -0.0142895 0.00826376
0.0254836 0.000741499 0.0158807
0.0670886 0.000602633 0.0129088
0.0826316 0.000226105 0.00484332
0.0662941 -0.000237676 -0.00509117
0.0243797 -0.000609759 -0.0130615
-0.0269405 -0.000746594 -0.0159926
-0.0678668 -0.000595387 -0.0127536
-0.0826096 -0.000214475 -0.00459419
-0.0654805 0.000249167 0.00533732
-0.0229275 0.000612414 0.0131161
0.0250796 0.0184983 0.0156289
0.0660237 0.0150334 0.0127039
0.0813201 0.00564047 0.00476646
0.0652419 -0.00592911 -0.00501037
0.0239927 -0.0152112 -0.0128542
-0.0265129 -0.0186247 -0.0157387
-0.0667896 -0.0148526 -0.0125512
-0.0812985 -0.00535033 -0.00452128
-0.0644414 0.00621577 0.00525262
-0.022564 0.015278 0.0129081
0.0149996 0.0291183 0.00934736
0.0392119 0.0235013 0.00754422
0.048296 0.00881729 0.00283046
0.0387471 -0.0092685 -0.00297531
0.0142493 -0.0237784 -0.00763318
-0.015746 -0.0291145 -0.00934612
-0.0396664 -0.0232179 -0.00745325
-0.0482831 -0.00836374 -0.00268487
-0.0382719 0.00971724 0.00311936
-0.0134951 0.0240492 0.00772011
0 0.0713432 0
0 0.0575808 0
0 0.0216033 0
0 -0.0227088 0
0 -0.0582598 0
0 -0.0713337 0
0 -0.0568865 0
0 -0.0204921 0
0 0.0238083 0
0 0.0589233 0
-0.00939464 0.0438184 0.0365253
-0.0245594 0.0353657 0.0294794
-0.030249 0.0132686 0.0110602
-0.0242682 -0.0139476 -0.0116262
-0.00892466 -0.0357827 -0.029827
0.00986212 -0.0438126 -0.0365204
0.024844 -0.0349393 -0.029124
0.0302409 -0.0125861 -0.0104913
0.0239706 0.0146229 0.0121891
0.00845231 0.0361902 0.0301667
-0.0151648 -0.000611761 0.0589588
-0.0396436 -0.00049375 0.0475855
-0.0488276 -0.000185246 0.0178533
-0.0391736 0.000194726 -0.0187669
-0.0144061 0.000499572 -0.0481466
0.0159194 0.000611679 -0.058951
0.040103 0.000487796 -0.0470117
0.0488147 0.000175718 -0.0169349
0.0386932 -0.000204154 0.0196755
0.0136437 -0.000505262 0.0486949
-0.0150842 -0.0448059 0.0586456
-0.039433 -0.0361627 0.0473327
-0.0485683 -0.0135676 0.0177584
-0.0389655 0.0142619 -0.0186672
-0.0143296 0.0365891 -0.0478908
0.0158348 0.0448 -0.0586378
0.03989 0.0357266 -0.0467619
0.0485553 0.0128697 -0.0168449
0.0384877 -0.0149524 0.019571
0.0135712 -0.0370058 0.0484362
-0.00918405 -0.0717136 0.0357065
-0.0240089 -0.0578798 0.0288186
-0.0295709 -0.0217155 0.0108122
-0.0237242 0.0228268 -0.0113655
-0.0087246 0.0585623 -0.0291584
0.00964104 0.0717041 -0.0357018
0.0242871 0.0571819 -0.0284711
0.029563 0.0205985 -0.0102561
0.0234333 -0.023932 0.0119158
0.00826284 -0.0592293 0.0294905
0.000259382 -0.0709537 -0.00100845
0.000678074 -0.0572664 -0.000813914
0.000835161 -0.0214854 -0.000305367
0.000670036 0.0225849 0.000320993
0.000246406 0.0579417 0.000823512
-0.000272289 0.0709443 0.00100831
-0.000685933 0.0565759 0.0008041
-0.000834939 0.0203802 0.000289659
-0.000661819 -0.0236783 -0.000336535
-0.000233365 -0.0586016 -0.00083289
0.00960274 -0.0428193 -0.0373343
0.0251034 -0.0345593 -0.0301324
0.030919 -0.0129661 -0.0113052
0.0248058 0.0136296 0.0118837
0.00912235 0.0349668 0.0304877
-0.0100806 0.0428136 0.0373294
-0.0253943 0.0341426 0.0297691
-0.0309108 0.0122991 0.0107236
-0.0245016 -0.0142895 -0.0124591
-0.00863954 -0.035365 -0.0308349
0.0152413 0.00183514 -0.0592564
0.0398437 0.00148113 -0.0478256
0.049074 0.000555696 -0.0179434
0.0393713 -0.000584132 0.0188616
0.0144788 -0.0014986 0.0483896
-0.0159997 -0.00183489 0.0592485
-0.0403054 -0.00146327 0.0472489
-0.049061 -0.000527111 0.0170204
-0.0388885 0.000612414 -0.0197748
-0.0137125 0.00151567 -0.0489407
0.0149996 0.0457815 -0.0583168
0.0392119 0.0369501 -0.0470673
0.048296 0.013863 -0.0176589
0.0387471 -0.0145725 0.0185625
0.0142493 -0.0373858 0.0476223
-0.015746 -0.0457754 0.0583091
-0.0396664 -0.0365045 0.0464998
-0.0482831 -0.0131499 0.0167505
-0.0382719 0.015278 -0.0194612
-0.0134951 0.0378116 -0.0481647
0.00897101 0.0720651 -0.0348783
0.023452 0.0581635 -0.0281501
0.028885 0.0218219 -0.0105614
0.0231739 -0.0229386 0.0111019
0.00852223 -0.0588493 0.0284821
-0.00941741 -0.0720555 0.0348736
-0.0237237 -0.0574621 0.0278107
-0.0288773 -0.0206995 0.0100182
-0.0228898 0.0240492 -0.0116394
-0.00807117 0.0595196 -0.0288064
