# vtk DataFile Version 3.0
Velocity field
ASCII
DATASET STRUCTURED_POINTS
DIMENSIONS 10 10 10
SPACING 0.631579 0.631579 0.631579
ORIGIN 0 0 0
POINT_DATA 1000
VECTORS velocity float
0 0.0418108 0
0 0.0337453 0
0 0.0126607 0
0 -0.0133086 0
0 -0.0341432 0
0 -0.0418052 0
0 -0.0333384 0
0 -0.0120094 0
0 0.0139529 0
0 0.0345321 0
0 0.0256799 0.0327514
0 0.0207261 0.02747
0 0.00777609 0.0103063
0 -0.00817401 -0.0108337
0 -0.0209705 -0.0277939
0 -0.0256764 -0.034031
0 -0.0204762 -0.0271387
0 -0.00737609 -0.00977612
0 0.00856977 0.0113582
0 0.0212094 0.0270498
0 -0.000358523 0.052867
0 -0.000289363 0.0443418
0 -0.000108564 0.0166363
0 0.00011412 -0.0174876
0 0.000292775 -0.0448647
0 0.000358476 -0.0549326
0 0.000285874 -0.0438071
0 0.00010298 -0.0157805
0 -0.000119645 0.0183343
0 -0.000296109 0.0436636
0 -0.0262586 0.0525861
0 -0.0211932 0.0441062
0 -0.00795133 0.0165479
0 0.00835823 -0.0173947
0 0.0214431 -0.0446263
0 0.0262551 -0.0546408
0 0.0209377 -0.0435744
0 0.00754232 -0.0156967
0 -0.0087629 0.0182369
0 -0.0216873 0.0434316
0 -0.0420279 0.0320172
0 -0.0339206 0.0268542
0 -0.0127264 0.0100752
0 0.0133777 -0.0105908
0 0.0343205 -0.0271708
0 0.0420223 -0.0332681
0 0.0335115 -0.0265304
0 0.0120718 -0.00955697
0 -0.0140254 0.0111036
0 -0.0347114 0.0264434
0 -0.0415825 -0.000904251
0 -0.0335611 -0.000758435
0 -0.0125916 -0.000284552
0 0.0132359 0.000299112
0 0.0339569 0.000767377
0 0.041577 0.000939582
0 0.0331564 0.000749287
0 0.0119439 0.000269915
0 -0.0138767 -0.000313595
0 -0.0343436 -0.000746833
0 -0.0250943 -0.0334768
0 -0.0202535 -0.0280784
0 -0.00759878 -0.0105345
0 0.00798763 0.0110736
0 0.0204924 0.0284095
0 0.025091 0.0347848
0 0.0200093 0.0277399
0 0.00720791 0.00999266
0 -0.00837436 -0.0116098
0 -0.0207257 -0.027649
0 0.00107549 -0.0531338
0 0.00086802 -0.0445656
0 0.000325666 -0.0167202
0 -0.000342332 0.0175759
0 -0.000878256 0.0450911
0 -0.00107534 0.0552098
0 -0.000857554 0.0440282
0 -0.000308914 0.0158602
0 0.000358906 -0.0184268
0 0.000888258 -0.0438839
0 0.0268303 -0.0522913
0 0.0216547 -0.043859
0 0.00812446 -0.0164551
0 -0.00854021 0.0172972
0 -0.02191 0.0443761
0 -0.0268268 0.0543345
0 -0.0213935 0.0433301
0 -0.00770655 0.0156087
0 0.0089537 -0.0181347
0 0.0221595 -0.0431881
0 0.0422338 -0.0312745
0 0.0340868 -0.0252415
0 0.0127888 -0.0094702
0 -0.0134432 0.00995481
0 -0.0344887 0.0255392
0 -0.0422282 0.0312703
0 -0.0336758 0.0249372
0 -0.0121309 0.00898306
0 0.0140941 -0.0104368
0 0.0348815 -0.02583
0 0.0337453 0
0 0.0286525 0
0 0.0107499 0
0 -0.0113 0
0 -0.0289904 0
0 -0.035496 0
0 -0.028307 0
0 -0.010197 0
0 0.0118471 0
0 0.0278707 0
0.004762 0.0207261 0.0362465
0.0124919 0.0167895 0.0293584
0.0153859 0.00629918 0.0110149
0.0123439 -0.00662153 -0.0115785
0.00453947 -0.0169876 -0.0297048
-0.00501629 -0.0207997 -0.0363708
-0.0126367 -0.0165872 -0.0290046
-0.0153818 -0.00597517 -0.0104483
-0.0121925 0.00694201 0.0121389
-0.00428435 0.017118 0.0299365
0.00768679 -0.000289363 0.0585089
0.0201644 -0.000234342 0.0473901
0.0248358 -8.7922e-05 0.0177801
0.0199253 9.24213e-05 -0.01869
0.00732758 0.000237108 -0.0479494
-0.00809727 0.000290316 -0.0587095
-0.0203981 0.000231518 -0.046819
-0.0248292 8.33993e-05 -0.0168655
-0.019681 -9.68944e-05 0.0195945
-0.00691576 -0.000238989 0.0483233
0.00764595 -0.0211932 0.0581981
0.0200572 -0.017164 0.0471383
0.0247039 -0.0064397 0.0176857
0.0198195 0.00676923 -0.0185907
0.00728866 0.0173665 -0.0476946
-0.00805425 0.0212637 -0.0583976
-0.0202898 0.0169572 -0.0465703
-0.0246973 0.00610845 -0.0167759
-0.0195764 -0.00709686 0.0194904
-0.00687903 -0.0175037 0.0480666
0.00465525 -0.0339206 0.035434
0.0122119 -0.0274716 0.0287003
0.015041 -0.010307 0.0107679
0.0120672 0.0108344 -0.011319
0.00443771 0.0277958 -0.029039
-0.00490385 0.0340334 -0.0355555
-0.0123534 0.0271406 -0.0283544
-0.015037 0.0097768 -0.0102141
-0.0119192 -0.0113588 0.0118668
-0.00418831 -0.0280154 0.0292654
-0.000131477 -0.0335611 -0.00100075
-0.000344897 -0.0271806 -0.000810572
-0.000424799 -0.0101978 -0.000304115
-0.000340809 0.0107196 0.000319678
-0.000125333 0.0275013 0.000820137
0.000138498 0.0336727 0.00100418
0.000348895 0.026853 0.000800805
0.000424686 0.0096732 0.000288472
0.000336629 -0.0112384 -0.00033515
0.000118289 -0.0277185 -0.000826534
-0.00486748 -0.0202535 -0.0370494
-0.0127686 -0.016403 -0.0300087
-0.0157267 -0.00615416 -0.0112589
-0.0126173 0.00646909 0.011835
-0.00464001 0.0165965 0.0303628
0.00512742 0.0203209 0.0371764
0.0129167 0.0162053 0.0296471
0.0157225 0.0058376 0.0106797
0.0124625 -0.0067822 -0.0124078
0.00437925 -0.0167277 -0.0305996
-0.00772558 0.00086802 -0.0588042
-0.0202661 0.000702993 -0.0476293
-0.0249611 0.000263753 -0.0178698
-0.0200259 -0.00027725 0.0187843
-0.00736456 -0.000711289 0.0481913
0.00813814 -0.000870907 0.0590058
0.0205011 -0.000694523 0.0470553
0.0249545 -0.000250186 0.0169506
0.0197803 0.00029067 -0.0196934
0.00695066 0.000716909 -0.0485672
-0.00760309 0.0216547 -0.0578718
-0.0199447 0.0175375 -0.0468739
-0.0245653 0.00657983 -0.0175864
-0.0197083 -0.00691654 0.0184864
-0.00724776 -0.0177445 0.047427
0.00800907 -0.0217265 0.05807
0.0201759 -0.0173262 0.046309
0.0245587 -0.00624138 0.0166818
0.0194666 0.00725131 -0.0193811
0.00684046 0.0178849 -0.0477971
-0.00454727 0.0340868 -0.0346121
-0.0118874 0.0275113 -0.0279353
-0.0146413 0.0103218 -0.0104808
-0.0117465 -0.01085 0.0110172
-0.00431979 -0.0278357 0.0282647
0.00477354 -0.0340823 0.0346075
0.0120252 -0.0271796 0.0275984
0.0146375 -0.00979084 0.00994172
0.0116025 0.0113753 -0.0115506
0.00409116 0.0281527 -0.0285866
0 0.0126607 0
0 0.0107499 0
0 0.00403319 0
0 -0.00423958 0
0 -0.0108767 0
0 -0.0133175 0
0 -0.0106203 0
0 -0.00382573 0
0 0.00444485 0
0 0.0104566 0
0.00768679 0.00777609 0.0257575
0.0201644 0.00629918 0.0208607
0.0248358 0.00236337 0.00782667
0.0199253 -0.00248431 -0.00822718
0.00732758 -0.00637352 -0.0211069
-0.00809727 -0.00780379 -0.0258435
-0.0203981 -0.00622328 -0.0206094
-0.0248292 -0.0022418 -0.00742405
-0.019681 0.00260455 0.00862538
-0.00691576 0.00642237 0.0212735
0.012408 -0.000108564 0.0415776
0.0325492 -8.7922e-05 0.0336733
0.0400898 -3.29871e-05 0.0126337
0.0321634 3.46752e-05 -0.0132802
0.0118281 8.89596e-05 -0.0340706
-0.0130706 0.000108923 -0.0417163
-0.0329265 8.68626e-05 -0.0332675
-0.0400791 3.12903e-05 -0.0119839
-0.0317689 -3.63535e-05 0.013923
-0.0111634 -8.96644e-05 0.0343395
0.012342 -0.00795133 0.0413568
0.0323763 -0.0064397 0.0334944
0.0398768 -0.00241608 0.0125666
0.0319925 0.00253972 -0.0132097
0.0117653 0.00651569 -0.0338896
-0.0130011 0.00797784 -0.0414947
-0.0327516 0.0063621 -0.0330907
-0.0398662 0.0022918 -0.0119202
-0.0316001 -0.00266264 0.0138491
-0.0111041 -0.00656711 0.0341571
0.00751448 -0.0127264 0.0251801
0.0197124 -0.010307 0.0203931
0.0242791 -0.00386704 0.00765122
0.0194787 0.00406493 -0.00804275
0.00716331 0.0104286 -0.0206338
-0.00791575 0.0127689 -0.0252641
-0.0199408 0.0101828 -0.0201474
-0.0242727 0.00366812 -0.00725765
-0.0192398 -0.00426167 0.00843202
-0.00676074 -0.0105109 0.0207966
-0.000212229 -0.0125916 -0.000711154
-0.000556729 -0.0101978 -0.000575956
-0.000685706 -0.00382606 -0.000216091
-0.000550131 0.00402185 0.000227149
-0.000202311 0.0103181 0.000582752
0.000223562 0.0126335 0.000713526
0.000563183 0.0100749 0.000569015
0.000685524 0.00362925 0.000204975
0.000543383 -0.0042165 -0.000238143
0.000190941 -0.0103995 -0.000587352
-0.00785706 -0.00759878 -0.0263281
-0.0206111 -0.00615416 -0.0213228
-0.025386 -0.00230895 -0.00800002
-0.0203667 0.00242711 0.00840941
-0.00748987 0.00622678 0.0215744
0.00827661 0.00762412 0.0264159
0.02085 0.00608001 0.0210659
0.0253792 0.00219019 0.00758851
0.0201169 -0.00254459 -0.00881643
0.00706895 -0.00627593 -0.0217447
-0.0124706 0.000325666 -0.0417874
-0.0327135 0.000263753 -0.0338432
-0.0402921 9.89566e-05 -0.0126975
-0.0323257 -0.00010402 0.0133472
-0.0118878 -0.000266866 0.0342426
0.0131365 -0.000326752 0.0419268
0.0330926 -0.000260575 0.0334354
0.0402814 -9.38665e-05 0.0120444
0.0319292 0.000109055 -0.0139933
0.0112197 0.000268972 -0.0345128
-0.0122729 0.00812446 -0.0411249
-0.0321946 0.00657983 -0.0333065
-0.0396531 0.00246866 -0.0124961
-0.031813 -0.00259499 0.0131356
-0.0116993 -0.00665748 0.0336995
0.0129282 -0.00815146 0.0412619
0.0325679 -0.00650055 0.0329051
0.0396426 -0.00234168 0.0118533
0.0314228 0.00272059 -0.0137714
0.0110418 0.0067101 -0.0339656
-0.00734017 0.0127888 -0.0245961
-0.0191886 0.0103218 -0.0198514
-0.023634 0.00387256 -0.00744791
-0.0189611 -0.00407073 0.00782904
-0.00697297 -0.0104435 0.0200855
0.00770542 -0.0127871 0.0245928
0.019411 -0.0101973 0.019612
0.0236277 -0.00367336 0.00706479
0.0187286 0.00426782 -0.00820809
0.00660391 0.0105624 -0.0203142
0 -0.0133086 0
0 -0.0113 0
0 -0.00423958 0
0 0.00445654 0
0 0.0114333 0
0 0.013999 0
0 0.0111638 0
0 0.0040215 0
0 -0.00467231 0
0 -0.0109917 0
0.00764595 -0.00817401 0.00533109
0.0200572 -0.00662153 0.00431759
0.0247039 -0.00248431 0.0016199
0.0198195 0.00261144 -0.0017028
0.00728866 0.00669967 -0.00436854
-0.00805425 0.00820313 -0.00534887
-0.0202898 0.00654175 -0.00426557
-0.0246973 0.00235652 -0.00153657
-0.0195764 -0.00273783 0.00178521
-0.00687903 -0.00675103 0.00440302
0.012342 0.00011412 0.00860541
0.0323763 9.24213e-05 0.00696942
0.0398768 3.46752e-05 0.00261483
0.0319925 -3.64496e-05 -0.00274864
0.0117653 -9.35119e-05 -0.00705166
-0.0130011 -0.000114497 -0.00863412
-0.0327516 -9.13075e-05 -0.00688545
-0.0398662 -3.28915e-05 -0.00248033
-0.0316001 3.82138e-05 0.00288167
-0.0111041 9.42528e-05 0.00710733
0.0122765 0.00835823 0.0085597
0.0322043 0.00676923 0.0069324
0.039665 0.00253972 0.00260094
0.0318226 -0.00266969 -0.00273404
0.0117028 -0.00684912 -0.00701419
-0.0129321 -0.00838609 -0.00858825
-0.0325776 -0.00668766 -0.00684887
-0.0396545 -0.00240908 -0.00246715
-0.0314322 0.0027989 0.00286636
-0.0110451 0.00690317 0.00706957
0.00747456 0.0133777 0.00521159
0.0196076 0.0108344 0.00422081
0.0241502 0.00406493 0.00158359
0.0193753 -0.00427294 -0.00166462
0.00712525 -0.0109623 -0.00427062
-0.00787369 -0.0134223 -0.00522897
-0.0198349 -0.0107039 -0.00416994
-0.0241437 -0.00385583 -0.00150213
-0.0191376 0.00447975 0.00174519
-0.00672482 0.0110488 0.00430432
-0.000211101 0.0132359 -0.000147189
-0.000553772 0.0107196 -0.000119207
-0.000682063 0.00402185 -4.47247e-05
-0.000547208 -0.00422766 4.70135e-05
-0.000201237 -0.0108461 0.000120614
0.000222374 -0.01328 0.00014768
0.000560191 -0.0105904 0.00011777
0.000681882 -0.00381497 4.24241e-05
0.000540498 0.00443228 -4.92889e-05
0.000189927 0.0109317 -0.000121566
-0.00781532 0.00798763 -0.00544918
-0.0205016 0.00646909 -0.00441323
-0.0252511 0.00242711 -0.00165578
-0.0202585 -0.00255132 0.00174052
-0.00745009 -0.00654543 0.00446531
0.00823267 -0.00801427 0.00546735
0.0207392 -0.00639115 0.00436005
0.0252444 -0.00230226 0.00157061
0.0200101 0.0026748 -0.00182476
0.0070314 0.00659709 -0.00450055
-0.0124043 -0.000342332 -0.00864884
-0.0325397 -0.00027725 -0.00700459
-0.040078 -0.00010402 -0.00262803
-0.032154 0.000109343 0.00276251
-0.0118246 0.000280522 0.00708724
0.0130667 0.000343473 0.00867768
0.0329169 0.00027391 0.0069202
0.0400674 9.86697e-05 0.00249284
0.0317596 -0.000114636 -0.00289622
0.0111601 -0.000282736 -0.0071432
-0.0122077 -0.00854021 -0.00851171
-0.0320236 -0.00691654 -0.00689351
-0.0394425 -0.00259499 -0.00258635
-0.031644 0.00272779 0.0027187
-0.0116371 0.00699816 0.00697485
0.0128595 0.00856861 0.00854007
0.0323949 0.00683321 0.00681045
0.039432 0.00246151 0.00245331
0.0312559 -0.00285981 -0.00285028
0.0109832 -0.00705347 -0.00702994
-0.00730118 -0.0134432 -0.0050907
-0.0190867 -0.01085 -0.00410869
-0.0235084 -0.00407073 -0.00154151
-0.0188604 0.00427904 0.00162039
-0.00693593 0.0109779 0.00415713
0.00766449 0.0134414 0.00509002
0.0193079 0.0107191 0.00405914
0.0235022 0.00386133 0.00146222
0.0186291 -0.00448621 -0.00169885
0.00656883 -0.0111029 -0.00420448
0 -0.0341432 0
0 -0.0289904 0
0 -0.0108767 0
0 0.0114333 0
0 0.0293322 0
0 0.0359146 0
0 0.0286408 0
0 0.0103172 0
0 -0.0119868 0
0 -0.0281993 0
0.00465525 -0.0209705 -0.0171521
0.0122119 -0.0169876 -0.0138913
0.015041 -0.00637352 -0.00521183
0.0120672 0.00669967 0.00547853
0.00443771 0.0171881 0.0140552
-0.00490385 0.0210452 0.0172093
-0.0123534 0.0167829 0.0137239
-0.015037 0.00604567 0.00494374
-0.0119192 -0.00702393 -0.00574369
-0.00418831 -0.0173198 -0.0141662
0.00751448 0.000292775 -0.0276868
0.0197124 0.000237108 -0.0224233
0.0242791 8.89596e-05 -0.00841289
0.0194787 -9.35119e-05 0.00884341
0.00716331 -0.000239906 0.0226879
-0.00791575 -0.000293742 0.0277792
-0.0199408 -0.00023425 0.0221531
-0.0242727 -8.43834e-05 0.00798014
-0.0192398 9.80378e-05 -0.00927143
-0.00676074 0.000241807 -0.0228669
0.00747456 0.0214431 -0.0275398
0.0196076 0.0173665 -0.0223042
0.0241502 0.00651569 -0.00836819
0.0193753 -0.00684912 0.00879643
0.00712525 -0.0175715 0.0225673
-0.00787369 -0.0215146 0.0276316
-0.0198349 -0.0171573 0.0220354
-0.0241437 -0.00618052 0.00793775
-0.0191376 0.00718061 -0.00922218
-0.00672482 0.0177101 -0.0227455
0.0045509 0.0343205 -0.0167676
0.0119382 0.0277958 -0.0135799
0.0147039 0.0104286 -0.005095
0.0117967 -0.0109623 0.00535572
0.00433823 -0.0281238 0.0137402
-0.00479392 -0.034435 0.0168235
-0.0120766 -0.0274609 0.0134163
-0.0147 -0.00989217 0.00483292
-0.011652 0.0114928 -0.00561494
-0.00409442 0.0283458 -0.0138486
-0.00012853 0.0339569 0.000473563
-0.000337165 0.0275013 0.000383533
-0.000415276 0.0103181 0.000143896
-0.000333169 -0.0108461 -0.00015126
-0.000122523 -0.0278258 -0.000388059
0.000135393 -0.0340701 -0.000475142
0.000341073 -0.0271699 -0.000378912
0.000415165 -0.00978734 -0.000136494
0.000329083 0.0113711 0.000158581
0.000115637 0.0280454 0.000391122
-0.00475837 0.0204924 0.0175321
-0.0124824 0.0165965 0.014199
-0.0153742 0.00622678 0.00532727
-0.0123344 -0.00654543 -0.00559989
-0.00453601 -0.0167924 -0.0143666
0.00501247 -0.0205607 -0.0175905
0.0126271 -0.0163966 -0.0140279
0.0153701 -0.00590649 -0.00505324
0.0121832 0.00686223 0.00587092
0.00428108 0.0169249 0.01448
-0.0075524 -0.000878256 0.0278266
-0.0198118 -0.000711289 0.0225364
-0.0244016 -0.000266866 0.00845535
-0.019577 0.000280522 -0.00888803
-0.00719946 0.000719682 -0.0228024
0.00795569 0.000881183 -0.0279193
0.0200415 0.000702718 -0.0222649
0.0243952 0.000253139 -0.00802041
0.0193369 -0.000294099 0.00931822
0.00679485 -0.000725363 0.0229823
-0.00743265 -0.02191 0.0273854
-0.0194976 -0.0177445 0.022179
-0.0240147 -0.00665748 0.00832125
-0.0192665 0.00699816 -0.00874708
-0.00708528 0.0179539 -0.0224407
0.00782953 0.0219828 -0.0274766
0.0197237 0.0175307 -0.0219118
0.0240083 0.00631503 -0.00789321
0.0190302 -0.00733688 0.00917044
0.00668712 -0.0180958 0.022618
-0.00444534 -0.0344887 0.0163787
-0.011621 -0.0278357 0.0132192
-0.0143131 -0.0104435 0.00495961
-0.0114832 0.0109779 -0.00521341
-0.00422295 0.028164 -0.0133751
0.00466654 0.0344842 -0.0163765
0.0117556 0.0275001 -0.0130598
0.0143093 0.00990629 -0.0047045
0.0113424 -0.0115094 0.00546583
0.00399945 -0.0284847 0.0135274
0 -0.0418052 0
0 -0.035496 0
0 -0.0133175 0
0 0.013999 0
0 0.0359146 0
0 0.0439741 0
0 0.035068 0
0 0.0126325 0
0 -0.0146768 0
0 -0.0345275 0
-0.000131477 -0.0256764 -0.0330179
-0.000344897 -0.0207997 -0.0267408
-0.000424799 -0.00780379 -0.0100328
-0.000340809 0.00820313 0.0105462
-0.000125333 0.0210452 0.0270564
0.000138498 0.0257679 0.033128
0.000348895 0.0205491 0.0264186
0.000424686 0.00740236 0.00951673
0.000336629 -0.00860015 -0.0110566
0.000118289 -0.0212065 -0.02727
-0.000212229 0.000358476 -0.0532973
-0.000556729 0.000290316 -0.0431648
-0.000685706 0.000108923 -0.0161949
-0.000550131 -0.000114497 0.0170236
-0.000202311 -0.000293742 0.0436742
0.000223562 -0.000359659 0.0534749
0.000563183 -0.000286818 0.0426447
0.000685524 -0.00010332 0.0153618
0.000543383 0.000120038 -0.0178475
0.000190941 0.00029607 -0.044019
-0.000211101 0.0262551 -0.0530142
-0.000553772 0.0212637 -0.0429355
-0.000682063 0.00797784 -0.0161088
-0.000547208 -0.00838609 0.0169332
-0.000201237 -0.0215146 0.0434422
0.000222374 -0.0263426 0.0531909
0.000560191 -0.0210075 0.0424182
0.000681882 -0.00756747 0.0152802
0.000540498 0.00879198 -0.0177527
0.000189927 0.0216844 -0.0437851
-0.00012853 0.0420223 -0.0322778
-0.000337165 0.0340334 -0.0261414
-0.000415276 0.0127689 -0.00980789
-0.000333169 -0.0134223 0.0103098
-0.000122523 -0.034435 0.0264499
0.000135393 -0.0421625 0.0323854
0.000341073 -0.0336233 0.0258265
0.000415165 -0.012112 0.00930338
0.000329083 0.0140719 -0.0108088
0.000115637 0.0347068 -0.0266587
3.63002e-06 0.041577 0.000911611
9.52244e-06 0.0336727 0.000738303
1.17285e-05 0.0126335 0.000277001
9.40959e-06 -0.01328 -0.000291176
3.46038e-06 -0.0340701 -0.000747016
-3.82386e-06 -0.0417157 -0.000914651
-9.63283e-06 -0.0332669 -0.000729406
-1.17254e-05 -0.0119837 -0.000262752
-9.29418e-06 0.0139228 0.000305269
-3.26591e-06 0.034339 0.000752912
0.000134389 0.025091 0.0337493
0.000352537 0.0203209 0.0273332
0.000434209 0.00762412 0.010255
0.000348358 -0.00801427 -0.0107798
0.000128109 -0.0205607 -0.0276557
-0.000141566 -0.0251746 -0.0338618
-0.000356623 -0.020076 -0.0270038
-0.000434093 -0.00723195 -0.00972751
-0.000344085 0.00840216 0.0113016
-0.000120909 0.020723 0.027874
0.0002133 -0.00107534 0.0535663
0.000559539 -0.000870907 0.0433827
0.000689167 -0.000326752 0.0162766
0.000552908 0.000343473 -0.0171095
0.000203332 0.000881183 -0.0438946
-0.00022469 0.00107893 -0.0537448
-0.000566025 0.000860414 -0.0428599
-0.000688984 0.000309944 -0.0154394
-0.000546126 -0.000360097 0.0179376
-0.000191905 -0.000888139 0.0442411
0.000209918 -0.0268268 0.052717
0.000550665 -0.0217265 0.0426947
0.000678236 -0.00815147 0.0160185
0.000544138 0.00856861 -0.0168382
0.000200108 0.0219828 -0.0431985
-0.000221127 0.0269159 -0.0528925
-0.000557048 0.0214646 -0.0421803
-0.000678056 0.00773216 -0.0151945
-0.000537465 -0.00898332 0.0176531
-0.000188862 -0.0221566 0.0435397
0.000125548 -0.0422282 0.0315291
0.000328207 -0.0340823 0.025447
0.000404241 -0.0127871 0.00954728
0.000324316 0.0134414 -0.0100358
0.000119267 0.0344842 -0.0257471
-0.000131795 0.0422226 -0.0315249
-0.000332011 0.0336713 -0.0251402
-0.000404134 0.0121293 -0.00905618
-0.000320339 -0.0140922 0.0105217
-0.000112955 -0.0348769 0.0260403
0 -0.0333384 0
0 -0.028307 0
0 -0.0106203 0
0 0.0111638 0
0 0.0286408 0
0 0.035068 0
0 0.0279657 0
0 0.010074 0
0 -0.0117043 0
0 -0.0275346 0
-0.00486748 -0.0204762 -0.0361452
-0.0127686 -0.0165872 -0.0292736
-0.0157267 -0.00622328 -0.010983
-0.0126173 0.00654175 0.0115451
-0.00464001 0.0167829 0.029619
0.00512742 0.0205491 0.0362657
0.0129167 0.0163873 0.0289208
0.0157225 0.00590317 0.0104181
0.0124625 -0.00685836 -0.0121039
0.00437925 -0.0169116 -0.0298528
-0.00785706 0.000285874 -0.0583453
-0.0206111 0.000231518 -0.0472532
-0.025386 8.68626e-05 -0.0177287
-0.0203667 -9.13075e-05 0.018636
-0.00748987 -0.00023425 0.0478108
0.00827661 -0.000286818 0.0585399
0.02085 -0.000228729 0.0466837
0.0253792 -8.23945e-05 0.0168168
0.0201169 9.57269e-05 -0.0195379
0.00706895 0.000236107 -0.0481882
-0.00781532 0.0209377 -0.0580353
-0.0205016 0.0169572 -0.0470021
-0.0252511 0.0063621 -0.0176346
-0.0202585 -0.00668766 0.018537
-0.00745009 -0.0171573 0.0475568
0.00823267 -0.0210075 0.0582289
0.0207392 -0.0167528 0.0464358
0.0252444 -0.00603484 0.0167274
0.0200101 0.00701134 -0.0194342
0.0070314 0.0172927 -0.0479322
-0.00475837 0.0335115 -0.0353349
-0.0124824 0.0271406 -0.0286174
-0.0153742 0.0101828 -0.0107368
-0.0123344 -0.0107039 0.0112863
-0.00453601 -0.0274609 0.0289551
0.00501247 -0.0336233 0.0354528
0.0126271 -0.0268136 0.0282725
0.0153701 -0.009659 0.0101845
0.0121832 0.0112219 -0.0118325
0.00428108 0.0276776 -0.0291836
0.000134389 0.0331564 0.000997953
0.000352537 0.026853 0.00080823
0.000434209 0.0100749 0.000303237
0.000348358 -0.0105904 -0.000318755
0.000128109 -0.0271699 -0.000817768
-0.000141566 -0.0332669 -0.00100128
-0.000356623 -0.0265294 -0.000798492
-0.000434093 -0.00955663 -0.000287638
-0.000344085 0.011103 0.000334182
-0.000120909 0.0273843 0.000824223
0.0049753 0.0200093 0.0369458
0.0130515 0.0162053 0.029922
0.0160751 0.00608001 0.0112263
0.0128968 -0.00639115 -0.0118008
0.0047428 -0.0163966 -0.0302751
-0.00524099 -0.020076 -0.037069
-0.0132027 -0.01601 -0.0295615
-0.0160708 -0.00576726 -0.0106488
-0.0127386 0.00670047 0.012372
-0.00447625 0.016526 0.0305141
0.00789671 -0.000857554 0.0586397
0.0207151 -0.000694523 0.0474917
0.0255141 -0.000260575 0.0178182
0.0204695 0.00027391 -0.01873
0.00752767 0.000702718 -0.0480521
-0.00831839 0.000860414 -0.0588353
-0.0209552 0.000686153 -0.0469193
-0.0255073 0.000247171 -0.0169016
-0.0202185 -0.000287167 0.0196365
-0.00710463 -0.000708265 0.0484314
0.0077715 -0.0213935 0.05771
0.0203865 -0.0173262 0.0467384
0.0251094 -0.00650055 0.0175356
0.0201449 0.00683321 -0.018433
0.00740829 0.0175307 -0.04729
-0.00818648 0.0214646 -0.0579022
-0.0206229 0.0171174 -0.0461752
-0.0251027 0.00616616 -0.0166336
-0.0198978 -0.00716393 0.0193251
-0.00699198 -0.0176692 0.0476635
0.004648 -0.0336758 0.0345153
0.0121508 -0.0271796 0.0278572
0.0149657 -0.0101973 0.0104515
0.0120067 0.0107191 -0.0109864
0.00441547 0.0275001 -0.0281857
-0.00487928 0.0336713 -0.0345107
-0.0122916 0.0268519 -0.0275213
-0.0149617 0.00967278 -0.00991392
-0.0118595 -0.0112381 0.0115183
-0.00418178 -0.0278133 0.0285067
0 -0.0120094 0
0 -0.010197 0
0 -0.00382573 0
0 0.0040215 0
0 0.0103172 0
0 0.0126325 0
0 0.010074 0
0 0.00362894 0
0 -0.00421621 0
0 -0.00991873 0
-0.00772558 -0.00737609 -0.0253273
-0.0202661 -0.00597517 -0.0205123
-0.0249611 -0.0022418 -0.00769594
-0.0200259 0.00235652 0.00808976
-0.00736456 0.00604567 0.0207544
0.00813814 0.00740236 0.0254118
0.0205011 0.00590317 0.0202651
0.0249545 0.00212648 0.00730007
0.0197803 -0.00247057 -0.00848131
0.00695066 -0.00609201 -0.0209182
-0.0124706 0.00010298 -0.0408832
-0.0327135 8.33993e-05 -0.0331108
-0.0402921 3.12903e-05 -0.0124227
-0.0323257 -3.28915e-05 0.0130585
-0.0118878 -8.43834e-05 0.0335015
0.0131365 -0.00010332 0.0410196
0.0330926 -8.23945e-05 0.0327119
0.0402814 -2.96807e-05 0.0117837
0.0319292 3.44835e-05 -0.0136905
0.0112197 8.50522e-05 -0.033766
-0.0124043 0.00754232 -0.040666
-0.0325397 0.00610845 -0.0329349
-0.040078 0.0022918 -0.0123567
-0.032154 -0.00240908 0.0129891
-0.0118246 -0.00618052 0.0333235
0.0130667 -0.00756747 0.0408016
0.0329169 -0.00603484 0.0325381
0.0400674 -0.00217391 0.0117211
0.0317596 0.00252568 -0.0136177
0.0111601 0.0062293 -0.0335866
-0.0075524 0.0120718 -0.0247596
-0.0198118 0.0097768 -0.0200525
-0.0244016 0.00366812 -0.00752341
-0.019577 -0.00385583 0.00790841
-0.00719946 -0.00989217 0.0202891
0.00795569 -0.012112 0.0248421
0.0200415 -0.009659 0.0198109
0.0243952 -0.00347944 0.00713642
0.0193369 0.00404245 -0.00829118
0.00679485 0.00997024 -0.0204493
0.0002133 0.0119439 0.000699277
0.000559539 0.0096732 0.000566336
0.000689167 0.00362925 0.000212482
0.000552908 -0.00381497 -0.000223355
0.000203332 -0.00978734 -0.000573019
-0.00022469 -0.0119837 -0.000701609
-0.000566025 -0.00955663 -0.000559512
-0.000688984 -0.00344257 -0.000201552
-0.000546126 0.00399961 0.000234165
-0.000191905 0.00986459 0.000577542
0.00789671 0.00720791 0.0258883
0.0207151 0.0058376 0.0209667
0.0255141 0.00219019 0.00786639
0.0204695 -0.00230226 -0.00826894
0.00752767 -0.00590649 -0.0212141
-0.00831839 -0.00723195 -0.0259747
-0.0209552 -0.00576726 -0.0207141
-0.0255073 -0.00207752 -0.00746176
-0.0202185 0.0024137 0.00866918
-0.00710463 0.0059531 0.0213815
0.0125335 -0.000308914 0.0410895
0.0328785 -0.000250186 0.0332779
0.0404954 -9.38665e-05 0.0124854
0.0324889 9.86697e-05 -0.0131243
0.0119478 0.000253139 -0.0336706
-0.0132028 0.000309944 -0.0412266
-0.0332596 0.000247171 -0.032877
-0.0404847 8.9038e-05 -0.0118432
-0.0320903 -0.000103445 0.0137596
-0.0112763 -0.000255136 0.0339364
0.0123348 -0.00770655 0.040438
0.0323571 -0.00624138 0.0327502
0.0398532 -0.00234168 0.0122874
0.0319736 0.00246151 -0.0129162
0.0117583 0.00631503 -0.0331366
-0.0129934 0.00773216 -0.0405727
-0.0327322 0.00616616 -0.0323556
-0.0398426 0.00222122 -0.0116553
-0.0315814 -0.00258065 0.0135413
-0.0110975 -0.00636494 0.0333983
0.00737721 -0.0121309 0.0241853
0.0192855 -0.00979084 0.0195198
0.0237532 -0.00367336 0.00732351
0.0190568 0.00386133 -0.00769828
0.00700816 0.00990629 -0.01975
-0.0077443 0.0121293 -0.024182
-0.019509 0.00967278 -0.0192845
-0.0237469 0.0034844 -0.0069468
-0.0188231 -0.00404828 0.008071
-0.00663724 -0.0100191 0.0199749
0 0.0139529 0
0 0.0118471 0
0 0.00444485 0
0 -0.0046723 0
0 -0.0119868 0
0 -0.0146768 0
0 -0.0117043 0
0 -0.00421621 0
0 0.00489852 0
0 0.0115239 0
-0.00760309 0.00856977 -0.00473803
-0.0199447 0.006942 -0.00383738
-0.0245653 0.00260454 -0.00143973
-0.0197083 -0.00273783 0.00151341
-0.00724776 -0.00702393 0.00388266
0.00800907 -0.00860014 0.00475395
0.0201759 -0.00685836 0.00379113
0.0245587 -0.00247057 0.00136567
0.0194666 0.00287033 -0.00158665
0.00684046 0.00707788 -0.00391321
-0.0122729 -0.000119645 -0.0076481
-0.0321946 -9.68943e-05 -0.00619426
-0.0396531 -3.63534e-05 -0.002324
-0.031813 3.82137e-05 0.00244293
-0.0116993 9.80377e-05 0.00626735
0.0129282 0.000120038 0.0076738
0.0325679 9.57268e-05 0.00611962
0.0396426 3.44834e-05 0.00220446
0.0314228 -4.00633e-05 -0.00256117
0.0110418 -9.88162e-05 -0.00631667
-0.0122077 -0.0087629 -0.00760747
-0.0320236 -0.00709685 -0.00616135
-0.0394425 -0.00266264 -0.00231165
-0.031644 0.0027989 0.00242995
-0.0116371 0.0071806 0.00623406
0.0128595 0.00879197 0.00763303
0.0323949 0.00701133 0.00608712
0.039432 0.00252568 0.00219275
0.0312559 -0.00293437 -0.00254756
0.0109832 -0.00723739 -0.00628312
-0.00743265 -0.0140254 -0.00463182
-0.0194976 -0.0113588 -0.00375135
-0.0240147 -0.00426166 -0.00140746
-0.0192665 0.00447974 0.00147948
-0.00708528 0.0114928 0.00379562
0.00782953 0.0140719 0.00464738
0.0197237 0.0112219 0.00370615
0.0240083 0.00404245 0.00133506
0.0190302 -0.00469656 -0.00155109
0.00668712 -0.0115837 -0.00382549
0.000209918 -0.0138767 0.000130815
0.000550665 -0.0112384 0.000105948
0.000678236 -0.0042165 3.97503e-05
0.000544138 0.00443227 -4.17844e-05
0.000200108 0.011371 -0.000107199
-0.000221127 0.0139228 -0.000131254
-0.000557048 0.011103 -0.000104672
-0.000678056 0.00399961 -3.77056e-05
-0.000537465 -0.0046468 4.38068e-05
-0.000188862 -0.011461 0.000108042
0.0077715 -0.00837436 0.00484299
0.0203865 -0.00678219 0.00392237
0.0251094 -0.00254458 0.00147162
0.0201449 0.0026748 -0.00154693
0.00740829 0.00686223 -0.00396866
-0.00818648 0.00840215 -0.00485925
-0.0206229 0.00670046 -0.00387511
-0.0251027 0.00241369 -0.00139592
-0.0198978 -0.00280426 0.0016218
-0.00699198 -0.0069165 0.00399989
0.0123348 0.000358906 0.0076867
0.0323571 0.000290669 0.00622552
0.0398532 0.000109055 0.00233573
0.0319736 -0.000114636 -0.00245526
0.0117583 -0.000294099 -0.00629898
-0.0129934 -0.000360097 -0.00771253
-0.0327322 -0.000287167 -0.0061505
-0.0398426 -0.000103445 -0.00221558
-0.0315814 0.000120184 0.00257409
-0.0110975 0.000296425 0.00634855
0.0121392 0.0089537 0.00756482
0.0318439 0.0072513 0.00612678
0.0392212 0.00272059 0.00229869
0.0314665 -0.00285981 -0.00241632
0.0115718 -0.00733687 -0.00619909
-0.0127874 -0.00898331 -0.00759021
-0.0322131 -0.00716393 -0.00605297
-0.0392108 -0.00258064 -0.00218044
-0.0310806 0.00299822 0.00253327
-0.0109216 0.00739498 0.00624789
0.00726025 0.0140941 0.00452438
0.0189797 0.0113753 0.00365161
0.0233766 0.00426782 0.00137002
0.0187547 -0.00448621 -0.00144013
0.00689704 -0.0115094 -0.00369467
-0.00762152 -0.0140922 -0.00452378
-0.0191996 -0.0112381 -0.00360758
-0.0233704 -0.00404828 -0.00129955
-0.0185247 0.00470342 0.00150986
-0.006532 0.0116405 0.00373675
0 0.0345321 0
0 0.0278707 0
0 0.0104566 0
0 -0.0109917 0
0 -0.0281994 0
0 -0.0345275 0
0 -0.0275346 0
0 -0.00991874 0
0 0.0115239 0
0 0.0285205 0
-0.00454727 0.0212094 0.0176793
-0.0118874 0.017118 0.0142689
-0.0146413 0.00642237 0.00535343
-0.0117465 -0.00675103 -0.00562739
-0.00431978 -0.0173198 -0.0144371
0.00477354 -0.0212065 -0.0176769
0.0120252 -0.0169116 -0.0140968
0.0146374 -0.00609201 -0.00507806
0.0116025 0.00707789 0.00589984
0.00409116 0.0175171 0.0146015
-0.00734017 -0.000296109 0.0285377
-0.0191886 -0.000238989 0.0230327
-0.0236339 -8.96645e-05 0.00864147
-0.0189611 9.42529e-05 -0.00908369
-0.00697296 0.000241807 -0.0233043
0.00770541 0.00029607 -0.0285339
0.019411 0.000236107 -0.022755
0.0236277 8.50522e-05 -0.00819697
0.0187286 -9.88162e-05 0.00952348
0.00660391 -0.000244561 0.0235697
-0.00730118 -0.0216873 0.0283861
-0.0190867 -0.0175037 0.0229103
-0.0235084 -0.00656711 0.00859557
-0.0188604 0.00690317 -0.00903543
-0.00693592 0.0177102 -0.0231805
0.00766448 0.0216844 -0.0283824
0.0193079 0.0172927 -0.0226341
0.0235021 0.00622931 -0.00815342
0.0186291 -0.00723739 0.00947289
0.00656883 -0.0179119 0.0234445
-0.00444534 -0.0347114 0.0172829
-0.011621 -0.0280154 0.013949
-0.0143131 -0.0105109 0.00523343
-0.0114832 0.0110488 -0.00550124
-0.00422295 0.0283458 -0.0141135
0.00466653 0.0347068 -0.0172807
0.0117556 0.0276776 -0.0137808
0.0143093 0.00997025 -0.00496423
0.0113424 -0.0115837 0.00576759
0.00399945 -0.0286686 0.0142742
0.000125548 -0.0343436 -0.000488117
0.000328207 -0.0277186 -0.000393957
0.000404241 -0.0103995 -0.000147806
0.000324316 0.0109317 0.00015537
0.000119267 0.0280454 0.000398603
-0.000131795 0.034339 0.000488052
-0.00033201 0.0273843 0.000389207
-0.000404133 0.00986459 0.000140203
-0.000320339 -0.011461 -0.000162892
-0.000112955 -0.0283648 -0.000403142
0.004648 -0.0207257 -0.0180709
0.0121507 -0.0167277 -0.0145849
0.0149656 -0.00627593 -0.00547202
0.0120067 0.00659709 0.00575204
0.00441547 0.0169249 0.0147569
-0.00487928 0.020723 0.0180685
-0.0122916 0.016526 0.0144091
-0.0149617 0.00595311 0.00519054
-0.0118595 -0.0069165 -0.00603053
-0.00418178 -0.0171177 -0.014925
0.00737721 0.000888258 -0.0286817
0.0192854 0.000716909 -0.0231489
0.0237532 0.000268972 -0.00868508
0.0190568 -0.000282736 0.00912953
0.00700815 -0.000725363 0.0234219
-0.0077443 -0.000888139 0.0286779
-0.0195089 -0.000708265 0.0228698
-0.0237469 -0.000255137 0.00823833
-0.0188231 0.000296425 -0.00957154
-0.00663724 0.000733624 -0.0236886
0.00726025 0.0221595 -0.028227
0.0189797 0.0178849 -0.0227819
0.0233766 0.0067101 -0.00854738
0.0187547 -0.00705347 0.00898478
0.00689704 -0.0180958 0.0230505
-0.00762151 -0.0221566 0.0282232
-0.0191996 -0.0176692 0.0225072
-0.0233704 -0.00636494 0.00810771
-0.0185247 0.00739498 -0.00941979
-0.006532 0.0183019 -0.0233131
0.00434222 0.0348815 -0.0168821
0.0113514 0.0281527 -0.0136254
0.0139811 0.0105624 -0.00511203
0.0112168 -0.0111029 0.00537363
0.004125 -0.0284847 0.0137861
-0.00455829 -0.0348769 0.0168798
-0.011483 -0.0278133 0.0134611
-0.0139774 -0.0100191 0.00484908
-0.0110793 0.0116405 -0.0056338
-0.00390667 0.0288091 -0.0139431
