# vtk DataFile Version 3.0
Velocity field
ASCII
DATASET STRUCTURED_POINTS
DIMENSIONS 10 10 10
SPACING 0.631579 0.631579 0.631579
ORIGIN 0 0 0
POINT_DATA 1000
VECTORS velocity float
0 0.572894 0
0 0.462381 0
0 0.173477 0
0 -0.182355 0
0 -0.467833 0
0 -0.572818 0
0 -0.456806 0
0 -0.164554 0
0 0.191184 0
0 0.473161 0
0 0.351867 0.448762
0 0.283991 0.376395
0 0.106549 0.141217
0 -0.112001 -0.148444
0 -0.28734 -0.380834
0 -0.351821 -0.466295
0 -0.280567 -0.371857
0 -0.101068 -0.133953
0 0.117424 0.155631
0 0.290612 0.370638
0 -0.00491251 0.724388
0 -0.00396487 0.607575
0 -0.00148755 0.227952
0 0.00156368 -0.239617
0 0.00401163 -0.614739
0 0.00491186 -0.752691
0 0.00391706 -0.600249
0 0.00141103 -0.216226
0 -0.00163938 0.251218
0 -0.00405731 0.598282
0 -0.359797 0.72054
0 -0.290391 0.604348
0 -0.10895 0.226741
0 0.114525 -0.238344
0 0.293815 -0.611474
0 0.359749 -0.748693
0 0.286889 -0.59706
0 0.103346 -0.215078
0 -0.12007 0.249884
0 -0.297161 0.595104
0 -0.575869 0.438702
0 -0.464782 0.367958
0 -0.174378 0.138052
0 0.183302 -0.145116
0 0.470263 -0.372297
0 0.575793 -0.455843
0 0.459178 -0.363521
0 0.165409 -0.13095
0 -0.192177 0.152142
0 -0.475619 0.36233
0 -0.569767 -0.0123901
0 -0.459857 -0.0103921
0 -0.17253 -0.00389895
0 0.181359 0.00409846
0 0.465279 0.0105147
0 0.569691 0.0128742
0 0.454312 0.0102668
0 0.163656 0.00369839
0 -0.19014 -0.0042969
0 -0.470578 -0.0102332
0 -0.343844 -0.458702
0 -0.277515 -0.384733
0 -0.104119 -0.144345
0 0.109447 0.151732
0 0.280788 0.38927
0 0.343799 0.476624
0 0.274169 0.380094
0 0.0987633 0.13692
0 -0.114746 -0.159078
0 -0.283986 -0.378848
0 0.0147364 -0.728043
0 0.0118937 -0.610641
0 0.00446231 -0.229102
0 -0.00469066 0.240826
0 -0.0120339 0.617842
0 -0.0147344 0.75649
0 -0.0117503 0.603278
0 -0.00423277 0.217317
0 0.00491776 -0.252486
0 0.012171 -0.601301
0 0.367631 -0.7165
0 0.296714 -0.600959
0 0.111322 -0.22547
0 -0.117019 0.237008
0 -0.300213 0.608045
0 -0.367582 0.744495
0 -0.293136 0.593713
0 -0.105596 0.213872
0 0.122684 -0.248483
0 0.303632 -0.591767
0 0.578692 -0.428526
0 0.46706 -0.345862
0 0.175233 -0.129761
0 -0.1842 0.136402
0 -0.472567 0.34994
0 -0.578615 0.428469
0 -0.461428 0.341691
0 -0.166219 0.123087
0 0.193118 -0.143006
0 0.477949 -0.353925
0 0.462381 0
0 0.392599 0
0 0.147297 0
0 -0.154834 0
0 -0.397229 0
0 -0.486369 0
0 -0.387865 0
0 -0.13972 0
0 0.162331 0
0 0.381887 0
0.0652493 0.283991 0.496653
0.179022 0.240211 0.42033
0.2206 0.0902501 0.157932
0.176985 -0.0948761 -0.166027
0.0650863 -0.243405 -0.425944
-0.0719231 -0.298027 -0.521529
-0.181184 -0.237668 -0.415903
-0.220541 -0.0856201 -0.14983
-0.174737 0.0991784 0.173535
-0.0587045 0.234552 0.410193
0.105325 -0.00396487 0.801693
0.288976 -0.00334036 0.678492
0.356091 -0.00125487 0.254932
0.285688 0.00131919 -0.268
0.105062 0.00338441 -0.687555
-0.116098 0.00414385 -0.841848
-0.292464 0.00330462 -0.671347
-0.355996 0.00119049 -0.241855
-0.28206 -0.00137931 0.28012
-0.0947603 -0.00327464 0.66213
0.104765 -0.290391 0.797435
0.287441 -0.245352 0.674887
0.354199 -0.092181 0.253577
0.28417 0.0969064 -0.266576
0.104504 0.248614 -0.683902
-0.115481 0.304404 -0.837375
-0.290911 0.242753 -0.66778
-0.354105 0.0874524 -0.240571
-0.280562 -0.101301 0.278632
-0.0942569 -0.239838 0.658612
0.0637867 -0.464782 0.48552
0.175009 -0.392696 0.410907
0.215654 -0.147539 0.154391
0.173018 0.155102 -0.162306
0.0636271 0.397915 -0.416395
-0.070311 0.487211 -0.509838
-0.177123 0.388537 -0.406581
-0.215597 0.139971 -0.146472
-0.17082 -0.162136 0.169645
-0.0573885 -0.38387 0.400997
-0.00180151 -0.459857 -0.0137124
-0.00494272 -0.388535 -0.0116051
-0.00609066 -0.145976 -0.00436043
-0.00488646 0.153459 0.00458393
-0.00179701 0.3937 0.0117601
0.00198575 0.482048 0.0143992
0.00500241 0.38442 0.011483
0.00608905 0.138488 0.00413675
0.00482442 -0.160418 -0.00479123
0.00162081 -0.379802 -0.0113252
-0.0666946 -0.277515 -0.507654
-0.182988 -0.234473 -0.42964
-0.225486 -0.0880943 -0.16143
-0.180905 0.0926094 0.169704
-0.066528 0.23759 0.435379
0.0735158 0.290907 0.53308
0.185197 0.231991 0.425117
0.225426 0.0835747 0.153149
0.178608 -0.0968095 -0.17738
0.0600048 -0.229204 -0.419279
-0.105856 0.0118937 -0.805739
-0.29043 0.0100402 -0.681906
-0.357882 0.00377199 -0.256215
-0.287125 -0.00396531 0.269349
-0.105591 -0.0101731 0.691016
0.116682 -0.0124559 0.846085
0.293936 -0.00993329 0.674725
0.357787 -0.00357847 0.243072
0.283479 0.00414557 -0.28153
0.0952385 0.00982315 -0.665471
-0.104178 0.296714 -0.792964
-0.285618 0.250244 -0.670633
-0.351949 0.0940115 -0.251971
-0.282365 -0.0988297 0.264885
-0.10384 -0.253548 0.679566
0.114747 -0.310446 0.832065
0.289064 -0.247572 0.663547
0.351856 -0.0891877 0.239045
0.278781 0.103329 -0.276884
0.0937285 0.24506 -0.65492
-0.0623071 0.46706 -0.474257
-0.162883 0.376962 -0.382771
-0.200617 0.14143 -0.143609
-0.160952 -0.148667 0.150958
-0.0591901 -0.381407 0.387285
0.0654075 -0.466998 0.474194
0.16477 -0.372417 0.378156
0.200564 -0.134155 0.136222
0.158978 0.155865 -0.158267
0.0560573 0.385751 -0.391696
0 0.173477 0
0 0.147297 0
0 0.0552632 0
0 -0.0580911 0
0 -0.149033 0
0 -0.182478 0
0 -0.14552 0
0 -0.0524205 0
0 0.0609037 0
0 0.143277 0
0.105325 0.106549 0.352932
0.288976 0.0902501 0.29864
0.356091 0.0339102 0.11221
0.285688 -0.0356484 -0.117962
0.105062 -0.0914563 -0.302633
-0.116098 -0.11198 -0.370546
-0.292465 -0.0893006 -0.295499
-0.355996 -0.0321708 -0.106455
-0.28206 0.0372599 0.123294
-0.0947603 0.0879999 0.291491
0.170015 -0.00148755 0.5697
0.466464 -0.00125487 0.482064
0.574799 -0.00047145 0.181129
0.461156 0.000495611 -0.190414
0.16959 0.0012715 -0.488508
-0.187404 0.00155684 -0.598132
-0.472095 0.00124153 -0.476993
-0.574646 0.000447262 -0.171838
-0.455298 -0.000518137 0.19902
-0.152961 -0.00122859 0.470523
0.169112 -0.10895 0.566674
0.463986 -0.092181 0.479502
0.571745 -0.0346357 0.180167
0.458706 0.0364111 -0.189402
0.168689 0.0934131 -0.485914
-0.186408 0.114376 -0.594955
-0.469587 0.0912113 -0.474459
-0.571594 0.0328591 -0.170925
-0.452879 -0.0380572 0.197963
-0.152149 -0.0899831 0.468024
0.102964 -0.174378 0.34502
0.282499 -0.147539 0.291946
0.348109 -0.0554359 0.109695
0.279284 0.0582776 -0.115318
0.102707 0.149511 -0.295849
-0.113495 0.183063 -0.36224
-0.28591 0.145987 -0.288876
-0.348017 0.0525925 -0.104068
-0.275736 -0.060912 0.12053
-0.0926361 -0.144021 0.284957
-0.00290798 -0.17253 -0.0097443
-0.00797849 -0.145976 -0.00824536
-0.00983148 -0.0548484 -0.00309809
-0.00788769 0.0576602 0.00325689
-0.00290071 0.147927 0.00835562
0.0032054 0.181123 0.0102306
0.00807483 0.14444 0.0081586
0.00982888 0.0520351 0.00293916
0.00778757 -0.0602666 -0.00340408
0.00261629 -0.142495 -0.00804795
-0.107658 -0.104119 -0.36075
-0.295377 -0.0880943 -0.305255
-0.363978 -0.0331001 -0.114696
-0.292015 0.0347969 0.120575
-0.107389 0.0892716 0.309337
0.118669 0.109305 0.378754
0.298943 0.0871675 0.302045
0.363881 0.0314023 0.108813
0.288307 -0.0363698 -0.126025
0.0968593 -0.0859934 -0.297948
-0.170873 0.00446231 -0.572575
-0.46881 0.00377199 -0.484489
-0.57769 0.0014172 -0.18204
-0.463476 -0.00148984 0.191372
-0.170443 -0.00382218 0.490966
0.188347 -0.00467991 0.601143
0.47447 -0.00373209 0.479394
0.577537 -0.0013445 0.172703
0.457589 0.00155736 -0.200022
0.153733 0.00368548 -0.472898
-0.168164 0.111322 -0.563497
-0.461043 0.0940114 -0.476476
-0.568114 0.0353203 -0.179024
-0.455791 -0.0371307 0.1882
-0.167617 -0.0952589 0.48283
0.185224 -0.116636 0.591178
0.466605 -0.0930137 0.471448
0.567963 -0.0335084 0.16984
0.450006 0.0388164 -0.19672
0.151296 0.0919423 -0.4654
-0.100576 0.175233 -0.337017
-0.262924 0.14143 -0.272005
-0.323834 0.0530621 -0.102052
-0.259807 -0.0557774 0.107274
-0.0955442 -0.143098 0.275213
0.10558 -0.17521 0.336972
0.265971 -0.139724 0.268726
0.323748 -0.0503326 0.0968024
0.256621 0.058478 -0.112468
0.0904873 0.144727 -0.278347
0 -0.182355 0
0 -0.154834 0
0 -0.0580911 0
0 0.0610638 0
0 0.15666 0
0 0.191815 0
0 0.152967 0
0 0.055103 0
0 -0.0640203 0
0 -0.150609 0
0.104765 -0.112001 0.0730471
0.287441 -0.0948761 0.0618095
0.354199 -0.0356484 0.023224
0.28417 0.0374758 -0.0244146
0.104504 0.0961447 -0.0626359
-0.115481 0.11772 -0.0766917
-0.290912 0.0938782 -0.0611593
-0.354105 0.03382 -0.0220329
-0.280562 -0.0391696 0.025518
-0.0942569 -0.0925031 0.0603306
0.169112 0.00156368 0.117912
0.463986 0.00131919 0.099772
0.571745 0.000495611 0.0374881
0.458706 -0.000521017 -0.0394099
0.168689 -0.00133666 -0.101106
-0.186408 -0.00163664 -0.123795
-0.469587 -0.00130517 -0.0987228
-0.571594 -0.000470183 -0.0355653
-0.452879 0.00054469 0.041191
-0.152149 0.00129146 0.0973852
0.168213 0.114525 0.117286
0.461521 0.0969064 0.099242
0.568708 0.0364111 0.0372889
0.456269 -0.0382777 -0.0392005
0.167793 -0.0982017 -0.100569
-0.185418 -0.120239 -0.123137
-0.467093 -0.095887 -0.0981984
-0.568557 -0.0345436 -0.0353764
-0.450474 0.0400078 0.0409722
-0.151341 0.0945878 0.0968679
0.102417 0.183302 0.0714096
0.280998 0.155102 0.0604238
0.34626 0.0582776 0.0227035
0.2778 -0.061265 -0.0238673
0.102161 -0.157176 -0.0612316
-0.112892 -0.192447 -0.0749724
-0.284391 -0.153471 -0.0597883
-0.346168 -0.0552884 -0.0215389
-0.274271 0.0640338 0.024946
-0.092144 0.151391 0.0589782
-0.00289253 0.181359 -0.0020168
-0.0079361 0.153459 -0.00170652
-0.00977923 0.0576602 -0.000641206
-0.00784583 -0.0606158 0.000674076
-0.00288531 -0.155511 0.00172935
0.00318838 -0.190408 0.00211743
0.00803194 -0.151845 0.00168858
0.00977665 -0.0547025 0.000608316
0.00774618 0.0633553 -0.000704541
0.00260239 0.149787 -0.0016657
-0.107086 0.109447 -0.0746651
-0.293808 0.0926094 -0.0631784
-0.362044 0.0347969 -0.0237385
-0.290464 -0.0365804 0.0249554
-0.106819 -0.0938476 0.064023
0.118039 -0.114908 0.0783906
0.297355 -0.0916357 0.0625141
0.361948 -0.033012 0.0225209
0.286775 0.0382339 -0.0260832
0.0963448 0.0903939 -0.061667
-0.169965 -0.00469066 -0.118507
-0.46632 -0.00396531 -0.100274
-0.574622 -0.00148984 -0.0376767
-0.461014 0.0015662 0.0396082
-0.169538 0.0040181 0.101615
0.187346 0.00491979 0.124418
0.47195 0.00392339 0.0992196
0.574469 0.00141341 0.0357443
0.455158 -0.00163717 -0.0413982
0.152917 -0.00387408 -0.0978766
-0.16727 -0.117019 -0.116628
-0.458594 -0.0988297 -0.0986162
-0.565096 -0.0371307 -0.0370523
-0.453369 0.0390338 0.0389517
-0.166726 0.100142 0.0999309
0.18424 0.122614 0.122356
0.464127 0.0977811 0.0975754
0.564946 0.0352258 0.0351518
0.447616 -0.0408056 -0.0407152
0.150492 -0.0966473 -0.0963248
-0.100041 -0.1842 -0.0697532
-0.261527 -0.148667 -0.0562975
-0.322114 -0.0557774 -0.0211219
-0.258427 0.0586317 0.0222027
-0.0950366 0.15042 0.0569614
0.105019 0.184176 0.0697439
0.264558 0.146875 0.0556187
0.322028 0.0529083 0.0200354
0.255258 -0.0614705 -0.0232777
0.0900066 -0.152133 -0.0576101
0 -0.467833 0
0 -0.397229 0
0 -0.149033 0
0 0.15666 0
0 0.401913 0
0 0.492105 0
0 0.392439 0
0 0.141367 0
0 -0.164245 0
0 -0.38639 0
0.0637867 -0.28734 -0.23502
0.175009 -0.243405 -0.198863
0.215654 -0.0914563 -0.0747203
0.173018 0.0961447 0.0785508
0.0636271 0.24666 0.201522
-0.070311 0.302011 0.246745
-0.177123 0.240845 0.196772
-0.215597 0.0867654 0.0708879
-0.17082 -0.10049 -0.0821008
-0.0573885 -0.237318 -0.194106
0.102964 0.00401163 -0.379367
0.282499 0.00338441 -0.321005
0.348109 0.0012715 -0.120613
0.279284 -0.00133666 0.126796
0.102707 -0.00342924 0.325296
-0.113495 -0.00419882 0.398294
-0.28591 -0.00334839 0.317629
-0.348017 -0.00120626 0.114427
-0.275736 0.0013974 -0.132527
-0.0926361 0.00331326 -0.313325
0.102417 0.293815 -0.377352
0.280998 0.248614 -0.3193
0.34626 0.093413 -0.119972
0.2778 -0.0982017 0.126122
0.102161 -0.251938 0.323568
-0.112892 -0.308474 0.396178
-0.284391 -0.245999 0.315942
-0.346168 -0.0886219 0.113819
-0.274271 0.10264 -0.131823
-0.092144 0.242666 -0.31166
0.0623568 0.470263 -0.229752
0.171086 0.397915 -0.194406
0.210821 0.149511 -0.0730451
0.169139 -0.157176 0.0767899
0.0622011 -0.403236 0.197005
-0.0687346 -0.493725 0.241214
-0.173152 -0.393731 0.192361
-0.210765 -0.141843 0.0692988
-0.166991 0.16428 -0.0802606
-0.0561021 0.388396 -0.189755
-0.00176112 0.465279 0.0064888
-0.00483193 0.3937 0.00549053
-0.0059541 0.147927 0.002063
-0.00477693 -0.155511 -0.00216874
-0.00175671 -0.398963 -0.00556394
0.00194126 -0.488492 -0.00681252
0.00489026 -0.389559 -0.00543279
0.00595252 -0.14034 -0.00195719
0.00471627 0.162539 0.00226677
0.00158447 0.384281 0.00535919
-0.0651996 0.280788 0.240226
-0.178886 0.23759 0.203268
-0.220431 0.0892716 0.0763755
-0.17685 -0.0938476 -0.0802906
-0.0650366 -0.240767 -0.205986
0.0718682 -0.294796 -0.252211
0.181046 -0.235091 -0.201131
0.220373 -0.0846925 -0.072458
0.174604 0.0980892 0.0839192
0.0586597 0.231907 0.198406
-0.103484 -0.0120339 0.381282
-0.28392 -0.0101731 0.32262
-0.349861 -0.00382218 0.12122
-0.28069 0.0040181 -0.127434
-0.103223 0.0103085 -0.326933
0.114066 0.0126218 -0.400298
0.287348 0.0100655 -0.319227
0.349768 0.00362612 -0.115002
0.277124 -0.00420018 0.133194
0.0931036 -0.00993898 0.314906
-0.101843 -0.300213 0.375236
-0.279215 -0.253548 0.317285
-0.344059 -0.0952589 0.119211
-0.276035 0.100142 -0.125322
-0.101512 0.256913 -0.321515
0.112175 0.314567 -0.393665
0.282585 0.250859 -0.313936
0.343968 0.090372 -0.113096
0.272532 -0.104687 0.130995
0.0916274 -0.24795 0.309913
-0.0609104 -0.472567 0.224422
-0.159231 -0.381407 0.18113
-0.19612 -0.143098 0.067957
-0.157344 0.15042 -0.0714346
-0.0578633 0.385905 -0.183266
0.0639413 0.472505 -0.224392
0.161077 0.376808 -0.178946
0.196068 0.135737 -0.0644614
0.155414 -0.157703 0.0748932
0.0548007 -0.3903 0.185353
0 -0.572818 0
0 -0.486369 0
0 -0.182478 0
0 0.191815 0
0 0.492105 0
0 0.602536 0
0 0.480505 0
0 0.173091 0
0 -0.201102 0
0 -0.473098 0
-0.00180151 -0.351821 -0.452414
-0.00494272 -0.298027 -0.382814
-0.00609066 -0.11198 -0.143837
-0.00488646 0.11772 0.15121
-0.00179701 0.302011 0.387932
0.00198575 0.369785 0.474985
0.00500241 0.294892 0.378787
0.00608905 0.106236 0.136459
0.00482442 -0.12304 -0.158045
0.00162081 -0.290573 -0.373655
-0.00290798 0.00491186 -0.730284
-0.00797849 0.00414385 -0.617935
-0.00983148 0.00155684 -0.232181
-0.00788769 -0.00163664 0.244082
-0.00290071 -0.00419882 0.626197
0.0032054 -0.00514103 0.766719
0.00807483 -0.00409982 0.611436
0.00982888 -0.00147695 0.220271
0.00778757 0.001711 -0.255114
0.00261629 0.00405677 -0.603152
-0.00289253 0.359749 -0.726404
-0.0079361 0.304404 -0.614652
-0.00977923 0.114376 -0.230948
-0.00784583 -0.120239 0.242786
-0.00288531 -0.308474 0.62287
0.00318838 -0.377697 0.762645
0.00803194 -0.301202 0.608187
0.00977665 -0.108509 0.219101
0.00774618 0.125673 -0.253759
0.00260239 0.297122 -0.599948
-0.00176112 0.575793 -0.442273
-0.00483193 0.487211 -0.374231
-0.0059541 0.183063 -0.140613
-0.00477694 -0.192447 0.14782
-0.00175671 -0.493725 0.379235
0.00194126 -0.604519 0.464339
0.00489026 -0.482087 0.370296
0.00595252 -0.173673 0.1334
0.00471627 0.201145 -0.154502
0.00158447 0.475555 -0.365279
4.97388e-05 0.569691 0.012491
0.000136465 0.482048 0.0105693
0.000168162 0.181123 0.00397125
0.000134914 -0.190408 -0.00417487
4.96146e-05 -0.488492 -0.0107106
-5.48253e-05 -0.598113 -0.0131141
-0.000138117 -0.476978 -0.0104582
-0.000168117 -0.171833 -0.00376758
-0.0001332 0.199014 0.00436354
-4.47497e-05 0.470516 0.0103165
0.00184141 0.343799 0.462436
0.00505219 0.290907 0.391293
0.00622559 0.109305 0.147023
0.00499472 -0.114908 -0.15456
0.0018368 -0.294796 -0.396524
-0.00202975 -0.360951 -0.485507
-0.00511323 -0.287848 -0.387178
-0.00622394 -0.103698 -0.139482
-0.00493128 0.120101 0.161545
-0.00165671 0.283948 0.381932
0.00292265 -0.0147344 0.733969
0.00801866 -0.0124559 0.621045
0.00988097 -0.00467991 0.233349
0.00792735 0.00491979 -0.245311
0.0029153 0.0126218 -0.629348
-0.00322153 0.0154542 -0.770578
-0.00811547 0.0123243 -0.614513
-0.00987836 0.00443984 -0.22138
-0.00782673 -0.00514273 0.256398
-0.00262949 -0.0121694 0.606195
0.00287631 -0.367582 0.722332
0.00788579 -0.310446 0.610772
0.00971713 -0.116636 0.229482
0.00779601 0.122614 -0.241245
0.00286698 0.314567 -0.618918
-0.00316812 0.385158 -0.757805
-0.00798089 0.307153 -0.604327
-0.00971456 0.110652 -0.217711
-0.00769702 -0.128179 0.252166
-0.0025878 -0.303591 0.596584
0.00172027 -0.578615 0.432014
0.00449712 -0.466998 0.348677
0.00553895 -0.17521 0.130818
0.00444381 0.184176 -0.137512
0.00163421 0.472505 -0.352788
-0.00180587 0.578538 -0.431956
-0.00454924 0.461367 -0.344472
-0.00553747 0.166197 -0.124088
-0.00438931 -0.193093 0.14417
-0.00154772 -0.477886 0.356806
0 -0.456806 0
0 -0.387865 0
0 -0.14552 0
0 0.152967 0
0 0.392439 0
0 0.480505 0
0 0.383188 0
0 0.138035 0
0 -0.160373 0
0 -0.377282 0
-0.0666946 -0.280567 -0.495264
-0.182988 -0.237668 -0.419071
-0.225486 -0.0893006 -0.157461
-0.180905 0.0938782 0.165532
-0.066528 0.240845 0.424675
0.0735158 0.294892 0.519973
0.185197 0.235168 0.414663
0.225426 0.08472 0.149384
0.178608 -0.098121 -0.173014
0.0600048 -0.231724 -0.409045
-0.107658 0.00391706 -0.799452
-0.295377 0.00330462 -0.67646
-0.363978 0.00124153 -0.254171
-0.292015 -0.00130517 0.267201
-0.107389 -0.00334839 0.685505
0.118669 -0.00409982 0.839337
0.298943 -0.00326949 0.669345
0.363881 -0.00117784 0.241134
0.288307 0.00136447 -0.279277
0.0968593 0.00323516 -0.660278
-0.107086 0.286889 -0.795205
-0.293808 0.242753 -0.672866
-0.362044 0.0912113 -0.252821
-0.290464 -0.095887 0.265781
-0.106819 -0.245999 0.681862
0.118039 -0.301202 0.834879
0.297355 -0.2402 0.665789
0.361948 -0.086533 0.239853
0.286775 0.100221 -0.277794
0.0963448 0.236946 -0.656771
-0.0651996 0.459178 -0.484162
-0.178886 0.388537 -0.409676
-0.220431 0.145987 -0.153931
-0.17685 -0.153471 0.161821
-0.0650366 -0.393731 0.415154
0.0718682 -0.482087 0.508317
0.181046 -0.384451 0.405368
0.220373 -0.1385 0.146035
0.174604 0.160408 -0.169135
0.0586597 0.379241 -0.399876
0.00184141 0.454312 0.013674
0.00505219 0.38442 0.0115704
0.00622559 0.14444 0.0043474
0.00499471 -0.151845 -0.00457026
0.0018368 -0.389559 -0.011725
-0.00202975 -0.476978 -0.0143563
-0.00511323 -0.380376 -0.0114487
-0.00622394 -0.137032 -0.00412443
-0.00493128 0.158708 0.00477683
-0.00165671 0.375222 0.0112936
0.068172 0.274169 0.506234
0.187041 0.231991 0.428354
0.230481 0.0871674 0.160948
0.184912 -0.0916357 -0.169198
0.0680016 -0.235091 -0.43408
-0.0751445 -0.287848 -0.531491
-0.189299 -0.229551 -0.423849
-0.23042 -0.0826962 -0.152693
-0.182564 0.0957773 0.176846
-0.061334 0.22644 0.418106
0.108201 -0.0117503 0.803486
0.296863 -0.00993329 0.679864
0.36581 -0.00373209 0.25545
0.293484 0.00392339 -0.268546
0.107929 0.0100655 -0.688955
-0.119266 0.0123243 -0.843561
-0.300448 0.00982822 -0.672713
-0.365713 0.00354064 -0.242348
-0.289757 -0.00410117 0.280683
-0.0973481 -0.0097047 0.66361
0.106486 -0.293136 0.790747
0.291944 -0.247572 0.668619
0.359745 -0.0930137 0.251218
0.28862 0.0977811 -0.264094
0.10614 0.250859 -0.677535
-0.117289 0.307153 -0.82958
-0.295465 0.244945 -0.661564
-0.359649 0.0882417 -0.238331
-0.284957 -0.102219 0.27605
-0.0958047 -0.242105 0.653089
0.0636872 -0.461428 0.472931
0.166491 -0.372417 0.381701
0.205061 -0.139724 0.143208
0.164517 0.146875 -0.150536
0.0605012 0.376808 -0.386202
-0.0668563 0.461367 -0.472868
-0.16842 0.367926 -0.377099
-0.205006 0.132537 -0.135841
-0.162499 -0.153986 0.157825
-0.057299 -0.3811 0.390601
0 -0.164554 0
0 -0.13972 0
0 -0.0524205 0
0 0.055103 0
0 0.141367 0
0 0.173091 0
0 0.138035 0
0 0.049724 0
0 -0.0577709 0
0 -0.135907 0
-0.105856 -0.101068 -0.347037
-0.29043 -0.0856202 -0.293652
-0.357882 -0.0321708 -0.110336
-0.287125 0.03382 0.115992
-0.105591 0.0867655 0.297578
0.116682 0.106236 0.364358
0.293936 0.0847201 0.290564
0.357788 0.0305207 0.104677
0.283479 -0.0353482 -0.121234
0.0952385 -0.0834733 -0.286623
-0.170873 0.00141103 -0.560185
-0.46881 0.00119049 -0.47401
-0.57769 0.000447263 -0.178104
-0.463476 -0.000470184 0.187233
-0.170443 -0.00120626 0.480349
0.188347 -0.00147695 0.588141
0.47447 -0.00117784 0.469027
0.577537 -0.000424318 0.168968
0.457589 0.00049155 -0.195695
0.153733 0.00116539 -0.462664
-0.169965 0.103346 -0.557209
-0.46632 0.0874525 -0.471492
-0.574622 0.0328592 -0.177158
-0.461014 -0.0345436 0.186239
-0.169538 -0.088622 0.477798
0.187346 -0.108509 0.585017
0.47195 -0.0865331 0.466536
0.574469 -0.0311738 0.16807
0.455158 0.0361046 -0.194656
0.152917 0.0853544 -0.460207
-0.103484 0.165409 -0.339258
-0.28392 0.139971 -0.28707
-0.349861 0.0525925 -0.107863
-0.28069 -0.0552885 0.113392
-0.103223 -0.141843 0.290908
0.114066 -0.173674 0.35619
0.287348 -0.1385 0.284051
0.349768 -0.0498949 0.10233
0.277124 0.0577869 -0.118517
0.0931036 0.136613 -0.280198
0.00292265 0.163656 0.00958154
0.00801865 0.138488 0.00810762
0.00988097 0.0520351 0.00304633
0.00792735 -0.0547026 -0.00320249
0.0029153 -0.14034 -0.008216
-0.00322153 -0.171833 -0.0100597
-0.00811547 -0.137032 -0.00802234
-0.00987836 -0.0493661 -0.00289009
-0.00782673 0.0571745 0.00334724
-0.00262949 0.135165 0.00791353
0.108201 0.0987633 0.354724
0.296863 0.0835748 0.300157
0.36581 0.0314024 0.11278
0.293484 -0.033012 -0.118561
0.107929 -0.0846926 -0.30417
-0.119266 -0.103698 -0.372428
-0.300448 -0.0826963 -0.297
-0.365713 -0.0297916 -0.106995
-0.289757 0.0345038 0.12392
-0.0973481 0.0815699 0.292972
0.171735 -0.00423277 0.563012
0.471169 -0.00357847 0.476396
0.580596 -0.0013445 0.179
0.465807 0.00141341 -0.188176
0.171301 0.00362612 -0.482767
-0.189294 0.00443985 -0.591101
-0.476858 0.00354064 -0.471386
-0.580442 0.00127552 -0.169818
-0.459892 -0.00147745 0.19668
-0.154509 -0.0034959 0.464999
0.169012 -0.105596 0.554085
0.463363 -0.0891878 0.468518
0.570972 -0.0335084 0.176034
0.458085 0.0352258 -0.185057
0.16846 0.0903721 -0.474765
-0.186156 0.110652 -0.581306
-0.468952 0.0882419 -0.463576
-0.570821 0.0317892 -0.167003
-0.452271 -0.0368244 0.193434
-0.152059 -0.0872129 0.457627
0.101083 -0.166219 0.331388
0.264251 -0.134155 0.267462
0.325469 -0.0503326 0.100347
0.261118 0.0529083 -0.105482
0.0960264 0.135737 -0.270616
-0.106113 0.166197 -0.331344
-0.267313 0.132537 -0.264237
-0.325382 0.0477436 -0.0951855
-0.257916 -0.0554699 0.110589
-0.090944 -0.137283 0.273698
0 0.191184 0
0 0.162331 0
0 0.0609037 0
0 -0.0640203 0
0 -0.164245 0
0 -0.201102 0
0 -0.160373 0
0 -0.0577709 0
0 0.0671199 0
0 0.157901 0
-0.104178 0.117424 -0.0649209
-0.285618 0.0991747 -0.0551786
-0.351949 0.0372585 -0.0207369
-0.282365 -0.0391681 0.0218003
-0.10384 -0.100486 0.0559286
0.114747 -0.123036 0.0684794
0.289064 -0.0981173 0.0546103
0.351856 -0.0353468 0.0196738
0.278781 0.0409501 -0.0227756
0.0937285 0.0969818 -0.0536191
-0.168164 -0.00163938 -0.104795
-0.461043 -0.00137925 -0.0890688
-0.568114 -0.000518116 -0.0334734
-0.455791 0.000544667 0.0351898
-0.167617 0.00139734 0.0902796
0.185224 0.00171093 0.110539
0.466605 0.00136441 0.0881517
0.567963 0.000491529 0.0317572
0.450006 -0.000569569 -0.0367641
0.151296 -0.00135399 -0.0865516
-0.16727 -0.12007 -0.104238
-0.458594 -0.101297 -0.0885956
-0.565096 -0.0380557 -0.0332955
-0.453369 0.0400062 0.0350029
-0.166726 0.102636 0.0898001
0.18424 0.125668 0.109952
0.464127 0.100217 0.0876835
0.564946 0.0361032 0.0315886
0.447616 -0.0418266 -0.0365688
0.150492 -0.0991674 -0.0860918
-0.101843 -0.192177 -0.0634656
-0.279215 -0.16213 -0.0539417
-0.344059 -0.0609097 -0.020272
-0.276035 0.0640313 0.0213115
-0.101512 0.164273 0.0546749
0.112175 0.201137 0.0669444
0.282585 0.160401 0.0533862
0.343968 0.0577846 0.0192328
0.272532 -0.066945 -0.022265
0.0916274 -0.158721 -0.0524171
0.00287631 -0.19014 0.00179244
0.00788579 -0.160412 0.00152346
0.00971713 -0.0602642 0.000572536
0.00779601 0.0633528 -0.000601894
0.00286698 0.162533 -0.00154417
-0.00316812 0.199006 -0.00189069
-0.00798089 0.158702 -0.00150777
-0.00971456 0.0571722 -0.000543185
-0.00769703 -0.0662355 0.000628824
-0.0025878 -0.157039 0.0014804
0.106486 -0.114746 0.066359
0.291944 -0.0968058 0.0564009
0.359745 -0.0363684 0.0211962
0.28862 0.0382323 -0.0222831
0.10614 0.0980854 -0.0571675
-0.117289 0.120096 -0.0699964
-0.295465 0.0957735 -0.05582
-0.359649 0.0345024 -0.0201096
-0.284957 -0.039972 0.0232801
-0.0958047 -0.0947704 0.0548068
0.169012 0.00491776 0.105324
0.463363 0.00414542 0.0895169
0.570972 0.0015573 0.0336418
0.458085 -0.00163711 -0.0353668
0.16846 -0.00420002 -0.0907336
-0.186156 -0.00514253 -0.111095
-0.468952 -0.00410101 -0.088595
-0.570821 -0.00147739 -0.0319169
-0.452271 0.00171177 0.0369491
-0.152059 0.00406164 0.0869883
0.166332 0.122684 0.103654
0.455692 0.103326 0.0880282
0.561514 0.0388149 0.0330809
0.450496 -0.040804 -0.0347771
0.16567 -0.104683 -0.0892209
-0.183072 -0.128175 -0.109242
-0.461185 -0.102216 -0.0871179
-0.561365 -0.0368229 -0.0313848
-0.444783 0.0426678 0.0363359
-0.149648 0.101327 0.0856091
0.0994805 0.193118 0.0619935
0.260061 0.155865 0.0500347
0.320308 0.058478 0.0187722
0.256978 -0.0614705 -0.0197328
0.0945038 -0.157703 -0.0506247
-0.104431 -0.193093 -0.0619852
-0.263075 -0.153986 -0.0494314
-0.320223 -0.0554699 -0.0178066
-0.253827 0.0644466 0.0206882
-0.089502 0.159499 0.0512013
0 0.473161 0
0 0.381887 0
0 0.143277 0
0 -0.150609 0
0 -0.38639 0
0 -0.473098 0
0 -0.377282 0
0 -0.135907 0
0 0.157901 0
0 0.39079 0
-0.0623071 0.290612 0.242243
-0.162883 0.234552 0.195513
-0.200617 0.0879999 0.0733532
-0.160952 -0.0925031 -0.0771069
-0.0591901 -0.237318 -0.197819
0.0654075 -0.290573 -0.24221
0.16477 -0.231724 -0.193156
0.200564 -0.0834733 -0.06958
0.158978 0.0969818 0.0808401
0.0560573 0.240021 0.200072
-0.100576 -0.00405731 0.391026
-0.262924 -0.00327464 0.315596
-0.323834 -0.00122859 0.118406
-0.259807 0.00129146 -0.124465
-0.0955442 0.00331326 -0.319317
0.10558 0.00405677 -0.390974
0.265971 0.00323516 -0.31179
0.323748 0.00116539 -0.112316
0.256621 -0.00135399 0.130492
0.0904873 -0.00335099 0.322954
-0.100041 -0.297161 0.388949
-0.261527 -0.239838 0.313919
-0.322114 -0.0899831 0.117777
-0.258427 0.0945878 -0.123804
-0.0950366 0.242666 -0.317621
0.105019 0.297122 -0.388897
0.264558 0.236946 -0.310134
0.322028 0.0853545 -0.111719
0.255258 -0.0991674 0.129798
0.0900066 -0.24543 0.321238
-0.0609104 -0.475619 0.236812
-0.159231 -0.38387 0.19113
-0.19612 -0.144021 0.0717089
-0.157344 0.151391 -0.0753784
-0.0578632 0.388396 -0.193384
0.0639413 0.475555 -0.236781
0.161077 0.379241 -0.188826
0.196068 0.136613 -0.0680203
0.155414 -0.158721 0.079028
0.0548007 -0.39282 0.195587
0.00172027 -0.470578 -0.00668821
0.00449712 -0.379802 -0.00539803
0.00553894 -0.142495 -0.00202525
0.0044438 0.149787 0.00212889
0.00163421 0.384281 0.00546169
-0.00180587 0.470516 0.00668732
-0.00454924 0.375222 0.00533294
-0.00553747 0.135165 0.00192107
-0.00438931 -0.157039 -0.00223196
-0.00154772 -0.388657 -0.00552389
0.0636872 -0.283986 -0.247608
0.166491 -0.229204 -0.199844
0.205061 -0.0859934 -0.074978
0.164517 0.0903939 0.0788149
0.0605012 0.231907 0.2022
-0.0668563 0.283948 0.247576
-0.16842 0.22644 0.197434
-0.205006 0.08157 0.0711212
-0.162499 -0.0947705 -0.0826308
-0.057299 -0.234548 -0.204503
0.101083 0.012171 -0.392999
0.264251 0.00982315 -0.317188
0.325468 0.00368548 -0.119004
0.261118 -0.00387408 0.125093
0.0960263 -0.00993899 0.320929
-0.106113 -0.0121694 0.392947
-0.267313 -0.00970471 0.313364
-0.325382 -0.0034959 0.112882
-0.257916 0.00406165 -0.13115
-0.090944 0.0100522 -0.324584
0.0994805 0.303632 -0.386768
0.260061 0.24506 -0.312159
0.320308 0.0919423 -0.117117
0.256978 -0.0966473 0.12311
0.0945038 -0.24795 0.31584
-0.104431 -0.303591 0.386717
-0.263075 -0.242105 0.308395
-0.320223 -0.0872129 0.111093
-0.253827 0.101327 -0.129071
-0.089502 0.250774 -0.319437
0.0594975 0.477949 -0.231319
0.155538 0.385751 -0.186697
0.191571 0.144727 -0.0700455
0.153694 -0.152133 0.07363
0.056521 -0.3903 0.188898
-0.0624581 -0.477886 0.231288
-0.15734 -0.3811 0.184446
-0.19152 -0.137283 0.0664424
-0.151809 0.159499 -0.0771948
-0.0535296 0.394745 -0.19105
