# vtk DataFile Version 3.0
Velocity field
ASCII
DATASET STRUCTURED_POINTS
DIMENSIONS 8 8 8
SPACING 0.8 0.8 0.8
ORIGIN 0 0 0
POINT_DATA 512
VECTORS velocity float
0 0.381869 0
0 0.266051 0
0 -0.0111504 0
0 -0.281588 0
0 -0.381218 0
0 -0.249606 0
0 0.0334132 0
0 0.296164 0
0 0.150232 0.389754
0 0.104668 0.287901
0 -0.00438672 -0.0120662
0 -0.11078 -0.304715
0 -0.149976 -0.412527
0 -0.0981984 -0.270106
0 0.0131452 0.0361575
0 0.116515 0.30228
0 -0.172533 0.543089
0 -0.120205 0.401166
0 0.00503789 -0.0168132
0 0.127225 -0.424593
0 0.172239 -0.574821
0 0.112775 -0.37637
0 -0.0150965 0.0503823
0 -0.133811 0.421201
0 -0.390642 0.366993
0 -0.272163 0.271088
0 0.0114066 -0.0113615
0 0.288057 -0.286919
0 0.389976 -0.388436
0 0.255341 -0.254332
0 -0.0341809 0.0340459
0 -0.302969 0.284627
0 -0.371793 -0.0317159
0 -0.259031 -0.0234277
0 0.0108562 0.000981874
0 0.274158 0.0247959
0 0.371159 0.033569
0 0.24302 0.0219796
0 -0.0325316 -0.00294228
0 -0.28835 -0.0245978
0 -0.127419 -0.411186
0 -0.0887738 -0.303733
0 0.00372058 0.0127297
0 0.0939581 0.32147
0 0.127202 0.435211
0 0.0832867 0.284959
0 -0.0111491 -0.0381457
0 -0.098822 -0.318902
0 0.194246 -0.541237
0 0.135332 -0.399798
0 -0.00567188 0.0167558
0 -0.143235 0.423145
0 -0.193914 0.57286
0 -0.126967 0.375086
0 0.0169963 -0.0502105
0 0.15065 -0.419765
0 0.398083 -0.34298
0 0.277347 -0.238957
0 -0.0116239 0.0100149
0 -0.293544 0.252911
0 -0.397405 0.342395
0 -0.260205 0.224187
0 0.034832 -0.0300105
0 0.30874 -0.266004
0 0.266051 0
0 0.201245 0
0 -0.00843436 0
0 -0.212998 0
0 -0.28836 0
0 -0.188806 0
0 0.0252743 0
0 0.20634 0
0.0830829 0.104668 0.384971
0.205491 0.0754786 0.277229
0.200506 -0.00316539 -0.0116262
0.073867 -0.0799291 -0.293573
-0.0975785 -0.10821 -0.397445
-0.209836 -0.0708513 -0.260231
-0.194785 0.00945347 0.0347243
-0.0596137 0.0811768 0.29857
0.115769 -0.120205 0.536424
0.286332 -0.0864666 0.386297
0.279386 0.00362601 -0.0162
0.102928 0.0915617 -0.40907
-0.135967 0.123957 -0.553803
-0.292385 0.0811621 -0.36261
-0.271416 -0.0108314 0.0483856
-0.0830665 -0.0932269 0.416032
0.078231 -0.272163 0.362489
0.193489 -0.195776 0.261041
0.188797 0.00821018 -0.0109472
0.0695529 0.207315 -0.276428
-0.0918803 0.280664 -0.374235
-0.19758 0.18377 -0.245032
-0.183411 -0.0245245 0.0326966
-0.0561323 -0.21108 0.281134
-0.0067608 -0.259031 -0.0313267
-0.0167215 -0.186332 -0.0225594
-0.016316 0.00781395 0.000946063
-0.00601086 0.197311 0.0238894
0.00794033 0.267124 0.0323415
0.017075 0.174903 0.021176
0.0158504 -0.0233411 -0.00282567
0.00485101 -0.200895 -0.0242959
-0.0876516 -0.0887738 -0.40614
-0.216788 -0.0638594 -0.292473
-0.211532 0.002678 0.0122655
-0.0779276 0.0676224 0.309712
0.102945 0.0915484 0.4193
0.221369 0.0599418 0.27454
0.205497 -0.00799943 -0.0366338
0.0628918 -0.0688499 -0.314988
-0.115374 0.135332 -0.534594
-0.285292 0.0972817 -0.384896
-0.27837 -0.00407953 0.0161411
-0.102554 -0.103013 0.407583
0.135473 -0.139459 0.551788
0.291321 -0.0913138 0.361292
0.27043 0.0121872 -0.0482111
0.0827832 0.104959 -0.414613
-0.0731122 0.277347 -0.338771
-0.174988 0.19323 -0.236024
-0.170718 -0.00809842 0.00989196
-0.0628931 -0.204514 0.249808
0.083082 -0.276875 0.338193
0.178661 -0.181286 0.221436
0.165866 0.0242677 -0.0296422
0.0524595 0.215101 -0.262739
0 -0.0111504 0
0 -0.00843436 0
0 0.000353491 0
0 0.00892691 0
0 0.0120854 0
0 0.00791303 0
0 -0.00105927 0
0 -0.00864787 0
0.115769 -0.00438672 0.14667
0.286332 -0.00316539 0.105561
0.279386 0.000132752 -0.00442682
0.102928 0.00335212 -0.111781
-0.135967 0.00453809 -0.151331
-0.292385 0.0029714 -0.0990872
-0.271416 -0.000396424 0.0132225
-0.0830665 -0.00340219 0.113752
0.161314 0.00503789 0.204371
0.398981 0.00362601 0.147089
0.389301 -0.000152062 -0.00616842
0.14342 -0.00383973 -0.155757
-0.18946 -0.00519832 -0.210871
-0.407415 -0.00340369 -0.138069
-0.378197 0.000454186 0.0184242
-0.115746 0.00390721 0.158504
0.109008 0.0114066 0.138104
0.26961 0.00821018 0.0993954
0.263072 -0.000344306 -0.00416833
0.0969162 -0.00869407 -0.105255
-0.128027 -0.0117703 -0.142495
-0.27531 -0.00770659 -0.0933009
-0.255565 0.00102838 0.0124502
-0.0782155 0.00884655 0.107109
-0.00942059 0.0108562 -0.0119351
-0.0233001 0.00781395 -0.00858985
-0.0227349 -0.000327692 0.000360231
-0.00837558 -0.00827462 0.00909617
0.0110642 -0.0112023 0.0123146
0.0237927 -0.00733474 0.0080631
0.0220863 0.000978754 -0.00107596
0.00675946 0.00841969 -0.00925646
-0.122135 0.00372058 -0.154735
-0.302073 0.002678 -0.111364
-0.294749 -0.000112306 0.00467025
-0.108587 -0.00283586 0.117927
0.143443 -0.00383918 0.159653
0.308459 -0.00251375 0.104536
0.28634 0.000335437 -0.0139493
0.0876342 0.00288556 -0.120007
-0.160764 -0.00567188 -0.203674
-0.397531 -0.00407953 -0.146554
-0.387886 0.000171078 0.00614601
-0.142899 0.00431991 0.155191
0.18877 0.00584838 0.210103
0.405935 0.00382928 0.137567
0.376822 -0.000511037 -0.0183577
0.115351 -0.00439892 -0.157963
-0.101876 -0.0116239 -0.129068
-0.24383 -0.00809842 -0.0899225
-0.237881 0.000339411 0.00376873
-0.087636 0.00857136 0.0951739
0.115768 0.011604 0.128848
0.248948 0.00759786 0.0843644
0.23112 -0.00101708 -0.0112933
0.0730978 -0.00901507 -0.100101
0 -0.281588 0
0 -0.212998 0
0 0.00892691 0
0 0.225437 0
0 0.3052 0
0 0.199833 0
0 -0.0267503 0
0 -0.21839 0
0.078231 -0.11078 -0.1806
0.193489 -0.0799291 -0.129978
0.188797 0.00335212 0.00545083
0.0695529 0.0846431 0.137639
-0.0918803 0.114591 0.186339
-0.19758 0.0750297 0.122006
-0.183411 -0.0100102 -0.0162809
-0.0561323 -0.0859175 -0.140067
0.109008 0.127225 -0.25165
0.26961 0.0915617 -0.181113
0.263072 -0.00383973 0.00759519
0.0969162 -0.0969582 0.19179
-0.128027 -0.131264 0.259646
-0.27531 -0.0859463 0.170005
-0.255565 0.0114689 -0.022686
-0.0782155 0.0986712 -0.195171
0.0736624 0.288057 -0.170053
0.18219 0.207315 -0.122387
0.177771 -0.00869407 0.00513246
0.0654915 -0.219533 0.129601
-0.0865141 -0.29721 0.175456
-0.186042 -0.194602 0.114881
-0.172699 0.0259683 -0.01533
-0.0528542 0.223407 -0.131887
-0.00636597 0.274158 0.0146961
-0.0157449 0.197311 0.0105768
-0.015363 -0.00827463 -0.000443553
-0.00565984 -0.208944 -0.0112003
0.00747655 -0.282868 -0.0151629
0.0160778 -0.185213 -0.00992811
0.0149246 0.0247151 0.00132484
0.00456771 0.212627 0.0113978
-0.0825328 0.0939581 0.190531
-0.204129 0.0676224 0.137124
-0.199178 -0.00283586 -0.00575056
-0.0733776 -0.0716081 -0.145207
0.096932 -0.0969442 -0.196584
0.208446 -0.0634752 -0.128716
0.193495 0.00847029 0.0171761
0.0592189 0.0728707 0.147769
-0.108636 -0.143235 0.250792
-0.268631 -0.103013 0.180456
-0.262115 0.00431991 -0.00756758
-0.096564 0.109082 -0.191092
0.127561 0.147678 -0.258702
0.274309 0.0966936 -0.169388
0.254636 -0.0129045 0.0226043
0.0779487 -0.111089 0.194506
-0.0688425 -0.293544 0.158926
-0.164769 -0.204514 0.110725
-0.160748 0.00857136 -0.00464057
-0.0592202 0.216458 -0.117191
0.0782301 0.293044 -0.158655
0.168227 0.191873 -0.103881
0.15618 -0.0256849 0.0139059
0.0493959 -0.227663 0.123258
0 -0.381218 0
0 -0.28836 0
0 0.0120854 0
0 0.3052 0
0 0.413184 0
0 0.270536 0
0 -0.036215 0
0 -0.295659 0
-0.0067608 -0.149976 -0.39832
-0.0167215 -0.10821 -0.28667
-0.016316 0.00453809 0.012022
-0.00601086 0.114591 0.303564
0.00794033 0.155134 0.410978
0.017075 0.101577 0.269091
0.0158504 -0.013552 -0.0359081
0.00485101 -0.116316 -0.308923
-0.00942059 0.172239 -0.555024
-0.0233001 0.123957 -0.39945
-0.0227349 -0.00519832 0.0167517
-0.00837558 -0.131264 0.423
0.0110642 -0.177707 0.572658
0.0237927 -0.116355 0.374957
0.0220863 0.0155268 -0.050035
0.00675946 0.133583 -0.430458
-0.00636597 0.389976 -0.375058
-0.0157449 0.280664 -0.26993
-0.015363 -0.0117703 0.01132
-0.00565984 -0.29721 0.28584
0.00747655 -0.402369 0.386974
0.0160778 -0.263455 0.253375
0.0149246 0.0351559 -0.0338111
0.00456771 0.302452 -0.290882
0.000550154 0.371159 0.0324129
0.0013607 0.267124 0.0233277
0.00132769 -0.0112023 -0.00097827
0.000489123 -0.282868 -0.0247026
-0.000646137 -0.382955 -0.0334427
-0.00138947 -0.250741 -0.0218971
-0.00128981 0.0334596 0.00292199
-0.000394746 0.287858 0.0251383
0.00713257 0.127202 0.420223
0.017641 0.0915484 0.302431
0.0172131 -0.00383918 -0.0126831
0.00634138 -0.0969442 -0.320257
-0.00837695 -0.131245 -0.433573
-0.0180139 -0.0859338 -0.283887
-0.016722 0.0114672 0.0378824
-0.00511776 0.0986534 0.32591
0.00938846 -0.193914 0.553131
0.0232154 -0.139459 0.398001
0.0226523 0.00584838 -0.0166908
0.00834514 0.147678 -0.421459
-0.011024 0.199929 -0.570577
-0.0237062 0.130906 -0.373594
-0.022006 -0.0174701 0.0498548
-0.00673641 -0.150393 0.42899
0.00594944 -0.397405 0.350518
0.0142395 -0.276875 0.244208
0.013892 0.011604 -0.010235
0.00511787 0.293044 -0.258469
-0.00676072 0.396727 -0.34992
-0.0145383 0.259761 -0.229114
-0.0134972 -0.0347726 0.03067
-0.00426884 -0.308213 0.271849
0 -0.249606 0
0 -0.188806 0
0 0.00791303 0
0 0.199833 0
0 0.270536 0
0 0.177136 0
0 -0.0237121 0
0 -0.193586 0
-0.0876516 -0.0981984 -0.374424
-0.216788 -0.0708513 -0.269474
-0.211532 0.0029714 0.0113009
-0.0779276 0.0750297 0.285357
0.102945 0.101577 0.386321
0.221369 0.0665087 0.252947
0.205497 -0.00887335 -0.033754
0.0628918 -0.0761593 -0.290391
-0.122135 0.112775 -0.521728
-0.302073 0.0811621 -0.375491
-0.294749 -0.00340369 0.0157466
-0.108587 -0.0859463 0.397622
0.143443 -0.116355 0.538304
0.308459 -0.0761842 0.352462
0.28634 0.0101663 -0.0470334
0.0876342 0.0874646 -0.404634
-0.0825328 0.255341 -0.352558
-0.204129 0.18377 -0.253737
-0.199178 -0.0077066 0.0106408
-0.0733776 -0.194602 0.268692
0.096932 -0.263455 0.363761
0.208446 -0.1725 0.238174
0.193495 0.0230188 -0.0317828
0.0592189 0.198034 -0.273432
0.00713257 0.24302 0.0304684
0.017641 0.174903 0.0219283
0.0172131 -0.00733474 -0.000919583
0.00634138 -0.185213 -0.0232208
-0.00837695 -0.250741 -0.0314363
-0.0180139 -0.164175 -0.0205833
-0.016722 0.0219081 0.0027467
-0.00511776 0.188478 0.0236303
0.0924714 0.0832867 0.395013
0.228707 0.0599418 0.28429
0.223159 -0.00251375 -0.0119223
0.0822128 -0.0634752 -0.301046
-0.108604 -0.0859338 -0.407565
-0.233542 -0.0562656 -0.266857
-0.216794 0.00750825 0.03561
-0.0663501 0.0645943 0.306359
0.121718 -0.126967 0.519948
0.300975 -0.0913138 0.374127
0.293676 0.00382928 -0.0156894
0.108191 0.0966936 -0.396177
-0.142922 0.130906 -0.536348
-0.307337 0.0857123 -0.351182
-0.2853 -0.0114388 0.0468638
-0.0873353 -0.0984716 0.403254
0.0771326 -0.260205 0.32949
0.18461 -0.181286 0.229558
0.180106 0.00759786 -0.00962095
0.0663515 0.191873 -0.242964
-0.0876506 0.259761 -0.328928
-0.188485 0.170081 -0.215369
-0.174987 -0.0227677 0.0288301
-0.0553442 -0.201806 0.255541
0 0.0334132 0
0 0.0252743 0
0 -0.00105927 0
0 -0.0267503 0
0 -0.036215 0
0 -0.0237121 0
0 0.0031742 0
0 0.0259141 0
-0.115374 0.0131452 -0.123408
-0.285292 0.00945324 -0.0888676
-0.27837 -0.000396414 0.00372686
-0.102554 -0.0100099 0.0941074
0.135473 -0.0135517 0.127403
0.291321 -0.00887312 0.0834185
0.27043 0.00118439 -0.0111307
0.0827832 0.010195 -0.0957111
-0.160764 -0.0150965 -0.171958
-0.397531 -0.0108311 -0.123829
-0.387886 0.000454174 0.00519304
-0.142899 0.0114686 0.13113
0.18877 0.0155263 0.177526
0.405935 0.0101661 0.116237
0.376822 -0.00135722 -0.0155096
0.115351 -0.0117083 -0.133365
-0.108636 -0.0341809 -0.116201
-0.268631 -0.0245239 -0.0836777
-0.262115 0.00102835 0.00350923
-0.096564 0.0259676 0.0886112
0.127561 0.035155 0.119963
0.274309 0.0230182 0.078547
0.254636 -0.00307298 -0.0104806
0.0779487 -0.0265095 -0.0901216
0.00938846 -0.0325316 0.0100422
0.0232154 -0.0233405 0.00723153
0.0226523 0.000978728 -0.000303269
0.00834514 0.0247144 -0.00765786
-0.011024 0.0334587 -0.0103673
-0.0237062 0.0219075 -0.00678815
-0.022006 -0.00292472 0.000905753
-0.00673641 -0.0252304 0.0077884
0.121718 -0.0111491 0.130194
0.300975 -0.00799922 0.0937545
0.293676 0.000335428 -0.00393178
0.108191 0.00847006 -0.0992819
-0.142922 0.0114669 -0.134409
-0.307337 0.00750805 -0.0880058
-0.2853 -0.00100235 0.0117427
-0.0873353 -0.00864684 0.100974
0.160215 0.0169963 0.171372
0.396087 0.0121869 0.123379
0.386477 -0.000511024 -0.00517413
0.142379 -0.0129041 -0.130652
-0.188084 -0.0174697 -0.176879
-0.40446 -0.0114385 -0.115814
-0.375452 0.0015272 0.0154537
-0.114958 0.0131818 0.13291
0.101528 0.034832 0.108598
0.242999 0.0242677 0.0756609
0.23707 -0.00101708 -0.00317101
0.0873372 -0.0256849 -0.0800794
-0.115373 -0.0347726 -0.108413
-0.248099 -0.0227677 -0.0709843
-0.230332 0.00304777 0.00950223
-0.0728485 0.0270145 0.0842248
0 0.296164 0
0 0.20634 0
0 -0.00864787 0
0 -0.21839 0
0 -0.295659 0
0 -0.193586 0
0 0.0259141 0
0 0.229695 0
-0.0731122 0.116515 0.202466
-0.174988 0.0811768 0.141059
-0.170718 -0.00340219 -0.00591191
-0.0628931 -0.0859175 -0.149297
0.083082 -0.116316 -0.20212
0.178661 -0.0761593 -0.13234
0.165866 0.010195 0.0177156
0.0524595 0.0903651 0.157025
-0.101876 -0.133811 0.282118
-0.24383 -0.0932269 0.196554
-0.237881 0.00390721 -0.00823773
-0.087636 0.0986712 -0.208032
0.115768 0.133583 -0.281637
0.248948 0.0874646 -0.184405
0.23112 -0.0117083 0.0246851
0.0730978 -0.103779 0.218801
-0.0688425 -0.302969 0.190642
-0.164769 -0.21108 0.132821
-0.160748 0.00884655 -0.00556666
-0.0592202 0.223407 -0.140578
0.0782301 0.302452 -0.190317
0.168227 0.198034 -0.124612
0.15618 -0.0265095 0.016681
0.0493959 -0.234972 0.147855
0.00594944 -0.28835 -0.0164755
0.0142395 -0.200895 -0.0114786
0.013892 0.00841969 0.000481076
0.00511786 0.212627 0.0121489
-0.00676072 0.287858 0.0164474
-0.0145383 0.188478 0.0107691
-0.0134972 -0.0252304 -0.00144159
-0.00426884 -0.223634 -0.0127778
0.0771326 -0.098822 -0.213599
0.18461 -0.0688499 -0.148816
0.180106 0.00288556 0.00623699
0.0663515 0.0728707 0.157507
-0.0876506 0.0986534 0.213235
-0.188485 0.0645943 0.139618
-0.174987 -0.00864684 -0.0186897
-0.0553442 -0.0766429 -0.16566
0.101528 0.15065 -0.281156
0.242999 0.104959 -0.195883
0.23707 -0.00439892 0.00820963
0.0873372 -0.111089 0.207323
-0.115373 -0.150393 0.280677
-0.248099 -0.0984716 0.183776
-0.230332 0.0131818 -0.0246009
-0.0728485 0.116839 -0.218055
0.0643381 0.30874 -0.178168
0.153988 0.215101 -0.124131
0.15023 -0.00901507 0.00520242
0.0553453 -0.227663 0.13138
-0.0731114 -0.308213 0.177864
-0.15722 -0.201806 0.116458
-0.145961 0.0270145 -0.0155895
-0.0461639 0.239448 -0.138181
