# vtk DataFile Version 3.0
Velocity field
ASCII
DATASET STRUCTURED_POINTS
DIMENSIONS 8 8 8
SPACING 0.8 0.8 0.8
ORIGIN 0 0 0
POINT_DATA 512
VECTORS velocity float
0 0.113691 0
0 0.0792089 0
0 -0.00331971 0
0 -0.0838347 0
0 -0.113497 0
0 -0.0743131 0
0 0.00994783 0
0 0.0881745 0
0 0.0447274 0.116038
0 0.0311619 0.0857144
0 -0.00130602 -0.00359236
0 -0.0329817 -0.09072
0 -0.0446511 -0.122818
0 -0.0292358 -0.0804164
0 0.00391361 0.0107648
0 0.034689 0.0899952
0 -0.0513668 0.161689
0 -0.0357876 0.119436
0 0.00149989 -0.00500564
0 0.0378776 -0.12641
0 0.0512792 -0.171136
0 0.0335756 -0.112053
0 -0.00449455 0.0149999
0 -0.0398383 0.125401
0 -0.116303 0.109262
0 -0.0810288 0.0807087
0 0.00339598 -0.00338257
0 0.0857608 -0.0854221
0 0.116104 -0.115646
0 0.0760204 -0.0757202
0 -0.0101764 0.0101362
0 -0.0902003 0.0847396
0 -0.110691 -0.0094425
0 -0.077119 -0.00697493
0 0.00323212 0.000292325
0 0.0816227 0.00738226
0 0.110502 0.00999421
0 0.0723523 0.00654382
0 -0.00968535 -0.000875979
0 -0.085848 -0.00732328
0 -0.0379354 -0.122419
0 -0.0264299 -0.0904277
0 0.0011077 0.0037899
0 0.0279733 0.0957086
0 0.0378707 0.129572
0 0.0247962 0.0848384
0 -0.00331932 -0.0113568
0 -0.0294214 -0.0949439
0 0.0578311 -0.161138
0 0.0402913 -0.119028
0 -0.00168864 0.00498857
0 -0.0426443 0.125979
0 -0.0577324 0.170553
0 -0.0378009 0.111671
0 0.00506017 -0.0149487
0 0.0448518 -0.124973
0 0.118518 -0.102113
0 0.0825723 -0.0711425
0 -0.00346067 0.00298164
0 -0.0873944 0.0752971
0 -0.118316 0.101938
0 -0.0774685 0.0667452
0 0.0103702 -0.00893476
0 0.0919185 -0.079195
0 0.0792089 0
0 0.059915 0
0 -0.00251109 0
0 -0.063414 0
0 -0.0858508 0
0 -0.0562117 0
0 0.00752471 0
0 0.0614317 0
0.0247356 0.0311619 0.114614
0.0597805 0.021942 0.0806507
0.058323 -0.000919653 -0.0033803
0.0214863 -0.0232245 -0.0853644
-0.0283835 -0.0314417 -0.115568
-0.0610361 -0.0205867 -0.0756693
-0.0566648 0.002755 0.0101265
-0.0177483 0.0241681 0.0888908
0.0344669 -0.0357876 0.159705
0.0832992 -0.025175 0.11238
0.0812676 0.00105515 -0.00471016
0.0299392 0.0266463 -0.118948
-0.03955 0.0360742 -0.161034
-0.0850485 0.0236199 -0.105439
-0.0789574 -0.00316101 0.0141105
-0.0247307 -0.0277556 0.123862
0.023291 -0.0810288 0.107921
0.0562896 -0.0570003 0.0759408
0.0549167 0.00238904 -0.00318289
0.0202315 0.0603317 -0.0803794
-0.0267258 0.0816779 -0.108819
-0.0574719 0.0534794 -0.0712502
-0.0533553 -0.00715703 0.00953515
-0.0167118 -0.0628431 0.0836996
-0.00201283 -0.077119 -0.00932662
-0.0048646 -0.0542499 -0.00656287
-0.00474597 0.00227376 0.000275069
-0.00174843 0.0574207 0.00694646
0.00230968 0.077737 0.00940422
0.00496678 0.0508991 0.00615751
0.00461103 -0.00681168 -0.000824037
0.00144425 -0.0598108 -0.00723341
-0.0260957 -0.0264299 -0.120917
-0.0630681 -0.0185923 -0.0850855
-0.0615298 0.000779255 0.00356618
-0.0226678 0.0196789 0.0900588
0.0299442 0.0266416 0.121922
0.0643927 0.0174439 0.0798301
0.0597804 -0.00233447 -0.0106834
0.0187242 -0.0204981 -0.0937788
-0.0343493 0.0402913 -0.15916
-0.0830134 0.0283414 -0.111994
-0.0809888 -0.00118787 0.004694
-0.0298365 -0.0299978 0.11854
0.0394143 -0.0406115 0.160481
0.0847567 -0.0265908 0.105077
0.0786865 0.00355859 -0.0140621
0.0246463 0.0312485 -0.123439
-0.0217671 0.0825723 -0.100859
-0.0520976 0.0575286 -0.0702694
-0.0508264 -0.00241107 0.00294505
-0.0187246 -0.0608883 0.0743731
0.0247353 -0.0824315 0.100687
0.0531911 -0.0539728 0.0659261
0.0493819 0.007225 -0.00882511
0.0156183 0.0640402 -0.0782231
0 -0.00331971 0
0 -0.00251109 0
0 0.000105242 0
0 0.00265773 0
0 0.00359808 0
0 0.00235588 0
0 -0.000315367 0
0 -0.00257465 0
0.0344669 -0.00130602 0.0436667
0.0832992 -0.000919653 0.0307191
0.0812676 3.85454e-05 -0.00128752
0.0299392 0.000973409 -0.0325147
-0.03955 0.00131781 -0.0440187
-0.0850485 0.000862853 -0.0288218
-0.0789574 -0.00011547 0.00385712
-0.0247307 -0.0010129 0.0338664
0.0480266 0.00149989 0.0608457
0.11607 0.00105515 0.0428044
0.11324 -4.42245e-05 -0.00179406
0.0417178 -0.00111682 -0.0453062
-0.0551093 -0.00151197 -0.0613361
-0.118507 -0.000989983 -0.0401606
-0.11002 0.000132486 0.00537456
-0.0344601 0.00116326 0.0471899
0.032454 0.00339598 0.0411166
0.0784346 0.00238904 0.0289251
0.076522 -0.000100132 -0.00121234
0.0281909 -0.00252867 -0.0306157
-0.0372402 -0.00342335 -0.041448
-0.0800821 -0.00224147 -0.0271385
-0.0743462 0.000299971 0.00363188
-0.0232864 0.00263381 0.0318886
-0.00280471 0.00323212 -0.00355334
-0.00677839 0.00227376 -0.00249974
-0.00661307 -9.52998e-05 0.000104771
-0.00243628 -0.00240667 0.00264583
0.00321834 -0.00325818 0.00358199
0.00692075 -0.00213332 0.00234534
0.00642509 0.000285497 -0.00031387
0.00201244 0.00250672 -0.00275585
-0.0363622 0.0011077 -0.0460679
-0.0878798 0.000779255 -0.0324084
-0.0857364 -3.26607e-05 0.00135832
-0.0315857 -0.000824801 0.0343024
0.0417247 -0.00111663 0.0464393
0.0897257 -0.00073112 0.0304065
0.083299 9.78441e-05 -0.00406923
0.0260906 0.000859091 -0.0357287
-0.0478628 -0.00168864 -0.0606382
-0.115672 -0.00118787 -0.0426576
-0.112851 4.97869e-05 0.0017879
-0.0415747 0.0012573 0.0451509
0.0549203 0.00170214 0.0611257
0.118101 0.0011145 0.0400228
0.109643 -0.00014915 -0.00535614
0.0343425 -0.00130965 -0.0470289
-0.0303305 -0.00346067 -0.0384263
-0.0725935 -0.00241107 -0.0267718
-0.0708222 0.00010105 0.00112203
-0.0260911 0.00255188 0.0283353
0.0344665 0.00345477 0.0383608
0.0741172 0.00226205 0.0251171
0.0688094 -0.000302806 -0.00336227
0.0217628 -0.00268398 -0.0298021
0 -0.0838347 0
0 -0.063414 0
0 0.00265773 0
0 0.0671173 0
0 0.0908644 0
0 0.0594944 0
0 -0.00796414 0
0 -0.0650193 0
0.023291 -0.0329817 -0.0537684
0.0562896 -0.0232245 -0.0378255
0.0549167 0.000973409 0.00158538
0.0202315 0.024582 0.0400363
-0.0267258 0.0332795 0.0542016
-0.0574719 0.0217901 0.0354892
-0.0533553 -0.00291603 -0.00474941
-0.0167118 -0.0255795 -0.0417009
0.032454 0.0378776 -0.0749216
0.0784346 0.0266463 -0.0527066
0.076522 -0.00111682 0.00220908
0.0281909 -0.0282038 0.055787
-0.0372402 -0.0381828 0.0755255
-0.0800821 -0.0250005 0.0494509
-0.0743462 0.00334574 -0.00661787
-0.0232864 0.0293765 -0.0581066
0.0219309 0.0857608 -0.0506284
0.0530021 0.0603317 -0.0356165
0.0517098 -0.00252867 0.00149279
0.0190501 -0.0638582 0.0376982
-0.0251652 -0.0864518 0.0510365
-0.0541154 -0.0566053 0.0334166
-0.0502396 0.00757532 -0.00447204
-0.0157358 0.0665131 -0.0392656
-0.00189529 0.0816227 0.00437535
-0.0045805 0.0574207 0.00307801
-0.0044688 -0.00240667 -0.000129008
-0.00164633 -0.0607766 -0.00325792
0.0021748 -0.0822803 -0.00441062
0.00467671 -0.0538739 -0.0028879
0.00434176 0.00720981 0.000386479
0.00135991 0.0633037 0.00339337
-0.0245718 0.0279733 0.056725
-0.0593846 0.0196789 0.0399054
-0.0579367 -0.000824801 -0.00167254
-0.021344 -0.0208291 -0.0422376
0.0281956 -0.0281988 -0.0571823
0.060632 -0.0184634 -0.0374406
0.0562895 0.00247091 0.00501058
0.0176307 0.0216952 0.043994
-0.0323434 -0.0426443 0.0746661
-0.0781655 -0.0299978 0.0525257
-0.0762595 0.0012573 -0.0022015
-0.0280942 0.0317511 -0.0555957
0.0371125 0.0429851 -0.0752664
0.0798072 0.028145 -0.0492813
0.0740912 -0.00376657 0.00659519
0.023207 -0.0330734 0.0579085
-0.0204959 -0.0873944 0.0473157
-0.0490551 -0.0608883 0.0329652
-0.0478582 0.00255188 -0.0013816
-0.0176311 0.0644441 -0.0348903
0.0232908 0.0872454 -0.047235
0.0500848 0.0571248 -0.0309276
0.046498 -0.00764694 0.00414008
0.0147062 -0.0677801 0.0366964
0 -0.113497 0
0 -0.0858508 0
0 0.00359808 0
0 0.0908644 0
0 0.123014 0
0 0.0805444 0
0 -0.010782 0
0 -0.0880241 0
-0.00201283 -0.0446511 -0.118588
-0.0048646 -0.0314417 -0.0834255
-0.00474597 0.00131781 0.0034966
-0.00174843 0.0332795 0.0883017
0.00230968 0.0450544 0.119544
0.00496678 0.0294997 0.0782725
0.00461103 -0.00394777 -0.010475
0.00144425 -0.0346298 -0.091973
-0.00280471 0.0512792 -0.165242
-0.00677839 0.0360742 -0.116246
-0.00661307 -0.00151197 0.00487221
-0.00243628 -0.0381828 0.12304
0.00321834 -0.0516924 0.166574
0.00692075 -0.0338461 0.109066
0.00642509 0.00452952 -0.014596
0.00201244 0.0397704 -0.128156
-0.00189529 0.116104 -0.111663
-0.0045805 0.0816779 -0.0785535
-0.0044688 -0.00342335 0.00329241
-0.00164633 -0.0864518 0.0831447
0.0021748 -0.11704 0.112563
0.00467671 -0.0766332 0.0737014
0.00434176 0.0102556 -0.00986328
0.00135991 0.0900464 -0.0866019
0.000163793 0.110502 0.00965001
0.000395853 0.077737 0.00678867
0.000386198 -0.00325818 -0.000284532
0.000142276 -0.0822803 -0.00718548
-0.000187948 -0.111392 -0.00972778
-0.000404167 -0.0729352 -0.00636938
-0.000375218 0.00976073 0.000852392
-0.000117524 0.0857015 0.00748422
0.00212352 0.0378707 0.125109
0.00513209 0.0266416 0.0880131
0.00500695 -0.00111663 -0.00368887
0.00184457 -0.0281988 -0.093157
-0.00243669 -0.038176 -0.126118
-0.00523988 -0.0249961 -0.0825766
-0.00486459 0.00334515 0.011051
-0.00152367 0.0293712 0.0970305
0.00279514 -0.0577324 0.164679
0.00675513 -0.0406115 0.115848
0.0065904 0.00170214 -0.00485551
0.00242793 0.0429851 -0.122618
-0.00320731 0.058194 -0.166003
-0.00689701 0.0381031 -0.108692
-0.00640305 -0.00509924 0.014546
-0.00200557 -0.0447753 0.127719
0.00177128 -0.118316 0.104357
0.00423939 -0.0824315 0.0727059
0.00413595 0.00345477 -0.00304716
0.0015237 0.0872454 -0.0769519
-0.00201281 0.118114 -0.104179
-0.00432838 0.0773364 -0.068212
-0.00401841 -0.0103525 0.00913111
-0.00127093 -0.0917617 0.0809354
0 -0.0743131 0
0 -0.0562117 0
0 0.00235588 0
0 0.0594944 0
0 0.0805444 0
0 0.0527373 0
0 -0.00705961 0
0 -0.0576347 0
-0.0260957 -0.0292358 -0.111474
-0.0630681 -0.0205867 -0.0784207
-0.0615298 0.000862853 0.00328685
-0.0226678 0.0217901 0.0830042
0.0299442 0.0294997 0.112372
0.0643927 0.0193153 0.0735768
0.0597804 -0.00258484 -0.00984661
0.0187242 -0.0226742 -0.0864555
-0.0363622 0.0335756 -0.155329
-0.0878798 0.0236199 -0.109272
-0.0857364 -0.000989983 0.00457992
-0.0315857 -0.0250005 0.115659
0.0417247 -0.0338461 0.156581
0.0897257 -0.0221611 0.102523
0.083299 0.00296575 -0.0137204
0.0260906 0.0260401 -0.120468
-0.0245718 0.0760204 -0.104964
-0.0593846 0.0534794 -0.073841
-0.0579367 -0.00224147 0.00309489
-0.021344 -0.0566053 0.0781568
0.0281956 -0.0766332 0.10581
0.060632 -0.0501763 0.0692801
0.0562895 0.00671494 -0.00927157
0.0176307 0.0589588 -0.0814066
0.00212352 0.0723523 0.0090711
0.00513209 0.0508991 0.00638143
0.00500695 -0.00213332 -0.000267463
0.00184457 -0.0538739 -0.00675438
-0.00243669 -0.0729352 -0.00914419
-0.00523988 -0.0477551 -0.00598725
-0.00486459 0.00639096 0.00080126
-0.00152367 0.0561139 0.00703524
0.0275307 0.0247962 0.117604
0.0665359 0.0174439 0.0827329
0.0649135 -0.00073112 -0.00346757
0.0239142 -0.0184634 -0.0875686
-0.0315909 -0.0249961 -0.118551
-0.0679334 -0.0163664 -0.0776232
-0.0630679 0.00219028 0.0103881
-0.0197538 0.0192311 0.0912096
0.0362381 -0.0378009 0.1548
0.0875784 -0.0265908 0.108898
0.0854423 0.0011145 -0.00456421
0.0314773 0.028145 -0.115263
-0.0415816 0.0381031 -0.156044
-0.0894178 0.0249484 -0.102172
-0.0830132 -0.00333877 0.0136733
-0.0260016 -0.0293171 0.120057
0.022964 -0.0774685 0.0980962
0.0549624 -0.0539728 0.0683443
0.0536213 0.00226205 -0.00286436
0.0197542 0.0571248 -0.0723355
-0.0260954 0.0773364 -0.0979289
-0.056116 0.0506368 -0.0641199
-0.0520973 -0.00677843 0.00858333
-0.0164771 -0.0600819 0.07608
0 0.00994783 0
0 0.0075247 0
0 -0.000315366 0
0 -0.00796414 0
0 -0.010782 0
0 -0.0070596 0
0 0.000945025 0
0 0.00771519 0
-0.0343493 0.00391361 -0.0367412
-0.0830134 0.00275498 -0.0258483
-0.0809888 -0.000115469 0.00108338
-0.0298365 -0.00291601 0.0273591
0.0394143 -0.00394774 0.0370391
0.0847567 -0.00258482 0.0242518
0.0786865 0.000345914 -0.00324555
0.0246463 0.00303526 -0.0284952
-0.0478628 -0.00449455 -0.0511957
-0.115672 -0.00316098 -0.0360174
-0.112851 0.000132485 0.00150959
-0.0415746 0.00334571 0.0381226
0.0549203 0.00452948 0.051611
0.118101 0.00296573 0.0337928
0.109643 -0.0003969 -0.00452238
0.0343425 -0.00348582 -0.0397056
-0.0323434 -0.0101764 -0.0345956
-0.0781655 -0.00715698 -0.0243388
-0.0762595 0.000299969 0.00102011
-0.0280942 0.00757526 0.0257614
0.0371125 0.0102555 0.0348762
0.0798072 0.00671489 0.0228356
0.0740912 -0.000898647 -0.003056
0.023207 -0.00789245 -0.0268311
0.00279514 -0.00968535 0.00298978
0.00675513 -0.00681163 0.00210339
0.00659041 0.000285494 -8.81591e-05
0.00242793 0.00720976 -0.00222633
-0.00320731 0.00976065 -0.00301403
-0.00689701 0.0063909 -0.00197347
-0.00640305 -0.000855284 0.000264103
-0.00200557 -0.00751162 0.00231877
0.0362381 -0.00331932 0.0387616
0.0875784 -0.00233445 0.0272697
0.0854423 9.78433e-05 -0.00114295
0.0314773 0.00247089 -0.0288636
-0.0415816 0.00334512 -0.0390759
-0.0894178 0.00219026 -0.0255854
-0.0830132 -0.000293119 0.00342401
-0.0260016 -0.00257435 0.0300621
0.0476996 0.00506017 0.0510211
0.115276 0.00355856 0.0358939
0.112464 -0.000149149 -0.00150442
0.0414321 -0.00376654 -0.0379919
-0.0547319 -0.00509919 -0.051434
-0.117696 -0.00333875 -0.0336769
-0.109266 0.000446822 0.00450687
-0.0342254 0.00392449 0.0395702
0.0302271 0.0103702 0.0323319
0.0723459 0.007225 0.0225259
0.0705807 -0.000302806 -0.000944078
0.0260021 -0.00764694 -0.0238414
-0.0343489 -0.0103525 -0.0322768
-0.0738644 -0.00677843 -0.0211336
-0.0685747 0.000907386 0.00282902
-0.0216885 0.00804279 0.0250755
0 0.0881745 0
0 0.0614317 0
0 -0.00257465 0
0 -0.0650193 0
0 -0.0880241 0
0 -0.0576347 0
0 0.00771519 0
0 0.0683851 0
-0.0217671 0.034689 0.0602784
-0.0520976 0.0241681 0.0419963
-0.0508264 -0.0010129 -0.0017601
-0.0187246 -0.0255795 -0.0444489
0.0247353 -0.0346299 -0.0601756
0.0531911 -0.0226742 -0.0394006
0.0493819 0.00303526 0.00527431
0.0156183 0.0269036 0.0467498
-0.0303305 -0.0398383 0.0839927
-0.0725935 -0.0277556 0.0585183
-0.0708222 0.00116326 -0.00245255
-0.0260911 0.0293765 -0.0619357
0.0344665 0.0397704 -0.0838494
0.0741172 0.0260401 -0.0549013
0.0688094 -0.00348582 0.00734929
0.0217628 -0.0308972 0.0651418
-0.0204959 -0.0902003 0.0567582
-0.0490551 -0.0628431 0.0395438
-0.0478582 0.00263381 -0.00165731
-0.0176311 0.0665131 -0.0418531
0.0232908 0.0900465 -0.0566614
0.0500848 0.0589588 -0.0370996
0.046498 -0.00789245 0.00496629
0.0147062 -0.0699562 0.0440197
0.00177128 -0.085848 -0.00490509
0.00423939 -0.0598108 -0.00341741
0.00413595 0.00250672 0.000143227
0.0015237 0.0633037 0.00361699
-0.00201281 0.0857015 0.00489673
-0.00432837 0.056114 0.00320618
-0.0040184 -0.00751162 -0.000429192
-0.00127093 -0.0665807 -0.00380422
0.022964 -0.0294214 -0.063593
0.0549623 -0.0204981 -0.0443057
0.0536213 0.000859091 0.00185689
0.0197542 0.0216952 0.0468931
-0.0260954 0.0293712 0.0634845
-0.056116 0.0192311 0.0415671
-0.0520973 -0.00257435 -0.00556433
-0.0164771 -0.0228182 -0.0493205
0.0302271 0.0448518 -0.0837062
0.0723459 0.0312485 -0.0583187
0.0705806 -0.00130965 0.00244418
0.0260021 -0.0330734 0.0617244
-0.0343489 -0.0447753 0.0835635
-0.0738644 -0.0293171 0.054714
-0.0685747 0.00392449 -0.00732422
-0.0216885 0.0347855 -0.0649197
0.0191548 0.0919185 -0.0530444
0.0458454 0.0640402 -0.0369564
0.0447268 -0.00268398 0.00154887
0.0164775 -0.0677801 0.0391146
-0.0217668 -0.0917617 0.0529539
-0.0468077 -0.0600819 0.0346721
-0.0434556 0.00804279 -0.00464134
-0.013744 0.0712888 -0.0411394
