# vtk DataFile Version 3.0
Velocity field
ASCII
DATASET STRUCTURED_POINTS
DIMENSIONS 8 8 8
SPACING 0.8 0.8 0.8
ORIGIN 0 0 0
POINT_DATA 512
VECTORS velocity float
0 0.296284 0
0 0.206423 0
0 -0.00865135 0
0 -0.218478 0
0 -0.295779 0
0 -0.193664 0
0 0.0259246 0
0 0.229788 0
0 0.116562 0.302402
0 0.0812095 0.223376
0 -0.00340356 -0.00936189
0 -0.0859521 -0.236421
0 -0.116363 -0.320071
0 -0.07619 -0.20957
0 0.0101991 0.0280538
0 0.0904015 0.234533
0 -0.133865 0.421371
0 -0.0932645 0.311256
0 0.00390879 -0.013045
0 0.098711 -0.329433
0 0.133636 -0.445991
0 0.0874998 -0.292017
0 -0.0117131 0.0390905
0 -0.103821 0.326801
0 -0.303091 0.284742
0 -0.211165 0.210331
0 0.00885012 -0.00881516
0 0.223497 -0.222615
0 0.302574 -0.301379
0 0.198113 -0.197331
0 -0.0265202 0.0264155
0 -0.235067 0.220836
0 -0.288466 -0.0246077
0 -0.200976 -0.018177
0 0.00842308 0.000761815
0 0.212713 0.0192386
0 0.287974 0.0260455
0 0.188554 0.0170535
0 -0.0252406 -0.00228285
0 -0.223725 -0.0190849
0 -0.0988618 -0.319031
0 -0.0688777 -0.23566
0 0.00288672 0.00987668
0 0.0729001 0.249422
0 0.0986932 0.337671
0 0.0646204 0.221094
0 -0.00865032 -0.0295964
0 -0.0766738 -0.247429
0 0.150711 -0.419934
0 0.105001 -0.310194
0 -0.00440069 0.0130005
0 -0.111133 0.328309
0 -0.150454 0.44447
0 -0.0985113 0.291021
0 0.0131871 -0.0389572
0 0.116886 -0.325686
0 0.308864 -0.266111
0 0.215188 -0.185401
0 -0.0090187 0.00777032
0 -0.227755 0.196228
0 -0.308338 0.265657
0 -0.201887 0.173942
0 0.0270254 -0.0232845
0 0.239545 -0.206386
0 0.206423 0
0 0.156142 0
0 -0.00654403 0
0 -0.16526 0
0 -0.223732 0
0 -0.146491 0
0 0.0196098 0
0 0.160095 0
0.0644623 0.0812095 0.298691
0.158232 0.058118 0.21349
0.154384 -0.00243667 -0.00895078
0.0568761 -0.0615318 -0.226029
-0.0751327 -0.0833026 -0.306
-0.161568 -0.0545432 -0.200357
-0.149986 0.00728704 0.0267697
-0.046253 0.0629833 0.231654
0.0898226 -0.0932645 0.4162
0.220483 -0.0666051 0.297481
0.215121 0.00279241 -0.012472
0.0792514 0.0705155 -0.31495
-0.104692 0.0954646 -0.426386
-0.225131 0.0625064 -0.279181
-0.208994 -0.00835212 0.0373013
-0.0644495 -0.0723327 0.32279
0.0606977 -0.211165 0.281247
0.14899 -0.150805 0.201023
0.145369 0.0063226 -0.00842802
0.0535542 0.159661 -0.212829
-0.0707456 0.216151 -0.288131
-0.152131 0.141528 -0.188655
-0.141228 -0.0189107 0.0252063
-0.0435518 -0.163773 0.218126
-0.00524556 -0.200976 -0.0243057
-0.012876 -0.143529 -0.0173726
-0.0125629 0.00601749 0.000728354
-0.00462821 0.151956 0.0183929
0.00611386 0.205722 0.0249004
0.0131474 0.134699 0.0163038
0.012205 -0.0179982 -0.00217836
0.00376379 -0.15587 -0.0188507
-0.068007 -0.0688777 -0.315115
-0.166931 -0.0491901 -0.22523
-0.162874 0.0020623 0.00944292
-0.0600026 0.0520784 0.238455
0.0792645 0.0705042 0.322827
0.17045 0.0461631 0.211375
0.158234 -0.0061683 -0.0282418
0.0487964 -0.0534192 -0.244393
-0.0895163 0.105001 -0.41478
-0.219702 0.0749564 -0.296427
-0.214359 -0.00314255 0.0124278
-0.0789706 -0.0793568 0.313834
0.104321 -0.107434 0.424874
0.224332 -0.0703439 0.278191
0.208254 0.00939969 -0.0371696
0.0642297 0.0814354 -0.321689
-0.0567262 0.215188 -0.262845
-0.135769 0.149923 -0.183126
-0.132456 -0.00628339 0.00767496
-0.0487974 -0.158678 0.19382
0.0644615 -0.214821 0.262397
0.138619 -0.140656 0.171807
0.128692 0.0188288 -0.0229987
0.0407022 0.166892 -0.203854
0 -0.00865135 0
0 -0.00654403 0
0 0.000274266 0
0 0.0069262 0
0 0.00937679 0
0 0.00613955 0
0 -0.000821863 0
0 -0.00670969 0
0.0898226 -0.00340356 0.113798
0.220483 -0.00243667 0.0812955
0.215121 0.000102162 -0.00340836
0.0792514 0.00257983 -0.0860687
-0.104692 0.00349261 -0.116521
-0.225131 0.00228683 -0.0762938
-0.208994 -0.000305508 0.010194
-0.0644495 -0.00263968 0.0882577
0.12516 0.00390879 0.158567
0.307223 0.00279241 0.113278
0.299751 -0.000117073 -0.00474922
0.11043 -0.00295638 -0.119929
-0.145879 -0.0040024 -0.162364
-0.313698 -0.00262062 -0.10631
-0.291216 0.000350151 0.0142044
-0.0898048 0.00303152 0.122979
0.084577 0.00885012 0.107152
0.207607 0.0063226 0.0765474
0.202559 -0.000265078 -0.00320932
0.0746228 -0.00669388 -0.0810431
-0.0985774 -0.00906232 -0.109717
-0.211983 -0.00593356 -0.0718388
-0.196788 0.000792812 0.00959861
-0.0606857 0.00686385 0.0831035
-0.00730923 0.00842308 -0.00926019
-0.0179416 0.00601749 -0.00661535
-0.0175053 -0.000252287 0.000277352
-0.00644902 -0.00637089 0.00700383
0.00851919 -0.00862501 0.00948182
0.0183198 -0.00564727 0.00620833
0.0170067 0.000754553 -0.000829527
0.00524452 0.00653265 -0.00718189
-0.0947618 0.00288672 -0.120055
-0.232604 0.0020623 -0.085765
-0.226952 -8.64628e-05 0.00359579
-0.0836085 -0.00218341 0.0908008
0.110449 -0.0029559 0.122928
0.237507 -0.00193541 0.0804893
0.220487 0.000258599 -0.0107545
0.0679935 0.00223884 -0.0931108
-0.124733 -0.00440069 -0.158027
-0.306134 -0.00314255 -0.112876
-0.298689 0.000131751 0.0047324
-0.110039 0.00332705 0.119504
0.145362 0.00450423 0.161787
0.312587 0.00294917 0.105933
0.290183 -0.00039407 -0.0141542
0.0894985 -0.00341303 -0.12256
-0.079043 -0.0090187 -0.100141
-0.189183 -0.00628339 -0.0697689
-0.184567 0.000263342 0.00292407
-0.0679949 0.00665033 0.0738434
0.0898216 0.00900332 0.0999703
0.193154 0.00589502 0.0654565
0.179321 -0.000789129 -0.00876226
0.056715 -0.00699459 -0.0776659
0 -0.218478 0
0 -0.16526 0
0 0.0069262 0
0 0.174912 0
0 0.236798 0
0 0.155046 0
0 -0.020755 0
0 -0.169444 0
0.0606977 -0.0859521 -0.140123
0.14899 -0.0615318 -0.100101
0.145369 0.00257983 0.00419678
0.0535542 0.0651465 0.105979
-0.0707456 0.0881963 0.143476
-0.152131 0.0577475 0.0939416
-0.141228 -0.00771484 -0.012552
-0.0435518 -0.0666615 -0.108675
0.084577 0.098711 -0.19525
0.207607 0.0705155 -0.139482
0.202559 -0.00295638 0.0058478
0.0746228 -0.0746559 0.147673
-0.0985774 -0.101071 0.199921
-0.211983 -0.0661771 0.1309
-0.196788 0.00884225 -0.0174902
-0.0606857 0.0765569 -0.151429
0.057153 0.223497 -0.13194
0.140291 0.159661 -0.0942545
0.136879 -0.00669388 0.00395166
0.0504267 -0.169035 0.0997896
-0.0666139 -0.228846 0.135097
-0.143248 -0.149838 0.0884557
-0.13298 0.0200206 -0.0118189
-0.0410084 0.173337 -0.102328
-0.00493922 0.212713 0.0114024
-0.012124 0.151956 0.0081456
-0.0118291 -0.00637089 -0.000341507
-0.00435795 -0.160881 -0.00862395
0.00575678 -0.217803 -0.0116751
0.0123795 -0.142609 -0.00764441
0.0114922 0.0190545 0.00102141
0.00354399 0.164973 0.00884332
-0.0640354 0.0729001 0.147829
-0.157184 0.0520784 0.105605
-0.153362 -0.00218341 -0.00442755
-0.0564994 -0.0551365 -0.111807
0.0746351 -0.074644 -0.151365
0.160498 -0.0488741 -0.0991077
0.148993 0.00653031 0.0132423
0.0459467 0.0565388 0.114651
-0.0842886 -0.111133 0.194584
-0.206871 -0.0793568 0.138988
-0.201841 0.00332705 -0.00582708
-0.0743584 0.0840156 -0.14715
0.098228 0.113743 -0.199213
0.211232 0.0744737 -0.130436
0.196091 -0.00995129 0.0174285
0.0604787 -0.0861912 0.150913
-0.0534134 -0.227755 0.123307
-0.12784 -0.158678 0.085909
-0.124721 0.00665033 -0.00360052
-0.0459476 0.167945 -0.090926
0.060697 0.227366 -0.123097
0.130524 0.14887 -0.080599
0.121176 -0.0199283 0.0107893
0.0383252 -0.176639 0.0956329
0 -0.295779 0
0 -0.223732 0
0 0.00937679 0
0 0.236798 0
0 0.32058 0
0 0.209903 0
0 -0.0280984 0
0 -0.229396 0
-0.00524556 -0.116363 -0.309048
-0.012876 -0.0833026 -0.220776
-0.0125629 0.00349261 0.00925616
-0.00462821 0.0881963 0.233737
0.00611386 0.119401 0.316441
0.0131474 0.0781795 0.207194
0.012205 -0.0104445 -0.0276841
0.00376379 -0.0902473 -0.239687
-0.00730923 0.133636 -0.430631
-0.0179416 0.0954646 -0.307631
-0.0175053 -0.0040024 0.0128977
-0.00644902 -0.101071 0.325698
0.00851919 -0.136832 0.440935
0.0183198 -0.0895915 0.288707
0.0170067 0.0119707 -0.0385752
0.00524452 0.103644 -0.333983
-0.00493922 0.302574 -0.290999
-0.012124 0.216151 -0.207884
-0.0118291 -0.00906232 0.00871563
-0.00435794 -0.228846 0.220091
0.00575678 -0.309813 0.297959
0.0123795 -0.202853 0.195093
0.0114922 0.0271041 -0.0260673
0.00354399 0.234666 -0.225689
0.000426852 0.287974 0.0251485
0.00104777 0.205722 0.0179655
0.00102229 -0.00862501 -0.000753204
0.000376613 -0.217803 -0.0190203
-0.00049751 -0.294866 -0.0257502
-0.00106986 -0.193064 -0.0168602
-0.00099317 0.0257963 0.00225276
-0.000306275 0.223343 0.0195043
0.005534 0.0986932 0.326042
0.013584 0.0705042 0.232914
0.0132538 -0.0029559 -0.0097651
0.0048827 -0.074644 -0.246591
-0.00645009 -0.101055 -0.333838
-0.0138704 -0.0661665 -0.218587
-0.0128762 0.00884082 0.0292061
-0.00397076 0.0765431 0.252867
0.0072843 -0.150454 0.429162
0.017878 -0.107434 0.306542
0.0174433 0.00450423 -0.012852
0.00642618 0.113743 -0.324543
-0.008489 0.153986 -0.439373
-0.0182548 0.100824 -0.287684
-0.0169464 -0.0134722 0.0384391
-0.00522663 -0.116687 0.332844
0.00461604 -0.308338 0.271959
0.0110481 -0.214821 0.189476
0.0107785 0.00900332 -0.00794108
0.00397084 0.227366 -0.200541
-0.0052455 0.307812 -0.271495
-0.01128 0.201543 -0.177764
-0.0104722 -0.0269793 0.0237962
-0.0033121 -0.239136 0.210922
0 -0.193664 0
0 -0.146491 0
0 0.00613955 0
0 0.155046 0
0 0.209903 0
0 0.137436 0
0 -0.0183977 0
0 -0.150199 0
-0.068007 -0.07619 -0.290508
-0.166931 -0.0545432 -0.207532
-0.162874 0.00228683 0.00870091
-0.0600026 0.0577474 0.219719
0.0792645 0.0781795 0.297457
0.17045 0.0511889 0.194763
0.158234 -0.00683864 -0.0260233
0.0487964 -0.0590904 -0.225308
-0.0947618 0.0874998 -0.404797
-0.232604 0.0625064 -0.289178
-0.226952 -0.00262062 0.0121238
-0.0836085 -0.0661771 0.306158
0.110449 -0.0895915 0.414483
0.237507 -0.0586606 0.271387
0.220487 0.00783795 -0.0362612
0.0679935 0.0678619 -0.313947
-0.0640354 0.198113 -0.273542
-0.157184 0.141528 -0.195412
-0.153362 -0.00593356 0.00819273
-0.0564994 -0.149838 0.206887
0.0746351 -0.202854 0.280087
0.160498 -0.13282 0.183388
0.148993 0.0177467 -0.0245034
0.0459467 0.15365 -0.21215
0.005534 0.188554 0.0236398
0.013584 0.134699 0.0168877
0.0132538 -0.00564727 -0.000708019
0.0048827 -0.142609 -0.0178794
-0.00645009 -0.193064 -0.0242052
-0.0138704 -0.126411 -0.0158486
-0.0128762 0.0168904 0.00211762
-0.00397076 0.146236 0.0183342
0.0717466 0.0646204 0.306482
0.176111 0.0461631 0.218943
0.171829 -0.00193541 -0.00917937
0.0633022 -0.0488741 -0.231798
-0.0836223 -0.0661665 -0.313814
-0.179823 -0.043323 -0.205474
-0.166934 0.00578858 0.0274542
-0.0514796 0.0501173 0.237697
0.0944386 -0.0985113 0.403417
0.23178 -0.0703439 0.288153
0.226146 0.00294917 -0.0120809
0.0833123 0.0744737 -0.305073
-0.110057 0.100824 -0.413014
-0.236665 0.0660157 -0.270426
-0.219705 -0.00882107 0.0361331
-0.0677616 -0.0764019 0.312876
0.0598455 -0.201887 0.255644
0.143235 -0.140656 0.178109
0.13974 0.00589502 -0.00746469
0.0514807 0.14887 -0.18851
-0.0680062 0.201543 -0.255208
-0.146241 0.131962 -0.1671
-0.135769 -0.017665 0.0223686
-0.0429403 -0.156577 0.198269
0 0.0259246 0
0 0.0196098 0
0 -0.000821863 0
0 -0.020755 0
0 -0.0280984 0
0 -0.0183977 0
0 0.00246279 0
0 0.0201062 0
-0.0895163 0.0101991 -0.0957496
-0.219702 0.0072869 -0.0684244
-0.214359 -0.000305502 0.00286874
-0.0789706 -0.00771469 0.0724432
0.104321 -0.0104443 0.0980738
0.224332 -0.0068385 0.064215
0.208254 0.000913801 -0.00857975
0.0642297 0.00791006 -0.0742601
-0.124733 -0.0117131 -0.133419
-0.306134 -0.00835195 -0.0953433
-0.298689 0.000350144 0.00399735
-0.110039 0.00884206 0.100943
0.145362 0.0119705 0.136658
0.312587 0.00783779 0.0894785
0.290183 -0.00104747 -0.0119551
0.0894985 -0.00908424 -0.103475
-0.0842886 -0.0265202 -0.0901579
-0.206871 -0.0189103 -0.0644285
-0.201841 0.000792795 0.00270122
-0.0743585 0.0200202 0.0682123
0.098228 0.0271036 0.0923464
0.211232 0.0177464 0.060465
0.196091 -0.00237165 -0.00807868
0.0604787 -0.0205682 -0.0699234
0.0072843 -0.0252406 0.00779154
0.017878 -0.0179979 0.00556798
0.0174433 0.000754538 -0.000233441
0.00642618 0.0190541 -0.00589495
-0.008489 0.0257958 -0.00798069
-0.0182548 0.0168901 -0.00522543
-0.0169464 -0.00225723 0.000698172
-0.00522663 -0.0195757 0.00604285
0.0944386 -0.00865032 0.101015
0.23178 -0.00616818 0.0721871
0.226146 0.000258594 -0.00302648
0.0833123 0.00653018 -0.0764264
-0.110057 0.00884064 -0.103467
-0.236665 0.00578847 -0.0677463
-0.219705 -0.000773586 0.00905154
-0.0677616 -0.00670889 0.0783436
0.124308 0.0131871 0.132964
0.30505 0.0093995 0.0950056
0.297631 -0.000394062 -0.00398317
0.109649 -0.00995109 -0.100585
-0.144846 -0.0134719 -0.136174
-0.31148 -0.00882089 -0.089161
-0.289153 0.00117889 0.0119129
-0.0891933 0.0102274 0.103122
0.0787735 0.0270254 0.0842588
0.188537 0.0188288 0.0587037
0.183937 -0.000789129 -0.00246032
0.067763 -0.0199283 -0.0621319
-0.0895152 -0.0269793 -0.0841151
-0.192495 -0.017665 -0.0550752
-0.17871 0.0023647 0.00737257
-0.0565215 0.02096 0.0653482
0 0.229788 0
0 0.160095 0
0 -0.00670969 0
0 -0.169444 0
0 -0.229396 0
0 -0.150199 0
0 0.0201062 0
0 0.178215 0
-0.0567262 0.0904015 0.157089
-0.135769 0.0629833 0.109445
-0.132456 -0.00263968 -0.00458692
-0.0487974 -0.0666615 -0.115836
0.0644615 -0.0902473 -0.156821
0.138619 -0.0590904 -0.10268
0.128692 0.00791006 0.0137451
0.0407022 0.0701123 0.121833
-0.079043 -0.103821 0.21889
-0.189183 -0.0723327 0.152502
-0.184567 0.00303152 -0.00639148
-0.0679949 0.0765569 -0.161408
0.0898216 0.103644 -0.218516
0.193153 0.0678619 -0.143076
0.179321 -0.00908424 0.0191527
0.056715 -0.0805199 0.169763
-0.0534134 -0.235067 0.147915
-0.12784 -0.163773 0.103053
-0.124721 0.00686385 -0.00431905
-0.0459476 0.173337 -0.109072
0.060697 0.234666 -0.147663
0.130524 0.15365 -0.0966836
0.121176 -0.0205682 0.0129424
0.0383252 -0.18231 0.114718
0.00461604 -0.223725 -0.012783
0.0110481 -0.15587 -0.00890597
0.0107785 0.00653265 0.000373256
0.00397084 0.164973 0.00942607
-0.0052455 0.223343 0.0127612
-0.01128 0.146236 0.00835549
-0.0104722 -0.0195757 -0.0011185
-0.0033121 -0.173513 -0.00991402
0.0598455 -0.0766738 -0.165727
0.143235 -0.0534192 -0.115463
0.13974 0.00223884 0.00483915
0.0514807 0.0565388 0.122206
-0.0680062 0.0765431 0.165444
-0.146241 0.0501173 0.108326
-0.135769 -0.00670889 -0.014501
-0.0429403 -0.0594656 -0.128532
0.0787735 0.116886 -0.218143
0.188537 0.0814354 -0.151982
0.183937 -0.00341303 0.00636968
0.067763 -0.0861912 0.160857
-0.0895152 -0.116687 0.217771
-0.192495 -0.076402 0.142588
-0.17871 0.0102274 -0.0190873
-0.0565215 0.090653 -0.169184
0.0499185 0.239545 -0.138237
0.119476 0.166892 -0.0963104
0.11656 -0.00699459 0.00403645
0.0429412 -0.176639 0.101935
-0.0567256 -0.239136 0.138001
-0.121983 -0.156577 0.0903575
-0.113248 0.02096 -0.0120956
-0.0358175 0.185783 -0.107212
