# vtk DataFile Version 3.0
Velocity field
ASCII
DATASET STRUCTURED_POINTS
DIMENSIONS 5 5 5
SPACING 1.33333 1.33333 1.33333
ORIGIN 0 0 0
POINT_DATA 125
VECTORS velocity float
0 0.419116 0
0 0.0985919 0
0 -0.372731 0
0 -0.273953 0
0 0.243843 0
0 -0.221933 0.72788
0 -0.0522069 0.197332
0 0.197371 -0.746023
0 0.145065 -0.548317
0 -0.129121 0.423483
0 -0.52353 0.342449
0 -0.123154 0.0928397
0 0.465589 -0.350985
0 0.342202 -0.25797
0 -0.304592 0.199238
0 -0.0243755 -0.566766
0 -0.00573402 -0.153653
0 0.0216777 0.580893
0 0.0159329 0.426949
0 -0.0141817 -0.329746
0 0.512062 -0.609098
0 0.120456 -0.143283
0 -0.455391 0.541687
0 -0.334706 0.398133
0 0.29792 -0.354376
0 0.0985919 0
0 0.0295112 0
0 -0.111569 0
0 -0.0820015 0
0 0.0573611 0
0.31153 -0.0522069 0.255619
0.480009 -0.0128019 0.0631132
-0.100616 0.0484436 -0.238862
-0.527391 0.0356121 -0.175599
-0.140767 -0.0303741 0.14872
0.146567 -0.123154 0.120262
0.225833 -0.0302993 0.0296933
-0.0473376 0.114663 -0.112379
-0.248124 0.0842926 -0.0826151
-0.0662275 -0.0716514 0.069969
-0.242574 -0.00573402 -0.199038
-0.373663 -0.00141748 -0.0491305
0.0783243 0.00536511 0.18594
0.410547 0.00394421 0.136693
0.109609 -0.00333607 -0.115801
-0.260692 0.120456 -0.213905
-0.383341 0.0283358 -0.0503184
0.0803396 -0.107125 0.190231
0.421139 -0.0787355 0.139817
0.117796 0.0700819 -0.124451
0 -0.372731 0
0 -0.111569 0
0 0.42179 0
0 0.310011 0
0 -0.216856 0
0.146567 0.197371 -0.607618
0.225833 0.0484436 -0.14964
-0.0473376 -0.18332 0.566309
-0.248124 -0.134764 0.416318
-0.0662275 0.114831 -0.353514
0.0689562 0.465589 -0.285869
0.106249 0.114663 -0.0704021
-0.0222711 -0.433937 0.266436
-0.116736 -0.319005 0.195867
-0.0311584 0.270881 -0.16632
-0.114125 0.0216777 0.473123
-0.1758 0.00536511 0.116489
0.0368498 -0.0203075 -0.440845
0.193152 -0.0149294 -0.324083
0.0515683 0.0126122 0.275265
-0.122649 -0.455391 0.508462
-0.180352 -0.107125 0.119609
0.0377978 0.404991 -0.452188
0.198135 0.297663 -0.332353
0.05542 -0.264948 0.295825
0 -0.273953 0
0 -0.0820015 0
0 0.310011 0
0 0.227854 0
0 -0.159387 0
-0.242574 0.145065 -0.541488
-0.373663 0.0356123 -0.133376
0.0783243 -0.134765 0.504758
0.410547 -0.0990701 0.371069
0.109609 0.0843992 -0.315039
-0.114125 0.342202 -0.254756
-0.1758 0.084293 -0.0627499
0.0368498 -0.319006 0.237477
0.193152 -0.234515 0.174579
0.0515683 0.199094 -0.148218
0.188881 0.0159329 0.421631
0.29088 0.00394423 0.103827
-0.0609716 -0.0149294 -0.392929
-0.31959 -0.0109757 -0.288858
-0.0853474 0.00926979 0.245306
0.202989 -0.334706 0.453123
0.29849 -0.0787355 0.106592
-0.0625567 0.297663 -0.402975
-0.327921 0.218779 -0.296181
-0.0917221 -0.194733 0.263629
0 0.243843 0
0 0.0573611 0
0 -0.216856 0
0 -0.159387 0
0 0.141869 0
-0.260692 -0.129121 0.352861
-0.383341 -0.0303741 0.0830062
0.0803396 0.114831 -0.313809
0.421139 0.0843992 -0.230645
0.117796 -0.0751231 0.205296
-0.122649 -0.304592 0.166012
-0.180352 -0.0716514 0.0390523
0.0377978 0.270881 -0.147639
0.198135 0.199094 -0.108513
0.05542 -0.177213 0.0965866
0.202989 -0.0141817 -0.274756
0.29849 -0.00333607 -0.064633
-0.0625566 0.0126122 0.244348
-0.327921 0.00926979 0.179593
-0.0917221 -0.00825098 -0.159854
0.21815 0.29792 -0.295278
0.320784 0.0700819 -0.0694605
-0.0672291 -0.264948 0.262599
-0.352414 -0.194733 0.193007
-0.098573 0.173331 -0.171794
