# vtk DataFile Version 3.0
Velocity field
ASCII
DATASET STRUCTURED_POINTS
DIMENSIONS 5 5 5
SPACING 1.33333 1.33333 1.33333
ORIGIN 0 0 0
POINT_DATA 125
VECTORS velocity float
0 0.0212164 0
0 0.00499089 0
0 -0.0188683 0
0 -0.013868 0
0 0.0123438 0
0 -0.0112346 0.0368465
0 -0.0026428 0.00998927
0 0.00999123 -0.0377649
0 0.00734343 -0.0277567
0 -0.00653633 0.0214374
0 -0.026502 0.0173354
0 -0.00623426 0.00469971
0 0.0235689 -0.0177675
0 0.0173229 -0.0130589
0 -0.0154189 0.0100858
0 -0.00123393 -0.0286906
0 -0.000290266 -0.00777818
0 0.00109736 0.0294058
0 0.000806548 0.0216129
0 -0.000717903 -0.0166923
0 0.0259215 -0.0308336
0 0.0060977 -0.00725322
0 -0.0230526 0.0274211
0 -0.0169434 0.0201542
0 0.0150812 -0.0179391
0 0.00499089 0
0 0.00149391 0
0 -0.00564778 0
0 -0.00415105 0
0 0.00290371 0
0.0157702 -0.0026428 0.0129398
0.0232449 -0.00062304 0.0030517
-0.00487161 0.00235544 -0.0115371
-0.0255369 0.00173121 -0.00847964
-0.00712588 -0.00153759 0.00752845
0.00741947 -0.00623426 0.00608788
0.0109361 -0.00147002 0.00143575
-0.00229197 0.0055575 -0.00542793
-0.0120145 0.00408469 -0.00398946
-0.00335255 -0.00362711 0.00354195
-0.0122795 -0.000290266 -0.0100757
-0.0180997 -6.84448e-05 -0.00237621
0.00379329 0.000258759 0.00898341
0.0198844 0.000190185 0.00660269
0.00554859 -0.000168878 -0.00586205
-0.0131967 0.0060977 -0.0108282
-0.0194054 0.00143441 -0.0025472
0.00406693 -0.00542285 0.00962982
0.0213188 -0.00398572 0.0070778
0.00596302 0.00354766 -0.0062999
0 -0.0188683 0
0 -0.00564779 0
0 0.0213517 0
0 0.0156932 0
0 -0.0109776 0
0.00741947 0.00999123 -0.0307586
0.0109361 0.00235544 -0.00725281
-0.00229197 -0.00890486 0.0274197
-0.0120145 -0.00654496 0.0201531
-0.00335255 0.00581292 -0.0178955
0.00349068 0.0235689 -0.0144712
0.00514518 0.0055575 -0.00341227
-0.00107831 -0.0210104 0.0129003
-0.00565251 -0.0154424 0.00948154
-0.00157729 0.0137125 -0.00841938
-0.0057772 0.00109736 0.0239503
-0.00851546 0.000258759 0.00564742
0.00178465 -0.000978254 -0.0213504
0.0093551 -0.000719004 -0.0156923
0.00261047 0.000638449 0.0139344
-0.0062087 -0.0230526 0.0257392
-0.00912974 -0.00542285 0.00605482
0.00191339 0.0205013 -0.0228905
0.0100299 0.0150682 -0.0168243
0.00280545 -0.0134121 0.0149752
0 -0.013868 0
0 -0.00415105 0
0 0.0156932 0
0 0.0115343 0
0 -0.00806841 0
-0.0122795 0.00734343 -0.027411
-0.0180997 0.00173121 -0.00646346
0.00379329 -0.00654496 0.0244355
0.0198844 -0.00481046 0.0179598
0.00554859 0.00427242 -0.0159478
-0.0057772 0.0173229 -0.0128962
-0.00851546 0.00408469 -0.00304089
0.00178465 -0.0154424 0.0114963
0.0093551 -0.01135 0.00844962
0.00261047 0.0100785 -0.00750306
0.00956147 0.000806548 0.0213437
0.0140934 0.000190185 0.00503279
-0.00295366 -0.000719004 -0.0190267
-0.015483 -0.000528459 -0.0139844
-0.00432043 0.000469252 0.0124178
0.0102756 -0.0169434 0.0229379
0.0151101 -0.00398572 0.00539585
-0.00316672 0.0150682 -0.0203993
-0.0165999 0.0110749 -0.0149932
-0.00464313 -0.00985773 0.0133453
0 0.0123438 0
0 0.00290371 0
0 -0.0109776 0
0 -0.00806842 0
0 0.00718164 0
-0.0131967 -0.00653633 0.0178624
-0.0194053 -0.00153759 0.00420191
0.00406692 0.00581293 -0.0158855
0.0213187 0.00427243 -0.0116757
0.00596302 -0.00380286 0.0103924
-0.0062087 -0.0154189 0.00840382
-0.00912973 -0.00362711 0.00197689
0.00191338 0.0137125 -0.00747374
0.0100299 0.0100785 -0.0054931
0.00280545 -0.00897079 0.00488937
0.0102756 -0.000717903 -0.0139086
0.01511 -0.000168878 -0.00327183
-0.00316672 0.00063845 0.0123693
-0.0165999 0.000469252 0.00909129
-0.00464313 -0.000417678 -0.00809209
0.0110431 0.0150812 -0.0149475
0.0162386 0.00354766 -0.00351621
-0.00340325 -0.0134121 0.0132932
-0.0178398 -0.00985773 0.00977033
-0.00498993 0.00877429 -0.0086965
