# vtk DataFile Version 3.0
Velocity field
ASCII
DATASET STRUCTURED_POINTS
DIMENSIONS 5 5 5
SPACING 1.33333 1.33333 1.33333
ORIGIN 0 0 0
POINT_DATA 125
VECTORS velocity float
0 0.556874 0
0 0.130998 0
0 -0.495243 0
0 -0.363997 0
0 0.323991 0
0 -0.294879 0.967123
0 -0.0693665 0.262192
0 0.262243 -0.99123
0 0.192746 -0.728541
0 -0.171561 0.562676
0 -0.695607 0.455007
0 -0.163633 0.123355
0 0.618622 -0.466349
0 0.454679 -0.34276
0 -0.404707 0.264725
0 -0.0323873 -0.753054
0 -0.00761871 -0.204157
0 0.0288029 0.771824
0 0.0211698 0.567281
0 -0.0188431 -0.438129
0 0.68037 -0.8093
0 0.160048 -0.190378
0 -0.605071 0.719732
0 -0.444719 0.528994
0 0.395842 -0.470854
0 0.130998 0
0 0.0392112 0
0 -0.14824 0
0 -0.108954 0
0 0.0762149 0
0.413925 -0.0693665 0.339637
0.649989 -0.0172874 0.0854434
-0.136268 0.0654752 -0.323704
-0.714214 0.0481412 -0.238019
-0.187036 -0.0403577 0.197602
0.194742 -0.163633 0.159791
0.305805 -0.0409563 0.0401992
-0.064111 0.155137 -0.152295
-0.336021 0.114068 -0.111983
-0.0879956 -0.0952022 0.0929668
-0.322304 -0.00761871 -0.264459
-0.505858 -0.00192431 -0.0664972
0.106051 0.00729215 0.251919
0.555842 0.00536221 0.185236
0.145636 -0.00443259 -0.153863
-0.346378 0.160048 -0.284212
-0.50934 0.0376494 -0.0668574
0.106746 -0.142335 0.252757
0.559561 -0.104615 0.185773
0.156514 0.0931168 -0.165356
0 -0.495243 0
0 -0.14824 0
0 0.560427 0
0 0.411907 0
0 -0.288134 0
0.194742 0.262243 -0.807333
0.305805 0.0654752 -0.202461
-0.064111 -0.248004 0.76697
-0.336021 -0.182351 0.563946
-0.0879956 0.152574 -0.469709
0.091621 0.618622 -0.37983
0.143874 0.155137 -0.0952535
-0.0301627 -0.587692 0.360842
-0.158091 -0.432125 0.265323
-0.0413997 0.359916 -0.220986
-0.151636 0.0288029 0.628632
-0.237995 0.00729215 0.15757
0.0498946 -0.0276369 -0.596899
0.261511 -0.020323 -0.438892
0.068518 0.0167576 0.36574
-0.162962 -0.605071 0.675586
-0.239632 -0.142335 0.158923
0.0502214 0.538106 -0.600816
0.26326 0.395501 -0.441592
0.0736358 -0.352032 0.393058
0 -0.363997 0
0 -0.108954 0
0 0.411907 0
0 0.302746 0
0 -0.211775 0
-0.322304 0.192746 -0.719467
-0.505858 0.0481415 -0.180481
0.106051 -0.182352 0.683714
0.555842 -0.134079 0.50273
0.145636 0.11214 -0.418588
-0.151636 0.454679 -0.338491
-0.237995 0.114069 -0.0849126
0.0498946 -0.432129 0.321673
0.261511 -0.317741 0.236523
0.068518 0.264534 -0.196935
0.250963 0.0211698 0.560215
0.393691 0.00536225 0.140464
-0.0825348 -0.0203231 -0.532104
-0.432589 -0.0149448 -0.39125
-0.1134 0.0123166 0.325935
0.269708 -0.444719 0.602059
0.396599 -0.104615 0.141627
-0.0831182 0.395501 -0.535427
-0.435704 0.290688 -0.393532
-0.12187 -0.258739 0.35028
0 0.323991 0
0 0.0762149 0
0 -0.288134 0
0 -0.211775 0
0 0.188499 0
-0.346378 -0.171561 0.468841
-0.50934 -0.0403577 0.110289
0.106746 0.152574 -0.416953
0.559561 0.11214 -0.306455
0.156514 -0.0998151 0.272774
-0.162962 -0.404707 0.220578
-0.239632 -0.0952022 0.0518883
0.0502214 0.359916 -0.196166
0.263259 0.264534 -0.14418
0.0736358 -0.23546 0.128333
0.269708 -0.0188431 -0.365065
0.396599 -0.00443259 -0.0858769
-0.0831181 0.0167576 0.324662
-0.435704 0.0123166 0.238622
-0.12187 -0.010963 -0.212396
0.289853 0.395842 -0.392332
0.426222 0.0931168 -0.0922912
-0.0893264 -0.352032 0.348911
-0.468247 -0.258739 0.256445
-0.130972 0.230302 -0.22826
