# vtk DataFile Version 3.0
Velocity field
ASCII
DATASET STRUCTURED_POINTS
DIMENSIONS 5 5 5
SPACING 1.33333 1.33333 1.33333
ORIGIN 0 0 0
POINT_DATA 125
VECTORS velocity float
0 0.0165024 0
0 0.00388199 0
0 -0.014676 0
0 -0.0107867 0
0 0.00960117 0
0 -0.00873844 0.0286598
0 -0.00205561 0.00776981
0 0.00777133 -0.0293741
0 0.00571183 -0.0215896
0 -0.00508406 0.0166744
0 -0.0206136 0.0134837
0 -0.0048491 0.0036555
0 0.0183323 -0.0138198
0 0.013474 -0.0101574
0 -0.0119931 0.00784487
0 -0.000959767 -0.022316
0 -0.000225773 -0.00604999
0 0.000853546 0.0228723
0 0.000627346 0.0168108
0 -0.000558396 -0.0129835
0 0.0201621 -0.0239828
0 0.00474288 -0.00564166
0 -0.0179307 0.0213286
0 -0.0131788 0.0156762
0 0.0117304 -0.0139533
0 0.00388199 0
0 0.00116198 0
0 -0.00439293 0
0 -0.00322874 0
0 0.00225855 0
0.0122663 -0.00205561 0.0100648
0.018071 -0.000484384 0.00237237
-0.00378728 0.00183124 -0.00896886
-0.0198529 0.00134594 -0.006592
-0.00554262 -0.00119596 0.00585574
0.00577098 -0.0048491 0.00473524
0.00850197 -0.00114282 0.00111614
-0.00178182 0.00432051 -0.00421962
-0.00934027 0.00317552 -0.00310137
-0.00260766 -0.00282122 0.00275498
-0.00955117 -0.000225773 -0.00783699
-0.0140711 -5.32101e-05 -0.00184725
0.00294898 0.000201164 0.00698363
0.0154585 0.000147853 0.00513288
0.00431578 -0.000131355 -0.00455959
-0.0102646 0.00474288 -0.00842235
-0.0150938 0.0011157 -0.00198125
0.00316332 -0.00421797 0.00749022
0.0165821 -0.00310015 0.00550522
0.00463813 0.00275943 -0.00490016
0 -0.014676 0
0 -0.00439293 0
0 0.0166077 0
0 0.0122064 0
0 -0.00853856 0
0.00577098 0.00777133 -0.0239245
0.00850197 0.00183124 -0.00563848
-0.00178182 -0.0069231 0.0213166
-0.00934027 -0.00508839 0.0156674
-0.00260766 0.00452138 -0.0139194
0.0027151 0.0183323 -0.0112559
0.00399997 0.00432051 -0.00265276
-0.000838302 -0.0163339 0.0100289
-0.00439437 -0.0120052 0.00737113
-0.00122684 0.0106658 -0.00654872
-0.00449359 0.000853546 0.0186289
-0.00662009 0.000201164 0.00439042
0.00138742 -0.00076051 -0.0165982
0.00727283 -0.000558965 -0.0121995
0.00203047 0.000496595 0.0108384
-0.00482922 -0.0179307 0.0200203
-0.00710125 -0.00421797 0.00470953
0.00148826 0.0159462 -0.0178046
0.00780144 0.0117203 -0.0130862
0.00218212 -0.0104321 0.0116479
0 -0.0107867 0
0 -0.00322875 0
0 0.0122064 0
0 0.00897158 0
0 -0.00627573 0
-0.00955117 0.00571183 -0.0213207
-0.0140711 0.00134594 -0.00502482
0.00294898 -0.00508839 0.0189966
0.0154585 -0.0037399 0.0139622
0.00431578 0.00332315 -0.0124045
-0.00449359 0.013474 -0.0100309
-0.00662009 0.00317552 -0.00236405
0.00138742 -0.0120052 0.00893742
0.00727283 -0.00882368 0.00656889
0.00203047 0.00783919 -0.00583599
0.00743705 0.000627346 0.0166014
0.0109565 0.000147853 0.00391259
-0.00229623 -0.000558965 -0.0147917
-0.0120368 -0.000410832 -0.0108717
-0.00336049 0.000364991 0.00965877
0.00799254 -0.0131788 0.0178414
0.0117528 -0.00310015 0.00419697
-0.00246313 0.0117203 -0.0158668
-0.0129117 0.00861426 -0.0116619
-0.00361149 -0.00766749 0.0103802
0 0.00960117 0
0 0.00225855 0
0 -0.00853856 0
0 -0.00627573 0
0 0.00558599 0
-0.0102646 -0.00508406 0.0138937
-0.0150938 -0.00119596 0.00326831
0.00316331 0.00452138 -0.012356
0.016582 0.00332316 -0.0090815
0.00463813 -0.00295792 0.00808338
-0.00482922 -0.0119931 0.00653662
-0.00710124 -0.00282122 0.00153766
0.00148826 0.0106658 -0.00581319
0.00780143 0.0078392 -0.00427262
0.00218212 -0.00697762 0.00380303
0.00799254 -0.000558396 -0.0108183
0.0117528 -0.000131356 -0.00254488
-0.00246312 0.000496596 0.00962104
-0.0129116 0.000364992 0.00707134
-0.00361149 -0.000324876 -0.00629415
0.00858951 0.0117304 -0.0116264
0.0126307 0.00275943 -0.00273496
-0.0026471 -0.0104321 0.0103397
-0.0138761 -0.00766749 0.00759951
-0.00388124 0.00682478 -0.00676427
