# vtk DataFile Version 3.0
Velocity field
ASCII
DATASET STRUCTURED_POINTS
DIMENSIONS 8 8 8
SPACING 0.8 0.8 0.8
ORIGIN 0 0 0
POINT_DATA 512
VECTORS velocity float
0 0.33307 0
0 0.232052 0
0 -0.00972548 0
0 -0.245603 0
0 -0.332502 0
0 -0.217709 0
0 0.0291433 0
0 0.258317 0
0 0.131034 0.339947
0 0.0912923 0.25111
0 -0.00382613 -0.0105242
0 -0.0966237 -0.265775
0 -0.130811 -0.35981
0 -0.0856496 -0.235589
0 0.0114654 0.0315369
0 0.101626 0.263651
0 -0.150485 0.473687
0 -0.104844 0.3499
0 0.00439409 -0.0146646
0 0.110967 -0.370334
0 0.150228 -0.501364
0 0.0983636 -0.328273
0 -0.0131673 0.0439439
0 -0.116711 0.367376
0 -0.340722 0.320095
0 -0.237383 0.236446
0 0.00994892 -0.00990963
0 0.251246 -0.250254
0 0.340141 -0.338797
0 0.222711 -0.221831
0 -0.0298129 0.0296951
0 -0.264252 0.248254
0 -0.324281 -0.0276629
0 -0.225929 -0.0204339
0 0.00946887 0.0008564
0 0.239123 0.0216272
0 0.323728 0.0292792
0 0.211964 0.0191709
0 -0.0283744 -0.00256628
0 -0.251502 -0.0214544
0 -0.111136 -0.35864
0 -0.0774293 -0.264918
0 0.00324513 0.0111029
0 0.0819511 0.280389
0 0.110947 0.379596
0 0.0726435 0.248544
0 -0.00972432 -0.033271
0 -0.0861934 -0.278149
0 0.169423 -0.472072
0 0.118038 -0.348707
0 -0.00494707 0.0146146
0 -0.124931 0.369071
0 -0.169134 0.499654
0 -0.110742 0.327154
0 0.0148244 -0.043794
0 0.131399 -0.366123
0 0.347212 -0.29915
0 0.241905 -0.20842
0 -0.0101384 0.00873506
0 -0.256032 0.220592
0 -0.34662 0.29864
0 -0.226953 0.195538
0 0.0303808 -0.0261754
0 0.269286 -0.232011
0 0.232052 0
0 0.175528 0
0 -0.00735652 0
0 -0.185779 0
0 -0.25151 0
0 -0.164679 0
0 0.0220445 0
0 0.179971 0
0.0724657 0.0912923 0.335775
0.178452 0.065547 0.240764
0.174117 -0.00274843 -0.0100953
0.0641454 -0.0694031 -0.254927
-0.0847356 -0.0939591 -0.345123
-0.182218 -0.0615206 -0.225972
-0.169153 0.00821499 0.0301768
-0.0519956 0.0708032 0.260416
0.100975 -0.104844 0.467874
0.248657 -0.0751054 0.335486
0.242616 0.00314909 -0.0140669
0.0893808 0.0795214 -0.355217
-0.118073 0.107657 -0.4809
-0.253905 0.0704893 -0.314874
-0.235702 -0.00941417 0.0420488
-0.0724514 -0.0813133 0.362867
0.0682338 -0.237383 0.316166
0.168029 -0.170052 0.226705
0.163949 0.00713025 -0.00950574
0.060399 0.180052 -0.240039
-0.0797875 0.243757 -0.324969
-0.171576 0.159603 -0.212775
-0.159276 -0.0213155 0.0284145
-0.0489591 -0.184106 0.245208
-0.00589683 -0.225929 -0.0273234
-0.0145213 -0.161848 -0.019592
-0.0141685 0.00678616 0.00082149
-0.00521974 0.171364 0.0207445
0.00689527 0.231997 0.0280839
0.0148278 0.151902 0.0183882
0.0137646 -0.020287 -0.00245561
0.00423109 -0.175223 -0.0211911
-0.0764505 -0.0774293 -0.354239
-0.188262 -0.0554682 -0.254004
-0.183692 0.00232574 0.0106504
-0.0676714 0.0587298 0.268941
0.0893955 0.0795091 0.364101
0.192235 0.052059 0.238399
0.178455 -0.0069527 -0.0318363
0.0548548 -0.0600515 -0.274736
-0.10063 0.118038 -0.466278
-0.247767 0.0845135 -0.334286
-0.241748 -0.00354356 0.0140165
-0.0890608 -0.0894817 0.353945
0.11765 -0.121141 0.479177
0.252994 -0.0793192 0.313746
0.234858 0.010594 -0.041899
0.0722043 0.0915462 -0.361629
-0.0637692 0.241905 -0.295479
-0.152626 0.168537 -0.205862
-0.148902 -0.00706352 0.00862786
-0.0548559 -0.178379 0.217885
0.0724649 -0.241493 0.294975
0.15583 -0.15812 0.193138
0.14467 0.0211665 -0.0258542
0.0457557 0.187613 -0.229164
0 -0.00972548 0
0 -0.00735652 0
0 0.000308318 0
0 0.00778614 0
0 0.010541 0
0 0.00690182 0
0 -0.000923903 0
0 -0.00754275 0
0.100975 -0.00382613 0.127927
0.248657 -0.00274843 0.0916787
0.242616 0.000115245 -0.00384407
0.0893808 0.00291017 -0.0970691
-0.118073 0.00393982 -0.131414
-0.253905 0.00257965 -0.0860453
-0.235702 -0.000344442 0.0114911
-0.0724514 -0.00296742 0.0992155
0.140699 0.00439409 0.178255
0.346481 0.00314909 0.127746
0.338063 -0.00013204 -0.00535635
0.124545 -0.00333428 -0.135257
-0.164524 -0.00451402 -0.183116
-0.353793 -0.00295561 -0.119897
-0.32843 0.000394708 0.0160118
-0.100955 0.00340791 0.138248
0.0950779 0.00994892 0.120456
0.234135 0.00713025 0.0863241
0.228447 -0.00029897 -0.00361958
0.0841605 -0.00754958 -0.0914017
-0.111176 -0.0102208 -0.123741
-0.239077 -0.00669206 -0.0810208
-0.221935 0.000893704 0.01082
-0.0682203 0.00771604 0.0934214
-0.00821672 0.00946887 -0.0104099
-0.0202342 0.00678616 -0.00746026
-0.0197427 -0.000284543 0.000312808
-0.00727327 -0.0071853 0.00789901
0.00960802 -0.00972757 0.0106937
0.0206613 -0.00636917 0.00700184
0.01918 0.000850575 -0.000935077
0.00589566 0.00734373 -0.00807357
-0.106527 0.00324513 -0.134961
-0.262326 0.00232574 -0.0967187
-0.255958 -9.75175e-05 0.00405545
-0.0942946 -0.00246253 0.102406
0.124565 -0.00333377 0.13864
0.267862 -0.00218282 0.0907772
0.248663 0.000291508 -0.0121228
0.0764354 0.00251681 -0.104671
-0.14022 -0.00494707 -0.177647
-0.345241 -0.00354356 -0.127288
-0.336853 0.000148579 0.00533719
-0.124099 0.00375191 0.134773
0.163935 0.00507941 0.18246
0.352527 0.00332578 0.119468
0.327254 -0.000444176 -0.0159547
0.10061 -0.00383678 -0.137777
-0.0888568 -0.0101384 -0.112574
-0.212671 -0.00706352 -0.0784312
-0.207482 0.000296038 0.00328712
-0.076437 0.00747602 0.0830115
0.100974 0.0101211 0.112382
0.217135 0.00662692 0.0735834
0.201585 -0.000887105 -0.00985015
0.0637565 -0.00786302 -0.0873087
0 -0.245603 0
0 -0.185779 0
0 0.00778614 0
0 0.196628 0
0 0.266198 0
0 0.174296 0
0 -0.0233319 0
0 -0.190482 0
0.0682338 -0.0966237 -0.157521
0.168029 -0.0694031 -0.112886
0.163949 0.00291017 0.00473326
0.060399 0.0734865 0.119525
-0.0797875 0.0994872 0.161814
-0.171576 0.0651404 0.105948
-0.159276 -0.00869787 -0.0141491
-0.0489591 -0.074938 -0.122168
0.0950779 0.110967 -0.219492
0.234135 0.0795214 -0.157296
0.228447 -0.00333428 0.00659533
0.0841605 -0.0841975 0.166547
-0.111176 -0.113988 0.225472
-0.239077 -0.0746349 0.14763
-0.221935 0.00996729 -0.0197156
-0.0682203 0.086062 -0.17023
0.064249 0.251246 -0.148322
0.158217 0.180052 -0.106292
0.154374 -0.00754958 0.00445681
0.0568717 -0.190639 0.112544
-0.0751277 -0.258094 0.152364
-0.161557 -0.168989 0.099761
-0.149973 0.022568 -0.0133228
-0.0460999 0.194858 -0.115033
-0.00555246 0.239123 0.0128181
-0.0136732 0.171364 0.00918593
-0.013341 -0.0071853 -0.000385162
-0.00491493 -0.181443 -0.00972617
0.00649254 -0.24564 -0.0131673
0.0139618 -0.160836 -0.00862144
0.0129607 0.021479 0.00115137
0.003984 0.185456 0.00994128
-0.0719859 0.0819511 0.166183
-0.177269 0.0587298 0.119093
-0.172963 -0.00246253 -0.00499354
-0.0637205 -0.0621837 -0.126097
0.0841743 -0.0841846 -0.170711
0.181011 -0.0551208 -0.111775
0.168032 0.00736123 0.0149272
0.0516513 0.0635585 0.128886
-0.0947536 -0.124931 0.218743
-0.233298 -0.0894817 0.156734
-0.22763 0.00375191 -0.00657172
-0.0838593 0.0947424 -0.165951
0.110778 0.128265 -0.224666
0.238221 0.0839824 -0.147102
0.221141 -0.0112164 0.0196455
0.0679876 -0.0968924 0.16965
-0.0600451 -0.256032 0.138617
-0.143713 -0.178379 0.0965753
-0.140206 0.00747602 -0.00404755
-0.0516524 0.188796 -0.102215
0.068233 0.255595 -0.13838
0.146729 0.167354 -0.090606
0.136221 -0.0224026 0.0121289
0.0430836 -0.19857 0.107506
0 -0.332502 0
0 -0.25151 0
0 0.010541 0
0 0.266198 0
0 0.360383 0
0 0.235964 0
0 -0.0315871 0
0 -0.257877 0
-0.00589683 -0.130811 -0.347418
-0.0145213 -0.0939591 -0.248973
-0.0141685 0.00393982 0.0104394
-0.00521975 0.0994872 0.263611
0.00689527 0.134687 0.356886
0.0148278 0.0881884 0.233675
0.0137646 -0.0117753 -0.0312066
0.00423109 -0.101452 -0.269446
-0.00821672 0.150228 -0.484097
-0.0202342 0.107657 -0.346921
-0.0197427 -0.00451402 0.0145464
-0.00727327 -0.113988 0.367327
0.00960802 -0.154319 0.497291
0.0206613 -0.101042 0.325607
0.01918 0.0134938 -0.0434835
0.00589566 0.116512 -0.375449
-0.00555246 0.340141 -0.327129
-0.0136732 0.243757 -0.234434
-0.013341 -0.0102208 0.00982977
-0.00491493 -0.258094 0.248221
0.00649254 -0.349411 0.336042
0.0139618 -0.22878 0.220027
0.0129607 0.0305528 -0.0293841
0.003984 0.263802 -0.25371
0.000479849 0.323728 0.0282708
0.00118166 0.231997 0.02026
0.00115295 -0.00972757 -0.000849487
0.000424748 -0.24564 -0.0214514
-0.000561097 -0.332553 -0.0290413
-0.0012066 -0.21774 -0.0190151
-0.00112009 0.0290786 0.0025394
-0.000344301 0.251073 0.0219259
0.00622109 0.110947 0.366522
0.0153198 0.0795091 0.262661
0.0149477 -0.00333377 -0.0110134
0.00550676 -0.0841846 -0.278107
-0.00727447 -0.113971 -0.376507
-0.0156432 -0.0746234 -0.246525
-0.0145216 0.00996573 0.0329222
-0.00446376 0.0860464 0.284262
0.0081887 -0.169134 0.482446
0.0201618 -0.121141 0.34568
0.019672 0.00507941 -0.0144944
0.00724724 0.128265 -0.366009
-0.00957363 0.173647 -0.495512
-0.0205872 0.113697 -0.324441
-0.0191113 -0.0151849 0.0433288
-0.00587556 -0.131174 0.374169
0.00518916 -0.34662 0.305725
0.0124198 -0.241493 0.213
0.0121168 0.0101211 -0.00892702
0.00446385 0.255595 -0.22544
-0.00589676 0.346029 -0.305203
-0.0126805 0.226566 -0.199835
-0.0117724 -0.030329 0.0267507
-0.00372332 -0.268827 0.23711
0 -0.217709 0
0 -0.164679 0
0 0.00690182 0
0 0.174296 0
0 0.235964 0
0 0.1545 0
0 -0.020682 0
0 -0.168847 0
-0.0764505 -0.0856496 -0.326576
-0.188262 -0.0615206 -0.234038
-0.183692 0.00257965 0.00981317
-0.0676714 0.0651404 0.247801
0.0893955 0.0881884 0.335475
0.192235 0.0577423 0.219656
0.178455 -0.00771003 -0.0293345
0.0548548 -0.0664269 -0.253281
-0.106527 0.0983636 -0.455056
-0.262326 0.0704893 -0.326112
-0.255958 -0.00295561 0.0136736
-0.0942946 -0.0746349 0.345288
0.124565 -0.101042 0.467458
0.267862 -0.0661577 0.306073
0.248663 0.00883523 -0.040875
0.0764354 0.0762874 -0.352926
-0.0719859 0.222711 -0.307505
-0.177269 0.159603 -0.220369
-0.172963 -0.00669206 0.00924003
-0.0637205 -0.168989 0.23333
0.0841743 -0.22878 0.315885
0.181011 -0.149796 0.206827
0.168032 0.0200048 -0.0276212
0.0516513 0.172727 -0.23849
0.00622109 0.211964 0.0265748
0.0153198 0.151902 0.0190446
0.0149477 -0.00636917 -0.000798526
0.00550676 -0.160836 -0.0201646
-0.00727447 -0.21774 -0.0272989
-0.0156432 -0.142567 -0.0178743
-0.0145216 0.0190395 0.00238706
-0.00446376 0.164392 0.0206105
0.0806544 0.0726435 0.344534
0.198614 0.052059 0.246906
0.193789 -0.00218282 -0.0103528
0.0713927 -0.0551208 -0.261425
-0.0943101 -0.0746234 -0.353923
-0.202806 -0.0488602 -0.231736
-0.188266 0.00652513 0.0309475
-0.0578712 0.0563398 0.267209
0.106164 -0.110742 0.453504
0.261387 -0.0793192 0.324944
0.25504 0.00332578 -0.0136247
0.0939571 0.0839824 -0.344053
-0.124119 0.113697 -0.465785
-0.266903 0.0744446 -0.304978
-0.247773 -0.0099425 0.0407294
-0.0761747 -0.0858878 0.351722
0.0672757 -0.226953 0.287384
0.161019 -0.15812 0.200222
0.15709 0.00662692 -0.00839149
0.0578724 0.167354 -0.211915
-0.0764497 0.226566 -0.286894
-0.164398 0.148346 -0.187847
-0.152625 -0.0198582 0.0251459
-0.0482717 -0.176017 0.222885
0 0.0291433 0
0 0.0220445 0
0 -0.000923903 0
0 -0.0233319 0
0 -0.0315871 0
0 -0.0206819 0
0 0.00276856 0
0 0.0226026 0
-0.10063 0.0114654 -0.107638
-0.247767 0.00821481 -0.0771704
-0.241748 -0.000344435 0.00323577
-0.0890608 -0.00869768 0.0817098
0.11765 -0.0117751 0.110619
0.252994 -0.00770986 0.0724291
0.234858 0.00102979 -0.00967216
0.0722043 0.00889215 -0.0834801
-0.14022 -0.0131673 -0.149984
-0.345241 -0.00941395 -0.10753
-0.336853 0.000394699 0.00450875
-0.124099 0.00996705 0.113855
0.163935 0.0134935 0.154139
0.352527 0.00883503 0.100924
0.327254 -0.00118025 -0.0134773
0.10061 -0.0102121 -0.116322
-0.0947536 -0.0298129 -0.101352
-0.233298 -0.021315 -0.0726637
-0.22763 0.000893683 0.00304681
-0.0838593 0.0225675 0.0769377
0.110778 0.0305521 0.104159
0.238221 0.0200043 0.0681993
0.221141 -0.00267229 -0.00910731
0.0679876 -0.0231218 -0.0786049
0.0081887 -0.0283744 0.00875891
0.0201618 -0.0202865 0.00627968
0.019672 0.000850556 -0.000263307
0.00724724 0.0214785 -0.00664901
-0.00957363 0.0290779 -0.00900153
-0.0205872 0.0190391 -0.00589386
-0.0191113 -0.00254336 0.000787066
-0.00587556 -0.0220062 0.00679311
0.106164 -0.00972432 0.113556
0.261387 -0.00695254 0.0814141
0.25504 0.000291501 -0.00341368
0.0939571 0.00736106 -0.0862026
-0.124119 0.0099655 -0.116702
-0.266903 0.00652498 -0.076412
-0.247773 -0.000871652 0.010204
-0.0761747 -0.00754185 0.0880705
0.139741 0.0148244 0.149472
0.344006 0.0105937 0.107145
0.335648 -0.000444166 -0.0044926
0.123655 -0.0112161 -0.113447
-0.163347 -0.0151845 -0.153586
-0.351266 -0.00994228 -0.100562
-0.326082 0.00132822 0.0134293
-0.100267 0.0114973 0.115926
0.0885538 0.0303808 0.0947201
0.211946 0.0211665 0.0659922
0.206774 -0.000887105 -0.00276578
0.0761763 -0.0224026 -0.069846
-0.100629 -0.030329 -0.0945586
-0.216394 -0.0198582 -0.0619132
-0.200898 0.00265829 0.00828793
-0.0635391 0.0235623 0.0734617
0 0.258317 0
0 0.179971 0
0 -0.00754275 0
0 -0.190482 0
0 -0.257877 0
0 -0.168848 0
0 0.0226026 0
0 0.200342 0
-0.0637692 0.101626 0.176592
-0.152626 0.0708032 0.123033
-0.148902 -0.00296742 -0.00515642
-0.0548559 -0.074938 -0.130218
0.0724649 -0.101452 -0.176291
0.155829 -0.0664269 -0.115429
0.14467 0.00889215 0.0154517
0.0457557 0.0788173 0.136959
-0.0888568 -0.116711 0.246066
-0.212671 -0.0813133 0.171436
-0.207482 0.00340791 -0.00718502
-0.076437 0.086062 -0.181448
0.100974 0.116512 -0.245647
0.217135 0.0762874 -0.16084
0.201585 -0.0102121 0.0215306
0.0637565 -0.0905171 0.190841
-0.0600451 -0.264252 0.16628
-0.143713 -0.184106 0.115848
-0.140206 0.00771604 -0.00485529
-0.0516524 0.194858 -0.122614
0.068233 0.263802 -0.165996
0.146729 0.172727 -0.108688
0.136221 -0.0231218 0.0145493
0.0430836 -0.204945 0.128961
0.00518916 -0.251502 -0.01437
0.0124198 -0.175223 -0.0100117
0.0121168 0.00734373 0.000419599
0.00446385 0.185456 0.0105964
-0.00589676 0.251073 0.0143455
-0.0126805 0.164392 0.00939289
-0.0117724 -0.0220062 -0.00125737
-0.00372332 -0.195056 -0.0111449
0.0672757 -0.0861934 -0.186303
0.161019 -0.0600515 -0.129799
0.15709 0.00251681 0.00543996
0.0578724 0.0635585 0.137379
-0.0764496 0.0860464 0.185985
-0.164398 0.0563398 0.121776
-0.152625 -0.00754185 -0.0163014
-0.0482717 -0.0668487 -0.14449
0.0885538 0.131399 -0.245227
0.211946 0.0915462 -0.170851
0.206774 -0.00383678 0.00716052
0.0761763 -0.0968924 0.180829
-0.100629 -0.131174 0.244809
-0.216394 -0.0858878 0.160291
-0.200898 0.0114973 -0.0214572
-0.0635391 0.101908 -0.19019
0.0561163 0.269286 -0.1554
0.134309 0.187613 -0.108268
0.131032 -0.00786302 0.0045376
0.0482727 -0.19857 0.114591
-0.0637684 -0.268827 0.155135
-0.137129 -0.176017 0.101576
-0.127308 0.0235623 -0.0135973
-0.0402646 0.208849 -0.120523
