# vtk DataFile Version 3.0
Velocity field
ASCII
DATASET STRUCTURED_POINTS
DIMENSIONS 5 5 5
SPACING 1.33333 1.33333 1.33333
ORIGIN 0 0 0
POINT_DATA 125
VECTORS velocity float
0 0.555138 0
0 0.130589 0
0 -0.493699 0
0 -0.362863 0
0 0.322982 0
0 -0.29396 0.964109
0 -0.0691503 0.261375
0 0.261426 -0.98814
0 0.192145 -0.72627
0 -0.171027 0.560922
0 -0.693439 0.453589
0 -0.163123 0.12297
0 0.616694 -0.464895
0 0.453262 -0.341692
0 -0.403445 0.2639
0 -0.0322864 -0.750706
0 -0.00759497 -0.20352
0 0.0287131 0.769418
0 0.0211038 0.565513
0 -0.0187843 -0.436764
0 0.678249 -0.806778
0 0.15955 -0.189784
0 -0.603185 0.717489
0 -0.443333 0.527345
0 0.394608 -0.469386
0 0.130589 0
0 0.0390889 0
0 -0.147778 0
0 -0.108615 0
0 0.0759773 0
0.412635 -0.0691503 0.338578
0.647789 -0.0172296 0.0851547
-0.135806 0.0652554 -0.322605
-0.711795 0.0479794 -0.23721
-0.186453 -0.0402319 0.196986
0.194135 -0.163123 0.159293
0.30477 -0.0408188 0.0400634
-0.0638938 0.154614 -0.151777
-0.334883 0.113684 -0.111602
-0.0877213 -0.0949055 0.092677
-0.3213 -0.00759497 -0.263635
-0.504148 -0.00191772 -0.0662728
0.105692 0.00726703 0.251065
0.553962 0.00534372 0.184607
0.145182 -0.00441878 -0.153384
-0.345298 0.15955 -0.283326
-0.507752 0.0375321 -0.066649
0.106413 -0.141892 0.25197
0.557817 -0.104289 0.185194
0.156026 0.0928266 -0.16484
0 -0.493699 0
0 -0.147778 0
0 0.55868 0
0 0.410623 0
0 -0.287236 0
0.194135 0.261426 -0.804816
0.30477 0.0652554 -0.201778
-0.0638938 -0.247168 0.764372
-0.334883 -0.181735 0.562034
-0.0877213 0.152099 -0.468245
0.0913355 0.616694 -0.378646
0.143387 0.154614 -0.0949324
-0.0300605 -0.585702 0.359619
-0.157555 -0.43066 0.264423
-0.0412707 0.358795 -0.220298
-0.151164 0.0287131 0.626673
-0.23719 0.00726703 0.15704
0.0497257 -0.0275411 -0.59488
0.260626 -0.0202524 -0.437406
0.0683045 0.0167054 0.364601
-0.162454 -0.603185 0.67348
-0.238885 -0.141892 0.158428
0.0500648 0.536429 -0.598944
0.262439 0.394268 -0.440216
0.0734062 -0.350935 0.391833
0 -0.362863 0
0 -0.108615 0
0 0.410623 0
0 0.301803 0
0 -0.211115 0
-0.3213 0.192145 -0.717224
-0.504148 0.0479797 -0.179872
0.105692 -0.181737 0.681396
0.553962 -0.133626 0.501024
0.145182 0.11179 -0.417284
-0.151164 0.453262 -0.337436
-0.23719 0.113684 -0.0846261
0.0497257 -0.430663 0.320582
0.260626 -0.316662 0.235721
0.0683045 0.263709 -0.196322
0.250181 0.0211038 0.558469
0.392362 0.00534376 0.139991
-0.0822559 -0.0202526 -0.530302
-0.431128 -0.0148929 -0.389924
-0.113046 0.0122783 0.324919
0.268867 -0.443333 0.600182
0.395363 -0.104289 0.141185
-0.0828591 0.394268 -0.533758
-0.434346 0.289782 -0.392305
-0.12149 -0.257933 0.349188
0 0.322982 0
0 0.0759774 0
0 -0.287236 0
0 -0.211115 0
0 0.187912 0
-0.345298 -0.171027 0.46738
-0.507752 -0.0402319 0.109945
0.106413 0.152099 -0.415654
0.557817 0.111791 -0.3055
0.156026 -0.099504 0.271923
-0.162454 -0.403445 0.219891
-0.238885 -0.0949055 0.0517265
0.0500648 0.358795 -0.195555
0.262439 0.263709 -0.14373
0.0734062 -0.234726 0.127933
0.268867 -0.0187843 -0.363927
0.395363 -0.00441878 -0.0856093
-0.0828591 0.0167054 0.32365
-0.434346 0.0122783 0.237879
-0.12149 -0.0109288 -0.211734
0.28895 0.394608 -0.391109
0.424893 0.0928266 -0.0920036
-0.089048 -0.350935 0.347824
-0.466788 -0.257933 0.255646
-0.130564 0.229584 -0.227549
