# vtk DataFile Version 3.0
Velocity field
ASCII
DATASET STRUCTURED_POINTS
DIMENSIONS 5 5 5
SPACING 1.33333 1.33333 1.33333
ORIGIN 0 0 0
POINT_DATA 125
VECTORS velocity float
0 0.477562 0
0 0.11234 0
0 -0.424709 0
0 -0.312155 0
0 0.277847 0
0 -0.252881 0.829382
0 -0.0594871 0.22485
0 0.224894 -0.850055
0 0.165294 -0.62478
0 -0.147127 0.482537
0 -0.596536 0.390204
0 -0.140328 0.105786
0 0.530515 -0.39993
0 0.389922 -0.293943
0 -0.347067 0.227022
0 -0.0277746 -0.645801
0 -0.00653363 -0.17508
0 0.0247007 0.661898
0 0.0181547 0.486486
0 -0.0161594 -0.375729
0 0.583469 -0.694037
0 0.137254 -0.163263
0 -0.518894 0.617225
0 -0.381381 0.453653
0 0.339464 -0.403793
0 0.11234 0
0 0.0336265 0
0 -0.127127 0
0 -0.0934365 0
0 0.0653601 0
0.354973 -0.0594871 0.291264
0.551091 -0.0146821 0.0724569
-0.115522 0.0555764 -0.274327
-0.60551 0.0408583 -0.201685
-0.160397 -0.0346098 0.169459
0.167006 -0.140328 0.137033
0.259276 -0.0347639 0.0340895
-0.0543506 0.131603 -0.129064
-0.284877 0.0967526 -0.0948884
-0.0754629 -0.0816431 0.0797261
-0.2764 -0.00653363 -0.226794
-0.428959 -0.00162891 -0.0563992
0.0899201 0.00616797 0.213527
0.471316 0.00453483 0.156986
0.124894 -0.00380129 -0.13195
-0.297045 0.137254 -0.243734
-0.436798 0.0322872 -0.0573353
0.0915429 -0.122063 0.216759
0.479866 -0.0897151 0.159315
0.134222 0.0798547 -0.141805
0 -0.424709 0
0 -0.127127 0
0 0.480609 0
0 0.353241 0
0 -0.247097 0
0.167006 0.224894 -0.692349
0.259276 0.0555764 -0.171748
-0.0543506 -0.210383 0.650208
-0.284877 -0.15467 0.47803
-0.0754629 0.130844 -0.402811
0.078572 0.530515 -0.325733
0.121983 0.131603 -0.0808035
-0.0255706 -0.498225 0.305909
-0.134028 -0.366292 0.224902
-0.0355034 0.308656 -0.189513
-0.13004 0.0247007 0.5391
-0.201815 0.00616797 0.133687
0.0423053 -0.0233569 -0.50611
0.221743 -0.0171728 -0.372089
0.0587594 0.0143709 0.31365
-0.139752 -0.518894 0.579366
-0.205502 -0.122063 0.136289
0.0430687 0.461467 -0.515246
0.225765 0.339172 -0.378699
0.0631483 -0.301895 0.337077
0 -0.312155 0
0 -0.0934366 0
0 0.353241 0
0 0.259628 0
0 -0.181613 0
-0.2764 0.165294 -0.616998
-0.428959 0.0408586 -0.153089
0.0899201 -0.154671 0.579569
0.471316 -0.113711 0.426098
0.124894 0.0961686 -0.358971
-0.13004 0.389922 -0.290282
-0.201815 0.0967532 -0.0720245
0.0423053 -0.366295 0.272675
0.221743 -0.269299 0.200469
0.0587594 0.226858 -0.168887
0.21522 0.0181547 0.480427
0.333896 0.00453486 0.119163
-0.069992 -0.0171729 -0.451126
-0.366864 -0.0126261 -0.331666
-0.097249 0.0105625 0.279514
0.231295 -0.381381 0.516311
0.340114 -0.0897151 0.121456
-0.0712802 0.339172 -0.459169
-0.373649 0.249287 -0.337483
-0.104513 -0.221889 0.300392
0 0.277847 0
0 0.0653601 0
0 -0.247097 0
0 -0.181613 0
0 0.161652 0
-0.297045 -0.147127 0.402067
-0.436797 -0.0346098 0.0945813
0.0915428 0.130844 -0.357569
0.479866 0.0961686 -0.262809
0.134222 -0.085599 0.233924
-0.139752 -0.347067 0.189163
-0.205502 -0.0816431 0.0444981
0.0430686 0.308656 -0.168227
0.225765 0.226858 -0.123645
0.0631483 -0.201925 0.110055
0.231295 -0.0161594 -0.313071
0.340114 -0.00380129 -0.073646
-0.0712801 0.0143709 0.278422
-0.373649 0.0105625 0.204637
-0.104513 -0.00940157 -0.182146
0.248571 0.339464 -0.336455
0.365518 0.0798547 -0.0791468
-0.0766042 -0.301895 0.299218
-0.401558 -0.221889 0.219921
-0.112319 0.197502 -0.195751
