# vtk DataFile Version 3.0
Velocity field
ASCII
DATASET STRUCTURED_POINTS
DIMENSIONS 8 8 8
SPACING 0.8 0.8 0.8
ORIGIN 0 0 0
POINT_DATA 512
VECTORS velocity float
0 0.151286 0
0 0.105402 0
0 -0.00441749 0
0 -0.111558 0
0 -0.151028 0
0 -0.0988873 0
0 0.0132374 0
0 0.117332 0
0 0.0595181 0.15441
0 0.0414666 0.114059
0 -0.0017379 -0.0047803
0 -0.0438882 -0.12072
0 -0.0594166 -0.163432
0 -0.0389036 -0.107009
0 0.00520778 0.0143246
0 0.0461602 0.119755
0 -0.068353 0.215157
0 -0.047622 0.158931
0 0.00199588 -0.00666093
0 0.0504031 -0.168213
0 0.0682365 -0.227729
0 0.0446785 -0.149108
0 -0.00598083 0.0199601
0 -0.0530123 0.166869
0 -0.154762 0.145393
0 -0.107824 0.107398
0 0.00451898 -0.00450113
0 0.114121 -0.11367
0 0.154498 -0.153888
0 0.101159 -0.10076
0 -0.0135416 0.0134881
0 -0.120028 0.112762
0 -0.147295 -0.012565
0 -0.102621 -0.00928144
0 0.00430093 0.000388993
0 0.108614 0.00982346
0 0.147043 0.0132992
0 0.0962781 0.00870776
0 -0.0128882 -0.00116565
0 -0.114237 -0.00974498
0 -0.0504801 -0.162901
0 -0.0351698 -0.120331
0 0.001474 0.00504316
0 0.0372237 0.127358
0 0.050394 0.172419
0 0.032996 0.112893
0 -0.00441697 -0.0151123
0 -0.0391506 -0.126341
0 0.0769549 -0.214424
0 0.053615 -0.158389
0 -0.00224705 0.00663822
0 -0.0567461 0.167639
0 -0.0768237 0.226952
0 -0.0503011 0.148599
0 0.00673349 -0.019892
0 0.0596836 -0.1663
0 0.15771 -0.13588
0 0.109878 -0.0946682
0 -0.00460506 0.00396762
0 -0.116294 0.100197
0 -0.157441 0.135648
0 -0.103086 0.0888168
0 0.0137995 -0.0118894
0 0.122315 -0.105384
0 0.105402 0
0 0.079728 0
0 -0.00334147 0
0 -0.0843841 0
0 -0.11424 0
0 -0.0748001 0
0 0.010013 0
0 0.0817463 0
0.0329153 0.0414666 0.152515
0.0798014 0.0292968 0.107666
0.0778564 -0.00122796 -0.00451277
0.0286825 -0.0310103 -0.113963
-0.0378897 -0.0419822 -0.154285
-0.0814784 -0.0274882 -0.10102
-0.0756422 0.00367777 0.0135162
-0.0236174 0.0321601 0.118286
0.0458646 -0.047622 0.212517
0.111197 -0.0336043 0.150023
0.108486 0.0014085 -0.00628815
0.0399665 0.0355694 -0.158797
-0.0527962 0.0481544 -0.214983
-0.113533 0.0315296 -0.140762
-0.105401 -0.00421867 0.0188336
-0.0329087 -0.036934 0.164821
0.030993 -0.107824 0.143609
0.0751412 -0.0760856 0.101379
0.0733096 0.00318909 -0.00424923
0.0270073 0.0805353 -0.107308
-0.0356769 0.10903 -0.145275
-0.0767203 0.0713884 -0.0951201
-0.0712248 -0.00955177 0.0127269
-0.0222381 -0.0836244 0.111378
-0.00267845 -0.102621 -0.0124108
-0.00649381 -0.0724143 -0.00876124
-0.00633551 0.0030352 0.000367222
-0.00233401 0.0766493 0.00927366
0.00308324 0.103769 0.0125548
0.00663027 0.067944 0.00822037
0.00615531 -0.00909088 -0.00109987
0.00192184 -0.0795894 -0.00962539
-0.0347252 -0.0351698 -0.160902
-0.0841901 -0.0248176 -0.113587
-0.0821374 0.00104021 0.00476092
-0.0302598 0.0262689 0.12023
0.0399731 0.0355632 0.162768
0.0859593 0.0232854 0.106575
0.0798015 -0.00311559 -0.0142594
0.024916 -0.0272765 -0.12479
-0.0457081 0.053615 -0.211792
-0.110813 0.0378291 -0.149507
-0.108112 -0.00158558 0.00626648
-0.0398288 -0.0400414 0.15825
0.0526143 -0.0542086 0.214242
0.113142 -0.0354936 0.140277
0.105038 0.00474907 -0.0187688
0.0327965 0.041582 -0.164259
-0.0289651 0.109878 -0.134212
-0.0693255 0.0765525 -0.0935064
-0.067634 -0.00320838 0.00391893
-0.0249166 -0.0810231 0.0989671
0.0329149 -0.10969 0.133983
0.0707806 -0.0718208 0.0877268
0.0657118 0.00961421 -0.0117434
0.0207831 0.0852174 -0.10409
0 -0.00441749 0
0 -0.00334147 0
0 0.000140044 0
0 0.00353661 0
0 0.00478791 0
0 0.00313493 0
0 -0.000419654 0
0 -0.00342605 0
0.0458646 -0.0017379 0.0581066
0.111197 -0.00122796 0.0410062
0.108486 5.14698e-05 -0.00171875
0.0399665 0.00129979 -0.0434046
-0.0527962 0.00175967 -0.0587617
-0.113533 0.00115217 -0.0384747
-0.105401 -0.000154151 0.00514788
-0.0329087 -0.00134786 0.0450655
0.0639083 0.00199588 0.0809665
0.154943 0.0014085 0.0571386
0.151166 -5.90366e-05 -0.00239493
0.0556899 -0.00149087 -0.0604804
-0.0735668 -0.00201836 -0.081879
-0.158198 -0.00132155 -0.0536115
-0.146867 0.000176823 0.00717313
-0.0458555 0.00154793 0.0627949
0.0431861 0.00451898 0.0547132
0.104703 0.00318909 0.0386114
0.102151 -0.000133669 -0.00161839
0.0376325 -0.00337559 -0.0408696
-0.0497128 -0.00456993 -0.0553298
-0.106904 -0.0029922 -0.0362279
-0.0992456 0.000400356 0.00484726
-0.0309869 0.00350477 0.0424337
-0.00373219 0.00430093 -0.00472837
-0.00904854 0.0030352 -0.00333685
-0.00882794 -0.000127219 0.000139862
-0.00325225 -0.00321273 0.00353198
0.00429624 -0.00434944 0.00478167
0.00923869 -0.00284783 0.00313085
0.00857694 0.000381037 -0.000418906
0.00267792 0.00333566 -0.00366716
-0.0483866 0.001474 -0.0613018
-0.117312 0.00104021 -0.0432612
-0.114451 -4.36e-05 0.00181326
-0.0421644 -0.00110105 0.045791
0.0556991 -0.00149061 0.0619931
0.119777 -0.000975991 0.0405903
0.111197 0.000130587 -0.00543098
0.0347183 0.00114318 -0.0475436
-0.0636903 -0.00224705 -0.0806904
-0.154409 -0.00158558 -0.0569418
-0.150645 6.64588e-05 0.00238668
-0.055498 0.00167832 0.0602722
0.0733132 0.00227212 0.0815969
0.157653 0.0014877 0.0534266
0.146361 -0.000199054 -0.00714844
0.0456991 -0.00174273 -0.0625807
-0.0403604 -0.00460506 -0.0511333
-0.0965991 -0.00320838 -0.0356249
-0.0942421 0.000134466 0.00149307
-0.0347191 0.00339574 0.0377054
0.045864 0.00459721 0.0510461
0.0986267 0.00301007 0.0334229
0.0915636 -0.000402939 -0.00447412
0.0289594 -0.00357153 -0.0396572
0 -0.111558 0
0 -0.0843841 0
0 0.00353661 0
0 0.089312 0
0 0.120912 0
0 0.0791683 0
0 -0.0105978 0
0 -0.0865202 0
0.030993 -0.0438882 -0.0715488
0.0751412 -0.0310103 -0.0504924
0.0733096 0.00129979 0.00211636
0.0270073 0.032824 0.0534455
-0.0356769 0.0444378 0.072355
-0.0767203 0.0290961 0.0473751
-0.0712248 -0.00389286 -0.00633877
-0.0222381 -0.0340382 -0.0554908
0.0431861 0.0504031 -0.0996971
0.104703 0.0355694 -0.0703568
0.102151 -0.00149087 0.00294895
0.0376325 -0.0376497 0.0744715
-0.0497128 -0.0509709 0.100821
-0.106904 -0.0333737 0.0660131
-0.0992456 0.00446536 -0.00883249
-0.0309869 0.0390909 -0.0773216
0.0291831 0.114121 -0.0673704
0.070753 0.0805353 -0.0475436
0.0690286 -0.00337559 0.00199276
0.0254303 -0.0852457 0.0503242
-0.0335936 -0.115406 0.0681298
-0.0722399 -0.0755635 0.0446086
-0.0670655 0.0101103 -0.00596857
-0.0209394 0.088508 -0.0522502
-0.00252203 0.108614 0.00582222
-0.00611455 0.0766493 0.00410877
-0.00596548 -0.00321273 -0.000172217
-0.00219772 -0.0811319 -0.00434908
0.00290318 -0.109838 -0.00588781
0.00624304 -0.0719175 -0.00385513
0.00579584 0.00962251 0.000515811
0.00180961 0.0842373 0.00451551
-0.0326973 0.0372237 0.0754832
-0.0792729 0.0262689 0.0532689
-0.0773407 -0.00110105 -0.00223273
-0.0284925 -0.0278052 -0.0563839
0.0376387 -0.0376431 -0.0763336
0.0809389 -0.0246472 -0.0499803
0.0751412 0.00329779 0.00668734
0.023461 0.0288694 0.0585422
-0.0430388 -0.0567461 0.0993571
-0.104343 -0.0400414 0.0701143
-0.101799 0.00167832 -0.00293879
-0.0375029 0.0423832 -0.0742148
0.0495415 0.057379 -0.100473
0.106535 0.0375694 -0.0657857
0.0989037 -0.0050268 0.0088021
0.0308812 -0.0440103 0.0770579
-0.0272736 -0.116294 0.0629623
-0.065277 -0.0810231 0.0438662
-0.0636842 0.00339574 -0.00183847
-0.0234615 0.0857548 -0.046428
0.0309927 0.116096 -0.0628549
0.0666471 0.0760151 -0.0411549
0.0618742 -0.0101757 0.00550915
0.0195693 -0.090194 0.0488314
0 -0.151028 0
0 -0.11424 0
0 0.00478791 0
0 0.120912 0
0 0.163692 0
0 0.107179 0
0 -0.0143474 0
0 -0.117132 0
-0.00267845 -0.0594166 -0.157804
-0.00649381 -0.0419822 -0.111363
-0.00633551 0.00175967 0.0046677
-0.00233401 0.0444378 0.117876
0.00308324 0.0601607 0.159581
0.00663027 0.0393906 0.104488
0.00615531 -0.00527021 -0.0139804
0.00192184 -0.0460814 -0.122387
-0.00373219 0.0682365 -0.219886
-0.00904854 0.0481544 -0.155174
-0.00882794 -0.00201836 0.00650405
-0.00325225 -0.0509709 0.164249
0.00429624 -0.0690052 0.222363
0.00923869 -0.0451819 0.145595
0.00857694 0.00604527 -0.0194805
0.00267792 0.0529219 -0.170536
-0.00252203 0.154498 -0.148588
-0.00611455 0.10903 -0.104859
-0.00596548 -0.00456993 0.00439513
-0.00219772 -0.115406 0.110991
0.00290318 -0.156239 0.150262
0.00624304 -0.102299 0.0983856
0.00579584 0.0136875 -0.013164
0.00180961 0.119823 -0.11524
0.000217956 0.147043 0.0128411
0.000528428 0.103769 0.00906204
0.000515544 -0.00434944 -0.000379829
0.000189928 -0.109838 -0.00959202
-0.000250896 -0.148701 -0.0129859
-0.000539532 -0.0973627 -0.00850262
-0.000500883 0.0130271 0.00113764
-0.000156388 0.114042 0.00995914
0.00282573 0.050394 0.166481
0.00685086 0.0355632 0.117487
0.0066839 -0.00149061 -0.00492436
0.00246235 -0.0376431 -0.124357
-0.00325279 -0.050962 -0.168357
-0.00699482 -0.0333678 -0.110233
-0.00649381 0.00446458 0.0147492
-0.00202752 0.0390839 0.129117
0.00371946 -0.0768237 0.219136
0.00901737 -0.0542086 0.154639
0.00879755 0.00227212 -0.00648166
0.00324105 0.057379 -0.163683
-0.00428144 0.0776805 -0.221597
-0.00920684 0.0508621 -0.145093
-0.00854739 -0.00680534 0.0194134
-0.00266879 -0.0595818 0.169954
0.00235701 -0.157441 0.138866
0.0056413 -0.10969 0.0967487
0.00550365 0.00459721 -0.00405482
0.00202756 0.116096 -0.102399
-0.00267842 0.157173 -0.138629
-0.00575971 0.10291 -0.0907687
-0.00534723 -0.013776 0.0121506
-0.0016912 -0.122106 0.1077
0 -0.0988873 0
0 -0.0748001 0
0 0.00313493 0
0 0.0791683 0
0 0.107179 0
0 0.0701767 0
0 -0.00939412 0
0 -0.0766936 0
-0.0347252 -0.0389036 -0.148337
-0.0841901 -0.0274882 -0.104682
-0.0821374 0.00115217 0.00438771
-0.0302598 0.0290961 0.110804
0.0399731 0.0393906 0.150008
0.0859593 0.0257915 0.0982193
0.0798015 -0.00345072 -0.0131417
0.024916 -0.0301723 -0.115045
-0.0483866 0.0446785 -0.206695
-0.117312 0.0315296 -0.145865
-0.114451 -0.00132155 0.00611385
-0.0421644 -0.0333737 0.154396
0.0556991 -0.0451819 0.209024
0.119777 -0.0295833 0.136861
0.111197 0.0039582 -0.0183118
0.0347183 0.0346511 -0.160305
-0.0326973 0.101159 -0.139674
-0.0792729 0.0713884 -0.0985686
-0.0773407 -0.0029922 0.00413144
-0.0284925 -0.0755635 0.104333
0.0376387 -0.102299 0.141248
0.0809389 -0.0669815 0.0924833
0.0751412 0.00896205 -0.0123742
0.023461 0.0784556 -0.108327
0.00282573 0.0962781 0.0120708
0.00685086 0.067944 0.00851842
0.0066839 -0.00284783 -0.000357043
0.00246235 -0.0719175 -0.00901659
-0.00325279 -0.0973627 -0.0122068
-0.00699482 -0.0637492 -0.0079925
-0.00649381 0.00852964 0.0010694
-0.00202752 0.07467 0.00936168
0.0366347 0.032996 0.156494
0.0888196 0.0232854 0.110438
0.0866546 -0.000975991 -0.00462897
0.0319236 -0.0246472 -0.116897
-0.0421714 -0.0333678 -0.158256
-0.0906861 -0.0218479 -0.103621
-0.0841901 0.00292323 0.0138643
-0.0262861 0.0255905 0.121371
0.0482216 -0.0503011 0.20599
0.116907 -0.0354936 0.145363
0.114057 0.0014877 -0.00609279
0.0420191 0.0375694 -0.153864
-0.0555072 0.0508621 -0.208304
-0.119364 0.0333025 -0.136389
-0.110813 -0.00445587 0.0182488
-0.0345999 -0.0390118 0.159759
0.0305579 -0.103086 0.130535
0.0731376 -0.0718208 0.0909447
0.0713531 0.00301007 -0.00381157
0.0262867 0.0760151 -0.0962558
-0.0347248 0.10291 -0.130313
-0.0746727 0.0673816 -0.0853235
-0.0693252 -0.00901996 0.0114217
-0.0219259 -0.0799501 0.101239
0 0.0132374 0
0 0.010013 0
0 -0.000419653 0
0 -0.0105978 0
0 -0.0143474 0
0 -0.00939411 0
0 0.00125753 0
0 0.0102665 0
-0.0457081 0.00520778 -0.048891
-0.110813 0.00367773 -0.0345057
-0.108112 -0.00015415 0.00144628
-0.0398288 -0.00389282 0.0365238
0.0526143 -0.00527016 0.0494463
0.113142 -0.00345069 0.0323755
0.105038 0.000461694 -0.0043318
0.0327965 0.00403898 -0.0379182
-0.0636903 -0.00598083 -0.0681254
-0.154409 -0.00421863 -0.0480807
-0.150645 0.000176821 0.00201528
-0.055498 0.00446532 0.0508927
0.0733132 0.00604521 0.0688993
0.157653 0.00395816 0.0451126
0.146361 -0.000529616 -0.00603598
0.0456991 -0.00463853 -0.0528357
-0.0430388 -0.0135416 -0.0460358
-0.104343 -0.00955166 -0.0324906
-0.101799 0.000400352 0.00136183
-0.0375029 0.0101102 0.0343908
0.0495415 0.0136874 0.0465587
0.106535 0.00896196 0.0304849
0.0989037 -0.00119914 -0.00407882
0.0308812 -0.0105024 -0.0357038
0.00371946 -0.0128882 0.00397846
0.00901737 -0.00909078 0.00280787
0.00879756 0.000381033 -0.000117691
0.00324105 0.00962241 -0.00297209
-0.00428144 0.013027 -0.00402365
-0.00920684 0.00852955 -0.00263453
-0.00854739 -0.00114128 0.000352497
-0.00266879 -0.0099956 0.00308556
0.0482216 -0.00441697 0.0515794
0.116907 -0.00311556 0.0364031
0.114057 0.000130586 -0.00152581
0.0420191 0.00329775 -0.0385321
-0.0555072 0.00446453 -0.0521654
-0.119364 0.0029232 -0.0341559
-0.110813 -0.000391133 0.00457
-0.0345999 -0.00342565 0.0400032
0.0634731 0.00673349 0.067893
0.153877 0.00474902 0.0479151
0.150126 -0.000199052 -0.00200833
0.0553068 -0.00502675 -0.0507174
-0.0730605 -0.00680527 -0.068662
-0.15711 -0.00445582 -0.0449571
-0.145857 0.000596206 0.0060152
-0.0455432 0.00522227 0.0526555
0.0402227 0.0137995 0.0430236
0.0962696 0.00961421 0.0299748
0.0939207 -0.000402939 -0.00125627
0.0346007 -0.0101757 -0.0317253
-0.0457076 -0.013776 -0.0429503
-0.0982903 -0.00901996 -0.0281221
-0.0912514 0.00120745 0.00376453
-0.0288606 0.0107024 0.0333676
0 0.117332 0
0 0.0817463 0
0 -0.00342605 0
0 -0.0865202 0
0 -0.117132 0
0 -0.0766936 0
0 0.0102665 0
0 0.090999 0
-0.0289651 0.0461602 0.0802115
-0.0693255 0.0321601 0.0558839
-0.0676339 -0.00134786 -0.00234214
-0.0249166 -0.0340382 -0.0591475
0.0329149 -0.0460814 -0.0800747
0.0707806 -0.0301723 -0.0524297
0.0657117 0.00403898 0.00701844
0.0207831 0.0358002 0.0622093
-0.0403604 -0.0530123 0.111768
-0.0965991 -0.036934 0.0778694
-0.094242 0.00154793 -0.00326357
-0.0347191 0.0390909 -0.0824169
0.045864 0.0529219 -0.111577
0.0986266 0.0346511 -0.0730563
0.0915636 -0.00463853 0.00977959
0.0289594 -0.0411145 0.0866833
-0.0272736 -0.120028 0.0755272
-0.0652769 -0.0836244 0.0526203
-0.0636842 0.00350477 -0.00220536
-0.0234614 0.088508 -0.0556933
0.0309927 0.119824 -0.0753984
0.0666471 0.0784556 -0.0493679
0.0618742 -0.0105024 0.00660857
0.0195693 -0.0930898 0.0585763
0.00235701 -0.114237 -0.00652714
0.0056413 -0.0795894 -0.0045475
0.00550365 0.00333566 0.000190589
0.00202756 0.0842374 0.00481307
-0.00267842 0.114042 0.00651601
-0.0057597 0.07467 0.00426642
-0.00534723 -0.00999561 -0.000571119
-0.0016912 -0.088598 -0.00506223
0.0305579 -0.0391506 -0.0846222
0.0731376 -0.0272765 -0.0589569
0.071353 0.00114318 0.00247093
0.0262867 0.0288694 0.0623999
-0.0347248 0.0390839 0.0844779
-0.0746727 0.0255906 0.0553128
-0.0693251 -0.00342565 -0.00740438
-0.0219259 -0.0303639 -0.0656301
0.0402227 0.0596836 -0.111387
0.0962696 0.041582 -0.0776038
0.0939206 -0.00174273 0.00325244
0.0346006 -0.0440103 0.0821358
-0.0457076 -0.0595818 0.111197
-0.0982902 -0.0390118 0.0728071
-0.0912514 0.00522227 -0.00974624
-0.0288606 0.0462886 -0.0863877
0.025489 0.122315 -0.0705854
0.0610058 0.0852174 -0.0491773
0.0595173 -0.00357153 0.00206106
0.0219263 -0.090194 0.0520492
-0.0289648 -0.122106 0.070465
-0.0622863 -0.0799501 0.0461377
-0.0578257 0.0107024 -0.00617616
-0.0182889 0.094863 -0.0547436
