# vtk DataFile Version 3.0
Velocity field
ASCII
DATASET STRUCTURED_POINTS
DIMENSIONS 5 5 5
SPACING 1.33333 1.33333 1.33333
ORIGIN 0 0 0
POINT_DATA 125
VECTORS velocity float
0 0.326274 0
0 0.0767519 0
0 -0.290164 0
0 -0.213267 0
0 0.189827 0
0 -0.17277 0.56664
0 -0.040642 0.153619
0 0.153649 -0.580764
0 0.11293 -0.426854
0 -0.100518 0.329673
0 -0.407558 0.26659
0 -0.0958729 0.0722739
0 0.362452 -0.273235
0 0.266398 -0.200824
0 -0.237119 0.155103
0 -0.0189758 -0.441216
0 -0.00446382 -0.119616
0 0.0168757 0.452213
0 0.0124034 0.332371
0 -0.0110402 -0.256701
0 0.39863 -0.474171
0 0.0937728 -0.111543
0 -0.354513 0.421693
0 -0.260562 0.309939
0 0.231925 -0.275874
0 0.0767519 0
0 0.0229739 0
0 -0.0868539 0
0 -0.0638365 0
0 0.0446545 0
0.24252 -0.040642 0.198994
0.369565 -0.00987055 0.0485866
-0.07746 0.0373365 -0.183802
-0.406028 0.0274449 -0.135109
-0.109585 -0.0236456 0.115775
0.1141 -0.0958729 0.0936217
0.173871 -0.0233458 0.0228589
-0.0364432 0.0883124 -0.0864743
-0.191026 0.064916 -0.0635656
-0.0515568 -0.0557792 0.0544695
-0.188839 -0.00446382 -0.154947
-0.287719 -0.00109007 -0.0378264
0.0603052 0.0041238 0.143095
0.316106 0.00303134 0.105187
0.0853284 -0.00259707 -0.0901489
-0.202944 0.0937728 -0.166521
-0.298423 0.0220589 -0.0391719
0.0625428 -0.0833946 0.148091
0.327848 -0.061294 0.108845
0.0917017 0.0545574 -0.0968823
0 -0.290164 0
0 -0.0868539 0
0 0.328355 0
0 0.241337 0
0 -0.168818 0
0.1141 0.153649 -0.473018
0.173871 0.0373365 -0.115252
-0.0364432 -0.141232 0.43598
-0.191026 -0.103816 0.320479
-0.0515568 0.0893935 -0.275204
0.053681 0.362452 -0.222543
0.0818018 0.0883124 -0.0542232
-0.0171455 -0.334071 0.205118
-0.0898726 -0.245567 0.150777
-0.0242562 0.210876 -0.129476
-0.088844 0.0168757 0.368317
-0.135365 0.0041238 0.0897279
0.0283721 -0.0156009 -0.339425
0.14872 -0.011468 -0.249503
0.0401449 0.00981833 0.214288
-0.0954799 -0.354513 0.395827
-0.140401 -0.0833946 0.0931134
0.0294248 0.315277 -0.35202
0.154244 0.231725 -0.25873
0.0431434 -0.206257 0.230294
0 -0.213267 0
0 -0.0638365 0
0 0.241337 0
0 0.17738 0
0 -0.124079 0
-0.188839 0.11293 -0.421537
-0.287719 0.027445 -0.102718
0.0603052 -0.103816 0.388566
0.316106 -0.0763121 0.285626
0.0853284 0.0657031 -0.245252
-0.088844 0.266398 -0.198323
-0.135365 0.0649162 -0.0483263
0.0283721 -0.245568 0.182811
0.14872 -0.180512 0.13438
0.0401449 0.154991 -0.115385
0.14704 0.0124034 0.328231
0.224 0.00303136 0.0799698
-0.0469496 -0.011468 -0.302512
-0.246099 -0.00843005 -0.222371
-0.0664412 0.00721635 0.190966
0.158023 -0.260562 0.352748
0.232368 -0.061294 0.0829795
-0.0486991 0.231725 -0.313708
-0.25528 0.170315 -0.230571
-0.0714038 -0.151596 0.20523
0 0.189827 0
0 0.0446545 0
0 -0.168818 0
0 -0.124079 0
0 0.110442 0
-0.202944 -0.100518 0.274695
-0.298423 -0.0236457 0.0646186
0.0625427 0.0893935 -0.244294
0.327848 0.0657031 -0.179553
0.0917017 -0.0584819 0.159819
-0.0954799 -0.237119 0.129237
-0.140401 -0.0557792 0.0304015
0.0294248 0.210876 -0.114934
0.154244 0.154991 -0.0844751
0.0431434 -0.137956 0.0751907
0.158023 -0.0110402 -0.213892
0.232368 -0.00259707 -0.0503155
-0.0486991 0.00981834 0.19022
-0.25528 0.00721635 0.139809
-0.0714038 -0.00642322 -0.124443
0.169826 0.231925 -0.229868
0.249724 0.0545574 -0.0540737
-0.0523366 -0.206257 0.204428
-0.274347 -0.151596 0.150252
-0.0767371 0.134935 -0.133738
