# vtk DataFile Version 3.0
Velocity field
ASCII
DATASET STRUCTURED_POINTS
DIMENSIONS 5 5 5
SPACING 1.33333 1.33333 1.33333
ORIGIN 0 0 0
POINT_DATA 125
VECTORS velocity float
0 0.0714171 0
0 0.0168 0
0 -0.0635131 0
0 -0.0466813 0
0 0.0415507 0
0 -0.0378171 0.12403
0 -0.00889601 0.0336252
0 0.0336318 -0.127122
0 0.0247189 -0.0934328
0 -0.0220021 0.0721611
0 -0.0892091 0.0583531
0 -0.0209853 0.0158198
0 0.079336 -0.0598076
0 0.058311 -0.0439578
0 -0.0519022 0.03395
0 -0.00415356 -0.0965764
0 -0.000977073 -0.0261824
0 0.00369387 0.0989837
0 0.00271495 0.0727517
0 -0.00241655 -0.0561885
0 0.087255 -0.10379
0 0.0205256 -0.0244153
0 -0.0775982 0.0923031
0 -0.0570337 0.0678416
0 0.0507652 -0.0603853
0 0.0168 0
0 0.00502869 0
0 -0.0190112 0
0 -0.013973 0
0 0.00977428 0
0.0530844 -0.00889601 0.0435572
0.078669 -0.00210756 0.0103316
-0.0164874 0.00796794 -0.0390602
-0.0864257 0.00585635 -0.028709
-0.0239866 -0.00517573 0.0253417
0.0249749 -0.0209853 0.0204926
0.0370118 -0.00497484 0.00486075
-0.00775686 0.0188081 -0.0183769
-0.0406614 0.0138238 -0.0135068
-0.0112851 -0.0122093 0.0119227
-0.0413344 -0.000977073 -0.0339159
-0.0612553 -0.000231659 -0.00804467
0.0128378 0.000875827 0.0304141
0.0672953 0.000643726 0.0223541
0.0186773 -0.000568464 -0.0197324
-0.0444217 0.0205256 -0.0364492
-0.065321 0.0048284 -0.00857422
0.0136898 -0.018254 0.0324152
0.0717617 -0.0134165 0.0238248
0.0200723 0.0119419 -0.0212063
0 -0.0635131 0
0 -0.0190112 0
0 0.0718727 0
0 0.0528255 0
0 -0.0369521 0
0.0249749 0.0336318 -0.103538
0.0370118 0.00796794 -0.0245456
-0.00775686 -0.0301239 0.092798
-0.0406614 -0.0221408 0.0682058
-0.0112851 0.0195671 -0.0602385
0.0117501 0.079336 -0.0487118
0.0174131 0.0188081 -0.0115481
-0.00364942 -0.0711069 0.0436591
-0.0191301 -0.0522629 0.0320892
-0.00530937 0.046158 -0.0283407
-0.0194468 0.00369387 0.0806198
-0.0288192 0.000875827 0.0191123
0.00603988 -0.0033112 -0.0722571
0.0316608 -0.0024337 -0.0531083
0.00878719 0.00214911 0.0469049
-0.0208993 -0.0775982 0.0866414
-0.0307319 -0.018254 0.0203813
0.00644071 0.0690101 -0.0770525
0.0337621 0.0507215 -0.0566326
0.00944352 -0.0451469 0.0504083
0 -0.0466813 0
0 -0.013973 0
0 0.0528255 0
0 0.0388261 0
0 -0.0271593 0
-0.0413344 0.0247189 -0.092269
-0.0612553 0.00585635 -0.0218742
0.0128378 -0.0221408 0.0826991
0.0672953 -0.0162733 0.0607829
0.0186773 0.0143816 -0.0536825
-0.0194468 0.058311 -0.0434103
-0.0288192 0.0138238 -0.0102913
0.00603988 -0.0522629 0.0389077
0.0316608 -0.0384128 0.028597
0.00878719 0.0339255 -0.0252563
0.0321851 0.00271495 0.0718456
0.0476965 0.000643726 0.0170323
-0.00999614 -0.0024337 -0.0643934
-0.0523993 -0.00178875 -0.0473285
-0.0145431 0.00157957 0.0418
0.0345891 -0.0570337 0.0772118
0.0508624 -0.0134165 0.0181631
-0.0106596 0.0507215 -0.0686665
-0.0558775 0.0372797 -0.050469
-0.0156294 -0.0331824 0.0449221
0 0.0415507 0
0 0.00977428 0
0 -0.0369521 0
0 -0.0271594 0
0 0.0241744 0
-0.0444217 -0.0220021 0.0601272
-0.065321 -0.00517573 0.0141442
0.0136898 0.0195671 -0.0534727
0.0717617 0.0143816 -0.0393018
0.0200723 -0.0128009 0.0349822
-0.0208993 -0.0519022 0.0282884
-0.0307319 -0.0122093 0.00665448
0.00644071 0.046158 -0.0251576
0.0337621 0.0339255 -0.0184905
0.00944352 -0.0301969 0.0164583
0.0345891 -0.00241655 -0.0468182
0.0508624 -0.000568464 -0.0110134
-0.0106596 0.00214911 0.0416367
-0.0558774 0.00157957 0.0306024
-0.0156294 -0.00140596 -0.027239
0.0371726 0.0507652 -0.0503152
0.0546614 0.0119419 -0.011836
-0.0114558 -0.0451469 0.0447466
-0.0600511 -0.0331824 0.0328882
-0.0167967 0.0295354 -0.0292736
