# vtk DataFile Version 3.0
Velocity field
ASCII
DATASET STRUCTURED_POINTS
DIMENSIONS 8 8 8
SPACING 0.8 0.8 0.8
ORIGIN 0 0 0
POINT_DATA 512
VECTORS velocity float
0 0.111405 0
0 0.0776167 0
0 -0.00325298 0
0 -0.0821495 0
0 -0.111215 0
0 -0.0728192 0
0 0.00974786 0
0 0.086402 0
0 0.0438283 0.113706
0 0.0305354 0.0839914
0 -0.00127977 -0.00352015
0 -0.0323187 -0.0888964
0 -0.0437535 -0.120349
0 -0.0286481 -0.0787999
0 0.00383494 0.0105484
0 0.0339917 0.0881862
0 -0.0503342 0.158439
0 -0.0350682 0.117035
0 0.00146974 -0.00490502
0 0.0371161 -0.123869
0 0.0502484 -0.167696
0 0.0329006 -0.109801
0 -0.0044042 0.0146983
0 -0.0390375 0.12288
0 -0.113965 0.107065
0 -0.0794 0.0790863
0 0.00332772 -0.00331457
0 0.0840368 -0.0837049
0 0.11377 -0.113321
0 0.0744923 -0.0741981
0 -0.00997181 0.00993243
0 -0.0883871 0.0830362
0 -0.108466 -0.00925269
0 -0.0755688 -0.00683472
0 0.00316715 0.000286449
0 0.0799819 0.00723386
0 0.108281 0.00979331
0 0.0708979 0.00641227
0 -0.00949065 -0.00085837
0 -0.0841223 -0.00717607
0 -0.0371728 -0.119958
0 -0.0258986 -0.0886099
0 0.00108543 0.00371371
0 0.027411 0.0937846
0 0.0371094 0.126967
0 0.0242978 0.083133
0 -0.00325259 -0.0111285
0 -0.02883 -0.0930354
0 0.0566685 -0.157899
0 0.0394814 -0.116636
0 -0.0016547 0.00488829
0 -0.041787 0.123447
0 -0.0565719 0.167124
0 -0.037041 0.109426
0 0.00495845 -0.0146482
0 0.0439502 -0.122461
0 0.116136 -0.10006
0 0.0809124 -0.0697124
0 -0.0033911 0.0029217
0 -0.0856376 0.0737835
0 -0.115937 0.0998892
0 -0.0759112 0.0654035
0 0.0101618 -0.00875515
0 0.0900707 -0.077603
0 0.0776167 0
0 0.0587106 0
0 -0.00246061 0
0 -0.0621392 0
0 -0.084125 0
0 -0.0550817 0
0 0.00737344 0
0 0.0601968 0
0.0242383 0.0305354 0.11231
0.0585676 0.0214965 0.079014
0.0571395 -0.000900978 -0.00331169
0.0210503 -0.0227529 -0.0836319
-0.0278076 -0.0308032 -0.113222
-0.0597976 -0.0201687 -0.0741335
-0.055515 0.00269909 0.0099211
-0.0173915 0.0236822 0.0871039
0.033774 -0.0350682 0.156494
0.081609 -0.0246643 0.110099
0.0796186 0.00103374 -0.00461456
0.0293317 0.0261057 -0.116534
-0.0387474 0.0353423 -0.157766
-0.0833228 0.0231407 -0.103299
-0.0773552 -0.0030969 0.0138242
-0.0242335 -0.0271977 0.121372
0.0228228 -0.0794 0.105751
0.0551474 -0.0558439 0.0743996
0.0538024 0.00234057 -0.0031183
0.0198209 0.0591076 -0.0787481
-0.0261836 0.0800207 -0.10661
-0.0563058 0.0523943 -0.0698042
-0.0522727 -0.0070119 0.00934173
-0.0163758 -0.0615798 0.0820171
-0.00197237 -0.0755688 -0.00913914
-0.00476589 -0.0531493 -0.00642969
-0.00464967 0.00222763 0.000269486
-0.00171295 0.0562557 0.00680548
0.00226281 0.0761598 0.00921336
0.004866 0.0498664 0.00603254
0.00451747 -0.00667355 -0.000807322
0.00141522 -0.0586085 -0.007088
-0.0255712 -0.0258986 -0.118486
-0.0617884 -0.0182151 -0.0833588
-0.0602813 0.000763445 0.0034938
-0.0222079 0.0192796 0.088231
0.0293366 0.026101 0.119448
0.0630861 0.0170899 0.0782099
0.0585674 -0.00228713 -0.0104667
0.0183478 -0.020086 -0.0918936
-0.0336588 0.0394814 -0.155961
-0.081329 0.0277665 -0.109722
-0.0793455 -0.00116377 0.00459874
-0.0292311 -0.0293892 0.116134
0.0386146 -0.0397876 0.157224
0.083037 -0.0260513 0.102944
0.07709 0.00348643 -0.0137768
0.0241509 0.0306204 -0.120958
-0.0213295 0.0809124 -0.0988319
-0.0510503 0.0563722 -0.0688568
-0.0498047 -0.00236261 0.00288585
-0.0183482 -0.0596643 0.072878
0.0242381 -0.0807744 0.0986634
0.0521219 -0.0528879 0.0646008
0.0483892 0.00707977 -0.00864771
0.0153044 0.0627529 -0.0766506
0 -0.00325298 0
0 -0.00246061 0
0 0.000103126 0
0 0.00260431 0
0 0.00352575 0
0 0.00230852 0
0 -0.000309027 0
0 -0.0025229 0
0.033774 -0.00127977 0.0427889
0.081609 -0.000900978 0.0300958
0.0796186 3.77626e-05 -0.0012614
0.0293317 0.00095364 -0.0318549
-0.0387475 0.00129105 -0.0431256
-0.0833228 0.00084533 -0.0282369
-0.0773552 -0.000113127 0.0037789
-0.0242335 -0.000992542 0.0331856
0.0470612 0.00146974 0.0596226
0.113715 0.00103374 0.0419359
0.110942 -4.33271e-05 -0.00175765
0.0408713 -0.00109416 -0.0443869
-0.0539911 -0.00148129 -0.0600915
-0.116103 -0.000969895 -0.0393457
-0.107788 0.000129799 0.00526556
-0.0337673 0.00113988 0.0462413
0.0318016 0.00332772 0.0402901
0.0768431 0.00234057 0.0283382
0.0749692 -9.81e-05 -0.00118774
0.0276189 -0.00247736 -0.0299944
-0.0364846 -0.00335388 -0.0406069
-0.0784571 -0.00219599 -0.0265878
-0.0728377 0.000293888 0.00355822
-0.0228183 0.00258086 0.0312476
-0.00274833 0.00316715 -0.00348191
-0.00664085 0.00222763 -0.00244902
-0.00647888 -9.3366e-05 0.000102645
-0.00238684 -0.00235783 0.00259215
0.00315304 -0.00319207 0.00350931
0.00678032 -0.00209003 0.00229775
0.00629472 0.000279706 -0.000307505
0.00197198 0.00245633 -0.00270045
-0.0356312 0.00108543 -0.0451418
-0.0860967 0.000763445 -0.0317508
-0.0839968 -3.1998e-05 0.00133076
-0.0309448 -0.000808065 0.0336064
0.0408781 -0.00109397 0.045497
0.0879051 -0.000716285 0.0297895
0.0816088 9.58597e-05 -0.00398671
0.0255661 0.000841822 -0.0350104
-0.0469007 -0.0016547 -0.0594193
-0.113325 -0.00116377 -0.0417921
-0.110562 4.87767e-05 0.00175163
-0.0407311 0.00123179 0.0442347
0.0538059 0.00166761 0.0598854
0.115705 0.00109189 0.0392107
0.107418 -0.000146126 -0.00524751
0.0336522 -0.00128332 -0.0460836
-0.0297208 -0.0033911 -0.0376538
-0.0711342 -0.00236261 -0.0262337
-0.0693986 9.90187e-05 0.00109947
-0.0255666 0.00250058 0.0277657
0.0337736 0.00338532 0.0375896
0.0726273 0.00221657 0.0246122
0.0674262 -0.000296719 -0.00329468
0.0213253 -0.00263002 -0.029203
0 -0.0821495 0
0 -0.0621393 0
0 0.00260431 0
0 0.0657681 0
0 0.0890379 0
0 0.0582985 0
0 -0.00780405 0
0 -0.0637123 0
0.0228228 -0.0323187 -0.0526875
0.0551474 -0.0227529 -0.0370581
0.0538024 0.00095364 0.00155321
0.0198209 0.0240828 0.0392239
-0.0261836 0.0326036 0.0531018
-0.0563058 0.0213476 0.0347691
-0.0522727 -0.00285684 -0.00465309
-0.0163758 -0.0250653 -0.0408627
0.0318016 0.0371161 -0.0734155
0.0768431 0.0261057 -0.0516372
0.0749693 -0.00109416 0.00216426
0.0276189 -0.0276315 0.054655
-0.0364846 -0.037408 0.073993
-0.0784571 -0.0244932 0.0484475
-0.0728377 0.00327789 -0.00648366
-0.0228183 0.028786 -0.0569386
0.02149 0.0840368 -0.0496106
0.0519266 0.0591076 -0.0348939
0.0506605 -0.00247736 0.0014625
0.0186635 -0.0625624 0.0369333
-0.0246546 -0.0846976 0.0500009
-0.0530173 -0.0554568 0.0327385
-0.0492202 0.00742169 -0.00438135
-0.0154195 0.0651761 -0.0384763
-0.00185719 0.0799819 0.0042874
-0.00448756 0.0562557 0.00301556
-0.00437812 -0.00235783 -0.00012639
-0.00161292 -0.0595434 -0.00319181
0.00213067 -0.0806108 -0.00432112
0.00458182 -0.0527807 -0.0028293
0.00425366 0.00706359 0.000378641
0.00133257 0.0620312 0.00332516
-0.0240778 0.027411 0.0555848
-0.0581797 0.0192796 0.0390958
-0.0567611 -0.000808065 -0.00163861
-0.0209109 -0.0204065 -0.0413806
0.0276234 -0.0276266 -0.056022
0.0594017 -0.0180888 -0.0366809
0.0551473 0.0024208 0.00490896
0.0172763 0.021259 0.0431096
-0.0316932 -0.041787 0.0731652
-0.0765795 -0.0293892 0.05146
-0.0747122 0.00123179 -0.00215683
-0.0275241 0.0311069 -0.0544676
0.0363595 0.042113 -0.0737393
0.0781879 0.0275739 -0.0482814
0.0725879 -0.00369019 0.00646144
0.0227405 -0.0324086 0.0567444
-0.0200839 -0.0856376 0.0463646
-0.048069 -0.0596643 0.0323025
-0.0468962 0.00250058 -0.00135382
-0.0172767 0.0631486 -0.0341889
0.0228226 0.0854916 -0.0462855
0.049078 0.0559765 -0.0303059
0.0455633 -0.00749322 0.00405686
0.0144106 -0.0664176 0.0359588
0 -0.111215 0
0 -0.084125 0
0 0.00352575 0
0 0.0890379 0
0 0.120541 0
0 0.0789253 0
0 -0.0105652 0
0 -0.0862546 0
-0.00197237 -0.0437535 -0.116204
-0.00476589 -0.0308032 -0.0817328
-0.00464967 0.00129105 0.00342565
-0.00171295 0.0326036 0.0865099
0.00226281 0.0441394 0.117118
0.004866 0.0289007 0.0766843
0.00451747 -0.00386764 -0.0102626
0.00141522 -0.0339337 -0.0901242
-0.00274833 0.0502484 -0.161921
-0.00664085 0.0353423 -0.113888
-0.00647888 -0.00148129 0.00477334
-0.00238684 -0.037408 0.120544
0.00315304 -0.0506435 0.163194
0.00678032 -0.0331593 0.106853
0.00629472 0.00443766 -0.0143
0.00197198 0.0389709 -0.12558
-0.00185719 0.11377 -0.109418
-0.00448756 0.0800207 -0.0769597
-0.00437812 -0.00335388 0.0032256
-0.00161292 -0.0846976 0.0814576
0.00213067 -0.114665 0.110279
0.00458182 -0.0750782 0.0722059
0.00425366 0.0100476 -0.00966324
0.00133257 0.0882363 -0.084861
0.0001605 0.108281 0.00945603
0.000387821 0.0761598 0.00665093
0.000378361 -0.00319207 -0.000278758
0.000139389 -0.0806108 -0.00703967
-0.000184134 -0.109132 -0.00953039
-0.000395966 -0.0714553 -0.00624013
-0.000367605 0.00956278 0.000835105
-0.000115162 0.0839787 0.00733377
0.00208083 0.0371094 0.122594
0.00502796 0.026101 0.0862274
0.00490535 -0.00109397 -0.00361402
0.00180714 -0.0276266 -0.0912668
-0.00238724 -0.0374014 -0.123559
-0.00513356 -0.0244889 -0.0809011
-0.00476588 0.00327731 0.0108269
-0.00149304 0.0287808 0.09508
0.00273896 -0.0565719 0.161369
0.00661807 -0.0397876 0.113497
0.00645668 0.00166761 -0.00475699
0.00237867 0.042113 -0.12013
-0.00314223 0.0570133 -0.162634
-0.00675707 0.03733 -0.106486
-0.00627313 -0.00499583 0.014251
-0.00196526 -0.0438752 0.125152
0.00173567 -0.115937 0.102259
0.00415417 -0.0807744 0.0712444
0.00405281 0.00338532 -0.00298591
0.00149307 0.0854916 -0.075405
-0.00197235 0.11574 -0.102084
-0.00424137 0.0757818 -0.0668408
-0.00393763 -0.0101444 0.00894756
-0.00124538 -0.0899172 0.0793084
0 -0.0728192 0
0 -0.0550817 0
0 0.00230852 0
0 0.0582985 0
0 0.0789253 0
0 0.0516772 0
0 -0.0069177 0
0 -0.0564761 0
-0.0255712 -0.0286481 -0.109233
-0.0617884 -0.0201687 -0.0768296
-0.0602813 0.00084533 0.00322015
-0.0222079 0.0213476 0.0813199
0.0293366 0.0289007 0.110092
0.0630861 0.018923 0.0720839
0.0585674 -0.00253238 -0.00964691
0.0183478 -0.0222184 -0.0847176
-0.0356312 0.0329006 -0.152207
-0.0860967 0.0231407 -0.107055
-0.0839968 -0.000969895 0.00448698
-0.0309448 -0.0244932 0.113313
0.0408781 -0.0331593 0.153404
0.0879051 -0.0217114 0.100443
0.0816088 0.0029056 -0.0134421
0.0255661 0.0255166 -0.118047
-0.0240778 0.0744923 -0.102854
-0.0581797 0.0523943 -0.0723428
-0.0567611 -0.00219599 0.00303209
-0.0209109 -0.0554568 0.0765709
0.0276234 -0.0750782 0.103663
0.0594017 -0.0491582 0.0678744
0.0551473 0.00657876 -0.00908354
0.0172763 0.0577736 -0.0797701
0.00208083 0.0708979 0.00888875
0.00502796 0.0498664 0.00625195
0.00490535 -0.00209003 -0.000262036
0.00180714 -0.0527807 -0.00661733
-0.00238724 -0.0714553 -0.00895864
-0.00513356 -0.0467861 -0.00586576
-0.00476588 0.00626134 0.00078501
-0.00149304 0.0549859 0.00689382
0.0269773 0.0242978 0.11524
0.0651858 0.0170899 0.0810543
0.0635964 -0.000716285 -0.00339721
0.023429 -0.0180888 -0.0857917
-0.0309499 -0.0244889 -0.116146
-0.0665549 -0.0160343 -0.0760481
-0.0617882 0.00214586 0.0101774
-0.0193567 0.0188445 0.0893761
0.0355097 -0.037041 0.151688
0.0858014 -0.0260513 0.106688
0.0837087 0.00109189 -0.0044716
0.0308386 0.0275739 -0.112924
-0.0407379 0.03733 -0.152878
-0.0876035 0.0244422 -0.100099
-0.0813289 -0.00327107 0.013396
-0.0254789 -0.0287277 0.117644
0.0225024 -0.0759112 0.0961243
0.0538575 -0.0528879 0.0669704
0.0525434 0.00221657 -0.00280678
0.0193572 0.0559765 -0.0708814
-0.0255709 0.0757818 -0.0959603
-0.054988 0.0496189 -0.062831
-0.0510501 -0.00664217 0.00841079
-0.0161459 -0.0588742 0.0745507
0 0.00974786 0
0 0.00737344 0
0 -0.000309027 0
0 -0.00780404 0
0 -0.0105652 0
0 -0.00691769 0
0 0.000926028 0
0 0.0075601 0
-0.0336588 0.00383494 -0.0360026
-0.081329 0.00269907 -0.0253238
-0.0793455 -0.000113126 0.00106139
-0.0292311 -0.00285682 0.0268039
0.0386146 -0.00386761 0.0362875
0.083037 -0.00253236 0.0237596
0.07709 0.000338897 -0.00317972
0.0241509 0.00297424 -0.0279224
-0.0469007 -0.0044042 -0.0501666
-0.113325 -0.00309688 -0.0352866
-0.110562 0.000129798 0.00147896
-0.0407311 0.00327786 0.037349
0.0538059 0.00443762 0.0505636
0.115705 0.00290558 0.033107
0.107418 -0.000388855 -0.00443066
0.0336522 -0.00341575 -0.0389075
-0.0316932 -0.00997181 -0.0339001
-0.0765795 -0.00701184 -0.023845
-0.0747122 0.000293885 0.00099941
-0.0275241 0.00742163 0.0252386
0.0363595 0.0100475 0.0341684
0.0781879 0.00657871 0.0223721
0.0725879 -0.000880432 -0.00299402
0.0227405 -0.00773379 -0.0262918
0.00273896 -0.00949065 0.00292968
0.00661807 -0.0066735 0.00206071
0.00645669 0.000279704 -8.63701e-05
0.00237867 0.00706354 -0.00218115
-0.00314223 0.0095627 -0.00295287
-0.00675707 0.00626129 -0.00193342
-0.00627313 -0.000837947 0.000258747
-0.00196526 -0.00736062 0.00227216
0.0355097 -0.00325259 0.0379824
0.0858014 -0.00228711 0.0267164
0.0837087 9.5859e-05 -0.00111976
0.0308386 0.00242078 -0.0282779
-0.0407379 0.00327728 -0.038283
-0.0876035 0.00214584 -0.0250662
-0.0813289 -0.000287178 0.00335456
-0.0254789 -0.0025226 0.0294578
0.0467407 0.00495845 0.0499955
0.112937 0.0034864 0.0351656
0.110182 -0.000146125 -0.00147389
0.0405914 -0.00369016 -0.0372209
-0.0536214 -0.00499579 -0.0503902
-0.115308 -0.00327104 -0.0329935
-0.107049 0.000437766 0.00441547
-0.0335374 0.0038456 0.0387748
0.0296195 0.0101618 0.031682
0.0708916 0.00707977 0.0220731
0.0691619 -0.000296719 -0.0009251
0.0254794 -0.00749322 -0.0233621
-0.0336585 -0.0101444 -0.031628
-0.0723796 -0.00664217 -0.0207087
-0.0671962 0.000889146 0.00277215
-0.0212526 0.00788112 0.0245715
0 0.086402 0
0 0.0601968 0
0 -0.0025229 0
0 -0.0637123 0
0 -0.0862546 0
0 -0.0564761 0
0 0.0075601 0
0 0.0670104 0
-0.0213295 0.0339917 0.0590666
-0.0510503 0.0236822 0.0411521
-0.0498047 -0.000992542 -0.00172472
-0.0183482 -0.0250653 -0.0435554
0.024238 -0.0339337 -0.0589659
0.0521218 -0.0222185 -0.0386085
0.0483892 0.00297425 0.00516828
0.0153044 0.0263628 0.0458101
-0.0297208 -0.0390375 0.0823043
-0.0711342 -0.0271977 0.0573419
-0.0693985 0.00113988 -0.00240325
-0.0255666 0.028786 -0.0606906
0.0337736 0.0389709 -0.0821639
0.0726273 0.0255166 -0.0537977
0.0674262 -0.00341575 0.00720155
0.0213253 -0.0302761 0.0638324
-0.0200839 -0.0883871 0.0556172
-0.048069 -0.0615799 0.0387489
-0.0468961 0.00258086 -0.001624
-0.0172767 0.0651761 -0.0410118
0.0228226 0.0882363 -0.0555224
0.049078 0.0577736 -0.0363538
0.0455633 -0.0077338 0.00486646
0.0144106 -0.06855 0.0431348
0.00173567 -0.0841223 -0.00480649
0.00415417 -0.0586085 -0.00334872
0.00405281 0.00245633 0.000140347
0.00149307 0.0620312 0.00354428
-0.00197235 0.0839788 0.0047983
-0.00424137 0.054986 0.00314173
-0.00393763 -0.00736063 -0.000420564
-0.00124538 -0.0652423 -0.00372775
0.0225024 -0.02883 -0.0623146
0.0538575 -0.020086 -0.043415
0.0525434 0.000841822 0.00181956
0.0193571 0.021259 0.0459504
-0.0255709 0.0287808 0.0622084
-0.0549879 0.0188445 0.0407316
-0.0510501 -0.0025226 -0.00545248
-0.0161459 -0.0223595 -0.0483291
0.0296195 0.0439502 -0.0820236
0.0708916 0.0306204 -0.0571464
0.0691618 -0.00128333 0.00239505
0.0254794 -0.0324086 0.0604837
-0.0336584 -0.0438752 0.0818837
-0.0723796 -0.0287277 0.0536142
-0.0671962 0.0038456 -0.00717699
-0.0212526 0.0340862 -0.0636147
0.0187698 0.0900707 -0.0519781
0.0449238 0.0627529 -0.0362135
0.0438277 -0.00263002 0.00151774
0.0161463 -0.0664176 0.0383283
-0.0213293 -0.0899172 0.0518895
-0.0458668 -0.0588742 0.0339752
-0.0425821 0.00788112 -0.00454804
-0.0134677 0.0698558 -0.0403124
