# vtk DataFile Version 3.0
Velocity field
ASCII
DATASET STRUCTURED_POINTS
DIMENSIONS 10 10 10
SPACING 0.631579 0.631579 0.631579
ORIGIN 0 0 0
POINT_DATA 1000
VECTORS velocity float
0 0.0456089 0
0 0.0368108 0
0 0.0138108 0
0 -0.0145175 0
0 -0.0372449 0
0 -0.0456029 0
0 -0.0363669 0
0 -0.0131004 0
0 0.0152204 0
0 0.0376691 0
0 0.0280127 0.0357266
0 0.0226089 0.0299654
0 0.00848248 0.0112425
0 -0.00891656 -0.0118178
0 -0.0228755 -0.0303187
0 -0.0280089 -0.0371224
0 -0.0223363 -0.0296041
0 -0.00804615 -0.0106642
0 0.00934826 0.01239
0 0.0231361 0.0295071
0 -0.000391092 0.0576695
0 -0.000315649 0.0483699
0 -0.000118426 0.0181476
0 0.000124486 -0.0190762
0 0.000319371 -0.0489403
0 0.00039104 -0.0599228
0 0.000311843 -0.0477867
0 0.000112334 -0.0172141
0 -0.000130514 0.0199998
0 -0.000323009 0.0476301
0 -0.028644 0.0573632
0 -0.0231184 0.0481129
0 -0.00867365 0.0180512
0 0.0091175 -0.0189749
0 0.0233911 -0.0486803
0 0.0286402 -0.0596045
0 0.0228397 -0.0475328
0 0.00822748 -0.0171226
0 -0.00955894 0.0198936
0 -0.0236575 0.047377
0 -0.0458458 0.0349257
0 -0.037002 0.0292937
0 -0.0138825 0.0109905
0 0.0145929 -0.0115529
0 0.0374383 -0.0296391
0 0.0458397 -0.0362903
0 0.0365558 -0.0289404
0 0.0131684 -0.0104251
0 -0.0152995 0.0121122
0 -0.0378647 0.0288456
0 -0.04536 -0.000986395
0 -0.0366099 -0.000827332
0 -0.0137354 -0.000310401
0 0.0144383 0.000326285
0 0.0370416 0.000837087
0 0.0453539 0.00102493
0 0.0361684 0.000817354
0 0.0130289 0.000294434
0 -0.0151373 -0.000342082
0 -0.0374634 -0.000814677
0 -0.0273739 -0.0365179
0 -0.0220934 -0.0306291
0 -0.00828907 -0.0114915
0 0.00871325 0.0120796
0 0.0223539 0.0309903
0 0.0273703 0.0379447
0 0.021827 0.0302598
0 0.00786269 0.0109004
0 -0.00913511 -0.0126644
0 -0.0226085 -0.0301607
0 0.00117318 -0.0579606
0 0.000946873 -0.048614
0 0.000355251 -0.0182391
0 -0.00037343 0.0191725
0 -0.000958038 0.0491873
0 -0.00117303 0.0602252
0 -0.000935455 0.0480278
0 -0.000336977 0.0173009
0 0.00039151 -0.0201008
0 0.000968949 -0.0478704
0 0.0292676 -0.0570416
0 0.0236218 -0.0478432
0 0.0088625 -0.01795
0 -0.00931602 0.0188685
0 -0.0239004 0.0484074
0 -0.0292638 0.0592703
0 -0.023337 0.0472663
0 -0.00840662 0.0170266
0 0.00976707 -0.019782
0 0.0241726 -0.0471114
0 0.0460705 -0.0341155
0 0.0371833 -0.0275345
0 0.0139505 -0.0103305
0 -0.0146644 0.0108591
0 -0.0376218 0.0278592
0 -0.0460643 0.034111
0 -0.0367349 0.0272025
0 -0.0132329 0.0097991
0 0.0153744 -0.0113849
0 0.0380502 -0.0281765
0 0.0368108 0
0 0.0312554 0
0 0.0117265 0
0 -0.0123266 0
0 -0.0316239 0
0 -0.0387205 0
0 -0.0308785 0
0 -0.0111233 0
0 0.0129234 0
0 0.0304025 0
0.00519459 0.0226089 0.0395392
0.0136309 0.0183206 0.0320354
0.0167888 0.00687364 0.0120192
0.0134693 -0.00722538 -0.0126343
0.00495336 -0.0185368 -0.0324134
-0.00547366 -0.0226966 -0.0396872
-0.0137889 -0.0180998 -0.0316494
-0.0167843 -0.00652008 -0.011401
-0.0133041 0.00757507 0.0132458
-0.00467355 0.018673 0.032656
0.00838507 -0.000315649 0.063824
0.0220029 -0.000255707 0.0517113
0.0271002 -9.59378e-05 0.0194014
0.0217421 0.000100847 -0.0203942
0.00799568 0.000258724 -0.0523216
-0.00883555 0.000316784 -0.0640629
-0.022258 0.000252626 -0.0510882
-0.027093 9.10027e-05 -0.0184034
-0.0214754 -0.000105728 0.0213812
-0.007544 -0.000260699 0.0527131
0.00834053 -0.0231184 0.0634849
0.021886 -0.0187289 0.0514366
0.0269563 -0.00702684 0.0192983
0.0216266 0.00738642 -0.0202859
0.00795321 0.0189499 -0.0520436
-0.00878861 0.0232024 -0.0637226
-0.0221397 0.0185033 -0.0508168
-0.0269491 0.00666538 -0.0183056
-0.0213613 -0.0077439 0.0212676
-0.00750393 -0.0190938 0.0524331
0.00507815 -0.037002 0.0386529
0.0133253 -0.0299763 0.0313172
0.0164124 -0.0112467 0.0117498
0.0131674 0.0118222 -0.0123511
0.00484232 0.0303301 -0.0316869
-0.00535096 0.0371364 -0.0387976
-0.0134798 0.0296152 -0.0309399
-0.016408 0.0106682 -0.0111454
-0.0130059 -0.0123944 0.0129488
-0.00456878 -0.0305604 0.031924
-0.00014342 -0.0366099 -0.00109166
-0.000376343 -0.0296587 -0.000884483
-0.00046353 -0.0111275 -0.000331846
-0.000371882 0.011697 0.000348828
-0.00013676 0.0300087 0.000894921
0.000151126 0.0367428 0.00109575
0.000380706 0.0293013 0.000873827
0.000463407 0.0105552 0.000314776
0.000367321 -0.0122631 -0.00036571
0.000129035 -0.0302366 -0.000901618
-0.00530966 -0.0220934 -0.0404151
-0.0139328 -0.0178985 -0.032745
-0.0171606 -0.00671526 -0.0122855
-0.0137677 0.00705891 0.0129142
-0.00506308 0.0181097 0.0331314
0.00559492 0.0221737 0.0405664
0.0140944 0.0176828 0.0323504
0.0171561 0.00636984 0.0116535
0.0135988 -0.00740054 -0.0135392
0.00477707 -0.0182472 -0.0333794
-0.00842739 0.000946873 -0.064146
-0.0221139 0.000767087 -0.0519723
-0.027237 0.000287801 -0.0194993
-0.0218518 -0.000302528 0.0204972
-0.00803603 -0.000776141 0.0525857
0.00888014 -0.000950312 0.0643862
0.0223703 -0.000757846 0.051346
0.0272298 -0.000272997 0.0184963
0.0215838 0.00031717 -0.0214891
0.00758208 0.000782034 -0.0529791
-0.00829377 0.0236218 -0.063129
-0.0217632 0.0191364 -0.051148
-0.026805 0.00717973 -0.01919
-0.0215052 -0.00754714 0.020172
-0.00790858 -0.0193623 0.0517516
0.0087393 -0.0237073 0.063365
0.0220155 -0.0189059 0.0505317
0.0267979 -0.00681042 0.0182029
0.0212415 0.00791241 -0.0211483
0.00746186 0.0195096 -0.0521391
-0.00496035 0.0371833 -0.0377563
-0.0129673 0.0300105 -0.030473
-0.0159714 0.0112594 -0.0114329
-0.0128136 -0.0118356 0.012018
-0.00471221 -0.0303644 0.0308323
0.00520718 -0.0371784 0.0377513
0.0131176 -0.0296486 0.0301055
0.0159672 -0.0106803 0.0108448
0.0126565 0.0124086 -0.0125999
0.0044628 0.0307102 -0.0311835
0 0.0138108 0
0 0.0117265 0
0 0.00439958 0
0 -0.00462472 0
0 -0.0118648 0
0 -0.0145273 0
0 -0.0115851 0
0 -0.00417327 0
0 0.00484863 0
0 0.0114065 0
0.00838507 0.00848248 0.0280974
0.0220029 0.00687364 0.0227627
0.0271002 0.0025789 0.00854028
0.0217421 -0.00271087 -0.00897731
0.00799568 -0.00695477 -0.0230314
-0.00883555 -0.00851547 -0.0281998
-0.022258 -0.00679083 -0.0224885
-0.027093 -0.00244624 -0.00810095
-0.0214754 0.00284206 0.00941178
-0.007544 0.00700579 0.023206
0.0135351 -0.000118426 0.0453546
0.0355169 -9.59378e-05 0.0367434
0.043745 -3.59945e-05 0.0137856
0.0350959 3.78365e-05 -0.0144911
0.0129066 9.707e-05 -0.0371771
-0.0142623 0.000118853 -0.0455199
-0.0359286 9.47819e-05 -0.0363007
-0.0437334 3.4143e-05 -0.0130765
-0.0346655 -3.96677e-05 0.0151924
-0.0121775 -9.78097e-05 0.037459
0.0134632 -0.00867365 0.0451137
0.0353282 -0.00702684 0.0365482
0.0435126 -0.00263637 0.0137124
0.0349095 0.00277128 -0.0144141
0.012838 0.00710977 -0.0369796
-0.0141865 0.00870524 -0.0452781
-0.0357378 0.00694217 -0.0361078
-0.043501 0.00250076 -0.0130071
-0.0344813 -0.0029054 0.0151117
-0.0121128 -0.00716368 0.03726
0.00819711 -0.0138825 0.0274676
0.0215096 -0.0112467 0.0222525
0.0264928 -0.00421962 0.00834883
0.0212547 0.00443555 -0.00877606
0.00781644 0.0113795 -0.0225151
-0.00863749 0.0139331 -0.0275676
-0.021759 0.0111112 -0.0219843
-0.0264858 0.00400257 -0.00791938
-0.020994 -0.00465022 0.0092008
-0.0073749 -0.0114657 0.0226858
-0.000231508 -0.0137354 -0.000775757
-0.00060749 -0.0111275 -0.000628469
-0.000748227 -0.0041749 -0.000235793
-0.00060029 0.00438854 0.00024786
-0.000220757 0.0112589 0.000635886
0.000243945 0.0137854 0.000778582
0.000614532 0.0109935 0.000620896
0.000748028 0.00396015 0.000223664
0.000592927 -0.00460094 -0.000259855
0.000208287 -0.0113442 -0.000640709
-0.00857081 -0.00828907 -0.0287198
-0.0224903 -0.00671526 -0.0232669
-0.0277006 -0.00251948 -0.00872944
-0.0222237 0.00264841 0.00917615
-0.00817277 0.00679452 0.0235415
0.00903125 0.00831926 0.0288244
0.022751 0.00663437 0.0229866
0.0276932 0.00238988 0.0082804
0.0219511 -0.00277658 -0.00962025
0.00771111 -0.00684605 -0.0237201
-0.0136034 0.000355251 -0.0455835
-0.0356961 0.000287801 -0.0369288
-0.0439658 0.000107979 -0.0138552
-0.035273 -0.000113505 0.0145642
-0.0129717 -0.000291198 0.0373647
0.0143342 -0.000356545 0.0457496
0.0361099 -0.000284333 0.0364839
0.0439541 -0.000102425 0.0131425
0.0348404 0.000118998 -0.0152691
0.0122389 0.000293406 -0.0376481
-0.0133877 0.0088625 -0.0448608
-0.03513 0.00717973 -0.0363431
-0.0432685 0.00269374 -0.0136355
-0.0347136 -0.00283159 0.0143332
-0.0127659 -0.00726447 0.0367721
0.0141069 -0.00889467 0.045024
0.0355372 -0.00709324 0.0359053
0.043257 -0.00255518 0.0129341
0.0342878 0.00296863 -0.0150269
0.0120449 0.00731966 -0.0370511
-0.00800697 0.0139505 -0.0268304
-0.0209318 0.0112594 -0.0216547
-0.0257809 0.00422435 -0.00812449
-0.0206836 -0.00444052 0.00854024
-0.00760641 -0.0113922 0.0219101
0.00840539 -0.0139487 0.0268269
0.0211743 -0.0111237 0.0213936
0.0257741 -0.00400705 0.00770657
0.02043 0.00465551 -0.00895373
0.00720383 0.0115219 -0.0221596
0 -0.0145175 0
0 -0.0123266 0
0 -0.00462472 0
0 0.00486138 0
0 0.0124719 0
0 0.0152707 0
0 0.0121779 0
0 0.00438683 0
0 -0.00509675 0
0 -0.0119902 0
0.00834053 -0.00891656 0.00581538
0.021886 -0.00722538 0.00471125
0.0269563 -0.00271087 0.0017676
0.0216266 0.00284959 -0.00185805
0.00795321 0.00731066 -0.00476685
-0.00878861 0.00895122 -0.00583656
-0.0221397 0.00713834 -0.00465449
-0.0269491 0.00257143 -0.00167667
-0.0213613 -0.0029875 0.00194797
-0.00750393 -0.0073643 0.004803
0.0134632 0.000124486 0.00938714
0.0353282 0.000100847 0.00760486
0.0435126 3.78365e-05 0.00285324
0.0349095 -3.97727e-05 -0.00299925
0.012838 -0.000102037 -0.0076946
-0.0141865 -0.000124935 -0.00942135
-0.0357378 -9.9632e-05 -0.00751325
-0.043501 -3.58902e-05 -0.00270647
-0.0344813 4.16976e-05 0.0031444
-0.0121128 0.000102815 0.00775297
0.0133917 0.0091175 0.00933728
0.0351405 0.00738642 0.00756447
0.0432815 0.00277128 0.00283809
0.034724 -0.0029131 -0.00298332
0.0127698 -0.0074736 -0.00765372
-0.0141112 -0.0091507 -0.0093713
-0.0355479 -0.00729741 -0.00747333
-0.04327 -0.00262874 -0.0026921
-0.0342981 0.00305409 0.0031277
-0.0120484 0.00753027 0.00771179
0.00815356 0.0145929 0.00568502
0.0213954 0.0118222 0.00460564
0.0263521 0.00443555 0.00172797
0.0211418 -0.00466253 -0.0018164
0.00777491 -0.0119618 -0.00466
-0.0085916 -0.0146461 -0.00570573
-0.0216434 -0.0116798 -0.00455014
-0.0263451 -0.00420739 -0.00163909
-0.0208825 0.00488818 0.00190431
-0.00733572 0.0120525 0.00469534
-0.000230278 0.0144383 -0.00016056
-0.000604263 0.011697 -0.000130076
-0.000744251 0.00438854 -4.88025e-05
-0.000597101 -0.00461312 5.13e-05
-0.000219585 -0.011835 0.000131611
0.00024265 -0.0144909 0.000161145
0.000611268 -0.011556 0.000128508
0.000744054 -0.0041628 4.62922e-05
0.000589778 0.00483638 -5.37827e-05
0.00020718 0.0119248 -0.000132609
-0.00852528 0.00871325 -0.0059442
-0.0223708 0.00705891 -0.00481561
-0.0275534 0.00264841 -0.00180675
-0.0221056 -0.00278394 0.00189921
-0.00812936 -0.00714222 0.00487243
0.00898329 -0.00874498 0.00596584
0.0226301 -0.00697387 0.00475758
0.0275461 -0.00251218 0.00171381
0.0218345 0.00291867 -0.00199112
0.00767015 0.00719638 -0.00490939
-0.0135312 -0.00037343 -0.00943452
-0.0355065 -0.000302528 -0.00764323
-0.0437322 -0.000113505 -0.00286764
-0.0350856 0.000119313 0.00301439
-0.0129028 0.000306099 0.00773343
0.0142581 0.00037479 0.00946888
0.0359181 0.000298884 0.00755116
0.0437206 0.000107666 0.00272013
0.0346553 -0.000125088 -0.00316027
0.0121739 -0.000308421 -0.0077921
-0.0133166 -0.00931602 -0.00928493
-0.0349434 -0.00754714 -0.00752202
-0.0430386 -0.00283159 -0.00282216
-0.0345292 0.00297649 0.00296658
-0.0126981 0.00763621 0.00761079
0.014032 0.00934985 0.00931872
0.0353485 0.00745622 0.0074314
0.0430272 0.00268593 0.00267699
0.0341057 -0.00312054 -0.00311015
0.0119809 -0.00769422 -0.00766855
-0.00796443 -0.0146644 -0.00555315
-0.0208206 -0.0118356 -0.00448193
-0.025644 -0.00444052 -0.00168154
-0.0205737 0.00466776 0.00176759
-0.007566 0.0119752 0.00453478
0.00836074 0.0146625 0.00555241
0.0210619 0.0116929 0.00442788
0.0256371 0.00421211 0.00159505
0.0203214 -0.00489375 -0.00185317
0.00716556 -0.0121116 -0.00458642
0 -0.0372449 0
0 -0.0316239 0
0 -0.0118648 0
0 0.0124719 0
0 0.0319968 0
0 0.0391771 0
0 0.0312426 0
0 0.0112545 0
0 -0.0130758 0
0 -0.030761 0
0.00507815 -0.0228755 -0.0187103
0.0133253 -0.0185368 -0.0151579
0.0164124 -0.00695477 -0.00568703
0.0131674 0.00731066 0.00597804
0.00484232 0.0187556 0.0153367
-0.00535096 0.0229645 0.0187784
-0.0134798 0.0183135 0.0149752
-0.016408 0.00659702 0.00539449
-0.0130059 -0.00766447 -0.00626736
-0.00456878 -0.0188932 -0.0154531
0.00819711 0.000319371 -0.030202
0.0215096 0.000258724 -0.0244677
0.0264928 9.707e-05 -0.00917995
0.0212547 -0.000102037 0.00964973
0.00781644 -0.000261778 0.0247565
-0.00863748 -0.000320523 0.030312
-0.021759 -0.000255607 0.0241729
-0.0264858 -9.20767e-05 0.00870775
-0.020994 0.000106976 -0.0101167
-0.0073749 0.000263773 -0.0249442
0.00815356 0.0233911 -0.0300415
0.0213954 0.0189499 -0.0243377
0.0263521 0.00710977 -0.00913118
0.0211418 -0.0074736 0.00959846
0.00777491 -0.0191736 0.024625
-0.0085916 -0.0234762 0.030151
-0.0216434 -0.0187216 0.0240445
-0.0263451 -0.00674403 0.00866149
-0.0208825 0.00783528 -0.010063
-0.00733572 0.019319 -0.0248117
0.00496431 0.0374383 -0.0182908
0.0130266 0.0303301 -0.0148181
0.0160445 0.0113795 -0.00555954
0.0128722 -0.0119618 0.00584404
0.00473378 -0.030688 0.014993
-0.00523102 -0.0375747 0.0183575
-0.0131777 -0.0299647 0.0146395
-0.0160402 -0.0107941 0.00527357
-0.0127143 0.0125407 -0.00612688
-0.00446637 0.0309208 -0.0151067
-0.000140205 0.0370416 0.000516582
-0.000367906 0.0300087 0.000418501
-0.000453139 0.0112589 0.000157016
-0.000363546 -0.011835 -0.000165051
-0.000133694 -0.0303629 -0.00042344
0.000147738 -0.0371765 -0.000518464
0.000372171 -0.0296471 -0.00041346
0.000453019 -0.0106797 -0.00014894
0.000359087 0.0124078 0.000173039
0.000126142 0.0305931 0.000426652
-0.00519063 0.0223539 0.0191247
-0.0136205 0.0181097 0.0154936
-0.016776 0.00679452 0.00581299
-0.013459 -0.00714222 -0.00611047
-0.00494958 -0.0183234 -0.0156765
0.00546949 -0.0224354 -0.0191944
0.0137784 -0.0178915 -0.0153069
0.0167715 -0.00644502 -0.00551398
0.013294 0.00748789 0.00640619
0.00466998 0.0184624 0.0157954
-0.00823847 -0.000958038 0.0303544
-0.0216182 -0.000776141 0.0245912
-0.0266265 -0.000291198 0.00922628
-0.021362 0.000306099 -0.0096984
-0.00785588 0.0007853 -0.0248814
0.00868107 0.000961526 -0.0304649
0.0218688 0.00076679 -0.0242949
0.0266194 0.000276219 -0.00875168
0.0211 -0.000320913 0.0101678
0.00741211 -0.000791256 0.0250701
-0.00810785 -0.0239004 0.0298731
-0.0212753 -0.0193623 0.0242012
-0.0262042 -0.00726447 0.00907994
-0.0210232 0.00763621 -0.00954461
-0.00773129 0.0195908 -0.0244868
0.00854339 0.0239871 -0.0299818
0.021522 0.019129 -0.0239096
0.0261973 0.0068908 -0.00861289
0.0207653 -0.00800579 0.0100065
0.00729459 -0.0197396 0.0246726
-0.00484916 -0.0376218 0.0178666
-0.0126766 -0.0303644 0.01442
-0.0156134 -0.0113922 0.00541015
-0.0125264 0.0119752 -0.00568701
-0.00460658 0.0307224 -0.0145901
0.00509046 0.0376168 -0.0178642
0.0128235 0.0299983 -0.0142462
0.0156092 0.0108062 -0.00513186
0.0123727 -0.012555 0.00596235
0.00436276 -0.0310723 0.0147562
0 -0.0456029 0
0 -0.0387205 0
0 -0.0145273 0
0 0.0152707 0
0 0.0391771 0
0 0.0479687 0
0 0.0382537 0
0 0.01378 0
0 -0.01601 0
0 -0.037664 0
-0.00014342 -0.0280089 -0.0360174
-0.000376343 -0.0226966 -0.0291789
-0.00046353 -0.00851547 -0.0109475
-0.000371882 0.00895122 0.0115078
-0.00013676 0.0229645 0.0295233
0.000151126 0.0281179 0.0361485
0.000380706 0.0224232 0.0288273
0.000463407 0.00807743 0.0103844
0.000367321 -0.00938443 -0.0120647
0.000129035 -0.023133 -0.0297472
-0.000231508 0.00039104 -0.0581389
-0.00060749 0.000316784 -0.0471004
-0.000748227 0.000118853 -0.0176714
-0.00060029 -0.000124935 0.0185758
-0.000220757 -0.000320523 0.0476563
0.000243945 -0.000392449 0.0583506
0.000614532 -0.000312967 0.0465329
0.000748028 -0.000112739 0.0167625
0.000592927 0.000130982 -0.0194747
0.000208287 0.000322965 -0.0480178
-0.000230278 0.0286402 -0.0578301
-0.000604263 0.0232024 -0.0468502
-0.000744251 0.00870524 -0.0175776
-0.000597101 -0.0091507 0.0184771
-0.000219585 -0.0234762 0.0474031
0.00024265 -0.0287444 0.0580407
0.000611268 -0.0229229 0.0462857
0.000744053 -0.00825744 0.0166734
0.000589778 0.00959358 -0.0193713
0.00020718 0.0236543 -0.0477627
-0.000140205 0.0458397 -0.03521
-0.000367906 0.0371364 -0.0285249
-0.000453139 0.0139331 -0.0107021
-0.000363546 -0.0146461 0.0112498
-0.000133694 -0.0375747 0.0288615
0.000147738 -0.0460067 0.0353382
0.000372171 -0.0366889 0.0281812
0.000453019 -0.0132164 0.0101516
0.000359087 0.0153549 -0.0117943
0.000126142 0.0378596 -0.0290804
3.95978e-06 0.0453539 0.000994423
1.03907e-05 0.0367428 0.000805618
1.27979e-05 0.0137854 0.000302257
1.02675e-05 -0.0144909 -0.000317725
3.77588e-06 -0.0371765 -0.000815126
-4.17251e-06 -0.0455192 -0.000998046
-1.05111e-05 -0.0363001 -0.00079591
-1.27945e-05 -0.0130763 -0.000286709
-1.01416e-05 0.0151922 0.000333101
-3.56259e-06 0.0374584 0.000821308
0.000146597 0.0273703 0.0368152
0.00038468 0.0221737 0.0298253
0.000473798 0.00831926 0.0111901
0.000380121 -0.00874498 -0.0117627
0.000139789 -0.0224354 -0.0301773
-0.000154473 -0.02747 -0.0369492
-0.000389138 -0.0219065 -0.0294659
-0.000473672 -0.00789133 -0.0106144
-0.000375458 0.00916821 0.012332
-0.000131893 0.0226055 0.0304062
0.000232676 -0.00117303 0.0584323
0.000610556 -0.000950312 0.0473381
0.000752003 -0.000356545 0.0177606
0.00060332 0.00037479 -0.0186695
0.000221871 0.000961526 -0.0478968
-0.000245177 0.0011773 -0.0586451
-0.000617633 0.000938863 -0.0467677
-0.000751803 0.000338204 -0.0168471
-0.00059592 -0.000392928 0.019573
-0.000209338 -0.000968819 0.0482601
0.000228987 -0.0292638 0.0575059
0.000600872 -0.0237073 0.0465873
0.000740075 -0.00889467 0.017479
0.000593751 0.00934985 -0.0183734
0.000218353 0.0239871 -0.0471371
-0.000241288 0.02937 -0.057715
-0.000607838 0.0234217 -0.0460261
-0.000739879 0.00843714 -0.0165799
-0.000586469 -0.00980234 0.0192626
-0.000206019 -0.0241693 0.0474949
0.000136953 -0.0460643 0.0343932
0.000358022 -0.0371784 0.0277586
0.000440963 -0.0139487 0.0104146
0.000353778 0.0146625 -0.0109475
0.000130102 0.0376168 -0.028086
-0.000143768 0.0460582 -0.0343887
-0.000362171 0.0367301 -0.0274239
-0.000440846 0.0132312 -0.00987886
-0.000349439 -0.0153724 0.0114776
-0.000123216 -0.0380452 0.0284058
0 -0.0363669 0
0 -0.0308785 0
0 -0.0115851 0
0 0.0121779 0
0 0.0312426 0
0 0.0382537 0
0 0.0305062 0
0 0.0109892 0
0 -0.0127675 0
0 -0.0300359 0
-0.00530966 -0.0223363 -0.0394287
-0.0139328 -0.0180998 -0.0319426
-0.0171606 -0.00679083 -0.0119844
-0.0137677 0.00713834 0.0125977
-0.00506308 0.0183135 0.0323195
0.00559492 0.0224232 0.0395723
0.0140944 0.0178818 0.0315577
0.0171561 0.00644152 0.011368
0.0135988 -0.0074838 -0.0132074
0.00477707 -0.0184478 -0.0325647
-0.00857081 0.000311843 -0.0636455
-0.0224903 0.000252626 -0.0515615
-0.0277006 9.47819e-05 -0.0193452
-0.0222237 -9.9632e-05 0.0203351
-0.00817277 -0.000255607 0.05217
0.00903125 -0.000312967 0.0638773
0.022751 -0.000249582 0.0509402
0.0276932 -8.99065e-05 0.0183501
0.0219511 0.000104454 -0.0213193
0.00771111 0.000257555 -0.0525657
-0.00852528 0.0228397 -0.0633074
-0.0223708 0.0185033 -0.0512876
-0.0275534 0.00694217 -0.0192424
-0.0221056 -0.00729741 0.0202271
-0.00812936 -0.0187216 0.0518929
0.00898329 -0.0229229 0.063538
0.0226301 -0.0182803 0.0506696
0.0275461 -0.00658508 0.0182526
0.0218345 0.00765059 -0.021206
0.00767015 0.0188636 -0.0522864
-0.00519063 0.0365558 -0.0385448
-0.0136205 0.0296152 -0.0312265
-0.016776 0.0111112 -0.0117158
-0.013459 -0.0116798 0.0123153
-0.00494958 -0.0299647 0.0315951
0.00546949 -0.0366889 0.0386852
0.0137784 -0.0292583 0.0308503
0.0167715 -0.0105397 0.0111131
0.013294 0.0122451 -0.0129113
0.00466998 0.0301919 -0.0318347
0.000146597 0.0361684 0.00108861
0.00038468 0.0293013 0.000881921
0.000473798 0.0109935 0.000330885
0.000380121 -0.011556 -0.000347818
0.000139789 -0.0296471 -0.000892329
-0.000154473 -0.0363001 -0.00109257
-0.000389138 -0.0289483 -0.000871296
-0.000473672 -0.010428 -0.000313864
-0.000375458 0.0121153 0.000364651
-0.000131893 0.029872 0.000899097
0.00542727 0.021827 0.040302
0.0142415 0.0176828 0.0326501
0.0175407 0.00663437 0.0122499
0.0140727 -0.00697387 -0.0128767
0.00517524 -0.0178915 -0.0330354
-0.00571885 -0.0219065 -0.0404488
-0.0144065 -0.0174698 -0.0322568
-0.0175361 -0.00629309 -0.0116198
-0.0139001 0.00731138 0.0134999
-0.00488289 0.0180272 0.033286
0.00861406 -0.000935455 0.0639667
0.0226038 -0.000757846 0.0518217
0.0278404 -0.000284333 0.0194428
0.0223359 0.000298884 -0.0204378
0.00821402 0.00076679 -0.0524333
-0.00907683 0.000938863 -0.0641997
-0.0228658 0.000748714 -0.0511973
-0.027833 0.000269708 -0.0184427
-0.0220619 -0.000313349 0.0214269
-0.00775002 -0.000772605 0.052831
0.00847748 -0.023337 0.0629525
0.0222453 -0.0189059 0.0509998
0.0273988 -0.00709324 0.0191344
0.0219816 0.00745622 -0.0201136
0.00808374 0.019129 -0.0516017
-0.00893288 0.0234217 -0.0631815
-0.0225032 0.0186781 -0.0503853
-0.0273915 0.00672836 -0.0181502
-0.021712 -0.00781708 0.021087
-0.00762715 -0.0192743 0.0519933
0.00507023 -0.0367349 0.0376507
0.0132546 -0.0296486 0.0303878
0.0163252 -0.0111237 0.011401
0.0130974 0.0116929 -0.0119844
0.00481659 0.0299983 -0.0307461
-0.00532252 0.0367301 -0.0376457
-0.0134082 0.0292911 -0.0300214
-0.0163208 0.0105515 -0.0108145
-0.0129368 -0.012259 0.0125646
-0.00456166 -0.0303399 0.0310963
0 -0.0131004 0
0 -0.0111233 0
0 -0.00417327 0
0 0.00438683 0
0 0.0112545 0
0 0.01378 0
0 0.0109892 0
0 0.0039586 0
0 -0.00459922 0
0 -0.0108198 0
-0.00842739 -0.00804615 -0.0276281
-0.0221139 -0.00652008 -0.0223825
-0.027237 -0.00244624 -0.00839763
-0.0218518 0.00257143 0.00882735
-0.00803603 0.00659702 0.0226467
0.00888014 0.00807743 0.0277287
0.0223703 0.00644152 0.0221128
0.0272298 0.00232041 0.00796567
0.0215838 -0.00269587 -0.00925458
0.00758208 -0.00664542 -0.0228184
-0.0136034 0.000112334 -0.0445971
-0.0356961 9.10028e-05 -0.0361297
-0.0439658 3.4143e-05 -0.0135554
-0.035273 -3.58902e-05 0.0142491
-0.0129717 -9.20767e-05 0.0365561
0.0143342 -0.000112739 0.0447596
0.0361099 -8.99065e-05 0.0356944
0.0439541 -3.23867e-05 0.0128581
0.0348404 3.76272e-05 -0.0149387
0.0122389 9.27785e-05 -0.0368334
-0.0135312 0.00822748 -0.0443602
-0.0355065 0.00666538 -0.0359378
-0.0437322 0.00250076 -0.0134834
-0.0350856 -0.00262874 0.0141734
-0.0129028 -0.00674403 0.0363619
0.0142581 -0.00825744 0.0445218
0.0359181 -0.00658508 0.0355048
0.0437206 -0.00237212 0.0127898
0.0346553 0.00275595 -0.0148593
0.0121739 0.00679519 -0.0366377
-0.00823847 0.0131684 -0.0270088
-0.0216182 0.0106682 -0.0218808
-0.0266265 0.00400257 -0.00820937
-0.021362 -0.00420739 0.00862948
-0.00785588 -0.0107941 0.022139
0.00868107 -0.0132164 0.0271071
0.0218688 -0.0105397 0.0216172
0.0266194 -0.00379668 0.00778709
0.0211 0.00441101 -0.00904711
0.00741211 0.010876 -0.0223069
0.000232676 0.0130289 0.0007628
0.000610556 0.0105552 0.000617972
0.000752003 0.00396015 0.000231855
0.00060332 -0.0041628 -0.000243719
0.000221871 -0.0106797 -0.000625264
-0.000245177 -0.0130763 -0.00076558
-0.000617633 -0.010428 -0.000610526
-0.000751803 -0.00375645 -0.000219929
-0.00059592 0.00436427 0.000255515
-0.000209338 0.0107607 0.000630007
0.00861406 0.00786269 0.0282401
0.0226038 0.00636984 0.0228783
0.0278404 0.00238988 0.00858363
0.0223359 -0.00251218 -0.00902287
0.00821402 -0.00644502 -0.0231483
-0.00907683 -0.00789133 -0.028343
-0.0228658 -0.00629309 -0.0226027
-0.027833 -0.00226695 -0.0081421
-0.0220619 0.00263376 0.00945958
-0.00775002 0.0064939 0.0233239
0.0136721 -0.000336977 0.0448222
0.0358763 -0.000272997 0.036312
0.0441877 -0.000102425 0.0136238
0.0354511 0.000107666 -0.0143209
0.0130372 0.000276219 -0.0367406
-0.0144066 0.000338204 -0.0449855
-0.0362921 0.000269708 -0.0358745
-0.0441759 9.71562e-05 -0.012923
-0.0350162 -0.000112877 0.0150141
-0.0123007 -0.000278314 0.0370192
0.0134553 -0.00840662 0.0441115
0.0353073 -0.00681042 0.0357361
0.0434868 -0.00255518 0.0134077
0.0348888 0.00268593 -0.0140939
0.0128304 0.0068908 -0.0361578
-0.0141781 0.00843714 -0.044272
-0.0357166 0.00672836 -0.0353056
-0.0434753 0.00242374 -0.012718
-0.0344609 -0.00281593 0.0147759
-0.0121057 -0.00694314 0.0364323
0.00804737 -0.0132329 0.0263823
0.0210374 -0.0106803 0.021293
0.025911 -0.00400705 0.00798879
0.020788 0.00421211 -0.0083976
0.0076448 0.0108062 -0.0215441
-0.00844781 0.0132312 -0.0263788
-0.0212812 0.0105515 -0.0210363
-0.0259041 0.00380093 -0.00757786
-0.0205331 -0.00441604 0.00880418
-0.00724018 -0.0109293 0.0217895
0 0.0152204 0
0 0.0129234 0
0 0.00484863 0
0 -0.00509675 0
0 -0.0130758 0
0 -0.01601 0
0 -0.0127675 0
0 -0.00459922 0
0 0.00534351 0
0 0.0125707 0
-0.00829377 0.00934826 -0.00516845
-0.0217632 0.00757506 -0.00418727
-0.026805 0.00284206 -0.001571
-0.0215053 -0.0029875 0.0016514
-0.00790858 -0.00766446 0.00423669
0.0087393 -0.00938442 0.00518743
0.0220155 -0.0074838 0.00413682
0.0267979 -0.00269587 0.0014902
0.0212415 0.00313208 -0.00173132
0.00746186 0.00772085 -0.00426869
-0.0133877 -0.000130514 -0.00834287
-0.03513 -0.000105728 -0.00675905
-0.0432685 -3.96677e-05 -0.00253591
-0.0347136 4.16976e-05 0.00266567
-0.0127659 0.000106976 0.00683882
0.0141069 0.000130982 0.00837351
0.0355372 0.000104454 0.00667762
0.043257 3.76272e-05 0.00240546
0.0342878 -4.37156e-05 -0.00279469
0.0120449 -0.000107793 -0.00689049
-0.0133166 -0.00955894 -0.00829855
-0.0349434 -0.00774388 -0.00672314
-0.0430386 -0.0029054 -0.00252244
-0.0345292 0.00305408 0.00265151
-0.0126981 0.00783527 0.00680249
0.014032 0.00959357 0.00832902
0.0353485 0.00765058 0.00664215
0.0430272 0.00275595 0.00239268
0.0341057 -0.00320189 -0.00277984
0.0119809 -0.00789485 -0.00685389
-0.00810785 -0.0152995 -0.00505259
-0.0212753 -0.0123944 -0.0040934
-0.0262042 -0.00465021 -0.00153579
-0.0210232 0.00488817 0.00161438
-0.00773129 0.0125407 0.00414171
0.0085434 0.0153549 0.00507114
0.021522 0.0122451 0.00404408
0.0261973 0.00441101 0.00145679
0.0207653 -0.00512475 -0.00169251
0.00729459 -0.012636 -0.004173
0.000228987 -0.0151373 0.000142699
0.000600872 -0.012263 0.000115609
0.000740075 -0.00460093 4.33748e-05
0.000593751 0.00483638 -4.55944e-05
0.000218353 0.0124078 -0.000116973
-0.000241288 0.0151922 -0.000143222
-0.000607837 0.0121153 -0.000114216
-0.000739879 0.00436427 -4.11437e-05
-0.000586469 -0.00507045 4.7801e-05
-0.000206019 -0.0125021 0.000117857
0.00847748 -0.00913511 0.00528293
0.0222453 -0.00740054 0.00428001
0.0273988 -0.00277658 0.0016058
0.0219816 0.00291867 -0.00168798
0.00808374 0.00748788 -0.00433053
-0.00893288 0.0091682 -0.00530232
-0.0225032 0.00731137 -0.00422845
-0.0273915 0.00263376 -0.00152321
-0.021712 -0.00305992 0.00176967
-0.00762715 -0.00754481 0.00436325
0.0134553 0.00039151 0.00838497
0.0353073 0.00031717 0.00679316
0.0434868 0.000118998 0.00254871
0.0348888 -0.000125087 -0.00267913
0.0128304 -0.000320913 -0.00687333
-0.0141781 -0.000392928 -0.00841576
-0.0357166 -0.000313348 -0.00671131
-0.0434753 -0.000112877 -0.0024176
-0.0344609 0.000131141 0.00280879
-0.0121057 0.000323353 0.00692526
0.013242 0.00976707 0.00825203
0.0347473 0.0079124 0.00668542
0.0427972 0.00296863 0.00250828
0.0343355 -0.00312054 -0.00263664
0.0126269 -0.00800578 -0.00676432
-0.0139533 -0.00980232 -0.00828229
-0.0351501 -0.00781707 -0.00660488
-0.0427858 -0.00281592 -0.00237926
-0.0339144 0.00327156 0.00276425
-0.0119137 0.00806675 0.00681546
0.00791978 0.0153744 0.00493539
0.0207038 0.0124086 0.00398333
0.0255002 0.00465551 0.00149448
0.0204584 -0.00489375 -0.00157096
0.00752359 -0.012555 -0.0040303
-0.00831387 -0.0153724 -0.00493473
-0.0209438 -0.012259 -0.0039353
-0.0254934 -0.00441604 -0.0014176
-0.0202075 0.00513069 0.00164702
-0.00712539 0.012698 0.00407621
0 0.0376691 0
0 0.0304025 0
0 0.0114065 0
0 -0.0119902 0
0 -0.030761 0
0 -0.037664 0
0 -0.0300359 0
0 -0.0108198 0
0 0.0125707 0
0 0.0311114 0
-0.00496035 0.0231361 0.0192853
-0.0129673 0.018673 0.0155651
-0.0159714 0.0070058 0.00583975
-0.0128136 -0.00736431 -0.00613859
-0.0047122 -0.0188932 -0.0157486
0.00520718 -0.023133 -0.0192827
0.0131176 -0.0184479 -0.0153774
0.0159671 -0.00664543 -0.00553936
0.0126564 0.00772086 0.0064358
0.0044628 0.0191084 0.015928
-0.00800697 -0.000323009 0.0311302
-0.0209317 -0.000260699 0.025125
-0.0257809 -9.78098e-05 0.00942648
-0.0206836 0.000102815 -0.00990887
-0.0076064 0.000263773 -0.0254213
0.00840539 0.000322965 -0.031126
0.0211743 0.000257555 -0.0248221
0.025774 9.27785e-05 -0.0089416
0.0204299 -0.000107793 0.0103886
0.00720383 -0.000266777 0.0257108
-0.00796443 -0.0236575 0.0309648
-0.0208205 -0.0190938 0.0249916
-0.0256439 -0.00716368 0.00937641
-0.0205737 0.00753027 -0.00985623
-0.007566 0.019319 -0.0252863
0.00836074 0.0236543 -0.0309607
0.0210618 0.0188636 -0.0246902
0.0256371 0.00679519 -0.0088941
0.0203214 -0.00789485 0.0103334
0.00716556 -0.019539 0.0255742
-0.00484916 -0.0378647 0.018853
-0.0126766 -0.0305604 0.0152162
-0.0156134 -0.0114657 0.00570885
-0.0125263 0.0120525 -0.00600099
-0.00460657 0.0309208 -0.0153956
0.00509045 0.0378596 -0.0188505
0.0128235 0.0301919 -0.0150327
0.0156092 0.010876 -0.00541519
0.0123727 -0.012636 0.00629153
0.00436276 -0.0312729 0.0155709
0.000136953 -0.0374634 -0.000532458
0.000358022 -0.0302366 -0.000429745
0.000440963 -0.0113442 -0.000161233
0.000353777 0.0119248 0.000169484
0.000130102 0.0305931 0.000434813
-0.000143768 0.0374584 0.000532387
-0.000362171 0.029872 0.000424563
-0.000440846 0.0107607 0.000152939
-0.000349439 -0.0125021 -0.00017769
-0.000123216 -0.0309415 -0.000439765
0.00507023 -0.0226085 -0.0197125
0.0132545 -0.0182472 -0.0159099
0.0163252 -0.00684605 -0.00596911
0.0130974 0.00719639 0.00627456
0.00481658 0.0184624 0.0160975
-0.00532252 0.0226055 0.0197098
-0.0134082 0.0180272 0.015718
-0.0163208 0.0064939 0.00566206
-0.0129368 -0.00754481 -0.00657836
-0.00456166 -0.0186727 -0.0162808
0.00804737 0.000968949 -0.0312872
0.0210374 0.000782035 -0.0252518
0.025911 0.000293406 -0.00947406
0.020788 -0.000308421 0.00995887
0.00764479 -0.000791257 0.0255496
-0.00844781 -0.00096882 0.0312831
-0.0212812 -0.000772605 0.0249473
-0.0259041 -0.000278314 0.00898672
-0.020533 0.000323353 -0.010441
-0.00724018 0.000800268 -0.0258406
0.00791978 0.0241726 -0.0307912
0.0207038 0.0195096 -0.0248515
0.0255002 0.00731966 -0.00932384
0.0204584 -0.00769423 0.00980097
0.00752358 -0.0197396 0.0251445
-0.00831386 -0.0241693 0.0307871
-0.0209437 -0.0192743 0.0245518
-0.0254934 -0.00694314 0.00884423
-0.0202075 0.00806675 -0.0102755
-0.00712539 0.0199644 -0.0254309
0.00473668 0.0380502 -0.0184157
0.0123826 0.0307102 -0.0148632
0.0152512 0.0115219 -0.00557642
0.0122358 -0.0121116 0.00586179
0.00449972 -0.0310723 0.0150385
-0.00497238 -0.0380452 0.0184132
-0.0125261 -0.0303399 0.014684
-0.0152472 -0.0109293 0.00528958
-0.0120857 0.012698 -0.00614559
-0.00426156 0.0314262 -0.0152097
