# vtk DataFile Version 3.0
Velocity field
ASCII
DATASET STRUCTURED_POINTS
DIMENSIONS 5 5 5
SPACING 1.33333 1.33333 1.33333
ORIGIN 0 0 0
POINT_DATA 125
VECTORS velocity float
0 0.0737647 0
0 0.0173522 0
0 -0.0656009 0
0 -0.0482158 0
0 0.0429166 0
0 -0.0390602 0.128107
0 -0.00918843 0.0347305
0 0.0347373 -0.1313
0 0.0255315 -0.0965041
0 -0.0227254 0.0745332
0 -0.0921415 0.0602712
0 -0.0216751 0.0163398
0 0.0819439 -0.0617735
0 0.0602277 -0.0454027
0 -0.0536083 0.035066
0 -0.00429009 -0.099751
0 -0.00100919 -0.027043
0 0.00381529 0.102237
0 0.00280419 0.0751432
0 -0.00249599 -0.0580355
0 0.0901232 -0.107202
0 0.0212003 -0.0252178
0 -0.0801489 0.0953372
0 -0.0589084 0.0700716
0 0.052434 -0.0623703
0 0.0173522 0
0 0.00519399 0
0 -0.0196361 0
0 -0.0144323 0
0 0.0100956 0
0.0548294 -0.00918843 0.044989
0.0812754 -0.00217733 0.010674
-0.0170336 0.00823175 -0.040355
-0.0892892 0.00605025 -0.0296607
-0.0247751 -0.00534586 0.0261748
0.0257959 -0.0216751 0.0211662
0.0382381 -0.00513965 0.00502187
-0.00801386 0.0194312 -0.018986
-0.0420086 0.0142818 -0.0139546
-0.0116561 -0.0126107 0.0123146
-0.0426931 -0.00100919 -0.0350308
-0.0632847 -0.000239336 -0.00831132
0.0132631 0.000904851 0.0314223
0.0695249 0.000665059 0.0230952
0.0192912 -0.00058715 -0.0203811
-0.0458819 0.0212003 -0.0376473
-0.0674682 0.00498712 -0.00885606
0.0141398 -0.018854 0.0334808
0.0741206 -0.0138575 0.0246079
0.0207321 0.0123344 -0.0219034
0 -0.0656009 0
0 -0.0196361 0
0 0.0742353 0
0 0.054562 0
0 -0.0381668 0
0.0257959 0.0347373 -0.106941
0.0382381 0.00823175 -0.0253588
-0.00801386 -0.0311213 0.0958726
-0.0420086 -0.0228739 0.0704657
-0.0116561 0.0202103 -0.0622186
0.0121363 0.0819439 -0.050313
0.0179901 0.0194312 -0.0119306
-0.00377034 -0.0734628 0.0451056
-0.0197639 -0.0539945 0.0331524
-0.00548389 0.0476752 -0.0292723
-0.020086 0.00381529 0.0832699
-0.029774 0.000904851 0.0197455
0.00623999 -0.00342093 -0.0746511
0.0327098 -0.00251436 -0.0548678
0.00907604 0.00221975 0.0484467
-0.0215863 -0.0801489 0.0894895
-0.0317421 -0.018854 0.0210513
0.00665243 0.0712786 -0.0795854
0.0348719 0.0523888 -0.0584942
0.00975394 -0.0466309 0.0520653
0 -0.0482158 0
0 -0.0144323 0
0 0.054562 0
0 0.0401024 0
0 -0.0280521 0
-0.0426931 0.0255315 -0.0953021
-0.0632847 0.00605025 -0.0225989
0.0132631 -0.0228739 0.0854391
0.0695249 -0.0168122 0.0627968
0.0192912 0.0148543 -0.0554471
-0.020086 0.0602277 -0.0448372
-0.029774 0.0142818 -0.0106323
0.00623999 -0.0539945 0.0401968
0.0327098 -0.0396855 0.0295444
0.00907604 0.0350407 -0.0260865
0.0332431 0.00280419 0.0742072
0.0492767 0.000665059 0.0175966
-0.0103273 -0.00251436 -0.0665269
-0.0541354 -0.00184804 -0.0488966
-0.0150212 0.00163149 0.043174
0.0357261 -0.0589084 0.0797499
0.0525343 -0.0138575 0.0187602
-0.01101 0.0523888 -0.0709237
-0.0577142 0.0385051 -0.052128
-0.0161431 -0.0342731 0.0463988
0 0.0429166 0
0 0.0100956 0
0 -0.0381668 0
0 -0.0280521 0
0 0.024969 0
-0.0458819 -0.0227254 0.0621037
-0.0674682 -0.00534586 0.0146091
0.0141398 0.0202103 -0.0552305
0.0741206 0.0148543 -0.0405937
0.0207321 -0.0132217 0.0361321
-0.0215863 -0.0536083 0.0292182
-0.0317421 -0.0126107 0.00687323
0.00665242 0.0476753 -0.0259846
0.0348719 0.0350407 -0.0190983
0.00975394 -0.0311895 0.0169993
0.0357261 -0.00249599 -0.0483572
0.0525343 -0.000587151 -0.0113754
-0.01101 0.00221975 0.0430054
-0.0577142 0.00163149 0.0316084
-0.0161431 -0.00145218 -0.0281344
0.0383945 0.052434 -0.0519691
0.0564582 0.0123344 -0.0122251
-0.0118324 -0.0466309 0.0462175
-0.062025 -0.0342731 0.0339693
-0.0173489 0.0305063 -0.0302358
