# vtk DataFile Version 3.0
Velocity field
ASCII
DATASET STRUCTURED_POINTS
DIMENSIONS 8 8 8
SPACING 0.8 0.8 0.8
ORIGIN 0 0 0
POINT_DATA 512
VECTORS velocity float
0 0.000126646 0
0 8.8235e-05 0
0 -3.698e-06 0
0 -9.33879e-05 0
0 -0.00012643 0
0 -8.27813e-05 0
0 1.10814e-05 0
0 9.82222e-05 0
0 4.98242e-05 0.000129261
0 3.47128e-05 9.54818e-05
0 -1.45484e-06 -4.00172e-06
0 -3.674e-05 -0.000101058
0 -4.97392e-05 -0.000136814
0 -3.25673e-05 -8.95801e-05
0 4.35957e-06 1.19915e-05
0 3.86419e-05 0.00010025
0 -5.72202e-05 0.000180114
0 -3.98657e-05 0.000133046
0 1.6708e-06 -5.57605e-06
0 4.21938e-05 -0.000140815
0 5.71226e-05 -0.000190638
0 3.74016e-05 -0.000124822
0 -5.00672e-06 1.67092e-05
0 -4.4378e-05 0.00013969
0 -0.000129556 0.000121712
0 -9.02622e-05 8.99057e-05
0 3.78296e-06 -3.76802e-06
0 9.55335e-05 -9.51561e-05
0 0.000129335 -0.000128824
0 8.46832e-05 -8.43487e-05
0 -1.1336e-05 1.12912e-05
0 -0.000100479 9.43959e-05
0 -0.000123304 -1.05185e-05
0 -8.59069e-05 -7.76974e-06
0 3.60043e-06 3.25636e-07
0 9.09238e-05 8.22349e-06
0 0.000123094 1.11331e-05
0 8.0597e-05 7.2895e-06
0 -1.0789e-05 -9.758e-07
0 -9.56306e-05 -8.15779e-06
0 -4.22583e-05 -0.000136369
0 -2.94416e-05 -0.000100732
0 1.23392e-06 4.22177e-06
0 3.1161e-05 0.000106615
0 4.21862e-05 0.000144337
0 2.76218e-05 9.4506e-05
0 -3.69756e-06 -1.26509e-05
0 -3.27741e-05 -0.000105763
0 6.44211e-05 -0.0001795
0 4.48826e-05 -0.000132592
0 -1.88107e-06 5.55703e-06
0 -4.75037e-05 0.000140335
0 -6.43112e-05 0.000189988
0 -4.21084e-05 0.000124396
0 5.63679e-06 -1.66522e-05
0 4.99628e-05 -0.000139214
0 0.000132023 -0.000113749
0 9.19816e-05 -7.92494e-05
0 -3.85502e-06 3.32141e-06
0 -9.73532e-05 8.38775e-05
0 -0.000131798 0.000113555
0 -8.62963e-05 7.4351e-05
0 1.15519e-05 -9.9529e-06
0 0.000102393 -8.82195e-05
0 8.8235e-05 0
0 6.67425e-05 0
0 -2.79723e-06 0
0 -7.06402e-05 0
0 -9.56338e-05 0
0 -6.26172e-05 0
0 8.38217e-06 0
0 6.84321e-05 0
2.75543e-05 3.47128e-05 0.000127675
6.59495e-05 2.4185e-05 8.89529e-05
6.43404e-05 -1.01361e-06 -3.72809e-06
2.37032e-05 -2.55974e-05 -9.41477e-05
-3.1312e-05 -3.46541e-05 -0.000127459
-6.73338e-05 -2.26901e-05 -8.34548e-05
-6.25118e-05 3.03738e-06 1.11716e-05
-1.97707e-05 2.69221e-05 9.90202e-05
3.83945e-05 -3.98657e-05 0.000177904
9.18949e-05 -2.7775e-05 0.000123948
8.96527e-05 1.16407e-06 -5.19477e-06
3.30283e-05 2.93971e-05 -0.000131187
-4.36306e-05 3.97982e-05 -0.000177602
-9.38237e-05 2.60583e-05 -0.000116287
-8.71047e-05 -3.48826e-06 1.55666e-05
-2.75488e-05 -3.09185e-05 0.000137976
2.59451e-05 -9.02622e-05 0.000120219
6.20981e-05 -6.28871e-05 8.37581e-05
6.05829e-05 2.63565e-06 -3.51037e-06
2.23189e-05 6.65596e-05 -8.86495e-05
-2.94834e-05 9.01094e-05 -0.000120015
-6.34015e-05 5.9e-05 -7.85811e-05
-5.88611e-05 -7.89797e-06 1.05192e-05
-1.86161e-05 -7.00043e-05 9.32375e-05
-2.2422e-06 -8.59069e-05 -1.03894e-05
-5.36659e-06 -5.98526e-05 -7.23846e-06
-5.23563e-06 2.50847e-06 3.0337e-07
-1.92882e-06 6.3348e-05 7.66118e-06
2.54799e-06 8.57615e-05 1.03718e-05
5.47922e-06 5.61532e-05 6.79105e-06
5.08683e-06 -7.51687e-06 -9.09076e-07
1.60883e-06 -6.66265e-05 -8.05767e-06
-2.90694e-05 -2.94416e-05 -0.000134695
-6.9576e-05 -2.05124e-05 -9.38443e-05
-6.78784e-05 8.59692e-07 3.93309e-06
-2.50066e-05 2.17103e-05 9.93247e-05
3.30338e-05 2.93918e-05 0.000134467
7.10364e-05 1.92446e-05 8.80438e-05
6.59492e-05 -2.57615e-06 -1.17859e-05
2.08579e-05 -2.28339e-05 -0.000104465
-3.82635e-05 4.48826e-05 -0.000177297
-9.15816e-05 3.12704e-05 -0.000123525
-8.93469e-05 -1.31057e-06 5.17705e-06
-3.29157e-05 -3.30965e-05 0.000130739
4.34818e-05 -4.48066e-05 0.000176997
9.35038e-05 -2.93376e-05 0.00011589
8.68076e-05 3.92724e-06 -1.55135e-05
2.74548e-05 3.48094e-05 -0.000137505
-2.42475e-05 9.19816e-05 -0.000112353
-5.80343e-05 6.40842e-05 -7.82768e-05
-5.66182e-05 -2.68582e-06 3.28064e-06
-2.08583e-05 -6.78267e-05 8.28481e-05
2.75539e-05 -9.18247e-05 0.000112161
5.92524e-05 -6.01232e-05 7.34385e-05
5.50091e-05 8.04831e-06 -9.83076e-06
1.73981e-05 7.13378e-05 -8.71368e-05
0 -3.698e-06 0
0 -2.79723e-06 0
0 1.17234e-07 0
0 2.96059e-06 0
0 4.00809e-06 0
0 2.62434e-06 0
0 -3.51304e-07 0
0 -2.86804e-06 0
3.83945e-05 -1.45484e-06 4.86426e-05
9.18949e-05 -1.01361e-06 3.389e-05
8.96527e-05 4.24813e-08 -1.42036e-06
3.30283e-05 1.07281e-06 -3.58692e-05
-4.36306e-05 1.45238e-06 -4.85602e-05
-9.38237e-05 9.50962e-07 -3.17953e-05
-8.71047e-05 -1.27299e-07 4.25624e-06
-2.75488e-05 -1.12833e-06 3.77256e-05
5.34994e-05 1.6708e-06 6.77793e-05
0.000128048 1.16407e-06 4.72228e-05
0.000124923 -4.87873e-08 -1.97915e-06
4.60221e-05 -1.23206e-06 -4.99806e-05
-6.07954e-05 -1.66797e-06 -6.76645e-05
-0.000130735 -1.09212e-06 -4.4304e-05
-0.000121373 1.46196e-07 5.9307e-06
-3.83869e-05 1.29582e-06 5.25673e-05
3.61523e-05 3.78296e-06 4.58019e-05
8.65283e-05 2.63565e-06 3.19109e-05
8.4417e-05 -1.10462e-07 -1.33741e-06
3.10995e-05 -2.78957e-06 -3.37745e-05
-4.10826e-05 -3.77656e-06 -4.57244e-05
-8.83445e-05 -2.47274e-06 -2.99385e-05
-8.20179e-05 3.3101e-07 4.00768e-06
-2.594e-05 2.93394e-06 3.55224e-05
-3.12431e-06 3.60043e-06 -3.95825e-06
-7.47786e-06 2.50847e-06 -2.75777e-06
-7.2954e-06 -1.05132e-07 1.1558e-07
-2.68765e-06 -2.65496e-06 2.91882e-06
3.5504e-06 -3.59433e-06 3.95155e-06
7.63482e-06 -2.35342e-06 2.58731e-06
7.08806e-06 3.15038e-07 -3.46348e-07
2.24176e-06 2.79237e-06 -3.06988e-06
-4.05057e-05 1.23392e-06 -5.13174e-05
-9.69481e-05 8.59692e-07 -3.57536e-05
-9.45826e-05 -3.60304e-08 1.49846e-06
-3.48445e-05 -9.09897e-07 3.78416e-05
4.60297e-05 -1.23183e-06 5.12305e-05
9.8983e-05 -8.06555e-07 3.35437e-05
9.18945e-05 1.07968e-07 -4.49029e-06
2.90637e-05 9.56988e-07 -3.98e-05
-5.33169e-05 -1.88107e-06 -6.75481e-05
-0.000127611 -1.31057e-06 -4.70618e-05
-0.000124497 5.49269e-08 1.9724e-06
-4.58652e-05 1.3871e-06 4.98101e-05
6.05881e-05 1.87788e-06 6.74337e-05
0.000130289 1.22956e-06 4.41529e-05
0.000120959 -1.64594e-07 -5.91048e-06
3.8256e-05 -1.45889e-06 -5.2388e-05
-3.37868e-05 -3.85502e-06 -4.28051e-05
-8.08657e-05 -2.68582e-06 -2.98226e-05
-7.88926e-05 1.12565e-07 1.24989e-06
-2.90643e-05 2.84267e-06 3.15642e-05
3.8394e-05 3.84845e-06 4.27321e-05
8.25631e-05 2.51981e-06 2.79793e-05
7.66504e-05 -3.37311e-07 -3.74541e-06
2.42427e-05 -2.98982e-06 -3.31981e-05
0 -9.33879e-05 0
0 -7.06402e-05 0
0 2.96059e-06 0
0 7.47656e-05 0
0 0.000101219 0
0 6.6274e-05 0
0 -8.87169e-06 0
0 -7.24284e-05 0
2.59451e-05 -3.674e-05 -5.98955e-05
6.20981e-05 -2.55974e-05 -4.17301e-05
6.05829e-05 1.07281e-06 1.74894e-06
2.23189e-05 2.70922e-05 4.41671e-05
-2.94834e-05 3.66779e-05 5.9794e-05
-6.34015e-05 2.40152e-05 3.91507e-05
-5.88611e-05 -3.21477e-06 -5.24086e-06
-1.86161e-05 -2.84943e-05 -4.64529e-05
3.61523e-05 4.21938e-05 -8.34591e-05
8.65284e-05 2.93971e-05 -5.81472e-05
8.4417e-05 -1.23206e-06 2.437e-06
3.10995e-05 -3.11138e-05 6.1543e-05
-4.10826e-05 -4.21224e-05 8.33178e-05
-8.83445e-05 -2.758e-05 5.45532e-05
-8.20179e-05 3.69197e-06 -7.30269e-06
-2.594e-05 3.27241e-05 -6.47281e-05
2.44299e-05 9.55335e-05 -5.63976e-05
5.84716e-05 6.65596e-05 -3.92931e-05
5.70449e-05 -2.78957e-06 1.6468e-06
2.10155e-05 -7.04467e-05 4.15877e-05
-2.77616e-05 -9.53717e-05 5.63021e-05
-5.96989e-05 -6.24456e-05 3.68644e-05
-5.54237e-05 8.3592e-06 -4.9348e-06
-1.7529e-05 7.40925e-05 -4.37401e-05
-2.11126e-06 9.09238e-05 4.87394e-06
-5.05318e-06 6.3348e-05 3.39574e-06
-4.92988e-06 -2.65496e-06 -1.42318e-07
-1.81618e-06 -6.70474e-05 -3.59405e-06
2.39919e-06 -9.07699e-05 -4.86568e-06
5.15924e-06 -5.94325e-05 -3.18586e-06
4.78977e-06 7.95585e-06 4.2647e-07
1.51487e-06 7.05174e-05 3.78006e-06
-2.73718e-05 3.1161e-05 6.3189e-05
-6.55128e-05 2.17103e-05 4.40247e-05
-6.39143e-05 -9.09897e-07 -1.84511e-06
-2.35462e-05 -2.29782e-05 -4.65957e-05
3.11047e-05 -3.11082e-05 -6.3082e-05
6.68879e-05 -2.03684e-05 -4.13036e-05
6.20978e-05 2.72659e-06 5.52905e-06
1.96398e-05 2.41674e-05 4.90072e-05
-3.6029e-05 -4.75037e-05 8.31745e-05
-8.62332e-05 -3.30965e-05 5.79489e-05
-8.41291e-05 1.3871e-06 -2.42869e-06
-3.09934e-05 3.50294e-05 -6.13331e-05
4.09425e-05 4.74233e-05 -8.30336e-05
8.80432e-05 3.10509e-05 -5.43671e-05
8.17381e-05 -4.15658e-06 7.27779e-06
2.58515e-05 -3.68422e-05 6.45073e-05
-2.28315e-05 -9.73532e-05 5.27074e-05
-5.46451e-05 -6.78267e-05 3.67216e-05
-5.33118e-05 2.84267e-06 -1.53903e-06
-1.96402e-05 7.17877e-05 -3.88661e-05
2.59448e-05 9.71872e-05 -5.26176e-05
5.57921e-05 6.36343e-05 -3.44519e-05
5.17966e-05 -8.51833e-06 4.61186e-06
1.6382e-05 -7.55038e-05 4.08781e-05
0 -0.00012643 0
0 -9.56338e-05 0
0 4.00809e-06 0
0 0.000101219 0
0 0.000137031 0
0 8.97227e-05 0
0 -1.20106e-05 0
0 -9.80547e-05 0
-2.2422e-06 -4.97392e-05 -0.000132102
-5.36659e-06 -3.46541e-05 -9.20372e-05
-5.23563e-06 1.45238e-06 3.85736e-06
-1.92882e-06 3.66779e-05 9.74121e-05
2.54799e-06 4.96551e-05 0.000131878
5.47922e-06 3.25122e-05 8.63485e-05
5.08683e-06 -4.3522e-06 -1.15589e-05
1.60883e-06 -3.8576e-05 -0.000102454
-3.12431e-06 5.71226e-05 -0.000184072
-7.47786e-06 3.97982e-05 -0.000128246
-7.2954e-06 -1.66797e-06 5.3749e-06
-2.68765e-06 -4.21224e-05 0.000135735
3.5504e-06 -5.70259e-05 0.000183761
7.63482e-06 -3.73383e-05 0.000120319
7.08806e-06 4.99824e-06 -1.61064e-05
2.24176e-06 4.43023e-05 -0.00014276
-2.11126e-06 0.000129335 -0.000124387
-5.05318e-06 9.01094e-05 -8.66623e-05
-4.92988e-06 -3.77656e-06 3.63209e-06
-1.81618e-06 -9.53717e-05 9.17234e-05
2.39919e-06 -0.000129116 0.000124176
5.15924e-06 -8.45398e-05 8.13058e-05
4.78977e-06 1.13168e-05 -1.08839e-05
1.51487e-06 0.000100308 -9.64704e-05
1.82457e-07 0.000123094 1.07497e-05
4.36701e-07 8.57614e-05 7.48945e-06
4.26045e-07 -3.59433e-06 -3.13889e-07
1.56956e-07 -9.07699e-05 -7.92683e-06
-2.0734e-07 -0.000122886 -1.07315e-05
-4.45866e-07 -8.04606e-05 -7.02653e-06
-4.13936e-07 1.07708e-05 9.40597e-07
-1.30917e-07 9.54675e-05 8.33707e-06
2.3655e-06 4.21862e-05 0.000139366
5.66169e-06 2.93918e-05 9.70982e-05
5.52354e-06 -1.23183e-06 -4.06947e-06
2.03489e-06 -3.11082e-05 -0.000102769
-2.6881e-06 -4.21148e-05 -0.00013913
-5.78052e-06 -2.75751e-05 -9.10967e-05
-5.36656e-06 3.6913e-06 1.21945e-05
-1.69729e-06 3.27182e-05 0.000108087
3.11366e-06 -6.43112e-05 0.000183445
7.45236e-06 -4.48066e-05 0.000127809
7.27052e-06 1.87788e-06 -5.35656e-06
2.67848e-06 4.74233e-05 -0.000135272
-3.53829e-06 6.42023e-05 -0.000183134
-7.60878e-06 4.20371e-05 -0.000119909
-7.06389e-06 -5.62724e-06 1.60514e-05
-2.23411e-06 -4.98776e-05 0.000142273
1.97312e-06 -0.000131798 0.000116248
4.72249e-06 -9.18247e-05 8.0991e-05
4.60726e-06 3.84845e-06 -3.3944e-06
1.69733e-06 9.71872e-05 -8.57208e-05
-2.24218e-06 0.000131574 -0.00011605
-4.82161e-06 8.61491e-05 -7.5985e-05
-4.47632e-06 -1.15322e-05 1.01716e-05
-1.41575e-06 -0.000102218 9.01582e-05
0 -8.27813e-05 0
0 -6.26172e-05 0
0 2.62434e-06 0
0 6.6274e-05 0
0 8.97227e-05 0
0 5.87469e-05 0
0 -7.86408e-06 0
0 -6.42023e-05 0
-2.90694e-05 -3.25673e-05 -0.000124177
-6.9576e-05 -2.26901e-05 -8.65159e-05
-6.78784e-05 9.50962e-07 3.62595e-06
-2.50066e-05 2.40152e-05 9.15683e-05
3.30338e-05 3.25122e-05 0.000123967
7.10364e-05 2.12877e-05 8.11684e-05
6.59492e-05 -2.84965e-06 -1.08655e-05
2.08579e-05 -2.52581e-05 -9.63074e-05
-4.05057e-05 3.74016e-05 -0.00017303
-9.69481e-05 2.60583e-05 -0.000120552
-9.45826e-05 -1.09212e-06 5.05245e-06
-3.48445e-05 -2.758e-05 0.000127593
4.60297e-05 -3.73383e-05 0.000172737
9.8983e-05 -2.44476e-05 0.000113101
9.18944e-05 3.27265e-06 -1.51401e-05
2.90637e-05 2.90074e-05 -0.000134196
-2.73718e-05 8.46832e-05 -0.000116925
-6.55128e-05 5.9e-05 -8.14634e-05
-6.39143e-05 -2.47274e-06 3.4142e-06
-2.35462e-05 -6.24456e-05 8.62208e-05
3.11047e-05 -8.45398e-05 0.000116727
6.68879e-05 -5.53533e-05 7.64283e-05
6.20978e-05 7.40979e-06 -1.0231e-05
1.96398e-05 6.56774e-05 -9.06831e-05
2.3655e-06 8.0597e-05 1.01048e-05
5.66169e-06 5.61532e-05 7.04015e-06
5.52354e-06 -2.35342e-06 -2.95058e-07
2.03489e-06 -5.94325e-05 -7.45129e-06
-2.6881e-06 -8.04606e-05 -1.00877e-05
-5.78052e-06 -5.26824e-05 -6.605e-06
-5.36656e-06 7.05226e-06 8.8417e-07
-1.69729e-06 6.25083e-05 7.83692e-06
3.06679e-05 2.76218e-05 0.000131005
7.34019e-05 1.92446e-05 9.12733e-05
7.16109e-05 -8.06555e-07 -3.82534e-06
2.63817e-05 -2.03684e-05 -9.66035e-05
-3.48503e-05 -2.75751e-05 -0.000130783
-7.49425e-05 -1.80551e-05 -8.56318e-05
-6.95756e-05 2.41692e-06 1.1463e-05
-2.20048e-05 2.14226e-05 0.000101603
4.03676e-05 -4.21084e-05 0.00017244
9.66174e-05 -2.93376e-05 0.000120141
9.426e-05 1.22956e-06 -5.03522e-06
3.47257e-05 3.10509e-05 -0.000127157
-4.58728e-05 4.20371e-05 -0.000172148
-9.86454e-05 2.75242e-05 -0.000112715
-9.15811e-05 -3.6845e-06 1.50885e-05
-2.89646e-05 -3.26579e-05 0.000133738
2.55808e-05 -8.62963e-05 0.000109275
6.12255e-05 -6.01232e-05 7.61323e-05
5.97316e-05 2.51981e-06 -3.19077e-06
2.20053e-05 6.36343e-05 -8.05783e-05
-2.90691e-05 8.61491e-05 -0.000109088
-6.25106e-05 5.6407e-05 -7.14266e-05
-5.8034e-05 -7.55085e-06 9.56143e-06
-1.83548e-05 -6.69284e-05 8.47496e-05
0 1.10814e-05 0
0 8.38217e-06 0
0 -3.51304e-07 0
0 -8.87168e-06 0
0 -1.20106e-05 0
0 -7.86407e-06 0
0 1.05271e-06 0
0 8.59436e-06 0
-3.82635e-05 4.35957e-06 -4.0928e-05
-9.15815e-05 3.03738e-06 -2.85151e-05
-8.9347e-05 -1.27299e-07 1.19509e-06
-3.29157e-05 -3.21477e-06 3.01804e-05
4.34818e-05 -4.3522e-06 4.08587e-05
9.35038e-05 -2.84965e-06 2.67526e-05
8.68076e-05 3.81464e-07 -3.58121e-06
2.74548e-05 3.38114e-06 -3.17423e-05
-5.33169e-05 -5.00672e-06 -5.70296e-05
-0.000127611 -3.48826e-06 -3.97334e-05
-0.000124497 1.46196e-07 1.66526e-06
-4.58652e-05 3.69197e-06 4.20538e-05
6.05881e-05 4.99824e-06 5.6933e-05
0.000130289 3.27265e-06 3.72775e-05
0.000120959 -4.38089e-07 -4.9901e-06
3.8256e-05 -3.88304e-06 -4.42302e-05
-3.6029e-05 -1.1336e-05 -3.85378e-05
-8.62332e-05 -7.89797e-06 -2.68499e-05
-8.41291e-05 3.3101e-07 1.1253e-06
-3.09934e-05 8.3592e-06 2.84179e-05
4.09425e-05 1.13168e-05 3.84726e-05
8.80432e-05 7.40979e-06 2.51903e-05
8.17381e-05 -9.91903e-07 -3.37207e-06
2.58515e-05 -8.79182e-06 -2.98886e-05
3.11366e-06 -1.0789e-05 3.33048e-06
7.45236e-06 -7.51687e-06 2.32039e-06
7.27052e-06 3.15038e-07 -9.72495e-08
2.67848e-06 7.95585e-06 -2.4559e-06
-3.53829e-06 1.07708e-05 -3.32484e-06
-7.60878e-06 7.05226e-06 -2.17697e-06
-7.06389e-06 -9.44042e-07 2.91418e-07
-2.23411e-06 -8.3676e-06 2.583e-06
4.03676e-05 -3.69756e-06 4.31785e-05
9.66174e-05 -2.57615e-06 3.00831e-05
9.426e-05 1.07968e-07 -1.26081e-06
3.47257e-05 2.72659e-06 -3.184e-05
-4.58728e-05 3.6913e-06 -4.31055e-05
-9.86454e-05 2.41692e-06 -2.82237e-05
-9.15811e-05 -3.23537e-07 3.77813e-06
-2.89646e-05 -2.8677e-06 3.34878e-05
5.31351e-05 5.63679e-06 5.68351e-05
0.000127176 3.92724e-06 3.95979e-05
0.000124073 -1.64594e-07 -1.65958e-06
4.57088e-05 -4.15658e-06 -4.19103e-05
-6.03814e-05 -5.62724e-06 -5.67388e-05
-0.000129845 -3.6845e-06 -3.71503e-05
-0.000120546 4.9322e-07 4.97309e-06
-3.81255e-05 4.3717e-06 4.40794e-05
3.36715e-05 1.15519e-05 3.60162e-05
8.05899e-05 8.04831e-06 2.50928e-05
7.86235e-05 -3.37311e-07 -1.05166e-06
2.89652e-05 -8.51833e-06 -2.65582e-05
-3.82631e-05 -1.15322e-05 -3.59548e-05
-8.22815e-05 -7.55085e-06 -2.35418e-05
-7.6389e-05 1.01079e-06 3.15139e-06
-2.416e-05 8.95929e-06 2.7933e-05
0 9.82222e-05 0
0 6.84321e-05 0
0 -2.86804e-06 0
0 -7.24285e-05 0
0 -9.80547e-05 0
0 -6.42023e-05 0
0 8.59436e-06 0
0 7.61778e-05 0
-2.42475e-05 3.86419e-05 6.71472e-05
-5.80343e-05 2.69221e-05 4.67819e-05
-5.66182e-05 -1.12833e-06 -1.96067e-06
-2.08583e-05 -2.84943e-05 -4.9514e-05
2.75539e-05 -3.8576e-05 -6.70327e-05
5.92524e-05 -2.52581e-05 -4.38904e-05
5.50091e-05 3.38114e-06 5.87533e-06
1.73981e-05 2.99694e-05 5.20771e-05
-3.37868e-05 -4.4378e-05 9.35639e-05
-8.08657e-05 -3.09185e-05 6.51866e-05
-7.88926e-05 1.29582e-06 -2.73202e-06
-2.90643e-05 3.27241e-05 -6.89934e-05
3.8394e-05 4.43023e-05 -9.34043e-05
8.25631e-05 2.90074e-05 -6.11574e-05
7.66504e-05 -3.88304e-06 8.18676e-06
2.42427e-05 -3.44181e-05 7.25649e-05
-2.28315e-05 -0.000100479 6.32259e-05
-5.46451e-05 -7.00043e-05 4.40499e-05
-5.33118e-05 2.93394e-06 -1.84617e-06
-1.96402e-05 7.40925e-05 -4.66224e-05
2.59448e-05 0.000100308 -6.31181e-05
5.57921e-05 6.56774e-05 -4.13272e-05
5.17966e-05 -8.79182e-06 5.53221e-06
1.6382e-05 -7.7928e-05 4.90358e-05
1.97312e-06 -9.56306e-05 -5.46404e-06
4.72249e-06 -6.66265e-05 -3.80684e-06
4.60726e-06 2.79237e-06 1.59548e-07
1.69733e-06 7.05174e-05 4.02915e-06
-2.24218e-06 9.54675e-05 5.45473e-06
-4.82161e-06 6.25083e-05 3.57154e-06
-4.47632e-06 -8.3676e-06 -4.78099e-07
-1.41575e-06 -7.41678e-05 -4.23773e-06
2.55808e-05 -3.27741e-05 -7.08396e-05
6.12255e-05 -2.28339e-05 -4.93544e-05
5.97316e-05 9.56988e-07 2.06848e-06
2.20053e-05 2.41674e-05 5.22367e-05
-2.90691e-05 3.27182e-05 7.07188e-05
-6.25106e-05 2.14226e-05 4.63038e-05
-5.8034e-05 -2.8677e-06 -6.1984e-06
-1.83548e-05 -2.54184e-05 -5.49408e-05
3.36715e-05 4.99628e-05 -9.32448e-05
8.05899e-05 3.48094e-05 -6.49643e-05
7.86235e-05 -1.45889e-06 2.7227e-06
2.89652e-05 -3.68422e-05 6.87581e-05
-3.82631e-05 -4.98776e-05 9.30858e-05
-8.22815e-05 -3.26579e-05 6.09488e-05
-7.6389e-05 4.3717e-06 -8.15884e-06
-2.416e-05 3.87494e-05 -7.23175e-05
2.13376e-05 0.000102393 -5.90889e-05
5.10696e-05 7.13378e-05 -4.11677e-05
4.98235e-05 -2.98982e-06 1.72537e-06
1.83551e-05 -7.55038e-05 4.35718e-05
-2.42472e-05 -0.000102218 5.89882e-05
-5.21415e-05 -6.69284e-05 3.86231e-05
-4.84075e-05 8.95929e-06 -5.17023e-06
-1.53101e-05 7.94124e-05 -4.58274e-05
