# vtk DataFile Version 3.0
Velocity field
ASCII
DATASET STRUCTURED_POINTS
DIMENSIONS 5 5 5
SPACING 1.33333 1.33333 1.33333
ORIGIN 0 0 0
POINT_DATA 125
VECTORS velocity float
0 0.0314271 0
0 0.00739283 0
0 -0.027949 0
0 -0.0205421 0
0 0.0182844 0
0 -0.0166414 0.0545795
0 -0.00391469 0.0147968
0 0.0147997 -0.0559399
0 0.0108776 -0.0411151
0 -0.00968205 0.0317545
0 -0.0392565 0.0256783
0 -0.0092346 0.00696151
0 0.0349118 -0.0263183
0 0.0256597 -0.0193436
0 -0.0228396 0.0149397
0 -0.00182777 -0.0424985
0 -0.000429961 -0.0115216
0 0.00162549 0.0435578
0 0.00119471 0.0320144
0 -0.00106341 -0.0247258
0 0.0383966 -0.0456727
0 0.00903231 -0.0107439
0 -0.0341471 0.040618
0 -0.0250977 0.0298537
0 0.0223393 -0.0265726
0 0.00739283 0
0 0.00221287 0
0 -0.00836587 0
0 -0.00614881 0
0 0.00430117 0
0.0233598 -0.00391469 0.0191674
0.0344698 -0.000923815 0.00452569
-0.0072241 0.00349255 -0.0171097
-0.0378686 0.00256697 -0.0125754
-0.0105553 -0.00227758 0.0111516
0.0109902 -0.0092346 0.00901776
0.0162172 -0.00217988 0.00212923
-0.00339876 0.00824118 -0.00804968
-0.0178162 0.00605717 -0.00591642
-0.00496602 -0.00537272 0.00524657
-0.0181892 -0.000429961 -0.0149247
-0.02684 -0.000101498 -0.00352394
0.00562506 0.000383719 0.0133225
0.0294865 0.000282028 0.00979188
0.00821894 -0.000250153 -0.00868326
-0.0195478 0.00903231 -0.0160395
-0.0287445 0.00212474 -0.00377309
0.0060242 -0.00803268 0.0142643
0.0315787 -0.00590391 0.0104841
0.00883282 0.00525503 -0.00933182
0 -0.027949 0
0 -0.00836588 0
0 0.0316276 0
0 0.0232459 0
0 -0.0162608 0
0.0109902 0.0147997 -0.0455617
0.0162172 0.00349255 -0.0107552
-0.00339876 -0.0132038 0.0406606
-0.0178162 -0.00970463 0.0298851
-0.00496602 0.00861049 -0.026508
0.00517062 0.0349118 -0.0214356
0.00762978 0.00824118 -0.00506003
-0.00159903 -0.0311563 0.0191298
-0.0083821 -0.0228996 0.0140602
-0.00233639 0.0203118 -0.0124713
-0.00855756 0.00162549 0.0354768
-0.0126275 0.000383719 0.00837452
0.00264645 -0.00145068 -0.0316605
0.0138727 -0.00106623 -0.0232701
0.0038668 0.000945714 0.0206405
-0.00919674 -0.0341471 0.0381266
-0.0135236 -0.00803268 0.0089688
0.00283424 0.0303679 -0.033907
0.014857 0.02232 -0.0249212
0.00415562 -0.0198669 0.0221822
0 -0.0205421 0
0 -0.00614881 0
0 0.0232459 0
0 0.0170854 0
0 -0.0119515 0
-0.0181892 0.0108776 -0.040603
-0.02684 0.00256697 -0.00958463
0.00562506 -0.00970463 0.0362353
0.0294865 -0.00713279 0.0266326
0.00821894 0.0063286 -0.023623
-0.00855756 0.0256597 -0.0191027
-0.0126275 0.00605717 -0.00450933
0.00264645 -0.0228996 0.0170478
0.0138727 -0.0168309 0.01253
0.0038668 0.0149289 -0.011114
0.0141631 0.00119471 0.0316157
0.020899 0.000282028 0.00746309
-0.00437997 -0.00106623 -0.0282147
-0.0229597 -0.000783666 -0.0207375
-0.0063997 0.000695087 0.0183941
0.0152209 -0.0250977 0.0339771
0.022382 -0.00590391 0.00799268
-0.00469076 0.02232 -0.0302167
-0.0245889 0.0164049 -0.0222089
-0.00687771 -0.0146019 0.019768
0 0.0182844 0
0 0.00430117 0
0 -0.0162608 0
0 -0.0119515 0
0 0.0106379 0
-0.0195478 -0.00968205 0.026459
-0.0287445 -0.00227758 0.00622415
0.00602419 0.0086105 -0.0235307
0.0315787 0.0063286 -0.0172948
0.00883282 -0.00563305 0.0153939
-0.00919674 -0.0228396 0.0124483
-0.0135236 -0.00537272 0.00292831
0.00283423 0.0203118 -0.0110706
0.014857 0.0149289 -0.00813675
0.00415562 -0.0132881 0.00724246
0.0152209 -0.00106341 -0.0206024
0.022382 -0.000250153 -0.00484645
-0.00469076 0.000945714 0.0183222
-0.0245889 0.000695088 0.0134666
-0.00687771 -0.000618693 -0.0119865
0.0163578 0.0223393 -0.0221412
0.0240538 0.00525503 -0.00520844
-0.00504112 -0.0198669 0.0196908
-0.0264255 -0.0146019 0.0144725
-0.00739141 0.0129971 -0.0128818
