# vtk DataFile Version 3.0
Velocity field
ASCII
DATASET STRUCTURED_POINTS
DIMENSIONS 8 8 8
SPACING 0.8 0.8 0.8
ORIGIN 0 0 0
POINT_DATA 512
VECTORS velocity float
0 0.406838 0
0 0.283447 0
0 -0.0118795 0
0 -0.3 0
0 -0.406145 0
0 -0.265927 0
0 0.035598 0
0 0.31553 0
0 0.160056 0.415239
0 0.111512 0.306726
0 -0.00467355 -0.0128552
0 -0.118024 -0.324639
0 -0.159783 -0.439501
0 -0.104619 -0.287768
0 0.0140047 0.0385217
0 0.124134 0.322045
0 -0.183815 0.5786
0 -0.128065 0.427397
0 0.0053673 -0.0179126
0 0.135544 -0.452356
0 0.183501 -0.612407
0 0.120149 -0.40098
0 -0.0160836 0.0536766
0 -0.14256 0.448742
0 -0.416185 0.39099
0 -0.289959 0.288814
0 0.0121524 -0.0121044
0 0.306893 -0.30568
0 0.415476 -0.413835
0 0.272037 -0.270962
0 -0.0364159 0.0362721
0 -0.322779 0.303238
0 -0.396104 -0.0337897
0 -0.275968 -0.0249596
0 0.0115661 0.00104608
0 0.292084 0.0264172
0 0.395428 0.035764
0 0.258911 0.0234168
0 -0.0346587 -0.00313467
0 -0.307205 -0.0262062
0 -0.135751 -0.438073
0 -0.0945785 -0.323593
0 0.00396386 0.013562
0 0.100102 0.342491
0 0.135519 0.463669
0 0.0887326 0.303592
0 -0.0118781 -0.0406399
0 -0.105284 -0.339754
0 0.206947 -0.576627
0 0.144181 -0.425939
0 -0.00604275 0.0178515
0 -0.152601 0.450814
0 -0.206594 0.610318
0 -0.135269 0.399612
0 0.0181077 -0.0534936
0 0.160501 -0.447212
0 0.424113 -0.365407
0 0.295482 -0.254581
0 -0.0123839 0.0106697
0 -0.312738 0.269449
0 -0.42339 0.364784
0 -0.277219 0.238846
0 0.0371096 -0.0319728
0 0.328928 -0.283397
0 0.283447 0
0 0.214404 0
0 -0.00898586 0
0 -0.226925 0
0 -0.307215 0
0 -0.201152 0
0 0.026927 0
0 0.219832 0
0.0885155 0.111512 0.410143
0.219426 0.080595 0.296017
0.214108 -0.00338029 -0.0124154
0.0788777 -0.0853535 -0.313491
-0.104198 -0.115554 -0.424412
-0.22407 -0.0756596 -0.277889
-0.207996 0.0100905 0.0370636
-0.0635117 0.0864848 0.318093
0.123339 -0.128065 0.571499
0.305748 -0.0923187 0.412478
0.298337 0.00387178 -0.0172997
0.10991 0.0977656 -0.436827
-0.14519 0.132356 -0.591377
-0.312219 0.0866613 -0.387214
-0.289822 -0.0115602 0.0516453
-0.088498 -0.0993227 0.443235
0.0833463 -0.289959 0.386191
0.206611 -0.209027 0.278733
0.201605 0.00876669 -0.0116903
0.0742709 0.221363 -0.295183
-0.0981131 0.299681 -0.399627
-0.210984 0.196223 -0.261658
-0.195849 -0.0261749 0.0348994
-0.0598027 -0.224882 0.299517
-0.00720287 -0.275968 -0.033375
-0.0178554 -0.198944 -0.0240883
-0.0174228 0.0083436 0.00101028
-0.00641862 0.21068 0.0255103
0.008479 0.285224 0.0345361
0.0182333 0.186754 0.0226128
0.0169254 -0.0249119 -0.00301603
0.0051682 -0.214031 -0.0258845
-0.0933829 -0.0945785 -0.432697
-0.231489 -0.0681816 -0.312295
-0.225882 0.00285952 0.013098
-0.0832139 0.0722043 0.330726
0.109928 0.0977518 0.447751
0.236386 0.0640036 0.293167
0.219434 -0.00853775 -0.0391018
0.0670041 -0.0733518 -0.335585
-0.122918 0.144181 -0.56955
-0.304628 0.103856 -0.410969
-0.297244 -0.0043556 0.0172361
-0.109507 -0.109981 0.435224
0.144658 -0.148894 0.589207
0.311072 -0.0974914 0.385793
0.28876 0.0130063 -0.0514578
0.0881962 0.111822 -0.441724
-0.0778929 0.295482 -0.360922
-0.18643 0.205865 -0.251457
-0.181881 -0.00862796 0.0105388
-0.0670055 -0.217887 0.266142
0.0885146 -0.294979 0.360307
0.190343 -0.19314 0.235915
0.176712 0.0258545 -0.0315804
0.0558897 0.229166 -0.279919
0 -0.0118795 0
0 -0.00898586 0
0 0.000376605 0
0 0.00951062 0
0 0.0128756 0
0 0.00843045 0
0 -0.00112853 0
0 -0.00921333 0
0.123339 -0.00467355 0.15626
0.305748 -0.00338029 0.112714
0.298337 0.00014178 -0.00472724
0.10991 0.00357997 -0.119364
-0.14519 0.00484654 -0.161597
-0.312219 0.00317337 -0.105809
-0.289822 -0.00042317 0.0141131
-0.088498 -0.00362465 0.12119
0.171862 0.0053673 0.217735
0.426037 0.00387178 0.157055
0.41571 -0.000162384 -0.00658703
0.153149 -0.0041003 -0.166323
-0.202312 -0.00555106 -0.225176
-0.435053 -0.00363466 -0.147435
-0.403847 0.000484785 0.0196652
-0.123314 0.0041627 0.168868
0.116136 0.0121524 0.147135
0.287893 0.00876669 0.106131
0.280918 -0.000367679 -0.00445122
0.103491 -0.00928405 -0.112396
-0.136712 -0.012569 -0.152161
-0.293985 -0.0082296 -0.0996304
-0.272899 0.00109767 0.0132888
-0.0833298 0.009425 0.114113
-0.0100366 0.0115661 -0.0127155
-0.0248802 0.0083436 -0.00917188
-0.0242772 -0.000349937 0.000384678
-0.00894373 -0.00883618 0.00971321
0.0118148 -0.0119625 0.01315
0.0254067 -0.00783249 0.00861013
0.0235842 0.0010447 -0.00114843
0.00720145 0.00897023 -0.00986172
-0.130121 0.00396386 -0.164853
-0.322557 0.00285952 -0.11891
-0.314743 -0.00011993 0.00498717
-0.115953 -0.00302831 0.125927
0.153174 -0.00409973 0.170483
0.329383 -0.00268434 0.111628
0.305759 0.000358037 -0.0148889
0.0933644 0.00307424 -0.127854
-0.171276 -0.00604275 -0.216992
-0.424476 -0.0043556 -0.15648
-0.414186 0.000182673 0.00656289
-0.152587 0.00461258 0.165714
0.201569 0.0062446 0.224349
0.433458 0.00408871 0.146895
0.402365 -0.000545423 -0.0195938
0.122894 -0.00468655 -0.168292
-0.108537 -0.0123839 -0.137507
-0.259774 -0.00862796 -0.0958023
-0.253435 0.000361605 0.00401515
-0.0933664 0.00913182 0.101397
0.123337 0.0123628 0.137273
0.265226 0.00809467 0.0898808
0.246232 -0.00108358 -0.0120318
0.0778774 -0.00960454 -0.106646
0 -0.3 0
0 -0.226925 0
0 0.00951062 0
0 0.240178 0
0 0.325156 0
0 0.212899 0
0 -0.0284995 0
0 -0.23267 0
0.0833463 -0.118024 -0.192409
0.206611 -0.0853535 -0.138786
0.201605 0.00357997 0.00582072
0.0742709 0.0903942 0.146976
-0.0981131 0.122377 0.198979
-0.210984 0.0801276 0.130283
-0.195849 -0.0106854 -0.0173776
-0.0598027 -0.0915354 -0.149226
0.116136 0.135544 -0.268105
0.287893 0.0977656 -0.193385
0.280918 -0.0041003 0.00811062
0.103491 -0.103535 0.2048
-0.136712 -0.140169 0.27726
-0.293985 -0.0917763 0.181538
-0.272899 0.0122414 -0.024214
-0.0833298 0.105123 -0.207933
0.078479 0.306893 -0.181172
0.194545 0.221363 -0.130679
0.18983 -0.00928405 0.00548075
0.0699344 -0.234426 0.138393
-0.0923829 -0.317371 0.187358
-0.198663 -0.207803 0.122674
-0.184411 0.0277174 -0.0163626
-0.0563102 0.238015 -0.140511
-0.00678223 0.292084 0.0156571
-0.0168127 0.21068 0.0112935
-0.0164052 -0.00883618 -0.000473653
-0.00604378 -0.223118 -0.0119601
0.00798375 -0.302056 -0.0161915
0.0171686 -0.197777 -0.0106016
0.0159368 0.0263798 0.00141407
0.00486639 0.226531 0.0121431
-0.0879294 0.100102 0.202989
-0.217972 0.0722043 0.146415
-0.212689 -0.00302831 -0.00614079
-0.0783551 -0.0764658 -0.155057
0.103508 -0.103521 -0.20992
0.222586 -0.0677816 -0.137448
0.206617 0.00904081 0.018333
0.0630911 0.0776355 0.157431
-0.11574 -0.152601 0.267191
-0.286837 -0.109981 0.192678
-0.279887 0.00461258 -0.00808087
-0.103111 0.11647 -0.204049
0.13621 0.157679 -0.276243
0.292907 0.103242 -0.180873
0.271897 -0.0137725 0.0241262
0.0830456 -0.118352 0.207224
-0.073344 -0.312738 0.169318
-0.175542 -0.217887 0.117965
-0.171259 0.00913182 -0.00494401
-0.0630924 0.230611 -0.124854
0.0833454 0.312205 -0.169029
0.179227 0.204419 -0.110674
0.166392 -0.0273644 0.0148152
0.0526258 -0.242549 0.131317
0 -0.406145 0
0 -0.307215 0
0 0.0128756 0
0 0.325156 0
0 0.440201 0
0 0.288226 0
0 -0.038583 0
0 -0.314992 0
-0.00720287 -0.159783 -0.424365
-0.0178554 -0.115554 -0.306094
-0.0174228 0.00484654 0.0128379
-0.00641862 0.122377 0.324157
0.008479 0.165675 0.438857
0.0182333 0.108479 0.287344
0.0169254 -0.0144661 -0.0383267
0.0051682 -0.123922 -0.329123
-0.0100366 0.183501 -0.591316
-0.0248802 0.132356 -0.426517
-0.0242772 -0.00555106 0.0178884
-0.00894373 -0.140169 0.451695
0.0118148 -0.189761 0.611503
0.0254067 -0.124247 0.400393
0.0235842 0.0165726 -0.0534052
0.00720145 0.142317 -0.458604
-0.00678223 0.415476 -0.399582
-0.0168127 0.299681 -0.288219
-0.0164052 -0.012569 0.0120881
-0.00604378 -0.317371 0.305229
0.00798375 -0.429664 0.413225
0.0171686 -0.281328 0.270565
0.0159368 0.0375238 -0.0360884
0.00486639 0.322229 -0.309902
0.000586127 0.395428 0.0345323
0.00145298 0.285224 0.0249083
0.00141776 -0.0119625 -0.00104466
0.000522305 -0.302056 -0.0263783
-0.000689969 -0.408933 -0.0357113
-0.00148373 -0.267752 -0.0233825
-0.00137729 0.0357134 0.0031188
-0.000420558 0.306681 0.0267821
0.00759895 0.135519 0.4477
0.0188372 0.0977518 0.322923
0.0183807 -0.00409973 -0.0135438
0.00677156 -0.103521 -0.341981
-0.00894518 -0.140149 -0.462986
-0.0192358 -0.0917635 -0.303144
-0.017856 0.0122396 0.0404339
-0.0054524 0.105104 0.347221
0.0100023 -0.206594 0.589299
0.0247889 -0.148893 0.424956
0.0241881 0.0062446 -0.0178228
0.00891095 0.157679 -0.450035
-0.0117715 0.213469 -0.609262
-0.0253135 0.139772 -0.398925
-0.0234977 -0.0186453 0.0532115
-0.00717688 -0.160227 0.45704
0.00633846 -0.42339 0.373437
0.0151706 -0.294979 0.260176
0.0148004 0.0123628 -0.0109042
0.00545251 0.312205 -0.27537
-0.00720279 0.422668 -0.3728
-0.015489 0.276746 -0.244095
-0.0143798 -0.0370463 0.0326754
-0.00454797 -0.328367 0.289625
0 -0.265927 0
0 -0.201152 0
0 0.00843045 0
0 0.212899 0
0 0.288226 0
0 0.188719 0
0 -0.0252626 0
0 -0.206244 0
-0.0933829 -0.104619 -0.398907
-0.231489 -0.0756596 -0.287732
-0.225882 0.00317337 0.0120677
-0.0832139 0.0801276 0.304714
0.109928 0.108479 0.412528
0.236386 0.0710281 0.270108
0.219434 -0.00947185 -0.0360275
0.0670041 -0.0811392 -0.309379
-0.130121 0.120149 -0.555842
-0.322557 0.0866613 -0.400934
-0.314743 -0.00363466 0.0168152
-0.115953 -0.0917763 0.424596
0.153174 -0.124247 0.574819
0.329383 -0.0813521 0.376372
0.305759 0.0108511 -0.0502014
0.0933644 0.0931837 -0.431092
-0.0879294 0.272037 -0.375611
-0.217972 0.196223 -0.27093
-0.212689 -0.0082296 0.0113629
-0.0783551 -0.207803 0.286919
0.103508 -0.281328 0.388438
0.222586 -0.184202 0.254331
0.206617 0.0245693 -0.0339236
0.0630911 0.210983 -0.291311
0.00759895 0.258911 0.0324607
0.0188372 0.186754 0.0234141
0.0183807 -0.00783249 -0.000981989
0.00677156 -0.197777 -0.024796
-0.00894518 -0.267752 -0.033569
-0.0192358 -0.175313 -0.0219797
-0.017856 0.0233837 0.00293171
-0.0054524 0.200802 0.0251754
0.0985179 0.0887326 0.420842
0.244216 0.0640036 0.303552
0.238297 -0.00268434 -0.0127313
0.0877897 -0.0677816 -0.321467
-0.115972 -0.0917635 -0.435213
-0.249384 -0.0600827 -0.28496
-0.231497 0.00801399 0.0380085
-0.0706886 0.068818 0.326391
0.129677 -0.135269 0.553947
0.321375 -0.0974914 0.399465
0.313587 0.00408871 -0.0167536
0.115527 0.103242 -0.423039
-0.152612 0.139772 -0.572713
-0.328175 0.0915173 -0.374993
-0.304638 -0.0122083 0.0500191
-0.093046 -0.10491 0.429622
0.0821761 -0.277219 0.351034
0.196681 -0.19314 0.244568
0.191882 0.00809467 -0.01025
0.07069 0.204419 -0.258851
-0.0933818 0.276746 -0.350436
-0.20081 0.181202 -0.229451
-0.186429 -0.0242564 0.0307152
-0.058963 -0.215002 0.27225
0 0.035598 0
0 0.026927 0
0 -0.00112853 0
0 -0.0284995 0
0 -0.038583 0
0 -0.0252626 0
0 0.00338175 0
0 0.0276086 0
-0.122918 0.0140047 -0.131477
-0.304628 0.0100902 -0.0948968
-0.297244 -0.000423158 0.00398011
-0.109507 -0.0106851 0.1005
0.144658 -0.0144657 0.136057
0.311072 -0.00947159 0.0890848
0.28876 0.00126381 -0.0118812
0.0881962 0.0108616 -0.101969
-0.171276 -0.0160836 -0.183202
-0.424476 -0.0115599 -0.132231
-0.414186 0.000484772 0.0055459
-0.152587 0.0122411 0.140038
0.201569 0.0165721 0.189584
0.433458 0.0108508 0.124133
0.402365 -0.00144812 -0.0165554
0.122894 -0.0124739 -0.142085
-0.11574 -0.0364159 -0.123799
-0.286837 -0.0261742 -0.0893547
-0.279887 0.00109764 0.00374768
-0.103111 0.0277166 0.0946301
0.13621 0.0375227 0.128111
0.292907 0.0245686 0.0838825
0.271897 -0.00327881 -0.0111873
0.0830456 -0.0282429 -0.0960144
0.0100023 -0.0346587 0.0106989
0.0247889 -0.0249112 0.00772214
0.0241881 0.00104467 -0.000323876
0.00891095 0.0263791 -0.00817804
-0.0117715 0.0357124 -0.0110715
-0.0253135 0.0233831 -0.00724926
-0.0234977 -0.00312061 0.000966823
-0.00717688 -0.0268801 0.00829766
0.129677 -0.0118781 0.138707
0.321375 -0.00853752 0.100115
0.313587 0.000358027 -0.00419896
0.115527 0.00904055 -0.106026
-0.152612 0.0122393 -0.143538
-0.328175 0.00801377 -0.0939836
-0.304638 -0.00106949 0.0125345
-0.093046 -0.00921223 0.107577
0.170692 0.0181077 0.182578
0.422921 0.0130059 0.131746
0.412668 -0.000545407 -0.00552552
0.152028 -0.0137721 -0.139523
-0.20083 -0.0186448 -0.188888
-0.43187 -0.012208 -0.123676
-0.40089 0.00162938 0.0164953
-0.122475 0.0140437 0.141601
0.108167 0.0371096 0.115699
0.258888 0.0258545 0.0806082
0.252571 -0.00108358 -0.00337836
0.0930479 -0.0273644 -0.0853156
-0.122917 -0.0370463 -0.115502
-0.264322 -0.0242564 -0.0756258
-0.245393 0.00324706 0.0101236
-0.0776118 0.0287809 0.0897321
0 0.31553 0
0 0.219832 0
0 -0.00921333 0
0 -0.23267 0
0 -0.314992 0
0 -0.206244 0
0 0.0276086 0
0 0.244714 0
-0.0778929 0.124134 0.215704
-0.18643 0.0864848 0.150283
-0.181881 -0.00362465 -0.00629847
-0.0670055 -0.0915354 -0.159059
0.0885145 -0.123922 -0.215337
0.190343 -0.0811392 -0.140994
0.176712 0.0108616 0.018874
0.0558897 0.0962738 0.167293
-0.108537 -0.14256 0.300565
-0.259774 -0.0993228 0.209406
-0.253435 0.0041627 -0.00877637
-0.0933663 0.105123 -0.221635
0.123337 0.142317 -0.300053
0.265226 0.0931837 -0.196463
0.246232 -0.0124739 0.0262992
0.0778774 -0.110565 0.233108
-0.073344 -0.322779 0.203107
-0.175542 -0.224882 0.141506
-0.171259 0.00942501 -0.00593065
-0.0630924 0.238015 -0.14977
0.0833454 0.322229 -0.202761
0.179227 0.210983 -0.13276
0.166392 -0.0282429 0.0177717
0.0526258 -0.250336 0.157523
0.00633846 -0.307205 -0.0175527
0.0151706 -0.214031 -0.0122291
0.0148004 0.00897023 0.000512532
0.00545251 0.226531 0.0129433
-0.00720279 0.306681 0.0175228
-0.015489 0.200802 0.0114732
-0.0143798 -0.0268801 -0.00153585
-0.00454797 -0.238257 -0.0136133
0.0821761 -0.105284 -0.227566
0.196681 -0.0733518 -0.158547
0.191882 0.00307424 0.00664481
0.07069 0.0776355 0.167806
-0.0933818 0.105104 0.227178
-0.20081 0.068818 0.148747
-0.186429 -0.00921223 -0.0199118
-0.058963 -0.0816544 -0.176492
0.108167 0.160501 -0.29954
0.258888 0.111822 -0.208692
0.252571 -0.00468655 0.00874644
0.0930479 -0.118352 0.220879
-0.122917 -0.160227 0.29903
-0.264322 -0.10491 0.195793
-0.245393 0.0140437 -0.0262095
-0.0776118 0.124479 -0.232313
0.068545 0.328928 -0.189818
0.164057 0.229166 -0.132247
0.160054 -0.00960454 0.0055426
0.0589642 -0.242549 0.139971
-0.077892 -0.328367 0.189494
-0.1675 -0.215002 0.124073
-0.155505 0.0287809 -0.0166089
-0.0491824 0.255105 -0.147216
