# vtk DataFile Version 3.0
Velocity field
ASCII
DATASET STRUCTURED_POINTS
DIMENSIONS 5 5 5
SPACING 1.33333 1.33333 1.33333
ORIGIN 0 0 0
POINT_DATA 125
VECTORS velocity float
0 0.404475 0
0 0.0951476 0
0 -0.35971 0
0 -0.264382 0
0 0.235325 0
0 -0.214179 0.702451
0 -0.050383 0.190438
0 0.190475 -0.719961
0 0.139997 -0.529162
0 -0.12461 0.408689
0 -0.505241 0.330486
0 -0.118852 0.0895964
0 0.449324 -0.338724
0 0.330247 -0.248957
0 -0.293951 0.192278
0 -0.0235239 -0.546966
0 -0.00553371 -0.148285
0 0.0209204 0.5606
0 0.0153763 0.412034
0 -0.0136863 -0.318227
0 0.494173 -0.58782
0 0.116248 -0.138277
0 -0.439482 0.522764
0 -0.323013 0.384225
0 0.287512 -0.341996
0 0.0951476 0
0 0.0284803 0
0 -0.107671 0
0 -0.0791368 0
0 0.0553572 0
0.300647 -0.050383 0.246689
0.462403 -0.0123353 0.0607979
-0.0969239 0.0466748 -0.230081
-0.508042 0.0343114 -0.169141
-0.13585 -0.029313 0.143524
0.141447 -0.118852 0.116061
0.21755 -0.029192 0.028604
-0.0456006 0.110464 -0.108247
-0.239021 0.0812049 -0.0795767
-0.0639139 -0.0691482 0.0675246
-0.2341 -0.00553371 -0.192085
-0.359964 -0.0013652 -0.0473291
0.0754519 0.00516677 0.179108
0.395493 0.00379833 0.131669
0.10578 -0.00321953 -0.111756
-0.251585 0.116248 -0.206432
-0.369949 0.0273459 -0.0485606
0.077533 -0.103383 0.183586
0.406426 -0.0759849 0.134933
0.113681 0.0676336 -0.120103
0 -0.35971 0
0 -0.107671 0
0 0.407055 0
0 0.29918 0
0 -0.209281 0
0.141447 0.190475 -0.586391
0.21755 0.0466748 -0.144161
-0.0456006 -0.176614 0.545531
-0.239021 -0.129833 0.401037
-0.0639139 0.110819 -0.341164
0.0665472 0.449324 -0.275882
0.102351 0.110464 -0.0678243
-0.0214539 -0.418015 0.25666
-0.112454 -0.307295 0.188678
-0.0300699 0.261418 -0.160509
-0.110138 0.0209204 0.456595
-0.169355 0.00516677 0.112225
0.0354984 -0.0195549 -0.424677
0.186069 -0.0143758 -0.312193
0.0497668 0.0121716 0.265649
-0.118364 -0.439482 0.490699
-0.174052 -0.103383 0.115431
0.0364773 0.390843 -0.436391
0.191214 0.287264 -0.320742
0.0534839 -0.255692 0.28549
0 -0.264382 0
0 -0.0791368 0
0 0.29918 0
0 0.219894 0
0 -0.153818 0
-0.2341 0.139997 -0.522571
-0.359964 0.0343115 -0.12849
0.0754519 -0.129833 0.486231
0.395493 -0.095443 0.357443
0.10578 0.0814507 -0.304034
-0.110138 0.330247 -0.245857
-0.169355 0.0812052 -0.0604515
0.0354984 -0.307296 0.22876
0.186069 -0.225903 0.168169
0.0497668 0.192139 -0.14304
0.182282 0.0153763 0.406902
0.280222 0.00379835 0.100026
-0.0587367 -0.0143758 -0.378514
-0.307878 -0.0105685 -0.278257
-0.0823658 0.00894595 0.236737
0.195897 -0.323013 0.437294
0.288062 -0.0759849 0.102868
-0.0603713 0.287264 -0.388897
-0.316465 0.211136 -0.285834
-0.0885178 -0.18793 0.254419
0 0.235325 0
0 0.0553572 0
0 -0.209281 0
0 -0.153819 0
0 0.136913 0
-0.251585 -0.12461 0.340534
-0.369949 -0.029313 0.0801064
0.0775329 0.110819 -0.302846
0.406426 0.0814507 -0.222588
0.113681 -0.0724987 0.198124
-0.118364 -0.293951 0.160213
-0.174052 -0.0691483 0.037688
0.0364773 0.261418 -0.142481
0.191213 0.192139 -0.104722
0.0534839 -0.171022 0.0932123
0.195897 -0.0136863 -0.265158
0.288062 -0.00321953 -0.0623751
-0.0603712 0.0121716 0.235812
-0.316465 0.00894596 0.173319
-0.0885178 -0.00796273 -0.15427
0.210529 0.287512 -0.284963
0.309578 0.0676336 -0.067034
-0.0648805 -0.255692 0.253425
-0.340103 -0.18793 0.186264
-0.0951293 0.167275 -0.165792
