# vtk DataFile Version 3.0
Velocity field
ASCII
DATASET STRUCTURED_POINTS
DIMENSIONS 5 5 5
SPACING 1.33333 1.33333 1.33333
ORIGIN 0 0 0
POINT_DATA 125
VECTORS velocity float
0 0.402367 0
0 0.0946518 0
0 -0.357836 0
0 -0.263005 0
0 0.234099 0
0 -0.213063 0.698791
0 -0.0501205 0.189446
0 0.189483 -0.716209
0 0.139268 -0.526404
0 -0.123961 0.406559
0 -0.502608 0.328764
0 -0.118232 0.0891296
0 0.446983 -0.336959
0 0.328527 -0.24766
0 -0.292419 0.191276
0 -0.0234013 -0.544116
0 -0.00550487 -0.147513
0 0.0208114 0.557678
0 0.0152961 0.409887
0 -0.013615 -0.316569
0 0.491598 -0.584757
0 0.115642 -0.137557
0 -0.437192 0.52004
0 -0.32133 0.382223
0 0.286014 -0.340214
0 0.0946518 0
0 0.0283319 0
0 -0.10711 0
0 -0.0787244 0
0 0.0550687 0
0.29908 -0.0501205 0.245403
0.459874 -0.0122683 0.0604654
-0.0963938 0.0464208 -0.22882
-0.505264 0.0341245 -0.168213
-0.135142 -0.0291603 0.142777
0.14071 -0.118232 0.115456
0.21636 -0.0290329 0.0284476
-0.0453512 0.109861 -0.107654
-0.237714 0.0807615 -0.0791404
-0.0635809 -0.0687879 0.0671728
-0.23288 -0.00550487 -0.191084
-0.357997 -0.0013577 -0.0470704
0.0750394 0.00513831 0.178127
0.393331 0.00377739 0.130947
0.105229 -0.00320275 -0.111173
-0.250274 0.115642 -0.205356
-0.368021 0.0272034 -0.0483075
0.077129 -0.102844 0.182629
0.404309 -0.0755889 0.13423
0.113088 0.0672812 -0.119477
0 -0.357836 0
0 -0.10711 0
0 0.404934 0
0 0.297621 0
0 -0.20819 0
0.14071 0.189483 -0.583335
0.21636 0.0464208 -0.143374
-0.0453512 -0.175651 0.542547
-0.237714 -0.129124 0.398842
-0.0635809 0.110242 -0.339386
0.0662004 0.446983 -0.274445
0.101792 0.109861 -0.067454
-0.0213365 -0.415729 0.255256
-0.111839 -0.305614 0.187645
-0.0299132 0.260056 -0.159673
-0.109564 0.0208114 0.454216
-0.168429 0.0051383 0.111613
0.0353043 -0.0194469 -0.422356
0.185052 -0.0142963 -0.310485
0.0495074 0.0121082 0.264264
-0.117748 -0.437192 0.488142
-0.173145 -0.102844 0.114829
0.0362873 0.388806 -0.434117
0.190217 0.285767 -0.319071
0.0532052 -0.25436 0.284003
0 -0.263005 0
0 -0.0787244 0
0 0.297621 0
0 0.218748 0
0 -0.153017 0
-0.23288 0.139268 -0.519848
-0.357997 0.0341247 -0.127789
0.0750394 -0.129125 0.483571
0.393331 -0.0949221 0.355487
0.105229 0.0810263 -0.302449
-0.109564 0.328527 -0.244576
-0.168429 0.0807618 -0.0601214
0.0353043 -0.305615 0.227509
0.185052 -0.224667 0.167248
0.0495074 0.191138 -0.142295
0.181332 0.0152961 0.404781
0.278691 0.00377741 0.0994801
-0.0584158 -0.0142964 -0.376445
-0.306196 -0.0105101 -0.276735
-0.0819366 0.00889934 0.235503
0.194877 -0.32133 0.435015
0.286561 -0.0755889 0.102332
-0.0600567 0.285767 -0.38687
-0.314816 0.210035 -0.284345
-0.0880566 -0.186951 0.253093
0 0.234099 0
0 0.0550688 0
0 -0.20819 0
0 -0.153017 0
0 0.136199 0
-0.250274 -0.123961 0.338759
-0.368021 -0.0291603 0.079689
0.0771289 0.110242 -0.301268
0.404308 0.0810263 -0.221428
0.113088 -0.072121 0.197092
-0.117748 -0.292419 0.159378
-0.173145 -0.0687879 0.0374917
0.0362872 0.260056 -0.141739
0.190217 0.191138 -0.104176
0.0532052 -0.170131 0.0927266
0.194877 -0.013615 -0.263776
0.286561 -0.00320275 -0.06205
-0.0600567 0.0121082 0.234583
-0.314816 0.00889934 0.172416
-0.0880566 -0.00792124 -0.153466
0.209432 0.286014 -0.283478
0.307965 0.0672812 -0.0666847
-0.0645424 -0.25436 0.252105
-0.33833 -0.186951 0.185294
-0.0946336 0.166404 -0.164929
