# vtk DataFile Version 3.0
Velocity field
ASCII
DATASET STRUCTURED_POINTS
DIMENSIONS 10 10 10
SPACING 0.631579 0.631579 0.631579
ORIGIN 0 0 0
POINT_DATA 1000
VECTORS velocity float
0 0.383797 0
0 0.309761 0
0 0.116217 0
0 -0.122164 0
0 -0.313414 0
0 -0.383746 0
0 -0.306026 0
0 -0.110239 0
0 0.128079 0
0 0.316983 0
0 0.235725 0.300637
0 0.190253 0.252157
0 0.0713796 0.0946051
0 -0.0750324 -0.0994463
0 -0.192496 -0.255131
0 -0.235694 -0.312383
0 -0.187959 -0.249117
0 -0.067708 -0.0897387
0 0.0786651 0.104261
0 0.194689 0.2483
0 -0.00329102 0.485286
0 -0.00265617 0.40703
0 -0.00099655 0.152711
0 0.00104755 -0.160525
0 0.00268749 -0.41183
0 0.00329058 -0.504247
0 0.00262414 -0.402122
0 0.000945289 -0.144856
0 -0.00109827 0.168298
0 -0.0027181 0.400805
0 -0.241037 0.482708
0 -0.19454 0.404868
0 -0.0729883 0.1519
0 0.0767233 -0.159673
0 0.196834 -0.409642
0 0.241005 -0.501569
0 0.192195 -0.399986
0 0.0692338 -0.144086
0 -0.080438 0.167404
0 -0.199076 0.398675
0 -0.38579 0.293898
0 -0.31137 0.246505
0 -0.116821 0.0924843
0 0.122799 -0.097217
0 0.315041 -0.249411
0 0.385739 -0.305381
0 0.307615 -0.243532
0 0.110811 -0.0877271
0 -0.128744 0.101924
0 -0.318629 0.242734
0 -0.381702 -0.00830046
0 -0.30807 -0.00696195
0 -0.115583 -0.002612
0 0.121497 0.00274566
0 0.311703 0.00704405
0 0.381651 0.00862478
0 0.304355 0.006878
0 0.109637 0.00247765
0 -0.12738 -0.0028786
0 -0.315253 -0.00685546
0 -0.23035 -0.307296
0 -0.185915 -0.257743
0 -0.0697521 -0.0967006
0 0.0733215 0.101649
0 0.188107 0.260782
0 0.23032 0.319303
0 0.183673 0.254635
0 0.0661641 0.0917264
0 -0.0768715 -0.106571
0 -0.190249 -0.2538
0 0.00987228 -0.487735
0 0.00796788 -0.409084
0 0.00298941 -0.153481
0 -0.00314239 0.161336
0 -0.00806184 0.413908
0 -0.00987097 0.506792
0 -0.00787181 0.404152
0 -0.00283564 0.145587
0 0.00329453 -0.169147
0 0.00815366 -0.402827
0 0.246286 -0.480002
0 0.198776 -0.402598
0 0.0745775 -0.151048
0 -0.0783938 0.158778
0 -0.20112 0.407345
0 -0.246253 0.498757
0 -0.196379 0.397744
0 -0.0707413 0.143278
0 0.0821894 -0.166465
0 0.203411 -0.39644
0 0.38768 -0.287081
0 0.312895 -0.231702
0 0.117393 -0.0869305
0 -0.1234 0.091379
0 -0.316585 0.234434
0 -0.387629 0.287042
0 -0.309123 0.228908
0 -0.111355 0.0824589
0 0.129375 -0.0958032
0 0.320191 -0.237104
0 0.309761 0
0 0.263012 0
0 0.0986777 0
0 -0.103727 0
0 -0.266114 0
0 -0.325831 0
0 -0.259841 0
0 -0.0936018 0
0 0.108749 0
0 0.255836 0
0.0437122 0.190253 0.332721
0.117895 0.158436 0.277034
0.145237 0.05948 0.104005
0.116521 -0.0625252 -0.109329
0.0428509 -0.160409 -0.280487
-0.0473522 -0.196406 -0.34343
-0.119286 -0.156628 -0.273875
-0.145198 -0.0564227 -0.0986591
-0.115071 0.0654686 0.114475
-0.0393277 0.157132 0.274799
0.0705599 -0.00265617 0.537075
0.190307 -0.00220566 0.447186
0.23444 -0.000827996 0.167883
0.188089 0.000870386 -0.176479
0.0691697 0.00223299 -0.452759
-0.0764354 0.00273408 -0.554361
-0.19255 0.00218035 -0.442086
-0.234378 0.000785435 -0.159255
-0.185747 -0.000911474 0.184784
-0.0634824 -0.00219377 0.443578
0.0701851 -0.19454 0.534222
0.189296 -0.161814 0.444811
0.233195 -0.0607475 0.166992
0.187089 0.0638576 -0.175542
0.0688022 0.163828 -0.450353
-0.0760295 0.200591 -0.551417
-0.191528 0.159965 -0.439737
-0.233133 0.057625 -0.158409
-0.18476 -0.0668657 0.183802
-0.0631452 -0.160673 0.441222
0.0427323 -0.31137 0.325262
0.115253 -0.25899 0.270823
0.141981 -0.0972285 0.101673
0.11391 0.102207 -0.106879
0.0418902 0.262211 -0.274199
-0.0462906 0.321054 -0.33573
-0.116612 0.256031 -0.267735
-0.141943 0.0922311 -0.0964474
-0.112491 -0.107021 0.111909
-0.0384461 -0.257164 0.268639
-0.00120688 -0.30807 -0.00918627
-0.00325504 -0.256246 -0.00764878
-0.00400993 -0.0961981 -0.00287153
-0.0032171 0.101124 0.00301854
-0.0011831 0.259433 0.0077441
0.00130736 0.317652 0.00948196
0.00329344 0.253318 0.00756157
0.00400886 0.0912536 0.00272393
0.00317707 -0.105887 -0.00316059
0.00108582 -0.254439 -0.00758707
-0.0446805 -0.185915 -0.340091
-0.120507 -0.15464 -0.28317
-0.148454 -0.058054 -0.106309
-0.119103 0.0610261 0.111751
-0.0438001 0.156563 0.286699
0.0484007 0.191697 0.351036
0.121928 0.152873 0.279942
0.148415 0.05507 0.100844
0.11762 -0.063901 -0.11701
0.0401988 -0.153549 -0.280886
-0.070916 0.00796788 -0.539786
-0.191266 0.00662584 -0.449441
-0.235623 0.00248741 -0.16873
-0.189037 -0.00261475 0.177369
-0.0695186 -0.00670818 0.455042
0.0768206 -0.00821353 0.557157
0.193521 -0.00655005 0.444316
0.23556 -0.00235956 0.160058
0.186683 0.00273798 -0.185716
0.0638028 0.00658078 -0.445816
-0.0697916 0.198776 -0.531227
-0.188175 0.165208 -0.442183
-0.231814 0.0620199 -0.166004
-0.185981 -0.065195 0.174502
-0.0683947 -0.167258 0.447689
0.0755791 -0.204792 0.548153
0.190394 -0.163316 0.437135
0.231752 -0.058832 0.157471
0.183666 0.0682696 -0.182718
0.0627912 0.164172 -0.438748
-0.0417411 0.312895 -0.317717
-0.109119 0.252537 -0.256429
-0.134398 0.0947475 -0.0962076
-0.107826 -0.099596 0.101131
-0.039653 -0.255515 0.259452
0.0438182 -0.312854 0.317675
0.110384 -0.249492 0.253337
0.134363 -0.0898738 0.0912588
0.106503 0.104418 -0.106027
0.0375543 0.258425 -0.262407
0 0.116217 0
0 0.0986777 0
0 0.0370222 0
0 -0.0389167 0
0 -0.0998413 0
0 -0.122246 0
0 -0.0974879 0
0 -0.0351178 0
0 0.0408009 0
0 0.0959852 0
0.0705599 0.0713796 0.236438
0.190307 0.05948 0.196792
0.23444 0.0223303 0.0738799
0.188089 -0.0234737 -0.0776621
0.0691697 -0.060222 -0.199244
-0.0764354 -0.0737361 -0.243955
-0.19255 -0.0588024 -0.194547
-0.234378 -0.0211826 -0.0700829
-0.185747 0.0245777 0.0813177
-0.0634824 0.0589534 0.195278
0.113897 -0.00099655 0.381657
0.307191 -0.000827996 0.31766
0.378434 -0.000310834 0.119257
0.303612 0.000326744 -0.125362
0.111653 0.000838269 -0.321618
-0.123381 0.00102639 -0.393791
-0.310813 0.00081851 -0.314036
-0.378333 0.000294855 -0.113127
-0.299831 -0.000342159 0.131262
-0.102473 -0.000823064 0.315216
0.113292 -0.0729883 0.379629
0.30556 -0.0607475 0.315972
0.376423 -0.0228059 0.118623
0.301999 0.0239735 -0.124696
0.11106 0.0615041 -0.319909
-0.122726 0.0753064 -0.391698
-0.309162 0.0600546 -0.312368
-0.376322 0.0216337 -0.112526
-0.298238 -0.0251019 0.130565
-0.101928 -0.060282 0.313541
0.0689782 -0.116821 0.231138
0.18604 -0.0972285 0.19238
0.229186 -0.0365018 0.0722238
0.183872 0.0383705 -0.0759218
0.067619 0.0984399 -0.194777
-0.0747218 0.120531 -0.238487
-0.188235 0.0961193 -0.190187
-0.229125 0.0346256 -0.0685116
-0.181583 -0.0401765 0.0794948
-0.0620594 -0.0964836 0.1909
-0.00194813 -0.115583 -0.00652796
-0.00525425 -0.0961981 -0.00543335
-0.00647278 -0.0361149 -0.00203979
-0.00519303 0.037964 0.00214423
-0.00190974 0.0973965 0.00550106
0.00211034 0.119253 0.00673553
0.00531624 0.0951012 0.00537136
0.00647106 0.0342587 0.00193495
0.00512842 -0.0397508 -0.00224514
0.00175272 -0.0954612 -0.00539153
-0.0721229 -0.0697521 -0.241675
-0.194521 -0.058054 -0.201151
-0.239634 -0.0217947 -0.0755167
-0.192254 0.0229105 0.0793828
-0.0707015 0.0587772 0.203658
0.0781281 0.0719672 0.249359
0.196816 0.0573918 0.198857
0.23957 0.0206745 0.0716348
0.189862 -0.0239888 -0.0831189
0.0648886 -0.0576092 -0.199603
-0.114472 0.00298941 -0.383583
-0.308739 0.00248741 -0.319262
-0.380342 0.000933819 -0.119858
-0.305143 -0.000981625 0.125994
-0.112216 -0.00251836 0.323239
0.124003 -0.00308351 0.395777
0.31238 -0.002459 0.31562
0.380241 -0.00088582 0.113698
0.301344 0.00102785 -0.131924
0.10299 0.002469 -0.316806
-0.112657 0.0745775 -0.377501
-0.303751 0.0620199 -0.314106
-0.374193 0.023283 -0.117921
-0.30021 -0.024475 0.123958
-0.110402 -0.0627909 0.318017
0.121999 -0.0768815 0.38938
0.307332 -0.0613108 0.310519
0.374093 -0.0220863 0.11186
0.296473 0.0256283 -0.129795
0.101357 0.0615945 -0.311783
-0.0673782 0.117393 -0.225777
-0.17614 0.0947475 -0.182223
-0.216945 0.0355477 -0.0683671
-0.174051 -0.0373667 0.0718657
-0.0640075 -0.0958648 0.184372
0.070731 -0.117377 0.225747
0.178181 -0.0936051 0.180026
0.216887 -0.0337191 0.0648504
0.171917 0.0391759 -0.0753452
0.0606198 0.0969566 -0.186472
0 -0.122164 0
0 -0.103727 0
0 -0.0389167 0
0 0.0409082 0
0 0.104951 0
0 0.128502 0
0 0.102477 0
0 0.0369149 0
0 -0.0428889 0
0 -0.100897 0
0.0701851 -0.0750324 0.0489361
0.189296 -0.0625252 0.0407301
0.233195 -0.0234737 0.0152909
0.187089 0.0246755 -0.0160737
0.0688022 0.0633052 -0.0412376
-0.0760295 0.077511 -0.0504916
-0.191528 0.0618129 -0.0402654
-0.233133 0.0222672 -0.014505
-0.18476 -0.025836 0.0168303
-0.0631452 -0.0619702 0.040417
0.113292 0.00104755 0.0789923
0.30556 0.000870386 0.065746
0.376423 0.000326744 0.0246825
0.301999 -0.000343474 -0.0259461
0.11106 -0.000881181 -0.0665653
-0.122726 -0.00107893 -0.081503
-0.309162 -0.000860415 -0.064996
-0.376322 -0.000309949 -0.0234138
-0.298238 0.000359675 0.0271674
-0.101928 0.000865183 0.0652409
0.11269 0.0767233 0.0785727
0.303937 0.0638576 0.0653967
0.374422 0.0239735 0.0245514
0.300394 -0.0252009 -0.0258083
0.11047 -0.064653 -0.0662116
-0.122074 -0.0791617 -0.0810699
-0.30752 -0.0631292 -0.0646507
-0.374323 -0.0227412 -0.0232895
-0.296654 0.0263869 0.0270231
-0.101387 0.0633668 0.0648943
0.0686118 0.122799 0.0478391
0.185052 0.102207 0.039817
0.227968 0.0383705 0.0149482
0.182895 -0.0403349 -0.0157135
0.0672599 -0.10348 -0.040313
-0.0743248 -0.126702 -0.0493596
-0.187234 -0.101041 -0.0393628
-0.227908 -0.0363983 -0.0141799
-0.180618 0.0422332 0.016453
-0.0617297 0.101421 0.039511
-0.00193778 0.121497 -0.00135111
-0.00522634 0.101124 -0.00112454
-0.00643839 0.037964 -0.000422176
-0.00516547 -0.0399075 0.000443792
-0.0018996 -0.102383 0.00113855
0.00209913 -0.125359 0.00139405
0.00528799 -0.0999699 0.00111171
0.00643668 -0.0360126 0.000400476
0.00510116 0.0417857 -0.000464677
0.00174341 0.100346 -0.0011159
-0.0717398 0.0733215 -0.0500201
-0.193488 0.0610261 -0.0416321
-0.238361 0.0229105 -0.0156296
-0.191234 -0.0240835 0.0164298
-0.0703262 -0.0617864 0.0421507
0.077713 -0.075652 0.0516097
0.19577 -0.0603302 0.0411575
0.238297 -0.021733 0.0148263
0.188853 0.025217 -0.0172031
0.0645439 0.0605572 -0.0413123
-0.113864 -0.00314239 -0.079391
-0.3071 -0.00261475 -0.0660776
-0.378321 -0.000981625 -0.0248069
-0.303522 0.00103188 0.026077
-0.11162 0.0026473 0.0669009
0.123344 0.00324137 0.0819142
0.31072 0.0025849 0.0653238
0.378221 0.000931169 0.0235319
0.299742 -0.00108047 -0.0273043
0.102443 -0.00259534 -0.0655701
-0.112059 -0.0783938 -0.0781322
-0.302137 -0.065195 -0.0650105
-0.372205 -0.024475 -0.0244061
-0.298615 0.025728 0.0256556
-0.109816 0.0660055 0.0658198
0.121351 0.0808175 0.0805902
0.3057 0.0644496 0.0642682
0.372106 0.0232169 0.0231517
0.294898 -0.0269404 -0.0268637
0.100819 -0.0647465 -0.0645305
-0.0670203 -0.1234 -0.0467295
-0.175204 -0.099596 -0.0377152
-0.215793 -0.0373667 -0.0141501
-0.173127 0.0392789 0.0148742
-0.0636675 0.10077 0.0381599
0.0703552 0.123384 0.0467233
0.177234 0.0983951 0.0372604
0.215735 0.0354446 0.0134222
0.171004 -0.0411807 -0.0155944
0.0602978 -0.101918 -0.0385945
0 -0.313414 0
0 -0.266114 0
0 -0.0998413 0
0 0.104951 0
0 0.269252 0
0 0.329674 0
0 0.262905 0
0 0.0947056 0
0 -0.110032 0
0 -0.258852 0
0.0427323 -0.192496 -0.157446
0.115253 -0.160409 -0.131044
0.141981 -0.060222 -0.0491966
0.11391 0.0633052 0.0517152
0.0418902 0.16241 0.132676
-0.0462906 0.198856 0.16245
-0.116612 0.158582 0.129549
-0.141943 0.0571267 0.0466679
-0.112491 -0.0662825 -0.0541494
-0.0384461 -0.158985 -0.130037
0.0689782 0.00268749 -0.254148
0.18604 0.00223299 -0.211529
0.229186 0.000838268 -0.0794129
0.183872 -0.000881181 0.0834784
0.067619 -0.00226069 0.214165
-0.0747218 -0.00276802 0.262225
-0.188235 -0.00220739 0.209117
-0.229125 -0.000795178 0.0753313
-0.181583 0.000922748 -0.0874075
-0.0620594 0.00221963 -0.209904
0.0686118 0.196834 -0.252798
0.185052 0.163828 -0.210406
0.227968 0.0615041 -0.0789909
0.182895 -0.064653 0.0830351
0.0672599 -0.165868 0.213027
-0.0743248 -0.203091 0.260832
-0.187234 -0.161958 0.208005
-0.227908 -0.0583429 0.0749309
-0.180618 0.0676959 -0.0869431
-0.0617297 0.162568 -0.208789
0.0417744 0.315041 -0.153917
0.112669 0.262211 -0.128106
0.138799 0.0984399 -0.0480937
0.111356 -0.10348 0.0505562
0.0409514 -0.265479 0.129702
-0.0452527 -0.325054 0.158808
-0.113998 -0.25922 0.126645
-0.138762 -0.0933802 0.0456217
-0.10997 0.10835 -0.0529355
-0.0375842 0.260197 -0.127122
-0.00117982 0.311703 0.00434701
-0.00318209 0.259433 0.00361806
-0.00392004 0.0973965 0.0013583
-0.00314499 -0.102383 -0.00142783
-0.00115657 -0.262665 -0.00366313
0.00127807 -0.321609 -0.00448515
0.0032196 -0.256474 -0.00357679
0.003919 -0.0923907 -0.00128849
0.00310585 0.107202 0.00149504
0.00106148 0.257439 0.00359026
-0.0436789 0.188107 0.160933
-0.117805 0.156563 0.133946
-0.145126 0.0587772 0.0502864
-0.116433 -0.0617864 -0.0528608
-0.0428182 -0.158514 -0.135615
0.0473161 -0.194085 -0.166048
0.119195 -0.154777 -0.132418
0.145088 -0.0557561 -0.0477018
0.114984 0.0646944 0.0553487
0.0392977 0.15536 0.132917
-0.0693263 -0.00806184 0.255431
-0.186978 -0.00670818 0.212596
-0.230341 -0.00251836 0.0798132
-0.184799 0.0026473 -0.0838991
-0.0679599 0.00679168 -0.215246
0.0750987 0.00831579 -0.263547
0.189184 0.0066316 -0.210171
0.23028 0.00238893 -0.0757111
0.182499 -0.00277196 0.0878483
0.0623725 -0.00665838 0.210964
-0.0682271 -0.20112 0.251381
-0.183956 -0.167258 0.209163
-0.226618 -0.0627909 0.0785236
-0.181812 0.0660055 -0.082544
-0.0668615 0.169338 -0.211767
0.0738847 0.207338 -0.259288
0.186126 0.165347 -0.206775
0.226558 0.0595634 -0.0744875
0.179549 -0.0691157 0.0864304
0.0613836 -0.166108 0.207619
-0.0408054 -0.316585 0.150346
-0.106673 -0.255515 0.121344
-0.131386 -0.0958648 0.0455262
-0.105409 0.10077 -0.0478559
-0.0387641 0.258528 -0.122775
0.0428359 0.316543 -0.150326
0.10791 0.252434 -0.119881
0.131351 0.0909336 -0.0431844
0.104116 -0.105649 0.0501729
0.0367124 -0.261472 0.124173
0 -0.383746 0
0 -0.325831 0
0 -0.122246 0
0 0.128502 0
0 0.329674 0
0 0.403654 0
0 0.321903 0
0 0.115958 0
0 -0.134724 0
0 -0.316941 0
-0.00120688 -0.235694 -0.303084
-0.00325504 -0.196406 -0.25226
-0.00400993 -0.0737361 -0.094704
-0.0032171 0.077511 0.0995522
-0.0011831 0.198856 0.255403
0.00130736 0.24348 0.312716
0.00329344 0.194168 0.249382
0.00400886 0.0699463 0.089836
0.00317707 -0.0811568 -0.104238
0.00108582 -0.194663 -0.250321
-0.00194813 0.00329058 -0.489236
-0.00525425 0.00273408 -0.407196
-0.00647278 0.00102639 -0.15287
-0.00519303 -0.00107893 0.160697
-0.00190974 -0.00276802 0.412268
0.00211034 -0.00338917 0.504785
0.00531624 -0.00270276 0.402552
0.00647106 -0.000973621 0.145013
0.00512842 0.00112982 -0.168259
0.00175272 0.00271774 -0.404067
-0.00193778 0.241005 -0.486637
-0.00522634 0.200591 -0.405033
-0.00643839 0.0753064 -0.152058
-0.00516547 -0.0791617 0.159843
-0.0018996 -0.203091 0.410078
0.00209913 -0.248665 0.502103
0.00528799 -0.198303 0.400412
0.00643668 -0.0714353 0.144242
0.00510116 0.0828875 -0.167366
0.00174341 0.19905 -0.40192
-0.00117982 0.385739 -0.29629
-0.00318209 0.321054 -0.246605
-0.00392004 0.120531 -0.0925808
-0.00314499 -0.126702 0.0973204
-0.00115657 -0.325054 0.249677
0.00127807 -0.397998 0.305707
0.0032196 -0.317392 0.243792
0.003919 -0.114336 0.0878224
0.00310585 0.132665 -0.101901
0.00106148 0.318587 -0.24471
3.33213e-05 0.381651 0.00836802
8.98698e-05 0.317652 0.00696477
0.000110713 0.119253 0.00261471
8.88231e-05 -0.125359 -0.00274861
3.26647e-05 -0.321609 -0.00705154
-3.60956e-05 -0.39378 -0.00863397
-9.09312e-05 -0.314028 -0.00688534
-0.000110684 -0.113124 -0.00248034
-8.77172e-05 0.131259 0.00287796
-2.9979e-05 0.31521 0.00691126
0.00123361 0.23032 0.309798
0.00332714 0.191697 0.257847
0.00409876 0.0719672 0.0968011
0.00328837 -0.075652 -0.101758
0.00120929 -0.194085 -0.261059
-0.00133633 -0.237639 -0.319643
-0.0033664 -0.189511 -0.254907
-0.00409767 -0.0682682 -0.0918259
-0.00324744 0.0792123 0.106547
-0.00110987 0.190224 0.255866
0.00195796 -0.00987097 0.491705
0.00528076 -0.00821353 0.409249
0.00650543 -0.00308351 0.153641
0.00521919 0.00324137 -0.161507
0.00191937 0.00831579 -0.414347
-0.00212098 0.0101819 -0.507331
-0.00534304 0.00811975 -0.404582
-0.00650371 0.00292502 -0.145744
-0.00515427 -0.003394 0.169108
-0.00176157 -0.00815256 0.406106
0.00192692 -0.246253 0.483909
0.00519543 -0.204792 0.402641
0.00640028 -0.0768815 0.151159
0.00513488 0.0808175 -0.158897
0.00188835 0.207338 -0.407652
-0.0020867 0.253867 -0.499132
-0.00525666 0.202452 -0.398043
-0.00639858 0.0729299 -0.143389
-0.00507095 -0.0846256 0.166379
-0.00173364 -0.203384 0.399667
0.00115245 -0.387629 0.289417
0.00301274 -0.312854 0.233588
0.00371068 -0.117377 0.0876381
0.00297702 0.123384 -0.0921228
0.0010948 0.316543 -0.236342
-0.0012098 0.387577 -0.289379
-0.00304765 0.309082 -0.230771
-0.0037097 0.11134 -0.0831301
-0.00294051 -0.129358 0.096583
-0.00103686 -0.320148 0.239034
0 -0.306026 0
0 -0.259841 0
0 -0.0974879 0
0 0.102477 0
0 0.262905 0
0 0.321903 0
0 0.256708 0
0 0.0924732 0
0 -0.107438 0
0 -0.252751 0
-0.0446805 -0.187959 -0.33179
-0.120507 -0.156628 -0.276152
-0.148454 -0.0588024 -0.103673
-0.119103 0.0618129 0.108981
-0.0438001 0.158582 0.279594
0.0484007 0.194168 0.342335
0.121928 0.154843 0.273002
0.148415 0.05578 0.0983447
0.11762 -0.0647201 -0.114111
0.0401988 -0.155238 -0.27403
-0.0721229 0.00262414 -0.535573
-0.194521 0.00218035 -0.445762
-0.239634 0.00081851 -0.167348
-0.192254 -0.000860415 0.175917
-0.0707015 -0.00220739 0.451316
0.0781281 -0.00270276 0.552595
0.196816 -0.00215538 0.440677
0.23957 -0.000776438 0.158747
0.189862 0.000901001 -0.184196
0.0648886 0.00216731 -0.442337
-0.0717398 0.192195 -0.532728
-0.193488 0.159965 -0.443394
-0.238361 0.0600546 -0.16646
-0.191234 -0.0631292 0.174982
-0.0703262 -0.161958 0.448918
0.077713 -0.198303 0.54966
0.19577 -0.158141 0.438336
0.238297 -0.0569679 0.157904
0.188853 0.0661002 -0.183218
0.0645439 0.158736 -0.439988
-0.0436789 0.307615 -0.324353
-0.117805 0.256031 -0.269961
-0.145126 0.0961193 -0.10135
-0.116433 -0.101041 0.106538
-0.0428182 -0.25922 0.273325
0.0473161 -0.317392 0.33466
0.119195 -0.253111 0.266883
0.145088 -0.0911789 0.0961401
0.114984 0.105796 -0.111552
0.0392977 0.254063 -0.267887
0.00123361 0.304355 0.00916059
0.00332714 0.253318 0.00762444
0.00409876 0.0951012 0.00286237
0.00328837 -0.0999699 -0.00300892
0.00120929 -0.256474 -0.00771941
-0.00133633 -0.314028 -0.00945176
-0.0033664 -0.250428 -0.00753749
-0.00409767 -0.0902127 -0.00271526
-0.00324744 0.104675 0.00315054
-0.00110987 0.251371 0.00756585
0.0456702 0.183673 0.33914
0.123176 0.152873 0.282269
0.151743 0.0573918 0.10597
0.121741 -0.0603302 -0.111395
0.0447702 -0.154777 -0.285785
-0.049473 -0.189511 -0.349918
-0.124629 -0.151129 -0.27905
-0.151703 -0.0544419 -0.100523
-0.120226 0.0631695 0.116638
-0.0410892 0.151698 0.2801
0.0724869 -0.00787181 0.538276
0.195502 -0.00655005 0.44801
0.240843 -0.002459 0.168192
0.193223 0.0025849 -0.176804
0.071058 0.0066316 -0.453592
-0.0785222 0.00811975 -0.555382
-0.197808 0.00647525 -0.442899
-0.240779 0.00233261 -0.159548
-0.190819 -0.00270661 0.185125
-0.065216 -0.00650143 0.44457
0.0713376 -0.196379 0.529742
0.192343 -0.163316 0.440775
0.236949 -0.0613108 0.165475
0.190101 0.0644496 -0.173947
0.0699098 0.165347 -0.446262
-0.0772528 0.202452 -0.546407
-0.19461 0.161448 -0.435742
-0.236886 0.0581594 -0.156969
-0.187735 -0.0674865 0.182137
-0.064182 -0.162192 0.437521
0.0426657 -0.309123 0.316829
0.111536 -0.249492 0.255711
0.137375 -0.0936051 0.0959386
0.110214 0.0983951 -0.100848
0.0405313 0.252434 -0.258727
-0.0447888 0.309082 -0.316787
-0.112829 0.246483 -0.252628
-0.137339 0.0887901 -0.0910036
-0.108863 -0.103159 0.105731
-0.0383861 -0.255309 0.261673
0 -0.110239 0
0 -0.0936018 0
0 -0.0351178 0
0 0.0369149 0
0 0.0947056 0
0 0.115958 0
0 0.0924732 0
0 0.0333114 0
0 -0.0387022 0
0 -0.0910478 0
-0.070916 -0.067708 -0.232489
-0.191266 -0.0564227 -0.193503
-0.235623 -0.0211826 -0.0726455
-0.189037 0.0222672 0.076365
-0.0695186 0.0571267 0.195914
0.0768206 0.0699464 0.239879
0.193521 0.0557801 0.191297
0.23556 0.0200939 0.0689117
0.186683 -0.0233144 -0.0799588
0.0638028 -0.0559209 -0.192016
-0.114472 0.000945289 -0.375282
-0.308739 0.000785435 -0.312351
-0.380342 0.000294855 -0.117264
-0.305143 -0.000309949 0.123267
-0.112216 -0.000795178 0.316244
0.124003 -0.000973621 0.38721
0.31238 -0.000776438 0.308788
0.380241 -0.000279699 0.111237
0.301344 0.000324571 -0.129069
0.10299 0.000780726 -0.309951
-0.113864 0.0692338 -0.373289
-0.3071 0.0576251 -0.310692
-0.378321 0.0216337 -0.116641
-0.303522 -0.0227412 0.122612
-0.11162 -0.0583429 0.314564
0.123344 -0.0714353 0.385154
0.31072 -0.0569679 0.307149
0.378221 -0.0205218 0.110646
0.299742 0.0238116 -0.128383
0.102443 0.0571811 -0.308304
-0.0693263 0.110811 -0.227278
-0.186978 0.0922312 -0.189166
-0.230341 0.0346256 -0.0710168
-0.184799 -0.0363984 0.0746529
-0.0679599 -0.0933803 0.191523
0.0750987 -0.114336 0.234502
0.189184 -0.091179 0.187008
0.23028 -0.0328459 0.0673669
0.182499 0.0381115 -0.0781663
0.0623725 0.0915206 -0.187712
0.00195796 0.109637 0.00641892
0.00528076 0.0912537 0.00534255
0.00650543 0.0342587 0.00200571
0.00521919 -0.0360126 -0.00210839
0.00191937 -0.0923908 -0.0054091
-0.00212098 -0.113124 -0.00662294
-0.00534304 -0.0902127 -0.0052816
-0.00650371 -0.0324977 -0.00190262
-0.00515427 0.0377076 0.00220763
-0.00176157 0.0905508 0.00530148
0.0724869 0.0661641 0.237639
0.195502 0.05507 0.19779
0.240843 0.0206745 0.0742546
0.193223 -0.021733 -0.078056
0.071058 -0.0557562 -0.200254
-0.0785222 -0.0682682 -0.245192
-0.197808 -0.0544419 -0.195533
-0.240779 -0.0196118 -0.0704381
-0.190819 0.0227558 0.0817301
-0.065216 0.0546458 0.196269
0.11505 -0.00283564 0.377176
0.310295 -0.00235956 0.313927
0.382259 -0.00088582 0.117855
0.30668 0.00093117 -0.123889
0.112782 0.00238893 -0.317839
-0.124629 0.00292502 -0.389163
-0.313956 0.00233261 -0.310345
-0.382158 0.000840288 -0.111797
-0.302863 -0.000975015 0.12972
-0.10351 -0.00234199 0.311515
0.113226 -0.0707413 0.371196
0.305282 -0.058832 0.308857
0.37608 -0.0220863 0.11595
0.301724 0.023217 -0.121887
0.110959 0.0595634 -0.312702
-0.122614 0.07293 -0.382875
-0.30888 0.0581594 -0.305332
-0.37598 0.020951 -0.109991
-0.297968 -0.0243109 0.127626
-0.101869 -0.0584262 0.306576
0.0677182 -0.111355 0.222006
0.177028 -0.0898738 0.17918
0.21804 -0.0337191 0.0672253
0.17493 0.0354446 -0.0706654
0.0643305 0.0909336 -0.181293
-0.0710879 0.11134 -0.221976
-0.17908 0.0887901 -0.177019
-0.217982 0.0319847 -0.0637673
-0.172785 -0.0371607 0.0740867
-0.0609257 -0.0919692 0.183358
0 0.128079 0
0 0.108749 0
0 0.0408009 0
0 -0.0428888 0
0 -0.110032 0
0 -0.134724 0
0 -0.107438 0
0 -0.0387022 0
0 0.0449654 0
0 0.105782 0
-0.0697916 0.0786651 -0.0434922
-0.188175 0.065467 -0.0362685
-0.231814 0.0245771 -0.0136168
-0.185981 -0.0258353 0.014314
-0.0683947 -0.0662808 0.0367226
0.0755791 -0.0811547 0.0449633
0.190394 -0.0647184 0.0358569
0.231752 -0.0233138 0.0129169
0.183666 0.0270527 -0.0149858
0.0627912 0.0649706 -0.0359208
-0.112657 -0.00109827 -0.0702048
-0.303751 -0.00091145 -0.0585443
-0.374193 -0.00034215 -0.0219801
-0.30021 0.000359666 0.0231055
-0.110402 0.000922723 0.0592774
0.121999 0.00112979 0.0725796
0.307332 0.000900976 0.05788
0.374093 0.000324562 0.0208504
0.296473 -0.000376658 -0.02419
0.101357 -0.000907071 -0.0579831
-0.112059 -0.080438 -0.0698319
-0.302137 -0.0668639 -0.0582333
-0.372205 -0.0251012 -0.0218634
-0.298615 0.0263862 0.0229827
-0.109816 0.0676941 0.0589625
0.121351 0.0828853 0.072194
0.3057 0.0660985 0.0575726
0.372106 0.023811 0.0207397
0.294898 -0.0276303 -0.0240615
0.100819 -0.0664348 -0.0576751
-0.0682271 -0.128744 -0.0425173
-0.183956 -0.107018 -0.0354554
-0.226618 -0.0401754 -0.0133116
-0.181812 0.0422321 0.0139931
-0.0668615 0.108347 0.0358994
0.0738847 0.132661 0.0439556
0.186126 0.105793 0.0350532
0.226558 0.0381104 0.0126274
0.179549 -0.0442235 -0.0146499
0.0613836 -0.106331 -0.0351156
0.00192692 -0.12738 0.0012008
0.00519543 -0.105884 0.00100136
0.00640028 -0.0397497 0.000375953
0.00513488 0.0417846 -0.000395202
0.00188835 0.107199 -0.00101389
-0.0020867 0.131255 -0.00124142
-0.00525666 0.104672 -0.000989998
-0.00639858 0.0377065 -0.000356631
-0.00507095 -0.0437549 0.000413752
-0.00173364 -0.105205 0.000991758
0.0713376 -0.0768715 0.0444556
0.192343 -0.0638993 0.0370719
0.236949 -0.0239882 0.0139184
0.190101 0.0252164 -0.014631
0.0699098 0.0646927 -0.0375361
-0.0772527 0.0792102 -0.0459594
-0.19461 0.0631679 -0.0366513
-0.236886 0.0227552 -0.0132031
-0.187735 -0.0264053 0.0153178
-0.064182 -0.0634891 0.0367165
0.113226 0.00329453 0.0705591
0.305282 0.00273791 0.0588395
0.37608 0.00102782 0.022091
0.301724 -0.00108044 -0.023222
0.110959 -0.00277188 -0.0595763
-0.122614 -0.00339391 -0.0729456
-0.30888 -0.00270654 -0.0581718
-0.37598 -0.000974989 -0.0209555
-0.297968 0.00113141 0.0243119
-0.101869 0.002721 0.0582757
0.11143 0.0821894 0.0694404
0.30035 0.0682679 0.0578876
0.370002 0.0256276 0.0217334
0.296847 -0.0269397 -0.0228461
0.109166 -0.0691139 -0.0586119
-0.120632 -0.0846235 -0.0717648
-0.303891 -0.0674847 -0.0572302
-0.369904 -0.0243103 -0.0206164
-0.293153 0.0282112 0.0239189
-0.100253 0.0678813 0.0573518
0.0666445 0.129375 0.041531
0.174222 0.104418 0.0335195
0.214583 0.0391759 0.012576
0.172156 -0.0411807 -0.0132195
0.0633106 -0.105649 -0.0339148
-0.0699608 -0.129358 -0.0415255
-0.176241 -0.103159 -0.0331154
-0.214526 -0.0371607 -0.0119291
-0.170045 0.0431745 0.0138596
-0.0599597 0.106853 0.0343011
0 0.316983 0
0 0.255836 0
0 0.0959852 0
0 -0.100897 0
0 -0.258853 0
0 -0.316941 0
0 -0.252751 0
0 -0.0910478 0
0 0.105782 0
0 0.261801 0
-0.0417411 0.194689 0.162285
-0.109119 0.157132 0.130979
-0.134398 0.0589534 0.0491412
-0.107826 -0.0619702 -0.0516559
-0.0396529 -0.158985 -0.132524
0.0438181 -0.194663 -0.162263
0.110384 -0.155238 -0.1294
0.134363 -0.0559209 -0.0466134
0.106503 0.0649706 0.0541569
0.0375543 0.160796 0.134033
-0.0673782 -0.0027181 0.261959
-0.176139 -0.00219377 0.211426
-0.216945 -0.000823064 0.0793234
-0.174051 0.000865183 -0.0833826
-0.0640075 0.00221964 -0.213919
0.0707309 0.00271774 -0.261924
0.178181 0.00216731 -0.208876
0.216887 0.000780727 -0.0752431
0.171917 -0.000907072 0.0874197
0.0606198 -0.00224492 0.216355
-0.0670203 -0.199076 0.260567
-0.175204 -0.160674 0.210303
-0.215792 -0.060282 0.078902
-0.173127 0.0633668 -0.0829397
-0.0636675 0.162568 -0.212783
0.0703552 0.19905 -0.260532
0.177234 0.158736 -0.207767
0.215735 0.0571812 -0.0748434
0.171004 -0.0664348 0.0869553
0.0602978 -0.16442 0.215206
-0.0408054 -0.318629 0.158647
-0.106673 -0.257164 0.128043
-0.131386 -0.0964837 0.0480396
-0.105409 0.101421 -0.050498
-0.0387641 0.260197 -0.129553
0.0428359 0.318587 -0.158626
0.107909 0.254063 -0.126499
0.131351 0.0915207 -0.0455685
0.104116 -0.106331 0.0529429
0.0367124 -0.26316 0.131029
0.00115245 -0.315253 -0.00448061
0.00301274 -0.254439 -0.00361628
0.00371068 -0.0954612 -0.00135677
0.00297702 0.100346 0.0014262
0.0010948 0.257439 0.00365893
-0.0012098 0.315211 0.00448001
-0.00304765 0.251371 0.00357268
-0.00370969 0.0905508 0.00128698
-0.00294051 -0.105205 -0.00149525
-0.00103686 -0.260371 -0.0037006
0.0426657 -0.190249 -0.165879
0.111536 -0.15355 -0.133881
0.137375 -0.0576092 -0.0502297
0.110214 0.0605572 0.0528001
0.0405313 0.15536 0.135459
-0.0447887 0.190224 0.165857
-0.112829 0.151698 0.132266
-0.137339 0.0546458 0.047646
-0.108863 -0.0634892 -0.0553565
-0.0383861 -0.15713 -0.137002
0.0677182 0.00815366 -0.263281
0.177028 0.00658078 -0.212493
0.21804 0.002469 -0.0797237
0.17493 -0.00259534 0.0838034
0.0643305 -0.00665838 0.214998
-0.0710879 -0.00815257 0.263246
-0.17908 -0.00650143 0.209931
-0.217982 -0.002342 0.0756228
-0.172785 0.002721 -0.0878608
-0.0609257 0.00673421 -0.217447
0.0666445 0.203411 -0.259106
0.174222 0.164172 -0.209124
0.214583 0.0615945 -0.0784597
0.172156 -0.0647465 0.0824747
0.0633105 -0.166108 0.21159
-0.0699607 -0.203384 0.259072
-0.176241 -0.162192 0.206602
-0.214526 -0.0584262 0.0744238
-0.170045 0.0678813 -0.0864678
-0.0599597 0.168 -0.213999
0.0398589 0.320191 -0.154967
0.104199 0.258425 -0.125073
0.128338 0.0969566 -0.0469253
0.102964 -0.101918 0.0493266
0.0378649 -0.261472 0.126548
-0.0418423 -0.320148 0.154946
-0.105406 -0.255309 0.123565
-0.128304 -0.0919692 0.0445115
-0.101701 0.106853 -0.0517148
-0.0358608 0.26445 -0.127989
