# vtk DataFile Version 3.0
Velocity field
ASCII
DATASET STRUCTURED_POINTS
DIMENSIONS 8 8 8
SPACING 0.8 0.8 0.8
ORIGIN 0 0 0
POINT_DATA 512
VECTORS velocity float
0 0.255646 0
0 0.178111 0
0 -0.00746476 0
0 -0.188512 0
0 -0.255211 0
0 -0.167102 0
0 0.0223689 0
0 0.198271 0
0 0.100575 0.260925
0 0.0700711 0.192739
0 -0.00293674 -0.00807784
0 -0.0741632 -0.203995
0 -0.100403 -0.276171
0 -0.06574 -0.180826
0 0.00880021 0.024206
0 0.0780023 0.202365
0 -0.115504 0.363577
0 -0.0804726 0.268565
0 0.00337267 -0.0112558
0 0.0851721 -0.284249
0 0.115307 -0.38482
0 0.0754986 -0.251965
0 -0.0101065 0.033729
0 -0.0895812 0.281978
0 -0.26152 0.245688
0 -0.182203 0.181483
0 0.00763626 -0.0076061
0 0.192843 -0.192081
0 0.261074 -0.260043
0 0.170941 -0.170266
0 -0.0228828 0.0227924
0 -0.202826 0.190547
0 -0.248901 -0.0212326
0 -0.173411 -0.015684
0 0.0072678 0.000657327
0 0.183538 0.0165999
0 0.248477 0.0224732
0 0.162693 0.0147145
0 -0.0217786 -0.00196974
0 -0.193039 -0.0164673
0 -0.0853022 -0.275273
0 -0.0594306 -0.203337
0 0.00249079 0.00852203
0 0.0629013 0.215212
0 0.0851568 0.291357
0 0.0557573 0.190769
0 -0.00746387 -0.0255371
0 -0.0661575 -0.213493
0 0.13004 -0.362337
0 0.0905997 -0.267649
0 -0.00379711 0.0112174
0 -0.0958906 0.283279
0 -0.129818 0.383508
0 -0.0849998 0.251106
0 0.0113784 -0.033614
0 0.100855 -0.281016
0 0.266502 -0.229612
0 0.185673 -0.159972
0 -0.00778172 0.00670457
0 -0.196517 0.169314
0 -0.266047 0.22922
0 -0.174197 0.150084
0 0.0233187 -0.0200909
0 0.206689 -0.178079
0 0.178111 0
0 0.134726 0
0 -0.00564647 0
0 -0.142594 0
0 -0.193046 0
0 -0.126399 0
0 0.0169202 0
0 0.138136 0
0.0556208 0.0700711 0.257723
0.136051 0.0499669 0.183565
0.13274 -0.00209472 -0.0076954
0.0489021 -0.0528976 -0.194331
-0.0645991 -0.0716136 -0.263086
-0.138916 -0.0468897 -0.172259
-0.12896 0.00626764 0.0230268
-0.0399091 0.0543447 0.199881
0.0775028 -0.0804726 0.359115
0.189576 -0.0572762 0.255782
0.184962 0.00240108 -0.0107228
0.0681403 0.0606343 -0.270781
-0.0900143 0.0820874 -0.366591
-0.193568 0.0537475 -0.240029
-0.179697 -0.00718513 0.0320858
-0.0556098 -0.0624118 0.278517
0.0523726 -0.182203 0.242672
0.128105 -0.129683 0.172845
0.124989 0.00543652 -0.00724597
0.046046 0.137287 -0.182982
-0.0608272 0.185861 -0.247724
-0.130802 0.121695 -0.162199
-0.12143 -0.0162684 0.021682
-0.0375784 -0.14131 0.188208
-0.00452609 -0.173411 -0.020972
-0.0110711 -0.123426 -0.0149374
-0.0108016 0.00517418 0.000626201
-0.00397934 0.130662 0.0158135
0.00525671 0.176894 0.0214084
0.0113042 0.115823 0.0140174
0.010494 -0.0154834 -0.00187379
0.00324756 -0.134492 -0.0162652
-0.0586793 -0.0594306 -0.271895
-0.143532 -0.0423002 -0.193659
-0.140039 0.00177328 0.00811851
-0.0515905 0.0447805 0.205015
0.0681515 0.0606242 0.277553
0.146554 0.0396942 0.181732
0.136052 -0.00530643 -0.0242931
0.0421036 -0.0460924 -0.210873
-0.0772385 0.0905997 -0.35789
-0.188911 0.0644644 -0.254884
-0.184313 -0.00270243 0.0106852
-0.0679011 -0.068244 0.26983
0.0896983 -0.0923894 0.365303
0.192887 -0.0604929 0.239186
0.179066 0.00808707 -0.0319735
0.0554202 0.070266 -0.277568
-0.0489458 0.185673 -0.226794
-0.117148 0.12936 -0.158009
-0.114289 -0.00542158 0.00662229
-0.0421045 -0.136914 0.167237
0.0556202 -0.185357 0.226407
0.119606 -0.121364 0.148243
0.111041 0.0162463 -0.0198443
0.0351196 0.144002 -0.175894
0 -0.00746476 0
0 -0.00564648 0
0 0.000236648 0
0 0.00597622 0
0 0.0080907 0
0 0.00529747 0
0 -0.000709139 0
0 -0.00578941 0
0.0775028 -0.00293674 0.0981897
0.189576 -0.00209472 0.0699032
0.184962 8.78158e-05 -0.00293046
0.0681403 0.0022176 -0.0740021
-0.0900143 0.00300222 -0.100184
-0.193568 0.00196574 -0.0655971
-0.179697 -0.000262747 0.00876898
-0.0556098 -0.00227763 0.0761526
0.107993 0.00337267 0.136819
0.264156 0.00240108 0.0974042
0.257726 -0.000100656 -0.0040833
0.0949482 -0.00254187 -0.103115
-0.125427 -0.00344123 -0.1396
-0.269717 -0.00225319 -0.0914049
-0.250392 0.000301204 0.0122189
-0.0774875 0.00261573 0.106112
0.0729767 0.00763626 0.0924555
0.178505 0.00543652 0.0658205
0.17416 -0.000227907 -0.00275932
0.0641606 -0.00575531 -0.0696805
-0.084757 -0.00779166 -0.0943347
-0.182264 -0.00510161 -0.0617669
-0.169202 0.00068198 0.00825685
-0.0523623 0.00592242 0.0717053
-0.00630672 0.0072678 -0.00799009
-0.0154266 0.00517418 -0.00568833
-0.0150511 -0.000216909 0.000238463
-0.00554489 -0.00547762 0.00602188
0.00732482 -0.00741568 0.00815243
0.0157514 -0.00485547 0.00533792
0.0146226 0.000649071 -0.000713571
0.0045252 0.00563666 -0.00619684
-0.0817646 0.00249079 -0.103589
-0.199998 0.00177328 -0.0737468
-0.195133 -7.43385e-05 0.0030916
-0.0718871 -0.00187727 0.0780706
0.0949639 -0.00254145 0.105694
0.204209 -0.00166404 0.0692044
0.189578 0.000222448 -0.00925117
0.0586677 0.00193177 -0.0803401
-0.107625 -0.00379711 -0.136352
-0.263229 -0.00270243 -0.097062
-0.256822 0.000113289 0.00406898
-0.0946149 0.00286088 0.102753
0.124986 0.00387311 0.139109
0.268771 0.00253595 0.0910839
0.249512 -0.000339013 -0.0121761
0.0772232 -0.00294491 -0.10575
-0.0682018 -0.00778172 -0.086406
-0.163235 -0.00542158 -0.0601996
-0.159252 0.000227223 0.00252302
-0.0586689 0.00573819 0.0637152
0.0775019 0.00776845 0.0862587
0.166661 0.00508647 0.0564787
0.154726 -0.000680894 -0.00756045
0.0489361 -0.00603524 -0.0670135
0 -0.188512 0
0 -0.142594 0
0 0.00597622 0
0 0.150921 0
0 0.204319 0
0 0.13378 0
0 -0.0179083 0
0 -0.146204 0
0.0523726 -0.0741632 -0.120905
0.128105 -0.0528976 -0.0860737
0.124989 0.0022176 0.00360834
0.046046 0.0560005 0.0911212
-0.0608272 0.0758144 0.123361
-0.130802 0.04964 0.0807712
-0.12143 -0.00663512 -0.0107975
-0.0375784 -0.0575184 -0.0937694
0.0729767 0.0851721 -0.16847
0.178505 0.0606343 -0.119936
0.17416 -0.00254187 0.00502787
0.0641606 -0.0641893 0.12697
-0.084757 -0.0869014 0.171892
-0.182264 -0.0568995 0.112548
-0.169202 0.00760628 -0.0150453
-0.0523623 0.0660566 -0.13066
0.0493141 0.192843 -0.113844
0.120625 0.137287 -0.0810466
0.117689 -0.00575531 0.00339759
0.043357 -0.145338 0.0857994
-0.0572748 -0.196762 0.116157
-0.123165 -0.12883 0.0760546
-0.114339 0.017222 -0.0101669
-0.0353839 0.149563 -0.0882934
-0.00426177 0.183538 0.0098385
-0.0104244 0.130662 0.00700415
-0.0101707 -0.00547762 -0.000293624
-0.00374697 -0.138325 -0.00741489
0.0049497 -0.187267 -0.0100383
0.010644 -0.122615 -0.00657269
0.00988116 0.0163909 0.000878633
0.00305791 0.142346 0.0076304
-0.0552525 0.0629013 0.127553
-0.135149 0.0447805 0.0908069
-0.13186 -0.00187727 -0.00380675
-0.0485782 -0.0474064 -0.0961316
0.0641712 -0.0641787 -0.130143
0.137996 -0.042022 -0.085213
0.128106 0.00561747 0.0113912
0.0396448 0.0487841 0.0989257
-0.0727278 -0.0958906 0.167895
-0.177879 -0.068244 0.119515
-0.173549 0.00286088 -0.00501022
-0.0639355 0.0722451 -0.126524
0.0844596 0.0978072 -0.171289
0.181624 0.0640397 -0.112153
0.168608 -0.00856108 0.0149927
0.0521837 -0.0743695 0.130214
-0.0460874 -0.196517 0.106395
-0.110306 -0.136914 0.074126
-0.107615 0.00573819 -0.00310668
-0.0396456 0.14491 -0.0784549
0.052372 0.196181 -0.106213
0.112622 0.128452 -0.0695443
0.104556 -0.017195 0.00930946
0.0330687 -0.152412 0.0825162
0 -0.255211 0
0 -0.193046 0
0 0.0080907 0
0 0.204319 0
0 0.276611 0
0 0.181114 0
0 -0.0242445 0
0 -0.197933 0
-0.00452609 -0.100403 -0.26666
-0.0110711 -0.0716136 -0.189838
-0.0108016 0.00300222 0.00795832
-0.00397934 0.0758144 0.200968
0.00525671 0.102638 0.272076
0.0113042 0.0672035 0.178145
0.010494 -0.00898275 -0.0238143
0.00324756 -0.0778693 -0.206812
-0.00630672 0.115307 -0.371567
-0.0154266 0.0820874 -0.264522
-0.0150511 -0.00344123 0.0110893
-0.00554489 -0.0869014 0.280035
0.00732482 -0.117648 0.379116
0.0157514 -0.0770314 0.248231
0.0146226 0.0102975 -0.033183
0.0045252 0.0894284 -0.288175
-0.00426177 0.261074 -0.251087
-0.0104244 0.185861 -0.178753
-0.0101707 -0.00779166 0.00749359
-0.00374697 -0.196762 0.189234
0.0049497 -0.266377 0.256185
0.010644 -0.174414 0.167741
0.00988116 0.0233154 -0.0224235
0.00305791 0.20248 -0.194734
0.000368307 0.248477 0.0216992
0.000900896 0.176894 0.0154479
0.000878969 -0.00741568 -0.000647596
0.000323813 -0.187267 -0.0163537
-0.00042776 -0.253526 -0.0221401
-0.000919867 -0.165997 -0.0144964
-0.000853944 0.0221904 0.00193787
-0.000264267 0.19271 0.0168291
0.00477498 0.0851568 0.281323
0.0116798 0.0606242 0.200276
0.0113956 -0.00254145 -0.00839589
0.00419814 -0.0641787 -0.212019
-0.0055458 -0.086887 -0.287036
-0.0119258 -0.0568901 -0.187941
-0.0110712 0.00760502 0.0251236
-0.00342614 0.0660447 0.218184
0.00628521 -0.129818 0.3703
0.0153724 -0.0923894 0.263594
0.0149983 0.00387311 -0.0110504
0.00552543 0.0978072 -0.279052
-0.00729911 0.132412 -0.377786
-0.0156961 0.0866987 -0.247359
-0.0145713 -0.0115901 0.0330668
-0.00450976 -0.100683 0.287192
0.00398292 -0.266047 0.234658
0.00953277 -0.185357 0.163488
0.00930018 0.00776845 -0.00685191
0.00342621 0.196181 -0.173035
-0.00452604 0.265593 -0.234258
-0.00973286 0.1739 -0.153383
-0.00903586 -0.0232789 0.0205324
-0.00285783 -0.206337 0.181993
0 -0.167102 0
0 -0.126399 0
0 0.00529747 0
0 0.13378 0
0 0.181114 0
0 0.118586 0
0 -0.0158744 0
0 -0.129598 0
-0.0586793 -0.06574 -0.250663
-0.143532 -0.0468897 -0.178451
-0.140039 0.00196574 0.00748093
-0.0515905 0.04964 0.188914
0.0681515 0.0672035 0.255753
0.146554 0.0440024 0.167458
0.136052 -0.00588155 -0.0223856
0.0421036 -0.0509857 -0.194405
-0.0817646 0.0754986 -0.349277
-0.199998 0.0537475 -0.248655
-0.195133 -0.00225319 0.0104239
-0.0718871 -0.0568995 0.263234
0.0949639 -0.0770314 0.356373
0.204209 -0.0504368 0.233339
0.189578 0.00674236 -0.0311925
0.0586677 0.0585541 -0.270887
-0.0552525 0.170941 -0.236024
-0.135149 0.121695 -0.168029
-0.13186 -0.00510161 0.00704401
-0.0485782 -0.12883 0.177882
0.0641712 -0.174414 0.240819
0.137996 -0.114199 0.157677
0.128106 0.015266 -0.0210783
0.0396448 0.132576 -0.183052
0.00477498 0.162693 0.0203974
0.0116798 0.115823 0.0145212
0.0113956 -0.00485547 -0.000608747
0.00419814 -0.122615 -0.0153728
-0.0055458 -0.165997 -0.0208117
-0.0119258 -0.108688 -0.0136267
-0.0110712 0.0145294 0.00182161
-0.00342614 0.126179 0.0158196
0.061906 0.0557573 0.264446
0.151425 0.0396942 0.188262
0.147739 -0.00166404 -0.00789231
0.0544274 -0.042022 -0.1993
-0.071899 -0.0568901 -0.269817
-0.154613 -0.0372493 -0.176667
-0.143533 0.00497944 0.0236166
-0.0444188 0.0432434 0.205095
0.0814857 -0.0849998 0.348085
0.199296 -0.0604929 0.247781
0.194447 0.00253595 -0.0103874
0.0716349 0.0640397 -0.26231
-0.0946306 0.0866987 -0.355123
-0.203493 0.0567668 -0.23252
-0.188913 -0.00758874 0.0310832
-0.0584676 -0.0659229 0.269963
0.0516373 -0.174197 0.220581
0.123589 -0.121364 0.15368
0.120574 0.00508647 -0.00644086
0.0444198 0.128452 -0.162655
-0.0586787 0.1739 -0.220205
-0.126183 0.113863 -0.144181
-0.117147 -0.0152421 0.0193006
-0.0370508 -0.135101 0.171075
0 0.0223689 0
0 0.0169202 0
0 -0.000709139 0
0 -0.0179083 0
0 -0.0242445 0
0 -0.0158744 0
0 0.002125 0
0 0.0173485 0
-0.0772385 0.00880021 -0.0826169
-0.188911 0.00626754 -0.0588309
-0.184313 -0.000262742 0.00246629
-0.0679011 -0.00663501 0.0622812
0.0896983 -0.00898259 0.0843166
0.192887 -0.00588145 0.0552072
0.179066 0.000786254 -0.00737989
0.0554202 0.00682514 -0.0640749
-0.107625 -0.0101065 -0.11512
-0.263229 -0.00718501 -0.0819757
-0.256822 0.000301198 0.00343656
-0.0946149 0.00760615 0.0867831
0.124986 0.0102973 0.117488
0.268771 0.00674224 0.076927
0.249512 -0.00090142 -0.0102832
0.0772232 -0.00783828 -0.0892828
-0.0727278 -0.0228828 -0.0777922
-0.177879 -0.0162681 -0.0553952
-0.173549 0.000681968 0.00232227
-0.0639355 0.0172217 0.0586438
0.0844596 0.023315 0.0793925
0.181624 0.0152658 0.0519833
0.168608 -0.00204097 -0.00694888
0.0521837 -0.0177471 -0.0603329
0.00628521 -0.0217786 0.00672288
0.0153724 -0.0154831 0.00478732
0.0149983 0.00064906 -0.000200692
0.00552543 0.0163907 -0.00506804
-0.00729911 0.02219 -0.00686119
-0.0156961 0.0145292 -0.00449244
-0.0145713 -0.0019425 0.000600534
-0.00450976 -0.0168908 0.00521403
0.0814857 -0.00746387 0.0871599
0.199296 -0.00530634 0.062066
0.194447 0.000222444 -0.0026019
0.0716349 0.00561737 -0.0657056
-0.0946306 0.00760488 -0.0889534
-0.203493 0.00497936 -0.0582432
-0.188913 -0.000665726 0.00778571
-0.0584676 -0.00578872 0.0675982
0.107258 0.0113784 0.114727
0.262305 0.00808693 0.0816881
0.25592 -0.000339007 -0.0034245
0.094283 -0.00856093 -0.0864784
-0.124547 -0.0115899 -0.117076
-0.267828 -0.00758861 -0.0766566
-0.248635 0.0010146 0.0102472
-0.0769598 0.00882468 0.0889783
0.0679692 0.0233187 0.0727021
0.162678 0.0162463 0.0506521
0.158709 -0.000680894 -0.00212287
0.0584689 -0.017195 -0.0536101
-0.0772376 -0.0232789 -0.0725782
-0.166093 -0.0152421 -0.0475213
-0.154198 0.00204036 0.00636138
-0.0487692 0.0180852 0.0563853
0 0.198271 0
0 0.138136 0
0 -0.00578941 0
0 -0.146204 0
0 -0.197933 0
0 -0.129598 0
0 0.0173485 0
0 0.153772 0
-0.0489458 0.0780023 0.135543
-0.117148 0.0543447 0.0944337
-0.114289 -0.00227763 -0.00395779
-0.0421045 -0.0575184 -0.0999485
0.0556202 -0.0778693 -0.135312
0.119606 -0.0509857 -0.0885968
0.111041 0.00682514 0.0118599
0.0351196 0.0604959 0.105122
-0.0682018 -0.0895812 0.188867
-0.163235 -0.0624118 0.131585
-0.159252 0.00261573 -0.00551484
-0.0586689 0.0660566 -0.13927
0.0775019 0.0894284 -0.188545
0.166661 0.0585541 -0.123452
0.154726 -0.00783828 0.0165257
0.0489361 -0.0694761 0.146479
-0.0460874 -0.202826 0.127627
-0.110306 -0.14131 0.0889188
-0.107615 0.00592243 -0.00372666
-0.0396456 0.149563 -0.0941116
0.052372 0.20248 -0.12741
0.112621 0.132576 -0.0834228
0.104556 -0.0177471 0.0111673
0.0330687 -0.157305 0.0989834
0.00398292 -0.193039 -0.0110297
0.00953277 -0.134492 -0.00768445
0.00930018 0.00563666 0.000322062
0.00342621 0.142346 0.00813322
-0.00452604 0.19271 0.0110109
-0.00973286 0.126179 0.00720948
-0.00903586 -0.0168908 -0.000965088
-0.00285783 -0.149715 -0.00855424
0.0516373 -0.0661575 -0.142996
0.123589 -0.0460924 -0.0996265
0.120574 0.00193177 0.00417543
0.0444197 0.0487841 0.105445
-0.0586787 0.0660447 0.142752
-0.126183 0.0432434 0.0934686
-0.117147 -0.00578872 -0.0125121
-0.0370508 -0.0513095 -0.110903
0.0679692 0.100855 -0.188223
0.162678 0.070266 -0.131136
0.158709 -0.00294491 0.00549603
0.0584688 -0.0743695 0.138795
-0.0772376 -0.100683 0.187902
-0.166093 -0.0659229 0.123031
-0.154198 0.00882468 -0.0164694
-0.0487692 0.0782193 -0.14598
0.0430719 0.206689 -0.119277
0.103089 0.144002 -0.0831008
0.100573 -0.00603524 0.00348282
0.0370516 -0.152412 0.0879538
-0.0489453 -0.206337 0.119073
-0.105253 -0.135101 0.0779644
-0.097715 0.0180852 -0.0104366
-0.0309049 0.160301 -0.0925068
