# vtk DataFile Version 3.0
Velocity field
ASCII
DATASET STRUCTURED_POINTS
DIMENSIONS 8 8 8
SPACING 0.8 0.8 0.8
ORIGIN 0 0 0
POINT_DATA 512
VECTORS velocity float
0 0.325543 0
0 0.226808 0
0 -0.00950571 0
0 -0.240053 0
0 -0.324988 0
0 -0.212789 0
0 0.0284848 0
0 0.25248 0
0 0.128073 0.332265
0 0.0892293 0.245436
0 -0.00373967 -0.0102864
0 -0.0944402 -0.259769
0 -0.127855 -0.351679
0 -0.0837141 -0.230265
0 0.0112063 0.0308242
0 0.099329 0.257694
0 -0.147084 0.462983
0 -0.102475 0.341993
0 0.0042948 -0.0143332
0 0.108459 -0.361966
0 0.146834 -0.490035
0 0.0961408 -0.320855
0 -0.0128698 0.0429509
0 -0.114074 0.359074
0 -0.333022 0.312861
0 -0.232019 0.231103
0 0.0097241 -0.0096857
0 0.245569 -0.244599
0 0.332455 -0.331141
0 0.217678 -0.216818
0 -0.0291392 0.0290241
0 -0.258281 0.242645
0 -0.316953 -0.0270378
0 -0.220824 -0.0199721
0 0.0092549 0.000837047
0 0.233719 0.0211385
0 0.316413 0.0286176
0 0.207175 0.0187376
0 -0.0277332 -0.00250829
0 -0.245818 -0.0209696
0 -0.108625 -0.350536
0 -0.0756796 -0.258932
0 0.00317179 0.010852
0 0.0800992 0.274053
0 0.10844 0.371018
0 0.0710019 0.242928
0 -0.00950458 -0.0325192
0 -0.0842457 -0.271864
0 0.165594 -0.461404
0 0.115371 -0.340827
0 -0.00483528 0.0142843
0 -0.122108 0.360731
0 -0.165312 0.488363
0 -0.10824 0.319761
0 0.0144894 -0.0428044
0 0.128429 -0.357849
0 0.339366 -0.29239
0 0.236439 -0.20371
0 -0.00990933 0.00853767
0 -0.250246 0.215607
0 -0.338787 0.291892
0 -0.221824 0.191119
0 0.0296942 -0.0255839
0 0.263201 -0.226768
0 0.226808 0
0 0.171562 0
0 -0.00719028 0
0 -0.181581 0
0 -0.245827 0
0 -0.160957 0
0 0.0215464 0
0 0.175905 0
0.0708282 0.0892293 0.328188
0.174303 0.0640231 0.235169
0.170068 -0.00268447 -0.00986051
0.0626541 -0.0677882 -0.248999
-0.0827655 -0.0917728 -0.337096
-0.177981 -0.0600891 -0.220717
-0.165221 0.00802473 0.0294783
-0.0508206 0.0692032 0.254531
0.0986929 -0.102475 0.457301
0.242877 -0.0733618 0.32769
0.236975 0.00307592 -0.0137397
0.0873026 0.0776739 -0.346956
-0.115327 0.105156 -0.469716
-0.248002 0.0688517 -0.307551
-0.230223 -0.00919644 0.0410754
-0.0708142 -0.0794758 0.354667
0.0666919 -0.232019 0.309022
0.164123 -0.166104 0.221436
0.160137 0.00696457 -0.00928462
0.0589947 0.175869 -0.234457
-0.0779325 0.238094 -0.317411
-0.167586 0.155895 -0.207826
-0.155573 -0.0208225 0.0277567
-0.0478528 -0.179946 0.239667
-0.00576358 -0.220824 -0.026706
-0.0141838 -0.158091 -0.0191367
-0.0138391 0.00662847 0.000802381
-0.00509838 0.167382 0.020262
0.00673495 0.226607 0.0274307
0.0144831 0.148373 0.0179606
0.0134447 -0.0198177 -0.00239876
0.00413548 -0.171263 -0.0207122
-0.0747229 -0.0756796 -0.346234
-0.183886 -0.0541804 -0.248102
-0.179421 0.0022717 0.0104027
-0.0660981 0.0573654 0.262686
0.087317 0.0776618 0.355633
0.187765 0.0508495 0.232855
0.174307 -0.00679188 -0.0310993
0.0536152 -0.0586945 -0.268527
-0.0983563 0.115371 -0.455741
-0.24201 0.0825534 -0.32652
-0.236129 -0.00346131 0.0136905
-0.0869908 -0.087405 0.345716
0.114915 -0.11833 0.468036
0.247114 -0.0774782 0.306452
0.2294 0.0103492 -0.0409294
0.0705727 0.0894775 -0.353458
-0.0623281 0.236439 -0.288802
-0.149177 0.164728 -0.20121
-0.145537 -0.0069039 0.00843289
-0.0536163 -0.174348 0.212961
0.0708274 -0.236035 0.28831
0.152308 -0.154547 0.188774
0.141401 0.0206882 -0.0252699
0.0447217 0.183374 -0.223985
0 -0.00950571 0
0 -0.00719028 0
0 0.000301351 0
0 0.00761019 0
0 0.0103028 0
0 0.00674586 0
0 -0.000903026 0
0 -0.0073723 0
0.0986929 -0.00373967 0.125036
0.242877 -0.00268447 0.0895487
0.236975 0.000112561 -0.00375468
0.0873026 0.00284239 -0.0948123
-0.115327 0.00384806 -0.128358
-0.248002 0.00251957 -0.0840447
-0.230223 -0.000336459 0.0112251
-0.0708142 -0.00290036 0.0969735
0.13752 0.0042948 0.174227
0.338427 0.00307592 0.124778
0.330203 -0.000128969 -0.00523179
0.121649 -0.00325674 -0.132112
-0.160699 -0.00440905 -0.178859
-0.345567 -0.00288688 -0.11711
-0.320796 0.000385572 0.0156413
-0.0986734 0.0033309 0.135124
0.0929293 0.0097241 0.117734
0.228693 0.00696457 0.0843185
0.223136 -0.000292016 -0.00353541
0.0822037 -0.00737402 -0.0892765
-0.108592 -0.00998311 -0.120864
-0.233518 -0.00653644 -0.079137
-0.216776 0.000873017 0.0105696
-0.0666787 0.00754168 0.0913103
-0.00803105 0.0092549 -0.0101747
-0.0197639 0.00662847 -0.00728693
-0.0192837 -0.000277925 0.000305533
-0.00710417 -0.00701821 0.00771535
0.00938463 -0.00950136 0.0104451
0.0201809 -0.00622106 0.00683904
0.0187341 0.000830887 -0.000913435
0.00576244 0.00717778 -0.00789113
-0.10412 0.00317179 -0.131911
-0.256229 0.0022717 -0.0944716
-0.250007 -9.52493e-05 0.00396114
-0.0921022 -0.00240526 0.100025
0.121669 -0.00325624 0.135416
0.261634 -0.00213206 0.0886665
0.242882 0.00028476 -0.0118423
0.0747081 0.00245993 -0.102306
-0.137051 -0.00483528 -0.173632
-0.337218 -0.00346131 -0.124332
-0.329024 0.000145127 0.00521311
-0.121214 0.00366476 0.131641
0.160124 0.00496142 0.178219
0.344333 0.00324852 0.116691
0.319649 -0.000433903 -0.0155856
0.0983369 -0.00375008 -0.134663
-0.0868489 -0.00990933 -0.11003
-0.207865 -0.0069039 -0.0766589
-0.202793 0.000289348 0.00321284
-0.0747097 0.00730708 0.0811357
0.0986918 0.00989244 0.109843
0.212228 0.00647717 0.0719206
0.19703 -0.000867058 -0.00962756
0.0623158 -0.00768534 -0.0853358
0 -0.240053 0
0 -0.181581 0
0 0.00761019 0
0 0.192185 0
0 0.260183 0
0 0.170357 0
0 -0.0228046 0
0 -0.186177 0
0.0666919 -0.0944402 -0.153961
0.164123 -0.0677883 -0.110263
0.160137 0.00284239 0.00462319
0.0589947 0.0717753 0.116746
-0.0779325 0.0971705 0.158052
-0.167586 0.0636235 0.103485
-0.155573 -0.0084963 -0.0138217
-0.0478528 -0.0732446 -0.119407
0.0929293 0.108459 -0.214532
0.228693 0.0776739 -0.153642
0.223136 -0.00325674 0.00644196
0.0822037 -0.0822399 0.162675
-0.108592 -0.111338 0.22023
-0.233518 -0.0728997 0.144198
-0.216776 0.00973662 -0.0192593
-0.0666787 0.0841172 -0.166383
0.0627971 0.245569 -0.14497
0.15454 0.175869 -0.103823
0.150785 -0.00737402 0.00435317
0.0555495 -0.186207 0.109927
-0.073381 -0.252094 0.148821
-0.1578 -0.16506 0.0974416
-0.146487 0.0220457 -0.0130144
-0.0450582 0.190455 -0.112434
-0.00542699 0.233719 0.0125284
-0.0133553 0.167382 0.00897252
-0.0130308 -0.00701821 -0.000376205
-0.00480066 -0.177225 -0.00950004
0.00634159 -0.239929 -0.0128611
0.0136372 -0.157096 -0.00842099
0.0126594 0.0209819 0.00112473
0.00389397 0.181265 0.00971664
-0.0703592 0.0800992 0.162427
-0.173149 0.0573654 0.116326
-0.168942 -0.00240526 -0.00487741
-0.0622391 -0.0607379 -0.123165
0.0822172 -0.0822272 -0.166742
0.176802 -0.0538392 -0.109176
0.164126 0.00719087 0.0145817
0.0504841 0.0621222 0.125973
-0.0926124 -0.122108 0.2138
-0.227876 -0.087405 0.153093
-0.222339 0.00366476 -0.00641895
-0.0819101 0.0925419 -0.162094
0.108204 0.125286 -0.219444
0.232684 0.0820318 -0.143683
0.216002 -0.010957 0.0191909
0.0664513 -0.0947029 0.165816
-0.0586882 -0.250246 0.135484
-0.140465 -0.174348 0.0943929
-0.137038 0.00730708 -0.00395608
-0.0504852 0.18453 -0.0999054
0.0666911 0.24982 -0.135253
0.143413 0.163572 -0.0885585
0.133143 -0.0218963 0.0118548
0.04211 -0.194083 0.105077
0 -0.324988 0
0 -0.245827 0
0 0.0103028 0
0 0.260183 0
0 0.352239 0
0 0.230632 0
0 -0.0308733 0
0 -0.252049 0
-0.00576358 -0.127855 -0.339567
-0.0141838 -0.0917728 -0.243188
-0.0138391 0.00384806 0.0101966
-0.00509838 0.0971705 0.257483
0.00673495 0.13155 0.348589
0.0144831 0.0861347 0.228242
0.0134447 -0.0115025 -0.0304843
0.00413548 -0.0991596 -0.263357
-0.00803105 0.146834 -0.473158
-0.0197639 0.105156 -0.338861
-0.0192837 -0.00440905 0.0142081
-0.00710417 -0.111338 0.358786
0.00938463 -0.150731 0.485729
0.0201809 -0.0986924 0.318037
0.0187341 0.0131815 -0.0424772
0.00576244 0.113879 -0.366965
-0.00542699 0.332455 -0.319737
-0.0133553 0.238094 -0.228987
-0.0130308 -0.00998311 0.00960118
-0.00480066 -0.252094 0.24245
0.00634159 -0.341287 0.328229
0.0136372 -0.223461 0.214912
0.0126594 0.0298457 -0.0287041
0.00389397 0.25784 -0.247977
0.000469006 0.316413 0.027632
0.00115419 0.226607 0.0197893
0.00112615 -0.00950136 -0.000829733
0.000414873 -0.239929 -0.0209526
-0.000548051 -0.324821 -0.0283661
-0.00117854 -0.212677 -0.018573
-0.00109405 0.0284056 0.00248063
-0.000336521 0.245399 0.0214304
0.00608051 0.10844 0.35824
0.0149637 0.0776618 0.256559
0.0146002 -0.00325624 -0.0107573
0.00537873 -0.0822272 -0.271641
-0.00710534 -0.111321 -0.367753
-0.0152795 -0.0728884 -0.240793
-0.0141841 0.00973508 0.0321603
-0.00436289 0.084102 0.277838
0.00800366 -0.165312 0.471544
0.0196933 -0.11833 0.337652
0.0192148 0.00496142 -0.0141574
0.0070788 0.125286 -0.357502
-0.00935112 0.169614 -0.483995
-0.0201087 0.111057 -0.3169
-0.0186672 -0.0148338 0.0423263
-0.00574278 -0.12821 0.365713
0.00507189 -0.338787 0.298816
0.0121391 -0.236035 0.208187
0.0118429 0.00989244 -0.00872529
0.00436298 0.24982 -0.220345
-0.00576351 0.33821 -0.298307
-0.0123939 0.221446 -0.195319
-0.0115064 -0.0296436 0.0261462
-0.00363919 -0.262752 0.231752
0 -0.212789 0
0 -0.160957 0
0 0.00674586 0
0 0.170357 0
0 0.230632 0
0 0.151009 0
0 -0.0202146 0
0 -0.165032 0
-0.0747229 -0.0837141 -0.319196
-0.183886 -0.0600891 -0.228601
-0.179421 0.00251957 0.00958497
-0.0660981 0.0636235 0.24204
0.087317 0.0861347 0.327675
0.187765 0.0563976 0.214549
0.174307 -0.00753135 -0.0286556
0.0536152 -0.0649258 -0.247558
-0.10412 0.0961408 -0.444773
-0.256229 0.0688517 -0.318535
-0.250007 -0.00288688 0.0133557
-0.0921022 -0.0728997 0.33726
0.121669 -0.0986924 0.456589
0.261634 -0.0646196 0.298957
0.242882 0.00863075 -0.039929
0.0747081 0.0745635 -0.34495
-0.0703592 0.217678 -0.300556
-0.173149 0.155895 -0.215249
-0.168942 -0.00653644 0.00902515
-0.0622391 -0.16506 0.227905
0.0822172 -0.223461 0.308541
0.176802 -0.146313 0.202018
0.164126 0.0195418 -0.026982
0.0504841 0.168824 -0.233101
0.00608051 0.207175 0.0259743
0.0149637 0.148373 0.0186021
0.0146002 -0.00622106 -0.000779957
0.00537873 -0.157096 -0.0196958
-0.00710534 -0.212677 -0.0266642
-0.0152795 -0.139253 -0.0174587
-0.0141841 0.0185989 0.00233182
-0.00436289 0.160678 0.0201448
0.0788318 0.0710019 0.336749
0.193997 0.0508495 0.241169
0.189284 -0.00213206 -0.010112
0.0697328 -0.0538392 -0.255347
-0.0921173 -0.0728884 -0.345694
-0.198091 -0.0477241 -0.226348
-0.183889 0.00637411 0.0302312
-0.0565634 0.0550666 0.261171
0.103765 -0.10824 0.443256
0.255314 -0.0774782 0.317397
0.249112 0.00324852 -0.013308
0.0917733 0.0820318 -0.336056
-0.121234 0.111057 -0.454959
-0.2607 0.0727155 -0.297889
-0.242015 -0.0097126 0.039787
-0.0744533 -0.083947 0.343774
0.0657555 -0.221824 0.28089
0.15738 -0.154547 0.195698
0.15354 0.00647717 -0.00820186
0.0565646 0.163572 -0.207126
-0.0747221 0.221446 -0.280411
-0.160683 0.144994 -0.183602
-0.149176 -0.0194095 0.0245776
-0.0471809 -0.172039 0.217849
0 0.0284848 0
0 0.0215464 0
0 -0.000903025 0
0 -0.0228046 0
0 -0.0308733 0
0 -0.0202146 0
0 0.002706 0
0 0.0220918 0
-0.0983563 0.0112063 -0.105205
-0.24201 0.00802456 -0.075376
-0.236129 -0.000336451 0.00316046
-0.0869908 -0.00849612 0.0798085
0.114915 -0.0115022 0.108045
0.247114 -0.00753119 0.0707436
0.2294 0.00100601 -0.00944816
0.0705727 0.00869121 -0.0815936
-0.137051 -0.0128698 -0.146594
-0.337218 -0.00919623 -0.10503
-0.329024 0.000385564 0.00440382
-0.121214 0.00973639 0.111205
0.160124 0.0131812 0.150552
0.344333 0.00863056 0.0985756
0.319649 -0.00115304 -0.0131652
0.0983369 -0.00998135 -0.113694
-0.0926124 -0.0291392 -0.0990614
-0.227876 -0.020822 -0.0709741
-0.222339 0.000872997 0.0029759
-0.0819102 0.0220452 0.0751473
0.108204 0.0298451 0.101735
0.232684 0.0195414 0.0666123
0.216002 -0.00261068 -0.00889638
0.0664513 -0.0225994 -0.0768286
0.00800366 -0.0277332 0.00856098
0.0196933 -0.0198173 0.00613366
0.0192148 0.000830868 -0.000257179
0.0070788 0.0209814 -0.00649429
-0.00935112 0.028405 -0.00879206
-0.0201087 0.0185985 -0.0057567
-0.0186672 -0.00248473 0.000768838
-0.00574278 -0.0215089 0.00663961
0.103765 -0.00950458 0.11099
0.255314 -0.00679173 0.079521
0.249112 0.000284754 -0.00333423
0.0917733 0.0071907 -0.0841966
-0.121234 0.00973486 -0.113987
-0.2607 0.00637397 -0.0746339
-0.242015 -0.000851555 0.00996771
-0.0744533 -0.00737143 0.0860803
0.136584 0.0144894 0.146095
0.336015 0.0103489 0.104655
0.327849 -0.000433894 -0.00438807
0.120782 -0.0109568 -0.110808
-0.159552 -0.0148334 -0.150014
-0.343104 -0.00971238 -0.098223
-0.318506 0.00129762 0.0131184
-0.0980015 0.0112375 0.113306
0.0865527 0.0296942 0.0925797
0.207156 0.0206882 0.0645009
0.202102 -0.000867058 -0.00270328
0.0744549 -0.0218963 -0.0682677
-0.0983552 -0.0296436 -0.0924218
-0.211504 -0.0194095 -0.0605141
-0.196358 0.00259822 0.00810065
-0.0621033 0.0230298 0.0718016
0 0.25248 0
0 0.175905 0
0 -0.0073723 0
0 -0.186177 0
0 -0.252049 0
0 -0.165032 0
0 0.0220918 0
0 0.195815 0
-0.0623281 0.099329 0.172602
-0.149177 0.0692032 0.120253
-0.145537 -0.00290036 -0.0050399
-0.0536163 -0.0732446 -0.127276
0.0708274 -0.0991596 -0.172308
0.152308 -0.0649258 -0.11282
0.141401 0.00869121 0.0151025
0.0447217 0.0770362 0.133864
-0.0868489 -0.114074 0.240506
-0.207865 -0.0794759 0.167562
-0.202793 0.0033309 -0.00702266
-0.0747097 0.0841172 -0.177347
0.0986918 0.113879 -0.240096
0.212228 0.0745635 -0.157205
0.19703 -0.00998135 0.0210441
0.0623158 -0.0884716 0.186528
-0.0586882 -0.258281 0.162522
-0.140465 -0.179946 0.11323
-0.137038 0.00754168 -0.00474557
-0.0504852 0.190455 -0.119843
0.0666911 0.25784 -0.162245
0.143413 0.168824 -0.106232
0.133143 -0.0225994 0.0142205
0.04211 -0.200314 0.126047
0.00507189 -0.245818 -0.0140453
0.0121391 -0.171263 -0.00978547
0.0118429 0.00717778 0.000410117
0.00436298 0.181265 0.0103569
-0.00576351 0.245399 0.0140214
-0.0123939 0.160678 0.00918063
-0.0115064 -0.0215089 -0.00122895
-0.00363919 -0.190648 -0.0108931
0.0657555 -0.0842457 -0.182093
0.15738 -0.0586945 -0.126865
0.15354 0.00245994 0.00531703
0.0565646 0.0621222 0.134274
-0.0747221 0.084102 0.181783
-0.160683 0.0550666 0.119024
-0.149176 -0.00737143 -0.015933
-0.0471809 -0.0653381 -0.141225
0.0865527 0.128429 -0.239686
0.207156 0.0894775 -0.166991
0.202102 -0.00375008 0.00699871
0.0744549 -0.0947029 0.176743
-0.0983552 -0.12821 0.239277
-0.211504 -0.083947 0.156669
-0.196358 0.0112375 -0.0209723
-0.0621033 0.0996053 -0.185892
0.0548482 0.263201 -0.151888
0.131274 0.183374 -0.105821
0.128071 -0.00768534 0.00443506
0.0471819 -0.194083 0.112001
-0.0623274 -0.262752 0.151629
-0.13403 -0.172039 0.0992807
-0.124431 0.0230298 -0.0132901
-0.0393547 0.204129 -0.117799
