# vtk DataFile Version 3.0
Velocity field
ASCII
DATASET STRUCTURED_POINTS
DIMENSIONS 8 8 8
SPACING 0.8 0.8 0.8
ORIGIN 0 0 0
POINT_DATA 512
VECTORS velocity float
0 0.243456 0
0 0.169617 0
0 -0.0071088 0
0 -0.179523 0
0 -0.243041 0
0 -0.159133 0
0 0.0213022 0
0 0.188816 0
0 0.0957787 0.248483
0 0.0667297 0.183548
0 -0.0027967 -0.00769264
0 -0.0706266 -0.194267
0 -0.0956154 -0.263002
0 -0.0626052 -0.172203
0 0.00838056 0.0230517
0 0.0742827 0.192715
0 -0.109996 0.346239
0 -0.0766352 0.255758
0 0.00321184 -0.010719
0 0.0811106 -0.270694
0 0.109809 -0.36647
0 0.0718984 -0.23995
0 -0.00962459 0.0321206
0 -0.0853094 0.268532
0 -0.249049 0.233972
0 -0.173514 0.172829
0 0.00727212 -0.0072434
0 0.183647 -0.182922
0 0.248624 -0.247642
0 0.162789 -0.162146
0 -0.0217916 0.0217055
0 -0.193154 0.181461
0 -0.237032 -0.0202201
0 -0.165142 -0.014936
0 0.00692123 0.000625981
0 0.174786 0.0158083
0 0.236628 0.0214015
0 0.154934 0.0140128
0 -0.0207401 -0.00187581
0 -0.183834 -0.015682
0 -0.0812345 -0.262147
0 -0.0565966 -0.193641
0 0.00237201 0.00811565
0 0.0599018 0.204949
0 0.081096 0.277464
0 0.0530984 0.181672
0 -0.00710795 -0.0243193
0 -0.0630027 -0.203312
0 0.123839 -0.345059
0 0.0862794 -0.254886
0 -0.00361604 0.0106825
0 -0.091318 0.269771
0 -0.123628 0.36522
0 -0.0809465 0.239132
0 0.0108358 -0.032011
0 0.0960452 -0.267616
0 0.253793 -0.218663
0 0.176819 -0.152344
0 -0.00741064 0.00638485
0 -0.187145 0.161241
0 -0.25336 0.21829
0 -0.16589 0.142927
0 0.0222067 -0.0191328
0 0.196833 -0.169587
0 0.169617 0
0 0.128301 0
0 -0.00537722 0
0 -0.135794 0
0 -0.18384 0
0 -0.120371 0
0 0.0161133 0
0 0.131549 0
0.0529685 0.0667297 0.245434
0.129427 0.0475329 0.174629
0.126277 -0.00199263 -0.0073206
0.0465212 -0.0503198 -0.184867
-0.0614539 -0.0681238 -0.250274
-0.132152 -0.0446046 -0.16387
-0.122682 0.00596301 0.0219083
-0.038006 0.0517533 0.19035
0.073807 -0.0766352 0.34199
0.180347 -0.05449 0.24333
0.175956 0.00228423 -0.0102006
0.0648227 0.0576835 -0.257593
-0.0856318 0.0780927 -0.348737
-0.184144 0.0511319 -0.228339
-0.170949 -0.00683633 0.0305272
-0.052958 -0.0594356 0.265236
0.0498752 -0.173514 0.2311
0.121868 -0.123374 0.164431
0.118904 0.00517193 -0.00689306
0.0438042 0.130606 -0.174071
-0.0578657 0.176816 -0.23566
-0.124434 0.115773 -0.154299
-0.115519 -0.0154786 0.0206288
-0.0357864 -0.134572 0.179234
-0.00431026 -0.165142 -0.0199719
-0.0105321 -0.117422 -0.0142103
-0.0102757 0.00492235 0.000595702
-0.00378559 0.124304 0.0150434
0.00500078 0.168286 0.0203658
0.0107538 0.110187 0.0133347
0.00998319 -0.0147318 -0.00178277
0.0030927 -0.128078 -0.0154895
-0.0558812 -0.0565966 -0.25893
-0.136545 -0.0402425 -0.184232
-0.133221 0.00168697 0.0077231
-0.0490788 0.0426012 0.195031
0.0648334 0.0576739 0.264036
0.139419 0.0377624 0.172881
0.129429 -0.00504883 -0.0231131
0.0400959 -0.0438944 -0.200817
-0.0735553 0.0862794 -0.340824
-0.179716 0.0613302 -0.242479
-0.175341 -0.00257098 0.0101648
-0.0645958 -0.0649248 0.256691
0.085332 -0.0878958 0.347515
0.183498 -0.0575507 0.227539
0.17035 0.00769468 -0.0304206
0.0527774 0.0669153 -0.264331
-0.0466118 0.176819 -0.215979
-0.111561 0.123191 -0.150474
-0.108839 -0.00516305 0.0063065
-0.0400967 -0.130386 0.159262
0.0529679 -0.176518 0.215611
0.113903 -0.115577 0.141173
0.105746 0.0154715 -0.018898
0.0334449 0.137135 -0.167506
0 -0.0071088 0
0 -0.00537722 0
0 0.000225364 0
0 0.00569124 0
0 0.00770489 0
0 0.00504485 0
0 -0.000675323 0
0 -0.00551334 0
0.073807 -0.0027967 0.0935074
0.180347 -0.00199263 0.0665013
0.175956 8.35338e-05 -0.00278777
0.0648227 0.00210947 -0.0703993
-0.0856318 0.00285583 -0.0953068
-0.184144 0.0018699 -0.0624033
-0.170949 -0.00024997 0.00834313
-0.052958 -0.00216902 0.0725212
0.102844 0.00321184 0.130294
0.251296 0.00228423 0.0926638
0.245178 -9.57553e-05 -0.00388448
0.0903255 -0.00241811 -0.0980947
-0.119321 -0.00327368 -0.132803
-0.256586 -0.00214349 -0.0869547
-0.238203 0.000286576 0.0116255
-0.0737924 0.002491 0.101052
0.0694967 0.00727212 0.0880466
0.169815 0.00517193 0.0626173
0.165681 -0.00021681 -0.00262497
0.0610368 -0.00547509 -0.0662879
-0.0806306 -0.00741229 -0.0897418
-0.17339 -0.00485321 -0.0587596
-0.160965 0.00064886 0.00785587
-0.0498653 0.00564001 0.068286
-0.00600598 0.00692123 -0.00760908
-0.0146756 0.00492235 -0.0054115
-0.0143183 -0.000206347 0.000226852
-0.00527493 -0.00521091 0.00572869
0.0069682 -0.00705461 0.00775551
0.0149846 -0.00461906 0.00507803
0.0139108 0.000617549 -0.000678917
0.00430941 0.00536787 -0.00590134
-0.0778655 0.00237201 -0.0986492
-0.190262 0.00168697 -0.0701578
-0.185633 -7.07188e-05 0.00294107
-0.0683873 -0.00178586 0.0742697
0.0903404 -0.00241771 0.100548
0.194268 -0.00158302 0.0658349
0.180349 0.000211644 -0.00880191
0.0558701 0.00183965 -0.076509
-0.102493 -0.00361604 -0.12985
-0.250417 -0.00257098 -0.0923392
-0.24432 0.000107776 0.00387089
-0.0900093 0.00272167 0.0977515
0.118902 0.00368464 0.132338
0.255688 0.00241255 0.0866501
0.237368 -0.000322557 -0.0115848
0.0735407 -0.00280448 -0.100707
-0.0649495 -0.00741064 -0.0822856
-0.155451 -0.00516305 -0.057329
-0.151658 0.000216387 0.0024027
-0.0558713 0.00546456 0.0606769
0.0738062 0.00739801 0.0821453
0.158714 0.00484392 0.0537855
0.147348 -0.000648425 -0.00719993
0.0466026 -0.00574744 -0.0638179
0 -0.179523 0
0 -0.135794 0
0 0.00569124 0
0 0.143724 0
0 0.194576 0
0 0.127401 0
0 -0.0170543 0
0 -0.139232 0
0.0498752 -0.0706266 -0.115139
0.121868 -0.0503198 -0.0818848
0.118904 0.00210947 0.00343265
0.0438042 0.0532702 0.0866849
-0.0578657 0.0721182 0.117355
-0.124434 0.0472198 0.0768388
-0.115519 -0.00631251 -0.0102731
-0.0357864 -0.0547756 -0.0892979
0.0694967 0.0811106 -0.160436
0.169815 0.0576835 -0.114099
0.165681 -0.00241811 0.00478306
0.0610368 -0.0610642 0.120788
-0.0806306 -0.0826706 0.163524
-0.17339 -0.0541293 0.107069
-0.160965 0.00723691 -0.0143147
-0.0498653 0.0629066 -0.124429
0.0469625 0.183647 -0.108415
0.114753 0.130606 -0.0771024
0.111959 -0.00547509 0.00323216
0.0412462 -0.138262 0.0816222
-0.0544863 -0.187182 0.110501
-0.117168 -0.122558 0.0723519
-0.108772 0.0163856 -0.00967315
-0.0336965 0.142431 -0.084083
-0.00405855 0.174786 0.00936934
-0.00991698 0.124304 0.00666329
-0.00967555 -0.00521091 -0.000279328
-0.00356455 -0.13159 -0.00705389
0.00470872 -0.178149 -0.00954956
0.0101258 -0.116646 -0.00625269
0.00940014 0.015595 0.000835965
0.00291209 0.135558 0.00726654
-0.0526177 0.0599018 0.12147
-0.12857 0.0426012 0.0863877
-0.12544 -0.00178586 -0.0036214
-0.0462131 -0.0450983 -0.0914513
0.0610469 -0.061054 -0.123807
0.131277 -0.0399761 -0.0810644
0.121869 0.00534467 0.0108381
0.0377543 0.0464578 0.0942083
-0.0692597 -0.091318 0.159889
-0.169221 -0.0649248 0.1137
-0.165101 0.00272167 -0.00476632
-0.0608232 0.0687299 -0.120365
0.0803483 0.0930482 -0.162951
0.172783 0.0609237 -0.106694
0.160401 -0.00814555 0.0142648
0.0496952 -0.0708231 0.124005
-0.0438897 -0.187145 0.101321
-0.105046 -0.130386 0.0705913
-0.102483 0.00546456 -0.00295854
-0.0377551 0.138 -0.0747137
0.0498746 0.186826 -0.101149
0.107251 0.122326 -0.066228
0.0995704 -0.0163751 0.00886553
0.0314917 -0.145144 0.0785814
0 -0.243041 0
0 -0.18384 0
0 0.00770489 0
0 0.194576 0
0 0.26342 0
0 0.172477 0
0 -0.0230884 0
0 -0.188494 0
-0.00431026 -0.0956154 -0.253944
-0.0105321 -0.0681238 -0.1806
-0.0102757 0.00285583 0.00757083
-0.0037856 0.0721182 0.191184
0.00500078 0.0976342 0.258829
0.0107538 0.063927 0.169472
0.00998319 -0.00854598 -0.0226578
0.0030927 -0.074156 -0.19695
-0.00600598 0.109809 -0.353849
-0.0146756 0.0780927 -0.251649
-0.0143183 -0.00327368 0.0105493
-0.00527493 -0.0826706 0.266401
0.0069682 -0.111921 0.360658
0.0149846 -0.0732812 0.236145
0.0139108 0.0097974 -0.0315715
0.00430941 0.0851639 -0.274433
-0.00405855 0.248624 -0.239114
-0.00991698 0.176816 -0.170053
-0.00967555 -0.00741229 0.00712873
-0.00356454 -0.187182 0.180021
0.00470872 -0.253407 0.243712
0.0101258 -0.165922 0.159574
0.00940014 0.0221832 -0.0213346
0.00291209 0.192825 -0.185448
0.000350744 0.236628 0.0206644
0.000857041 0.168285 0.0146961
0.000836176 -0.00705461 -0.000616065
0.000308048 -0.178149 -0.0155575
-0.000406934 -0.241183 -0.0210621
-0.000875082 -0.157915 -0.0137906
-0.000812373 0.0211128 0.00184376
-0.000251666 0.18352 0.0160266
0.00454728 0.081096 0.267908
0.0111112 0.0576739 0.190529
0.0108408 -0.00241771 -0.00798708
0.00399374 -0.061054 -0.201697
-0.0052758 -0.0826568 -0.273062
-0.0113452 -0.0541203 -0.178791
-0.0105322 0.0072357 0.0239036
-0.00326276 0.0628953 0.20778
0.00598549 -0.123628 0.352642
0.0146242 -0.0878958 0.250768
0.0142682 0.00368464 -0.0105124
0.00525647 0.0930482 -0.265468
-0.00694381 0.125969 -0.359396
-0.014932 0.0824801 -0.235318
-0.0138621 -0.0110275 0.0314613
-0.00429471 -0.0958814 0.273497
0.00379299 -0.25336 0.223468
0.0090782 -0.176518 0.155692
0.00885669 0.00739801 -0.00652517
0.00326283 0.186826 -0.164784
-0.00431021 0.252928 -0.223087
-0.00926874 0.165607 -0.146068
-0.00860498 -0.0221688 0.0195533
-0.00272155 -0.196498 0.173314
0 -0.159133 0
0 -0.120371 0
0 0.00504485 0
0 0.127401 0
0 0.172477 0
0 0.112931 0
0 -0.0151174 0
0 -0.123418 0
-0.0558812 -0.0626052 -0.238709
-0.136545 -0.0446046 -0.169766
-0.133221 0.0018699 0.00711669
-0.0490788 0.0472198 0.179717
0.0648334 0.063927 0.243301
0.139419 0.0418571 0.159305
0.129429 -0.00559557 -0.0212985
0.0400959 -0.0485544 -0.185135
-0.0778655 0.0718984 -0.332621
-0.190262 0.0511319 -0.236554
-0.185633 -0.00214349 0.00991639
-0.0683873 -0.0541293 0.250418
0.0903404 -0.0732812 0.339023
0.194268 -0.0479813 0.221979
0.180349 0.00641494 -0.0296777
0.0558701 0.0557619 -0.257969
-0.0526177 0.162789 -0.224769
-0.12857 0.115773 -0.159851
-0.12544 -0.00485321 0.00670103
-0.0462131 -0.122558 0.169222
0.0610469 -0.165922 0.229094
0.131277 -0.108639 0.150001
0.121869 0.0145247 -0.0200547
0.0377543 0.126254 -0.174323
0.00454728 0.154934 0.0194248
0.0111112 0.110187 0.0138146
0.0108408 -0.00461906 -0.000579108
0.00399374 -0.116646 -0.0146243
-0.0052758 -0.157915 -0.0197985
-0.0113452 -0.103397 -0.0129633
-0.0105322 0.0138238 0.00173315
-0.00326276 0.120162 0.0150652
0.058954 0.0530984 0.251836
0.144053 0.0377624 0.1791
0.140547 -0.00158302 -0.00750803
0.0517776 -0.0399761 -0.189597
-0.0683986 -0.0541203 -0.25668
-0.147086 -0.0354358 -0.168066
-0.136546 0.00473763 0.0224697
-0.0423007 0.0411813 0.195315
0.0776 -0.0809465 0.331487
0.189596 -0.0575507 0.235725
0.184982 0.00241255 -0.0098817
0.068148 0.0609237 -0.249541
-0.0900242 0.0824801 -0.337836
-0.193588 0.0540047 -0.221202
-0.179718 -0.0072204 0.029574
-0.0556796 -0.0627793 0.25709
0.0491749 -0.16589 0.210062
0.117696 -0.115577 0.146352
0.114824 0.00484392 -0.00613372
0.0423016 0.122326 -0.154898
-0.0558805 0.165607 -0.209704
-0.120166 0.108433 -0.137306
-0.111561 -0.0145153 0.0183803
-0.035284 -0.128659 0.162917
0 0.0213022 0
0 0.0161133 0
0 -0.000675323 0
0 -0.0170543 0
0 -0.0230884 0
0 -0.0151174 0
0 0.00202367 0
0 0.0165212 0
-0.0735553 0.00838056 -0.0786773
-0.179716 0.00596291 -0.0559666
-0.175341 -0.000249966 0.00234615
-0.0645958 -0.0063124 0.0592476
0.085332 -0.00854584 0.0802096
0.183498 -0.00559548 0.0525181
0.17035 0.000748115 -0.00702136
0.0527774 0.00649967 -0.0610194
-0.102493 -0.00962459 -0.10963
-0.250417 -0.00683622 -0.0779845
-0.24432 0.000286571 0.00326915
-0.0900093 0.00723679 0.082556
0.118902 0.00979723 0.111766
0.255688 0.00641483 0.0731799
0.237368 -0.000857742 -0.00978363
0.0735407 -0.0074645 -0.0850252
-0.0692597 -0.0217916 -0.0740826
-0.169221 -0.0154783 -0.0526981
-0.165101 0.000648848 0.00220914
-0.0608233 0.0163854 0.0557874
0.0803483 0.0221828 0.0755253
0.172783 0.0145244 0.0494512
0.160401 -0.00194208 -0.00661129
0.0496952 -0.0169008 -0.0574559
0.00598549 -0.0207401 0.00640229
0.0146242 -0.0147315 0.00455423
0.0142682 0.000617539 -0.000190916
0.00525647 0.0155947 -0.00482118
-0.00694381 0.0211124 -0.00652699
-0.014932 0.0138236 -0.00427362
-0.0138621 -0.00184838 0.000571358
-0.00429471 -0.0160853 0.0049654
0.0776 -0.00710795 0.0830036
0.189596 -0.00504874 0.0590441
0.184982 0.000211641 -0.00247516
0.068148 0.00534458 -0.0625051
-0.0900242 0.00723558 -0.0846206
-0.193588 0.00473755 -0.0554062
-0.179718 -0.000633468 0.00740746
-0.0556796 -0.00551268 0.0643748
0.102143 0.0108358 0.109256
0.24954 0.00769455 0.0777116
0.243465 -0.000322552 -0.00325771
0.0896943 -0.00814541 -0.082267
-0.118486 -0.0110273 -0.111374
-0.254793 -0.00722028 -0.0729235
-0.236536 0.000965459 0.00974947
-0.0732899 0.00840387 0.0847353
0.064728 0.0222067 0.0692353
0.154921 0.0154715 0.0482367
0.151141 -0.000648425 -0.00202164
0.0556807 -0.0163751 -0.0510536
-0.0735545 -0.0221688 -0.0691172
-0.158172 -0.0145153 -0.0452552
-0.146845 0.00194307 0.00605803
-0.0464436 0.0172227 0.0536965
0 0.188816 0
0 0.131549 0
0 -0.00551334 0
0 -0.139232 0
0 -0.188494 0
0 -0.123418 0
0 0.0165212 0
0 0.146439 0
-0.0466118 0.0742827 0.129079
-0.111561 0.0517533 0.0899305
-0.108839 -0.00216902 -0.00376906
-0.0400967 -0.0547756 -0.0951824
0.0529679 -0.074156 -0.128859
0.113903 -0.0485544 -0.084372
0.105746 0.00649968 0.0112943
0.0334449 0.0576111 0.10011
-0.0649495 -0.0853094 0.179861
-0.155451 -0.0594356 0.12531
-0.151658 0.002491 -0.00525186
-0.0558712 0.0629066 -0.132628
0.0738062 0.0851639 -0.179554
0.158714 0.0557619 -0.117565
0.147348 -0.0074645 0.0157377
0.0466026 -0.066163 0.139494
-0.0438897 -0.193154 0.121541
-0.105046 -0.134572 0.0846786
-0.102483 0.00564001 -0.00354895
-0.0377551 0.142431 -0.0896238
0.0498746 0.192825 -0.121334
0.107251 0.126254 -0.0794447
0.0995704 -0.0169008 0.0106348
0.0314917 -0.149804 0.0942633
0.00379299 -0.183834 -0.0105037
0.00907819 -0.128078 -0.00731801
0.00885669 0.00536787 0.000306704
0.00326283 0.135558 0.00774538
-0.00431021 0.18352 0.0104858
-0.00926874 0.120162 0.00686569
-0.00860497 -0.0160853 -0.000919067
-0.00272155 -0.142575 -0.00814633
0.0491749 -0.0630027 -0.136177
0.117696 -0.0438944 -0.0948757
0.114824 0.00183965 0.00397632
0.0423015 0.0464578 0.100416
-0.0558805 0.0628953 0.135945
-0.120166 0.0411813 0.0890115
-0.111561 -0.00551268 -0.0119154
-0.035284 -0.0488627 -0.105614
0.064728 0.0960452 -0.179248
0.154921 0.0669153 -0.124883
0.151141 -0.00280448 0.00523395
0.0556807 -0.0708231 0.132176
-0.0735545 -0.0958814 0.178942
-0.158172 -0.0627793 0.117164
-0.146845 0.00840387 -0.015684
-0.0464436 0.0744893 -0.139018
0.0410179 0.196833 -0.113589
0.0981729 0.137135 -0.079138
0.0957775 -0.00574744 0.00331674
0.0352847 -0.145144 0.0837596
-0.0466113 -0.196498 0.113395
-0.100233 -0.128659 0.0742465
-0.0930554 0.0172227 -0.00993892
-0.0294312 0.152657 -0.0880955
