# vtk DataFile Version 3.0
Velocity field
ASCII
DATASET STRUCTURED_POINTS
DIMENSIONS 10 10 10
SPACING 0.631579 0.631579 0.631579
ORIGIN 0 0 0
POINT_DATA 1000
VECTORS velocity float
0 0.486674 0
0 0.392793 0
0 0.147369 0
0 -0.15491 0
0 -0.397424 0
0 -0.486609 0
0 -0.388056 0
0 -0.139789 0
0 0.162411 0
0 0.401951 0
0 0.298911 0.381223
0 0.24125 0.319748
0 0.090513 0.119964
0 -0.0951448 -0.126103
0 -0.244095 -0.323518
0 -0.298872 -0.396118
0 -0.238341 -0.315893
0 -0.0858571 -0.113793
0 0.0997514 0.132208
0 0.246875 0.314857
0 -0.00417318 0.615367
0 -0.00336816 0.516135
0 -0.00126368 0.193645
0 0.00132834 -0.203554
0 0.00340788 -0.522221
0 0.00417263 -0.639411
0 0.00332755 -0.509911
0 0.00119867 -0.183684
0 -0.00139266 0.21341
0 -0.00344669 0.50824
0 -0.305648 0.612098
0 -0.246687 0.513393
0 -0.0925528 0.192616
0 0.097289 -0.202473
0 0.249596 -0.519447
0 0.305607 -0.636015
0 0.243713 -0.507203
0 0.087792 -0.182708
0 -0.101999 0.212276
0 -0.252439 0.505541
0 -0.489201 0.372677
0 -0.394832 0.31258
0 -0.148134 0.117275
0 0.155715 -0.123276
0 0.399488 -0.316266
0 0.489136 -0.387239
0 0.390072 -0.308811
0 0.140515 -0.111242
0 -0.163254 0.129245
0 -0.404038 0.307799
0 -0.484017 -0.0105254
0 -0.390648 -0.0088281
0 -0.146565 -0.00331216
0 0.154065 0.00348165
0 0.395255 0.00893221
0 0.483953 0.0109366
0 0.385938 0.00872165
0 0.139025 0.00314178
0 -0.161524 -0.00365022
0 -0.399756 -0.00869308
0 -0.292096 -0.389667
0 -0.235749 -0.326831
0 -0.0884492 -0.122621
0 0.0929754 0.128896
0 0.238529 0.330685
0 0.292057 0.404892
0 0.232907 0.32289
0 0.0838994 0.116314
0 -0.0974769 -0.135137
0 -0.241246 -0.321832
0 0.0125186 -0.618473
0 0.0101037 -0.51874
0 0.00379073 -0.194622
0 -0.00398471 0.204582
0 -0.0102228 0.524856
0 -0.0125169 0.642638
0 -0.00998185 0.512485
0 -0.00359574 0.184611
0 0.00417764 -0.214487
0 0.0103392 -0.510805
0 0.312303 -0.608667
0 0.252058 -0.510515
0 0.094568 -0.191536
0 -0.0994074 0.201338
0 -0.255031 0.516535
0 -0.312261 0.632448
0 -0.249019 0.504359
0 -0.0897035 0.181684
0 0.10422 -0.211086
0 0.257935 -0.502706
0 0.491598 -0.364033
0 0.396767 -0.293809
0 0.14886 -0.110232
0 -0.156478 0.115873
0 -0.401446 0.297274
0 -0.491533 0.363984
0 -0.391983 0.290267
0 -0.141203 0.104562
0 0.164054 -0.121483
0 0.406018 -0.30066
0 0.392793 0
0 0.333513 0
0 0.125128 0
0 -0.131532 0
0 -0.337446 0
0 -0.413171 0
0 -0.329491 0
0 -0.118692 0
0 0.1379 0
0 0.324413 0
0.0554293 0.24125 0.421907
0.150847 0.202581 0.354337
0.185854 0.0760813 0.133079
0.149109 -0.0799785 -0.139895
0.0548348 -0.205185 -0.358904
-0.0605948 -0.251231 -0.439443
-0.152646 -0.200349 -0.350442
-0.185805 -0.072174 -0.126244
-0.147235 0.083677 0.146356
-0.0498695 0.199252 0.348459
0.0894736 -0.00336816 0.681039
0.243496 -0.00281826 0.571967
0.300005 -0.00105833 0.214814
0.24069 0.00111254 -0.225818
0.0885141 0.00285425 -0.579338
-0.0978118 0.00349474 -0.709346
-0.2464 0.00278696 -0.565682
-0.299925 0.00100397 -0.203782
-0.237665 -0.0011642 0.236248
-0.0804989 -0.00278181 0.562479
0.0889983 -0.246687 0.677421
0.242203 -0.206897 0.568928
0.298411 -0.0777013 0.213673
0.239411 0.0816818 -0.224618
0.0880438 0.209555 -0.57626
-0.0972923 0.25658 -0.705578
-0.245092 0.204615 -0.562676
-0.298332 0.073711 -0.2027
-0.236403 -0.0854605 0.234993
-0.0800713 -0.203742 0.559491
0.0541868 -0.394832 0.412449
0.147466 -0.331147 0.346392
0.181688 -0.124364 0.130095
0.145767 0.130735 -0.136759
0.0536055 0.3354 -0.350857
-0.0592364 0.410666 -0.429592
-0.149225 0.327495 -0.342586
-0.18164 0.117977 -0.123414
-0.143934 -0.136783 0.143076
-0.0487516 -0.326097 0.340647
-0.00153038 -0.390648 -0.0116487
-0.00416482 -0.327638 -0.00978305
-0.00513137 -0.123046 -0.00367425
-0.00411681 0.129349 0.00386245
-0.00151397 0.331846 0.00990914
0.00167299 0.406315 0.0121329
0.00421449 0.324025 0.00967557
0.00513001 0.116727 0.00348554
0.00406509 -0.135334 -0.00404083
0.00137687 -0.322642 -0.00962079
-0.0566571 -0.235749 -0.431252
-0.154188 -0.197722 -0.362185
-0.189971 -0.0742563 -0.136026
-0.152411 0.0780597 0.142994
-0.0560494 0.200263 0.366853
0.0619368 0.245203 0.449176
0.156027 0.195543 0.358206
0.18992 0.0704426 0.129041
0.150496 -0.0816717 -0.149598
0.0509741 -0.194709 -0.356177
-0.0899251 0.0101037 -0.684475
-0.244723 0.00846955 -0.574848
-0.301516 0.00318071 -0.215897
-0.241903 -0.00334362 0.226956
-0.0889602 -0.0085781 0.582258
0.0983044 -0.0105031 0.712921
0.247642 -0.00837591 0.568532
0.301436 -0.00301735 0.204809
0.238862 0.00349851 -0.237438
0.0809051 0.00834476 -0.565318
-0.0884993 0.252058 -0.673623
-0.24072 0.211133 -0.565458
-0.296583 0.0792885 -0.212366
-0.237945 -0.0833496 0.223244
-0.0875043 -0.213834 0.572735
0.096696 -0.26182 0.70126
0.24359 -0.208794 0.559232
0.296505 -0.075216 0.20146
0.234956 0.087215 -0.233564
0.0796224 0.208178 -0.556355
-0.0529298 0.396767 -0.402882
-0.138369 0.320229 -0.325164
-0.170424 0.120145 -0.121996
-0.136728 -0.126293 0.128239
-0.050282 -0.324006 0.328999
0.0555637 -0.396715 0.402828
0.139972 -0.316368 0.321244
0.170379 -0.113965 0.115721
0.135052 0.132407 -0.134448
0.0476207 0.327696 -0.332746
0 0.147369 0
0 0.125128 0
0 0.046946 0
0 -0.0493484 0
0 -0.126604 0
0 -0.155015 0
0 -0.12362 0
0 -0.0445312 0
0 0.0517377 0
0 0.121714 0
0.0894736 0.090513 0.299816
0.243496 0.0760813 0.251722
0.300005 0.0285743 0.0945394
0.24069 -0.030038 -0.0993822
0.0885141 -0.0770627 -0.254966
-0.0978118 -0.0943561 -0.312182
-0.2464 -0.0752462 -0.248956
-0.299925 -0.0271069 -0.089685
-0.237665 0.0314246 0.103972
-0.0804989 0.0747559 0.247622
0.144428 -0.00126368 0.48396
0.39305 -0.00105833 0.406327
0.484266 -0.000397448 0.152605
0.388521 0.000417804 -0.160422
0.142879 0.00107188 -0.411564
-0.157886 0.00131243 -0.503923
-0.397737 0.00104662 -0.401863
-0.484137 0.000377035 -0.144768
-0.383637 -0.000437176 0.16783
-0.129941 -0.00104369 0.399709
0.14366 -0.0925528 0.481389
0.390963 -0.0777012 0.404168
0.481693 -0.0291824 0.151794
0.386457 0.0306772 -0.15957
0.14212 0.0787027 -0.409378
-0.157048 0.0963645 -0.501246
-0.395625 0.0768475 -0.399728
-0.481565 0.0276838 -0.143999
-0.381598 -0.0320941 0.166939
-0.12925 -0.0764406 0.397586
0.0874679 -0.148134 0.293095
0.238038 -0.124364 0.246078
0.293281 -0.0467076 0.0924202
0.235295 0.0491003 -0.0971549
0.0865296 0.125967 -0.249251
-0.0956188 0.154235 -0.305184
-0.240877 0.122998 -0.243376
-0.293203 0.0443091 -0.0876742
-0.232337 -0.0513678 0.101641
-0.0786944 -0.122346 0.242071
-0.00247033 -0.146565 -0.00827778
-0.00672282 -0.123046 -0.00694994
-0.00828299 -0.0462125 -0.0026102
-0.00664534 0.0485801 0.0027439
-0.00244382 0.124632 0.00703953
0.00270052 0.1526 0.00861924
0.00680301 0.121694 0.00687356
0.00828079 0.0438395 0.00247615
0.00656186 -0.0508235 -0.00287061
0.00222254 -0.12105 -0.00683673
-0.0914555 -0.0884492 -0.306457
-0.24889 -0.0742563 -0.257297
-0.306649 -0.0278885 -0.096634
-0.246021 0.0293171 0.101584
-0.0904746 0.0752132 0.260614
0.099978 0.0920916 0.319098
0.251858 0.0734406 0.254471
0.306568 0.0264564 0.0916712
0.24293 -0.0306711 -0.106275
0.082282 -0.0730513 -0.253107
-0.145156 0.00379073 -0.486402
-0.39503 0.00318071 -0.408374
-0.486706 0.00119455 -0.153374
-0.390479 -0.00125574 0.161231
-0.143598 -0.00322161 0.413637
0.158682 -0.00394456 0.506462
0.399741 -0.00314567 0.403888
0.486577 -0.0011332 0.145498
0.38557 0.00131381 -0.168676
0.130596 0.00313081 -0.401727
-0.142855 0.094568 -0.47869
-0.388569 0.0792885 -0.401703
-0.478742 0.0297769 -0.150866
-0.384089 -0.0313022 0.158593
-0.141249 -0.0803059 0.406873
0.156085 -0.0983272 0.498177
0.393202 -0.078413 0.397282
0.478615 -0.0282477 0.143118
0.379263 0.0327513 -0.165924
0.128526 0.078105 -0.395357
-0.085439 0.14886 -0.286296
-0.223354 0.120145 -0.231069
-0.275097 0.0450762 -0.086693
-0.220706 -0.0473829 0.0911293
-0.0811648 -0.121561 0.233793
0.0896904 -0.148841 0.286258
0.225942 -0.118696 0.228282
0.275024 -0.0427576 0.0822336
0.218 0.049677 -0.0955415
0.076869 0.122946 -0.236456
0 -0.15491 0
0 -0.131532 0
0 -0.0493484 0
0 0.0518737 0
0 0.133083 0
0 0.162947 0
0 0.129946 0
0 0.04681 0
0 -0.0543853 0
0 -0.127943 0
0.0889983 -0.0951448 0.0620535
0.242203 -0.0799785 0.0520987
0.298411 -0.030038 0.0195667
0.239411 0.0315767 -0.0205691
0.0880438 0.0810106 -0.0527703
-0.0972923 0.0991895 -0.0646123
-0.245092 0.0791007 -0.0515262
-0.298332 0.0284955 -0.018562
-0.236403 -0.0330341 0.0215189
-0.0800713 -0.0785814 0.0512508
0.14366 0.00132834 0.100166
0.390963 0.00111254 0.084097
0.481693 0.000417804 0.0315846
0.386457 -0.000439206 -0.0332025
0.14212 -0.00112678 -0.0851812
-0.157048 -0.00137965 -0.104297
-0.395625 -0.00110023 -0.0831733
-0.481565 -0.000396344 -0.0299625
-0.381598 0.000459566 0.0347358
-0.12925 0.0010971 0.0827287
0.142897 0.097289 0.0996342
0.388886 0.0816817 0.0836502
0.479134 0.0306772 0.0314168
0.384403 -0.0322487 -0.0330261
0.141364 -0.0827343 -0.0847286
-0.156213 -0.1013 -0.103742
-0.393524 -0.0807844 -0.0827315
-0.479007 -0.0291018 -0.0298034
-0.379572 0.0337379 0.0345512
-0.128564 0.0803523 0.0822892
0.0870032 0.155715 0.0606625
0.236773 0.130734 0.0509307
0.291723 0.0491003 0.0191281
0.234045 -0.0516152 -0.020108
0.08607 -0.13242 -0.0515871
-0.0951108 -0.162136 -0.0631638
-0.239597 -0.129298 -0.0503713
-0.291645 -0.0465787 -0.0181459
-0.231103 0.0539988 0.0210366
-0.0782764 0.128607 0.050102
-0.0024572 0.154065 -0.00171327
-0.0066871 0.129349 -0.00143842
-0.00823897 0.0485801 -0.000540231
-0.00661008 -0.0510683 0.000567905
-0.00243085 -0.131016 0.00145696
0.00268618 -0.160417 0.00178391
0.00676687 -0.127928 0.00142262
0.00823679 -0.0460851 0.000512487
0.00652698 0.0534267 -0.000594129
0.00221073 0.127244 -0.00141501
-0.0909696 0.0929754 -0.063428
-0.247567 0.0780597 -0.0532525
-0.30502 0.0293171 -0.0200002
-0.244715 -0.0308188 0.0210247
-0.0899942 -0.079066 0.053939
0.0994469 -0.0968092 0.0660434
0.25052 -0.0772023 0.0526678
0.304939 -0.0278115 0.0189731
0.241639 0.0322421 -0.0219956
0.0818449 0.0767896 -0.0523861
-0.144385 -0.00398471 -0.100672
-0.392932 -0.00334362 -0.0845207
-0.48412 -0.00125574 -0.0317437
-0.388404 0.00132006 0.0333698
-0.142836 0.00338663 0.0856102
0.157839 0.00414661 0.104822
0.397618 0.0033068 0.0835923
0.483992 0.00119125 0.0301135
0.383521 -0.0013811 -0.0349107
0.129903 -0.00329103 -0.0831462
-0.142096 -0.0994074 -0.0990756
-0.386505 -0.0833496 -0.0831404
-0.476199 -0.0313022 -0.0312245
-0.382048 0.0329055 0.0328239
-0.140498 0.0844193 0.0842101
0.155256 0.103363 0.103107
0.391113 0.0824294 0.0822253
0.476072 0.0296945 0.029621
0.377249 -0.0344288 -0.0343412
0.127843 -0.0821019 -0.0818279
-0.0849851 -0.156478 -0.0592553
-0.222167 -0.126293 -0.0478247
-0.273636 -0.0473829 -0.017943
-0.219534 0.0498077 0.0188612
-0.0807336 0.127782 0.0483887
0.089214 0.156457 0.0592474
0.224742 0.12477 0.0472481
0.273563 0.0449456 0.0170201
0.216842 -0.0522192 -0.0197744
0.0764606 -0.129237 -0.0489398
0 -0.397424 0
0 -0.337446 0
0 -0.126604 0
0 0.133083 0
0 0.341425 0
0 0.418043 0
0 0.333377 0
0 0.120092 0
0 -0.139526 0
0 -0.328238 0
0.0541868 -0.244095 -0.199649
0.147466 -0.205185 -0.16762
0.181688 -0.0770627 -0.0629536
0.145767 0.0810106 0.0661784
0.0536055 0.207833 0.169781
-0.0592364 0.254472 0.207881
-0.149225 0.202934 0.165779
-0.18164 0.0731055 0.0597207
-0.143934 -0.0847493 -0.0692345
-0.0487516 -0.201601 -0.164893
0.0874679 0.00340788 -0.322273
0.238038 0.00285425 -0.270571
0.293281 0.00107188 -0.101619
0.235295 -0.00112678 0.106825
0.0865296 -0.00289078 0.274059
-0.0956188 -0.00353952 0.33556
-0.240877 -0.00282263 0.2676
-0.293203 -0.00101683 0.0964008
-0.232337 0.00117902 -0.111758
-0.0786944 0.00281461 -0.266169
0.0870032 0.249596 -0.320561
0.236773 0.209555 -0.269134
0.291723 0.0787027 -0.101079
0.234045 -0.0827343 0.106257
0.08607 -0.212256 0.272603
-0.0951108 -0.259888 0.333778
-0.239597 -0.207252 0.266178
-0.291645 -0.0746612 0.0958885
-0.231103 0.0865548 -0.111164
-0.0782764 0.206145 -0.264755
0.0529721 0.399488 -0.195174
0.14416 0.3354 -0.163864
0.177616 0.125967 -0.0615423
0.142499 -0.13242 0.064695
0.0524041 -0.339723 0.165975
-0.0579085 -0.41596 0.203221
-0.14588 -0.331716 0.162064
-0.177569 -0.119498 0.058382
-0.140708 0.138535 -0.0676824
-0.0476587 0.329943 -0.161197
-0.00149607 0.395255 0.00551223
-0.00407147 0.331846 0.00462794
-0.00501632 0.124632 0.00173812
-0.00402453 -0.131016 -0.00182715
-0.00148002 -0.336123 -0.00468759
0.0016355 -0.411551 -0.0057395
0.00412001 -0.328201 -0.0045771
0.00501499 -0.118232 -0.00164887
0.00397397 0.137067 0.00191153
0.00134601 0.326446 0.00455263
-0.055387 0.238529 0.204072
-0.150732 0.200263 0.171333
-0.185713 0.0752132 0.0643481
-0.148995 -0.079066 -0.0676441
-0.054793 -0.202845 -0.173542
0.0605486 -0.248364 -0.212486
0.152529 -0.198063 -0.169451
0.185663 -0.0713508 -0.0610436
0.147123 0.0827173 0.070768
0.0498314 0.197005 0.168546
-0.0879093 -0.0102228 0.323899
-0.239237 -0.0085781 0.271935
-0.294758 -0.00322161 0.102131
-0.23648 0.00338663 -0.107363
-0.0869655 0.00868841 -0.27544
0.0961008 0.0106382 -0.33725
0.242091 0.00848365 -0.268947
0.29468 0.00305616 -0.0968865
0.233508 -0.00354322 0.112321
0.0790915 -0.00844317 0.267513
-0.0865155 -0.255031 0.318763
-0.235324 -0.213834 0.267493
-0.289935 -0.0803059 0.100461
-0.23261 0.0844193 -0.105607
-0.0855425 0.216578 -0.270935
0.094528 0.26518 -0.331735
0.23813 0.211474 -0.264549
0.289858 0.0761814 -0.0953015
0.229689 -0.0883273 0.110488
0.0778375 -0.210633 0.263271
-0.0517433 -0.401446 0.190647
-0.135267 -0.324006 0.15387
-0.166604 -0.121561 0.0577295
-0.133663 0.127782 -0.0606837
-0.0491548 0.327826 -0.155685
0.0543181 0.401393 -0.190621
0.136835 0.320099 -0.152015
0.166559 0.115308 -0.0547599
0.132024 -0.133969 0.0636218
0.0465532 -0.33156 0.157458
0 -0.486609 0
0 -0.413171 0
0 -0.155015 0
0 0.162947 0
0 0.418043 0
0 0.511854 0
0 0.408189 0
0 0.147041 0
0 -0.170837 0
0 -0.401897 0
-0.00153038 -0.298872 -0.384326
-0.00416482 -0.251231 -0.322671
-0.00513137 -0.0943561 -0.121186
-0.00411681 0.0991895 0.127394
-0.00151397 0.254472 0.326831
0.00167299 0.311577 0.400172
0.00421449 0.248473 0.319126
0.00513001 0.0895109 0.114963
0.00406509 -0.103767 -0.133277
0.00137687 -0.246842 -0.31742
-0.00247033 0.00417263 -0.620376
-0.00672282 0.00349473 -0.520853
-0.00828299 0.00131243 -0.195618
-0.00664534 -0.00137965 0.205638
-0.00244382 -0.00353952 0.527566
0.00270053 -0.00433379 0.645957
0.00680301 -0.00345606 0.515131
0.00828079 -0.001245 0.185572
0.00656186 0.00144361 -0.215134
0.00222254 0.00344623 -0.512377
-0.0024572 0.305607 -0.617081
-0.0066871 0.25658 -0.518086
-0.00823897 0.0963645 -0.194579
-0.00661008 -0.1013 0.204545
-0.00243085 -0.259888 0.524764
0.00268618 -0.318208 0.642525
0.00676687 -0.253761 0.512394
0.00823679 -0.0914155 0.184586
0.00652698 0.105979 -0.213991
0.00221073 0.252405 -0.509655
-0.00149607 0.489136 -0.375711
-0.00407147 0.410666 -0.315437
-0.00501632 0.154235 -0.118469
-0.00402453 -0.162136 0.124538
-0.00148002 -0.41596 0.319504
0.0016355 -0.509304 0.391203
0.00412001 -0.406155 0.311971
0.00501499 -0.146315 0.112386
0.00397397 0.169623 -0.130289
0.00134601 0.403984 -0.310305
4.22531e-05 0.483953 0.0106111
0.000114988 0.406314 0.00890878
0.000141675 0.1526 0.00334588
0.000113664 -0.160417 -0.0035173
4.17999e-05 -0.411551 -0.00902361
-4.619e-05 -0.503907 -0.0110486
-0.000116362 -0.401851 -0.00881095
-0.000141638 -0.144764 -0.00317407
-0.000112235 0.167825 0.00367971
-3.80149e-05 0.399703 0.00876383
0.00156428 0.292057 0.392839
0.00425706 0.245203 0.329818
0.00524503 0.0920916 0.12387
0.00420801 -0.0968092 -0.130216
0.0015475 -0.248364 -0.334069
-0.00171005 -0.304098 -0.409036
-0.00430786 -0.24251 -0.326196
-0.00524364 -0.0873623 -0.117509
-0.00415514 0.10128 0.136229
-0.00140737 0.241214 0.324451
0.00248279 -0.0125169 0.623507
0.0067567 -0.0105031 0.523476
0.00832474 -0.00394456 0.196603
0.0066788 0.00414661 -0.206673
0.00245614 0.0106382 -0.530224
-0.00271413 0.0130255 -0.649213
-0.00683728 0.0103874 -0.517727
-0.00832253 0.00374199 -0.186507
-0.0065949 -0.00433835 0.216218
-0.00223376 -0.0103379 0.514963
0.00244343 -0.312261 0.613621
0.00664619 -0.26182 0.514925
0.00818851 -0.0983272 0.193388
0.00656959 0.103363 -0.203294
0.00241596 0.26518 -0.521552
-0.00266972 0.324689 -0.638592
-0.00672539 0.25893 -0.509258
-0.00818634 0.0932771 -0.183456
-0.00648702 -0.108149 0.212691
-0.00219834 -0.257901 0.506798
0.00146137 -0.491533 0.366996
0.0038203 -0.396715 0.296201
0.00470533 -0.148841 0.11113
0.00377501 0.156457 -0.116816
0.00138826 0.401393 -0.299694
-0.00153409 0.491468 -0.366947
-0.00386458 0.391931 -0.292629
-0.00470408 0.141184 -0.105413
-0.00372872 -0.164032 0.122472
-0.00131479 -0.405964 0.303107
0 -0.388056 0
0 -0.329491 0
0 -0.12362 0
0 0.129946 0
0 0.333377 0
0 0.408189 0
0 0.325518 0
0 0.117261 0
0 -0.136237 0
0 -0.320501 0
-0.0566571 -0.238341 -0.420727
-0.154188 -0.200349 -0.353232
-0.189971 -0.0752463 -0.132664
-0.152411 0.0791007 0.139459
-0.0560494 0.202934 0.357787
0.0619368 0.248473 0.438074
0.156027 0.19815 0.349351
0.18992 0.0713821 0.125851
0.150496 -0.0827516 -0.1459
0.0509741 -0.196849 -0.347484
-0.0914555 0.00332755 -0.679134
-0.24889 0.00278696 -0.570184
-0.306649 0.00104662 -0.214145
-0.246021 -0.00110023 0.225115
-0.0904745 -0.00282263 0.577534
0.099978 -0.00345606 0.707137
0.251858 -0.00275611 0.56392
0.306568 -0.000992866 0.203148
0.24293 0.00115123 -0.23551
0.082282 0.00274826 -0.560906
-0.0909696 0.243713 -0.675526
-0.247567 0.204615 -0.567155
-0.30502 0.0768475 -0.213008
-0.244715 -0.0807844 0.223919
-0.0899942 -0.207252 0.574466
0.0994469 -0.253761 0.70338
0.25052 -0.202367 0.560924
0.304939 -0.0729014 0.202069
0.241639 0.0845146 -0.234259
0.0818449 0.201285 -0.557927
-0.055387 0.390072 -0.411296
-0.150732 0.327495 -0.345313
-0.185713 0.122998 -0.12969
-0.148995 -0.129298 0.136333
-0.054793 -0.331716 0.349764
0.0605486 -0.406155 0.428254
0.152529 -0.323898 0.34152
0.185663 -0.116681 0.12303
0.147123 0.135269 -0.142629
0.0498314 0.322165 -0.339695
0.00156428 0.385938 0.0116161
0.00425706 0.324025 0.00975257
0.00524503 0.121694 0.00366278
0.00420801 -0.127928 -0.00385042
0.0015475 -0.328201 -0.00987826
-0.00171005 -0.401851 -0.0120951
-0.00430786 -0.320465 -0.00964546
-0.00524364 -0.115445 -0.0034747
-0.00415514 0.133836 0.00402823
-0.00140737 0.318751 0.00959389
0.0579121 0.232907 0.430046
0.157603 0.195543 0.361057
0.19418 0.0734406 0.135602
0.155787 -0.0772023 -0.142549
0.0572909 -0.198063 -0.36571
-0.0633089 -0.24251 -0.447777
-0.159484 -0.193395 -0.357091
-0.194128 -0.0696689 -0.128639
-0.15383 0.0807677 0.149132
-0.0521032 0.192361 0.355181
0.091917 -0.00998185 0.682561
0.250144 -0.00837591 0.573056
0.308195 -0.00314567 0.215224
0.247261 0.0033068 -0.226249
0.0909303 0.00848365 -0.580444
-0.100482 0.0103874 -0.710701
-0.253127 0.00828364 -0.566761
-0.308113 0.00298411 -0.204171
-0.244153 -0.00345969 0.236697
-0.0826972 -0.00824414 0.563737
0.0904596 -0.249019 0.671739
0.246052 -0.208794 0.563695
0.303152 -0.078413 0.211705
0.243216 0.0824294 -0.222548
0.0894429 0.211474 -0.57095
-0.0988377 0.25893 -0.699075
-0.248985 0.206488 -0.55749
-0.303072 0.0743858 -0.200832
-0.24016 -0.0862453 0.232835
-0.0813861 -0.205668 0.554799
0.0541023 -0.391983 0.401755
0.141434 -0.316368 0.324255
0.174199 -0.118696 0.121655
0.139757 0.12477 -0.12788
0.0513958 0.320099 -0.328079
-0.0567944 0.391931 -0.401702
-0.143073 0.312553 -0.320345
-0.174153 0.11259 -0.115397
-0.138043 -0.130811 0.134072
-0.0486755 -0.323744 0.331815
0 -0.139789 0
0 -0.118692 0
0 -0.0445312 0
0 0.04681 0
0 0.120092 0
0 0.147041 0
0 0.117261 0
0 0.0422406 0
0 -0.0490764 0
0 -0.115453 0
-0.0899251 -0.0858571 -0.294808
-0.244723 -0.072174 -0.247515
-0.301516 -0.0271069 -0.09296
-0.241903 0.0284955 0.0977222
-0.0889602 0.0731056 0.250707
0.0983044 0.089511 0.306966
0.247642 0.0713822 0.244797
0.301436 0.0257149 0.0881863
0.238862 -0.0298105 -0.102235
0.0809051 -0.0709105 -0.243486
-0.145156 0.00119867 -0.475877
-0.39503 0.00100398 -0.399537
-0.486706 0.000377035 -0.150055
-0.390479 -0.000396344 0.157742
-0.143598 -0.00101683 0.404688
0.158682 -0.00124501 0.495502
0.399741 -0.000992866 0.395149
0.486577 -0.000357672 0.14235
0.38557 0.000414721 -0.165026
0.130596 0.000990001 -0.393033
-0.144385 0.087792 -0.473349
-0.392932 0.073711 -0.397415
-0.48412 0.0276838 -0.149258
-0.388404 -0.0291019 0.156904
-0.142836 -0.0746612 0.402539
0.157839 -0.0914156 0.492871
0.397618 -0.0729015 0.393051
0.483992 -0.0262622 0.141593
0.383521 0.0304457 -0.16415
0.129903 0.0725086 -0.390945
-0.0879093 0.140515 -0.288199
-0.239237 0.117977 -0.241967
-0.294759 0.0443091 -0.0908761
-0.23648 -0.0465788 0.0955312
-0.0869655 -0.119498 0.245087
0.0961008 -0.146315 0.300086
0.242091 -0.116681 0.239309
0.29468 -0.0420336 0.0862092
0.233508 0.0487296 -0.0999428
0.0790915 0.116053 -0.238028
0.00248279 0.139025 0.00813952
0.0067567 0.116727 0.0068338
0.00832474 0.0438395 0.00256659
0.0066788 -0.0460851 -0.00269805
0.00245614 -0.118232 -0.00692187
-0.00271413 -0.144764 -0.00847518
-0.00683728 -0.115445 -0.00675873
-0.00832253 -0.0415882 -0.00243479
-0.0065949 0.0482132 0.00282266
-0.00223376 0.114823 0.00672254
0.091917 0.0838994 0.301338
0.250144 0.0704426 0.252999
0.308195 0.0264564 0.095019
0.247261 -0.0278116 -0.0998864
0.0909303 -0.0713509 -0.25626
-0.100482 -0.0873624 -0.313766
-0.253127 -0.0696689 -0.250219
-0.308113 -0.0250977 -0.0901398
-0.244154 0.0290958 0.104499
-0.0826972 0.0692937 0.248879
0.145889 -0.00359574 0.478278
0.39702 -0.00301735 0.401551
0.489158 -0.00113321 0.150811
0.392445 0.00119125 -0.158537
0.144322 0.00305617 -0.406727
-0.159482 0.00374199 -0.497999
-0.401755 0.00298412 -0.39714
-0.489028 0.001075 -0.143067
-0.387513 -0.00124632 0.165858
-0.131256 -0.00296977 0.395017
0.143576 -0.0897035 0.470695
0.390527 -0.0752161 0.394991
0.481154 -0.0282477 0.148345
0.386024 0.0296945 -0.155943
0.14196 0.0761815 -0.400075
-0.156872 0.0932773 -0.489855
-0.395182 0.0743859 -0.390646
-0.481027 0.0267968 -0.140726
-0.381174 -0.031069 0.163152
-0.129174 -0.0740873 0.388754
0.0858701 -0.141203 0.281514
0.224481 -0.113965 0.227209
0.276486 -0.0427576 0.085245
0.22182 0.0449456 -0.0896073
0.0815744 0.115308 -0.229888
-0.090143 0.141184 -0.281477
-0.227083 0.11259 -0.22447
-0.276412 0.0405582 -0.0808601
-0.2191 -0.0471217 0.0939457
-0.0772569 -0.116622 0.232507
0 0.162411 0
0 0.1379 0
0 0.0517377 0
0 -0.0543852 0
0 -0.139526 0
0 -0.170836 0
0 -0.136237 0
0 -0.0490763 0
0 0.0570184 0
0 0.134137 0
-0.0884993 0.0997514 -0.0551503
-0.24072 0.0836744 -0.046448
-0.296583 0.0314235 -0.0174467
-0.237945 -0.033033 0.0183406
-0.0875043 -0.0847466 0.0470528
0.096696 -0.103764 0.0576118
0.243591 -0.0827489 0.0459437
0.296505 -0.0298095 0.016551
0.234956 0.0345635 -0.0191826
0.0796224 0.082386 -0.0455494
-0.142855 -0.00139266 -0.0890233
-0.388569 -0.00116416 -0.0749759
-0.478742 -0.000437161 -0.0281624
-0.384089 0.00045955 0.0296052
-0.141249 0.00117898 0.0759522
0.156085 0.00144355 0.0929964
0.393202 0.00115119 0.074162
0.478615 0.000414706 0.0267165
0.379263 -0.000480929 -0.0309644
0.128526 -0.00115021 -0.0735255
-0.142096 -0.101999 -0.0885503
-0.386505 -0.0854577 -0.0745776
-0.476199 -0.032093 -0.0280127
-0.382048 0.0337368 0.0294479
-0.140498 0.0865519 0.0755488
0.155256 0.105975 0.0925025
0.391113 0.0845118 0.0737682
0.476072 0.0304447 0.0265746
0.377249 -0.0353008 -0.0307999
0.127843 -0.0842427 -0.073135
-0.0865155 -0.163254 -0.0539141
-0.235324 -0.136779 -0.0454068
-0.289935 -0.0513661 -0.0170556
-0.23261 0.053997 0.0179294
-0.0855425 0.13853 0.0459981
0.094528 0.169617 0.0563204
0.23813 0.135264 0.0449139
0.289858 0.0487279 0.01618
0.229689 -0.0565003 -0.0187526
0.0778375 -0.134834 -0.0445284
0.00244343 -0.161524 0.00152268
0.00664619 -0.135329 0.00128241
0.00818851 -0.0508218 0.000481696
0.00656959 0.0534249 -0.000506374
0.00241596 0.137062 -0.00129911
-0.00266972 0.16782 -0.00159064
-0.00672539 0.133831 -0.00126849
-0.00818634 0.0482115 -0.000456965
-0.00648702 -0.0559015 0.000529622
-0.00219834 -0.133405 0.0012576
0.0904596 -0.0974769 0.0563719
0.246052 -0.0816691 0.0474769
0.303152 -0.0306701 0.0178332
0.243216 0.032241 -0.0187468
0.0894429 0.0827146 -0.0480951
-0.0988376 0.101276 -0.0588879
-0.248985 0.080765 -0.0469613
-0.303072 0.0290948 -0.0169176
-0.24016 -0.0337356 0.0196075
-0.0813861 -0.0805075 0.0465584
0.143576 0.00417764 0.0894725
0.390527 0.0034984 0.0753536
0.481154 0.00131376 0.0283043
0.386024 -0.00138105 -0.0297543
0.14196 -0.00354311 -0.0763348
-0.156872 -0.0043382 -0.0934648
-0.395182 -0.00345958 -0.0745355
-0.481027 -0.00124628 -0.026851
-0.381174 0.00144515 0.0311204
-0.129174 0.00345037 0.0738966
0.141299 0.10422 0.0880539
0.384143 0.0872122 0.0741186
0.473285 0.0327503 0.0278396
0.379711 -0.0344277 -0.0292658
0.139638 -0.0883244 -0.0750818
-0.154306 -0.108145 -0.0919307
-0.388721 -0.0862425 -0.0733121
-0.47316 -0.031068 -0.0264103
-0.374943 0.0360273 0.0306109
-0.127126 0.0860769 0.0727249
0.0845086 0.164054 0.0526634
0.220922 0.132407 0.0425045
0.272102 0.049677 0.015947
0.218303 -0.0522192 -0.016763
0.080281 -0.133969 -0.0430057
-0.0887138 -0.164032 -0.0526565
-0.223482 -0.130811 -0.041992
-0.272029 -0.0471217 -0.0151267
-0.215626 0.0547474 0.0175746
-0.076032 0.135495 0.0434955
0 0.401951 0
0 0.324413 0
0 0.121714 0
0 -0.127943 0
0 -0.328238 0
0 -0.401897 0
0 -0.320501 0
0 -0.115453 0
0 0.134137 0
0 0.331976 0
-0.0529298 0.246875 0.205785
-0.138369 0.199252 0.166088
-0.170424 0.0747559 0.0623135
-0.136728 -0.0785814 -0.0655023
-0.050282 -0.201601 -0.168047
0.0555636 -0.246842 -0.205758
0.139972 -0.196849 -0.164086
0.170379 -0.0709106 -0.0591082
0.135052 0.082386 0.0686737
0.0476207 0.203897 0.169961
-0.085439 -0.00344669 0.332177
-0.223354 -0.00278181 0.268099
-0.275097 -0.00104369 0.100586
-0.220706 0.0010971 -0.105733
-0.0811648 0.00281461 -0.27126
0.0896904 0.00344623 -0.332133
0.225942 0.00274827 -0.264866
0.275024 0.000990001 -0.095412
0.217999 -0.00115021 0.110853
0.076869 -0.00284667 0.274349
-0.0849851 -0.252439 0.330412
-0.222167 -0.203742 0.266674
-0.273636 -0.0764406 0.100052
-0.219534 0.0803523 -0.105172
-0.0807336 0.206145 -0.269819
0.0892139 0.252405 -0.330368
0.224742 0.201286 -0.263459
0.273563 0.0725086 -0.0949052
0.216841 -0.0842427 0.110264
0.0764606 -0.208493 0.272892
-0.0517433 -0.404038 0.201172
-0.135267 -0.326097 0.162365
-0.166604 -0.122346 0.0609167
-0.133663 0.128607 -0.064034
-0.0491548 0.329943 -0.16428
0.0543181 0.403984 -0.201145
0.136835 0.322165 -0.160407
0.166559 0.116053 -0.0577832
0.132024 -0.134834 0.0671343
0.0465532 -0.3337 0.166151
0.00146137 -0.399756 -0.00568164
0.0038203 -0.322642 -0.00458563
0.00470533 -0.12105 -0.00172045
0.00377501 0.127244 0.00180849
0.00138826 0.326446 0.0046397
-0.00153409 0.399703 0.00568088
-0.00386457 0.318751 0.00453033
-0.00470408 0.114823 0.00163195
-0.00372872 -0.133405 -0.00189605
-0.00131479 -0.330164 -0.00469254
0.0541023 -0.241246 -0.210343
0.141434 -0.194709 -0.169767
0.174199 -0.0730514 -0.0636938
0.139757 0.0767896 0.0669532
0.0513957 0.197005 0.171769
-0.0567944 0.241214 0.210315
-0.143073 0.192361 0.16772
-0.174153 0.0692937 0.0604175
-0.138043 -0.0805075 -0.0701949
-0.0486755 -0.199248 -0.173726
0.0858701 0.0103392 -0.333853
0.224481 0.00834477 -0.269452
0.276485 0.00313081 -0.101094
0.22182 -0.00329103 0.106267
0.0815744 -0.00844317 0.272629
-0.090143 -0.0103379 0.333809
-0.227083 -0.00824415 0.266203
-0.276412 -0.00296977 0.0958935
-0.2191 0.00345037 -0.111412
-0.0772569 0.00853933 -0.275734
0.0845086 0.257935 -0.32856
0.220922 0.208178 -0.265179
0.272102 0.078105 -0.0994908
0.218303 -0.0821019 0.104582
0.080281 -0.210633 0.268306
-0.0887138 -0.257901 0.328516
-0.223482 -0.205668 0.261982
-0.272029 -0.0740874 0.0943731
-0.215626 0.0860769 -0.109646
-0.076032 0.213032 -0.271362
0.0505431 0.406018 -0.196506
0.132129 0.327696 -0.158599
0.162739 0.122946 -0.0595037
0.130563 -0.129237 0.0625486
0.0480146 -0.33156 0.160469
-0.0530581 -0.405964 0.19648
-0.133661 -0.323744 0.156687
-0.162696 -0.116622 0.0564429
-0.128962 0.135495 -0.065577
-0.0454734 0.335336 -0.162297
