# vtk DataFile Version 3.0
Velocity field
ASCII
DATASET STRUCTURED_POINTS
DIMENSIONS 10 10 10
SPACING 0.631579 0.631579 0.631579
ORIGIN 0 0 0
POINT_DATA 1000
VECTORS velocity float
0 0.434724 0
0 0.350864 0
0 0.131638 0
0 -0.138375 0
0 -0.355002 0
0 -0.434667 0
0 -0.346634 0
0 -0.124867 0
0 0.145074 0
0 0.359045 0
0 0.267004 0.34053
0 0.215498 0.285617
0 0.0808513 0.107159
0 -0.0849887 -0.112642
0 -0.218039 -0.288985
0 -0.266969 -0.353835
0 -0.2129 -0.282173
0 -0.0766924 -0.101646
0 0.0891035 0.118096
0 0.220523 0.281248
0 -0.00372772 0.549681
0 -0.00300863 0.461041
0 -0.00112879 0.172975
0 0.00118655 -0.181826
0 0.00304411 -0.466477
0 0.00372722 -0.571158
0 0.00297235 -0.455481
0 0.00107072 -0.164077
0 -0.001244 0.19063
0 -0.00307878 0.453989
0 -0.273022 0.546761
0 -0.220355 0.458592
0 -0.0826734 0.172056
0 0.086904 -0.18086
0 0.222953 -0.463999
0 0.272985 -0.568124
0 0.217698 -0.453062
0 0.0784208 -0.163205
0 -0.0911116 0.189617
0 -0.225492 0.451577
0 -0.436982 0.332896
0 -0.352686 0.279214
0 -0.132322 0.104756
0 0.139093 -0.110117
0 0.356845 -0.282507
0 0.436924 -0.345903
0 0.348434 -0.275848
0 0.125515 -0.0993679
0 -0.145828 0.115449
0 -0.360909 0.274944
0 -0.432351 -0.00940188
0 -0.348949 -0.00788575
0 -0.13092 -0.00295861
0 0.137619 0.00311
0 0.353064 0.00797875
0 0.432294 0.00976923
0 0.344741 0.00779067
0 0.124185 0.00280641
0 -0.144282 -0.00326058
0 -0.357085 -0.00776514
0 -0.260916 -0.348073
0 -0.210585 -0.291943
0 -0.0790078 -0.109532
0 0.0830508 0.115137
0 0.213068 0.295386
0 0.260882 0.361673
0 0.208045 0.288423
0 0.0749437 0.103898
0 -0.0870719 -0.120712
0 -0.215494 -0.287478
0 0.0111823 -0.552455
0 0.00902517 -0.463367
0 0.00338609 -0.173848
0 -0.00355937 0.182744
0 -0.0091316 0.468831
0 -0.0111808 0.57404
0 -0.00891635 0.45778
0 -0.00321192 0.164905
0 0.0037317 -0.191592
0 0.0092356 -0.45628
0 0.278966 -0.543695
0 0.225153 -0.45602
0 0.0844735 -0.171091
0 -0.0887962 0.179846
0 -0.227808 0.461398
0 -0.278929 0.564938
0 -0.222438 0.450522
0 -0.0801282 0.16229
0 0.0930954 -0.188554
0 0.230402 -0.449046
0 0.439123 -0.325174
0 0.354415 -0.262447
0 0.13297 -0.0984657
0 -0.139775 0.103504
0 -0.358594 0.265542
0 -0.439065 0.325131
0 -0.350141 0.259282
0 -0.126131 0.0934007
0 0.146542 -0.108516
0 0.362678 -0.268566
0 0.350864 0
0 0.297912 0
0 0.111772 0
0 -0.117491 0
0 -0.301425 0
0 -0.369067 0
0 -0.29432 0
0 -0.106022 0
0 0.12318 0
0 0.289783 0
0.0495126 0.215498 0.376871
0.134125 0.180193 0.31512
0.16524 0.0676597 0.118325
0.132569 -0.0711244 -0.124384
0.0487525 -0.18247 -0.319109
-0.0538737 -0.223418 -0.390718
-0.135715 -0.178169 -0.311586
-0.165196 -0.0641832 -0.112245
-0.130912 0.0744455 0.130188
-0.0445462 0.177983 0.311263
0.0799228 -0.00300863 0.608342
0.216503 -0.00250764 0.508665
0.266728 -0.000941509 0.190999
0.213993 0.000989721 -0.20078
0.0786962 0.00253914 -0.515102
-0.0869625 0.00310893 -0.630695
-0.21907 0.00247929 -0.502961
-0.266657 0.000893128 -0.181185
-0.211317 -0.00103609 0.210148
-0.0719061 -0.00248487 0.502438
0.0794983 -0.220355 0.60511
0.215353 -0.184031 0.505962
0.265311 -0.0690997 0.189984
0.212856 0.0726384 -0.199713
0.0782781 0.186355 -0.512365
-0.0865007 0.228173 -0.627345
-0.217906 0.181961 -0.500288
-0.265241 0.0655493 -0.180223
-0.210195 -0.076032 0.209032
-0.0715242 -0.181994 0.499769
0.0484027 -0.352686 0.368423
0.131118 -0.294548 0.308055
0.161535 -0.110597 0.115672
0.129598 0.11626 -0.121596
0.0476596 0.298266 -0.311955
-0.0526659 0.3652 -0.381959
-0.132672 0.291237 -0.304601
-0.161492 0.104914 -0.109729
-0.127977 -0.121692 0.127269
-0.0435476 -0.291288 0.304285
-0.00136702 -0.348949 -0.0104052
-0.00370312 -0.291427 -0.00870031
-0.0045622 -0.109425 -0.0032669
-0.00366017 0.115028 0.00343419
-0.00134604 0.295106 0.00881044
0.00148742 0.36133 0.0107876
0.00374703 0.288151 0.00860277
0.00456099 0.103802 0.00309904
0.00361443 -0.120403 -0.00359442
0.0012299 -0.288202 -0.00859383
-0.0506093 -0.210585 -0.385219
-0.137096 -0.17587 -0.3221
-0.1689 -0.0660359 -0.120946
-0.135506 0.0694174 0.127139
-0.0498325 0.178091 0.326176
0.0550668 0.218056 0.399373
0.138721 0.173894 0.318489
0.168855 0.0626429 0.114731
0.133812 -0.072661 -0.133071
0.0455329 -0.173925 -0.318157
-0.0803261 0.00902517 -0.611412
-0.217595 0.00753465 -0.511228
-0.268073 0.00282906 -0.191961
-0.215072 -0.00297392 0.201792
-0.0790929 -0.00762964 0.517699
0.0874007 -0.00934177 0.633875
0.220174 -0.0074498 0.505496
0.268002 -0.0026837 0.182098
0.212382 0.00311298 -0.211207
0.072269 0.00745401 -0.504974
-0.0790526 0.225153 -0.601718
-0.214058 0.187848 -0.502929
-0.263716 0.0705307 -0.188843
-0.211575 -0.0741422 0.198513
-0.0778071 -0.190212 0.509287
0.0859802 -0.232897 0.623574
0.216596 -0.185729 0.497281
0.263646 -0.0669064 0.17914
0.208931 0.077612 -0.207781
0.0711232 0.185957 -0.496967
-0.0472799 0.354415 -0.359877
-0.123599 0.286047 -0.290455
-0.152232 0.10732 -0.108974
-0.122134 -0.112812 0.11455
-0.0449147 -0.28942 0.29388
0.0496326 -0.354368 0.359829
0.125031 -0.282598 0.286953
0.152192 -0.1018 0.103368
0.120636 0.118274 -0.120096
0.0425375 0.292716 -0.297227
0 0.131638 0
0 0.111772 0
0 0.0419348 0
0 -0.0440808 0
0 -0.11309 0
0 -0.138468 0
0 -0.110424 0
0 -0.0397778 0
0 0.046215 0
0 0.108722 0
0.0799228 0.0808513 0.267812
0.216503 0.0676597 0.223852
0.266728 0.0254059 0.0840543
0.213993 -0.0267069 -0.0883585
0.0786962 -0.0685169 -0.226685
-0.0869625 -0.0838924 -0.277555
-0.21907 -0.0669018 -0.221342
-0.266657 -0.0241006 -0.079736
-0.211317 0.0279523 0.0924816
-0.0719061 0.0667762 0.22119
0.129011 -0.00112879 0.4323
0.349478 -0.000941509 0.36134
0.430553 -0.000353506 0.13568
0.345427 0.000371605 -0.142628
0.127031 0.000953358 -0.365913
-0.140374 0.0011673 -0.448027
-0.35362 0.000930889 -0.357288
-0.430438 0.00033534 -0.128709
-0.341107 -0.000388999 0.149283
-0.11607 -0.00093228 0.357043
0.128325 -0.0826734 0.430004
0.347622 -0.0690997 0.35942
0.428265 -0.0259462 0.134959
0.343592 0.0272749 -0.14187
0.126356 0.0699741 -0.363969
-0.139628 0.0856771 -0.445647
-0.351742 0.0683248 -0.355389
-0.428151 0.0246131 -0.128025
-0.339294 -0.0285477 0.14849
-0.115454 -0.068281 0.355146
0.0781312 -0.132322 0.261809
0.211649 -0.110597 0.218834
0.26075 -0.041528 0.08217
0.209196 0.0436547 -0.0863784
0.0769318 0.111996 -0.221603
-0.0850129 0.137129 -0.271333
-0.214159 0.109356 -0.216381
-0.260681 0.0393944 -0.0779483
-0.20658 -0.0456917 0.0904084
-0.0702943 -0.109286 0.216232
-0.00220663 -0.13092 -0.00739418
-0.00597755 -0.109425 -0.00618047
-0.00736425 -0.0410879 -0.0023207
-0.00590824 0.0431922 0.00243955
-0.00217276 0.110809 0.00625871
0.00240099 0.135676 0.00766319
0.00604841 0.108198 0.00611113
0.00736229 0.0389769 0.00220146
0.00583441 -0.0452075 -0.00255337
0.0019853 -0.108128 -0.00610695
-0.0816932 -0.0790078 -0.273744
-0.221299 -0.0660359 -0.228811
-0.272637 -0.0247959 -0.0859165
-0.218733 0.0260656 0.0903159
-0.0804391 0.0668715 0.231707
0.0888884 0.0818779 0.283703
0.223922 0.0652954 0.226244
0.272565 0.0235219 0.0815017
0.215999 -0.0272819 -0.0945302
0.0734989 -0.0652536 -0.226089
-0.129662 0.00338609 -0.434482
-0.351239 0.00282906 -0.363162
-0.432723 0.00106227 -0.136364
-0.347168 -0.00111666 0.143347
-0.127671 -0.00286481 0.367758
0.141081 -0.00350769 0.450285
0.355402 -0.00279728 0.359088
0.432608 -0.00100769 0.129358
0.342827 0.00116881 -0.150035
0.116656 0.00279662 -0.358845
-0.127606 0.0844735 -0.427593
-0.345532 0.0705306 -0.357265
-0.425688 0.0264826 -0.134148
-0.341524 -0.0278387 0.141018
-0.125595 -0.0714204 0.361782
0.138788 -0.0874476 0.442968
0.349627 -0.0697369 0.353254
0.425575 -0.0251219 0.127256
0.337255 0.0291399 -0.147602
0.114807 0.0697677 -0.353155
-0.0763189 0.13297 -0.255736
-0.199512 0.10732 -0.206403
-0.245732 0.0402646 -0.0774391
-0.197147 -0.0423251 0.0814019
-0.072501 -0.108585 0.208837
0.0801165 -0.132953 0.255702
0.201824 -0.106026 0.203915
0.245667 -0.0381935 0.0734557
0.194729 0.0443743 -0.085343
0.0686637 0.109822 -0.211216
0 -0.138375 0
0 -0.117491 0
0 -0.0440808 0
0 0.0463365 0
0 0.118877 0
0 0.145554 0
0 0.116075 0
0 0.0418133 0
0 -0.04858 0
0 -0.114285 0
0.0794983 -0.0849887 0.0554297
0.215353 -0.0711244 0.0463307
0.265311 -0.0267069 0.0173967
0.212856 0.0280746 -0.0182875
0.078278 0.0720258 -0.0469171
-0.0865007 0.0881885 -0.0574455
-0.217906 0.0703278 -0.0458109
-0.265241 0.0253348 -0.0165028
-0.210195 -0.0293836 0.0191409
-0.0715242 -0.0701933 0.0457801
0.128325 0.00118655 0.0894741
0.347622 0.000989721 0.0747863
0.428265 0.000371605 0.0280816
0.343592 -0.000390636 -0.0295196
0.126356 -0.00100217 -0.075733
-0.139628 -0.00122708 -0.0927281
-0.351742 -0.000978557 -0.0739475
-0.428151 -0.000352509 -0.0266387
-0.339294 0.000408917 0.0308971
-0.115454 0.000979987 0.0738979
0.127644 0.086904 0.0889988
0.345775 0.0726384 0.0743889
0.425989 0.0272749 0.0279324
0.341766 -0.0286717 -0.0293628
0.125684 -0.0735573 -0.0753305
-0.138886 -0.0900641 -0.0922353
-0.349874 -0.0718238 -0.0735548
-0.425876 -0.0258735 -0.0264972
-0.337492 0.0300095 0.030733
-0.11484 0.0717752 0.0735054
0.0777162 0.139093 0.0541871
0.210525 0.11626 0.0452919
0.259365 0.0436547 0.0170067
0.208084 -0.04589 -0.0178776
0.0765232 -0.117731 -0.0458651
-0.0845612 -0.144152 -0.0561576
-0.213021 -0.114957 -0.044784
-0.259296 -0.0414116 -0.0161329
-0.205483 0.0480314 0.0187118
-0.0699208 0.114879 0.0447539
-0.00219491 0.137619 -0.00153039
-0.00594579 0.115028 -0.00127916
-0.00732512 0.0431922 -0.000480315
-0.00587689 -0.0454038 0.000504913
-0.00216122 -0.116484 0.00129536
0.00238823 -0.142624 0.00158604
0.00601629 -0.113738 0.00126482
0.00732317 -0.0409727 0.000455636
0.0058034 0.0475224 -0.000528471
0.00197475 0.113662 -0.00126397
-0.0812592 0.0830508 -0.0566575
-0.220123 0.0694174 -0.0473568
-0.271188 0.0260656 -0.0177821
-0.217571 -0.0274004 0.0186926
-0.080012 -0.070296 0.0479561
0.0884162 -0.0860712 0.0587178
0.222733 -0.0686391 0.0468259
0.271116 -0.0247263 0.0168684
0.214851 0.028679 -0.0195649
0.0731085 0.0685928 -0.0467942
-0.128973 -0.00355937 -0.0899257
-0.349374 -0.00297392 -0.0751632
-0.430424 -0.00111666 -0.0282231
-0.345324 0.00117384 0.0296684
-0.126993 0.00301151 0.0761146
0.140332 0.00368731 0.0931956
0.353514 0.00294053 0.0743202
0.43031 0.00105929 0.0267731
0.341005 -0.00122866 -0.0310528
0.116036 -0.00293973 -0.0742709
-0.126928 -0.0887962 -0.0884999
-0.343696 -0.0741421 -0.0739432
-0.423426 -0.0278387 -0.0277645
-0.339709 0.0292642 0.0291863
-0.124928 0.0750775 0.0748778
0.138051 0.0919254 0.0916809
0.34777 0.0733079 0.0731129
0.423314 0.0264082 0.026338
0.335463 -0.0306321 -0.0305492
0.114197 -0.073338 -0.0730933
-0.0759135 -0.139775 -0.0529302
-0.198452 -0.112812 -0.0427198
-0.244427 -0.0423251 -0.0160277
-0.1961 0.044491 0.0168479
-0.0721158 0.114142 0.0432235
0.0796909 0.139756 0.0529232
0.200752 0.111452 0.0422046
0.244362 0.0401479 0.0152033
0.193695 -0.0466451 -0.0176636
0.0682989 -0.115442 -0.0437158
0 -0.355002 0
0 -0.301425 0
0 -0.11309 0
0 0.118877 0
0 0.30498 0
0 0.373419 0
0 0.297791 0
0 0.107272 0
0 -0.124632 0
0 -0.293201 0
0.0484027 -0.218039 -0.178338
0.131118 -0.18247 -0.149062
0.161535 -0.0685169 -0.0559716
0.129598 0.0720258 0.0588378
0.0476596 0.184782 0.150949
-0.0526659 0.226248 0.184823
-0.132672 0.180427 0.147391
-0.161492 0.0649966 0.0530958
-0.127977 -0.075384 -0.0615834
-0.0435476 -0.180082 -0.147292
0.0781312 0.00304411 -0.287872
0.211649 0.00253914 -0.240615
0.26075 0.000953357 -0.0903489
0.209196 -0.00100217 0.0949756
0.0769318 -0.00257109 0.243661
-0.0850129 -0.00314809 0.298339
-0.214159 -0.00251048 0.237917
-0.260681 -0.000904367 0.0857071
-0.20658 0.00104908 -0.0994073
-0.0702943 0.00251417 -0.237757
0.0777162 0.222953 -0.286343
0.210525 0.186355 -0.239338
0.259365 0.0699741 -0.0898689
0.208084 -0.0735573 0.0944713
0.0765232 -0.188713 0.242366
-0.0845612 -0.231061 0.296754
-0.213021 -0.184264 0.236653
-0.259296 -0.0663788 0.0852516
-0.205483 0.0769896 -0.0988791
-0.0699208 0.18414 -0.236494
0.0473177 0.356845 -0.17434
0.128179 0.298266 -0.145722
0.157915 0.111996 -0.0547169
0.126693 -0.117731 0.0575191
0.0465915 -0.302041 0.147565
-0.0514852 -0.369822 0.18068
-0.129699 -0.294921 0.144088
-0.157873 -0.106242 0.0519056
-0.125109 0.123225 -0.0602028
-0.0425714 0.294723 -0.14399
-0.00133638 0.353064 0.00492384
-0.00362012 0.295106 0.00411556
-0.00445992 0.110809 0.00154536
-0.00357813 -0.116484 -0.00162448
-0.00131586 -0.29884 -0.00416763
0.00145409 -0.365902 -0.00510286
0.00366302 -0.291797 -0.00406941
0.00445874 -0.105116 -0.00146596
0.0035334 0.121919 0.00170029
0.00120233 0.2916 0.00406666
-0.0494748 0.213068 0.182288
-0.134022 0.178091 0.152364
-0.165113 0.0668715 0.0572115
-0.132468 -0.070296 -0.0601411
-0.0487153 -0.180345 -0.154293
0.0538326 -0.220816 -0.188917
0.135611 -0.176094 -0.150656
0.16507 -0.0634358 -0.054272
0.130812 0.0735761 0.0629474
0.0445122 0.175976 0.150554
-0.0785255 -0.0091316 0.289325
-0.212716 -0.00762964 0.241828
-0.262065 -0.00286481 0.0908043
-0.21025 0.00301151 -0.0954542
-0.0773196 0.00772606 -0.24489
0.0854416 0.00945985 -0.299843
0.215239 0.00754396 -0.239117
0.261995 0.00271762 -0.0861391
0.207622 -0.00315214 0.0999085
0.070649 -0.00754191 0.238957
-0.0772805 -0.227808 0.284737
-0.20926 -0.190212 0.237903
-0.257805 -0.0714204 0.0893289
-0.206832 0.0750775 -0.0939037
-0.0760628 0.192612 -0.24091
0.0840525 0.235836 -0.294972
0.21174 0.188073 -0.235231
0.257736 0.0677505 -0.0847391
0.204248 -0.0785867 0.0982877
0.0695288 -0.188149 0.235169
-0.0462201 -0.358594 0.170296
-0.120828 -0.28942 0.137445
-0.14882 -0.108585 0.0515672
-0.119396 0.114142 -0.0542061
-0.0439079 0.292833 -0.139066
0.04852 0.358546 -0.170274
0.122228 0.28593 -0.135788
0.14878 0.103 -0.0489147
0.117932 -0.119668 0.0568305
0.041584 -0.296168 0.14065
0 -0.434667 0
0 -0.369067 0
0 -0.138468 0
0 0.145554 0
0 0.373419 0
0 0.457217 0
0 0.364617 0
0 0.131345 0
0 -0.152601 0
0 -0.358997 0
-0.00136702 -0.266969 -0.343302
-0.00370312 -0.223418 -0.286947
-0.0045622 -0.0838924 -0.107746
-0.00366017 0.0881885 0.113263
-0.00134604 0.226248 0.290579
0.00148742 0.27702 0.355785
0.00374703 0.220915 0.283729
0.00456099 0.0795824 0.10221
0.00361443 -0.0923007 -0.118548
0.0012299 -0.220493 -0.283538
-0.00220663 0.00372722 -0.554155
-0.00597755 0.00310893 -0.463187
-0.00736425 0.0011673 -0.173923
-0.00590824 -0.00122708 0.182828
-0.00217276 -0.00314809 0.469048
0.00240099 -0.00385453 0.574308
0.00604841 -0.00307386 0.457993
0.00736229 -0.00110731 0.164986
0.00583441 0.0012845 -0.191359
0.0019853 0.00307836 -0.457684
-0.00219491 0.272985 -0.551211
-0.00594579 0.228173 -0.460727
-0.00732512 0.0856771 -0.172999
-0.00587689 -0.0900641 0.181857
-0.00216122 -0.231061 0.466556
0.00238823 -0.282912 0.571256
0.00601629 -0.225614 0.455559
0.00732317 -0.0812746 0.164109
0.0058034 0.0942669 -0.190343
0.00197475 0.225462 -0.455253
-0.00133638 0.436924 -0.335606
-0.00362012 0.3652 -0.280514
-0.00445992 0.137129 -0.10533
-0.00357813 -0.144152 0.110724
-0.00131586 -0.369822 0.284064
0.00145409 -0.452811 0.347811
0.00366302 -0.361104 0.277368
0.00445874 -0.130084 0.0999186
0.0035334 0.150877 -0.115891
0.00120233 0.360861 -0.277182
3.77428e-05 0.432294 0.00947841
0.000102241 0.36133 0.00792246
0.000125961 0.135676 0.00297479
0.000101056 -0.142624 -0.00312716
3.71634e-05 -0.365902 -0.00802271
-4.10668e-05 -0.448013 -0.00982308
-0.000103455 -0.357277 -0.00783364
-0.000125927 -0.128705 -0.00282196
-9.97927e-05 0.149279 0.00327306
-3.3957e-05 0.357037 0.00782835
0.0013973 0.260882 0.350906
0.00378514 0.218056 0.293302
0.00466325 0.0818779 0.110132
0.00374127 -0.0860712 -0.115772
0.00137585 -0.220816 -0.297013
-0.00152037 -0.270368 -0.363666
-0.00383004 -0.215611 -0.290014
-0.00466201 -0.0776712 -0.104474
-0.00369449 0.0900871 0.121174
-0.00125714 0.215466 0.289818
0.00221777 -0.0111808 0.556951
0.00600769 -0.00934177 0.465521
0.00740139 -0.00350769 0.174799
0.00593801 0.00368731 -0.18375
0.00218371 0.00945985 -0.471412
-0.00241309 0.0115827 -0.577204
-0.00607889 0.00923684 -0.460302
-0.00739942 0.00332746 -0.165818
-0.00586381 -0.0038595 0.192324
-0.00199532 -0.00923436 0.459994
0.00218261 -0.278929 0.548121
0.00591007 -0.232897 0.457964
0.00728106 -0.0874476 0.171959
0.00584154 0.0919254 -0.180764
0.00214822 0.235836 -0.463753
-0.00237386 0.28876 -0.567823
-0.00598008 0.230277 -0.452821
-0.00727913 0.0829543 -0.163123
-0.00576849 -0.0962222 0.189205
-0.00196368 -0.230371 0.452701
0.00130538 -0.439065 0.327821
0.00341251 -0.354368 0.264583
0.00420307 -0.132953 0.0992671
0.00337205 0.139756 -0.104347
0.00124008 0.358546 -0.267703
-0.00137033 0.439007 -0.327778
-0.00345206 0.350095 -0.261393
-0.00420195 0.126114 -0.094161
-0.0033307 -0.146523 0.109399
-0.00117444 -0.36263 0.270752
0 -0.346634 0
0 -0.29432 0
0 -0.110424 0
0 0.116075 0
0 0.297791 0
0 0.364617 0
0 0.290771 0
0 0.104744 0
0 -0.121695 0
0 -0.286289 0
-0.0506093 -0.2129 -0.375817
-0.137096 -0.178169 -0.314124
-0.1689 -0.0669018 -0.11795
-0.135506 0.0703278 0.123991
-0.0498325 0.180427 0.318101
0.0550668 0.220915 0.389483
0.138721 0.176174 0.310601
0.168855 0.0634645 0.11189
0.133812 -0.0736071 -0.129776
0.0455329 -0.175837 -0.310392
-0.0816932 0.00297235 -0.606641
-0.221299 0.00247929 -0.507057
-0.272637 0.000930888 -0.190395
-0.218733 -0.000978557 0.200145
-0.080439 -0.00251048 0.513474
0.0888884 -0.00307386 0.628702
0.223922 -0.00245133 0.50137
0.272565 -0.000883056 0.180612
0.215999 0.00102435 -0.209484
0.0734989 0.0024549 -0.501033
-0.0812592 0.217698 -0.603418
-0.220123 0.181961 -0.504363
-0.271188 0.0683248 -0.189383
-0.217571 -0.0718238 0.199082
-0.080012 -0.184264 0.510746
0.0884161 -0.225614 0.625362
0.222733 -0.17992 0.498707
0.271116 -0.0648144 0.179653
0.214851 0.0751748 -0.208371
0.0731085 0.179799 -0.498371
-0.0494748 0.348434 -0.367392
-0.134022 0.291237 -0.307082
-0.165113 0.109356 -0.115307
-0.132468 -0.114957 0.121211
-0.0487153 -0.294921 0.310969
0.0538326 -0.361104 0.380752
0.135611 -0.287971 0.303639
0.16507 -0.103738 0.109382
0.130813 0.12032 -0.126867
0.0445122 0.287776 -0.303434
0.0013973 0.344741 0.0103761
0.00378514 0.288151 0.00867283
0.00466325 0.108198 0.00325655
0.00374127 -0.113738 -0.00342333
0.00137585 -0.291797 -0.00878257
-0.00152037 -0.357277 -0.0107535
-0.00383004 -0.284919 -0.00857559
-0.00466201 -0.102638 -0.00308924
-0.00369449 0.119045 0.00358306
-0.00125714 0.284727 0.0085698
0.0517303 0.208045 0.384141
0.140132 0.173894 0.321083
0.172642 0.0652954 0.120563
0.138508 -0.0686391 -0.126737
0.0509363 -0.176094 -0.325144
-0.0562867 -0.215611 -0.39811
-0.141794 -0.171944 -0.317483
-0.172596 -0.0619405 -0.114369
-0.136776 0.0718419 0.132651
-0.0465415 0.171827 0.317268
0.0821054 -0.00891635 0.609702
0.222414 -0.0074498 0.509612
0.274011 -0.00279728 0.191354
0.219835 0.00294053 -0.201154
0.0808444 0.00754396 -0.516062
-0.0893365 0.00923684 -0.631872
-0.225051 0.0073661 -0.503897
-0.273939 0.00265355 -0.181523
-0.217087 -0.00307783 0.21054
-0.0738698 -0.00736413 0.503561
0.0808036 -0.222438 0.600035
0.2188 -0.185729 0.501339
0.269557 -0.0697369 0.188246
0.216263 0.0733079 -0.197885
0.0795308 0.188073 -0.507677
-0.0878843 0.230277 -0.621603
-0.221393 0.183639 -0.495709
-0.269485 0.0661536 -0.178573
-0.213559 -0.0767343 0.207124
-0.0726986 -0.183714 0.495577
0.0483272 -0.350141 0.35887
0.126337 -0.282598 0.289643
0.155604 -0.106026 0.108669
0.124839 0.111452 -0.11423
0.0459096 0.28593 -0.293058
-0.050732 0.350095 -0.358823
-0.127801 0.27919 -0.28615
-0.155563 0.100572 -0.103079
-0.123308 -0.116848 0.119761
-0.0434797 -0.289187 0.296396
0 -0.124867 0
0 -0.106022 0
0 -0.0397778 0
0 0.0418133 0
0 0.107272 0
0 0.131345 0
0 0.104744 0
0 0.0377316 0
0 -0.0438377 0
0 -0.103129 0
-0.0803261 -0.0766924 -0.263339
-0.217595 -0.0641832 -0.220111
-0.268073 -0.0241006 -0.0826498
-0.215072 0.0253348 0.0868827
-0.0790929 0.0649967 0.222897
0.0874007 0.0795825 0.272917
0.220174 0.0634645 0.217644
0.268002 0.0228623 0.0784035
0.212382 -0.026516 -0.0909362
0.072269 -0.0633413 -0.217495
-0.129662 0.00107072 -0.42508
-0.351239 0.000893128 -0.355302
-0.432723 0.000335341 -0.133413
-0.347168 -0.000352509 0.140245
-0.127671 -0.000904368 0.359799
0.141081 -0.00110731 0.44054
0.355402 -0.000883057 0.351318
0.432608 -0.00031811 0.126558
0.342827 0.00036901 -0.146789
0.116656 0.000884324 -0.351079
-0.128973 0.0784208 -0.422822
-0.349374 0.0655494 -0.353414
-0.430424 0.0246131 -0.132704
-0.345324 -0.0258736 0.1395
-0.126993 -0.0663788 0.357888
0.140332 -0.0812746 0.4382
0.353514 -0.0648144 0.349452
0.43031 -0.0233486 0.125886
0.341005 0.0270808 -0.146009
0.116036 0.0647687 -0.349214
-0.0785255 0.125515 -0.257436
-0.212716 0.104914 -0.215178
-0.262065 0.0393944 -0.080797
-0.21025 -0.0414117 0.0849347
-0.0773196 -0.106242 0.217901
0.0854416 -0.130084 0.266799
0.215239 -0.103738 0.212764
0.261995 -0.0373702 0.0766458
0.207622 0.043344 -0.0888977
0.070649 0.103665 -0.21262
0.00221777 0.124185 0.00727068
0.00600769 0.103802 0.00607718
0.00740139 0.0389769 0.00228193
0.00593801 -0.0409728 -0.00239878
0.00218371 -0.105116 -0.00615408
-0.00241309 -0.128705 -0.00753511
-0.00607889 -0.102638 -0.00600903
-0.00739942 -0.0369742 -0.00216469
-0.00586381 0.0428847 0.00251072
-0.00199532 0.102566 0.00600495
0.0821054 0.0749437 0.269172
0.222414 0.062643 0.224988
0.274011 0.0235219 0.0844806
0.219835 -0.0247264 -0.0888066
0.0808444 -0.0634359 -0.227834
-0.0893365 -0.0776713 -0.278962
-0.225051 -0.0619405 -0.222464
-0.273939 -0.0223133 -0.0801403
-0.217087 0.0258801 0.0929507
-0.0738698 0.061897 0.222313
0.130316 -0.00321192 0.427225
0.353009 -0.0026837 0.357093
0.434904 -0.00100769 0.134085
0.348917 0.00105929 -0.140952
0.128314 0.00271762 -0.361613
-0.141793 0.00332747 -0.442761
-0.357194 0.00265355 -0.353088
-0.434788 0.00095591 -0.127196
-0.344555 -0.00110875 0.147529
-0.117245 -0.00265276 0.352851
0.12825 -0.0801282 0.420451
0.347274 -0.0669065 0.351296
0.427835 -0.0251219 0.131907
0.343246 0.0264082 -0.138661
0.126229 0.0677506 -0.355737
-0.139488 0.0829544 -0.435567
-0.351388 0.0661537 -0.347353
-0.427721 0.023831 -0.125129
-0.338954 -0.0276425 0.145136
-0.115386 -0.066179 0.347257
0.076704 -0.126131 0.251464
0.200519 -0.1018 0.202956
0.246972 -0.0381935 0.0761456
0.198142 0.0401479 -0.0800423
0.0728668 0.103 -0.205349
-0.0805208 0.126114 -0.251431
-0.202843 0.100572 -0.200509
-0.246907 0.0362288 -0.0722288
-0.195712 -0.0420917 0.0839176
-0.0690102 -0.104173 0.207688
0 0.145074 0
0 0.12318 0
0 0.046215 0
0 -0.0485799 0
0 -0.124632 0
0 -0.152601 0
0 -0.121695 0
0 -0.0438377 0
0 0.050932 0
0 0.119819 0
-0.0790526 0.0891035 -0.0492634
-0.214058 0.0744434 -0.0412784
-0.263716 0.0279515 -0.015501
-0.211575 -0.0293828 0.0162949
-0.0778071 -0.0753819 0.0418047
0.0859802 -0.0922981 0.0511859
0.216596 -0.073605 0.0408192
0.263646 -0.0265153 0.0147047
0.208931 0.0307566 -0.0170521
0.0711232 0.0735918 -0.0406873
-0.127606 -0.001244 -0.0795206
-0.345532 -0.00103606 -0.0666313
-0.425688 -0.000388987 -0.0250217
-0.341524 0.000408904 0.0263031
-0.125595 0.00104904 0.0674808
0.138788 0.00128446 0.0826238
0.349627 0.00102432 0.06589
0.425575 0.000368998 0.0237362
0.337255 -0.000428087 -0.0275254
0.114807 -0.00102743 -0.0656772
-0.126928 -0.0911116 -0.0790981
-0.343696 -0.0760297 -0.0662773
-0.423426 -0.0285469 -0.0248887
-0.339709 0.0300086 0.0261633
-0.124928 0.0769873 0.0671223
0.138051 0.094264 0.0821849
0.34777 0.0751726 0.0655402
0.423314 0.02708 0.0236102
0.335463 -0.0314126 -0.0273792
0.114197 -0.0752503 -0.0653283
-0.0772805 -0.145828 -0.0481591
-0.20926 -0.121689 -0.0403531
-0.257805 -0.0456903 -0.0151535
-0.206832 0.0480299 0.0159296
-0.0760628 0.123221 0.0408675
0.0840525 0.150873 0.0500386
0.21174 0.120317 0.0399043
0.257736 0.0433427 0.0143751
0.204248 -0.0502771 -0.0166699
0.0695288 -0.120441 -0.0397752
0.00218261 -0.144282 0.00136014
0.00591007 -0.120399 0.00113968
0.00728106 -0.0452062 0.000427976
0.00584154 0.047521 -0.000449894
0.00214822 0.121916 -0.00115421
-0.00237386 0.149274 -0.00141322
-0.00598008 0.119042 -0.00112701
-0.00727913 0.0428833 -0.00040599
-0.00576849 -0.0497443 0.000470802
-0.00196368 -0.119165 0.00112336
0.0808036 -0.0870719 0.0503546
0.2188 -0.0726589 0.0421928
0.269557 -0.0272811 0.0158444
0.216263 0.0286781 -0.0166558
0.0795308 0.0735739 -0.0427307
-0.0878843 0.0900844 -0.0523197
-0.221393 0.0718398 -0.0417234
-0.269485 0.0258793 -0.0150304
-0.213559 -0.0300198 0.0174299
-0.0726986 -0.0719138 0.0415886
0.12825 0.0037317 0.0799219
0.347274 0.00311289 0.0669672
0.427835 0.00116878 0.0251478
0.343246 -0.00122862 -0.0264356
0.126229 -0.00315205 -0.0678208
-0.139488 -0.00385939 -0.0830403
-0.351388 -0.00307774 -0.0662221
-0.427721 -0.00110872 -0.0238558
-0.338954 0.00128615 0.0276642
-0.115386 0.00308206 0.0660086
0.126217 0.0930954 0.0786547
0.341633 0.0776098 0.0658773
0.420882 0.0291391 0.0247381
0.337668 -0.0306312 -0.026005
0.124177 -0.0785845 -0.066716
-0.137221 -0.0962195 -0.0816875
-0.34568 -0.0767321 -0.0651434
-0.42077 -0.0276417 -0.0234672
-0.333449 0.0320665 0.0272144
-0.113556 0.0768887 0.064962
0.0754879 0.146542 0.047042
0.19734 0.118274 0.0379674
0.243057 0.0443743 0.0142447
0.195 -0.0466451 -0.0149737
0.0717115 -0.119668 -0.0384151
-0.0792442 -0.146523 -0.0470357
-0.199627 -0.116848 -0.0375096
-0.242992 -0.0420917 -0.013512
-0.192609 0.0489035 0.0156986
-0.067916 0.121031 0.0388526
0 0.359045 0
0 0.289784 0
0 0.108722 0
0 -0.114286 0
0 -0.293201 0
0 -0.358997 0
0 -0.286289 0
0 -0.103129 0
0 0.119819 0
0 0.29654 0
-0.0472799 0.220523 0.183819
-0.123599 0.177983 0.148359
-0.152232 0.0667762 0.055662
-0.122133 -0.0701933 -0.0585104
-0.0449147 -0.180082 -0.150109
0.0496325 -0.220493 -0.183794
0.125031 -0.175837 -0.146571
0.152192 -0.0633413 -0.0527988
0.120636 0.0735918 0.0613432
0.0425375 0.182133 0.151819
-0.0763189 -0.00307878 0.296719
-0.199512 -0.00248487 0.239481
-0.245732 -0.00093228 0.0898491
-0.197147 0.000979988 -0.094447
-0.0725009 0.00251417 -0.242305
0.0801165 0.00307836 -0.29668
0.201824 0.0024549 -0.236593
0.245667 0.000884324 -0.0852274
0.194729 -0.00102743 0.0990197
0.0686637 -0.0025428 0.245064
-0.0759135 -0.225492 0.295143
-0.198452 -0.181994 0.238209
-0.244427 -0.0682811 0.0893718
-0.1961 0.0717752 -0.0939453
-0.0721158 0.18414 -0.241018
0.0796909 0.225462 -0.295103
0.200752 0.1798 -0.235336
0.244362 0.0647688 -0.0847746
0.193695 -0.0752503 0.0984937
0.0682989 -0.186237 0.243762
-0.0462201 -0.360909 0.179698
-0.120828 -0.291288 0.145034
-0.14882 -0.109287 0.0544142
-0.119396 0.114879 -0.0571988
-0.0439078 0.294723 -0.146744
0.04852 0.360861 -0.179674
0.122228 0.287776 -0.143285
0.14878 0.103665 -0.0516152
0.117932 -0.120441 0.0599681
0.041584 -0.29808 0.148415
0.00130538 -0.357085 -0.00507516
0.00341251 -0.288202 -0.00409614
0.00420307 -0.108128 -0.0015368
0.00337205 0.113662 0.00161545
0.00124007 0.2916 0.00414444
-0.00137033 0.357037 0.00507448
-0.00345206 0.284727 0.00404675
-0.00420195 0.102566 0.00145775
-0.0033307 -0.119165 -0.00169366
-0.00117444 -0.294921 -0.00419164
0.0483272 -0.215494 -0.187891
0.126337 -0.173925 -0.151646
0.155604 -0.0652536 -0.0568949
0.124839 0.0685928 0.0598064
0.0459096 0.175976 0.153434
-0.0507319 0.215466 0.187866
-0.127801 0.171827 0.149817
-0.155563 0.061897 0.0539683
-0.123308 -0.0719138 -0.062702
-0.0434797 -0.17798 -0.155181
0.076704 0.0092356 -0.298216
0.200519 0.00745401 -0.240689
0.246972 0.00279662 -0.0903025
0.198142 -0.00293973 0.0949236
0.0728668 -0.00754191 0.243528
-0.0805208 -0.00923437 0.298177
-0.202843 -0.00736413 0.237787
-0.246907 -0.00265276 0.0856575
-0.195712 0.00308206 -0.0995194
-0.0690102 0.0076278 -0.246301
0.0754879 0.230402 -0.293488
0.19734 0.185957 -0.236873
0.243057 0.0697678 -0.0888708
0.195 -0.073338 0.0934186
0.0717115 -0.188149 0.239666
-0.0792441 -0.230371 0.293449
-0.199627 -0.183714 0.234017
-0.242992 -0.066179 0.0842994
-0.192609 0.0768888 -0.0979415
-0.067916 0.190292 -0.242396
0.0451479 0.362678 -0.17553
0.118025 0.292716 -0.14167
0.145368 0.109822 -0.053152
0.116626 -0.115442 0.055872
0.0428894 -0.296168 0.14334
-0.0473945 -0.36263 0.175507
-0.119393 -0.289187 0.139961
-0.145329 -0.104173 0.0504179
-0.115196 0.121031 -0.0585771
-0.0406194 0.299541 -0.144973
