# vtk DataFile Version 3.0
Velocity field
ASCII
DATASET STRUCTURED_POINTS
DIMENSIONS 10 10 10
SPACING 0.631579 0.631579 0.631579
ORIGIN 0 0 0
POINT_DATA 1000
VECTORS velocity float
0 0.375627 0
0 0.303167 0
0 0.113743 0
0 -0.119564 0
0 -0.306742 0
0 -0.375577 0
0 -0.299512 0
0 -0.107892 0
0 0.125353 0
0 0.310236 0
0 0.230707 0.294238
0 0.186203 0.24679
0 0.0698603 0.0925913
0 -0.0734352 -0.0973295
0 -0.188399 -0.2497
0 -0.230677 -0.305734
0 -0.183958 -0.243814
0 -0.0662667 -0.0878285
0 0.0769907 0.102042
0 0.190545 0.243015
0 -0.00322097 0.474956
0 -0.00259963 0.398366
0 -0.000975338 0.14946
0 0.00102525 -0.157109
0 0.00263029 -0.403064
0 0.00322054 -0.493514
0 0.00256829 -0.393563
0 0.000925167 -0.141772
0 -0.00107489 0.164715
0 -0.00266024 0.392273
0 -0.235907 0.472433
0 -0.190399 0.39625
0 -0.0714346 0.148666
0 0.0750902 -0.156274
0 0.192645 -0.400923
0 0.235875 -0.490892
0 0.188104 -0.391472
0 0.0677601 -0.141019
0 -0.0787258 0.16384
0 -0.194839 0.390189
0 -0.377578 0.287642
0 -0.304742 0.241257
0 -0.114334 0.0905157
0 0.120185 -0.0951477
0 0.308335 -0.244102
0 0.377528 -0.298881
0 0.301067 -0.238349
0 0.108453 -0.0858597
0 -0.126004 0.0997544
0 -0.311847 0.237567
0 -0.373577 -0.00812378
0 -0.301512 -0.00681375
0 -0.113122 -0.00255641
0 0.118911 0.00268722
0 0.305068 0.0068941
0 0.373527 0.00844118
0 0.297877 0.0067316
0 0.107303 0.00242491
0 -0.124668 -0.00281733
0 -0.308542 -0.00670954
0 -0.225447 -0.300755
0 -0.181957 -0.252256
0 -0.0682673 -0.0946423
0 0.0717608 0.0994854
0 0.184103 0.255231
0 0.225417 0.312506
0 0.179763 0.249215
0 0.0647557 0.0897739
0 -0.0752352 -0.104302
0 -0.1862 -0.248398
0 0.00966214 -0.477353
0 0.00779828 -0.400377
0 0.00292578 -0.150214
0 -0.0030755 0.157901
0 -0.00789024 0.405098
0 -0.00966086 0.496004
0 -0.00770425 0.395549
0 -0.00277528 0.142488
0 0.00322441 -0.165546
0 0.0079801 -0.394253
0 0.241043 -0.469785
0 0.194545 -0.394028
0 0.07299 -0.147833
0 -0.0767251 0.155398
0 -0.196839 0.398675
0 -0.241011 0.48814
0 -0.192199 0.389277
0 -0.0692355 0.140228
0 0.0804399 -0.162922
0 0.199081 -0.388002
0 0.379428 -0.28097
0 0.306235 -0.22677
0 0.114894 -0.0850801
0 -0.120774 0.0894339
0 -0.309846 0.229444
0 -0.379378 0.280932
0 -0.302543 0.224035
0 -0.108984 0.0807037
0 0.126621 -0.093764
0 0.313375 -0.232057
0 0.303167 0
0 0.257414 0
0 0.0965772 0
0 -0.101519 0
0 -0.260449 0
0 -0.318896 0
0 -0.25431 0
0 -0.0916094 0
0 0.106435 0
0 0.25039 0
0.0427818 0.186203 0.325638
0.115306 0.154963 0.270956
0.142046 0.0581746 0.10172
0.113961 -0.0611528 -0.106928
0.0419095 -0.156888 -0.274325
-0.0463119 -0.192095 -0.335886
-0.116665 -0.15319 -0.267858
-0.142009 -0.0551843 -0.0964918
-0.112544 0.0640351 0.111966
-0.0384905 0.153788 0.268949
0.069058 -0.00259963 0.525643
0.186127 -0.00215743 0.437375
0.22929 -0.000809875 0.164196
0.183956 0.000851336 -0.172603
0.06765 0.00218411 -0.442813
-0.0747561 0.00267424 -0.542183
-0.18832 0.00213263 -0.432375
-0.229229 0.000768243 -0.155756
-0.181667 -0.000891569 0.180735
-0.0621311 -0.00214707 0.434136
0.0686911 -0.190399 0.522851
0.185138 -0.158268 0.435052
0.228072 -0.0594146 0.163323
0.182979 0.0624564 -0.171685
0.0672907 0.160233 -0.44046
-0.0743592 0.19619 -0.539303
-0.18732 0.156455 -0.430078
-0.228011 0.0563606 -0.154929
-0.180703 -0.0654021 0.179775
-0.0618011 -0.157253 0.43183
0.0418227 -0.304742 0.318339
0.112722 -0.253314 0.264882
0.138862 -0.0950953 0.09944
0.111407 0.0999639 -0.104531
0.0409698 0.256458 -0.268175
-0.0452736 0.314009 -0.328355
-0.11405 0.250413 -0.261854
-0.138825 0.0902073 -0.0943286
-0.110021 -0.104679 0.109456
-0.0376277 -0.25169 0.26292
-0.00118119 -0.301512 -0.00899073
-0.00318355 -0.25063 -0.00748097
-0.00392183 -0.0940874 -0.00280846
-0.00314642 0.0989048 0.00295223
-0.00115711 0.25374 0.00757398
0.00127864 0.310682 0.00927367
0.00322108 0.24776 0.00739546
0.00392079 0.0892513 0.00266409
0.0031073 -0.103569 -0.00309133
0.00106271 -0.249023 -0.00742557
-0.0437294 -0.181957 -0.332851
-0.117861 -0.151251 -0.276958
-0.145193 -0.0567802 -0.103973
-0.116486 0.0596871 0.109296
-0.0428378 0.153128 0.280401
0.0473374 0.187491 0.343325
0.119249 0.149519 0.273792
0.145154 0.0538616 0.0986291
0.115037 -0.0625022 -0.114446
0.0393431 -0.150281 -0.274907
-0.0694065 0.00779828 -0.528296
-0.187066 0.00648074 -0.43958
-0.230446 0.00243288 -0.165024
-0.184884 -0.00255742 0.173473
-0.0679913 -0.0065611 0.445046
0.0751328 -0.00803345 0.544918
0.18927 -0.00640644 0.434555
0.230385 -0.00230782 0.156542
0.182584 0.00267809 -0.181646
0.0624447 0.0064407 -0.436327
-0.068306 0.194545 -0.519919
-0.184045 0.161593 -0.432487
-0.226724 0.0606613 -0.162359
-0.181898 -0.0637667 0.170671
-0.066893 -0.163594 0.43786
0.0739197 -0.200306 0.536119
0.186214 -0.159738 0.427538
0.226664 -0.057543 0.154014
0.179635 0.0667773 -0.178716
0.0614546 0.160677 -0.429409
-0.0408526 0.306235 -0.310954
-0.106797 0.247161 -0.25097
-0.131538 0.0927307 -0.0941598
-0.105531 -0.097476 0.0989782
-0.0388089 -0.250076 0.25393
0.0428854 -0.306194 0.310913
0.108034 -0.244181 0.247944
0.131503 -0.0879607 0.0893163
0.104236 0.102195 -0.10377
0.0367549 0.252924 -0.256822
0 0.113743 0
0 0.0965773 0
0 0.0362341 0
0 -0.0380884 0
0 -0.0977161 0
0 -0.119644 0
0 -0.0954127 0
0 -0.0343703 0
0 0.0399325 0
0 0.093942 0
0.069058 0.0698603 0.231405
0.186127 0.0581746 0.192474
0.22929 0.0218396 0.0722569
0.183956 -0.0229579 -0.0759559
0.06765 -0.0588986 -0.194866
-0.0747561 -0.0721157 -0.238596
-0.18832 -0.0575102 -0.190273
-0.229229 -0.0207171 -0.0685431
-0.181667 0.024039 0.0795356
-0.0621311 0.0576985 0.191121
0.111473 -0.000975338 0.373533
0.300445 -0.000809874 0.31069
0.37012 -0.000304024 0.116637
0.296942 0.000319585 -0.122608
0.1092 0.000819901 -0.314552
-0.12067 0.0010039 -0.385139
-0.303984 0.000800576 -0.307137
-0.370021 0.000288394 -0.110641
-0.293246 -0.000334679 0.128386
-0.100292 -0.000805544 0.308506
0.110881 -0.0714346 0.371549
0.298849 -0.0594146 0.309039
0.368153 -0.0223049 0.116017
0.295364 0.0234468 -0.121957
0.10862 0.060153 -0.312881
-0.120029 0.0736521 -0.383093
-0.302369 0.0587353 -0.305505
-0.368055 0.0211584 -0.110054
-0.291688 -0.0245518 0.127704
-0.0997588 -0.0589988 0.306867
0.06751 -0.114334 0.226218
0.181954 -0.0950952 0.188159
0.224151 -0.0356999 0.0706372
0.179832 0.0375275 -0.0742538
0.0661334 0.0962774 -0.190498
-0.0730802 0.117883 -0.233247
-0.184099 0.0940077 -0.186009
-0.224091 0.0338649 -0.0670063
-0.177595 -0.0392961 0.0777527
-0.0607384 -0.0944299 0.186837
-0.00190666 -0.113122 -0.006389
-0.00513886 -0.0940874 -0.00531413
-0.00633058 -0.0353216 -0.00199498
-0.00507894 0.03713 0.00209712
-0.00186778 0.0952569 0.0053802
0.00206398 0.116634 0.00658755
0.00519944 0.093012 0.00525335
0.00632889 0.033506 0.00189244
0.00501579 -0.0388797 -0.00219594
0.00171541 -0.0934292 -0.00527677
-0.0705877 -0.0682673 -0.236531
-0.190249 -0.0567802 -0.196738
-0.234369 -0.021316 -0.0738577
-0.18803 0.0224072 0.0776388
-0.0691482 0.057486 0.199183
0.0764117 0.0703862 0.243881
0.192492 0.056131 0.194488
0.234307 0.0202203 0.0700609
0.185692 -0.0234632 -0.0812973
0.0635074 -0.0563829 -0.195354
-0.112035 0.00292578 -0.375418
-0.301959 0.00243288 -0.312257
-0.371986 0.000913322 -0.117225
-0.298439 -0.000960077 0.123226
-0.109751 -0.00246308 0.316138
0.121279 -0.00301582 0.387082
0.305518 -0.00240503 0.308686
0.371887 -0.000866374 0.1112
0.294726 0.00100534 -0.129033
0.100798 0.00241644 -0.310063
-0.110259 0.07299 -0.369466
-0.297084 0.0606612 -0.307218
-0.365977 0.0227724 -0.115332
-0.293618 -0.0239382 0.121237
-0.107978 -0.0614137 0.311034
0.11932 -0.0751953 0.380831
0.300584 -0.059966 0.303701
0.36588 -0.0216019 0.109404
0.289966 0.0250675 -0.126952
0.0991995 0.0602834 -0.305147
-0.065944 0.114894 -0.220971
-0.17239 0.0927307 -0.178345
-0.212327 0.034791 -0.0669119
-0.170347 -0.0365714 0.070336
-0.0626451 -0.0938242 0.180448
0.0692254 -0.114879 0.220941
0.174388 -0.0916126 0.176194
0.212271 -0.0330014 0.06347
0.168258 0.038342 -0.0737414
0.0593295 0.0948928 -0.182503
0 -0.119564 0
0 -0.101519 0
0 -0.0380884 0
0 0.0400375 0
0 0.102717 0
0 0.125767 0
0 0.100295 0
0 0.0361291 0
0 -0.0419759 0
0 -0.0987493 0
0.0686911 -0.0734352 0.0478945
0.185138 -0.0611528 0.0398364
0.228072 -0.0229579 0.014955
0.182979 0.0241332 -0.0157206
0.0672907 0.061914 -0.0403316
-0.0743592 0.0758076 -0.0493823
-0.18732 0.0604544 -0.0393807
-0.228011 0.0217778 -0.0141863
-0.180703 -0.0252696 0.0164615
-0.0618011 -0.0606511 0.0395567
0.110881 0.00102525 0.0773109
0.298849 0.000851335 0.0643035
0.368153 0.000319585 0.0241403
0.295364 -0.000335948 -0.0253761
0.10862 -0.000861873 -0.0651029
-0.120029 -0.00105529 -0.0797124
-0.302369 -0.000841561 -0.0635681
-0.368055 -0.000303157 -0.0228994
-0.291688 0.000351812 0.026572
-0.0997588 0.000846766 0.0638521
0.110292 0.0750902 0.0769002
0.297262 0.0624564 0.0639618
0.366196 0.0234468 0.024012
0.293795 -0.0246473 -0.0252413
0.108043 -0.0632326 -0.064757
-0.119392 -0.0774226 -0.0792888
-0.300764 -0.0617422 -0.0632304
-0.366099 -0.0222416 -0.0227778
-0.290139 0.0258087 0.0264309
-0.0992289 0.062018 0.063513
0.0671513 0.120185 0.0468208
0.180988 0.0999639 0.0389433
0.22296 0.0375275 0.0146198
0.178877 -0.0394488 -0.0153682
0.0657822 -0.101206 -0.0394274
-0.0726919 -0.123918 -0.0482752
-0.183121 -0.0988211 -0.038498
-0.222901 -0.0355986 -0.0138683
-0.176651 0.0413077 0.0160925
-0.0604157 0.0992622 0.03867
-0.00189653 0.118911 -0.00132235
-0.00511156 0.0989048 -0.00109986
-0.00629694 0.03713 -0.000412902
-0.00505199 -0.0390308 0.000434042
-0.00185787 -0.100134 0.00111354
0.00205302 -0.122605 0.00136342
0.00517182 -0.0977736 0.00108728
0.00629527 -0.0352213 0.000391677
0.00498913 0.04087 -0.000454494
0.0017063 0.0982103 -0.00109214
-0.0702127 0.0717608 -0.0489554
-0.189239 0.0596871 -0.0407187
-0.233124 0.0224072 -0.0152863
-0.187032 -0.0235544 0.0160689
-0.0687811 -0.060429 0.0412247
0.0760057 -0.0739899 0.0504759
0.191469 -0.0590048 0.0402533
0.233062 -0.0212555 0.0145005
0.184705 0.0246644 -0.0168261
0.06317 0.0592682 -0.0404329
-0.11144 -0.0030755 -0.077701
-0.300356 -0.00255742 -0.0646277
-0.37001 -0.000960077 -0.024262
-0.296854 0.00100923 0.0255041
-0.109168 0.00258918 0.0654311
0.120635 0.00317021 0.0801146
0.303894 0.00252816 0.0638887
0.369911 0.000910727 0.0230149
0.29316 -0.00105681 -0.026706
0.100262 -0.0025401 -0.0641744
-0.109673 -0.0767251 -0.0764691
-0.295506 -0.0637667 -0.0635849
-0.364033 -0.0239382 -0.0238702
-0.292058 0.0251637 0.0250923
-0.107404 0.0645578 0.0643747
0.118686 0.0790448 0.0788207
0.298988 0.063036 0.0628571
0.363936 0.0227077 0.0226433
0.288426 -0.0263509 -0.0262753
0.0986726 -0.0633683 -0.0631569
-0.0655937 -0.120774 -0.0457348
-0.171475 -0.097476 -0.0369124
-0.211199 -0.0365714 -0.0138489
-0.169442 0.0384428 0.0145576
-0.0623123 0.0986255 0.0373476
0.0688576 0.120758 0.0457287
0.173462 0.0963007 0.0364673
0.211143 0.0346902 0.0131365
0.167364 -0.0403041 -0.0152624
0.0590143 -0.0997487 -0.037773
0 -0.306742 0
0 -0.260449 0
0 -0.0977161 0
0 0.102717 0
0 0.26352 0
0 0.322656 0
0 0.257309 0
0 0.0926897 0
0 -0.10769 0
0 -0.253343 0
0.0418227 -0.188399 -0.154094
0.112722 -0.156888 -0.128168
0.138862 -0.0588986 -0.0481159
0.111407 0.061914 0.050579
0.0409698 0.158841 0.129762
-0.0452736 0.194486 0.158881
-0.11405 0.155097 0.126703
-0.138825 0.0558712 0.0456426
-0.110021 -0.0648295 -0.0529627
-0.0376277 -0.155601 -0.127269
0.06751 0.00263029 -0.248738
0.181954 0.00218411 -0.206888
0.224151 0.000819901 -0.0776684
0.179832 -0.000861873 0.0816444
0.0661334 -0.00221115 0.20946
-0.0730802 -0.00270737 0.256464
-0.184099 -0.00215902 0.204522
-0.224091 -0.000777753 0.0736762
-0.177595 0.000902575 -0.085492
-0.0607384 0.00217239 -0.205436
0.0671513 0.192645 -0.247417
0.180988 0.160233 -0.205789
0.22296 0.060153 -0.0772557
0.178877 -0.0632326 0.0812109
0.0657822 -0.162224 0.208347
-0.0726919 -0.198629 0.255101
-0.183121 -0.1584 0.203436
-0.222901 -0.057061 0.0732846
-0.176651 0.0662124 -0.0850378
-0.0604157 0.159108 -0.204345
0.0408852 0.308335 -0.15064
0.110195 0.256458 -0.125295
0.13575 0.0962774 -0.0470371
0.10891 -0.101206 0.0494456
0.0400518 -0.259646 0.126852
-0.0442585 -0.317913 0.155319
-0.111494 -0.253525 0.123863
-0.135714 -0.0913286 0.0446194
-0.107555 0.105976 -0.0517754
-0.0367842 0.254658 -0.124416
-0.00115471 0.305068 0.00425448
-0.00311221 0.25374 0.00353867
-0.00383392 0.0952569 0.00132846
-0.0030759 -0.100134 -0.00139646
-0.00113116 -0.256895 -0.00358265
0.00124999 -0.314543 -0.00438661
0.00314886 -0.250839 -0.00349821
0.0038329 -0.0903609 -0.00126018
0.00303764 0.104853 0.00146228
0.00103888 0.25196 0.00351384
-0.0427491 0.184103 0.157508
-0.115218 0.153128 0.131007
-0.141938 0.057486 0.0491818
-0.113875 -0.060429 -0.0516995
-0.0418775 -0.155031 -0.132636
0.0462765 -0.189821 -0.1624
0.116577 -0.151376 -0.129509
0.1419 -0.0545311 -0.0466538
0.112458 0.0632766 0.0541358
0.0384612 0.152053 0.130088
-0.0678506 -0.00789024 0.249993
-0.182872 -0.0065611 0.207932
-0.225281 -0.00246308 0.0780599
-0.180739 0.00258918 -0.0820558
-0.0664669 0.00664258 -0.210517
0.0734489 0.00813324 -0.257757
0.185028 0.00648602 -0.205554
0.225221 0.00233648 -0.0740477
0.178491 -0.00271125 0.0859232
0.0610449 -0.00651665 0.206473
-0.0667749 -0.196839 0.24603
-0.179919 -0.163594 0.204576
-0.221643 -0.0614137 0.0767996
-0.17782 0.0645578 -0.0807316
-0.0653935 0.165623 -0.207117
0.0722624 0.20279 -0.253595
0.182039 0.16172 -0.202235
0.221584 0.0582568 -0.0728519
0.175608 -0.0676033 0.0845373
0.060077 -0.162572 0.203199
-0.0399368 -0.309846 0.147146
-0.104403 -0.250076 0.118761
-0.128589 -0.0938242 0.0445571
-0.103165 0.0986255 -0.0468372
-0.037939 0.253025 -0.120161
0.0419241 0.309805 -0.147126
0.105613 0.24706 -0.117329
0.128555 0.088998 -0.0422651
0.1019 -0.103401 0.0491049
0.035931 -0.255906 0.12153
0 -0.375577 0
0 -0.318896 0
0 -0.119644 0
0 0.125767 0
0 0.322656 0
0 0.395062 0
0 0.31505 0
0 0.11349 0
0 -0.131856 0
0 -0.310194 0
-0.00118119 -0.230677 -0.296633
-0.00318355 -0.192095 -0.246725
-0.00392183 -0.0721157 -0.0926236
-0.00314642 0.0758076 0.0973651
-0.00115711 0.194486 0.249792
0.00127864 0.23813 0.305846
0.00322108 0.189901 0.243903
0.00392079 0.0684091 0.0878622
0.0031073 -0.0793777 -0.101953
0.00106271 -0.190519 -0.244993
-0.00190666 0.00322054 -0.478822
-0.00513886 0.00267424 -0.398262
-0.00633058 0.0010039 -0.149512
-0.00507894 -0.00105529 0.157166
-0.00186778 -0.00270737 0.40321
0.00206398 -0.00331491 0.493695
0.00519944 -0.00264354 0.393708
0.00632889 -0.000952285 0.141827
0.00501579 0.00110512 -0.164572
0.00171541 0.00265989 -0.395466
-0.00189653 0.235875 -0.476279
-0.00511156 0.19619 -0.396146
-0.00629694 0.0736521 -0.148718
-0.00505199 -0.0774226 0.156331
-0.00185787 -0.198629 0.401069
0.00205302 -0.243202 0.491072
0.00517182 -0.193946 0.391616
0.00629527 -0.0698658 0.141073
0.00498913 0.0810711 -0.163698
0.0017063 0.194813 -0.393365
-0.00115471 0.377528 -0.289983
-0.00311221 0.314009 -0.241194
-0.00383392 0.117883 -0.090547
-0.0030759 -0.123918 0.0951823
-0.00113116 -0.317913 0.244192
0.00124999 -0.389254 0.298991
0.00314886 -0.310419 0.238436
0.0038329 -0.111824 0.0858928
0.00303764 0.129757 -0.0996682
0.00103888 0.311805 -0.239501
3.2612e-05 0.373527 0.0081899
8.78962e-05 0.310682 0.00681195
0.000108281 0.116634 0.00255727
8.68717e-05 -0.122605 -0.00268822
3.19471e-05 -0.314543 -0.00689663
-3.53026e-05 -0.385129 -0.00844428
-8.89335e-05 -0.307129 -0.00673407
-0.000108252 -0.110638 -0.00242584
-8.57908e-05 0.128382 0.00281489
-2.93409e-05 0.308501 0.00676415
0.00120735 0.225417 0.303203
0.00325407 0.187491 0.252189
0.00400871 0.0703862 0.0946746
0.00321613 -0.0739899 -0.0995221
0.00118272 -0.189821 -0.255324
-0.00130697 -0.232418 -0.312621
-0.00329245 -0.185348 -0.249306
-0.00400765 -0.0667683 -0.0898084
-0.00317612 0.0774764 0.104212
-0.00108625 0.186175 0.25042
0.00191628 -0.00966086 0.481239
0.00516479 -0.00803344 0.400269
0.00636251 -0.00301582 0.150265
0.00510453 0.00317021 -0.157959
0.0018772 0.00813324 -0.405244
-0.00207439 0.00995839 -0.496186
-0.00522566 0.0079415 -0.395694
-0.00636082 0.0028608 -0.142542
-0.00504107 -0.00331967 0.165402
-0.00172407 -0.00797903 0.397462
0.0018859 -0.241011 0.473608
0.0050814 -0.200306 0.393811
0.00625975 -0.0751953 0.14784
0.00502214 0.0790448 -0.155408
0.00184689 0.20279 -0.398702
-0.00204088 0.248299 -0.488173
-0.00514125 0.198011 -0.389304
-0.00625809 0.0713302 -0.14024
-0.00495965 -0.0827738 0.162735
-0.00169673 -0.199054 0.39116
0.00112792 -0.379378 0.283257
0.00294861 -0.306194 0.228615
0.0036317 -0.114879 0.0857726
0.00291365 0.120758 -0.0901619
0.0010715 0.309805 -0.231311
-0.00118405 0.379327 -0.283219
-0.00298278 0.302502 -0.225859
-0.00363073 0.10897 -0.0813606
-0.00287792 -0.126604 0.0945272
-0.00101479 -0.313333 0.233946
0 -0.299512 0
0 -0.25431 0
0 -0.0954127 0
0 0.100295 0
0 0.257309 0
0 0.31505 0
0 0.251243 0
0 0.0905048 0
0 -0.105151 0
0 -0.247371 0
-0.0437294 -0.183958 -0.324728
-0.117861 -0.15319 -0.270093
-0.145193 -0.0575102 -0.101396
-0.116486 0.0604545 0.106587
-0.0428378 0.155097 0.273451
0.0473374 0.189901 0.334814
0.119249 0.15144 0.267004
0.145154 0.0545541 0.096184
0.115037 -0.0633013 -0.11161
0.0393431 -0.151933 -0.268197
-0.0705877 0.00256829 -0.524173
-0.190249 0.00213263 -0.435982
-0.234369 0.000800576 -0.163672
-0.18803 -0.000841561 0.172052
-0.0691482 -0.00215902 0.441401
0.0764117 -0.00264354 0.540455
0.192492 -0.00210815 0.430995
0.234307 -0.000759424 0.15526
0.185692 0.000881303 -0.18016
0.0635074 0.00212118 -0.432922
-0.0702127 0.188104 -0.521389
-0.189239 0.156455 -0.433665
-0.233124 0.0587353 -0.162803
-0.187032 -0.0617422 0.171138
-0.0687811 -0.1584 0.439056
0.0760057 -0.193946 0.537584
0.191469 -0.154666 0.428706
0.233062 -0.0557163 0.154435
0.184705 0.0646517 -0.179203
0.06317 0.155357 -0.430622
-0.0427491 0.301067 -0.317448
-0.115218 0.250413 -0.264038
-0.141938 0.0940077 -0.0991232
-0.113875 -0.0988211 0.104198
-0.0418775 -0.253525 0.26732
0.0462765 -0.310419 0.327307
0.116577 -0.24755 0.261019
0.1419 -0.0891756 0.0940279
0.112458 0.103478 -0.109108
0.0384612 0.248655 -0.262185
0.00120735 0.297877 0.00896559
0.00325407 0.24776 0.00745715
0.00400871 0.093012 0.00279949
0.00321613 -0.0977736 -0.00294282
0.00118272 -0.250839 -0.00754982
-0.00130697 -0.307129 -0.0092441
-0.00329245 -0.244926 -0.00737189
-0.00400765 -0.0882306 -0.0026556
-0.00317612 0.102381 0.0030815
-0.00108625 0.24602 0.00740481
0.044698 0.179763 0.331921
0.120471 0.149519 0.276075
0.148409 0.056131 0.103642
0.119066 -0.0590048 -0.108948
0.0437867 -0.151376 -0.279506
-0.0483861 -0.185348 -0.342231
-0.121891 -0.147809 -0.27292
-0.14837 -0.0532458 -0.0983147
-0.117585 0.0617852 0.114082
-0.0402146 0.148469 0.274138
0.0709439 -0.00770425 0.526818
0.191209 -0.00640644 0.43818
0.235551 -0.00240503 0.164497
0.188978 0.00252816 -0.17292
0.0694969 0.00648602 -0.443627
-0.0767972 0.0079415 -0.543181
-0.193463 0.0063331 -0.433169
-0.235489 0.0022814 -0.156043
-0.186628 -0.00264734 0.181068
-0.0638278 -0.00636304 0.435107
0.0698191 -0.192199 0.518466
0.188121 -0.159738 0.431109
0.231747 -0.059966 0.161842
0.185927 0.063036 -0.170128
0.0683749 0.16172 -0.436464
-0.0755566 0.198011 -0.534409
-0.190337 0.157907 -0.426175
-0.231685 0.0568836 -0.153523
-0.183614 -0.0660097 0.178148
-0.0628159 -0.15874 0.428208
0.0417575 -0.302543 0.310085
0.109162 -0.244181 0.250268
0.134451 -0.0916126 0.0938964
0.107868 0.0963007 -0.0987014
0.0396686 0.24706 -0.25322
-0.0438354 0.302502 -0.310044
-0.110427 0.241237 -0.247251
-0.134416 0.0869001 -0.0890665
-0.106545 -0.100963 0.10348
-0.037569 -0.249874 0.256103
0 -0.107892 0
0 -0.0916094 0
0 -0.0343703 0
0 0.0361291 0
0 0.0926897 0
0 0.11349 0
0 0.0905048 0
0 0.0326023 0
0 -0.0378784 0
0 -0.0891098 0
-0.0694065 -0.0662667 -0.22754
-0.187066 -0.0551843 -0.189257
-0.230446 -0.0207171 -0.0710496
-0.184884 0.0217778 0.0746873
-0.0679913 0.0558712 0.19161
0.0751329 0.0684091 0.234609
0.18927 0.0545542 0.187094
0.230385 0.0196523 0.0673976
0.182584 -0.0228033 -0.0782066
0.0624447 -0.0547306 -0.187929
-0.112035 0.000925167 -0.367294
-0.301959 0.000768244 -0.305498
-0.371986 0.000288394 -0.114688
-0.298439 -0.000303157 0.120559
-0.109751 -0.000777753 0.309296
0.121279 -0.000952286 0.378703
0.305518 -0.000759424 0.302004
0.371887 -0.000273569 0.108793
0.294726 0.000317475 -0.12624
0.100798 0.000764108 -0.303353
-0.11144 0.0677601 -0.365343
-0.300356 0.0563606 -0.303875
-0.37001 0.0211584 -0.114078
-0.296854 -0.0222416 0.119919
-0.109168 -0.0570611 0.307653
0.120635 -0.0698659 0.376692
0.303894 -0.0557163 0.300401
0.369911 -0.0200709 0.108215
0.29316 0.0232898 -0.12557
0.100262 0.055964 -0.301742
-0.0678506 0.108453 -0.22244
-0.182872 0.0902074 -0.185016
-0.225281 0.0338649 -0.0694567
-0.180739 -0.0355987 0.0730128
-0.0664669 -0.0913286 0.187316
0.0734489 -0.111824 0.22935
0.185028 -0.0891757 0.1829
0.225221 -0.0321242 0.0658867
0.178491 0.0372762 -0.0764533
0.0610449 0.0895725 -0.183716
0.00191628 0.107303 0.00628229
0.00516479 0.0892513 0.00522532
0.00636251 0.033506 0.00196165
0.00510453 -0.0352214 -0.00206207
0.0018772 -0.0903609 -0.00529027
-0.00207439 -0.110638 -0.00647744
-0.00522566 -0.0882306 -0.00516556
-0.00636082 -0.0317837 -0.00186082
-0.00504107 0.0368812 0.00215925
-0.00172407 0.0886233 0.00518863
0.0709439 0.0647557 0.232581
0.191209 0.0538616 0.19345
0.235551 0.0202203 0.0726233
0.188978 -0.0212555 -0.0763412
0.0694969 -0.0545312 -0.195855
-0.0767972 -0.0667683 -0.239805
-0.193463 -0.0532458 -0.191237
-0.235489 -0.0191809 -0.0688905
-0.186628 0.0222571 0.0799391
-0.0638278 0.0534826 0.192092
0.112601 -0.00277528 0.369148
0.303481 -0.00230782 0.307039
0.373861 -0.000866374 0.115266
0.299943 0.000910727 -0.121167
0.110304 0.00233649 -0.310856
-0.121891 0.0028608 -0.380613
-0.307059 0.0022814 -0.303527
-0.373762 0.00082184 -0.109341
-0.296212 -0.000953662 0.126877
-0.101306 -0.00229214 0.304884
0.110816 -0.0692355 0.363295
0.298582 -0.0575431 0.302084
0.367823 -0.0216019 0.113405
0.295099 0.0227077 -0.119211
0.108523 0.0582569 -0.305836
-0.119922 0.0713302 -0.374469
-0.302099 0.0568836 -0.298628
-0.367725 0.0204914 -0.107576
-0.291428 -0.0237789 0.124831
-0.0997001 -0.0571825 0.30005
0.0662768 -0.108984 0.21728
0.17326 -0.0879607 0.175366
0.213399 -0.0330014 0.0657943
0.171206 0.0346902 -0.0691612
0.0629612 0.088998 -0.177434
-0.0695747 0.10897 -0.217251
-0.175268 0.0869001 -0.173251
-0.213342 0.0313038 -0.0624099
-0.169107 -0.0363697 0.0725097
-0.0596289 -0.0900116 0.179455
0 0.125353 0
0 0.106435 0
0 0.0399324 0
0 -0.0419759 0
0 -0.10769 0
0 -0.131856 0
0 -0.105151 0
0 -0.0378784 0
0 0.0440082 0
0 0.10353 0
-0.068306 0.0769907 -0.0425664
-0.184045 0.0640335 -0.0354698
-0.226724 0.0240384 -0.0133165
-0.181898 -0.025269 0.0139983
-0.066893 -0.0648279 0.0359128
0.0739197 -0.0793758 0.0439717
0.186214 -0.0632998 0.0350662
0.226664 -0.0228027 0.0126321
0.179635 0.026461 -0.0146563
0.0614546 0.0635876 -0.0351562
-0.110259 -0.00107489 -0.0687104
-0.297084 -0.000891545 -0.057255
-0.365977 -0.00033467 -0.0214954
-0.293618 0.000351803 0.022596
-0.107978 0.00090255 0.0579702
0.11932 0.00110509 0.070979
0.300584 0.000881279 0.0566035
0.36588 0.000317467 0.0203906
0.289966 -0.000368441 -0.023658
0.0991995 -0.000887763 -0.0567489
-0.109673 -0.0787258 -0.0683454
-0.295506 -0.0654004 -0.0569509
-0.364033 -0.0245512 -0.0213812
-0.292058 0.025808 0.0224759
-0.107404 0.0662106 0.0576622
0.118686 0.0810689 0.070602
0.298988 0.06465 0.056303
0.363936 0.0232892 0.0202823
0.288426 -0.0270262 -0.0235324
0.0986726 -0.0650206 -0.0564474
-0.0667749 -0.126004 -0.0416122
-0.179919 -0.104676 -0.0346746
-0.221643 -0.0392951 -0.013018
-0.17782 0.0413066 0.0136845
-0.0653935 0.105973 0.0351077
0.0722624 0.129754 0.0429862
0.182039 0.103475 0.0342802
0.221584 0.0372753 0.0123489
0.175608 -0.0432566 -0.0143277
0.060077 -0.104068 -0.0343681
0.0018859 -0.124668 0.00117524
0.0050814 -0.103567 0.000979306
0.00625975 -0.0388787 0.000367662
0.00502214 0.040869 -0.000386487
0.00184689 0.10485 -0.000991534
-0.00204088 0.128379 -0.00121404
-0.00514125 0.102378 -0.000968165
-0.00625809 0.0368802 -0.000348766
-0.00495965 -0.0427982 0.000404653
-0.00169673 -0.102965 0.000970648
0.0698191 -0.0752352 0.0435093
0.188121 -0.0625006 0.0362555
0.231747 -0.0234626 0.0136115
0.185927 0.0246638 -0.0143083
0.0683749 0.063275 -0.0367083
-0.0755566 0.0774744 -0.0449458
-0.190337 0.0617836 -0.035843
-0.231685 0.0222565 -0.0129119
-0.183614 -0.0258279 0.0149809
-0.0628159 -0.0621377 0.0359349
0.110816 0.00322441 0.0690572
0.298582 0.00267802 0.0575438
0.367823 0.00100531 0.0216038
0.295099 -0.00105678 -0.0227099
0.108523 -0.00271118 -0.0582624
-0.119922 -0.00331959 -0.0713369
-0.302099 -0.00264727 -0.056889
-0.367725 -0.000953637 -0.0204934
-0.291428 0.00110668 0.0237773
-0.0997001 0.00266308 0.0570353
0.109059 0.0804399 0.0679623
0.293762 0.0667757 0.0566137
0.361883 0.0250669 0.0212544
0.290334 -0.0263502 -0.0223426
0.10677 -0.0676016 -0.0573202
-0.117985 -0.0827718 -0.0701832
-0.297223 -0.066008 -0.055969
-0.361787 -0.0237783 -0.020162
-0.286723 0.0275952 0.0233932
-0.0981194 0.0664364 0.056131
0.0652259 0.126621 0.040647
0.170513 0.102195 0.032806
0.210015 0.038342 0.0123083
0.168492 -0.0403041 -0.0129381
0.0619629 -0.103401 -0.0331929
-0.0684716 -0.126604 -0.0406416
-0.172489 -0.100963 -0.0324105
-0.209959 -0.0363697 -0.0116751
-0.166426 0.0422554 0.0135645
-0.0586834 0.104578 0.0335709
0 0.310236 0
0 0.25039 0
0 0.0939421 0
0 -0.0987494 0
0 -0.253343 0
0 -0.310194 0
0 -0.247371 0
0 -0.0891098 0
0 0.10353 0
0 0.256228 0
-0.0408526 0.190545 0.15883
-0.106797 0.153788 0.128191
-0.131538 0.0576985 0.0480952
-0.10553 -0.0606511 -0.0505564
-0.0388089 -0.155601 -0.129703
0.0428854 -0.190519 -0.158809
0.108034 -0.151933 -0.126646
0.131503 -0.0547306 -0.0456212
0.104236 0.0635876 0.0530041
0.0367549 0.157373 0.13118
-0.065944 -0.00266024 0.256383
-0.17239 -0.00214707 0.206925
-0.212327 -0.000805544 0.0776349
-0.170346 0.000846767 -0.0816077
-0.062645 0.00217239 -0.209365
0.0692253 0.00265989 -0.256348
0.174388 0.00212118 -0.20443
0.212271 0.000764108 -0.0736414
0.168258 -0.000887764 0.0855589
0.0593295 -0.00219713 0.21175
-0.0655937 -0.194839 0.255021
-0.171474 -0.157253 0.205826
-0.211199 -0.0589988 0.0772225
-0.169442 0.062018 -0.0811742
-0.0623122 0.159108 -0.208253
0.0688576 0.194813 -0.254987
0.173462 0.155357 -0.203344
0.211143 0.055964 -0.0732502
0.167364 -0.0650207 0.0851043
0.0590143 -0.16092 0.210625
-0.0399368 -0.311847 0.15527
-0.104403 -0.25169 0.125318
-0.128589 -0.0944299 0.0470171
-0.103165 0.0992622 -0.0494231
-0.0379389 0.254658 -0.126795
0.0419241 0.311805 -0.155249
0.105612 0.248655 -0.123807
0.128555 0.0895726 -0.0445986
0.1019 -0.104068 0.051816
0.035931 -0.257558 0.128239
0.00112792 -0.308542 -0.00438523
0.00294861 -0.249023 -0.00353931
0.0036317 -0.0934293 -0.00132789
0.00291365 0.0982103 0.00139584
0.0010715 0.25196 0.00358104
-0.00118405 0.308501 0.00438465
-0.00298278 0.24602 0.00349663
-0.00363073 0.0886234 0.00125958
-0.00287792 -0.102965 -0.00146342
-0.00101479 -0.254829 -0.00362183
0.0417575 -0.1862 -0.162348
0.109162 -0.150281 -0.131031
0.134451 -0.0563829 -0.0491605
0.107868 0.0592682 0.0516762
0.0396685 0.152053 0.132576
-0.0438354 0.186175 0.162327
-0.110427 0.148469 0.129451
-0.134415 0.0534826 0.0466318
-0.106545 -0.0621377 -0.0541782
-0.037569 -0.153785 -0.134086
0.0662768 0.0079801 -0.257676
0.17326 0.0064407 -0.20797
0.213398 0.00241644 -0.0780267
0.171206 -0.0025401 0.0820195
0.0629612 -0.00651665 0.210422
-0.0695747 -0.00797903 0.257642
-0.175268 -0.00636304 0.205462
-0.213342 -0.00229214 0.0740131
-0.169107 0.00266308 -0.0859906
-0.0596289 0.00659087 -0.212819
0.0652259 0.199081 -0.253591
0.170513 0.160677 -0.204672
0.210015 0.0602834 -0.0767896
0.168492 -0.0633683 0.0807191
0.0619629 -0.162572 0.207086
-0.0684716 -0.199054 0.253557
-0.172489 -0.15874 0.202204
-0.209959 -0.0571825 0.0728396
-0.166425 0.0664364 -0.0846272
-0.0586834 0.164424 -0.209444
0.0390105 0.313375 -0.151668
0.101981 0.252924 -0.122411
0.125606 0.0948928 -0.0459264
0.100772 -0.0997487 0.0482766
0.0370589 -0.255906 0.123854
-0.0409516 -0.313333 0.151648
-0.103163 -0.249874 0.120935
-0.125573 -0.0900116 0.043564
-0.0995361 0.104578 -0.050614
-0.0350975 0.258821 -0.125265
