# vtk DataFile Version 3.0
Velocity field
ASCII
DATASET STRUCTURED_POINTS
DIMENSIONS 8 8 8
SPACING 0.8 0.8 0.8
ORIGIN 0 0 0
POINT_DATA 512
VECTORS velocity float
0 0.344845 0
0 0.240256 0
0 -0.0100693 0
0 -0.254287 0
0 -0.344257 0
0 -0.225406 0
0 0.0301737 0
0 0.26745 0
0 0.135667 0.351966
0 0.0945199 0.259988
0 -0.00396141 -0.0108963
0 -0.10004 -0.275171
0 -0.135435 -0.372531
0 -0.0886777 -0.243918
0 0.0118707 0.0326518
0 0.105218 0.272973
0 -0.155805 0.490434
0 -0.108551 0.362271
0 0.00454945 -0.0151831
0 0.11489 -0.383427
0 0.15554 -0.51909
0 0.101841 -0.339879
0 -0.0136328 0.0454975
0 -0.120837 0.380364
0 -0.352768 0.331412
0 -0.245776 0.244805
0 0.0103007 -0.01026
0 0.260129 -0.259101
0 0.352167 -0.350776
0 0.230585 -0.229674
0 -0.0308669 0.030745
0 -0.273595 0.257032
0 -0.335746 -0.0286409
0 -0.233917 -0.0211563
0 0.00980364 0.000886678
0 0.247577 0.0223918
0 0.335174 0.0303144
0 0.219458 0.0198486
0 -0.0293775 -0.00265701
0 -0.260393 -0.0222129
0 -0.115065 -0.37132
0 -0.0801668 -0.274285
0 0.00335986 0.0114955
0 0.0848485 0.290303
0 0.114869 0.393016
0 0.0752118 0.257331
0 -0.0100681 -0.0344473
0 -0.0892408 -0.287983
0 0.175413 -0.488762
0 0.122211 -0.361036
0 -0.00512197 0.0151313
0 -0.129348 0.38212
0 -0.175114 0.517319
0 -0.114657 0.33872
0 0.0153485 -0.0453424
0 0.136044 -0.379067
0 0.359488 -0.309727
0 0.250458 -0.215789
0 -0.0104969 0.00904389
0 -0.265084 0.228391
0 -0.358875 0.309199
0 -0.234977 0.202451
0 0.0314549 -0.0271008
0 0.278806 -0.240214
0 0.240256 0
0 0.181734 0
0 -0.00761661 0
0 -0.192347 0
0 -0.260402 0
0 -0.170501 0
0 0.0228239 0
0 0.186334 0
0.0750277 0.0945199 0.347647
0.184954 0.0679355 0.249534
0.180462 -0.00284869 -0.0104634
0.0664829 -0.0719342 -0.264219
-0.0878237 -0.0973858 -0.357703
-0.188859 -0.0637643 -0.234209
-0.175316 0.00851306 0.0312713
-0.0538339 0.0733064 0.269623
0.104545 -0.108551 0.484416
0.257716 -0.077838 0.347706
0.251458 0.00326377 -0.0145797
0.0926381 0.0824169 -0.368166
-0.122375 0.111577 -0.49843
-0.263158 0.0730559 -0.326352
-0.24429 -0.00975528 0.0435738
-0.0750129 -0.0841882 0.375696
0.0706462 -0.245776 0.327344
0.174151 -0.176239 0.234962
0.169924 0.00738994 -0.00985232
0.0626001 0.186609 -0.248789
-0.0826952 0.252633 -0.336815
-0.177828 0.165415 -0.220531
-0.165079 -0.0220879 0.029445
-0.0506901 -0.190615 0.253877
-0.00610531 -0.233917 -0.0282894
-0.0150504 -0.167737 -0.0203056
-0.0146849 0.00703331 0.000851441
-0.00540997 0.177604 0.0215006
0.00714655 0.240444 0.0291076
0.0153682 0.157434 0.0190585
0.0142662 -0.0210221 -0.00254467
0.00438068 -0.181418 -0.0219403
-0.0791534 -0.0801668 -0.366763
-0.195121 -0.0574864 -0.263255
-0.190386 0.00241045 0.0110387
-0.0701375 0.0608684 0.278744
0.0926533 0.0824043 0.377373
0.19924 0.0539547 0.247089
0.184958 -0.00720464 -0.0329909
0.0567942 -0.0621747 -0.284449
-0.104188 0.122211 -0.482763
-0.256791 0.0875851 -0.346458
-0.250554 -0.00367247 0.0145273
-0.0923053 -0.0927363 0.366843
0.121936 -0.125547 0.496638
0.26221 -0.0822042 0.325179
0.243412 0.0109775 -0.0434182
0.0747571 0.0947829 -0.374415
-0.0660237 0.250458 -0.305926
-0.158022 0.174495 -0.213141
-0.154166 -0.00731325 0.0089329
-0.0567953 -0.184686 0.225588
0.0750269 -0.25003 0.305404
0.161339 -0.16371 0.199966
0.149785 0.0219148 -0.0267683
0.0473734 0.194246 -0.237266
0 -0.0100693 0
0 -0.00761661 0
0 0.000319218 0
0 0.00806142 0
0 0.0109137 0
0 0.00714583 0
0 -0.000956568 0
0 -0.00780942 0
0.104545 -0.00396141 0.132449
0.257716 -0.00284869 0.0950171
0.251458 0.000119454 -0.00398419
0.0926381 0.00301642 -0.100607
-0.122375 0.00408365 -0.136203
-0.263158 0.00267383 -0.0891812
-0.24429 -0.000356951 0.0119078
-0.0750129 -0.00307233 0.102723
0.145674 0.00454945 0.184557
0.359105 0.00326377 0.132398
0.350383 -0.000136854 -0.0055516
0.129083 -0.00345581 -0.140186
-0.17052 -0.00467855 -0.18979
-0.366686 -0.00306334 -0.124267
-0.340397 0.000409022 0.0165924
-0.104524 0.00352839 0.143136
0.0984393 0.0103007 0.124715
0.242666 0.00738994 0.0894675
0.236773 -0.00030987 -0.00375152
0.0872276 -0.00782476 -0.0947328
-0.115228 -0.0105933 -0.12825
-0.247789 -0.00693599 -0.0839735
-0.230022 0.000926115 0.0112123
-0.0706322 0.00798884 0.0967243
-0.00850723 0.00980364 -0.010778
-0.0209714 0.00703331 -0.00773191
-0.0204622 -0.000294917 0.00032421
-0.00753833 -0.00744721 0.00818686
0.00995816 -0.0100821 0.0110835
0.0214142 -0.00660132 0.00725701
0.0198788 0.000881422 -0.000968982
0.00610411 0.00760337 -0.00835901
-0.110293 0.00335986 -0.139733
-0.271884 0.00241045 -0.10024
-0.265285 -0.000101073 0.00420327
-0.0977311 -0.00255229 0.106138
0.129104 -0.00345528 0.143692
0.277623 -0.00226239 0.0940855
0.257722 0.00030208 -0.0125624
0.0791377 0.00260579 -0.108372
-0.145177 -0.00512197 -0.183927
-0.357815 -0.00367247 -0.131922
-0.349125 0.000153989 0.00553167
-0.128619 0.00388851 0.139683
0.169907 0.00526434 0.189107
0.365369 0.00344686 0.12382
0.339174 -0.000460269 -0.0165331
0.104167 -0.00397243 -0.142648
-0.0919983 -0.0104969 -0.116554
-0.22019 -0.00731325 -0.0812042
-0.214817 0.000306504 0.00340333
-0.0791394 0.00774033 0.0859464
0.104543 0.010479 0.116356
0.224812 0.00686122 0.076185
0.208712 -0.000918468 -0.0101984
0.0660107 -0.00814102 -0.0903955
0 -0.254287 0
0 -0.192347 0
0 0.00806142 0
0 0.20358 0
0 0.275609 0
0 0.180458 0
0 -0.0241568 0
0 -0.197216 0
0.0706462 -0.10004 -0.16309
0.174151 -0.0719342 -0.116996
0.169924 0.00301642 0.00490579
0.0626001 0.0761689 0.12388
-0.0826952 0.103119 0.167711
-0.177828 0.067518 0.109809
-0.165079 -0.00901369 -0.0146622
-0.0506901 -0.0775874 -0.126487
0.0984393 0.11489 -0.227252
0.242666 0.0824169 -0.163024
0.236773 -0.00345581 0.00683573
0.0872276 -0.0872658 0.172617
-0.115228 -0.118142 0.233689
-0.247789 -0.0773547 0.15301
-0.230022 0.0103287 -0.0204305
-0.0706322 0.0891047 -0.176249
0.0665205 0.260129 -0.153566
0.163982 0.186609 -0.110163
0.16 -0.00782476 0.00461926
0.0589443 -0.197586 0.116645
-0.0778656 -0.2675 0.157916
-0.167444 -0.175147 0.103396
-0.155438 0.0233863 -0.0138058
-0.0477298 0.201747 -0.1191
-0.00574877 0.247577 0.0132713
-0.0141713 0.177604 0.00952042
-0.0138272 -0.00744721 -0.000399201
-0.00509404 -0.188056 -0.0100806
0.00672915 -0.254592 -0.0136471
0.0144706 -0.166697 -0.00893563
0.013433 0.0222578 0.00119312
0.00412486 0.192012 0.0102928
-0.0745309 0.0848485 0.172058
-0.183728 0.0608684 0.123429
-0.179266 -0.00255229 -0.00517555
-0.0660425 -0.0644498 -0.130692
0.0872419 -0.0872526 -0.176932
0.187608 -0.0571295 -0.115848
0.174155 0.00762815 0.0154685
0.0534774 0.0658056 0.133442
-0.0981036 -0.129348 0.226477
-0.241795 -0.0927363 0.162439
-0.235922 0.00388851 -0.00681117
-0.0869143 0.0981911 -0.171996
0.114814 0.132934 -0.23285
0.246899 0.0870394 -0.152461
0.229196 -0.0116227 0.0203576
0.0703913 -0.100318 0.175648
-0.062168 -0.265084 0.143518
-0.148794 -0.184686 0.0999897
-0.145163 0.00774033 -0.00419065
-0.0534786 0.195471 -0.105829
0.0706454 0.264632 -0.143273
0.151917 0.173271 -0.0938094
0.141037 -0.0231946 0.0125577
0.0446068 -0.20559 0.111307
0 -0.344257 0
0 -0.260402 0
0 0.0109137 0
0 0.275609 0
0 0.373124 0
0 0.244307 0
0 -0.0327038 0
0 -0.266994 0
-0.00610531 -0.135435 -0.359701
-0.0150504 -0.0973858 -0.258038
-0.0146849 0.00408365 0.0108199
-0.00540997 0.103119 0.273218
0.00714655 0.139603 0.369892
0.0153682 0.0914074 0.242191
0.0142662 -0.0122029 -0.0323381
0.00438068 -0.105039 -0.278972
-0.00850723 0.15554 -0.501212
-0.0209714 0.111577 -0.359553
-0.0204622 -0.00467855 0.0150766
-0.00753833 -0.118142 0.380713
0.00995816 -0.159943 0.515413
0.0214142 -0.104724 0.337473
0.0198788 0.0139831 -0.0450602
0.00610411 0.120631 -0.388723
-0.00574877 0.352167 -0.338695
-0.0141713 0.252633 -0.24297
-0.0138272 -0.0105933 0.0101881
-0.00509404 -0.2675 0.257266
0.00672915 -0.362144 0.348289
0.0144706 -0.237118 0.228046
0.013433 0.0316607 -0.0304495
0.00412486 0.273128 -0.26268
0.000496814 0.335174 0.0292703
0.00122471 0.240444 0.0209977
0.00119497 -0.0100821 -0.000880451
0.000440227 -0.254592 -0.0222331
-0.000581544 -0.344672 -0.0300996
-0.00125057 -0.225675 -0.0197081
-0.0011609 0.030133 0.00263147
-0.000356474 0.259949 0.0227011
0.00644104 0.114869 0.37948
0.015878 0.0824043 0.272225
0.0154924 -0.00345528 -0.0114149
0.00570744 -0.0872526 -0.288242
-0.00753956 -0.118124 -0.390229
-0.0162132 -0.077343 -0.255509
-0.0150507 0.0103271 0.034116
-0.00462157 0.0890886 0.294312
0.00847821 -0.175114 0.499503
0.0208961 -0.125547 0.358263
0.0203887 0.00526434 -0.0150225
0.00751125 0.132934 -0.379343
-0.0099224 0.179967 -0.513562
-0.0213372 0.117836 -0.336261
-0.0198074 -0.015735 0.0448994
-0.00608329 -0.135812 0.387397
0.00537262 -0.358875 0.316534
0.0128589 -0.25003 0.220531
0.0125451 0.010479 -0.00924264
0.00462167 0.264632 -0.23341
-0.00610525 0.358263 -0.315994
-0.0131288 0.234576 -0.2069
-0.0121886 -0.0314012 0.0276964
-0.00385496 -0.278331 0.245493
0 -0.225406 0
0 -0.170501 0
0 0.00714583 0
0 0.180458 0
0 0.244307 0
0 0.159962 0
0 -0.0214132 0
0 -0.174817 0
-0.0791534 -0.0886777 -0.338122
-0.195121 -0.0637643 -0.24256
-0.190386 0.00267383 0.0101709
-0.0701375 0.067518 0.256832
0.0926533 0.0914074 0.347701
0.19924 0.0598499 0.227661
0.184958 -0.00798998 -0.0303981
0.0567942 -0.0687754 -0.262236
-0.110293 0.101841 -0.471144
-0.271884 0.0730559 -0.337986
-0.265285 -0.00306334 0.0141721
-0.0977311 -0.0773547 0.357872
0.129104 -0.104724 0.484493
0.277623 -0.0685686 0.317227
0.257722 0.00915558 -0.0423571
0.0791377 0.0789845 -0.365403
-0.0745309 0.230585 -0.318376
-0.183728 0.165415 -0.228394
-0.179266 -0.00693599 0.00957683
-0.0660425 -0.175147 0.241833
0.0872419 -0.237118 0.327397
0.187608 -0.155255 0.214364
0.174155 0.0207302 -0.0286228
0.0534774 0.178834 -0.246922
0.00644104 0.219458 0.0275144
0.015878 0.157434 0.0197381
0.0154924 -0.00660133 -0.000827632
0.00570744 -0.166697 -0.0208994
-0.00753956 -0.225675 -0.0282937
-0.0162132 -0.147763 -0.0185257
-0.0150507 0.0197299 0.00247362
-0.00462157 0.170204 0.0213392
0.0835059 0.0752118 0.356715
0.20585 0.0539547 0.255896
0.200851 -0.00226239 -0.0107301
0.0739944 -0.0571295 -0.270951
-0.0977471 -0.077343 -0.366821
-0.210196 -0.0506408 -0.240181
-0.195126 0.00676173 0.0320696
-0.0599172 0.0583317 0.276656
0.109917 -0.114657 0.469537
0.270907 -0.0822042 0.336773
0.26433 0.00344686 -0.0141212
0.09738 0.0870394 -0.356587
-0.128641 0.117836 -0.482753
-0.276626 0.0771544 -0.316088
-0.256797 -0.0103027 0.0422058
-0.0788679 -0.0889244 0.364157
0.0696543 -0.234977 0.297545
0.166711 -0.16371 0.207301
0.162644 0.00686122 -0.00868817
0.0599184 0.173271 -0.219407
-0.0791525 0.234576 -0.297037
-0.170211 0.153591 -0.194488
-0.158021 -0.0205603 0.0260349
-0.0499783 -0.18224 0.230765
0 0.0301737 0
0 0.0228239 0
0 -0.000956568 0
0 -0.0241568 0
0 -0.0327038 0
0 -0.0214132 0
0 0.00286645 0
0 0.0234017 0
-0.104188 0.0118707 -0.111443
-0.256791 0.00851287 -0.0799829
-0.250554 -0.000356943 0.00335382
-0.0923053 -0.00901348 0.0846903
0.121936 -0.0122026 0.114654
0.26221 -0.0079898 0.075071
0.243412 0.00106702 -0.0100231
0.0747571 0.00920653 -0.0864315
-0.145177 -0.0136328 -0.155286
-0.357815 -0.00975505 -0.111449
-0.349125 0.000409012 0.00467325
-0.128619 0.0103284 0.118008
0.169907 0.0139827 0.159761
0.365369 0.00915537 0.104605
0.339174 -0.00122287 -0.0139663
0.104167 -0.0105732 -0.120435
-0.0981036 -0.0308669 -0.104935
-0.241795 -0.0220874 -0.0753119
-0.235922 0.000926092 0.00315797
-0.0869143 0.0233858 0.079744
0.114814 0.0316599 0.107958
0.246899 0.0207297 0.0706869
0.229196 -0.00276879 -0.00943778
0.0703913 -0.0239393 -0.081384
0.00847821 -0.0293775 0.00906859
0.0208961 -0.0210216 0.00650854
0.0203887 0.000881401 -0.000272913
0.00751125 0.0222572 -0.00689154
-0.0099224 0.0301323 -0.00932986
-0.0213372 0.0197294 -0.00610885
-0.0198074 -0.0026352 0.000815627
-0.00608329 -0.0227842 0.00703328
0.109917 -0.0100681 0.117571
0.270907 -0.00720447 0.0843813
0.26433 0.000302072 -0.00353823
0.09738 0.00762797 -0.0893469
-0.128641 0.0103268 -0.120959
-0.276626 0.00676157 -0.0791992
-0.256797 -0.000903129 0.0105743
-0.0788679 -0.00780849 0.0911843
0.144682 0.0153485 0.154757
0.356531 0.0109773 0.111049
0.347871 -0.000460258 -0.00465644
0.128158 -0.0116224 -0.117583
-0.169296 -0.0157346 -0.159187
-0.364058 -0.0103024 -0.104229
-0.337954 0.00137614 0.0139165
-0.103812 0.0119037 0.120024
0.0916846 0.0314549 0.098069
0.219439 0.0219148 0.0683253
0.214085 -0.000918468 -0.00286357
0.0788695 -0.0231946 -0.0723154
-0.104187 -0.0314012 -0.0979017
-0.224045 -0.0205603 -0.0641021
-0.208 0.00275228 0.00858095
-0.0657855 0.0243953 0.0760589
0 0.26745 0
0 0.186334 0
0 -0.00780942 0
0 -0.197216 0
0 -0.266994 0
0 -0.174817 0
0 0.0234017 0
0 0.207425 0
-0.0660237 0.105218 0.182836
-0.158022 0.0733064 0.127383
-0.154166 -0.00307233 -0.00533872
-0.0567953 -0.0775875 -0.134822
0.0750269 -0.105039 -0.182524
0.161339 -0.0687754 -0.119509
0.149785 0.00920653 0.015998
0.0473734 0.0816039 0.141801
-0.0919983 -0.120837 0.254766
-0.22019 -0.0841882 0.177497
-0.214817 0.0035284 -0.00743905
-0.0791394 0.0891047 -0.187863
0.104543 0.120631 -0.254331
0.224812 0.0789845 -0.166526
0.208712 -0.0105732 0.0222918
0.0660107 -0.0937173 0.197588
-0.062168 -0.273595 0.172158
-0.148794 -0.190615 0.119944
-0.145163 0.00798884 -0.00502695
-0.0534785 0.201747 -0.126949
0.0706454 0.273128 -0.171865
0.151917 0.178834 -0.11253
0.141037 -0.0239393 0.0150637
0.0446068 -0.212191 0.13352
0.00537262 -0.260393 -0.0148781
0.0128589 -0.181418 -0.0103657
0.0125451 0.00760337 0.000434434
0.00462167 0.192012 0.010971
-0.00610524 0.259949 0.0148527
-0.0131288 0.170204 0.00972497
-0.0121886 -0.0227842 -0.00130182
-0.00385496 -0.201952 -0.0115389
0.0696543 -0.0892408 -0.19289
0.166711 -0.0621747 -0.134388
0.162644 0.00260579 0.00563229
0.0599184 0.0658056 0.142236
-0.0791525 0.0890886 0.192561
-0.170211 0.0583317 0.126081
-0.158021 -0.00780849 -0.0168777
-0.0499783 -0.0692121 -0.149599
0.0916846 0.136044 -0.253897
0.219439 0.0947829 -0.176892
0.214085 -0.00397243 0.00741368
0.0788695 -0.100318 0.187222
-0.104187 -0.135812 0.253464
-0.224045 -0.0889244 0.165958
-0.208 0.0119037 -0.0222158
-0.0657855 0.105511 -0.196914
0.0581003 0.278806 -0.160894
0.139058 0.194246 -0.112096
0.135665 -0.00814102 0.00469803
0.0499794 -0.20559 0.118642
-0.066023 -0.278331 0.160619
-0.141977 -0.18224 0.105167
-0.131809 0.0243953 -0.0140781
-0.0416881 0.216233 -0.124784
