# vtk DataFile Version 3.0
Velocity field
ASCII
DATASET STRUCTURED_POINTS
DIMENSIONS 5 5 5
SPACING 1.33333 1.33333 1.33333
ORIGIN 0 0 0
POINT_DATA 125
VECTORS velocity float
0 0.00550117 0
0 0.00129408 0
0 -0.00489233 0
0 -0.0035958 0
0 0.0032006 0
0 -0.002913 0.00955388
0 -0.000685248 0.00259011
0 0.00259061 -0.00979202
0 0.00190407 -0.00719701
0 -0.0016948 0.00555848
0 -0.00687166 0.00449486
0 -0.00161647 0.00121858
0 0.00611115 -0.0046069
0 0.00449162 -0.00338601
0 -0.00399796 0.00261513
0 -0.000319943 -0.00743916
0 -7.52627e-05 -0.00201679
0 0.000284534 0.00762458
0 0.000209129 0.00560397
0 -0.000186144 -0.00432813
0 0.00672114 -0.0079948
0 0.00158106 -0.00188068
0 -0.00597729 0.00710999
0 -0.00439323 0.00522575
0 0.00391038 -0.0046514
0 0.00129408 0
0 0.00038735 0
0 -0.00146439 0
0 -0.00107631 0
0 0.000752896 0
0.00408903 -0.000685248 0.00335516
0.00601691 -0.000161297 0.000789835
-0.00126101 0.000609789 -0.00298601
-0.00661018 0.000448187 -0.00219468
-0.00184766 -0.000398677 0.00195204
0.00192378 -0.00161647 0.00157852
0.00283081 -0.000380514 0.000371597
-0.000593273 0.00143855 -0.00140484
-0.00310993 0.00105732 -0.00103254
-0.000869278 -0.000940464 0.000918387
-0.00318393 -7.52627e-05 -0.0026125
-0.00468508 -1.77167e-05 -0.000615007
0.000981887 6.69788e-05 0.00232506
0.00514704 4.92285e-05 0.00170889
0.00143869 -4.37878e-05 -0.00151996
-0.00342175 0.00158106 -0.00280763
-0.00503159 0.000371926 -0.000660461
0.00105451 -0.00140608 0.0024969
0.00552771 -0.00103345 0.00183519
0.00154614 0.000919869 -0.00163349
0 -0.00489233 0
0 -0.0014644 0
0 0.00553623 0
0 0.00406906 0
0 -0.00284636 0
0.00192378 0.00259061 -0.00797536
0.00283081 0.000609789 -0.00187738
-0.000593273 -0.00230534 0.00709753
-0.00310993 -0.00169439 0.0052166
-0.000869278 0.00150722 -0.00464009
0.000905093 0.00611115 -0.00375221
0.00133182 0.00143855 -0.000883262
-0.00027912 -0.00543851 0.00333921
-0.00146314 -0.00399724 0.00245428
-0.000408974 0.00355547 -0.00218305
-0.00149796 0.000284534 0.00621004
-0.00220422 6.69788e-05 0.00146183
0.000461954 -0.000253216 -0.00552652
0.00242155 -0.000186111 -0.00406192
0.000676866 0.000165542 0.00361302
-0.00160985 -0.00597729 0.00667388
-0.00236724 -0.00140608 0.00156995
0.00049612 0.00531576 -0.00593526
0.00260065 0.00390702 -0.00436234
0.000727422 -0.00347761 0.00388289
0 -0.0035958 0
0 -0.00107632 0
0 0.00406906 0
0 0.00299071 0
0 -0.00209204 0
-0.00318393 0.00190407 -0.00710737
-0.00468508 0.000448187 -0.00167306
0.000981887 -0.00169439 0.00632508
0.00514704 -0.00124536 0.00464885
0.00143869 0.00110779 -0.00413509
-0.00149796 0.00449162 -0.00334384
-0.00220422 0.00105732 -0.000787132
0.000461954 -0.00399724 0.00297579
0.00242155 -0.00293792 0.00218717
0.000676866 0.00261322 -0.00194546
0.00247918 0.000209129 0.00553417
0.00364806 4.92285e-05 0.00130273
-0.00076455 -0.000186111 -0.00492504
-0.00400776 -0.000136789 -0.00361984
-0.00112024 0.000121671 0.0032198
0.00266435 -0.00439323 0.00594753
0.00391787 -0.00103345 0.00139908
-0.000821096 0.00390702 -0.0052893
-0.00430417 0.00287161 -0.00388756
-0.00120391 -0.002556 0.00346029
0 0.0032006 0
0 0.000752897 0
0 -0.00284636 0
0 -0.00209204 0
0 0.00186211 0
-0.00342175 -0.0016948 0.00463152
-0.00503156 -0.000398678 0.00108951
0.0010545 0.00150722 -0.00411894
0.00552768 0.00110779 -0.00302737
0.00154614 -0.000986035 0.00269464
-0.00160985 -0.00399796 0.00217902
-0.00236723 -0.000940467 0.000512586
0.000496117 0.00355548 -0.00193786
0.00260064 0.00261323 -0.0014243
0.000727422 -0.00232602 0.00126776
0.00266435 -0.000186144 -0.00360635
0.00391784 -4.37879e-05 -0.000848349
-0.000821091 0.000165542 0.00320722
-0.00430415 0.000121672 0.00235727
-0.00120391 -0.000108299 -0.00209819
0.00286336 0.00391038 -0.00387571
0.0042105 0.000919869 -0.000911713
-0.000882425 -0.00347761 0.00344678
-0.00462566 -0.002556 0.00253334
-0.00129383 0.00227507 -0.0022549
