# vtk DataFile Version 3.0
Velocity field
ASCII
DATASET STRUCTURED_POINTS
DIMENSIONS 5 5 5
SPACING 1.33333 1.33333 1.33333
ORIGIN 0 0 0
POINT_DATA 125
VECTORS velocity float
0 0.624659 0
0 0.146943 0
0 -0.555526 0
0 -0.408304 0
0 0.363429 0
0 -0.330772 1.08484
0 -0.0778101 0.294107
0 0.294165 -1.11189
0 0.216207 -0.817222
0 -0.192445 0.631167
0 -0.780279 0.510392
0 -0.183551 0.13837
0 0.693923 -0.523114
0 0.510024 -0.384482
0 -0.453969 0.296948
0 -0.0363296 -0.844718
0 -0.00854609 -0.229007
0 0.0323089 0.865773
0 0.0237466 0.636332
0 -0.0211367 -0.49146
0 0.763187 -0.907811
0 0.17953 -0.213551
0 -0.678722 0.807341
0 -0.498852 0.593385
0 0.444025 -0.528168
0 0.146943 0
0 0.0439841 0
0 -0.166284 0
0 -0.122217 0
0 0.085492 0
0.46431 -0.0778101 0.380979
0.737538 -0.0195797 0.0969165
-0.154641 0.0742066 -0.367449
-0.810472 0.0545683 -0.270227
-0.209802 -0.0452702 0.221655
0.218446 -0.183551 0.179241
0.346996 -0.0464111 0.0455971
-0.0727551 0.175922 -0.172876
-0.381309 0.129369 -0.127136
-0.0987067 -0.106791 0.104283
-0.361536 -0.00854609 -0.29665
-0.573886 -0.00218747 -0.0754129
0.120327 0.00829719 0.285909
0.630636 0.00610241 0.21026
0.163363 -0.00497215 -0.172592
-0.38854 0.17953 -0.318807
-0.571338 0.0422322 -0.0749955
0.11974 -0.159661 0.283524
0.627673 -0.117349 0.208386
0.175565 0.104451 -0.185483
0 -0.555526 0
0 -0.166284 0
0 0.628644 0
0 0.462045 0
0 -0.323207 0
0.218446 0.294165 -0.905604
0.346996 0.0742066 -0.229586
-0.0727551 -0.281278 0.870379
-0.381309 -0.206847 0.640079
-0.0987067 0.171146 -0.526884
0.102773 0.693923 -0.426064
0.163254 0.175922 -0.108016
-0.0342298 -0.666934 0.409496
-0.179398 -0.490464 0.301143
-0.046439 0.403727 -0.247886
-0.170094 0.0323089 0.705151
-0.270001 0.00829719 0.17865
0.0566114 -0.0314778 -0.677252
0.2967 -0.0231521 -0.498048
0.0768583 0.0187974 0.41026
-0.182798 -0.678722 0.75782
-0.2688 -0.159661 0.178268
0.0563345 0.603606 -0.67395
0.295304 0.443642 -0.495344
0.082599 -0.394883 0.440903
0 -0.408304 0
0 -0.122217 0
0 0.462045 0
0 0.339597 0
0 -0.237553 0
-0.361536 0.216207 -0.807043
-0.573886 0.0545688 -0.204684
0.120327 -0.206848 0.775989
0.630636 -0.152112 0.570667
0.163363 0.12579 -0.46954
-0.170094 0.510024 -0.379694
-0.270001 0.12937 -0.0962996
0.0566114 -0.490468 0.365087
0.2967 -0.360693 0.268487
0.0768583 0.296734 -0.220907
0.281511 0.0237466 0.628406
0.446554 0.00610246 0.159272
-0.0936282 -0.0231524 -0.603803
-0.490707 -0.0170289 -0.444037
-0.127203 0.0138159 0.365609
0.302538 -0.498852 0.675343
0.444874 -0.117349 0.158866
-0.0932356 0.443642 -0.600601
-0.488739 0.326072 -0.441434
-0.136704 -0.290234 0.392917
0 0.363429 0
0 0.085492 0
0 -0.323207 0
0 -0.237553 0
0 0.211444 0
-0.38854 -0.192445 0.52591
-0.571338 -0.0452702 0.123714
0.11974 0.171146 -0.467706
0.627673 0.12579 -0.343758
0.175565 -0.111965 0.305977
-0.182798 -0.453969 0.247428
-0.2688 -0.106791 0.0582043
0.0563345 0.403727 -0.220044
0.295304 0.296734 -0.16173
0.082599 -0.264121 0.143954
0.302538 -0.0211367 -0.409502
0.444874 -0.00497215 -0.0963302
-0.0932356 0.0187974 0.364181
-0.488739 0.0138159 0.267668
-0.136704 -0.0122974 -0.23825
0.325135 0.444025 -0.440088
0.478103 0.104451 -0.103525
-0.1002 -0.394883 0.391382
-0.525244 -0.290234 0.287661
-0.146915 0.258335 -0.256045
