# vtk DataFile Version 3.0
Velocity field
ASCII
DATASET STRUCTURED_POINTS
DIMENSIONS 8 8 8
SPACING 0.8 0.8 0.8
ORIGIN 0 0 0
POINT_DATA 512
VECTORS velocity float
0 0.237899 0
0 0.165746 0
0 -0.00694655 0
0 -0.175425 0
0 -0.237493 0
0 -0.155501 0
0 0.020816 0
0 0.184506 0
0 0.0935927 0.242812
0 0.0652067 0.179359
0 -0.00273286 -0.00751706
0 -0.0690147 -0.189833
0 -0.0934331 -0.256999
0 -0.0611763 -0.168273
0 0.00818928 0.0225256
0 0.0725873 0.188316
0 -0.107486 0.338337
0 -0.0748861 0.249921
0 0.00313854 -0.0104744
0 0.0792594 -0.264516
0 0.107302 -0.358106
0 0.0702574 -0.234473
0 -0.00940492 0.0313875
0 -0.0833623 0.262403
0 -0.243365 0.228632
0 -0.169554 0.168884
0 0.00710614 -0.00707808
0 0.179456 -0.178747
0 0.24295 -0.24199
0 0.159074 -0.158446
0 -0.0212942 0.0212101
0 -0.188745 0.177319
0 -0.231622 -0.0197586
0 -0.161373 -0.0145951
0 0.00676326 0.000611694
0 0.170797 0.0154475
0 0.231227 0.020913
0 0.151398 0.013693
0 -0.0202667 -0.001833
0 -0.179638 -0.0153241
0 -0.0793804 -0.256163
0 -0.0553049 -0.189221
0 0.00231787 0.00793042
0 0.0585346 0.200272
0 0.079245 0.271131
0 0.0518865 0.177526
0 -0.00694572 -0.0237642
0 -0.0615647 -0.198672
0 0.121012 -0.337183
0 0.0843101 -0.249068
0 -0.00353351 0.0104387
0 -0.0892338 0.263614
0 -0.120806 0.356884
0 -0.079099 0.233674
0 0.0105885 -0.0312804
0 0.0938531 -0.261508
0 0.248001 -0.213672
0 0.172784 -0.148867
0 -0.0072415 0.00623912
0 -0.182874 0.15756
0 -0.247578 0.213308
0 -0.162104 0.139665
0 0.0216998 -0.0186961
0 0.192341 -0.165717
0 0.165746 0
0 0.125373 0
0 -0.00525449 0
0 -0.132695 0
0 -0.179644 0
0 -0.117624 0
0 0.0157456 0
0 0.128547 0
0.0517595 0.0652067 0.239832
0.126413 0.0464252 0.170562
0.123336 -0.00194617 -0.00715003
0.0454377 -0.0491467 -0.18056
-0.0600227 -0.0665356 -0.244443
-0.129074 -0.0435647 -0.160052
-0.119825 0.00582434 0.0213991
-0.0371385 0.050572 0.186005
0.0721224 -0.0748861 0.334185
0.176147 -0.0532219 0.237663
0.171858 0.00223104 -0.00996289
0.0633129 0.0563406 -0.251592
-0.0836374 0.0762746 -0.340612
-0.179855 0.0499415 -0.223019
-0.166968 -0.00667754 0.0298177
-0.0517493 -0.0580791 0.259182
0.0487368 -0.169554 0.225826
0.11903 -0.120503 0.160602
0.116134 0.00505151 -0.00673245
0.0427839 0.127565 -0.170015
-0.056518 0.1727 -0.230169
-0.121536 0.113077 -0.150705
-0.112829 -0.0151191 0.0201494
-0.0349697 -0.1315 0.175143
-0.00421189 -0.161373 -0.0195161
-0.0102869 -0.114689 -0.0138793
-0.0100364 0.00480774 0.000581823
-0.00369742 0.12141 0.0146929
0.00488431 0.164368 0.0198913
0.0105034 0.107621 0.0130241
0.00975069 -0.0143896 -0.00174133
0.00302211 -0.125155 -0.015136
-0.0546057 -0.0553049 -0.25302
-0.133365 -0.0393059 -0.179942
-0.130118 0.0016477 0.00754315
-0.0479358 0.0416094 0.190487
0.0633234 0.0563311 0.257884
0.136172 0.0368833 0.168853
0.126414 -0.00493156 -0.0225759
0.0391807 -0.0428926 -0.196233
-0.0718765 0.0843101 -0.333045
-0.175531 0.0599036 -0.236833
-0.171257 -0.00251115 0.00992805
-0.0630915 -0.0634141 0.250712
0.0833449 -0.0858505 0.33942
0.179225 -0.0562116 0.222239
0.166384 0.00751604 -0.0297137
0.0515728 0.065388 -0.258298
-0.0455479 0.172784 -0.21105
-0.109015 0.12038 -0.14704
-0.106355 -0.0050452 0.00616256
-0.0391815 -0.12741 0.155627
0.051759 -0.172489 0.21069
0.111303 -0.112939 0.137951
0.103332 0.0151184 -0.0184667
0.0326816 0.134005 -0.163683
0 -0.00694655 0
0 -0.00525449 0
0 0.00022022 0
0 0.00556135 0
0 0.00752903 0
0 0.00492971 0
0 -0.00065991 0
0 -0.0053875 0
0.0721224 -0.00273286 0.0913732
0.176147 -0.00194617 0.064953
0.171858 8.15852e-05 -0.00272283
0.0633129 0.00206026 -0.0687597
-0.0836374 0.00278922 -0.0930871
-0.179855 0.00182628 -0.0609498
-0.166968 -0.000244155 0.00814927
-0.0517493 -0.00211952 0.0708659
0.100496 0.00313854 0.127321
0.245444 0.00223104 0.0905064
0.239468 -9.35249e-05 -0.003794
0.0882217 -0.00236179 -0.09581
-0.116542 -0.00319743 -0.12971
-0.250609 -0.00209356 -0.0849294
-0.232655 0.000279917 0.0113554
-0.0721082 0.00243414 0.0987455
0.0679106 0.00710614 0.0860371
0.165861 0.00505151 0.0611594
0.161822 -0.000211759 -0.00256383
0.0596152 -0.00534756 -0.064744
-0.0787527 -0.00723964 -0.0876516
-0.169352 -0.00474017 -0.057391
-0.157216 0.000633782 0.00767334
-0.0487272 0.00551128 0.0667274
-0.0058689 0.00676326 -0.00743541
-0.0143338 0.00480774 -0.00528551
-0.0139848 -0.000201541 0.000221568
-0.00515207 -0.00508954 0.00559526
0.00680591 -0.0068903 0.00757488
0.0146356 -0.00451147 0.00495976
0.0135868 0.0006032 -0.000663143
0.00421105 0.00524535 -0.00576665
-0.0760884 0.00231787 -0.0963977
-0.185831 0.0016477 -0.0685245
-0.181309 -6.90715e-05 0.00287256
-0.0667946 -0.00174427 0.0725399
0.0882363 -0.00236139 0.0982063
0.189743 -0.00154614 0.0643015
0.176149 0.000206726 -0.0085974
0.0545949 0.00179766 -0.0747627
-0.100154 -0.00353351 -0.126886
-0.244586 -0.00251115 -0.0901897
-0.238631 0.000105267 0.00378074
-0.0879133 0.00265831 0.0954752
0.116134 0.00359887 0.129256
0.249734 0.00235638 0.0846322
0.231841 -0.000315066 -0.0113157
0.0718623 -0.00274047 -0.0984088
-0.0634671 -0.0072415 -0.0804076
-0.151903 -0.0050452 -0.0560205
-0.148197 0.000211449 0.00234786
-0.0545961 0.00533984 0.059292
0.0721216 0.00722916 0.0802705
0.155091 0.00473336 0.0525579
0.143985 -0.000633626 -0.0070356
0.0455389 -0.00561626 -0.0623614
0 -0.175425 0
0 -0.132695 0
0 0.00556135 0
0 0.140444 0
0 0.190135 0
0 0.124493 0
0 -0.0166651 0
0 -0.136054 0
0.0487368 -0.0690147 -0.112511
0.11903 -0.0491467 -0.0799784
0.116134 0.00206026 0.0033527
0.0427839 0.0520278 0.084666
-0.056518 0.0704362 0.114622
-0.121536 0.0461185 0.0750492
-0.112829 -0.00616565 -0.0100344
-0.0349697 -0.0535254 -0.0872598
0.0679106 0.0792594 -0.156775
0.165861 0.0563406 -0.111443
0.161822 -0.00236179 0.00467165
0.0596152 -0.059642 0.117975
-0.0787527 -0.0807452 0.159715
-0.169352 -0.0528687 0.104575
-0.157216 0.00706876 -0.0139821
-0.0487272 0.0614708 -0.121589
0.0458906 0.179456 -0.105941
0.11208 0.127565 -0.0753074
0.109352 -0.00534756 0.00315688
0.0402855 -0.135042 0.0797211
-0.0532173 -0.182823 0.107928
-0.11444 -0.119703 0.0706668
-0.106239 0.0160049 -0.0094484
-0.0329275 0.13918 -0.0821639
-0.00396592 0.170797 0.00915549
-0.00968604 0.12141 0.00650816
-0.00945021 -0.00508954 -0.000272822
-0.00348153 -0.128525 -0.0068896
0.00459905 -0.174 -0.00932715
0.00988993 -0.113929 -0.00610707
0.00918122 0.0152326 0.000816541
0.00284562 0.132464 0.00710069
-0.0514168 0.0585346 0.118698
-0.125576 0.0416094 0.0843765
-0.122519 -0.00174427 -0.00353705
-0.0451368 -0.0440479 -0.0893213
0.0596251 -0.0596321 -0.120923
0.128219 -0.039045 -0.0791763
0.119031 0.00522049 0.0105862
0.0368926 0.0453974 0.0920581
-0.0676789 -0.0892338 0.15624
-0.165281 -0.0634141 0.111053
-0.161257 0.00265831 -0.00465532
-0.0594069 0.0671301 -0.117562
0.0784773 0.0908822 -0.159157
0.168759 0.0595055 -0.104209
0.156667 -0.00795638 0.0139334
0.048561 -0.0692066 0.121174
-0.042888 -0.182874 0.0990088
-0.102649 -0.12741 0.0689801
-0.100144 0.00533984 -0.00289101
-0.0368934 0.13485 -0.0730085
0.0487363 0.182562 -0.0988399
0.104803 0.119534 -0.0647165
0.0972978 -0.0160013 0.00866319
0.030773 -0.141831 0.0767878
0 -0.237493 0
0 -0.179644 0
0 0.00752903 0
0 0.190135 0
0 0.257408 0
0 0.16854 0
0 -0.0225615 0
0 -0.184192 0
-0.00421189 -0.0934331 -0.248148
-0.0102869 -0.0665356 -0.176395
-0.0100364 0.00278922 0.00739449
-0.00369743 0.0704362 0.186732
0.00488431 0.0953571 0.2528
0.0105034 0.062436 0.165525
0.00975069 -0.00834717 -0.0221314
0.00302211 -0.0724635 -0.192455
-0.0058689 0.107302 -0.345772
-0.0143338 0.0762746 -0.24579
-0.0139848 -0.00319743 0.0103036
-0.00515207 -0.0807452 0.260196
0.00680591 -0.109314 0.352258
0.0146356 -0.0715745 0.230645
0.0135868 0.00956976 -0.030838
0.00421105 0.0832201 -0.268169
-0.00396592 0.24295 -0.233656
-0.00968604 0.1727 -0.166094
-0.00945021 -0.00723964 0.00696269
-0.00348152 -0.182823 0.175828
0.00459905 -0.247505 0.238036
0.00988993 -0.162058 0.155858
0.00918122 0.0216677 -0.0208389
0.00284562 0.188424 -0.181216
0.000342738 0.231227 0.0201928
0.000837082 0.164368 0.014354
0.000816701 -0.0068903 -0.000601716
0.000300874 -0.174 -0.0151951
-0.000397457 -0.235566 -0.0205716
-0.000854701 -0.154237 -0.0134695
-0.000793454 0.0206222 0.00180092
-0.000245922 0.179332 0.0156608
0.00444349 0.079245 0.261793
0.0108525 0.0563311 0.186094
0.0105883 -0.00236139 -0.00780104
0.00390072 -0.0596321 -0.197
-0.00515292 -0.0807317 -0.266703
-0.0110809 -0.0528598 -0.174627
-0.0102869 0.00706758 0.0233482
-0.00318829 0.0614597 0.203038
0.00584888 -0.120806 0.344593
0.0142837 -0.0858505 0.244931
0.013936 0.00359887 -0.0102676
0.00513406 0.0908822 -0.259286
-0.00678211 0.123037 -0.351027
-0.0145843 0.0805602 -0.229838
-0.0135393 -0.0107714 0.0307304
-0.00419669 -0.093693 0.267255
0.00370642 -0.247578 0.218368
0.008871 -0.172489 0.152138
0.00865454 0.00722916 -0.00637624
0.00318836 0.182562 -0.161023
-0.00421184 0.247156 -0.217995
-0.00905719 0.161828 -0.142735
-0.00840858 -0.0216628 0.019107
-0.00265943 -0.192013 0.169359
0 -0.155501 0
0 -0.117624 0
0 0.00492971 0
0 0.124493 0
0 0.16854 0
0 0.110354 0
0 -0.0147723 0
0 -0.120601 0
-0.0546057 -0.0611763 -0.233261
-0.133365 -0.0435647 -0.165814
-0.130118 0.00182628 0.00695092
-0.0479358 0.0461185 0.175531
0.0633234 0.062436 0.237634
0.136172 0.0408809 0.155594
0.126414 -0.0054654 -0.0208037
0.0391807 -0.0474462 -0.180909
-0.0760884 0.0702574 -0.325029
-0.185831 0.0499415 -0.231046
-0.181309 -0.00209356 0.00968542
-0.0667946 -0.0528687 0.244585
0.0882363 -0.0715745 0.331126
0.189743 -0.0468638 0.216809
0.176149 0.00626589 -0.0289882
0.0545949 0.0544892 -0.252082
-0.0514168 0.159074 -0.219639
-0.125576 0.113077 -0.15613
-0.122519 -0.00474017 0.00654495
-0.0451368 -0.119703 0.16528
0.0596251 -0.162058 0.223759
0.128219 -0.106109 0.146507
0.119031 0.0141872 -0.0195887
0.0368926 0.123372 -0.170344
0.00444349 0.151398 0.0189814
0.0108525 0.107621 0.0134929
0.0105883 -0.00451147 -0.000565619
0.00390072 -0.113929 -0.0142837
-0.00515292 -0.154237 -0.0193374
-0.0110809 -0.100988 -0.0126613
-0.0102869 0.0135026 0.00169288
-0.00318829 0.117419 0.0147213
0.0576084 0.0518865 0.246088
0.140699 0.0368833 0.174931
0.137274 -0.00154614 -0.00733315
0.0505717 -0.039045 -0.185181
-0.0668057 -0.0528598 -0.250702
-0.14366 -0.0346105 -0.164151
-0.133366 0.00462755 0.0219476
-0.0413352 0.0402414 0.190857
0.0758289 -0.079099 0.323921
0.185182 -0.0562116 0.230238
0.180675 0.00235638 -0.00965157
0.0665611 0.0595055 -0.243731
-0.0879278 0.0805602 -0.329969
-0.18908 0.0527476 -0.216051
-0.175533 -0.00705272 0.0288869
-0.0544087 -0.0613464 0.251222
0.0480525 -0.162104 0.205268
0.11501 -0.112939 0.143011
0.112203 0.00473336 -0.00599372
0.0413361 0.119534 -0.151363
-0.0546051 0.161828 -0.204918
-0.117424 0.105958 -0.134172
-0.109014 -0.014184 0.0179608
-0.0344787 -0.125722 0.159199
0 0.020816 0
0 0.0157456 0
0 -0.000659909 0
0 -0.0166651 0
0 -0.0225614 0
0 -0.0147723 0
0 0.00197748 0
0 0.0161442 0
-0.0718765 0.00818928 -0.0768815
-0.175531 0.00582425 -0.054663
-0.171257 -0.000244151 0.00229147
-0.0630915 -0.00616555 0.057867
0.0833449 -0.00834704 0.0783407
0.179225 -0.00546531 0.0512944
0.166384 0.00073075 -0.00685816
0.0515728 0.00635133 -0.0596267
-0.100154 -0.00940492 -0.107128
-0.244586 -0.00667744 -0.0761681
-0.238631 0.000279912 0.00319297
-0.0879133 0.00706865 0.0806324
0.116134 0.0095696 0.109161
0.249734 0.00626579 0.0714748
0.231841 -0.000837854 -0.00955623
0.0718623 -0.00729413 -0.0830846
-0.0676789 -0.0212942 -0.0723917
-0.165281 -0.0151188 -0.0514707
-0.161257 0.000633772 0.00215767
-0.0594069 0.0160046 0.0544875
0.0784773 0.0216674 0.0737655
0.168759 0.014187 0.048299
0.156667 -0.00189705 -0.00645762
0.048561 -0.0165151 -0.0561445
0.00584888 -0.0202667 0.00625616
0.0142837 -0.0143894 0.00444816
0.013936 0.00060319 -0.000186467
0.00513407 0.0152324 -0.00470885
-0.00678211 0.0206219 -0.00637491
-0.0145843 0.0135024 -0.00417404
-0.0135393 -0.00180552 0.000558078
-0.00419669 -0.0157182 0.00485207
0.0758289 -0.00694572 0.0811091
0.185182 -0.00493148 0.0576689
0.180675 0.000206723 -0.00241748
0.0665611 0.0052204 -0.0610486
-0.0879278 0.00706746 -0.0826489
-0.18908 0.00462747 -0.0541152
-0.175533 -0.000618781 0.00723529
-0.0544087 -0.00538686 0.0629055
0.0998121 0.0105885 0.106762
0.243731 0.00751592 0.0759019
0.237797 -0.00031506 -0.00318181
0.087606 -0.00795625 -0.0803504
-0.115727 -0.0107712 -0.10878
-0.248861 -0.0070526 -0.0712246
-0.231029 0.000943083 0.00952289
-0.0716172 0.00821206 0.0828013
0.0632506 0.0216998 0.067655
0.151385 0.0151184 0.0471357
0.147691 -0.000633626 -0.0019755
0.0544099 -0.0160013 -0.0498884
-0.0718757 -0.0216628 -0.0675397
-0.154562 -0.014184 -0.0442223
-0.143494 0.00189872 0.00591976
-0.0453836 0.0168297 0.0524709
0 0.184506 0
0 0.128547 0
0 -0.0053875 0
0 -0.136054 0
0 -0.184192 0
0 -0.120601 0
0 0.0161442 0
0 0.143097 0
-0.0455479 0.0725873 0.126133
-0.109015 0.050572 0.0878779
-0.106355 -0.00211952 -0.00368304
-0.0391815 -0.0535254 -0.09301
0.051759 -0.0724635 -0.125918
0.111303 -0.0474462 -0.0824463
0.103332 0.00635133 0.0110366
0.0326816 0.0562962 0.0978247
-0.0634671 -0.0833623 0.175756
-0.151903 -0.0580791 0.12245
-0.148197 0.00243414 -0.00513199
-0.0545961 0.0614708 -0.129601
0.0721216 0.0832201 -0.175456
0.155091 0.0544892 -0.114882
0.143985 -0.00729413 0.0153785
0.0455389 -0.0646529 0.13631
-0.042888 -0.188745 0.118767
-0.102649 -0.1315 0.082746
-0.100144 0.00551128 -0.00346795
-0.0368934 0.13918 -0.0875782
0.0487363 0.188424 -0.118565
0.104803 0.123372 -0.0776315
0.0972978 -0.0165151 0.010392
0.030773 -0.146385 0.0921118
0.00370642 -0.179638 -0.010264
0.00887099 -0.125155 -0.00715099
0.00865454 0.00524535 0.000299704
0.00318836 0.132464 0.0075686
-0.00421184 0.179332 0.0102465
-0.00905719 0.117419 0.00670899
-0.00840857 -0.0157182 -0.00089809
-0.00265943 -0.139321 -0.0079604
0.0480525 -0.0615647 -0.133069
0.11501 -0.0428926 -0.0927102
0.112203 0.00179766 0.00388556
0.0413361 0.0453974 0.0981244
-0.0546051 0.0614597 0.132842
-0.117424 0.0402414 0.0869799
-0.109014 -0.00538686 -0.0116434
-0.0344787 -0.0477475 -0.103204
0.0632506 0.0938531 -0.175156
0.151385 0.065388 -0.122033
0.147691 -0.00274047 0.00511449
0.0544099 -0.0692066 0.129159
-0.0718757 -0.093693 0.174858
-0.154562 -0.0613464 0.11449
-0.143494 0.00821206 -0.015326
-0.0453836 0.0727892 -0.135845
0.0400817 0.192341 -0.110996
0.0959322 0.134005 -0.0773318
0.0935915 -0.00561626 0.00324104
0.0344794 -0.141831 0.0818479
-0.0455474 -0.192013 0.110807
-0.0979458 -0.125722 0.072552
-0.0909315 0.0168297 -0.00971207
-0.0287595 0.149173 -0.0860849
