# vtk DataFile Version 3.0
Velocity field
ASCII
DATASET STRUCTURED_POINTS
DIMENSIONS 10 10 10
SPACING 0.631579 0.631579 0.631579
ORIGIN 0 0 0
POINT_DATA 1000
VECTORS velocity float
0 0.544054 0
0 0.439104 0
0 0.164744 0
0 -0.173175 0
0 -0.444282 0
0 -0.543982 0
0 -0.433809 0
0 -0.15627 0
0 0.181559 0
0 0.449342 0
0 0.334154 0.42617
0 0.269694 0.357447
0 0.101185 0.134108
0 -0.106363 -0.140971
0 -0.272875 -0.361662
0 -0.334109 -0.442822
0 -0.266442 -0.353137
0 -0.0959799 -0.12721
0 0.111512 0.147796
0 0.275982 0.35198
0 -0.00466521 0.687921
0 -0.00376527 0.576988
0 -0.00141267 0.216476
0 0.00148496 -0.227554
0 0.00380967 -0.583792
0 0.00466459 -0.714799
0 0.00371987 -0.570031
0 0.00134 -0.205341
0 -0.00155685 0.238571
0 -0.00385306 0.568163
0 -0.341684 0.684266
0 -0.275772 0.573924
0 -0.103465 0.215326
0 0.10876 -0.226345
0 0.279024 -0.580691
0 0.341639 -0.711002
0 0.272447 -0.567003
0 0.0981429 -0.20425
0 -0.114025 0.237304
0 -0.282202 0.565145
0 -0.546879 0.416617
0 -0.441384 0.349434
0 -0.1656 0.131102
0 0.174074 -0.137811
0 0.446589 -0.353555
0 0.546807 -0.432895
0 0.436062 -0.345221
0 0.157082 -0.124358
0 -0.182502 0.144483
0 -0.451675 0.34409
0 -0.541084 -0.0117664
0 -0.436707 -0.00986896
0 -0.163845 -0.00370267
0 0.172229 0.00389214
0 0.441857 0.00998534
0 0.541012 0.0122261
0 0.431441 0.00974997
0 0.155417 0.0035122
0 -0.180568 -0.00408058
0 -0.446889 -0.00971801
0 -0.326535 -0.43561
0 -0.263545 -0.365365
0 -0.0988776 -0.137079
0 0.103937 0.144093
0 0.266653 0.369673
0 0.326491 0.45263
0 0.260367 0.360959
0 0.0937914 0.130027
0 -0.10897 -0.15107
0 -0.26969 -0.359777
0 0.0139945 -0.691392
0 0.0112949 -0.5799
0 0.00423767 -0.217569
0 -0.00445452 0.228702
0 -0.0114281 0.586738
0 -0.0139927 0.718407
0 -0.0111587 0.572908
0 -0.00401969 0.206377
0 0.00467019 -0.239775
0 0.0115583 -0.571031
0 0.349124 -0.68043
0 0.281777 -0.570706
0 0.105718 -0.214119
0 -0.111128 0.225076
0 -0.285099 0.577435
0 -0.349078 0.707016
0 -0.278379 0.563824
0 -0.10028 0.203105
0 0.116508 -0.235974
0 0.288346 -0.561977
0 0.549559 -0.406953
0 0.443547 -0.32845
0 0.166411 -0.123229
0 -0.174927 0.129535
0 -0.448778 0.332323
0 -0.549486 0.406899
0 -0.438199 0.32449
0 -0.157851 0.11689
0 0.183396 -0.135807
0 0.453889 -0.336108
0 0.439104 0
0 0.372835 0
0 0.139881 0
0 -0.14704 0
0 -0.377231 0
0 -0.461885 0
0 -0.368339 0
0 -0.132686 0
0 0.154159 0
0 0.362662 0
0.0619646 0.269694 0.471651
0.169534 0.227554 0.39812
0.208898 0.0854822 0.149564
0.167597 -0.0898628 -0.157227
0.0616336 -0.230544 -0.40337
-0.0681076 -0.282279 -0.493889
-0.171572 -0.225109 -0.393861
-0.208842 -0.0810951 -0.141888
-0.165476 0.0939669 0.164393
-0.0557492 0.222744 0.389543
0.100023 -0.00376527 0.761335
0.273661 -0.00316473 0.642642
0.337201 -0.00118873 0.241424
0.270532 0.00124964 -0.253797
0.0994885 0.00320598 -0.651116
-0.109939 0.00392539 -0.797232
-0.27695 0.00313039 -0.635768
-0.337112 0.00112771 -0.229035
-0.26711 -0.00130698 0.265363
-0.0899899 -0.00310979 0.628797
0.0994914 -0.275772 0.757291
0.272207 -0.232414 0.639227
0.33541 -0.0873071 0.240142
0.269095 0.0917816 -0.252448
0.09896 0.235466 -0.647657
-0.109355 0.288305 -0.792996
-0.275479 0.229915 -0.632389
-0.335321 0.0828267 -0.227819
-0.265691 -0.0959738 0.263953
-0.0895119 -0.227764 0.625457
0.0605755 -0.441384 0.461078
0.165734 -0.371988 0.389195
0.204215 -0.139739 0.146211
0.16384 0.1469 -0.153704
0.0602519 0.376871 -0.394327
-0.0665811 0.461445 -0.482817
-0.167727 0.36799 -0.385032
-0.204161 0.132568 -0.138707
-0.161766 -0.15361 0.160708
-0.0544995 -0.364545 0.380811
-0.00171082 -0.436707 -0.0130221
-0.00468077 -0.368046 -0.0109919
-0.00576758 -0.138258 -0.00412939
-0.00462724 0.145343 0.00434099
-0.00170168 0.372879 0.0111368
0.00188041 0.456555 0.0136361
0.00473704 0.36409 0.0108744
0.00576605 0.131162 0.00391747
0.00456872 -0.151983 -0.00453881
0.00153921 -0.360682 -0.0107551
-0.0633371 -0.263545 -0.482098
-0.17329 -0.222108 -0.406939
-0.213525 -0.0834365 -0.152876
-0.171308 0.0877117 0.160711
-0.0629988 0.225025 0.412305
0.0696161 0.275523 0.504828
0.175372 0.219722 0.402587
0.213468 0.079154 0.145031
0.169141 -0.0917189 -0.168035
0.0569841 -0.217665 -0.398171
-0.100528 0.0112949 -0.765177
-0.275039 0.00951202 -0.645877
-0.338899 0.00357308 -0.24264
-0.271894 -0.00375616 0.255074
-0.0999895 -0.00963648 0.654396
0.110492 -0.0117989 0.801246
0.278345 -0.00940936 0.638969
0.338809 -0.00338969 0.230188
0.268454 0.00392808 -0.266699
0.0904441 0.00932863 -0.63197
-0.0989336 0.281777 -0.753045
-0.270503 0.237093 -0.635244
-0.333307 0.0890589 -0.238639
-0.267408 -0.0936222 0.250867
-0.0983394 -0.240188 0.643603
0.108669 -0.294088 0.788031
0.273752 -0.234527 0.62843
0.333219 -0.0844875 0.226392
0.264027 0.0979133 -0.262316
0.0890101 0.232723 -0.62195
-0.0591704 0.443547 -0.450383
-0.154683 0.357985 -0.363502
-0.190518 0.13431 -0.13638
-0.152849 -0.141183 0.143359
-0.0562104 -0.362207 0.367789
0.0621148 -0.443488 0.450323
0.156476 -0.353669 0.359119
0.190467 -0.127401 0.129365
0.150975 0.148019 -0.1503
0.0532353 0.366332 -0.371977
0 0.164744 0
0 0.139881 0
0 0.0524811 0
0 -0.0551667 0
0 -0.141531 0
0 -0.173291 0
0 -0.138195 0
0 -0.0497815 0
0 0.0578377 0
0 0.136065 0
0.100023 0.101185 0.335165
0.273661 0.0854822 0.282847
0.337201 0.0321138 0.106259
0.270532 -0.0337596 -0.111704
0.0994885 -0.0866103 -0.286579
-0.109939 -0.106046 -0.350889
-0.27695 -0.0845689 -0.279824
-0.337112 -0.0304658 -0.100807
-0.26711 0.0352973 0.116793
-0.0899899 0.0835698 0.276817
0.161456 -0.00141267 0.54102
0.441742 -0.00118873 0.45657
0.544307 -0.000446533 0.171523
0.436692 0.000469412 -0.180313
0.160594 0.00120428 -0.462594
-0.177462 0.00147454 -0.566403
-0.447052 0.0011759 -0.45169
-0.544162 0.000423614 -0.162721
-0.431166 -0.000490905 0.188527
-0.145261 -0.00116674 0.446836
0.160598 -0.103465 0.538146
0.439395 -0.0873071 0.454144
0.541415 -0.0327992 0.170611
0.434372 0.0344801 -0.179355
0.15974 0.0884589 -0.460137
-0.176519 0.10831 -0.563394
-0.444677 0.0863738 -0.44929
-0.541272 0.0311161 -0.161856
-0.428876 -0.0360511 0.187525
-0.144489 -0.0854532 0.444463
0.0977806 -0.1656 0.327652
0.267527 -0.139739 0.276506
0.329643 -0.0524965 0.103877
0.264469 0.0551868 -0.109201
0.0972582 0.141582 -0.280155
-0.107474 0.173354 -0.343024
-0.270743 0.138245 -0.273551
-0.329556 0.0498026 -0.0985466
-0.261122 -0.0577012 0.114175
-0.0879727 -0.136771 0.270612
-0.00276158 -0.163845 -0.00925375
-0.00755565 -0.138258 -0.00780931
-0.00930996 -0.0519402 -0.00293378
-0.00746927 0.0546021 0.00308411
-0.00274683 0.140082 0.00791237
0.00303536 0.171517 0.00968792
0.00764649 0.13678 0.00772581
0.00930749 0.0492748 0.00278321
0.00737481 -0.0570898 -0.00322461
0.00248458 -0.135322 -0.0076428
-0.102238 -0.0988776 -0.342589
-0.279723 -0.0834365 -0.289112
-0.34467 -0.031345 -0.108613
-0.276524 0.0329514 0.114179
-0.101692 0.084537 0.292928
0.112374 0.103508 0.358662
0.283085 0.0825446 0.286022
0.344579 0.0297366 0.103039
0.273026 -0.0344526 -0.11938
0.0919833 -0.0816643 -0.282949
-0.162271 0.00423767 -0.543751
-0.443965 0.00357308 -0.458868
-0.547047 0.00134226 -0.172386
-0.438891 -0.00141105 0.181221
-0.161402 -0.00362005 0.464923
0.178356 -0.00443242 0.569255
0.449302 -0.00353472 0.453964
0.546902 -0.00127338 0.16354
0.433337 0.00147547 -0.189476
0.145994 0.00349995 -0.449091
-0.159698 0.105718 -0.535129
-0.436644 0.0890588 -0.451312
-0.538021 0.0334547 -0.169543
-0.431648 -0.0351691 0.178231
-0.158738 -0.0902265 0.457254
0.175412 -0.110474 0.559864
0.441889 -0.0880998 0.446476
0.537878 -0.0317378 0.160842
0.42619 0.0367771 -0.186362
0.143679 0.0873138 -0.441971
-0.0955125 0.166411 -0.320051
-0.249688 0.13431 -0.258312
-0.307532 0.0503908 -0.0969143
-0.246728 -0.0529695 0.101874
-0.0907343 -0.135894 0.261358
0.100265 -0.166389 0.320009
0.252582 -0.132691 0.255197
0.30745 -0.0477988 0.0919292
0.243702 0.0555341 -0.106806
0.0859321 0.137442 -0.264335
0 -0.173175 0
0 -0.14704 0
0 -0.0551667 0
0 0.0579898 0
0 0.148773 0
0 0.182159 0
0 0.145267 0
0 0.052329 0
0 -0.0607974 0
0 -0.143027 0
0.0994914 -0.106363 0.0693698
0.272207 -0.0898628 0.0585407
0.33541 -0.0337596 0.0219923
0.269095 0.0354897 -0.0231194
0.09896 0.0910493 -0.0593132
-0.109355 0.111481 -0.0726234
-0.275479 0.0889027 -0.0579149
-0.335321 0.0320272 -0.0208638
-0.265691 -0.0371059 0.0241726
-0.0895119 -0.0878464 0.0572934
0.160598 0.00148496 0.111976
0.439395 0.00124964 0.0944956
0.541415 0.000469412 0.0354999
0.434372 -0.000493468 -0.0373193
0.15974 -0.00126599 -0.0957428
-0.176519 -0.0015501 -0.117228
-0.444677 -0.00123616 -0.0934858
-0.541272 -0.000445318 -0.0336782
-0.428876 0.000516056 0.0390192
-0.144489 0.00122645 0.0924827
0.159745 0.10876 0.111381
0.437062 0.0917816 0.0939936
0.538539 0.0344801 0.0353113
0.432065 -0.0362472 -0.037121
0.158892 -0.0929924 -0.0952341
-0.175582 -0.113861 -0.116605
-0.442315 -0.0908005 -0.0929893
-0.538397 -0.0327107 -0.0334993
-0.426598 0.0378984 0.038812
-0.143722 0.0898261 0.0919914
0.0972612 0.174074 0.0678147
0.266106 0.1469 0.0572283
0.327892 0.0551868 0.0214994
0.263064 -0.058015 -0.0226012
0.0967417 -0.148838 -0.0579834
-0.106903 -0.182239 -0.0709953
-0.269304 -0.14533 -0.0566167
-0.327805 -0.0523549 -0.0203961
-0.259735 0.0606577 0.0236307
-0.0875054 0.14377 0.0560091
-0.00274691 0.172229 -0.00191527
-0.0075155 0.145343 -0.00161628
-0.00926048 0.0546021 -0.000607199
-0.00742963 -0.0574002 0.000638318
-0.00273225 -0.147261 0.00163761
0.00301924 -0.180307 0.0020051
0.00760588 -0.14379 0.00159901
0.00925804 -0.0518001 0.00057604
0.00733562 0.060015 -0.000667395
0.00247138 0.142247 -0.00158185
-0.101695 0.103937 -0.0709063
-0.278237 0.0877117 -0.0598372
-0.342839 0.0329514 -0.0224795
-0.275056 -0.0346399 0.0236315
-0.101152 -0.0888691 0.0606268
0.111777 -0.108812 0.0742321
0.281582 -0.0867745 0.0591979
0.342748 -0.0312604 0.0213259
0.271576 0.036218 -0.024708
0.0914946 0.0858433 -0.0585625
-0.161409 -0.00445452 -0.112541
-0.441607 -0.00375616 -0.0949714
-0.544141 -0.00141105 -0.0356786
-0.436559 0.00148336 0.0375072
-0.160545 0.00380556 0.0962246
0.177408 0.00465955 0.117818
0.446915 0.00371586 0.0939565
0.543996 0.00133863 0.0338477
0.431035 -0.00155107 -0.0392156
0.145219 -0.00367905 -0.0929494
-0.15885 -0.111128 -0.110757
-0.434324 -0.0936222 -0.0934081
-0.535163 -0.0351691 -0.0350901
-0.429354 0.0369712 0.0368884
-0.157895 0.09485 0.0946376
0.174481 0.116135 0.115875
0.439542 0.0926143 0.092407
0.535021 0.0333641 0.0332895
0.423926 -0.0386614 -0.0385712
0.142916 -0.0917819 -0.0914756
-0.0950051 -0.174927 -0.0662417
-0.248362 -0.141183 -0.0534634
-0.305898 -0.0529695 -0.0200586
-0.245417 0.0556801 0.021085
-0.0902523 0.142848 0.0540939
0.0997326 0.174904 0.0662329
0.25124 0.139481 0.0528188
0.305817 0.0502448 0.0190268
0.242408 -0.0583759 -0.0221059
0.0854756 -0.144475 -0.0547099
0 -0.444282 0
0 -0.377231 0
0 -0.141531 0
0 0.148773 0
0 0.38168 0
0 0.467331 0
0 0.372683 0
0 0.134251 0
0 -0.155976 0
0 -0.366938 0
0.0605755 -0.272875 -0.223189
0.165734 -0.230544 -0.188346
0.204215 -0.0866103 -0.0707575
0.16384 0.0910493 0.0743838
0.0602519 0.233587 0.190832
-0.0665811 0.286005 0.233656
-0.167727 0.228081 0.186334
-0.204161 0.0821661 0.0671266
-0.161766 -0.0951957 -0.0777721
-0.0544995 -0.225371 -0.184335
0.0977806 0.00380967 -0.360269
0.267527 0.00320598 -0.304028
0.329643 0.00120428 -0.114216
0.264469 -0.00126598 0.120069
0.0972582 -0.00324793 0.308039
-0.107474 -0.00397681 0.377166
-0.270742 -0.00317135 0.300779
-0.329556 -0.00114247 0.108355
-0.261122 0.00132394 -0.125539
-0.0879727 0.00314646 -0.297551
0.0972612 0.279024 -0.358355
0.266106 0.235466 -0.302413
0.327892 0.0884589 -0.11361
0.263064 -0.0929924 0.119432
0.0967417 -0.238573 0.306403
-0.106903 -0.292111 0.375162
-0.269304 -0.232949 0.299182
-0.327805 -0.0839198 0.10778
-0.259735 0.0972285 -0.124872
-0.0875054 0.23045 -0.295971
0.0592177 0.446589 -0.218185
0.162019 0.376871 -0.184125
0.199637 0.141582 -0.0691712
0.160166 -0.148838 0.0727164
0.0589015 -0.381845 0.186554
-0.0650884 -0.467534 0.228418
-0.163967 -0.372844 0.182157
-0.199584 -0.134317 0.0656219
-0.15814 0.155618 -0.0760288
-0.0532778 0.368844 -0.180202
-0.00167246 0.441857 0.00616214
-0.00457585 0.372879 0.00520017
-0.00563826 0.140082 0.00195359
-0.00452353 -0.147261 -0.0020537
-0.00166353 -0.377799 -0.00526879
0.00183828 -0.462579 -0.00645113
0.00463084 -0.368894 -0.00514459
0.00563677 -0.132894 -0.00185334
0.00446631 0.153969 0.00214725
0.00150471 0.364935 0.0050894
-0.0619173 0.266653 0.228132
-0.169405 0.225025 0.192518
-0.208738 0.084537 0.072325
-0.167469 -0.0888691 -0.0760313
-0.0615866 -0.227995 -0.195059
0.0680557 -0.279158 -0.238831
0.171442 -0.22262 -0.190461
0.208683 -0.0801988 -0.0686134
0.16535 0.0929176 0.0794946
0.0557067 0.220232 0.188418
-0.098274 -0.0114281 0.362087
-0.268873 -0.00963648 0.305559
-0.331303 -0.00362005 0.114791
-0.2658 0.00380556 -0.120674
-0.0977478 0.00976316 -0.30959
0.108016 0.0119541 -0.379064
0.272105 0.00953308 -0.302293
0.331215 0.00343427 -0.108901
0.262437 -0.00397927 0.126171
0.0884166 -0.00943864 0.299053
-0.0967159 -0.285099 0.356346
-0.264439 -0.240188 0.300528
-0.325835 -0.0902265 0.112898
-0.261414 0.09485 -0.118684
-0.0961349 0.243338 -0.304485
0.106233 0.297945 -0.372813
0.267616 0.237603 -0.297307
0.325749 0.0855958 -0.107104
0.258108 -0.0991861 0.124097
0.0870148 -0.235467 0.294311
-0.057844 -0.448778 0.213124
-0.151215 -0.362207 0.172012
-0.186247 -0.135894 0.0645359
-0.149423 0.142848 -0.0678385
-0.0549503 0.366478 -0.17404
0.0607224 0.448718 -0.213096
0.152968 0.357839 -0.169938
0.186197 0.128904 -0.0612163
0.14759 -0.149764 0.0711229
0.052042 -0.370652 0.176022
0 -0.543982 0
0 -0.461885 0
0 -0.173291 0
0 0.182159 0
0 0.467331 0
0 0.572204 0
0 0.456315 0
0 0.164377 0
0 -0.190979 0
0 -0.449282 0
-0.00171082 -0.334109 -0.429639
-0.00468077 -0.282279 -0.362569
-0.00576758 -0.106046 -0.136209
-0.00462724 0.111481 0.143189
-0.00170168 0.286005 0.367354
0.00188041 0.350186 0.449789
0.00473704 0.279263 0.358693
0.00576605 0.100605 0.129219
0.00456872 -0.116558 -0.149712
0.00153921 -0.275945 -0.354845
-0.00276158 0.00466459 -0.69352
-0.00755565 0.00392539 -0.585256
-0.00930996 0.00147454 -0.219867
-0.00746927 -0.0015501 0.231134
-0.00274683 -0.00397681 0.592979
0.00303536 -0.0048692 0.726047
0.00764649 -0.00388304 0.579001
0.00930749 -0.00139884 0.208584
0.00737482 0.00162105 -0.241663
0.00248458 0.00385255 -0.572788
-0.00274691 0.341639 -0.689836
-0.0075155 0.288305 -0.582147
-0.00926048 0.10831 -0.218699
-0.00742963 -0.113861 0.229907
-0.00273225 -0.292111 0.589828
0.00301924 -0.357661 0.722189
0.00760588 -0.285224 0.575924
0.00925803 -0.102752 0.207476
0.00733562 0.119047 -0.24038
0.00247138 0.282164 -0.569745
-0.00167246 0.546807 -0.420008
-0.00457585 0.461445 -0.35444
-0.00563826 0.173354 -0.133155
-0.00452353 -0.182239 0.139979
-0.00166353 -0.467534 0.359118
0.00183828 -0.572451 0.439706
0.00463084 -0.456514 0.350652
0.00563677 -0.164459 0.126322
0.00446631 0.19054 -0.146356
0.00150471 0.451615 -0.346891
4.72349e-05 0.541012 0.0118621
0.000129233 0.456555 0.0100103
0.000159241 0.171517 0.00376064
0.000127757 -0.180307 -0.0039534
4.69827e-05 -0.462579 -0.0101424
-5.1917e-05 -0.566385 -0.0124184
-0.00013079 -0.451676 -0.0099034
-0.000159199 -0.162716 -0.00356768
-0.00012614 0.188521 0.00413348
-4.2497e-05 0.446829 0.00979711
0.00174871 0.326491 0.439156
0.00478444 0.275523 0.3706
0.00589535 0.103508 0.139225
0.00472976 -0.108812 -0.146361
0.00173937 -0.279158 -0.375489
-0.00192208 -0.341803 -0.459752
-0.00484198 -0.272578 -0.36664
-0.00589378 -0.098196 -0.132081
-0.00466992 0.113769 0.153028
-0.00157331 0.269653 0.362705
0.00277552 -0.0139927 0.69702
0.00759371 -0.0117989 0.588202
0.00935685 -0.00443242 0.220974
0.00750685 0.00465955 -0.232298
0.00276065 0.0119541 -0.595964
-0.00305064 0.0146367 -0.729703
-0.00768498 0.0116723 -0.581916
-0.00935437 0.00420494 -0.209634
-0.00741192 -0.00487225 0.24288
-0.00249712 -0.0115567 0.575679
0.00273151 -0.349078 0.685969
0.00746847 -0.294088 0.578517
0.00920243 -0.110474 0.21733
0.00738306 0.116135 -0.228467
0.00271512 0.297945 -0.586134
-0.0030003 0.364806 -0.717665
-0.00755815 0.290923 -0.572317
-0.00919999 0.104804 -0.206176
-0.00728967 -0.121444 0.238888
-0.00245753 -0.288308 0.566551
0.00163367 -0.549486 0.410265
0.00427073 -0.443488 0.331124
0.00526011 -0.166389 0.124232
0.0042201 0.174904 -0.130589
0.00155194 0.448718 -0.335028
-0.00171496 0.549413 -0.410211
-0.00432022 0.438141 -0.327131
-0.00525871 0.15783 -0.117842
-0.00416835 -0.183372 0.136912
-0.0014698 -0.453828 0.338844
0 -0.433809 0
0 -0.368339 0
0 -0.138195 0
0 0.145267 0
0 0.372683 0
0 0.456315 0
0 0.363898 0
0 0.131086 0
0 -0.1523 0
0 -0.358289 0
-0.0633371 -0.266442 -0.470332
-0.17329 -0.225109 -0.396909
-0.213525 -0.0845689 -0.14911
-0.171308 0.0889027 0.15675
-0.0629989 0.228081 0.402147
0.0696161 0.279263 0.49239
0.175372 0.222704 0.392666
0.213468 0.0802291 0.141458
0.169141 -0.0929516 -0.163892
0.0569841 -0.220058 -0.388453
-0.102238 0.00371987 -0.759206
-0.279723 0.00313039 -0.640686
-0.34467 0.0011759 -0.240691
-0.276524 -0.00123616 0.253026
-0.101692 -0.00317135 0.649141
0.112374 -0.00388304 0.794812
0.283085 -0.00309661 0.633838
0.344579 -0.00111555 0.22834
0.273026 0.00129274 -0.264553
0.0919833 0.00307229 -0.627039
-0.101695 0.272447 -0.755173
-0.278237 0.229915 -0.637282
-0.342839 0.0863738 -0.239412
-0.275056 -0.0908005 0.251682
-0.101152 -0.232949 0.645692
0.111777 -0.285224 0.79059
0.281582 -0.227458 0.63047
0.342748 -0.0819417 0.227127
0.271576 0.0949366 -0.263147
0.0914946 0.225018 -0.623708
-0.0619173 0.436062 -0.459789
-0.169405 0.36799 -0.388011
-0.208738 0.138245 -0.145767
-0.167469 -0.14533 0.153237
-0.0615866 -0.372844 0.39313
0.0680557 -0.456514 0.481351
0.171442 -0.364057 0.383864
0.208683 -0.131151 0.138286
0.16535 0.15195 -0.160217
0.0557067 0.36015 -0.379746
0.00174871 0.431441 0.0129857
0.00478444 0.36409 0.0109585
0.00589535 0.13678 0.00411683
0.00472976 -0.14379 -0.00432782
0.00173937 -0.368894 -0.011103
-0.00192208 -0.451676 -0.0135947
-0.00484198 -0.360198 -0.0108414
-0.00589378 -0.129761 -0.00390559
-0.00466992 0.15034 0.00452497
-0.00157331 0.356333 0.010725
0.0647401 0.260367 0.48075
0.177128 0.219722 0.405701
0.218255 0.0825446 0.152412
0.175103 -0.0867745 -0.160223
0.0643943 -0.22262 -0.411053
-0.0711584 -0.272578 -0.503297
-0.179257 -0.217374 -0.401365
-0.218197 -0.0783083 -0.144591
-0.172888 0.0907276 0.167522
-0.0582463 0.215041 0.397058
0.102754 -0.0111587 0.763037
0.281131 -0.00940936 0.643911
0.346405 -0.00353472 0.241903
0.277916 0.00371586 -0.254301
0.102204 0.00953308 -0.652409
-0.11294 0.0116723 -0.798814
-0.284511 0.00930834 -0.637029
-0.346314 0.00335331 -0.22949
-0.274401 -0.00388547 0.265885
-0.0924475 -0.00921615 0.630203
0.101125 -0.278379 0.750939
0.276494 -0.234527 0.633308
0.34069 -0.0880998 0.237914
0.273331 0.0926143 -0.250105
0.100518 0.237603 -0.641647
-0.111076 0.290923 -0.785637
-0.279815 0.232002 -0.62652
-0.340599 0.0835782 -0.225704
-0.269875 -0.0968483 0.261514
-0.0909817 -0.229917 0.620211
0.0604811 -0.438199 0.449123
0.158109 -0.353669 0.362486
0.194738 -0.132691 0.135998
0.156235 0.139481 -0.142958
0.0574555 0.357839 -0.36676
-0.0634906 0.438141 -0.449063
-0.159942 0.349404 -0.358115
-0.194686 0.125865 -0.129003
-0.154319 -0.146234 0.149879
-0.0544145 -0.361915 0.370937
0 -0.15627 0
0 -0.132686 0
0 -0.0497815 0
0 0.052329 0
0 0.134251 0
0 0.164377 0
0 0.131086 0
0 0.0472208 0
0 -0.0548626 0
0 -0.129066 0
-0.100528 -0.0959799 -0.329567
-0.275039 -0.0810952 -0.278121
-0.338899 -0.0304659 -0.104484
-0.271894 0.0320272 0.109839
-0.0999895 0.0821662 0.281792
0.110492 0.100605 0.345028
0.278345 0.0802291 0.27515
0.338809 0.0289025 0.0991225
0.268454 -0.0334855 -0.114842
0.0904441 -0.0792711 -0.272194
-0.162271 0.00134 -0.531984
-0.443965 0.00112771 -0.448941
-0.547047 0.000423615 -0.168658
-0.438891 -0.000445318 0.1773
-0.161402 -0.00114247 0.454867
0.178356 -0.00139884 0.55694
0.449302 -0.00111555 0.444144
0.546902 -0.000401874 0.160003
0.433337 0.000465705 -0.185377
0.145994 0.00110672 -0.439373
-0.161409 0.0981429 -0.529158
-0.441607 0.0828268 -0.446556
-0.544141 0.0311161 -0.167762
-0.436559 -0.0327108 0.176359
-0.160545 -0.0839199 0.452451
0.177408 -0.102752 0.553982
0.446915 -0.0819418 0.441785
0.543996 -0.0295195 0.159152
0.431035 0.0342007 -0.184393
0.145219 0.0810576 -0.437039
-0.098274 0.157082 -0.322179
-0.268873 0.132568 -0.271887
-0.331303 0.0498027 -0.102142
-0.2658 -0.052355 0.107376
-0.0977478 -0.134317 0.275475
0.108016 -0.164459 0.337294
0.272105 -0.131151 0.268982
0.331215 -0.047247 0.0969004
0.262437 0.0547396 -0.112268
0.0884166 0.129736 -0.266092
0.00277552 0.155417 0.00909919
0.00759371 0.131163 0.00767883
0.00935685 0.0492749 0.00288476
0.00750685 -0.0518001 -0.00303259
0.00276065 -0.132894 -0.00778014
-0.00305064 -0.162716 -0.00952606
-0.00768498 -0.129761 -0.00759676
-0.00935437 -0.0467463 -0.00273673
-0.00741192 0.0541595 0.00317075
-0.00249712 0.128361 0.00751515
0.102754 0.0937914 0.336867
0.281131 0.0791541 0.284282
0.346405 0.0297366 0.106798
0.277916 -0.0312605 -0.112272
0.102204 -0.0801989 -0.288034
-0.11294 -0.0981961 -0.35267
-0.284511 -0.0783084 -0.281244
-0.346314 -0.0282106 -0.101318
-0.274401 0.0326843 0.117386
-0.0924475 0.0774636 0.278223
0.16309 -0.00401969 0.534669
0.4462 -0.00338969 0.451202
0.549801 -0.00127338 0.169507
0.441099 0.00133863 -0.178193
0.162215 0.00343427 -0.457157
-0.179254 0.00420495 -0.559745
-0.451565 0.00335331 -0.44638
-0.549655 0.00120803 -0.160808
-0.435519 -0.00139973 0.186311
-0.146731 -0.00331991 0.44159
0.160504 -0.10028 0.526191
0.438843 -0.0844875 0.443773
0.54073 -0.0317378 0.166711
0.433822 0.0333641 -0.175254
0.159538 0.0855959 -0.449616
-0.176295 0.104804 -0.550512
-0.444113 0.0835782 -0.439019
-0.540586 0.0301088 -0.158155
-0.428335 -0.0348891 0.183248
-0.144404 -0.0828225 0.434589
0.0959945 -0.157851 0.314706
0.250948 -0.127401 0.253998
0.309084 -0.0477988 0.0952956
0.247973 0.0502448 -0.100172
0.0911922 0.128904 -0.256993
-0.100771 0.15783 -0.314664
-0.253856 0.125865 -0.250935
-0.309002 0.0453401 -0.0903937
-0.244932 -0.0526775 0.105022
-0.0863657 -0.130372 0.25992
0 0.181559 0
0 0.154159 0
0 0.0578377 0
0 -0.0607974 0
0 -0.155976 0
0 -0.190979 0
0 -0.1523 0
0 -0.0548626 0
0 0.063741 0
0 0.149952 0
-0.0989336 0.111512 -0.0616527
-0.270503 0.0939636 -0.0522355
-0.333307 0.0352961 -0.019627
-0.267408 -0.0371046 0.0206332
-0.0983394 -0.0951923 0.0529345
0.108669 -0.116554 0.0648134
0.273752 -0.0929483 0.0516868
0.333219 -0.0334843 0.0186203
0.264027 0.0388039 -0.0215652
0.0890101 0.0920995 -0.0509198
-0.159698 -0.00155685 -0.0995193
-0.436644 -0.00130693 -0.0843179
-0.538021 -0.000490886 -0.0316819
-0.431648 0.000516035 0.0333059
-0.158738 0.00132389 0.0854465
0.175412 0.00162099 0.104621
0.441889 0.00129269 0.0834325
0.537878 0.000465686 0.0300567
0.42619 -0.000539779 -0.0348102
0.143679 -0.00128583 -0.0821944
-0.15885 -0.114025 -0.0989907
-0.434324 -0.0959704 -0.08387
-0.535163 -0.0360497 -0.0315136
-0.429354 0.037897 0.033129
-0.157895 0.0972248 0.0849926
0.174481 0.119043 0.104066
0.439542 0.0949331 0.0829894
0.535021 0.0341994 0.0298971
0.423926 -0.0396331 -0.0346253
0.142916 -0.0941751 -0.0817578
-0.0967159 -0.182502 -0.0602707
-0.264439 -0.153605 -0.0510645
-0.325835 -0.057699 -0.0191871
-0.261414 0.0606555 0.0201706
-0.0961349 0.155612 0.0517479
0.106233 0.190533 0.0633606
0.267616 0.151944 0.0505282
0.325749 0.0547375 0.0182029
0.258108 -0.0634342 -0.0210817
0.0870148 -0.150731 -0.0497784
0.00273151 -0.180568 0.0017022
0.00746847 -0.151977 0.0014422
0.00920244 -0.0570876 0.000541895
0.00738306 0.0600127 -0.000569672
0.00271512 0.153963 -0.0014615
-0.0030003 0.188514 -0.00178947
-0.00755815 0.150334 -0.00142705
-0.0092 0.0541574 -0.000514098
-0.00728967 -0.0627619 0.000595404
-0.00245753 -0.149134 0.00140587
0.101125 -0.10897 0.0630184
0.276494 -0.0917156 0.0533925
0.34069 -0.0344514 0.0200618
0.273331 0.0362167 -0.0210902
0.100518 0.0929142 -0.054107
-0.111076 0.113765 -0.0662491
-0.279815 0.0907242 -0.0528316
-0.340599 0.032683 -0.0190328
-0.269875 -0.0378757 0.0220428
-0.0909817 -0.0899995 0.0520477
0.160504 0.00467019 0.100022
0.438842 0.00392794 0.0847423
0.54073 0.00147541 0.0318414
0.433822 -0.00155101 -0.0334735
0.159538 -0.00397913 -0.0858764
-0.176295 -0.00487207 -0.105148
-0.444113 -0.00388533 -0.0838523
-0.540586 -0.00139967 -0.030208
-0.428335 0.00162219 0.0349855
-0.144404 0.00385717 0.0826092
0.157959 0.116508 0.0984357
0.431611 0.0979099 0.0833405
0.531814 0.0367758 0.0313135
0.426668 -0.03866 -0.0329185
0.156907 -0.0991825 -0.0844527
-0.173389 -0.12144 -0.103404
-0.436792 -0.0968448 -0.0824622
-0.531673 -0.0348878 -0.0297071
-0.421277 0.0404368 0.0344077
-0.142115 0.0962256 0.0812994
0.0944724 0.183396 0.0588726
0.246969 0.148019 0.0475159
0.304183 0.0555341 0.0178271
0.244041 -0.0583759 -0.0187394
0.0897464 -0.149764 -0.0480762
-0.0991734 -0.183372 -0.0588648
-0.249831 -0.146234 -0.0469429
-0.304102 -0.0526775 -0.0169101
-0.241049 0.0612023 0.0196467
-0.0849964 0.15147 0.0486237
0 0.449342 0
0 0.362662 0
0 0.136065 0
0 -0.143027 0
0 -0.366938 0
0 -0.449282 0
0 -0.358289 0
0 -0.129066 0
0 0.149952 0
0 0.371117 0
-0.0591704 0.275982 0.230048
-0.154683 0.222744 0.185671
-0.190517 0.0835699 0.0696605
-0.152849 -0.0878464 -0.0732252
-0.0562103 -0.225371 -0.18786
0.0621147 -0.275946 -0.230017
0.156475 -0.220058 -0.183432
0.190467 -0.0792711 -0.0660772
0.150975 0.0920996 0.0767705
0.0532353 0.227938 0.19
-0.0955125 -0.00385306 0.371341
-0.249688 -0.00310979 0.299708
-0.307532 -0.00116674 0.112445
-0.246728 0.00122645 -0.1182
-0.0907343 0.00314646 -0.303242
0.100265 0.00385255 -0.371292
0.252582 0.00307229 -0.296094
0.30745 0.00110672 -0.106661
0.243702 -0.00128583 0.123922
0.0859321 -0.0031823 0.306696
-0.0950051 -0.282202 0.369369
-0.248361 -0.227764 0.298116
-0.305898 -0.0854532 0.111848
-0.245417 0.0898261 -0.117572
-0.0902523 0.23045 -0.301631
0.0997325 0.282164 -0.36932
0.25124 0.225018 -0.294521
0.305817 0.0810576 -0.106095
0.242408 -0.0941751 0.123264
0.0854756 -0.233074 0.305067
-0.057844 -0.451675 0.224891
-0.151215 -0.364545 0.181509
-0.186247 -0.136771 0.0680989
-0.149423 0.14377 -0.0715838
-0.0549503 0.368844 -0.183649
0.0607223 0.451615 -0.224861
0.152968 0.36015 -0.17932
0.186197 0.129736 -0.064596
0.14759 -0.150731 0.0750496
0.052042 -0.373045 0.185741
0.00163367 -0.446889 -0.00635152
0.00427073 -0.360682 -0.00512629
0.00526011 -0.135322 -0.0019233
0.0042201 0.142247 0.00202172
0.00155194 0.364935 0.00518674
-0.00171496 0.446829 0.00635067
-0.00432022 0.356333 0.00506447
-0.00525871 0.128361 0.00182436
-0.00416835 -0.149134 -0.0021196
-0.0014698 -0.369092 -0.00524581
0.0604811 -0.26969 -0.235143
0.158109 -0.217665 -0.189783
0.194738 -0.0816643 -0.0712035
0.156235 0.0858433 0.0748472
0.0574554 0.220232 0.192021
-0.0634906 0.269654 0.235112
-0.159941 0.215041 0.187495
-0.194686 0.0774636 0.0675409
-0.154319 -0.0899996 -0.078471
-0.0544145 -0.22274 -0.194208
0.0959945 0.0115583 -0.373215
0.250948 0.00932864 -0.301221
0.309084 0.00349995 -0.113013
0.247973 -0.00367905 0.118796
0.0911922 -0.00943864 0.304773
-0.100771 -0.0115567 0.373166
-0.253856 -0.00921615 0.297589
-0.309002 -0.00331991 0.1072
-0.244932 0.00385718 -0.124548
-0.0863657 0.00954614 -0.308244
0.0944724 0.288346 -0.367298
0.246969 0.232723 -0.296445
0.304183 0.0873138 -0.111221
0.244041 -0.0917819 0.116913
0.0897463 -0.235468 0.29994
-0.0991734 -0.288308 0.367249
-0.249831 -0.229917 0.29287
-0.304102 -0.0828225 0.1055
-0.241049 0.0962257 -0.122573
-0.0849964 0.238149 -0.303356
0.0565023 0.453889 -0.219674
0.147708 0.366332 -0.177298
0.181927 0.137442 -0.0665193
0.145957 -0.144475 0.0699233
0.0536757 -0.370652 0.179389
-0.0593138 -0.453828 0.219645
-0.14942 -0.361915 0.17516
-0.181878 -0.130372 0.0630976
-0.144167 0.15147 -0.0733087
-0.0508348 0.374873 -0.181432
