# vtk DataFile Version 3.0
Velocity field
ASCII
DATASET STRUCTURED_POINTS
DIMENSIONS 10 10 10
SPACING 0.631579 0.631579 0.631579
ORIGIN 0 0 0
POINT_DATA 1000
VECTORS velocity float
0 0.356438 0
0 0.28768 0
0 0.107933 0
0 -0.113456 0
0 -0.291072 0
0 -0.356391 0
0 -0.284211 0
0 -0.102381 0
0 0.118949 0
0 0.294387 0
0 0.218922 0.279206
0 0.176691 0.234182
0 0.0662914 0.0878612
0 -0.0696837 -0.0923573
0 -0.178774 -0.236944
0 -0.218892 -0.290115
0 -0.17456 -0.231358
0 -0.0628814 -0.0833417
0 0.0730575 0.0968289
0 0.18081 0.2306
0 -0.00305642 0.450693
0 -0.00246683 0.378015
0 -0.000925511 0.141825
0 0.000972873 -0.149082
0 0.00249592 -0.382473
0 0.00305602 -0.468302
0 0.00243708 -0.373457
0 0.000877904 -0.13453
0 -0.00101998 0.1563
0 -0.00252434 0.372233
0 -0.223855 0.448298
0 -0.180673 0.376007
0 -0.0677853 0.141071
0 0.0712541 -0.148291
0 0.182803 -0.380441
0 0.223825 -0.465814
0 0.178494 -0.371473
0 0.0642985 -0.133815
0 -0.074704 0.15547
0 -0.184885 0.370256
0 -0.358289 0.272947
0 -0.289174 0.228933
0 -0.108493 0.0858916
0 0.114045 -0.0902869
0 0.292584 -0.231632
0 0.358241 -0.283612
0 0.285687 -0.226172
0 0.102912 -0.0814735
0 -0.119567 0.0946583
0 -0.295916 0.225431
0 -0.354492 -0.00770876
0 -0.286109 -0.00646566
0 -0.107343 -0.00242581
0 0.112836 0.00254994
0 0.289483 0.00654191
0 0.354445 0.00800995
0 0.282659 0.00638771
0 0.101822 0.00230103
0 -0.1183 -0.00267341
0 -0.29278 -0.00636677
0 -0.21393 -0.285391
0 -0.172662 -0.239369
0 -0.0647798 -0.0898073
0 0.0680948 0.0944031
0 0.174698 0.242192
0 0.213901 0.296542
0 0.17058 0.236483
0 0.0614476 0.0851877
0 -0.0713917 -0.0989737
0 -0.176688 -0.235708
0 0.00916854 -0.452967
0 0.00739989 -0.379923
0 0.00277632 -0.142541
0 -0.00291839 0.149835
0 -0.00748716 0.384403
0 -0.00916732 0.470665
0 -0.00731067 0.375342
0 -0.0026335 0.135208
0 0.00305968 -0.157089
0 0.00757243 -0.374112
0 0.228729 -0.445785
0 0.184607 -0.373899
0 0.0692612 -0.140281
0 -0.0728056 0.147459
0 -0.186783 0.378308
0 -0.228699 0.463203
0 -0.182381 0.36939
0 -0.0656985 0.133065
0 0.0763305 -0.154599
0 0.188911 -0.36818
0 0.360045 -0.266616
0 0.290591 -0.215185
0 0.109025 -0.0807337
0 -0.114604 0.0848651
0 -0.294017 0.217722
0 -0.359997 0.266581
0 -0.287087 0.21259
0 -0.103417 0.0765808
0 0.120153 -0.0889739
0 0.297366 -0.220202
0 0.28768 0
0 0.244263 0
0 0.0916435 0
0 -0.0963332 0
0 -0.247144 0
0 -0.302604 0
0 -0.241318 0
0 -0.0869294 0
0 0.100997 0
0 0.237598 0
0.0405962 0.176691 0.309003
0.10924 0.146823 0.256713
0.13457 0.0551155 0.0963672
0.107963 -0.0579369 -0.1013
0.0397038 -0.148638 -0.259888
-0.0438744 -0.181993 -0.318209
-0.110525 -0.145134 -0.253761
-0.134535 -0.0522821 -0.0914134
-0.106623 0.060675 0.106087
-0.0365242 0.145931 0.25521
0.0655301 -0.00246683 0.49879
0.176335 -0.0020444 0.414384
0.217222 -0.000767401 0.155555
0.174275 0.000806686 -0.163519
0.0640895 0.00206956 -0.419509
-0.0708216 0.00253398 -0.513649
-0.178408 0.00202078 -0.40962
-0.217164 0.00072795 -0.147559
-0.172109 -0.000844902 0.171245
-0.0589571 -0.00203738 0.411958
0.065182 -0.180673 0.49614
0.175398 -0.149957 0.412182
0.216068 -0.0562914 0.154729
0.173348 0.0591731 -0.16265
0.0637491 0.151809 -0.41728
-0.0704456 0.185876 -0.510921
-0.177461 0.148231 -0.407443
-0.216011 0.0533976 -0.146775
-0.171195 -0.0619714 0.170335
-0.0586439 -0.14922 0.409769
0.0396862 -0.289174 0.302076
0.106791 -0.240012 0.250958
0.131553 -0.0900964 0.094207
0.105544 0.0947088 -0.0990298
0.0388135 0.242976 -0.254062
-0.0428908 0.297502 -0.311074
-0.108047 0.237249 -0.248073
-0.131518 0.0854649 -0.089364
-0.104232 -0.0991877 0.103709
-0.0357055 -0.238832 0.249489
-0.00112084 -0.286109 -0.00853143
-0.00301606 -0.237469 -0.00708771
-0.00371542 -0.0891415 -0.00266066
-0.00298082 0.0937053 0.00279686
-0.00109621 0.240401 0.00717538
0.00121134 0.294349 0.00878561
0.00305155 0.234735 0.00700625
0.00371444 0.0845591 0.00252388
0.00294381 -0.0981366 -0.00292901
0.00100842 -0.236301 -0.00704623
-0.0414954 -0.172662 -0.315847
-0.11166 -0.143308 -0.262399
-0.137551 -0.0537954 -0.0985019
-0.110355 0.0565493 0.103545
-0.0405832 0.145078 0.265644
0.0448459 0.177634 0.325257
0.112973 0.141658 0.259383
0.137514 0.0510299 0.0934382
0.108984 -0.0592237 -0.108437
0.0373332 -0.142604 -0.260863
-0.0658608 0.00739989 -0.501307
-0.177224 0.00614064 -0.416473
-0.218318 0.00230507 -0.15634
-0.175154 -0.00242306 0.164344
-0.0644128 -0.0062164 0.421625
0.0711785 -0.0076114 0.51624
0.179308 -0.00606987 0.411686
0.21826 -0.00218657 0.148303
0.172977 0.00253769 -0.172109
0.0592546 0.00611167 -0.414037
-0.0648165 0.184607 -0.493359
-0.174367 0.153119 -0.409764
-0.214798 0.0574769 -0.15382
-0.17233 -0.0604192 0.161694
-0.0633743 -0.155006 0.414829
0.0700313 -0.18979 0.507919
0.176419 -0.151352 0.40505
0.214741 -0.0545221 0.145913
0.170189 0.063279 -0.169337
0.0583151 0.152469 -0.407472
-0.0387656 0.290591 -0.295069
-0.101341 0.234535 -0.238149
-0.124818 0.0879935 -0.0893495
-0.100139 -0.0924964 0.0939218
-0.0368263 -0.2373 0.240957
0.0406946 -0.290552 0.29503
0.102515 -0.231707 0.235278
0.124785 -0.0834672 0.0847535
0.0989114 0.0969747 -0.0984691
0.0348772 0.240003 -0.243702
0 0.107933 0
0 0.0916435 0
0 0.0343831 0
0 -0.0361426 0
0 -0.0927241 0
0 -0.113532 0
0 -0.0905385 0
0 -0.0326145 0
0 0.0378925 0
0 0.0891429 0
0.0655301 0.0662914 0.219584
0.176335 0.0551154 0.182356
0.217222 0.0206899 0.0684541
0.174275 -0.0217492 -0.0719582
0.0640895 -0.0557978 -0.18461
-0.0708216 -0.0683191 -0.226038
-0.178409 -0.0544825 -0.180258
-0.217164 -0.0196264 -0.0649353
-0.172109 0.0227763 0.0753591
-0.0589571 0.0547509 0.181357
0.105778 -0.000925511 0.35445
0.284638 -0.000767401 0.294357
0.35064 -0.000288063 0.110498
0.281313 0.000302807 -0.116155
0.103453 0.000776857 -0.297997
-0.114319 0.000951193 -0.364869
-0.287985 0.000758546 -0.290972
-0.350547 0.000273253 -0.104818
-0.277818 -0.000317145 0.121644
-0.0951681 -0.000764392 0.292746
0.105216 -0.0677853 0.352568
0.283126 -0.0562914 0.292793
0.348777 -0.0211311 0.109911
0.279819 0.0222128 -0.115538
0.102903 0.0569872 -0.296414
-0.113712 0.0697759 -0.36293
-0.286456 0.0556442 -0.289426
-0.348684 0.0200448 -0.104261
-0.276341 -0.0232626 0.120998
-0.0946625 -0.0559848 0.291191
0.0640611 -0.108493 0.214661
0.172381 -0.0900964 0.178267
0.212353 -0.0338213 0.0669197
0.170368 0.0355525 -0.0703457
0.0626527 0.0912106 -0.180472
-0.0692339 0.111679 -0.220971
-0.17441 0.0890603 -0.176219
-0.212297 0.0320826 -0.0634795
-0.168251 -0.0372327 0.0736698
-0.0576355 -0.0896058 0.177292
-0.00180926 -0.107343 -0.00606261
-0.0048685 -0.0891415 -0.00503476
-0.00599739 -0.0334628 -0.00188999
-0.00481162 0.0351759 0.00198674
-0.00176948 0.0902438 0.00509703
0.00195535 0.110495 0.00624084
0.0049258 0.0881169 0.00497686
0.0059958 0.0317426 0.00179283
0.00475189 -0.0368382 -0.00208063
0.00162778 -0.0886563 -0.0050072
-0.0669816 -0.0647798 -0.224448
-0.18024 -0.0537954 -0.186395
-0.222034 -0.0201942 -0.0699707
-0.178134 0.021228 0.0735526
-0.0655089 0.0544606 0.1887
0.0723901 0.066682 0.231045
0.182361 0.053177 0.184252
0.221975 0.0191561 0.0663734
0.175922 -0.0222311 -0.0770283
0.060263 -0.0535025 -0.185374
-0.106312 0.00277632 -0.356239
-0.286073 0.00230507 -0.295841
-0.352408 0.000865291 -0.111056
-0.282732 -0.000909585 0.116741
-0.103974 -0.00233355 0.299499
0.114896 -0.00285721 0.36671
0.289438 -0.00227854 0.29244
0.352315 -0.000820808 0.105347
0.279219 0.000952585 -0.122257
0.0956483 0.00229299 -0.294223
-0.104626 0.0692612 -0.350591
-0.281462 0.0574769 -0.291076
-0.346726 0.0215757 -0.109266
-0.278174 -0.0226802 0.114859
-0.102298 -0.0581864 0.294673
0.113044 -0.0712437 0.360798
0.284773 -0.0568148 0.287726
0.346634 -0.0204666 0.103649
0.274718 0.023753 -0.120289
0.0941318 0.0572038 -0.289558
-0.0625752 0.109025 -0.209682
-0.163584 0.0879935 -0.169234
-0.20148 0.0330137 -0.0634936
-0.161644 -0.0347031 0.0667428
-0.0594448 -0.0890311 0.171229
0.0656889 -0.10901 0.209654
0.165479 -0.0869325 0.167193
0.201427 -0.0313155 0.0602276
0.159662 0.0363833 -0.0699742
0.0562985 0.090045 -0.173179
0 -0.113456 0
0 -0.0963332 0
0 -0.0361426 0
0 0.0379921 0
0 0.0974691 0
0 0.119342 0
0 0.0951716 0
0 0.0342834 0
0 -0.0398315 0
0 -0.0937046 0
0.065182 -0.0696837 0.0454477
0.175398 -0.0579369 0.0377422
0.216068 -0.0217492 0.0141679
0.173348 0.0228626 -0.0148932
0.0637491 0.0586543 -0.0382089
-0.0704456 0.0718164 -0.0467833
-0.177461 0.0572715 -0.0373081
-0.216011 0.0206312 -0.0134396
-0.171195 -0.0239422 0.0155971
-0.0586439 -0.0575527 0.0375359
0.105216 0.000972873 0.0733614
0.283126 0.000806686 0.0609231
0.348777 0.000302807 0.0228699
0.279819 -0.00031831 -0.0240405
0.102903 -0.000816623 -0.0616765
-0.113712 -0.000999886 -0.0755171
-0.286456 -0.000797376 -0.0602224
-0.348684 -0.00028724 -0.0216941
-0.276341 0.00033338 0.0251767
-0.0946625 0.000803508 0.0605902
0.104657 0.0712541 0.0729717
0.281622 0.0591731 0.0605994
0.346923 0.0222128 0.0227483
0.278332 -0.0233501 -0.0239128
0.102356 -0.0599046 -0.0613488
-0.113108 -0.0733478 -0.0751158
-0.284934 -0.0584927 -0.0599025
-0.346831 -0.0210709 -0.0215789
-0.274874 0.0244534 0.025043
-0.0941597 0.0588497 0.0602683
0.0637208 0.114045 0.0444289
0.171466 0.0947088 0.0368961
0.211226 0.0355525 0.0138504
0.169463 -0.0373725 -0.0145594
0.06232 -0.0958795 -0.0373523
-0.0688661 -0.117396 -0.0457344
-0.173483 -0.0936201 -0.0364719
-0.21117 -0.033725 -0.0131384
-0.167357 0.0391386 0.0152474
-0.0573293 0.0941912 0.0366945
-0.00179965 0.112836 -0.00125479
-0.00484263 0.0937053 -0.00104204
-0.00596553 0.0351759 -0.000391172
-0.00478609 -0.0369766 0.000411198
-0.00176008 -0.0948637 0.00105493
0.00194497 -0.116152 0.00129166
0.00489963 -0.0926277 0.00103006
0.00596395 -0.0333675 0.000371062
0.00472664 0.0387239 -0.000430628
0.00161913 0.0931931 -0.00103635
-0.0666258 0.0680948 -0.0464544
-0.179282 0.0565493 -0.038578
-0.220855 0.021228 -0.0144818
-0.177189 -0.0223146 0.0152232
-0.0651611 -0.0572485 0.039055
0.0720055 -0.0700957 0.0478193
0.181392 -0.0558993 0.0381347
0.220796 -0.0201367 0.0137373
0.174987 0.0233693 -0.0159425
0.0599429 0.0562404 -0.0383674
-0.105747 -0.00291839 -0.0737316
-0.284553 -0.00242306 -0.0612303
-0.350536 -0.000909585 -0.0229852
-0.28123 0.000956149 0.0241618
-0.103422 0.00245301 0.0619875
0.114285 0.00300347 0.0758981
0.2879 0.00239519 0.0605262
0.350443 0.000862825 0.0218036
0.277735 -0.00100135 -0.0253036
0.0951402 -0.00241033 -0.0608959
-0.104071 -0.0728056 -0.0725626
-0.279967 -0.0604192 -0.060244
-0.344884 -0.0226802 -0.0226147
-0.276695 0.0238412 0.0237724
-0.101755 0.061165 0.0609885
0.112443 0.0748907 0.0746746
0.28326 0.0597232 0.0595507
0.344793 0.0215143 0.0214522
0.273259 -0.024969 -0.0248963
0.0936318 -0.0601311 -0.0599304
-0.0622428 -0.114604 -0.0433984
-0.162715 -0.0924964 -0.0350267
-0.20041 -0.0347031 -0.0131414
-0.160786 0.0364789 0.0138139
-0.059129 0.0935871 0.0354397
0.06534 0.114589 0.0433926
0.1646 0.0913811 0.0346043
0.200357 0.032918 0.0124654
0.158814 -0.0382451 -0.0144827
0.0559995 -0.0946529 -0.0358433
0 -0.291072 0
0 -0.247144 0
0 -0.0927241 0
0 0.0974691 0
0 0.250058 0
0 0.306173 0
0 0.244164 0
0 0.0879545 0
0 -0.102188 0
0 -0.2404 0
0.0396862 -0.178774 -0.146222
0.106791 -0.148638 -0.12143
0.131553 -0.0557978 -0.0455837
0.105544 0.0586543 0.047917
0.0388135 0.150478 0.122932
-0.0428908 0.184246 0.150519
-0.108047 0.146931 0.120034
-0.131518 0.0529295 0.0432403
-0.104232 -0.0614241 -0.0501816
-0.0357055 -0.147652 -0.120767
0.0640611 0.00249592 -0.236031
0.172381 0.00206956 -0.196012
0.212353 0.000776857 -0.0735809
0.170368 -0.000816623 0.0773473
0.0626527 -0.00209506 0.198436
-0.0692339 -0.00256523 0.242966
-0.17441 -0.00204567 0.193758
-0.212297 -0.000736918 0.0697983
-0.168251 0.000855286 -0.0810028
-0.0576355 0.00206141 -0.194941
0.0637208 0.182803 -0.234777
0.171466 0.151809 -0.194971
0.211226 0.0569872 -0.0731899
0.169463 -0.0599046 0.0769366
0.06232 -0.153686 0.197382
-0.0688661 -0.188175 0.241675
-0.173483 -0.150063 0.192729
-0.21117 -0.0540577 0.0694274
-0.167357 0.0627355 -0.0805724
-0.0573293 0.15098 -0.193906
0.0387966 0.292584 -0.142945
0.104397 0.242976 -0.118709
0.128605 0.0912106 -0.0445617
0.103178 -0.0958795 0.0468432
0.0379438 -0.245981 0.120176
-0.0419291 -0.301181 0.147145
-0.105626 -0.240182 0.117344
-0.128571 -0.0865217 0.0422709
-0.101896 0.100411 -0.0490567
-0.0349051 0.241649 -0.11806
-0.00109572 0.289483 0.00403714
-0.00294847 0.240401 0.00335264
-0.00363214 0.0902438 0.00125855
-0.00291401 -0.0948637 -0.00132297
-0.00107163 -0.243374 -0.00339409
0.0011842 -0.297989 -0.00415574
0.00298314 -0.237637 -0.0033141
0.00363117 -0.0856049 -0.00119385
0.00287782 0.0993469 0.00138549
0.000985812 0.239088 0.00333433
-0.0405653 0.174698 0.149461
-0.109157 0.145078 0.12412
-0.134468 0.0544606 0.0465934
-0.107881 -0.0572485 -0.0489785
-0.0396735 -0.146872 -0.125655
0.043841 -0.17983 -0.153853
0.110441 -0.143409 -0.122693
0.134432 -0.051661 -0.0441982
0.106541 0.0599539 0.0512931
0.0364963 0.144285 0.123442
-0.0643844 -0.00748716 0.237222
-0.173251 -0.0062164 0.197001
-0.213424 -0.00233355 0.0739518
-0.171227 0.00245301 -0.0777372
-0.0629687 0.00629322 -0.199437
0.0695832 0.00770548 -0.244191
0.17529 0.00614489 -0.194736
0.213368 0.00221359 -0.0701503
0.1691 -0.00256897 0.0814114
0.0579263 -0.00618374 0.195925
-0.0633636 -0.186783 0.233461
-0.170458 -0.155006 0.193827
-0.209984 -0.0581864 0.0727601
-0.168466 0.061165 -0.076485
-0.0619537 0.156919 -0.196223
0.0684613 0.192133 -0.240256
0.172464 0.153221 -0.191597
0.209928 0.0551951 -0.0690196
0.166374 -0.0640581 0.0801005
0.0570079 -0.154267 0.192819
-0.0378966 -0.294017 0.139629
-0.0990691 -0.2373 0.112694
-0.12202 -0.0890311 0.0422808
-0.0978946 0.0935871 -0.0444445
-0.0360008 0.240099 -0.114023
0.0397824 0.293978 -0.13961
0.100217 0.234439 -0.111335
0.121988 0.0844514 -0.040106
0.0966941 -0.0981182 0.0465963
0.0340954 -0.242833 0.115321
0 -0.356391 0
0 -0.302604 0
0 -0.113532 0
0 0.119342 0
0 0.306173 0
0 0.37488 0
0 0.298956 0
0 0.107692 0
0 -0.12512 0
0 -0.294348 0
-0.00112084 -0.218892 -0.281479
-0.00301606 -0.181993 -0.233754
-0.00371542 -0.0683191 -0.087749
-0.00298082 0.0718164 0.0922407
-0.00109621 0.184246 0.236645
0.00121134 0.225592 0.289749
0.00305155 0.179903 0.231067
0.00371444 0.0648072 0.0832377
0.00294381 -0.0752081 -0.0965996
0.00100842 -0.180786 -0.232477
-0.00180926 0.00305602 -0.454361
-0.0048685 0.00253398 -0.377325
-0.00599739 0.000951193 -0.141643
-0.00481162 -0.000999886 0.148894
-0.00176948 -0.00256523 0.381989
0.00195535 -0.00314087 0.467712
0.0049258 -0.00250475 0.372987
0.0059958 -0.000902287 0.134362
0.00475189 0.00104722 -0.15593
0.00162778 0.002524 -0.375263
-0.00179965 0.223825 -0.451947
-0.00484263 0.185876 -0.375321
-0.00596553 0.0697759 -0.140891
-0.00478609 -0.0733478 0.148103
-0.00176008 -0.188175 0.37996
0.00194497 -0.230402 0.465227
0.00489963 -0.183739 0.371005
0.00596394 -0.0661886 0.133648
0.00472664 0.0768139 -0.155102
0.00161913 0.18486 -0.37327
-0.00109572 0.358241 -0.275169
-0.00294847 0.297502 -0.228514
-0.00363214 0.111679 -0.0857818
-0.00291401 -0.117396 0.0901728
-0.00107163 -0.301181 0.23134
0.0011842 -0.368767 0.283254
0.00298314 -0.294082 0.225886
0.00363117 -0.105938 0.081372
0.00287782 0.122944 -0.0944345
0.000985812 0.295876 -0.227266
3.0946e-05 0.354445 0.00777151
8.32719e-05 0.294349 0.00645385
0.000102582 0.110495 0.00242269
8.22996e-05 -0.116152 -0.00254674
3.02657e-05 -0.297989 -0.00653365
-3.34447e-05 -0.364859 -0.00799985
-8.42528e-05 -0.290965 -0.00637964
-0.000102555 -0.104815 -0.00229816
-8.1277e-05 0.121641 0.00266708
-2.7842e-05 0.292741 0.0064186
0.00114567 0.213901 0.287714
0.00308287 0.177634 0.238932
0.00379773 0.066682 0.089692
0.00304686 -0.0700957 -0.0942841
0.00112048 -0.17983 -0.241886
-0.00123818 -0.220186 -0.296168
-0.00311916 -0.175593 -0.236185
-0.00379672 -0.063254 -0.0850816
-0.00300901 0.0734081 0.0987396
-0.00103075 0.176664 0.237627
0.00181839 -0.00916732 0.456654
0.00489306 -0.0076114 0.379227
0.00602766 -0.00285721 0.142357
0.00483587 0.00300347 -0.149645
0.0017784 0.00770548 -0.383915
-0.00196521 0.00943463 -0.470071
-0.00495064 0.00752382 -0.374868
-0.00602606 0.00271033 -0.13504
-0.00477584 -0.00314546 0.156717
-0.00163599 -0.00757141 0.377157
0.00178956 -0.228699 0.449414
0.0048142 -0.18979 0.373119
0.00593048 -0.0712437 0.140064
0.00475796 0.0748907 -0.147234
0.00174974 0.192133 -0.377729
-0.00193353 0.23525 -0.462495
-0.00487081 0.187605 -0.368826
-0.00592891 0.0675814 -0.132863
-0.00469885 -0.0784331 0.154194
-0.00161005 -0.188885 0.371177
0.0010703 -0.359997 0.268786
0.00279797 -0.290552 0.216936
0.00344617 -0.10901 0.0813908
0.0027648 0.114589 -0.0855559
0.00101676 0.293978 -0.219494
-0.00112356 0.359949 -0.26875
-0.0028304 0.287049 -0.214321
-0.00344525 0.103403 -0.0772042
-0.0027309 -0.120137 0.0896982
-0.000962945 -0.297326 0.221994
0 -0.284211 0
0 -0.241318 0
0 -0.0905385 0
0 0.0951716 0
0 0.244164 0
0 0.298956 0
0 0.238408 0
0 0.0858813 0
0 -0.0997794 0
0 -0.234734 0
-0.0414954 -0.17456 -0.308139
-0.11166 -0.145134 -0.255894
-0.137551 -0.0544825 -0.0960594
-0.110355 0.0572715 0.100977
-0.0405832 0.146931 0.259059
0.0448459 0.179903 0.317193
0.112973 0.143467 0.252951
0.137514 0.0516817 0.0911216
0.108984 -0.0599762 -0.105749
0.0373332 -0.144172 -0.254496
-0.0669816 0.00243708 -0.497395
-0.18024 0.00202078 -0.413062
-0.222034 0.000758546 -0.155058
-0.178134 -0.000797376 0.162997
-0.0655089 -0.00204567 0.41817
0.0723901 -0.00250475 0.51201
0.182361 -0.00199746 0.408311
0.221975 -0.000719551 0.147088
0.175922 0.000835129 -0.170699
0.060263 0.00201282 -0.410806
-0.0666258 0.178494 -0.494753
-0.179282 0.148231 -0.410868
-0.220855 0.0556442 -0.154235
-0.177189 -0.0584927 0.162131
-0.0651611 -0.150063 0.415948
0.0720055 -0.183739 0.50929
0.181392 -0.146526 0.406143
0.220796 -0.0527837 0.146306
0.174987 0.0612568 -0.169793
0.0599429 0.147421 -0.408623
-0.0405653 0.285687 -0.301231
-0.109157 0.237249 -0.250157
-0.134468 0.0890603 -0.0939066
-0.107881 -0.0936201 0.0987137
-0.0396735 -0.240182 0.253251
0.043841 -0.294082 0.310081
0.110441 -0.234521 0.247282
0.134432 -0.084482 0.0890788
0.106541 0.0980439 -0.103379
0.0364963 0.235952 -0.248791
0.00114567 0.282659 0.00850758
0.00308287 0.234735 0.00706512
0.00379773 0.088117 0.00265216
0.00304686 -0.0926277 -0.00278793
0.00112048 -0.237637 -0.00715246
-0.00123818 -0.290965 -0.00875757
-0.00311916 -0.232036 -0.0069839
-0.00379672 -0.0835867 -0.00251583
-0.00300901 0.0970049 0.00291969
-0.00103075 0.233452 0.00702652
0.0424146 0.17058 0.314964
0.114133 0.141658 0.261562
0.140598 0.053177 0.0981874
0.1128 -0.0558993 -0.103214
0.0414821 -0.143409 -0.264796
-0.0458396 -0.175593 -0.324219
-0.115476 -0.14003 -0.258555
-0.140561 -0.0504432 -0.0931401
-0.111399 0.0585409 0.108091
-0.0381602 0.140884 0.260133
0.0673196 -0.00731067 0.499905
0.181149 -0.00606987 0.415145
0.223154 -0.00227854 0.15584
0.179032 0.00239519 -0.163819
0.0658393 0.00614489 -0.420279
-0.0727554 0.00752382 -0.514593
-0.183281 0.00600001 -0.410371
-0.223095 0.00216141 -0.14783
-0.176809 -0.00250841 0.17156
-0.0605671 -0.00603798 0.412879
0.0662523 -0.182381 0.491979
0.178229 -0.151352 0.408458
0.219557 -0.0568148 0.153329
0.176147 0.0597232 -0.161179
0.0647782 0.153221 -0.413506
-0.0715822 0.187605 -0.506298
-0.180325 0.149609 -0.403758
-0.219498 0.053894 -0.145447
-0.173959 -0.0625481 0.168798
-0.0596068 -0.15063 0.406332
0.0396243 -0.287087 0.294244
0.103586 -0.231707 0.237483
0.127583 -0.0869325 0.0890996
0.102358 0.0913811 -0.0936591
0.0376421 0.234439 -0.240284
-0.041596 0.287049 -0.294205
-0.104786 0.228913 -0.23462
-0.127549 0.0824608 -0.0845165
-0.101102 -0.0958054 0.0981938
-0.0356498 -0.237109 0.24302
0 -0.102381 0
0 -0.0869294 0
0 -0.0326145 0
0 0.0342834 0
0 0.0879545 0
0 0.107692 0
0 0.0858813 0
0 0.0309368 0
0 -0.0359433 0
0 -0.0845575 0
-0.0658608 -0.0628814 -0.215916
-0.177224 -0.0522821 -0.179308
-0.218318 -0.0196264 -0.0673104
-0.175154 0.0206312 0.0707563
-0.0644128 0.0529295 0.181526
0.0711785 0.0648072 0.222262
0.179308 0.0516818 0.177247
0.21826 0.0186175 0.0638502
0.172977 -0.0216054 -0.0740998
0.0592546 -0.0519346 -0.178328
-0.106312 0.000877904 -0.34853
-0.286073 0.00072795 -0.289438
-0.352408 0.000273253 -0.108652
-0.282732 -0.00028724 0.114214
-0.103974 -0.000736918 0.293017
0.114896 -0.000902287 0.358771
0.289438 -0.000719551 0.286109
0.352315 -0.000259205 0.103066
0.279219 0.000300841 -0.119611
0.0956483 0.000725072 -0.287856
-0.105747 0.0642985 -0.346679
-0.284553 0.0533976 -0.2879
-0.350536 0.0200448 -0.108074
-0.28123 -0.0210709 0.113607
-0.103422 -0.0540577 0.291461
0.114285 -0.0661886 0.356866
0.2879 -0.0527837 0.28459
0.350443 -0.0190145 0.102519
0.277735 0.0220668 -0.118976
0.0951402 0.053105 -0.286327
-0.0643844 0.102912 -0.211076
-0.173251 0.0854649 -0.175289
-0.213424 0.0320826 -0.0658013
-0.171227 -0.033725 0.06917
-0.0629687 -0.0865217 0.177457
0.0695832 -0.105938 0.217278
0.17529 -0.0844821 0.173273
0.213368 -0.0304333 0.0624188
0.1691 0.0353187 -0.0724387
0.0579263 0.0849966 -0.174331
0.00181839 0.101822 0.00596135
0.00489306 0.0845591 0.00495063
0.00602766 0.0317426 0.00185841
0.00483587 -0.0333676 -0.00195354
0.0017784 -0.0856049 -0.00501184
-0.00196521 -0.104815 -0.00613652
-0.00495064 -0.0835867 -0.0048937
-0.00602606 -0.0301108 -0.00176288
-0.00477584 0.0349444 0.00204586
-0.00163599 0.0840959 0.00492356
0.0673196 0.0614476 0.220699
0.181149 0.0510299 0.18328
0.223154 0.0191561 0.0688012
0.179032 -0.0201367 -0.0723233
0.0658393 -0.051661 -0.185547
-0.0727554 -0.063254 -0.227184
-0.183281 -0.0504433 -0.181172
-0.223095 -0.0181713 -0.0652645
-0.176809 0.0210883 0.0757414
-0.0605671 0.0507504 0.182278
0.106848 -0.0026335 0.350289
0.287515 -0.00218657 0.290898
0.354185 -0.000820808 0.1092
0.284156 0.000862826 -0.11479
0.104499 0.00221359 -0.294496
-0.115476 0.00271033 -0.360581
-0.290899 0.00216141 -0.287552
-0.354091 0.000778611 -0.103586
-0.280627 -0.000903613 0.120215
-0.096131 -0.00217505 0.289309
0.105154 -0.0656985 0.344735
0.282882 -0.0545221 0.286212
0.348475 -0.0204666 0.10744
0.279577 0.0215143 -0.11294
0.102814 0.0551951 -0.289749
-0.113614 0.0675814 -0.354771
-0.286208 0.053894 -0.28292
-0.348383 0.0194144 -0.101917
-0.276103 -0.0225319 0.118279
-0.0946069 -0.0542613 0.284722
0.0628909 -0.103417 0.20618
0.164409 -0.0834672 0.166407
0.202497 -0.0313155 0.0624331
0.16246 0.032918 -0.065628
0.0597448 0.0844514 -0.168369
-0.0660204 0.103403 -0.206153
-0.166314 0.0824608 -0.164401
-0.202443 0.0297046 -0.0592216
-0.160468 -0.0345117 0.0688055
-0.0565827 -0.0854132 0.170287
0 0.118949 0
0 0.100997 0
0 0.0378924 0
0 -0.0398315 0
0 -0.102188 0
0 -0.12512 0
0 -0.0997794 0
0 -0.0359433 0
0 0.04176 0
0 0.0982414 0
-0.0648165 0.0730575 -0.0403919
-0.174367 0.0606735 -0.033599
-0.214798 0.0227758 -0.0126132
-0.17233 -0.0239417 0.013259
-0.0633743 -0.0614227 0.0340161
0.0700313 -0.0752064 0.0416494
0.176419 -0.0599747 0.0332143
0.214741 -0.0216049 0.0119649
0.170189 0.025074 -0.0138842
0.0583151 0.0603392 -0.0333602
-0.104626 -0.00101998 -0.0652003
-0.281462 -0.000844881 -0.0542352
-0.346726 -0.000317137 -0.0203603
-0.278174 0.000333371 0.0214026
-0.102298 0.000855265 0.0549086
0.113044 0.00104719 0.0672304
0.284773 0.000835108 0.0536141
0.346634 0.000300833 0.0193136
0.274718 -0.000349175 -0.0224118
0.0941318 -0.000842411 -0.0538498
-0.104071 -0.074704 -0.0648539
-0.279967 -0.0619699 -0.053947
-0.344884 -0.0232621 -0.0202521
-0.276695 0.0244528 0.0212889
-0.101755 0.062734 0.0546169
0.112443 0.076812 0.0668733
0.28326 0.0612553 0.0533294
0.344793 0.0220662 0.0192111
0.273259 -0.02561 -0.0222927
0.0936318 -0.061699 -0.0535638
-0.0633636 -0.119567 -0.0394864
-0.170458 -0.0991852 -0.0328458
-0.209984 -0.0372318 -0.0123305
-0.168466 0.0391377 0.0129618
-0.0619537 0.100408 0.0332536
0.0684613 0.122941 0.040716
0.172464 0.0980415 0.0324697
0.209928 0.0353179 0.0116967
0.166374 -0.04099 -0.013573
0.0570079 -0.0987516 -0.0326124
0.00178956 -0.1183 0.0011152
0.0048142 -0.0981341 0.000927653
0.00593048 -0.0368373 0.000348246
0.00475796 0.0387229 -0.000366076
0.00174974 0.0993444 -0.000939168
-0.00193353 0.121638 -0.00114993
-0.00487081 0.0970025 -0.000917034
-0.00592891 0.0349435 -0.000330346
-0.00469885 -0.0405556 0.000383337
-0.00161005 -0.0977051 0.000921061
0.0662523 -0.0713917 0.0412866
0.178229 -0.0592222 0.0343432
0.219557 -0.0222306 0.0128927
0.176147 0.0233687 -0.0135527
0.0647782 0.0599524 -0.0347696
-0.0715822 0.0734063 -0.0425721
-0.180325 0.0585394 -0.03395
-0.219498 0.0210877 -0.0122299
-0.173959 -0.0244746 0.0141918
-0.0596068 -0.0589633 0.0340992
0.105154 0.00305968 0.0655293
0.282882 0.00253763 0.0545087
0.348475 0.000952561 0.020463
0.279577 -0.00100132 -0.0215105
0.102814 -0.00256891 -0.0551855
-0.113614 -0.00314538 -0.0675695
-0.286208 -0.00250835 -0.0538845
-0.348383 -0.00090359 -0.019411
-0.276103 0.00104873 0.0225248
-0.0946069 0.00252703 0.0541216
0.103487 0.0763305 0.0644903
0.278323 0.0632775 0.0536294
0.342858 0.0237524 0.0201327
0.27507 -0.0249684 -0.0211633
0.101157 -0.0640566 -0.0542948
-0.111783 -0.0784313 -0.066479
-0.281597 -0.0625466 -0.0530149
-0.342767 -0.0225313 -0.0190978
-0.271654 0.026151 0.0221617
-0.0931068 0.0630424 0.0532635
0.0618938 0.120153 0.0385705
0.161802 0.0969747 0.0311301
0.199286 0.0363833 0.0116795
0.159884 -0.0382451 -0.0122772
0.0587975 -0.0981182 -0.0314972
-0.0649737 -0.120137 -0.0385654
-0.163677 -0.0958054 -0.0307548
-0.199233 -0.0345117 -0.0110787
-0.157923 0.0400968 0.0128716
-0.0556855 0.0992357 0.0318559
0 0.294387 0
0 0.237598 0
0 0.0891429 0
0 -0.0937046 0
0 -0.2404 0
0 -0.294348 0
0 -0.234734 0
0 -0.0845575 0
0 0.0982415 0
0 0.243138 0
-0.0387656 0.18081 0.150716
-0.101341 0.145931 0.121642
-0.124818 0.0547509 0.0456382
-0.100139 -0.0575527 -0.0479736
-0.0368263 -0.147652 -0.123077
0.0406946 -0.180786 -0.150696
0.102515 -0.144172 -0.120176
0.124785 -0.0519346 -0.0432906
0.0989113 0.0603392 0.0502963
0.0348772 0.149334 0.124479
-0.0625752 -0.00252434 0.243285
-0.163583 -0.00203738 0.196354
-0.20148 -0.000764392 0.0736688
-0.161644 0.000803509 -0.0774387
-0.0594447 0.00206141 -0.19867
0.0656889 0.002524 -0.243253
0.165479 0.00201282 -0.193987
0.201426 0.000725073 -0.0698794
0.159662 -0.000842411 0.081188
0.0562985 -0.00208489 0.200932
-0.0622428 -0.184885 0.241993
-0.162714 -0.14922 0.195311
-0.20041 -0.0559848 0.0732775
-0.160785 0.0588497 -0.0770273
-0.0591289 0.15098 -0.197614
0.0653399 0.18486 -0.24196
0.1646 0.147421 -0.192956
0.200356 0.053105 -0.0695082
0.158814 -0.061699 0.0807567
0.0559995 -0.152699 0.199865
-0.0378966 -0.295916 0.147338
-0.099069 -0.238832 0.118916
-0.12202 -0.0896059 0.0446151
-0.0978945 0.0941913 -0.0468982
-0.0360008 0.241649 -0.120318
0.0397823 0.295876 -0.147318
0.100217 0.235953 -0.117482
0.121987 0.0849966 -0.0423202
0.0966941 -0.0987517 0.0491689
0.0340954 -0.244401 0.121688
0.0010703 -0.29278 -0.00416121
0.00279797 -0.236301 -0.0033585
0.00344617 -0.0886563 -0.00126005
0.0027648 0.0931931 0.00132453
0.00101676 0.239088 0.0033981
-0.00112356 0.292741 0.00416066
-0.0028304 0.233452 0.003318
-0.00344525 0.0840959 0.00119524
-0.0027309 -0.0977052 -0.00138866
-0.000962945 -0.241811 -0.0034368
0.0396243 -0.176688 -0.154055
0.103585 -0.142604 -0.124337
0.127583 -0.0535025 -0.0466491
0.102357 0.0562404 0.0490363
0.037642 0.144285 0.125803
-0.041596 0.176664 0.154034
-0.104786 0.140884 0.122838
-0.127549 0.0507504 0.0442495
-0.101102 -0.0589634 -0.0514104
-0.0356498 -0.145929 -0.127236
0.0628909 0.00757243 -0.244513
0.164409 0.00611167 -0.197345
0.202497 0.002293 -0.0740406
0.16246 -0.00241034 0.0778295
0.0597447 -0.00618374 0.199672
-0.0660204 -0.00757141 0.24448
-0.166314 -0.00603798 0.194966
-0.202443 -0.00217505 0.070232
-0.160468 0.00252703 -0.0815977
-0.0565827 0.00625417 -0.201946
0.0618938 0.188911 -0.240636
0.161802 0.152469 -0.194216
0.199286 0.0572038 -0.0728667
0.159884 -0.0601311 0.0765955
0.0587975 -0.154267 0.196507
-0.0649736 -0.188885 0.240604
-0.163677 -0.150631 0.191875
-0.199233 -0.0542613 0.0691185
-0.157923 0.0630424 -0.0803039
-0.0556855 0.156024 -0.198745
0.0370176 0.297366 -0.14392
0.096771 0.240003 -0.116157
0.11919 0.090045 -0.0435802
0.0956238 -0.0946529 0.0458104
0.0351657 -0.242833 0.117527
-0.0388596 -0.297326 0.143901
-0.0978925 -0.237109 0.114757
-0.119158 -0.0854132 0.0413385
-0.0944512 0.0992357 -0.0480283
-0.0333045 0.245599 -0.118866
