# vtk DataFile Version 3.0
Velocity field
ASCII
DATASET STRUCTURED_POINTS
DIMENSIONS 10 10 10
SPACING 0.631579 0.631579 0.631579
ORIGIN 0 0 0
POINT_DATA 1000
VECTORS velocity float
0 0.610088 0
0 0.4924 0
0 0.18474 0
0 -0.194194 0
0 -0.498206 0
0 -0.610007 0
0 -0.486463 0
0 -0.175237 0
0 0.203596 0
0 0.50388 0
0 0.374712 0.477897
0 0.302428 0.400832
0 0.113466 0.150385
0 -0.119272 -0.158081
0 -0.305995 -0.405559
0 -0.374662 -0.496569
0 -0.298782 -0.395999
0 -0.107629 -0.14265
0 0.125047 0.165735
0 0.30948 0.394701
0 -0.00523145 0.771417
0 -0.00422228 0.64702
0 -0.00158413 0.242751
0 0.00166519 -0.255173
0 0.00427207 -0.65465
0 0.00523075 -0.801558
0 0.00417137 -0.639219
0 0.00150264 -0.230264
0 -0.00174582 0.267528
0 -0.00432073 0.637124
0 -0.383156 0.767319
0 -0.309244 0.643584
0 -0.116023 0.241462
0 0.12196 -0.253818
0 0.312891 -0.651172
0 0.383105 -0.7973
0 0.305515 -0.635823
0 0.110055 -0.229041
0 -0.127865 0.266107
0 -0.316454 0.63374
0 -0.613257 0.467184
0 -0.494957 0.391847
0 -0.185699 0.147014
0 0.195202 -0.154537
0 0.500794 -0.396468
0 0.613175 -0.485437
0 0.488989 -0.387122
0 0.176147 -0.139452
0 -0.204653 0.16202
0 -0.506497 0.385854
0 -0.606758 -0.0131945
0 -0.489712 -0.0110668
0 -0.183732 -0.00415208
0 0.193134 0.00436455
0 0.495487 0.0111973
0 0.606677 0.0137101
0 0.483807 0.0109334
0 0.174281 0.0039385
0 -0.202485 -0.00457587
0 -0.50113 -0.0108975
0 -0.366168 -0.488482
0 -0.295533 -0.409711
0 -0.110879 -0.153717
0 0.116553 0.161583
0 0.299017 0.414542
0 0.366119 0.507568
0 0.291969 0.404771
0 0.105175 0.14581
0 -0.122196 -0.169406
0 -0.302423 -0.403444
0 0.0156931 -0.77531
0 0.0126658 -0.650286
0 0.00475201 -0.243976
0 -0.00499519 0.256461
0 -0.0128152 0.657954
0 -0.015691 0.805603
0 -0.0125131 0.642444
0 -0.00450757 0.231426
0 0.00523704 -0.268878
0 0.0129612 -0.640339
0 0.391499 -0.763017
0 0.315977 -0.639975
0 0.118549 -0.240108
0 -0.124616 0.252395
0 -0.319703 0.647521
0 -0.391447 0.79283
0 -0.312167 0.632258
0 -0.112451 0.227757
0 0.130649 -0.264615
0 0.323344 -0.630186
0 0.616262 -0.456347
0 0.497383 -0.368316
0 0.18661 -0.138186
0 -0.196159 0.145257
0 -0.503248 0.372659
0 -0.61618 0.456286
0 -0.491385 0.363875
0 -0.177011 0.131078
0 0.205656 -0.15229
0 0.508979 -0.376903
0 0.4924 0
0 0.418088 0
0 0.156859 0
0 -0.164886 0
0 -0.423018 0
0 -0.517946 0
0 -0.413047 0
0 -0.148791 0
0 0.17287 0
0 0.40668 0
0.0694855 0.302428 0.528897
0.191362 0.256648 0.449194
0.235823 0.0964451 0.168814
0.189199 -0.101391 -0.17747
0.0695779 -0.260118 -0.455302
-0.0768868 -0.31849 -0.557474
-0.193688 -0.253986 -0.444569
-0.235761 -0.0915004 -0.16016
-0.186783 0.105942 0.185408
-0.0625157 0.24978 0.436823
0.112163 -0.00422228 0.853742
0.308896 -0.00356851 0.725084
0.380664 -0.00134085 0.272497
0.305404 0.0014096 -0.286472
0.112313 0.00361636 -0.734944
-0.12411 0.00442785 -0.899872
-0.312649 0.0035311 -0.71762
-0.380563 0.0012721 -0.25853
-0.301504 -0.0014732 0.299285
-0.100912 -0.00348724 0.705117
0.111567 -0.309244 0.849207
0.307255 -0.26216 0.721232
0.378642 -0.0985166 0.27105
0.303782 0.103569 -0.284949
0.111716 0.265707 -0.731039
-0.123451 0.325331 -0.895091
-0.310988 0.259443 -0.713808
-0.378542 0.0934663 -0.257157
-0.299903 -0.108216 0.297695
-0.100376 -0.255409 0.701371
0.0679279 -0.494957 0.517041
0.187073 -0.419598 0.439124
0.230537 -0.15768 0.165029
0.184958 0.165766 -0.173493
0.0680181 0.425272 -0.445095
-0.0751634 0.520707 -0.544977
-0.189346 0.41525 -0.434604
-0.230476 0.149597 -0.15657
-0.182596 -0.173205 0.181252
-0.0611144 -0.408792 0.427031
-0.00191846 -0.489712 -0.0146026
-0.00528343 -0.415152 -0.012402
-0.00651098 -0.156009 -0.00466088
-0.00522368 0.164009 0.00489988
-0.00192103 0.420767 0.0125707
0.00212279 0.515189 0.0153917
0.00534763 0.410849 0.0122744
0.00650925 0.148011 0.00442194
0.00515701 -0.171369 -0.00511903
0.00172603 -0.40446 -0.0120605
-0.0710247 -0.295533 -0.540613
-0.195601 -0.250536 -0.459144
-0.241047 -0.094149 -0.172553
-0.19339 0.0989764 0.181401
-0.0711192 0.253925 0.465387
0.0785895 0.310908 0.569822
0.197978 0.24794 0.454418
0.240983 0.089322 0.163708
0.19092 -0.103418 -0.189515
0.0639005 -0.244084 -0.446499
-0.112729 0.0126658 -0.85805
-0.310449 0.0107258 -0.72873
-0.382578 0.00403035 -0.273868
-0.30694 -0.00423698 0.287912
-0.112877 -0.01087 0.738641
0.124734 -0.0133093 0.904397
0.314221 -0.0106138 0.721229
0.382477 -0.00382369 0.259829
0.30302 0.00442773 -0.300791
0.101422 0.0104609 -0.708676
-0.110942 0.315977 -0.844446
-0.305271 0.267316 -0.716609
-0.376192 0.100444 -0.269302
-0.301816 -0.105594 0.28311
-0.110993 -0.270901 0.726322
0.122652 -0.331693 0.889314
0.308977 -0.264516 0.709202
0.376092 -0.0952931 0.255496
0.297965 0.110356 -0.295798
0.0998136 0.26097 -0.697439
-0.0663522 0.497383 -0.505048
-0.173457 0.401436 -0.407622
-0.213642 0.150612 -0.152933
-0.171401 -0.158319 0.160759
-0.0630329 -0.406169 0.412429
0.0696539 -0.497317 0.504981
0.175468 -0.396595 0.402707
0.213585 -0.142865 0.145066
0.169299 0.165984 -0.168542
0.0596967 0.410795 -0.417126
0 0.18474 0
0 0.156859 0
0 0.058851 0
0 -0.0618626 0
0 -0.158709 0
0 -0.194325 0
0 -0.154968 0
0 -0.0558238 0
0 0.0648577 0
0 0.152579 0
0.112163 0.113466 0.375845
0.308896 0.0964451 0.319171
0.380664 0.0362458 0.119952
0.305404 -0.0381044 -0.126103
0.112313 -0.0977571 -0.323518
-0.12411 -0.119694 -0.396118
-0.312649 -0.0954528 -0.315892
-0.380563 -0.0343877 -0.113804
-0.301504 0.0398082 0.131738
-0.100912 0.0937131 0.310416
0.181053 -0.00158413 0.606687
0.498618 -0.00134085 0.515205
0.614466 -0.000503859 0.193625
0.492981 0.000529691 -0.203555
0.181294 0.00135893 -0.522222
-0.200337 0.0016639 -0.63941
-0.504676 0.0013269 -0.509912
-0.614304 0.000478026 -0.183701
-0.486685 -0.00055351 0.212651
-0.162892 -0.00130835 0.501071
0.180091 -0.116023 0.603464
0.495969 -0.0985166 0.512468
0.611202 -0.0370246 0.192597
0.490362 0.0389232 -0.202474
0.180331 0.0998577 -0.519448
-0.199273 0.122267 -0.636014
-0.501995 0.097504 -0.507203
-0.61104 0.0351267 -0.182725
-0.484099 -0.040663 0.211521
-0.162027 -0.095825 0.498409
0.109649 -0.185699 0.36742
0.301972 -0.15768 0.312018
0.372131 -0.0592592 0.117263
0.298559 0.0622983 -0.123277
0.109795 0.159826 -0.316266
-0.121328 0.195693 -0.387239
-0.305641 0.156059 -0.308812
-0.372033 0.0562218 -0.111252
-0.294745 -0.0650829 0.128785
-0.0986504 -0.153372 0.303457
-0.00309677 -0.183732 -0.0103769
-0.00852844 -0.156009 -0.00881221
-0.01051 -0.0586312 -0.00331182
-0.00843202 0.0616382 0.00348165
-0.00310089 0.158132 0.00893225
0.00342661 0.193619 0.0109367
0.00863208 0.154405 0.00872163
0.0105072 0.055626 0.00314206
0.00832443 -0.0643932 -0.00363723
0.00278615 -0.151746 -0.00857045
-0.114647 -0.110879 -0.38417
-0.315738 -0.094149 -0.326241
-0.389096 -0.0353829 -0.122609
-0.312168 0.0371976 0.128897
-0.1148 0.0954304 0.330685
0.126859 0.116846 0.404893
0.319574 0.0931811 0.322889
0.388993 0.0335694 0.116324
0.308182 -0.0388602 -0.134656
0.103148 -0.0915763 -0.317292
-0.181966 0.00475201 -0.609748
-0.501124 0.00403035 -0.517796
-0.617556 0.00151458 -0.194599
-0.49546 -0.00159224 0.204579
-0.182205 -0.00408489 0.524848
0.201344 -0.00500158 0.642625
0.507213 -0.00398861 0.512476
0.617392 -0.00143693 0.184624
0.489133 0.00166366 -0.21372
0.163714 0.00392475 -0.5036
-0.179081 0.118549 -0.60008
-0.492766 0.100444 -0.509178
-0.607248 0.0377447 -0.191353
-0.487189 -0.03968 0.201165
-0.179164 -0.101799 0.51609
0.197983 -0.124644 0.631903
0.498747 -0.0994 0.503925
0.607087 -0.0358096 0.181543
0.480973 0.0414632 -0.210172
0.161118 0.0979115 -0.495615
-0.107105 0.18661 -0.358897
-0.279994 0.150612 -0.289665
-0.344859 0.056507 -0.108677
-0.276674 -0.0593987 0.114239
-0.101747 -0.152388 0.29308
0.112435 -0.186585 0.35885
0.283239 -0.148796 0.286172
0.344767 -0.0536004 0.103087
0.273282 0.0622745 -0.11977
0.096362 0.154123 -0.296418
0 -0.194194 0
0 -0.164886 0
0 -0.0618626 0
0 0.0650283 0
0 0.166831 0
0 0.204269 0
0 0.162898 0
0 0.0586804 0
0 -0.0681767 0
0 -0.160387 0
0.111567 -0.119272 0.0777895
0.307255 -0.101391 0.066059
0.378642 -0.0381044 0.0248263
0.303782 0.0400585 -0.0260995
0.111716 0.102771 -0.0669586
-0.123451 0.125833 -0.0819843
-0.310989 0.100348 -0.0653801
-0.378542 0.0361513 -0.0235538
-0.299903 -0.0418492 0.0272658
-0.100376 -0.0985087 0.0642474
0.180091 0.00166519 0.125567
0.495969 0.0014096 0.106631
0.611202 0.000529691 0.0400744
0.490362 -0.000556855 -0.0421297
0.180331 -0.0014286 -0.108084
-0.199273 -0.00174921 -0.132339
-0.501995 -0.00139495 -0.105536
-0.61104 -0.000502533 -0.0380204
-0.484099 0.000581885 0.0440122
-0.162027 0.00137531 0.103708
0.179134 0.12196 0.1249
0.493335 0.103569 0.106065
0.607956 0.0389232 0.0398615
0.487757 -0.0409193 -0.0419058
0.179373 -0.104979 -0.10751
-0.198214 -0.128537 -0.131636
-0.499329 -0.102505 -0.104975
-0.607794 -0.0369282 -0.0378185
-0.481528 0.0427479 0.0437784
-0.161166 0.100729 0.103157
0.109066 0.195202 0.0760457
0.300368 0.165766 0.0645779
0.370155 0.0622983 0.0242698
0.296972 -0.0654932 -0.0255145
0.109211 -0.168023 -0.0654575
-0.120683 -0.205729 -0.0801463
-0.304018 -0.164062 -0.0639145
-0.370056 -0.059105 -0.0230258
-0.293179 0.0684195 0.0266545
-0.0981263 0.16122 0.0628072
-0.00308032 0.193134 -0.00214773
-0.00848313 0.164009 -0.00182385
-0.0104541 0.0616382 -0.000685444
-0.00838728 -0.0647991 0.000720595
-0.00308443 -0.166243 0.00184869
0.00340841 -0.203548 0.00226356
0.00858622 -0.162324 0.00180512
0.0104513 -0.0584787 0.000650309
0.0082802 0.0676946 -0.000752796
0.00277135 0.159512 -0.00177384
-0.114038 0.116553 -0.0795126
-0.314061 0.0989764 -0.0675219
-0.387029 0.0371976 -0.0253762
-0.31051 -0.0391051 0.0266776
-0.11419 -0.100324 0.0684413
0.126185 -0.122838 0.0838004
0.317876 -0.0979597 0.0668285
0.386926 -0.0352908 0.0240755
0.306545 0.0408525 -0.0278697
0.1026 0.0962625 -0.0656705
-0.181 -0.00499519 -0.126201
-0.498463 -0.00423698 -0.107168
-0.614275 -0.00159224 -0.0402758
-0.492828 0.00167389 0.0423415
-0.181237 0.00429435 0.108627
0.200275 0.00525804 0.133004
0.504519 0.00419314 0.106067
0.614112 0.00151061 0.0382116
0.486534 -0.00174895 -0.0442335
0.162844 -0.00412559 -0.104231
-0.17813 -0.124616 -0.1242
-0.490148 -0.105594 -0.105385
-0.604022 -0.03968 -0.039604
-0.4846 0.0417146 0.0416349
-0.178212 0.107019 0.106815
0.196931 0.131035 0.130785
0.496098 0.104497 0.104297
0.603862 0.0376457 0.037574
0.478418 -0.0435887 -0.0434994
0.160263 -0.102922 -0.102578
-0.106536 -0.196159 -0.0742818
-0.278506 -0.158319 -0.0599525
-0.343027 -0.0593987 -0.0224932
-0.275205 0.0624383 0.0236442
-0.101207 0.160186 0.0606595
0.111838 0.196133 0.0742719
0.281734 0.15641 0.0592296
0.342935 0.0563433 0.0213361
0.27183 -0.0654613 -0.024789
0.0958501 -0.16201 -0.0613503
0 -0.498206 0
0 -0.423018 0
0 -0.158709 0
0 0.166831 0
0 0.428006 0
0 0.524054 0
0 0.417917 0
0 0.150545 0
0 -0.174908 0
0 -0.411475 0
0.0679279 -0.305995 -0.250278
0.187073 -0.260118 -0.212535
0.230537 -0.0977571 -0.0798752
0.184958 0.102771 0.0839717
0.0680181 0.263658 0.21543
-0.0751634 0.322824 0.263774
-0.189346 0.257443 0.210352
-0.230476 0.0927464 0.0757814
-0.182596 -0.107365 -0.087724
-0.0611144 -0.252725 -0.206708
0.109649 0.00427207 -0.403997
0.301972 0.00361636 -0.343074
0.372131 0.00135893 -0.128934
0.298559 -0.0014286 0.135546
0.109795 -0.00366512 0.347745
-0.121328 -0.00448764 0.425781
-0.305641 -0.00357872 0.339549
-0.372033 -0.00128925 0.122326
-0.294745 0.00149283 -0.141603
-0.0986504 0.00352836 -0.333667
0.109066 0.312891 -0.401851
0.300368 0.265707 -0.341251
0.370155 0.0998577 -0.128249
0.296972 -0.104979 0.134826
0.109211 -0.269324 0.345898
-0.120683 -0.329762 0.423519
-0.304018 -0.262976 0.337745
-0.370056 -0.0947395 0.121676
-0.293179 0.10967 -0.140851
-0.0981263 0.258421 -0.331894
0.0664052 0.500794 -0.244668
0.182879 0.425272 -0.207772
0.22537 0.159826 -0.0780846
0.180812 -0.168023 0.0820893
0.0664939 -0.431064 0.2106
-0.0734782 -0.527799 0.257861
-0.185102 -0.420903 0.205637
-0.22531 -0.151635 0.0740826
-0.178503 0.175531 -0.0857577
-0.0597444 0.413612 -0.202074
-0.00187546 0.495487 0.00691007
-0.005165 0.420767 0.005868
-0.006365 0.158132 0.00220533
-0.0051066 -0.166243 -0.00231842
-0.00187795 -0.426496 -0.00594792
0.00207524 -0.522205 -0.00728266
0.00522774 -0.416443 -0.00580771
0.00636332 -0.150028 -0.0020923
0.0050414 0.173672 0.00242202
0.00168734 0.409229 0.00570712
-0.0694325 0.299017 0.255822
-0.191216 0.253925 0.217243
-0.235643 0.0954304 0.0816446
-0.189055 -0.100324 -0.0858317
-0.0695248 -0.257383 -0.220201
0.0768281 -0.315141 -0.269616
0.19354 -0.251316 -0.215011
0.235581 -0.090539 -0.0774599
0.186641 0.104807 0.0896669
0.0624681 0.246963 0.211287
-0.110202 -0.0128152 0.406036
-0.30349 -0.01087 0.344799
-0.374003 -0.00408489 0.129583
-0.30006 0.00429435 -0.136227
-0.110347 0.0110172 -0.349494
0.121938 0.0134896 -0.427922
0.307178 0.0107576 -0.341256
0.373904 0.00387549 -0.122941
0.296227 -0.00448694 0.142316
0.0991482 -0.0105843 0.33535
-0.108455 -0.319703 0.399598
-0.298428 -0.270901 0.339061
-0.367759 -0.101799 0.127421
-0.29505 0.107019 -0.133955
-0.108505 0.274558 -0.343663
0.119902 0.336171 -0.420782
0.302051 0.268088 -0.335562
0.367662 0.0965801 -0.120889
0.291286 -0.111827 0.139953
0.0975762 -0.264047 0.330033
-0.0648648 -0.503248 0.238992
-0.169569 -0.406169 0.19289
-0.208852 -0.152388 0.072369
-0.167559 0.160186 -0.0760723
-0.0616199 0.410959 -0.195164
0.0680925 0.503181 -0.238961
0.171534 0.401272 -0.190564
0.208797 0.144549 -0.0686464
0.165504 -0.167942 0.0797555
0.0583586 -0.415639 0.197387
0 -0.610007 0
0 -0.517946 0
0 -0.194325 0
0 0.204269 0
0 0.524054 0
0 0.641655 0
0 0.511701 0
0 0.184329 0
0 -0.214159 0
0 -0.503813 0
-0.00191846 -0.374662 -0.481786
-0.00528343 -0.31849 -0.409132
-0.00651098 -0.119694 -0.153761
-0.00522368 0.125833 0.161645
-0.00192103 0.322824 0.414704
0.00212279 0.395268 0.507765
0.00534763 0.315215 0.404928
0.00650925 0.113559 0.145879
0.00515701 -0.131458 -0.168869
0.00172603 -0.309438 -0.397914
-0.00309677 0.00523075 -0.777696
-0.00852844 0.00442785 -0.660417
-0.01051 0.0016639 -0.248199
-0.00843202 -0.00174921 0.260928
-0.00310089 -0.00448764 0.669412
0.00342661 -0.00549466 0.819633
0.00863208 -0.00438182 0.653632
0.0105072 -0.00157857 0.235477
0.00832443 0.00182784 -0.272587
0.00278615 0.00432015 -0.64231
-0.00308032 0.383105 -0.773565
-0.00848313 0.325331 -0.656909
-0.0104541 0.122267 -0.246881
-0.00838728 -0.128537 0.259542
-0.00308443 -0.329762 0.665855
0.00340841 -0.403763 0.815278
0.00858622 -0.321988 0.650159
0.0104513 -0.116 0.234226
0.00828019 0.134281 -0.271139
0.00277135 0.316412 -0.638898
-0.00187546 0.613175 -0.470986
-0.005165 0.520707 -0.39996
-0.006365 0.195693 -0.150314
-0.0051066 -0.205729 0.158022
-0.00187795 -0.527799 0.405408
0.00207524 -0.646237 0.496384
0.00522774 -0.515357 0.395851
0.00636332 -0.185662 0.142609
0.0050414 0.214922 -0.165084
0.00168734 0.506429 -0.388994
5.2968e-05 0.606677 0.0133019
0.000145872 0.515189 0.011296
0.000179767 0.193619 0.00424522
0.000144225 -0.203548 -0.00446299
5.30387e-05 -0.522205 -0.0114497
-5.86088e-05 -0.639389 -0.0140192
-0.000147649 -0.509896 -0.0111799
-0.00017972 -0.183695 -0.00402767
-0.000142382 0.212644 0.0046624
-4.7655e-05 0.501063 0.0109862
0.00196096 0.366119 0.492458
0.00540045 0.310908 0.418195
0.00665521 0.116846 0.157166
0.00533941 -0.122838 -0.165226
0.00196357 -0.315141 -0.423888
-0.00216982 -0.385861 -0.519013
-0.0054661 -0.307714 -0.413898
-0.00665345 -0.110857 -0.149111
-0.00527123 0.128327 0.17261
-0.00176427 0.302383 0.406728
0.0031124 -0.015691 0.781621
0.00857135 -0.0133093 0.663739
0.0105628 -0.00500158 0.249447
0.00847438 0.00525804 -0.26224
0.00311648 0.0134896 -0.672778
-0.00344384 0.0165168 -0.823755
-0.00867548 0.0131716 -0.656919
-0.01056 0.00474517 -0.236661
-0.00836626 -0.00549384 0.273958
-0.00280021 -0.0129594 0.645551
0.00306305 -0.391447 0.769228
0.0084284 -0.331693 0.652691
0.0103865 -0.124644 0.245286
0.00833305 0.131035 -0.257864
0.00306448 0.336171 -0.661552
-0.00338635 0.411611 -0.810008
-0.00853064 0.328248 -0.645956
-0.0103837 0.118253 -0.232712
-0.00822669 -0.136922 0.26941
-0.00275581 -0.323301 0.635316
0.00183196 -0.61618 0.460061
0.00478909 -0.497317 0.371314
0.00589855 -0.186585 0.139311
0.00473231 0.196133 -0.14644
0.00174031 0.503181 -0.375692
-0.00192311 0.616098 -0.46
-0.00484459 0.49132 -0.366837
-0.00589698 0.176987 -0.132145
-0.00467428 -0.205629 0.15353
-0.0016482 -0.508912 0.379971
0 -0.486463 0
0 -0.413047 0
0 -0.154968 0
0 0.162898 0
0 0.417917 0
0 0.511701 0
0 0.408066 0
0 0.146997 0
0 -0.170785 0
0 -0.401776 0
-0.0710247 -0.298782 -0.527418
-0.195601 -0.253986 -0.447883
-0.241047 -0.0954528 -0.168324
-0.19339 0.100348 0.176956
-0.0711192 0.257443 0.453983
0.0785895 0.315215 0.555857
0.197978 0.251375 0.44328
0.240983 0.0905601 0.159696
0.19092 -0.104834 -0.184864
0.0639005 -0.246768 -0.435602
-0.114647 0.00417137 -0.851354
-0.315738 0.0035311 -0.722967
-0.389096 0.0013269 -0.271706
-0.312168 -0.00139495 0.285641
-0.1148 -0.00357872 0.732813
0.126859 -0.00438182 0.897263
0.319574 -0.00349438 0.715539
0.388993 -0.00125888 0.25778
0.308183 0.00145764 -0.298405
0.103148 0.00344519 -0.703145
-0.114038 0.305515 -0.846832
-0.314061 0.259443 -0.719126
-0.387029 0.097504 -0.270263
-0.31051 -0.102505 0.284123
-0.11419 -0.262976 0.72892
0.126185 -0.321988 0.892496
0.317876 -0.256777 0.711738
0.386926 -0.0925064 0.256411
0.306545 0.107085 -0.29682
0.1026 0.252329 -0.69941
-0.0694325 0.488989 -0.515595
-0.191216 0.415249 -0.437842
-0.235643 0.156059 -0.164551
-0.189055 -0.164062 0.172989
-0.0695248 -0.420903 0.443805
0.0768281 -0.515357 0.543396
0.19354 -0.410983 0.433344
0.235581 -0.14806 0.156116
0.186641 0.171394 -0.180719
0.0624681 0.403863 -0.425837
0.00196096 0.483807 0.0145618
0.00540045 0.410849 0.0123659
0.00665521 0.154405 0.00464733
0.00533941 -0.162324 -0.00488567
0.00196357 -0.416443 -0.0125342
-0.00216982 -0.509896 -0.015347
-0.0054661 -0.406627 -0.0122388
-0.00665345 -0.146491 -0.00440914
-0.00527123 0.169578 0.00510399
-0.00176427 0.399583 0.0120268
0.0725979 0.291969 0.539101
0.199934 0.24794 0.457804
0.246387 0.0931811 0.172052
0.197673 -0.0979597 -0.180875
0.0726945 -0.251316 -0.464037
-0.0803303 -0.307714 -0.56817
-0.202363 -0.245393 -0.453101
-0.246321 -0.0884049 -0.163233
-0.195149 0.102337 0.188958
-0.065316 0.241141 0.445251
0.115226 -0.0125131 0.855651
0.317325 -0.0106138 0.726602
0.391053 -0.00398861 0.273072
0.313737 0.00419314 -0.287078
0.115377 0.0107576 -0.736498
-0.127497 0.0131716 -0.901775
-0.321181 0.0105039 -0.719137
-0.390949 0.00378413 -0.259076
-0.309732 -0.00438116 0.299906
-0.103668 -0.0103348 0.706694
0.113399 -0.312167 0.842084
0.312033 -0.264516 0.71451
0.384525 -0.0994 0.268518
0.308502 0.104497 -0.282287
0.113452 0.268088 -0.724209
-0.125368 0.328248 -0.886727
-0.315819 0.261768 -0.707138
-0.384423 0.0943035 -0.254753
-0.304566 -0.109191 0.294926
-0.102025 -0.257823 0.695489
0.067822 -0.491385 0.503635
0.1773 -0.396595 0.406482
0.218374 -0.148796 0.152505
0.175198 0.15641 -0.160309
0.0644291 0.401272 -0.411275
-0.0711968 0.49132 -0.503568
-0.179354 0.391813 -0.401581
-0.218316 0.141142 -0.144661
-0.173049 -0.163983 0.168071
-0.0610191 -0.405842 0.415959
0 -0.175237 0
0 -0.148791 0
0 -0.0558238 0
0 0.0586804 0
0 0.150545 0
0 0.184329 0
0 0.146997 0
0 0.0529523 0
0 -0.0615215 0
0 -0.144731 0
-0.112729 -0.107629 -0.369568
-0.310449 -0.0915006 -0.313842
-0.382578 -0.0343878 -0.117949
-0.30694 0.0361513 0.123998
-0.112877 0.0927465 0.318116
0.124734 0.113559 0.389504
0.314221 0.0905602 0.310619
0.382477 0.0326251 0.111903
0.30302 -0.037767 -0.129538
0.101422 -0.0888926 -0.305231
-0.181966 0.00150264 -0.596553
-0.501124 0.0012721 -0.506601
-0.617556 0.000478026 -0.190392
-0.49546 -0.000502534 0.200156
-0.182205 -0.00128925 0.513501
0.201344 -0.00157857 0.628734
0.507213 -0.00125888 0.501398
0.617392 -0.000453521 0.180633
0.489133 0.000525125 -0.2091
0.163714 0.00124105 -0.492702
-0.181 0.110055 -0.593385
-0.498463 0.0934664 -0.50391
-0.614275 0.0351267 -0.189381
-0.492828 -0.0369282 0.199093
-0.181237 -0.0947396 0.510774
0.200275 -0.116 0.625394
0.504519 -0.0925065 0.498735
0.614112 -0.0333264 0.179674
0.486534 0.0385781 -0.207989
0.162844 0.0908959 -0.490085
-0.110202 0.176147 -0.361283
-0.30349 0.149597 -0.306808
-0.374003 0.0562219 -0.115305
-0.30006 -0.0591051 0.121218
-0.110347 -0.151635 0.310986
0.121938 -0.185663 0.380773
0.307178 -0.14806 0.303656
0.373904 -0.0533401 0.109395
0.296227 0.0617457 -0.126634
0.0991482 0.145482 -0.298389
0.0031124 0.174281 0.0102036
0.00857135 0.148011 0.00866504
0.0105628 0.0556261 0.00325651
0.00847438 -0.0584788 -0.00342351
0.00311648 -0.150028 -0.00878303
-0.00344384 -0.183695 -0.010754
-0.00867548 -0.146491 -0.00857599
-0.01056 -0.0527749 -0.00308961
-0.00836626 0.0610913 0.00357651
-0.00280021 0.143941 0.0084273
0.115226 0.105175 0.377754
0.317325 0.0893221 0.320794
0.391053 0.0335694 0.120561
0.313737 -0.0352909 -0.126744
0.115377 -0.0905391 -0.325162
-0.127497 -0.110857 -0.398132
-0.321181 -0.088405 -0.317498
-0.390949 -0.0318488 -0.114382
-0.309732 0.0368675 0.132408
-0.103668 0.0868657 0.311992
0.182885 -0.00450757 0.599564
0.503644 -0.0038237 0.509149
0.62066 -0.00143693 0.191349
0.49795 0.00151061 -0.201163
0.183121 0.00387549 -0.516084
-0.202357 0.00474518 -0.631895
-0.509764 0.00378413 -0.503919
-0.620495 0.00136326 -0.181541
-0.491592 -0.00157833 0.210151
-0.16454 -0.00372287 0.495188
0.179985 -0.112451 0.590058
0.495244 -0.0952933 0.500675
0.610302 -0.0358096 0.188157
0.489639 0.0376457 -0.197806
0.180065 0.0965803 -0.507472
-0.198979 0.118253 -0.621353
-0.501254 0.0943037 -0.495512
-0.61014 0.0339736 -0.178512
-0.483391 -0.0393365 0.206662
-0.161932 -0.092875 0.487337
0.107646 -0.177011 0.352903
0.281407 -0.142865 0.284827
0.346599 -0.0536004 0.106862
0.278071 0.0563433 -0.112331
0.102261 0.144549 -0.288185
-0.113002 0.176987 -0.352856
-0.284668 0.141142 -0.281392
-0.346507 0.0508432 -0.101365
-0.274661 -0.0590712 0.117769
-0.0968483 -0.146195 0.291467
0 0.203596 0
0 0.17287 0
0 0.0648577 0
0 -0.0681767 0
0 -0.174908 0
0 -0.214159 0
0 -0.170785 0
0 -0.0615215 0
0 0.0714776 0
0 0.168153 0
-0.110942 0.125047 -0.0691358
-0.305271 0.105938 -0.0590124
-0.376192 0.0398066 -0.0221837
-0.301816 -0.0418476 0.0233219
-0.110993 -0.10736 0.0598323
0.122652 -0.131453 0.0732591
0.308977 -0.104829 0.0584219
0.376092 -0.0377654 0.0210474
0.297965 0.0437338 -0.0243508
0.0998136 0.103278 -0.0571002
-0.179081 -0.00174582 -0.111598
-0.492766 -0.00147313 -0.0952571
-0.607248 -0.000553486 -0.0358088
-0.487189 0.000581859 0.037646
-0.179164 0.00149276 0.0965809
0.197983 0.00182775 0.118254
0.498748 0.00145758 0.0943043
0.607087 0.000525099 0.0339745
0.480973 -0.000608219 -0.0393069
0.161118 -0.00144189 -0.0921707
-0.17813 -0.127865 -0.111006
-0.490148 -0.108212 -0.0947511
-0.604022 -0.0406613 -0.0356186
-0.4846 0.0427462 0.0374461
-0.178212 0.109665 0.0960678
0.196931 0.134275 0.117626
0.496098 0.10708 0.0938035
0.603862 0.0385764 0.0337941
0.478418 -0.0446726 -0.0390981
0.160263 -0.105606 -0.0916811
-0.108455 -0.204653 -0.067586
-0.298428 -0.173197 -0.0576895
-0.367759 -0.0650801 -0.0216864
-0.29505 0.0684167 0.022799
-0.108505 0.175524 0.058491
0.119902 0.214912 0.0716169
0.302051 0.171387 0.0571124
0.367662 0.0617431 0.0205756
0.291286 -0.0715 -0.023805
0.0975762 -0.169026 -0.0558202
0.00306305 -0.202485 0.00190881
0.0084284 -0.171362 0.00162931
0.0103865 -0.0643905 0.000612482
0.00833305 0.0676917 -0.000643905
0.00306448 0.173664 -0.00165194
-0.00338635 0.212635 -0.00202265
-0.00853064 0.169571 -0.001613
-0.0103837 0.0610887 -0.00058111
-0.0082267 -0.0707422 0.000672316
-0.00275581 -0.167235 0.00157651
0.113399 -0.122196 0.0706672
0.312033 -0.103414 0.0603196
0.384525 -0.0388585 0.0226751
0.308502 0.0408508 -0.0238384
0.113452 0.104803 -0.0611576
-0.125368 0.128322 -0.074882
-0.315819 0.102333 -0.059716
-0.384423 0.0368659 -0.0215136
-0.304566 -0.0426917 0.0248902
-0.102025 -0.100923 0.058365
0.179985 0.00523704 0.112162
0.495244 0.00442756 0.0957359
0.610302 0.00166359 0.0359888
0.489639 -0.00174887 -0.0378351
0.180065 -0.00448675 -0.0970661
-0.198979 -0.00549361 -0.118848
-0.501254 -0.00438098 -0.0947782
-0.61014 -0.00157827 -0.0341452
-0.483391 0.00182792 0.0395045
-0.161932 0.00432534 0.0926359
0.177131 0.130649 0.110383
0.486993 0.110352 0.0941319
0.600125 0.0414615 0.0353839
0.481474 -0.043587 -0.0371991
0.177062 -0.111823 -0.0954346
-0.195661 -0.136916 -0.116851
-0.492898 -0.109187 -0.0931851
-0.599966 -0.0393349 -0.0335713
-0.475338 0.0455605 0.0388443
-0.159364 0.107905 0.0911671
0.105939 0.205656 0.0660183
0.276945 0.165984 0.0532831
0.341104 0.0622745 0.0199909
0.273662 -0.0654613 -0.0210139
0.100639 -0.167942 -0.0539114
-0.111211 -0.205629 -0.0660095
-0.280155 -0.163983 -0.0526406
-0.341013 -0.0590712 -0.0189626
-0.270306 0.0686307 0.0220313
-0.0953128 0.169854 0.0545254
0 0.50388 0
0 0.40668 0
0 0.152579 0
0 -0.160387 0
0 -0.411475 0
0 -0.503813 0
0 -0.401776 0
0 -0.144731 0
0 0.168153 0
0 0.416162 0
-0.0663522 0.30948 0.25797
-0.173457 0.24978 0.208206
-0.213642 0.0937131 0.0781155
-0.171401 -0.0985087 -0.0821129
-0.0630329 -0.252725 -0.210662
0.0696539 -0.309438 -0.257935
0.175468 -0.246768 -0.205696
0.213585 -0.0888926 -0.0740973
0.169299 0.103278 0.0860885
0.0596967 0.255603 0.213061
-0.107105 -0.00432073 0.416413
-0.279994 -0.00348724 0.336085
-0.344859 -0.00130835 0.126093
-0.276674 0.00137531 -0.132546
-0.101747 0.00352836 -0.340048
0.112435 0.00432015 -0.416357
0.283239 0.00344519 -0.332033
0.344767 0.00124105 -0.119607
0.273282 -0.00144189 0.138963
0.096362 -0.00356855 0.343921
-0.106536 -0.316454 0.414201
-0.278506 -0.255409 0.3343
-0.343027 -0.0958251 0.125424
-0.275205 0.100729 -0.131842
-0.101207 0.258421 -0.338242
0.111838 0.316412 -0.414146
0.281734 0.252329 -0.330269
0.342935 0.0908959 -0.118972
0.27183 -0.105606 0.138225
0.0958501 -0.261364 0.342094
-0.0648648 -0.506497 0.252187
-0.169569 -0.408792 0.203539
-0.208852 -0.153372 0.0763644
-0.167559 0.16122 -0.0802722
-0.0616199 0.413612 -0.205939
0.0680925 0.50643 -0.252153
0.171534 0.403863 -0.201085
0.208797 0.145482 -0.0724363
0.165504 -0.169026 0.0841587
0.0583586 -0.418323 0.208285
0.00183196 -0.50113 -0.00712243
0.00478908 -0.40446 -0.00574849
0.00589855 -0.151746 -0.00215674
0.00473231 0.159512 0.0022671
0.00174031 0.409229 0.00581627
-0.00192311 0.501063 0.00712148
-0.00484459 0.399583 0.00567917
-0.00589698 0.143941 0.0020458
-0.00467428 -0.167235 -0.00237687
-0.0016482 -0.41389 -0.00588251
0.067822 -0.302423 -0.263684
0.1773 -0.244084 -0.212818
0.218374 -0.0915763 -0.0798458
0.175198 0.0962626 0.0839318
0.0644291 0.246963 0.215328
-0.0711968 0.302383 0.263649
-0.179354 0.241141 0.210252
-0.218316 0.0868657 0.0757386
-0.173049 -0.100923 -0.0879954
-0.0610191 -0.249775 -0.21778
0.107646 0.0129612 -0.418514
0.281407 0.0104609 -0.337781
0.346599 0.00392475 -0.12673
0.278071 -0.00412559 0.133215
0.102261 -0.0105843 0.341764
-0.113002 -0.0129594 0.418459
-0.284668 -0.0103348 0.333708
-0.346507 -0.00372287 0.120211
-0.274661 0.00432534 -0.139665
-0.0968483 0.0107048 -0.345657
0.105939 0.323344 -0.411879
0.276945 0.26097 -0.332426
0.341103 0.0979115 -0.12472
0.273662 -0.102922 0.131103
0.100639 -0.264047 0.336346
-0.111211 -0.323301 0.411824
-0.280154 -0.257823 0.328417
-0.341013 -0.092875 0.118305
-0.270306 0.107905 -0.13745
-0.0953128 0.267054 -0.340176
0.0633602 0.508979 -0.246337
0.165636 0.410795 -0.198818
0.204008 0.154123 -0.0745931
0.163672 -0.16201 0.0784102
0.0601906 -0.415639 0.201162
-0.066513 -0.508912 0.246304
-0.167555 -0.405842 0.19642
-0.203954 -0.146195 0.0707561
-0.161665 0.169854 -0.0822065
-0.0570049 0.420373 -0.203453
