# vtk DataFile Version 3.0
Velocity field
ASCII
DATASET STRUCTURED_POINTS
DIMENSIONS 10 10 10
SPACING 0.631579 0.631579 0.631579
ORIGIN 0 0 0
POINT_DATA 1000
VECTORS velocity float
0 0.582331 0
0 0.469997 0
0 0.176335 0
0 -0.185358 0
0 -0.475539 0
0 -0.582253 0
0 -0.46433 0
0 -0.167264 0
0 0.194333 0
0 0.480955 0
0 0.357663 0.456153
0 0.288669 0.382595
0 0.108304 0.143543
0 -0.113846 -0.150889
0 -0.292073 -0.387107
0 -0.357616 -0.473976
0 -0.285188 -0.377982
0 -0.102733 -0.13616
0 0.119358 0.158194
0 0.295399 0.376743
0 -0.00499343 0.736319
0 -0.00403018 0.617582
0 -0.00151205 0.231707
0 0.00158943 -0.243564
0 0.0040777 -0.624865
0 0.00499277 -0.765089
0 0.00398158 -0.610136
0 0.00143428 -0.219788
0 -0.00166639 0.255356
0 -0.00412414 0.608136
0 -0.365724 0.732408
0 -0.295174 0.614302
0 -0.110744 0.230476
0 0.116411 -0.24227
0 0.298655 -0.621545
0 0.365675 -0.761025
0 0.291615 -0.606894
0 0.105048 -0.21862
0 -0.122048 0.254
0 -0.302056 0.604906
0 -0.585355 0.445928
0 -0.472438 0.374019
0 -0.177251 0.140325
0 0.186321 -0.147506
0 0.478009 -0.378429
0 0.585277 -0.463351
0 0.466741 -0.369509
0 0.168133 -0.133107
0 -0.195342 0.154648
0 -0.483453 0.368298
0 -0.579152 -0.0125942
0 -0.467431 -0.0105633
0 -0.175372 -0.00396317
0 0.184347 0.00416597
0 0.472943 0.0106879
0 0.579075 0.0130863
0 0.461795 0.0104359
0 0.166351 0.00375931
0 -0.193272 -0.00436768
0 -0.47833 -0.0104017
0 -0.349508 -0.466257
0 -0.282087 -0.39107
0 -0.105834 -0.146723
0 0.11125 0.154231
0 0.285413 0.395681
0 0.349461 0.484475
0 0.278685 0.386354
0 0.10039 0.139176
0 -0.116636 -0.161698
0 -0.288663 -0.385089
0 0.0149791 -0.740035
0 0.0120896 -0.620699
0 0.00453581 -0.232876
0 -0.00476792 0.244793
0 -0.0122321 0.628019
0 -0.0149771 0.76895
0 -0.0119438 0.613215
0 -0.00430249 0.220897
0 0.00499876 -0.256645
0 0.0123715 -0.611205
0 0.373687 -0.728302
0 0.301601 -0.610858
0 0.113156 -0.229183
0 -0.118946 0.240911
0 -0.305158 0.618061
0 -0.373637 0.756758
0 -0.297964 0.603492
0 -0.107335 0.217395
0 0.124705 -0.252575
0 0.308633 -0.601515
0 0.588223 -0.435584
0 0.474753 -0.351558
0 0.178119 -0.131899
0 -0.187234 0.138648
0 -0.480351 0.355704
0 -0.588145 0.435526
0 -0.469028 0.347319
0 -0.168957 0.125114
0 0.196299 -0.145361
0 0.485822 -0.359755
0 0.469997 0
0 0.399066 0
0 0.149723 0
0 -0.157384 0
0 -0.403772 0
0 -0.494381 0
0 -0.394254 0
0 -0.142021 0
0 0.165004 0
0 0.388177 0
0.0663241 0.288669 0.504834
0.182141 0.244369 0.427629
0.224447 0.0918167 0.160683
0.180072 -0.0965235 -0.16892
0.0662215 -0.247632 -0.433366
-0.0731776 -0.303201 -0.530615
-0.184344 -0.241794 -0.42315
-0.224388 -0.0871071 -0.152441
-0.177782 0.10089 0.176539
-0.0596714 0.238415 0.416949
0.10706 -0.00403018 0.814899
0.294011 -0.00339806 0.690273
0.362302 -0.00127661 0.259372
0.290671 0.00134205 -0.272669
0.106894 0.00344305 -0.699534
-0.118123 0.00421566 -0.856516
-0.297566 0.00336188 -0.683044
-0.362206 0.00121112 -0.24607
-0.286975 -0.00140306 0.284968
-0.0963212 -0.00332858 0.673036
0.106491 -0.295174 0.81057
0.29245 -0.249603 0.686606
0.360377 -0.0937829 0.257994
0.289127 0.0985909 -0.271221
0.106327 0.252936 -0.695817
-0.117496 0.309695 -0.851965
-0.295986 0.246973 -0.679416
-0.360282 0.0889729 -0.244763
-0.28545 -0.10305 0.283454
-0.0958095 -0.243788 0.669461
0.0648373 -0.472438 0.493517
0.178059 -0.3995 0.418042
0.219416 -0.150103 0.157081
0.176036 0.157798 -0.165134
0.0647369 0.404832 -0.42365
-0.0715375 0.49568 -0.51872
-0.180212 0.395291 -0.413665
-0.219358 0.142405 -0.149024
-0.173796 -0.164936 0.172581
-0.0583338 -0.390193 0.407603
-0.00183118 -0.467431 -0.0139382
-0.00502885 -0.395266 -0.0118066
-0.00619689 -0.148513 -0.00443638
-0.00497169 0.156126 0.00466379
-0.00182836 0.400543 0.011965
0.00202039 0.490427 0.0146501
0.00508966 0.391102 0.011683
0.00619525 0.140896 0.00420884
0.00490849 -0.163188 -0.00487414
0.0016475 -0.386058 -0.0115118
-0.0677932 -0.282087 -0.516016
-0.186176 -0.238535 -0.437101
-0.229419 -0.0896252 -0.164242
-0.18406 0.0942192 0.172661
-0.0676884 0.24172 0.442965
0.0747982 0.295964 0.542368
0.188427 0.236023 0.432524
0.229358 0.0850278 0.155818
0.18172 -0.0984814 -0.180449
0.0609932 -0.232979 -0.426185
-0.1076 0.0120896 -0.819011
-0.29549 0.0102136 -0.693746
-0.364124 0.00383734 -0.260677
-0.292133 -0.00403403 0.274041
-0.107432 -0.0103493 0.703055
0.118717 -0.0126718 0.860825
0.299063 -0.0101054 0.686481
0.364028 -0.00364049 0.247308
0.288418 0.00421697 -0.286402
0.0968073 0.00998495 -0.676432
-0.105894 0.301601 -0.806025
-0.290587 0.254563 -0.68226
-0.358077 0.0956384 -0.256353
-0.287282 -0.100541 0.269493
-0.105648 -0.257937 0.691387
0.116745 -0.31582 0.846539
0.294098 -0.251858 0.67509
0.357982 -0.0907319 0.243204
0.283631 0.105108 -0.281669
0.0952724 0.249096 -0.665708
-0.0633333 0.474753 -0.482069
-0.165566 0.383171 -0.389076
-0.203921 0.143759 -0.145975
-0.163603 -0.151116 0.153445
-0.060165 -0.38769 0.393664
0.0664848 -0.47469 0.482005
0.167484 -0.378551 0.384385
0.203867 -0.136365 0.138466
0.161597 0.158432 -0.160874
0.0569807 0.392105 -0.398148
0 0.176335 0
0 0.149723 0
0 0.0561734 0
0 -0.059048 0
0 -0.151488 0
0 -0.185483 0
0 -0.147917 0
0 -0.0532839 0
0 0.0619069 0
0 0.145637 0
0.10706 0.108304 0.358745
0.294011 0.0918167 0.303831
0.362302 0.0345007 0.114167
0.290671 -0.0362693 -0.12002
0.106894 -0.0930492 -0.307912
-0.118123 -0.11393 -0.377009
-0.297566 -0.0908559 -0.300653
-0.362206 -0.0327312 -0.108312
-0.286975 0.0379045 0.12543
-0.0963212 0.0894494 0.296293
0.172815 -0.00151205 0.579084
0.474591 -0.00127661 0.490443
0.584825 -0.000479641 0.184288
0.4692 0.000504224 -0.193735
0.172548 0.0012936 -0.497029
-0.190673 0.0015839 -0.608565
-0.48033 0.00126311 -0.485313
-0.584669 0.000455037 -0.174836
-0.463232 -0.000527084 0.202467
-0.155481 -0.00124883 0.478273
0.171897 -0.110744 0.576008
0.47207 -0.0937829 0.487837
0.581718 -0.0352396 0.183308
0.466707 0.037046 -0.192706
0.171631 0.095042 -0.494389
-0.18966 0.11637 -0.605332
-0.477778 0.0928018 -0.482735
-0.581564 0.0334322 -0.173907
-0.460771 -0.0387162 0.201392
-0.154655 -0.0914652 0.475733
0.10466 -0.177251 0.350703
0.287421 -0.150103 0.29702
0.354181 -0.0564023 0.111608
0.284156 0.0592939 -0.11733
0.104498 0.152119 -0.301009
-0.115475 0.186255 -0.368558
-0.290897 0.148533 -0.293915
-0.354087 0.0535098 -0.105884
-0.280541 -0.0619669 0.122618
-0.094162 -0.146394 0.289651
-0.00295588 -0.175372 -0.0099048
-0.0081175 -0.148513 -0.00838868
-0.010003 -0.0558045 -0.00315211
-0.00802526 0.0586656 0.0033137
-0.0029513 0.150506 0.00850136
0.00326131 0.184281 0.0104091
0.00821568 0.146959 0.00830091
0.0100003 0.0529427 0.00299044
0.00792327 -0.0613103 -0.00346305
0.00265939 -0.144842 -0.00818051
-0.109431 -0.105834 -0.366692
-0.300523 -0.0896252 -0.310561
-0.370327 -0.0336771 -0.116696
-0.297108 0.0354037 0.122678
-0.109262 0.0908283 0.314733
0.120739 0.111211 0.38536
0.304158 0.0886875 0.307313
0.370228 0.03195 0.110711
0.293331 -0.0369997 -0.128208
0.0984548 -0.0874098 -0.302856
-0.173687 0.00453581 -0.582006
-0.476978 0.00383734 -0.49291
-0.587766 0.00144182 -0.185215
-0.47156 -0.00151573 0.19471
-0.173416 -0.00388861 0.49953
0.191632 -0.00476125 0.611628
0.482746 -0.00379695 0.487755
0.58761 -0.00136787 0.175716
0.465563 0.00158425 -0.203486
0.156266 0.00374618 -0.480687
-0.170933 0.113156 -0.572778
-0.469063 0.0956384 -0.484745
-0.578006 0.0359333 -0.182141
-0.463728 -0.0377753 0.191478
-0.170536 -0.0969127 0.491238
0.188449 -0.118661 0.601472
0.47473 -0.0946285 0.479658
0.577853 -0.0340902 0.172799
0.457835 0.039486 -0.200123
0.153788 0.0934567 -0.473066
-0.102232 0.178119 -0.342568
-0.267255 0.143759 -0.276486
-0.329168 0.0539361 -0.103733
-0.264086 -0.0566962 0.109041
-0.097118 -0.145455 0.279746
0.107319 -0.178096 0.342523
0.270352 -0.142026 0.273152
0.329081 -0.0511617 0.0983968
0.260848 0.0594412 -0.11432
0.0919778 0.147111 -0.282932
0 -0.185358 0
0 -0.157384 0
0 -0.059048 0
0 0.0620697 0
0 0.15924 0
0 0.194975 0
0 0.155487 0
0 0.0560106 0
0 -0.0650748 0
0 -0.15309 0
0.106491 -0.113846 0.0742503
0.29245 -0.0965235 0.0628839
0.360377 -0.0362693 0.023629
0.289127 0.0381287 -0.0248404
0.106327 0.0978198 -0.0637284
-0.117496 0.119771 -0.0780294
-0.295986 0.0955138 -0.062226
-0.360282 0.0344093 -0.0224173
-0.28545 -0.0398474 0.02596
-0.0958095 -0.0940268 0.0613243
0.171897 0.00158943 0.119854
0.47207 0.00134205 0.101506
0.581718 0.000504224 0.0381418
0.466707 -0.000530075 -0.0400973
0.171631 -0.0013599 -0.10287
-0.18966 -0.00166509 -0.125955
-0.477778 -0.00132786 -0.100445
-0.581564 -0.000478359 -0.0361858
-0.46077 0.000554097 0.0419045
-0.154655 0.00131273 0.0989893
0.170984 0.116411 0.119218
0.469563 0.0985908 0.100967
0.578628 0.037046 0.0379391
0.464227 -0.0389454 -0.0398843
0.170719 -0.0999146 -0.102323
-0.188652 -0.122336 -0.125285
-0.475241 -0.0975596 -0.0999113
-0.578474 -0.0351463 -0.0359936
-0.458323 0.0407008 0.0416819
-0.153833 0.0961458 0.0984634
0.104104 0.186321 0.0725858
0.285894 0.157798 0.0614741
0.352299 0.0592939 0.0230994
0.282646 -0.0623336 -0.0242836
0.103943 -0.159918 -0.0622997
-0.114861 -0.195804 -0.0762801
-0.289352 -0.156148 -0.0608312
-0.352205 -0.056253 -0.0219147
-0.279051 0.065143 0.0253781
-0.0936618 0.153885 0.0599496
-0.00294017 0.184347 -0.00205002
-0.00807437 0.156126 -0.00173619
-0.00994981 0.0586656 -0.000652387
-0.00798268 -0.0616731 0.000685833
-0.00293564 -0.158223 0.00175951
0.00324399 -0.193729 0.00215436
0.00817204 -0.154493 0.00171804
0.00994718 -0.0556569 0.000618929
0.00788116 0.0644528 -0.000716746
0.00264526 0.152254 -0.00169314
-0.10885 0.11125 -0.075895
-0.298927 0.0942192 -0.0642765
-0.368359 0.0354037 -0.0241524
-0.295531 -0.0372185 0.0253906
-0.108682 -0.0954846 0.0651397
0.120098 -0.116912 0.0797579
0.302542 -0.0932341 0.0636045
0.368261 -0.0335879 0.0229138
0.291773 0.0388961 -0.0265351
0.0979317 0.0918828 -0.0626827
-0.172765 -0.00476792 -0.120459
-0.474445 -0.00403403 -0.102017
-0.584644 -0.00151573 -0.0383336
-0.469055 0.00159343 0.0402991
-0.172495 0.00408795 0.103387
0.190614 0.00500532 0.126588
0.480181 0.0039916 0.10095
0.584489 0.00143799 0.0363679
0.463089 -0.00166545 -0.0421153
0.155435 -0.00393789 -0.0994888
-0.170025 -0.118946 -0.118549
-0.466571 -0.10054 -0.100328
-0.574936 -0.0377753 -0.0376973
-0.461264 0.0397116 0.03963
-0.16963 0.101881 0.101671
0.187448 0.124743 0.124487
0.472209 0.0994791 0.0992746
0.574783 0.0358376 0.0357641
0.455403 -0.0415097 -0.0414194
0.152971 -0.0982392 -0.0979114
-0.101689 -0.187234 -0.0709021
-0.265835 -0.151116 -0.0572248
-0.32742 -0.0566962 -0.0214698
-0.262684 0.0595975 0.0225685
-0.096602 0.152898 0.0578996
0.106749 0.187209 0.0708927
0.268916 0.149294 0.0565348
0.327333 0.0537798 0.0203654
0.259462 -0.062483 -0.0236611
0.0914892 -0.154639 -0.058559
0 -0.475539 0
0 -0.403772 0
0 -0.151488 0
0 0.15924 0
0 0.408533 0
0 0.50021 0
0 0.398903 0
0 0.143696 0
0 -0.16695 0
0 -0.392754 0
0.0648373 -0.292073 -0.238891
0.178059 -0.247632 -0.20232
0.219416 -0.0930492 -0.0760232
0.176036 0.0978198 0.0799209
0.0647369 0.250957 0.205037
-0.0715375 0.307273 0.251049
-0.180212 0.245041 0.200204
-0.219358 0.0882774 0.0721247
-0.173796 -0.102229 -0.083523
-0.0583338 -0.241227 -0.197303
0.10466 0.0040777 -0.385616
0.287421 0.00344305 -0.326584
0.354181 0.0012936 -0.122716
0.284156 -0.0013599 0.129007
0.104498 -0.00348886 0.33097
-0.115475 -0.00427182 0.405242
-0.290897 -0.0034066 0.323169
-0.354087 -0.00122724 0.116423
-0.280541 0.00142154 -0.134822
-0.094162 0.00336783 -0.318486
0.104104 0.298655 -0.383568
0.285894 0.252936 -0.32485
0.352299 0.095042 -0.122064
0.282646 -0.0999146 0.128322
0.103943 -0.256332 0.329212
-0.114861 -0.313855 0.403089
-0.289352 -0.25029 0.321452
-0.352205 -0.090168 0.115804
-0.279051 0.104418 -0.134106
-0.0936618 0.246663 -0.316794
0.0633839 0.478009 -0.233536
0.174067 0.404832 -0.197785
0.214498 0.152119 -0.0743189
0.172089 -0.159918 0.0781293
0.0632861 -0.41027 0.200441
-0.0699336 -0.502337 0.245421
-0.176172 -0.400598 0.195717
-0.214441 -0.144318 0.0705079
-0.169901 0.167125 -0.0816508
-0.0570262 0.394794 -0.192881
-0.00179013 0.472943 0.00659568
-0.00491612 0.400543 0.00558597
-0.00605796 0.150506 0.00209898
-0.00486026 -0.158223 -0.00220657
-0.00178736 -0.405922 -0.00566099
0.00197512 -0.497013 -0.00693134
0.00497556 -0.396354 -0.00552755
0.00605635 -0.142789 -0.00199133
0.00479846 0.165355 0.00230603
0.00161057 0.39061 0.00544746
-0.0662735 0.285413 0.244183
-0.182002 0.24172 0.206801
-0.224276 0.0908283 0.0777073
-0.179935 -0.0954846 -0.0816911
-0.066171 -0.244967 -0.209579
0.0731218 -0.299938 -0.25661
0.184204 -0.239192 -0.204639
0.224217 -0.0861701 -0.0737222
0.177647 0.0997883 0.0853729
0.0596259 0.235726 0.201674
-0.105188 -0.0122321 0.387562
-0.288867 -0.0103493 0.328228
-0.355963 -0.00388861 0.123334
-0.285586 0.00408795 -0.129656
-0.105024 0.0104877 -0.332635
0.116056 0.0128412 -0.40728
0.29236 0.0102405 -0.324795
0.355868 0.00368917 -0.117009
0.281953 -0.00427273 0.135501
0.0946372 -0.0101027 0.320093
-0.10352 -0.305158 0.381417
-0.284073 -0.257937 0.322791
-0.35005 -0.0969127 0.121287
-0.280842 0.101881 -0.127505
-0.10328 0.261375 -0.327114
0.114128 0.32003 -0.40052
0.287506 0.255215 -0.319403
0.349957 0.0919417 -0.115066
0.277273 -0.106493 0.133261
0.0931367 -0.252034 0.315018
-0.0619136 -0.480351 0.228119
-0.161854 -0.38769 0.184114
-0.19935 -0.145455 0.0690764
-0.159935 0.152898 -0.0726112
-0.0588163 0.392261 -0.186285
0.0649945 0.480287 -0.228088
0.16373 0.383015 -0.181894
0.199297 0.137973 -0.0655232
0.157974 -0.160301 0.0761268
0.0557034 -0.396729 0.188406
0 -0.582253 0
0 -0.494381 0
0 -0.185483 0
0 0.194975 0
0 0.50021 0
0 0.612461 0
0 0.488419 0
0 0.175942 0
0 -0.204415 0
0 -0.480891 0
-0.00183118 -0.357616 -0.459866
-0.00502884 -0.303201 -0.389468
-0.00619689 -0.11393 -0.146345
-0.00497169 0.119771 0.153848
-0.00182836 0.307273 0.394699
0.00202039 0.376227 0.48327
0.00508966 0.300029 0.385394
0.00619525 0.108087 0.13884
0.00490849 -0.125169 -0.160783
0.0016475 -0.29536 -0.37981
-0.00295588 0.00499277 -0.742313
-0.0081175 0.00421565 -0.628676
-0.010003 0.0015839 -0.23623
-0.00802526 -0.00166509 0.24834
-0.0029513 -0.00427182 0.637119
0.00326131 -0.00523041 0.780092
0.00821568 -0.00417109 0.622101
0.0100003 -0.00150263 0.224115
0.00792327 0.00174055 -0.259533
0.00265939 0.00412359 -0.613086
-0.00294017 0.365675 -0.738369
-0.00807437 0.309695 -0.625336
-0.00994981 0.11637 -0.234975
-0.00798268 -0.122336 0.247021
-0.00293563 -0.313855 0.633735
0.00324399 -0.384285 0.775948
0.00817204 -0.306456 0.618795
0.00994718 -0.110402 0.222924
0.00788116 0.12785 -0.258154
0.00264526 0.302016 -0.60983
-0.00179013 0.585277 -0.449558
-0.00491612 0.49568 -0.380736
-0.00605796 0.186255 -0.143065
-0.00486026 -0.195804 0.150399
-0.00178736 -0.502337 0.38585
0.00197512 -0.615063 0.472438
0.00497556 -0.490496 0.376755
0.00605635 -0.176704 0.135728
0.00479846 0.204629 -0.157178
0.00161057 0.483388 -0.371296
5.05581e-05 0.579075 0.0126967
0.000138843 0.490427 0.010753
0.000171095 0.184281 0.0040405
0.000137267 -0.193729 -0.00424769
5.048e-05 -0.497013 -0.0108974
-5.57816e-05 -0.608545 -0.0133429
-0.000140526 -0.485298 -0.0106406
-0.00017105 -0.174831 -0.00383332
-0.000135521 0.202461 0.00443913
-4.54868e-05 0.478266 0.0104864
0.00187174 0.349461 0.470053
0.00514022 0.295964 0.398095
0.00633418 0.111211 0.149586
0.00508184 -0.116912 -0.157256
0.00186884 -0.299938 -0.40344
-0.00206515 -0.367247 -0.493975
-0.00520241 -0.292869 -0.393931
-0.0063325 -0.105507 -0.141916
-0.00501721 0.122182 0.164344
-0.001684 0.288625 0.388223
0.00297079 -0.0149771 0.746059
0.00815836 -0.0126718 0.631839
0.0100533 -0.00476125 0.237418
0.00806561 0.00500532 -0.249589
0.00296615 0.0128412 -0.640325
-0.00327772 0.0157229 -0.784018
-0.00825701 0.0125385 -0.625231
-0.0100507 0.00451704 -0.225242
-0.00796311 -0.00523156 0.260839
-0.00267281 -0.0123698 0.61618
0.00292369 -0.373637 0.73423
0.00802296 -0.31582 0.621372
0.00988633 -0.118661 0.233477
0.00793176 0.124743 -0.245446
0.00291691 0.32003 -0.629695
-0.00322328 0.391847 -0.771002
-0.00811986 0.312487 -0.61485
-0.00988371 0.112574 -0.221503
-0.00783093 -0.130391 0.256528
-0.00263043 -0.308592 0.606411
0.00174861 -0.588145 0.43913
0.00457119 -0.47469 0.35442
0.00563018 -0.178096 0.132972
0.004517 0.187209 -0.139777
0.00166113 0.480287 -0.358599
-0.00183562 0.588067 -0.439071
-0.00462417 0.468966 -0.350146
-0.00562868 0.168935 -0.126132
-0.00446161 -0.196273 0.146544
-0.00157321 -0.485757 0.362683
0 -0.46433 0
0 -0.394254 0
0 -0.147917 0
0 0.155487 0
0 0.398903 0
0 0.488419 0
0 0.3895 0
0 0.140309 0
0 -0.163015 0
0 -0.383496 0
-0.0677932 -0.285188 -0.503422
-0.186176 -0.241794 -0.426356
-0.229419 -0.0908559 -0.160206
-0.18406 0.0955138 0.168419
-0.0676884 0.245041 0.432082
0.0747982 0.300029 0.529043
0.188427 0.239265 0.421896
0.229358 0.0861963 0.15199
0.18172 -0.099819 -0.176011
0.0609932 -0.235541 -0.415783
-0.109431 0.00398158 -0.81262
-0.300523 0.00336188 -0.688218
-0.370327 0.00126311 -0.258603
-0.297108 -0.00132786 0.271862
-0.109262 -0.0034066 0.697461
0.120739 -0.00417109 0.853978
0.304158 -0.00332633 0.68102
0.370228 -0.00119832 0.245341
0.293331 0.00138803 -0.284115
0.0984548 0.00328844 -0.671154
-0.10885 0.291615 -0.808303
-0.298927 0.246973 -0.684562
-0.368359 0.0928018 -0.257229
-0.295531 -0.0975596 0.270417
-0.108682 -0.25029 0.693756
0.120098 -0.306456 0.849441
0.302542 -0.24439 0.677403
0.368261 -0.0880427 0.244038
0.291773 0.101957 -0.282606
0.0979317 0.240849 -0.667589
-0.0662735 0.466741 -0.492137
-0.182002 0.395291 -0.416797
-0.224276 0.148533 -0.156615
-0.179935 -0.156148 0.164644
-0.066171 -0.400598 0.422395
0.0731218 -0.490496 0.517183
0.184204 -0.391157 0.412439
0.224217 -0.140916 0.148583
0.177647 0.163186 -0.172065
0.0596259 0.385488 -0.406463
0.00187174 0.461795 0.0138993
0.00514022 0.391102 0.0117715
0.00633418 0.146959 0.00442321
0.00508184 -0.154493 -0.00464998
0.00186884 -0.396354 -0.0119295
-0.00206515 -0.485298 -0.0146067
-0.00520241 -0.387011 -0.0116484
-0.0063325 -0.139422 -0.00419639
-0.00501721 0.161457 0.00485957
-0.001684 0.381403 0.0114796
0.0692949 0.278685 0.514573
0.1903 0.236023 0.4358
0.234501 0.0886874 0.163755
0.188138 -0.0932341 -0.17215
0.0691877 -0.239192 -0.441651
-0.0764552 -0.292869 -0.540761
-0.192601 -0.233555 -0.431243
-0.234439 -0.084139 -0.155357
-0.185745 0.0974364 0.17991
-0.0623442 0.23017 0.424993
0.109984 -0.0119438 0.816721
0.302036 -0.0101054 0.691681
0.37219 -0.00379695 0.259904
0.298603 0.0039916 -0.27323
0.109812 0.0102405 -0.700971
-0.121346 0.0125385 -0.858275
-0.305688 0.00999908 -0.684447
-0.372091 0.0036022 -0.246576
-0.294807 -0.004172 0.285545
-0.0989516 -0.00986455 0.674541
0.10824 -0.297964 0.803771
0.297023 -0.251858 0.680223
0.366009 -0.0946285 0.255591
0.293646 0.0994791 -0.268693
0.107988 0.255215 -0.689334
-0.119331 0.312487 -0.844026
-0.30061 0.249198 -0.673085
-0.365912 0.0897744 -0.242482
-0.289914 -0.103983 0.280824
-0.0973827 -0.246093 0.663846
0.0647362 -0.469028 0.480721
0.169233 -0.378551 0.387988
0.208438 -0.142026 0.145567
0.167227 0.149294 -0.153016
0.0614977 0.383015 -0.392563
-0.0679575 0.468966 -0.480657
-0.171194 0.373987 -0.38331
-0.208383 0.13472 -0.138079
-0.165176 -0.156522 0.160424
-0.0582428 -0.387377 0.397034
0 -0.167264 0
0 -0.142021 0
0 -0.0532839 0
0 0.0560106 0
0 0.143696 0
0 0.175942 0
0 0.140309 0
0 0.0505431 0
0 -0.0587224 0
0 -0.138146 0
-0.1076 -0.102733 -0.352753
-0.29549 -0.0871072 -0.298756
-0.364124 -0.0327312 -0.11226
-0.292133 0.0344094 0.118016
-0.107432 0.0882775 0.302769
0.118717 0.108088 0.370713
0.299063 0.0861964 0.295633
0.364028 0.0310526 0.106503
0.288418 -0.03596 -0.123334
0.0968073 -0.0848482 -0.291344
-0.173687 0.00143428 -0.569412
-0.476978 0.00121112 -0.48225
-0.587766 0.000455038 -0.18121
-0.47156 -0.00047836 0.1905
-0.173416 -0.00122724 0.488728
0.191632 -0.00150263 0.5984
0.482746 -0.00119832 0.477208
0.58761 -0.000431699 0.171916
0.465563 0.000500041 -0.199085
0.156266 0.00118459 -0.470285
-0.172765 0.105048 -0.566387
-0.474445 0.088973 -0.479688
-0.584644 0.0334323 -0.180247
-0.469055 -0.0351463 0.189488
-0.172495 -0.0901681 0.486132
0.190614 -0.110402 0.595222
0.480181 -0.0880428 0.474674
0.584489 -0.0317179 0.171003
0.463089 0.0367302 -0.198028
0.155435 0.0867604 -0.467787
-0.105188 0.168133 -0.344846
-0.288867 0.142405 -0.29206
-0.355963 0.0535098 -0.109744
-0.285586 -0.0562531 0.11537
-0.105024 -0.144318 0.295982
0.116056 -0.176704 0.362403
0.29236 -0.140916 0.289006
0.355868 -0.0507656 0.104116
0.281953 0.0587881 -0.12057
0.0946372 0.138863 -0.284813
0.00297079 0.166351 0.00973937
0.00815836 0.140896 0.00824855
0.0100533 0.0529427 0.00309946
0.00806561 -0.0556569 -0.00325835
0.00296615 -0.142789 -0.00835931
-0.00327772 -0.174831 -0.0102352
-0.00825701 -0.139423 -0.00816227
-0.0100506 -0.0502276 -0.00294051
-0.00796311 0.0581651 0.00340522
-0.00267281 0.137392 0.00804388
0.109984 0.10039 0.360567
0.302036 0.0850279 0.305374
0.37219 0.0319501 0.114747
0.298603 -0.033588 -0.120629
0.109812 -0.0861702 -0.309476
-0.121346 -0.105508 -0.378924
-0.305688 -0.0841391 -0.30218
-0.372091 -0.0303115 -0.108862
-0.294807 0.0351016 0.126067
-0.0989516 0.0829135 0.297797
0.174564 -0.00430249 0.572285
0.479378 -0.0036405 0.484677
0.590722 -0.00136787 0.182121
0.473932 0.00143799 -0.191458
0.174288 0.00368917 -0.491187
-0.192596 0.00451705 -0.601411
-0.485175 0.00360221 -0.479609
-0.590566 0.00129771 -0.172781
-0.467905 -0.00150297 0.200087
-0.157054 -0.00355348 0.472658
0.171796 -0.107335 0.563212
0.471423 -0.090732 0.476649
0.580914 -0.0340903 0.179099
0.466061 0.0358377 -0.18828
0.171394 0.0919418 -0.483033
-0.189397 0.112574 -0.591429
-0.477118 0.0897745 -0.471649
-0.58076 0.0323415 -0.169913
-0.460138 -0.0374599 0.19678
-0.154564 -0.0886494 0.465164
0.102748 -0.168957 0.336847
0.268603 -0.136365 0.271868
0.330829 -0.0511617 0.102
0.265419 0.0537798 -0.10722
0.0976081 0.137973 -0.275074
-0.107861 0.168935 -0.336802
-0.271716 0.13472 -0.26859
-0.330742 0.04853 -0.0967534
-0.262164 -0.0563836 0.112411
-0.092442 -0.139544 0.278206
0 0.194333 0
0 0.165004 0
0 0.0619069 0
0 -0.0650748 0
0 -0.16695 0
0 -0.204415 0
0 -0.163015 0
0 -0.0587224 0
0 0.0682255 0
0 0.160502 0
-0.105894 0.119358 -0.0659903
-0.290587 0.100886 -0.0561471
-0.358077 0.0379031 -0.0211022
-0.287282 -0.0398459 0.0221845
-0.105648 -0.102225 0.0569143
0.116745 -0.125165 0.0696863
0.294098 -0.0998152 0.0555728
0.357982 -0.0359586 0.0200206
0.283631 0.0416546 -0.0231737
0.0952724 0.0985792 -0.0545023
-0.170933 -0.00166639 -0.106521
-0.469063 -0.001403 -0.090632
-0.578006 -0.000527062 -0.0340631
-0.463728 0.000554073 0.03581
-0.170536 0.00142148 0.0918707
0.188449 0.00174047 0.112487
0.47473 0.00138797 0.0897052
0.577853 0.000500019 0.0323171
0.457835 -0.000579349 -0.0374067
0.153788 -0.00137629 -0.0879772
-0.170025 -0.122048 -0.105955
-0.466571 -0.103046 -0.0901506
-0.574936 -0.0387147 -0.0338821
-0.461264 0.0406992 0.0356198
-0.16963 0.104414 0.0913827
0.187448 0.127845 0.11189
0.472209 0.101953 0.0892288
0.574783 0.0367287 0.0321455
0.455403 -0.0425467 -0.037208
0.152971 -0.100801 -0.0875098
-0.10352 -0.195342 -0.064511
-0.284073 -0.16493 -0.0548884
-0.35005 -0.0619645 -0.0206292
-0.280842 0.0651404 0.0216871
-0.10328 0.167118 0.0556385
0.114128 0.204621 0.0681242
0.287506 0.16318 0.0543271
0.349957 0.0587857 0.0195718
0.277273 -0.0680976 -0.0226542
0.0931367 -0.161336 -0.0532805
0.00292369 -0.193272 0.00182196
0.00802297 -0.163182 0.0015502
0.00988634 -0.0613078 0.000582623
0.00793176 0.0644502 -0.000612502
0.00291691 0.165348 -0.00157138
-0.00322328 0.202453 -0.00192401
-0.00811986 0.161451 -0.00153434
-0.00988372 0.0581627 -0.000552761
-0.00783093 -0.0673759 0.000639815
-0.00263043 -0.159626 0.00150478
0.10824 -0.116636 0.067452
0.297023 -0.0984776 0.0573908
0.366009 -0.0369982 0.0215697
0.293646 0.0388946 -0.0226758
0.107988 0.0997844 -0.058175
-0.119331 0.122177 -0.07123
-0.30061 0.0974325 -0.0568037
-0.365912 0.0351001 -0.0204641
-0.289914 -0.0406602 0.023687
-0.0973827 -0.0963314 0.0557095
0.171796 0.00499876 0.107059
0.471423 0.00421682 0.0910879
0.580914 0.00158419 0.0342344
0.466061 -0.00166538 -0.03599
0.171394 -0.00427256 -0.0923326
-0.189397 -0.00523136 -0.113053
-0.477118 -0.00417184 -0.0901563
-0.58076 -0.00150291 -0.0324796
-0.460138 0.00174117 0.0375949
-0.154564 0.00412855 0.0884212
0.169072 0.124705 0.105361
0.463606 0.105104 0.0895703
0.571276 0.0394845 0.0336625
0.458328 -0.0415081 -0.0353888
0.16855 -0.106489 -0.0907902
-0.186255 -0.130386 -0.111164
-0.469203 -0.103979 -0.0886502
-0.571125 -0.0374584 -0.0319369
-0.452509 0.0434 0.0369699
-0.152113 0.102996 0.0870192
0.101119 0.196299 0.0630146
0.264345 0.158432 0.0508588
0.325584 0.0594412 0.0190814
0.261211 -0.062483 -0.0200578
0.0960605 -0.160301 -0.0514586
-0.106151 -0.196273 -0.0630062
-0.267408 -0.156522 -0.0502456
-0.325498 -0.0563836 -0.0180999
-0.258008 0.0655081 0.021029
-0.0909763 0.162126 0.0520446
0 0.480955 0
0 0.388177 0
0 0.145637 0
0 -0.15309 0
0 -0.392754 0
0 -0.480891 0
0 -0.383496 0
0 -0.138146 0
0 0.160502 0
0 0.397227 0
-0.0633333 0.295399 0.246233
-0.165566 0.238415 0.198733
-0.203921 0.0894494 0.0745614
-0.163603 -0.0940268 -0.078377
-0.060165 -0.241227 -0.201077
0.0664848 -0.29536 -0.2462
0.167484 -0.235541 -0.196337
0.203867 -0.0848482 -0.0707261
0.161597 0.0985792 0.0821717
0.0569807 0.243974 0.203367
-0.102232 -0.00412414 0.397467
-0.267255 -0.00332858 0.320794
-0.329168 -0.00124883 0.120357
-0.264086 0.00131273 -0.126516
-0.0971179 0.00336783 -0.324577
0.107319 0.00412359 -0.397414
0.270352 0.00328844 -0.316926
0.329081 0.00118459 -0.114166
0.260848 -0.00137629 0.132641
0.0919778 -0.00340619 0.328274
-0.101689 -0.302056 0.395356
-0.265835 -0.243788 0.31909
-0.32742 -0.0914653 0.119717
-0.262683 0.0961458 -0.125843
-0.096602 0.246663 -0.322853
0.106749 0.302016 -0.395303
0.268916 0.240849 -0.315242
0.327333 0.0867604 -0.113559
0.259462 -0.100801 0.131936
0.0914892 -0.249472 0.32653
-0.0619136 -0.483453 0.240713
-0.161854 -0.390193 0.194279
-0.19935 -0.146394 0.07289
-0.159935 0.153885 -0.07662
-0.0588163 0.394794 -0.19657
0.0649945 0.483388 -0.240681
0.16373 0.385488 -0.191936
0.199297 0.138863 -0.0691407
0.157974 -0.161336 0.0803297
0.0557034 -0.39929 0.198808
0.00174861 -0.47833 -0.00679838
0.00457119 -0.386058 -0.00548695
0.00563018 -0.144842 -0.00205861
0.004517 0.152254 0.00216395
0.00166113 0.39061 0.00555165
-0.00183562 0.478266 0.00679747
-0.00462417 0.381403 0.00542078
-0.00562868 0.137392 0.00195272
-0.00446161 -0.159626 -0.00226872
-0.00157321 -0.395059 -0.00561487
0.0647362 -0.288663 -0.251687
0.169233 -0.232979 -0.203136
0.208438 -0.0874098 -0.076213
0.167227 0.0918828 0.0801131
0.0614977 0.235726 0.205531
-0.0679575 0.288625 0.251653
-0.171194 0.23017 0.200686
-0.208383 0.0829136 0.0722927
-0.165176 -0.0963315 -0.0839918
-0.0582428 -0.238411 -0.207872
0.102748 0.0123715 -0.399473
0.268603 0.00998495 -0.322413
0.330829 0.00374618 -0.120964
0.265419 -0.00393789 0.127154
0.097608 -0.0101027 0.326215
-0.107861 -0.0123698 0.39942
-0.271716 -0.00986456 0.318525
-0.330741 -0.00355349 0.114742
-0.262164 0.00412855 -0.13331
-0.092442 0.0102178 -0.32993
0.101119 0.308633 -0.393139
0.264345 0.249096 -0.317301
0.325584 0.0934568 -0.119046
0.261211 -0.0982392 0.125138
0.0960604 -0.252034 0.321043
-0.106151 -0.308592 0.393087
-0.267408 -0.246093 0.313475
-0.325497 -0.0886495 0.112922
-0.258008 0.102996 -0.131197
-0.0909763 0.254904 -0.324699
0.0604775 0.485822 -0.235129
0.1581 0.392105 -0.189772
0.194726 0.147111 -0.0711993
0.156225 -0.154639 0.0748427
0.057452 -0.396729 0.19201
-0.0634869 -0.485757 0.235098
-0.159932 -0.387377 0.187484
-0.194674 -0.139544 0.0675368
-0.15431 0.162126 -0.0784663
-0.0544113 0.401247 -0.194197
