# vtk DataFile Version 3.0
Velocity field
ASCII
DATASET STRUCTURED_POINTS
DIMENSIONS 10 10 10
SPACING 0.631579 0.631579 0.631579
ORIGIN 0 0 0
POINT_DATA 1000
VECTORS velocity float
0 0.370163 0
0 0.298757 0
0 0.112088 0
0 -0.117824 0
0 -0.30228 0
0 -0.370113 0
0 -0.295154 0
0 -0.106323 0
0 0.123529 0
0 0.305722 0
0 0.227351 0.289957
0 0.183494 0.243199
0 0.0688439 0.0912442
0 -0.0723669 -0.0959135
0 -0.185658 -0.246067
0 -0.227321 -0.301286
0 -0.181282 -0.240267
0 -0.0653027 -0.0865507
0 0.0758706 0.100557
0 0.187772 0.23948
0 -0.00317411 0.468046
0 -0.00256181 0.392571
0 -0.000961148 0.147286
0 0.00101033 -0.154823
0 0.00259202 -0.3972
0 0.00317369 -0.486334
0 0.00253092 -0.387837
0 0.000911708 -0.13971
0 -0.00105925 0.162319
0 -0.00262154 0.386566
0 -0.232475 0.46556
0 -0.187629 0.390485
0 -0.0703954 0.146503
0 0.0739977 -0.154
0 0.189842 -0.39509
0 0.232444 -0.483751
0 0.185367 -0.385777
0 0.0667743 -0.138967
0 -0.0775804 0.161457
0 -0.192004 0.384513
0 -0.372085 0.283457
0 -0.300308 0.237748
0 -0.112671 0.0891989
0 0.118436 -0.0937634
0 0.30385 -0.240551
0 0.372035 -0.294532
0 0.296687 -0.234881
0 0.106875 -0.0846106
0 -0.124171 0.0983031
0 -0.30731 0.234111
0 -0.368142 -0.00800559
0 -0.297126 -0.00671463
0 -0.111477 -0.00251921
0 0.117181 0.00264812
0 0.30063 0.0067938
0 0.368093 0.00831838
0 0.293543 0.00663366
0 0.105742 0.00238963
0 -0.122855 -0.00277634
0 -0.304053 -0.00661193
0 -0.222167 -0.29638
0 -0.17931 -0.248586
0 -0.0672742 -0.0932654
0 0.0707168 0.0980381
0 0.181425 0.251518
0 0.222138 0.30796
0 0.177148 0.245589
0 0.0638136 0.0884679
0 -0.0741406 -0.102785
0 -0.183491 -0.244784
0 0.00952157 -0.470408
0 0.00768483 -0.394552
0 0.00288322 -0.148029
0 -0.00303076 0.155604
0 -0.00777545 0.399204
0 -0.00952031 0.488788
0 -0.00759216 0.389794
0 -0.00273491 0.140415
0 0.0031775 -0.163138
0 0.007864 -0.388517
0 0.237536 -0.46295
0 0.191715 -0.388296
0 0.0719281 -0.145682
0 -0.0756089 0.153137
0 -0.193976 0.392875
0 -0.237505 0.481038
0 -0.189403 0.383614
0 -0.0682282 0.138188
0 0.0792696 -0.160551
0 0.196185 -0.382357
0 0.373908 -0.276882
0 0.30178 -0.223471
0 0.113223 -0.0838423
0 -0.119017 0.0881328
0 -0.305339 0.226106
0 -0.373859 0.276845
0 -0.298141 0.220776
0 -0.107399 0.0795296
0 0.124779 -0.0923999
0 0.308816 -0.228681
0 0.298757 0
0 0.253669 0
0 0.0951722 0
0 -0.100042 0
0 -0.25666 0
0 -0.314256 0
0 -0.25061 0
0 -0.0902766 0
0 0.104886 0
0 0.246747 0
0.0421594 0.183494 0.320901
0.113577 0.152642 0.266895
0.139915 0.0573024 0.100194
0.112251 -0.0602359 -0.105323
0.0412806 -0.154536 -0.270208
-0.0456169 -0.189215 -0.330845
-0.114915 -0.150893 -0.263839
-0.139878 -0.0543568 -0.0950438
-0.110856 0.0630772 0.11029
-0.0379306 0.15155 0.265037
0.0680533 -0.00256181 0.517996
0.183335 -0.00212521 0.43082
0.225849 -0.000797766 0.161732
0.181196 0.000838607 -0.170012
0.0666348 0.00215145 -0.436168
-0.0736342 0.00263425 -0.534047
-0.185494 0.00210074 -0.425886
-0.225789 0.000756756 -0.153419
-0.178942 -0.000878266 0.17803
-0.0612272 -0.00211583 0.42782
0.0676918 -0.187629 0.515244
0.182361 -0.155899 0.428531
0.224649 -0.0585242 0.160873
0.180233 0.0615203 -0.169109
0.0662808 0.157831 -0.433851
-0.0732433 0.193249 -0.531211
-0.184509 0.15411 -0.423624
-0.224589 0.0555158 -0.152604
-0.177992 -0.0644241 0.177084
-0.060902 -0.154966 0.425547
0.0412143 -0.300308 0.313707
0.111031 -0.249522 0.260912
0.136778 -0.09367 0.0979479
0.109735 0.0984656 -0.102962
0.040355 0.252614 -0.264151
-0.0445942 0.309303 -0.323427
-0.112338 0.24666 -0.257925
-0.136741 0.0888552 -0.092913
-0.10837 -0.103113 0.107818
-0.0370803 -0.248029 0.259095
-0.001164 -0.297126 -0.00885994
-0.0031358 -0.246878 -0.00736885
-0.00386298 -0.0926773 -0.00276632
-0.0030992 0.0974223 0.00290793
-0.00113974 0.249937 0.00746033
0.00125945 0.306025 0.00913451
0.00317274 0.244046 0.00728448
0.00386195 0.0879134 0.00262411
0.00306068 -0.102021 -0.00304506
0.00104725 -0.2454 -0.00731754
-0.0430932 -0.17931 -0.328009
-0.116093 -0.148986 -0.272807
-0.143014 -0.0559292 -0.102413
-0.114738 0.0587925 0.107656
-0.042195 0.150833 0.276193
0.046627 0.184681 0.338173
0.11746 0.147278 0.269683
0.142976 0.0530542 0.097149
0.113311 -0.0615676 -0.112733
0.0387707 -0.148095 -0.270907
-0.0683967 0.00768483 -0.52061
-0.18426 0.00638378 -0.432992
-0.226988 0.00239644 -0.162548
-0.18211 -0.00251911 0.17087
-0.0669709 -0.00646282 0.438368
0.0740053 -0.00791312 0.536741
0.186429 -0.00631049 0.428034
0.226928 -0.00227325 0.154192
0.179845 0.00263807 -0.178927
0.0615362 0.006347 -0.429979
-0.0673123 0.191715 -0.512356
-0.181285 0.159177 -0.426009
-0.223324 0.0597534 -0.159925
-0.179169 -0.0628124 0.168112
-0.0658897 -0.161146 0.431294
0.072811 -0.197308 0.528078
0.183421 -0.157347 0.421126
0.223264 -0.0566818 0.151704
0.176942 0.0657801 -0.176042
0.0605605 0.15834 -0.423162
-0.0402583 0.30178 -0.306431
-0.105243 0.243566 -0.247319
-0.129624 0.0913816 -0.0927899
-0.103995 -0.0960579 0.0975382
-0.0382443 -0.246438 0.250235
0.0422615 -0.30174 0.30639
0.106463 -0.240629 0.244337
0.12959 -0.0866811 0.0880169
0.10272 0.100709 -0.102261
0.0362202 0.249244 -0.253085
0 0.112088 0
0 0.0951722 0
0 0.035707 0
0 -0.0375342 0
0 -0.0962945 0
0 -0.117904 0
0 -0.0940247 0
0 -0.0338703 0
0 0.0393515 0
0 0.0925753 0
0.0680533 0.0688439 0.228039
0.183335 0.0573024 0.189589
0.225849 0.0215118 0.0711726
0.181196 -0.0226132 -0.074816
0.0666348 -0.0580145 -0.191942
-0.0736342 -0.0710332 -0.235015
-0.185494 -0.0566469 -0.187417
-0.225789 -0.0204061 -0.0675144
-0.178942 0.023679 0.0783449
-0.0612272 0.0568591 0.18834
0.109851 -0.000961148 0.368099
0.295938 -0.000797766 0.306033
0.364565 -0.000299473 0.114886
0.292485 0.000314801 -0.120768
0.107561 0.000807629 -0.309831
-0.118859 0.000988871 -0.37936
-0.299422 0.000788593 -0.302528
-0.364468 0.000284078 -0.108981
-0.288847 -0.000329681 0.126464
-0.0988325 -0.000793825 0.304018
0.109268 -0.0703954 0.366143
0.294366 -0.0585241 0.304407
0.362628 -0.0219702 0.114276
0.290931 0.023095 -0.120126
0.10699 0.0592503 -0.308186
-0.118228 0.0725468 -0.377344
-0.297832 0.0578539 -0.30092
-0.362532 0.0208409 -0.108402
-0.287312 -0.0241843 0.125792
-0.0983075 -0.0581405 0.302403
0.0665278 -0.112671 0.222927
0.179225 -0.09367 0.185339
0.220787 -0.0351643 0.0695772
0.177134 0.0369644 -0.0731395
0.0651409 0.0948327 -0.187639
-0.0719835 0.116114 -0.229747
-0.181337 0.092597 -0.183217
-0.220728 0.0333567 -0.0660007
-0.174931 -0.0387078 0.0765887
-0.0598547 -0.0930561 0.184119
-0.00187892 -0.111477 -0.00629605
-0.00506177 -0.0926773 -0.00523448
-0.00623557 -0.0347916 -0.00196505
-0.00500272 0.0365728 0.00206565
-0.00183975 0.0938275 0.00529946
0.002033 0.114883 0.00648869
0.00512142 0.0916162 0.00517452
0.00623392 0.0330032 0.00186403
0.00494054 -0.0382977 -0.00216306
0.00169046 -0.09207 -0.0052
-0.0695608 -0.0672742 -0.23309
-0.187395 -0.0559292 -0.193789
-0.230852 -0.0209961 -0.0727494
-0.185209 0.022071 0.0764737
-0.0681105 0.0566233 0.196194
0.075265 0.06933 0.240221
0.189603 0.0552887 0.191569
0.230791 0.0199169 0.0690095
0.182906 -0.0231119 -0.0800802
0.0625834 -0.0555626 -0.192512
-0.110406 0.00288322 -0.369956
-0.297429 0.00239644 -0.307577
-0.366404 0.000899627 -0.115466
-0.29396 -0.000945681 0.121377
-0.108104 -0.00242615 0.311394
0.119459 -0.0029706 0.381273
0.300933 -0.00236896 0.304054
0.366306 -0.000853382 0.109531
0.290304 0.000990301 -0.127101
0.0993313 0.00238129 -0.305552
-0.108655 0.0719281 -0.36409
-0.29263 0.0597534 -0.302616
-0.360488 0.0224312 -0.113603
-0.289215 -0.0235795 0.119418
-0.106359 -0.0604936 0.306369
0.11753 -0.0740686 0.375119
0.296076 -0.0590676 0.299146
0.360392 -0.0212782 0.107763
0.285619 0.0246928 -0.125052
0.0977564 0.0594064 -0.300707
-0.0649846 0.113223 -0.217756
-0.169882 0.0913816 -0.17575
-0.209238 0.0342848 -0.0659384
-0.167868 -0.0360393 0.0693127
-0.0617337 -0.0924592 0.177822
0.0682183 -0.113208 0.217727
0.171851 -0.0902798 0.173631
0.209183 -0.0325213 0.0625466
0.16581 0.0377842 -0.0726686
0.0584663 0.0935122 -0.179848
0 -0.117824 0
0 -0.100042 0
0 -0.0375342 0
0 0.039455 0
0 0.101222 0
0 0.123937 0
0 0.0988362 0
0 0.0356035 0
0 -0.0413653 0
0 -0.0973127 0
0.0676918 -0.0723669 0.0471977
0.182361 -0.0602359 0.0392393
0.224649 -0.0226132 0.0147306
0.180233 0.0237709 -0.0154847
0.0662808 0.0609846 -0.0397264
-0.0732433 0.0746695 -0.0486412
-0.184509 0.0595469 -0.0387898
-0.224589 0.0214509 -0.0139734
-0.177992 -0.0248912 0.016215
-0.060902 -0.0597687 0.0389812
0.109268 0.00101033 0.0761862
0.294366 0.000838606 0.0633397
0.362628 0.000314801 0.0237781
0.290931 -0.000330919 -0.0249953
0.10699 -0.000848972 -0.0641259
-0.118228 -0.0010395 -0.0785162
-0.297832 -0.000828964 -0.0626141
-0.362532 -0.000298619 -0.0225557
-0.287312 0.000346558 0.0261742
-0.0983075 0.000834447 0.0629232
0.108687 0.0739977 0.0757814
0.292802 0.0615203 0.0630032
0.360701 0.023095 0.0236517
0.289386 -0.0242774 -0.0248625
0.106421 -0.0622837 -0.0637852
-0.1176 -0.0762607 -0.078099
-0.29625 -0.0608157 -0.0622815
-0.360605 -0.0219078 -0.0224359
-0.285787 0.0254223 0.0260352
-0.0977853 0.0611157 0.0625889
0.0661744 0.118436 0.0461397
0.178273 0.0984656 0.0383596
0.219614 0.0369644 0.0144004
0.176193 -0.0388568 -0.0151376
0.064795 -0.0996873 -0.0388357
-0.071601 -0.122058 -0.0475507
-0.180373 -0.0973381 -0.0379203
-0.219556 -0.0350644 -0.0136602
-0.174001 0.0406893 0.0158515
-0.0595368 0.0978181 0.0381074
-0.00186894 0.117181 -0.00130311
-0.00503488 0.0974223 -0.00108338
-0.00620244 0.0365728 -0.000406706
-0.00497617 -0.0384451 0.000427528
-0.00182998 -0.0986312 0.00109683
0.00202221 -0.120765 0.00134296
0.00509421 -0.0963063 0.00107097
0.0062008 -0.0346928 0.000385799
0.00491429 0.0402582 -0.00044769
0.00168148 0.0967815 -0.00107625
-0.0691912 0.0707168 -0.0482431
-0.1864 0.0587925 -0.0401083
-0.229626 0.022071 -0.0150569
-0.184226 -0.0232009 0.0158277
-0.0677489 -0.0595221 0.040606
0.0748651 -0.0728795 0.0497184
0.188596 -0.0581193 0.0396492
0.229565 -0.0209365 0.0142829
0.181935 0.0242952 -0.0165742
0.062251 0.0584059 -0.0398447
-0.109819 -0.00303076 -0.0765706
-0.29585 -0.00251911 -0.0636591
-0.364457 -0.000945681 -0.0238979
-0.292399 0.000994095 0.0251213
-0.107529 0.00255036 0.0644492
0.118824 0.00312267 0.0789123
0.299334 0.00249024 0.0629299
0.36436 0.000897069 0.0226695
0.288762 -0.001041 -0.0263061
0.0988036 -0.00250314 -0.0632407
-0.108078 -0.0756089 -0.0753566
-0.291075 -0.0628123 -0.0626323
-0.358573 -0.0235795 -0.0235123
-0.287678 0.0247866 0.0247159
-0.105793 0.0635904 0.0634092
0.116906 0.0778605 0.0776385
0.294504 0.0620915 0.0619144
0.358478 0.0223674 0.0223037
0.284101 -0.0259569 -0.0258822
0.0972371 -0.0624464 -0.0622381
-0.0646394 -0.119017 -0.0450694
-0.16898 -0.0960579 -0.0363754
-0.208127 -0.0360393 -0.0136474
-0.166977 0.0378835 0.0143458
-0.0614057 0.0971906 0.0368043
0.0678559 0.119001 0.0450634
0.170938 0.0948997 0.0359368
0.208071 0.0341855 0.0129454
0.164929 -0.0397177 -0.0150404
0.0581557 -0.0982975 -0.0372235
0 -0.30228 0
0 -0.25666 0
0 -0.0962945 0
0 0.101222 0
0 0.259687 0
0 0.317962 0
0 0.253565 0
0 0.0913412 0
0 -0.106123 0
0 -0.249657 0
0.0412143 -0.185658 -0.151853
0.111031 -0.154536 -0.126247
0.136778 -0.0580145 -0.0473938
0.109735 0.0609846 0.04982
0.040355 0.156456 0.127814
-0.0445942 0.191566 0.156497
-0.112338 0.152768 0.124801
-0.136741 0.0550324 0.0449576
-0.10837 -0.0638587 -0.0521699
-0.0370803 -0.153337 -0.125417
0.0665278 0.00259202 -0.245119
0.179225 0.00215146 -0.203787
0.220787 0.000807629 -0.0765029
0.177134 -0.000848972 0.0804191
0.0651409 -0.00217805 0.206317
-0.0719835 -0.00266684 0.252615
-0.181337 -0.0021267 0.201453
-0.220728 -0.00076611 0.0725705
-0.174931 0.000889094 -0.0842121
-0.0598547 0.00214078 -0.202448
0.0661744 0.189842 -0.243817
0.178273 0.157831 -0.202705
0.219614 0.0592503 -0.0760964
0.176193 -0.0622837 0.0799921
0.064795 -0.15979 0.205221
-0.071601 -0.195648 0.251273
-0.180373 -0.156023 0.200383
-0.219556 -0.0562047 0.0721848
-0.174001 0.0652211 -0.0837647
-0.0595368 0.156793 -0.201372
0.0402904 0.30385 -0.148449
0.108542 0.252614 -0.123417
0.133712 0.0948327 -0.0463313
0.107275 -0.0996873 0.0487035
0.0394507 -0.25575 0.124949
-0.0435943 -0.313142 0.152989
-0.109821 -0.249721 0.122004
-0.133677 -0.0899579 0.0439498
-0.105941 0.104389 -0.0510003
-0.0362491 0.250953 -0.122606
-0.00113791 0.30063 0.00419259
-0.00306552 0.249937 0.00348563
-0.00377638 0.0938275 0.00130853
-0.00302974 -0.0986312 -0.00137551
-0.00111419 -0.253039 -0.00352888
0.00123123 -0.309823 -0.00432078
0.00310161 -0.247075 -0.00344572
0.00377538 -0.0890048 -0.00124127
0.00299207 0.103283 0.00144039
0.00102377 0.248294 0.00346272
-0.0421272 0.181425 0.155216
-0.11349 0.150833 0.129044
-0.139808 0.0566233 0.0484437
-0.112166 -0.0595221 -0.0509237
-0.0412491 -0.152705 -0.130645
0.0455821 -0.186972 -0.159963
0.114827 -0.149105 -0.127566
0.139771 -0.0537127 -0.0459536
0.110771 0.0623294 0.0533253
0.0379016 0.149841 0.128195
-0.0668635 -0.00777545 0.246356
-0.180129 -0.00646282 0.204815
-0.2219 -0.00242615 0.0768886
-0.178027 0.00255036 -0.0808244
-0.0654694 0.00654297 -0.207358
0.0723466 0.00801128 -0.253889
0.182251 0.00638876 -0.202469
0.221841 0.00230144 -0.0729364
0.175813 -0.00267069 0.0846369
0.0601568 -0.00642184 0.203469
-0.0658034 -0.193976 0.24245
-0.177221 -0.161146 0.201512
-0.218318 -0.0604936 0.0756479
-0.175153 0.0635904 -0.0795208
-0.0644127 0.163142 -0.204011
0.0711786 0.199752 -0.249792
0.179309 0.159297 -0.199201
0.21826 0.0573839 -0.0717592
0.172975 -0.0665926 0.0832724
0.059203 -0.160207 0.200243
-0.0393558 -0.305339 0.145005
-0.102884 -0.246438 0.117033
-0.126718 -0.0924592 0.0439089
-0.101664 0.0971906 -0.0461558
-0.037387 0.249344 -0.118413
0.0413142 0.305298 -0.144986
0.104076 0.243466 -0.115622
0.126685 0.0877032 -0.0416502
0.100417 -0.101896 0.0483905
0.0354082 -0.252183 0.119762
0 -0.370113 0
0 -0.314256 0
0 -0.117904 0
0 0.123937 0
0 0.317962 0
0 0.389315 0
0 0.310467 0
0 0.111839 0
0 -0.129938 0
0 -0.305681 0
-0.001164 -0.227321 -0.292317
-0.0031358 -0.189215 -0.243027
-0.00386298 -0.0710332 -0.0912337
-0.0030992 0.0746695 0.095904
-0.00113974 0.191566 0.246043
0.00125945 0.234555 0.301256
0.00317274 0.18705 0.240243
0.00386195 0.0673821 0.0865436
0.00306068 -0.078189 -0.100427
0.00104725 -0.187747 -0.241429
-0.00187892 0.00317369 -0.471856
-0.00506177 0.00263425 -0.392292
-0.00623557 0.000988871 -0.147268
-0.00500272 -0.0010395 0.154808
-0.00183975 -0.00266684 0.397159
0.002033 -0.00326529 0.486286
0.00512142 -0.00260397 0.387799
0.00623392 -0.00093803 0.139698
0.00494054 0.00108862 -0.162108
0.00169046 0.00262119 -0.389713
-0.00186894 0.232444 -0.46935
-0.00503488 0.193249 -0.390209
-0.00620244 0.0725468 -0.146486
-0.00497617 -0.0762607 0.153985
-0.00182998 -0.195648 0.39505
0.00202221 -0.239552 0.483702
0.00509421 -0.191036 0.385739
0.0062008 -0.0688173 0.138956
0.00491429 0.0798574 -0.161247
0.00168148 0.191978 -0.387642
-0.00113791 0.372035 -0.285764
-0.00306552 0.309303 -0.237578
-0.00377638 0.116114 -0.0891883
-0.00302974 -0.122058 0.0937539
-0.00111419 -0.313142 0.240527
0.00123123 -0.383412 0.294504
0.00310161 -0.305761 0.234857
0.00377538 -0.110145 0.0846038
0.00299207 0.127815 -0.0981761
0.00102377 0.307269 -0.236017
3.21376e-05 0.368093 0.00807075
8.65777e-05 0.306025 0.00670985
0.000106656 0.114883 0.0025189
8.5568e-05 -0.120765 -0.00264788
3.14677e-05 -0.309823 -0.00679313
-3.47729e-05 -0.379349 -0.00831756
-8.75989e-05 -0.30252 -0.00663301
-0.000106627 -0.108978 -0.00238944
-8.45038e-05 0.12646 0.00277275
-2.8914e-05 0.304013 0.00666574
0.00118979 0.222138 0.298792
0.00320526 0.184681 0.248409
0.00394855 0.06933 0.0932539
0.00316787 -0.0728795 -0.0980286
0.00116498 -0.186972 -0.251492
-0.00128736 -0.228931 -0.307929
-0.00324304 -0.182566 -0.245565
-0.0039475 -0.0657662 -0.0884606
-0.00312847 0.0763166 0.102652
-0.00107044 0.183466 0.246777
0.0018884 -0.00952031 0.474237
0.00508731 -0.00791312 0.39427
0.00626703 -0.0029706 0.148011
0.00502792 0.00312267 -0.155588
0.00184903 0.00801128 -0.399162
-0.00204326 0.00980905 -0.488739
-0.00514724 0.00782241 -0.389756
-0.00626537 0.0028179 -0.140403
-0.00496545 -0.00327001 0.162926
-0.00169899 -0.00786295 0.391679
0.00185846 -0.237505 0.466718
0.00500521 -0.197308 0.387912
0.00616587 -0.0740686 0.145623
0.00494682 0.0778605 -0.153078
0.00181919 0.199752 -0.392722
-0.00201027 0.244578 -0.480852
-0.00506414 0.195044 -0.383465
-0.00616423 0.0702613 -0.138137
-0.00488529 -0.0815364 0.1603
-0.00167205 -0.196158 0.385469
0.00111151 -0.373859 0.279136
0.00290571 -0.30174 0.225289
0.00357886 -0.113208 0.0845248
0.00287126 0.119001 -0.0888502
0.00105591 0.305298 -0.227946
-0.00116682 0.373809 -0.279099
-0.00293939 0.298102 -0.222573
-0.00357791 0.107384 -0.0801769
-0.00283605 -0.124762 0.093152
-0.00100002 -0.308775 0.230542
0 -0.295154 0
0 -0.25061 0
0 -0.0940247 0
0 0.0988362 0
0 0.253565 0
0 0.310467 0
0 0.247588 0
0 0.0891881 0
0 -0.103621 0
0 -0.243772 0
-0.0430932 -0.181282 -0.320004
-0.116093 -0.150893 -0.266045
-0.143014 -0.0566469 -0.0998741
-0.114738 0.0595469 0.104987
-0.042195 0.152768 0.269347
0.046627 0.18705 0.329789
0.11746 0.149167 0.262997
0.142976 0.0537351 0.0947405
0.113311 -0.0623534 -0.109939
0.0387707 -0.149723 -0.264295
-0.0695608 0.00253092 -0.516547
-0.187395 0.00210074 -0.429447
-0.230852 0.000788593 -0.161216
-0.185209 -0.000828963 0.16947
-0.0681105 -0.0021267 0.434777
0.075265 -0.00260397 0.532344
0.189603 -0.00207659 0.424527
0.230791 -0.000748056 0.15293
0.182907 0.00086814 -0.177463
0.0625834 0.00209032 -0.426624
-0.0691912 0.185367 -0.513803
-0.1864 0.15411 -0.427165
-0.229626 0.0578539 -0.16036
-0.184226 -0.0608157 0.16857
-0.0677489 -0.156023 0.432467
0.0748651 -0.191036 0.529516
0.188596 -0.152345 0.422272
0.229565 -0.0548801 0.152117
0.181935 0.0636838 -0.17652
0.062251 0.153097 -0.424357
-0.0421272 0.296687 -0.31283
-0.11349 0.24666 -0.26008
-0.139808 0.092597 -0.0976358
-0.112166 -0.0973381 0.102634
-0.0412491 -0.249721 0.263308
0.0455821 -0.305761 0.322395
0.114827 -0.243835 0.257102
0.139771 -0.0878373 0.0926167
0.110771 0.101928 -0.107474
0.0379016 0.245038 -0.258371
0.00118979 0.293543 0.00883516
0.00320526 0.244046 0.00734537
0.00394855 0.0916162 0.00275748
0.00316787 -0.0963063 -0.00289865
0.00116498 -0.247075 -0.00743652
-0.00128736 -0.30252 -0.00910538
-0.00324304 -0.241251 -0.00726126
-0.0039475 -0.0869065 -0.00261575
-0.00312847 0.100848 0.00303537
-0.00107044 0.242441 0.00729708
0.0440478 0.177148 0.327092
0.118664 0.147278 0.271937
0.146182 0.0552887 0.102087
0.117279 -0.0581193 -0.107313
0.0431295 -0.149105 -0.275312
-0.04766 -0.182566 -0.337095
-0.120062 -0.145591 -0.268824
-0.146143 -0.0524466 -0.0968392
-0.115821 0.0608603 0.112374
-0.0396295 0.146309 0.27015
0.0699118 -0.00759216 0.519154
0.18834 -0.00631048 0.431613
0.232017 -0.00236896 0.162029
0.186142 0.00249024 -0.170325
0.068454 0.00638876 -0.43697
-0.0756447 0.00782241 -0.535029
-0.19056 0.00623813 -0.426668
-0.231955 0.00224719 -0.153701
-0.183829 -0.00260774 0.178358
-0.0628993 -0.00627047 0.428777
0.0688033 -0.189403 0.510923
0.185301 -0.157347 0.424651
0.228271 -0.0590676 0.159415
0.183139 0.0620915 -0.167576
0.0673494 0.159297 -0.429918
-0.0744234 0.195044 -0.526394
-0.187483 0.155541 -0.419783
-0.22821 0.0560312 -0.15122
-0.180862 -0.0650229 0.175482
-0.061902 -0.15643 0.421978
0.04115 -0.298141 0.305574
0.107574 -0.240629 0.246627
0.132495 -0.0902798 0.0925304
0.106299 0.0948997 -0.0972655
0.0390915 0.243466 -0.249536
-0.0431977 0.298102 -0.305533
-0.108821 0.237727 -0.243654
-0.13246 0.0856359 -0.0877708
-0.104995 -0.0994944 0.101975
-0.0370225 -0.246239 0.252378
0 -0.106323 0
0 -0.0902767 0
0 -0.0338703 0
0 0.0356035 0
0 0.0913412 0
0 0.111839 0
0 0.0891881 0
0 0.032128 0
0 -0.0373273 0
0 -0.0878134 0
-0.0683967 -0.0653027 -0.22423
-0.18426 -0.0543569 -0.186421
-0.226988 -0.0204061 -0.0699835
-0.18211 0.0214509 0.0735664
-0.0669709 0.0550324 0.188735
0.0740053 0.0673821 0.231088
0.186429 0.0537351 0.184286
0.226928 0.0193572 0.0663861
0.179845 -0.0224618 -0.0770358
0.0615362 -0.0539343 -0.185195
-0.110406 0.000911708 -0.36195
-0.297429 0.000756756 -0.300919
-0.366404 0.000284078 -0.112967
-0.29396 -0.000298619 0.11875
-0.108104 -0.000766111 0.304654
0.119459 -0.000938031 0.37302
0.300933 -0.000748056 0.297472
0.366306 -0.000269474 0.10716
0.290304 0.000312733 -0.12435
0.0993313 0.000752991 -0.29894
-0.109819 0.0667743 -0.360028
-0.29585 0.0555158 -0.29932
-0.364457 0.0208409 -0.112366
-0.292399 -0.0219078 0.118119
-0.107529 -0.0562047 0.303036
0.118824 -0.0688173 0.371039
0.299334 -0.0548801 0.295893
0.36436 -0.0197697 0.10659
0.288762 0.0229411 -0.12369
0.0988036 0.0551498 -0.297352
-0.0668635 0.106875 -0.219204
-0.180129 0.0888552 -0.182243
-0.2219 0.0333567 -0.0684144
-0.178027 -0.0350644 0.0719171
-0.0654694 -0.089958 0.184504
0.0723466 -0.110145 0.225908
0.182251 -0.0878374 0.180155
0.221841 -0.031642 0.0648979
0.175813 0.0367182 -0.0753087
0.0601568 0.0882694 -0.181043
0.0018884 0.105742 0.00619089
0.00508731 0.0879135 0.005147
0.00626703 0.0330032 0.00193221
0.00502792 -0.0346928 -0.00203113
0.00184903 -0.0890048 -0.00521088
-0.00204326 -0.108978 -0.00638023
-0.00514724 -0.0869065 -0.00508804
-0.00626537 -0.0313067 -0.00183289
-0.00496545 0.036329 0.00212692
-0.00169899 0.087334 0.00511315
0.0699118 0.0638136 0.229197
0.18834 0.0530543 0.190551
0.232017 0.0199169 0.0715335
0.186142 -0.0209365 -0.0751955
0.068454 -0.0537128 -0.192915
-0.0756447 -0.0657663 -0.236207
-0.19056 -0.0524467 -0.188368
-0.231955 -0.018893 -0.0678566
-0.183829 0.0219239 0.0787423
-0.0628993 0.0527045 0.189297
0.110963 -0.00273491 0.363777
0.298929 -0.00227325 0.302437
0.368251 -0.000853383 0.113536
0.295441 0.000897069 -0.119349
0.108649 0.00230145 -0.306191
-0.120061 0.0028179 -0.374901
-0.302451 0.00224719 -0.298972
-0.368153 0.000809515 -0.1077
-0.291768 -0.000939394 0.124978
-0.0998325 -0.0022588 0.300449
0.109203 -0.0682282 0.358009
0.294106 -0.0566818 0.297559
0.362307 -0.0212782 0.111704
0.290673 0.0223674 -0.117423
0.106895 0.0573839 -0.301249
-0.118123 0.0702614 -0.368852
-0.297568 0.0560312 -0.294149
-0.36221 0.0201843 -0.105962
-0.287058 -0.0234234 0.122963
-0.0982497 -0.0563506 0.295685
0.0653126 -0.107399 0.214119
0.17074 -0.0866811 0.172815
0.210294 -0.0325213 0.0648371
0.168715 0.0341855 -0.068155
0.0620452 0.0877032 -0.174852
-0.0685625 0.107384 -0.21409
-0.172718 0.0856359 -0.170731
-0.210238 0.0308484 -0.061502
-0.166647 -0.0358406 0.0714548
-0.0587614 -0.0887021 0.176844
0 0.123529 0
0 0.104886 0
0 0.0393515 0
0 -0.0413652 0
0 -0.106123 0
0 -0.129938 0
0 -0.103621 0
0 -0.0373273 0
0 0.043368 0
0 0.102024 0
-0.0673123 0.0758706 -0.0419472
-0.181285 0.0630757 -0.0349363
-0.223324 0.0236784 -0.0131159
-0.179169 -0.0248906 0.0137875
-0.0658897 -0.0638571 0.0353718
0.072811 -0.0781871 0.0433094
0.183421 -0.0623518 0.034538
0.223264 -0.0224612 0.0124418
0.176942 0.0260656 -0.0144361
0.0605605 0.0626625 -0.0346447
-0.108655 -0.00105925 -0.0677108
-0.29263 -0.000878243 -0.0563938
-0.360488 -0.000329672 -0.0211717
-0.289215 0.000346548 0.0222556
-0.106359 0.000889071 0.057097
0.11753 0.00108859 0.0699099
0.296076 0.000868117 0.055751
0.360392 0.000312725 0.0200834
0.285619 -0.000362949 -0.0233027
0.0977564 -0.000874848 -0.0559233
-0.108078 -0.0775804 -0.0673511
-0.291075 -0.0644224 -0.0560943
-0.358573 -0.0241837 -0.0210592
-0.287678 0.0254217 0.0221374
-0.105793 0.0652195 0.0567937
0.116906 0.0798553 0.0695385
0.294503 0.0636822 0.0554549
0.358478 0.0229405 0.0199768
0.284101 -0.0266225 -0.0231789
0.0972371 -0.0640747 -0.0556262
-0.0658034 -0.124171 -0.0410069
-0.177221 -0.103111 -0.0341531
-0.218318 -0.0387068 -0.0128219
-0.175153 0.0406883 0.0134784
-0.0644127 0.104387 0.0345789
0.0711786 0.127812 0.0423387
0.179309 0.101926 0.0337638
0.21826 0.0367172 0.0121629
0.172975 -0.0426105 -0.0141125
0.059203 -0.102554 -0.0338681
0.00185846 -0.122855 0.00115814
0.00500522 -0.102018 0.000964576
0.00616587 -0.0382967 0.000362125
0.00494682 0.0402571 -0.000380666
0.00181919 0.10328 -0.0009766
-0.00201027 0.126457 -0.00119576
-0.00506414 0.100846 -0.000953583
-0.00616423 0.0363281 -0.000343512
-0.00488529 -0.0421589 0.000398575
-0.00167205 -0.101467 0.000956527
0.0688033 -0.0741406 0.0428763
0.185301 -0.061566 0.0357101
0.228271 -0.0231113 0.0134065
0.183139 0.0242946 -0.0140928
0.0673494 0.0623278 -0.0361554
-0.0744234 0.0763146 -0.0442689
-0.187483 0.0608587 -0.0353031
-0.22821 0.0219233 -0.0127174
-0.180862 -0.0254421 0.0147559
-0.061902 -0.0612337 0.0354122
0.109203 0.0031775 0.0680525
0.294106 0.002638 0.0566783
0.362307 0.000990276 0.0212785
0.290673 -0.00104097 -0.0223678
0.106895 -0.00267062 -0.0573849
-0.118123 -0.00326992 -0.0702625
-0.297568 -0.00260767 -0.0560321
-0.36221 -0.000939369 -0.0201847
-0.287058 0.00109016 0.0234202
-0.0982497 0.00262434 0.0562055
0.107472 0.0792696 0.0669735
0.28936 0.0657785 0.0557627
0.356459 0.0246922 0.0209345
0.285982 -0.0259563 -0.0220063
0.10517 -0.066591 -0.0564574
-0.116217 -0.0815344 -0.0691268
-0.292767 -0.0650213 -0.0551265
-0.356364 -0.0234228 -0.0198585
-0.282427 0.0271835 0.0230421
-0.0966919 0.0654698 0.0553144
0.064277 0.124779 0.0400557
0.168032 0.100709 0.0323288
0.20696 0.0377842 0.0121292
0.16604 -0.0397177 -0.0127499
0.0610615 -0.101896 -0.03271
-0.0674755 -0.124762 -0.0400503
-0.16998 -0.0994944 -0.031939
-0.206905 -0.0358406 -0.0115053
-0.164004 0.0416407 0.0133672
-0.0578297 0.103057 0.0330825
0 0.305722 0
0 0.246747 0
0 0.0925754 0
0 -0.0973127 0
0 -0.249657 0
0 -0.305682 0
0 -0.243772 0
0 -0.0878134 0
0 0.102024 0
0 0.2525 0
-0.0402583 0.187772 0.15652
-0.105243 0.15155 0.126326
-0.129624 0.0568591 0.0473955
-0.103995 -0.0597688 -0.0498209
-0.0382443 -0.153337 -0.127816
0.0422615 -0.187747 -0.156499
0.106462 -0.149723 -0.124803
0.129589 -0.0539343 -0.0449575
0.10272 0.0626625 0.052233
0.0362202 0.155084 0.129272
-0.0649846 -0.00262154 0.252653
-0.169882 -0.00211583 0.203915
-0.209238 -0.000793825 0.0765054
-0.167868 0.000834448 -0.0804205
-0.0617337 0.00214078 -0.20632
0.0682182 0.00262119 -0.252619
0.171851 0.00209032 -0.201456
0.209182 0.000752992 -0.0725701
0.16581 -0.000874848 0.0843141
0.0584663 -0.00216517 0.208669
-0.0646394 -0.192004 0.25131
-0.16898 -0.154966 0.202832
-0.208126 -0.0581405 0.076099
-0.166976 0.0611157 -0.0799933
-0.0614057 0.156793 -0.205224
0.0678558 0.191978 -0.251277
0.170938 0.153097 -0.200386
0.208071 0.0551498 -0.0721846
0.164929 -0.0640747 0.0838662
0.0581557 -0.158579 0.207561
-0.0393558 -0.30731 0.153011
-0.102884 -0.248029 0.123495
-0.126718 -0.0930561 0.046333
-0.101664 0.0978181 -0.0487041
-0.037387 0.250953 -0.124951
0.0413142 0.307269 -0.152991
0.104076 0.245038 -0.122005
0.126685 0.0882694 -0.0439497
0.100417 -0.102554 0.0510621
0.0354082 -0.253811 0.126374
0.00111151 -0.304053 -0.00432144
0.00290571 -0.2454 -0.00348781
0.00357886 -0.09207 -0.00130857
0.00287126 0.0967815 0.00137553
0.00105591 0.248294 0.00352894
-0.00116682 0.304013 0.00432086
-0.00293938 0.242441 0.00344576
-0.00357791 0.087334 0.00124126
-0.00283605 -0.101467 -0.00144213
-0.00100002 -0.251122 -0.00356913
0.04115 -0.183491 -0.159987
0.107574 -0.148095 -0.129125
0.132495 -0.0555626 -0.0484453
0.106299 0.0584059 0.0509244
0.0390914 0.149841 0.130647
-0.0431976 0.183466 0.159965
-0.108821 0.146309 0.127568
-0.13246 0.0527046 0.0459534
-0.104995 -0.0612337 -0.05339
-0.0370225 -0.151548 -0.132135
0.0653126 0.007864 -0.253928
0.170739 0.006347 -0.204944
0.210294 0.00238129 -0.0768915
0.168715 -0.00250315 0.0808263
0.0620452 -0.00642185 0.207361
-0.0685625 -0.00786295 0.253894
-0.172718 -0.00627047 0.202473
-0.210238 -0.0022588 0.0729363
-0.166646 0.00262434 -0.0847396
-0.0587614 0.00649498 -0.209722
0.064277 0.196185 -0.249902
0.168032 0.15834 -0.201695
0.20696 0.0594064 -0.0756724
0.16604 -0.0624464 0.0795448
0.0610614 -0.160207 0.204073
-0.0674754 -0.196158 0.249868
-0.16998 -0.156431 0.199263
-0.206905 -0.0563506 0.0717799
-0.164004 0.0654698 -0.083396
-0.0578297 0.162032 -0.206397
0.0384429 0.308816 -0.149462
0.100497 0.249244 -0.12063
0.123779 0.0935122 -0.0452583
0.0993058 -0.0982975 0.0475743
0.0365198 -0.252183 0.122052
-0.0403559 -0.308775 0.149442
-0.101662 -0.246239 0.119175
-0.123746 -0.0887021 0.0429303
-0.098088 0.103057 -0.0498777
-0.0345869 0.255055 -0.123442
