# vtk DataFile Version 3.0
Velocity field
ASCII
DATASET STRUCTURED_POINTS
DIMENSIONS 8 8 8
SPACING 0.8 0.8 0.8
ORIGIN 0 0 0
POINT_DATA 512
VECTORS velocity float
0 0.000541123 0
0 0.000377004 0
0 -1.58006e-05 0
0 -0.000399021 0
0 -0.000540201 0
0 -0.000353702 0
0 4.73478e-05 0
0 0.000419677 0
0 0.000212885 0.000552297
0 0.000148318 0.000407967
0 -6.21615e-06 -1.70983e-05
0 -0.00015698 -0.000431792
0 -0.000212522 -0.000584567
0 -0.000139151 -0.000382751
0 1.86273e-05 5.12365e-05
0 0.000165106 0.000428343
0 -0.000244486 0.000769578
0 -0.000170335 0.000568467
0 7.13889e-06 -2.38249e-05
0 0.000180283 -0.000601666
0 0.000244069 -0.000814544
0 0.000159807 -0.000533331
0 -2.13923e-05 7.13936e-05
0 -0.000189615 0.000596859
0 -0.000553556 0.000520043
0 -0.000385666 0.000384143
0 1.61636e-05 -1.60997e-05
0 0.000408188 -0.000406576
0 0.000552612 -0.000550429
0 0.000361828 -0.000360399
0 -4.84357e-05 4.82443e-05
0 -0.000429319 0.000403328
0 -0.000526845 -4.49427e-05
0 -0.000367057 -3.3198e-05
0 1.53836e-05 1.39136e-06
0 0.000388493 3.51367e-05
0 0.000525947 4.75686e-05
0 0.000344369 3.1146e-05
0 -4.60985e-05 -4.16932e-06
0 -0.000408603 -3.4856e-05
0 -0.000180558 -0.000582667
0 -0.000125796 -0.000430401
0 5.27221e-06 1.80385e-05
0 0.000133142 0.000455536
0 0.00018025 0.000616712
0 0.000118021 0.000403798
0 -1.57987e-05 -5.40539e-05
0 -0.000140035 -0.000451897
0 0.000275254 -0.000766954
0 0.000191771 -0.000566529
0 -8.03728e-06 2.37437e-05
0 -0.00020297 0.000599614
0 -0.000274784 0.000811766
0 -0.000179918 0.000531512
0 2.40845e-05 -7.11502e-05
0 0.000213477 -0.000594823
0 0.0005641 -0.000486016
0 0.000393012 -0.000338611
0 -1.64715e-05 1.41915e-05
0 -0.000415964 0.000358385
0 -0.000563138 0.000485188
0 -0.00036872 0.000317681
0 4.93583e-05 -4.2526e-05
0 0.000437497 -0.000376938
0 0.000377004 0
0 0.000285173 0
0 -1.19518e-05 0
0 -0.000301826 0
0 -0.000408617 0
0 -0.000267546 0
0 3.58147e-05 0
0 0.000292392 0
0.000117732 0.000148318 0.000545519
0.000281795 0.00010334 0.000380086
0.000274919 -4.33106e-06 -1.59297e-05
0.000101281 -0.000109375 -0.000402283
-0.000133793 -0.000148074 -0.000544616
-0.000287709 -9.69526e-05 -0.000356593
-0.000267105 1.29784e-05 4.77349e-05
-8.44749e-05 0.000115031 0.000423086
0.000164049 -0.000170335 0.000760134
0.000392656 -0.000118679 0.000529617
0.000383076 4.97395e-06 -2.21967e-05
0.000141126 0.00012561 -0.000560546
-0.000186428 0.000170053 -0.000758875
-0.000400898 0.000111344 -0.000496881
-0.000372188 -1.49049e-05 6.65144e-05
-0.000117709 -0.000132106 0.000589534
0.000110856 -0.000385666 0.000513661
0.000265338 -0.000268709 0.000357889
0.000258864 1.12618e-05 -1.49994e-05
9.53662e-05 0.000284402 -0.00037879
-0.000125979 0.000385027 -0.000512811
-0.000270907 0.0002521 -0.000335768
-0.000251507 -3.37471e-05 4.49472e-05
-7.95417e-05 -0.000299109 0.000398378
-9.58032e-06 -0.000367057 -4.43911e-05
-2.29308e-05 -0.000255743 -3.09291e-05
-2.23713e-05 1.07184e-05 1.29627e-06
-8.24164e-06 0.000270679 3.27354e-05
1.08872e-05 0.000366449 4.43176e-05
2.34121e-05 0.000239936 2.90174e-05
2.17355e-05 -3.21187e-05 -3.88438e-06
6.87407e-06 -0.000284677 -3.44282e-05
-0.000124206 -0.000125796 -0.000575516
-0.00029729 -8.76471e-05 -0.000400986
-0.000290036 3.67336e-06 1.68057e-05
-0.00010685 9.27656e-05 0.000424404
0.00014115 0.000125588 0.000574564
0.00030353 8.22297e-05 0.000376201
0.000281793 -1.10076e-05 -5.03597e-05
8.91201e-05 -9.7563e-05 -0.000446351
-0.00016349 0.000191771 -0.000757541
-0.000391317 0.000133615 -0.00052781
-0.000381769 -5.5999e-06 2.2121e-05
-0.000140645 -0.000141418 0.000558634
0.000185793 -0.000191453 0.000756287
0.000399531 -0.000125356 0.000495187
0.000370919 1.67806e-05 -6.62876e-05
0.000117307 0.000148731 -0.000587523
-0.000103603 0.000393012 -0.000480052
-0.000247965 0.000273814 -0.000334455
-0.000241914 -1.14758e-05 1.40173e-05
-8.9122e-05 -0.000289805 0.000353987
0.00011773 -0.000392342 0.000479233
0.000253169 -0.00025689 0.000313783
0.000235039 3.43882e-05 -4.20041e-05
7.43372e-05 0.000304807 -0.000372312
0 -1.58006e-05 0
0 -1.19518e-05 0
0 5.0091e-07 0
0 1.26498e-05 0
0 1.71255e-05 0
0 1.12131e-05 0
0 -1.50102e-06 0
0 -1.22544e-05 0
0.000164049 -6.21615e-06 0.000207837
0.000392656 -4.33106e-06 0.000144808
0.000383076 1.81518e-07 -6.06903e-06
0.000141126 4.584e-06 -0.000153265
-0.000186428 6.20588e-06 -0.000207492
-0.000400898 4.06336e-06 -0.000135858
-0.000372188 -5.43937e-07 1.81864e-05
-0.000117709 -4.82103e-06 0.000161191
0.000228588 7.13889e-06 0.000289602
0.000547133 4.97395e-06 0.000201778
0.000533783 -2.08462e-07 -8.45667e-06
0.000196647 -5.26443e-06 -0.000213561
-0.000259772 -7.12706e-06 -0.000289123
-0.000558617 -4.66652e-06 -0.000189306
-0.000518612 6.24677e-07 2.53412e-05
-0.000164017 5.53668e-06 0.000224606
0.000154469 1.61636e-05 0.000195699
0.000369726 1.12618e-05 0.000136352
0.000360704 -4.71992e-07 -5.7146e-06
0.000132885 -1.19195e-05 -0.000144314
-0.000175541 -1.61368e-05 -0.000195375
-0.000377486 -1.05657e-05 -0.000127924
-0.000350453 1.41437e-06 1.71244e-05
-0.000110834 1.25359e-05 0.000151778
-1.33493e-05 1.53836e-05 -1.69125e-05
-3.19521e-05 1.07184e-05 -1.17836e-05
-3.11724e-05 -4.49217e-07 4.93862e-07
-1.1484e-05 -1.13444e-05 1.24718e-05
1.51704e-05 -1.53582e-05 1.68845e-05
3.26227e-05 -1.00559e-05 1.10553e-05
3.02865e-05 1.34612e-06 -1.4799e-06
9.57842e-06 1.1931e-05 -1.31168e-05
-0.00017307 5.27221e-06 -0.000219265
-0.000414248 3.67336e-06 -0.000152771
-0.00040414 -1.53954e-07 6.40276e-06
-0.000148887 -3.88789e-06 0.000161693
0.00019668 -5.26348e-06 0.000218902
0.000422943 -3.44631e-06 0.000143328
0.000392654 4.61337e-07 -1.91865e-05
0.000124181 4.08895e-06 -0.000170055
-0.000227809 -8.03728e-06 -0.000288615
-0.000545267 -5.5999e-06 -0.00020109
-0.000531962 2.34696e-07 8.42783e-06
-0.000195977 5.92693e-06 0.000212833
0.000258886 8.02397e-06 0.000288137
0.000556712 5.25377e-06 0.00018866
0.000516844 -7.0329e-07 -2.52548e-05
0.000163457 -6.23344e-06 -0.00022384
-0.000144362 -1.64715e-05 -0.000182894
-0.000345517 -1.14758e-05 -0.000127424
-0.000337087 4.80959e-07 5.34043e-06
-0.000124184 1.2146e-05 0.000134865
0.000164047 1.64434e-05 0.000182582
0.000352769 1.07665e-05 0.000119548
0.000327506 -1.44124e-06 -1.60031e-05
0.000103582 -1.27747e-05 -0.000141847
0 -0.000399021 0
0 -0.000301826 0
0 1.26498e-05 0
0 0.000319453 0
0 0.00043248 0
0 0.000283171 0
0 -3.79063e-05 0
0 -0.000309467 0
0.000110856 -0.00015698 -0.000255917
0.000265338 -0.000109375 -0.000178308
0.000258864 4.584e-06 7.47302e-06
9.53662e-05 0.000115762 0.000188721
-0.000125979 0.000156721 0.000255493
-0.000270907 0.000102615 0.000167287
-0.000251507 -1.37364e-05 -2.23936e-05
-7.95417e-05 -0.000121748 -0.00019848
0.000154469 0.000180283 -0.000356598
0.000369726 0.00012561 -0.000248456
0.000360704 -5.26443e-06 1.0413e-05
0.000132885 -0.000132946 0.000262966
-0.000175541 -0.000179984 0.000356007
-0.000377486 -0.000117846 0.000233099
-0.000350453 1.57753e-05 -3.12036e-05
-0.000110834 0.000139821 -0.000276565
0.000104382 0.000408188 -0.000240972
0.000249843 0.000284402 -0.000167895
0.000243746 -1.19195e-05 7.0366e-06
8.97969e-05 -0.00030101 0.0001777
-0.000118622 -0.000407512 0.000240572
-0.000255087 -0.000266823 0.000157517
-0.000236819 3.57179e-05 -2.10858e-05
-7.48965e-05 0.000316577 -0.000186889
-9.02083e-06 0.000388493 2.0825e-05
-2.15916e-05 0.000270679 1.45096e-05
-2.10648e-05 -1.13444e-05 -6.0811e-07
-7.76034e-06 -0.000286486 -1.5357e-05
1.02514e-05 -0.000387849 -2.07905e-05
2.20448e-05 -0.000253948 -1.36128e-05
2.04661e-05 3.39944e-05 1.82226e-06
6.47263e-06 0.000301302 1.61512e-05
-0.000116952 0.000133142 0.000269989
-0.000279929 9.27656e-05 0.000188113
-0.000273098 -3.88789e-06 -7.88395e-06
-0.00010061 -9.81831e-05 -0.000199098
0.000132907 -0.000132922 -0.000269542
0.000285804 -8.70319e-05 -0.000176485
0.000265337 1.16504e-05 2.3625e-05
8.39156e-05 0.000103261 0.000209395
-0.000153942 -0.00020297 0.000355382
-0.000368465 -0.000141418 0.000247609
-0.000359474 5.92693e-06 -1.03775e-05
-0.000132431 0.000149676 -0.000262069
0.000174942 0.000202634 -0.000354793
0.000376198 0.000132677 -0.000232304
0.000349258 -1.77606e-05 3.10971e-05
0.000110456 -0.000157417 0.000275622
-9.75526e-05 -0.000415964 0.000225205
-0.000233484 -0.000289805 0.000156901
-0.000227787 1.2146e-05 -6.57587e-06
-8.39173e-05 0.000306729 -0.000166064
0.000110855 0.000415254 -0.00022482
0.000238384 0.000271892 -0.000147203
0.000221313 -3.63965e-05 1.97052e-05
6.99959e-05 -0.000322607 0.000174661
0 -0.000540201 0
0 -0.000408617 0
0 1.71255e-05 0
0 0.00043248 0
0 0.000585498 0
0 0.000383361 0
0 -5.13181e-05 0
0 -0.000418961 0
-9.58032e-06 -0.000212522 -0.000564435
-2.29308e-05 -0.000148074 -0.000393264
-2.23713e-05 6.20588e-06 1.6482e-05
-8.24164e-06 0.000156721 0.000416231
1.08872e-05 0.000212171 0.0005635
2.34121e-05 0.000138921 0.000368957
2.17355e-05 -1.85965e-05 -4.939e-05
6.87407e-06 -0.000164825 -0.000437756
-1.33493e-05 0.000244069 -0.000786491
-3.19521e-05 0.000170053 -0.00054798
-3.11724e-05 -7.12706e-06 2.29663e-05
-1.1484e-05 -0.000179984 0.000579982
1.51704e-05 -0.000243665 0.000785188
3.26227e-05 -0.000159542 0.00051411
3.02865e-05 2.13569e-05 -6.88206e-05
9.57842e-06 0.000189292 -0.000609975
-9.02083e-06 0.000552612 -0.000531472
-2.15916e-05 0.000385027 -0.000370298
-2.10648e-05 -1.61368e-05 1.55195e-05
-7.76034e-06 -0.000407512 0.000391923
1.02514e-05 -0.000551696 0.000530592
2.20448e-05 -0.000361229 0.00034741
2.04661e-05 4.83554e-05 -4.65056e-05
6.47263e-06 0.000428587 -0.000412192
7.79589e-07 0.000525947 4.59303e-05
1.86597e-06 0.000366449 3.20015e-05
1.82044e-06 -1.53582e-05 -1.34121e-06
6.70656e-07 -0.000387849 -3.38704e-05
-8.8594e-07 -0.000525076 -4.58543e-05
-1.90514e-06 -0.000343799 -3.00235e-05
-1.7687e-06 4.60222e-05 4.01906e-06
-5.59371e-07 0.000407907 3.5622e-05
1.01071e-05 0.00018025 0.000595472
2.41917e-05 0.000125588 0.00041489
2.36014e-05 -5.26348e-06 -1.73884e-05
8.69484e-06 -0.000132922 -0.000439119
-1.14859e-05 -0.000179951 -0.000594486
-2.46995e-05 -0.000117825 -0.000389246
-2.29307e-05 1.57725e-05 5.21058e-05
-7.25207e-06 0.000139796 0.000461828
1.33038e-05 -0.000274784 0.000783808
3.18431e-05 -0.000191453 0.000546111
3.10661e-05 8.02397e-06 -2.2888e-05
1.14448e-05 0.000202634 -0.000578004
-1.51187e-05 0.000274329 -0.00078251
-3.25114e-05 0.00017962 -0.000512356
-3.01832e-05 -2.40446e-05 6.85859e-05
-9.54575e-06 -0.000213113 0.000607895
8.43059e-06 -0.000563138 0.000496697
2.01779e-05 -0.000392342 0.000346052
1.96855e-05 1.64434e-05 -1.45033e-05
7.25222e-06 0.000415254 -0.000366261
-9.58021e-06 0.000562178 -0.00049585
-2.06014e-05 0.000368092 -0.000324663
-1.91261e-05 -4.92741e-05 4.34606e-05
-6.04912e-06 -0.000436751 0.000385221
0 -0.000353702 0
0 -0.000267546 0
0 1.12131e-05 0
0 0.000283171 0
0 0.000383361 0
0 0.000251009 0
0 -3.3601e-05 0
0 -0.000274319 0
-0.000124206 -0.000139151 -0.000530574
-0.00029729 -9.69526e-05 -0.000369672
-0.000290036 4.06336e-06 1.54933e-05
-0.00010685 0.000102615 0.000391261
0.00014115 0.000138921 0.000529695
0.00030353 9.09601e-05 0.000346823
0.000281793 -1.21763e-05 -4.6427e-05
8.91201e-05 -0.000107921 -0.000411495
-0.00017307 0.000159807 -0.000739309
-0.000414248 0.000111344 -0.000515106
-0.00040414 -4.66652e-06 2.15885e-05
-0.000148887 -0.000117846 0.000545188
0.00019668 -0.000159542 0.000738084
0.000422943 -0.000104462 0.000483268
0.000392654 1.39837e-05 -6.46921e-05
0.000124181 0.000123941 -0.000573383
-0.000116952 0.000361828 -0.000499589
-0.000279929 0.0002521 -0.000348084
-0.000273098 -1.05657e-05 1.45885e-05
-0.00010061 -0.000266823 0.000368412
0.000132907 -0.000361229 0.000498761
0.000285804 -0.000236518 0.000326569
0.000265337 3.16612e-05 -4.37157e-05
8.39156e-05 0.000280622 -0.000387464
1.01071e-05 0.000344369 4.3175e-05
2.41917e-05 0.000239936 3.00818e-05
2.36014e-05 -1.00559e-05 -1.26075e-06
8.69484e-06 -0.000253948 -3.18385e-05
-1.14859e-05 -0.000343799 -4.31034e-05
-2.46995e-05 -0.000225106 -2.82224e-05
-2.29307e-05 3.01335e-05 3.77796e-06
-7.25207e-06 0.000267081 3.3485e-05
0.000131036 0.000118021 0.000559749
0.000313638 8.22297e-05 0.00039
0.000305985 -3.44631e-06 -1.63452e-05
0.000112726 -8.70319e-05 -0.000412776
-0.000148911 -0.000117825 -0.000558822
-0.000320221 -7.71472e-05 -0.000365895
-0.000297289 1.03272e-05 4.898e-05
-9.40207e-05 9.15327e-05 0.000434123
0.00017248 -0.000179918 0.000736787
0.000412835 -0.000125356 0.00051335
0.000402762 5.25377e-06 -2.15149e-05
0.000148379 0.000132677 -0.000543329
-0.000196009 0.00017962 -0.000735567
-0.0004215 0.000117608 -0.00048162
-0.000391315 -1.57434e-05 6.44714e-05
-0.000123758 -0.000139538 0.000571427
0.0001093 -0.00036872 0.0004669
0.0002616 -0.00025689 0.000325292
0.000255217 1.07665e-05 -1.36333e-05
9.40227e-05 0.000271892 -0.000344289
-0.000124204 0.000368092 -0.000466104
-0.000267091 0.000241012 -0.000305186
-0.000247963 -3.22627e-05 4.08534e-05
-7.84249e-05 -0.000285967 0.000362112
0 4.73478e-05 0
0 3.58147e-05 0
0 -1.50102e-06 0
0 -3.79063e-05 0
0 -5.13181e-05 0
0 -3.3601e-05 0
0 4.49796e-06 0
0 3.67214e-05 0
-0.00016349 1.86273e-05 -0.000174874
-0.000391317 1.29784e-05 -0.000121842
-0.000381769 -5.43937e-07 5.10649e-06
-0.000140645 -1.37364e-05 0.000128957
0.000185793 -1.85965e-05 0.000174584
0.000399531 -1.21763e-05 0.000114311
0.000370919 1.62996e-06 -1.53021e-05
0.000117307 1.44467e-05 -0.000135626
-0.000227809 -2.13923e-05 -0.000243672
-0.000545267 -1.49049e-05 -0.000169776
-0.000531962 6.24677e-07 7.11545e-06
-0.000195977 1.57753e-05 0.000179691
0.000258886 2.13569e-05 0.000243268
0.000556712 1.39837e-05 0.000159282
0.000516844 -1.8719e-06 -2.13221e-05
0.000163457 -1.65912e-05 -0.000188984
-0.000153942 -4.84357e-05 -0.000164662
-0.000368465 -3.37471e-05 -0.000114726
-0.000359474 1.41437e-06 4.80828e-06
-0.000132431 3.57179e-05 0.000121426
0.000174942 4.83554e-05 0.000164389
0.000376198 3.16612e-05 0.000107635
0.000349258 -4.23829e-06 -1.44085e-05
0.000110456 -3.7565e-05 -0.000127706
1.33038e-05 -4.60985e-05 1.42302e-05
3.18431e-05 -3.21187e-05 9.91477e-06
3.10661e-05 1.34612e-06 -4.15536e-07
1.14448e-05 3.39944e-05 -1.04938e-05
-1.51187e-05 4.60222e-05 -1.42066e-05
-3.25114e-05 3.01335e-05 -9.30194e-06
-3.01832e-05 -4.03378e-06 1.24519e-06
-9.54575e-06 -3.57525e-05 1.10365e-05
0.00017248 -1.57987e-05 0.00018449
0.000412835 -1.10076e-05 0.000128542
0.000402762 4.61337e-07 -5.38729e-06
0.000148379 1.16504e-05 -0.000136049
-0.000196009 1.57725e-05 -0.000184185
-0.0004215 1.03272e-05 -0.000120597
-0.000391315 -1.38244e-06 1.61435e-05
-0.000123758 -1.22529e-05 0.000143084
0.000227032 2.40845e-05 0.000242841
0.000543407 1.67806e-05 0.000169197
0.000530148 -7.0329e-07 -7.09119e-06
0.000195308 -1.77606e-05 -0.000179078
-0.000258003 -2.40446e-05 -0.000242439
-0.000554813 -1.57434e-05 -0.000158739
-0.000515081 2.10747e-06 2.12494e-05
-0.0001629 1.86791e-05 0.000188339
0.000143869 4.93583e-05 0.000153888
0.000344339 3.43882e-05 0.000107214
0.000335937 -1.44124e-06 -4.49345e-06
0.00012376 -3.63965e-05 -0.000113476
-0.000163488 -4.92741e-05 -0.000153625
-0.000351566 -3.22627e-05 -0.000100588
-0.000326389 4.31881e-06 1.3465e-05
-0.000103229 3.82806e-05 0.00011935
0 0.000419677 0
0 0.000292392 0
0 -1.22544e-05 0
0 -0.000309467 0
0 -0.000418961 0
0 -0.000274319 0
0 3.67214e-05 0
0 0.000325487 0
-0.000103603 0.000165106 0.000286902
-0.000247965 0.000115031 0.000199886
-0.000241914 -4.82103e-06 -8.3774e-06
-8.9122e-05 -0.000121748 -0.00021156
0.00011773 -0.000164825 -0.000286413
0.000253169 -0.000107921 -0.000187532
0.000235039 1.44467e-05 2.51037e-05
7.43372e-05 0.000128051 0.000222511
-0.000144362 -0.000189615 0.000399773
-0.000345517 -0.000132106 0.000278524
-0.000337087 5.53668e-06 -1.16732e-05
-0.000124184 0.000139821 -0.00029479
0.000164047 0.000189292 -0.000399091
0.000352769 0.000123941 -0.000261309
0.000327506 -1.65912e-05 3.49798e-05
0.000103582 -0.000147059 0.00031005
-9.75526e-05 -0.000429319 0.000270147
-0.000233484 -0.000299109 0.000188213
-0.000227787 1.25359e-05 -7.88817e-06
-8.39173e-05 0.000316577 -0.000199205
0.000110855 0.000428587 -0.000269686
0.000238384 0.000280622 -0.00017658
0.000221313 -3.7565e-05 2.36376e-05
6.99959e-05 -0.000332965 0.000209517
8.43059e-06 -0.000408603 -2.33464e-05
2.01779e-05 -0.000284677 -1.62656e-05
1.96855e-05 1.1931e-05 6.81703e-07
7.25222e-06 0.000301302 1.72155e-05
-9.58021e-06 0.000407907 2.33066e-05
-2.06014e-05 0.000267081 1.52602e-05
-1.91261e-05 -3.57525e-05 -2.04279e-06
-6.04912e-06 -0.000316899 -1.81066e-05
0.0001093 -0.000140035 -0.000302678
0.0002616 -9.7563e-05 -0.000210878
0.000255217 4.08895e-06 8.83806e-06
9.40227e-05 0.000103261 0.000223193
-0.000124204 0.000139796 0.000302162
-0.000267091 9.15327e-05 0.000197844
-0.000247963 -1.22529e-05 -2.64841e-05
-7.84249e-05 -0.000108606 -0.000234747
0.000143869 0.000213477 -0.000398409
0.000344339 0.000148731 -0.000277575
0.000335937 -6.23344e-06 1.16334e-05
0.00012376 -0.000157417 0.000293785
-0.000163488 -0.000213113 0.00039773
-0.000351566 -0.000139538 0.000260418
-0.000326389 1.86791e-05 -3.48605e-05
-0.000103229 0.000165566 -0.000308993
9.11696e-05 0.000437497 -0.000252471
0.000218207 0.000304807 -0.000175898
0.000212882 -1.27747e-05 7.37204e-06
7.84265e-05 -0.000322607 0.00018617
-0.000103602 -0.000436751 0.00025204
-0.000222787 -0.000285967 0.000165026
-0.000206832 3.82806e-05 -2.2091e-05
-6.5416e-05 0.000339307 -0.000195808
