# vtk DataFile Version 3.0
Velocity field
ASCII
DATASET STRUCTURED_POINTS
DIMENSIONS 5 5 5
SPACING 1.33333 1.33333 1.33333
ORIGIN 0 0 0
POINT_DATA 125
VECTORS velocity float
0 0.0361381 0
0 0.00850103 0
0 -0.0321385 0
0 -0.0236214 0
0 0.0210252 0
0 -0.019136 0.062761
0 -0.0045015 0.0170148
0 0.0170182 -0.0643253
0 0.0125081 -0.0472783
0 -0.0111334 0.0365146
0 -0.0451411 0.0295275
0 -0.0106189 0.00800505
0 0.0401451 -0.0302635
0 0.0295062 -0.0222433
0 -0.0262632 0.0171792
0 -0.00210176 -0.048869
0 -0.000494413 -0.0132486
0 0.00186915 0.0500871
0 0.0013738 0.0368134
0 -0.00122281 -0.0284322
0 0.0441522 -0.0525191
0 0.0103863 -0.0123545
0 -0.0392658 0.0467067
0 -0.0288598 0.0343288
0 0.0256879 -0.0305558
0 0.00850103 0
0 0.00254459 0
0 -0.00961993 0
0 -0.00707052 0
0 0.00494592 0
0.0268615 -0.0045015 0.0220406
0.039657 -0.00106279 0.00520691
-0.00831122 0.00401795 -0.0196851
-0.0435672 0.00295314 -0.0144683
-0.0121376 -0.00261899 0.0128233
0.0126377 -0.0106189 0.0103695
0.0186576 -0.00250791 0.00244972
-0.00391022 0.00948133 -0.00926136
-0.0204973 0.00696867 -0.00680699
-0.00571043 -0.00617809 0.00603303
-0.0209158 -0.000494413 -0.0171619
-0.0308789 -0.000116772 -0.00405437
0.00647155 0.000441466 0.0153279
0.0339237 0.000324472 0.0112658
0.00945096 -0.000287651 -0.00998488
-0.022478 0.0103863 -0.0184438
-0.0330533 0.00244324 -0.00433867
0.00692723 -0.00923678 0.0164026
0.0363124 -0.00678892 0.0120557
0.0101569 0.00604277 -0.0107307
0 -0.0321385 0
0 -0.00961993 0
0 0.0363686 0
0 0.0267305 0
0 -0.0186983 0
0.0126377 0.0170182 -0.0523914
0.0186576 0.00401795 -0.0123736
-0.00391022 -0.0151901 0.0467793
-0.0204973 -0.0111646 0.0343823
-0.00571043 0.00990121 -0.0304815
0.0059457 0.0401451 -0.0246489
0.00877794 0.00948133 -0.00582147
-0.00183966 -0.0358449 0.0220086
-0.00964347 -0.0263456 0.016176
-0.00268661 0.0233566 -0.0143408
-0.00984035 0.00186915 0.0407948
-0.0145278 0.000441466 0.00963474
0.0030447 -0.001669 -0.0364249
0.0159603 -0.00122669 -0.0267718
0.00444644 0.00108748 0.0237345
-0.0105753 -0.0392658 0.0438418
-0.0155508 -0.00923678 0.0103132
0.00325909 0.0349201 -0.0389897
0.0170841 0.0256658 -0.0286569
0.00477855 -0.022845 0.0255073
0 -0.0236214 0
0 -0.00707053 0
0 0.0267305 0
0 0.0196465 0
0 -0.013743 0
-0.0209158 0.0125081 -0.0466894
-0.0308789 0.00295314 -0.011027
0.00647155 -0.0111646 0.0416883
0.0339237 -0.00820583 0.0306404
0.00945096 0.00727726 -0.0271641
-0.00984035 0.0295062 -0.0219662
-0.0145278 0.00696867 -0.00518791
0.0030447 -0.0263456 0.0196133
0.0159603 -0.0193637 0.0144155
0.00444644 0.0171668 -0.01278
0.0162861 0.0013738 0.0363549
0.024044 0.000324472 0.00858615
-0.00503909 -0.00122669 -0.0324606
-0.0264148 -0.000901604 -0.0238582
-0.00735902 0.000799282 0.0211514
0.0175026 -0.0288598 0.0390703
0.0257371 -0.00678892 0.0091908
-0.00539391 0.0256658 -0.0347462
-0.0282748 0.018864 -0.025538
-0.00790868 -0.0167908 0.0227312
0 0.0210252 0
0 0.00494592 0
0 -0.0186983 0
0 -0.013743 0
0 0.0122326 0
-0.022478 -0.0111334 0.0304252
-0.0330533 -0.00261899 0.00715715
0.00692722 0.00990122 -0.027058
0.0363124 0.00727727 -0.0198872
0.0101569 -0.00647744 0.0177015
-0.0105753 -0.0262632 0.0143143
-0.0155508 -0.00617809 0.00336726
0.00325909 0.0233566 -0.0127301
0.0170841 0.0171668 -0.00935646
0.00477855 -0.01528 0.00832812
0.0175026 -0.00122281 -0.0236907
0.0257371 -0.000287651 -0.00557294
-0.00539391 0.00108748 0.0210688
-0.0282748 0.000799282 0.0154853
-0.00790868 -0.000711435 -0.0137833
0.0188099 0.0256879 -0.0254602
0.0276594 0.00604277 -0.00598919
-0.00579679 -0.022845 0.0226424
-0.0303867 -0.0167908 0.0166419
-0.00849939 0.0149453 -0.0148128
