# vtk DataFile Version 3.0
Velocity field
ASCII
DATASET STRUCTURED_POINTS
DIMENSIONS 10 10 10
SPACING 0.631579 0.631579 0.631579
ORIGIN 0 0 0
POINT_DATA 1000
VECTORS velocity float
0 0.0199601 0
0 0.0161097 0
0 0.0060441 0
0 -0.0063534 0
0 -0.0162997 0
0 -0.0199575 0
0 -0.0159155 0
0 -0.0057332 0
0 0.006661 0
0 0.0164853 0
0 0.0122594 0.0156352
0 0.00989448 0.0131139
0 0.00371224 0.00492013
0 -0.00390221 -0.0051719
0 -0.0100112 -0.0132686
0 -0.0122577 -0.0162461
0 -0.00977517 -0.0129558
0 -0.00352129 -0.00466704
0 0.00409114 0.00542231
0 0.0101252 0.0129134
0 -0.000171156 0.0252383
0 -0.000138139 0.0211684
0 -5.18276e-05 0.00794203
0 5.44798e-05 -0.00834845
0 0.000139768 -0.021418
0 0.000171133 -0.0262244
0 0.000136474 -0.0209132
0 4.91616e-05 -0.0075335
0 -5.71175e-05 0.00875265
0 -0.00014136 0.0208446
0 -0.0125356 0.0251042
0 -0.0101175 0.021056
0 -0.0037959 0.00789984
0 0.00399015 -0.0083041
0 0.0102368 -0.0213043
0 0.012534 -0.0260851
0 0.00999547 -0.0208021
0 0.00360064 -0.00749348
0 -0.00418334 0.00870615
0 -0.0103534 0.0207339
0 -0.0200638 0.0152847
0 -0.0161934 0.01282
0 -0.00607549 0.00480983
0 0.00638639 -0.00505597
0 0.0163843 -0.0129711
0 0.0200611 -0.0158819
0 0.0159981 -0.0126654
0 0.00576297 -0.00456242
0 -0.00669559 0.00530076
0 -0.0165709 0.0126239
0 -0.0198512 -0.000431682
0 -0.0160218 -0.000362071
0 -0.00601111 -0.000135843
0 0.00631871 0.000142794
0 0.0162107 0.00036634
0 0.0198485 0.000448549
0 0.0158286 0.000357704
0 0.0057019 0.000128855
0 -0.00662464 -0.000149708
0 -0.0163953 -0.000356532
0 -0.0119798 -0.0159816
0 -0.00966887 -0.0134044
0 -0.0036276 -0.00502911
0 0.00381323 0.00528646
0 0.00978289 0.0135625
0 0.0119782 0.016606
0 0.00955229 0.0132428
0 0.003441 0.00477042
0 -0.00399785 -0.00554241
0 -0.0098943 -0.0131994
0 0.000513428 -0.0253656
0 0.000414386 -0.0212752
0 0.00015547 -0.00798211
0 -0.000163426 0.00839058
0 -0.000419272 0.0215261
0 -0.00051336 0.0263567
0 -0.000409389 0.0210187
0 -0.000147473 0.00757152
0 0.000171339 -0.00879682
0 0.000424047 -0.0209498
0 0.0128086 -0.0249635
0 0.0103378 -0.0209379
0 0.00387855 -0.00785555
0 -0.00407703 0.00825754
0 -0.0104597 0.0211848
0 -0.0128069 0.0259388
0 -0.0102131 0.0206854
0 -0.00367904 0.00745147
0 0.00427442 -0.00865734
0 0.0105788 -0.0206177
0 0.0201621 -0.0149302
0 0.0162728 -0.0120501
0 0.00610526 -0.004521
0 -0.00641769 0.00475235
0 -0.0164646 0.0121922
0 -0.0201594 0.0149282
0 -0.0160765 0.0119048
0 -0.00579121 0.00428844
0 0.00672841 -0.00498244
0 0.0166522 -0.0123311
0 0.0161097 0
0 0.0136785 0
0 0.00513192 0
0 -0.00539454 0
0 -0.0138397 0
0 -0.0169455 0
0 -0.0135135 0
0 -0.00486794 0
0 0.00565572 0
0 0.0133052 0
0.00227334 0.00989448 0.0173038
0.00595303 0.00800022 0.0139902
0.00733215 0.00300155 0.00524888
0.00588246 -0.00315515 -0.00551749
0.00216328 -0.00809458 -0.0141552
-0.00239051 -0.00991106 -0.0173317
-0.00602202 -0.00790378 -0.0138215
-0.0073302 -0.00284716 -0.00497888
-0.00581032 0.0033079 0.0057846
-0.00204531 0.00817197 0.0142915
0.00366961 -0.000138139 0.0279317
0.00960933 -0.00011168 0.0225828
0.0118355 -4.19004e-05 0.00847271
0.00949542 4.40446e-05 -0.00890629
0.00349195 0.000112997 -0.0228492
-0.00385875 0.000138354 -0.0279767
-0.00972071 0.000110333 -0.0223106
-0.0118324 3.97451e-05 -0.00803688
-0.00937899 -4.61769e-05 0.00933746
-0.00330153 -0.000114091 0.0230692
0.00365012 -0.0101175 0.0277833
0.00955829 -0.00817959 0.0224629
0.0117726 -0.00306885 0.0084277
0.00944499 0.00322589 -0.00885897
0.0034734 0.00827606 -0.0227278
-0.00383825 0.0101333 -0.0278281
-0.00966907 0.00808098 -0.022192
-0.0117695 0.00291099 -0.00799418
-0.00932916 -0.00338207 0.00928786
-0.00328399 -0.00835614 0.0229466
0.00222238 -0.0161934 0.0169159
0.00581958 -0.0130918 0.0136766
0.00716778 -0.00491181 0.00513122
0.0057506 0.00516316 -0.0053938
0.00211479 0.0132462 -0.0138379
-0.00233693 0.0162187 -0.0169432
-0.00588704 0.0129339 -0.0135117
-0.00716588 0.00465916 -0.00486728
-0.00568008 -0.00541313 0.00565493
-0.00199946 -0.0133743 0.0139711
-6.2766e-05 -0.0160218 -0.000477751
-0.000164361 -0.012953 -0.000386262
-0.000202437 -0.00485977 -0.000144919
-0.000162412 0.00510845 0.000152335
-5.97272e-05 0.0131058 0.000390818
6.6001e-05 0.0160468 0.00047852
0.000166266 0.0127969 0.000381606
0.000202384 0.00460978 0.000137465
0.000160421 -0.00535577 -0.00015971
5.64702e-05 -0.0132326 -0.000394581
-0.0023237 -0.00966887 -0.0176871
-0.0060849 -0.00781692 -0.0143001
-0.00749456 -0.00293278 -0.00536515
-0.00601276 0.00308286 0.0056397
-0.0022112 0.00790911 0.0144687
0.00244347 0.00968397 0.0177156
0.00615542 0.00772268 0.0141277
0.00749257 0.00278192 0.00508917
0.00593903 -0.00323211 -0.00591273
0.00209062 -0.00798564 -0.014608
-0.00368813 0.000414386 -0.0280726
-0.00965783 0.000335015 -0.0226968
-0.0118952 0.000125692 -0.00851547
-0.00954334 -0.000132124 0.00895123
-0.00350957 -0.000338966 0.0229645
0.00387822 -0.000415033 0.0281178
0.00976977 -0.000330977 0.0224232
0.0118921 -0.000119227 0.00807744
0.00942631 0.000138521 -0.00938458
0.00331819 0.000342246 -0.0231856
-0.00362965 0.0103378 -0.0276275
-0.00950469 0.00835766 -0.0223369
-0.0117066 0.00313566 -0.00838044
-0.00939203 -0.00329612 0.00880929
-0.00345393 -0.00845624 0.0226003
0.00381673 -0.0103539 0.027672
0.00961485 -0.00825691 0.0220676
0.0117035 -0.00297437 0.00794936
0.00927685 0.00345569 -0.00923578
0.00326558 0.00853808 -0.022818
-0.00217083 0.0162728 -0.0165235
-0.00567497 0.0131337 -0.0133361
-0.00698966 0.00492753 -0.00500347
-0.00560769 -0.00517969 0.00525951
-0.00206223 -0.0132886 0.0134933
0.00227885 -0.0162706 0.0165213
0.00574074 -0.0129753 0.0131753
0.0069878 -0.00467407 0.0047461
0.00553892 0.00543047 -0.00551416
0.00195308 0.0134399 -0.013647
0 0.0060441 0
0 0.00513193 0
0 0.00192541 0
0 -0.00202394 0
0 -0.00519244 0
0 -0.00635766 0
0 -0.00507005 0
0 -0.00182637 0
0 0.00212193 0
0 0.00499189 0
0.00366961 0.00371224 0.0122964
0.00960933 0.00300155 0.00994123
0.0118355 0.00112613 0.00372979
0.00949542 -0.00118376 -0.00392065
0.00349195 -0.00303696 -0.0100585
-0.00385875 -0.00371847 -0.0123157
-0.00972071 -0.00296537 -0.00982139
-0.0118324 -0.00106821 -0.00353793
-0.00937899 0.00124107 0.00411046
-0.00330153 0.00306598 0.0101558
0.00592346 -5.18276e-05 0.0198488
0.0155113 -4.19004e-05 0.0160471
0.0191048 -1.57203e-05 0.00602059
0.0153274 1.65248e-05 -0.00632869
0.00563668 4.23946e-05 -0.0162363
-0.00622876 5.19082e-05 -0.0198799
-0.0156911 4.13953e-05 -0.0158536
-0.0190997 1.49117e-05 -0.00571091
-0.0151395 -1.73248e-05 0.00663508
-0.0053293 -4.2805e-05 0.0163934
0.00589199 -0.0037959 0.0197434
0.0154289 -0.00306885 0.0159618
0.0190033 -0.00115138 0.00598861
0.015246 0.0012103 -0.00629508
0.00560673 0.00310504 -0.0161501
-0.00619567 0.00380183 -0.0197743
-0.0156077 0.00303185 -0.0157694
-0.0189982 0.00109216 -0.00568057
-0.0150591 -0.0012689 0.00659983
-0.00530099 -0.00313508 0.0163063
0.00358735 -0.00607549 0.0120208
0.00939394 -0.00491181 0.00971839
0.0115702 -0.00184283 0.00364618
0.00928257 0.00193714 -0.00383277
0.00341367 0.00496974 -0.00983301
-0.00377225 0.00608499 -0.0120396
-0.0095028 0.0048526 -0.00960121
-0.0115671 0.00174804 -0.00345863
-0.00916874 -0.00203092 0.00401832
-0.00322752 -0.00501782 0.00992815
-0.000101316 -0.00601111 -0.000339499
-0.00026531 -0.00485977 -0.000274473
-0.000326773 -0.0018233 -0.000102978
-0.000262164 0.00191661 0.000108248
-9.64112e-05 0.00491708 0.00027771
0.000106538 0.0060205 0.00034003
0.000268385 0.00480117 0.000271164
0.000326686 0.00172952 9.76808e-05
0.000258949 -0.0020094 -0.000113488
9.11538e-05 -0.00496464 -0.000280397
-0.00375089 -0.0036276 -0.0125688
-0.00982219 -0.00293278 -0.0101614
-0.0120977 -0.00110033 -0.0038124
-0.00970576 0.00115664 0.0040075
-0.0035693 0.00296737 0.0102813
0.00394422 0.00363327 0.0125885
0.00993603 0.00289742 0.0100389
0.0120944 0.00104373 0.0036163
0.00958673 -0.00121264 -0.00420151
0.00337466 -0.00299608 -0.0103808
-0.00595335 0.00015547 -0.019949
-0.0155896 0.000125692 -0.016128
-0.0192012 4.71577e-05 -0.00605098
-0.0154048 -4.95709e-05 0.00636062
-0.00566512 -0.000127175 0.0163183
0.00626019 -0.000155714 0.0199802
0.0157703 -0.000124177 0.0159336
0.0191961 -4.4732e-05 0.00573973
0.0152159 5.19708e-05 -0.00666856
0.0053562 0.000128405 -0.0164762
-0.00585896 0.00387855 -0.0196327
-0.0153424 0.00313566 -0.0158723
-0.0188967 0.00117645 -0.00595503
-0.0151605 -0.00123665 0.00625977
-0.00557529 -0.00317264 0.0160595
0.00616093 -0.00388461 0.0196634
0.0155202 -0.00309786 0.015681
0.0188917 -0.00111593 0.00564872
0.0149746 0.00129652 -0.00656282
0.00527127 0.00320334 -0.0162149
-0.00350414 0.00610526 -0.011742
-0.00916049 0.00492753 -0.00947689
-0.0112827 0.00184873 -0.00355557
-0.00905189 -0.00194333 0.00373752
-0.00332884 -0.00498564 0.00958865
0.0036785 -0.00610445 0.0117404
0.00926665 -0.00486812 0.00936262
0.0112797 -0.00175363 0.00337268
0.00894089 0.00203742 -0.00391848
0.00315265 0.00504242 -0.00969785
0 -0.0063534 0
0 -0.00539454 0
0 -0.00202394 0
0 0.00212751 0
0 0.00545816 0
0 0.006683 0
0 0.0053295 0
0 0.00191983 0
0 -0.00223052 0
0 -0.00524735 0
0.00365012 -0.00390221 0.00254502
0.00955829 -0.00315515 0.00205756
0.0117726 -0.00118376 0.000771962
0.00944499 0.00124434 -0.000811466
0.0034734 0.00319236 -0.00208183
-0.00383825 0.00390875 -0.002549
-0.00966907 0.00311711 -0.00203275
-0.0117695 0.00112287 -0.000732253
-0.00932916 -0.00130458 0.000850751
-0.00328399 -0.00322288 0.00210197
0.00589199 5.44798e-05 0.00410815
0.0154289 4.40446e-05 0.00332129
0.0190033 1.65248e-05 0.0012461
0.015246 -1.73704e-05 -0.00130986
0.00560673 -4.45641e-05 -0.00336047
-0.00619567 -5.45645e-05 -0.00411458
-0.0156077 -4.35136e-05 -0.00328125
-0.0189982 -1.56748e-05 -0.001182
-0.0150591 1.82114e-05 0.00137328
-0.00530099 4.49955e-05 0.00339298
0.00586069 0.00399015 0.00408633
0.015347 0.00322589 0.00330365
0.0189023 0.0012103 0.00123948
0.015165 -0.00127224 -0.0013029
0.00557695 -0.00326394 -0.00334262
-0.00616276 -0.00399639 -0.00409272
-0.0155248 -0.003187 -0.00326382
-0.0188973 -0.00114805 -0.00117572
-0.0149791 0.00133383 0.00136598
-0.00527283 0.00329551 0.00337496
0.00356829 0.00638639 0.00248797
0.00934403 0.00516316 0.00201143
0.0115087 0.00193714 0.000754657
0.00923326 -0.00203627 -0.000793276
0.00339554 -0.00522406 -0.00203516
-0.00375221 -0.00639637 -0.00249186
-0.00945233 -0.00510092 -0.00198719
-0.0115057 -0.00183749 -0.000715839
-0.00912003 0.00213485 0.00083168
-0.00321038 0.0052746 0.00205485
-0.000100778 0.00631871 -7.02669e-05
-0.0002639 0.00510845 -5.68083e-05
-0.000325037 0.00191661 -2.13135e-05
-0.000260772 -0.00201469 2.24042e-05
-9.58991e-05 -0.0051687 5.74783e-05
0.000105972 -0.0063286 7.03768e-05
0.000266959 -0.00504687 5.61234e-05
0.000324951 -0.00181802 2.02172e-05
0.000257574 0.00211222 -2.34889e-05
9.06696e-05 0.0052187 -5.80344e-05
-0.00373097 0.00381323 -0.00260139
-0.00977002 0.00308286 -0.00210313
-0.0120334 0.00115664 -0.000789062
-0.00965419 -0.00121583 0.00082944
-0.00355034 -0.00311922 0.00212794
0.00392327 -0.00381919 0.00260546
0.00988325 -0.0030457 0.00207778
0.0120302 -0.00109714 0.000748473
0.0095358 0.00127469 -0.000869596
0.00335673 0.00314939 -0.00214853
-0.00592172 -0.000163426 -0.00412888
-0.0155068 -0.000132124 -0.00333806
-0.0190992 -4.95709e-05 -0.00125238
-0.015323 5.21076e-05 0.00131647
-0.00563503 0.000133683 0.00337743
0.00622694 0.000163682 0.00413534
0.0156865 0.000130532 0.00329781
0.0190941 4.7021e-05 0.00118796
0.015135 -5.46303e-05 -0.00138021
0.00532774 -0.000134976 -0.0034101
-0.00582783 -0.00407703 -0.00406342
-0.0152609 -0.00329612 -0.00328513
-0.0187963 -0.00123665 -0.00123253
-0.01508 0.00129993 0.0012956
-0.00554568 0.003335 0.00332387
0.00612821 0.00408339 0.00406977
0.0154378 0.00325639 0.00324552
0.0187914 0.00117304 0.00116913
0.0148951 -0.00136287 -0.00135832
0.00524327 -0.00336727 -0.00335604
-0.00348552 -0.00641769 -0.00243026
-0.00911183 -0.00517969 -0.00196145
-0.0112227 -0.00194333 -0.000735904
-0.00900381 0.00204278 0.000773562
-0.00331116 0.00524077 0.00198458
0.00365896 0.00641683 0.00242994
0.00921743 0.00511724 0.0019378
0.0112197 0.00184337 0.00069805
0.00889339 -0.00214168 -0.000811015
0.00313591 -0.00530046 -0.00200718
0 -0.0162997 0
0 -0.0138398 0
0 -0.00519244 0
0 0.00545816 0
0 0.014003 0
0 0.0171453 0
0 0.0136729 0
0 0.00492535 0
0 -0.00572242 0
0 -0.0134621 0
0.00222238 -0.0100112 -0.00818829
0.00581958 -0.00809458 -0.00661993
0.00716779 -0.00303696 -0.00248369
0.0057506 0.00319236 0.00261079
0.00211479 0.00819005 0.00669802
-0.00233693 0.0100279 0.00820109
-0.00588704 0.00799699 0.00654013
-0.00716588 0.00288074 0.00235593
-0.00568008 -0.00334692 -0.00273719
-0.00199946 -0.00826834 -0.00676282
0.00358735 0.000139768 -0.0132175
0.00939394 0.000112997 -0.0106859
0.0115702 4.23946e-05 -0.00400916
0.00928257 -4.45641e-05 0.00421432
0.00341367 -0.00011433 0.0108119
-0.00377225 -0.000139986 0.0132381
-0.0095028 -0.000111635 0.010557
-0.0115671 -4.02139e-05 0.00380293
-0.00916874 4.67215e-05 -0.00441835
-0.00322752 0.000115436 -0.0109165
0.00356829 0.0102368 -0.0131473
0.00934403 0.00827606 -0.0106291
0.0115087 0.00310504 -0.00398786
0.00923326 -0.00326394 0.00419193
0.00339554 -0.00837367 0.0107544
-0.00375221 -0.0102528 0.0131678
-0.00945233 -0.00817629 0.0105009
-0.0115057 -0.00294533 0.00378273
-0.00912003 0.00342195 -0.00439487
-0.00321038 0.00845467 -0.0108585
0.00217256 0.0163843 -0.00800474
0.00568914 0.0132462 -0.00647154
0.00700711 0.00496974 -0.00242802
0.00562169 -0.00522406 0.00255227
0.00206738 -0.0134024 0.00654787
-0.00228454 -0.01641 0.00801725
-0.00575507 -0.0130865 0.00639352
-0.00700524 -0.00471411 0.00230312
-0.00555275 0.00547697 -0.00267583
-0.00195464 0.013532 -0.00661122
-6.1359e-05 0.0162107 0.000226075
-0.000160676 0.0131058 0.000182774
-0.0001979 0.00491708 6.85737e-05
-0.000158772 -0.0051687 -7.20828e-05
-5.83883e-05 -0.0132604 -0.000184929
6.45215e-05 -0.0162361 -0.000226428
0.000162538 -0.0129478 -0.00018057
0.000197847 -0.00466415 -6.50463e-05
0.000156824 0.00541893 7.55725e-05
5.52043e-05 0.0133886 0.000186719
-0.00227161 0.00978289 0.00836966
-0.0059485 0.00790911 0.00676657
-0.00732656 0.00296737 0.00253871
-0.00587798 -0.00311922 -0.00266862
-0.00216163 -0.00800239 -0.00684638
0.00238869 -0.00979819 -0.00838275
0.00601743 -0.00781376 -0.006685
0.00732462 -0.00281473 -0.00240812
0.00580589 0.00327023 0.00279782
0.00204375 0.0080798 0.00691262
-0.00360545 -0.000419272 0.0132842
-0.00944134 -0.000338966 0.0107398
-0.0116286 -0.000127175 0.00402939
-0.00932942 0.000133683 -0.00423559
-0.0034309 0.000342964 -0.0108664
0.00379128 0.000419928 -0.0133049
0.00955076 0.00033488 -0.0106103
0.0116255 0.000120633 -0.00382212
0.009215 -0.000140155 0.00444064
0.00324381 -0.000346282 0.0109716
-0.00354829 -0.0104597 0.0130736
-0.00929164 -0.00845624 0.0105695
-0.0114442 -0.00317264 0.0039655
-0.00918149 0.003335 -0.00416843
-0.0033765 0.00855597 -0.0106941
0.00373117 0.010476 -0.013094
0.00939933 0.00835429 -0.0104421
0.0114412 0.00300945 -0.00376152
0.00906889 -0.00349645 0.00437023
0.00319238 -0.00863876 0.0107976
-0.00212217 -0.0164646 0.00781906
-0.00554776 -0.0132886 0.00631073
-0.00683298 -0.00498564 0.00236768
-0.00548199 0.00524077 -0.00248884
-0.002016 0.0134453 -0.00638515
0.00222777 0.0164625 -0.00781802
0.00561205 0.0131283 -0.00623464
0.00683116 0.00472918 -0.00224589
0.00541476 -0.00549451 0.00260934
0.0019093 -0.0135984 0.00645787
0 -0.0199575 0
0 -0.0169455 0
0 -0.00635766 0
0 0.006683 0
0 0.0171453 0
0 0.0209928 0
0 0.0167412 0
0 0.00603063 0
0 -0.00700657 0
0 -0.0164831 0
-6.2766e-05 -0.0122577 -0.0157625
-0.000164361 -0.00991106 -0.0127434
-0.000202437 -0.00371847 -0.00478112
-0.000162412 0.00390875 0.00502578
-5.97272e-05 0.0100279 0.0128937
6.6001e-05 0.0122783 0.0157871
0.000166266 0.00979158 0.0125898
0.000202384 0.00352719 0.00453519
0.000160421 -0.00409799 -0.0052691
5.64702e-05 -0.0101238 -0.0130185
-0.000101316 0.000171133 -0.0254437
-0.00026531 0.000138354 -0.0205703
-0.000326773 5.19082e-05 -0.00771766
-0.000262164 -5.45645e-05 0.00811259
-9.64111e-05 -0.000139986 0.0208129
0.000106538 -0.0001714 0.0254835
0.000268385 -0.000136686 0.0203223
0.000326686 -4.92381e-05 0.00732067
0.000258949 5.72061e-05 -0.00850534
9.11538e-05 0.000141341 -0.0210143
-0.000100778 0.012534 -0.0253085
-0.0002639 0.0101333 -0.020461
-0.000325037 0.00380183 -0.00767665
-0.000260772 -0.00399639 0.00806949
-9.58991e-05 -0.0102528 0.0207024
0.000105972 -0.0125536 0.0253481
0.000266959 -0.0100111 0.0202144
0.000324951 -0.00360627 0.00728178
0.000257574 0.00418986 -0.00846015
9.06696e-05 0.010352 -0.0209027
-6.1359e-05 0.0200611 -0.0154092
-0.000160676 0.0162187 -0.0124577
-0.0001979 0.00608499 -0.00467395
-0.000158772 -0.00639637 0.00491313
-5.83883e-05 -0.01641 0.0126047
6.45215e-05 -0.0200925 0.0154333
0.000162538 -0.0160231 0.0123076
0.000197847 -0.00577198 0.00443352
0.000156824 0.00670604 -0.00515098
5.52043e-05 0.0165687 -0.0127266
1.73294e-06 0.0198485 0.000435196
4.53793e-06 0.0160468 0.00035184
5.58921e-06 0.0060205 0.000132005
4.48413e-06 -0.0063286 -0.00013876
1.64904e-06 -0.0162361 -0.00035599
-1.82226e-06 -0.0198796 -0.000435876
-4.59052e-06 -0.0158534 -0.000347598
-5.58773e-06 -0.00571082 -0.000125214
-4.42914e-06 0.00663497 0.000145478
-1.55912e-06 0.0163931 0.000359434
6.41563e-05 0.0119782 0.0161116
0.000168001 0.00968397 0.0130257
0.000206921 0.00363327 0.00488703
0.00016601 -0.00381919 -0.00513711
6.10502e-05 -0.00979819 -0.0131793
-6.7463e-05 -0.011997 -0.0161368
-0.000169948 -0.00956722 -0.0128686
-0.000206866 -0.00344638 -0.00463564
-0.000163974 0.00400409 0.00538581
-5.77211e-05 0.00989296 0.0133068
0.000101828 -0.00051336 0.0255721
0.000266649 -0.000415033 0.0206741
0.000328422 -0.000155714 0.0077566
0.000263488 0.000163682 -0.00815353
9.68977e-05 0.000419928 -0.0209179
-0.000107076 0.000514162 -0.0256121
-0.000269739 0.000410029 -0.0204249
-0.000328335 0.000147704 -0.00735761
-0.000260256 -0.000171606 0.00854826
-9.16138e-05 -0.00042399 0.0211204
0.000100213 -0.0128069 0.0251667
0.00026242 -0.0103539 0.0203463
0.000323214 -0.00388461 0.00763361
0.00025931 0.00408339 -0.00802424
9.53614e-05 0.010476 -0.0205863
-0.000105378 0.0128269 -0.025206
-0.000265462 0.010229 -0.020101
-0.000323129 0.00368479 -0.00724094
-0.00025613 -0.00428108 0.00841272
-9.01612e-05 -0.0105774 0.0207855
5.99357e-05 -0.0201594 0.0150517
0.000156683 -0.0162706 0.0121482
0.000192982 -0.00610445 0.00455779
0.000154826 0.00641683 -0.00479103
5.69373e-05 0.0164625 -0.0122914
-6.29181e-05 0.0201567 -0.0150497
-0.000158499 0.0160744 -0.0120017
-0.00019293 0.00579044 -0.00432335
-0.000152927 -0.00672751 0.00502299
-5.39238e-05 -0.0166499 0.0124314
0 -0.0159155 0
0 -0.0135135 0
0 -0.00507005 0
0 0.0053295 0
0 0.0136729 0
0 0.0167412 0
0 0.0133506 0
0 0.00480925 0
0 -0.00558753 0
0 -0.0131448 0
-0.0023237 -0.00977517 -0.0172554
-0.0060849 -0.00790378 -0.0139504
-0.00749456 -0.00296537 -0.00523396
-0.00601276 0.00311711 0.0055018
-0.0022112 0.00799699 0.0141149
0.00244347 0.00979158 0.0172824
0.00615542 0.00780849 0.0137822
0.00749257 0.00281283 0.00496473
0.00593903 -0.00326802 -0.00576815
0.00209062 -0.00807343 -0.0142515
-0.00375089 0.000136474 -0.0278536
-0.00982219 0.000110333 -0.0225186
-0.0120977 4.13953e-05 -0.00844861
-0.00970576 -4.35136e-05 0.00888096
-0.0035693 -0.000111635 0.0227842
0.00394422 -0.000136686 0.0278971
0.00993603 -0.000109003 0.0222471
0.0120944 -3.92659e-05 0.00801402
0.00958673 4.56202e-05 -0.00931091
0.00337466 0.000112715 -0.0230046
-0.00373097 0.00999547 -0.0277056
-0.00977002 0.00808098 -0.022399
-0.0120334 0.00303185 -0.00840373
-0.00965419 -0.003187 0.00883378
-0.00355034 -0.00817629 0.0226632
0.00392327 -0.0100111 0.0277489
0.00988325 -0.00798355 0.022129
0.0120302 -0.0028759 0.00797146
0.0095358 0.00334129 -0.00926145
0.00335673 0.00825538 -0.0228824
-0.00227161 0.0159981 -0.0168686
-0.0059485 0.0129339 -0.0136377
-0.00732656 0.0048526 -0.00511663
-0.00587798 -0.00510092 0.00537846
-0.00216163 -0.0130865 0.0137985
0.00238869 -0.0160231 0.016895
0.00601743 -0.012778 0.0134733
0.00732462 -0.00460298 0.00485344
0.00580589 0.00534787 -0.00563885
0.00204375 0.0132131 -0.013932
6.41563e-05 0.0158286 0.000476414
0.000168001 0.0127969 0.000385164
0.000206921 0.00480117 0.000144507
0.00016601 -0.00504687 -0.000151902
6.10502e-05 -0.0129478 -0.000389707
-6.7463e-05 -0.0158534 -0.000477159
-0.000169948 -0.0126426 -0.000380521
-0.000206866 -0.00455421 -0.000137074
-0.000163974 0.0052912 0.000159256
-5.77211e-05 0.013073 0.000393477
0.00237517 0.00955229 0.0176376
0.00621968 0.00772268 0.0142594
0.00766057 0.00289742 0.00534989
0.00614595 -0.0030457 -0.00562366
0.00226018 -0.00781376 -0.0144276
-0.00249759 -0.00956722 -0.0176652
-0.00629177 -0.00762957 -0.0140875
-0.00765853 -0.00274839 -0.0050747
-0.00607058 0.00319314 0.00589592
-0.00213693 0.00788935 0.0145672
0.00376982 -0.000409389 0.0279941
0.00987176 -0.000330977 0.0226322
0.0121587 -0.000124177 0.00849125
0.00975474 0.000130532 -0.00892578
0.00358731 0.00033488 -0.0228992
-0.00396413 0.000410029 -0.0280379
-0.00998617 0.000326986 -0.0223594
-0.0121555 0.00011779 -0.00805447
-0.0096351 -0.000136851 0.00935789
-0.00339169 -0.000338119 0.0231207
0.00371005 -0.0102131 0.0275503
0.00971524 -0.00825691 0.0222734
0.0119659 -0.00309786 0.00835661
0.00960006 0.00325638 -0.00878424
0.00353043 0.00835429 -0.0225361
-0.00390127 0.010229 -0.0275933
-0.00982783 0.00815737 -0.0220049
-0.0119627 0.00293851 -0.00792676
-0.00948233 -0.00341404 0.00920951
-0.00333791 -0.00843513 0.0227542
0.00221892 -0.0160765 0.0164773
0.00580067 -0.0129753 0.0132988
0.00714449 -0.00486812 0.00498948
0.0057319 0.00511724 -0.00524481
0.00210791 0.0131283 -0.0134556
-0.00232933 0.0160744 -0.0164751
-0.0058679 0.0128189 -0.0131384
-0.00714259 0.00461771 -0.00473283
-0.00566162 -0.00536499 0.00549874
-0.00199635 -0.0132778 0.0136088
0 -0.0057332 0
0 -0.00486794 0
0 -0.00182637 0
0 0.00191983 0
0 0.00492535 0
0 0.00603063 0
0 0.00480925 0
0 0.00173242 0
0 -0.00201278 0
0 -0.00473512 0
-0.00368813 -0.00352129 -0.0120911
-0.00965783 -0.00284716 -0.0097752
-0.0118952 -0.00106821 -0.00366749
-0.00954334 0.00112287 0.00385517
-0.00350957 0.00288074 0.00989048
0.00387822 0.00352719 0.01211
0.00976977 0.00281283 0.00965734
0.0118921 0.00101326 0.00347884
0.00942631 -0.00117723 -0.00404181
0.00331819 -0.00290827 -0.00998618
-0.00595335 4.91616e-05 -0.0195173
-0.0155896 3.97451e-05 -0.015779
-0.0192012 1.49117e-05 -0.00592004
-0.0154048 -1.56748e-05 0.00622298
-0.00566512 -4.02139e-05 0.0159651
0.00626019 -4.92381e-05 0.0195478
0.0157703 -3.92659e-05 0.0155888
0.0191961 -1.41447e-05 0.00561552
0.0152159 1.64336e-05 -0.00652426
0.0053562 4.06032e-05 -0.0161196
-0.00592172 0.00360064 -0.0194136
-0.0155068 0.00291099 -0.0156952
-0.0190992 0.00109216 -0.00588859
-0.015323 -0.00114805 0.00618993
-0.00563503 -0.00294533 0.0158803
0.00622694 -0.00360627 0.019444
0.0156865 -0.0028759 0.015506
0.0190941 -0.00103598 0.00558569
0.015135 0.00120363 -0.0064896
0.00532774 0.00297382 -0.016034
-0.00360545 0.00576297 -0.01182
-0.00944134 0.00465916 -0.00955606
-0.0116286 0.00174804 -0.00358528
-0.00932942 -0.00183749 0.00376875
-0.0034309 -0.00471411 0.00966877
0.00379128 -0.00577198 0.0118385
0.00955076 -0.00460298 0.00944086
0.0116255 -0.00165812 0.00340086
0.009215 0.00192645 -0.00395121
0.00324381 0.00475971 -0.00976232
0.000101828 0.0057019 0.000333829
0.000266649 0.00460978 0.000269889
0.000328422 0.00172952 0.000101258
0.000263488 -0.00181802 -0.00010644
9.68977e-05 -0.00466415 -0.000273072
-0.000107076 -0.00571082 -0.000334351
-0.000269739 -0.00455421 -0.000266635
-0.000328335 -0.00164055 -9.60494e-05
-0.000260256 0.00190604 0.000111593
-9.16138e-05 0.00470927 0.000275714
0.00376982 0.003441 0.0123589
0.00987176 0.00278192 0.00999172
0.0121587 0.00104373 0.00374873
0.00975474 -0.00109714 -0.00394056
0.00358731 -0.00281473 -0.0101096
-0.00396413 -0.00344638 -0.0123782
-0.00998617 -0.00274839 -0.00987126
-0.0121555 -0.000990044 -0.0035559
-0.0096351 0.00115026 0.00413134
-0.00339169 0.00284196 0.0102074
0.00598339 -0.000147473 0.0196158
0.0156683 -0.000119227 0.0158587
0.0192981 -4.4732e-05 0.00594992
0.0154825 4.7021e-05 -0.00625439
0.00569372 0.000120633 -0.0160457
-0.00629179 0.000147704 -0.0196465
-0.0158499 0.00011779 -0.0156675
-0.0192929 4.2431e-05 -0.00564386
-0.0152927 -4.92975e-05 0.00655718
-0.00538323 -0.0001218 0.016201
0.00588853 -0.00367904 0.0193048
0.0154198 -0.00297437 0.0156072
0.0189921 -0.00111593 0.00585557
0.015237 0.00117304 -0.00615522
0.00560343 0.00300945 -0.0157913
-0.00619202 0.00368479 -0.019335
-0.0155985 0.00293851 -0.0154191
-0.018987 0.00105853 -0.00555437
-0.0150502 -0.00122983 0.00645321
-0.00529788 -0.00303857 0.0159441
0.00352182 -0.00579121 0.0115458
0.00920672 -0.00467407 0.00931861
0.0113396 -0.00175363 0.00349618
0.00909757 0.00184337 -0.00367509
0.00334564 0.00472918 -0.00942849
-0.00369707 0.00579044 -0.0115443
-0.00931342 0.00461771 -0.00920625
-0.0113366 0.00166343 -0.00331634
-0.00898601 -0.00193262 0.00385303
-0.00316856 -0.00478304 0.00953587
0 0.006661 0
0 0.00565572 0
0 0.00212193 0
0 -0.00223052 0
0 -0.00572241 0
0 -0.00700656 0
0 -0.00558753 0
0 -0.00201278 0
0 0.00233851 0
0 0.0055014 0
-0.00362965 0.00409114 -0.0022619
-0.00950469 0.0033079 -0.00182868
-0.0117066 0.00124107 -0.00068609
-0.00939203 -0.00130458 0.000721199
-0.00345393 -0.00334691 0.00185024
0.00381673 -0.00409798 0.00226545
0.00961485 -0.00326802 0.00180663
0.0117035 -0.00117723 0.000650798
0.00927685 0.00136774 -0.000756114
0.00326558 0.00337892 -0.00186813
-0.00585896 -5.71175e-05 -0.00365114
-0.0153424 -4.61769e-05 -0.00295184
-0.0188967 -1.73248e-05 -0.00110748
-0.0151605 1.82114e-05 0.00116415
-0.00557529 4.67215e-05 0.00298665
0.00616093 5.72061e-05 0.00365687
0.0155202 4.56202e-05 0.00291625
0.0188917 1.64336e-05 0.00105051
0.0149746 -1.9093e-05 -0.00122051
0.00527127 -4.7174e-05 -0.00301553
-0.00582783 -0.00418334 -0.00363175
-0.0152609 -0.00338206 -0.00293616
-0.0187963 -0.0012689 -0.0011016
-0.01508 0.00133383 0.00115797
-0.00554568 0.00342195 0.00297078
0.00612821 0.00418986 0.00363745
0.0154378 0.00334129 0.00290076
0.0187914 0.00120363 0.00104493
0.0148951 -0.0013984 -0.00121403
0.00524327 -0.00345507 -0.00299951
-0.00354829 -0.00669559 -0.0022112
-0.00929164 -0.00541313 -0.00178768
-0.0114442 -0.00203092 -0.00067071
-0.00918149 0.00213485 0.000705032
-0.0033765 0.00547697 0.00180877
0.00373117 0.00670604 0.00221467
0.00939933 0.00534787 0.00176613
0.0114412 0.00192645 0.000636209
0.00906889 -0.0022382 -0.000739164
0.00319238 -0.00552997 -0.00182626
0.000100213 -0.00662464 6.24501e-05
0.00026242 -0.00535576 5.0489e-05
0.000323214 -0.0020094 1.89426e-05
0.00025931 0.00211222 -1.9912e-05
9.53614e-05 0.00541893 -5.10844e-05
-0.000105378 0.00663497 -6.25481e-05
-0.000265462 0.0052912 -4.98802e-05
-0.000323129 0.00190603 -1.79682e-05
-0.00025613 -0.00221448 2.0876e-05
-9.01612e-05 -0.00547137 5.15784e-05
0.00371005 -0.00399785 0.002312
0.00971524 -0.00323211 0.00186918
0.0119659 -0.00121263 0.000701287
0.00960006 0.00127469 -0.000737174
0.00353043 0.00327023 -0.00189123
-0.00390127 0.00400409 -0.00231563
-0.00982783 0.00319314 -0.00184665
-0.0119627 0.00115026 -0.000665213
-0.00948233 -0.0013364 0.000772862
-0.00333791 -0.00330188 0.00190951
0.00588853 0.000171339 0.00366957
0.0154198 0.000138521 0.00296673
0.0189921 5.19707e-05 0.00111307
0.015237 -5.46302e-05 -0.00117003
0.00560343 -0.000140155 -0.00300172
-0.00619202 -0.000171606 -0.00367533
-0.0155985 -0.000136851 -0.00293097
-0.018987 -4.92974e-05 -0.00105581
-0.0150502 5.7275e-05 0.00122667
-0.00529788 0.000141511 0.00303075
0.00579516 0.00427442 0.00361138
0.0151753 0.00345569 0.00291969
0.018691 0.00129652 0.00109542
0.0149955 -0.00136287 -0.00115148
0.00551459 -0.00349645 -0.00295413
-0.00609385 -0.00428108 -0.00361705
-0.0153512 -0.00341403 -0.00288449
-0.018686 -0.00122983 -0.00103907
-0.0148115 0.00142885 0.00120722
-0.00521388 0.0035303 0.00298269
0.00346598 0.00672841 0.0021599
0.00906075 0.00543047 0.00174325
0.0111598 0.00203742 0.000654038
0.00895333 -0.00214168 -0.000687507
0.00329259 -0.00549451 -0.00176381
-0.00363845 -0.00672751 -0.00215962
-0.00916575 -0.00536499 -0.00172223
-0.0111568 -0.00193262 -0.000620395
-0.00884354 0.00224537 0.000720794
-0.00311833 0.00555708 0.0017839
0 0.0164853 0
0 0.0133052 0
0 0.0049919 0
0 -0.00524735 0
0 -0.0134621 0
0 -0.0164831 0
0 -0.0131448 0
0 -0.00473512 0
0 0.00550141 0
0 0.0136154 0
-0.00217083 0.0101252 0.00843993
-0.00567496 0.00817198 0.00681184
-0.00698965 0.00306599 0.00255569
-0.00560768 -0.00322288 -0.00268647
-0.00206223 -0.00826834 -0.00689217
0.00227885 -0.0101238 -0.00843881
0.00574072 -0.00807344 -0.0067297
0.00698779 -0.00290828 -0.00242422
0.00553891 0.00337892 0.00281654
0.00195308 0.00836251 0.00697066
-0.00350414 -0.00014136 0.0136237
-0.00916047 -0.000114091 0.0109956
-0.0112826 -4.2805e-05 0.00412537
-0.00905188 4.49955e-05 -0.00433648
-0.00332883 0.000115436 -0.0111253
0.0036785 0.000141341 -0.0136219
0.00926663 0.000112715 -0.010863
0.0112796 4.06032e-05 -0.00391317
0.00894087 -4.7174e-05 0.00454643
0.00315265 -0.000116751 0.011252
-0.00348552 -0.0103534 0.0135513
-0.00911181 -0.00835614 0.0109372
-0.0112227 -0.00313508 0.00410346
-0.00900379 0.00329551 -0.00431344
-0.00331115 0.00845468 -0.0110662
0.00365896 0.010352 -0.0135495
0.00921741 0.00825538 -0.0108053
0.0112197 0.00297382 -0.00389238
0.00889338 -0.00345507 0.00452228
0.00313591 -0.00855097 0.0111922
-0.00212217 -0.0165709 0.00825074
-0.00554774 -0.0133743 0.00665914
-0.00683296 -0.00501782 0.0024984
-0.00548198 0.0052746 -0.00262625
-0.002016 0.013532 -0.00673767
0.00222776 0.0165687 -0.00824965
0.00561204 0.0132131 -0.00657885
0.00683115 0.00475971 -0.00236988
0.00541475 -0.00552998 0.0027534
0.0019093 -0.0136862 0.0068144
5.99357e-05 -0.0163953 -0.000233023
0.000156683 -0.0132326 -0.000188072
0.000192981 -0.00496465 -7.05614e-05
0.000154826 0.0052187 7.41723e-05
5.69372e-05 0.0133886 0.00019029
-6.2918e-05 0.0163931 0.000232992
-0.000158499 0.013073 0.000185804
-0.00019293 0.00470927 6.69318e-05
-0.000152927 -0.00547137 -7.77634e-05
-5.39238e-05 -0.0135411 -0.000192457
0.00221892 -0.0098943 -0.00862689
0.00580066 -0.00798564 -0.00696273
0.00714447 -0.00299608 -0.0026123
0.00573189 0.0031494 0.00274598
0.00210791 0.00807981 0.00704483
-0.00232932 0.00989297 0.00862574
-0.00586789 0.00788935 0.00687877
-0.00714257 0.00284196 0.00247792
-0.0056616 -0.00330188 -0.00287893
-0.00199635 -0.00817183 -0.00712506
0.00352182 0.000424047 -0.0136924
0.0092067 0.000342246 -0.0110511
0.0113396 0.000128405 -0.00414619
0.00909755 -0.000134976 0.00435836
0.00334563 -0.000346282 0.0111814
-0.00369706 -0.00042399 0.0136906
-0.0093134 -0.00033812 0.0109179
-0.0113366 -0.0001218 0.00393291
-0.00898599 0.000141511 -0.00456938
-0.00316856 0.000350226 -0.0113088
0.00346598 0.0105788 -0.0134753
0.00906073 0.00853808 -0.0108759
0.0111598 0.00320334 -0.00408045
0.00895331 -0.00336727 0.00428926
0.00329259 -0.00863876 0.0110041
-0.00363844 -0.0105774 0.0134735
-0.00916573 -0.00843513 0.0107448
-0.0111568 -0.00303857 0.00387056
-0.00884352 0.0035303 -0.00449693
-0.00311833 0.00873715 -0.0111295
0.00207294 0.0166522 -0.00805936
0.00541907 0.0134399 -0.00650468
0.00667448 0.00504242 -0.00244044
0.00535482 -0.00530046 0.00256533
0.00196924 -0.0135984 0.00658138
-0.00217609 -0.0166499 0.00805828
-0.00548187 -0.0132778 0.00642624
-0.00667271 -0.00478304 0.00231491
-0.00528916 0.00555708 -0.00268953
-0.00186501 0.0137532 -0.00665633
