# vtk DataFile Version 3.0
Velocity field
ASCII
DATASET STRUCTURED_POINTS
DIMENSIONS 5 5 5
SPACING 1.33333 1.33333 1.33333
ORIGIN 0 0 0
POINT_DATA 125
VECTORS velocity float
0 0.603204 0
0 0.141896 0
0 -0.536445 0
0 -0.39428 0
0 0.350946 0
0 -0.319411 1.04758
0 -0.0751375 0.284005
0 0.284061 -1.0737
0 0.208781 -0.789153
0 -0.185835 0.609488
0 -0.753479 0.492862
0 -0.177247 0.133618
0 0.670089 -0.505147
0 0.492507 -0.371277
0 -0.438377 0.286749
0 -0.0350818 -0.815705
0 -0.00825256 -0.221142
0 0.0311992 0.836037
0 0.022931 0.614476
0 -0.0204107 -0.47458
0 0.736974 -0.876631
0 0.173364 -0.206216
0 -0.65541 0.779611
0 -0.481718 0.573004
0 0.428774 -0.510027
0 0.141896 0
0 0.0424734 0
0 -0.160573 0
0 -0.118019 0
0 0.0825557 0
0.448362 -0.0751375 0.367893
0.709449 -0.018846 0.0932387
-0.148745 0.0714092 -0.353411
-0.779586 0.0525088 -0.259888
-0.202596 -0.0437153 0.214042
0.210943 -0.177247 0.173085
0.33378 -0.0446645 0.0438667
-0.0699812 0.169259 -0.166271
-0.366777 0.124464 -0.122272
-0.0953165 -0.103123 0.100701
-0.349119 -0.00825256 -0.286461
-0.552066 -0.00210283 -0.0725556
0.115747 0.00797347 0.275004
0.606644 0.00586392 0.20223
0.157752 -0.00480137 -0.166664
-0.375195 0.173364 -0.307858
-0.551715 0.0407817 -0.0724196
0.115627 -0.154177 0.273786
0.606114 -0.113318 0.201229
0.169535 0.100864 -0.179113
0 -0.536445 0
0 -0.160573 0
0 0.607052 0
0 0.446176 0
0 -0.312106 0
0.210943 0.284061 -0.8745
0.33378 0.0714092 -0.220892
-0.0699812 -0.270606 0.837195
-0.366777 -0.198988 0.615643
-0.0953165 0.165268 -0.508787
0.0992436 0.670089 -0.41143
0.157036 0.169259 -0.103925
-0.0329246 -0.641506 0.393883
-0.172561 -0.471739 0.289646
-0.044844 0.38986 -0.239372
-0.164252 0.0311992 0.680932
-0.259735 0.00797347 0.171895
0.0544566 -0.0302387 -0.651475
0.285412 -0.0222392 -0.479067
0.0742185 0.0181518 0.396169
-0.17652 -0.65541 0.731792
-0.259568 -0.154177 0.172145
0.0543996 0.582874 -0.650802
0.285162 0.428405 -0.478331
0.079762 -0.38132 0.425759
0 -0.39428 0
0 -0.118019 0
0 0.446176 0
0 0.327933 0
0 -0.229394 0
-0.349119 0.208781 -0.779324
-0.552066 0.0525092 -0.196925
0.115747 -0.19899 0.746373
0.606644 -0.146326 0.548857
0.157752 0.12147 -0.453413
-0.164252 0.492507 -0.366652
-0.259735 0.124465 -0.0926491
0.0544566 -0.471743 0.351153
0.285412 -0.346904 0.258226
0.0742185 0.286542 -0.21332
0.271842 0.022931 0.606823
0.429603 0.00586397 0.153244
-0.0900704 -0.0222394 -0.580797
-0.472069 -0.0163562 -0.427096
-0.122834 0.0133413 0.353052
0.292147 -0.481718 0.652147
0.429595 -0.113318 0.15341
-0.0900333 0.428405 -0.579972
-0.471953 0.314872 -0.426272
-0.132009 -0.280265 0.379422
0 0.350946 0
0 0.0825557 0
0 -0.312106 0
0 -0.229394 0
0 0.204182 0
-0.375195 -0.185835 0.507847
-0.551715 -0.0437153 0.119465
0.115627 0.165268 -0.451642
0.606114 0.12147 -0.331951
0.169535 -0.108119 0.295467
-0.17652 -0.438377 0.238929
-0.259568 -0.103123 0.0562052
0.0543996 0.38986 -0.212486
0.285162 0.286542 -0.156175
0.079762 -0.255049 0.13901
0.292147 -0.0204107 -0.395437
0.429594 -0.00480137 -0.0930216
-0.0900332 0.0181518 0.351672
-0.471953 0.0133413 0.258475
-0.132009 -0.011875 -0.230067
0.313968 0.428774 -0.424973
0.461682 0.100864 -0.0999695
-0.096758 -0.38132 0.377939
-0.507204 -0.280265 0.277781
-0.141869 0.249462 -0.247251
