# vtk DataFile Version 3.0
Velocity field
ASCII
DATASET STRUCTURED_POINTS
DIMENSIONS 5 5 5
SPACING 1.33333 1.33333 1.33333
ORIGIN 0 0 0
POINT_DATA 125
VECTORS velocity float
0 0.267171 0
0 0.0628486 0
0 -0.237602 0
0 -0.174635 0
0 0.155441 0
0 -0.141474 0.463996
0 -0.0332799 0.125792
0 0.125816 -0.475561
0 0.0924733 -0.349531
0 -0.0823098 0.269954
0 -0.333731 0.218298
0 -0.078506 0.0591818
0 0.296796 -0.22374
0 0.218141 -0.164446
0 -0.194166 0.127007
0 -0.0155384 -0.361292
0 -0.00365522 -0.097948
0 0.0138187 0.370297
0 0.0101566 0.272164
0 -0.00904032 -0.210201
0 0.32642 -0.388277
0 0.0767863 -0.0913374
0 -0.290294 0.345305
0 -0.213363 0.253795
0 0.189912 -0.225901
0 0.0628486 0
0 0.0188123 0
0 -0.0711207 0
0 -0.0522728 0
0 0.0365655 0
0.198589 -0.0332799 0.162947
0.300612 -0.00803538 0.0395156
-0.0630055 0.0303892 -0.149455
-0.330266 0.0223373 -0.109856
-0.0897339 -0.0193623 0.0948033
0.093431 -0.078506 0.0766626
0.141431 -0.018997 0.0185912
-0.0296426 0.0718474 -0.0703146
-0.155381 0.052811 -0.0516847
-0.0422175 -0.045675 0.0446026
-0.154632 -0.00365522 -0.126879
-0.234049 -0.000886181 -0.0307658
0.0490545 0.00335171 0.116361
0.257136 0.00246367 0.0855311
0.0698716 -0.00212662 -0.0738189
-0.166181 0.0767863 -0.136356
-0.244365 0.018063 -0.0320761
0.0512134 -0.0682881 0.121265
0.26846 -0.0501909 0.0891283
0.0750904 0.0446745 -0.0793325
0 -0.237602 0
0 -0.0711207 0
0 0.268875 0
0 0.19762 0
0 -0.138238 0
0.093431 0.125816 -0.387333
0.141431 0.0303892 -0.0937644
-0.0296426 -0.11493 0.354624
-0.155381 -0.0844788 0.260665
-0.0422175 0.0732003 -0.225352
0.0439569 0.296796 -0.182231
0.0665394 0.0718474 -0.0441139
-0.0139461 -0.271732 0.166842
-0.073103 -0.199735 0.122636
-0.0198623 0.172677 -0.106022
-0.0727503 0.0138187 0.301598
-0.110114 0.00335171 0.0730029
0.0230789 -0.0126769 -0.276101
0.120976 -0.00931817 -0.202947
0.0328728 0.00803978 0.175471
-0.0781841 -0.290294 0.324125
-0.114968 -0.0682881 0.0762464
0.0240947 0.258166 -0.288253
0.126304 0.189749 -0.211862
0.0353281 -0.168894 0.188577
0 -0.174635 0
0 -0.0522728 0
0 0.19762 0
0 0.145248 0
0 -0.101603 0
-0.154632 0.0924733 -0.345178
-0.234049 0.0223374 -0.0835649
0.0490545 -0.084479 0.316047
0.257136 -0.0620956 0.23231
0.0698716 0.0538012 -0.200826
-0.0727503 0.218141 -0.162398
-0.110114 0.0528112 -0.0393152
0.0230789 -0.199736 0.148693
0.120976 -0.146815 0.109296
0.0328728 0.126915 -0.0944835
0.120404 0.0101566 0.268774
0.182225 0.00246368 0.0650616
-0.0381925 -0.0093182 -0.246067
-0.200199 -0.00684938 -0.180871
-0.0544057 0.00590914 0.156374
0.129398 -0.213363 0.288849
0.190276 -0.0501909 0.0679481
-0.0398775 0.189749 -0.256881
-0.209037 0.139463 -0.188804
-0.0584694 -0.124135 0.168053
0 0.155441 0
0 0.0365655 0
0 -0.138238 0
0 -0.101603 0
0 0.090436 0
-0.166181 -0.0823098 0.224936
-0.244365 -0.0193624 0.0529133
0.0512134 0.0732003 -0.200041
0.26846 0.0538013 -0.147028
0.0750904 -0.0478881 0.130868
-0.0781841 -0.194166 0.105827
-0.114968 -0.045675 0.0248944
0.0240946 0.172677 -0.0941144
0.126304 0.126915 -0.0691729
0.0353281 -0.112966 0.0615703
0.129398 -0.00904032 -0.175147
0.190276 -0.00212662 -0.0412011
-0.0398775 0.00803979 0.155763
-0.209037 0.00590914 0.114484
-0.0584694 -0.00525969 -0.101901
0.139062 0.189912 -0.188229
0.204488 0.0446745 -0.0442785
-0.042856 -0.168894 0.167397
-0.224651 -0.124135 0.123035
-0.0628365 0.110492 -0.109512
