# vtk DataFile Version 3.0
Velocity field
ASCII
DATASET STRUCTURED_POINTS
DIMENSIONS 10 10 10
SPACING 0.631579 0.631579 0.631579
ORIGIN 0 0 0
POINT_DATA 1000
VECTORS velocity float
0 0.473857 0
0 0.382448 0
0 0.143488 0
0 -0.150831 0
0 -0.386958 0
0 -0.473794 0
0 -0.377837 0
0 -0.136107 0
0 0.158133 0
0 0.391365 0
0 0.291039 0.371183
0 0.234897 0.311327
0 0.0881293 0.116805
0 -0.0926391 -0.122782
0 -0.237667 -0.314998
0 -0.291001 -0.385686
0 -0.232064 -0.307573
0 -0.083596 -0.110796
0 0.0971243 0.128727
0 0.240373 0.306565
0 -0.00406328 0.599161
0 -0.00327946 0.502542
0 -0.0012304 0.188545
0 0.00129336 -0.198194
0 0.00331813 -0.508468
0 0.00406274 -0.622572
0 0.00323991 -0.496482
0 0.00116711 -0.178847
0 -0.00135598 0.207789
0 -0.00335592 0.494855
0 -0.297598 0.595978
0 -0.24019 0.499872
0 -0.0901154 0.187544
0 0.0947269 -0.197141
0 0.243023 -0.505767
0 0.297559 -0.619265
0 0.237294 -0.493845
0 0.0854799 -0.177897
0 -0.0993132 0.206686
0 -0.24579 0.492227
0 -0.476318 0.362863
0 -0.384434 0.304348
0 -0.144233 0.114186
0 0.151614 -0.12003
0 0.388967 -0.307937
0 0.476254 -0.37704
0 0.379799 -0.300679
0 0.136814 -0.108313
0 -0.158955 0.125841
0 -0.393397 0.299693
0 -0.47127 -0.0102482
0 -0.38036 -0.00859561
0 -0.142705 -0.00322492
0 0.150007 0.00338996
0 0.384846 0.00869695
0 0.471207 0.0106486
0 0.375774 0.00849197
0 0.135364 0.00305905
0 -0.15727 -0.00355408
0 -0.389228 -0.00846414
0 -0.284403 -0.379405
0 -0.229541 -0.318223
0 -0.0861198 -0.119392
0 0.0905268 0.125502
0 0.232247 0.321976
0 0.284365 0.394229
0 0.226773 0.314386
0 0.0816899 0.113251
0 -0.0949098 -0.131578
0 -0.234893 -0.313356
0 0.0121889 -0.602185
0 0.00983759 -0.505078
0 0.0036909 -0.189497
0 -0.00387977 0.199194
0 -0.0099536 0.511034
0 -0.0121872 0.625714
0 -0.00971897 0.498988
0 -0.00350104 0.179749
0 0.00406762 -0.208838
0 0.010067 -0.497353
0 0.304078 -0.592637
0 0.24542 -0.49707
0 0.0920775 -0.186492
0 -0.0967894 0.196035
0 -0.248314 0.502931
0 -0.304038 0.615792
0 -0.242461 0.491076
0 -0.0873411 0.176899
0 0.101476 -0.205527
0 0.251142 -0.489467
0 0.478652 -0.354445
0 0.386318 -0.286072
0 0.14494 -0.107329
0 -0.152357 0.112822
0 -0.390874 0.289445
0 -0.478588 0.354398
0 -0.38166 0.282622
0 -0.137484 0.101808
0 0.159734 -0.118284
0 0.395325 -0.292741
0 0.382448 0
0 0.324729 0
0 0.121833 0
0 -0.128068 0
0 -0.328559 0
0 -0.402289 0
0 -0.320814 0
0 -0.115566 0
0 0.134268 0
0 0.315869 0
0.0539695 0.234897 0.410795
0.146705 0.197038 0.344625
0.180747 0.0739959 0.129424
0.145011 -0.0777859 -0.136053
0.053328 -0.19956 -0.349046
-0.0589297 -0.244344 -0.427374
-0.148451 -0.194857 -0.340818
-0.180699 -0.0701952 -0.122777
-0.143192 0.0813922 0.142354
-0.0485561 0.194004 0.339282
0.0871172 -0.00327946 0.663103
0.23681 -0.00274137 0.556291
0.291761 -0.00102941 0.208915
0.234076 0.00108213 -0.219616
0.0860819 0.00277623 -0.563427
-0.0951241 0.00339921 -0.689864
-0.23963 0.00271078 -0.550146
-0.291684 0.000976528 -0.198185
-0.231138 -0.0011325 0.229786
-0.0783789 -0.00270855 0.547666
0.0866544 -0.24019 0.65958
0.235552 -0.201235 0.553336
0.290211 -0.0755711 0.207805
0.232833 0.0794421 -0.218449
0.0856245 0.203809 -0.560433
-0.0946189 0.249544 -0.686199
-0.238357 0.199004 -0.547223
-0.290134 0.0716896 -0.197133
-0.229911 -0.0831267 0.228566
-0.0779625 -0.198376 0.544757
0.0527597 -0.384434 0.401587
0.143417 -0.322085 0.336899
0.176696 -0.120955 0.126523
0.141761 0.12715 -0.133003
0.0521326 0.326203 -0.341221
-0.0576087 0.399406 -0.417793
-0.145124 0.318516 -0.333177
-0.176649 0.114742 -0.120024
-0.139981 -0.133048 0.139162
-0.0474676 -0.317509 0.331676
-0.00149008 -0.38036 -0.0113419
-0.00405045 -0.318672 -0.00951492
-0.00499037 -0.119673 -0.00357335
-0.00400369 0.125802 0.00375637
-0.00147237 0.322747 0.00963699
0.00162702 0.395174 0.0117996
0.00409869 0.31514 0.00940983
0.00498905 0.113526 0.0033898
0.00395346 -0.131638 -0.00393031
0.00134061 -0.314145 -0.00936742
-0.055165 -0.229541 -0.419895
-0.149954 -0.192312 -0.352258
-0.184751 -0.0722205 -0.132291
-0.148223 0.0759193 0.139067
-0.0545092 0.194772 0.356777
0.0602349 0.23848 0.43684
0.15174 0.190181 0.348368
0.184702 0.0685109 0.125496
0.146363 -0.0794413 -0.145507
0.0496317 -0.189581 -0.346797
-0.0875568 0.00983759 -0.666449
-0.238003 0.00823813 -0.559093
-0.293231 0.00309364 -0.209968
-0.235256 -0.00325209 0.220723
-0.0865158 -0.00834327 0.566267
0.0956032 -0.0102155 0.693341
0.240837 -0.00814661 0.552918
0.293153 -0.00293474 0.199183
0.232303 0.0034031 -0.230944
0.0787744 0.008125 -0.55043
-0.0861686 0.24542 -0.655882
-0.234117 0.20537 -0.549976
-0.288442 0.0771203 -0.20654
-0.231413 -0.0810701 0.217118
-0.0851023 -0.207986 0.55702
0.0940417 -0.254659 0.682019
0.236904 -0.203083 0.543889
0.288366 -0.0731587 0.195932
0.22851 0.0848386 -0.227182
0.0775254 0.202696 -0.541703
-0.0515359 0.386318 -0.392271
-0.134725 0.311796 -0.316601
-0.165936 0.116981 -0.118783
-0.133128 -0.122967 0.124862
-0.0489578 -0.315473 0.320334
0.0541003 -0.386267 0.392219
0.136286 -0.308036 0.312783
0.165892 -0.110963 0.112673
0.131495 0.12892 -0.130907
0.0463666 0.319065 -0.323983
0 0.143488 0
0 0.121833 0
0 0.0457097 0
0 -0.0480488 0
0 -0.12327 0
0 -0.150932 0
0 -0.120364 0
0 -0.0433584 0
0 0.0503751 0
0 0.118509 0
0.0871172 0.0881293 0.29192
0.23681 0.0739959 0.24482
0.291761 0.0277895 0.091942
0.234076 -0.0292129 -0.0966513
0.0860819 -0.074946 -0.24796
-0.0951241 -0.0917643 -0.303604
-0.23963 -0.0731794 -0.242115
-0.291684 -0.0263622 -0.0872203
-0.231138 0.030565 0.101127
-0.0783789 0.0727871 0.241101
0.140624 -0.0012304 0.471215
0.382257 -0.00102941 0.395186
0.47096 -0.000386566 0.148412
0.377846 0.000406362 -0.156014
0.138953 0.00104253 -0.400255
-0.153548 0.00127649 -0.490076
-0.386808 0.00101796 -0.390821
-0.470834 0.000366708 -0.14079
-0.373102 -0.00042525 0.163238
-0.126519 -0.0010162 0.389183
0.139877 -0.0901154 0.468711
0.380227 -0.075571 0.393086
0.468457 -0.0283807 0.147624
0.375838 0.0298344 -0.155185
0.138214 0.0765404 -0.398129
-0.152732 0.0937169 -0.487472
-0.384754 0.0747362 -0.388744
-0.468333 0.0269231 -0.140042
-0.371119 -0.031216 0.162371
-0.125847 -0.0744275 0.387115
0.0851643 -0.144233 0.285376
0.231501 -0.120955 0.239331
0.285222 -0.0454245 0.089881
0.228829 0.0477512 -0.0944852
0.0841519 0.122506 -0.242402
-0.0929914 0.149997 -0.296797
-0.234258 0.119618 -0.236689
-0.285146 0.0430916 -0.0852648
-0.225957 -0.0499624 0.09886
-0.0766219 -0.119124 0.235696
-0.00240527 -0.142705 -0.00805978
-0.00653821 -0.119673 -0.00675937
-0.00805539 -0.0449431 -0.00253848
-0.00646274 0.0472453 0.0026685
-0.00237667 0.121208 0.0068461
0.00262632 0.148407 0.0083824
0.00661607 0.118351 0.00668468
0.00805325 0.0426349 0.0024081
0.00638166 -0.049433 -0.00279207
0.00216401 -0.117862 -0.00665668
-0.0890469 -0.0861198 -0.298386
-0.242055 -0.0722205 -0.250242
-0.298223 -0.0271224 -0.093979
-0.239261 0.0285116 0.0987924
-0.0879885 0.0731467 0.253453
0.0972308 0.0895614 0.310329
0.244938 0.0714228 0.247478
0.298144 0.0257294 0.0891518
0.236258 -0.029832 -0.103367
0.080115 -0.0711275 -0.246441
-0.141334 0.0036909 -0.473593
-0.384183 0.00309364 -0.397177
-0.473333 0.00116179 -0.14916
-0.379749 -0.0012213 0.156801
-0.139653 -0.00313324 0.402272
0.154322 -0.00383637 0.492545
0.388757 -0.00305939 0.39279
0.473207 -0.00110212 0.141499
0.374982 0.00127792 -0.164061
0.127157 0.00304836 -0.391147
-0.139093 0.0920775 -0.466084
-0.37791 0.0771203 -0.390699
-0.465601 0.0289611 -0.146725
-0.373546 -0.0304445 0.15424
-0.137371 -0.0781056 0.395704
0.151801 -0.095633 0.484502
0.382409 -0.0762645 0.386376
0.465477 -0.0274736 0.139189
0.368859 0.0318575 -0.161388
0.125141 0.076048 -0.384945
-0.0831889 0.14494 -0.278756
-0.217472 0.116981 -0.224983
-0.267852 0.0438891 -0.0844099
-0.214894 -0.0461351 0.0887294
-0.0790273 -0.11836 0.227636
0.0873284 -0.144921 0.278719
0.219992 -0.11557 0.22227
0.267781 -0.0416315 0.0800679
0.212258 0.0483687 -0.0930253
0.0748446 0.119708 -0.230229
0 -0.150831 0
0 -0.128068 0
0 -0.0480488 0
0 0.0505076 0
0 0.129578 0
0 0.158656 0
0 0.126523 0
0 0.0455772 0
0 -0.052953 0
0 -0.124573 0
0.0866544 -0.0926391 0.0604192
0.235552 -0.0777859 0.0506702
0.290211 -0.0292129 0.0190292
0.232833 0.0307092 -0.0200039
0.0856245 0.0787851 -0.0513203
-0.0946189 0.0964646 -0.0628368
-0.238357 0.0769277 -0.0501103
-0.290134 0.0277126 -0.0180519
-0.229911 -0.0321304 0.0209301
-0.0779625 -0.0765119 0.0499011
0.139877 0.00129336 0.0975283
0.380227 0.00108213 0.0817911
0.468457 0.000406362 0.0307168
0.375838 -0.000427176 -0.0322901
0.138214 -0.00109592 -0.0828405
-0.152732 -0.00134186 -0.101431
-0.384754 -0.00107009 -0.0808878
-0.468333 -0.000385487 -0.0291391
-0.371119 0.000447029 0.0337853
-0.125847 0.0010682 0.08055
0.139134 0.0947269 0.0970102
0.378207 0.0794421 0.0813566
0.465968 0.0298344 0.0305536
0.373841 -0.0313626 -0.0321186
0.13748 -0.0804609 -0.0824004
-0.151921 -0.0985169 -0.100892
-0.38271 -0.0785646 -0.0804581
-0.465844 -0.0283021 -0.0289843
-0.369148 0.0328148 0.0336059
-0.125178 0.0782362 0.0801221
0.0847119 0.151614 0.0590649
0.230272 0.12715 0.0495342
0.283707 0.0477512 0.0186026
0.227614 -0.0501969 -0.0195555
0.0837049 -0.128781 -0.0501696
-0.0924973 -0.157681 -0.0614282
-0.233014 -0.125745 -0.0489871
-0.283632 -0.0452986 -0.0176472
-0.224757 0.0525214 0.020461
-0.0762149 0.12522 0.0487825
-0.00239249 0.150007 -0.00166815
-0.00650347 0.125802 -0.00139898
-0.00801258 0.0472453 -0.000525388
-0.00642844 -0.049665 0.0005523
-0.00236405 -0.127416 0.00141693
0.00261237 -0.156009 0.0017349
0.00658093 -0.124413 0.00138353
0.00801046 -0.0448186 0.000498403
0.00634774 0.0519648 -0.000577873
0.00215251 0.123893 -0.00137775
-0.0885739 0.0905268 -0.0617576
-0.240769 0.0759193 -0.0517924
-0.296639 0.0285116 -0.0194507
-0.237991 -0.029972 0.0204469
-0.0875213 -0.0768934 0.0524569
0.0967142 -0.0941491 0.0642286
0.243637 -0.0750809 0.0512206
0.29656 -0.0270472 0.0184517
0.235003 0.0313599 -0.0213938
0.0796894 0.0747673 -0.0510064
-0.140583 -0.00387977 -0.0980205
-0.382142 -0.00325209 -0.0822032
-0.470818 -0.0012213 -0.0308715
-0.377732 0.00128385 0.0324528
-0.138911 0.00329373 0.0832579
0.153502 0.00403286 0.101942
0.386692 0.00321609 0.0812953
0.470693 0.00115857 0.029286
0.372989 -0.00134337 -0.0339556
0.126482 -0.00320435 -0.0809565
-0.138354 -0.0967894 -0.0964663
-0.375902 -0.08107 -0.0808629
-0.463127 -0.0304445 -0.0303675
-0.371561 0.0320037 0.0319229
-0.136642 0.0821058 0.0818984
0.150994 0.100531 0.100277
0.380377 0.0801706 0.0799682
0.463004 0.0288807 0.0288078
0.366899 -0.033489 -0.0334025
0.124476 -0.0799396 -0.0796729
-0.0827469 -0.152357 -0.0576948
-0.216316 -0.122967 -0.0465652
-0.266429 -0.0461351 -0.0174705
-0.213752 0.0484959 0.0183645
-0.0786074 0.124417 0.0471143
0.0868644 0.152337 0.0576871
0.218823 0.121484 0.0460038
0.266359 0.0437619 0.0165718
0.211131 -0.0508439 -0.0192536
0.074447 -0.125834 -0.0476509
0 -0.386958 0
0 -0.328559 0
0 -0.12327 0
0 0.129578 0
0 0.332433 0
0 0.407033 0
0 0.324597 0
0 0.116929 0
0 -0.135851 0
0 -0.319594 0
0.0527597 -0.237667 -0.194391
0.143417 -0.19956 -0.163024
0.176696 -0.074946 -0.061224
0.141761 0.0787851 0.0643599
0.0521326 0.202123 0.165116
-0.0576087 0.247481 0.202169
-0.145124 0.197359 0.161224
-0.176649 0.0710969 0.0580794
-0.139981 -0.0824308 -0.0673402
-0.0474676 -0.196292 -0.160551
0.0851643 0.00331813 -0.313785
0.231501 0.00277623 -0.263153
0.285222 0.00104253 -0.0988273
0.228829 -0.00109592 0.103889
0.0841519 -0.0028116 0.266529
-0.0929914 -0.00344257 0.326339
-0.234258 -0.00274532 0.260246
-0.285146 -0.000988972 0.0937516
-0.225957 0.00114685 -0.1087
-0.0766219 0.00274048 -0.25916
0.0847119 0.243023 -0.312118
0.230272 0.203809 -0.261755
0.283707 0.0765404 -0.0983022
0.227614 -0.0804609 0.103338
0.0837049 -0.206424 0.265113
-0.0924973 -0.252746 0.324606
-0.233014 -0.201557 0.258864
-0.283632 -0.0726093 0.0932534
-0.224757 0.0841866 -0.108122
-0.0762149 0.200716 -0.257783
0.051577 0.388967 -0.190034
0.140201 0.326203 -0.159371
0.172735 0.122506 -0.0598515
0.138583 -0.128781 0.0629173
0.0509641 -0.330388 0.161414
-0.0563172 -0.40453 0.197637
-0.141871 -0.3226 0.15761
-0.17269 -0.116214 0.0567775
-0.136844 0.134744 -0.0658305
-0.0464036 0.321253 -0.156952
-0.00145667 0.384846 0.00536706
-0.00395966 0.322747 0.00450104
-0.00487849 0.121208 0.00169037
-0.00391394 -0.127416 -0.00177694
-0.00143935 -0.326887 -0.00455878
0.00159056 -0.400242 -0.00558179
0.0040068 -0.319183 -0.00445133
0.00487719 -0.114983 -0.00160356
0.00386483 0.133316 0.00185923
0.00131056 0.317849 0.00443273
-0.0539284 0.232247 0.198697
-0.146593 0.194772 0.166635
-0.180609 0.0731467 0.0625802
-0.144901 -0.0768934 -0.0657854
-0.0532874 -0.197271 -0.168773
0.0588848 -0.241539 -0.206647
0.148338 -0.192621 -0.164795
0.180562 -0.06939 -0.0593661
0.143083 0.0804541 0.0688317
0.0485191 0.191816 0.164107
-0.0855941 -0.0099536 0.315369
-0.232667 -0.00834327 0.264479
-0.286659 -0.00313324 0.0993251
-0.229982 0.00329373 -0.104413
-0.0845759 0.00845008 -0.267872
0.0934602 0.0103463 -0.327983
0.235439 0.00825093 -0.261557
0.286583 0.00297232 -0.094224
0.227096 -0.00344642 0.109248
0.0770086 -0.00822081 0.260467
-0.084237 -0.248314 0.310368
-0.228869 -0.207986 0.260166
-0.281977 -0.0781056 0.0977035
-0.226225 0.0821058 -0.102708
-0.0831944 0.210643 -0.263498
0.0919333 0.257913 -0.322629
0.231593 0.205679 -0.257287
0.281902 0.0740935 -0.0926852
0.223387 -0.0859163 0.107468
0.0757876 -0.205086 0.256338
-0.0503806 -0.390874 0.185626
-0.131705 -0.315473 0.149818
-0.162216 -0.11836 0.0562091
-0.130143 0.124417 -0.0590855
-0.0478603 0.319193 -0.151585
0.0528876 0.390822 -0.185601
0.133231 0.311669 -0.148011
0.162173 0.112272 -0.0533178
0.128547 -0.130441 0.0619462
0.0453272 -0.322828 0.153311
0 -0.473794 0
0 -0.40229 0
0 -0.150932 0
0 0.158656 0
0 0.407033 0
0 0.498374 0
0 0.397439 0
0 0.143168 0
0 -0.166337 0
0 -0.391313 0
-0.00149008 -0.291001 -0.374204
-0.00405045 -0.244344 -0.313824
-0.00499037 -0.0917643 -0.117857
-0.00400369 0.0964646 0.123893
-0.00147237 0.247481 0.31785
0.00162702 0.303017 0.389176
0.00409869 0.241647 0.310357
0.00498905 0.0870516 0.111803
0.00395346 -0.100929 -0.12963
0.00134061 -0.240341 -0.309061
-0.00240527 0.00406274 -0.604038
-0.00653821 0.00339921 -0.506571
-0.00805539 0.00127649 -0.190243
-0.00646274 -0.00134186 0.199987
-0.00237667 -0.00344257 0.513069
0.00262632 -0.00421509 0.628208
0.00661607 -0.0033614 0.500976
0.00805325 -0.0012109 0.180472
0.00638166 0.00140422 -0.209248
0.00216401 0.00335547 -0.498883
-0.00239249 0.297559 -0.600829
-0.00650347 0.249544 -0.50388
-0.00801258 0.0937169 -0.189233
-0.00642844 -0.0985169 0.198925
-0.00236405 -0.252746 0.510344
0.00261237 -0.309464 0.624869
0.00658093 -0.246788 0.498314
0.00801046 -0.0889032 0.179513
0.00634774 0.103079 -0.208136
0.00215251 0.245758 -0.496233
-0.00145667 0.476254 -0.365816
-0.00395966 0.399406 -0.306788
-0.00487849 0.149997 -0.115215
-0.00391395 -0.157681 0.121116
-0.00143935 -0.40453 0.310724
0.00159056 -0.495309 0.380453
0.0040068 -0.394995 0.303399
0.00487719 -0.142294 0.109297
0.00386483 0.164981 -0.126724
0.00131056 0.393345 -0.302133
4.11403e-05 0.471207 0.0103316
0.00011183 0.395173 0.00866451
0.000137782 0.148407 0.00325395
0.000110541 -0.156009 -0.00342065
4.06513e-05 -0.400242 -0.00877565
-4.49208e-05 -0.49006 -0.010745
-0.000113164 -0.390809 -0.00856884
-0.000137746 -0.140786 -0.00308684
-0.000109153 0.163233 0.00357903
-3.70137e-05 0.389176 0.00853303
0.00152308 0.284365 0.382493
0.00414016 0.23848 0.320775
0.00510091 0.0895614 0.120467
0.00409239 -0.0941491 -0.126638
0.00150497 -0.241539 -0.324889
-0.00166306 -0.295742 -0.397796
-0.00418949 -0.235847 -0.317233
-0.00509955 -0.0849615 -0.11428
-0.00404103 0.0985085 0.132501
-0.00137031 0.234861 0.315907
0.00241741 -0.0121872 0.607086
0.00657116 -0.0102155 0.509123
0.00809599 -0.00383637 0.191202
0.00649529 0.00403286 -0.200995
0.00238865 0.0103463 -0.515655
-0.00263955 0.0126682 -0.631374
-0.0066494 0.0101025 -0.503501
-0.00809385 0.00363932 -0.181381
-0.0064138 -0.00421982 0.210302
-0.00217493 -0.0100656 0.501401
0.00237908 -0.304038 0.597461
0.00646387 -0.254659 0.50082
0.00796374 -0.095633 0.18808
0.00638925 0.100531 -0.197713
0.00234964 0.257913 -0.507236
-0.00259644 0.315791 -0.621063
-0.00654078 0.251834 -0.495279
-0.00796162 0.0907207 -0.17842
-0.00630905 -0.105197 0.206877
-0.00214044 -0.251109 0.493451
0.00142288 -0.478588 0.357331
0.00371969 -0.386267 0.2884
0.00458142 -0.144921 0.108203
0.00367559 0.152337 -0.11374
0.0013517 0.390822 -0.291801
-0.00149369 0.478525 -0.357283
-0.0037628 0.381609 -0.284923
-0.0045802 0.137466 -0.102637
-0.00363052 -0.159712 0.119247
-0.00128016 -0.395273 0.295124
0 -0.377837 0
0 -0.320814 0
0 -0.120364 0
0 0.126523 0
0 0.324597 0
0 0.397439 0
0 0.316946 0
0 0.114173 0
0 -0.132649 0
0 -0.31206 0
-0.055165 -0.232064 -0.409647
-0.149954 -0.194857 -0.343547
-0.184751 -0.0731794 -0.129019
-0.148223 0.0769277 0.135627
-0.0545092 0.197359 0.347955
0.0602349 0.241647 0.426037
0.15174 0.192707 0.339751
0.184702 0.0694209 0.122393
0.146363 -0.0804878 -0.141908
0.0496317 -0.191665 -0.338333
-0.0890469 0.00323991 -0.661249
-0.242055 0.00271078 -0.55455
-0.298223 0.00101796 -0.208261
-0.239261 -0.00107009 0.218929
-0.0879884 -0.00274532 0.561664
0.0972308 -0.0033614 0.687706
0.244938 -0.00268063 0.548424
0.298144 -0.000965668 0.197565
0.236259 0.00111982 -0.229067
0.080115 0.00267589 -0.546134
-0.0885739 0.237294 -0.657736
-0.240769 0.199004 -0.551603
-0.296639 0.0747362 -0.207155
-0.237991 -0.0785646 0.217766
-0.0875213 -0.201557 0.55868
0.0967142 -0.246788 0.684053
0.243637 -0.196806 0.545511
0.29656 -0.070898 0.196516
0.235003 0.0822021 -0.22785
0.0796894 0.195984 -0.543233
-0.0539284 0.379799 -0.400464
-0.146593 0.318516 -0.335844
-0.180609 0.119618 -0.126127
-0.144901 -0.125745 0.132587
-0.0532874 -0.3226 0.340153
0.0588848 -0.394995 0.416486
0.148338 -0.314998 0.332135
0.180562 -0.113475 0.119649
0.143083 0.131568 -0.138727
0.0485191 0.313681 -0.330749
0.00152308 0.375774 0.0113102
0.00414016 0.31514 0.00948516
0.00510091 0.118351 0.00356215
0.00409239 -0.124413 -0.00374462
0.00150497 -0.319183 -0.00960682
-0.00166306 -0.390809 -0.0117627
-0.00418949 -0.311659 -0.00938042
-0.00509955 -0.112272 -0.00337921
-0.00404103 0.130174 0.00391801
-0.00137031 0.310357 0.00934122
0.0563869 0.226773 0.418721
0.153276 0.190181 0.351157
0.188844 0.0714228 0.131877
0.151507 -0.0750809 -0.138632
0.0557167 -0.192621 -0.35566
-0.0615693 -0.235847 -0.435473
-0.155101 -0.188081 -0.347279
-0.188794 -0.0677543 -0.125104
-0.149605 0.0785577 0.145051
-0.050731 0.187295 0.345827
0.0894963 -0.00971897 0.664585
0.243275 -0.00814661 0.557344
0.299727 -0.00305939 0.209311
0.240466 0.00321609 -0.220033
0.0884317 0.00825093 -0.564495
-0.0977208 0.0101025 -0.691172
-0.246172 0.0080564 -0.551188
-0.299647 0.00290224 -0.19856
-0.237449 -0.00336517 0.230221
-0.0805193 -0.00802703 0.54889
0.0880773 -0.242461 0.654048
0.239302 -0.203083 0.548254
0.294831 -0.0762645 0.205894
0.23654 0.0801706 -0.216439
0.0869877 0.205679 -0.555277
-0.0961246 0.251834 -0.679885
-0.242151 0.20083 -0.542187
-0.294752 0.0723472 -0.195318
-0.233571 -0.0838912 0.22647
-0.0792427 -0.200252 0.540188
0.0526774 -0.38166 0.391175
0.137709 -0.308036 0.315715
0.169611 -0.11557 0.118451
0.136076 0.121484 -0.124513
0.0500422 0.311669 -0.319438
-0.0552987 0.381609 -0.391123
-0.139305 0.304322 -0.311909
-0.169566 0.109625 -0.112358
-0.134408 -0.127366 0.130541
-0.0473936 -0.315218 0.323076
0 -0.136107 0
0 -0.115566 0
0 -0.0433584 0
0 0.0455772 0
0 0.116929 0
0 0.143168 0
0 0.114173 0
0 0.0411281 0
0 -0.0477839 0
0 -0.112413 0
-0.0875568 -0.083596 -0.287044
-0.238003 -0.0701953 -0.240728
-0.293231 -0.0263623 -0.0904059
-0.235256 0.0277126 0.0950369
-0.0865158 0.071097 0.243817
0.0956032 0.0870517 0.298531
0.240837 0.069421 0.23807
0.293153 0.0250083 0.0857627
0.232303 -0.0289949 -0.0994371
0.0787744 -0.069043 -0.237074
-0.141334 0.00116711 -0.463344
-0.384183 0.000976528 -0.388582
-0.473333 0.000366709 -0.145932
-0.379749 -0.000385487 0.153407
-0.139653 -0.000988972 0.393568
0.154322 -0.0012109 0.481887
0.388757 -0.000965669 0.384291
0.473207 -0.000347873 0.138437
0.374982 0.000403405 -0.160511
0.127157 0.000963928 -0.382682
-0.140583 0.0854799 -0.460883
-0.382142 0.0716897 -0.386518
-0.470818 0.0269231 -0.145157
-0.377732 -0.0283021 0.152592
-0.138911 -0.0726094 0.391477
0.153502 -0.0889033 0.479327
0.386692 -0.070898 0.38225
0.470693 -0.0255404 0.137702
0.372989 0.0296126 -0.159658
0.126482 0.070599 -0.38065
-0.0855941 0.136814 -0.280609
-0.232667 0.114742 -0.235332
-0.286659 0.0430916 -0.0883792
-0.229982 -0.0452987 0.0929061
-0.0845759 -0.116214 0.238352
0.0934602 -0.142294 0.291839
0.235439 -0.113475 0.232733
0.286583 -0.0408783 0.08384
0.227096 0.0473962 -0.0972082
0.0770086 0.112996 -0.231759
0.00241741 0.135364 0.00792516
0.00657116 0.113526 0.00664642
0.00809599 0.0426349 0.00249607
0.00649529 -0.0448186 -0.00262391
0.00238865 -0.114983 -0.00673166
-0.00263955 -0.140786 -0.0082423
-0.0066494 -0.112272 -0.00657301
-0.00809384 -0.0404451 -0.00236787
-0.0064138 0.0468939 0.00274543
-0.00217493 0.111799 0.0065455
0.0894963 0.0816899 0.293402
0.243275 0.0685109 0.246061
0.299727 0.0257295 0.0924084
0.240466 -0.0270472 -0.0971416
0.0884317 -0.0693901 -0.249218
-0.0977208 -0.0849616 -0.305144
-0.246172 -0.0677543 -0.243343
-0.299647 -0.0244079 -0.0876626
-0.237449 0.0282996 0.10164
-0.0805193 0.0674688 0.242325
0.142047 -0.00350104 0.465683
0.386118 -0.00293474 0.39054
0.475718 -0.00110212 0.146668
0.381662 0.00115857 -0.15418
0.140356 0.00297232 -0.395551
-0.155099 0.00363932 -0.484315
-0.390716 0.00290225 -0.386227
-0.475591 0.00104551 -0.139135
-0.376872 -0.00121227 0.16132
-0.127799 -0.00289156 0.384614
0.139795 -0.0873411 0.458299
0.379814 -0.0731588 0.384171
0.467947 -0.0274736 0.144273
0.375428 0.0288807 -0.151663
0.138064 0.0740936 -0.389092
-0.152566 0.0907209 -0.476408
-0.384334 0.0723472 -0.379922
-0.467823 0.0260624 -0.136863
-0.370717 -0.0302209 0.158692
-0.125773 -0.0721362 0.378516
0.0836087 -0.137484 0.2741
0.218569 -0.110963 0.221225
0.269204 -0.0416315 0.083
0.215978 0.0437619 -0.0872474
0.0794261 0.112272 -0.223834
-0.0877691 0.137466 -0.274064
-0.221102 0.109625 -0.218558
-0.269132 0.03949 -0.0787306
-0.213329 -0.0458807 0.0914716
-0.0752223 -0.11355 0.226383
0 0.158133 0
0 0.134268 0
0 0.0503751 0
0 -0.052953 0
0 -0.135851 0
0 -0.166337 0
0 -0.132649 0
0 -0.0477839 0
0 0.0555167 0
0 0.130604 0
-0.0861686 0.0971243 -0.0536979
-0.234117 0.0813897 -0.0451667
-0.288442 0.030564 -0.0169643
-0.231413 -0.0321294 0.0178334
-0.0851023 -0.0824282 0.0457515
0.0940418 -0.100926 0.0560185
0.236904 -0.0804853 0.0446731
0.288366 -0.028994 0.0160932
0.22851 0.0336215 -0.0186547
0.0775254 0.0802163 -0.0443498
-0.139093 -0.00135598 -0.0866787
-0.37791 -0.00113246 -0.0729077
-0.465601 -0.000425236 -0.0273837
-0.373546 0.000447013 0.0287865
-0.137371 0.00114681 0.0738518
0.151801 0.00140417 0.0904246
0.382409 0.00111979 0.072111
0.465477 0.000403391 0.0259775
0.368859 -0.000467855 -0.0301123
0.125141 -0.00111992 -0.0715892
-0.138354 -0.0993132 -0.0862183
-0.375902 -0.083124 -0.0725204
-0.463127 -0.031215 -0.0272382
-0.371561 0.0328137 0.0286335
-0.136642 0.0841838 0.0734594
0.150994 0.103076 0.0899443
0.380377 0.0821995 0.0717281
0.463004 0.0296116 0.0258395
0.366899 -0.0343386 -0.0299524
0.124476 -0.0820241 -0.0712089
-0.084237 -0.158955 -0.0524942
-0.228869 -0.133043 -0.0441542
-0.281977 -0.0499608 -0.016584
-0.226225 0.0525196 0.0174336
-0.0831944 0.13474 0.044726
0.0919333 0.164976 0.0547629
0.231593 0.131564 0.0436718
0.281902 0.0473946 0.0157325
0.223387 -0.0549603 -0.0182365
0.0757876 -0.131283 -0.0433557
0.00237908 -0.15727 0.00148258
0.00646387 -0.131634 0.00124703
0.00796374 -0.0494314 0.000468377
0.00638925 0.0519631 -0.00049237
0.00234964 0.133312 -0.00126318
-0.00259644 0.163228 -0.00154665
-0.00654078 0.13017 -0.00123341
-0.00796163 0.0468923 -0.000444326
-0.00630906 -0.0543778 0.000515048
-0.00214044 -0.129891 0.00122448
0.0880773 -0.0949098 0.0548873
0.239302 -0.0794388 0.0461672
0.294831 -0.029831 0.0173401
0.23654 0.0313589 -0.0182283
0.0869877 0.0804515 -0.0467651
-0.0961245 0.0985053 -0.0572594
-0.242151 0.0785552 -0.0456626
-0.294752 0.0282986 -0.0164497
-0.233571 -0.0328161 0.019068
-0.0792427 -0.0783872 0.0453322
0.139795 0.00406762 0.0871162
0.379814 0.003403 0.0732749
0.467947 0.00127788 0.0275217
0.375428 -0.00134332 -0.0289314
0.138064 -0.00344631 -0.0742238
-0.152566 -0.00421968 -0.0908802
-0.384334 -0.00336506 -0.0724742
-0.467823 -0.00121223 -0.0261084
-0.370717 0.00140581 0.030264
-0.125773 0.0033595 0.0719505
0.137578 0.101476 0.0857349
0.373616 0.084836 0.0720763
0.460307 0.0318565 0.0270708
0.369298 -0.033488 -0.0284575
0.135809 -0.0859136 -0.0730079
-0.150075 -0.105193 -0.0893914
-0.378061 -0.0838885 -0.0712871
-0.460185 -0.0302199 -0.0256807
-0.364667 0.0350474 0.0297695
-0.123778 0.08381 0.0708097
0.082283 0.159734 0.0512765
0.215104 0.12892 0.0413851
0.264936 0.0483687 0.015527
0.212554 -0.0508439 -0.0163215
0.0781667 -0.130441 -0.0418731
-0.0863775 -0.159712 -0.0512697
-0.217597 -0.127366 -0.0408861
-0.264865 -0.0458807 -0.0147283
-0.209947 0.0533056 0.0171118
-0.0740296 0.131926 0.04235
0 0.391365 0
0 0.315869 0
0 0.118509 0
0 -0.124573 0
0 -0.319594 0
0 -0.391313 0
0 -0.31206 0
0 -0.112413 0
0 0.130604 0
0 0.323234 0
-0.0515359 0.240373 0.200366
-0.134725 0.194004 0.161714
-0.165936 0.0727872 0.0606725
-0.133128 -0.0765119 -0.0637773
-0.0489577 -0.196292 -0.163621
0.0541003 -0.240341 -0.200339
0.136286 -0.191665 -0.159764
0.165892 -0.0690431 -0.0575515
0.131495 0.0802163 0.0668651
0.0463666 0.198528 0.165485
-0.0831889 -0.00335592 0.323429
-0.217472 -0.00270855 0.261038
-0.267852 -0.0010162 0.097937
-0.214893 0.0010682 -0.102949
-0.0790272 0.00274049 -0.264116
0.0873283 0.00335547 -0.323386
0.219992 0.00267589 -0.25789
0.267781 0.000963928 -0.0928993
0.212258 -0.00111992 0.107933
0.0748446 -0.0027717 0.267124
-0.0827469 -0.24579 0.32171
-0.216316 -0.198376 0.259651
-0.266429 -0.0744275 0.0974168
-0.213752 0.0782362 -0.102402
-0.0786074 0.200716 -0.262713
0.0868644 0.245758 -0.321668
0.218823 0.195985 -0.256521
0.266359 0.070599 -0.0924058
0.211131 -0.0820241 0.10736
0.074447 -0.203002 0.265705
-0.0503806 -0.393397 0.195874
-0.131705 -0.317509 0.158089
-0.162216 -0.119124 0.0593124
-0.130143 0.12522 -0.0623476
-0.0478603 0.321253 -0.159953
0.0528876 0.393345 -0.195848
0.133231 0.313681 -0.156183
0.162173 0.112996 -0.0562614
0.128547 -0.131283 0.0653662
0.0453272 -0.324912 0.161775
0.00142288 -0.389228 -0.00553201
0.00371969 -0.314145 -0.00446486
0.00458141 -0.117862 -0.00167514
0.00367559 0.123893 0.00176086
0.0013517 0.317849 0.00451751
-0.00149369 0.389177 0.00553127
-0.0037628 0.310357 0.00441102
-0.0045802 0.111799 0.00158897
-0.00363052 -0.129892 -0.00184612
-0.00128016 -0.321469 -0.00456896
0.0526774 -0.234893 -0.204804
0.137709 -0.189581 -0.165296
0.169611 -0.0711275 -0.0620164
0.136076 0.0747673 0.06519
0.0500422 0.191816 0.167246
-0.0552987 0.234861 0.204777
-0.139305 0.187295 0.163303
-0.169566 0.0674688 0.0588263
-0.134408 -0.0783873 -0.0683462
-0.0473936 -0.194001 -0.16915
0.0836087 0.010067 -0.325061
0.218569 0.008125 -0.262355
0.269204 0.00304836 -0.0984313
0.215978 -0.00320436 0.103468
0.079426 -0.00822081 0.265449
-0.087769 -0.0100656 0.325018
-0.221102 -0.00802703 0.259192
-0.269132 -0.00289156 0.0933681
-0.213329 0.0033595 -0.108478
-0.0752223 0.00831443 -0.268472
0.082283 0.251142 -0.319907
0.215104 0.202696 -0.258196
0.264936 0.076048 -0.0968706
0.212554 -0.0799396 0.101828
0.0781667 -0.205086 0.26124
-0.0863774 -0.251109 0.319864
-0.217596 -0.200252 0.255082
-0.264865 -0.0721362 0.0918877
-0.209947 0.08381 -0.106758
-0.0740296 0.207422 -0.264216
0.049212 0.395325 -0.191331
0.12865 0.319065 -0.154422
0.158453 0.119708 -0.0579366
0.127125 -0.125834 0.0609014
0.0467501 -0.322828 0.156243
-0.0516608 -0.395273 0.191305
-0.130141 -0.315218 0.15256
-0.158411 -0.11355 0.0549564
-0.125566 0.131926 -0.06385
-0.0442758 0.326505 -0.158023
