# vtk DataFile Version 3.0
Velocity field
ASCII
DATASET STRUCTURED_POINTS
DIMENSIONS 10 10 10
SPACING 0.631579 0.631579 0.631579
ORIGIN 0 0 0
POINT_DATA 1000
VECTORS velocity float
0 0.744594 0
0 0.600959 0
0 0.22547 0
0 -0.237008 0
0 -0.608046 0
0 -0.744495 0
0 -0.593713 0
0 -0.213872 0
0 0.248483 0
0 0.614971 0
0 0.457324 0.583258
0 0.369105 0.489203
0 0.138482 0.183541
0 -0.145568 -0.192933
0 -0.373457 -0.494972
0 -0.457263 -0.606047
0 -0.364654 -0.483305
0 -0.131358 -0.1741
0 0.152616 0.202274
0 0.37771 0.481721
0 -0.00638482 0.941491
0 -0.00515317 0.789668
0 -0.00193338 0.29627
0 0.00203232 -0.311431
0 0.00521393 -0.79898
0 0.00638397 -0.978277
0 0.00509103 -0.780147
0 0.00183393 -0.28103
0 -0.00213071 0.326509
0 -0.00527331 0.77759
0 -0.46763 0.936489
0 -0.377423 0.785474
0 -0.141603 0.294696
0 0.148849 -0.309777
0 0.381873 -0.794735
0 0.467568 -0.97308
0 0.372872 -0.776002
0 0.134319 -0.279537
0 -0.156056 0.324775
0 -0.386222 0.77346
0 -0.748461 0.570183
0 -0.60408 0.478237
0 -0.226641 0.179426
0 0.238238 -0.188608
0 0.611203 -0.483877
0 0.748361 -0.592461
0 0.596796 -0.47247
0 0.214982 -0.170197
0 -0.249773 0.19774
0 -0.618164 0.470922
0 -0.740529 -0.0161035
0 -0.597678 -0.0135067
0 -0.224239 -0.00506748
0 0.235714 0.0053268
0 0.604726 0.013666
0 0.740431 0.0167327
0 0.590472 0.0133438
0 0.212704 0.00480682
0 -0.247126 -0.0055847
0 -0.611613 -0.0133001
0 -0.446896 -0.596178
0 -0.360688 -0.500039
0 -0.135324 -0.187606
0 0.142249 0.197207
0 0.364942 0.505936
0 0.446837 0.619471
0 0.356339 0.49401
0 0.128363 0.177956
0 -0.149136 -0.206755
0 -0.369098 -0.492391
0 0.019153 -0.946242
0 0.0154583 -0.793653
0 0.00579968 -0.297765
0 -0.00609647 0.313003
0 -0.0156406 0.803013
0 -0.0191504 0.983214
0 -0.0152719 0.784084
0 -0.00550135 0.282449
0 0.00639164 -0.328157
0 0.0158187 -0.781514
0 0.477812 -0.931239
0 0.385641 -0.78107
0 0.144686 -0.293044
0 -0.15209 0.30804
0 -0.390188 0.79028
0 -0.477749 0.967624
0 -0.380991 0.771652
0 -0.137243 0.27797
0 0.159453 -0.322954
0 0.394632 -0.769123
0 0.752129 -0.556957
0 0.60704 -0.449518
0 0.227751 -0.168652
0 -0.239406 0.177282
0 -0.614198 0.454819
0 -0.752029 0.556883
0 -0.599721 0.444098
0 -0.216036 0.159976
0 0.250997 -0.185865
0 0.621193 -0.459999
0 0.600959 0
0 0.510263 0
0 0.191442 0
0 -0.201239 0
0 -0.51628 0
0 -0.632137 0
0 -0.504111 0
0 -0.181595 0
0 0.210982 0
0 0.49634 0
0.0848049 0.369105 0.645503
0.237235 0.3174 0.556172
0.292459 0.119387 0.209235
0.234639 -0.125521 -0.21999
0.0862889 -0.322025 -0.564385
-0.0953528 -0.394289 -0.691037
-0.240206 -0.314434 -0.551081
-0.292382 -0.113287 -0.198551
-0.231565 0.130884 0.229302
-0.0762985 0.304848 0.53313
0.136891 -0.00515317 1.04197
0.382943 -0.00441392 0.897769
0.472084 -0.00166015 0.337746
0.378754 0.00174548 -0.355106
0.139287 0.00447802 -0.911025
-0.153918 0.00548286 -1.11547
-0.387739 0.00437244 -0.889551
-0.47196 0.00157535 -0.320499
-0.373791 -0.00182024 0.370138
-0.123161 -0.00425607 0.860574
0.136164 -0.377423 1.03643
0.380909 -0.324379 0.893
0.469576 -0.122019 0.335951
0.376742 0.12829 -0.35322
0.138547 0.329128 -0.906184
-0.1531 0.402985 -1.10954
-0.385679 0.321369 -0.884826
-0.469453 0.115787 -0.318797
-0.371805 -0.133754 0.368172
-0.122506 -0.311719 0.856002
0.0829039 -0.60408 0.631033
0.231917 -0.519184 0.543704
0.285904 -0.195296 0.204545
0.22938 0.205333 -0.215059
0.0843544 0.526781 -0.551732
-0.0932155 0.644995 -0.675546
-0.234822 0.514366 -0.538727
-0.285828 0.185321 -0.1941
-0.226374 -0.214079 0.224162
-0.0745882 -0.498918 0.521179
-0.00234143 -0.597678 -0.017822
-0.00654995 -0.513682 -0.0153557
-0.00807461 -0.193227 -0.00577688
-0.00647826 0.203157 0.00607381
-0.0023824 0.5212 0.0155824
0.00263262 0.63816 0.0190791
0.00663197 0.508915 0.0152152
0.00807248 0.183357 0.00548189
0.00639341 -0.211811 -0.00633093
0.00210657 -0.493631 -0.0147195
-0.0866834 -0.360688 -0.659801
-0.24249 -0.309999 -0.568491
-0.298936 -0.116609 -0.213869
-0.239836 0.122602 0.224863
-0.0882001 0.314535 0.576887
0.0974645 0.38512 0.706341
0.245527 0.307122 0.563289
0.298857 0.110653 0.202949
0.236694 -0.127824 -0.234382
0.0779886 -0.297897 -0.544939
-0.137582 0.0154583 -1.04722
-0.384861 0.013256 -0.902267
-0.474448 0.00498554 -0.339437
-0.38065 -0.00524165 0.356885
-0.139985 -0.0134475 0.915588
0.154688 -0.0164652 1.12105
0.38968 -0.0131305 0.894007
0.474323 -0.00473075 0.322104
0.375662 0.00546691 -0.371994
0.123782 0.0127672 -0.864917
-0.135401 0.385641 -1.03062
-0.378237 0.330337 -0.886826
-0.46627 0.124234 -0.333601
-0.374088 -0.130616 0.350746
-0.137571 -0.335096 0.899839
0.152022 -0.410295 1.10177
0.382964 -0.327199 0.878629
0.466147 -0.117884 0.316562
0.369196 0.136241 -0.365658
0.121819 0.318506 -0.851203
-0.0809808 0.60704 -0.616395
-0.211699 0.48994 -0.49749
-0.260743 0.183817 -0.18665
-0.20919 -0.193224 0.196201
-0.0769297 -0.495717 0.503357
0.0850105 -0.60696 0.616313
0.214153 -0.484032 0.491492
0.260674 -0.174362 0.177049
0.206625 0.202579 -0.205701
0.072858 0.501363 -0.509089
0 0.22547 0
0 0.191442 0
0 0.0718258 0
0 -0.0755014 0
0 -0.1937 0
0 -0.237167 0
0 -0.189134 0
0 -0.0681312 0
0 0.0791569 0
0 0.186218 0
0.136891 0.138482 0.458708
0.382943 0.119387 0.395353
0.472084 0.044913 0.148742
0.378754 -0.0472213 -0.156389
0.139287 -0.121146 -0.401216
-0.153918 -0.148332 -0.491251
-0.387739 -0.118291 -0.391759
-0.47196 -0.0426193 -0.141149
-0.373791 0.0492226 0.162988
-0.123161 0.114374 0.378853
0.220969 -0.00193338 0.740442
0.618145 -0.00166015 0.638175
0.762036 -0.00062451 0.240099
0.611381 0.00065661 -0.252442
0.224836 0.00168454 -0.64764
-0.248453 0.00206257 -0.792974
-0.625885 0.00164484 -0.632374
-0.761835 0.000592621 -0.227842
-0.603369 -0.000684511 0.263094
-0.198805 -0.00159681 0.611542
0.219795 -0.141603 0.736509
0.614862 -0.122019 0.634785
0.757988 -0.045906 0.238823
0.608133 0.048266 -0.251101
0.223641 0.123826 -0.644199
-0.247133 0.151614 -0.788761
-0.62256 0.120908 -0.629014
-0.757788 0.0435624 -0.226631
-0.600163 -0.0503042 0.261697
-0.197749 -0.116952 0.608293
0.133823 -0.226641 0.448425
0.37436 -0.195296 0.386491
0.461503 -0.0734745 0.145408
0.370264 0.0772517 -0.152884
0.136164 0.198189 -0.392222
-0.150467 0.242664 -0.480239
-0.379048 0.193518 -0.382978
-0.461381 0.0697237 -0.137985
-0.365411 -0.0805142 0.159335
-0.1204 -0.187185 0.37036
-0.00377951 -0.224239 -0.0126647
-0.0105729 -0.193227 -0.0109155
-0.013034 -0.0726959 -0.00410671
-0.0104572 0.0764331 0.00431783
-0.00384565 0.196089 0.0110774
0.00424959 0.240093 0.0135633
0.0107053 0.191467 0.0108163
0.0130306 0.0689847 0.00389706
0.0103202 -0.0796611 -0.00450005
0.00340041 -0.185202 -0.01046
-0.139924 -0.135324 -0.468868
-0.391425 -0.116609 -0.40411
-0.482541 -0.0438708 -0.152037
-0.387142 0.0461262 0.159853
-0.142372 0.118337 0.410103
0.157327 0.144892 0.502133
0.396327 0.115547 0.400436
0.482413 0.0416312 0.144276
0.38207 -0.0480742 -0.166599
0.125889 -0.111766 -0.387245
-0.222084 0.00579968 -0.744179
-0.62124 0.00498553 -0.641372
-0.765851 0.00187532 -0.241301
-0.614442 -0.00197169 0.253706
-0.225961 -0.00505836 0.650883
0.249697 -0.0061935 0.796945
0.629018 -0.00493913 0.63554
0.765649 -0.00177952 0.228983
0.606391 0.00205577 -0.264413
0.199808 0.00479004 -0.614628
-0.218563 0.144686 -0.73238
-0.610548 0.124234 -0.630378
-0.75265 0.0467292 -0.237146
-0.60385 -0.0491304 0.249335
-0.222066 -0.126044 0.639668
0.245392 -0.154329 0.783213
0.618176 -0.123073 0.624591
0.752451 -0.044342 0.225036
0.595953 0.0512299 -0.259904
0.19664 0.119498 -0.604883
-0.130719 0.227751 -0.438023
-0.341724 0.183817 -0.353527
-0.420889 0.0689651 -0.132637
-0.337673 -0.0724942 0.139425
-0.124179 -0.185985 0.357696
0.137223 -0.227721 0.437965
0.345684 -0.181601 0.349264
0.420777 -0.0654176 0.125815
0.333532 0.0760041 -0.146175
0.117607 0.188103 -0.361769
0 -0.237008 0
0 -0.201239 0
0 -0.0755014 0
0 0.079365 0
0 0.203612 0
0 0.249304 0
0 0.198812 0
0 0.0716177 0
0 -0.0832076 0
0 -0.195748 0
0.136164 -0.145568 0.0949397
0.380909 -0.125521 0.0818266
0.469576 -0.0472213 0.0307853
0.376742 0.0496486 -0.032368
0.138547 0.127374 -0.0830403
-0.1531 0.155957 -0.101675
-0.38568 0.124371 -0.0810827
-0.469453 0.0448102 -0.0292138
-0.371805 -0.051751 0.0337339
-0.122506 -0.120227 0.078412
0.219795 0.00203232 0.153251
0.614862 0.00174548 0.132084
0.757988 0.000656609 0.0496934
0.608133 -0.000690364 -0.0522483
0.223641 -0.00177111 -0.134043
-0.247133 -0.00216859 -0.164123
-0.62256 -0.00172939 -0.130883
-0.757788 -0.00062308 -0.0471567
-0.600163 0.000719676 0.0544529
-0.197749 0.00167852 0.126572
0.218628 0.148849 0.152437
0.611595 0.12829 0.131382
0.753961 0.048266 0.0494294
0.604903 -0.0507474 -0.0519707
0.222453 -0.130192 -0.133331
-0.24582 -0.159408 -0.163251
-0.619254 -0.127124 -0.130188
-0.753762 -0.0458021 -0.0469062
-0.596975 0.0528888 0.0541636
-0.196698 0.122936 0.1259
0.133112 0.238238 0.0928115
0.372371 0.205333 0.0799922
0.459051 0.0772517 0.0300952
0.368296 -0.0812232 -0.0316424
0.135441 -0.208379 -0.0811785
-0.149668 -0.25514 -0.0993955
-0.377034 -0.203467 -0.0792651
-0.45893 -0.0733083 -0.0285589
-0.36347 0.0846505 0.0329776
-0.11976 0.196764 0.0766543
-0.00375944 0.235714 -0.00262124
-0.0105167 0.203157 -0.0022592
-0.0129647 0.0764331 -0.00084997
-0.0104017 -0.0803625 0.000893665
-0.00382523 -0.20617 0.0022927
0.00422702 -0.252436 0.00280721
0.0106484 -0.20131 0.00223868
0.0129613 -0.0725315 0.000806578
0.0102654 0.0837535 -0.000931376
0.00338235 0.194679 -0.00216492
-0.13918 0.142249 -0.0970426
-0.389346 0.122602 -0.0836389
-0.479977 0.0461262 -0.0314672
-0.385086 -0.0484975 0.0330849
-0.141616 -0.12442 0.0848793
0.156491 -0.152341 0.103927
0.394221 -0.121488 0.0828789
0.479851 -0.0437715 0.0298608
0.38004 0.0505438 -0.034481
0.12522 0.117485 -0.0801489
-0.220905 -0.00609647 -0.154024
-0.61794 -0.00524165 -0.132746
-0.761783 -0.00197169 -0.0499422
-0.611178 0.00207301 0.0525099
-0.224761 0.00531832 0.134714
0.24837 0.00651179 0.164945
0.625677 0.00519296 0.131538
0.761581 0.00187097 0.0473929
0.603169 -0.00216136 -0.0547258
0.198747 -0.00503516 -0.127211
-0.217402 -0.15209 -0.151582
-0.607305 -0.130616 -0.13047
-0.748652 -0.0491304 -0.0490822
-0.600642 0.0516552 0.0516051
-0.220886 0.132521 0.132393
0.244089 0.16226 0.162103
0.614893 0.129397 0.129272
0.748454 0.0466206 0.046576
0.592787 -0.0538609 -0.0537927
0.195595 -0.125613 -0.125194
-0.130024 -0.239406 -0.0906586
-0.339908 -0.193224 -0.0731702
-0.418653 -0.0724942 -0.0274522
-0.335879 0.076204 0.028857
-0.12352 0.195502 0.074033
0.136494 0.239374 0.0906465
0.343848 0.190894 0.0722879
0.418542 0.0687652 0.0260401
0.33176 -0.0798935 -0.0302542
0.116982 -0.197729 -0.0748762
0 -0.608046 0
0 -0.51628 0
0 -0.1937 0
0 0.203612 0
0 0.522368 0
0 0.639591 0
0 0.510055 0
0 0.183736 0
0 -0.21347 0
0 -0.502193 0
0.0829039 -0.373457 -0.305457
0.231917 -0.322025 -0.263266
0.285904 -0.121146 -0.0990475
0.22938 0.127374 0.10414
0.0843544 0.326776 0.26717
-0.0932155 0.400107 0.327125
-0.234822 0.319074 0.260872
-0.285828 0.114961 0.0939915
-0.226374 -0.132767 -0.108534
-0.0745882 -0.308443 -0.252281
0.133823 0.00521393 -0.493066
0.374359 0.00447802 -0.424962
0.461503 0.00168454 -0.159882
0.370264 -0.00177111 0.168102
0.136164 -0.00454385 0.431265
-0.150467 -0.00556354 0.528042
-0.379048 -0.00443674 0.4211
-0.461381 -0.00159851 0.15172
-0.365411 0.00184632 -0.175195
-0.1204 0.00430626 -0.40723
0.133112 0.381873 -0.490446
0.372371 0.329128 -0.422705
0.459051 0.123826 -0.159033
0.368297 -0.130192 0.167209
0.135441 -0.334009 0.428974
-0.149668 -0.408962 0.525237
-0.377034 -0.326135 0.418863
-0.45893 -0.117505 0.150914
-0.36347 0.135686 -0.174265
-0.11976 0.315394 -0.405067
0.0810455 0.611203 -0.298609
0.226718 0.526781 -0.257365
0.279494 0.198189 -0.0968272
0.224238 -0.208379 0.101805
0.0824638 -0.534594 0.261181
-0.0911257 -0.654561 0.319792
-0.229558 -0.521992 0.255025
-0.279421 -0.188072 0.0918845
-0.2213 0.217171 -0.106101
-0.0729162 0.504801 -0.246626
-0.00228894 0.604726 0.00843352
-0.00640313 0.5212 0.00726863
-0.00789361 0.196089 0.00273467
-0.00633307 -0.20617 -0.00287525
-0.00232897 -0.528928 -0.00737644
0.00257365 -0.647624 -0.0090318
0.00648329 -0.516462 -0.00720257
0.00789153 -0.186079 -0.00259507
0.00625009 0.214871 0.00299657
0.00205935 0.499452 0.00696536
-0.0847403 0.364942 0.312223
-0.237054 0.314535 0.269097
-0.292236 0.118337 0.101241
-0.23446 -0.12442 -0.106446
-0.086223 -0.3192 -0.273088
0.09528 -0.39083 -0.334371
0.240023 -0.311676 -0.266651
0.292159 -0.112296 -0.0960733
0.231388 0.12967 0.110938
0.0762404 0.30141 0.257869
-0.134498 -0.0156406 0.495554
-0.376234 -0.0134475 0.427092
-0.463813 -0.00505836 0.160682
-0.372118 0.00531832 -0.168943
-0.136846 0.0136441 -0.433424
0.151221 0.016706 -0.530686
0.380946 0.0133226 -0.423208
0.463691 0.00479997 -0.15248
0.367241 -0.00554499 0.176074
0.121007 -0.0129178 0.409285
-0.132366 -0.390188 0.487697
-0.369758 -0.335096 0.419771
-0.455818 -0.126044 0.157915
-0.365702 0.132521 -0.166033
-0.134487 0.339983 -0.425957
0.148614 0.416278 -0.521544
0.374379 0.331971 -0.415917
0.455698 0.119605 -0.149852
0.360919 -0.13818 0.17307
0.119089 -0.322262 0.402796
-0.0791655 -0.614198 0.291683
-0.206954 -0.495717 0.235416
-0.254898 -0.185985 0.0883241
-0.2045 0.195502 -0.0928439
-0.0752052 0.501563 -0.238192
0.0831048 0.614117 -0.291644
0.209352 0.48974 -0.232577
0.25483 0.176418 -0.0837808
0.201993 -0.204968 0.0973391
0.0712248 -0.507275 0.240905
0 -0.744495 0
0 -0.632137 0
0 -0.237167 0
0 0.249304 0
0 0.639591 0
0 0.78312 0
0 0.624515 0
0 0.224968 0
0 -0.261374 0
0 -0.614889 0
-0.00234143 -0.457263 -0.588005
-0.00654995 -0.394289 -0.506789
-0.00807461 -0.148332 -0.190667
-0.00647825 0.155957 0.200469
-0.0023824 0.400107 0.514304
0.00263262 0.489894 0.629717
0.00663198 0.390676 0.502182
0.00807248 0.140758 0.180934
0.00639341 -0.162561 -0.208929
0.00210657 -0.37766 -0.485642
-0.00377951 0.00638397 -0.949154
-0.0105729 0.00548286 -0.818054
-0.013034 0.00206257 -0.307773
-0.0104571 -0.00216859 0.323596
-0.00384565 -0.00556354 0.830187
0.00424959 -0.00681201 1.01649
0.0107053 -0.00543237 0.810618
0.0130306 -0.00195723 0.292063
0.0103202 0.00226067 -0.337251
0.00340041 0.00527261 -0.78392
-0.00375944 0.467568 -0.944112
-0.0105167 0.402985 -0.813708
-0.0129647 0.151614 -0.306139
-0.0104017 -0.159408 0.321877
-0.00382523 -0.408962 0.825776
0.00422702 -0.500736 1.01109
0.0106484 -0.399322 0.806311
0.0129613 -0.143874 0.290511
0.0102654 0.166135 -0.335459
0.00338235 0.386171 -0.779755
-0.00228894 0.748361 -0.574824
-0.00640313 0.644995 -0.495427
-0.00789361 0.242664 -0.186393
-0.00633307 -0.25514 0.195975
-0.00232897 -0.654561 0.502776
0.00257365 -0.801448 0.615602
0.0064833 -0.639132 0.490924
0.00789153 -0.230277 0.176878
0.00625009 0.265906 -0.204245
0.00205935 0.618082 -0.474755
6.46458e-05 0.740431 0.0162346
0.000180839 0.63816 0.0139922
0.000222941 0.240093 0.0052642
0.000178863 -0.252436 -0.0055349
6.57776e-05 -0.647624 -0.0141997
-7.26843e-05 -0.792955 -0.0173862
-0.00018311 -0.632359 -0.0138651
-0.000222883 -0.227836 -0.00499551
-0.000176519 0.263088 0.00576843
-5.81615e-05 0.611532 0.0134084
0.00239329 0.446837 0.60103
0.00669502 0.38512 0.518014
0.0082535 0.144892 0.19489
0.00662177 -0.152341 -0.20491
0.00243516 -0.39083 -0.525694
-0.00269095 -0.478536 -0.643665
-0.0067789 -0.381619 -0.513305
-0.00825133 -0.137495 -0.184942
-0.00653501 0.15877 0.213557
-0.00215323 0.369049 0.496399
0.00379859 -0.0191504 0.953944
0.0106258 -0.0164652 0.822153
0.0130993 -0.0061935 0.309314
0.0105095 0.00651179 -0.325216
0.0038649 0.016706 -0.834344
-0.00427087 0.020455 -1.02158
-0.0107589 0.0163122 -0.814678
-0.0130958 0.00587713 -0.293525
-0.0103719 -0.00678931 0.338942
-0.00341757 -0.0158166 0.787876
0.00373836 -0.477749 0.938819
0.0104429 -0.410295 0.808059
0.0128735 -0.154329 0.303988
0.0103285 0.16226 -0.319613
0.0037983 0.416278 -0.819968
-0.00419723 0.509693 -1.00397
-0.0105734 0.406467 -0.80064
-0.0128701 0.146445 -0.288466
-0.0101933 -0.169189 0.33316
-0.00336338 -0.394579 0.775384
0.00223585 -0.752029 0.561491
0.00584493 -0.60696 0.453177
0.007199 -0.227721 0.170024
0.00577564 0.239374 -0.178725
0.002124 0.614117 -0.458521
-0.0023471 0.751929 -0.561416
-0.00591267 0.599641 -0.447713
-0.00719708 0.216007 -0.161278
-0.00570481 -0.250964 0.187378
-0.00201158 -0.621111 0.463743
0 -0.593713 0
0 -0.504111 0
0 -0.189134 0
0 0.198812 0
0 0.510055 0
0 0.624515 0
0 0.498032 0
0 0.179405 0
0 -0.208438 0
0 -0.490355 0
-0.0866834 -0.364654 -0.643698
-0.24249 -0.314434 -0.554788
-0.298936 -0.118291 -0.208726
-0.239836 0.124371 0.219457
-0.0882001 0.319074 0.563018
0.0974645 0.390676 0.68936
0.245527 0.311554 0.549745
0.298857 0.112251 0.198071
0.236694 -0.129638 -0.228718
0.0779886 -0.301173 -0.531639
-0.139924 0.00509103 -1.03905
-0.391425 0.00437243 -0.895535
-0.482541 0.00164484 -0.336924
-0.387142 -0.00172939 0.354246
-0.142372 -0.00443675 0.908817
0.157327 -0.00543237 1.11276
0.396327 -0.00433216 0.887394
0.482413 -0.00156085 0.319724
0.38207 0.00180281 -0.369193
0.125889 0.00420475 -0.858167
-0.13918 0.372872 -1.03353
-0.389346 0.321369 -0.890777
-0.479977 0.120908 -0.335134
-0.385086 -0.127124 0.352364
-0.141616 -0.326135 0.903988
0.156491 -0.399322 1.10685
0.394221 -0.318448 0.88268
0.479851 -0.114736 0.318026
0.38004 0.132488 -0.367232
0.12522 0.30796 -0.853608
-0.0847403 0.596796 -0.629268
-0.237054 0.514366 -0.542351
-0.292236 0.193518 -0.204047
-0.23446 -0.203467 0.214537
-0.086223 -0.521992 0.550395
0.09528 -0.639132 0.673907
0.240023 -0.50969 0.537422
0.292159 -0.183639 0.193631
0.231388 0.212053 -0.22359
0.0762404 0.492902 -0.519721
0.00239329 0.590472 0.0177722
0.00669502 0.508915 0.0153175
0.0082535 0.191467 0.00576282
0.00662177 -0.20131 -0.0060591
0.00243516 -0.516462 -0.0155446
-0.00269095 -0.632359 -0.0190329
-0.0067789 -0.504289 -0.0151783
-0.00825133 -0.181693 -0.00546866
-0.006535 0.209806 0.00631478
-0.00215323 0.487679 0.0146783
0.0886035 0.356339 0.657956
0.247861 0.307122 0.567078
0.305558 0.115547 0.213349
0.245149 -0.121488 -0.224318
0.0901537 -0.311676 -0.575488
-0.0996234 -0.381619 -0.704629
-0.250965 -0.30433 -0.561924
-0.305477 -0.109649 -0.202458
-0.241936 0.126614 0.233784
-0.0797161 0.294305 0.543415
0.14063 -0.0152719 1.0443
0.393385 -0.0131305 0.900021
0.484957 -0.00493913 0.338611
0.38908 0.00519296 -0.35602
0.143085 0.0133226 -0.913368
-0.158114 0.0163122 -1.11833
-0.398312 0.0130085 -0.891838
-0.484829 0.00468684 -0.321325
-0.383983 -0.00541426 0.371044
-0.126524 -0.0126133 0.862498
0.1384 -0.380991 1.02774
0.386615 -0.327199 0.884593
0.476598 -0.123073 0.33278
0.382374 0.129397 -0.349885
0.140619 0.331971 -0.89763
-0.155389 0.406467 -1.09906
-0.391445 0.324146 -0.876472
-0.476472 0.116786 -0.315787
-0.377373 -0.134923 0.364716
-0.124518 -0.314665 0.848823
0.0827746 -0.599721 0.614671
0.216389 -0.484032 0.496099
0.266519 -0.181601 0.186128
0.213823 0.190894 -0.195653
0.0786337 0.48974 -0.501949
-0.0868935 0.599641 -0.61459
-0.218897 0.478196 -0.490117
-0.266448 0.172259 -0.176554
-0.211201 -0.200136 0.205125
-0.0744719 -0.495318 0.507666
0 -0.213872 0
0 -0.181595 0
0 -0.0681312 0
0 0.0716177 0
0 0.183736 0
0 0.224968 0
0 0.179405 0
0 0.0646266 0
0 -0.0750851 0
0 -0.17664 0
-0.137582 -0.131358 -0.451046
-0.384861 -0.113287 -0.388763
-0.474448 -0.0426194 -0.146263
-0.38065 0.0448103 0.153783
-0.139985 0.114961 0.394529
0.154688 0.140758 0.483065
0.38968 0.112251 0.385231
0.474323 0.0404431 0.138797
0.375662 -0.0467064 -0.160271
0.123782 -0.108491 -0.372525
-0.222084 0.00183393 -0.728075
-0.62124 0.00157535 -0.627537
-0.765851 0.000592623 -0.236097
-0.614442 -0.000623082 0.248235
-0.225961 -0.00159852 0.636846
0.249697 -0.00195724 0.779759
0.629018 -0.00156086 0.621836
0.765649 -0.000562373 0.224045
0.606391 0.000649527 -0.258708
0.199808 0.00151467 -0.601327
-0.220905 0.134319 -0.724207
-0.61794 0.115787 -0.624203
-0.761783 0.0435625 -0.234843
-0.611178 -0.0458022 0.246916
-0.224761 -0.117505 0.633463
0.24837 -0.143875 0.775616
0.625677 -0.114736 0.618533
0.761581 -0.0413389 0.222855
0.603169 0.0477336 -0.257333
0.198747 0.110936 -0.598133
-0.134498 0.214982 -0.440935
-0.376234 0.185322 -0.380049
-0.463813 0.0697238 -0.142985
-0.372118 -0.0733085 0.150336
-0.136846 -0.188073 0.385686
0.151221 -0.230277 0.472236
0.380946 -0.18364 0.376595
0.463691 -0.0661645 0.135685
0.367241 0.0763997 -0.156678
0.121007 0.177557 -0.364175
0.00379859 0.212704 0.0124532
0.0106258 0.183358 0.0107336
0.0130993 0.0689849 0.00403825
0.0105095 -0.0725316 -0.00424587
0.0038649 -0.18608 -0.0108928
-0.00427087 -0.227837 -0.0133372
-0.0107589 -0.181693 -0.010636
-0.0130958 -0.0654634 -0.00383213
-0.0103719 0.07559 0.00442503
-0.00341757 0.175675 0.0102853
0.14063 0.128363 0.461037
0.393385 0.110653 0.397374
0.484957 0.0416313 0.149503
0.38908 -0.0437715 -0.157189
0.143085 -0.112296 -0.403268
-0.158114 -0.137496 -0.493764
-0.398312 -0.109649 -0.393763
-0.484829 -0.0395061 -0.141871
-0.383983 0.0456172 0.163821
-0.126524 0.106017 0.380777
0.223205 -0.00550135 0.731749
0.624351 -0.00473075 0.630681
0.769685 -0.00177953 0.237279
0.617518 0.00187097 -0.249478
0.227093 0.00479999 -0.640035
-0.250947 0.00587714 -0.783663
-0.632168 0.00468685 -0.624949
-0.769482 0.00168862 -0.225167
-0.609428 -0.00195066 0.260005
-0.200816 -0.00454364 0.604362
0.219666 -0.137243 0.720147
0.613606 -0.117885 0.619871
0.75642 -0.044342 0.233193
0.606875 0.0466207 -0.245179
0.223178 0.119605 -0.629007
-0.246621 0.146446 -0.770161
-0.621272 0.116786 -0.614182
-0.75622 0.0420768 -0.221285
-0.598938 -0.0486101 0.25557
-0.197632 -0.113351 0.59478
0.131378 -0.216036 0.430707
0.343448 -0.174362 0.347622
0.423013 -0.0654176 0.130422
0.339377 0.0687652 -0.137096
0.124806 0.176418 -0.351721
-0.137916 0.216007 -0.43065
-0.347429 0.172259 -0.343431
-0.422901 0.0620526 -0.123713
-0.335215 -0.0720946 0.143734
-0.1182 -0.178427 0.355727
0 0.248483 0
0 0.210982 0
0 0.0791569 0
0 -0.0832076 0
0 -0.21347 0
0 -0.261374 0
0 -0.208438 0
0 -0.0750851 0
0 0.0872362 0
0 0.205225 0
-0.135401 0.152616 -0.0843781
-0.378237 0.130878 -0.0733376
-0.46627 0.0492202 -0.0276058
-0.374088 -0.0517484 0.0290266
-0.137571 -0.132761 0.0744673
0.152022 -0.162553 0.0911783
0.382964 -0.129631 0.0727123
0.466147 -0.046704 0.026199
0.369196 0.0539792 -0.030217
0.121819 0.126048 -0.069689
-0.218563 -0.00213071 -0.136202
-0.610548 -0.00182013 -0.118381
-0.75265 -0.000684473 -0.044561
-0.60385 0.000719633 0.0468544
-0.222066 0.00184621 0.120205
0.245392 0.00226053 0.147179
0.618176 0.00180271 0.117371
0.752451 0.000649486 0.0422902
0.595953 -0.000750753 -0.0487762
0.19664 -0.00175979 -0.112492
-0.217402 -0.156056 -0.135479
-0.607305 -0.133747 -0.117752
-0.748652 -0.0503016 -0.0443243
-0.600642 0.0528861 0.0466055
-0.220886 0.135679 0.119566
0.244089 0.166126 0.146398
0.614893 0.132481 0.116748
0.748454 0.047731 0.0420656
0.592787 -0.0551598 -0.0485171
0.195595 -0.128888 -0.111894
-0.132366 -0.249773 -0.0824866
-0.369758 -0.214068 -0.0716936
-0.455818 -0.0805099 -0.0269869
-0.365702 0.0846461 0.0283758
-0.134487 0.21716 0.0727982
0.148614 0.265892 0.0891345
0.374379 0.212042 0.0710825
0.455698 0.0763955 0.0256117
0.360919 -0.0882852 -0.0295397
0.119089 -0.206291 -0.0681269
0.00373836 -0.247126 0.00232964
0.010443 -0.2118 0.00202481
0.0128735 -0.0796569 0.000762183
0.0103285 0.083749 -0.000801408
0.0037983 0.214859 -0.00205601
-0.00419723 0.263074 -0.00251739
-0.0105734 0.209795 -0.00200754
-0.0128701 0.0755858 -0.000723343
-0.0101933 -0.0873494 0.000834282
-0.00336338 -0.204105 0.00192408
0.1384 -0.149136 0.0862471
0.386615 -0.127818 0.0749618
0.476598 -0.0480717 0.0282172
0.382374 0.0505411 -0.0296694
0.140619 0.129663 -0.0761167
-0.155389 0.158761 -0.093198
-0.391445 0.126608 -0.0743226
-0.476472 0.0456147 -0.0267793
-0.377373 -0.052714 0.0308864
-0.124518 -0.123174 0.0712327
0.219666 0.00639164 0.13689
0.613606 0.00546664 0.118973
0.75642 0.00205567 0.0447838
0.606875 -0.00216125 -0.0470886
0.223178 -0.0055447 -0.120806
-0.246621 -0.00678896 -0.147915
-0.621272 -0.00541398 -0.117958
-0.75622 -0.00195055 -0.0425016
-0.598938 0.00225493 0.0490203
-0.197632 0.00527894 0.113059
0.216183 0.159453 0.134719
0.603071 0.136234 0.116905
0.743412 0.0512273 0.044001
0.596439 -0.0538582 -0.0462651
0.21934 -0.138173 -0.118693
-0.24238 -0.16918 -0.145329
-0.610589 -0.134916 -0.115895
-0.743215 -0.0486076 -0.0417581
-0.588652 0.0561969 0.0481734
-0.194499 0.131695 0.111267
0.129295 0.250997 0.0805732
0.338003 0.202579 0.0650304
0.416306 0.0760041 0.0243983
0.333996 -0.0798935 -0.0256468
0.122827 -0.204968 -0.0657972
-0.135729 -0.250964 -0.0805625
-0.34192 -0.200136 -0.0642463
-0.416196 -0.0720946 -0.0231433
-0.3299 0.0837616 0.0268886
-0.116326 0.207302 0.0665466
0 0.614971 0
0 0.49634 0
0 0.186218 0
0 -0.195748 0
0 -0.502193 0
0 -0.614889 0
0 -0.490356 0
0 -0.17664 0
0 0.205225 0
0 0.507913 0
-0.0809808 0.37771 0.314844
-0.211699 0.304849 0.254109
-0.260743 0.114374 0.0953376
-0.20919 -0.120227 -0.100216
-0.0769297 -0.308443 -0.257106
0.0850105 -0.37766 -0.314802
0.214153 -0.301173 -0.251045
0.260674 -0.108491 -0.0904335
0.206625 0.126048 0.105068
0.072858 0.311956 0.260034
-0.130719 -0.00527331 0.508219
-0.341724 -0.00425607 0.410182
-0.420889 -0.00159681 0.153893
-0.337673 0.00167852 -0.161768
-0.124179 0.00430626 -0.415018
0.137223 0.00527261 -0.508151
0.345684 0.00420475 -0.405236
0.420777 0.00151467 -0.145977
0.333532 -0.00175979 0.169601
0.117607 -0.0043553 0.419745
-0.130024 -0.386222 0.505519
-0.339908 -0.311719 0.408003
-0.418653 -0.116952 0.153076
-0.335879 0.122936 -0.160909
-0.12352 0.315394 -0.412814
0.136494 0.386171 -0.505452
0.343848 0.30796 -0.403083
0.418542 0.110936 -0.145202
0.33176 -0.128888 0.1687
0.116982 -0.318986 0.417515
-0.0791655 -0.618164 0.307786
-0.206954 -0.498918 0.248413
-0.254898 -0.187186 0.0932004
-0.2045 0.196764 -0.0979698
-0.0752052 0.504801 -0.251343
0.0831048 0.618082 -0.307745
0.209352 0.492902 -0.245418
0.25483 0.177557 -0.0884063
0.201993 -0.206291 0.102713
0.0712248 -0.51055 0.254205
0.00223585 -0.611613 -0.00869271
0.00584493 -0.493631 -0.00701585
0.007199 -0.185202 -0.00263223
0.00577564 0.194679 0.00276693
0.002124 0.499452 0.00709858
-0.0023471 0.611532 0.00869155
-0.00591267 0.487679 0.00693126
-0.00719708 0.175675 0.00249683
-0.00570481 -0.204105 -0.00290089
-0.00201158 -0.50514 -0.00717943
0.0827746 -0.369098 -0.321818
0.216389 -0.297898 -0.259738
0.266519 -0.111766 -0.0974494
0.213823 0.117486 0.102436
0.0786337 0.30141 0.262801
-0.0868935 0.369049 0.321775
-0.218897 0.294306 0.256606
-0.266448 0.106017 0.0924367
-0.211201 -0.123174 -0.107396
-0.0744719 -0.304843 -0.265794
0.131378 0.0158187 -0.510784
0.343448 0.0127672 -0.412252
0.423013 0.00479004 -0.15467
0.339377 -0.00503516 0.162585
0.124806 -0.0129178 0.417113
-0.137916 -0.0158166 0.510716
-0.347428 -0.0126133 0.407281
-0.422901 -0.00454364 0.146714
-0.335215 0.00527894 -0.170456
-0.1182 0.0130649 -0.421863
0.129295 0.394632 -0.502685
0.338003 0.318506 -0.405715
0.416306 0.119498 -0.152217
0.333996 -0.125613 0.160007
0.122827 -0.322262 0.410499
-0.135729 -0.394579 0.502618
-0.34192 -0.314665 0.400823
-0.416196 -0.113351 0.144388
-0.3299 0.131695 -0.167754
-0.116326 0.325932 -0.415175
0.0773292 0.621193 -0.300647
0.202153 0.501363 -0.242651
0.248985 0.188103 -0.0910385
0.199757 -0.197729 0.0956973
0.0734607 -0.507275 0.245512
-0.0811771 -0.621111 0.300607
-0.204496 -0.495318 0.239725
-0.248919 -0.178427 0.0863556
-0.197307 0.207302 -0.100331
-0.0695727 0.513052 -0.248308
