# vtk DataFile Version 3.0
Velocity field
ASCII
DATASET STRUCTURED_POINTS
DIMENSIONS 10 10 10
SPACING 0.631579 0.631579 0.631579
ORIGIN 0 0 0
POINT_DATA 1000
VECTORS velocity float
0 0.665117 0
0 0.536814 0
0 0.201403 0
0 -0.21171 0
0 -0.543144 0
0 -0.665029 0
0 -0.530341 0
0 -0.191043 0
0 0.22196 0
0 0.54933 0
0 0.40851 0.521002
0 0.329707 0.436987
0 0.1237 0.16395
0 -0.130031 -0.17234
0 -0.333595 -0.44214
0 -0.408456 -0.541359
0 -0.325731 -0.431718
0 -0.117337 -0.155517
0 0.136326 0.180684
0 0.337394 0.430303
0 -0.00570332 0.840998
0 -0.00460313 0.705381
0 -0.00172702 0.264647
0 0.00181539 -0.27819
0 0.00465741 -0.713699
0 0.00570256 -0.873857
0 0.00454762 -0.696875
0 0.00163818 -0.251034
0 -0.00190329 0.291659
0 -0.00471045 0.694592
0 -0.417716 0.83653
0 -0.337137 0.701634
0 -0.126488 0.263241
0 0.132961 -0.276712
0 0.341113 -0.709907
0 0.417661 -0.869215
0 0.333072 -0.693173
0 0.119982 -0.2497
0 -0.139398 0.290109
0 -0.344998 0.690902
0 -0.668571 0.509323
0 -0.539602 0.427191
0 -0.202449 0.160275
0 0.212809 -0.168477
0 0.545965 -0.432228
0 0.668483 -0.529223
0 0.533095 -0.42204
0 0.192036 -0.15203
0 -0.223113 0.176634
0 -0.552182 0.420657
0 -0.661487 -0.0143846
0 -0.533883 -0.012065
0 -0.200304 -0.00452659
0 0.210554 0.00475822
0 0.540179 0.0122073
0 0.661399 0.0149467
0 0.527446 0.0119195
0 0.190001 0.00429375
0 -0.220748 -0.0049886
0 -0.546331 -0.0118805
0 -0.399195 -0.532543
0 -0.322189 -0.446666
0 -0.12088 -0.167582
0 0.127066 0.176157
0 0.325988 0.451933
0 0.399142 0.55335
0 0.318304 0.44128
0 0.114662 0.158961
0 -0.133218 -0.184686
0 -0.329701 -0.439834
0 0.0171086 -0.845242
0 0.0138083 -0.70894
0 0.00518064 -0.265982
0 -0.00544575 0.279594
0 -0.0139711 0.7173
0 -0.0171063 0.878267
0 -0.0136418 0.700392
0 -0.00491415 0.252301
0 0.00570941 -0.29313
0 0.0141302 -0.698097
0 0.426812 -0.83184
0 0.344478 -0.6977
0 0.129242 -0.261765
0 -0.135856 0.275161
0 -0.34854 0.705927
0 -0.426755 0.864342
0 -0.340324 0.689287
0 -0.122594 0.2483
0 0.142434 -0.288483
0 0.35251 -0.687028
0 0.671848 -0.497509
0 0.542246 -0.401537
0 0.203441 -0.15065
0 -0.213852 0.158359
0 -0.54864 0.406272
0 -0.671759 0.497443
0 -0.535708 0.396696
0 -0.192977 0.142901
0 0.224206 -0.166026
0 0.554888 -0.410899
0 0.536814 0
0 0.455799 0
0 0.171008 0
0 -0.179759 0
0 -0.461174 0
0 -0.564664 0
0 -0.450303 0
0 -0.162211 0
0 0.188462 0
0 0.443362 0
0.075753 0.329707 0.576603
0.209865 0.281227 0.492413
0.258657 0.105718 0.185125
0.207519 -0.111142 -0.194625
0.0763153 -0.285137 -0.499312
-0.0843318 -0.349122 -0.61136
-0.212443 -0.278415 -0.487542
-0.258589 -0.100304 -0.175647
-0.204845 0.116045 0.203165
-0.0681546 0.27231 0.476224
0.12228 -0.00460313 0.930748
0.338762 -0.00391001 0.794848
0.417523 -0.00146967 0.298826
0.334977 0.00154509 -0.314162
0.123188 0.00396394 -0.805984
-0.136128 0.00485343 -0.986853
-0.342923 0.00387049 -0.786987
-0.417412 0.00139441 -0.283528
-0.33066 -0.00161358 0.327947
-0.110015 -0.00380179 0.768718
0.12163 -0.337137 0.925804
0.336963 -0.287312 0.790626
0.415305 -0.108007 0.297239
0.333197 0.11355 -0.312493
0.122533 0.291313 -0.801702
-0.135405 0.356683 -0.981611
-0.341102 0.284445 -0.782806
-0.415195 0.102477 -0.282022
-0.328903 -0.118553 0.326205
-0.10943 -0.278446 0.764634
0.0740549 -0.539602 0.563677
0.205161 -0.459856 0.481374
0.252859 -0.17287 0.180974
0.202868 0.18174 -0.190262
0.0746046 0.466256 -0.488118
-0.0824414 0.570888 -0.597657
-0.207681 0.455267 -0.476613
-0.252792 0.164018 -0.17171
-0.200253 -0.189749 0.198611
-0.0666268 -0.445664 0.465549
-0.00209151 -0.533883 -0.0159198
-0.00579427 -0.454983 -0.0135953
-0.00714142 -0.171038 -0.00511121
-0.00572949 0.179814 0.00537351
-0.00210704 0.461316 0.0137858
0.00232834 0.564837 0.0168794
0.00586544 0.450442 0.0134609
0.00713953 0.16228 0.00484952
0.00565569 -0.187738 -0.00560929
0.00188172 -0.440942 -0.0131483
-0.077431 -0.322189 -0.589375
-0.214514 -0.274574 -0.503319
-0.264386 -0.103218 -0.189225
-0.212115 0.108515 0.198936
-0.0780056 0.278395 0.510372
0.0861995 0.34087 0.6249
0.217148 0.271834 0.498342
0.264316 0.0979329 0.179537
0.209382 -0.113297 -0.207666
0.0696642 -0.2661 -0.486773
-0.122897 0.0138083 -0.935445
-0.340464 0.0117503 -0.79884
-0.419619 0.00441677 -0.300327
-0.336659 -0.00464337 0.315739
-0.123806 -0.0119126 0.810033
0.136811 -0.0145859 0.99181
0.344645 -0.0116318 0.790939
0.419508 -0.00419055 0.284952
0.33232 0.00484899 -0.329596
0.11057 0.0114045 -0.772597
-0.120948 0.344478 -0.920613
-0.334721 0.292829 -0.785416
-0.412534 0.110066 -0.295265
-0.330974 -0.115713 0.310415
-0.121716 -0.296861 0.796373
0.134501 -0.363479 0.975085
0.338827 -0.289865 0.777602
0.412425 -0.104428 0.280146
0.326714 0.120847 -0.324073
0.108817 0.284509 -0.760347
-0.0723371 0.542246 -0.550602
-0.189103 0.437645 -0.444389
-0.232912 0.164197 -0.166727
-0.186861 -0.172599 0.175259
-0.0687184 -0.442805 0.449629
0.0759366 -0.542174 0.550529
0.191295 -0.432368 0.439031
0.23285 -0.155751 0.158151
0.18457 0.180956 -0.183745
0.0650813 0.447848 -0.45475
0 0.201403 0
0 0.171008 0
0 0.0641593 0
0 -0.0674425 0
0 -0.173024 0
0 -0.211852 0
0 -0.168946 0
0 -0.060859 0
0 0.0707078 0
0 0.166342 0
0.12228 0.1237 0.409746
0.338762 0.105718 0.34993
0.417523 0.039745 0.131561
0.334977 -0.0417846 -0.138314
0.123188 -0.107199 -0.354845
-0.136128 -0.131255 -0.434474
-0.342923 -0.104672 -0.346481
-0.417412 -0.0377101 -0.124827
-0.33066 0.0436183 0.144373
-0.110015 0.102166 0.338415
0.197383 -0.00172702 0.661409
0.546829 -0.00146967 0.564854
0.673964 -0.000552473 0.212365
0.540716 0.000580819 -0.223265
0.198849 0.0014901 -0.572789
-0.219736 0.0018245 -0.701325
-0.553544 0.00145498 -0.559287
-0.673785 0.000524182 -0.201495
-0.533747 -0.000606443 0.233046
-0.177585 -0.00142637 0.546267
0.196335 -0.126488 0.657895
0.543924 -0.108007 0.561853
0.670383 -0.0406066 0.211237
0.537844 0.0426906 -0.222079
0.197792 0.109523 -0.569746
-0.218568 0.134101 -0.6976
-0.550603 0.106941 -0.556315
-0.670206 0.0385278 -0.200424
-0.530911 -0.0445616 0.231808
-0.176641 -0.104468 0.543365
0.119539 -0.202449 0.400561
0.331169 -0.17287 0.342086
0.408164 -0.0649923 0.128612
0.327468 0.0683281 -0.135213
0.120426 0.175296 -0.346891
-0.133076 0.214633 -0.424735
-0.335237 0.171164 -0.338715
-0.408056 0.0616655 -0.122029
-0.323247 -0.0713228 0.141137
-0.107548 -0.167206 0.330829
-0.0033761 -0.200304 -0.0113129
-0.00935306 -0.171038 -0.00966142
-0.0115276 -0.0643036 -0.00363237
-0.00924851 0.0676041 0.00381878
-0.00340115 0.173438 0.00979713
0.00375841 0.212359 0.0119957
0.00946793 0.16935 0.00956614
0.0115245 0.061012 0.00344641
0.0091294 -0.070567 -0.00398609
0.00303746 -0.165434 -0.00934349
-0.124989 -0.12088 -0.418822
-0.346266 -0.103218 -0.35768
-0.42677 -0.0388061 -0.134476
-0.342396 0.040798 0.141378
-0.125916 0.104667 0.362705
0.139143 0.128155 0.444098
0.350519 0.1022 0.354155
0.426658 0.0368198 0.127592
0.337983 -0.042586 -0.147571
0.112452 -0.0998364 -0.345911
-0.198379 0.00518064 -0.664747
-0.549574 0.00441677 -0.567692
-0.677347 0.00166037 -0.213432
-0.543432 -0.00174556 0.224387
-0.199847 -0.00447825 0.575666
0.220839 -0.00548321 0.704847
0.556323 -0.00437269 0.562095
0.677168 -0.00157534 0.202507
0.536428 0.00182248 -0.234217
0.178481 0.00427876 -0.549024
-0.195234 0.129242 -0.654207
-0.540304 0.110066 -0.558141
-0.66591 0.0413746 -0.209831
-0.534254 -0.0434976 0.220599
-0.196472 -0.111593 0.565949
0.21711 -0.136636 0.69295
0.54693 -0.108963 0.552608
0.665734 -0.0392558 0.199088
0.527378 0.0454181 -0.230291
0.175651 0.106743 -0.540319
-0.116766 0.203441 -0.391269
-0.305249 0.164197 -0.315792
-0.375964 0.0616039 -0.11848
-0.30163 -0.0647563 0.124543
-0.110925 -0.166133 0.319516
0.122576 -0.203414 0.391217
0.308786 -0.162217 0.311984
0.375864 -0.058435 0.112385
0.297931 0.0678916 -0.130573
0.105054 0.168025 -0.323155
0 -0.21171 0
0 -0.179759 0
0 -0.0674425 0
0 0.0708938 0
0 0.181879 0
0 0.222694 0
0 0.177591 0
0 0.0639734 0
0 -0.0743262 0
0 -0.174854 0
0.12163 -0.130031 0.084806
0.336963 -0.111142 0.0724251
0.415305 -0.0417846 0.0272292
0.333197 0.0439291 -0.0286268
0.122533 0.112701 -0.0734424
-0.135405 0.137991 -0.0899231
-0.341102 0.110044 -0.0717111
-0.415195 0.0396455 -0.0258354
-0.328903 -0.045856 0.0298809
-0.10943 -0.107394 0.0700425
0.196335 0.00181539 0.136893
0.543924 0.00154509 0.116908
0.670383 0.000580818 0.0439532
0.537844 -0.000610627 -0.0462091
0.197792 -0.00156655 -0.11855
-0.218568 -0.00191812 -0.145154
-0.550603 -0.00152965 -0.115755
-0.670206 -0.000551078 -0.0417033
-0.530911 0.000637553 0.0482334
-0.176641 0.00149936 0.113062
0.195292 0.132961 0.136166
0.541034 0.11355 0.116287
0.666822 0.0426906 0.0437197
0.534986 -0.0448817 -0.0459636
0.196742 -0.115144 -0.11792
-0.217407 -0.140983 -0.144382
-0.547679 -0.11243 -0.11514
-0.666645 -0.0405053 -0.0414818
-0.528091 0.046848 0.0479772
-0.175703 0.109814 0.112461
0.118904 0.212809 0.0829049
0.32941 0.18174 0.0708013
0.405996 0.0683281 0.0266188
0.325728 -0.0718351 -0.0279851
0.119787 -0.184293 -0.0717959
-0.132369 -0.22565 -0.0879072
-0.333456 -0.179949 -0.0701035
-0.405889 -0.0648304 -0.0252563
-0.321529 0.074982 0.029211
-0.106977 0.175762 0.0684723
-0.00335816 0.210554 -0.00234146
-0.00930337 0.179814 -0.00199962
-0.0114663 0.0676041 -0.000751788
-0.00919945 -0.0710739 0.000790372
-0.0033831 -0.18234 0.0020277
0.00373845 -0.223258 0.00248274
0.00941765 -0.178042 0.00197991
0.0114633 -0.0641435 0.000713302
0.00908089 0.0741874 -0.000824998
0.00302132 0.1739 -0.00193384
-0.124325 0.127066 -0.0866845
-0.344427 0.108515 -0.0740291
-0.424503 0.040798 -0.0278324
-0.340577 -0.0428918 0.0292609
-0.125248 -0.110039 0.0750687
0.138403 -0.134733 0.0919148
0.348657 -0.107445 0.0732997
0.424391 -0.0387094 0.0264076
0.336188 0.0447708 -0.0305427
0.111854 0.104945 -0.0715939
-0.197326 -0.00544575 -0.137584
-0.546655 -0.00464337 -0.117495
-0.673749 -0.00174556 -0.0441739
-0.540545 0.00183514 0.0464412
-0.198786 0.00470806 0.119145
0.219666 0.00576457 0.145883
0.553368 0.00459709 0.116337
0.673571 0.00165618 0.0419128
0.533578 -0.00191597 -0.0484757
0.177533 -0.00449772 -0.113633
-0.194197 -0.135856 -0.135403
-0.537433 -0.115713 -0.115519
-0.662373 -0.0434976 -0.0434286
-0.531416 0.0457295 0.0456573
-0.195429 0.117319 0.117134
0.215957 0.143647 0.14342
0.544025 0.114554 0.114373
0.662197 0.04127 0.0412052
0.524577 -0.0477478 -0.0476633
0.174718 -0.112205 -0.111831
-0.116146 -0.213852 -0.0809819
-0.303627 -0.172599 -0.0653602
-0.373967 -0.0647563 -0.024522
-0.300028 0.0680701 0.0257769
-0.110335 0.174635 0.0661309
0.121925 0.213824 0.0809711
0.307146 0.170518 0.0645721
0.373868 0.0614253 0.0232606
0.296349 -0.0713658 -0.0270249
0.104496 -0.176623 -0.066884
0 -0.543144 0
0 -0.461174 0
0 -0.173024 0
0 0.181879 0
0 0.466612 0
0 0.571323 0
0 0.455613 0
0 0.164124 0
0 -0.190685 0
0 -0.44859 0
0.0740549 -0.333595 -0.272853
0.205161 -0.285136 -0.233017
0.252859 -0.107199 -0.0876064
0.202868 0.112701 0.0921028
0.0746046 0.289133 0.23629
-0.0824414 0.354016 0.289316
-0.207681 0.282317 0.230721
-0.252792 0.101711 0.083122
-0.200253 -0.117644 -0.0961376
-0.0666268 -0.275521 -0.225353
0.119539 0.00465741 -0.440437
0.331169 0.00396395 -0.376135
0.408164 0.0014901 -0.141414
0.327468 -0.00156655 0.148672
0.120426 -0.00401904 0.381417
-0.133076 -0.00492097 0.46701
-0.335237 -0.0039243 0.372427
-0.408056 -0.00141379 0.134175
-0.323247 0.00163564 -0.155185
-0.107548 0.00384662 -0.363763
0.118904 0.341113 -0.438097
0.32941 0.291313 -0.374137
0.405996 0.109523 -0.140663
0.325728 -0.115144 0.147882
0.119787 -0.295404 0.379391
-0.132369 -0.361694 0.46453
-0.333456 -0.288441 0.370449
-0.405889 -0.103917 0.133462
-0.321529 0.120188 -0.15436
-0.106977 0.28173 -0.361831
0.0723948 0.545965 -0.266736
0.200562 0.466256 -0.227794
0.247191 0.175296 -0.0856425
0.19832 -0.184293 0.0900382
0.0729326 -0.472805 0.230993
-0.080593 -0.578907 0.28283
-0.203026 -0.46166 0.225549
-0.247126 -0.166323 0.0812586
-0.195764 0.192366 -0.0939828
-0.0651333 0.45092 -0.220301
-0.00204462 0.540179 0.00753335
-0.0056644 0.461316 0.00643349
-0.0069813 0.173438 0.00241878
-0.00560108 -0.18234 -0.00254291
-0.00205978 -0.467794 -0.00652386
0.00227619 -0.572771 -0.00798786
0.00573394 -0.456768 -0.00637008
0.00697946 -0.164561 -0.00229497
0.00552891 0.190329 0.00265432
0.00183954 0.446141 0.0062219
-0.0756953 0.325988 0.278897
-0.209705 0.278395 0.238179
-0.25846 0.104667 0.0895469
-0.207361 -0.110039 -0.0941428
-0.0762571 -0.282306 -0.241524
0.0842674 -0.345657 -0.295724
0.21228 -0.275651 -0.235831
0.258391 -0.0993093 -0.0849632
0.204689 0.11486 0.098267
0.0681026 0.269238 0.230345
-0.120142 -0.0139711 0.442659
-0.332832 -0.0119126 0.378024
-0.410214 -0.00447825 0.142124
-0.329112 0.00470806 -0.149418
-0.121031 0.0120785 -0.383333
0.133744 0.0147891 -0.469355
0.33692 0.0117939 -0.374297
0.410105 0.00424895 -0.134848
0.32487 -0.00491543 0.155965
0.108091 -0.0115389 0.365599
-0.118237 -0.34854 0.435641
-0.327217 -0.296861 0.371666
-0.403287 -0.111593 0.139726
-0.323554 0.117319 -0.146897
-0.118987 0.300983 -0.376864
0.131486 0.368526 -0.461434
0.331231 0.29389 -0.36798
0.40318 0.105879 -0.132572
0.319389 -0.122497 0.15335
0.106377 -0.287864 0.359802
-0.0707155 -0.54864 0.260549
-0.184864 -0.442805 0.210288
-0.227691 -0.166133 0.0788966
-0.182673 0.174635 -0.0829339
-0.0671779 0.448027 -0.212768
0.0742344 0.548567 -0.260514
0.187006 0.437466 -0.207753
0.22763 0.157587 -0.0748382
0.180432 -0.18309 0.0869493
0.0636224 -0.45313 0.215191
0 -0.665029 0
0 -0.564664 0
0 -0.211852 0
0 0.222694 0
0 0.571323 0
0 0.699531 0
0 0.557855 0
0 0.200955 0
0 -0.233475 0
0 -0.549257 0
-0.00209151 -0.408456 -0.525243
-0.00579427 -0.349122 -0.44856
-0.00714142 -0.131255 -0.168643
-0.00572948 0.137991 0.177298
-0.00210704 0.354016 0.454861
0.00232834 0.433459 0.556933
0.00586544 0.345671 0.444138
0.00713953 0.124535 0.16001
0.00565569 -0.144044 -0.185066
0.00188172 -0.337349 -0.433805
-0.0033761 0.00570256 -0.847843
-0.00935306 0.00485342 -0.724061
-0.0115276 0.0018245 -0.272222
-0.00924851 -0.00191812 0.286194
-0.00340115 -0.00492097 0.734231
0.00375841 -0.00602524 0.898999
0.00946794 -0.00480494 0.716925
0.0115245 -0.00173105 0.258287
0.0091294 0.00200271 -0.298731
0.00303746 0.00470982 -0.700245
-0.00335816 0.417661 -0.843339
-0.00930337 0.356683 -0.720215
-0.0114663 0.134101 -0.270776
-0.00919945 -0.140983 0.284674
-0.0033831 -0.361694 0.73033
0.00373845 -0.44286 0.894222
0.00941765 -0.353168 0.713115
0.0114633 -0.127236 0.256915
0.00908089 0.14716 -0.297145
0.00302132 0.344952 -0.696526
-0.00204462 0.668483 -0.513469
-0.0056644 0.570888 -0.438503
-0.0069813 0.214633 -0.164863
-0.00560108 -0.22565 0.173324
-0.00205978 -0.578907 0.444664
0.00227619 -0.708815 0.544449
0.00573394 -0.56526 0.434181
0.00697946 -0.203647 0.156423
0.00552891 0.235535 -0.180917
0.00183954 0.552109 -0.424081
5.77456e-05 0.661399 0.0145017
0.000159976 0.564837 0.0123845
0.000197174 0.212359 0.00465612
0.00015819 -0.223258 -0.00489514
5.81746e-05 -0.572771 -0.0125584
-6.42835e-05 -0.701304 -0.0153766
-0.000161946 -0.55927 -0.0122625
-0.000197122 -0.201489 -0.00441782
-0.000156151 0.233039 0.00510958
-5.19534e-05 0.546258 0.0119772
0.00213784 0.399142 0.536877
0.0059226 0.34087 0.458496
0.00729962 0.128155 0.172378
0.00585642 -0.134733 -0.181226
0.0021537 -0.345657 -0.464934
-0.00237993 -0.423224 -0.56927
-0.00599538 -0.33751 -0.453977
-0.00729769 -0.121595 -0.163554
-0.00578095 0.140635 0.189165
-0.0019234 0.329657 0.443414
0.00339313 -0.0171063 0.852122
0.00940006 -0.0145859 0.727698
0.0115855 -0.00548321 0.273589
0.00929492 0.00576457 -0.287631
0.00341823 0.0147891 -0.737918
-0.00377728 0.0181079 -0.903514
-0.00951548 0.0144405 -0.720525
-0.0115824 0.00520243 -0.259584
-0.00917521 -0.00601848 0.300232
-0.00305278 -0.0141284 0.703779
0.00333933 -0.426755 0.838611
0.0092415 -0.363479 0.715457
0.0113899 -0.136636 0.268972
0.00913811 0.143647 -0.282776
0.00336053 0.368526 -0.725464
-0.0037135 0.451226 -0.888263
-0.00935479 0.35984 -0.708364
-0.0113868 0.129638 -0.255202
-0.00902042 -0.149986 0.295199
-0.00300438 -0.352463 0.692621
0.0019972 -0.671759 0.501558
0.00522105 -0.542174 0.404806
0.00643059 -0.203414 0.151876
0.00515916 0.213824 -0.159648
0.00189728 0.548567 -0.409579
-0.00209658 0.671669 -0.501492
-0.00528156 0.535636 -0.399925
-0.00642888 0.192951 -0.144064
-0.00509589 -0.224176 0.167378
-0.00179687 -0.554815 0.414244
0 -0.530341 0
0 -0.450303 0
0 -0.168946 0
0 0.177591 0
0 0.455613 0
0 0.557855 0
0 0.444873 0
0 0.160256 0
0 -0.18619 0
0 -0.438016 0
-0.077431 -0.325731 -0.57499
-0.214514 -0.278415 -0.491044
-0.264386 -0.104672 -0.184616
-0.212115 0.110044 0.194091
-0.0780056 0.282317 0.497942
0.0861995 0.345671 0.609682
0.217148 0.275663 0.486203
0.264316 0.0993132 0.175165
0.209382 -0.114871 -0.202594
0.0696642 -0.269026 -0.474893
-0.124989 0.00454762 -0.928145
-0.346266 0.00387048 -0.792639
-0.42677 0.00145498 -0.298005
-0.342396 -0.00152965 0.3133
-0.125916 -0.0039243 0.803773
0.139143 -0.00480495 0.984145
0.350519 -0.00383181 0.784826
0.426658 -0.00138048 0.282751
0.337983 0.00159709 -0.327025
0.112452 0.00375594 -0.766568
-0.124325 0.333072 -0.923215
-0.344427 0.284445 -0.788428
-0.424503 0.106941 -0.296422
-0.340577 -0.11243 0.311635
-0.125248 -0.288441 0.799503
0.138403 -0.353168 0.978916
0.348657 -0.281641 0.780657
0.424391 -0.101467 0.281248
0.336188 0.117356 -0.325288
0.111854 0.275089 -0.762496
-0.0756953 0.533095 -0.562101
-0.209705 0.455267 -0.480036
-0.25846 0.171164 -0.180477
-0.207361 -0.179949 0.18974
-0.0762571 -0.46166 0.486778
0.0842674 -0.56526 0.596016
0.21228 -0.450779 0.475305
0.258391 -0.162402 0.171239
0.204689 0.187833 -0.198052
0.0681026 0.44029 -0.464247
0.00213784 0.527446 0.0158752
0.00592261 0.450442 0.0135576
0.00729962 0.16935 0.00509714
0.00585641 -0.178042 -0.00535877
0.0021537 -0.456768 -0.0137479
-0.00237993 -0.55927 -0.0168331
-0.00599538 -0.446001 -0.0134239
-0.00729769 -0.160681 -0.00483624
-0.00578095 0.185842 0.00559353
-0.0019234 0.435625 0.0131116
0.0791461 0.318304 0.587727
0.219265 0.271834 0.501922
0.270243 0.1022 0.188705
0.216814 -0.107445 -0.19839
0.0797334 -0.275651 -0.508971
-0.0881089 -0.33751 -0.623185
-0.221958 -0.269154 -0.496974
-0.270171 -0.0969684 -0.179045
-0.21402 0.112152 0.207082
-0.0712074 0.262892 0.485412
0.125619 -0.0136418 0.932829
0.348005 -0.0116318 0.79662
0.428913 -0.00437269 0.299501
0.344115 0.00459709 -0.314873
0.126549 0.0117939 -0.80781
-0.139841 0.0144405 -0.989087
-0.352279 0.0115158 -0.788768
-0.4288 0.00414879 -0.28417
-0.33968 -0.00479955 0.328669
-0.113019 -0.0112669 0.770436
0.123628 -0.340324 0.918039
0.342135 -0.289865 0.783221
0.421672 -0.108963 0.294449
0.338305 0.114554 -0.309559
0.124412 0.29389 -0.794175
-0.13748 0.35984 -0.972393
-0.34633 0.286962 -0.775455
-0.42156 0.103383 -0.279373
-0.333951 -0.11961 0.323158
-0.111227 -0.281078 0.758221
0.0739394 -0.535708 0.549063
0.193292 -0.432368 0.443146
0.238071 -0.162217 0.166261
0.191 0.170518 -0.174769
0.0702405 0.437466 -0.448372
-0.0776187 0.535636 -0.54899
-0.195532 0.427154 -0.437803
-0.238008 0.153873 -0.157709
-0.188658 -0.178774 0.183231
-0.0665229 -0.442448 0.453478
0 -0.191043 0
0 -0.162211 0
0 -0.060859 0
0 0.0639734 0
0 0.164124 0
0 0.200955 0
0 0.160256 0
0 0.0577285 0
0 -0.0670707 0
0 -0.157785 0
-0.122897 -0.117337 -0.402902
-0.340464 -0.100304 -0.34409
-0.419619 -0.0377101 -0.129366
-0.336659 0.0396456 0.136006
-0.123806 0.101711 0.348923
0.136811 0.124535 0.427224
0.344645 0.0993133 0.340699
0.419508 0.0357796 0.122744
0.33232 -0.0413839 -0.141963
0.11057 -0.0969106 -0.332763
-0.198379 0.00163818 -0.650362
-0.549574 0.00139441 -0.555425
-0.677347 0.000524183 -0.208822
-0.543432 -0.000551079 0.219539
-0.199847 -0.0014138 0.563229
0.220839 -0.00173106 0.689621
0.556323 -0.00138049 0.549953
0.677168 -0.000497348 0.198132
0.536428 0.000575377 -0.229156
0.178481 0.00135299 -0.537143
-0.197326 0.119982 -0.646907
-0.546655 0.102477 -0.552475
-0.673749 0.0385279 -0.207712
-0.540545 -0.0405054 0.218373
-0.198786 -0.103917 0.560237
0.219666 -0.127236 0.685958
0.553368 -0.101467 0.547032
0.673571 -0.0365559 0.19708
0.533578 0.0422793 -0.227939
0.177533 0.0990946 -0.534289
-0.120142 0.192036 -0.393871
-0.332832 0.164018 -0.336377
-0.410214 0.0616656 -0.126466
-0.329112 -0.0648306 0.132957
-0.121031 -0.166323 0.341102
0.133744 -0.203647 0.417647
0.33692 -0.162403 0.333062
0.410105 -0.058509 0.119992
0.32487 0.0676697 -0.138781
0.108091 0.158605 -0.325303
0.00339313 0.190001 0.011124
0.00940006 0.16228 0.00950016
0.0115855 0.0610121 0.00357174
0.00929492 -0.0641435 -0.00375505
0.00341823 -0.164561 -0.00963357
-0.00377728 -0.201489 -0.0117954
-0.00951548 -0.160681 -0.00940651
-0.0115824 -0.057889 -0.00338891
-0.00917521 0.0669525 0.00391956
-0.00305278 0.156924 0.00918743
0.125619 0.114662 0.411827
0.348005 0.0979331 0.351711
0.428913 0.0368198 0.132231
0.344115 -0.0387095 -0.139018
0.126549 -0.0993095 -0.356652
-0.139841 -0.121595 -0.436686
-0.352279 -0.0969686 -0.348245
-0.4288 -0.034935 -0.125463
-0.33968 0.0404046 0.145108
-0.113019 0.0947009 0.340134
0.199381 -0.00491415 0.653644
0.552333 -0.00419055 0.558216
0.680748 -0.00157535 0.20987
0.54616 0.00165619 -0.220642
0.200851 0.00424895 -0.566058
-0.221948 0.00520244 -0.693084
-0.559117 0.00414879 -0.552714
-0.680568 0.00149468 -0.199127
-0.539122 -0.0017291 0.230308
-0.179382 -0.00405866 0.539854
0.196219 -0.122594 0.64328
0.543018 -0.104428 0.548826
0.669255 -0.0392559 0.206329
0.536937 0.0412701 -0.216917
0.197459 0.105879 -0.556503
-0.2182 0.129639 -0.681387
-0.549676 0.103383 -0.543386
-0.669078 0.0372456 -0.195765
-0.530027 -0.0430909 0.226447
-0.176538 -0.101252 0.531294
0.117355 -0.192977 0.384734
0.306789 -0.155751 0.310518
0.377862 -0.058435 0.116501
0.303152 0.0614253 -0.122463
0.111484 0.157587 -0.314179
-0.123195 0.192951 -0.384683
-0.310345 0.153873 -0.306773
-0.377761 0.0554292 -0.110508
-0.299435 -0.0643993 0.128392
-0.105584 -0.159382 0.317757
0 0.22196 0
0 0.188462 0
0 0.0707078 0
0 -0.0743262 0
0 -0.190685 0
0 -0.233475 0
0 -0.18619 0
0 -0.0670707 0
0 0.0779247 0
0 0.18332 0
-0.120948 0.136326 -0.0753717
-0.334721 0.11604 -0.0647745
-0.412534 0.0436163 -0.0243612
-0.330974 -0.045854 0.0256124
-0.121716 -0.117639 0.0657084
0.134501 -0.144038 0.0804539
0.338827 -0.114866 0.0641596
0.412425 -0.0413821 0.0231155
0.326714 0.0478883 -0.0267147
0.108817 0.112594 -0.0622506
-0.195234 -0.00190329 -0.121665
-0.540304 -0.0016135 -0.104558
-0.665911 -0.000606414 -0.0393237
-0.534254 0.00063752 0.0413433
-0.196472 0.00163556 0.106066
0.21711 0.0020026 0.129868
0.54693 0.00159701 0.103566
0.665734 0.000575346 0.0373128
0.527379 -0.000665944 -0.0431227
0.175651 -0.00157195 -0.100484
-0.194197 -0.139398 -0.121018
-0.537433 -0.118548 -0.104003
-0.662373 -0.0445596 -0.0391148
-0.531416 0.0468458 0.0411237
-0.195429 0.120183 0.105503
0.215957 0.147153 0.129178
0.544024 0.11735 0.103016
0.662197 0.0422773 0.0371146
0.524577 -0.0489223 -0.0428937
0.174718 -0.115131 -0.0999506
-0.118237 -0.223113 -0.0736822
-0.327217 -0.189741 -0.0633225
-0.403287 -0.0713195 -0.0238151
-0.323554 0.0749785 0.0250382
-0.118987 0.192357 0.0642355
0.131486 0.235524 0.0786504
0.331231 0.187824 0.0627216
0.40318 0.0676664 0.0225973
0.319389 -0.0783018 -0.0261159
0.106377 -0.184272 -0.0608551
0.00333933 -0.220748 0.00208098
0.0092415 -0.18773 0.0017884
0.0113899 -0.0705637 0.000672603
0.00913811 0.074184 -0.000707144
0.00336053 0.19032 -0.00181418
-0.0037135 0.233028 -0.0022213
-0.00935479 0.185834 -0.00177142
-0.0113868 0.0669493 -0.000638207
-0.00902042 -0.077472 0.000737583
-0.00300438 -0.182319 0.00171871
0.123628 -0.133218 0.0770413
0.342135 -0.113292 0.0662092
0.421672 -0.0425841 0.0249008
0.338305 0.0447687 -0.0261796
0.124412 0.114855 -0.0671639
-0.13748 0.140629 -0.0822361
-0.34633 0.112147 -0.0655807
-0.42156 0.0404027 -0.0236275
-0.333951 -0.046753 0.0273065
-0.111227 -0.110026 0.0636295
0.196219 0.00570941 0.122278
0.543018 0.00484878 0.105083
0.669255 0.00182239 0.0395211
0.536937 -0.00191588 -0.0415507
0.197459 -0.00491521 -0.106598
-0.2182 -0.00601821 -0.130519
-0.549676 -0.00479933 -0.104086
-0.669078 -0.00172902 -0.0374999
-0.530027 0.00200119 0.0433392
-0.176538 0.00471548 0.100991
0.193108 0.142434 0.12034
0.533872 0.120842 0.103299
0.657971 0.0454161 0.0388475
0.527886 -0.0477457 -0.0408424
0.19413 -0.122492 -0.104781
-0.214522 -0.14998 -0.128295
-0.540409 -0.119605 -0.102312
-0.657797 -0.043089 -0.0368606
-0.5211 0.0498757 0.0426063
-0.173738 0.117638 0.0993903
0.115495 0.224206 0.071973
0.301925 0.180956 0.0580892
0.371871 0.0678916 0.0217941
0.298346 -0.0713658 -0.0229093
0.109717 -0.18309 -0.0587742
-0.121242 -0.224176 -0.0719635
-0.305424 -0.178774 -0.0573887
-0.371772 -0.0643993 -0.020673
-0.294687 0.0748211 0.0240185
-0.10391 0.185175 0.0594435
0 0.54933 0
0 0.443362 0
0 0.166342 0
0 -0.174854 0
0 -0.44859 0
0 -0.549257 0
0 -0.438016 0
0 -0.157785 0
0 0.18332 0
0 0.453699 0
-0.0723371 0.337394 0.281238
-0.189103 0.27231 0.226986
-0.232912 0.102166 0.0851614
-0.186861 -0.107394 -0.0895194
-0.0687184 -0.275521 -0.229663
0.0759366 -0.337349 -0.281201
0.191295 -0.269026 -0.224249
0.23285 -0.0969106 -0.0807808
0.18457 0.112594 0.0938536
0.0650813 0.278659 0.232279
-0.116766 -0.00471045 0.453973
-0.305249 -0.00380179 0.3664
-0.375964 -0.00142637 0.137467
-0.30163 0.00149936 -0.144502
-0.110925 0.00384662 -0.37072
0.122576 0.00470982 -0.453912
0.308786 0.00375594 -0.361982
0.375864 0.00135299 -0.130396
0.297931 -0.00157195 0.151498
0.105054 -0.00389042 0.374942
-0.116146 -0.344998 0.451561
-0.303627 -0.278446 0.364453
-0.373967 -0.104468 0.136737
-0.300028 0.109814 -0.143734
-0.110335 0.28173 -0.368751
0.121925 0.344952 -0.451501
0.307146 0.275089 -0.360059
0.373868 0.0990946 -0.129703
0.296349 -0.115131 0.150693
0.104496 -0.284938 0.372951
-0.0707155 -0.552182 0.274934
-0.184864 -0.445664 0.221898
-0.227691 -0.167206 0.0832524
-0.182672 0.175762 -0.0875127
-0.0671779 0.45092 -0.224515
0.0742344 0.552109 -0.274897
0.187006 0.440291 -0.219222
0.22763 0.158605 -0.07897
0.180432 -0.184272 0.0917497
0.0636224 -0.456055 0.227072
0.0019972 -0.546331 -0.00776486
0.00522105 -0.440942 -0.00626699
0.00643059 -0.165434 -0.00235127
0.00515916 0.1739 0.00247159
0.00189728 0.446141 0.00634089
-0.00209658 0.546258 0.00776383
-0.00528156 0.435625 0.00619143
-0.00642888 0.156924 0.00223032
-0.00509589 -0.182319 -0.00259126
-0.00179687 -0.451222 -0.00641311
0.0739394 -0.329701 -0.287468
0.193292 -0.2661 -0.232014
0.238071 -0.0998364 -0.0870478
0.191 0.104945 0.0915023
0.0702405 0.269238 0.23475
-0.0776187 0.329657 0.28743
-0.195532 0.262892 0.229217
-0.238008 0.0947009 0.0825702
-0.188658 -0.110026 -0.0959325
-0.0665229 -0.272305 -0.237424
0.117355 0.0141302 -0.456264
0.306789 0.0114045 -0.368249
0.377862 0.00427876 -0.138161
0.303152 -0.00449772 0.145231
0.111484 -0.0115389 0.372591
-0.123195 -0.0141284 0.456203
-0.310345 -0.0112669 0.363808
-0.377761 -0.00405866 0.131054
-0.299435 0.00471548 -0.152262
-0.105584 0.0116704 -0.376834
0.115495 0.35251 -0.449029
0.301925 0.284509 -0.36241
0.371871 0.106743 -0.13597
0.298346 -0.112205 0.142928
0.109717 -0.287864 0.366684
-0.121242 -0.352463 0.44897
-0.305424 -0.281079 0.35804
-0.371772 -0.101252 0.128976
-0.294687 0.117638 -0.149848
-0.10391 0.291142 -0.37086
0.0690752 0.554888 -0.268556
0.180576 0.447848 -0.216751
0.222409 0.168025 -0.0813213
0.178435 -0.176623 0.0854827
0.0656197 -0.45313 0.219307
-0.0725124 -0.554815 0.268521
-0.182669 -0.442448 0.214137
-0.22235 -0.159382 0.0771382
-0.176247 0.185175 -0.0896215
-0.0621466 0.45829 -0.221804
