# vtk DataFile Version 3.0
Velocity field
ASCII
DATASET STRUCTURED_POINTS
DIMENSIONS 5 5 5
SPACING 1.33333 1.33333 1.33333
ORIGIN 0 0 0
POINT_DATA 125
VECTORS velocity float
0 0.493015 0
0 0.115976 0
0 -0.438451 0
0 -0.322256 0
0 0.286838 0
0 -0.261064 0.856219
0 -0.0614119 0.232125
0 0.232171 -0.877561
0 0.170643 -0.644996
0 -0.151888 0.498151
0 -0.615839 0.40283
0 -0.144868 0.109209
0 0.547682 -0.41287
0 0.402539 -0.303454
0 -0.358297 0.234368
0 -0.0286733 -0.666697
0 -0.00674504 -0.180745
0 0.0254999 0.683315
0 0.0187421 0.502228
0 -0.0166822 -0.387887
0 0.602349 -0.716494
0 0.141695 -0.168546
0 -0.535685 0.637197
0 -0.393721 0.468332
0 0.350449 -0.416859
0 0.115976 0
0 0.0347146 0
0 -0.13124 0
0 -0.0964599 0
0 0.067475 0
0.366459 -0.0614119 0.300689
0.57012 -0.0151844 0.0749571
-0.119513 0.0574834 -0.283824
-0.626424 0.0422612 -0.208672
-0.165587 -0.0357297 0.174942
0.17241 -0.144868 0.141467
0.268229 -0.0359573 0.0352657
-0.0562283 0.136134 -0.133532
-0.294716 0.100086 -0.0981757
-0.0779047 -0.0842849 0.0823058
-0.285344 -0.00674504 -0.234132
-0.443758 -0.00168562 -0.0583437
0.093024 0.00638355 0.220913
0.487582 0.00469346 0.16242
0.128935 -0.00392429 -0.136219
-0.306657 0.141695 -0.25162
-0.450931 0.033332 -0.0591905
0.094505 -0.126013 0.223773
0.495394 -0.092618 0.16447
0.138565 0.0824387 -0.146394
0 -0.438451 0
0 -0.13124 0
0 0.49616 0
0 0.364671 0
0 -0.255092 0
0.17241 0.232171 -0.714752
0.268229 0.0574834 -0.177662
-0.0562283 -0.217625 0.67267
-0.294716 -0.159997 0.494556
-0.0779047 0.135078 -0.415845
0.0811144 0.547682 -0.336273
0.126195 0.136134 -0.0835859
-0.026454 -0.515437 0.316477
-0.138658 -0.378955 0.232676
-0.0366522 0.318643 -0.195645
-0.134247 0.0254999 0.556544
-0.208778 0.00638355 0.138287
0.0437656 -0.0241766 -0.52358
0.229395 -0.017776 -0.384941
0.0606607 0.014836 0.323799
-0.144274 -0.535685 0.598113
-0.212152 -0.126013 0.140699
0.0444622 0.476399 -0.531918
0.23307 0.350147 -0.390953
0.0651916 -0.311663 0.347984
0 -0.322256 0
0 -0.0964599 0
0 0.364671 0
0 0.268029 0
0 -0.18749 0
-0.285344 0.170643 -0.636962
-0.443758 0.0422614 -0.158362
0.093024 -0.159998 0.599601
0.487582 -0.11763 0.440835
0.128935 0.0992804 -0.370587
-0.134247 0.402539 -0.299675
-0.208778 0.100087 -0.0745058
0.0437656 -0.378957 0.2821
0.229395 -0.278615 0.207403
0.0606607 0.234198 -0.174352
0.222184 0.0187421 0.495973
0.345407 0.00469349 0.123265
-0.0724061 -0.0177761 -0.466705
-0.379514 -0.01307 -0.343128
-0.100396 0.0109042 0.288559
0.238779 -0.393721 0.533018
0.351119 -0.092618 0.125386
-0.0735866 0.350147 -0.474027
-0.38574 0.257353 -0.348404
-0.107894 -0.229068 0.310112
0 0.286838 0
0 0.067475 0
0 -0.255092 0
0 -0.18749 0
0 0.166883 0
-0.306657 -0.151888 0.415077
-0.450931 -0.0357297 0.0976417
0.094505 0.135078 -0.369139
0.495393 0.0992804 -0.271313
0.138565 -0.0883688 0.241493
-0.144274 -0.358297 0.195283
-0.212152 -0.0842849 0.045938
0.0444622 0.318643 -0.173671
0.23307 0.234199 -0.127646
0.0651916 -0.208458 0.113617
0.238779 -0.0166822 -0.323201
0.351119 -0.00392429 -0.076029
-0.0735866 0.014836 0.287431
-0.38574 0.0109042 0.211258
-0.107894 -0.00970579 -0.18804
0.256614 0.350449 -0.347342
0.377345 0.0824387 -0.0817078
-0.0790829 -0.311663 0.3089
-0.414551 -0.229068 0.227038
-0.115953 0.203892 -0.202085
