# vtk DataFile Version 3.0
Velocity field
ASCII
DATASET STRUCTURED_POINTS
DIMENSIONS 10 10 10
SPACING 0.631579 0.631579 0.631579
ORIGIN 0 0 0
POINT_DATA 1000
VECTORS velocity float
0 0.636988 0
0 0.514111 0
0 0.192886 0
0 -0.202756 0
0 -0.520173 0
0 -0.636903 0
0 -0.507912 0
0 -0.182964 0
0 0.212573 0
0 0.526097 0
0 0.391233 0.498968
0 0.315763 0.418505
0 0.118469 0.157016
0 -0.124531 -0.165051
0 -0.319486 -0.42344
0 -0.391181 -0.518463
0 -0.311956 -0.413459
0 -0.112375 -0.148939
0 0.130561 0.173042
0 0.323125 0.412104
0 -0.00546211 0.80543
0 -0.00440845 0.675548
0 -0.00165398 0.253454
0 0.00173861 -0.266424
0 0.00446043 -0.683515
0 0.00546139 -0.8369
0 0.00435529 -0.667403
0 0.0015689 -0.240417
0 -0.00182279 0.279324
0 -0.00451123 0.665216
0 -0.40005 0.801151
0 -0.322879 0.67196
0 -0.121139 0.252108
0 0.127338 -0.265009
0 0.326686 -0.679883
0 0.399997 -0.832454
0 0.318986 -0.663857
0 0.114907 -0.23914
0 -0.133503 0.27784
0 -0.330407 0.661682
0 -0.640296 0.487783
0 -0.51678 0.409124
0 -0.193887 0.153496
0 0.203809 -0.161351
0 0.522874 -0.413948
0 0.640211 -0.506841
0 0.510549 -0.404191
0 0.183914 -0.145601
0 -0.213677 0.169163
0 -0.528829 0.402866
0 -0.633511 -0.0137763
0 -0.511304 -0.0115548
0 -0.191833 -0.00433515
0 0.201649 0.00455699
0 0.517334 0.011691
0 0.633427 0.0143145
0 0.505139 0.0114154
0 0.181965 0.00411215
0 -0.211412 -0.00477762
0 -0.523225 -0.011378
0 -0.382313 -0.51002
0 -0.308563 -0.427776
0 -0.115768 -0.160494
0 0.121692 0.168707
0 0.312202 0.43282
0 0.382262 0.529947
0 0.304842 0.422617
0 0.109813 0.152238
0 -0.127584 -0.176875
0 -0.315757 -0.421233
0 0.016385 -0.809494
0 0.0132243 -0.678958
0 0.00496154 -0.254733
0 -0.00521543 0.267769
0 -0.0133802 0.686964
0 -0.0163829 0.841123
0 -0.0130649 0.670771
0 -0.00470632 0.24163
0 0.00546794 -0.280733
0 0.0135326 -0.668573
0 0.408761 -0.79666
0 0.329909 -0.668192
0 0.123776 -0.250695
0 -0.13011 0.263523
0 -0.3338 0.676072
0 -0.408706 0.827787
0 -0.325931 0.660136
0 -0.117409 0.237799
0 0.13641 -0.276282
0 0.337601 -0.657972
0 0.643434 -0.476468
0 0.519313 -0.384555
0 0.194837 -0.144279
0 -0.204808 0.151662
0 -0.525437 0.38909
0 -0.643348 0.476405
0 -0.513051 0.379919
0 -0.184815 0.136857
0 0.214724 -0.159005
0 0.531421 -0.393521
0 0.514111 0
0 0.436522 0
0 0.163776 0
0 -0.172157 0
0 -0.441669 0
0 -0.540783 0
0 -0.431258 0
0 -0.155351 0
0 0.180492 0
0 0.424611 0
0.0725492 0.315763 0.552217
0.200367 0.268622 0.470239
0.246935 0.100961 0.176753
0.198114 -0.106139 -0.18582
0.0728565 -0.272302 -0.476724
-0.0805099 -0.333407 -0.583702
-0.202815 -0.265882 -0.465486
-0.24687 -0.0957872 -0.167698
-0.195574 0.110865 0.194058
-0.0652722 0.260793 0.456084
0.117108 -0.00440845 0.891384
0.323432 -0.00373481 0.759054
0.398601 -0.00140356 0.285313
0.319796 0.00147555 -0.299949
0.117605 0.00378555 -0.769522
-0.129958 0.00463501 -0.942209
-0.327382 0.0036963 -0.751384
-0.398495 0.00133163 -0.270697
-0.315694 -0.00154158 0.313247
-0.105362 -0.003641 0.736207
0.116486 -0.322879 0.886649
0.321714 -0.27441 0.755022
0.396484 -0.103137 0.283798
0.318097 0.108428 -0.298356
0.11698 0.278173 -0.765434
-0.129268 0.340595 -0.937204
-0.325643 0.271615 -0.747392
-0.396379 0.0978528 -0.269259
-0.314017 -0.113252 0.311583
-0.104802 -0.26667 0.732296
0.0709229 -0.51678 0.539838
0.195876 -0.439205 0.459696
0.2414 -0.165075 0.172791
0.193674 0.173543 -0.181655
0.0712234 0.445225 -0.466036
-0.0787052 0.545137 -0.570619
-0.198268 0.434732 -0.455051
-0.241336 0.156618 -0.163939
-0.19119 -0.181265 0.189708
-0.063809 -0.426816 0.44586
-0.00200305 -0.511304 -0.0152465
-0.00553206 -0.43455 -0.0129831
-0.00681778 -0.163326 -0.00488009
-0.00546982 0.171704 0.00513041
-0.00201155 0.440508 0.0131621
0.00222282 0.53936 0.0161158
0.00559962 0.430125 0.0128519
0.00681598 0.154957 0.00463005
0.00539971 -0.179344 -0.00535784
0.00180214 -0.422293 -0.0125923
-0.0741562 -0.308563 -0.564449
-0.204806 -0.262243 -0.480654
-0.252405 -0.0985646 -0.180668
-0.202502 0.10362 0.189936
-0.0744704 0.265838 0.487283
0.0822928 0.325495 0.596631
0.207307 0.259573 0.475797
0.252338 0.093514 0.171412
0.199906 -0.108231 -0.198357
0.066718 -0.254846 -0.466186
-0.117699 0.0132243 -0.895883
-0.325058 0.011225 -0.762869
-0.400604 0.00421858 -0.286747
-0.321402 -0.00443494 0.301457
-0.118196 -0.0113779 0.773391
0.130611 -0.0139311 0.946945
0.329027 -0.0111097 0.75516
0.400498 -0.00400238 0.272057
0.31728 0.00463306 -0.314822
0.105894 0.0109221 -0.739922
-0.115833 0.329909 -0.881678
-0.319607 0.279747 -0.750119
-0.393881 0.105131 -0.281942
-0.316008 -0.110522 0.296403
-0.116212 -0.283545 0.760425
0.128419 -0.347175 0.93107
0.323506 -0.276863 0.742501
0.393777 -0.0997422 0.267496
0.31196 0.115469 -0.309573
0.104215 0.272476 -0.72819
-0.0692778 0.519313 -0.527316
-0.181105 0.419136 -0.425595
-0.223061 0.157253 -0.159676
-0.178958 -0.1653 0.167847
-0.0658121 -0.424078 0.430613
0.0727251 -0.519244 0.527246
0.183204 -0.414082 0.420463
0.223002 -0.149164 0.151462
0.176764 0.173303 -0.175974
0.0623289 0.428908 -0.435518
0 0.192886 0
0 0.163776 0
0 0.0614458 0
0 -0.0645902 0
0 -0.165707 0
0 -0.202893 0
0 -0.161801 0
0 -0.0582851 0
0 0.0677174 0
0 0.159307 0
0.117108 0.118469 0.392417
0.323432 0.100961 0.334146
0.398601 0.0379493 0.125602
0.319796 -0.039896 -0.132045
0.117605 -0.102353 -0.338763
-0.129958 -0.125322 -0.414784
-0.327382 -0.0999406 -0.330778
-0.398495 -0.036005 -0.119168
-0.315694 0.0416644 0.137892
-0.105362 0.0978451 0.324102
0.189036 -0.00165398 0.633436
0.522082 -0.00140356 0.539377
0.643421 -0.000527515 0.202746
0.516212 0.000554569 -0.213147
0.189837 0.00142276 -0.54683
-0.209777 0.00174205 -0.669541
-0.528457 0.00138922 -0.53394
-0.64325 0.000500484 -0.19236
-0.50959 -0.000579289 0.222584
-0.170074 -0.00136604 0.523164
0.188031 -0.121139 0.630071
0.519309 -0.103137 0.536511
0.640003 -0.0387679 0.201668
0.513469 0.0407567 -0.212015
0.188828 0.104561 -0.543925
-0.208663 0.128026 -0.665985
-0.52565 0.102097 -0.531103
-0.639833 0.0367818 -0.191338
-0.506883 -0.0425618 0.221402
-0.169171 -0.10005 0.520385
0.114483 -0.193887 0.38362
0.316182 -0.165075 0.326656
0.389667 -0.0620495 0.122786
0.312627 0.0652328 -0.129086
0.114968 0.167355 -0.331169
-0.127045 0.204911 -0.405486
-0.320044 0.16341 -0.323364
-0.389564 0.058871 -0.116496
-0.308617 -0.0681221 0.134801
-0.103 -0.160134 0.316837
-0.00323331 -0.191833 -0.0108345
-0.00892979 -0.163326 -0.00922564
-0.0110052 -0.0613919 -0.00346782
-0.00882936 0.0645416 0.00364571
-0.00324701 0.165581 0.00935315
0.00358808 0.202739 0.011452
0.00903883 0.161679 0.0091326
0.0110023 0.0582471 0.00329016
0.00871621 -0.0674002 -0.00380714
0.00290899 -0.158437 -0.00894833
-0.119702 -0.115768 -0.401109
-0.330596 -0.0985646 -0.341547
-0.40743 -0.037049 -0.128384
-0.326878 0.0389498 0.134971
-0.12021 0.0999256 0.346267
0.132837 0.12235 0.423972
0.334633 0.0975704 0.338105
0.407322 0.0351512 0.121807
0.322687 -0.0406749 -0.140947
0.107696 -0.095614 -0.331282
-0.189989 0.00496154 -0.636633
-0.524705 0.00421858 -0.542088
-0.646654 0.00158557 -0.203764
-0.518805 -0.0016669 0.214218
-0.190791 -0.00427644 0.549579
0.210832 -0.00523611 0.672906
0.531113 -0.00417564 0.536623
0.646482 -0.00150433 0.193327
0.512152 0.00174105 -0.223703
0.170933 0.0040978 -0.525804
-0.186977 0.123776 -0.626539
-0.515907 0.105131 -0.53302
-0.635802 0.0395122 -0.200347
-0.510097 -0.0415389 0.210625
-0.187589 -0.106568 0.540359
0.207293 -0.130483 0.661617
0.5222 -0.104056 0.527621
0.635633 -0.0374876 0.190083
0.503563 0.0433903 -0.219972
0.168222 0.102229 -0.517467
-0.111828 0.194837 -0.374722
-0.292339 0.157253 -0.302436
-0.360064 0.0589985 -0.113469
-0.288873 -0.0620176 0.119276
-0.106233 -0.159107 0.306003
0.117392 -0.194812 0.374672
0.295727 -0.155356 0.29879
0.359968 -0.0559637 0.107632
0.285331 0.0650203 -0.12505
0.100611 0.160919 -0.309488
0 -0.202756 0
0 -0.172157 0
0 -0.0645902 0
0 0.0678955 0
0 0.174187 0
0 0.213275 0
0 0.170081 0
0 0.0612678 0
0 -0.0711827 0
0 -0.167459 0
0.116486 -0.124531 0.0812193
0.321714 -0.106139 0.0691584
0.396484 -0.039896 0.0259957
0.318097 0.0419427 -0.0273294
0.11698 0.107604 -0.0701139
-0.129268 0.131751 -0.0858476
-0.325643 0.105068 -0.0684611
-0.396379 0.0378522 -0.0246641
-0.314017 -0.0438011 0.0285394
-0.104802 -0.102852 0.0670802
0.188031 0.00173861 0.131104
0.519309 0.00147555 0.111634
0.640003 0.000554569 0.0419621
0.513469 -0.000583018 -0.0441149
0.188828 -0.00149572 -0.113177
-0.208663 -0.0018314 -0.138575
-0.52565 -0.00146049 -0.110509
-0.639833 -0.000526153 -0.0398126
-0.506883 0.000608995 0.0460681
-0.169171 0.00143595 0.10828
0.187032 0.127338 0.130407
0.516551 0.108428 0.111041
0.636603 0.0407567 0.0417391
0.510741 -0.0428476 -0.0438805
0.187825 -0.109926 -0.112576
-0.207554 -0.134594 -0.137839
-0.522859 -0.107335 -0.109922
-0.636434 -0.0386689 -0.0396011
-0.50419 0.0447448 0.0458234
-0.168272 0.10517 0.107705
0.113875 0.203809 0.0793987
0.314503 0.173543 0.0676078
0.387597 0.0652328 0.025413
0.310966 -0.0685795 -0.0267168
0.114358 -0.175941 -0.068542
-0.12637 -0.215424 -0.0839231
-0.318344 -0.171793 -0.0669264
-0.387494 -0.0618912 -0.0241112
-0.306977 0.0716158 0.0278997
-0.102453 0.168329 0.0655765
-0.00321614 0.201649 -0.00224243
-0.00888235 0.171704 -0.00190942
-0.0109467 0.0645416 -0.000717731
-0.00878252 -0.0678527 0.000754552
-0.00322978 -0.174076 0.00193581
0.00356902 -0.21314 0.00237022
0.00899083 -0.169973 0.00189018
0.0109438 -0.0612353 0.000680963
0.0086699 0.0708569 -0.000787961
0.00289354 0.166545 -0.00185205
-0.119067 0.121692 -0.0830184
-0.32884 0.10362 -0.0706899
-0.405265 0.0389498 -0.0265716
-0.325142 -0.0409479 0.0279347
-0.119571 -0.105052 0.0716665
0.132131 -0.128627 0.0877492
0.332856 -0.102576 0.0699777
0.405158 -0.0369544 0.0252104
0.320972 0.0427609 -0.0291716
0.107124 0.100507 -0.0685661
-0.18898 -0.00521543 -0.131765
-0.521918 -0.00443494 -0.112195
-0.643219 -0.0016669 -0.0421729
-0.51605 0.0017524 0.0443366
-0.189777 0.00449579 0.113746
0.209711 0.00550468 0.139272
0.528291 0.00438983 0.111064
0.643048 0.00158149 0.0400127
0.50943 -0.00183033 -0.0462997
0.170025 -0.0043075 -0.108827
-0.185984 -0.13011 -0.129676
-0.513167 -0.110522 -0.110319
-0.632424 -0.0415389 -0.0414656
-0.507387 0.0436694 0.0435927
-0.186592 0.112034 0.111838
0.206192 0.137176 0.136935
0.519426 0.109394 0.109202
0.632256 0.0394103 0.0393414
0.500888 -0.0456152 -0.0455277
0.167329 -0.10746 -0.107101
-0.111234 -0.204808 -0.0775569
-0.290786 -0.1653 -0.0625959
-0.358151 -0.0620176 -0.0234849
-0.287339 0.0651913 0.0246867
-0.105669 0.167249 0.0633341
0.116769 0.204781 0.0775466
0.294156 0.163307 0.0618411
0.358056 0.0588275 0.0222769
0.283815 -0.0683476 -0.025882
0.100076 -0.169154 -0.0640554
0 -0.520173 0
0 -0.441669 0
0 -0.165707 0
0 0.174187 0
0 0.446878 0
0 0.54716 0
0 0.436344 0
0 0.157183 0
0 -0.18262 0
0 -0.429618 0
0.0709229 -0.319486 -0.261313
0.195876 -0.272301 -0.222507
0.2414 -0.102353 -0.0836377
0.193674 0.107604 0.0879286
0.0712234 0.276059 0.225581
-0.0787052 0.338008 0.276204
-0.198268 0.269552 0.220264
-0.241336 0.0971101 0.0793535
-0.19119 -0.112372 -0.0918218
-0.063809 -0.263868 -0.215822
0.114483 0.00446043 -0.42181
0.316182 0.00378555 -0.359169
0.389667 0.00142276 -0.135008
0.312627 -0.00149572 0.141934
0.114968 -0.00383732 0.364132
-0.127045 -0.00469848 0.445845
-0.320044 -0.00374686 0.355549
-0.389564 -0.00134985 0.128092
-0.308617 0.00156238 -0.148218
-0.103 0.00368393 -0.348379
0.113875 0.326686 -0.419569
0.314503 0.278173 -0.357262
0.387597 0.104561 -0.13429
0.310966 -0.109926 0.14118
0.114358 -0.282016 0.362197
-0.12637 -0.345301 0.443477
-0.318344 -0.275368 0.35366
-0.387494 -0.0992053 0.127411
-0.306977 0.114793 -0.147431
-0.102453 0.269815 -0.346528
0.0693331 0.522874 -0.255455
0.191485 0.445225 -0.21752
0.235989 0.167355 -0.0817628
0.189332 -0.175941 0.0859575
0.0696273 -0.451377 0.220524
-0.0769406 -0.552671 0.270012
-0.193824 -0.440737 0.215327
-0.235927 -0.158782 0.0775746
-0.186904 0.183731 -0.0897637
-0.0623786 0.431849 -0.210984
-0.00195815 0.517334 0.00721474
-0.00540806 0.440508 0.0061433
-0.00666493 0.165581 0.00230921
-0.00534723 -0.174076 -0.00242767
-0.00196644 -0.446593 -0.00622819
0.00217303 -0.546813 -0.00762584
0.00547408 -0.436067 -0.00608139
0.00666316 -0.1571 -0.00219092
0.00527867 0.181784 0.00253516
0.00176174 0.427273 0.00595876
-0.0724939 0.312202 0.267101
-0.200215 0.265838 0.227435
-0.246747 0.0999256 0.0854904
-0.197963 -0.105052 -0.0898763
-0.0728009 -0.269512 -0.230578
0.0804484 -0.329991 -0.282322
0.20266 -0.263159 -0.225143
0.246682 -0.0948069 -0.0811112
0.195425 0.109703 0.0938556
0.0652224 0.257852 0.220603
-0.115061 -0.0133802 0.423938
-0.317771 -0.0113779 0.360975
-0.391625 -0.00427644 0.135686
-0.314198 0.00449579 -0.142647
-0.115546 0.011534 -0.365962
0.127683 0.0141223 -0.448085
0.321652 0.0112622 -0.357336
0.391521 0.00405733 -0.128735
0.310168 -0.00469572 0.148963
0.10352 -0.0110509 0.350137
-0.113237 -0.3338 0.417217
-0.312442 -0.283545 0.354937
-0.385052 -0.106568 0.13341
-0.308924 0.112034 -0.140255
-0.113607 0.287424 -0.359823
0.12554 0.351924 -0.440569
0.316254 0.280651 -0.351341
0.38495 0.101107 -0.126575
0.304967 -0.117026 0.146479
0.101878 -0.27569 0.344585
-0.0677248 -0.525437 0.24953
-0.177046 -0.424078 0.201395
-0.218061 -0.159107 0.0755598
-0.174947 0.167249 -0.0794265
-0.0643368 0.429079 -0.203769
0.0710948 0.525367 -0.249497
0.179098 0.418965 -0.198966
0.218003 0.150923 -0.0716731
0.172801 -0.175346 0.083272
0.0609317 -0.433966 0.20609
0 -0.636903 0
0 -0.540783 0
0 -0.202893 0
0 0.213275 0
0 0.54716 0
0 0.669946 0
0 0.534262 0
0 0.192456 0
0 -0.223601 0
0 -0.526027 0
-0.00200305 -0.391181 -0.503029
-0.00553206 -0.333407 -0.428328
-0.00681778 -0.125322 -0.161003
-0.00546982 0.131751 0.169263
-0.00201155 0.338008 0.434246
0.00222282 0.413859 0.531693
0.00559962 0.330041 0.42401
0.00681598 0.118902 0.152755
0.00539971 -0.137589 -0.176758
0.00180214 -0.323082 -0.415459
-0.00323331 0.00546139 -0.811986
-0.00892979 0.004635 -0.691401
-0.0110052 0.00174205 -0.25989
-0.00882936 -0.0018314 0.273223
-0.00324701 -0.00469848 0.700955
0.00358808 -0.00575283 0.858256
0.00903884 -0.00458769 0.684432
0.0110023 -0.00165276 0.246577
0.00871621 0.001913 -0.28532
0.00290899 0.00451063 -0.67063
-0.00321614 0.399997 -0.807672
-0.00888235 0.340594 -0.687729
-0.0109467 0.128026 -0.25851
-0.00878252 -0.134594 0.271772
-0.00322977 -0.345301 0.697231
0.00356902 -0.422789 0.853696
0.00899083 -0.337162 0.680796
0.0109438 -0.121468 0.245267
0.0086699 0.140554 -0.283805
0.00289354 0.330363 -0.667068
-0.00195815 0.640211 -0.491753
-0.00540806 0.545137 -0.418725
-0.00666493 0.204911 -0.157394
-0.00534723 -0.215424 0.165468
-0.00196644 -0.552671 0.424511
0.00217303 -0.67669 0.519775
0.00547408 -0.539642 0.414504
0.00666316 -0.194414 0.149331
0.00527867 0.224961 -0.172795
0.00176174 0.528759 -0.406146
5.53034e-05 0.633427 0.0138884
0.000152736 0.53936 0.0118259
0.000188238 0.202739 0.00444519
0.000151021 -0.21314 -0.00467329
5.5538e-05 -0.546813 -0.0119893
-6.13704e-05 -0.66952 -0.0146798
-0.000154606 -0.533923 -0.0117068
-0.000188188 -0.192354 -0.00421753
-0.000149083 0.222577 0.0048802
-4.97562e-05 0.523156 0.0114706
0.00204742 0.382262 0.514171
0.00565458 0.325495 0.437815
0.00696881 0.12235 0.164569
0.00559101 -0.128627 -0.173012
0.0020561 -0.329991 -0.443863
-0.00227206 -0.404044 -0.543471
-0.00572368 -0.322214 -0.433402
-0.00696697 -0.116082 -0.15614
-0.00551931 0.134322 0.180673
-0.00184205 0.315715 0.424661
0.00324963 -0.0163829 0.816083
0.00897469 -0.0139311 0.694877
0.0110605 -0.00523611 0.261196
0.0088737 0.00550468 -0.274597
0.00326333 0.0141223 -0.704478
-0.00360611 0.0172915 -0.86257
-0.00908425 0.0137894 -0.687872
-0.0110576 0.00496781 -0.247816
-0.00875998 -0.00574948 0.286755
-0.00292367 -0.0135308 0.674015
0.00319811 -0.408706 0.803144
0.00882422 -0.347175 0.683254
0.0108749 -0.130483 0.256816
0.00872491 0.137176 -0.26999
0.00320858 0.351924 -0.692659
-0.00354559 0.430899 -0.848098
-0.00893179 0.34363 -0.676332
-0.010872 0.123797 -0.243658
-0.00861308 -0.143288 0.281973
-0.00287732 -0.337556 0.663328
0.00191273 -0.643348 0.480346
0.00500024 -0.519244 0.387686
0.00615863 -0.194812 0.145453
0.00494097 0.204781 -0.152896
0.00181704 0.525367 -0.392257
-0.00200791 0.643263 -0.480282
-0.00505819 0.512983 -0.383011
-0.00615699 0.184791 -0.137971
-0.00488037 -0.214695 0.160299
-0.00172087 -0.53135 0.396725
0 -0.507912 0
0 -0.431258 0
0 -0.161801 0
0 0.170081 0
0 0.436344 0
0 0.534262 0
0 0.426058 0
0 0.153478 0
0 -0.178315 0
0 -0.419491 0
-0.0741562 -0.311956 -0.550673
-0.204806 -0.265882 -0.468896
-0.252405 -0.0999406 -0.176253
-0.202502 0.105068 0.185294
-0.0744704 0.269552 0.475376
0.0822928 0.330041 0.58205
0.207307 0.263198 0.464169
0.252338 0.0948209 0.167224
0.199906 -0.109723 -0.193499
0.066718 -0.257648 -0.454808
-0.119702 0.00435529 -0.888892
-0.330596 0.0036963 -0.756886
-0.40743 0.00138922 -0.284505
-0.326878 -0.00146049 0.299101
-0.12021 -0.00374686 0.767346
0.132837 -0.00458769 0.939544
0.334633 -0.00365856 0.749257
0.407322 -0.00131804 0.269931
0.322687 0.00152555 -0.312345
0.107696 0.0035971 -0.734148
-0.119067 0.318986 -0.88417
-0.32884 0.271615 -0.752865
-0.405265 0.102097 -0.282994
-0.325142 -0.107335 0.297512
-0.119571 -0.275368 0.763269
0.132131 -0.337162 0.934552
0.332856 -0.268877 0.745277
0.405158 -0.096867 0.268497
0.320972 0.112087 -0.310685
0.107124 0.263455 -0.730248
-0.0724939 0.510549 -0.538329
-0.200215 0.434732 -0.458383
-0.246747 0.16341 -0.172301
-0.197963 -0.171793 0.181141
-0.0728009 -0.440737 0.464718
0.0804484 -0.539642 0.569003
0.20266 -0.43035 0.453764
0.246682 -0.155039 0.163475
0.195425 0.1794 -0.189161
0.0652224 0.42167 -0.444613
0.00204742 0.505139 0.0152038
0.00565459 0.430125 0.012946
0.00696881 0.161679 0.00486624
0.00559101 -0.169973 -0.0051159
0.0020561 -0.436067 -0.0131248
-0.00227206 -0.533923 -0.0160702
-0.00572368 -0.425788 -0.0128156
-0.00696697 -0.153396 -0.00461697
-0.00551931 0.177499 0.00534242
-0.00184205 0.417201 0.0125571
0.0757988 0.304842 0.56287
0.209342 0.259573 0.479283
0.257996 0.0975704 0.180156
0.206988 -0.102576 -0.189399
0.07612 -0.263159 -0.485903
-0.0841157 -0.322214 -0.594942
-0.211899 -0.256956 -0.474452
-0.257928 -0.0925721 -0.170928
-0.204334 0.107118 0.197785
-0.0681958 0.251774 0.464883
0.120307 -0.0130649 0.893377
0.332258 -0.0111097 0.760691
0.409478 -0.00417564 0.285934
0.32852 0.00438983 -0.300604
0.120814 0.0112622 -0.771202
-0.133504 0.0137894 -0.944265
-0.336315 0.0109966 -0.753023
-0.40937 0.00396168 -0.271288
-0.324308 -0.00458502 0.313915
-0.108239 -0.0107904 0.737853
0.118399 -0.325931 0.879213
0.326686 -0.276863 0.747968
0.402606 -0.104056 0.28114
0.323008 0.109394 -0.295561
0.118786 0.280651 -0.758265
-0.131264 0.34363 -0.928424
-0.33067 0.274035 -0.740391
-0.402499 0.0987241 -0.266736
-0.31887 -0.114268 0.308678
-0.106523 -0.269191 0.726154
0.0708123 -0.513051 0.525841
0.185117 -0.414082 0.424405
0.228002 -0.155356 0.159229
0.182922 0.163307 -0.167378
0.0672699 0.418965 -0.429409
-0.074336 0.512983 -0.525771
-0.187262 0.409089 -0.419287
-0.227942 0.147365 -0.151039
-0.180679 -0.171213 0.175481
-0.0637095 -0.423736 0.4343
0 -0.182964 0
0 -0.155351 0
0 -0.0582851 0
0 0.0612678 0
0 0.157183 0
0 0.192456 0
0 0.153478 0
0 0.055287 0
0 -0.0642341 0
0 -0.151112 0
-0.117699 -0.112375 -0.385863
-0.325058 -0.0957874 -0.328568
-0.400604 -0.0360051 -0.123505
-0.321402 0.0378522 0.129841
-0.118196 0.0971102 0.333108
0.130611 0.118902 0.40786
0.329027 0.094821 0.325257
0.400498 0.0341606 0.117179
0.31728 -0.039529 -0.13559
0.105894 -0.092812 -0.318689
-0.189989 0.0015689 -0.622856
-0.524705 0.00133163 -0.530371
-0.646654 0.000500485 -0.199361
-0.518805 -0.000526153 0.209589
-0.190791 -0.00134985 0.537701
0.210832 -0.00165276 0.658364
0.531113 -0.00131805 0.525027
0.646482 -0.000474843 0.189149
0.512152 0.000549596 -0.218868
0.170933 0.00129577 -0.514426
-0.18898 0.114907 -0.619548
-0.521918 0.0978529 -0.527553
-0.643219 0.0367819 -0.198302
-0.51605 -0.038669 0.208475
-0.189777 -0.0992054 0.534845
0.209711 -0.121468 0.654867
0.528291 -0.0968672 0.522238
0.643048 -0.0348979 0.188144
0.50943 0.0403807 -0.217705
0.170025 0.0949036 -0.511693
-0.115061 0.183914 -0.377213
-0.317771 0.156618 -0.321203
-0.391625 0.0588711 -0.120736
-0.314198 -0.0618913 0.126931
-0.115546 -0.158783 0.325642
0.127683 -0.194414 0.398717
0.321652 -0.15504 0.317966
0.391521 -0.0558554 0.114552
0.310168 0.0646309 -0.13255
0.10352 0.151897 -0.311545
0.00324963 0.181965 0.0106535
0.00897469 0.154958 0.00907161
0.0110605 0.0582472 0.00340992
0.0088737 -0.0612354 -0.00358485
0.00326333 -0.1571 -0.00919692
-0.00360611 -0.192354 -0.0112608
-0.00908425 -0.153396 -0.00898016
-0.0110576 -0.0552634 -0.00323525
-0.00875998 0.0639459 0.00374359
-0.00292367 0.150287 0.00879887
0.120307 0.109813 0.39441
0.332258 0.0935142 0.335845
0.409478 0.0351512 0.126241
0.32852 -0.0369544 -0.132717
0.120814 -0.094807 -0.340486
-0.133504 -0.116082 -0.416894
-0.336315 -0.0925723 -0.332461
-0.40937 -0.0333505 -0.119774
-0.324308 0.0385902 0.138593
-0.108239 0.0906958 0.325748
0.190948 -0.00470632 0.626
0.527341 -0.00400238 0.533037
0.649902 -0.00150433 0.200363
0.521412 0.00158149 -0.210642
0.191749 0.00405733 -0.540404
-0.211891 0.00496782 -0.661672
-0.533782 0.00396169 -0.527665
-0.64973 0.00142725 -0.190099
-0.514726 -0.0016518 0.219968
-0.171795 -0.00388701 0.517022
0.187921 -0.117409 0.616074
0.518501 -0.0997424 0.524121
0.638997 -0.0374876 0.197002
0.512661 0.0394103 -0.207108
0.188531 0.101108 -0.531337
-0.208335 0.123797 -0.650574
-0.524823 0.0987242 -0.518814
-0.638828 0.0355666 -0.186909
-0.506093 -0.0411658 0.2163
-0.169071 -0.09697 0.508824
0.112392 -0.184815 0.368463
0.293814 -0.149164 0.297385
0.361881 -0.0559637 0.111574
0.290331 0.0588275 -0.117283
0.106769 0.150923 -0.300892
-0.117985 0.184791 -0.368414
-0.297219 0.147365 -0.293799
-0.361785 0.053085 -0.105835
-0.286771 -0.0616757 0.122962
-0.101119 -0.152641 0.304319
0 0.212573 0
0 0.180492 0
0 0.0677174 0
0 -0.0711827 0
0 -0.18262 0
0 -0.223601 0
0 -0.178315 0
0 -0.0642341 0
0 0.0746291 0
0 0.175567 0
-0.115833 0.130561 -0.0721841
-0.319607 0.110861 -0.0618146
-0.393881 0.0416626 -0.0232422
-0.316008 -0.0437993 0.0244352
-0.116212 -0.112368 0.0626884
0.128419 -0.137583 0.0767562
0.323506 -0.109719 0.0612108
0.393777 -0.0395272 0.0220526
0.31196 0.045759 -0.025501
0.104215 0.107832 -0.0596178
-0.186977 -0.00182279 -0.116519
-0.515907 -0.00154151 -0.0997804
-0.635802 -0.000579262 -0.0375174
-0.510097 0.000608965 0.0394431
-0.187588 0.0015623 0.101191
0.207293 0.0019129 0.123899
0.5222 0.00152548 0.0988061
0.635633 0.000549568 0.0355971
0.503563 -0.00063635 -0.0411635
0.168222 -0.00150547 -0.0962347
-0.185984 -0.133503 -0.1159
-0.513167 -0.113247 -0.0992503
-0.632424 -0.04256 -0.0373181
-0.507387 0.0447429 0.0392336
-0.186592 0.114788 0.100654
0.206192 0.140547 0.123241
0.519426 0.112082 0.0982813
0.632256 0.0403788 0.035408
0.500888 -0.0467438 -0.0409449
0.167329 -0.110262 -0.0957235
-0.113237 -0.213677 -0.070566
-0.312442 -0.181257 -0.0604289
-0.385052 -0.0681191 -0.0227212
-0.308924 0.0716126 0.0238874
-0.113607 0.183723 0.0612832
0.12554 0.224951 0.0750356
0.316254 0.179393 0.0598388
0.38495 0.0646279 0.0215582
0.304966 -0.074815 -0.0249294
0.101878 -0.176479 -0.0582814
0.00319811 -0.211412 0.00199297
0.00882422 -0.179337 0.00170667
0.0108749 -0.0673972 0.000641706
0.00872491 0.0708538 -0.000674643
0.00320858 0.181776 -0.0017308
-0.00354559 0.222568 -0.00211921
-0.00893179 0.177491 -0.00169
-0.010872 0.063943 -0.000608862
-0.00861308 -0.074022 0.000704072
-0.00287732 -0.174608 0.00164602
0.118399 -0.127584 0.073783
0.326686 -0.108227 0.0631838
0.402606 -0.0406731 0.023757
0.323008 0.042759 -0.0249764
0.118786 0.109699 -0.0640771
-0.131263 0.134316 -0.0784566
-0.33067 0.107113 -0.0625666
-0.402499 0.0385884 -0.022541
-0.31887 -0.044671 0.0260659
-0.106523 -0.105373 0.0609384
0.187921 0.00546794 0.117107
0.518501 0.00463287 0.100282
0.638997 0.00174097 0.0377058
0.512661 -0.00183025 -0.0396411
0.188531 -0.00469552 -0.101699
-0.208335 -0.00574923 -0.124521
-0.524823 -0.00458483 -0.0993022
-0.638828 -0.00165172 -0.0357757
-0.506093 0.0019124 0.0413703
-0.169071 0.00451605 0.0967203
0.184941 0.13641 0.11525
0.509818 0.115464 0.0985912
0.628287 0.0433884 0.037068
0.504068 -0.0456133 -0.0389704
0.185371 -0.117021 -0.0999787
-0.204843 -0.143282 -0.122415
-0.516028 -0.114263 -0.0976222
-0.62812 -0.041164 -0.0351704
-0.497618 0.0476643 0.0406751
-0.166391 0.112663 0.0951868
0.11061 0.214724 0.0689291
0.289156 0.173303 0.0556324
0.356143 0.0650203 0.0208723
0.285728 -0.0683476 -0.0219404
0.105077 -0.175346 -0.0562884
-0.116114 -0.214695 -0.0689199
-0.292507 -0.171213 -0.0549616
-0.356049 -0.0616757 -0.0197987
-0.282224 0.0716567 0.0230027
-0.0995153 0.177343 0.0569295
0 0.526097 0
0 0.424611 0
0 0.159307 0
0 -0.167459 0
0 -0.429618 0
0 -0.526027 0
0 -0.419491 0
0 -0.151112 0
0 0.175567 0
0 0.434511 0
-0.0692778 0.323125 0.269344
-0.181105 0.260793 0.217386
-0.223061 0.0978451 0.0815597
-0.178958 -0.102852 -0.0857334
-0.0658121 -0.263868 -0.21995
0.072725 -0.323082 -0.269308
0.183204 -0.257648 -0.214765
0.223002 -0.092812 -0.0773644
0.176764 0.107832 0.0898843
0.0623289 0.266873 0.222455
-0.111828 -0.00451123 0.434773
-0.292339 -0.003641 0.350904
-0.360064 -0.00136604 0.131653
-0.288873 0.00143595 -0.13839
-0.106233 0.00368393 -0.355042
0.117392 0.00451063 -0.434715
0.295727 0.0035971 -0.346673
0.359968 0.00129577 -0.124881
0.285331 -0.00150547 0.145091
0.100611 -0.00372589 0.359085
-0.111234 -0.330407 0.432463
-0.290786 -0.26667 0.34904
-0.358151 -0.10005 0.130954
-0.287339 0.10517 -0.137655
-0.105669 0.269815 -0.353155
0.116769 0.330363 -0.432406
0.294156 0.263455 -0.344831
0.358056 0.0949037 -0.124218
0.283815 -0.110262 0.14432
0.100076 -0.272888 0.357178
-0.0677248 -0.528829 0.263306
-0.177046 -0.426816 0.212513
-0.218061 -0.160134 0.0797314
-0.174947 0.168329 -0.0838116
-0.0643368 0.431849 -0.215019
0.0710948 0.528759 -0.263271
0.179097 0.42167 -0.209951
0.218003 0.151897 -0.0756302
0.172801 -0.176479 0.0878694
0.0609317 -0.436767 0.217468
0.00191273 -0.523225 -0.00743647
0.00500024 -0.422293 -0.00600195
0.00615863 -0.158437 -0.00225183
0.00494096 0.166545 0.00236706
0.00181704 0.427273 0.00607272
-0.00200791 0.523156 0.00743548
-0.00505819 0.417201 0.00592958
-0.00615699 0.150287 0.002136
-0.00488037 -0.174608 -0.00248167
-0.00172087 -0.432139 -0.00614188
0.0708123 -0.315757 -0.27531
0.185117 -0.254846 -0.222202
0.228002 -0.0956141 -0.0833663
0.182922 0.100507 0.0876324
0.0672699 0.257852 0.224822
-0.074336 0.315715 0.275274
-0.187262 0.251774 0.219522
-0.227942 0.0906958 0.0790781
-0.180679 -0.105373 -0.0918753
-0.0637095 -0.260788 -0.227382
0.112392 0.0135326 -0.436967
0.293814 0.0109221 -0.352674
0.361881 0.0040978 -0.132317
0.290331 -0.0043075 0.139089
0.106769 -0.0110509 0.356833
-0.117985 -0.0135308 0.436909
-0.297219 -0.0107904 0.348422
-0.361785 -0.00388701 0.125511
-0.286771 0.00451605 -0.145823
-0.101119 0.0111768 -0.360897
0.11061 0.337601 -0.430039
0.289156 0.272476 -0.347083
0.356143 0.102229 -0.13022
0.285728 -0.10746 0.136883
0.105077 -0.27569 0.351176
-0.116114 -0.337556 0.429982
-0.292507 -0.269191 0.342898
-0.356049 -0.09697 0.123521
-0.282224 0.112663 -0.143511
-0.0995153 0.278829 -0.355175
0.0661539 0.531421 -0.257199
0.172939 0.428908 -0.207584
0.213003 0.160919 -0.077882
0.170889 -0.169154 0.0818674
0.0628444 -0.433966 0.210032
-0.0694457 -0.53135 0.257164
-0.174943 -0.423736 0.205081
-0.212946 -0.152641 0.0738758
-0.168793 0.177343 -0.0858312
-0.0595183 0.438908 -0.212424
