# vtk DataFile Version 3.0
Velocity field
ASCII
DATASET STRUCTURED_POINTS
DIMENSIONS 8 8 8
SPACING 0.8 0.8 0.8
ORIGIN 0 0 0
POINT_DATA 512
VECTORS velocity float
0 0.323388 0
0 0.225307 0
0 -0.00944278 0
0 -0.238464 0
0 -0.322837 0
0 -0.21138 0
0 0.0282962 0
0 0.250809 0
0 0.127225 0.330066
0 0.0886386 0.243811
0 -0.00371492 -0.0102183
0 -0.093815 -0.258049
0 -0.127008 -0.349351
0 -0.0831599 -0.228741
0 0.0111321 0.0306202
0 0.0986715 0.255988
0 -0.146111 0.459918
0 -0.101796 0.339729
0 0.00426637 -0.0142383
0 0.107741 -0.359569
0 0.145862 -0.486791
0 0.0955044 -0.318731
0 -0.0127846 0.0426665
0 -0.113318 0.356697
0 -0.330818 0.31079
0 -0.230483 0.229573
0 0.00965973 -0.00962158
0 0.243943 -0.242979
0 0.330254 -0.328949
0 0.216237 -0.215383
0 -0.0289463 0.028832
0 -0.256571 0.241038
0 -0.314855 -0.0268588
0 -0.219362 -0.0198399
0 0.00919363 0.000831506
0 0.232172 0.0209985
0 0.314318 0.0284281
0 0.205803 0.0186136
0 -0.0275496 -0.00249169
0 -0.244191 -0.0208308
0 -0.107906 -0.348216
0 -0.0751786 -0.257218
0 0.0031508 0.0107802
0 0.079569 0.272239
0 0.107722 0.368561
0 0.0705319 0.241319
0 -0.00944166 -0.0323039
0 -0.083688 -0.270064
0 0.164498 -0.45835
0 0.114607 -0.338571
0 -0.00480327 0.0141898
0 -0.1213 0.358343
0 -0.164218 0.48513
0 -0.107523 0.317644
0 0.0143934 -0.042521
0 0.127579 -0.35548
0 0.337119 -0.290455
0 0.234873 -0.202362
0 -0.00984373 0.00848115
0 -0.24859 0.21418
0 -0.336545 0.28996
0 -0.220356 0.189854
0 0.0294977 -0.0254146
0 0.261458 -0.225267
0 0.225307 0
0 0.170426 0
0 -0.00714268 0
0 -0.180379 0
0 -0.244199 0
0 -0.159892 0
0 0.0214037 0
0 0.17474 0
0.0703593 0.0886386 0.326015
0.173117 0.0635871 0.233569
0.16891 -0.00266617 -0.00979334
0.0622274 -0.0673263 -0.247302
-0.0822019 -0.0911474 -0.3348
-0.176769 -0.0596796 -0.219213
-0.164096 0.00797029 0.0292784
-0.0504842 0.0687451 0.252846
0.0980396 -0.101796 0.454274
0.241224 -0.072863 0.325459
0.235362 0.00305498 -0.013646
0.0867081 0.0771454 -0.344593
-0.114542 0.10444 -0.466516
-0.246313 0.0683832 -0.305456
-0.228655 -0.00913413 0.0407968
-0.0703454 -0.0789497 0.352319
0.0662504 -0.230483 0.306976
0.163006 -0.164975 0.219929
0.159047 0.00691717 -0.00922137
0.058593 0.174673 -0.23286
-0.0774018 0.236474 -0.315249
-0.166445 0.154834 -0.206411
-0.154514 -0.0206814 0.0275685
-0.047536 -0.178755 0.23808
-0.00572542 -0.219362 -0.0265292
-0.0140872 -0.157016 -0.0190065
-0.0137449 0.00658336 0.000796915
-0.00506367 0.166243 0.020124
0.00668909 0.225065 0.0272439
0.0143844 0.147364 0.0178383
0.0133531 -0.0196835 -0.0023825
0.00410811 -0.170129 -0.0205751
-0.0742283 -0.0751786 -0.343942
-0.182634 -0.053812 -0.246413
-0.178199 0.00225624 0.0103318
-0.065648 0.056975 0.260897
0.0867224 0.0771333 0.353211
0.186487 0.0505035 0.231269
0.17312 -0.00674587 -0.0308884
0.0532603 -0.058306 -0.26675
-0.0977052 0.114607 -0.452725
-0.240363 0.0819926 -0.324298
-0.234521 -0.00343777 0.0135973
-0.0863986 -0.0868108 0.343362
0.114133 -0.117525 0.464849
0.245432 -0.0769516 0.304365
0.227839 0.0102791 -0.0406519
0.0701055 0.0888852 -0.351118
-0.0619155 0.234873 -0.28689
-0.148189 0.163638 -0.199878
-0.144574 -0.0068582 0.00837707
-0.0532614 -0.173194 0.211551
0.0703585 -0.234473 0.286401
0.1513 -0.153523 0.187524
0.140465 0.0205512 -0.0251027
0.0444256 0.18216 -0.222502
0 -0.00944278 0
0 -0.00714269 0
0 0.000299356 0
0 0.00755981 0
0 0.0102346 0
0 0.0067012 0
0 -0.000897048 0
0 -0.0073235 0
0.0980396 -0.00371492 0.124208
0.241224 -0.00266617 0.0889393
0.235362 0.000111793 -0.0037291
0.0867081 0.002823 -0.0941666
-0.114542 0.00382181 -0.127484
-0.246313 0.00250238 -0.0834723
-0.228655 -0.000334174 0.0111491
-0.0703454 -0.00288116 0.0963316
0.13661 0.00426637 0.173073
0.336123 0.00305498 0.123929
0.327955 -0.000128091 -0.00519615
0.120821 -0.00323457 -0.131213
-0.159605 -0.00437902 -0.177641
-0.343214 -0.00286722 -0.116312
-0.318611 0.000382958 0.0155352
-0.0980202 0.00330885 0.13423
0.0923142 0.00965973 0.116954
0.227136 0.00691717 0.0837447
0.221617 -0.000290027 -0.00351133
0.0816439 -0.00732379 -0.0886686
-0.107852 -0.00991512 -0.120041
-0.231928 -0.00649192 -0.0785981
-0.2153 0.000867098 0.0104979
-0.0662373 0.00749176 0.0907059
-0.00797788 0.00919363 -0.0101073
-0.0196293 0.00658336 -0.00723735
-0.0191524 -0.000276032 0.000303452
-0.00705579 -0.00697041 0.00766282
0.00932073 -0.00943665 0.010374
0.0200435 -0.00617869 0.00679247
0.0186066 0.000825254 -0.000907243
0.00572429 0.00713026 -0.00783889
-0.103431 0.0031508 -0.131038
-0.254484 0.00225624 -0.0938288
-0.248305 -9.46005e-05 0.00393417
-0.091475 -0.00238888 0.0993441
0.12084 -0.00323406 0.134494
0.259853 -0.00211754 0.0880627
0.241228 0.00028283 -0.011762
0.0742136 0.00244365 -0.101629
-0.136144 -0.00480327 -0.172483
-0.334923 -0.00343777 -0.123486
-0.326784 0.000144139 0.00517762
-0.120389 0.00363982 0.130744
0.159034 0.00492766 0.177005
0.341989 0.00322642 0.115897
0.317473 -0.000430964 -0.01548
0.0976859 -0.00372525 -0.133772
-0.0862739 -0.00984373 -0.109302
-0.206489 -0.0068582 -0.0761514
-0.201451 0.000287433 0.00319157
-0.0742151 0.00725871 0.0805986
0.0980385 0.00982695 0.109116
0.210823 0.00643429 0.0714445
0.195725 -0.000861319 -0.00956383
0.0619033 -0.00763446 -0.0847709
0 -0.238464 0
0 -0.180379 0
0 0.00755981 0
0 0.190913 0
0 0.25846 0
0 0.169229 0
0 -0.0226537 0
0 -0.184945 0
0.0662504 -0.093815 -0.152942
0.163006 -0.0673263 -0.109513
0.159047 0.002823 0.00459171
0.058593 0.0712858 0.115951
-0.0774018 0.0965078 0.156976
-0.166445 0.0631896 0.10278
-0.154514 -0.00843863 -0.013728
-0.047536 -0.0727597 -0.118617
0.0923142 0.107741 -0.213111
0.227136 0.0771454 -0.152596
0.221617 -0.00323457 0.00639809
0.0816439 -0.0816799 0.161567
-0.107852 -0.11058 0.218731
-0.231928 -0.0724033 0.143216
-0.2153 0.00967062 -0.0191287
-0.0662373 0.0835603 -0.165282
0.0623814 0.243943 -0.14401
0.153487 0.174673 -0.103116
0.149758 -0.00732379 0.00432352
0.0551712 -0.184939 0.109178
-0.0728813 -0.250378 0.147808
-0.156726 -0.163936 0.0967781
-0.14549 0.0218963 -0.0129262
-0.0447599 0.189194 -0.111689
-0.00539106 0.232172 0.0124455
-0.0132644 0.166243 0.00891147
-0.0129421 -0.00697041 -0.000373643
-0.00476797 -0.176018 -0.00943535
0.00629841 -0.238295 -0.0127736
0.0135443 -0.156027 -0.00836365
0.0125732 0.0208396 0.0011171
0.0038682 0.180065 0.00965231
-0.0698934 0.079569 0.161352
-0.17197 0.056975 0.115534
-0.167791 -0.00238888 -0.00484419
-0.0618153 -0.0603243 -0.122326
0.0816574 -0.0816673 -0.165606
0.175598 -0.0534725 -0.108432
0.163009 0.00714212 0.0144829
0.0501499 0.061711 0.125139
-0.0919993 -0.1213 0.212385
-0.226326 -0.0868108 0.152052
-0.220826 0.00363982 -0.00637525
-0.0813526 0.0919124 -0.16099
0.107467 0.124434 -0.21795
0.2311 0.0814738 -0.142705
0.214532 -0.0108828 0.0190609
0.0660114 -0.094076 0.164718
-0.0582997 -0.24859 0.134588
-0.139535 -0.173194 0.093768
-0.136131 0.00725871 -0.00392989
-0.050151 0.183309 -0.099244
0.0662496 0.248166 -0.134358
0.142464 0.162489 -0.0879723
0.132262 -0.0217514 0.0117763
0.0418312 -0.192798 0.104381
0 -0.322837 0
0 -0.244199 0
0 0.0102346 0
0 0.25846 0
0 0.349907 0
0 0.229105 0
0 -0.0306689 0
0 -0.250381 0
-0.00572542 -0.127008 -0.337319
-0.0140872 -0.0911474 -0.241534
-0.0137449 0.00382181 0.0101272
-0.00506367 0.0965078 0.255729
0.00668909 0.130653 0.346215
0.0143844 0.0855473 0.226688
0.0133531 -0.0114244 -0.0302777
0.00410811 -0.0985032 -0.261613
-0.00797788 0.145862 -0.470025
-0.0196293 0.10444 -0.336555
-0.0191524 -0.00437902 0.0141114
-0.00705579 -0.11058 0.356343
0.00932073 -0.149705 0.482421
0.0200435 -0.0980204 0.315871
0.0186066 0.0130922 -0.0421892
0.00572429 0.113125 -0.364536
-0.00539106 0.330254 -0.31762
-0.0132644 0.236474 -0.227429
-0.0129421 -0.00991512 0.00953579
-0.00476797 -0.250378 0.240799
0.00629841 -0.338963 0.325994
0.0135443 -0.221939 0.213448
0.0125732 0.0296434 -0.0285095
0.0038682 0.256133 -0.246335
0.000465901 0.314318 0.0274491
0.00114633 0.225065 0.0196546
0.00111848 -0.00943665 -0.000824082
0.000412047 -0.238295 -0.0208099
-0.000544319 -0.322609 -0.0281729
-0.00117052 -0.211229 -0.0184465
-0.0010866 0.0282131 0.00246381
-0.000334293 0.243775 0.0212886
0.00604026 0.107722 0.355868
0.0148618 0.0771333 0.254813
0.0145008 -0.00323406 -0.010684
0.0053421 -0.0816673 -0.269791
-0.00705695 -0.110563 -0.365249
-0.0151754 -0.0723921 -0.239153
-0.0140875 0.00966909 0.0319423
-0.00433401 0.0835453 0.275999
0.00795067 -0.164218 0.468422
0.0195593 -0.117525 0.335355
0.019084 0.00492766 -0.014061
0.00703061 0.124434 -0.355069
-0.00928746 0.16846 -0.4807
-0.0199719 0.110301 -0.314743
-0.0185402 -0.0147333 0.0420394
-0.00570477 -0.127362 0.363292
0.00503832 -0.336545 0.296838
0.0120588 -0.234473 0.206809
0.0117645 0.00982695 -0.00866753
0.0043341 0.248166 -0.218886
-0.00572536 0.335971 -0.296332
-0.0123119 0.21998 -0.194026
-0.0114302 -0.0294474 0.0259731
-0.0036151 -0.261012 0.230217
0 -0.21138 0
0 -0.159892 0
0 0.0067012 0
0 0.169229 0
0 0.229105 0
0 0.150009 0
0 -0.0200808 0
0 -0.163939 0
-0.0742283 -0.0831599 -0.317083
-0.182634 -0.0596796 -0.227045
-0.178199 0.00250238 0.00951969
-0.065648 0.0631896 0.240392
0.0867224 0.0855473 0.325444
0.186487 0.056013 0.213088
0.17312 -0.00748023 -0.0284613
0.0532603 -0.064496 -0.245919
-0.103431 0.0955044 -0.441828
-0.254484 0.0683832 -0.316368
-0.248305 -0.00286722 0.0132647
-0.091475 -0.0724033 0.334964
0.12084 -0.0980204 0.45348
0.259853 -0.0641796 0.296921
0.241228 0.00857225 -0.0396583
0.0742136 0.0740699 -0.342667
-0.0698934 0.216237 -0.298566
-0.17197 0.154834 -0.213785
-0.167791 -0.00649193 0.00896369
-0.0618153 -0.163936 0.226353
0.0816574 -0.221939 0.30644
0.175598 -0.145317 0.200642
0.163009 0.0194093 -0.0267991
0.0501499 0.167706 -0.231558
0.00604026 0.205803 0.0258024
0.0148618 0.147364 0.0184756
0.0145008 -0.00617869 -0.000774645
0.0053421 -0.156027 -0.0195616
-0.00705695 -0.211229 -0.0264826
-0.0151754 -0.138304 -0.0173398
-0.0140875 0.0184728 0.00231601
-0.00433401 0.159614 0.0200114
0.07831 0.0705319 0.334519
0.192677 0.0505035 0.239528
0.187995 -0.00211754 -0.0100432
0.069258 -0.0534726 -0.253608
-0.09149 -0.0723921 -0.34334
-0.196742 -0.0473992 -0.224806
-0.182637 0.0063309 0.0300263
-0.056189 0.0547021 0.259442
0.103078 -0.107523 0.440322
0.253576 -0.0769516 0.315238
0.247417 0.00322642 -0.0132174
0.0911486 0.0814738 -0.333769
-0.120409 0.110301 -0.451862
-0.258925 0.0722209 -0.295862
-0.240367 -0.00964681 0.0395174
-0.0739605 -0.0833912 0.341498
0.0653202 -0.220356 0.279031
0.156338 -0.153523 0.194402
0.152524 0.00643429 -0.00814756
0.0561901 0.162489 -0.205755
-0.0742274 0.21998 -0.278555
-0.15962 0.144034 -0.182387
-0.148189 -0.019281 0.0244149
-0.0468685 -0.170901 0.216407
0 0.0282962 0
0 0.0214037 0
0 -0.000897047 0
0 -0.0226537 0
0 -0.0306689 0
0 -0.0200808 0
0 0.00268809 0
0 0.0219455 0
-0.0977052 0.0111321 -0.104509
-0.240363 0.00797012 -0.0748627
-0.234521 -0.000334167 0.00313892
-0.0863986 -0.00843845 0.0792646
0.114133 -0.0114241 0.107308
0.245432 -0.00748007 0.0702615
0.227839 0.000999212 -0.00938407
0.0701055 0.00863367 -0.0810535
-0.136144 -0.0127846 -0.145624
-0.334923 -0.00913393 -0.104315
-0.326784 0.00038295 0.0043738
-0.120389 0.0096704 0.110448
0.159034 0.0130919 0.149526
0.341989 0.00857206 0.0979038
0.317473 -0.00114525 -0.0130758
0.0976859 -0.00991527 -0.112941
-0.0919993 -0.0289463 -0.0984056
-0.226326 -0.0206809 -0.0704908
-0.220826 0.000867078 0.00295561
-0.0813526 0.0218958 0.0746352
0.107467 0.0296428 0.101042
0.2311 0.0194089 0.0661583
0.214532 -0.00259305 -0.00883603
0.0660114 -0.0224497 -0.07632
0.00795067 -0.0275496 0.00850431
0.0195593 -0.019683 0.00609189
0.019084 0.000825235 -0.000255426
0.00703061 0.0208391 -0.00645003
-0.00928746 0.0282124 -0.00873215
-0.0199719 0.0184724 -0.00571747
-0.0185402 -0.00246794 0.000763623
-0.00570477 -0.0213665 0.00659565
0.103078 -0.00944166 0.110256
0.253576 -0.00674572 0.0789795
0.247417 0.000282823 -0.00331151
0.0911486 0.00714196 -0.0836228
-0.120409 0.00966887 -0.11321
-0.258925 0.00633076 -0.0741253
-0.240367 -0.000845804 0.00990009
-0.0739605 -0.00732263 0.0855105
0.135679 0.0143934 0.145127
0.333728 0.0102789 0.103942
0.325618 -0.000430954 -0.00435817
0.11996 -0.0108826 -0.110053
-0.158466 -0.014733 -0.148992
-0.340769 -0.0096466 -0.0975538
-0.316339 0.00128886 0.0130294
-0.0973528 0.0111631 0.112556
0.0859797 0.0294977 0.0919668
0.205785 0.0205512 0.0640739
0.200764 -0.000861319 -0.00268539
0.073962 -0.0217514 -0.0678158
-0.0977041 -0.0294474 -0.09181
-0.210104 -0.019281 -0.0601135
-0.195058 0.00258102 0.00804702
-0.0616922 0.0228774 0.0713263
0 0.250809 0
0 0.17474 0
0 -0.0073235 0
0 -0.184945 0
0 -0.250381 0
0 -0.163939 0
0 0.0219455 0
0 0.194519 0
-0.0619155 0.0986715 0.171459
-0.148189 0.0687451 0.119457
-0.144574 -0.00288116 -0.00500653
-0.0532614 -0.0727597 -0.126433
0.0703585 -0.0985032 -0.171167
0.1513 -0.064496 -0.112073
0.140465 0.00863367 0.0150025
0.0444256 0.0765262 0.132978
-0.0862739 -0.113318 0.238914
-0.206489 -0.0789497 0.166453
-0.201451 0.00330885 -0.00697617
-0.0742151 0.0835603 -0.176173
0.0980385 0.113125 -0.238506
0.210823 0.0740699 -0.156164
0.195725 -0.00991527 0.0209047
0.0619033 -0.0878859 0.185293
-0.0582997 -0.256571 0.161446
-0.139535 -0.178755 0.112481
-0.136131 0.00749176 -0.00471416
-0.050151 0.189194 -0.119049
0.0662496 0.256133 -0.161171
0.142464 0.167706 -0.105528
0.132262 -0.0224497 0.0141264
0.0418312 -0.198988 0.125212
0.00503832 -0.244191 -0.0139523
0.0120588 -0.170129 -0.00972069
0.0117645 0.00713026 0.000407402
0.00433409 0.180065 0.0102884
-0.00572536 0.243775 0.0139286
-0.0123119 0.159614 0.00911986
-0.0114302 -0.0213665 -0.00122082
-0.0036151 -0.189386 -0.010821
0.0653202 -0.083688 -0.180888
0.156338 -0.058306 -0.126026
0.152524 0.00244365 0.00528184
0.0561901 0.061711 0.133385
-0.0742274 0.0835453 0.180579
-0.15962 0.0547021 0.118236
-0.148189 -0.00732263 -0.0158275
-0.0468685 -0.0649055 -0.14029
0.0859797 0.127579 -0.238099
0.205785 0.0888852 -0.165885
0.200764 -0.00372525 0.00695238
0.073962 -0.094076 0.175573
-0.0977041 -0.127362 0.237693
-0.210104 -0.0833912 0.155632
-0.195058 0.0111631 -0.0208335
-0.0616922 0.098946 -0.184661
0.0544851 0.261458 -0.150883
0.130405 0.18216 -0.105121
0.127223 -0.00763446 0.0044057
0.0468695 -0.192798 0.11126
-0.0619148 -0.261012 0.150625
-0.133143 -0.170901 0.0986234
-0.123608 0.0228774 -0.0132021
-0.0390942 0.202778 -0.117019
