# vtk DataFile Version 3.0
Velocity field
ASCII
DATASET STRUCTURED_POINTS
DIMENSIONS 5 5 5
SPACING 1.33333 1.33333 1.33333
ORIGIN 0 0 0
POINT_DATA 125
VECTORS velocity float
0 0.26486 0
0 0.062305 0
0 -0.235547 0
0 -0.173124 0
0 0.154096 0
0 -0.14025 0.459982
0 -0.032992 0.124704
0 0.124728 -0.471448
0 0.0916735 -0.346508
0 -0.0815979 0.267619
0 -0.330844 0.21641
0 -0.0778269 0.0586699
0 0.294228 -0.221804
0 0.216254 -0.163023
0 -0.192486 0.125908
0 -0.015404 -0.358167
0 -0.00362361 -0.0971008
0 0.0136992 0.367094
0 0.0100687 0.26981
0 -0.00896212 -0.208383
0 0.323597 -0.384919
0 0.0761221 -0.0905473
0 -0.287783 0.342318
0 -0.211517 0.2516
0 0.18827 -0.223947
0 0.062305 0
0 0.0186496 0
0 -0.0705055 0
0 -0.0518206 0
0 0.0362492 0
0.196871 -0.032992 0.161538
0.297935 -0.00796408 0.0391635
-0.0624445 0.0301193 -0.148122
-0.327325 0.0221389 -0.108877
-0.0889577 -0.0191949 0.0939833
0.0926228 -0.0778269 0.0759995
0.140171 -0.0188281 0.0184255
-0.0293786 0.0712082 -0.0696876
-0.153998 0.0523411 -0.0512237
-0.0418524 -0.0452799 0.0442168
-0.153294 -0.00362361 -0.125782
-0.231965 -0.000878274 -0.0304917
0.0486178 0.00332177 0.115323
0.254846 0.00244167 0.0847684
0.0692672 -0.00210822 -0.0731804
-0.164744 0.0761221 -0.135177
-0.242252 0.0179068 -0.0317986
0.0507705 -0.0676974 0.120216
0.266138 -0.0497567 0.0883574
0.0744409 0.0442881 -0.0786463
0 -0.235547 0
0 -0.0705056 0
0 0.26655 0
0 0.195911 0
0 -0.137042 0
0.0926228 0.124728 -0.383983
0.140171 0.0301193 -0.0929302
-0.0293786 -0.113909 0.351466
-0.153998 -0.0837279 0.258343
-0.0418524 0.0725671 -0.223403
0.0435767 0.294228 -0.180654
0.065947 0.0712082 -0.0437214
-0.0138219 -0.269312 0.165356
-0.0724521 -0.197956 0.121544
-0.0196905 0.171183 -0.105105
-0.072121 0.0136992 0.298989
-0.109134 0.00332177 0.0723534
0.0228735 -0.0125636 -0.273643
0.119899 -0.00923486 -0.20114
0.0325885 0.00797024 0.173953
-0.0775079 -0.287783 0.321321
-0.113973 -0.0676974 0.0755869
0.0238862 0.255933 -0.28576
0.125211 0.188108 -0.21003
0.0350226 -0.167433 0.186946
0 -0.173124 0
0 -0.0518207 0
0 0.195911 0
0 0.143992 0
0 -0.100724 0
-0.153294 0.0916735 -0.342192
-0.231965 0.022139 -0.0828213
0.0486178 -0.0837282 0.313233
0.254846 -0.0615436 0.230241
0.0692672 0.0533359 -0.199089
-0.072121 0.216254 -0.160993
-0.109134 0.0523412 -0.0389653
0.0228735 -0.197957 0.147369
0.119899 -0.145507 0.108323
0.0325885 0.125817 -0.0936662
0.119363 0.0100687 0.266449
0.180603 0.00244167 0.0644827
-0.0378525 -0.00923489 -0.243876
-0.198418 -0.00678813 -0.17926
-0.0539351 0.00585803 0.155021
0.128278 -0.211517 0.286351
0.18863 -0.0497567 0.0673604
-0.0395326 0.188108 -0.254659
-0.207229 0.138257 -0.187171
-0.0579636 -0.123061 0.1666
0 0.154096 0
0 0.0362492 0
0 -0.137042 0
0 -0.100724 0
0 0.0896538 0
-0.164744 -0.0815979 0.22299
-0.242251 -0.0191949 0.0524556
0.0507704 0.0725671 -0.198311
0.266138 0.0533359 -0.145756
0.0744409 -0.0474739 0.129736
-0.0775079 -0.192486 0.104911
-0.113973 -0.04528 0.024679
0.0238862 0.171183 -0.0933003
0.125211 0.125817 -0.0685745
0.0350226 -0.111989 0.0610377
0.128278 -0.00896212 -0.173632
0.18863 -0.00210823 -0.0408447
-0.0395325 0.00797025 0.154415
-0.207229 0.00585803 0.113493
-0.0579636 -0.00521419 -0.10102
0.13786 0.18827 -0.186601
0.202719 0.0442881 -0.0438955
-0.0424853 -0.167433 0.165949
-0.222707 -0.123061 0.12197
-0.062293 0.109536 -0.108565
