# vtk DataFile Version 3.0
Velocity field
ASCII
DATASET STRUCTURED_POINTS
DIMENSIONS 10 10 10
SPACING 0.631579 0.631579 0.631579
ORIGIN 0 0 0
POINT_DATA 1000
VECTORS velocity float
0 0.378354 0
0 0.305368 0
0 0.114569 0
0 -0.120432 0
0 -0.308969 0
0 -0.378304 0
0 -0.301686 0
0 -0.108676 0
0 0.126263 0
0 0.312488 0
0 0.232382 0.296374
0 0.187555 0.248581
0 0.0703674 0.0932635
0 -0.0739683 -0.098036
0 -0.189767 -0.251513
0 -0.232351 -0.307954
0 -0.185293 -0.245584
0 -0.0667478 -0.0884661
0 0.0775496 0.102783
0 0.191928 0.244779
0 -0.00324435 0.478404
0 -0.0026185 0.401258
0 -0.000982418 0.150545
0 0.00103269 -0.158249
0 0.00264938 -0.40599
0 0.00324392 -0.497096
0 0.00258693 -0.39642
0 0.000931884 -0.142801
0 -0.00108269 0.165911
0 -0.00267955 0.395121
0 -0.237619 0.475863
0 -0.191782 0.399127
0 -0.0719532 0.149745
0 0.0756353 -0.157408
0 0.194043 -0.403833
0 0.237588 -0.494456
0 0.189469 -0.394314
0 0.068252 -0.142043
0 -0.0792973 0.16503
0 -0.196253 0.393022
0 -0.380319 0.28973
0 -0.306954 0.243009
0 -0.115164 0.0911728
0 0.121057 -0.0958384
0 0.310574 -0.245875
0 0.380268 -0.30105
0 0.303253 -0.240079
0 0.10924 -0.086483
0 -0.126918 0.100479
0 -0.314111 0.239292
0 -0.376289 -0.00818275
0 -0.303701 -0.00686322
0 -0.113944 -0.00257496
0 0.119774 0.00270673
0 0.307283 0.00694415
0 0.376239 0.00850245
0 0.300039 0.00678047
0 0.108082 0.00244251
0 -0.125573 -0.00283778
0 -0.310782 -0.00675825
0 -0.227084 -0.302939
0 -0.183278 -0.254087
0 -0.0687629 -0.0953293
0 0.0722817 0.100208
0 0.18544 0.257084
0 0.227053 0.314775
0 0.181068 0.251024
0 0.0652258 0.0904257
0 -0.0757813 -0.105059
0 -0.187552 -0.250201
0 0.00973228 -0.480818
0 0.00785489 -0.403283
0 0.00294702 -0.151305
0 -0.00309783 0.159048
0 -0.00794752 0.408038
0 -0.00973099 0.499605
0 -0.00776018 0.39842
0 -0.00279543 0.143522
0 0.00324782 -0.166748
0 0.00803803 -0.397115
0 0.242793 -0.473195
0 0.195957 -0.396889
0 0.0735199 -0.148906
0 -0.0772821 0.156526
0 -0.198268 0.401569
0 -0.242761 0.491684
0 -0.193595 0.392103
0 -0.0697381 0.141246
0 0.0810238 -0.164104
0 0.200526 -0.390818
0 0.382183 -0.283009
0 0.308458 -0.228416
0 0.115728 -0.0856977
0 -0.12165 0.0900832
0 -0.312096 0.231109
0 -0.382132 0.282972
0 -0.304739 0.225662
0 -0.109775 0.0812896
0 0.12754 -0.0944447
0 0.31565 -0.233741
0 0.305368 0
0 0.259282 0
0 0.0972783 0
0 -0.102256 0
0 -0.26234 0
0 -0.321211 0
0 -0.256156 0
0 -0.0922744 0
0 0.107207 0
0 0.252208 0
0.0430923 0.187555 0.328002
0.11617 0.156122 0.272984
0.143111 0.0586101 0.102482
0.114815 -0.0616107 -0.107729
0.0422236 -0.158063 -0.276381
-0.0466589 -0.193533 -0.338402
-0.11754 -0.154337 -0.269865
-0.143073 -0.0555975 -0.0972148
-0.113387 0.0645134 0.112803
-0.0387699 0.154904 0.270902
0.0695593 -0.0026185 0.529459
0.187522 -0.00217352 0.440649
0.231008 -0.000815921 0.165426
0.185335 0.000857692 -0.173896
0.068157 0.00220042 -0.446131
-0.0753163 0.0026942 -0.546246
-0.189731 0.00214855 -0.435615
-0.230947 0.000773979 -0.156924
-0.183028 -0.00089821 0.182086
-0.0625822 -0.00216266 0.437288
0.0691898 -0.191782 0.526646
0.186525 -0.159451 0.438308
0.229781 -0.0598593 0.164547
0.18435 0.0629239 -0.172972
0.067795 0.161432 -0.443761
-0.0749164 0.197658 -0.543345
-0.188724 0.157626 -0.4333
-0.22972 0.0567824 -0.15609
-0.182056 -0.0658904 0.181119
-0.0622497 -0.158395 0.434965
0.0421264 -0.306954 0.32065
0.113566 -0.255208 0.266864
0.139902 -0.095807 0.100185
0.112242 0.100712 -0.105314
0.0412769 0.258378 -0.270185
-0.0456129 0.316359 -0.330815
-0.114905 0.252287 -0.263816
-0.139865 0.0908825 -0.0950355
-0.110845 -0.10546 0.110274
-0.0379009 -0.253517 0.264829
-0.00118976 -0.303701 -0.009056
-0.0032074 -0.252504 -0.00753695
-0.00395122 -0.0947916 -0.0028295
-0.00317 0.099645 0.00297435
-0.00116578 0.255639 0.00763074
0.00128822 0.313007 0.00934316
0.00324522 0.249614 0.00745088
0.00395017 0.0899193 0.00268406
0.00313058 -0.104343 -0.00311444
0.00107042 -0.250831 -0.00747948
-0.0440469 -0.183278 -0.335268
-0.118744 -0.152381 -0.27903
-0.146281 -0.0572052 -0.104752
-0.117359 0.0601339 0.110115
-0.0431589 0.154274 0.282502
0.0476921 0.188894 0.345898
0.120143 0.150638 0.275844
0.146242 0.0542648 0.0993682
0.115899 -0.0629689 -0.115302
0.0396287 -0.151372 -0.276902
-0.0699104 0.00785489 -0.532131
-0.188467 0.00652915 -0.44287
-0.232173 0.00245107 -0.16626
-0.18627 -0.00257655 0.174773
-0.0685008 -0.00661017 0.448381
0.0756959 -0.00809353 0.549001
0.190688 -0.00645436 0.437811
0.232111 -0.00232508 0.157715
0.183951 0.00269807 -0.183004
0.062898 0.00648746 -0.439494
-0.0688019 0.195957 -0.523694
-0.185423 0.162799 -0.435722
-0.228422 0.0611146 -0.163575
-0.18326 -0.0642432 0.17195
-0.067394 -0.164817 0.441139
0.0744733 -0.201803 0.540133
0.187608 -0.160932 0.430739
0.228361 -0.0579731 0.155167
0.18098 0.0672752 -0.180052
0.0619007 0.161844 -0.432526
-0.0411492 0.308458 -0.313212
-0.107572 0.248956 -0.252792
-0.132493 0.0934039 -0.0948433
-0.106297 -0.0981837 0.0996967
-0.0390907 -0.251891 0.255773
0.0431968 -0.308417 0.31317
0.108819 -0.245954 0.249744
0.132457 -0.0885993 0.0899647
0.104993 0.102937 -0.104524
0.0370217 0.25476 -0.258686
0 0.114569 0
0 0.0972784 0
0 0.0364972 0
0 -0.0383649 0
0 -0.0984255 0
0 -0.120513 0
0 -0.0961054 0
0 -0.0346198 0
0 0.0402223 0
0 0.094624 0
0.0695593 0.0703674 0.233085
0.187522 0.0586101 0.193915
0.231008 0.0220034 0.0727984
0.185335 -0.0231299 -0.0765251
0.068157 -0.0593401 -0.196327
-0.0753163 -0.0726563 -0.240384
-0.189731 -0.0579413 -0.191699
-0.230947 -0.0208724 -0.0690568
-0.183028 0.0242187 0.0801302
-0.0625822 0.0581174 0.192508
0.112282 -0.000982418 0.376245
0.302695 -0.00081592 0.313016
0.372893 -0.000306296 0.117511
0.299167 0.000321973 -0.123527
0.110018 0.000826029 -0.316909
-0.121575 0.0010114 -0.388026
-0.306262 0.000806559 -0.309439
-0.372794 0.00029055 -0.111471
-0.295443 -0.000337175 0.129345
-0.10102 -0.000811392 0.310746
0.111686 -0.0719532 0.374246
0.301088 -0.0598593 0.311352
0.370912 -0.022472 0.116886
0.297577 0.0236225 -0.122871
0.109434 0.0606037 -0.315226
-0.120929 0.074204 -0.385964
-0.304635 0.0591754 -0.307794
-0.370813 0.021317 -0.110878
-0.293873 -0.0247353 0.128658
-0.100483 -0.0594271 0.309095
0.068 -0.115164 0.22786
0.183317 -0.095807 0.189567
0.22583 -0.0359674 0.0711665
0.18118 0.0378088 -0.0748103
0.066629 0.0969988 -0.191925
-0.0736279 0.118766 -0.234995
-0.185479 0.0947122 -0.187403
-0.225771 0.0341187 -0.0675085
-0.178925 -0.0395898 0.0783339
-0.0611793 -0.0951154 0.188193
-0.0019205 -0.113944 -0.00643538
-0.00517736 -0.0947916 -0.00535391
-0.00637802 -0.0355862 -0.00200993
-0.005117 0.0374083 0.00211284
-0.00188178 0.0959707 0.00542052
0.00207945 0.117508 0.00663692
0.00523841 0.093709 0.00529272
0.00637632 0.0337571 0.00190662
0.00505336 -0.0391703 -0.00221235
0.00172787 -0.0941075 -0.00531507
-0.0711001 -0.0687629 -0.238248
-0.191675 -0.0572052 -0.19821
-0.236126 -0.0214757 -0.0744112
-0.18944 0.0225752 0.0782206
-0.0696664 0.0579167 0.200676
0.0769843 0.0709137 0.245708
0.193934 0.0565517 0.195945
0.236063 0.0203719 0.070586
0.187083 -0.0236386 -0.0819051
0.0639684 -0.0567922 -0.196773
-0.112849 0.00294702 -0.378143
-0.304221 0.00245107 -0.314594
-0.374774 0.00092016 -0.118103
-0.300675 -0.000967266 0.12415
-0.110573 -0.00248153 0.318507
0.122188 -0.0030384 0.389983
0.307807 -0.00242304 0.310999
0.374674 -0.000872862 0.112033
0.296934 0.00101285 -0.129998
0.101529 0.00243398 -0.312314
-0.11106 0.0735199 -0.372148
-0.299308 0.0611145 -0.309516
-0.368718 0.0229427 -0.116196
-0.295817 -0.0241173 0.122145
-0.108787 -0.0618732 0.313364
0.120214 -0.0757578 0.383683
0.302835 -0.0604147 0.305976
0.36862 -0.0217635 0.110223
0.292137 0.0252546 -0.1279
0.0999197 0.060721 -0.307362
-0.0664227 0.115728 -0.222575
-0.173642 0.0934039 -0.179639
-0.213869 0.0350436 -0.0673976
-0.171583 -0.0368368 0.0708466
-0.0630998 -0.0945053 0.181758
0.0697279 -0.115713 0.222545
0.175654 -0.0922776 0.177473
0.213812 -0.033241 0.0639308
0.169479 0.0386203 -0.0742767
0.0597602 0.0955816 -0.183828
0 -0.120432 0
0 -0.102256 0
0 -0.0383649 0
0 0.0403281 0
0 0.103462 0
0 0.12668 0
0 0.101023 0
0 0.0363914 0
0 -0.0422807 0
0 -0.0994662 0
0.0691898 -0.0739683 0.0482422
0.186525 -0.0616107 0.0401346
0.229781 -0.0231299 0.015067
0.18435 0.0243141 -0.0158384
0.0677949 0.0623781 -0.0406339
-0.0749164 0.0763759 -0.0497524
-0.188724 0.0609077 -0.0396759
-0.22972 0.0219411 -0.0142926
-0.182056 -0.0254586 0.0165845
-0.0622497 -0.0610914 0.0398439
0.111686 0.00103269 0.0778721
0.301088 0.000857691 0.0647848
0.370912 0.000321973 0.0243212
0.297577 -0.000338459 -0.0255663
0.109434 -0.000868315 -0.0655908
-0.120929 -0.00106318 -0.0803098
-0.304635 -0.000847851 -0.0640444
-0.370813 -0.000305423 -0.023071
-0.293873 0.000354436 0.0267706
-0.100483 0.000852913 0.0643157
0.111092 0.0756353 0.0774585
0.299489 0.0629239 0.0644406
0.368941 0.0236225 0.024192
0.295996 -0.024832 -0.0254305
0.108852 -0.0637065 -0.0652423
-0.120286 -0.0780028 -0.079883
-0.303018 -0.0622049 -0.0637042
-0.368843 -0.0224083 -0.0229485
-0.292313 0.0260016 0.0266284
-0.0999492 0.0624682 0.063974
0.0676388 0.121057 0.0471607
0.182344 0.100712 0.0392348
0.224631 0.0378088 0.0147294
0.180217 -0.0397444 -0.0154834
0.0662752 -0.101965 -0.0397228
-0.0732367 -0.124847 -0.0486369
-0.184493 -0.0995617 -0.0387865
-0.224571 -0.0358654 -0.0139722
-0.177975 0.0416165 0.0162127
-0.0608543 0.0999828 0.0389507
-0.0019103 0.119774 -0.00133195
-0.00514985 0.099645 -0.00110809
-0.00634413 0.0374083 -0.000415996
-0.00508985 -0.0393233 0.000437295
-0.00187179 -0.100884 0.00112188
0.0020684 -0.123523 0.00137364
0.00521058 -0.0985063 0.00109543
0.00634245 -0.0354853 0.000394613
0.00502651 0.0411755 -0.000457891
0.00171869 0.0989233 -0.00110007
-0.0707224 0.0722817 -0.0493108
-0.190656 0.0601338 -0.0410234
-0.234871 0.0225752 -0.0154008
-0.188434 -0.0237309 0.0161893
-0.0692966 -0.0608818 0.0415336
0.0765753 -0.0745444 0.0508542
0.192904 -0.0594469 0.0405549
0.234809 -0.0214148 0.0146092
0.186089 0.0248488 -0.0169519
0.0636286 0.0596984 -0.0407264
-0.112249 -0.00309783 -0.0782651
-0.302606 -0.00257655 -0.0651114
-0.372783 -0.000967266 -0.0244438
-0.299078 0.00101679 0.0256952
-0.109986 0.00260857 0.0659215
0.121539 0.00319395 0.080715
0.306172 0.00254709 0.0643674
0.372684 0.000917547 0.0231874
0.295356 -0.0010647 -0.0269056
0.10099 -0.00255854 -0.0646402
-0.11047 -0.0772821 -0.0770242
-0.297718 -0.0642432 -0.0640605
-0.366759 -0.0241173 -0.024049
-0.294245 0.025352 0.0252802
-0.108209 0.0650408 0.0648568
0.119575 0.0796363 0.079411
0.301227 0.0635076 0.0633279
0.366662 0.0228776 0.0228129
0.290585 -0.0265475 -0.0264716
0.0993889 -0.0638283 -0.0636154
-0.0660699 -0.12165 -0.0460668
-0.172719 -0.0981837 -0.0371803
-0.212732 -0.0368368 -0.0139494
-0.170672 0.0387219 0.0146633
-0.0627646 0.0993414 0.0376188
0.0693575 0.121634 0.0460607
0.174721 0.0969998 0.036732
0.212676 0.034942 0.0132319
0.168579 -0.0405967 -0.0153732
0.0594427 -0.100473 -0.0380472
0 -0.308969 0
0 -0.26234 0
0 -0.0984255 0
0 0.103462 0
0 0.265433 0
0 0.324998 0
0 0.259177 0
0 0.0933626 0
0 -0.108471 0
0 -0.255182 0
0.0421264 -0.189767 -0.155213
0.113566 -0.158063 -0.129128
0.139902 -0.0593401 -0.0484764
0.112242 0.0623781 0.0509581
0.0412769 0.160032 0.130734
-0.0456129 0.195944 0.160072
-0.114905 0.156259 0.127652
-0.139865 0.05629 0.0459847
-0.110845 -0.0653143 -0.0533587
-0.0379009 -0.156731 -0.128193
0.068 0.00264938 -0.250544
0.183317 0.00220042 -0.208437
0.22583 0.000826029 -0.0782504
0.18118 -0.000868315 0.0822562
0.066629 -0.00222768 0.21103
-0.0736279 -0.00272761 0.258386
-0.185479 -0.00217516 0.206055
-0.225771 -0.000783566 0.0742284
-0.178925 0.000909306 -0.0861311
-0.0611793 0.00218816 -0.206928
0.0676388 0.194043 -0.249213
0.182344 0.161432 -0.20733
0.224631 0.0606037 -0.0778346
0.180217 -0.0637064 0.0818195
0.0662752 -0.16344 0.209909
-0.0732367 -0.200117 0.257013
-0.184493 -0.159587 0.20496
-0.224571 -0.0574887 0.0738339
-0.177975 0.0667074 -0.0856734
-0.0608543 0.160263 -0.205828
0.041182 0.310574 -0.151734
0.11102 0.258378 -0.126233
0.136767 0.0969988 -0.0473896
0.109726 -0.101965 0.0498161
0.0403519 -0.261592 0.127803
-0.0445902 -0.320295 0.156483
-0.112329 -0.255425 0.124791
-0.136731 -0.092013 0.0449538
-0.108361 0.106768 -0.0521625
-0.0370513 0.256507 -0.125319
-0.00116309 0.307283 0.00428537
-0.00313552 0.255639 0.00356515
-0.00386265 0.0959707 0.00133842
-0.00309895 -0.100884 -0.00140693
-0.00113964 -0.25882 -0.0036095
0.00125936 -0.3169 -0.00441949
0.00317246 -0.252719 -0.00352443
0.00386162 -0.0910381 -0.00126962
0.00306039 0.105637 0.00147321
0.00104643 0.253789 0.00353934
-0.0430595 0.18544 0.158651
-0.116081 0.154274 0.131988
-0.143002 0.0579168 0.0495503
-0.114728 -0.0608818 -0.052087
-0.0421914 -0.156193 -0.13363
0.0466233 -0.191243 -0.163617
0.11745 -0.152511 -0.13048
0.142964 -0.0549398 -0.0470034
0.113301 0.0637496 0.0545405
0.0387404 0.153157 0.131032
-0.0683432 -0.00794752 0.251808
-0.184242 -0.00661017 0.209488
-0.226969 -0.00248153 0.0786449
-0.182094 0.00260857 -0.0826708
-0.066965 0.00669232 -0.212094
0.0739993 0.00819415 -0.259689
0.186415 0.00653459 -0.207094
0.226909 0.00235398 -0.0746026
0.179828 -0.00273151 0.0865655
0.061488 -0.00656396 0.207972
-0.0672596 -0.198268 0.247816
-0.181266 -0.164817 0.206107
-0.223303 -0.0618732 0.0773748
-0.179151 0.0650408 -0.0813363
-0.0658832 0.166863 -0.208669
0.0728037 0.204308 -0.255495
0.183402 0.16293 -0.203749
0.223243 0.0586927 -0.0733976
0.176923 -0.0681079 0.0851689
0.0605131 -0.163752 0.204675
-0.0402268 -0.312096 0.148214
-0.105161 -0.251891 0.119623
-0.129523 -0.0945053 0.0448806
-0.103914 0.0993414 -0.0471772
-0.0382144 0.254862 -0.121034
0.0422285 0.312054 -0.148194
0.106379 0.248854 -0.118181
0.129488 0.0896441 -0.042572
0.10264 -0.104151 0.0494614
0.0361918 -0.257764 0.122412
0 -0.378304 0
0 -0.321211 0
0 -0.120513 0
0 0.12668 0
0 0.324998 0
0 0.39793 0
0 0.317338 0
0 0.114314 0
0 -0.132813 0
0 -0.312446 0
-0.00118976 -0.232351 -0.298786
-0.0032074 -0.193533 -0.248571
-0.00395122 -0.0726563 -0.0933177
-0.00317 0.0763759 0.0980948
-0.00116578 0.195944 0.251664
0.00128822 0.239915 0.308138
0.00324522 0.191325 0.245731
0.00395017 0.068922 0.0885207
0.00313058 -0.0799713 -0.102715
0.00107042 -0.191902 -0.246772
-0.0019205 0.00324392 -0.482298
-0.00517736 0.0026942 -0.401242
-0.00637802 0.0010114 -0.150632
-0.005117 -0.00106318 0.158344
-0.00188178 -0.00272761 0.406232
0.00207945 -0.00333969 0.497395
0.00523841 -0.0026633 0.396658
0.00637632 -0.000959404 0.142889
0.00505336 0.00111336 -0.165802
0.00172787 0.0026792 -0.398337
-0.0019103 0.237588 -0.479736
-0.00514985 0.197658 -0.399111
-0.00634413 0.074204 -0.149832
-0.00508985 -0.0780028 0.157503
-0.00187179 -0.200117 0.404075
0.0020684 -0.245024 0.494752
0.00521058 -0.1954 0.39455
0.00634245 -0.0703894 0.14213
0.00502651 0.0816771 -0.164922
0.00171869 0.196227 -0.396221
-0.00116309 0.380268 -0.292088
-0.00313552 0.316359 -0.242999
-0.00386265 0.118766 -0.0912255
-0.00309895 -0.124847 0.0958956
-0.00113964 -0.320295 0.246022
0.00125936 -0.392171 0.301231
0.00317246 -0.312745 0.240222
0.00386162 -0.112662 0.0865366
0.00306039 0.130727 -0.100413
0.00104643 0.314069 -0.24124
3.28488e-05 0.376239 0.00824935
8.85547e-05 0.313007 0.00686294
0.000109092 0.117508 0.00257643
8.75227e-05 -0.123523 -0.00270837
3.21865e-05 -0.3169 -0.00694831
-3.55672e-05 -0.388015 -0.00850756
-8.96e-05 -0.309431 -0.00678453
-0.000109063 -0.111468 -0.00244402
-8.64335e-05 0.129342 0.00283593
-2.95539e-05 0.31074 0.00681326
0.00121611 0.227053 0.305404
0.00327845 0.188894 0.254077
0.00403875 0.0709137 0.095384
0.00324023 -0.0745444 -0.100268
0.00119159 -0.191243 -0.257237
-0.00131676 -0.23416 -0.314964
-0.00331712 -0.186737 -0.251175
-0.00403768 -0.0672687 -0.0904815
-0.00319991 0.0780556 0.104991
-0.00109413 0.187526 0.252238
0.00193019 -0.00973099 0.484732
0.00520348 -0.00809353 0.403265
0.00641019 -0.0030384 0.151391
0.00514278 0.00319395 -0.159142
0.00189127 0.00819415 -0.40828
-0.00208993 0.010033 -0.499904
-0.00526482 0.00800097 -0.398659
-0.00640849 0.00288223 -0.14361
-0.00507884 -0.00334447 0.166638
-0.00173659 -0.00803695 0.400347
0.00189959 -0.242761 0.477047
0.00511944 -0.201803 0.396757
0.00630663 -0.0757578 0.148947
0.00505975 0.0796363 -0.156572
0.00186072 0.204308 -0.401688
-0.00205617 0.250156 -0.49183
-0.00517975 0.199493 -0.392219
-0.00630496 0.0718639 -0.141291
-0.00499679 -0.0833917 0.163951
-0.00170905 -0.200499 0.393999
0.00113611 -0.382132 0.285313
0.00297001 -0.308417 0.230275
0.00365806 -0.115713 0.0863953
0.0029348 0.121634 -0.0908164
0.00107928 0.312054 -0.23299
-0.00119264 0.382081 -0.285275
-0.00300443 0.304698 -0.227498
-0.00365709 0.109761 -0.0819512
-0.00289881 -0.127523 0.0952134
-0.00102215 -0.315608 0.235644
0 -0.301686 0
0 -0.256156 0
0 -0.0961054 0
0 0.101023 0
0 0.259177 0
0 0.317338 0
0 0.253067 0
0 0.0911618 0
0 -0.105915 0
0 -0.249167 0
-0.0440469 -0.185293 -0.327085
-0.118744 -0.154337 -0.272114
-0.146281 -0.0579413 -0.102155
-0.117359 0.0609077 0.107386
-0.0431589 0.156259 0.2755
0.0476921 0.191325 0.337323
0.120143 0.152575 0.269005
0.146242 0.0549631 0.0969049
0.115899 -0.0637747 -0.112444
0.0396287 -0.153036 -0.270144
-0.0711001 0.00258693 -0.527978
-0.191675 0.00214855 -0.439245
-0.236126 0.000806559 -0.164898
-0.18944 -0.000847851 0.173342
-0.0696664 -0.00217516 0.444709
0.0769843 -0.0026633 0.544505
0.193934 -0.00212391 0.434225
0.236063 -0.0007651 0.156423
0.187083 0.000887875 -0.181506
0.0639684 0.00213658 -0.436065
-0.0707224 0.189469 -0.525174
-0.190656 0.157626 -0.436911
-0.234871 0.0591754 -0.164023
-0.188434 -0.0622049 0.172421
-0.0692966 -0.159587 0.442346
0.0765753 -0.1954 0.541612
0.192904 -0.155825 0.431919
0.234809 -0.0561338 0.155592
0.186089 0.065135 -0.180542
0.0636286 0.156485 -0.433748
-0.0430595 0.303253 -0.319753
-0.116081 0.252287 -0.266014
-0.143002 0.0947122 -0.099866
-0.114728 -0.0995617 0.104979
-0.0421914 -0.255425 0.269323
0.0466233 -0.312745 0.32976
0.11745 -0.249405 0.262975
0.142964 -0.089844 0.0947326
0.113301 0.104251 -0.109923
0.0387404 0.25046 -0.264088
0.00121611 0.300039 0.00903068
0.00327845 0.249614 0.00751296
0.00403875 0.093709 0.00282047
0.00324023 -0.0985063 -0.00296487
0.00119159 -0.252719 -0.0076064
-0.00131676 -0.309431 -0.00931338
-0.00331712 -0.246762 -0.00742714
-0.00403768 -0.0888919 -0.00267551
-0.00319991 0.103146 0.00310453
-0.00109413 0.247806 0.00745856
0.0450225 0.181068 0.33433
0.121373 0.150638 0.278142
0.149522 0.0565516 0.104418
0.119958 -0.0594469 -0.109764
0.0441148 -0.152511 -0.281601
-0.0487487 -0.186737 -0.344795
-0.122805 -0.148917 -0.274965
-0.149482 -0.0536448 -0.0990515
-0.118466 0.0622471 0.114935
-0.0405065 0.149547 0.276128
0.0714589 -0.00776018 0.530643
0.192641 -0.00645435 0.44146
0.237317 -0.00242304 0.16573
0.190395 0.00254709 -0.174216
0.0700177 0.00653459 -0.446952
-0.0773727 0.00800097 -0.547251
-0.194913 0.00638052 -0.436415
-0.237254 0.00229849 -0.157212
-0.188027 -0.00266712 0.182422
-0.0642912 -0.00640923 0.438265
0.0703259 -0.193595 0.522229
0.18953 -0.160932 0.434334
0.233482 -0.0604147 0.163054
0.18732 0.0635076 -0.171402
0.068887 0.16293 -0.439733
-0.0761225 0.199493 -0.538412
-0.191763 0.159089 -0.429367
-0.23342 0.0573092 -0.154673
-0.184989 -0.0665024 0.179479
-0.0632719 -0.159892 0.431316
0.0420607 -0.304739 0.312336
0.109955 -0.245954 0.252085
0.135427 -0.0922776 0.0945781
0.108651 0.0969998 -0.0994179
0.0399565 0.248854 -0.255058
-0.0441536 0.304698 -0.312294
-0.111229 0.242988 -0.249046
-0.135391 0.087531 -0.0897131
-0.107319 -0.101696 0.104231
-0.0378418 -0.251688 0.257963
0 -0.108676 0
0 -0.0922745 0
0 -0.0346198 0
0 0.0363914 0
0 0.0933626 0
0 0.114314 0
0 0.0911618 0
0 0.032839 0
0 -0.0381534 0
0 -0.0897567 0
-0.0699104 -0.0667478 -0.229192
-0.188467 -0.0555975 -0.190674
-0.232173 -0.0208724 -0.071582
-0.18627 0.0219411 0.075247
-0.0685008 0.0562901 0.193046
0.0756959 0.068922 0.236367
0.190688 0.0549631 0.188496
0.232111 0.0197996 0.0679027
0.183951 -0.0229738 -0.0787912
0.062898 -0.0551279 -0.189293
-0.112849 0.000931884 -0.36996
-0.304221 0.000773979 -0.307784
-0.374774 0.00029055 -0.115547
-0.300675 -0.000305423 0.121463
-0.110573 -0.000783567 0.311614
0.122188 -0.000959404 0.381541
0.307807 -0.0007651 0.304268
0.374674 -0.000275614 0.109608
0.296934 0.000319843 -0.127184
0.101529 0.000769655 -0.305555
-0.112249 0.068252 -0.367995
-0.302606 0.0567825 -0.306149
-0.372783 0.021317 -0.114933
-0.299078 -0.0224083 0.120817
-0.109986 -0.0574887 0.309958
0.121539 -0.0703895 0.379515
0.306172 -0.0561338 0.302652
0.372684 -0.0202213 0.109026
0.295356 0.0234639 -0.126508
0.10099 0.0563702 -0.303932
-0.0683432 0.10924 -0.224055
-0.184242 0.0908826 -0.1864
-0.226969 0.0341187 -0.0699771
-0.182094 -0.0358655 0.07356
-0.066965 -0.0920131 0.188719
0.0739993 -0.112662 0.231068
0.186415 -0.089844 0.18427
0.226909 -0.0323649 0.0663805
0.179828 0.0375549 -0.0770248
0.061488 0.0902228 -0.18505
0.00193019 0.108082 0.0063279
0.00520348 0.0899194 0.00526443
0.00641019 0.0337571 0.00197634
0.00514278 -0.0354853 -0.00207753
0.00189127 -0.0910381 -0.00532991
-0.00208993 -0.111468 -0.00652598
-0.00526482 -0.0888919 -0.00520427
-0.00640849 -0.0320219 -0.00187477
-0.00507884 0.0371569 0.00217539
-0.00173659 0.0892667 0.0052263
0.0714589 0.0652258 0.234269
0.192641 0.0542648 0.194898
0.237317 0.0203719 0.0731675
0.190395 -0.0214148 -0.0769133
0.0700177 -0.0549398 -0.197322
-0.0773727 -0.0672687 -0.241602
-0.194913 -0.0536448 -0.192671
-0.237254 -0.0193247 -0.0694068
-0.188027 0.0224235 0.0805366
-0.0642912 0.0538709 0.193486
0.113418 -0.00279543 0.371827
0.305755 -0.00232508 0.309337
0.376663 -0.000872862 0.11613
0.30219 0.000917547 -0.122075
0.111131 0.00235398 -0.313186
-0.122804 0.00288223 -0.383465
-0.30936 0.00229849 -0.305802
-0.376563 0.000827995 -0.110161
-0.298431 -0.000960786 0.127825
-0.102042 -0.00230878 0.307097
0.11162 -0.0697381 0.365932
0.300817 -0.0579731 0.304344
0.370578 -0.0217635 0.114254
0.29731 0.0228776 -0.120104
0.109335 0.0586928 -0.308127
-0.12082 0.071864 -0.377273
-0.304361 0.0573092 -0.300865
-0.37048 0.0206447 -0.108381
-0.29361 -0.0239564 0.125763
-0.100424 -0.0575976 0.302228
0.0667579 -0.109775 0.218857
0.174518 -0.0885993 0.176639
0.214948 -0.033241 0.0662719
0.172449 0.034942 -0.0696633
0.0634183 0.0896441 -0.178722
-0.0700798 0.109761 -0.218828
-0.176541 0.087531 -0.174509
-0.214891 0.0315311 -0.062863
-0.170334 -0.0366338 0.0730361
-0.0600617 -0.090665 0.180757
0 0.126263 0
0 0.107207 0
0 0.0402223 0
0 -0.0422806 0
0 -0.108471 0
0 -0.132813 0
0 -0.105915 0
0 -0.0381533 0
0 0.0443277 0
0 0.104282 0
-0.0688019 0.0775496 -0.0428755
-0.185423 0.0645118 -0.0357362
-0.228422 0.0242181 -0.0134167
-0.18326 -0.0254579 0.0141036
-0.067394 -0.0653126 0.0361829
0.0744733 -0.0799693 0.0443025
0.187609 -0.0637731 0.03533
0.228361 -0.0229732 0.0127271
0.18098 0.0266584 -0.0147662
0.0619007 0.0640492 -0.0354114
-0.11106 -0.00108269 -0.0692092
-0.299308 -0.000898186 -0.0576851
-0.368718 -0.000337166 -0.0216571
-0.295817 0.000354426 0.0227659
-0.108787 0.000909281 0.0584062
0.120214 0.00111333 0.0715129
0.302835 0.000887851 0.0570294
0.36862 0.000319834 0.020544
0.292137 -0.000371183 -0.0238355
0.0999197 -0.000894208 -0.0571609
-0.11047 -0.0792973 -0.0688416
-0.297718 -0.0658887 -0.0573787
-0.366759 -0.0247347 -0.0215421
-0.294245 0.0260009 0.022645
-0.108209 0.0667056 0.058096
0.119575 0.0816749 0.0711331
0.301227 0.0651333 0.0567265
0.366662 0.0234633 0.0204349
0.290585 -0.0272278 -0.0237089
0.0993889 -0.0654926 -0.0568572
-0.0672596 -0.126918 -0.0419143
-0.181266 -0.105457 -0.0349351
-0.223303 -0.0395888 -0.0131159
-0.179151 0.0416154 0.0137875
-0.0658832 0.106765 0.0353718
0.0728036 0.130724 0.0433096
0.183402 0.104248 0.034538
0.223243 0.0375539 0.0124418
0.176923 -0.0435792 -0.0144352
0.0605131 -0.104824 -0.0346176
0.00189959 -0.125573 0.00118377
0.00511944 -0.10434 0.000986662
0.00630663 -0.0391693 0.000370428
0.00505975 0.0411745 -0.000389394
0.00186072 0.105634 -0.000998993
-0.00205617 0.129339 -0.00122318
-0.00517975 0.103144 -0.000975448
-0.00630496 0.0371559 -0.00035139
-0.00499678 -0.0431174 0.000407688
-0.00170905 -0.103713 0.000977694
0.0703259 -0.0757813 0.0438252
0.18953 -0.0629673 0.0365278
0.233482 -0.0236379 0.0137139
0.18732 0.0248481 -0.014416
0.068887 0.063748 -0.0369844
-0.0761224 0.0780535 -0.0452839
-0.191763 0.0622454 -0.0361126
-0.23342 0.0224229 -0.013009
-0.184989 -0.0260206 0.0150933
-0.0632719 -0.0625888 0.0361958
0.11162 0.00324782 0.0695585
0.300817 0.00269801 0.057976
0.370578 0.00101282 0.0217663
0.29731 -0.00106467 -0.0228807
0.109335 -0.00273144 -0.0587007
-0.12082 -0.00334438 -0.0718736
-0.304361 -0.00266705 -0.0573169
-0.37048 -0.000960761 -0.0206476
-0.29361 0.00111493 0.0239557
-0.100424 0.00268241 0.0574493
0.10985 0.0810238 0.0684556
0.29596 0.0672736 0.0570387
0.364592 0.025254 0.0214142
0.292507 -0.0265469 -0.0225105
0.107569 -0.0681062 -0.0577511
-0.118869 -0.0833896 -0.0707108
-0.299447 -0.0665007 -0.0563897
-0.364495 -0.0239558 -0.0203136
-0.288868 0.0278007 0.0235686
-0.0988317 0.0669186 0.0565385
0.0656995 0.12754 0.0409421
0.171751 0.102937 0.0330442
0.21154 0.0386203 0.0123976
0.169715 -0.0405967 -0.013032
0.0624128 -0.104151 -0.0334339
-0.0689687 -0.127523 -0.0409366
-0.173741 -0.101696 -0.0326458
-0.211484 -0.0366338 -0.0117599
-0.167634 0.0425622 0.013663
-0.0591094 0.105337 0.0338146
0 0.312488 0
0 0.252208 0
0 0.094624 0
0 -0.0994663 0
0 -0.255182 0
0 -0.312446 0
0 -0.249167 0
0 -0.0897567 0
0 0.104282 0
0 0.258088 0
-0.0411492 0.191928 0.159983
-0.107572 0.154904 0.129122
-0.132492 0.0581174 0.0484443
-0.106297 -0.0610914 -0.0509234
-0.0390906 -0.156731 -0.130645
0.0431967 -0.191902 -0.159962
0.108818 -0.153036 -0.127565
0.132457 -0.0551279 -0.0459524
0.104993 0.0640493 0.0533889
0.0370217 0.158516 0.132132
-0.0664227 -0.00267955 0.258244
-0.173642 -0.00216266 0.208428
-0.213868 -0.000811392 0.0781985
-0.171583 0.000852914 -0.0822002
-0.0630998 0.00218816 -0.210885
0.0697279 0.0026792 -0.258209
0.175654 0.00213658 -0.205914
0.213812 0.000769655 -0.0741761
0.169479 -0.000894208 0.08618
0.0597602 -0.00221308 0.213287
-0.0660699 -0.196253 0.256872
-0.172719 -0.158395 0.20732
-0.212732 -0.0594271 0.0777831
-0.170672 0.0624682 -0.0817635
-0.0627646 0.160263 -0.209765
0.0693575 0.196227 -0.256838
0.174721 0.156485 -0.204821
0.212676 0.0563703 -0.073782
0.168579 -0.0654927 0.0857222
0.0594427 -0.162088 0.212154
-0.0402268 -0.314111 0.156397
-0.10516 -0.253517 0.126227
-0.129522 -0.0951154 0.0473584
-0.103914 0.0999828 -0.0497819
-0.0382144 0.256507 -0.127716
0.0422284 0.314069 -0.156376
0.106379 0.250461 -0.124705
0.129488 0.0902228 -0.0449223
0.102639 -0.104824 0.0521921
0.0361918 -0.259428 0.12917
0.00113611 -0.310782 -0.00441707
0.00297001 -0.250831 -0.003565
0.00365806 -0.0941075 -0.00133753
0.0029348 0.0989233 0.00140597
0.00107928 0.253789 0.00360704
-0.00119264 0.310741 0.00441648
-0.00300443 0.247806 0.00352201
-0.00365709 0.0892667 0.00126873
-0.00289881 -0.103713 -0.00147404
-0.00102215 -0.256679 -0.00364812
0.0420607 -0.187552 -0.163527
0.109955 -0.151372 -0.131982
0.135427 -0.0567922 -0.0495174
0.108651 0.0596985 0.0520514
0.0399565 0.153157 0.133538
-0.0441536 0.187526 0.163505
-0.111229 0.149547 0.130391
-0.135391 0.0538709 0.0469703
-0.107319 -0.0625888 -0.0545715
-0.0378418 -0.154901 -0.135059
0.0667579 0.00803803 -0.259547
0.174518 0.00648746 -0.209479
0.214948 0.00243398 -0.0785931
0.172449 -0.00255854 0.082615
0.0634182 -0.00656396 0.21195
-0.0700798 -0.00803696 0.259512
-0.17654 -0.00640923 0.206954
-0.214891 -0.00230878 0.0745504
-0.170334 0.00268241 -0.0866149
-0.0600617 0.00663872 -0.214363
0.0656995 0.200526 -0.255432
0.171751 0.161844 -0.206158
0.21154 0.0607211 -0.077347
0.169715 -0.0638283 0.0813051
0.0624127 -0.163752 0.208589
-0.0689686 -0.200499 0.255398
-0.173741 -0.159892 0.203672
-0.211483 -0.0575976 0.0733684
-0.167634 0.0669187 -0.0852416
-0.0591094 0.165617 -0.210965
0.0392937 0.31565 -0.152769
0.102721 0.25476 -0.123299
0.126518 0.0955816 -0.0462599
0.101503 -0.100473 0.0486271
0.037328 -0.257764 0.124753
-0.0412489 -0.315608 0.152749
-0.103912 -0.251688 0.121813
-0.126484 -0.090665 0.0438803
-0.100259 0.105337 -0.0509815
-0.0353523 0.2607 -0.126174
