# vtk DataFile Version 3.0
Velocity field
ASCII
DATASET STRUCTURED_POINTS
DIMENSIONS 10 10 10
SPACING 0.631579 0.631579 0.631579
ORIGIN 0 0 0
POINT_DATA 1000
VECTORS velocity float
0 0.450497 0
0 0.363594 0
0 0.136414 0
0 -0.143395 0
0 -0.367882 0
0 -0.450437 0
0 -0.35921 0
0 -0.129397 0
0 0.150338 0
0 0.372072 0
0 0.276692 0.352885
0 0.223317 0.295979
0 0.0837847 0.111046
0 -0.0880722 -0.116729
0 -0.22595 -0.29947
0 -0.276655 -0.366673
0 -0.220624 -0.292411
0 -0.0794749 -0.105334
0 0.0923363 0.122381
0 0.228524 0.291452
0 -0.00386297 0.569624
0 -0.00311779 0.477768
0 -0.00116974 0.17925
0 0.0012296 -0.188423
0 0.00315455 -0.483402
0 0.00386245 -0.59188
0 0.00308019 -0.472007
0 0.00110957 -0.17003
0 -0.00128913 0.197546
0 -0.00319048 0.47046
0 -0.282927 0.566598
0 -0.22835 0.47523
0 -0.0856729 0.178298
0 0.090057 -0.187422
0 0.231042 -0.480834
0 0.28289 -0.588736
0 0.225596 -0.469499
0 0.081266 -0.169127
0 -0.0944173 0.196497
0 -0.233674 0.467961
0 -0.452836 0.344974
0 -0.365482 0.289345
0 -0.137123 0.108557
0 0.14414 -0.114112
0 0.369792 -0.292757
0 0.452776 -0.358453
0 0.361076 -0.285856
0 0.130069 -0.102973
0 -0.151119 0.119637
0 -0.374004 0.284919
0 -0.448038 -0.00974299
0 -0.361609 -0.00817186
0 -0.13567 -0.00306595
0 0.142612 0.00322283
0 0.365874 0.00826822
0 0.447978 0.0101237
0 0.357249 0.00807333
0 0.128691 0.00290824
0 -0.149517 -0.00337888
0 -0.37004 -0.00804687
0 -0.270383 -0.360701
0 -0.218225 -0.302536
0 -0.0818743 -0.113506
0 0.086064 0.119315
0 0.220798 0.306103
0 0.270347 0.374795
0 0.215594 0.298888
0 0.0776628 0.107668
0 -0.0902309 -0.125091
0 -0.223313 -0.297908
0 0.011588 -0.572498
0 0.00935262 -0.480179
0 0.00350894 -0.180155
0 -0.00368851 0.189374
0 -0.00946291 0.485841
0 -0.0115864 0.594867
0 -0.00923985 0.474389
0 -0.00332845 0.170888
0 0.00386709 -0.198543
0 0.00957068 -0.472834
0 0.289088 -0.563421
0 0.233322 -0.472566
0 0.0875383 -0.177299
0 -0.0920179 0.186371
0 -0.236073 0.478138
0 -0.289049 0.585435
0 -0.230508 0.466867
0 -0.0830354 0.168179
0 0.096473 -0.195395
0 0.238761 -0.465338
0 0.455055 -0.336972
0 0.367274 -0.271969
0 0.137795 -0.102038
0 -0.144846 0.10726
0 -0.371604 0.275176
0 -0.454995 0.336927
0 -0.362845 0.26869
0 -0.130707 0.0967894
0 0.151859 -0.112453
0 0.375837 -0.27831
0 0.363594 0
0 0.308721 0
0 0.115827 0
0 -0.121754 0
0 -0.312362 0
0 -0.382458 0
0 -0.304999 0
0 -0.109869 0
0 0.127649 0
0 0.300297 0
0.051309 0.223317 0.390544
0.139183 0.186969 0.326987
0.171475 0.070208 0.122788
0.137572 -0.0738036 -0.129076
0.0505922 -0.189344 -0.331147
-0.0559067 -0.231834 -0.405458
-0.140836 -0.18488 -0.323341
-0.171429 -0.0666011 -0.11648
-0.13585 0.0772401 0.135081
-0.0461624 0.18444 0.322556
0.0828225 -0.00311779 0.630413
0.224669 -0.00260166 0.527819
0.276793 -0.000976863 0.198203
0.222068 0.00102689 -0.208354
0.0816659 0.0026345 -0.534534
-0.0902442 0.00322568 -0.654488
-0.227337 0.00257239 -0.521934
-0.27672 0.000926672 -0.188021
-0.219287 -0.00107488 0.218047
-0.074515 -0.00257502 0.520667
0.0823826 -0.22835 0.627065
0.223475 -0.190951 0.525015
0.275323 -0.0717022 0.19715
0.220888 0.0753745 -0.207247
0.081232 0.193374 -0.531694
-0.089765 0.236767 -0.651011
-0.226129 0.188815 -0.519161
-0.27525 0.0680186 -0.187022
-0.218123 -0.078886 0.216889
-0.0741192 -0.188597 0.517901
0.0501588 -0.365482 0.38179
0.136064 -0.305624 0.319656
0.167631 -0.114762 0.120035
0.134489 0.12064 -0.126183
0.0494581 0.309501 -0.323723
-0.0546533 0.378956 -0.396369
-0.137679 0.302207 -0.316092
-0.167587 0.108867 -0.113869
-0.132804 -0.12626 0.132053
-0.0451276 -0.301857 0.315325
-0.00141662 -0.361609 -0.0107828
-0.00384279 -0.302386 -0.00902793
-0.00473436 -0.113546 -0.00339013
-0.0037983 0.119361 0.00356374
-0.00139684 0.306222 0.0091428
0.00154355 0.37494 0.0111946
0.00388843 0.299005 0.0089273
0.00473311 0.107713 0.00321595
0.00375076 -0.124923 -0.00372953
0.00127452 -0.298658 -0.00890563
-0.0524455 -0.218225 -0.399195
-0.142266 -0.182484 -0.334229
-0.175273 -0.0685231 -0.125508
-0.140619 0.0720322 0.131935
-0.0517129 0.184799 0.338481
0.0571448 0.22627 0.414439
0.143956 0.180444 0.330504
0.175227 0.0650027 0.11906
0.138859 -0.0753886 -0.138073
0.0471849 -0.180235 -0.329701
-0.0832405 0.00935262 -0.633595
-0.225801 0.00781763 -0.530478
-0.278188 0.00293548 -0.199202
-0.223188 -0.0030858 0.209404
-0.0820776 -0.00791667 0.537229
0.0906989 -0.00969321 0.657787
0.228482 -0.00773007 0.524565
0.278115 -0.00278467 0.188968
0.220392 0.0032297 -0.219146
0.074891 0.00772445 -0.523295
-0.0819207 0.233322 -0.623549
-0.222125 0.194897 -0.521851
-0.273659 0.0731812 -0.19596
-0.219552 -0.0769288 0.205995
-0.0807407 -0.197361 0.528483
0.0892219 -0.24165 0.647077
0.224762 -0.19271 0.516024
0.273586 -0.0694213 0.185892
0.216804 0.0805196 -0.215585
0.0737036 0.192703 -0.514998
-0.0489953 0.367274 -0.372933
-0.128083 0.296425 -0.300993
-0.157756 0.111214 -0.112928
-0.126565 -0.116905 0.118706
-0.0465443 -0.299921 0.304543
0.0514333 -0.367225 0.372884
0.129568 -0.292851 0.297364
0.157714 -0.105493 0.107119
0.125013 0.122565 -0.124454
0.0440808 0.303336 -0.308011
0 0.136414 0
0 0.115827 0
0 0.0434563 0
0 -0.0456801 0
0 -0.117193 0
0 -0.143492 0
0 -0.11443 0
0 -0.0412209 0
0 0.0478917 0
0 0.112666 0
0.0828225 0.0837847 0.277529
0.224669 0.070208 0.232284
0.276793 0.0263644 0.0872259
0.222068 -0.0277147 -0.0916929
0.0816659 -0.0711022 -0.235239
-0.0902442 -0.0870579 -0.288029
-0.227337 -0.0694261 -0.229694
-0.27672 -0.02501 -0.0827453
-0.219287 0.0290033 0.0959589
-0.074515 0.0691989 0.229215
0.133692 -0.00116974 0.447985
0.362659 -0.000976863 0.374951
0.4468 -0.000366801 0.140799
0.358462 0.000385582 -0.14801
0.131824 0.000989217 -0.379722
-0.145671 0.00121121 -0.464934
-0.366965 0.000965903 -0.370771
-0.446681 0.000347955 -0.133566
-0.353972 -0.000403582 0.154896
-0.120282 -0.000966104 0.369997
0.132981 -0.0856729 0.445605
0.360733 -0.0717022 0.372959
0.444426 -0.0269251 0.140051
0.356558 0.0283041 -0.147224
0.131124 0.0726144 -0.377704
-0.144897 0.0889099 -0.462464
-0.365015 0.0709028 -0.368801
-0.444308 0.0255419 -0.132857
-0.352091 -0.029621 0.154073
-0.119643 -0.0707584 0.368032
0.080966 -0.137123 0.271308
0.219632 -0.114762 0.227077
0.27059 -0.0430948 0.0852705
0.21709 0.0453019 -0.089638
0.0798349 0.116222 -0.229966
-0.088221 0.142303 -0.281572
-0.222241 0.113483 -0.224546
-0.270518 0.040881 -0.0808901
-0.214372 -0.0474095 0.0938078
-0.0728446 -0.113252 0.224077
-0.00228669 -0.13567 -0.00766245
-0.00620299 -0.113546 -0.00641328
-0.00764214 -0.042638 -0.00240827
-0.0061312 0.0448219 0.00253161
-0.00225475 0.114991 0.00649489
0.00249159 0.140795 0.00795238
0.00627666 0.11228 0.00634175
0.00764011 0.0404477 0.00228455
0.00605446 -0.0469071 -0.00264938
0.00205733 -0.112051 -0.00632852
-0.0846571 -0.0818743 -0.283676
-0.229645 -0.0685231 -0.237429
-0.282925 -0.0257314 -0.0891584
-0.226987 0.0270491 0.0937241
-0.0834746 0.0693947 0.240451
0.0922427 0.0849674 0.294409
0.232372 0.0677592 0.234782
0.28285 0.0244095 0.0845777
0.224145 -0.0283076 -0.0980845
0.0761656 -0.0676211 -0.234292
-0.134366 0.00350894 -0.450246
-0.364486 0.00293548 -0.376841
-0.449052 0.00110229 -0.141509
-0.360269 -0.00115874 0.148757
-0.132488 -0.00297276 0.381635
0.146405 -0.00363987 0.467278
0.368814 -0.00290268 0.372639
0.448932 -0.00104566 0.13424
0.355756 0.0012127 -0.155676
0.120889 0.00289808 -0.371864
-0.132236 0.0875383 -0.443107
-0.358552 0.0731812 -0.370712
-0.441738 0.0274794 -0.139205
-0.354401 -0.0288867 0.146335
-0.130331 -0.074109 0.375422
0.144021 -0.0907396 0.45967
0.362809 -0.0723622 0.366573
0.44162 -0.0260677 0.132054
0.349964 0.0302332 -0.153148
0.118972 0.072299 -0.365968
-0.0790878 0.137795 -0.265014
-0.206751 0.111214 -0.213892
-0.254648 0.0417255 -0.0802487
-0.2043 -0.0438607 0.0843552
-0.0751314 -0.112525 0.216414
0.0830233 -0.137776 0.264979
0.209147 -0.109873 0.211313
0.25458 -0.0395792 0.0761208
0.201795 0.0459843 -0.0884394
0.0711549 0.113807 -0.218879
0 -0.143395 0
0 -0.121754 0
0 -0.0456801 0
0 0.0480177 0
0 0.12319 0
0 0.150835 0
0 0.120286 0
0 0.0433304 0
0 -0.0503425 0
0 -0.118432 0
0.0823826 -0.0880722 0.0574407
0.223475 -0.0738035 0.0480758
0.275323 -0.0277147 0.0180531
0.220888 0.029134 -0.0189777
0.081232 0.0747438 -0.0486876
-0.089765 0.0915165 -0.0596133
-0.226129 0.0729817 -0.0475396
-0.27525 0.0262909 -0.0171257
-0.218123 -0.0304885 0.0198605
-0.0741192 -0.07274 0.0474411
0.132981 0.0012296 0.0927204
0.360733 0.00102689 0.0776032
0.444426 0.000385582 0.0291412
0.356558 -0.000405331 -0.0306336
0.131124 -0.00103987 -0.0785908
-0.144897 -0.00127324 -0.0962273
-0.365015 -0.00101537 -0.0767381
-0.444308 -0.000365771 -0.0276441
-0.352091 0.000424248 0.0320588
-0.119643 0.00101554 0.0765791
0.132275 0.090057 0.0922278
0.358816 0.0753745 0.077191
0.442064 0.0283041 0.0289864
0.354663 -0.0297536 -0.0304708
0.130427 -0.0763332 -0.0781732
-0.144127 -0.0934628 -0.0957159
-0.363077 -0.0745342 -0.0763305
-0.441946 -0.02685 -0.0274972
-0.350221 0.0311378 0.0318885
-0.119007 0.0743793 0.0761723
0.0805358 0.14414 0.0561531
0.218466 0.12064 0.046998
0.269153 0.0453019 0.0176484
0.215937 -0.0476218 -0.0185523
0.0794109 -0.122174 -0.0475959
-0.0877522 -0.149592 -0.0582769
-0.22106 -0.119295 -0.046474
-0.269081 -0.0429745 -0.0167418
-0.213233 0.0498373 0.0194153
-0.0724577 0.119047 0.0463776
-0.00227455 0.142612 -0.00158591
-0.00617004 0.119361 -0.00132735
-0.00760154 0.0448219 -0.000498439
-0.00609866 -0.0471171 0.000523967
-0.00224278 -0.12088 0.00134424
0.00247836 -0.148006 0.0016459
0.00624332 -0.11803 0.00131255
0.00759952 -0.0425191 0.000472832
0.00602228 0.0493093 -0.000548341
0.0020464 0.117785 -0.00130983
-0.0842074 0.086064 -0.0587131
-0.228425 0.0720322 -0.0491406
-0.281422 0.0270491 -0.018453
-0.225782 -0.0284344 0.019398
-0.0830314 -0.0729488 0.0497658
0.0917527 -0.0893192 0.0609336
0.231138 -0.0712293 0.0485929
0.281347 -0.0256595 0.017505
0.222954 0.0297573 -0.0203005
0.075761 0.0710814 -0.0484919
-0.133652 -0.00368851 -0.0931883
-0.36255 -0.0030858 -0.0779944
-0.446666 -0.00115874 -0.029288
-0.358355 0.00121808 0.030788
-0.131785 0.003125 0.0789868
0.145627 0.00382627 0.0967124
0.366855 0.00305135 0.0771248
0.446547 0.00109921 0.0277835
0.353866 -0.0012748 -0.0322203
0.120246 -0.00304639 -0.0769655
-0.131533 -0.0920179 -0.0917108
-0.356648 -0.0769288 -0.0767262
-0.439391 -0.0288867 -0.0288113
-0.352517 0.030366 0.0302867
-0.129638 0.0779041 0.0777009
0.143256 0.0953862 0.0951376
0.360882 0.0760678 0.0758696
0.439274 0.0274025 0.0273311
0.348105 -0.0317814 -0.0316969
0.11834 -0.0759988 -0.0757452
-0.0786677 -0.144846 -0.0548506
-0.205653 -0.116905 -0.0442697
-0.253295 -0.0438607 -0.0166092
-0.203215 0.0461052 0.0174592
-0.0747323 0.118283 0.0447917
0.0825822 0.144827 0.0548433
0.208036 0.115495 0.0437359
0.253228 0.0416046 0.0157549
0.200723 -0.0483374 -0.0183045
0.0707769 -0.11963 -0.0453018
0 -0.367882 0
0 -0.312362 0
0 -0.117193 0
0 0.12319 0
0 0.316045 0
0 0.386968 0
0 0.308595 0
0 0.111164 0
0 -0.129154 0
0 -0.303838 0
0.0501588 -0.22595 -0.184808
0.136064 -0.189344 -0.154677
0.167631 -0.0711022 -0.0580836
0.134489 0.0747438 0.0610581
0.0494581 0.191755 0.156645
-0.0546533 0.234786 0.191798
-0.137679 0.187235 0.152953
-0.167587 0.0674496 0.0550996
-0.132804 -0.0782185 -0.0638989
-0.0451276 -0.186615 -0.152636
0.080966 0.00315455 -0.298316
0.219632 0.0026345 -0.249679
0.27059 0.000989217 -0.093758
0.21709 -0.00103987 0.0985597
0.0798349 -0.00266781 0.252856
-0.088221 -0.00326652 0.309598
-0.222241 -0.00260492 0.246896
-0.270518 -0.00093839 0.0889416
-0.214372 0.00108841 -0.103145
-0.0728446 0.00260539 -0.246384
0.0805358 0.231042 -0.296732
0.218466 0.193374 -0.248353
0.269153 0.0726144 -0.0932599
0.215937 -0.0763332 0.0980363
0.0794109 -0.195834 0.251512
-0.0877522 -0.239781 0.307953
-0.22106 -0.191217 0.245584
-0.269081 -0.068884 0.088469
-0.213233 0.0798844 -0.102597
-0.0724577 0.190821 -0.245075
0.0490344 0.369792 -0.180666
0.133013 0.309501 -0.151211
0.163874 0.116222 -0.0567815
0.131474 -0.122174 0.0596896
0.0483497 -0.313439 0.153134
-0.0534281 -0.383778 0.187498
-0.134593 -0.306051 0.149525
-0.163831 -0.110251 0.0538645
-0.129827 0.127858 -0.0624664
-0.044116 0.305416 -0.149214
-0.00138486 0.365874 0.00510248
-0.00375665 0.306222 0.00427058
-0.00462822 0.114991 0.00160366
-0.00371316 -0.12088 -0.00168578
-0.00136551 -0.310117 -0.0043249
0.00150897 -0.37971 -0.00529543
0.00380125 -0.302809 -0.00422297
0.004627 -0.109083 -0.00152129
0.00366667 0.126503 0.00176422
0.00124595 0.30218 0.00421421
-0.0512698 0.220798 0.188902
-0.139077 0.184799 0.158103
-0.171344 0.0693947 0.0593702
-0.137467 -0.0729488 -0.0624106
-0.0505537 -0.187151 -0.160115
0.0558641 -0.229148 -0.196046
0.140729 -0.182739 -0.156341
0.171299 -0.0658299 -0.0563203
0.135746 0.0763426 0.0653142
0.0461272 0.18236 0.156017
-0.0813745 -0.00946291 0.299822
-0.220739 -0.00791667 0.250937
-0.271954 -0.00297276 0.0942305
-0.218184 0.003125 -0.0990563
-0.0802373 0.00801722 -0.25413
0.0886658 0.00981636 -0.311158
0.223361 0.00782827 -0.24814
0.271882 0.00282005 -0.0893899
0.215452 -0.00327052 0.103665
0.0732123 -0.00781554 0.247627
-0.0800843 -0.236073 0.295068
-0.217145 -0.197361 0.246857
-0.267525 -0.074109 0.0926965
-0.214631 0.0779041 -0.0974442
-0.0789305 0.199864 -0.249993
0.0872215 0.244715 -0.306093
0.219723 0.195153 -0.2441
0.267454 0.0703015 -0.0879344
0.211944 -0.0815354 0.10198
0.0720515 -0.194976 0.243701
-0.047897 -0.371604 0.176475
-0.125212 -0.299921 0.142432
-0.154219 -0.112525 0.0534381
-0.123728 0.118283 -0.0561728
-0.0455009 0.303457 -0.144112
0.0502804 0.371555 -0.176451
0.126663 0.296304 -0.140715
0.154178 0.106737 -0.0506894
0.12221 -0.12401 0.0588924
0.0430927 -0.306913 0.145753
0 -0.450437 0
0 -0.382458 0
0 -0.143492 0
0 0.150835 0
0 0.386968 0
0 0.473806 0
0 0.377846 0
0 0.136111 0
0 -0.158137 0
0 -0.372022 0
-0.00141662 -0.276655 -0.355757
-0.00384279 -0.231834 -0.297755
-0.00473436 -0.0870579 -0.111811
-0.0037983 0.0915165 0.117537
-0.00139684 0.234786 0.301544
0.00154355 0.287474 0.369211
0.00388843 0.229252 0.294436
0.00473311 0.0825859 0.106067
0.00375076 -0.0957712 -0.123005
0.00127452 -0.228493 -0.293825
-0.00228669 0.00386245 -0.57426
-0.00620299 0.00322568 -0.480634
-0.00764214 0.00121121 -0.180485
-0.0061312 -0.00127324 0.189728
-0.00225475 -0.00326652 0.486748
0.00249159 -0.00399952 0.59598
0.00627666 -0.0031895 0.475275
0.00764011 -0.00114897 0.171212
0.00605446 0.00133266 -0.198554
0.00205733 0.00319005 -0.47429
-0.00227455 0.28289 -0.57121
-0.00617004 0.236767 -0.478081
-0.00760154 0.0889099 -0.179527
-0.00609866 -0.0934628 0.18872
-0.00224278 -0.239781 0.484163
0.00247836 -0.293588 0.592813
0.00624332 -0.234128 0.47275
0.00759952 -0.0843419 0.170303
0.00602228 0.0978112 -0.1975
0.0020464 0.233642 -0.47177
-0.00138486 0.452776 -0.347782
-0.00375665 0.378956 -0.29108
-0.00462822 0.142303 -0.109305
-0.00371316 -0.149592 0.114902
-0.00136551 -0.383778 0.294784
0.00150897 -0.469899 0.360936
0.00380125 -0.374731 0.287835
0.004627 -0.134993 0.103689
0.00366667 0.15655 -0.120248
0.00124595 0.373954 -0.287238
3.91122e-05 0.447978 0.0098223
0.000106097 0.37494 0.00822088
0.000130714 0.140795 0.00308704
0.00010487 -0.148006 -0.00324517
3.85658e-05 -0.37971 -0.00832546
-4.26164e-05 -0.46492 -0.0101938
-0.000107359 -0.37076 -0.00812925
-0.000130679 -0.133562 -0.00292846
-0.000103557 0.154891 0.00339613
-3.51891e-05 0.369991 0.00811237
0.001448 0.270347 0.363637
0.00392789 0.22627 0.30435
0.00483922 0.0849674 0.114288
0.00388245 -0.0893192 -0.120141
0.00142777 -0.229148 -0.308222
-0.00157774 -0.28057 -0.377389
-0.00397457 -0.223748 -0.300958
-0.00483794 -0.0806025 -0.108417
-0.00383383 0.0934743 0.12573
-0.00130276 0.223283 0.300333
0.00229823 -0.0115864 0.577158
0.00623427 -0.00969321 0.483056
0.00768068 -0.00363987 0.181394
0.00616208 0.00382627 -0.190684
0.00226611 0.00981636 -0.489201
-0.00250415 0.0120192 -0.598985
-0.00630829 0.00958495 -0.477672
-0.00767864 0.00345288 -0.172076
-0.00608497 -0.00400445 0.199555
-0.00206771 -0.0095694 0.476683
0.0022618 -0.289049 0.568007
0.00613278 -0.24165 0.4752
0.00755558 -0.0907396 0.178442
0.00606179 0.0953862 -0.18758
0.00222921 0.244715 -0.481238
-0.00246336 0.299631 -0.589232
-0.00620555 0.238947 -0.469894
-0.00755357 0.0860777 -0.169274
-0.00598587 -0.0998326 0.196313
-0.00203493 -0.23873 0.469125
0.00135274 -0.454995 0.339715
0.00353632 -0.367225 0.274183
0.00435556 -0.137776 0.102869
0.0034944 0.144827 -0.108133
0.00128507 0.371555 -0.277416
-0.00142005 0.454934 -0.33967
-0.0035773 0.362797 -0.270877
-0.0043544 0.130689 -0.0975773
-0.00345155 -0.151839 0.113368
-0.00121705 -0.375787 0.280575
0 -0.35921 0
0 -0.304999 0
0 -0.11443 0
0 0.120286 0
0 0.308595 0
0 0.377846 0
0 0.301321 0
0 0.108544 0
0 -0.12611 0
0 -0.296676 0
-0.0524455 -0.220624 -0.389452
-0.142266 -0.18488 -0.325957
-0.175273 -0.0694261 -0.122401
-0.140619 0.0729817 0.12867
-0.0517129 0.187235 0.330105
0.0571448 0.229252 0.404181
0.143956 0.182822 0.322322
0.175227 0.0658596 0.116113
0.138859 -0.0763748 -0.134656
0.0471849 -0.182216 -0.321654
-0.0846571 0.00308019 -0.628651
-0.229645 0.00257239 -0.526156
-0.282925 0.000965903 -0.197579
-0.226987 -0.00101537 0.207698
-0.0834746 -0.00260492 0.532851
0.0922427 -0.0031895 0.652427
0.232372 -0.00254354 0.52029
0.28285 -0.000916278 0.187429
0.224145 0.00106276 -0.21736
0.0761656 0.00254397 -0.519211
-0.0842074 0.225596 -0.625311
-0.228425 0.188815 -0.523361
-0.281422 0.0709028 -0.196529
-0.225782 -0.0745342 0.206594
-0.0830314 -0.191217 0.53002
0.0917527 -0.234128 0.648961
0.231138 -0.18671 0.517526
0.281347 -0.0672605 0.186433
0.222954 0.0780013 -0.216206
0.075761 0.186323 -0.516453
-0.0512698 0.361076 -0.380722
-0.139077 0.302207 -0.318649
-0.171344 0.113483 -0.119658
-0.137467 -0.119295 0.125785
-0.0505537 -0.306051 0.322704
0.0558641 -0.374731 0.39512
0.140729 -0.298838 0.315097
0.171299 -0.107653 0.11351
0.135746 0.124844 -0.131637
0.0461272 0.298217 -0.314443
0.001448 0.357249 0.0107526
0.0039279 0.299005 0.00899951
0.00483922 0.11228 0.00337943
0.00388245 -0.11803 -0.00355251
0.00142777 -0.302809 -0.00911399
-0.00157774 -0.37076 -0.0111593
-0.00397457 -0.29567 -0.0088992
-0.00483794 -0.106512 -0.00320583
-0.00383383 0.123521 0.00371778
-0.00130276 0.295057 0.00888072
0.0536072 0.215594 0.398079
0.145417 0.180444 0.333177
0.179157 0.0677592 0.125112
0.143734 -0.0712293 -0.13152
0.0528584 -0.182739 -0.337415
-0.0584107 -0.223748 -0.413134
-0.147145 -0.178432 -0.329463
-0.179109 -0.0642781 -0.118685
-0.141935 0.0745432 0.137639
-0.0482301 0.178062 0.328779
0.0850843 -0.00923985 0.631823
0.230802 -0.00773007 0.528808
0.284351 -0.00290268 0.198574
0.228131 0.00305135 -0.208745
0.0838952 0.00782827 -0.535537
-0.0927077 0.00958495 -0.655716
-0.233544 0.0076437 -0.522912
-0.284276 0.00275356 -0.188373
-0.225275 -0.00319342 0.218456
-0.0765499 -0.00763131 0.521831
0.0837353 -0.230508 0.621805
0.227045 -0.19271 0.520207
0.27972 -0.0723622 0.195343
0.224417 0.0760678 -0.205346
0.0825294 0.195153 -0.526818
-0.0911979 0.238947 -0.645039
-0.22974 0.190552 -0.514399
-0.279646 0.0686445 -0.185307
-0.221607 -0.0796135 0.214906
-0.0753362 -0.19038 0.513558
0.0500806 -0.362845 0.371891
0.13092 -0.292851 0.300151
0.16125 -0.109873 0.112612
0.129368 0.115495 -0.118374
0.0475752 0.296304 -0.303691
-0.0525726 0.362797 -0.371841
-0.132438 0.28932 -0.296532
-0.161207 0.104221 -0.106819
-0.127782 -0.121087 0.124106
-0.0450572 -0.299679 0.30715
0 -0.129397 0
0 -0.109869 0
0 -0.0412209 0
0 0.0433304 0
0 0.111164 0
0 0.136111 0
0 0.108544 0
0 0.0391006 0
0 -0.0454282 0
0 -0.106871 0
-0.0832405 -0.0794749 -0.272893
-0.225801 -0.0666011 -0.228403
-0.278188 -0.02501 -0.0857684
-0.223188 0.026291 0.0901614
-0.0820776 0.0674497 0.231309
0.0906989 0.082586 0.283216
0.228482 0.0658597 0.225857
0.278115 0.0237252 0.0813625
0.220392 -0.0275131 -0.0943554
0.074891 -0.0656394 -0.225386
-0.134366 0.00110957 -0.440502
-0.364486 0.000926672 -0.368686
-0.449052 0.000347955 -0.138447
-0.360269 -0.000365771 0.145537
-0.132488 -0.000938391 0.373377
0.146405 -0.00114897 0.457165
0.368814 -0.000916279 0.364576
0.448932 -0.000330079 0.131335
0.355756 0.000382846 -0.152308
0.120889 0.000916409 -0.363817
-0.133652 0.081266 -0.438162
-0.36255 0.0680187 -0.366727
-0.446666 0.0255419 -0.137711
-0.358355 -0.02685 0.144764
-0.131785 -0.068884 0.371394
0.145627 -0.084342 0.454737
0.366855 -0.0672605 0.36264
0.446547 -0.0242299 0.130637
0.353866 0.0280991 -0.151499
0.120246 0.0671186 -0.361885
-0.0813745 0.130069 -0.266776
-0.220739 0.108867 -0.223283
-0.271954 0.040881 -0.0838457
-0.218184 -0.0429746 0.0881399
-0.0802373 -0.110252 0.226124
0.0886658 -0.134993 0.276867
0.223361 -0.107653 0.220793
0.271882 -0.0387807 0.0795385
0.215452 0.0449738 -0.0922403
0.0732123 0.107426 -0.220334
0.00229823 0.128691 0.00753447
0.00623426 0.107713 0.0063061
0.00768068 0.0404478 0.00236803
0.00616208 -0.0425191 -0.0024893
0.00226611 -0.109083 -0.00638631
-0.00250415 -0.133562 -0.00781946
-0.00630829 -0.106512 -0.0062358
-0.00767864 -0.0383698 -0.00224638
-0.00608497 0.0444972 0.00260512
-0.00206771 0.106288 0.00622282
0.0850843 0.0776628 0.278938
0.230802 0.0650028 0.233462
0.284351 0.0244096 0.0876683
0.228131 -0.0256595 -0.092158
0.0838952 -0.0658299 -0.236432
-0.0927077 -0.0806026 -0.289489
-0.233544 -0.0642782 -0.230859
-0.284276 -0.0231555 -0.0831648
-0.225275 0.0268532 0.0964457
-0.0765499 0.0641427 0.230379
0.135044 -0.00332845 0.442725
0.366322 -0.00278467 0.370544
0.451315 -0.00104566 0.139144
0.362083 0.00109921 -0.146271
0.133156 0.00282005 -0.375259
-0.147143 0.00345288 -0.459469
-0.370673 0.00275356 -0.366413
-0.451195 0.000991942 -0.131997
-0.35755 -0.00115039 0.153076
-0.121499 -0.00274901 0.365653
0.132903 -0.0830354 0.435706
0.36036 -0.0694213 0.364518
0.443965 -0.0260677 0.136879
0.356187 0.0274026 -0.143889
0.130988 0.0703015 -0.369149
-0.144747 0.0860778 -0.45199
-0.364636 0.0686445 -0.36045
-0.443847 0.0247284 -0.129847
-0.351728 -0.0286798 0.150588
-0.119572 -0.06858 0.359856
0.079487 -0.130707 0.260588
0.207794 -0.105493 0.21032
0.255933 -0.0395792 0.0789083
0.205331 0.0416046 -0.0829463
0.0755105 0.106737 -0.2128
-0.0834422 0.130689 -0.260553
-0.210202 0.104221 -0.207784
-0.255865 0.0375433 -0.0748494
-0.202813 -0.0436189 0.0869623
-0.071514 -0.107953 0.215223
0 0.150338 0
0 0.127649 0
0 0.0478917 0
0 -0.0503425 0
0 -0.129154 0
0 -0.158137 0
0 -0.12611 0
0 -0.0454282 0
0 0.0527799 0
0 0.124166 0
-0.0819207 0.0923363 -0.0510507
-0.222125 0.0772379 -0.0428414
-0.273659 0.0290024 -0.0160891
-0.219552 -0.0304876 0.0169132
-0.0807407 -0.0782162 0.0433909
0.0892219 -0.0957685 0.0531281
0.224762 -0.0763726 0.042368
0.273586 -0.0275123 0.0152627
0.216804 0.0319093 -0.0176965
0.0737036 0.0762618 -0.0421635
-0.132236 -0.00128913 -0.0824057
-0.358553 -0.00107484 -0.0691542
-0.441738 -0.000403569 -0.025971
-0.354401 0.000424234 0.0273011
-0.130331 0.00108837 0.0700412
0.144021 0.00133262 0.0857589
0.362809 0.00106272 0.0683902
0.44162 0.000382833 0.024637
0.349964 -0.000444089 -0.0285655
0.118972 -0.00106471 -0.06806
-0.131533 -0.0944173 -0.0819679
-0.356648 -0.0788836 -0.0687868
-0.439391 -0.0296201 -0.025833
-0.352517 0.0311369 0.0271561
-0.129638 0.0798819 0.0696691
0.143256 0.0978082 0.0853033
0.360882 0.0779989 0.0680271
0.439274 0.0280982 0.0245061
0.348105 -0.0325898 -0.0284138
0.11834 -0.0779805 -0.0676985
-0.0800843 -0.151119 -0.0499063
-0.217145 -0.126256 -0.041881
-0.267525 -0.047408 -0.0157284
-0.214631 0.0498358 0.016534
-0.0789305 0.127854 0.0424182
0.0872215 0.156545 0.0519372
0.219723 0.12484 0.0414184
0.267454 0.0449724 0.0149206
0.211944 -0.0521613 -0.0172998
0.0720515 -0.124811 -0.0412183
0.0022618 -0.149517 0.00140949
0.00613278 -0.124919 0.00118283
0.00755558 -0.0469057 0.000444213
0.00606179 0.0493077 -0.000466965
0.00222921 0.126499 -0.001198
-0.00246336 0.154886 -0.00146684
-0.00620555 0.123518 -0.00116977
-0.00755358 0.0444958 -0.000421397
-0.00598587 -0.0516085 0.000488592
-0.00203493 -0.123488 0.00116412
0.0837353 -0.0902309 0.0521815
0.227045 -0.0753863 0.0437904
0.27972 -0.0283067 0.0164455
0.224417 0.0297564 -0.0172878
0.0825294 0.0763402 -0.0443521
-0.0911979 0.0934714 -0.0543049
-0.22974 0.0745409 -0.0433066
-0.279646 0.0268524 -0.0156008
-0.221607 -0.0311449 0.0180885
-0.0753362 -0.0745229 0.0430974
0.132903 0.00386709 0.0828216
0.36036 0.00322961 0.0695027
0.443965 0.00121266 0.0261018
0.356187 -0.00127476 -0.0274387
0.130988 -0.00327042 -0.0703942
-0.144747 -0.00400432 -0.0861911
-0.364636 -0.00319332 -0.0687348
-0.443847 -0.00115036 -0.0247611
-0.351728 0.0013343 0.0287095
-0.119572 0.00319388 0.0684035
0.130796 0.096473 0.0815084
0.354495 0.0805172 0.0683694
0.436737 0.0302323 0.0256757
0.350388 -0.0317804 -0.0269907
0.128855 -0.0815329 -0.0692449
-0.14239 -0.0998297 -0.0847839
-0.358702 -0.0796111 -0.0676128
-0.436621 -0.0286789 -0.0243569
-0.346004 0.033266 0.0282417
-0.117676 0.0796784 0.0673189
0.0782267 0.151859 0.0487487
0.2045 0.122565 0.0393449
0.251875 0.0459843 0.0147615
0.202075 -0.0483374 -0.0155169
0.0743133 -0.12401 -0.0398089
-0.0821193 -0.151839 -0.0487422
-0.20687 -0.121087 -0.0388705
-0.251808 -0.0436189 -0.0140022
-0.199597 0.0506777 0.0162682
-0.0703801 0.125423 0.0402622
0 0.372072 0
0 0.300297 0
0 0.112666 0
0 -0.118432 0
0 -0.303839 0
0 -0.372022 0
0 -0.296676 0
0 -0.106871 0
0 0.124166 0
0 0.307299 0
-0.0489953 0.228524 0.190488
-0.128083 0.18444 0.153742
-0.157756 0.0691989 0.0576815
-0.126565 -0.07274 -0.0606332
-0.0465442 -0.186615 -0.155555
0.0514333 -0.228493 -0.190463
0.129567 -0.182216 -0.151888
0.157714 -0.0656394 -0.0547144
0.125013 0.0762618 0.0635688
0.0440808 0.188741 0.157327
-0.0790878 -0.00319048 0.307484
-0.206751 -0.00257502 0.248169
-0.254648 -0.000966104 0.093109
-0.2043 0.00101554 -0.0978737
-0.0751314 0.00260539 -0.251096
0.0830232 0.00319005 -0.307443
0.209147 0.00254397 -0.245177
0.25458 0.000916409 -0.0883196
0.201794 -0.00106471 0.102612
0.0711549 -0.00263506 0.253956
-0.0786677 -0.233674 0.305851
-0.205652 -0.188597 0.246851
-0.253295 -0.0707584 0.0926144
-0.203214 0.0743793 -0.0973537
-0.0747322 0.190821 -0.249762
0.0825822 0.233642 -0.30581
0.208036 0.186323 -0.243875
0.253228 0.0671187 -0.0878504
0.200722 -0.0779805 0.102067
0.0707769 -0.192994 0.252607
-0.047897 -0.374004 0.186218
-0.125212 -0.301857 0.150296
-0.154219 -0.113252 0.0563884
-0.123728 0.119047 -0.059274
-0.0455009 0.305416 -0.152068
0.0502803 0.373954 -0.186193
0.126663 0.298217 -0.148484
0.154178 0.107426 -0.0534879
0.12221 -0.124811 0.0621438
0.0430927 -0.308895 0.1538
0.00135274 -0.37004 -0.00525929
0.00353632 -0.298658 -0.00424475
0.00435556 -0.112051 -0.00159256
0.0034944 0.117785 0.00167406
0.00128507 0.30218 0.00429481
-0.00142005 0.369991 0.00525859
-0.0035773 0.295057 0.00419357
-0.0043544 0.106288 0.00151064
-0.00345154 -0.123488 -0.00175511
-0.00121705 -0.305621 -0.00434372
0.0500806 -0.223313 -0.194707
0.13092 -0.180235 -0.157148
0.16125 -0.0676211 -0.0589591
0.129368 0.0710815 0.0619763
0.0475752 0.18236 0.159001
-0.0525726 0.223283 0.194682
-0.132437 0.178062 0.155253
-0.161207 0.0641427 0.0559263
-0.127782 -0.0745229 -0.0649769
-0.0450572 -0.184437 -0.160812
0.079487 0.00957068 -0.309036
0.207794 0.00772446 -0.249422
0.255933 0.00289808 -0.0935788
0.205331 -0.00304639 0.0983676
0.0755105 -0.00781554 0.252363
-0.0834422 -0.0095694 0.308995
-0.210202 -0.00763132 0.246414
-0.255865 -0.00274901 0.0887652
-0.202813 0.00319388 -0.10313
-0.071514 0.00790455 -0.255237
0.0782267 0.238761 -0.304136
0.204499 0.192703 -0.245467
0.251875 0.0722991 -0.0920951
0.202075 -0.0759988 0.0968079
0.0743133 -0.194976 0.248362
-0.0821192 -0.23873 0.304096
-0.206869 -0.19038 0.242507
-0.251808 -0.0685801 0.0873579
-0.199597 0.0796784 -0.101495
-0.0703801 0.197196 -0.25119
0.046786 0.375837 -0.181898
0.122308 0.303336 -0.14681
0.150642 0.113807 -0.0550804
0.120858 -0.11963 0.0578991
0.0444455 -0.306913 0.148541
-0.0491141 -0.375787 0.181874
-0.123725 -0.299679 0.145039
-0.150602 -0.107953 0.0522472
-0.119376 0.125423 -0.0607023
-0.0420931 0.310409 -0.150232
