# vtk DataFile Version 3.0
Velocity field
ASCII
DATASET STRUCTURED_POINTS
DIMENSIONS 8 8 8
SPACING 0.8 0.8 0.8
ORIGIN 0 0 0
POINT_DATA 512
VECTORS velocity float
0 0.363973 0
0 0.253582 0
0 -0.0106278 0
0 -0.268391 0
0 -0.363352 0
0 -0.237909 0
0 0.0318473 0
0 0.282285 0
0 0.143192 0.371489
0 0.0997627 0.274409
0 -0.00418114 -0.0115007
0 -0.105589 -0.290434
0 -0.142948 -0.393194
0 -0.0935964 -0.257448
0 0.0125292 0.034463
0 0.111055 0.288114
0 -0.164448 0.517637
0 -0.114572 0.382365
0 0.00480179 -0.0160252
0 0.121263 -0.404695
0 0.164167 -0.547883
0 0.10749 -0.358732
0 -0.014389 0.0480211
0 -0.12754 0.401462
0 -0.372335 0.349794
0 -0.259408 0.258384
0 0.010872 -0.0108291
0 0.274558 -0.273473
0 0.3717 -0.370232
0 0.243375 -0.242413
0 -0.032579 0.0324503
0 -0.28877 0.271288
0 -0.354369 -0.0302296
0 -0.246891 -0.0223298
0 0.0103474 0.000935859
0 0.26131 0.0236338
0 0.353765 0.0319958
0 0.231631 0.0209496
0 -0.031007 -0.00280439
0 -0.274837 -0.023445
0 -0.121448 -0.391916
0 -0.0846135 -0.289498
0 0.00354622 0.0121331
0 0.0895548 0.306405
0 0.121241 0.414816
0 0.0793836 0.271605
0 -0.0106266 -0.036358
0 -0.0941907 -0.303957
0 0.185142 -0.515872
0 0.12899 -0.381061
0 -0.00540607 0.0159706
0 -0.136523 0.403315
0 -0.184827 0.546014
0 -0.121017 0.357508
0 0.0161998 -0.0478574
0 0.14359 -0.400093
0 0.379428 -0.326907
0 0.26435 -0.227758
0 -0.0110791 0.00954553
0 -0.279788 0.241059
0 -0.378781 0.326349
0 -0.24801 0.21368
0 0.0331996 -0.0286041
0 0.294271 -0.253538
0 0.253582 0
0 0.191814 0
0 -0.00803909 0
0 -0.203016 0
0 -0.274846 0
0 -0.179958 0
0 0.0240899 0
0 0.19667 0
0.0791893 0.0997627 0.36693
0.195546 0.0718261 0.263818
0.190799 -0.00301203 -0.0110631
0.0702911 -0.0760576 -0.279358
-0.0928546 -0.102968 -0.378199
-0.199677 -0.0674194 -0.247629
-0.185357 0.0089983 0.0330529
-0.0568199 0.0773725 0.284578
0.110343 -0.114572 0.511285
0.272475 -0.0822887 0.36761
0.265861 0.0034506 -0.0154153
0.0979448 0.0871335 -0.389262
-0.129385 0.117962 -0.526987
-0.278231 0.0772369 -0.345052
-0.25828 -0.0103105 0.0460565
-0.0791737 -0.0888579 0.396535
0.0745647 -0.259408 0.345501
0.184125 -0.186316 0.248413
0.179657 0.00781298 -0.010417
0.0661859 0.197289 -0.263044
-0.0874322 0.26709 -0.356114
-0.188015 0.174882 -0.233167
-0.174533 -0.0233452 0.0311227
-0.0535017 -0.201188 0.267959
-0.00644396 -0.246891 -0.0298586
-0.0159123 -0.177328 -0.0214681
-0.0155261 0.00743593 0.000900239
-0.00571987 0.187768 0.0227326
0.00755592 0.254205 0.0307754
0.0162485 0.166444 0.0201506
0.0150832 -0.0222187 -0.00268966
0.00462367 -0.191481 -0.0231573
-0.0835438 -0.0846135 -0.387107
-0.206296 -0.0607736 -0.278325
-0.201292 0.00254844 0.0116714
-0.0741551 0.0643519 0.294715
0.0979608 0.0871205 0.398997
0.210653 0.0570427 0.261246
0.195551 -0.00761475 -0.0348705
0.0599444 -0.0656233 -0.300227
-0.109967 0.12899 -0.509541
-0.27149 0.0925872 -0.366284
-0.2649 -0.00388243 0.0153596
-0.0975908 -0.098037 0.387855
0.128917 -0.132723 0.525082
0.277224 -0.0869031 0.343804
0.257347 0.0116017 -0.0458913
0.0789036 0.10004 -0.395183
-0.0696859 0.26435 -0.322895
-0.166787 0.184174 -0.224963
-0.162718 -0.00771889 0.00942838
-0.0599456 -0.19493 0.238101
0.0791884 -0.263899 0.322344
0.170288 -0.172791 0.211058
0.158093 0.0231304 -0.028253
0.050001 0.205021 -0.250426
0 -0.0106278 0
0 -0.00803909 0
0 0.000336925 0
0 0.00850856 0
0 0.011519 0
0 0.00754219 0
0 -0.00100963 0
0 -0.00824259 0
0.110343 -0.00418114 0.139796
0.272475 -0.00301203 0.100455
0.265861 0.000126312 -0.00421246
0.0979448 0.00318954 -0.10637
-0.129385 0.004318 -0.144005
-0.278231 0.00282729 -0.0942901
-0.25828 -0.000377317 0.0125861
-0.0791737 -0.00324275 0.108421
0.153754 0.00480179 0.194794
0.379671 0.0034506 0.139975
0.370455 -0.000144697 -0.0058697
0.136477 -0.00365381 -0.148217
-0.180288 -0.0049466 -0.200662
-0.387692 -0.00323886 -0.131385
-0.359892 0.000432324 0.0175376
-0.110322 0.00372411 0.151075
0.1039 0.010872 0.131632
0.256562 0.00781298 0.094588
0.250336 -0.000327629 -0.00396648
0.0922243 -0.00827308 -0.10016
-0.121829 -0.0112003 -0.135597
-0.261983 -0.0073334 -0.0887839
-0.243195 0.000978879 0.011851
-0.07455 0.00843196 0.102089
-0.0089791 0.0103474 -0.0113758
-0.0221724 0.00743593 -0.00817441
-0.0216343 -0.000311819 0.000342787
-0.00797013 -0.00787391 0.00865582
0.0105286 -0.0106598 0.0117184
0.0226409 -0.00697956 0.00767273
0.0210173 0.000931641 -0.00102418
0.00644268 0.00802511 -0.00882267
-0.116411 0.00354622 -0.147483
-0.287454 0.00254844 -0.105977
-0.280481 -0.000106866 0.0044441
-0.10333 -0.00269853 0.112218
0.136499 -0.00365327 0.151924
0.293526 -0.00239202 0.0994752
0.272482 0.000319291 -0.013278
0.0835273 0.00275033 -0.114383
-0.15323 -0.00540607 -0.194129
-0.378299 -0.00388243 -0.139469
-0.369116 0.000162803 0.00584851
-0.135984 0.00411101 0.147681
0.179636 0.00556557 0.199935
0.386291 0.0036441 0.13091
0.358591 -0.000486465 -0.0174746
0.109945 -0.00419277 -0.15056
-0.0971012 -0.0110791 -0.123019
-0.232403 -0.00771889 -0.0857083
-0.226733 0.000323505 0.00359211
-0.083529 0.00816967 0.0907136
0.110342 0.0110602 0.122809
0.237281 0.00724179 0.0804108
0.220289 -0.000969413 -0.0107641
0.0696721 -0.00859258 -0.0954095
0 -0.268391 0
0 -0.203016 0
0 0.00850856 0
0 0.214872 0
0 0.290897 0
0 0.190468 0
0 -0.0254967 0
0 -0.208155 0
0.0745647 -0.105589 -0.172136
0.184125 -0.0760576 -0.123692
0.179657 0.00318954 0.00518688
0.0661859 0.0805391 0.130976
-0.0874322 0.109035 0.177318
-0.188015 0.0713919 0.116099
-0.174533 -0.00952785 -0.0154974
-0.0535017 -0.081891 -0.133503
0.1039 0.121263 -0.239857
0.256562 0.0871335 -0.172354
0.250336 -0.00365381 0.0072274
0.0922243 -0.0922645 0.182505
-0.121829 -0.124909 0.247075
-0.261983 -0.0817857 0.161775
-0.243195 0.010917 -0.0215942
-0.07455 0.0940471 -0.186025
0.0702102 0.274558 -0.162083
0.173373 0.197289 -0.116467
0.169165 -0.00827308 0.00488393
0.0623208 -0.208905 0.123327
-0.0823259 -0.282822 0.166962
-0.177036 -0.185181 0.109319
-0.16434 0.0247185 -0.0145923
-0.0503772 0.212938 -0.125706
-0.00606764 0.26131 0.0140074
-0.0149829 0.187768 0.0100653
-0.0146192 -0.00787391 -0.000422074
-0.00538584 -0.198828 -0.0106581
0.00711461 -0.269175 -0.0144289
0.0152995 -0.176246 -0.00944748
0.0142023 0.0235257 0.00126108
0.00435365 0.202663 0.0108637
-0.078665 0.0895548 0.181602
-0.19425 0.0643519 0.130493
-0.189535 -0.00269853 -0.00547209
-0.0698255 -0.0681416 -0.138178
0.0922394 -0.0922508 -0.187067
0.198354 -0.0604022 -0.122484
0.184129 0.00806267 0.0163496
0.0564437 0.0694557 0.140844
-0.103545 -0.136523 0.239039
-0.255636 -0.098037 0.171732
-0.249431 0.00411101 -0.00720128
-0.0918911 0.103809 -0.181845
0.121388 0.140539 -0.246183
0.261036 0.0920189 -0.161191
0.242317 -0.0122841 0.0215169
0.0742957 -0.105882 0.18539
-0.0656163 -0.279788 0.151478
-0.157047 -0.19493 0.105536
-0.153215 0.00816967 -0.00442309
-0.0564449 0.206314 -0.111699
0.0745639 0.27931 -0.15122
0.160343 0.182881 -0.0990127
0.14886 -0.0244812 0.0132542
0.047081 -0.216994 0.117481
0 -0.363352 0
0 -0.274846 0
0 0.011519 0
0 0.290897 0
0 0.39382 0
0 0.257858 0
0 -0.0345178 0
0 -0.281804 0
-0.00644396 -0.142948 -0.379653
-0.0159123 -0.102968 -0.272806
-0.0155261 0.00431801 0.0114399
-0.00571987 0.109035 0.288868
0.00755592 0.147612 0.391081
0.0162485 0.0966521 0.256064
0.0150832 -0.012899 -0.0341801
0.00462367 -0.110865 -0.294446
-0.0089791 0.164167 -0.529013
-0.0221724 0.117962 -0.380131
-0.0216343 -0.0049466 0.0159405
-0.00797013 -0.124909 0.402522
0.0105286 -0.169104 0.544936
0.0226409 -0.110722 0.356805
0.0210173 0.0147796 -0.0476271
0.00644268 0.127322 -0.410285
-0.00606764 0.3717 -0.357481
-0.0149829 0.26709 -0.256875
-0.0146192 -0.0112003 0.0107718
-0.00538584 -0.282822 0.272002
0.00711461 -0.382889 0.36824
0.0152995 -0.2507 0.241109
0.0142023 0.0334641 -0.032184
0.00435365 0.288278 -0.27725
0.000524371 0.353765 0.0308939
0.00129485 0.254205 0.0221994
0.00126342 -0.0106598 -0.000930898
0.000465444 -0.269175 -0.0235067
-0.000614857 -0.364416 -0.0318238
-0.0013222 -0.238602 -0.020837
-0.00122738 0.0318494 0.00278137
-0.000376247 0.274368 0.0239602
0.0067983 0.121241 0.400529
0.0167872 0.0871205 0.287804
0.0163798 -0.00365327 -0.0120689
0.00603438 -0.0922508 -0.304753
-0.00797144 -0.124891 -0.412583
-0.0171419 -0.0817735 -0.270144
-0.0159127 0.0109154 0.0360593
-0.00487792 0.0940301 0.310637
0.00894848 -0.184827 0.527209
0.0220923 -0.132723 0.378759
0.0215561 0.00556557 -0.0158829
0.00794134 0.140539 -0.401064
-0.0104906 0.190263 -0.542967
-0.022559 0.124577 -0.355515
-0.0209414 -0.0166303 0.0474563
-0.00642071 -0.143345 0.408885
0.00567062 -0.378781 0.334091
0.0135721 -0.263899 0.232763
0.013241 0.0110602 -0.0097553
0.00487802 0.27931 -0.246357
-0.00644389 0.378135 -0.333521
-0.013857 0.247588 -0.218376
-0.0128647 -0.033143 0.0292327
-0.00406879 -0.293769 0.259109
0 -0.237909 0
0 -0.179958 0
0 0.00754219 0
0 0.190468 0
0 0.257858 0
0 0.168835 0
0 -0.0226009 0
0 -0.184514 0
-0.0835438 -0.0935964 -0.356877
-0.206296 -0.0674194 -0.256442
-0.201292 0.00282729 0.0107536
-0.0741551 0.0713918 0.271543
0.0979608 0.0966521 0.367619
0.210653 0.0632839 0.240702
0.195551 -0.00844575 -0.0321296
0.0599444 -0.0725902 -0.276782
-0.116411 0.10749 -0.497277
-0.287454 0.0772369 -0.35733
-0.280481 -0.00323886 0.0149841
-0.10333 -0.0817857 0.378372
0.136499 -0.110722 0.512245
0.293526 -0.0724962 0.335399
0.272482 0.0096771 -0.0447699
0.0835273 0.0833656 -0.385671
-0.078665 0.243375 -0.336036
-0.19425 0.174882 -0.241465
-0.189535 -0.0073334 0.0101256
-0.0698255 -0.185181 0.255685
0.0922394 -0.2507 0.346151
0.198354 -0.164149 0.226643
0.184129 0.021911 -0.0302532
0.0564437 0.188753 -0.260618
0.0067983 0.231631 0.0290405
0.0167872 0.166444 0.0208677
0.0163798 -0.00697956 -0.000875053
0.00603438 -0.176246 -0.0220966
-0.00797144 -0.238602 -0.0299145
-0.0171419 -0.156227 -0.0195869
-0.0159127 0.0208538 0.00261452
-0.00487792 0.179645 0.0225229
0.0881378 0.0793836 0.376501
0.217638 0.0570427 0.270541
0.212356 -0.00239202 -0.011345
0.0782329 -0.0604022 -0.286472
-0.103346 -0.0817735 -0.387834
-0.222236 -0.0535417 -0.253939
-0.206301 0.00714691 0.0338963
-0.0632406 0.0615672 0.292002
0.116014 -0.121017 0.495581
0.286415 -0.0869031 0.356039
0.279465 0.0036441 -0.0149299
0.102956 0.0920189 -0.377006
-0.136006 0.124577 -0.510395
-0.292465 0.0815684 -0.334187
-0.271497 -0.0108889 0.0446093
-0.0832424 -0.0938568 0.384356
0.0735178 -0.24801 0.314049
0.175958 -0.172791 0.2188
0.171665 0.00724179 -0.00917008
0.063242 0.182881 -0.231577
-0.0835429 0.247588 -0.313513
-0.179652 0.16211 -0.205276
-0.166786 -0.0217007 0.027479
-0.0527505 -0.192348 0.243565
0 0.0318473 0
0 0.0240899 0
0 -0.00100963 0
0 -0.0254967 0
0 -0.0345178 0
0 -0.0226009 0
0 0.00302544 0
0 0.0246997 0
-0.109967 0.0125292 -0.117625
-0.27149 0.00899808 -0.084565
-0.2649 -0.000377308 0.00354619
-0.0975908 -0.00952761 0.0895466
0.128917 -0.0128987 0.121228
0.277224 -0.00844555 0.0793757
0.257347 0.0011276 -0.0105945
0.0789036 0.00971719 -0.0912256
-0.15323 -0.014389 -0.1639
-0.378299 -0.0103103 -0.117834
-0.369116 0.000432313 0.00494129
-0.135984 0.0109167 0.124775
0.179636 0.0147792 0.168922
0.386291 0.00967686 0.110604
0.358591 -0.00129221 -0.0147626
0.109945 -0.0111596 -0.127115
-0.103545 -0.032579 -0.110755
-0.255636 -0.0233446 -0.0796264
-0.249431 0.000978854 0.0033391
-0.0918911 0.0247179 0.0843167
0.121388 0.0334632 0.114149
0.261036 0.0219105 0.0747402
0.242317 -0.0029258 -0.00997582
0.0742957 -0.0252672 -0.0858981
0.00894848 -0.031007 0.0095716
0.0220923 -0.0222181 0.00688141
0.0215561 0.000931617 -0.000288567
0.00794134 0.0235251 -0.00728672
-0.0104906 0.0318486 -0.00986485
-0.022559 0.0208532 -0.00645916
-0.0209414 -0.00278463 0.000862126
-0.00642071 -0.024048 0.0074234
0.116014 -0.0106266 0.124093
0.286415 -0.00761456 0.0892153
0.279465 0.000319282 -0.00374117
0.102956 0.00806246 -0.0944703
-0.136006 0.0109151 -0.127895
-0.292465 0.00714673 -0.0837406
-0.271497 -0.000954342 0.0111771
-0.0832424 -0.00824161 0.096242
0.152707 0.0161998 0.163341
0.376933 0.0116014 0.117408
0.367783 -0.000486453 -0.00492341
0.135493 -0.0122838 -0.124323
-0.178986 -0.0166299 -0.168311
-0.384896 -0.0108887 -0.110203
-0.357295 0.00145411 0.0147096
-0.10957 0.012564 0.126682
0.0967701 0.0331996 0.103509
0.231611 0.0231304 0.0721151
0.22596 -0.000969413 -0.0030224
0.0832442 -0.0244812 -0.0763266
-0.109966 -0.033143 -0.103332
-0.236472 -0.0217007 -0.0676577
-0.219538 0.00290494 0.00905692
-0.0694345 0.0257485 0.0802777
0 0.282285 0
0 0.19667 0
0 -0.00824259 0
0 -0.208155 0
0 -0.281804 0
0 -0.184514 0
0 0.0246997 0
0 0.218931 0
-0.0696859 0.111055 0.192977
-0.166787 0.0773725 0.134449
-0.162718 -0.00324275 -0.00563485
-0.0599456 -0.081891 -0.1423
0.0791884 -0.110865 -0.192648
0.170288 -0.0725902 -0.126138
0.158093 0.00971719 0.0168854
0.050001 0.0861302 0.149667
-0.0971012 -0.12754 0.268897
-0.232403 -0.0888579 0.187342
-0.226733 0.00372411 -0.00785167
-0.083529 0.0940471 -0.198283
0.110342 0.127322 -0.268439
0.237281 0.0833656 -0.175763
0.220289 -0.0111596 0.0235283
0.0696721 -0.0989155 0.208547
-0.0656163 -0.28877 0.181708
-0.157047 -0.201188 0.126597
-0.153215 0.00843196 -0.00530578
-0.0564449 0.212938 -0.13399
0.0745639 0.288278 -0.181398
0.160343 0.188753 -0.118772
0.14886 -0.0252672 0.0158993
0.047081 -0.22396 0.140926
0.00567062 -0.274837 -0.0157033
0.0135721 -0.191481 -0.0109406
0.013241 0.00802511 0.000458531
0.00487802 0.202663 0.0115796
-0.00644389 0.274368 0.0156766
-0.013857 0.179645 0.0102644
-0.0128647 -0.024048 -0.00137403
-0.00406879 -0.213154 -0.012179
0.0735178 -0.0941907 -0.203589
0.175958 -0.0656233 -0.141842
0.171665 0.00275033 0.0059447
0.063242 0.0694557 0.150125
-0.0835429 0.0940301 0.203242
-0.179652 0.0615672 0.133075
-0.166786 -0.00824161 -0.0178139
-0.0527505 -0.0730511 -0.157897
0.0967701 0.14359 -0.26798
0.231611 0.10004 -0.186704
0.225959 -0.00419277 0.0078249
0.0832442 -0.105882 0.197607
-0.109966 -0.143345 0.267523
-0.236472 -0.0938568 0.175163
-0.219538 0.012564 -0.023448
-0.0694345 0.111364 -0.207836
0.0613229 0.294271 -0.169818
0.146771 0.205021 -0.118313
0.14319 -0.00859258 0.00495862
0.0527516 -0.216994 0.125223
-0.0696851 -0.293769 0.169529
-0.149852 -0.192348 0.111001
-0.13912 0.0257485 -0.014859
-0.0440004 0.228227 -0.131705
