# vtk DataFile Version 3.0
Velocity field
ASCII
DATASET STRUCTURED_POINTS
DIMENSIONS 8 8 8
SPACING 0.8 0.8 0.8
ORIGIN 0 0 0
POINT_DATA 512
VECTORS velocity float
0 0.287548 0
0 0.200337 0
0 -0.00839627 0
0 -0.212036 0
0 -0.287058 0
0 -0.187954 0
0 0.0251602 0
0 0.223012 0
0 0.113125 0.293486
0 0.0788151 0.21679
0 -0.00330321 -0.00908586
0 -0.0834179 -0.229451
0 -0.112932 -0.310634
0 -0.0739436 -0.203391
0 0.00989837 0.0272266
0 0.0877361 0.227618
0 -0.129918 0.408947
0 -0.0905146 0.302079
0 0.00379354 -0.0126604
0 0.0958006 -0.31972
0 0.129696 -0.432841
0 0.08492 -0.283407
0 -0.0113677 0.037938
0 -0.10076 0.317165
0 -0.294155 0.276346
0 -0.204939 0.20413
0 0.00858918 -0.00855525
0 0.216908 -0.216051
0 0.293653 -0.292493
0 0.192272 -0.191513
0 -0.0257383 0.0256366
0 -0.228136 0.214325
0 -0.279961 -0.0238821
0 -0.195051 -0.0176411
0 0.00817473 0.000739353
0 0.206441 0.0186713
0 0.279484 0.0252775
0 0.182995 0.0165507
0 -0.0244964 -0.00221554
0 -0.217128 -0.0185222
0 -0.0959469 -0.309624
0 -0.0668469 -0.228711
0 0.00280161 0.00958548
0 0.0707507 0.242068
0 0.0957833 0.327715
0 0.0627151 0.214575
0 -0.00839528 -0.0287238
0 -0.0744131 -0.240134
0 0.146267 -0.407552
0 0.101905 -0.301048
0 -0.00427094 0.0126172
0 -0.107857 0.318629
0 -0.146018 0.431365
0 -0.0956067 0.282441
0 0.0127983 -0.0378086
0 0.11344 -0.316084
0 0.299758 -0.258265
0 0.208843 -0.179935
0 -0.00875279 0.00754121
0 -0.221039 0.190443
0 -0.299247 0.257824
0 -0.195935 0.168813
0 0.0262286 -0.022598
0 0.232482 -0.200301
0 0.200337 0
0 0.151538 0
0 -0.00635109 0
0 -0.160388 0
0 -0.217135 0
0 -0.142172 0
0 0.0190316 0
0 0.155374 0
0.0625616 0.0788151 0.289884
0.15345 0.0563608 0.207039
0.149718 -0.00236295 -0.00868013
0.055157 -0.0596704 -0.219195
-0.0728618 -0.0807825 -0.296748
-0.156684 -0.0528932 -0.194299
-0.145453 0.0070674 0.0259633
-0.0448892 0.0611263 0.224824
0.0871742 -0.0905146 0.403928
0.21382 -0.0645943 0.288492
0.208619 0.00270805 -0.0120949
0.076856 0.0683855 -0.305428
-0.101528 0.0925809 -0.413495
-0.218327 0.0606183 -0.27074
-0.202678 -0.00810069 0.0361775
-0.0625493 -0.0702 0.313273
0.0589081 -0.204939 0.272955
0.144488 -0.146253 0.194949
0.140976 0.00613159 -0.00817318
0.0519356 0.154838 -0.206394
-0.0686073 0.209621 -0.27942
-0.147533 0.137252 -0.182951
-0.13696 -0.0183414 0.024447
-0.0422677 -0.158944 0.211695
-0.0050909 -0.195051 -0.023589
-0.0124869 -0.139196 -0.0168476
-0.0121832 0.0058357 0.00070633
-0.00448832 0.147366 0.0178368
0.00592907 0.199508 0.0241475
0.0127501 0.13063 0.0158109
0.0118361 -0.0174564 -0.00211274
0.00365282 -0.151275 -0.0182949
-0.0660018 -0.0668469 -0.305824
-0.161887 -0.047705 -0.218424
-0.157951 0.002 0.00915739
-0.0581891 0.0505052 0.231246
0.0768687 0.0683744 0.313066
0.165298 0.0447686 0.204984
0.153452 -0.00598262 -0.027391
0.0473576 -0.0518441 -0.237187
-0.0868769 0.101905 -0.402551
-0.213064 0.0726951 -0.287472
-0.207882 -0.00304768 0.0120521
-0.0765843 -0.0769615 0.304347
0.101168 -0.104191 0.412032
0.217553 -0.0682206 0.269782
0.201962 0.00911692 -0.03605
0.0623359 0.0790344 -0.312205
-0.0550537 0.208843 -0.255095
-0.131766 0.145502 -0.177727
-0.128551 -0.00609813 0.00744867
-0.0473586 -0.154 0.188106
0.0625609 -0.208487 0.25466
0.134532 -0.136509 0.166741
0.124898 0.0182736 -0.0223206
0.0395021 0.161972 -0.197843
0 -0.00839627 0
0 -0.00635109 0
0 0.000266179 0
0 0.00672199 0
0 0.00910032 0
0 0.00595853 0
0 -0.000797631 0
0 -0.00651186 0
0.0871742 -0.00330321 0.110443
0.21382 -0.00236295 0.0788397
0.208619 9.90684e-05 -0.00330533
0.076856 0.00250173 -0.0834673
-0.101528 0.00338687 -0.112999
-0.218327 0.0022176 -0.0739877
-0.202678 -0.000296293 0.00988694
-0.0625493 -0.00256185 0.0856555
0.12147 0.00379354 0.153892
0.297938 0.00270805 0.109856
0.290691 -0.000113533 -0.00460565
0.107093 -0.00286701 -0.116304
-0.14147 -0.00388142 -0.157456
-0.304217 -0.00254141 -0.103096
-0.282415 0.000339605 0.0137766
-0.087157 0.00294214 0.119353
0.0820833 0.00858918 0.103993
0.201333 0.00613159 0.0742351
0.196436 -0.000257064 -0.0031123
0.0723673 -0.00649153 -0.0785935
-0.0955979 -0.00878838 -0.106401
-0.205576 -0.0057542 -0.0696674
-0.190841 0.000768931 0.00930951
-0.0588964 0.00666147 0.0806533
-0.00709372 0.00817473 -0.00898716
-0.0173994 0.0058357 -0.00641552
-0.0169762 -0.00024466 0.000268968
-0.0062541 -0.00617831 0.00679213
0.0082617 -0.00836429 0.00919522
0.0177661 -0.00547657 0.00602068
0.0164927 0.000731825 -0.000804543
0.00508989 0.00634004 -0.00697014
-0.0919678 0.00280161 -0.116516
-0.225574 0.002 -0.0831743
-0.220092 -8.38488e-05 0.00348709
-0.0810816 -0.00211741 0.0880564
0.10711 -0.00286655 0.119213
0.230328 -0.0018769 0.0780564
0.213823 0.00025081 -0.0104306
0.0659887 0.00217283 -0.0903655
-0.121055 -0.00427094 -0.153367
-0.296885 -0.00304768 -0.109467
-0.289664 0.000127772 0.00458938
-0.106714 0.00322656 0.115893
0.140969 0.00436818 0.156899
0.303141 0.0028601 0.102732
0.281416 -0.000382209 -0.013728
0.0868597 -0.00331239 -0.118946
-0.0767125 -0.00875279 -0.0971884
-0.183605 -0.00609813 -0.0677118
-0.179125 0.000255577 0.00283786
-0.0659901 0.00645425 0.0716661
0.0871732 0.00873786 0.0970227
0.187459 0.0057212 0.0635266
0.174034 -0.000765862 -0.00850391
0.0550428 -0.00678836 -0.075376
0 -0.212036 0
0 -0.160388 0
0 0.00672199 0
0 0.169754 0
0 0.229816 0
0 0.150474 0
0 -0.0201431 0
0 -0.164448 0
0.0589081 -0.0834179 -0.135992
0.144488 -0.0596704 -0.0970771
0.140976 0.00250173 0.00406992
0.0519356 0.0631745 0.102776
-0.0686073 0.0855267 0.13914
-0.147533 0.0559994 0.0911023
-0.13696 -0.00748218 -0.012174
-0.0422677 -0.064696 -0.105471
0.0820833 0.0958006 -0.189493
0.201333 0.0683855 -0.135268
0.196436 -0.00286701 0.00567103
0.0723673 -0.0723995 0.14321
-0.0955979 -0.0980162 0.193878
-0.205576 -0.064177 0.126944
-0.190841 0.00857595 -0.0169634
-0.0588964 0.0742996 -0.146964
0.0554679 0.216908 -0.12805
0.136051 0.154838 -0.0914073
0.132742 -0.00649153 0.00383221
0.0489026 -0.163926 0.0967735
-0.0646005 -0.221929 0.131014
-0.138918 -0.145309 0.0857822
-0.128961 0.0194176 -0.011463
-0.0397993 0.168226 -0.0993113
-0.00479359 0.206441 0.0110662
-0.0117576 0.147366 0.00789954
-0.0114716 -0.00617831 -0.000331184
-0.00422623 -0.156018 -0.00836329
0.00558278 -0.211219 -0.0113222
0.0120054 -0.138299 -0.00741336
0.0111449 0.0184806 0.000990646
0.0034395 0.160109 0.00858258
-0.0621474 0.0707507 0.14347
-0.152433 0.0505052 0.102415
-0.148726 -0.00211741 -0.00429371
-0.0547917 -0.05347 -0.108427
0.0723792 -0.0723878 -0.146789
0.155646 -0.0473968 -0.0961122
0.14449 0.00633363 0.0128435
0.044592 0.0548718 0.11127
-0.0818034 -0.107857 0.188847
-0.200621 -0.0769615 0.13479
-0.195742 0.00322656 -0.00565098
-0.0721115 0.0814784 -0.142703
0.0952599 0.110308 -0.193193
0.204849 0.0722246 -0.126495
0.190166 -0.00965179 0.0169037
0.0586956 -0.0836499 0.146463
-0.0518386 -0.221039 0.119672
-0.124071 -0.154 0.0833761
-0.121044 0.00645425 -0.00349436
-0.0445929 0.162993 -0.0882451
0.0589074 0.220663 -0.119468
0.126675 0.144481 -0.0782226
0.117604 -0.0193408 0.0104712
0.0371952 -0.171431 0.0928133
0 -0.287058 0
0 -0.217136 0
0 0.00910032 0
0 0.229816 0
0 0.311128 0
0 0.203714 0
0 -0.02727 0
0 -0.222632 0
-0.0050909 -0.112932 -0.299936
-0.0124869 -0.0807825 -0.214107
-0.0121832 0.00338687 0.00897636
-0.00448832 0.0855267 0.226673
0.00592907 0.115787 0.306877
0.0127501 0.0758129 0.200931
0.0118361 -0.0101295 -0.0268503
0.00365282 -0.0875865 -0.23262
-0.00709372 0.129696 -0.417934
-0.0173994 0.0925809 -0.298338
-0.0169762 -0.00388142 0.0125078
-0.0062541 -0.0980162 0.315854
0.0082617 -0.132696 0.427608
0.0177661 -0.0868837 0.279981
0.0164927 0.0116102 -0.0374134
0.00508989 0.100588 -0.324135
-0.00479359 0.293653 -0.28242
-0.0117576 0.209621 -0.201604
-0.0114716 -0.00878838 0.00845217
-0.00422623 -0.221929 0.213439
0.00558278 -0.300449 0.288953
0.0120054 -0.196722 0.189196
0.0111449 0.0262878 -0.0252822
0.0034395 0.227747 -0.219035
0.000414267 0.279484 0.024407
0.00101611 0.199508 0.0174228
0.000991394 -0.00836429 -0.000730436
0.00036523 -0.211219 -0.0184454
-0.000482473 -0.285954 -0.0249719
-0.00103752 -0.187229 -0.0163506
-0.000963155 0.0250194 0.00218491
-0.000297245 0.216758 0.0189292
0.00537084 0.0957833 0.316429
0.0131735 0.0683744 0.225878
0.0128532 -0.00286655 -0.00946991
0.00473512 -0.0723878 -0.239138
-0.00625514 -0.0980004 -0.323748
-0.0134512 -0.0641667 -0.21198
-0.0124871 0.00857455 0.0283264
-0.00385368 0.0742862 0.245411
0.00706953 -0.146018 0.416509
0.0173379 -0.104191 0.297284
0.0169162 0.00436818 -0.0124636
0.006232 0.110308 -0.314736
-0.00823249 0.149336 -0.426096
-0.0177032 0.0977795 -0.27899
-0.0164344 -0.0130667 0.0372816
-0.00507253 -0.113247 0.32303
0.00447994 -0.299247 0.26394
0.0107224 -0.208487 0.183889
0.0104607 0.00873786 -0.00770694
0.00385376 0.220663 -0.194628
-0.00509084 0.298736 -0.26349
-0.0109474 0.195601 -0.172523
-0.0101634 -0.0261838 0.0230946
-0.00321445 -0.232085 0.204703
0 -0.187954 0
0 -0.142172 0
0 0.00595853 0
0 0.150474 0
0 0.203714 0
0 0.133384 0
0 -0.0178553 0
0 -0.145771 0
-0.0660018 -0.0739436 -0.281942
-0.161887 -0.0528932 -0.201263
-0.157951 0.0022176 0.00843789
-0.0581891 0.0559994 0.213078
0.0768687 0.0758129 0.288466
0.165298 0.0496394 0.188876
0.153452 -0.0066324 -0.0252395
0.0473576 -0.0573481 -0.218665
-0.0919678 0.08492 -0.392862
-0.225574 0.0606183 -0.280443
-0.220092 -0.00254141 0.0117574
-0.0810816 -0.064177 0.296904
0.10711 -0.0868837 0.401955
0.230328 -0.0568877 0.263184
0.213823 0.0076019 -0.0351691
0.0659887 0.065861 -0.30469
-0.0621474 0.192272 -0.265477
-0.152433 0.137252 -0.189509
-0.148726 -0.0057542 0.00794507
-0.0547917 -0.145309 0.200634
0.0723792 -0.196722 0.271621
0.155646 -0.128806 0.177845
0.14449 0.0172122 -0.0237655
0.044592 0.14912 -0.205895
0.00537084 0.182995 0.0229428
0.0131735 0.13063 0.0163776
0.0128532 -0.00547657 -0.000686617
0.00473512 -0.138299 -0.017339
-0.00625514 -0.187229 -0.0234736
-0.0134512 -0.12259 -0.0153696
-0.0124871 0.0163817 0.00205384
-0.00385368 0.141924 0.0177936
0.0696312 0.0627151 0.297446
0.170789 0.0447686 0.212329
0.166635 -0.0018769 -0.00890189
0.0613889 -0.0473968 -0.224792
-0.0810949 -0.0641667 -0.304329
-0.174388 -0.0420136 -0.199264
-0.161889 0.00561425 0.0266274
-0.0499618 0.0486397 0.230689
0.0916542 -0.0956067 0.391522
0.224777 -0.0682206 0.279451
0.219312 0.0028601 -0.0117158
0.0807949 0.0722246 -0.295855
-0.106732 0.0977795 -0.400534
-0.229514 0.064022 -0.262254
-0.213067 -0.00855558 0.035045
-0.0657637 -0.0741493 0.303651
0.058081 -0.195935 0.248107
0.139012 -0.136509 0.172857
0.13562 0.0057212 -0.0072446
0.0499628 0.144481 -0.182952
-0.0660011 0.195601 -0.247683
-0.14193 0.128071 -0.162173
-0.131765 -0.0171441 0.0217091
-0.0416743 -0.15196 0.192423
0 0.0251602 0
0 0.0190316 0
0 -0.000797631 0
0 -0.0201431 0
0 -0.02727 0
0 -0.0178553 0
0 0.00239018 0
0 0.0195134 0
-0.0868769 0.00989837 -0.0929265
-0.213064 0.00706726 -0.0663561
-0.207882 -0.000296288 0.00278197
-0.0765843 -0.00748204 0.0702522
0.101168 -0.0101293 0.0951076
0.217553 -0.00663228 0.0622729
0.201962 0.00088633 -0.00832121
0.0623359 0.00767683 -0.0720706
-0.121055 -0.0113677 -0.129485
-0.296885 -0.00810054 -0.0924614
-0.289664 0.000339598 0.00387643
-0.106714 0.00857578 0.0978898
0.140969 0.01161 0.132525
0.303141 0.00760174 0.0867723
0.281416 -0.00101601 -0.0115948
0.0868597 -0.0088164 -0.100424
-0.0818034 -0.0257383 -0.0874997
-0.200621 -0.0183411 -0.0624811
-0.195742 0.000768916 0.00261951
-0.0721115 0.0194172 0.0661492
0.0952599 0.0262873 0.0895534
0.204849 0.0172119 0.0586362
0.190166 -0.00230043 -0.00783523
0.0586956 -0.0199617 -0.0678618
0.00706953 -0.0244964 0.00756181
0.0173379 -0.0174561 0.00539968
0.0169162 0.000731811 -0.00022638
0.006232 0.0184802 -0.00571666
-0.00823249 0.0250189 -0.00773932
-0.0177032 0.0163814 -0.00506739
-0.0164344 -0.00218945 0.000677133
-0.00507253 -0.0189985 0.00586468
0.0916542 -0.00839528 0.0980364
0.224777 -0.0059825 0.0700051
0.219312 0.000250804 -0.00293493
0.0807949 0.0063335 -0.0741149
-0.106732 0.00857438 -0.100338
-0.229514 0.00561414 -0.0656973
-0.213067 -0.000750358 0.00877878
-0.0657637 -0.00651109 0.0760337
0.120643 0.0127983 0.129043
0.295836 0.00911675 0.0921346
0.28864 -0.000382201 -0.00386272
0.106337 -0.0096516 -0.0975435
-0.14047 -0.0130664 -0.132056
-0.30207 -0.00855542 -0.086465
-0.280419 0.00114351 0.011554
-0.0865635 0.0099259 0.100082
0.0764509 0.0262286 0.0817745
0.182979 0.0182736 0.0569728
0.178514 -0.000765862 -0.00238778
0.0657651 -0.0193408 -0.0603
-0.0868759 -0.0261838 -0.081635
-0.186819 -0.0171441 -0.0534514
-0.17344 0.00229498 0.0071552
-0.054855 0.020342 0.0634215
0 0.223012 0
0 0.155374 0
0 -0.00651186 0
0 -0.164448 0
0 -0.222632 0
0 -0.145771 0
0 0.0195134 0
0 0.172961 0
-0.0550537 0.0877361 0.152457
-0.131766 0.0611263 0.106218
-0.128551 -0.00256185 -0.00445168
-0.0473586 -0.064696 -0.112421
0.0625609 -0.0875865 -0.152197
0.134532 -0.0573481 -0.0996526
0.124898 0.00767683 0.0133399
0.0395021 0.0680451 0.118241
-0.0767125 -0.10076 0.212436
-0.183605 -0.0702 0.148005
-0.179125 0.00294214 -0.00620303
-0.0659901 0.0742996 -0.156649
0.0871732 0.100588 -0.212073
0.187459 0.065861 -0.138857
0.174034 -0.0088164 0.018588
0.0550428 -0.0781459 0.164758
-0.0518386 -0.228136 0.143554
-0.124071 -0.158944 0.100015
-0.121044 0.00666147 -0.0041917
-0.0445929 0.168226 -0.105856
0.0589074 0.227747 -0.143309
0.126675 0.14912 -0.093833
0.117604 -0.0199617 0.0125608
0.0371952 -0.176935 0.111335
0.00447994 -0.217128 -0.0124061
0.0107223 -0.151275 -0.00864338
0.0104607 0.00634004 0.000362251
0.00385376 0.160109 0.00914815
-0.00509084 0.216758 0.0123849
-0.0109474 0.141924 0.00810914
-0.0101634 -0.0189985 -0.00108552
-0.00321445 -0.168397 -0.00962171
0.058081 -0.0744131 -0.16084
0.139012 -0.0518441 -0.112059
0.13562 0.00217283 0.00469647
0.0499628 0.0548718 0.118603
-0.0660011 0.0742862 0.160566
-0.14193 0.0486397 0.105132
-0.131765 -0.00651109 -0.0140734
-0.0416743 -0.0577123 -0.124742
0.0764509 0.11344 -0.211711
0.182979 0.0790344 -0.147501
0.178514 -0.00331239 0.00618187
0.0657651 -0.0836499 0.156115
-0.0868759 -0.113247 0.21135
-0.186819 -0.0741493 0.138384
-0.17344 0.0099259 -0.0185246
-0.054855 0.0879801 -0.164196
0.0484467 0.232482 -0.134161
0.115953 0.161972 -0.0934707
0.113124 -0.00678836 0.00391744
0.0416751 -0.171431 0.0989293
-0.055053 -0.232085 0.133932
-0.118387 -0.15196 0.0876934
-0.109909 0.020342 -0.011739
-0.0347615 0.180305 -0.104051
