# vtk DataFile Version 3.0
Velocity field
ASCII
DATASET STRUCTURED_POINTS
DIMENSIONS 8 8 8
SPACING 0.8 0.8 0.8
ORIGIN 0 0 0
POINT_DATA 512
VECTORS velocity float
0 0.431442 0
0 0.300588 0
0 -0.0125979 0
0 -0.318142 0
0 -0.430706 0
0 -0.282009 0
0 0.0377508 0
0 0.334611 0
0 0.169735 0.440351
0 0.118255 0.325276
0 -0.00495618 -0.0136326
0 -0.125161 -0.344272
0 -0.169445 -0.46608
0 -0.110946 -0.305171
0 0.0148517 0.0408513
0 0.131641 0.341521
0 -0.194931 0.613591
0 -0.13581 0.453243
0 0.00569189 -0.0189958
0 0.143741 -0.479712
0 0.194598 -0.649442
0 0.127415 -0.425229
0 -0.0170563 0.0569227
0 -0.151182 0.47588
0 -0.441354 0.414635
0 -0.307494 0.30628
0 0.0128873 -0.0128364
0 0.325452 -0.324166
0 0.440601 -0.438861
0 0.288488 -0.287349
0 -0.0386181 0.0384656
0 -0.342299 0.321576
0 -0.420058 -0.0358331
0 -0.292657 -0.026469
0 0.0122655 0.00110934
0 0.309748 0.0280148
0 0.419342 0.0379268
0 0.274568 0.024833
0 -0.0367547 -0.00332424
0 -0.325783 -0.027791
0 -0.14396 -0.464565
0 -0.100298 -0.343162
0 0.00420357 0.0143822
0 0.106155 0.363203
0 0.143715 0.491709
0 0.0940987 0.321951
0 -0.0125964 -0.0430976
0 -0.111651 -0.360301
0 0.219462 -0.611498
0 0.152901 -0.451698
0 -0.00640819 0.018931
0 -0.16183 0.478077
0 -0.219088 0.647227
0 -0.14345 0.423779
0 0.0192027 -0.0567286
0 0.170207 -0.474257
0 0.449761 -0.387505
0 0.313352 -0.269977
0 -0.0131328 0.011315
0 -0.331651 0.285743
0 -0.448994 0.386844
0 -0.293984 0.25329
0 0.0393537 -0.0339063
0 0.348819 -0.300535
0 0.300588 0
0 0.22737 0
0 -0.00952927 0
0 -0.240648 0
0 -0.325794 0
0 -0.213317 0
0 0.0285554 0
0 0.233126 0
0.0938685 0.118255 0.434947
0.233227 0.0856603 0.314619
0.227579 -0.00359311 -0.013197
0.0838402 -0.0907249 -0.333218
-0.110754 -0.122826 -0.45112
-0.238168 -0.0804209 -0.295377
-0.221079 0.0107204 0.0393769
-0.0673525 0.0917149 0.33733
0.130798 -0.13581 0.60606
0.324977 -0.0981118 0.4384
0.317107 0.00411515 -0.0183888
0.116825 0.103908 -0.464315
-0.154325 0.140672 -0.628589
-0.331862 0.0921064 -0.411581
-0.308051 -0.0122809 0.0548689
-0.0938499 -0.105329 0.47004
0.0883866 -0.307494 0.409546
0.219605 -0.222144 0.29625
0.214289 0.00931778 -0.0124262
0.0789436 0.235272 -0.313758
-0.104286 0.318511 -0.424775
-0.224258 0.208552 -0.278125
-0.208168 -0.0278068 0.0370777
-0.0634192 -0.238482 0.31763
-0.00763846 -0.292657 -0.0353934
-0.0189784 -0.211429 -0.0256022
-0.0185191 0.00886808 0.00107388
-0.00682246 0.223918 0.0271156
0.0090125 0.303146 0.0367094
0.0193804 0.198489 0.0240358
0.0179901 -0.026465 -0.00320428
0.00548075 -0.226975 -0.0274499
-0.0990302 -0.100298 -0.458864
-0.246048 -0.0724604 -0.33192
-0.240094 0.00303927 0.0139226
-0.0884493 0.0767414 0.351537
0.116844 0.103894 0.475927
0.251259 0.0680255 0.311614
0.233236 -0.00907002 -0.0415423
0.0710561 -0.0777878 -0.355879
-0.130352 0.152901 -0.603994
-0.323775 0.110362 -0.436783
-0.315933 -0.00462889 0.0183206
-0.116393 -0.11688 0.462596
0.153753 -0.158232 0.626261
0.330632 -0.103606 0.410057
0.306911 0.013816 -0.0546682
0.0935298 0.118584 -0.468437
-0.0826034 0.313352 -0.382749
-0.197704 0.218314 -0.266664
-0.19288 -0.00914973 0.0111761
-0.0710576 -0.231064 0.282237
0.0938674 -0.312817 0.382096
0.201854 -0.20482 0.250181
0.187398 0.027418 -0.0334902
0.0592696 0.243025 -0.296847
0 -0.0125979 0
0 -0.00952927 0
0 0.00039938 0
0 0.0100858 0
0 0.0136543 0
0 0.00894027 0
0 -0.00119678 0
0 -0.0097705 0
0.130798 -0.00495618 0.16571
0.324977 -0.00359311 0.119796
0.317107 0.000150723 -0.00502479
0.116825 0.00380567 -0.126875
-0.154325 0.00515209 -0.171764
-0.331862 0.00337344 -0.112467
-0.308051 -0.000449622 0.0149939
-0.0938499 -0.00384385 0.128519
0.182255 0.00569189 0.230902
0.452832 0.00411515 0.166924
0.441866 -0.000172609 -0.00700166
0.162784 -0.00435838 -0.176788
-0.215041 -0.00590045 -0.239344
-0.462426 -0.00386344 -0.156712
-0.429248 0.000515048 0.0208924
-0.130772 0.00441443 0.17908
0.123159 0.0128873 0.156032
0.305999 0.00931778 0.112799
0.298594 -0.000390831 -0.00473143
0.110002 -0.00986841 -0.119468
-0.145314 -0.0133602 -0.161735
-0.312481 -0.00874764 -0.105899
-0.290064 0.0011662 0.0141182
-0.0883692 0.00999498 0.121013
-0.0106435 0.0122655 -0.0134845
-0.0264449 0.00886808 -0.00974818
-0.0258046 -0.000371974 0.000408891
-0.00950647 -0.00939239 0.0103243
0.0125581 -0.0127154 0.0139774
0.0270052 -0.00832553 0.00915191
0.0250676 0.00110992 -0.0012201
0.00763695 0.0095127 -0.0104581
-0.13799 0.00420357 -0.174822
-0.342843 0.00303927 -0.126382
-0.334545 -0.000127483 0.00530108
-0.123248 -0.00321893 0.133851
0.16281 -0.00435781 0.18121
0.350106 -0.00285331 0.118652
0.324989 0.000380388 -0.0158181
0.0990106 0.00326015 -0.135586
-0.181634 -0.00640819 -0.230115
-0.451157 -0.00462889 -0.166307
-0.44023 0.000194154 0.00697576
-0.162181 0.00490236 0.176134
0.214244 0.00663691 0.238456
0.460714 0.00434558 0.156131
0.427659 -0.000579421 -0.020816
0.130326 -0.00496997 -0.178469
-0.115101 -0.0131328 -0.145823
-0.275483 -0.00914973 -0.101596
-0.268762 0.000383473 0.00425797
-0.0990126 0.00968406 0.107529
0.130796 0.0131104 0.145574
0.281266 0.00858419 0.0953163
0.261123 -0.00114911 -0.0127594
0.082587 -0.0101854 -0.113095
0 -0.318142 0
0 -0.240649 0
0 0.0100858 0
0 0.254702 0
0 0.34482 0
0 0.225774 0
0 -0.030223 0
0 -0.24674 0
0.0883866 -0.125161 -0.204045
0.219605 -0.0907249 -0.147506
0.214289 0.00380567 0.00618709
0.0789436 0.0960905 0.156222
-0.104286 0.130089 0.211498
-0.224258 0.085177 0.13848
-0.208168 -0.0113531 -0.0184621
-0.0634192 -0.097071 -0.15825
0.123159 0.143741 -0.284318
0.305999 0.103908 -0.205537
0.298594 -0.00435838 0.00862116
0.110002 -0.110049 0.217685
-0.145314 -0.148987 0.294705
-0.312481 -0.0975503 0.19296
-0.290064 0.0130053 -0.0257251
-0.0883692 0.11148 -0.220508
0.0832249 0.325452 -0.192128
0.206781 0.235272 -0.138891
0.201774 -0.00986841 0.00582573
0.0743347 -0.249176 0.147101
-0.0981954 -0.337338 0.199146
-0.211162 -0.220878 0.130392
-0.19601 0.0294471 -0.0173838
-0.0597156 0.252409 -0.149008
-0.00719238 0.309748 0.0166039
-0.0178702 0.223918 0.0120031
-0.0174374 -0.0093924 -0.000503468
-0.00642404 -0.237156 -0.0127125
0.00848608 -0.32106 -0.0172103
0.0182488 -0.210221 -0.0112686
0.0169393 0.0280261 0.00150232
0.00516068 0.24023 0.0128774
-0.0932469 0.106155 0.215265
-0.231681 0.0767414 0.155615
-0.226071 -0.00321893 -0.00652732
-0.0832847 -0.0812767 -0.164812
0.11002 -0.110034 -0.223127
0.23659 -0.0720467 -0.146096
0.219613 0.00960505 0.019477
0.0669065 0.0823305 0.166952
-0.122739 -0.16183 0.283349
-0.304867 -0.11688 0.204778
-0.297487 0.00490236 -0.00858925
-0.109595 0.123785 -0.21688
0.144775 0.167581 -0.293613
0.311324 0.109726 -0.192246
0.28899 -0.0146308 0.0256312
0.0880678 -0.12551 0.219756
-0.0777794 -0.331651 0.179557
-0.186158 -0.231064 0.125099
-0.181616 0.00968406 -0.00524299
-0.0669079 0.244557 -0.132404
0.0883856 0.331086 -0.179251
0.190066 0.216782 -0.117366
0.176454 -0.0290192 0.0157111
0.0558083 -0.257217 0.139258
0 -0.430706 0
0 -0.325794 0
0 0.0136543 0
0 0.34482 0
0 0.466822 0
0 0.305656 0
0 -0.0409163 0
0 -0.334041 0
-0.00763846 -0.169445 -0.450028
-0.0189784 -0.122826 -0.325326
-0.0185191 0.00515209 0.0136459
-0.00682246 0.130089 0.344551
0.0090125 0.176115 0.466469
0.0193804 0.115316 0.305424
0.0179901 -0.0153701 -0.0407184
0.00548075 -0.131416 -0.349026
-0.0106435 0.194598 -0.627075
-0.0264449 0.140672 -0.453316
-0.0258046 -0.00590045 0.0190145
-0.00950648 -0.148987 0.480115
0.0125581 -0.2017 0.649975
0.0270052 -0.132065 0.425585
0.0250676 0.0176068 -0.056738
0.00763695 0.150924 -0.486338
-0.00719238 0.440601 -0.423747
-0.0178702 0.318511 -0.306329
-0.0174374 -0.0133602 0.012849
-0.00642404 -0.337338 0.324433
0.00848608 -0.456698 0.439225
0.0182488 -0.29903 0.287589
0.0169393 0.0398654 -0.0383406
0.00516068 0.341715 -0.328644
0.000621573 0.419342 0.0366206
0.00154436 0.303146 0.0264734
0.00150696 -0.0127154 -0.00111042
0.000555169 -0.32106 -0.028038
-0.000733379 -0.434662 -0.0379582
-0.00157707 -0.284599 -0.0248537
-0.00146391 0.0379422 0.00331344
-0.000445991 0.325227 0.0284017
0.00805849 0.143715 0.474774
0.0200218 0.103894 0.343213
0.019537 -0.00435781 -0.0143963
0.0071976 -0.110034 -0.363497
-0.00950801 -0.148968 -0.492116
-0.020446 -0.0975372 -0.322216
-0.0189792 0.0130035 0.0429572
-0.00578213 0.11146 0.368219
0.0106072 -0.219088 0.624937
0.0263471 -0.158232 0.451642
0.0257091 0.00663691 -0.018944
0.00947128 0.167581 -0.478333
-0.0125116 0.226875 -0.647571
-0.0269052 0.14855 -0.42401
-0.0249748 -0.0198072 0.0565308
-0.0076109 -0.169917 0.484679
0.00672177 -0.448994 0.396021
0.016088 -0.312817 0.27591
0.0156954 0.0131104 -0.0115636
0.00578225 0.331086 -0.292023
-0.00763838 0.448229 -0.395345
-0.0164257 0.293482 -0.258856
-0.0152494 -0.0392866 0.0346515
-0.00482301 -0.348225 0.30714
0 -0.282009 0
0 -0.213317 0
0 0.00894027 0
0 0.225774 0
0 0.305656 0
0 0.200132 0
0 -0.0267904 0
0 -0.218717 0
-0.0990302 -0.110946 -0.423031
-0.246048 -0.0804209 -0.305812
-0.240094 0.00337344 0.0128273
-0.0884493 0.085177 0.323885
0.116844 0.115316 0.438484
0.25126 0.0755045 0.287103
0.233236 -0.0100638 -0.0382759
0.0710561 -0.086046 -0.328088
-0.13799 0.127415 -0.589457
-0.342843 0.0921064 -0.426126
-0.334545 -0.00386344 0.0178737
-0.123248 -0.0975503 0.451311
0.16281 -0.132065 0.610987
0.350106 -0.0864703 0.400053
0.324989 0.0115282 -0.0533343
0.0990106 0.0988189 -0.457162
-0.0932469 0.288488 -0.398326
-0.231681 0.208552 -0.287954
-0.226071 -0.00874764 0.0120781
-0.0832847 -0.220878 0.304972
0.11002 -0.29903 0.412877
0.23659 -0.195792 0.270334
0.219613 0.0261026 -0.0360407
0.0669065 0.223742 -0.308928
0.00805849 0.274568 0.0344237
0.0200218 0.198489 0.0248853
0.019537 -0.00832553 -0.0010438
0.0071976 -0.210221 -0.0263561
-0.00950801 -0.284599 -0.0356812
-0.020446 -0.186343 -0.0233626
-0.0189792 0.024843 0.00311466
-0.00578213 0.212946 0.0266979
0.104476 0.0940987 0.446293
0.259575 0.0680255 0.322625
0.25329 -0.00285331 -0.0135327
0.093313 -0.0720467 -0.341692
-0.123268 -0.0975372 -0.462596
-0.265075 -0.0638633 -0.30289
-0.246057 0.00851415 0.0403803
-0.0749634 0.0729797 0.346129
0.137519 -0.14345 0.587446
0.341575 -0.103606 0.424552
0.333305 0.00434558 -0.0178075
0.122792 0.109726 -0.449641
-0.162208 0.14855 -0.608726
-0.34881 0.0972647 -0.398573
-0.323787 -0.0129691 0.0531393
-0.0986729 -0.111255 0.455603
0.0871456 -0.293984 0.372263
0.208576 -0.20482 0.259358
0.203486 0.00858419 -0.0108699
0.074965 0.216782 -0.274504
-0.0990291 0.293482 -0.371628
-0.212953 0.19216 -0.243327
-0.197703 -0.0257233 0.0325727
-0.0625287 -0.228004 0.288714
0 0.0377508 0
0 0.0285554 0
0 -0.00119678 0
0 -0.030223 0
0 -0.0409163 0
0 -0.0267904 0
0 0.00358626 0
0 0.0292782 0
-0.130352 0.0148517 -0.139428
-0.323775 0.0107201 -0.100868
-0.315933 -0.000449609 0.00423102
-0.116393 -0.0113527 0.106832
0.153753 -0.0153697 0.144631
0.330632 -0.0100635 0.0946982
0.306911 0.00134228 -0.0126235
0.0935298 0.0115184 -0.108136
-0.181634 -0.0170563 -0.194281
-0.451157 -0.0122805 -0.140551
-0.44023 0.000515032 0.00589552
-0.162181 0.0130049 0.148862
0.214244 0.0176062 0.20153
0.460714 0.0115279 0.131955
0.427659 -0.00153792 -0.0175898
0.130326 -0.0132283 -0.150678
-0.122739 -0.0386181 -0.131286
-0.304867 -0.027806 -0.0949773
-0.297487 0.00116616 0.00398394
-0.109595 0.0294462 0.100593
0.144775 0.0398642 0.136184
0.311324 0.0261018 0.0891681
0.28899 -0.00348215 -0.0118862
0.0880678 -0.0299509 -0.101821
0.0106072 -0.0367547 0.0113459
0.0263471 -0.0264642 0.00820806
0.0257091 0.00110988 -0.000344293
0.00947128 0.0280253 -0.00869337
-0.0125116 0.037941 -0.0117691
-0.0269052 0.0248423 -0.00770606
-0.0249748 -0.00331413 0.00102723
-0.0076109 -0.0285057 0.00879946
0.137519 -0.0125964 0.147095
0.341575 -0.00906977 0.106415
0.333305 0.000380377 -0.00446367
0.122792 0.00960475 -0.112706
-0.162208 0.0130031 -0.152583
-0.34881 0.0085139 -0.0999056
-0.323787 -0.00113581 0.0133176
-0.0986729 -0.00976934 0.114082
0.181014 0.0192027 0.193619
0.44949 0.0138156 0.140031
0.438603 -0.000579404 -0.00587363
0.161582 -0.0146303 -0.148309
-0.213451 -0.0198066 -0.200782
-0.459011 -0.0129687 -0.131465
-0.426077 0.00173031 0.0175254
-0.129881 0.014893 0.150164
0.114708 0.0393537 0.122696
0.274544 0.027418 0.0854829
0.267845 -0.00114911 -0.00358266
0.098675 -0.0290192 -0.0904751
-0.13035 -0.0392866 -0.122487
-0.280306 -0.0257233 -0.0801993
-0.260233 0.00344342 0.0107358
-0.0823054 0.0305214 0.0951586
0 0.334611 0
0 0.233126 0
0 -0.0097705 0
0 -0.24674 0
0 -0.334041 0
0 -0.218717 0
0 0.0292782 0
0 0.259513 0
-0.0826034 0.131641 0.228749
-0.197704 0.0917149 0.159371
-0.19288 -0.00384385 -0.00667937
-0.0710576 -0.097071 -0.168678
0.0938674 -0.131416 -0.228359
0.201854 -0.086046 -0.14952
0.187398 0.0115184 0.0200154
0.0592696 0.102096 0.17741
-0.115101 -0.151182 0.318742
-0.275483 -0.105329 0.22207
-0.268762 0.00441443 -0.00930712
-0.0990126 0.11148 -0.235038
0.130796 0.150924 -0.318198
0.281266 0.0988189 -0.208344
0.261123 -0.0132283 0.0278897
0.082587 -0.117251 0.247205
-0.0777794 -0.342299 0.21539
-0.186158 -0.238482 0.150064
-0.181616 0.00999498 -0.0062893
-0.0669079 0.252409 -0.158827
0.0883856 0.341715 -0.215023
0.190066 0.223742 -0.140788
0.176454 -0.0299509 0.0188465
0.0558083 -0.265475 0.167049
0.00672177 -0.325783 -0.0186142
0.016088 -0.226975 -0.0129687
0.0156954 0.0095127 0.000543527
0.00578225 0.24023 0.013726
-0.00763837 0.325227 0.0185825
-0.0164257 0.212946 0.0121671
-0.0152494 -0.0285057 -0.00162873
-0.00482301 -0.252666 -0.0144366
0.0871456 -0.111651 -0.241328
0.208576 -0.0777878 -0.168135
0.203486 0.00326015 0.00704666
0.074965 0.0823305 0.177953
-0.0990291 0.11146 0.240916
-0.212953 0.0729797 0.157742
-0.197703 -0.00976934 -0.021116
-0.0625287 -0.0865924 -0.187165
0.114708 0.170207 -0.317655
0.274544 0.118584 -0.221312
0.267845 -0.00496997 0.00927538
0.098675 -0.12551 0.234237
-0.13035 -0.169917 0.317113
-0.280306 -0.111255 0.207633
-0.260233 0.014893 -0.0277945
-0.0823054 0.132007 -0.246362
0.0726902 0.348819 -0.201297
0.173978 0.243025 -0.140245
0.169733 -0.0101854 0.00587778
0.06253 -0.257217 0.148435
-0.0826025 -0.348225 0.200954
-0.177629 -0.228004 0.131577
-0.164909 0.0305214 -0.0176133
-0.0521567 0.270532 -0.156119
