# vtk DataFile Version 3.0
Velocity field
ASCII
DATASET STRUCTURED_POINTS
DIMENSIONS 8 8 8
SPACING 0.8 0.8 0.8
ORIGIN 0 0 0
POINT_DATA 512
VECTORS velocity float
0 0.226758 0
0 0.157984 0
0 -0.00662124 0
0 -0.16721 0
0 -0.226372 0
0 -0.148219 0
0 0.0198412 0
0 0.175866 0
0 0.0892097 0.231441
0 0.062153 0.170959
0 -0.00260488 -0.00716504
0 -0.0657827 -0.180943
0 -0.0890576 -0.244963
0 -0.0583114 -0.160392
0 0.00780578 0.0214707
0 0.069188 0.179497
0 -0.102452 0.322493
0 -0.0713791 0.238217
0 0.00299156 -0.00998387
0 0.0755476 -0.252128
0 0.102277 -0.341335
0 0.0669672 -0.223493
0 -0.00896448 0.0299176
0 -0.0794584 0.250114
0 -0.231968 0.217925
0 -0.161614 0.160975
0 0.00677336 -0.00674661
0 0.171052 -0.170376
0 0.231572 -0.230658
0 0.151624 -0.151026
0 -0.020297 0.0202168
0 -0.179906 0.169015
0 -0.220775 -0.0188333
0 -0.153816 -0.0139117
0 0.00644653 0.000583048
0 0.162798 0.0147241
0 0.220399 0.0199337
0 0.144308 0.0130518
0 -0.0193176 -0.00174716
0 -0.171226 -0.0146064
0 -0.075663 -0.244167
0 -0.0527149 -0.18036
0 0.00220933 0.00755904
0 0.0557934 0.190893
0 0.075534 0.258434
0 0.0494566 0.169212
0 -0.00662045 -0.0226514
0 -0.0586816 -0.189368
0 0.115345 -0.321393
0 0.0803619 -0.237404
0 -0.00336803 0.00994981
0 -0.0850549 0.251269
0 -0.115149 0.340171
0 -0.0753947 0.222731
0 0.0100926 -0.0298156
0 0.0894579 -0.249261
0 0.236387 -0.203666
0 0.164692 -0.141895
0 -0.00690238 0.00594694
0 -0.17431 0.150182
0 -0.235984 0.203318
0 -0.154513 0.133125
0 0.0206836 -0.0178206
0 0.183333 -0.157956
0 0.157984 0
0 0.119502 0
0 -0.00500842 0
0 -0.126481 0
0 -0.171231 0
0 -0.112115 0
0 0.0150082 0
0 0.122527 0
0.0493356 0.062153 0.2286
0.120379 0.0442075 0.16242
0.117448 -0.00185316 -0.00680855
0.0432684 -0.0467981 -0.171937
-0.0571572 -0.0633561 -0.232769
-0.122912 -0.0414829 -0.152409
-0.114105 0.00554665 0.0203794
-0.0353993 0.0482037 0.177295
0.0687449 -0.0713791 0.318535
0.167739 -0.0506829 0.226318
0.163654 0.00212457 -0.00948708
0.0602903 0.0536518 -0.239577
-0.0796445 0.0726345 -0.324346
-0.171268 0.0475582 -0.212369
-0.158997 -0.00635955 0.028397
-0.0493259 -0.0553592 0.247045
0.0464545 -0.161614 0.21525
0.113348 -0.114754 0.152935
0.11059 0.00481042 -0.00641092
0.0407414 0.121477 -0.161896
-0.0538197 0.164458 -0.219177
-0.115734 0.107681 -0.143508
-0.107442 -0.0143991 0.0191893
-0.033332 -0.125342 0.166941
-0.00401464 -0.153816 -0.0186021
-0.0097958 -0.109217 -0.0132168
-0.00955725 0.00457829 0.000554036
-0.0035209 0.115616 0.0139912
0.00465113 0.156523 0.0189414
0.0100019 0.102485 0.0124021
0.00928522 -0.0137044 -0.00165836
0.00288059 -0.119294 -0.0144272
-0.0520485 -0.0527149 -0.241171
-0.126999 -0.0374308 -0.171351
-0.123906 0.00156906 0.0071829
-0.0456473 0.0396236 0.181391
0.0603002 0.0536428 0.245568
0.129671 0.0351231 0.16079
0.12038 -0.00469671 -0.0215001
0.0373459 -0.0408839 -0.187044
-0.0685105 0.0803619 -0.317448
-0.167154 0.0570472 -0.225529
-0.163083 -0.00239136 0.00945398
-0.06008 -0.0603893 0.238741
0.0793666 -0.0817555 0.323214
0.17067 -0.0535303 0.211628
0.158442 0.00715827 -0.0282981
0.0491576 0.0623259 -0.246202
-0.0434149 0.164692 -0.201166
-0.10391 0.114742 -0.140154
-0.101374 -0.00480894 0.00587396
-0.0373466 -0.121443 0.148339
0.0493351 -0.164411 0.200823
0.106091 -0.10765 0.131491
0.0984933 0.0144104 -0.0176019
0.0311511 0.12773 -0.156018
0 -0.00662124 0
0 -0.00500842 0
0 0.000209907 0
0 0.00530091 0
0 0.00717645 0
0 0.00469885 0
0 -0.000629006 0
0 -0.0051352 0
0.0687449 -0.00260488 0.0870942
0.167739 -0.00185316 0.0618531
0.163654 7.76845e-05 -0.00259283
0.0602903 0.00196177 -0.0654771
-0.0796445 0.00265587 -0.0886431
-0.171268 0.00173897 -0.05804
-0.158997 -0.00023251 0.00776106
-0.0493259 -0.00202026 0.0675473
0.0957901 0.00299156 0.121358
0.233728 0.00212457 0.086187
0.228036 -8.90595e-05 -0.00361286
0.0840099 -0.00224903 -0.0912359
-0.110978 -0.00304478 -0.123517
-0.238645 -0.00199361 -0.0808747
-0.221549 0.000266583 0.0108144
-0.0687313 0.00232015 0.0941213
0.0647303 0.00677336 0.0820079
0.157943 0.00481042 0.0582406
0.154097 -0.000201649 -0.00244142
0.0567692 -0.00509224 -0.0616529
-0.0749929 -0.00689398 -0.083467
-0.161267 -0.00451386 -0.0546511
-0.149711 0.00060359 0.00730781
-0.0464453 0.00525319 0.0636025
-0.00559406 0.00644653 -0.00708721
-0.0136496 0.00457829 -0.00503326
-0.0133172 -0.000191918 0.000210989
-0.00490611 -0.00484654 0.00532813
0.00648099 -0.00656133 0.00721325
0.0139368 -0.00429608 0.00472298
0.0129382 0.000574464 -0.000631552
0.00401385 0.00499971 -0.0054966
-0.0725251 0.00220933 -0.0918834
-0.176961 0.00156906 -0.0652543
-0.172654 -6.57736e-05 0.00273541
-0.0636059 -0.00166099 0.0690767
0.0840238 -0.00224865 0.0935178
0.180685 -0.00147233 0.0612316
0.16774 0.000196878 -0.00818786
0.0520382 0.00171348 -0.0712616
-0.0954634 -0.00336803 -0.120944
-0.232912 -0.00239136 -0.0858862
-0.22724 0.000100243 0.00360026
-0.0837168 0.00253146 0.0909178
0.11059 0.00342713 0.123086
0.237813 0.00224394 0.0805924
0.220775 -0.000300063 -0.0107767
0.0684969 -0.00261213 -0.0938003
-0.0604949 -0.00690238 -0.0766421
-0.144789 -0.00480894 -0.053397
-0.141256 0.000201546 0.00223791
-0.0520393 0.00508977 0.0565154
0.0687442 0.00689061 0.0765114
0.147828 0.0045117 0.0500966
0.137242 -0.000603953 -0.00670612
0.0434063 -0.00535325 -0.059441
0 -0.16721 0
0 -0.126481 0
0 0.00530091 0
0 0.133867 0
0 0.181231 0
0 0.118663 0
0 -0.0158847 0
0 -0.129682 0
0.0464545 -0.0657827 -0.107242
0.113348 -0.0467981 -0.0761616
0.11059 0.00196177 0.00319263
0.0407414 0.0495406 0.0806239
-0.0538197 0.067069 0.10915
-0.115734 0.0439138 0.0714663
-0.107442 -0.00587159 -0.00955643
-0.033332 -0.0510188 -0.0831734
0.0647303 0.0755476 -0.149433
0.157943 0.0536518 -0.106124
0.154097 -0.00224903 0.00444861
0.0567692 -0.0567948 0.112342
-0.0749929 -0.0768904 0.15209
-0.161267 -0.0503447 0.0995824
-0.149711 0.00673204 -0.0133161
-0.0464453 0.0585921 -0.115895
0.0437416 0.171052 -0.100979
0.10673 0.121477 -0.0717134
0.104131 -0.00509224 0.00300616
0.0383623 -0.128595 0.0759152
-0.0506767 -0.174094 0.102775
-0.108976 -0.113989 0.0672932
-0.101168 0.0152425 -0.00899831
-0.0313855 0.132662 -0.0783162
-0.00378019 0.162798 0.00872674
-0.00922367 0.115616 0.00619756
-0.00899905 -0.00484654 -0.000259797
-0.00331531 -0.122389 -0.00656069
0.00437949 -0.165693 -0.00888187
0.00941778 -0.10849 -0.00581552
0.00874294 0.014507 0.000777644
0.00271236 0.126261 0.00676816
-0.0490089 0.0557934 0.113139
-0.119581 0.0396236 0.0803497
-0.11667 -0.00166099 -0.00336818
-0.0429819 -0.041945 -0.085057
0.0567786 -0.0567852 -0.11515
0.122098 -0.0371809 -0.0753964
0.113349 0.00497181 0.0100819
0.0351649 0.0432715 0.087747
-0.0645095 -0.0850549 0.148923
-0.157392 -0.0603893 0.105754
-0.153559 0.00253146 -0.0044331
-0.0565712 0.063927 -0.11195
0.0747313 0.0865456 -0.15156
0.160704 0.0566661 -0.0992351
0.149189 -0.00757754 0.0132697
0.0462869 -0.0659657 0.1155
-0.0408795 -0.17431 0.0943722
-0.0978416 -0.121443 0.0657497
-0.0954542 0.00508977 -0.00275562
-0.0351656 0.128535 -0.0695895
0.046454 0.174013 -0.0942113
0.0998952 0.113937 -0.0616858
0.0927413 -0.015252 0.00825749
0.0293319 -0.135189 0.0731918
0 -0.226372 0
0 -0.171231 0
0 0.00717645 0
0 0.181231 0
0 0.245353 0
0 0.160648 0
0 -0.0215049 0
0 -0.175566 0
-0.00401464 -0.0890576 -0.236527
-0.0097958 -0.0633561 -0.167977
-0.00955725 0.00265587 0.00704144
-0.0035209 0.067069 0.177817
0.00465113 0.0907986 0.240732
0.0100019 0.0594512 0.157623
0.00928522 -0.00794907 -0.0210771
0.00288059 -0.06907 -0.183442
-0.00559406 0.102277 -0.32958
-0.0136496 0.0726345 -0.23406
-0.0133172 -0.00304478 0.00981167
-0.00490611 -0.0768904 0.247774
0.00648099 -0.104095 0.335441
0.0139368 -0.0681577 0.219634
0.0129382 0.00911391 -0.029369
0.00401385 0.0793229 -0.255611
-0.00378019 0.231572 -0.222714
-0.00922367 0.164458 -0.158168
-0.00899905 -0.00689398 0.00663026
-0.00331531 -0.174094 0.167434
0.00437949 -0.235689 0.226672
0.00941778 -0.154321 0.148417
0.00874294 0.0206356 -0.0198462
0.00271236 0.1796 -0.172729
0.000326688 0.220399 0.0192472
0.000797123 0.156523 0.013669
0.000777711 -0.00656133 -0.000572988
0.00028651 -0.165693 -0.0144697
-0.000378482 -0.224319 -0.0195895
-0.000813897 -0.146874 -0.0128264
-0.000755577 0.0196399 0.00171513
-0.000234405 0.170934 0.0149274
0.0042354 0.075534 0.249533
0.0103344 0.0536428 0.177213
0.0100828 -0.00224865 -0.00742859
0.0037145 -0.0567852 -0.187595
-0.00490692 -0.0768775 -0.25397
-0.0105519 -0.0503362 -0.16629
-0.00979587 0.0067309 0.022236
-0.00303899 0.0585816 0.193529
0.00557498 -0.115149 0.328456
0.013602 -0.0817555 0.233244
0.0132708 0.00342713 -0.00977746
0.004889 0.0865456 -0.24691
-0.00645838 0.117166 -0.334271
-0.0138882 0.0767161 -0.218867
-0.0128931 -0.0102585 0.0292667
-0.00400016 -0.0893053 0.254739
0.00353285 -0.235984 0.208141
0.00845556 -0.164411 0.145014
0.00824925 0.00689061 -0.00607764
0.00303905 0.174013 -0.153482
-0.0040146 0.235581 -0.207787
-0.00863304 0.154249 -0.13605
-0.0080148 -0.0206484 0.0182122
-0.00253489 -0.183021 0.161427
0 -0.148219 0
0 -0.112115 0
0 0.00469885 0
0 0.118663 0
0 0.160648 0
0 0.105186 0
0 -0.0140805 0
0 -0.114954 0
-0.0520485 -0.0583114 -0.222338
-0.126999 -0.0414829 -0.1579
-0.123906 0.00173897 0.00661906
-0.0456473 0.0439138 0.167151
0.0603002 0.0594512 0.226289
0.129671 0.0389266 0.148166
0.12038 -0.00520473 -0.0198127
0.0373459 -0.0452243 -0.172437
-0.0725251 0.0669672 -0.309808
-0.176961 0.0475582 -0.22002
-0.172654 -0.00199361 0.009223
-0.0636059 -0.0503447 0.232909
0.0840238 -0.0681577 0.315318
0.180685 -0.0446266 0.206458
0.16774 0.00596742 -0.0276073
0.0520382 0.0519375 -0.240277
-0.0490089 0.151624 -0.209353
-0.119581 0.107681 -0.148679
-0.11667 -0.00451386 0.00623247
-0.0429819 -0.113989 0.15739
0.0567786 -0.154321 0.213076
0.122098 -0.101043 0.139513
0.113349 0.0135114 -0.0186556
0.0351649 0.117595 -0.162367
0.0042354 0.144308 0.0180925
0.0103344 0.102485 0.012849
0.0100828 -0.00429608 -0.000538615
0.0037145 -0.10849 -0.0136018
-0.00490692 -0.146874 -0.0184142
-0.0105519 -0.0961671 -0.0120569
-0.00979587 0.0128594 0.00161224
-0.00303899 0.111921 0.0140319
0.0549106 0.0494566 0.234564
0.133983 0.0351231 0.166582
0.13072 -0.00147233 -0.00698304
0.0481573 -0.0371809 -0.176341
-0.0636164 -0.0503362 -0.238733
-0.136802 -0.0329582 -0.156315
-0.127 0.00440711 0.0209021
-0.0393995 0.0383569 0.181919
0.0722778 -0.0753947 0.308751
0.176344 -0.0535303 0.219252
0.17205 0.00224394 -0.00919084
0.063384 0.0566661 -0.232097
-0.0837307 0.0767161 -0.314219
-0.180054 0.0502307 -0.205738
-0.167155 -0.0067169 0.027511
-0.0518608 -0.0584736 0.239457
0.0458022 -0.154513 0.195655
0.109624 -0.10765 0.136314
0.106949 0.0045117 -0.00571304
0.0394003 0.113937 -0.144275
-0.0520479 0.154249 -0.195321
-0.111925 0.100996 -0.127889
-0.103909 -0.0135197 0.0171196
-0.032864 -0.119835 0.151743
0 0.0198412 0
0 0.0150082 0
0 -0.000629005 0
0 -0.0158847 0
0 -0.0215049 0
0 -0.0140805 0
0 0.00188487 0
0 0.0153881 0
-0.0685105 0.00780578 -0.0732811
-0.167154 0.00554657 -0.0520533
-0.163083 -0.000232506 0.00218203
-0.06008 -0.0058715 0.0551033
0.0793666 -0.00794895 0.0745991
0.17067 -0.00520465 0.0488445
0.158442 0.000695969 -0.00653135
0.0491576 0.00605389 -0.0568344
-0.0954634 -0.00896448 -0.102111
-0.232912 -0.00635946 -0.0725317
-0.22724 0.000266578 0.00304047
-0.0837168 0.00673194 0.0767814
0.11059 0.00911376 0.103948
0.237813 0.00596732 0.0680612
0.220775 -0.000798019 -0.00910085
0.0684969 -0.00695255 -0.0791938
-0.0645095 -0.020297 -0.0690016
-0.157392 -0.0143989 -0.0490133
-0.153559 0.00060358 0.00205461
-0.0565712 0.0152423 0.0518852
0.0747313 0.0206352 0.0702425
0.160704 0.0135112 0.0459922
0.149189 -0.00180685 -0.00614989
0.0462869 -0.0157417 -0.0535153
0.00557498 -0.0193176 0.00596319
0.013602 -0.0137041 0.00423579
0.0132708 0.000574455 -0.000177561
0.004889 0.0145068 -0.00448395
-0.00645838 0.0196396 -0.00607044
-0.0138882 0.0128592 -0.00397469
-0.0128931 -0.00171968 0.000531483
-0.00400016 -0.0149821 0.00462484
0.0722778 -0.00662045 0.0773108
0.176344 -0.00469664 0.0549156
0.17205 0.000196875 -0.00230201
0.063384 0.00497173 -0.058133
-0.0837307 0.0067308 -0.0787016
-0.180054 0.00440704 -0.0515307
-0.167155 -0.000589362 0.0068905
-0.0518608 -0.00513459 0.0599596
0.0951378 0.0100926 0.101763
0.2321 0.00715816 0.0722787
0.226448 -0.000300058 -0.00302986
0.0834249 -0.00757742 -0.0765135
-0.110204 -0.0102584 -0.103585
-0.236984 -0.0067168 -0.0678234
-0.220004 0.000898262 0.00906917
-0.0682633 0.00782749 0.0789237
0.0602886 0.0206836 0.0644867
0.144296 0.0144104 0.0449283
0.140775 -0.000603953 -0.00188298
0.0518618 -0.015252 -0.0475521
-0.0685097 -0.0206484 -0.0643768
-0.147324 -0.0135197 -0.0421513
-0.136774 0.0018098 0.00564254
-0.0432583 0.0160415 0.0500137
0 0.175866 0
0 0.122527 0
0 -0.00513521 0
0 -0.129682 0
0 -0.175566 0
0 -0.114954 0
0 0.0153881 0
0 0.136396 0
-0.0434149 0.069188 0.120226
-0.10391 0.0482037 0.0837626
-0.101374 -0.00202026 -0.00351056
-0.0373466 -0.0510188 -0.0886543
0.0493351 -0.06907 -0.120021
0.106091 -0.0452243 -0.0785853
0.0984933 0.00605389 0.0105197
0.0311511 0.0536598 0.0932436
-0.0604949 -0.0794584 0.167525
-0.144789 -0.0553592 0.116716
-0.141256 0.00232015 -0.00489166
-0.0520393 0.0585921 -0.123532
0.0687442 0.0793229 -0.16724
0.147828 0.0519375 -0.109502
0.137242 -0.00695255 0.0146583
0.0434063 -0.0616252 0.129927
-0.0408795 -0.179906 0.113205
-0.0978415 -0.125342 0.0788709
-0.0954542 0.00525319 -0.00330555
-0.0351656 0.132662 -0.0834769
0.0464539 0.1796 -0.113012
0.0998952 0.117595 -0.073996
0.0927413 -0.0157417 0.00990538
0.0293319 -0.139529 0.0877982
0.00353285 -0.171226 -0.00978332
0.00845556 -0.119294 -0.0068161
0.00824925 0.00499971 0.000285669
0.00303905 0.126261 0.00721416
-0.0040146 0.170934 0.00976664
-0.00863304 0.111921 0.0063948
-0.0080148 -0.0149821 -0.000856032
-0.00253489 -0.132797 -0.00758761
0.0458022 -0.0586816 -0.126838
0.109624 -0.0408839 -0.0883686
0.106949 0.00171348 0.0037036
0.0394003 0.0432715 0.0935292
-0.0520479 0.0585816 0.126621
-0.111925 0.0383569 0.0829066
-0.103909 -0.00513459 -0.0110982
-0.032864 -0.0455115 -0.0983709
0.0602886 0.0894579 -0.166954
0.144295 0.0623259 -0.116318
0.140775 -0.00261213 0.00487498
0.0518618 -0.0659657 0.123111
-0.0685097 -0.0893053 0.166669
-0.147324 -0.0584736 0.109128
-0.136774 0.00782749 -0.0146083
-0.0432583 0.0693805 -0.129484
0.0382047 0.183333 -0.105798
0.0914397 0.12773 -0.0737103
0.0892085 -0.00535325 0.00308926
0.0328647 -0.135189 0.0780149
-0.0434144 -0.183021 0.105618
-0.0933589 -0.119835 0.0691543
-0.0866732 0.0160415 -0.00925726
-0.0274126 0.142187 -0.0820535
