# vtk DataFile Version 3.0
Velocity field
ASCII
DATASET STRUCTURED_POINTS
DIMENSIONS 5 5 5
SPACING 1.33333 1.33333 1.33333
ORIGIN 0 0 0
POINT_DATA 125
VECTORS velocity float
0 0.578936 0
0 0.136188 0
0 -0.514864 0
0 -0.378418 0
0 0.336827 0
0 -0.306561 1.00544
0 -0.0721147 0.27258
0 0.272633 -1.0305
0 0.200382 -0.757405
0 -0.178358 0.584968
0 -0.723166 0.473034
0 -0.170116 0.128242
0 0.643131 -0.484825
0 0.472693 -0.35634
0 -0.420741 0.275213
0 -0.0336705 -0.782888
0 -0.00792056 -0.212245
0 0.029944 0.802402
0 0.0220085 0.589755
0 -0.0195896 -0.455487
0 0.707325 -0.841364
0 0.166389 -0.19792
0 -0.629043 0.748247
0 -0.462338 0.549952
0 0.411524 -0.489508
0 0.136188 0
0 0.0407646 0
0 -0.154113 0
0 -0.113271 0
0 0.0792344 0
0.430324 -0.0721147 0.353093
0.67812 -0.0180256 0.0891329
-0.14217 0.0682845 -0.337757
-0.74514 0.0502087 -0.248363
-0.194446 -0.0419566 0.205431
0.202457 -0.170116 0.166121
0.31904 -0.0427123 0.0419351
-0.066888 0.161821 -0.158906
-0.350571 0.118988 -0.116849
-0.0914818 -0.0989739 0.09665
-0.335073 -0.00792056 -0.274937
-0.527723 -0.00200867 -0.069365
0.110639 0.00761388 0.262841
0.579878 0.0055991 0.193275
0.151406 -0.00460821 -0.159959
-0.360101 0.166389 -0.295472
-0.529519 0.039141 -0.0695062
0.110975 -0.147974 0.262771
0.58173 -0.108759 0.193134
0.162714 0.0968059 -0.171907
0 -0.514864 0
0 -0.154113 0
0 0.58263 0
0 0.428226 0
0 -0.299549 0
0.202457 0.272633 -0.839318
0.31904 0.0682845 -0.211185
-0.066888 -0.258699 0.800191
-0.350572 -0.190222 0.5884
-0.0914818 0.158619 -0.488318
0.0952509 0.643131 -0.394878
0.150101 0.161821 -0.0993578
-0.0314692 -0.61315 0.376473
-0.164936 -0.450863 0.276828
-0.0430399 0.374176 -0.229742
-0.157644 0.029944 0.653538
-0.248282 0.00761388 0.164351
0.052053 -0.0288646 -0.62272
0.27282 -0.021227 -0.457898
0.0712326 0.0174215 0.38023
-0.169418 -0.629043 0.702351
-0.249125 -0.147974 0.165219
0.0522111 0.559425 -0.62462
0.273689 0.41117 -0.459087
0.0765531 -0.365979 0.408631
0 -0.378418 0
0 -0.113271 0
0 0.428226 0
0 0.31474 0
0 -0.220165 0
-0.335073 0.200382 -0.747971
-0.527723 0.0502091 -0.188264
0.110639 -0.190224 0.713354
0.579878 -0.139872 0.524547
0.151406 0.116583 -0.435172
-0.157644 0.472693 -0.351902
-0.248282 0.118989 -0.0885741
0.052053 -0.450867 0.335618
0.27282 -0.331534 0.246788
0.0712326 0.275014 -0.204738
0.260906 0.0220085 0.58241
0.410686 0.00559914 0.146513
-0.0861006 -0.0212272 -0.555141
-0.451271 -0.0156106 -0.408207
-0.117893 0.0128046 0.338848
0.280393 -0.462338 0.625911
0.412312 -0.108759 0.147238
-0.0864112 0.41117 -0.556639
-0.452966 0.302205 -0.409123
-0.126698 -0.26899 0.364157
0 0.336827 0
0 0.0792344 0
0 -0.299549 0
0 -0.220165 0
0 0.195967 0
-0.360101 -0.178358 0.487416
-0.529519 -0.0419566 0.114659
0.110975 0.158619 -0.433472
0.58173 0.116583 -0.318596
0.162714 -0.10377 0.28358
-0.169418 -0.420741 0.229317
-0.249125 -0.0989739 0.053944
0.052211 0.374176 -0.203938
0.273689 0.275014 -0.149892
0.0765531 -0.244788 0.133418
0.280393 -0.0195896 -0.379528
0.412312 -0.00460821 -0.0892792
-0.0864111 0.0174215 0.337524
-0.452966 0.0128046 0.248076
-0.126698 -0.0113973 -0.220811
0.301337 0.411524 -0.407876
0.443108 0.0968059 -0.0959477
-0.0928654 -0.365979 0.362735
-0.486799 -0.26899 0.266605
-0.136161 0.239426 -0.237304
