# vtk DataFile Version 3.0
Velocity field
ASCII
DATASET STRUCTURED_POINTS
DIMENSIONS 8 8 8
SPACING 0.8 0.8 0.8
ORIGIN 0 0 0
POINT_DATA 512
VECTORS velocity float
0 0.188625 0
0 0.131416 0
0 -0.00550776 0
0 -0.139091 0
0 -0.188303 0
0 -0.123293 0
0 0.0165045 0
0 0.146291 0
0 0.0742075 0.19252
0 0.0517008 0.142209
0 -0.00216682 -0.00596011
0 -0.0547201 -0.150514
0 -0.0740809 -0.203768
0 -0.0485052 -0.133419
0 0.00649309 0.01786
0 0.0575528 0.149312
0 -0.085223 0.26826
0 -0.0593754 0.198156
0 0.00248847 -0.0083049
0 0.0628429 -0.209728
0 0.0850777 -0.283934
0 0.0557055 -0.185908
0 -0.00745694 0.0248864
0 -0.066096 0.208053
0 -0.192958 0.181277
0 -0.134435 0.133904
0 0.0056343 -0.00561204
0 0.142286 -0.141724
0 0.192629 -0.191868
0 0.126126 -0.125628
0 -0.0168837 0.016817
0 -0.149652 0.140592
0 -0.183648 -0.0156661
0 -0.127949 -0.0115722
0 0.00536243 0.000484998
0 0.135421 0.0122479
0 0.183335 0.0165815
0 0.12004 0.0108569
0 -0.016069 -0.00145334
0 -0.142431 -0.0121501
0 -0.0629389 -0.203106
0 -0.0438499 -0.150029
0 0.00183779 0.00628785
0 0.0464107 0.158791
0 0.0628316 0.214973
0 0.0411396 0.140756
0 -0.0055071 -0.0188421
0 -0.0488132 -0.157522
0 0.0959479 -0.267345
0 0.0668475 -0.197481
0 -0.00280164 0.00827657
0 -0.0707514 0.209013
0 -0.0957843 0.282965
0 -0.0627157 0.185274
0 0.00839536 -0.0248015
0 0.0744139 -0.207343
0 0.196634 -0.169416
0 0.136996 -0.118033
0 -0.00574162 0.00494686
0 -0.144997 0.124926
0 -0.196299 0.169127
0 -0.128529 0.110737
0 0.0172053 -0.0148237
0 0.152503 -0.131393
0 0.131416 0
0 0.0994054 0
0 -0.00416616 0
0 -0.105211 0
0 -0.142436 0
0 -0.0932612 0
0 0.0124843 0
0 0.101922 0
0.0410389 0.0517008 0.190157
0.0998112 0.0366491 0.134667
0.0973795 -0.00153621 -0.00564479
0.035875 -0.0387945 -0.14255
-0.0473908 -0.0525207 -0.192985
-0.10191 -0.0343884 -0.126359
-0.0946091 0.00459966 0.0169019
-0.0294463 0.0400974 0.147479
0.0571842 -0.0593754 0.264967
0.139079 -0.0420273 0.187647
0.13569 0.00176163 -0.0078655
0.0499885 0.0444869 -0.198629
-0.0660355 0.0602269 -0.26891
-0.142003 0.0394342 -0.176071
-0.131831 -0.00527492 0.0235514
-0.0410308 -0.0460495 0.2055
0.0386423 -0.134435 0.179052
0.0939822 -0.0951565 0.126803
0.0916931 0.00398864 -0.00531513
0.0337798 0.100726 -0.134225
-0.0446235 0.136364 -0.181716
-0.0959585 0.089286 -0.11898
-0.0890846 -0.0119433 0.0159149
-0.0277266 -0.104263 0.138867
-0.00333951 -0.127949 -0.0154739
-0.00812211 -0.0905651 -0.0109584
-0.0079242 0.00379617 0.000459338
-0.00291928 0.0958656 0.0115999
0.00385639 0.129785 0.015704
0.0082929 0.0849781 0.0102824
0.00769875 -0.011367 -0.00137538
0.00239616 -0.0992325 -0.012001
-0.0432956 -0.0438499 -0.200613
-0.1053 -0.0310383 -0.142072
-0.102734 0.00130101 0.00595517
-0.0378477 0.0328548 0.150388
0.0499967 0.0444792 0.203597
0.107515 0.0291231 0.133308
0.0998116 -0.00389567 -0.0178314
0.0310655 -0.0340085 -0.155589
-0.0569892 0.0668475 -0.264064
-0.138597 0.0473082 -0.186997
-0.13522 -0.00198299 0.00783825
-0.0498153 -0.050077 0.197941
0.0658067 -0.0677949 0.267977
0.141511 -0.0443894 0.175461
0.131374 0.00593781 -0.0234699
0.0408909 0.0518447 -0.204799
-0.0361139 0.136996 -0.167336
-0.0864355 0.0954462 -0.116584
-0.0843265 -0.00400023 0.00488615
-0.0310661 -0.10102 0.123393
0.0410385 -0.136763 0.167051
0.0882497 -0.0895467 0.109378
0.0819298 0.0119871 -0.0146418
0.0259124 0.10625 -0.12978
0 -0.00550776 0
0 -0.00416616 0
0 0.000174607 0
0 0.00440946 0
0 0.0059696 0
0 0.00390865 0
0 -0.000523227 0
0 -0.00427163 0
0.0571842 -0.00216682 0.0724477
0.139079 -0.00153621 0.0512869
0.13569 6.43937e-05 -0.00214976
0.0499885 0.00162615 -0.054289
-0.0660355 0.0022015 -0.0734967
-0.142003 0.00144147 -0.0481227
-0.131831 -0.000192801 0.00643706
-0.0410308 -0.00168051 0.056188
0.0796812 0.00248847 0.10095
0.193794 0.00176163 0.0714639
0.189072 -7.38411e-05 -0.0029955
0.0696549 -0.00186473 -0.0756465
-0.0920148 -0.0025245 -0.102411
-0.197868 -0.00165295 -0.0670554
-0.183695 0.000221105 0.00896951
-0.0571729 0.00192997 0.078293
0.0538447 0.0056343 0.0682168
0.130957 0.00398864 0.0482916
0.127766 -0.00016719 -0.00202423
0.0470691 -0.00422208 -0.0511182
-0.0621789 -0.00571594 -0.0692046
-0.133711 -0.00374254 -0.0453126
-0.124131 0.000500618 0.00606114
-0.0386347 0.00436977 0.0529066
-0.00465331 0.00536243 -0.00589536
-0.0113174 0.00379617 -0.00417344
-0.0110417 -0.000159122 0.000174935
-0.00406779 -0.00401838 0.00441769
0.00537358 -0.00544014 0.00598072
0.0115554 -0.00356198 0.00391595
0.0107276 0.000476461 -0.000523813
0.00333885 0.00415892 -0.00457224
-0.0603287 0.00183779 -0.0764315
-0.146726 0.00130101 -0.0541072
-0.143152 -5.45339e-05 0.00226798
-0.0527376 -0.00137716 0.0572735
0.0696664 -0.00186441 0.0775384
0.149812 -0.00122074 0.0507688
0.139079 0.000163291 -0.00679106
0.043287 0.00142532 -0.0592776
-0.0794095 -0.00280164 -0.100605
-0.193122 -0.00198299 -0.0712162
-0.188417 8.31199e-05 0.00298513
-0.0694135 0.00209906 0.0753845
0.0916957 0.00284173 0.102057
0.197183 0.00186065 0.0668228
0.183058 -0.000248889 -0.00893846
0.0569779 -0.00217285 -0.078026
-0.0503216 -0.00574162 -0.0637533
-0.12044 -0.00400023 -0.0444173
-0.117502 0.000167653 0.00186157
-0.043288 0.00423384 0.0470113
0.0571836 0.00573183 0.0636446
0.122968 0.00375297 0.0416719
0.114162 -0.000502387 -0.00557836
0.0361067 -0.00445301 -0.0494449
0 -0.139091 0
0 -0.105211 0
0 0.00440946 0
0 0.111355 0
0 0.150754 0
0 0.0987076 0
0 -0.0132134 0
0 -0.107874 0
0.0386423 -0.0547201 -0.0892075
0.0939822 -0.0387946 -0.0631512
0.0916931 0.00162615 0.00264708
0.0337798 0.0410656 0.0668476
-0.0446235 0.0555954 0.0904991
-0.0959585 0.0364015 0.0592549
-0.0890846 -0.00486888 -0.00792617
-0.0277266 -0.042439 -0.0691863
0.0538447 0.0628429 -0.124303
0.130957 0.0444869 -0.0879957
0.127766 -0.00186473 0.00368845
0.0470691 -0.0470905 0.0931463
-0.0621789 -0.0637523 0.126102
-0.133711 -0.0417424 0.0825667
-0.124131 0.00558361 -0.0110444
-0.0386347 0.0487388 -0.0964051
0.0363856 0.142286 -0.0839979
0.0884943 0.100726 -0.059463
0.0863383 -0.00422208 0.00249247
0.0318073 -0.106622 0.0629435
-0.0420175 -0.144346 0.085214
-0.0903551 -0.0945116 0.0557948
-0.0838821 0.0126422 -0.00746326
-0.0261074 0.110352 -0.0651459
-0.00314448 0.135421 0.00725918
-0.00764774 0.0958656 0.00513886
-0.00746139 -0.00401838 -0.000215404
-0.00274882 -0.101477 -0.00543966
0.00363117 -0.137381 -0.00736423
0.00780856 -0.0899519 -0.00482183
0.00724913 0.0120322 0.000644984
0.00225623 0.105028 0.00562997
-0.0407672 0.0464107 0.0941129
-0.0991502 0.0328548 0.0666238
-0.0967345 -0.00137716 -0.00279263
-0.0356374 -0.0347777 -0.070523
0.0470769 -0.0470824 -0.0954748
0.101235 -0.0308278 -0.0625134
0.0939825 0.00412365 0.00836204
0.0292513 0.0359946 0.0729907
-0.0536611 -0.0707514 0.123879
-0.130504 -0.050077 0.0876909
-0.127324 0.00209906 -0.00367567
-0.0469061 0.0530079 -0.0928234
0.0619634 0.071763 -0.125666
0.133247 0.0469873 -0.0822807
0.123701 -0.00628529 0.0110062
0.0385029 -0.0548723 0.0960763
-0.0340049 -0.144997 0.0785018
-0.0813877 -0.10102 0.0546927
-0.0794019 0.00423384 -0.00229222
-0.0292519 0.10692 -0.0578867
0.0386419 0.144749 -0.0783679
0.083096 0.0947761 -0.0513122
0.0771452 -0.0126871 0.00686884
0.0243992 -0.112454 0.0608833
0 -0.188303 0
0 -0.142436 0
0 0.0059696 0
0 0.150754 0
0 0.204093 0
0 0.133632 0
0 -0.0178885 0
0 -0.146041 0
-0.00333951 -0.0740809 -0.196751
-0.00812211 -0.0525207 -0.139282
-0.0079242 0.0022015 0.00583821
-0.00291928 0.0555954 0.147434
0.00385639 0.0752657 0.199598
0.0082929 0.0492808 0.13069
0.00769875 -0.00659157 -0.0174814
0.00239616 -0.0574546 -0.152593
-0.00465331 0.0850777 -0.274155
-0.0113174 0.0602269 -0.194077
-0.0110417 -0.0025245 0.00813507
-0.00406779 -0.0637523 0.205436
0.00537358 -0.0863089 0.278123
0.0115554 -0.0565118 0.182105
0.0107276 0.00755916 -0.0243589
0.00333885 0.0659833 -0.212625
-0.00314448 0.192629 -0.18526
-0.00764774 0.136364 -0.131148
-0.00746138 -0.00571594 0.0054973
-0.00274882 -0.144346 0.138824
0.00363117 -0.195417 0.187941
0.00780856 -0.127952 0.123057
0.00724913 0.0171152 -0.0164606
0.00225623 0.149397 -0.143682
0.000271749 0.183335 0.0160104
0.000660929 0.129785 0.011334
0.000644823 -0.00544014 -0.000475078
0.000237554 -0.137381 -0.0119973
-0.00031381 -0.185989 -0.0162422
-0.000674826 -0.121777 -0.0106348
-0.000626478 0.0162895 0.00142254
-0.000194986 0.142188 0.0124171
0.00352314 0.0628316 0.20757
0.00856869 0.0444792 0.146941
0.00835997 -0.00186441 -0.00615922
0.00307981 -0.0470824 -0.155541
-0.00406847 -0.0637414 -0.210575
-0.00874887 -0.0417352 -0.137875
-0.00812213 0.00558265 0.0184427
-0.00252792 0.04873 0.160984
0.00463744 -0.0957843 0.27322
0.0112782 -0.0677949 0.193405
0.0110034 0.00284173 -0.0081069
0.00405371 0.071763 -0.204725
-0.00535496 0.0971535 -0.27716
-0.0115154 0.0636124 -0.181474
-0.0106904 -0.0085091 0.0242745
-0.00332746 -0.074287 0.2119
0.00293873 -0.196299 0.173139
0.00703361 -0.136763 0.120627
0.00686199 0.00573183 -0.00505557
0.00252798 0.144749 -0.127671
-0.00333947 0.195964 -0.172843
-0.00718124 0.128309 -0.113171
-0.00666696 -0.017176 0.0151495
-0.0021086 -0.152242 0.13428
0 -0.123293 0
0 -0.0932612 0
0 0.00390865 0
0 0.0987076 0
0 0.133632 0
0 0.0874968 0
0 -0.0117126 0
0 -0.0956221 0
-0.0432956 -0.0485052 -0.184947
-0.1053 -0.0343884 -0.130927
-0.102734 0.00144147 0.00548801
-0.0378477 0.0364015 0.138589
0.0499967 0.0492808 0.187624
0.107515 0.0322673 0.122849
0.0998116 -0.00431589 -0.0164328
0.0310655 -0.037619 -0.143439
-0.0603287 0.0557055 -0.257708
-0.146726 0.0394342 -0.182435
-0.143152 -0.00165295 0.007647
-0.0527376 -0.0417424 0.193112
0.0696664 -0.0565118 0.261439
0.149812 -0.0370014 0.17118
0.139079 0.00494944 -0.0228976
0.043287 0.0432032 -0.19987
-0.0407672 0.126126 -0.174147
-0.0991502 0.089286 -0.123281
-0.0967345 -0.00374254 0.00516748
-0.0356374 -0.0945116 0.130496
0.0470769 -0.127952 0.176667
0.101235 -0.0837779 0.115674
0.0939825 0.0112064 -0.0154731
0.0292513 0.097819 -0.135062
0.00352314 0.12004 0.0150499
0.00856869 0.0849781 0.0106541
0.00835997 -0.00356198 -0.000446578
0.00307981 -0.0899519 -0.0112776
-0.00406847 -0.121777 -0.0152677
-0.00874887 -0.079735 -0.00999671
-0.00812213 0.0106657 0.0013372
-0.00252792 0.093099 0.0116722
0.0456764 0.0411396 0.195117
0.111091 0.0291231 0.138126
0.108384 -0.00122074 -0.00578978
0.0399287 -0.0308278 -0.14621
-0.0527463 -0.0417352 -0.197941
-0.113427 -0.0273266 -0.129605
-0.105301 0.00365528 0.0173363
-0.0327737 0.0319065 0.151326
0.0601229 -0.0627157 0.256829
0.146218 -0.0443894 0.181803
0.142655 0.00186065 -0.00762052
0.0525549 0.0469873 -0.192443
-0.069425 0.0636124 -0.260534
-0.149293 0.0416509 -0.170587
-0.138597 -0.00557143 0.0228184
-0.0431394 -0.0486402 0.199188
0.0380997 -0.128529 0.162752
0.0911884 -0.0895467 0.11339
0.0889634 0.00375297 -0.00475228
0.0327744 0.0947761 -0.120012
-0.0432951 0.128309 -0.162474
-0.0931024 0.0840118 -0.106382
-0.086435 -0.0112461 0.0142407
-0.0273373 -0.0996823 0.126225
0 0.0165045 0
0 0.0124843 0
0 -0.000523227 0
0 -0.0132134 0
0 -0.0178884 0
0 -0.0117126 0
0 0.0015679 0
0 0.0128003 0
-0.0569892 0.00649309 -0.0609576
-0.138597 0.0045996 -0.0431587
-0.13522 -0.000192799 0.00180906
-0.0498153 -0.00486881 0.0456849
0.0658067 -0.00659148 0.0618485
0.141511 -0.00431583 0.040496
0.131374 0.000577298 -0.00541685
0.0408909 0.00503582 -0.0472766
-0.0794095 -0.00745694 -0.0849391
-0.193122 -0.00527486 -0.0601378
-0.188417 0.000221102 0.00252076
-0.0694135 0.00558354 0.0636578
0.0916957 0.00755906 0.0861809
0.197183 0.00494937 0.056428
0.183058 -0.000662082 -0.0075479
0.0569779 -0.00578335 -0.0658759
-0.0536611 -0.0168837 -0.0573977
-0.130504 -0.0119431 -0.0406381
-0.127324 0.000500612 0.00170342
-0.0469061 0.0126421 0.0430168
0.0619634 0.017115 0.0582366
0.133247 0.0112063 0.0381312
0.123701 -0.00149907 -0.00510049
0.0385029 -0.0130944 -0.0445157
0.00463744 -0.016069 0.00496037
0.0112782 -0.0113669 0.003512
0.0110034 0.000476455 -0.000147211
0.00405371 0.0120321 -0.00371756
-0.00535496 0.0162892 -0.00503287
-0.0115154 0.0106655 -0.00329533
-0.0106904 -0.00142674 0.000440792
-0.00332746 -0.0124626 0.00384709
0.0601229 -0.0055071 0.0643096
0.146218 -0.00389562 0.0455319
0.142655 0.000163289 -0.00190853
0.0525549 0.00412359 -0.0481968
-0.069425 0.00558257 -0.0652497
-0.149293 0.00365524 -0.0427229
-0.138597 -0.000488965 0.00571472
-0.0431394 -0.00427112 0.0498763
0.0791387 0.00839536 0.0846494
0.192454 0.00593773 0.0599295
0.187764 -0.000248886 -0.00251203
0.0691731 -0.00628521 -0.0634372
-0.0913776 -0.00850899 -0.0858824
-0.1965 -0.00557135 -0.0562323
-0.182423 0.000745294 0.00752178
-0.0567836 0.00651115 0.0656512
0.05015 0.0172053 0.0536421
0.12003 0.0119871 0.0373728
0.117101 -0.000502387 -0.00156633
0.0431403 -0.0126871 -0.0395554
-0.0569886 -0.017176 -0.0535506
-0.122549 -0.0112461 -0.0350628
-0.113773 0.00150545 0.00469364
-0.0359836 0.0133438 0.041603
0 0.146291 0
0 0.101922 0
0 -0.00427163 0
0 -0.107874 0
0 -0.146041 0
0 -0.0956221 0
0 0.0128003 0
0 0.113458 0
-0.0361139 0.0575528 0.100008
-0.0864354 0.0400974 0.0696764
-0.0843264 -0.00168051 -0.00292019
-0.0310661 -0.0424391 -0.0737454
0.0410385 -0.0574546 -0.0998377
0.0882497 -0.037619 -0.0653697
0.0819298 0.00503582 0.00875064
0.0259124 0.044636 0.077563
-0.0503216 -0.066096 0.139353
-0.12044 -0.0460495 0.097088
-0.117502 0.00192997 -0.00406904
-0.0432879 0.0487388 -0.102758
0.0571836 0.0659833 -0.139115
0.122968 0.0432032 -0.0910871
0.114162 -0.00578335 0.0121933
0.0361067 -0.0512618 0.108077
-0.0340049 -0.149652 0.0941678
-0.0813877 -0.104263 0.0656074
-0.0794018 0.00436977 -0.00274966
-0.0292519 0.110352 -0.0694388
0.0386419 0.149397 -0.0940072
0.083096 0.097819 -0.0615522
0.0771452 -0.0130944 0.00823961
0.0243992 -0.116065 0.0730333
0.00293873 -0.142431 -0.00813808
0.0070336 -0.0992326 -0.00566985
0.00686199 0.00415892 0.000237628
0.00252798 0.105028 0.00600097
-0.00333947 0.142188 0.0081242
-0.00718124 0.093099 0.0053194
-0.00666696 -0.0124626 -0.000712075
-0.0021086 -0.110465 -0.00631161
0.0380997 -0.0488132 -0.105508
0.0911884 -0.0340085 -0.0735078
0.0889634 0.00142532 0.00308077
0.0327744 0.0359946 0.0778006
-0.0432951 0.04873 0.105328
-0.0931024 0.0319065 0.0689643
-0.086435 -0.00427112 -0.00923182
-0.0273373 -0.0378579 -0.081828
0.05015 0.0744139 -0.138878
0.12003 0.0518447 -0.0967569
0.117101 -0.00217285 0.00405516
0.0431403 -0.0548723 0.102407
-0.0569885 -0.074287 0.138641
-0.122549 -0.0486402 0.0907764
-0.113773 0.00651115 -0.0121517
-0.0359836 0.0577129 -0.107709
0.0317799 0.152503 -0.0880063
0.0760624 0.10625 -0.0613146
0.0742065 -0.00445301 0.00256974
0.0273379 -0.112454 0.0648953
-0.0361135 -0.152242 0.0878562
-0.0776589 -0.0996823 0.0575248
-0.0720975 0.0133438 -0.00770048
-0.0228027 0.118276 -0.0682547
