# vtk DataFile Version 3.0
Velocity field
ASCII
DATASET STRUCTURED_POINTS
DIMENSIONS 10 10 10
SPACING 0.631579 0.631579 0.631579
ORIGIN 0 0 0
POINT_DATA 1000
VECTORS velocity float
0 0.570521 0
0 0.460465 0
0 0.172759 0
0 -0.181599 0
0 -0.465895 0
0 -0.570445 0
0 -0.454913 0
0 -0.163872 0
0 0.190392 0
0 0.471201 0
0 0.35041 0.446903
0 0.282814 0.374836
0 0.106107 0.140632
0 -0.111537 -0.147829
0 -0.286149 -0.379256
0 -0.350363 -0.464364
0 -0.279404 -0.370317
0 -0.100649 -0.133398
0 0.116937 0.154986
0 0.289408 0.369103
0 -0.00489216 0.721387
0 -0.00394845 0.605058
0 -0.00148139 0.227008
0 0.0015572 -0.238624
0 0.00399501 -0.612193
0 0.00489151 -0.749573
0 0.00390084 -0.597762
0 0.00140519 -0.21533
0 -0.00163259 0.250178
0 -0.00404051 0.595804
0 -0.358307 0.717555
0 -0.289188 0.601844
0 -0.108498 0.225802
0 0.114051 -0.237357
0 0.292598 -0.608941
0 0.358259 -0.745591
0 0.285701 -0.594587
0 0.102917 -0.214187
0 -0.119573 0.248848
0 -0.295931 0.592638
0 -0.573484 0.436885
0 -0.462857 0.366434
0 -0.173656 0.13748
0 0.182543 -0.144515
0 0.468315 -0.370755
0 0.573408 -0.453955
0 0.457276 -0.362015
0 0.164723 -0.130408
0 -0.191381 0.151512
0 -0.473648 0.360829
0 -0.567407 -0.0123388
0 -0.457952 -0.0103491
0 -0.171816 -0.00388279
0 0.180608 0.00408148
0 0.463352 0.0104711
0 0.567331 0.0128209
0 0.45243 0.0102243
0 0.162978 0.00368307
0 -0.189352 -0.0042791
0 -0.468629 -0.0101908
0 -0.34242 -0.456802
0 -0.276366 -0.383139
0 -0.103688 -0.143747
0 0.108994 0.151103
0 0.279625 0.387657
0 0.342374 0.47465
0 0.273033 0.378519
0 0.0983542 0.136353
0 -0.114271 -0.158419
0 -0.282809 -0.377279
0 0.0146753 -0.725027
0 0.0118444 -0.608112
0 0.00444382 -0.228153
0 -0.00467123 0.239828
0 -0.0119841 0.615282
0 -0.0146734 0.753356
0 -0.0117016 0.600779
0 -0.00421524 0.216417
0 0.00489739 -0.25144
0 0.0121206 -0.59881
0 0.366108 -0.713532
0 0.295485 -0.59847
0 0.110861 -0.224536
0 -0.116534 0.236026
0 -0.298969 0.605527
0 -0.36606 0.741411
0 -0.291922 0.591253
0 -0.105158 0.212986
0 0.122176 -0.247453
0 0.302374 -0.589316
0 0.576294 -0.426751
0 0.465125 -0.344429
0 0.174507 -0.129224
0 -0.183437 0.135837
0 -0.47061 0.34849
0 -0.576218 0.426694
0 -0.459517 0.340276
0 -0.165531 0.122577
0 0.192318 -0.142413
0 0.47597 -0.352459
0 0.460465 0
0 0.390973 0
0 0.146686 0
0 -0.154193 0
0 -0.395583 0
0 -0.484355 0
0 -0.386258 0
0 -0.139141 0
0 0.161658 0
0 0.380305 0
0.064979 0.282814 0.494596
0.178239 0.239167 0.418497
0.219634 0.0898566 0.157241
0.17621 -0.0944624 -0.1653
0.0648012 -0.242344 -0.424081
-0.0716081 -0.296727 -0.519247
-0.18039 -0.236631 -0.414084
-0.219575 -0.0852467 -0.149175
-0.173973 0.0987485 0.172781
-0.0584613 0.23358 0.408493
0.104889 -0.00394845 0.798373
0.287712 -0.00332586 0.675533
0.354531 -0.00124941 0.253817
0.284437 0.00131345 -0.266827
0.104602 0.00336968 -0.684547
-0.115589 0.00412582 -0.838165
-0.291184 0.00329024 -0.66841
-0.354437 0.00118531 -0.240797
-0.280826 -0.00137334 0.278903
-0.0943678 -0.00326108 0.659387
0.104331 -0.289188 0.794131
0.286184 -0.244284 0.671944
0.352648 -0.0917787 0.252468
0.282926 0.0964834 -0.26541
0.104046 0.247529 -0.680909
-0.114975 0.303075 -0.833712
-0.289637 0.241694 -0.664859
-0.352554 0.0870706 -0.239518
-0.279334 -0.100861 0.277421
-0.0938665 -0.238844 0.655884
0.0635224 -0.462857 0.483508
0.174244 -0.390987 0.409115
0.21471 -0.146895 0.153716
0.17226 0.154425 -0.161595
0.0633485 0.396178 -0.414574
-0.0700031 0.485084 -0.507607
-0.176347 0.386841 -0.404802
-0.214653 0.13936 -0.145831
-0.170072 -0.161433 0.168908
-0.0571508 -0.38228 0.399336
-0.00179404 -0.457952 -0.0136556
-0.0049211 -0.386844 -0.0115545
-0.00606399 -0.145339 -0.00434136
-0.00486506 0.152789 0.00456387
-0.00178914 0.391981 0.0117087
0.00197705 0.479944 0.0143362
0.0049805 0.382742 0.0114327
0.00606238 0.137883 0.00411865
0.00480331 -0.159722 -0.0047704
0.00161409 -0.378229 -0.0112783
-0.0664184 -0.276366 -0.505551
-0.182187 -0.233453 -0.427767
-0.224498 -0.0877099 -0.160724
-0.180113 0.0922052 0.168962
-0.0662366 0.236553 0.433474
0.0731939 0.289637 0.530748
0.184386 0.230978 0.423257
0.224439 0.0832098 0.152479
0.177826 -0.0963895 -0.176609
0.0597563 -0.228254 -0.417542
-0.105418 0.0118444 -0.802401
-0.289159 0.0099966 -0.678933
-0.356315 0.00375558 -0.255094
-0.285868 -0.00394806 0.26817
-0.105128 -0.0101288 0.687993
0.116171 -0.0124017 0.842383
0.292649 -0.00989006 0.671774
0.356221 -0.00356289 0.242008
0.282238 0.00412763 -0.280306
0.094844 0.00978246 -0.662715
-0.103747 0.295485 -0.789679
-0.284371 0.249159 -0.667712
-0.35041 0.0936028 -0.25087
-0.28113 -0.0984 0.263728
-0.103386 -0.252446 0.676597
0.114246 -0.309096 0.828431
0.2878 -0.246496 0.660649
0.350317 -0.0887999 0.238001
0.277563 0.102883 -0.275682
0.0933403 0.244045 -0.652207
-0.062049 0.465125 -0.472293
-0.162208 0.375401 -0.381186
-0.199786 0.140844 -0.143014
-0.160285 -0.148051 0.150333
-0.0589449 -0.379827 0.385681
0.0651365 -0.465063 0.47223
0.164088 -0.370874 0.37659
0.199733 -0.133599 0.135658
0.158319 0.155219 -0.157612
0.0558251 0.384153 -0.390073
0 0.172759 0
0 0.146686 0
0 0.0550342 0
0 -0.0578505 0
0 -0.148416 0
0 -0.181722 0
0 -0.144918 0
0 -0.0522033 0
0 0.0606514 0
0 0.142684 0
0.104889 0.106107 0.35147
0.287712 0.0898566 0.297337
0.354531 0.033762 0.111719
0.284437 -0.0354925 -0.117445
0.104602 -0.0910562 -0.301308
-0.115589 -0.11149 -0.368923
-0.291184 -0.08891 -0.294205
-0.354437 -0.03203 -0.105989
-0.280826 0.037098 0.122757
-0.0943678 0.0876354 0.290284
0.169311 -0.00148139 0.56734
0.464423 -0.00124941 0.479959
0.572281 -0.000469393 0.180336
0.459136 0.000493448 -0.18958
0.168847 0.00126595 -0.486369
-0.186583 0.00155005 -0.595513
-0.470027 0.00123611 -0.474904
-0.572129 0.00044531 -0.171086
-0.453306 -0.00051589 0.198154
-0.152328 -0.0012235 0.468574
0.168411 -0.108498 0.564326
0.461956 -0.0917787 0.477409
0.569241 -0.0344841 0.179378
0.456697 0.0362517 -0.188573
0.16795 0.093004 -0.483785
-0.185592 0.113875 -0.592349
-0.467531 0.0908119 -0.472381
-0.56909 0.0327152 -0.170177
-0.450897 -0.0378916 0.197101
-0.151519 -0.0896103 0.466085
0.102537 -0.173656 0.343591
0.281263 -0.146895 0.290671
0.346584 -0.0551932 0.109215
0.278061 0.0580224 -0.114813
0.102257 0.148857 -0.294553
-0.112998 0.182261 -0.360653
-0.284658 0.145348 -0.28761
-0.346492 0.0523621 -0.103612
-0.27453 -0.0606471 0.120006
-0.0922524 -0.143425 0.283777
-0.00289593 -0.171816 -0.00970393
-0.00794358 -0.145339 -0.00820937
-0.00978843 -0.0546083 -0.00308452
-0.00785314 0.0574077 0.00324262
-0.002888 0.147279 0.00831902
0.00319136 0.18033 0.0101858
0.00803947 0.143808 0.00812287
0.00978583 0.0518072 0.00292629
0.00775349 -0.0600044 -0.00338927
0.00260545 -0.141905 -0.00801461
-0.107212 -0.103688 -0.359255
-0.294085 -0.0877099 -0.303923
-0.362384 -0.0329552 -0.114194
-0.290736 0.0346445 0.120047
-0.106919 0.0888807 0.307983
0.118149 0.108826 0.377095
0.297634 0.0867858 0.300722
0.362288 0.0312648 0.108336
0.287046 -0.0362116 -0.125476
0.0964581 -0.0856371 -0.296714
-0.170165 0.00444382 -0.570203
-0.466759 0.00375558 -0.482375
-0.57516 0.00141101 -0.181243
-0.461446 -0.00148333 0.190534
-0.169697 -0.0038055 0.488816
0.187522 -0.00465949 0.59851
0.472392 -0.0037158 0.477294
0.575007 -0.00133863 0.171947
0.455587 0.0015506 -0.199151
0.153097 0.00367021 -0.470939
-0.167467 0.110861 -0.561162
-0.459029 0.0936028 -0.474399
-0.565629 0.0351663 -0.178241
-0.453798 -0.0369688 0.187377
-0.166884 -0.0948435 0.480719
0.184414 -0.116127 0.588593
0.464565 -0.0926081 0.469387
0.565479 -0.0333622 0.169098
0.44804 0.0386481 -0.195866
0.150669 0.0915614 -0.463472
-0.100159 0.174507 -0.335621
-0.261835 0.140844 -0.270879
-0.322493 0.0528423 -0.101629
-0.258731 -0.0555464 0.10683
-0.0951484 -0.142505 0.274073
0.105143 -0.174484 0.335577
0.264869 -0.139146 0.267612
0.322407 -0.0501241 0.0964014
0.255558 0.0582357 -0.112002
0.0901125 0.144128 -0.277194
0 -0.181599 0
0 -0.154193 0
0 -0.0578505 0
0 0.0608109 0
0 0.156011 0
0 0.191021 0
0 0.152334 0
0 0.0548747 0
0 -0.0637551 0
0 -0.149985 0
0.104331 -0.111537 0.0727445
0.286184 -0.0944624 0.0615397
0.352648 -0.0354925 0.0231223
0.282926 0.0373119 -0.0243076
0.104046 0.0957241 -0.0623616
-0.114975 0.117205 -0.0763558
-0.289637 0.0934675 -0.0608914
-0.352554 0.033672 -0.0219363
-0.279334 -0.0389993 0.025407
-0.0938665 -0.0921199 0.0600807
0.168411 0.0015572 0.117424
0.461956 0.00131345 0.0993365
0.569241 0.000493448 0.0373239
0.456697 -0.000518743 -0.0392373
0.16795 -0.00133082 -0.100663
-0.185592 -0.00162949 -0.123253
-0.467531 -0.00129947 -0.0982905
-0.56909 -0.00046813 -0.0354095
-0.450897 0.000542327 0.0410117
-0.151519 0.00128611 0.0969818
0.167516 0.114051 0.1168
0.459502 0.0964834 0.0988088
0.566217 0.0362517 0.0371256
0.45427 -0.0381101 -0.0390288
0.167058 -0.0977716 -0.100129
-0.184606 -0.119712 -0.122598
-0.465048 -0.0954671 -0.0977683
-0.566067 -0.0343923 -0.0352214
-0.448502 0.0398337 0.0407939
-0.150714 0.094196 0.0964666
0.101993 0.182543 0.0711138
0.279769 0.154425 0.06016
0.344743 0.0580224 0.022604
0.276584 -0.0609966 -0.0237627
0.101714 -0.156488 -0.0609634
-0.112398 -0.191605 -0.074644
-0.283145 -0.152799 -0.0595265
-0.344652 -0.0550462 -0.0214446
-0.273071 0.0637553 0.0248374
-0.0917623 0.150764 0.0587339
-0.00288055 0.180608 -0.00200844
-0.00790138 0.152789 -0.00169908
-0.0097364 0.0574077 -0.000638398
-0.00781147 -0.0603503 0.000671123
-0.00287267 -0.154829 0.00172177
0.00317441 -0.189574 0.00210815
0.00799676 -0.15118 0.00168119
0.00973383 -0.0544629 0.000605651
0.00771228 0.0630797 -0.000701476
0.00259161 0.149167 -0.0016588
-0.106643 0.108994 -0.0743558
-0.292522 0.0922052 -0.0629026
-0.360459 0.0346445 -0.0236345
-0.289192 -0.0364202 0.0248461
-0.106351 -0.0934366 0.0637426
0.117522 -0.114405 0.0780472
0.296053 -0.0912343 0.0622404
0.360363 -0.0328674 0.0224222
0.285521 0.0380675 -0.0259698
0.0959457 0.0900194 -0.0614115
-0.169261 -0.00467123 -0.118016
-0.46428 -0.00394806 -0.0998365
-0.572105 -0.00148333 -0.0375117
-0.458995 0.00155937 0.0394348
-0.168795 0.00400056 0.10117
0.186525 0.00489832 0.123873
0.469883 0.00390627 0.0987851
0.571953 0.00140724 0.0355877
0.453167 -0.00163007 -0.0412181
0.152283 -0.00385803 -0.0974712
-0.166577 -0.116534 -0.116145
-0.45659 -0.0984 -0.0981864
-0.562625 -0.0369688 -0.0368903
-0.451387 0.0388636 0.0387814
-0.165997 0.0997049 0.0994939
0.183434 0.122079 0.121821
0.462097 0.0973546 0.0971488
0.562475 0.0350721 0.0349981
0.44566 -0.0406287 -0.0405383
0.149869 -0.0962469 -0.0959258
-0.0996269 -0.183437 -0.0694642
-0.260444 -0.148051 -0.0560643
-0.32078 -0.0555464 -0.0210344
-0.257356 0.0583889 0.0221108
-0.094643 0.149797 0.0567254
0.104584 0.183413 0.069455
0.263462 0.146266 0.0553883
0.320694 0.0526891 0.0199524
0.2542 -0.0612158 -0.0231813
0.0896338 -0.151503 -0.0573715
0 -0.465895 0
0 -0.395583 0
0 -0.148416 0
0 0.156011 0
0 0.400248 0
0 0.490066 0
0 0.390813 0
0 0.140782 0
0 -0.163564 0
0 -0.384789 0
0.0635224 -0.286149 -0.234046
0.174244 -0.242344 -0.197995
0.21471 -0.0910562 -0.0743931
0.17226 0.0957241 0.0782067
0.0633485 0.245581 0.20064
-0.0700031 0.30069 0.245665
-0.176347 0.239792 0.19591
-0.214653 0.0863857 0.0705773
-0.170072 -0.100053 -0.0817436
-0.0571508 -0.236335 -0.193302
0.102537 0.00399501 -0.377796
0.281263 0.00336968 -0.319603
0.346584 0.00126595 -0.120085
0.278061 -0.00133082 0.12624
0.102257 -0.00341427 0.323871
-0.112998 -0.00418049 0.39655
-0.284658 -0.00333377 0.316238
-0.346492 -0.00120099 0.113925
-0.27453 0.00139134 -0.13195
-0.0922524 0.00329953 -0.312027
0.101993 0.292598 -0.375789
0.279769 0.247529 -0.317906
0.344743 0.093004 -0.119447
0.276584 -0.0977716 0.12557
0.101714 -0.250834 0.322151
-0.112398 -0.307123 0.394443
-0.283145 -0.244921 0.314558
-0.344652 -0.0882336 0.11332
-0.273071 0.102194 -0.131249
-0.0917623 0.241661 -0.310369
0.0620985 0.468315 -0.2288
0.170337 0.396178 -0.193558
0.209897 0.148857 -0.0727253
0.168398 -0.156488 0.0764536
0.0619287 -0.40147 0.196142
-0.0684336 -0.491562 0.240158
-0.172394 -0.392006 0.191519
-0.209842 -0.141222 0.0689952
-0.16626 0.163565 -0.0799114
-0.0558697 0.386787 -0.188969
-0.00175383 0.463352 0.00646192
-0.00481079 0.391981 0.00546657
-0.00592802 0.147279 0.00205397
-0.00475601 -0.154829 -0.00215925
-0.00174902 -0.397215 -0.00553957
0.00193276 -0.486353 -0.00678268
0.00486884 -0.387853 -0.00540899
0.00592645 -0.139725 -0.00194861
0.00469564 0.161832 0.0022569
0.00157791 0.382689 0.00533699
-0.0649295 0.279625 0.239231
-0.178103 0.236553 0.202381
-0.219466 0.0888807 0.0760411
-0.176076 -0.0934366 -0.079939
-0.0647518 -0.239713 -0.205084
0.0715534 -0.293505 -0.251106
0.180253 -0.234062 -0.20025
0.219408 -0.0843214 -0.0721405
0.17384 0.0976625 0.0835541
0.0584167 0.230946 0.197584
-0.103055 -0.0119841 0.379702
-0.282678 -0.0101288 0.321212
-0.348329 -0.0038055 0.120689
-0.279461 0.00400056 -0.126875
-0.102771 0.0102634 -0.325501
0.113567 0.0125667 -0.398545
0.28609 0.0100216 -0.317829
0.348236 0.00361028 -0.114499
0.275912 -0.00418196 0.132614
0.092718 -0.00989781 0.313601
-0.101421 -0.298969 0.373682
-0.277996 -0.252446 0.315902
-0.342555 -0.0948435 0.11869
-0.274828 0.0997049 -0.124774
-0.101068 0.255793 -0.320109
0.111684 0.313195 -0.391943
0.281349 0.249765 -0.312563
0.342464 0.0899778 -0.112601
0.271341 -0.104233 0.130426
0.0912479 -0.246923 0.308629
-0.060658 -0.47061 0.223493
-0.158572 -0.379827 0.18038
-0.195307 -0.142505 0.0676755
-0.156692 0.149797 -0.0711387
-0.0576236 0.384306 -0.182507
0.0636764 0.470547 -0.223463
0.16041 0.375248 -0.178205
0.195255 0.135175 -0.0641944
0.15477 -0.15705 0.0745829
0.0545737 -0.388683 0.184586
0 -0.570445 0
0 -0.484355 0
0 -0.181722 0
0 0.191021 0
0 0.490066 0
0 0.60004 0
0 0.478514 0
0 0.172374 0
0 -0.200269 0
0 -0.471138 0
-0.00179404 -0.350363 -0.45054
-0.0049211 -0.296727 -0.381143
-0.00606399 -0.11149 -0.143207
-0.00486506 0.117205 0.150548
-0.00178914 0.30069 0.386233
0.00197705 0.368167 0.472905
0.0049805 0.293602 0.377128
0.00606238 0.105771 0.135861
0.00480331 -0.122505 -0.157357
0.00161409 -0.28937 -0.372107
-0.00289593 0.00489151 -0.727259
-0.00794358 0.00412582 -0.615238
-0.00978843 0.00155005 -0.231164
-0.00785314 -0.00162949 0.243013
-0.002888 -0.00418049 0.623454
0.00319136 -0.00511859 0.763361
0.00803947 -0.00408192 0.608758
0.00978583 -0.0014705 0.219307
0.00775349 0.00170358 -0.254004
0.00260545 0.00403997 -0.600653
-0.00288055 0.358259 -0.723395
-0.00790137 0.303075 -0.611969
-0.0097364 0.113875 -0.229936
-0.00781147 -0.119712 0.241723
-0.00287267 -0.307123 0.620142
0.00317441 -0.376043 0.759304
0.00799676 -0.299883 0.605523
0.00973383 -0.108034 0.218141
0.00771228 0.125127 -0.252655
0.00259161 0.295891 -0.597462
-0.00175383 0.573408 -0.440441
-0.00481079 0.485084 -0.372598
-0.00592803 0.182261 -0.139997
-0.00475601 -0.191605 0.147173
-0.00174902 -0.491562 0.377574
0.00193276 -0.601871 0.462305
0.00486884 -0.479976 0.368674
0.00592645 -0.172913 0.132816
0.00469564 0.20027 -0.15383
0.00157791 0.473585 -0.363766
4.95328e-05 0.567331 0.0124392
0.000135868 0.479944 0.0105232
0.000167425 0.18033 0.00395387
0.000134323 -0.189574 -0.00415659
4.93973e-05 -0.486353 -0.0106637
-5.45852e-05 -0.595493 -0.0130567
-0.000137512 -0.474889 -0.0104124
-0.000167381 -0.17108 -0.00375108
-0.000132617 0.198148 0.00434456
-4.45644e-05 0.468567 0.0102737
0.00183378 0.342374 0.46052
0.00503009 0.289637 0.389585
0.00619832 0.108826 0.146379
0.00497284 -0.114405 -0.153883
0.00182876 -0.293505 -0.394787
-0.00202086 -0.35937 -0.48338
-0.00509083 -0.286587 -0.385482
-0.00619668 -0.103244 -0.138871
-0.0049097 0.119579 0.160843
-0.00164984 0.282772 0.38035
0.00291055 -0.0146734 0.730929
0.00798357 -0.0124017 0.618334
0.0098377 -0.00465949 0.232327
0.00789263 0.00489832 -0.244236
0.00290253 0.0125667 -0.626592
-0.00320742 0.0153867 -0.767203
-0.00807992 0.0122704 -0.611822
-0.0098351 0.00442045 -0.22041
-0.00779249 -0.00512042 0.255283
-0.0026186 -0.0121189 0.603684
0.0028644 -0.36606 0.71934
0.00785134 -0.309096 0.60811
0.00967464 -0.116127 0.228479
0.00776192 0.122079 -0.24019
0.00285444 0.313195 -0.616211
-0.00315426 0.383478 -0.754492
-0.00794599 0.305814 -0.601685
-0.00967208 0.110169 -0.216758
-0.0076634 -0.127624 0.251071
-0.00257708 -0.302334 0.594113
0.00171314 -0.576218 0.430224
0.00447849 -0.465063 0.347232
0.005516 -0.174484 0.130276
0.0044254 0.183413 -0.136942
0.00162744 0.470547 -0.351327
-0.00179839 0.576141 -0.430167
-0.00453039 0.459456 -0.343045
-0.00551454 0.165509 -0.123574
-0.00437113 -0.192293 0.143573
-0.00154131 -0.475906 0.355328
0 -0.454913 0
0 -0.386259 0
0 -0.144918 0
0 0.152334 0
0 0.390813 0
0 0.478514 0
0 0.381601 0
0 0.137463 0
0 -0.159709 0
0 -0.375719 0
-0.0664184 -0.279404 -0.493212
-0.182187 -0.236631 -0.417242
-0.224498 -0.08891 -0.156771
-0.180113 0.0934675 0.164807
-0.0662366 0.239792 0.422815
0.0731939 0.293602 0.517696
0.184386 0.234139 0.412847
0.224439 0.0843493 0.148729
0.177826 -0.0976945 -0.172261
0.0597563 -0.230764 -0.407351
-0.107212 0.00390084 -0.79614
-0.294085 0.00329024 -0.673507
-0.362384 0.00123611 -0.253058
-0.290736 -0.00129947 0.266031
-0.106918 -0.00333377 0.682502
0.118149 -0.00408192 0.835661
0.297634 -0.00325522 0.666413
0.362288 -0.00117269 0.240078
0.287046 0.00135855 -0.278062
0.0964581 0.00322175 -0.657543
-0.106643 0.285701 -0.791911
-0.292522 0.241694 -0.669929
-0.360459 0.0908119 -0.251714
-0.289192 -0.0954671 0.264617
-0.106351 -0.244921 0.678876
0.117522 -0.299883 0.831222
0.296053 -0.239148 0.662873
0.360363 -0.0861539 0.238802
0.285521 0.0997846 -0.276585
0.0959457 0.235964 -0.65405
-0.0649295 0.457276 -0.482156
-0.178103 0.386841 -0.407888
-0.219466 0.145348 -0.153257
-0.176076 -0.152799 0.161113
-0.0647518 -0.392006 0.413335
0.0715534 -0.479976 0.50609
0.180253 -0.382767 0.403593
0.219408 -0.137893 0.145395
0.17384 0.15971 -0.168399
0.0584167 0.37767 -0.39822
0.00183378 0.45243 0.0136174
0.00503009 0.382742 0.0115199
0.00619832 0.143808 0.00432836
0.00497284 -0.15118 -0.00455024
0.00182876 -0.387853 -0.0116737
-0.00202086 -0.474889 -0.0142934
-0.00509083 -0.37871 -0.0113986
-0.00619668 -0.136431 -0.00410636
-0.0049097 0.158017 0.00475604
-0.00164984 0.373668 0.0112468
0.0678896 0.273033 0.504137
0.186222 0.230978 0.426484
0.229472 0.0867858 0.160243
0.184102 -0.0912343 -0.168457
0.0677038 -0.234062 -0.432179
-0.0748154 -0.286587 -0.529163
-0.18847 -0.228545 -0.421993
-0.229411 -0.0823339 -0.152024
-0.181765 0.0953606 0.176077
-0.0610799 0.225502 0.416374
0.107753 -0.0117016 0.800158
0.295565 -0.00989006 0.676896
0.364208 -0.0037158 0.254331
0.292199 0.00390626 -0.26737
0.107456 0.0100216 -0.685938
-0.118744 0.0122704 -0.839867
-0.299132 0.00978531 -0.669767
-0.364111 0.00352518 -0.241286
-0.28849 -0.00408337 0.279462
-0.0969449 -0.0096645 0.660861
0.106045 -0.291922 0.787471
0.290669 -0.246496 0.665705
0.358172 -0.0926081 0.250119
0.287358 0.0973546 -0.26294
0.105676 0.249765 -0.674573
-0.116776 0.305814 -0.825952
-0.294173 0.243876 -0.658671
-0.358077 0.0878568 -0.237288
-0.283712 -0.101776 0.27485
-0.0954078 -0.241102 0.650383
0.0634234 -0.459517 0.470972
0.165801 -0.370874 0.38012
0.204211 -0.139146 0.142615
0.163835 0.146266 -0.149913
0.0602506 0.375248 -0.384602
-0.0665793 0.459456 -0.47091
-0.167722 0.366402 -0.375536
-0.204157 0.131988 -0.135279
-0.161826 -0.153348 0.157171
-0.0570617 -0.379521 0.388982
0 -0.163872 0
0 -0.139141 0
0 -0.0522033 0
0 0.0548747 0
0 0.140782 0
0 0.172374 0
0 0.137463 0
0 0.0495181 0
0 -0.0575316 0
0 -0.135344 0
-0.105418 -0.100649 -0.3456
-0.289159 -0.0852468 -0.29237
-0.356315 -0.0320301 -0.109853
-0.285868 0.033672 0.115484
-0.105128 0.0863858 0.296275
0.116171 0.105771 0.362762
0.292649 0.0843493 0.289291
0.356221 0.0303871 0.104218
0.282238 -0.0351945 -0.120707
0.094844 -0.0831275 -0.285435
-0.170165 0.00140519 -0.557864
-0.466759 0.00118531 -0.471941
-0.57516 0.00044531 -0.177324
-0.461446 -0.000468131 0.186413
-0.169697 -0.00120099 0.478245
0.187522 -0.0014705 0.585565
0.472392 -0.0011727 0.466972
0.575007 -0.000422465 0.168228
0.455587 0.000489418 -0.194844
0.153097 0.00116056 -0.460748
-0.169261 0.102917 -0.554901
-0.46428 0.0870707 -0.469434
-0.572105 0.0327153 -0.176382
-0.458995 -0.0343923 0.185423
-0.168795 -0.0882338 0.475705
0.186525 -0.108034 0.582454
0.469883 -0.086154 0.464492
0.571953 -0.0310372 0.167334
0.453167 0.0359475 -0.193809
0.152283 0.0850009 -0.4583
-0.103055 0.164723 -0.337852
-0.282678 0.13936 -0.285817
-0.348329 0.0523622 -0.10739
-0.279461 -0.0550463 0.112895
-0.102771 -0.141222 0.289634
0.113567 -0.172913 0.35463
0.28609 -0.137893 0.282807
0.348236 -0.0496763 0.101882
0.275912 0.0575355 -0.118001
0.092718 0.136047 -0.279037
0.00291055 0.162978 0.00954185
0.00798357 0.137883 0.00807223
0.0098377 0.0518073 0.00303299
0.00789263 -0.0544629 -0.00318846
0.00290253 -0.139725 -0.00818001
-0.00320742 -0.17108 -0.0100157
-0.00807992 -0.136431 -0.0079872
-0.0098351 -0.0491498 -0.00287743
-0.00779249 0.0569257 0.00333267
-0.0026186 0.134606 0.00788075
0.107753 0.0983542 0.353255
0.295565 0.0832099 0.298846
0.364208 0.0312648 0.112286
0.292199 -0.0328674 -0.118042
0.107456 -0.0843215 -0.302838
-0.118744 -0.103244 -0.370796
-0.299132 -0.082334 -0.295699
-0.364111 -0.0296611 -0.106527
-0.28849 0.0343536 0.123381
-0.0969449 0.0812321 0.291758
0.171024 -0.00421524 0.560679
0.469107 -0.0035629 0.474317
0.578053 -0.00133863 0.178216
0.463767 0.00140724 -0.187351
0.170551 0.00361029 -0.480652
-0.188465 0.00442046 -0.588512
-0.47477 0.00352518 -0.469321
-0.5779 0.00126995 -0.169074
-0.45788 -0.00147103 0.195825
-0.153869 -0.00348142 0.463073
0.168312 -0.105158 0.55179
0.461339 -0.0888 0.466475
0.568476 -0.0333623 0.175264
0.456082 0.0350722 -0.184248
0.167724 0.0899779 -0.472689
-0.185342 0.110169 -0.578764
-0.466901 0.0878569 -0.461549
-0.568325 0.0316505 -0.166273
-0.450295 -0.0366647 0.192594
-0.151429 -0.0868516 0.455731
0.100664 -0.165531 0.330016
0.263156 -0.133599 0.266354
0.32412 -0.0501241 0.0999316
0.260036 0.0526891 -0.105045
0.0956286 0.135175 -0.269495
-0.105673 0.165509 -0.329972
-0.266206 0.131988 -0.263143
-0.324034 0.0475458 -0.0947912
-0.256848 -0.0552401 0.110131
-0.0905672 -0.136714 0.272564
0 0.190392 0
0 0.161658 0
0 0.0606514 0
0 -0.0637551 0
0 -0.163564 0
0 -0.200269 0
0 -0.159709 0
0 -0.0575316 0
0 0.0668419 0
0 0.157247 0
-0.103747 0.116937 -0.064652
-0.284371 0.0987449 -0.0549355
-0.35041 0.0370966 -0.0206452
-0.28113 -0.0389978 0.0217039
-0.103386 -0.100049 0.0556812
0.114246 -0.122501 0.0681765
0.2878 -0.0976909 0.0543687
0.350317 -0.0351931 0.0195867
0.277563 0.0407731 -0.0226756
0.0933403 0.09658 -0.053397
-0.167467 -0.00163259 -0.104361
-0.459029 -0.00137328 -0.0886764
-0.565629 -0.000515869 -0.0333253
-0.453798 0.000542304 0.0350342
-0.166884 0.00139128 0.0898803
0.184414 0.0017035 0.11005
0.464565 0.00135849 0.0877617
0.565479 0.000489396 0.0316167
0.44804 -0.000567112 -0.0366028
0.150669 -0.00134838 -0.086193
-0.166577 -0.119573 -0.103806
-0.45659 -0.100857 -0.0882053
-0.562625 -0.0378901 -0.0331483
-0.451387 0.0398322 0.0348481
-0.165997 0.10219 0.0894028
0.183434 0.125122 0.109465
0.462097 0.0997808 0.0872956
0.562475 0.0359461 0.0314488
0.44566 -0.0416457 -0.0364083
0.149869 -0.0987566 -0.0857351
-0.101421 -0.191381 -0.0632027
-0.277996 -0.161427 -0.053704
-0.342555 -0.0606447 -0.0201824
-0.274828 0.0637528 0.0212173
-0.101068 0.163558 0.0544331
0.111684 0.200262 0.0666483
0.281349 0.159703 0.0531501
0.342464 0.0575332 0.0191477
0.271341 -0.0666554 -0.0221673
0.0912479 -0.158064 -0.0522
0.0028644 -0.189352 0.00178501
0.00785134 -0.159716 0.00151675
0.00967464 -0.0600021 0.000570004
0.00776192 0.0630772 -0.000599232
0.00285444 0.161826 -0.00153733
-0.00315426 0.19814 -0.00188232
-0.00794599 0.158011 -0.0015011
-0.00967208 0.0569234 -0.000540781
-0.0076634 -0.065949 0.000626064
-0.00257708 -0.156389 0.00147427
0.106045 -0.114271 0.0660841
0.290669 -0.0963858 0.0561524
0.358172 -0.0362102 0.0211025
0.287358 0.038066 -0.0221845
0.105676 0.0976587 -0.0569146
-0.116776 0.119574 -0.0696868
-0.294173 0.0953569 -0.055573
-0.358077 0.0343523 -0.0200206
-0.283712 -0.0397991 0.0231779
-0.0954078 -0.0943779 0.0545798
0.168312 0.00489739 0.104887
0.461339 0.00412748 0.0891225
0.568476 0.00155054 0.033493
0.456082 -0.00163001 -0.0352103
0.167724 -0.0041818 -0.0903323
-0.185342 -0.00512022 -0.110603
-0.466901 -0.00408322 -0.0882031
-0.568325 -0.00147097 -0.0317757
-0.450295 0.00170438 0.036787
-0.151429 0.00404482 0.086628
0.165643 0.122176 0.103224
0.453704 0.102879 0.0876411
0.559063 0.0386467 0.0329349
0.448529 -0.0406271 -0.0346235
0.164947 -0.104229 -0.0888269
-0.182273 -0.127619 -0.10876
-0.459172 -0.101772 -0.0867333
-0.558915 -0.0366633 -0.0312462
-0.442843 0.0424838 0.0361767
-0.149029 0.100907 0.0852545
0.0990684 0.192318 0.0617367
0.258984 0.155219 0.0498274
0.318981 0.0582357 0.0186944
0.255914 -0.0612158 -0.0196511
0.0941124 -0.15705 -0.050415
-0.103998 -0.192293 -0.0617285
-0.261985 -0.153348 -0.0492266
-0.318897 -0.0552401 -0.0177328
-0.252775 0.0641797 0.0206025
-0.0891313 0.158838 0.0509892
0 0.471201 0
0 0.380305 0
0 0.142684 0
0 -0.149985 0
0 -0.384789 0
0 -0.471139 0
0 -0.375719 0
0 -0.135344 0
0 0.157247 0
0 0.389172 0
-0.062049 0.289408 0.241239
-0.162208 0.23358 0.194703
-0.199786 0.0876354 0.0730493
-0.160285 -0.09212 -0.0767875
-0.0589449 -0.236335 -0.196999
0.0651365 -0.28937 -0.241207
0.164088 -0.230764 -0.192356
0.199733 -0.0831275 -0.0692918
0.158319 0.0965801 0.0805053
0.0558251 0.239026 0.199243
-0.100159 -0.00404051 0.389406
-0.261835 -0.00326108 0.314288
-0.322493 -0.0012235 0.117916
-0.258731 0.00128611 -0.12395
-0.0951484 0.00329953 -0.317995
0.105143 0.00403997 -0.389355
0.264869 0.00322176 -0.310499
0.322407 0.00116057 -0.11185
0.255558 -0.00134838 0.129951
0.0901125 -0.00333711 0.321616
-0.0996269 -0.295931 0.387338
-0.260444 -0.238844 0.312619
-0.32078 -0.0896103 0.117289
-0.257356 0.094196 -0.123291
-0.0946429 0.241661 -0.316305
0.104584 0.295891 -0.387286
0.263462 0.235964 -0.308849
0.320694 0.0850009 -0.111256
0.2542 -0.0987566 0.129261
0.0896338 -0.244413 0.319908
-0.060658 -0.473648 0.235831
-0.158572 -0.38228 0.190339
-0.195307 -0.143425 0.0714118
-0.156692 0.150764 -0.0750662
-0.0576235 0.386788 -0.192583
0.0636764 0.473585 -0.2358
0.160409 0.37767 -0.188044
0.195255 0.136047 -0.0677385
0.15477 -0.158064 0.0787006
0.0545737 -0.391193 0.194776
0.00171314 -0.468629 -0.00666051
0.00447849 -0.378229 -0.00537567
0.005516 -0.141905 -0.00201686
0.0044254 0.149167 0.00212007
0.00162744 0.382689 0.00543906
-0.00179839 0.468567 0.00665962
-0.00453039 0.373668 0.00531085
-0.00551453 0.134606 0.00191312
-0.00437113 -0.156389 -0.00222272
-0.00154131 -0.387047 -0.00550101
0.0634234 -0.282809 -0.246583
0.165801 -0.228254 -0.199016
0.204211 -0.0856372 -0.0746674
0.163835 0.0900195 0.0784884
0.0602506 0.230946 0.201363
-0.0665793 0.282772 0.24655
-0.167722 0.225502 0.196616
-0.204157 0.0812321 0.0708266
-0.161826 -0.0943779 -0.0822885
-0.0570617 -0.233576 -0.203656
0.100664 0.0121206 -0.391371
0.263156 0.00978246 -0.315875
0.32412 0.00367021 -0.118511
0.260036 -0.00385803 0.124575
0.0956286 -0.00989782 0.319599
-0.105673 -0.0121189 0.39132
-0.266206 -0.0096645 0.312066
-0.324034 -0.00348142 0.112415
-0.256848 0.00404482 -0.130607
-0.0905672 0.0100105 -0.323239
0.0990684 0.302374 -0.385166
0.258984 0.244045 -0.310866
0.318981 0.0915615 -0.116632
0.255913 -0.096247 0.1226
0.0941123 -0.246923 0.314532
-0.103998 -0.302334 0.385115
-0.261985 -0.241102 0.307118
-0.318896 -0.0868517 0.110632
-0.252775 0.100907 -0.128536
-0.0891313 0.249735 -0.318114
0.059251 0.47597 -0.230361
0.154894 0.384153 -0.185924
0.190777 0.144128 -0.0697553
0.153057 -0.151503 0.0733249
0.0562869 -0.388683 0.188116
-0.0621994 -0.475906 0.23033
-0.156689 -0.379521 0.183682
-0.190726 -0.136714 0.0661672
-0.15118 0.158838 -0.0768751
-0.0533078 0.39311 -0.190258
