# vtk DataFile Version 3.0
Velocity field
ASCII
DATASET STRUCTURED_POINTS
DIMENSIONS 8 8 8
SPACING 0.8 0.8 0.8
ORIGIN 0 0 0
POINT_DATA 512
VECTORS velocity float
0 0.334143 0
0 0.232799 0
0 -0.00975682 0
0 -0.246395 0
0 -0.333573 0
0 -0.21841 0
0 0.0292372 0
0 0.25915 0
0 0.131456 0.341043
0 0.0915864 0.251919
0 -0.00383846 -0.0105581
0 -0.096935 -0.266631
0 -0.131232 -0.360969
0 -0.0859255 -0.236348
0 0.0115023 0.0316385
0 0.101953 0.264501
0 -0.15097 0.475213
0 -0.105182 0.351028
0 0.00440825 -0.0147119
0 0.111324 -0.371527
0 0.150712 -0.50298
0 0.0986805 -0.329331
0 -0.0132097 0.0440855
0 -0.117087 0.368559
0 -0.34182 0.321126
0 -0.238148 0.237207
0 0.00998098 -0.00994156
0 0.252056 -0.25106
0 0.341237 -0.339889
0 0.223428 -0.222546
0 -0.0299089 0.0297908
0 -0.265104 0.249054
0 -0.325326 -0.027752
0 -0.226657 -0.0204997
0 0.00949938 0.000859159
0 0.239894 0.0216969
0 0.324771 0.0293735
0 0.212647 0.0192326
0 -0.0284658 -0.00257455
0 -0.252312 -0.0215235
0 -0.111494 -0.359796
0 -0.0776788 -0.265772
0 0.00325558 0.0111387
0 0.0822152 0.281293
0 0.111304 0.380819
0 0.0728775 0.249345
0 -0.00975566 -0.0333782
0 -0.0864711 -0.279046
0 0.169969 -0.473593
0 0.118418 -0.349831
0 -0.00496301 0.0146617
0 -0.125334 0.370261
0 -0.169679 0.501264
0 -0.111099 0.328208
0 0.0148721 -0.0439351
0 0.131822 -0.367302
0 0.348331 -0.300114
0 0.242684 -0.209092
0 -0.0101711 0.0087632
0 -0.256857 0.221302
0 -0.347737 0.299603
0 -0.227684 0.196168
0 0.0304787 -0.0262598
0 0.270153 -0.232758
0 0.232799 0
0 0.176094 0
0 -0.00738023 0
0 -0.186377 0
0 -0.25232 0
0 -0.165209 0
0 0.0221155 0
0 0.180551 0
0.0726992 0.0915864 0.336857
0.179044 0.0657645 0.241563
0.174694 -0.00275756 -0.0101289
0.0643582 -0.0696335 -0.255773
-0.0850168 -0.0942711 -0.346268
-0.182823 -0.0617249 -0.226722
-0.169714 0.00824213 0.0302765
-0.0521631 0.0710313 0.261255
0.1013 -0.105182 0.469381
0.249482 -0.0753542 0.336599
0.243421 0.00315953 -0.0141136
0.0896773 0.079785 -0.356396
-0.118464 0.108013 -0.482496
-0.254747 0.070723 -0.315919
-0.236484 -0.00944524 0.0421876
-0.0726848 -0.0815753 0.364036
0.0684536 -0.238148 0.317185
0.168587 -0.170615 0.227456
0.164493 0.00715389 -0.00953729
0.0605994 0.180649 -0.240836
-0.0800523 0.244565 -0.326047
-0.172145 0.160133 -0.213481
-0.159804 -0.0213858 0.0285083
-0.0491169 -0.184699 0.245998
-0.00591583 -0.226657 -0.0274114
-0.0145695 -0.162384 -0.019657
-0.0142155 0.00680866 0.000824216
-0.00523706 0.171932 0.0208133
0.00691814 0.232766 0.0281771
0.014877 0.152406 0.0184493
0.0138103 -0.0203539 -0.00246372
0.00424473 -0.175787 -0.0212594
-0.0766968 -0.0776788 -0.355381
-0.188887 -0.055652 -0.254847
-0.184301 0.00233346 0.0106858
-0.0678959 0.0589246 0.269833
0.0896921 0.0797727 0.365309
0.192872 0.0522316 0.23919
0.179047 -0.00697564 -0.0319414
0.0550315 -0.060245 -0.275621
-0.100955 0.118418 -0.467781
-0.248589 0.0847932 -0.335394
-0.24255 -0.0035553 0.014063
-0.0893562 -0.089778 0.355119
0.11804 -0.121542 0.480767
0.253833 -0.0795819 0.314787
0.235637 0.0106289 -0.0420374
0.0724369 0.0918412 -0.362795
-0.0639746 0.242684 -0.296431
-0.153118 0.16908 -0.206526
-0.149382 -0.00708628 0.00865566
-0.0550327 -0.178954 0.218587
0.0726984 -0.242271 0.295926
0.156332 -0.158629 0.19376
0.145136 0.0212347 -0.0259375
0.0459031 0.188218 -0.229902
0 -0.00975682 0
0 -0.00738023 0
0 0.000309311 0
0 0.00781122 0
0 0.010575 0
0 0.00692406 0
0 -0.00092688 0
0 -0.00756705 0
0.1013 -0.00383846 0.128339
0.249482 -0.00275756 0.0919826
0.243421 0.000115629 -0.00385683
0.0896773 0.00291984 -0.0973912
-0.118464 0.00395291 -0.13185
-0.254747 0.00258822 -0.0863308
-0.236484 -0.000345581 0.011529
-0.0726848 -0.00297698 0.0995352
0.141153 0.00440825 0.178829
0.34763 0.00315953 0.12817
0.339185 -0.000132479 -0.00537413
0.124958 -0.00334534 -0.135706
-0.16507 -0.00452899 -0.183724
-0.354967 -0.00296542 -0.120295
-0.32952 0.000396012 0.0160647
-0.10128 0.00341889 0.138694
0.0953842 0.00998098 0.120844
0.234912 0.00715389 0.0866103
0.229205 -0.000299962 -0.00363159
0.0844397 -0.00757463 -0.091705
-0.111545 -0.0102547 -0.124151
-0.23987 -0.00671427 -0.0812896
-0.222672 0.000896655 0.0108557
-0.0684401 0.00774091 0.0937224
-0.0082432 0.00949938 -0.0104435
-0.0203014 0.00680866 -0.00748499
-0.0198082 -0.000285487 0.000313846
-0.0072974 -0.00720914 0.00792521
0.0096399 -0.00975985 0.0107292
0.0207298 -0.0063903 0.00702507
0.0192436 0.000853384 -0.000938164
0.00591466 0.00736739 -0.00809958
-0.10687 0.00325558 -0.135396
-0.263196 0.00233346 -0.0970393
-0.256807 -9.78411e-05 0.00406891
-0.0946075 -0.0024707 0.102746
0.124978 -0.00334483 0.1391
0.268751 -0.00219006 0.0910783
0.249487 0.000292471 -0.0121629
0.0766817 0.00252492 -0.105008
-0.140671 -0.00496301 -0.178219
-0.346386 -0.0035553 -0.12771
-0.337971 0.000149071 0.00535489
-0.12451 0.00376435 0.13522
0.164478 0.00509625 0.183065
0.353696 0.0033368 0.119864
0.328339 -0.000445641 -0.0160074
0.100935 -0.00384914 -0.138221
-0.0891431 -0.0101711 -0.112937
-0.213356 -0.00708628 -0.0786839
-0.20815 0.000296992 0.00329771
-0.0766833 0.00750011 0.083279
0.101299 0.0101538 0.112744
0.217835 0.00664828 0.0738205
0.202235 -0.000889963 -0.00988189
0.063962 -0.00788836 -0.08759
0 -0.246395 0
0 -0.186377 0
0 0.00781122 0
0 0.197262 0
0 0.267056 0
0 0.174857 0
0 -0.0234071 0
0 -0.191095 0
0.0684536 -0.096935 -0.158028
0.168587 -0.0696335 -0.11326
0.164493 0.00291984 0.00474897
0.0605994 0.0737307 0.119921
-0.0800523 0.0998178 0.162351
-0.172145 0.0653568 0.1063
-0.159804 -0.00872663 -0.0141959
-0.0491169 -0.0751795 -0.122561
0.0953842 0.111324 -0.220199
0.234912 0.079785 -0.157818
0.229205 -0.00334534 0.00661722
0.0844397 -0.0844768 0.1671
-0.111545 -0.114367 0.22622
-0.23987 -0.0748826 0.14812
-0.222672 0.0100002 -0.0197807
-0.0684401 0.0863393 -0.170779
0.064456 0.252056 -0.1488
0.158742 0.180649 -0.106645
0.154886 -0.00757463 0.0044716
0.0570604 -0.191272 0.112917
-0.075377 -0.258951 0.152869
-0.162093 -0.169549 0.100092
-0.150471 0.0226425 -0.0133668
-0.0462485 0.195486 -0.115404
-0.00557035 0.239894 0.0128594
-0.0137185 0.171932 0.00921639
-0.0133853 -0.00720914 -0.00038644
-0.00493124 -0.182045 -0.00975844
0.00651408 -0.246455 -0.013211
0.0140081 -0.161369 -0.00865004
0.0130037 0.0215499 0.00115518
0.00399684 0.186053 0.00997332
-0.0722178 0.0822152 0.166718
-0.177857 0.0589245 0.119487
-0.173537 -0.0024707 -0.00501011
-0.0639319 -0.06239 -0.126515
0.0844536 -0.0844639 -0.171277
0.181612 -0.0553036 -0.112145
0.16859 0.00738554 0.0149765
0.0518177 0.0637633 0.129301
-0.0950589 -0.125334 0.219448
-0.234071 -0.089778 0.157253
-0.228385 0.00376435 -0.00659352
-0.0841374 0.0950564 -0.166501
0.111146 0.12869 -0.225411
0.239011 0.0842607 -0.14759
0.221874 -0.0112534 0.0197103
0.0682067 -0.0972046 0.170196
-0.0602386 -0.256857 0.139063
-0.144176 -0.178954 0.0968864
-0.140658 0.00750011 -0.00406059
-0.0518188 0.189405 -0.102545
0.0684529 0.256419 -0.138826
0.147202 0.167893 -0.0908979
0.13666 -0.0224748 0.0121679
0.0432224 -0.19921 0.107853
0 -0.333573 0
0 -0.25232 0
0 0.010575 0
0 0.267056 0
0 0.361544 0
0 0.236725 0
0 -0.0316888 0
0 -0.258708 0
-0.00591583 -0.131232 -0.348538
-0.0145695 -0.094271 -0.249798
-0.0142155 0.00395291 0.010474
-0.00523706 0.0998178 0.264486
0.00691814 0.135134 0.35807
0.014877 0.0884814 0.234451
0.0138103 -0.0118143 -0.0313096
0.00424473 -0.101779 -0.270314
-0.0082432 0.150712 -0.485657
-0.0203014 0.108013 -0.348071
-0.0198082 -0.004529 0.0145947
-0.0072974 -0.114367 0.368545
0.0096399 -0.154831 0.498941
0.0207298 -0.101377 0.326688
0.0192436 0.0135384 -0.0436271
0.00591466 0.116887 -0.376659
-0.00557035 0.341237 -0.328183
-0.0137185 0.244565 -0.235211
-0.0133853 -0.0102547 0.00986239
-0.00493124 -0.258951 0.249044
0.00651408 -0.35057 0.337157
0.0140081 -0.229539 0.220757
0.0130037 0.0306537 -0.0294811
0.00399684 0.264652 -0.254528
0.000481395 0.324771 0.0283619
0.00118558 0.232766 0.0203271
0.00115678 -0.00975985 -0.000852306
0.000426157 -0.246455 -0.0215225
-0.000562958 -0.333656 -0.0291376
-0.0012106 -0.218462 -0.0190782
-0.0011238 0.0291746 0.00254778
-0.000345411 0.251882 0.0219965
0.00624113 0.111304 0.367703
0.0153706 0.0797727 0.263532
0.0149973 -0.00334483 -0.01105
0.00552503 -0.0844639 -0.27903
-0.0072986 -0.114349 -0.377756
-0.0156951 -0.074871 -0.247343
-0.0145698 0.00999863 0.0330309
-0.00447814 0.0863237 0.285178
0.00821508 -0.169679 0.484
0.0202287 -0.121542 0.346826
0.0197373 0.00509625 -0.0145424
0.00727128 0.12869 -0.367223
-0.00960539 0.174222 -0.497155
-0.0206555 0.114074 -0.325517
-0.0191747 -0.015235 0.0434718
-0.00589449 -0.131597 0.375374
0.00520588 -0.347737 0.30671
0.0124598 -0.242271 0.213687
0.0121558 0.0101538 -0.00895579
0.00447823 0.256419 -0.226166
-0.00591576 0.347144 -0.306187
-0.0127213 0.227296 -0.200479
-0.0118103 -0.0304267 0.0268368
-0.00373532 -0.269693 0.237874
0 -0.21841 0
0 -0.165209 0
0 0.00692406 0
0 0.174857 0
0 0.236725 0
0 0.154998 0
0 -0.0207486 0
0 -0.169392 0
-0.0766968 -0.0859255 -0.327629
-0.188887 -0.0617249 -0.234814
-0.184301 0.00258822 0.00984573
-0.0678959 0.0653568 0.248623
0.0896921 0.0884814 0.336588
0.192872 0.0579341 0.220384
0.179047 -0.00773552 -0.0294313
0.0550315 -0.0666409 -0.254097
-0.10687 0.0986805 -0.456522
-0.263196 0.070723 -0.327193
-0.256807 -0.00296542 0.013719
-0.0946075 -0.0748826 0.346434
0.124978 -0.101377 0.469009
0.268751 -0.0663772 0.307089
0.249487 0.0088644 -0.04101
0.0766817 0.0765332 -0.354063
-0.0722178 0.223428 -0.308495
-0.177857 0.160133 -0.2211
-0.173537 -0.00671427 0.00927069
-0.0639319 -0.169549 0.234104
0.0844536 -0.229539 0.316933
0.181612 -0.150293 0.207513
0.16859 0.0200709 -0.0277124
0.0518177 0.173283 -0.239258
0.00624113 0.212647 0.0266605
0.0153706 0.152406 0.0191077
0.0149973 -0.0063903 -0.000801176
0.00552503 -0.161369 -0.0202315
-0.0072986 -0.218462 -0.0273894
-0.0156951 -0.14304 -0.0179336
-0.0145698 0.0191024 0.00239494
-0.00447814 0.164922 0.0206769
0.0809143 0.0728775 0.345644
0.199273 0.0522316 0.247724
0.194432 -0.00219006 -0.0103871
0.0716295 -0.0553036 -0.262292
-0.094623 -0.074871 -0.355097
-0.203479 -0.0490223 -0.232504
-0.18889 0.00654667 0.0310497
-0.0580576 0.0565213 0.26807
0.106506 -0.111099 0.454965
0.262254 -0.0795819 0.326021
0.255886 0.0033368 -0.0136699
0.0942687 0.0842607 -0.345194
-0.124531 0.114074 -0.46733
-0.267788 0.0746913 -0.305989
-0.248594 -0.0099753 0.0408639
-0.0764201 -0.0861645 0.352855
0.0674925 -0.227684 0.28831
0.161537 -0.158629 0.200868
0.157596 0.00664828 -0.00841852
0.0580588 0.167893 -0.212598
-0.076696 0.227296 -0.287818
-0.164928 0.148824 -0.188452
-0.153117 -0.0199222 0.0252269
-0.0484272 -0.176584 0.223603
0 0.0292372 0
0 0.0221155 0
0 -0.00092688 0
0 -0.0234071 0
0 -0.0316888 0
0 -0.0207486 0
0 0.00277748 0
0 0.0226754 0
-0.100955 0.0115023 -0.107984
-0.248589 0.00824195 -0.0774264
-0.24255 -0.000345574 0.00324652
-0.0893562 -0.00872643 0.0819811
0.11804 -0.011814 0.110986
0.253833 -0.00773535 0.0726696
0.235637 0.00103318 -0.00970412
0.0724369 0.0089208 -0.083749
-0.140671 -0.0132097 -0.150467
-0.346386 -0.00944502 -0.107887
-0.337971 0.000396002 0.00452373
-0.12451 0.00999996 0.114233
0.164478 0.013538 0.15465
0.353696 0.0088642 0.101259
0.328339 -0.00118413 -0.0135218
0.100935 -0.010245 -0.116697
-0.0950589 -0.0299089 -0.101678
-0.234071 -0.0213853 -0.0729048
-0.228385 0.000896634 0.00305693
-0.0841375 0.022642 0.0771931
0.111146 0.030653 0.104505
0.239011 0.0200704 0.0684257
0.221874 -0.00268108 -0.0091374
0.0682067 -0.0231963 -0.0788582
0.00821508 -0.0284658 0.00878713
0.0202287 -0.0203534 0.00630051
0.0197373 0.000853365 -0.000264181
0.00727128 0.0215494 -0.00667109
-0.00960539 0.029174 -0.00903142
-0.0206555 0.019102 -0.00591343
-0.0191747 -0.00255173 0.000789667
-0.00589449 -0.0220771 0.006815
0.106506 -0.00975566 0.113922
0.262254 -0.00697548 0.0816842
0.255886 0.000292464 -0.00342502
0.0942688 0.00738537 -0.0864888
-0.124531 0.0099984 -0.11709
-0.267788 0.00654652 -0.0766658
-0.248594 -0.000874519 0.0102377
-0.0764201 -0.00756615 0.0883543
0.140192 0.0148721 0.149954
0.345146 0.0106287 0.107501
0.336761 -0.000445631 -0.00450751
0.124065 -0.0112531 -0.113824
-0.163889 -0.0152346 -0.154096
-0.35243 -0.00997508 -0.100896
-0.327163 0.00133258 0.0134737
-0.10059 0.0115343 0.116299
0.0888391 0.0304787 0.0950253
0.212629 0.0212347 0.0662048
0.207441 -0.000889963 -0.0027747
0.0764217 -0.0224748 -0.0700711
-0.100953 -0.0304267 -0.0948633
-0.217092 -0.0199222 -0.0621127
-0.201545 0.00266686 0.00831464
-0.0637438 0.0236382 0.0736984
0 0.25915 0
0 0.180551 0
0 -0.00756705 0
0 -0.191095 0
0 -0.258708 0
0 -0.169392 0
0 0.0226754 0
0 0.200988 0
-0.0639746 0.101953 0.177161
-0.153118 0.0710313 0.12343
-0.149382 -0.00297698 -0.00517303
-0.0550327 -0.0751795 -0.130638
0.0726984 -0.101779 -0.176859
0.156332 -0.0666409 -0.1158
0.145136 0.0089208 0.0155015
0.0459031 0.0790712 0.1374
-0.0891431 -0.117087 0.246859
-0.213356 -0.0815753 0.171988
-0.20815 0.00341889 -0.00720817
-0.0766832 0.0863393 -0.182032
0.101299 0.116887 -0.246438
0.217835 0.0765332 -0.161358
0.202235 -0.010245 0.0216
0.063962 -0.0908087 0.191455
-0.0602386 -0.265104 0.166815
-0.144176 -0.184699 0.116221
-0.140658 0.00774091 -0.00487093
-0.0518188 0.195486 -0.123009
0.0684529 0.264652 -0.166531
0.147202 0.173283 -0.109038
0.13666 -0.0231963 0.0145962
0.0432224 -0.205605 0.129376
0.00520588 -0.252312 -0.0144163
0.0124598 -0.175787 -0.010044
0.0121558 0.00736739 0.000420951
0.00447823 0.186053 0.0106305
-0.00591576 0.251882 0.0143918
-0.0127213 0.164922 0.00942315
-0.0118103 -0.0220771 -0.00126142
-0.00373532 -0.195684 -0.0111808
0.0674925 -0.0864711 -0.186903
0.161537 -0.060245 -0.130217
0.157596 0.00252492 0.00545749
0.0580588 0.0637633 0.137821
-0.076696 0.0863237 0.186585
-0.164928 0.0565213 0.122168
-0.153117 -0.00756615 -0.0163539
-0.0484272 -0.0670641 -0.144956
0.0888391 0.131822 -0.246017
0.212629 0.0918412 -0.171402
0.20744 -0.00384914 0.00718359
0.0764217 -0.0972046 0.181412
-0.100953 -0.131597 0.245598
-0.217092 -0.0861645 0.160808
-0.201545 0.0115343 -0.0215263
-0.0637438 0.102237 -0.190803
0.0562971 0.270153 -0.1559
0.134742 0.188218 -0.108617
0.131454 -0.00788836 0.00455222
0.0484282 -0.19921 0.11496
-0.0639739 -0.269693 0.155635
-0.13757 -0.176584 0.101903
-0.127718 0.0236382 -0.0136412
-0.0403943 0.209522 -0.120911
