# vtk DataFile Version 3.0
Velocity field
ASCII
DATASET STRUCTURED_POINTS
DIMENSIONS 8 8 8
SPACING 0.8 0.8 0.8
ORIGIN 0 0 0
POINT_DATA 512
VECTORS velocity float
0 0.134225 0
0 0.0935157 0
0 -0.00391932 0
0 -0.098977 0
0 -0.133997 0
0 -0.0877356 0
0 0.0117446 0
0 0.104101 0
0 0.0528061 0.136997
0 0.0367903 0.101196
0 -0.00154191 -0.00424121
0 -0.0389389 -0.107106
0 -0.052716 -0.145002
0 -0.0345163 -0.0949413
0 0.00462049 0.0127092
0 0.0409546 0.10625
0 -0.0606447 0.190894
0 -0.0422516 0.141008
0 0.0017708 -0.00590976
0 0.044719 -0.149243
0 0.0605413 -0.202047
0 0.03964 -0.132292
0 -0.00530636 0.0177092
0 -0.047034 0.148051
0 -0.137309 0.128997
0 -0.0956643 0.0952864
0 0.00400937 -0.00399353
0 0.101251 -0.100851
0 0.137075 -0.136534
0 0.0897513 -0.0893968
0 -0.0120144 0.011967
0 -0.106492 0.100045
0 -0.130684 -0.011148
0 -0.0910483 -0.00823475
0 0.00381591 0.000345125
0 0.0963654 0.00871564
0 0.130461 0.0117994
0 0.0854206 0.00772576
0 -0.0114347 -0.0010342
0 -0.101354 -0.00864602
0 -0.0447873 -0.14453
0 -0.0312036 -0.106761
0 0.00130777 0.00447443
0 0.0330259 0.112996
0 0.044711 0.152975
0 0.029275 0.100162
0 -0.00391885 -0.0134081
0 -0.0347355 -0.112093
0 0.0682765 -0.190243
0 0.0475687 -0.140527
0 -0.00199364 0.00588961
0 -0.0503467 0.148734
0 -0.0681601 0.201358
0 -0.0446285 0.131841
0 0.00597414 -0.0176488
0 0.052953 -0.147546
0 0.139925 -0.120556
0 0.0974865 -0.0839923
0 -0.00408574 0.00352018
0 -0.10318 0.0888973
0 -0.139686 0.120351
0 -0.0914609 0.0788008
0 0.0122433 -0.0105486
0 0.108521 -0.0934992
0 0.0935157 0
0 0.0707369 0
0 -0.00296464 0
0 -0.0748679 0
0 -0.101357 0
0 -0.0663647 0
0 0.00888382 0
0 0.0725276 0
0.0292033 0.0367903 0.135316
0.0707003 0.0259532 0.0953852
0.0689768 -0.00108779 -0.00399794
0.0254112 -0.0274707 -0.100962
-0.0335684 -0.0371902 -0.136684
-0.0721856 -0.0243506 -0.0894953
-0.0670154 0.00325833 0.0119755
-0.020954 0.0285333 0.104946
0.0406923 -0.0422516 0.188551
0.0985149 -0.0297727 0.132911
0.0961127 0.00124788 -0.00557079
0.0354082 0.0315132 -0.140682
-0.0467747 0.0426631 -0.190458
-0.100584 0.0279341 -0.124704
-0.0933804 -0.00373797 0.0166869
-0.0291975 -0.0327689 0.146234
0.0274979 -0.0956643 0.127413
0.0665717 -0.0674102 0.0898149
0.0649484 0.00282541 -0.00376447
0.0239271 0.0713513 -0.0950662
-0.0316079 0.0965963 -0.128702
-0.0679703 0.0632474 -0.0842689
-0.0631016 -0.00846337 0.0112762
-0.0197303 -0.0741939 0.0988175
-0.00237639 -0.0910483 -0.0110112
-0.0057532 -0.0641575 -0.00776189
-0.00561293 0.00268907 0.000325329
-0.00206781 0.0679085 0.00821571
0.00273159 0.0919357 0.0111225
0.00587407 0.0601959 0.0072826
0.00545331 -0.00805499 -0.000974497
0.00170511 -0.0706139 -0.00853991
-0.0308092 -0.0312036 -0.142757
-0.0745884 -0.0219878 -0.10063
-0.0727695 0.000921589 0.00421779
-0.0268086 0.0232733 0.106514
0.0354141 0.0315077 0.1442
0.0761554 0.02063 0.0944166
0.0707002 -0.00276057 -0.012634
0.0221062 -0.0242005 -0.110717
-0.0405535 0.0475687 -0.187908
-0.0981762 0.0335165 -0.132454
-0.0957822 -0.0014048 0.00555164
-0.0352865 -0.0354761 0.140198
0.0466139 -0.048028 0.189803
0.100239 -0.0314468 0.124275
0.0930594 0.00420802 -0.0166295
0.029098 0.0368927 -0.145735
-0.0256987 0.0974865 -0.119077
-0.0615075 0.0679195 -0.0829615
-0.0600067 -0.00284656 0.00347698
-0.0221067 -0.0718859 0.0878064
0.029203 -0.0973203 0.118874
0.0627985 -0.0637214 0.0778337
0.0583013 0.00852999 -0.0104191
0.0184393 0.0756072 -0.0923518
0 -0.00391932 0
0 -0.00296464 0
0 0.000124251 0
0 0.00313777 0
0 0.00424796 0
0 0.0027814 0
0 -0.000372328 0
0 -0.00303969 0
0.0406923 -0.00154191 0.0515538
0.0985149 -0.00108779 0.03633
0.0961127 4.55937e-05 -0.00152272
0.0354082 0.0011514 -0.0384542
-0.0467747 0.00155878 -0.0520597
-0.100584 0.00102063 -0.0340867
-0.0933804 -0.000136569 0.00456122
-0.0291975 -0.00119585 0.0399834
0.0567012 0.0017708 0.0718357
0.137272 0.00124788 0.0506226
0.133925 -5.23032e-05 -0.00212178
0.0493384 -0.00132083 -0.0535825
-0.0651762 -0.00178816 -0.0725405
-0.140155 -0.00117083 -0.0474969
-0.130117 0.000156671 0.00635567
-0.0406843 0.00137337 0.0557133
0.0383159 0.00400937 0.0485431
0.092762 0.00282541 0.0342083
0.0905004 -0.000118423 -0.0014338
0.0333405 -0.00299059 -0.0362083
-0.044043 -0.0040487 -0.0490193
-0.0947109 -0.00265093 -0.0320959
-0.0879268 0.00035473 0.00429486
-0.0274924 0.00310953 0.0376484
-0.0033113 0.00381591 -0.00419514
-0.00801656 0.00268907 -0.00295632
-0.00782108 -0.000112709 0.00012391
-0.00288132 -0.0028463 0.00312915
0.00380625 -0.00385337 0.00423631
0.00818498 -0.00252302 0.00277377
0.00759874 0.000337613 -0.000371167
0.00237592 0.00295949 -0.00325361
-0.0429299 0.00130777 -0.0543887
-0.103932 0.000921589 -0.0383278
-0.101398 -3.86271e-05 0.00160645
-0.0373555 -0.00097547 0.0405684
0.0493466 -0.0013206 0.0549226
0.106116 -0.000864676 0.0359609
0.0985149 0.000115705 -0.00481205
0.0308031 0.00101426 -0.042182
-0.0565078 -0.00199364 -0.0715908
-0.1368 -0.0014048 -0.0504487
-0.133465 5.88802e-05 0.00211449
-0.0491687 0.00148693 0.0533983
0.0649522 0.00201303 0.0722911
0.139674 0.00131805 0.0473335
0.12967 -0.000176373 -0.00633383
0.0405455 -0.0015462 -0.0555233
-0.0358088 -0.00408574 -0.0453669
-0.0857054 -0.00284656 -0.0316074
-0.0836142 0.000119302 0.00132469
-0.0308037 0.0030128 0.0334532
0.0406918 0.00407877 0.0452895
0.0875043 0.00267062 0.0296538
0.0812378 -0.000357499 -0.00396956
0.0256936 -0.00316876 -0.035185
0 -0.098977 0
0 -0.0748679 0
0 0.00313777 0
0 0.0792401 0
0 0.107276 0
0 0.0702403 0
0 -0.00940263 0
0 -0.0767631 0
0.0274979 -0.0389389 -0.0634801
0.0665717 -0.0274707 -0.0447344
0.0649484 0.0011514 0.00187498
0.0239271 0.0290768 0.0473499
-0.0316079 0.0393647 0.0641027
-0.0679703 0.0257745 0.0419719
-0.0631016 -0.00344883 -0.00561639
-0.0197303 -0.0301996 -0.049233
0.0383159 0.044719 -0.088454
0.092762 0.0315132 -0.0623335
0.0905004 -0.00132083 0.00261262
0.0333405 -0.0333558 0.0659778
-0.044043 -0.0451577 0.0893218
-0.0947109 -0.0295674 0.0584842
-0.0879268 0.00395649 -0.00782593
-0.0274924 0.0346825 -0.0686019
0.025892 0.101251 -0.0597729
0.0626837 0.0713513 -0.0421218
0.0611557 -0.00299059 0.00176548
0.02253 -0.0755232 0.0445846
-0.0297622 -0.102244 0.0603594
-0.0640007 -0.0669454 0.0395209
-0.0594168 0.00895816 -0.00528839
-0.018578 0.0785268 -0.0463578
-0.00223761 0.0963654 0.00516563
-0.0054172 0.0679085 0.00364021
-0.00528511 -0.0028463 -0.000152575
-0.00194706 -0.0718787 -0.00385305
0.00257207 -0.0973105 -0.0052163
0.00553101 -0.063715 -0.00341544
0.00513484 0.00852592 0.000457028
0.00160553 0.0747377 0.00400629
-0.0290099 0.0330259 0.0669708
-0.0702321 0.0232733 0.0471942
-0.06852 -0.00097547 -0.00197807
-0.0252429 -0.0246339 -0.0499532
0.033346 -0.0333499 -0.0676278
0.0717077 -0.0218361 -0.04428
0.0665716 0.00292197 0.00592524
0.0208152 0.0256137 0.0519402
-0.0381852 -0.0503467 0.0881523
-0.0924431 -0.0354761 0.0621191
-0.0901893 0.00148693 -0.00260363
-0.0332259 0.0375502 -0.0657509
0.0438915 0.050836 -0.0890148
0.094385 0.0332854 -0.0582832
0.0876245 -0.00445404 0.00779905
0.0273987 -0.0390472 0.0683679
-0.0241979 -0.10318 0.0558619
-0.0579155 -0.0718859 0.0389193
-0.0565024 0.0030128 -0.00163114
-0.0208157 0.076084 -0.0411922
0.0274976 0.103004 -0.0557666
0.0591311 0.0674427 -0.0365138
0.0548965 -0.00902813 0.00488787
0.0173625 -0.0800226 0.0433246
0 -0.133997 0
0 -0.101357 0
0 0.00424796 0
0 0.107276 0
0 0.145232 0
0 0.0950924 0
0 -0.0127294 0
0 -0.103923 0
-0.00237639 -0.052716 -0.140008
-0.0057532 -0.0371902 -0.0986631
-0.00561293 0.00155878 0.00413533
-0.00206781 0.0393647 0.104432
0.00273159 0.0532927 0.141381
0.00587407 0.0348938 0.0925708
0.00545331 -0.00466908 -0.0123872
0.00170511 -0.0408847 -0.108585
-0.0033113 0.0605413 -0.195089
-0.00801656 0.0426631 -0.137479
-0.00782108 -0.00178816 0.00576223
-0.00288132 -0.0451577 0.145516
0.00380625 -0.0611351 0.197002
0.00818498 -0.0400288 0.128989
0.00759875 0.00535635 -0.0172605
0.00237592 0.0469537 -0.151304
-0.00223761 0.137075 -0.131831
-0.0054172 0.0965963 -0.0929014
-0.00528511 -0.0040487 0.00389385
-0.00194706 -0.102244 0.0983327
0.00257207 -0.13842 0.133124
0.00553101 -0.090632 0.0871645
0.00513484 0.0121277 -0.0116638
0.00160553 0.106311 -0.102244
0.000193377 0.130461 0.011393
0.000468162 0.0919357 0.00802862
0.000456745 -0.00385337 -0.000336508
0.000168266 -0.0973105 -0.00849804
-0.00022228 -0.131741 -0.0115048
-0.000477997 -0.0862584 -0.00753288
-0.000443758 0.0115425 0.00100799
-0.000138752 0.101181 0.00883602
0.00250707 0.044711 0.147707
0.00606954 0.0315077 0.104089
0.00592158 -0.0013206 -0.00436272
0.00218152 -0.0333499 -0.110174
-0.0028818 -0.0451497 -0.149156
-0.00619705 -0.0295621 -0.0976609
-0.00575319 0.00395579 0.0130683
-0.00179887 0.0346763 0.114556
0.00330001 -0.0681601 0.194423
0.007989 -0.048028 0.137006
0.00779422 0.00201303 -0.00574244
0.00287142 0.050836 -0.145016
-0.00379316 0.0688226 -0.196325
-0.00815684 0.0450623 -0.128546
-0.00757262 -0.00602993 0.0172011
-0.00236782 -0.0528626 0.150788
0.0020912 -0.139686 0.123206
0.00500512 -0.0973203 0.0858381
0.00488299 0.00407877 -0.00359755
0.00179891 0.103004 -0.090851
-0.00237637 0.139448 -0.122995
-0.00511017 0.091305 -0.0805325
-0.00474421 -0.0122224 0.0107804
-0.00150048 -0.108336 0.095554
0 -0.0877356 0
0 -0.0663647 0
0 0.0027814 0
0 0.0702403 0
0 0.0950924 0
0 0.0622627 0
0 -0.00833472 0
0 -0.0680447 0
-0.0308092 -0.0345163 -0.131609
-0.0745884 -0.0243506 -0.0927443
-0.0727695 0.00102063 0.00388727
-0.0268086 0.0257745 0.0981665
0.0354141 0.0348938 0.1329
0.0761554 0.0228471 0.0870172
0.0707002 -0.00305713 -0.0116441
0.0221062 -0.0267697 -0.102071
-0.0429299 0.03964 -0.183385
-0.103932 0.0279341 -0.129231
-0.101398 -0.00117083 0.00541654
-0.0373555 -0.0295674 0.136787
0.0493466 -0.0400288 0.185184
0.106116 -0.0262093 0.121252
0.0985149 0.00350713 -0.016225
0.0308031 0.0307434 -0.142227
-0.0290099 0.0897513 -0.123923
-0.0702321 0.0632474 -0.0873282
-0.06852 -0.00265093 0.00366024
-0.0252429 -0.0669454 0.092434
0.033346 -0.090632 0.125138
0.0717077 -0.0593421 0.0819355
0.0665716 0.00794072 -0.010964
0.0208152 0.069608 -0.0961103
0.00250707 0.0854206 0.0107095
0.00606954 0.0601959 0.007547
0.00592158 -0.00252302 -0.000316321
0.00218152 -0.063715 -0.00798821
-0.0028818 -0.0862584 -0.0108146
-0.00619705 -0.0564785 -0.00708095
-0.0057532 0.00755759 0.000947526
-0.00179887 0.0662493 0.00830595
0.0325033 0.029275 0.138846
0.0786898 0.02063 0.0978441
0.0767714 -0.000864676 -0.00410101
0.0282826 -0.0218361 -0.103565
-0.0373617 -0.0295621 -0.140207
-0.0803431 -0.0193561 -0.0918027
-0.0745883 0.0025901 0.0122843
-0.0233218 0.0227046 0.107684
0.0427835 -0.0446285 0.18276
0.103575 -0.0314468 0.128787
0.101049 0.00131805 -0.00539792
0.037227 0.0332854 -0.136317
-0.0491769 0.0450623 -0.184548
-0.105751 0.029505 -0.120835
-0.0981761 -0.00394816 0.0161692
-0.030698 -0.0346123 0.141742
0.0271118 -0.0914609 0.115814
0.0648897 -0.0637214 0.0806886
0.0633064 0.00267062 -0.00338173
0.0233223 0.0674427 -0.0854008
-0.0308088 0.091305 -0.115617
-0.0662517 0.0597828 -0.0757013
-0.0615072 -0.00800276 0.0101337
-0.0194533 -0.070934 0.0898217
0 0.0117446 0
0 0.00888382 0
0 -0.000372328 0
0 -0.00940263 0
0 -0.0127294 0
0 -0.00833472 0
0 0.00111572 0
0 0.00910871 0
-0.0405535 0.00462049 -0.0433774
-0.0981762 0.0032583 -0.0305702
-0.0957822 -0.000136567 0.00128131
-0.0352865 -0.0034488 0.0323575
0.0466139 -0.00466904 0.043806
0.100239 -0.0030571 0.0286824
0.0930594 0.000409074 -0.00383808
0.029098 0.00358349 -0.0336421
-0.0565078 -0.00530636 -0.0604427
-0.1368 -0.00373793 -0.0425969
-0.133465 0.00015667 0.00178539
-0.0491687 0.00395645 0.0450874
0.0649522 0.0053563 0.0610401
0.139674 0.00350709 0.0399666
0.12967 -0.000469305 -0.00534801
0.0405455 -0.00411543 -0.0468773
-0.0381852 -0.0120144 -0.0408442
-0.0924431 -0.00846329 -0.0287849
-0.0901893 0.000354727 0.00120648
-0.0332259 0.00895807 0.0304679
0.0438915 0.0121276 0.0412478
0.094385 0.00794064 0.0270075
0.0876245 -0.00106258 -0.00361393
0.0273987 -0.00931799 -0.0316774
0.00330001 -0.0114347 0.0035298
0.007989 -0.00805492 0.00248762
0.00779422 0.00033761 -0.000104266
0.00287142 0.00852584 -0.00263307
-0.00379316 0.0115424 -0.00356468
-0.00815684 0.00755752 -0.00233401
-0.00757262 -0.00101131 0.00031232
-0.00236782 -0.00886838 0.00273759
0.0427835 -0.00391885 0.0457627
0.103575 -0.00276055 0.0322512
0.101049 0.000115704 -0.00135176
0.037227 0.00292194 -0.0341368
-0.0491769 0.00395575 -0.0462149
-0.105751 0.00259007 -0.0302597
-0.0981761 -0.000346592 0.00404912
-0.030698 -0.00303933 0.035492
0.0563151 0.00597414 0.0602366
0.13633 0.00420798 0.0424505
0.133006 -0.000176371 -0.00177925
0.0489997 -0.00445399 -0.0449324
-0.0647288 -0.00602987 -0.0608302
-0.139194 -0.00394812 -0.0398292
-0.129224 0.000528322 0.00532964
-0.0404072 0.00463334 0.0467174
0.0356867 0.0122433 0.0381717
0.0854131 0.00852999 0.0265945
0.083329 -0.000357499 -0.0011146
0.0306987 -0.00902813 -0.0281476
-0.0405531 -0.0122224 -0.0381067
-0.0872058 -0.00800276 -0.0249507
-0.0809607 0.00107128 0.00334
-0.0256059 0.00949549 0.0296047
0 0.104101 0
0 0.0725276 0
0 -0.00303969 0
0 -0.0767631 0
0 -0.103923 0
0 -0.0680447 0
0 0.00910871 0
0 0.0807369 0
-0.0256987 0.0409546 0.0711659
-0.0615075 0.0285333 0.0495817
-0.0600067 -0.00119585 -0.00207801
-0.0221067 -0.0301996 -0.0524773
0.029203 -0.0408847 -0.0710445
0.0627985 -0.0267697 -0.0465171
0.0583013 0.00358349 0.00622696
0.0184393 0.031763 0.0551938
-0.0358088 -0.047034 0.0991635
-0.0857053 -0.0327689 0.0690879
-0.0836141 0.00137337 -0.00289553
-0.0308037 0.0346825 -0.0731225
0.0406918 0.0469537 -0.0989944
0.0875042 0.0307434 -0.0648176
0.0812377 -0.00411543 0.00867672
0.0256936 -0.0364779 0.0769078
-0.0241979 -0.106492 0.0670098
-0.0579155 -0.0741939 0.0466862
-0.0565024 0.00310953 -0.00195666
-0.0208156 0.0785268 -0.0494126
0.0274976 0.106311 -0.0668956
0.0591311 0.069608 -0.0438006
0.0548965 -0.00931799 0.00586331
0.0173625 -0.0825918 0.0519705
0.0020912 -0.101354 -0.00579106
0.00500511 -0.0706139 -0.00403467
0.00488299 0.00295949 0.000169096
0.00179891 0.0747377 0.00427029
-0.00237637 0.101181 0.00578118
-0.00511017 0.0662493 0.00378529
-0.00474421 -0.00886838 -0.000506713
-0.00150048 -0.0786066 -0.00449135
0.0271118 -0.0347355 -0.0750792
0.0648897 -0.0242005 -0.0523082
0.0633064 0.00101426 0.00219228
0.0233223 0.0256137 0.0553629
-0.0308088 0.0346763 0.0749512
-0.0662517 0.0227046 0.049075
-0.0615072 -0.00303933 -0.00656937
-0.0194533 -0.0269397 -0.0582289
0.0356867 0.052953 -0.0988253
0.085413 0.0368927 -0.0688522
0.083329 -0.0015462 0.00288565
0.0306986 -0.0390472 0.0728731
-0.040553 -0.0528626 0.0986568
-0.0872058 -0.0346124 0.0645965
-0.0809607 0.00463334 -0.00864713
-0.0256059 0.0410685 -0.0766455
0.0226146 0.108521 -0.0626253
0.054126 0.0756072 -0.0436315
0.0528054 -0.00316876 0.00182863
0.0194537 -0.0800226 0.0461795
-0.0256984 -0.108336 0.0625185
-0.0552621 -0.070934 0.0409346
-0.0513046 0.00949549 -0.00547966
-0.0162264 0.0841651 -0.0485701
