# vtk DataFile Version 3.0
Velocity field
ASCII
DATASET STRUCTURED_POINTS
DIMENSIONS 10 10 10
SPACING 0.631579 0.631579 0.631579
ORIGIN 0 0 0
POINT_DATA 1000
VECTORS velocity float
0 0.619152 0
0 0.499715 0
0 0.187485 0
0 -0.197079 0
0 -0.505608 0
0 -0.61907 0
0 -0.49369 0
0 -0.177841 0
0 0.206621 0
0 0.511366 0
0 0.380279 0.484996
0 0.306921 0.406787
0 0.115152 0.15262
0 -0.121044 -0.16043
0 -0.310541 -0.411584
0 -0.380228 -0.503946
0 -0.303221 -0.401882
0 -0.109228 -0.144769
0 0.126905 0.168197
0 0.314077 0.400565
0 -0.00530917 0.782878
0 -0.00428501 0.656633
0 -0.00160766 0.246358
0 0.00168993 -0.258964
0 0.00433554 -0.664376
0 0.00530846 -0.813466
0 0.00423334 -0.648715
0 0.00152497 -0.233685
0 -0.00177175 0.271502
0 -0.00438492 0.646589
0 -0.388849 0.778719
0 -0.313838 0.653145
0 -0.117747 0.245049
0 0.123772 -0.257589
0 0.317539 -0.660846
0 0.388797 -0.809145
0 0.310054 -0.645269
0 0.11169 -0.232444
0 -0.129765 0.27006
0 -0.321155 0.643155
0 -0.622367 0.474124
0 -0.50231 0.397668
0 -0.188458 0.149198
0 0.198102 -0.156833
0 0.508234 -0.402358
0 0.622285 -0.492649
0 0.496254 -0.392873
0 0.178764 -0.141524
0 -0.207694 0.164427
0 -0.514022 0.391586
0 -0.615772 -0.0133905
0 -0.496987 -0.0112312
0 -0.186461 -0.00421376
0 0.196003 0.00442939
0 0.502848 0.0113636
0 0.61569 0.0139137
0 0.490995 0.0110958
0 0.17687 0.00399701
0 -0.205493 -0.00464385
0 -0.508575 -0.0110594
0 -0.371608 -0.495739
0 -0.299923 -0.415798
0 -0.112526 -0.156
0 0.118284 0.163983
0 0.30346 0.420701
0 0.371558 0.515109
0 0.296307 0.410784
0 0.106738 0.147976
0 -0.124011 -0.171923
0 -0.306916 -0.409438
0 0.0159263 -0.786828
0 0.012854 -0.659947
0 0.00482261 -0.247601
0 -0.0050694 0.260271
0 -0.0130056 0.667729
0 -0.0159241 0.817571
0 -0.012699 0.651989
0 -0.00457454 0.234864
0 0.00531484 -0.272873
0 0.0131537 -0.649852
0 0.397315 -0.774353
0 0.320672 -0.649483
0 0.120311 -0.243675
0 -0.126467 0.256145
0 -0.324453 0.657141
0 -0.397262 0.804609
0 -0.316805 0.641651
0 -0.114122 0.231141
0 0.13259 -0.268546
0 0.328148 -0.639549
0 0.625417 -0.463127
0 0.504772 -0.373788
0 0.189382 -0.140239
0 -0.199073 0.147415
0 -0.510724 0.378195
0 -0.625334 0.463065
0 -0.498686 0.369281
0 -0.17964 0.133025
0 0.208712 -0.154553
0 0.516541 -0.382503
0 0.499715 0
0 0.424299 0
0 0.15919 0
0 -0.167336 0
0 -0.429302 0
0 -0.525641 0
0 -0.419183 0
0 -0.151001 0
0 0.175438 0
0 0.412722 0
0.0705178 0.306921 0.536755
0.194389 0.260674 0.456268
0.239557 0.0979632 0.171482
0.192195 -0.102987 -0.180277
0.0706797 -0.264214 -0.462502
-0.0781043 -0.323505 -0.566289
-0.196755 -0.257986 -0.451599
-0.239494 -0.0929415 -0.162693
-0.189737 0.107598 0.188317
-0.0634445 0.253491 0.443313
0.113829 -0.00428501 0.866425
0.313781 -0.00362442 0.736504
0.386692 -0.00136193 0.276805
0.31024 0.00143177 -0.291001
0.114091 0.00367323 -0.746565
-0.126075 0.00449748 -0.914101
-0.3176 0.00358663 -0.728968
-0.386589 0.00129211 -0.262619
-0.306273 -0.00149619 0.30398
-0.102412 -0.00353905 0.715593
0.113225 -0.313838 0.861823
0.312115 -0.266278 0.732591
0.384637 -0.10007 0.275334
0.308592 0.105202 -0.289455
0.113485 0.269897 -0.742599
-0.125406 0.330461 -0.909244
-0.315913 0.263534 -0.725095
-0.384536 0.0949406 -0.261224
-0.304646 -0.109909 0.302365
-0.101868 -0.259203 0.711791
0.0689371 -0.50231 0.524723
0.190031 -0.42619 0.44604
0.234187 -0.160166 0.167638
0.187887 0.16838 -0.176236
0.0690952 0.431978 -0.452133
-0.0763536 0.528919 -0.553595
-0.192344 0.421798 -0.441476
-0.234125 0.151957 -0.159046
-0.185484 -0.175915 0.184095
-0.0620223 -0.414865 0.433376
-0.00194697 -0.496987 -0.0148196
-0.00536699 -0.421674 -0.0125974
-0.00661408 -0.158469 -0.00473455
-0.0053064 0.166595 0.00497736
-0.00195145 0.427402 0.0127695
0.0021564 0.523313 0.015635
0.00543231 0.417328 0.0124685
0.00661233 0.150346 0.00449188
0.00523857 -0.174051 -0.00519932
0.00175168 -0.410469 -0.0122397
-0.0720798 -0.299923 -0.548644
-0.198695 -0.254472 -0.466374
-0.244863 -0.0956332 -0.17528
-0.196452 0.100537 0.18427
-0.0722453 0.257929 0.472746
0.079834 0.315811 0.578832
0.201113 0.25185 0.461603
0.244799 0.090731 0.166297
0.19394 -0.105037 -0.192488
0.0648498 -0.247711 -0.453133
-0.114404 0.012854 -0.870798
-0.315359 0.0108936 -0.740206
-0.388636 0.00409364 -0.278196
-0.3118 -0.00430354 0.292464
-0.114665 -0.0110408 0.750319
0.126709 -0.0135184 0.918697
0.319196 -0.0107805 0.732633
0.388533 -0.00388377 0.263939
0.307813 0.00449679 -0.305509
0.102928 0.0106163 -0.719204
-0.11259 0.320672 -0.856991
-0.31009 0.271496 -0.727875
-0.382137 0.10202 -0.273551
-0.306586 -0.107251 0.287578
-0.112747 -0.275152 0.737784
0.12459 -0.336898 0.903349
0.31386 -0.268667 0.720394
0.382036 -0.096789 0.259529
0.302669 0.112076 -0.30043
0.101297 0.264847 -0.707801
-0.067338 0.504772 -0.512551
-0.176034 0.4074 -0.413678
-0.216816 0.152849 -0.155205
-0.173948 -0.160671 0.163147
-0.0639693 -0.412204 0.418556
0.0706887 -0.504705 0.512483
0.178075 -0.402487 0.40869
0.216758 -0.144987 0.147221
0.171814 0.16845 -0.171046
0.0605836 0.416898 -0.423323
0 0.187485 0
0 0.15919 0
0 0.0597253 0
0 -0.0627817 0
0 -0.161067 0
0 -0.197212 0
0 -0.15727 0
0 -0.0566531 0
0 0.0658213 0
0 0.154846 0
0.113829 0.115152 0.381429
0.313781 0.0979632 0.324205
0.386692 0.0368184 0.12185
0.31024 -0.0387066 -0.1281
0.114091 -0.0993019 -0.328641
-0.126075 -0.121586 -0.402391
-0.3176 -0.0969612 -0.320895
-0.386589 -0.0349313 -0.115606
-0.306273 0.0404324 0.133807
-0.102412 0.0951054 0.315028
0.183742 -0.00160766 0.6157
0.506503 -0.00136193 0.52333
0.624196 -0.000511808 0.19669
0.500788 0.00053805 -0.206778
0.184165 0.00138038 -0.530492
-0.203509 0.00169016 -0.649536
-0.512667 0.00134785 -0.517986
-0.624031 0.000485572 -0.18661
-0.494383 -0.000562177 0.21599
-0.165312 -0.00132779 0.508515
0.182766 -0.117747 0.612429
0.503813 -0.10007 0.520549
0.620881 -0.0376104 0.195645
0.498127 0.0395393 -0.20568
0.183186 0.101438 -0.527673
-0.202428 0.124202 -0.646085
-0.509944 0.0990475 -0.515235
-0.620716 0.0356829 -0.185619
-0.491756 -0.0413014 0.214843
-0.164434 -0.0972487 0.505814
0.111278 -0.188458 0.372879
0.306747 -0.160166 0.316938
0.378024 -0.0601969 0.119119
0.303286 0.0632844 -0.125229
0.111533 0.162356 -0.321274
-0.123249 0.19879 -0.393371
-0.310481 0.158529 -0.313702
-0.377924 0.0571121 -0.113015
-0.299407 -0.0661047 0.130808
-0.100116 -0.15565 0.307966
-0.00314278 -0.186461 -0.0105311
-0.00866333 -0.158469 -0.00895117
-0.0106764 -0.059559 -0.00336425
-0.00856554 0.0626139 0.00353678
-0.00315 0.160636 0.00907369
0.00348087 0.196684 0.0111099
0.00876876 0.15685 0.00885973
0.0106735 0.0565068 0.00319183
0.00845609 -0.0654042 -0.00369436
0.00282754 -0.154001 -0.00869777
-0.116351 -0.112526 -0.389878
-0.320731 -0.0956332 -0.331386
-0.395257 -0.0359428 -0.12455
-0.317111 0.0377864 0.130938
-0.116618 0.096941 0.335921
0.128868 0.118695 0.411304
0.324635 0.0946561 0.328002
0.395153 0.0341009 0.118167
0.313057 -0.0394703 -0.136771
0.10468 -0.0929368 -0.322006
-0.18467 0.00482261 -0.618807
-0.509049 0.00409364 -0.525962
-0.627334 0.00153844 -0.197679
-0.503305 -0.00161734 0.207818
-0.18509 -0.00414928 0.533159
0.204532 -0.00508042 0.652801
0.515244 -0.00405148 0.52059
0.627167 -0.00145959 0.187549
0.496869 0.00168968 -0.217077
0.166146 0.00398306 -0.511081
-0.181742 0.120311 -0.608996
-0.500544 0.10202 -0.517193
-0.616844 0.0383388 -0.194376
-0.494888 -0.0403049 0.204344
-0.181995 -0.103402 0.524247
0.201112 -0.126607 0.641889
0.506629 -0.100965 0.511889
0.616681 -0.0363736 0.184413
0.488565 0.0421113 -0.213467
0.163512 0.0993661 -0.502978
-0.108696 0.189382 -0.364229
-0.284153 0.152849 -0.293968
-0.349982 0.0573465 -0.110292
-0.280785 -0.0602811 0.115936
-0.103259 -0.154652 0.297435
0.114105 -0.189357 0.364181
0.287447 -0.151006 0.290424
0.349889 -0.0543967 0.104619
0.277342 0.0631997 -0.121549
0.0977936 0.156413 -0.300822
0 -0.197079 0
0 -0.167336 0
0 -0.0627817 0
0 0.0659944 0
0 0.169309 0
0 0.207303 0
0 0.165318 0
0 0.0595522 0
0 -0.0691896 0
0 -0.16277 0
0.113225 -0.121044 0.0789452
0.312115 -0.102987 0.0671008
0.384637 -0.0387066 0.0252193
0.308592 0.0406918 -0.0265128
0.113485 0.104395 -0.0680189
-0.125406 0.127822 -0.0832825
-0.315913 0.101934 -0.0664154
-0.384536 0.0367229 -0.0239269
-0.304646 -0.0425056 0.027694
-0.101868 -0.0999722 0.0652019
0.182766 0.00168993 0.127433
0.503813 0.00143177 0.108313
0.620881 0.00053805 0.0407087
0.498127 -0.000565646 -0.0427968
0.183186 -0.00145116 -0.109795
-0.202428 -0.00177683 -0.134435
-0.509944 -0.00141697 -0.107207
-0.620716 -0.00051047 -0.0386227
-0.491756 0.000590999 0.0447034
-0.164434 0.00139574 0.105248
0.181795 0.123772 0.126756
0.501137 0.105202 0.107738
0.617582 0.0395393 0.0404925
0.495481 -0.0415673 -0.0425694
0.182213 -0.106641 -0.109212
-0.201353 -0.130572 -0.13372
-0.507236 -0.104128 -0.106638
-0.617419 -0.0375131 -0.0384175
-0.489144 0.0434193 0.0444659
-0.16356 0.102225 0.104689
0.110687 0.198102 0.0771755
0.305118 0.16838 0.0655963
0.376016 0.0632844 0.024654
0.301675 -0.0665303 -0.0259185
0.110941 -0.170684 -0.066494
-0.122594 -0.208987 -0.0814155
-0.308832 -0.16666 -0.0649266
-0.375916 -0.0600413 -0.0233905
-0.297816 0.0694941 0.0270731
-0.0995841 0.163615 0.0637403
-0.00312608 0.196003 -0.00217964
-0.0086173 0.166595 -0.00185261
-0.0106196 0.0626139 -0.000696294
-0.0085201 -0.0658252 0.000732006
-0.00313327 -0.168875 0.00187797
0.00346238 -0.206772 0.0022994
0.00872218 -0.164894 0.0018337
0.0106168 -0.059405 0.000660609
0.00841116 0.0687578 -0.000764619
0.00281252 0.161882 -0.0018002
-0.115733 0.118284 -0.0806939
-0.319027 0.100537 -0.0685868
-0.393157 0.0377864 -0.0257779
-0.315427 -0.0397243 0.0271
-0.115999 -0.101913 0.0695251
0.128183 -0.124783 0.0851274
0.32291 -0.099511 0.0678867
0.393053 -0.0358498 0.0244569
0.311394 0.0414941 -0.0283074
0.104124 0.0976927 -0.0666462
-0.183689 -0.0050694 -0.128076
-0.506345 -0.00430354 -0.108858
-0.624002 -0.00161734 -0.0409133
-0.500632 0.00170028 0.043012
-0.184107 0.00436207 0.110347
0.203446 0.00534095 0.13511
0.512507 0.00425926 0.107746
0.623836 0.00153444 0.0388169
0.494229 -0.00177632 -0.0449281
0.165264 -0.00418688 -0.10578
-0.180776 -0.126467 -0.126045
-0.497885 -0.107251 -0.107043
-0.613567 -0.0403049 -0.0402296
-0.492258 0.0423717 0.0422929
-0.181028 0.108705 0.108503
0.200044 0.133099 0.132852
0.503938 0.106143 0.105945
0.613405 0.0382388 0.0381679
0.48597 -0.0442702 -0.0441814
0.162643 -0.104451 -0.104102
-0.108119 -0.199073 -0.0753853
-0.282644 -0.160671 -0.0608432
-0.348123 -0.0602811 -0.0228273
-0.279293 0.0633659 0.0239955
-0.10271 0.162566 0.0615607
0.113499 0.199047 0.0753753
0.28592 0.158734 0.0601096
0.34803 0.0571803 0.0216531
0.275868 -0.0664338 -0.0251573
0.0972741 -0.164417 -0.0622618
0 -0.505608 0
0 -0.429302 0
0 -0.161067 0
0 0.169309 0
0 0.434365 0
0 0.531839 0
0 0.424126 0
0 0.152782 0
0 -0.177507 0
0 -0.417588 0
0.0689371 -0.310541 -0.253996
0.190031 -0.264214 -0.215887
0.234187 -0.0993019 -0.0811396
0.187887 0.104395 0.0853014
0.0690952 0.267826 0.218841
-0.0763536 0.327928 0.267951
-0.192344 0.261513 0.213683
-0.234125 0.094213 0.0769817
-0.185484 -0.109048 -0.0891017
-0.0620223 -0.25648 -0.209779
0.111278 0.00433554 -0.409999
0.306747 0.00367323 -0.348484
0.378024 0.00138038 -0.130975
0.303286 -0.00145115 0.137693
0.111533 -0.00372298 0.353252
-0.123249 -0.00455848 0.432523
-0.310481 -0.00363522 0.344926
-0.377924 -0.00130961 0.124263
-0.299407 0.00151621 -0.143827
-0.100116 0.00358078 -0.338624
0.110687 0.317539 -0.407821
0.305118 0.269897 -0.346633
0.376016 0.101438 -0.130279
0.301675 -0.106641 0.136961
0.110941 -0.273589 0.351375
-0.122594 -0.334984 0.430226
-0.308832 -0.26714 0.343093
-0.375916 -0.0962401 0.123603
-0.297816 0.111392 -0.143063
-0.0995841 0.26226 -0.336825
0.0673917 0.508234 -0.248303
0.185771 0.431978 -0.211048
0.228938 0.162356 -0.0793207
0.183675 -0.170684 0.0833891
0.0675468 -0.43789 0.213935
-0.0746417 -0.536157 0.261944
-0.188033 -0.427568 0.208893
-0.228878 -0.154037 0.075256
-0.181326 0.178288 -0.0871045
-0.060632 0.419757 -0.205077
-0.00190332 0.502848 0.00701273
-0.00524668 0.427402 0.00596053
-0.00646579 0.160636 0.00224024
-0.00518746 -0.168875 -0.00235513
-0.00190768 -0.433249 -0.0060421
0.0021081 -0.530474 -0.00739798
0.00531052 -0.423038 -0.00589968
0.00646408 -0.152404 -0.00212544
0.00512114 0.176399 0.00246006
0.00171241 0.415309 0.00579191
-0.0704641 0.30346 0.259622
-0.19424 0.257929 0.220669
-0.239374 0.096941 0.0829369
-0.192048 -0.101913 -0.0871909
-0.0706257 -0.261459 -0.223688
0.0780447 -0.320131 -0.273886
0.196605 -0.255296 -0.218416
0.239311 -0.0919732 -0.0786869
0.189593 0.106453 0.0910752
0.0633961 0.250632 0.214426
-0.111839 -0.0130056 0.412068
-0.308289 -0.0110408 0.350236
-0.379924 -0.00414928 0.131634
-0.304811 0.00436207 -0.138384
-0.112094 0.0111909 -0.355028
0.123869 0.0137023 -0.434697
0.312042 0.0109272 -0.346659
0.379824 0.00393661 -0.124888
0.300912 -0.00455715 0.144551
0.100621 -0.0107415 0.340333
-0.110066 -0.324453 0.405535
-0.303138 -0.275152 0.344398
-0.373571 -0.103402 0.129434
-0.299713 0.108705 -0.136072
-0.110219 0.278882 -0.349094
0.121797 0.341466 -0.427432
0.306824 0.272311 -0.340865
0.373472 0.0981019 -0.1228
0.295884 -0.113576 0.142147
0.0990258 -0.26797 0.334937
-0.0658285 -0.510724 0.242543
-0.172088 -0.412204 0.195755
-0.211955 -0.154652 0.0734441
-0.170048 0.162566 -0.0772025
-0.0625354 0.417064 -0.198064
0.0691041 0.510656 -0.242511
0.174083 0.407233 -0.193395
0.211899 0.146697 -0.0696662
0.167963 -0.170437 0.0809403
0.0592256 -0.421814 0.20032
0 -0.61907 0
0 -0.525641 0
0 -0.197212 0
0 0.207303 0
0 0.531839 0
0 0.651187 0
0 0.519303 0
0 0.187067 0
0 -0.21734 0
0 -0.511298 0
-0.00194697 -0.380228 -0.488944
-0.00536699 -0.323505 -0.415584
-0.00661408 -0.121586 -0.156195
-0.0053064 0.127822 0.164205
-0.00195145 0.327928 0.421271
0.0021564 0.401517 0.515806
0.00543231 0.320198 0.41134
0.00661233 0.115355 0.14819
0.00523857 -0.133519 -0.171522
0.00175168 -0.314035 -0.403826
-0.00314278 0.00530846 -0.78925
-0.00866333 0.00449748 -0.670832
-0.0106764 0.00169016 -0.252128
-0.00856554 -0.00177683 0.26506
-0.00315 -0.00455848 0.680012
0.00348087 -0.00558141 0.832612
0.00876876 -0.004451 0.663982
0.0106735 -0.0016035 0.239207
0.0084561 0.00185647 -0.276868
0.00282754 0.00438433 -0.651852
-0.00312608 0.388797 -0.785057
-0.0086173 0.330461 -0.667268
-0.0106196 0.124202 -0.250789
-0.0085201 -0.130572 0.263652
-0.00313327 -0.334984 0.676399
0.00346238 -0.410157 0.828188
0.00872218 -0.327087 0.660454
0.0106168 -0.117837 0.237936
0.00841116 0.13639 -0.275397
0.00281252 0.321113 -0.64839
-0.00190332 0.622285 -0.477984
-0.00524668 0.528919 -0.406267
-0.00646579 0.19879 -0.152693
-0.00518746 -0.208987 0.160524
-0.00190768 -0.536157 0.411827
0.0021081 -0.656471 0.504244
0.00531052 -0.523518 0.402119
0.00646408 -0.188603 0.144868
0.00512114 0.218297 -0.167676
0.00171241 0.513953 -0.394773
5.37549e-05 0.61569 0.0134995
0.000148179 0.523313 0.0114741
0.000182614 0.196684 0.00431242
0.000146509 -0.206772 -0.00453366
5.38785e-05 -0.530474 -0.011631
-5.95368e-05 -0.649515 -0.0142412
-0.000149987 -0.51797 -0.011357
-0.000182565 -0.186604 -0.00409147
-0.000144634 0.215984 0.00473563
-4.8363e-05 0.508507 0.0111495
0.00199009 0.371558 0.499774
0.00548585 0.315811 0.42479
0.00676059 0.118695 0.159654
0.00542396 -0.124783 -0.167843
0.00199466 -0.320131 -0.430601
-0.00220418 -0.391971 -0.527232
-0.00555266 -0.312586 -0.420453
-0.0067588 -0.112613 -0.151473
-0.0053546 0.130342 0.175321
-0.00179048 0.306875 0.412771
0.00315864 -0.0159241 0.793233
0.0087069 -0.0135184 0.674205
0.0107301 -0.00508042 0.253395
0.00860857 0.00534095 -0.266392
0.00316583 0.0137023 -0.683431
-0.00349837 0.0167772 -0.836798
-0.00881285 0.0133793 -0.66732
-0.0107272 0.00482001 -0.24041
-0.00849857 -0.00557981 0.27826
-0.00284181 -0.013152 0.655142
0.00310856 -0.397262 0.780656
0.00856143 -0.336898 0.662965
0.0105506 -0.126607 0.249161
0.00846475 0.133099 -0.261939
0.00311291 0.341466 -0.672006
-0.00343987 0.418094 -0.82281
-0.00866546 0.333419 -0.656165
-0.0105478 0.120117 -0.236391
-0.00835656 -0.139062 0.273634
-0.00279675 -0.328104 0.644755
0.00185917 -0.625334 0.466896
0.00486023 -0.504705 0.37683
0.00598618 -0.189357 0.14138
0.00480262 0.199047 -0.148615
0.00176617 0.510656 -0.381274
-0.00195169 0.625251 -0.466834
-0.00491656 0.498619 -0.372286
-0.00598459 0.179616 -0.134108
-0.00474372 -0.208684 0.155811
-0.00167269 -0.516472 0.385616
0 -0.49369 0
0 -0.419183 0
0 -0.15727 0
0 0.165318 0
0 0.424126 0
0 0.519303 0
0 0.414129 0
0 0.149181 0
0 -0.173322 0
0 -0.407745 0
-0.0720798 -0.303221 -0.535254
-0.198695 -0.257985 -0.454946
-0.244863 -0.0969612 -0.170988
-0.196452 0.101934 0.179758
-0.0722453 0.261513 0.461172
0.079834 0.320198 0.564659
0.201113 0.255349 0.4503
0.244799 0.0919921 0.162225
0.19394 -0.106478 -0.187767
0.0648498 -0.250434 -0.442073
-0.116351 0.00423334 -0.864002
-0.320731 0.00358662 -0.734368
-0.395257 0.00134785 -0.276007
-0.317111 -0.00141697 0.290164
-0.116618 -0.00363522 0.744417
0.128868 -0.004451 0.911471
0.324635 -0.00354955 0.72687
0.395153 -0.00127876 0.261863
0.313057 0.00148047 -0.303092
0.10468 0.00349638 -0.713592
-0.115733 0.310054 -0.859413
-0.319027 0.263534 -0.730466
-0.393157 0.0990475 -0.274541
-0.315427 -0.104128 0.288622
-0.115999 -0.26714 0.740463
0.128183 -0.327087 0.906629
0.32291 -0.260843 0.723009
0.393053 -0.0939717 0.260472
0.311394 0.108767 -0.301482
0.104124 0.256078 -0.709801
-0.0704641 0.496254 -0.523255
-0.19424 0.421798 -0.444746
-0.239374 0.158529 -0.167155
-0.192048 -0.16666 0.175728
-0.0706257 -0.427568 0.450832
0.0780447 -0.523518 0.552001
0.196605 -0.417491 0.440206
0.239311 -0.150406 0.158589
0.189593 0.174086 -0.183557
0.0633961 0.409863 -0.432164
0.00199009 0.490995 0.0147781
0.00548586 0.417328 0.0125609
0.00676059 0.15685 0.0047209
0.00542396 -0.164894 -0.00496304
0.00199466 -0.423038 -0.0127327
-0.00220418 -0.51797 -0.0155901
-0.00555266 -0.413066 -0.0124326
-0.0067588 -0.148811 -0.00447898
-0.0053546 0.172241 0.00518415
-0.00179048 0.405519 0.0122055
0.0736765 0.296307 0.54711
0.203096 0.25185 0.465024
0.250288 0.0946561 0.174775
0.200803 -0.099511 -0.18374
0.0738456 -0.255296 -0.471385
-0.0816024 -0.312586 -0.577166
-0.205568 -0.249279 -0.460275
-0.250222 -0.0898052 -0.165819
-0.198236 0.103944 0.191926
-0.0662863 0.244724 0.451866
0.116938 -0.012699 0.868363
0.322344 -0.0107805 0.73806
0.397244 -0.00405148 0.277394
0.318705 0.00425926 -0.291623
0.117204 0.0109272 -0.74816
-0.129515 0.0133793 -0.916053
-0.326266 0.0106696 -0.730524
-0.397139 0.00384381 -0.26318
-0.31463 -0.00444972 0.304616
-0.105208 -0.0104883 0.717193
0.115084 -0.316805 0.854595
0.316958 -0.268667 0.725757
0.390602 -0.100965 0.27276
0.313377 0.106143 -0.286748
0.115245 0.272311 -0.735655
-0.12735 0.333419 -0.900741
-0.32081 0.265891 -0.718314
-0.390498 0.0957894 -0.25878
-0.309373 -0.110898 0.29955
-0.10354 -0.261654 0.705821
0.0688296 -0.498686 0.511118
0.179934 -0.402487 0.412521
0.221618 -0.151006 0.154771
0.177801 0.158734 -0.162691
0.0653863 0.407233 -0.417386
-0.0722545 0.498619 -0.51105
-0.182019 0.397634 -0.407547
-0.221559 0.143239 -0.14681
-0.17562 -0.166419 0.170568
-0.0619256 -0.411871 0.422139
0 -0.177841 0
0 -0.151001 0
0 -0.0566531 0
0 0.0595522 0
0 0.152782 0
0 0.187067 0
0 0.149181 0
0 0.0537389 0
0 -0.0624355 0
0 -0.146881 0
-0.114404 -0.109228 -0.375058
-0.315359 -0.0929417 -0.318792
-0.388636 -0.0349313 -0.119816
-0.3118 0.036723 0.125962
-0.114665 0.0942131 0.323154
0.126709 0.115355 0.395673
0.319196 0.0919922 0.315538
0.388533 0.0331411 0.113676
0.307812 -0.0383594 -0.131573
0.102928 -0.0902132 -0.309766
-0.18467 0.00152497 -0.605416
-0.509049 0.00129211 -0.514591
-0.627334 0.000485573 -0.193406
-0.503305 -0.000510471 0.203326
-0.18509 -0.00130961 0.521633
0.204532 -0.0016035 0.638691
0.515245 -0.00127876 0.509338
0.627167 -0.000460685 0.183495
0.496869 0.000533351 -0.212384
0.166146 0.00125949 -0.500022
-0.183689 0.11169 -0.6022
-0.506345 0.0949408 -0.511857
-0.624002 0.0356829 -0.192378
-0.500632 -0.0375132 0.202246
-0.184107 -0.0962402 0.518863
0.203446 -0.117837 0.635298
0.512507 -0.0939719 0.506633
0.623836 -0.0338545 0.18252
0.494229 0.0391841 -0.211256
0.165264 0.0922463 -0.497365
-0.111839 0.178764 -0.366651
-0.308289 0.151957 -0.311646
-0.379925 0.0571121 -0.11713
-0.304811 -0.0600414 0.123138
-0.112094 -0.154037 0.315911
0.123869 -0.188604 0.386803
0.312042 -0.150406 0.308465
0.379824 -0.0541853 0.111128
0.300912 0.0627157 -0.128623
0.100621 0.147644 -0.302822
0.00315864 0.17687 0.0103552
0.0087069 0.150346 0.00880169
0.0107301 0.0565069 0.00330807
0.00860857 -0.0594051 -0.00347773
0.00316583 -0.152405 -0.00892211
-0.00349837 -0.186605 -0.0109243
-0.00881285 -0.148812 -0.00871181
-0.0107272 -0.0536111 -0.00313855
-0.00849858 0.0620511 0.00363268
-0.00284181 0.146079 0.0085525
0.116938 0.106738 0.383366
0.322344 0.0907311 0.325853
0.397244 0.034101 0.12247
0.318705 -0.0358499 -0.128751
0.117204 -0.0919733 -0.330312
-0.129515 -0.112613 -0.404437
-0.326266 -0.0898054 -0.322526
-0.397139 -0.0323534 -0.116194
-0.31463 0.0374467 0.134488
-0.105208 0.0881562 0.316627
0.185602 -0.00457454 0.608471
0.511608 -0.00388377 0.517178
0.630487 -0.00145959 0.194378
0.505835 0.00153444 -0.204348
0.186021 0.00393662 -0.524256
-0.205561 0.00482002 -0.641901
-0.517835 0.00384382 -0.511898
-0.63032 0.00138477 -0.184417
-0.499367 -0.00160304 0.213452
-0.166985 -0.00377817 0.502545
0.182659 -0.114122 0.598824
0.503061 -0.0967891 0.508557
0.619946 -0.0363736 0.19113
0.497376 0.0382389 -0.200932
0.18291 0.098102 -0.515493
-0.202123 0.120117 -0.631174
-0.509176 0.0957896 -0.503343
-0.619781 0.0345091 -0.181334
-0.491022 -0.0399517 0.209903
-0.164337 -0.0942548 0.494577
0.109245 -0.17964 0.358146
0.285587 -0.144987 0.289058
0.351748 -0.0543967 0.10845
0.282202 0.0571803 -0.113999
0.10378 0.146697 -0.292467
-0.114681 0.179616 -0.358098
-0.288897 0.143239 -0.285573
-0.351655 0.0515986 -0.102871
-0.278741 -0.0599488 0.119519
-0.0982871 -0.148367 0.295798
0 0.206621 0
0 0.175438 0
0 0.0658213 0
0 -0.0691896 0
0 -0.177507 0
0 -0.21734 0
0 -0.173322 0
0 -0.0624355 0
0 0.0725395 0
0 0.170651 0
-0.11259 0.126905 -0.0701629
-0.31009 0.107593 -0.0599537
-0.382137 0.0404307 -0.0225391
-0.306586 -0.0425039 0.0236957
-0.112747 -0.109044 0.0607914
0.12459 -0.133514 0.0744335
0.31386 -0.106473 0.0593584
0.382036 -0.0383578 0.0213849
0.302669 0.044415 -0.0247373
0.101297 0.104812 -0.0579485
-0.181742 -0.00177175 -0.113256
-0.500544 -0.00149613 -0.0967765
-0.616844 -0.000562152 -0.0363826
-0.494888 0.000590972 0.0382495
-0.181995 0.00151614 0.0981291
0.201112 0.00185638 0.12015
0.506629 0.0014804 0.095816
0.616681 0.000533325 0.0345194
0.488565 -0.00061768 -0.0399307
0.163512 -0.00146331 -0.0935401
-0.180776 -0.129765 -0.112655
-0.497885 -0.109905 -0.0962624
-0.613567 -0.0412996 -0.0361893
-0.492258 0.0434175 0.0380463
-0.181028 0.111387 0.0976078
0.200044 0.136384 0.119511
0.503938 0.108762 0.0953072
0.613405 0.0391824 0.034336
0.48597 -0.0453692 -0.0397186
0.162643 -0.107175 -0.0930432
-0.110066 -0.207694 -0.0685901
-0.303138 -0.175908 -0.0586096
-0.373571 -0.0661019 -0.0220339
-0.299713 0.0694912 0.0231645
-0.110219 0.17828 0.0594287
0.121797 0.218288 0.0727649
0.306824 0.174078 0.058028
0.373472 0.0627129 0.0209056
0.295884 -0.0726149 -0.0241828
0.0990258 -0.171537 -0.0566495
0.00310856 -0.205493 0.00193717
0.00856144 -0.174044 0.00165529
0.0105506 -0.0654014 0.000622296
0.00846475 0.0687548 -0.000654227
0.00311291 0.176391 -0.00167842
-0.00343987 0.215974 -0.00205508
-0.00866546 0.172234 -0.00163886
-0.0105478 0.0620483 -0.000590429
-0.00835656 -0.0718453 0.000682986
-0.00279675 -0.169719 0.00159993
0.115084 -0.124011 0.0717171
0.316958 -0.105032 0.0612817
0.390602 -0.0394686 0.0230384
0.313377 0.0414923 -0.0242205
0.115245 0.106449 -0.062138
-0.12735 0.130337 -0.0760823
-0.32081 0.10394 -0.0606733
-0.390498 0.037445 -0.0218586
-0.309373 -0.0433574 0.0252852
-0.10354 -0.102423 0.0592321
0.182659 0.00531484 0.113828
0.503061 0.00449661 0.0972628
0.619946 0.00168961 0.0365654
0.497376 -0.00177624 -0.0384416
0.18291 -0.00455696 -0.098622
-0.202123 -0.00557957 -0.120753
-0.509176 -0.00444953 -0.0962974
-0.619781 -0.00160297 -0.0346928
-0.491022 0.00185634 0.0401314
-0.164337 0.0043896 0.0940121
0.179763 0.13259 0.112023
0.494665 0.112071 0.09563
0.609591 0.0421095 0.0359495
0.489069 -0.0442684 -0.037794
0.179855 -0.113571 -0.0969607
-0.198748 -0.139057 -0.118719
-0.500673 -0.110894 -0.0946753
-0.609429 -0.03995 -0.0341083
-0.482827 0.0462682 0.0394595
-0.161732 0.109508 0.0925215
0.107513 0.208712 0.0669991
0.281059 0.16845 0.0540747
0.346171 0.0631997 0.0202879
0.277727 -0.0664338 -0.0213261
0.102134 -0.170437 -0.0547123
-0.112863 -0.208684 -0.0669902
-0.284317 -0.166419 -0.0534227
-0.346079 -0.0599488 -0.0192443
-0.274322 0.0696503 0.0223586
-0.0967288 0.172378 0.0553355
0 0.511366 0
0 0.412722 0
0 0.154846 0
0 -0.16277 0
0 -0.417589 0
0 -0.511298 0
0 -0.407745 0
0 -0.146881 0
0 0.170651 0
0 0.422344 0
-0.067338 0.314077 0.261802
-0.176034 0.253491 0.2113
-0.216815 0.0951054 0.079276
-0.173948 -0.0999722 -0.0833328
-0.0639693 -0.25648 -0.213791
0.0706887 -0.314036 -0.261767
0.178074 -0.250434 -0.208752
0.216758 -0.0902133 -0.0751982
0.171814 0.104812 0.0873675
0.0605836 0.259401 0.216226
-0.108696 -0.00438492 0.422599
-0.284153 -0.00353905 0.341078
-0.349982 -0.00132779 0.127967
-0.280785 0.00139574 -0.134515
-0.103259 0.00358078 -0.3451
0.114105 0.00438433 -0.422543
0.287446 0.00349638 -0.336966
0.349889 0.00125949 -0.121384
0.277342 -0.00146331 0.141028
0.0977936 -0.00362156 0.349031
-0.108119 -0.321155 0.420354
-0.282644 -0.259203 0.339266
-0.348123 -0.0972487 0.127287
-0.279293 0.102225 -0.133801
-0.10271 0.26226 -0.343267
0.113499 0.321113 -0.420298
0.28592 0.256078 -0.335176
0.34803 0.0922463 -0.120739
0.275868 -0.107175 0.140279
0.0972741 -0.265247 0.347176
-0.0658285 -0.514022 0.255934
-0.172088 -0.414865 0.206563
-0.211955 -0.15565 0.0774989
-0.170048 0.163615 -0.0814648
-0.0625353 0.419757 -0.208999
0.0691041 0.513953 -0.2559
0.174083 0.409863 -0.204072
0.211899 0.147644 -0.0735125
0.167963 -0.171537 0.085409
0.0592256 -0.424538 0.211379
0.00185917 -0.508575 -0.00722825
0.00486023 -0.410469 -0.00583389
0.00598618 -0.154001 -0.00218878
0.00480262 0.161882 0.00230078
0.00176616 0.415309 0.00590268
-0.00195168 0.508507 0.00722728
-0.00491656 0.405519 0.00576355
-0.00598459 0.146079 0.00207619
-0.00474372 -0.169719 -0.00241218
-0.00167269 -0.420039 -0.00596991
0.0688296 -0.306916 -0.267601
0.179934 -0.247711 -0.21598
0.221618 -0.0929368 -0.081032
0.177801 0.0976927 0.0851787
0.0653863 0.250632 0.218527
-0.0722545 0.306875 0.267566
-0.182019 0.244724 0.213376
-0.221559 0.0881563 0.0768638
-0.17562 -0.102423 -0.0893027
-0.0619256 -0.253486 -0.221016
0.109245 0.0131537 -0.424732
0.285587 0.0106163 -0.342799
0.351748 0.00398306 -0.128613
0.282202 -0.00418689 0.135194
0.10378 -0.0107415 0.346842
-0.114681 -0.013152 0.424675
-0.288897 -0.0104883 0.338666
-0.351655 -0.00377818 0.121997
-0.278741 0.0043896 -0.14174
-0.0982871 0.0108638 -0.350792
0.107513 0.328148 -0.417998
0.281059 0.264847 -0.337364
0.346171 0.0993661 -0.126573
0.277727 -0.104451 0.133051
0.102134 -0.26797 0.341343
-0.112863 -0.328104 0.417942
-0.284317 -0.261654 0.333296
-0.346079 -0.0942548 0.120063
-0.274322 0.109508 -0.139492
-0.0967288 0.271022 -0.34523
0.0643015 0.516541 -0.249997
0.168097 0.416898 -0.201772
0.207039 0.156413 -0.0757013
0.166104 -0.164417 0.0795751
0.0610848 -0.421814 0.204151
-0.0675012 -0.516472 0.249964
-0.170045 -0.411871 0.199339
-0.206984 -0.148367 0.0718073
-0.164067 0.172378 -0.0834278
-0.0578517 0.426618 -0.206476
