# vtk DataFile Version 3.0
Velocity field
ASCII
DATASET STRUCTURED_POINTS
DIMENSIONS 8 8 8
SPACING 0.8 0.8 0.8
ORIGIN 0 0 0
POINT_DATA 512
VECTORS velocity float
0 0.306076 0
0 0.213245 0
0 -0.00893728 0
0 -0.225699 0
0 -0.305554 0
0 -0.200065 0
0 0.0267814 0
0 0.237382 0
0 0.120414 0.312396
0 0.0838935 0.230759
0 -0.00351605 -0.0096713
0 -0.0887928 -0.244235
0 -0.120209 -0.330649
0 -0.0787081 -0.216496
0 0.0105362 0.028981
0 0.0933893 0.242284
0 -0.138289 0.435297
0 -0.0963469 0.321543
0 0.00403797 -0.0134761
0 0.101973 -0.34032
0 0.138053 -0.460731
0 0.0903917 -0.301668
0 -0.0121002 0.0403825
0 -0.107252 0.337602
0 -0.313108 0.294153
0 -0.218145 0.217283
0 0.00914262 -0.00910651
0 0.230884 -0.229972
0 0.312574 -0.31134
0 0.204661 -0.203853
0 -0.0273967 0.0272885
0 -0.242836 0.228135
0 -0.298 -0.025421
0 -0.207619 -0.0187778
0 0.00870147 0.000786993
0 0.219743 0.0198744
0 0.297492 0.0269063
0 0.194786 0.0176172
0 -0.0260748 -0.0023583
0 -0.231119 -0.0197156
0 -0.102129 -0.329575
0 -0.0711541 -0.243448
0 0.00298213 0.0102031
0 0.0753094 0.257665
0 0.101955 0.348831
0 0.0667561 0.228401
0 -0.00893622 -0.0305746
0 -0.0792079 -0.255607
0 0.155692 -0.433813
0 0.108472 -0.320446
0 -0.00454613 0.0134302
0 -0.114806 0.33916
0 -0.155426 0.45916
0 -0.101767 0.30064
0 0.0136229 -0.0402447
0 0.120749 -0.33645
0 0.319072 -0.274906
0 0.2223 -0.191529
0 -0.00931677 0.00802713
0 -0.235282 0.202714
0 -0.318528 0.274437
0 -0.20856 0.17969
0 0.0279186 -0.024054
0 0.247462 -0.213208
0 0.213245 0
0 0.161302 0
0 -0.00676031 0
0 -0.170722 0
0 -0.231126 0
0 -0.151332 0
0 0.0202579 0
0 0.165386 0
0.0665927 0.0838935 0.308563
0.163601 0.0600908 0.220733
0.159624 -0.00251945 -0.00925469
0.0588063 -0.0636219 -0.233703
-0.0776826 -0.0861322 -0.316388
-0.167051 -0.0563959 -0.207158
-0.155076 0.00753358 0.0276749
-0.0477816 0.0650649 0.239311
0.0927912 -0.0963469 0.429955
0.227965 -0.0688626 0.307573
0.222422 0.00288712 -0.0128955
0.0819411 0.0729071 -0.325642
-0.108245 0.0987023 -0.440861
-0.232772 0.0646263 -0.288658
-0.216086 -0.00863431 0.0385626
-0.0665796 -0.0747233 0.333459
0.0627038 -0.218145 0.290543
0.154046 -0.155917 0.207843
0.150303 0.00653707 -0.00871418
0.0553718 0.165076 -0.220054
-0.0731465 0.223482 -0.297913
-0.157295 0.146328 -0.19506
-0.14602 -0.0195497 0.0260587
-0.0449912 -0.169185 0.225335
-0.00541892 -0.207619 -0.025109
-0.0133129 -0.148395 -0.017962
-0.0129892 0.00622161 0.000753084
-0.00478528 0.15711 0.0190173
0.00632135 0.2127 0.0257457
0.0135936 0.139267 0.0168573
0.0126191 -0.0186063 -0.00225202
0.00388819 -0.161022 -0.0194737
-0.0702546 -0.0711541 -0.32553
-0.172595 -0.0508575 -0.232871
-0.168402 0.00213226 0.00976354
-0.062039 0.0538447 0.24655
0.0819546 0.0728955 0.333786
0.176235 0.0477288 0.21855
0.163604 -0.00637672 -0.0291968
0.0504091 -0.0551847 -0.25247
-0.0924748 0.108472 -0.428489
-0.227155 0.0774949 -0.306481
-0.221632 -0.00324905 0.0128497
-0.08165 -0.0820458 0.324485
0.10786 -0.111074 0.439294
0.231943 -0.0727276 0.287632
0.215318 0.00971705 -0.0384261
0.0663525 0.0841269 -0.332321
-0.058601 0.2223 -0.271532
-0.140256 0.154878 -0.189178
-0.136834 -0.00649106 0.00792862
-0.0504101 -0.163923 0.200226
0.066592 -0.221921 0.271069
0.1432 -0.145305 0.177485
0.132945 0.0194511 -0.0237588
0.0420474 0.172408 -0.210591
0 -0.00893728 0
0 -0.00676032 0
0 0.00028333 0
0 0.00715511 0
0 0.0096867 0
0 0.00634246 0
0 -0.000849026 0
0 -0.00693145 0
0.0927912 -0.00351605 0.117559
0.227965 -0.00251945 0.0840528
0.222422 0.000105635 -0.00352405
0.0819411 0.00266754 -0.0889897
-0.108245 0.00361134 -0.120475
-0.232772 0.00236457 -0.0788831
-0.216086 -0.000315851 0.0105386
-0.0665796 -0.00272692 0.0911746
0.129297 0.00403797 0.163808
0.317647 0.00288712 0.11712
0.309925 -0.000121047 -0.00491043
0.114178 -0.00305672 -0.123999
-0.15083 -0.00413825 -0.167874
-0.324345 -0.00270957 -0.109918
-0.301098 0.000361989 0.0146846
-0.0927729 0.00313172 0.127044
0.0873723 0.00914262 0.110694
0.214651 0.00653707 0.0791437
0.209433 -0.000274077 -0.00331825
0.0771553 -0.00692109 -0.0837936
-0.101923 -0.00936993 -0.113441
-0.219178 -0.00613496 -0.0742769
-0.203466 0.000819616 0.0099231
-0.0626914 0.0070907 0.0858501
-0.0075508 0.00870147 -0.00956624
-0.0185504 0.00622161 -0.00683972
-0.0180994 -0.000260851 0.000286766
-0.00666789 -0.00658714 0.00724153
0.00880831 -0.00891777 0.00980362
0.0189416 -0.00583895 0.00641903
0.0175838 0.000780064 -0.00085757
0.00541785 0.00674856 -0.00741925
-0.0978937 0.00298213 -0.124023
-0.240496 0.00213226 -0.0886738
-0.234654 -8.9398e-05 0.00371784
-0.0864459 -0.00225753 0.0938824
0.114197 -0.00305624 0.1271
0.245567 -0.0020011 0.0832211
0.227968 0.000267342 -0.011118
0.0702407 0.00231283 -0.0961882
-0.128856 -0.00454613 -0.163249
-0.316519 -0.00324905 -0.116704
-0.308824 0.00013622 0.00489299
-0.113773 0.00343988 0.123559
0.150294 0.00465697 0.167277
0.323193 0.00304918 0.109527
0.300027 -0.000407383 -0.0146326
0.0924565 -0.00352583 -0.126611
-0.0816554 -0.00931677 -0.103451
-0.195435 -0.00649106 -0.0720748
-0.190667 0.000272045 0.00302071
-0.0702422 0.00687013 0.0762839
0.0927902 0.00930088 0.103274
0.199537 0.00608985 0.0676199
0.185248 -0.00081521 -0.00905185
0.0585894 -0.00722577 -0.0802328
0 -0.225699 0
0 -0.170722 0
0 0.00715511 0
0 0.180692 0
0 0.244624 0
0 0.16017 0
0 -0.021441 0
0 -0.175044 0
0.0627038 -0.0887928 -0.144755
0.154046 -0.0636219 -0.103496
0.150303 0.00266754 0.00433923
0.0553718 0.0673609 0.109576
-0.0731465 0.0911942 0.148346
-0.157295 0.0597104 0.0971298
-0.14602 -0.007976 -0.0129763
-0.0449912 -0.0688647 -0.112267
0.0873723 0.101973 -0.201703
0.214651 0.0729071 -0.144212
0.209433 -0.00305672 0.00604628
0.0771553 -0.0771895 0.152685
-0.101923 -0.104501 0.206706
-0.219178 -0.068423 0.135342
-0.203466 0.00914115 -0.0180814
-0.0626914 0.0790871 -0.156434
0.0590419 0.230884 -0.136301
0.145051 0.165076 -0.0974512
0.141525 -0.00692109 0.00408579
0.0521381 -0.174772 0.103176
-0.0688746 -0.236612 0.139682
-0.14811 -0.154923 0.0914576
-0.137492 0.0206974 -0.0122185
-0.0423638 0.179066 -0.10571
-0.00510246 0.219743 0.0117793
-0.0125353 0.15711 0.00842187
-0.0122306 -0.00658714 -0.000353098
-0.00450584 -0.166341 -0.00891663
0.00595215 -0.225194 -0.0120713
0.0127997 -0.147449 -0.00790384
0.0118821 0.0196986 0.00105594
0.00366112 0.170425 0.0091356
-0.0661518 0.0753094 0.152714
-0.162517 0.0538447 0.109187
-0.158566 -0.00225753 -0.00457783
-0.0584169 -0.0570078 -0.115601
0.0771681 -0.0771773 -0.156502
0.165945 -0.0505328 -0.102471
0.154048 0.00675107 0.0136899
0.0474652 0.0584074 0.11844
-0.0870743 -0.114806 0.201015
-0.213889 -0.0820458 0.143701
-0.208689 0.00343988 -0.0060248
-0.0768813 0.0868642 -0.152142
0.101561 0.1176 -0.205971
0.218398 0.0769989 -0.134862
0.202743 -0.0102874 0.0180175
0.0624776 -0.0890398 0.1559
-0.0551788 -0.235282 0.127383
-0.132066 -0.163923 0.0887483
-0.128843 0.00687013 -0.00371952
-0.0474662 0.173495 -0.0939312
0.0627031 0.234881 -0.127165
0.134838 0.153791 -0.0832628
0.125181 -0.020587 0.0111459
0.0395919 -0.182477 0.0987936
0 -0.305554 0
0 -0.231126 0
0 0.0096867 0
0 0.244624 0
0 0.331176 0
0 0.216841 0
0 -0.0290271 0
0 -0.236977 0
-0.00541892 -0.120209 -0.319262
-0.0133129 -0.0861322 -0.228264
-0.0129892 0.00361134 0.00957034
-0.00478528 0.0911942 0.24167
0.00632135 0.12346 0.327181
0.0135936 0.0808369 0.214225
0.0126191 -0.010798 -0.0286199
0.00388819 -0.09323 -0.247608
-0.0075508 0.138053 -0.444863
-0.0185504 0.0987023 -0.318065
-0.0180994 -0.00413825 0.0133355
-0.00666789 -0.104501 0.336752
0.00880831 -0.141475 0.455899
0.0189416 -0.0926318 0.298505
0.0175838 0.0123754 -0.0398793
0.00541785 0.107069 -0.345021
-0.00510246 0.312574 -0.300617
-0.0125353 0.223482 -0.214934
-0.0122306 -0.00936993 0.00901146
-0.00450584 -0.236612 0.22756
0.00595215 -0.320327 0.308072
0.0127997 -0.209738 0.201713
0.0118821 0.0280204 -0.0269485
0.00366112 0.242422 -0.233148
0.00044096 0.297492 0.0259796
0.00108332 0.2127 0.0185748
0.00105699 -0.00891777 -0.00077877
0.000389395 -0.225194 -0.0196658
-0.000514394 -0.304873 -0.0266241
-0.00110617 -0.199616 -0.0174324
-0.00102687 0.0266684 0.00232891
-0.000316398 0.230725 0.0201489
0.0057169 0.101955 0.336817
0.0140449 0.0728955 0.240814
0.0137036 -0.00305624 -0.0100966
0.00504841 -0.0771773 -0.254959
-0.00666899 -0.104484 -0.345168
-0.0143411 -0.0684121 -0.226005
-0.0133131 0.00913968 0.0301934
-0.00410199 0.0790728 0.261224
0.00752505 -0.155426 0.443346
0.0184845 -0.111074 0.316936
0.0180351 0.00465697 -0.0132881
0.0066442 0.1176 -0.335554
-0.00877702 0.159207 -0.45428
-0.0188742 0.104243 -0.297444
-0.0175213 -0.0139273 0.0397382
-0.00539937 -0.120543 0.343844
0.0047686 -0.318528 0.280947
0.0114132 -0.221921 0.195738
0.0111348 0.00930088 -0.00820353
0.00410208 0.234881 -0.207169
-0.00541886 0.317985 -0.280468
-0.0116528 0.208204 -0.183639
-0.0108183 -0.027871 0.0245827
-0.00342157 -0.24704 0.217893
0 -0.200065 0
0 -0.151332 0
0 0.00634246 0
0 0.16017 0
0 0.216841 0
0 0.141979 0
0 -0.0190058 0
0 -0.155163 0
-0.0702546 -0.0787081 -0.300109
-0.172595 -0.0563959 -0.214571
-0.168402 0.00236457 0.00899624
-0.062039 0.0597104 0.227176
0.0819546 0.0808369 0.307552
0.176235 0.0529289 0.201373
0.163604 -0.00707013 -0.026903
0.0504091 -0.0610433 -0.232754
-0.0978937 0.0903917 -0.418176
-0.240496 0.0646263 -0.298986
-0.234654 -0.00270957 0.0125353
-0.0864459 -0.068423 0.316548
0.114197 -0.0926318 0.428549
0.245567 -0.0606513 0.280597
0.227968 0.00810291 -0.037487
0.0702407 0.0701047 -0.324323
-0.0661518 0.204661 -0.282583
-0.162517 0.146328 -0.202039
-0.158566 -0.00613496 0.00847081
-0.0584169 -0.154923 0.213909
0.0771681 -0.209738 0.289592
0.165945 -0.137328 0.189612
0.154048 0.0183467 -0.0253318
0.0474652 0.158728 -0.219162
0.0057169 0.194786 0.0244211
0.0140449 0.139267 0.0174605
0.0137036 -0.00583895 -0.000732051
0.00504841 -0.147449 -0.0184862
-0.00666899 -0.199616 -0.0250267
-0.0143411 -0.130701 -0.0163865
-0.0133131 0.0174614 0.00218921
-0.00410199 0.151069 0.0189402
0.0741178 0.0667561 0.316612
0.182086 0.0477288 0.226369
0.17766 -0.0020011 -0.00949094
0.0654504 -0.0505328 -0.239665
-0.0864602 -0.0684121 -0.324464
-0.185926 -0.0447933 -0.212447
-0.172598 0.00598427 0.0283823
-0.053181 0.0517737 0.245553
0.0975598 -0.101767 0.41675
0.239642 -0.0727276 0.297923
0.233818 0.00304918 -0.0124908
0.0861389 0.0769989 -0.315424
-0.113791 0.104243 -0.427027
-0.244695 0.0682541 -0.279601
-0.227159 -0.00911904 0.0373543
-0.0700011 -0.078927 0.323217
0.0618234 -0.20856 0.264093
0.147969 -0.145305 0.183995
0.144359 0.00608985 -0.0077114
0.0531821 0.153791 -0.194741
-0.0702538 0.208204 -0.263643
-0.151075 0.136324 -0.172623
-0.140256 -0.0182488 0.0231079
-0.0443595 -0.161752 0.204822
0 0.0267814 0
0 0.0202579 0
0 -0.000849026 0
0 -0.021441 0
0 -0.0290271 0
0 -0.0190058 0
0 0.00254418 0
0 0.0207707 0
-0.0924748 0.0105362 -0.0989142
-0.227155 0.00753343 -0.0707467
-0.221632 -0.000315844 0.00296619
-0.08165 -0.00797583 0.0749035
0.10786 -0.0107978 0.101405
0.231943 -0.00706999 0.0663959
0.215318 0.000944627 -0.00886996
0.0663525 0.00817148 -0.0767144
-0.128856 -0.0121002 -0.137828
-0.316519 -0.00863413 -0.0985793
-0.308824 0.000361981 0.00413312
-0.113773 0.00914095 0.104371
0.150294 0.0123751 0.141299
0.323193 0.00810274 0.0925174
0.300027 -0.00108276 -0.0123595
0.0924565 -0.00938448 -0.106895
-0.0870743 -0.0273967 -0.0931377
-0.213889 -0.0195493 -0.0666152
-0.208689 0.000819599 0.00279297
-0.0768813 0.0206969 0.0705289
0.101561 0.0280198 0.0954827
0.218398 0.0183463 0.0625185
0.202743 -0.00245156 -0.00835194
0.0624776 -0.0212479 -0.0722344
0.00752505 -0.0260748 0.00804905
0.0184845 -0.018606 0.00575696
0.0180351 0.000780047 -0.000241371
0.00664421 0.0196982 -0.00609516
-0.00877702 0.0266678 -0.00825172
-0.0188742 0.017461 -0.00540289
-0.0175213 -0.00233328 0.000721787
-0.00539937 -0.0202227 0.00624257
0.0975598 -0.00893622 0.104353
0.239642 -0.00637658 0.0746371
0.233818 0.000267336 -0.00312928
0.0861389 0.00675093 -0.079022
-0.113791 0.00913949 -0.106981
-0.244695 0.00598415 -0.0700471
-0.227159 -0.000799652 0.00935771
-0.0700011 -0.00693062 0.0809329
0.128416 0.0136229 0.137358
0.315395 0.00971685 0.0982292
0.307727 -0.000407375 -0.00411843
0.113368 -0.0102872 -0.104
-0.149759 -0.013927 -0.140797
-0.322045 -0.00911885 -0.0921882
-0.29896 0.00121858 0.0123157
-0.0921412 0.0105655 0.10653
0.0813769 0.0279186 0.0870436
0.194769 0.0194511 0.0606438
0.190016 -0.00081521 -0.00254163
0.0700026 -0.020587 -0.0641854
-0.0924737 -0.027871 -0.0868951
-0.198857 -0.0182488 -0.0568955
-0.184616 0.00244285 0.00761624
-0.0583896 0.0216527 0.067508
0 0.237382 0
0 0.165386 0
0 -0.00693145 0
0 -0.175044 0
0 -0.236977 0
0 -0.155163 0
0 0.0207707 0
0 0.184105 0
-0.058601 0.0933893 0.162281
-0.140256 0.0650649 0.113062
-0.136834 -0.00272692 -0.00473852
-0.0504101 -0.0688647 -0.119665
0.066592 -0.09323 -0.162004
0.1432 -0.0610433 -0.106074
0.132945 0.00817148 0.0141994
0.0420474 0.0724295 0.125859
-0.0816554 -0.107252 0.226124
-0.195435 -0.0747233 0.157542
-0.190667 0.00313172 -0.00660272
-0.0702421 0.0790871 -0.166742
0.0927902 0.107069 -0.225738
0.199537 0.0701047 -0.147804
0.185248 -0.00938448 0.0197857
0.0585894 -0.0831811 0.175374
-0.0551788 -0.242836 0.152803
-0.132066 -0.169185 0.106459
-0.128843 0.0070907 -0.00446179
-0.0474662 0.179066 -0.112676
0.0627031 0.242422 -0.152543
0.134838 0.158728 -0.099879
0.125181 -0.0212479 0.0133702
0.0395919 -0.188335 0.118509
0.0047686 -0.231119 -0.0132054
0.0114132 -0.161022 -0.00920031
0.0111348 0.00674856 0.000385593
0.00410208 0.170425 0.0097376
-0.00541886 0.230725 0.0131829
-0.0116528 0.151069 0.00863164
-0.0108183 -0.0202227 -0.00115546
-0.00342157 -0.179248 -0.0102417
0.0618234 -0.0792079 -0.171204
0.147969 -0.0551847 -0.119279
0.144358 0.00231283 0.00499908
0.0531821 0.0584074 0.126245
-0.0702538 0.0790728 0.170912
-0.151075 0.0517737 0.111906
-0.140256 -0.00693062 -0.0149802
-0.0443595 -0.0614309 -0.13278
0.0813769 0.120749 -0.225353
0.194769 0.0841269 -0.157005
0.190016 -0.00352583 0.0065802
0.0700026 -0.0890398 0.166174
-0.0924737 -0.120543 0.224968
-0.198857 -0.0789271 0.1473
-0.184616 0.0105655 -0.0197182
-0.0583896 0.0936491 -0.174776
0.0515683 0.247462 -0.142805
0.123424 0.172408 -0.0994935
0.120413 -0.00722577 0.00416985
0.0443604 -0.182477 0.105304
-0.0586003 -0.24704 0.142562
-0.126015 -0.161752 0.0933438
-0.116991 0.0216527 -0.0124954
-0.0370013 0.191923 -0.110755
