# vtk DataFile Version 3.0
Velocity field
ASCII
DATASET STRUCTURED_POINTS
DIMENSIONS 8 8 8
SPACING 0.8 0.8 0.8
ORIGIN 0 0 0
POINT_DATA 512
VECTORS velocity float
0 0.3871 0
0 0.269695 0
0 -0.0113031 0
0 -0.285445 0
0 -0.38644 0
0 -0.253025 0
0 0.0338709 0
0 0.300221 0
0 0.15229 0.395093
0 0.106102 0.291845
0 -0.00444681 -0.0122315
0 -0.112298 -0.308889
0 -0.152031 -0.418178
0 -0.0995436 -0.273806
0 0.0133253 0.0366528
0 0.118111 0.306421
0 -0.174897 0.550528
0 -0.121852 0.406661
0 0.0051069 -0.0170435
0 0.128968 -0.43041
0 0.174598 -0.582695
0 0.11432 -0.381526
0 -0.0153033 0.0510724
0 -0.135644 0.426971
0 -0.395994 0.37202
0 -0.275891 0.274802
0 0.0115628 -0.0115172
0 0.292003 -0.29085
0 0.395318 -0.393757
0 0.258839 -0.257816
0 -0.0346491 0.0345123
0 -0.307119 0.288526
0 -0.376886 -0.0321504
0 -0.262579 -0.0237486
0 0.0110049 0.000995324
0 0.277914 0.0251355
0 0.376243 0.0340289
0 0.246349 0.0222807
0 -0.0329772 -0.00298258
0 -0.2923 -0.0249347
0 -0.129165 -0.416819
0 -0.0899899 -0.307893
0 0.00377155 0.0129041
0 0.0952452 0.325874
0 0.128944 0.441173
0 0.0844276 0.288863
0 -0.0113018 -0.0386682
0 -0.100176 -0.323271
0 0.196906 -0.548651
0 0.137186 -0.405274
0 -0.00574958 0.0169854
0 -0.145198 0.428942
0 -0.196571 0.580708
0 -0.128707 0.380224
0 0.0172292 -0.0508983
0 0.152714 -0.425515
0 0.403537 -0.347678
0 0.281147 -0.24223
0 -0.0117831 0.0101521
0 -0.297565 0.256376
0 -0.402849 0.347086
0 -0.263769 0.227258
0 0.0353091 -0.0304216
0 0.312969 -0.269648
0 0.269695 0
0 0.204002 0
0 -0.00854989 0
0 -0.215916 0
0 -0.29231 0
0 -0.191393 0
0 0.0256206 0
0 0.209166 0
0.0842211 0.106102 0.390245
0.208405 0.0765485 0.281157
0.20335 -0.00321032 -0.0117912
0.0749146 -0.0810633 -0.297738
-0.0989625 -0.109745 -0.403083
-0.212812 -0.0718567 -0.263923
-0.197547 0.00958674 0.0352137
-0.0604303 0.0822888 0.30266
0.117355 -0.121852 0.543772
0.290392 -0.0876903 0.391772
0.283348 0.0036774 -0.0164299
0.104388 0.092859 -0.414874
-0.137895 0.125713 -0.561659
-0.296532 0.082312 -0.367755
-0.275265 -0.0109839 0.0490675
-0.0842044 -0.0945039 0.421731
0.0793026 -0.275891 0.367455
0.196233 -0.198547 0.26474
0.191475 0.00832654 -0.0111026
0.0705393 0.210253 -0.28035
-0.0931834 0.284641 -0.379544
-0.200383 0.186374 -0.248508
-0.186011 -0.0248698 0.0331574
-0.0569012 -0.213972 0.284985
-0.00685341 -0.262579 -0.0317558
-0.0169586 -0.18897 -0.0228791
-0.0165474 0.00792469 0.000959488
-0.00609611 0.200106 0.0242283
0.00805295 0.270908 0.0328004
0.0173172 0.177381 0.0214764
0.0160752 -0.0236697 -0.00286549
0.00491746 -0.203647 -0.0246287
-0.0888523 -0.0899899 -0.411704
-0.219862 -0.0647632 -0.296618
-0.214533 0.00271595 0.0124395
-0.0790329 0.0685804 0.314106
0.104405 0.0928455 0.425249
0.224509 0.0607911 0.278434
0.208411 -0.00811205 -0.0371501
0.0637533 -0.0697931 -0.319303
-0.116955 0.137186 -0.541918
-0.289335 0.0986567 -0.390348
-0.282317 -0.00413726 0.01637
-0.104007 -0.10447 0.413362
0.137393 -0.141432 0.559612
0.29545 -0.0926057 0.366415
0.274262 0.0123586 -0.0488904
0.0839172 0.106397 -0.420293
-0.0741138 0.281147 -0.343412
-0.177385 0.195877 -0.239257
-0.173057 -0.00820936 0.0100275
-0.0637546 -0.207316 0.25323
0.0842201 -0.280667 0.342826
0.181108 -0.18377 0.224469
0.168138 0.0246001 -0.0300482
0.0531781 0.218048 -0.266338
0 -0.0113031 0
0 -0.0085499 0
0 0.000358333 0
0 0.0090492 0
0 0.0122509 0
0 0.00802143 0
0 -0.00107378 0
0 -0.00876633 0
0.117355 -0.00444681 0.148679
0.290392 -0.00321032 0.107056
0.283348 0.00013464 -0.00448963
0.104388 0.00339976 -0.113367
-0.137895 0.00460258 -0.153478
-0.296532 0.00301363 -0.100493
-0.275265 -0.000402019 0.0134088
-0.0842044 -0.00344879 0.11531
0.163524 0.0051069 0.207171
0.404638 0.0036774 0.149173
0.394823 -0.00015422 -0.00625594
0.145454 -0.00389421 -0.157966
-0.192147 -0.00527207 -0.213862
-0.413194 -0.00345198 -0.140027
-0.38356 0.000460587 0.0186838
-0.117332 0.00396074 0.160675
0.110501 0.0115628 0.139996
0.273433 0.00832654 0.100804
0.266803 -0.000349192 -0.00422748
0.0982908 -0.00881742 -0.106748
-0.129843 -0.0119373 -0.144516
-0.279215 -0.00781594 -0.0946243
-0.259189 0.00104288 0.0126256
-0.0792869 0.00896774 0.108576
-0.00954964 0.0110049 -0.0120986
-0.0236305 0.00792469 -0.00871155
-0.0230574 -0.000332343 0.000365342
-0.00849437 -0.00839203 0.00922518
0.0112211 -0.0113612 0.0124892
0.0241302 -0.00743881 0.00817747
0.0223995 0.000992549 -0.00109112
0.00685206 0.00853503 -0.00938326
-0.123808 0.00377155 -0.156854
-0.306356 0.00271595 -0.112941
-0.29893 -0.0001139 0.00473651
-0.110127 -0.0028761 0.1196
0.145478 -0.00389365 0.161917
0.312833 -0.00254942 0.106019
0.2904 0.000340165 -0.0141459
0.0888347 0.00292508 -0.121651
-0.162966 -0.00574958 -0.206465
-0.403165 -0.00413726 -0.14863
-0.393385 0.000173503 0.00623317
-0.144924 0.00438111 0.157391
0.191446 0.00593123 0.213081
0.411689 0.00388352 0.139517
0.382163 -0.000518231 -0.0186163
0.116931 -0.00445918 -0.160127
-0.103271 -0.0117831 -0.130836
-0.24717 -0.00820936 -0.0911543
-0.241139 0.000344061 0.00382035
-0.0888365 0.00868877 0.0964776
0.117353 0.011763 0.130613
0.252358 0.00770194 0.0855201
0.234286 -0.00103101 -0.011448
0.0740991 -0.00913856 -0.101472
0 -0.285445 0
0 -0.215916 0
0 0.0090492 0
0 0.228525 0
0 0.309381 0
0 0.20257 0
0 -0.0271168 0
0 -0.221381 0
0.0793026 -0.112298 -0.183074
0.196233 -0.0810633 -0.13182
0.191475 0.00339976 0.00552816
0.0705393 0.0858455 0.139591
-0.0931834 0.116219 0.188982
-0.200383 0.0760955 0.123736
-0.186011 -0.0101514 -0.0165103
-0.0569012 -0.0870944 -0.141986
0.110501 0.128968 -0.255097
0.273433 0.092859 -0.183679
0.266803 -0.00389421 0.00770295
0.0982908 -0.0983334 0.19451
-0.129843 -0.133126 0.263329
-0.279215 -0.0871652 0.172417
-0.259189 0.0116305 -0.0230057
-0.0792869 0.100023 -0.197845
0.0746714 0.292003 -0.172382
0.184773 0.210253 -0.124121
0.180292 -0.00881742 0.00520528
0.0664204 -0.222647 0.131439
-0.0877412 -0.301425 0.177944
-0.188681 -0.197362 0.11651
-0.175148 0.0263342 -0.015546
-0.0535782 0.226468 -0.133694
-0.00645318 0.277914 0.0148975
-0.0159682 0.200106 0.0107267
-0.0155809 -0.00839203 -0.000449846
-0.00574012 -0.211907 -0.0113591
0.0075826 -0.28688 -0.015378
0.0163059 -0.18784 -0.0100689
0.0151363 0.0250634 0.00134351
0.00463029 0.21554 0.011554
-0.0836634 0.0952452 0.193141
-0.207024 0.0685804 0.139067
-0.202003 -0.0028761 -0.00583215
-0.0744183 -0.0726238 -0.147267
0.0983068 -0.0983193 -0.199372
0.211402 -0.0643756 -0.130541
0.196238 0.00858964 0.0174181
0.0600301 0.0738689 0.149793
-0.110124 -0.145198 0.254227
-0.272438 -0.10447 0.183012
-0.265831 0.00438111 -0.00767489
-0.0979329 0.110627 -0.193801
0.129369 0.149769 -0.26237
0.278198 0.098063 -0.171789
0.258245 -0.0130861 0.0229227
0.0790165 -0.11261 0.19717
-0.0697856 -0.297565 0.161103
-0.167026 -0.207316 0.112242
-0.16295 0.00868877 -0.00470414
-0.0600314 0.219423 -0.118796
0.0793017 0.297058 -0.160828
0.170532 0.194502 -0.105304
0.158319 -0.0260367 0.0140964
0.0500726 -0.230782 0.124946
0 -0.38644 0
0 -0.29231 0
0 0.0122509 0
0 0.309381 0
0 0.418844 0
0 0.274242 0
0 -0.0367111 0
0 -0.299709 0
-0.00685341 -0.152031 -0.403776
-0.0169586 -0.109745 -0.290731
-0.0165474 0.00460258 0.0121926
-0.00609612 0.116219 0.30787
0.00805295 0.157338 0.416807
0.0173172 0.10302 0.272907
0.0160752 -0.0137433 -0.0364141
0.00491746 -0.11791 -0.313155
-0.00954964 0.174598 -0.562627
-0.0236305 0.125713 -0.40511
-0.0230574 -0.00527207 0.0169893
-0.00849437 -0.133126 0.429
0.0112211 -0.180227 0.580779
0.0241302 -0.118005 0.380276
0.0223995 0.0157455 -0.05074
0.00685206 0.135412 -0.436354
-0.00645318 0.395318 -0.380196
-0.0159682 0.284641 -0.273754
-0.0155809 -0.0119373 0.0114806
-0.00574012 -0.301425 0.289894
0.0075826 -0.408076 0.392463
0.0163059 -0.267192 0.256969
0.0151363 0.0356512 -0.0342875
0.00463029 0.306595 -0.294867
0.00055769 0.376243 0.0328569
0.00138 0.270908 0.0236582
0.00134653 -0.0113612 -0.000992151
0.000496061 -0.28688 -0.025053
-0.000655301 -0.388387 -0.033917
-0.00140918 -0.254297 -0.0222076
-0.0013081 0.0339311 0.00296316
-0.000400154 0.291801 0.0254827
0.00723027 0.128944 0.425979
0.0178911 0.0928455 0.306716
0.0174572 -0.00389365 -0.012863
0.00643132 -0.0983193 -0.324799
-0.00849576 -0.133107 -0.439723
-0.0182694 -0.0871527 -0.287913
-0.0169591 0.0116288 0.0384161
-0.00518786 0.100005 0.330375
0.00951707 -0.196571 0.560708
0.0235444 -0.141432 0.403637
0.0229734 0.00593123 -0.0169275
0.00846344 0.149769 -0.427434
-0.0111803 0.20276 -0.578665
-0.0240422 0.13276 -0.37889
-0.0223179 -0.017716 0.050557
-0.00682869 -0.152454 0.434866
0.00603094 -0.402849 0.355319
0.0144345 -0.280667 0.247553
0.0140823 0.011763 -0.0103752
0.00518797 0.297058 -0.26201
-0.00685334 0.402162 -0.354713
-0.0147375 0.263319 -0.232252
-0.0136821 -0.0352489 0.0310901
-0.00432732 -0.312436 0.275573
0 -0.253025 0
0 -0.191393 0
0 0.00802143 0
0 0.20257 0
0 0.274242 0
0 0.179563 0
0 -0.024037 0
0 -0.196238 0
-0.0888523 -0.0995436 -0.379553
-0.219862 -0.0718567 -0.273292
-0.214533 0.00301363 0.0114612
-0.0790329 0.0760955 0.289404
0.104405 0.10302 0.391801
0.224509 0.0674536 0.256535
0.208411 -0.00899855 -0.0342296
0.0637533 -0.0772026 -0.294369
-0.123808 0.11432 -0.528875
-0.306356 0.082312 -0.380811
-0.29893 -0.00345198 0.01597
-0.110127 -0.0871652 0.403262
0.145478 -0.118005 0.545939
0.312833 -0.0772647 0.357461
0.2904 0.0103096 -0.0476961
0.0888347 0.0886627 -0.410177
-0.0836634 0.258839 -0.357388
-0.207024 0.186374 -0.257332
-0.202003 -0.00781594 0.0107918
-0.0744183 -0.197362 0.272503
0.0983068 -0.267192 0.36892
0.211402 -0.174946 0.241552
0.196238 0.0233432 -0.0322307
0.0600301 0.200746 -0.277178
0.00723027 0.246349 0.0308858
0.0178911 0.177381 0.0222389
0.0174572 -0.00743881 -0.000932631
0.00643132 -0.18784 -0.0235501
-0.00849576 -0.254297 -0.0318822
-0.0182694 -0.166504 -0.0208753
-0.0169591 0.0222168 0.0027854
-0.00518786 0.19106 0.023954
0.0937381 0.0844276 0.400424
0.23195 0.0607911 0.288318
0.226324 -0.00254942 -0.0120914
0.0833788 -0.0643756 -0.305315
-0.110145 -0.0871527 -0.413346
-0.236854 -0.0570637 -0.270642
-0.219868 0.00761405 0.0361117
-0.067259 0.0654792 0.310555
0.123386 -0.128707 0.527071
0.30524 -0.0926057 0.379425
0.297839 0.00388352 -0.0159119
0.109725 0.098063 -0.401794
-0.144948 0.13276 -0.543951
-0.311694 0.0869261 -0.35616
-0.289343 -0.0115998 0.0475239
-0.0885317 -0.0998205 0.408778
0.0781892 -0.263769 0.334003
0.187139 -0.18377 0.232702
0.182573 0.00770194 -0.00975275
0.0672604 0.194502 -0.246292
-0.0888513 0.263319 -0.333434
-0.191067 0.172411 -0.218319
-0.177384 -0.0230796 0.029225
-0.0561023 -0.20457 0.259042
0 0.0338709 0
0 0.0256206 0
0 -0.00107378 0
0 -0.0271168 0
0 -0.0367111 0
0 -0.024037 0
0 0.00321768 0
0 0.0262691 0
-0.116955 0.0133253 -0.125099
-0.289335 0.0095865 -0.0901282
-0.282317 -0.000402009 0.0037798
-0.104007 -0.0101512 0.0954438
0.137393 -0.0137429 0.129212
0.29545 -0.00899831 0.0846031
0.274262 0.00120101 -0.0112877
0.0839172 0.0103346 -0.0970222
-0.162966 -0.0153033 -0.174314
-0.403165 -0.0109836 -0.125586
-0.393385 0.000460575 0.0052668
-0.144924 0.0116302 0.132992
0.191446 0.0157451 0.180046
0.411689 0.0103093 0.117888
0.382163 -0.00137624 -0.0157284
0.116931 -0.0118687 -0.135192
-0.110124 -0.0346491 -0.117793
-0.272438 -0.0248692 -0.0848646
-0.265831 0.00104285 0.00355907
-0.097933 0.0263335 0.0898695
0.129369 0.0356503 0.121666
0.278198 0.0233425 0.0796624
0.258245 -0.00311606 -0.0106284
0.0790165 -0.0268727 -0.0913562
0.00951707 -0.0329772 0.0101798
0.0235444 -0.0236691 0.0073341
0.0229734 0.000992522 -0.000307576
0.00846344 0.0250627 -0.0077666
-0.0111803 0.0339302 -0.0105145
-0.0240422 0.0222162 -0.00688455
-0.0223179 -0.00296571 0.000918527
-0.00682869 -0.025576 0.00789509
0.123386 -0.0113018 0.131978
0.30524 -0.00811184 0.0950844
0.297839 0.000340156 -0.00398763
0.109725 0.00858941 -0.100692
-0.144948 0.0116285 -0.136317
-0.311694 0.00761385 -0.0892555
-0.289343 -0.0010164 0.0119084
-0.0885317 -0.00876529 0.102357
0.16241 0.0172292 0.17372
0.401698 0.0123582 0.125129
0.391954 -0.000518217 -0.00524759
0.144397 -0.0130857 -0.132507
-0.190749 -0.0177155 -0.17939
-0.410191 -0.0115995 -0.117458
-0.380771 0.00154858 0.0156716
-0.116533 0.0133623 0.134731
0.102919 0.0353091 0.110086
0.246327 0.0246001 0.0766974
0.240317 -0.00103101 -0.00321445
0.0885336 -0.0260367 -0.0811764
-0.116953 -0.0352489 -0.109898
-0.251498 -0.0230796 -0.0719567
-0.233487 0.00308952 0.0096324
-0.0738464 0.0273845 0.0853786
0 0.300221 0
0 0.209166 0
0 -0.00876633 0
0 -0.221381 0
0 -0.299709 0
0 -0.196238 0
0 0.0262691 0
0 0.232841 0
-0.0741138 0.118111 0.205239
-0.177385 0.0822888 0.142991
-0.173057 -0.00344879 -0.00599289
-0.0637546 -0.0870944 -0.151342
0.0842201 -0.11791 -0.204889
0.181108 -0.0772026 -0.134153
0.168138 0.0103346 0.0179583
0.0531781 0.091603 0.159176
-0.103271 -0.135644 0.285983
-0.24717 -0.0945039 0.199246
-0.241139 0.00396074 -0.00835057
-0.0888365 0.100023 -0.210882
0.117353 0.135412 -0.285495
0.252358 0.0886627 -0.186931
0.234286 -0.0118687 0.0250233
0.0740991 -0.105201 0.221799
-0.0697856 -0.307119 0.193253
-0.167026 -0.213972 0.134641
-0.16295 0.00896774 -0.00564291
-0.0600314 0.226468 -0.142504
0.0793017 0.306595 -0.192924
0.170531 0.200746 -0.126319
0.158319 -0.0268727 0.0169095
0.0500726 -0.238191 0.149881
0.00603094 -0.2923 -0.0167011
0.0144345 -0.203647 -0.0116358
0.0140823 0.00853503 0.000487666
0.00518797 0.21554 0.0123153
-0.00685333 0.291802 0.0166727
-0.0147375 0.19106 0.0109166
-0.0136821 -0.025576 -0.00146134
-0.00432732 -0.226698 -0.0129528
0.0781892 -0.100176 -0.216525
0.187139 -0.0697931 -0.150854
0.182573 0.00292508 0.00632243
0.0672604 0.0738689 0.159664
-0.0888513 0.100005 0.216156
-0.191067 0.0654792 0.14153
-0.177384 -0.00876529 -0.0189458
-0.0561023 -0.0776928 -0.167929
0.102919 0.152714 -0.285008
0.246327 0.106397 -0.198567
0.240317 -0.00445918 0.00832209
0.0885336 -0.11261 0.210163
-0.116953 -0.152454 0.284522
-0.251498 -0.0998205 0.186293
-0.233487 0.0133623 -0.0249379
-0.0738464 0.11844 -0.221042
0.0652194 0.312969 -0.180609
0.156097 0.218048 -0.125831
0.152288 -0.00913856 0.00527369
0.0561035 -0.230782 0.13318
-0.0741129 -0.312436 0.180301
-0.159373 -0.20457 0.118054
-0.14796 0.0273845 -0.0158031
-0.0467962 0.242728 -0.140074
