# vtk DataFile Version 3.0
Velocity field
ASCII
DATASET STRUCTURED_POINTS
DIMENSIONS 10 10 10
SPACING 0.631579 0.631579 0.631579
ORIGIN 0 0 0
POINT_DATA 1000
VECTORS velocity float
0 0.44263 0
0 0.357245 0
0 0.134032 0
0 -0.140891 0
0 -0.361458 0
0 -0.442571 0
0 -0.352937 0
0 -0.127138 0
0 0.147713 0
0 0.365574 0
0 0.27186 0.346722
0 0.219417 0.290811
0 0.0823216 0.109107
0 -0.0865343 -0.114691
0 -0.222005 -0.29424
0 -0.271824 -0.36027
0 -0.216772 -0.287304
0 -0.0780871 -0.103495
0 0.0907239 0.120244
0 0.224533 0.286363
0 -0.00379551 0.559677
0 -0.00306334 0.469425
0 -0.00114931 0.17612
0 0.00120813 -0.185133
0 0.00309947 -0.47496
0 0.00379501 -0.581545
0 0.0030264 -0.463765
0 0.00109019 -0.167061
0 -0.00126662 0.194096
0 -0.00313476 0.462245
0 -0.277987 0.556704
0 -0.224362 0.466931
0 -0.0841768 0.175185
0 0.0884844 -0.184149
0 0.227008 -0.472437
0 0.27795 -0.578456
0 0.221657 -0.461301
0 0.0798469 -0.166173
0 -0.0927685 0.193065
0 -0.229593 0.459789
0 -0.444929 0.33895
0 -0.3591 0.284292
0 -0.134728 0.106662
0 0.141623 -0.11212
0 0.363335 -0.287644
0 0.444869 -0.352194
0 0.35477 -0.280864
0 0.127798 -0.101175
0 -0.14848 0.117548
0 -0.367473 0.279944
0 -0.440214 -0.00957286
0 -0.355295 -0.00802915
0 -0.133301 -0.00301241
0 0.140122 0.00316656
0 0.359485 0.00812385
0 0.440155 0.00994688
0 0.351011 0.00793235
0 0.126444 0.00285745
0 -0.146906 -0.00331987
0 -0.363579 -0.00790636
0 -0.265661 -0.354403
0 -0.214414 -0.297253
0 -0.0804446 -0.111524
0 0.0845612 0.117231
0 0.216943 0.300758
0 0.265626 0.36825
0 0.211829 0.293668
0 0.0763066 0.105787
0 -0.0886553 -0.122907
0 -0.219413 -0.292706
0 0.0113856 -0.562501
0 0.0091893 -0.471794
0 0.00344767 -0.177009
0 -0.0036241 0.186067
0 -0.00929766 0.477357
0 -0.0113841 0.58448
0 -0.0090785 0.466105
0 -0.00327033 0.167904
0 0.00379956 -0.195076
0 0.00940355 -0.464578
0 0.284039 -0.553583
0 0.229247 -0.464313
0 0.0860097 -0.174203
0 -0.090411 0.183117
0 -0.23195 0.469788
0 -0.284002 0.575212
0 -0.226483 0.458715
0 -0.0815854 0.165242
0 0.0947884 -0.191983
0 0.234592 -0.457212
0 0.447109 -0.331088
0 0.36086 -0.26722
0 0.135389 -0.100256
0 -0.142317 0.105387
0 -0.365115 0.270371
0 -0.44705 0.331044
0 -0.356509 0.263998
0 -0.128424 0.0950992
0 0.149207 -0.110489
0 0.369274 -0.27345
0 0.357245 0
0 0.30333 0
0 0.113804 0
0 -0.119628 0
0 -0.306907 0
0 -0.375779 0
0 -0.299673 0
0 -0.10795 0
0 0.12542 0
0 0.295053 0
0.050413 0.219417 0.383724
0.136658 0.183587 0.321064
0.168362 0.0689361 0.12056
0.135075 -0.0724663 -0.126734
0.0496739 -0.185913 -0.325138
-0.0548919 -0.227633 -0.3981
-0.13828 -0.181531 -0.317473
-0.168318 -0.0653942 -0.114366
-0.133385 0.0758454 0.132639
-0.0453563 0.18122 0.316923
0.0813763 -0.00306334 0.619405
0.220593 -0.00255473 0.518259
0.271769 -0.000959217 0.194607
0.218037 0.00100834 -0.204573
0.0801835 0.00258691 -0.524834
-0.0886061 0.00316741 -0.642612
-0.22321 0.00252592 -0.512464
-0.271697 0.00090993 -0.184609
-0.215309 -0.00105552 0.214105
-0.0732138 -0.00253005 0.511575
0.080944 -0.224362 0.616115
0.219421 -0.187497 0.515505
0.270326 -0.0704032 0.193573
0.216879 0.0740088 -0.203486
0.0797575 0.18987 -0.522046
-0.0881356 0.232477 -0.639198
-0.222025 0.185394 -0.509741
-0.270254 0.0667861 -0.183628
-0.214165 -0.0774616 0.212967
-0.0728249 -0.185304 0.508858
0.0492829 -0.3591 0.375123
0.133595 -0.300096 0.313866
0.164588 -0.112683 0.117858
0.132048 0.118454 -0.123893
0.0485604 0.303893 -0.317849
-0.0536613 0.37209 -0.389176
-0.13518 0.296731 -0.310356
-0.164545 0.106894 -0.111802
-0.130395 -0.12398 0.129666
-0.0443396 -0.296586 0.309819
-0.00139188 -0.355295 -0.0105945
-0.00377307 -0.296916 -0.0088644
-0.00464843 -0.111489 -0.00332862
-0.00372935 0.117199 0.00349907
-0.00137148 0.300673 0.0089769
0.00151553 0.368146 0.0109914
0.00381784 0.293587 0.00876531
0.00464719 0.105761 0.00315759
0.00368271 -0.122667 -0.00366209
0.00125227 -0.293443 -0.00875011
-0.0515297 -0.214414 -0.392224
-0.139685 -0.179183 -0.328175
-0.172092 -0.0672817 -0.12323
-0.138067 0.0707271 0.129541
-0.0507743 0.181451 0.332339
0.0561076 0.22217 0.406918
0.141343 0.177174 0.324506
0.172046 0.0638249 0.116899
0.136339 -0.0740273 -0.135577
0.046361 -0.177088 -0.323943
-0.0817869 0.0091893 -0.622531
-0.221705 0.0076764 -0.52087
-0.273139 0.00288237 -0.195588
-0.219137 -0.00302996 0.205605
-0.0805878 -0.0077734 0.52748
0.0890525 -0.0095178 0.645851
0.224335 -0.00759018 0.515047
0.273067 -0.00273427 0.185539
0.216394 0.00317145 -0.215184
0.0735833 0.00758957 -0.514157
-0.0804902 0.229247 -0.61266
-0.218098 0.191379 -0.512407
-0.268696 0.0718583 -0.192407
-0.215571 -0.075538 0.20226
-0.0792764 -0.193793 0.518901
0.0876038 -0.237282 0.635346
0.220686 -0.189226 0.506668
0.268624 -0.0681661 0.182522
0.212875 0.0790685 -0.21169
0.0724166 0.189338 -0.506005
-0.0481397 0.36086 -0.366421
-0.125847 0.291249 -0.295737
-0.155001 0.109272 -0.110956
-0.124355 -0.114863 0.116634
-0.0457315 -0.294683 0.299224
0.0505352 -0.360812 0.366372
0.127305 -0.287737 0.292171
0.15496 -0.103651 0.105248
0.12283 0.120425 -0.12228
0.0433111 0.298039 -0.302632
0 0.134032 0
0 0.113804 0
0 0.0426974 0
0 -0.0448824 0
0 -0.115146 0
0 -0.140986 0
0 -0.112432 0
0 -0.0405011 0
0 0.0470554 0
0 0.110699 0
0.0813763 0.0823216 0.272682
0.220593 0.0689361 0.228076
0.271769 0.025886 0.0856428
0.218037 -0.0272117 -0.0900285
0.0801835 -0.0698117 -0.230969
-0.0886061 -0.0854779 -0.2828
-0.22321 -0.0681661 -0.225525
-0.271697 -0.0245561 -0.0812432
-0.215309 0.0284788 0.0942233
-0.0732138 0.0679905 0.225212
0.131357 -0.00114931 0.440162
0.35608 -0.000959217 0.368157
0.43869 -0.000360165 0.138244
0.351955 0.000378606 -0.145324
0.129431 0.000971318 -0.372829
-0.143027 0.0011893 -0.456495
-0.360303 0.000948426 -0.364041
-0.438573 0.000341659 -0.131142
-0.34755 -0.000396304 0.152094
-0.118181 -0.000949234 0.363536
0.130659 -0.0841768 0.437824
0.354189 -0.0704032 0.366201
0.436359 -0.0264365 0.137509
0.350085 0.0277904 -0.144552
0.128744 0.0712964 -0.370848
-0.142267 0.0872962 -0.45407
-0.35839 0.0696159 -0.362107
-0.436243 0.0250783 -0.130445
-0.345703 -0.0290853 0.151286
-0.117553 -0.0695228 0.361605
0.0795521 -0.134728 0.26657
0.215647 -0.112683 0.222963
0.265678 -0.0423127 0.0837229
0.213149 0.0444796 -0.0880109
0.0783858 0.114113 -0.225792
-0.0866196 0.139721 -0.276461
-0.218207 0.111423 -0.22047
-0.265608 0.040139 -0.0794217
-0.210483 -0.0465521 0.0921111
-0.0715726 -0.111274 0.220164
-0.00224676 -0.133301 -0.00752864
-0.00609046 -0.111489 -0.00629707
-0.00750343 -0.0418643 -0.00236456
-0.00601991 0.0440084 0.00248565
-0.00221382 0.112903 0.006377
0.00244636 0.13824 0.00780802
0.00616273 0.110243 0.00622663
0.00750144 0.0397135 0.00224308
0.00594462 -0.0460588 -0.00260146
0.0020214 -0.110095 -0.00621801
-0.0831788 -0.0804446 -0.278723
-0.225479 -0.0672817 -0.233127
-0.27779 -0.0252644 -0.0875402
-0.222867 0.0265582 0.0920228
-0.0819594 0.0681352 0.236086
0.0905683 0.0834252 0.289065
0.228154 0.0665294 0.23052
0.277716 0.0239665 0.0830423
0.220079 -0.0277957 -0.0963105
0.0748355 -0.0664402 -0.230201
-0.13202 0.00344767 -0.442383
-0.357874 0.00288236 -0.370013
-0.440901 0.00108232 -0.138941
-0.353729 -0.00113774 0.146056
-0.130084 -0.00291888 0.374708
0.143748 -0.0035739 0.458796
0.362119 -0.00285007 0.365875
0.440784 -0.00102671 0.131803
0.349302 0.0011908 -0.152861
0.118778 0.00284748 -0.36537
-0.129927 0.0860097 -0.435369
-0.352053 0.0718583 -0.364
-0.433726 0.0269819 -0.136681
-0.347973 -0.0283636 0.143681
-0.127967 -0.0727671 0.368614
0.141409 -0.0890965 0.451333
0.356229 -0.0710518 0.359925
0.433611 -0.0255956 0.129659
0.34362 0.0296876 -0.15038
0.116894 0.0710365 -0.359577
-0.0777068 0.135389 -0.260386
-0.20314 0.109272 -0.210157
-0.250201 0.0409969 -0.0788473
-0.200732 -0.0430948 0.0828822
-0.0738194 -0.11056 0.212635
0.0815735 -0.135371 0.260352
0.205495 -0.107954 0.207623
0.250135 -0.038888 0.0747915
0.198271 0.0451813 -0.086895
0.0699124 0.111819 -0.215057
0 -0.140891 0
0 -0.119628 0
0 -0.0448824 0
0 0.0471792 0
0 0.121039 0
0 0.148201 0
0 0.118186 0
0 0.0425737 0
0 -0.0494634 0
0 -0.116364 0
0.080944 -0.0865343 0.0564377
0.219421 -0.0724663 0.0472047
0.270326 -0.0272117 0.0177254
0.216879 0.0286052 -0.0186332
0.0797575 0.0733871 -0.0478038
-0.0881356 0.0898553 -0.0585312
-0.222025 0.071657 -0.0466767
-0.270254 0.0258137 -0.0168148
-0.214165 -0.0299371 0.0195013
-0.0728249 -0.0714698 0.0466127
0.130659 0.00120813 0.0911013
0.354189 0.00100834 0.0761972
0.436359 0.000378605 0.0286123
0.350085 -0.000397996 -0.0300775
0.128744 -0.00102105 -0.0771643
-0.142267 -0.0012502 -0.0944806
-0.35839 -0.000996994 -0.0753451
-0.436243 -0.000359152 -0.0271423
-0.345703 0.000416597 0.031479
-0.117553 0.000997809 0.0752418
0.129965 0.0884844 0.0906173
0.352307 0.0740088 0.0757923
0.43404 0.0277904 0.0284603
0.348225 -0.0292136 -0.0299177
0.12806 -0.0749476 -0.0767542
-0.141511 -0.0917663 -0.0939785
-0.356487 -0.0731812 -0.074945
-0.433925 -0.0263626 -0.0269981
-0.343867 0.0305747 0.0313118
-0.116929 0.0730805 0.0748421
0.0791295 0.141623 0.0551725
0.214502 0.118454 0.0461464
0.264267 0.0444796 0.0173281
0.212017 -0.0467574 -0.0182155
0.0779695 -0.119957 -0.046732
-0.0861594 -0.146876 -0.057219
-0.217047 -0.117129 -0.0456304
-0.264197 -0.0421944 -0.0164379
-0.209364 0.0489359 0.0190642
-0.0711924 0.116968 0.0455678
-0.00223483 0.140122 -0.00155822
-0.0060581 0.117198 -0.0013033
-0.00746356 0.0440084 -0.000489392
-0.00598796 -0.0462619 0.000514456
-0.00220207 -0.118686 0.00131984
0.00243337 -0.145319 0.00161602
0.00612999 -0.115888 0.00128873
0.00746158 -0.0417472 0.000464248
0.00591302 0.0484174 -0.000538424
0.00201066 0.115729 -0.00128696
-0.0827369 0.0845612 -0.0576878
-0.224281 0.0707271 -0.0482502
-0.276314 0.0265582 -0.0181181
-0.221683 -0.0279183 0.0190459
-0.0815243 -0.0716246 0.0488624
0.0900872 -0.0876979 0.0598275
0.226942 -0.0699364 0.0477109
0.27624 -0.0251937 0.0171872
0.218909 0.0292191 -0.0199333
0.074438 0.0698402 -0.0476452
-0.131319 -0.0036241 -0.091561
-0.355973 -0.00302996 -0.0765812
-0.438559 -0.00113774 -0.0287565
-0.35185 0.001196 0.0302291
-0.129393 0.00306835 0.0775531
0.142984 0.00375691 0.094957
0.360196 0.00299603 0.0757248
0.438442 0.00107928 0.0272791
0.347446 -0.00125177 -0.0316376
0.118147 -0.00299319 -0.0756215
-0.129236 -0.090411 -0.0901093
-0.350183 -0.0755379 -0.0753372
-0.431422 -0.0283636 -0.0282888
-0.346124 0.029816 0.0297374
-0.127287 0.0764933 0.0762917
0.140658 0.0936588 0.0934122
0.354337 0.0746903 0.0744936
0.431307 0.0269062 0.0268354
0.341795 -0.0312078 -0.0311241
0.116273 -0.0746717 -0.0744225
-0.077294 -0.142317 -0.0538927
-0.202061 -0.114863 -0.0434966
-0.248872 -0.0430948 -0.0163192
-0.199666 0.0453001 0.0171543
-0.0734273 0.116218 0.0440095
0.0811402 0.142298 0.0538856
0.204403 0.113478 0.0429722
0.248806 0.040878 0.0154798
0.197217 -0.0474933 -0.0179848
0.069541 -0.117541 -0.0445108
0 -0.361458 0
0 -0.306907 0
0 -0.115146 0
0 0.121039 0
0 0.310526 0
0 0.38021 0
0 0.303206 0
0 0.109223 0
0 -0.126899 0
0 -0.298533 0
0.0492829 -0.222005 -0.181581
0.133595 -0.185913 -0.151874
0.164588 -0.0698117 -0.0570294
0.132048 0.0733871 0.0599498
0.0485604 0.188275 0.153802
-0.0536613 0.230525 0.188316
-0.13518 0.183837 0.150176
-0.164545 0.0662252 0.0540993
-0.130395 -0.0768038 -0.0627432
-0.0443396 -0.183357 -0.14997
0.0795521 0.00309947 -0.293107
0.215647 0.00258691 -0.245155
0.265678 0.000971318 -0.0920563
0.213149 -0.00102105 0.0967707
0.0783858 -0.00261954 0.248266
-0.0866196 -0.00320741 0.303978
-0.218207 -0.00255778 0.242414
-0.265608 -0.000921408 0.087327
-0.210483 0.00106878 -0.101279
-0.0715726 0.00255989 -0.242081
0.0791295 0.227008 -0.29155
0.214502 0.18987 -0.243853
0.264267 0.0712964 -0.0915672
0.212017 -0.0749475 0.0962568
0.0779695 -0.192279 0.246947
-0.0861594 -0.235428 0.302363
-0.217047 -0.187746 0.241126
-0.264197 -0.0676335 0.086863
-0.209364 0.0784396 -0.100741
-0.0711924 0.187489 -0.240795
0.0481782 0.363335 -0.177511
0.1306 0.303893 -0.148471
0.1609 0.114113 -0.0557509
0.129087 -0.119957 0.0586062
0.047472 -0.30775 0.150354
-0.0524583 -0.376811 0.184095
-0.13215 -0.300495 0.146811
-0.160857 -0.10825 0.0528867
-0.127472 0.125546 -0.0613366
-0.0433456 0.300083 -0.146609
-0.00136068 0.359485 0.00501338
-0.0036885 0.300673 0.0041932
-0.00454422 0.112903 0.00157456
-0.00364576 -0.118686 -0.00165518
-0.00134073 -0.304488 -0.0042464
0.00148158 -0.372818 -0.00519931
0.00373225 -0.297312 -0.00414632
0.00454301 -0.107103 -0.00149367
0.00360015 0.124215 0.00173231
0.0012242 0.296903 0.00414062
-0.0503745 0.216943 0.185603
-0.136554 0.181451 0.155239
-0.168234 0.0681352 0.0582926
-0.134972 -0.0716246 -0.0612778
-0.049636 -0.183753 -0.157209
0.05485 -0.224989 -0.192488
0.138174 -0.179422 -0.153503
0.168189 -0.0646348 -0.0552979
0.133284 0.0749618 0.0641329
0.0453217 0.179176 0.153292
-0.0799535 -0.00929766 0.294586
-0.216734 -0.0077734 0.246391
-0.267017 -0.00291888 0.0925202
-0.214224 0.00306835 -0.0972582
-0.0787809 0.00787189 -0.249518
0.0870564 0.00963841 -0.30551
0.219307 0.00768636 -0.243636
0.266947 0.00276892 -0.0877672
0.211544 -0.00321144 0.10179
0.0719338 -0.00767906 0.243303
-0.0786859 -0.23195 0.289915
-0.213209 -0.193793 0.242388
-0.262673 -0.0727671 0.0910156
-0.210738 0.0764933 -0.0956769
-0.0774991 0.196244 -0.245459
0.0856397 0.240283 -0.300542
0.215738 0.191619 -0.239673
0.262603 0.0690282 -0.0863395
0.208103 -0.0800638 0.100137
0.0707933 -0.191571 0.239445
-0.0470606 -0.365115 0.173393
-0.123025 -0.294683 0.139945
-0.151526 -0.11056 0.052505
-0.121567 0.116218 -0.0551918
-0.0447063 0.298158 -0.141595
0.0494023 0.365067 -0.17337
0.124451 0.29113 -0.138258
0.151486 0.104873 -0.0498042
0.120076 -0.121845 0.057864
0.0423402 -0.301554 0.143208
0 -0.442571 0
0 -0.375779 0
0 -0.140986 0
0 0.148201 0
0 0.38021 0
0 0.465532 0
0 0.371248 0
0 0.133734 0
0 -0.155376 0
0 -0.365525 0
-0.00139188 -0.271824 -0.349545
-0.00377307 -0.227633 -0.29236
-0.00464843 -0.0854779 -0.109782
-0.00372935 0.0898553 0.115404
-0.00137148 0.230525 0.296071
0.00151553 0.282256 0.362509
0.00381784 0.225091 0.289091
0.00464719 0.0810867 0.104142
0.00368271 -0.0940391 -0.120781
0.00125227 -0.224503 -0.288694
-0.00224676 0.00379501 -0.564232
-0.00609046 0.00316741 -0.471925
-0.00750343 0.0011893 -0.177209
-0.00601991 -0.0012502 0.186284
-0.00221382 -0.00320741 0.477913
0.00244636 -0.00392715 0.585162
0.00616273 -0.00313178 0.466648
0.00750144 -0.00112818 0.168104
0.00594462 0.00130863 -0.194963
0.0020214 0.00313435 -0.466007
-0.00223483 0.27795 -0.561235
-0.0060581 0.232477 -0.469419
-0.00746356 0.0872962 -0.176268
-0.00598796 -0.0917663 0.185294
-0.00220207 -0.235428 0.475374
0.00243337 -0.288259 0.582053
0.00612999 -0.229878 0.464169
0.00746158 -0.0828108 0.167211
0.00591302 0.0960422 -0.193928
0.00201066 0.229562 -0.463532
-0.00136068 0.444869 -0.341709
-0.0036885 0.37209 -0.285806
-0.00454422 0.139721 -0.107321
-0.00364576 -0.146876 0.112817
-0.00134073 -0.376811 0.289433
0.00148158 -0.46137 0.354384
0.00373225 -0.367929 0.28261
0.00454301 -0.132543 0.101807
0.00360015 0.153719 -0.118073
0.0012242 0.367424 -0.282222
3.84292e-05 0.440155 0.00965078
0.000104172 0.368146 0.00807192
0.000128341 0.13824 0.00303101
0.000102966 -0.145319 -0.00318626
3.78658e-05 -0.372818 -0.00817434
-4.18429e-05 -0.456481 -0.0100087
-0.00010541 -0.36403 -0.00798169
-0.000128307 -0.131138 -0.0028753
-0.000101678 0.15209 0.0033347
-3.45746e-05 0.36353 0.00797071
0.00142271 0.265626 0.357287
0.00385664 0.22217 0.298836
0.00475138 0.0834252 0.112213
0.00381198 -0.0876979 -0.11796
0.00140185 -0.224989 -0.302627
-0.00154911 -0.275478 -0.370539
-0.00390242 -0.219686 -0.295495
-0.00475012 -0.0791393 -0.106448
-0.00376428 0.0917837 0.123456
-0.00128001 0.219384 0.295089
0.0022581 -0.0113841 0.56708
0.00612117 -0.0095178 0.474304
0.00754127 -0.0035739 0.178102
0.00605023 0.00375691 -0.187223
0.00222498 0.00963841 -0.480322
-0.00245869 0.0118013 -0.588112
-0.00619378 0.0094112 -0.469001
-0.00753927 0.00339028 -0.168952
-0.00597457 -0.00393211 0.195946
-0.0020316 -0.00940229 0.468359
0.0022223 -0.284002 0.558089
0.00602161 -0.237282 0.466597
0.00741855 -0.0890964 0.175206
0.00595185 0.0936588 -0.184178
0.00218879 0.240283 -0.47251
-0.00241869 0.294205 -0.578546
-0.006093 0.234619 -0.461372
-0.00741659 0.0845187 -0.166204
-0.00587737 -0.0980308 0.192765
-0.00199939 -0.234561 0.460933
0.00132912 -0.44705 0.333783
0.00347457 -0.360812 0.269395
0.0042795 -0.135371 0.101072
0.00343338 0.142298 -0.106245
0.00126263 0.365067 -0.272572
-0.00139525 0.44699 -0.333738
-0.00351483 0.356461 -0.266147
-0.00427837 0.128407 -0.0958733
-0.00339127 -0.149187 0.111389
-0.0011958 -0.369224 0.275676
0 -0.352937 0
0 -0.299673 0
0 -0.112432 0
0 0.118186 0
0 0.303206 0
0 0.371248 0
0 0.296059 0
0 0.106649 0
0 -0.123908 0
0 -0.291496 0
-0.0515297 -0.216772 -0.382651
-0.139685 -0.181531 -0.320051
-0.172092 -0.0681661 -0.120179
-0.138067 0.071657 0.126334
-0.0507743 0.183837 0.324113
0.0561076 0.225091 0.396844
0.141343 0.179503 0.316472
0.172046 0.0646641 0.114005
0.136339 -0.0749935 -0.132221
0.046361 -0.179034 -0.316037
-0.0831788 0.0030264 -0.617673
-0.225479 0.00252592 -0.516623
-0.27779 0.000948426 -0.193993
-0.222867 -0.000996994 0.203928
-0.0819593 -0.00255778 0.523178
0.0905684 -0.00313178 0.640584
0.228154 -0.00249751 0.510846
0.277716 -0.000899696 0.184026
0.220079 0.00104359 -0.213429
0.0748355 0.00249955 -0.510145
-0.0827369 0.221657 -0.614392
-0.224281 0.185394 -0.513878
-0.276314 0.0696159 -0.192962
-0.221683 -0.0731812 0.202844
-0.0815242 -0.187746 0.520399
0.0900872 -0.229878 0.637181
0.226942 -0.183321 0.508132
0.27624 -0.0660395 0.183049
0.218909 0.0765905 -0.212295
0.074438 0.183069 -0.507435
-0.0503745 0.35477 -0.374074
-0.136554 0.296731 -0.312875
-0.168234 0.111423 -0.117486
-0.134972 -0.117129 0.123502
-0.049636 -0.300495 0.316846
0.05485 -0.367929 0.387948
0.138174 -0.293414 0.309377
0.168189 -0.105698 0.11145
0.133284 0.122586 -0.129256
0.0453217 0.293009 -0.308953
0.00142271 0.351011 0.0105648
0.00385664 0.293587 0.00883645
0.00475138 0.110243 0.0033181
0.00381198 -0.115888 -0.00348803
0.00140185 -0.297312 -0.00894856
-0.00154911 -0.36403 -0.0109567
-0.00390242 -0.290304 -0.00873767
-0.00475012 -0.104578 -0.00314764
-0.00376428 0.121287 0.00365054
-0.00128001 0.289904 0.00872564
0.0526711 0.211829 0.391127
0.142779 0.177174 0.32714
0.175905 0.0665294 0.122841
0.141125 -0.0699364 -0.129133
0.051899 -0.179422 -0.33129
-0.0573505 -0.219686 -0.405634
-0.144474 -0.175193 -0.323483
-0.175858 -0.0631113 -0.116531
-0.13936 0.0731949 0.135149
-0.0473879 0.174952 0.323037
0.0835986 -0.0090785 0.62079
0.226615 -0.00759018 0.519227
0.27919 -0.00285007 0.19497
0.22399 0.00299603 -0.204956
0.0823723 0.00768636 -0.525816
-0.0910249 0.0094112 -0.643814
-0.229304 0.00750514 -0.513421
-0.279116 0.00270364 -0.184954
-0.221188 -0.00313573 0.214505
-0.0752132 -0.00749805 0.512719
0.0822731 -0.226483 0.610947
0.222929 -0.189226 0.51079
0.274647 -0.0710518 0.1918
0.220347 0.0746903 -0.201622
0.0810326 0.191619 -0.517264
-0.0895439 0.234619 -0.633341
-0.225573 0.187101 -0.50507
-0.274574 0.0674012 -0.181946
-0.21759 -0.0781765 0.211022
-0.0740207 -0.187055 0.50459
0.0492061 -0.356509 0.365396
0.128634 -0.287737 0.29491
0.158434 -0.107954 0.110645
0.127109 0.113478 -0.116307
0.0467445 0.29113 -0.298388
-0.0516546 0.356461 -0.365348
-0.130125 0.284268 -0.291354
-0.158392 0.102401 -0.104954
-0.12555 -0.118973 0.121939
-0.0442704 -0.294446 0.301786
0 -0.127138 0
0 -0.10795 0
0 -0.0405011 0
0 0.0425737 0
0 0.109223 0
0 0.133734 0
0 0.106649 0
0 0.0384178 0
0 -0.044635 0
0 -0.105005 0
-0.0817869 -0.0780871 -0.268128
-0.221705 -0.0653943 -0.224264
-0.273139 -0.0245561 -0.0842117
-0.219137 0.0258137 0.0885248
-0.0805878 0.0662253 0.22711
0.0890525 0.0810868 0.278075
0.224335 0.0646641 0.221757
0.273067 0.0232945 0.0798855
0.216394 -0.0270155 -0.0926489
0.0735833 -0.0644932 -0.221451
-0.13202 0.00109019 -0.43281
-0.357874 0.00090993 -0.362005
-0.440901 0.000341659 -0.135934
-0.353729 -0.000359152 0.142895
-0.130084 -0.000921408 0.366599
0.143748 -0.00112818 0.448866
0.362119 -0.000899696 0.357958
0.440784 -0.000324105 0.12895
0.349302 0.000375941 -0.149553
0.118778 0.000900406 -0.357464
-0.131319 0.0798469 -0.430511
-0.355973 0.0667862 -0.360082
-0.438559 0.0250783 -0.135212
-0.35185 -0.0263626 0.142136
-0.129393 -0.0676335 0.364652
0.142984 -0.0828109 0.446482
0.360196 -0.0660395 0.356057
0.438442 -0.02379 0.128265
0.347446 0.0275909 -0.148759
0.118147 0.0659466 -0.355565
-0.0799535 0.127798 -0.262118
-0.216734 0.106894 -0.219237
-0.267017 0.040139 -0.0823239
-0.214224 -0.0421944 0.08654
-0.0787809 -0.10825 0.22202
0.0870564 -0.132543 0.271841
0.219307 -0.105699 0.216785
0.266947 -0.0380767 0.0780945
0.211544 0.0441604 -0.090572
0.0719338 0.10555 -0.216487
0.0022581 0.126444 0.0074029
0.00612117 0.105761 0.00619184
0.00754127 0.0397136 0.00232505
0.00605023 -0.0417472 -0.00244411
0.00222498 -0.107103 -0.00627039
-0.00245869 -0.131138 -0.00767752
-0.00619378 -0.104578 -0.0061226
-0.00753926 -0.0376732 -0.0022056
-0.00597457 0.0436924 0.002558
-0.0020316 0.104432 0.00611416
0.0835986 0.0763066 0.274067
0.226615 0.0638249 0.229232
0.27919 0.0239665 0.0860771
0.22399 -0.0251937 -0.0904851
0.0823723 -0.0646349 -0.232141
-0.0910249 -0.0791394 -0.284234
-0.229304 -0.0631113 -0.226669
-0.279116 -0.0227351 -0.0816551
-0.221188 0.0263675 0.0947013
-0.0752132 0.0630226 0.226356
0.132686 -0.00327033 0.434994
0.359677 -0.00273427 0.36383
0.443123 -0.00102671 0.136619
0.355511 0.00107928 -0.143616
0.130739 0.00276892 -0.368447
-0.144472 0.00339028 -0.451129
-0.363945 0.00270364 -0.359762
-0.443005 0.000973957 -0.1296
-0.351063 -0.00112961 0.150307
-0.119377 -0.00270101 0.359268
0.130582 -0.0815854 0.428098
0.353828 -0.0681661 0.357919
0.435913 -0.0255956 0.134397
0.349728 0.0269063 -0.14128
0.128612 0.0690282 -0.362454
-0.142122 0.0845188 -0.443793
-0.358023 0.0674012 -0.353913
-0.435797 0.0242805 -0.127492
-0.345352 -0.0281621 0.147867
-0.117484 -0.0673825 0.353572
0.0780989 -0.128424 0.256037
0.204166 -0.103651 0.206647
0.251464 -0.038888 0.0775304
0.201745 0.040878 -0.0814979
0.0741919 0.104873 -0.209084
-0.0819851 0.128407 -0.256003
-0.206532 0.102401 -0.204155
-0.251397 0.0368877 -0.0735423
-0.199271 -0.0428572 0.0854437
-0.0702652 -0.106067 0.211465
0 0.147713 0
0 0.12542 0
0 0.0470554 0
0 -0.0494634 0
0 -0.126899 0
0 -0.155376 0
0 -0.123908 0
0 -0.0446349 0
0 0.0518582 0
0 0.121998 0
-0.0804902 0.0907239 -0.0501593
-0.218098 0.0758432 -0.0420611
-0.268696 0.0284779 -0.0157955
-0.215571 -0.0299362 0.0166045
-0.0792764 -0.0768016 0.042599
0.0876038 -0.0940364 0.0521584
0.220686 -0.0749913 0.0415948
0.268624 -0.0270147 0.0149841
0.212875 0.031334 -0.0173748
0.0724166 0.0749301 -0.0414272
-0.129927 -0.00126662 -0.0809667
-0.352053 -0.00105549 -0.0678947
-0.433726 -0.000396292 -0.025497
-0.347973 0.000416583 0.0268028
-0.127967 0.00106874 0.0687629
0.141409 0.00130858 0.0841937
0.356229 0.00104356 0.067142
0.433611 0.000375928 0.0241873
0.34362 -0.000436103 -0.0280463
0.116894 -0.00104612 -0.0668715
-0.129236 -0.0927685 -0.0805366
-0.350183 -0.0774593 -0.0675341
-0.431422 -0.0290844 -0.0253616
-0.346124 0.0305737 0.0266605
-0.127287 0.0784371 0.0683976
0.140658 0.0960393 0.0837465
0.354337 0.0765882 0.0667855
0.431307 0.02759 0.0240588
0.341795 -0.0320023 -0.0278973
0.116273 -0.0766187 -0.0665163
-0.0786859 -0.14848 -0.0490349
-0.213209 -0.123977 -0.0411183
-0.262673 -0.0465507 -0.0154414
-0.210738 0.0489345 0.0162323
-0.0774991 0.125542 0.041644
0.0856397 0.153714 0.0509893
0.215738 0.122583 0.0406625
0.262603 0.044159 0.0146483
0.208103 -0.051221 -0.0169853
0.0707933 -0.122631 -0.0404986
0.0022223 -0.146906 0.00138488
0.00602162 -0.122663 0.00116129
0.00741856 -0.0460574 0.000436107
0.00595185 0.048416 -0.000458443
0.00218879 0.124212 -0.00117614
-0.00241869 0.152085 -0.00144007
-0.006093 0.121284 -0.00114842
-0.00741659 0.043691 -0.000413705
-0.00587737 -0.0506781 0.000479712
-0.00199939 -0.121332 0.00114379
0.0822731 -0.0886553 0.0512703
0.222929 -0.0740251 0.0429929
0.274647 -0.0277948 0.0161454
0.220347 0.0292182 -0.0169723
0.0810326 0.0749596 -0.0435426
-0.0895439 0.0917809 -0.0533138
-0.225573 0.0731927 -0.0425162
-0.274574 0.0263667 -0.015316
-0.21759 -0.0305834 0.0177597
-0.0740207 -0.0732216 0.0423449
0.130582 0.00379956 0.0813753
0.353828 0.00317136 0.0682369
0.435913 0.00119076 0.0256255
0.349728 -0.00125174 -0.0269379
0.128612 -0.00321134 -0.0691095
-0.142122 -0.00393199 -0.0846181
-0.358023 -0.00313564 -0.0674803
-0.435797 -0.00112957 -0.0243091
-0.345352 0.00131027 0.0281877
-0.117484 0.00313811 0.067209
0.128512 0.0947884 0.0800851
0.348075 0.0790662 0.0671254
0.428823 0.0296867 0.0252076
0.344039 -0.0312068 -0.0264986
0.12652 -0.0800614 -0.0679824
-0.13981 -0.0980279 -0.0832381
-0.352203 -0.0781742 -0.06638
-0.428709 -0.0281612 -0.0239127
-0.339737 0.0326674 0.0277289
-0.115621 0.078287 0.0661434
0.0768607 0.149207 0.0478974
0.200929 0.120425 0.0386578
0.247477 0.0451813 0.0145038
0.198547 -0.0474933 -0.015246
0.0730156 -0.121845 -0.0391137
-0.0806853 -0.149187 -0.0478911
-0.203257 -0.118973 -0.0381917
-0.247411 -0.0428572 -0.0137577
-0.196112 0.0497928 0.0159841
-0.0691511 0.123232 0.0395592
0 0.365574 0
0 0.295053 0
0 0.110699 0
0 -0.116364 0
0 -0.298533 0
0 -0.365525 0
0 -0.291496 0
0 -0.105005 0
0 0.121998 0
0 0.301933 0
-0.0481397 0.224533 0.187162
-0.125846 0.18122 0.151057
-0.155001 0.0679905 0.0566742
-0.124355 -0.0714698 -0.0595744
-0.0457315 -0.183357 -0.152839
0.0505351 -0.224503 -0.187137
0.127305 -0.179035 -0.149236
0.154959 -0.0644932 -0.0537589
0.12283 0.0749301 0.0624588
0.0433111 0.185445 0.154579
-0.0777068 -0.00313476 0.302115
-0.20314 -0.00253006 0.243836
-0.250201 -0.000949234 0.0914831
-0.200732 0.000997809 -0.0961645
-0.0738194 0.00255989 -0.246711
0.0815735 0.00313435 -0.302075
0.205495 0.00249955 -0.240896
0.250134 0.000900406 -0.0867773
0.198271 -0.00104612 0.10082
0.0699124 -0.00258904 0.249521
-0.077294 -0.229593 0.30051
-0.202061 -0.185304 0.242541
-0.248872 -0.0695228 0.0909971
-0.199666 0.0730805 -0.0956537
-0.0734272 0.187489 -0.245401
0.0811401 0.229562 -0.30047
0.204403 0.183069 -0.239616
0.248806 0.0659466 -0.0863163
0.197217 -0.0766188 0.100285
0.069541 -0.189624 0.248195
-0.0470606 -0.367473 0.182966
-0.123025 -0.296586 0.147671
-0.151526 -0.111274 0.0554038
-0.121567 0.116968 -0.0582389
-0.0447063 0.300083 -0.149413
0.0494023 0.367424 -0.182942
0.124451 0.29301 -0.145891
0.151486 0.10555 -0.0525539
0.120076 -0.122631 0.0610587
0.0423402 -0.303501 0.151114
0.00132912 -0.363579 -0.00516745
0.00347457 -0.293443 -0.00417063
0.0042795 -0.110095 -0.00156475
0.00343337 0.115729 0.00164482
0.00126263 0.296903 0.00421981
-0.00139525 0.36353 0.00516676
-0.00351483 0.289905 0.00412034
-0.00427836 0.104432 0.00148426
-0.00339127 -0.121332 -0.00172446
-0.0011958 -0.300285 -0.00426787
0.0492061 -0.219413 -0.191307
0.128634 -0.177088 -0.154403
0.158434 -0.0664402 -0.0579296
0.127109 0.0698402 0.060894
0.0467444 0.179176 0.156224
-0.0516545 0.219384 0.191282
-0.130125 0.174952 0.152542
-0.158392 0.0630226 0.0549497
-0.12555 -0.0732216 -0.0638423
-0.0442704 -0.181216 -0.158003
0.0780989 0.00940355 -0.30364
0.204166 0.00758957 -0.245066
0.251464 0.00284748 -0.0919447
0.201745 -0.00299319 0.0966498
0.0741919 -0.00767906 0.247956
-0.0819851 -0.0094023 0.303599
-0.206532 -0.00749805 0.242111
-0.251397 -0.00270101 0.0872152
-0.199271 0.00313811 -0.101329
-0.0702652 0.00776652 -0.25078
0.0768607 0.234592 -0.298825
0.200928 0.189338 -0.241181
0.247477 0.0710365 -0.0904869
0.198546 -0.0746717 0.0951174
0.0730156 -0.191571 0.244025
-0.0806852 -0.234561 0.298786
-0.203257 -0.187055 0.238273
-0.247411 -0.0673825 0.0858324
-0.196112 0.078287 -0.0997226
-0.0691511 0.193753 -0.246804
0.045969 0.369274 -0.178722
0.120172 0.298039 -0.144246
0.148011 0.111819 -0.0541186
0.118747 -0.117541 0.056888
0.0436693 -0.301554 0.145947
-0.0482564 -0.369224 0.178698
-0.121564 -0.294446 0.142507
-0.147972 -0.106067 0.0513348
-0.117291 0.123232 -0.0596423
-0.041358 0.304988 -0.147609
