# vtk DataFile Version 3.0
Velocity field
ASCII
DATASET STRUCTURED_POINTS
DIMENSIONS 8 8 8
SPACING 0.8 0.8 0.8
ORIGIN 0 0 0
POINT_DATA 512
VECTORS velocity float
0 0.212222 0
0 0.147857 0
0 -0.0061968 0
0 -0.156491 0
0 -0.21186 0
0 -0.138718 0
0 0.0185693 0
0 0.164592 0
0 0.0834911 0.216605
0 0.0581688 0.16
0 -0.0024379 -0.00670574
0 -0.0615658 -0.169344
0 -0.0833488 -0.229261
0 -0.0545734 -0.150111
0 0.0073054 0.0200944
0 0.0647529 0.167991
0 -0.0958847 0.30182
0 -0.0668035 0.222947
0 0.00279979 -0.00934387
0 0.0707048 -0.235966
0 0.0957212 -0.319455
0 0.0626744 -0.209166
0 -0.00838983 0.0279998
0 -0.0743649 0.234081
0 -0.217098 0.203955
0 -0.151254 0.150656
0 0.00633917 -0.00631413
0 0.160087 -0.159455
0 0.216728 -0.215872
0 0.141905 -0.141344
0 -0.0189959 0.0189209
0 -0.168374 0.158181
0 -0.206623 -0.017626
0 -0.143955 -0.0130199
0 0.00603329 0.000545673
0 0.152362 0.0137802
0 0.20627 0.0186559
0 0.135058 0.0122151
0 -0.0180793 -0.00163516
0 -0.16025 -0.0136701
0 -0.0708128 -0.228515
0 -0.0493357 -0.168799
0 0.0020677 0.00707448
0 0.0522169 0.178656
0 0.070692 0.241867
0 0.0462863 0.158365
0 -0.00619606 -0.0211993
0 -0.05492 -0.177229
0 0.107951 -0.30079
0 0.0752104 -0.222186
0 -0.00315213 0.009312
0 -0.0796027 0.235162
0 -0.107767 0.318365
0 -0.0705617 0.208453
0 0.00944566 -0.0279043
0 0.0837234 -0.233283
0 0.221234 -0.19061
0 0.154135 -0.132799
0 -0.00645992 0.00556573
0 -0.163136 0.140555
0 -0.220856 0.190285
0 -0.144608 0.124591
0 0.0193578 -0.0166782
0 0.171581 -0.147831
0 0.147857 0
0 0.111841 0
0 -0.00468736 0
0 -0.118373 0
0 -0.160255 0
0 -0.104929 0
0 0.0140461 0
0 0.114673 0
0.0461731 0.0581688 0.213946
0.112523 0.0413205 0.15182
0.109782 -0.00173209 -0.00636403
0.0404445 -0.0437409 -0.160712
-0.0534268 -0.0592172 -0.217573
-0.11489 -0.0387729 -0.142459
-0.106658 0.00518503 0.0190516
-0.0331301 0.0451137 0.16593
0.0643382 -0.0668035 0.298116
0.156792 -0.0473771 0.211547
0.152972 0.00198595 -0.00886768
0.0563554 0.0501514 -0.223936
-0.0744464 0.0678956 -0.303171
-0.16009 0.0444553 -0.198504
-0.148621 -0.00594541 0.0265467
-0.0461639 -0.0518105 0.231208
0.0434766 -0.151254 0.201452
0.105951 -0.107269 0.142954
0.103372 0.00449654 -0.00599236
0.0380823 0.113552 -0.151327
-0.0503071 0.153728 -0.204868
-0.10818 0.100655 -0.134139
-0.100431 -0.0134614 0.017939
-0.0311953 -0.117307 0.156239
-0.00375729 -0.143955 -0.0174097
-0.00915653 -0.102094 -0.0123542
-0.00893349 0.00427956 0.000517865
-0.0032911 0.108072 0.0130778
0.00434758 0.146311 0.0177048
0.00934916 0.0957986 0.0115924
0.00867926 -0.0128119 -0.00155031
0.00269593 -0.111647 -0.0135024
-0.0487121 -0.0493357 -0.225711
-0.118711 -0.0349893 -0.160168
-0.115819 0.00146668 0.00671394
-0.0426682 0.0370383 0.169549
0.0563647 0.0501428 0.229537
0.121208 0.0328314 0.150293
0.112524 -0.00439086 -0.0200992
0.0349519 -0.0382631 -0.175054
-0.0641188 0.0752104 -0.297099
-0.156246 0.0533279 -0.210812
-0.15244 -0.0022354 0.00883683
-0.0561594 -0.0564509 0.223157
0.0741874 -0.0764238 0.302116
0.159533 -0.0500392 0.197813
0.148104 0.0066923 -0.0264545
0.0460065 0.0583306 -0.23042
-0.0406319 0.154135 -0.188271
-0.0972489 0.107387 -0.13117
-0.094876 -0.00450067 0.00549742
-0.0349526 -0.113658 0.13883
0.0461726 -0.153872 0.18795
0.0992901 -0.100749 0.123062
0.0921796 0.0134867 -0.0164735
0.0291542 0.119542 -0.146016
0 -0.0061968 0
0 -0.00468737 0
0 0.000196451 0
0 0.0049611 0
0 0.00671642 0
0 0.00439764 0
0 -0.000588685 0
0 -0.00480602 0
0.0643382 -0.0024379 0.0815112
0.156792 -0.00173209 0.0578174
0.152972 7.26072e-05 -0.00242359
0.0563554 0.00183356 -0.0612038
-0.0744464 0.0024823 -0.0828578
-0.16009 0.00162532 -0.054252
-0.148621 -0.000217346 0.00725551
-0.0461639 -0.00189075 0.0632173
0.0896497 0.00279979 0.113579
0.218475 0.00198595 0.0805637
0.213153 -8.32466e-05 -0.00337705
0.0785269 -0.00210224 -0.0852814
-0.103735 -0.00284605 -0.115455
-0.22307 -0.00186349 -0.0755963
-0.20709 0.000249217 0.01011
-0.0643255 0.00217142 0.0880878
0.0605809 0.00633917 0.076751
0.147636 0.00449654 0.0544407
0.14404 -0.000188486 -0.00228207
0.0530642 -0.00475987 -0.0576291
-0.0700985 -0.00644402 -0.0780193
-0.150742 -0.00421924 -0.0510842
-0.139941 0.000564271 0.00683178
-0.043468 0.00491644 0.0595254
-0.00523546 0.00603329 -0.0066329
-0.0127588 0.00427956 -0.00470486
-0.012448 -0.000179391 0.000197218
-0.0045859 -0.00453021 0.00498038
0.006058 -0.00613308 0.00674247
0.0130272 -0.00401568 0.00441472
0.0120939 0.000537042 -0.000590413
0.00375655 0.00467921 -0.00514425
-0.0678761 0.0020677 -0.0859934
-0.165413 0.00146668 -0.0609968
-0.161385 -6.14805e-05 0.00255687
-0.0594547 -0.00155258 0.0645684
0.0785399 -0.00210188 0.0874143
0.168892 -0.00137623 0.0572353
0.156793 0.000184053 -0.00765451
0.0487024 0.00160364 -0.0666935
-0.0893439 -0.00315213 -0.113191
-0.217715 -0.0022354 -0.0802832
-0.212412 9.37033e-05 0.00336531
-0.0782537 0.00236631 0.0849849
0.103373 0.00320354 0.115054
0.222294 0.00209755 0.0753331
0.206369 -0.000280524 -0.0100748
0.0641061 -0.00244468 -0.0877874
-0.056617 -0.00645992 -0.0717291
-0.135508 -0.00450067 -0.0499741
-0.132202 0.000188627 0.00209446
-0.0487034 0.0047635 0.0528926
0.0643375 0.00644891 0.0716068
0.138352 0.00422249 0.0468853
0.128444 -0.000565238 -0.00627624
0.0406238 -0.00501009 -0.0556306
0 -0.156491 0
0 -0.118373 0
0 0.0049611 0
0 0.125286 0
0 0.169614 0
0 0.111056 0
0 -0.0148664 0
0 -0.121369 0
0.0434766 -0.0615658 -0.100368
0.105951 -0.0437409 -0.0711924
0.103372 0.00183356 0.00298425
0.0380823 0.0463031 0.0753619
-0.0503071 0.0626861 0.102026
-0.10818 0.0410441 0.066802
-0.100431 -0.00548867 -0.00893393
-0.0311953 -0.0477483 -0.0778418
0.0605809 0.0707048 -0.139854
0.147636 0.0501514 -0.0992003
0.14404 -0.00210224 0.00415826
0.0530642 -0.0530881 0.10501
-0.0700985 -0.0718722 0.142164
-0.150742 -0.047059 0.0930831
-0.139941 0.00629353 -0.0124487
-0.043468 0.0548362 -0.108466
0.0409376 0.160087 -0.0945063
0.0997648 0.113552 -0.0670345
0.0973351 -0.00475987 0.00280995
0.0358585 -0.120202 0.0709605
-0.0473692 -0.162732 0.0960676
-0.101864 -0.106549 0.0629014
-0.0945654 0.0142496 -0.00841217
-0.0293736 0.124158 -0.0732959
-0.00353787 0.152362 0.00816733
-0.00862174 0.108072 0.0057932
-0.00841172 -0.00453021 -0.000242841
-0.00309894 -0.114402 -0.0061325
0.00409366 -0.154879 -0.00830219
0.00880312 -0.101409 -0.00543597
0.00817237 0.013562 0.000726989
0.00253849 0.118167 0.0063343
-0.0458673 0.0522169 0.105887
-0.111778 0.0370383 0.0751072
-0.109055 -0.00155258 -0.00314834
-0.0401766 -0.0392074 -0.0795056
0.053073 -0.0530791 -0.107635
0.114129 -0.0347543 -0.0704756
0.105952 0.00464794 0.00942521
0.0329107 0.0404976 0.0821222
-0.0603743 -0.0796027 0.139377
-0.147122 -0.0564509 0.0988553
-0.143539 0.00236631 -0.00414379
-0.0528796 0.0597567 -0.104645
0.0698546 0.0808997 -0.14167
0.150217 0.0529695 -0.0927593
0.139454 -0.00708413 0.0124054
0.0433198 -0.0617371 0.108096
-0.038259 -0.163136 0.0883227
-0.0915696 -0.113658 0.061535
-0.0893353 0.0047635 -0.00257898
-0.0329114 0.120296 -0.0651286
0.0434761 0.162858 -0.088172
0.0934916 0.106633 -0.0577315
0.0867964 -0.0142743 0.00772816
0.0274516 -0.126523 0.0685
0 -0.21186 0
0 -0.160255 0
0 0.00671642 0
0 0.169614 0
0 0.229626 0
0 0.15035 0
0 -0.0201264 0
0 -0.164312 0
-0.00375729 -0.0833488 -0.221365
-0.00915653 -0.0592172 -0.157017
-0.00893349 0.0024823 0.00658185
-0.00329111 0.0626861 0.166212
0.00434758 0.084865 0.22502
0.00934916 0.055566 0.147335
0.00867926 -0.00743067 -0.0197041
0.00269593 -0.0646424 -0.171683
-0.00523546 0.0957212 -0.308453
-0.0127588 0.0678956 -0.218789
-0.012448 -0.00284605 0.00917127
-0.0045859 -0.0718722 0.231602
0.006058 -0.0973017 0.313548
0.0130272 -0.0637095 0.205299
0.0120939 0.00852024 -0.0274559
0.00375655 0.0742381 -0.239225
-0.00353787 0.216728 -0.208437
-0.00862174 0.153728 -0.147848
-0.00841172 -0.00644402 0.00619751
-0.00309894 -0.162732 0.156506
0.00409366 -0.220307 0.211878
0.00880312 -0.144249 0.13873
0.00817237 0.0192914 -0.0185534
0.00253849 0.168087 -0.161657
0.000305746 0.20627 0.0180134
0.000745103 0.146311 0.0127771
0.000726953 -0.00613308 -0.00053559
0.000267811 -0.154879 -0.0135253
-0.00035378 -0.209679 -0.018311
-0.000760777 -0.137288 -0.0119893
-0.000706267 0.0183605 0.00160341
-0.000219379 0.159976 0.0139705
0.0039639 0.070692 0.233537
0.00966 0.0501428 0.165651
0.00942477 -0.00210189 -0.00694374
0.00347207 -0.0530791 -0.175351
-0.00458666 -0.07186 -0.237395
-0.00986322 -0.047051 -0.155437
-0.00915658 0.00629245 0.0207876
-0.00284418 0.0548263 0.181124
0.00521761 -0.107767 0.307401
0.0127144 -0.0764238 0.218028
0.0124048 0.00320354 -0.00913938
0.00456996 0.0808997 -0.230797
-0.00603693 0.109523 -0.312457
-0.0129819 0.0717114 -0.204585
-0.0120518 -0.00959058 0.0273605
-0.00374374 -0.0835806 0.23841
0.00330638 -0.220856 0.194799
0.00791354 -0.153872 0.135718
0.00772045 0.00644891 -0.00568804
0.00284424 0.162858 -0.143644
-0.00375725 0.22048 -0.194467
-0.00807964 0.144361 -0.127329
-0.00750103 -0.0193247 0.0170448
-0.0023724 -0.171289 0.151079
0 -0.138718 0
0 -0.104929 0
0 0.00439764 0
0 0.111056 0
0 0.15035 0
0 0.098443 0
0 -0.0131779 0
0 -0.107585 0
-0.0487121 -0.0545734 -0.208085
-0.118711 -0.0387729 -0.147598
-0.115819 0.00162532 0.00618704
-0.0426682 0.0410441 0.156242
0.0563647 0.0555661 0.211521
0.121208 0.0363827 0.138496
0.112524 -0.0048653 -0.0185221
0.0349519 -0.0423253 -0.161384
-0.0678761 0.0626744 -0.289949
-0.165413 0.0444553 -0.205665
-0.161385 -0.00186349 0.00862103
-0.0594547 -0.047059 0.217708
0.0785399 -0.0637095 0.294739
0.168892 -0.0417141 0.192983
0.156793 0.00557871 -0.0258089
0.0487024 0.0486081 -0.224874
-0.0458673 0.141905 -0.195933
-0.111778 0.100655 -0.138978
-0.109055 -0.00421924 0.00582568
-0.0401766 -0.106549 0.147118
0.053073 -0.144249 0.19917
0.114129 -0.0944485 0.130407
0.105952 0.0126313 -0.0174404
0.0329107 0.110057 -0.151959
0.0039639 0.135058 0.0169327
0.00966 0.0957986 0.0120107
0.00942477 -0.00401568 -0.00050346
0.00347208 -0.101409 -0.0127141
-0.00458666 -0.137288 -0.0172124
-0.00986322 -0.0898907 -0.01127
-0.00915658 0.0120218 0.00150722
-0.00284418 0.104746 0.0131324
0.0513907 0.0462863 0.219527
0.125239 0.0328314 0.155713
0.122189 -0.00137623 -0.00652726
0.0450143 -0.0347543 -0.164832
-0.0594645 -0.047051 -0.223152
-0.127874 -0.0308072 -0.146113
-0.118712 0.00412003 0.0195405
-0.0368738 0.0358981 0.170258
0.0676446 -0.0705617 0.28896
0.164837 -0.0500392 0.204949
0.160823 0.00209755 -0.00859105
0.0592479 0.0529695 -0.216951
-0.0782666 0.0717114 -0.293714
-0.168305 0.0469538 -0.192312
-0.156247 -0.00627954 0.0257192
-0.0485363 -0.0547252 0.224107
0.0428662 -0.144608 0.183113
0.102596 -0.100749 0.127576
0.100093 0.00422249 -0.00534681
0.0368746 0.106633 -0.135026
-0.0487115 0.144361 -0.182801
-0.10475 0.0945221 -0.119691
-0.0972484 -0.0126531 0.0160222
-0.0307573 -0.112153 0.142016
0 0.0185693 0
0 0.0140461 0
0 -0.000588684 0
0 -0.0148664 0
0 -0.0201264 0
0 -0.0131779 0
0 0.00176405 0
0 0.0144017 0
-0.0641188 0.0073054 -0.0685836
-0.156246 0.00518496 -0.0486559
-0.15244 -0.000217343 0.00203956
-0.0561594 -0.0054886 0.0515056
0.0741874 -0.00743056 0.0697287
0.159533 -0.00486523 0.0456555
0.148104 0.000650664 -0.00610576
0.0460065 0.00566582 -0.0531911
-0.0893439 -0.00838983 -0.0955653
-0.217715 -0.00594533 -0.0677977
-0.212412 0.000249214 0.00284195
-0.0782537 0.00629344 0.0717684
0.103373 0.00852012 0.0971612
0.222294 0.00557863 0.0636175
0.206369 -0.000746127 -0.00850784
0.0641061 -0.00650687 -0.0741172
-0.0603743 -0.0189959 -0.0645784
-0.147122 -0.0134612 -0.0458143
-0.143539 0.000564262 0.00192046
-0.0528796 0.0142494 0.0484976
0.0698546 0.0192911 0.0656565
0.150217 0.0126311 0.0429895
0.139454 -0.00168936 -0.00574917
0.0433198 -0.0147326 -0.0500848
0.00521761 -0.0180793 0.00558093
0.0127144 -0.0128117 0.00395933
0.0124048 0.000537034 -0.000165967
0.00456996 0.0135618 -0.0041912
-0.00603693 0.0183603 -0.0056741
-0.0129819 0.0120216 -0.00371519
-0.0120518 -0.00160785 0.000496852
-0.00374374 -0.0140217 0.00432838
0.0676446 -0.00619606 0.0723549
0.164837 -0.00439079 0.0513314
0.160823 0.00018405 -0.00215171
0.0592479 0.00464788 -0.0543375
-0.0782666 0.00629236 -0.0735632
-0.168305 0.00411997 -0.0481663
-0.156247 -0.000551036 0.00644152
-0.0485363 -0.00480545 0.056116
0.0890392 0.00944566 0.0952394
0.216958 0.0066922 0.0675619
0.211673 -0.00028052 -0.00283206
0.0779815 -0.00708403 -0.0715187
-0.103013 -0.00959043 -0.0968232
-0.221521 -0.00627945 -0.0633959
-0.20565 0.000839871 0.0084783
-0.0638874 0.00732572 0.0738644
0.0564239 0.0193578 0.0603529
0.135046 0.0134867 0.0420483
0.131751 -0.000565238 -0.00176228
0.0485373 -0.0142743 -0.0445039
-0.0641181 -0.0193247 -0.06025
-0.13788 -0.0126531 -0.0394493
-0.128006 0.00169379 0.00528083
-0.0404853 0.0150132 0.0468077
0 0.164592 0
0 0.114673 0
0 -0.00480602 0
0 -0.121369 0
0 -0.164312 0
0 -0.107585 0
0 0.0144017 0
0 0.127652 0
-0.0406319 0.0647529 0.11252
-0.0972489 0.0451137 0.0783932
-0.094876 -0.00189075 -0.00328552
-0.0349526 -0.0477483 -0.0829713
0.0461725 -0.0646424 -0.112328
0.0992901 -0.0423253 -0.0735477
0.0921796 0.00566582 0.00984538
0.0291542 0.0502201 0.0872664
-0.056617 -0.0743649 0.156786
-0.135508 -0.0518105 0.109234
-0.132201 0.00217142 -0.00457809
-0.0487034 0.0548362 -0.115613
0.0643375 0.0742381 -0.156519
0.138352 0.0486081 -0.102482
0.128444 -0.00650687 0.0137187
0.0406238 -0.0576749 0.121598
-0.038259 -0.168374 0.105949
-0.0915696 -0.117307 0.0738151
-0.0893353 0.00491644 -0.00309365
-0.0329114 0.124158 -0.0781258
0.0434761 0.168087 -0.105768
0.0934916 0.110057 -0.0692526
0.0867963 -0.0147326 0.00927041
0.0274516 -0.130585 0.0821701
0.00330638 -0.16025 -0.00915618
0.00791354 -0.111647 -0.00637917
0.00772045 0.00467921 0.000267356
0.00284424 0.118167 0.00675171
-0.00375725 0.159976 0.00914057
-0.00807964 0.104746 0.00598488
-0.00750103 -0.0140217 -0.000801158
-0.0023724 -0.124284 -0.00710122
0.0428662 -0.05492 -0.118707
0.102596 -0.0382631 -0.0827039
0.100093 0.00160364 0.00346619
0.0368746 0.0404976 0.0875337
-0.0487115 0.0548263 0.118505
-0.10475 0.0358981 0.077592
-0.0972484 -0.00480545 -0.0103868
-0.0307573 -0.042594 -0.092065
0.0564239 0.0837234 -0.156252
0.135046 0.0583306 -0.108862
0.131751 -0.00244468 0.00456248
0.0485373 -0.0617371 0.115219
-0.064118 -0.0835806 0.155985
-0.13788 -0.0547252 0.102133
-0.128006 0.00732573 -0.0136719
-0.0404853 0.064933 -0.121183
0.0357557 0.171581 -0.0990162
0.0855781 0.119542 -0.0689853
0.08349 -0.00501009 0.00289123
0.030758 -0.126523 0.073014
-0.0406314 -0.171289 0.0988474
-0.0873744 -0.112153 0.0647213
-0.0811172 0.0150132 -0.00866384
-0.0256554 0.133073 -0.0767936
