# vtk DataFile Version 3.0
Velocity field
ASCII
DATASET STRUCTURED_POINTS
DIMENSIONS 10 10 10
SPACING 0.631579 0.631579 0.631579
ORIGIN 0 0 0
POINT_DATA 1000
VECTORS velocity float
0 0.0579476 0
0 0.0467693 0
0 0.0175471 0
0 -0.018445 0
0 -0.0473208 0
0 -0.0579399 0
0 -0.0462054 0
0 -0.0166445 0
0 0.019338 0
0 0.0478598 0
0 0.035591 0.0453918
0 0.0287254 0.038072
0 0.0107773 0.014284
0 -0.0113288 -0.0150149
0 -0.0290641 -0.038521
0 -0.0355863 -0.0471653
0 -0.028379 -0.0376129
0 -0.0102229 -0.0135492
0 0.0118773 0.0157419
0 0.0293951 0.0374897
0 -0.000496896 0.073271
0 -0.000401043 0.0614555
0 -0.000150464 0.0230571
0 0.000158164 -0.024237
0 0.000405772 -0.0621802
0 0.00049683 -0.0761339
0 0.000396207 -0.0607145
0 0.000142725 -0.021871
0 -0.000165822 0.0254104
0 -0.000410393 0.0605156
0 -0.0363931 0.0728818
0 -0.0293727 0.0611291
0 -0.0110202 0.0229346
0 0.0115841 -0.0241082
0 0.0297191 -0.0618499
0 0.0363883 -0.0757294
0 0.0290186 -0.060392
0 0.0104533 -0.0217549
0 -0.0121449 0.0252755
0 -0.0300576 0.0601941
0 -0.0582486 0.0443742
0 -0.0470122 0.0372186
0 -0.0176382 0.0139638
0 0.0185408 -0.0146783
0 0.0475666 -0.0376574
0 0.0582408 -0.046108
0 0.0464453 -0.0367698
0 0.0167309 -0.0132455
0 -0.0194385 0.015389
0 -0.0481083 0.0366493
0 -0.0576313 -0.00125325
0 -0.046514 -0.00105115
0 -0.0174513 -0.000394375
0 0.0183443 0.000414555
0 0.0470625 0.00106355
0 0.0576237 0.00130221
0 0.0459532 0.00103848
0 0.0165536 0.000374088
0 -0.0192325 -0.000434627
0 -0.0475985 -0.00103507
0 -0.0347795 -0.0463972
0 -0.0280704 -0.0389153
0 -0.0105315 -0.0146004
0 0.0110705 0.0153475
0 0.0284014 0.0393742
0 0.0347749 0.04821
0 0.0277319 0.0384461
0 0.0099898 0.0138493
0 -0.0116065 -0.0160906
0 -0.0287249 -0.0383201
0 0.00149057 -0.0736408
0 0.00120303 -0.0617657
0 0.000451358 -0.0231734
0 -0.000474455 0.0243593
0 -0.00121722 0.062494
0 -0.00149037 0.0765181
0 -0.00118853 0.0610209
0 -0.00042814 0.0219814
0 0.000497426 -0.0255387
0 0.00123108 -0.060821
0 0.0371855 -0.0724732
0 0.0300123 -0.0607864
0 0.0112601 -0.022806
0 -0.0118363 0.0239731
0 -0.0303662 0.0615032
0 -0.0371806 0.0753049
0 -0.0296504 0.0600534
0 -0.0106809 0.0216329
0 0.0124094 -0.0251337
0 0.030712 -0.0598566
0 0.058534 -0.0433449
0 0.0472426 -0.0349835
0 0.0177246 -0.0131252
0 -0.0186316 0.0137969
0 -0.0477997 0.0353961
0 -0.0585263 0.0433392
0 -0.046673 0.0345617
0 -0.0168129 0.0124501
0 0.0195337 -0.0144649
0 0.0483441 -0.0357992
0 0.0467693 0
0 0.039711 0
0 0.0148989 0
0 -0.0156613 0
0 -0.0401792 0
0 -0.0491957 0
0 -0.0392321 0
0 -0.0141325 0
0 0.0164196 0
0 0.0386274 0
0.0065999 0.0287254 0.0502359
0.0173357 0.0233012 0.0407432
0.0213519 0.00874236 0.0152864
0.0171303 -0.00918972 -0.0160687
0.00629967 -0.0235764 -0.0412243
-0.00696139 -0.028867 -0.0504753
-0.0175367 -0.0230206 -0.0402526
-0.0213462 -0.00829266 -0.0145001
-0.0169202 0.00963436 0.0168462
-0.0059379 0.0237247 0.0414905
0.0106535 -0.000401043 0.0810904
0.0279832 -0.000325197 0.0657675
0.0344661 -0.00012201 0.0246752
0.0276515 0.000128254 -0.025938
0.0101689 0.000329036 -0.0665441
-0.011237 0.000402875 -0.0814769
-0.0283076 0.00032128 -0.0649754
-0.0344569 0.000115734 -0.023406
-0.0273123 -0.000134459 0.0271929
-0.00958491 -0.000331226 0.0669737
0.0105969 -0.0293727 0.0806597
0.0278345 -0.0238191 0.0654181
0.0342829 -0.00893665 0.0245442
0.0275046 0.00939398 -0.0258002
0.0101149 0.0241003 -0.0661906
-0.0111773 0.0295086 -0.0810441
-0.0281572 0.0235323 -0.0646302
-0.0342738 0.00847698 -0.0232816
-0.0271672 -0.0098485 0.0270484
-0.00953399 -0.0242593 0.0666179
0.00645195 -0.0470122 0.0491098
0.0169471 -0.0381234 0.0398299
0.0208732 -0.0143035 0.0149437
0.0167463 0.0150354 -0.0157085
0.00615844 0.0385736 -0.0403002
-0.00680533 0.0472297 -0.0493438
-0.0171436 0.0376643 -0.0393503
-0.0208677 0.0135677 -0.0141751
-0.0165409 -0.0157629 0.0164685
-0.00580479 -0.038828 0.0405605
-0.00018222 -0.046514 -0.00138699
-0.000478632 -0.0377195 -0.0011249
-0.000589517 -0.0141519 -0.00042205
-0.000472959 0.0148761 0.00044365
-0.000173931 0.0381648 0.00113819
0.000192201 0.0467292 0.0013936
0.000484182 0.0372651 0.00111136
0.00058936 0.0134239 0.000400341
0.000467157 -0.0155959 -0.000465115
0.000163943 -0.0384165 -0.00114554
-0.00674609 -0.0280704 -0.0513487
-0.0177197 -0.022763 -0.0416458
-0.0218249 -0.00854041 -0.015625
-0.0175097 0.00897745 0.0164246
-0.00643921 0.0230317 0.0421375
0.0071156 0.0282003 0.0515935
0.0179252 0.0224888 0.0411442
0.0218191 0.0081011 0.0148213
0.0172949 -0.00941184 -0.0172193
0.00606942 -0.0231837 -0.0424096
-0.0107073 0.00120303 -0.0814997
-0.0281244 0.000975568 -0.0660994
-0.03464 0.000366022 -0.0247997
-0.0277911 -0.000384752 0.0260689
-0.0102202 -0.000987088 0.0668799
0.0112937 -0.0012086 0.0818881
0.0284505 -0.000963821 0.0653033
0.0346308 -0.000347195 0.0235241
0.0274502 0.00040337 -0.0273302
0.00963328 0.000993601 -0.0673117
-0.0105375 0.0300123 -0.0802075
-0.0276782 0.0243372 -0.0650509
-0.0340905 0.00913105 -0.0244063
-0.0273502 -0.00959833 0.0256553
-0.0100581 -0.0246246 0.065819
0.0111146 -0.0301505 0.0805892
0.0279991 -0.0240441 0.0642674
0.0340814 -0.00866136 0.0231509
0.0270147 0.0100627 -0.0268966
0.00948054 0.0247875 -0.0662445
-0.00630229 0.0472426 -0.0479706
-0.0164754 0.0381293 -0.0387169
-0.0202922 0.0143055 -0.0145259
-0.0162801 -0.0150375 0.0152693
-0.00598701 -0.0385789 0.0391735
0.0066159 -0.0472363 0.0479643
0.0166663 -0.0376696 0.0382501
0.0202868 -0.0135696 0.0137787
0.0160804 0.0157656 -0.0160086
0.00567014 0.0390183 -0.0396196
0 0.0175471 0
0 0.0148989 0
0 0.00558981 0
0 -0.00587586 0
0 -0.0150746 0
0 -0.0184574 0
0 -0.0147192 0
0 -0.00530227 0
0 0.00616034 0
0 0.0144923 0
0.0106535 0.0107773 0.0356987
0.0279832 0.00874236 0.0289494
0.0344661 0.00328004 0.0108615
0.0276515 -0.00344788 -0.0114173
0.0101689 -0.00884559 -0.0292913
-0.011237 -0.0108306 -0.0358644
-0.0283076 -0.00863708 -0.0286008
-0.0344569 -0.00311131 -0.0103028
-0.0273123 0.00361471 0.0119698
-0.00958491 0.00890109 0.029484
0.0171968 -0.000150464 0.0576245
0.0451702 -0.00012201 0.0467299
0.0556348 -4.57768e-05 0.0175325
0.0446348 4.81193e-05 -0.0184297
0.0164145 0.000123451 -0.0472817
-0.0181387 0.000151154 -0.0578921
-0.0456939 0.000120541 -0.0461671
-0.05562 4.34222e-05 -0.0166307
-0.0440874 -5.04476e-05 0.0193215
-0.0154719 -0.000124271 0.0475929
0.0171055 -0.0110202 0.0573184
0.0449302 -0.00893665 0.0464817
0.0553392 -0.00335294 0.0174394
0.0443979 0.00352451 -0.0183318
0.0163273 0.00904218 -0.0470305
-0.0180424 0.0110713 -0.0575846
-0.0454512 0.00882903 -0.0459218
-0.0553245 0.00318046 -0.0165424
-0.0438532 -0.00369504 0.0192188
-0.0153897 -0.00910169 0.0473401
0.0104147 -0.0176382 0.0348984
0.0273559 -0.0143035 0.0283005
0.0336935 -0.00536651 0.010618
0.0270316 0.00564111 -0.0111614
0.00994094 0.0144724 -0.0286347
-0.0109851 0.01772 -0.0350605
-0.027673 0.0141312 -0.0279596
-0.0336846 0.00509045 -0.0100718
-0.0267002 -0.00591407 0.0117014
-0.00937005 -0.0145676 0.0288231
-0.000294139 -0.0174513 -0.000985625
-0.000772602 -0.0141519 -0.00079928
-0.000951593 -0.00530964 -0.000299882
-0.000763449 0.00558133 0.000315227
-0.000280758 0.014319 0.000808718
0.00031025 0.0175323 0.000990199
0.00078156 0.0139815 0.000789654
0.00095134 0.00503651 0.000284455
0.000754083 -0.0058514 -0.000330479
0.000264635 -0.0144132 -0.000814041
-0.0108895 -0.0105315 -0.0364894
-0.0286031 -0.00854041 -0.0295906
-0.0352295 -0.00320427 -0.0111021
-0.0282641 0.00336824 0.0116702
-0.0103941 0.00864126 0.02994
0.0114859 0.0105804 0.0366587
0.0289347 0.00843758 0.0292344
0.0352201 0.00303945 0.010531
0.0279173 -0.00353121 -0.0122349
0.00979722 -0.00869813 -0.0301371
-0.0172836 0.000451358 -0.0579153
-0.0453981 0.000366022 -0.0469658
-0.0559156 0.000137327 -0.017621
-0.0448601 -0.000144355 0.0185227
-0.0164974 -0.000370345 0.0475204
0.0182302 -0.000453453 0.0581843
0.0459244 -0.000361614 0.0464001
0.0559007 -0.000130264 0.0167146
0.0443099 0.00015134 -0.019419
0.01555 0.000372782 -0.0478331
-0.0170096 0.0112601 -0.0569971
-0.044678 0.00913105 -0.0462208
-0.0550286 0.00342587 -0.0173415
-0.0441486 -0.00360118 0.0182289
-0.0162357 -0.00923887 0.0467665
0.0179411 -0.0113121 0.0572613
0.045196 -0.00902109 0.0456641
0.055014 -0.00324965 0.0164495
0.0436071 0.00377543 -0.019111
0.0153034 0.00929986 -0.0470747
-0.0101731 0.0177246 -0.0340889
-0.0265945 0.0143055 -0.027513
-0.0327555 0.00536717 -0.0103224
-0.0262792 -0.00564183 0.0108507
-0.00966419 -0.0144742 0.0278375
0.0106793 -0.0177223 0.0340844
0.0269027 -0.014133 0.0271813
0.0327468 -0.00509109 0.00979145
0.0259569 0.00591498 -0.011376
0.0091527 0.014639 -0.0281545
0 -0.018445 0
0 -0.0156613 0
0 -0.00587586 0
0 0.00617654 0
0 0.015846 0
0 0.0194019 0
0 0.0154725 0
0 0.00557361 0
0 -0.00647559 0
0 -0.015234 0
0.0105969 -0.0113288 0.00738863
0.0278345 -0.00918972 0.00599173
0.0342829 -0.00344788 0.00224803
0.0275046 0.00362433 -0.00236307
0.0101149 0.00929823 -0.00606248
-0.0111773 0.0113848 -0.00742291
-0.0281572 0.00907907 -0.00591957
-0.0342738 0.00327053 -0.00213239
-0.0271672 -0.00379968 0.0024774
-0.00953399 -0.00935659 0.00610237
0.0171055 0.000158164 0.0119267
0.0449302 0.000128254 0.0096718
0.0553392 4.81193e-05 0.00362875
0.0443979 -5.05818e-05 -0.00381444
0.0163273 -0.000129768 -0.009786
-0.0180424 -0.000158889 -0.0119821
-0.0454512 -0.000126709 -0.00955533
-0.0553245 -4.56441e-05 -0.00344209
-0.0438532 5.30292e-05 0.003999
-0.0153897 0.00013063 0.00985041
0.0170146 0.0115841 0.0118633
0.0446915 0.00939398 0.00962042
0.0550453 0.00352451 0.00360947
0.044162 -0.00370487 -0.00379418
0.0162406 -0.0095049 -0.009734
-0.0179465 -0.0116378 -0.0119184
-0.0452097 -0.00928083 -0.00950457
-0.0550307 -0.00334322 -0.0034238
-0.0436203 0.00388414 0.00397776
-0.0153079 0.00956745 0.00979808
0.0103594 0.0185408 0.00722301
0.0272105 0.0150354 0.00585741
0.0335145 0.00564111 0.00219763
0.0268882 -0.0059298 -0.00231009
0.00988813 -0.0152129 -0.00592657
-0.0109268 -0.0186268 -0.00725654
-0.027526 -0.0148543 -0.00578686
-0.0335056 -0.00535096 -0.00208459
-0.0265583 0.0062167 0.00242187
-0.00932027 0.0153131 0.00596558
-0.000292576 0.0183443 -0.000203997
-0.000768499 0.0148761 -0.000165429
-0.000946537 0.00558133 -6.20669e-05
-0.000759393 -0.00586696 6.52433e-05
-0.000279267 -0.0150517 0.000167382
0.000308602 -0.0184294 0.000204944
0.000777408 -0.0146969 0.000163436
0.000946285 -0.00529425 5.88743e-05
0.000750078 0.00615083 -6.84e-05
0.000263229 0.0151508 -0.000168484
-0.0108316 0.0110705 -0.0075523
-0.0284511 0.00897745 -0.00612445
-0.0350424 0.00336824 -0.00229782
-0.0281139 -0.00354061 0.00241541
-0.0103389 -0.00908345 0.00619674
0.0114249 -0.0111218 0.00758734
0.028781 -0.00886934 0.00605069
0.0350331 -0.00319498 0.00217962
0.027769 0.00371192 -0.00253228
0.00974517 0.00914324 -0.00623755
-0.0171918 -0.000474455 -0.0119869
-0.045157 -0.000384752 -0.00972059
-0.0556185 -0.000144355 -0.00364707
-0.0446218 0.000151742 0.00383369
-0.0164097 0.000389295 0.00983538
0.0181334 0.000476657 0.0120425
0.0456805 0.00038012 0.00960355
0.0556037 0.00013693 0.00345945
0.0440745 -0.000159084 -0.00401918
0.0154674 -0.000391859 -0.00990012
-0.0169192 -0.0118363 -0.0117968
-0.0444407 -0.00959833 -0.00956642
-0.0547363 -0.00360118 -0.00358921
-0.0439141 0.00378547 0.00377288
-0.0161494 0.00971165 0.00967937
0.0178458 0.011891 0.0118515
0.0449559 0.00948274 0.00945121
0.0547217 0.00341594 0.00340458
0.0433754 -0.00396863 -0.00395543
0.0152221 -0.00977577 -0.00974315
-0.0101191 -0.0186316 -0.00705546
-0.0264532 -0.0150375 -0.00569443
-0.0325815 -0.00564183 -0.00213646
-0.0261396 0.00593054 0.00224578
-0.00961285 0.0152149 0.00576158
0.0106226 0.0186292 0.00705452
0.0267598 0.0148562 0.00562577
0.0325728 0.00535162 0.00202656
0.0258191 -0.00621767 -0.00235452
0.00910408 -0.0153881 -0.0058272
0 -0.0473208 0
0 -0.0401792 0
0 -0.0150746 0
0 0.015846 0
0 0.040653 0
0 0.0497759 0
0 0.0396948 0
0 0.0142992 0
0 -0.0166132 0
0 -0.0390829 0
0.00645195 -0.0290641 -0.023772
0.0169471 -0.0235764 -0.0192776
0.0208732 -0.00884559 -0.00723275
0.0167463 0.00929823 0.00760286
0.00615844 0.0238548 0.0195052
-0.00680533 0.029208 0.0238824
-0.0171436 0.0232924 0.0190455
-0.0208677 0.00839058 0.00686069
-0.0165409 -0.00974813 -0.00797072
-0.00580479 -0.0240044 -0.0196336
0.0104147 0.000405772 -0.0383726
0.0273559 0.000329036 -0.0311178
0.0336935 0.000123451 -0.011675
0.0270316 -0.000129768 0.0122725
0.00994094 -0.000332922 0.0314853
-0.0109851 -0.000407632 0.0385508
-0.027673 -0.000325074 0.0307431
-0.0336846 -0.0001171 0.0110745
-0.0267002 0.000136047 -0.0128663
-0.00937005 0.000335132 -0.0316925
0.0103594 0.0297191 -0.0381688
0.0272105 0.0241003 -0.0309525
0.0335145 0.00904218 -0.011613
0.0268882 -0.00950491 0.0122073
0.00988813 -0.0243849 0.031318
-0.0109268 -0.029857 0.038346
-0.027526 -0.0238101 0.0305797
-0.0335056 -0.00857705 0.0110157
-0.0265583 0.00996478 -0.012798
-0.00932027 0.0245454 -0.0315241
0.00630732 0.0475666 -0.0232391
0.0165672 0.0385736 -0.0188455
0.0204053 0.0144724 -0.00707061
0.0163709 -0.0152129 0.00743243
0.00602041 -0.039029 0.019068
-0.0066528 -0.0477874 0.023347
-0.0167593 -0.0381091 0.0186185
-0.0203999 -0.0137279 0.00670692
-0.01617 0.015949 -0.00779206
-0.00567467 0.0392859 -0.0191935
-0.000178136 0.0470625 0.000656335
-0.000467902 0.0381648 0.000532246
-0.000576301 0.014319 0.000199693
-0.000462357 -0.0150517 -0.000209912
-0.000170032 -0.0386155 -0.000538531
0.000187893 -0.047281 -0.000659381
0.000473326 -0.0377052 -0.000525838
0.000576148 -0.0135824 -0.000189421
0.000456686 0.01578 0.000220068
0.000160268 0.0388696 0.000542076
-0.00659487 0.0284014 0.0242986
-0.0173225 0.0230317 0.0197046
-0.0213356 0.00864126 0.00739294
-0.0171172 -0.00908345 -0.00777129
-0.00629486 -0.0233037 -0.0199373
0.00695608 -0.0285333 -0.0244114
0.0175233 -0.0227544 -0.0194673
0.02133 -0.00819676 -0.00701267
0.0169073 0.00952297 0.00814729
0.00593337 0.0234571 0.0200685
-0.0104673 -0.00121722 0.0385662
-0.0274939 -0.000987088 0.0312748
-0.0338636 -0.000370345 0.011734
-0.0271681 0.000389295 -0.0123344
-0.00999108 0.000998741 -0.0316441
0.0110406 0.00122287 -0.0387453
0.0278127 0.000975202 -0.0308982
0.0338546 0.000351294 -0.0111304
0.0268349 -0.000408132 0.0129312
0.00941733 -0.00100532 0.0318524
-0.0103013 -0.0303662 0.0379548
-0.0270578 -0.0246246 0.0307788
-0.0333264 -0.00923887 0.0115478
-0.0267372 0.00971165 -0.0121388
-0.00983261 0.0249153 -0.0311422
0.0108654 0.0305065 -0.0381307
0.0273715 0.0243281 -0.0304081
0.0333175 0.00876364 -0.0109538
0.0264092 -0.0101816 0.0127261
0.00926802 -0.0250798 0.0313474
-0.00616102 -0.0477997 0.0227001
-0.0161061 -0.0385789 0.0183211
-0.0198373 -0.0144742 0.00687378
-0.0159151 0.0152149 -0.00722553
-0.00585281 0.0390339 -0.0185372
0.00646759 0.0477933 -0.022697
0.0162927 0.0381138 -0.0181002
0.019832 0.0137296 -0.0065202
0.01572 -0.0159515 0.00757536
0.00554303 -0.0394784 0.0187483
0 -0.0579399 0
0 -0.0491957 0
0 -0.0184574 0
0 0.0194019 0
0 0.0497759 0
0 0.0609459 0
0 0.0486025 0
0 0.017508 0
0 -0.0203413 0
0 -0.0478534 0
-0.00018222 -0.0355863 -0.0457612
-0.000478632 -0.028867 -0.0371095
-0.000589517 -0.0108306 -0.0139231
-0.000472959 0.0113848 0.0146356
-0.000173931 0.029208 0.0375477
0.000192201 0.0357624 0.0459735
0.000484182 0.0285195 0.0366625
0.00058936 0.0102735 0.0132069
0.000467157 -0.0119357 -0.0153437
0.000163943 -0.0293912 -0.0377948
-0.000294139 0.00049683 -0.0738674
-0.000772602 0.000402875 -0.0599018
-0.000951593 0.000151154 -0.0224745
-0.000763449 -0.000158889 0.0236246
-0.000280758 -0.000407632 0.0606091
0.00031025 -0.000499105 0.0742102
0.00078156 -0.000398022 0.0591804
0.00095134 -0.000143379 0.0213185
0.000754083 0.000166577 -0.0247677
0.000264635 0.000410338 -0.0610081
-0.000292576 0.0363883 -0.073475
-0.000768499 0.0295086 -0.0595836
-0.000946537 0.0110713 -0.0223551
-0.000759393 -0.0116378 0.0234991
-0.000279267 -0.029857 0.0602871
0.000308602 -0.0365571 0.073816
0.000777408 -0.0291533 0.058866
0.000946285 -0.0105018 0.0212052
0.000750078 0.012201 -0.0246361
0.000263229 0.0300536 -0.0606841
-0.000178136 0.0582408 -0.0447354
-0.000467902 0.0472297 -0.0362776
-0.000576301 0.01772 -0.0136109
-0.000462357 -0.0186268 0.0143075
-0.000170032 -0.0477874 0.0367059
0.000187893 -0.0585113 0.044943
0.000473326 -0.0466609 0.0358408
0.000576148 -0.0168086 0.0129108
0.000456686 0.0195281 -0.0149997
0.000160268 0.0481019 -0.0369476
5.03103e-06 0.0576237 0.00126345
1.32148e-05 0.0467292 0.00102458
1.62763e-05 0.0175323 0.00038441
1.30582e-05 -0.0184294 -0.000404081
4.80217e-06 -0.047281 -0.00103668
-5.30659e-06 -0.0578912 -0.00126931
-1.3368e-05 -0.0461664 -0.00101224
-1.6272e-05 -0.0166305 -0.000364636
-1.2898e-05 0.0193212 0.000423632
-4.52639e-06 0.0475921 0.0010435
0.000186257 0.0347749 0.0467749
0.000489234 0.0282003 0.0379315
0.000602576 0.0105804 0.0142315
0.000483437 -0.0111219 -0.0149597
0.000177784 -0.0285333 -0.0383794
-0.000196458 -0.0349363 -0.046992
-0.000494905 -0.0278606 -0.0374747
-0.000602415 -0.0100362 -0.0134994
-0.000477505 0.01166 0.0156836
-0.000167574 0.028721 0.038632
0.000295623 -0.00149037 0.0742402
0.000776501 -0.0012086 0.0602041
0.000956396 -0.000453453 0.0225879
0.000767302 0.000476657 -0.0237439
0.000282175 0.00122287 -0.060915
-0.000311815 0.00149729 -0.0745847
-0.000785504 0.00119404 -0.0594791
-0.000956141 0.000430127 -0.0214261
-0.000757889 -0.000499719 0.0248927
-0.000265971 -0.00123092 0.061316
0.000290936 -0.0371806 0.0730631
0.000764184 -0.0301505 0.0592491
0.000941223 -0.0113121 0.0222296
0.00075513 0.011891 -0.0233672
0.000277699 0.0305065 -0.0599487
-0.000306869 0.0373524 -0.0734016
-0.000773043 0.0297874 -0.0585357
-0.000940973 0.0107303 -0.0210862
-0.000745867 -0.0124664 0.0244978
-0.000261754 -0.0307079 0.0603438
0.000174004 -0.0585263 0.0436977
0.000454879 -0.0472363 0.0352683
0.000560258 -0.0177223 0.0132321
0.000449486 0.0186292 -0.0139092
0.000165299 0.0477933 -0.0356842
-0.000182662 0.0585185 -0.0436919
-0.00046015 0.0466668 -0.034843
-0.00056011 0.0168107 -0.0125514
-0.000443974 -0.0195311 0.0145826
-0.00015655 -0.0483376 0.0360906
0 -0.0462054 0
0 -0.0392321 0
0 -0.0147192 0
0 0.0154725 0
0 0.0396948 0
0 0.0486025 0
0 0.0387591 0
0 0.0139621 0
0 -0.0162216 0
0 -0.0381617 0
-0.00674609 -0.028379 -0.0500954
-0.0177197 -0.0230206 -0.0406242
-0.0218249 -0.00863708 -0.0152418
-0.0175097 0.00907907 0.0160217
-0.00643921 0.0232924 0.0411039
0.0071156 0.0285195 0.0503279
0.0179252 0.0227434 0.040135
0.0218191 0.0081928 0.0144578
0.0172949 -0.00951834 -0.016797
0.00606942 -0.0234386 -0.0413745
-0.0108895 0.000396207 -0.0808637
-0.0286031 0.00032128 -0.0655754
-0.0352295 0.000120541 -0.0246032
-0.0282641 -0.000126709 0.0258622
-0.0103941 -0.000325074 0.0663498
0.0114859 -0.000398022 0.081239
0.0289347 -0.000317411 0.0647856
0.0352201 -0.00011434 0.0233376
0.0279173 0.00013284 -0.0271135
0.00979722 0.000327232 -0.0667864
-0.0108316 0.0290186 -0.0804341
-0.0284511 0.0235323 -0.065227
-0.0350424 0.00882903 -0.0244725
-0.0281139 -0.00928083 0.0257248
-0.0103389 -0.0238101 0.0659972
0.0114249 -0.0291533 0.0808074
0.028781 -0.0232488 0.0644415
0.0350331 -0.00837489 0.0232136
0.027769 0.0097299 -0.0269695
0.00974517 0.0239668 -0.0664316
-0.00659487 0.0464453 -0.0489725
-0.0173225 0.0376643 -0.0397136
-0.0213356 0.0141312 -0.0149001
-0.0171172 -0.0148543 0.0156626
-0.00629486 -0.0381091 0.0401825
0.00695608 -0.0466609 0.0491998
0.0175233 -0.0372107 0.0392354
0.02133 -0.0134043 0.0141337
0.0169073 0.0155731 -0.0164204
0.00593337 0.0383598 -0.040447
0.000186257 0.0459532 0.00138311
0.000489234 0.0372651 0.00112162
0.000602576 0.0139815 0.000420819
0.000483437 -0.0146969 -0.000442354
0.000177784 -0.0377052 -0.00113486
-0.000196458 -0.0461664 -0.00138953
-0.000494905 -0.0368163 -0.00110811
-0.000602415 -0.0132623 -0.000399172
-0.000477505 0.0154081 0.000463756
-0.000167574 0.0379533 0.00114233
0.00689552 0.0277319 0.0512051
0.0181122 0.0224888 0.0415241
0.0223082 0.00843758 0.0155794
0.0178976 -0.00886934 -0.0163766
0.00658186 -0.0227544 -0.0420144
-0.00727322 -0.0278606 -0.0514427
-0.0183222 -0.0222181 -0.041024
-0.0223023 -0.00800354 -0.014778
-0.017678 0.00929849 0.017169
-0.00620387 0.0229042 0.042291
0.0109444 -0.00118853 0.0812717
0.0287474 -0.000963821 0.0659064
0.0354073 -0.000361614 0.0247273
0.0284067 0.00038012 -0.0259927
0.0104466 0.000975202 -0.0666846
-0.0115439 0.00119404 -0.0816489
-0.0290807 0.000952213 -0.0651126
-0.0353979 0.000343014 -0.0234554
-0.0280582 -0.000398512 0.0272503
-0.00984666 -0.00098162 0.0671235
0.0107709 -0.0296504 0.0799832
0.0282914 -0.0240441 0.0648609
0.0348456 -0.00902109 0.0243351
0.0279561 0.00948274 -0.0255804
0.0102809 0.0243281 -0.0656268
-0.0113608 0.0297874 -0.0803538
-0.0286194 0.0237546 -0.0640797
-0.0348364 0.00855705 -0.0230833
-0.0276131 -0.00994156 0.0268181
-0.00969054 -0.0244887 0.0660592
0.00644189 -0.046673 0.0478365
0.0168403 -0.0376696 0.0386087
0.0207417 -0.014133 0.0144853
0.0166407 0.0148562 -0.0152266
0.00611963 0.0381138 -0.0390639
-0.00676244 0.0466668 -0.0478301
-0.0170355 0.0372154 -0.0381431
-0.0207362 0.013406 -0.0137402
-0.0164366 -0.0155755 0.0159638
-0.00579574 -0.0385478 0.0395088
0 -0.0166445 0
0 -0.0141325 0
0 -0.00530227 0
0 0.00557361 0
0 0.0142992 0
0 0.017508 0
0 0.0139621 0
0 0.00502953 0
0 -0.00584346 0
0 -0.0137469 0
-0.0107073 -0.0102229 -0.0351024
-0.0281244 -0.00829266 -0.0284659
-0.03464 -0.00311131 -0.0106801
-0.0277911 0.00327053 0.0112266
-0.0102202 0.00839058 0.028802
0.0112937 0.0102735 0.0352653
0.0284505 0.0081928 0.0281231
0.0346308 0.00295127 0.0101307
0.0274502 -0.00342877 -0.0117698
0.00963328 -0.00844323 -0.0289916
-0.0172836 0.000142725 -0.0566621
-0.0453981 0.000115734 -0.0459494
-0.0559156 4.34222e-05 -0.0172397
-0.0448601 -4.56441e-05 0.0181219
-0.0164974 -0.0001171 0.0464919
0.0182302 -0.000143379 0.0569251
0.0459244 -0.00011434 0.045396
0.0559007 -4.11885e-05 0.0163529
0.0443099 4.78527e-05 -0.0189988
0.01555 0.000117878 -0.046798
-0.0171918 0.0104533 -0.0563611
-0.045157 0.00847698 -0.0457053
-0.0556185 0.00318046 -0.0171481
-0.0446218 -0.00334322 0.0180257
-0.0164097 -0.00857705 0.0462449
0.0181334 -0.0105018 0.0566227
0.0456806 -0.00837489 0.0451549
0.0556037 -0.00301686 0.016266
0.0440745 0.00350498 -0.0188978
0.0154674 0.00863351 -0.0465494
-0.0104673 0.0167309 -0.0343156
-0.0274939 0.0135677 -0.0278278
-0.0338636 0.00509045 -0.0104407
-0.0271681 -0.00535096 0.010975
-0.00999108 -0.0137279 0.0281564
0.0110406 -0.0168086 0.0344748
0.0278127 -0.0134043 0.0274926
0.0338546 -0.00482862 0.00990363
0.0268349 0.00560985 -0.011506
0.00941733 0.0138183 -0.0283417
0.000295623 0.0165536 0.000969163
0.000776501 0.0134239 0.00078593
0.000956396 0.00503651 0.000294873
0.000767302 -0.00529425 -0.000309962
0.000282175 -0.0135824 -0.00079521
-0.000311815 -0.0166305 -0.000973663
-0.000785504 -0.0132623 -0.000776465
-0.000956141 -0.00477745 -0.000279705
-0.000757889 0.00555041 0.00032496
-0.000265971 0.0136718 0.000800445
0.0109444 0.0099898 0.03588
0.0287474 0.0081011 0.0290964
0.0354073 0.00303945 0.0109167
0.0284067 -0.00319498 -0.0114753
0.0104466 -0.00819676 -0.0294399
-0.0115439 -0.0100362 -0.0360465
-0.0290807 -0.00800354 -0.0287461
-0.0353979 -0.00288309 -0.0103551
-0.0280582 0.00334958 0.0120305
-0.00984666 0.00825071 0.0296338
0.0173708 -0.00042814 0.056948
0.0456272 -0.000347194 0.0461813
0.0561978 -0.000130264 0.0173267
0.0450865 0.00013693 -0.0182133
0.0165806 0.000351294 -0.0467266
-0.0183222 0.000430127 -0.0572124
-0.0461562 0.000343014 -0.0456251
-0.0561828 0.000123563 -0.0164354
-0.0445334 -0.000143555 0.0190946
-0.0156284 -0.000353607 0.0470342
0.0170954 -0.0106809 0.0560451
0.0449035 -0.00866136 0.0454487
0.0553063 -0.00324965 0.0170518
0.0443714 0.00341594 -0.0179245
0.0163176 0.00876364 -0.0459853
-0.0180316 0.0107303 -0.0563048
-0.0454241 0.00855705 -0.0449014
-0.0552916 0.00308249 -0.0161747
-0.0438271 -0.00358122 0.0187918
-0.0153806 -0.00882149 0.0462884
0.0102245 -0.0168129 0.0335196
0.0267287 -0.0135696 0.0270535
0.0329208 -0.00509109 0.01015
0.0264118 0.00535162 -0.0106694
0.00971296 0.0137296 -0.0273725
-0.0107332 0.0168107 -0.0335151
-0.0270384 0.013406 -0.0267273
-0.032912 0.00482921 -0.00962792
-0.0260879 -0.00561072 0.011186
-0.00919889 -0.013886 0.0276843
0 0.019338 0
0 0.0164196 0
0 0.00616034 0
0 -0.00647559 0
0 -0.0166132 0
0 -0.0203413 0
0 -0.0162216 0
0 -0.00584346 0
0 0.00678911 0
0 0.0159715 0
-0.0105375 0.0118773 -0.00656668
-0.0276782 0.00963434 -0.00532542
-0.0340905 0.0036147 -0.00199803
-0.0273502 -0.00379967 0.00210028
-0.0100581 -0.00974811 0.0053883
0.0111146 -0.0119357 0.00659748
0.0279991 -0.00951833 0.00526129
0.0340814 -0.00342876 0.00189526
0.0270147 0.00398352 -0.0022019
0.00948054 0.0098096 -0.00542351
-0.0170096 -0.000165822 -0.0105999
-0.044678 -0.000134459 -0.00859624
-0.0550286 -5.04476e-05 -0.00322522
-0.0441486 5.30291e-05 0.00339025
-0.0162357 0.000136047 0.00869775
0.0179411 0.000166577 0.0106496
0.045196 0.00013284 0.00849273
0.055014 4.78527e-05 0.00305932
0.0436071 -5.5595e-05 -0.0035543
0.0153034 -0.000136954 -0.0087546
-0.0169192 -0.0121449 -0.0105436
-0.0444407 -0.00984849 -0.00855057
-0.0547363 -0.00369504 -0.00320808
-0.0439141 0.00388413 0.00337225
-0.0161494 0.00996476 0.00865154
0.0178458 0.0122009 0.010593
0.0449559 0.00972989 0.00844762
0.0547217 0.00350497 0.00304306
0.0433754 -0.00407207 -0.00353542
0.0152221 -0.0100307 -0.00870809
-0.0103013 -0.0194385 -0.00641948
-0.0270578 -0.0157629 -0.00520604
-0.0333264 -0.00591406 -0.00195325
-0.0267372 0.0062167 0.0020532
-0.00983261 0.015949 0.00526751
0.0108655 0.0195281 0.00644958
0.0273715 0.0155731 0.00514334
0.0333175 0.00560984 0.00185277
0.0264092 -0.00651749 -0.00215254
0.00926802 -0.0160545 -0.00530194
0.000290936 -0.0192325 0.000181303
0.000764184 -0.0155958 0.000147033
0.000941223 -0.00585139 5.5165e-05
0.00075513 0.00615082 -5.79878e-05
0.000277699 0.01578 -0.000148769
-0.000306869 0.0193212 -0.000182153
-0.000773043 0.015408 -0.000145262
-0.000940973 0.00555041 -5.23274e-05
-0.000745867 -0.00644843 6.07936e-05
-0.000261754 -0.0158844 0.000149741
0.0107709 -0.0116065 0.00671214
0.0282914 -0.00941183 0.00544337
0.0348456 -0.00353121 0.00204229
0.0279561 0.00371191 -0.0021468
0.0102809 0.00952295 -0.00550765
-0.0113608 0.01166 -0.00674359
-0.0286194 0.00929848 -0.00537783
-0.0348364 0.00334957 -0.00193724
-0.0276131 -0.00389152 0.00225068
-0.00969054 -0.00958593 0.00554365
0.0170954 0.000497426 0.0106534
0.0449035 0.000403369 0.00863962
0.0553063 0.000151339 0.00324149
0.0443714 -0.000159084 -0.00340736
0.0163176 -0.000408132 -0.00874164
-0.0180316 -0.000499719 -0.0107033
-0.0454241 -0.000398511 -0.00853557
-0.0552916 -0.000143555 -0.00307475
-0.0438271 0.000166781 0.00357224
-0.0153806 0.000410831 0.00879878
0.0168244 0.0124094 0.0104845
0.0441912 0.0100627 0.00850258
0.054429 0.00377542 0.00319007
0.0436676 -0.00396862 -0.00335332
0.0160588 -0.0101815 -0.00860297
-0.0177456 -0.0124663 -0.0105336
-0.0447035 -0.00994155 -0.00840019
-0.0544145 -0.00358122 -0.00302598
-0.0431319 0.00416064 0.00351557
-0.0151368 0.0102491 0.00865927
0.0100623 0.0195337 0.00627057
0.0263049 0.0157656 0.00506096
0.0323988 0.00591498 0.00189878
0.0259931 -0.00621767 -0.00199595
0.00955896 -0.0159515 -0.00512064
-0.010563 -0.0195311 -0.00626974
-0.0266097 -0.0155755 -0.00499993
-0.0323902 -0.00561072 -0.00180111
-0.0256743 0.00651871 0.00209259
-0.00905304 0.0161332 0.00517895
0 0.0478598 0
0 0.0386274 0
0 0.0144924 0
0 -0.015234 0
0 -0.0390829 0
0 -0.0478534 0
0 -0.0381617 0
0 -0.0137469 0
0 0.0159715 0
0 0.039528 0
-0.00630229 0.0293951 0.0245026
-0.0164754 0.0237247 0.0197759
-0.0202922 0.0089011 0.0074196
-0.0162801 -0.00935659 -0.00779928
-0.00598701 -0.0240044 -0.0200091
0.00661589 -0.0293912 -0.0244993
0.0166663 -0.0234386 -0.0195375
0.0202868 -0.00844323 -0.00703794
0.0160804 0.0098096 0.00817689
0.00567014 0.0242778 0.020237
-0.0101731 -0.000410393 0.0395519
-0.0265945 -0.000331226 0.0319222
-0.0327555 -0.000124271 0.0119767
-0.0262792 0.00013063 -0.0125895
-0.00966419 0.000335132 -0.0322986
0.0106793 0.000410338 -0.0395466
0.0269027 0.000327233 -0.0315373
0.0327468 0.000117878 -0.0113606
0.0259569 -0.000136954 0.0131991
0.0091527 -0.000338949 0.0326664
-0.0101191 -0.0300576 0.0393418
-0.0264532 -0.0242593 0.0317526
-0.0325815 -0.00910169 0.011913
-0.0261396 0.00956745 -0.0125227
-0.00961285 0.0245454 -0.032127
0.0106226 0.0300536 -0.0393365
0.0267598 0.0239668 -0.0313697
0.0325728 0.00863351 -0.0113002
0.025819 -0.0100307 0.013129
0.00910408 -0.024825 0.0324929
-0.00616102 -0.0481083 0.0239533
-0.0161061 -0.038828 0.0193326
-0.0198373 -0.0145676 0.00725328
-0.0159151 0.0153131 -0.00762445
-0.0058528 0.0392859 -0.0195606
0.00646759 0.0481019 -0.0239501
0.0162927 0.0383598 -0.0190995
0.019832 0.0138183 -0.00688018
0.01572 -0.0160545 0.0079936
0.00554303 -0.0397333 0.0197834
0.000174004 -0.0475985 -0.000676506
0.000454879 -0.0384166 -0.000546005
0.000560258 -0.0144132 -0.000204852
0.000449486 0.0151508 0.000215335
0.000165299 0.0388696 0.000552444
-0.000182662 0.0475922 0.000676416
-0.00046015 0.0379533 0.000539422
-0.000560109 0.0136718 0.000194315
-0.000443974 -0.0158844 -0.00022576
-0.00015655 -0.0393123 -0.000558735
0.00644189 -0.0287249 -0.0250453
0.0168403 -0.0231837 -0.020214
0.0207417 -0.00869814 -0.00758395
0.0166407 0.00914325 0.00797204
0.00611963 0.0234571 0.0204524
-0.00676244 0.028721 0.025042
-0.0170355 0.0229042 0.0199703
-0.0207361 0.00825071 0.00719384
-0.0164366 -0.00958593 -0.00835802
-0.00579574 -0.0237242 -0.0206853
0.0102245 0.00123108 -0.0397515
0.0267287 0.000993601 -0.0320833
0.0329208 0.000372782 -0.0120371
0.0264118 -0.000391859 0.0126531
0.00971296 -0.00100532 0.0324616
-0.0107332 -0.00123092 0.0397462
-0.0270384 -0.00098162 0.0316964
-0.032912 -0.000353607 0.0114179
-0.0260879 0.000410831 -0.0132657
-0.00919889 0.00101677 -0.0328313
0.0100623 0.030712 -0.0391212
0.0263049 0.0247875 -0.0315746
0.0323988 0.00929987 -0.0118462
0.025993 -0.00977577 0.0124525
0.00955896 -0.0250798 0.0319469
-0.010563 -0.0307079 0.039116
-0.0266097 -0.0244887 0.0311939
-0.0323902 -0.00882149 0.0112369
-0.0256743 0.0102491 -0.0130554
-0.00905304 0.0253655 -0.0323108
0.0060181 0.0483441 -0.0233977
0.0157325 0.0390183 -0.0188842
0.0193772 0.014639 -0.00708503
0.015546 -0.0153881 0.00744759
0.00571704 -0.0394784 0.0191069
-0.00631757 -0.0483376 0.0233946
-0.0159148 -0.0385478 0.0186565
-0.019372 -0.013886 0.00672058
-0.0153553 0.0161332 -0.00780817
-0.00541446 0.039928 -0.0193245
