# vtk DataFile Version 3.0
Velocity field
ASCII
DATASET STRUCTURED_POINTS
DIMENSIONS 8 8 8
SPACING 0.8 0.8 0.8
ORIGIN 0 0 0
POINT_DATA 512
VECTORS velocity float
0 0.21782 0
0 0.151757 0
0 -0.00636024 0
0 -0.160619 0
0 -0.217449 0
0 -0.142377 0
0 0.0190591 0
0 0.168934 0
0 0.0856933 0.222318
0 0.0597031 0.16422
0 -0.00250221 -0.00688261
0 -0.0631897 -0.173811
0 -0.0855471 -0.235308
0 -0.0560129 -0.15407
0 0.00749809 0.0206244
0 0.0664608 0.172422
0 -0.0984138 0.309781
0 -0.0685655 0.228827
0 0.00287364 -0.00959032
0 0.0725697 -0.24219
0 0.0982459 -0.327881
0 0.0643275 -0.214683
0 -0.00861112 0.0287383
0 -0.0763263 0.240255
0 -0.222824 0.209335
0 -0.155243 0.15463
0 0.00650637 -0.00648067
0 0.164309 -0.16366
0 0.222444 -0.221566
0 0.145648 -0.145072
0 -0.0194969 0.0194199
0 -0.172815 0.162353
0 -0.212073 -0.0180909
0 -0.147752 -0.0133633
0 0.00619243 0.000560066
0 0.156381 0.0141437
0 0.211711 0.0191479
0 0.13862 0.0125373
0 -0.0185562 -0.00167829
0 -0.164476 -0.0140307
0 -0.0726805 -0.234543
0 -0.050637 -0.173251
0 0.00212224 0.00726108
0 0.0535942 0.183368
0 0.0725566 0.248247
0 0.0475072 0.162542
0 -0.00635949 -0.0217585
0 -0.0563685 -0.181903
0 0.110799 -0.308724
0 0.0771942 -0.228046
0 -0.00323527 0.00955762
0 -0.0817023 0.241364
0 -0.11061 0.326762
0 -0.0724228 0.213951
0 0.00969479 -0.0286403
0 0.0859317 -0.239436
0 0.227069 -0.195638
0 0.1582 -0.136302
0 -0.00663031 0.00571253
0 -0.167439 0.144262
0 -0.226682 0.195304
0 -0.148422 0.127877
0 0.0198683 -0.0171181
0 0.176107 -0.15173
0 0.151757 0
0 0.114791 0
0 -0.004811 0
0 -0.121495 0
0 -0.164482 0
0 -0.107696 0
0 0.0144166 0
0 0.117697 0
0.0473909 0.0597031 0.219589
0.115546 0.0424314 0.155899
0.112732 -0.00177868 -0.00653507
0.0415311 -0.0449172 -0.165031
-0.0548622 -0.0608098 -0.22342
-0.117977 -0.0398156 -0.146287
-0.109524 0.00532419 0.0195626
-0.0340039 0.0463037 0.170306
0.0660352 -0.0685655 0.305979
0.161004 -0.0486492 0.217231
0.157082 0.00203929 -0.00910601
0.0578695 0.0514983 -0.229954
-0.0764466 0.0697191 -0.311319
-0.164391 0.0456493 -0.203839
-0.152614 -0.00610479 0.0272587
-0.0473816 -0.0531771 0.237307
0.0446233 -0.155243 0.206766
0.108798 -0.11015 0.146794
0.106149 0.00461732 -0.00615341
0.0391055 0.116601 -0.155394
-0.0516587 0.157857 -0.210374
-0.111087 0.103358 -0.137744
-0.103129 -0.0138223 0.0184201
-0.0320181 -0.120401 0.16036
-0.00385639 -0.147752 -0.0178689
-0.00940252 -0.104835 -0.0126861
-0.00917351 0.00439451 0.000531783
-0.00337953 0.110975 0.0134293
0.00446438 0.150241 0.0181806
0.00960034 0.0983716 0.011904
0.00891243 -0.0131554 -0.00159189
0.00276704 -0.114592 -0.0138585
-0.0499969 -0.050637 -0.231664
-0.1219 -0.0359288 -0.164472
-0.118931 0.00150607 0.00689439
-0.0438145 0.0380331 0.174105
0.0578791 0.0514896 0.235705
0.124465 0.0337133 0.154332
0.115546 -0.00450856 -0.0206384
0.0358738 -0.0392723 -0.179671
-0.06581 0.0771942 -0.304935
-0.160443 0.0547591 -0.216475
-0.156535 -0.00229541 0.0090743
-0.057668 -0.0579664 0.229154
0.0761803 -0.0784755 0.310234
0.163818 -0.0513826 0.203129
0.152082 0.00687163 -0.027164
0.04722 0.0598691 -0.236497
-0.0417036 0.1582 -0.193237
-0.0998139 0.110219 -0.134629
-0.0973785 -0.00461938 0.00564242
-0.0358745 -0.116656 0.142492
0.0473904 -0.157931 0.192907
0.101909 -0.103407 0.126308
0.0946109 0.0138424 -0.016908
0.0299232 0.122695 -0.149868
0 -0.00636024 0
0 -0.004811 0
0 0.000201633 0
0 0.00509196 0
0 0.00689357 0
0 0.00451363 0
0 -0.000604212 0
0 -0.00493279 0
0.0660352 -0.00250221 0.0836611
0.161004 -0.00177868 0.0593703
0.157082 7.45608e-05 -0.00248871
0.0578695 0.00188289 -0.0628481
-0.0764466 0.00254908 -0.0850839
-0.164391 0.00166905 -0.0557096
-0.152614 -0.000223181 0.00745006
-0.0473816 -0.00194062 0.0648847
0.0920143 0.00287364 0.116575
0.224344 0.00203929 0.0827275
0.21888 -8.54833e-05 -0.00346779
0.0806367 -0.00215872 -0.0875726
-0.106522 -0.00292252 -0.118557
-0.229063 -0.00191356 -0.0776274
-0.212654 0.0002559 0.0103811
-0.0660221 0.00222869 0.0904112
0.0621788 0.00650637 0.0787754
0.151602 0.00461732 0.0559029
0.14791 -0.000193551 -0.00234338
0.0544898 -0.00488777 -0.0591774
-0.0719818 -0.00661716 -0.0801155
-0.154792 -0.00433261 -0.0524567
-0.1437 0.000579402 0.00701497
-0.0446145 0.00504612 0.0610955
-0.00537355 0.00619243 -0.00680785
-0.0131016 0.00439451 -0.00483123
-0.0127825 -0.000184211 0.000202517
-0.00470911 -0.00465193 0.00511419
0.00622076 -0.00629786 0.00692362
0.0133772 -0.00412358 0.00453334
0.0124188 0.000551444 -0.000606245
0.00385563 0.00480263 -0.00527993
-0.0696663 0.00212224 -0.0882615
-0.169856 0.00150607 -0.0626351
-0.165721 -6.31324e-05 0.00262557
-0.061052 -0.00159429 0.0663031
0.08065 -0.00215836 0.0897629
0.17343 -0.00141321 0.058773
0.161005 0.000188989 -0.00785976
0.049987 0.00164594 -0.0684526
-0.0917005 -0.00323527 -0.116177
-0.223563 -0.00229541 -0.0824392
-0.218118 9.62199e-05 0.00345571
-0.0803559 0.00242986 0.0872678
0.10615 0.00328958 0.118145
0.228266 0.00215388 0.0773568
0.211912 -0.000288043 -0.0103449
0.0657969 -0.00250916 -0.0901029
-0.0581103 -0.00663031 -0.073621
-0.139082 -0.00461938 -0.0512922
-0.135688 0.000193602 0.0021497
-0.049988 0.00488915 0.0542877
0.0660344 0.006619 0.0734955
0.142001 0.00433386 0.0481219
0.131832 -0.000580146 -0.00644178
0.0416953 -0.00514224 -0.0570979
0 -0.160619 0
0 -0.121495 0
0 0.00509196 0
0 0.12859 0
0 0.174087 0
0 0.113986 0
0 -0.0152585 0
0 -0.124571 0
0.0446233 -0.0631897 -0.103015
0.108798 -0.0449172 -0.0731045
0.106149 0.00188289 0.00306443
0.0391055 0.0475488 0.0773867
-0.0516587 0.0643725 0.104767
-0.111087 0.0421483 0.0685968
-0.103129 -0.00563603 -0.00917349
-0.0320181 -0.0490077 -0.0798949
0.0621788 0.0725697 -0.143542
0.151602 0.0514983 -0.101865
0.14791 -0.00215872 0.00426998
0.0544898 -0.0545144 0.107832
-0.0719818 -0.0738032 0.145983
-0.154792 -0.0483233 0.0955839
-0.1437 0.00646228 -0.0127825
-0.0446145 0.0562826 -0.111327
0.0420174 0.164309 -0.096999
0.102445 0.116601 -0.0688349
0.0999502 -0.00488777 0.00288545
0.0368219 -0.123432 0.072867
-0.0486419 -0.167104 0.0986486
-0.1046 -0.109412 0.0645913
-0.0971059 0.0146317 -0.00863773
-0.0301483 0.127433 -0.0752291
-0.00363118 0.156381 0.00838275
-0.00885335 0.110975 0.0059488
-0.00863772 -0.00465193 -0.000249365
-0.0031822 -0.117475 -0.00629726
0.00420365 -0.15904 -0.00852524
0.00903963 -0.104134 -0.00558201
0.00839192 0.0139257 0.000746483
0.00260545 0.121284 0.00650137
-0.0470771 0.0535942 0.10868
-0.11478 0.0380331 0.0771245
-0.111985 -0.00159429 -0.00323293
-0.0412561 -0.0402608 -0.0816417
0.0544988 -0.0545052 -0.110527
0.117196 -0.035688 -0.0723691
0.108798 0.00477258 0.00967795
0.0337788 0.0415658 0.0842882
-0.0619667 -0.0817023 0.143053
-0.151074 -0.0579664 0.10151
-0.147395 0.00242986 -0.00425512
-0.0543001 0.0613614 -0.107456
0.0717311 0.0830722 -0.145475
0.154252 0.054392 -0.0952511
0.1432 -0.00727402 0.012738
0.0444624 -0.0633654 0.110947
-0.0392681 -0.167439 0.0906522
-0.0939849 -0.116656 0.063158
-0.0916916 0.00488915 -0.002647
-0.0337795 0.123469 -0.0668464
0.0446228 0.167154 -0.0904977
0.0959576 0.109446 -0.0592543
0.0890857 -0.0146508 0.007932
0.0281757 -0.12986 0.0703068
0 -0.217449 0
0 -0.164482 0
0 0.00689357 0
0 0.174087 0
0 0.235682 0
0 0.154315 0
0 -0.0206572 0
0 -0.168646 0
-0.00385639 -0.0855471 -0.227204
-0.00940251 -0.0608098 -0.161234
-0.00917351 0.00254908 0.00675869
-0.00337953 0.0643725 0.170677
0.00446438 0.0871481 0.231066
0.00960034 0.0570609 0.151294
0.00891243 -0.00763016 -0.0202325
0.00276704 -0.0663474 -0.176211
-0.00537355 0.0982459 -0.316588
-0.0131016 0.0697191 -0.224665
-0.0127825 -0.00292252 0.00941768
-0.00470911 -0.0738032 0.237825
0.00622076 -0.0999159 0.321972
0.0133772 -0.0654211 0.210815
0.0124188 0.00874871 -0.0281921
0.00385563 0.0761962 -0.245535
-0.00363118 0.222444 -0.213935
-0.00885335 0.157857 -0.151819
-0.00863772 -0.00661716 0.00636403
-0.0031822 -0.167104 0.160711
0.00420365 -0.226226 0.217571
0.00903963 -0.148125 0.142458
0.00839192 0.0198087 -0.0190509
0.00260545 0.17252 -0.165921
0.00031381 0.211711 0.0184885
0.00076512 0.150241 0.0131203
0.000746484 -0.00629786 -0.00054998
0.000275006 -0.15904 -0.0138887
-0.000363285 -0.215312 -0.0188029
-0.000781217 -0.140977 -0.0123114
-0.000725241 0.0188529 0.0016464
-0.000225165 0.164196 0.014339
0.00406845 0.0725566 0.239697
0.00991951 0.0514896 0.1701
0.00967799 -0.00215836 -0.0071303
0.00356536 -0.0545052 -0.180062
-0.00470989 -0.0737907 -0.243773
-0.0101282 -0.0483151 -0.159613
-0.00940257 0.00646119 0.021345
-0.0029192 0.0562724 0.185901
0.00535522 -0.11061 0.315509
0.013056 -0.0784755 0.223883
0.012738 0.00328958 -0.00938491
0.00469272 0.0830722 -0.236997
-0.0061991 0.112464 -0.320851
-0.0133306 0.0736372 -0.210081
-0.0123755 -0.00984764 0.0280941
-0.00384248 -0.0857851 0.244698
0.00339359 -0.226682 0.199937
0.00812226 -0.157931 0.139297
0.00792408 0.006619 -0.00583807
0.00291926 0.167154 -0.147432
-0.00385635 0.226295 -0.199596
-0.00829275 0.148169 -0.130688
-0.00769887 -0.0198345 0.0174943
-0.00243497 -0.175807 0.155064
0 -0.142377 0
0 -0.107696 0
0 0.00451363 0
0 0.113986 0
0 0.154315 0
0 0.101039 0
0 -0.0135255 0
0 -0.110422 0
-0.0499969 -0.0560129 -0.213573
-0.1219 -0.0398156 -0.151562
-0.118931 0.00166905 0.00635327
-0.0438145 0.0421483 0.160439
0.0578791 0.0570609 0.217203
0.124465 0.0373615 0.142217
0.115546 -0.00499592 -0.0190187
0.0358738 -0.0434416 -0.16564
-0.0696663 0.0643275 -0.297596
-0.169856 0.0456493 -0.211189
-0.165721 -0.00191356 0.00885266
-0.061052 -0.0483233 0.223557
0.08065 -0.0654211 0.302657
0.17343 -0.0428348 0.198168
0.161005 0.0057283 -0.026501
0.049987 0.0498902 -0.230805
-0.0470771 0.145648 -0.201101
-0.11478 0.103358 -0.142711
-0.111985 -0.00433261 0.00598221
-0.0412561 -0.109412 0.15107
0.0544988 -0.148125 0.204521
0.117196 -0.0969861 0.133911
0.108798 0.01297 -0.017908
0.0337788 0.112959 -0.155967
0.00406845 0.13862 0.0173793
0.00991951 0.0983716 0.0123332
0.00967799 -0.00412358 -0.000516987
0.00356536 -0.104134 -0.0130556
-0.00470989 -0.140977 -0.0176748
-0.0101282 -0.0923058 -0.0115728
-0.00940257 0.0123441 0.00154763
-0.0029192 0.107509 0.0134788
0.0527462 0.0475072 0.225318
0.128604 0.0337133 0.159896
0.125472 -0.00141321 -0.00670263
0.0462237 -0.035688 -0.16926
-0.0610621 -0.0483151 -0.229147
-0.131309 -0.0316349 -0.150038
-0.121901 0.00423051 0.0200645
-0.0378464 0.0368449 0.174749
0.0694287 -0.0724228 0.296581
0.169265 -0.0513826 0.210453
0.165143 0.00215388 -0.00882184
0.0608394 0.054392 -0.222779
-0.0803692 0.0736372 -0.301604
-0.172826 0.0482147 -0.197478
-0.160444 -0.00644786 0.0264088
-0.0498165 -0.0561687 0.230018
0.0439968 -0.148422 0.187943
0.105303 -0.103407 0.130941
0.102733 0.00433386 -0.00548784
0.0378472 0.109446 -0.138588
-0.0499963 0.148169 -0.187622
-0.107513 0.0970152 -0.122848
-0.0998134 -0.0129868 0.0164448
-0.0315686 -0.115111 0.145762
0 0.0190591 0
0 0.0144166 0
0 -0.000604212 0
0 -0.0152585 0
0 -0.0206572 0
0 -0.0135255 0
0 0.00181058 0
0 0.0147816 0
-0.06581 0.00749809 -0.0703926
-0.160443 0.00532412 -0.0499632
-0.156535 -0.000223178 0.00209438
-0.057668 -0.00563595 0.0528899
0.0761803 -0.00763005 0.0716027
0.163818 -0.00499585 0.0468826
0.152082 0.0006681 -0.00626954
0.04722 0.00581526 -0.0545941
-0.0917005 -0.00861112 -0.098086
-0.223563 -0.0061047 -0.0696192
-0.218118 0.000255896 0.00291833
-0.0803559 0.00646219 0.0736973
0.10615 0.00874857 0.0997726
0.228266 0.00572821 0.0653273
0.211912 -0.000766099 -0.00873605
0.0657969 -0.00667849 -0.0760721
-0.0619667 -0.0194969 -0.0662817
-0.151074 -0.0138221 -0.0470452
-0.147395 0.000579393 0.00197208
-0.0543001 0.0146315 0.0498011
0.0717311 0.0198083 0.0674211
0.154252 0.0129698 0.0441449
0.1432 -0.00173458 -0.00590338
0.0444624 -0.0151212 -0.0514058
0.00535522 -0.0185562 0.00572813
0.013056 -0.0131552 0.00406571
0.012738 0.000551435 -0.000170428
0.00469272 0.0139255 -0.00430385
-0.0061991 0.0188526 -0.0058266
-0.0133306 0.0123439 -0.00381504
-0.0123755 -0.00165089 0.000510179
-0.00384248 -0.0143915 0.00444254
0.0694287 -0.00635949 0.0742634
0.169265 -0.0045085 0.0527105
0.165143 0.000188986 -0.00220954
0.0608394 0.0047725 -0.0557979
-0.0803692 0.00646109 -0.0755403
-0.172826 0.00423044 -0.0494608
-0.160444 -0.000565787 0.0066143
-0.0498165 -0.0049322 0.0575961
0.0913877 0.00969479 0.0977514
0.222784 0.00687152 0.0693769
0.217358 -0.000288039 -0.00290817
0.0800761 -0.00727391 -0.0734406
-0.10578 -0.00984749 -0.0994252
-0.227471 -0.00644776 -0.0650996
-0.211173 0.000862345 0.00870568
-0.0655725 0.00751895 0.0758127
0.0579121 0.0198683 0.0619448
0.138608 0.0138424 0.0431574
0.135226 -0.000580146 -0.00180876
0.0498176 -0.0146508 -0.0456777
-0.0658092 -0.0198345 -0.0618392
-0.141517 -0.0129868 -0.0404898
-0.131382 0.00173846 0.00542012
-0.0415531 0.0154092 0.0480423
0 0.168934 0
0 0.117697 0
0 -0.00493279 0
0 -0.124571 0
0 -0.168646 0
0 -0.110422 0
0 0.0147816 0
0 0.131019 0
-0.0417036 0.0664608 0.115487
-0.0998139 0.0463037 0.0804609
-0.0973784 -0.00194062 -0.00337218
-0.0358745 -0.0490078 -0.0851597
0.0473904 -0.0663474 -0.115291
0.101909 -0.0434417 -0.0754876
0.0946109 0.00581526 0.0101051
0.0299232 0.0515447 0.0895681
-0.0581103 -0.0763263 0.160922
-0.139082 -0.0531771 0.112115
-0.135688 0.00222869 -0.00469884
-0.049988 0.0562826 -0.118663
0.0660344 0.0761962 -0.160647
0.142001 0.0498902 -0.105185
0.131832 -0.00667849 0.0140805
0.0416953 -0.0591961 0.124805
-0.0392681 -0.172815 0.108743
-0.0939848 -0.120401 0.075762
-0.0916916 0.00504612 -0.00317525
-0.0337795 0.127433 -0.0801865
0.0446228 0.17252 -0.108558
0.0959575 0.112959 -0.0710792
0.0890857 -0.0151212 0.00951493
0.0281757 -0.134029 0.0843374
0.00339359 -0.164476 -0.00939768
0.00812226 -0.114592 -0.00654743
0.00792408 0.00480263 0.000274408
0.00291926 0.121284 0.00692979
-0.00385635 0.164196 0.00938166
-0.00829274 0.107509 0.00614274
-0.00769887 -0.0143915 -0.00082229
-0.00243497 -0.127562 -0.00728852
0.0439968 -0.0563685 -0.121838
0.105303 -0.0392723 -0.0848853
0.102733 0.00164594 0.00355761
0.0378472 0.0415658 0.0898425
-0.0499963 0.0562724 0.12163
-0.107513 0.0368449 0.0796386
-0.0998134 -0.0049322 -0.0106607
-0.0315686 -0.0437175 -0.0944933
0.0579121 0.0859317 -0.160373
0.138608 0.0598692 -0.111733
0.135226 -0.00250917 0.00468282
0.0498175 -0.0633655 0.118258
-0.0658092 -0.0857851 0.160099
-0.141517 -0.0561687 0.104827
-0.131382 0.00751895 -0.0140325
-0.0415531 0.0666456 -0.12438
0.0366988 0.176107 -0.101628
0.0878353 0.122695 -0.0708048
0.0856921 -0.00514224 0.00296749
0.0315692 -0.12986 0.0749398
-0.0417031 -0.175807 0.101455
-0.0896789 -0.115111 0.0664284
-0.0832567 0.0154092 -0.00889235
-0.0263321 0.136582 -0.0788191
