# vtk DataFile Version 3.0
Velocity field
ASCII
DATASET STRUCTURED_POINTS
DIMENSIONS 8 8 8
SPACING 0.8 0.8 0.8
ORIGIN 0 0 0
POINT_DATA 512
VECTORS velocity float
0 0.355494 0
0 0.247675 0
0 -0.0103803 0
0 -0.262139 0
0 -0.354888 0
0 -0.232366 0
0 0.0311054 0
0 0.275709 0
0 0.139856 0.362835
0 0.0974386 0.268016
0 -0.00408373 -0.0112328
0 -0.103129 -0.283669
0 -0.139618 -0.384035
0 -0.091416 -0.25145
0 0.0122373 0.0336601
0 0.108468 0.281402
0 -0.160617 0.505579
0 -0.111903 0.373458
0 0.00468993 -0.0156519
0 0.118438 -0.395267
0 0.160343 -0.535119
0 0.104986 -0.350375
0 -0.0140538 0.0469024
0 -0.124569 0.39211
0 -0.363661 0.341645
0 -0.253365 0.252365
0 0.0106187 -0.0105768
0 0.268162 -0.267102
0 0.363041 -0.361607
0 0.237705 -0.236766
0 -0.0318201 0.0316944
0 -0.282043 0.264969
0 -0.346114 -0.0295253
0 -0.24114 -0.0218096
0 0.0101064 0.000914057
0 0.255222 0.0230833
0 0.345524 0.0312505
0 0.226235 0.0204616
0 -0.0302847 -0.00273906
0 -0.268434 -0.0228988
0 -0.118619 -0.382786
0 -0.0826424 -0.282754
0 0.00346361 0.0118505
0 0.0874686 0.299267
0 0.118416 0.405152
0 0.0775343 0.265278
0 -0.010379 -0.035511
0 -0.0919965 -0.296876
0 0.180829 -0.503854
0 0.125985 -0.372184
0 -0.00528014 0.0155985
0 -0.133342 0.39392
0 -0.180521 0.533294
0 -0.118198 0.34918
0 0.0158224 -0.0467425
0 0.140245 -0.390772
0 0.370589 -0.319291
0 0.258192 -0.222452
0 -0.010821 0.00932316
0 -0.27327 0.235443
0 -0.369957 0.318747
0 -0.242233 0.208703
0 0.0324262 -0.0279377
0 0.287416 -0.247631
0 0.247675 0
0 0.187346 0
0 -0.00785181 0
0 -0.198286 0
0 -0.268443 0
0 -0.175766 0
0 0.0235287 0
0 0.192088 0
0.0773446 0.0974386 0.358382
0.190846 0.0700998 0.25748
0.186212 -0.00293955 -0.010797
0.0686013 -0.0742279 -0.27264
-0.0906221 -0.100491 -0.369105
-0.194876 -0.0657975 -0.241674
-0.180902 0.00878304 0.0322626
-0.0554963 0.0755701 0.277949
0.107773 -0.111903 0.499374
0.265926 -0.0803139 0.358778
0.25947 0.0033677 -0.0150445
0.09559 0.0850406 -0.379901
-0.126275 0.115129 -0.514315
-0.271542 0.0753817 -0.336754
-0.252072 -0.0100642 0.0449551
-0.0773293 -0.0867878 0.387297
0.0728277 -0.253365 0.337453
0.179699 -0.181845 0.242444
0.175338 0.00762526 -0.0101664
0.0645947 0.19255 -0.256718
-0.0853302 0.260675 -0.34755
-0.183495 0.170681 -0.22756
-0.170338 -0.0227874 0.0303784
-0.0522553 -0.196501 0.261717
-0.00629384 -0.24114 -0.029163
-0.0155298 -0.173073 -0.0209523
-0.0151528 0.00725728 0.000878585
-0.00558235 0.183258 0.0221859
0.00737426 0.248099 0.0300353
0.0158578 0.162446 0.019666
0.0147207 -0.0216879 -0.00262534
0.00451596 -0.18702 -0.0226178
-0.0815976 -0.0826424 -0.378089
-0.201337 -0.0593151 -0.271638
-0.196452 0.00248721 0.0113906
-0.0723723 0.0628062 0.287628
0.0956057 0.0850278 0.389401
0.205588 0.0556725 0.254964
0.19085 -0.00743282 -0.0340367
0.0585479 -0.0640946 -0.293233
-0.107405 0.125985 -0.497671
-0.264968 0.0903679 -0.357487
-0.258535 -0.00378927 0.0149903
-0.0952454 -0.0956851 0.378531
0.125819 -0.129539 0.51246
0.270562 -0.0848182 0.33554
0.251164 0.0113248 -0.0447942
0.0770655 0.0977097 -0.385977
-0.0680625 0.258192 -0.315373
-0.162902 0.179884 -0.219722
-0.158927 -0.00753908 0.00920874
-0.0585492 -0.190389 0.232554
0.0773437 -0.257751 0.314835
0.166321 -0.168765 0.206141
0.15441 0.0225915 -0.0275948
0.0488362 0.200245 -0.244592
0 -0.0103803 0
0 -0.00785181 0
0 0.000329076 0
0 0.00831035 0
0 0.0112507 0
0 0.00736649 0
0 -0.000986106 0
0 -0.00805057 0
0.107773 -0.00408373 0.136539
0.265926 -0.00293955 0.0980422
0.25947 0.000123268 -0.00411117
0.09559 0.00311272 -0.103812
-0.126275 0.00421401 -0.140543
-0.271542 0.00275919 -0.092023
-0.252072 -0.000368282 0.0122852
-0.0773293 -0.0031672 0.105895
0.150172 0.00468993 0.190256
0.370545 0.0033677 0.136613
0.361548 -0.000141217 -0.00572854
0.133196 -0.00356594 -0.144653
-0.175953 -0.00482765 -0.195838
-0.378371 -0.00316098 -0.128227
-0.351241 0.000421987 0.0171183
-0.107752 0.00363735 0.147556
0.101479 0.0106187 0.128566
0.250396 0.00762526 0.0923159
0.244317 -0.000319748 -0.00387109
0.090007 -0.00807413 -0.0977515
-0.1189 -0.010931 -0.132337
-0.255685 -0.00715705 -0.0866493
-0.23735 0.000955471 0.0115677
-0.0728133 0.00823554 0.0997111
-0.00876992 0.0101064 -0.0111108
-0.0216395 0.00725728 -0.00797806
-0.0211142 -0.000304319 0.000334543
-0.00777853 -0.00768456 0.00844772
0.0102755 -0.0104035 0.0114366
0.0220966 -0.00681172 0.00748826
0.0205121 0.000909362 -0.000999692
0.0062926 0.00783816 -0.00861713
-0.113699 0.00346361 -0.144048
-0.280545 0.00248721 -0.103432
-0.273738 -0.000104295 0.00433723
-0.100845 -0.00263364 0.10952
0.133218 -0.00356541 0.148271
0.286469 -0.00233449 0.0970836
0.265932 0.000311655 -0.0129605
0.0815815 0.00268626 -0.111718
-0.14966 -0.00528014 -0.189607
-0.36921 -0.00378927 -0.13612
-0.360245 0.000158892 0.00570791
-0.132716 0.00401228 0.144132
0.175318 0.00543191 0.19513
0.377007 0.00355658 0.127764
0.349975 -0.000474844 -0.0170569
0.107384 -0.00409509 -0.147053
-0.0948392 -0.010821 -0.120153
-0.226989 -0.00753908 -0.0837117
-0.221451 0.000315969 0.00350843
-0.0815832 0.00797935 0.0886004
0.107772 0.0108026 0.119949
0.231754 0.00707309 0.0785375
0.215157 -0.00094683 -0.0105133
0.068049 -0.00839241 -0.0931869
0 -0.262139 0
0 -0.198287 0
0 0.00831035 0
0 0.209866 0
0 0.28412 0
0 0.186031 0
0 -0.0249027 0
0 -0.203306 0
0.0728277 -0.103129 -0.168126
0.179699 -0.0742279 -0.120721
0.175338 0.00311272 0.00506215
0.0645947 0.0785998 0.127827
-0.0853302 0.10641 0.173055
-0.183495 0.0696728 0.113308
-0.170338 -0.00929975 -0.0151269
-0.0522553 -0.0799833 -0.130393
0.101479 0.118438 -0.234269
0.250396 0.0850406 -0.168214
0.244317 -0.00356594 0.0070536
0.090007 -0.0900464 0.178117
-0.1189 -0.121907 0.241135
-0.255685 -0.0798195 0.157886
-0.23735 0.010656 -0.021078
-0.0728133 0.0918562 -0.181691
0.0685746 0.268162 -0.158308
0.169206 0.19255 -0.11367
0.165098 -0.00807413 0.00476648
0.0608225 -0.203882 0.120362
-0.0803467 -0.276023 0.162948
-0.17278 -0.180728 0.106691
-0.16039 0.0241275 -0.0142434
-0.0492037 0.207977 -0.122778
-0.00592629 0.255222 0.0136811
-0.0146228 0.183258 0.00982352
-0.0142678 -0.00768456 -0.000411924
-0.00525636 -0.194048 -0.0104018
0.00694356 -0.262704 -0.014082
0.0149316 -0.172009 -0.00922035
0.0138609 0.0229632 0.00123093
0.00425223 0.197942 0.0106106
-0.0768324 0.0874686 0.177371
-0.189581 0.0628062 0.127358
-0.184979 -0.00263364 -0.0053405
-0.0681468 -0.0665034 -0.134856
0.0900218 -0.0900329 -0.18257
0.193586 -0.05895 -0.119539
0.179703 0.00786991 0.0159587
0.0551288 0.0678376 0.137563
-0.101133 -0.133342 0.23347
-0.249494 -0.0956851 0.167608
-0.243437 0.00401228 -0.00702817
-0.0896827 0.101316 -0.177475
0.118471 0.137164 -0.240267
0.254763 0.0898094 -0.157317
0.236495 -0.0119907 0.0210026
0.072565 -0.103416 0.181071
-0.0640877 -0.27327 0.147949
-0.153388 -0.190389 0.103077
-0.149646 0.00797935 -0.00432005
-0.0551299 0.201507 -0.109097
0.0728269 0.272804 -0.147697
0.156608 0.178621 -0.0967061
0.145393 -0.0239109 0.0129454
0.0459842 -0.211939 0.114744
0 -0.354888 0
0 -0.268443 0
0 0.0112507 0
0 0.28412 0
0 0.384646 0
0 0.251851 0
0 -0.0337137 0
0 -0.275239 0
-0.00629384 -0.139618 -0.370808
-0.0155298 -0.100491 -0.266253
-0.0151528 0.00421401 0.0111648
-0.00558235 0.10641 0.281924
0.00737426 0.144058 0.381679
0.0158578 0.0943248 0.249908
0.0147207 -0.0125902 -0.0333629
0.00451596 -0.108283 -0.287586
-0.00876992 0.160343 -0.516689
-0.0216395 0.115129 -0.371
-0.0211142 -0.00482765 0.0155572
-0.00777853 -0.121907 0.392844
0.0102755 -0.165039 0.531835
0.0220966 -0.10806 0.348227
0.0205121 0.0144262 -0.0464884
0.0062926 0.124356 -0.400727
-0.00592629 0.363041 -0.349154
-0.0146228 0.260675 -0.250706
-0.0142678 -0.010931 0.0105128
-0.00525636 -0.276023 0.265463
0.00694356 -0.373684 0.359387
0.0149316 -0.244673 0.235312
0.0138609 0.032664 -0.0314146
0.00425223 0.281562 -0.270792
0.000512156 0.345524 0.0301742
0.00126373 0.248099 0.0216662
0.00123304 -0.0104035 -0.000908512
0.000454254 -0.262704 -0.0229415
-0.000600075 -0.355655 -0.0310587
-0.00129042 -0.232866 -0.020336
-0.00119788 0.031088 0.00271487
-0.000367482 0.267976 0.0234021
0.00663993 0.118416 0.391199
0.0163838 0.0850278 0.280891
0.0159861 -0.00356541 -0.0117787
0.00588931 -0.0900329 -0.297426
-0.0077798 -0.121888 -0.402663
-0.0167298 -0.0798075 -0.26365
-0.0155302 0.0106544 0.0351972
-0.00476428 0.0918396 0.3034
0.00874002 -0.180521 0.514927
0.0215615 -0.129539 0.369665
0.0210381 0.00543191 -0.0155011
0.0077505 0.137164 -0.391426
-0.0102384 0.185695 -0.529919
-0.0220169 0.121586 -0.346971
-0.0204382 -0.0162331 0.046322
-0.00627114 -0.140006 0.39936
0.00553852 -0.369957 0.326308
0.013256 -0.257751 0.227341
0.0129325 0.0108026 -0.00952805
0.00476438 0.272804 -0.240617
-0.00629377 0.369326 -0.325752
-0.0135342 0.24182 -0.213289
-0.012565 -0.0323709 0.0285517
-0.003974 -0.286926 0.253073
0 -0.232366 0
0 -0.175766 0
0 0.00736649 0
0 0.186031 0
0 0.251851 0
0 0.164902 0
0 -0.0220744 0
0 -0.180215 0
-0.0815976 -0.091416 -0.348563
-0.201337 -0.0657975 -0.250282
-0.196452 0.00275919 0.010495
-0.0723723 0.0696728 0.265015
0.0956057 0.0943248 0.35878
0.205588 0.0617601 0.234915
0.19085 -0.00824356 -0.0313615
0.0585479 -0.0708991 -0.270334
-0.113699 0.104986 -0.485693
-0.280545 0.0753817 -0.348747
-0.273738 -0.00316098 0.0146237
-0.100845 -0.0798195 0.369275
0.133218 -0.10806 0.499931
0.286469 -0.0707533 0.327335
0.265932 0.00944574 -0.0436995
0.0815815 0.0814235 -0.376687
-0.0768324 0.237705 -0.328208
-0.189581 0.170681 -0.235665
-0.184979 -0.00715705 0.00988206
-0.0681468 -0.180728 0.249539
0.0900218 -0.244673 0.337829
0.193586 -0.160202 0.221195
0.179703 0.0213872 -0.0295299
0.0551288 0.184356 -0.254547
0.00663993 0.226235 0.028364
0.0163838 0.162446 0.0203665
0.0159861 -0.00681172 -0.00085401
0.00588931 -0.172009 -0.0215654
-0.0077798 -0.232866 -0.0291953
-0.0167298 -0.152471 -0.019116
-0.0155302 0.0203552 0.00255201
-0.00476428 0.17546 0.0219982
0.0860846 0.0775343 0.36773
0.212407 0.0556725 0.264042
0.207251 -0.00233449 -0.0110721
0.0763521 -0.05895 -0.279585
-0.100862 -0.0798075 -0.37851
-0.216894 -0.0522544 -0.247834
-0.201342 0.00697603 0.0330859
-0.0617674 0.0601329 0.285199
0.113311 -0.118198 0.484037
0.279534 -0.0848182 0.34749
0.27275 0.00355658 -0.0145711
0.100482 0.0898094 -0.367945
-0.132738 0.121586 -0.49813
-0.285437 0.0796098 -0.326156
-0.264974 -0.0106289 0.043543
-0.0813033 -0.0916703 0.375402
0.0718052 -0.242233 0.306733
0.171859 -0.168765 0.213703
0.167666 0.00707309 -0.00895645
0.0617687 0.178621 -0.226183
-0.0815967 0.24182 -0.30621
-0.175467 0.158334 -0.200494
-0.162901 -0.0211952 0.0268388
-0.0515216 -0.187868 0.237891
0 0.0311054 0
0 0.0235287 0
0 -0.000986106 0
0 -0.0249027 0
0 -0.0337137 0
0 -0.0220744 0
0 0.00295496 0
0 0.0241243 0
-0.107405 0.0122373 -0.114884
-0.264968 0.00878283 -0.0825318
-0.258535 -0.000368273 0.00346082
-0.0952455 -0.00929953 0.0873915
0.125819 -0.0125899 0.118311
0.270562 -0.00824336 0.0774654
0.251164 0.00110073 -0.010341
0.0770655 0.00949082 -0.0891005
-0.14966 -0.0140538 -0.160082
-0.36921 -0.010064 -0.115001
-0.360245 0.000421976 0.00482234
-0.132716 0.0106558 0.121772
0.175318 0.0144259 0.164857
0.377007 0.00944551 0.107942
0.349975 -0.00126146 -0.0144093
0.107384 -0.0108997 -0.124154
-0.101133 -0.0318201 -0.108175
-0.249494 -0.0227869 -0.0777119
-0.243437 0.000955447 0.00325872
-0.0896828 0.0241269 0.0822875
0.118471 0.0326632 0.111402
0.254763 0.0213866 0.0729415
0.236495 -0.00285616 -0.00973712
0.072565 -0.0246786 -0.0838971
0.00874002 -0.0302847 0.00934862
0.0215615 -0.0216873 0.00671595
0.0210381 0.00090934 -0.00028162
0.0077505 0.0229626 -0.00711136
-0.0102384 0.0310872 -0.00962744
-0.0220169 0.0203547 -0.0063037
-0.0204382 -0.00271836 0.000841497
-0.00627114 -0.0234878 0.00725047
0.113311 -0.010379 0.121202
0.279534 -0.00743264 0.0870702
0.27275 0.000311648 -0.00365111
0.100482 0.00786971 -0.0921967
-0.132738 0.0106541 -0.124817
-0.285437 0.00697586 -0.0817253
-0.264974 -0.000931627 0.0109097
-0.0813033 -0.00804962 0.094
0.14915 0.0158224 0.159536
0.36788 0.0113246 0.114587
0.358948 -0.000474833 -0.00480494
0.132238 -0.0119904 -0.121332
-0.174686 -0.0162327 -0.164262
-0.375649 -0.0106286 -0.107552
-0.348713 0.00141953 0.0143577
-0.107018 0.0122713 0.12373
0.0945157 0.0324262 0.101097
0.226215 0.0225915 0.0704352
0.220696 -0.00094683 -0.00295199
0.0813049 -0.0239109 -0.0745485
-0.107404 -0.0323709 -0.100925
-0.230963 -0.0211952 -0.0660816
-0.214423 0.00283727 0.00884593
-0.067817 0.0251486 0.0784076
0 0.275709 0
0 0.192088 0
0 -0.00805057 0
0 -0.203306 0
0 -0.275239 0
0 -0.180215 0
0 0.0241243 0
0 0.21383 0
-0.0680625 0.108468 0.188482
-0.162902 0.0755701 0.131316
-0.158927 -0.0031672 -0.00550358
-0.0585492 -0.0799833 -0.138985
0.0773437 -0.108283 -0.18816
0.166321 -0.0708991 -0.1232
0.15441 0.00949082 0.016492
0.0488362 0.0841237 0.14618
-0.0948392 -0.124569 0.262633
-0.226989 -0.0867879 0.182978
-0.221451 0.00363735 -0.00766876
-0.0815832 0.0918562 -0.193664
0.107772 0.124356 -0.262185
0.231754 0.0814235 -0.171668
0.215157 -0.0108997 0.0229802
0.068049 -0.0966112 0.203689
-0.0640877 -0.282043 0.177475
-0.153388 -0.196501 0.123648
-0.149646 0.00823554 -0.00518218
-0.0551299 0.207977 -0.130869
0.0728269 0.281562 -0.177172
0.156608 0.184356 -0.116005
0.145393 -0.0246786 0.0155289
0.0459842 -0.218743 0.137643
0.00553852 -0.268434 -0.0153375
0.013256 -0.18702 -0.0106858
0.0129325 0.00783816 0.000447849
0.00476438 0.197942 0.0113098
-0.00629377 0.267976 0.0153114
-0.0135342 0.17546 0.0100253
-0.012565 -0.0234878 -0.00134202
-0.003974 -0.208188 -0.0118953
0.0718052 -0.0919965 -0.198846
0.171859 -0.0640946 -0.138537
0.167666 0.00268626 0.00580622
0.0617687 0.0678376 0.146628
-0.0815967 0.0918396 0.198507
-0.175467 0.0601329 0.129974
-0.162901 -0.00804962 -0.0173989
-0.0515216 -0.0713493 -0.154218
0.0945157 0.140245 -0.261737
0.226215 0.0977097 -0.182354
0.220696 -0.00409509 0.00764261
0.0813049 -0.103416 0.193003
-0.107404 -0.140006 0.261291
-0.230963 -0.0916703 0.171083
-0.214423 0.0122713 -0.0229018
-0.067817 0.108769 -0.202994
0.0598944 0.287416 -0.165862
0.143352 0.200245 -0.115557
0.139854 -0.00839241 0.0048431
0.0515227 -0.211939 0.122306
-0.0680617 -0.286926 0.165579
-0.146361 -0.187868 0.108415
-0.135879 0.0251486 -0.0145128
-0.0429754 0.22291 -0.128637
