# vtk DataFile Version 3.0
Velocity field
ASCII
DATASET STRUCTURED_POINTS
DIMENSIONS 8 8 8
SPACING 0.8 0.8 0.8
ORIGIN 0 0 0
POINT_DATA 512
VECTORS velocity float
0 0.34164 0
0 0.238023 0
0 -0.00997574 0
0 -0.251923 0
0 -0.341058 0
0 -0.223311 0
0 0.0298932 0
0 0.264964 0
0 0.134406 0.348695
0 0.0936414 0.257572
0 -0.00392459 -0.010795
0 -0.09911 -0.272614
0 -0.134177 -0.369069
0 -0.0878535 -0.241651
0 0.0117604 0.0323484
0 0.104241 0.270436
0 -0.154357 0.485876
0 -0.107542 0.358904
0 0.00450716 -0.015042
0 0.113822 -0.379864
0 0.154094 -0.514265
0 0.100895 -0.33672
0 -0.0135061 0.0450746
0 -0.119714 0.376829
0 -0.349489 0.328331
0 -0.243492 0.24253
0 0.0102049 -0.0101646
0 0.257711 -0.256693
0 0.348893 -0.347515
0 0.228441 -0.227539
0 -0.03058 0.0304592
0 -0.271052 0.254643
0 -0.332626 -0.0283747
0 -0.231743 -0.0209597
0 0.00971252 0.000878436
0 0.245276 0.0221837
0 0.332059 0.0300326
0 0.217419 0.0196642
0 -0.0291045 -0.00263232
0 -0.257973 -0.0220065
0 -0.113996 -0.367869
0 -0.0794217 -0.271735
0 0.00332863 0.0113886
0 0.0840599 0.287604
0 0.113802 0.389363
0 0.0745127 0.25494
0 -0.00997455 -0.0341271
0 -0.0884113 -0.285307
0 0.173782 -0.484219
0 0.121075 -0.35768
0 -0.00507437 0.0149907
0 -0.128146 0.378568
0 -0.173486 0.512511
0 -0.113592 0.335572
0 0.0152058 -0.0449209
0 0.13478 -0.375544
0 0.356147 -0.306848
0 0.24813 -0.213783
0 -0.0103993 0.00895983
0 -0.26262 0.226268
0 -0.355539 0.306325
0 -0.232793 0.200569
0 0.0311625 -0.026849
0 0.276215 -0.237981
0 0.238023 0
0 0.180045 0
0 -0.00754582 0
0 -0.190559 0
0 -0.257982 0
0 -0.168916 0
0 0.0226118 0
0 0.184602 0
0.0743304 0.0936414 0.344416
0.183182 0.0672849 0.247145
0.178733 -0.00282138 -0.0103632
0.0658462 -0.0712447 -0.261688
-0.0869825 -0.0964524 -0.354276
-0.18705 -0.0631531 -0.231966
-0.173638 0.00843188 0.0309732
-0.0533336 0.0726251 0.267117
0.103573 -0.107542 0.479913
0.255249 -0.0770937 0.344377
0.249049 0.00323253 -0.01444
0.0917508 0.0816281 -0.364639
-0.121203 0.110509 -0.493655
-0.260637 0.0723568 -0.323225
-0.24195 -0.00966238 0.0431585
-0.0743157 -0.0834057 0.372204
0.0699896 -0.243492 0.324302
0.172484 -0.174554 0.232713
0.168296 0.0073192 -0.00975791
0.0620005 0.184823 -0.246406
-0.0819031 0.250215 -0.333588
-0.176125 0.163832 -0.218418
-0.163498 -0.0218775 0.0291644
-0.0502189 -0.188844 0.251518
-0.00604857 -0.231743 -0.0280265
-0.0149063 -0.166133 -0.0201113
-0.0145442 0.00696599 0.000843282
-0.00535815 0.175904 0.0212946
0.0070781 0.238143 0.0288287
0.015221 0.155927 0.018876
0.0141295 -0.0208219 -0.00252041
0.00433997 -0.179732 -0.0217364
-0.0784177 -0.0794217 -0.363354
-0.193253 -0.0569367 -0.260735
-0.188562 0.00238738 0.010933
-0.0694657 0.0602859 0.276074
0.0917659 0.0816156 0.373758
0.197332 0.0534383 0.244722
0.183186 -0.00713602 -0.0326764
0.0562663 -0.0615968 -0.281805
-0.10322 0.121075 -0.478276
-0.254333 0.0867485 -0.343142
-0.248156 -0.00363736 0.0143882
-0.0914215 -0.0918498 0.36333
0.120768 -0.124347 0.491881
0.2597 -0.0814184 0.322065
0.241082 0.0108731 -0.0430045
0.0740622 0.0939019 -0.370935
-0.0654101 0.24813 -0.303082
-0.156553 0.172874 -0.21116
-0.152733 -0.00724527 0.00884987
-0.0562675 -0.182969 0.223491
0.0743296 -0.247707 0.302566
0.159839 -0.162188 0.198108
0.148393 0.0217111 -0.0265195
0.046933 0.192441 -0.23506
0 -0.00997574 0
0 -0.00754582 0
0 0.000316251 0
0 0.00798649 0
0 0.0108122 0
0 0.00707942 0
0 -0.000947677 0
0 -0.00773684 0
0.103573 -0.00392459 0.131218
0.255249 -0.00282138 0.0941077
0.249049 0.000118307 -0.00394602
0.0917508 0.00298748 -0.0996429
-0.121203 0.00404447 -0.134898
-0.260637 0.00264817 -0.088327
-0.24195 -0.000353544 0.0117943
-0.0743157 -0.00304378 0.101769
0.14432 0.00450716 0.182841
0.355666 0.00323253 0.131131
0.347027 -0.000135543 -0.00549841
0.127847 -0.0034227 -0.138844
-0.168887 -0.00463373 -0.187972
-0.363174 -0.003034 -0.123077
-0.337137 0.000405123 0.0164343
-0.103552 0.0034956 0.141806
0.0975244 0.0102049 0.123555
0.240342 0.0073192 0.0886113
0.234505 -0.0003069 -0.00371558
0.0863921 -0.0077498 -0.0938254
-0.114124 -0.0104919 -0.127022
-0.245416 -0.00686954 -0.0831692
-0.227819 0.000917287 0.0111055
-0.0699757 0.00791459 0.0958253
-0.00842816 0.00971252 -0.0106778
-0.0207706 0.00696599 -0.00765791
-0.0202662 -0.000292091 0.000321104
-0.00746612 -0.00737586 0.00810845
0.00986278 -0.00998555 0.0109773
0.0212091 -0.00653808 0.0071875
0.0196884 0.000873021 -0.000959748
0.00604737 0.0075327 -0.00828132
-0.109268 0.00332863 -0.138434
-0.26928 0.00238738 -0.0992812
-0.262745 -0.000100104 0.004163
-0.096795 -0.00252784 0.105122
0.127868 -0.00342218 0.142316
0.274964 -0.00224071 0.0931843
0.255254 0.0002992 -0.0124427
0.0784022 0.00258157 -0.107365
-0.143828 -0.00507437 -0.182218
-0.35439 -0.00363736 -0.13066
-0.345782 0.000152516 0.00547869
-0.127388 0.0038513 0.138345
0.16828 0.00521396 0.187296
0.361871 0.00341388 0.122635
0.335927 -0.000455886 -0.0163756
0.103199 -0.0039355 -0.141322
-0.0911433 -0.0103993 -0.115471
-0.218143 -0.00724527 -0.0804494
-0.212821 0.000303655 0.0033717
-0.0784038 0.00766839 0.0851476
0.103572 0.0103816 0.115274
0.222722 0.00679745 0.0754769
0.206772 -0.000909932 -0.0101036
0.0653971 -0.00806535 -0.0895554
0 -0.251923 0
0 -0.190559 0
0 0.00798649 0
0 0.201688 0
0 0.273048 0
0 0.178781 0
0 -0.0239323 0
0 -0.195383 0
0.0699896 -0.09911 -0.161574
0.172484 -0.0712447 -0.115876
0.168296 0.00298748 0.00485879
0.0620005 0.0754382 0.122694
-0.0819031 0.102129 0.166104
-0.176125 0.0668703 0.108757
-0.163498 -0.00892767 -0.0145225
-0.0502189 -0.0768663 -0.125311
0.0975244 0.113822 -0.225139
0.240342 0.0816281 -0.161463
0.234505 -0.0034227 0.00677024
0.0863921 -0.08643 0.170964
-0.114124 -0.117011 0.231451
-0.245416 -0.0766138 0.151545
-0.227819 0.0102303 -0.0202358
-0.0699757 0.0882765 -0.17461
0.0659022 0.257711 -0.152138
0.162411 0.184823 -0.109108
0.158467 -0.0077498 0.004575
0.0583797 -0.195694 0.115528
-0.0771198 -0.264938 0.156404
-0.16584 -0.17347 0.102406
-0.153949 0.0231635 -0.0136743
-0.0472862 0.199872 -0.117993
-0.00569534 0.245276 0.0131479
-0.0140356 0.175904 0.00942931
-0.0136947 -0.00737586 -0.000395377
-0.00504525 -0.186254 -0.00998407
0.00666469 -0.252153 -0.0135164
0.014332 -0.1651 -0.00885004
0.0133043 0.0220457 0.00118175
0.00408652 0.190228 0.0101971
-0.0738382 0.0840599 0.170459
-0.181969 0.0602859 0.122248
-0.177549 -0.00252784 -0.00512597
-0.06541 -0.0638325 -0.12944
0.0864063 -0.0864168 -0.175237
0.185811 -0.0565823 -0.114738
0.172487 0.00755545 0.015321
0.0529804 0.065194 0.132202
-0.0971918 -0.128146 0.224372
-0.23948 -0.0918498 0.160885
-0.233663 0.0038513 -0.00674594
-0.0860821 0.0972517 -0.17035
0.113715 0.131662 -0.230621
0.244535 0.0862067 -0.151001
0.227002 -0.0115121 0.0201636
0.0697371 -0.0993857 0.174015
-0.0615902 -0.26262 0.142184
-0.147411 -0.182969 0.0990603
-0.143814 0.00766839 -0.0041517
-0.0529815 0.193655 -0.104845
0.0699888 0.262172 -0.141941
0.150505 0.17166 -0.0929374
0.139727 -0.0229791 0.012441
0.0441922 -0.203679 0.110273
0 -0.341058 0
0 -0.257982 0
0 0.0108122 0
0 0.273048 0
0 0.369656 0
0 0.242036 0
0 -0.0323999 0
0 -0.264512 0
-0.00604857 -0.134177 -0.356358
-0.0149063 -0.0964523 -0.255569
-0.0145442 0.00404447 0.0107163
-0.00535815 0.102129 0.270601
0.0070781 0.138263 0.36635
0.015221 0.0905305 0.239871
0.0141295 -0.0120865 -0.0320299
0.00433997 -0.104063 -0.276379
-0.00842816 0.154094 -0.496554
-0.0207706 0.110509 -0.356112
-0.0202662 -0.00463373 0.0149322
-0.00746612 -0.117011 0.377066
0.00986278 -0.158411 0.510476
0.0212091 -0.103721 0.334241
0.0196884 0.0138498 -0.0446308
0.00604737 0.11951 -0.38511
-0.00569534 0.348893 -0.335547
-0.0140356 0.250215 -0.240645
-0.0136947 -0.0104919 0.0100905
-0.00504525 -0.264938 0.254802
0.00666469 -0.358676 0.344953
0.014332 -0.234846 0.225861
0.0133043 0.0313589 -0.0301594
0.00408652 0.27059 -0.260239
0.000492197 0.332059 0.0289983
0.00121298 0.238143 0.0207968
0.00118352 -0.00998555 -0.000872016
0.00043601 -0.252153 -0.0220201
-0.000575974 -0.34137 -0.0298113
-0.00123859 -0.223513 -0.0195193
-0.00114978 0.0298458 0.0026064
-0.000353161 0.257533 0.0224901
0.00638117 0.113802 0.375953
0.0157259 0.0816156 0.26962
0.0153441 -0.00342218 -0.0113055
0.00565278 -0.0864168 -0.285481
-0.00746735 -0.116993 -0.386491
-0.0160579 -0.0766021 -0.253061
-0.0149066 0.0102287 0.0337909
-0.00457862 0.0882606 0.291577
0.00839941 -0.173486 0.49486
0.0206961 -0.124347 0.354836
0.0201934 0.00521396 -0.0148786
0.00743933 0.131662 -0.375711
-0.00982739 0.178246 -0.508645
-0.0211329 0.116708 -0.333041
-0.0196178 -0.0155851 0.0444717
-0.00602675 -0.13455 0.383797
0.00532268 -0.355539 0.313592
0.0127394 -0.247707 0.218481
0.0124285 0.0103816 -0.00915673
0.00457871 0.262172 -0.23124
-0.0060485 0.354933 -0.313057
-0.0130068 0.232396 -0.204977
-0.0120753 -0.0311094 0.027439
-0.00381913 -0.275744 0.243211
0 -0.223311 0
0 -0.168916 0
0 0.00707942 0
0 0.178781 0
0 0.242036 0
0 0.158476 0
0 -0.0212141 0
0 -0.173192 0
-0.0784177 -0.0878535 -0.33498
-0.193253 -0.0631531 -0.240239
-0.188562 0.00264817 0.0100734
-0.0694657 0.0668703 0.254372
0.0917659 0.0905305 0.344371
0.197332 0.0592758 0.22548
0.183186 -0.00791373 -0.0301084
0.0562663 -0.0681361 -0.259799
-0.109268 0.100895 -0.466765
-0.26928 0.0723568 -0.334752
-0.262745 -0.003034 0.0140363
-0.096795 -0.0766138 0.354444
0.127868 -0.103721 0.479852
0.274964 -0.0679118 0.314189
0.255254 0.00906833 -0.0419535
0.0784022 0.0782504 -0.362007
-0.0738382 0.228441 -0.315417
-0.181969 0.163832 -0.226208
-0.177549 -0.00686954 0.00948508
-0.06541 -0.17347 0.239516
0.0864063 -0.234846 0.324261
0.185811 -0.153768 0.212311
0.172487 0.0205326 -0.02835
0.0529804 0.177171 -0.244627
0.00638117 0.217419 0.0272587
0.0157259 0.155927 0.0195492
0.0153441 -0.00653808 -0.000819704
0.00565278 -0.165101 -0.0206993
-0.00746735 -0.223513 -0.0280227
-0.0160579 -0.146348 -0.0183482
-0.0149066 0.0195419 0.00245004
-0.00457862 0.168622 0.0211409
0.0827298 0.0745127 0.3534
0.203879 0.0534383 0.253447
0.198927 -0.00224071 -0.0106273
0.0732856 -0.0565823 -0.268356
-0.0968108 -0.0766021 -0.363308
-0.208183 -0.0501557 -0.23788
-0.193257 0.00669729 0.031764
-0.0593603 0.0577895 0.274085
0.108896 -0.113592 0.465173
0.268314 -0.0814184 0.333551
0.2618 0.00341388 -0.0139859
0.0964476 0.0862067 -0.353173
-0.127409 0.116708 -0.478131
-0.273977 0.0764163 -0.313062
-0.254339 -0.0102046 0.0418037
-0.0781348 -0.0880979 0.360773
0.0690069 -0.232793 0.294779
0.165162 -0.162188 0.205375
0.161132 0.00679745 -0.00860741
0.0593615 0.17166 -0.217368
-0.0784168 0.232396 -0.294276
-0.168629 0.152164 -0.19268
-0.156553 -0.0203692 0.0257929
-0.0495138 -0.180546 0.228621
0 0.0298932 0
0 0.0226118 0
0 -0.000947677 0
0 -0.0239323 0
0 -0.0323999 0
0 -0.0212141 0
0 0.0028398 0
0 0.0231842 0
-0.10322 0.0117604 -0.110407
-0.254333 0.00843169 -0.0792168
-0.248156 -0.000353536 0.00332166
-0.0914215 -0.00892747 0.0838783
0.120768 -0.0120862 0.113555
0.2597 -0.00791355 0.0743513
0.241082 0.00105688 -0.00992754
0.0740622 0.00912096 -0.0856282
-0.143828 -0.0135061 -0.153843
-0.35439 -0.00966215 -0.110382
-0.345782 0.000405114 0.00462844
-0.127388 0.01023 0.116876
0.16828 0.0138495 0.158229
0.361871 0.00906812 0.103603
0.335927 -0.00121126 -0.0138331
0.103199 -0.0104749 -0.119315
-0.0971918 -0.03058 -0.10396
-0.23948 -0.021877 -0.0745905
-0.233663 0.000917265 0.00312769
-0.0860821 0.0231629 0.0789795
0.113715 0.0313582 0.106923
0.244535 0.0205321 0.0700092
0.227002 -0.00274251 -0.00934777
0.0697371 -0.0237168 -0.0806276
0.00839941 -0.0291045 0.0089843
0.0206961 -0.0208214 0.0064462
0.0201934 0.000873 -0.000270296
0.00743933 0.0220451 -0.00682547
-0.00982739 0.0298451 -0.00924042
-0.0211329 0.0195414 -0.00605028
-0.0196178 -0.0026102 0.000807848
-0.00602675 -0.0225724 0.00696791
0.108896 -0.00997455 0.116478
0.268314 -0.00713586 0.083573
0.2618 0.000299193 -0.0035043
0.0964476 0.00755527 -0.0884904
-0.127409 0.0102284 -0.119799
-0.273977 0.00669713 -0.0784399
-0.254339 -0.000894557 0.0104734
-0.0781348 -0.00773592 0.0903367
0.143337 0.0152058 0.153318
0.353119 0.0108728 0.109986
0.344542 -0.000455875 -0.00461181
0.126931 -0.0115118 -0.116457
-0.167675 -0.0155848 -0.157661
-0.360573 -0.0102043 -0.10323
-0.33472 0.00136309 0.0137838
-0.102847 0.0117931 0.118909
0.0908324 0.0311625 0.0971574
0.2174 0.0217111 0.0676903
0.212095 -0.000909932 -0.00283695
0.0781364 -0.0229791 -0.0716433
-0.103219 -0.0311094 -0.0969918
-0.221963 -0.0203692 -0.0635063
-0.206067 0.0027267 0.0085012
-0.0651741 0.0241686 0.075352
0 0.264964 0
0 0.184602 0
0 -0.00773684 0
0 -0.195383 0
0 -0.264513 0
0 -0.173192 0
0 0.0231842 0
0 0.205497 0
-0.0654101 0.104241 0.181136
-0.156553 0.0726251 0.126199
-0.152733 -0.00304378 -0.0052891
-0.0562675 -0.0768663 -0.133569
0.0743296 -0.104063 -0.180828
0.159839 -0.0681361 -0.118399
0.148393 0.00912096 0.0158493
0.046933 0.0808454 0.140483
-0.0911433 -0.119714 0.252398
-0.218143 -0.0834057 0.175847
-0.212821 0.0034956 -0.00736991
-0.0784038 0.0882765 -0.186117
0.103572 0.11951 -0.251968
0.222722 0.0782504 -0.164978
0.206772 -0.0104749 0.0220846
0.0653971 -0.0928462 0.195751
-0.0615902 -0.271052 0.170558
-0.147411 -0.188844 0.118829
-0.143814 0.00791459 -0.00498022
-0.0529815 0.199872 -0.125769
0.0699888 0.27059 -0.170267
0.150505 0.177171 -0.111484
0.139727 -0.0237168 0.0149237
0.0441922 -0.210219 0.132279
0.00532268 -0.257973 -0.0147398
0.0127394 -0.179732 -0.0102693
0.0124285 0.0075327 0.000430396
0.00457871 0.190228 0.010869
-0.0060485 0.257533 0.0147147
-0.0130068 0.168623 0.00963459
-0.0120753 -0.0225724 -0.00128972
-0.00381913 -0.200075 -0.0114317
0.0690069 -0.0884113 -0.191097
0.165162 -0.0615968 -0.133139
0.161132 0.00258157 0.00557994
0.0593615 0.065194 0.140914
-0.0784168 0.0882606 0.190771
-0.168629 0.0577895 0.124909
-0.156553 -0.00773592 -0.0167208
-0.0495138 -0.0685688 -0.148208
0.0908324 0.13478 -0.251537
0.217399 0.0939019 -0.175248
0.212095 -0.00393551 0.00734477
0.0781364 -0.0993857 0.185482
-0.103219 -0.13455 0.251108
-0.221963 -0.0880979 0.164416
-0.206067 0.0117931 -0.0220093
-0.0651741 0.10453 -0.195084
0.0575602 0.276215 -0.159398
0.137765 0.192441 -0.111054
0.134404 -0.00806535 0.00465436
0.0495148 -0.203679 0.117539
-0.0654093 -0.275744 0.159127
-0.140657 -0.180546 0.10419
-0.130584 0.0241686 -0.0139472
-0.0413006 0.214223 -0.123624
