# vtk DataFile Version 3.0
Velocity field
ASCII
DATASET STRUCTURED_POINTS
DIMENSIONS 8 8 8
SPACING 0.8 0.8 0.8
ORIGIN 0 0 0
POINT_DATA 512
VECTORS velocity float
0 0.425326 0
0 0.296328 0
0 -0.0124193 0
0 -0.313633 0
0 -0.424601 0
0 -0.278012 0
0 0.0372157 0
0 0.329869 0
0 0.167329 0.434109
0 0.116579 0.320665
0 -0.00488593 -0.0134393
0 -0.123387 -0.339392
0 -0.167044 -0.459474
0 -0.109374 -0.300845
0 0.0146412 0.0402723
0 0.129775 0.33668
0 -0.192168 0.604894
0 -0.133885 0.446819
0 0.00561121 -0.0187266
0 0.141703 -0.472913
0 0.19184 -0.640237
0 0.125609 -0.419202
0 -0.0168145 0.0561159
0 -0.149039 0.469135
0 -0.435098 0.408758
0 -0.303136 0.301939
0 0.0127047 -0.0126545
0 0.320839 -0.319571
0 0.434356 -0.432641
0 0.284399 -0.283276
0 -0.0380707 0.0379204
0 -0.337447 0.317018
0 -0.414104 -0.0353252
0 -0.288509 -0.0260938
0 0.0120916 0.00109361
0 0.305358 0.0276177
0 0.413398 0.0373892
0 0.270676 0.024481
0 -0.0362338 -0.00327712
0 -0.321165 -0.027397
0 -0.14192 -0.45798
0 -0.0988765 -0.338298
0 0.00414399 0.0141783
0 0.104651 0.358054
0 0.141678 0.484739
0 0.0927649 0.317388
0 -0.0124179 -0.0424867
0 -0.110068 -0.355194
0 0.216351 -0.602831
0 0.150733 -0.445295
0 -0.00631736 0.0186627
0 -0.159536 0.4713
0 -0.215982 0.638053
0 -0.141417 0.417772
0 0.0189306 -0.0559245
0 0.167795 -0.467535
0 0.443386 -0.382012
0 0.30891 -0.26615
0 -0.0129467 0.0111546
0 -0.32695 0.281693
0 -0.44263 0.381361
0 -0.289817 0.2497
0 0.0387959 -0.0334257
0 0.343875 -0.296275
0 0.296328 0
0 0.224147 0
0 -0.0093942 0
0 -0.237238 0
0 -0.321176 0
0 -0.210293 0
0 0.0281506 0
0 0.229822 0
0.092538 0.116579 0.428782
0.22979 0.0843991 0.309987
0.224224 -0.00354011 -0.0130023
0.0826043 -0.0893873 -0.328305
-0.109121 -0.121015 -0.444469
-0.234657 -0.0792353 -0.291022
-0.21782 0.0105636 0.0388011
-0.0663979 0.0904149 0.332548
0.128944 -0.133885 0.59747
0.320188 -0.0966693 0.431945
0.312433 0.00405454 -0.0181176
0.115103 0.102379 -0.45747
-0.15205 0.138601 -0.619322
-0.32697 0.0907505 -0.405513
-0.303511 -0.0121015 0.0540665
-0.0925197 -0.103836 0.463377
0.0871338 -0.303136 0.403741
0.216369 -0.218878 0.291888
0.21113 0.00918054 -0.0122429
0.0777799 0.231808 -0.309132
-0.102749 0.313822 -0.418512
-0.220952 0.205482 -0.274024
-0.2051 -0.0274006 0.0365356
-0.0625203 -0.235102 0.313128
-0.00753019 -0.288509 -0.0348917
-0.0186988 -0.20832 -0.0252252
-0.0182461 0.00873747 0.00105804
-0.00672189 0.220622 0.0267158
0.00887964 0.298683 0.0361682
0.0190947 0.195567 0.0236814
0.0177249 -0.0260784 -0.00315743
0.00540306 -0.223758 -0.0270608
-0.0976265 -0.0988765 -0.45236
-0.242422 -0.071395 -0.327033
-0.236554 0.00299451 0.0137172
-0.0871455 0.0756115 0.346354
0.115122 0.102365 0.46891
0.247555 0.067024 0.30702
0.229799 -0.00893755 -0.0409349
0.070049 -0.0766852 -0.350835
-0.128504 0.150733 -0.595433
-0.319007 0.108742 -0.430355
-0.311279 -0.00456084 0.0180505
-0.114678 -0.115162 0.45578
0.151488 -0.155907 0.617033
0.325761 -0.102084 0.404015
0.302391 0.0136145 -0.0538692
0.0922041 0.116904 -0.461797
-0.0814326 0.30891 -0.377324
-0.194902 0.21522 -0.262884
-0.190146 -0.00902004 0.0110177
-0.0700504 -0.227788 0.278236
0.0925369 -0.308383 0.37668
0.198993 -0.201917 0.246635
0.184742 0.0270294 -0.0330155
0.0584295 0.23958 -0.292639
0 -0.0124193 0
0 -0.00939421 0
0 0.000393719 0
0 0.00994282 0
0 0.0134607 0
0 0.00881355 0
0 -0.00117982 0
0 -0.00963201 0
0.128944 -0.00488593 0.163361
0.320188 -0.00354011 0.118033
0.312433 0.000148495 -0.00495069
0.115103 0.00374946 -0.125004
-0.15205 0.00507599 -0.169232
-0.32697 0.00332361 -0.110809
-0.303511 -0.000443038 0.0147746
-0.0925197 -0.00378936 0.126697
0.179672 0.00561121 0.227629
0.44616 0.00405454 0.164467
0.435352 -0.000170062 -0.0068984
0.160384 -0.00429411 -0.174182
-0.211871 -0.00581343 -0.235816
-0.455609 -0.00380646 -0.154401
-0.422922 0.000507515 0.020587
-0.128918 0.00435186 0.176542
0.121413 0.0127047 0.153821
0.30149 0.00918054 0.111139
0.294192 -0.000385065 -0.00466164
0.108381 -0.00972288 -0.117707
-0.143172 -0.0131631 -0.15935
-0.307875 -0.00861862 -0.104338
-0.285789 0.00114914 0.0139118
-0.0871166 0.00985331 0.119298
-0.0104927 0.0120916 -0.0132933
-0.0260553 0.00873747 -0.00960467
-0.0254242 -0.000366485 0.000402861
-0.00936633 -0.00925387 0.0101721
0.012373 -0.0125279 0.0137713
0.0266071 -0.00820274 0.00901698
0.0246981 0.00109368 -0.00120226
0.0075287 0.00937787 -0.0103099
-0.136034 0.00414399 -0.172344
-0.337791 0.00299451 -0.124521
-0.329613 -0.000125602 0.0052229
-0.121431 -0.00317146 0.131877
0.16041 -0.00429353 0.178538
0.344945 -0.00281123 0.116902
0.3202 0.000374825 -0.0155868
0.0976072 0.00321394 -0.133664
-0.179059 -0.00631736 -0.226853
-0.444513 -0.00456084 -0.16386
-0.433745 0.000191294 0.00687294
-0.159792 0.0048302 0.173539
0.211088 0.00653922 0.234943
0.453927 0.00428162 0.153831
0.42136 -0.00057096 -0.0205118
0.128478 -0.00489953 -0.175939
-0.113469 -0.0129467 -0.143756
-0.271579 -0.00902004 -0.100156
-0.264952 0.000378037 0.00419761
-0.0976092 0.0095468 0.106005
0.128942 0.0129246 0.143511
0.277279 0.00846251 0.0939653
0.257422 -0.00113282 -0.0125785
0.0814165 -0.010041 -0.111492
0 -0.313633 0
0 -0.237238 0
0 0.00994282 0
0 0.251092 0
0 0.339932 0
0 0.222574 0
0 -0.0297946 0
0 -0.243243 0
0.0871338 -0.123387 -0.201152
0.216369 -0.0893873 -0.145335
0.21113 0.00374946 0.00609585
0.0777799 0.0946719 0.153919
-0.102749 0.128168 0.208381
-0.220952 0.0839194 0.136439
-0.2051 -0.0111869 -0.0181921
-0.0625203 -0.0956951 -0.156007
0.121413 0.141703 -0.280288
0.30149 0.102379 -0.202511
0.294192 -0.00429411 0.00849401
0.108381 -0.108427 0.214476
-0.143172 -0.146791 0.290361
-0.307875 -0.0961124 0.190116
-0.285789 0.0128152 -0.025349
-0.0871166 0.1099 -0.217382
0.0820453 0.320839 -0.189405
0.203734 0.231808 -0.136846
0.198799 -0.00972288 0.00573982
0.0732388 -0.245503 0.144933
-0.0967478 -0.332365 0.196211
-0.208049 -0.217622 0.12847
-0.193122 0.0290166 -0.0171296
-0.0588691 0.248832 -0.146896
-0.00709044 0.305358 0.0163686
-0.0176068 0.220622 0.0118264
-0.0171803 -0.00925387 -0.000496042
-0.00632934 -0.23366 -0.0125251
0.00836098 -0.316327 -0.0169566
0.0179798 -0.207122 -0.0111025
0.0166896 0.0276164 0.00148036
0.00508753 0.236825 0.0126949
-0.0919252 0.104651 0.212213
-0.228267 0.0756115 0.153324
-0.222738 -0.00317146 -0.00643105
-0.082057 -0.0800786 -0.162383
0.108398 -0.108412 -0.219838
0.233103 -0.0709845 -0.143942
0.216377 0.00946461 0.0191923
0.0659582 0.0811635 0.164586
-0.120999 -0.159536 0.279333
-0.300377 -0.115162 0.201765
-0.293104 0.0048302 -0.00846264
-0.10798 0.121963 -0.213684
0.142642 0.165116 -0.289288
0.306738 0.108111 -0.189414
0.284733 -0.0144172 0.0252566
0.0868195 -0.123731 0.216641
-0.076677 -0.32695 0.177012
-0.18352 -0.227788 0.123326
-0.179042 0.0095468 -0.00516868
-0.0659596 0.241091 -0.130528
0.0871329 0.326393 -0.17671
0.187372 0.213709 -0.115703
0.173953 -0.0286079 0.0154884
0.0550173 -0.253571 0.137285
0 -0.424601 0
0 -0.321176 0
0 0.0134607 0
0 0.339932 0
0 0.460205 0
0 0.301324 0
0 -0.0403364 0
0 -0.329306 0
-0.00753019 -0.167044 -0.443649
-0.0186988 -0.121015 -0.320537
-0.0182461 0.00507599 0.0134447
-0.00672189 0.128168 0.339472
0.00887964 0.173515 0.459593
0.0190947 0.113613 0.300921
0.0177249 -0.0151451 -0.0401231
0.00540306 -0.129553 -0.344079
-0.0104927 0.19184 -0.618187
-0.0260553 0.138601 -0.446643
-0.0254242 -0.00581343 0.018734
-0.00936633 -0.146791 0.473037
0.012373 -0.198727 0.640394
0.0266071 -0.130118 0.419312
0.0246981 0.0173493 -0.0559085
0.0075287 0.148785 -0.479445
-0.00709044 0.434356 -0.417741
-0.0176068 0.313822 -0.301819
-0.0171803 -0.0131631 0.0126595
-0.00632934 -0.332365 0.31965
0.00836098 -0.449966 0.43275
0.0179798 -0.294621 0.283349
0.0166896 0.0392826 -0.03778
0.00508753 0.336872 -0.323985
0.000612762 0.413398 0.0361016
0.0015216 0.298683 0.0260837
0.00148474 -0.0125279 -0.00109404
0.000546984 -0.316327 -0.0276247
-0.000722568 -0.428255 -0.0373986
-0.00155383 -0.280403 -0.0244873
-0.00144234 0.0373874 0.00326499
-0.000439669 0.320617 0.0279991
0.00794427 0.141678 0.468045
0.0197268 0.102365 0.338161
0.0192491 -0.00429353 -0.014184
0.0070915 -0.108412 -0.358139
-0.00936784 -0.146771 -0.484861
-0.0201446 -0.0960993 -0.317466
-0.0186995 0.0128134 0.0423292
-0.00570017 0.10988 0.363
0.0104569 -0.215982 0.616079
0.0259591 -0.155907 0.444997
0.0253303 0.00653922 -0.0186648
0.00933174 0.165116 -0.471286
-0.0123273 0.223537 -0.638031
-0.0265088 0.146364 -0.417763
-0.024607 -0.019518 0.0557046
-0.00750303 -0.167508 0.477809
0.0066265 -0.44263 0.390407
0.01586 -0.308383 0.271999
0.015473 0.0129246 -0.0113997
0.00570029 0.326393 -0.287884
-0.00753011 0.441875 -0.389742
-0.0161928 0.289322 -0.255187
-0.0150332 -0.0387298 0.0341603
-0.00475465 -0.343289 0.302787
0 -0.278012 0
0 -0.210293 0
0 0.00881355 0
0 0.222574 0
0 0.301324 0
0 0.197295 0
0 -0.0264106 0
0 -0.215617 0
-0.0976265 -0.109374 -0.417035
-0.242422 -0.0792353 -0.30131
-0.236554 0.00332361 0.0126382
-0.0871455 0.0839194 0.31911
0.115122 0.113613 0.43202
0.247556 0.0743897 0.282871
0.229799 -0.00991643 -0.0377163
0.070049 -0.0848264 -0.323438
-0.136034 0.125609 -0.581102
-0.337791 0.0907505 -0.419853
-0.329613 -0.00380646 0.0176101
-0.121431 -0.0961124 0.444658
0.16041 -0.130118 0.601979
0.344945 -0.0851956 0.394156
0.3202 0.0113597 -0.0525545
0.0976072 0.0974182 -0.450682
-0.0919252 0.284399 -0.39268
-0.228267 0.205482 -0.283715
-0.222738 -0.00861862 0.0119
-0.082057 -0.217622 0.300476
0.108398 -0.294622 0.406791
0.233103 -0.192905 0.266349
0.216377 0.0257209 -0.0355138
0.0659582 0.22057 -0.304549
0.00794427 0.270676 0.0339358
0.0197268 0.195567 0.0245189
0.0192491 -0.00820274 -0.00102841
0.0070915 -0.207122 -0.0259676
-0.00936785 -0.280403 -0.0351552
-0.0201446 -0.183596 -0.0230182
-0.0186995 0.0244798 0.00306913
-0.00570017 0.209927 0.0263194
0.102995 0.0927649 0.439967
0.25575 0.067024 0.317876
0.249556 -0.00281123 -0.0133331
0.0919375 -0.0709845 -0.336655
-0.121451 -0.0960993 -0.455776
-0.261167 -0.0629217 -0.298425
-0.242431 0.00838966 0.03979
-0.0739009 0.0719453 0.341223
0.13557 -0.141417 0.57912
0.336544 -0.102084 0.418305
0.328395 0.00428162 -0.017545
0.120982 0.108111 -0.443016
-0.159818 0.146364 -0.599758
-0.343671 0.0958335 -0.392701
-0.319018 -0.0127798 0.0523627
-0.0972743 -0.109678 0.449145
0.0859104 -0.289817 0.366987
0.205619 -0.201917 0.255682
0.200602 0.00846251 -0.0107158
0.0739024 0.213709 -0.270614
-0.0976254 0.289322 -0.366361
-0.209935 0.189437 -0.239878
-0.194901 -0.0253587 0.032111
-0.0616425 -0.224772 0.284622
0 0.0372157 0
0 0.0281506 0
0 -0.00117981 0
0 -0.0297946 0
0 -0.0403364 0
0 -0.0264106 0
0 0.00353543 0
0 0.0288632 0
-0.128504 0.0146412 -0.137452
-0.319007 0.0105633 -0.0993811
-0.311279 -0.000443025 0.00416852
-0.114678 -0.0111866 0.105255
0.151488 -0.0151447 0.142496
0.325761 -0.00991615 0.0933
0.302391 0.00132276 -0.0124387
0.0922041 0.0113552 -0.106603
-0.179059 -0.0168145 -0.191528
-0.444513 -0.0121012 -0.138479
-0.433745 0.0005075 0.00580843
-0.159792 0.0128148 0.146664
0.211088 0.0173488 0.198554
0.453927 0.0113593 0.130006
0.42136 -0.00151558 -0.0173323
0.128478 -0.0130408 -0.148542
-0.120999 -0.0380707 -0.129425
-0.300377 -0.0273999 -0.093577
-0.293104 0.00114911 0.00392509
-0.10798 0.0290157 0.0991077
0.142642 0.0392814 0.134174
0.306738 0.0257202 0.0878516
0.284733 -0.00343156 -0.0117122
0.0868195 -0.0295264 -0.100378
0.0104569 -0.0362338 0.011185
0.0259591 -0.0260777 0.00808704
0.0253303 0.00109365 -0.000339207
0.00933175 0.0276155 -0.00856502
-0.0123273 0.0373863 -0.0115953
-0.0265088 0.0244791 -0.00759228
-0.024607 -0.00326599 0.00101219
-0.00750303 -0.0281017 0.00867474
0.13557 -0.0124179 0.14501
0.336544 -0.0089373 0.104846
0.328395 0.000374814 -0.00439773
0.120982 0.00946432 -0.111042
-0.159818 0.012813 -0.15033
-0.343671 0.00838942 -0.0984306
-0.319018 -0.00111931 0.0131227
-0.0972743 -0.00963087 0.112465
0.178448 0.0189306 0.190874
0.442874 0.0136141 0.137968
0.432144 -0.000570943 -0.00578693
0.159203 -0.0144167 -0.146121
-0.210309 -0.0195174 -0.19782
-0.452252 -0.0127794 -0.129525
-0.419805 0.0017052 0.017269
-0.12804 0.0146819 0.148036
0.113082 0.0387959 0.120957
0.270653 0.0270294 0.0842713
0.264049 -0.00113282 -0.00353188
0.0972763 -0.0286079 -0.0891927
-0.128502 -0.0387298 -0.12075
-0.276333 -0.0253587 -0.0790625
-0.256544 0.00339461 0.0105836
-0.0811388 0.0300888 0.0938098
0 0.329869 0
0 0.229822 0
0 -0.00963201 0
0 -0.243243 0
0 -0.329306 0
0 -0.215617 0
0 0.0288632 0
0 0.255835 0
-0.0814326 0.129775 0.225507
-0.194902 0.0904149 0.157112
-0.190146 -0.00378936 -0.00658469
-0.0700504 -0.0956951 -0.166287
0.0925369 -0.129553 -0.225122
0.198993 -0.0848264 -0.147401
0.184742 0.0113552 0.0197317
0.0584295 0.100649 0.174895
-0.113469 -0.149039 0.314224
-0.271579 -0.103836 0.218922
-0.264952 0.00435186 -0.0091752
-0.0976092 0.1099 -0.231707
0.128942 0.148785 -0.313688
0.277279 0.0974182 -0.205391
0.257422 -0.0130408 0.0274943
0.0814165 -0.115589 0.243701
-0.076677 -0.337447 0.212337
-0.18352 -0.235102 0.147937
-0.179042 0.00985331 -0.00620015
-0.0659596 0.248832 -0.156576
0.0871328 0.336872 -0.211975
0.187372 0.22057 -0.138793
0.173953 -0.0295264 0.0185793
0.0550173 -0.261713 0.164682
0.0066265 -0.321165 -0.0183504
0.01586 -0.223758 -0.0127848
0.015473 0.00937787 0.000535823
0.00570029 0.236825 0.0135315
-0.00753011 0.320617 0.0183191
-0.0161928 0.209927 0.0119946
-0.0150332 -0.0281017 -0.00160564
-0.00475465 -0.249084 -0.0142319
0.0859104 -0.110068 -0.237907
0.205619 -0.0766852 -0.165751
0.200602 0.00321394 0.00694678
0.0739024 0.0811635 0.175431
-0.0976254 0.10988 0.237501
-0.209935 0.0719453 0.155506
-0.194901 -0.00963087 -0.0208167
-0.0616425 -0.0853651 -0.184513
0.113082 0.167795 -0.313152
0.270653 0.116904 -0.218175
0.264049 -0.00489953 0.00914391
0.0972763 -0.123731 0.230917
-0.128502 -0.167508 0.312618
-0.276333 -0.109678 0.20469
-0.256544 0.0146819 -0.0274006
-0.0811388 0.130136 -0.24287
0.0716599 0.343875 -0.198444
0.171512 0.23958 -0.138257
0.167327 -0.010041 0.00579447
0.0616437 -0.253571 0.146331
-0.0814316 -0.343289 0.198105
-0.175112 -0.224772 0.129712
-0.162571 0.0300888 -0.0173637
-0.0514174 0.266698 -0.153906
