# vtk DataFile Version 3.0
Velocity field
ASCII
DATASET STRUCTURED_POINTS
DIMENSIONS 5 5 5
SPACING 1.33333 1.33333 1.33333
ORIGIN 0 0 0
POINT_DATA 125
VECTORS velocity float
0 0.332962 0
0 0.0783252 0
0 -0.296112 0
0 -0.217639 0
0 0.193719 0
0 -0.176312 0.578255
0 -0.0414751 0.156768
0 0.156799 -0.592669
0 0.115245 -0.435604
0 -0.102579 0.336431
0 -0.415912 0.272055
0 -0.0978382 0.0737555
0 0.369882 -0.278836
0 0.271859 -0.204941
0 -0.241979 0.158282
0 -0.0193648 -0.45026
0 -0.00455533 -0.122068
0 0.0172216 0.461483
0 0.0126577 0.339184
0 -0.0112665 -0.261963
0 0.406802 -0.483891
0 0.0956951 -0.113829
0 -0.36178 0.430337
0 -0.265903 0.316292
0 0.236679 -0.28153
0 0.0783252 0
0 0.0234448 0
0 -0.0886343 0
0 -0.0651451 0
0 0.0455698 0
0.247491 -0.0414751 0.203073
0.377431 -0.0100797 0.0496214
-0.079109 0.0381285 -0.187722
-0.414671 0.0280272 -0.137991
-0.111831 -0.0241304 0.118149
0.116438 -0.0978382 0.0955409
0.177572 -0.0238416 0.0233457
-0.037219 0.09019 -0.0883184
-0.195092 0.0662966 -0.0649215
-0.0526137 -0.0569226 0.055586
-0.19271 -0.00455533 -0.158124
-0.29384 -0.00111335 -0.0386317
0.0615886 0.004212 0.146145
0.322833 0.0030962 0.10743
0.0870776 -0.0026503 -0.0919969
-0.207104 0.0956951 -0.169934
-0.304541 0.0225111 -0.0399749
0.0638249 -0.0851042 0.151127
0.334569 -0.0625505 0.111076
0.0935815 0.0556757 -0.0988683
0 -0.296112 0
0 -0.0886344 0
0 0.335086 0
0 0.246284 0
0 -0.172279 0
0.116438 0.156799 -0.482715
0.177572 0.0381285 -0.117702
-0.037219 -0.144231 0.445261
-0.195092 -0.106021 0.327303
-0.0526137 0.091226 -0.280845
0.0547814 0.369882 -0.227105
0.083543 0.09019 -0.055376
-0.0175106 -0.341182 0.209485
-0.0917857 -0.250797 0.153988
-0.0247534 0.215198 -0.132131
-0.0906652 0.0172216 0.375867
-0.138245 0.004212 0.091635
0.0289759 -0.015935 -0.346649
0.151885 -0.0117137 -0.254814
0.0409678 0.0100196 0.218681
-0.0974371 -0.36178 0.403941
-0.143279 -0.0851042 0.0950222
0.030028 0.32174 -0.359236
0.157406 0.236475 -0.264034
0.0440278 -0.210485 0.235015
0 -0.217639 0
0 -0.0651451 0
0 0.246284 0
0 0.181016 0
0 -0.126623 0
-0.19271 0.115245 -0.430179
-0.29384 0.0280273 -0.104902
0.0615886 -0.106021 0.39684
0.322833 -0.0779334 0.29171
0.0870776 0.0670499 -0.250279
-0.0906652 0.271859 -0.202388
-0.138245 0.0662968 -0.049354
0.0289759 -0.250798 0.186704
0.151885 -0.184357 0.137242
0.0409678 0.158168 -0.11775
0.150054 0.0126577 0.33496
0.228765 0.00309621 0.0816699
-0.0479485 -0.0117138 -0.308951
-0.251335 -0.00861073 -0.227105
-0.0678032 0.00736428 0.194881
0.161262 -0.265903 0.359979
0.237132 -0.0625505 0.0846805
-0.0496974 0.236475 -0.320138
-0.260513 0.173806 -0.235298
-0.0728675 -0.154704 0.209437
0 0.193719 0
0 0.0455699 0
0 -0.172279 0
0 -0.126623 0
0 0.112706 0
-0.207104 -0.102579 0.280326
-0.304541 -0.0241304 0.0659433
0.0638248 0.091226 -0.249302
0.334569 0.0670499 -0.183233
0.0935815 -0.0596807 0.163095
-0.0974371 -0.241979 0.131887
-0.143279 -0.0569226 0.0310247
0.030028 0.215199 -0.11729
0.157406 0.158168 -0.0862068
0.0440278 -0.140784 0.0767321
0.161262 -0.0112665 -0.218277
0.237131 -0.0026503 -0.0513469
-0.0496974 0.0100196 0.194119
-0.260513 0.00736428 0.142675
-0.0728675 -0.00655489 -0.126994
0.173307 0.236679 -0.23458
0.254843 0.0556757 -0.0551821
-0.0534094 -0.210485 0.208619
-0.279971 -0.154704 0.153332
-0.0783101 0.137701 -0.13648
