# vtk DataFile Version 3.0
Velocity field
ASCII
DATASET STRUCTURED_POINTS
DIMENSIONS 10 10 10
SPACING 0.631579 0.631579 0.631579
ORIGIN 0 0 0
POINT_DATA 1000
VECTORS velocity float
0 0.478998 0
0 0.386597 0
0 0.145045 0
0 -0.152467 0
0 -0.391156 0
0 -0.478934 0
0 -0.381936 0
0 -0.137584 0
0 0.159849 0
0 0.395611 0
0 0.294197 0.37521
0 0.237445 0.314705
0 0.0890854 0.118072
0 -0.0936442 -0.124114
0 -0.240245 -0.318416
0 -0.294158 -0.38987
0 -0.234582 -0.31091
0 -0.0845029 -0.111998
0 0.098178 0.130123
0 0.242981 0.309891
0 -0.00410736 0.605661
0 -0.00331503 0.507994
0 -0.00124374 0.190591
0 0.00130739 -0.200344
0 0.00335413 -0.513984
0 0.00410681 -0.629326
0 0.00327506 -0.501869
0 0.00117977 -0.180787
0 -0.00137069 0.210044
0 -0.00339232 0.500224
0 -0.300827 0.602444
0 -0.242796 0.505296
0 -0.091093 0.189578
0 0.0957545 -0.19928
0 0.245659 -0.511254
0 0.300787 -0.625983
0 0.239869 -0.499203
0 0.0864073 -0.179827
0 -0.100391 0.208928
0 -0.248457 0.497567
0 -0.481485 0.366799
0 -0.388605 0.30765
0 -0.145798 0.115425
0 0.153259 -0.121332
0 0.393187 -0.311278
0 0.481421 -0.381131
0 0.383919 -0.303941
0 0.138298 -0.109488
0 -0.160679 0.127206
0 -0.397665 0.302945
0 -0.476383 -0.0103594
0 -0.384487 -0.00868886
0 -0.144253 -0.00325991
0 0.151635 0.00342673
0 0.389021 0.00879133
0 0.476319 0.0107642
0 0.379851 0.00858409
0 0.136833 0.00309223
0 -0.158976 -0.00359264
0 -0.393451 -0.00855596
0 -0.287489 -0.383521
0 -0.232031 -0.321676
0 -0.0870541 -0.120687
0 0.0915089 0.126863
0 0.234767 0.325469
0 0.28745 0.398506
0 0.229233 0.317797
0 0.0825761 0.114479
0 -0.0959394 -0.133005
0 -0.237441 -0.316756
0 0.0123211 -0.608718
0 0.00994432 -0.510558
0 0.00373094 -0.191553
0 -0.00392186 0.201355
0 -0.0100616 0.516578
0 -0.0123195 0.632502
0 -0.00982441 0.504401
0 -0.00353902 0.181699
0 0.00411174 -0.211104
0 0.0101762 -0.502748
0 0.307377 -0.599066
0 0.248083 -0.502463
0 0.0930764 -0.188515
0 -0.0978394 0.198162
0 -0.251008 0.508387
0 -0.307336 0.622473
0 -0.245091 0.496404
0 -0.0882887 0.178818
0 0.102576 -0.207757
0 0.253867 -0.494777
0 0.483845 -0.358291
0 0.390509 -0.289175
0 0.146512 -0.108494
0 -0.15401 0.114046
0 -0.395114 0.292585
0 -0.48378 0.358243
0 -0.385801 0.285688
0 -0.138976 0.102913
0 0.161466 -0.119567
0 0.399614 -0.295917
0 0.386597 0
0 0.328252 0
0 0.123155 0
0 -0.129457 0
0 -0.332123 0
0 -0.406654 0
0 -0.324294 0
0 -0.11682 0
0 0.135725 0
0 0.319296 0
0.054555 0.237445 0.415252
0.148365 0.19926 0.348518
0.182794 0.0748317 0.130889
0.146654 -0.0786647 -0.137593
0.0539319 -0.201815 -0.352997
-0.059597 -0.247104 -0.432211
-0.150132 -0.197058 -0.344675
-0.182746 -0.0709883 -0.124166
-0.144812 0.082308 0.143958
-0.0490829 0.196109 0.342963
0.0880623 -0.00331503 0.670297
0.23949 -0.00277219 0.562574
0.295065 -0.001041 0.211279
0.236727 0.00109432 -0.222102
0.0870566 0.0028075 -0.569804
-0.0962012 0.00343749 -0.697672
-0.242343 0.00274131 -0.556372
-0.294986 0.000987529 -0.200428
-0.233754 -0.00114521 0.232376
-0.0792292 -0.00273793 0.553607
0.0875945 -0.242796 0.666736
0.238217 -0.203504 0.559585
0.293498 -0.0764248 0.210157
0.235469 0.0803397 -0.220921
0.0865941 0.206112 -0.566776
-0.0956904 0.252364 -0.693966
-0.241056 0.201253 -0.553416
-0.29342 0.0724998 -0.199364
-0.232513 -0.0840622 0.231142
-0.0788083 -0.200529 0.550667
0.0533321 -0.388605 0.405944
0.145039 -0.325717 0.340704
0.178697 -0.122321 0.127955
0.143366 0.128587 -0.134508
0.0527229 0.329889 -0.345083
-0.058261 0.403919 -0.422522
-0.146767 0.322115 -0.336948
-0.178649 0.116039 -0.121383
-0.141565 -0.134545 0.140731
-0.0479826 -0.320954 0.335274
-0.00150624 -0.384487 -0.0114649
-0.00409629 -0.322266 -0.00962238
-0.00504688 -0.121025 -0.00361378
-0.00404902 0.127224 0.00379888
-0.00148904 0.326394 0.00974606
0.00164544 0.399639 0.0119332
0.0041451 0.318701 0.00951633
0.00504554 0.114809 0.00342817
0.0039982 -0.133119 -0.00397461
0.00135516 -0.317553 -0.00946904
-0.0557635 -0.232031 -0.42445
-0.151651 -0.194481 -0.356237
-0.186843 -0.0730364 -0.133788
-0.149901 0.0767772 0.140641
-0.0551265 0.196973 0.360815
0.060917 0.241175 0.441784
0.153458 0.19233 0.352311
0.186793 0.0692851 0.126917
0.148019 -0.0803354 -0.147147
0.0501701 -0.191637 -0.350559
-0.0885067 0.00994432 -0.673679
-0.240696 0.00833089 -0.565408
-0.296551 0.00312854 -0.212344
-0.23792 -0.00328877 0.223221
-0.0874954 -0.0084374 0.572676
0.0966858 -0.0103308 0.701188
0.243564 -0.00823852 0.559176
0.296473 -0.00296785 0.201438
0.234932 0.00344135 -0.233547
0.079629 0.00821314 -0.556401
-0.0871034 0.248083 -0.662998
-0.236763 0.20768 -0.556181
-0.291705 0.0779894 -0.208875
-0.234031 -0.0819837 0.219573
-0.086065 -0.21033 0.563318
0.0951055 -0.257529 0.68973
0.239584 -0.205372 0.550038
0.291628 -0.0739833 0.198147
0.231093 0.0857912 -0.22974
0.0783665 0.204895 -0.547579
-0.052095 0.390509 -0.396527
-0.136186 0.315179 -0.320036
-0.167736 0.11825 -0.120072
-0.134572 -0.124301 0.126216
-0.0494889 -0.318895 0.32381
0.0546873 -0.390457 0.396475
0.137765 -0.311378 0.316177
0.167691 -0.112167 0.113896
0.132922 0.130319 -0.132327
0.0468696 0.322527 -0.327497
0 0.145045 0
0 0.123155 0
0 0.0462056 0
0 -0.0485701 0
0 -0.124607 0
0 -0.15257 0
0 -0.12167 0
0 -0.0438288 0
0 0.0509216 0
0 0.119794 0
0.0880623 0.0890854 0.295087
0.23949 0.0748317 0.247586
0.295065 0.0281041 0.092983
0.236727 -0.0295436 -0.0977458
0.0870566 -0.0757943 -0.250768
-0.0962012 -0.092803 -0.307042
-0.242343 -0.0740077 -0.244857
-0.294986 -0.0266607 -0.088208
-0.233754 0.0309095 0.102267
-0.0792292 0.0735768 0.243716
0.14215 -0.00124374 0.476327
0.386583 -0.001041 0.399651
0.476293 -0.000390927 0.150092
0.382124 0.000410947 -0.157781
0.140526 0.00105429 -0.404787
-0.155287 0.00129089 -0.495625
-0.391188 0.00102944 -0.395246
-0.476166 0.000370847 -0.142384
-0.377324 -0.00043003 0.165079
-0.127891 -0.00102723 0.393405
0.141394 -0.091093 0.473796
0.384529 -0.0764248 0.397528
0.473762 -0.028702 0.149295
0.380094 0.0301722 -0.156943
0.139779 0.077407 -0.402637
-0.154462 0.094778 -0.492992
-0.38911 0.0755824 -0.393146
-0.473636 0.0272279 -0.141628
-0.375319 -0.031568 0.164202
-0.127212 -0.0752349 0.391315
0.0860883 -0.145798 0.288472
0.234121 -0.122321 0.242035
0.288452 -0.0459387 0.0908986
0.23142 0.0482919 -0.0955551
0.0851048 0.123893 -0.245147
-0.0940444 0.151695 -0.300158
-0.236911 0.120973 -0.239369
-0.288375 0.0435795 -0.0862304
-0.228514 -0.0505257 0.0999747
-0.0774532 -0.120416 0.238253
-0.00243136 -0.144253 -0.00814722
-0.0066122 -0.121025 -0.00683575
-0.0081466 -0.0454518 -0.00256723
-0.00653592 0.0477803 0.00269872
-0.00240358 0.12258 0.00692362
0.00265606 0.150088 0.00847732
0.00669099 0.119691 0.00676038
0.00814444 0.0431176 0.00243537
0.00645388 -0.0499903 -0.00282355
0.00218748 -0.11914 -0.0067289
-0.090013 -0.0870541 -0.301623
-0.244794 -0.0730364 -0.25307
-0.3016 -0.0274294 -0.0950431
-0.24197 0.0288345 0.0999111
-0.0889848 0.0739749 0.256323
0.0983318 0.0905754 0.313843
0.247711 0.0722315 0.250281
0.30152 0.0260208 0.0901615
0.238932 -0.0301683 -0.104533
0.0809842 -0.0718991 -0.249115
-0.142867 0.00373094 -0.478731
-0.38853 0.00312854 -0.401664
-0.478692 0.00117492 -0.150849
-0.384049 -0.0012351 0.158576
-0.141234 -0.00316866 0.406827
0.156069 -0.00387973 0.498123
0.393159 -0.00309397 0.397238
0.478565 -0.00111458 0.143102
0.379225 0.0012923 -0.16591
0.128537 0.00308143 -0.39539
-0.140602 0.0930764 -0.47114
-0.382182 0.0779894 -0.395109
-0.470867 0.0292881 -0.148384
-0.377771 -0.0307882 0.155985
-0.138925 -0.0789875 0.40018
0.153518 -0.0967128 0.489983
0.386734 -0.0771256 0.390747
0.470742 -0.0277838 0.140763
0.373029 0.0322158 -0.163206
0.126499 0.0768731 -0.389121
-0.0840914 0.146512 -0.28178
-0.219831 0.11825 -0.227424
-0.270758 0.0443653 -0.0853256
-0.217225 -0.0466356 0.089692
-0.0798846 -0.119644 0.230106
0.0882758 -0.146493 0.281743
0.222379 -0.116824 0.224682
0.270686 -0.0420832 0.0809366
0.214561 0.0488935 -0.0940345
0.0756566 0.121007 -0.232726
0 -0.152467 0
0 -0.129457 0
0 -0.0485701 0
0 0.0510555 0
0 0.130984 0
0 0.160377 0
0 0.127896 0
0 0.0460717 0
0 -0.0535275 0
0 -0.125925 0
0.0875945 -0.0936442 0.0610747
0.238217 -0.0786647 0.0512427
0.293498 -0.0295436 0.0192446
0.235469 0.0310569 -0.0202304
0.0865941 0.079677 -0.0519014
-0.0956904 0.0975567 -0.0635483
-0.241056 0.0777986 -0.0506777
-0.29342 0.0280264 -0.0182563
-0.232513 -0.0324926 0.0211661
-0.0788083 -0.077342 0.0504425
0.141394 0.00130739 0.0985864
0.384529 0.00109432 0.0827153
0.473762 0.000410947 0.0310646
0.380094 -0.000431998 -0.0326558
0.139779 -0.00110829 -0.0837785
-0.154462 -0.00135701 -0.102579
-0.38911 -0.00108217 -0.0818037
-0.473636 -0.000389838 -0.0294691
-0.375319 0.000452054 0.0341663
-0.127212 0.00107979 0.0814239
0.140643 0.0957545 0.0980627
0.382487 0.0803397 0.0822759
0.471245 0.0301722 0.0308996
0.378074 -0.0317177 -0.0324823
0.139037 -0.081372 -0.0833334
-0.153641 -0.0996324 -0.102034
-0.387044 -0.0794542 -0.0813692
-0.471119 -0.0286226 -0.0293126
-0.373326 0.0331848 0.0339848
-0.126536 0.0790849 0.0809913
0.085631 0.153259 0.0597057
0.232877 0.128586 0.0500939
0.28692 0.0482919 0.0188132
0.230191 -0.0507653 -0.0197769
0.0846528 -0.130239 -0.0507377
-0.0935447 -0.159466 -0.0621238
-0.235652 -0.127169 -0.0495419
-0.286843 -0.0458116 -0.0178471
-0.2273 0.0531135 0.0206917
-0.0770417 0.126579 0.0493117
-0.00241845 0.151635 -0.00168625
-0.00657706 0.127224 -0.00141478
-0.00810331 0.0477803 -0.000531337
-0.00650124 -0.0502274 0.000558554
-0.00239082 -0.128859 0.00143297
0.00264195 -0.157776 0.00175454
0.00665545 -0.125822 0.0013992
0.00810116 -0.0453262 0.000504047
0.00641957 0.0525508 -0.000584389
0.00217586 0.125237 -0.00139269
-0.0895348 0.0915089 -0.0624276
-0.243494 0.0767771 -0.0523776
-0.299998 0.0288345 -0.019671
-0.240686 -0.0303114 0.0206785
-0.0885124 -0.0777641 0.0530509
0.0978094 -0.0952152 0.0649559
0.246395 -0.0759311 0.0518006
0.299918 -0.0273535 0.0186606
0.237663 0.0317135 -0.021635
0.080554 0.0755784 -0.0515598
-0.142108 -0.00392186 -0.0990839
-0.386466 -0.00328877 -0.083132
-0.476149 -0.0012351 -0.0312211
-0.382009 0.00129836 0.0328203
-0.140484 0.00333096 0.0842006
0.15524 0.00407845 0.103096
0.391071 0.00325245 0.0822158
0.476023 0.00117166 0.0296176
0.37721 -0.00135849 -0.0343384
0.127854 -0.00323912 -0.0818348
-0.139855 -0.0978394 -0.0975129
-0.380152 -0.0819837 -0.0817758
-0.468366 -0.0307882 -0.030711
-0.375764 0.0323651 0.032284
-0.138187 0.0830331 0.0828249
0.152702 0.101666 0.101411
0.38468 0.0810759 0.0808728
0.468241 0.0292068 0.0291337
0.371047 -0.0338657 -0.0337787
0.125827 -0.0808069 -0.0805373
-0.0836447 -0.15401 -0.0583207
-0.218663 -0.124301 -0.0470704
-0.26932 -0.0466356 -0.01766
-0.216071 0.0490221 0.0185637
-0.0794602 0.125767 0.0476255
0.0878068 0.153989 0.058313
0.221197 0.122802 0.0465029
0.269248 0.0442367 0.0167516
0.213421 -0.0513955 -0.0194625
0.0752547 -0.127199 -0.0481679
0 -0.391156 0
0 -0.332123 0
0 -0.124607 0
0 0.130984 0
0 0.33604 0
0 0.411449 0
0 0.328119 0
0 0.118197 0
0 -0.137325 0
0 -0.323061 0
0.0533321 -0.240245 -0.1965
0.145039 -0.201815 -0.164866
0.178697 -0.0757943 -0.0619172
0.143366 0.079677 0.0650887
0.0527229 0.204411 0.166985
-0.058261 0.250283 0.204458
-0.146767 0.199593 0.163049
-0.178649 0.0719019 0.0587372
-0.141565 -0.0833601 -0.0680994
-0.0479826 -0.198422 -0.162292
0.0860883 0.00335413 -0.317189
0.234121 0.0028075 -0.266126
0.288452 0.00105429 -0.0999462
0.23142 -0.00110829 0.105066
0.0851048 -0.00284334 0.269547
-0.0940444 -0.00348143 0.330035
-0.236911 -0.0027763 0.263193
-0.288375 -0.00100013 0.0948133
-0.228514 0.00115975 -0.109926
-0.0774532 0.00277022 -0.261971
0.085631 0.245659 -0.315504
0.232877 0.206112 -0.264712
0.28692 0.077407 -0.0994152
0.230191 -0.081372 0.104508
0.0846528 -0.208761 0.268115
-0.0935447 -0.255608 0.328281
-0.235652 -0.203839 0.261795
-0.286843 -0.0734316 0.0943094
-0.2273 0.0851358 -0.109341
-0.0770417 0.202893 -0.260579
0.0521366 0.393187 -0.192096
0.141788 0.329889 -0.161171
0.174691 0.123893 -0.0605291
0.140152 -0.130239 0.0636297
0.0515412 -0.334129 0.163242
-0.0569549 -0.409111 0.199875
-0.143478 -0.326254 0.159395
-0.174645 -0.11753 0.0574205
-0.138392 0.136264 -0.0665728
-0.046907 0.324739 -0.158654
-0.00147248 0.389021 0.00542529
-0.00400447 0.326394 0.0045519
-0.00493373 0.12258 0.00170951
-0.00395827 -0.128859 -0.00179706
-0.00145565 -0.330589 -0.0046104
0.00160857 -0.404774 -0.005645
0.00405217 -0.322797 -0.00450173
0.00493242 -0.116285 -0.00162172
0.00390857 0.134819 0.0018802
0.00132478 0.321297 0.00448082
-0.0545135 0.234767 0.200853
-0.148252 0.196973 0.168518
-0.182655 0.0739749 0.0632887
-0.146542 -0.0777641 -0.0665303
-0.0538908 -0.199505 -0.170684
0.0595516 -0.244275 -0.208987
0.150018 -0.194802 -0.166661
0.182606 -0.0701758 -0.0600384
0.144702 0.0813612 0.0696078
0.0490455 0.193897 0.165887
-0.0865227 -0.0100616 0.31879
-0.2353 -0.0084374 0.267467
-0.289905 -0.00316866 0.10045
-0.232586 0.00333096 -0.105595
-0.0855336 0.0085456 -0.270905
0.0945184 0.0104633 -0.331697
0.238105 0.0083442 -0.264519
0.289828 0.00300592 -0.095291
0.229666 -0.00348522 0.110479
0.077844 -0.00830999 0.263293
-0.0851509 -0.251008 0.313736
-0.231456 -0.21033 0.263103
-0.285166 -0.0789875 0.0988085
-0.228784 0.0830331 -0.10387
-0.0841355 0.213022 -0.266479
0.0929732 0.260826 -0.326279
0.234213 0.208002 -0.260197
0.285091 0.0749303 -0.0937338
0.225913 -0.0868827 0.108678
0.0766098 -0.207311 0.259119
-0.0509272 -0.395114 0.18764
-0.133134 -0.318895 0.151443
-0.163976 -0.119644 0.0568189
-0.131555 0.125767 -0.0597265
-0.0483795 0.322656 -0.153229
0.0534614 0.395062 -0.187615
0.134676 0.31505 -0.149617
0.163932 0.11349 -0.0538962
0.129942 -0.131856 0.0626183
0.045819 -0.32633 0.154974
0 -0.478934 0
0 -0.406654 0
0 -0.15257 0
0 0.160377 0
0 0.411449 0
0 0.503781 0
0 0.401751 0
0 0.144722 0
0 -0.168142 0
0 -0.395558 0
-0.00150624 -0.294158 -0.378264
-0.00409629 -0.247104 -0.31737
-0.00504688 -0.092803 -0.119191
-0.00404902 0.0975567 0.125296
-0.00148904 0.250283 0.321449
0.00164544 0.306448 0.393583
0.0041451 0.244383 0.313871
0.00504554 0.0880373 0.113069
0.0039982 -0.102067 -0.131092
0.00135516 -0.242949 -0.312414
-0.00243136 0.00410681 -0.610591
-0.00661219 0.00343749 -0.512295
-0.0081466 0.00129089 -0.192397
-0.00653592 -0.00135701 0.202251
-0.00240358 -0.00348143 0.518879
0.00265606 -0.00426266 0.635321
0.00669099 -0.00339934 0.506649
0.00814444 -0.00122457 0.182516
0.00645388 0.00142001 -0.211607
0.00218748 0.00339187 -0.504296
-0.00241845 0.300787 -0.607348
-0.00657706 0.252364 -0.509574
-0.00810331 0.094778 -0.191376
-0.00650124 -0.0996324 0.201177
-0.00239082 -0.255608 0.516123
0.00264195 -0.312968 0.631945
0.00665545 -0.249583 0.503957
0.00810116 -0.0899101 0.181546
0.00641957 0.104241 -0.210483
0.00217586 0.248424 -0.501617
-0.00147248 0.481421 -0.369785
-0.00400447 0.403919 -0.310254
-0.00493373 0.151695 -0.116519
-0.00395827 -0.159466 0.122487
-0.00145565 -0.409111 0.314243
0.00160857 -0.500918 0.384761
0.00405217 -0.399467 0.306834
0.00493242 -0.143905 0.110535
0.00390857 0.166842 -0.128153
0.00132478 0.397612 -0.30541
4.15867e-05 0.476319 0.0104437
0.000113096 0.399639 0.00876241
0.000139343 0.150088 0.00329079
0.000111793 -0.157776 -0.00345938
4.11116e-05 -0.404774 -0.00887502
-4.54295e-05 -0.49561 -0.0108667
-0.000114446 -0.395234 -0.00866587
-0.000139306 -0.14238 -0.0031218
-0.000110388 0.165074 0.00361938
-3.74153e-05 0.393399 0.0086256
0.00153961 0.28745 0.386643
0.00418701 0.241175 0.324399
0.00515867 0.0905754 0.121831
0.00413872 -0.0952152 -0.128072
0.00152202 -0.244275 -0.328568
-0.00168189 -0.299091 -0.402301
-0.00423693 -0.238517 -0.320825
-0.0051573 -0.0859236 -0.115574
-0.00408676 0.0996192 0.133995
-0.00138517 0.237409 0.319334
0.00244363 -0.0123195 0.613672
0.00664552 -0.0103308 0.514876
0.00818767 -0.00387973 0.193366
0.00656883 0.00407845 -0.20327
0.00241569 0.0104633 -0.521494
-0.00266944 0.0128114 -0.638523
-0.0067247 0.0102167 -0.509202
-0.00818549 0.00368047 -0.183435
-0.00648638 -0.00426733 0.212673
-0.00219852 -0.0101748 0.506841
0.00240489 -0.307336 0.603943
0.00653694 -0.257529 0.506474
0.00805382 -0.0967128 0.190208
0.00646153 0.101666 -0.19995
0.00237622 0.260826 -0.512973
-0.00262581 0.319358 -0.628088
-0.00661477 0.254678 -0.500881
-0.00805168 0.0917453 -0.180438
-0.00638038 -0.10638 0.209207
-0.00216367 -0.253833 0.498805
0.00143832 -0.48378 0.361207
0.00376005 -0.390457 0.291529
0.00463112 -0.146493 0.109377
0.00371547 0.153989 -0.114974
0.00136637 0.395062 -0.294967
-0.00150989 0.483716 -0.361159
-0.00380362 0.385749 -0.288014
-0.00462989 0.138958 -0.103751
-0.00366991 -0.161445 0.12054
-0.00129405 -0.399561 0.298326
0 -0.381936 0
0 -0.324294 0
0 -0.12167 0
0 0.127896 0
0 0.328119 0
0 0.401751 0
0 0.320384 0
0 0.115411 0
0 -0.134088 0
0 -0.315446 0
-0.0557635 -0.234582 -0.414091
-0.151651 -0.197058 -0.347429
-0.186843 -0.0740078 -0.13048
-0.149901 0.0777986 0.137163
-0.0551265 0.199593 0.351895
0.060917 0.244383 0.430861
0.153458 0.194888 0.343599
0.186793 0.0702069 0.123779
0.148019 -0.0813952 -0.143508
0.0501701 -0.193744 -0.342003
-0.090013 0.00327506 -0.668422
-0.244794 0.00274131 -0.560816
-0.3016 0.00102944 -0.210619
-0.24197 -0.00108217 0.221408
-0.0889848 -0.0027763 0.568025
0.0983318 -0.00339934 0.695494
0.247711 -0.00271088 0.554634
0.30152 -0.000976569 0.199803
0.238932 0.00113241 -0.231649
0.0809842 0.00270492 -0.552059
-0.0895348 0.239869 -0.664872
-0.243494 0.201253 -0.557836
-0.299998 0.0755824 -0.209501
-0.240686 -0.0794542 0.220231
-0.0885123 -0.203839 0.565007
0.0978094 -0.249583 0.691799
0.246395 -0.199035 0.551688
0.299918 -0.0717009 0.198741
0.237663 0.083129 -0.230419
0.080554 0.198111 -0.549127
-0.0545135 0.383919 -0.404808
-0.148252 0.322115 -0.339639
-0.182655 0.120973 -0.127555
-0.146542 -0.127169 0.134088
-0.0538908 -0.326253 0.344005
0.0595516 -0.399467 0.421202
0.150018 -0.318565 0.335896
0.182606 -0.11476 0.121004
0.144702 0.133051 -0.140291
0.0490455 0.317084 -0.334337
0.00153961 0.379851 0.0114329
0.00418701 0.318701 0.00959234
0.00515867 0.119691 0.00360248
0.00413872 -0.125822 -0.00378702
0.00152202 -0.322797 -0.0097156
-0.00168189 -0.395234 -0.0118959
-0.00423693 -0.315188 -0.00948664
-0.0051573 -0.113544 -0.00341748
-0.00408676 0.131642 0.00396219
-0.00138517 0.313724 0.00944257
0.0569987 0.229233 0.423263
0.15501 0.19233 0.355125
0.190982 0.0722315 0.13337
0.153222 -0.0759311 -0.140202
0.0563476 -0.194802 -0.359688
-0.0622665 -0.238517 -0.440404
-0.156858 -0.190211 -0.351211
-0.190932 -0.0685216 -0.12652
-0.151298 0.0794435 0.146687
-0.0512814 0.189327 0.349579
0.0904672 -0.00982441 0.671795
0.246028 -0.00823852 0.563641
0.30312 -0.00309397 0.21168
0.243189 0.00325245 -0.222524
0.089433 0.0083442 -0.570887
-0.0988273 0.0102167 -0.698999
-0.24896 0.00814748 -0.557429
-0.30304 0.00293506 -0.200809
-0.240136 -0.00340306 0.232817
-0.0813929 -0.00811411 0.554845
0.0890329 -0.245091 0.661144
0.242008 -0.205372 0.554442
0.298166 -0.0771256 0.208223
0.239215 0.0810759 -0.218888
0.0879717 0.208002 -0.561559
-0.0972119 0.254678 -0.687576
-0.24489 0.203097 -0.54832
-0.298086 0.0731643 -0.197528
-0.236212 -0.0848348 0.229021
-0.0801024 -0.202424 0.546048
0.0532489 -0.385801 0.395418
0.139203 -0.311378 0.319141
0.171451 -0.116824 0.119736
0.137553 0.122802 -0.125863
0.0505851 0.31505 -0.322904
-0.0558986 0.385749 -0.395366
-0.140816 0.307624 -0.315293
-0.171406 0.110815 -0.113577
-0.135866 -0.128748 0.131957
-0.0479078 -0.318638 0.326582
0 -0.137584 0
0 -0.11682 0
0 -0.0438288 0
0 0.0460717 0
0 0.118197 0
0 0.144722 0
0 0.115411 0
0 0.0415743 0
0 -0.0483023 0
0 -0.113632 0
-0.0885067 -0.0845029 -0.290158
-0.240696 -0.0709884 -0.243449
-0.296551 -0.0266607 -0.0914295
-0.23792 0.0280264 0.0961131
-0.0874954 0.071902 0.246578
0.0966858 0.0880373 0.301912
0.243564 0.070207 0.240766
0.296473 0.0252915 0.086734
0.234932 -0.0293218 -0.100558
0.079629 -0.0697921 -0.239646
-0.142867 0.00117977 -0.468371
-0.38853 0.000987529 -0.392973
-0.478692 0.000370847 -0.147585
-0.384049 -0.000389839 0.155144
-0.141234 -0.00100014 0.398025
0.156069 -0.00122457 0.487343
0.393159 -0.000976569 0.388642
0.478565 -0.0003518 0.140005
0.379225 0.000407941 -0.162321
0.128537 0.000974386 -0.386834
-0.142108 0.0864073 -0.465883
-0.386466 0.0724998 -0.390885
-0.476149 0.027228 -0.146801
-0.382009 -0.0286226 0.15432
-0.140484 -0.0734317 0.39591
0.15524 -0.0899102 0.484755
0.391071 -0.0717009 0.386578
0.476023 -0.0258296 0.139261
0.37721 0.0299465 -0.161459
0.127854 0.0713649 -0.384779
-0.0865227 0.138298 -0.283654
-0.2353 0.116039 -0.237992
-0.289905 0.0435795 -0.0893799
-0.232587 -0.0458117 0.0939582
-0.0855336 -0.11753 0.241051
0.0945184 -0.143905 0.295144
0.238105 -0.11476 0.235369
0.289828 -0.0413413 0.0847895
0.229666 0.0479306 -0.0983043
0.077844 0.114222 -0.234274
0.00244363 0.136833 0.00801114
0.00664552 0.114809 0.00672152
0.00818766 0.0431177 0.00252433
0.00656883 -0.0453262 -0.00265362
0.00241569 -0.116285 -0.00680789
-0.00266944 -0.14238 -0.00833563
-0.0067247 -0.113544 -0.00664744
-0.00818549 -0.0409032 -0.00239469
-0.00648638 0.0474226 0.00277638
-0.00219852 0.113012 0.00661651
0.0904672 0.0825761 0.296585
0.246028 0.0692851 0.248842
0.30312 0.0260208 0.0934546
0.243189 -0.0273536 -0.0982416
0.0894331 -0.0701759 -0.25204
-0.0988273 -0.0859237 -0.308599
-0.24896 -0.0685216 -0.246099
-0.30304 -0.0246844 -0.0886554
-0.240136 0.0286187 0.102786
-0.0813929 0.0682007 0.244954
0.143588 -0.00353902 0.470735
0.390487 -0.00296785 0.394953
0.481104 -0.00111458 0.148328
0.385983 0.00117166 -0.155926
0.141946 0.00300592 -0.40003
-0.156856 0.00368047 -0.489799
-0.39514 0.00293506 -0.3906
-0.480976 0.00105733 -0.140711
-0.381136 -0.00122592 0.163139
-0.129185 -0.00292293 0.388786
0.141311 -0.0882887 0.463271
0.384108 -0.0739834 0.388508
0.47324 -0.0277839 0.145905
0.379675 0.0292069 -0.153378
0.139625 0.0749304 -0.393494
-0.154291 0.0917455 -0.481797
-0.388682 0.0731643 -0.38422
-0.473115 0.0263567 -0.138411
-0.374908 -0.0305609 0.160479
-0.127137 -0.0729188 0.382622
0.0845157 -0.138976 0.277074
0.22094 -0.112167 0.223625
0.272125 -0.0420832 0.0839005
0.218321 0.0442367 -0.0881939
0.0802877 0.11349 -0.226262
-0.0887213 0.138958 -0.277037
-0.223501 0.110815 -0.220929
-0.272052 0.0399184 -0.0795847
-0.215644 -0.0463785 0.0924639
-0.0760384 -0.114782 0.228839
0 0.159849 0
0 0.135725 0
0 0.0509216 0
0 -0.0535274 0
0 -0.137325 0
0 -0.168142 0
0 -0.134088 0
0 -0.0483023 0
0 0.056119 0
0 0.132021 0
-0.0871034 0.098178 -0.0542805
-0.236763 0.0823055 -0.0456801
-0.291705 0.0309085 -0.0171576
-0.234031 -0.0324916 0.0180366
-0.086065 -0.0833575 0.0462729
0.0951055 -0.102063 0.0566569
0.239584 -0.0813926 0.0451822
0.291628 -0.0293209 0.0162766
0.231093 0.0339992 -0.0188663
0.0783665 0.0810866 -0.044831
-0.140602 -0.00137069 -0.0876191
-0.382182 -0.00114517 -0.0737365
-0.470867 -0.000430016 -0.0276957
-0.377771 0.000452038 0.0291145
-0.138925 0.00115971 0.0746934
0.153518 0.00141996 0.0914551
0.386734 0.00113237 0.0729329
0.470742 0.000407926 0.0262736
0.373029 -0.000473096 -0.0304538
0.126499 -0.00113207 -0.0723659
-0.139855 -0.100391 -0.0871537
-0.380152 -0.0840594 -0.0733448
-0.468366 -0.0315669 -0.0275486
-0.375764 0.0331837 0.0289599
-0.138187 0.085133 0.0742966
0.152702 0.104238 0.0909694
0.38468 0.0831263 0.0725456
0.468242 0.0299455 0.0261341
0.371047 -0.0347243 -0.030292
0.125827 -0.0829139 -0.0719814
-0.0851509 -0.160679 -0.0530637
-0.231456 -0.134541 -0.0446561
-0.285166 -0.0505241 -0.016773
-0.228784 0.0531118 0.0176323
-0.0841355 0.136259 0.0452357
0.0929732 0.166836 0.055387
0.234213 0.133047 0.0441695
0.285091 0.047929 0.0159118
0.225913 -0.0555776 -0.0184433
0.0766098 -0.132707 -0.043826
0.00240489 -0.158976 0.00149866
0.00653694 -0.133115 0.00126121
0.00805382 -0.0499887 0.000473714
0.00646153 0.052549 -0.000497982
0.00237622 0.134815 -0.00127758
-0.00262581 0.165068 -0.00156427
-0.00661477 0.131637 -0.00124747
-0.00805169 0.047421 -0.00044939
-0.00638038 -0.0549886 0.000520889
-0.00216367 -0.131301 0.00123776
0.0890329 -0.0959394 0.0554828
0.242008 -0.0803328 0.0466921
0.298166 -0.0301673 0.0175377
0.239215 0.0317124 -0.0184361
0.0879717 0.0813586 -0.047298
-0.0972119 0.0996159 -0.057912
-0.24489 0.0794409 -0.046183
-0.298086 0.0286177 -0.0166372
-0.236212 -0.0331847 0.0192842
-0.0801024 -0.0792376 0.045824
0.141311 0.00411174 0.0880613
0.384108 0.00344124 0.0741079
0.47324 0.00129226 0.0278352
0.379675 -0.00135845 -0.0292611
0.139625 -0.00348511 -0.0750697
-0.154291 -0.00426719 -0.0919158
-0.388682 -0.00340295 -0.0733002
-0.473115 -0.00122588 -0.0264059
-0.374908 0.00142158 0.0306072
-0.127137 0.00339594 0.072731
0.139071 0.102576 0.0866651
0.377835 0.0857886 0.0728947
0.465509 0.0322147 0.0273789
0.373471 -0.0338646 -0.0287814
0.137344 -0.08688 -0.0738389
-0.151771 -0.106377 -0.0904089
-0.382334 -0.0848321 -0.0720986
-0.465385 -0.0305598 -0.025973
-0.368785 0.0354402 0.0301067
-0.125121 0.0847193 0.0715779
0.0831757 0.161466 0.0518328
0.217437 0.130319 0.0418341
0.26781 0.0488935 0.0156954
0.21486 -0.0513955 -0.0164986
0.0790148 -0.131856 -0.0423274
-0.0873146 -0.161445 -0.0518259
-0.219957 -0.128748 -0.0413296
-0.267739 -0.0463785 -0.0148881
-0.212225 0.0538839 0.0172974
-0.0748328 0.133357 0.0428094
0 0.395611 0
0 0.319296 0
0 0.119794 0
0 -0.125925 0
0 -0.323061 0
0 -0.395558 0
0 -0.315446 0
0 -0.113632 0
0 0.132021 0
0 0.32674 0
-0.052095 0.242981 0.202539
-0.136186 0.196109 0.163469
-0.167736 0.0735768 0.0613307
-0.134572 -0.077342 -0.0644692
-0.0494889 -0.198422 -0.165396
0.0546872 -0.242949 -0.202512
0.137765 -0.193744 -0.161498
0.167691 -0.0697921 -0.0581759
0.132922 0.0810866 0.0675905
0.0468696 0.200681 0.16728
-0.0840914 -0.00339232 0.326937
-0.219831 -0.00273793 0.26387
-0.270758 -0.00102723 0.0989995
-0.217225 0.00107979 -0.104066
-0.0798846 0.00277022 -0.266982
0.0882757 0.00339187 -0.326894
0.222379 0.00270492 -0.260688
0.270686 0.000974386 -0.0939071
0.214561 -0.00113207 0.109104
0.0756566 -0.00280177 0.270022
-0.0836447 -0.248457 0.325201
-0.218663 -0.200529 0.262468
-0.26932 -0.075235 0.0984736
-0.216071 0.079085 -0.103513
-0.0794602 0.202893 -0.265563
0.0878068 0.248424 -0.325157
0.221197 0.198111 -0.259303
0.269248 0.071365 -0.0934083
0.213421 -0.082914 0.108525
0.0752547 -0.205204 0.268588
-0.0509272 -0.397665 0.197999
-0.133134 -0.320954 0.159804
-0.163976 -0.120416 0.0599559
-0.131555 0.126579 -0.063024
-0.0483795 0.324739 -0.161689
0.0534613 0.397612 -0.197973
0.134676 0.317084 -0.157877
0.163932 0.114222 -0.0568718
0.129942 -0.132707 0.0660754
0.045819 -0.328437 0.16353
0.00143832 -0.393451 -0.00559202
0.00376004 -0.317553 -0.0045133
0.00463112 -0.11914 -0.00169331
0.00371547 0.125237 0.00177997
0.00136637 0.321297 0.00456652
-0.00150989 0.393399 0.00559128
-0.00380362 0.313724 0.00445888
-0.00462989 0.113012 0.00160621
-0.00366991 -0.131301 -0.00186615
-0.00129405 -0.324957 -0.00461853
0.0532489 -0.237441 -0.207026
0.139203 -0.191638 -0.16709
0.171451 -0.0718992 -0.0626892
0.137553 0.0755785 0.0658972
0.0505851 0.193897 0.16906
-0.0558986 0.237409 0.206998
-0.140816 0.189327 0.165075
-0.171406 0.0682007 0.0594645
-0.135866 -0.0792377 -0.0690877
-0.0479078 -0.196106 -0.170985
0.0845157 0.0101762 -0.328587
0.22094 0.00821315 -0.265202
0.272124 0.00308143 -0.0994991
0.218321 -0.00323912 0.104591
0.0802877 -0.00831 0.268329
-0.0887212 -0.0101748 0.328544
-0.223501 -0.00811411 0.262004
-0.272052 -0.00292293 0.094381
-0.215644 0.00339595 -0.109655
-0.0760384 0.00840464 -0.271385
0.0831757 0.253867 -0.323378
0.217437 0.204895 -0.260997
0.26781 0.0768731 -0.0979216
0.21486 -0.0808069 0.102933
0.0790147 -0.207311 0.264074
-0.0873145 -0.253833 0.323335
-0.219957 -0.202424 0.25785
-0.267739 -0.0729188 0.0928846
-0.212225 0.0847193 -0.107916
-0.0748328 0.209672 -0.267082
0.0497459 0.399614 -0.193406
0.130045 0.322527 -0.156097
0.160172 0.121007 -0.0585651
0.128504 -0.127199 0.0615621
0.0472573 -0.32633 0.157938
-0.0522213 -0.399561 0.193381
-0.131552 -0.318638 0.154215
-0.16013 -0.114782 0.0555526
-0.126928 0.133357 -0.0645427
-0.0447561 0.330047 -0.159737
