# vtk DataFile Version 3.0
Velocity field
ASCII
DATASET STRUCTURED_POINTS
DIMENSIONS 8 8 8
SPACING 0.8 0.8 0.8
ORIGIN 0 0 0
POINT_DATA 512
VECTORS velocity float
0 0.30499 0
0 0.212489 0
0 -0.00890557 0
0 -0.224898 0
0 -0.30447 0
0 -0.199355 0
0 0.0266864 0
0 0.23654 0
0 0.119987 0.311288
0 0.0835958 0.22994
0 -0.00350357 -0.00963698
0 -0.0884777 -0.243369
0 -0.119782 -0.329476
0 -0.0784288 -0.215728
0 0.0104988 0.0288781
0 0.0930579 0.241424
0 -0.137798 0.433753
0 -0.096005 0.320402
0 0.00402365 -0.0134283
0 0.101612 -0.339113
0 0.137563 -0.459096
0 0.0900709 -0.300598
0 -0.0120572 0.0402392
0 -0.106872 0.336404
0 -0.311997 0.293109
0 -0.21737 0.216512
0 0.00911017 -0.00907419
0 0.230065 -0.229156
0 0.311465 -0.310235
0 0.203935 -0.203129
0 -0.0272995 0.0271917
0 -0.241974 0.227325
0 -0.296943 -0.0253308
0 -0.206882 -0.0187112
0 0.00867059 0.0007842
0 0.218964 0.0198039
0 0.296436 0.0268108
0 0.194095 0.0175546
0 -0.0259822 -0.00234993
0 -0.230299 -0.0196457
0 -0.101767 -0.328405
0 -0.0709016 -0.242584
0 0.00297154 0.0101669
0 0.0750422 0.256751
0 0.101593 0.347593
0 0.0665192 0.22759
0 -0.00890451 -0.0304661
0 -0.0789268 -0.2547
0 0.155139 -0.432273
0 0.108087 -0.319309
0 -0.00453 0.0133825
0 -0.114399 0.337957
0 -0.154875 0.45753
0 -0.101406 0.299573
0 0.0135746 -0.0401019
0 0.120321 -0.335256
0 0.31794 -0.27393
0 0.221511 -0.190849
0 -0.00928371 0.00799864
0 -0.234447 0.201995
0 -0.317398 0.273463
0 -0.20782 0.179053
0 0.0278195 -0.0239687
0 0.246583 -0.212451
0 0.212489 0
0 0.16073 0
0 -0.00673633 0
0 -0.170116 0
0 -0.230306 0
0 -0.150795 0
0 0.020186 0
0 0.164799 0
0.0663564 0.0835958 0.307468
0.163005 0.0598718 0.219929
0.159042 -0.00251026 -0.00922095
0.0585921 -0.0633899 -0.232851
-0.0773996 -0.0858181 -0.315235
-0.166442 -0.0561903 -0.206403
-0.154511 0.00750622 0.0275745
-0.0476121 0.064834 0.238461
0.092462 -0.096005 0.428429
0.227134 -0.068612 0.306453
0.221612 0.00287661 -0.0128485
0.0816425 0.0726416 -0.324455
-0.10785 0.0983429 -0.439255
-0.231923 0.064391 -0.287606
-0.215299 -0.00860299 0.0384226
-0.0663433 -0.0744581 0.332275
0.0624813 -0.21737 0.289512
0.153485 -0.155349 0.207086
0.149755 0.00651327 -0.00868241
0.05517 0.164475 -0.219252
-0.07288 0.222668 -0.296827
-0.156721 0.145795 -0.194349
-0.145488 -0.0194787 0.0259641
-0.0448316 -0.168585 0.224535
-0.00539969 -0.206882 -0.0250199
-0.0132644 -0.147855 -0.0178965
-0.0129419 0.00619895 0.000750338
-0.00476784 0.156538 0.018948
0.00629832 0.211925 0.0256519
0.0135441 0.13876 0.0167958
0.0125732 -0.0185389 -0.00224385
0.00387439 -0.160451 -0.0194046
-0.0700053 -0.0709016 -0.324375
-0.171966 -0.0506724 -0.232023
-0.167788 0.00212449 0.00972795
-0.0618129 0.0536487 0.245651
0.081656 0.0726301 0.33257
0.175592 0.047555 0.217754
0.163008 -0.00635359 -0.0290908
0.0502302 -0.0549888 -0.251574
-0.0921466 0.108087 -0.426968
-0.226327 0.0772131 -0.305365
-0.220825 -0.00323723 0.0128028
-0.0813525 -0.0817474 0.323303
0.107467 -0.11067 0.437693
0.231098 -0.072463 0.286584
0.214534 0.00968183 -0.0382867
0.066117 0.0838284 -0.331142
-0.0583931 0.221511 -0.270569
-0.139759 0.154328 -0.188507
-0.136349 -0.00646802 0.00790048
-0.0502312 -0.163341 0.199516
0.0663557 -0.221133 0.270107
0.142692 -0.144789 0.176855
0.132473 0.019382 -0.0236745
0.0418982 0.171796 -0.209844
0 -0.00890557 0
0 -0.00673633 0
0 0.000282325 0
0 0.00712972 0
0 0.00965232 0
0 0.00631996 0
0 -0.000846013 0
0 -0.00690685 0
0.092462 -0.00350357 0.117142
0.227134 -0.00251026 0.0837468
0.221612 0.00010525 -0.00351121
0.0816425 0.0026578 -0.0886654
-0.10785 0.00359816 -0.120036
-0.231923 0.00235594 -0.0785957
-0.215299 -0.000314703 0.0105003
-0.0663433 -0.00271725 0.0908511
0.128838 0.00402365 0.163227
0.31649 0.00287661 0.116694
0.308795 -0.000120606 -0.00489253
0.113762 -0.00304558 -0.123547
-0.150281 -0.00412317 -0.167262
-0.323163 -0.0026997 -0.109517
-0.300001 0.000360675 0.0146313
-0.0924437 0.0031206 0.126593
0.0870623 0.00911017 0.110301
0.213869 0.00651327 0.0788555
0.20867 -0.000273078 -0.00330616
0.0768742 -0.00689587 -0.0834883
-0.101551 -0.00933578 -0.113028
-0.218379 -0.00611261 -0.0740062
-0.202724 0.000816641 0.00988709
-0.0624689 0.00706554 0.0855455
-0.00752401 0.00867059 -0.0095323
-0.0184828 0.00619895 -0.00681482
-0.0180335 -0.000259901 0.000285721
-0.00664359 -0.00656313 0.00721514
0.00877621 -0.00888527 0.0097679
0.0188726 -0.00581768 0.00639564
0.0175197 0.000777233 -0.000854457
0.00539863 0.00672461 -0.00739292
-0.0975463 0.00297154 -0.123583
-0.23962 0.00212449 -0.088351
-0.233799 -8.90722e-05 0.00370429
-0.0861309 -0.0022493 0.0935403
0.113781 -0.0030451 0.126637
0.244672 -0.00199381 0.0829178
0.227138 0.000266372 -0.0110777
0.0699914 0.00230463 -0.0958468
-0.128398 -0.00453 -0.16267
-0.315366 -0.00323723 -0.116279
-0.307699 0.000135724 0.00487517
-0.113358 0.00342735 0.123108
0.149746 0.00464002 0.166667
0.322015 0.00303808 0.109128
0.298934 -0.000405906 -0.0145795
0.0921284 -0.00351331 -0.126161
-0.0813657 -0.00928371 -0.103084
-0.194742 -0.00646802 -0.071819
-0.18999 0.00027108 0.00300999
-0.0699929 0.00684575 0.0760132
0.0924609 0.00926788 0.102908
0.198829 0.00606824 0.0673799
0.18459 -0.000812317 -0.00901973
0.0583815 -0.00720013 -0.0799481
0 -0.224898 0
0 -0.170116 0
0 0.00712972 0
0 0.180051 0
0 0.243756 0
0 0.159602 0
0 -0.0213649 0
0 -0.174423 0
0.0624813 -0.0884777 -0.144241
0.153485 -0.0633899 -0.103119
0.149755 0.0026578 0.00432341
0.05517 0.0671151 0.109177
-0.07288 0.0908614 0.147805
-0.156721 0.0594925 0.0967759
-0.145488 -0.00794701 -0.0129293
-0.0448316 -0.0686203 -0.111868
0.0870623 0.101612 -0.200987
0.213869 0.0726416 -0.143687
0.20867 -0.00304558 0.00602425
0.0768742 -0.0769083 0.152129
-0.101551 -0.10412 0.205952
-0.218379 -0.0681737 0.134849
-0.202724 0.00910798 -0.0180158
-0.0624689 0.0788064 -0.155879
0.0588324 0.230065 -0.135817
0.144522 0.164475 -0.0970964
0.141009 -0.00689587 0.0040709
0.0519481 -0.174135 0.1028
-0.0686236 -0.23575 0.139173
-0.14757 -0.154358 0.0911244
-0.136992 0.0206223 -0.0121741
-0.0422134 0.17843 -0.105335
-0.00508436 0.218964 0.0117375
-0.0124897 0.156538 0.0083912
-0.012186 -0.00656313 -0.000351811
-0.00448942 -0.165735 -0.00888414
0.00593046 -0.224374 -0.0120273
0.012753 -0.146912 -0.00787505
0.0118388 0.0196271 0.00105211
0.00364813 0.169821 0.00910318
-0.065917 0.0750422 0.152172
-0.161925 0.0536487 0.108789
-0.157989 -0.0022493 -0.00456115
-0.058204 -0.0568001 -0.11518
0.0768869 -0.0768961 -0.155931
0.16534 -0.0503486 -0.102098
0.153487 0.00672657 0.0136403
0.0472968 0.0582001 0.11802
-0.0867653 -0.114399 0.200302
-0.21311 -0.0817474 0.143177
-0.207929 0.00342735 -0.00600286
-0.0766012 0.086548 -0.151588
0.101191 0.117171 -0.205221
0.217603 0.0767186 -0.13437
0.202004 -0.0102501 0.0179521
0.0622559 -0.0887238 0.155347
-0.0549829 -0.234447 0.126931
-0.131597 -0.163341 0.0884334
-0.128386 0.00684575 -0.00370632
-0.0472978 0.17288 -0.0935978
0.0624806 0.234047 -0.126714
0.134359 0.153245 -0.0829674
0.124737 -0.0205139 0.0111063
0.0394514 -0.181829 0.098443
0 -0.30447 0
0 -0.230306 0
0 0.00965232 0
0 0.243756 0
0 0.33 0
0 0.216071 0
0 -0.0289241 0
0 -0.236136 0
-0.00539969 -0.119782 -0.318129
-0.0132644 -0.0858181 -0.227433
-0.0129419 0.00359816 0.00953546
-0.00476785 0.0908614 0.240789
0.00629832 0.123009 0.325989
0.0135441 0.0805419 0.213445
0.0125732 -0.0107588 -0.0285161
0.00387439 -0.0928992 -0.24673
-0.00752401 0.137563 -0.443285
-0.0184828 0.0983429 -0.316906
-0.0180335 -0.00412317 0.0132869
-0.00664359 -0.10412 0.335525
0.00877621 -0.14096 0.454238
0.0188726 -0.0922943 0.297418
0.0175197 0.0123305 -0.0397345
0.00539863 0.106689 -0.343797
-0.00508436 0.311465 -0.29955
-0.0124897 0.222668 -0.214152
-0.012186 -0.00933578 0.00897862
-0.00448942 -0.23575 0.226731
0.00593046 -0.31916 0.306949
0.012753 -0.208974 0.200979
0.0118388 0.0279187 -0.0268507
0.00364813 0.241562 -0.232321
0.000439395 0.296436 0.0258874
0.00107938 0.211925 0.0185072
0.00105314 -0.00888527 -0.000775932
0.000387976 -0.224374 -0.0195942
-0.00051252 -0.303762 -0.0265271
-0.00110214 -0.198889 -0.0173689
-0.00102313 0.0265716 0.00232046
-0.000315275 0.229906 0.0200774
0.00569662 0.101593 0.335622
0.0139938 0.0726301 0.239937
0.0136536 -0.0030451 -0.0100598
0.00503001 -0.0768961 -0.25403
-0.00664469 -0.104104 -0.34391
-0.0142889 -0.0681628 -0.225182
-0.0132646 0.00910651 0.0300838
-0.00408744 0.0787922 0.260297
0.00749835 -0.154875 0.441773
0.0184172 -0.11067 0.315782
0.0179694 0.00464002 -0.0132397
0.00662 0.117171 -0.334332
-0.00874505 0.158628 -0.452625
-0.0188054 0.103863 -0.296361
-0.0174575 -0.0138768 0.039594
-0.00538021 -0.120116 0.342624
0.00475168 -0.317398 0.27995
0.0113727 -0.221133 0.195043
0.0110952 0.00926788 -0.00817442
0.00408752 0.234047 -0.206434
-0.00539963 0.316857 -0.279473
-0.0116114 0.207465 -0.182988
-0.0107799 -0.0277721 0.0244954
-0.00340943 -0.246163 0.21712
0 -0.199355 0
0 -0.150795 0
0 0.00631996 0
0 0.159602 0
0 0.216071 0
0 0.141475 0
0 -0.0189383 0
0 -0.154613 0
-0.0700053 -0.0784288 -0.299044
-0.171966 -0.0561903 -0.21379
-0.167788 0.00235594 0.00896346
-0.0618129 0.0594925 0.226348
0.081656 0.0805419 0.306431
0.175592 0.0527358 0.200639
0.163008 -0.00704444 -0.0268054
0.0502302 -0.0608267 -0.231928
-0.0975463 0.0900709 -0.416692
-0.23962 0.064391 -0.297897
-0.233799 -0.0026997 0.0124897
-0.0861309 -0.0681737 0.315395
0.113781 -0.0922943 0.426988
0.244672 -0.0604303 0.279575
0.227138 0.0080735 -0.0373509
0.0699914 0.0698559 -0.323172
-0.065917 0.203935 -0.28158
-0.161925 0.145795 -0.201304
-0.157989 -0.00611261 0.00843994
-0.058204 -0.154358 0.213129
0.0768869 -0.208974 0.288537
0.16534 -0.136828 0.188921
0.153487 0.0182801 -0.0252398
0.0472968 0.158165 -0.218384
0.00569662 0.194095 0.0243344
0.0139938 0.13876 0.0173969
0.0136536 -0.00581768 -0.000729383
0.00503001 -0.146912 -0.0184188
-0.00664469 -0.198889 -0.0249355
-0.0142889 -0.130225 -0.0163268
-0.0132646 0.017398 0.00218126
-0.00408744 0.150533 0.018873
0.0738548 0.0665192 0.315488
0.181423 0.047555 0.225544
0.177013 -0.00199381 -0.00945635
0.065212 -0.0503486 -0.238792
-0.0861451 -0.0681628 -0.323282
-0.185248 -0.0446301 -0.211673
-0.171969 0.00596255 0.0282793
-0.0529923 0.05159 0.244682
0.0972136 -0.101406 0.415271
0.238769 -0.072463 0.296839
0.232967 0.00303808 -0.0124453
0.0858252 0.0767186 -0.314275
-0.113377 0.103863 -0.425472
-0.243803 0.0680057 -0.278582
-0.226331 -0.00908597 0.0372187
-0.0697527 -0.078647 0.32207
0.061604 -0.20782 0.263156
0.147444 -0.144789 0.183343
0.143846 0.00606824 -0.00768404
0.0529934 0.153245 -0.19405
-0.0700045 0.207465 -0.262707
-0.150539 0.13584 -0.17201
-0.139758 -0.018184 0.0230259
-0.0442021 -0.161178 0.204095
0 0.0266864 0
0 0.020186 0
0 -0.000846013 0
0 -0.0213649 0
0 -0.0289241 0
0 -0.0189383 0
0 0.00253516 0
0 0.020697 0
-0.0921466 0.0104988 -0.0985632
-0.226327 0.00750606 -0.0704889
-0.220825 -0.000314696 0.00295537
-0.0813525 -0.00794685 0.0746304
0.107467 -0.0107586 0.101035
0.231098 -0.0070443 0.0661538
0.214534 0.000941206 -0.00883775
0.066117 0.00814249 -0.0764422
-0.128398 -0.0120572 -0.137339
-0.315366 -0.00860281 -0.0982201
-0.307699 0.000360668 0.00411805
-0.113358 0.00910778 0.10399
0.149746 0.0123302 0.140784
0.322015 0.00807333 0.09218
0.298934 -0.00107884 -0.0123146
0.0921284 -0.00935118 -0.106516
-0.0867653 -0.0272995 -0.0928072
-0.21311 -0.0194783 -0.0663724
-0.207929 0.000816624 0.00278278
-0.0766013 0.0206218 0.0702717
0.101191 0.0279181 0.0951346
0.217603 0.0182797 0.0622905
0.202004 -0.00244269 -0.00832161
0.0622559 -0.0211725 -0.0719781
0.00749835 -0.0259822 0.00802049
0.0184172 -0.0185385 0.00573598
0.0179694 0.000777216 -0.00024049
0.00662 0.0196267 -0.00607293
-0.00874505 0.026571 -0.00822164
-0.0188054 0.0173977 -0.00538319
-0.0174575 -0.00232484 0.000719166
-0.00538021 -0.0201509 0.00622042
0.0972136 -0.00890451 0.103983
0.238769 -0.00635345 0.0743652
0.232967 0.000266366 -0.00311787
0.0858252 0.00672643 -0.0787339
-0.113377 0.00910632 -0.106591
-0.243803 0.00596243 -0.0697916
-0.226331 -0.000796759 0.00932372
-0.0697527 -0.00690603 0.0806457
0.12796 0.0135746 0.136871
0.314247 0.00968163 0.0978714
0.306606 -0.000405897 -0.00410342
0.112956 -0.0102499 -0.103621
-0.149214 -0.0138765 -0.140284
-0.320872 -0.00908578 -0.0918521
-0.297871 0.00121418 0.012271
-0.0918142 0.010528 0.106152
0.0810882 0.0278195 0.0867347
0.194078 0.019382 0.0604286
0.189342 -0.000812317 -0.00253261
0.0697542 -0.0205139 -0.0639576
-0.0921456 -0.0277721 -0.0865868
-0.198151 -0.018184 -0.0566936
-0.183961 0.00243418 0.00758921
-0.0581824 0.0215759 0.0672685
0 0.23654 0
0 0.164799 0
0 -0.00690685 0
0 -0.174423 0
0 -0.236136 0
0 -0.154613 0
0 0.020697 0
0 0.183452 0
-0.0583931 0.0930579 0.161705
-0.139759 0.0648341 0.112661
-0.136349 -0.00271725 -0.0047217
-0.0502312 -0.0686203 -0.11924
0.0663557 -0.0928992 -0.161429
0.142692 -0.0608267 -0.105697
0.132473 0.00814249 0.014149
0.0418982 0.0721725 0.125413
-0.0813657 -0.106872 0.225321
-0.194742 -0.0744582 0.156983
-0.18999 0.0031206 -0.00657929
-0.0699929 0.0788064 -0.166151
0.0924609 0.106689 -0.224937
0.198829 0.0698559 -0.14728
0.18459 -0.00935118 0.0197154
0.0583815 -0.082886 0.174752
-0.0549829 -0.241974 0.152261
-0.131597 -0.168585 0.106081
-0.128386 0.00706554 -0.00444596
-0.0472978 0.17843 -0.112277
0.0624806 0.241562 -0.152002
0.134359 0.158165 -0.0995246
0.124737 -0.0211725 0.0133227
0.0394514 -0.187667 0.118089
0.00475168 -0.230299 -0.0131586
0.0113727 -0.160451 -0.00916766
0.0110952 0.00672461 0.000384224
0.00408752 0.169821 0.00970305
-0.00539963 0.229906 0.0131361
-0.0116114 0.150533 0.00860101
-0.0107799 -0.0201509 -0.00115136
-0.00340943 -0.178612 -0.0102053
0.061604 -0.0789268 -0.170597
0.147444 -0.0549888 -0.118856
0.143846 0.00230463 0.00498134
0.0529934 0.0582001 0.125797
-0.0700045 0.0787922 0.170306
-0.150539 0.05159 0.111509
-0.139758 -0.00690603 -0.0149271
-0.0442021 -0.0612129 -0.132309
0.0810882 0.120321 -0.224553
0.194077 0.0838284 -0.156448
0.189342 -0.00351331 0.00655685
0.0697542 -0.0887239 0.165584
-0.0921456 -0.120116 0.22417
-0.198151 -0.078647 0.146778
-0.183961 0.010528 -0.0196482
-0.0581824 0.0933167 -0.174156
0.0513853 0.246583 -0.142299
0.122986 0.171796 -0.0991404
0.119986 -0.00720013 0.00415506
0.044203 -0.181829 0.10493
-0.0583924 -0.246163 0.142056
-0.125568 -0.161178 0.0930126
-0.116575 0.0215759 -0.012451
-0.03687 0.191242 -0.110362
