# vtk DataFile Version 3.0
Velocity field
ASCII
DATASET STRUCTURED_POINTS
DIMENSIONS 10 10 10
SPACING 0.631579 0.631579 0.631579
ORIGIN 0 0 0
POINT_DATA 1000
VECTORS velocity float
0 0.328731 0
0 0.265318 0
0 0.0995426 0
0 -0.104637 0
0 -0.268446 0
0 -0.328687 0
0 -0.262118 0
0 -0.0944223 0
0 0.109703 0
0 0.271503 0
0 0.201904 0.257503
0 0.162956 0.215978
0 0.0611384 0.0810315
0 -0.064267 -0.0851781
0 -0.164878 -0.218525
0 -0.201877 -0.267564
0 -0.160991 -0.213374
0 -0.0579935 -0.0768633
0 0.0673786 0.0893021
0 0.166755 0.212675
0 -0.00281884 0.415659
0 -0.00227507 0.348631
0 -0.000853569 0.1308
0 0.000897249 -0.137494
0 0.0023019 -0.352742
0 0.00281846 -0.4319
0 0.00224764 -0.344427
0 0.000809662 -0.124072
0 -0.00094069 0.144151
0 -0.00232812 0.343299
0 -0.206454 0.413451
0 -0.166628 0.346779
0 -0.0625162 0.130106
0 0.0657153 -0.136763
0 0.168593 -0.350868
0 0.206427 -0.429605
0 0.164619 -0.342597
0 0.0593004 -0.123413
0 -0.068897 0.143385
0 -0.170513 0.341475
0 -0.330438 0.25173
0 -0.266695 0.211137
0 -0.10006 0.079215
0 0.10518 -0.0832687
0 0.26984 -0.213627
0 0.330394 -0.261566
0 0.26348 -0.208591
0 0.0949126 -0.0751403
0 -0.110272 0.0873003
0 -0.272913 0.207908
0 -0.326936 -0.00710954
0 -0.263869 -0.00596307
0 -0.0989993 -0.00223725
0 0.104065 0.00235173
0 0.266981 0.00603339
0 0.326893 0.00738733
0 0.260688 0.00589116
0 0.0939068 0.00212216
0 -0.109104 -0.00246559
0 -0.270021 -0.00587187
0 -0.1973 -0.263207
0 -0.15924 -0.220763
0 -0.0597443 -0.0828264
0 0.0628016 0.0870649
0 0.161118 0.223366
0 0.197274 0.273491
0 0.15732 0.218101
0 0.0566711 0.0785659
0 -0.0658422 -0.0912802
0 -0.162953 -0.217386
0 0.00845584 -0.417757
0 0.00682468 -0.35039
0 0.0025605 -0.131461
0 -0.00269153 0.138188
0 -0.00690516 0.354522
0 -0.00845472 0.434079
0 -0.00674239 0.346165
0 -0.00242879 0.124698
0 0.00282185 -0.144878
0 0.0069838 -0.345031
0 0.210949 -0.411133
0 0.170257 -0.344835
0 0.0638774 -0.129376
0 -0.0671462 0.135997
0 -0.172264 0.348901
0 -0.210921 0.427197
0 -0.168204 0.340677
0 -0.0605916 0.122721
0 0.0703971 -0.142581
0 0.174226 -0.33956
0 0.332057 -0.245891
0 0.268002 -0.198458
0 0.10055 -0.074458
0 -0.105695 0.0782683
0 -0.271163 0.200798
0 -0.332013 0.245859
0 -0.264771 0.196065
0 -0.0953778 0.070628
0 0.110813 -0.0820577
0 0.274251 -0.203085
0 0.265318 0
0 0.225276 0
0 0.0845198 0
0 -0.0888449 0
0 -0.227933 0
0 -0.279082 0
0 -0.22256 0
0 -0.0801722 0
0 0.0931464 0
0 0.219129 0
0.0374405 0.162956 0.284983
0.100517 0.135113 0.236228
0.123822 0.0507158 0.0886702
0.0993398 -0.0533118 -0.0932089
0.0365324 -0.136772 -0.239129
-0.0403699 -0.167465 -0.292792
-0.101697 -0.133548 -0.233492
-0.123789 -0.0481083 -0.0841115
-0.0981086 0.0558405 0.0976297
-0.0336851 0.134588 0.235372
0.0604363 -0.00227507 0.460018
0.162254 -0.00188175 0.381317
0.199872 -0.000706298 0.143131
0.160354 0.000742452 -0.150458
0.0589703 0.00190477 -0.386001
-0.0651646 0.00233221 -0.472621
-0.164158 0.00185987 -0.376901
-0.199818 0.000669983 -0.135772
-0.158366 -0.00077774 0.157593
-0.0543742 -0.00187901 0.379935
0.0601152 -0.166628 0.457574
0.161392 -0.138002 0.379292
0.198809 -0.0517997 0.14237
0.159502 0.0544512 -0.149658
0.0586571 0.139695 -0.38395
-0.0648186 0.171044 -0.470111
-0.163287 0.136402 -0.374899
-0.198757 0.0491364 -0.135051
-0.157525 -0.0570356 0.156756
-0.0540853 -0.137621 0.377917
0.0366013 -0.266695 0.278595
0.0982639 -0.220878 0.230932
0.121046 -0.0829073 0.0866825
0.0971135 0.0871513 -0.0911198
0.0357133 0.223588 -0.233769
-0.0394649 0.273762 -0.286227
-0.099417 0.218317 -0.228258
-0.121013 0.0786449 -0.0822257
-0.0959092 -0.0912877 0.0954413
-0.03293 -0.220267 0.230095
-0.00103372 -0.263869 -0.00786826
-0.00277522 -0.218538 -0.00652213
-0.00341865 -0.0820286 -0.00244815
-0.00274272 0.086228 0.00257346
-0.00100865 0.221218 0.00660225
0.00111459 0.270861 0.00808385
0.00280781 0.216004 0.00644662
0.00341774 0.0778113 0.00232228
0.00270874 -0.0903202 -0.00269551
0.00093003 -0.217933 -0.00649851
-0.0382699 -0.15924 -0.291296
-0.102744 -0.131884 -0.24146
-0.126564 -0.0495029 -0.0906344
-0.101541 0.0520368 0.0952739
-0.0373416 0.133501 0.244426
0.0412639 0.16346 0.299277
0.103949 0.130354 0.238664
0.12653 0.0469577 0.0859745
0.100282 -0.0545066 -0.0997922
0.0344312 -0.131519 -0.240585
-0.0607412 0.00682468 -0.462339
-0.163072 0.00565134 -0.383241
-0.20088 0.00212124 -0.143853
-0.161163 -0.00222981 0.151217
-0.0592679 -0.00572062 0.387948
0.0654932 -0.00700436 0.475006
0.164986 -0.00558577 0.378803
0.200827 -0.00201217 0.136457
0.159165 0.00233567 -0.158388
0.0546486 0.00563659 -0.381852
-0.0597782 0.170257 -0.455009
-0.16045 0.140926 -0.377081
-0.197649 0.0528962 -0.14154
-0.158571 -0.0556038 0.148785
-0.0583147 -0.142652 0.38171
0.0644402 -0.174664 0.467368
0.162334 -0.13929 0.372711
0.197596 -0.0501765 0.134263
0.156605 0.0582446 -0.155843
0.0537821 0.140617 -0.375798
-0.0357523 0.268002 -0.272132
-0.0934633 0.216304 -0.219637
-0.115115 0.0811535 -0.0824041
-0.0923553 -0.0853064 0.086621
-0.0339637 -0.218854 0.222227
0.0375313 -0.267967 0.272096
0.0945464 -0.213696 0.216989
0.115085 -0.076979 0.0781653
0.0912227 0.0894366 -0.0908149
0.0321661 0.221347 -0.224758
0 0.0995426 0
0 0.0845198 0
0 0.0317104 0
0 -0.0333331 0
0 -0.0855164 0
0 -0.104707 0
0 -0.0835007 0
0 -0.0300792 0
0 0.034947 0
0 0.0822136 0
0.0604363 0.0611384 0.202515
0.162254 0.0507158 0.167804
0.199872 0.0190368 0.0629865
0.160354 -0.0200113 -0.0662105
0.0589703 -0.0513393 -0.169864
-0.0651646 -0.06286 -0.207983
-0.164158 -0.0501291 -0.16586
-0.199818 -0.0180581 -0.0597483
-0.158366 0.0209599 0.0693514
-0.0543742 0.050495 0.16726
0.0975557 -0.000853569 0.326898
0.261909 -0.000706298 0.270868
0.322633 -0.000265107 0.101673
0.258843 0.000278675 -0.106877
0.0951896 0.000714946 -0.274194
-0.105188 0.000875388 -0.335725
-0.264983 0.000698093 -0.267731
-0.322547 0.000251475 -0.0964451
-0.255633 -0.000291915 0.111947
-0.0877704 -0.000704973 0.26999
0.0970375 -0.0625162 0.325162
0.260518 -0.0517997 0.269429
0.320918 -0.0194434 0.101132
0.257468 0.0204386 -0.106309
0.0946838 0.0524356 -0.272737
-0.104629 0.0642027 -0.333941
-0.263575 0.0511998 -0.266308
-0.320833 0.0184438 -0.0959327
-0.254275 -0.0214082 0.111352
-0.0873041 -0.0516329 0.268555
0.0590815 -0.10006 0.197975
0.158617 -0.0829073 0.164042
0.195392 -0.03112 0.0615747
0.15676 0.0327129 -0.0647266
0.0576483 0.0839255 -0.166056
-0.0637038 0.102759 -0.203321
-0.160479 0.0819468 -0.162143
-0.19534 0.02952 -0.0584088
-0.154816 -0.0342646 0.0677968
-0.0531553 -0.0826405 0.163511
-0.00166862 -0.0989993 -0.00559135
-0.00447974 -0.0820286 -0.004633
-0.00551835 -0.0307902 -0.00173903
-0.00442729 0.0323664 0.00182805
-0.00162814 0.0830359 0.0046899
0.00179916 0.10167 0.00574234
0.00453235 0.0810788 0.00457933
0.00551688 0.0292071 0.00164962
0.00437243 -0.0339016 -0.00191476
0.00150125 -0.0817648 -0.00461797
-0.061775 -0.0597443 -0.207001
-0.165848 -0.0495029 -0.171521
-0.204299 -0.0185813 -0.0643818
-0.163905 0.0195325 0.0676775
-0.0602764 0.0501108 0.173627
0.066608 0.061356 0.21259
0.167795 0.0489296 0.169534
0.204245 0.017626 0.0610716
0.161874 -0.020459 -0.0708875
0.0555786 -0.0493436 -0.170965
-0.0980481 0.0025605 -0.328548
-0.26323 0.00212124 -0.272234
-0.32426 0.000796219 -0.102185
-0.260148 -0.000836974 0.107416
-0.0956696 -0.00214726 0.275576
0.105719 -0.00262913 0.337419
0.26632 -0.00209665 0.269081
0.324174 -0.000755282 0.0969317
0.256923 0.000876686 -0.112511
0.0882133 0.00211475 -0.271352
-0.0964935 0.0638774 -0.323339
-0.258998 0.0528962 -0.267859
-0.319045 0.0198547 -0.100543
-0.255965 -0.020871 0.105689
-0.094131 -0.0535447 0.271147
0.104018 -0.0655605 0.331993
0.262037 -0.0522825 0.264754
0.31896 -0.0188339 0.0953733
0.252792 0.0218617 -0.110704
0.0868147 0.0527571 -0.26705
-0.057711 0.10055 -0.193383
-0.150868 0.0811535 -0.156079
-0.185819 0.0304474 -0.0585581
-0.149079 -0.0320055 0.0615547
-0.054824 -0.0821104 0.157919
0.0605827 -0.100537 0.193357
0.152616 -0.080175 0.154197
0.185769 -0.0288812 0.0555459
0.147251 0.0335551 -0.0645349
0.0519223 0.0830456 -0.159718
0 -0.104637 0
0 -0.0888449 0
0 -0.0333331 0
0 0.0350389 0
0 0.0898926 0
0 0.110065 0
0 0.0877737 0
0 0.0316185 0
0 -0.0367353 0
0 -0.0864207 0
0.0601152 -0.064267 0.0419149
0.161392 -0.0533118 0.0347305
0.198809 -0.0200113 0.0130363
0.159502 0.0210357 -0.0137036
0.0586571 0.0539673 -0.0351569
-0.0648186 0.0660776 -0.0430464
-0.163287 0.052695 -0.0343281
-0.198757 0.0189825 -0.0123661
-0.157525 -0.0220328 0.0143537
-0.0540853 -0.0530789 0.0346181
0.0970375 0.000897249 0.0676588
0.260518 0.000742452 0.0560616
0.320918 0.000278675 0.0210432
0.257468 -0.000292941 -0.0221203
0.0946838 -0.00075154 -0.0567501
-0.104629 -0.000920196 -0.0694851
-0.263575 -0.000733826 -0.0554121
-0.320833 -0.000264347 -0.0199612
-0.254275 0.000306857 0.0231696
-0.0873041 0.000741049 0.0558803
0.096522 0.0657153 0.0672994
0.259134 0.0544512 0.0557638
0.319213 0.0204386 0.0209314
0.2561 -0.021485 -0.0220027
0.0941806 -0.0551196 -0.0564485
-0.104073 -0.0674891 -0.0691158
-0.262175 -0.0538206 -0.0551177
-0.319128 -0.0193878 -0.0198552
-0.252924 0.022504 0.0230465
-0.0868404 0.0542751 0.0555835
0.0587676 0.10518 0.0409754
0.157774 0.0871513 0.0339519
0.194354 0.0327129 0.0127441
0.155927 -0.0343874 -0.0133965
0.0573422 -0.0882211 -0.0343687
-0.0633653 -0.108019 -0.0420814
-0.159626 -0.0861421 -0.0335587
-0.194302 -0.0310311 -0.0120889
-0.153993 0.0360185 0.0140319
-0.0528729 0.0868695 0.0338421
-0.00165975 0.104065 -0.00115725
-0.00445594 0.086228 -0.000958892
-0.00548903 0.0323663 -0.000359928
-0.0044038 -0.0340231 0.000378353
-0.0016195 -0.0872863 0.000970668
0.00178961 -0.106874 0.00118849
0.00450827 -0.085229 0.000947782
0.00548757 -0.0307022 0.000341422
0.0043492 0.0356368 -0.000396299
0.00149327 0.0859489 -0.000955792
-0.0614468 0.0628016 -0.0428434
-0.164966 0.0520368 -0.0354996
-0.203214 0.0195325 -0.0133251
-0.163036 -0.0205322 0.0140072
-0.0599564 -0.0526758 0.0359355
0.066254 -0.0644967 0.0439997
0.166903 -0.0514343 0.0350886
0.20316 -0.0185282 0.01264
0.161014 0.0215063 -0.0146716
0.0552834 0.0518687 -0.035385
-0.0975272 -0.00269153 -0.0680002
-0.261832 -0.00222981 -0.0563444
-0.322537 -0.000836974 -0.0211493
-0.258767 0.000879818 0.0222319
-0.0951615 0.00225718 0.0570362
0.105157 0.0027637 0.0698357
0.264905 0.00220397 0.0556917
0.322452 0.000793942 0.020062
0.255558 -0.000921561 -0.0232864
0.0877447 -0.00222297 -0.0561623
-0.0959809 -0.0671462 -0.0669221
-0.257622 -0.0556038 -0.0554389
-0.31735 -0.020871 -0.0208093
-0.254605 0.0219393 0.0218744
-0.0936308 0.0562856 0.0561193
0.103466 0.0689163 0.0687127
0.260645 0.0549587 0.0547963
0.317265 0.0197979 0.0197394
0.251449 -0.0229808 -0.0229124
0.0863535 -0.0554569 -0.0552719
-0.0574044 -0.105695 -0.0400249
-0.150066 -0.0853064 -0.0323039
-0.184831 -0.0320055 -0.0121199
-0.148287 0.0336433 0.0127401
-0.0545327 0.0863123 0.0326849
0.0602609 0.105681 0.0400196
0.151805 0.0842778 0.0319144
0.184782 0.0303592 0.0114965
0.146469 -0.0352722 -0.0133569
0.0516465 -0.0872953 -0.0330571
0 -0.268446 0
0 -0.227933 0
0 -0.0855164 0
0 0.0898926 0
0 0.23062 0
0 0.282373 0
0 0.225184 0
0 0.0811176 0
0 -0.0942448 0
0 -0.221713 0
0.0366013 -0.164878 -0.134856
0.0982639 -0.136772 -0.111741
0.121046 -0.0513393 -0.0419428
0.0971135 0.0539673 0.0440896
0.0357133 0.138453 0.113113
-0.0394649 0.169523 0.138496
-0.099417 0.13519 0.110446
-0.121013 0.0486998 0.0397863
-0.0959092 -0.0565255 -0.0461812
-0.03293 -0.136175 -0.11138
0.0590815 0.0023019 -0.217684
0.158617 0.00190477 -0.180371
0.195392 0.000714946 -0.0677038
0.15676 -0.00075154 0.0711692
0.0576483 -0.00192809 0.182586
-0.0637038 -0.00236078 0.223559
-0.160479 -0.00188263 0.178282
-0.19534 -0.000678185 0.0642229
-0.154816 0.000787243 -0.0745453
-0.0531553 0.00190117 -0.179788
0.0587676 0.168593 -0.216527
0.157774 0.139695 -0.179413
0.194354 0.0524356 -0.0673441
0.155927 -0.0551196 0.0707912
0.0573422 -0.14141 0.181616
-0.0633653 -0.173144 0.222371
-0.159626 -0.138077 0.177334
-0.194302 -0.0497396 0.0638816
-0.153993 0.0577342 -0.0741492
-0.0528729 0.139243 -0.178833
0.0357808 0.26984 -0.131833
0.096061 0.223588 -0.109236
0.118333 0.0839255 -0.0410024
0.0949364 -0.0882211 0.0431016
0.034913 -0.226333 0.110577
-0.03858 -0.277123 0.135392
-0.097189 -0.220997 0.107971
-0.118301 -0.0796104 0.0388944
-0.0937592 0.0924062 -0.0451459
-0.0321918 0.222865 -0.108883
-0.00101054 0.266981 0.00372332
-0.00271303 0.221218 0.00308511
-0.00334202 0.0830359 0.00115802
-0.00268125 -0.0872863 -0.0012173
-0.00098603 -0.223935 -0.00312299
0.00108961 -0.274186 -0.0038238
0.00274486 -0.218656 -0.00304938
0.00334113 -0.078767 -0.00109849
0.00264801 0.091427 0.00127504
0.000909182 0.220503 0.00307514
-0.037412 0.161118 0.137843
-0.10044 0.133501 0.114216
-0.123727 0.0501108 0.0428719
-0.0992641 -0.0526758 -0.0450664
-0.0365046 -0.135141 -0.115618
0.0403392 -0.165466 -0.141563
0.10162 -0.131955 -0.112893
0.123694 -0.0475344 -0.0406677
0.0980338 0.0551744 0.047204
0.0336594 0.13307 0.113847
-0.0593796 -0.00690516 0.218782
-0.159417 -0.00572062 0.181281
-0.196377 -0.00214726 0.0680452
-0.157551 0.00225718 -0.0715281
-0.057939 0.00579082 -0.183507
0.0640252 0.00709033 -0.224687
0.161289 0.00565433 -0.179181
0.196325 0.00203687 -0.0645468
0.155597 -0.00236428 0.0749213
0.0534235 -0.00570306 0.180695
-0.0584382 -0.172264 0.215313
-0.156853 -0.142652 0.178368
-0.193219 -0.0535447 0.0669514
-0.155016 0.0562856 -0.0703785
-0.0570075 0.144401 -0.180557
0.0629955 0.176805 -0.221074
0.158695 0.140998 -0.1763
0.193168 0.0507917 -0.063509
0.153095 -0.0589573 0.0737176
0.0525765 -0.142275 0.17783
-0.0349508 -0.271163 0.128775
-0.0913682 -0.218854 0.103934
-0.112535 -0.0821104 0.0389942
-0.090285 0.0863123 -0.0409897
-0.0332024 0.221435 -0.105159
0.03669 0.271127 -0.128758
0.092427 0.216215 -0.102681
0.112505 0.0778868 -0.0369884
0.0891778 -0.0904912 0.0429743
0.0314451 -0.223957 0.106357
0 -0.328687 0
0 -0.279082 0
0 -0.104707 0
0 0.110065 0
0 0.282373 0
0 0.34574 0
0 0.275717 0
0 0.0993209 0
0 -0.115394 0
0 -0.271467 0
-0.00103372 -0.201877 -0.259599
-0.00277523 -0.167465 -0.215102
-0.00341865 -0.06286 -0.0807403
-0.00274272 0.0660776 0.084873
-0.00100865 0.169523 0.217743
0.00111459 0.207565 0.266605
0.00280781 0.165527 0.21261
0.00341774 0.0596283 0.0765887
0.00270874 -0.0692101 -0.0888988
0.00093003 -0.166733 -0.214406
-0.00166862 0.00281846 -0.419042
-0.00447974 0.00233221 -0.347215
-0.00551835 0.000875388 -0.13033
-0.00442729 -0.000920196 0.137001
-0.00162814 -0.00236078 0.351477
0.00179916 -0.00289055 0.430353
0.00453235 -0.00230512 0.343194
0.00551688 -0.000830374 0.123629
0.00437243 0.000963909 -0.1435
0.00150125 0.0023278 -0.346093
-0.00165975 0.206427 -0.416816
-0.00445594 0.171044 -0.345372
-0.00548903 0.0642027 -0.129638
-0.0044038 -0.0674891 0.136274
-0.0016195 -0.173144 0.34961
0.00178961 -0.211999 0.428066
0.00450827 -0.169063 0.34137
0.00548757 -0.0609016 0.122973
0.0043492 0.0706903 -0.142737
0.00149327 0.170491 -0.344254
-0.00101054 0.330394 -0.253779
-0.00271303 0.273762 -0.210279
-0.00334202 0.102759 -0.0789302
-0.00268125 -0.108019 0.0829703
-0.00098603 -0.277123 0.212862
0.00108961 -0.339312 0.260629
0.00274486 -0.270592 0.207843
0.00334113 -0.0974758 0.0748721
0.00264801 0.113143 -0.0869062
0.000909182 0.272877 -0.2096
2.85405e-05 0.326893 0.00716741
7.66227e-05 0.270861 0.00593886
9.43881e-05 0.10167 0.00222919
7.57259e-05 -0.106874 -0.00234331
2.78483e-05 -0.274186 -0.00601178
-3.07733e-05 -0.335716 -0.00736086
-7.75229e-05 -0.267724 -0.00587007
-9.43631e-05 -0.0964427 -0.00211459
-7.47868e-05 0.111944 0.00245446
-2.56777e-05 0.269985 0.00591966
0.00105661 0.197274 0.265349
0.0028367 0.16346 0.219866
0.00349439 0.061356 0.0825282
0.0028035 -0.0644967 -0.0867531
0.00103098 -0.165466 -0.222566
-0.00113928 -0.202599 -0.272511
-0.00287002 -0.161567 -0.21732
-0.00349346 -0.0582013 -0.0782854
-0.00276873 0.0675561 0.0908681
-0.000950631 0.162931 0.219155
0.00167704 -0.00845472 0.421157
0.00450235 -0.00700436 0.348966
0.0055462 -0.00262913 0.130987
0.00444961 0.0027637 -0.137692
0.00163635 0.00709033 -0.35325
-0.00180824 0.00868144 -0.432525
-0.00455521 0.00692318 -0.344926
-0.00554473 0.00249395 -0.124253
-0.00439448 -0.00289483 0.144224
-0.00150882 -0.00698286 0.347839
0.00165045 -0.210921 0.414479
0.00442996 -0.174664 0.343359
0.00545701 -0.0655605 0.128882
0.00437809 0.0689163 -0.135479
0.00161004 0.176805 -0.347572
-0.00177916 0.216482 -0.42557
-0.00448194 0.172639 -0.339379
-0.00545556 0.0621898 -0.122255
-0.00432381 -0.0721877 0.141907
-0.0014849 -0.174203 0.342324
0.000987104 -0.332013 0.247893
0.00258048 -0.267967 0.200073
0.00317829 -0.100537 0.0750641
0.00254989 0.105681 -0.0789054
0.000937723 0.271127 -0.202433
-0.00103622 0.331969 -0.24786
-0.00261039 0.264736 -0.197661
-0.00317744 0.0953651 -0.0712029
-0.00251862 -0.110798 0.0827257
-0.000888092 -0.274214 0.204738
0 -0.262118 0
0 -0.22256 0
0 -0.0835007 0
0 0.0877737 0
0 0.225184 0
0 0.275717 0
0 0.219876 0
0 0.0792055 0
0 -0.0920233 0
0 -0.216487 0
-0.0382699 -0.160991 -0.284186
-0.102744 -0.133548 -0.235474
-0.126564 -0.0501291 -0.088387
-0.101541 0.052695 0.0929113
-0.0373416 0.13519 0.238366
0.0412639 0.165527 0.291857
0.103949 0.132003 0.232747
0.12653 0.0475518 0.083843
0.100282 -0.055193 -0.097319
0.0344312 -0.132965 -0.234713
-0.061775 0.00224764 -0.458731
-0.165848 0.00185987 -0.380102
-0.204299 0.000698093 -0.142673
-0.163905 -0.000733826 0.149978
-0.0602764 -0.00188263 0.384768
0.066608 -0.00230512 0.471113
0.167795 -0.00183827 0.375697
0.204245 -0.000662201 0.135339
0.161874 0.000768689 -0.157091
0.0555786 0.00185636 -0.378873
-0.0614468 0.164619 -0.456294
-0.164966 0.136402 -0.378082
-0.203214 0.0511998 -0.141916
-0.163036 -0.0538206 0.149181
-0.0599564 -0.138077 0.382724
0.066254 -0.169063 0.46861
0.166903 -0.134822 0.373701
0.20316 -0.0485675 0.13462
0.161014 0.0563735 -0.156257
0.0552834 0.135961 -0.37686
-0.037412 0.26348 -0.277816
-0.10044 0.218317 -0.230196
-0.123727 0.0819468 -0.0864061
-0.0992641 -0.0861421 0.0908289
-0.0365046 -0.220997 0.233022
0.0403392 -0.270592 0.285313
0.10162 -0.215789 0.22753
0.123694 -0.0777338 0.0819632
0.0980338 0.0902279 -0.0951373
0.0336594 0.217611 -0.229452
0.00105661 0.260688 0.00784626
0.0028367 0.216004 0.00650134
0.00349439 0.0810788 0.00244033
0.0028035 -0.085229 -0.00256524
0.00103098 -0.218656 -0.00658116
-0.00113928 -0.267724 -0.00805805
-0.00287002 -0.213502 -0.00642606
-0.00349346 -0.0769099 -0.00231487
-0.00276873 0.0892718 0.00268693
-0.000950631 0.215305 0.00648033
0.0391176 0.15732 0.290481
0.105019 0.130354 0.24069
0.129368 0.0489296 0.090345
0.10379 -0.0514343 -0.0949697
0.0381686 -0.131955 -0.243645
-0.0421781 -0.161567 -0.298321
-0.106252 -0.128845 -0.237903
-0.129334 -0.0464139 -0.0857002
-0.102503 0.053874 0.0994743
-0.0351939 0.129933 0.239912
0.0620867 -0.00674239 0.461046
0.166684 -0.00558577 0.382019
0.20533 -0.00209665 0.143393
0.164732 0.00220397 -0.150734
0.0605804 0.00565433 -0.38671
-0.0669441 0.00692318 -0.473489
-0.168641 0.00552102 -0.377593
-0.205276 0.00198885 -0.136021
-0.162691 -0.00230854 0.157884
-0.0558591 -0.00556863 0.380784
0.0611023 -0.168204 0.453736
0.164004 -0.139289 0.375879
0.202028 -0.0522825 0.141088
0.162084 0.0549587 -0.14831
0.0596064 0.140998 -0.380492
-0.0658673 0.172639 -0.465877
-0.165929 0.137674 -0.371522
-0.201974 0.0495944 -0.133834
-0.160075 -0.0575676 0.155347
-0.0549734 -0.138922 0.374747
0.0365442 -0.264771 0.271371
0.0955335 -0.213696 0.219023
0.117665 -0.080175 0.0821737
0.094401 0.0842778 -0.0863788
0.034716 0.216215 -0.221606
-0.0383626 0.264736 -0.271335
-0.0966407 0.211119 -0.216382
-0.117634 0.0760508 -0.0779468
-0.0932434 -0.0883582 0.0905609
-0.0328786 -0.218678 0.224129
0 -0.0944223 0
0 -0.0801722 0
0 -0.0300792 0
0 0.0316185 0
0 0.0811176 0
0 0.0993209 0
0 0.0792055 0
0 0.028532 0
0 -0.0331493 0
0 -0.0779846 0
-0.0607412 -0.0579935 -0.199132
-0.163072 -0.0481083 -0.165
-0.20088 -0.0180581 -0.0619342
-0.161163 0.0189825 0.0651045
-0.0592679 0.0486998 0.167026
0.0654932 0.0596283 0.204508
0.164986 0.0475518 0.163089
0.200827 0.0171297 0.0587499
0.159165 -0.0198823 -0.0681926
0.0546486 -0.0478976 -0.164466
-0.0980481 0.000809662 -0.321438
-0.26323 0.000669983 -0.266342
-0.32426 0.000251475 -0.0999735
-0.260148 -0.000264347 0.105091
-0.0956696 -0.000678185 0.269612
0.105719 -0.000830375 0.330114
0.26632 -0.000662201 0.263256
0.324174 -0.000238546 0.0948336
0.256923 0.000276906 -0.110076
0.0882133 0.00066871 -0.26548
-0.0975272 0.0593004 -0.319731
-0.261832 0.0491364 -0.264926
-0.322537 0.0184438 -0.0994422
-0.258767 -0.0193878 0.104532
-0.0951615 -0.0497396 0.26818
0.105157 -0.0609016 0.32836
0.264905 -0.0485675 0.261858
0.322452 -0.0174955 0.0943296
0.255558 0.0203075 -0.109491
0.0877447 0.048977 -0.26407
-0.0593796 0.0949126 -0.194669
-0.159417 0.0786449 -0.161302
-0.196377 0.02952 -0.0605456
-0.157551 -0.0310311 0.0636449
-0.057939 -0.0796105 0.163282
0.0640252 -0.0974759 0.199923
0.161289 -0.0777338 0.159433
0.196325 -0.0280023 0.0574329
0.155597 0.032503 -0.0666639
0.0534235 0.0783896 -0.16078
0.00167704 0.0939068 0.00549796
0.00450235 0.0778114 0.00455558
0.0055462 0.0292071 0.00170997
0.00444961 -0.0307022 -0.0017975
0.00163635 -0.078767 -0.00461151
-0.00180824 -0.0964427 -0.00564636
-0.00455521 -0.0769099 -0.00450281
-0.00554473 -0.0277054 -0.00162206
-0.00439448 0.0321586 0.00188277
-0.00150882 0.0775589 0.00454084
0.0620867 0.0566711 0.203543
0.166684 0.0469577 0.168655
0.20533 0.017626 0.0633059
0.164732 -0.0185282 -0.0665464
0.0605804 -0.0475344 -0.170726
-0.0669441 -0.0582014 -0.209037
-0.168641 -0.0464139 -0.166701
-0.205276 -0.0167198 -0.0600512
-0.162691 0.0194071 0.0697032
-0.0558591 0.0468054 0.168109
0.0985428 -0.00242879 0.32306
0.264557 -0.00201217 0.267685
0.325895 -0.000755282 0.100478
0.26146 0.000793942 -0.105621
0.0961522 0.00203687 -0.270973
-0.106252 0.00249395 -0.331779
-0.267663 0.00198885 -0.264584
-0.325808 0.000716449 -0.095312
-0.258219 -0.000831611 0.110631
-0.0886585 -0.00200597 0.26682
0.0969804 -0.0605916 0.317938
0.260304 -0.0501765 0.263383
0.320654 -0.0188339 0.0988623
0.257256 0.0197979 -0.103923
0.0946059 0.0507918 -0.266616
-0.104543 0.0621899 -0.326446
-0.263358 0.0495944 -0.260331
-0.320569 0.0178655 -0.0937793
-0.254066 -0.0207377 0.108854
-0.0872528 -0.0500434 0.262589
0.0580023 -0.0953778 0.190153
0.151629 -0.076979 0.153472
0.186756 -0.0288812 0.05758
0.149831 0.0303592 -0.0605266
0.0551006 0.0778868 -0.155282
-0.0608885 0.0953651 -0.190128
-0.153386 0.0760508 -0.151621
-0.186707 0.0273956 -0.0546182
-0.147994 -0.031829 0.063457
-0.0521843 -0.0787738 0.15705
0 0.109703 0
0 0.0931464 0
0 0.034947 0
0 -0.0367353 0
0 -0.0942448 0
0 -0.115394 0
0 -0.0920233 0
0 -0.0331493 0
0 0.0385139 0
0 0.0906048 0
-0.0597782 0.0673786 -0.0372521
-0.16045 0.0558392 -0.0309102
-0.197649 0.0209595 -0.0116028
-0.158571 -0.0220323 0.0121968
-0.0583147 -0.0565242 0.031291
0.0644402 -0.0692086 0.0383128
0.162334 -0.0551917 0.0305534
0.197596 -0.0198818 0.0110063
0.156605 0.0230779 -0.0127744
0.0537821 0.0556488 -0.030767
-0.0964935 -0.00094069 -0.0601321
-0.258998 -0.000777722 -0.0498951
-0.319045 -0.000291908 -0.0187292
-0.255965 0.00030685 0.019688
-0.094131 0.000787225 0.0505098
0.104018 0.000963885 0.0618444
0.262037 0.000768671 0.0493189
0.31896 0.0002769 0.0177663
0.252792 -0.000321442 -0.0206203
0.0868147 -0.000776928 -0.0496639
-0.0959809 -0.068897 -0.0598126
-0.257622 -0.0570343 -0.04963
-0.31735 -0.0214077 -0.0186297
-0.254605 0.0225035 0.0195834
-0.0936308 0.0577329 0.0502414
0.103466 0.0706887 0.0615159
0.260645 0.0563722 0.0490571
0.317265 0.0203071 0.017672
0.251449 -0.0235721 -0.0205107
0.0863535 -0.0569029 -0.0494001
-0.0584382 -0.110272 -0.036417
-0.156853 -0.0912856 -0.0302173
-0.193219 -0.0342639 -0.0113428
-0.155016 0.0360177 0.0119234
-0.0570075 0.092404 0.0305896
0.0629955 0.11314 0.0374541
0.158695 0.0902258 0.0298685
0.193168 0.0325023 0.0107596
0.153095 -0.0377282 -0.012488
0.0525765 -0.0910754 -0.0300773
0.00165045 -0.109104 0.00102851
0.00442996 -0.0903182 0.000853418
0.00545701 -0.0339008 0.000320349
0.0043781 0.035636 -0.000336748
0.00161004 0.0914249 -0.000863929
-0.00177916 0.111941 -0.0010578
-0.00448194 0.0892697 -0.000843568
-0.00545556 0.0321578 -0.00030388
-0.00432381 -0.0373284 0.000352694
-0.0014849 -0.0901102 0.000849465
0.0611023 -0.0658422 0.0380773
0.164004 -0.0545054 0.0315949
0.202028 -0.0204585 0.0118599
0.162084 0.0215058 -0.0124669
0.0596064 0.0551731 -0.0319841
-0.0658673 0.0675545 -0.0391616
-0.165929 0.0538728 -0.0312302
-0.201974 0.0194066 -0.0112501
-0.160075 -0.022527 0.0130573
-0.0549734 -0.0543799 0.0314485
0.0969804 0.00282185 0.0604355
0.260304 0.00233562 0.0501468
0.320654 0.000876666 0.0188237
0.257256 -0.00092154 -0.0197873
0.0946059 -0.00236422 -0.0507645
-0.104543 -0.00289477 -0.0621564
-0.263358 -0.00230849 -0.0495677
-0.320569 -0.000831592 -0.0178559
-0.254066 0.000965311 0.0207243
-0.0872528 0.0023306 0.0499145
0.0954428 0.0703971 0.0594773
0.256119 0.0582433 0.04934
0.315498 0.0218612 0.0185207
0.253119 -0.0229803 -0.0194688
0.0930846 -0.058956 -0.0499474
-0.102862 -0.0721861 -0.061156
-0.259125 -0.0575663 -0.04877
-0.315414 -0.0207372 -0.0175686
-0.249982 0.0240722 0.020391
-0.0858694 0.0581419 0.0491231
0.0570826 0.110813 0.0355723
0.149225 0.0894366 0.0287103
0.183795 0.0335551 0.0107716
0.147456 -0.0352722 -0.0113228
0.054227 -0.0904912 -0.0290488
-0.0599231 -0.110798 -0.0355676
-0.150954 -0.0883582 -0.0283641
-0.183746 -0.031829 -0.0102175
-0.145648 0.0369799 0.011871
-0.0513569 0.0915218 0.0293797
0 0.271503 0
0 0.219129 0
0 0.0822136 0
0 -0.0864207 0
0 -0.221713 0
0 -0.271467 0
0 -0.216487 0
0 -0.0779846 0
0 0.0906049 0
0 0.224238 0
-0.0357523 0.166755 0.139001
-0.0934632 0.134588 0.112187
-0.115115 0.050495 0.0420906
-0.0923552 -0.053079 -0.0442445
-0.0339637 -0.136175 -0.11351
0.0375313 -0.166733 -0.138982
0.0945464 -0.132965 -0.110834
0.115085 -0.0478976 -0.0399255
0.0912227 0.0556488 0.0463867
0.0321661 0.137726 0.114803
-0.057711 -0.00232812 0.224374
-0.150868 -0.00187901 0.181091
-0.185818 -0.000704974 0.0679423
-0.149079 0.000741049 -0.0714192
-0.0548239 0.00190117 -0.183227
0.0605827 0.00232781 -0.224344
0.152616 0.00185636 -0.178908
0.185769 0.000668711 -0.0644475
0.147251 -0.000776928 0.074877
0.0519223 -0.00192282 0.185313
-0.0574044 -0.170513 0.223182
-0.150066 -0.137621 0.180129
-0.184831 -0.0516329 0.0675814
-0.148287 0.0542752 -0.0710398
-0.0545327 0.139243 -0.182253
0.0602609 0.170491 -0.223152
0.151805 0.135961 -0.177957
0.184782 0.048977 -0.0641051
0.146469 -0.056903 0.0744793
0.0516465 -0.140829 0.184329
-0.0349508 -0.272913 0.135885
-0.0913681 -0.220267 0.109672
-0.112535 -0.0826405 0.0411471
-0.0902849 0.0868695 -0.0432527
-0.0332023 0.222865 -0.110965
0.0366899 0.272877 -0.135867
0.092427 0.217611 -0.10835
0.112505 0.0783896 -0.0390305
0.0891778 -0.0910754 0.0453468
0.0314451 -0.225403 0.112229
0.000987104 -0.270021 -0.00383775
0.00258048 -0.217933 -0.00309743
0.00317829 -0.0817648 -0.0011621
0.00254989 0.085949 0.00122157
0.000937723 0.220503 0.00313396
-0.00103622 0.269985 0.00383724
-0.00261038 0.215305 0.00306008
-0.00317744 0.0775589 0.00110233
-0.00251862 -0.0901103 -0.00128072
-0.000888092 -0.223014 -0.00316965
0.0365442 -0.162953 -0.14208
0.0955335 -0.131519 -0.114672
0.117665 -0.0493436 -0.0430229
0.0944009 0.0518687 0.0452246
0.034716 0.13307 0.116024
-0.0383626 0.162931 0.142061
-0.0966406 0.129933 0.113289
-0.117634 0.0468054 0.0408099
-0.0932433 -0.05438 -0.0474142
-0.0328786 -0.134585 -0.117345
0.0580023 0.0069838 -0.225506
0.151629 0.00563659 -0.182005
0.186756 0.00211475 -0.0682852
0.149831 -0.00222297 0.0717796
0.0551006 -0.00570306 0.184151
-0.0608884 -0.00698287 0.225476
-0.153386 -0.00556863 0.17981
-0.186706 -0.00200597 0.0647727
-0.147994 0.0023306 -0.0752549
-0.0521843 0.00576801 -0.186249
0.0570826 0.174226 -0.221931
0.149225 0.140617 -0.179119
0.183795 0.0527572 -0.0672025
0.147456 -0.0554569 0.0706415
0.054227 -0.142275 0.181232
-0.059923 -0.174203 0.221901
-0.150954 -0.138922 0.17696
-0.183746 -0.0500434 0.0637457
-0.145648 0.0581419 -0.0740617
-0.0513569 0.143896 -0.183296
0.0341401 0.274251 -0.132733
0.0892488 0.221347 -0.107128
0.109925 0.0830456 -0.0401926
0.0881907 -0.0872953 0.0422494
0.0324322 -0.223957 0.108391
-0.0358389 -0.274214 0.132715
-0.0902831 -0.218678 0.105836
-0.109895 -0.0787738 0.0381252
-0.0871092 0.0915218 -0.044295
-0.0307157 0.226508 -0.109626
