# vtk DataFile Version 3.0
Velocity field
ASCII
DATASET STRUCTURED_POINTS
DIMENSIONS 8 8 8
SPACING 0.8 0.8 0.8
ORIGIN 0 0 0
POINT_DATA 512
VECTORS velocity float
0 0.196506 0
0 0.136907 0
0 -0.00573788 0
0 -0.144902 0
0 -0.196171 0
0 -0.128445 0
0 0.0171941 0
0 0.152403 0
0 0.077308 0.200564
0 0.053861 0.148151
0 -0.00225736 -0.00620913
0 -0.0570065 -0.156803
0 -0.0771762 -0.212282
0 -0.0505319 -0.138994
0 0.00676439 0.0186063
0 0.0599575 0.15555
0 -0.0887838 0.279468
0 -0.0618563 0.206436
0 0.00259245 -0.00865189
0 0.0654686 -0.218491
0 0.0886324 -0.295797
0 0.058033 -0.193676
0 -0.00776851 0.0259262
0 -0.0688577 0.216746
0 -0.201021 0.188851
0 -0.140052 0.139499
0 0.00586971 -0.00584653
0 0.148231 -0.147646
0 0.200678 -0.199885
0 0.131396 -0.130877
0 -0.0175891 0.0175197
0 -0.155905 0.146466
0 -0.191321 -0.0163207
0 -0.133295 -0.0120557
0 0.00558648 0.000505262
0 0.141079 0.0127597
0 0.190995 0.0172743
0 0.125056 0.0113105
0 -0.0167404 -0.00151407
0 -0.148382 -0.0126578
0 -0.0655686 -0.211592
0 -0.0456821 -0.156298
0 0.00191457 0.00655057
0 0.0483499 0.165425
0 0.0654568 0.223955
0 0.0428585 0.146637
0 -0.0057372 -0.0196294
0 -0.0508528 -0.164104
0 0.0999568 -0.278515
0 0.0696406 -0.205732
0 -0.00291869 0.00862238
0 -0.0737075 0.217746
0 -0.0997863 0.294788
0 -0.0653361 0.193016
0 0.00874614 -0.0258378
0 0.0775231 -0.216007
0 0.20485 -0.176494
0 0.14272 -0.122965
0 -0.00598152 0.00515355
0 -0.151055 0.130146
0 -0.2045 0.176193
0 -0.133899 0.115364
0 0.0179242 -0.0154431
0 0.158874 -0.136883
0 0.136907 0
0 0.103559 0
0 -0.00434023 0
0 -0.109607 0
0 -0.148387 0
0 -0.0971579 0
0 0.0130059 0
0 0.10618 0
0.0427536 0.053861 0.198102
0.104051 0.0382071 0.140388
0.101516 -0.00160154 -0.00588467
0.037399 -0.0404442 -0.148607
-0.049404 -0.0547541 -0.201186
-0.106239 -0.0358507 -0.131729
-0.0986279 0.00479493 0.017619
-0.0306766 0.0417728 0.153641
0.0595735 -0.0618563 0.276038
0.144987 -0.0438117 0.195618
0.141454 0.00183645 -0.00819975
0.052112 0.0463762 -0.20707
-0.0688408 0.0627847 -0.280337
-0.148036 0.0411089 -0.183553
-0.137431 -0.0054986 0.0245506
-0.0427452 -0.0479736 0.214086
0.0402569 -0.140052 0.186533
0.0979743 -0.0991968 0.132189
0.0955884 0.00415804 -0.005541
0.0352148 0.105004 -0.139929
-0.0465191 0.142156 -0.189438
-0.100035 0.093078 -0.124036
-0.0928688 -0.0124498 0.0165901
-0.0288851 -0.10862 0.144669
-0.00347904 -0.133295 -0.0161204
-0.00846712 -0.0944105 -0.011424
-0.00826083 0.0039574 0.000478858
-0.00304329 0.099937 0.0120928
0.00402022 0.135297 0.0163713
0.00864519 0.0885872 0.0107193
0.00802578 -0.0118491 -0.00143374
0.00249628 -0.103379 -0.0125024
-0.0451046 -0.0456821 -0.208996
-0.109773 -0.0323561 -0.148108
-0.107098 0.00135627 0.00620824
-0.0394554 0.0342502 0.156778
0.0521206 0.0463682 0.212248
0.112082 0.03036 0.138973
0.104051 -0.00406087 -0.0185879
0.0323635 -0.0354295 -0.16209
-0.0593703 0.0696406 -0.275097
-0.144484 0.0493161 -0.19494
-0.140963 -0.00206718 0.00817131
-0.0519313 -0.0522031 0.206351
0.0686019 -0.0706731 0.279363
0.147522 -0.0462739 0.182916
0.136954 0.00618952 -0.0244656
0.0425994 0.0540108 -0.213356
-0.0376228 0.14272 -0.174328
-0.0900469 0.0994341 -0.121456
-0.0878498 -0.00416736 0.0050903
-0.0323641 -0.105241 0.128548
0.0427532 -0.142477 0.174031
0.091937 -0.0932881 0.113948
0.085353 0.0124879 -0.0152536
0.0269951 0.110689 -0.135203
0 -0.00573788 0
0 -0.00434023 0
0 0.000181903 0
0 0.0045937 0
0 0.00621902 0
0 0.00407197 0
0 -0.000545088 0
0 -0.0044501 0
0.0595735 -0.00225736 0.0754747
0.144987 -0.00160154 0.0534651
0.141454 6.71329e-05 -0.00224109
0.052112 0.00169532 -0.0565952
-0.0688408 0.00229515 -0.0766189
-0.148036 0.00150278 -0.050167
-0.137431 -0.000200988 0.00671009
-0.0427452 -0.00175073 0.0585356
0.0830105 0.00259245 0.105167
0.202026 0.00183645 0.074499
0.197103 -7.6978e-05 -0.00312276
0.0726139 -0.00194395 -0.07886
-0.0959237 -0.00263174 -0.106762
-0.206273 -0.00172317 -0.069904
-0.191498 0.000230483 0.00934996
-0.0595617 0.00201061 0.0815643
0.0560945 0.00586971 0.0710671
0.13652 0.00415804 0.0503425
0.133194 -0.000174293 -0.00211023
0.0490686 -0.00440145 -0.0532897
-0.0648203 -0.00595877 -0.0721445
-0.139391 -0.00390153 -0.0472376
-0.129404 0.000521852 0.00631822
-0.0402489 0.00455234 0.0551172
-0.00484774 0.00558648 -0.00614168
-0.0117982 0.0039574 -0.00435069
-0.0115107 -0.000165882 0.000182367
-0.0042406 -0.00418909 0.00460536
0.00560185 -0.00567125 0.00623478
0.0120463 -0.0037133 0.00408231
0.0111833 0.00049667 -0.00054603
0.00347835 0.00433268 -0.00476328
-0.0628494 0.00191457 -0.079625
-0.152959 0.00135627 -0.0564051
-0.149233 -5.68508e-05 0.00236433
-0.0549779 -0.00143567 0.0597066
0.072626 -0.00194361 0.0808323
0.156176 -0.0012726 0.0529256
0.144987 0.000170217 -0.0070791
0.0450957 0.00148488 -0.0617544
-0.0827274 -0.00291869 -0.104809
-0.201325 -0.00206718 -0.0742405
-0.19642 8.66499e-05 0.00311193
-0.072362 0.0021882 0.0785865
0.0955905 0.00296241 0.106392
0.205558 0.00193966 0.0696613
0.190833 -0.000259443 -0.00931755
0.0593586 -0.00226364 -0.0812861
-0.0524241 -0.00598152 -0.066417
-0.125473 -0.00416736 -0.0462732
-0.122411 0.000174658 0.00193935
-0.0450966 0.00441073 0.0489755
0.0595728 0.00597132 0.0663038
0.128106 0.00390978 0.0434131
0.118932 -0.000523378 -0.00581144
0.0376154 -0.00463906 -0.0515108
0 -0.144902 0
0 -0.109607 0
0 0.0045937 0
0 0.116007 0
0 0.157053 0
0 0.102832 0
0 -0.0137654 0
0 -0.112381 0
0.0402569 -0.0570065 -0.0929348
0.0979743 -0.0404442 -0.0658332
0.0955884 0.00169532 0.00275953
0.0352148 0.0428123 0.0696874
-0.0465191 0.0579602 0.0943436
-0.100035 0.0379498 0.0617721
-0.0928688 -0.00507562 -0.00826236
-0.0288851 -0.0442122 -0.072077
0.0560945 0.0654686 -0.129497
0.13652 0.0463762 -0.0917328
0.133194 -0.00194395 0.00384514
0.0490686 -0.0490909 0.0971033
-0.0648203 -0.0664605 0.131459
-0.139391 -0.0435156 0.0860742
-0.129404 0.00582043 -0.0115129
-0.0402489 0.0507752 -0.100433
0.0379059 0.148231 -0.0875075
0.0922533 0.105004 -0.0619884
0.0900061 -0.00440145 0.00259836
0.0331585 -0.111151 0.0656174
-0.0438025 -0.150478 0.088834
-0.0941936 -0.0985265 0.0581651
-0.0874453 0.0131784 -0.00777981
-0.0271982 0.114963 -0.0678678
-0.00327587 0.141079 0.00756248
-0.0079726 0.099937 0.00535711
-0.00777835 -0.00418909 -0.000224555
-0.0028656 -0.105787 -0.00567074
0.00378543 -0.143217 -0.00767707
0.00814027 -0.0937731 -0.00502666
0.00755706 0.0125426 0.00067234
0.0023505 0.109416 0.0058652
-0.0424705 0.0483499 0.0980451
-0.103362 0.0342502 0.0694534
-0.100844 -0.00143567 -0.00291127
-0.0371514 -0.0362551 -0.073519
0.0490768 -0.0490824 -0.0995306
0.105536 -0.0321374 -0.065169
0.0979747 0.00429855 0.00871671
0.0304735 0.0374985 0.0760405
-0.0559031 -0.0737075 0.129055
-0.136046 -0.0522031 0.0914147
-0.132732 0.0021882 -0.0038318
-0.0488984 0.0552589 -0.0967662
0.0645954 0.0748105 -0.131004
0.138907 0.0489826 -0.0857757
0.128955 -0.00655179 0.011473
0.0401116 -0.057165 0.100091
-0.0354257 -0.151055 0.0817817
-0.0847883 -0.105241 0.0569779
-0.0827194 0.00441073 -0.00238799
-0.0304741 0.111387 -0.0603053
0.0402564 0.150797 -0.0816423
0.0865679 0.0987361 -0.0534561
0.0803685 -0.0132172 0.00715584
0.0254186 -0.117153 0.0634271
0 -0.196171 0
0 -0.148387 0
0 0.00621902 0
0 0.157053 0
0 0.21262 0
0 0.139215 0
0 -0.0186359 0
0 -0.152143 0
-0.00347904 -0.0771762 -0.204971
-0.00846712 -0.0547541 -0.145197
-0.00826083 0.00229515 0.00608623
-0.00304329 0.0579602 0.153697
0.00402022 0.078467 0.208077
0.00864519 0.0513769 0.136242
0.00802578 -0.00687147 -0.0182229
0.00249628 -0.0598552 -0.158969
-0.00484774 0.0886324 -0.28561
-0.0117982 0.0627847 -0.202319
-0.0115107 -0.00263175 0.00848066
-0.0042406 -0.0664605 0.214164
0.00560185 -0.0899753 0.289938
0.0120463 -0.0589124 0.189841
0.0111833 0.00787977 -0.025392
0.00347835 0.0687402 -0.221509
-0.00327587 0.200678 -0.193001
-0.0079726 0.142156 -0.136718
-0.00777835 -0.00595877 0.00573084
-0.0028656 -0.150478 0.144721
0.00378543 -0.203719 0.195925
0.00814027 -0.133388 0.128284
0.00755706 0.0178412 -0.0171588
0.0023505 0.155639 -0.149685
0.000283104 0.190995 0.0166793
0.000689003 0.135297 0.0118153
0.000672215 -0.00567125 -0.00049526
0.000247645 -0.143217 -0.0125069
-0.000327141 -0.193891 -0.0169322
-0.000703493 -0.126951 -0.0110865
-0.00065309 0.0169804 0.00148288
-0.000203132 0.148129 0.0129359
0.00367035 0.0654568 0.216242
0.00893267 0.0463682 0.153181
0.00871511 -0.00194361 -0.00642088
0.00321064 -0.0490824 -0.162148
-0.0042413 -0.0664492 -0.21952
-0.00912053 -0.0435081 -0.143733
-0.00846715 0.00581943 0.0192249
-0.00263355 0.050766 0.16771
0.00483121 -0.0997863 0.284636
0.0117573 -0.0706731 0.201618
0.0114708 0.00296241 -0.00845127
0.00422589 0.0748105 -0.213421
-0.00558242 0.101279 -0.288933
-0.0120045 0.0663138 -0.189182
-0.0111445 -0.00886989 0.025304
-0.00346649 -0.0773909 0.220754
0.00306152 -0.2045 0.180373
0.00732749 -0.142477 0.125667
0.0071487 0.00597132 -0.0052668
0.0026336 0.150797 -0.133006
-0.003479 0.204152 -0.180065
-0.00748128 0.13367 -0.1179
-0.00694552 -0.0178936 0.0157825
-0.0021967 -0.158604 0.139891
0 -0.128445 0
0 -0.0971579 0
0 0.00407197 0
0 0.102832 0
0 0.139215 0
0 0.0911526 0
0 -0.012202 0
0 -0.0996174 0
-0.0451046 -0.0505319 -0.192675
-0.109773 -0.0358507 -0.136487
-0.107098 0.00150278 0.00572115
-0.0394554 0.0379498 0.144477
0.0521206 0.0513769 0.195594
0.112082 0.0336398 0.128068
0.104051 -0.00449916 -0.0171298
0.0323635 -0.0391908 -0.149432
-0.0628494 0.058033 -0.268476
-0.152959 0.0411089 -0.190183
-0.149233 -0.00172317 0.00797187
-0.0549779 -0.0435156 0.201315
0.072626 -0.0589124 0.272546
0.156176 -0.0385732 0.178452
0.144987 0.00515936 -0.0238688
0.0450957 0.0450084 -0.208221
-0.0424705 0.131396 -0.181423
-0.103362 0.093078 -0.128516
-0.100844 -0.00390153 0.00538701
-0.0371514 -0.0985265 0.13604
0.0490768 -0.133388 0.184173
0.105536 -0.0873368 0.120588
0.0979747 0.0116817 -0.0161294
0.0304735 0.101906 -0.140705
0.00367035 0.125056 0.0156787
0.00893267 0.0885872 0.0111065
0.00871511 -0.0037133 -0.00046555
0.00321064 -0.0937731 -0.0117567
-0.0042413 -0.126951 -0.0159163
-0.00912053 -0.0831223 -0.0104214
-0.00846715 0.0111181 0.00139392
-0.00263355 0.0969889 0.0121599
0.0475848 0.0428585 0.20327
0.11581 0.03036 0.143992
0.112988 -0.0012726 -0.00603575
0.0416249 -0.0321374 -0.152421
-0.054987 -0.0435081 -0.206349
-0.118245 -0.0284875 -0.135111
-0.109774 0.00381032 0.0180716
-0.0341431 0.0332396 0.157649
0.062635 -0.0653361 0.26756
0.152428 -0.0462739 0.189523
0.148715 0.00193966 -0.00794422
0.0547872 0.0489826 -0.200617
-0.072374 0.0663138 -0.2716
-0.155634 0.0434197 -0.177833
-0.144484 -0.00580766 0.0237861
-0.0449419 -0.0506724 0.207511
0.0396916 -0.133899 0.169552
0.0949985 -0.0932881 0.118128
0.0926805 0.00390978 -0.00495084
0.0341438 0.0987361 -0.125027
-0.0451041 0.13367 -0.169263
-0.0969924 0.087522 -0.110827
-0.0900465 -0.011716 0.0148357
-0.0284795 -0.103847 0.131499
0 0.0171941 0
0 0.0130059 0
0 -0.000545088 0
0 -0.0137654 0
0 -0.0186359 0
0 -0.012202 0
0 0.00163341 0
0 0.0133351 0
-0.0593703 0.00676439 -0.0635045
-0.144484 0.00479486 -0.0449922
-0.140963 -0.000200986 0.00188593
-0.0519313 -0.00507555 0.0476262
0.0686019 -0.00687138 0.0644767
0.147522 -0.0044991 0.0422168
0.136954 0.000601775 -0.00564666
0.0425994 0.00524623 -0.0492519
-0.0827274 -0.00776851 -0.0884881
-0.201325 -0.00549853 -0.0626926
-0.19642 0.00023048 0.00262788
-0.072362 0.00582036 0.0663628
0.0955905 0.00787966 0.089843
0.205558 0.00515929 0.0588258
0.190833 -0.000690124 -0.00786812
0.0593586 -0.00602499 -0.0686283
-0.0559031 -0.0175891 -0.0597959
-0.136046 -0.0124496 -0.0423645
-0.132732 0.000521845 0.0017758
-0.0488984 0.0131783 0.0448448
0.0645954 0.0178409 0.0607113
0.138907 0.0116816 0.0397515
0.128955 -0.00156256 -0.00531688
0.0401116 -0.0136415 -0.0463757
0.00483121 -0.0167404 0.00516762
0.0117573 -0.0118489 0.00366119
0.0114708 0.000496664 -0.000153466
0.0042259 0.0125424 -0.00387553
-0.00558242 0.0169801 -0.00524673
-0.0120045 0.0111179 -0.00343536
-0.0111445 -0.00148717 0.000459492
-0.00346649 -0.0129833 0.00400783
0.062635 -0.0057372 0.0669965
0.152428 -0.00406081 0.0474662
0.148715 0.000170215 -0.00198964
0.0547872 0.00429849 -0.0502448
-0.072374 0.00581936 -0.0680224
-0.155634 0.00381027 -0.0445384
-0.144484 -0.000509675 0.00595717
-0.0449419 -0.00444957 0.0519602
0.0824453 0.00874614 0.0881863
0.200627 0.00618943 0.0624752
0.195738 -0.000259439 -0.00261877
0.072111 -0.0065517 -0.0661326
-0.0952585 -0.00886977 -0.0895314
-0.204845 -0.00580758 -0.0586215
-0.19017 0.000776851 0.00784087
-0.0591561 0.0067832 0.0683943
0.0522453 0.0179242 0.0558834
0.125045 0.0124879 0.0389343
0.121994 -0.000523378 -0.00163177
0.0449428 -0.0132172 -0.0412081
-0.0593697 -0.0178936 -0.0557881
-0.127669 -0.011716 -0.0365278
-0.118526 0.00156835 0.00488975
-0.0374871 0.0139014 0.0433412
0 0.152403 0
0 0.10618 0
0 -0.0044501 0
0 -0.112381 0
0 -0.152143 0
0 -0.0996174 0
0 0.0133352 0
0 0.118199 0
-0.0376228 0.0599575 0.104187
-0.0900469 0.0417728 0.0725876
-0.0878498 -0.00175073 -0.00304221
-0.0323641 -0.0442122 -0.0768267
0.0427531 -0.0598552 -0.104009
0.0919369 -0.0391908 -0.068101
0.085353 0.00524623 0.00911626
0.0269951 0.0465009 0.0808037
-0.0524241 -0.0688577 0.145175
-0.125473 -0.0479736 0.101145
-0.122411 0.00201061 -0.00423905
-0.0450966 0.0507752 -0.107051
0.0595728 0.0687402 -0.144928
0.128106 0.0450084 -0.0948929
0.118932 -0.00602499 0.0127027
0.0376154 -0.0534036 0.112593
-0.0354257 -0.155905 0.0981023
-0.0847882 -0.10862 0.0683486
-0.0827194 0.00455235 -0.00286454
-0.0304741 0.114963 -0.0723401
0.0402564 0.155639 -0.0979351
0.0865679 0.101906 -0.064124
0.0803685 -0.0136415 0.00858387
0.0254186 -0.120914 0.0760848
0.00306152 -0.148382 -0.0084781
0.00732748 -0.103379 -0.00590675
0.00714869 0.00433269 0.000247557
0.0026336 0.109416 0.0062517
-0.003479 0.148129 0.00846364
-0.00748128 0.0969889 0.00554166
-0.00694552 -0.0129833 -0.000741827
-0.0021967 -0.11508 -0.00657533
0.0396916 -0.0508528 -0.109916
0.0949985 -0.0354295 -0.0765791
0.0926805 0.00148488 0.00320949
0.0341438 0.0374985 0.0810513
-0.0451041 0.050766 0.109728
-0.0969924 0.0332396 0.0718458
-0.0900465 -0.00444957 -0.00961755
-0.0284795 -0.0394397 -0.085247
0.0522453 0.0775231 -0.14468
0.125045 0.0540108 -0.1008
0.121994 -0.00226364 0.00422459
0.0449428 -0.057165 0.106686
-0.0593696 -0.0773909 0.144433
-0.127669 -0.0506725 0.0945692
-0.118526 0.0067832 -0.0126594
-0.0374871 0.0601242 -0.112209
0.0331077 0.158874 -0.0916834
0.0792405 0.110689 -0.0638764
0.077307 -0.00463906 0.00267711
0.0284801 -0.117153 0.0676068
-0.0376224 -0.158604 0.091527
-0.0809037 -0.103847 0.0599283
-0.0751099 0.0139014 -0.00802222
-0.0237555 0.123218 -0.0711065
