# vtk DataFile Version 3.0
Velocity field
ASCII
DATASET STRUCTURED_POINTS
DIMENSIONS 8 8 8
SPACING 0.8 0.8 0.8
ORIGIN 0 0 0
POINT_DATA 512
VECTORS velocity float
0 0.000898034 0
0 0.000625666 0
0 -2.62222e-05 0
0 -0.000662204 0
0 -0.000896502 0
0 -0.000586994 0
0 7.85772e-05 0
0 0.000696484 0
0 0.000353298 0.000916578
0 0.000246145 0.000677052
0 -1.03162e-05 -2.83758e-05
0 -0.00026052 -0.000716591
0 -0.000352696 -0.000970132
0 -0.000230931 -0.000635204
0 3.09133e-05 8.50307e-05
0 0.000274006 0.000710866
0 -0.000405743 0.00127717
0 -0.000282684 0.000943413
0 1.18475e-05 -3.95392e-05
0 0.000299192 -0.000998508
0 0.000405051 -0.00135179
0 0.000265211 -0.000885101
0 -3.55022e-05 0.000118483
0 -0.00031468 0.00099053
0 -0.000918666 0.00086305
0 -0.000640041 0.000637513
0 2.68246e-05 -2.67187e-05
0 0.000677419 -0.000674743
0 0.000917099 -0.000913477
0 0.00060048 -0.000598108
0 -8.03825e-05 8.0065e-05
0 -0.000712486 0.000669352
0 -0.000874339 -7.45857e-05
0 -0.000609158 -5.50945e-05
0 2.55303e-05 2.30906e-06
0 0.000644732 5.83119e-05
0 0.000872848 7.89436e-05
0 0.000571506 5.16891e-05
0 -7.65039e-05 -6.9193e-06
0 -0.000678107 -5.78461e-05
0 -0.000299649 -0.000966979
0 -0.000208768 -0.000714282
0 8.74962e-06 2.99361e-05
0 0.000220959 0.000755996
0 0.000299138 0.00102348
0 0.000195864 0.000670133
0 -2.62191e-05 -8.97065e-05
0 -0.000232398 -0.000749956
0 0.000456804 -0.00127282
0 0.000318258 -0.000940196
0 -1.33385e-05 3.94044e-05
0 -0.000336844 0.000995103
0 -0.000456025 0.00134719
0 -0.000298587 0.000882083
0 3.99699e-05 -0.000118079
0 0.000354281 -0.000987152
0 0.000936165 -0.00080658
0 0.000652233 -0.00056195
0 -2.73356e-05 2.35518e-05
0 -0.000690322 0.000594767
0 -0.000934569 0.000805204
0 -0.000611918 0.000527216
0 8.19137e-05 -7.05751e-05
0 0.000726058 -0.000625556
0 0.000625666 0
0 0.000473265 0
0 -1.98349e-05 0
0 -0.000500903 0
0 -0.00067813 0
0 -0.000444013 0
0 5.94372e-05 0
0 0.000485245 0
0.000195385 0.000246145 0.000905329
0.000467673 0.000171506 0.000630801
0.000456262 -7.18797e-06 -2.64374e-05
0.000168088 -0.000181522 -0.000667639
-0.000222046 -0.000245747 -0.00090386
-0.00047749 -0.000160906 -0.000591811
-0.000443295 2.15394e-05 7.92221e-05
-0.000140192 0.000190902 0.000702142
0.000272251 -0.000282684 0.0012615
0.000651662 -0.000196963 0.000878966
0.000635762 8.2549e-06 -3.68382e-05
0.000234217 0.000208466 -0.000930297
-0.000309401 0.000282224 -0.00125945
-0.000665341 0.000184789 -0.000824638
-0.000617693 -2.47366e-05 0.000110389
-0.000195346 -0.00021924 0.000978374
0.000183974 -0.000640041 0.000852459
0.000440362 -0.000445956 0.000593962
0.000429617 1.86904e-05 -2.48935e-05
0.000158272 0.000472 -0.000628649
-0.000209078 0.000639001 -0.000851075
-0.000449605 0.000418392 -0.00055725
-0.000417407 -5.60075e-05 7.45956e-05
-0.000132005 -0.000496394 0.000661138
-1.58992e-05 -0.000609158 -7.36703e-05
-3.80565e-05 -0.000424438 -5.13308e-05
-3.71279e-05 1.77885e-05 2.15132e-06
-1.3678e-05 0.000449225 5.43285e-05
1.80687e-05 0.000608168 7.35507e-05
3.88553e-05 0.000398204 4.81581e-05
3.60727e-05 -5.33051e-05 -6.44662e-06
1.1408e-05 -0.000472442 -5.71362e-05
-0.000206128 -0.000208768 -0.000955112
-0.00049339 -0.000145461 -0.000665488
-0.000481352 6.09641e-06 2.78911e-05
-0.000177331 0.000153956 0.000704352
0.000234256 0.000208428 0.000953562
0.000503746 0.000136471 0.000624354
0.000467671 -1.82685e-05 -8.35784e-05
0.000147901 -0.000161913 -0.000740752
-0.000271323 0.000318258 -0.0012572
-0.00064944 0.00022175 -0.000875969
-0.000633594 -9.29374e-06 3.67126e-05
-0.000233418 -0.0002347 0.000927125
0.000308346 -0.000317741 0.00125515
0.000663071 -0.000208044 0.000821825
0.000615586 2.78496e-05 -0.000110013
0.00019468 0.00024683 -0.000975038
-0.000171937 0.000652233 -0.000796681
-0.000411515 0.000454415 -0.000555053
-0.000401474 -1.90449e-05 2.32627e-05
-0.000147904 -0.000480952 0.000587468
0.000195382 -0.00065112 0.000795323
0.000420153 -0.000426328 0.000520746
0.000390064 5.70698e-05 -6.97089e-05
0.000123368 0.000505849 -0.000617879
0 -2.62222e-05 0
0 -1.98349e-05 0
0 8.31297e-07 0
0 2.09933e-05 0
0 2.8421e-05 0
0 1.86089e-05 0
0 -2.49106e-06 0
0 -2.0337e-05 0
0.000272251 -1.03162e-05 0.00034492
0.000651662 -7.18797e-06 0.000240327
0.000635762 3.01254e-07 -1.00723e-05
0.000234217 7.60774e-06 -0.000254362
-0.000309401 1.02995e-05 -0.00034436
-0.000665341 6.74368e-06 -0.000225473
-0.000617693 -9.02735e-07 3.01826e-05
-0.000195346 -8.00086e-06 0.000267508
0.000379359 1.18475e-05 0.000480616
0.000908035 8.2549e-06 0.000334875
0.000885879 -3.45969e-07 -1.40349e-05
0.000326361 -8.73698e-06 -0.000354432
-0.000431124 -1.18283e-05 -0.000479835
-0.000927094 -7.74467e-06 -0.000314177
-0.000860702 1.03673e-06 4.20569e-05
-0.000272198 9.18852e-06 0.00037275
0.000256352 2.68246e-05 0.000324777
0.000613606 1.86904e-05 0.000226293
0.000598634 -7.8333e-07 -9.4841e-06
0.000220539 -1.97819e-05 -0.000239508
-0.000291332 -2.6781e-05 -0.000324249
-0.000626485 -1.75352e-05 -0.000212306
-0.00058162 2.34732e-06 2.842e-05
-0.000183938 2.08043e-05 0.000251886
-2.21542e-05 2.55303e-05 -2.80676e-05
-5.30284e-05 1.77885e-05 -1.95564e-05
-5.17346e-05 -7.45533e-07 8.19626e-07
-1.90592e-05 -1.88274e-05 2.06985e-05
2.51772e-05 -2.54888e-05 2.80219e-05
5.41415e-05 -1.6689e-05 1.83476e-05
5.02642e-05 2.23406e-06 -2.45608e-06
1.58961e-05 1.98004e-05 -2.17682e-05
-0.000287222 8.74962e-06 -0.000363887
-0.000687497 6.09641e-06 -0.000253543
-0.000670722 -2.55505e-07 1.06262e-05
-0.000247096 -6.45243e-06 0.000268349
0.000326415 -8.7354e-06 0.000363295
0.000701927 -5.71959e-06 0.000237871
0.000651659 7.65646e-07 -3.18423e-05
0.000206088 6.78591e-06 -0.000282218
-0.000378065 -1.33385e-05 -0.000478977
-0.000904939 -9.29374e-06 -0.000333733
-0.000882858 3.89508e-07 1.3987e-05
-0.000325248 9.83648e-06 0.000353223
0.000429654 1.33168e-05 0.000478199
0.000923933 8.71929e-06 0.000313105
0.000857767 -1.1672e-06 -4.19135e-05
0.000271269 -1.03449e-05 -0.000371478
-0.000239579 -2.73356e-05 -0.000303527
-0.000573411 -1.90449e-05 -0.000211469
-0.00055942 7.98187e-07 8.86284e-06
-0.000206092 2.01571e-05 0.000223819
0.000272248 2.7289e-05 0.000303009
0.000585447 1.78677e-05 0.000198398
0.000543521 -2.39184e-06 -2.65583e-05
0.000171903 -2.12006e-05 -0.000235405
0 -0.000662204 0
0 -0.000500903 0
0 2.09933e-05 0
0 0.000530155 0
0 0.000717732 0
0 0.000469942 0
0 -6.29083e-05 0
0 -0.000513583 0
0.000183974 -0.00026052 -0.000424713
0.000440362 -0.000181522 -0.000295924
0.000429617 7.60774e-06 1.24024e-05
0.000158272 0.000192123 0.000313206
-0.000209078 0.000260099 0.000424023
-0.000449605 0.000170302 0.000277633
-0.000417407 -2.27973e-05 -3.7165e-05
-0.000132005 -0.00020205 -0.000329393
0.000256352 0.000299192 -0.000591801
0.000613606 0.000208466 -0.000412344
0.000598634 -8.73698e-06 1.72817e-05
0.000220539 -0.00022064 0.000436425
-0.000291332 -0.000298706 0.000590839
-0.000626485 -0.000195581 0.000386858
-0.00058162 2.61812e-05 -5.17862e-05
-0.000183938 0.000232043 -0.00045898
0.00017323 0.000677419 -0.00039991
0.000414645 0.000472 -0.000278642
0.000404528 -1.97819e-05 1.16781e-05
0.000149029 -0.000499564 0.000294915
-0.000196868 -0.000676318 0.00039926
-0.000423348 -0.000442826 0.00026142
-0.000393031 5.92783e-05 -3.49946e-05
-0.000124296 0.000525383 -0.000310157
-1.49707e-05 0.000644732 3.45606e-05
-3.5834e-05 0.000449225 2.40805e-05
-3.49597e-05 -1.88274e-05 -1.00924e-06
-1.28793e-05 -0.000475459 -2.54868e-05
1.70136e-05 -0.000643684 -3.45044e-05
3.65862e-05 -0.000421459 -2.25921e-05
3.39661e-05 5.6418e-05 3.02427e-06
1.07418e-05 0.000500032 2.6804e-05
-0.000194091 0.000220959 0.000448067
-0.000464577 0.000153956 0.000312196
-0.000453241 -6.45243e-06 -1.30844e-05
-0.000166975 -0.000162947 -0.000330428
0.000220575 -0.0002206 -0.000447339
0.000474328 -0.00014444 -0.0002929
0.00044036 1.93353e-05 3.92086e-05
0.000139264 0.000171369 0.000347506
-0.000255478 -0.000336844 0.000589782
-0.000611513 -0.0002347 0.000410938
-0.000596592 9.83648e-06 -1.72228e-05
-0.000219786 0.000248407 -0.000434937
0.000290339 0.000336297 -0.000588824
0.000624348 0.000220194 -0.000385538
0.000579637 -2.94759e-05 5.16096e-05
0.000183311 -0.000261245 0.000457415
-0.000161896 -0.000690322 0.000373743
-0.000387483 -0.000480952 0.00026039
-0.000378029 2.01571e-05 -1.09131e-05
-0.000139267 0.000509039 -0.000275596
0.000183972 0.000689145 -0.000373106
0.000395616 0.000451225 -0.000244295
0.000367285 -6.04026e-05 3.27022e-05
0.000116163 -0.00053539 0.000289863
0 -0.000896502 0
0 -0.00067813 0
0 2.8421e-05 0
0 0.000717732 0
0 0.000971677 0
0 0.000636215 0
0 -8.51661e-05 0
0 -0.000695297 0
-1.58992e-05 -0.000352696 -0.000936721
-3.80565e-05 -0.000245747 -0.000652672
-3.71279e-05 1.02995e-05 2.7354e-05
-1.3678e-05 0.000260099 0.000690787
1.80687e-05 0.000352126 0.000935198
3.88553e-05 0.000230558 0.000612331
3.60727e-05 -3.08633e-05 -8.19688e-05
1.1408e-05 -0.000273539 -0.000726488
-2.21542e-05 0.000405051 -0.00130524
-5.30284e-05 0.000282224 -0.000909442
-5.17346e-05 -1.18283e-05 3.81154e-05
-1.90592e-05 -0.000298706 0.000962552
2.51772e-05 -0.000404393 0.00130312
5.41415e-05 -0.00026478 0.000853229
5.02642e-05 3.54445e-05 -0.000114216
1.58961e-05 0.000314144 -0.0010123
-1.49707e-05 0.000917099 -0.000882017
-3.5834e-05 0.000639001 -0.000614556
-3.49597e-05 -2.6781e-05 2.57566e-05
-1.28793e-05 -0.000676318 0.000650446
1.70136e-05 -0.000915609 0.000880583
3.65862e-05 -0.000599504 0.000576571
3.39661e-05 8.02519e-05 -7.71819e-05
1.07418e-05 0.000711271 -0.000684062
1.29379e-06 0.000872848 7.62248e-05
3.09681e-06 0.000608168 5.31106e-05
3.02125e-06 -2.54888e-05 -2.22591e-06
1.11304e-06 -0.000643684 -5.62122e-05
-1.47033e-06 -0.000871429 -7.61009e-05
-3.16181e-06 -0.000570577 -4.98278e-05
-2.93538e-06 7.63796e-05 6.67014e-06
-9.28317e-07 0.000676951 5.91173e-05
1.67735e-05 0.000299138 0.00098823
4.01492e-05 0.000208428 0.000688561
3.91695e-05 -8.7354e-06 -2.88582e-05
1.44302e-05 -0.0002206 -0.000728773
-1.90623e-05 -0.000298652 -0.000986623
-4.09919e-05 -0.000195545 -0.000646002
-3.80563e-05 2.61764e-05 8.64762e-05
-1.20353e-05 0.000232001 0.000766437
2.20787e-05 -0.000456025 0.00130079
5.28476e-05 -0.000317741 0.00090634
5.15581e-05 1.33168e-05 -3.79854e-05
1.89942e-05 0.000336297 -0.000959269
-2.50914e-05 0.000455284 -0.00129867
-5.39568e-05 0.000298101 -0.00085032
-5.00928e-05 -3.9905e-05 0.000113827
-1.58419e-05 -0.000353677 0.00100885
1.39912e-05 -0.000934569 0.000824305
3.34867e-05 -0.00065112 0.000574299
3.26696e-05 2.7289e-05 -2.40693e-05
1.20356e-05 0.000689145 -0.000607838
-1.58991e-05 0.000932975 -0.0008229
-3.41896e-05 0.000610875 -0.000538802
-3.17411e-05 -8.1774e-05 7.2126e-05
-1.0039e-05 -0.00072482 0.000639303
0 -0.000586994 0
0 -0.000444013 0
0 1.86089e-05 0
0 0.000469942 0
0 0.000636215 0
0 0.000416568 0
0 -5.57634e-05 0
0 -0.000455252 0
-0.000206128 -0.000230931 -0.000880526
-0.00049339 -0.000160906 -0.000613518
-0.000481352 6.74368e-06 2.5713e-05
-0.000177331 0.000170302 0.000649347
0.000234256 0.000230558 0.000879095
0.000503746 0.00015096 0.000575596
0.000467671 -2.02081e-05 -7.70515e-05
0.000147901 -0.000179102 -0.000682906
-0.000287222 0.000265211 -0.00122694
-0.000687497 0.000184789 -0.000854884
-0.000670722 -7.74467e-06 3.58289e-05
-0.000247096 -0.000195581 0.000904808
0.000326415 -0.00026478 0.00122494
0.000701927 -0.000173367 0.000802044
0.000651659 2.32076e-05 -0.000107365
0.000206088 0.000205689 -0.00095157
-0.000194091 0.00060048 -0.000829104
-0.000464577 0.000418392 -0.000577689
-0.000453241 -1.75352e-05 2.42114e-05
-0.000166975 -0.000442826 0.000611425
0.000220575 -0.000599504 0.000827757
0.000474328 -0.000392532 0.000541982
0.00044036 5.25457e-05 -7.25517e-05
0.000139264 0.000465712 -0.000643025
1.67735e-05 0.000571506 7.1652e-05
4.01492e-05 0.000398204 4.99244e-05
3.91695e-05 -1.6689e-05 -2.09237e-06
1.44302e-05 -0.000421459 -5.284e-05
-1.90623e-05 -0.000570577 -7.15355e-05
-4.09919e-05 -0.000373591 -4.68386e-05
-3.80563e-05 5.00103e-05 6.26999e-06
-1.20353e-05 0.00044324 5.55708e-05
0.000217463 0.000195864 0.000928945
0.000520521 0.000136471 0.000647254
0.00050782 -5.71959e-06 -2.71269e-05
0.000187083 -0.00014444 -0.000685053
-0.000247137 -0.000195545 -0.000927435
-0.000531446 -0.000128035 -0.000607248
-0.000493388 1.71393e-05 8.12884e-05
-0.000156034 0.000151905 0.000720458
0.000286243 -0.000298587 0.00122275
0.000685152 -0.000208044 0.000851968
0.000668434 8.71929e-06 -3.57067e-05
0.000246253 0.000220194 -0.000901722
-0.000325302 0.000298101 -0.00122077
-0.000699533 0.000195185 -0.000799308
-0.000649437 -2.61282e-05 0.000106998
-0.000205385 -0.000231574 0.000948325
0.000181391 -0.000611918 0.000774855
0.000434144 -0.000426328 0.000539847
0.000423551 1.78677e-05 -2.26254e-05
0.000156037 0.000451225 -0.000571373
-0.000206126 0.000610875 -0.000773534
-0.000443256 0.000399977 -0.000506479
-0.000411513 -5.35424e-05 6.77992e-05
-0.000130152 -0.000474583 0.000600951
0 7.85772e-05 0
0 5.94372e-05 0
0 -2.49106e-06 0
0 -6.29083e-05 0
0 -8.51661e-05 0
0 -5.57634e-05 0
0 7.4647e-06 0
0 6.09418e-05 0
-0.000271323 3.09133e-05 -0.000290216
-0.00064944 2.15394e-05 -0.000202212
-0.000633594 -9.02735e-07 8.47486e-06
-0.000233418 -2.27973e-05 0.000214021
0.000308346 -3.08633e-05 0.000289745
0.000663071 -2.02081e-05 0.000189713
0.000615586 2.70513e-06 -2.53957e-05
0.00019468 2.39753e-05 -0.000225082
-0.000378065 -3.55022e-05 -0.000404391
-0.000904939 -2.47366e-05 -0.000281765
-0.000882858 1.03673e-06 1.1809e-05
-0.000325248 2.61812e-05 0.000298219
0.000429654 3.54445e-05 0.000403734
0.000923933 2.32076e-05 0.000264349
0.000857767 -3.10666e-06 -3.53867e-05
0.000271269 -2.75343e-05 -0.000313632
-0.000255478 -8.03825e-05 -0.000273268
-0.000611513 -5.60075e-05 -0.000190403
-0.000596592 2.34732e-06 7.97994e-06
-0.000219786 5.92783e-05 0.000201522
0.000290339 8.02519e-05 0.000272824
0.000624348 5.25457e-05 0.000178634
0.000579637 -7.03397e-06 -2.39126e-05
0.000183311 -6.23419e-05 -0.000211937
2.20787e-05 -7.65039e-05 2.36161e-05
5.28476e-05 -5.33051e-05 1.64548e-05
5.15581e-05 2.23406e-06 -6.89634e-07
1.89942e-05 5.6418e-05 -1.74157e-05
-2.50914e-05 7.63796e-05 -2.35777e-05
-5.39568e-05 5.00103e-05 -1.54377e-05
-5.00928e-05 -6.69456e-06 2.06655e-06
-1.58419e-05 -5.93338e-05 1.83158e-05
0.000286243 -2.62191e-05 0.000306175
0.000685152 -1.82685e-05 0.000213331
0.000668434 7.65646e-07 -8.94088e-06
0.000246253 1.93353e-05 -0.00022579
-0.000325302 2.61764e-05 -0.000305677
-0.000699533 1.71393e-05 -0.000200145
-0.000649437 -2.29433e-06 2.67922e-05
-0.000205385 -2.03346e-05 0.000237459
0.000376776 3.99699e-05 0.000403012
0.000901852 2.78496e-05 0.000280804
0.000879847 -1.1672e-06 -1.17687e-05
0.000324138 -2.94759e-05 -0.000297202
-0.000428188 -3.9905e-05 -0.000402357
-0.000920782 -2.61282e-05 -0.000263447
-0.000854841 3.49762e-06 3.52661e-05
-0.000270344 3.09993e-05 0.000312562
0.000238762 8.19137e-05 0.000255388
0.000571455 5.70698e-05 0.00017793
0.000557512 -2.39184e-06 -7.4572e-06
0.000205389 -6.04026e-05 -0.000188321
-0.00027132 -8.1774e-05 -0.000254952
-0.00058345 -5.35424e-05 -0.000166933
-0.000541667 7.16738e-06 2.23462e-05
-0.000171316 6.35294e-05 0.00019807
0 0.000696484 0
0 0.000485245 0
0 -2.0337e-05 0
0 -0.000513583 0
0 -0.000695297 0
0 -0.000455252 0
0 6.09418e-05 0
0 0.000540169 0
-0.000171937 0.000274006 0.000476135
-0.000411515 0.000190902 0.000331726
-0.000401474 -8.00086e-06 -1.39029e-05
-0.000147904 -0.00020205 -0.000351099
0.000195382 -0.000273539 -0.000475323
0.000420153 -0.000179102 -0.000311222
0.000390064 2.39753e-05 4.16614e-05
0.000123368 0.00021251 0.000369274
-0.000239579 -0.00031468 0.000663452
-0.000573411 -0.00021924 0.000462232
-0.00055942 9.18852e-06 -1.93725e-05
-0.000206092 0.000232043 -0.000489226
0.000272248 0.000314144 -0.000662321
0.000585447 0.000205689 -0.000433661
0.000543521 -2.75343e-05 5.80515e-05
0.000171903 -0.000244055 0.000514551
-0.000161896 -0.000712486 0.000448329
-0.000387483 -0.000496394 0.000312354
-0.000378029 2.08043e-05 -1.3091e-05
-0.000139267 0.000525383 -0.000330595
0.000183972 0.000711271 -0.000447564
0.000395616 0.000465712 -0.000293047
0.000367285 -6.23419e-05 3.92284e-05
0.000116163 -0.00055258 0.000347708
1.39912e-05 -0.000678107 -3.8745e-05
3.34867e-05 -0.000472442 -2.69939e-05
3.26696e-05 1.98004e-05 1.13134e-06
1.20356e-05 0.000500032 2.85703e-05
-1.58991e-05 0.000676951 3.86789e-05
-3.41896e-05 0.00044324 2.53254e-05
-3.17411e-05 -5.93338e-05 -3.39016e-06
-1.0039e-05 -0.000525917 -3.00493e-05
0.000181391 -0.000232398 -0.000502317
0.000434144 -0.000161913 -0.000349967
0.000423551 6.78591e-06 1.46674e-05
0.000156037 0.000171369 0.000370405
-0.000206126 0.000232001 0.00050146
-0.000443256 0.000151905 0.000328336
-0.000411513 -2.03346e-05 -4.39523e-05
-0.000130152 -0.00018024 -0.00038958
0.000238762 0.000354281 -0.00066119
0.000571455 0.00024683 -0.000460655
0.000557512 -1.03449e-05 1.93064e-05
0.000205389 -0.000261245 0.000487557
-0.00027132 -0.000353677 0.000660062
-0.00058345 -0.000231574 0.000432182
-0.000541667 3.09993e-05 -5.78535e-05
-0.000171316 0.000274768 -0.000512796
0.000151303 0.000726058 -0.000418994
0.00036213 0.000505849 -0.000291916
0.000353294 -2.12006e-05 1.22344e-05
0.000130155 -0.00053539 0.000308964
-0.000171935 -0.00072482 0.00041828
-0.000369731 -0.000474583 0.000273873
-0.000343253 6.35294e-05 -3.66616e-05
-0.000108563 0.000563106 -0.000324957
