# vtk DataFile Version 3.0
Velocity field
ASCII
DATASET STRUCTURED_POINTS
DIMENSIONS 5 5 5
SPACING 1.33333 1.33333 1.33333
ORIGIN 0 0 0
POINT_DATA 125
VECTORS velocity float
0 0.640679 0
0 0.150712 0
0 -0.569773 0
0 -0.418776 0
0 0.37275 0
0 -0.339256 1.11267
0 -0.0798057 0.30165
0 0.301709 -1.1404
0 0.221752 -0.838181
0 -0.19738 0.647354
0 -0.800291 0.523483
0 -0.188258 0.141919
0 0.71172 -0.536531
0 0.523105 -0.394343
0 -0.465612 0.304564
0 -0.0372614 -0.866383
0 -0.00876527 -0.234881
0 0.0331375 0.887978
0 0.0243557 0.652652
0 -0.0216788 -0.504065
0 0.78276 -0.931094
0 0.184135 -0.219028
0 -0.69613 0.828047
0 -0.511646 0.608604
0 0.455413 -0.541714
0 0.150712 0
0 0.0451122 0
0 -0.170549 0
0 -0.125351 0
0 0.0876847 0
0.476218 -0.0798057 0.39075
0.758791 -0.0201335 0.0996966
-0.159102 0.0763204 -0.378074
-0.833843 0.0561249 -0.278052
-0.215183 -0.0464312 0.22734
0.224049 -0.188258 0.183838
0.356995 -0.0477301 0.0469051
-0.0748544 0.180958 -0.177875
-0.392305 0.133078 -0.130818
-0.101238 -0.109529 0.106958
-0.370809 -0.00876527 -0.304258
-0.590391 -0.00225168 -0.0775722
0.123792 0.00854309 0.294159
0.648786 0.00628361 0.216337
0.167553 -0.00509967 -0.177019
-0.398505 0.184135 -0.326984
-0.585992 0.0433154 -0.0769189
0.122811 -0.163756 0.290796
0.643771 -0.120358 0.213731
0.180068 0.10713 -0.19024
0 -0.569773 0
0 -0.170549 0
0 0.644767 0
0 0.473896 0
0 -0.331496 0
0.224049 0.301709 -0.92883
0.356995 0.0763204 -0.236158
-0.0748544 -0.289352 0.895492
-0.392305 -0.212792 0.658576
-0.101238 0.175535 -0.540397
0.105409 0.71172 -0.436992
0.167958 0.180958 -0.111108
-0.0352175 -0.686176 0.421311
-0.184571 -0.504637 0.309845
-0.0476301 0.414081 -0.254243
-0.174456 0.0331375 0.723237
-0.277767 0.00854309 0.183755
0.0582416 -0.0324204 -0.696754
0.305239 -0.0238469 -0.512412
0.0788295 0.0192795 0.420782
-0.187487 -0.69613 0.777256
-0.275694 -0.163756 0.18284
0.0577793 0.619087 -0.691235
0.302878 0.455021 -0.508049
0.0847174 -0.405011 0.452211
0 -0.418776 0
0 -0.125351 0
0 0.473896 0
0 0.348307 0
0 -0.243645 0
-0.370809 0.221752 -0.827741
-0.590391 0.0561253 -0.21055
0.123792 -0.212794 0.798405
0.648786 -0.156492 0.587178
0.167553 0.129016 -0.481583
-0.174456 0.523105 -0.389432
-0.277767 0.133079 -0.0990594
0.0582416 -0.504642 0.375634
0.305239 -0.371134 0.276256
0.0788295 0.304344 -0.226573
0.288731 0.0243557 0.644523
0.459372 0.00628367 0.163828
-0.0963192 -0.0238472 -0.62121
-0.504803 -0.0175411 -0.456858
-0.130466 0.0141702 0.374986
0.310297 -0.511646 0.692664
0.456284 -0.120358 0.162941
-0.0956268 0.455021 -0.616004
-0.501274 0.334434 -0.452755
-0.14021 -0.297678 0.402994
0 0.37275 0
0 0.0876847 0
0 -0.331496 0
0 -0.243645 0
0 0.216867 0
-0.398505 -0.19738 0.539399
-0.585992 -0.0464312 0.126887
0.122811 0.175535 -0.479701
0.643771 0.129016 -0.352574
0.180068 -0.114836 0.313824
-0.187487 -0.465612 0.253774
-0.275694 -0.109529 0.0596971
0.0577793 0.414081 -0.225688
0.302878 0.304344 -0.165877
0.0847174 -0.270895 0.147646
0.310297 -0.0216788 -0.420004
0.456284 -0.00509967 -0.0988008
-0.0956268 0.0192795 0.373521
-0.501274 0.0141702 0.274533
-0.14021 -0.0126128 -0.24436
0.333474 0.455413 -0.451375
0.490365 0.10713 -0.10618
-0.102769 -0.405011 0.40142
-0.538715 -0.297678 0.295038
-0.150683 0.264961 -0.262612
