# vtk DataFile Version 3.0
Velocity field
ASCII
DATASET STRUCTURED_POINTS
DIMENSIONS 8 8 8
SPACING 0.8 0.8 0.8
ORIGIN 0 0 0
POINT_DATA 512
VECTORS velocity float
0 0.420212 0
0 0.292765 0
0 -0.01227 0
0 -0.309862 0
0 -0.419495 0
0 -0.274669 0
0 0.0367682 0
0 0.325902 0
0 0.165317 0.428889
0 0.115177 0.316809
0 -0.00482718 -0.0132777
0 -0.121904 -0.335311
0 -0.165035 -0.453949
0 -0.108058 -0.297228
0 0.0144651 0.039788
0 0.128214 0.332632
0 -0.189857 0.59762
0 -0.132275 0.441446
0 0.00554374 -0.0185014
0 0.139999 -0.467226
0 0.189533 -0.632538
0 0.124099 -0.414161
0 -0.0166123 0.0554411
0 -0.147247 0.463494
0 -0.429866 0.403842
0 -0.299491 0.298308
0 0.0125519 -0.0125023
0 0.316981 -0.315729
0 0.429133 -0.427438
0 0.280979 -0.27987
0 -0.037613 0.0374644
0 -0.33339 0.313206
0 -0.409125 -0.0349005
0 -0.28504 -0.0257801
0 0.0119463 0.00108046
0 0.301686 0.0272856
0 0.408427 0.0369396
0 0.267422 0.0241866
0 -0.0357981 -0.00323771
0 -0.317303 -0.0270676
0 -0.140213 -0.452473
0 -0.0976875 -0.33423
0 0.00409416 0.0140079
0 0.103392 0.353749
0 0.139974 0.478911
0 0.0916495 0.313572
0 -0.0122685 -0.0419759
0 -0.108745 -0.350923
0 0.21375 -0.595582
0 0.148921 -0.439941
0 -0.00624139 0.0184383
0 -0.157618 0.465633
0 -0.213385 0.630381
0 -0.139716 0.412748
0 0.0187029 -0.0552521
0 0.165777 -0.461913
0 0.438055 -0.377419
0 0.305196 -0.26295
0 -0.012791 0.0110204
0 -0.323019 0.278306
0 -0.437308 0.376775
0 -0.286332 0.246697
0 0.0383294 -0.0330238
0 0.33974 -0.292713
0 0.292765 0
0 0.221452 0
0 -0.00928124 0
0 -0.234385 0
0 -0.317314 0
0 -0.207764 0
0 0.0278121 0
0 0.227058 0
0.0914252 0.115177 0.423626
0.226919 0.0833454 0.306117
0.221422 -0.00349584 -0.0128397
0.081572 -0.0882699 -0.324202
-0.107757 -0.119502 -0.438913
-0.231725 -0.0782448 -0.287384
-0.215099 0.0104326 0.03832
-0.0655994 0.0893277 0.32855
0.127393 -0.132275 0.590286
0.316188 -0.0954643 0.426552
0.308528 0.00400391 -0.017891
0.113665 0.101101 -0.451751
-0.150149 0.136871 -0.611581
-0.322884 0.0896178 -0.400444
-0.299719 -0.0119517 0.0533961
-0.0914072 -0.102588 0.457806
0.0860861 -0.299491 0.398886
0.213666 -0.216149 0.288244
0.208491 0.0090659 -0.0120898
0.0768078 0.228915 -0.305268
-0.101465 0.309905 -0.413281
-0.218191 0.202917 -0.270599
-0.202538 -0.0270613 0.0360825
-0.0617685 -0.232275 0.309363
-0.00743965 -0.28504 -0.0344722
-0.0184652 -0.205723 -0.0249103
-0.018018 0.00862836 0.00104481
-0.00663788 0.217868 0.0263819
0.00876865 0.294955 0.0357161
0.0188561 0.193126 0.0233854
0.0175035 -0.0257554 -0.00311827
0.00533809 -0.221067 -0.0267354
-0.0964526 -0.0976875 -0.44692
-0.239394 -0.070505 -0.32295
-0.233598 0.00295712 0.0135457
-0.0860563 0.0746677 0.342025
0.113683 0.101087 0.463048
0.244461 0.0661873 0.303182
0.226927 -0.00882685 -0.0404273
0.0692067 -0.0757631 -0.346616
-0.126959 0.148921 -0.588273
-0.315024 0.107389 -0.424985
-0.307391 -0.00450399 0.0178249
-0.113246 -0.113727 0.450086
0.149596 -0.153964 0.609325
0.321692 -0.100812 0.398967
0.298615 0.0134461 -0.0532015
0.0910954 0.115498 -0.456244
-0.0804534 0.305196 -0.372787
-0.192558 0.212632 -0.259723
-0.18786 -0.00891158 0.0108852
-0.0692081 -0.225049 0.274891
0.0914242 -0.304675 0.372151
0.1966 -0.199489 0.24367
0.182521 0.0267044 -0.0326185
0.0577269 0.236699 -0.289121
0 -0.01227 0
0 -0.00928124 0
0 0.000388984 0
0 0.00982326 0
0 0.0132989 0
0 0.00870758 0
0 -0.00116563 0
0 -0.00951619 0
0.127393 -0.00482718 0.161397
0.316188 -0.00349584 0.116559
0.308528 0.000146635 -0.00488878
0.113665 0.00370251 -0.123442
-0.150149 0.00501242 -0.167117
-0.322884 0.00328199 -0.109424
-0.299719 -0.000437536 0.0145914
-0.0914072 -0.0037438 0.125174
0.177511 0.00554374 0.224892
0.440585 0.00400391 0.162414
0.429911 -0.000167935 -0.00681214
0.15838 -0.00424042 -0.172005
-0.209223 -0.00574075 -0.232869
-0.449915 -0.00375887 -0.152472
-0.417638 0.000501221 0.0203317
-0.127368 0.00429953 0.174419
0.119954 0.0125519 0.151971
0.297723 0.0090659 0.109751
0.290515 -0.000380248 -0.00460335
0.107026 -0.00960131 -0.116235
-0.141382 -0.0129986 -0.157359
-0.304027 -0.00851085 -0.103034
-0.282219 0.00113489 0.0137393
-0.0860691 0.00973483 0.117864
-0.0103665 0.0119463 -0.0131335
-0.0257297 0.00862836 -0.00948479
-0.0251064 -0.000361901 0.000397824
-0.00924926 -0.00913816 0.010045
0.0122184 -0.0123713 0.0135992
0.0262746 -0.00810017 0.00890427
0.0243895 0.00108012 -0.00118735
0.00743817 0.0092651 -0.0101859
-0.134398 0.00409416 -0.170272
-0.333571 0.00295712 -0.122967
-0.325494 -0.000124031 0.0051576
-0.119914 -0.0031318 0.130229
0.158406 -0.00423984 0.176307
0.340634 -0.00277608 0.115441
0.3162 0.000370176 -0.0153936
0.0964335 0.00317529 -0.132057
-0.176906 -0.00624139 -0.224125
-0.438963 -0.00450399 -0.161816
-0.428327 0.000188906 0.00678705
-0.157796 0.00476992 0.171371
0.208451 0.00645761 0.232008
0.448257 0.00422818 0.15191
0.416098 -0.000563889 -0.0202576
0.126934 -0.00484061 -0.173824
-0.112105 -0.012791 -0.142028
-0.268313 -0.00891158 -0.0989515
-0.261766 0.000373491 0.00414714
-0.0964355 0.009432 0.10473
0.127392 0.0127692 0.141785
0.273945 0.00836075 0.0928354
0.254327 -0.0011192 -0.0124273
0.0804375 -0.00992026 -0.110152
0 -0.309862 0
0 -0.234385 0
0 0.00982326 0
0 0.248073 0
0 0.335845 0
0 0.219898 0
0 -0.0294363 0
0 -0.240318 0
0.0860861 -0.121904 -0.198734
0.213666 -0.0882699 -0.14352
0.208491 0.00370251 0.00601963
0.0768078 0.0934869 0.151996
-0.101465 0.126564 0.205776
-0.218191 0.082869 0.134733
-0.202538 -0.011048 -0.0179666
-0.0617685 -0.0945444 -0.154131
0.119954 0.139999 -0.276918
0.297723 0.101101 -0.199983
0.290515 -0.00424042 0.0083878
0.107026 -0.107072 0.211796
-0.141382 -0.144957 0.286732
-0.304027 -0.0949112 0.187739
-0.282219 0.0126563 -0.0250347
-0.0860691 0.108579 -0.214768
0.0810587 0.316981 -0.187128
0.201188 0.228915 -0.135138
0.196315 -0.00960131 0.00566805
0.0723234 -0.242434 0.143121
-0.0955387 -0.328212 0.193758
-0.205449 -0.214902 0.126864
-0.190709 0.0286568 -0.0169172
-0.0581613 0.245839 -0.14513
-0.00700518 0.301686 0.0161718
-0.0173869 0.217868 0.0116788
-0.0169656 -0.00913816 -0.00048984
-0.00625023 -0.230739 -0.0123686
0.00825648 -0.312374 -0.0167447
0.0177551 -0.204533 -0.0109638
0.0164811 0.027274 0.001462
0.00502635 0.233977 0.0125423
-0.0908198 0.103392 0.209662
-0.225415 0.0746677 0.15141
-0.219955 -0.0031318 -0.00635064
-0.0810315 -0.0790778 -0.160353
0.107043 -0.107057 -0.217091
0.230189 -0.0700973 -0.142143
0.213673 0.00934726 0.0189543
0.0651651 0.0801876 0.162606
-0.119544 -0.157618 0.275974
-0.296627 -0.113727 0.199248
-0.289443 0.00476992 -0.00835688
-0.106632 0.120442 -0.211015
0.14086 0.163056 -0.285674
0.302906 0.106763 -0.187048
0.281177 -0.0142387 0.0249436
0.0857755 -0.122243 0.214036
-0.075755 -0.323019 0.174884
-0.181313 -0.225049 0.121843
-0.176889 0.009432 -0.00510653
-0.0651664 0.238192 -0.128958
0.0860851 0.322468 -0.174586
0.185119 0.211139 -0.114312
0.171862 -0.0282639 0.0153022
0.0543557 -0.250522 0.135634
0 -0.419495 0
0 -0.317314 0
0 0.0132989 0
0 0.335845 0
0 0.454671 0
0 0.297701 0
0 -0.0398513 0
0 -0.325346 0
-0.00743965 -0.165035 -0.438315
-0.0184652 -0.119502 -0.316536
-0.018018 0.00501242 0.0132766
-0.00663788 0.126564 0.335229
0.00876865 0.171343 0.453849
0.0188561 0.112191 0.29716
0.0175035 -0.0149571 -0.0396257
0.00533809 -0.127996 -0.339942
-0.0103665 0.189533 -0.610753
-0.0257297 0.136871 -0.441068
-0.0251064 -0.00574075 0.0184998
-0.00924926 -0.144957 0.467125
0.0122184 -0.196243 0.632391
0.0262746 -0.128492 0.414071
0.0243895 0.0171342 -0.0552153
0.00743817 0.146996 -0.47368
-0.00700518 0.429133 -0.412717
-0.0173869 0.309905 -0.298052
-0.0169656 -0.0129986 0.0125012
-0.00625023 -0.328212 0.315655
0.00825648 -0.444342 0.427341
0.0177551 -0.290939 0.279808
0.0164811 0.0387956 -0.0373116
0.00502635 0.332821 -0.32009
0.000605394 0.408427 0.0356674
0.00150259 0.294955 0.0257581
0.00146619 -0.0123713 -0.00108036
0.000540148 -0.312374 -0.0272794
-0.000713537 -0.422902 -0.0369312
-0.00153441 -0.276898 -0.0241812
-0.00142432 0.0369239 0.00322451
-0.000434383 0.316762 0.0276625
0.00784874 0.139974 0.462417
0.0194804 0.101087 0.33394
0.0190085 -0.00423984 -0.0140066
0.00700287 -0.107057 -0.353663
-0.00925076 -0.144937 -0.478801
-0.0198929 -0.0948982 -0.313499
-0.0184658 0.0126545 0.0418044
-0.00563163 0.108559 0.358635
0.0103311 -0.213385 0.608671
0.0256349 -0.153964 0.439446
0.0250139 0.00645761 -0.0184316
0.00921518 0.163056 -0.465399
-0.0121733 0.220748 -0.630061
-0.0261777 0.144538 -0.412545
-0.0242997 -0.0192764 0.0550143
-0.00741281 -0.165494 0.472064
0.00654682 -0.437308 0.385713
0.0156692 -0.304675 0.268729
0.0152869 0.0127692 -0.0112626
0.00563175 0.322468 -0.284422
-0.00743956 0.436562 -0.385055
-0.0159981 0.285843 -0.252119
-0.0148525 -0.0382641 0.0337496
-0.00469747 -0.339161 0.299146
0 -0.274669 0
0 -0.207764 0
0 0.00870758 0
0 0.219898 0
0 0.297701 0
0 0.194923 0
0 -0.0260931 0
0 -0.213024 0
-0.0964526 -0.108058 -0.41202
-0.239394 -0.0782448 -0.297549
-0.233598 0.00328199 0.0124801
-0.0860563 0.082869 0.315122
0.113683 0.112191 0.42662
0.244462 0.0734584 0.279335
0.226927 -0.00979332 -0.0372486
0.0692067 -0.0838064 -0.319549
-0.134398 0.124099 -0.574114
-0.333571 0.0896178 -0.414612
-0.325494 -0.00375887 0.0173899
-0.119914 -0.0949112 0.4391
0.158406 -0.128492 0.594455
0.340634 -0.0841309 0.389229
0.3162 0.0112188 -0.0519029
0.0964335 0.0962468 -0.445263
-0.0908198 0.280979 -0.387958
-0.225415 0.202917 -0.280173
-0.219955 -0.00851085 0.0117512
-0.0810315 -0.214902 0.29672
0.107043 -0.290939 0.401706
0.230189 -0.190494 0.26302
0.213673 0.025402 -0.0350735
0.0651651 0.217918 -0.300887
0.00784874 0.267422 0.0335277
0.0194804 0.193126 0.0242129
0.0190085 -0.00810017 -0.00101555
0.00700287 -0.204533 -0.025643
-0.00925076 -0.276898 -0.0347158
-0.0198929 -0.181301 -0.0227305
-0.0184658 0.0241763 0.00303107
-0.00563163 0.207403 0.026003
0.101756 0.0916495 0.434676
0.252555 0.0661873 0.313908
0.246437 -0.00277608 -0.0131664
0.0907885 -0.0700973 -0.332448
-0.119933 -0.0948982 -0.45008
-0.257903 -0.0621352 -0.294695
-0.239402 0.00828564 0.0392967
-0.0730123 0.0710802 0.33712
0.13394 -0.139716 0.572156
0.332342 -0.100812 0.413087
0.324293 0.00422818 -0.0173258
0.119471 0.106763 -0.437483
-0.157822 0.144538 -0.592266
-0.339379 0.094638 -0.387796
-0.315035 -0.0126215 0.0517138
-0.0961046 -0.108359 0.443745
0.0848774 -0.286332 0.362574
0.203147 -0.199489 0.252607
0.19819 0.00836075 -0.010587
0.0730138 0.211139 -0.26736
-0.0964515 0.285843 -0.361955
-0.207411 0.187159 -0.236994
-0.192557 -0.0250538 0.0317249
-0.0609012 -0.222069 0.2812
0 0.0367682 0
0 0.0278121 0
0 -0.00116563 0
0 -0.0294363 0
0 -0.0398513 0
0 -0.0260931 0
0 0.00349291 0
0 0.0285162 0
-0.126959 0.0144651 -0.135799
-0.315024 0.0104323 -0.0981389
-0.307391 -0.000437524 0.00411632
-0.113246 -0.0110477 0.103938
0.149596 -0.0149567 0.140712
0.321692 -0.00979304 0.0921322
0.298615 0.00130644 -0.0122843
0.0910954 0.0112186 -0.105321
-0.176906 -0.0166123 -0.189225
-0.438963 -0.0119513 -0.136748
-0.428327 0.000501206 0.0057357
-0.157796 0.0126559 0.144828
0.208451 0.0171337 0.196069
0.448257 0.0112185 0.128379
0.416098 -0.0014969 -0.0171172
0.126934 -0.012884 -0.146756
-0.119544 -0.037613 -0.127869
-0.296627 -0.0270605 -0.0924073
-0.289443 0.00113485 0.00387594
-0.106632 0.028656 0.0978672
0.14086 0.0387944 0.132494
0.302906 0.0254013 0.086752
0.281177 -0.00338928 -0.0115669
0.0857755 -0.0291713 -0.0991707
0.0103311 -0.0357981 0.0110505
0.0256349 -0.0257547 0.00798596
0.0250139 0.00108009 -0.00033496
0.00921518 0.0272732 -0.00845781
-0.0121733 0.0369228 -0.0114502
-0.0261777 0.0241756 -0.00749725
-0.0242997 -0.00322574 0.000999629
-0.00741281 -0.0277638 0.00857043
0.13394 -0.0122685 0.143267
0.332342 -0.00882661 0.103536
0.324293 0.000370165 -0.00434266
0.119471 0.00934698 -0.109653
-0.157822 0.0126541 -0.148448
-0.339379 0.0082854 -0.0971986
-0.315035 -0.00110552 0.0129598
-0.0961046 -0.00951506 0.111113
0.176303 0.0187029 0.188579
0.437347 0.0134457 0.136244
0.426749 -0.000563873 -0.00571451
0.157215 -0.0142383 -0.144293
-0.207683 -0.0192758 -0.195345
-0.446606 -0.0126212 -0.127905
-0.414565 0.00168422 0.0170547
-0.126501 0.0145053 0.146256
0.111722 0.0383294 0.119502
0.267398 0.0267044 0.083258
0.260874 -0.0011192 -0.00348941
0.0961066 -0.0282639 -0.0881202
-0.126957 -0.0382641 -0.119298
-0.273011 -0.0250538 -0.0781118
-0.253459 0.00335379 0.0104563
-0.0801631 0.029727 0.0926818
0 0.325902 0
0 0.227058 0
0 -0.00951619 0
0 -0.240318 0
0 -0.325346 0
0 -0.213024 0
0 0.0285162 0
0 0.252759 0
-0.0804534 0.128214 0.222795
-0.192558 0.0893277 0.155223
-0.18786 -0.0037438 -0.00650552
-0.0692081 -0.0945444 -0.164288
0.0914242 -0.127996 -0.222415
0.1966 -0.0838064 -0.145629
0.182521 0.0112186 0.0194944
0.0577269 0.0994386 0.172792
-0.112105 -0.147247 0.310446
-0.268313 -0.102588 0.21629
-0.261766 0.00429953 -0.00906487
-0.0964355 0.108579 -0.228921
0.127392 0.146996 -0.309916
0.273945 0.0962468 -0.202921
0.254327 -0.012884 0.0271637
0.0804375 -0.114199 0.240771
-0.075755 -0.33339 0.209784
-0.181313 -0.232275 0.146158
-0.176889 0.00973483 -0.0061256
-0.0651664 0.245839 -0.154693
0.0860851 0.332821 -0.209426
0.185119 0.217918 -0.137124
0.171862 -0.0291713 0.0183559
0.0543557 -0.258566 0.162701
0.00654682 -0.317303 -0.0181297
0.0156692 -0.221067 -0.0126311
0.0152869 0.0092651 0.00052938
0.00563175 0.233977 0.0133688
-0.00743956 0.316762 0.0180988
-0.0159981 0.207403 0.0118504
-0.0148524 -0.0277638 -0.00158634
-0.00469747 -0.246089 -0.0140608
0.0848774 -0.108745 -0.235046
0.203147 -0.0757631 -0.163758
0.19819 0.00317529 0.00686324
0.0730138 0.0801876 0.173322
-0.0964515 0.108559 0.234645
-0.207411 0.0710802 0.153637
-0.192557 -0.00951506 -0.0205664
-0.0609012 -0.0843386 -0.182294
0.111722 0.165777 -0.309387
0.267398 0.115498 -0.215552
0.260874 -0.00484061 0.00903396
0.0961066 -0.122243 0.22814
-0.126957 -0.165494 0.308859
-0.273011 -0.108359 0.202229
-0.253459 0.0145053 -0.0270711
-0.0801631 0.128571 -0.23995
0.0707982 0.33974 -0.196058
0.169449 0.236699 -0.136595
0.165315 -0.00992026 0.00572479
0.0609025 -0.250522 0.144572
-0.0804525 -0.339161 0.195723
-0.173006 -0.222069 0.128152
-0.160616 0.029727 -0.0171549
-0.0507991 0.263491 -0.152056
