# vtk DataFile Version 3.0
Velocity field
ASCII
DATASET STRUCTURED_POINTS
DIMENSIONS 10 10 10
SPACING 0.631579 0.631579 0.631579
ORIGIN 0 0 0
POINT_DATA 1000
VECTORS velocity float
0 0.785104 0
0 0.633654 0
0 0.237736 0
0 -0.249902 0
0 -0.641127 0
0 -0.784999 0
0 -0.626014 0
0 -0.225508 0
0 0.262001 0
0 0.648428 0
0 0.482205 0.61499
0 0.389186 0.515818
0 0.146016 0.193526
0 -0.153488 -0.20343
0 -0.393775 -0.521901
0 -0.482141 -0.639019
0 -0.384493 -0.509599
0 -0.138505 -0.183572
0 0.160919 0.213279
0 0.39826 0.507929
0 -0.00673219 0.992713
0 -0.00543353 0.832631
0 -0.00203857 0.312389
0 0.00214289 -0.328375
0 0.0054976 -0.842449
0 0.0067313 -1.0315
0 0.00536801 -0.822591
0 0.00193371 -0.29632
0 -0.00224664 0.344273
0 -0.00556021 0.819895
0 -0.493072 0.987439
0 -0.397957 0.828208
0 -0.149307 0.310729
0 0.156947 -0.32663
0 0.402649 -0.837973
0 0.493006 -1.02602
0 0.393158 -0.81822
0 0.141626 -0.294746
0 -0.164546 0.342445
0 -0.407235 0.81554
0 -0.789181 0.601204
0 -0.636945 0.504256
0 -0.238971 0.189188
0 0.2512 -0.198869
0 0.644456 -0.510202
0 0.789076 -0.624694
0 0.629265 -0.498175
0 0.226679 -0.179456
0 -0.263362 0.208498
0 -0.651796 0.496543
0 -0.780818 -0.0169796
0 -0.630195 -0.0142415
0 -0.236439 -0.00534318
0 0.248538 0.0056166
0 0.637627 0.0144095
0 0.780714 0.017643
0 0.622597 0.0140698
0 0.224276 0.00506833
0 -0.260571 -0.00588854
0 -0.644889 -0.0140237
0 -0.47121 -0.628613
0 -0.380312 -0.527244
0 -0.142687 -0.197813
0 0.149988 0.207936
0 0.384796 0.533462
0 0.471147 0.653174
0 0.375726 0.520887
0 0.135347 0.187638
0 -0.15725 -0.218003
0 -0.389179 -0.51918
0 0.020195 -0.997722
0 0.0162993 -0.836833
0 0.00611522 -0.313965
0 -0.00642815 0.330032
0 -0.0164915 0.846701
0 -0.0201923 1.03671
0 -0.0161028 0.826742
0 -0.00580066 0.297815
0 0.00673938 -0.346011
0 0.0166793 -0.824033
0 0.503808 -0.981903
0 0.406621 -0.823564
0 0.152557 -0.308987
0 -0.160364 0.324799
0 -0.411416 0.833275
0 -0.503741 1.02027
0 -0.401718 0.813634
0 -0.14471 0.293093
0 0.168129 -0.340525
0 0.416102 -0.810968
0 0.793049 -0.587259
0 0.640067 -0.473974
0 0.240142 -0.177827
0 -0.252431 0.186927
0 -0.647614 0.479563
0 -0.792943 0.587181
0 -0.632349 0.468259
0 -0.227789 0.16868
0 0.264653 -0.195977
0 0.65499 -0.485025
0 0.633654 0
0 0.538024 0
0 0.201858 0
0 -0.212187 0
0 -0.544369 0
0 -0.666529 0
0 -0.531537 0
0 -0.191474 0
0 0.222461 0
0 0.523344 0
0.0894188 0.389186 0.680621
0.251581 0.336236 0.58948
0.310191 0.12652 0.22186
0.248868 -0.133027 -0.233277
0.0915211 -0.341281 -0.598472
-0.101135 -0.417866 -0.732773
-0.254772 -0.333237 -0.584364
-0.31011 -0.120066 -0.210553
-0.245571 0.138593 0.242918
-0.0804496 0.321434 0.562135
0.144339 -0.00543353 1.09865
0.406101 -0.00467751 0.951534
0.500708 -0.00176004 0.358125
0.40172 0.00185061 -0.376554
0.147733 0.00474772 -0.966048
-0.163251 0.00581309 -1.18283
-0.411251 0.00463578 -0.943278
-0.500576 0.00167031 -0.339873
-0.396399 -0.00192801 0.392117
-0.129861 -0.00448762 0.907394
0.143572 -0.397957 1.09282
0.403944 -0.343719 0.94648
0.498048 -0.129346 0.356222
0.399586 0.136001 -0.374554
0.146948 0.34891 -0.960916
-0.162384 0.427206 -1.17655
-0.409066 0.340685 -0.938267
-0.497917 0.122751 -0.338068
-0.394294 -0.141664 0.390034
-0.129171 -0.328678 0.902573
0.0874143 -0.636945 0.665364
0.245942 -0.550137 0.576266
0.303238 -0.207023 0.216887
0.243289 0.217675 -0.228048
0.0894695 0.558443 -0.585054
-0.0988678 0.683762 -0.716347
-0.249061 0.545282 -0.571265
-0.303158 0.196468 -0.205833
-0.240066 -0.226739 0.237473
-0.0786462 -0.526062 0.549534
-0.00246881 -0.630195 -0.0187917
-0.00694604 -0.544307 -0.0162753
-0.00856419 -0.20483 -0.00612546
-0.00687107 0.215368 0.00644066
-0.00252687 0.552526 0.0165236
0.00279226 0.676516 0.0202315
0.00703411 0.539504 0.0161341
0.00856194 0.194386 0.00581325
0.00678012 -0.224337 -0.00670687
0.00222118 -0.520487 -0.0155203
-0.0913994 -0.380312 -0.695698
-0.257154 -0.328481 -0.602536
-0.317061 -0.123612 -0.226774
-0.254379 0.129971 0.238444
-0.0935482 0.33344 0.611729
0.103375 0.408267 0.749002
0.260415 0.325582 0.597309
0.316978 0.117309 0.215216
0.25101 -0.135384 -0.248299
0.0822316 -0.314105 -0.574586
-0.145067 0.0162993 -1.1042
-0.408131 0.0140386 -0.956294
-0.50321 0.00528171 -0.359915
-0.403728 -0.0055533 0.378436
-0.148471 -0.014247 0.970878
0.164067 -0.0174441 1.18875
0.413306 -0.0139112 0.947993
0.503078 -0.00501219 0.341572
0.39838 0.00578739 -0.39408
0.130516 0.0134618 -0.911973
-0.142767 0.406621 -1.08669
-0.401016 0.349848 -0.93974
-0.494421 0.131619 -0.35365
-0.396675 -0.138387 0.371844
-0.145877 -0.355031 0.953967
0.161201 -0.434702 1.16804
0.406087 -0.346663 0.931482
0.494291 -0.124902 0.33562
0.391434 0.14423 -0.387298
0.128447 0.335834 -0.897513
-0.0853866 0.640067 -0.64993
-0.223217 0.516595 -0.524556
-0.274929 0.193818 -0.196805
-0.220571 -0.203736 0.206876
-0.0811151 -0.522687 0.530742
0.0896355 -0.639981 0.649844
0.225804 -0.510366 0.518231
0.274856 -0.183848 0.186681
0.217866 0.2136 -0.216892
0.0768219 0.52864 -0.536787
0 0.237736 0
0 0.201858 0
0 0.0757336 0
0 -0.0796091 0
0 -0.204238 0
0 -0.25007 0
0 -0.199424 0
0 -0.0718379 0
0 0.0834635 0
0 0.19635 0
0.144339 0.146016 0.483664
0.406101 0.12652 0.419113
0.500708 0.047616 0.157751
0.40172 -0.0500659 -0.165871
0.147733 -0.128444 -0.425542
-0.163251 -0.157267 -0.521037
-0.411251 -0.125416 -0.415512
-0.500576 -0.0451886 -0.149715
-0.396399 0.0521394 0.172697
-0.129861 0.120597 0.399465
0.232991 -0.00203857 0.780726
0.655526 -0.00176004 0.676529
0.80824 -0.000662394 0.254641
0.648454 0.000696488 -0.267749
0.238469 0.00178684 -0.686908
-0.263519 0.00218783 -0.841053
-0.663838 0.00174473 -0.670716
-0.808027 0.000628646 -0.241668
-0.639864 -0.000725315 0.278765
-0.209621 -0.00168368 0.644813
0.231753 -0.149307 0.776579
0.652044 -0.129346 0.672934
0.803946 -0.0486841 0.253289
0.645009 0.0511898 -0.266327
0.237203 0.131327 -0.683258
-0.262119 0.160798 -0.836585
-0.660311 0.128232 -0.667153
-0.803735 0.0462035 -0.240384
-0.636464 -0.0532985 0.277285
-0.208507 -0.123314 0.641387
0.141104 -0.238971 0.472822
0.396998 -0.207023 0.409718
0.489485 -0.077921 0.154215
0.392715 0.0819315 -0.162153
0.144421 0.210195 -0.416003
-0.159591 0.257364 -0.509356
-0.402033 0.20524 -0.406198
-0.489356 0.0739509 -0.146358
-0.387513 -0.0853066 0.168826
-0.12695 -0.197369 0.39051
-0.00398514 -0.236439 -0.0133537
-0.0112122 -0.20483 -0.0115715
-0.0138242 -0.0770952 -0.00435545
-0.0110912 0.0810634 0.00457962
-0.00407885 0.207967 0.0117491
0.00450726 0.254637 0.0143856
0.0113544 0.203066 0.011472
0.0138206 0.0731671 0.00413355
0.0109444 -0.0844028 -0.00476809
0.00358541 -0.195278 -0.011029
-0.147536 -0.142687 -0.494377
-0.415096 -0.123612 -0.428395
-0.511798 -0.0465257 -0.161246
-0.410617 0.0489205 0.169545
-0.151005 0.125505 0.434967
0.166867 0.153669 0.532578
0.42036 0.122547 0.424715
0.511663 0.0441553 0.15303
0.405179 -0.0509357 -0.176522
0.132738 -0.117847 -0.408313
-0.234167 0.00611522 -0.784666
-0.658801 0.00528171 -0.679912
-0.812278 0.00198749 -0.255914
-0.651694 -0.00208972 0.269087
-0.239661 -0.00536117 0.69034
0.264836 -0.00656425 0.845256
0.667154 -0.0052348 0.674068
0.812064 -0.00188612 0.242876
0.643062 0.00217697 -0.280161
0.210679 0.00505064 -0.648067
-0.230454 0.152557 -0.772225
-0.647316 0.131619 -0.668116
-0.798091 0.0495261 -0.251449
-0.64031 -0.0520737 0.264389
-0.235474 -0.133595 0.678288
0.260209 -0.163574 0.8305
0.655502 -0.130446 0.662301
0.797881 -0.0470002 0.238634
0.63185 0.0542514 -0.275331
0.207338 0.125999 -0.637792
-0.13783 0.240142 -0.461854
-0.360315 0.193818 -0.372761
-0.443788 0.0727171 -0.139853
-0.356044 -0.0764383 0.14701
-0.130935 -0.196103 0.377156
0.144689 -0.24011 0.461793
0.364491 -0.191481 0.368266
0.44367 -0.0689767 0.13266
0.351678 0.0801392 -0.154128
0.124005 0.198337 -0.381452
0 -0.249902 0
0 -0.212187 0
0 -0.0796091 0
0 0.0836829 0
0 0.214689 0
0 0.262867 0
0 0.209629 0
0 0.0755141 0
0 -0.0877345 0
0 -0.206398 0
0.143572 -0.153488 0.100105
0.403944 -0.133027 0.0867448
0.498048 -0.0500659 0.0326502
0.399586 0.0526423 -0.0343308
0.146948 0.135054 -0.0880757
-0.162384 0.16536 -0.10784
-0.409066 0.13187 -0.0859996
-0.497917 0.0475141 -0.0309868
-0.394294 -0.0548199 0.0357434
-0.129171 -0.126768 0.082678
0.231753 0.00214289 0.161589
0.652044 0.00185061 0.140022
0.803946 0.000696488 0.0527037
0.645009 -0.000732337 -0.0554165
0.237203 -0.00187879 -0.142171
-0.262119 -0.00230044 -0.174075
-0.660311 -0.00183454 -0.138819
-0.803735 -0.000660999 -0.0500186
-0.636464 0.000762618 0.0576966
-0.208507 0.00176984 0.133458
0.230522 0.156947 0.16073
0.64858 0.136001 0.139278
0.799676 0.0511898 0.0524237
0.641582 -0.0538248 -0.0551222
0.235942 -0.138087 -0.141415
-0.260726 -0.169075 -0.17315
-0.656804 -0.134833 -0.138082
-0.799465 -0.0485819 -0.0497529
-0.633084 0.0560395 0.0573901
-0.2074 0.129625 0.132749
0.140354 0.2512 0.0978609
0.394889 0.217675 0.0848
0.486884 0.0819315 0.0319183
0.390629 -0.0861489 -0.0335613
0.143654 -0.221014 -0.0861012
-0.158743 -0.270612 -0.105423
-0.399897 -0.215805 -0.0840717
-0.486756 -0.0777575 -0.0302922
-0.385454 0.0896933 0.034942
-0.126276 0.207469 0.0808247
-0.00396397 0.248538 -0.00276385
-0.0111527 0.215368 -0.00239498
-0.0137508 0.0810634 -0.000901457
-0.0110324 -0.0852359 0.000947855
-0.00405719 -0.218672 0.00243172
0.00448332 -0.267744 0.00297742
0.0112941 -0.213518 0.00237442
0.0137472 -0.0769335 0.000855529
0.0108863 0.0887428 -0.000986859
0.00356636 0.205271 -0.0022827
-0.146753 0.149988 -0.102322
-0.412891 0.129971 -0.0886659
-0.509079 0.0489205 -0.0333734
-0.408436 -0.0514385 0.0350911
-0.150203 -0.131966 0.0900261
0.16598 -0.161579 0.110229
0.418126 -0.128855 0.0879045
0.508945 -0.046428 0.0316731
0.403027 0.0535549 -0.036535
0.132033 0.123877 -0.0845094
-0.232923 -0.00642815 -0.162404
-0.655302 -0.0055533 -0.140723
-0.807964 -0.00208972 -0.052967
-0.648233 0.00219721 0.0556935
-0.238388 0.00563695 0.142881
0.263429 0.00690193 0.174945
0.663611 0.0055041 0.139513
0.80775 0.00198315 0.0502686
0.639646 -0.00228888 -0.0579853
0.20956 -0.0053091 -0.134132
-0.22923 -0.160364 -0.159829
-0.643878 -0.138387 -0.138282
-0.793851 -0.0520737 -0.052043
-0.636909 0.0547524 0.0547211
-0.234223 0.140467 0.140387
0.258827 0.171989 0.171891
0.65202 0.137156 0.137078
0.793642 0.049418 0.0493906
0.628493 -0.0570398 -0.0569859
0.206237 -0.132447 -0.132005
-0.137098 -0.252431 -0.0955909
-0.358401 -0.203736 -0.0771511
-0.44143 -0.0764383 -0.0289458
-0.354152 0.0803499 0.030427
-0.13024 0.206139 0.0780608
0.14392 0.252397 0.0955782
0.362555 0.201279 0.0762208
0.441313 0.0725064 0.0274568
0.34981 -0.0842401 -0.0319002
0.123347 -0.208486 -0.0789499
0 -0.641127 0
0 -0.544369 0
0 -0.204238 0
0 0.214689 0
0 0.550788 0
0 0.674389 0
0 0.537805 0
0 0.193732 0
0 -0.225084 0
0 -0.529515 0
0.0874143 -0.393775 -0.322075
0.245942 -0.341281 -0.279089
0.303238 -0.128444 -0.105048
0.243289 0.135054 0.110455
0.0894695 0.346479 0.28337
-0.0988678 0.424231 0.346962
-0.249061 0.338313 0.276691
-0.303158 0.121897 0.0996958
-0.240066 -0.140641 -0.114999
-0.0786462 -0.325224 -0.266006
0.141104 0.0054976 -0.519891
0.396998 0.00474772 -0.450504
0.489485 0.00178684 -0.169567
0.392715 -0.00187879 0.178295
0.144421 -0.0048201 0.457415
-0.159591 -0.00590178 0.560061
-0.402032 -0.00470648 0.446634
-0.489356 -0.00169579 0.160928
-0.387513 0.00195648 -0.185631
-0.12695 0.00454054 -0.429385
0.140354 0.402649 -0.517129
0.394889 0.34891 -0.448111
0.486884 0.131327 -0.168666
0.390629 -0.138087 0.177348
0.143654 -0.354262 0.454985
-0.158743 -0.433761 0.557086
-0.399897 -0.345912 0.444262
-0.486756 -0.124637 0.160073
-0.385454 0.143769 -0.184645
-0.126276 0.332554 -0.427104
0.0854548 0.644456 -0.314855
0.240429 0.558443 -0.272833
0.29644 0.210195 -0.102693
0.237835 -0.221014 0.107979
0.0874643 -0.56701 0.277018
-0.0966513 -0.694253 0.339184
-0.243478 -0.553645 0.27049
-0.296362 -0.199486 0.0974609
-0.234685 0.230108 -0.112422
-0.0768832 0.532265 -0.260043
-0.00241347 0.637627 0.00889235
-0.00679034 0.552526 0.00770549
-0.00837223 0.207967 0.00290032
-0.00671709 -0.218672 -0.0030496
-0.00247019 -0.561001 -0.00782374
0.00272971 -0.686895 -0.00957945
0.00687642 -0.54778 -0.00763932
0.00837003 -0.197372 -0.00275256
0.00662813 0.22767 0.00317507
0.00217139 0.526625 0.00734432
-0.0893506 0.384796 0.329209
-0.251389 0.33344 0.28527
-0.309954 0.125505 0.107374
-0.248677 -0.131966 -0.112901
-0.0914512 -0.338556 -0.289646
0.101058 -0.41453 -0.354646
0.254577 -0.330576 -0.28282
0.309873 -0.119111 -0.101904
0.245384 0.137395 0.117546
0.0803883 0.317809 0.271899
-0.141816 -0.0164915 0.522515
-0.398982 -0.014247 0.452757
-0.491931 -0.00536116 0.170414
-0.394678 0.00563695 -0.179186
-0.145142 0.0144615 -0.459701
0.160389 0.0177069 -0.562859
0.404041 0.0141208 -0.448866
0.491801 0.00508776 -0.161732
0.38945 -0.00587211 0.186561
0.127591 -0.0136206 0.431552
-0.139567 -0.411416 0.51423
-0.392026 -0.355031 0.444902
-0.483338 -0.133595 0.167441
-0.387783 0.140467 -0.176058
-0.142607 0.360367 -0.451676
0.157587 0.441237 -0.553035
0.396984 0.351875 -0.44103
0.48321 0.126782 -0.158908
0.382659 -0.146336 0.183344
0.125568 -0.339794 0.42471
-0.0834726 -0.647614 0.307552
-0.218213 -0.522687 0.248224
-0.268766 -0.196103 0.0931294
-0.215626 0.206139 -0.0978951
-0.0792968 0.528851 -0.251151
0.0876262 0.647528 -0.307511
0.220742 0.516385 -0.245231
0.268694 0.186016 -0.0883389
0.212982 -0.216119 0.102635
0.0750998 -0.534874 0.254011
0 -0.784999 0
0 -0.666529 0
0 -0.25007 0
0 0.262867 0
0 0.674389 0
0 0.825726 0
0 0.658492 0
0 0.237207 0
0 -0.275594 0
0 -0.648342 0
-0.00246881 -0.482141 -0.619996
-0.00694604 -0.417866 -0.537249
-0.00856419 -0.157267 -0.202217
-0.00687107 0.16536 0.212626
-0.00252687 0.424231 0.545491
0.00279226 0.519431 0.667902
0.00703411 0.414231 0.532635
0.00856194 0.149251 0.191915
0.00678012 -0.172201 -0.221375
0.00222118 -0.398207 -0.512063
-0.00398514 0.0067313 -1.00079
-0.0112122 0.00581308 -0.867222
-0.0138242 0.00218783 -0.326418
-0.0110912 -0.00230044 0.343219
-0.00407885 -0.00590178 0.880527
0.00450726 -0.00722617 1.07812
0.0113544 -0.00576265 0.859773
0.0138206 -0.00207635 0.309788
0.0109444 0.00239555 -0.357341
0.00358541 0.00555947 -0.826569
-0.00396397 0.493006 -0.995477
-0.0111527 0.427206 -0.862615
-0.0137508 0.160798 -0.324684
-0.0110324 -0.169075 0.341396
-0.00405719 -0.433761 0.875849
0.00448332 -0.531101 1.0724
0.0112941 -0.423537 0.855205
0.0137472 -0.152606 0.308142
0.0108863 0.176032 -0.355442
0.00356636 0.407181 -0.822178
-0.00241347 0.789076 -0.606098
-0.00679035 0.683762 -0.525204
-0.00837224 0.257364 -0.197684
-0.00671709 -0.270612 0.207859
-0.00247019 -0.694253 0.533264
0.00272971 -0.850046 0.652931
0.00687642 -0.677889 0.520694
0.00837003 -0.244252 0.187613
0.00662813 0.281746 -0.216412
0.00217139 0.651709 -0.500585
6.81629e-05 0.780714 0.0171178
0.000191775 0.676516 0.0148332
0.000236458 0.254637 0.00558308
0.000189709 -0.267744 -0.00587052
6.97662e-05 -0.686895 -0.0150607
-7.70914e-05 -0.841039 -0.0184404
-0.000194214 -0.670705 -0.0147058
-0.000236396 -0.241664 -0.00529869
-0.000187195 0.27876 0.00611205
-6.13258e-05 0.644803 0.0141378
0.0025235 0.471147 0.633729
0.00709988 0.408267 0.549148
0.00875391 0.15367 0.206696
0.00702328 -0.161579 -0.217335
0.00258282 -0.41453 -0.557571
-0.00285412 -0.507553 -0.682696
-0.00718995 -0.40476 -0.544431
-0.00875161 -0.14584 -0.196166
-0.00693027 0.168228 0.226278
-0.00227038 0.389127 0.523406
0.00400525 -0.0201923 1.00584
0.0112683 -0.0174441 0.871558
0.0138933 -0.00656425 0.328048
0.0111466 0.00690193 -0.344934
0.00409923 0.0177069 -0.884927
-0.00452978 0.0216805 -1.08351
-0.0114111 0.0172895 -0.86407
-0.0138897 0.00622949 -0.311336
-0.0109991 -0.00718983 0.359129
-0.0036035 -0.0166771 0.83074
0.00394175 -0.503741 0.989896
0.0110719 -0.434702 0.856438
0.0136507 -0.163574 0.322326
0.0109521 0.171989 -0.338912
0.00402764 0.441237 -0.869478
-0.00445066 0.540255 -1.0646
-0.0112118 0.430838 -0.848984
-0.0136471 0.155232 -0.305898
-0.0108073 -0.179174 0.352938
-0.00354637 -0.416047 0.817569
0.00235749 -0.792943 0.592039
0.00616293 -0.639981 0.477832
0.00759066 -0.24011 0.179275
0.00608987 0.252397 -0.188449
0.00223955 0.647528 -0.483467
-0.0024748 0.792838 -0.59196
-0.00623435 0.632265 -0.472071
-0.00758865 0.227759 -0.170053
-0.00601519 -0.264617 0.197573
-0.00212102 -0.654903 0.488973
0 -0.626014 0
0 -0.531537 0
0 -0.199424 0
0 0.209629 0
0 0.537805 0
0 0.658492 0
0 0.525128 0
0 0.189166 0
0 -0.219778 0
0 -0.517033 0
-0.0913994 -0.384493 -0.678718
-0.257154 -0.333237 -0.588132
-0.317061 -0.125416 -0.22137
-0.254379 0.13187 0.232764
-0.0935482 0.338313 0.597157
0.103375 0.414231 0.731161
0.260415 0.330339 0.583079
0.316978 0.119024 0.210092
0.25101 -0.137325 -0.242342
0.0822316 -0.317558 -0.560563
-0.147536 0.00536801 -1.09558
-0.415096 0.00463578 -0.949359
-0.511798 0.00174473 -0.357333
-0.410617 -0.00183454 0.375726
-0.151005 -0.00470648 0.963926
0.166867 -0.00576265 1.18023
0.42036 -0.00459554 0.941204
0.511663 -0.00165584 0.339129
0.405179 0.00191038 -0.391186
0.132738 0.00443351 -0.904856
-0.146753 0.393158 -1.08976
-0.412891 0.340685 -0.944315
-0.509079 0.128232 -0.355435
-0.408437 -0.134833 0.37373
-0.150203 -0.345912 0.958804
0.16598 -0.423537 1.17396
0.418126 -0.337759 0.936204
0.508945 -0.121699 0.337327
0.403027 0.14038 -0.389108
0.132033 0.324715 -0.900049
-0.0893506 0.629265 -0.663504
-0.251389 0.545282 -0.574948
-0.309954 0.20524 -0.216408
-0.248677 -0.215805 0.227546
-0.0914512 -0.553645 0.583768
0.101058 -0.677889 0.714772
0.254577 -0.540599 0.570009
0.309873 -0.194784 0.205382
0.245384 0.224685 -0.236909
0.0803883 0.519718 -0.547997
0.0025235 0.622597 0.0187391
0.00709988 0.539504 0.0162382
0.00875391 0.203066 0.00611191
0.00702328 -0.213518 -0.00642653
0.00258282 -0.54778 -0.0164873
-0.00285412 -0.670705 -0.0201871
-0.00718995 -0.53487 -0.0160987
-0.00875161 -0.19272 -0.00580055
-0.00693027 0.222304 0.00669096
-0.00227038 0.514211 0.0154769
0.093424 0.375726 0.693752
0.26285 0.325582 0.60116
0.324084 0.122547 0.226273
0.260014 -0.128855 -0.23792
0.0956202 -0.330576 -0.610383
-0.105664 -0.40476 -0.747355
-0.266184 -0.322785 -0.595997
-0.323999 -0.116304 -0.214745
-0.25657 0.134157 0.24771
-0.0840531 0.310317 0.57298
0.148281 -0.0161028 1.10111
0.41717 -0.0139112 0.954106
0.514355 -0.0052348 0.359119
0.412669 0.0055041 -0.377604
0.15176 0.0141208 -0.968743
-0.1677 0.0172895 -1.18613
-0.42246 0.0137879 -0.945908
-0.51422 0.00496784 -0.340823
-0.407204 -0.00573367 0.393144
-0.133408 -0.0132995 0.909422
0.14593 -0.401718 1.08365
0.409898 -0.346663 0.937554
0.505372 -0.130446 0.352854
0.405462 0.137156 -0.371012
0.149109 0.351875 -0.95183
-0.164771 0.430838 -1.16542
-0.41508 0.343581 -0.929395
-0.505238 0.123793 -0.33487
-0.400104 -0.142886 0.386366
-0.131292 -0.331785 0.895003
0.087278 -0.632349 0.648113
0.228161 -0.510366 0.523089
0.281019 -0.191481 0.196254
0.225457 0.201279 -0.206297
0.0829118 0.516385 -0.529258
-0.091621 0.632265 -0.648027
-0.230806 0.504212 -0.516782
-0.280944 0.181631 -0.186159
-0.222692 -0.211025 0.216285
-0.0785236 -0.522266 0.535285
0 -0.225508 0
0 -0.191474 0
0 -0.0718379 0
0 0.0755141 0
0 0.193732 0
0 0.237207 0
0 0.189166 0
0 0.0681427 0
0 -0.0791702 0
0 -0.18625 0
-0.145067 -0.138505 -0.475585
-0.408131 -0.120066 -0.412133
-0.50321 -0.0451887 -0.155125
-0.403728 0.0475143 0.16311
-0.148471 0.121898 0.418458
0.164067 0.149252 0.512363
0.413306 0.119024 0.408596
0.503078 0.0428855 0.147222
0.39838 -0.0494779 -0.16982
0.130516 -0.114393 -0.392793
-0.234167 0.00193371 -0.767686
-0.658801 0.00167031 -0.665261
-0.812278 0.000628648 -0.250402
-0.651694 -0.000661 0.263292
-0.239661 -0.00169579 0.675472
0.264836 -0.00207635 0.827052
0.667154 -0.00165585 0.659551
0.812064 -0.000596628 0.237645
0.643062 0.00068831 -0.274122
0.210679 0.00159707 -0.634043
-0.232923 0.141626 -0.763608
-0.655302 0.122751 -0.661727
-0.807964 0.0462037 -0.249072
-0.648233 -0.048582 0.261893
-0.238388 -0.124637 0.671884
0.263429 -0.152606 0.822659
0.663611 -0.121699 0.656048
0.80775 -0.04385 0.236383
0.639646 0.0505791 -0.272666
0.20956 0.116971 -0.630675
-0.141816 0.226679 -0.464924
-0.398982 0.196469 -0.402895
-0.491931 0.073951 -0.151648
-0.394678 -0.0777577 0.159454
-0.145142 -0.199487 0.409078
0.160389 -0.244253 0.500878
0.404041 -0.194785 0.399436
0.491801 -0.0701836 0.143922
0.38945 0.0809539 -0.166013
0.127591 0.187217 -0.383988
0.00400525 0.224276 0.0131307
0.0112683 0.194387 0.0113788
0.0138933 0.0731673 0.00428293
0.0111466 -0.0769337 -0.00450338
0.00409923 -0.197373 -0.0115534
-0.00452978 -0.241664 -0.0141461
-0.0114111 -0.192721 -0.0112811
-0.0138897 -0.06944 -0.00406476
-0.0109991 0.080096 0.00468866
-0.0036035 0.185233 0.0108448
0.148281 0.135347 0.48612
0.41717 0.117309 0.421262
0.514355 0.0441554 0.158561
0.412669 -0.0464281 -0.166723
0.15176 -0.119111 -0.427727
-0.1677 -0.14584 -0.523712
-0.42246 -0.116304 -0.417645
-0.51422 -0.0419059 -0.150483
-0.407204 0.0483365 0.173581
-0.133408 0.111785 0.401493
0.235349 -0.00580066 0.77156
0.662094 -0.0050122 0.668589
0.816337 -0.00188613 0.251654
0.65495 0.00198316 -0.264608
0.240858 0.00508778 -0.678848
-0.266159 0.00622951 -0.831185
-0.670488 0.00496785 -0.662847
-0.816122 0.00178994 -0.238832
-0.646276 -0.00206581 0.275494
-0.211742 -0.00479084 0.637243
0.231617 -0.14471 0.759327
0.650553 -0.124902 0.656989
0.802081 -0.0470003 0.247262
0.643511 0.0494182 -0.259987
0.236652 0.126782 -0.666995
-0.26151 0.155233 -0.816674
-0.658778 0.123794 -0.651275
-0.801869 0.0446035 -0.23466
-0.635009 -0.0514808 0.270744
-0.208385 -0.119518 0.627139
0.138526 -0.227789 0.45414
0.362134 -0.183848 0.366535
0.446027 -0.0689767 0.137518
0.357841 0.0725064 -0.144555
0.131596 0.186016 -0.370857
-0.145419 0.227759 -0.45408
-0.36633 0.181631 -0.362115
-0.445909 0.0654286 -0.130444
-0.353452 -0.0760169 0.151554
-0.124631 -0.188134 0.375081
0 0.262001 0
0 0.222461 0
0 0.0834634 0
0 -0.0877345 0
0 -0.225084 0
0 -0.275594 0
0 -0.219778 0
0 -0.0791702 0
0 0.0919823 0
0 0.216391 0
-0.142767 0.160919 -0.0889687
-0.401016 0.138586 -0.077851
-0.494421 0.0521366 -0.0293214
-0.396675 -0.0548171 0.0308329
-0.145877 -0.140633 0.0791014
0.161201 -0.172192 0.0968523
0.406087 -0.137318 0.0772371
0.494291 -0.0494752 0.0278312
0.391434 0.0571368 -0.032056
0.128447 0.132905 -0.0734805
-0.230454 -0.00224664 -0.143613
-0.647316 -0.00192789 -0.125666
-0.798091 -0.000725271 -0.0473305
-0.64031 0.000762567 0.0497702
-0.235474 0.00195635 0.127685
0.260209 0.00239539 0.156338
0.655502 0.00191026 0.124675
0.797881 0.000688263 0.0449248
0.63185 -0.000794861 -0.0517446
0.207338 -0.00185553 -0.118612
-0.22923 -0.164546 -0.14285
-0.643878 -0.141656 -0.124999
-0.793851 -0.0532955 -0.047079
-0.636909 0.0560363 0.0495059
-0.234223 0.143761 0.127007
0.258827 0.176022 0.155508
0.65202 0.140372 0.124013
0.793642 0.0505761 0.0446862
0.628493 -0.0583979 -0.0514697
0.206237 -0.135901 -0.117982
-0.139567 -0.263362 -0.0869744
-0.392026 -0.226727 -0.0761058
-0.483338 -0.0853018 -0.0286642
-0.387783 0.0896882 0.0301417
-0.142607 0.230095 0.0773283
0.157587 0.28173 0.0946813
0.396984 0.224672 0.0755058
0.48321 0.0809492 0.0272073
0.382659 -0.0934679 -0.0313374
0.125568 -0.217514 -0.0718333
0.00394175 -0.260571 0.00245639
0.0110719 -0.224324 0.00214942
0.0136507 -0.084398 0.000809552
0.0109521 0.0887378 -0.000851279
0.00402764 0.227657 -0.00218394
-0.00445066 0.278744 -0.00267405
-0.0112118 0.222291 -0.00213246
-0.0136471 0.0800913 -0.000768405
-0.0108073 -0.0924773 0.000885055
-0.00354637 -0.215209 0.00202876
0.14593 -0.15725 0.0909394
0.409898 -0.135377 0.0795751
0.505372 -0.0509328 0.0299709
0.405462 0.0535518 -0.0315157
0.149109 0.137387 -0.0808534
-0.164771 0.168218 -0.0989976
-0.41508 0.134149 -0.0789477
-0.505238 0.0483337 -0.0284476
-0.400104 -0.0558086 0.0327661
-0.131292 -0.129875 0.0751081
0.231617 0.00673938 0.144337
0.650553 0.00578709 0.126293
0.802081 0.00217685 0.0475665
0.643511 -0.00228875 -0.0500183
0.236652 -0.00587179 -0.128321
-0.26151 -0.00718945 -0.157118
-0.658778 -0.00573336 -0.125297
-0.801869 -0.00206569 -0.0451487
-0.635009 0.00238628 0.0520031
-0.208385 0.00556615 0.11921
0.227945 0.168129 0.142049
0.639245 0.144222 0.124065
0.788112 0.0542485 0.0467214
0.632305 -0.0570368 -0.049129
0.23253 -0.146328 -0.12604
-0.256955 -0.179165 -0.154324
-0.647306 -0.142879 -0.123069
-0.787905 -0.051478 -0.0443456
-0.623969 0.0594709 0.0510923
-0.205081 0.13886 0.11732
0.13633 0.264653 0.0849569
0.356392 0.2136 0.0685684
0.438956 0.0801392 0.0257257
0.352167 -0.0842401 -0.0270422
0.12951 -0.216119 -0.0693769
-0.143113 -0.264617 -0.0849456
-0.360522 -0.211025 -0.0677416
-0.438839 -0.0760169 -0.0244024
-0.347848 0.0883187 0.0283514
-0.122655 0.21858 0.0701671
0 0.648428 0
0 0.523344 0
0 0.19635 0
0 -0.206398 0
0 -0.529515 0
0 -0.648342 0
0 -0.517034 0
0 -0.18625 0
0 0.216391 0
0 0.535546 0
-0.0853866 0.39826 0.331973
-0.223217 0.321434 0.267934
-0.274929 0.120597 0.100524
-0.220571 -0.126768 -0.105669
-0.0811151 -0.325224 -0.271094
0.0896355 -0.398207 -0.331929
0.225804 -0.317558 -0.264704
0.274856 -0.114393 -0.0953536
0.217866 0.132905 0.110785
0.0768219 0.328928 0.274181
-0.13783 -0.00556021 0.535869
-0.360315 -0.00448762 0.432498
-0.443788 -0.00168368 0.162266
-0.356044 0.00176984 -0.170569
-0.130935 0.00454054 -0.437598
0.144689 0.00555947 -0.535798
0.364491 0.00443351 -0.427283
0.44367 0.00159707 -0.153919
0.351678 -0.00185553 0.178828
0.124005 -0.00459225 0.442582
-0.137098 -0.407235 0.533022
-0.358401 -0.328678 0.4302
-0.44143 -0.123314 0.161404
-0.354152 0.129625 -0.169663
-0.13024 0.332554 -0.435273
0.14392 0.407181 -0.532951
0.362555 0.324715 -0.425013
0.441313 0.116971 -0.153101
0.34981 -0.135901 0.177878
0.123347 -0.336341 0.44023
-0.0834726 -0.651796 0.324532
-0.218213 -0.526062 0.261928
-0.268766 -0.197369 0.098271
-0.215626 0.207469 -0.1033
-0.0792968 0.532265 -0.265017
0.0876262 0.651709 -0.324488
0.220742 0.519719 -0.25877
0.268694 0.187217 -0.0932161
0.212982 -0.217514 0.108301
0.0750998 -0.538327 0.268035
0.00235749 -0.644889 -0.00916564
0.00616293 -0.520487 -0.00739755
0.00759066 -0.195278 -0.00277544
0.00608987 0.205271 0.00291746
0.00223955 0.526625 0.00748478
-0.0024748 0.644803 0.00916442
-0.00623435 0.514211 0.00730835
-0.00758865 0.185233 0.00263267
-0.00601519 -0.215209 -0.00305872
-0.00212102 -0.532622 -0.00757003
0.087278 -0.389179 -0.339327
0.228161 -0.314105 -0.273869
0.281019 -0.117847 -0.102751
0.225457 0.123877 0.108009
0.0829118 0.317809 0.277099
-0.091621 0.389127 0.339282
-0.230806 0.310317 0.270567
-0.280944 0.111785 0.0974657
-0.222692 -0.129875 -0.113239
-0.0785236 -0.321428 -0.280255
0.138526 0.0166793 -0.538573
0.362134 0.0134618 -0.43468
0.446027 0.00505064 -0.163085
0.357841 -0.0053091 0.17143
0.131596 -0.0136206 0.439806
-0.145419 -0.0166771 0.538501
-0.36633 -0.0132995 0.429439
-0.445909 -0.00479084 0.154696
-0.353452 0.00556615 -0.17973
-0.124631 0.0137757 -0.444815
0.13633 0.416102 -0.530034
0.356392 0.335834 -0.427788
0.438956 0.125999 -0.160499
0.352167 -0.132447 0.168712
0.12951 -0.339794 0.432833
-0.143113 -0.416047 0.529963
-0.360522 -0.331785 0.42263
-0.438839 -0.119518 0.152243
-0.347848 0.13886 -0.176881
-0.122655 0.343664 -0.437762
0.0815363 0.65499 -0.317004
0.213152 0.52864 -0.255853
0.262531 0.198337 -0.0959915
0.210625 -0.208486 0.100904
0.0774574 -0.534874 0.25887
-0.0855936 -0.654903 0.316962
-0.215622 -0.522266 0.252767
-0.262462 -0.188134 0.0910538
-0.208042 0.21858 -0.105789
-0.0733578 0.540965 -0.261818
