# vtk DataFile Version 3.0
Velocity field
ASCII
DATASET STRUCTURED_POINTS
DIMENSIONS 5 5 5
SPACING 1.33333 1.33333 1.33333
ORIGIN 0 0 0
POINT_DATA 125
VECTORS velocity float
0 0.294692 0
0 0.0693226 0
0 -0.262078 0
0 -0.192624 0
0 0.171453 0
0 -0.156047 0.511792
0 -0.0367081 0.138749
0 0.138777 -0.524549
0 0.101999 -0.385536
0 -0.0907886 0.297762
0 -0.368108 0.240785
0 -0.0865929 0.0652781
0 0.327368 -0.246787
0 0.240612 -0.181385
0 -0.214167 0.14009
0 -0.017139 -0.398508
0 -0.00403175 -0.108038
0 0.0152422 0.408441
0 0.0112028 0.300199
0 -0.00997156 -0.231854
0 0.360045 -0.428274
0 0.084696 -0.100746
0 -0.320197 0.380875
0 -0.235341 0.279938
0 0.209475 -0.249171
0 0.0693226 0
0 0.0207501 0
0 -0.0784468 0
0 -0.0576574 0
0 0.0403321 0
0.219045 -0.0367081 0.179732
0.332598 -0.00888712 0.0437235
-0.0697105 0.0336131 -0.165385
-0.36541 0.0247074 -0.121568
-0.0989773 -0.0213569 0.104569
0.103055 -0.0865929 0.0845596
0.156479 -0.021015 0.0205709
-0.0327971 0.0794863 -0.0778095
-0.171916 0.0584269 -0.0571949
-0.0465664 -0.05038 0.0491971
-0.17056 -0.00403175 -0.139949
-0.258946 -0.000980718 -0.0340412
0.0542736 0.00370964 0.128761
0.284492 0.00272683 0.0946475
0.077069 -0.00234568 -0.0814229
-0.1833 0.084696 -0.150402
-0.269537 0.0199237 -0.0353802
0.0564889 -0.0753224 0.133757
0.296114 -0.055361 0.0983094
0.0828254 0.0492765 -0.0875046
0 -0.262078 0
0 -0.0784469 0
0 0.296572 0
0 0.217977 0
0 -0.152477 0
0.103055 0.138777 -0.427232
0.156479 0.0336131 -0.103733
-0.0327971 -0.127134 0.392363
-0.171916 -0.0934503 0.28841
-0.0465664 0.0807406 -0.248565
0.0484849 0.327368 -0.201002
0.0736194 0.0794863 -0.0488041
-0.0154302 -0.300649 0.184597
-0.080882 -0.220995 0.135689
-0.0219083 0.190464 -0.116944
-0.0802443 0.0152422 0.332666
-0.121828 0.00370963 0.0807627
0.0255344 -0.0140321 -0.305476
0.133846 -0.0103145 -0.224543
0.0362591 0.00886796 0.193546
-0.0862379 -0.320197 0.357513
-0.126811 -0.0753224 0.0841005
0.0265766 0.28476 -0.317946
0.139314 0.209295 -0.233686
0.0389673 -0.186292 0.208002
0 -0.192624 0
0 -0.0576575 0
0 0.217977 0
0 0.16021 0
0 -0.112069 0
-0.17056 0.101999 -0.380735
-0.258946 0.0247075 -0.0924508
0.0542736 -0.0934506 0.349686
0.284492 -0.0686912 0.25704
0.077069 0.0593433 -0.221513
-0.0802443 0.240612 -0.179126
-0.121828 0.0584271 -0.0434957
0.0255344 -0.220995 0.164519
0.133846 -0.162445 0.120931
0.0362591 0.139989 -0.104216
0.132807 0.0112028 0.29646
0.201605 0.00272683 0.0719783
-0.042255 -0.0103146 -0.27225
-0.221493 -0.00758193 -0.200121
-0.06001 0.00651784 0.172482
0.142727 -0.235341 0.318603
0.209876 -0.055361 0.0749474
-0.0439853 0.209295 -0.283342
-0.23057 0.153829 -0.208253
-0.0644923 -0.136922 0.185365
0 0.171453 0
0 0.0403321 0
0 -0.152478 0
0 -0.112069 0
0 0.0997519 0
-0.1833 -0.0907886 0.248106
-0.269537 -0.0213569 0.0583639
0.0564889 0.0807407 -0.220647
0.296114 0.0593433 -0.162173
0.0828254 -0.0528211 0.144349
-0.0862379 -0.214167 0.116728
-0.126811 -0.05038 0.0274587
0.0265766 0.190464 -0.103809
0.139314 0.139989 -0.0762983
0.0389673 -0.124603 0.0679126
0.142727 -0.00997156 -0.193189
0.209876 -0.00234568 -0.0454452
-0.0439853 0.00886797 0.171808
-0.23057 0.00651784 0.126276
-0.0644923 -0.00580149 -0.112398
0.153387 0.209475 -0.207618
0.225552 0.0492765 -0.0488396
-0.0472706 -0.186292 0.18464
-0.247792 -0.136922 0.135708
-0.0693093 0.121874 -0.120793
