# vtk DataFile Version 3.0
Velocity field
ASCII
DATASET STRUCTURED_POINTS
DIMENSIONS 5 5 5
SPACING 1.33333 1.33333 1.33333
ORIGIN 0 0 0
POINT_DATA 125
VECTORS velocity float
0 0.650482 0
0 0.153018 0
0 -0.57849 0
0 -0.425183 0
0 0.378452 0
0 -0.344446 1.12969
0 -0.0810267 0.306265
0 0.306325 -1.15785
0 0.225145 -0.851005
0 -0.2004 0.657259
0 -0.812535 0.531492
0 -0.191139 0.14409
0 0.722609 -0.544739
0 0.531108 -0.400377
0 -0.472736 0.309224
0 -0.0378315 -0.879638
0 -0.00889938 -0.238474
0 0.0336445 0.901563
0 0.0247283 0.662637
0 -0.0220105 -0.511776
0 0.794736 -0.945339
0 0.186952 -0.222379
0 -0.70678 0.840715
0 -0.519474 0.617915
0 0.46238 -0.550002
0 0.153018 0
0 0.0458023 0
0 -0.173158 0
0 -0.127269 0
0 0.0890262 0
0.483504 -0.0810267 0.396728
0.771928 -0.0204752 0.101414
-0.161861 0.0776255 -0.384642
-0.84829 0.0570862 -0.282891
-0.218475 -0.0471416 0.230818
0.227477 -0.191139 0.186651
0.363176 -0.0485442 0.0477131
-0.0761523 0.184069 -0.180965
-0.399102 0.135369 -0.133095
-0.102787 -0.111205 0.108594
-0.376482 -0.00889938 -0.308913
-0.60059 -0.00229144 -0.0789057
0.125934 0.00869555 0.299259
0.660003 0.00639598 0.220094
0.170116 -0.00517769 -0.179727
-0.404602 0.186952 -0.331987
-0.594957 0.0439781 -0.0780957
0.12469 -0.166261 0.295245
0.65362 -0.1222 0.217001
0.182823 0.108769 -0.193151
0 -0.57849 0
0 -0.173158 0
0 0.654632 0
0 0.481146 0
0 -0.336568 0
0.227477 0.306325 -0.943041
0.363176 0.0776255 -0.240218
-0.0761523 -0.294341 0.911016
-0.399102 -0.216468 0.670013
-0.102787 0.178221 -0.548665
0.107022 0.722609 -0.443677
0.170866 0.184069 -0.113018
-0.0358281 -0.698072 0.428615
-0.18777 -0.513401 0.315226
-0.0483588 0.420416 -0.258133
-0.177125 0.0336445 0.734302
-0.282566 0.00869555 0.186907
0.0592492 -0.0330056 -0.708807
0.310517 -0.0242784 -0.521291
0.0800355 0.0195745 0.427219
-0.190355 -0.70678 0.789148
-0.279912 -0.166261 0.185637
0.0586633 0.628558 -0.70181
0.307512 0.461982 -0.515822
0.0860135 -0.411207 0.459129
0 -0.425183 0
0 -0.127269 0
0 0.481146 0
0 0.353636 0
0 -0.247373 0
-0.376482 0.225145 -0.840405
-0.600591 0.0570867 -0.214174
0.125934 -0.21647 0.812265
0.660003 -0.159199 0.597389
0.170116 0.13099 -0.488951
-0.177125 0.531108 -0.39539
-0.282566 0.13537 -0.100764
0.0592492 -0.513406 0.382155
0.310517 -0.37759 0.28106
0.0800355 0.309001 -0.230039
0.293149 0.0247283 0.654384
0.467292 0.00639604 0.166642
-0.097982 -0.0242786 -0.631971
-0.513513 -0.0178591 -0.464785
-0.132462 0.014387 0.380723
0.315045 -0.519474 0.703261
0.463265 -0.1222 0.165433
-0.0970899 0.461982 -0.625429
-0.508943 0.339551 -0.459682
-0.142355 -0.302232 0.40916
0 0.378452 0
0 0.0890262 0
0 -0.336568 0
0 -0.247373 0
0 0.220185 0
-0.404602 -0.2004 0.547651
-0.594957 -0.0471416 0.128828
0.124689 0.178221 -0.487041
0.65362 0.13099 -0.357969
0.182823 -0.116593 0.318625
-0.190355 -0.472736 0.257656
-0.279912 -0.111205 0.0606104
0.0586633 0.420416 -0.22914
0.307512 0.309001 -0.168415
0.0860135 -0.275039 0.149905
0.315045 -0.0220105 -0.42643
0.463265 -0.00517769 -0.100312
-0.0970898 0.0195745 0.379236
-0.508943 0.014387 0.278733
-0.142355 -0.0128058 -0.248099
0.338576 0.46238 -0.458281
0.497867 0.108769 -0.107805
-0.104342 -0.411207 0.407561
-0.546957 -0.302232 0.299552
-0.152988 0.269015 -0.26663
