# vtk DataFile Version 3.0
Velocity field
ASCII
DATASET STRUCTURED_POINTS
DIMENSIONS 8 8 8
SPACING 0.8 0.8 0.8
ORIGIN 0 0 0
POINT_DATA 512
VECTORS velocity float
0 0.000299345 0
0 0.000208556 0
0 -8.74073e-06 0
0 -0.000220735 0
0 -0.000298834 0
0 -0.000195665 0
0 2.61924e-05 0
0 0.000232162 0
0 0.000117766 0.000305526
0 8.20485e-05 0.000225684
0 -3.43872e-06 -9.45861e-06
0 -8.68401e-05 -0.000238864
0 -0.000117565 -0.000323378
0 -7.69772e-05 -0.000211735
0 1.03044e-05 2.83436e-05
0 9.13355e-05 0.000236956
0 -0.000135248 0.000425724
0 -9.4228e-05 0.000314471
0 3.94917e-06 -1.31798e-05
0 9.97308e-05 -0.000332836
0 0.000135017 -0.000450599
0 8.84038e-05 -0.000295034
0 -1.18341e-05 3.94944e-05
0 -0.000104894 0.000330177
0 -0.000306222 0.000287684
0 -0.000213347 0.000212504
0 8.94155e-06 -8.90623e-06
0 0.000225806 -0.000224914
0 0.0003057 -0.000304493
0 0.00020016 -0.00019937
0 -2.67942e-05 2.66884e-05
0 -0.000237496 0.000223118
0 -0.000291446 -2.48619e-05
0 -0.000203053 -1.83648e-05
0 8.5101e-06 7.69685e-07
0 0.000214911 1.94373e-05
0 0.000290949 2.63146e-05
0 0.000190502 1.72297e-05
0 -2.55013e-05 -2.30644e-06
0 -0.000226036 -1.9282e-05
0 -9.98832e-05 -0.000322327
0 -6.95893e-05 -0.000238094
0 2.91654e-06 9.97873e-06
0 7.36532e-05 0.000251999
0 9.97128e-05 0.00034116
0 6.5288e-05 0.000223378
0 -8.73969e-06 -2.99022e-05
0 -7.74659e-05 -0.000249985
0 0.000152268 -0.000424272
0 0.000106086 -0.000313399
0 -4.44616e-06 1.31348e-05
0 -0.000112281 0.000331701
0 -0.000152008 0.000449062
0 -9.9529e-05 0.000294028
0 1.33233e-05 -3.93597e-05
0 0.000118094 -0.000329051
0 0.000312055 -0.00026886
0 0.000217411 -0.000187317
0 -9.11187e-06 7.85059e-06
0 -0.000230108 0.000198256
0 -0.000311523 0.000268402
0 -0.000203973 0.000175739
0 2.73046e-05 -2.3525e-05
0 0.000242019 -0.000208519
0 0.000208556 0
0 0.000157755 0
0 -6.61164e-06 0
0 -0.000166968 0
0 -0.000226044 0
0 -0.000148004 0
0 1.98124e-05 0
0 0.000161749 0
6.51282e-05 8.20485e-05 0.000301777
0.000155883 5.71655e-05 0.000210256
0.00015208 -2.39585e-06 -8.81199e-06
5.60266e-05 -6.05039e-05 -0.000222534
-7.40114e-05 -8.19111e-05 -0.000301271
-0.000159155 -5.36321e-05 -0.00019726
-0.000147757 7.1794e-06 2.64059e-05
-4.67308e-05 6.3634e-05 0.000234048
9.07506e-05 -9.4228e-05 0.0004205
0.00021721 -6.56511e-05 0.000292973
0.00021191 2.75149e-06 -1.22787e-05
7.80682e-05 6.94851e-05 -0.000310083
-0.000103128 9.40699e-05 -0.000419794
-0.000221769 6.15932e-05 -0.000274865
-0.000205887 -8.2451e-06 3.67944e-05
-6.51154e-05 -7.308e-05 0.000326125
6.13248e-05 -0.000213347 0.000284153
0.00014678 -0.000148644 0.000197977
0.000143198 6.22981e-06 -8.29738e-06
5.27547e-05 0.000157325 -0.000209539
-6.96892e-05 0.000212989 -0.000283677
-0.000149861 0.000139457 -0.00018574
-0.000139128 -1.86682e-05 2.48639e-05
-4.40018e-05 -0.000165465 0.000220379
-5.29975e-06 -0.000203053 -2.45568e-05
-1.26849e-05 -0.000141472 -1.71094e-05
-1.23753e-05 5.92921e-06 7.17067e-07
-4.55911e-06 0.000149734 1.81085e-05
6.0226e-06 0.000202712 2.45156e-05
1.29511e-05 0.000132728 1.60518e-05
1.20236e-05 -1.77674e-05 -2.14876e-06
3.80268e-06 -0.000157481 -1.90454e-05
-6.87096e-05 -6.95893e-05 -0.000318371
-0.000164455 -4.84846e-05 -0.000221817
-0.000160442 2.03203e-06 9.29655e-06
-5.91074e-05 5.13161e-05 0.000234771
7.80811e-05 6.94725e-05 0.000317837
0.000167907 4.54878e-05 0.000208107
0.000155882 -6.08917e-06 -2.7858e-05
4.93005e-05 -5.3971e-05 -0.000246918
-9.04411e-05 0.000106086 -0.000419065
-0.000216469 7.3913e-05 -0.000291974
-0.000211187 -3.09775e-06 1.22369e-05
-7.7802e-05 -7.82294e-05 0.000309025
0.000102777 -0.000105908 0.000418363
0.000221012 -6.93444e-05 0.000273927
0.000205185 9.2827e-06 -3.66689e-05
6.48933e-05 8.22768e-05 -0.000325013
-5.73122e-05 0.000217411 -0.000265561
-0.000137172 0.000151472 -0.000185018
-0.000133825 -6.3483e-06 7.75425e-06
-4.93015e-05 -0.000160318 0.000195823
6.51275e-05 -0.00021704 0.000265108
0.000140051 -0.000142109 0.000173582
0.000130022 1.90233e-05 -2.32363e-05
4.11227e-05 0.000168617 -0.00020596
0 -8.74073e-06 0
0 -6.61164e-06 0
0 2.77099e-07 0
0 6.99776e-06 0
0 9.47367e-06 0
0 6.20298e-06 0
0 -8.30354e-07 0
0 -6.77901e-06 0
9.07506e-05 -3.43872e-06 0.000114973
0.00021721 -2.39585e-06 8.0105e-05
0.00021191 1.00412e-07 -3.35727e-06
7.80682e-05 2.53577e-06 -8.47831e-05
-0.000103128 3.43296e-06 -0.000114781
-0.000221769 2.24777e-06 -7.51538e-05
-0.000205887 -3.00894e-07 1.00604e-05
-6.51154e-05 -2.66695e-06 8.91695e-05
0.000126453 3.94917e-06 0.000160206
0.000302663 2.75149e-06 0.000111619
0.000295278 -1.15317e-07 -4.67806e-06
0.000108781 -2.91218e-06 -0.000118138
-0.000143701 -3.94255e-06 -0.000159937
-0.000309016 -2.58142e-06 -0.00010472
-0.000286886 3.45559e-07 1.40182e-05
-9.07326e-05 3.06284e-06 0.00012425
8.54508e-05 8.94155e-06 0.000108259
0.000204525 6.22981e-06 7.5427e-05
0.000199534 -2.61096e-07 -3.1612e-06
7.35091e-05 -6.59362e-06 -7.98318e-05
-9.71058e-05 -8.92655e-06 -0.000108077
-0.000208818 -5.84475e-06 -7.07648e-05
-0.000193863 7.824e-07 9.47285e-06
-6.13127e-05 6.93476e-06 8.39621e-05
-7.38474e-06 8.5101e-06 -9.35586e-06
-1.76752e-05 5.92921e-06 -6.51847e-06
-1.7244e-05 -2.48498e-07 2.73194e-07
-6.35273e-06 -6.27547e-06 6.89914e-06
8.39198e-06 -8.49583e-06 9.34017e-06
1.80462e-05 -5.56272e-06 6.11556e-06
1.67539e-05 7.44647e-07 -8.18652e-07
5.2987e-06 6.60015e-06 -7.25609e-06
-9.57408e-05 2.91654e-06 -0.000121296
-0.000229154 2.03203e-06 -8.45099e-05
-0.000223562 -8.51641e-08 3.54188e-06
-8.23611e-05 -2.1507e-06 8.94451e-05
0.000108799 -2.91165e-06 0.000121092
0.000233963 -1.90643e-06 7.92863e-05
0.000217208 2.55202e-07 -1.06136e-05
6.8696e-05 2.26197e-06 -9.40728e-05
-0.000126022 -4.44616e-06 -0.000159659
-0.000301631 -3.09775e-06 -0.000111239
-0.000294271 1.29829e-07 4.66211e-06
-0.00010841 3.27866e-06 0.000117735
0.00014321 4.4387e-06 0.000159391
0.000307962 2.90628e-06 0.000104363
0.000285907 -3.89046e-07 -1.39704e-05
9.04232e-05 -3.44829e-06 -0.000123826
-7.98596e-05 -9.11187e-06 -0.000101176
-0.000191137 -6.3483e-06 -7.04897e-05
-0.000186473 2.66063e-07 2.95428e-06
-6.86974e-05 6.71904e-06 7.46063e-05
9.07495e-05 9.09634e-06 0.000101003
0.000195149 5.95592e-06 6.61328e-05
0.000181174 -7.97281e-07 -8.85278e-06
5.73009e-05 -7.06686e-06 -7.84683e-05
0 -0.000220735 0
0 -0.000166968 0
0 6.99776e-06 0
0 0.000176719 0
0 0.000239244 0
0 0.000156648 0
0 -2.09694e-05 0
0 -0.000171195 0
6.13248e-05 -8.68401e-05 -0.000141571
0.00014678 -6.05039e-05 -9.86362e-05
0.000143198 2.53577e-06 4.13393e-06
5.27547e-05 6.40373e-05 0.000104396
-6.96892e-05 8.66947e-05 0.000141334
-0.000149861 5.67642e-05 9.25395e-05
-0.000139128 -7.59867e-06 -1.23877e-05
-4.40018e-05 -6.73502e-05 -0.000109798
8.54508e-05 9.97308e-05 -0.000197267
0.000204525 6.94851e-05 -0.000137441
0.000199534 -2.91218e-06 5.76026e-06
7.35091e-05 -7.35429e-05 0.000145468
-9.71058e-05 -9.95635e-05 0.000196936
-0.000208818 -6.51902e-05 0.000128946
-0.000193863 8.72661e-06 -1.72612e-05
-6.13127e-05 7.73478e-05 -0.000152994
5.77435e-05 0.000225806 -0.000133303
0.000138208 0.000157325 -9.28759e-05
0.000134836 -6.59362e-06 3.89251e-06
4.96738e-05 -0.000166513 9.82998e-05
-6.56194e-05 -0.000225428 0.00013308
-0.000141109 -0.000147601 8.71354e-05
-0.000131003 1.97584e-05 -1.16643e-05
-4.14321e-05 0.000175128 -0.000103386
-4.99025e-06 0.000214911 1.15202e-05
-1.19441e-05 0.000149734 8.02643e-06
-1.16526e-05 -6.27547e-06 -3.36394e-07
-4.29286e-06 -0.000158478 -8.49517e-06
5.67089e-06 -0.00021455 -1.15009e-05
1.21948e-05 -0.000140479 -7.53032e-06
1.13214e-05 1.8805e-05 1.00804e-06
3.5806e-06 0.000166677 8.93469e-06
-6.4697e-05 7.36532e-05 0.000149356
-0.000154851 5.13161e-05 0.00010406
-0.000151073 -2.1507e-06 -4.36124e-06
-5.56556e-05 -5.43129e-05 -0.000110137
7.35213e-05 -7.35296e-05 -0.000149105
0.000158101 -4.81443e-05 -9.76282e-05
0.000146779 6.44477e-06 1.30689e-05
4.64214e-05 5.71229e-05 0.000115835
-8.51594e-05 -0.000112281 0.000196594
-0.000203827 -7.82294e-05 0.000136972
-0.000198854 3.27866e-06 -5.74062e-06
-7.32584e-05 8.27979e-05 -0.000144971
9.67746e-05 0.000112093 -0.000196264
0.000208105 7.33941e-05 -0.000128506
0.000193202 -9.82481e-06 1.72023e-05
6.11036e-05 -8.70817e-05 0.000152472
-5.39653e-05 -0.000230108 0.000124581
-0.000129161 -0.000160318 8.67966e-05
-0.00012601 6.71904e-06 -3.63772e-06
-4.64223e-05 0.00016968 -9.18654e-05
6.13241e-05 0.000229715 -0.000124369
0.000131872 0.000150408 -8.14317e-05
0.000122428 -2.01342e-05 1.09008e-05
3.87212e-05 -0.000178464 9.66209e-05
0 -0.000298834 0
0 -0.000226044 0
0 9.47367e-06 0
0 0.000239244 0
0 0.000323893 0
0 0.000212072 0
0 -2.83887e-05 0
0 -0.000231766 0
-5.29975e-06 -0.000117565 -0.00031224
-1.26849e-05 -8.19111e-05 -0.000217546
-1.23753e-05 3.43296e-06 9.11753e-06
-4.55911e-06 8.66947e-05 0.00023025
6.0226e-06 0.000117369 0.000311717
1.29511e-05 7.68482e-05 0.0002041
1.20236e-05 -1.02872e-05 -2.73215e-05
3.80268e-06 -9.11797e-05 -0.000242163
-7.38474e-06 0.000135017 -0.00043508
-1.76752e-05 9.40699e-05 -0.000303132
-1.7244e-05 -3.94255e-06 1.27045e-05
-6.35273e-06 -9.95635e-05 0.000320834
8.39198e-06 -0.000134791 0.00043435
1.80462e-05 -8.82555e-05 0.000284395
1.67539e-05 1.18142e-05 -3.80702e-05
5.2987e-06 0.000104715 -0.000337433
-4.99025e-06 0.0003057 -0.000294006
-1.19441e-05 0.000212989 -0.000204841
-1.16526e-05 -8.92655e-06 8.58508e-06
-4.29286e-06 -0.000225428 0.000216804
5.67089e-06 -0.000305187 0.000293513
1.21948e-05 -0.000199824 0.00019218
1.13214e-05 2.67492e-05 -2.5726e-05
3.5806e-06 0.000237091 -0.000228021
4.31262e-07 0.000290949 2.54083e-05
1.03222e-06 0.000202712 1.77026e-05
1.00703e-06 -8.49583e-06 -7.4193e-07
3.70993e-07 -0.00021455 -1.87364e-05
-4.90084e-07 -0.000290461 -2.53656e-05
-1.05388e-06 -0.000190182 -1.66084e-05
-9.78411e-07 2.54585e-05 2.22326e-06
-3.09439e-07 0.00022565 1.97058e-05
5.59118e-06 9.97128e-05 0.00032941
1.33824e-05 6.94725e-05 0.000229508
1.30558e-05 -2.91165e-06 -9.61889e-06
4.80981e-06 -7.35296e-05 -0.000242912
-6.35378e-06 -9.95455e-05 -0.000328857
-1.36633e-05 -6.51784e-05 -0.000215323
-1.26848e-05 8.72503e-06 2.88239e-05
-4.01178e-06 7.73339e-05 0.000255479
7.35956e-06 -0.000152008 0.000433596
1.76149e-05 -0.000105908 0.000302098
1.71851e-05 4.4387e-06 -1.26612e-05
6.33106e-06 0.000112093 -0.00031974
-8.36336e-06 0.000151753 -0.000432869
-1.79847e-05 9.9362e-05 -0.000283425
-1.66967e-05 -1.3301e-05 3.79404e-05
-5.28063e-06 -0.000117892 0.000336282
4.66373e-06 -0.000311523 0.000274769
1.11622e-05 -0.00021704 0.000191433
1.08899e-05 9.09634e-06 -8.02312e-06
4.01187e-06 0.000229715 -0.000202613
-5.29969e-06 0.000310992 -0.0002743
-1.13965e-05 0.000203625 -0.000179601
-1.05804e-05 -2.7258e-05 2.4042e-05
-3.34632e-06 -0.000241607 0.000213101
0 -0.000195665 0
0 -0.000148004 0
0 6.20298e-06 0
0 0.000156648 0
0 0.000212072 0
0 0.000138856 0
0 -1.85878e-05 0
0 -0.000151751 0
-6.87096e-05 -7.69772e-05 -0.000293509
-0.000164455 -5.36321e-05 -0.000204495
-0.000160442 2.24777e-06 8.57057e-06
-5.91074e-05 5.67642e-05 0.000216438
7.80811e-05 7.68482e-05 0.000293017
0.000167907 5.03172e-05 0.000191855
0.000155882 -6.73564e-06 -2.56825e-05
4.93005e-05 -5.97008e-05 -0.000227636
-9.57408e-05 8.84038e-05 -0.000408979
-0.000229154 6.15932e-05 -0.000284947
-0.000223562 -2.58142e-06 1.19423e-05
-8.23611e-05 -6.51902e-05 0.000301587
0.000108799 -8.82555e-05 0.000408293
0.000233963 -5.77862e-05 0.000267334
0.000217208 7.73547e-06 -3.57863e-05
6.8696e-05 6.8563e-05 -0.00031719
-6.4697e-05 0.00020016 -0.000276368
-0.000154851 0.000139457 -0.000192553
-0.000151073 -5.84475e-06 8.07005e-06
-5.56556e-05 -0.000147601 0.000203798
7.35213e-05 -0.000199824 0.000275905
0.000158101 -0.000130837 0.000180651
0.000146779 1.75143e-05 -2.41827e-05
4.64214e-05 0.000155237 -0.000214342
5.59118e-06 0.000190502 2.3884e-05
1.33824e-05 0.000132728 1.66406e-05
1.30558e-05 -5.56272e-06 -6.97421e-07
4.80981e-06 -0.000140479 -1.76124e-05
-6.35378e-06 -0.000190182 -2.38439e-05
-1.36633e-05 -0.000124524 -1.56121e-05
-1.26848e-05 1.66692e-05 2.08989e-06
-4.01178e-06 0.000147747 1.85236e-05
7.24878e-05 6.5288e-05 0.000309649
0.000173498 4.54878e-05 0.00021574
0.000169265 -1.90643e-06 -9.04185e-06
6.23576e-05 -4.81443e-05 -0.000228339
-8.23747e-05 -6.51784e-05 -0.000309129
-0.00017714 -4.26763e-05 -0.000202406
-0.000164454 5.7128e-06 2.70947e-05
-5.20114e-05 5.06351e-05 0.000240153
9.54143e-05 -9.9529e-05 0.000407585
0.000228372 -6.93444e-05 0.000283975
0.0002228 2.90628e-06 -1.19016e-05
8.20802e-05 7.33941e-05 -0.000300559
-0.000108428 9.9362e-05 -0.000406901
-0.000233165 6.50583e-05 -0.000266422
-0.000216468 -8.70895e-06 3.56643e-05
-6.84617e-05 -7.71913e-05 0.000316109
6.04638e-05 -0.000203973 0.000258285
0.000144715 -0.000142109 0.000179949
0.000141184 5.95592e-06 -7.54181e-06
5.20125e-05 0.000150408 -0.000190458
-6.87088e-05 0.000203625 -0.000257845
-0.000147752 0.000133326 -0.000168826
-0.000137171 -1.78475e-05 2.25997e-05
-4.3384e-05 -0.000158194 0.000200317
0 2.61924e-05 0
0 1.98124e-05 0
0 -8.30354e-07 0
0 -2.09694e-05 0
0 -2.83887e-05 0
0 -1.85878e-05 0
0 2.48823e-06 0
0 2.03139e-05 0
-9.04411e-05 1.03044e-05 -9.67388e-05
-0.000216469 7.1794e-06 -6.74005e-05
-0.000211187 -3.00894e-07 2.82481e-06
-7.7802e-05 -7.59867e-06 7.13366e-05
0.000102777 -1.02872e-05 9.65765e-05
0.000221012 -6.73564e-06 6.32345e-05
0.000205185 9.01658e-07 -8.4648e-06
6.48933e-05 7.99178e-06 -7.50273e-05
-0.000126022 -1.18341e-05 -0.000134797
-0.000301631 -8.2451e-06 -9.39167e-05
-0.000294271 3.45559e-07 3.93613e-06
-0.00010841 8.72661e-06 9.94014e-05
0.00014321 1.18142e-05 0.000134571
0.000307962 7.73547e-06 8.81118e-05
0.000285907 -1.0355e-06 -1.1795e-05
9.04232e-05 -9.17809e-06 -0.000104544
-8.51594e-05 -2.67942e-05 -9.10894e-05
-0.000203827 -1.86682e-05 -6.34643e-05
-0.000198854 7.824e-07 2.65984e-06
-7.32584e-05 1.97584e-05 6.71706e-05
9.67746e-05 2.67492e-05 9.09366e-05
0.000208105 1.75143e-05 5.95416e-05
0.000193202 -2.34454e-06 -7.97047e-06
6.11036e-05 -2.07807e-05 -7.06458e-05
7.35956e-06 -2.55013e-05 7.87203e-06
1.76149e-05 -1.77674e-05 5.48465e-06
1.71851e-05 7.44647e-07 -2.29866e-07
6.33106e-06 1.8805e-05 -5.80495e-06
-8.36336e-06 2.54585e-05 -7.85883e-06
-1.79847e-05 1.66692e-05 -5.14565e-06
-1.66967e-05 -2.23141e-06 6.88816e-07
-5.28063e-06 -1.9778e-05 6.10528e-06
9.54143e-05 -8.73969e-06 0.000102058
0.000228372 -6.08917e-06 7.11067e-05
0.0002228 2.55202e-07 -2.98014e-06
8.20802e-05 6.44477e-06 -7.52593e-05
-0.000108428 8.72503e-06 -0.000101887
-0.000233165 5.7128e-06 -6.67117e-05
-0.000216468 -7.64736e-07 8.93027e-06
-6.84617e-05 -6.77821e-06 7.9153e-05
0.000125592 1.33233e-05 0.000134337
0.000300602 9.2827e-06 9.35964e-05
0.000293267 -3.89046e-07 -3.9227e-06
0.000108041 -9.82481e-06 -9.90623e-05
-0.000142722 -1.3301e-05 -0.000134112
-0.000306911 -8.70895e-06 -8.78113e-05
-0.000284932 1.16581e-06 1.17547e-05
-9.01148e-05 1.03331e-05 0.000104188
7.95873e-05 2.73046e-05 8.51293e-05
0.000190485 1.90233e-05 5.93101e-05
0.000185837 -7.97281e-07 -2.48574e-06
6.84631e-05 -2.01342e-05 -6.27738e-05
-9.04401e-05 -2.7258e-05 -8.49841e-05
-0.000194483 -1.78475e-05 -5.56442e-05
-0.000180556 2.38913e-06 7.44874e-06
-5.71055e-05 2.11765e-05 6.60234e-05
0 0.000232162 0
0 0.000161749 0
0 -6.77901e-06 0
0 -0.000171195 0
0 -0.000231766 0
0 -0.000151751 0
0 2.03139e-05 0
0 0.000180057 0
-5.73122e-05 9.13355e-05 0.000158712
-0.000137172 6.3634e-05 0.000110575
-0.000133825 -2.66695e-06 -4.63431e-06
-4.93015e-05 -6.73502e-05 -0.000117033
6.51275e-05 -9.11797e-05 -0.000158441
0.000140051 -5.97008e-05 -0.000103741
0.000130022 7.99178e-06 1.38871e-05
4.11227e-05 7.08367e-05 0.000123091
-7.98596e-05 -0.000104894 0.000221151
-0.000191137 -7.308e-05 0.000154077
-0.000186473 3.06284e-06 -6.45751e-06
-6.86974e-05 7.73478e-05 -0.000163075
9.07495e-05 0.000104715 -0.000220774
0.000195149 6.8563e-05 -0.000144554
0.000181174 -9.17809e-06 1.93505e-05
5.73009e-05 -8.13518e-05 0.000171517
-5.39653e-05 -0.000237496 0.000149443
-0.000129161 -0.000165465 0.000104118
-0.00012601 6.93476e-06 -4.36367e-06
-4.64223e-05 0.000175128 -0.000110198
6.13241e-05 0.000237091 -0.000149188
0.000131872 0.000155237 -9.76825e-05
0.000122428 -2.07807e-05 1.30761e-05
3.87212e-05 -0.000184193 0.000115903
4.66373e-06 -0.000226036 -1.2915e-05
1.11622e-05 -0.000157481 -8.99798e-06
1.08899e-05 6.60015e-06 3.77113e-07
4.01187e-06 0.000166677 9.52345e-06
-5.29969e-06 0.00022565 1.2893e-05
-1.13965e-05 0.000147747 8.44182e-06
-1.05804e-05 -1.9778e-05 -1.13005e-06
-3.34632e-06 -0.000175306 -1.00164e-05
6.04638e-05 -7.74659e-05 -0.000167439
0.000144715 -5.3971e-05 -0.000116656
0.000141184 2.26197e-06 4.88914e-06
5.20125e-05 5.71229e-05 0.000123468
-6.87088e-05 7.73339e-05 0.000167153
-0.000147752 5.06351e-05 0.000109445
-0.000137171 -6.77821e-06 -1.46508e-05
-4.3384e-05 -6.00799e-05 -0.00012986
7.95873e-05 0.000118094 -0.000220397
0.000190485 8.22768e-05 -0.000153552
0.000185837 -3.44829e-06 6.43548e-06
6.84631e-05 -8.70817e-05 0.000162519
-9.04401e-05 -0.000117892 0.000220021
-0.000194483 -7.71913e-05 0.000144061
-0.000180556 1.03331e-05 -1.92845e-05
-5.71055e-05 9.15896e-05 -0.000170932
5.04342e-05 0.000242019 -0.000139665
0.00012071 0.000168617 -9.73054e-05
0.000117765 -7.06686e-06 4.07815e-06
4.33849e-05 -0.000178464 0.000102988
-5.73116e-05 -0.000241607 0.000139427
-0.000123244 -0.000158194 9.1291e-05
-0.000114418 2.11765e-05 -1.22206e-05
-3.61876e-05 0.000187702 -0.000108319
