# vtk DataFile Version 3.0
Velocity field
ASCII
DATASET STRUCTURED_POINTS
DIMENSIONS 5 5 5
SPACING 1.33333 1.33333 1.33333
ORIGIN 0 0 0
POINT_DATA 125
VECTORS velocity float
0 0.585534 0
0 0.13774 0
0 -0.520731 0
0 -0.382731 0
0 0.340666 0
0 -0.310055 1.0169
0 -0.0729366 0.275686
0 0.27574 -1.04225
0 0.202665 -0.766037
0 -0.180391 0.591635
0 -0.731408 0.478425
0 -0.172054 0.129704
0 0.65046 -0.49035
0 0.47808 -0.360401
0 -0.425536 0.278349
0 -0.0340542 -0.791811
0 -0.00801082 -0.214664
0 0.0302853 0.811547
0 0.0222593 0.596477
0 -0.0198128 -0.460678
0 0.715386 -0.850952
0 0.168286 -0.200176
0 -0.636212 0.756774
0 -0.467607 0.556219
0 0.416214 -0.495087
0 0.13774 0
0 0.0412292 0
0 -0.155869 0
0 -0.114562 0
0 0.0801374 0
0.435229 -0.0729366 0.357117
0.686596 -0.0182477 0.090244
-0.143949 0.0691303 -0.341991
-0.754458 0.0508312 -0.25148
-0.196662 -0.0424347 0.207772
0.204764 -0.172054 0.168015
0.323027 -0.0432408 0.0424578
-0.0677248 0.163834 -0.160898
-0.354955 0.12047 -0.118316
-0.0925244 -0.100102 0.0977515
-0.338892 -0.00801082 -0.27807
-0.534309 -0.00203412 -0.0702285
0.112021 0.00771102 0.266131
0.587119 0.00567063 0.195697
0.153131 -0.00466072 -0.161782
-0.364205 0.168286 -0.29884
-0.535554 0.0395871 -0.0702983
0.11224 -0.149661 0.265766
0.58836 -0.109999 0.195335
0.164569 0.0979092 -0.173866
0 -0.520731 0
0 -0.155869 0
0 0.58927 0
0 0.433106 0
0 -0.302963 0
0.204764 0.27574 -0.848883
0.323027 0.0691303 -0.213811
-0.0677248 -0.261921 0.810201
-0.354956 -0.192594 0.595769
-0.0925244 0.160427 -0.493883
0.0963365 0.65046 -0.399378
0.151977 0.163834 -0.100594
-0.0318629 -0.62082 0.381182
-0.166999 -0.45651 0.280295
-0.0435304 0.37844 -0.23236
-0.15944 0.0302853 0.660986
-0.251381 0.00771102 0.166393
0.0527032 -0.0292356 -0.6305
0.276226 -0.0215003 -0.463624
0.0720444 0.0176201 0.384564
-0.171349 -0.636212 0.710356
-0.251965 -0.149661 0.167102
0.0528061 0.5658 -0.631738
0.276809 0.415856 -0.464319
0.0774255 -0.37015 0.413288
0 -0.382731 0
0 -0.114562 0
0 0.433106 0
0 0.318327 0
0 -0.222674 0
-0.338892 0.202665 -0.756495
-0.534309 0.0508316 -0.190608
0.112021 -0.192595 0.722285
0.587119 -0.141618 0.531122
0.153131 0.117911 -0.440132
-0.15944 0.47808 -0.355912
-0.251381 0.120471 -0.0896768
0.0527032 -0.456513 0.33982
0.276226 -0.335691 0.249881
0.0720444 0.278148 -0.207071
0.263879 0.0222593 0.589047
0.415805 0.00567068 0.148335
-0.0871747 -0.0215005 -0.562081
-0.456899 -0.0158119 -0.413316
-0.119236 0.0129505 0.34271
0.283589 -0.467607 0.633044
0.417011 -0.109999 0.148916
-0.087396 0.415856 -0.562983
-0.458128 0.305649 -0.413785
-0.128142 -0.272056 0.368307
0 0.340666 0
0 0.0801374 0
0 -0.302963 0
0 -0.222674 0
0 0.198201 0
-0.364205 -0.180391 0.492971
-0.535554 -0.0424348 0.115965
0.11224 0.160427 -0.438412
0.58836 0.117911 -0.322227
0.164569 -0.104952 0.286812
-0.171349 -0.425536 0.231931
-0.251965 -0.100102 0.0545588
0.0528061 0.37844 -0.206262
0.276809 0.278149 -0.1516
0.0774255 -0.247578 0.134938
0.283589 -0.0198128 -0.383853
0.41701 -0.00466072 -0.0902967
-0.0873959 0.0176201 0.341371
-0.458128 0.0129505 0.250903
-0.128142 -0.0115272 -0.223327
0.304771 0.416214 -0.412524
0.448158 0.0979092 -0.0970411
-0.0939237 -0.37015 0.366869
-0.492346 -0.272056 0.269644
-0.137713 0.242155 -0.240008
