# vtk DataFile Version 3.0
Velocity field
ASCII
DATASET STRUCTURED_POINTS
DIMENSIONS 8 8 8
SPACING 0.8 0.8 0.8
ORIGIN 0 0 0
POINT_DATA 512
VECTORS velocity float
0 0.342709 0
0 0.238768 0
0 -0.0100069 0
0 -0.252711 0
0 -0.342125 0
0 -0.22401 0
0 0.0299868 0
0 0.265793 0
0 0.134826 0.349786
0 0.0939344 0.258378
0 -0.00393687 -0.0108288
0 -0.0994201 -0.273467
0 -0.134596 -0.370223
0 -0.0881284 -0.242407
0 0.0117972 0.0324496
0 0.104567 0.271282
0 -0.15484 0.487396
0 -0.107878 0.360027
0 0.00452126 -0.015089
0 0.114178 -0.381052
0 0.154576 -0.515874
0 0.10121 -0.337774
0 -0.0135484 0.0452157
0 -0.120089 0.378008
0 -0.350583 0.329359
0 -0.244253 0.243289
0 0.0102369 -0.0101964
0 0.258518 -0.257496
0 0.349985 -0.348603
0 0.229156 -0.228251
0 -0.0306757 0.0305545
0 -0.2719 0.255439
0 -0.333666 -0.0284635
0 -0.232468 -0.0210253
0 0.00974291 0.000881185
0 0.246044 0.0222531
0 0.333098 0.0301266
0 0.218099 0.0197257
0 -0.0291955 -0.00264055
0 -0.25878 -0.0220753
0 -0.114353 -0.36902
0 -0.0796702 -0.272585
0 0.00333904 0.0114243
0 0.0843229 0.288504
0 0.114158 0.390581
0 0.0747458 0.255737
0 -0.0100058 -0.0342339
0 -0.088688 -0.286199
0 0.174326 -0.485734
0 0.121454 -0.358799
0 -0.00509024 0.0150376
0 -0.128547 0.379753
0 -0.174029 0.514115
0 -0.113947 0.336622
0 0.0152534 -0.0450615
0 0.135201 -0.376719
0 0.357261 -0.307808
0 0.248906 -0.214452
0 -0.0104319 0.00898786
0 -0.263442 0.226976
0 -0.356652 0.307283
0 -0.233521 0.201197
0 0.03126 -0.026933
0 0.277079 -0.238726
0 0.238768 0
0 0.180608 0
0 -0.00756943 0
0 -0.191155 0
0 -0.258789 0
0 -0.169445 0
0 0.0226825 0
0 0.18518 0
0.074563 0.0939344 0.345493
0.183773 0.0675019 0.247942
0.17931 -0.00283049 -0.0103966
0.0660585 -0.0714746 -0.262532
-0.087263 -0.0967636 -0.355419
-0.187653 -0.0633569 -0.232714
-0.174197 0.00845895 0.0310726
-0.0535004 0.0728523 0.267953
0.103897 -0.107878 0.481415
0.256072 -0.0773418 0.345487
0.249852 0.00324295 -0.0144866
0.0920466 0.0818911 -0.365815
-0.121594 0.110865 -0.495247
-0.261478 0.0725899 -0.324268
-0.24273 -0.00969336 0.043297
-0.0745482 -0.0836666 0.373369
0.0702085 -0.244253 0.325317
0.17304 -0.175116 0.233463
0.168839 0.00734279 -0.00978939
0.0622005 0.185418 -0.2472
-0.0821672 0.251021 -0.334664
-0.176693 0.16436 -0.219122
-0.164025 -0.0219477 0.0292579
-0.050376 -0.189435 0.252304
-0.00606749 -0.232468 -0.0281142
-0.0149543 -0.166668 -0.0201761
-0.0145911 0.00698843 0.000846003
-0.00537543 0.176471 0.0213633
0.00710092 0.23891 0.0289217
0.01527 0.156429 0.0189368
0.0141751 -0.0208886 -0.0025285
0.00435355 -0.180294 -0.0218044
-0.0786631 -0.0796702 -0.364491
-0.193876 -0.05712 -0.261576
-0.18917 0.00239507 0.0109682
-0.0696897 0.0604801 0.276964
0.0920618 0.0818786 0.374963
0.197968 0.0536105 0.245511
0.183777 -0.0071589 -0.0327813
0.0564423 -0.0617895 -0.282687
-0.103543 0.121454 -0.479773
-0.255153 0.0870274 -0.344248
-0.248955 -0.00364907 0.0144346
-0.0917162 -0.0921454 0.364501
0.121157 -0.124747 0.493467
0.260537 -0.0816804 0.323103
0.241859 0.0109079 -0.0431424
0.074294 0.0941957 -0.372095
-0.0656147 0.248906 -0.304031
-0.157043 0.173414 -0.21182
-0.153211 -0.00726794 0.00887756
-0.0564435 -0.183542 0.22419
0.0745621 -0.248482 0.303512
0.160339 -0.162696 0.198728
0.148857 0.0217791 -0.0266024
0.0470799 0.193043 -0.235796
0 -0.0100069 0
0 -0.00756943 0
0 0.000317241 0
0 0.00801148 0
0 0.0108461 0
0 0.00710157 0
0 -0.000950642 0
0 -0.00776105 0
0.103897 -0.00393687 0.131629
0.256072 -0.00283049 0.0944109
0.249852 0.00011869 -0.00395874
0.0920466 0.00299713 -0.0999642
-0.121594 0.00405753 -0.135333
-0.261478 0.00265673 -0.0886118
-0.24273 -0.00035468 0.0118321
-0.0745482 -0.0030533 0.102087
0.144772 0.00452126 0.183414
0.356813 0.00324295 0.131553
0.348146 -0.00013598 -0.00551615
0.128259 -0.00343374 -0.139291
-0.169431 -0.00464867 -0.188578
-0.364345 -0.00304378 -0.123474
-0.338224 0.000406423 0.016487
-0.103876 0.00350654 0.142249
0.0978295 0.0102369 0.123942
0.241117 0.00734279 0.0888968
0.235261 -0.00030789 -0.00372756
0.0866706 -0.00777479 -0.0941279
-0.114492 -0.0105257 -0.127431
-0.246207 -0.0068917 -0.0834374
-0.228553 0.000920231 0.0111411
-0.0701947 0.00793935 0.0961251
-0.00845453 0.00974291 -0.0107112
-0.0208376 0.00698843 -0.00768258
-0.0203315 -0.000293033 0.000322139
-0.0074902 -0.00739965 0.00813459
0.00989458 -0.0100178 0.0110127
0.0212775 -0.00655917 0.00721068
0.0197519 0.000875822 -0.000962827
0.00606629 0.00755627 -0.00830723
-0.10961 0.00333904 -0.138867
-0.270148 0.00239507 -0.099601
-0.263592 -0.000100427 0.00417643
-0.0971071 -0.00253599 0.105461
0.12828 -0.00343322 0.142775
0.275851 -0.00224794 0.0934847
0.256077 0.000300161 -0.0124826
0.0786475 0.00258965 -0.107701
-0.144278 -0.00509024 -0.182788
-0.355532 -0.00364907 -0.131081
-0.346897 0.000153007 0.00549636
-0.127799 0.0038637 0.138791
0.168822 0.00523076 0.1879
0.363038 0.00342488 0.12303
0.337009 -0.000457348 -0.0164281
0.103522 -0.00394782 -0.141764
-0.0914284 -0.0104319 -0.115832
-0.218826 -0.00726794 -0.0807011
-0.213487 0.000304605 0.00338225
-0.0786491 0.00769238 0.085414
0.103896 0.0104141 0.115635
0.223419 0.00681872 0.075713
0.207419 -0.000912779 -0.0101352
0.0656017 -0.00809059 -0.0898356
0 -0.252711 0
0 -0.191155 0
0 0.00801148 0
0 0.202319 0
0 0.273902 0
0 0.17934 0
0 -0.0240071 0
0 -0.195994 0
0.0702085 -0.0994201 -0.16208
0.17304 -0.0714746 -0.11625
0.168839 0.00299713 0.00487446
0.0622005 0.0756818 0.123089
-0.0821672 0.102459 0.16664
-0.176693 0.0670863 0.109108
-0.164025 -0.00895635 -0.014569
-0.050376 -0.0771068 -0.125703
0.0978295 0.114178 -0.225844
0.241117 0.0818911 -0.161984
0.235261 -0.00343374 0.00679208
0.0866706 -0.0867087 0.171515
-0.114492 -0.117388 0.232197
-0.246207 -0.0768609 0.152033
-0.228553 0.0102631 -0.0203007
-0.0701947 0.0885527 -0.175157
0.0661084 0.258518 -0.152614
0.162935 0.185418 -0.10946
0.158978 -0.00777479 0.00458976
0.0585679 -0.196325 0.1159
-0.0773684 -0.265792 0.156908
-0.166375 -0.174029 0.102736
-0.154446 0.0232378 -0.0137181
-0.0474341 0.200497 -0.118362
-0.00571316 0.246044 0.0131891
-0.0140809 0.176471 0.00945969
-0.0137389 -0.00739965 -0.000396652
-0.00506152 -0.186855 -0.0100163
0.00668619 -0.252966 -0.01356
0.0143782 -0.165633 -0.00887858
0.0133472 0.0221164 0.00118554
0.0040993 0.190823 0.010229
-0.0740692 0.0843229 0.170992
-0.182555 0.0604801 0.122642
-0.178122 -0.00253599 -0.0051425
-0.0656209 -0.0640383 -0.129857
0.0866849 -0.0866955 -0.175802
0.18641 -0.0567648 -0.115108
0.173043 0.00757969 0.0153702
0.0531462 0.0653979 0.132616
-0.0974959 -0.128547 0.225074
-0.240252 -0.0921454 0.161403
-0.234416 0.0038637 -0.00676769
-0.0863596 0.0975649 -0.170899
0.114081 0.132086 -0.231364
0.245323 0.0864843 -0.151488
0.227733 -0.011549 0.0202283
0.0699553 -0.0996966 0.174559
-0.0617829 -0.263442 0.142629
-0.147872 -0.183542 0.0993703
-0.144264 0.00769238 -0.00416469
-0.0531473 0.19426 -0.105173
0.0702078 0.262993 -0.142385
0.150976 0.172197 -0.0932282
0.140164 -0.0230509 0.0124799
0.0443305 -0.204317 0.110618
0 -0.342125 0
0 -0.258789 0
0 0.0108461 0
0 0.273902 0
0 0.370813 0
0 0.242793 0
0 -0.0325012 0
0 -0.26534 0
-0.00606749 -0.134596 -0.357473
-0.0149543 -0.0967636 -0.256392
-0.0145911 0.00405753 0.0107508
-0.00537543 0.102459 0.271474
0.00710092 0.13871 0.367531
0.01527 0.0908229 0.240645
0.0141751 -0.0121253 -0.0321327
0.00435355 -0.104388 -0.277244
-0.00845453 0.154576 -0.498107
-0.0208376 0.110865 -0.35726
-0.0203315 -0.00464867 0.0149804
-0.0074902 -0.117388 0.378282
0.00989458 -0.158922 0.512122
0.0212775 -0.104055 0.335319
0.0197519 0.0138942 -0.044774
0.00606629 0.119884 -0.386315
-0.00571316 0.349985 -0.336597
-0.0140809 0.251021 -0.24142
-0.0137389 -0.0105257 0.010123
-0.00506152 -0.265792 0.255624
0.00668619 -0.359832 0.346065
0.0143782 -0.235604 0.22659
0.0133472 0.0314595 -0.0302561
0.0040993 0.271436 -0.261053
0.000493737 0.333098 0.029089
0.00121689 0.23891 0.0208638
0.00118734 -0.0100178 -0.000874829
0.000437416 -0.252966 -0.0220912
-0.000577832 -0.342471 -0.0299074
-0.00124258 -0.224234 -0.0195822
-0.00115349 0.0299416 0.00261476
-0.000354266 0.258339 0.0225604
0.00640114 0.114158 0.37713
0.0157766 0.0818786 0.270488
0.0153935 -0.00343322 -0.011342
0.005671 -0.0866955 -0.286401
-0.00749143 -0.11737 -0.387737
-0.0161097 -0.0768491 -0.253877
-0.0149547 0.0102615 0.0338993
-0.00459294 0.0885367 0.292489
0.00842569 -0.174029 0.496409
0.0207628 -0.124747 0.355979
0.0202585 0.00523076 -0.0149266
0.00746331 0.132086 -0.376922
-0.00985907 0.17882 -0.510285
-0.021201 0.117084 -0.334114
-0.019681 -0.0156351 0.0446143
-0.0060456 -0.134971 0.384998
0.00533934 -0.356652 0.314573
0.0127792 -0.248482 0.219165
0.0124674 0.0104141 -0.00918538
0.00459304 0.262993 -0.231964
-0.00606742 0.356043 -0.314036
-0.0130475 0.233123 -0.205618
-0.0121131 -0.0312067 0.0275249
-0.00383108 -0.276607 0.243972
0 -0.22401 0
0 -0.169445 0
0 0.00710157 0
0 0.17934 0
0 0.242793 0
0 0.158971 0
0 -0.0212805 0
0 -0.173734 0
-0.0786631 -0.0881284 -0.336028
-0.193876 -0.0633569 -0.241013
-0.18917 0.00265673 0.0101059
-0.0696897 0.0670863 0.255192
0.0920618 0.0908229 0.345481
0.197968 0.0594672 0.226207
0.183777 -0.00793916 -0.030205
0.0564423 -0.0683493 -0.260612
-0.10961 0.10121 -0.468226
-0.270148 0.0725899 -0.33583
-0.263592 -0.00304378 0.0140816
-0.0971071 -0.0768609 0.355587
0.12828 -0.104055 0.4814
0.275851 -0.0681308 0.315202
0.256077 0.00909742 -0.0420881
0.0786475 0.0784952 -0.36314
-0.0740692 0.229156 -0.316404
-0.182555 0.16436 -0.226937
-0.178122 -0.0068917 0.00951567
-0.0656209 -0.174029 0.240289
0.0866849 -0.235604 0.325306
0.18641 -0.154264 0.212995
0.173043 0.0205985 -0.028441
0.0531462 0.177726 -0.245392
0.00640114 0.218099 0.027344
0.0157766 0.156429 0.0196122
0.0153935 -0.00655917 -0.000822347
0.005671 -0.165633 -0.020766
-0.00749143 -0.224234 -0.0281131
-0.0161097 -0.146819 -0.0184074
-0.0149547 0.0196046 0.0024579
-0.00459294 0.16915 0.021207
0.0829886 0.0747458 0.354506
0.204536 0.0536105 0.254264
0.199569 -0.00224794 -0.0106616
0.0735219 -0.0567648 -0.269222
-0.097123 -0.0768491 -0.364479
-0.208854 -0.0503174 -0.238647
-0.19388 0.00671878 0.0318659
-0.059546 0.0579703 0.274942
0.109236 -0.113947 0.466629
0.269179 -0.0816804 0.334625
0.262644 0.00342488 -0.014031
0.0967584 0.0864843 -0.354311
-0.12782 0.117084 -0.479672
-0.274861 0.0766624 -0.314071
-0.255158 -0.0102373 0.0419378
-0.0783793 -0.0883735 0.361901
0.0692228 -0.233521 0.295701
0.165679 -0.162696 0.206017
0.161636 0.00681872 -0.00863434
0.0595473 0.172197 -0.218048
-0.0786622 0.233123 -0.295197
-0.169156 0.15264 -0.193283
-0.157042 -0.0204329 0.0258736
-0.0496687 -0.181111 0.229336
0 0.0299868 0
0 0.0226825 0
0 -0.000950642 0
0 -0.0240071 0
0 -0.0325012 0
0 -0.0212805 0
0 0.00284869 0
0 0.0232567 0
-0.103543 0.0117972 -0.110753
-0.255153 0.00845876 -0.0794722
-0.248955 -0.000354672 0.00333239
-0.0917162 -0.00895615 0.0841491
0.121157 -0.012125 0.113921
0.260537 -0.00793898 0.0745912
0.241859 0.00106026 -0.00995941
0.074294 0.0091495 -0.0858961
-0.144278 -0.0135484 -0.154324
-0.355532 -0.00969313 -0.110738
-0.346897 0.000406414 0.00464338
-0.127799 0.0102628 0.117254
0.168822 0.0138939 0.15874
0.363038 0.00909721 0.103937
0.337009 -0.00121513 -0.0138776
0.103522 -0.0105077 -0.119689
-0.0974959 -0.0306757 -0.104285
-0.240252 -0.0219472 -0.0748311
-0.234416 0.000920209 0.00313779
-0.0863596 0.0232372 0.0792344
0.114081 0.0314588 0.107268
0.245323 0.020598 0.0702352
0.227733 -0.00275128 -0.00937778
0.0699553 -0.023791 -0.0808798
0.00842569 -0.0291955 0.00901241
0.0207628 -0.0208881 0.00646699
0.0202585 0.000875802 -0.000271169
0.00746331 0.0221159 -0.0068475
-0.00985907 0.0299409 -0.00927024
-0.021201 0.0196041 -0.00606981
-0.019681 -0.00261854 0.000810442
-0.0060456 -0.0226431 0.00698972
0.109236 -0.0100058 0.116843
0.269179 -0.00715874 0.0838425
0.262644 0.000300153 -0.00351561
0.0967585 0.00757951 -0.088776
-0.12782 0.0102612 -0.120186
-0.274861 0.00671862 -0.0786931
-0.255158 -0.000897415 0.0105071
-0.0783793 -0.00776012 0.0906194
0.143786 0.0152534 0.153798
0.354257 0.0109076 0.11034
0.345652 -0.000457337 -0.00462669
0.12734 -0.0115487 -0.116832
-0.168216 -0.0156347 -0.15817
-0.361735 -0.0102371 -0.103563
-0.335799 0.00136745 0.013828
-0.103169 0.01183 0.119281
0.0911166 0.03126 0.0974614
0.21808 0.0217791 0.067902
0.212759 -0.000912779 -0.00284583
0.0783809 -0.0230509 -0.0718675
-0.103542 -0.0312067 -0.0972952
-0.222657 -0.0204329 -0.063705
-0.206712 0.00273523 0.0085278
-0.065378 0.0242442 0.0755878
0 0.265793 0
0 0.18518 0
0 -0.00776105 0
0 -0.195994 0
0 -0.26534 0
0 -0.173734 0
0 0.0232567 0
0 0.20614 0
-0.0656147 0.104567 0.181703
-0.157043 0.0728523 0.126594
-0.153211 -0.0030533 -0.00530565
-0.0564435 -0.0771068 -0.133987
0.0745621 -0.104388 -0.181393
0.160339 -0.0683493 -0.118769
0.148857 0.0091495 0.0158989
0.0470799 0.0810983 0.140923
-0.0914284 -0.120089 0.253188
-0.218826 -0.0836666 0.176398
-0.213487 0.00350654 -0.00739297
-0.0786491 0.0885527 -0.186699
0.103896 0.119884 -0.252756
0.223419 0.0784952 -0.165495
0.207419 -0.0105077 0.0221537
0.0656017 -0.0931367 0.196364
-0.0617829 -0.2719 0.171092
-0.147872 -0.189435 0.119201
-0.144264 0.00793936 -0.00499581
-0.0531473 0.200497 -0.126162
0.0702078 0.271436 -0.1708
0.150976 0.177726 -0.111833
0.140164 -0.023791 0.0149704
0.0443305 -0.210876 0.132693
0.00533934 -0.25878 -0.0147859
0.0127792 -0.180294 -0.0103015
0.0124674 0.00755627 0.000431743
0.00459304 0.190823 0.0109031
-0.00606742 0.258339 0.0147607
-0.0130475 0.16915 0.00966473
-0.0121131 -0.0226431 -0.00129376
-0.00383108 -0.200701 -0.0114675
0.0692228 -0.088688 -0.191695
0.165679 -0.0617895 -0.133555
0.161636 0.00258965 0.0055974
0.0595473 0.0653979 0.141355
-0.0786622 0.0885367 0.191368
-0.169156 0.0579703 0.1253
-0.157042 -0.00776012 -0.0167731
-0.0496687 -0.0687833 -0.148672
0.0911166 0.135201 -0.252324
0.21808 0.0941957 -0.175796
0.212759 -0.00394782 0.00736775
0.0783809 -0.0996966 0.186062
-0.103542 -0.134971 0.251894
-0.222657 -0.0883735 0.16493
-0.206712 0.01183 -0.0220782
-0.065378 0.104858 -0.195694
0.0577403 0.277079 -0.159897
0.138197 0.193043 -0.111401
0.134825 -0.00809059 0.00466892
0.0496698 -0.204317 0.117907
-0.065614 -0.276607 0.159624
-0.141097 -0.181111 0.104516
-0.130993 0.0242442 -0.0139909
-0.0414299 0.214893 -0.124011
