# vtk DataFile Version 3.0
Velocity field
ASCII
DATASET STRUCTURED_POINTS
DIMENSIONS 10 10 10
SPACING 0.631579 0.631579 0.631579
ORIGIN 0 0 0
POINT_DATA 1000
VECTORS velocity float
0 0.796637 0
0 0.642963 0
0 0.241229 0
0 -0.253573 0
0 -0.650545 0
0 -0.796531 0
0 -0.63521 0
0 -0.22882 0
0 0.26585 0
0 0.657954 0
0 0.489289 0.624025
0 0.394903 0.523396
0 0.148161 0.196369
0 -0.155743 -0.206418
0 -0.39956 -0.529568
0 -0.489224 -0.648406
0 -0.390141 -0.517085
0 -0.14054 -0.186268
0 0.163283 0.216412
0 0.40411 0.515391
0 -0.00683109 1.0073
0 -0.00551335 0.844862
0 -0.00206851 0.316978
0 0.00217437 -0.333199
0 0.00557836 -0.854825
0 0.00683018 -1.04665
0 0.00544687 -0.834675
0 0.00196211 -0.300673
0 -0.00227964 0.349331
0 -0.00564189 0.83194
0 -0.500315 1.00195
0 -0.403803 0.840375
0 -0.1515 0.315294
0 0.159253 -0.331429
0 0.408564 -0.850283
0 0.500249 -1.04109
0 0.398934 -0.83024
0 0.143707 -0.299076
0 -0.166963 0.347475
0 -0.413218 0.827521
0 -0.800774 0.610036
0 -0.646302 0.511664
0 -0.242482 0.191967
0 0.25489 -0.201791
0 0.653923 -0.517697
0 0.800668 -0.633871
0 0.638509 -0.505494
0 0.230009 -0.182093
0 -0.267231 0.211561
0 -0.661371 0.503838
0 -0.792289 -0.0172291
0 -0.639453 -0.0144507
0 -0.239912 -0.00542167
0 0.252189 0.00569912
0 0.646994 0.0146211
0 0.792183 0.0179022
0 0.631743 0.0142765
0 0.227571 0.00514279
0 -0.264399 -0.00597504
0 -0.654362 -0.0142297
0 -0.478132 -0.637847
0 -0.385899 -0.53499
0 -0.144783 -0.200719
0 0.152192 0.21099
0 0.390449 0.541298
0 0.478069 0.662769
0 0.381246 0.528539
0 0.137335 0.190394
0 -0.15956 -0.221206
0 -0.394896 -0.526807
0 0.0204917 -1.01238
0 0.0165387 -0.849126
0 0.00620505 -0.318577
0 -0.00652259 0.33488
0 -0.0167338 0.859139
0 -0.0204889 1.05194
0 -0.0163393 0.838888
0 -0.00588587 0.30219
0 0.00683838 -0.351094
0 0.0169243 -0.836138
0 0.511209 -0.996328
0 0.412595 -0.835662
0 0.154799 -0.313527
0 -0.16272 0.329571
0 -0.41746 0.845517
0 -0.511141 1.03526
0 -0.40762 0.825587
0 -0.146836 0.297399
0 0.170598 -0.345527
0 0.422215 -0.822881
0 0.804699 -0.595886
0 0.649469 -0.480937
0 0.24367 -0.18044
0 -0.256139 0.189673
0 -0.657128 0.486608
0 -0.804592 0.595807
0 -0.641638 0.475138
0 -0.231136 0.171158
0 0.26854 -0.198856
0 0.664612 -0.49215
0 0.642963 0
0 0.545928 0
0 0.204823 0
0 -0.215304 0
0 -0.552366 0
0 -0.67632 0
0 -0.539346 0
0 -0.194287 0
0 0.225729 0
0 0.531032 0
0.0907324 0.394903 0.69062
0.25573 0.341663 0.599093
0.315322 0.128577 0.225509
0.252984 -0.135192 -0.237118
0.0930351 -0.346836 -0.608325
-0.102808 -0.424668 -0.744838
-0.258986 -0.338661 -0.593986
-0.315239 -0.122022 -0.214023
-0.249622 0.140811 0.246842
-0.0816314 0.326156 0.570393
0.14646 -0.00551335 1.11479
0.412798 -0.00475368 0.967052
0.50899 -0.00178895 0.364015
0.408365 0.00188104 -0.382754
0.150176 0.00482579 -0.981954
-0.165951 0.00590868 -1.20231
-0.418053 0.00471202 -0.958809
-0.508856 0.00169781 -0.345474
-0.402938 -0.0019591 0.39845
-0.131769 -0.00455355 0.920724
0.145681 -0.403803 1.10887
0.410605 -0.349297 0.961915
0.506286 -0.131462 0.362081
0.406196 0.138228 -0.380721
0.149378 0.354624 -0.976737
-0.16507 0.434202 -1.19592
-0.415833 0.346264 -0.953716
-0.506153 0.124763 -0.343639
-0.400797 -0.143941 0.396333
-0.131069 -0.333506 0.915833
0.0886985 -0.646302 0.675139
0.249998 -0.559064 0.585664
0.308253 -0.21041 0.220454
0.247313 0.221239 -0.231803
0.0909495 0.567588 -0.594687
-0.100503 0.69496 -0.728142
-0.253181 0.554212 -0.580671
-0.308172 0.199689 -0.209225
-0.244026 -0.230385 0.241308
-0.0798015 -0.53379 0.557607
-0.00250508 -0.639453 -0.0190677
-0.00706059 -0.55314 -0.0165407
-0.00870584 -0.208181 -0.0062262
-0.00698473 0.218895 0.00654671
-0.00256866 0.561574 0.0167957
0.00283845 0.687595 0.0205646
0.00715047 0.548339 0.0163998
0.00870355 0.197572 0.00590906
0.00689196 -0.227944 -0.0068152
0.00225381 -0.528133 -0.0157483
-0.0927421 -0.385899 -0.705918
-0.261394 -0.333811 -0.612362
-0.322305 -0.125634 -0.230504
-0.258587 0.132099 0.24237
-0.0950956 0.338901 0.6218
0.105085 0.414953 0.761334
0.264722 0.330914 0.607143
0.32222 0.119232 0.218763
0.255151 -0.137561 -0.25231
0.0834396 -0.318719 -0.583027
-0.147199 0.0165387 -1.12042
-0.414859 0.0142637 -0.971886
-0.511531 0.00536702 -0.365833
-0.410404 -0.00564308 0.384666
-0.150926 -0.0144773 0.98686
0.16678 -0.0177261 1.20832
0.420141 -0.0141361 0.963599
0.511397 -0.00509328 0.3472
0.40495 0.00587949 -0.400444
0.132434 0.0136596 -0.92537
-0.144865 0.412595 -1.10266
-0.407598 0.355465 -0.955001
-0.502559 0.133747 -0.35944
-0.403205 -0.140627 0.377939
-0.148279 -0.360778 0.969602
0.163855 -0.441739 1.18718
0.412772 -0.352274 0.946749
0.502427 -0.126925 0.341125
0.39786 0.146527 -0.39353
0.130334 0.340768 -0.910698
-0.086641 0.649469 -0.659478
-0.226496 0.524184 -0.532262
-0.278968 0.196665 -0.199696
-0.223811 -0.206729 0.209915
-0.0823067 -0.530365 0.538539
0.0909523 -0.649383 0.65939
0.229121 -0.517864 0.525844
0.278893 -0.186549 0.189424
0.221067 0.216738 -0.220078
0.0779504 0.536406 -0.544672
0 0.241229 0
0 0.204823 0
0 0.0768461 0
0 -0.0807786 0
0 -0.207238 0
0 -0.253744 0
0 -0.202353 0
0 -0.0728932 0
0 0.0846896 0
0 0.199234 0
0.14646 0.148161 0.490769
0.412798 0.128577 0.425975
0.50899 0.0483966 0.160357
0.408365 -0.0508876 -0.168615
0.150176 -0.130552 -0.43258
-0.165951 -0.159848 -0.529654
-0.418053 -0.127475 -0.422384
-0.508856 -0.0459309 -0.152193
-0.402938 0.0529794 0.175496
-0.131769 0.122368 0.405333
0.236414 -0.00206851 0.792195
0.666336 -0.00178895 0.687606
0.821608 -0.000673377 0.258848
0.659181 0.000708052 -0.272177
0.242414 0.00181651 -0.698269
-0.267878 0.00222415 -0.854963
-0.674819 0.0017737 -0.681809
-0.821392 0.000639094 -0.245669
-0.650419 -0.000737101 0.283284
-0.2127 -0.00170841 0.654285
0.235158 -0.1515 0.787987
0.662796 -0.131462 0.683953
0.817243 -0.0494875 0.257473
0.655679 0.0520356 -0.270732
0.241126 0.133497 -0.694559
-0.266455 0.163455 -0.850422
-0.671234 0.130351 -0.678187
-0.817028 0.0469677 -0.244364
-0.646963 -0.0541617 0.281779
-0.21157 -0.125126 0.65081
0.143176 -0.242482 0.479768
0.403544 -0.21041 0.416426
0.497581 -0.0792069 0.156763
0.399211 0.0832852 -0.164835
0.14681 0.213668 -0.422883
-0.162231 0.261616 -0.517781
-0.408683 0.208631 -0.412916
-0.497449 0.0751739 -0.148781
-0.393905 -0.0866883 0.171562
-0.128815 -0.200269 0.396247
-0.00404368 -0.239912 -0.0135499
-0.0113971 -0.208181 -0.011761
-0.0140529 -0.0783675 -0.0044274
-0.0112747 0.0824028 0.00465536
-0.00414632 0.211403 0.0119434
0.00458182 0.258844 0.0146235
0.0115422 0.206421 0.0116618
0.0140492 0.0743772 0.00420199
0.011125 -0.0857698 -0.00484537
0.00363808 -0.198147 -0.0111911
-0.149704 -0.144783 -0.50164
-0.421941 -0.125634 -0.43541
-0.520263 -0.0472935 -0.163909
-0.417409 0.0497288 0.17235
-0.153503 0.127579 0.442161
0.169627 0.156208 0.541387
0.427313 0.124572 0.431739
0.520126 0.0448856 0.155564
0.411862 -0.0517606 -0.179383
0.134688 -0.119578 -0.414311
-0.237607 0.00620505 -0.796193
-0.669663 0.00536702 -0.691043
-0.82571 0.00201983 -0.260141
-0.662472 -0.00212377 0.273537
-0.243624 -0.00544851 0.701756
0.269216 -0.00667119 0.859233
0.678188 -0.00532008 0.685214
0.825493 -0.00191688 0.246896
0.653667 0.00221183 -0.284701
0.213774 0.00512484 -0.657587
-0.23384 0.154799 -0.78357
-0.657941 0.133747 -0.679009
-0.811227 0.0503333 -0.255583
-0.650851 -0.0529233 0.268741
-0.239351 -0.135775 0.689453
0.264492 -0.166243 0.84417
0.666293 -0.132575 0.673202
0.811014 -0.0477677 0.242565
0.642223 0.055121 -0.279776
0.210384 0.12785 -0.647161
-0.139855 0.24367 -0.468639
-0.365609 0.196665 -0.378237
-0.450307 0.0737854 -0.141908
-0.361274 -0.0775612 0.14917
-0.132859 -0.198984 0.382697
0.146814 -0.243637 0.468577
0.369846 -0.194294 0.373676
0.450188 -0.0699899 0.134608
0.356844 0.0813164 -0.156392
0.125827 0.20125 -0.387055
0 -0.253573 0
0 -0.215304 0
0 -0.0807786 0
0 0.0849123 0
0 0.217843 0
0 0.266729 0
0 0.212708 0
0 0.0766234 0
0 -0.0890234 0
0 -0.20943 0
0.145681 -0.155743 0.101575
0.410605 -0.135192 0.0881654
0.506286 -0.0508876 0.0331897
0.406196 0.0535072 -0.0348987
0.149378 0.137273 -0.0895327
-0.16507 0.168077 -0.109624
-0.415833 0.134037 -0.0874222
-0.506153 0.0482955 -0.0314999
-0.400797 -0.0557039 0.0363228
-0.131069 -0.12863 0.0838926
0.235158 0.00217437 0.163962
0.662796 0.00188104 0.142316
0.817243 0.000708051 0.0535744
0.655679 -0.000744513 -0.0563333
0.241126 -0.00191002 -0.144522
-0.266455 -0.00233868 -0.176955
-0.671234 -0.00186504 -0.141116
-0.817028 -0.000672 -0.0508469
-0.646963 0.000775023 0.058632
-0.21157 0.00179584 0.135419
0.233909 0.159253 0.163091
0.659275 0.138228 0.141559
0.812902 0.0520356 0.0532898
0.652195 -0.0547152 -0.056034
0.239845 -0.140371 -0.143755
-0.265039 -0.171872 -0.176015
-0.667669 -0.137063 -0.140366
-0.812688 -0.0493864 -0.0505767
-0.643526 0.056948 0.0583205
-0.210446 0.131529 0.134699
0.142416 0.25489 0.0992985
0.401401 0.221239 0.0861887
0.494937 0.0832852 0.0324457
0.39709 -0.087574 -0.0341165
0.14603 -0.22467 -0.0875254
-0.161369 -0.275089 -0.107167
-0.406512 -0.219375 -0.0854624
-0.494807 -0.0790451 -0.0307937
-0.391812 0.0911474 0.0355085
-0.128131 0.210517 0.082012
-0.0040222 0.252189 -0.00280446
-0.0113366 0.218895 -0.0024342
-0.0139782 0.0824028 -0.000916351
-0.0112149 -0.086646 0.000963534
-0.0041243 -0.22229 0.00247195
0.00455748 -0.272174 0.00302667
0.0114809 -0.21705 0.0024137
0.0139746 -0.0782074 0.000869695
0.0110659 0.0901815 -0.00100286
0.00361875 0.208286 -0.00231624
-0.148908 0.152192 -0.103825
-0.419699 0.132099 -0.0901179
-0.517499 0.0497288 -0.0339248
-0.415192 -0.0522895 0.0356716
-0.152688 -0.134149 0.0915153
0.168726 -0.164252 0.112052
0.425043 -0.130986 0.0893586
0.517363 -0.0471969 0.0321976
0.409674 0.0544231 -0.0371273
0.133972 0.125697 -0.0857509
-0.236345 -0.00652259 -0.16479
-0.666106 -0.00564308 -0.143027
-0.821324 -0.00212377 -0.053842
-0.658953 0.00223305 0.0566146
-0.24233 0.00572887 0.145244
0.267785 0.00701448 0.177839
0.674586 0.00559386 0.141821
0.821107 0.00201552 0.0511008
0.650194 -0.00232556 -0.0589252
0.212638 -0.00538709 -0.136102
-0.232597 -0.16272 -0.162177
-0.654446 -0.140627 -0.140536
-0.806918 -0.0529233 -0.0528987
-0.647393 0.0556467 0.055622
-0.238079 0.142761 0.142698
0.263087 0.174798 0.17472
0.662753 0.139396 0.139335
0.806705 0.0502259 0.0502045
0.638811 -0.057955 -0.0579061
0.209267 -0.134393 -0.133944
-0.139112 -0.256139 -0.0969952
-0.363666 -0.206729 -0.0782844
-0.447915 -0.0775612 -0.029371
-0.359355 0.0815303 0.030874
-0.132153 0.209167 0.0792076
0.146035 0.256105 0.0969823
0.367881 0.204236 0.0773405
0.447796 0.0735716 0.0278602
0.354948 -0.0854777 -0.0323688
0.125159 -0.211549 -0.0801097
0 -0.650545 0
0 -0.552366 0
0 -0.207238 0
0 0.217843 0
0 0.558879 0
0 0.684296 0
0 0.545706 0
0 0.196578 0
0 -0.22839 0
0 -0.537294 0
0.0886985 -0.39956 -0.326806
0.249998 -0.346836 -0.28366
0.308253 -0.130552 -0.106783
0.247313 0.137273 0.112282
0.0909495 0.352172 0.288058
-0.100503 0.431201 0.352701
-0.253181 0.343871 0.281269
-0.308172 0.123902 0.101347
-0.244026 -0.142908 -0.116864
-0.0798015 -0.330002 -0.269914
0.143176 0.00557836 -0.527529
0.403544 0.00482579 -0.457882
0.497581 0.00181651 -0.172369
0.399211 -0.00191002 0.181245
0.14681 -0.00490023 0.464981
-0.162231 -0.00599989 0.569326
-0.408683 -0.00478472 0.454022
-0.497449 -0.00172401 0.163593
-0.393905 0.0019883 -0.188641
-0.128815 0.00460724 -0.435693
0.142416 0.408564 -0.524726
0.401401 0.354623 -0.455449
0.494937 0.133497 -0.171453
0.39709 -0.140371 0.180282
0.14603 -0.360122 0.462511
-0.161369 -0.440936 0.566301
-0.406512 -0.351634 0.451611
-0.494807 -0.1267 0.162724
-0.391812 0.146099 -0.187639
-0.128131 0.337439 -0.433379
0.0867102 0.653923 -0.319481
0.244393 0.567588 -0.277302
0.301343 0.213668 -0.104389
0.241769 -0.22467 0.109765
0.0889111 -0.576389 0.281601
-0.09825 -0.705737 0.344794
-0.247506 -0.562804 0.274965
-0.301263 -0.20279 0.0990748
-0.238556 0.233838 -0.114244
-0.0780127 0.540084 -0.263864
-0.00244893 0.646994 0.00902299
-0.00690232 0.561574 0.00783168
-0.00851071 0.211403 0.00294824
-0.0068282 -0.22229 -0.00310004
-0.00251105 -0.570281 -0.00795315
0.00277486 -0.698258 -0.0097379
0.00699016 -0.556841 -0.00776568
0.00850847 -0.200641 -0.00279814
0.00673746 0.231361 0.00322654
0.00220329 0.534361 0.00745221
-0.0906632 0.390449 0.334045
-0.255535 0.338901 0.289942
-0.31508 0.127579 0.109148
-0.252791 -0.134149 -0.114769
-0.092964 -0.344156 -0.294438
0.102729 -0.421387 -0.360513
0.258788 -0.336044 -0.287498
0.314998 -0.121083 -0.103591
0.249431 0.139622 0.119452
0.0815692 0.322477 0.275893
-0.143899 -0.0167338 0.530191
-0.40556 -0.0144773 0.46017
-0.500065 -0.0054485 0.17323
-0.401205 0.00572888 -0.182149
-0.147543 0.0146974 -0.467303
0.163041 0.0179956 -0.572168
0.410723 0.0143511 -0.456289
0.499934 0.0051708 -0.16441
0.395873 -0.00596623 0.189585
0.129465 -0.0138206 0.437892
-0.141617 -0.41746 0.521784
-0.39846 -0.360778 0.452156
-0.491294 -0.135775 0.170195
-0.394166 0.142761 -0.178957
-0.144955 0.366253 -0.459112
0.160181 0.448443 -0.56214
0.403519 0.357622 -0.44829
0.491164 0.128854 -0.161526
0.388941 -0.148683 0.186305
0.127412 -0.344786 0.430949
-0.0846988 -0.657128 0.31207
-0.221419 -0.530365 0.25187
-0.272714 -0.198984 0.0944975
-0.218794 0.209167 -0.0993333
-0.0804617 0.53662 -0.254841
0.0889134 0.657041 -0.312028
0.223985 0.52397 -0.248833
0.272642 0.188749 -0.0896367
0.216111 -0.219294 0.104143
0.0762031 -0.542731 0.257743
0 -0.796531 0
0 -0.67632 0
0 -0.253744 0
0 0.266729 0
0 0.684296 0
0 0.837856 0
0 0.668166 0
0 0.240692 0
0 -0.279643 0
0 -0.657866 0
-0.00250508 -0.489224 -0.629104
-0.00706059 -0.424668 -0.546047
-0.00870584 -0.159848 -0.205558
-0.00698473 0.168077 0.216143
-0.00256866 0.431201 0.554515
0.00283845 0.527965 0.67895
0.00715047 0.421037 0.541446
0.00870355 0.151706 0.195092
0.00689196 -0.174978 -0.224964
0.00225381 -0.404057 -0.519586
-0.00404368 0.00683018 -1.0155
-0.0113971 0.00590867 -0.881423
-0.0140529 0.00222415 -0.331811
-0.0112747 -0.00233868 0.348897
-0.00414632 -0.00599989 0.895093
0.00458182 -0.0073463 1.09596
0.0115422 -0.00585845 0.873995
0.0140492 -0.00211091 0.314917
0.011125 0.00243451 -0.363134
0.00363808 0.00564114 -0.838712
-0.0040222 0.500249 -1.0101
-0.0113366 0.434202 -0.876741
-0.0139782 0.163455 -0.330048
-0.0112149 -0.171872 0.347044
-0.0041243 -0.440936 0.890337
0.00455748 -0.539886 1.09014
0.0114809 -0.430543 0.869352
0.0139746 -0.155133 0.313244
0.0110659 0.178885 -0.361205
0.00361875 0.413162 -0.834256
-0.00244893 0.800668 -0.615002
-0.00690232 0.694959 -0.533805
-0.00851071 0.261616 -0.20095
-0.0068282 -0.275089 0.211298
-0.00251105 -0.705737 0.542085
0.00277486 -0.864108 0.663731
0.00699016 -0.689102 0.529307
0.00850847 -0.248297 0.190719
0.00673746 0.286313 -0.21992
0.00220329 0.661283 -0.507939
6.91642e-05 0.792183 0.0173693
0.000194937 0.687595 0.0150761
0.000240369 0.258844 0.00567533
0.000192846 -0.272174 -0.00596763
7.09203e-05 -0.698258 -0.0153098
-7.83665e-05 -0.854951 -0.0187454
-0.000197427 -0.681799 -0.0149491
-0.000240306 -0.245665 -0.00538643
-0.000190282 0.283279 0.00621114
-6.22267e-05 0.654275 0.0143455
0.00256057 0.478069 0.643039
0.00721696 0.414953 0.558141
0.0088987 0.156208 0.210111
0.00713946 -0.164252 -0.220931
0.00262554 -0.421387 -0.566794
-0.00290133 -0.515949 -0.693989
-0.00730888 -0.411456 -0.553437
-0.00889636 -0.148255 -0.199414
-0.00704458 0.170955 0.229947
-0.00230373 0.394843 0.531095
0.00406409 -0.0204889 1.02062
0.0114541 -0.0177261 0.885829
0.0141231 -0.00667118 0.333467
0.011331 0.00701448 -0.350639
0.00416702 0.0179956 -0.899562
-0.00460469 0.022034 -1.10143
-0.0115999 0.0175715 -0.87836
-0.0141194 0.00633117 -0.31649
-0.0111805 -0.00730507 0.36495
-0.00365644 -0.0169221 0.842944
0.00399965 -0.511141 1.00444
0.0112536 -0.441739 0.870402
0.0138754 -0.166243 0.327626
0.0111324 0.174798 -0.344492
0.00409394 0.448443 -0.883792
-0.00452393 0.549078 -1.08212
-0.0113964 0.437874 -0.862961
-0.0138717 0.15777 -0.310938
-0.0109848 -0.182049 0.358637
-0.00359847 -0.422158 0.829579
0.00239212 -0.804592 0.600736
0.00625346 -0.649383 0.484852
0.00770217 -0.243637 0.181908
0.00617933 0.256105 -0.191217
0.00227245 0.657041 -0.490569
-0.00251115 0.804485 -0.600656
-0.00632593 0.641553 -0.479006
-0.00770013 0.231105 -0.172551
-0.00610355 -0.268505 0.200475
-0.00215218 -0.664524 0.496156
0 -0.63521 0
0 -0.539346 0
0 -0.202353 0
0 0.212708 0
0 0.545706 0
0 0.668166 0
0 0.532842 0
0 0.191944 0
0 -0.223007 0
0 -0.524629 0
-0.0927421 -0.390141 -0.688689
-0.261394 -0.338661 -0.597764
-0.322305 -0.127475 -0.225028
-0.258587 0.134037 0.236615
-0.0950956 0.343871 0.607034
0.105085 0.421037 0.743256
0.264722 0.335766 0.592725
0.32222 0.120981 0.213571
0.255151 -0.13954 -0.246271
0.0834396 -0.322223 -0.568798
-0.149704 0.00544687 -1.11168
-0.421941 0.00471202 -0.964905
-0.520263 0.0017737 -0.363237
-0.417409 -0.00186504 0.381942
-0.153503 -0.00478472 0.97987
0.169627 -0.00585845 1.19976
0.427313 -0.00467194 0.956773
0.520126 -0.0016834 0.344744
0.411862 0.00194145 -0.397528
0.134688 0.00449864 -0.918149
-0.148908 0.398934 -1.10577
-0.419699 0.346264 -0.959779
-0.517499 0.130351 -0.361308
-0.415193 -0.137063 0.379913
-0.152687 -0.351634 0.974664
0.168726 -0.430543 1.19338
0.425043 -0.343346 0.95169
0.517363 -0.123714 0.342913
0.409674 0.142656 -0.395416
0.133972 0.329485 -0.913271
-0.0906632 0.638509 -0.673251
-0.255535 0.554212 -0.584364
-0.31508 0.208631 -0.219983
-0.252791 -0.219375 0.231311
-0.092964 -0.562804 0.593425
0.102729 -0.689102 0.726595
0.258788 -0.549541 0.579439
0.314998 -0.19801 0.208783
0.249431 0.228327 -0.24075
0.0815692 0.527353 -0.556047
0.00256057 0.631743 0.0190144
0.00721696 0.548339 0.0165041
0.0088987 0.206421 0.00621289
0.00713946 -0.21705 -0.00653284
0.00262554 -0.556841 -0.01676
-0.00290133 -0.681799 -0.020521
-0.00730888 -0.543718 -0.016365
-0.00889636 -0.195911 -0.0058966
-0.00704458 0.225908 0.00679944
-0.00230373 0.521765 0.0157043
0.0947964 0.381246 0.703944
0.267184 0.330914 0.611004
0.329444 0.124572 0.230011
0.264315 -0.130986 -0.241856
0.0972018 -0.336044 -0.62048
-0.107412 -0.411456 -0.759718
-0.270587 -0.328125 -0.605855
-0.329358 -0.118229 -0.218301
-0.260802 0.136332 0.251726
-0.0852879 0.314876 0.581397
0.150459 -0.0163393 1.11729
0.424048 -0.0141361 0.969728
0.522861 -0.00532008 0.365051
0.419493 0.00559386 -0.383849
0.154269 0.0143511 -0.984764
-0.170474 0.0175715 -1.20575
-0.429447 0.0140127 -0.961552
-0.522723 0.00504892 -0.346466
-0.413919 -0.00582556 0.399516
-0.135367 -0.0134949 0.922782
0.148074 -0.40762 1.09957
0.416625 -0.352274 0.952841
0.51369 -0.132575 0.358657
0.412136 0.139396 -0.37712
0.151563 0.357622 -0.967499
-0.167484 0.437874 -1.18461
-0.421913 0.349192 -0.944694
-0.513555 0.125817 -0.340388
-0.406673 -0.145178 0.392605
-0.133221 -0.336659 0.908151
0.0885601 -0.641638 0.657634
0.231513 -0.517864 0.530774
0.285147 -0.194294 0.199137
0.228769 0.204236 -0.209328
0.0841298 0.52397 -0.537033
-0.0929669 0.641553 -0.657547
-0.234196 0.511619 -0.524374
-0.285071 0.184299 -0.188894
-0.225963 -0.214125 0.219463
-0.0796771 -0.529938 0.543149
0 -0.22882 0
0 -0.194287 0
0 -0.0728932 0
0 0.0766234 0
0 0.196578 0
0 0.240692 0
0 0.191944 0
0 0.0691437 0
0 -0.0803332 0
0 -0.188986 0
-0.147199 -0.14054 -0.482572
-0.414859 -0.122022 -0.418884
-0.511531 -0.045931 -0.157689
-0.410404 0.0482957 0.165809
-0.150926 0.123902 0.425382
0.16678 0.151706 0.520841
0.420141 0.120982 0.415356
0.511397 0.0435915 0.149661
0.40495 -0.0502764 -0.172574
0.132434 -0.116074 -0.398563
-0.237607 0.00196211 -0.778964
-0.669663 0.00169781 -0.676158
-0.82571 0.000639097 -0.25454
-0.662472 -0.000672002 0.267648
-0.243624 -0.00172402 0.686648
0.269216 -0.00211091 0.840736
0.678188 -0.0016834 0.670464
0.825493 -0.00060657 0.241581
0.653667 0.000699517 -0.278567
0.213774 0.00162054 -0.643357
-0.236345 0.143707 -0.774826
-0.666106 0.124763 -0.672566
-0.821324 0.0469678 -0.253188
-0.658953 -0.0493865 0.266226
-0.24233 -0.126701 0.683
0.267785 -0.155133 0.83627
0.674586 -0.123715 0.666903
0.821107 -0.0445769 0.240298
0.650194 0.0513997 -0.277087
0.212638 0.11869 -0.63994
-0.143899 0.230009 -0.471754
-0.40556 0.199689 -0.409494
-0.500065 0.0751741 -0.154154
-0.401205 -0.0790453 0.162092
-0.147543 -0.20279 0.415847
0.163041 -0.248298 0.509165
0.410723 -0.19801 0.406045
0.499934 -0.071347 0.146306
0.395873 0.0822674 -0.168705
0.129465 0.189967 -0.389629
0.00406409 0.227571 0.0133236
0.0114541 0.197573 0.0115652
0.0141231 0.0743774 0.00435371
0.011331 -0.0782076 -0.00457789
0.00416702 -0.200641 -0.0117446
-0.00460469 -0.245666 -0.0143801
-0.0115999 -0.195912 -0.0114677
-0.0141194 -0.070591 -0.00413208
-0.0111805 0.0813955 0.00476469
-0.00365644 0.187954 0.0110041
0.150459 0.137335 0.493261
0.424048 0.119232 0.428162
0.522861 0.0448857 0.161181
0.419494 -0.047197 -0.169481
0.154269 -0.121084 -0.434804
-0.170474 -0.148255 -0.532377
-0.429447 -0.11823 -0.424555
-0.522723 -0.0426005 -0.152975
-0.413919 0.0491208 0.176396
-0.135367 0.113427 0.407391
0.238806 -0.00588587 0.782895
0.673008 -0.00509329 0.679538
0.829833 -0.00191688 0.255812
0.665779 0.00201552 -0.268985
0.244841 0.00517081 -0.690078
-0.27056 0.00633118 -0.844934
-0.681575 0.00504893 -0.673812
-0.829614 0.00181918 -0.242787
-0.656932 -0.00209894 0.27996
-0.214852 -0.00486122 0.646604
0.23502 -0.146836 0.770482
0.661229 -0.126926 0.667703
0.81528 -0.0477678 0.251329
0.654102 0.050226 -0.264268
0.240547 0.128855 -0.677978
-0.265814 0.15777 -0.830122
-0.66962 0.125817 -0.661999
-0.815065 0.0453333 -0.238528
-0.645432 -0.0523073 0.275117
-0.211446 -0.121274 0.636352
0.140561 -0.231136 0.460811
0.367454 -0.186549 0.371919
0.45258 -0.0699899 0.139538
0.363097 0.0735716 -0.146678
0.133529 0.188749 -0.376305
-0.147555 0.231105 -0.46075
-0.371712 0.184299 -0.367435
-0.45246 0.0663897 -0.13236
-0.358645 -0.0771336 0.15378
-0.126462 -0.190898 0.380591
0 0.26585 0
0 0.225729 0
0 0.0846896 0
0 -0.0890234 0
0 -0.22839 0
0 -0.279643 0
0 -0.223007 0
0 -0.0803332 0
0 0.0933336 0
0 0.219569 0
-0.144865 0.163283 -0.0902757
-0.407598 0.140804 -0.0791603
-0.502559 0.0529766 -0.0298201
-0.403205 -0.055701 0.0313581
-0.148279 -0.142901 0.0804486
0.163855 -0.174969 0.0985019
0.412772 -0.139532 0.0785526
0.502427 -0.0502735 0.0283058
0.39786 0.0580441 -0.0325883
0.130334 0.134858 -0.07456
-0.23384 -0.00227964 -0.145722
-0.657941 -0.00195897 -0.12778
-0.811227 -0.000737054 -0.0481354
-0.650851 0.000774971 0.050618
-0.239351 0.00198817 0.12986
0.264493 0.00243434 0.159001
0.666293 0.00194133 0.126799
0.811014 0.000699467 0.045691
0.642223 -0.000807564 -0.0526039
0.210384 -0.00188279 -0.120354
-0.232597 -0.166963 -0.144948
-0.654446 -0.143934 -0.127101
-0.806918 -0.0541586 -0.0478797
-0.647393 0.0569447 0.0503491
-0.238079 0.146091 0.12917
0.263087 0.178875 0.158156
0.662753 0.142648 0.126126
0.806706 0.0513966 0.0454483
0.638811 -0.0593291 -0.0523244
0.209267 -0.137897 -0.119715
-0.141617 -0.267231 -0.088252
-0.39846 -0.230372 -0.0773858
-0.491294 -0.0866833 -0.0291516
-0.394166 0.0911421 0.0306551
-0.144955 0.233825 0.0786454
0.160181 0.286297 0.0962939
0.403519 0.228314 0.0767919
0.491164 0.0822624 0.0276713
0.388941 -0.0949585 -0.0318578
0.127412 -0.22071 -0.0728886
0.00399965 -0.264399 0.00249247
0.0112536 -0.227931 0.00218557
0.0138754 -0.0857648 0.000823319
0.0111324 0.0901763 -0.000865779
0.00409394 0.231348 -0.00222114
-0.00452392 0.283263 -0.00271959
-0.0113964 0.225895 -0.00216879
-0.0138717 0.0813906 -0.00078151
-0.0109848 -0.093952 0.000899752
-0.00359847 -0.218371 0.00205857
0.148074 -0.15956 0.0922754
0.416625 -0.137553 0.0809135
0.51369 -0.0517577 0.0304806
0.412136 0.05442 -0.0320525
0.151563 0.139614 -0.0822305
-0.167483 0.170945 -0.100684
-0.421913 0.136324 -0.0802923
-0.513555 0.0491179 -0.0289327
-0.406673 -0.0566986 0.0333102
-0.133221 -0.131783 0.0762115
0.23502 0.00683838 0.146458
0.661229 0.00587918 0.128417
0.81528 0.00221171 0.0483752
0.654102 -0.00232543 -0.0508701
0.240547 -0.00596589 -0.130506
-0.265814 -0.00730467 -0.159793
-0.669621 -0.00582525 -0.12743
-0.815065 -0.00209882 -0.0459185
-0.645432 0.00242398 0.0528664
-0.211446 0.00564792 0.120961
0.231293 0.170598 0.144136
0.64969 0.146519 0.12614
0.801025 0.055118 0.0475112
0.642665 -0.0579518 -0.0499607
0.23634 -0.148675 -0.128174
-0.261166 -0.182039 -0.156937
-0.657913 -0.145171 -0.125153
-0.800814 -0.0523044 -0.0450973
-0.634166 0.0604112 0.0519365
-0.208093 0.1409 0.119044
0.138332 0.26854 0.0862049
0.361628 0.216738 0.0695757
0.445404 0.0813164 0.0261036
0.35734 -0.0854777 -0.0274394
0.131412 -0.219294 -0.0703961
-0.145216 -0.268505 -0.0861935
-0.365818 -0.214125 -0.0687367
-0.445286 -0.0771336 -0.0247609
-0.352958 0.0896162 0.0287679
-0.124457 0.221791 0.0711979
0 0.657954 0
0 0.531032 0
0 0.199234 0
0 -0.20943 0
0 -0.537294 0
0 -0.657866 0
0 -0.524629 0
0 -0.188986 0
0 0.219569 0
0 0.543413 0
-0.086641 0.40411 0.33685
-0.226496 0.326156 0.27187
-0.278968 0.122368 0.102001
-0.223811 -0.12863 -0.107221
-0.0823067 -0.330002 -0.275076
0.0909523 -0.404057 -0.336805
0.229121 -0.322223 -0.268592
0.278893 -0.116074 -0.0967544
0.221067 0.134858 0.112412
0.0779504 0.33376 0.278209
-0.139855 -0.00564189 0.543741
-0.365609 -0.00455355 0.438851
-0.450307 -0.00170841 0.16465
-0.361274 0.00179584 -0.173075
-0.132859 0.00460724 -0.444026
0.146814 0.00564114 -0.543669
0.369846 0.00449864 -0.43356
0.450188 0.00162054 -0.15618
0.356844 -0.00188279 0.181455
0.125827 -0.00465972 0.449083
-0.139112 -0.413218 0.540852
-0.363666 -0.333506 0.43652
-0.447915 -0.125126 0.163775
-0.359355 0.131529 -0.172156
-0.132153 0.337439 -0.441667
0.146035 0.413163 -0.540781
0.367881 0.329485 -0.431257
0.447796 0.11869 -0.155351
0.354948 -0.137897 0.180491
0.125159 -0.341282 0.446698
-0.0846988 -0.661371 0.329299
-0.221419 -0.53379 0.265776
-0.272714 -0.200269 0.0997147
-0.218794 0.210517 -0.104817
-0.0804617 0.540084 -0.26891
0.0889134 0.661283 -0.329255
0.223985 0.527353 -0.262571
0.272642 0.189967 -0.0945855
0.216111 -0.22071 0.109892
0.0762031 -0.546235 0.271973
0.00239212 -0.654362 -0.00930029
0.00625346 -0.528133 -0.00750623
0.00770217 -0.198147 -0.00281621
0.00617933 0.208286 0.00296032
0.00227245 0.534361 0.00759474
-0.00251115 0.654275 0.00929905
-0.00632593 0.521765 0.00741572
-0.00770013 0.187954 0.00267135
-0.00610355 -0.218371 -0.00310365
-0.00215218 -0.540447 -0.00768123
0.0885601 -0.394896 -0.344312
0.231513 -0.318719 -0.277893
0.285147 -0.119578 -0.104261
0.228769 0.125697 0.109596
0.0841298 0.322477 0.28117
-0.0929669 0.394844 0.344266
-0.234196 0.314876 0.274542
-0.285071 0.113427 0.0988975
-0.225963 -0.131783 -0.114902
-0.0796771 -0.32615 -0.284372
0.140561 0.0169243 -0.546485
0.367454 0.0136596 -0.441066
0.45258 0.00512484 -0.16548
0.363097 -0.00538709 0.173949
0.133529 -0.0138206 0.446267
-0.147555 -0.0169221 0.546412
-0.371712 -0.0134949 0.435748
-0.45246 -0.00486122 0.156968
-0.358645 0.00564792 -0.182371
-0.126462 0.013978 -0.451349
0.138332 0.422215 -0.53782
0.361628 0.340768 -0.434073
0.445404 0.12785 -0.162857
0.35734 -0.134393 0.171191
0.131412 -0.344786 0.439191
-0.145216 -0.422159 0.537749
-0.365818 -0.336659 0.428839
-0.445286 -0.121274 0.15448
-0.352958 0.1409 -0.179479
-0.124457 0.348713 -0.444193
0.0827341 0.664612 -0.321661
0.216283 0.536406 -0.259611
0.266388 0.20125 -0.0974017
0.213719 -0.211549 0.102386
0.0785953 -0.542731 0.262672
-0.086851 -0.664524 0.321618
-0.218789 -0.529938 0.256481
-0.266317 -0.190898 0.0923914
-0.211098 0.221791 -0.107343
-0.0744355 0.548912 -0.265664
