# vtk DataFile Version 3.0
Velocity field
ASCII
DATASET STRUCTURED_POINTS
DIMENSIONS 5 5 5
SPACING 1.33333 1.33333 1.33333
ORIGIN 0 0 0
POINT_DATA 125
VECTORS velocity float
0 0.63494 0
0 0.149362 0
0 -0.564669 0
0 -0.415025 0
0 0.369411 0
0 -0.336217 1.1027
0 -0.0790908 0.298948
0 0.299006 -1.13019
0 0.219766 -0.830673
0 -0.195612 0.641555
0 -0.793122 0.518793
0 -0.186572 0.140648
0 0.705344 -0.531725
0 0.518419 -0.390811
0 -0.461441 0.301836
0 -0.0369276 -0.858622
0 -0.00868676 -0.232777
0 0.0328407 0.880023
0 0.0241375 0.646806
0 -0.0214846 -0.499549
0 0.775748 -0.922754
0 0.182485 -0.217066
0 -0.689894 0.820629
0 -0.507063 0.603152
0 0.451333 -0.536861
0 0.149362 0
0 0.044708 0
0 -0.169021 0
0 -0.124228 0
0 0.0868992 0
0.471952 -0.0790908 0.387249
0.751147 -0.0199345 0.098697
-0.157498 0.0755605 -0.374253
-0.825438 0.0555653 -0.275238
-0.213255 -0.0460153 0.225303
0.222042 -0.186572 0.182191
0.353399 -0.0472561 0.0464348
-0.0740994 0.179148 -0.176077
-0.38835 0.131745 -0.129494
-0.100331 -0.108548 0.105999
-0.367487 -0.00868676 -0.301533
-0.584456 -0.00222857 -0.076796
0.122546 0.00845455 0.291192
0.642259 0.00621836 0.214152
0.166052 -0.00505398 -0.175433
-0.394935 0.182485 -0.324055
-0.580742 0.0429274 -0.0762299
0.12171 -0.162289 0.288191
0.638004 -0.11928 0.211816
0.178455 0.106171 -0.188536
0 -0.564669 0
0 -0.169021 0
0 0.638992 0
0 0.469651 0
0 -0.328527 0
0.222042 0.299006 -0.92051
0.353399 0.0755605 -0.233796
-0.0740994 -0.286448 0.88646
-0.38835 -0.210654 0.651923
-0.100331 0.173963 -0.535556
0.104465 0.705344 -0.433077
0.166266 0.179148 -0.109996
-0.0348623 -0.679256 0.417061
-0.182711 -0.49954 0.306715
-0.0472034 0.410372 -0.251966
-0.172893 0.0328407 0.716758
-0.274974 0.00845455 0.18192
0.0576553 -0.0320809 -0.68974
0.302168 -0.0235966 -0.507246
0.0781233 0.0191068 0.417012
-0.185807 -0.689894 0.770294
-0.273225 -0.162289 0.181202
0.0572617 0.613541 -0.685043
0.300165 0.450945 -0.503498
0.0839585 -0.401383 0.44816
0 -0.415025 0
0 -0.124228 0
0 0.469651 0
0 0.345187 0
0 -0.241463 0
-0.367487 0.219766 -0.820327
-0.584456 0.0555657 -0.208441
0.122546 -0.210656 0.790342
0.642259 -0.154917 0.581239
0.166052 0.127861 -0.477269
-0.172893 0.518419 -0.385943
-0.274974 0.131746 -0.0980671
0.0576553 -0.499544 0.371841
0.302168 -0.367378 0.273461
0.0781233 0.301618 -0.224543
0.286145 0.0241375 0.63875
0.454763 0.00621842 0.16219
-0.0953515 -0.0235969 -0.61495
-0.499734 -0.0173565 -0.452247
-0.129297 0.0140433 0.371627
0.307518 -0.507063 0.686459
0.452197 -0.11928 0.161481
-0.0947702 0.450945 -0.610486
-0.496784 0.331439 -0.4487
-0.138954 -0.295011 0.399384
0 0.369411 0
0 0.0868992 0
0 -0.328527 0
0 -0.241463 0
0 0.214924 0
-0.394935 -0.195612 0.534567
-0.580742 -0.0460153 0.12575
0.12171 0.173963 -0.475404
0.638004 0.127861 -0.349416
0.178455 -0.113808 0.311013
-0.185807 -0.461441 0.2515
-0.273225 -0.108548 0.0591623
0.0572617 0.410372 -0.223666
0.300165 0.301618 -0.164392
0.0839585 -0.268468 0.146324
0.307518 -0.0214846 -0.416242
0.452197 -0.00505399 -0.0979157
-0.0947702 0.0191068 0.370175
-0.496784 0.0140433 0.272074
-0.138954 -0.0124998 -0.242171
0.330487 0.451333 -0.447332
0.485972 0.106171 -0.105229
-0.101849 -0.401383 0.397824
-0.53389 -0.295011 0.292396
-0.149333 0.262587 -0.260259
