# vtk DataFile Version 3.0
Velocity field
ASCII
DATASET STRUCTURED_POINTS
DIMENSIONS 5 5 5
SPACING 1.33333 1.33333 1.33333
ORIGIN 0 0 0
POINT_DATA 125
VECTORS velocity float
0 0.406578 0
0 0.0956425 0
0 -0.361581 0
0 -0.265757 0
0 0.236549 0
0 -0.215293 0.706105
0 -0.0506451 0.191429
0 0.191466 -0.723705
0 0.140725 -0.531914
0 -0.125258 0.410814
0 -0.507869 0.332205
0 -0.11947 0.0900624
0 0.451661 -0.340485
0 0.331965 -0.250252
0 -0.29548 0.193278
0 -0.0236463 -0.549811
0 -0.00556249 -0.149057
0 0.0210292 0.563515
0 0.0154562 0.414177
0 -0.0137575 -0.319882
0 0.496744 -0.590877
0 0.116853 -0.138996
0 -0.441767 0.525483
0 -0.324693 0.386223
0 0.289007 -0.343774
0 0.0956425 0
0 0.0286284 0
0 -0.108231 0
0 -0.0795484 0
0 0.0556451 0
0.30221 -0.0506451 0.247972
0.464928 -0.0124023 0.06113
-0.0974533 0.0469285 -0.23134
-0.510817 0.034498 -0.170067
-0.136556 -0.0294655 0.144271
0.142182 -0.11947 0.116665
0.218738 -0.0293508 0.0287603
-0.0458497 0.111066 -0.10884
-0.240327 0.0816477 -0.0800124
-0.0642463 -0.0695079 0.0678758
-0.235317 -0.00556249 -0.193084
-0.361929 -0.0013727 -0.0475875
0.0758639 0.0051952 0.180088
0.397652 0.00381924 0.132389
0.10633 -0.00323627 -0.112337
-0.252893 0.116853 -0.207506
-0.371873 0.0274882 -0.0488131
0.0779362 -0.10392 0.18454
0.40854 -0.0763801 0.135635
0.114272 0.0679854 -0.120728
0 -0.361581 0
0 -0.108231 0
0 0.409172 0
0 0.300736 0
0 -0.210369 0
0.142182 0.191466 -0.58944
0.218738 0.0469285 -0.144947
-0.0458497 -0.177576 0.548511
-0.240327 -0.13054 0.403228
-0.0642463 0.111396 -0.342939
0.0668933 0.451661 -0.277317
0.10291 0.111066 -0.068194
-0.0215711 -0.420298 0.258062
-0.113068 -0.308974 0.189709
-0.0302263 0.262778 -0.161344
-0.110711 0.0210292 0.45897
-0.170279 0.0051952 0.112837
0.0356922 -0.0196627 -0.426996
0.187085 -0.0144551 -0.313898
0.0500256 0.0122349 0.26703
-0.11898 -0.441767 0.493251
-0.174957 -0.10392 0.116031
0.036667 0.392875 -0.438661
0.192208 0.288758 -0.32241
0.0537621 -0.257022 0.286975
0 -0.265757 0
0 -0.0795484 0
0 0.300737 0
0 0.221037 0
0 -0.154619 0
-0.235317 0.140725 -0.525289
-0.361929 0.0344981 -0.129191
0.0758639 -0.13054 0.488888
0.397652 -0.0959632 0.359397
0.10633 0.0818743 -0.305615
-0.110711 0.331965 -0.247135
-0.170279 0.0816481 -0.0607812
0.0356922 -0.308976 0.23001
0.187085 -0.227138 0.169088
0.0500256 0.193138 -0.143784
0.18323 0.0154562 0.409018
0.28175 0.00381926 0.100571
-0.0590572 -0.0144552 -0.380582
-0.309558 -0.0106268 -0.279778
-0.0827942 0.00899248 0.237968
0.196916 -0.324693 0.439568
0.28956 -0.0763801 0.103403
-0.0606853 0.288758 -0.39092
-0.318111 0.212234 -0.287321
-0.0889782 -0.188908 0.255742
0 0.236549 0
0 0.0556451 0
0 -0.210369 0
0 -0.154619 0
0 0.137625 0
-0.252893 -0.125258 0.342305
-0.371873 -0.0294655 0.080523
0.0779362 0.111396 -0.304421
0.40854 0.0818744 -0.223746
0.114272 -0.0728758 0.199154
-0.11898 -0.29548 0.161046
-0.174957 -0.0695079 0.0378841
0.036667 0.262778 -0.143222
0.192208 0.193138 -0.105267
0.0537621 -0.171911 0.0936971
0.196916 -0.0137575 -0.266537
0.28956 -0.00323627 -0.0626995
-0.0606852 0.0122349 0.237038
-0.318111 0.00899249 0.17422
-0.0889782 -0.00800415 -0.155072
0.211624 0.289007 -0.286445
0.311188 0.0679854 -0.0673826
-0.065218 -0.257022 0.254743
-0.341871 -0.188908 0.187233
-0.0956241 0.168145 -0.166655
