# vtk DataFile Version 3.0
Velocity field
ASCII
DATASET STRUCTURED_POINTS
DIMENSIONS 5 5 5
SPACING 1.33333 1.33333 1.33333
ORIGIN 0 0 0
POINT_DATA 125
VECTORS velocity float
0 0.618649 0
0 0.145529 0
0 -0.550181 0
0 -0.404376 0
0 0.359932 0
0 -0.32759 1.07441
0 -0.0770615 0.291277
0 0.291334 -1.10119
0 0.214127 -0.809359
0 -0.190593 0.625094
0 -0.772772 0.505482
0 -0.181785 0.137039
0 0.687247 -0.518082
0 0.505117 -0.380783
0 -0.449601 0.294091
0 -0.0359801 -0.836591
0 -0.00846387 -0.226804
0 0.0319981 0.857444
0 0.0235182 0.63021
0 -0.0209334 -0.486732
0 0.755844 -0.899077
0 0.177803 -0.211497
0 -0.672192 0.799573
0 -0.494053 0.587676
0 0.439753 -0.523086
0 0.145529 0
0 0.0435609 0
0 -0.164684 0
0 -0.121041 0
0 0.0846695 0
0.459843 -0.0770615 0.377313
0.729629 -0.0193733 0.0958813
-0.152981 0.0734194 -0.363496
-0.801775 0.0539887 -0.267315
-0.207784 -0.0448346 0.219522
0.216345 -0.181785 0.177517
0.343275 -0.0459197 0.0451101
-0.071974 0.174047 -0.171016
-0.377217 0.127989 -0.125766
-0.0977571 -0.105763 0.10328
-0.358058 -0.00846387 -0.293796
-0.567743 -0.00216362 -0.0746088
0.119038 0.00820591 0.282839
0.623881 0.00603515 0.207999
0.161791 -0.00492431 -0.170932
-0.384802 0.177803 -0.31574
-0.565842 0.0418259 -0.074274
0.118588 -0.158125 0.280796
0.621634 -0.11622 0.206382
0.173876 0.103446 -0.183699
0 -0.550181 0
0 -0.164684 0
0 0.622596 0
0 0.4576 0
0 -0.320097 0
0.216345 0.291334 -0.896891
0.343275 0.0734194 -0.227139
-0.071974 -0.278274 0.861035
-0.377217 -0.204634 0.633198
-0.0977571 0.169499 -0.521815
0.101785 0.687247 -0.421965
0.161503 0.174047 -0.106864
-0.0338623 -0.659774 0.4051
-0.177473 -0.485191 0.297905
-0.0459923 0.399842 -0.245501
-0.168457 0.0319981 0.698367
-0.267111 0.00820591 0.176749
0.0560047 -0.0311282 -0.669995
0.293522 -0.0228945 -0.492704
0.0761188 0.0186166 0.406313
-0.18104 -0.672192 0.750529
-0.266214 -0.158125 0.176553
0.0557925 0.597799 -0.667466
0.292463 0.439374 -0.490579
0.0818043 -0.391084 0.436661
0 -0.404376 0
0 -0.121041 0
0 0.4576 0
0 0.33633 0
0 -0.235267 0
-0.358058 0.214127 -0.799278
-0.567743 0.0539892 -0.2025
0.119038 -0.204636 0.767649
0.623881 -0.150483 0.564525
0.161791 0.12458 -0.465023
-0.168457 0.505117 -0.376041
-0.267111 0.12799 -0.0952721
0.0560047 -0.485195 0.361163
0.293522 -0.35681 0.265597
0.0761188 0.293879 -0.218782
0.278803 0.0235182 0.622361
0.441783 0.00603521 0.157575
-0.0926267 -0.0228947 -0.597325
-0.485461 -0.0168391 -0.439267
-0.125979 0.0136829 0.362092
0.299627 -0.494053 0.668846
0.440594 -0.11622 0.157338
-0.0923386 0.439374 -0.594822
-0.484037 0.322934 -0.437187
-0.135389 -0.287442 0.389137
0 0.359932 0
0 0.0846695 0
0 -0.320097 0
0 -0.235267 0
0 0.20941 0
-0.384802 -0.190593 0.520851
-0.565842 -0.0448346 0.122524
0.118588 0.169499 -0.463206
0.621634 0.12458 -0.340451
0.173876 -0.110888 0.303033
-0.18104 -0.449601 0.245047
-0.266214 -0.105763 0.0576443
0.0557925 0.399842 -0.217927
0.292463 0.293879 -0.160174
0.0818043 -0.26158 0.142569
0.299627 -0.0209334 -0.405562
0.440594 -0.00492431 -0.0954034
-0.0923386 0.0186166 0.360677
-0.484037 0.0136829 0.265093
-0.135389 -0.0121791 -0.235957
0.322007 0.439753 -0.435854
0.473503 0.103446 -0.102529
-0.0992355 -0.391084 0.387617
-0.520191 -0.287442 0.284893
-0.145501 0.25585 -0.253581
