# vtk DataFile Version 3.0
Velocity field
ASCII
DATASET STRUCTURED_POINTS
DIMENSIONS 10 10 10
SPACING 0.631579 0.631579 0.631579
ORIGIN 0 0 0
POINT_DATA 1000
VECTORS velocity float
0 0.0674324 0
0 0.0544245 0
0 0.0204191 0
0 -0.021464 0
0 -0.0550663 0
0 -0.0674235 0
0 -0.0537682 0
0 -0.0193688 0
0 0.0225033 0
0 0.0556934 0
0 0.0414165 0.0528214
0 0.0334271 0.0443036
0 0.0125413 0.0166219
0 -0.0131831 -0.0174725
0 -0.0338213 -0.044826
0 -0.041411 -0.0548852
0 -0.033024 -0.0437694
0 -0.0118962 -0.0157669
0 0.0138213 0.0183185
0 0.0342065 0.0436259
0 -0.000578227 0.0852639
0 -0.000466685 0.0715145
0 -0.000175092 0.026831
0 0.000184052 -0.0282041
0 0.000472188 -0.0723578
0 0.00057815 -0.0885954
0 0.000461057 -0.0706522
0 0.000166086 -0.0254509
0 -0.000192963 0.0295696
0 -0.000477566 0.0704207
0 -0.0423499 0.084811
0 -0.0341804 0.0711346
0 -0.0128239 0.0266885
0 0.0134802 -0.0280542
0 0.0345835 -0.0719734
0 0.0423442 -0.0881247
0 0.0337683 -0.0702769
0 0.0121643 -0.0253157
0 -0.0141328 0.0294125
0 -0.0349773 0.0700466
0 -0.0677826 0.0516373
0 -0.0547071 0.0433104
0 -0.0205252 0.0162493
0 0.0215755 -0.0170809
0 0.0553522 -0.0438212
0 0.0677736 -0.0536549
0 0.0540475 -0.0427882
0 0.0194694 -0.0154135
0 -0.0226201 0.0179079
0 -0.0559826 0.042648
0 -0.0670643 -0.00145838
0 -0.0541274 -0.0012232
0 -0.0203077 -0.000458925
0 0.0213469 0.000482409
0 0.0547656 0.00123763
0 0.0670554 0.00151536
0 0.0534747 0.00120845
0 0.0192631 0.000435318
0 -0.0223804 -0.000505766
0 -0.0553894 -0.00120449
0 -0.0404721 -0.0539914
0 -0.0326649 -0.0452849
0 -0.0122553 -0.0169901
0 0.0128825 0.0178596
0 0.0330501 0.0458189
0 0.0404668 0.056101
0 0.032271 0.0447389
0 0.0116249 0.0161162
0 -0.0135062 -0.0187243
0 -0.0334265 -0.0445923
0 0.00173454 -0.0856942
0 0.00139994 -0.0718754
0 0.000525235 -0.0269664
0 -0.000552113 0.0283464
0 -0.00141645 0.072723
0 -0.00173431 0.0890425
0 -0.00138306 0.0710087
0 -0.000498218 0.0255793
0 0.000578844 -0.0297188
0 0.00143258 -0.0707761
0 0.043272 -0.0843355
0 0.0349246 -0.0707358
0 0.0131031 -0.0265389
0 -0.0137737 0.0278969
0 -0.0353365 0.0715699
0 -0.0432662 0.0876307
0 -0.0345035 0.0698829
0 -0.0124291 0.0251737
0 0.0144405 -0.0292476
0 0.0357389 -0.0696539
0 0.0681148 -0.0504396
0 0.0549752 -0.0407096
0 0.0206258 -0.0152735
0 -0.0216812 0.0160551
0 -0.0556235 0.0411896
0 -0.0681057 0.0504329
0 -0.0543123 0.0402187
0 -0.0195648 0.0144879
0 0.022731 -0.0168325
0 0.056257 -0.0416587
0 0.0544245 0
0 0.0462108 0
0 0.0173375 0
0 -0.0182247 0
0 -0.0467557 0
0 -0.057248 0
0 -0.0456536 0
0 -0.0164457 0
0 0.0191071 0
0 0.0449499 0
0.00768016 0.0334271 0.0584585
0.0201886 0.0271368 0.0474488
0.0248658 0.0101815 0.0178024
0.0199494 -0.0107025 -0.0187134
0.00733639 -0.0274574 -0.0480094
-0.00810701 -0.0336189 -0.058783
-0.0204227 -0.0268101 -0.0468777
-0.0248591 -0.00965775 -0.0168867
-0.0197046 0.0112202 0.0196186
-0.0069098 0.0276079 0.0482817
0.0123973 -0.000466685 0.0943632
0.0325882 -0.000378702 0.0765916
0.0401381 -0.000142086 0.0287364
0.0322021 0.000149357 -0.030207
0.0118423 0.000383176 -0.0774965
-0.0130863 0.000469163 -0.0948871
-0.0329661 0.000374143 -0.0756697
-0.0401274 0.000134777 -0.0272583
-0.031807 -0.000156582 0.0316682
-0.0111538 -0.000385441 0.0779359
0.0123314 -0.0341804 0.0938619
0.0324151 -0.0277387 0.0761847
0.0399248 -0.0104073 0.0285839
0.032031 0.0109399 -0.0300466
0.0117794 0.0280663 -0.0770847
-0.0130167 0.0343646 -0.094383
-0.032791 0.0274048 -0.0752677
-0.0399142 0.00987197 -0.0271135
-0.031638 -0.0114691 0.0315
-0.0110945 -0.0282301 0.0775219
0.007508 -0.0547071 0.057148
0.0197361 -0.0443969 0.0463852
0.0243083 -0.0166573 0.0174033
0.0195022 0.0175097 -0.0182939
0.00717192 0.0449213 -0.0469332
-0.00792527 0.055002 -0.0574652
-0.0199649 0.0438624 -0.0458269
-0.0243018 0.0158004 -0.0165081
-0.0192629 -0.0183567 0.0191788
-0.00675491 -0.0451833 0.0471993
-0.000212046 -0.0541274 -0.00161401
-0.000557397 -0.0439264 -0.00131004
-0.000686532 -0.0164808 -0.000491515
-0.000550794 0.0173241 0.000516669
-0.000202554 0.0444453 0.00132552
0.000223831 0.054419 0.00162297
0.000563861 0.0433975 0.00129427
0.00068635 0.015633 0.000466233
0.000544036 -0.0181622 -0.000541662
0.000190777 -0.0447045 -0.00133304
-0.00785028 -0.0326649 -0.0597534
-0.0206357 -0.0265087 -0.0484999
-0.0254165 -0.00994583 -0.0181967
-0.0203913 0.0104548 0.0191279
-0.0074989 0.0268219 0.0490729
0.0082866 0.0328409 0.0600852
0.020875 0.0261896 0.0479161
0.0254098 0.00943423 0.0172607
0.0201411 -0.0109606 -0.0200532
0.00706286 -0.0269784 -0.0493511
-0.0124598 0.00139994 -0.0948394
-0.0327527 0.0011361 -0.0769782
-0.0403407 0.000426256 -0.0288814
-0.0323646 -0.000448067 0.0303595
-0.0119021 -0.00114952 0.0778876
0.0131523 -0.00140749 0.095366
0.0331325 -0.00112243 0.0760515
0.0403299 -0.000404329 0.0273959
0.0319675 0.000469744 -0.031828
0.01121 0.00115623 -0.0783292
-0.0122623 0.0349246 -0.0933357
-0.032233 0.0283418 -0.0757569
-0.0397006 0.0106336 -0.0284233
-0.0318511 -0.0111778 0.0298778
-0.0117133 -0.0286766 0.0766518
0.0129437 -0.0351119 0.0938529
0.0326068 -0.0280007 0.0748449
0.0396901 -0.0100866 0.0269612
0.0314603 0.0117185 -0.0313231
0.0110323 0.0288447 -0.0770873
-0.00733384 0.0549752 -0.0558224
-0.0191721 0.0443703 -0.0450541
-0.0236136 0.016647 -0.0169035
-0.0189448 -0.0174989 0.0177685
-0.00696696 -0.0448935 0.0455853
0.00769878 -0.0549679 0.055815
0.0193943 -0.0438353 0.0445108
0.0236073 -0.0157907 0.016034
0.0187125 0.0183461 -0.0186288
0.00659822 0.0454048 -0.0461045
0 0.0204191 0
0 0.0173375 0
0 0.00650474 0
0 -0.00683761 0
0 -0.017542 0
0 -0.0214785 0
0 -0.0171285 0
0 -0.00617014 0
0 0.00716866 0
0 0.0168644 0
0.0123973 0.0125413 0.0415418
0.0325882 0.0101815 0.0337134
0.0401381 0.00382 0.012649
0.0322021 -0.00401547 -0.0132962
0.0118423 -0.0103017 -0.0341117
-0.0130863 -0.0126135 -0.0417665
-0.0329661 -0.0100589 -0.0333076
-0.0401274 -0.00362349 -0.0119983
-0.031807 0.00420971 0.0139394
-0.0111538 0.010358 0.0343099
0.0200116 -0.000175092 0.0670565
0.0526036 -0.000142086 0.0544199
0.0647905 -5.33092e-05 0.0204179
0.0519803 5.60371e-05 -0.0214627
0.0191158 0.000143764 -0.0550628
-0.0211238 0.000176026 -0.0674193
-0.0532136 0.000140375 -0.0537647
-0.0647733 5.0567e-05 -0.0193676
-0.0513427 -5.8748e-05 0.022501
-0.0180043 -0.000144611 0.0553829
0.0199053 -0.0128239 0.0667002
0.0523242 -0.0104073 0.0541308
0.0644463 -0.00390473 0.0203094
0.0517044 0.00410453 -0.0213486
0.0190143 0.0105302 -0.0547703
-0.0210116 0.0128933 -0.0670612
-0.0529309 0.010282 -0.0534791
-0.0644292 0.00370386 -0.0192647
-0.05107 -0.00430309 0.0223814
-0.0179087 -0.0105914 0.0550887
0.0121194 -0.0205252 0.0406106
0.0318577 -0.0166573 0.0329577
0.0392384 -0.00624966 0.0123654
0.0314802 0.00656946 -0.0129981
0.0115769 0.0168541 -0.033347
-0.012793 0.0206362 -0.0408303
-0.0322271 0.0164568 -0.0325609
-0.039228 0.00592817 -0.0117293
-0.0310941 -0.00688726 0.013627
-0.0109037 -0.016952 0.0335408
-0.000342283 -0.0203077 -0.00114695
-0.000899745 -0.0164808 -0.000930811
-0.00110819 -0.00618343 -0.000349233
-0.000889089 0.00649983 0.000367103
-0.000326962 0.0166755 0.000941807
0.000361307 0.0204175 0.00115315
0.000910179 0.0162823 0.000919606
0.0011079 0.00586535 0.000331267
0.000878179 -0.00681428 -0.000384862
0.00030795 -0.0167724 -0.000947283
-0.0126719 -0.0122553 -0.042462
-0.0333102 -0.00994583 -0.0344601
-0.0410271 -0.00373158 -0.0129292
-0.0329154 0.00392254 0.0135907
-0.0121046 0.0100633 0.0348672
0.0133761 0.0123216 0.0426916
0.0336964 0.00982614 0.0340454
0.0410162 0.00353965 0.0122641
0.0325116 -0.0041123 -0.0142482
0.0114008 -0.0101218 -0.0350699
-0.0201126 0.000525235 -0.0673949
-0.0528691 0.000426256 -0.0546946
-0.0651175 0.000159927 -0.0205208
-0.0522426 -0.000168111 0.021571
-0.0192123 -0.000431291 0.0553407
0.0212303 -0.000528076 0.0677596
0.0534821 -0.000421124 0.0540361
0.0651002 -0.000151701 0.0194653
0.0516018 0.000176243 -0.0226145
0.0180952 0.000433799 -0.0556623
-0.0197937 0.0131031 -0.0663263
-0.0520303 0.0106336 -0.0538268
-0.0640844 0.00398963 -0.0201953
-0.0514139 -0.00419379 0.0212287
-0.0189075 -0.0107592 0.0544627
0.0208935 -0.0131736 0.0666846
0.0526337 -0.0105056 0.0531788
0.0640673 -0.00378441 0.0191565
0.0507832 0.00439667 -0.0222557
0.0178083 0.0108221 -0.0547798
-0.0118382 0.0206258 -0.0396686
-0.0309474 0.016647 -0.0320163
-0.0381169 0.00624566 -0.012012
-0.0305805 -0.00656527 0.0126267
-0.011246 -0.0168433 0.0323939
0.0124273 -0.020623 0.0396633
0.0313061 -0.0164462 0.0316303
0.0381067 -0.00592439 0.0113941
0.0302055 0.00688314 -0.013238
0.0106508 0.0170351 -0.0327628
0 -0.021464 0
0 -0.0182247 0
0 -0.00683761 0
0 0.00718751 0
0 0.0184396 0
0 0.0225776 0
0 0.018005 0
0 0.00648589 0
0 -0.0075355 0
0 -0.0177274 0
0.0123314 -0.0131831 0.00859799
0.0324151 -0.0107025 0.00697773
0.0399248 -0.00401547 0.00261798
0.032031 0.00422097 -0.00275195
0.0117794 0.0108289 -0.00706017
-0.0130167 0.013259 -0.00864449
-0.032791 0.0105737 -0.00689374
-0.0399142 0.00380893 -0.00248331
-0.031638 -0.00442514 0.00288508
-0.0110945 -0.0108881 0.0071012
0.0199053 0.000184052 0.0138788
0.0523242 0.000149357 0.0112634
0.0644463 5.60371e-05 0.00422593
0.0517044 -5.89048e-05 -0.00444217
0.0190143 -0.000151121 -0.0113965
-0.0210116 -0.000185033 -0.0139539
-0.0529309 -0.000147558 -0.0111278
-0.0644292 -5.31547e-05 -0.00400854
-0.05107 6.17543e-05 0.00465706
-0.0179087 0.000152011 0.0114627
0.0197995 0.0134802 0.0138051
0.0520462 0.0109399 0.0112036
0.064104 0.00410453 0.00420348
0.0514297 -0.00431457 -0.00441858
0.0189133 -0.0110691 -0.0113359
-0.0208999 -0.0135531 -0.0138798
-0.0526497 -0.0108082 -0.0110687
-0.0640869 -0.00389341 -0.00398724
-0.0507987 0.00452329 0.00463232
-0.0178135 0.0111334 0.0114018
0.012055 0.0215755 0.00840526
0.0316884 0.0175097 0.00682131
0.03903 0.00656946 0.00255929
0.0313131 -0.00690566 -0.00269026
0.0115154 -0.0177165 -0.0069019
-0.012725 -0.0216922 -0.00845074
-0.0320559 -0.0172989 -0.00673919
-0.0390196 -0.00623155 -0.00242765
-0.0309289 0.0072397 0.0028204
-0.0108458 0.0178195 0.00694202
-0.000340465 0.0213469 -0.000237387
-0.000894967 0.0173241 -0.000192652
-0.00110231 0.00649983 -7.2281e-05
-0.000884365 -0.00683247 7.59803e-05
-0.000325225 -0.0175288 0.000194928
0.000359388 -0.0214623 0.000238671
0.000905344 -0.0171156 0.000190333
0.00110202 -0.00616551 6.85632e-05
0.000873515 0.00716298 -7.96557e-05
0.000306314 0.0176307 -0.000196061
-0.0126046 0.0128825 -0.00878845
-0.0331332 0.0104548 -0.0071323
-0.0408092 0.00392254 -0.00267596
-0.0327406 -0.00412328 0.00281291
-0.0120403 -0.0105783 0.00721652
0.0133051 -0.0129521 0.00883598
0.0335174 -0.0103289 0.00704644
0.0407984 -0.00372077 0.00253832
0.0323388 0.00432273 -0.00294898
0.0113403 0.0106398 -0.0072585
-0.0200057 -0.000552113 -0.0139489
-0.0525882 -0.000448067 -0.0113202
-0.0647715 -0.000168111 -0.00424726
-0.051965 0.000176714 0.00446459
-0.0191102 0.00045336 0.011454
0.0211176 0.000555098 0.0140243
0.0531981 0.000442675 0.011184
0.0647543 0.000159464 0.00402877
0.0513277 -0.000185262 -0.00468056
0.017999 -0.000455998 -0.0115206
-0.0196885 -0.0137737 -0.0137277
-0.0517539 -0.0111778 -0.0111407
-0.0637439 -0.00419379 -0.00417987
-0.0511408 0.00440841 0.00439376
-0.018807 0.0113098 0.0112723
0.0207826 0.0138478 0.0138018
0.052354 0.0110432 0.0110066
0.063727 0.00397807 0.00396485
0.0505134 -0.00462166 -0.00460631
0.0177137 -0.0113759 -0.0113379
-0.0117753 -0.0216812 -0.00821029
-0.030783 -0.0174989 -0.00662649
-0.0379144 -0.00656527 -0.00248615
-0.0304181 0.00690124 0.00261337
-0.0111863 0.0177052 0.00670463
0.0123613 0.0216784 0.00820919
0.0311398 0.0172879 0.00654659
0.0379043 0.00622756 0.00235826
0.0300451 -0.00723537 -0.0027399
0.0105942 -0.0179068 -0.00678099
0 -0.0550663 0
0 -0.0467557 0
0 -0.017542 0
0 0.0184396 0
0 0.0473071 0
0 0.0579231 0
0 0.046192 0
0 0.0166396 0
0 -0.0193324 0
0 -0.04548 0
0.007508 -0.0338213 -0.027663
0.0197361 -0.0274574 -0.02245
0.0243083 -0.0103017 -0.00842303
0.0195022 0.0108289 0.00885406
0.00717192 0.0277818 0.0227152
-0.00792527 0.0340162 0.0278126
-0.0199649 0.0271268 0.0221798
-0.0243018 0.00977184 0.00798974
-0.0192629 -0.0113527 -0.00928235
-0.00675491 -0.0279334 -0.0228472
0.0121194 0.000472188 -0.0446534
0.0318577 0.000383176 -0.0362386
0.0392384 0.000143764 -0.0135964
0.0314802 -0.000151121 0.0142922
0.0115769 -0.000387702 0.0366667
-0.012793 -0.000474705 0.044895
-0.0322271 -0.000378563 0.0358023
-0.039228 -0.000136369 0.012897
-0.0310941 0.000158431 -0.0149835
-0.0109037 0.000389986 -0.0368798
0.012055 0.0345835 -0.0444162
0.0316884 0.0280663 -0.0360461
0.03903 0.0105302 -0.0135241
0.0313131 -0.0110691 0.0142163
0.0115154 -0.0283979 0.0364719
-0.012725 -0.0347705 0.0446565
-0.0320559 -0.0277285 0.0356121
-0.0390196 -0.00998857 0.0128285
-0.0309289 0.0116045 -0.0149039
-0.0108458 0.028563 -0.0366839
0.0073397 0.0553522 -0.0270429
0.0192936 0.0449213 -0.0219467
0.0237634 0.0168541 -0.00823421
0.019065 -0.0177165 0.00865557
0.00701118 -0.0454519 0.022206
-0.00774764 -0.0556517 0.0271891
-0.0195174 -0.0443806 0.0216825
-0.0237571 -0.0159871 0.00781067
-0.0188311 0.0185735 -0.00907428
-0.00660349 0.0457161 -0.0223351
-0.000207293 0.0547656 0.000763763
-0.000544903 0.0444453 0.000619834
-0.000671141 0.0166755 0.000232556
-0.000538446 -0.0175288 -0.000244457
-0.000198014 -0.0449704 -0.000627156
0.000218814 -0.0550619 -0.000767894
0.000551222 -0.0439102 -0.000612374
0.000670963 -0.0158176 -0.000220594
0.000531841 0.0183767 0.000256282
0.0001865 0.0452317 0.000630802
-0.00767431 0.0330501 0.0282757
-0.0201732 0.0268219 0.0229473
-0.0248468 0.0100633 0.00860959
-0.0199342 -0.0105783 -0.00905018
-0.00733079 -0.0271387 -0.0232183
0.00810083 -0.0332289 -0.0284287
0.0204071 -0.026499 -0.022671
0.0248402 -0.00954568 -0.00816672
0.0196896 0.01109 0.00948797
0.00690453 0.0272965 0.0233533
-0.0121805 -0.00141645 0.0448787
-0.0320185 -0.00114952 0.0364214
-0.0394364 -0.000431291 0.013665
-0.031639 0.00045336 -0.0143642
-0.0116353 0.0011631 -0.0368516
0.0128575 0.00142411 -0.0451215
0.0323897 0.00113569 -0.035983
0.0394259 0.000409105 -0.0129621
0.031251 -0.000475292 0.0150591
0.0109587 -0.00116987 0.0370659
-0.0119874 -0.0353365 0.0441671
-0.0315105 -0.0286766 0.0358436
-0.0388107 -0.0107592 0.0134482
-0.0311372 0.0113098 -0.0141364
-0.0114507 0.0290154 -0.0362671
0.0126535 0.0355267 -0.0444057
0.0318759 0.0283315 -0.0354121
0.0388004 0.0102058 -0.0127565
0.0307552 -0.0118569 0.0148202
0.010785 -0.0291849 0.0364783
-0.00716944 -0.0556235 0.0264156
-0.0187423 -0.0448935 0.0213199
-0.0230842 -0.0168433 0.00799887
-0.0185201 0.0177052 -0.0084082
-0.00681079 0.0454229 -0.0215713
0.0075262 0.0556161 -0.0264121
0.0189595 0.0443522 -0.0210628
0.0230781 0.0159769 -0.00758742
0.018293 -0.0185624 0.00881529
0.00645031 -0.0459402 0.021817
0 -0.0674235 0
0 -0.057248 0
0 -0.0214785 0
0 0.0225776 0
0 0.0579231 0
0 0.0709214 0
0 0.0565577 0
0 0.0203737 0
0 -0.0236707 0
0 -0.055686 0
-0.000212046 -0.041411 -0.0532514
-0.000557397 -0.0336189 -0.0432163
-0.000686532 -0.0126135 -0.0162143
-0.000550794 0.013259 0.0170441
-0.000202554 0.0340162 0.0437268
0.000223831 0.0416496 0.0535393
0.000563861 0.0332143 0.042696
0.00068635 0.0119647 0.0153803
0.000544036 -0.0139004 -0.0178686
0.000190777 -0.0342019 -0.043981
-0.000342283 0.00057815 -0.0859579
-0.000899745 0.000469163 -0.0697594
-0.00110819 0.000176026 -0.026173
-0.000889089 -0.000185033 0.0275125
-0.000326962 -0.000474705 0.0705835
0.000361307 -0.00058123 0.0864228
0.000910179 -0.000463515 0.0689196
0.0011079 -0.000166971 0.0248268
0.000878179 0.000193984 -0.0288433
0.00030795 0.000477502 -0.0709939
-0.000340465 0.0423442 -0.0855013
-0.000894967 0.0343646 -0.0693888
-0.00110231 0.0128933 -0.026034
-0.000884365 -0.0135531 0.0273663
-0.000325225 -0.0347705 0.0702085
0.000359388 -0.0425732 0.0859637
0.000905344 -0.033951 0.0685535
0.00110202 -0.0122301 0.0246949
0.000873515 0.0142087 -0.0286901
0.000306314 0.0349727 -0.0706167
-0.000207293 0.0677736 -0.0520577
-0.000544903 0.055002 -0.0422475
-0.000671141 0.0206362 -0.0158509
-0.000538446 -0.0216922 0.0166621
-0.000198014 -0.0556517 0.0427465
0.000218814 -0.0681404 0.0523391
0.000551222 -0.0543398 0.041739
0.000670963 -0.0195747 0.0150355
0.000531841 0.0227416 -0.017468
0.0001865 0.0559751 -0.0429951
5.8545e-06 0.0670554 0.00147025
1.53895e-05 0.054419 0.00119318
1.89549e-05 0.0204175 0.000447671
1.52072e-05 -0.0214623 -0.00047058
5.59245e-06 -0.0550619 -0.00120728
-6.17989e-06 -0.0674182 -0.0014782
-1.55679e-05 -0.0537639 -0.00117882
-1.89498e-05 -0.0193673 -0.000424643
-1.50206e-05 0.0225006 0.000493343
-5.26726e-06 0.055382 0.0012143
0.000216743 0.0404668 0.0544309
0.000569745 0.0328409 0.0441736
0.00070174 0.0123216 0.0165735
0.000562994 -0.0129521 -0.0174216
0.000207041 -0.0332289 -0.0446955
-0.000228789 -0.0406857 -0.0547253
-0.00057635 -0.0324456 -0.0436418
-0.000701554 -0.0116878 -0.0157209
-0.000556086 0.0135787 0.0182644
-0.000195002 0.033422 0.0449552
0.00034401 -0.00173431 0.0863917
0.000904286 -0.00140749 0.0701114
0.00111379 -0.000528076 0.0263051
0.000893575 0.000555098 -0.0276513
0.000328612 0.00142411 -0.0709396
-0.000363129 0.00174369 -0.086859
-0.000914773 0.00139054 -0.0692675
-0.00111349 0.000500911 -0.0249521
-0.000882612 -0.00058195 0.0289889
-0.000309504 -0.00143239 0.0713521
0.000338556 -0.0432662 0.085022
0.000889941 -0.0351119 0.0689991
0.00109612 -0.0131736 0.0258878
0.000879398 0.0138478 -0.0272126
0.000323398 0.0355267 -0.0698142
-0.000357369 0.0434991 -0.0854809
-0.000900259 0.0346892 -0.0681686
-0.00109582 0.012496 -0.0245562
-0.000868609 -0.0145177 0.028529
-0.000304597 -0.0357342 0.0702208
0.000202484 -0.0681057 0.0508501
0.000529333 -0.0549679 0.0410409
0.000651961 -0.020623 0.0153979
0.000523058 0.0216784 -0.0161858
0.000192355 0.0556161 -0.0415249
-0.00021256 0.0680967 -0.0508434
-0.000535467 0.0543051 -0.0405461
-0.000651788 0.0195622 -0.0146058
-0.000516643 -0.022728 0.0169695
-0.000182174 -0.0562495 0.0419978
0 -0.0537682 0
0 -0.0456536 0
0 -0.0171285 0
0 0.018005 0
0 0.046192 0
0 0.0565577 0
0 0.0451031 0
0 0.0162474 0
0 -0.0188767 0
0 -0.0444079 0
-0.00785028 -0.033024 -0.058295
-0.0206357 -0.0268101 -0.0473094
-0.0254165 -0.0100589 -0.01775
-0.0203913 0.0105737 0.0186584
-0.0074989 0.0271268 0.0478682
0.0082866 0.0332143 0.0586102
0.020875 0.0264874 0.0467399
0.0254098 0.0095415 0.0168371
0.0201411 -0.0110851 -0.019561
0.00706286 -0.027275 -0.0481466
-0.0126719 0.000461057 -0.0940993
-0.0333102 0.000374143 -0.0763666
-0.0410271 0.000140375 -0.028652
-0.0329154 -0.000147558 0.0301183
-0.0121046 -0.000378563 0.0772688
0.0133761 -0.000463515 0.0946082
0.0336964 -0.000369639 0.0754472
0.0410162 -0.000133155 0.0271782
0.0325116 0.000154697 -0.0315752
0.0114008 0.000380793 -0.0777179
-0.0126046 0.0337683 -0.0935995
-0.0331332 0.0274048 -0.0759609
-0.0408092 0.010282 -0.0284999
-0.0327406 -0.0108082 0.0299582
-0.0120403 -0.0277285 0.0768583
0.0133051 -0.033951 0.0941056
0.0335174 -0.0270748 0.0750464
0.0407984 -0.00975313 0.0270338
0.0323388 0.011331 -0.0314074
0.0113403 0.0278897 -0.0773051
-0.00767431 0.0540475 -0.0569882
-0.0201732 0.0438624 -0.046249
-0.0248468 0.0164568 -0.0173522
-0.0199342 -0.0172989 0.0182402
-0.00733079 -0.0443806 0.0467952
0.00810083 -0.0543398 0.0572964
0.0204071 -0.0433343 0.0456923
0.0248402 -0.0156103 0.0164596
0.0196896 0.0181357 -0.0191225
0.00690453 0.0446385 -0.0470674
0.000216743 0.0534747 0.0016095
0.000569745 0.0433975 0.00130619
0.00070174 0.0162823 0.000490072
0.000562994 -0.0171156 -0.000515151
0.000207041 -0.0439102 -0.00132162
-0.000228789 -0.0537639 -0.0016182
-0.00057635 -0.0428751 -0.00129047
-0.000701554 -0.0154448 -0.000464863
-0.000556086 0.0179435 0.00054007
-0.000195002 0.0441655 0.00132931
0.00802417 0.032271 0.0595863
0.0210928 0.0261896 0.0483573
0.0259794 0.00982614 0.0181433
0.0208429 -0.0103289 -0.0190717
0.00766502 -0.026499 -0.0489286
-0.00847016 -0.0324456 -0.0599085
-0.0213374 -0.0258744 -0.0477752
-0.0259725 -0.00932066 -0.01721
-0.0205872 0.0108286 0.0199943
-0.00721931 0.0266531 0.0492131
0.0127358 -0.00138306 0.0945742
0.0334783 -0.00112243 0.076752
0.0412341 -0.000421124 0.0287965
0.0330816 0.000442675 -0.0302703
0.0121657 0.00113569 -0.0776588
-0.0134436 0.00139054 -0.0950857
-0.0338665 0.00110891 -0.075828
-0.0412232 0.000399463 -0.0273154
-0.0326756 -0.000464089 0.0317345
-0.0114583 -0.00114229 0.0781101
0.0125339 -0.0345035 0.0930747
0.0329471 -0.0280007 0.0755343
0.04058 -0.0105056 0.0283398
0.0325567 0.0110432 -0.02979
0.0119727 0.0283315 -0.0764266
-0.0132304 0.0346892 -0.0935771
-0.0333292 0.0276637 -0.074625
-0.0405692 0.0099652 -0.026882
-0.0321572 -0.0115774 0.0312311
-0.0112767 -0.0284969 0.0768717
0.00749629 -0.0543123 0.0556663
0.0195968 -0.0438353 0.0449281
0.0241366 -0.0164462 0.0168562
0.0193644 0.0172879 -0.0177188
0.00712128 0.0443522 -0.0454579
-0.00786931 0.0543051 -0.0556589
-0.0198239 0.0433067 -0.0443863
-0.0241302 0.0156003 -0.0159892
-0.019127 -0.0181249 0.0185767
-0.00674438 -0.0448573 0.0459756
0 -0.0193688 0
0 -0.0164457 0
0 -0.00617014 0
0 0.00648589 0
0 0.0166396 0
0 0.0203737 0
0 0.0162474 0
0 0.00585276 0
0 -0.00679991 0
0 -0.0159969 0
-0.0124598 -0.0118962 -0.0408479
-0.0327527 -0.00965775 -0.0331503
-0.0403407 -0.00362349 -0.0124377
-0.0323646 0.00380893 0.0130741
-0.0119021 0.00977184 0.0335419
0.0131523 0.0119647 0.0410688
0.0331325 0.0095415 0.0327512
0.0403299 0.00343711 0.0117979
0.0319675 -0.00399317 -0.0137066
0.01121 -0.00982521 -0.0337369
-0.0201126 0.000166086 -0.0659365
-0.0528691 0.000134777 -0.0535109
-0.0651175 5.0567e-05 -0.0200768
-0.0522426 -5.31547e-05 0.0211042
-0.0192123 -0.000136369 0.054143
0.0212303 -0.000166971 0.0662932
0.0534821 -0.000133155 0.0528667
0.0651002 -4.79659e-05 0.0190441
0.0516018 5.57261e-05 -0.0221251
0.0180952 0.000137172 -0.0544578
-0.0200057 0.0121643 -0.0655862
-0.0525882 0.00987197 -0.0532266
-0.0647715 0.00370386 -0.0199701
-0.051965 -0.00389341 0.0209921
-0.0191102 -0.00998857 0.0538554
0.0211176 -0.0122301 0.065941
0.0531981 -0.00975313 0.0525859
0.0647543 -0.00351335 0.0189429
0.0513277 0.00408174 -0.0220076
0.017999 0.0100466 -0.0541685
-0.0121805 0.0194694 -0.0399323
-0.0320185 0.0158004 -0.0324071
-0.0394364 0.00592817 -0.0121588
-0.031639 -0.00623155 0.0127811
-0.0116353 -0.0159871 0.03279
0.0128575 -0.0195747 0.0401483
0.0323897 -0.0156103 0.032017
0.0394259 -0.00562325 0.0115335
0.031251 0.00653298 -0.0133993
0.0109587 0.01608 -0.0329806
0.00034401 0.0192631 0.00112779
0.000904286 0.015633 0.000915264
0.00111379 0.00586535 0.000343399
0.000893575 -0.00616551 -0.000360972
0.000328612 -0.0158176 -0.000926075
-0.000363129 -0.0193673 -0.0011339
-0.000914773 -0.0154448 -0.000904246
-0.00111349 -0.00556366 -0.000325735
-0.000882612 0.00646377 0.000378434
-0.000309504 0.0159096 0.000931461
0.0127358 0.0116249 0.0417528
0.0334783 0.00943423 0.0338846
0.0412341 0.00353965 0.0127132
0.0330816 -0.00372077 -0.0133637
0.0121657 -0.00954568 -0.0342848
-0.0134436 -0.0116878 -0.0419786
-0.0338665 -0.00932066 -0.0334768
-0.0412232 -0.00335756 -0.0120592
-0.0326756 0.00390077 0.0140102
-0.0114583 0.00960118 0.0344842
0.020214 -0.000498218 0.0662692
0.0531359 -0.000404329 0.0537809
0.0654461 -0.000151701 0.0201781
0.0525063 0.000159464 -0.0212106
0.0193093 0.000409105 -0.0544162
-0.0213375 0.000500911 -0.0666277
-0.053752 0.000399463 -0.0531335
-0.0654287 0.000143897 -0.0191402
-0.051862 -0.000167178 0.0222368
-0.0181865 -0.000411485 0.0547327
0.0198936 -0.0124291 0.0652185
0.0522929 -0.0100866 0.0529277
0.0644077 -0.00378441 0.019858
0.0516734 0.00397807 -0.0208742
0.0190029 0.0102058 -0.0535529
-0.020999 0.012496 -0.0655706
-0.0528992 0.0099652 -0.0522905
-0.0643906 0.00358974 -0.0188365
-0.0510395 -0.00417051 0.021884
-0.0178981 -0.0102654 0.0538649
0.011898 -0.0195648 0.039006
0.0311036 -0.0157907 0.0314816
0.0383092 -0.00592439 0.0118114
0.0307349 0.00622756 -0.0124158
0.0113028 0.0159769 -0.0318528
-0.01249 0.0195622 -0.0390008
-0.0314641 0.0156003 -0.031102
-0.038299 0.00561965 -0.0112038
-0.030358 -0.00652908 0.0130169
-0.0107045 -0.0161588 0.0322156
0 0.0225033 0
0 0.0191071 0
0 0.00716866 0
0 -0.0075355 0
0 -0.0193324 0
0 -0.0236707 0
0 -0.0188767 0
0 -0.00679991 0
0 0.00790034 0
0 0.0185857 0
-0.0122623 0.0138213 -0.00764151
-0.032233 0.0112202 -0.00620188
-0.0397006 0.00420971 -0.00232688
-0.0318511 -0.00442513 0.00244596
-0.0117133 -0.0113527 0.00627515
0.0129437 -0.0139004 0.00768333
0.0326068 -0.0110851 0.00612722
0.0396901 -0.00399316 0.0022072
0.0314603 0.00463919 -0.00256428
0.0110323 0.0114152 -0.00631123
-0.0197937 -0.000192963 -0.0123349
-0.0520303 -0.000156581 -0.010011
-0.0640844 -5.87479e-05 -0.00375604
-0.0514139 6.17542e-05 0.00394824
-0.0189075 0.000158431 0.0101293
0.0208935 0.000193984 0.0124024
0.0526337 0.000154697 0.00989052
0.0640673 5.5726e-05 0.00356284
0.0507832 -6.47416e-05 -0.00413925
0.0178083 -0.000159371 -0.0101875
-0.0196885 -0.0141328 -0.0122693
-0.0517539 -0.011469 -0.00995782
-0.0637439 -0.00430308 -0.00373609
-0.0511408 0.00452328 0.00392727
-0.018807 0.0116045 0.0100755
0.0207826 0.0142087 0.0123365
0.052354 0.011331 0.00983798
0.063727 0.00408174 0.00354391
0.0505134 -0.0047421 -0.00411726
0.0177137 -0.0116725 -0.0101334
-0.0119874 -0.0226201 -0.00747021
-0.0315105 -0.0183567 -0.00606285
-0.0388107 -0.00688725 -0.00227473
-0.0311372 0.00723968 0.00239113
-0.0114507 0.0185735 0.00613447
0.0126535 0.0227415 0.00751109
0.0318759 0.0181357 0.00598986
0.0388004 0.00653297 0.00215771
0.0307552 -0.00758991 -0.0025068
0.010785 -0.0186823 -0.00616975
0.000338556 -0.0223804 0.000210979
0.000889941 -0.0181621 0.000171231
0.00109612 -0.00681426 6.42443e-05
0.000879398 0.00716297 -6.75318e-05
0.000323398 0.0183767 -0.000173254
-0.000357369 0.0225006 -0.000212133
-0.000900259 0.0179435 -0.00016917
-0.00109582 0.00646376 -6.09398e-05
-0.000868609 -0.00750948 7.07987e-05
-0.000304597 -0.0184843 0.00017425
0.0125339 -0.0135062 0.00781077
0.0329471 -0.0109605 0.00633924
0.04058 -0.00411229 0.00237843
0.0325567 0.00432273 -0.00250014
0.0119727 0.01109 -0.00641414
-0.0132304 0.0135787 -0.00785349
-0.0333292 0.0108286 -0.00626295
-0.0405692 0.00390076 -0.00225609
-0.0321572 -0.00453184 0.00262108
-0.0112767 -0.0111549 0.00645103
0.0198936 0.000578844 0.0123971
0.0522929 0.000469743 0.0100615
0.0644077 0.000176243 0.003775
0.0516734 -0.000185262 -0.00396817
0.0190029 -0.000475292 -0.0101804
-0.020999 -0.00058195 -0.012465
-0.0528993 -0.000464088 -0.00994041
-0.0643906 -0.000167177 -0.00358081
-0.0510395 0.000194224 0.00416013
-0.0178981 0.000478075 0.0102389
0.0195781 0.0144405 0.0122006
0.0514632 0.0117185 0.0099019
0.0633859 0.00439666 0.0037151
0.0508537 -0.00462165 -0.00390522
0.0187014 -0.0118569 -0.0100189
-0.0206658 -0.0145177 -0.0122672
-0.05206 -0.0115774 -0.00978273
-0.0633691 -0.0041705 -0.00352401
-0.0502297 0.00484522 0.00409413
-0.0176143 0.0119266 0.0100766
0.0117093 0.022731 0.00729693
0.0306104 0.0183461 0.00588933
0.0377018 0.00688314 0.00220958
0.0302476 -0.00723537 -0.00232265
0.0111236 -0.0185624 -0.00595877
-0.012292 -0.022728 -0.00729596
-0.0309652 -0.0181249 -0.00581831
-0.0376918 -0.00652908 -0.00209592
-0.0298766 0.00758568 0.0024351
-0.0105348 0.0187738 0.00602664
0 0.0556934 0
0 0.0449499 0
0 0.0168644 0
0 -0.0177274 0
0 -0.04548 0
0 -0.055686 0
0 -0.0444079 0
0 -0.015997 0
0 0.0185857 0
0 0.0459979 0
-0.00733384 0.0342065 0.0285131
-0.0191721 0.0276079 0.0230128
-0.0236136 0.010358 0.00863403
-0.0189448 -0.0108881 -0.00907586
-0.00696696 -0.0279335 -0.0232842
0.00769877 -0.0342019 -0.0285093
0.0193943 -0.027275 -0.0227354
0.0236073 -0.00982521 -0.0081899
0.0187125 0.0114152 0.00951528
0.00659822 0.0282516 0.0235494
-0.0118382 -0.000477566 0.0460257
-0.0309474 -0.000385441 0.0371472
-0.0381168 -0.000144611 0.013937
-0.0305805 0.000152011 -0.0146502
-0.011246 0.000389986 -0.0375852
0.0124273 0.000477502 -0.0460196
0.0313061 0.000380794 -0.0366992
0.0381067 0.000137172 -0.0132201
0.0302055 -0.000159371 0.0153595
0.0106508 -0.000394428 0.0380132
-0.0117753 -0.0349773 0.0457812
-0.030783 -0.0282301 0.0369498
-0.0379144 -0.0105914 0.0138629
-0.0304181 0.0111334 -0.0145724
-0.0111863 0.028563 -0.0373855
0.0123613 0.0349727 -0.0457751
0.0311398 0.0278897 -0.0365043
0.0379043 0.0100466 -0.0131499
0.0300451 -0.0116725 0.0152779
0.0105942 -0.0288883 0.0378113
-0.00716944 -0.0559826 0.027874
-0.0187423 -0.0451833 0.022497
-0.0230842 -0.016952 0.00844048
-0.0185201 0.0178195 -0.00887241
-0.00681078 0.0457161 -0.0227623
0.00752619 0.0559752 -0.0278703
0.0189595 0.0446385 -0.0222257
0.0230781 0.01608 -0.00800631
0.018293 -0.0186823 0.00930198
0.00645031 -0.0462368 0.0230215
0.000202484 -0.0553894 -0.000787235
0.000529332 -0.0447045 -0.000635375
0.00065196 -0.0167724 -0.000238382
0.000523057 0.0176307 0.00025058
0.000192355 0.0452317 0.000642867
-0.00021256 0.055382 0.00078713
-0.000535467 0.0441655 0.000627713
-0.000651787 0.0159096 0.00022612
-0.000516643 -0.0184843 -0.000262713
-0.000182174 -0.0457468 -0.000650188
0.00749629 -0.0334265 -0.0291447
0.0195967 -0.0269784 -0.0235226
0.0241366 -0.0101218 -0.00882528
0.0193644 0.0106398 0.00927689
0.00712128 0.0272965 0.0238
-0.00786931 0.033422 0.0291408
-0.0198239 0.0266531 0.023239
-0.0241302 0.00960118 0.00837131
-0.019127 -0.0111549 -0.00972605
-0.00674438 -0.0276074 -0.024071
0.011898 0.00143258 -0.0462579
0.0311036 0.00115623 -0.0373346
0.0383092 0.000433799 -0.0140073
0.0307349 -0.000455998 0.0147241
0.0113028 -0.00116987 0.0377749
-0.01249 -0.00143239 0.0462518
-0.031464 -0.00114229 0.0368844
-0.038299 -0.000411485 0.0132868
-0.030358 0.000478075 -0.015437
-0.0107045 0.00118319 -0.0382051
0.0117093 0.0357389 -0.0455245
0.0306104 0.0288447 -0.0367427
0.0377018 0.0108221 -0.0137852
0.0302475 -0.0113759 0.0144907
0.0111236 -0.0291849 0.0371759
-0.012292 -0.0357342 0.0455185
-0.0309652 -0.0284969 0.0362996
-0.0376918 -0.0102654 0.0130761
-0.0298766 0.0119266 -0.0151922
-0.0105348 0.0295173 -0.0375993
0.00700314 0.056257 -0.0272274
0.0183076 0.0454048 -0.0219751
0.0225488 0.0170351 -0.0082447
0.0180905 -0.0179068 0.0086666
0.0066528 -0.0459402 0.0222343
-0.00735162 -0.0562495 0.0272238
-0.0185197 -0.0448573 0.0217102
-0.0225428 -0.0161588 0.0078206
-0.0178687 0.0187738 -0.00908621
-0.00630069 0.0464634 -0.0224875
