# vtk DataFile Version 3.0
Velocity field
ASCII
DATASET STRUCTURED_POINTS
DIMENSIONS 8 8 8
SPACING 0.8 0.8 0.8
ORIGIN 0 0 0
POINT_DATA 512
VECTORS velocity float
0 0.156962 0
0 0.109356 0
0 -0.00458321 0
0 -0.115743 0
0 -0.156694 0
0 -0.102597 0
0 0.013734 0
0 0.121734 0
0 0.0617509 0.160203
0 0.0430222 0.118338
0 -0.0018031 -0.00495963
0 -0.0455347 -0.125249
0 -0.0616455 -0.169563
0 -0.0403631 -0.111023
0 0.00540315 0.014862
0 0.0478919 0.124248
0 -0.0709173 0.223229
0 -0.0494085 0.164893
0 0.00207075 -0.00691082
0 0.052294 -0.174523
0 0.0707963 -0.236272
0 0.0463546 -0.154701
0 -0.0062052 0.0207089
0 -0.055001 0.173129
0 -0.160568 0.150847
0 -0.111869 0.111427
0 0.00468851 -0.00466999
0 0.118402 -0.117934
0 0.160294 -0.159661
0 0.104954 -0.10454
0 -0.0140496 0.0139941
0 -0.124531 0.116992
0 -0.15282 -0.0130364
0 -0.106471 -0.00962963
0 0.00446228 0.000403585
0 0.112689 0.010192
0 0.15256 0.0137981
0 0.09989 0.00903443
0 -0.0133716 -0.00120938
0 -0.118522 -0.0101106
0 -0.0523738 -0.169012
0 -0.0364892 -0.124845
0 0.00152929 0.00523236
0 0.0386201 0.132136
0 0.0522845 0.178887
0 0.0342338 0.117128
0 -0.00458267 -0.0156792
0 -0.0406194 -0.13108
0 0.0798419 -0.222468
0 0.0556264 -0.164331
0 -0.00233135 0.00688725
0 -0.0588749 0.173928
0 -0.0797057 0.235466
0 -0.0521881 0.154174
0 0.0069861 -0.0206383
0 0.0619226 -0.172538
0 0.163627 -0.140977
0 0.114 -0.0982197
0 -0.00477782 0.00411647
0 -0.120657 0.103956
0 -0.163347 0.140737
0 -0.106953 0.0921488
0 0.0143172 -0.0123354
0 0.126903 -0.109337
0 0.109356 0
0 0.082719 0
0 -0.00346682 0
0 -0.0875497 0
0 -0.118526 0
0 -0.0776062 0
0 0.0103887 0
0 0.084813 0
0.0341501 0.0430222 0.158237
0.0828348 0.0304113 0.111759
0.0808159 -0.00127468 -0.00468437
0.0297728 -0.0321902 -0.118296
-0.03933 -0.0435796 -0.160151
-0.0845756 -0.0285341 -0.104861
-0.0785175 0.00381755 0.0140296
-0.0245034 0.0333666 0.122723
0.0475852 -0.0494085 0.220489
0.115423 -0.0348813 0.155727
0.112609 0.00146204 -0.00652725
0.0414857 0.0369213 -0.164835
-0.0548032 0.0499846 -0.223158
-0.117849 0.0327279 -0.146115
-0.109408 -0.00437885 0.019549
-0.0341433 -0.0383196 0.171004
0.0321557 -0.111869 0.148996
0.0779974 -0.0789769 0.105233
0.0760964 0.0033103 -0.0044108
0.028034 0.0835962 -0.111388
-0.0370332 0.113174 -0.150799
-0.0796366 0.0741017 -0.0987369
-0.0739322 -0.00991444 0.0132103
-0.0230724 -0.0867616 0.115556
-0.00277893 -0.106471 -0.0128764
-0.00674065 -0.0751661 -0.00909432
-0.00657634 0.00315056 0.000381186
-0.00242273 0.0795625 0.00962628
0.00320044 0.107713 0.0130321
0.00688231 0.0705264 0.00853294
0.00638929 -0.00943605 -0.00114165
0.00199394 -0.0825751 -0.00998648
-0.0360279 -0.0364892 -0.166938
-0.0873903 -0.0257607 -0.117905
-0.0852597 0.00107975 0.00494195
-0.0314101 0.0272674 0.124801
0.0414926 0.0369149 0.168957
0.0892269 0.0241704 0.110627
0.0828349 -0.00323389 -0.0148011
0.0258508 -0.0282998 -0.129471
-0.0474229 0.0556264 -0.219737
-0.115025 0.0392663 -0.15519
-0.112221 -0.00164583 0.00650474
-0.0413427 -0.0415629 0.164267
0.0546142 -0.0562684 0.222387
0.117442 -0.0368423 0.14561
0.109031 0.00492936 -0.0194817
0.0340269 0.0431419 -0.170421
-0.0300517 0.114 -0.139247
-0.0719262 0.0794244 -0.0970143
-0.0701712 -0.00332874 0.00406595
-0.0258513 -0.0840627 0.10268
0.0341497 -0.113805 0.13901
0.0734359 -0.0745152 0.0910179
0.0681769 0.00997488 -0.012184
0.0215627 0.0884143 -0.107995
0 -0.00458321 0
0 -0.00346682 0
0 0.000145297 0
0 0.00366928 0
0 0.00496753 0
0 0.00325254 0
0 -0.000435397 0
0 -0.00355458 0
0.0475852 -0.0018031 0.0602865
0.115423 -0.00127468 0.0425648
0.112609 5.34285e-05 -0.00178408
0.0414857 0.00134925 -0.0450546
-0.0548032 0.00182663 -0.0609954
-0.117849 0.00119601 -0.0399373
-0.109408 -0.000160011 0.00534338
-0.0341433 -0.00139842 0.0467561
0.0663058 0.00207075 0.084004
0.160833 0.00146204 0.0593103
0.156912 -6.12808e-05 -0.00248597
0.0578069 -0.00154755 -0.0627795
-0.0763634 -0.00209509 -0.0849915
-0.164212 -0.00137179 -0.0556495
-0.15245 0.000183538 0.00744554
-0.0475757 0.001606 0.0651506
0.0448062 0.00468851 0.0567658
0.108683 0.0033103 0.0400789
0.106034 -0.00013875 -0.00167991
0.039063 -0.00350391 -0.0424232
-0.0516026 -0.00474365 -0.057433
-0.110967 -0.00310594 -0.037605
-0.103018 0.00041556 0.00503134
-0.0321494 0.00363625 0.0440256
-0.0038722 0.00446228 -0.00490576
-0.0093925 0.00315056 -0.00346368
-0.00916352 -0.000132055 0.000145178
-0.00337588 -0.00333485 0.00366625
0.00445956 -0.00451478 0.00496343
0.00958989 -0.00295609 0.00324986
0.00890296 0.000395507 -0.000434814
0.00277838 0.00346079 -0.00380474
-0.0502018 0.00152929 -0.0636015
-0.121771 0.00107975 -0.0449055
-0.118802 -4.52575e-05 0.00188219
-0.0437672 -0.00114291 0.0475316
0.0578164 -0.00154728 0.0643496
0.12433 -0.00101309 0.0421333
0.115423 0.000135547 -0.00563722
0.0360208 0.00118607 -0.0493272
-0.0660797 -0.00233135 -0.0837175
-0.160278 -0.00164583 -0.0591059
-0.156371 6.89847e-05 0.0024774
-0.0576075 0.0017421 0.0625632
0.0760999 0.00235848 0.0846985
0.163646 0.00154424 0.0554574
0.151924 -0.000206611 -0.00741989
0.0474135 -0.00180811 -0.0649284
-0.0418745 -0.00477782 -0.0530515
-0.100223 -0.00332874 -0.0369614
-0.0977775 0.00013951 0.00154908
-0.0360215 0.00352313 0.0391199
0.0475846 0.00476967 0.0529611
0.102327 0.00312299 0.0346768
0.0949986 -0.000418055 -0.00464197
0.0300458 -0.00370551 -0.041145
0 -0.115743 0
0 -0.0875497 0
0 0.00366928 0
0 0.0926625 0
0 0.125448 0
0 0.0821383 0
0 -0.0109953 0
0 -0.089766 0
0.0321557 -0.0455347 -0.0742329
0.0779974 -0.0321902 -0.0524115
0.0760964 0.00134925 0.00219681
0.028034 0.0340732 0.0554771
-0.0370332 0.0461289 0.0751055
-0.0796366 0.0302033 0.049176
-0.0739322 -0.00404084 -0.00657949
-0.0230724 -0.0353151 -0.0575725
0.0448062 0.052294 -0.103437
0.108683 0.0369213 -0.0730309
0.106034 -0.00154755 0.00306105
0.039063 -0.0390808 0.0773024
-0.0516026 -0.0529085 0.104653
-0.110967 -0.0346423 0.0685225
-0.103018 0.00463494 -0.00916791
-0.0321494 0.0405574 -0.0802223
0.0302779 0.118402 -0.0698978
0.0734425 0.0835962 -0.0493505
0.0716526 -0.00350391 0.00206851
0.026397 -0.0884862 0.0522372
-0.0348706 -0.119793 0.0707196
-0.074986 -0.0784358 0.0463044
-0.0696148 0.0104943 -0.00619523
-0.021725 0.0918284 -0.0542103
-0.00261664 0.112689 0.00604064
-0.00634697 0.0795625 0.00426493
-0.00619225 -0.00333485 -0.000178763
-0.00228126 -0.084216 -0.0045144
0.00301353 -0.114013 -0.00611162
0.00648036 -0.0746513 -0.00400167
0.00601615 0.00998792 0.000535399
0.00187749 0.0873975 0.00468491
-0.0339239 0.0386201 0.0783149
-0.0822862 0.0272674 0.0552935
-0.0802807 -0.00114291 -0.0023176
-0.0295756 -0.0288621 -0.0585273
0.0390695 -0.039074 -0.0792353
0.0840156 -0.0255841 -0.0518802
0.0779974 0.00342302 0.00694129
0.0243411 0.0299524 0.0607384
-0.0446534 -0.0588749 0.103084
-0.108308 -0.0415629 0.072779
-0.105668 0.0017421 -0.0030505
-0.0389283 0.0439939 -0.0770358
0.0514246 0.0595596 -0.104292
0.110584 0.0389972 -0.0682863
0.102663 -0.00521765 0.00913634
0.0320397 -0.0456613 0.0799487
-0.0282967 -0.120657 0.0653243
-0.0677258 -0.0840627 0.0455119
-0.0660733 0.00352313 -0.00190744
-0.0243416 0.0889718 -0.0481697
0.0321554 0.120451 -0.0652129
0.0691473 0.0788668 -0.0426988
0.0641954 -0.0105574 0.00571582
0.0203035 -0.0935776 0.0506633
0 -0.156694 0
0 -0.118526 0
0 0.00496753 0
0 0.125448 0
0 0.169833 0
0 0.1112 0
0 -0.0148857 0
0 -0.121527 0
-0.00277893 -0.0616455 -0.163724
-0.00674065 -0.0435796 -0.115595
-0.00657634 0.00182663 0.00484514
-0.00242273 0.0461289 0.122357
0.00320044 0.0624501 0.165647
0.00688231 0.0408896 0.10846
0.00638929 -0.00547055 -0.0145113
0.00199394 -0.0478102 -0.126978
-0.0038722 0.0707963 -0.228135
-0.0093925 0.0499846 -0.161072
-0.00916352 -0.00209509 0.00675129
-0.00337588 -0.0529085 0.170493
0.00445956 -0.0716283 0.230815
0.00958989 -0.0468994 0.151129
0.00890296 0.00627484 -0.0202202
0.00277838 0.0549072 -0.176933
-0.00261664 0.160294 -0.154162
-0.00634697 0.113174 -0.108845
-0.00619225 -0.00474365 0.00456221
-0.00228126 -0.119793 0.115211
0.00301353 -0.162178 0.155974
0.00648036 -0.106188 0.102126
0.00601615 0.0142073 -0.0136639
0.00187749 0.124319 -0.119563
0.000226133 0.15256 0.0133229
0.000548514 0.107713 0.00940646
0.000535142 -0.00451478 -0.000394268
0.000197147 -0.114013 -0.00995664
-0.000260433 -0.154353 -0.0134795
-0.000560041 -0.101064 -0.00882584
-0.000519922 0.0135218 0.00118084
-0.000162255 0.11832 0.0103328
0.00293174 0.0522845 0.172727
0.00711127 0.0369149 0.121952
0.00693798 -0.00154728 -0.00511155
0.00255595 -0.039074 -0.129084
-0.00337644 -0.0528993 -0.174757
-0.00726072 -0.0346362 -0.114423
-0.00674065 0.00463413 0.0153093
-0.00210358 0.0405501 0.133961
0.00385899 -0.0797057 0.227357
0.00936011 -0.0562684 0.160516
0.00913195 0.00235848 -0.00672803
0.00336425 0.0595596 -0.169905
-0.00444418 0.0806327 -0.23002
-0.0095568 0.0527951 -0.150608
-0.00887227 -0.00706372 0.0201505
-0.0027689 -0.061817 0.17633
0.00244543 -0.163347 0.144075
0.00585293 -0.113805 0.100378
0.00571012 0.00476967 -0.00420693
0.00210363 0.120451 -0.10624
-0.0027789 0.163069 -0.14383
-0.00597578 0.106771 -0.0941739
-0.00554783 -0.0142928 0.0126065
-0.00175465 -0.126687 0.11174
0 -0.102597 0
0 -0.0776062 0
0 0.00325254 0
0 0.0821383 0
0 0.1112 0
0 0.0728094 0
0 -0.00974654 0
0 -0.0795707 0
-0.0360279 -0.0403631 -0.153902
-0.0873903 -0.0285341 -0.108661
-0.0852597 0.00119601 0.0045545
-0.0314101 0.0302033 0.115016
0.0414926 0.0408896 0.15571
0.0892269 0.026773 0.101953
0.0828349 -0.0035819 -0.0136408
0.0258508 -0.0313042 -0.119361
-0.0502018 0.0463546 -0.214449
-0.121771 0.0327279 -0.151409
-0.118802 -0.00137179 0.00634626
-0.0437672 -0.0346423 0.160265
0.0578164 -0.0468994 0.21697
0.12433 -0.0307078 0.142063
0.115423 0.00410852 -0.0190072
0.0360208 0.035951 -0.166319
-0.0339239 0.104954 -0.144914
-0.0822862 0.0741016 -0.102315
-0.0802807 -0.00310594 0.0042885
-0.0295756 -0.0784358 0.1083
0.0390695 -0.106188 0.146617
0.0840156 -0.0695277 0.0959988
0.0779974 0.00930239 -0.0128441
0.0243411 0.0813989 -0.11239
0.00293174 0.09989 0.0125236
0.00711126 0.0705264 0.00884218
0.00693798 -0.00295609 -0.000370616
0.00255595 -0.0746513 -0.00935934
-0.00337644 -0.101064 -0.0126708
-0.00726072 -0.0661726 -0.00829632
-0.00674065 0.00885355 0.00111001
-0.00210358 0.0774712 0.00971289
0.038009 0.0342338 0.162365
0.0921958 0.0241704 0.114635
0.0899486 -0.00101309 -0.00480493
0.0331371 -0.0255841 -0.121341
-0.0437745 -0.0346362 -0.164272
-0.0941334 -0.0226784 -0.10756
-0.0873903 0.00303424 0.0143908
-0.0272723 0.0265506 0.125924
0.0500306 -0.0521881 0.213717
0.121351 -0.0368423 0.150887
0.118392 0.00154424 -0.00632438
0.0436163 0.0389972 -0.159712
-0.057617 0.0527951 -0.216222
-0.123901 0.0345681 -0.141574
-0.115025 -0.00462504 0.0189417
-0.0358979 -0.0404753 0.165752
0.0317042 -0.106953 0.135432
0.0758813 -0.0745152 0.0943564
0.0740299 0.00312299 -0.00395456
0.0272728 0.0788668 -0.0998668
-0.0360275 0.106771 -0.135201
-0.0774741 0.0699094 -0.0885243
-0.0719259 -0.00935834 0.0118502
-0.0227484 -0.0829494 0.105037
0 0.013734 0
0 0.0103886 0
0 -0.000435397 0
0 -0.0109953 0
0 -0.0148856 0
0 -0.00974653 0
0 0.00130471 0
0 0.0106516 0
-0.0474229 0.00540315 -0.0507251
-0.115025 0.00381751 -0.0358174
-0.112221 -0.00016001 0.00150127
-0.0413427 -0.00404079 0.0379124
0.0546142 -0.00547049 0.0513262
0.117442 -0.00358186 0.0336064
0.109031 0.000479227 -0.00449633
0.0340269 0.0041905 -0.0393407
-0.0660797 -0.0062052 -0.0706811
-0.160278 -0.0043788 -0.0499084
-0.156371 0.000183535 0.0020919
-0.0576075 0.00463489 0.0528277
0.0760999 0.00627477 0.0715189
0.163646 0.00410847 0.0468278
0.151924 -0.000549709 -0.00626523
0.0474135 -0.00481254 -0.0548178
-0.0446534 -0.0140496 -0.0477628
-0.108308 -0.00991433 -0.0337257
-0.105668 0.000415555 0.00141361
-0.0389283 0.0104942 0.0356984
0.0514246 0.0142071 0.0483289
0.110584 0.00930229 0.0316439
0.102663 -0.00124463 -0.00423374
0.0320397 -0.0108964 -0.0370432
0.00385899 -0.0133716 0.00412771
0.00936011 -0.00943595 0.00291461
0.00913196 0.000395502 -0.000122165
0.00336425 0.00998781 -0.00308509
-0.00444418 0.0135217 -0.00417663
-0.0095568 0.00885345 -0.0027347
-0.00887227 -0.00118458 0.000365885
-0.0027689 -0.0103706 0.00320131
0.0500306 -0.00458267 0.0535144
0.121351 -0.00323385 0.037787
0.118392 0.000135545 -0.00158383
0.0436163 0.00342299 -0.0399971
-0.057617 0.00463407 -0.0541488
-0.123901 0.00303421 -0.0354545
-0.115025 -0.000405973 0.00474358
-0.0358979 -0.00355416 0.041504
0.0658543 0.0069861 0.07044
0.159725 0.0049293 0.0497364
0.155832 -0.000206609 -0.00208469
0.0574089 -0.00521759 -0.0526455
-0.0758374 -0.00706364 -0.0712723
-0.163082 -0.00462499 -0.0466662
-0.1514 0.000618822 0.00624365
-0.0472518 0.00541818 0.0546309
0.0417317 0.0143172 0.0446376
0.0998812 0.00997488 0.0310993
0.0974441 -0.000418055 -0.0013034
0.0358987 -0.0105574 -0.0329155
-0.0474223 -0.0142928 -0.0445615
-0.101978 -0.00935834 -0.0291771
-0.0946746 0.00125274 0.00390576
-0.0299433 0.0111039 0.0346194
0 0.121734 0
0 0.084813 0
0 -0.00355458 0
0 -0.089766 0
0 -0.121527 0
0 -0.0795707 0
0 0.0106516 0
0 0.0944128 0
-0.0300517 0.0478919 0.0832206
-0.0719262 0.0333666 0.0579804
-0.0701712 -0.00139842 -0.00243
-0.0258513 -0.0353151 -0.0613664
0.0341497 -0.0478102 -0.0830787
0.0734359 -0.0313042 -0.0543966
0.0681769 0.0041905 0.00728174
0.0215627 0.0371433 0.0645431
-0.0418745 -0.055001 0.115961
-0.100223 -0.0383196 0.0807906
-0.0977775 0.001606 -0.003386
-0.0360215 0.0405574 -0.0855087
0.0475846 0.0549072 -0.115763
0.102327 0.0359511 -0.075797
0.0949986 -0.00481254 0.0101465
0.0300458 -0.0426569 0.0899352
-0.0282967 -0.124531 0.0783606
-0.0677258 -0.0867616 0.0545944
-0.0660733 0.00363625 -0.00228809
-0.0243416 0.0918284 -0.0577826
0.0321553 0.124319 -0.078227
0.0691473 0.0813989 -0.0512199
0.0641954 -0.0108964 0.00685649
0.0203035 -0.096582 0.0607738
0.00244543 -0.118522 -0.006772
0.00585293 -0.0825752 -0.0047181
0.00571012 0.00346079 0.000197739
0.00210362 0.0873975 0.00499363
-0.0027789 0.11832 0.00676045
-0.00597578 0.0774712 0.00442648
-0.00554783 -0.0103706 -0.000592545
-0.00175465 -0.0919217 -0.00525213
0.0317042 -0.0406194 -0.0877968
0.0758813 -0.0282998 -0.0611686
0.0740298 0.00118607 0.00256363
0.0272728 0.0299524 0.0647408
-0.0360275 0.0405501 0.0876471
-0.077474 0.0265506 0.0573878
-0.0719258 -0.00355416 -0.00768215
-0.0227484 -0.031503 -0.0680922
0.0417317 0.0619226 -0.115565
0.0998811 0.0431419 -0.0805151
0.097444 -0.00180811 0.00337445
0.0358987 -0.0456613 0.0852171
-0.0474223 -0.061817 0.115368
-0.101978 -0.0404753 0.0755385
-0.0946746 0.00541818 -0.0101119
-0.0299433 0.0480251 -0.0896285
0.0264452 0.126903 -0.0732334
0.0632944 0.0884143 -0.0510222
0.06175 -0.00370551 0.00213838
0.0227489 -0.0935776 0.0540018
-0.0300514 -0.126687 0.0731085
-0.0646229 -0.0829494 0.0478685
-0.0599951 0.0111039 -0.00640786
-0.018975 0.0984217 -0.0567973
