# vtk DataFile Version 3.0
Velocity field
ASCII
DATASET STRUCTURED_POINTS
DIMENSIONS 5 5 5
SPACING 1.33333 1.33333 1.33333
ORIGIN 0 0 0
POINT_DATA 125
VECTORS velocity float
0 0.42533 0
0 0.100054 0
0 -0.378258 0
0 -0.278015 0
0 0.247459 0
0 -0.225223 0.738672
0 -0.0529809 0.200258
0 0.200297 -0.757084
0 0.147216 -0.556447
0 -0.131036 0.429762
0 -0.531292 0.347527
0 -0.12498 0.0942162
0 0.472492 -0.356189
0 0.347276 -0.261794
0 -0.309108 0.202192
0 -0.0247369 -0.575169
0 -0.00581904 -0.155931
0 0.0219992 0.589505
0 0.0161691 0.433279
0 -0.014392 -0.334635
0 0.519654 -0.618129
0 0.122242 -0.145407
0 -0.462142 0.549719
0 -0.339669 0.404036
0 0.302337 -0.35963
0 0.100054 0
0 0.0299488 0
0 -0.113223 0
0 -0.0832173 0
0 0.0582116 0
0.316149 -0.0529809 0.259409
0.487505 -0.0130004 0.0640987
-0.102187 0.0491963 -0.242601
-0.535628 0.0361657 -0.178348
-0.142854 -0.0308245 0.150925
0.14874 -0.12498 0.122045
0.22936 -0.0307705 0.030157
-0.048077 0.11645 -0.114138
-0.252 0.0856069 -0.0839088
-0.0672095 -0.0727137 0.0710064
-0.24617 -0.00581904 -0.201989
-0.379495 -0.00143975 -0.0498973
0.0795472 0.0054496 0.188848
0.416955 0.00400636 0.138833
0.111234 -0.00338554 -0.117518
-0.264557 0.122242 -0.217076
-0.389025 0.028756 -0.0510645
0.0815307 -0.108713 0.193052
0.427383 -0.0799028 0.14189
0.119542 0.0711209 -0.126296
0 -0.378258 0
0 -0.113223 0
0 0.428044 0
0 0.314607 0
0 -0.220072 0
0.14874 0.200297 -0.616626
0.22936 0.0491963 -0.151973
-0.048077 -0.186175 0.575155
-0.252 -0.136864 0.422825
-0.0672095 0.116533 -0.358755
0.0699785 0.472492 -0.290107
0.107908 0.11645 -0.0714994
-0.022619 -0.440716 0.270598
-0.11856 -0.32399 0.198928
-0.0316204 0.274898 -0.168785
-0.115817 0.0219992 0.480138
-0.178543 0.0054496 0.118303
0.0374251 -0.0206282 -0.447727
0.196167 -0.0151653 -0.329144
0.0523329 0.0127992 0.279346
-0.124468 -0.462142 0.516
-0.183026 -0.108713 0.121383
0.0383582 0.410996 -0.458893
0.201073 0.302076 -0.33728
0.0562417 -0.268876 0.300211
0 -0.278015 0
0 -0.0832173 0
0 0.314607 0
0 0.231232 0
0 -0.16175 0
-0.24617 0.147216 -0.549516
-0.379495 0.0361659 -0.135455
0.0795472 -0.136865 0.512645
0.416955 -0.100614 0.37687
0.111234 0.0856505 -0.31971
-0.115817 0.347276 -0.258534
-0.178543 0.0856073 -0.0637283
0.0374251 -0.323992 0.241187
0.196167 -0.238182 0.177309
0.0523329 0.202046 -0.150416
0.191681 0.0161691 0.427882
0.295418 0.00400638 0.105445
-0.061923 -0.0151653 -0.399066
-0.324576 -0.0111492 -0.293372
-0.0866128 0.00940723 0.248943
0.205998 -0.339669 0.459842
0.302915 -0.0799028 0.108172
-0.0634842 0.302076 -0.408949
-0.332783 0.222022 -0.300573
-0.093082 -0.19762 0.267538
0 0.247459 0
0 0.0582116 0
0 -0.220072 0
0 -0.16175 0
0 0.143972 0
-0.264557 -0.131036 0.358093
-0.389024 -0.0308245 0.0842368
0.0815307 0.116533 -0.318461
0.427383 0.0856505 -0.234065
0.119542 -0.0762369 0.20834
-0.124468 -0.309108 0.168474
-0.183026 -0.0727137 0.0396313
0.0383582 0.274898 -0.149828
0.201073 0.202046 -0.110122
0.0562417 -0.17984 0.0980186
0.205998 -0.014392 -0.27883
0.302915 -0.00338554 -0.0655913
-0.0634841 0.0127992 0.247971
-0.332783 0.00940723 0.182255
-0.093082 -0.00837331 -0.162224
0.221385 0.302337 -0.299656
0.325541 0.0711209 -0.0704904
-0.0682259 -0.268876 0.266492
-0.357639 -0.19762 0.195868
-0.100034 0.175901 -0.174341
