# vtk DataFile Version 3.0
Velocity field
ASCII
DATASET STRUCTURED_POINTS
DIMENSIONS 5 5 5
SPACING 1.33333 1.33333 1.33333
ORIGIN 0 0 0
POINT_DATA 125
VECTORS velocity float
0 0.6079 0
0 0.143001 0
0 -0.540622 0
0 -0.39735 0
0 0.353678 0
0 -0.321898 1.05574
0 -0.0757225 0.286217
0 0.286273 -1.08206
0 0.210407 -0.795297
0 -0.187281 0.614233
0 -0.759345 0.496699
0 -0.178626 0.134658
0 0.675306 -0.50908
0 0.496341 -0.374167
0 -0.44179 0.288981
0 -0.0353549 -0.822055
0 -0.00831681 -0.222863
0 0.0314421 0.842545
0 0.0231095 0.61926
0 -0.0205696 -0.478275
0 0.742711 -0.883456
0 0.174714 -0.207822
0 -0.660513 0.785681
0 -0.485469 0.577465
0 0.432112 -0.513998
0 0.143001 0
0 0.042804 0
0 -0.161823 0
0 -0.118938 0
0 0.0831984 0
0.451853 -0.0757225 0.370757
0.715563 -0.0190059 0.0940396
-0.150028 0.0720185 -0.356466
-0.786309 0.0529573 -0.262138
-0.204173 -0.0440556 0.215708
0.212586 -0.178626 0.174432
0.336657 -0.045045 0.0442435
-0.070585 0.17071 -0.167709
-0.369941 0.125532 -0.123331
-0.0960585 -0.103925 0.101485
-0.351837 -0.00831681 -0.288691
-0.556817 -0.00212124 -0.0731779
0.116744 0.00804382 0.277378
0.611867 0.00591575 0.203978
0.15898 -0.00483875 -0.167962
-0.378116 0.174714 -0.310254
-0.55601 0.0410992 -0.0729835
0.116527 -0.155377 0.275917
0.610833 -0.1142 0.202796
0.170855 0.101649 -0.180507
0 -0.540622 0
0 -0.161823 0
0 0.611778 0
0 0.449649 0
0 -0.314535 0
0.212586 0.286273 -0.881308
0.336657 0.0720185 -0.222785
-0.070585 -0.272929 0.844418
-0.369941 -0.200699 0.620962
-0.0960585 0.166554 -0.512748
0.100016 0.675306 -0.414633
0.158389 0.17071 -0.104816
-0.0332087 -0.647041 0.397281
-0.174049 -0.475815 0.292148
-0.0451931 0.392895 -0.241235
-0.16553 0.0314421 0.686233
-0.26197 0.00804382 0.173366
0.0549257 -0.0305078 -0.657086
0.28787 -0.0224374 -0.483198
0.0747963 0.0182931 0.399253
-0.177894 -0.660513 0.737489
-0.261589 -0.155377 0.173485
0.0548231 0.587412 -0.655869
0.287382 0.43174 -0.482055
0.0803829 -0.384289 0.429074
0 -0.39735 0
0 -0.118938 0
0 0.449649 0
0 0.330487 0
0 -0.23118 0
-0.351837 0.210407 -0.785391
-0.556817 0.0529578 -0.198615
0.116744 -0.2007 0.752819
0.611867 -0.147585 0.553604
0.15898 0.122415 -0.456943
-0.16553 0.496341 -0.369507
-0.26197 0.125533 -0.093444
0.0549257 -0.475819 0.354186
0.28787 -0.349905 0.260459
0.0747963 0.288773 -0.21498
0.273959 0.0231095 0.611547
0.433294 0.0059158 0.154557
-0.0908451 -0.0224377 -0.585805
-0.476127 -0.0165023 -0.430784
-0.123791 0.0134452 0.3558
0.294421 -0.485469 0.657225
0.432939 -0.1142 0.154604
-0.0907342 0.43174 -0.584487
-0.475627 0.317323 -0.429591
-0.133037 -0.282447 0.382376
0 0.353678 0
0 0.0831984 0
0 -0.314535 0
0 -0.23118 0
0 0.205771 0
-0.378116 -0.187281 0.511801
-0.55601 -0.0440556 0.120395
0.116527 0.166554 -0.455158
0.610833 0.122415 -0.334535
0.170855 -0.108961 0.297768
-0.177894 -0.44179 0.24079
-0.261589 -0.103925 0.0566427
0.0548231 0.392895 -0.214141
0.287382 0.288773 -0.157391
0.0803829 -0.257035 0.140092
0.294421 -0.0205696 -0.398515
0.432939 -0.00483875 -0.0937458
-0.0907342 0.0182931 0.35441
-0.475627 0.0134452 0.260487
-0.133037 -0.0119675 -0.231858
0.316412 0.432112 -0.428281
0.465276 0.101649 -0.100748
-0.0975113 -0.384289 0.380882
-0.511153 -0.282447 0.279943
-0.142973 0.251404 -0.249175
