# vtk DataFile Version 3.0
Velocity field
ASCII
DATASET STRUCTURED_POINTS
DIMENSIONS 5 5 5
SPACING 1.33333 1.33333 1.33333
ORIGIN 0 0 0
POINT_DATA 125
VECTORS velocity float
0 0.515613 0
0 0.121292 0
0 -0.458548 0
0 -0.337027 0
0 0.299986 0
0 -0.27303 0.895465
0 -0.0642269 0.242765
0 0.242813 -0.917786
0 0.178464 -0.674561
0 -0.15885 0.520985
0 -0.644067 0.421294
0 -0.151509 0.114215
0 0.572786 -0.431795
0 0.42099 -0.317364
0 -0.37472 0.24511
0 -0.0299876 -0.697257
0 -0.00705422 -0.18903
0 0.0266688 0.714636
0 0.0196012 0.525249
0 -0.0174469 -0.405667
0 0.629959 -0.749336
0 0.14819 -0.176272
0 -0.560239 0.666405
0 -0.411768 0.489799
0 0.366512 -0.435967
0 0.121292 0
0 0.0363058 0
0 -0.137256 0
0 -0.100881 0
0 0.0705678 0
0.383256 -0.0642269 0.314472
0.598145 -0.0159234 0.0786382
-0.125391 0.06029 -0.297815
-0.657227 0.044326 -0.218966
-0.173177 -0.0373674 0.182961
0.180312 -0.151509 0.147951
0.281414 -0.0377134 0.0369976
-0.0589939 0.142806 -0.140114
-0.309209 0.104995 -0.103019
-0.0814757 -0.0881483 0.0860785
-0.298424 -0.00705422 -0.244864
-0.465552 -0.00176925 -0.0612064
0.0975952 0.00670163 0.231792
0.511536 0.00492754 0.170424
0.134845 -0.00410417 -0.142463
-0.320713 0.14819 -0.263154
-0.471601 0.0348598 -0.0619037
0.0988368 -0.131789 0.23403
0.518101 -0.0968634 0.172009
0.144917 0.0862174 -0.153104
0 -0.458548 0
0 -0.137256 0
0 0.518903 0
0 0.381387 0
0 -0.266785 0
0.180312 0.242813 -0.747514
0.281414 0.06029 -0.186368
-0.0589939 -0.228287 0.705756
-0.309209 -0.167842 0.518898
-0.0814757 0.141269 -0.434907
0.0848325 0.572786 -0.351687
0.132398 0.142806 -0.0876822
-0.0277552 -0.540788 0.332042
-0.145476 -0.397607 0.244129
-0.0383323 0.333249 -0.204613
-0.140401 0.0266688 0.582054
-0.219031 0.00670163 0.145058
0.0459163 -0.025387 -0.549309
0.240665 -0.0186667 -0.40387
0.0634413 0.015516 0.338641
-0.150888 -0.560239 0.625529
-0.221876 -0.131789 0.147148
0.0465003 0.498235 -0.5563
0.243754 0.366197 -0.408873
0.0681798 -0.325949 0.363935
0 -0.337027 0
0 -0.100881 0
0 0.381387 0
0 0.280315 0
0 -0.196084 0
-0.298424 0.178464 -0.666159
-0.465552 0.0443262 -0.166127
0.0975952 -0.167843 0.629109
0.511535 -0.123402 0.462546
0.134845 0.103831 -0.387574
-0.140401 0.42099 -0.313411
-0.219031 0.104995 -0.078159
0.0459163 -0.39761 0.295983
0.240665 -0.292339 0.217617
0.0634413 0.244934 -0.182344
0.232368 0.0196012 0.518707
0.362354 0.00492758 0.129303
-0.0759609 -0.0186668 -0.489652
-0.398142 -0.0137256 -0.360011
-0.104998 0.0114041 0.301785
0.249724 -0.411768 0.55745
0.367213 -0.0968634 0.131133
-0.0769596 0.366197 -0.495755
-0.403421 0.26915 -0.364373
-0.11284 -0.239568 0.324326
0 0.299986 0
0 0.0705678 0
0 -0.266785 0
0 -0.196084 0
0 0.174533 0
-0.320713 -0.15885 0.434103
-0.471601 -0.0373674 0.102117
0.0988368 0.141269 -0.386059
0.518101 0.103831 -0.283749
0.144917 -0.0924194 0.252563
-0.150888 -0.37472 0.204235
-0.221876 -0.0881483 0.0480437
0.0465003 0.333249 -0.181631
0.243754 0.244934 -0.133497
0.0681798 -0.218014 0.118824
0.249724 -0.0174469 -0.338016
0.367213 -0.00410417 -0.079514
-0.0769596 0.015516 0.300606
-0.403421 0.0114041 0.220942
-0.11284 -0.0101507 -0.196659
0.268377 0.366512 -0.363263
0.394641 0.0862174 -0.085453
-0.0827079 -0.325949 0.323059
-0.433553 -0.239568 0.237444
-0.121268 0.213238 -0.211348
