# vtk DataFile Version 3.0
Velocity field
ASCII
DATASET STRUCTURED_POINTS
DIMENSIONS 10 10 10
SPACING 0.631579 0.631579 0.631579
ORIGIN 0 0 0
POINT_DATA 1000
VECTORS velocity float
0 0.0190098 0
0 0.0153427 0
0 0.00575633 0
0 -0.00605089 0
0 -0.0155236 0
0 -0.0190072 0
0 -0.0151577 0
0 -0.00546023 0
0 0.00634386 0
0 0.0157004 0
0 0.0116757 0.0148908
0 0.00942338 0.0124895
0 0.00353549 0.00468587
0 -0.00371641 -0.00492566
0 -0.0095345 -0.0126368
0 -0.0116741 -0.0154726
0 -0.00930975 -0.0123389
0 -0.00335363 -0.00444483
0 0.00389635 0.00516414
0 0.00964309 0.0122985
0 -0.000163007 0.0240366
0 -0.000131562 0.0201605
0 -4.93599e-05 0.00756389
0 5.18858e-05 -0.00795096
0 0.000133114 -0.0203983
0 0.000162985 -0.0249758
0 0.000129976 -0.0199174
0 4.68209e-05 -0.00717481
0 -5.4398e-05 0.00833591
0 -0.00013463 0.0198522
0 -0.0119388 0.0239089
0 -0.00963575 0.0200534
0 -0.00361517 0.00752371
0 0.00380017 -0.00790872
0 0.00974937 -0.0202899
0 0.0119372 -0.0248431
0 0.00951956 -0.0198116
0 0.00342921 -0.0071367
0 -0.00398416 0.00829163
0 -0.00986041 0.0197467
0 -0.0191085 0.014557
0 -0.0154224 0.0122096
0 -0.00578622 0.00458083
0 0.00608232 -0.00481524
0 0.0156042 -0.0123535
0 0.0191059 -0.0151258
0 0.0152364 -0.0120624
0 0.00548858 -0.00434519
0 -0.0063768 0.00504838
0 -0.015782 0.0120228
0 -0.018906 -0.000411128
0 -0.015259 -0.000344831
0 -0.0057249 -0.000129375
0 0.00601786 0.000135995
0 0.0154389 0.000348897
0 0.0189035 0.000427192
0 0.015075 0.000340673
0 0.00543042 0.00012272
0 -0.00630923 -0.00014258
0 -0.0156147 -0.000339557
0 -0.0114094 -0.0152206
0 -0.00920851 -0.0127662
0 -0.00345488 -0.00478966
0 0.00363167 0.00503476
0 0.0093171 0.0129167
0 0.0114079 0.0158153
0 0.00909748 0.0126123
0 0.00327716 0.00454328
0 -0.00380751 -0.00527852
0 -0.00942321 -0.0125709
0 0.000488982 -0.0241579
0 0.000394656 -0.0202623
0 0.000148068 -0.00760206
0 -0.000155645 0.00799108
0 -0.00039931 0.0205012
0 -0.000488917 0.0251018
0 -0.000389897 0.020018
0 -0.000140452 0.00721102
0 0.000163181 -0.00837798
0 0.000403857 -0.0199524
0 0.0121987 -0.0237749
0 0.00984555 -0.019941
0 0.00369388 -0.00748153
0 -0.00388291 0.00786438
0 -0.00996165 0.0201762
0 -0.0121971 0.0247038
0 -0.00972683 0.0197006
0 -0.00350387 0.00709669
0 0.00407091 -0.00824514
0 0.0100751 -0.019636
0 0.0192021 -0.0142193
0 0.015498 -0.0114764
0 0.00581457 -0.00430574
0 -0.00611212 0.00452608
0 -0.0156807 0.0116117
0 -0.0191996 0.0142174
0 -0.0153111 0.011338
0 -0.00551548 0.00408426
0 0.00640805 -0.00474521
0 0.0158593 -0.0117439
0 0.0153427 0
0 0.0130272 0
0 0.00488758 0
0 -0.00513769 0
0 -0.0131808 0
0 -0.0161387 0
0 -0.0128701 0
0 -0.00463617 0
0 0.00538644 0
0 0.0126717 0
0.0021651 0.00942338 0.0164799
0.00566916 0.00761869 0.013323
0.00698251 0.00285841 0.00499857
0.00560195 -0.00300468 -0.00525437
0.00206012 -0.00770855 -0.0134801
-0.00227652 -0.00943839 -0.0165052
-0.00573486 -0.00752684 -0.0131624
-0.00698066 -0.00271138 -0.00474145
-0.00553325 0.00315015 0.00550875
-0.00194793 0.00778288 0.013611
0.00349489 -0.000131562 0.0266018
0.00915111 -0.000106354 0.0215059
0.0112711 -3.99024e-05 0.00806866
0.00904263 4.19443e-05 -0.00848156
0.00332543 0.000107609 -0.0217595
-0.00367474 0.000131757 -0.0266425
-0.00925717 0.000105072 -0.0212466
-0.0112681 3.78499e-05 -0.00765362
-0.00893174 -4.3975e-05 0.00889218
-0.00314433 -0.000108659 0.0219708
0.00347633 -0.00963575 0.0264605
0.0091025 -0.00778954 0.0213917
0.0112112 -0.00292251 0.0080258
0.00899459 0.00307206 -0.0084365
0.00330777 0.00788141 -0.021644
-0.00365522 0.00965006 -0.026501
-0.00920799 0.00769563 -0.0211338
-0.0112083 0.00277218 -0.00761296
-0.00888429 -0.00322079 0.00884494
-0.00312763 -0.00795828 0.0218541
0.00211657 -0.0154224 0.0161105
0.00554207 -0.0124675 0.0130243
0.00682598 -0.00467759 0.00488653
0.00547638 0.00491696 -0.00513658
0.00201394 0.0126145 -0.013178
-0.00222549 0.0154453 -0.0161352
-0.00560631 0.0123172 -0.0128673
-0.00682417 0.00443698 -0.00463517
-0.00540922 -0.005155 0.00538526
-0.00190426 -0.0127375 0.0133059
-5.97775e-05 -0.015259 -0.000455004
-0.000156523 -0.0123354 -0.000367842
-0.000192784 -0.00462802 -0.000138008
-0.000154667 0.00486485 0.000145071
-5.6879e-05 0.0124808 0.000372181
6.28537e-05 0.0152816 0.0004557
0.000158337 0.0121866 0.000363408
0.000192733 0.00438996 0.000130909
0.000152771 -0.00510037 -0.000152094
5.37815e-05 -0.0126026 -0.000375794
-0.00221306 -0.00920851 -0.016845
-0.00579474 -0.00744416 -0.0136181
-0.00713718 -0.00279293 -0.0051093
-0.00572604 0.00293585 0.00537075
-0.00210575 0.00753196 0.0137787
0.00232695 0.00922218 0.0168708
0.00586189 0.00735442 0.0134539
0.00713528 0.00264926 0.00484648
0.00565582 -0.00307799 -0.00563077
0.00199108 -0.00760542 -0.0139125
-0.00351253 0.000394656 -0.026736
-0.00919729 0.00031904 -0.0216144
-0.011328 0.000119699 -0.00810938
-0.00908826 -0.000125824 0.00852437
-0.00334221 -0.000322803 0.0218694
0.00369329 -0.000395242 0.026777
0.00930389 -0.000315194 0.0213538
0.011325 -0.000113541 0.00769224
0.00897681 0.000131915 -0.00893705
0.0031602 0.000325951 -0.0220816
-0.00345684 0.00984555 -0.0263121
-0.00905146 0.00795912 -0.0212717
-0.0111484 0.00298614 -0.0079808
-0.00894416 -0.00313894 0.0083892
-0.00328922 -0.008053 0.0215226
0.00363472 -0.00986014 0.0263524
0.00915636 -0.00786318 0.0210153
0.0111454 -0.00283253 0.00757028
0.00883447 0.00329091 -0.00879535
0.0031101 0.00813156 -0.0217315
-0.00206747 0.015498 -0.0157368
-0.00540477 0.0125084 -0.0127011
-0.00665687 0.00469292 -0.00476524
-0.00534069 -0.00493307 0.00500909
-0.00196404 -0.0126559 0.0128509
0.00217035 -0.0154959 0.0157347
0.0054674 -0.0123575 0.012548
0.0066551 -0.00445152 0.00452012
0.0052752 0.00517191 -0.00525162
0.00186009 0.0128 -0.0129972
0 0.00575633 0
0 0.00488758 0
0 0.00183374 0
0 -0.00192758 0
0 -0.00494522 0
0 -0.00605496 0
0 -0.00482865 0
0 -0.00173941 0
0 0.0020209 0
0 0.00475422 0
0.00349489 0.00353549 0.011711
0.00915111 0.00285841 0.00946718
0.0112711 0.00107243 0.00355193
0.00904263 -0.00112731 -0.00373369
0.00332543 -0.00289212 -0.00957883
-0.00367474 -0.00354113 -0.0117284
-0.00925717 -0.00282395 -0.00935304
-0.0112681 -0.00101726 -0.00336922
-0.00893174 0.00118188 0.00391445
-0.00314433 0.00292001 0.00967226
0.00564143 -4.93599e-05 0.0189038
0.0147717 -3.99024e-05 0.0152818
0.0181937 -1.49707e-05 0.0057335
0.0145965 1.57368e-05 -0.0060269
0.00536789 4.0373e-05 -0.0154621
-0.00593174 4.94329e-05 -0.0189319
-0.0149428 3.94213e-05 -0.0150976
-0.0181889 1.42006e-05 -0.00543858
-0.0144175 -1.64987e-05 0.00631868
-0.00507556 -4.0767e-05 0.0156129
0.00561146 -0.00361517 0.0188034
0.0146932 -0.00292251 0.0152007
0.0180971 -0.00109648 0.00570304
0.014519 0.00115259 -0.00599489
0.00533937 0.00295698 -0.0153799
-0.00590023 0.00362054 -0.0188313
-0.0148635 0.00288728 -0.0150174
-0.0180923 0.00104008 -0.00540969
-0.014341 -0.00120839 0.00628511
-0.0050486 -0.00298581 0.0155299
0.00341655 -0.00578622 0.0114485
0.00894598 -0.00467759 0.00925496
0.0110185 -0.00175496 0.00347231
0.00883992 0.00184476 -0.00365
0.00325089 0.00473276 -0.00936411
-0.00359237 0.00579482 -0.0114655
-0.00904965 0.0046212 -0.00914337
-0.0110155 0.00166468 -0.0032937
-0.00873152 -0.00193407 0.0038267
-0.00307385 -0.00477891 0.00945544
-9.64924e-05 -0.0057249 -0.000323335
-0.000252658 -0.00462802 -0.000261385
-0.00031119 -0.00173636 -9.80672e-05
-0.000249663 0.00182521 0.000103086
-9.18137e-05 0.00468261 0.000264467
0.000101458 0.00573341 0.000323816
0.000255587 0.00457222 0.000258233
0.000311108 0.00164704 9.30228e-05
0.000246601 -0.00191358 -0.000108076
8.68137e-05 -0.00472826 -0.000267047
-0.00357231 -0.00345488 -0.0119704
-0.00935381 -0.00279293 -0.00967689
-0.0115208 -0.00104786 -0.00363061
-0.00924293 0.00110148 0.0038164
-0.0033991 0.00282587 0.00979101
0.00375614 0.00346001 0.0119882
0.00946222 0.00275926 0.00956022
0.0115177 0.000993961 0.00344385
0.00912958 -0.00115481 -0.00400116
0.00321398 -0.00285342 -0.00988651
-0.0056699 0.000148068 -0.0189992
-0.0148462 0.000119699 -0.015359
-0.0182856 4.49089e-05 -0.00576243
-0.0146702 -4.72071e-05 0.00605731
-0.00539498 -0.00012111 0.0155401
0.00596167 -0.000148288 0.0190274
0.0150183 -0.000118256 0.0151738
0.0182807 -4.25989e-05 0.00546602
0.0144903 4.94925e-05 -0.00635057
0.00510118 0.000122291 -0.0156917
-0.00558 0.00369388 -0.0186979
-0.0146108 0.00298614 -0.0151154
-0.0179956 0.00112035 -0.00567106
-0.0144376 -0.00117768 0.00596127
-0.00530943 -0.00302135 0.0152937
0.00586714 -0.00369937 0.0187257
0.0147801 -0.00295013 0.0149332
0.0179908 -0.00106272 0.00537935
0.0142605 0.0012347 -0.00624987
0.0050203 0.00305082 -0.0154429
-0.0033373 0.00581457 -0.0111829
-0.00872434 0.00469292 -0.00902568
-0.0107455 0.0017607 -0.00338628
-0.00862091 -0.00185081 0.00355957
-0.00317035 -0.00474826 0.00913211
0.00350336 -0.0058138 0.0111814
0.00882544 -0.00463633 0.00891684
0.0107426 -0.00167014 0.00321209
0.00851519 0.00194041 -0.00373191
0.00300255 0.00480234 -0.00923611
0 -0.00605089 0
0 -0.00513769 0
0 -0.00192758 0
0 0.00202622 0
0 0.00519828 0
0 0.00636481 0
0 0.00507574 0
0 0.00182842 0
0 -0.00212432 0
0 -0.00499751 0
0.00347633 -0.00371641 0.00242385
0.0091025 -0.00300468 0.00195944
0.0112112 -0.00112731 0.00073515
0.00899459 0.001185 -0.000772771
0.00330777 0.00304012 -0.00198255
-0.00365522 0.00372234 -0.00242745
-0.00920799 0.00296846 -0.00193582
-0.0112083 0.00106932 -0.000697335
-0.00888429 -0.00124236 0.000810183
-0.00312763 -0.00306943 0.00200189
0.00561146 5.18858e-05 0.00391255
0.0146932 4.19443e-05 0.00316292
0.0180971 1.57368e-05 0.00118667
0.014519 -1.65421e-05 -0.0012474
0.00533937 -4.2439e-05 -0.00320022
-0.00590023 -5.19626e-05 -0.00391837
-0.0148635 -4.14386e-05 -0.00312479
-0.0180923 -1.49273e-05 -0.00112563
-0.014341 1.7343e-05 0.00130779
-0.0050486 4.28531e-05 0.00323143
0.00558165 0.00380017 0.00389177
0.0146151 0.00307206 0.00314611
0.018001 0.00115259 0.00118037
0.0144419 -0.00121157 -0.00124077
0.00531101 -0.0031083 -0.00318322
-0.00586888 -0.00380581 -0.00389755
-0.0147845 -0.00303502 -0.00310819
-0.0179962 -0.0010933 -0.00111965
-0.0142648 0.00127023 0.00130084
-0.00502178 0.0031386 0.00321427
0.0033984 0.00608232 0.00236951
0.00889846 0.00491696 0.00191552
0.0109599 0.00184476 0.000718671
0.00879296 -0.00193917 -0.000755448
0.00323362 -0.00497495 -0.00193811
-0.00357328 -0.00609136 -0.00237303
-0.00900158 -0.00485768 -0.00189243
-0.010957 -0.00174987 -0.000681704
-0.00868513 0.00203305 0.000792021
-0.00305752 0.00502346 0.00195701
-9.59798e-05 0.00601786 -6.69213e-05
-0.000251316 0.00486485 -5.40993e-05
-0.000309537 0.00182521 -2.02972e-05
-0.000248337 -0.00191862 2.13359e-05
-9.13261e-05 -0.00492223 5.47374e-05
0.000100919 -0.00602681 6.70208e-05
0.000254229 -0.0048062 5.34471e-05
0.000309455 -0.00173133 1.92531e-05
0.000245291 0.0020115 -2.23688e-05
8.63526e-05 0.00497022 -5.52713e-05
-0.00355333 0.00363167 -0.00247754
-0.00930413 0.00293585 -0.00200284
-0.0114596 0.00110148 -0.000751435
-0.00919383 -0.00115785 0.000789888
-0.00338104 -0.00297048 0.00202647
0.00373618 -0.00363707 0.00248122
0.00941196 -0.00290046 0.0019787
0.0114565 -0.00104483 0.000712782
0.00908108 0.00121391 -0.000828129
0.00319691 0.00299944 -0.00204623
-0.00563978 -0.000155645 -0.0039323
-0.0147673 -0.000125824 -0.00317888
-0.0181884 -4.72071e-05 -0.00119266
-0.0145923 4.96228e-05 0.0012537
-0.00536632 0.000127308 0.00321637
0.00593 0.000155877 0.00393814
0.0149385 0.000124307 0.00314055
0.0181836 4.47788e-05 0.00113131
0.0144133 -5.20252e-05 -0.00131439
0.00507408 -0.000128549 -0.00324774
-0.00555036 -0.00388291 -0.00386995
-0.0145332 -0.00313894 -0.00312847
-0.0179 -0.00117768 -0.00117375
-0.0143609 0.00123795 0.00123382
-0.00528123 0.00317597 0.00316537
0.00583598 0.00388867 0.0038757
0.0147016 0.0031011 0.00309076
0.0178953 0.0011171 0.00111338
0.0141848 -0.00129788 -0.00129355
0.00499363 -0.00320694 -0.00319625
-0.00331957 -0.00611212 -0.00231455
-0.00867799 -0.00493307 -0.00186806
-0.0106884 -0.00185081 -0.000700866
-0.00857511 0.00194552 0.000736731
-0.0031535 0.00499124 0.00189009
0.00348475 0.00611131 0.00231424
0.00877856 0.00487359 0.00184554
0.0106855 0.0017556 0.000664814
0.00846996 -0.00203971 -0.000772401
0.0029866 -0.00504809 -0.00191162
0 -0.0155236 0
0 -0.0131808 0
0 -0.00494522 0
0 0.00519828 0
0 0.0133362 0
0 0.016329 0
0 0.0130219 0
0 0.00469084 0
0 -0.00544996 0
0 -0.0128212 0
0.00211657 -0.0095345 -0.00779842
0.00554207 -0.00770855 -0.00630426
0.00682599 -0.00289212 -0.00236526
0.00547638 0.00304012 0.00248629
0.00201394 0.00779946 0.00637862
-0.00222549 0.00954971 0.00781001
-0.00560631 0.00761561 0.00622826
-0.00682417 0.00274335 0.00224359
-0.00540922 -0.0031873 -0.00260666
-0.00190426 -0.00787466 -0.00644083
0.00341655 0.000133114 -0.0125882
0.00894598 0.000107609 -0.0101763
0.0110185 4.0373e-05 -0.00381798
0.00883992 -4.2439e-05 0.00401335
0.00325089 -0.000108878 0.0102963
-0.00359237 -0.000133311 0.0126069
-0.00904965 -0.000106311 0.0100536
-0.0110155 -3.82963e-05 0.00362158
-0.00873152 4.44936e-05 -0.00420765
-0.00307385 0.00010994 -0.0103967
0.0033984 0.00974937 -0.0125213
0.00889846 0.00788141 -0.0101222
0.0109599 0.00295698 -0.0037977
0.00879296 -0.0031083 0.00399204
0.00323362 -0.00797437 0.0102416
-0.00357328 -0.00976387 0.0125399
-0.00900158 -0.0077864 0.0100002
-0.010957 -0.00280488 0.00360235
-0.00868513 0.00325878 -0.0041853
-0.00305752 0.00805212 -0.0103415
0.00206912 0.0156042 -0.00762361
0.00541785 0.0126145 -0.00616294
0.00667297 0.00473276 -0.00231224
0.00535361 -0.00497495 0.00243056
0.0019688 -0.0127633 0.00623563
-0.0021756 -0.0156274 0.00763494
-0.00548063 -0.0124624 0.00608864
-0.00667119 -0.00448931 0.0021933
-0.00528796 0.0052158 -0.00254823
-0.00186158 0.0128877 -0.00629645
-5.84375e-05 0.0154389 0.000215311
-0.000153014 0.0124808 0.000174058
-0.000188463 0.00468261 6.53037e-05
-0.0001512 -0.00492223 -6.86455e-05
-5.5604e-05 -0.012628 -0.000176111
6.14447e-05 -0.0154618 -0.000215631
0.000154788 -0.0123304 -0.000171959
0.000188413 -0.00444174 -6.19446e-05
0.000149346 0.00516053 7.19688e-05
5.25759e-05 0.0127512 0.000177828
-0.00216345 0.0093171 0.00797116
-0.00566484 0.00753196 0.0064439
-0.00697719 0.00282587 0.00241765
-0.00559768 -0.00297048 -0.00254137
-0.00205855 -0.00762079 -0.0065199
0.00227478 -0.00933096 -0.00798301
0.00573049 -0.00744115 -0.00636622
0.00697534 -0.00268051 -0.00229329
0.00552903 0.00311429 0.0026644
0.00194645 0.0076951 0.00658349
-0.00343379 -0.00039931 0.0126517
-0.00899112 -0.000322803 0.0102276
-0.0110741 -0.00012111 0.00383725
-0.00888454 0.000127308 -0.00403361
-0.00326729 0.00032661 -0.0103483
0.00361049 0.000399903 -0.0126705
0.00909533 0.000318911 -0.0101043
0.0110711 0.000114881 -0.00363986
0.00877558 -0.000133471 0.00422889
0.00308936 -0.000329795 0.0104492
-0.00337935 -0.00996165 0.0124511
-0.00884856 -0.008053 0.0100655
-0.0108985 -0.00302135 0.0037764
-0.00874366 0.00317597 -0.00396966
-0.00321549 0.00814798 -0.0101842
0.00355325 0.00997643 -0.0124696
0.00895111 0.00795591 -0.00994412
0.0108956 0.00286594 -0.00358215
0.00863643 -0.00332972 0.00416184
0.00304038 -0.00822744 0.0102835
-0.00202113 -0.0156807 0.00744677
-0.00528361 -0.0126559 0.00601026
-0.00650764 -0.00474826 0.00225495
-0.00522098 0.00499124 -0.00237034
-0.00192002 0.0128051 -0.00608113
0.0021217 0.0156786 -0.00744578
0.00534484 0.0125032 -0.00593779
0.00650591 0.00450402 -0.00213896
0.00515695 -0.0052329 0.0024851
0.0018184 -0.0129509 0.00615039
0 -0.0190072 0
0 -0.0161387 0
0 -0.00605496 0
0 0.00636481 0
0 0.016329 0
0 0.0199933 0
0 0.0159441 0
0 0.00574349 0
0 -0.00667297 0
0 -0.0156983 0
-5.97775e-05 -0.0116741 -0.015012
-0.000156523 -0.00943839 -0.0121357
-0.000192784 -0.00354113 -0.00455313
-0.000154667 0.00372234 0.00478613
-5.6879e-05 0.00954971 0.0122789
6.28537e-05 0.0116927 0.0150343
0.000158337 0.00932461 0.0119894
0.000192733 0.00335898 0.00431892
0.000152771 -0.00390255 -0.00501784
5.37815e-05 -0.00964178 -0.0123986
-9.64924e-05 0.000162985 -0.0242323
-0.000252658 0.000131757 -0.0195894
-0.00031119 4.94329e-05 -0.00734963
-0.000249663 -5.19626e-05 0.00772574
-9.18137e-05 -0.000133311 0.0198204
0.000101458 -0.000163226 0.0242683
0.000255587 -0.000130168 0.0193533
0.000311108 -4.68902e-05 0.00697158
0.000246601 5.44783e-05 -0.00809976
8.68137e-05 0.000134611 -0.0200138
-9.59798e-05 0.0119372 -0.0241035
-0.000251316 0.00965006 -0.0194853
-0.000309537 0.00362054 -0.00731059
-0.000248337 -0.00380581 0.00768469
-9.13261e-05 -0.00976387 0.0197152
0.000100919 -0.0119549 0.0241394
0.000254229 -0.00953371 0.0192504
0.000309455 -0.0034343 0.00693454
0.000245291 0.00399007 -0.00805673
8.63526e-05 0.00985907 -0.0199074
-5.84375e-05 0.0191059 -0.0146755
-0.000153014 0.0154453 -0.0118637
-0.000188463 0.00579482 -0.00445107
-0.0001512 -0.00609136 0.00467884
-5.5604e-05 -0.0156274 0.0120036
6.14447e-05 -0.0191343 0.0146973
0.000154788 -0.0152591 0.0117207
0.000188413 -0.00549674 0.00422211
0.000149346 0.00638626 -0.00490535
5.25759e-05 0.0157798 -0.0121207
1.65043e-06 0.0189035 0.000414475
4.32153e-06 0.0152816 0.000335062
5.32268e-06 0.00573341 0.00012571
4.2703e-06 -0.00602681 -0.000132143
1.57041e-06 -0.0154618 -0.000339014
-1.73536e-06 -0.0189316 -0.000415091
-4.37162e-06 -0.0150974 -0.000331023
-5.32127e-06 -0.0054385 -0.000119244
-4.21793e-06 0.00631858 0.00013854
-1.48488e-06 0.0156126 0.000342321
6.11016e-05 0.0114079 0.0153445
0.00015999 0.00922218 0.0124046
0.000197054 0.00346001 0.00465399
0.000158093 -0.00363707 -0.00489214
5.8139e-05 -0.00933095 -0.0125508
-6.42459e-05 -0.0114249 -0.0153673
-0.000161844 -0.009111 -0.012255
-0.000197002 -0.00328204 -0.00441459
-0.000156155 0.00381315 0.00512899
-5.49728e-05 0.00942193 0.0126733
9.69794e-05 -0.000488917 0.0243546
0.000253933 -0.000395242 0.0196883
0.000312761 -0.000148288 0.00738672
0.000250923 0.000155877 -0.00776472
9.22771e-05 0.000399903 -0.0199205
-0.00010197 0.000489644 -0.0243907
-0.000256876 0.000390477 -0.0194509
-0.000312678 0.00014066 -0.00700676
-0.000247846 -0.000163423 0.00814063
-8.72518e-05 -0.000403803 0.0201148
9.54417e-05 -0.0121971 0.0239684
0.000249907 -0.00986014 0.0193761
0.000307802 -0.00369937 0.00726959
0.000246944 0.00388868 -0.0076416
9.0814e-05 0.00997643 -0.0196046
-0.000100353 0.0122152 -0.024004
-0.000252803 0.00974127 -0.0191425
-0.00030772 0.00350907 -0.00689565
-0.000243916 -0.00407694 0.00801155
-8.58684e-05 -0.0100737 0.0197958
5.7082e-05 -0.0191996 0.0143351
0.000149223 -0.0154959 0.0115698
0.000183793 -0.0058138 0.00434079
0.000147454 0.00611131 -0.00456292
5.42264e-05 0.0156786 -0.0117062
-5.99224e-05 0.019197 -0.0143332
-0.000150953 0.0153091 -0.0114303
-0.000183744 0.00551475 -0.0041175
-0.000145646 -0.0064072 0.00478384
-5.13564e-05 -0.0158572 0.0118395
0 -0.0151577 0
0 -0.0128701 0
0 -0.00482865 0
0 0.00507574 0
0 0.0130219 0
0 0.0159441 0
0 0.0127149 0
0 0.00458027 0
0 -0.00532149 0
0 -0.0125189 0
-0.00221306 -0.00930975 -0.0164338
-0.00579474 -0.00752684 -0.0132851
-0.00713718 -0.00282395 -0.00498437
-0.00572604 0.00296846 0.00523944
-0.00210575 0.00761561 0.0134418
0.00232695 0.00932461 0.0164583
0.00586189 0.00743609 0.013125
0.00713528 0.00267869 0.00472798
0.00565582 -0.00311217 -0.00549309
0.00199108 -0.00768904 -0.0135729
-0.00357231 0.000129976 -0.0265274
-0.00935381 0.000105072 -0.0214448
-0.0115208 3.94213e-05 -0.00804573
-0.00924293 -4.14386e-05 0.00845746
-0.00339909 -0.000106311 0.0216977
0.00375614 -0.000130168 0.0265668
0.00946222 -0.000103805 0.0211862
0.0115177 -3.73935e-05 0.00763187
0.00912958 4.34448e-05 -0.00886691
0.00321398 0.000107349 -0.0219093
-0.00355333 0.00951956 -0.0263865
-0.00930413 0.00769563 -0.0213309
-0.0114596 0.00288728 -0.00800299
-0.00919383 -0.00303502 0.00841253
-0.00338104 -0.0077864 0.0215824
0.00373618 -0.00953371 0.0264257
0.00941196 -0.00760285 0.0210737
0.0114565 -0.00273876 0.00759133
0.00908108 0.00318196 -0.00881981
0.00319691 0.00786232 -0.0217929
-0.00216345 0.0152364 -0.0160655
-0.00566484 0.0123172 -0.0129873
-0.00697719 0.0046212 -0.00487264
-0.00559768 -0.00485768 0.00512199
-0.00205855 -0.0124624 0.0131405
0.00227478 -0.0152591 0.0160893
0.00573049 -0.0121687 0.0128308
0.00697534 -0.00438349 0.004622
0.00552903 0.00509285 -0.00536996
0.00194645 0.0125839 -0.0132687
6.11016e-05 0.015075 0.000453731
0.00015999 0.0121866 0.000366797
0.000197054 0.00457222 0.000137616
0.000158094 -0.0048062 -0.000144659
5.8139e-05 -0.0123304 -0.000371123
-6.42459e-05 -0.0150974 -0.000454405
-0.000161844 -0.0120397 -0.000362375
-0.000197002 -0.00433704 -0.000130538
-0.000156155 0.00503889 0.000151662
-5.49728e-05 0.0124506 0.000374743
0.00226208 0.00909748 0.0167979
0.00592309 0.00735442 0.0135794
0.00729527 0.00275926 0.00509478
0.00585288 -0.00290046 -0.00535549
0.0021524 -0.00744115 -0.0137396
-0.00237849 -0.009111 -0.0168228
-0.00599174 -0.00726575 -0.0134157
-0.00729333 -0.00261733 -0.00483271
-0.0057811 0.00304088 0.00561477
-0.00203518 0.00751371 0.0138736
0.00359033 -0.000389897 0.0266613
0.00940102 -0.000315194 0.021553
0.0115789 -0.000118256 0.00808634
0.00928958 0.000124307 -0.00850015
0.00341624 0.000318911 -0.0218072
-0.0037751 0.000390477 -0.0267009
-0.00950997 0.000311393 -0.0212932
-0.0115758 0.000112173 -0.00767038
-0.00917565 -0.000130325 0.00891166
-0.0032302 -0.000322021 0.0220199
0.00353341 -0.00972683 0.0262385
0.00925196 -0.00786318 0.0212113
0.0113953 -0.00295013 0.00795812
0.00914227 0.0031011 -0.00836536
0.00336208 0.00795591 -0.0214614
-0.00371523 0.00974127 -0.0262775
-0.00935918 0.00776838 -0.0209556
-0.0113923 0.00279838 -0.00754877
-0.00903016 -0.00325124 0.00877035
-0.00317899 -0.00803351 0.0216708
0.00211327 -0.0153111 0.0156928
0.00552449 -0.0123575 0.0126656
0.00680432 -0.00463633 0.00475192
0.00545899 0.00487359 -0.00499509
0.00200755 0.0125032 -0.012815
-0.00221842 0.0153091 -0.0156907
-0.00558851 0.0122085 -0.0125129
-0.00680251 0.00439785 -0.00450748
-0.00539205 -0.00510955 0.00523693
-0.0019013 -0.0126456 0.0129609
0 -0.00546023 0
0 -0.00463617 0
0 -0.00173941 0
0 0.00182842 0
0 0.00469084 0
0 0.00574349 0
0 0.00458027 0
0 0.00164994 0
0 -0.00191695 0
0 -0.00450967 0
-0.00351253 -0.00335363 -0.0115154
-0.00919729 -0.00271138 -0.00930906
-0.011328 -0.00101726 -0.00349261
-0.00908826 0.00106932 0.00367134
-0.00334221 0.00274335 0.00941885
0.00369329 0.00335898 0.0115325
0.00930389 0.00267869 0.00919682
0.011325 0.000964937 0.00331295
0.00897681 -0.00112109 -0.00384907
0.0031602 -0.0027698 -0.00951071
-0.0056699 4.68209e-05 -0.018588
-0.0148462 3.78499e-05 -0.0150266
-0.0182856 1.42006e-05 -0.00563774
-0.0146702 -1.49273e-05 0.00592624
-0.00539498 -3.82963e-05 0.0152038
0.00596167 -4.68902e-05 0.0186157
0.0150183 -3.73935e-05 0.0148454
0.0182807 -1.34702e-05 0.00534774
0.0144903 1.565e-05 -0.00621315
0.00510118 3.867e-05 -0.0153521
-0.00563978 0.00342921 -0.0184893
-0.0147673 0.00277218 -0.0149468
-0.0181884 0.00104008 -0.00560779
-0.0145923 -0.0010933 0.00589476
-0.00536632 -0.00280488 0.0151231
0.00593 -0.0034343 0.0185168
0.0149385 -0.00273876 0.0147666
0.0181836 -0.000986576 0.00531933
0.0144133 0.00114623 -0.00618014
0.00507408 0.00283222 -0.0152706
-0.00343379 0.00548858 -0.0112572
-0.00899112 0.00443698 -0.00910038
-0.0110741 0.00166468 -0.00341431
-0.00888454 -0.00174987 0.00358904
-0.00326729 -0.00448931 0.00920771
0.00361049 -0.00549674 0.011274
0.00909533 -0.00438349 0.00899066
0.0110711 -0.00157905 0.00323868
0.00877558 0.00183459 -0.00376279
0.00308936 0.00453309 -0.00929751
9.69794e-05 0.00543042 0.000317935
0.000253933 0.00438996 0.000257019
0.000312761 0.00164704 9.64294e-05
0.000250923 -0.00173133 -0.000101364
9.22771e-05 -0.00444174 -0.00026005
-0.00010197 -0.0054385 -0.000318407
-0.000256876 -0.00433704 -0.00025392
-0.000312678 -0.00156232 -9.14692e-05
-0.000247846 0.00181514 0.000106271
-8.72518e-05 0.00448505 0.000262587
0.00359033 0.00327716 0.0117704
0.00940102 0.00264926 0.00951526
0.0115789 0.000993961 0.00356997
0.00928958 -0.00104483 -0.00375266
0.00341625 -0.00268051 -0.00962748
-0.0037751 -0.00328204 -0.0117879
-0.00950997 -0.00261733 -0.00940054
-0.0115758 -0.000942833 -0.00338634
-0.00917565 0.00109541 0.00393433
-0.0032302 0.00270665 0.00972138
0.00569851 -0.000140452 0.0186818
0.0149211 -0.000113541 0.0151024
0.0183778 -4.25989e-05 0.00566619
0.0147442 4.47788e-05 -0.00595615
0.00542221 0.000114881 -0.0152805
-0.00599176 0.00014066 -0.0187096
-0.0150941 0.000112173 -0.0149204
-0.0183729 4.04076e-05 -0.00537472
-0.0145634 -4.69467e-05 0.0062445
-0.00512692 -0.000116001 0.0154296
0.00560816 -0.00350387 0.0183856
0.0146845 -0.00283253 0.014863
0.0180864 -0.00106272 0.00557635
0.0145104 0.0011171 -0.0058617
0.00533623 0.00286594 -0.0150383
-0.00589675 0.00350907 -0.0184129
-0.0148547 0.00279838 -0.0146838
-0.0180816 0.00100805 -0.0052895
-0.0143325 -0.00117118 0.00614549
-0.00504563 -0.00289389 0.015185
0.00335414 -0.00551548 0.0109961
0.00876836 -0.00445152 0.00887493
0.0107997 -0.00167014 0.00332972
0.00866441 0.0017556 -0.00350011
0.00318634 0.00450402 -0.00897958
-0.00352104 0.00551475 -0.0109947
-0.00886998 0.00439785 -0.00876791
-0.0107968 0.00158423 -0.00315844
-0.00855816 -0.0018406 0.00366958
-0.0030177 -0.00455531 0.00908185
0 0.00634386 0
0 0.00538644 0
0 0.0020209 0
0 -0.00212432 0
0 -0.00544995 0
0 -0.00667296 0
0 -0.00532149 0
0 -0.00191695 0
0 0.00222717 0
0 0.00523947 0
-0.00345684 0.00389635 -0.0021542
-0.00905146 0.00315015 -0.00174147
-0.0111484 0.00118188 -0.000653373
-0.00894416 -0.00124236 0.000686807
-0.00328922 -0.0031873 0.00176201
0.00363472 -0.00390255 0.00215742
0.00915636 -0.00311217 0.00172048
0.0111454 -0.00112109 0.000619763
0.00883447 0.00130251 -0.000720058
0.0031101 0.00321804 -0.00177919
-0.00558 -5.4398e-05 -0.0034773
-0.0146108 -4.39749e-05 -0.00281107
-0.0179956 -1.64987e-05 -0.00105467
-0.0144376 1.7343e-05 0.00110864
-0.00530943 4.44936e-05 0.00284423
0.00586714 5.44782e-05 0.00348249
0.0147801 4.34448e-05 0.00277718
0.0179908 1.565e-05 0.00100042
0.0142605 -1.81826e-05 -0.00116231
0.0050203 -4.49279e-05 -0.00287195
-0.00555036 -0.00398416 -0.00345883
-0.0145332 -0.00322079 -0.00279614
-0.0179 -0.00120839 -0.00104907
-0.0143609 0.00127023 0.00110275
-0.00528123 0.00325877 0.00282912
0.00583598 0.00399007 0.00346399
0.0147016 0.00318196 0.00276243
0.0178953 0.00114623 0.000995104
0.0141848 -0.00133172 -0.00115614
0.00499363 -0.00329056 -0.0028567
-0.00337935 -0.0063768 -0.00210592
-0.00884856 -0.005155 -0.00170244
-0.0108985 -0.00193407 -0.000638726
-0.00874366 0.00203304 0.000671412
-0.00321549 0.0052158 0.00172251
0.00355325 0.00638626 0.00210906
0.00895111 0.00509285 0.00168191
0.0108956 0.00183459 0.000605871
0.00863643 -0.00213147 -0.000703917
0.00304038 -0.00526668 -0.0017393
9.54417e-05 -0.00630923 5.94767e-05
0.000249907 -0.00510037 4.80813e-05
0.000307802 -0.00191358 1.80393e-05
0.000246944 0.0020115 -1.89625e-05
9.0814e-05 0.00516052 -4.86484e-05
-0.000100353 0.00631858 -5.95654e-05
-0.000252803 0.00503888 -4.75016e-05
-0.00030772 0.00181514 -1.71114e-05
-0.000243916 -0.00210888 1.98805e-05
-8.58684e-05 -0.00521086 4.91226e-05
0.00353341 -0.00380751 0.00220192
0.00925196 -0.00307799 0.00178005
0.0113953 -0.00115481 0.000667845
0.00914227 0.00121391 -0.000702021
0.00336208 0.00311429 -0.00180104
-0.00371523 0.00381315 -0.00220521
-0.00935918 0.00304088 -0.00175859
-0.0113923 0.00109541 -0.000633492
-0.00903016 -0.00127267 0.000736007
-0.00317899 -0.00314466 0.0018186
0.00560816 0.000163181 0.00349485
0.0146845 0.000131915 0.00282526
0.0180864 4.94925e-05 0.00105999
0.0145104 -5.20252e-05 -0.00111423
0.00533623 -0.000133471 -0.00285858
-0.00589675 -0.000163423 -0.00350007
-0.0148547 -0.000130325 -0.0027912
-0.0180816 -4.69467e-05 -0.00100547
-0.0143325 5.45439e-05 0.00116818
-0.00504563 0.000134773 0.00288644
0.00551924 0.00407091 0.00343944
0.0144517 0.00329091 0.00278046
0.0177997 0.0012347 0.00104318
0.0142804 -0.00129788 -0.00109657
0.00525162 -0.00332972 -0.00281326
-0.00580326 -0.00407693 -0.00344457
-0.0146192 -0.00325123 -0.00274694
-0.0177949 -0.00117118 -0.000989524
-0.0141052 0.00136071 0.00114966
-0.00496563 0.00336221 0.00284068
0.00330096 0.00640805 0.00205707
0.00862934 0.00517191 0.00166025
0.0106285 0.00194041 0.000622898
0.00852704 -0.00203971 -0.000654773
0.00313582 -0.0052329 -0.00167983
-0.00346521 -0.0064072 -0.00205679
-0.00872935 -0.00510955 -0.00164023
-0.0106256 -0.0018406 -0.000590857
-0.00842247 0.00213847 0.000686475
-0.00296985 0.0052925 0.00169896
0 0.0157004 0
0 0.0126717 0
0 0.00475422 0
0 -0.00499751 0
0 -0.0128212 0
0 -0.0156983 0
0 -0.0125189 0
0 -0.00450967 0
0 0.00523947 0
0 0.0129672 0
-0.00206747 0.00964309 0.00803809
-0.00540476 0.00778289 0.00648751
-0.00665685 0.00292001 0.002434
-0.00534068 -0.00306943 -0.00255856
-0.00196404 -0.00787466 -0.00656401
0.00217034 -0.00964179 -0.00803702
0.00546739 -0.00768904 -0.00640929
0.00665508 -0.00276981 -0.0023088
0.00527519 0.00321804 0.00268244
0.00186009 0.00796435 0.00663877
-0.0033373 -0.00013463 0.012975
-0.00872432 -0.000108659 0.0104721
-0.0107454 -4.0767e-05 0.00392895
-0.00862089 4.28532e-05 -0.00413001
-0.00317034 0.00010994 -0.0105956
0.00350335 0.000134612 -0.0129733
0.00882543 0.000107349 -0.0103458
0.0107426 3.867e-05 -0.00372685
0.00851518 -4.4928e-05 0.00432997
0.00300255 -0.000111192 0.0107163
-0.00331957 -0.00986041 0.0129061
-0.00867797 -0.00795828 0.0104165
-0.0106884 -0.00298581 0.00390808
-0.0085751 0.00313861 -0.00410807
-0.0031535 0.00805213 -0.0105393
0.00348474 0.00985908 -0.0129044
0.00877854 0.00786232 -0.0102909
0.0106855 0.00283223 -0.00370705
0.00846994 -0.00329057 0.00430697
0.0029866 -0.00814383 0.0106593
-0.00202113 -0.015782 0.0078579
-0.0052836 -0.0127375 0.00634208
-0.00650763 -0.00477891 0.00237944
-0.00522096 0.00502346 -0.00250121
-0.00192001 0.0128877 -0.00641687
0.00212169 0.0157798 -0.00785686
0.00534483 0.012584 -0.00626561
0.0065059 0.00453309 -0.00225705
0.00515694 -0.00526668 0.0026223
0.0018184 -0.0130345 0.00648995
5.7082e-05 -0.0156147 -0.000221928
0.000149223 -0.0126026 -0.000179117
0.000183793 -0.00472827 -6.72018e-05
0.000147454 0.00497023 7.06407e-05
5.42263e-05 0.0127512 0.00018123
-5.99223e-05 0.0156126 0.000221899
-0.000150952 0.0124506 0.000176958
-0.000183744 0.00448505 6.3745e-05
-0.000145646 -0.00521087 -7.40609e-05
-5.13564e-05 -0.0128964 -0.000183294
0.00211327 -0.00942321 -0.00821614
0.00552448 -0.00760543 -0.00663121
0.00680431 -0.00285343 -0.00248792
0.00545898 0.00299945 0.00261523
0.00200754 0.00769511 0.00670941
-0.00221842 0.00942194 0.00821505
-0.0055885 0.00751372 0.00655126
-0.0068025 0.00270665 0.00235994
-0.00539204 -0.00314467 -0.00274185
-0.0019013 -0.00778275 -0.00678582
0.00335414 0.000403857 -0.0130405
0.00876835 0.000325951 -0.0105249
0.0107997 0.000122291 -0.00394878
0.0086644 -0.000128549 0.00415085
0.00318634 -0.000329795 0.010649
-0.00352103 -0.000403803 0.0130388
-0.00886996 -0.000322021 0.010398
-0.0107968 -0.000116001 0.00374566
-0.00855815 0.000134773 -0.00435182
-0.0030177 0.000333551 -0.0107703
0.00330096 0.0100751 -0.0128337
0.00862932 0.00813156 -0.0103581
0.0106284 0.00305082 -0.00388617
0.00852702 -0.00320694 0.00408504
0.00313582 -0.00822745 0.0104802
-0.00346521 -0.0100737 0.012832
-0.00872933 -0.00803351 0.0102332
-0.0106256 -0.00289389 0.00368627
-0.00842246 0.00336221 -0.00428282
-0.00296985 0.00832115 -0.0105996
0.00197424 0.0158593 -0.00767563
0.00516105 0.0128 -0.00619497
0.00635669 0.00480234 -0.00232425
0.00509987 -0.00504809 0.00244319
0.00187548 -0.0129509 0.00626802
-0.00207248 -0.0158572 0.00767461
-0.00522086 -0.0126456 0.00612027
-0.006355 -0.00455531 0.00220469
-0.00503733 0.0052925 -0.00256148
-0.00177622 0.0130984 -0.00633941
