# vtk DataFile Version 3.0
Velocity field
ASCII
DATASET STRUCTURED_POINTS
DIMENSIONS 10 10 10
SPACING 0.631579 0.631579 0.631579
ORIGIN 0 0 0
POINT_DATA 1000
VECTORS velocity float
0 0.0494064 0
0 0.0398757 0
0 0.0149607 0
0 -0.0157263 0
0 -0.0403459 0
0 -0.0493998 0
0 -0.0393949 0
0 -0.0141911 0
0 0.0164877 0
0 0.0408054 0
0 0.030345 0.0387012
0 0.0244914 0.0324603
0 0.00918874 0.0121786
0 -0.00965896 -0.0128018
0 -0.0247802 -0.0328431
0 -0.030341 -0.0402133
0 -0.024196 -0.0320689
0 -0.00871608 -0.0115521
0 0.0101266 0.0134216
0 0.0250624 0.0319638
0 -0.000423655 0.0624712
0 -0.00034193 0.0523972
0 -0.000128286 0.0196585
0 0.000134851 -0.0206645
0 0.000345962 -0.0530151
0 0.000423599 -0.064912
0 0.000337807 -0.0517654
0 0.000121688 -0.0186473
0 -0.00014138 0.021665
0 -0.000349903 0.0515958
0 -0.0310289 0.0621393
0 -0.0250433 0.0521189
0 -0.00939582 0.0195541
0 0.00987664 -0.0205548
0 0.0253386 -0.0527335
0 0.0310248 -0.0645672
0 0.0247413 -0.0514904
0 0.00891251 -0.0185483
0 -0.0103548 0.0215499
0 -0.0256272 0.0513217
0 -0.049663 0.0378336
0 -0.0400828 0.0317327
0 -0.0150384 0.0119056
0 0.0158079 -0.0125148
0 0.0405554 -0.0321069
0 0.0496564 -0.0393119
0 0.0395995 -0.0313501
0 0.0142648 -0.0112932
0 -0.0165733 0.0131207
0 -0.0410173 0.0312473
0 -0.0491367 -0.00106852
0 -0.039658 -0.000896215
0 -0.014879 -0.000336245
0 0.0156404 0.000353451
0 0.0401257 0.000906784
0 0.0491301 0.00111027
0 0.0391798 0.00088541
0 0.0141137 0.000318949
0 -0.0163977 -0.000370565
0 -0.0405827 -0.000882508
0 -0.0296531 -0.0395584
0 -0.0239329 -0.0331793
0 -0.00897922 -0.0124483
0 0.00943872 0.0130853
0 0.0242151 0.0335706
0 0.0296492 0.0411041
0 0.0236443 0.0327793
0 0.00851734 0.011808
0 -0.00989571 -0.0137189
0 -0.0244909 -0.0326719
0 0.00127086 -0.0627864
0 0.00102571 -0.0526617
0 0.000384829 -0.0197578
0 -0.000404522 0.0207688
0 -0.00103781 0.0532826
0 -0.0012707 0.0652396
0 -0.00101334 0.0520267
0 -0.000365034 0.0187414
0 0.000424107 -0.0217744
0 0.00104962 -0.0518562
0 0.0317045 -0.0617909
0 0.0255886 -0.0518267
0 0.0096004 -0.0194445
0 -0.0100917 0.0204395
0 -0.0258903 0.0524378
0 -0.0317003 0.0642052
0 -0.02528 0.0512018
0 -0.00910657 0.0184443
0 0.0105803 -0.0214291
0 0.0261852 -0.051034
0 0.0499063 -0.036956
0 0.0402792 -0.0298271
0 0.0151121 -0.0111906
0 -0.0158854 0.0117633
0 -0.0407542 0.0301788
0 -0.0498997 0.0369511
0 -0.0397935 0.0294674
0 -0.0143347 0.010615
0 0.0166545 -0.0123328
0 0.0412183 -0.0305225
0 0.0398757 0
0 0.0338577 0
0 0.0127028 0
0 -0.0133529 0
0 -0.034257 0
0 -0.0419445 0
0 -0.0334495 0
0 -0.0120494 0
0 0.0139994 0
0 0.0329339 0
0.0056271 0.0244914 0.0428313
0.0147703 0.0198524 0.0347135
0.0181922 0.00744836 0.0130241
0.0145953 -0.0078295 -0.0136905
0.00536742 -0.0200867 -0.0351232
-0.00593122 -0.0245943 -0.0430051
-0.0149416 -0.0196132 -0.0342953
-0.0181874 -0.00706523 -0.0123541
-0.0144163 0.0082084 0.0143531
-0.00506267 0.0202277 0.035375
0.00908322 -0.00034193 0.069138
0.0238421 -0.000277079 0.0560343
0.0293656 -0.000103957 0.0210233
0.0235596 0.000109277 -0.0220992
0.00866406 0.00028035 -0.0566958
-0.00957413 0.000343262 -0.0694186
-0.0241186 0.000273741 -0.0553592
-0.0293578 9.86092e-05 -0.0199419
-0.0232706 -0.000114565 0.0231686
-0.00817213 -0.000282405 0.057102
0.00903497 -0.0250433 0.0687707
0.0237155 -0.0202944 0.0557366
0.0292096 -0.00761422 0.0209117
0.0234344 0.00800386 -0.0219818
0.00861804 0.020534 -0.0563945
-0.00952327 0.0251419 -0.0690498
-0.0239904 0.02005 -0.0550651
-0.0292019 0.00722255 -0.019836
-0.023147 -0.00839119 0.0230455
-0.00812871 -0.0206836 0.0567987
0.00550096 -0.0400828 0.0418712
0.0144392 -0.032482 0.0339353
0.0177843 -0.0121869 0.0127321
0.0142681 0.0128105 -0.0133837
0.0052471 0.0328655 -0.0343359
-0.00579826 0.0402407 -0.0420411
-0.0146066 0.0320907 -0.0335266
-0.0177796 0.01156 -0.0120772
-0.0140931 -0.0134304 0.0140313
-0.00494918 -0.0331049 0.034582
-0.000155362 -0.039658 -0.00118255
-0.000407803 -0.0321379 -0.000958425
-0.000502278 -0.0120577 -0.000359588
-0.000402969 0.0126747 0.000377991
-0.000148192 0.0325172 0.000969737
0.000163759 0.0398142 0.00118735
0.000412531 0.0317506 0.00094688
0.000502145 0.0114375 0.000341092
0.000398026 -0.0132881 -0.000396282
0.000139778 -0.0327541 -0.000976688
-0.00575174 -0.0239329 -0.0437801
-0.0150975 -0.0193946 -0.0354825
-0.0185951 -0.0072766 -0.0133126
-0.0149186 0.00764898 0.0139938
-0.00548631 0.0196235 0.0359012
0.00606261 0.0240272 0.0439578
0.0152725 0.019161 0.035055
0.0185902 0.0069023 0.0126278
0.0147356 -0.00801914 -0.014671
0.00517481 -0.0197665 -0.0361586
-0.00912906 0.00102571 -0.0694869
-0.0239625 0.000831207 -0.0563171
-0.0295138 0.000311859 -0.0211294
-0.0236785 -0.000327817 0.0222107
-0.00870779 -0.000841019 0.0569819
0.00962245 -0.00102975 0.0697689
0.0242403 -0.000821195 0.0556386
0.029506 -0.000295817 0.0200426
0.023388 0.000343682 -0.0232855
0.00821337 0.000847148 -0.0573902
-0.00898432 0.0255886 -0.0683852
-0.0235824 0.020736 -0.0554238
-0.0290457 0.00777988 -0.0207943
-0.0233029 -0.008178 0.0218584
-0.00856967 -0.0209808 0.0560781
0.00946984 -0.025689 0.0686624
0.0238558 -0.0204862 0.0547561
0.029038 -0.0073797 0.0197247
0.0230171 0.00857377 -0.0229162
0.00808314 0.0211339 -0.0564803
-0.00537336 0.0402792 -0.0408999
-0.014047 0.0325092 -0.0330102
-0.0173012 0.0121969 -0.0123849
-0.0138805 -0.0128211 0.0130186
-0.00510455 -0.0328926 0.0333994
0.00564074 -0.0402739 0.0408945
0.0142098 -0.0321172 0.0326122
0.0172966 -0.0115695 0.0117478
0.0137102 0.0134418 -0.0136489
0.00483438 0.0332672 -0.0337798
0 0.0149607 0
0 0.0127028 0
0 0.00476589 0
0 -0.00500978 0
0 -0.0128526 0
0 -0.0157368 0
0 -0.0125497 0
0 -0.00452074 0
0 0.00525233 0
0 0.0123562 0
0.00908322 0.00918874 0.0304368
0.0238421 0.00744835 0.0246655
0.0293656 0.00279453 0.00925419
0.0235596 -0.00293753 -0.00972774
0.00866406 -0.00753628 -0.0249567
-0.00957413 -0.00922747 -0.0305571
-0.0241186 -0.00735863 -0.0243684
-0.0293578 -0.00265078 -0.00877813
-0.0232706 0.00307969 0.0101985
-0.00817213 0.0075891 0.0251382
0.0146621 -0.000128286 0.0491309
0.0384858 -0.000103957 0.0398148
0.0474018 -3.90032e-05 0.014938
0.0380297 4.09991e-05 -0.0157024
0.0139855 0.000105184 -0.0402848
-0.0154545 0.000128788 -0.049325
-0.038932 0.000102704 -0.0393352
-0.0473892 3.6997e-05 -0.0141696
-0.0375633 -4.29832e-05 0.0164624
-0.0131914 -0.000105953 0.0405779
0.0145842 -0.00939582 0.0488699
0.0382814 -0.00761422 0.0396033
0.0471499 -0.00285676 0.0148587
0.0378277 0.00300294 -0.015619
0.0139112 0.0077041 -0.0400708
-0.0153724 0.00943294 -0.049063
-0.0387252 0.00752249 -0.0391262
-0.0471374 0.0027098 -0.0140944
-0.0373637 -0.00314826 0.0163749
-0.0131213 -0.00776013 0.0403623
0.00887961 -0.0150384 0.0297545
0.0233077 -0.0121869 0.0241126
0.0287074 -0.00457235 0.00904674
0.0230314 0.00480633 -0.00950967
0.00846984 0.0123307 -0.0243972
-0.00935952 0.0150978 -0.0298721
-0.0235779 0.01204 -0.0238221
-0.0286998 0.00433715 -0.00858138
-0.022749 -0.00503892 0.00996989
-0.00798894 -0.0124204 0.0245747
-0.000250784 -0.014879 -0.000840347
-0.000658271 -0.0120577 -0.000681003
-0.000810773 -0.0045239 -0.000255504
-0.000650471 0.00475539 0.000268579
-0.000239211 0.0122 0.000689041
0.000264338 0.0149378 0.000843666
0.000665903 0.0119124 0.000672798
0.000810557 0.00429119 0.00024236
0.000642491 -0.00498553 -0.000281576
0.000225629 -0.0122888 -0.000694055
-0.00928442 -0.00897922 -0.031111
-0.0243703 -0.0072766 -0.0252118
-0.0300161 -0.00273009 -0.00945917
-0.0240815 0.0028698 0.00994321
-0.00885596 0.00736249 0.0255094
0.00978619 0.00901469 0.0312339
0.0246528 0.00718896 0.0249082
0.0300082 0.00258966 0.00897259
0.0237861 -0.00300868 -0.0104244
0.00835314 -0.00741606 -0.025695
-0.0147361 0.000384829 -0.0493788
-0.0386801 0.000311859 -0.0400158
-0.047641 0.000117005 -0.0150134
-0.0382216 -0.000122993 0.0157817
-0.014056 -0.00031554 0.0404881
0.0155325 -0.000386349 0.049574
0.0391284 -0.000308101 0.0395337
0.0476283 -0.000110987 0.0142412
0.0377528 0.000128945 -0.0165454
0.013258 0.000317835 -0.0407827
-0.0145024 0.0096004 -0.0485959
-0.0380665 0.00777988 -0.0393811
-0.0468854 0.00291891 -0.0147753
-0.0376154 -0.00306828 0.0155314
-0.0138331 -0.00787171 0.0398459
0.0152862 -0.00963817 0.0487877
0.0385079 -0.00768617 0.0389067
0.0468729 -0.00276877 0.0140153
0.037154 0.00321677 -0.016283
0.0130477 0.0079291 -0.0401361
-0.00867363 0.0151121 -0.0290643
-0.0226745 0.0121969 -0.0234577
-0.0279275 0.00457607 -0.00880094
-0.0224057 -0.00481024 0.00925131
-0.00823973 -0.0123407 0.0237343
0.00910524 -0.0151101 0.0290605
0.0229373 -0.0120498 0.0231749
0.02792 -0.00434068 0.00834823
0.022131 0.00504314 -0.00969923
0.00780362 0.0124813 -0.0240046
0 -0.0157263 0
0 -0.0133529 0
0 -0.00500978 0
0 0.00526614 0
0 0.0135103 0
0 0.0165422 0
0 0.0131919 0
0 0.00475208 0
0 -0.00552111 0
0 -0.0129885 0
0.00903497 -0.00965896 0.00629957
0.0237155 -0.0078295 0.00510507
0.0292096 -0.00293753 0.00191536
0.0234344 0.00308786 -0.00201337
0.00861804 0.00792192 -0.00516533
-0.00952327 0.00969966 -0.00632445
-0.0239904 0.0077352 -0.00504357
-0.0292019 0.00278643 -0.00181683
-0.023147 -0.00323729 0.0021108
-0.00812871 -0.00797746 0.00520291
0.0145842 0.000134851 0.0101687
0.0382814 0.000109277 0.00824056
0.0471499 4.09991e-05 0.00309176
0.0378277 -4.30972e-05 -0.00324997
0.0139111 -0.000110566 -0.00833782
-0.0153724 -0.000135378 -0.0102089
-0.0387252 -0.00010796 -0.0081413
-0.0471374 -3.88902e-05 -0.00293272
-0.0373637 4.51828e-05 0.00340724
-0.0131213 0.000111375 0.00839849
0.0145067 0.00987664 0.0101147
0.038078 0.00800386 0.00819679
0.0468995 0.00300294 0.00307533
0.0376268 -0.00315661 -0.0032327
0.0138372 -0.00809834 -0.00829353
-0.0152908 -0.00991564 -0.0101547
-0.0385195 -0.00790742 -0.00809805
-0.0468871 -0.00284848 -0.00291714
-0.0371652 0.00330938 0.00338914
-0.0130516 0.00815724 0.00835388
0.00883244 0.0158079 0.00615836
0.0231839 0.0128105 0.00499063
0.0285549 0.00480633 0.00187242
0.0229092 -0.00505229 -0.00196824
0.00842484 -0.0129617 -0.00504954
-0.0093098 -0.0158704 -0.00618269
-0.0234526 -0.0126561 -0.0049305
-0.0285473 -0.0045591 -0.00177611
-0.0226281 0.00529678 0.00206349
-0.0079465 0.013056 0.00508628
-0.000249452 0.0156404 -0.000173929
-0.000654775 0.0126747 -0.000140949
-0.000806465 0.00475539 -5.2882e-05
-0.000647015 -0.00499875 5.55884e-05
-0.00023794 -0.0128243 0.000142613
0.000262934 -0.0157022 0.000174616
0.000662365 -0.012522 0.000139251
0.000806251 -0.00451079 5.01619e-05
0.000639079 0.00524065 -5.82784e-05
0.00022443 0.0129176 -0.00014365
-0.0092351 0.00943872 -0.00643911
-0.0242409 0.00764898 -0.00521815
-0.0298567 0.0028698 -0.00195778
-0.0239535 -0.00301666 0.00205797
-0.00880891 -0.00773926 0.00527973
0.00973423 -0.00947601 0.00646454
0.0245219 -0.00755684 0.00515529
0.0298487 -0.00272218 0.00185707
0.0236597 0.00316264 -0.00215756
0.00830877 0.00779556 -0.00531816
-0.0146578 -0.000404522 -0.01022
-0.0384746 -0.000327817 -0.00828214
-0.0473879 -0.000122993 -0.00310736
-0.0380185 0.000129287 0.00326637
-0.0139814 0.000331686 0.0083799
0.01545 0.000406119 0.0102604
0.0389206 0.000323868 0.00818239
0.0473753 0.000116666 0.00294751
0.0375523 -0.000135544 -0.00342444
0.0131875 -0.0003341 -0.00844088
-0.0144254 -0.0100917 -0.010058
-0.0378643 -0.008178 -0.00815079
-0.0466363 -0.00306828 -0.00305808
-0.0374156 0.0032253 0.00321456
-0.0137596 0.00827453 0.00824699
0.015205 0.0101314 0.0100977
0.0383033 0.00807949 0.00805261
0.0466239 0.00291045 0.00290077
0.0369567 -0.00338138 -0.00337013
0.0129784 -0.00833485 -0.00830704
-0.00862756 -0.0158854 -0.00601551
-0.0225541 -0.0128211 -0.0048551
-0.0277791 -0.00481024 -0.00182155
-0.0222867 0.0050564 0.00191476
-0.00819596 0.0129722 0.00491235
0.00905687 0.0158833 0.00601471
0.0228155 0.0126665 0.00479655
0.0277717 0.00456281 0.00172785
0.0220134 -0.00530121 -0.00200747
0.00776217 -0.01312 -0.00496829
0 -0.0403459 0
0 -0.034257 0
0 -0.0128526 0
0 0.0135103 0
0 0.0346609 0
0 0.0424391 0
0 0.0338439 0
0 0.0121915 0
0 -0.0141645 0
0 -0.0333222 0
0.00550096 -0.0247802 -0.0202681
0.0144392 -0.0200867 -0.0164249
0.0177843 -0.00753628 -0.00616242
0.0142681 0.00792192 0.00647777
0.0052471 0.0203238 0.0166188
-0.00579826 0.0248846 0.0203482
-0.0146066 0.0198447 0.0162271
-0.0177796 0.00714862 0.00584543
-0.0140931 -0.00830529 -0.00679125
-0.00494918 -0.0204663 -0.0167397
0.00887961 0.000345962 -0.0327166
0.0233077 0.00028035 -0.026513
0.0287074 0.000105184 -0.00994732
0.0230314 -0.000110566 0.0104564
0.00846984 -0.000283659 0.026826
-0.00935952 -0.000347314 0.0328459
-0.0235779 -0.000276972 0.0261936
-0.0286998 -9.97731e-05 0.00943566
-0.022749 0.000115917 -0.0109624
-0.00798894 0.000285735 -0.0270211
0.00883244 0.0253386 -0.0325428
0.0231839 0.020534 -0.0263722
0.0285549 0.0077041 -0.00989448
0.0229092 -0.00809834 0.0104008
0.00842484 -0.0207764 0.0266834
-0.0093098 -0.0254387 0.0326714
-0.0234526 -0.0202866 0.0260544
-0.0285474 -0.00730779 0.00938553
-0.0226281 0.00849023 -0.0109042
-0.0079465 0.0209275 -0.0268776
0.00537765 0.0405554 -0.0198138
0.0141156 0.0328655 -0.0160567
0.0173857 0.0123307 -0.00602428
0.0139483 -0.0129617 0.00633256
0.00512949 -0.0332533 0.0162463
-0.0056683 -0.0407157 0.019892
-0.0142792 -0.0324696 0.0158633
-0.0173811 -0.0116964 0.0057144
-0.0137772 0.0135889 -0.00663902
-0.00483824 0.0334953 -0.0163645
-0.000151879 0.0401257 0.000559593
-0.000398661 0.0325172 0.000453484
-0.000491018 0.0122 0.000170142
-0.000393936 -0.0128243 -0.000178849
-0.00014487 -0.032901 -0.000458837
0.000160088 -0.0402842 -0.000561803
0.000403282 -0.0321254 -0.000448022
0.000490888 -0.0115725 -0.00016139
0.000389104 0.013445 0.000187503
0.000136645 0.0331403 0.000462176
-0.00562281 0.0242151 0.0207171
-0.0147591 0.0196235 0.0167887
-0.0181783 0.00736249 0.00629891
-0.0145841 -0.00773926 -0.00662127
-0.00536333 -0.0198551 -0.0169869
0.0059267 -0.0243108 -0.0207989
0.0149302 -0.0193871 -0.0165865
0.0181735 -0.00698378 -0.00597491
0.0144053 0.0081138 0.00694168
0.00505881 0.0199996 0.0171105
-0.00892442 -0.00103781 0.0328817
-0.0234253 -0.000841019 0.0266468
-0.0288523 -0.00031554 0.00999753
-0.0231477 0.000331686 -0.0105091
-0.00851258 0.000850945 -0.0269613
0.00940675 0.0010419 -0.0330116
0.0236969 0.000830888 -0.0263258
0.0288446 0.000299308 -0.00948326
0.0228638 -0.000347738 0.0110177
0.00802925 -0.000857137 0.0271575
-0.00878292 -0.0258903 0.0323604
-0.0230538 -0.0209808 0.0262242
-0.0283947 -0.00787171 0.00983895
-0.0227806 0.00827453 -0.0103425
-0.00837757 0.0212284 -0.0265337
0.00925756 0.0259922 -0.0324881
0.023321 0.020728 -0.0259082
0.0283871 0.00746681 -0.00933286
0.0225011 -0.00867497 0.010843
0.00790195 -0.0213832 0.0267269
-0.00525291 -0.0407542 0.0193542
-0.0137321 -0.0328926 0.0156207
-0.0169134 -0.0123407 0.00586061
-0.0135693 0.0129722 -0.00616052
-0.00499012 0.0332804 -0.0158049
0.00551429 0.0407488 -0.0193516
0.0138912 0.0324959 -0.0154323
0.0169089 0.0117059 -0.00555915
0.0134029 -0.0136003 0.00645878
0.00472601 -0.0336595 0.0159849
0 -0.0493998 0
0 -0.0419445 0
0 -0.0157368 0
0 0.0165422 0
0 0.0424391 0
0 0.0519627 0
0 0.0414387 0
0 0.0149274 0
0 -0.0173431 0
0 -0.0408 0
-0.000155362 -0.030341 -0.0390162
-0.000407803 -0.0245943 -0.031618
-0.000502278 -0.00922747 -0.0118627
-0.000402969 0.00969966 0.0124698
-0.000148192 0.0248846 0.0319912
0.000163759 0.0304689 0.0391702
0.000412531 0.024298 0.0312371
0.000502145 0.00875281 0.0112525
0.000398026 -0.0101691 -0.0130732
0.000139778 -0.025059 -0.032224
-0.000250784 0.000423599 -0.0629796
-0.000658271 0.000343262 -0.0510376
-0.000810773 0.000128788 -0.0191486
-0.000650471 -0.000135378 0.0201286
-0.000239211 -0.000347314 0.05164
0.000264338 -0.000425253 0.0632283
0.000665903 -0.000339127 0.0504227
0.000810557 -0.000122163 0.0181637
0.000642491 0.00014193 -0.0211026
0.000225629 0.000349856 -0.0520158
-0.000249452 0.0310248 -0.0626451
-0.000654775 0.0251419 -0.0507664
-0.000806465 0.00943294 -0.0190469
-0.000647015 -0.00991564 0.0200216
-0.00023794 -0.0254387 0.0513657
0.000262934 -0.0311472 0.0628924
0.000662365 -0.0248391 0.0501548
0.000806251 -0.00894771 0.0180672
0.000639079 0.0103955 -0.0209905
0.00022443 0.0256238 -0.0517394
-0.000151879 0.0496564 -0.0381416
-0.00039866 0.0402407 -0.0309093
-0.000491018 0.0150978 -0.0115968
-0.000393936 -0.0158704 0.0121902
-0.00014487 -0.0407157 0.0312741
0.000160088 -0.0498526 0.0382922
0.000403282 -0.0397559 0.030537
0.000490888 -0.0143212 0.0110002
0.000389104 0.0166384 -0.0127801
0.000136645 0.0410118 -0.0315017
4.28947e-06 0.0491301 0.00107722
1.12592e-05 0.0398142 0.000872961
1.38677e-05 0.0149378 0.000327524
1.11258e-05 -0.0157022 -0.000344284
4.09152e-06 -0.0402842 -0.000883265
-4.5213e-06 -0.0493242 -0.00108147
-1.13898e-05 -0.0393345 -0.000862443
-1.3864e-05 -0.0141694 -0.000310676
-1.09893e-05 0.0164621 0.000360945
-3.85921e-06 0.0405772 0.000889691
0.000158803 0.0296492 0.0398804
0.000416836 0.0240272 0.0323184
0.000513405 0.00901469 0.0121255
0.000411896 -0.00947601 -0.0127459
0.000151475 -0.0243108 -0.0326999
-0.000167386 -0.0297663 -0.0400379
-0.000421667 -0.0237377 -0.0319291
-0.000513268 -0.00855098 -0.0115017
-0.000406843 0.00993458 0.0133628
-0.000142874 0.0244876 0.0329378
0.000252049 -0.0012707 0.0632975
0.000661593 -0.00102975 0.0512951
0.000814865 -0.000386349 0.0192453
0.000653754 0.000406119 -0.0202302
0.000240418 0.0010419 -0.0519006
-0.000265672 0.00127572 -0.0635474
-0.000669263 0.00101735 -0.0506772
-0.000814648 0.000366475 -0.0182554
-0.000645734 -0.000425773 0.0212091
-0.000226768 -0.00104948 0.0522783
0.000248053 -0.0317003 0.0622939
0.0006511 -0.025689 0.0504816
0.00080194 -0.00963817 0.0189401
0.000643384 0.0101314 -0.0199093
0.000236605 0.0259922 -0.0510774
-0.000261458 0.031825 -0.0625395
-0.000658648 0.0253795 -0.0498735
-0.000801727 0.00914241 -0.0179658
-0.000635493 -0.0106217 0.0208728
-0.000223172 -0.0261817 0.0514494
0.000148356 -0.0498997 0.0372568
0.000387831 -0.0402739 0.0300699
0.000477678 -0.0151101 0.0112817
0.000383234 0.0158833 -0.011859
0.000140934 0.0407488 -0.0304244
-0.000155738 0.0498931 -0.0372519
-0.000392326 0.0397882 -0.0297073
-0.000477551 0.0143328 -0.0107014
-0.000378534 -0.0166523 0.0124332
-0.000133475 -0.0412129 0.0307709
0 -0.0393949 0
0 -0.0334495 0
0 -0.0125497 0
0 0.0131919 0
0 0.0338439 0
0 0.0414387 0
0 0.0330461 0
0 0.0119041 0
0 -0.0138306 0
0 -0.0325368 0
-0.00575174 -0.024196 -0.0427115
-0.0150975 -0.0196132 -0.0346127
-0.0185951 -0.00735863 -0.0129862
-0.0149186 0.0077352 0.0136508
-0.00548631 0.0198447 0.0350212
0.00606261 0.024298 0.0428802
0.0152725 0.0193769 0.0341957
0.0185902 0.00698012 0.0123183
0.0147356 -0.00810952 -0.0143114
0.00517481 -0.0199838 -0.0352761
-0.00928442 0.000337807 -0.0689447
-0.0243703 0.000273741 -0.0558716
-0.0300161 0.000102704 -0.0209623
-0.0240815 -0.00010796 0.022035
-0.00885596 -0.000276972 0.0565311
0.00978619 -0.000339127 0.069217
0.0246528 -0.000270444 0.0551984
0.0300082 -9.74214e-05 0.019884
0.0237861 0.000113185 -0.0231013
0.00835314 0.000279 -0.0569424
-0.0092351 0.0247413 -0.0685784
-0.0242409 0.02005 -0.0555747
-0.0298567 0.00752249 -0.020851
-0.0239535 -0.00790742 0.0219179
-0.00880891 -0.0202866 0.0562307
0.00973423 -0.0248391 0.0688493
0.0245219 -0.0198084 0.0549052
0.0298487 -0.00713555 0.0197784
0.0236597 0.0082901 -0.0229786
0.00830877 0.0204342 -0.0566399
-0.00562281 0.0395995 -0.0417541
-0.0147591 0.0320907 -0.0338368
-0.0181783 0.01204 -0.0126951
-0.0145841 -0.0126561 0.0133448
-0.00536333 -0.0324696 0.0342362
0.0059267 -0.0397559 0.0419191
0.0149302 -0.0317041 0.0334292
0.0181735 -0.0114207 0.0120421
0.0144053 0.0132686 -0.0139906
0.00505881 0.0327057 -0.0344853
0.000158803 0.0391798 0.00117925
0.000416836 0.0317506 0.000955642
0.000513405 0.0119124 0.000358545
0.000411896 -0.012522 -0.000376893
0.000151475 -0.0321254 -0.000966921
-0.000167386 -0.0393345 -0.00118391
-0.000421667 -0.0313681 -0.00094413
-0.000513268 -0.0112997 -0.000340101
-0.000406843 0.013128 0.000395131
-0.000142874 0.0323591 0.000973957
0.00587915 0.0236443 0.0436576
0.0154319 0.019161 0.0353794
0.019007 0.00718896 0.0132739
0.0152491 -0.00755684 -0.0139532
0.00560785 -0.0193871 -0.035797
-0.0061969 -0.0237377 -0.04383
-0.0156108 -0.0189302 -0.0349532
-0.019002 -0.00681915 -0.0125911
-0.015062 0.00792253 0.0146284
-0.00528944 0.0195282 0.0360575
0.00933127 -0.00101334 0.0692926
0.0244933 -0.000821195 0.0561536
0.0301676 -0.000308101 0.021068
0.024203 0.000323868 -0.0221462
0.00890065 0.000830888 -0.0568164
-0.00983558 0.00101735 -0.0695663
-0.0247772 0.000811302 -0.055477
-0.0301596 0.000292253 -0.0199844
-0.0239061 -0.000339541 0.0232179
-0.0083953 -0.000836933 0.0572297
0.00918332 -0.02528 0.0681939
0.0241048 -0.0204862 0.0552629
0.0296891 -0.00768617 0.0207339
0.0238191 0.00807949 -0.0217949
0.00875948 0.020728 -0.0559152
-0.0096796 0.0253795 -0.068463
-0.0243843 0.0202394 -0.0545971
-0.0296812 0.00729079 -0.0196674
-0.0235269 -0.00847049 0.0228497
-0.00826219 -0.0208791 0.0563223
0.00549238 -0.0397935 0.0407856
0.0143581 -0.0321172 0.0329179
0.0176844 -0.0120498 0.0123502
0.0141879 0.0126665 -0.0129822
0.00521762 0.0324959 -0.0333061
-0.00576568 0.0397882 -0.0407801
-0.0145245 0.03173 -0.032521
-0.0176797 0.01143 -0.0117149
-0.0140139 -0.0132797 0.0136108
-0.00494147 -0.032866 0.0336854
0 -0.0141911 0
0 -0.0120494 0
0 -0.00452074 0
0 0.00475208 0
0 0.0121915 0
0 0.0149274 0
0 0.0119041 0
0 0.0042882 0
0 -0.00498216 0
0 -0.0117206 0
-0.00912906 -0.00871608 -0.0299285
-0.0239625 -0.00706523 -0.0242535
-0.0295138 -0.00265078 -0.00909962
-0.0236785 0.00278643 0.00956526
-0.00870779 0.00714862 0.0245398
0.00962245 0.00875281 0.0300467
0.0242403 0.00698012 0.0239613
0.029506 0.00251443 0.00863154
0.023388 -0.00292127 -0.0100282
0.00821337 -0.00719873 -0.0247183
-0.0147361 0.000121688 -0.0483103
-0.0386801 9.86092e-05 -0.0391498
-0.047641 3.69969e-05 -0.0146885
-0.0382216 -3.88901e-05 0.0154402
-0.014056 -9.97731e-05 0.0396119
0.0155325 -0.000122163 0.0485012
0.0391284 -9.74215e-05 0.0386782
0.0476283 -3.50938e-05 0.0139329
0.0377528 4.07723e-05 -0.0161874
0.013258 0.000100503 -0.0399002
-0.0146578 0.00891251 -0.0480537
-0.0384746 0.00722255 -0.0389418
-0.0473879 0.0027098 -0.0146105
-0.0380185 -0.00284848 0.0153582
-0.0139814 -0.00730779 0.0394015
0.01545 -0.00894771 0.0482435
0.0389206 -0.00713555 0.0384727
0.0473753 -0.00257042 0.0138589
0.0375523 0.00298632 -0.0161014
0.0131875 0.00736096 -0.0396882
-0.00892442 0.0142648 -0.0292576
-0.0234253 0.01156 -0.0237098
-0.0288523 0.00433715 -0.00889561
-0.0231477 -0.0045591 0.00935085
-0.00851258 -0.0116964 0.0239897
0.00940675 -0.0143212 0.0293731
0.0236969 -0.0114207 0.0234242
0.0288446 -0.00411406 0.00843805
0.0228638 0.00477972 -0.00980336
0.00802925 0.0117815 -0.0241642
0.000252049 0.0141137 0.000826312
0.000661593 0.0114375 0.000669628
0.000814865 0.00429119 0.000251236
0.000653754 -0.00451079 -0.000264093
0.000240418 -0.0115725 -0.000677532
-0.000265672 -0.0141694 -0.000829577
-0.000669263 -0.0112997 -0.000661561
-0.000814648 -0.00407046 -0.000238313
-0.000645734 0.00472908 0.000276873
-0.000226768 0.0116567 0.000682462
0.00933127 0.00851734 0.0305914
0.0244933 0.0069023 0.0247907
0.0301676 0.00258966 0.00930116
0.024203 -0.00272218 -0.00977712
0.00890065 -0.00698378 -0.0250833
-0.00983558 -0.00855098 -0.0307123
-0.0247772 -0.00681915 -0.0244921
-0.0301596 -0.00245645 -0.00882272
-0.0239061 0.00285392 0.0102503
-0.0083953 0.00703459 0.0252659
0.0148104 -0.000365034 0.0485541
0.0388752 -0.000295817 0.0393474
0.0478814 -0.000110987 0.0147626
0.0384145 0.000116666 -0.0155181
0.014127 0.000299308 -0.0398118
-0.0156109 0.000366475 -0.0487459
-0.0393259 0.000292253 -0.0388734
-0.0478687 0.000105278 -0.0140033
-0.0379433 -0.000122312 0.0162691
-0.0133249 -0.000301486 0.0401015
0.0145756 -0.00910657 0.0477843
0.0382587 -0.0073797 0.0387233
0.047122 -0.00276877 0.0145285
0.0378052 0.00291045 -0.015272
0.0139029 0.00746681 -0.0391803
-0.0153633 0.00914241 -0.0479728
-0.0387022 0.00729079 -0.0382568
-0.0471095 0.00262634 -0.0137812
-0.0373415 -0.0030513 0.016011
-0.0131136 -0.00752123 0.0394657
0.0087174 -0.0143347 0.0285789
0.022789 -0.0115695 0.0230659
0.0280684 -0.00434068 0.00865395
0.0225188 0.00456281 -0.00909679
0.00828131 0.0117059 -0.0233379
-0.00915119 0.0143328 -0.0285751
-0.0230531 0.01143 -0.0227878
-0.0280609 0.0041174 -0.0082088
-0.0222427 -0.00478372 0.00953723
-0.007843 -0.0118393 0.0236037
0 0.0164877 0
0 0.0139994 0
0 0.00525233 0
0 -0.00552111 0
0 -0.0141645 0
0 -0.0173431 0
0 -0.0138306 0
0 -0.00498215 0
0 0.00578842 0
0 0.0136174 0
-0.00898432 0.0101266 -0.00559878
-0.0235824 0.00820839 -0.00453731
-0.0290457 0.00307968 -0.00170234
-0.0233029 -0.00323728 0.00178945
-0.00856967 -0.00830529 0.00459087
0.00946984 -0.010169 0.00562109
0.0238558 -0.00810951 0.00448265
0.029038 -0.00292127 0.00161477
0.0230171 0.00339394 -0.00187605
0.00808314 0.0083637 -0.00462411
-0.0145024 -0.00014138 -0.00903751
-0.0380665 -0.000114565 -0.00732408
-0.0468854 -4.29832e-05 -0.0027479
-0.0376154 4.51828e-05 0.00288852
-0.0138331 0.000115917 0.00741053
0.0152862 0.000141929 0.00907352
0.0385079 0.000113185 0.00723586
0.0468729 4.07722e-05 0.00260656
0.037154 -4.73693e-05 -0.00302831
0.0130477 -0.000116768 -0.0074642
-0.0144254 -0.0103548 -0.0089895
-0.0378643 -0.00839118 -0.00728517
-0.0466363 -0.00314826 -0.00273331
-0.0374156 0.00330937 0.00287318
-0.0137596 0.00849022 0.00737116
0.015205 0.0103955 0.00902532
0.0383033 0.00829009 0.00719743
0.0466239 0.00298632 0.00259271
0.0369567 -0.00346952 -0.00301222
0.0129784 -0.00855219 -0.00742455
-0.00878292 -0.0165733 -0.00547327
-0.0230538 -0.0134304 -0.00443559
-0.0283947 -0.00503892 -0.00166418
-0.0227806 0.00529677 0.00174934
-0.00837757 0.0135889 0.00448795
0.00925756 0.0166384 0.00549508
0.023321 0.0132686 0.00438216
0.0283871 0.00477972 0.00157857
0.0225011 -0.0055531 -0.001834
0.00790195 -0.0136881 -0.00452045
0.000248053 -0.0163977 0.00015458
0.0006511 -0.0132881 0.000125273
0.000801939 -0.00498552 4.70009e-05
0.000643384 0.00524065 -4.9406e-05
0.000236605 0.0134449 -0.000126752
-0.000261458 0.0164621 -0.000155196
-0.000658648 0.013128 -0.000123764
-0.000801727 0.00472907 -4.45832e-05
-0.000635493 -0.00549426 5.1797e-05
-0.000223172 -0.0135431 0.00012767
0.00918332 -0.00989571 0.00572279
0.0241048 -0.00801913 0.00463781
0.0296891 -0.00300867 0.00174005
0.0238191 0.00316264 -0.00182909
0.00875948 0.00811379 -0.00469255
-0.0096796 0.00993457 -0.00574559
-0.0243843 0.00792252 -0.00458195
-0.0296812 0.00285391 -0.00165054
-0.0235269 -0.00331569 0.00191761
-0.00826219 -0.008173 0.00472654
0.0145756 0.000424107 0.00908311
0.0382587 0.000343681 0.00736104
0.047122 0.000128945 0.00276177
0.0378052 -0.000135543 -0.0029031
0.0139029 -0.000347738 -0.00744793
-0.0153633 -0.000425772 -0.00911931
-0.0387022 -0.000339541 -0.00727236
-0.0471095 -0.000122312 -0.00261971
-0.0373415 0.000142103 0.00304359
-0.0131136 0.000350276 0.00750187
0.0143445 0.0105803 0.0089391
0.0376518 0.00857376 0.00724429
0.0463746 0.00321677 0.00271797
0.0372056 -0.00338138 -0.00285705
0.0136824 -0.00867496 -0.0073298
-0.0151196 -0.0106217 -0.00897467
-0.0380883 -0.00847048 -0.00715703
-0.0463623 -0.0030513 -0.00257816
-0.0367493 0.00354501 0.00299532
-0.0129057 0.0087384 0.00738293
0.00857919 0.0166545 0.00534631
0.0224277 0.0134418 0.00431499
0.0276234 0.00504314 0.00161891
0.0221618 -0.00530121 -0.00170176
0.00815001 -0.0136003 -0.00436587
-0.00900609 -0.0166523 -0.0053456
-0.0226876 -0.0132797 -0.00426296
-0.027616 -0.00478372 -0.00153564
-0.02189 0.00555787 0.00178415
-0.00771865 0.0137552 0.00441559
0 0.0408054 0
0 0.0329339 0
0 0.0123562 0
0 -0.0129885 0
0 -0.0333222 0
0 -0.0408 0
0 -0.0325368 0
0 -0.0117206 0
0 0.0136174 0
0 0.0337017 0
-0.00537336 0.0250624 0.020891
-0.014047 0.0202277 0.016861
-0.0173012 0.00758911 0.00632598
-0.0138805 -0.00797746 -0.0066497
-0.00510455 -0.0204663 -0.0170599
0.00564073 -0.025059 -0.0208882
0.0142098 -0.0199838 -0.0166577
0.0172966 -0.00719873 -0.00600057
0.0137102 0.0083637 0.00697165
0.00483438 0.0206994 0.0172542
-0.00867363 -0.000349903 0.0337221
-0.0226745 -0.000282405 0.027217
-0.0279274 -0.000105954 0.0102113
-0.0224057 0.000111375 -0.0107339
-0.00823972 0.000285735 -0.0275379
0.00910523 0.000349856 -0.0337176
0.0229373 0.000279 -0.0268888
0.02792 0.000100503 -0.00968608
0.022131 -0.000116768 0.0112536
0.00780362 -0.000288989 0.0278515
-0.00862756 -0.0256272 0.0335429
-0.0225541 -0.0206836 0.0270724
-0.0277791 -0.00776013 0.0101571
-0.0222867 0.00815724 -0.0106769
-0.00819595 0.0209275 -0.0273916
0.00905686 0.0256238 -0.0335385
0.0228155 0.0204342 -0.026746
0.0277717 0.00736096 -0.00963463
0.0220134 -0.00855219 0.0111938
0.00776217 -0.0211658 0.0277036
-0.00525291 -0.0410173 0.0204227
-0.0137321 -0.0331049 0.0164831
-0.0169133 -0.0124204 0.00618417
-0.0135693 0.013056 -0.00650063
-0.00499012 0.0334953 -0.0166774
0.00551429 0.0410118 -0.02042
0.0138912 0.0327057 -0.0162843
0.0169089 0.0117815 -0.00586606
0.0134029 -0.0136881 0.00681537
0.00472601 -0.0338768 0.0168674
0.000148356 -0.0405827 -0.000576791
0.000387831 -0.0327541 -0.000465526
0.000477678 -0.0122888 -0.000174657
0.000383233 0.0129176 0.000183595
0.000140934 0.0331403 0.000471016
-0.000155738 0.0405772 0.000576715
-0.000392326 0.0323592 0.000459913
-0.000477551 0.0116567 0.000165673
-0.000378534 -0.0135431 -0.000192484
-0.000133475 -0.0335178 -0.00047638
0.00549238 -0.0244909 -0.0213537
0.0143581 -0.0197665 -0.0172345
0.0176844 -0.00741606 -0.0064661
0.0141879 0.00779557 0.00679699
0.00521762 0.0199996 0.0174378
-0.00576568 0.0244877 0.0213509
-0.0145245 0.0195282 0.0170267
-0.0176797 0.00703459 0.00613349
-0.0140139 -0.008173 -0.00712608
-0.00494147 -0.0202274 -0.0176363
0.0087174 0.00104962 -0.0338923
0.022789 0.000847148 -0.0273543
0.0280684 0.000317836 -0.0102629
0.0225188 -0.0003341 0.0107881
0.0082813 -0.000857137 0.0276769
-0.00915118 -0.00104948 0.0338878
-0.0230531 -0.000836933 0.0270245
-0.0280609 -0.000301486 0.00973496
-0.0222427 0.000350276 -0.0113104
-0.007843 0.000866899 -0.0279921
0.00857919 0.0261852 -0.0333549
0.0224276 0.021134 -0.0269206
0.0276233 0.0079291 -0.0101002
0.0221618 -0.00833486 0.010617
0.00815 -0.0213832 0.0272381
-0.00900608 -0.0261817 0.0333505
-0.0226876 -0.0208791 0.026596
-0.027616 -0.00752124 0.00958061
-0.02189 0.0087384 -0.011131
-0.00771865 0.0216267 -0.0275483
0.00513106 0.0412183 -0.019949
0.0134136 0.0332672 -0.0161007
0.016521 0.0124813 -0.00604072
0.0132546 -0.01312 0.00634984
0.00487437 -0.0336595 0.0162906
-0.00538638 -0.0412129 0.0199463
-0.013569 -0.032866 0.0159066
-0.0165166 -0.0118393 0.00572999
-0.013092 0.0137552 -0.00665728
-0.00461639 0.0340428 -0.0164761
