# vtk DataFile Version 3.0
Velocity field
ASCII
DATASET STRUCTURED_POINTS
DIMENSIONS 8 8 8
SPACING 0.8 0.8 0.8
ORIGIN 0 0 0
POINT_DATA 512
VECTORS velocity float
0 0.415081 0
0 0.28919 0
0 -0.0121202 0
0 -0.306078 0
0 -0.414373 0
0 -0.271315 0
0 0.0363193 0
0 0.321923 0
0 0.163299 0.423652
0 0.113771 0.312941
0 -0.00476824 -0.0131156
0 -0.120415 -0.331217
0 -0.16302 -0.448406
0 -0.106739 -0.293598
0 0.0142885 0.0393022
0 0.126649 0.32857
0 -0.187539 0.590323
0 -0.13066 0.436056
0 0.00547605 -0.0182755
0 0.13829 -0.461522
0 0.187219 -0.624815
0 0.122584 -0.409104
0 -0.0164095 0.0547642
0 -0.145449 0.457834
0 -0.424618 0.398912
0 -0.295834 0.294666
0 0.0123986 -0.0123497
0 0.313111 -0.311874
0 0.423894 -0.422219
0 0.277549 -0.276452
0 -0.0371537 0.037007
0 -0.329319 0.309382
0 -0.404129 -0.0344743
0 -0.281559 -0.0254653
0 0.0118004 0.00106727
0 0.298002 0.0269524
0 0.40344 0.0364886
0 0.264156 0.0238913
0 -0.035361 -0.00319818
0 -0.313429 -0.0267371
0 -0.138501 -0.446948
0 -0.0964947 -0.330149
0 0.00404417 0.0138368
0 0.10213 0.34943
0 0.138265 0.473063
0 0.0905304 0.309743
0 -0.0121187 -0.0414633
0 -0.107417 -0.346638
0 0.21114 -0.58831
0 0.147103 -0.434569
0 -0.00616519 0.0182131
0 -0.155693 0.459948
0 -0.21078 0.622684
0 -0.13801 0.407709
0 0.0184746 -0.0545774
0 0.163753 -0.456273
0 0.432706 -0.37281
0 0.301469 -0.259739
0 -0.0126348 0.0108859
0 -0.319075 0.274908
0 -0.431968 0.372175
0 -0.282836 0.243685
0 0.0378614 -0.0326206
0 0.335592 -0.289139
0 0.28919 0
0 0.218748 0
0 -0.00916792 0
0 -0.231523 0
0 -0.313439 0
0 -0.205228 0
0 0.0274725 0
0 0.224286 0
0.0903089 0.113771 0.418453
0.224042 0.0822894 0.302239
0.218614 -0.00345147 -0.0126768
0.0805374 -0.0871501 -0.320089
-0.106391 -0.117986 -0.433345
-0.228785 -0.0772522 -0.283738
-0.212371 0.0103013 0.0378377
-0.0647985 0.088237 0.324538
0.125838 -0.13066 0.583078
0.31218 -0.0942565 0.421148
0.304615 0.00395318 -0.017664
0.112223 0.0998202 -0.446021
-0.148245 0.135137 -0.603823
-0.318789 0.0884826 -0.395364
-0.295919 -0.0118014 0.052724
-0.0902911 -0.101335 0.452216
0.085035 -0.295834 0.394016
0.210957 -0.213415 0.284592
0.205847 0.00895102 -0.0119364
0.0758337 0.226015 -0.301396
-0.100178 0.305979 -0.408038
-0.215423 0.200347 -0.267166
-0.19997 -0.026721 0.0356283
-0.0610143 -0.229439 0.305585
-0.00734881 -0.281559 -0.0340512
-0.018231 -0.20312 -0.0245947
-0.0177895 0.00851902 0.00103155
-0.00655369 0.215108 0.0260472
0.00865744 0.291218 0.035263
0.0186169 0.190679 0.0230887
0.0172815 -0.0254316 -0.00307902
0.00527292 -0.218368 -0.026409
-0.0952749 -0.0964947 -0.441463
-0.236359 -0.0696129 -0.318859
-0.230635 0.00291964 0.0133738
-0.0849649 0.0737219 0.337686
0.112241 0.0998064 0.457174
0.241361 0.0653489 0.299337
0.22405 -0.00871587 -0.0399184
0.0683617 -0.074838 -0.342384
-0.125409 0.147103 -0.58109
-0.311032 0.106033 -0.419604
-0.303495 -0.00444702 0.0175988
-0.11181 -0.112289 0.444379
0.1477 -0.152017 0.6016
0.317614 -0.099537 0.393909
0.294831 0.0132773 -0.0525321
0.0899831 0.114088 -0.450673
-0.079471 0.301469 -0.368235
-0.190207 0.210036 -0.256552
-0.185566 -0.00880277 0.0107523
-0.0683631 -0.222302 0.271534
0.0903079 -0.300955 0.367607
0.194199 -0.197053 0.240694
0.180292 0.0263783 -0.0322203
0.0570221 0.233809 -0.28559
0 -0.0121202 0
0 -0.00916792 0
0 0.000384235 0
0 0.00970332 0
0 0.0131365 0
0 0.00860126 0
0 -0.0011514 0
0 -0.0094 0
0.125838 -0.00476824 0.159426
0.31218 -0.00345147 0.115083
0.304615 0.00014477 -0.00482675
0.112223 0.00365545 -0.121876
-0.148245 0.00494872 -0.164998
-0.318789 0.00324028 -0.108036
-0.295919 -0.000432021 0.0144078
-0.0902911 -0.00369809 0.123645
0.175344 0.00547605 0.222146
0.434999 0.00395318 0.160356
0.424458 -0.000165804 -0.0067257
0.156371 -0.00418661 -0.169823
-0.206569 -0.00566791 -0.229915
-0.444208 -0.00371117 -0.150538
-0.412342 0.000494912 0.0200759
-0.125813 0.00424704 0.172289
0.118489 0.0123986 0.150116
0.293948 0.00895102 0.108361
0.28683 -0.000375422 -0.00454494
0.105669 -0.00947949 -0.114761
-0.139589 -0.0128336 -0.155363
-0.300171 -0.00840286 -0.101727
-0.27864 0.0011206 0.0135664
-0.0850182 0.00961596 0.116425
-0.0102399 0.0118004 -0.0129731
-0.0254035 0.00851902 -0.00936464
-0.024788 -0.000357307 0.000392776
-0.00913194 -0.0090222 0.0099176
0.0120634 -0.0122143 0.0134267
0.0259414 -0.00799739 0.00879133
0.0240803 0.00106652 -0.00117241
0.00734735 0.00915198 -0.0100615
-0.132757 0.00404417 -0.168193
-0.329342 0.00291964 -0.121409
-0.321366 -0.000122456 0.00509216
-0.118393 -0.00309206 0.128577
0.156397 -0.00418604 0.174071
0.336314 -0.00274085 0.113977
0.312191 0.000365516 -0.0151998
0.0952561 0.00313652 -0.130444
-0.174746 -0.00616519 -0.221389
-0.4334 -0.00444702 -0.159767
-0.422897 0.000186513 0.00670097
-0.155796 0.00470951 0.169199
0.205809 0.00637582 0.229067
0.442575 0.00417463 0.149984
0.410825 -0.0005568 -0.0200028
0.125384 -0.00478151 -0.171701
-0.110736 -0.0126348 -0.140293
-0.265037 -0.00880277 -0.0977433
-0.25857 0.000368931 0.0040965
-0.095258 0.00931684 0.103451
0.125836 0.0126133 0.140054
0.2706 0.00825867 0.0917019
0.251221 -0.00110554 -0.0122756
0.0794553 -0.00979914 -0.108807
0 -0.306078 0
0 -0.231523 0
0 0.00970332 0
0 0.245044 0
0 0.331744 0
0 0.217213 0
0 -0.0290769 0
0 -0.237384 0
0.085035 -0.120415 -0.196307
0.210957 -0.0871501 -0.141702
0.205847 0.00365545 0.00594325
0.0758337 0.0922993 0.150068
-0.100178 0.124956 0.203166
-0.215423 0.0818164 0.133024
-0.19997 -0.0109088 -0.0177405
-0.0610143 -0.09339 -0.152249
0.118489 0.13829 -0.273537
0.293948 0.0998202 -0.19745
0.28683 -0.00418661 0.00828137
0.105669 -0.105714 0.20911
-0.139589 -0.143118 0.283095
-0.300171 -0.0937075 0.185358
-0.27864 0.012497 -0.0247197
-0.0850182 0.107253 -0.212146
0.080069 0.313111 -0.184843
0.198638 0.226015 -0.133426
0.193825 -0.00947949 0.00559613
0.0714061 -0.239359 0.141306
-0.0943269 -0.324049 0.191301
-0.202843 -0.212176 0.125255
-0.18829 0.0282962 -0.0167043
-0.0574511 0.242838 -0.143358
-0.00691964 0.298002 0.0159743
-0.0171664 0.215108 0.0115308
-0.0167504 -0.0090222 -0.000483624
-0.00617096 -0.227813 -0.0122117
0.00815176 -0.308412 -0.0165323
0.0175299 -0.201939 -0.0108247
0.0162721 0.0269307 0.0014436
0.00496498 0.23112 0.0123891
-0.0897109 0.10213 0.207102
-0.222558 0.0737219 0.149492
-0.217165 -0.00309206 -0.00627006
-0.0800038 -0.0780748 -0.15832
0.105686 -0.105699 -0.214337
0.22727 -0.0692081 -0.14034
0.210964 0.00922962 0.0187158
0.0643694 0.0792085 0.160621
-0.118085 -0.155693 0.272604
-0.292868 -0.112289 0.196725
-0.285774 0.00470951 -0.0082509
-0.10528 0.118917 -0.20834
0.139075 0.160991 -0.282053
0.299067 0.105411 -0.184677
0.277614 -0.0140597 0.0246298
0.0847282 -0.12075 0.211422
-0.07483 -0.319075 0.172748
-0.179099 -0.222302 0.120355
-0.174729 0.00931684 -0.00504417
-0.0643707 0.235284 -0.127384
0.085034 0.318531 -0.172454
0.182858 0.208561 -0.112916
0.169763 -0.0279188 0.0151153
0.053692 -0.247464 0.133978
0 -0.414373 0
0 -0.313439 0
0 0.0131365 0
0 0.331744 0
0 0.44912 0
0 0.294066 0
0 -0.0393647 0
0 -0.321374 0
-0.00734881 -0.16302 -0.432963
-0.018231 -0.117986 -0.312527
-0.0177895 0.00494872 0.0131081
-0.00655369 0.124956 0.330978
0.00865744 0.169166 0.448092
0.0186169 0.110766 0.293391
0.0172815 -0.0147686 -0.039127
0.00527292 -0.126433 -0.335791
-0.0102399 0.187219 -0.603296
-0.0254035 0.135137 -0.435481
-0.024788 -0.00566791 0.018265
-0.00913194 -0.143118 0.461201
0.0120634 -0.193754 0.62437
0.0259414 -0.126862 0.408819
0.0240803 0.0169186 -0.0545205
0.00734735 0.145201 -0.467896
-0.00691964 0.423894 -0.407678
-0.0171664 0.305979 -0.294276
-0.0167504 -0.0128336 0.0123426
-0.00617096 -0.324049 0.311652
0.00815176 -0.438706 0.421921
0.0175299 -0.287249 0.276258
0.0162721 0.0383073 -0.036842
0.00496498 0.328757 -0.316181
0.000598002 0.40344 0.035232
0.00148354 0.291218 0.0254318
0.00144759 -0.0122143 -0.00106665
0.000533297 -0.308412 -0.0269334
-0.000704488 -0.417539 -0.0364628
-0.00151495 -0.273386 -0.0238745
-0.00140626 0.0364592 0.00318393
-0.000429079 0.312894 0.0273247
0.00775291 0.138265 0.456771
0.0192334 0.0998064 0.32971
0.0187674 -0.00418604 -0.0138289
0.00691405 -0.105699 -0.349177
-0.00913342 -0.143098 -0.472728
-0.0196406 -0.0936946 -0.309523
-0.0182317 0.0124952 0.0412783
-0.00556287 0.107234 0.354256
0.010205 -0.21078 0.601239
0.0253101 -0.152017 0.433882
0.0246968 0.00637582 -0.0181978
0.00909836 0.160991 -0.4595
-0.012019 0.217953 -0.622075
-0.0258459 0.142708 -0.407315
-0.0239918 -0.0190341 0.0543222
-0.0073223 -0.163474 0.4663
0.00646688 -0.431968 0.381003
0.0154779 -0.300955 0.265447
0.0151003 0.0126133 -0.0111251
0.00556298 0.318531 -0.280949
-0.00734872 0.431232 -0.380354
-0.0158028 0.282353 -0.24904
-0.0146711 -0.0377969 0.0333375
-0.00464012 -0.33502 0.295493
0 -0.271315 0
0 -0.205228 0
0 0.00860126 0
0 0.217213 0
0 0.294066 0
0 0.192543 0
0 -0.0257745 0
0 -0.210423 0
-0.0952749 -0.106739 -0.406989
-0.236359 -0.0772522 -0.29378
-0.230635 0.00324028 0.0123218
-0.0849649 0.0818164 0.311126
0.112241 0.110766 0.421209
0.241361 0.0725252 0.275792
0.22405 -0.00966991 -0.0367799
0.0683617 -0.0827831 -0.315647
-0.132757 0.122584 -0.567104
-0.329342 0.0884826 -0.40936
-0.321366 -0.00371117 0.0171692
-0.118393 -0.0937075 0.433531
0.156397 -0.126862 0.586915
0.336314 -0.0830639 0.384293
0.312191 0.0110776 -0.0512498
0.0952561 0.0950716 -0.439827
-0.0897109 0.277549 -0.383221
-0.222558 0.200347 -0.276624
-0.217165 -0.00840286 0.0116021
-0.0800038 -0.212176 0.292957
0.105686 -0.287249 0.396611
0.22727 -0.188078 0.259683
0.210964 0.0250824 -0.0346321
0.0643694 0.215257 -0.297213
0.00775291 0.264156 0.0331184
0.0192334 0.190679 0.0239062
0.0187674 -0.00799739 -0.00100266
0.00691405 -0.201939 -0.0253178
-0.00913342 -0.273386 -0.0342755
-0.0196406 -0.179002 -0.0224422
-0.0182317 0.0238721 0.00299293
-0.00556287 0.204871 0.0256855
0.100514 0.0905304 0.429369
0.249353 0.0653489 0.309932
0.243311 -0.00274085 -0.0129993
0.089637 -0.0692081 -0.328231
-0.118412 -0.0936946 -0.444372
-0.254632 -0.0613471 -0.290957
-0.236367 0.00818136 0.0388022
-0.0721208 0.0702123 0.333004
0.132305 -0.13801 0.56517
0.328131 -0.099537 0.407857
0.320182 0.00417463 -0.0171061
0.117957 0.105411 -0.431937
-0.155821 0.142708 -0.584758
-0.335077 0.0934398 -0.38288
-0.311043 -0.0124629 0.0510633
-0.0949312 -0.107036 0.438327
0.083841 -0.282836 0.358147
0.200666 -0.197053 0.249523
0.19577 0.00825867 -0.0104577
0.0721223 0.208561 -0.264095
-0.0952738 0.282353 -0.357536
-0.204878 0.184874 -0.2341
-0.190206 -0.0247479 0.0313375
-0.0601576 -0.219358 0.277766
0 0.0363193 0
0 0.0274725 0
0 -0.0011514 0
0 -0.0290769 0
0 -0.0393647 0
0 -0.0257745 0
0 0.00345027 0
0 0.028168 0
-0.125409 0.0142885 -0.134141
-0.311032 0.010301 -0.096894
-0.303495 -0.000432009 0.00406402
-0.11181 -0.0109085 0.102617
0.1477 -0.0147682 0.138925
0.317614 -0.00966964 0.090962
0.294831 0.00129008 -0.0121295
0.0899831 0.0110817 -0.104035
-0.174746 -0.0164095 -0.186914
-0.4334 -0.0118011 -0.135014
-0.422897 0.000494897 0.00566281
-0.155796 0.0124967 0.142989
0.205809 0.0169181 0.193579
0.442575 0.0110773 0.126748
0.410825 -0.00147818 -0.0169015
0.125384 -0.0127266 -0.144964
-0.118085 -0.0371537 -0.126308
-0.292868 -0.0267203 -0.0912352
-0.285774 0.00112057 0.00382669
-0.10528 0.0282954 0.0966242
0.139075 0.0383062 0.130811
0.299067 0.0250816 0.0856501
0.277614 -0.00334688 -0.0114211
0.0847282 -0.0288151 -0.0979598
0.010205 -0.035361 0.0109156
0.0253101 -0.0254309 0.00788466
0.0246968 0.00106649 -0.000330704
0.00909836 0.0269299 -0.00835038
-0.012019 0.0364581 -0.0113048
-0.0258459 0.0238714 -0.00740202
-0.0239918 -0.00318539 0.000987035
-0.0073223 -0.0274248 0.00846578
0.132305 -0.0121187 0.141517
0.328131 -0.00871564 0.102222
0.320182 0.000365506 -0.00428748
0.117957 0.00922935 -0.10826
-0.155821 0.0124949 -0.146563
-0.335077 0.00818113 -0.0959641
-0.311043 -0.00109169 0.0127965
-0.0949312 -0.00939888 0.109756
0.17415 0.0184746 0.186277
0.431808 0.0132769 0.134517
0.421343 -0.000556784 -0.00564193
0.155223 -0.0140593 -0.142461
-0.205052 -0.0190336 -0.192866
-0.440948 -0.0124626 -0.126281
-0.409314 0.00166317 0.01684
-0.124956 0.0143282 0.14447
0.110358 0.0378614 0.118043
0.264133 0.0263783 0.0822414
0.257688 -0.00110554 -0.0034468
0.0949332 -0.0279188 -0.0870442
-0.125407 -0.0377969 -0.117842
-0.269677 -0.0247479 -0.0771581
-0.250365 0.00331284 0.0103287
-0.0791843 0.029364 0.0915502
0 0.321923 0
0 0.224286 0
0 -0.0094 0
0 -0.237384 0
0 -0.321374 0
0 -0.210423 0
0 0.028168 0
0 0.249672 0
-0.079471 0.126649 0.220075
-0.190207 0.088237 0.153328
-0.185566 -0.00369809 -0.00642608
-0.0683631 -0.09339 -0.162282
0.0903079 -0.126433 -0.219699
0.194199 -0.0827831 -0.14385
0.180292 0.0110817 0.0192564
0.0570221 0.0982244 0.170682
-0.110736 -0.145449 0.306655
-0.265037 -0.101335 0.213649
-0.25857 0.00424704 -0.00895419
-0.095258 0.107253 -0.226126
0.125836 0.145201 -0.306132
0.2706 0.0950716 -0.200443
0.251221 -0.0127266 0.0268321
0.0794553 -0.112805 0.237831
-0.07483 -0.329319 0.207223
-0.179099 -0.229439 0.144373
-0.174729 0.00961597 -0.00605081
-0.0643707 0.242838 -0.152805
0.085034 0.328757 -0.206869
0.182858 0.215257 -0.13545
0.169763 -0.0288151 0.0181318
0.053692 -0.255409 0.160715
0.00646688 -0.313429 -0.0179084
0.0154779 -0.218368 -0.0124769
0.0151003 0.00915198 0.000522917
0.00556298 0.23112 0.0132055
-0.00734872 0.312894 0.0178778
-0.0158028 0.204871 0.0117057
-0.0146711 -0.0274248 -0.00156697
-0.00464012 -0.243085 -0.0138891
0.083841 -0.107417 -0.232176
0.200666 -0.074838 -0.161759
0.19577 0.00313652 0.00677944
0.0721223 0.0792085 0.171205
-0.0952738 0.107234 0.23178
-0.204878 0.0702123 0.151761
-0.190206 -0.00939888 -0.0203152
-0.0601576 -0.0833088 -0.180068
0.110358 0.163753 -0.305609
0.264133 0.114088 -0.21292
0.257688 -0.00478151 0.00892365
0.0949332 -0.12075 0.225354
-0.125407 -0.163474 0.305088
-0.269677 -0.107036 0.19976
-0.250365 0.0143282 -0.0267406
-0.0791843 0.127001 -0.23702
0.0699338 0.335592 -0.193664
0.16738 0.233809 -0.134927
0.163296 -0.00979914 0.00565489
0.0601589 -0.247464 0.142806
-0.0794701 -0.33502 0.193334
-0.170894 -0.219358 0.126587
-0.158655 0.029364 -0.0169454
-0.0501789 0.260274 -0.150199
