# vtk DataFile Version 3.0
Velocity field
ASCII
DATASET STRUCTURED_POINTS
DIMENSIONS 5 5 5
SPACING 1.33333 1.33333 1.33333
ORIGIN 0 0 0
POINT_DATA 125
VECTORS velocity float
0 0.465776 0
0 0.109568 0
0 -0.414227 0
0 -0.304451 0
0 0.27099 0
0 -0.24664 0.808913
0 -0.058019 0.219301
0 0.219343 -0.829076
0 0.161215 -0.60936
0 -0.143496 0.470629
0 -0.581814 0.380574
0 -0.136864 0.103175
0 0.517423 -0.39006
0 0.380299 -0.286689
0 -0.338501 0.221419
0 -0.0270891 -0.629863
0 -0.00637238 -0.170759
0 0.0240911 0.645562
0 0.0177066 0.47448
0 -0.0157606 -0.366456
0 0.569069 -0.676908
0 0.133866 -0.159234
0 -0.506088 0.601993
0 -0.371968 0.442457
0 0.331087 -0.393828
0 0.109568 0
0 0.0327967 0
0 -0.123989 0
0 -0.0911306 0
0 0.063747 0
0.346212 -0.058019 0.284076
0.536647 -0.0143005 0.0705588
-0.112493 0.0541281 -0.267119
-0.589636 0.039793 -0.196382
-0.156439 -0.0337556 0.165277
0.162884 -0.136864 0.133651
0.25248 -0.0338575 0.0331964
-0.0529255 0.128162 -0.125673
-0.277409 0.0942216 -0.0923936
-0.0736005 -0.0796282 0.0777585
-0.269579 -0.00637238 -0.221197
-0.417724 -0.00158589 -0.0549228
0.087564 0.00600453 0.207921
0.458969 0.00441458 0.152861
0.121812 -0.00370747 -0.128693
-0.289714 0.133866 -0.237718
-0.426018 0.0314904 -0.0559203
0.0892837 -0.119051 0.211409
0.468023 -0.0875009 0.155383
0.13091 0.077884 -0.138305
0 -0.414227 0
0 -0.123989 0
0 0.468748 0
0 0.344523 0
0 -0.240999 0
0.162884 0.219343 -0.675263
0.25248 0.0541281 -0.167258
-0.0529255 -0.204885 0.633158
-0.277409 -0.150626 0.465488
-0.0736005 0.127615 -0.39287
0.0766329 0.517423 -0.317694
0.118786 0.128162 -0.0786908
-0.0249001 -0.485161 0.297887
-0.130514 -0.356682 0.219001
-0.0346272 0.301038 -0.184836
-0.12683 0.0240911 0.525795
-0.196529 0.00600453 0.130194
0.0411968 -0.0227357 -0.492849
0.215934 -0.0167157 -0.362333
0.0573093 0.0140163 0.30591
-0.136303 -0.506088 0.565068
-0.200431 -0.119051 0.132925
0.0420057 0.450078 -0.50253
0.220193 0.330801 -0.369353
0.0615898 -0.294444 0.328758
0 -0.304451 0
0 -0.0911306 0
0 0.344524 0
0 0.25322 0
0 -0.177131 0
-0.269579 0.161215 -0.601771
-0.417724 0.0397932 -0.149084
0.087564 -0.150627 0.564365
0.458969 -0.110736 0.414913
0.121812 0.0937952 -0.350112
-0.12683 0.380299 -0.283118
-0.196529 0.0942221 -0.0701405
0.0411968 -0.356684 0.265521
0.215934 -0.262229 0.195207
0.0573093 0.221259 -0.164719
0.209909 0.0177066 0.46857
0.325158 0.00441461 0.116048
-0.0681594 -0.0167158 -0.4393
-0.35726 -0.0122898 -0.322966
-0.0948489 0.0103018 0.272616
0.225587 -0.371968 0.503569
0.33172 -0.0875009 0.118458
-0.069521 0.330801 -0.447837
-0.364428 0.243135 -0.329155
-0.101933 -0.216413 0.292978
0 0.27099 0
0 0.063747 0
0 -0.240999 0
0 -0.177131 0
0 0.157663 0
-0.289714 -0.143496 0.392144
-0.426018 -0.0337556 0.0922471
0.0892836 0.127615 -0.348744
0.468023 0.0937952 -0.256323
0.13091 -0.0834865 0.228151
-0.136303 -0.338501 0.184494
-0.200431 -0.0796282 0.0434
0.0420057 0.301038 -0.164076
0.220193 0.221259 -0.120593
0.0615898 -0.196941 0.107339
0.225587 -0.0157606 -0.305344
0.33172 -0.00370747 -0.0718285
-0.069521 0.0140163 0.271551
-0.364428 0.0103018 0.199586
-0.101933 -0.00916955 -0.177651
0.242436 0.331087 -0.328151
0.356497 0.077884 -0.0771935
-0.0747136 -0.294444 0.291834
-0.391648 -0.216413 0.214494
-0.109547 0.192627 -0.19092
