# vtk DataFile Version 3.0
Velocity field
ASCII
DATASET STRUCTURED_POINTS
DIMENSIONS 8 8 8
SPACING 0.8 0.8 0.8
ORIGIN 0 0 0
POINT_DATA 512
VECTORS velocity float
0 0.44158 0
0 0.307652 0
0 -0.0128939 0
0 -0.325618 0
0 -0.440827 0
0 -0.288636 0
0 0.0386379 0
0 0.342474 0
0 0.173723 0.450698
0 0.121034 0.332919
0 -0.00507264 -0.0139529
0 -0.128103 -0.352361
0 -0.173427 -0.477032
0 -0.113553 -0.312342
0 0.0152007 0.0418112
0 0.134734 0.349546
0 -0.199511 0.628009
0 -0.139001 0.463894
0 0.00582564 -0.0194422
0 0.147118 -0.490985
0 0.199171 -0.664703
0 0.130409 -0.435221
0 -0.0174571 0.0582603
0 -0.154734 0.487062
0 -0.451725 0.424378
0 -0.31472 0.313477
0 0.0131902 -0.0131381
0 0.333099 -0.331784
0 0.450955 -0.449174
0 0.295267 -0.294101
0 -0.0395256 0.0393695
0 -0.350343 0.329133
0 -0.429929 -0.0366751
0 -0.299534 -0.027091
0 0.0125537 0.0011354
0 0.317027 0.0286731
0 0.429195 0.038818
0 0.28102 0.0254165
0 -0.0376184 -0.00340235
0 -0.333438 -0.028444
0 -0.147343 -0.475481
0 -0.102655 -0.351226
0 0.00430235 0.0147202
0 0.10865 0.371737
0 0.147092 0.503263
0 0.0963098 0.329517
0 -0.0128924 -0.0441103
0 -0.114274 -0.368767
0 0.224619 -0.625867
0 0.156493 -0.462312
0 -0.00655877 0.0193759
0 -0.165633 0.48931
0 -0.224236 0.662436
0 -0.146821 0.433737
0 0.019654 -0.0580616
0 0.174207 -0.485401
0 0.46033 -0.39661
0 0.320715 -0.276321
0 -0.0134414 0.0115808
0 -0.339444 0.292458
0 -0.459545 0.395934
0 -0.300892 0.259242
0 0.0402785 -0.0347031
0 0.357016 -0.307597
0 0.307652 0
0 0.232713 0
0 -0.00975319 0
0 -0.246303 0
0 -0.333449 0
0 -0.218329 0
0 0.0292264 0
0 0.238604 0
0.0960742 0.121034 0.445167
0.238934 0.0877546 0.322311
0.233151 -0.00368112 -0.0135203
0.0858926 -0.0929461 -0.341376
-0.113465 -0.125833 -0.462165
-0.243999 -0.0823898 -0.30261
-0.226489 0.0109806 0.0403326
-0.0689352 0.09387 0.345256
0.133871 -0.139001 0.620302
0.332929 -0.100507 0.449118
0.32487 0.00421579 -0.0188393
0.119685 0.106448 -0.475684
-0.158103 0.144111 -0.643979
-0.339986 0.0943579 -0.421658
-0.31559 -0.0125786 0.0562005
-0.0960552 -0.107804 0.481085
0.0904635 -0.31472 0.41917
0.224979 -0.227567 0.303493
0.219535 0.00954568 -0.0127306
0.0808761 0.241024 -0.321439
-0.106839 0.326297 -0.435175
-0.229748 0.213651 -0.284935
-0.213263 -0.0284808 0.0379776
-0.0649094 -0.244086 0.325094
-0.00781795 -0.299534 -0.0362251
-0.0194429 -0.216591 -0.0262281
-0.0189725 0.00908498 0.00110019
-0.00698948 0.229392 0.0277795
0.00923315 0.310557 0.0376083
0.0198548 0.203341 0.0246243
0.0184304 -0.0271065 -0.00328205
0.00560954 -0.232308 -0.0280949
-0.101357 -0.102655 -0.469646
-0.252069 -0.0742295 -0.340035
-0.245971 0.00311361 0.0142636
-0.0906146 0.0786176 0.360144
0.119705 0.106434 0.487579
0.257411 0.0696886 0.319244
0.238944 -0.00928989 -0.0425505
0.0727258 -0.0796156 -0.364242
-0.133415 0.156493 -0.618186
-0.331693 0.113051 -0.447455
-0.323663 -0.00474188 0.0187691
-0.119241 -0.119731 0.473916
0.157515 -0.162093 0.641584
0.338721 -0.106134 0.420091
0.314418 0.0141504 -0.0559944
0.0957276 0.121371 -0.479444
-0.0845444 0.320715 -0.391743
-0.20235 0.223444 -0.27293
-0.197412 -0.00936473 0.0114387
-0.0727273 -0.236493 0.288869
0.0960731 -0.320168 0.391075
0.206597 -0.209633 0.25606
0.191802 0.0280623 -0.0342772
0.0606623 0.248735 -0.303822
0 -0.0128939 0
0 -0.00975319 0
0 0.000408764 0
0 0.0103228 0
0 0.0139751 0
0 0.00915035 0
0 -0.0012249 0
0 -0.0100001 0
0.133871 -0.00507264 0.169604
0.332929 -0.00368112 0.122725
0.32487 0.000154422 -0.00514787
0.119685 0.00389903 -0.129981
-0.158103 0.00527847 -0.17597
-0.339986 0.00345619 -0.115221
-0.31559 -0.000460551 0.0153577
-0.0960552 -0.00393417 0.131539
0.186538 0.00582564 0.236328
0.463914 0.00421579 0.171005
0.452683 -0.000176839 -0.00717316
0.166769 -0.00446513 -0.181116
-0.220305 -0.00604496 -0.245204
-0.473747 -0.00395806 -0.160548
-0.439753 0.00052755 0.0213994
-0.133845 0.00451817 0.183288
0.126053 0.0131902 0.159699
0.313487 0.00954568 0.115557
0.305904 -0.000400409 -0.00484733
0.112695 -0.0101101 -0.122393
-0.148872 -0.0136874 -0.165694
-0.32013 -0.00896191 -0.108492
-0.297164 0.00119451 0.0144608
-0.0904457 0.0102298 0.123857
-0.0108936 0.0125537 -0.0138013
-0.0270921 0.00908498 -0.00998649
-0.0264363 -0.000381089 0.000418907
-0.00973922 -0.00962245 0.0105771
0.0128655 -0.0130269 0.0143196
0.0276664 -0.00852946 0.00937598
0.025681 0.00113686 -0.0012497
0.0078164 0.00973623 -0.0107038
-0.141232 0.00430235 -0.17893
-0.351232 0.00311361 -0.129472
-0.342734 -0.000130607 0.00543092
-0.126266 -0.00329778 0.137128
0.166796 -0.00446455 0.185646
0.358677 -0.0029232 0.121556
0.332943 0.000389623 -0.016202
0.101337 0.00333676 -0.138772
-0.185902 -0.00655877 -0.235522
-0.462191 -0.00474188 -0.17037
-0.451001 0.000198901 0.00714651
-0.166149 0.00502219 0.180444
0.219486 0.00679913 0.244291
0.471986 0.00445181 0.159951
0.438119 -0.000593465 -0.0213209
0.133388 -0.00508676 -0.182663
-0.117805 -0.0134414 -0.14925
-0.281957 -0.00936473 -0.103983
-0.275077 0.000392483 0.00435802
-0.101339 0.00991162 0.110056
0.13387 0.0134185 0.148995
0.287875 0.0087859 0.0975561
0.267259 -0.00117611 -0.0130592
0.0845277 -0.0104247 -0.115753
0 -0.325618 0
0 -0.246303 0
0 0.0103228 0
0 0.260687 0
0 0.352922 0
0 0.231079 0
0 -0.0309332 0
0 -0.252538 0
0.0904635 -0.128103 -0.208839
0.224979 -0.0929461 -0.151112
0.219535 0.00389903 0.00633863
0.0808761 0.0984465 0.160047
-0.106839 0.133279 0.216676
-0.229748 0.0872654 0.141871
-0.213263 -0.0116289 -0.0189101
-0.0649094 -0.0993519 -0.161969
0.126053 0.147118 -0.290999
0.313487 0.106448 -0.210561
0.305904 -0.00446513 0.00883233
0.112695 -0.112743 0.223015
-0.148872 -0.152635 0.30192
-0.32013 -0.0999384 0.197684
-0.297164 0.0133209 -0.0263494
-0.0904457 0.1141 -0.225689
0.0851806 0.333099 -0.196643
0.211841 0.241024 -0.142286
0.206713 -0.0101101 0.00596842
0.0761545 -0.255276 0.150702
-0.100599 -0.345596 0.204021
-0.216331 -0.226285 0.133585
-0.200807 0.0301617 -0.0178056
-0.0611188 0.25834 -0.15251
-0.00736139 0.317027 0.0169941
-0.0183075 0.229392 0.0122965
-0.0178643 -0.00962246 -0.0005158
-0.0065813 -0.242962 -0.0130238
0.00869384 -0.328919 -0.0176317
0.0186956 -0.215367 -0.0115445
0.0173539 0.0287062 0.00153878
0.00528194 0.245875 0.01318
-0.095438 0.10865 0.220323
-0.237351 0.0786176 0.159419
-0.231605 -0.00329778 -0.00668719
-0.0853235 -0.0832665 -0.168847
0.112713 -0.112728 -0.22859
0.242382 -0.0738107 -0.149673
0.224988 0.00983815 0.0199496
0.0684787 0.0842651 0.170875
-0.125623 -0.165633 0.290007
-0.312323 -0.119731 0.209781
-0.304765 0.00502219 -0.0087995
-0.112276 0.126809 -0.222186
0.148317 0.171675 -0.300797
0.31894 0.112407 -0.19695
0.296058 -0.0149852 0.0262529
0.0901372 -0.128459 0.224919
-0.0796071 -0.339444 0.183777
-0.190533 -0.236493 0.128038
-0.185884 0.00991162 -0.00536619
-0.0684801 0.250304 -0.135516
0.0904625 0.338865 -0.183463
0.194532 0.221876 -0.120124
0.180601 -0.0297011 0.0160803
0.0571197 -0.263261 0.142531
0 -0.440827 0
0 -0.333449 0
0 0.0139751 0
0 0.352922 0
0 0.477791 0
0 0.312839 0
0 -0.0418778 0
0 -0.34189 0
-0.00781795 -0.173427 -0.460603
-0.0194429 -0.125833 -0.333279
-0.0189725 0.00527847 0.0139801
-0.00698949 0.133279 0.352986
0.00923315 0.180433 0.477889
0.0198548 0.118143 0.312902
0.0184304 -0.0157436 -0.0417065
0.00560954 -0.134504 -0.357228
-0.0108936 0.199171 -0.64181
-0.0270921 0.144111 -0.464398
-0.0264363 -0.00604496 0.0194802
-0.00973922 -0.152635 0.491869
0.0128655 -0.206637 0.665887
0.0276664 -0.135298 0.436004
0.025681 0.018034 -0.0581149
0.0078164 0.15447 -0.497766
-0.00736139 0.450955 -0.433704
-0.0183075 0.326297 -0.313818
-0.0178643 -0.0136874 0.0131637
-0.0065813 -0.345596 0.332375
0.00869384 -0.467879 0.449978
0.0186956 -0.306351 0.29463
0.0173539 0.0408328 -0.0392711
0.00528194 0.349745 -0.336366
0.000636179 0.429195 0.0374811
0.00158215 0.310557 0.0271206
0.00154385 -0.0130269 -0.00113762
0.000568761 -0.328919 -0.0287244
-0.000751333 -0.445303 -0.0388875
-0.00161568 -0.291567 -0.0254621
-0.00149974 0.0388629 0.00339384
-0.000456471 0.332869 0.0290691
0.00824785 0.147092 0.485931
0.0205118 0.106434 0.351603
0.0200153 -0.00446455 -0.0147489
0.00737381 -0.112728 -0.372396
-0.00974079 -0.152615 -0.504163
-0.0209465 -0.0999252 -0.330104
-0.0194436 0.013319 0.0439996
-0.005918 0.114079 0.376871
0.0108565 -0.224236 0.639621
0.0269914 -0.162093 0.462677
0.0263381 0.00679913 -0.0194077
0.00970301 0.171675 -0.490036
-0.0128178 0.232418 -0.663414
-0.0275635 0.152179 -0.434384
-0.0255857 -0.0202871 0.0579019
-0.00778975 -0.17391 0.496068
0.00687972 -0.459545 0.405326
0.016466 -0.320168 0.282394
0.0160643 0.0134185 -0.0118353
0.00591812 0.338865 -0.298885
-0.00781786 0.458761 -0.404635
-0.0168116 0.300379 -0.264939
-0.0156077 -0.0402098 0.0354657
-0.00493634 -0.356407 0.314357
0 -0.288636 0
0 -0.218329 0
0 0.00915035 0
0 0.231079 0
0 0.312839 0
0 0.204834 0
0 -0.0274199 0
0 -0.223856 0
-0.101357 -0.113553 -0.432971
-0.252069 -0.0823898 -0.313289
-0.245971 0.00345619 0.0131415
-0.0906146 0.0872654 0.331814
0.119705 0.118143 0.449219
0.257411 0.0773559 0.294133
0.238944 -0.0103083 -0.0392048
0.0727258 -0.088068 -0.335798
-0.141232 0.130409 -0.603308
-0.351233 0.0943579 -0.436544
-0.342734 -0.00395806 0.0183115
-0.126266 -0.0999384 0.462359
0.166796 -0.135298 0.625945
0.358677 -0.0885871 0.409847
0.332943 0.0118079 -0.0546286
0.101337 0.101141 -0.467905
-0.095438 0.295267 -0.407686
-0.237351 0.213651 -0.294994
-0.231605 -0.00896191 0.012374
-0.0853235 -0.226285 0.312438
0.112713 -0.306351 0.422985
0.242382 -0.200585 0.276953
0.224988 0.026736 -0.0369153
0.0684787 0.228999 -0.316187
0.00824785 0.28102 0.0352326
0.0205118 0.203341 0.0254937
0.0200153 -0.00852946 -0.00106937
0.00737381 -0.215367 -0.0270013
-0.00974079 -0.291567 -0.0365548
-0.0209465 -0.190905 -0.0239345
-0.0194436 0.0254459 0.00319025
-0.005918 0.21795 0.0273252
0.106931 0.0963098 0.45678
0.265928 0.0696886 0.330512
0.259491 -0.0029232 -0.0138641
0.0955974 -0.0738107 -0.350057
-0.126286 -0.0999252 -0.473921
-0.271565 -0.0654269 -0.310306
-0.252079 0.00872078 0.0413602
-0.0767249 0.0746946 0.354263
0.140751 -0.146821 0.60125
0.349928 -0.106134 0.434925
0.341459 0.00445181 -0.0182434
0.125796 0.112407 -0.460642
-0.166176 0.152179 -0.623619
-0.357344 0.0996411 -0.408325
-0.331706 -0.0132834 0.0544282
-0.100992 -0.113869 0.466309
0.0891934 -0.300892 0.381011
0.213477 -0.209633 0.265453
0.208268 0.0087859 -0.0111253
0.0767265 0.221876 -0.280955
-0.101356 0.300379 -0.380361
-0.217957 0.196676 -0.249045
-0.202349 -0.0263278 0.0333381
-0.0639981 -0.233361 0.295499
0 0.0386379 0
0 0.0292264 0
0 -0.0012249 0
0 -0.0309331 0
0 -0.0418778 0
0 -0.0274199 0
0 0.00367053 0
0 0.0299662 0
-0.133415 0.0152007 -0.142705
-0.331693 0.0109803 -0.103338
-0.323663 -0.000460537 0.00433483
-0.119241 -0.0116286 0.109452
0.157515 -0.0157431 0.148178
0.338721 -0.010308 0.0970203
0.314418 0.00137467 -0.0129302
0.0957276 0.0117891 -0.110677
-0.185902 -0.0174571 -0.198847
-0.462191 -0.0125782 -0.143993
-0.451001 0.000527534 0.00604015
-0.166149 0.0133205 0.152512
0.219486 0.0180335 0.206471
0.471986 0.0118076 0.13519
0.438119 -0.00157498 -0.0180171
0.133388 -0.0135391 -0.154219
-0.125623 -0.0395256 -0.134371
-0.312323 -0.02848 -0.0973028
-0.304765 0.00119447 0.00408168
-0.112276 0.0301607 0.103059
0.148317 0.0408315 0.139524
0.31894 0.0267352 0.0913546
0.296058 -0.00356608 -0.012175
0.0901372 -0.0306547 -0.104213
0.0108565 -0.0376184 0.0116125
0.0269914 -0.0271057 0.00840903
0.0263381 0.00113683 -0.00035274
0.00970301 0.0287053 -0.00890655
-0.0128178 0.0388618 -0.0120577
-0.0275635 0.0254451 -0.00789502
-0.0255857 -0.00339402 0.00105219
-0.00778975 -0.0291755 0.00900623
0.140751 -0.0128924 0.150552
0.349928 -0.00928962 0.10902
0.341459 0.000389611 -0.00457318
0.125796 0.00983784 -0.11547
-0.166176 0.0133186 -0.156324
-0.357344 0.00872051 -0.102355
-0.331706 -0.00116319 0.0136412
-0.100992 -0.0099989 0.116763
0.185268 0.019654 0.198169
0.460476 0.01415 0.143458
0.449327 -0.000593447 -0.00601764
0.165532 -0.0149848 -0.151943
-0.218671 -0.0202865 -0.205703
-0.470234 -0.013283 -0.134687
-0.436492 0.00177197 0.017951
-0.132933 0.0152429 0.153693
0.117404 0.0402785 0.125579
0.280995 0.0280623 0.0874916
0.274139 -0.00117611 -0.00366685
0.100994 -0.0297011 -0.0926011
-0.133413 -0.0402098 -0.125365
-0.286893 -0.0263278 -0.0820838
-0.266348 0.00352433 0.010988
-0.0842394 0.0312386 0.0973947
0 0.342474 0
0 0.238604 0
0 -0.0100001 0
0 -0.252538 0
0 -0.34189 0
0 -0.223856 0
0 0.0299662 0
0 0.265611 0
-0.0845444 0.134734 0.234124
-0.20235 0.09387 0.163116
-0.197412 -0.00393417 -0.00683632
-0.0727273 -0.099352 -0.172642
0.0960731 -0.134504 -0.233725
0.206597 -0.088068 -0.153034
0.191802 0.0117891 0.0204857
0.0606623 0.104495 0.181579
-0.117805 -0.154734 0.326232
-0.281957 -0.107804 0.227288
-0.275077 0.00451817 -0.00952582
-0.101339 0.1141 -0.240561
0.13387 0.15447 -0.325675
0.287875 0.101141 -0.213239
0.267259 -0.0135391 0.028545
0.0845277 -0.120006 0.253014
-0.0796071 -0.350343 0.220452
-0.190533 -0.244086 0.15359
-0.185884 0.0102298 -0.00643709
-0.0684801 0.25834 -0.16256
0.0904625 0.349745 -0.220076
0.194532 0.228999 -0.144097
0.180601 -0.0306547 0.0192893
0.0571197 -0.271714 0.170975
0.00687972 -0.333438 -0.0190516
0.016466 -0.232308 -0.0132734
0.0160643 0.00973623 0.000556299
0.00591812 0.245875 0.0140486
-0.00781786 0.332869 0.0190192
-0.0168116 0.21795 0.012453
-0.0156077 -0.0291755 -0.001667
-0.00493634 -0.258603 -0.0147758
0.0891934 -0.114274 -0.246998
0.213477 -0.0796156 -0.172085
0.208268 0.00333676 0.00721224
0.0767265 0.0842651 0.182135
-0.101356 0.114079 0.246577
-0.217957 0.0746946 0.161449
-0.202349 -0.0099989 -0.0216122
-0.0639981 -0.0886272 -0.191564
0.117404 0.174207 -0.325119
0.280995 0.121371 -0.226513
0.274139 -0.00508676 0.00949333
0.100994 -0.128459 0.239741
-0.133413 -0.17391 0.324565
-0.286893 -0.113869 0.212512
-0.266348 0.0152429 -0.0284477
-0.0842394 0.135109 -0.252151
0.0743983 0.357016 -0.206027
0.178066 0.248735 -0.14354
0.173721 -0.0104247 0.0060159
0.0639994 -0.263261 0.151923
-0.0845435 -0.356407 0.205676
-0.181803 -0.233361 0.134668
-0.168784 0.0312386 -0.0180272
-0.0533823 0.276889 -0.159788
