# vtk DataFile Version 3.0
Velocity field
ASCII
DATASET STRUCTURED_POINTS
DIMENSIONS 5 5 5
SPACING 1.33333 1.33333 1.33333
ORIGIN 0 0 0
POINT_DATA 125
VECTORS velocity float
0 0.593653 0
0 0.139649 0
0 -0.527951 0
0 -0.388037 0
0 0.345389 0
0 -0.314354 1.031
0 -0.0739479 0.279509
0 0.279563 -1.0567
0 0.205475 -0.776658
0 -0.182892 0.599838
0 -0.741549 0.485059
0 -0.17444 0.131502
0 0.659479 -0.497149
0 0.484709 -0.365398
0 -0.431436 0.282209
0 -0.0345264 -0.802789
0 -0.0081219 -0.21764
0 0.0307052 0.822799
0 0.0225679 0.604747
0 -0.0200876 -0.467066
0 0.725305 -0.862751
0 0.170619 -0.202951
0 -0.645033 0.767267
0 -0.474091 0.563932
0 0.421985 -0.501952
0 0.139649 0
0 0.0418009 0
0 -0.15803 0
0 -0.11615 0
0 0.0812485 0
0.441263 -0.0739479 0.362068
0.697067 -0.018522 0.0916164
-0.146146 0.0701748 -0.347223
-0.765971 0.0516001 -0.255332
-0.199388 -0.0430231 0.210653
0.207603 -0.17444 0.170344
0.327954 -0.0438934 0.0431035
-0.0687586 0.16632 -0.16336
-0.360372 0.1223 -0.120128
-0.0938073 -0.10149 0.0991068
-0.343591 -0.0081219 -0.281926
-0.542446 -0.00206559 -0.071295
0.113728 0.00783117 0.270197
0.596066 0.00575912 0.198691
0.155254 -0.00472535 -0.164025
-0.369254 0.170619 -0.302983
-0.542979 0.040136 -0.071273
0.113796 -0.151736 0.269451
0.596518 -0.111524 0.198043
0.166851 0.0992667 -0.176277
0 -0.527951 0
0 -0.15803 0
0 0.597441 0
0 0.439111 0
0 -0.307164 0
0.207603 0.279563 -0.860653
0.327954 0.0701748 -0.217056
-0.0687586 -0.2659 0.822569
-0.360372 -0.195524 0.604874
-0.0938073 0.162651 -0.500731
0.0976722 0.659479 -0.404916
0.154295 0.16632 -0.10212
-0.0323493 -0.630298 0.387001
-0.169547 -0.463487 0.284579
-0.044134 0.383687 -0.235582
-0.161651 0.0307052 0.67015
-0.255209 0.00783117 0.168915
0.0535066 -0.0296947 -0.640111
0.280435 -0.0218384 -0.4707
0.0730433 0.0178644 0.389896
-0.173725 -0.645033 0.720205
-0.255458 -0.151736 0.169419
0.0535383 0.573645 -0.640497
0.280647 0.421622 -0.470757
0.0784991 -0.375283 0.419018
0 -0.388037 0
0 -0.11615 0
0 0.439111 0
0 0.322741 0
0 -0.225761 0
-0.343591 0.205475 -0.766984
-0.542446 0.0516005 -0.193503
0.113728 -0.195525 0.733322
0.596066 -0.143775 0.539247
0.155254 0.119546 -0.446234
-0.161651 0.484709 -0.360847
-0.255209 0.122301 -0.0910389
0.0535066 -0.463491 0.345012
0.280435 -0.340828 0.253704
0.0730433 0.282005 -0.209942
0.267538 0.0225679 0.597215
0.422128 0.00575917 0.150585
-0.0885016 -0.0218386 -0.570657
-0.463851 -0.016061 -0.41963
-0.120889 0.0131301 0.347462
0.287521 -0.474091 0.641822
0.422793 -0.111524 0.150981
-0.0886077 0.421622 -0.570789
-0.46448 0.309887 -0.419523
-0.129919 -0.275828 0.373414
0 0.345389 0
0 0.0812485 0
0 -0.307164 0
0 -0.225762 0
0 0.200949 0
-0.369254 -0.182892 0.499806
-0.542979 -0.0430231 0.117573
0.113796 0.162651 -0.444491
0.596517 0.119546 -0.326695
0.166851 -0.106407 0.290789
-0.173725 -0.431436 0.235146
-0.255458 -0.10149 0.0553152
0.0535382 0.383687 -0.209122
0.280647 0.282005 -0.153702
0.0784991 -0.251011 0.136809
0.287521 -0.0200876 -0.389176
0.422792 -0.00472535 -0.0915487
-0.0886077 0.0178644 0.346104
-0.46448 0.0131301 0.254382
-0.129919 -0.011687 -0.226424
0.308996 0.421985 -0.418244
0.454372 0.0992667 -0.0983866
-0.095226 -0.375283 0.371955
-0.499173 -0.275828 0.273382
-0.139623 0.245512 -0.243336
