# vtk DataFile Version 3.0
Velocity field
ASCII
DATASET STRUCTURED_POINTS
DIMENSIONS 8 8 8
SPACING 0.8 0.8 0.8
ORIGIN 0 0 0
POINT_DATA 512
VECTORS velocity float
0 0.246785 0
0 0.171937 0
0 -0.00720601 0
0 -0.181978 0
0 -0.246364 0
0 -0.16131 0
0 0.0215935 0
0 0.191398 0
0 0.0970886 0.251881
0 0.0676423 0.186058
0 -0.00283494 -0.00779784
0 -0.0715925 -0.196924
0 -0.096923 -0.266598
0 -0.0634613 -0.174558
0 0.00849517 0.023367
0 0.0752986 0.19535
0 -0.111501 0.350975
0 -0.0776832 0.259256
0 0.00325577 -0.0108656
0 0.0822199 -0.274396
0 0.11131 -0.371482
0 0.0728817 -0.243231
0 -0.00975621 0.0325599
0 -0.0864761 0.272204
0 -0.252455 0.237171
0 -0.175887 0.175192
0 0.00737157 -0.00734246
0 0.186159 -0.185423
0 0.252025 -0.251029
0 0.165016 -0.164364
0 -0.0220896 0.0220024
0 -0.195795 0.183942
0 -0.240274 -0.0204966
0 -0.1674 -0.0151403
0 0.00701588 0.000634542
0 0.177176 0.0160245
0 0.239864 0.0216942
0 0.157053 0.0142045
0 -0.0210237 -0.00190147
0 -0.186348 -0.0158965
0 -0.0823454 -0.265732
0 -0.0573706 -0.196289
0 0.00240445 0.00822664
0 0.060721 0.207752
0 0.082205 0.281258
0 0.0538246 0.184157
0 -0.00720516 -0.0246519
0 -0.0638643 -0.206092
0 0.125532 -0.349778
0 0.0874593 -0.258372
0 -0.00366549 0.0108286
0 -0.0925668 0.27346
0 -0.125318 0.370215
0 -0.0820535 0.242402
0 0.010984 -0.0324488
0 0.0973587 -0.271276
0 0.257264 -0.221653
0 0.179237 -0.154427
0 -0.00751199 0.00647217
0 -0.189705 0.163446
0 -0.256825 0.221275
0 -0.168159 0.144882
0 0.0225104 -0.0193945
0 0.199525 -0.171907
0 0.171937 0
0 0.130056 0
0 -0.00545075 0
0 -0.137651 0
0 -0.186354 0
0 -0.122017 0
0 0.0163337 0
0 0.133348 0
0.0536929 0.0676423 0.24879
0.131235 0.0481971 0.177068
0.12804 -0.00202049 -0.00742288
0.047171 -0.0510233 -0.18745
-0.0623122 -0.0690761 -0.25377
-0.133998 -0.0452282 -0.166159
-0.124395 0.00604615 0.0222136
-0.0385257 0.052461 0.192953
0.0748164 -0.0776832 0.346667
0.182866 -0.0552504 0.246728
0.178414 0.00231612 -0.0103431
0.0657281 0.0584888 -0.261192
-0.0868278 0.0791828 -0.353609
-0.186716 0.0518457 -0.231529
-0.173336 -0.00693153 0.0309526
-0.0536822 -0.0602484 0.268863
0.0505572 -0.175887 0.234261
0.12357 -0.125096 0.166727
0.120564 0.00524414 -0.00698936
0.0444159 0.132429 -0.176503
-0.0586739 0.179285 -0.238952
-0.126172 0.117389 -0.156455
-0.117132 -0.0156942 0.0209163
-0.0362758 -0.136412 0.181685
-0.00436921 -0.1674 -0.0202451
-0.0106792 -0.11906 -0.0144087
-0.0104192 0.00499108 0.000604025
-0.00383847 0.126039 0.0152536
0.00507063 0.170635 0.0206503
0.010904 0.111725 0.013521
0.0101226 -0.0149369 -0.00180761
0.00313499 -0.12983 -0.0157014
-0.0566454 -0.0573706 -0.262471
-0.138452 -0.0408041 -0.186805
-0.135082 0.00171053 0.007831
-0.0497643 0.043196 0.197756
0.0657389 0.058479 0.267725
0.141366 0.0382896 0.175296
0.131236 -0.00511914 -0.0234351
0.0406442 -0.0444947 -0.203563
-0.0745612 0.0874593 -0.345485
-0.182225 0.0621855 -0.245864
-0.177789 -0.00260686 0.0103068
-0.0654978 -0.0658307 0.260277
0.0865235 -0.0891221 0.35237
0.186061 -0.0583537 0.230718
0.172729 0.00780178 -0.0308445
0.0534992 0.0678304 -0.267946
-0.0472492 0.179237 -0.218933
-0.113087 0.124876 -0.152532
-0.110328 -0.00523365 0.00639274
-0.040645 -0.132169 0.16144
0.0536923 -0.178932 0.21856
0.115461 -0.117157 0.143104
0.107192 0.0156831 -0.0191564
0.0339023 0.13901 -0.169797
0 -0.00720601 0
0 -0.00545075 0
0 0.000228446 0
0 0.00576907 0
0 0.00781026 0
0 0.00511385 0
0 -0.000684558 0
0 -0.00558874 0
0.0748164 -0.00283494 0.0947862
0.182866 -0.00202049 0.0674297
0.178414 8.47023e-05 -0.00282671
0.0657281 0.00213897 -0.0713825
-0.0868278 0.00289578 -0.0966379
-0.186716 0.00189605 -0.0632748
-0.173336 -0.000253457 0.00845936
-0.0536822 -0.00219868 0.0735129
0.10425 0.00325577 0.132076
0.254805 0.00231612 0.0939575
0.248602 -9.70928e-05 -0.00393873
0.091587 -0.00245188 -0.0994647
-0.120987 -0.0033194 -0.134658
-0.260169 -0.00217342 -0.0881691
-0.241529 0.000290568 0.0117874
-0.0748016 0.00252506 0.102434
0.0704472 0.00737157 0.0892507
0.172187 0.00524414 0.0634914
0.167995 -0.000219838 -0.00266163
0.0618892 -0.00555156 -0.0672138
-0.0817567 -0.00751582 -0.0909952
-0.175812 -0.004921 -0.0595803
-0.163213 0.000657899 0.00796531
-0.0505472 0.00571714 0.0692198
-0.00608811 0.00701588 -0.00771314
-0.0148805 0.00499107 -0.00548705
-0.0145183 -0.00020923 0.000230021
-0.0053486 -0.00528369 0.0058087
0.00706552 -0.00715315 0.00786383
0.0151938 -0.00468357 0.00514896
0.0141051 0.000626152 -0.000688375
0.00436834 0.00544128 -0.00598205
-0.0789304 0.00240445 -0.0999983
-0.192919 0.00171053 -0.0711373
-0.188226 -7.17066e-05 0.00298214
-0.0693424 -0.00181081 0.0753069
0.0916021 -0.00245148 0.101952
0.196981 -0.00160513 0.0667545
0.182867 0.000214593 -0.00892453
0.0566342 0.00186481 -0.0775553
-0.103895 -0.00366549 -0.131626
-0.253913 -0.00260686 -0.0936281
-0.247732 0.000109281 0.00392495
-0.0912662 0.00275966 0.0991164
0.120563 0.00373608 0.134186
0.259258 0.00244622 0.0878601
0.240682 -0.000327049 -0.0117462
0.0745465 -0.00284283 -0.102085
-0.0658377 -0.00751199 -0.0834109
-0.157577 -0.00523365 -0.058113
-0.153732 0.000219347 0.00243556
-0.0566353 0.00553929 0.0615067
0.0748155 0.00749918 0.0832687
0.160884 0.00491016 0.054521
0.149363 -0.000657293 -0.00729839
0.0472399 -0.00582604 -0.0646907
0 -0.181978 0
0 -0.137651 0
0 0.00576907 0
0 0.14569 0
0 0.197237 0
0 0.129143 0
0 -0.0172876 0
0 -0.141136 0
0.0505572 -0.0715925 -0.116714
0.12357 -0.0510233 -0.083028
0.120564 0.00213897 0.0034806
0.0444159 0.0540153 0.0878956
-0.0586739 0.0731268 0.118994
-0.126172 0.0478803 0.077912
-0.117132 -0.00640056 -0.0104162
-0.0362758 -0.0555247 -0.0905192
0.0704472 0.0822199 -0.16263
0.172187 0.0584888 -0.115692
0.167995 -0.00245188 0.00484987
0.0618892 -0.061917 0.122475
-0.0817567 -0.0838252 0.165807
-0.175812 -0.0548853 0.108564
-0.163213 0.00733772 -0.0145141
-0.0505472 0.0637669 -0.126131
0.0476048 0.186159 -0.109898
0.116355 0.132429 -0.0781788
0.113523 -0.00555156 0.00327731
0.0418222 -0.140193 0.0827621
-0.0552473 -0.189796 0.112045
-0.118805 -0.124269 0.0733624
-0.110291 0.0166139 -0.00980791
-0.0341574 0.144378 -0.0852329
-0.00411405 0.177176 0.00949747
-0.0100555 0.126039 0.00675631
-0.00981068 -0.00528369 -0.00028323
-0.00361433 -0.133428 -0.00715241
0.00477448 -0.180638 -0.00968293
0.0102672 -0.118275 -0.00634002
0.00953141 0.0158122 0.00084761
0.00295191 0.137412 0.00736591
-0.0533373 0.060721 0.123132
-0.130366 0.043196 0.0875937
-0.127192 -0.00181081 -0.00367198
-0.0468586 -0.0457281 -0.0927285
0.0618995 -0.0619067 -0.125536
0.13311 -0.0405344 -0.0821965
0.123571 0.00541913 0.010989
0.0382706 0.0470931 0.0954967
-0.0702069 -0.0925668 0.162076
-0.171584 -0.0658307 0.115287
-0.167407 0.00275966 -0.00483288
-0.0616725 0.0696892 -0.122045
0.0814703 0.0943469 -0.165227
0.175195 0.0617741 -0.108184
0.162641 -0.00825896 0.0144634
0.0503749 -0.0717916 0.1257
-0.0444899 -0.189705 0.102707
-0.106483 -0.132169 0.0715566
-0.103885 0.00553929 -0.002999
-0.0382714 0.139887 -0.0757355
0.0505567 0.189381 -0.102532
0.108718 0.123999 -0.0671338
0.100932 -0.016599 0.00898677
0.0319224 -0.147129 0.079656
0 -0.246364 0
0 -0.186354 0
0 0.00781026 0
0 0.197237 0
0 0.267023 0
0 0.174836 0
0 -0.0234042 0
0 -0.191072 0
-0.00436921 -0.096923 -0.257417
-0.0106792 -0.0690761 -0.183121
-0.0104192 0.00289578 0.00767658
-0.00383847 0.0731268 0.193854
0.00507063 0.0989997 0.262444
0.010904 0.0648211 0.171839
0.0101226 -0.00866519 -0.0229735
0.00313499 -0.0751702 -0.199643
-0.00608811 0.11131 -0.358688
-0.0148805 0.0791828 -0.255162
-0.0145183 -0.0033194 0.0106967
-0.0053486 -0.0838252 0.270121
0.00706552 -0.113484 0.365695
0.0151938 -0.0743047 0.239443
0.0141051 0.00993388 -0.0320113
0.00436834 0.0863286 -0.278186
-0.00411405 0.252025 -0.242384
-0.0100555 0.179285 -0.172427
-0.00981068 -0.00751582 0.0072283
-0.00361433 -0.189796 0.182535
0.00477448 -0.256947 0.247116
0.0102672 -0.16824 0.161803
0.00953141 0.0224922 -0.0216318
0.00295191 0.195462 -0.187984
0.00035554 0.239864 0.020947
0.000869009 0.170635 0.0149013
0.000847854 -0.00715315 -0.00062467
0.00031235 -0.180638 -0.0157747
-0.000412618 -0.244551 -0.0213563
-0.000887304 -0.160121 -0.0139832
-0.000823718 0.0214069 0.00186944
-0.000255107 0.18603 0.0162458
0.00460946 0.082205 0.271571
0.0112664 0.058479 0.193189
0.0109922 -0.00245148 -0.00809864
0.00404952 -0.0619067 -0.204514
-0.00534948 -0.0838112 -0.276876
-0.0115036 -0.0548761 -0.181288
-0.0106793 0.0073365 0.0242366
-0.00330738 0.0637554 0.210622
0.00606735 -0.125318 0.357464
0.0148284 -0.0891221 0.254269
0.0144675 0.00373608 -0.0106592
0.00532987 0.0943469 -0.269175
-0.00704077 0.127728 -0.364415
-0.0151405 0.0836314 -0.238604
-0.0140557 -0.0111811 0.0318995
-0.00435345 -0.0971926 0.277237
0.00384486 -0.256825 0.226524
0.00920235 -0.178932 0.157821
0.00897781 0.00749918 -0.0066144
0.00330745 0.189381 -0.167038
-0.00436916 0.256387 -0.226138
-0.0093955 0.167872 -0.148066
-0.00872265 -0.022472 0.0198207
-0.00275877 -0.199185 0.175684
0 -0.16131 0
0 -0.122017 0
0 0.00511385 0
0 0.129143 0
0 0.174836 0
0 0.114476 0
0 -0.0153241 0
0 -0.125106 0
-0.0566454 -0.0634613 -0.241974
-0.138452 -0.0452282 -0.172136
-0.135082 0.00189605 0.00721609
-0.0497643 0.0478802 0.182227
0.0657389 0.0648211 0.246699
0.141366 0.0424425 0.16153
0.131236 -0.00567362 -0.0215953
0.0406442 -0.0492184 -0.187667
-0.0789304 0.0728817 -0.33717
-0.192919 0.0518457 -0.239856
-0.188226 -0.00217342 0.0100549
-0.0693424 -0.0548853 0.253915
0.0916021 -0.0743047 0.343757
0.196981 -0.0486514 0.225079
0.182867 0.00650431 -0.0300912
0.0566342 0.0565245 -0.261497
-0.0533373 0.165016 -0.227843
-0.130366 0.117389 -0.162083
-0.127192 -0.004921 0.00679463
-0.0468586 -0.124269 0.171585
0.0618995 -0.16824 0.232294
0.13311 -0.110156 0.152096
0.123571 0.014727 -0.0203341
0.0382706 0.12798 -0.176707
0.00460946 0.157053 0.0196904
0.0112664 0.111725 0.0140074
0.0109922 -0.00468357 -0.000587196
0.00404952 -0.118275 -0.0148286
-0.00534948 -0.160121 -0.020075
-0.0115036 -0.104841 -0.0131443
-0.0106793 0.0140164 0.00175729
-0.00330738 0.121805 0.0152712
0.0597602 0.0538246 0.25528
0.146065 0.0382896 0.181601
0.14251 -0.00160513 -0.0076129
0.0525007 -0.0405344 -0.192245
-0.0693539 -0.0548761 -0.260265
-0.14914 -0.0359307 -0.170413
-0.138453 0.00480363 0.0227827
-0.0428792 0.0417445 0.197986
0.0786612 -0.0820535 0.33602
0.192243 -0.0583537 0.239015
0.187565 0.00244622 -0.0100197
0.0690996 0.0617741 -0.253026
-0.0912813 0.0836314 -0.342554
-0.196291 0.0547585 -0.224291
-0.182227 -0.00732094 0.0299859
-0.056441 -0.0636379 0.260606
0.0498474 -0.168159 0.212935
0.119305 -0.117157 0.148353
0.116394 0.00491016 -0.0062176
0.0428801 0.123999 -0.157017
-0.0566447 0.167872 -0.212572
-0.12181 0.109916 -0.139184
-0.113086 -0.0147138 0.0186316
-0.0357665 -0.130418 0.165145
0 0.0215935 0
0 0.0163337 0
0 -0.000684558 0
0 -0.0172876 0
0 -0.0234042 0
0 -0.0153241 0
0 0.00205134 0
0 0.0167472 0
-0.0745612 0.00849517 -0.0797532
-0.182225 0.00604605 -0.0567482
-0.177789 -0.000253453 0.00237893
-0.0654978 -0.00640045 0.0600754
0.0865235 -0.00866504 0.0813304
0.186061 -0.00567353 0.0532519
0.172729 0.000758525 -0.00711921
0.0534992 0.00658856 -0.0618539
-0.103895 -0.00975621 -0.111129
-0.253913 -0.00693142 -0.0790737
-0.247732 0.000290563 0.00331484
-0.0912662 0.0073376 0.0837095
0.120563 0.00993371 0.113327
0.259258 0.00650419 0.0742025
0.240682 -0.000869665 -0.00991998
0.0745465 -0.00756658 -0.086188
-0.0702069 -0.0220896 -0.0750957
-0.171584 -0.0156939 -0.0534341
-0.167407 0.000657888 0.00224001
-0.0616726 0.0166136 0.0565669
0.0814703 0.0224918 0.0765806
0.175195 0.0147268 0.0501422
0.162641 -0.00196907 -0.00670343
0.0503749 -0.0171319 -0.0582417
0.00606735 -0.0210237 0.00648984
0.0148284 -0.0149367 0.00461784
0.0144675 0.000626142 -0.000193584
0.00532987 0.0158119 -0.00488855
-0.00704077 0.0214065 -0.00661819
-0.0151405 0.0140162 -0.00433333
-0.0140557 -0.00187407 0.000579321
-0.00435345 -0.0163053 0.0050333
0.0786612 -0.00720516 0.0841387
0.192243 -0.00511905 0.0598687
0.187565 0.000214589 -0.00250974
0.0690996 0.00541904 -0.0633784
-0.0912813 0.00733637 -0.085803
-0.196291 0.00480355 -0.0561804
-0.182227 -0.000642274 0.0075107
-0.056441 -0.00558807 0.0652551
0.10354 0.010984 0.11075
0.253024 0.00780165 0.0787968
0.246864 -0.000327043 -0.00330322
0.0909466 -0.00825882 -0.0834162
-0.12014 -0.0111809 -0.11293
-0.25835 -0.00732081 -0.0739422
-0.239838 0.000978873 0.00988532
-0.0742922 0.0085188 0.0858941
0.0656132 0.0225104 0.0701821
0.157039 0.0156831 0.0488963
0.153208 -0.000657293 -0.00204929
0.0564422 -0.016599 -0.0517518
-0.0745604 -0.022472 -0.0700624
-0.160336 -0.0147138 -0.0458741
-0.148853 0.00196964 0.00614088
-0.0470788 0.0174583 0.0544308
0 0.191398 0
0 0.133348 0
0 -0.00558874 0
0 -0.141136 0
0 -0.191072 0
0 -0.125106 0
0 0.0167472 0
0 0.148442 0
-0.0472492 0.0752986 0.130845
-0.113087 0.052461 0.0911604
-0.110328 -0.00219868 -0.00382061
-0.040645 -0.0555247 -0.0964841
0.0536923 -0.0751702 -0.130622
0.115461 -0.0492184 -0.0855258
0.107192 0.00658856 0.0114488
0.0339023 0.058399 0.101479
-0.0658377 -0.0864761 0.182321
-0.157577 -0.0602484 0.127024
-0.153732 0.00252506 -0.00532368
-0.0566353 0.0637669 -0.134442
0.0748155 0.0863286 -0.18201
0.160884 0.0565245 -0.119173
0.149363 -0.00756658 0.0159529
0.0472399 -0.0670679 0.141402
-0.0444899 -0.195795 0.123203
-0.106483 -0.136412 0.0858367
-0.103885 0.00571714 -0.00359749
-0.0382714 0.144378 -0.0908495
0.0505567 0.195462 -0.122993
0.108718 0.12798 -0.0805312
0.100932 -0.0171319 0.0107802
0.0319224 -0.151852 0.0955524
0.00384486 -0.186348 -0.0106474
0.00920234 -0.12983 -0.00741809
0.00897781 0.00544128 0.000310898
0.00330745 0.137412 0.0078513
-0.00436916 0.18603 0.0106292
-0.0093955 0.121805 0.00695958
-0.00872265 -0.0163053 -0.000931636
-0.00275877 -0.144525 -0.00825773
0.0498474 -0.0638643 -0.13804
0.119305 -0.0444947 -0.0961732
0.116394 0.00186481 0.0040307
0.04288 0.0470931 0.10179
-0.0566447 0.0637554 0.137804
-0.12181 0.0417445 0.0902287
-0.113086 -0.00558807 -0.0120784
-0.0357665 -0.049531 -0.107059
0.0656132 0.0973587 -0.181699
0.157039 0.0678304 -0.126591
0.153208 -0.00284283 0.00530553
0.0564422 -0.0717916 0.133984
-0.0745604 -0.0971926 0.181389
-0.160336 -0.0636379 0.118766
-0.148853 0.0085188 -0.0158985
-0.0470788 0.075508 -0.140919
0.0415789 0.199525 -0.115142
0.0995155 0.13901 -0.0802203
0.0970873 -0.00582604 0.0033621
0.0357672 -0.147129 0.0849051
-0.0472487 -0.199185 0.114946
-0.101604 -0.130418 0.0752619
-0.094328 0.0174583 -0.0100748
-0.0298337 0.154745 -0.0893003
