# vtk DataFile Version 3.0
Velocity field
ASCII
DATASET STRUCTURED_POINTS
DIMENSIONS 8 8 8
SPACING 0.8 0.8 0.8
ORIGIN 0 0 0
POINT_DATA 512
VECTORS velocity float
0 0.162631 0
0 0.113306 0
0 -0.00474875 0
0 -0.119923 0
0 -0.162354 0
0 -0.106303 0
0 0.0142301 0
0 0.126131 0
0 0.0639812 0.165989
0 0.0445762 0.122612
0 -0.00186822 -0.00513877
0 -0.0471794 -0.129772
0 -0.0638721 -0.175688
0 -0.0418209 -0.115033
0 0.00559831 0.0153988
0 0.0496217 0.128736
0 -0.0734788 0.231292
0 -0.0511931 0.170849
0 0.00214555 -0.00716043
0 0.0541828 -0.180827
0 0.0733534 -0.244806
0 0.0480289 -0.160289
0 -0.00642933 0.0214569
0 -0.0569876 0.179382
0 -0.166368 0.156296
0 -0.115909 0.115452
0 0.00485786 -0.00483867
0 0.122678 -0.122194
0 0.166084 -0.165428
0 0.108745 -0.108316
0 -0.014557 0.0144995
0 -0.129029 0.121218
0 -0.15834 -0.0135072
0 -0.110317 -0.00997744
0 0.00462346 0.000418163
0 0.116759 0.0105601
0 0.15807 0.0142964
0 0.103498 0.00936074
0 -0.0138546 -0.00125306
0 -0.122803 -0.0104757
0 -0.0542655 -0.175117
0 -0.0378072 -0.129354
0 0.00158453 0.00542134
0 0.0400151 0.136908
0 0.054173 0.185349
0 0.0354703 0.121359
0 -0.00474819 -0.0162456
0 -0.0420865 -0.135815
0 0.0827257 -0.230503
0 0.0576355 -0.170267
0 -0.00241555 0.00713601
0 -0.0610014 0.18021
0 -0.0825846 0.243971
0 -0.0540731 0.159743
0 0.00723843 -0.0213837
0 0.0641592 -0.17877
0 0.169537 -0.146069
0 0.118117 -0.101767
0 -0.00495039 0.00426515
0 -0.125015 0.10771
0 -0.169247 0.14582
0 -0.110817 0.0954771
0 0.0148343 -0.0127809
0 0.131487 -0.113286
0 0.113306 0
0 0.0857067 0
0 -0.00359204 0
0 -0.0907119 0
0 -0.122807 0
0 -0.0804092 0
0 0.0107639 0
0 0.0878763 0
0.0353835 0.0445762 0.163952
0.0858678 0.0315256 0.115852
0.0837751 -0.0013214 -0.00485595
0.030863 -0.03337 -0.122629
-0.0407701 -0.0451768 -0.166017
-0.0876725 -0.0295799 -0.108701
-0.0813924 0.00395731 0.0145429
-0.0253884 0.0345717 0.127156
0.0493039 -0.0511931 0.228453
0.11965 -0.0361581 0.16143
0.116733 0.00151556 -0.00676633
0.0430048 0.038273 -0.170872
-0.0568099 0.0518146 -0.231331
-0.122164 0.0339261 -0.151466
-0.113414 -0.00453899 0.0202643
-0.0353765 -0.0397036 0.177181
0.0333172 -0.115909 0.154378
0.0808532 -0.0818677 0.109086
0.0788829 0.00343149 -0.00457236
0.0290605 0.0866567 -0.115468
-0.0383892 0.117317 -0.156322
-0.0825526 0.0768146 -0.102353
-0.0766393 -0.010277 0.0136936
-0.0239057 -0.0898953 0.11973
-0.0028793 -0.110317 -0.0133415
-0.00698746 -0.0779175 -0.00942736
-0.00681714 0.00326591 0.000395148
-0.00251144 0.0824753 0.00997886
0.00331763 0.111657 0.0135095
0.00713432 0.0731084 0.00884547
0.00662323 -0.00978114 -0.00118341
0.00206596 -0.0855577 -0.0103472
-0.0373292 -0.0378072 -0.172968
-0.0905901 -0.0267037 -0.122223
-0.0883817 0.00111928 0.00512296
-0.0325602 0.0282656 0.129372
0.0430119 0.0382663 0.175146
0.0924941 0.0250553 0.114679
0.0858679 -0.00335216 -0.0153426
0.0267845 -0.0293219 -0.134148
-0.0491357 0.0576355 -0.227674
-0.119237 0.0407032 -0.160873
-0.11633 -0.00170608 0.00674298
-0.0428564 -0.0430842 0.170283
0.0566138 -0.0583279 0.230532
0.121743 -0.0381908 0.150943
0.113022 0.00510959 -0.0201944
0.0352559 0.0447001 -0.176576
-0.0311372 0.118117 -0.144276
-0.0745241 0.0822931 -0.100518
-0.0727058 -0.00344897 0.00421281
-0.026785 -0.0870989 0.106389
0.0353831 -0.117916 0.14403
0.0760884 -0.0772066 0.0943054
0.0706394 0.0103352 -0.0126241
0.0223416 0.0916077 -0.111896
0 -0.00474875 0
0 -0.00359204 0
0 0.000150545 0
0 0.00380181 0
0 0.00514695 0
0 0.00337002 0
0 -0.000451123 0
0 -0.00368297 0
0.0493039 -0.00186822 0.062464
0.11965 -0.0013214 0.0441231
0.116733 5.53872e-05 -0.00184941
0.0430048 0.00139871 -0.0467044
-0.0568099 0.00189359 -0.0632289
-0.122164 0.00123986 -0.0413997
-0.113414 -0.00016587 0.00553882
-0.0353765 -0.00144893 0.0484449
0.0687007 0.00214555 0.0870381
0.166721 0.00151556 0.0614817
0.162657 -6.35248e-05 -0.002577
0.0599236 -0.00160421 -0.0650783
-0.0791596 -0.00217181 -0.0881036
-0.170225 -0.00142202 -0.0576872
-0.158032 0.000190251 0.00771787
-0.0492941 0.00166401 0.0675038
0.0464246 0.00485786 0.0588161
0.112663 0.00343149 0.0415462
0.109917 -0.000143831 -0.00174142
0.0404934 -0.00363221 -0.0439766
-0.0534921 -0.00491736 -0.0595361
-0.115031 -0.00321967 -0.038982
-0.10679 0.00043076 0.00521537
-0.0333106 0.00376759 0.0456158
-0.00401206 0.00462346 -0.00508295
-0.0097364 0.00326591 -0.00359049
-0.00949906 -0.00013689 0.000150495
-0.00349949 -0.00345697 0.00380049
0.00462285 -0.0046801 0.00514518
0.00994104 -0.00306433 0.00336886
0.00922895 0.000409974 -0.000450719
0.00287873 0.00358579 -0.00394216
-0.052015 0.00158453 -0.0658988
-0.126229 0.00111928 -0.0465495
-0.123152 -4.69147e-05 0.00195111
-0.0453698 -0.00118476 0.0492721
0.0599335 -0.00160393 0.0667059
0.128882 -0.00105019 0.0436761
0.11965 0.000140505 -0.00584342
0.0373218 0.00122891 -0.0511088
-0.0684664 -0.00241555 -0.0867413
-0.166146 -0.00170608 -0.0612696
-0.162096 7.15102e-05 0.00256811
-0.0597167 0.00180588 0.0648538
0.0788862 0.00244482 0.0877997
0.169637 0.00160077 0.0574879
0.157486 -0.000214167 -0.00769127
0.049126 -0.00187342 -0.0672736
-0.043387 -0.00495039 -0.0549677
-0.103843 -0.00344897 -0.0382964
-0.101309 0.000144549 0.00160503
-0.0373226 0.00365039 0.0405328
0.0493033 0.00494195 0.054874
0.106023 0.00323579 0.0359293
0.0984299 -0.000433155 -0.00480963
0.031131 -0.00383935 -0.0426311
0 -0.119923 0
0 -0.0907119 0
0 0.00380181 0
0 0.0960094 0
0 0.129979 0
0 0.0851051 0
0 -0.0113925 0
0 -0.0930083 0
0.0333172 -0.0471794 -0.0769142
0.0808532 -0.03337 -0.0543303
0.0788829 0.00139871 0.00227725
0.0290605 0.0353222 0.0575086
-0.0383892 0.0478199 0.0778556
-0.0825526 0.0313105 0.0509766
-0.0766393 -0.0041888 -0.00682015
-0.0239057 -0.0365907 -0.059652
0.0464246 0.0541828 -0.107173
0.112663 0.038273 -0.0757045
0.109917 -0.00160421 0.00317314
0.0404934 -0.0405118 0.080133
-0.0534921 -0.0548458 0.108485
-0.115031 -0.0359108 0.0710316
-0.10679 0.00480447 -0.00950325
-0.0333106 0.0420223 -0.0831199
0.0313715 0.122678 -0.0724224
0.0761316 0.0866567 -0.0511573
0.0742763 -0.00363221 0.00214425
0.0273636 -0.0917263 0.0541499
-0.0361474 -0.12418 0.0733091
-0.0777318 -0.0813079 0.0479999
-0.0721638 0.0108781 -0.00642183
-0.0225097 0.0951451 -0.0561684
-0.00271115 0.116759 0.00625882
-0.00657937 0.0824753 0.00442107
-0.00641899 -0.00345697 -0.000185309
-0.00236479 -0.0872997 -0.0046797
0.00312388 -0.118188 -0.00633541
0.00671765 -0.0773849 -0.0041482
0.00623643 0.0103533 0.000554983
0.00194531 0.0905542 0.00485413
-0.0351492 0.0400151 0.0811436
-0.0852991 0.0282656 0.0573178
-0.0832203 -0.00118476 -0.00240247
-0.0306586 -0.029919 -0.0606703
0.0405001 -0.0405047 -0.0821366
0.087092 -0.0265209 -0.0537799
0.0808533 0.00354823 0.00719519
0.0252203 0.0310343 0.0629322
-0.0462662 -0.0610014 0.106808
-0.112274 -0.0430842 0.0754433
-0.109537 0.00180588 -0.00316219
-0.0403536 0.0456045 -0.0798564
0.0533075 0.0617399 -0.108111
0.114633 0.0404247 -0.0707865
0.106422 -0.00540845 0.00947051
0.033197 -0.0473106 0.0828364
-0.0293188 -0.125015 0.0676838
-0.070172 -0.0870989 0.0471557
-0.0684598 0.00365039 -0.00197633
-0.0252208 0.0921854 -0.0499096
0.0333168 0.124802 -0.0675683
0.0716449 0.0817154 -0.0442411
0.0665141 -0.0109387 0.00592227
0.0210368 -0.0969575 0.0524932
0 -0.162354 0
0 -0.122807 0
0 0.00514695 0
0 0.129979 0
0 0.175968 0
0 0.115217 0
0 -0.0154233 0
0 -0.125916 0
-0.0028793 -0.0638721 -0.169637
-0.00698746 -0.0451768 -0.119827
-0.00681714 0.00189359 0.00502255
-0.00251144 0.0478199 0.126837
0.00331763 0.0647394 0.171713
0.00713432 0.0423885 0.112431
0.00662323 -0.00567086 -0.0150421
0.00206596 -0.049537 -0.131565
-0.00401206 0.0733534 -0.236375
-0.0097364 0.0518146 -0.166969
-0.00949906 -0.00217181 0.00699851
-0.00349949 -0.0548458 0.176736
0.00462285 -0.0742511 0.239267
0.00994104 -0.0486167 0.156663
0.00922895 0.00650436 -0.0209598
0.00287873 0.0568904 -0.183324
-0.00271115 0.166084 -0.15973
-0.00657937 0.117317 -0.11283
-0.00641899 -0.00491736 0.00472927
-0.00236479 -0.12418 0.119429
0.00312388 -0.168117 0.161685
0.00671765 -0.110076 0.105865
0.00623643 0.014727 -0.0141637
0.00194531 0.128809 -0.123881
0.000234301 0.15807 0.0138041
0.000568598 0.111657 0.00975084
0.000554737 -0.0046801 -0.000408705
0.000204366 -0.118188 -0.0103212
-0.000269969 -0.160005 -0.0139731
-0.000580548 -0.104764 -0.00914901
-0.000538959 0.0140164 0.00122404
-0.000168115 0.122594 0.010706
0.00303763 0.054173 0.178965
0.00737164 0.0382663 0.126417
0.00719203 -0.00160393 -0.00529872
0.00264954 -0.0405047 -0.133811
-0.00350008 -0.0548363 -0.181156
-0.00752658 -0.0359045 -0.118613
-0.00698747 0.00480363 0.0158692
-0.00217956 0.0420147 0.138799
0.00399838 -0.0825846 0.235569
0.00970281 -0.0583279 0.166393
0.00946631 0.00244482 -0.00697438
0.00348743 0.0617399 -0.176126
-0.0046069 0.0835844 -0.238442
-0.00990672 0.0547278 -0.156123
-0.0091971 -0.00732203 0.0208875
-0.00286891 -0.0640498 0.182699
0.00253376 -0.169247 0.149279
0.00606433 -0.117916 0.104004
0.00591636 0.00494195 -0.00435888
0.00217961 0.124802 -0.110078
-0.00287927 0.168959 -0.149025
-0.00619162 0.110628 -0.0975753
-0.00574822 -0.014809 0.0130618
-0.00181802 -0.131263 0.115776
0 -0.106303 0
0 -0.0804093 0
0 0.00337002 0
0 0.0851051 0
0 0.115217 0
0 0.0754392 0
0 -0.0100986 0
0 -0.0824448 0
-0.0373292 -0.0418209 -0.159461
-0.0905901 -0.0295799 -0.112639
-0.0883817 0.00123986 0.00472128
-0.0325602 0.0313105 0.119227
0.0430119 0.0423885 0.161412
0.0924941 0.0277545 0.105686
0.0858679 -0.00371305 -0.0141397
0.0267845 -0.0324349 -0.123672
-0.052015 0.0480289 -0.222194
-0.126229 0.0339261 -0.156952
-0.123152 -0.00142202 0.00657865
-0.0453698 -0.0359108 0.166133
0.0599335 -0.0486167 0.224915
0.128882 -0.0318322 0.147265
0.11965 0.00425879 -0.0197025
0.0373218 0.0372496 -0.172326
-0.0351492 0.108745 -0.150148
-0.0852991 0.0768145 -0.106061
-0.0832203 -0.00321967 0.00444553
-0.0306586 -0.0813079 0.112265
0.0405001 -0.110076 0.151986
0.087092 -0.0720736 0.099514
0.0808533 0.00964265 -0.0133139
0.0252203 0.0843389 -0.11645
0.00303763 0.103498 0.012976
0.00737164 0.0731084 0.0091659
0.00719203 -0.00306433 -0.000384187
0.00264954 -0.0773849 -0.00970206
-0.00350008 -0.104764 -0.0131347
-0.00752658 -0.0685956 -0.00860011
-0.00698747 0.00917739 0.00115061
-0.00217956 0.0802694 0.0100637
0.0393819 0.0354703 0.168229
0.0955716 0.0250553 0.118832
0.0932422 -0.00105019 -0.00498088
0.0343505 -0.0265209 -0.125784
-0.0453774 -0.0359045 -0.170287
-0.0975803 -0.0235088 -0.111498
-0.0905902 0.00314522 0.0149172
-0.0282573 0.0275096 0.130473
0.0518376 -0.0540731 0.221437
0.125794 -0.0381908 0.156411
0.122727 0.00160077 -0.00655595
0.0452133 0.0404247 -0.16556
-0.0597266 0.0547278 -0.224139
-0.128438 0.0358336 -0.146757
-0.119237 -0.00479418 0.0196345
-0.0371945 -0.0419372 0.171739
0.0328494 -0.110817 0.140324
0.0786221 -0.0772066 0.0977645
0.0767037 0.00323579 -0.00409739
0.0282579 0.0817154 -0.103474
-0.0373288 0.110628 -0.140084
-0.0802723 0.0724345 -0.0917218
-0.0745238 -0.00969635 0.0122782
-0.0235701 -0.0859455 0.10883
0 0.0142301 0
0 0.0107639 0
0 -0.000451123 0
0 -0.0113925 0
0 -0.0154233 0
0 -0.0100986 0
0 0.00135183 0
0 0.0110364 0
-0.0491357 0.00559831 -0.0525573
-0.119237 0.00395726 -0.037129
-0.11633 -0.000165868 0.00155626
-0.0428564 -0.00418875 0.0393009
0.0566138 -0.0056708 0.053206
0.121743 -0.00371301 0.0348372
0.113022 0.000496755 -0.00466082
0.0352559 0.00434185 -0.0407616
-0.0684664 -0.00642933 -0.073234
-0.166146 -0.00453894 -0.051736
-0.162096 0.000190249 0.00216851
-0.0597167 0.00480442 0.0547625
0.0788862 0.00650428 0.0741383
0.169637 0.00425875 0.0485429
0.157486 -0.000569796 -0.00649444
0.049126 -0.00498637 -0.0567978
-0.0462662 -0.014557 -0.049488
-0.112274 -0.0102769 -0.0349606
-0.109537 0.000430755 0.00146538
-0.0403536 0.010878 0.0370058
0.0533075 0.0147268 0.0500989
0.114633 0.00964254 0.0328029
0.106422 -0.00129011 -0.00438863
0.033197 -0.0112899 -0.0383812
0.00399838 -0.0138546 0.0042768
0.00970281 -0.00978104 0.00302134
0.00946632 0.000409969 -0.00012664
0.00348743 0.0103531 -0.00319808
-0.0046069 0.0140162 -0.0043296
-0.00990672 0.00917728 -0.00283485
-0.0091971 -0.00122786 0.000379271
-0.00286891 -0.0107452 0.00331694
0.0518376 -0.00474819 0.0554473
0.125794 -0.00335212 0.0391706
0.122727 0.000140503 -0.00164183
0.0452133 0.00354819 -0.041462
-0.0597266 0.00480358 -0.0561319
-0.128438 0.00314519 -0.036753
-0.119237 -0.000420807 0.00491712
-0.0371945 -0.00368253 0.043003
0.0682329 0.00723843 0.0729842
0.165573 0.00510953 0.0515575
0.161537 -0.000214165 -0.00216103
0.0595107 -0.00540839 -0.0545735
-0.0786138 -0.00732195 -0.0738824
-0.169052 -0.00479412 -0.0483752
-0.156943 0.000641429 0.00647206
-0.0489585 0.00561388 0.0566041
0.043239 0.0148343 0.0462499
0.103489 0.0103352 0.0322226
0.100964 -0.000433155 -0.00135048
0.0371953 -0.0109387 -0.0341044
-0.0491352 -0.014809 -0.046171
-0.105661 -0.00969635 -0.030231
-0.0980942 0.00129799 0.00404683
-0.0310248 0.011505 0.0358698
0 0.126131 0
0 0.0878764 0
0 -0.00368297 0
0 -0.0930083 0
0 -0.125916 0
0 -0.0824448 0
0 0.0110364 0
0 0.0978229 0
-0.0311372 0.0496217 0.0862265
-0.0745241 0.0345717 0.0600746
-0.0727057 -0.00144893 -0.00251777
-0.026785 -0.0365907 -0.0635829
0.0353831 -0.049537 -0.0860794
0.0760883 -0.0324349 -0.0563614
0.0706394 0.00434185 0.00754475
0.0223416 0.0384849 0.0668743
-0.043387 -0.0569876 0.120149
-0.103843 -0.0397036 0.0837087
-0.101309 0.00166401 -0.0035083
-0.0373226 0.0420223 -0.0885972
0.0493033 0.0568904 -0.119944
0.106022 0.0372496 -0.0785347
0.0984299 -0.00498637 0.0105129
0.031131 -0.0441976 0.0931836
-0.0293188 -0.129029 0.0811909
-0.070172 -0.0898953 0.0565663
-0.0684598 0.00376759 -0.00237074
-0.0252208 0.0951451 -0.0598697
0.0333168 0.128809 -0.0810525
0.0716448 0.0843389 -0.0530699
0.0665141 -0.0112899 0.00710414
0.0210368 -0.10007 0.0629689
0.00253376 -0.122803 -0.0070166
0.00606433 -0.0855577 -0.00488851
0.00591636 0.00358579 0.000204882
0.00217961 0.0905542 0.005174
-0.00287927 0.122594 0.00700463
-0.00619162 0.0802694 0.00458636
-0.00574821 -0.0107452 -0.000613947
-0.00181802 -0.0952418 -0.00544184
0.0328494 -0.0420865 -0.090968
0.0786221 -0.0293219 -0.063378
0.0767037 0.00122891 0.00265622
0.0282579 0.0310343 0.0670792
-0.0373288 0.0420147 0.0908128
-0.0802723 0.0275096 0.0594606
-0.0745237 -0.00368253 -0.00795962
-0.0235701 -0.0326408 -0.0705516
0.043239 0.0641592 -0.119739
0.103489 0.0447001 -0.0834232
0.100964 -0.00187342 0.00349633
0.0371953 -0.0473106 0.0882951
-0.0491352 -0.0640498 0.119535
-0.105661 -0.0419373 0.0782669
-0.0980942 0.00561388 -0.0104771
-0.0310248 0.0497597 -0.0928658
0.0274004 0.131487 -0.0758785
0.0655806 0.0916077 -0.0528651
0.0639804 -0.00383935 0.00221562
0.0235706 -0.0969575 0.0559523
-0.0311368 -0.131263 0.0757491
-0.066957 -0.0859455 0.0495975
-0.062162 0.011505 -0.00663931
-0.0196604 0.101977 -0.0588488
