# vtk DataFile Version 3.0
Velocity field
ASCII
DATASET STRUCTURED_POINTS
DIMENSIONS 5 5 5
SPACING 1.33333 1.33333 1.33333
ORIGIN 0 0 0
POINT_DATA 125
VECTORS velocity float
0 0.355042 0
0 0.0835192 0
0 -0.315748 0
0 -0.232071 0
0 0.206565 0
0 -0.188004 0.616601
0 -0.0442255 0.167164
0 0.167197 -0.631971
0 0.122887 -0.46449
0 -0.109381 0.358741
0 -0.443493 0.290096
0 -0.104326 0.0786464
0 0.39441 -0.297327
0 0.289886 -0.218531
0 -0.258026 0.168779
0 -0.0206489 -0.480119
0 -0.00485741 -0.130163
0 0.0183637 0.492086
0 0.013497 0.361677
0 -0.0120136 -0.279335
0 0.433778 -0.515979
0 0.102041 -0.121378
0 -0.38577 0.458874
0 -0.283536 0.337267
0 0.252374 -0.300199
0 0.0835192 0
0 0.0249995 0
0 -0.0945119 0
0 -0.0694651 0
0 0.0485917 0
0.263903 -0.0442255 0.21654
0.403493 -0.0107722 0.0530498
-0.0845729 0.0407515 -0.200711
-0.443309 0.0299558 -0.147542
-0.119247 -0.0257305 0.125984
0.12416 -0.104326 0.101877
0.189834 -0.0254837 0.0249587
-0.0397897 0.0964104 -0.0944295
-0.208566 0.0708703 -0.0694151
-0.0561027 -0.0606973 0.0592721
-0.205489 -0.00485741 -0.168609
-0.314124 -0.00119053 -0.0412999
0.0658409 0.00450446 0.156254
0.34512 0.00331125 0.114863
0.0928519 -0.00282605 -0.0980975
-0.220837 0.102041 -0.181203
-0.324736 0.0240038 -0.0426257
0.0680573 -0.0907477 0.161149
0.356755 -0.0666984 0.118442
0.0997872 0.0593678 -0.105425
0 -0.315748 0
0 -0.094512 0
0 0.357307 0
0 0.262616 0
0 -0.183703 0
0.12416 0.167197 -0.514725
0.189834 0.0407515 -0.12582
-0.0397897 -0.154167 0.476015
-0.208566 -0.113326 0.349916
-0.0561027 0.0972755 -0.299469
0.0584141 0.39441 -0.242165
0.0893119 0.0964104 -0.0591953
-0.01872 -0.364747 0.223953
-0.0981248 -0.268124 0.164626
-0.0263949 0.229469 -0.140893
-0.0966775 0.0183637 0.400792
-0.147788 0.00450446 0.097953
0.0309766 -0.0170433 -0.370583
0.16237 -0.0125287 -0.272413
0.0436845 0.010684 0.233182
-0.103898 -0.38577 0.430728
-0.15278 -0.0907477 0.101323
0.0320193 0.343076 -0.383058
0.167844 0.252156 -0.281543
0.0469474 -0.224443 0.250599
0 -0.232071 0
0 -0.0694651 0
0 0.262616 0
0 0.193019 0
0 -0.13502 0
-0.205489 0.122887 -0.458705
-0.314124 0.0299559 -0.112139
0.0658409 -0.113327 0.424255
0.34512 -0.0833049 0.311868
0.0928519 0.0714962 -0.266876
-0.0966775 0.289886 -0.215809
-0.147788 0.0708706 -0.0527587
0.0309766 -0.268125 0.199602
0.16237 -0.197097 0.146726
0.0436845 0.168657 -0.125559
0.160005 0.013497 0.357172
0.24455 0.00331126 0.087302
-0.0512578 -0.0125287 -0.330287
-0.26868 -0.00921003 -0.242793
-0.0722994 0.00785262 0.207804
0.171956 -0.283536 0.38385
0.252857 -0.0666984 0.0902959
-0.052993 0.252156 -0.341368
-0.277788 0.185332 -0.250901
-0.0776996 -0.164962 0.223325
0 0.206565 0
0 0.0485917 0
0 -0.183703 0
0 -0.13502 0
0 0.12018 0
-0.220837 -0.109381 0.298916
-0.324736 -0.0257305 0.0703162
0.0680572 0.0972755 -0.265834
0.356755 0.0714962 -0.195384
0.0997872 -0.0636383 0.17391
-0.103898 -0.258026 0.140632
-0.15278 -0.0606973 0.033082
0.0320192 0.229469 -0.125068
0.167844 0.168657 -0.0919234
0.0469474 -0.15012 0.0818204
0.171956 -0.0120136 -0.232752
0.252856 -0.00282605 -0.0547519
-0.052993 0.010684 0.206992
-0.277788 0.00785263 0.152137
-0.0776996 -0.00698957 -0.135416
0.184799 0.252374 -0.250136
0.271743 0.0593678 -0.0588414
-0.0569511 -0.224443 0.222453
-0.298537 -0.164962 0.1635
-0.0835031 0.146832 -0.14553
