# vtk DataFile Version 3.0
Velocity field
ASCII
DATASET STRUCTURED_POINTS
DIMENSIONS 8 8 8
SPACING 0.8 0.8 0.8
ORIGIN 0 0 0
POINT_DATA 512
VECTORS velocity float
0 0.000875007 0
0 0.000609623 0
0 -2.55498e-05 0
0 -0.000645225 0
0 -0.000873515 0
0 -0.000571943 0
0 7.65624e-05 0
0 0.000678626 0
0 0.00034424 0.000893076
0 0.000239834 0.000659692
0 -1.00516e-05 -2.76482e-05
0 -0.00025384 -0.000698217
0 -0.000343653 -0.000945257
0 -0.00022501 -0.000618917
0 3.01207e-05 8.28505e-05
0 0.00026698 0.000692639
0 -0.000395339 0.00124442
0 -0.000275435 0.000919223
0 1.15437e-05 -3.85254e-05
0 0.000291521 -0.000972906
0 0.000394665 -0.00131713
0 0.000258411 -0.000862407
0 -3.45918e-05 0.000115445
0 -0.000306612 0.000965132
0 -0.00089511 0.000840921
0 -0.000623629 0.000621166
0 2.61368e-05 -2.60336e-05
0 0.000660049 -0.000657442
0 0.000893584 -0.000890055
0 0.000585083 -0.000582772
0 -7.83214e-05 7.80121e-05
0 -0.000694217 0.000652189
0 -0.00085192 -7.26732e-05
0 -0.000593538 -5.36818e-05
0 2.48757e-05 2.24985e-06
0 0.0006282 5.68167e-05
0 0.000850467 7.69194e-05
0 0.000556852 5.03637e-05
0 -7.45423e-05 -6.74188e-06
0 -0.00066072 -5.63628e-05
0 -0.000291966 -0.000942185
0 -0.000203415 -0.000695967
0 8.52527e-06 2.91686e-05
0 0.000215294 0.000736611
0 0.000291468 0.000997235
0 0.000190842 0.00065295
0 -2.55468e-05 -8.74063e-05
0 -0.000226439 -0.000730726
0 0.000445091 -0.00124018
0 0.000310098 -0.000916088
0 -1.29964e-05 3.8394e-05
0 -0.000328207 0.000969587
0 -0.000444332 0.00131264
0 -0.000290931 0.000859465
0 3.89451e-05 -0.000115051
0 0.000345197 -0.000961841
0 0.000912161 -0.000785898
0 0.000635509 -0.000547541
0 -2.66347e-05 2.29479e-05
0 -0.000672622 0.000579516
0 -0.000910606 0.000784558
0 -0.000596228 0.000513697
0 7.98133e-05 -6.87654e-05
0 0.000707441 -0.000609516
0 0.000609623 0
0 0.00046113 0
0 -1.93263e-05 0
0 -0.000488059 0
0 -0.000660742 0
0 -0.000432628 0
0 5.79131e-05 0
0 0.000472803 0
0.000190375 0.000239834 0.000882116
0.000455681 0.000167108 0.000614625
0.000444562 -7.00365e-06 -2.57594e-05
0.000163778 -0.000176867 -0.000650519
-0.000216352 -0.000239446 -0.000880682
-0.000465245 -0.000156779 -0.000576635
-0.000431928 2.09871e-05 7.71906e-05
-0.000136598 0.000186007 0.000684139
0.000265271 -0.000275435 0.00122915
0.000634952 -0.000191913 0.000856427
0.000619459 8.04322e-06 -3.58935e-05
0.000228211 0.00020312 -0.000906442
-0.000301467 0.000274987 -0.00122715
-0.000648279 0.000180051 -0.000803492
-0.000601854 -2.41023e-05 0.000107558
-0.000190337 -0.000213618 0.000953288
0.000179257 -0.000623629 0.000830601
0.00042907 -0.000434521 0.000578732
0.0004186 1.82111e-05 -2.42551e-05
0.000154214 0.000459896 -0.000612529
-0.000203717 0.000622615 -0.000829251
-0.000438076 0.000407663 -0.000542961
-0.000406703 -5.45713e-05 7.26827e-05
-0.00012862 -0.000483666 0.000644186
-1.54916e-05 -0.000593538 -7.17813e-05
-3.70806e-05 -0.000413554 -5.00146e-05
-3.61759e-05 1.73324e-05 2.09615e-06
-1.33273e-05 0.000437706 5.29354e-05
1.76054e-05 0.000592572 7.16647e-05
3.78589e-05 0.000387993 4.69232e-05
3.51477e-05 -5.19382e-05 -6.28131e-06
1.11155e-05 -0.000460328 -5.56712e-05
-0.000200843 -0.000203415 -0.000930622
-0.000480738 -0.000141731 -0.000648423
-0.000469008 5.94008e-06 2.71759e-05
-0.000172784 0.000150008 0.00068629
0.000228249 0.000203084 0.00092911
0.000490829 0.000132971 0.000608344
0.000455679 -1.78e-05 -8.14352e-05
0.000144109 -0.000157761 -0.000721759
-0.000264366 0.000310098 -0.00122496
-0.000632786 0.000216064 -0.000853506
-0.000617347 -9.05542e-06 3.57711e-05
-0.000227432 -0.000228682 0.00090335
0.000300439 -0.000309593 0.00122297
0.000646068 -0.000202709 0.000800751
0.000599801 2.71354e-05 -0.000107192
0.000189688 0.000240501 -0.000950037
-0.000167528 0.000635509 -0.000776253
-0.000400964 0.000442763 -0.000540821
-0.00039118 -1.85566e-05 2.26663e-05
-0.000144112 -0.00046862 0.000572404
0.000190373 -0.000634425 0.00077493
0.00040938 -0.000415396 0.000507393
0.000380063 5.56065e-05 -6.79215e-05
0.000120205 0.000492879 -0.000602036
0 -2.55498e-05 0
0 -1.93263e-05 0
0 8.09982e-07 0
0 2.0455e-05 0
0 2.76922e-05 0
0 1.81318e-05 0
0 -2.42719e-06 0
0 -1.98156e-05 0
0.000265271 -1.00516e-05 0.000336076
0.000634952 -7.00365e-06 0.000234165
0.000619459 2.93529e-07 -9.81403e-06
0.000228211 7.41265e-06 -0.00024784
-0.000301467 1.00354e-05 -0.000335529
-0.000648279 6.57075e-06 -0.000219691
-0.000601854 -8.79586e-07 2.94087e-05
-0.000190337 -7.79571e-06 0.000260649
0.000369632 1.15437e-05 0.000468293
0.000884751 8.04322e-06 0.000326288
0.000863163 -3.37098e-07 -1.3675e-05
0.000317992 -8.51293e-06 -0.000345343
-0.000420069 -1.15249e-05 -0.000467531
-0.000903321 -7.54607e-06 -0.000306121
-0.000838631 1.01014e-06 4.09784e-05
-0.000265218 8.95292e-06 0.000363192
0.000249779 2.61368e-05 0.00031645
0.000597871 1.82111e-05 0.00022049
0.000583283 -7.63243e-07 -9.2409e-06
0.000214883 -1.92746e-05 -0.000233366
-0.000283862 -2.60943e-05 -0.000315935
-0.00061042 -1.70855e-05 -0.000206861
-0.000566706 2.28713e-06 2.76912e-05
-0.000179222 2.02708e-05 0.000245427
-2.15862e-05 2.48757e-05 -2.73479e-05
-5.16686e-05 1.73324e-05 -1.90549e-05
-5.04079e-05 -7.26415e-07 7.98608e-07
-1.85704e-05 -1.83446e-05 2.01677e-05
2.45316e-05 -2.48352e-05 2.73034e-05
5.27531e-05 -1.62611e-05 1.78772e-05
4.89753e-05 2.17677e-06 -2.3931e-06
1.54885e-05 1.92927e-05 -2.12101e-05
-0.000279858 8.52527e-06 -0.000354556
-0.000669867 5.94008e-06 -0.000247041
-0.000653522 -2.48954e-07 1.03537e-05
-0.00024076 -6.28697e-06 0.000261468
0.000318044 -8.5114e-06 0.000353979
0.000683927 -5.57292e-06 0.000231772
0.000634949 7.46012e-07 -3.10258e-05
0.000200803 6.61191e-06 -0.000274982
-0.000368371 -1.29964e-05 -0.000466696
-0.000881733 -9.05542e-06 -0.000325175
-0.000860219 3.7952e-07 1.36284e-05
-0.000316907 9.58425e-06 0.000344165
0.000418636 1.29753e-05 0.000465936
0.00090024 8.49571e-06 0.000305077
0.000835771 -1.13727e-06 -4.08387e-05
0.000264314 -1.00796e-05 -0.000361953
-0.000233436 -2.66347e-05 -0.000295744
-0.000558708 -1.85566e-05 -0.000206047
-0.000545076 7.77721e-07 8.63558e-06
-0.000200808 1.96403e-05 0.00021808
0.000265268 2.65893e-05 0.00029524
0.000570435 1.74096e-05 0.000193311
0.000529584 -2.33051e-06 -2.58773e-05
0.000167495 -2.0657e-05 -0.000229369
0 -0.000645225 0
0 -0.000488059 0
0 2.0455e-05 0
0 0.000516562 0
0 0.000699329 0
0 0.000457893 0
0 -6.12952e-05 0
0 -0.000500414 0
0.000179257 -0.00025384 -0.000413823
0.00042907 -0.000176867 -0.000288336
0.0004186 7.41265e-06 1.20844e-05
0.000154214 0.000187196 0.000305174
-0.000203717 0.000253429 0.000413149
-0.000438076 0.000165935 0.000270514
-0.000406703 -2.22127e-05 -3.6212e-05
-0.00012862 -0.00019687 -0.000320947
0.000249779 0.000291521 -0.000576626
0.000597871 0.00020312 -0.000401771
0.000583283 -8.51293e-06 1.68385e-05
0.000214883 -0.000214982 0.000425234
-0.000283862 -0.000291046 0.000575688
-0.00061042 -0.000190565 0.000376937
-0.000566706 2.55098e-05 -5.04583e-05
-0.000179222 0.000226093 -0.000447212
0.000168789 0.000660049 -0.000389656
0.000404012 0.000459896 -0.000271497
0.000394154 -1.92746e-05 1.13787e-05
0.000145208 -0.000486754 0.000287352
-0.00019182 -0.000658975 0.000389022
-0.000412492 -0.00043147 0.000254716
-0.000382952 5.77582e-05 -3.40972e-05
-0.000121109 0.000511911 -0.000302204
-1.45869e-05 0.0006282 3.36744e-05
-3.49151e-05 0.000437706 2.34631e-05
-3.40632e-05 -1.83446e-05 -9.83355e-07
-1.2549e-05 -0.000463267 -2.48333e-05
1.65773e-05 -0.000627178 -3.36196e-05
3.5648e-05 -0.000410651 -2.20128e-05
3.30951e-05 5.49713e-05 2.94672e-06
1.04664e-05 0.000487211 2.61168e-05
-0.000189114 0.000215294 0.000436578
-0.000452664 0.000150008 0.000304191
-0.000441619 -6.28697e-06 -1.27489e-05
-0.000162694 -0.000158769 -0.000321955
0.000214919 -0.000214943 -0.000435868
0.000462165 -0.000140736 -0.000285389
0.000429067 1.88395e-05 3.82032e-05
0.000135693 0.000166975 0.000338595
-0.000248927 -0.000328207 0.00057466
-0.000595832 -0.000228682 0.000400401
-0.000581294 9.58425e-06 -1.67811e-05
-0.000214151 0.000242037 -0.000423784
0.000282894 0.000327673 -0.000573724
0.000608338 0.000214547 -0.000375652
0.000564773 -2.87201e-05 5.02862e-05
0.00017861 -0.000254546 0.000445686
-0.000157744 -0.000672622 0.00036416
-0.000377548 -0.00046862 0.000253713
-0.000368336 1.96403e-05 -1.06333e-05
-0.000135696 0.000495987 -0.000268529
0.000179255 0.000671475 -0.000363539
0.000385472 0.000439655 -0.000238031
0.000357867 -5.88539e-05 3.18637e-05
0.000113185 -0.000521663 0.00028243
0 -0.000873515 0
0 -0.000660742 0
0 2.76922e-05 0
0 0.000699329 0
0 0.000946762 0
0 0.000619902 0
0 -8.29824e-05 0
0 -0.000677468 0
-1.54916e-05 -0.000343653 -0.000912702
-3.70806e-05 -0.000239446 -0.000635935
-3.61759e-05 1.00354e-05 2.66526e-05
-1.33273e-05 0.000253429 0.000673073
1.76054e-05 0.000343096 0.000911217
3.78589e-05 0.000224646 0.000596629
3.51477e-05 -3.00719e-05 -7.98669e-05
1.11155e-05 -0.000266525 -0.000707861
-2.15862e-05 0.000394665 -0.00127177
-5.16686e-05 0.000274987 -0.000886121
-5.04079e-05 -1.15249e-05 3.71381e-05
-1.85704e-05 -0.000291046 0.00093787
2.45316e-05 -0.000394023 0.0012697
5.27531e-05 -0.00025799 0.00083135
4.89753e-05 3.45356e-05 -0.000111288
1.54885e-05 0.000306089 -0.000986342
-1.45869e-05 0.000893584 -0.000859401
-3.49151e-05 0.000622615 -0.000598797
-3.40632e-05 -2.60943e-05 2.50961e-05
-1.2549e-05 -0.000658975 0.000633767
1.65773e-05 -0.00089213 0.000858003
3.5648e-05 -0.000584131 0.000561786
3.30951e-05 7.8194e-05 -7.52027e-05
1.04664e-05 0.000693033 -0.000666522
1.26061e-06 0.000850467 7.42703e-05
3.0174e-06 0.000592572 5.17487e-05
2.94378e-06 -2.48352e-05 -2.16883e-06
1.0845e-06 -0.000627178 -5.47707e-05
-1.43262e-06 -0.000849083 -7.41494e-05
-3.08073e-06 -0.000555946 -4.85501e-05
-2.86011e-06 7.4421e-05 6.4991e-06
-9.04514e-07 0.000659593 5.76015e-05
1.63434e-05 0.000291468 0.00096289
3.91196e-05 0.000203084 0.000670905
3.81651e-05 -8.5114e-06 -2.81182e-05
1.40601e-05 -0.000214943 -0.000710085
-1.85735e-05 -0.000290994 -0.000961323
-3.99407e-05 -0.000190531 -0.000629436
-3.70804e-05 2.55052e-05 8.42587e-05
-1.17267e-05 0.000226053 0.000746785
2.15125e-05 -0.000444332 0.00126743
5.14924e-05 -0.000309593 0.000883099
5.0236e-05 1.29753e-05 -3.70114e-05
1.85071e-05 0.000327673 -0.000934671
-2.4448e-05 0.000443609 -0.00126537
-5.25732e-05 0.000290457 -0.000828515
-4.88083e-05 -3.88817e-05 0.000110908
-1.54357e-05 -0.000344608 0.000982978
1.36324e-05 -0.000910606 0.000803169
3.2628e-05 -0.000634425 0.000559574
3.18319e-05 2.65893e-05 -2.34522e-05
1.1727e-05 0.000671475 -0.000592252
-1.54914e-05 0.000909053 -0.0008018
-3.33129e-05 0.000595212 -0.000524987
-3.09272e-05 -7.96772e-05 7.02767e-05
-9.78155e-06 -0.000706235 0.000622911
0 -0.000571943 0
0 -0.000432628 0
0 1.81318e-05 0
0 0.000457893 0
0 0.000619902 0
0 0.000405887 0
0 -5.43336e-05 0
0 -0.000443579 0
-0.000200843 -0.00022501 -0.000857949
-0.000480738 -0.000156779 -0.000597785
-0.000469008 6.57075e-06 2.50537e-05
-0.000172784 0.000165935 0.000632695
0.000228249 0.000224646 0.000856553
0.000490829 0.000147089 0.000560836
0.000455679 -1.96899e-05 -7.50756e-05
0.000144109 -0.00017451 -0.000665396
-0.000279858 0.000258411 -0.00119548
-0.000669867 0.000180051 -0.000832962
-0.000653522 -7.54607e-06 3.49101e-05
-0.00024076 -0.000190565 0.000881606
0.000318044 -0.00025799 0.00119353
0.000683927 -0.000168922 0.000781477
0.000634949 2.26125e-05 -0.000104611
0.000200803 0.000200415 -0.000927171
-0.000189114 0.000585083 -0.000807845
-0.000452664 0.000407663 -0.000562875
-0.000441619 -1.70855e-05 2.35906e-05
-0.000162694 -0.00043147 0.000595746
0.000214919 -0.000584131 0.000806531
0.000462165 -0.000382466 0.000528084
0.000429067 5.11983e-05 -7.06913e-05
0.000135693 0.000453771 -0.000626537
1.63434e-05 0.000556852 6.98148e-05
3.91196e-05 0.000387993 4.86442e-05
3.81651e-05 -1.62611e-05 -2.03872e-06
1.40601e-05 -0.000410651 -5.1485e-05
-1.85735e-05 -0.000555946 -6.97011e-05
-3.99407e-05 -0.000364011 -4.56376e-05
-3.70804e-05 4.87279e-05 6.10921e-06
-1.17267e-05 0.000431875 5.4146e-05
0.000211887 0.000190842 0.000905126
0.000507173 0.000132971 0.000630657
0.000494798 -5.57292e-06 -2.64313e-05
0.000182285 -0.000140736 -0.000667486
-0.0002408 -0.000190531 -0.000903653
-0.000517819 -0.000124752 -0.000591676
-0.000480736 1.66998e-05 7.9204e-05
-0.000152033 0.00014801 0.000701985
0.000278903 -0.000290931 0.0011914
0.000667582 -0.000202709 0.000830121
0.000651293 8.49571e-06 -3.4791e-05
0.000239939 0.000214547 -0.0008786
-0.00031696 0.000290457 -0.00118946
-0.000681595 0.00019018 -0.000778812
-0.000632783 -2.54582e-05 0.000104255
-0.000200119 -0.000225636 0.000924009
0.00017674 -0.000596228 0.000754987
0.000423012 -0.000415396 0.000526004
0.000412691 1.74096e-05 -2.20453e-05
0.000152037 0.000439655 -0.000556723
-0.000200841 0.000595212 -0.000753699
-0.000431891 0.000389721 -0.000493492
-0.000400962 -5.21695e-05 6.60607e-05
-0.000126815 -0.000462414 0.000585542
0 7.65624e-05 0
0 5.79131e-05 0
0 -2.42719e-06 0
0 -6.12952e-05 0
0 -8.29824e-05 0
0 -5.43336e-05 0
0 7.27329e-06 0
0 5.93792e-05 0
-0.000264366 3.01207e-05 -0.000282775
-0.000632786 2.09871e-05 -0.000197027
-0.000617347 -8.79586e-07 8.25754e-06
-0.000227432 -2.22127e-05 0.000208533
0.000300439 -3.00719e-05 0.000282315
0.000646068 -1.96899e-05 0.000184848
0.000599801 2.63576e-06 -2.47445e-05
0.000189688 2.33606e-05 -0.000219311
-0.000368371 -3.45918e-05 -0.000394022
-0.000881733 -2.41023e-05 -0.000274539
-0.000860219 1.01014e-06 1.15062e-05
-0.000316907 2.55098e-05 0.000290572
0.000418636 3.45356e-05 0.000393381
0.00090024 2.26125e-05 0.00025757
0.000835771 -3.02699e-06 -3.44793e-05
0.000264314 -2.68283e-05 -0.00030559
-0.000248927 -7.83214e-05 -0.000266261
-0.000595832 -5.45713e-05 -0.00018552
-0.000581294 2.28713e-06 7.77531e-06
-0.000214151 5.77582e-05 0.000196355
0.000282894 7.8194e-05 0.000265828
0.000608338 5.11983e-05 0.000174053
0.000564773 -6.8536e-06 -2.32994e-05
0.00017861 -6.07434e-05 -0.000206503
2.15125e-05 -7.45423e-05 2.30105e-05
5.14924e-05 -5.19382e-05 1.60329e-05
5.0236e-05 2.17677e-06 -6.7195e-07
1.85071e-05 5.49713e-05 -1.69692e-05
-2.4448e-05 7.4421e-05 -2.29731e-05
-5.25732e-05 4.87279e-05 -1.50419e-05
-4.88083e-05 -6.5229e-06 2.01356e-06
-1.54357e-05 -5.78124e-05 1.78462e-05
0.000278903 -2.55468e-05 0.000298324
0.000667582 -1.78e-05 0.000207861
0.000651293 7.46012e-07 -8.71161e-06
0.000239939 1.88395e-05 -0.00022
-0.00031696 2.55052e-05 -0.000297839
-0.000681595 1.66998e-05 -0.000195013
-0.000632783 -2.2355e-06 2.61052e-05
-0.000200119 -1.98132e-05 0.00023137
0.000367115 3.89451e-05 0.000392678
0.000878726 2.71354e-05 0.000273603
0.000857285 -1.13727e-06 -1.14669e-05
0.000315827 -2.87201e-05 -0.000289581
-0.000417208 -3.88817e-05 -0.00039204
-0.00089717 -2.54582e-05 -0.000256692
-0.00083292 3.40793e-06 3.43617e-05
-0.000263412 3.02045e-05 0.000304548
0.00023264 7.98133e-05 0.000248839
0.000556803 5.56065e-05 0.000173368
0.000543217 -2.33051e-06 -7.26599e-06
0.000200123 -5.88539e-05 -0.000183493
-0.000264363 -7.96772e-05 -0.000248415
-0.00056849 -5.21695e-05 -0.000162652
-0.000527778 6.9836e-06 2.17732e-05
-0.000166924 6.19005e-05 0.000192991
0 0.000678626 0
0 0.000472803 0
0 -1.98156e-05 0
0 -0.000500414 0
0 -0.000677468 0
0 -0.000443579 0
0 5.93792e-05 0
0 0.000526319 0
-0.000167528 0.00026698 0.000463926
-0.000400964 0.000186007 0.00032322
-0.00039118 -7.79571e-06 -1.35464e-05
-0.000144112 -0.00019687 -0.000342096
0.000190373 -0.000266525 -0.000463135
0.00040938 -0.00017451 -0.000303242
0.000380063 2.33606e-05 4.05931e-05
0.000120205 0.000207061 0.000359805
-0.000233436 -0.000306612 0.000646441
-0.000558708 -0.000213618 0.00045038
-0.000545076 8.95292e-06 -1.88758e-05
-0.000200808 0.000226093 -0.000476681
0.000265268 0.000306089 -0.000645338
0.000570435 0.000200415 -0.000422542
0.000529584 -2.68283e-05 5.6563e-05
0.000167495 -0.000237797 0.000501357
-0.000157744 -0.000694217 0.000436833
-0.000377548 -0.000483666 0.000304345
-0.000368336 2.02708e-05 -1.27553e-05
-0.000135696 0.000511911 -0.000322118
0.000179255 0.000693033 -0.000436088
0.000385472 0.000453771 -0.000285533
0.000357867 -6.07434e-05 3.82225e-05
0.000113185 -0.000538411 0.000338793
1.36324e-05 -0.00066072 -3.77516e-05
3.2628e-05 -0.000460328 -2.63018e-05
3.18319e-05 1.92927e-05 1.10233e-06
1.1727e-05 0.000487211 2.78378e-05
-1.54914e-05 0.000659593 3.76872e-05
-3.33129e-05 0.000431875 2.46761e-05
-3.09272e-05 -5.78124e-05 -3.30323e-06
-9.78155e-06 -0.000512432 -2.92788e-05
0.00017674 -0.000226439 -0.000489437
0.000423012 -0.000157761 -0.000340994
0.000412691 6.61191e-06 1.42913e-05
0.000152037 0.000166975 0.000360908
-0.000200841 0.000226053 0.000488602
-0.000431891 0.00014801 0.000319917
-0.000400962 -1.98132e-05 -4.28253e-05
-0.000126815 -0.000175618 -0.00037959
0.00023264 0.000345197 -0.000644236
0.000556803 0.000240501 -0.000448844
0.000543217 -1.00796e-05 1.88114e-05
0.000200123 -0.000254546 0.000475056
-0.000264363 -0.000344608 0.000643137
-0.00056849 -0.000225636 0.000421101
-0.000527778 3.02045e-05 -5.63701e-05
-0.000166924 0.000267723 -0.000499647
0.000147423 0.000707441 -0.000408251
0.000352844 0.000492879 -0.000284431
0.000344235 -2.0657e-05 1.19207e-05
0.000126817 -0.000521663 0.000301041
-0.000167526 -0.000706235 0.000407554
-0.00036025 -0.000462414 0.00026685
-0.000334452 6.19005e-05 -3.57216e-05
-0.000105779 0.000548667 -0.000316625
