# vtk DataFile Version 3.0
Velocity field
ASCII
DATASET STRUCTURED_POINTS
DIMENSIONS 5 5 5
SPACING 1.33333 1.33333 1.33333
ORIGIN 0 0 0
POINT_DATA 125
VECTORS velocity float
0 0.022002 0
0 0.00517569 0
0 -0.0195669 0
0 -0.0143814 0
0 0.0128008 0
0 -0.0116506 0.0382108
0 -0.00274066 0.0103592
0 0.0103612 -0.0391633
0 0.00761533 -0.0287845
0 -0.00677836 0.0222312
0 -0.0274833 0.0179772
0 -0.0064651 0.00487372
0 0.0244416 -0.0184253
0 0.0179643 -0.0135424
0 -0.0159899 0.0104592
0 -0.00127962 -0.029753
0 -0.000301014 -0.00806619
0 0.001138 0.0304946
0 0.000836413 0.0224131
0 -0.000744485 -0.0173104
0 0.0268813 -0.0319753
0 0.00632348 -0.00752179
0 -0.0239062 0.0284365
0 -0.0175708 0.0209004
0 0.0156396 -0.0186033
0 0.00517569 0
0 0.00154922 0
0 -0.00585691 0
0 -0.00430475 0
0 0.00301123 0
0.0163541 -0.00274066 0.013419
0.0241076 -0.000646159 0.00316498
-0.00505242 0.00244284 -0.0119654
-0.0264847 0.00179546 -0.00879442
-0.00738974 -0.00159452 0.00780721
0.0076942 -0.0064651 0.00631329
0.011342 -0.00152458 0.00148904
-0.00237704 0.00576376 -0.00562942
-0.0124604 0.00423629 -0.00413756
-0.00347669 -0.00376141 0.0036731
-0.0127342 -0.000301014 -0.0104487
-0.0187715 -7.09852e-05 -0.00246442
0.00393408 0.000268364 0.00931689
0.0206224 0.000197244 0.0068478
0.00575404 -0.000175131 -0.00607911
-0.0136853 0.00632348 -0.0112292
-0.0201239 0.00148752 -0.00264152
0.00421751 -0.00562364 0.00998639
0.0221081 -0.0041333 0.00733987
0.00618382 0.00367902 -0.00653317
0 -0.0195669 0
0 -0.00585691 0
0 0.0221423 0
0 0.0162743 0
0 -0.0113841 0
0.0076942 0.0103612 -0.0318975
0.011342 0.00244284 -0.007522
-0.00237704 -0.0092353 0.0284373
-0.0124604 -0.00678783 0.0209011
-0.00347669 0.00602816 -0.0185581
0.00361993 0.0244416 -0.015007
0.00533615 0.00576376 -0.00353891
-0.00111834 -0.0217902 0.0133791
-0.00586231 -0.0160156 0.00983346
-0.00163569 0.0142202 -0.00873113
-0.00599111 0.001138 0.0248371
-0.00883151 0.000268364 0.00585702
0.00185089 -0.00101456 -0.0221428
0.00970231 -0.000745691 -0.0162747
0.00270713 0.00066209 0.0144503
-0.0064386 -0.0239062 0.0266922
-0.0094678 -0.00562364 0.00627902
0.00198424 0.0212604 -0.0237381
0.0104013 0.0156261 -0.0174472
0.00290933 -0.0139087 0.0155296
0 -0.0143814 0
0 -0.00430476 0
0 0.0162743 0
0 0.0119614 0
0 -0.00836717 0
-0.0127342 0.00761533 -0.028426
-0.0187715 0.00179546 -0.00670335
0.00393408 -0.00678783 0.0253424
0.0206224 -0.00498897 0.0186263
0.00575404 0.00443062 -0.0165383
-0.00599111 0.0179643 -0.0133737
-0.00883151 0.00423629 -0.00315376
0.00185089 -0.0160156 0.011923
0.00970231 -0.0117712 0.00876323
0.00270713 0.0104517 -0.00778088
0.0099155 0.000836413 0.022134
0.0146165 0.000197244 0.00521958
-0.00306328 -0.000745691 -0.0197329
-0.0160577 -0.000548074 -0.0145034
-0.0044804 0.000486627 0.0128776
0.0106561 -0.0175708 0.0237872
0.0156695 -0.0041333 0.00559564
-0.00328398 0.0156261 -0.0211546
-0.0172146 0.011485 -0.0155484
-0.00481505 -0.0102227 0.0138395
0 0.0128008 0
0 0.00301123 0
0 -0.0113841 0
0 -0.00836717 0
0 0.00744756 0
-0.0136853 -0.00677836 0.0185238
-0.0201239 -0.00159452 0.0043575
0.00421751 0.00602817 -0.0164737
0.0221081 0.00443063 -0.012108
0.00618382 -0.00394367 0.0107772
-0.0064386 -0.0159899 0.008715
-0.00946778 -0.00376142 0.00205009
0.00198423 0.0142202 -0.00775048
0.0104013 0.0104517 -0.0056965
0.00290933 -0.00930296 0.00507042
0.0106561 -0.000744485 -0.0144236
0.0156695 -0.000175131 -0.00339298
-0.00328398 0.00066209 0.0128273
-0.0172145 0.000486628 0.00942792
-0.00481505 -0.000433144 -0.00839172
0.011452 0.0156396 -0.015501
0.0168399 0.00367902 -0.00364641
-0.00352927 -0.0139087 0.0137854
-0.0185004 -0.0102227 0.0101321
-0.00517469 0.00909918 -0.00901851
