# vtk DataFile Version 3.0
Velocity field
ASCII
DATASET STRUCTURED_POINTS
DIMENSIONS 8 8 8
SPACING 0.8 0.8 0.8
ORIGIN 0 0 0
POINT_DATA 512
VECTORS velocity float
0 0.15923 0
0 0.110937 0
0 -0.00464945 0
0 -0.117415 0
0 -0.158959 0
0 -0.10408 0
0 0.0139325 0
0 0.123494 0
0 0.0626433 0.162518
0 0.043644 0.120048
0 -0.00182916 -0.00503131
0 -0.0461928 -0.127059
0 -0.0625365 -0.172014
0 -0.0409464 -0.112628
0 0.00548124 0.0150768
0 0.048584 0.126044
0 -0.0719422 0.226455
0 -0.0501226 0.167277
0 0.00210068 -0.00701069
0 0.0530497 -0.177045
0 0.0718195 -0.239687
0 0.0470246 -0.156937
0 -0.00629488 0.0210082
0 -0.0557959 0.175631
0 -0.162889 0.153027
0 -0.113486 0.113037
0 0.00475627 -0.00473749
0 0.120113 -0.119639
0 0.162611 -0.161969
0 0.106471 -0.106051
0 -0.0142526 0.0141963
0 -0.126331 0.118683
0 -0.155029 -0.0132248
0 -0.10801 -0.0097688
0 0.00452677 0.000409418
0 0.114317 0.0103393
0 0.154765 0.0139975
0 0.101334 0.009165
0 -0.0135649 -0.00122686
0 -0.120235 -0.0102567
0 -0.0531308 -0.171455
0 -0.0370166 -0.126649
0 0.00155139 0.00530797
0 0.0391783 0.134045
0 0.0530402 0.181473
0 0.0347286 0.118821
0 -0.0046489 -0.0159058
0 -0.0412064 -0.132975
0 0.0809958 -0.225683
0 0.0564303 -0.166706
0 -0.00236504 0.00698679
0 -0.0597258 0.176442
0 -0.0808577 0.238869
0 -0.0529424 0.156402
0 0.00708706 -0.0209366
0 0.0628176 -0.175032
0 0.165991 -0.143015
0 0.115647 -0.0996392
0 -0.00484687 0.00417596
0 -0.122401 0.105458
0 -0.165708 0.142771
0 -0.108499 0.0934805
0 0.0145241 -0.0125137
0 0.128737 -0.110917
0 0.110937 0
0 0.0839145 0
0 -0.00351692 0
0 -0.088815 0
0 -0.120239 0
0 -0.0787278 0
0 0.0105388 0
0 0.0860387 0
0.0346436 0.043644 0.160524
0.0840481 0.030857 0.113396
0.0819996 -0.00129337 -0.004753
0.0302089 -0.0326621 -0.120029
-0.039906 -0.0442185 -0.162498
-0.0858144 -0.0289524 -0.106397
-0.0796675 0.00387346 0.0142349
-0.0248575 0.0338488 0.124497
0.0482729 -0.0501226 0.223676
0.117114 -0.0353921 0.158008
0.114259 0.00148345 -0.00662288
0.0420934 0.037462 -0.16725
-0.0556059 0.0507166 -0.226427
-0.119575 0.0332072 -0.148255
-0.11101 -0.00444291 0.0198351
-0.0346368 -0.0388734 0.173475
0.0326204 -0.113486 0.151149
0.0791398 -0.0801333 0.106774
0.0772111 0.00335878 -0.00447543
0.0284446 0.0848204 -0.11302
-0.0375756 0.114831 -0.153008
-0.0808031 0.0751869 -0.100184
-0.0750151 -0.0100595 0.0134036
-0.0234058 -0.0880155 0.117226
-0.00281909 -0.10801 -0.0130625
-0.00683938 -0.0762667 -0.00922754
-0.00667266 0.0031967 0.000386771
-0.00245822 0.0807277 0.00976732
0.00324732 0.109291 0.0132231
0.00698312 0.0715593 0.00865795
0.00648287 -0.0095741 -0.00115835
0.00202276 -0.0837686 -0.0101308
-0.0365486 -0.0370166 -0.169351
-0.0886703 -0.0261379 -0.119632
-0.0865085 0.00109556 0.00501435
-0.0318701 0.0276667 0.12663
0.0421003 0.0374555 0.171433
0.0905338 0.0245243 0.112248
0.0840481 -0.0032812 -0.0150177
0.0262244 -0.0287088 -0.131343
-0.0481082 0.0564303 -0.222913
-0.11671 0.0398411 -0.157463
-0.113865 -0.00166993 0.00660004
-0.0419482 -0.0421715 0.166673
0.0554141 -0.0570923 0.225645
0.119163 -0.0373817 0.147744
0.110627 0.00500146 -0.0197668
0.0345186 0.0437654 -0.172884
-0.0304861 0.115647 -0.141259
-0.0729657 0.0805722 -0.0984164
-0.0711854 -0.00337685 0.00412471
-0.0262249 -0.0852776 0.104164
0.0346432 -0.11545 0.141019
0.0744972 -0.0755921 0.0923333
0.0691622 0.010119 -0.0123601
0.0218744 0.0896921 -0.109556
0 -0.00464945 0
0 -0.00351692 0
0 0.000147397 0
0 0.00372231 0
0 0.00503932 0
0 0.00329955 0
0 -0.000441689 0
0 -0.00360595 0
0.0482729 -0.00182916 0.0611578
0.117114 -0.00129337 0.0431881
0.114259 5.4212e-05 -0.00181022
0.0420934 0.00136904 -0.0457145
-0.0556059 0.00185342 -0.0618888
-0.119575 0.00121355 -0.0405223
-0.11101 -0.000162355 0.00542156
-0.0346368 -0.00141863 0.0474319
0.0672641 0.00210068 0.085218
0.163188 0.00148345 0.0601789
0.15921 -6.21785e-05 -0.00252239
0.0586536 -0.00157021 -0.0636991
-0.0774819 -0.00212578 -0.0862364
-0.166617 -0.00139188 -0.0564646
-0.154683 0.000186223 0.00755448
-0.0482633 0.00162921 0.0660922
0.0454538 0.00475627 0.0575862
0.110275 0.00335878 0.0406659
0.107587 -0.000140783 -0.00170451
0.0396352 -0.00355523 -0.0430446
-0.0523584 -0.00481314 -0.0582743
-0.112593 -0.00315144 -0.0381559
-0.104527 0.00042164 0.00510495
-0.032614 0.0036888 0.0446619
-0.00392816 0.00452677 -0.00497666
-0.00953006 0.0031967 -0.0035144
-0.00929774 -0.000133989 0.000147305
-0.00342533 -0.0033837 0.00371995
0.00452488 -0.00458091 0.00503613
0.00973036 -0.00299938 0.00329747
0.00903336 0.000401294 -0.000441177
0.00281853 0.00351081 -0.00385972
-0.0509273 0.00155139 -0.0645207
-0.123554 0.00109556 -0.0455631
-0.120542 -4.59204e-05 0.00190976
-0.0444083 -0.00115965 0.0482278
0.0586633 -0.00156994 0.0652922
0.126151 -0.00102793 0.0427504
0.117114 0.00013753 -0.00571971
0.0365414 0.00120321 -0.0500401
-0.0670347 -0.00236504 -0.0849274
-0.162625 -0.00166993 -0.0599714
-0.158661 6.99949e-05 0.00251369
-0.0584512 0.00176761 0.0634795
0.0772145 0.00239302 0.085939
0.166043 0.00156685 0.0562696
0.154149 -0.000209634 -0.00752845
0.0480987 -0.00183424 -0.0658668
-0.0424797 -0.00484687 -0.0538182
-0.101671 -0.00337685 -0.0374955
-0.0991906 0.000141526 0.00157147
-0.0365421 0.00357405 0.0396852
0.0482723 0.00483861 0.0537265
0.103805 0.00316813 0.035178
0.0963716 -0.000424097 -0.00470905
0.03048 -0.00375907 -0.0417396
0 -0.117415 0
0 -0.088815 0
0 0.00372231 0
0 0.0940017 0
0 0.127261 0
0 0.0833254 0
0 -0.0111542 0
0 -0.0910633 0
0.0326204 -0.0461928 -0.0753058
0.0791398 -0.0326621 -0.0531791
0.0772111 0.00136904 0.00222899
0.0284446 0.0345728 0.0562897
-0.0375756 0.0468053 0.0762056
-0.0808031 0.0306462 0.0498963
-0.0750151 -0.00410002 -0.00667576
-0.0234058 -0.0358255 -0.0584046
0.0454538 0.0530497 -0.104932
0.110275 0.037462 -0.0741004
0.107587 -0.00157021 0.00310589
0.0396352 -0.0396532 0.0784347
-0.0523584 -0.0536835 0.106186
-0.112593 -0.0351497 0.0695262
-0.104527 0.00470275 -0.00930206
-0.032614 0.0411435 -0.0813817
0.0307154 0.120113 -0.070908
0.0745182 0.0848204 -0.0500733
0.0727021 -0.00355523 0.00209881
0.0267837 -0.0897823 0.0530023
-0.0353813 -0.121548 0.0717555
-0.0760844 -0.0795847 0.0469826
-0.0706344 0.0106478 -0.00628588
-0.0220389 0.0931555 -0.0549938
-0.00265446 0.114317 0.00612794
-0.00643993 0.0807277 0.00432739
-0.00628295 -0.0033837 -0.000181382
-0.00231468 -0.0854495 -0.00458052
0.00305767 -0.115683 -0.00620114
0.00657528 -0.0757448 -0.00406029
0.00610427 0.0101341 0.000543233
0.00190463 0.0886606 0.00475262
-0.0344142 0.0391783 0.0794467
-0.0834914 0.0276667 0.0561032
-0.0814566 -0.00115965 -0.00235155
-0.0300088 -0.0292849 -0.0593845
0.0396418 -0.0396463 -0.0803958
0.0852462 -0.0259589 -0.0526401
0.0791398 0.00347311 0.00704286
0.0246929 0.0303853 0.0616162
-0.0452988 -0.0597258 0.104574
-0.109895 -0.0421715 0.0738448
-0.107216 0.00176761 -0.00309518
-0.0394985 0.0446382 -0.0781641
0.0521778 0.0604318 -0.10582
0.112204 0.0395682 -0.0692864
0.104167 -0.00529398 0.00927002
0.0325028 -0.0463213 0.0811042
-0.0287057 -0.122401 0.0662684
-0.0687046 -0.0852776 0.0461696
-0.0670282 0.00357405 -0.00193501
-0.0246934 0.0902577 -0.0488659
0.0326201 0.122192 -0.0661554
0.0701467 0.0800066 -0.0433159
0.0651232 -0.01071 0.00579843
0.0205969 -0.09493 0.0513955
0 -0.158959 0
0 -0.120239 0
0 0.00503932 0
0 0.127261 0
0 0.172288 0
0 0.112807 0
0 -0.0151008 0
0 -0.123283 0
-0.00281909 -0.0625365 -0.16609
-0.00683938 -0.0442185 -0.117288
-0.00667266 0.00185342 0.00491611
-0.00245822 0.0468053 0.124149
0.00324732 0.0633658 0.168074
0.00698312 0.0414892 0.110049
0.00648287 -0.00555068 -0.0147236
0.00202276 -0.0485011 -0.128814
-0.00392816 0.0718195 -0.231432
-0.00953006 0.0507166 -0.163431
-0.00929774 -0.00212578 0.00685019
-0.00342533 -0.0536835 0.17299
0.00452488 -0.0726774 0.234196
0.00973036 -0.0475864 0.153343
0.00903336 0.00636665 -0.0205161
0.00281853 0.0557007 -0.179491
-0.00265446 0.162611 -0.15639
-0.00643993 0.114831 -0.110439
-0.00628295 -0.00481314 0.00462904
-0.00231468 -0.121548 0.116898
0.00305767 -0.164554 0.158258
0.00657528 -0.107744 0.103621
0.00610427 0.0144152 -0.0138638
0.00190463 0.126115 -0.121291
0.000229401 0.154765 0.0135154
0.000556548 0.109291 0.00954422
0.00054298 -0.00458091 -0.000400043
0.000200035 -0.115683 -0.0101025
-0.000264248 -0.156614 -0.0136769
-0.000568244 -0.102544 -0.00895511
-0.000527537 0.0137197 0.00119812
-0.0001646 0.12003 0.0104821
0.00297411 0.0530402 0.175223
0.00721542 0.0374555 0.123738
0.0070396 -0.00156994 -0.00518642
0.00259339 -0.0396463 -0.130975
-0.0034259 -0.0536741 -0.177317
-0.00736707 -0.0351436 -0.116099
-0.00683938 0.00470193 0.0155333
-0.00213398 0.0411361 0.135897
0.00391476 -0.0808577 0.230642
0.00949719 -0.0570923 0.162867
0.0092657 0.00239302 -0.00682658
0.00341352 0.0604318 -0.172394
-0.00450928 0.0818134 -0.233389
-0.00969677 0.0535682 -0.152814
-0.00900221 -0.00716705 0.0204454
-0.00280892 -0.0627104 0.178878
0.00248077 -0.165708 0.146157
0.00593752 -0.11545 0.101829
0.00579264 0.00483861 -0.00426773
0.00213403 0.122192 -0.107776
-0.00281906 0.165426 -0.145908
-0.00606214 0.108314 -0.0955349
-0.00562801 -0.0144993 0.0127887
-0.00178001 -0.128518 0.113355
0 -0.10408 0
0 -0.0787278 0
0 0.00329955 0
0 0.0833254 0
0 0.112807 0
0 0.0738616 0
0 -0.0098874 0
0 -0.0807207 0
-0.0365486 -0.0409464 -0.156126
-0.0886703 -0.0289524 -0.110252
-0.0865085 0.00121355 0.00462121
-0.0318701 0.0306462 0.116701
0.0421003 0.0414892 0.157991
0.0905338 0.0271656 0.103446
0.0840481 -0.00363436 -0.0138404
0.0262244 -0.0317566 -0.121086
-0.0509273 0.0470246 -0.217548
-0.123554 0.0332072 -0.153627
-0.120542 -0.00139188 0.00643922
-0.0444083 -0.0351497 0.162612
0.0586633 -0.0475864 0.220148
0.126151 -0.0311576 0.144144
0.117114 0.00416863 -0.0192853
0.0365414 0.0364706 -0.168723
-0.0344142 0.106471 -0.147008
-0.0834914 0.0751869 -0.103813
-0.0814566 -0.00315144 0.00435131
-0.0300088 -0.0795847 0.109886
0.0396418 -0.107744 0.148764
0.0852462 -0.0705461 0.097405
0.0791398 0.0094385 -0.0130321
0.0246929 0.0825753 -0.114015
0.00297411 0.101334 0.0127046
0.00721542 0.0715593 0.00897167
0.0070396 -0.00299938 -0.000376044
0.00259339 -0.0757448 -0.00949643
-0.0034259 -0.102544 -0.0128564
-0.00736707 -0.0671418 -0.00841784
-0.00683938 0.0089831 0.00112625
-0.00213398 0.0785909 0.00985326
0.0385584 0.0347286 0.164711
0.0935462 0.0245243 0.116314
0.0912661 -0.00102793 -0.00487532
0.0336225 -0.0259589 -0.123118
-0.0444157 -0.0351436 -0.166678
-0.0955122 -0.0230106 -0.109135
-0.0886703 0.00307864 0.0146014
-0.0276664 0.0269343 0.127744
0.0507536 -0.0529424 0.216806
0.123128 -0.0373817 0.153097
0.120126 0.00156685 -0.00641701
0.0442551 0.0395682 -0.162052
-0.0584609 0.0535682 -0.219389
-0.125716 0.0350743 -0.143647
-0.11671 -0.0046927 0.0192188
-0.0364168 -0.0410603 0.168147
0.0321624 -0.108499 0.137389
0.076978 -0.0755921 0.0957201
0.0750998 0.00316813 -0.00401171
0.027667 0.0800066 -0.10131
-0.0365482 0.108314 -0.137155
-0.0785937 0.0709198 -0.0898037
-0.0729654 -0.00949359 0.0120215
-0.0230772 -0.0841483 0.106555
0 0.0139325 0
0 0.0105388 0
0 -0.000441689 0
0 -0.0111542 0
0 -0.0151008 0
0 -0.00988739 0
0 0.00132356 0
0 0.0108056 0
-0.0481082 0.00548124 -0.0514582
-0.11671 0.00387341 -0.036342
-0.113865 -0.000162353 0.00152327
-0.0419482 -0.00409998 0.0384679
0.0554141 -0.00555062 0.0520782
0.119163 -0.00363432 0.0340987
0.110627 0.000486239 -0.00456213
0.0345186 0.00425106 -0.0399092
-0.0670347 -0.00629488 -0.0717026
-0.162625 -0.00444286 -0.0506395
-0.158661 0.000186221 0.00212254
-0.0584512 0.0047027 0.0536016
0.0772145 0.00636658 0.0725667
0.166043 0.00416859 0.0475139
0.154149 -0.000557744 -0.00635692
0.0480987 -0.00488209 -0.0556101
-0.0452988 -0.0142526 -0.0484531
-0.109895 -0.0100594 -0.0342197
-0.107216 0.000421636 0.00143432
-0.0394985 0.0106477 0.0362214
0.0521778 0.014415 0.0490369
0.112204 0.0094384 0.0321075
0.104167 -0.00126283 -0.0042957
0.0325028 -0.0110538 -0.0375786
0.00391476 -0.0135649 0.00418736
0.00949719 -0.009574 0.0029573
0.00926571 0.00040129 -0.000123955
0.00341352 0.010134 -0.00313029
-0.00450928 0.0137195 -0.00423782
-0.00969677 0.00898299 -0.00277476
-0.00900221 -0.00120189 0.00037124
-0.00280892 -0.0105205 0.00324758
0.0507536 -0.0046489 0.0542878
0.123128 -0.00328116 0.0383405
0.120126 0.000137528 -0.00160703
0.0442551 0.00347307 -0.0405831
-0.0584609 0.00470188 -0.0549421
-0.125716 0.0030786 -0.0359739
-0.11671 -0.000411907 0.004813
-0.0364168 -0.00360552 0.0421038
0.066806 0.00708706 0.071458
0.162065 0.0050014 0.0504649
0.158114 -0.000209632 -0.00211522
0.0582496 -0.00529392 -0.0534167
-0.076948 -0.00716697 -0.0723164
-0.16547 -0.00469265 -0.0473499
-0.153617 0.000627866 0.00633502
-0.0479347 0.00549648 0.0554204
0.0423348 0.0145241 0.0452828
0.101325 0.010119 0.0315488
0.0988524 -0.000424097 -0.00132224
0.0364175 -0.01071 -0.0333912
-0.0481077 -0.0144993 -0.0452055
-0.103451 -0.00949359 -0.0295988
-0.0960429 0.00127085 0.0039622
-0.0303761 0.0112644 0.0351198
0 0.123494 0
0 0.0860387 0
0 -0.00360595 0
0 -0.0910633 0
0 -0.123283 0
0 -0.0807207 0
0 0.0108056 0
0 0.0957773 0
-0.0304861 0.048584 0.0844234
-0.0729657 0.0338488 0.0588183
-0.0711854 -0.00141863 -0.00246512
-0.0262249 -0.0358255 -0.0622533
0.0346432 -0.0485011 -0.0842794
0.0744972 -0.0317566 -0.0551828
0.0691622 0.00425106 0.00738697
0.0218744 0.0376801 0.0654759
-0.0424797 -0.0557959 0.117637
-0.101671 -0.0388734 0.0819582
-0.0991906 0.00162921 -0.00343494
-0.0365421 0.0411436 -0.0867445
0.0482723 0.0557008 -0.117436
0.103805 0.0364706 -0.0768924
0.0963715 -0.00488209 0.0102931
0.03048 -0.0432734 0.091235
-0.0287057 -0.126331 0.0794931
-0.0687046 -0.0880155 0.0553834
-0.0670282 0.0036888 -0.00232116
-0.0246934 0.0931555 -0.0586177
0.0326201 0.126115 -0.0793575
0.0701466 0.0825753 -0.0519602
0.0651232 -0.0110538 0.00695558
0.0205969 -0.0979778 0.0616521
0.00248077 -0.120235 -0.00686987
0.00593752 -0.0837686 -0.00478629
0.00579264 0.00351081 0.000200597
0.00213403 0.0886606 0.0050658
-0.00281906 0.12003 0.00685816
-0.00606214 0.0785909 0.00449045
-0.00562801 -0.0105205 -0.000601108
-0.00178001 -0.0932502 -0.00532804
0.0321624 -0.0412064 -0.0890657
0.076978 -0.0287088 -0.0620527
0.0750997 0.00120321 0.00260068
0.027667 0.0303853 0.0656765
-0.0365482 0.0411361 0.0889138
-0.0785937 0.0269343 0.0582172
-0.0729653 -0.00360553 -0.00779317
-0.0230772 -0.0319583 -0.0690763
0.0423348 0.0628176 -0.117235
0.101325 0.0437654 -0.0816787
0.0988523 -0.00183424 0.00342322
0.0364175 -0.0463213 0.0864487
-0.0481077 -0.0627104 0.117036
-0.103451 -0.0410603 0.0766302
-0.0960429 0.00549648 -0.010258
-0.0303761 0.0487191 -0.0909238
0.0268274 0.128737 -0.0742918
0.0642092 0.0896921 -0.0517596
0.0626425 -0.00375907 0.00216929
0.0230777 -0.09493 0.0547823
-0.0304857 -0.128518 0.0741651
-0.0655569 -0.0841483 0.0485603
-0.0608621 0.0112644 -0.00650047
-0.0192492 0.0998442 -0.0576182
