# vtk DataFile Version 3.0
Velocity field
ASCII
DATASET STRUCTURED_POINTS
DIMENSIONS 8 8 8
SPACING 0.8 0.8 0.8
ORIGIN 0 0 0
POINT_DATA 512
VECTORS velocity float
0 0.411995 0
0 0.28704 0
0 -0.0120301 0
0 -0.303803 0
0 -0.411292 0
0 -0.269298 0
0 0.0360492 0
0 0.319529 0
0 0.162084 0.420502
0 0.112925 0.310614
0 -0.00473279 -0.0130181
0 -0.11952 -0.328754
0 -0.161808 -0.445072
0 -0.105945 -0.291415
0 0.0141822 0.03901
0 0.125707 0.326127
0 -0.186144 0.585934
0 -0.129688 0.432814
0 0.00543533 -0.0181396
0 0.137262 -0.45809
0 0.185827 -0.620169
0 0.121672 -0.406062
0 -0.0162875 0.054357
0 -0.144367 0.45443
0 -0.421461 0.395945
0 -0.293634 0.292475
0 0.0123065 -0.0122579
0 0.310782 -0.309555
0 0.420742 -0.41908
0 0.275485 -0.274397
0 -0.0368775 0.0367318
0 -0.32687 0.307082
0 -0.401124 -0.034218
0 -0.279466 -0.0252759
0 0.0117126 0.00105933
0 0.295787 0.026752
0 0.40044 0.0362173
0 0.262192 0.0237137
0 -0.035098 -0.0031744
0 -0.311098 -0.0265383
0 -0.137471 -0.443625
0 -0.0957773 -0.327694
0 0.0040141 0.0137339
0 0.101371 0.346832
0 0.137237 0.469546
0 0.0898573 0.30744
0 -0.0120286 -0.041155
0 -0.106618 -0.344061
0 0.20957 -0.583935
0 0.146009 -0.431338
0 -0.00611934 0.0180777
0 -0.154536 0.456528
0 -0.209213 0.618054
0 -0.136984 0.404677
0 0.0183372 -0.0541716
0 0.162535 -0.45288
0 0.429489 -0.370038
0 0.299228 -0.257808
0 -0.0125409 0.010805
0 -0.316702 0.272864
0 -0.428756 0.369407
0 -0.280733 0.241873
0 0.0375799 -0.032378
0 0.333097 -0.286989
0 0.28704 0
0 0.217122 0
0 -0.00909975 0
0 -0.229802 0
0 -0.311109 0
0 -0.203702 0
0 0.0272683 0
0 0.222618 0
0.0896375 0.112925 0.415342
0.222313 0.0816547 0.299908
0.216926 -0.00342481 -0.0125789
0.0799156 -0.0864771 -0.317618
-0.105569 -0.117075 -0.429999
-0.227019 -0.0766556 -0.281547
-0.210732 0.0102223 0.0375478
-0.0643167 0.0875809 0.322125
0.124902 -0.129688 0.578743
0.30977 -0.0935306 0.4179
0.302263 0.00392268 -0.0175275
0.111357 0.0990505 -0.442576
-0.147101 0.134095 -0.59916
-0.316328 0.0878003 -0.392311
-0.293635 -0.0117111 0.05232
-0.0896197 -0.100582 0.448853
0.0844027 -0.293634 0.391086
0.209329 -0.211771 0.282397
0.204258 0.00888197 -0.0118442
0.0752482 0.224272 -0.299068
-0.0994043 0.30362 -0.404888
-0.21376 0.198802 -0.265103
-0.198426 -0.0265165 0.0353553
-0.0605606 -0.227733 0.303313
-0.00729417 -0.279466 -0.0337981
-0.0180903 -0.201556 -0.024405
-0.0176521 0.00845331 0.00102358
-0.00650309 0.21345 0.0258461
0.00859059 0.288973 0.0349907
0.0184732 0.189209 0.0229104
0.0171481 -0.0252369 -0.00305543
0.00523371 -0.216744 -0.0262126
-0.0945665 -0.0957773 -0.438181
-0.234534 -0.0690768 -0.3164
-0.228855 0.00289712 0.0132705
-0.0843089 0.0731534 0.335079
0.111375 0.0990367 0.453644
0.239497 0.0648449 0.297025
0.222321 -0.00864916 -0.0396126
0.0678534 -0.0742816 -0.339838
-0.124476 0.146009 -0.576769
-0.308633 0.105217 -0.416369
-0.301153 -0.00441277 0.017463
-0.110947 -0.111425 0.44095
0.14656 -0.150847 0.596958
0.315163 -0.0987707 0.390869
0.292557 0.0131758 -0.0521298
0.0893141 0.113239 -0.447323
-0.0788801 0.299228 -0.365497
-0.188793 0.208474 -0.254644
-0.184186 -0.00873731 0.0106723
-0.0678548 -0.220649 0.269515
0.0896365 -0.298717 0.364874
0.192755 -0.195588 0.238905
0.178952 0.0261822 -0.0319807
0.0565981 0.232071 -0.283467
0 -0.0120301 0
0 -0.00909975 0
0 0.000381378 0
0 0.00963117 0
0 0.0130388 0
0 0.0085373 0
0 -0.00114284 0
0 -0.00933011 0
0.124902 -0.00473279 0.158241
0.30977 -0.00342481 0.114195
0.302263 0.00014365 -0.00478947
0.111357 0.00362718 -0.120935
-0.147101 0.00491044 -0.163724
-0.316328 0.00321522 -0.107202
-0.293635 -0.000428706 0.0142974
-0.0896197 -0.00367059 0.122726
0.17404 0.00543533 0.220495
0.431642 0.00392268 0.15912
0.421181 -0.000164523 -0.00667375
0.155164 -0.00415428 -0.168512
-0.204975 -0.00562414 -0.22814
-0.440779 -0.00368251 -0.149376
-0.40916 0.000491119 0.019922
-0.124877 0.00421546 0.171008
0.117608 0.0123065 0.148999
0.29168 0.00888197 0.107526
0.284615 -0.000372521 -0.00450983
0.104853 -0.00940627 -0.113875
-0.138511 -0.0127345 -0.154164
-0.297854 -0.00833795 -0.100942
-0.276489 0.00111201 0.0134624
-0.084386 0.00954447 0.115559
-0.0101638 0.0117126 -0.0128767
-0.0252075 0.00845331 -0.00929243
-0.0245966 -0.000354546 0.000389742
-0.00906143 -0.00895251 0.00984103
0.0119703 -0.0121199 0.013323
0.0257411 -0.00793562 0.00872345
0.0238944 0.00105835 -0.00116343
0.00729272 0.00908393 -0.00998672
-0.13177 0.0040141 -0.166942
-0.3268 0.00289712 -0.120473
-0.318885 -0.00012151 0.00505283
-0.117479 -0.00306818 0.127585
0.155189 -0.00415371 0.172727
0.333717 -0.00271968 0.113097
0.309781 0.000362715 -0.0150834
0.0945478 0.0031132 -0.129475
-0.173447 -0.00611934 -0.219743
-0.430057 -0.00441277 -0.158536
-0.419634 0.000185074 0.00664924
-0.154594 0.0046732 0.167893
0.204221 0.00632666 0.227299
0.43916 0.00414244 0.148827
0.407656 -0.000552539 -0.0198496
0.124451 -0.00474595 -0.170425
-0.109913 -0.0125409 -0.13925
-0.263066 -0.00873731 -0.0970166
-0.256648 0.000366188 0.00406604
-0.0945498 0.00924756 0.102682
0.124901 0.0125195 0.139013
0.268588 0.00819726 0.09102
0.249353 -0.00109732 -0.0121843
0.0788645 -0.00972628 -0.107998
0 -0.303803 0
0 -0.229802 0
0 0.00963117 0
0 0.243222 0
0 0.329277 0
0 0.215598 0
0 -0.0288607 0
0 -0.235619 0
0.0844027 -0.11952 -0.194847
0.209329 -0.0864771 -0.14061
0.204258 0.00362718 0.00589735
0.0752482 0.0915857 0.14891
-0.0994043 0.12399 0.201598
-0.21376 0.0811837 0.131997
-0.198426 -0.0108251 -0.0176045
-0.0605606 -0.0926956 -0.151117
0.117608 0.137262 -0.271503
0.29168 0.0990505 -0.195927
0.284615 -0.00415428 0.0082174
0.104853 -0.104898 0.207495
-0.138511 -0.142013 0.280909
-0.297854 -0.092984 0.183927
-0.276489 0.0124013 -0.0245303
-0.084386 0.106456 -0.210568
0.0794737 0.310782 -0.183469
0.197105 0.224272 -0.132397
0.192328 -0.00940627 0.00555291
0.0708548 -0.237511 0.140215
-0.0935987 -0.321547 0.189824
-0.201277 -0.210538 0.124288
-0.186837 0.0280794 -0.0165763
-0.057024 0.241032 -0.142292
-0.00686819 0.295787 0.0158555
-0.0170339 0.21345 0.0114419
-0.0166211 -0.00895252 -0.000479889
-0.00612332 -0.226054 -0.0121175
0.00808882 -0.306031 -0.0164046
0.0173945 -0.20038 -0.0107411
0.0161465 0.0267244 0.00143254
0.00492807 0.229402 0.012297
-0.0890439 0.101371 0.205562
-0.22084 0.0731534 0.14834
-0.215488 -0.00306818 -0.00622164
-0.0793862 -0.077472 -0.157097
0.10487 -0.104883 -0.212682
0.225515 -0.0686737 -0.139257
0.209336 0.00915889 0.0185724
0.0638908 0.0786195 0.159427
-0.117207 -0.154536 0.270577
-0.290609 -0.111425 0.195209
-0.283569 0.0046732 -0.0081872
-0.104468 0.118 -0.206733
0.138002 0.159751 -0.279876
0.296759 0.104599 -0.183252
0.275472 -0.0139522 0.0244412
0.0840982 -0.119852 0.20985
-0.0742736 -0.316702 0.171464
-0.177767 -0.220649 0.11946
-0.17343 0.00924756 -0.00500667
-0.0638921 0.233534 -0.126436
0.0844018 0.316162 -0.171172
0.181499 0.20701 -0.112076
0.168501 -0.0277112 0.015003
0.0532928 -0.245624 0.132982
0 -0.411292 0
0 -0.311109 0
0 0.0130388 0
0 0.329277 0
0 0.445781 0
0 0.291879 0
0 -0.0390721 0
0 -0.318984 0
-0.00729417 -0.161808 -0.429744
-0.0180903 -0.117075 -0.310117
-0.0176521 0.00491044 0.0130069
-0.00650309 0.12399 0.328422
0.00859059 0.167858 0.444633
0.0184732 0.109909 0.291125
0.0171481 -0.0146553 -0.0388272
0.00523371 -0.125493 -0.333294
-0.0101638 0.185827 -0.59881
-0.0252075 0.134095 -0.432123
-0.0245966 -0.00562414 0.018124
-0.00906143 -0.142013 0.45764
0.0119703 -0.192258 0.61955
0.0257411 -0.125882 0.405663
0.0238944 0.016789 -0.0541027
0.00729272 0.144121 -0.464417
-0.00686819 0.420742 -0.404647
-0.0170339 0.30362 -0.292007
-0.0166211 -0.0127345 0.0122473
-0.00612332 -0.321547 0.309246
0.00808882 -0.435319 0.418664
0.0173945 -0.285031 0.274125
0.0161465 0.0380138 -0.0365597
0.00492807 0.326313 -0.31383
0.000593556 0.40044 0.03497
0.00147209 0.288973 0.0252357
0.00143642 -0.0121199 -0.00105841
0.000529179 -0.306031 -0.0267255
-0.000699049 -0.414315 -0.0361812
-0.00150325 -0.271275 -0.0236902
-0.00139541 0.0361798 0.00315954
-0.000425888 0.310568 0.0271215
0.00769526 0.137237 0.453375
0.019085 0.0990367 0.327167
0.0186225 -0.00415371 -0.0137221
0.00686067 -0.104883 -0.346482
-0.0090629 -0.141994 -0.469079
-0.019489 -0.0929711 -0.307133
-0.0180909 0.0123995 0.040962
-0.00552151 0.106436 0.351622
0.0101291 -0.209213 0.596768
0.0251149 -0.150847 0.430538
0.0245063 0.00632666 -0.0180573
0.00902816 0.159751 -0.455954
-0.0119263 0.216273 -0.617275
-0.0256464 0.141608 -0.404172
-0.0238067 -0.0188885 0.0539062
-0.00726785 -0.162258 0.462833
0.0064188 -0.428756 0.37817
0.0153628 -0.298717 0.263474
0.014988 0.0125195 -0.0110424
0.00552162 0.316162 -0.27886
-0.00729408 0.428025 -0.377525
-0.0156853 0.280254 -0.247189
-0.014562 -0.0375158 0.0330896
-0.00460562 -0.332529 0.293296
0 -0.269298 0
0 -0.203702 0
0 0.0085373 0
0 0.215598 0
0 0.291879 0
0 0.191111 0
0 -0.0255828 0
0 -0.208858 0
-0.0945665 -0.105945 -0.403963
-0.234534 -0.0766556 -0.291514
-0.228855 0.00321522 0.0122266
-0.0843089 0.0811837 0.308724
0.111375 0.109909 0.417957
0.239497 0.0719644 0.273663
0.222321 -0.00959573 -0.036498
0.0678534 -0.0821676 -0.3133
-0.13177 0.121672 -0.562888
-0.3268 0.0878003 -0.406204
-0.318885 -0.00368251 0.0170366
-0.117479 -0.092984 0.430184
0.155189 -0.125882 0.582384
0.333717 -0.0824226 0.381326
0.309781 0.0109928 -0.0508571
0.0945478 0.0943647 -0.436556
-0.0890439 0.275485 -0.380372
-0.22084 0.198802 -0.274491
-0.215488 -0.00833795 0.0115125
-0.0793862 -0.210538 0.290695
0.10487 -0.285031 0.393549
0.225515 -0.186626 0.257678
0.209336 0.0248902 -0.0343667
0.0638908 0.213657 -0.295003
0.00769526 0.262192 0.0328721
0.019085 0.189209 0.0237218
0.0186225 -0.00793562 -0.000994917
0.00686067 -0.20038 -0.0251223
-0.0090629 -0.271275 -0.0340108
-0.019489 -0.17762 -0.0222689
-0.0180909 0.0236891 0.00297
-0.00552151 0.203347 0.0254945
0.0997666 0.0898573 0.426176
0.247428 0.0648449 0.307542
0.241433 -0.00271968 -0.0128989
0.088945 -0.0686737 -0.325697
-0.117498 -0.0929711 -0.440941
-0.252666 -0.0608734 -0.288711
-0.234542 0.00811867 0.0385049
-0.0715845 0.0696903 0.330528
0.131321 -0.136984 0.560968
0.3256 -0.0987707 0.404713
0.317712 0.00414244 -0.016974
0.117047 0.104599 -0.428604
-0.154619 0.141608 -0.580246
-0.332491 0.0927196 -0.379925
-0.308643 -0.0123676 0.0506722
-0.0942253 -0.10624 0.435067
0.0832176 -0.280733 0.355484
0.199174 -0.195588 0.247668
0.194314 0.00819726 -0.01038
0.071586 0.20701 -0.262131
-0.0945655 0.280254 -0.354878
-0.203355 0.183499 -0.23236
-0.188792 -0.0245639 0.0311045
-0.0597103 -0.217727 0.275701
0 0.0360492 0
0 0.0272683 0
0 -0.00114283 0
0 -0.0288607 0
0 -0.039072 0
0 -0.0255828 0
0 0.00342461 0
0 0.0279585 0
-0.124476 0.0141822 -0.133144
-0.308633 0.0102221 -0.0961458
-0.301153 -0.000428694 0.00403258
-0.110947 -0.0108248 0.101824
0.14656 -0.0146549 0.137851
0.315163 -0.00959546 0.0902587
0.292557 0.00128024 -0.0120365
0.0893141 0.0109993 -0.103262
-0.173447 -0.0162875 -0.185524
-0.430057 -0.0117107 -0.133971
-0.419634 0.000491105 0.00561902
-0.154594 0.0124009 0.141883
0.204221 0.0167885 0.192082
0.43916 0.0109925 0.125768
0.407656 -0.00146692 -0.0167719
0.124451 -0.012632 -0.143886
-0.117207 -0.0368775 -0.125368
-0.290609 -0.0265157 -0.0905307
-0.283569 0.00111198 0.00379709
-0.104468 0.0280786 0.0958771
0.138002 0.0380128 0.1298
0.296759 0.0248895 0.0849879
0.275472 -0.00332139 -0.0113335
0.0840982 -0.0286009 -0.0972314
0.0101291 -0.035098 0.0108345
0.0251149 -0.0252362 0.00782378
0.0245063 0.00105832 -0.000328146
0.00902816 0.0267236 -0.00828581
-0.0119263 0.0361788 -0.0112174
-0.0256464 0.0236885 -0.00734479
-0.0238067 -0.00316113 0.000979464
-0.00726785 -0.0272208 0.00840284
0.131321 -0.0120286 0.140465
0.3256 -0.00864892 0.101433
0.317712 0.000362704 -0.00425432
0.117047 0.00915863 -0.107423
-0.154619 0.0123991 -0.14543
-0.332491 0.00811844 -0.0952221
-0.308643 -0.00108338 0.0126984
-0.0942253 -0.009329 0.10894
0.172855 0.0183372 0.184892
0.428479 0.0131754 0.133479
0.418093 -0.000552523 -0.00559832
0.154026 -0.0139518 -0.14136
-0.20347 -0.018888 -0.191375
-0.437547 -0.0123672 -0.125305
-0.406159 0.00165052 0.0167108
-0.124027 0.0142217 0.143396
0.109538 0.0375799 0.117165
0.262169 0.0261822 0.0816299
0.255772 -0.00109732 -0.00342118
0.0942273 -0.0277112 -0.086397
-0.124475 -0.0375158 -0.116966
-0.267672 -0.0245639 -0.0765844
-0.248503 0.00328821 0.0102519
-0.0785956 0.0291457 0.0908695
0 0.319529 0
0 0.222618 0
0 -0.00933011 0
0 -0.235619 0
0 -0.318984 0
0 -0.208858 0
0 0.0279585 0
0 0.247816 0
-0.0788801 0.125707 0.218438
-0.188793 0.087581 0.152188
-0.184186 -0.00367059 -0.0063783
-0.0678548 -0.0926956 -0.161075
0.0896365 -0.125493 -0.218066
0.192755 -0.0821676 -0.142781
0.178952 0.0109993 0.0191132
0.0565981 0.0974941 0.169413
-0.109913 -0.144367 0.304375
-0.263066 -0.100582 0.21206
-0.256648 0.00421546 -0.00888761
-0.0945498 0.106456 -0.224444
0.124901 0.144121 -0.303856
0.268588 0.0943648 -0.198953
0.249353 -0.012632 0.0266326
0.0788645 -0.111966 0.236063
-0.0742736 -0.32687 0.205682
-0.177767 -0.227733 0.1433
-0.17343 0.00954447 -0.00600582
-0.0638921 0.241032 -0.151668
0.0844018 0.326313 -0.205331
0.181499 0.213657 -0.134443
0.168501 -0.0286009 0.017997
0.0532928 -0.253509 0.15952
0.0064188 -0.311098 -0.0177752
0.0153628 -0.216744 -0.0123841
0.014988 0.00908393 0.000519029
0.00552162 0.229402 0.0131073
-0.00729408 0.310568 0.0177449
-0.0156853 0.203347 0.0116187
-0.014562 -0.0272208 -0.00155532
-0.00460562 -0.241277 -0.0137859
0.0832176 -0.106618 -0.23045
0.199174 -0.0742816 -0.160556
0.194314 0.0031132 0.00672904
0.071586 0.0786196 0.169932
-0.0945654 0.106436 0.230057
-0.203355 0.0696903 0.150632
-0.188792 -0.009329 -0.0201642
-0.0597103 -0.0826894 -0.178729
0.109538 0.162535 -0.303337
0.262169 0.113239 -0.211337
0.255772 -0.00474595 0.0088573
0.0942273 -0.119852 0.223679
-0.124475 -0.162258 0.30282
-0.267672 -0.10624 0.198274
-0.248503 0.0142217 -0.0265417
-0.0785956 0.126057 -0.235258
0.0694138 0.333097 -0.192224
0.166136 0.232071 -0.133924
0.162082 -0.00972628 0.00561285
0.0597116 -0.245624 0.141745
-0.0788793 -0.332529 0.191896
-0.169623 -0.217727 0.125646
-0.157476 0.0291457 -0.0168194
-0.0498058 0.258338 -0.149082
