# vtk DataFile Version 3.0
Velocity field
ASCII
DATASET STRUCTURED_POINTS
DIMENSIONS 8 8 8
SPACING 0.8 0.8 0.8
ORIGIN 0 0 0
POINT_DATA 512
VECTORS velocity float
0 9.21061e-05 0
0 6.41709e-05 0
0 -2.68946e-06 0
0 -6.79185e-05 0
0 -9.1949e-05 0
0 -6.02046e-05 0
0 8.05921e-06 0
0 7.14343e-05 0
0 3.62358e-05 9.4008e-05
0 2.52457e-05 6.94413e-05
0 -1.05807e-06 -2.91034e-06
0 -2.672e-05 -7.34966e-05
0 -3.6174e-05 -9.95008e-05
0 -2.36853e-05 -6.51492e-05
0 3.1706e-06 8.72111e-06
0 2.81032e-05 7.29094e-05
0 -4.16147e-05 0.000130992
0 -2.89932e-05 9.67604e-05
0 1.21513e-06 -4.05531e-06
0 3.06864e-05 -0.000102411
0 4.15437e-05 -0.000138646
0 2.72012e-05 -9.07797e-05
0 -3.64125e-06 1.21521e-05
0 -3.22749e-05 0.000101593
0 -9.42222e-05 8.8518e-05
0 -6.56453e-05 6.5386e-05
0 2.75125e-06 -2.74038e-06
0 6.94789e-05 -6.92045e-05
0 9.40616e-05 -9.36901e-05
0 6.15878e-05 -6.13445e-05
0 -8.24437e-06 8.2118e-06
0 -7.30756e-05 6.86516e-05
0 -8.96758e-05 -7.64982e-06
0 -6.24778e-05 -5.65072e-06
0 2.61849e-06 2.36826e-07
0 6.61264e-05 5.98072e-06
0 8.95229e-05 8.09679e-06
0 5.8616e-05 5.30145e-06
0 -7.84656e-06 -7.09673e-07
0 -6.95495e-05 -5.93294e-06
0 -3.07333e-05 -9.91774e-05
0 -2.14121e-05 -7.32598e-05
0 8.97398e-07 3.07038e-06
0 2.26625e-05 7.75381e-05
0 3.06809e-05 0.000104972
0 2.00886e-05 6.87316e-05
0 -2.68914e-06 -9.20067e-06
0 -2.38357e-05 -7.69186e-05
0 4.68517e-05 -0.000130545
0 3.26419e-05 -9.64304e-05
0 -1.36805e-06 4.04148e-06
0 -3.45481e-05 0.000102062
0 -4.67718e-05 0.000138173
0 -3.06243e-05 9.04701e-05
0 4.09948e-06 -1.21107e-05
0 3.63366e-05 -0.000101246
0 9.6017e-05 -8.27262e-05
0 6.68957e-05 -5.76359e-05
0 -2.80365e-06 2.41557e-06
0 -7.08024e-05 6.10018e-05
0 -9.58533e-05 8.25851e-05
0 -6.27609e-05 5.40735e-05
0 8.40141e-06 -7.23847e-06
0 7.44675e-05 -6.41596e-05
0 6.41709e-05 0
0 4.854e-05 0
0 -2.03435e-06 0
0 -5.13747e-05 0
0 -6.95519e-05 0
0 -4.55398e-05 0
0 6.09613e-06 0
0 4.97688e-05 0
2.00395e-05 2.52457e-05 9.28544e-05
4.79631e-05 1.7589e-05 6.46928e-05
4.67928e-05 -7.3717e-07 -2.71133e-06
1.72386e-05 -1.86162e-05 -6.84709e-05
-2.27723e-05 -2.52029e-05 -9.26968e-05
-4.89699e-05 -1.65019e-05 -6.06942e-05
-4.5463e-05 2.209e-06 8.12475e-06
-1.43787e-05 1.95797e-05 7.20147e-05
2.79233e-05 -2.89932e-05 0.000129384
6.68325e-05 -2.02e-05 9.01438e-05
6.52018e-05 8.46597e-07 -3.778e-06
2.40205e-05 2.13796e-05 -9.54082e-05
-3.17312e-05 2.89441e-05 -0.000129165
-6.82353e-05 1.89514e-05 -8.45721e-05
-6.33487e-05 -2.53691e-06 1.13211e-05
-2.00355e-05 -2.24862e-05 0.000100346
1.88692e-05 -6.56453e-05 8.74317e-05
4.51621e-05 -4.57359e-05 6.09148e-05
4.40602e-05 1.91683e-06 -2.55299e-06
1.62319e-05 4.84068e-05 -6.44722e-05
-2.14424e-05 6.55339e-05 -8.72834e-05
-4.61101e-05 4.2909e-05 -5.71497e-05
-4.28079e-05 -5.74396e-06 7.65027e-06
-1.3539e-05 -5.09122e-05 6.78091e-05
-1.63069e-06 -6.24778e-05 -7.55594e-06
-3.90296e-06 -4.3529e-05 -5.26432e-06
-3.80773e-06 1.82434e-06 2.20632e-07
-1.40278e-06 4.60711e-05 5.57175e-06
1.85308e-06 6.23718e-05 7.54312e-06
3.98488e-06 4.08386e-05 4.93893e-06
3.69951e-06 -5.4668e-06 -6.61144e-07
1.17005e-06 -4.84556e-05 -5.86013e-06
-2.11414e-05 -2.14121e-05 -9.79603e-05
-5.06006e-05 -1.49181e-05 -6.82502e-05
-4.93659e-05 6.25228e-07 2.86042e-06
-1.81866e-05 1.57893e-05 7.22359e-05
2.40245e-05 2.13758e-05 9.77941e-05
5.16626e-05 1.3996e-05 6.40317e-05
4.79629e-05 -1.87356e-06 -8.57152e-06
1.51694e-05 -1.66065e-05 -7.59746e-05
-2.7828e-05 3.26419e-05 -0.000128943
-6.66046e-05 2.2742e-05 -8.98364e-05
-6.49794e-05 -9.53137e-07 3.76512e-06
-2.39386e-05 -2.40701e-05 9.50828e-05
3.1623e-05 -3.25865e-05 0.000128725
6.80025e-05 -2.13363e-05 8.42837e-05
6.31326e-05 2.85616e-06 -1.12825e-05
1.99672e-05 2.53159e-05 -0.000100004
-1.76345e-05 6.68957e-05 -8.1711e-05
-4.22067e-05 4.66067e-05 -5.69286e-05
-4.11769e-05 -1.95332e-06 2.38592e-06
-1.51697e-05 -4.93285e-05 6.02532e-05
2.00392e-05 -6.67816e-05 8.15716e-05
4.30926e-05 -4.3726e-05 5.34098e-05
4.00066e-05 5.85332e-06 -7.14964e-06
1.26531e-05 5.1882e-05 -6.33722e-05
0 -2.68946e-06 0
0 -2.03435e-06 0
0 8.52613e-08 0
0 2.15316e-06 0
0 2.91498e-06 0
0 1.90861e-06 0
0 -2.55494e-07 0
0 -2.08585e-06 0
2.79233e-05 -1.05807e-06 3.53765e-05
6.68325e-05 -7.3717e-07 2.46472e-05
6.52018e-05 3.08954e-08 -1.03299e-06
2.40205e-05 7.8022e-07 -2.60866e-05
-3.17312e-05 1.05627e-06 -3.53164e-05
-6.82353e-05 6.91606e-07 -2.31238e-05
-6.33487e-05 -9.2581e-08 3.09544e-06
-2.00355e-05 -8.20601e-07 2.74368e-05
3.89086e-05 1.21513e-06 4.9294e-05
9.31253e-05 8.46597e-07 3.43438e-05
9.0853e-05 -3.54816e-08 -1.43938e-06
3.34705e-05 -8.96037e-07 -3.63494e-05
-4.42147e-05 -1.21307e-06 -4.92104e-05
-9.50799e-05 -7.94269e-07 -3.2221e-05
-8.82709e-05 1.06324e-07 4.31323e-06
-2.79177e-05 9.42413e-07 3.82308e-05
2.62926e-05 2.75125e-06 3.33105e-05
6.29295e-05 1.91683e-06 2.32079e-05
6.13941e-05 -8.03359e-08 -9.7266e-07
2.26178e-05 -2.02877e-06 -2.45632e-05
-2.98782e-05 -2.74658e-06 -3.3254e-05
-6.42504e-05 -1.79835e-06 -2.17734e-05
-5.96492e-05 2.40734e-07 2.91467e-06
-1.88654e-05 2.13377e-06 2.58345e-05
-2.27223e-06 2.61849e-06 -2.87873e-06
-5.43843e-06 1.82434e-06 -2.00565e-06
-5.30573e-06 -7.64595e-08 8.40582e-08
-1.95465e-06 -1.93088e-06 2.12277e-06
2.5821e-06 -2.61405e-06 2.87384e-06
5.55258e-06 -1.71158e-06 1.88168e-06
5.15494e-06 2.29118e-07 -2.51888e-07
1.63037e-06 2.03081e-06 -2.23264e-06
-2.94587e-05 8.97398e-07 -3.73218e-05
-7.05075e-05 6.25228e-07 -2.60026e-05
-6.87871e-05 -2.62038e-08 1.08979e-06
-2.53414e-05 -6.61741e-07 2.75211e-05
3.34761e-05 -8.95876e-07 3.72584e-05
7.19874e-05 -5.86583e-07 2.43953e-05
6.68322e-05 7.85222e-08 -3.26565e-06
2.11372e-05 6.95991e-07 -2.89455e-05
-3.87759e-05 -1.36805e-06 -4.91259e-05
-9.28077e-05 -9.53137e-07 -3.42267e-05
-9.05432e-05 3.99467e-08 1.43447e-06
-3.33564e-05 1.0088e-06 3.62255e-05
4.40639e-05 1.36573e-06 4.90426e-05
9.47556e-05 8.94224e-07 3.21111e-05
8.79699e-05 -1.19704e-07 -4.29852e-06
2.78225e-05 -1.06101e-06 -3.81004e-05
-2.45722e-05 -2.80365e-06 -3.1131e-05
-5.88114e-05 -1.95332e-06 -2.16891e-05
-5.73764e-05 8.18654e-08 9.0901e-07
-2.11377e-05 2.0674e-06 2.29558e-05
2.79229e-05 2.79887e-06 3.10779e-05
6.00459e-05 1.83259e-06 2.03486e-05
5.57458e-05 -2.45317e-07 -2.72393e-06
1.76311e-05 -2.17442e-06 -2.41441e-05
0 -6.79185e-05 0
0 -5.13747e-05 0
0 2.15316e-06 0
0 5.4375e-05 0
0 7.36136e-05 0
0 4.81993e-05 0
0 -6.45213e-06 0
0 -5.26752e-05 0
1.88692e-05 -2.672e-05 -4.35603e-05
4.51621e-05 -1.86162e-05 -3.03491e-05
4.40602e-05 7.8022e-07 1.27195e-06
1.62319e-05 1.97034e-05 3.21214e-05
-2.14424e-05 2.66747e-05 4.34864e-05
-4.61101e-05 1.74656e-05 2.84732e-05
-4.28079e-05 -2.338e-06 -3.81153e-06
-1.3539e-05 -2.07231e-05 -3.37839e-05
2.62926e-05 3.06864e-05 -6.06976e-05
6.29295e-05 2.13796e-05 -4.22888e-05
6.13941e-05 -8.96037e-07 1.77236e-06
2.26178e-05 -2.26282e-05 4.47584e-05
-2.98782e-05 -3.06344e-05 6.05946e-05
-6.42504e-05 -2.00582e-05 3.96749e-05
-5.96492e-05 2.68506e-06 -5.31103e-06
-1.88654e-05 2.37993e-05 -4.70749e-05
1.77672e-05 6.94789e-05 -4.10164e-05
4.25247e-05 4.84068e-05 -2.85767e-05
4.14871e-05 -2.02877e-06 1.19767e-06
1.5284e-05 -5.12338e-05 3.02456e-05
-2.01902e-05 -6.9361e-05 4.09469e-05
-4.34173e-05 -4.54148e-05 2.68104e-05
-4.0308e-05 6.0794e-06 -3.58894e-06
-1.27483e-05 5.38855e-05 -3.1811e-05
-1.53546e-06 6.61264e-05 3.54468e-06
-3.67503e-06 4.60711e-05 2.46963e-06
-3.58536e-06 -1.93088e-06 -1.03504e-07
-1.32086e-06 -4.87616e-05 -2.61385e-06
1.74486e-06 -6.60143e-05 -3.53867e-06
3.75216e-06 -4.32235e-05 -2.31698e-06
3.48346e-06 5.78606e-06 3.10159e-07
1.10172e-06 5.12854e-05 2.74913e-06
-1.99068e-05 2.26625e-05 4.59557e-05
-4.76455e-05 1.57893e-05 3.20179e-05
-4.6483e-05 -6.61741e-07 -1.3419e-06
-1.71245e-05 -1.67113e-05 -3.38877e-05
2.26215e-05 -2.26241e-05 -4.58777e-05
4.86456e-05 -1.48134e-05 -3.00389e-05
4.51619e-05 1.98297e-06 4.02112e-06
1.42835e-05 1.75763e-05 3.56416e-05
-2.62029e-05 -3.45481e-05 6.04905e-05
-6.27149e-05 -2.40701e-05 4.21445e-05
-6.11847e-05 1.0088e-06 -1.76631e-06
-2.25406e-05 2.54758e-05 -4.46057e-05
2.97763e-05 3.44895e-05 -6.03879e-05
6.40313e-05 2.25824e-05 -3.95396e-05
5.94458e-05 -3.02296e-06 5.29292e-06
1.88011e-05 -2.67944e-05 4.69144e-05
-1.66047e-05 -7.08024e-05 3.83327e-05
-3.97419e-05 -4.93285e-05 2.67066e-05
-3.87722e-05 2.0674e-06 -1.1193e-06
-1.42838e-05 5.22092e-05 -2.82663e-05
1.8869e-05 7.06816e-05 -3.82673e-05
4.05761e-05 4.62795e-05 -2.50559e-05
3.76703e-05 -6.19515e-06 3.35408e-06
1.19142e-05 -5.49119e-05 2.97295e-05
0 -9.1949e-05 0
0 -6.95519e-05 0
0 2.91498e-06 0
0 7.36136e-05 0
0 9.96592e-05 0
0 6.52529e-05 0
0 -8.735e-06 0
0 -7.13125e-05 0
-1.63069e-06 -3.6174e-05 -9.6074e-05
-3.90296e-06 -2.52029e-05 -6.6936e-05
-3.80773e-06 1.05627e-06 2.80534e-06
-1.40278e-06 2.66747e-05 7.0845e-05
1.85308e-06 3.61127e-05 9.5911e-05
3.98488e-06 2.36451e-05 6.27987e-05
3.69951e-06 -3.16522e-06 -8.40647e-06
1.17005e-06 -2.80553e-05 -7.45117e-05
-2.27223e-06 4.15437e-05 -0.000133871
-5.43843e-06 2.89441e-05 -9.32695e-05
-5.30573e-06 -1.21307e-06 3.909e-06
-1.95465e-06 -3.06344e-05 9.87164e-05
2.5821e-06 -4.14732e-05 0.000133644
5.55258e-06 -2.7155e-05 8.75045e-05
5.15494e-06 3.63507e-06 -1.17137e-05
1.63037e-06 3.22199e-05 -0.000103826
-1.53546e-06 9.40616e-05 -9.04634e-05
-3.67503e-06 6.55339e-05 -6.3027e-05
-3.58536e-06 -2.74658e-06 2.64151e-06
-1.32086e-06 -6.9361e-05 6.67077e-05
1.74486e-06 -9.3902e-05 9.03099e-05
3.75216e-06 -6.14833e-05 5.91313e-05
3.48346e-06 8.23038e-06 -7.91554e-06
1.10172e-06 7.29509e-05 -7.01603e-05
1.32696e-07 8.95229e-05 7.81793e-06
3.176e-07 6.23718e-05 5.44685e-06
3.0985e-07 -2.61405e-06 -2.28282e-07
1.1415e-07 -6.60143e-05 -5.76495e-06
-1.50792e-07 -8.9371e-05 -7.80467e-06
-3.24266e-07 -5.85166e-05 -5.11019e-06
-3.01044e-07 7.83325e-06 6.84069e-07
-9.52121e-08 6.94309e-05 6.06332e-06
1.72036e-06 3.06809e-05 0.000101357
4.11758e-06 2.13758e-05 7.06167e-05
4.01711e-06 -8.95876e-07 -2.9596e-06
1.47991e-06 -2.26241e-05 -7.47406e-05
-1.95497e-06 -3.06288e-05 -0.000101185
-4.204e-06 -2.00545e-05 -6.6252e-05
-3.90294e-06 2.68457e-06 8.86873e-06
-1.23439e-06 2.3795e-05 7.8609e-05
2.26448e-06 -4.67718e-05 0.000133414
5.41988e-06 -3.25865e-05 9.29514e-05
5.28764e-06 1.36573e-06 -3.89567e-06
1.94798e-06 3.44895e-05 -9.83797e-05
-2.57329e-06 4.66925e-05 -0.000133188
-5.53364e-06 3.05724e-05 -8.72061e-05
-5.13736e-06 -4.09253e-06 1.16737e-05
-1.62481e-06 -3.62746e-05 0.000103472
1.43499e-06 -9.58533e-05 8.45442e-05
3.43454e-06 -6.67816e-05 5.89025e-05
3.35073e-06 2.79887e-06 -2.46865e-06
1.23442e-06 7.06816e-05 -6.23424e-05
-1.63067e-06 9.56898e-05 -8.44001e-05
-3.50662e-06 6.26539e-05 -5.52618e-05
-3.2555e-06 -8.38708e-06 7.39755e-06
-1.02964e-06 -7.43405e-05 6.55696e-05
0 -6.02046e-05 0
0 -4.55398e-05 0
0 1.90861e-06 0
0 4.81993e-05 0
0 6.52529e-05 0
0 4.2725e-05 0
0 -5.71933e-06 0
0 -4.66926e-05 0
-2.11414e-05 -2.36853e-05 -9.03105e-05
-5.06006e-05 -1.65019e-05 -6.29205e-05
-4.93659e-05 6.91606e-07 2.63705e-06
-1.81866e-05 1.74656e-05 6.6595e-05
2.40245e-05 2.36451e-05 9.01572e-05
5.16626e-05 1.54819e-05 5.90314e-05
4.79629e-05 -2.07246e-06 -7.90216e-06
1.51694e-05 -1.83695e-05 -7.00417e-05
-2.94587e-05 2.72012e-05 -0.00012584
-7.05075e-05 1.89514e-05 -8.76742e-05
-6.87871e-05 -7.94269e-07 3.6745e-06
-2.53414e-05 -2.00582e-05 9.27943e-05
3.34761e-05 -2.7155e-05 0.000125626
7.19874e-05 -1.778e-05 8.22551e-05
6.68321e-05 2.3801e-06 -1.1011e-05
2.11372e-05 2.10963e-05 -9.75971e-05
-1.99068e-05 6.15878e-05 -8.50364e-05
-4.76455e-05 4.2909e-05 -5.9246e-05
-4.6483e-05 -1.79835e-06 2.48305e-06
-1.71245e-05 -4.54148e-05 6.27059e-05
2.26215e-05 -6.14833e-05 8.48921e-05
4.86456e-05 -4.02568e-05 5.5584e-05
4.51619e-05 5.38893e-06 -7.44068e-06
1.42835e-05 4.77654e-05 -6.59513e-05
1.72036e-06 5.8616e-05 7.34893e-06
4.11758e-06 4.08386e-05 5.1201e-06
4.01711e-06 -1.71158e-06 -2.14587e-07
1.47991e-06 -4.32235e-05 -5.4191e-06
-1.95497e-06 -5.85166e-05 -7.33647e-06
-4.204e-06 -3.83143e-05 -4.80363e-06
-3.90294e-06 5.1289e-06 6.43031e-07
-1.23439e-06 4.54606e-05 5.69958e-06
2.23039e-05 2.00886e-05 9.52765e-05
5.3383e-05 1.3996e-05 6.63804e-05
5.20805e-05 -5.86583e-07 -2.78206e-06
1.91866e-05 -1.48134e-05 -7.02569e-05
-2.53456e-05 -2.00545e-05 -9.51149e-05
-5.45035e-05 -1.31309e-05 -6.22775e-05
-5.06003e-05 1.75775e-06 8.33669e-06
-1.60035e-05 1.558e-05 7.38932e-05
2.93582e-05 -3.06243e-05 0.000125411
7.0267e-05 -2.13363e-05 8.73752e-05
6.85525e-05 8.94224e-07 -3.66197e-06
2.5255e-05 2.25824e-05 -9.24778e-05
-3.33619e-05 3.05724e-05 -0.000125198
-7.17419e-05 2.00176e-05 -8.19746e-05
-6.66042e-05 -2.67963e-06 1.09734e-05
-2.10651e-05 -2.37512e-05 9.72642e-05
1.86042e-05 -6.27609e-05 7.94724e-05
4.45276e-05 -4.3726e-05 5.53689e-05
4.34412e-05 1.83259e-06 -2.32056e-06
1.60039e-05 4.62795e-05 -5.86024e-05
-2.11412e-05 6.26539e-05 -7.93368e-05
-4.54622e-05 4.10233e-05 -5.19466e-05
-4.22065e-05 -5.49153e-06 6.95377e-06
-1.33489e-05 -4.86752e-05 6.1636e-05
0 8.05921e-06 0
0 6.09613e-06 0
0 -2.55494e-07 0
0 -6.45213e-06 0
0 -8.735e-06 0
0 -5.71933e-06 0
0 7.6561e-07 0
0 6.25045e-06 0
-2.7828e-05 3.1706e-06 -2.97658e-05
-6.66046e-05 2.209e-06 -2.07382e-05
-6.49794e-05 -9.2581e-08 8.69156e-07
-2.39386e-05 -2.338e-06 2.19493e-05
3.1623e-05 -3.16522e-06 2.97153e-05
6.80025e-05 -2.07246e-06 1.94564e-05
6.31326e-05 2.77428e-07 -2.60451e-06
1.99672e-05 2.45901e-06 -2.30853e-05
-3.87759e-05 -3.64125e-06 -4.14761e-05
-9.28077e-05 -2.53691e-06 -2.88969e-05
-9.05432e-05 1.06324e-07 1.21109e-06
-3.33564e-05 2.68506e-06 3.05845e-05
4.40639e-05 3.63507e-06 4.14057e-05
9.47556e-05 2.3801e-06 2.71108e-05
8.79699e-05 -3.18609e-07 -3.62915e-06
2.78225e-05 -2.82403e-06 -3.21674e-05
-2.62029e-05 -8.24437e-06 -2.80275e-05
-6.27149e-05 -5.74396e-06 -1.95271e-05
-6.11847e-05 2.40734e-07 8.18398e-07
-2.25406e-05 6.0794e-06 2.06675e-05
2.97763e-05 8.23038e-06 2.798e-05
6.40313e-05 5.38893e-06 1.83202e-05
5.94458e-05 -7.21382e-07 -2.4524e-06
1.88011e-05 -6.39405e-06 -2.17372e-05
2.26448e-06 -7.84656e-06 2.42216e-06
5.41988e-06 -5.4668e-06 1.68755e-06
5.28764e-06 2.29118e-07 -7.07267e-08
1.94798e-06 5.78606e-06 -1.78611e-06
-2.57329e-06 7.83325e-06 -2.41806e-06
-5.53364e-06 5.1289e-06 -1.58325e-06
-5.13736e-06 -6.86574e-07 2.11939e-07
-1.62481e-06 -6.08552e-06 1.87855e-06
2.93582e-05 -2.68914e-06 3.14026e-05
7.0267e-05 -1.87356e-06 2.18786e-05
6.85525e-05 7.85223e-08 -9.16949e-07
2.5255e-05 1.98297e-06 -2.31563e-05
-3.33619e-05 2.68457e-06 -3.13493e-05
-7.17419e-05 1.75775e-06 -2.05263e-05
-6.66042e-05 -2.35299e-07 2.74772e-06
-2.10651e-05 -2.0856e-06 2.43548e-05
3.86437e-05 4.09948e-06 4.13346e-05
9.24912e-05 2.85616e-06 2.87984e-05
9.02344e-05 -1.19704e-07 -1.20696e-06
3.32426e-05 -3.02296e-06 -3.04802e-05
-4.39136e-05 -4.09253e-06 -4.12645e-05
-9.44325e-05 -2.67963e-06 -2.70184e-05
-8.76698e-05 3.58705e-07 3.61678e-06
-2.77276e-05 3.17942e-06 3.20577e-05
2.44884e-05 8.40141e-06 2.61936e-05
5.86109e-05 5.85332e-06 1.82493e-05
5.71808e-05 -2.45317e-07 -7.64842e-07
2.10656e-05 -6.19515e-06 -1.9315e-05
-2.78277e-05 -8.38708e-06 -2.6149e-05
-5.98411e-05 -5.49153e-06 -1.71213e-05
-5.55556e-05 7.35117e-07 2.29192e-06
-1.75709e-05 6.51585e-06 2.03149e-05
0 7.14343e-05 0
0 4.97688e-05 0
0 -2.08585e-06 0
0 -5.26752e-05 0
0 -7.13125e-05 0
0 -4.66926e-05 0
0 6.25045e-06 0
0 5.5402e-05 0
-1.76345e-05 2.81032e-05 4.88344e-05
-4.22067e-05 1.95797e-05 3.40232e-05
-4.11769e-05 -8.20601e-07 -1.42594e-06
-1.51697e-05 -2.07231e-05 -3.60102e-05
2.00392e-05 -2.80553e-05 -4.87511e-05
4.30926e-05 -1.83695e-05 -3.19203e-05
4.00066e-05 2.45901e-06 4.27297e-06
1.26531e-05 2.17959e-05 3.78743e-05
-2.45722e-05 -3.22749e-05 6.80465e-05
-5.88114e-05 -2.24862e-05 4.74084e-05
-5.73764e-05 9.42413e-07 -1.98693e-06
-2.11377e-05 2.37993e-05 -5.0177e-05
2.79229e-05 3.22199e-05 -6.79304e-05
6.00459e-05 2.10963e-05 -4.44781e-05
5.57458e-05 -2.82403e-06 5.95401e-06
1.76311e-05 -2.50313e-05 5.27745e-05
-1.66047e-05 -7.30756e-05 4.59825e-05
-3.97419e-05 -5.09122e-05 3.20363e-05
-3.87722e-05 2.13377e-06 -1.34267e-06
-1.42838e-05 5.38855e-05 -3.39072e-05
1.8869e-05 7.29509e-05 -4.59041e-05
4.05761e-05 4.77654e-05 -3.00562e-05
3.76703e-05 -6.39405e-06 4.02343e-06
1.19142e-05 -5.66749e-05 3.56624e-05
1.43499e-06 -6.95495e-05 -3.97385e-06
3.43453e-06 -4.84556e-05 -2.76861e-06
3.35073e-06 2.03081e-06 1.16035e-07
1.23442e-06 5.12854e-05 2.93029e-06
-1.63067e-06 6.94309e-05 3.96707e-06
-3.50662e-06 4.54606e-05 2.59748e-06
-3.2555e-06 -6.08552e-06 -3.47709e-07
-1.02964e-06 -5.39402e-05 -3.08198e-06
1.86042e-05 -2.38357e-05 -5.15197e-05
4.45276e-05 -1.66065e-05 -3.58941e-05
4.34412e-05 6.95991e-07 1.50435e-06
1.60039e-05 1.75763e-05 3.79903e-05
-2.11412e-05 2.3795e-05 5.14318e-05
-4.54622e-05 1.558e-05 3.36755e-05
-4.22065e-05 -2.0856e-06 -4.50793e-06
-1.33489e-05 -1.84861e-05 -3.99569e-05
2.44884e-05 3.63366e-05 -6.78144e-05
5.86109e-05 2.53159e-05 -4.72467e-05
5.71808e-05 -1.06101e-06 1.98015e-06
2.10656e-05 -2.67944e-05 5.00059e-05
-2.78277e-05 -3.62746e-05 6.76987e-05
-5.98411e-05 -2.37512e-05 4.43264e-05
-5.55556e-05 3.17942e-06 -5.9337e-06
-1.75709e-05 2.81814e-05 -5.25945e-05
1.55182e-05 7.44675e-05 -4.29738e-05
3.71415e-05 5.1882e-05 -2.99401e-05
3.62353e-05 -2.17442e-06 1.25482e-06
1.33492e-05 -5.49119e-05 3.16886e-05
-1.76343e-05 -7.43405e-05 4.29005e-05
-3.79211e-05 -4.86752e-05 2.80895e-05
-3.52055e-05 6.51585e-06 -3.76017e-06
-1.11346e-05 5.77545e-05 -3.3329e-05
