# vtk DataFile Version 3.0
Velocity field
ASCII
DATASET STRUCTURED_POINTS
DIMENSIONS 5 5 5
SPACING 1.33333 1.33333 1.33333
ORIGIN 0 0 0
POINT_DATA 125
VECTORS velocity float
0 0.500626 0
0 0.117766 0
0 -0.44522 0
0 -0.327231 0
0 0.291266 0
0 -0.265094 0.869438
0 -0.06236 0.235709
0 0.235755 -0.891109
0 0.173277 -0.654954
0 -0.154233 0.505842
0 -0.625346 0.409049
0 -0.147105 0.110895
0 0.556137 -0.419245
0 0.408754 -0.308139
0 -0.363829 0.237986
0 -0.029116 -0.67699
0 -0.00684917 -0.183536
0 0.0258936 0.693865
0 0.0190315 0.509982
0 -0.0169398 -0.393875
0 0.611648 -0.727556
0 0.143883 -0.171148
0 -0.543955 0.647035
0 -0.3998 0.475562
0 0.355859 -0.423295
0 0.117766 0
0 0.0352506 0
0 -0.133266 0
0 -0.0979491 0
0 0.0685167 0
0.372116 -0.06236 0.305331
0.579532 -0.0154327 0.0761935
-0.121487 0.0584263 -0.288522
-0.636769 0.0429548 -0.212129
-0.168144 -0.0362813 0.177643
0.175071 -0.147105 0.143651
0.272657 -0.0365473 0.0358474
-0.0571571 0.138375 -0.135743
-0.299583 0.101735 -0.0998021
-0.0791074 -0.0855861 0.0835765
-0.289749 -0.00684917 -0.237747
-0.451078 -0.00171369 -0.0593053
0.0945593 0.0064903 0.224567
0.495627 0.00477201 0.165108
0.130926 -0.00398487 -0.138322
-0.311391 0.143883 -0.255505
-0.457893 0.0338466 -0.0601043
0.095964 -0.127959 0.227227
0.503042 -0.0940479 0.167009
0.140705 0.0837114 -0.148654
0 -0.44522 0
0 -0.133266 0
0 0.50382 0
0 0.370301 0
0 -0.259031 0
0.175071 0.235755 -0.725787
0.272657 0.0584263 -0.180586
-0.0571571 -0.221206 0.683782
-0.299583 -0.162632 0.50273
-0.0791074 0.137163 -0.422265
0.0823667 0.556137 -0.341465
0.128278 0.138375 -0.0849619
-0.026891 -0.523951 0.321704
-0.140948 -0.385219 0.236522
-0.0372181 0.323562 -0.198665
-0.13632 0.0258936 0.565136
-0.212222 0.0064903 0.140562
0.0444879 -0.0245827 -0.532222
0.23318 -0.0180748 -0.391298
0.0615973 0.015065 0.328798
-0.146502 -0.543955 0.607347
-0.215427 -0.127959 0.142871
0.0451487 0.483753 -0.54013
0.236669 0.355553 -0.396989
0.0661981 -0.316475 0.353357
0 -0.327231 0
0 -0.0979492 0
0 0.370301 0
0 0.272167 0
0 -0.190384 0
-0.289749 0.173277 -0.646796
-0.451078 0.0429551 -0.160971
0.0945593 -0.162633 0.609511
0.495627 -0.119569 0.448126
0.130926 0.100813 -0.376308
-0.13632 0.408754 -0.304301
-0.212222 0.101736 -0.0757329
0.0444879 -0.385221 0.286762
0.23318 -0.283223 0.210833
0.0615973 0.237814 -0.177044
0.225614 0.0190315 0.50363
0.351099 0.00477205 0.125293
-0.0736001 -0.0180749 -0.474412
-0.385771 -0.0132899 -0.348798
-0.101946 0.0110726 0.293014
0.242466 -0.3998 0.541247
0.35654 -0.0940479 0.127322
-0.0747227 0.355553 -0.481345
-0.391695 0.261327 -0.353782
-0.10956 -0.232605 0.314899
0 0.291266 0
0 0.0685167 0
0 -0.259031 0
0 -0.190384 0
0 0.16946 0
-0.311391 -0.154233 0.421485
-0.457893 -0.0362813 0.0991492
0.095964 0.137163 -0.374838
0.503042 0.100813 -0.275501
0.140705 -0.0897331 0.245222
-0.146502 -0.363829 0.198298
-0.215427 -0.0855861 0.0466472
0.0451487 0.323562 -0.176352
0.236669 0.237814 -0.129616
0.0661981 -0.211677 0.115371
0.242466 -0.0169398 -0.328191
0.35654 -0.00398487 -0.0772028
-0.0747227 0.015065 0.291869
-0.391695 0.0110726 0.21452
-0.10956 -0.00985563 -0.190943
0.260576 0.355859 -0.352704
0.38317 0.0837114 -0.0829692
-0.0803038 -0.316475 0.313669
-0.420951 -0.232605 0.230543
-0.117743 0.20704 -0.205204
