# vtk DataFile Version 3.0
Velocity field
ASCII
DATASET STRUCTURED_POINTS
DIMENSIONS 5 5 5
SPACING 1.33333 1.33333 1.33333
ORIGIN 0 0 0
POINT_DATA 125
VECTORS velocity float
0 0.475609 0
0 0.111881 0
0 -0.422972 0
0 -0.310879 0
0 0.276711 0
0 -0.251847 0.825991
0 -0.0592438 0.22393
0 0.223974 -0.846579
0 0.164618 -0.622225
0 -0.146525 0.480564
0 -0.594097 0.388608
0 -0.139754 0.105354
0 0.528346 -0.398294
0 0.388328 -0.292741
0 -0.345648 0.226094
0 -0.027661 -0.64316
0 -0.00650691 -0.174364
0 0.0245997 0.659191
0 0.0180805 0.484497
0 -0.0160933 -0.374193
0 0.581083 -0.691199
0 0.136693 -0.162596
0 -0.516773 0.614701
0 -0.379821 0.451798
0 0.338076 -0.402142
0 0.111881 0
0 0.033489 0
0 -0.126607 0
0 -0.0930545 0
0 0.0650928 0
0.353521 -0.0592438 0.290073
0.548694 -0.0146188 0.0721419
-0.115019 0.055336 -0.27313
-0.602876 0.0406815 -0.200805
-0.159741 -0.0344683 0.168766
0.166323 -0.139754 0.136472
0.258148 -0.0346135 0.0339413
-0.0541141 0.131032 -0.128501
-0.283637 0.0963326 -0.0944743
-0.0751543 -0.0813093 0.0794001
-0.27527 -0.00650691 -0.225867
-0.427094 -0.00162177 -0.0561542
0.0895291 0.00614083 0.212596
0.469267 0.00451487 0.156301
0.124383 -0.00378574 -0.13141
-0.295831 0.136693 -0.242737
-0.435012 0.0321552 -0.0571008
0.0911686 -0.121564 0.215872
0.477904 -0.0893482 0.158663
0.133674 0.0795282 -0.141225
0 -0.422972 0
0 -0.126607 0
0 0.478644 0
0 0.351797 0
0 -0.246086 0
0.166323 0.223974 -0.689518
0.258148 0.055336 -0.171003
-0.0541141 -0.209471 0.647378
-0.283637 -0.153999 0.475949
-0.0751543 0.130309 -0.401164
0.0782507 0.528346 -0.324401
0.121452 0.131032 -0.0804529
-0.0254593 -0.496057 0.304577
-0.133445 -0.364697 0.223922
-0.0353582 0.307393 -0.188738
-0.129508 0.0245997 0.536896
-0.200938 0.00614083 0.133108
0.0421213 -0.0232537 -0.503909
0.220779 -0.0170969 -0.37047
0.0585192 0.0143122 0.312368
-0.139181 -0.516773 0.576997
-0.204662 -0.121564 0.135731
0.0428925 0.45958 -0.513139
0.224842 0.337785 -0.37715
0.0628901 -0.30066 0.335699
0 -0.310879 0
0 -0.0930545 0
0 0.351797 0
0 0.258566 0
0 -0.18087 0
-0.27527 0.164618 -0.614475
-0.427094 0.0406818 -0.152424
0.0895291 -0.154 0.577046
0.469267 -0.113218 0.424241
0.124383 0.0957754 -0.357504
-0.129508 0.388328 -0.289095
-0.200938 0.0963331 -0.0717118
0.0421213 -0.364699 0.271487
0.220779 -0.268125 0.199596
0.0585192 0.22593 -0.168197
0.21434 0.0180805 0.478463
0.332446 0.0045149 0.118646
-0.0696879 -0.017097 -0.449163
-0.36527 -0.0125703 -0.330222
-0.0968513 0.0105193 0.278371
0.230349 -0.379821 0.5142
0.338723 -0.0893482 0.120959
-0.0709887 0.337785 -0.457292
-0.372122 0.248268 -0.336103
-0.104085 -0.220981 0.299163
0 0.276711 0
0 0.0650928 0
0 -0.246086 0
0 -0.18087 0
0 0.160991 0
-0.295831 -0.146525 0.400423
-0.435011 -0.0344683 0.0941946
0.0911685 0.130309 -0.356107
0.477904 0.0957754 -0.261734
0.133674 -0.085249 0.232968
-0.139181 -0.345648 0.188389
-0.204662 -0.0813093 0.0443162
0.0428925 0.307394 -0.167539
0.224842 0.22593 -0.123139
0.0628901 -0.201099 0.109605
0.230349 -0.0160933 -0.311791
0.338723 -0.00378574 -0.0733449
-0.0709887 0.0143122 0.277284
-0.372121 0.0105193 0.2038
-0.104085 -0.00936313 -0.181401
0.247555 0.338076 -0.335079
0.364023 0.0795282 -0.0788231
-0.076291 -0.30066 0.297995
-0.399916 -0.220981 0.219022
-0.11186 0.196694 -0.19495
