# vtk DataFile Version 3.0
Velocity field
ASCII
DATASET STRUCTURED_POINTS
DIMENSIONS 8 8 8
SPACING 0.8 0.8 0.8
ORIGIN 0 0 0
POINT_DATA 512
VECTORS velocity float
0 0.410965 0
0 0.286322 0
0 -0.012 0
0 -0.303043 0
0 -0.410264 0
0 -0.268625 0
0 0.0359591 0
0 0.31873 0
0 0.161679 0.419451
0 0.112643 0.309838
0 -0.00472096 -0.0129855
0 -0.119221 -0.327932
0 -0.161403 -0.443959
0 -0.105681 -0.290687
0 0.0141468 0.0389124
0 0.125393 0.325312
0 -0.185679 0.584469
0 -0.129364 0.431732
0 0.00542175 -0.0180942
0 0.136919 -0.456945
0 0.185362 -0.618619
0 0.121368 -0.405047
0 -0.0162468 0.0542211
0 -0.144006 0.453294
0 -0.420407 0.394956
0 -0.2929 0.291744
0 0.0122757 -0.0122272
0 0.310005 -0.308781
0 0.41969 -0.418032
0 0.274796 -0.273711
0 -0.0367853 0.03664
0 -0.326053 0.306314
0 -0.400121 -0.0341324
0 -0.278767 -0.0252128
0 0.0116834 0.00105669
0 0.295047 0.0266852
0 0.399439 0.0361268
0 0.261537 0.0236544
0 -0.0350103 -0.00316646
0 -0.31032 -0.026472
0 -0.137128 -0.442516
0 -0.0955378 -0.326875
0 0.00400407 0.0136996
0 0.101117 0.345965
0 0.136894 0.468372
0 0.0896327 0.306671
0 -0.0119986 -0.0410521
0 -0.106352 -0.3432
0 0.209046 -0.582476
0 0.145644 -0.43026
0 -0.00610405 0.0180325
0 -0.154149 0.455386
0 -0.208689 0.616509
0 -0.136642 0.403666
0 0.0182913 -0.0540362
0 0.162129 -0.451748
0 0.428415 -0.369113
0 0.29848 -0.257164
0 -0.0125095 0.0107779
0 -0.315911 0.272182
0 -0.427684 0.368484
0 -0.280031 0.241268
0 0.037486 -0.0322971
0 0.332264 -0.286272
0 0.286322 0
0 0.216579 0
0 -0.009077 0
0 -0.229227 0
0 -0.310331 0
0 -0.203192 0
0 0.0272001 0
0 0.222062 0
0.0894134 0.112643 0.414304
0.221736 0.0814429 0.29913
0.216363 -0.00341591 -0.0125462
0.0797082 -0.0862526 -0.316793
-0.105295 -0.116771 -0.428882
-0.22643 -0.0764566 -0.280816
-0.210185 0.010196 0.037451
-0.0641559 0.087362 0.32132
0.12459 -0.129364 0.577296
0.308967 -0.0932884 0.416817
0.301479 0.00391251 -0.017482
0.111067 0.0987938 -0.441427
-0.146719 0.133748 -0.597605
-0.315507 0.0875727 -0.391292
-0.292873 -0.0116809 0.0521852
-0.0893957 -0.10033 0.447731
0.0841917 -0.2929 0.390109
0.208786 -0.211223 0.281665
0.203727 0.00885893 -0.0118134
0.0750529 0.223691 -0.298292
-0.0991462 0.302833 -0.403836
-0.213205 0.198286 -0.264414
-0.197911 -0.0264482 0.0352642
-0.0604092 -0.227163 0.302555
-0.00727593 -0.278767 -0.0337136
-0.0180434 -0.201034 -0.0243417
-0.0176063 0.00843138 0.00102092
-0.00648621 0.212896 0.025779
0.00856829 0.288223 0.0348998
0.0184252 0.188718 0.022851
0.0171036 -0.025172 -0.00304756
0.00522063 -0.216202 -0.0261471
-0.0943301 -0.0955378 -0.437085
-0.233926 -0.0688979 -0.31558
-0.228261 0.00288961 0.013236
-0.0840901 0.0729637 0.334209
0.111086 0.09878 0.452466
0.238876 0.0646768 0.296254
0.221744 -0.0086269 -0.0395105
0.0676837 -0.0740959 -0.338989
-0.124165 0.145644 -0.575327
-0.307833 0.104945 -0.41529
-0.300372 -0.00440135 0.0174176
-0.11066 -0.111136 0.439806
0.14618 -0.150457 0.595409
0.314346 -0.0985151 0.389855
0.291798 0.0131419 -0.0519955
0.0890908 0.112956 -0.446204
-0.0786829 0.29848 -0.364583
-0.188321 0.207953 -0.254008
-0.183726 -0.00871547 0.0106457
-0.0676851 -0.220097 0.268841
0.0894124 -0.297971 0.363962
0.192274 -0.195099 0.238308
0.178504 0.0261167 -0.0319007
0.0564566 0.231491 -0.282758
0 -0.012 0
0 -0.009077 0
0 0.000380425 0
0 0.00960709 0
0 0.0130062 0
0 0.00851596 0
0 -0.00113998 0
0 -0.00930678 0
0.12459 -0.00472096 0.157845
0.308967 -0.00341591 0.113899
0.301479 0.000143276 -0.00477703
0.111067 0.00361774 -0.120621
-0.146719 0.00489767 -0.163299
-0.315507 0.00320685 -0.106924
-0.292873 -0.000427599 0.0142606
-0.0893957 -0.00366141 0.122419
0.173605 0.00542175 0.219943
0.430522 0.00391251 0.158707
0.420088 -0.000164095 -0.00665642
0.154761 -0.00414349 -0.168075
-0.204443 -0.00560953 -0.227548
-0.439635 -0.00367295 -0.148988
-0.408098 0.000489853 0.0198707
-0.124565 0.00420492 0.170581
0.117314 0.0122757 0.148627
0.290923 0.00885893 0.107247
0.283877 -0.000371553 -0.00449812
0.104581 -0.00938185 -0.11358
-0.138152 -0.0127014 -0.153763
-0.297081 -0.0083163 -0.10068
-0.275772 0.00110915 0.0134277
-0.084175 0.0095206 0.11527
-0.0101384 0.0116834 -0.0128445
-0.0251421 0.00843138 -0.00926834
-0.0245328 -0.000353625 0.00038873
-0.00903791 -0.00892927 0.00981549
0.0119392 -0.0120885 0.0132885
0.0256743 -0.00791501 0.0087008
0.0238324 0.00105562 -0.00116043
0.00727449 0.00906122 -0.00996175
-0.131441 0.00400407 -0.166525
-0.325952 0.00288961 -0.12016
-0.318057 -0.000121194 0.00503971
-0.117174 -0.00306021 0.127253
0.154786 -0.00414292 0.172278
0.332851 -0.00271262 0.112803
0.308977 0.00036178 -0.0150445
0.0943114 0.00310542 -0.129151
-0.173013 -0.00610405 -0.219193
-0.428942 -0.00440135 -0.158125
-0.418545 0.000184594 0.00663199
-0.154193 0.00466108 0.167458
0.203691 0.00631027 0.22671
0.43802 0.0041317 0.148441
0.406599 -0.000551117 -0.0197985
0.12414 -0.00473409 -0.169999
-0.109638 -0.0125095 -0.138902
-0.262409 -0.00871547 -0.096774
-0.256006 0.000365272 0.00405588
-0.0943134 0.00922444 0.102426
0.124588 0.0124882 0.138665
0.267917 0.00817677 0.0907925
0.24873 -0.00109457 -0.0121538
0.0786674 -0.00970196 -0.107728
0 -0.303043 0
0 -0.229227 0
0 0.00960709 0
0 0.242614 0
0 0.328454 0
0 0.215059 0
0 -0.0287885 0
0 -0.23503 0
0.0841917 -0.119221 -0.19436
0.208786 -0.0862526 -0.140245
0.203727 0.00361774 0.00588204
0.0750529 0.0913476 0.148523
-0.0991462 0.123668 0.201075
-0.213205 0.0809727 0.131655
-0.197911 -0.0107972 -0.0175592
-0.0604092 -0.0924639 -0.150739
0.117314 0.136919 -0.270824
0.290923 0.0987938 -0.195419
0.283877 -0.00414349 0.00819606
0.104581 -0.104626 0.206957
-0.138152 -0.141645 0.28018
-0.297081 -0.0927427 0.18345
-0.275772 0.0123693 -0.0244671
-0.084175 0.106189 -0.210042
0.079275 0.310005 -0.18301
0.196593 0.223691 -0.132054
0.191829 -0.00938185 0.00553849
0.0706708 -0.236895 0.139851
-0.0933557 -0.320713 0.189331
-0.200755 -0.209991 0.123966
-0.186352 0.028007 -0.0165336
-0.0568814 0.24043 -0.141936
-0.00685102 0.295047 0.0158159
-0.0169897 0.212896 0.0114123
-0.0165779 -0.00892927 -0.000478643
-0.00610743 -0.225467 -0.012086
0.00806782 -0.305237 -0.0163621
0.0173494 -0.19986 -0.0107132
0.0161046 0.0266555 0.00142885
0.00491575 0.228828 0.0122663
-0.0888213 0.101117 0.205048
-0.220267 0.0729637 0.147955
-0.214929 -0.00306021 -0.00620548
-0.0791801 -0.0772709 -0.15669
0.104598 -0.104611 -0.21213
0.22493 -0.0684955 -0.138895
0.208793 0.0091353 0.0185246
0.0637311 0.078423 0.159028
-0.116914 -0.154149 0.269901
-0.289855 -0.111136 0.194703
-0.282833 0.00466108 -0.00816596
-0.104197 0.117695 -0.206196
0.137644 0.159337 -0.27915
0.295989 0.104328 -0.182776
0.274758 -0.0139163 0.0243783
0.083888 -0.119553 0.209326
-0.0740879 -0.315911 0.171035
-0.177323 -0.220097 0.119161
-0.172996 0.00922444 -0.00499415
-0.0637324 0.23295 -0.12612
0.0841907 0.315372 -0.170744
0.181045 0.206493 -0.111796
0.16808 -0.0276419 0.0149654
0.0531596 -0.245009 0.132649
0 -0.410264 0
0 -0.310331 0
0 0.0130062 0
0 0.328454 0
0 0.444666 0
0 0.29115 0
0 -0.0389744 0
0 -0.318187 0
-0.00727593 -0.161403 -0.428669
-0.0180434 -0.116771 -0.309313
-0.0176063 0.00489767 0.0129731
-0.00648621 0.123668 0.32757
0.00856829 0.167422 0.443479
0.0184252 0.109623 0.29037
0.0171036 -0.0146175 -0.0387272
0.00522063 -0.125179 -0.332461
-0.0101384 0.185362 -0.597313
-0.0251421 0.133748 -0.431002
-0.0245328 -0.00560953 0.0180769
-0.00903791 -0.141645 0.456452
0.0119392 -0.191759 0.617942
0.0256743 -0.125556 0.40461
0.0238324 0.0167458 -0.0539634
0.00727449 0.143761 -0.463256
-0.00685102 0.41969 -0.403635
-0.0169897 0.302833 -0.29125
-0.0165779 -0.0127014 0.0122155
-0.00610743 -0.320713 0.308443
0.00806782 -0.434189 0.417577
0.0173494 -0.284291 0.273414
0.0161046 0.0379159 -0.0364656
0.00491575 0.325497 -0.313046
0.000592072 0.399439 0.0348826
0.00146827 0.288223 0.0251703
0.00143269 -0.0120885 -0.00105567
0.000527805 -0.305237 -0.0266561
-0.000697234 -0.41324 -0.0360873
-0.00149935 -0.270571 -0.0236287
-0.00139178 0.0360866 0.0031514
-0.000424824 0.309791 0.0270537
0.00767602 0.136894 0.452241
0.0190355 0.09878 0.326319
0.0185742 -0.00414292 -0.0136864
0.00684287 -0.104611 -0.345582
-0.00903938 -0.141625 -0.467861
-0.0194384 -0.0927298 -0.306336
-0.018044 0.0123675 0.0408565
-0.0055077 0.10617 0.350743
0.0101038 -0.208689 0.595276
0.0250497 -0.150457 0.429423
0.0244427 0.00631027 -0.0180105
0.00900473 0.159337 -0.454771
-0.0118953 0.215713 -0.615674
-0.0255799 0.141241 -0.403123
-0.023745 -0.0188399 0.0537674
-0.00724968 -0.161852 0.461676
0.00640275 -0.427684 0.377225
0.0153244 -0.297971 0.262815
0.0149505 0.0124882 -0.0110148
0.00550782 0.315372 -0.278163
-0.00727585 0.426955 -0.376582
-0.0156461 0.279553 -0.246571
-0.0145256 -0.037422 0.0330069
-0.0045941 -0.331697 0.292563
0 -0.268625 0
0 -0.203192 0
0 0.00851596 0
0 0.215059 0
0 0.29115 0
0 0.190633 0
0 -0.0255189 0
0 -0.208336 0
-0.0943301 -0.105681 -0.402953
-0.233926 -0.0764566 -0.290759
-0.228261 0.00320685 0.0121949
-0.0840901 0.0809727 0.307922
0.111086 0.109623 0.416873
0.238876 0.0717773 0.272952
0.221744 -0.00957097 -0.036404
0.0676837 -0.0819622 -0.312517
-0.131441 0.121368 -0.56148
-0.325952 0.0875727 -0.405151
-0.318057 -0.00367295 0.0169924
-0.117174 -0.0927427 0.429067
0.154786 -0.125556 0.580872
0.332851 -0.0822087 0.380336
0.308977 0.0109645 -0.0507261
0.0943114 0.0941288 -0.435465
-0.0888213 0.274796 -0.379421
-0.220267 0.198286 -0.27378
-0.214929 -0.0083163 0.0114826
-0.0791801 -0.209991 0.28994
0.104598 -0.284291 0.392528
0.22493 -0.186142 0.257009
0.208793 0.0248261 -0.0342782
0.0637311 0.213123 -0.294266
0.00767602 0.261537 0.0327899
0.0190355 0.188718 0.0236603
0.0185742 -0.00791501 -0.000992333
0.00684287 -0.19986 -0.0250571
-0.00903938 -0.270571 -0.0339225
-0.0194384 -0.177159 -0.0222111
-0.018044 0.0236281 0.00296235
-0.0055077 0.202839 0.0254308
0.0995171 0.0896327 0.425111
0.246786 0.0646768 0.306745
0.240806 -0.00271262 -0.0128654
0.0887141 -0.0684955 -0.324852
-0.117193 -0.0927298 -0.439796
-0.25201 -0.0607154 -0.287961
-0.233934 0.00809776 0.0384057
-0.0714056 0.069516 0.329701
0.130993 -0.136642 0.559565
0.324756 -0.0985151 0.403664
0.316887 0.0041317 -0.0169299
0.116743 0.104328 -0.427492
-0.154218 0.141241 -0.57874
-0.331629 0.0924793 -0.37894
-0.307843 -0.0123358 0.0505417
-0.0939898 -0.105974 0.43398
0.0830096 -0.280031 0.354595
0.198676 -0.195099 0.247049
0.193829 0.00817677 -0.010354
0.071407 0.206493 -0.261476
-0.094329 0.279553 -0.35399
-0.202846 0.18304 -0.231779
-0.18832 -0.0245025 0.0310268
-0.059561 -0.217182 0.275012
0 0.0359591 0
0 0.0272001 0
0 -0.00113998 0
0 -0.0287885 0
0 -0.0389744 0
0 -0.0255189 0
0 0.00341605 0
0 0.0278886 0
-0.124165 0.0141468 -0.132811
-0.307833 0.0101957 -0.0958962
-0.300372 -0.000427588 0.00402209
-0.11066 -0.0107969 0.101559
0.14618 -0.0146171 0.137492
0.314346 -0.00957071 0.0900241
0.291798 0.00127696 -0.0120055
0.0890908 0.0109718 -0.103004
-0.173013 -0.0162468 -0.185061
-0.428942 -0.0116806 -0.133623
-0.418545 0.000489839 0.0056044
-0.154193 0.012369 0.141514
0.203691 0.0167453 0.191583
0.43802 0.0109642 0.125442
0.406599 -0.00146316 -0.0167286
0.12414 -0.0126004 -0.143527
-0.116914 -0.0367853 -0.125055
-0.289855 -0.0264475 -0.0902957
-0.282833 0.00110911 0.00378721
-0.104197 0.0280062 0.0956279
0.137644 0.0379148 0.129462
0.295989 0.0248253 0.084767
0.274758 -0.00331288 -0.0113043
0.083888 -0.0285294 -0.0969883
0.0101038 -0.0350103 0.0108074
0.0250497 -0.0251713 0.00780347
0.0244427 0.00105559 -0.000327292
0.00900474 0.0266548 -0.00826428
-0.0118953 0.0360856 -0.0111882
-0.0255799 0.0236274 -0.0073257
-0.023745 -0.00315304 0.000976938
-0.00724968 -0.0271528 0.00838183
0.130993 -0.0119986 0.140114
0.324756 -0.00862666 0.10117
0.316887 0.00036177 -0.00424325
0.116743 0.00913504 -0.107144
-0.154218 0.0123672 -0.145052
-0.331629 0.00809753 -0.0949746
-0.307843 -0.0010806 0.0126656
-0.0939898 -0.00930567 0.108668
0.172423 0.0182913 0.184429
0.427368 0.0131416 0.133133
0.417009 -0.000551101 -0.00558377
0.153627 -0.0139159 -0.140993
-0.202943 -0.0188394 -0.190878
-0.436413 -0.0123354 -0.12498
-0.405106 0.0016463 0.0166678
-0.123717 0.0141861 0.143037
0.109264 0.037486 0.116872
0.261514 0.0261167 0.0814258
0.255133 -0.00109457 -0.00341262
0.0939917 -0.0276419 -0.086181
-0.124163 -0.037422 -0.116673
-0.267003 -0.0245025 -0.0763929
-0.247882 0.00327999 0.0102262
-0.0783991 0.0290728 0.0906423
0 0.31873 0
0 0.222062 0
0 -0.00930678 0
0 -0.23503 0
0 -0.318187 0
0 -0.208336 0
0 0.0278886 0
0 0.247196 0
-0.0786829 0.125393 0.217892
-0.188321 0.087362 0.151807
-0.183726 -0.00366141 -0.00636236
-0.0676851 -0.0924639 -0.160672
0.0894123 -0.125179 -0.217521
0.192274 -0.0819622 -0.142424
0.178504 0.0109718 0.0190654
0.0564566 0.0972504 0.16899
-0.109638 -0.144006 0.303614
-0.262409 -0.10033 0.21153
-0.256006 0.00420492 -0.00886539
-0.0943134 0.106189 -0.223883
0.124588 0.143761 -0.303096
0.267917 0.0941288 -0.198455
0.24873 -0.0126004 0.026566
0.0786674 -0.111686 0.235473
-0.0740879 -0.326053 0.205168
-0.177323 -0.227163 0.142942
-0.172996 0.00952061 -0.0059908
-0.0637324 0.24043 -0.151289
0.0841907 0.325497 -0.204818
0.181045 0.213123 -0.134106
0.16808 -0.0285294 0.017952
0.0531596 -0.252876 0.159121
0.00640275 -0.31032 -0.0177308
0.0153244 -0.216202 -0.0123532
0.0149505 0.00906122 0.000517731
0.00550781 0.228828 0.0130746
-0.00727585 0.309791 0.0177005
-0.0156461 0.202839 0.0115896
-0.0145256 -0.0271528 -0.00155143
-0.0045941 -0.240674 -0.0137514
0.0830096 -0.106352 -0.229874
0.198676 -0.0740959 -0.160155
0.193829 0.00310542 0.00671221
0.071407 0.078423 0.169508
-0.094329 0.10617 0.229482
-0.202846 0.069516 0.150256
-0.18832 -0.00930567 -0.0201138
-0.059561 -0.0824826 -0.178282
0.109264 0.162129 -0.302579
0.261514 0.112956 -0.210809
0.255133 -0.00473409 0.00883516
0.0939917 -0.119553 0.22312
-0.124163 -0.161852 0.302063
-0.267003 -0.105975 0.197779
-0.247882 0.0141861 -0.0264754
-0.0783991 0.125742 -0.23467
0.0692402 0.332264 -0.191743
0.165721 0.231491 -0.133589
0.161677 -0.00970196 0.00559882
0.0595623 -0.245009 0.14139
-0.078682 -0.331697 0.191416
-0.169199 -0.217182 0.125332
-0.157082 0.0290728 -0.0167774
-0.0496813 0.257693 -0.148709
