# vtk DataFile Version 3.0
Velocity field
ASCII
DATASET STRUCTURED_POINTS
DIMENSIONS 10 10 10
SPACING 0.631579 0.631579 0.631579
ORIGIN 0 0 0
POINT_DATA 1000
VECTORS velocity float
0 0.0142577 0
0 0.0115074 0
0 0.00431737 0
0 -0.0045383 0
0 -0.0116431 0
0 -0.0142558 0
0 -0.0113686 0
0 -0.00409529 0
0 0.00475803 0
0 0.0117757 0
0 0.008757 0.0111684
0 0.00706774 0.00936743
0 0.0026517 0.0035145
0 -0.00278739 -0.00369435
0 -0.00715108 -0.00947789
0 -0.00875583 -0.0116048
0 -0.00698252 -0.00925448
0 -0.0025153 -0.00333372
0 0.00292235 0.00387322
0 0.00723253 0.00922416
0 -0.000122259 0.018028
0 -9.86746e-05 0.0151208
0 -3.7021e-05 0.00567308
0 3.89155e-05 -0.00596339
0 9.98382e-05 -0.0152991
0 0.000122243 -0.0187324
0 9.74848e-05 -0.0149385
0 3.51167e-05 -0.00538127
0 -4.07997e-05 0.00625212
0 -0.000100975 0.0148896
0 -0.00895435 0.0179322
0 -0.00722702 0.0150405
0 -0.00271146 0.00564295
0 0.00285021 -0.00593171
0 0.00731224 -0.0152179
0 0.00895316 -0.0186329
0 0.00713988 -0.0148592
0 0.00257198 -0.00535268
0 -0.00298821 0.0062189
0 -0.00739552 0.0148105
0 -0.0143318 0.0109181
0 -0.0115671 0.00915745
0 -0.00433979 0.00343572
0 0.00456187 -0.00361154
0 0.0117035 -0.00926543
0 0.0143299 -0.0113447
0 0.0114277 -0.00904703
0 0.00411656 -0.00325899
0 -0.00478274 0.00378639
0 -0.0118368 0.00901738
0 -0.0141799 -0.000308355
0 -0.0114446 -0.000258631
0 -0.0042938 -9.70341e-05
0 0.00451353 0.000102
0 0.0115795 0.00026168
0 0.014178 0.000320403
0 0.0113066 0.000255512
0 0.00407293 9.20427e-05
0 -0.00473206 -0.000106938
0 -0.0117114 -0.000254675
0 -0.00855733 -0.0114158
0 -0.00690658 -0.00957493
0 -0.00259123 -0.00359235
0 0.00272383 0.00377618
0 0.00698803 0.00968783
0 0.00855619 0.0118618
0 0.00682331 0.00945947
0 0.00245794 0.00340756
0 -0.00285571 -0.00395901
0 -0.00706761 -0.00942848
0 0.000366747 -0.018119
0 0.000296 -0.0151971
0 0.000111054 -0.00570171
0 -0.000116737 0.00599349
0 -0.000299491 0.0153764
0 -0.000366699 0.0188269
0 -0.000292431 0.0150139
0 -0.000105342 0.00540842
0 0.000122389 -0.00628367
0 0.000302902 -0.0149647
0 0.00914931 -0.0178317
0 0.00738438 -0.0149562
0 0.00277049 -0.00561131
0 -0.00291227 0.00589846
0 -0.00747145 0.0151326
0 -0.0091481 0.0185284
0 -0.00729534 0.0147759
0 -0.00262798 0.00532267
0 0.00305327 -0.00618404
0 0.00755655 -0.0147274
0 0.014402 -0.0106648
0 0.0116238 -0.00860753
0 0.00436106 -0.0032294
0 -0.00458423 0.00339466
0 -0.0117609 0.00870903
0 -0.0144001 0.0106634
0 -0.0114837 0.00850374
0 -0.00413673 0.00306328
0 0.00480618 -0.00355901
0 0.0118948 -0.00880821
0 0.0115074 0
0 0.00977066 0
0 0.00366579 0
0 -0.00385338 0
0 -0.00988588 0
0 -0.0121043 0
0 -0.00965285 0
0 -0.00347722 0
0 0.00403994 0
0 0.00950406 0
0.00162387 0.00706774 0.0123603
0.00425036 0.00571185 0.0099886
0.00523502 0.00214299 0.00374756
0.00419997 -0.00225266 -0.00393933
0.00154454 -0.00577921 -0.0101064
-0.00170678 -0.00707611 -0.0123743
-0.00429961 -0.00564299 -0.00986818
-0.00523363 -0.00203276 -0.00355479
-0.00414846 0.00236172 0.00413005
-0.00146099 0.00583733 0.0102085
0.00262124 -9.86746e-05 0.0199519
0.00686089 -7.97377e-05 0.0161235
0.00845033 -2.99163e-05 0.00604928
0.00677956 3.14472e-05 -0.00635884
0.00249319 8.0678e-05 -0.0163137
-0.00275508 9.87827e-05 -0.0199746
-0.00694041 7.87763e-05 -0.0159291
-0.00844808 2.83774e-05 -0.00573811
-0.00669642 -3.29697e-05 0.0066667
-0.00235832 -8.14965e-05 0.0164786
0.00260732 -0.00722702 0.0198459
0.00682445 -0.00584009 0.0160379
0.00840544 -0.0021911 0.00601715
0.00674354 0.00230323 -0.00632506
0.00247994 0.00590896 -0.016227
-0.00274044 0.00723497 -0.0198685
-0.00690354 0.00576968 -0.0158445
-0.00840321 0.0020784 -0.00570763
-0.00666085 -0.00241474 0.00663129
-0.00234579 -0.00596888 0.016391
0.00158747 -0.0115671 0.0120832
0.00415508 -0.00934729 0.00976469
0.00511767 -0.00350695 0.00366355
0.00410582 0.00368641 -0.00385103
0.00150992 0.00945752 -0.00987986
-0.00166852 0.0115799 -0.012097
-0.00420324 0.00923459 -0.00964697
-0.00511631 0.00332656 -0.0034751
-0.00405547 -0.00386488 0.00403747
-0.00142824 -0.00955342 0.00997971
-4.48344e-05 -0.0114446 -0.000341263
-0.000117351 -0.00924824 -0.000275781
-0.000144537 -0.00346979 -0.000103468
-0.000115959 0.00364734 0.000108763
-4.26441e-05 0.0093573 0.000279033
4.71235e-05 0.0114571 0.00034165
0.00011871 0.00913673 0.000272456
0.000144498 0.0032913 9.81461e-05
0.000114537 -0.00382393 -0.000114029
4.03373e-05 -0.00945218 -0.000281854
-0.00165984 -0.00690658 -0.0126341
-0.00434451 -0.00558115 -0.0102099
-0.00535098 -0.00209395 -0.00383057
-0.004293 0.00220111 0.00402659
-0.00157875 0.00564697 0.0103303
0.00174459 0.00691418 0.0126484
0.00439486 0.00551386 0.0100868
0.00534956 0.00198624 0.00363353
0.00424036 -0.00230767 -0.00422154
0.00149335 -0.00570423 -0.0104347
-0.00263447 0.000296 -0.0200526
-0.00689552 0.000239195 -0.0162049
-0.00849297 8.97421e-05 -0.00607981
-0.00681378 -9.43345e-05 0.00639093
-0.00250577 -0.000242016 0.016396
0.00276898 -0.000296326 0.0200754
0.00697544 -0.000236311 0.0160095
0.00849072 -8.51258e-05 0.00576707
0.00673021 9.89016e-05 -0.00670035
0.00237022 0.00024447 -0.0165617
-0.0025927 0.00738438 -0.0197347
-0.00678619 0.00596724 -0.015948
-0.00835831 0.00223881 -0.00598341
-0.00670573 -0.00235338 0.0062896
-0.00246604 -0.00603761 0.016136
0.00272507 -0.00739249 0.0197571
0.00686483 -0.00589529 0.0157557
0.00835609 -0.00212365 0.00567563
0.0066235 0.00246731 -0.00659411
0.00233264 0.00609884 -0.0162991
-0.00155065 0.0116238 -0.0118029
-0.00405369 0.00938154 -0.00952611
-0.00499279 0.00351979 -0.00357404
-0.00400564 -0.00369991 0.00375693
-0.00147308 -0.00949216 0.00963845
0.00162781 -0.0116223 0.0118014
0.00410067 -0.00926842 0.00941125
0.00499147 -0.00333874 0.00339019
0.00395652 0.00387905 -0.00393883
0.00139511 0.00960027 -0.00974822
0 0.00431737 0
0 0.00366579 0
0 0.00137534 0
0 -0.00144572 0
0 -0.00370902 0
0 -0.00454135 0
0 -0.00362159 0
0 -0.0013046 0
0 0.00151572 0
0 0.00356576 0
0.00262124 0.0026517 0.00878349
0.00686089 0.00214299 0.00709787
0.00845033 0.000804015 0.002663
0.00677956 -0.000845159 -0.00279927
0.00249319 -0.00216827 -0.00718157
-0.00275508 -0.00265484 -0.00879316
-0.00694041 -0.00211715 -0.00701228
-0.00844808 -0.000762658 -0.00252602
-0.00669642 0.000886077 0.0029348
-0.00235832 0.00219007 0.00725441
0.00423119 -3.7021e-05 0.0141782
0.0110748 -2.99163e-05 0.0114573
0.0136405 -1.12241e-05 0.00429859
0.0109435 1.17985e-05 -0.00451857
0.00402448 3.02691e-05 -0.0115924
-0.00444722 3.70616e-05 -0.0141939
-0.0112032 2.95556e-05 -0.0113192
-0.0136368 1.06467e-05 -0.00407748
-0.0108093 -1.23697e-05 0.00473733
-0.00380678 -3.05761e-05 0.01171
0.00420872 -0.00271146 0.0141029
0.011016 -0.0021911 0.0113965
0.013568 -0.000822066 0.00427576
0.0108854 0.000864134 -0.00449457
0.00400311 0.00221694 -0.0115309
-0.0044236 0.00271444 -0.0141185
-0.0111436 0.00216469 -0.0112591
-0.0135644 0.00077978 -0.00405582
-0.0107519 -0.000905971 0.00471217
-0.00378656 -0.00223942 0.0116478
0.00256249 -0.00433979 0.00858659
0.0067071 -0.00350695 0.00693876
0.0082609 -0.00131575 0.00260331
0.00662759 0.00138308 -0.00273652
0.0024373 0.00354831 -0.00702058
-0.00269332 0.00434457 -0.00859605
-0.00678483 0.00346467 -0.00685509
-0.00825871 0.00124807 -0.0024694
-0.00654631 -0.00145004 0.00286901
-0.00230545 -0.00358428 0.00709179
-7.23714e-05 -0.0042938 -0.000242508
-0.000189426 -0.00346979 -0.000195969
-0.00023331 -0.00130181 -7.35243e-05
-0.000187181 0.00136842 7.72868e-05
-6.88358e-05 0.0035107 0.00019828
7.60664e-05 0.00429853 0.000242775
0.000191622 0.00342795 0.000193606
0.000233248 0.00123484 6.97423e-05
0.000184885 -0.00143467 -8.10285e-05
6.51122e-05 -0.0035463 -0.000200291
-0.00267931 -0.00259123 -0.00897805
-0.00701287 -0.00209395 -0.00725509
-0.00863751 -0.000785617 -0.00272199
-0.00692973 0.000825819 0.00286128
-0.00254841 0.00211865 0.00734064
0.0028161 0.00259409 0.00898794
0.00709415 0.00206871 0.00716761
0.00863521 0.000745206 0.00258197
0.00684475 -0.000865801 -0.00299981
0.00241056 -0.00214013 -0.0074151
-0.00425255 0.000111054 -0.0142498
-0.0111307 8.97421e-05 -0.0115151
-0.0137093 3.36697e-05 -0.00432029
-0.0109987 -3.53927e-05 0.00454137
-0.00404479 -9.08005e-05 0.0116509
0.00446966 -0.000111177 0.0142655
0.0112597 -8.86601e-05 0.0113763
0.0137056 -3.19378e-05 0.00409806
0.0108639 3.71062e-05 -0.00476124
0.00382599 9.1721e-05 -0.0117691
-0.00418512 0.00277049 -0.0140239
-0.0109542 0.00223881 -0.0113326
-0.0134919 0.000839964 -0.00425179
-0.0108243 -0.000882948 0.00446937
-0.00398066 -0.00226521 0.0114662
0.00439879 -0.00277354 0.0140393
0.0110812 -0.00221182 0.0111959
0.0134883 -0.000796758 0.00403308
0.0106916 0.000925695 -0.00468575
0.00376533 0.00228818 -0.0115825
-0.00250305 0.00436106 -0.00838742
-0.00654344 0.00351979 -0.00676945
-0.00805933 0.00132057 -0.00253978
-0.00646587 -0.00138814 0.00266975
-0.00237783 -0.0035613 0.00684928
0.0026276 -0.00436048 0.0083863
0.00661928 -0.00347735 0.00668783
0.00805719 -0.00125264 0.00240914
0.00638658 0.00145535 -0.00279901
0.00225198 0.00360186 -0.00692728
0 -0.0045383 0
0 -0.00385338 0
0 -0.00144572 0
0 0.0015197 0
0 0.00389882 0
0 0.00477374 0
0 0.00380692 0
0 0.00137136 0
0 -0.00159328 0
0 -0.00374824 0
0.00260732 -0.00278739 0.00181794
0.00682445 -0.00225266 0.00146906
0.00840544 -0.000845159 0.000551167
0.00674354 0.000888409 -0.000579372
0.00247994 0.00227922 -0.00148639
-0.00274044 0.00279069 -0.00181994
-0.00690354 0.0022255 -0.00145135
-0.00840321 0.000801685 -0.000522816
-0.00666085 -0.00093142 0.000607422
-0.00234579 -0.00230214 0.00150146
0.00420872 3.89155e-05 0.0029345
0.011016 3.14472e-05 0.00237135
0.013568 1.17985e-05 0.00088969
0.0108854 -1.24022e-05 -0.000935218
0.0040031 -3.1818e-05 -0.00239931
-0.0044236 -3.89582e-05 -0.00293773
-0.0111436 -3.1068e-05 -0.00234276
-0.0135644 -1.11916e-05 -0.000843925
-0.0107519 1.30027e-05 0.000980496
-0.00378656 3.21408e-05 0.00242365
0.00418636 0.00285021 0.00291891
0.0109575 0.00230323 0.00235875
0.0134959 0.000864134 0.000884964
0.0108276 -0.000908355 -0.000930249
0.00398184 -0.00233039 -0.00238657
-0.0044001 -0.00285335 -0.00292213
-0.0110844 -0.00227546 -0.00233031
-0.0134923 -0.000819684 -0.000839442
-0.0106948 0.000952331 0.000975287
-0.00376645 0.00235402 0.00241077
0.00254887 0.00456187 0.00177719
0.00667147 0.00368641 0.00143613
0.00821702 0.00138308 0.000538812
0.00659238 -0.00145386 -0.000566385
0.00242435 -0.00372988 -0.00145307
-0.00267901 -0.0045669 -0.00177914
-0.00674878 -0.00364197 -0.00141881
-0.00821483 -0.00131194 -0.000511096
-0.00651154 0.00152424 0.000593806
-0.00229321 0.0037677 0.0014678
-7.1987e-05 0.00451353 -5.01925e-05
-0.00018842 0.00364734 -4.05601e-05
-0.00023207 0.00136842 -1.52175e-05
-0.000186186 -0.00143845 1.59962e-05
-6.84702e-05 -0.00369036 4.10385e-05
7.56623e-05 -0.0045185 5.02477e-05
0.000190604 -0.00360337 4.00711e-05
0.000232009 -0.00129803 1.44347e-05
0.000183903 0.00150809 -1.67707e-05
6.47663e-05 0.00372777 -4.14547e-05
-0.00266507 0.00272383 -0.00185821
-0.00697562 0.00220111 -0.0015016
-0.00859162 0.000825819 -0.000563376
-0.00689292 -0.000868079 0.000592205
-0.00253488 -0.00222707 0.00151931
0.00280114 -0.00272683 0.00186025
0.00705646 -0.00217457 0.0014835
0.00858934 -0.000783341 0.000534396
0.00680839 0.000910107 -0.000620877
0.00239775 0.00224965 -0.00153472
-0.00422996 -0.000116737 -0.00294931
-0.0110716 -9.43345e-05 -0.00238331
-0.0136365 -3.53927e-05 -0.000894179
-0.0109403 3.72039e-05 0.000939938
-0.00402331 9.5447e-05 0.00241142
0.00444592 0.000116866 0.00295256
0.0111999 9.31971e-05 0.00235458
0.0136328 3.35722e-05 0.000848184
0.0108062 -3.90051e-05 -0.000985444
0.00380567 -9.64147e-05 -0.00243588
-0.00416289 -0.00291227 -0.00290255
-0.010896 -0.00235338 -0.00234552
-0.0134202 -0.000882948 -0.000880002
-0.0107669 0.000928131 0.000925035
-0.00395952 0.00238113 0.00237318
0.00437543 0.00291547 0.00290574
0.0110223 0.002325 0.00231725
0.0134167 0.00083753 0.000834736
0.0106348 -0.000973066 -0.000969819
0.00374533 -0.00240527 -0.00239726
-0.00248975 -0.00458423 -0.00173596
-0.00650868 -0.00369991 -0.00140109
-0.00801652 -0.00138814 -0.000525665
-0.00643152 0.00145918 0.000552564
-0.0023652 0.00374354 0.00141761
0.00261364 0.00458362 0.00173573
0.00658411 0.0036553 0.00138419
0.00801439 0.00131674 0.000498625
0.00635265 -0.00152983 -0.000579318
0.00224001 -0.00378618 -0.00143375
0 -0.0116431 0
0 -0.00988589 0
0 -0.00370902 0
0 0.00389882 0
0 0.0100025 0
0 0.0122471 0
0 0.00976668 0
0 0.00351823 0
0 -0.00408759 0
0 -0.00961614 0
0.00158747 -0.00715108 -0.00584899
0.00415508 -0.00577921 -0.00472652
0.00511767 -0.00216827 -0.00177331
0.00410582 0.00227922 0.00186406
0.00150992 0.00584737 0.00478226
-0.00166852 0.00715955 0.00585543
-0.00420324 0.00570953 0.00466953
-0.00511631 0.00205673 0.00168209
-0.00405547 -0.00238957 -0.0019543
-0.00142824 -0.00590616 -0.00483076
0.00256249 9.98382e-05 -0.00944139
0.0067071 8.0678e-05 -0.00762951
0.0082609 3.02691e-05 -0.00286247
0.00662759 -3.1818e-05 0.00300895
0.0024373 -8.16295e-05 0.00771948
-0.00269332 -9.99477e-05 0.00945179
-0.00678483 -7.97054e-05 0.00753753
-0.00825871 -2.87121e-05 0.00271522
-0.00654631 3.33585e-05 -0.00315462
-0.00230545 8.24575e-05 -0.00779778
0.00254887 0.00731224 -0.00939124
0.00667147 0.00590896 -0.00758898
0.00821702 0.00221694 -0.00284726
0.00659238 -0.00233039 0.00299296
0.00242435 -0.00597865 0.00767848
-0.00267901 -0.00732029 0.00940158
-0.00674878 -0.00583772 0.00749748
-0.00821483 -0.00210291 0.0027008
-0.00651154 0.00244322 -0.00313787
-0.00229321 0.00603926 -0.00775635
0.00155189 0.0117035 -0.00571787
0.00406194 0.00945752 -0.00462057
0.00500295 0.00354831 -0.00173356
0.00401378 -0.00372988 0.00182227
0.00147607 -0.00956906 0.00467506
-0.00163112 -0.0117164 0.00572417
-0.00410901 -0.0093435 0.00456486
-0.00500162 -0.00336578 0.00164439
-0.00396456 0.00391047 -0.0019105
-0.00139622 0.00966608 -0.00472247
-4.38294e-05 0.0115795 0.000161488
-0.00011472 0.0093573 0.000130497
-0.000141297 0.0035107 4.89604e-05
-0.00011336 -0.00369036 -5.14658e-05
-4.16882e-05 -0.00946765 -0.000132036
4.60672e-05 -0.0115923 -0.000161666
0.000116049 -0.00924449 -0.000128924
0.000141259 -0.00333012 -4.64419e-05
0.00011197 0.00386902 5.39575e-05
3.94331e-05 0.00956365 0.000133375
-0.00162264 0.00698803 0.00597855
-0.00424712 0.00564697 0.00483121
-0.00523103 0.00211865 0.00181259
-0.00419677 -0.00222707 -0.00190535
-0.00154336 -0.00571356 -0.00488819
0.00170548 -0.00699573 -0.00598513
0.00429634 -0.00557888 -0.00477297
0.00522964 -0.00200967 -0.00171935
0.0041453 0.00233489 0.00199759
0.00145988 0.00577149 0.00493776
-0.00257542 -0.000299491 0.00948904
-0.00674094 -0.000242016 0.00766801
-0.00830259 -9.08005e-05 0.00287691
-0.00666104 9.5447e-05 -0.00302413
-0.0024496 0.00024487 -0.00775844
0.00270691 0.000299821 -0.00949949
0.00681907 0.000239098 -0.00757556
0.00830038 8.61298e-05 -0.00272893
0.00657934 -0.000100068 0.00317054
0.00231709 -0.000247353 0.00783713
-0.00253458 -0.00747145 0.00933859
-0.00663406 -0.00603761 0.00754643
-0.00817095 -0.00226521 0.0028313
-0.00655542 0.00238113 -0.00297618
-0.00241076 0.00610881 -0.00763543
0.00266399 0.00747967 -0.00934887
0.00671095 0.00596482 -0.00745544
0.00816877 0.00214869 -0.00268566
0.00647503 -0.00249641 0.00312027
0.00228035 -0.00617076 0.00771287
-0.00151589 -0.0117609 0.00558524
-0.00396283 -0.00949216 0.00450783
-0.00488087 -0.0035613 0.00169126
-0.00391585 0.00374354 -0.00177781
-0.00144005 0.0096041 -0.00456098
0.00159132 0.0117593 -0.0055845
0.00400875 0.00937771 -0.00445347
0.00487958 0.00337811 -0.00160426
0.00386783 -0.00392479 0.00186388
0.00136384 -0.00971348 0.00461293
0 -0.0142558 0
0 -0.0121043 0
0 -0.00454135 0
0 0.00477374 0
0 0.0122471 0
0 0.0149954 0
0 0.0119584 0
0 0.00430774 0
0 -0.00500487 0
0 -0.0117741 0
-4.48344e-05 -0.00875583 -0.0112593
-0.000117351 -0.00707611 -0.00909857
-0.000144537 -0.00265484 -0.00341363
-0.000115959 0.00279069 0.00358832
-4.26441e-05 0.00715955 0.00920587
4.71235e-05 0.00876621 0.0112717
0.00011871 0.00699079 0.00898888
0.000144498 0.00251827 0.00323804
0.000114537 -0.0029258 -0.00376205
4.03373e-05 -0.00723154 -0.00929924
-7.23714e-05 0.000122243 -0.0181747
-0.000189426 9.87827e-05 -0.0146868
-0.00023331 3.70616e-05 -0.00551026
-0.000187181 -3.89582e-05 0.00579224
-6.88358e-05 -9.99477e-05 0.01486
7.60664e-05 -0.000122377 0.0181947
0.000191622 -9.75918e-05 0.0145098
0.000233248 -3.51553e-05 0.00522682
0.000184885 4.08443e-05 -0.00607267
6.51122e-05 0.000100961 -0.0150108
-7.1987e-05 0.00895316 -0.0180782
-0.00018842 0.00723497 -0.0146088
-0.00023207 0.00271444 -0.00548099
-0.000186186 -0.00285335 0.00576147
-6.84702e-05 -0.00732029 0.0147811
7.56623e-05 -0.00896302 0.0180981
0.000190604 -0.00714774 0.0144327
0.000232009 -0.00257481 0.00519905
0.000183903 0.00299149 -0.00604041
6.47663e-05 0.00739451 -0.014931
-4.38294e-05 0.0143299 -0.0110069
-0.00011472 0.0115799 -0.00889461
-0.000141297 0.00434457 -0.00333711
-0.00011336 -0.0045669 0.00350788
-4.16882e-05 -0.0117164 0.00899951
4.60672e-05 -0.0143457 0.0110191
0.000116049 -0.0114402 0.00878737
0.000141259 -0.00412109 0.00316545
0.00011197 0.004788 -0.00367771
3.94331e-05 0.0118352 -0.00909078
1.23786e-06 0.014178 0.000310865
3.24e-06 0.0114571 0.000251208
3.99059e-06 0.00429853 9.42489e-05
3.20159e-06 -0.0045185 -9.90719e-05
1.17739e-06 -0.0115923 -0.00025417
-1.30106e-06 -0.0141936 -0.000311207
-3.27755e-06 -0.011319 -0.000248179
-3.98953e-06 -0.00407742 -8.94009e-05
-3.16233e-06 0.00473726 0.000103868
-1.1137e-06 0.0117098 0.000256748
4.58276e-05 0.00855619 0.0115087
0.00011995 0.00691418 0.00930011
0.000147738 0.00259409 0.00348925
0.000118528 -0.00272683 -0.0036678
4.35887e-05 -0.00699573 -0.00940979
-4.81673e-05 -0.00856561 -0.0115214
-0.00012134 -0.00683082 -0.00918798
-0.000147699 -0.00246065 -0.00330976
-0.000117074 0.00285885 0.00384538
-4.12308e-05 0.00706665 0.00950522
7.27366e-05 -0.000366699 0.0182664
0.000190382 -0.000296326 0.014761
0.000234487 -0.000111177 0.00553807
0.000188125 0.000116866 -0.00582147
6.91832e-05 0.000299821 -0.014935
-7.64503e-05 0.000367102 -0.0182866
-0.000192589 0.000292753 -0.014583
-0.000234425 0.000105458 -0.0052532
-0.000185818 -0.000122524 0.00610331
-6.54408e-05 -0.000302861 0.0150865
7.15834e-05 -0.0091481 0.0179768
0.000187364 -0.00739249 0.0145269
0.000230769 -0.00277354 0.00545026
0.000185143 0.00291547 -0.00572916
6.80863e-05 0.00747967 -0.0146982
-7.52381e-05 0.00915816 -0.0179966
-0.000189535 0.00730336 -0.0143518
-0.000230708 0.00263087 -0.0051699
-0.000182872 -0.00305662 0.00600654
-6.44032e-05 -0.00755552 0.0148473
4.28127e-05 -0.0144001 0.0107516
0.000111921 -0.0116223 0.00867759
0.000137849 -0.00436048 0.00325568
0.000110594 0.00458362 -0.00342229
4.0671e-05 0.0117593 -0.00877992
-4.49431e-05 0.0143982 -0.0107502
-0.000113218 0.0114821 -0.00857296
-0.000137812 0.00413618 -0.00308822
-0.000109238 -0.00480554 0.00358798
-3.85184e-05 -0.0118932 0.00887991
0 -0.0113686 0
0 -0.00965286 0
0 -0.00362159 0
0 0.00380692 0
0 0.00976668 0
0 0.0119584 0
0 0.00953646 0
0 0.0034353 0
0 -0.00399123 0
0 -0.00938947 0
-0.00165984 -0.00698252 -0.0123257
-0.00434451 -0.00564299 -0.00996033
-0.00535098 -0.00211715 -0.00373695
-0.004293 0.0022255 0.00392818
-0.00157875 0.00570953 0.0100778
0.00174459 0.00699079 0.0123393
0.00439486 0.00557495 0.00984024
0.00534956 0.00200825 0.00354473
0.00424036 -0.00233324 -0.00411836
0.00149335 -0.00576694 -0.01018
-0.00267931 9.74848e-05 -0.0198961
-0.00701287 7.87763e-05 -0.0160779
-0.00863751 2.95556e-05 -0.00603215
-0.00692973 -3.1068e-05 0.00634084
-0.00254841 -7.97054e-05 0.0162675
0.0028161 -9.75918e-05 0.019918
0.00709415 -7.78265e-05 0.015884
0.00863521 -2.80353e-05 0.00572187
0.00684475 3.25722e-05 -0.00664783
0.00241056 8.05138e-05 -0.0164325
-0.00266507 0.00713988 -0.0197904
-0.00697562 0.00576968 -0.0159925
-0.00859162 0.00216469 -0.00600011
-0.00689292 -0.00227546 0.00630716
-0.00253488 -0.00583772 0.0161811
0.00280114 -0.00714774 0.0198122
0.00705646 -0.00570011 0.0157997
0.00858934 -0.00205334 0.00569147
0.00680839 0.00238563 -0.00661251
0.00239775 0.00589691 -0.0163452
-0.00162264 0.0114277 -0.0120494
-0.00424712 0.00923459 -0.00973705
-0.00523103 0.00346467 -0.00365318
-0.00419677 -0.00364197 0.00384013
-0.00154336 -0.0093435 0.00985189
0.00170548 -0.0114402 0.0120627
0.00429634 -0.00912325 0.00961966
0.00522964 -0.00328645 0.00346527
0.0041453 0.00381829 -0.00402604
0.00145988 0.00943823 -0.0099518
4.58276e-05 0.0113066 0.000340308
0.00011995 0.00913673 0.000275
0.000147738 0.00342795 0.000103176
0.000118528 -0.00360337 -0.000108455
4.35887e-05 -0.00924449 -0.000278243
-4.81673e-05 -0.011319 -0.000340683
-0.00012134 -0.00902658 -0.000271685
-0.000147699 -0.00325162 -9.78684e-05
-0.000117074 0.00377783 0.000113706
-4.12308e-05 0.00933821 0.000281065
0.00169661 0.00682331 0.0125988
0.00444074 0.00551386 0.010181
0.0054695 0.00206871 0.00381973
0.0043881 -0.00217457 -0.00401519
0.00161372 -0.00557888 -0.010301
-0.00178323 -0.00683082 -0.0126126
-0.00449221 -0.00544738 -0.0100582
-0.00546805 -0.0019623 -0.00362325
-0.00433428 0.00227985 0.00420959
-0.00152643 0.00563545 0.0104055
0.00269283 -0.000292431 0.0199965
0.00704826 -0.000236311 0.016159
0.0086811 -8.86601e-05 0.0060626
0.00696471 9.31971e-05 -0.00637284
0.00256127 0.000239098 -0.0163496
-0.00283031 0.000292753 -0.0200185
-0.00712995 0.000233462 -0.0159642
-0.00867879 8.40995e-05 -0.00575074
-0.00687929 -9.77092e-05 0.00668138
-0.00242272 -0.000241522 0.0165154
0.00265013 -0.00729534 0.0196795
0.00693651 -0.00589529 0.0159028
0.00854345 -0.00221182 0.00596647
0.00685427 0.002325 -0.00627179
0.00252066 0.00596482 -0.0160904
-0.00278544 0.00730336 -0.0197011
-0.00701689 0.00582422 -0.0157111
-0.00854118 0.00209804 -0.00565957
-0.00677022 -0.00243757 0.00657544
-0.00238431 -0.0060253 0.0162536
0.001585 -0.0114837 0.0117699
0.00414349 -0.00926842 0.00949947
0.00510339 -0.00347735 0.00356404
0.00409437 0.0036553 -0.00374642
0.00150571 0.00937771 -0.00961149
-0.00166387 0.0114821 -0.0117684
-0.00419151 0.00915666 -0.00938493
-0.00510203 0.00329848 -0.00338071
-0.00404416 -0.00383228 0.00392781
-0.00142601 -0.00948451 0.00972096
0 -0.00409529 0
0 -0.00347723 0
0 -0.0013046 0
0 0.00137136 0
0 0.00351823 0
0 0.00430774 0
0 0.0034353 0
0 0.00123749 0
0 -0.00143775 0
0 -0.00338235 0
-0.00263447 -0.0025153 -0.00863678
-0.00689552 -0.00203276 -0.00697932
-0.00849297 -0.000762658 -0.00261852
-0.00681378 0.000801685 0.00275252
-0.00250577 0.00205673 0.00706162
0.00276898 0.00251827 0.0086463
0.00697544 0.00200825 0.00689516
0.00849072 0.000723427 0.00248383
0.00673021 -0.000840498 -0.00288578
0.00237022 -0.00207741 -0.00713324
-0.00425255 3.51167e-05 -0.0139414
-0.0111307 2.83774e-05 -0.011266
-0.0137093 1.06467e-05 -0.0042268
-0.0109987 -1.11916e-05 0.0044431
-0.00404479 -2.87121e-05 0.0113988
0.00446966 -3.51553e-05 0.0139568
0.0112597 -2.80353e-05 0.0111301
0.0137056 -1.00991e-05 0.00400938
0.0108639 1.17334e-05 -0.00465821
0.00382599 2.90033e-05 -0.0115144
-0.00422996 0.00257198 -0.0138674
-0.0110716 0.0020784 -0.0112061
-0.0136365 0.00077978 -0.00420435
-0.0109403 -0.000819684 0.0044195
-0.00402331 -0.00210291 0.0113383
0.00444592 -0.00257481 0.0138826
0.0111999 -0.00205334 0.011071
0.0136328 -0.000739669 0.00398808
0.0108062 0.000859368 -0.00463346
0.00380567 0.00212423 -0.0114533
-0.00257542 0.00411656 -0.00844318
-0.00674094 0.00332656 -0.00682286
-0.00830259 0.00124807 -0.00255982
-0.00666104 -0.00131194 0.00269082
-0.0024496 -0.00336578 0.00690332
0.00270691 -0.00412109 0.00845248
0.00681907 -0.00328645 0.0067406
0.00830038 -0.00118387 0.00242815
0.00657934 0.00137545 -0.00282109
0.00231709 0.00339991 -0.00697334
7.27366e-05 0.00407293 0.000238458
0.000190382 0.0032913 0.000192696
0.000234487 0.00123484 7.22963e-05
0.000188125 -0.00129803 -7.59959e-05
6.91832e-05 -0.00333012 -0.000194968
-7.64503e-05 -0.00407742 -0.00023872
-0.000192589 -0.00325162 -0.000190373
-0.000234425 -0.00117132 -6.85774e-05
-0.000185818 0.00136088 7.96752e-05
-6.54408e-05 0.00336388 0.000196946
0.00269283 0.00245794 0.00882809
0.00704826 0.00198624 0.00713391
0.0086811 0.000745206 0.00267653
0.00696471 -0.000783341 -0.00281349
0.00256127 -0.00200967 -0.00721804
-0.00283031 -0.00246065 -0.00883782
-0.00712995 -0.0019623 -0.00704789
-0.00867879 -0.000706873 -0.00253885
-0.00687929 0.000821265 0.0029497
-0.00242272 0.00203004 0.00729125
0.00427401 -0.000105342 0.0140118
0.0111869 -8.51258e-05 0.0113228
0.0137785 -3.19378e-05 0.00424813
0.0110543 3.35722e-05 -0.00446552
0.00406521 8.61298e-05 -0.0114563
-0.00449222 0.000105458 -0.0140272
-0.0113165 8.40995e-05 -0.0111863
-0.0137748 3.02949e-05 -0.00402961
-0.0109187 -3.51975e-05 0.00468172
-0.0038453 -8.7003e-05 0.0115725
0.00420624 -0.00262798 0.0137896
0.0110095 -0.00212365 0.0111433
0.01356 -0.000796758 0.00418077
0.010879 0.00083753 -0.00439472
0.00400075 0.00214869 -0.0112747
-0.00442099 0.00263087 -0.0138048
-0.0111371 0.00209804 -0.0110089
-0.0135564 0.000755773 -0.00396572
-0.0107456 -0.000878078 0.00460749
-0.00378433 -0.00217048 0.011389
0.00251568 -0.00413673 0.00824733
0.00657646 -0.00333874 0.00665639
0.0081 -0.00125264 0.00249736
0.0064985 0.00131674 -0.00262516
0.00238983 0.00337811 -0.00673488
-0.00264086 0.00413618 -0.00824623
-0.00665268 0.00329848 -0.00657613
-0.00809785 0.0011882 -0.0023689
-0.00641881 -0.00138049 0.00275226
-0.00226334 -0.00341658 0.00681158
0 0.00475803 0
0 0.00403994 0
0 0.00151572 0
0 -0.00159328 0
0 -0.00408758 0
0 -0.00500486 0
0 -0.00399123 0
0 -0.00143775 0
0 0.00167042 0
0 0.00392971 0
-0.0025927 0.00292235 -0.0016157
-0.00678619 0.00236171 -0.00130564
-0.00835831 0.000886076 -0.000489854
-0.00670574 -0.00093142 0.000514921
-0.00246604 -0.00238957 0.00132104
0.00272507 -0.0029258 0.00161748
0.00686483 -0.00233324 0.0012899
0.00835609 -0.000840498 0.000464656
0.0066235 0.000976514 -0.000539851
0.00233264 0.0024136 -0.00133443
-0.00418512 -4.07997e-05 -0.00260805
-0.0109542 -3.29696e-05 -0.00210755
-0.0134919 -1.23697e-05 -0.000790718
-0.0108243 1.30027e-05 0.000831182
-0.00398066 3.33585e-05 0.00213241
0.0043988 4.08443e-05 0.00261093
0.0110812 3.25721e-05 0.00208214
0.0134883 1.17334e-05 0.000750045
0.0106916 -1.36322e-05 -0.000871423
0.00376533 -3.36969e-05 -0.00215403
-0.00416289 -0.00298821 -0.0025942
-0.010896 -0.00241474 -0.00209636
-0.0134203 -0.00090597 -0.000786518
-0.0107669 0.000952331 0.000826767
-0.00395952 0.00244322 0.00212108
0.00437543 0.00299149 0.00259706
0.0110223 0.00238563 0.00207108
0.0134167 0.000859368 0.000746061
0.0106348 -0.000998438 -0.000866794
0.00374533 -0.00246799 -0.00214258
-0.00253458 -0.00478274 -0.00157948
-0.00663406 -0.00386488 -0.00127637
-0.00817095 -0.00145004 -0.000478873
-0.00655542 0.00152424 0.000503379
-0.00241076 0.00391046 0.00129142
0.00266399 0.004788 0.00158123
0.00671095 0.00381828 0.00126098
0.00816877 0.00137545 0.000454241
0.00647503 -0.00159804 -0.000527749
0.00228035 -0.00395012 -0.00130452
7.15834e-05 -0.00473206 4.46088e-05
0.000187364 -0.00382393 3.60481e-05
0.000230769 -0.00143467 1.35247e-05
0.000185143 0.00150809 -1.42168e-05
6.80863e-05 0.00386902 -3.64732e-05
-7.52381e-05 0.00473726 -4.46581e-05
-0.000189535 0.00377782 -3.56135e-05
-0.000230708 0.00136088 -1.2829e-05
-0.000182872 -0.0015811 1.4905e-05
-6.44032e-05 -0.00390826 3.6843e-05
0.00265013 -0.00285571 0.00165149
0.0069365 -0.00230767 0.00133456
0.00854345 -0.0008658 0.000500704
0.00685427 0.000910106 -0.000526327
0.00252066 0.00233489 -0.0013503
-0.00278544 0.00285885 -0.00165331
-0.00701689 0.00227985 -0.00131847
-0.00854118 0.000821265 -0.000474949
-0.00677022 -0.000954168 0.000551809
-0.00238431 -0.00235857 0.00136399
0.00420624 0.000122389 0.00262121
0.0110095 9.89016e-05 0.00211819
0.01356 3.71062e-05 0.000794709
0.010879 -3.90051e-05 -0.000835377
0.00400075 -0.000100068 -0.00214317
-0.00442099 -0.000122524 -0.00262411
-0.0111371 -9.77092e-05 -0.00209265
-0.0135564 -3.51975e-05 -0.00075383
-0.0107456 4.08935e-05 0.000875821
-0.00378433 0.000101083 0.0021649
0.00413955 0.00305327 0.00257965
0.0108349 0.00246731 0.0020846
0.013345 0.000925695 0.000782109
0.0107065 -0.000973066 -0.000822131
0.00393731 -0.00249641 -0.00210919
-0.0043509 -0.00305662 -0.0025825
-0.0109605 -0.00243756 -0.00205947
-0.0133415 -0.000878078 -0.000741878
-0.0105752 0.00102018 0.000861934
-0.00372433 0.00252173 0.00213057
0.00247579 0.00480618 0.00154284
0.00647219 0.00387905 0.00124522
0.00797158 0.00145535 0.000467187
0.00639547 -0.00152983 -0.000491094
0.00235194 -0.00392479 -0.00125991
-0.00259899 -0.00480554 -0.00154264
-0.0065472 -0.00383228 -0.00123021
-0.00796946 -0.00138049 -0.000443155
-0.00631704 0.0016039 0.000514871
-0.00222746 0.00396949 0.00127426
0 0.0117757 0
0 0.00950408 0
0 0.00356577 0
0 -0.00374824 0
0 -0.00961615 0
0 -0.0117741 0
0 -0.00938948 0
0 -0.00338235 0
0 0.00392972 0
0 0.00972566 0
-0.00155065 0.00723253 0.00602874
-0.00405368 0.00583733 0.00486578
-0.00499278 0.00219007 0.00182556
-0.00400563 -0.00230214 -0.00191898
-0.00147307 -0.00590617 -0.00492315
0.0016278 -0.00723155 -0.00602794
0.00410066 -0.00576695 -0.0048071
0.00499145 -0.00207741 -0.00173165
0.00395651 0.0024136 0.00201189
0.00139511 0.00597343 0.00497922
-0.00250305 -0.000100975 0.00973155
-0.00654342 -8.14965e-05 0.0078543
-0.00805931 -3.05761e-05 0.0029468
-0.00646585 3.21408e-05 -0.0030976
-0.00237782 8.24575e-05 -0.00794692
0.00262759 0.000100962 -0.00973026
0.00661926 8.05139e-05 -0.00775959
0.00805717 2.90033e-05 -0.00279522
0.00638656 -3.36969e-05 0.00324757
0.00225198 -8.33967e-05 0.00803742
-0.00248975 -0.00739552 0.00967985
-0.00650867 -0.00596888 0.00781257
-0.0080165 -0.00223942 0.00293115
-0.00643151 0.00235402 -0.00308114
-0.00236519 0.00603927 -0.0079047
0.00261363 0.00739452 -0.00967857
0.0065841 0.00589691 -0.00771837
0.00801437 0.00212423 -0.00278037
0.00635264 -0.002468 0.00323032
0.00224001 -0.00610805 0.00799473
-0.00151589 -0.0118368 0.0058936
-0.00396281 -0.00955343 0.0047567
-0.00488086 -0.00358429 0.00178463
-0.00391583 0.0037677 -0.00187596
-0.00144005 0.00966609 -0.00481279
0.00159132 0.0118352 -0.00589282
0.00400874 0.00943824 -0.00469935
0.00487956 0.00339991 -0.00169283
0.00386782 -0.00395012 0.00196679
0.00136384 -0.00977617 0.0048676
4.28127e-05 -0.0117114 -0.000166451
0.00011192 -0.00945219 -0.000134342
0.000137849 -0.0035463 -5.04028e-05
0.000110594 0.00372778 5.29821e-05
4.06709e-05 0.00956365 0.000135926
-4.4943e-05 0.0117098 0.000166429
-0.000113217 0.00933822 0.000132722
-0.000137812 0.00336388 4.78102e-05
-0.000109237 -0.00390826 -5.55473e-05
-3.85184e-05 -0.00967257 -0.000137474
0.001585 -0.00706761 -0.00616228
0.00414347 -0.00570423 -0.00497355
0.00510337 -0.00214013 -0.00186599
0.00409435 0.00224965 0.00196148
0.0015057 0.0057715 0.0050322
-0.00166386 0.00706666 0.00616146
-0.00419149 0.00563545 0.00491359
-0.00510202 0.00203004 0.00177001
-0.00404415 -0.00235857 -0.00205645
-0.00142601 -0.00583723 -0.00508951
0.00251568 0.000302902 -0.00978066
0.00657645 0.00024447 -0.00789393
0.00809998 9.17211e-05 -0.00296167
0.00649848 -9.64148e-05 0.00311323
0.00238982 -0.000247353 0.00798702
-0.00264085 -0.000302861 0.00977936
-0.00665266 -0.000241523 0.00779875
-0.00809783 -8.70031e-05 0.00280933
-0.00641879 0.000101083 -0.00326396
-0.00226334 0.00025017 -0.00807798
0.00247579 0.00755655 -0.00962559
0.00647218 0.00609885 -0.00776877
0.00797155 0.00228818 -0.00291471
0.00639545 -0.00240528 0.00306387
0.00235193 -0.00617076 0.00786038
-0.00259898 -0.00755552 0.00962431
-0.00654718 -0.00602531 0.0076751
-0.00796944 -0.00217048 0.00276478
-0.00631702 0.00252173 -0.00321221
-0.00222746 0.00624104 -0.00794991
0.00148073 0.0118948 -0.00575689
0.0038709 0.00960027 -0.00464636
0.00476766 0.00360186 -0.00174324
0.00382501 -0.00378618 0.00183244
0.00140665 -0.00971348 0.00470115
-0.00155441 -0.0118932 0.00575612
-0.00391576 -0.00948451 0.00459034
-0.00476639 -0.00341658 0.00165357
-0.00377811 0.00396949 -0.00192116
-0.0013322 0.0098241 -0.0047547
