# vtk DataFile Version 3.0
Velocity field
ASCII
DATASET STRUCTURED_POINTS
DIMENSIONS 8 8 8
SPACING 0.8 0.8 0.8
ORIGIN 0 0 0
POINT_DATA 512
VECTORS velocity float
0 0.267789 0
0 0.18657 0
0 -0.00781931 0
0 -0.197466 0
0 -0.267332 0
0 -0.175039 0
0 0.0234313 0
0 0.207688 0
0 0.105352 0.273319
0 0.0733993 0.201893
0 -0.00307622 -0.00846151
0 -0.0776857 -0.213684
0 -0.105172 -0.289288
0 -0.0688625 -0.189414
0 0.00921819 0.0253557
0 0.0817072 0.211977
0 -0.12099 0.380846
0 -0.0842948 0.281321
0 0.00353286 -0.0117904
0 0.0892175 -0.29775
0 0.120784 -0.403098
0 0.0790846 -0.263933
0 -0.0105866 0.035331
0 -0.093836 0.295371
0 -0.273941 0.257357
0 -0.190857 0.190103
0 0.00799896 -0.00796737
0 0.202003 -0.201205
0 0.273474 -0.272394
0 0.17906 -0.178353
0 -0.0239696 0.023875
0 -0.21246 0.199597
0 -0.260723 -0.022241
0 -0.181648 -0.0164289
0 0.007613 0.000688548
0 0.192256 0.0173883
0 0.260279 0.0235406
0 0.17042 0.0154134
0 -0.0228131 -0.0020633
0 -0.202208 -0.0172494
0 -0.0893538 -0.288348
0 -0.0622534 -0.212995
0 0.00260909 0.0089268
0 0.0658889 0.225434
0 0.0892014 0.305196
0 0.0584056 0.19983
0 -0.00781838 -0.02675
0 -0.0692998 -0.223633
0 0.136216 -0.379547
0 0.0949029 -0.280362
0 -0.00397746 0.0117502
0 -0.100445 0.296734
0 -0.135984 0.401723
0 -0.089037 0.263033
0 0.0119188 -0.0352105
0 0.105645 -0.294364
0 0.27916 -0.240518
0 0.194492 -0.16757
0 -0.00815133 0.00702301
0 -0.20585 0.177356
0 -0.278684 0.240108
0 -0.182471 0.157213
0 0.0244262 -0.0210451
0 0.216507 -0.186537
0 0.18657 0
0 0.141125 0
0 -0.00591467 0
0 -0.149367 0
0 -0.202215 0
0 -0.132402 0
0 0.0177238 0
0 0.144698 0
0.0582626 0.0733993 0.269964
0.142662 0.0523963 0.192484
0.13919 -0.00219663 -0.00806954
0.0512787 -0.0554709 -0.203778
-0.0677385 -0.0750973 -0.275876
-0.145667 -0.0491706 -0.180633
-0.135227 0.00657161 0.0241429
-0.0418046 0.0569259 0.209375
0.081184 -0.0842948 0.376172
0.198788 -0.060057 0.268211
0.19395 0.00251772 -0.0112441
0.0714518 0.0635795 -0.283945
-0.0943887 0.0860747 -0.384412
-0.202975 0.0563582 -0.251697
-0.188429 -0.00753313 0.033641
-0.0582511 -0.0653761 0.291746
0.0548602 -0.190857 0.254199
0.13433 -0.135979 0.181244
0.131063 0.00570062 -0.00759825
0.0482837 0.143956 -0.191878
-0.0637832 0.194889 -0.259767
-0.137159 0.127606 -0.170083
-0.127331 -0.0170563 0.0227329
-0.0393633 -0.148022 0.197148
-0.00474107 -0.181648 -0.0219681
-0.011609 -0.129418 -0.0156632
-0.0113265 0.00542553 0.000656645
-0.00417272 0.137009 0.0165823
0.00551217 0.185487 0.0224491
0.0118536 0.121449 0.0146988
0.011004 -0.0162334 -0.00196461
0.00340181 -0.14088 -0.0170377
-0.0614664 -0.0622534 -0.284809
-0.150506 -0.044354 -0.203069
-0.146845 0.00185942 0.00851322
-0.0540976 0.0469557 0.214981
0.0714636 0.0635691 0.291046
0.153676 0.0416223 0.190566
0.142663 -0.00556345 -0.0254706
0.0441034 -0.0482816 -0.220888
-0.0809071 0.0949029 -0.374889
-0.198088 0.0675922 -0.267267
-0.193268 -0.00283363 0.0112045
-0.0712004 -0.0715567 0.282945
0.0940565 -0.0968741 0.383058
0.202259 -0.0634294 0.250811
0.187766 0.00847854 -0.0335229
0.0580525 0.0736034 -0.290751
-0.0512706 0.194492 -0.237566
-0.122712 0.135504 -0.165514
-0.119718 -0.00567909 0.00693682
-0.0441043 -0.143417 0.17518
0.058262 -0.194161 0.237161
0.125287 -0.127129 0.155284
0.116315 0.0170179 -0.0207868
0.0367877 0.150842 -0.184248
0 -0.00781931 0
0 -0.00591467 0
0 0.000247888 0
0 0.00626008 0
0 0.00847499 0
0 0.00554908 0
0 -0.000742821 0
0 -0.00606439 0
0.081184 -0.00307622 0.102853
0.198788 -0.00219663 0.0732988
0.19395 9.20907e-05 -0.00307289
0.0714518 0.00232554 -0.0775984
-0.0943887 0.00314835 -0.105053
-0.202975 0.00206142 -0.0687851
-0.188429 -0.000275496 0.0091939
-0.0582511 -0.00238581 0.0797696
0.113123 0.00353286 0.143317
0.276991 0.00251772 0.102136
0.270251 -0.000105549 -0.00428176
0.0995624 -0.0026654 -0.108126
-0.131523 -0.00360847 -0.146384
-0.282825 -0.0023627 -0.095847
-0.262559 0.000315799 0.0128109
-0.0811679 0.00273997 0.111152
0.0764429 0.00799896 0.0968468
0.187179 0.00570062 0.0690178
0.182624 -0.000238985 -0.00289343
0.0672787 -0.00603504 -0.073067
-0.088876 -0.00817036 -0.0989193
-0.191121 -0.00534955 -0.0647687
-0.177424 0.000715028 0.00865695
-0.0548493 0.00620372 0.0751111
-0.00660627 0.007613 -0.0083696
-0.0161762 0.00542553 -0.00596464
-0.0157826 -0.000227453 0.000250053
-0.00581435 -0.00574384 0.00631453
0.00768078 -0.0077761 0.00854864
0.0165169 -0.00509145 0.00559733
0.0153332 0.000680524 -0.000748147
0.00474013 0.00590438 -0.00649118
-0.0856481 0.00260909 -0.108509
-0.209716 0.00185942 -0.0773289
-0.204616 -7.79519e-05 0.00324186
-0.0753805 -0.00196851 0.0818647
0.0995789 -0.00266497 0.11083
0.214133 -0.00174492 0.0725677
0.19879 0.000233227 -0.00969943
0.0614543 0.00202352 -0.084156
-0.112737 -0.00397746 -0.142829
-0.276017 -0.00283363 -0.101776
-0.2693 0.000118792 0.0042667
-0.0992121 0.00299983 0.107746
0.131059 0.00406123 0.145869
0.28183 0.00265912 0.0955095
0.261634 -0.000355432 -0.0127659
0.0808911 -0.00308478 -0.110773
-0.0714411 -0.00815133 -0.09051
-0.170988 -0.00567909 -0.0630589
-0.166816 0.000238015 0.00264285
-0.0614555 0.00601074 0.0667415
0.081183 0.00813743 0.0903557
0.174577 0.00532807 0.0591613
0.162075 -0.000713235 -0.00791955
0.0512604 -0.00632189 -0.0701965
0 -0.197466 0
0 -0.149367 0
0 0.00626008 0
0 0.15809 0
0 0.214024 0
0 0.140134 0
0 -0.0187589 0
0 -0.153148 0
0.0548602 -0.0776857 -0.126647
0.13433 -0.0554709 -0.0902547
0.131063 0.00232554 0.00378371
0.0482837 0.058726 0.0955495
-0.0637832 0.0795043 0.129356
-0.137159 0.0520561 0.0846965
-0.127331 -0.00695705 -0.0113207
-0.0393633 -0.0602504 -0.0982232
0.0764429 0.0892175 -0.176472
0.187179 0.0635795 -0.125762
0.182624 -0.0026654 0.00527223
0.0672787 -0.0673087 0.13314
-0.088876 -0.0911245 0.180246
-0.191121 -0.0596646 0.118018
-0.177424 0.00797484 -0.0157744
-0.0548493 0.0691941 -0.136866
0.0516564 0.202003 -0.119251
0.126486 0.143956 -0.0849834
0.123409 -0.00603504 0.00356272
0.0454641 -0.1524 0.089969
-0.0600582 -0.206324 0.121802
-0.12915 -0.135091 0.0797506
-0.119894 0.0180565 -0.0106595
-0.0370645 0.156666 -0.092487
-0.0044642 0.192256 0.0103058
-0.010931 0.137009 0.00734437
-0.010665 -0.00574384 -0.000307895
-0.00392906 -0.145047 -0.00777523
0.00519024 -0.196368 -0.0105261
0.0111612 -0.128574 -0.0068921
0.0103613 0.0171852 0.000921207
0.00320315 0.149107 0.00799282
-0.0578768 0.0658889 0.133611
-0.141717 0.0469557 0.0952177
-0.138269 -0.00196851 -0.00399177
-0.050939 -0.0497102 -0.100803
0.0672898 -0.0672977 -0.136468
0.144702 -0.0440641 -0.0893542
0.134331 0.00588967 0.0119432
0.0415278 0.0511012 0.103624
-0.0761822 -0.100445 0.17587
-0.18652 -0.0715567 0.125319
-0.181982 0.00299983 -0.00525368
-0.067042 0.0757535 -0.132671
0.0885632 0.102557 -0.179612
0.190448 0.0671498 -0.117602
0.176799 -0.00897566 0.0157191
0.0546622 -0.0779018 0.136399
-0.0482764 -0.20585 0.111448
-0.115545 -0.143417 0.0776468
-0.112726 0.00601074 -0.00325424
-0.0415287 0.151793 -0.0821813
0.0548595 0.205499 -0.111258
0.117971 0.134553 -0.0728475
0.109522 -0.0180117 0.00975163
0.0346393 -0.159651 0.0864355
0 -0.267332 0
0 -0.202215 0
0 0.00847499 0
0 0.214024 0
0 0.289749 0
0 0.189716 0
0 -0.0253961 0
0 -0.207334 0
-0.00474107 -0.105172 -0.279325
-0.011609 -0.0750973 -0.19906
-0.0113265 0.00314835 0.00834512
-0.00417273 0.0795043 0.210735
0.00551217 0.107634 0.285298
0.0118536 0.0704744 0.186803
0.011004 -0.00941858 -0.0249682
0.00340181 -0.0815679 -0.216635
-0.00660627 0.120784 -0.389215
-0.0161762 0.0860747 -0.277371
-0.0157826 -0.00360847 0.0116282
-0.00581435 -0.0911245 0.293644
0.00768078 -0.123366 0.39754
0.0165169 -0.0807748 0.260294
0.0153332 0.0107964 -0.0347909
0.00474013 0.093676 -0.301862
-0.0044642 0.273474 -0.263013
-0.010931 0.194889 -0.187435
-0.010665 -0.00817036 0.0078578
-0.00392906 -0.206324 0.198431
0.00519024 -0.279322 0.268635
0.0111612 -0.18289 0.175893
0.0103613 0.0244452 -0.0235101
0.00320315 0.212097 -0.203984
0.0003858 0.260279 0.0227298
0.000944672 0.185487 0.0161983
0.000921685 -0.0077761 -0.000679071
0.00033955 -0.196368 -0.0171484
-0.000448548 -0.265847 -0.023216
-0.00096457 -0.174064 -0.0152009
-0.000895439 0.0232656 0.00203176
-0.000276819 0.201863 0.0176285
0.00500177 0.0892014 0.294685
0.0122474 0.0635691 0.210004
0.0119494 -0.00266497 -0.00880395
0.00440216 -0.0672977 -0.222323
-0.00581531 -0.0911095 -0.300985
-0.0125053 -0.0596548 -0.197075
-0.0116092 0.00797352 0.0263409
-0.00358887 0.0691816 0.228548
0.00658374 -0.135984 0.387888
0.0161192 -0.0968741 0.276396
0.015727 0.00406123 -0.0115873
0.0057939 0.102557 -0.29261
-0.00765376 0.138843 -0.396142
-0.0164587 0.0909092 -0.259378
-0.0152792 -0.0121514 0.0346688
-0.00472397 -0.105465 0.300833
0.0041721 -0.278684 0.245804
0.00998555 -0.194161 0.171253
0.00974191 0.00813743 -0.00717735
0.00358895 0.205499 -0.181254
-0.00474102 0.278208 -0.245384
-0.0101951 0.18216 -0.160668
-0.00946504 -0.0243846 0.0215076
-0.00299356 -0.216137 0.190637
0 -0.175039 0
0 -0.132402 0
0 0.00554908 0
0 0.140134 0
0 0.189716 0
0 0.124218 0
0 -0.0166283 0
0 -0.135754 0
-0.0614664 -0.0688625 -0.262568
-0.150506 -0.0491706 -0.187119
-0.146845 0.00206142 0.00784452
-0.0540976 0.0520561 0.198095
0.0714636 0.0704744 0.268182
0.153676 0.046144 0.175596
0.142663 -0.00616692 -0.0234703
0.0441034 -0.0534074 -0.203639
-0.0856481 0.0790846 -0.365866
-0.209716 0.0563582 -0.260733
-0.204616 -0.0023627 0.0109306
-0.0753805 -0.0596646 0.276027
0.0995789 -0.0807748 0.373692
0.214133 -0.0528878 0.244679
0.19879 0.00706905 -0.0327039
0.0614543 0.0613353 -0.283753
-0.0578768 0.17906 -0.247235
-0.141717 0.127606 -0.17619
-0.138269 -0.00534955 0.00738636
-0.050939 -0.135091 0.186527
0.0672898 -0.18289 0.252522
0.144702 -0.119749 0.16534
0.134331 0.0160058 -0.0220996
0.0415278 0.138873 -0.191747
0.00500177 0.17042 0.0213663
0.0122474 0.121449 0.0152266
0.0119494 -0.00509145 -0.000638333
0.00440216 -0.128574 -0.0161198
-0.00581531 -0.174064 -0.0218231
-0.0125053 -0.11397 -0.0142889
-0.0116092 0.0152334 0.00190988
-0.00358887 0.132172 0.0165709
0.0648464 0.0584056 0.277007
0.158782 0.0416223 0.197407
0.154919 -0.00174492 -0.00827589
0.0570724 -0.0440641 -0.208986
-0.075393 -0.0596548 -0.282929
-0.162127 -0.0390595 -0.185252
-0.150507 0.00522072 0.0247609
-0.0465286 0.0452973 0.214837
0.085356 -0.089037 0.364618
0.208978 -0.0634294 0.259815
0.203895 0.00265912 -0.0108921
0.0751153 0.0671498 -0.275056
-0.0992285 0.0909092 -0.372377
-0.21338 0.0595236 -0.243818
-0.19809 -0.00795624 0.032589
-0.0612447 -0.069054 0.282786
0.0540899 -0.182471 0.231058
0.129459 -0.127129 0.160979
0.126301 0.00532807 -0.00674678
0.0465296 0.134553 -0.17038
-0.0614657 0.18216 -0.230664
-0.132177 0.119271 -0.151029
-0.122711 -0.0159661 0.0202174
-0.0388106 -0.141518 0.1792
0 0.0234313 0
0 0.0177238 0
0 -0.000742821 0
0 -0.0187589 0
0 -0.0253961 0
0 -0.0166283 0
0 0.00222593 0
0 0.0181725 0
-0.0809071 0.00921819 -0.086541
-0.198088 0.00657149 -0.0616901
-0.193268 -0.000275491 0.00258622
-0.0712004 -0.00695693 0.0653096
0.0940565 -0.0094184 0.0884163
0.202259 -0.00616681 0.0578916
0.187766 0.0008243 -0.00773764
0.0580525 0.00714931 -0.0671182
-0.112737 -0.0105866 -0.120587
-0.276017 -0.007533 -0.0859597
-0.2693 0.000315793 0.00360367
-0.0992121 0.00797469 0.0910028
0.131059 0.0107962 0.123201
0.28183 0.00706892 0.0806674
0.261634 -0.000944988 -0.0107817
0.0808911 -0.00821057 -0.0935234
-0.0761822 -0.0239696 -0.0814871
-0.18652 -0.017056 -0.0580875
-0.181982 0.000715015 0.00243519
-0.0670421 0.0180562 0.0614953
0.0885632 0.0244447 0.0832529
0.190448 0.0160055 0.0545109
0.176799 -0.00213962 -0.00728575
0.0546622 -0.01859 -0.0631986
0.00658374 -0.0228131 0.00704219
0.0161192 -0.0162331 0.00501998
0.0157271 0.000680511 -0.000210451
0.0057939 0.0171849 -0.00531446
-0.00765376 0.0232652 -0.00719481
-0.0164587 0.0152332 -0.00471088
-0.0152792 -0.00203639 0.000629646
-0.00472397 -0.017693 0.00546168
0.085356 -0.00781838 0.0912997
0.208978 -0.00556334 0.0650824
0.203895 0.000233223 -0.00272843
0.0751153 0.00588956 -0.0689005
-0.0992285 0.00797337 -0.0932787
-0.21338 0.00522062 -0.0610752
-0.19809 -0.000697902 0.00816313
-0.0612447 -0.00606367 0.070809
0.112353 0.0119188 0.120176
0.275046 0.00847839 0.0856573
0.268353 -0.000355425 -0.00359099
0.098863 -0.0089755 -0.0906824
-0.130597 -0.0121511 -0.122767
-0.280839 -0.0079561 -0.0803832
-0.260712 0.00106361 0.0107439
-0.0806152 0.00924383 0.0932045
0.0711975 0.0244262 0.0761553
0.170405 0.0170179 0.0530579
0.166247 -0.000713235 -0.0022237
0.061246 -0.0180117 -0.0561564
-0.0809062 -0.0243846 -0.0760254
-0.173982 -0.0159661 -0.0497784
-0.161522 0.00213727 0.00666352
-0.0510856 0.0189441 0.0590634
0 0.207688 0
0 0.144698 0
0 -0.00606439 0
0 -0.153148 0
0 -0.207334 0
0 -0.135754 0
0 0.0181725 0
0 0.161076 0
-0.0512706 0.0817072 0.141981
-0.122712 0.056926 0.098919
-0.119718 -0.00238581 -0.00414578
-0.0441043 -0.0602504 -0.104696
0.058262 -0.0815679 -0.141739
0.125287 -0.0534074 -0.0928049
0.116315 0.00714931 0.0124232
0.0367877 0.0633693 0.110115
-0.0714411 -0.093836 0.197838
-0.170988 -0.0653762 0.137835
-0.166816 0.00273997 -0.00577678
-0.0614555 0.0691941 -0.145885
0.081183 0.093676 -0.197501
0.174577 0.0613353 -0.129316
0.162075 -0.00821057 0.0173107
0.0512604 -0.072776 0.153436
-0.0482764 -0.21246 0.133689
-0.115545 -0.148022 0.0931422
-0.112726 0.00620372 -0.00390367
-0.0415287 0.156666 -0.0985816
0.0548595 0.212097 -0.133461
0.117971 0.138873 -0.0873851
0.109522 -0.01859 0.0116977
0.0346393 -0.164776 0.103685
0.0041721 -0.202208 -0.0115536
0.00998555 -0.14088 -0.00804944
0.00974191 0.00590438 0.000337359
0.00358895 0.149107 0.00851952
-0.00474102 0.201863 0.0115339
-0.0101951 0.132172 0.00755191
-0.00946503 -0.017693 -0.00101093
-0.00299356 -0.156826 -0.00896055
0.0540899 -0.0692998 -0.149788
0.129459 -0.0482816 -0.104358
0.126301 0.00202352 0.00437375
0.0465295 0.0511012 0.110453
-0.0614657 0.0691816 0.149533
-0.132177 0.0452973 0.0979081
-0.122711 -0.00606367 -0.0131063
-0.0388106 -0.0537465 -0.116171
0.0711975 0.105645 -0.197163
0.170405 0.0736034 -0.137365
0.166247 -0.00308478 0.00575708
0.0612459 -0.0779018 0.145387
-0.0809062 -0.105465 0.196827
-0.173982 -0.069054 0.128875
-0.161522 0.00924383 -0.0172516
-0.0510856 0.0819345 -0.152913
0.0451176 0.216507 -0.124942
0.107985 0.150842 -0.0870478
0.10535 -0.00632189 0.00364824
0.0388114 -0.159651 0.0921313
-0.05127 -0.216137 0.124729
-0.110252 -0.141518 0.0816674
-0.102356 0.0189441 -0.0109323
-0.0323728 0.167915 -0.0969006
