# vtk DataFile Version 3.0
Velocity field
ASCII
DATASET STRUCTURED_POINTS
DIMENSIONS 5 5 5
SPACING 1.33333 1.33333 1.33333
ORIGIN 0 0 0
POINT_DATA 125
VECTORS velocity float
0 0.400256 0
0 0.0941551 0
0 -0.355958 0
0 -0.261624 0
0 0.23287 0
0 -0.211945 0.695124
0 -0.0498575 0.188452
0 0.188489 -0.712451
0 0.138537 -0.523642
0 -0.123311 0.404426
0 -0.499971 0.327038
0 -0.117612 0.0886618
0 0.444637 -0.33519
0 0.326803 -0.246361
0 -0.290885 0.190272
0 -0.0232785 -0.54126
0 -0.00547598 -0.146738
0 0.0207022 0.554752
0 0.0152159 0.407735
0 -0.0135435 -0.314907
0 0.489019 -0.581688
0 0.115036 -0.136835
0 -0.434897 0.517311
0 -0.319644 0.380217
0 0.284513 -0.338428
0 0.0941551 0
0 0.0281832 0
0 -0.106548 0
0 -0.0783113 0
0 0.0547798 0
0.297511 -0.0498575 0.244115
0.457343 -0.0122012 0.0601325
-0.095863 0.0461664 -0.227558
-0.502482 0.0339375 -0.167285
-0.134433 -0.0290072 0.142027
0.139971 -0.117612 0.11485
0.215169 -0.0288737 0.028291
-0.0451015 0.109258 -0.10706
-0.236406 0.0803175 -0.0787036
-0.0632472 -0.0684269 0.0668203
-0.231658 -0.00547598 -0.190081
-0.356027 -0.00135019 -0.0468114
0.0746264 0.00510981 0.177145
0.391167 0.00375643 0.130225
0.104676 -0.00318594 -0.11059
-0.24896 0.115036 -0.204279
-0.36609 0.0270607 -0.048054
0.0767242 -0.102304 0.18167
0.402187 -0.0751922 0.133525
0.112495 0.0669281 -0.11885
0 -0.355958 0
0 -0.106548 0
0 0.402809 0
0 0.29606 0
0 -0.207097 0
0.139971 0.188489 -0.580274
0.215169 0.0461664 -0.142586
-0.0451015 -0.174686 0.53956
-0.236406 -0.128415 0.396645
-0.0632472 0.109663 -0.337605
0.065853 0.444637 -0.273004
0.101232 0.109258 -0.0670834
-0.021219 -0.41344 0.25385
-0.111223 -0.30393 0.186611
-0.0297562 0.258691 -0.158835
-0.108989 0.0207022 0.451832
-0.167502 0.00510981 0.111
0.03511 -0.0193388 -0.420031
0.184034 -0.0142168 -0.308776
0.0492476 0.0120446 0.262877
-0.11713 -0.434897 0.48558
-0.172236 -0.102304 0.114227
0.0360968 0.386766 -0.431839
0.189219 0.284268 -0.317396
0.052926 -0.253025 0.282512
0 -0.261624 0
0 -0.0783113 0
0 0.29606 0
0 0.2176 0
0 -0.152214 0
-0.231658 0.138537 -0.51712
-0.356027 0.0339376 -0.127086
0.0746264 -0.128416 0.480908
0.391167 -0.0944006 0.353528
0.104676 0.0806011 -0.300862
-0.108989 0.326803 -0.243292
-0.167502 0.0803178 -0.0597909
0.03511 -0.303932 0.226256
0.184034 -0.223429 0.166327
0.0492476 0.190135 -0.141548
0.180381 0.0152159 0.402657
0.277158 0.00375645 0.0989335
-0.0580944 -0.0142169 -0.374372
-0.304512 -0.0104516 -0.275211
-0.0815066 0.00885264 0.234267
0.193854 -0.319644 0.432732
0.285057 -0.0751922 0.101795
-0.0597415 0.284268 -0.38484
-0.313164 0.208933 -0.282853
-0.0875944 -0.18597 0.251765
0 0.23287 0
0 0.0547798 0
0 -0.207098 0
0 -0.152214 0
0 0.135485 0
-0.24896 -0.123311 0.336982
-0.36609 -0.0290073 0.0792708
0.0767241 0.109663 -0.299687
0.402187 0.0806011 -0.220266
0.112495 -0.0717425 0.196057
-0.11713 -0.290885 0.158542
-0.172236 -0.068427 0.0372949
0.0360968 0.258691 -0.140995
0.189219 0.190135 -0.10363
0.052926 -0.169238 0.09224
0.193854 -0.0135435 -0.262392
0.285057 -0.00318595 -0.0617244
-0.0597415 0.0120446 0.233352
-0.313164 0.00885264 0.171511
-0.0875944 -0.00787967 -0.152661
0.208333 0.284513 -0.28199
0.306349 0.0669281 -0.0663347
-0.0642037 -0.253025 0.250782
-0.336555 -0.18597 0.184321
-0.094137 0.165531 -0.164063
