# vtk DataFile Version 3.0
Velocity field
ASCII
DATASET STRUCTURED_POINTS
DIMENSIONS 10 10 10
SPACING 0.631579 0.631579 0.631579
ORIGIN 0 0 0
POINT_DATA 1000
VECTORS velocity float
0 0.314755 0
0 0.254038 0
0 0.0953107 0
0 -0.100188 0
0 -0.257034 0
0 -0.314714 0
0 -0.250975 0
0 -0.0904081 0
0 0.105039 0
0 0.259961 0
0 0.19332 0.246555
0 0.156028 0.206796
0 0.0585391 0.0775865
0 -0.0615348 -0.0815569
0 -0.157868 -0.209235
0 -0.193295 -0.256189
0 -0.154147 -0.204303
0 -0.055528 -0.0735956
0 0.064514 0.0855055
0 0.159666 0.203634
0 -0.002699 0.397988
0 -0.00217835 0.333809
0 -0.00081728 0.12524
0 0.000859103 -0.131648
0 0.00220404 -0.337746
0 0.00269864 -0.413538
0 0.00215209 -0.329784
0 0.00077524 -0.118797
0 -0.000900698 0.138022
0 -0.00222914 0.328704
0 -0.197677 0.395874
0 -0.159544 0.332036
0 -0.0598584 0.124574
0 0.0629215 -0.130949
0 0.161426 -0.335952
0 0.197651 -0.411341
0 0.157621 -0.328032
0 0.0567793 -0.118166
0 -0.065968 0.137289
0 -0.163264 0.326958
0 -0.31639 0.241028
0 -0.255357 0.202161
0 -0.0958057 0.0758473
0 0.100708 -0.0797286
0 0.258368 -0.204545
0 0.316348 -0.250446
0 0.252278 -0.199723
0 0.0908776 -0.0719458
0 -0.105584 0.0835888
0 -0.261311 0.199069
0 -0.313037 -0.00680729
0 -0.252651 -0.00570955
0 -0.0947904 -0.00214214
0 0.0996412 0.00225175
0 0.25563 0.00577689
0 0.312996 0.00707326
0 0.249605 0.00564072
0 0.0899145 0.00203194
0 -0.104465 -0.00236077
0 -0.258542 -0.00562223
0 -0.188912 -0.252017
0 -0.152471 -0.211377
0 -0.0572044 -0.0793051
0 0.0601317 0.0833634
0 0.154268 0.21387
0 0.188887 0.261863
0 0.150632 0.208828
0 0.0542618 0.0752257
0 -0.063043 -0.0873995
0 -0.156025 -0.208144
0 0.00809636 -0.399996
0 0.00653454 -0.335494
0 0.00245165 -0.125872
0 -0.00257711 0.132313
0 -0.00661159 0.33945
0 -0.00809528 0.415625
0 -0.00645575 0.331449
0 -0.00232554 0.119397
0 0.00270188 -0.138719
0 0.00668689 -0.330362
0 0.201981 -0.393654
0 0.163018 -0.330175
0 0.0611617 -0.123876
0 -0.0642916 0.130215
0 -0.164941 0.334068
0 -0.201954 0.409035
0 -0.161053 0.326193
0 -0.0580156 0.117504
0 0.0674043 -0.13652
0 0.166819 -0.325125
0 0.317941 -0.235438
0 0.256609 -0.190021
0 0.0962752 -0.0712926
0 -0.101202 0.0749408
0 -0.259635 0.192261
0 -0.317898 0.235406
0 -0.253514 0.18773
0 -0.0913229 0.0676254
0 0.106102 -0.0785692
0 0.262592 -0.194451
0 0.254038 0
0 0.215699 0
0 0.0809265 0
0 -0.0850678 0
0 -0.218242 0
0 -0.267217 0
0 -0.213098 0
0 -0.0767637 0
0 0.0891864 0
0 0.209813 0
0.0358488 0.156028 0.272867
0.096133 0.129226 0.225931
0.11842 0.0485043 0.0848018
0.095006 -0.050987 -0.0891423
0.0349387 -0.130808 -0.228696
-0.0386087 -0.160162 -0.280018
-0.0972604 -0.127724 -0.223305
-0.118388 -0.0460103 -0.0804417
-0.0938296 0.0534095 0.0933777
-0.032253 0.128866 0.225365
0.0578669 -0.00217835 0.440461
0.155178 -0.00179996 0.364696
0.191152 -0.000675575 0.136886
0.153359 0.000710155 -0.143894
0.0563977 0.00182191 -0.36916
-0.0623218 0.00223076 -0.452002
-0.156996 0.00177896 -0.360458
-0.191101 0.000640838 -0.129848
-0.151459 -0.00074396 0.15073
-0.0520625 -0.00179913 0.363783
0.0575595 -0.159544 0.438121
0.154353 -0.131992 0.362758
0.190136 -0.0495419 0.136159
0.152544 0.0520778 -0.143129
0.0560981 0.133606 -0.367199
-0.0619908 0.163588 -0.449601
-0.156163 0.130457 -0.358542
-0.190086 0.0469946 -0.129159
-0.150654 -0.0545537 0.149929
-0.051786 -0.13177 0.36185
0.0350452 -0.255357 0.266751
0.0939781 -0.211259 0.220866
0.115765 -0.0792937 0.0829008
0.0928769 0.0833525 -0.0871444
0.0341553 0.213842 -0.22357
-0.0377432 0.261829 -0.27374
-0.0950799 0.208801 -0.2183
-0.115734 0.0752168 -0.0786382
-0.0917261 -0.0873153 0.0912846
-0.03153 -0.210903 0.220313
-0.00098977 -0.252651 -0.00753375
-0.00265419 -0.20902 -0.00623783
-0.00326951 -0.0784533 -0.00234135
-0.00262307 0.0824695 0.00246118
-0.000964642 0.211576 0.0063142
0.00106596 0.259055 0.00773116
0.00268532 0.206589 0.00616537
0.00326864 0.0744196 0.00222096
0.0025906 -0.08639 -0.00257812
0.000890491 -0.208668 -0.00622223
-0.0366429 -0.152471 -0.278912
-0.0982626 -0.12614 -0.230935
-0.121042 -0.0473453 -0.0866804
-0.0971107 0.0497686 0.0911173
-0.0357125 0.127682 0.233762
0.0394637 0.156335 0.28622
0.0994144 0.124673 0.228252
0.12101 0.0449109 0.0822235
0.0959078 -0.0521348 -0.095446
0.0329674 -0.125927 -0.230357
-0.0581589 0.00653454 -0.442683
-0.15596 0.00540532 -0.366535
-0.192117 0.00202882 -0.137577
-0.154132 -0.00213266 0.144619
-0.0566823 -0.00547138 0.371022
0.0626361 -0.00669919 0.454282
0.157788 -0.00534241 0.362276
0.192066 -0.0019245 0.130503
0.152223 0.00223408 -0.15149
0.0523253 0.00539696 -0.365618
-0.0572368 0.163018 -0.435665
-0.153455 0.134795 -0.360651
-0.18903 0.0505932 -0.135368
-0.151656 -0.0531828 0.142297
-0.0557717 -0.136441 0.365064
0.0616301 -0.167059 0.446986
0.155255 -0.133225 0.356457
0.18898 -0.0479917 0.128407
0.149778 0.0557127 -0.149059
0.0514956 0.134639 -0.359821
-0.0342323 0.256609 -0.260563
-0.0894898 0.207108 -0.2103
-0.110222 0.0777034 -0.0789008
-0.0884289 -0.0816797 0.0829384
-0.0325198 -0.20955 0.212779
0.0359357 -0.256575 0.260529
0.0905269 -0.204611 0.207764
0.110192 -0.0737064 0.0748422
0.0873445 0.0856343 -0.086954
0.0307986 0.211937 -0.215203
0 0.0953107 0
0 0.0809265 0
0 0.0303623 0
0 -0.031916 0
0 -0.0818808 0
0 -0.100255 0
0 -0.0799507 0
0 -0.0288005 0
0 0.0334612 0
0 0.0787184 0
0.0578669 0.0585391 0.193905
0.155178 0.0485043 0.16049
0.191152 0.018206 0.0602387
0.153359 -0.0191379 -0.063322
0.0563977 -0.0490985 -0.162454
-0.0623218 -0.0601165 -0.198909
-0.156996 -0.0479412 -0.158624
-0.191101 -0.0172699 -0.0571416
-0.151459 0.0200468 0.066331
-0.0520625 0.0483482 0.160149
0.0934083 -0.00081728 0.313
0.250486 -0.000675575 0.259062
0.308557 -0.000253566 0.0972371
0.24755 0.000266543 -0.102214
0.0910368 0.000683822 -0.262231
-0.100599 0.000837278 -0.321078
-0.253423 0.000667703 -0.25605
-0.308475 0.000240527 -0.0922374
-0.244483 -0.000279227 0.107071
-0.084039 -0.000675002 0.258511
0.0929121 -0.0598584 0.311338
0.249156 -0.0495419 0.257685
0.306918 -0.0185952 0.0967205
0.246235 0.019547 -0.101671
0.0905531 0.0501481 -0.260839
-0.100065 0.0614019 -0.319372
-0.252076 0.0489662 -0.25469
-0.306836 0.0176391 -0.0917473
-0.243184 -0.0204759 0.106502
-0.0835925 -0.0494378 0.257138
0.0565697 -0.0958057 0.189559
0.151699 -0.0792937 0.156892
0.186867 -0.0297625 0.0588885
0.149921 0.0312858 -0.0619028
0.0551333 0.0802643 -0.158812
-0.0609246 0.0982762 -0.194451
-0.153478 0.0783719 -0.155069
-0.186818 0.0282321 -0.0558605
-0.148063 -0.0327725 0.0648443
-0.0508955 -0.0791272 0.156559
-0.00159768 -0.0947904 -0.00535364
-0.00428436 -0.0784533 -0.00443105
-0.00527761 -0.0294471 -0.00166317
-0.00423415 0.0309544 0.0017483
-0.00155711 0.0794135 0.00448529
0.00172067 0.0972347 0.00549182
0.00433462 0.0775418 0.00437955
0.00527621 0.0279329 0.00157765
0.00418173 -0.0324252 -0.00183137
0.00143742 -0.0782886 -0.00442165
-0.0591487 -0.0572044 -0.1982
-0.158614 -0.0473453 -0.164045
-0.195387 -0.0177707 -0.0615732
-0.156755 0.0186804 0.0647249
-0.0576467 0.0479248 0.166052
0.0637022 0.0586794 0.203316
0.160475 0.046795 0.162138
0.195335 0.0168571 0.0584071
0.154814 -0.019568 -0.0678003
0.0532158 -0.0472458 -0.163696
-0.0938797 0.00245165 -0.31458
-0.251749 0.00202882 -0.260368
-0.310114 0.000761502 -0.0977277
-0.248799 -0.000800479 0.10273
-0.0914959 -0.00205363 0.263554
0.101107 -0.00251449 0.322698
0.254701 -0.00200523 0.257342
0.310031 -0.000722347 0.0927028
0.245717 0.000838524 -0.107611
0.0844631 0.00202485 -0.259816
-0.0923912 0.0611617 -0.309592
-0.247706 0.0505932 -0.256189
-0.305132 0.0189895 -0.0961583
-0.244803 -0.0199615 0.10108
-0.0900262 -0.0512115 0.259322
0.0994824 -0.0627037 0.317515
0.25061 -0.0500043 0.253209
0.305051 -0.0180131 0.0912141
0.241771 0.0209106 -0.105884
0.0831239 0.0505142 -0.255697
-0.0552575 0.0962752 -0.185162
-0.144454 0.0777034 -0.149443
-0.177919 0.029153 -0.0560686
-0.142741 -0.0306448 0.0589378
-0.0524932 -0.0786196 0.151205
0.0580071 -0.0962624 0.185137
0.146128 -0.0767664 0.147641
0.177871 -0.0276534 0.0531845
0.140991 0.0321285 -0.0617913
0.0497149 0.079515 -0.152928
0 -0.100188 0
0 -0.0850678 0
0 -0.031916 0
0 0.0335492 0
0 0.0860709 0
0 0.105386 0
0 0.0840421 0
0 0.0302743 0
0 -0.0351736 0
0 -0.0827466 0
0.0575595 -0.0615348 0.040133
0.154353 -0.050987 0.0332166
0.190136 -0.0191379 0.0124676
0.152544 0.0201175 -0.0131058
0.0560981 0.0516118 -0.0336232
-0.0619908 0.0631936 -0.0411685
-0.156163 0.0503951 -0.0328305
-0.190086 0.0181539 -0.0118266
-0.150654 -0.0210728 0.0137286
-0.051786 -0.0508224 0.0331464
0.0929121 0.000859103 0.0647824
0.249156 0.000710155 0.053618
0.306918 0.000266543 0.0201252
0.246235 -0.000280188 -0.0211553
0.0905531 -0.000718822 -0.0542743
-0.100065 -0.000880134 -0.0664537
-0.252076 -0.000701878 -0.0529947
-0.306836 -0.000252838 -0.0190904
-0.243184 0.000293519 0.0221606
-0.0835925 0.000709544 0.0535047
0.0924185 0.0629215 0.0644382
0.247832 0.0520778 0.0533332
0.305287 0.019547 0.0200183
0.244927 -0.0205477 -0.0210429
0.0900719 -0.052715 -0.0539859
-0.0995329 -0.0645448 -0.0661005
-0.250738 -0.0514726 -0.0527131
-0.305206 -0.018542 -0.018989
-0.241893 0.021524 0.0220429
-0.0831485 0.0519677 0.0532204
0.0562692 0.100708 0.0392333
0.150893 0.0833525 0.032472
0.185875 0.0312858 0.0121882
0.149124 -0.0328872 -0.012812
0.0548406 -0.0843724 -0.0328693
-0.0606009 -0.103307 -0.0402455
-0.152662 -0.082384 -0.0320946
-0.185826 -0.0296773 -0.0115615
-0.147277 0.0344499 0.0134208
-0.0506251 0.0831763 0.0324034
-0.00158919 0.0996412 -0.00110805
-0.0042616 0.0824695 -0.000917096
-0.00524957 0.0309544 -0.000344226
-0.00421167 -0.0325388 0.000361847
-0.00154884 -0.0834783 0.000928322
0.00171154 -0.102212 0.00113664
0.00431159 -0.0815108 0.000906434
0.00524817 -0.0293628 0.000326526
0.0041595 0.0340849 -0.00037904
0.00142979 0.0822949 -0.000915158
-0.0588345 0.0601317 -0.041022
-0.157772 0.0497686 -0.0339523
-0.194348 0.0186804 -0.0127438
-0.155923 -0.0196365 0.0133961
-0.0573407 -0.0503778 0.0343678
0.0633637 -0.061683 0.0420801
0.159622 -0.0491904 0.0335578
0.194297 -0.0177199 0.0120886
0.153991 0.0205697 -0.0140327
0.0529331 0.0496635 -0.0338806
-0.093381 -0.00257711 -0.0651093
-0.250412 -0.00213266 -0.0538885
-0.308466 -0.000800479 -0.0202267
-0.247477 0.000841453 0.021262
-0.09101 0.00215875 0.054548
0.100569 0.00264319 0.066789
0.253348 0.00210787 0.0532621
0.308384 0.00075932 0.0191867
0.244411 -0.000881444 -0.0222723
0.0840144 -0.00212847 -0.0537747
-0.0919004 -0.0642916 -0.064077
-0.24639 -0.0531827 -0.0530234
-0.303511 -0.0199615 -0.0199019
-0.243502 0.0209832 0.0209205
-0.0895479 0.0538328 0.053672
0.0989542 0.0659131 0.0657163
0.249279 0.0525637 0.0524067
0.30343 0.0189351 0.0188786
0.240486 -0.021981 -0.021915
0.0826823 -0.0530992 -0.0529221
-0.054964 -0.101202 -0.0383233
-0.143686 -0.0816797 -0.0309306
-0.176974 -0.0306448 -0.0116046
-0.141983 0.032213 0.0121985
-0.0522143 0.0826428 0.0312953
0.057699 0.101188 0.0383182
0.145352 0.0806948 0.0305576
0.176927 0.0290685 0.0110077
0.140242 -0.0337727 -0.0127891
0.0494508 -0.0835841 -0.0316517
0 -0.257034 0
0 -0.218242 0
0 -0.0818808 0
0 0.0860709 0
0 0.220816 0
0 0.270368 0
0 0.215611 0
0 0.077669 0
0 -0.0902382 0
0 -0.212287 0
0.0350452 -0.157868 -0.129123
0.0939781 -0.130808 -0.10687
0.115765 -0.0490985 -0.0401131
0.0928769 0.0516118 0.0421662
0.0341553 0.13241 0.108178
-0.0377432 0.162124 0.132454
-0.0950799 0.129289 0.105628
-0.115734 0.0465741 0.0380505
-0.0917261 -0.0540626 -0.04417
-0.03153 -0.130385 -0.106644
0.0565697 0.00220404 -0.208429
0.151699 0.00182191 -0.172509
0.186867 0.000683822 -0.0647503
0.149921 -0.000718822 0.0680644
0.0551333 -0.00184415 0.174621
-0.0609246 -0.002258 0.213806
-0.153478 -0.00180067 0.170504
-0.186818 -0.000648659 0.061421
-0.148063 0.000753025 -0.0712988
-0.0508955 0.00182034 -0.172145
0.0562692 0.161426 -0.207322
0.150893 0.133606 -0.171593
0.185875 0.0501481 -0.0644063
0.149124 -0.052715 0.0677029
0.0548406 -0.135241 0.173693
-0.0606009 -0.165591 0.21267
-0.152662 -0.132053 0.169598
-0.185826 -0.0475696 0.0610946
-0.147277 0.0552199 -0.0709199
-0.0506251 0.133324 -0.17123
0.0342596 0.258368 -0.126228
0.0918714 0.213842 -0.104475
0.11317 0.0802643 -0.0392137
0.0907947 -0.0843724 0.0412212
0.0333899 -0.216459 0.105753
-0.036897 -0.265033 0.129485
-0.092949 -0.211356 0.103261
-0.11314 -0.0761372 0.0371976
-0.0896699 0.0883819 -0.0431798
-0.0308232 0.21339 -0.104254
-0.000967583 0.25563 0.00356503
-0.0025947 0.211576 0.00295063
-0.00319622 0.0794135 0.0011075
-0.00256428 -0.0834783 -0.00116419
-0.000943013 -0.214165 -0.00298675
0.00104208 -0.262225 -0.00365699
0.00262511 -0.209117 -0.00291635
0.00319537 -0.0753306 -0.00105056
0.00253252 0.0874453 0.00121951
0.000870529 0.211128 0.00294441
-0.0358215 0.154268 0.131983
-0.0960598 0.127682 0.109238
-0.11833 0.0479248 0.0410016
-0.0949336 -0.0503778 -0.0431003
-0.034912 -0.129245 -0.110574
0.0385793 -0.158248 -0.135388
0.0971863 -0.126198 -0.107968
0.118298 -0.0454606 -0.0388935
0.093758 0.0527715 0.0451483
0.0322284 0.127412 0.109007
-0.0568552 -0.00661159 0.209481
-0.152464 -0.00547138 0.173379
-0.18781 -0.00205363 0.0650768
-0.150677 0.00215875 -0.0684076
-0.0554114 0.0055383 -0.175502
0.061232 0.00678115 -0.214885
0.154252 0.00540777 -0.171364
0.18776 0.00194804 -0.0617308
0.148811 -0.00226136 0.0716585
0.0511523 -0.0054606 0.173013
-0.0559537 -0.164941 0.20616
-0.150015 -0.136441 0.170596
-0.184794 -0.0512115 0.0640319
-0.148257 0.0538328 -0.0673094
-0.0545215 0.138109 -0.172683
0.0602484 0.169101 -0.211434
0.151774 0.134853 -0.168612
0.184744 0.0485783 -0.0607394
0.14642 -0.0563924 0.0705085
0.0503413 -0.136227 0.17027
-0.0334649 -0.259635 0.1233
-0.0874838 -0.20955 0.0995153
-0.107751 -0.0786196 0.0373364
-0.0864466 0.0826428 -0.0392471
-0.0317908 0.212021 -0.100689
0.0351301 0.2596 -0.123284
0.0884976 0.207023 -0.0983154
0.107722 0.0745755 -0.0354159
0.0853866 -0.0866441 0.0411473
0.0301082 -0.214436 0.101836
0 -0.314714 0
0 -0.267217 0
0 -0.100255 0
0 0.105386 0
0 0.270368 0
0 0.331041 0
0 0.263995 0
0 0.0950984 0
0 -0.110488 0
0 -0.259926 0
-0.00098977 -0.193295 -0.248562
-0.00265419 -0.160162 -0.205726
-0.00326951 -0.0601164 -0.077218
-0.00262307 0.0631936 0.0811703
-0.000964642 0.162124 0.208243
0.00106596 0.198506 0.254974
0.00268532 0.158302 0.203335
0.00326864 0.0570256 0.0732473
0.0025906 -0.0661946 -0.0850273
0.000890491 -0.159645 -0.205291
-0.00159768 0.00269864 -0.401227
-0.00428436 0.00223076 -0.332081
-0.00527761 0.000837279 -0.124645
-0.00423415 -0.000880134 0.131024
-0.00155711 -0.002258 0.336144
0.00172067 -0.00276471 0.411579
0.00433462 -0.00220476 0.328222
0.00527621 -0.000794223 0.118236
0.00418173 0.000922011 -0.13725
0.00143742 0.00222884 -0.331379
-0.00158919 0.197651 -0.399096
-0.0042616 0.163588 -0.330318
-0.00524957 0.0614019 -0.123983
-0.00421167 -0.0645448 0.130329
-0.00154884 -0.165591 0.334358
0.00171154 -0.20275 0.409392
0.00431159 -0.161687 0.326478
0.00524817 -0.0582446 0.117608
0.0041595 0.0676117 -0.136521
0.00142979 0.163242 -0.329619
-0.000967583 0.316348 -0.24299
-0.0025947 0.261829 -0.201114
-0.00319622 0.0982761 -0.075487
-0.00256428 -0.103307 0.0793506
-0.000943013 -0.265033 0.203576
0.00104208 -0.324509 0.249259
0.00262511 -0.258787 0.198776
0.00319537 -0.0932232 0.0716056
0.00253252 0.108215 -0.0831214
0.000870529 0.261276 -0.200689
2.73271e-05 0.312996 0.0068627
7.32809e-05 0.259055 0.00568
9.02704e-05 0.0972347 0.00213194
7.24223e-05 -0.102212 -0.00224108
2.66333e-05 -0.262225 -0.00574951
-2.94307e-05 -0.32107 -0.00703973
-7.41408e-05 -0.256044 -0.00561398
-9.02464e-05 -0.0922351 -0.00202234
-7.15249e-05 0.107069 0.00234757
-2.45861e-05 0.258507 0.005668
0.00101169 0.188887 0.254068
0.00271298 0.156335 0.210282
0.00334194 0.0586794 0.078928
0.00268119 -0.061683 -0.0829684
0.000986003 -0.158248 -0.212856
-0.00108958 -0.19376 -0.260622
-0.00274481 -0.154518 -0.207839
-0.00334106 -0.0556621 -0.07487
-0.00264797 0.064614 0.0869108
-0.000910216 0.156004 0.209838
0.00160574 -0.00809528 0.403252
0.00430598 -0.00669919 0.333755
0.00530425 -0.00251449 0.125273
0.0042555 0.00264319 -0.131685
0.00156496 0.00678115 -0.33784
-0.00172935 0.00830288 -0.413655
-0.00435649 0.00662129 -0.329878
-0.00530284 0.0023852 -0.118832
-0.00420281 -0.00276881 0.137943
-0.00144468 -0.006686 0.333052
0.00158028 -0.201954 0.396858
0.00423683 -0.167059 0.328399
0.00521904 -0.0627036 0.123262
0.00418717 0.0659131 -0.129571
0.00153983 0.169101 -0.332415
-0.00170158 0.207049 -0.407012
-0.0042865 0.165115 -0.32458
-0.00521765 0.0594797 -0.116924
-0.0041353 -0.0690472 0.135729
-0.00142177 -0.166797 0.327771
0.000945139 -0.317898 0.237354
0.00247077 -0.256575 0.191567
0.00304317 -0.0962624 0.0718728
0.00244148 0.101188 -0.0755508
0.000897857 0.2596 -0.193826
-0.000992169 0.317856 -0.237322
-0.00249941 0.253481 -0.189258
-0.00304236 0.0913108 -0.0681758
-0.00241154 -0.106088 0.0792087
-0.000850336 -0.262557 0.196034
0 -0.250975 0
0 -0.213098 0
0 -0.0799507 0
0 0.0840421 0
0 0.215611 0
0 0.263995 0
0 0.210528 0
0 0.0758382 0
0 -0.0881111 0
0 -0.207283 0
-0.0366429 -0.154147 -0.272104
-0.0982626 -0.127724 -0.225211
-0.121042 -0.0479412 -0.0845312
-0.0971107 0.0503951 0.0888579
-0.0357125 0.129289 0.227967
0.0394637 0.158302 0.279124
0.0994144 0.126241 0.222593
0.12101 0.0454762 0.0801851
0.0959078 -0.0527882 -0.0930808
0.0329674 -0.127312 -0.224735
-0.0591487 0.00215209 -0.439229
-0.158614 0.00177896 -0.363534
-0.195387 0.000667703 -0.136449
-0.156755 -0.000701878 0.143435
-0.0576467 -0.00180067 0.367982
0.0637022 -0.00220476 0.45056
0.160475 -0.00175824 0.359307
0.195335 -0.000633371 0.129434
0.154814 0.000735276 -0.15025
0.0532158 0.00177743 -0.362765
-0.0588345 0.157621 -0.436896
-0.157772 0.130457 -0.361602
-0.194348 0.0489662 -0.135725
-0.155923 -0.0514726 0.142672
-0.0573407 -0.132053 0.366027
0.0633637 -0.161687 0.448167
0.159622 -0.128941 0.357398
0.194297 -0.0464486 0.128747
0.153991 0.0539184 -0.149452
0.0529331 0.130181 -0.360838
-0.0358215 0.252278 -0.266005
-0.0960598 0.208801 -0.220162
-0.11833 0.0783719 -0.0826366
-0.0949336 -0.082384 0.0868664
-0.034912 -0.211356 0.222856
0.0385793 -0.258787 0.272866
0.0971863 -0.206375 0.217604
0.118298 -0.0743425 0.0783873
0.093758 0.0862984 -0.0909941
0.0322284 0.20836 -0.219697
0.00101169 0.249605 0.00751268
0.00271298 0.206589 0.00621796
0.00334194 0.0775418 0.00233387
0.00268119 -0.0815108 -0.00245333
0.000986003 -0.209117 -0.00629405
-0.00108958 -0.256044 -0.0077065
-0.00274481 -0.204187 -0.00614572
-0.00334105 -0.0735545 -0.00221388
-0.00264797 0.085384 0.00256992
-0.000910216 0.206152 0.00620483
0.0374546 0.150632 0.278132
0.100439 0.124673 0.230199
0.123724 0.046795 0.0864038
0.0992617 -0.0491904 -0.0908266
0.0365035 -0.126198 -0.233016
-0.0403381 -0.154518 -0.285307
-0.101617 -0.123224 -0.227524
-0.123691 -0.0443889 -0.0819613
-0.0980325 0.0515278 0.0951422
-0.0336977 0.124409 0.229713
0.0594472 -0.00645575 0.441445
0.159414 -0.00534241 0.365368
0.196372 -0.00200523 0.137138
0.157546 0.00210787 -0.144158
0.0579375 0.00540777 -0.369839
-0.0640236 0.00662129 -0.452833
-0.161284 0.00528027 -0.36112
-0.19632 0.00190212 -0.130087
-0.155595 -0.00220805 0.151008
-0.0534843 -0.00533188 0.364596
0.0585046 -0.161053 0.434446
0.156854 -0.133225 0.359502
0.193218 -0.0500043 0.134936
0.155016 0.0525637 -0.141843
0.0570071 0.134853 -0.3639
-0.0629951 0.165115 -0.445561
-0.158693 0.131674 -0.355321
-0.193167 0.0474331 -0.127998
-0.153096 -0.0550631 0.148584
-0.0526363 -0.133015 0.358815
0.0349906 -0.253514 0.259834
0.0914721 -0.204611 0.209711
0.112663 -0.0767664 0.0786802
0.0903877 0.0806948 -0.0827065
0.0332401 0.207023 -0.212184
-0.0367317 0.253481 -0.2598
-0.0925322 0.202143 -0.207183
-0.112633 0.0728177 -0.074633
-0.0892793 -0.0846017 0.0867108
-0.0314808 -0.209381 0.214601
0 -0.0904081 0
0 -0.0767638 0
0 -0.0288005 0
0 0.0302743 0
0 0.077669 0
0 0.0950984 0
0 0.0758382 0
0 0.027319 0
0 -0.03174 0
0 -0.0746692 0
-0.0581589 -0.055528 -0.190667
-0.15596 -0.0460103 -0.157808
-0.192117 -0.0172699 -0.0592323
-0.154132 0.0181539 0.0622643
-0.0566823 0.0465741 0.159739
0.0626361 0.0570256 0.195586
0.157788 0.0454762 0.155974
0.192066 0.016382 0.0561868
0.152223 -0.019016 -0.0652228
0.0523253 -0.0458613 -0.157474
-0.0938797 0.00077524 -0.307773
-0.251749 0.000640838 -0.254732
-0.310114 0.000240527 -0.0956122
-0.248799 -0.000252838 0.100506
-0.0914959 -0.000648659 0.25785
0.101107 -0.000794223 0.315712
0.254701 -0.000633371 0.251771
0.310031 -0.00022816 0.0906962
0.245717 0.00026487 -0.105282
0.0844631 0.000640281 -0.254194
-0.093381 0.0567793 -0.306138
-0.250412 0.0469946 -0.253379
-0.308466 0.0176391 -0.0951041
-0.247477 -0.018542 0.0999721
-0.09101 -0.0475696 0.256481
0.100569 -0.0582446 0.314035
0.253348 -0.0464486 0.250434
0.308384 -0.0167322 0.0902142
0.244411 0.0194231 -0.104723
0.0840144 0.0468948 -0.252843
-0.0568552 0.0908776 -0.186393
-0.152464 0.0752168 -0.154271
-0.18781 0.0282322 -0.0579043
-0.150677 -0.0296773 0.0608683
-0.0554114 -0.0761372 0.156159
0.061232 -0.0932232 0.191201
0.154252 -0.0743425 0.152477
0.18776 -0.0267806 0.0549272
0.148811 0.0310874 -0.0637607
0.0511523 0.0750569 -0.153944
0.00160574 0.0899145 0.00526422
0.00430598 0.0744197 0.00435701
0.00530425 0.027933 0.00163537
0.0042555 -0.0293628 -0.00171908
0.00156496 -0.0753306 -0.00441033
-0.00172935 -0.0922352 -0.00540003
-0.00435649 -0.0735545 -0.00430637
-0.00530284 -0.0264967 -0.00155129
-0.00420281 0.030758 0.00180077
-0.00144468 0.0742616 0.00434779
0.0594472 0.0542618 0.19489
0.159414 0.0449109 0.161304
0.196372 0.0168571 0.0605441
0.157546 -0.0177199 -0.0636432
0.0579375 -0.0454606 -0.163278
-0.0640236 -0.0556622 -0.199917
-0.161284 -0.0443889 -0.159429
-0.19632 -0.0159903 -0.0574313
-0.155595 0.0185619 0.0666676
-0.0534843 0.0448155 0.160962
0.0943534 -0.00232554 0.309326
0.253019 -0.0019245 0.256018
0.311677 -0.000722347 0.0960947
0.250054 0.000759321 -0.101013
0.0919575 0.00194805 -0.259151
-0.101617 0.0023852 -0.317305
-0.255987 0.00190212 -0.253041
-0.311594 0.000685205 -0.0911538
-0.246956 -0.000795409 0.105813
-0.0848893 -0.00192069 0.255476
0.0928575 -0.0580156 0.304421
0.248956 -0.0479917 0.251908
0.306671 -0.0180132 0.0945513
0.246038 0.0189351 -0.099391
0.0904804 0.0485783 -0.254989
-0.0999843 0.0594797 -0.31221
-0.251874 0.0474331 -0.248979
-0.30659 0.0170869 -0.0896897
-0.24299 -0.0198354 0.104115
-0.0835434 -0.0479158 0.251426
0.0555364 -0.0913229 0.182069
0.145183 -0.0737064 0.146947
0.178817 -0.0276534 0.0551321
0.143462 0.0290685 -0.0579534
0.0527581 0.0745755 -0.14868
-0.0582999 0.0913108 -0.182045
-0.146865 0.0728177 -0.145175
-0.178769 0.0262309 -0.0522962
-0.141702 -0.0304759 0.0607592
-0.0499658 -0.0754249 0.150373
0 0.105039 0
0 0.0891864 0
0 0.0334612 0
0 -0.0351735 0
0 -0.0902381 0
0 -0.110488 0
0 -0.088111 0
0 -0.03174 0
0 0.0368765 0
0 0.0867529 0
-0.0572368 0.064514 -0.0356684
-0.153455 0.0534084 -0.0295595
-0.18903 0.0200463 -0.0110953
-0.151656 -0.0210724 0.0116633
-0.0557717 -0.0540615 0.0299223
0.0616301 -0.0661932 0.0366369
0.155255 -0.0527871 0.0292169
0.18898 -0.0190156 0.0105248
0.149778 0.0220741 -0.0122167
0.0514956 0.053283 -0.029459
-0.0923912 -0.000900698 -0.0575756
-0.247706 -0.000743943 -0.0477147
-0.305132 -0.000279221 -0.01791
-0.244803 0.000293513 0.0188268
-0.0900262 0.000753008 0.0483004
0.0994824 0.00092199 0.0591392
0.25061 0.00073526 0.0471616
0.305051 0.000264864 0.0169892
0.241771 -0.000307491 -0.01972
0.0831239 -0.000743898 -0.0475525
-0.0919004 -0.065968 -0.0572698
-0.24639 -0.0545525 -0.0474612
-0.303511 -0.0204755 -0.0178149
-0.243502 0.0215235 0.0187268
-0.0895479 0.0552187 0.0480438
0.0989542 0.0676102 0.0588251
0.249279 0.0539172 0.0469112
0.30343 0.0194227 0.0168989
0.240486 -0.0225472 -0.0196153
0.0826823 -0.0544838 -0.0472999
-0.0559537 -0.105584 -0.0348688
-0.150015 -0.0873134 -0.0288969
-0.184794 -0.0327717 -0.0108466
-0.148257 0.0344492 0.0114018
-0.0545215 0.0883799 0.0292515
0.0602484 0.108213 0.0358158
0.151774 0.0862965 0.028562
0.184744 0.0310868 0.010289
0.14642 -0.0360878 -0.0119428
0.0503413 -0.0872034 -0.0287987
0.00158028 -0.104465 0.000984789
0.00423683 -0.0863881 0.000816125
0.00521904 -0.0324245 0.000306337
0.00418717 0.0340841 -0.000322018
0.00153983 0.0874434 -0.00082614
-0.00170158 0.107066 -0.00101153
-0.0042865 0.0853821 -0.000806669
-0.00521766 0.0307573 -0.000290587
-0.0041353 -0.0357053 0.000337297
-0.00142177 -0.0862793 0.000813351
0.0585046 -0.063043 0.0364585
0.156854 -0.0521337 0.0302142
0.193218 -0.0195676 0.0113411
0.155016 0.0205692 -0.0119216
0.0570071 0.0527704 -0.0305851
-0.0629951 0.0646126 -0.0374486
-0.158693 0.0515266 -0.0298641
-0.193167 0.0185615 -0.010758
-0.153096 -0.0215476 0.0124873
-0.0526363 -0.0520681 0.0301116
0.0928575 0.00270188 0.0578662
0.248956 0.00223403 0.0479554
0.306671 0.000838505 0.0180004
0.246038 -0.000881425 -0.0189217
0.0904804 -0.00226131 -0.0485439
-0.0999843 -0.00276875 -0.0594376
-0.251874 -0.002208 -0.0473996
-0.30659 -0.000795391 -0.0170748
-0.24299 0.000923357 0.0198195
-0.0835434 0.00223152 0.0477925
0.0913852 0.0674043 0.0569487
0.244958 0.0557115 0.0471848
0.301746 0.0209102 0.017711
0.242086 -0.0219805 -0.0186176
0.089027 -0.0563912 -0.0477637
-0.0983788 -0.0690457 -0.0584822
-0.24783 -0.0550619 -0.0466378
-0.301666 -0.019835 -0.0168004
-0.239088 0.0230266 0.0195012
-0.0822188 0.0556701 0.0470347
0.0546558 0.106102 0.03406
0.142881 0.0856343 0.0274897
0.175981 0.0321285 0.0103137
0.141187 -0.0337727 -0.0108415
0.0519216 -0.0866441 -0.0278139
-0.0573755 -0.106088 -0.0340555
-0.144537 -0.0846017 -0.0271582
-0.175935 -0.0304759 -0.00978315
-0.139456 0.0354078 0.0113664
-0.0491736 0.0876309 0.0281306
0 0.259961 0
0 0.209813 0
0 0.0787184 0
0 -0.0827467 0
0 -0.212287 0
0 -0.259926 0
0 -0.207283 0
0 -0.0746692 0
0 0.0867529 0
0 0.214705 0
-0.0342323 0.159666 0.133091
-0.0894897 0.128866 0.107417
-0.110221 0.0483483 0.0403012
-0.0884288 -0.0508224 -0.0423635
-0.0325198 -0.130385 -0.108684
0.0359357 -0.159645 -0.133073
0.0905268 -0.127312 -0.106122
0.110192 -0.0458613 -0.0382281
0.0873444 0.053283 0.0444146
0.0307986 0.13187 0.109922
-0.0552575 -0.00222914 0.214835
-0.144454 -0.00179913 0.173392
-0.177919 -0.000675003 0.0650539
-0.142741 0.000709545 -0.0683829
-0.0524932 0.00182034 -0.175437
0.0580071 0.00222884 -0.214806
0.146128 0.00177744 -0.171302
0.177871 0.000640281 -0.0617076
0.140991 -0.000743898 0.0716937
0.0497149 -0.00184108 0.177435
-0.054964 -0.163264 0.213694
-0.143686 -0.13177 0.172471
-0.176973 -0.0494378 0.0647083
-0.141983 0.0519677 -0.0680196
-0.0522143 0.133324 -0.174505
0.0576989 0.163242 -0.213665
0.145351 0.130181 -0.170392
0.176926 0.0468948 -0.0613798
0.140242 -0.0544838 0.0713129
0.0494508 -0.134842 0.176492
-0.0334649 -0.261311 0.130108
-0.0874837 -0.210903 0.105009
-0.107751 -0.0791272 0.0393978
-0.0864466 0.0831764 -0.0414139
-0.0317908 0.21339 -0.106248
0.0351301 0.261276 -0.13009
0.0884976 0.20836 -0.103743
0.107722 0.075057 -0.0373712
0.0853865 -0.0872035 0.043419
0.0301082 -0.21582 0.107458
0.000945139 -0.258542 -0.00367459
0.00247077 -0.208668 -0.00296575
0.00304316 -0.0782887 -0.0011127
0.00244148 0.082295 0.00116964
0.000897857 0.211129 0.00300072
-0.000992168 0.258507 0.0036741
-0.00249941 0.206152 0.00292999
-0.00304236 0.0742616 0.00105546
-0.00241154 -0.0862794 -0.00122627
-0.000850336 -0.213533 -0.00303489
0.0349906 -0.156025 -0.136039
0.091472 -0.125927 -0.109797
0.112663 -0.0472458 -0.0411939
0.0903876 0.0496636 0.0433019
0.0332401 0.127412 0.111091
-0.0367317 0.156005 0.136021
-0.0925321 0.124409 0.108473
-0.112633 0.0448156 0.0390749
-0.0892792 -0.0520681 -0.0453984
-0.0314808 -0.128863 -0.112357
0.0555364 0.00668689 -0.215919
0.145183 0.00539696 -0.174267
0.178816 0.00202485 -0.0653822
0.143461 -0.00212847 0.068728
0.0527581 -0.0054606 0.176322
-0.0582998 -0.006686 0.21589
-0.146865 -0.00533189 0.172166
-0.178769 -0.00192069 0.062019
-0.141702 0.00223152 -0.0720555
-0.0499658 0.00552279 -0.17833
0.0546558 0.166819 -0.212496
0.142881 0.134639 -0.171504
0.175981 0.0505143 -0.0643455
0.141187 -0.0530992 0.0676383
0.0519216 -0.136227 0.173527
-0.0573755 -0.166797 0.212467
-0.144537 -0.133016 0.169436
-0.175934 -0.0479159 0.0610357
-0.139456 0.0556701 -0.0709131
-0.0491736 0.137778 -0.175503
0.0326887 0.262592 -0.12709
0.0854545 0.211937 -0.102574
0.105251 0.079515 -0.0384839
0.0844414 -0.0835841 0.0404532
0.0310534 -0.214436 0.103783
-0.0343153 -0.262557 0.127073
-0.0864448 -0.209381 0.101337
-0.105223 -0.0754249 0.0365043
-0.0834059 0.0876309 -0.0424118
-0.0294098 0.216878 -0.104965
