# vtk DataFile Version 3.0
Velocity field
ASCII
DATASET STRUCTURED_POINTS
DIMENSIONS 10 10 10
SPACING 0.631579 0.631579 0.631579
ORIGIN 0 0 0
POINT_DATA 1000
VECTORS velocity float
0 0.0816467 0
0 0.0658967 0
0 0.0247233 0
0 -0.0259885 0
0 -0.0666738 0
0 -0.0816359 0
0 -0.0651022 0
0 -0.0234516 0
0 0.0272468 0
0 0.0674331 0
0 0.0501468 0.0639558
0 0.0404733 0.0536424
0 0.0151849 0.0201257
0 -0.015962 -0.0211556
0 -0.0409506 -0.054275
0 -0.0501401 -0.0664546
0 -0.0399853 -0.0529956
0 -0.0144038 -0.0190905
0 0.0167348 0.0221799
0 0.0414169 0.052822
0 -0.000700113 0.103237
0 -0.000565058 0.0865892
0 -0.000212 0.0324868
0 0.000222849 -0.0341493
0 0.000571722 -0.0876103
0 0.00070002 -0.107271
0 0.000558245 -0.0855452
0 0.000201095 -0.0308157
0 -0.000233639 0.0358026
0 -0.000578233 0.0852648
0 -0.0512769 0.102689
0 -0.0413854 0.0861292
0 -0.0155271 0.0323142
0 0.0163217 -0.0339679
0 0.0418734 -0.0871449
0 0.0512701 -0.106701
0 0.0408864 -0.0850907
0 0.0147284 -0.030652
0 -0.0171119 0.0356124
0 -0.0423503 0.0848119
0 -0.0820707 0.0625221
0 -0.066239 0.05244
0 -0.0248517 0.0196746
0 0.0261235 -0.0206814
0 0.06702 -0.0530583
0 0.0820598 -0.064965
0 0.0654403 -0.0518076
0 0.0235734 -0.0186626
0 -0.0273883 0.0216827
0 -0.0677833 0.0516379
0 -0.081201 -0.00176579
0 -0.065537 -0.00148105
0 -0.0245884 -0.000555664
0 0.0258466 0.000584098
0 0.0663098 0.00149851
0 0.0811902 0.00183479
0 0.0647468 0.00146319
0 0.0233236 0.00052708
0 -0.027098 -0.000612378
0 -0.067065 -0.00145839
0 -0.0490034 -0.0653725
0 -0.0395504 -0.0548306
0 -0.0148387 -0.0205715
0 0.015598 0.0216242
0 0.0400168 0.0554772
0 0.0489969 0.0679267
0 0.0390735 0.0541695
0 0.0140754 0.0195134
0 -0.0163532 -0.0226712
0 -0.0404726 -0.053992
0 0.00210017 -0.103758
0 0.00169504 -0.0870262
0 0.000635951 -0.0326508
0 -0.000668494 0.0343216
0 -0.00171503 0.0880524
0 -0.00209989 0.107812
0 -0.0016746 0.0859769
0 -0.000603238 0.0309712
0 0.00070086 -0.0359833
0 0.00173456 -0.0856951
0 0.0523934 -0.102113
0 0.0422865 -0.0856464
0 0.0158652 -0.0321331
0 -0.0166771 0.0337774
0 -0.0427851 0.0866563
0 -0.0523864 0.106103
0 -0.0417766 0.0846137
0 -0.0150491 0.0304802
0 0.0174845 -0.0354128
0 0.0432724 -0.0843364
0 0.0824729 -0.0610718
0 0.0665636 -0.0492909
0 0.0249735 -0.0184931
0 -0.0262515 0.0194394
0 -0.0673485 0.0498721
0 -0.0824619 0.0610637
0 -0.065761 0.0486965
0 -0.0236889 0.0175418
0 0.0275225 -0.0203806
0 0.0681155 -0.0504401
0 0.0658967 0
0 0.0559517 0
0 0.0209921 0
0 -0.0220664 0
0 -0.0566115 0
0 -0.0693155 0
0 -0.0552771 0
0 -0.0199123 0
0 0.0231347 0
0 0.054425 0
0.00929908 0.0404733 0.0707811
0.0244721 0.0328961 0.0575174
0.0301417 0.0123424 0.0215802
0.0241822 -0.012974 -0.0226845
0.00889302 -0.0332851 -0.0581974
-0.00982714 -0.0407544 -0.0712573
-0.0247559 -0.0325004 -0.0568255
-0.0301337 -0.0117076 -0.0204702
-0.0238855 0.0136013 0.0237814
-0.00836634 0.0334274 0.0584591
0.0150105 -0.000565058 0.114254
0.0395026 -0.000459031 0.0928441
0.0486546 -0.000172225 0.0348346
0.0390346 0.000181039 -0.0366172
0.014355 0.000464458 -0.0939419
-0.0158629 0.000568685 -0.115023
-0.0399608 0.000453509 -0.0917274
-0.0486416 0.000163366 -0.0330428
-0.0385556 -0.000189793 0.0383878
-0.0135049 -0.000466689 0.0943642
0.0149308 -0.0413854 0.113647
0.0392928 -0.0336236 0.0923509
0.0483961 -0.0126153 0.0346496
0.0388273 0.0132609 -0.0364227
0.0142787 0.0340211 -0.0934428
-0.0157786 0.0416556 -0.114412
-0.0397485 0.0332192 -0.0912401
-0.0483832 0.0119665 -0.0328672
-0.0383508 -0.0139022 0.0381839
-0.0134331 -0.0341808 0.0938629
0.00909063 -0.066239 0.0691944
0.0239236 -0.0538159 0.0562279
0.029466 -0.0201914 0.0210965
0.0236402 0.0212246 -0.0221761
0.00869365 0.0544521 -0.0568928
-0.00960683 0.0666716 -0.0696599
-0.024201 0.0531686 -0.0555519
-0.0294581 0.0191527 -0.0200113
-0.02335 -0.022251 0.0232483
-0.00817879 -0.0547077 0.0571486
-0.000256744 -0.065537 -0.00195423
-0.000675662 -0.0532457 -0.00158803
-0.0008322 -0.0199774 -0.000595819
-0.000667661 0.0209997 0.000626311
-0.000245532 0.0538751 0.0016068
0.000271323 0.065965 0.00196738
0.000683499 0.0526051 0.00156893
0.000831978 0.0189498 0.000565173
0.000659467 -0.0220152 -0.000656595
0.000230991 -0.0541279 -0.00161403
-0.00950507 -0.0395504 -0.0723489
-0.0250141 -0.0321327 -0.0587915
-0.0308094 -0.012056 -0.0220582
-0.0247179 0.0126729 0.023187
-0.00908998 0.0325126 0.0594866
0.0100448 0.0398087 0.0728357
0.0253042 0.0317462 0.0580843
0.0308012 0.0114359 0.0209236
0.0244146 -0.0132858 -0.0243082
0.00855166 -0.0326652 -0.059754
-0.0150863 0.00169504 -0.114831
-0.039702 0.00137713 -0.0933127
-0.0489001 0.000516692 -0.0350104
-0.0392316 -0.000543132 0.036802
-0.0144275 -0.00139341 0.094416
0.0159429 -0.0017061 0.115603
0.0401625 -0.00136057 0.0921903
0.0488871 -0.000490113 0.0332095
0.0387502 0.000569396 -0.0385816
0.013573 0.00139996 -0.0948404
-0.0148471 0.0422865 -0.11301
-0.0390719 0.0343543 -0.0918319
-0.0481241 0.0128895 -0.0344548
-0.038609 -0.0135492 0.036218
-0.0141985 -0.0347605 0.0929176
0.0156899 -0.042561 0.113769
0.0395251 -0.0339411 0.0907273
0.0481113 -0.0122265 0.0326825
0.0381352 0.0142043 -0.0379692
0.0133578 0.034925 -0.0933367
-0.00887976 0.0665636 -0.0675894
-0.0232134 0.0537232 -0.0545511
-0.0285912 0.020156 -0.0204667
-0.0229382 -0.0211875 0.021514
-0.00843554 -0.0543567 0.0551944
0.00932162 -0.0665547 0.0675804
0.0234824 -0.0530754 0.0538934
0.0285836 -0.0191192 0.0194139
0.0226569 0.0222133 -0.0225556
0.00798908 0.0549758 -0.055823
0 0.0247233 0
0 0.0209921 0
0 0.00787589 0
0 -0.00827893 0
0 -0.0212397 0
0 -0.026006 0
0 -0.020739 0
0 -0.00747077 0
0 0.00867976 0
0 0.0204193 0
0.0150105 0.0151849 0.0502985
0.0395026 0.0123424 0.0408663
0.0486546 0.00463081 0.0153328
0.0390346 -0.00486778 -0.0161174
0.014355 -0.0124883 -0.0413495
-0.0158629 -0.0152908 -0.0506284
-0.0399608 -0.012194 -0.0403748
-0.0486416 -0.00439261 -0.014544
-0.0385556 0.00510315 0.0168968
-0.0135049 0.0125414 0.0415422
0.0242299 -0.000212 0.0811915
0.0637647 -0.000172225 0.065966
0.0785376 -6.4618e-05 0.02475
0.0630093 6.79247e-05 -0.0260166
0.0231718 0.000174261 -0.0667459
-0.0256058 0.000213368 -0.0817243
-0.0645044 0.000170154 -0.0651724
-0.0785167 6.12942e-05 -0.023477
-0.0622364 -7.12093e-05 0.0272747
-0.0217995 -0.000175094 0.0670571
0.0241011 -0.0155271 0.0807601
0.063426 -0.0126153 0.0656156
0.0781203 -0.00473322 0.0246186
0.0626749 0.00497543 -0.0258783
0.0230487 0.0127645 -0.0663913
-0.0254697 0.015629 -0.0812901
-0.0641617 0.0124636 -0.0648262
-0.0780996 0.00448974 -0.0233523
-0.0619058 -0.00521601 0.0271298
-0.0216837 -0.012824 0.0667009
0.014674 -0.0248517 0.049171
0.0386171 -0.0201914 0.0399502
0.0475639 -0.0075757 0.0149891
0.0381596 0.00796334 -0.0157561
0.0140333 0.0204301 -0.0404226
-0.0155074 0.0250147 -0.0494936
-0.039065 0.0199485 -0.0394696
-0.0475513 0.00718599 -0.014218
-0.0376914 -0.00834843 0.016518
-0.0132021 -0.0205254 0.040611
-0.000414434 -0.0245884 -0.00138872
-0.00109065 -0.0199774 -0.0011283
-0.00134332 -0.00749542 -0.000423332
-0.00107773 0.00787895 0.000444994
-0.000396336 0.0202136 0.00114164
0.000437969 0.0247496 0.00139783
0.0011033 0.0197371 0.00111473
0.00134297 0.00710984 0.000401555
0.00106451 -0.00825996 -0.000466512
0.000372864 -0.0203079 -0.00114696
-0.015343 -0.0148387 -0.0514126
-0.0403777 -0.012056 -0.0417714
-0.049732 -0.00452335 -0.0156724
-0.0398994 0.00475481 0.0164744
-0.014673 0.0121986 0.0422654
0.0162142 0.014936 0.0517498
0.0408461 0.011911 0.0412692
0.0497188 0.00429068 0.0148662
0.0394097 -0.00498474 -0.0172711
0.013804 -0.0122554 -0.0424624
-0.0243521 0.000635951 -0.0816012
-0.0640866 0.000516692 -0.066299
-0.078934 0.000193859 -0.0248749
-0.0633273 -0.00020378 0.0261479
-0.0232887 -0.000522801 0.0670828
0.0257349 -0.000640122 0.0821367
0.0648298 -0.000510476 0.0655014
0.078913 -0.000183888 0.0235955
0.0625504 0.000213634 -0.0274123
0.0219095 0.00052524 -0.0673956
-0.023966 0.0158652 -0.0803074
-0.0630695 0.0128895 -0.0652468
-0.0776813 0.00483608 -0.0244802
-0.0623225 -0.00508357 0.0257329
-0.0229191 -0.0130419 0.0660182
0.0253266 -0.0159686 0.0808332
0.063801 -0.0127345 0.0644619
0.0776607 -0.00458732 0.023221
0.0615579 0.00532938 -0.0269773
0.0215621 0.0131033 -0.066327
-0.0143336 0.0249735 -0.0480304
-0.0374709 0.020156 -0.0387652
-0.0461516 0.0075622 -0.014544
-0.0370267 -0.00794918 0.0152883
-0.0136166 -0.0203937 0.0392223
0.0150469 -0.0249702 0.048024
0.0379052 -0.019913 0.0382977
0.0461394 -0.00717321 0.0137959
0.0365726 0.00833405 -0.0160285
0.0128959 0.020626 -0.039669
0 -0.0259885 0
0 -0.0220664 0
0 -0.00827893 0
0 0.00870259 0
0 0.0223266 0
0 0.0273368 0
0 0.0218003 0
0 0.00785307 0
0 -0.00912393 0
0 -0.0214643 0
0.0149308 -0.015962 0.0104104
0.0392928 -0.012974 0.00845818
0.0483961 -0.00486778 0.00317345
0.0388273 0.0051169 -0.00333585
0.0142787 0.0131274 -0.00855818
-0.0157786 0.0160733 -0.0104787
-0.0397485 0.012818 -0.00835644
-0.0483832 0.00461739 -0.00301022
-0.0383508 -0.0053643 0.00349717
-0.0134331 -0.0131832 0.00859808
0.0241011 0.000222849 0.0168044
0.063426 0.000181039 0.0136531
0.0781203 6.79247e-05 0.00512258
0.0626749 -7.14006e-05 -0.00538469
0.0230487 -0.00018318 -0.0138146
-0.0254697 -0.000224285 -0.0169146
-0.0641617 -0.000178861 -0.0134889
-0.0780996 -6.44308e-05 -0.00485907
-0.0619058 7.48533e-05 0.00564508
-0.0216837 0.000184054 0.013879
0.0239731 0.0163217 0.0167151
0.063089 0.0132609 0.0135806
0.0777054 0.00497543 0.00509536
0.062342 -0.00523004 -0.00535611
0.0229262 -0.0134177 -0.0137412
-0.0253344 -0.0164287 -0.0168248
-0.0638208 -0.0131014 -0.0134173
-0.0776847 -0.0047195 -0.00483325
-0.061577 0.00548293 0.00561509
-0.0215685 0.0134803 0.0138052
0.0145961 0.0261235 0.010177
0.0384119 0.0212246 0.00826857
0.0473113 0.00796334 0.00310231
0.037957 -0.00837088 -0.00326107
0.0139587 -0.0214755 -0.00836633
-0.015425 -0.0262948 -0.0102438
-0.0388575 -0.0209694 -0.0081691
-0.0472987 -0.00755375 -0.00294274
-0.0374912 0.00877564 0.00341877
-0.013132 0.0215757 0.00840534
-0.000412232 0.0258466 -0.000287426
-0.00108486 0.0209997 -0.000233527
-0.0013362 0.00787895 -8.76175e-05
-0.00107201 -0.00828217 9.21016e-05
-0.00039423 -0.021248 0.000236287
0.000435642 -0.0260161 0.000289311
0.00109744 -0.0207471 0.000230717
0.00133584 -0.00747369 8.31109e-05
0.00105885 0.00868265 -9.65552e-05
0.000370883 0.0213471 -0.000237389
-0.0152615 0.015598 -0.010641
-0.0401632 0.0126729 -0.00864554
-0.049468 0.00475481 -0.00324374
-0.0396874 -0.00499815 0.00340975
-0.014595 -0.0128228 0.00874772
0.0161281 -0.0157003 0.0107108
0.0406291 -0.0125205 0.00854155
0.0494549 -0.00451025 0.0030769
0.0392003 0.00523983 -0.00357462
0.0137307 0.0128826 -0.00878854
-0.0242228 -0.000668494 -0.0168892
-0.0637461 -0.000543132 -0.013722
-0.0785146 -0.00020378 -0.00514843
-0.0629908 0.000214209 0.00541187
-0.023165 0.000549553 0.0138843
0.0255983 0.000672876 0.017
0.0644855 0.000536601 0.013557
0.0784937 0.000193298 0.00488358
0.0622182 -0.000224566 -0.00567357
0.0217931 -0.000552119 -0.013949
-0.0238387 -0.0166771 -0.0166214
-0.0627345 -0.0135492 -0.0135043
-0.0772686 -0.00508357 -0.00506673
-0.0619915 0.00534371 0.005326
-0.0227974 0.0137093 0.0136639
0.025192 0.0167858 0.0167302
0.0634621 0.0133862 0.0133418
0.0772481 0.00482207 0.00480609
0.0612309 -0.0056021 -0.00558354
0.0214476 -0.0137738 -0.0137278
-0.0142575 -0.0262515 -0.00994095
-0.0372719 -0.0211875 -0.00802331
-0.0459065 -0.00794918 -0.00301021
-0.03683 0.00835597 0.00316425
-0.0135443 0.0214373 0.00811792
0.014967 0.026248 0.00993963
0.0377038 0.020932 0.00792656
0.0458943 0.00754029 0.00285537
0.0363784 -0.00876053 -0.00331745
0.0128274 -0.0216815 -0.00821037
0 -0.0666738 0
0 -0.0566115 0
0 -0.0212397 0
0 0.0223266 0
0 0.0572791 0
0 0.0701329 0
0 0.0559289 0
0 0.0201471 0
0 -0.0234075 0
0 -0.0550668 0
0.00909063 -0.0409506 -0.0334941
0.0239236 -0.0332851 -0.0272131
0.029466 -0.0124883 -0.0102102
0.0236402 0.0131274 0.0107327
0.00869365 0.0336786 0.0275349
-0.00960683 0.0412364 0.0337139
-0.024201 0.0328847 0.0268858
-0.0294581 0.011846 0.00968499
-0.02335 -0.0137622 -0.0112517
-0.00817879 -0.0338216 -0.0276633
0.014674 0.000571722 -0.054066
0.0386171 0.000464458 -0.0439271
0.0475639 0.000174261 -0.0164812
0.0381596 -0.00018318 0.0173247
0.0140332 -0.000469949 0.0444465
-0.0155074 -0.000575408 0.0544207
-0.039065 -0.00045887 0.0433987
-0.0475513 -0.000165298 0.0156335
-0.0376914 0.000192037 -0.0181623
-0.0132021 0.000472193 -0.0446538
0.0145961 0.0418734 -0.0537788
0.0384119 0.0340211 -0.0436938
0.0473113 0.0127645 -0.0163937
0.037957 -0.0134177 0.0172326
0.0139587 -0.0344234 0.0442104
-0.015425 -0.0421481 0.0541316
-0.0388575 -0.0336119 0.0431682
-0.0472987 -0.0121079 0.0155504
-0.0374912 0.0140665 -0.0180659
-0.013132 0.0345838 -0.0444166
0.00888685 0.06702 -0.0327433
0.0233872 0.0544521 -0.0266031
0.0288054 0.0204301 -0.00998133
0.0231102 -0.0214755 0.0104921
0.0084988 -0.0550959 0.0269176
-0.00939151 -0.0674598 0.0329581
-0.0236585 -0.0537972 0.0262831
-0.0287978 -0.0193792 0.00946791
-0.0228265 0.022514 -0.0109994
-0.00799545 0.0553528 -0.0270432
-0.000250988 0.0663098 0.000924758
-0.000660519 0.0538751 0.000751342
-0.000813543 0.0202136 0.000281899
-0.000652693 -0.021248 -0.000296325
-0.000240029 -0.0545121 -0.000760226
0.000265242 -0.0667449 -0.000930824
0.00066818 -0.053227 -0.000742306
0.000813327 -0.0191738 -0.000267399
0.000644686 0.0222755 0.000310654
0.000225813 0.0547662 0.000763771
-0.009292 0.0400168 0.034236
-0.0244535 0.0325126 0.0278159
-0.0301188 0.0121986 0.0104364
-0.0241638 -0.0128228 -0.0109704
-0.00888624 -0.032897 -0.0281446
0.00981964 -0.0402794 -0.0344607
0.024737 -0.0321215 -0.0274814
0.0301107 -0.0115711 -0.00989953
0.0238673 0.0134428 0.0115009
0.00835996 0.0330504 0.028276
-0.0147481 -0.00171503 0.0543388
-0.0388119 -0.00139341 0.0441488
-0.047804 -0.000522801 0.0165644
-0.0383521 0.000549553 -0.017412
-0.014104 0.00140988 -0.0446707
0.0155856 0.00172628 -0.0546953
0.0392621 0.00137665 -0.0436178
0.0477913 0.000495907 -0.0157123
0.0378816 -0.000576127 0.018254
0.0132688 -0.00141647 0.0448792
-0.0145142 -0.0427851 0.0534773
-0.038196 -0.0347605 0.0434482
-0.0470453 -0.0130419 0.0163015
-0.0377436 0.0137093 -0.0171358
-0.0138803 0.0351714 -0.0439619
0.0153383 0.0430641 -0.0538274
0.038639 0.0343424 -0.0429256
0.0470328 0.0123711 -0.015463
0.0372805 -0.0143723 0.0179643
0.0130584 -0.0353368 0.0441676
-0.00868071 -0.0673485 0.0319838
-0.022693 -0.0543567 0.025814
-0.0279502 -0.0203937 0.00968497
-0.022424 0.0214373 -0.0101806
-0.00824645 0.0549977 -0.0261184
0.00911266 0.0673395 -0.0319795
0.022956 0.0537013 -0.0255027
0.0279428 0.0193447 -0.00918679
0.022149 -0.0224752 0.0106735
0.00780999 -0.0556241 0.0264159
0 -0.0816359 0
0 -0.0693155 0
0 -0.026006 0
0 0.0273368 0
0 0.0701329 0
0 0.0858712 0
0 0.0684797 0
0 0.0246683 0
0 -0.0286604 0
0 -0.0674241 0
-0.000256744 -0.0501401 -0.0644764
-0.000675662 -0.0407544 -0.0523853
-0.0008322 -0.0152908 -0.0196547
-0.000667661 0.0160733 0.0206605
-0.000245532 0.0412364 0.0530047
0.000271323 0.05049 0.0648991
0.000683499 0.0402643 0.0517551
0.000831978 0.0145043 0.0186437
0.000659467 -0.0168505 -0.0216595
0.000230991 -0.0414114 -0.0532519
-0.000414434 0.00070002 -0.104077
-0.00109065 0.000568685 -0.0845601
-0.00134332 0.000213368 -0.0317264
-0.00107773 -0.000224285 0.03335
-0.000396336 -0.000575408 0.0855599
0.000437969 -0.000704531 0.10476
0.0011033 -0.000561844 0.083543
0.00134297 -0.000202391 0.0300945
0.00106451 0.000235131 -0.0349626
0.000372864 0.000578156 -0.0859589
-0.000412232 0.0512701 -0.103524
-0.00108486 0.0416556 -0.0841108
-0.0013362 0.015629 -0.0315578
-0.00107201 -0.0164287 0.0331728
-0.00039423 -0.0421481 0.0851054
0.000435642 -0.0516063 0.104203
0.00109744 -0.0411547 0.0830991
0.00133584 -0.014825 0.0299346
0.00105885 0.0172232 -0.0347769
0.000370883 0.0423447 -0.0855022
-0.000250988 0.0820598 -0.063031
-0.000660518 0.0666716 -0.051211
-0.000813543 0.0250147 -0.019214
-0.000652693 -0.0262948 0.0201974
-0.000240029 -0.0674598 0.0518164
0.000265242 -0.0825983 0.0634443
0.00066818 -0.0658695 0.050595
0.000813327 -0.0237281 0.0182257
0.000644686 0.0275663 -0.021174
0.000225813 0.0677743 -0.0520582
7.08858e-06 0.0811902 0.00178016
1.86547e-05 0.0659649 0.00144634
2.29767e-05 0.0247496 0.000542658
1.84338e-05 -0.0260161 -0.000570426
6.77905e-06 -0.0667449 -0.00146344
-7.49113e-06 -0.081723 -0.00179184
-1.88711e-05 -0.0651714 -0.00142894
-2.29706e-05 -0.0234766 -0.000514743
-1.82076e-05 0.0272742 0.000598009
-6.37756e-06 0.0670561 0.00147026
0.000262431 0.0489969 0.0659046
0.000690629 0.0398087 0.0535458
0.000850634 0.014936 0.0200901
0.000682448 -0.0157003 -0.0211181
0.000250971 -0.0402794 -0.0541789
-0.000277333 -0.0493184 -0.0663369
-0.000698638 -0.0393298 -0.0529016
-0.000850408 -0.0141677 -0.0190566
-0.000674072 0.0164595 0.0221393
-0.000236108 0.0404672 0.0544315
0.000416525 -0.00209989 0.104602
0.00109615 -0.0017061 0.0849868
0.0013501 -0.000640122 0.0318865
0.00108317 0.000672876 -0.0335183
0.000398336 0.00172628 -0.0859913
-0.000440176 0.00211367 -0.105289
-0.00110887 0.00168559 -0.0839646
-0.00134974 0.000607193 -0.0302464
-0.00106988 -0.000705414 0.0351391
-0.000374745 -0.00173433 0.0863926
0.000409921 -0.0523864 0.102944
0.00107876 -0.042561 0.0836381
0.00132868 -0.0159686 0.0313805
0.00106598 0.0167858 -0.0329864
0.000392014 0.0430641 -0.0846269
-0.000433193 0.052728 -0.103618
-0.00109127 0.0420491 -0.0826322
-0.00132833 0.0151472 -0.0297664
-0.0010529 -0.0175975 0.0345815
-0.000368804 -0.0432667 0.0850229
0.000245166 -0.0824619 0.0615689
0.000640912 -0.0665547 0.0496921
0.000789389 -0.0249702 0.0186436
0.000633314 0.026248 -0.0195977
0.000232902 0.0673395 -0.050278
-0.000257366 0.082451 -0.0615608
-0.00064834 0.0657522 -0.0490929
-0.000789179 0.0236858 -0.0176846
-0.000625548 -0.0275188 0.0205465
-0.000220575 -0.0681065 0.0508506
0 -0.0651022 0
0 -0.0552771 0
0 -0.020739 0
0 0.0218003 0
0 0.0559289 0
0 0.0684797 0
0 0.0546105 0
0 0.0196722 0
0 -0.0228558 0
0 -0.0537688 0
-0.00950507 -0.0399853 -0.0705831
-0.0250141 -0.0325004 -0.0573469
-0.0308094 -0.012194 -0.0215162
-0.0247179 0.012818 0.0226173
-0.00908998 0.0328847 0.0580248
0.0100448 0.0402643 0.0710461
0.0253042 0.0321095 0.056657
0.0308012 0.0115667 0.0204095
0.0244146 -0.0134377 -0.023711
0.00855166 -0.0330244 -0.0582956
-0.015343 0.000558245 -0.113935
-0.0403777 0.000453509 -0.0925691
-0.049732 0.000170154 -0.0347314
-0.0398994 -0.000178861 0.0365086
-0.014673 -0.00045887 0.0936635
0.0162142 -0.000561844 0.114682
0.0408461 -0.000448053 0.0914554
0.0497188 -0.000161402 0.0329448
0.0394097 0.000187511 -0.038274
0.013804 0.000461062 -0.0941003
-0.0152615 0.0408864 -0.11333
-0.0401632 0.0332192 -0.0920773
-0.049468 0.0124636 -0.034547
-0.0396874 -0.0131014 0.0363147
-0.014595 -0.0336119 0.0931659
0.0161281 -0.0411547 0.114073
0.0406291 -0.0328195 0.0909696
0.0494549 -0.0118225 0.0327698
0.0392003 0.013735 -0.0380707
0.0137307 0.0337686 -0.0936004
-0.009292 0.0654403 -0.0690009
-0.0244535 0.0531686 -0.0560615
-0.0301188 0.0199485 -0.021034
-0.0241638 -0.0209694 0.0221103
-0.00888624 -0.0537972 0.0567241
0.00981964 -0.0658695 0.0694535
0.0247371 -0.0525289 0.0553872
0.0301107 -0.0189224 0.019952
0.0238673 0.0219833 -0.0231794
0.00835996 0.054048 -0.0569888
0.000262431 0.0647468 0.00194877
0.000690629 0.0526051 0.00158332
0.000850634 0.0197371 0.000594054
0.000682448 -0.0207471 -0.000624454
0.000250971 -0.053227 -0.00160204
-0.000277333 -0.0651714 -0.00196155
-0.000698638 -0.0519723 -0.00156428
-0.000850408 -0.0187219 -0.000563497
-0.000674072 0.0217503 0.00065465
-0.000236108 0.0534752 0.00160952
0.00971561 0.0390735 0.0721466
0.0255682 0.0317462 0.0586172
0.0314917 0.011911 0.0219928
0.0252653 -0.0125205 -0.0231183
0.00929135 -0.0321215 -0.0593102
-0.0102674 -0.0393298 -0.0726197
-0.0258647 -0.0313644 -0.0579121
-0.0314833 -0.0112983 -0.0208616
-0.0249553 0.013126 0.0242362
-0.00874108 0.0322714 0.0595869
0.0154204 -0.0016746 0.11451
0.0405815 -0.00136057 0.0930363
0.049983 -0.000510476 0.0349066
0.0401007 0.000536601 -0.0366929
0.014747 0.00137665 -0.0941362
-0.0162961 0.00168559 -0.115261
-0.0410522 0.0013442 -0.091917
-0.0499697 0.00048422 -0.0331111
-0.0396086 -0.000562547 0.0384672
-0.0138737 -0.00138308 0.0945752
0.0151759 -0.0417766 0.112694
0.0399375 -0.0339411 0.0915598
0.04919 -0.0127345 0.0343527
0.0394643 0.0133862 -0.0361107
0.014513 0.0343424 -0.0926423
-0.0160375 0.0420491 -0.113431
-0.0404007 0.0335329 -0.0904583
-0.0491769 0.0120795 -0.0325856
-0.03898 -0.0140335 0.0378568
-0.0136537 -0.0345039 0.0930757
0.00907646 -0.065761 0.0674004
0.0237276 -0.0530754 0.0543986
0.0292245 -0.019913 0.0204094
0.0234463 0.020932 -0.0214538
0.0086224 0.0537013 -0.05504
-0.0095281 0.0657522 -0.0673914
-0.0240026 0.0524355 -0.0537426
-0.0292167 0.0188887 -0.0193596
-0.0231588 -0.0219455 0.0224925
-0.00816604 -0.0543129 0.0556669
0 -0.0234516 0
0 -0.0199123 0
0 -0.00747077 0
0 0.00785307 0
0 0.0201471 0
0 0.0246683 0
0 0.0196722 0
0 0.00708648 0
0 -0.00823328 0
0 -0.019369 0
-0.0150863 -0.0144038 -0.0494584
-0.039702 -0.0117076 -0.0401837
-0.0489001 -0.00439261 -0.0150767
-0.0392316 0.00461739 0.0158482
-0.0144275 0.011846 0.0406588
0.0159429 0.0145043 0.0497826
0.0401625 0.0115667 0.0397003
0.0488871 0.00416667 0.0143011
0.0387502 -0.00484065 -0.0166145
0.013573 -0.0118963 -0.0408484
-0.0243521 0.000201095 -0.0798354
-0.0640866 0.000163366 -0.0648641
-0.078934 6.12942e-05 -0.0243367
-0.0633273 -6.44308e-05 0.025582
-0.0232887 -0.000165298 0.065631
0.0257349 -0.000202391 0.0803591
0.0648298 -0.000161402 0.0640838
0.078913 -5.81413e-05 0.0230848
0.0625504 6.75465e-05 -0.0268191
0.0219095 0.000166087 -0.0659372
-0.0242228 0.0147284 -0.0794113
-0.0637461 0.0119665 -0.0645195
-0.0785146 0.00448974 -0.0242074
-0.0629908 -0.0047195 0.0254461
-0.023165 -0.0121079 0.0652823
0.0255983 -0.014825 0.0799322
0.0644855 -0.0118225 0.0637434
0.0784937 -0.0042588 0.0229622
0.0622182 0.00494771 -0.0266766
0.0217931 0.0121644 -0.0655869
-0.0147481 0.0235734 -0.0483497
-0.0388119 0.0191527 -0.0392829
-0.047804 0.00718599 -0.0147387
-0.0383521 -0.00755375 0.015493
-0.014104 -0.0193792 0.0397473
0.0155856 -0.0237281 0.048667
0.0392621 -0.0189224 0.0388103
0.0477913 -0.00681639 0.0139806
0.0378816 0.00791899 -0.0162421
0.0132688 0.0194696 -0.0399327
0.000416525 0.0233236 0.00136552
0.00109615 0.0189498 0.00110945
0.0013501 0.00710984 0.000416261
0.00108317 -0.00747369 -0.000437563
0.000398336 -0.0191738 -0.00112257
-0.000440176 -0.0234766 -0.00137448
-0.00110887 -0.0187219 -0.00109611
-0.00134975 -0.00674415 -0.000394848
-0.00106988 0.00783509 0.00045872
-0.000374745 0.0192633 0.00112781
0.0154204 0.0140754 0.0505539
0.0405815 0.0114359 0.0410738
0.049983 0.00429068 0.0154107
0.0401007 -0.00451025 -0.0161992
0.014747 -0.0115711 -0.0415593
-0.0162961 -0.0141677 -0.0508855
-0.0410522 -0.0112983 -0.0405798
-0.0499697 -0.00406996 -0.0146179
-0.0396086 0.00472834 0.0169826
-0.0138737 0.011625 0.0417532
0.024475 -0.000603238 0.0802383
0.06441 -0.000490113 0.0651914
0.0793323 -0.000183888 0.0244595
0.0636469 0.000193298 -0.0257111
0.0234063 0.000495907 -0.0659622
-0.0258648 0.000607193 -0.0807647
-0.065157 0.00048422 -0.0644073
-0.0793113 0.000174429 -0.0232013
-0.0628658 -0.000202645 0.0269544
-0.0220201 -0.000498223 0.0662699
0.024087 -0.0150491 0.0789661
0.0633878 -0.0122265 0.0641569
0.0780733 -0.00458732 0.0240713
0.0626371 0.00482207 -0.0253031
0.0230348 0.0123711 -0.0649153
-0.0254544 0.0151472 -0.0794829
-0.064123 0.0120795 -0.0633851
-0.0780526 0.00435135 -0.0228331
-0.0618685 -0.00505524 0.0265267
-0.0216709 -0.0124292 0.0652192
0.014406 -0.0236889 0.0472282
0.03766 -0.0191192 0.0381177
0.0463845 -0.00717321 0.0143011
0.0372135 0.00754029 -0.0150329
0.0136853 0.0193447 -0.0385672
-0.0151228 0.0236858 -0.0472219
-0.0380965 0.0188887 -0.0376581
-0.0463722 0.00680423 -0.0135655
-0.0367572 -0.00790536 0.0157608
-0.012961 -0.019565 0.0390064
0 0.0272468 0
0 0.0231347 0
0 0.00867976 0
0 -0.00912393 0
0 -0.0234075 0
0 -0.0286603 0
0 -0.0228558 0
0 -0.00823328 0
0 0.00956568 0
0 0.0225035 0
-0.0148471 0.0167348 -0.00925228
-0.0390719 0.0136013 -0.00751793
-0.0481241 0.00510314 -0.00282068
-0.038609 -0.00536429 0.00296503
-0.0141985 -0.0137621 0.00760681
0.0156899 -0.0168505 0.00931382
0.0395251 -0.0134377 0.00742749
0.0481113 -0.00484064 0.00267559
0.0381352 0.00562367 -0.00310839
0.0133578 0.0138215 -0.00764159
-0.023966 -0.000233639 -0.014935
-0.0630695 -0.000189793 -0.0121353
-0.0776813 -7.12092e-05 -0.00455311
-0.0623225 7.48531e-05 0.00478611
-0.0229191 0.000192037 0.0122788
0.0253266 0.000235131 0.0150343
0.063801 0.00018751 0.0119894
0.0776607 6.75464e-05 0.00431892
0.0615579 -7.84729e-05 -0.00501755
0.0215621 -0.000192965 -0.012335
-0.0238387 -0.0171119 -0.0148556
-0.0627345 -0.0139021 -0.0120709
-0.0772686 -0.005216 -0.00452894
-0.0619915 0.00548292 0.00476068
-0.0227974 0.0140665 0.0122136
0.025192 0.0172231 0.0149544
0.0634621 0.0137349 0.0119257
0.0772481 0.0049477 0.00429598
0.0612309 -0.00574806 -0.00499089
0.0214476 -0.014133 -0.0122695
-0.0145142 -0.0273883 -0.00904488
-0.038196 -0.0222509 -0.00734939
-0.0470453 -0.00834842 -0.00275745
-0.0377436 0.00877563 0.00289856
-0.0138803 0.022514 0.00743628
0.0153383 0.0275663 0.00910502
0.038639 0.0219833 0.00726098
0.0470328 0.00791897 0.00261561
0.0372805 -0.00919998 -0.00303871
0.0130584 -0.0226203 -0.00747029
0.000409921 -0.027098 0.000255451
0.00107876 -0.0220151 0.000207567
0.00132868 -0.00825994 7.78778e-05
0.00106598 0.00868263 -8.1863e-05
0.000392014 0.0222754 -0.000210021
-0.000433193 0.0272742 -0.00025715
-0.00109127 0.0217503 -0.00020507
-0.00132833 0.00783508 -7.38719e-05
-0.0010529 -0.00910248 8.58214e-05
-0.000368804 -0.0223806 0.000210981
0.0151759 -0.0163532 0.00945723
0.0399375 -0.0132857 0.00768444
0.04919 -0.00498473 0.00288316
0.0394643 0.00523982 -0.0030307
0.014513 0.0134428 -0.00777531
-0.0160375 0.0164595 -0.0095201
-0.0404007 0.0131259 -0.00759203
-0.0491769 0.00472833 -0.00273485
-0.03898 -0.00549319 0.00317724
-0.0136537 -0.0135063 0.00781085
0.024087 0.00070086 0.0150103
0.0633878 0.000569395 0.0121966
0.0780733 0.000213634 0.00457609
0.0626371 -0.000224566 -0.00481026
0.0230348 -0.000576126 -0.0123408
-0.0254544 -0.000705413 -0.0151102
-0.064123 -0.000562546 -0.0120499
-0.0780526 -0.000202645 -0.00434071
-0.0618685 0.000235425 0.00504287
-0.0216709 0.00057885 0.0123972
0.0237051 0.0174845 0.0147723
0.0623818 0.0142043 0.012003
0.0768343 0.00532937 0.00450347
0.0616431 -0.00560209 -0.00473393
0.0226692 -0.0143722 -0.012145
-0.0250504 -0.0175974 -0.0148704
-0.0631054 -0.0140334 -0.0118587
-0.0768139 -0.00505524 -0.00427183
-0.0608867 0.00587298 0.00496285
-0.0213273 0.0144407 0.0122007
0.0141776 0.0275225 0.00883507
0.0370629 0.0222133 0.00713075
0.0456491 0.00833405 0.00267534
0.0366235 -0.00876053 -0.00281224
0.0134683 -0.0224752 -0.00721484
-0.0148831 -0.0275188 -0.0088339
-0.0374924 -0.0219455 -0.00704477
-0.045637 -0.00790536 -0.00253772
-0.0361744 0.00918468 0.0029484
-0.0127555 0.0227312 0.00729701
0 0.0674331 0
0 0.054425 0
0 0.0204193 0
0 -0.0214643 0
0 -0.0550668 0
0 -0.0674242 0
0 -0.0537688 0
0 -0.019369 0
0 0.0225035 0
0 0.055694 0
-0.00887976 0.0414169 0.0345235
-0.0232134 0.0334274 0.0278638
-0.0285911 0.0125414 0.010454
-0.0229382 -0.0131832 -0.010989
-0.00843554 -0.0338216 -0.0281923
0.00932162 -0.0414114 -0.0345189
0.0234824 -0.0330244 -0.0275278
0.0285835 -0.0118963 -0.00991627
0.0226569 0.0138215 0.011521
0.00798908 0.0342068 0.0285134
-0.0143336 -0.000578233 0.0557275
-0.0374709 -0.000466689 0.0449775
-0.0461516 -0.000175094 0.0168748
-0.0370267 0.000184054 -0.0177383
-0.0136166 0.000472193 -0.0455079
0.0150469 0.000578156 -0.0557201
0.0379052 0.000461062 -0.0444352
0.0461393 0.000166087 -0.0160068
0.0365726 -0.000192965 0.0185972
0.0128959 -0.00047757 0.0460262
-0.0142575 -0.0423503 0.0554315
-0.0372718 -0.0341808 0.0447386
-0.0459064 -0.012824 0.0167852
-0.03683 0.0134803 -0.0176441
-0.0135443 0.0345838 -0.0452661
0.014967 0.0423447 -0.0554242
0.0377038 0.0337686 -0.0441991
0.0458942 0.0121644 -0.0159217
0.0363783 -0.014133 0.0184984
0.0128274 -0.0349777 0.0457817
-0.00868071 -0.0677833 0.0337496
-0.022693 -0.0547077 0.0272392
-0.0279502 -0.0205254 0.0102197
-0.022424 0.0215757 -0.0107426
-0.00824644 0.0553528 -0.0275604
0.00911266 0.0677743 -0.0337451
0.022956 0.054048 -0.0269107
0.0279428 0.0194696 -0.00969398
0.022149 -0.0226203 0.0112628
0.00780999 -0.0559832 0.0278743
0.000245166 -0.067065 -0.000953178
0.000640912 -0.0541279 -0.000769307
0.000789389 -0.0203079 -0.000288631
0.000633314 0.0213471 0.000303401
0.000232902 0.0547662 0.000778379
-0.000257366 0.0670561 0.000953052
-0.00064834 0.0534753 0.000760031
-0.000789179 0.0192633 0.000273784
-0.000625548 -0.0223806 -0.00031809
-0.000220575 -0.0553899 -0.000787243
0.00907646 -0.0404726 -0.0352882
0.0237276 -0.0326652 -0.028481
0.0292245 -0.0122554 -0.0106856
0.0234463 0.0128826 0.0112324
0.00862239 0.0330504 0.0288168
-0.0095281 0.0404672 0.0352835
-0.0240026 0.0322714 0.0281376
-0.0292167 0.011625 0.0101359
-0.0231588 -0.0135063 -0.0117762
-0.00816604 -0.0334268 -0.029145
0.014406 0.00173456 -0.0560088
0.03766 0.00139996 -0.0452045
0.0463845 0.00052524 -0.01696
0.0372135 -0.000552119 0.0178278
0.0136853 -0.00141647 0.0457375
-0.0151228 -0.00173433 0.0560013
-0.0380964 -0.00138308 0.0446594
-0.0463722 -0.000498223 0.0160876
-0.0367572 0.00057885 -0.018691
-0.012961 0.0014326 -0.0462584
0.0141776 0.0432724 -0.0551208
0.0370629 0.034925 -0.0444878
0.0456491 0.0131033 -0.016691
0.0366235 -0.0137738 0.0175452
0.0134683 -0.0353368 0.0450124
-0.014883 -0.0432667 0.0551134
-0.0374924 -0.0345039 0.0439513
-0.0456369 -0.0124293 0.0158325
-0.0361744 0.0144407 -0.0183947
-0.0127555 0.0357393 -0.045525
0.00847935 0.0681155 -0.0329667
0.0221667 0.0549758 -0.0266073
0.0273019 0.020626 -0.00998262
0.0219039 -0.0216815 0.0104935
0.00805516 -0.0556241 0.0269211
-0.00890129 -0.0681065 0.0329623
-0.0224235 -0.0543129 0.0262865
-0.0272946 -0.019565 0.00946912
-0.0216353 0.0227312 -0.0110015
-0.00762883 0.0562575 -0.0272277
