# vtk DataFile Version 3.0
Velocity field
ASCII
DATASET STRUCTURED_POINTS
DIMENSIONS 5 5 5
SPACING 1.33333 1.33333 1.33333
ORIGIN 0 0 0
POINT_DATA 125
VECTORS velocity float
0 0.449807 0
0 0.105812 0
0 -0.400026 0
0 -0.294014 0
0 0.2617 0
0 -0.238184 0.781181
0 -0.0560299 0.211782
0 0.211824 -0.800652
0 0.155688 -0.588469
0 -0.138576 0.454494
0 -0.561867 0.367526
0 -0.132172 0.0996382
0 0.499683 -0.376687
0 0.367261 -0.27686
0 -0.326896 0.213828
0 -0.0261604 -0.608269
0 -0.00615391 -0.164905
0 0.0232652 0.62343
0 0.0170996 0.458213
0 -0.0152202 -0.353893
0 0.549559 -0.653701
0 0.129277 -0.153775
0 -0.488738 0.581354
0 -0.359216 0.427288
0 0.319736 -0.380326
0 0.105812 0
0 0.0316723 0
0 -0.119738 0
0 -0.0880063 0
0 0.0615615 0
0.334343 -0.0560299 0.274337
0.517169 -0.0137855 0.0679986
-0.108408 0.0521741 -0.257399
-0.568229 0.0383558 -0.189233
-0.151075 -0.0325984 0.15961
0.1573 -0.132172 0.129069
0.243316 -0.0326345 0.0319918
-0.0510036 0.123521 -0.1211
-0.267337 0.0908076 -0.0890299
-0.0710772 -0.0768982 0.0750926
-0.260337 -0.00615391 -0.213613
-0.402572 -0.00152793 -0.0529313
0.0843865 0.00578437 0.200361
0.442317 0.00425261 0.1473
0.117635 -0.00358037 -0.124281
-0.279782 0.129277 -0.229568
-0.411412 0.0304108 -0.0540031
0.0862227 -0.114969 0.204161
0.451978 -0.0845011 0.150056
0.126422 0.0752138 -0.133564
0 -0.400026 0
0 -0.119739 0
0 0.452677 0
0 0.332712 0
0 -0.232736 0
0.1573 0.211824 -0.652112
0.243316 0.0521741 -0.1612
-0.0510036 -0.19747 0.610166
-0.267337 -0.145172 0.448576
-0.0710772 0.12324 -0.379401
0.0740056 0.499683 -0.306802
0.114474 0.123521 -0.0758409
-0.0239959 -0.467544 0.28707
-0.125776 -0.343723 0.211044
-0.0334401 0.290717 -0.178499
-0.122482 0.0232652 0.507769
-0.189401 0.00578436 0.125482
0.0397019 -0.0218993 -0.474965
0.208099 -0.0161003 -0.349178
0.0553445 0.0135357 0.295422
-0.13163 -0.488738 0.545695
-0.193559 -0.114969 0.128368
0.0405656 0.434647 -0.485301
0.212644 0.31946 -0.35669
0.0594783 -0.284349 0.317487
0 -0.294014 0
0 -0.0880063 0
0 0.332712 0
0 0.244539 0
0 -0.171058 0
-0.260337 0.155688 -0.581139
-0.402572 0.038356 -0.143683
0.0843865 -0.145173 0.543863
0.442317 -0.106724 0.399832
0.117635 0.0905795 -0.338109
-0.122482 0.367261 -0.273412
-0.189401 0.0908081 -0.0675994
0.0397019 -0.343725 0.255875
0.208099 -0.252696 0.188112
0.0553445 0.213674 -0.159072
0.202712 0.0170996 0.452506
0.313371 0.00425264 0.111846
-0.0656877 -0.0161004 -0.423352
-0.344306 -0.0118371 -0.311235
-0.0915971 0.0099486 0.26327
0.217853 -0.359216 0.486304
0.320347 -0.0845011 0.114397
-0.0671376 0.31946 -0.432483
-0.351934 0.234799 -0.31787
-0.0984387 -0.208993 0.282934
0 0.2617 0
0 0.0615615 0
0 -0.232736 0
0 -0.171058 0
0 0.152258 0
-0.279782 -0.138576 0.3787
-0.411412 -0.0325984 0.0890845
0.0862226 0.12324 -0.336788
0.451978 0.0905795 -0.247535
0.126422 -0.0806242 0.220329
-0.13163 -0.326896 0.178169
-0.193559 -0.0768982 0.041912
0.0405656 0.290717 -0.15845
0.212644 0.213674 -0.116459
0.0594783 -0.190189 0.103659
0.217853 -0.0152202 -0.294876
0.320347 -0.00358037 -0.0693659
-0.0671375 0.0135357 0.262241
-0.351934 0.0099486 0.192744
-0.0984387 -0.00885518 -0.17156
0.234125 0.319736 -0.316901
0.344275 0.0752138 -0.074547
-0.0721522 -0.284349 0.281828
-0.37822 -0.208993 0.20714
-0.105791 0.186023 -0.184374
