# vtk DataFile Version 3.0
Velocity field
ASCII
DATASET STRUCTURED_POINTS
DIMENSIONS 5 5 5
SPACING 1.33333 1.33333 1.33333
ORIGIN 0 0 0
POINT_DATA 125
VECTORS velocity float
0 0.526642 0
0 0.123886 0
0 -0.468357 0
0 -0.344236 0
0 0.306402 0
0 -0.27887 0.91462
0 -0.0656007 0.247958
0 0.248007 -0.937418
0 0.182282 -0.68899
0 -0.162248 0.532129
0 -0.657844 0.430306
0 -0.15475 0.116658
0 0.585038 -0.441032
0 0.429995 -0.324153
0 -0.382736 0.250354
0 -0.0306291 -0.712172
0 -0.00720511 -0.193073
0 0.0272393 0.729923
0 0.0200205 0.536484
0 -0.0178201 -0.414344
0 0.643434 -0.765365
0 0.15136 -0.180043
0 -0.572223 0.680659
0 -0.420576 0.500276
0 0.374352 -0.445292
0 0.123886 0
0 0.0370825 0
0 -0.140192 0
0 -0.103039 0
0 0.0720773 0
0.391454 -0.0656007 0.321199
0.611914 -0.016286 0.0804461
-0.12828 0.061668 -0.304689
-0.67236 0.0453398 -0.224024
-0.176882 -0.0381667 0.186875
0.184169 -0.15475 0.151116
0.287892 -0.0385754 0.0378482
-0.0603528 0.146082 -0.143348
-0.316329 0.107405 -0.105399
-0.0832185 -0.0900338 0.0879198
-0.304807 -0.00720511 -0.250102
-0.476257 -0.00181038 -0.0626121
0.0998409 0.00685818 0.237137
0.523303 0.00504276 0.174357
0.13773 -0.00419196 -0.14551
-0.327574 0.15136 -0.268783
-0.481689 0.0356055 -0.0632278
0.100951 -0.134608 0.239036
0.529184 -0.0989354 0.175688
0.148017 0.0880617 -0.156379
0 -0.468357 0
0 -0.140192 0
0 0.530003 0
0 0.389545 0
0 -0.272492 0
0.184169 0.248007 -0.763504
0.287892 0.061668 -0.190644
-0.0603528 -0.233525 0.722011
-0.316329 -0.171695 0.530859
-0.0832185 0.144291 -0.444209
0.0866471 0.585038 -0.35921
0.135446 0.146082 -0.0896938
-0.0283945 -0.553243 0.33969
-0.148826 -0.406773 0.249757
-0.0391522 0.340377 -0.208989
-0.143404 0.0272393 0.594505
-0.224068 0.00685818 0.148383
0.0469729 -0.025983 -0.561948
0.246202 -0.0191054 -0.413171
0.0647983 0.0158479 0.345885
-0.154115 -0.572223 0.638909
-0.226623 -0.134608 0.150295
0.0474949 0.508893 -0.568199
0.248968 0.37403 -0.417619
0.0696382 -0.332921 0.37172
0 -0.344236 0
0 -0.103039 0
0 0.389545 0
0 0.286311 0
0 -0.200278 0
-0.304807 0.182282 -0.680408
-0.476257 0.0453401 -0.169941
0.0998409 -0.171696 0.643609
0.523303 -0.126237 0.473215
0.13773 0.106052 -0.395864
-0.143404 0.429995 -0.320115
-0.224068 0.107406 -0.0799532
0.0469729 -0.406776 0.302804
0.246202 -0.299083 0.222637
0.0647983 0.250173 -0.186244
0.237339 0.0200205 0.529802
0.370679 0.0050428 0.132269
-0.0777071 -0.0191056 -0.500926
-0.407292 -0.0140485 -0.368306
-0.107244 0.011648 0.308241
0.255066 -0.420576 0.569374
0.375068 -0.0989354 0.133938
-0.0786058 0.37403 -0.506359
-0.41205 0.274907 -0.372168
-0.115254 -0.244693 0.331264
0 0.306402 0
0 0.0720773 0
0 -0.272492 0
0 -0.200278 0
0 0.178266 0
-0.327574 -0.162248 0.443389
-0.481689 -0.0381667 0.104302
0.100951 0.144291 -0.394318
0.529183 0.106052 -0.289818
0.148017 -0.0943963 0.257965
-0.154115 -0.382736 0.208603
-0.226622 -0.0900338 0.0490714
0.0474949 0.340377 -0.185517
0.248968 0.250173 -0.136352
0.0696382 -0.222677 0.121366
0.255066 -0.0178201 -0.345246
0.375068 -0.00419196 -0.0812149
-0.0786058 0.0158479 0.307037
-0.41205 0.011648 0.225668
-0.115254 -0.0103678 -0.200865
0.274117 0.374352 -0.371033
0.403083 0.0880617 -0.0872809
-0.084477 -0.332921 0.32997
-0.442827 -0.244693 0.242523
-0.123862 0.217799 -0.215868
