# vtk DataFile Version 3.0
Velocity field
ASCII
DATASET STRUCTURED_POINTS
DIMENSIONS 8 8 8
SPACING 0.8 0.8 0.8
ORIGIN 0 0 0
POINT_DATA 512
VECTORS velocity float
0 0.3115 0
0 0.217024 0
0 -0.00909564 0
0 -0.229698 0
0 -0.310968 0
0 -0.20361 0
0 0.027256 0
0 0.241588 0
0 0.122548 0.317932
0 0.0853801 0.234848
0 -0.00357835 -0.00984267
0 -0.0903662 -0.248563
0 -0.122339 -0.336508
0 -0.0801028 -0.220332
0 0.0107229 0.0294945
0 0.0950441 0.246577
0 -0.140739 0.44301
0 -0.0980541 0.32724
0 0.00410953 -0.0137149
0 0.10378 -0.346351
0 0.140499 -0.468895
0 0.0919934 -0.307014
0 -0.0123146 0.041098
0 -0.109153 0.343584
0 -0.318656 0.299365
0 -0.22201 0.221133
0 0.00930462 -0.00926787
0 0.234975 -0.234047
0 0.318113 -0.316856
0 0.208288 -0.207465
0 -0.0278822 0.027772
0 -0.247139 0.232177
0 -0.30328 -0.0258714
0 -0.211298 -0.0191105
0 0.00885565 0.000800938
0 0.223637 0.0202266
0 0.302763 0.027383
0 0.198237 0.0179293
0 -0.0265368 -0.00240009
0 -0.235214 -0.020065
0 -0.103939 -0.335414
0 -0.0724149 -0.247762
0 0.00303497 0.0103839
0 0.0766439 0.262231
0 0.103762 0.355012
0 0.067939 0.232448
0 -0.00909456 -0.0311163
0 -0.0806114 -0.260136
0 0.158451 -0.4415
0 0.110394 -0.326124
0 -0.00462669 0.0136681
0 -0.116841 0.34517
0 -0.158181 0.467296
0 -0.10357 0.305967
0 0.0138643 -0.0409579
0 0.122889 -0.342412
0 0.324726 -0.279777
0 0.226239 -0.194923
0 -0.00948186 0.00816936
0 -0.239451 0.206306
0 -0.324172 0.2793
0 -0.212255 0.182874
0 0.0284133 -0.0244803
0 0.251846 -0.216985
0 0.217024 0
0 0.164161 0
0 -0.0068801 0
0 -0.173747 0
0 -0.235222 0
0 -0.154014 0
0 0.0206169 0
0 0.168316 0
0.0677727 0.0853801 0.31403
0.166579 0.061185 0.22475
0.16253 -0.00256536 -0.00942325
0.0598769 -0.0647811 -0.237958
-0.0790969 -0.0877017 -0.32215
-0.170092 -0.0574235 -0.210931
-0.157898 0.00767027 0.0281768
-0.0486283 0.0662178 0.243551
0.0944354 -0.0980541 0.437574
0.232114 -0.0701146 0.313171
0.226471 0.00293965 -0.0131304
0.0834329 0.0742334 -0.331572
-0.110215 0.100498 -0.44889
-0.237009 0.065802 -0.293915
-0.220019 -0.00879076 0.0392619
-0.0677593 -0.0760474 0.339367
0.0638149 -0.22201 0.295691
0.15685 -0.158752 0.211625
0.153039 0.00665602 -0.00887289
0.0563798 0.168079 -0.224061
-0.0744781 0.227547 -0.303338
-0.160158 0.14899 -0.198612
-0.148678 -0.0199039 0.0265313
-0.0457884 -0.172183 0.229328
-0.00551494 -0.211298 -0.0255539
-0.0135552 -0.151093 -0.0182888
-0.0132257 0.00633482 0.0007668
-0.0048724 0.159968 0.0193636
0.00643643 0.216569 0.0262145
0.0138411 0.141801 0.0171643
0.0128488 -0.0189435 -0.00229286
0.00395708 -0.163875 -0.0198187
-0.0714995 -0.0724149 -0.331298
-0.175737 -0.0517821 -0.237109
-0.171468 0.00217106 0.00994136
-0.0631684 0.0548243 0.251039
0.0834466 0.0742217 0.339865
0.179443 0.0485971 0.22253
0.166582 -0.00649227 -0.0297263
0.0513023 -0.0561625 -0.256943
-0.0941134 0.110394 -0.436081
-0.231288 0.0789026 -0.312057
-0.225666 -0.00330811 0.0130836
-0.083136 -0.0835371 0.330392
0.109823 -0.113093 0.447291
0.236164 -0.0740496 0.292869
0.219237 0.00989299 -0.0391228
0.0675282 0.0856176 -0.33821
-0.0596394 0.226239 -0.276344
-0.142742 0.157622 -0.19253
-0.139259 -0.00660607 0.00806911
-0.0513034 -0.166827 0.203774
0.067772 -0.225853 0.275872
0.145738 -0.14788 0.18063
0.135301 0.0197957 -0.0241798
0.0427925 0.175463 -0.214323
0 -0.00909564 0
0 -0.0068801 0
0 0.000288351 0
0 0.0072819 0
0 0.00985834 0
0 0.00645485 0
0 -0.00086407 0
0 -0.00705427 0
0.0944354 -0.00357835 0.119642
0.232114 -0.00256536 0.085582
0.226471 0.000107562 -0.00358822
0.0834329 0.00271618 -0.0906097
-0.110215 0.0036772 -0.122669
-0.237009 0.0024077 -0.0803192
-0.220019 -0.000321586 0.0107297
-0.0677593 -0.00277524 0.0927902
0.131588 0.00410953 0.166711
0.323429 0.00293965 0.119251
0.315567 -0.000123251 -0.00499984
0.116257 -0.00311237 -0.126256
-0.153576 -0.00421359 -0.17093
-0.33025 -0.0027589 -0.111919
-0.306578 0.000368553 0.0149509
-0.0944167 0.00318721 0.129295
0.0889205 0.00930462 0.112655
0.218558 0.00665602 0.0805836
0.213246 -0.000279068 -0.00337867
0.07856 -0.00704711 -0.0853192
-0.103778 -0.00954053 -0.115506
-0.223168 -0.00624667 -0.0756291
-0.207169 0.000834478 0.010103
-0.0638022 0.00721634 0.0873713
-0.0076846 0.00885565 -0.00973575
-0.018888 0.00633482 -0.00696416
-0.0184289 -0.000265602 0.000291988
-0.00678928 -0.00670708 0.00737336
0.00896866 -0.00908014 0.0099821
0.0192864 -0.00594527 0.00653589
0.0179038 0.000794209 -0.000873118
0.00551385 0.00686814 -0.00755072
-0.0996283 0.00303497 -0.126221
-0.244874 0.00217106 -0.0902871
-0.238926 -9.1026e-05 0.00378553
-0.0880196 -0.00229863 0.0955916
0.116276 -0.00311188 0.129414
0.250038 -0.00203754 0.0847362
0.232118 0.00027219 -0.0113196
0.0714853 0.00235382 -0.0978926
-0.131139 -0.00462669 -0.166142
-0.322278 -0.00330811 -0.118826
-0.314444 0.000138698 0.00498206
-0.115843 0.00350245 0.125807
0.153029 0.00474168 0.170321
0.329075 0.00310465 0.11152
0.305487 -0.000414765 -0.0148978
0.0940947 -0.0035883 -0.128854
-0.0831023 -0.00948186 -0.105284
-0.198898 -0.00660607 -0.0733519
-0.194045 0.000276866 0.00307424
-0.0714868 0.00699186 0.0776356
0.0944344 0.00946569 0.105104
0.203073 0.00619775 0.0688181
0.18853 -0.000829655 -0.00921224
0.0596276 -0.0073538 -0.0816545
0 -0.229698 0
0 -0.173747 0
0 0.0072819 0
0 0.183894 0
0 0.248959 0
0 0.163008 0
0 -0.0218209 0
0 -0.178146 0
0.0638149 -0.0903662 -0.147319
0.15685 -0.0647812 -0.105379
0.153039 0.00271618 0.00441824
0.0563798 0.0685891 0.111571
-0.0744781 0.0928569 0.151046
-0.160158 0.0607991 0.098898
-0.148678 -0.0081208 -0.0132116
-0.0457884 -0.0700849 -0.114256
0.0889205 0.10378 -0.205277
0.218558 0.0742334 -0.146836
0.213246 -0.00311237 0.00615637
0.07856 -0.0785947 0.155465
-0.103778 -0.106403 0.210469
-0.223168 -0.0696686 0.137806
-0.207169 0.00930688 -0.0184092
-0.0638022 0.0804885 -0.159206
0.0600881 0.234975 -0.138716
0.147691 0.168079 -0.0992241
0.144101 -0.00704711 0.00416018
0.0530873 -0.177953 0.105055
-0.0701284 -0.24092 0.142225
-0.150806 -0.157743 0.0931225
-0.139995 0.0210726 -0.01244
-0.0431144 0.182239 -0.107583
-0.00519288 0.223637 0.011988
-0.0127635 0.159968 0.00857509
-0.0124532 -0.00670708 -0.000359527
-0.00458787 -0.169369 -0.00907895
0.0060605 -0.229294 -0.0122911
0.0130327 -0.150133 -0.00804773
0.0120984 0.0200558 0.00107508
0.00372599 0.173445 0.00929747
-0.0673239 0.0766439 0.15542
-0.165475 0.0548243 0.111173
-0.161453 -0.00229863 -0.00466119
-0.0594803 -0.0580456 -0.117706
0.0785729 -0.0785824 -0.159351
0.168966 -0.0514527 -0.104337
0.156852 0.00687347 0.0139382
0.0483063 0.0594423 0.120539
-0.0886172 -0.116841 0.204577
-0.217781 -0.0835371 0.146314
-0.212487 0.00350245 -0.00613447
-0.0782805 0.0884441 -0.154911
0.103409 0.119738 -0.20972
0.222373 0.0783993 -0.137316
0.206432 -0.0104738 0.0183441
0.0635846 -0.0906175 0.158663
-0.0561565 -0.239451 0.12964
-0.134406 -0.166827 0.0903209
-0.131126 0.00699186 -0.00378542
-0.0483073 0.17657 -0.0955956
0.0638141 0.239043 -0.129419
0.137227 0.156516 -0.0847382
0.127399 -0.0209518 0.0113434
0.0402934 -0.18571 0.100544
0 -0.310968 0
0 -0.235222 0
0 0.00985834 0
0 0.248959 0
0 0.337044 0
0 0.220683 0
0 -0.0295414 0
0 -0.241176 0
-0.00551494 -0.122339 -0.324919
-0.0135552 -0.0877016 -0.232416
-0.0132257 0.0036772 0.00974459
-0.0048724 0.0928569 0.24607
0.00643643 0.125711 0.333137
0.0138411 0.0823109 0.218125
0.0128488 -0.0109941 -0.0291388
0.00395708 -0.094882 -0.251996
-0.0076846 0.140499 -0.452746
-0.018888 0.100498 -0.323851
-0.0184289 -0.00421359 0.0135783
-0.00678928 -0.106403 0.342882
0.00896866 -0.144051 0.464199
0.0192864 -0.0943181 0.30394
0.0179038 0.0125997 -0.0406023
0.00551385 0.108966 -0.351134
-0.00519288 0.318113 -0.305944
-0.0127635 0.227547 -0.218844
-0.0124532 -0.00954053 0.00917554
-0.00458787 -0.24092 0.231703
0.0060605 -0.326159 0.31368
0.0130327 -0.213556 0.205386
0.0120984 0.0285284 -0.0274371
0.00372599 0.246717 -0.23728
0.000448773 0.302763 0.02644
0.00110304 0.216569 0.0189127
0.00107623 -0.00908014 -0.000792949
0.000396483 -0.229294 -0.0200239
-0.000523759 -0.310423 -0.0271088
-0.0011263 -0.20325 -0.0177497
-0.00104556 0.0271519 0.00237114
-0.000322004 0.234813 0.0205059
0.0058182 0.103762 0.342786
0.0143006 0.0742217 0.245195
0.013953 -0.00311188 -0.0102804
0.00514031 -0.0785824 -0.259601
-0.0067904 -0.106387 -0.351452
-0.0146022 -0.0696576 -0.23012
-0.0135554 0.00930539 0.0307408
-0.00417468 0.0804739 0.265853
0.00765839 -0.158181 0.451202
0.0188208 -0.113093 0.3227
0.0183634 0.00474168 -0.01353
0.00676513 0.119738 -0.341661
-0.00893676 0.162103 -0.462548
-0.0192177 0.106139 -0.302858
-0.0178402 -0.0141796 0.0404585
-0.00549505 -0.122679 0.349937
0.0048531 -0.324172 0.285926
0.0116155 -0.225853 0.199206
0.0113321 0.00946569 -0.0083489
0.00417476 0.239043 -0.21084
-0.00551488 0.32362 -0.285438
-0.0118593 0.211893 -0.186893
-0.01101 -0.0283648 0.0250182
-0.0034822 -0.251417 0.221754
0 -0.20361 0
0 -0.154014 0
0 0.00645485 0
0 0.163008 0
0 0.220683 0
0 0.144494 0
0 -0.0193426 0
0 -0.157913 0
-0.0714995 -0.0801028 -0.305427
-0.175737 -0.0574235 -0.218475
-0.171468 0.0024077 0.00916004
-0.0631684 0.0607991 0.231311
0.0834466 0.0823109 0.313151
0.179443 0.053894 0.205039
0.166582 -0.00719849 -0.0273908
0.0513023 -0.062125 -0.236879
-0.0996283 0.0919934 -0.425586
-0.244874 0.065802 -0.304425
-0.238926 -0.0027589 0.0127636
-0.0880197 -0.0696686 0.322311
0.116276 -0.0943181 0.436351
0.250038 -0.0617554 0.285706
0.232118 0.00824982 -0.0381666
0.0714853 0.0713469 -0.33007
-0.0673239 0.208288 -0.28759
-0.165475 0.14899 -0.205715
-0.161453 -0.00624667 0.00862505
-0.0594803 -0.157743 0.217803
0.0785729 -0.213556 0.294864
0.168966 -0.139828 0.193064
0.156852 0.0186793 -0.0257911
0.0483063 0.161541 -0.223045
0.0058182 0.198237 0.0248538
0.0143006 0.141801 0.0177782
0.013953 -0.00594527 -0.00074538
0.00514031 -0.150133 -0.0188227
-0.0067904 -0.20325 -0.0254823
-0.0146022 -0.13308 -0.0166848
-0.0135554 0.017778 0.0022289
-0.00417468 0.153746 0.0192758
0.0754311 0.067939 0.322222
0.1854 0.0485971 0.230487
0.180894 -0.00203754 -0.00966375
0.0666419 -0.0514527 -0.244029
-0.0880341 -0.0696576 -0.330371
-0.189311 -0.0456088 -0.216315
-0.17574 0.00609277 0.0288969
-0.0541233 0.0526911 0.249904
0.0992885 -0.10357 0.424134
0.244003 -0.0740496 0.303342
0.238074 0.00310465 -0.0127182
0.0877066 0.0783993 -0.321165
-0.115862 0.106139 -0.434799
-0.249148 0.0694955 -0.284689
-0.231292 -0.00928425 0.0380314
-0.0712415 -0.0803256 0.328944
0.0629189 -0.212255 0.268773
0.150591 -0.14788 0.187256
0.146916 0.00619775 -0.00784804
0.0541245 0.156516 -0.198191
-0.0714987 0.211893 -0.268314
-0.153752 0.138739 -0.175682
-0.142741 -0.0185722 0.0235174
-0.0451455 -0.164618 0.208451
0 0.027256 0
0 0.0206169 0
0 -0.00086407 0
0 -0.0218209 0
0 -0.0295414 0
0 -0.0193426 0
0 0.00258927 0
0 0.0211388 0
-0.0941134 0.0107229 -0.100667
-0.231288 0.00767012 -0.0720347
-0.225666 -0.000321579 0.00302024
-0.083136 -0.00812063 0.0762682
0.109823 -0.0109939 0.103252
0.236164 -0.00719834 0.0676055
0.219237 0.000961716 -0.00903087
0.0675282 0.00831628 -0.0780738
-0.131139 -0.0123146 -0.140271
-0.322278 -0.00879058 -0.100374
-0.314444 0.000368545 0.00420843
-0.115843 0.00930668 0.106272
0.153029 0.0125995 0.143873
0.329075 0.00824964 0.0942029
0.305487 -0.00110232 -0.0125837
0.0940947 -0.00955076 -0.108789
-0.0886172 -0.0278822 -0.094788
-0.217781 -0.0199035 -0.067828
-0.212487 0.00083446 0.00284386
-0.0782806 0.0210722 0.0718139
0.103409 0.0285278 0.0972223
0.222373 0.0186789 0.0636575
0.206432 -0.00249585 -0.00850346
0.0635846 -0.0216244 -0.0735143
0.00765839 -0.0265368 0.00819167
0.0188208 -0.0189431 0.00586177
0.0183634 0.000794192 -0.000245769
0.00676513 0.0200553 -0.0062062
-0.00893676 0.0271513 -0.00840206
-0.0192177 0.0177776 -0.00550133
-0.0178402 -0.00237544 0.000734882
-0.00549505 -0.020581 0.00635318
0.0992885 -0.00909456 0.106202
0.244003 -0.00649213 0.075996
0.238074 0.000272184 -0.0031863
0.0877067 0.00687333 -0.0804617
-0.115862 0.00930519 -0.10893
-0.249148 0.00609264 -0.0713232
-0.231292 -0.000814101 0.00952747
-0.0712415 -0.00705343 0.082367
0.130692 0.0138643 0.139792
0.321132 0.00989278 0.100017
0.313326 -0.000414756 -0.00419345
0.115431 -0.0104736 -0.105894
-0.152484 -0.0141793 -0.143361
-0.327904 -0.00928405 -0.0938672
-0.304399 0.00124058 0.0125391
-0.0937738 0.0107527 0.108418
0.0828189 0.0284133 0.0885859
0.19822 0.0197957 0.0617184
0.193383 -0.000829655 -0.00258667
0.071243 -0.0209518 -0.0653227
-0.0941123 -0.0283648 -0.0884349
-0.20238 -0.0185722 -0.0579036
-0.187887 0.00248614 0.00775119
-0.0594242 0.0220364 0.0687042
0 0.241588 0
0 0.168316 0
0 -0.00705427 0
0 -0.178146 0
0 -0.241176 0
0 -0.157913 0
0 0.0211388 0
0 0.187368 0
-0.0596394 0.0950441 0.165156
-0.142742 0.0662178 0.115065
-0.139259 -0.00277524 -0.00482248
-0.0513034 -0.0700849 -0.121785
0.067772 -0.094882 -0.164874
0.145738 -0.062125 -0.107953
0.135301 0.00831628 0.014451
0.0427925 0.073713 0.128089
-0.0831023 -0.109153 0.230131
-0.198898 -0.0760474 0.160334
-0.194045 0.00318721 -0.00671971
-0.0714868 0.0804885 -0.169697
0.0944344 0.108966 -0.229738
0.203073 0.0713469 -0.150423
0.18853 -0.00955076 0.0201362
0.0596276 -0.084655 0.178481
-0.0561565 -0.247139 0.155511
-0.134406 -0.172183 0.108346
-0.131126 0.00721634 -0.00454085
-0.0483073 0.182239 -0.114673
0.0638141 0.246717 -0.155246
0.137227 0.161541 -0.101649
0.127399 -0.0216244 0.0136071
0.0402934 -0.191672 0.120609
0.0048531 -0.235214 -0.0134394
0.0116155 -0.163875 -0.00936333
0.0113321 0.00686814 0.000392425
0.00417476 0.173445 0.00991015
-0.00551488 0.234813 0.0134165
-0.0118593 0.153746 0.00878459
-0.01101 -0.020581 -0.00117594
-0.0034822 -0.182424 -0.0104232
0.0629189 -0.0806114 -0.174238
0.150591 -0.0561625 -0.121393
0.146916 0.00235382 0.00508766
0.0541245 0.0594423 0.128482
-0.0714987 0.080474 0.173941
-0.153752 0.0526911 0.113889
-0.142741 -0.00705343 -0.0152457
-0.0451455 -0.0625194 -0.135133
0.0828189 0.122889 -0.229346
0.19822 0.0856176 -0.159787
0.193383 -0.0035883 0.00669679
0.071243 -0.0906175 0.169118
-0.0941123 -0.122679 0.228955
-0.20238 -0.0803256 0.14991
-0.187887 0.0107527 -0.0200676
-0.0594242 0.0953085 -0.177873
0.0524821 0.251846 -0.145336
0.125611 0.175463 -0.101256
0.122546 -0.0073538 0.00424374
0.0451465 -0.18571 0.10717
-0.0596387 -0.251417 0.145088
-0.128248 -0.164618 0.0949978
-0.119064 0.0220364 -0.0127168
-0.037657 0.195324 -0.112717
