# vtk DataFile Version 3.0
Velocity field
ASCII
DATASET STRUCTURED_POINTS
DIMENSIONS 5 5 5
SPACING 1.33333 1.33333 1.33333
ORIGIN 0 0 0
POINT_DATA 125
VECTORS velocity float
0 0.544611 0
0 0.128113 0
0 -0.484337 0
0 -0.355982 0
0 0.316857 0
0 -0.288385 0.945827
0 -0.067839 0.256418
0 0.256469 -0.969402
0 0.188501 -0.712498
0 -0.167784 0.550285
0 -0.680289 0.444988
0 -0.16003 0.120638
0 0.604999 -0.456079
0 0.444667 -0.335213
0 -0.395795 0.258895
0 -0.0316741 -0.736471
0 -0.00745094 -0.199661
0 0.0281686 0.754828
0 0.0207036 0.554789
0 -0.0184281 -0.428481
0 0.665387 -0.791479
0 0.156524 -0.186186
0 -0.591747 0.703883
0 -0.434926 0.517345
0 0.387125 -0.460485
0 0.128113 0
0 0.0383477 0
0 -0.144975 0
0 -0.106555 0
0 0.0745366 0
0.40481 -0.067839 0.332158
0.634483 -0.0168799 0.0834087
-0.133014 0.0639253 -0.315959
-0.697168 0.0470007 -0.232318
-0.182917 -0.039469 0.193251
0.190453 -0.16003 0.156272
0.29851 -0.0399872 0.039242
-0.0625804 0.15145 -0.148651
-0.328001 0.111355 -0.109301
-0.0860578 -0.0931057 0.0909196
-0.315207 -0.00745094 -0.258636
-0.493804 -0.00187788 -0.0649154
0.103522 0.00711522 0.245899
0.542591 0.00523196 0.180805
0.142429 -0.00433498 -0.150475
-0.33875 0.156524 -0.277954
-0.498124 0.0368203 -0.0653851
0.104395 -0.139201 0.247192
0.547239 -0.102311 0.181683
0.153067 0.0910663 -0.161714
0 -0.484337 0
0 -0.144975 0
0 0.548086 0
0 0.402836 0
0 -0.281789 0
0.190453 0.256469 -0.789555
0.29851 0.0639253 -0.19765
-0.0625804 -0.242108 0.748659
-0.328001 -0.178012 0.55047
-0.0860578 0.149214 -0.459366
0.0896035 0.604999 -0.371466
0.140441 0.15145 -0.0929899
-0.0294425 -0.573662 0.352227
-0.154317 -0.421799 0.258983
-0.0404881 0.351991 -0.21612
-0.148297 0.0281686 0.614789
-0.232324 0.00711522 0.15383
0.0487047 -0.0269623 -0.582666
0.255276 -0.0198263 -0.428417
0.0670092 0.0163886 0.357687
-0.159374 -0.591747 0.660709
-0.234355 -0.139201 0.155424
0.0491155 0.526256 -0.587586
0.257462 0.386791 -0.431868
0.0720142 -0.34428 0.384403
0 -0.355982 0
0 -0.106555 0
0 0.402836 0
0 0.296079 0
0 -0.207111 0
-0.315207 0.188501 -0.703624
-0.493804 0.047001 -0.176189
0.103522 -0.178013 0.667379
0.542591 -0.130885 0.490708
0.142429 0.109671 -0.409371
-0.148297 0.444667 -0.331037
-0.232324 0.111356 -0.0828933
0.0487047 -0.421802 0.313988
0.255276 -0.310141 0.230867
0.0670092 0.258709 -0.192599
0.245437 0.0207036 0.547879
0.384321 0.005232 0.137127
-0.0805689 -0.0198265 -0.519406
-0.422288 -0.0145792 -0.381905
-0.110903 0.0120454 0.318758
0.263769 -0.434926 0.588801
0.387866 -0.102311 0.138508
-0.0812878 0.386791 -0.523636
-0.426109 0.284287 -0.384866
-0.119186 -0.253042 0.342566
0 0.316857 0
0 0.0745366 0
0 -0.281789 0
0 -0.207111 0
0 0.184348 0
-0.33875 -0.167784 0.458517
-0.498124 -0.039469 0.10786
0.104395 0.149214 -0.407771
0.547239 0.109671 -0.299707
0.153067 -0.0976171 0.266767
-0.159374 -0.395795 0.215721
-0.234355 -0.0931058 0.0507456
0.0491154 0.351991 -0.191846
0.257462 0.258709 -0.141005
0.0720142 -0.230275 0.125507
0.263769 -0.0184281 -0.357026
0.387865 -0.00433499 -0.0839859
-0.0812878 0.0163886 0.317513
-0.426109 0.0120454 0.233368
-0.119186 -0.0107215 -0.207719
0.28347 0.387125 -0.383693
0.416836 0.0910663 -0.0902589
-0.0873594 -0.34428 0.341228
-0.457936 -0.253042 0.250798
-0.128088 0.225231 -0.223234
