# vtk DataFile Version 3.0
Velocity field
ASCII
DATASET STRUCTURED_POINTS
DIMENSIONS 10 10 10
SPACING 0.631579 0.631579 0.631579
ORIGIN 0 0 0
POINT_DATA 1000
VECTORS velocity float
0 0.534268 0
0 0.431206 0
0 0.161781 0
0 -0.17006 0
0 -0.436291 0
0 -0.534197 0
0 -0.426007 0
0 -0.153459 0
0 0.178294 0
0 0.44126 0
0 0.328144 0.418505
0 0.264844 0.351018
0 0.0993648 0.131696
0 -0.10445 -0.138435
0 -0.267967 -0.355157
0 -0.3281 -0.434857
0 -0.26165 -0.346786
0 -0.0942536 -0.124922
0 0.109507 0.145138
0 0.271018 0.345649
0 -0.0045813 0.675548
0 -0.00369755 0.566611
0 -0.00138726 0.212583
0 0.00145825 -0.223461
0 0.00374115 -0.573292
0 0.00458069 -0.701943
0 0.00365297 -0.559779
0 0.0013159 -0.201648
0 -0.00152885 0.23428
0 -0.00378376 0.557944
0 -0.335539 0.671959
0 -0.270812 0.563601
0 -0.101604 0.211453
0 0.106804 -0.222274
0 0.274006 -0.570247
0 0.335494 -0.698214
0 0.267547 -0.556805
0 0.0963777 -0.200576
0 -0.111975 0.233036
0 -0.277126 0.55498
0 -0.537043 0.409124
0 -0.433445 0.343149
0 -0.162621 0.128744
0 0.170943 -0.135332
0 0.438557 -0.347196
0 0.536972 -0.425109
0 0.428219 -0.339012
0 0.154256 -0.122121
0 -0.17922 0.141884
0 -0.443551 0.337901
0 -0.531352 -0.0115547
0 -0.428852 -0.00969145
0 -0.160898 -0.00363607
0 0.169132 0.00382213
0 0.433909 0.00980573
0 0.531281 0.0120062
0 0.423681 0.0095746
0 0.152622 0.00344904
0 -0.17732 -0.00400719
0 -0.438851 -0.00954322
0 -0.320661 -0.427775
0 -0.258805 -0.358793
0 -0.0970991 -0.134613
0 0.102068 0.141502
0 0.261857 0.363024
0 0.320619 0.444489
0 0.255684 0.354467
0 0.0921044 0.127689
0 -0.10701 -0.148353
0 -0.264839 -0.353305
0 0.0137428 -0.678957
0 0.0110918 -0.56947
0 0.00416145 -0.213655
0 -0.0043744 0.224589
0 -0.0112226 0.576185
0 -0.013741 0.705485
0 -0.010958 0.562603
0 -0.00394739 0.202665
0 0.00458619 -0.235463
0 0.0113504 -0.56076
0 0.342845 -0.668192
0 0.276709 -0.560441
0 0.103816 -0.210268
0 -0.109129 0.221028
0 -0.279972 0.56705
0 -0.342799 0.694299
0 -0.273372 0.553683
0 -0.0984762 0.199452
0 0.114413 -0.231729
0 0.28316 -0.551869
0 0.539675 -0.399633
0 0.435569 -0.322543
0 0.163418 -0.121013
0 -0.171781 0.127205
0 -0.440706 0.326346
0 -0.539603 0.39958
0 -0.430317 0.318654
0 -0.155012 0.114788
0 0.180098 -0.133364
0 0.445725 -0.330063
0 0.431206 0
0 0.366129 0
0 0.137365 0
0 -0.144395 0
0 -0.370446 0
0 -0.453577 0
0 -0.361714 0
0 -0.130299 0
0 0.151386 0
0 0.356139 0
0.0608501 0.264844 0.463167
0.16633 0.223276 0.390617
0.204946 0.0838712 0.146737
0.164426 -0.0881689 -0.154256
0.0604678 -0.226198 -0.395746
-0.0668193 -0.276958 -0.484555
-0.168327 -0.220866 -0.386417
-0.204892 -0.0795662 -0.139206
-0.162348 0.0922048 0.161303
-0.0547465 0.218738 0.382536
0.0982237 -0.00369755 0.747641
0.268489 -0.00310537 0.630529
0.330823 -0.00116638 0.236862
0.265415 0.00122615 -0.249
0.0976066 0.0031457 -0.63881
-0.107859 0.00385158 -0.782163
-0.271711 0.00307153 -0.623751
-0.330735 0.00110651 -0.224705
-0.262061 -0.00128253 0.260375
-0.0883714 -0.00305386 0.617487
0.0977019 -0.270812 0.74367
0.267063 -0.228042 0.627179
0.329065 -0.0856606 0.235604
0.264005 0.0900504 -0.247677
0.097088 0.231025 -0.635416
-0.107287 0.282867 -0.778008
-0.270268 0.225579 -0.620437
-0.328978 0.0812641 -0.223512
-0.260669 -0.0941731 0.258992
-0.0879019 -0.223667 0.614207
0.059486 -0.433445 0.452785
0.162602 -0.36499 0.381859
0.200352 -0.137103 0.143448
0.160741 0.144129 -0.150798
0.0591121 0.369763 -0.386874
-0.0653216 0.452741 -0.473692
-0.164554 0.361049 -0.377755
-0.200299 0.130066 -0.136085
-0.158709 -0.150728 0.157687
-0.0535193 -0.357988 0.373961
-0.00168004 -0.428852 -0.0127879
-0.00459231 -0.361123 -0.0107847
-0.00565848 -0.135651 -0.00405136
-0.00453971 0.142602 0.00425895
-0.00166949 0.365846 0.0109264
0.00184484 0.447943 0.0133783
0.00464743 0.357222 0.0106688
0.00565698 0.128688 0.00384341
0.00448237 -0.149131 -0.0044535
0.00151153 -0.354195 -0.0105617
-0.0621979 -0.258805 -0.473427
-0.170015 -0.21793 -0.399269
-0.209485 -0.081863 -0.149987
-0.168068 0.0860572 0.157673
-0.0618071 0.220781 0.404512
0.0682992 0.270326 0.495287
0.172055 0.215577 0.394977
0.20943 0.0776607 0.142289
0.165944 -0.0899981 -0.164877
0.0559592 -0.21375 -0.39101
-0.0987194 0.0110918 -0.751414
-0.269841 0.00933347 -0.633704
-0.332488 0.00350586 -0.238055
-0.266751 -0.00368548 0.250253
-0.0980982 -0.00945514 0.642027
0.108402 -0.0115769 0.786103
0.27308 -0.0092323 0.626892
0.3324 -0.0033259 0.225836
0.26338 0.00385453 -0.261686
0.0888173 0.00916085 -0.620604
-0.0971542 0.276709 -0.7395
-0.265397 0.232647 -0.623286
-0.327011 0.087385 -0.234136
-0.262357 -0.0918622 0.246132
-0.0964817 -0.235673 0.631455
0.106616 -0.28856 0.773157
0.268581 -0.230118 0.616568
0.326924 -0.082899 0.222118
0.259043 0.0960817 -0.257391
0.0874091 0.228537 -0.610764
-0.0581062 0.435569 -0.442282
-0.151901 0.351547 -0.356964
-0.187091 0.131894 -0.133927
-0.1501 -0.138644 0.14078
-0.0551993 -0.355692 0.361173
0.0609975 -0.435512 0.442223
0.153661 -0.347308 0.35266
0.187041 -0.12511 0.127038
0.148259 0.145356 -0.147596
0.0522778 0.359743 -0.365287
0 0.161781 0
0 0.137365 0
0 0.0515372 0
0 -0.0541745 0
0 -0.138985 0
0 -0.170174 0
0 -0.135709 0
0 -0.0488862 0
0 0.0567974 0
0 0.133617 0
0.0982237 0.0993648 0.329136
0.268489 0.0838712 0.277512
0.330823 0.0315071 0.104249
0.265415 -0.0331215 -0.109591
0.0976066 -0.0849735 -0.281158
-0.107859 -0.104042 -0.344251
-0.271711 -0.0829707 -0.27453
-0.330735 -0.02989 -0.0988994
-0.262061 0.0346339 0.114596
-0.0883714 0.0820667 0.271838
0.158552 -0.00138726 0.531289
0.433393 -0.00116638 0.447958
0.534011 -0.000438118 0.168279
0.428432 0.000460564 -0.176902
0.157556 0.00118158 -0.453843
-0.174105 0.00144675 -0.555689
-0.438595 0.00115374 -0.443146
-0.533869 0.000415628 -0.159642
-0.423017 -0.0004817 0.184981
-0.142648 -0.00114576 0.438799
0.15771 -0.101604 0.528467
0.431091 -0.0856606 0.445578
0.531174 -0.032179 0.167385
0.426156 0.033828 -0.175962
0.156719 0.0867859 -0.451433
-0.17318 0.106262 -0.552737
-0.436265 0.0847403 -0.440791
-0.531033 0.0305275 -0.158794
-0.420769 -0.0353731 0.183998
-0.141891 -0.0839162 0.436468
0.0960219 -0.162621 0.321758
0.262471 -0.137103 0.27129
0.323408 -0.0515039 0.101913
0.259466 0.0541431 -0.107135
0.0954184 0.138905 -0.274855
-0.105441 0.170076 -0.336535
-0.265621 0.13563 -0.268377
-0.323322 0.0488606 -0.0966821
-0.256186 -0.0566161 0.112028
-0.0863904 -0.134311 0.265745
-0.00271191 -0.160898 -0.00908731
-0.00741286 -0.135651 -0.007662
-0.00913385 -0.0509581 -0.00287829
-0.00732798 0.0535695 0.00302577
-0.00269487 0.137432 0.00776269
0.00297794 0.168273 0.00950465
0.00750185 0.134193 0.00757966
0.00913143 0.0483428 0.00273055
0.00723542 -0.0560161 -0.00316396
0.00243989 -0.132888 -0.00750534
-0.100399 -0.0970991 -0.336427
-0.274436 -0.081863 -0.283659
-0.33815 -0.0307523 -0.106559
-0.271293 0.0323282 0.112019
-0.0997686 0.0829382 0.287387
0.110248 0.10155 0.351877
0.277731 0.0809835 0.280612
0.338061 0.0291741 0.10109
0.267866 -0.0338047 -0.117135
0.0903288 -0.0801955 -0.27786
-0.159352 0.00416145 -0.533971
-0.435575 0.00350586 -0.450213
-0.5367 0.00131695 -0.169126
-0.430589 -0.00138443 0.177793
-0.158349 -0.00355176 0.456128
0.174982 -0.0043488 0.558487
0.440803 -0.00346804 0.445377
0.536557 -0.00124935 0.160446
0.425147 0.00144778 -0.185912
0.143368 0.00343699 -0.441014
-0.156826 0.103816 -0.525504
-0.428403 0.087385 -0.44281
-0.527858 0.0328244 -0.166341
-0.423494 -0.0345064 0.174864
-0.15574 -0.0885262 0.448617
0.172099 -0.108392 0.549288
0.433542 -0.0864396 0.438042
0.527717 -0.0311396 0.157803
0.418145 0.0360877 -0.182861
0.141095 0.0857433 -0.434021
-0.0937945 0.163418 -0.314295
-0.245197 0.131894 -0.253666
-0.302001 0.0494845 -0.0951712
-0.24229 -0.0520168 0.100041
-0.0891024 -0.13345 0.256657
0.0984618 -0.163397 0.314253
0.248039 -0.130304 0.250607
0.30192 -0.0469391 0.0902757
0.239319 0.0545352 -0.104885
0.0843865 0.134969 -0.25958
0 -0.17006 0
0 -0.144395 0
0 -0.0541745 0
0 0.0569468 0
0 0.146098 0
0 0.178883 0
0 0.142654 0
0 0.0513878 0
0 -0.0597039 0
0 -0.140455 0
0.0977019 -0.10445 0.0681221
0.267063 -0.0881689 0.0574365
0.329065 -0.0331215 0.0215764
0.264005 0.0348188 -0.0226821
0.097088 0.0893282 -0.0581912
-0.107287 0.109374 -0.0712496
-0.270268 0.0872222 -0.0568193
-0.328978 0.0314217 -0.0204691
-0.260669 -0.0364084 0.0237179
-0.0879019 -0.0862663 0.056263
0.15771 0.00145825 0.109962
0.431091 0.00122615 0.0927132
0.531174 0.000460564 0.0348285
0.426156 -0.000484165 -0.0366133
0.156719 -0.00124212 -0.0939316
-0.17318 -0.00152087 -0.115011
-0.436265 -0.00121285 -0.0917174
-0.531033 -0.000436921 -0.033041
-0.420769 0.000506379 0.0382853
-0.141891 0.00120439 0.0908192
0.156872 0.106804 0.109378
0.428801 0.0900504 0.0922206
0.528352 0.033828 0.0346435
0.423891 -0.0355615 -0.0364188
0.155886 -0.0912333 -0.0934326
-0.17226 -0.111707 -0.114399
-0.433948 -0.0890829 -0.0912302
-0.528212 -0.0320918 -0.0328655
-0.418535 0.0371855 0.0380819
-0.141137 0.0882104 0.0903368
0.0955118 0.170943 0.066595
0.261077 0.144129 0.0561488
0.32169 0.0541431 0.0210927
0.258087 -0.0569175 -0.0221736
0.0949116 -0.146023 -0.0568866
-0.104881 -0.178791 -0.0696523
-0.26421 -0.142581 -0.0555457
-0.321604 -0.0513643 -0.0200102
-0.254825 0.0595168 0.0231862
-0.0859315 0.141184 0.0550017
-0.00269751 0.169132 -0.00188082
-0.00737346 0.142602 -0.00158579
-0.00908531 0.0535695 -0.000595715
-0.00728909 -0.0563144 0.000626243
-0.00268056 -0.144475 0.00160663
0.00296212 -0.176896 0.00196717
0.007462 -0.14107 0.00156876
0.00908291 -0.05082 0.000565141
0.00719697 0.0588861 -0.000654842
0.00242693 0.139688 -0.0015534
-0.0998661 0.102068 -0.069631
-0.272978 0.0860572 -0.0587085
-0.336354 0.0323282 -0.0220544
-0.269853 -0.0339847 0.0231845
-0.0992388 -0.087188 0.05948
0.109663 -0.106754 0.0728279
0.276255 -0.085133 0.0580781
0.336264 -0.030669 0.0209225
0.266443 0.0355368 -0.0242433
0.089849 0.0842993 -0.0575092
-0.158506 -0.0043744 -0.110517
-0.433261 -0.00368548 -0.09318
-0.533849 -0.00138443 -0.0350039
-0.428301 0.00145537 0.0367977
-0.157508 0.00373375 0.0944044
0.174052 0.00457164 0.11559
0.438462 0.00364574 0.0921792
0.533707 0.00131337 0.0332074
0.422888 -0.00152196 -0.038478
0.142607 -0.00361288 -0.0912776
-0.155992 -0.109129 -0.108765
-0.426127 -0.0918622 -0.0916485
-0.525054 -0.0345064 -0.0344274
-0.421244 0.0362744 0.0361916
-0.154912 0.0930623 0.0928498
0.171185 0.113946 0.113686
0.431239 0.0908687 0.0906613
0.524914 0.0327351 0.0326605
0.415924 -0.0379365 -0.0378466
0.140346 -0.0901311 -0.0898303
-0.0932963 -0.171781 -0.0650502
-0.243894 -0.138644 -0.0525018
-0.300396 -0.0520168 -0.0196978
-0.241003 0.0546786 0.0207058
-0.088629 0.140279 0.0531209
0.0979387 0.171758 0.0650416
0.246721 0.136972 0.0518688
0.300317 0.0493411 0.0186846
0.238048 -0.057326 -0.0217083
0.0839382 -0.141876 -0.0537259
0 -0.436291 0
0 -0.370447 0
0 -0.138985 0
0 0.146098 0
0 0.374815 0
0 0.458926 0
0 0.36598 0
0 0.131836 0
0 -0.153171 0
0 -0.360338 0
0.059486 -0.267967 -0.219174
0.162602 -0.226198 -0.184794
0.200352 -0.0849735 -0.0694194
0.160741 0.0893282 0.0729767
0.0591121 0.229172 0.187222
-0.0653216 0.280599 0.229236
-0.164554 0.22377 0.182809
-0.200299 0.0806127 0.0658565
-0.158709 -0.0934062 -0.0763093
-0.0535193 -0.221317 -0.181019
0.0960219 0.00374115 -0.353789
0.262471 0.0031457 -0.298293
0.323408 0.00118158 -0.112056
0.259466 -0.00124212 0.117798
0.0954184 -0.00318669 0.302212
-0.105441 -0.00390183 0.370031
-0.265621 -0.00311156 0.29509
-0.323322 -0.00112093 0.106305
-0.256186 0.00129912 -0.123178
-0.0863904 0.00308987 -0.2922
0.0955118 0.274006 -0.35191
0.261077 0.231025 -0.296709
0.32169 0.0867859 -0.111461
0.258087 -0.0912333 0.117173
0.0949116 -0.23406 0.300607
-0.104881 -0.286585 0.368065
-0.26421 -0.228542 0.293522
-0.321604 -0.082332 0.10574
-0.254825 0.0953997 -0.122524
-0.0859315 0.226305 -0.290647
0.0581526 0.438557 -0.214261
0.158956 0.369763 -0.180652
0.195861 0.138905 -0.0678631
0.157137 -0.146023 0.0713409
0.0577873 -0.374622 0.183025
-0.0638571 -0.45869 0.224097
-0.160865 -0.365791 0.178712
-0.195809 -0.131776 0.0643803
-0.155151 0.152691 -0.0745988
-0.0523195 0.36221 -0.176961
-0.00164238 0.433909 0.00605131
-0.00448937 0.365846 0.00510208
-0.00553161 0.137432 0.00191664
-0.00443796 -0.144475 -0.00201485
-0.00163206 -0.370652 -0.00516912
0.00180351 -0.453829 -0.0063291
0.00454324 -0.361916 -0.00504728
0.00553014 -0.130379 -0.00181828
0.00438189 0.151073 0.00210687
0.00147764 0.358371 0.00499786
-0.0608037 0.261857 0.224029
-0.166203 0.220781 0.188887
-0.20479 0.0829382 0.0709571
-0.164301 -0.087188 -0.0745931
-0.0604216 -0.223682 -0.191369
0.0667683 -0.273877 -0.234314
0.168198 -0.218409 -0.186858
0.204736 -0.0786815 -0.0673153
0.162225 0.0911699 0.0779994
0.0547047 0.216271 0.185029
-0.0965065 -0.0112226 0.355575
-0.263792 -0.00945514 0.299795
-0.325036 -0.00355176 0.11262
-0.260772 0.00373375 -0.118391
-0.0958988 0.00957894 -0.303734
0.105972 0.0117286 -0.371894
0.266958 0.00935321 -0.296575
0.32495 0.00336946 -0.10684
0.257477 -0.00390459 0.123798
0.0868264 -0.00926887 0.293674
-0.0949763 -0.279972 0.349937
-0.259448 -0.235673 0.294867
-0.31968 -0.0885262 0.110766
-0.256475 0.0930623 -0.116442
-0.0943188 0.238752 -0.298733
0.104226 0.29233 -0.36577
0.262561 0.233125 -0.291691
0.319596 0.0839822 -0.105081
0.253236 -0.0973264 0.121766
0.0854497 -0.231232 0.289018
-0.0568036 -0.440706 0.209291
-0.148496 -0.355692 0.168918
-0.182897 -0.13345 0.0633752
-0.146735 0.140279 -0.0666183
-0.053962 0.359886 -0.17091
0.0596302 0.440647 -0.209263
0.150217 0.351403 -0.166881
0.182848 0.126585 -0.0601152
0.144936 -0.14707 0.0698437
0.0511059 -0.363985 0.172856
0 -0.534197 0
0 -0.453577 0
0 -0.170174 0
0 0.178883 0
0 0.458926 0
0 0.561912 0
0 0.448108 0
0 0.161421 0
0 -0.187544 0
0 -0.441201 0
-0.00168004 -0.3281 -0.421911
-0.00459231 -0.276958 -0.35573
-0.00565848 -0.104042 -0.133633
-0.00453971 0.109374 0.14048
-0.00166949 0.280599 0.360405
0.00184484 0.343567 0.44128
0.00464743 0.273985 0.351908
0.00565698 0.0987027 0.126774
0.00448237 -0.114367 -0.146896
0.00151153 -0.270982 -0.348463
-0.00271191 0.00458069 -0.681046
-0.00741285 0.00385158 -0.574216
-0.00913385 0.00144675 -0.215709
-0.00732798 -0.00152087 0.226762
-0.00269487 -0.00390183 0.581762
0.00297794 -0.0047774 0.712313
0.00750185 -0.00380984 0.568048
0.00913143 -0.00137246 0.204638
0.00723542 0.00159066 -0.237118
0.00243989 0.00378325 -0.562486
-0.00269751 0.335494 -0.677428
-0.00737346 0.282867 -0.571166
-0.00908531 0.106262 -0.214563
-0.00728909 -0.111707 0.225558
-0.00268056 -0.286585 0.578671
0.00296212 -0.350895 0.708528
0.007462 -0.279829 0.56503
0.00908291 -0.100808 0.203551
0.00719697 0.116808 -0.235858
0.00242693 0.277089 -0.559498
-0.00164238 0.536972 -0.412454
-0.00448937 0.452741 -0.347754
-0.00553161 0.170076 -0.130637
-0.00443796 -0.178791 0.137331
-0.00163206 -0.45869 0.352325
0.00180351 -0.561622 0.431389
0.00454324 -0.447878 0.344019
0.00553014 -0.161347 0.123932
0.00438189 0.186956 -0.143603
0.00147764 0.443492 -0.340651
4.63853e-05 0.531281 0.0116488
0.00012679 0.447943 0.00982153
0.000156229 0.168273 0.00368952
0.00012534 -0.176896 -0.00387862
4.60939e-05 -0.453829 -0.00995056
-5.09349e-05 -0.555671 -0.0121835
-0.000128315 -0.443132 -0.00971606
-0.000156188 -0.159637 -0.00350018
-0.000123756 0.184975 0.00405573
-4.17326e-05 0.438792 0.0096209
0.00171726 0.320619 0.431257
0.00469401 0.270326 0.36361
0.00578383 0.10155 0.136592
0.00464029 -0.106754 -0.143592
0.00170646 -0.273877 -0.368386
-0.00188572 -0.335338 -0.451055
-0.00475038 -0.267422 -0.359704
-0.0057823 -0.0963381 -0.129582
-0.00458165 0.111629 0.15015
-0.00154501 0.264803 0.356181
0.0027256 -0.013741 0.684483
0.0074502 -0.0115769 0.577108
0.00917986 -0.0043488 0.216795
0.00736485 0.00457164 -0.227904
0.00270843 0.0117286 -0.584691
-0.00299293 0.0143606 -0.7159
-0.00753962 0.0114521 -0.570909
-0.00917743 0.00412559 -0.205668
-0.00727183 -0.00478081 0.238312
-0.00245221 -0.0113489 0.565324
0.00268238 -0.342799 0.673631
0.00732751 -0.28856 0.567619
0.0090286 -0.108392 0.213225
0.00724359 0.113946 -0.224151
0.00266382 0.29233 -0.575062
-0.00294362 0.357931 -0.704108
-0.00741538 0.28544 -0.561505
-0.00902621 0.102828 -0.202281
-0.00715207 -0.119167 0.234401
-0.00241333 -0.283122 0.556361
0.00160429 -0.539603 0.402886
0.00419391 -0.435512 0.325168
0.0051655 -0.163397 0.121998
0.00414419 0.171758 -0.128241
0.00152403 0.440647 -0.329002
-0.00168412 0.539531 -0.402833
-0.00424252 0.43026 -0.321247
-0.00516412 0.154992 -0.115722
-0.00409337 -0.180074 0.134449
-0.00144337 -0.445666 0.332749
0 -0.426007 0
0 -0.361714 0
0 -0.135709 0
0 0.142654 0
0 0.36598 0
0 0.448108 0
0 0.357353 0
0 0.128728 0
0 -0.14956 0
0 -0.351845 0
-0.0621979 -0.26165 -0.461872
-0.170015 -0.220866 -0.389422
-0.209485 -0.0829707 -0.14629
-0.168068 0.0872222 0.153785
-0.0618071 0.22377 0.39454
0.0682992 0.273985 0.483076
0.172055 0.218495 0.385238
0.20943 0.0787123 0.138781
0.165944 -0.0912043 -0.160809
0.0559592 -0.2161 -0.381467
-0.100399 0.00365297 -0.745551
-0.274436 0.00307153 -0.628601
-0.33815 0.00115374 -0.236139
-0.271293 -0.00121285 0.24824
-0.0997686 -0.00311156 0.636861
0.110248 -0.00380984 0.779777
0.277731 -0.00303823 0.621848
0.338061 -0.00109451 0.22402
0.267866 0.0012685 -0.259577
0.0903288 0.00301703 -0.615761
-0.0998661 0.267547 -0.74159
-0.272978 0.225579 -0.625261
-0.336354 0.0847403 -0.234885
-0.269853 -0.0890829 0.246921
-0.0992388 -0.228542 0.633478
0.109663 -0.279829 0.775634
0.276255 -0.223155 0.618544
0.336264 -0.0803914 0.22283
0.266443 0.0931509 -0.258198
0.089849 0.22097 -0.61249
-0.0608037 0.428219 -0.451519
-0.166203 0.361049 -0.380692
-0.20479 0.13563 -0.14301
-0.164301 -0.142581 0.150338
-0.0604216 -0.365791 0.385694
0.0667683 -0.447878 0.472246
0.168198 -0.35717 0.376603
0.204736 -0.128669 0.13567
0.162225 0.149092 -0.157204
0.0547047 0.353672 -0.372916
0.00171726 0.423681 0.0127521
0.00469401 0.357222 0.0107518
0.00578383 0.134193 0.00403897
0.00464029 -0.14107 -0.00424595
0.00170646 -0.361916 -0.010893
-0.00188572 -0.443132 -0.0133375
-0.00475038 -0.353384 -0.0106363
-0.0057823 -0.127306 -0.0038317
-0.00458165 0.147512 0.00443986
-0.00154501 0.349924 0.0105321
0.0635757 0.255684 0.472103
0.17378 0.215577 0.398049
0.214126 0.0809834 0.149529
0.17179 -0.085133 -0.157192
0.0631761 -0.218409 -0.403278
-0.0698123 -0.267422 -0.493776
-0.175867 -0.213261 -0.393773
-0.214069 -0.0768267 -0.141856
-0.16962 0.0890211 0.164371
-0.0571987 0.211173 0.389916
0.100906 -0.010958 0.749313
0.275818 -0.0092323 0.631766
0.339853 -0.00346804 0.237328
0.272659 0.00364574 -0.24949
0.100271 0.00935321 -0.640069
-0.110804 0.0114521 -0.783704
-0.279129 0.00913271 -0.624979
-0.339763 0.00329003 -0.225148
-0.269214 -0.00381255 0.260884
-0.0907847 -0.00905039 0.618868
0.0993062 -0.273372 0.737432
0.271276 -0.230118 0.621378
0.334254 -0.0864396 0.23342
0.268168 0.0908687 -0.245381
0.0986192 0.233125 -0.629526
-0.108978 0.28544 -0.770796
-0.274529 0.227629 -0.614685
-0.334165 0.0820026 -0.221439
-0.264781 -0.0950324 0.256601
-0.0893453 -0.225782 0.609056
0.0593933 -0.430317 0.441045
0.155265 -0.347308 0.355966
0.191235 -0.130304 0.133552
0.153425 0.136972 -0.140387
0.0564221 0.351403 -0.360163
-0.0623487 0.43026 -0.440986
-0.157065 0.34312 -0.351674
-0.191184 0.123601 -0.126683
-0.151543 -0.143604 0.147184
-0.0534358 -0.355405 0.364265
0 -0.153459 0
0 -0.130299 0
0 -0.0488862 0
0 0.0513878 0
0 0.131836 0
0 0.161421 0
0 0.128728 0
0 0.0463715 0
0 -0.0538758 0
0 -0.126744 0
-0.0987194 -0.0942536 -0.323639
-0.269841 -0.0795663 -0.272875
-0.332488 -0.02989 -0.102508
-0.266751 0.0314217 0.107761
-0.0980982 0.0806128 0.276461
0.108402 0.0987029 0.338501
0.27308 0.0787124 0.269945
0.3324 0.028356 0.097247
0.26338 -0.032856 -0.112682
0.0888173 -0.0778453 -0.267298
-0.159352 0.0013159 -0.522416
-0.435575 0.00110651 -0.440473
-0.5367 0.000415629 -0.165468
-0.430589 -0.000436921 0.173946
-0.158349 -0.00112093 0.446262
0.174982 -0.00137247 0.546405
0.440803 -0.00109451 0.435742
0.536557 -0.000394295 0.156975
0.425147 0.000456971 -0.18189
0.143368 0.00108682 -0.43147
-0.158506 0.0963777 -0.519641
-0.433261 0.0812642 -0.438133
-0.533849 0.0305275 -0.164589
-0.428301 -0.0320919 0.173022
-0.157508 -0.0823321 0.443891
0.174052 -0.100808 0.543502
0.438462 -0.0803915 0.433428
0.533707 -0.0289608 0.156141
0.422888 0.0335573 -0.180924
0.142607 0.0795996 -0.429178
-0.0965065 0.154256 -0.316384
-0.263792 0.130067 -0.266759
-0.325036 0.0488606 -0.10021
-0.260772 -0.0513644 0.105345
-0.0958988 -0.131776 0.270264
0.105972 -0.161347 0.330914
0.266959 -0.12867 0.263893
0.32495 -0.0463529 0.095067
0.257477 0.0537098 -0.110156
0.0868264 0.127402 -0.261306
0.0027256 0.152622 0.00893553
0.00745019 0.128688 0.00753398
0.00917986 0.0483428 0.0028302
0.00736485 -0.0508201 -0.00297522
0.00270843 -0.13038 -0.00763296
-0.00299293 -0.159637 -0.00934585
-0.00753962 -0.127306 -0.00745305
-0.00917743 -0.0458617 -0.00268495
-0.00727183 0.0531406 0.00311111
-0.00245221 0.126052 0.00737998
0.100906 0.0921044 0.330808
0.275818 0.0776608 0.27892
0.339853 0.0291741 0.104778
0.272659 -0.030669 -0.110148
0.100271 -0.0786815 -0.282585
-0.110804 -0.0963382 -0.345998
-0.279129 -0.0768268 -0.275924
-0.339763 -0.0276767 -0.0994012
-0.269214 0.0320694 0.115178
-0.0907847 0.0760703 0.273219
0.160156 -0.00394739 0.525052
0.437768 -0.0033259 0.442692
0.539402 -0.00124935 0.166301
0.432756 0.00131337 -0.174822
0.159146 0.00336946 -0.448509
-0.175863 0.00412559 -0.549156
-0.443023 0.00329003 -0.437936
-0.539258 0.00118522 -0.157766
-0.427287 -0.00137345 0.182806
-0.144092 -0.0032602 0.433648
0.157617 -0.0984762 0.516727
0.43056 -0.0828991 0.435413
0.530515 -0.0311397 0.163562
0.425627 0.0327352 -0.171943
0.156524 0.0839823 -0.441122
-0.172965 0.102828 -0.540112
-0.435724 0.0820027 -0.430725
-0.530375 0.0295411 -0.155167
-0.420251 -0.0342349 0.179806
-0.141807 -0.0813328 0.426772
0.0942679 -0.155012 0.309045
0.246434 -0.12511 0.249429
0.303525 -0.0469391 0.0935816
0.243513 0.0493411 -0.0983705
0.089552 0.126585 -0.252371
-0.0989587 0.154992 -0.309004
-0.24929 0.123601 -0.246422
-0.303444 0.0445246 -0.0887679
-0.240527 -0.05173 0.103133
-0.0848123 -0.128027 0.255245
0 0.178294 0
0 0.151386 0
0 0.0567974 0
0 -0.0597039 0
0 -0.153171 0
0 -0.187544 0
0 -0.14956 0
0 -0.0538758 0
0 0.0625945 0
0 0.147255 0
-0.0971542 0.109507 -0.0605438
-0.265397 0.0922016 -0.0512423
-0.327011 0.0346327 -0.0192527
-0.262357 -0.0364072 0.0202396
-0.0964817 -0.0934029 0.0519246
0.106616 -0.114363 0.0635768
0.268581 -0.0912011 0.0507007
0.326924 -0.0328548 0.018265
0.259043 0.038078 -0.0211565
0.0874091 0.090443 -0.050004
-0.156826 -0.00152885 -0.0977294
-0.428403 -0.00128248 -0.0827148
-0.527858 -0.000481682 -0.0310776
-0.423494 0.000506359 0.0326705
-0.15574 0.00129906 0.0838163
0.172099 0.00159059 0.102625
0.433542 0.00126845 0.0818407
0.527718 0.000456953 0.0294832
0.418145 -0.000529704 -0.0341506
0.141095 -0.0012627 -0.080716
-0.155992 -0.111975 -0.0972102
-0.426127 -0.0941698 -0.0822754
-0.525054 -0.0353718 -0.0309125
-0.421244 0.0371842 0.032497
-0.154912 0.0953962 0.0833711
0.171185 0.116804 0.10208
0.431239 0.0931475 0.0814061
0.524914 0.033556 0.0293266
0.415924 -0.0388913 -0.0339692
0.140346 -0.0924813 -0.0802873
-0.0949763 -0.17922 -0.0591866
-0.259448 -0.150723 -0.0500936
-0.31968 -0.056614 -0.0188211
-0.256475 0.0595146 0.0197858
-0.0943188 0.152685 0.0507607
0.104226 0.186949 0.0621517
0.262561 0.149087 0.0495642
0.319596 0.0537078 0.0178556
0.253236 -0.0622471 -0.0206822
0.0854497 -0.14802 -0.0488831
0.00268238 -0.17732 0.00167159
0.00732751 -0.149126 0.00141478
0.0090286 -0.0560141 0.000531559
0.00724359 0.058884 -0.000558804
0.00266382 0.151068 -0.00143362
-0.00294362 0.184968 -0.00175533
-0.00741538 0.147507 -0.00139983
-0.00902621 0.0531386 -0.000504288
-0.00715207 -0.0615873 0.000584121
-0.00241333 -0.146451 0.00138059
0.0993062 -0.10701 0.0618849
0.271276 -0.0899949 0.0523773
0.334254 -0.0338035 0.0196792
0.268168 0.0355355 -0.0206878
0.0986192 0.0911666 -0.0530748
-0.108978 0.111625 -0.0649852
-0.274529 0.0890178 -0.0518237
-0.334165 0.0320682 -0.0186696
-0.264781 -0.0371669 0.0216251
-0.0893453 -0.0883808 0.0511116
0.157617 0.00458619 0.0982226
0.43056 0.0038544 0.0831311
0.530516 0.00144773 0.0312341
0.425627 -0.0015219 -0.0328349
0.156524 -0.00390445 -0.0842381
-0.172965 -0.00478063 -0.103142
-0.435724 -0.00381241 -0.0822526
-0.530375 -0.0013734 -0.0296315
-0.420251 0.00159189 0.0343225
-0.141807 0.0037878 0.0811234
0.155118 0.114413 0.0966652
0.423475 0.0960784 0.0817583
0.521782 0.0360864 0.0307172
0.418619 -0.0379352 -0.0322915
0.153947 -0.097323 -0.0828442
-0.170118 -0.119163 -0.101435
-0.428552 -0.0950291 -0.0808915
-0.521643 -0.0342336 -0.0291412
-0.413335 0.0396821 0.0337566
-0.139559 0.0944949 0.0798371
0.0927732 0.180098 0.0578137
0.242527 0.145356 0.0466612
0.298712 0.0545352 0.0175065
0.239652 -0.057326 -0.0184024
0.0881322 -0.14707 -0.0472115
-0.0973897 -0.180074 -0.057806
-0.245338 -0.143604 -0.0460986
-0.298633 -0.05173 -0.016606
-0.236713 0.0601015 0.0192933
-0.0834676 0.148745 0.0477492
0 0.44126 0
0 0.356139 0
0 0.133617 0
0 -0.140455 0
0 -0.360339 0
0 -0.441201 0
0 -0.351845 0
0 -0.126744 0
0 0.147255 0
0 0.364442 0
-0.0581062 0.271018 0.22591
-0.151901 0.218738 0.182331
-0.187091 0.0820667 0.0684076
-0.1501 -0.0862664 -0.0719082
-0.0551993 -0.221317 -0.184481
0.0609975 -0.270982 -0.22588
0.153661 -0.2161 -0.180133
0.187041 -0.0778453 -0.0648887
0.148259 0.090443 0.0753897
0.0522778 0.223838 0.186582
-0.0937945 -0.00378376 0.364662
-0.245197 -0.00305386 0.294318
-0.302001 -0.00114576 0.110423
-0.24229 0.00120439 -0.116074
-0.0891023 0.00308987 -0.297788
0.0984618 0.00378326 -0.364614
0.248039 0.00301703 -0.290769
0.30192 0.00108682 -0.104743
0.239319 -0.0012627 0.121693
0.0843865 -0.00312506 0.30118
-0.0932963 -0.277126 0.362725
-0.243894 -0.223667 0.292754
-0.300396 -0.0839162 0.109836
-0.241003 0.0882105 -0.115457
-0.088629 0.226305 -0.296206
0.0979387 0.277089 -0.362677
0.246721 0.22097 -0.289224
0.300316 0.0795997 -0.104187
0.238048 -0.0924813 0.121047
0.0839382 -0.228882 0.29958
-0.0568036 -0.443551 0.220846
-0.148496 -0.357988 0.178244
-0.182897 -0.134311 0.0668741
-0.146735 0.141184 -0.0702963
-0.053962 0.36221 -0.180346
0.0596302 0.443492 -0.220817
0.150217 0.353672 -0.176095
0.182848 0.127402 -0.0634342
0.144936 -0.14802 0.0736997
0.0511059 -0.366335 0.1824
0.00160429 -0.438851 -0.00623728
0.00419391 -0.354195 -0.00503408
0.0051655 -0.132888 -0.0018887
0.00414419 0.139688 0.00198535
0.00152403 0.358371 0.00509345
-0.00168412 0.438792 0.00623645
-0.00424251 0.349924 0.00497338
-0.00516412 0.126052 0.00179155
-0.00409337 -0.146451 -0.00208148
-0.00144337 -0.362453 -0.00515145
0.0593933 -0.264839 -0.230914
0.155265 -0.21375 -0.18637
0.191235 -0.0801955 -0.0699228
0.153425 0.0842993 0.073501
0.056422 0.216271 0.188568
-0.0623487 0.264803 0.230883
-0.157065 0.211173 0.184123
-0.191184 0.0760703 0.0663261
-0.151543 -0.0883808 -0.0770596
-0.0534358 -0.218734 -0.190715
0.0942679 0.0113504 -0.366502
0.246434 0.00916085 -0.295803
0.303525 0.003437 -0.11098
0.243513 -0.00361288 0.116659
0.089552 -0.00926888 0.299291
-0.0989586 -0.0113489 0.366454
-0.24929 -0.00905039 0.292236
-0.303444 -0.0032602 0.105271
-0.240527 0.0037878 -0.122308
-0.0848123 0.00937444 -0.3027
0.0927732 0.28316 -0.360692
0.242527 0.228537 -0.291113
0.298712 0.0857434 -0.109221
0.239652 -0.0901311 0.11481
0.0881321 -0.231232 0.294546
-0.0973896 -0.283122 0.360644
-0.245338 -0.225782 0.287603
-0.298633 -0.0813328 0.103602
-0.236713 0.0944949 -0.120368
-0.0834676 0.233866 -0.2979
0.055486 0.445725 -0.215723
0.145051 0.359743 -0.174109
0.178654 0.134969 -0.0653229
0.143332 -0.141876 0.0686656
0.0527103 -0.363985 0.176162
-0.058247 -0.445666 0.215694
-0.146732 -0.355405 0.17201
-0.178607 -0.128027 0.0619627
-0.141574 0.148745 -0.0719902
-0.0499205 0.36813 -0.178169
