# vtk DataFile Version 3.0
Velocity field
ASCII
DATASET STRUCTURED_POINTS
DIMENSIONS 5 5 5
SPACING 1.33333 1.33333 1.33333
ORIGIN 0 0 0
POINT_DATA 125
VECTORS velocity float
0 0.043202 0
0 0.0101627 0
0 -0.0384207 0
0 -0.0282387 0
0 0.0251351 0
0 -0.0228765 0.0750289
0 -0.00538142 0.0203407
0 0.0203447 -0.0768991
0 0.0149531 -0.0565198
0 -0.0133096 0.0436521
0 -0.0539648 0.0352992
0 -0.0126946 0.0095698
0 0.0479923 -0.0361791
0 0.0352738 -0.0265912
0 -0.0313969 0.0205372
0 -0.00251259 -0.0584215
0 -0.000591056 -0.0158384
0 0.00223451 0.0598777
0 0.00164234 0.0440093
0 -0.00146183 -0.0339898
0 0.0527827 -0.0627851
0 0.0124165 -0.0147694
0 -0.0469411 0.0558364
0 -0.0345011 0.0410391
0 0.0307092 -0.0365286
0 0.0101627 0
0 0.00304198 0
0 -0.0115003 0
0 -0.00845261 0
0 0.00591271 0
0.0321121 -0.00538142 0.0263488
0.0474449 -0.00127141 0.00622975
-0.00994339 0.00480668 -0.0235522
-0.052123 0.00353285 -0.0173106
-0.0145101 -0.00313093 0.0153299
0.0151079 -0.0126946 0.0123965
0.0223217 -0.0030004 0.00293095
-0.00467811 0.0113432 -0.0110807
-0.0245226 0.00833716 -0.00814418
-0.00682665 -0.00738573 0.00721231
-0.0250042 -0.000591056 -0.0205166
-0.0369429 -0.000139705 -0.00485081
0.00774243 0.000528168 0.0183389
0.0405856 0.000388197 0.0134789
0.0112983 -0.000343878 -0.0119366
-0.0268718 0.0124165 -0.022049
-0.0395143 0.00292082 -0.00518676
0.0082813 -0.0110423 0.0196088
0.0434105 -0.00811595 0.0144122
0.0121422 0.00722395 -0.0128282
0 -0.0384207 0
0 -0.0115003 0
0 0.0434776 0
0 0.0319555 0
0 -0.0223533 0
0.0151079 0.0203447 -0.0626324
0.0223217 0.00480668 -0.0148035
-0.00467811 -0.018172 0.0559659
-0.0245226 -0.0133562 0.0411343
-0.00682665 0.0118366 -0.0364398
0.00710791 0.0479923 -0.029467
0.0105018 0.0113432 -0.00696468
-0.00220094 -0.0428842 0.0263306
-0.0115373 -0.0315194 0.0193527
-0.00321177 0.0279221 -0.017144
-0.0117638 0.00223451 0.0487689
-0.0173808 0.000528168 0.0115268
0.00364262 -0.00199679 -0.043578
0.0190945 -0.00146761 -0.0320293
0.00531559 0.00130005 0.0283739
-0.0126425 -0.0469411 0.0524116
-0.0185905 -0.0110423 0.0123292
0.00389615 0.0417459 -0.046611
0.0204235 0.0306827 -0.0342585
0.00571262 -0.0273105 0.0304932
0 -0.0282387 0
0 -0.00845261 0
0 0.0319555 0
0 0.0234869 0
0 -0.0164294 0
-0.0250042 0.0149531 -0.0558158
-0.0369429 0.00353285 -0.0131924
0.00774243 -0.0133562 0.0498751
0.0405856 -0.00981669 0.0366576
0.0112983 0.00869976 -0.0324739
-0.0117638 0.0352738 -0.02626
-0.0173807 0.00833716 -0.0062067
0.00364262 -0.0315194 0.0234649
0.0190945 -0.0231664 0.0172465
0.00531559 0.0205224 -0.0152781
0.0194696 0.00164234 0.0434612
0.0287657 0.000388197 0.0102723
-0.00602866 -0.00146761 -0.0388353
-0.0316021 -0.00107868 -0.0285435
-0.00879749 0.000955518 0.0252859
0.0209238 -0.0345011 0.0467074
0.0307679 -0.00811595 0.0109873
-0.00644826 0.0306827 -0.0415381
-0.0338017 0.0225514 -0.03053
-0.00945459 -0.0200729 0.0271745
0 0.0251351 0
0 0.00591271 0
0 -0.0223533 0
0 -0.0164294 0
0 0.0146237 0
-0.0268718 -0.0133096 0.0363725
-0.0395143 -0.00313093 0.00855617
0.0082813 0.0118366 -0.032347
0.0434104 0.00869976 -0.0237746
0.0121422 -0.0077436 0.0211616
-0.0126425 -0.0313969 0.0171123
-0.0185905 -0.00738573 0.00402546
0.00389614 0.0279221 -0.0152185
0.0204235 0.0205224 -0.0111854
0.00571262 -0.0182668 0.00995602
0.0209238 -0.00146183 -0.0283215
0.0307679 -0.000343878 -0.00666229
-0.00644826 0.00130005 0.0251871
-0.0338017 0.000955519 0.0185122
-0.00945459 -0.0008505 -0.0164776
0.0224866 0.0307092 -0.0304369
0.033066 0.00722395 -0.0071599
-0.00692989 -0.0273105 0.0270684
-0.0363264 -0.0200729 0.0198949
-0.0101608 0.0178667 -0.0177083
