# vtk DataFile Version 3.0
Velocity field
ASCII
DATASET STRUCTURED_POINTS
DIMENSIONS 8 8 8
SPACING 0.8 0.8 0.8
ORIGIN 0 0 0
POINT_DATA 512
VECTORS velocity float
0 1.15133e-05 0
0 8.02137e-06 0
0 -3.36182e-07 0
0 -8.48981e-06 0
0 -1.14936e-05 0
0 -7.52557e-06 0
0 1.0074e-06 0
0 8.92929e-06 0
0 4.52947e-06 1.1751e-05
0 3.15571e-06 8.68016e-06
0 -1.32259e-07 -3.63793e-07
0 -3.34e-06 -9.18708e-06
0 -4.52175e-06 -1.24376e-05
0 -2.96066e-06 -8.14365e-06
0 3.96325e-07 1.09014e-06
0 3.5129e-06 9.11368e-06
0 -5.20184e-06 1.6374e-05
0 -3.62415e-06 1.20951e-05
0 1.51891e-07 -5.06914e-07
0 3.8358e-06 -1.28014e-05
0 5.19297e-06 -1.73307e-05
0 3.40015e-06 -1.13475e-05
0 -4.55156e-07 1.51901e-06
0 -4.03437e-06 1.26991e-05
0 -1.17778e-05 1.10648e-05
0 -8.20566e-06 8.17325e-06
0 3.43906e-07 -3.42547e-07
0 8.68486e-06 -8.65056e-06
0 1.17577e-05 -1.17113e-05
0 7.69847e-06 -7.66806e-06
0 -1.03055e-06 1.02648e-06
0 -9.13444e-06 8.58145e-06
0 -1.12095e-05 -9.56227e-07
0 -7.80972e-06 -7.0634e-07
0 3.27312e-07 2.96033e-08
0 8.2658e-06 7.4759e-07
0 1.11904e-05 1.0121e-06
0 7.327e-06 6.62682e-07
0 -9.8082e-07 -8.87091e-08
0 -8.69369e-06 -7.41617e-07
0 -3.84166e-06 -1.23972e-05
0 -2.67651e-06 -9.15747e-06
0 1.12175e-07 3.83797e-07
0 2.83282e-06 9.69226e-06
0 3.83511e-06 1.31215e-05
0 2.51108e-06 8.59145e-06
0 -3.36142e-07 -1.15008e-06
0 -2.97946e-06 -9.61483e-06
0 5.85646e-06 -1.63182e-05
0 4.08024e-06 -1.20538e-05
0 -1.71006e-07 5.05185e-07
0 -4.31852e-06 1.27577e-05
0 -5.84647e-06 1.72716e-05
0 -3.82804e-06 1.13088e-05
0 5.12436e-07 -1.51383e-06
0 4.54207e-06 -1.26558e-05
0 1.20021e-05 -1.03408e-05
0 8.36196e-06 -7.20449e-06
0 -3.50457e-07 3.01946e-07
0 -8.85029e-06 7.62522e-06
0 -1.19817e-05 1.03231e-05
0 -7.84511e-06 6.75918e-06
0 1.05018e-06 -9.04809e-07
0 9.30844e-06 -8.01995e-06
0 8.02137e-06 0
0 6.0675e-06 0
0 -2.54294e-07 0
0 -6.42184e-06 0
0 -8.69398e-06 0
0 -5.69247e-06 0
0 7.62015e-07 0
0 6.22109e-06 0
2.50493e-06 3.15571e-06 1.16068e-05
5.99535e-06 2.19861e-06 8.08655e-06
5.84907e-06 -9.21456e-08 -3.38914e-07
2.15481e-06 -2.32701e-06 -8.5588e-06
-2.84652e-06 -3.15034e-06 -1.1587e-05
-6.12119e-06 -2.06272e-06 -7.58672e-06
-5.68283e-06 2.76123e-07 1.01559e-06
-1.79734e-06 2.44746e-06 9.00183e-06
3.49041e-06 -3.62415e-06 1.61731e-05
8.354e-06 -2.52498e-06 1.12679e-05
8.15017e-06 1.05824e-07 -4.72247e-07
3.00255e-06 2.67243e-06 -1.19259e-05
-3.96638e-06 3.61798e-06 -1.61455e-05
-8.52935e-06 2.36891e-06 -1.05714e-05
-7.91853e-06 -3.17111e-07 1.41513e-06
-2.50444e-06 -2.81077e-06 1.25433e-05
2.35865e-06 -8.20566e-06 1.0929e-05
5.64523e-06 -5.71695e-06 7.6143e-06
5.50748e-06 2.39602e-07 -3.19122e-07
2.02897e-06 6.05081e-06 -8.05897e-06
-2.68028e-06 8.19168e-06 -1.09104e-05
-5.76372e-06 5.36359e-06 -7.14366e-06
-5.35096e-06 -7.1799e-07 9.56278e-07
-1.69238e-06 -6.36402e-06 8.47613e-06
-2.03837e-07 -7.80972e-06 -9.44492e-07
-4.87866e-07 -5.4411e-06 -6.58035e-07
-4.75962e-07 2.28041e-07 2.75788e-08
-1.75346e-07 5.75885e-06 6.96464e-07
2.31633e-07 7.79642e-06 9.42884e-07
4.98106e-07 5.10479e-06 6.17363e-07
4.62435e-07 -6.83345e-07 -8.26425e-08
1.46257e-07 -6.05695e-06 -7.32516e-07
-2.64268e-06 -2.67651e-06 -1.2245e-05
-6.32503e-06 -1.86475e-06 -8.53121e-06
-6.1707e-06 7.8153e-08 3.5755e-07
-2.2733e-06 1.97365e-06 9.02943e-06
3.00304e-06 2.67195e-06 1.22242e-05
6.45779e-06 1.74949e-06 8.00391e-06
5.99532e-06 -2.34193e-07 -1.07143e-06
1.89617e-06 -2.07581e-06 -9.49683e-06
-3.4785e-06 4.08024e-06 -1.61179e-05
-8.32551e-06 2.84273e-06 -1.12295e-05
-8.12237e-06 -1.19141e-07 4.70636e-07
-2.99231e-06 -3.00875e-06 1.18853e-05
3.95285e-06 -4.07329e-06 1.60905e-05
8.50026e-06 -2.66703e-06 1.05354e-05
7.89152e-06 3.57018e-07 -1.41031e-06
2.4959e-06 3.16449e-06 -1.25005e-05
-2.20432e-06 8.36196e-06 -1.02139e-05
-5.27584e-06 5.82584e-06 -7.11607e-06
-5.14711e-06 -2.44166e-07 2.9824e-07
-1.89621e-06 -6.16606e-06 7.53164e-06
2.5049e-06 -8.3477e-06 1.01965e-05
5.38658e-06 -5.46574e-06 6.67623e-06
5.00083e-06 7.31665e-07 -8.93705e-07
1.58164e-06 6.48525e-06 -7.92153e-06
0 -3.36182e-07 0
0 -2.54294e-07 0
0 1.06577e-08 0
0 2.69144e-07 0
0 3.64372e-07 0
0 2.38576e-07 0
0 -3.19367e-08 0
0 -2.60731e-07 0
3.49041e-06 -1.32259e-07 4.42206e-06
8.354e-06 -9.21456e-08 3.08088e-06
8.15017e-06 3.8619e-09 -1.29122e-07
3.00255e-06 9.75268e-08 -3.2608e-06
-3.96638e-06 1.32033e-07 -4.41452e-06
-8.52935e-06 8.64501e-08 -2.89046e-06
-7.91853e-06 -1.15725e-08 3.86927e-07
-2.50444e-06 -1.02575e-07 3.4296e-06
4.86358e-06 1.51891e-07 6.16175e-06
1.16406e-05 1.05824e-07 4.29294e-06
1.13565e-05 -4.43516e-09 -1.79921e-07
4.18379e-06 -1.12004e-07 -4.54365e-06
-5.5268e-06 -1.51633e-07 -6.15126e-06
-1.18849e-05 -9.92829e-08 -4.0276e-06
-1.10338e-05 1.32904e-08 5.3915e-07
-3.48972e-06 1.17802e-07 4.77885e-06
3.28657e-06 3.43906e-07 4.16381e-06
7.86614e-06 2.39602e-07 2.90096e-06
7.6742e-06 -1.00419e-08 -1.21582e-07
2.8272e-06 -2.53595e-07 -3.07038e-06
-3.73474e-06 -3.4332e-07 -4.15672e-06
-8.03124e-06 -2.24792e-07 -2.72166e-06
-7.4561e-06 3.00915e-08 3.64331e-07
-2.35818e-06 2.66721e-07 3.22931e-06
-2.84029e-07 3.27312e-07 -3.59841e-07
-6.79799e-07 2.28041e-07 -2.50704e-07
-6.63212e-07 -9.55737e-09 1.05072e-08
-2.44329e-07 -2.41358e-07 2.65345e-07
3.2276e-07 -3.26754e-07 3.59228e-07
6.94068e-07 -2.13946e-07 2.35208e-07
6.44363e-07 2.86396e-08 -3.14858e-08
2.03796e-07 2.53852e-07 -2.7908e-07
-3.68234e-06 1.12175e-07 -4.66522e-06
-8.81338e-06 7.8153e-08 -3.2503e-06
-8.59833e-06 -3.27546e-09 1.36223e-07
-3.16765e-06 -8.27171e-08 3.44011e-06
4.18448e-06 -1.11984e-07 4.65727e-06
8.99837e-06 -7.33224e-08 3.0494e-06
8.35396e-06 9.81522e-09 -4.08204e-07
2.64215e-06 8.69988e-08 -3.61819e-06
-4.84699e-06 -1.71006e-07 -6.14074e-06
-1.16009e-05 -1.19141e-07 -4.2783e-06
-1.13178e-05 4.99331e-09 1.79307e-07
-4.16952e-06 1.26099e-07 4.52815e-06
5.50795e-06 1.70715e-07 6.13028e-06
1.18444e-05 1.11777e-07 4.01386e-06
1.09962e-05 -1.49629e-08 -5.37311e-07
3.47781e-06 -1.32626e-07 -4.76255e-06
-3.07153e-06 -3.50457e-07 -3.89137e-06
-7.35143e-06 -2.44166e-07 -2.71114e-06
-7.17206e-06 1.02332e-08 1.13626e-07
-2.64221e-06 2.58425e-07 2.86947e-06
3.49037e-06 3.49859e-07 3.88473e-06
7.50573e-06 2.29074e-07 2.54357e-06
6.96822e-06 -3.06647e-08 -3.40492e-07
2.20388e-06 -2.71802e-07 -3.01801e-06
0 -8.48981e-06 0
0 -6.42184e-06 0
0 2.69144e-07 0
0 6.79687e-06 0
0 9.2017e-06 0
0 6.02491e-06 0
0 -8.06516e-07 0
0 -6.5844e-06 0
2.35865e-06 -3.34e-06 -5.44504e-06
5.64523e-06 -2.32701e-06 -3.7936e-06
5.50748e-06 9.75268e-08 1.58993e-07
2.02897e-06 2.4629e-06 4.01515e-06
-2.68028e-06 3.33432e-06 5.43577e-06
-5.76372e-06 2.18318e-06 3.55912e-06
-5.35096e-06 -2.92248e-07 -4.76438e-07
-1.69238e-06 -2.59039e-06 -4.22299e-06
3.28657e-06 3.8358e-06 -7.58719e-06
7.86614e-06 2.67243e-06 -5.28606e-06
7.6742e-06 -1.12004e-07 2.21543e-07
2.8272e-06 -2.8285e-06 5.59476e-06
-3.73474e-06 -3.82927e-06 7.57427e-06
-8.03124e-06 -2.50725e-06 4.95933e-06
-7.4561e-06 3.3563e-07 -6.63875e-07
-2.35818e-06 2.97491e-06 -5.88437e-06
2.2209e-06 8.68486e-06 -5.12706e-06
5.31555e-06 6.05081e-06 -3.57206e-06
5.18585e-06 -2.53595e-07 1.49708e-07
1.91048e-06 -6.40418e-06 3.78067e-06
-2.52376e-06 -8.67007e-06 5.11832e-06
-5.42712e-06 -5.67682e-06 3.35127e-06
-5.03847e-06 7.5992e-07 -4.48614e-07
-1.59354e-06 6.73568e-06 -3.97637e-06
-1.91933e-07 8.2658e-06 4.43085e-07
-4.59375e-07 5.75885e-06 3.08701e-07
-4.48167e-07 -2.41358e-07 -1.29379e-08
-1.65106e-07 -6.09516e-06 -3.26729e-07
2.18106e-07 -8.25172e-06 -4.42331e-07
4.69017e-07 -5.4029e-06 -2.8962e-07
4.35429e-07 7.23252e-07 3.87697e-08
1.37716e-07 6.41067e-06 3.43642e-07
-2.48834e-06 2.83282e-06 5.74446e-06
-5.95565e-06 1.97365e-06 4.00221e-06
-5.81033e-06 -8.27171e-08 -1.67736e-07
-2.14054e-06 -2.0889e-06 -4.23594e-06
2.82767e-06 -2.82799e-06 -5.73467e-06
6.08066e-06 -1.85166e-06 -3.75484e-06
5.6452e-06 2.4787e-07 5.02636e-07
1.78544e-06 2.19703e-06 4.4552e-06
-3.27536e-06 -4.31852e-06 7.56132e-06
-7.83931e-06 -3.00875e-06 5.26803e-06
-7.64803e-06 1.26099e-07 -2.20787e-07
-2.81756e-06 3.18446e-06 -5.57568e-06
3.72201e-06 4.31116e-06 -7.54844e-06
8.00385e-06 2.82278e-06 -4.94242e-06
7.43067e-06 -3.77868e-07 6.6161e-07
2.35014e-06 -3.34929e-06 5.8643e-06
-2.07559e-06 -8.85029e-06 4.79159e-06
-4.96774e-06 -6.16606e-06 3.33833e-06
-4.84653e-06 2.58425e-07 -1.39912e-07
-1.78547e-06 6.52615e-06 -3.53329e-06
2.35862e-06 8.8352e-06 -4.78342e-06
5.07201e-06 5.78494e-06 -3.13199e-06
4.70878e-06 -7.74393e-07 4.1926e-07
1.48928e-06 -6.86399e-06 3.71619e-06
0 -1.14936e-05 0
0 -8.69398e-06 0
0 3.64372e-07 0
0 9.2017e-06 0
0 1.24574e-05 0
0 8.15661e-06 0
0 -1.09187e-06 0
0 -8.91406e-06 0
-2.03837e-07 -4.52175e-06 -1.20092e-05
-4.87866e-07 -3.15034e-06 -8.36694e-06
-4.75962e-07 1.32033e-07 3.50665e-07
-1.75346e-07 3.33432e-06 8.85556e-06
2.31633e-07 4.51405e-06 1.19888e-05
4.98106e-07 2.95562e-06 7.84979e-06
4.62435e-07 -3.9565e-07 -1.0508e-06
1.46257e-07 -3.50691e-06 -9.31396e-06
-2.84029e-07 5.19297e-06 -1.67338e-05
-6.79799e-07 3.61798e-06 -1.16586e-05
-6.63212e-07 -1.51633e-07 4.88622e-07
-2.44329e-07 -3.82927e-06 1.23395e-05
3.2276e-07 -5.18412e-06 1.67053e-05
6.94068e-07 -3.39436e-06 1.0938e-05
6.44363e-07 4.54381e-07 -1.4642e-06
2.03796e-07 4.02748e-06 -1.29782e-05
-1.91933e-07 1.17577e-05 -1.13079e-05
-4.59375e-07 8.19168e-06 -7.87832e-06
-4.48167e-07 -3.4332e-07 3.30187e-07
-1.65106e-07 -8.67007e-06 8.33841e-06
2.18106e-07 -1.17377e-05 1.12887e-05
4.69017e-07 -7.68536e-06 7.39136e-06
4.35429e-07 1.02879e-06 -9.89436e-07
1.37716e-07 9.11886e-06 -8.77004e-06
1.6587e-08 1.11904e-05 9.77241e-07
3.96997e-08 7.79642e-06 6.80852e-07
3.8731e-08 -3.26754e-07 -2.85351e-08
1.42686e-08 -8.25172e-06 -7.20613e-07
-1.88489e-08 -1.11713e-05 -9.75577e-07
-4.05329e-08 -7.31453e-06 -6.38769e-07
-3.76302e-08 9.7915e-07 8.5508e-08
-1.19015e-08 8.67886e-06 7.57915e-07
2.15045e-07 3.83511e-06 1.26696e-05
5.14693e-07 2.67195e-06 8.82703e-06
5.02135e-07 -1.11984e-07 -3.69948e-07
1.84988e-07 -2.82799e-06 -9.34252e-06
-2.4437e-07 -3.82858e-06 -1.2648e-05
-5.25496e-07 -2.5068e-06 -8.28144e-06
-4.87864e-07 3.3557e-07 1.10858e-06
-1.54299e-07 2.97438e-06 9.82612e-06
2.8306e-07 -5.84647e-06 1.66768e-05
6.77481e-07 -4.07329e-06 1.16188e-05
6.6095e-07 1.70715e-07 -4.86955e-07
2.43496e-07 4.31116e-06 -1.22974e-05
-3.21659e-07 5.83652e-06 -1.66484e-05
-6.91701e-07 3.82152e-06 -1.09007e-05
-6.42166e-07 -5.11563e-07 1.45921e-06
-2.03101e-07 -4.53432e-06 1.29339e-05
1.79374e-07 -1.19817e-05 1.0568e-05
4.29317e-07 -8.3477e-06 7.36282e-06
4.18842e-07 3.49859e-07 -3.08582e-07
1.54303e-07 8.8352e-06 -7.7928e-06
-2.03834e-07 1.19612e-05 -1.055e-05
-4.38328e-07 7.83174e-06 -6.90772e-06
-4.06938e-07 -1.04839e-06 9.24694e-07
-1.28705e-07 -9.29257e-06 8.1962e-06
0 -7.52557e-06 0
0 -5.69247e-06 0
0 2.38576e-07 0
0 6.02491e-06 0
0 8.15661e-06 0
0 5.34062e-06 0
0 -7.14916e-07 0
0 -5.83657e-06 0
-2.64268e-06 -2.96066e-06 -1.12888e-05
-6.32503e-06 -2.06272e-06 -7.86501e-06
-6.1707e-06 8.64501e-08 3.29629e-07
-2.2733e-06 2.18318e-06 8.32431e-06
3.00304e-06 2.95562e-06 1.12696e-05
6.45779e-06 1.93522e-06 7.37887e-06
5.99532e-06 -2.59056e-07 -9.87763e-07
1.89617e-06 -2.29619e-06 -8.75521e-06
-3.68234e-06 3.40015e-06 -1.573e-05
-8.81338e-06 2.36891e-06 -1.09592e-05
-8.59833e-06 -9.92829e-08 4.59309e-07
-3.16765e-06 -2.50725e-06 1.15992e-05
4.18448e-06 -3.39436e-06 1.57032e-05
8.99837e-06 -2.22249e-06 1.02818e-05
8.35396e-06 2.97511e-07 -1.37636e-06
2.64215e-06 2.63704e-06 -1.21996e-05
-2.48834e-06 7.69847e-06 -1.06296e-05
-5.95565e-06 5.36359e-06 -7.4057e-06
-5.81033e-06 -2.24792e-07 3.10379e-07
-2.14054e-06 -5.67682e-06 7.83818e-06
2.82767e-06 -7.68536e-06 1.06114e-05
6.08066e-06 -5.03207e-06 6.94795e-06
5.6452e-06 6.73611e-07 -9.30079e-07
1.78544e-06 5.97067e-06 -8.24392e-06
2.15045e-07 7.327e-06 9.18616e-07
5.14693e-07 5.10479e-06 6.40008e-07
5.02135e-07 -2.13946e-07 -2.68232e-08
1.84988e-07 -5.4029e-06 -6.77383e-07
-2.4437e-07 -7.31453e-06 -9.17052e-07
-5.25496e-07 -4.78926e-06 -6.00449e-07
-4.87864e-07 6.41108e-07 8.03783e-08
-1.54299e-07 5.68257e-06 7.12447e-07
2.78799e-06 2.51108e-06 1.19096e-05
6.67283e-06 1.74949e-06 8.29749e-06
6.51001e-06 -7.33224e-08 -3.47755e-07
2.39831e-06 -1.85166e-06 -8.78206e-06
-3.16818e-06 -2.5068e-06 -1.18893e-05
-6.81289e-06 -1.64135e-06 -7.78463e-06
-6.325e-06 2.19718e-07 1.04208e-06
-2.00044e-06 1.9475e-06 9.23665e-06
3.66978e-06 -3.82804e-06 1.56763e-05
8.78332e-06 -2.66703e-06 1.09218e-05
8.56901e-06 1.11777e-07 -4.57743e-07
3.15685e-06 2.82278e-06 -1.15597e-05
-4.17021e-06 3.82152e-06 -1.56496e-05
-8.96768e-06 2.50218e-06 -1.02468e-05
-8.32547e-06 -3.34951e-07 1.37167e-06
-2.63314e-06 -2.96889e-06 1.2158e-05
2.32553e-06 -7.84511e-06 9.93405e-06
5.56595e-06 -5.46574e-06 6.92112e-06
5.43014e-06 2.29074e-07 -2.9007e-07
2.00048e-06 5.78494e-06 -7.3253e-06
-2.64265e-06 7.83174e-06 -9.91711e-06
-5.68278e-06 5.12791e-06 -6.49333e-06
-5.27582e-06 -6.86441e-07 8.69221e-07
-1.66861e-06 -6.0844e-06 7.70451e-06
0 1.0074e-06 0
0 7.62015e-07 0
0 -3.19367e-08 0
0 -8.06516e-07 0
0 -1.09187e-06 0
0 -7.14915e-07 0
0 9.57012e-08 0
0 7.81305e-07 0
-3.4785e-06 3.96325e-07 -3.72073e-06
-8.32551e-06 2.76123e-07 -2.59226e-06
-8.12237e-06 -1.15725e-08 1.08644e-07
-2.99231e-06 -2.92248e-07 2.74365e-06
3.95285e-06 -3.9565e-07 3.71439e-06
8.50026e-06 -2.59056e-07 2.43203e-06
7.89152e-06 3.46782e-08 -3.25561e-07
2.4959e-06 3.07376e-07 -2.88567e-06
-4.84699e-06 -4.55156e-07 -5.18451e-06
-1.16009e-05 -3.17111e-07 -3.61209e-06
-1.13178e-05 1.32904e-08 1.51386e-07
-4.16952e-06 3.3563e-07 3.82303e-06
5.50795e-06 4.54381e-07 5.17568e-06
1.18444e-05 2.97511e-07 3.38883e-06
1.09962e-05 -3.98259e-08 -4.53641e-07
3.47781e-06 -3.53003e-07 -4.02093e-06
-3.27536e-06 -1.03055e-06 -3.50344e-06
-7.83931e-06 -7.1799e-07 -2.44087e-06
-7.64803e-06 3.00915e-08 1.02299e-07
-2.81756e-06 7.5992e-07 2.58342e-06
3.72201e-06 1.02879e-06 3.49747e-06
8.00385e-06 6.73611e-07 2.29e-06
7.43067e-06 -9.01721e-08 -3.06549e-07
2.35014e-06 -7.99256e-07 -2.71715e-06
2.8306e-07 -9.8082e-07 3.02771e-07
6.77481e-07 -6.83345e-07 2.10943e-07
6.6095e-07 2.86396e-08 -8.84078e-09
2.43496e-07 7.23252e-07 -2.23262e-07
-3.21659e-07 9.7915e-07 -3.02255e-07
-6.91701e-07 6.41108e-07 -1.97904e-07
-6.42166e-07 -8.58211e-08 2.64922e-08
-2.03101e-07 -7.6069e-07 2.34819e-07
3.66978e-06 -3.36142e-07 3.92532e-06
8.78332e-06 -2.34193e-07 2.7348e-06
8.56901e-06 9.81522e-09 -1.14618e-07
3.15685e-06 2.4787e-07 -2.89451e-06
-4.17021e-06 3.3557e-07 -3.91864e-06
-8.96768e-06 2.19718e-07 -2.56577e-06
-8.32547e-06 -2.94122e-08 3.43463e-07
-2.63314e-06 -2.607e-07 3.04435e-06
4.83046e-06 5.12436e-07 5.16683e-06
1.15613e-05 3.57018e-07 3.59977e-06
1.12792e-05 -1.49629e-08 -1.50869e-07
4.1553e-06 -3.77868e-07 -3.80999e-06
-5.48917e-06 -5.11563e-07 -5.15803e-06
-1.1804e-05 -3.34951e-07 -3.37727e-06
-1.09587e-05 4.48378e-08 4.52094e-07
-3.46595e-06 3.97427e-07 4.00721e-06
3.06105e-06 1.05018e-06 3.2742e-06
7.32636e-06 7.31665e-07 2.28116e-06
7.1476e-06 -3.06647e-08 -9.56053e-08
2.6332e-06 -7.74393e-07 -2.41438e-06
-3.47846e-06 -1.04839e-06 -3.26862e-06
-7.48013e-06 -6.86441e-07 -2.14016e-06
-6.94446e-06 9.18896e-08 2.8649e-07
-2.19636e-06 8.14481e-07 2.53936e-06
0 8.92929e-06 0
0 6.2211e-06 0
0 -2.60731e-07 0
0 -6.5844e-06 0
0 -8.91406e-06 0
0 -5.83657e-06 0
0 7.81306e-07 0
0 6.92525e-06 0
-2.20432e-06 3.5129e-06 6.10429e-06
-5.27584e-06 2.44746e-06 4.2529e-06
-5.14711e-06 -1.02575e-07 -1.78243e-07
-1.89621e-06 -2.59039e-06 -4.50127e-06
2.5049e-06 -3.50691e-06 -6.09389e-06
5.38658e-06 -2.29619e-06 -3.99003e-06
5.00083e-06 3.07376e-07 5.34121e-07
1.58164e-06 2.72449e-06 4.73428e-06
-3.07153e-06 -4.03437e-06 8.50581e-06
-7.35143e-06 -2.81077e-06 5.92605e-06
-7.17205e-06 1.17802e-07 -2.48366e-07
-2.64221e-06 2.97492e-06 -6.27213e-06
3.49037e-06 4.02748e-06 -8.4913e-06
7.50573e-06 2.63704e-06 -5.55977e-06
6.96822e-06 -3.53004e-07 7.44251e-07
2.20388e-06 -3.12892e-06 6.59681e-06
-2.07559e-06 -9.13444e-06 5.74781e-06
-4.96774e-06 -6.36403e-06 4.00454e-06
-4.84652e-06 2.66722e-07 -1.67833e-07
-1.78547e-06 6.73568e-06 -4.2384e-06
2.35862e-06 9.11886e-06 -5.73801e-06
5.07201e-06 5.97067e-06 -3.75702e-06
4.70878e-06 -7.99256e-07 5.02929e-07
1.48928e-06 -7.08436e-06 4.4578e-06
1.79374e-07 -8.69369e-06 -4.96731e-07
4.29317e-07 -6.05695e-06 -3.46076e-07
4.18841e-07 2.53852e-07 1.45043e-08
1.54302e-07 6.41067e-06 3.66287e-07
-2.03834e-07 8.67886e-06 4.95884e-07
-4.38328e-07 5.68257e-06 3.24685e-07
-4.06938e-07 -7.6069e-07 -4.34636e-08
-1.28705e-07 -6.74253e-06 -3.85248e-07
2.32553e-06 -2.97946e-06 -6.43996e-06
5.56595e-06 -2.07581e-06 -4.48676e-06
5.43014e-06 8.69988e-08 1.88044e-07
2.00048e-06 2.19703e-06 4.74879e-06
-2.64264e-06 2.97438e-06 6.42898e-06
-5.68278e-06 1.9475e-06 4.20944e-06
-5.27581e-06 -2.607e-07 -5.63491e-07
-1.66861e-06 -2.31077e-06 -4.99461e-06
3.06105e-06 4.54207e-06 -8.4768e-06
7.32635e-06 3.16449e-06 -5.90584e-06
7.14759e-06 -1.32626e-07 2.47519e-07
2.63319e-06 -3.34929e-06 6.25074e-06
-3.47846e-06 -4.53432e-06 8.46234e-06
-7.48013e-06 -2.96889e-06 5.5408e-06
-6.94445e-06 3.97427e-07 -7.41713e-07
-2.19636e-06 3.52267e-06 -6.57431e-06
1.93978e-06 9.30844e-06 -5.37172e-06
4.64269e-06 6.48525e-06 -3.74252e-06
4.52941e-06 -2.71802e-07 1.56852e-07
1.66865e-06 -6.86399e-06 3.96107e-06
-2.20429e-06 -9.29257e-06 5.36256e-06
-4.74014e-06 -6.0844e-06 3.51119e-06
-4.40068e-06 8.14481e-07 -4.70021e-07
-1.39183e-06 7.21931e-06 -4.16612e-06
