# vtk DataFile Version 3.0
Velocity field
ASCII
DATASET STRUCTURED_POINTS
DIMENSIONS 10 10 10
SPACING 0.631579 0.631579 0.631579
ORIGIN 0 0 0
POINT_DATA 1000
VECTORS velocity float
0 0.437364 0
0 0.352995 0
0 0.132438 0
0 -0.139215 0
0 -0.357157 0
0 -0.437306 0
0 -0.348738 0
0 -0.125625 0
0 0.145955 0
0 0.361225 0
0 0.268626 0.342597
0 0.216807 0.287351
0 0.0813422 0.107809
0 -0.0855047 -0.113326
0 -0.219363 -0.290739
0 -0.26859 -0.355983
0 -0.214193 -0.283886
0 -0.0771581 -0.102264
0 0.0896446 0.118813
0 0.221862 0.282956
0 -0.00375035 0.553018
0 -0.0030269 0.46384
0 -0.00113564 0.174025
0 0.00119375 -0.18293
0 0.00306259 -0.46931
0 0.00374985 -0.574626
0 0.0029904 -0.458247
0 0.00107722 -0.165073
0 -0.00125155 0.191787
0 -0.00309747 0.456745
0 -0.274679 0.55008
0 -0.221693 0.461376
0 -0.0831754 0.1731
0 0.0874317 -0.181958
0 0.224307 -0.466816
0 0.274643 -0.571573
0 0.21902 -0.455813
0 0.0788969 -0.164196
0 -0.0916648 0.190768
0 -0.226862 0.454319
0 -0.439635 0.334918
0 -0.354828 0.28091
0 -0.133125 0.105393
0 0.139938 -0.110786
0 0.359012 -0.284222
0 0.439577 -0.348003
0 0.350549 -0.277523
0 0.126278 -0.0999712
0 -0.146713 0.11615
0 -0.363101 0.276613
0 -0.434976 -0.00945897
0 -0.351068 -0.00793363
0 -0.131715 -0.00297657
0 0.138455 0.00312888
0 0.355208 0.00802718
0 0.434919 0.00982854
0 0.346835 0.00783797
0 0.124939 0.00282345
0 -0.145158 -0.00328038
0 -0.359253 -0.00781229
0 -0.262501 -0.350186
0 -0.211863 -0.293716
0 -0.0794875 -0.110197
0 0.0835551 0.115836
0 0.214361 0.29718
0 0.262466 0.363869
0 0.209309 0.290174
0 0.0753987 0.104529
0 -0.0876005 -0.121445
0 -0.216803 -0.289224
0 0.0112502 -0.555809
0 0.00907997 -0.466181
0 0.00340665 -0.174903
0 -0.00358098 0.183853
0 -0.00918704 0.471678
0 -0.0112487 0.577526
0 -0.00897049 0.46056
0 -0.00323142 0.165906
0 0.00375436 -0.192755
0 0.00929167 -0.45905
0 0.28066 -0.546996
0 0.22652 -0.458789
0 0.0849864 -0.17213
0 -0.0893354 0.180938
0 -0.229191 0.464199
0 -0.280623 0.568369
0 -0.223788 0.453257
0 -0.0806148 0.163276
0 0.0936607 -0.189699
0 0.231801 -0.451772
0 0.44179 -0.327149
0 0.356567 -0.264041
0 0.133778 -0.0990635
0 -0.140624 0.104133
0 -0.360771 0.267154
0 -0.441731 0.327105
0 -0.352267 0.260857
0 -0.126896 0.0939678
0 0.147432 -0.109175
0 0.36488 -0.270197
0 0.352995 0
0 0.299721 0
0 0.11245 0
0 -0.118205 0
0 -0.303255 0
0 -0.371308 0
0 -0.296107 0
0 -0.106666 0
0 0.123928 0
0 0.291543 0
0.0498132 0.216807 0.379159
0.13497 0.181325 0.317104
0.166282 0.0680856 0.119071
0.133405 -0.0715722 -0.125168
0.0490599 -0.183619 -0.321121
-0.0542135 -0.224825 -0.393182
-0.136571 -0.179291 -0.313551
-0.166237 -0.0645873 -0.112953
-0.131738 0.0749127 0.131006
-0.0448167 0.179064 0.313153
0.0804081 -0.0030269 0.612036
0.217868 -0.00252336 0.511866
0.26841 -0.000947418 0.192203
0.215343 0.000995934 -0.202046
0.0791925 0.00255508 -0.51835
-0.087511 0.00312844 -0.634672
-0.220451 0.00249485 -0.506132
-0.268339 0.000898735 -0.182328
-0.212649 -0.00104258 0.211469
-0.0723427 -0.00249995 0.505489
0.0799809 -0.221693 0.608784
0.216711 -0.185187 0.509147
0.266984 -0.0695347 0.191182
0.214198 0.0730957 -0.200972
0.0787717 0.187528 -0.515596
-0.0870463 0.229609 -0.6313
-0.219281 0.183107 -0.503443
-0.266914 0.0659621 -0.181359
-0.21152 -0.0765091 0.210345
-0.0719584 -0.183099 0.502804
0.0486966 -0.354828 0.37066
0.131945 -0.2964 0.309994
0.162554 -0.111293 0.116402
0.130415 0.116992 -0.122362
0.0479602 0.300144 -0.313922
-0.052998 0.367499 -0.384368
-0.133509 0.29307 -0.306522
-0.162511 0.105575 -0.110421
-0.128784 -0.122456 0.128069
-0.043812 -0.293057 0.306133
-0.00137532 -0.351068 -0.0104684
-0.00372646 -0.293259 -0.00875507
-0.00459097 -0.110114 -0.00328749
-0.00368326 0.115753 0.00345584
-0.00135453 0.296964 0.00886599
0.0014968 0.363604 0.0108556
0.00377066 0.289965 0.00865701
0.00458976 0.104456 0.00311858
0.00363722 -0.121158 -0.003617
0.00123737 -0.289952 -0.00864601
-0.0509166 -0.211863 -0.387558
-0.13796 -0.176976 -0.324127
-0.169965 -0.0664517 -0.121708
-0.13636 0.0698545 0.127941
-0.0501467 0.179212 0.328233
0.0554141 0.219429 0.401891
0.139596 0.174989 0.320497
0.16992 0.0630374 0.115455
0.134655 -0.073117 -0.133907
0.0458094 -0.174981 -0.320089
-0.0808139 0.00907997 -0.615124
-0.218966 0.00758195 -0.514445
-0.269763 0.00284685 -0.193172
-0.216428 -0.00299263 0.203064
-0.0795918 -0.00767762 0.520963
0.0879519 -0.00940051 0.637872
0.221562 -0.00749665 0.508683
0.269692 -0.00270057 0.183246
0.213721 0.00313249 -0.212535
0.0727078 0.00749927 -0.50804
-0.0795325 0.22652 -0.605371
-0.215407 0.189027 -0.506092
-0.265377 0.0709737 -0.190032
-0.212908 -0.074608 0.199763
-0.0782974 -0.191407 0.512495
0.086522 -0.23436 0.627502
0.217961 -0.186896 0.500414
0.265307 -0.0673268 0.180268
0.210247 0.0780981 -0.209086
0.071555 0.187086 -0.499985
-0.047567 0.356567 -0.362062
-0.124349 0.287784 -0.292219
-0.153157 0.107972 -0.109635
-0.122875 -0.113497 0.115246
-0.0451874 -0.291177 0.295664
0.0499339 -0.356519 0.362014
0.12579 -0.284314 0.288695
0.153116 -0.102418 0.103996
0.121368 0.118992 -0.120826
0.0427958 0.294493 -0.299032
0 0.132438 0
0 0.11245 0
0 0.0421895 0
0 -0.0443484 0
0 -0.113776 0
0 -0.139308 0
0 -0.111094 0
0 -0.0400193 0
0 0.0464956 0
0 0.109382 0
0.0804081 0.0813422 0.269438
0.217868 0.0680856 0.225262
0.26841 0.0255661 0.0845844
0.215343 -0.0268754 -0.0889158
0.0791925 -0.068949 -0.228114
-0.087511 -0.0844215 -0.279305
-0.220451 -0.0673237 -0.222738
-0.268339 -0.0242526 -0.080239
-0.212649 0.028128 0.0930629
-0.0723427 0.0671816 0.222533
0.129794 -0.00113564 0.434925
0.351681 -0.000947418 0.363615
0.433268 -0.000355728 0.136535
0.347605 0.000373941 -0.143528
0.127832 0.000959351 -0.368221
-0.141259 0.00117464 -0.450852
-0.35585 0.000936741 -0.359541
-0.433153 0.000337449 -0.129521
-0.343257 -0.000391437 0.150221
-0.116775 -0.00093794 0.359211
0.129105 -0.0831754 0.432615
0.349813 -0.0695347 0.361683
0.430966 -0.0261098 0.13581
0.345759 0.0274469 -0.142765
0.127153 0.0704154 -0.366265
-0.140509 0.0862174 -0.448457
-0.35396 0.0687556 -0.357631
-0.430851 0.0247684 -0.128832
-0.341433 -0.0287271 0.149423
-0.116155 -0.0686956 0.357303
0.0786056 -0.133125 0.263398
0.212984 -0.111293 0.220212
0.262395 -0.0417899 0.0826882
0.210515 0.0439299 -0.0869231
0.077417 0.112703 -0.223001
-0.0855491 0.137994 -0.273044
-0.21551 0.110046 -0.217746
-0.262325 0.0396429 -0.07844
-0.207882 -0.0459788 0.0909767
-0.0707211 -0.10995 0.217544
-0.00222003 -0.131715 -0.00743907
-0.00601523 -0.110114 -0.00621938
-0.00741069 -0.041347 -0.00233534
-0.00594551 0.0434646 0.00245493
-0.00218646 0.111508 0.00629818
0.00241613 0.136531 0.00771152
0.00608656 0.10888 0.00614967
0.00740872 0.0392227 0.00221535
0.00587119 -0.0454916 -0.00256942
0.00199735 -0.108785 -0.00614403
-0.0821892 -0.0794875 -0.275406
-0.222694 -0.0664516 -0.230251
-0.274356 -0.0249522 -0.0864584
-0.220112 0.02623 0.0908855
-0.0809464 0.0672932 0.233168
0.089449 0.0823942 0.285492
0.225334 0.0657072 0.227671
0.274283 0.0236703 0.0820158
0.21736 -0.0274534 -0.0951243
0.0739452 -0.0656498 -0.227462
-0.130449 0.00340665 -0.43712
-0.353453 0.00284685 -0.365448
-0.435452 0.00106896 -0.137224
-0.349358 -0.0011237 0.144251
-0.128476 -0.00288285 0.370077
0.141971 -0.00352978 0.453125
0.357644 -0.00281489 0.361353
0.435336 -0.00101403 0.130174
0.344988 0.00117615 -0.150978
0.117364 0.0028136 -0.361024
-0.128381 0.0849864 -0.430189
-0.347708 0.0709737 -0.359513
-0.428371 0.0266492 -0.134993
-0.343676 -0.0280138 0.141906
-0.126387 -0.0718698 0.364062
0.139662 -0.0879979 0.445759
0.35183 -0.0701757 0.35548
0.428257 -0.02528 0.128058
0.339379 0.0293227 -0.148529
0.115504 0.0701914 -0.355299
-0.0767823 0.133778 -0.257289
-0.200724 0.107972 -0.207657
-0.247224 0.0405091 -0.0779092
-0.198344 -0.0425821 0.0818961
-0.0729412 -0.109245 0.210105
0.080603 -0.13376 0.257254
0.20305 -0.10667 0.205153
0.247159 -0.0384254 0.0739017
0.195912 0.0446437 -0.0858612
0.0690806 0.110489 -0.212498
0 -0.139215 0
0 -0.118205 0
0 -0.0443484 0
0 0.0466179 0
0 0.119599 0
0 0.146437 0
0 0.116779 0
0 0.0420672 0
0 -0.0488749 0
0 -0.114979 0
0.0799809 -0.0855047 0.0557662
0.216711 -0.0715722 0.0466224
0.266984 -0.0268754 0.0175064
0.214198 0.0282516 -0.0184029
0.0787717 0.07248 -0.047213
-0.0870463 0.0887447 -0.0578078
-0.219281 0.0707713 -0.0460998
-0.266914 0.0254946 -0.0166069
-0.21152 -0.0295683 0.0192612
-0.0719584 -0.0706195 0.0460581
0.129105 0.00119375 0.0900174
0.349813 0.000995934 0.0752571
0.430966 0.000373941 0.0282587
0.345759 -0.000393092 -0.0297058
0.127153 -0.00100847 -0.0762106
-0.140509 -0.00123479 -0.0933129
-0.35396 -0.000984709 -0.0744139
-0.430851 -0.000354726 -0.0268068
-0.341433 0.00041148 0.0310913
-0.116155 0.000985937 0.0743466
0.128419 0.0874317 0.0895392
0.347955 0.0730957 0.0748572
0.428676 0.0274469 0.0281086
0.343921 -0.0288525 -0.029548
0.126477 -0.0740212 -0.0758056
-0.139762 -0.0906321 -0.092817
-0.352081 -0.0722767 -0.0740187
-0.428562 -0.0260367 -0.0266644
-0.339619 0.0301981 0.0309261
-0.115538 0.072211 0.0739517
0.0781881 0.139938 0.0545161
0.211852 0.116992 0.0455771
0.261001 0.0439299 0.017114
0.209397 -0.0461795 -0.0179904
0.0770058 -0.118474 -0.0461544
-0.0850945 -0.145061 -0.0565118
-0.214365 -0.115682 -0.0450665
-0.260932 -0.0416728 -0.0162347
-0.206778 0.0483332 0.0188294
-0.0703454 0.115577 0.0450256
-0.00220824 0.138455 -0.00153968
-0.00598327 0.115753 -0.00128722
-0.00737131 0.0434646 -0.000483344
-0.00591396 -0.0456901 0.000508097
-0.00217485 -0.117219 0.00130352
0.0024033 -0.143523 0.00159605
0.00605423 -0.114455 0.0012728
0.00736936 -0.0412312 0.00045851
0.00583998 0.0478211 -0.000531792
0.00198674 0.114352 -0.00127164
-0.0817526 0.0835551 -0.0570015
-0.221511 0.0698545 -0.0476549
-0.272899 0.02623 -0.0178942
-0.218944 -0.0275732 0.0188105
-0.0805167 -0.0707394 0.0482585
0.0889738 -0.086614 0.0590881
0.224137 -0.069072 0.0471212
0.272826 -0.0248823 0.0169748
0.216205 0.0288592 -0.0196878
0.0735524 0.0690093 -0.0470783
-0.129756 -0.00358098 -0.0904717
-0.351576 -0.00299263 -0.0756364
-0.433138 -0.0011237 -0.0284011
-0.347502 0.00118124 0.0298555
-0.127794 0.00303048 0.0765947
0.141217 0.00371053 0.0937834
0.355744 0.00295905 0.074789
0.433024 0.00106596 0.0269419
0.343154 -0.00123637 -0.0312479
0.116741 -0.00295758 -0.0747218
-0.127699 -0.0893354 -0.0890372
-0.345861 -0.074608 -0.0744084
-0.426095 -0.0280138 -0.0279395
-0.34185 0.0294483 0.0293702
-0.125715 0.07555 0.0753496
0.138921 0.0925039 0.0922586
0.349962 0.0737692 0.0735736
0.425981 0.0265744 0.026504
0.337576 -0.0308242 -0.030741
0.11489 -0.0737833 -0.0735371
-0.0763744 -0.140624 -0.0532516
-0.199657 -0.113497 -0.0429791
-0.245911 -0.0425821 -0.016125
-0.19729 0.0447611 0.0169502
-0.0725537 0.114835 0.0434859
0.0801748 0.140605 0.0532445
0.201971 0.112128 0.0424609
0.245846 0.0403917 0.0152956
0.194871 -0.0469283 -0.0177709
0.0687136 -0.116143 -0.0439812
0 -0.357157 0
0 -0.303256 0
0 -0.113776 0
0 0.119599 0
0 0.306832 0
0 0.375687 0
0 0.299599 0
0 0.107924 0
0 -0.125389 0
0 -0.294981 0
0.0486966 -0.219363 -0.179421
0.131945 -0.183619 -0.150001
0.162554 -0.068949 -0.0563246
0.130415 0.07248 0.0592089
0.0479602 0.185948 0.151901
-0.052998 0.227675 0.185989
-0.133509 0.181565 0.14832
-0.162511 0.0654066 0.0534307
-0.128784 -0.0758578 -0.0619704
-0.043812 -0.181175 -0.148186
0.0786056 0.00306259 -0.28962
0.212984 0.00255508 -0.24213
0.262395 0.000959351 -0.0909187
0.210515 -0.00100847 0.0955746
0.077417 -0.00258726 0.245198
-0.0855491 -0.00316789 0.300221
-0.21551 -0.00252627 0.239418
-0.262325 -0.000910054 0.0862477
-0.207882 0.00105565 -0.100032
-0.0707211 0.00252943 -0.239201
0.0781881 0.224307 -0.288081
0.211852 0.187528 -0.240844
0.261001 0.0704153 -0.0904356
0.209397 -0.0740212 0.0950671
0.0770058 -0.189903 0.243895
-0.0850945 -0.232518 0.298626
-0.214365 -0.185426 0.238146
-0.260932 -0.0667975 0.0857893
-0.206778 0.0774735 -0.0995005
-0.0703454 0.185258 -0.23793
0.047605 0.359012 -0.175399
0.128987 0.300144 -0.146639
0.158911 0.112703 -0.0550619
0.127492 -0.118474 0.0578818
0.0468853 -0.303946 0.148496
-0.0518099 -0.372154 0.181819
-0.130517 -0.296781 0.144996
-0.158869 -0.106912 0.052233
-0.125897 0.124 -0.0605812
-0.0428299 0.296513 -0.144864
-0.00134449 0.355208 0.00495373
-0.00364294 0.296964 0.00414147
-0.00448805 0.111508 0.0015551
-0.0036007 -0.117219 -0.00163473
-0.00132416 -0.300725 -0.00419392
0.00146326 -0.36821 -0.00513505
0.00368612 -0.293637 -0.00409507
0.00448686 -0.105779 -0.00147521
0.00355568 0.122686 0.00171098
0.00120963 0.293371 0.00409136
-0.0497752 0.214361 0.183395
-0.134867 0.179212 0.153324
-0.166155 0.0672932 0.0575723
-0.133304 -0.0707394 -0.0605204
-0.0490225 -0.181482 -0.155266
0.0541721 -0.222208 -0.190109
0.136466 -0.177204 -0.151606
0.166111 -0.0638359 -0.0546144
0.131637 0.0740386 0.063343
0.0447825 0.177044 0.151469
-0.0790023 -0.00918704 0.291081
-0.214057 -0.00767761 0.243351
-0.263717 -0.00288285 0.0913769
-0.211576 0.00303048 -0.0960562
-0.0778072 0.00777472 -0.246434
0.0859804 0.00951944 -0.301734
0.216596 0.00759148 -0.240625
0.263647 0.00273474 -0.0866824
0.20893 -0.00317193 0.100536
0.071078 -0.0075877 0.240408
-0.0777497 -0.229191 0.286466
-0.210578 -0.191407 0.239399
-0.259429 -0.0718698 0.0898917
-0.208136 0.07555 -0.0944954
-0.0765421 0.193824 -0.242428
0.0845822 0.23732 -0.29683
0.213074 0.189256 -0.236713
0.25936 0.0681769 -0.0852732
0.205534 -0.0790797 0.098905
0.069951 -0.189292 0.236596
-0.0465007 -0.360771 0.17133
-0.121562 -0.291177 0.13828
-0.149723 -0.109245 0.0518803
-0.120121 0.114835 -0.0545352
-0.0441745 0.294611 -0.139911
0.0488146 0.360723 -0.171307
0.122971 0.287666 -0.136613
0.149684 0.103625 -0.0492117
0.118648 -0.120395 0.0571756
0.0418364 -0.297966 0.141504
0 -0.437306 0
0 -0.371308 0
0 -0.139308 0
0 0.146437 0
0 0.375687 0
0 0.459993 0
0 0.366831 0
0 0.132143 0
0 -0.153527 0
0 -0.361177 0
-0.00137532 -0.26859 -0.345386
-0.00372647 -0.224825 -0.288753
-0.00459097 -0.0844215 -0.108425
-0.00368326 0.0887447 0.113977
-0.00135453 0.227675 0.292411
0.0014968 0.278767 0.358029
0.00377066 0.222309 0.285518
0.00458976 0.0800844 0.102854
0.00363722 -0.0928808 -0.119293
0.00123737 -0.221832 -0.285259
-0.00222003 0.00374985 -0.557519
-0.00601523 0.00312844 -0.466103
-0.00741069 0.00117464 -0.175019
-0.00594551 -0.00123479 0.183981
-0.00218646 -0.00316789 0.472006
0.00241613 -0.00387876 0.57793
0.00608656 -0.00309319 0.460881
0.00740872 -0.00111428 0.166026
0.00587119 0.00129255 -0.192562
0.00199735 0.00309705 -0.460463
-0.00220824 0.274643 -0.554558
-0.00598327 0.229609 -0.463627
-0.00737131 0.0862174 -0.17409
-0.00591396 -0.0906321 0.183004
-0.00217485 -0.232518 0.469499
0.0024033 -0.284697 0.574859
0.00605423 -0.227037 0.458432
0.00736936 -0.0817872 0.165145
0.00583998 0.0948593 -0.191539
0.00198674 0.226831 -0.458017
-0.00134449 0.439577 -0.337644
-0.00364294 0.367499 -0.28228
-0.00448805 0.137994 -0.105995
-0.0036007 -0.145061 0.111422
-0.00132416 -0.372154 0.285856
0.00146326 -0.455667 0.350005
0.00368612 -0.363382 0.279117
0.00448686 -0.130904 0.100549
0.00355568 0.151826 -0.116619
0.00120963 0.363052 -0.278865
3.7972e-05 0.434919 0.00953596
0.000102885 0.363604 0.00797233
0.000126755 0.136531 0.00299355
0.000101694 -0.143523 -0.00314688
3.73978e-05 -0.36821 -0.00807331
-4.13258e-05 -0.450839 -0.00988504
-0.000104107 -0.359531 -0.00788304
-0.000126722 -0.129517 -0.00283976
-0.000100422 0.150217 0.00329363
-3.41632e-05 0.359205 0.00787588
0.00140578 0.262466 0.353036
0.003809 0.219429 0.295149
0.00469266 0.0823942 0.110827
0.00376486 -0.086614 -0.116502
0.00138452 -0.222208 -0.298886
-0.00152996 -0.272073 -0.365959
-0.00385419 -0.216971 -0.291843
-0.00469141 -0.0781611 -0.105133
-0.00371778 0.0906533 0.121936
-0.00126478 0.216774 0.291578
0.00223124 -0.0112487 0.560333
0.00604556 -0.00940051 0.468452
0.00744806 -0.00352978 0.175901
0.00597546 0.00371053 -0.184909
0.00219748 0.00951944 -0.474385
-0.00242831 0.0116557 -0.580844
-0.00611723 0.00929503 -0.463205
-0.00744609 0.00334843 -0.166864
-0.00590077 -0.00388373 0.193533
-0.00200743 -0.00929043 0.462787
0.00219586 -0.280623 0.551449
0.00594729 -0.23436 0.460845
0.00732694 -0.0879978 0.173043
0.00587835 0.0925039 -0.181903
0.00216176 0.23732 -0.466675
-0.00238882 0.290577 -0.571401
-0.00601776 0.231726 -0.455675
-0.007325 0.0834764 -0.164151
-0.00580483 -0.0968258 0.190393
-0.0019756 -0.23177 0.455449
0.0013133 -0.441731 0.329812
0.00343323 -0.356519 0.26619
0.00422859 -0.13376 0.0998699
0.00339253 0.140605 -0.104981
0.0012476 0.360723 -0.269329
-0.00137865 0.441672 -0.329768
-0.00347302 0.352221 -0.26298
-0.00422746 0.12688 -0.0947327
-0.00335093 -0.147412 0.110063
-0.00118157 -0.364832 0.272396
0 -0.348738 0
0 -0.296107 0
0 -0.111094 0
0 0.116779 0
0 0.299599 0
0 0.366831 0
0 0.292537 0
0 0.10538 0
0 -0.122433 0
0 -0.288028 0
-0.0509166 -0.214193 -0.378099
-0.13796 -0.179291 -0.316102
-0.169965 -0.0673237 -0.118694
-0.13636 0.0707713 0.124773
-0.0501467 0.181565 0.320107
0.0554141 0.222309 0.391939
0.139596 0.177285 0.31256
0.16992 0.0638648 0.112596
0.134655 -0.0740698 -0.130592
0.0458094 -0.176904 -0.312277
-0.0821892 0.0029904 -0.610324
-0.222694 0.00249485 -0.510249
-0.274356 0.000936741 -0.191595
-0.220112 -0.000984709 0.201408
-0.0809464 -0.00252627 0.516712
0.089449 -0.00309319 0.632667
0.225334 -0.00246674 0.504532
0.274283 -0.000888609 0.181752
0.21736 0.00103077 -0.2108
0.0739452 0.00246981 -0.504075
-0.0817526 0.21902 -0.607082
-0.221511 0.183107 -0.507538
-0.272899 0.0687556 -0.190578
-0.218944 -0.0722767 0.200337
-0.0805167 -0.185426 0.513967
0.0889738 -0.227037 0.629306
0.224137 -0.181055 0.501852
0.272826 -0.0652232 0.180786
0.216205 0.0756472 -0.209681
0.0735524 0.180891 -0.501397
-0.0497752 0.350549 -0.369623
-0.134867 0.29307 -0.309015
-0.166155 0.110046 -0.116034
-0.133304 -0.115682 0.121976
-0.0490225 -0.296781 0.31293
0.0541721 -0.363382 0.383153
0.136466 -0.289787 0.305554
0.166111 -0.104392 0.110072
0.131637 0.121077 -0.127665
0.0447825 0.289523 -0.305277
0.00140578 0.346835 0.0104391
0.003809 0.289965 0.00872743
0.00469266 0.10888 0.00327709
0.00376486 -0.114455 -0.00344492
0.00138452 -0.293637 -0.00883796
-0.00152996 -0.359531 -0.0108213
-0.00385419 -0.286716 -0.00862967
-0.00469141 -0.103286 -0.00310873
-0.00371778 0.119794 0.00360558
-0.00126478 0.286455 0.00862183
0.0520444 0.209309 0.386474
0.141015 0.174989 0.323104
0.173731 0.0657072 0.121323
0.139381 -0.069072 -0.127537
0.0512575 -0.177204 -0.327195
-0.0566417 -0.216971 -0.400621
-0.142688 -0.173028 -0.319485
-0.173684 -0.0623312 -0.11509
-0.137638 0.0722935 0.133485
-0.0468241 0.172871 0.319194
0.0826039 -0.00897049 0.613404
0.223816 -0.00749665 0.512821
0.27574 -0.00281489 0.192561
0.221221 0.00295905 -0.202423
0.0813543 0.00759148 -0.519317
-0.0898999 0.00929503 -0.635857
-0.22647 0.0074125 -0.507075
-0.275666 0.00267026 -0.182668
-0.218456 -0.00309715 0.211863
-0.0743183 -0.00740884 0.506619
0.0812942 -0.223788 0.603678
0.220178 -0.186896 0.504493
0.271256 -0.0701757 0.189432
0.217626 0.0737692 -0.199132
0.080032 0.189256 -0.510876
-0.0884382 0.231726 -0.62552
-0.222788 0.184794 -0.498833
-0.271184 0.0665699 -0.179698
-0.214904 -0.0772156 0.208425
-0.07314 -0.18483 0.498586
0.0486206 -0.352267 0.361049
0.127104 -0.284314 0.291401
0.156549 -0.10667 0.109329
0.125597 0.112128 -0.114924
0.0461883 0.287666 -0.294838
-0.05104 0.352221 -0.361001
-0.128577 0.280885 -0.287888
-0.156508 0.101183 -0.103705
-0.124057 -0.117557 0.120488
-0.0437437 -0.290942 0.298196
0 -0.125625 0
0 -0.106666 0
0 -0.0400193 0
0 0.0420672 0
0 0.107924 0
0 0.132143 0
0 0.10538 0
0 0.0379607 0
0 -0.0441039 0
0 -0.103755 0
-0.0808139 -0.0771581 -0.264938
-0.218966 -0.0645874 -0.221497
-0.269763 -0.0242526 -0.083171
-0.216428 0.0254946 0.0874306
-0.0795918 0.0654067 0.224303
0.0879519 0.0800845 0.274638
0.221562 0.0638648 0.219017
0.269692 0.0230065 0.078898
0.213721 -0.0266827 -0.0915078
0.0727078 -0.0637259 -0.218816
-0.130449 0.00107722 -0.427661
-0.353453 0.000898735 -0.357539
-0.435452 0.000337449 -0.134254
-0.349358 -0.000354726 0.141129
-0.128476 -0.000910054 0.362068
0.141971 -0.00111428 0.443319
0.357644 -0.000888609 0.353534
0.435336 -0.00032011 0.127356
0.344988 0.000371323 -0.147711
0.117364 0.000889694 -0.353211
-0.129756 0.0788969 -0.425389
-0.351576 0.0659621 -0.355639
-0.433138 0.0247684 -0.133541
-0.347502 -0.0260368 0.14038
-0.127794 -0.0667975 0.360145
0.141217 -0.0817873 0.440964
0.355744 -0.0652232 0.351656
0.433024 -0.0234959 0.12668
0.343154 0.0272511 -0.146927
0.116741 0.065162 -0.351335
-0.0790023 0.126278 -0.258999
-0.214057 0.105575 -0.216532
-0.263717 0.0396429 -0.0813065
-0.211576 -0.0416729 0.0854704
-0.0778072 -0.106912 0.219276
0.0859804 -0.130904 0.268481
0.216596 -0.104392 0.214106
0.263647 -0.037606 0.0771292
0.20893 0.0436164 -0.0894565
0.071078 0.104294 -0.213911
0.00223124 0.124939 0.00731482
0.00604555 0.104456 0.00611544
0.00744806 0.0392228 0.00229632
0.00597546 -0.0412312 -0.00241391
0.00219748 -0.105779 -0.00619289
-0.00242831 -0.129517 -0.00758263
-0.00611723 -0.103286 -0.00604693
-0.00744609 -0.0372075 -0.00217834
-0.00590077 0.0431542 0.0025265
-0.00200743 0.103189 0.00604141
0.0826039 0.0753987 0.270807
0.223816 0.0630374 0.226404
0.27574 0.0236703 0.0850133
0.221222 -0.0248823 -0.0893667
0.0813543 -0.063836 -0.229271
-0.0898999 -0.0781612 -0.280721
-0.22647 -0.0623312 -0.223867
-0.275666 -0.0224541 -0.0806457
-0.218456 0.0260428 0.0935349
-0.0743183 0.0622728 0.223663
0.131107 -0.00323142 0.429819
0.355234 -0.00270058 0.359341
0.437647 -0.00101404 0.134931
0.351117 0.00106596 -0.141841
0.129123 0.00273474 -0.363893
-0.142687 0.00334843 -0.445553
-0.359447 0.00267027 -0.355315
-0.43753 0.000961933 -0.127998
-0.346727 -0.00111571 0.148456
-0.117957 -0.00266887 0.354994
0.129029 -0.0806148 0.423004
0.349461 -0.0673268 0.353506
0.43053 -0.02528 0.132738
0.345409 0.0265744 -0.139535
0.127024 0.0681769 -0.357978
-0.140367 0.0834765 -0.438312
-0.353602 0.06657 -0.349542
-0.430416 0.023981 -0.125918
-0.341089 -0.0278159 0.146047
-0.116086 -0.0665808 0.349365
0.0771697 -0.126896 0.252991
0.201737 -0.102418 0.204188
0.248472 -0.0384254 0.076608
0.199345 0.0403917 -0.0805282
0.0733093 0.103625 -0.206596
-0.0810097 0.12688 -0.252958
-0.204075 0.101183 -0.201726
-0.248406 0.0364488 -0.0726673
-0.1969 -0.0423473 0.0844271
-0.0694292 -0.104806 0.208949
0 0.145955 0
0 0.123928 0
0 0.0464956 0
0 -0.0488749 0
0 -0.125389 0
0 -0.153527 0
0 -0.122433 0
0 -0.0441039 0
0 0.0512412 0
0 0.120546 0
-0.0795325 0.0896446 -0.0495625
-0.215407 0.0749105 -0.0415396
-0.265377 0.0281272 -0.0155993
-0.212909 -0.0295675 0.0163982
-0.0782974 -0.0758557 0.0420697
0.086522 -0.0928782 0.0515104
0.217961 -0.0740676 0.041078
0.265307 -0.0266819 0.0147979
0.210247 0.0309493 -0.0171598
0.071555 0.0740386 -0.0409343
-0.128381 -0.00125155 -0.0800034
-0.347708 -0.00104255 -0.0670529
-0.428371 -0.000391425 -0.0251803
-0.343676 0.000411467 0.0264698
-0.126387 0.00105562 0.0679086
0.139663 0.00129251 0.0831476
0.35183 0.00103074 0.0663078
0.428257 0.000371311 0.0238867
0.339379 -0.000430763 -0.0276993
0.115504 -0.00103367 -0.0660759
-0.127699 -0.0916648 -0.0795784
-0.345861 -0.0765068 -0.0666967
-0.426095 -0.0287263 -0.0250465
-0.34185 0.0301972 0.0263292
-0.125715 0.0774711 0.0675478
0.138921 0.0948564 0.082706
0.349962 0.075645 0.0659557
0.425981 0.0272502 0.0237599
0.337576 -0.0316094 -0.0275521
0.11489 -0.0757072 -0.0657249
-0.0777497 -0.146713 -0.0484515
-0.210578 -0.122452 -0.0406084
-0.259429 -0.0459774 -0.0152496
-0.208136 0.0483318 0.0160306
-0.0765421 0.123996 0.0411266
0.0845822 0.151821 0.0503558
0.213074 0.121073 0.0401573
0.25936 0.0436151 0.0144662
0.205534 -0.0505921 -0.0167751
0.069951 -0.121172 -0.0400167
0.00219586 -0.145158 0.0013684
0.00594729 -0.121155 0.00114689
0.00732695 -0.0454903 0.000430689
0.00587835 0.0478197 -0.000452747
0.00216176 0.122682 -0.00116152
-0.00238882 0.150212 -0.00142218
-0.00601776 0.11979 -0.00113415
-0.007325 0.0431529 -0.000408564
-0.00580483 -0.050056 0.000473775
-0.0019756 -0.119888 0.00113018
0.0812942 -0.0876005 0.0506603
0.220178 -0.0731149 0.0424598
0.271256 -0.0274526 0.0159448
0.217626 0.0288584 -0.0167614
0.080032 0.0740364 -0.0430016
-0.0884381 0.0906505 -0.0526514
-0.222788 0.0722913 -0.0419879
-0.271184 0.0260419 -0.0151257
-0.214904 -0.0302079 0.0175399
-0.07314 -0.0723504 0.0418411
0.129029 0.00375436 0.0804071
0.349461 0.0031324 0.0673909
0.43053 0.00117611 0.0253072
0.345409 -0.00123634 -0.0266032
0.127024 -0.00317184 -0.0682508
-0.140367 -0.00388361 -0.0835668
-0.353602 -0.00309706 -0.0666419
-0.430416 -0.00111568 -0.0240071
-0.341089 0.0012942 0.0278389
-0.116086 0.00310077 0.0664094
0.126983 0.0936607 0.0791323
0.343783 0.0780959 0.0662938
0.423532 0.0293218 0.0248948
0.339794 -0.0308233 -0.0261697
0.124959 -0.0790774 -0.0671386
-0.138085 -0.096823 -0.0822049
-0.347857 -0.0772134 -0.065556
-0.42342 -0.0278151 -0.0236159
-0.335547 0.0322671 0.0273861
-0.114246 0.0773556 0.0653564
0.0759462 0.147432 0.0473276
0.198538 0.118992 0.0381979
0.244532 0.0446437 0.0143312
0.196184 -0.0469283 -0.0150646
0.0721469 -0.120395 -0.0386483
-0.0797253 -0.147412 -0.0473213
-0.200839 -0.117557 -0.0377373
-0.244467 -0.0423473 -0.013594
-0.193779 0.0492004 0.015794
-0.0683284 0.121766 0.0390885
0 0.361225 0
0 0.291543 0
0 0.109382 0
0 -0.114979 0
0 -0.294981 0
0 -0.361177 0
0 -0.288028 0
0 -0.103756 0
0 0.120546 0
0 0.29834 0
-0.047567 0.221862 0.184935
-0.124349 0.179064 0.14926
-0.153157 0.0671816 0.0559999
-0.122875 -0.0706195 -0.0588656
-0.0451874 -0.181175 -0.15102
0.0499339 -0.221832 -0.18491
0.12579 -0.176904 -0.147461
0.153116 -0.0637259 -0.0531193
0.121368 0.0740386 0.0617157
0.0427958 0.183238 0.15274
-0.0767823 -0.00309747 0.298521
-0.200724 -0.00249995 0.240935
-0.247224 -0.00093794 0.0903947
-0.198344 0.000985938 -0.0950204
-0.0729411 0.00252943 -0.243776
0.0806029 0.00309706 -0.298481
0.20305 0.00246981 -0.23803
0.247159 0.000889694 -0.0857449
0.195912 -0.00103367 0.099621
0.0690806 -0.00255824 0.246552
-0.0763744 -0.226862 0.296935
-0.199657 -0.183099 0.239655
-0.245911 -0.0686956 0.0899145
-0.19729 0.072211 -0.0945157
-0.0725536 0.185258 -0.242481
0.0801748 0.226831 -0.296895
0.201971 0.180891 -0.236765
0.245846 0.065162 -0.0852894
0.194871 -0.0757072 0.0990918
0.0687136 -0.187368 0.245243
-0.0465007 -0.363101 0.180789
-0.121562 -0.293057 0.145914
-0.149723 -0.10995 0.0547446
-0.120121 0.115577 -0.0575461
-0.0441744 0.296513 -0.147635
0.0488146 0.363052 -0.180765
0.122971 0.289523 -0.144155
0.149684 0.104294 -0.0519286
0.118648 -0.121172 0.0603322
0.0418364 -0.29989 0.149316
0.0013133 -0.359253 -0.00510597
0.00343323 -0.289952 -0.00412101
0.00422859 -0.108785 -0.00154613
0.00339253 0.114352 0.00162525
0.0012476 0.293371 0.00416961
-0.00137865 0.359205 0.00510529
-0.00347302 0.286455 0.00407132
-0.00422746 0.103189 0.0014666
-0.00335092 -0.119888 -0.00170394
-0.00118157 -0.296712 -0.00421709
0.0486206 -0.216803 -0.189031
0.127104 -0.174981 -0.152566
0.156549 -0.0656498 -0.0572404
0.125597 0.0690093 0.0601695
0.0461883 0.177044 0.154366
-0.05104 0.216774 0.189006
-0.128577 0.172871 0.150727
-0.156508 0.0622728 0.054296
-0.124057 -0.0723504 -0.0630827
-0.0437437 -0.17906 -0.156124
0.0771697 0.00929167 -0.300027
0.201736 0.00749927 -0.242151
0.248472 0.0028136 -0.0908508
0.199345 -0.00295758 0.0954999
0.0733092 -0.0075877 0.245006
-0.0810097 -0.00929043 0.299987
-0.204074 -0.00740885 0.239231
-0.248406 -0.00266887 0.0861776
-0.1969 0.00310077 -0.100124
-0.0694292 0.00767412 -0.247796
0.0759462 0.231801 -0.29527
0.198538 0.187086 -0.238311
0.244532 0.0701914 -0.0894104
0.196184 -0.0737833 0.0939858
0.0721469 -0.189292 0.241122
-0.0797253 -0.23177 0.295231
-0.200839 -0.18483 0.235438
-0.244467 -0.0665808 0.0848112
-0.193778 0.0773556 -0.0985362
-0.0683284 0.191448 -0.243868
0.0454221 0.36488 -0.176596
0.118742 0.294493 -0.14253
0.14625 0.110489 -0.0534747
0.117334 -0.116143 0.0562112
0.0431498 -0.297966 0.14421
-0.0476823 -0.364832 0.176572
-0.120118 -0.290942 0.140811
-0.146212 -0.104806 0.0507241
-0.115895 0.121766 -0.0589327
-0.040866 0.30136 -0.145853
