# vtk DataFile Version 3.0
Velocity field
ASCII
DATASET STRUCTURED_POINTS
DIMENSIONS 5 5 5
SPACING 1.33333 1.33333 1.33333
ORIGIN 0 0 0
POINT_DATA 125
VECTORS velocity float
0 0.427394 0
0 0.100539 0
0 -0.380092 0
0 -0.279363 0
0 0.248659 0
0 -0.226315 0.742254
0 -0.0532379 0.201229
0 0.201268 -0.760756
0 0.14793 -0.559146
0 -0.131671 0.431846
0 -0.533869 0.349212
0 -0.125586 0.0946732
0 0.474784 -0.357917
0 0.34896 -0.263064
0 -0.310607 0.203173
0 -0.0248569 -0.577959
0 -0.00584726 -0.156688
0 0.0221059 0.592365
0 0.0162475 0.435381
0 -0.0144618 -0.336259
0 0.522175 -0.621127
0 0.122835 -0.146112
0 -0.464384 0.552385
0 -0.341316 0.405996
0 0.303803 -0.361374
0 0.100539 0
0 0.030094 0
0 -0.113772 0
0 -0.0836209 0
0 0.0584939 0
0.317682 -0.0532379 0.260667
0.489996 -0.0130664 0.0644263
-0.10271 0.0494465 -0.243844
-0.538366 0.0363498 -0.179262
-0.143547 -0.030974 0.151657
0.149462 -0.125586 0.122637
0.230532 -0.0309271 0.0303111
-0.0483228 0.117044 -0.114722
-0.253288 0.0860438 -0.0843389
-0.0675355 -0.0730664 0.0713508
-0.247364 -0.00584726 -0.202969
-0.381433 -0.00144715 -0.0501522
0.0799536 0.0054777 0.189815
0.419086 0.00402702 0.139544
0.111774 -0.00340196 -0.118088
-0.26584 0.122835 -0.218129
-0.390912 0.0288954 -0.0513122
0.0819262 -0.109241 0.193988
0.429456 -0.0802904 0.142579
0.120122 0.0714659 -0.126908
0 -0.380092 0
0 -0.113772 0
0 0.43012 0
0 0.316133 0
0 -0.221139 0
0.149462 0.201268 -0.619617
0.230532 0.0494465 -0.152748
-0.0483228 -0.187123 0.578096
-0.253288 -0.137562 0.424987
-0.0675355 0.117099 -0.360496
0.070318 0.474784 -0.291514
0.108459 0.117044 -0.0718641
-0.0227346 -0.442969 0.271981
-0.119166 -0.325647 0.199946
-0.0317737 0.276231 -0.169604
-0.116379 0.0221059 0.482467
-0.179455 0.0054777 0.118906
0.0376163 -0.0207348 -0.450015
0.197169 -0.0152437 -0.330827
0.0525867 0.0128613 0.280701
-0.125071 -0.464384 0.518503
-0.183914 -0.109241 0.121971
0.0385442 0.412989 -0.461119
0.202048 0.303542 -0.338916
0.0565145 -0.27018 0.301667
0 -0.279363 0
0 -0.083621 0
0 0.316133 0
0 0.232354 0
0 -0.162534 0
-0.247364 0.14793 -0.552181
-0.381433 0.0363499 -0.136146
0.0799536 -0.137563 0.515267
0.419086 -0.101127 0.378798
0.111774 0.086066 -0.321261
-0.116379 0.34896 -0.259788
-0.179455 0.0860442 -0.0640535
0.0376163 -0.325649 0.242421
0.197169 -0.239401 0.178216
0.0525867 0.203026 -0.151145
0.192611 0.0162475 0.429958
0.296926 0.00402705 0.105983
-0.0622392 -0.0152438 -0.401105
-0.326234 -0.0112069 -0.294872
-0.0870329 0.00945286 0.250151
0.206997 -0.341316 0.462072
0.304385 -0.0802904 0.108697
-0.0637921 0.303542 -0.410933
-0.334397 0.223099 -0.30203
-0.0935335 -0.198579 0.268835
0 0.248659 0
0 0.0584939 0
0 -0.221139 0
0 -0.162534 0
0 0.144671 0
-0.26584 -0.131671 0.35983
-0.390911 -0.030974 0.0846454
0.0819262 0.117099 -0.320006
0.429456 0.086066 -0.2352
0.120122 -0.0766067 0.20935
-0.125071 -0.310607 0.169291
-0.183914 -0.0730664 0.0398236
0.0385442 0.276231 -0.150555
0.202048 0.203026 -0.110656
0.0565145 -0.180712 0.098494
0.206997 -0.0144618 -0.280182
0.304384 -0.00340196 -0.0659094
-0.0637921 0.0128613 0.249174
-0.334397 0.00945286 0.183139
-0.0935335 -0.00841393 -0.163011
0.222458 0.303803 -0.30111
0.32712 0.0714659 -0.0708323
-0.0685568 -0.27018 0.267785
-0.359374 -0.198579 0.196818
-0.10052 0.176754 -0.175187
