# vtk DataFile Version 3.0
Velocity field
ASCII
DATASET STRUCTURED_POINTS
DIMENSIONS 8 8 8
SPACING 0.8 0.8 0.8
ORIGIN 0 0 0
POINT_DATA 512
VECTORS velocity float
0 0.260068 0
0 0.181191 0
0 -0.00759386 0
0 -0.191772 0
0 -0.259624 0
0 -0.169992 0
0 0.0227557 0
0 0.2017 0
0 0.102314 0.265438
0 0.0712829 0.196072
0 -0.00298752 -0.00821754
0 -0.0754458 -0.207523
0 -0.10214 -0.280947
0 -0.0668769 -0.183953
0 0.0089524 0.0246246
0 0.0793513 0.205865
0 -0.117502 0.369865
0 -0.0818643 0.27321
0 0.003431 -0.0114504
0 0.0866451 -0.289165
0 0.117301 -0.391475
0 0.0768043 -0.256323
0 -0.0102813 0.0343123
0 -0.0911304 0.286854
0 -0.266043 0.249937
0 -0.185354 0.184622
0 0.00776833 -0.00773764
0 0.196178 -0.195403
0 0.265589 -0.26454
0 0.173897 -0.17321
0 -0.0232785 0.0231866
0 -0.206334 0.193842
0 -0.253206 -0.0215998
0 -0.17641 -0.0159552
0 0.00739349 0.000668694
0 0.186712 0.0168869
0 0.252774 0.0228618
0 0.165506 0.014969
0 -0.0221553 -0.00200381
0 -0.196378 -0.016752
0 -0.0867774 -0.280034
0 -0.0604584 -0.206854
0 0.00253386 0.00866941
0 0.0639891 0.218934
0 0.0866295 0.296396
0 0.0567215 0.194068
0 -0.00759295 -0.0259787
0 -0.0673016 -0.217185
0 0.132289 -0.368603
0 0.0921665 -0.272278
0 -0.00386277 0.0114114
0 -0.097549 0.288179
0 -0.132063 0.39014
0 -0.0864698 0.255448
0 0.0115752 -0.0341953
0 0.102599 -0.285876
0 0.27111 -0.233583
0 0.188884 -0.162739
0 -0.0079163 0.00682051
0 -0.199915 0.172243
0 -0.270648 0.233185
0 -0.17721 0.15268
0 0.0237219 -0.0204383
0 0.210264 -0.181159
0 0.181191 0
0 0.137056 0
0 -0.00574412 0
0 -0.14506 0
0 -0.196384 0
0 -0.128585 0
0 0.0172128 0
0 0.140525 0
0.0565827 0.0712829 0.26218
0.138456 0.0508509 0.186811
0.135087 -0.0021318 -0.00783153
0.0497668 -0.0538339 -0.197768
-0.0657414 -0.0728812 -0.26774
-0.141372 -0.0477196 -0.175306
-0.13124 0.00637826 0.023433
-0.0405992 0.0552846 0.203338
0.0788431 -0.0818643 0.365326
0.192928 -0.0582881 0.260304
0.188232 0.00244352 -0.0109125
0.0693452 0.0617059 -0.275571
-0.0916059 0.0835382 -0.373075
-0.196991 0.0546975 -0.244274
-0.182874 -0.00731177 0.0326518
-0.0565715 -0.0634911 0.283334
0.0532783 -0.185354 0.246869
0.13037 -0.131974 0.175901
0.127199 0.00553262 -0.00737415
0.0468602 0.139714 -0.186219
-0.0619027 0.189146 -0.252106
-0.133115 0.123846 -0.165068
-0.123577 -0.0165551 0.0220644
-0.0382283 -0.143754 0.191463
-0.00460437 -0.17641 -0.0213347
-0.0112668 -0.125606 -0.0152015
-0.0109926 0.00526564 0.000637278
-0.0040497 0.132972 0.0160932
0.00534966 0.180021 0.0217871
0.0115041 0.117871 0.0142653
0.0106796 -0.0157563 -0.00190684
0.00330373 -0.136818 -0.0165465
-0.0596941 -0.0604584 -0.276597
-0.146069 -0.0430476 -0.197083
-0.142515 0.00180462 0.00826213
-0.0525028 0.045572 0.208641
0.0693566 0.0616957 0.282463
0.149145 0.0403958 0.184946
0.138458 -0.00539996 -0.0247216
0.0428317 -0.0468895 -0.214519
-0.0785743 0.0921665 -0.36408
-0.19225 0.0656025 -0.25939
-0.187571 -0.00275017 0.0108741
-0.0691016 -0.0694494 0.274602
0.091284 -0.0940212 0.371763
0.196297 -0.0615614 0.243416
0.182231 0.00822953 -0.0325374
0.0563786 0.0714812 -0.282368
-0.0497923 0.188884 -0.230716
-0.119174 0.131597 -0.160742
-0.116266 -0.00551534 0.00673681
-0.0428326 -0.139282 0.170129
0.0565821 -0.188562 0.230323
0.121675 -0.123463 0.150806
0.112961 0.0165272 -0.0201875
0.035727 0.146492 -0.178936
0 -0.00759386 0
0 -0.00574413 0
0 0.000240741 0
0 0.00607958 0
0 0.00823062 0
0 0.00538908 0
0 -0.000721403 0
0 -0.00588953 0
0.0788431 -0.00298752 0.0998878
0.192928 -0.0021318 0.0711388
0.188232 8.93712e-05 -0.00298228
0.0693452 0.00225687 -0.0753107
-0.0916059 0.00305539 -0.101956
-0.196991 0.00200055 -0.066757
-0.182874 -0.000267386 0.00892361
-0.0565715 -0.00231702 0.0774695
0.109861 0.003431 0.139185
0.268826 0.00244352 0.0991258
0.262283 -0.000102437 -0.00415551
0.0966271 -0.00258682 -0.104938
-0.127645 -0.00350208 -0.142068
-0.274487 -0.00229303 -0.0930212
-0.254819 0.000306515 0.0124343
-0.0788275 0.00266097 0.107947
0.0742388 0.00776833 0.0940544
0.181661 0.00553262 0.0669839
0.17724 -0.000231938 -0.00280812
0.0652951 -0.00585709 -0.0709127
-0.0862558 -0.00792945 -0.0960029
-0.185487 -0.00519182 -0.0628591
-0.172193 0.000694007 0.00840245
-0.0532678 0.00602485 0.0729454
-0.00641579 0.00739349 -0.00812827
-0.0156993 0.00526563 -0.00578887
-0.0153173 -0.000220746 0.00024268
-0.00564293 -0.00557448 0.00612836
0.00745434 -0.00754682 0.00829659
0.01603 -0.00494133 0.00543231
0.0148812 0.000660517 -0.000726153
0.00460346 0.00573414 -0.00630401
-0.0831786 0.00253386 -0.10538
-0.203534 0.00180462 -0.0750502
-0.198584 -7.56533e-05 0.00314627
-0.0731582 -0.00191047 0.0794511
0.0966431 -0.00258639 0.107563
0.20782 -0.00169347 0.0704281
0.19293 0.000226371 -0.00941429
0.0596823 0.00196518 -0.0817295
-0.109486 -0.00386277 -0.13871
-0.267882 -0.00275017 -0.0987772
-0.261362 0.000115291 0.00414092
-0.0962876 0.00291144 0.10457
0.127196 0.00394156 0.141569
0.273523 0.00258076 0.0926942
0.253923 -0.000344988 -0.0123907
0.0785587 -0.00299583 -0.107579
-0.0693812 -0.0079163 -0.0879003
-0.166058 -0.00551534 -0.0612407
-0.162006 0.000231152 0.00256665
-0.0596836 0.00583743 0.0648171
0.0788423 0.0079028 0.0877504
0.169543 0.00517444 0.0574555
0.157402 -0.00069267 -0.0076912
0.0497824 -0.00613961 -0.0681725
0 -0.191772 0
0 -0.14506 0
0 0.00607958 0
0 0.153531 0
0 0.207853 0
0 0.136094 0
0 -0.018218 0
0 -0.148732 0
0.0532783 -0.0754458 -0.122995
0.13037 -0.0538339 -0.087595
0.127199 0.00225687 0.00367215
0.0468602 0.0569922 0.0927325
-0.0619027 0.0771569 0.125542
-0.133115 0.0505191 0.0821995
-0.123577 -0.00675227 -0.0109879
-0.0382283 -0.0585131 -0.0953911
0.0742388 0.0866451 -0.171384
0.181661 0.0617059 -0.122056
0.17724 -0.00258682 0.00511678
0.0652951 -0.0653243 0.129215
-0.0862558 -0.088438 0.174932
-0.185487 -0.0579056 0.114538
-0.172193 0.0077404 -0.0153106
-0.0532678 0.067199 -0.132919
0.0501669 0.196178 -0.115813
0.122757 0.139714 -0.082479
0.11977 -0.00585709 0.00345767
0.0441237 -0.147907 0.0873165
-0.0582875 -0.200241 0.118211
-0.125343 -0.131108 0.0773994
-0.11636 0.0175257 -0.0103461
-0.0359958 0.152149 -0.0898203
-0.00433548 0.186712 0.0100086
-0.0106087 0.132972 0.00712795
-0.0103506 -0.00557448 -0.000298817
-0.00381323 -0.140771 -0.007546
0.00503722 -0.190578 -0.0102158
0.0108322 -0.124783 -0.00668891
0.0100559 0.01668 0.000894126
0.00311079 0.144808 0.00776236
-0.056208 0.0639891 0.129759
-0.137539 0.045572 0.0924118
-0.134192 -0.00191047 -0.00387407
-0.0494372 -0.0482446 -0.0978315
0.0653059 -0.0653136 -0.132444
0.140436 -0.042765 -0.0867198
0.130371 0.00571653 0.0115921
0.0403304 0.0496278 0.100636
-0.0739856 -0.097549 0.170799
-0.181023 -0.0694494 0.121627
-0.176617 0.00291144 -0.00509881
-0.0650658 0.0735217 -0.12876
0.0859527 0.0995356 -0.174318
0.184835 0.0651714 -0.114136
0.171588 -0.00871195 0.015257
0.0530861 -0.0756556 0.132466
-0.0468845 -0.199915 0.108235
-0.112214 -0.139282 0.075408
-0.109476 0.00583743 -0.00316041
-0.0403313 0.147416 -0.0798117
0.0532777 0.199574 -0.10805
0.114569 0.130673 -0.070747
0.106364 -0.0174924 0.00947046
0.0336405 -0.155047 0.0839433
0 -0.259624 0
0 -0.196384 0
0 0.00823062 0
0 0.207853 0
0 0.281394 0
0 0.184246 0
0 -0.0246638 0
0 -0.201356 0
-0.00460437 -0.10214 -0.271271
-0.0112668 -0.0728812 -0.193194
-0.0109926 0.00305539 0.00809906
-0.0040497 0.0771569 0.204522
0.00534966 0.104456 0.276887
0.0115041 0.0683936 0.181296
0.0106796 -0.00914134 -0.0242342
0.00330373 -0.079216 -0.210389
-0.00641579 0.117301 -0.377993
-0.0156993 0.0835382 -0.269197
-0.0153173 -0.00350208 0.0112854
-0.00564293 -0.088438 0.284987
0.00745434 -0.119729 0.38582
0.01603 -0.0783935 0.25262
0.0148812 0.010479 -0.0337681
0.00460346 0.090975 -0.293158
-0.00433548 0.265589 -0.255429
-0.0106087 0.189146 -0.181912
-0.0103506 -0.00792945 0.00762611
-0.00381323 -0.200241 0.19258
0.00503722 -0.271087 0.260715
0.0108322 -0.177498 0.170707
0.0100559 0.0237265 -0.0228189
0.00311079 0.205982 -0.198102
0.000374676 0.252774 0.0220744
0.000916824 0.180021 0.015721
0.000894512 -0.00754682 -0.000659048
0.000329539 -0.190578 -0.0166429
-0.000435324 -0.258009 -0.0225315
-0.000936132 -0.168932 -0.0147528
-0.000869042 0.0225817 0.00197204
-0.000268838 0.196043 0.0171202
0.00485756 0.0866295 0.286188
0.0118863 0.0616957 0.203816
0.0115971 -0.00258639 -0.00854436
0.00427237 -0.0653136 -0.215768
-0.00564387 -0.0884234 -0.292112
-0.0121367 -0.057896 -0.191265
-0.0112669 0.00773912 0.0255666
-0.00348539 0.0671868 0.221958
0.00639391 -0.132063 0.376704
0.0156442 -0.0940212 0.268252
0.0152635 0.00394156 -0.0112457
0.00562311 0.0995356 -0.283985
-0.00742815 0.134752 -0.384465
-0.0159736 0.0882307 -0.251732
-0.0148289 -0.0117943 0.0336498
-0.00458776 -0.102424 0.292159
0.0040518 -0.270648 0.238716
0.00969763 -0.188562 0.166315
0.00946101 0.0079028 -0.0069704
0.00348547 0.199574 -0.176028
-0.00460432 0.270187 -0.238309
-0.00990118 0.176907 -0.156035
-0.00919212 -0.0236815 0.0208875
-0.00290725 -0.209905 0.18514
0 -0.169992 0
0 -0.128585 0
0 0.00538908 0
0 0.136094 0
0 0.184246 0
0 0.120637 0
0 -0.0161489 0
0 -0.13184 0
-0.0596941 -0.0668769 -0.254998
-0.146069 -0.0477196 -0.181605
-0.142515 0.00200055 0.00761322
-0.0525028 0.0505191 0.192255
0.0693566 0.0683936 0.260275
0.149145 0.0447816 0.170419
0.138458 -0.0059854 -0.0227804
0.0428317 -0.0518675 -0.197767
-0.0831786 0.0768043 -0.355317
-0.203534 0.0546975 -0.25305
-0.198584 -0.00229303 0.0106083
-0.0731582 -0.0579056 0.267889
0.0966431 -0.0783935 0.362674
0.20782 -0.0513286 0.237465
0.19293 0.00686124 -0.0317425
0.0596823 0.0595668 -0.275572
-0.056208 0.173897 -0.240106
-0.137539 0.123846 -0.170998
-0.134192 -0.00519182 0.00716857
-0.0494372 -0.131108 0.181027
0.0653059 -0.177498 0.245077
0.140436 -0.116218 0.160465
0.130371 0.0155352 -0.02145
0.0403304 0.134869 -0.186218
0.00485756 0.165506 0.0207502
0.0118863 0.117871 0.0147779
0.0115971 -0.00494133 -0.000619512
0.00427237 -0.124783 -0.0156446
-0.00564387 -0.168932 -0.0211797
-0.0121367 -0.11061 -0.0138676
-0.0112669 0.0147856 0.00185373
-0.00348539 0.128361 0.0160931
0.0629766 0.0567215 0.26902
0.154102 0.0403958 0.19159
0.150352 -0.00169347 -0.00803187
0.0553898 -0.042765 -0.202824
-0.0731703 -0.057896 -0.274588
-0.157347 -0.0379079 -0.179791
-0.146071 0.00506724 0.024033
-0.045187 0.0439913 0.208642
0.0828949 -0.0864698 0.354105
0.202819 -0.0615614 0.25216
0.197885 0.00258076 -0.010571
0.0729012 0.0651714 -0.266948
-0.0963036 0.0882308 -0.361401
-0.20709 0.0577699 -0.236631
-0.192252 -0.00772248 0.0316312
-0.0594788 -0.067063 0.274632
0.0525303 -0.17721 0.224395
0.125727 -0.123463 0.156338
0.122659 0.00517444 -0.00655225
0.0451879 0.130673 -0.165468
-0.0596935 0.176907 -0.224013
-0.128366 0.115832 -0.146675
-0.119173 -0.0155057 0.0196344
-0.0376915 -0.137438 0.174033
0 0.0227557 0
0 0.0172128 0
0 -0.000721403 0
0 -0.018218 0
0 -0.0246638 0
0 -0.0161489 0
0 0.00216175 0
0 0.0176485 0
-0.0785743 0.0089524 -0.0840457
-0.19225 0.00637814 -0.0598712
-0.187571 -0.000267382 0.00250992
-0.0691016 -0.00675215 0.0633831
0.091284 -0.00914118 0.0858083
0.196297 -0.00598529 0.0561839
0.182231 0.0008001 -0.00751008
0.0563786 0.00694317 -0.065183
-0.109486 -0.0102813 -0.11711
-0.267882 -0.00731164 -0.0834253
-0.261362 0.000306509 0.00349736
-0.0962876 0.00774026 0.0883184
0.127196 0.0104788 0.119567
0.273523 0.00686112 0.0782879
0.253923 -0.000917276 -0.0104646
0.0785587 -0.00797383 -0.0908268
-0.0739856 -0.0232785 -0.0791375
-0.181023 -0.0165548 -0.0563748
-0.176617 0.000693994 0.00236336
-0.0650659 0.0175254 0.0596813
0.0859527 0.0237261 0.0807971
0.184835 0.0155349 0.0529029
0.171588 -0.00207687 -0.00707147
0.0530861 -0.018054 -0.0613763
0.00639391 -0.0221553 0.00683914
0.0156442 -0.0157561 0.00487198
0.0152635 0.000660505 -0.000204243
0.00562312 0.0166797 -0.0051577
-0.00742815 0.0225813 -0.00698258
-0.0159736 0.0147853 -0.00457192
-0.0148289 -0.00197667 0.000611128
-0.00458776 -0.0171829 0.0053042
0.0828949 -0.00759295 0.0886672
0.202819 -0.00539986 0.0631635
0.197885 0.000226366 -0.00264794
0.0729012 0.00571642 -0.066868
-0.0963036 0.00773898 -0.0905272
-0.20709 0.00506715 -0.0592736
-0.192252 -0.000677436 0.00792305
-0.0594788 -0.00588883 0.0687673
0.109113 0.0115752 0.116711
0.266941 0.00822939 0.0831323
0.260444 -0.000344982 -0.00348508
0.0959495 -0.0087118 -0.0880081
-0.126748 -0.0117941 -0.119147
-0.272562 -0.00772234 -0.0780125
-0.25303 0.00103244 0.010428
-0.0782908 0.0089773 0.0905171
0.0691446 0.0237219 0.0739594
0.165492 0.0165272 0.051528
0.161454 -0.00069267 -0.00215958
0.05948 -0.0174924 -0.0545372
-0.0785734 -0.0236815 -0.0738333
-0.168965 -0.0155057 -0.0483431
-0.156865 0.00207565 0.00647139
-0.0496126 0.0183979 0.0573604
0 0.2017 0
0 0.140525 0
0 -0.00588953 0
0 -0.148732 0
0 -0.201356 0
0 -0.13184 0
0 0.0176485 0
0 0.156431 0
-0.0497923 0.0793513 0.137887
-0.119173 0.0552846 0.0960668
-0.116266 -0.00231702 -0.00402624
-0.0428326 -0.0585131 -0.101677
0.0565821 -0.079216 -0.137652
0.121675 -0.0518675 -0.090129
0.112961 0.00694317 0.012065
0.035727 0.0615421 0.10694
-0.0693812 -0.0911304 0.192134
-0.166058 -0.0634911 0.133861
-0.162006 0.00266097 -0.00561022
-0.0596836 0.067199 -0.141678
0.0788422 0.090975 -0.191806
0.169543 0.0595668 -0.125587
0.157402 -0.00797383 0.0168115
0.0497824 -0.0706776 0.149012
-0.0468845 -0.206334 0.129835
-0.112214 -0.143754 0.0904566
-0.109476 0.00602485 -0.00379111
-0.0403312 0.152149 -0.0957392
0.0532777 0.205982 -0.129613
0.114569 0.134869 -0.0848655
0.106364 -0.018054 0.0113604
0.0336405 -0.160025 0.100695
0.0040518 -0.196378 -0.0112204
0.00969763 -0.136818 -0.00781735
0.00946101 0.00573414 0.000327631
0.00348547 0.144808 0.00827388
-0.00460432 0.196043 0.0112013
-0.00990118 0.128361 0.00733416
-0.00919212 -0.0171829 -0.000981778
-0.00290725 -0.152304 -0.00870218
0.0525303 -0.0673016 -0.145469
0.125727 -0.0468895 -0.101349
0.122659 0.00196518 0.00424764
0.0451879 0.0496278 0.107268
-0.0596935 0.0671868 0.145221
-0.128366 0.0439913 0.095085
-0.119173 -0.00588883 -0.0127284
-0.0376915 -0.0521968 -0.112821
0.0691446 0.102599 -0.191478
0.165492 0.0714812 -0.133404
0.161454 -0.00299584 0.00559108
0.05948 -0.0756556 0.141195
-0.0785734 -0.102424 0.191152
-0.168965 -0.067063 0.125159
-0.156865 0.0089773 -0.0167542
-0.0496126 0.079572 -0.148504
0.0438167 0.210264 -0.121339
0.104872 0.146492 -0.0845379
0.102313 -0.00613961 0.00354305
0.0376923 -0.155047 0.0894748
-0.0497917 -0.209905 0.121132
-0.107073 -0.137438 0.0793127
-0.0994049 0.0183979 -0.0106171
-0.0314394 0.163074 -0.0941066
