# vtk DataFile Version 3.0
Velocity field
ASCII
DATASET STRUCTURED_POINTS
DIMENSIONS 10 10 10
SPACING 0.631579 0.631579 0.631579
ORIGIN 0 0 0
POINT_DATA 1000
VECTORS velocity float
0 0.055101 0
0 0.0444718 0
0 0.0166851 0
0 -0.0175389 0
0 -0.0449963 0
0 -0.0550937 0
0 -0.0439356 0
0 -0.0158268 0
0 0.0183881 0
0 0.0455087 0
0 0.0338427 0.0431619
0 0.0273143 0.0362018
0 0.0102479 0.0135823
0 -0.0107723 -0.0142773
0 -0.0276364 -0.0366287
0 -0.0338382 -0.0448484
0 -0.0269849 -0.0357652
0 -0.00972072 -0.0128836
0 0.0112938 0.0149686
0 0.0279511 0.0356481
0 -0.000472486 0.0696717
0 -0.000381342 0.0584366
0 -0.000143073 0.0219244
0 0.000150394 -0.0230464
0 0.000385839 -0.0591257
0 0.000472423 -0.0723939
0 0.000376744 -0.057732
0 0.000135713 -0.0207967
0 -0.000157676 0.0241622
0 -0.000390233 0.0575428
0 -0.0346053 0.0693016
0 -0.0279298 0.0581262
0 -0.0104788 0.021808
0 0.011015 -0.0229239
0 0.0282592 -0.0588116
0 0.0346007 -0.0720093
0 0.0275931 -0.0574253
0 0.00993978 -0.0206862
0 -0.0115483 0.0240338
0 -0.028581 0.0572371
0 -0.0553872 0.0421944
0 -0.0447028 0.0353902
0 -0.0167717 0.0132778
0 0.01763 -0.0139573
0 0.0452299 -0.0358076
0 0.0553798 -0.043843
0 0.0441638 -0.0349635
0 0.015909 -0.0125948
0 -0.0184836 0.014633
0 -0.0457451 0.0348489
0 -0.0548003 -0.00119168
0 -0.0442291 -0.000999516
0 -0.016594 -0.000375002
0 0.0174432 0.000394191
0 0.0447506 0.0010113
0 0.054793 0.00123824
0 0.0436958 0.000987463
0 0.0157404 0.000355711
0 -0.0182877 -0.000413276
0 -0.0452603 -0.000984227
0 -0.033071 -0.044118
0 -0.0266915 -0.0370036
0 -0.0100142 -0.0138831
0 0.0105266 0.0145936
0 0.0270062 0.03744
0 0.0330666 0.0458418
0 0.0263696 0.0365575
0 0.00949907 0.013169
0 -0.0110363 -0.0153002
0 -0.0273138 -0.0364377
0 0.00141735 -0.0700233
0 0.00114394 -0.0587315
0 0.000429185 -0.0220351
0 -0.000451148 0.0231627
0 -0.00115742 0.0594241
0 -0.00141716 0.0727592
0 -0.00113014 0.0580233
0 -0.000407108 0.0209016
0 0.000472991 -0.0242841
0 0.00117061 -0.0578332
0 0.0353588 -0.068913
0 0.028538 -0.0578003
0 0.010707 -0.0216857
0 -0.0112549 0.0227954
0 -0.0288745 0.0584819
0 -0.0353541 0.0716056
0 -0.0281939 0.0571034
0 -0.0101562 0.0205702
0 0.0117998 -0.0238991
0 0.0292033 -0.0569163
0 0.0556586 -0.0412157
0 0.0449219 -0.033265
0 0.0168539 -0.0124805
0 -0.0177164 0.0131191
0 -0.0454516 0.0336573
0 -0.0556512 0.0412102
0 -0.0443802 0.0328639
0 -0.015987 0.0118385
0 0.0185742 -0.0137543
0 0.0459692 -0.0340406
0 0.0444718 0
0 0.0377602 0
0 0.014167 0
0 -0.014892 0
0 -0.0382055 0
0 -0.0467791 0
0 -0.0373049 0
0 -0.0134383 0
0 0.015613 0
0 0.0367299 0
0.00627569 0.0273143 0.0477681
0.0164803 0.0221512 0.0387327
0.0202984 0.00831089 0.0145321
0.016285 -0.00873618 -0.0152757
0.00598883 -0.0224128 -0.03919
-0.0066179 -0.0274423 -0.0479845
-0.0166714 -0.0218844 -0.0382663
-0.020293 -0.00788339 -0.0137846
-0.0160853 0.0091589 0.0160149
-0.0056462 0.0225592 0.0394524
0.0101302 -0.000381342 0.077107
0.0266024 -0.000309153 0.0625222
0.0327654 -0.000115991 0.0234575
0.0262871 0.000121926 -0.024658
0.00966712 0.000312803 -0.0632604
-0.0106826 0.000382999 -0.0774563
-0.0269109 0.00030543 -0.0617691
-0.0327567 0.000110024 -0.022251
-0.0259647 -0.000127826 0.0258511
-0.00911406 -0.000314955 0.0636837
0.0100764 -0.0279298 0.0766974
0.0264611 -0.0226439 0.06219
0.0325913 -0.00849572 0.023333
0.0261475 0.00893047 -0.024527
0.00961577 0.0229112 -0.0629243
-0.0106258 0.0280526 -0.0770448
-0.0267679 0.0223712 -0.0614409
-0.0325827 0.00805872 -0.0221327
-0.0258268 -0.0093626 0.0257138
-0.00906564 -0.0230676 0.0633454
0.00613501 -0.0447028 0.0466973
0.0161109 -0.0362424 0.0378645
0.0198433 -0.0135977 0.0142063
0.01592 0.0142936 -0.0149333
0.00585458 0.0366703 -0.0383115
-0.00646955 0.0448994 -0.0469088
-0.0162977 0.0358059 -0.0374085
-0.019838 0.0128983 -0.0134756
-0.0157247 -0.0149852 0.0156559
-0.00551964 -0.0369206 0.038568
-0.000173269 -0.0442291 -0.00131886
-0.000455015 -0.0358584 -0.00106939
-0.000560429 -0.0134536 -0.000401224
-0.000449622 0.0141421 0.000421757
-0.000165349 0.0362817 0.00108202
0.000182718 0.0444235 0.00132483
0.000460291 0.0354265 0.00105652
0.00056028 0.0127616 0.000380586
0.000444107 -0.0148264 -0.000442164
0.000155889 -0.0365294 -0.00108926
-0.0064147 -0.0266915 -0.0488262
-0.0168454 -0.0216399 -0.0395907
-0.020748 -0.00811902 -0.014854
-0.0166458 0.0085345 0.0156141
-0.00612149 0.0218953 0.0400581
0.00676451 0.0268088 0.0490475
0.0170407 0.0213792 0.0391139
0.0207425 0.00770139 0.0140899
0.0164416 -0.00894748 -0.0163696
0.00577127 -0.0220448 -0.0403263
-0.0101813 0.00114394 -0.0774961
-0.0267367 0.000927434 -0.0628377
-0.0329308 0.000347963 -0.0235759
-0.0264198 -0.000365769 0.0247824
-0.00971591 -0.000938384 0.0635796
0.0107365 -0.00114896 0.0778472
0.0270467 -0.000916266 0.0620808
0.032922 -0.000330064 0.0223632
0.0260957 0.000383468 -0.0259816
0.00916005 0.000944791 -0.0640051
-0.0100199 0.028538 -0.0762674
-0.0263126 0.0231365 -0.0618409
-0.0324084 0.00868053 -0.023202
-0.0260007 -0.00912476 0.0243893
-0.0095618 -0.0234096 0.0625711
0.0105662 -0.0286629 0.0766124
0.0266176 -0.0228578 0.061096
0.0323998 -0.00823402 0.0220085
0.0256818 0.00956628 -0.0255694
0.00901482 0.0235699 -0.0629903
-0.0059927 0.0449219 -0.0456141
-0.0156661 0.0362563 -0.036815
-0.0192954 0.0136027 -0.0138124
-0.0154804 -0.0142988 0.0145192
-0.00569291 -0.0366838 0.0372491
0.0062909 -0.0449159 0.0456081
0.0158476 -0.0358191 0.0363711
0.0192902 -0.012903 0.0131019
0.0152905 0.0149911 -0.0152222
0.0053916 0.0371016 -0.0376734
0 0.0166851 0
0 0.014167 0
0 0.00531522 0
0 -0.00558721 0
0 -0.0143341 0
0 -0.0175507 0
0 -0.0139962 0
0 -0.00504181 0
0 0.00585772 0
0 0.0137804 0
0.0101302 0.0102479 0.033945
0.0266024 0.00831089 0.027521
0.0327654 0.00311815 0.0103256
0.0262871 -0.00327771 -0.010854
0.00966712 -0.00840902 -0.027846
-0.0106826 -0.0102961 -0.0340948
-0.0269109 -0.0082108 -0.0271896
-0.0327567 -0.00295775 -0.00979441
-0.0259647 0.00343631 0.0113792
-0.00911406 0.00846384 0.0280357
0.016352 -0.000143073 0.0547938
0.0429414 -0.000115991 0.0444243
0.0528897 -4.35183e-05 0.0166675
0.0424325 4.57453e-05 -0.0175204
0.0156046 0.00011736 -0.0449488
-0.0172437 0.000143697 -0.0550356
-0.0434393 0.000114594 -0.0438891
-0.0528756 4.12798e-05 -0.0158101
-0.0419121 -4.79589e-05 0.0183682
-0.0147118 -0.000118166 0.045255
0.0162652 -0.0104788 0.0545027
0.0427133 -0.00849572 0.0441882
0.0526087 -0.0031875 0.0165789
0.0422072 0.00335061 -0.0174273
0.0155217 0.00859602 -0.04471
-0.0171521 0.010525 -0.0547432
-0.0432085 0.00839339 -0.043656
-0.0525947 0.00302353 -0.0157261
-0.0416895 -0.00351273 0.0182706
-0.0146337 -0.00865458 0.0450146
0.00990309 -0.0167717 0.0331841
0.0260061 -0.0135977 0.0269041
0.032031 -0.00510171 0.0100941
0.0256979 0.00536277 -0.0106106
0.00945043 0.0137583 -0.0272218
-0.0104431 0.0168457 -0.0333305
-0.0263076 0.013434 -0.0265801
-0.0320225 0.00483928 -0.00957487
-0.0253827 -0.00562227 0.0111241
-0.00890976 -0.013852 0.0274072
-0.00027969 -0.016594 -0.000937207
-0.000734481 -0.0134536 -0.000759844
-0.000904639 -0.00504765 -0.000285085
-0.000725779 0.00530594 0.000299673
-0.000266905 0.0136125 0.000768815
0.000294941 0.0166672 0.000941341
0.000742997 0.0132916 0.000750691
0.000904399 0.004788 0.000270419
0.000716875 -0.00556269 -0.000314174
0.000251635 -0.0137052 -0.000774053
-0.0103546 -0.0100142 -0.0346969
-0.0271917 -0.00811902 -0.0281306
-0.0334912 -0.00304616 -0.0105543
-0.0268695 0.00320204 0.0110944
-0.00988125 0.00821488 0.0284627
0.0109192 0.0100584 0.0348499
0.027507 0.00802126 0.0277919
0.0334823 0.00288948 0.0100114
0.0265398 -0.00335699 -0.0116312
0.00931594 -0.00827085 -0.0286567
-0.0164346 0.000429185 -0.0550703
-0.0431582 0.000347963 -0.0446485
-0.0531566 0.000130551 -0.0167516
-0.0426466 -0.000137232 0.0176088
-0.0156834 -0.000352071 0.0451756
0.0173307 -0.000431078 0.0553134
0.0436584 -0.000343771 0.0441107
0.0531425 -0.000123836 0.0158899
0.0421236 0.000143873 -0.0184608
0.0147861 0.00035447 -0.0454834
-0.016174 0.010707 -0.0541972
-0.0424735 0.00868053 -0.0439402
-0.0523134 0.00325683 -0.0164859
-0.0419702 -0.0034235 0.0173295
-0.0154346 -0.00878302 0.044459
0.0170559 -0.010754 0.054436
0.042966 -0.00857599 0.043411
0.0522995 -0.00308931 0.0156379
0.0414554 0.00358916 -0.0181681
0.0145517 0.00884302 -0.0447622
-0.00967337 0.0168539 -0.0324144
-0.0252881 0.0136027 -0.0261615
-0.0311464 0.00510352 -0.00981535
-0.0249883 -0.00536468 0.0103176
-0.00918945 -0.0137631 0.02647
0.0101547 -0.0168517 0.0324101
0.0255811 -0.0134387 0.0258461
0.0311381 -0.004841 0.00931046
0.0246818 0.00562442 -0.0108172
0.00870308 0.0139199 -0.0267715
0 -0.0175389 0
0 -0.014892 0
0 -0.00558721 0
0 0.00587313 0
0 0.0150676 0
0 0.0184488 0
0 0.0147124 0
0 0.00529981 0
0 -0.00615748 0
0 -0.0144856 0
0.0100764 -0.0107723 0.00702568
0.0264611 -0.00873618 0.00569609
0.0325913 -0.00327771 0.00213711
0.0261475 0.00344545 -0.00224647
0.00961577 0.00883932 -0.00576334
-0.0106258 0.0108229 -0.00705665
-0.0267679 0.00863097 -0.00562749
-0.0325827 0.00310912 -0.00202717
-0.0258268 -0.00361216 0.00235517
-0.00906564 -0.00889696 0.0058026
0.0162652 0.000150394 0.0113408
0.0427133 0.000121926 0.00919459
0.0526087 4.57453e-05 0.0034497
0.0422072 -4.80863e-05 -0.00362623
0.0155217 -0.000123366 -0.00930313
-0.0171521 -0.00015105 -0.0113908
-0.0432085 -0.000120458 -0.00908385
-0.0525947 -4.33922e-05 -0.00327225
-0.0416895 5.0413e-05 0.00380169
-0.0146337 0.000124213 0.00936652
0.0161788 0.011015 0.0112805
0.0424864 0.00893047 0.00914575
0.0523293 0.00335061 0.00343138
0.041983 -0.00352206 -0.00360696
0.0154392 -0.00903592 -0.00925371
-0.017061 -0.0110636 -0.0113303
-0.042979 -0.0088229 -0.0090356
-0.0523154 -0.00317826 -0.00325486
-0.041468 0.0036925 0.0037815
-0.014556 0.00909746 0.00931676
0.00985048 0.01763 0.00686818
0.0258679 0.0142936 0.0055684
0.0318609 0.00536277 0.0020892
0.0255615 -0.00563721 -0.00219611
0.00940023 -0.0144623 -0.00563415
-0.0103876 -0.0177077 -0.00689849
-0.0261678 -0.0141214 -0.00550133
-0.0318524 -0.00508693 -0.00198174
-0.0252479 0.00590998 0.00230237
-0.00886243 0.0145608 0.00567253
-0.000278204 0.0174432 -0.000193976
-0.00073058 0.0141421 -0.000157267
-0.000899833 0.00530594 -5.90044e-05
-0.000721923 -0.00557747 6.20241e-05
-0.000265488 -0.014309 0.000159123
0.000293375 -0.0175201 0.000194832
0.000739049 -0.0139717 0.000155372
0.000899594 -0.00503302 5.59693e-05
0.000713068 0.00584735 -6.50252e-05
0.000250299 0.0144065 -0.000160207
-0.0102996 0.0105266 -0.0071813
-0.0270473 0.0085345 -0.00582226
-0.0333133 0.00320204 -0.00218444
-0.0267267 -0.00336591 0.00229623
-0.00982876 -0.00863526 0.00589099
0.0108612 -0.0105731 0.00721297
0.0273609 -0.00843172 0.00575214
0.0333045 -0.00303733 0.00207208
0.0263988 0.00352877 -0.00240734
0.00926645 0.00869409 -0.00593113
-0.0163473 -0.000451148 -0.011398
-0.0429289 -0.000365769 -0.00924097
-0.0528742 -0.000137232 -0.00346711
-0.0424201 0.000144255 0.00364453
-0.0156 0.000370087 0.00935008
0.0172387 0.000453137 0.0114483
0.0434266 0.000361364 0.00912969
0.0528601 0.000130173 0.00328876
0.0418998 -0.000151235 -0.00382088
0.0147075 -0.000372609 -0.00941379
-0.0160881 -0.0112549 -0.0112173
-0.0422479 -0.00912476 -0.00909441
-0.0520355 -0.0034235 -0.00341212
-0.0417473 0.00359869 0.00358672
-0.0153526 0.00923247 0.00920178
0.0169653 0.0113043 0.0112667
0.0427377 0.00901486 0.00898488
0.0520217 0.0032474 0.00323659
0.0412352 -0.00377282 -0.00376027
0.0144744 -0.00929555 -0.00926453
-0.00962199 -0.0177164 -0.00670887
-0.0251537 -0.0142988 -0.0054147
-0.030981 -0.00536468 -0.0020315
-0.0248555 0.00563921 0.00213546
-0.00914064 0.0144674 0.00547855
0.0101008 0.017714 0.00670798
0.0254452 0.0141264 0.00534941
0.0309727 0.00508873 0.00192701
0.0245507 -0.00591224 -0.00223885
0.00865685 -0.0146322 -0.00554095
0 -0.0449963 0
0 -0.0382055 0
0 -0.0143341 0
0 0.0150676 0
0 0.038656 0
0 0.0473307 0
0 0.0377448 0
0 0.0135967 0
0 -0.0157971 0
0 -0.037163 0
0.00613501 -0.0276364 -0.0226042
0.0161109 -0.0224128 -0.0183265
0.0198433 -0.00840902 -0.00687587
0.01592 0.00883932 0.00722772
0.00585458 0.0226774 0.0185428
-0.00646955 0.0277664 0.022704
-0.0162977 0.0221428 0.0181058
-0.019838 0.00797647 0.00652217
-0.0157247 -0.00926704 -0.00757746
-0.00551964 -0.0228252 -0.0186692
0.00990309 0.000385839 -0.0364876
0.0260061 0.000312803 -0.0295824
0.032031 0.00011736 -0.011099
0.0256979 -0.000123366 0.011667
0.00945043 -0.000316496 0.0299317
-0.0104431 -0.00038752 0.0366486
-0.0263076 -0.000309036 0.0292261
-0.0320225 -0.000111323 0.0105281
-0.0253827 0.000129335 -0.0122315
-0.00890976 0.000318669 -0.0301356
0.00985048 0.0282592 -0.0362938
0.0258679 0.0229112 -0.0294253
0.0318609 0.00859602 -0.01104
0.0255615 -0.00903592 0.011605
0.00940023 -0.0231817 0.0297727
-0.0103876 -0.0283838 0.0364539
-0.0261678 -0.0226353 0.0290709
-0.0318524 -0.00815384 0.0104721
-0.0252479 0.00947313 -0.0121665
-0.00886243 0.0233396 -0.0299755
0.00599748 0.0452299 -0.0220975
0.0157498 0.0366703 -0.0179156
0.0193985 0.0137583 -0.00672174
0.0155631 -0.0144623 0.0070657
0.00572335 -0.0371032 0.0181272
-0.00632454 -0.0454295 0.022195
-0.0159324 -0.0362287 0.0176998
-0.0193934 -0.0130505 0.00637599
-0.0153722 0.0151621 -0.00740761
-0.00539591 0.037356 -0.0182507
-0.000169385 0.0447506 0.000624093
-0.000444815 0.0362817 0.000505985
-0.000547865 0.0136125 0.00018984
-0.000439543 -0.014309 -0.000199555
-0.000161643 -0.0367101 -0.000511958
0.000178622 -0.0449481 -0.000626846
0.000449972 -0.0358447 -0.000499892
0.00054772 -0.0129122 -0.000180075
0.000434152 0.0150015 0.00020921
0.000152395 0.0369601 0.000515447
-0.0062709 0.0270062 0.0231049
-0.0164678 0.0218953 0.0187324
-0.0202829 0.00821488 0.00702816
-0.0162726 -0.00863526 -0.00738784
-0.00598426 -0.0221538 -0.0189535
0.00661285 -0.0271254 -0.0232069
0.0166587 -0.0216316 -0.0185068
0.0202775 -0.00779232 -0.00666665
0.016073 0.00905311 0.00774531
0.0056419 0.0223048 0.0190827
-0.00995306 -0.00115742 0.0366717
-0.0261373 -0.000938385 0.0297317
-0.0321927 -0.000352071 0.011155
-0.0258276 0.000370087 -0.0117258
-0.0094981 0.000949462 -0.0300827
0.0104958 0.00116253 -0.0368335
0.0264403 0.000927084 -0.0293737
0.0321841 0.00033396 -0.0105812
0.0255108 -0.000387995 0.0122932
0.00895472 -0.000955932 0.0302877
-0.00979526 -0.0288745 0.0360903
-0.0257227 -0.0234096 0.0292602
-0.031682 -0.00878302 0.010978
-0.0254179 0.00923247 -0.0115398
-0.00934746 0.023686 -0.0296056
0.0103293 0.0290014 -0.0362493
0.026021 0.0231277 -0.0289077
0.0316736 0.00833124 -0.0104134
0.0251062 -0.00967922 0.0120982
0.00881274 -0.0238478 0.0298075
-0.00585837 -0.0454516 0.021585
-0.0153149 -0.0366838 0.0174211
-0.0188628 -0.0137631 0.00653611
-0.0151333 0.0144674 -0.00687059
-0.00556529 0.0371164 -0.0176266
0.00614988 0.0454456 -0.0215821
0.0154924 0.0362415 -0.0172111
0.0188578 0.0130552 -0.0061999
0.0149478 -0.0151679 0.00720323
0.00527074 -0.0375391 0.0178273
0 -0.0550937 0
0 -0.0467791 0
0 -0.0175507 0
0 0.0184488 0
0 0.0473307 0
0 0.057952 0
0 0.046215 0
0 0.0166479 0
0 -0.0193421 0
0 -0.0455026 0
-0.000173269 -0.0338382 -0.0435133
-0.000455015 -0.0274423 -0.0352785
-0.000560429 -0.0102961 -0.0132361
-0.000449622 0.0108229 0.0139134
-0.000165349 0.0277664 0.035695
0.000182718 0.0339974 0.0437051
0.000460291 0.0271119 0.0348535
0.00056028 0.00976643 0.0125553
0.000444107 -0.0113466 -0.0145867
0.000155889 -0.0279474 -0.0359382
-0.00027969 0.000472423 -0.0702388
-0.000734481 0.000382999 -0.0569462
-0.000904639 0.000143697 -0.0213656
-0.000725779 -0.00015105 0.0224589
-0.000266905 -0.00038752 0.0576186
0.000294941 -0.000474481 0.0705485
0.000742997 -0.000378385 0.0562603
0.000904399 -0.000136305 0.0202666
0.000716875 0.000158359 -0.0235456
0.000251635 0.000390181 -0.0580112
-0.000278204 0.0346007 -0.0698657
-0.00073058 0.0280526 -0.0566437
-0.000899833 0.010525 -0.021252
-0.000721923 -0.0110636 0.0223396
-0.000265488 -0.0283838 0.0573125
0.000293375 -0.0347533 0.0701737
0.000739049 -0.0277148 0.0559614
0.000899594 -0.00998362 0.0201589
0.000713068 0.011599 -0.0234206
0.000250299 0.0285772 -0.057703
-0.000169385 0.0553798 -0.0425379
-0.000444815 0.0448994 -0.0344877
-0.000547865 0.0168457 -0.0129394
-0.000439543 -0.0177077 0.0136015
-0.000161643 -0.0454295 0.0348948
0.000178622 -0.0556242 0.0427254
0.000449972 -0.0443585 0.0340723
0.00054772 -0.0159792 0.0122738
0.000434152 0.0185646 -0.0142597
0.000152395 0.0457389 -0.0351326
4.78388e-06 0.054793 0.00120138
1.25628e-05 0.0444235 0.000974024
1.54732e-05 0.0166672 0.000365443
1.24139e-05 -0.0175201 -0.000384143
4.56522e-06 -0.0449481 -0.000985525
-5.04475e-06 -0.0550347 -0.00120668
-1.27084e-05 -0.0438884 -0.000962291
-1.54691e-05 -0.0158099 -0.000346644
-1.22616e-05 0.0183679 0.000402731
-4.30403e-06 0.0452542 0.000992239
0.000177107 0.0330666 0.0444771
0.000465095 0.0268088 0.03606
0.000572844 0.0100584 0.0135293
0.000459583 -0.0105731 -0.0142216
0.000169012 -0.0271254 -0.0364857
-0.000186765 -0.0332124 -0.0446733
-0.000470485 -0.0264859 -0.0356256
-0.000572691 -0.00954096 -0.0128333
-0.000453945 0.0110847 0.0149098
-0.000159342 0.0273101 0.0367343
0.000281101 -0.00141716 0.0705933
0.000738188 -0.00114896 0.0572336
0.000909205 -0.000431078 0.0214734
0.000729442 0.000453137 -0.0225723
0.000268252 0.00116253 -0.0579093
-0.000296429 0.00142341 -0.0709046
-0.000746746 0.00113513 -0.0565443
-0.000908963 0.000408903 -0.0203689
-0.000720493 -0.000475064 0.0236645
-0.000252905 -0.00117045 0.0583039
0.000276644 -0.0353541 0.069474
0.000726479 -0.0286629 0.0563258
0.000894782 -0.010754 0.0211328
0.000717871 0.0113043 -0.0222142
0.000263997 0.0290014 -0.0569908
-0.000291728 0.0355094 -0.0697799
-0.000734901 0.0283177 -0.0556475
-0.000894545 0.0102008 -0.0200457
-0.000709065 -0.0118513 0.0232891
-0.000248895 -0.0291994 0.0573795
0.000165456 -0.0556512 0.0415511
0.000432533 -0.0449159 0.0335358
0.000532736 -0.0168517 0.0125821
0.000427406 0.017714 -0.0132259
0.000157179 0.0454456 -0.0339312
-0.000173689 0.0556438 -0.0415456
-0.000437546 0.0443743 -0.0331314
-0.000532595 0.0159849 -0.0119348
-0.000422165 -0.0185717 0.0138663
-0.00014886 -0.0459631 0.0343177
0 -0.0439356 0
0 -0.0373049 0
0 -0.0139962 0
0 0.0147124 0
0 0.0377448 0
0 0.046215 0
0 0.0368551 0
0 0.0132762 0
0 -0.0154247 0
0 -0.036287 0
-0.0064147 -0.0269849 -0.0476346
-0.0168454 -0.0218844 -0.0386198
-0.020748 -0.0082108 -0.0144897
-0.0166458 0.00863097 0.0152312
-0.00612149 0.0221428 0.0390757
0.00676451 0.0271119 0.0478446
0.0170407 0.0216209 0.0381547
0.0207425 0.00778845 0.0137444
0.0164416 -0.00904859 -0.0159682
0.00577127 -0.0222872 -0.039342
-0.0103546 0.000376744 -0.0768913
-0.0271917 0.00030543 -0.0623399
-0.0334912 0.000114594 -0.0233892
-0.0268695 -0.000120458 0.0245861
-0.00988125 -0.000309036 0.0630759
0.0109192 -0.000378385 0.0772305
0.027507 -0.000301751 0.0615889
0.0334823 -0.000108699 0.0221861
0.0265398 0.000126287 -0.0257757
0.00931594 0.000311158 -0.0635056
-0.0102996 0.0275931 -0.0764829
-0.0270473 0.0223712 -0.0620087
-0.0333133 0.00839339 -0.023265
-0.0267267 -0.0088229 0.0244555
-0.00982876 -0.0226353 0.0627408
0.0108612 -0.0277148 0.0768202
0.0273609 -0.0221017 0.0612618
0.0333045 -0.00796166 0.0220682
0.0263988 0.00924983 -0.0256388
0.00926645 0.0227895 -0.0631683
-0.0062709 0.0441638 -0.0465668
-0.0164678 0.0358059 -0.0377541
-0.0202829 0.013434 -0.0141649
-0.0162726 -0.0141214 0.0148898
-0.00598426 -0.0362287 0.0381998
0.00661285 -0.0443585 0.0467722
0.0166587 -0.0353746 0.0372994
0.0202775 -0.0127429 0.0134363
0.016073 0.0148047 -0.0156103
0.0056419 0.0364754 -0.0384601
0.000177107 0.0436958 0.00131517
0.000465095 0.0354265 0.00106628
0.000572844 0.0132916 0.000400055
0.000459583 -0.0139717 -0.000420527
0.000169012 -0.0358447 -0.00107887
-0.000186765 -0.0438884 -0.00132097
-0.000470485 -0.0349998 -0.00105344
-0.000572691 -0.0126079 -0.000379476
-0.000453945 0.0146478 0.000440875
-0.000159342 0.0360889 0.00108622
0.00655679 0.0263696 0.0486897
0.0172185 0.0213792 0.0394753
0.0212075 0.00802126 0.0148107
0.0170145 -0.00843172 -0.0155686
0.0062571 -0.0216316 -0.0399413
-0.00691435 -0.0264859 -0.0489044
-0.0174181 -0.0211218 -0.0389998
-0.0212019 -0.00760863 -0.0140488
-0.0168058 0.00883971 0.0163219
-0.00589911 0.021779 0.0402135
0.0104068 -0.00113014 0.0772794
0.027329 -0.000916266 0.0626545
0.0336602 -0.000343771 0.0235072
0.0270051 0.000361364 -0.0247102
0.00993112 0.000927084 -0.0633943
-0.0109743 0.00113513 -0.0776202
-0.0276458 0.000905229 -0.0618998
-0.0336513 0.000326089 -0.022298
-0.0266738 -0.00037885 0.0259058
-0.00936296 -0.000933399 0.0638261
0.0102418 -0.0281939 0.0760541
0.0268955 -0.0228578 0.0616606
0.0331263 -0.00857599 0.0231344
0.0265767 0.00901486 -0.0243182
0.00977359 0.0231277 -0.0623886
-0.0108002 0.0283177 -0.076389
-0.0272073 0.0225826 -0.060918
-0.0331175 0.00813485 -0.0219443
-0.0262507 -0.00945107 0.0254949
-0.0092145 -0.0232857 0.0628141
0.00612544 -0.0443802 0.0454866
0.0160131 -0.0358191 0.0367121
0.0197228 -0.0134387 0.0137737
0.0158233 0.0141264 -0.0144786
0.00581901 0.0362415 -0.037145
-0.00643025 0.0443743 -0.0454805
-0.0161987 0.0353872 -0.0362694
-0.0197175 0.0127474 -0.0130652
-0.0156292 -0.0148104 0.0151796
-0.00551103 -0.0366542 0.037568
0 -0.0158268 0
0 -0.0134383 0
0 -0.00504181 0
0 0.00529981 0
0 0.0135967 0
0 0.0166479 0
0 0.0132762 0
0 0.00478246 0
0 -0.00555641 0
0 -0.0130716 0
-0.0101813 -0.00972072 -0.0333781
-0.0267367 -0.00788339 -0.0270614
-0.0329308 -0.00295775 -0.0101531
-0.0264198 0.00310912 0.0106727
-0.00971591 0.00797647 0.0273809
0.0107365 0.00976643 0.0335253
0.0270467 0.00778845 0.0267354
0.032922 0.00280561 0.00963084
0.0260957 -0.00325955 -0.0111891
0.00916005 -0.00802847 -0.0275674
-0.0164346 0.000135713 -0.0538786
-0.0431582 0.000110024 -0.0436822
-0.0531566 4.12798e-05 -0.0163891
-0.0426466 -4.33922e-05 0.0172278
-0.0156834 -0.000111323 0.0441979
0.0173307 -0.000136305 0.0541163
0.0436584 -0.000108699 0.0431561
0.0531425 -3.91564e-05 0.015546
0.0421236 4.5492e-05 -0.0180614
0.0147861 0.000112088 -0.0444991
-0.0163473 0.00993978 -0.0535924
-0.0429289 0.00805872 -0.0434502
-0.0528742 0.00302353 -0.016302
-0.0424201 -0.00317826 0.0171362
-0.0156 -0.00815384 0.0439631
0.0172387 -0.00998362 0.0538288
0.0434266 -0.00796166 0.0429269
0.0528601 -0.00286801 0.0154634
0.0418998 0.00333204 -0.0179654
0.0147075 0.0082094 -0.0442627
-0.00995306 0.015909 -0.0326298
-0.0261373 0.0128983 -0.0264547
-0.0321927 0.00483928 -0.00992549
-0.0258276 -0.00508693 0.0104334
-0.0094981 -0.0130505 0.0267671
0.0104958 -0.0159792 0.0327738
0.0264403 -0.0127429 0.0261361
0.0321841 -0.00459036 0.00941496
0.0255108 0.00533306 -0.0109383
0.00895472 0.0131395 -0.0269494
0.000281101 0.0157404 0.000921554
0.000738188 0.0127616 0.000747152
0.000909205 0.004788 0.000280323
0.000729442 -0.00503302 -0.000294668
0.000268252 -0.0129122 -0.000755972
-0.000296429 -0.0158099 -0.000925621
-0.000746746 -0.0126079 -0.000738153
-0.000908964 -0.00454172 -0.000265904
-0.000720493 0.00527656 0.000308926
-0.000252905 0.0130002 0.000761124
0.0104068 0.00949907 0.0341174
0.027329 0.00770139 0.0276608
0.0336602 0.00288948 0.010378
0.0270051 -0.00303733 -0.0109091
0.00993112 -0.00779232 -0.0279873
-0.0109743 -0.00954096 -0.0342679
-0.0276458 -0.00760863 -0.0273277
-0.0336513 -0.00274084 -0.00984416
-0.0266738 0.00318431 0.011437
-0.00936296 0.00784541 0.0281781
0.0165175 -0.000407108 0.0541505
0.0433759 -0.000330064 0.0439027
0.0534249 -0.000123836 0.0164718
0.0428619 0.000130173 -0.0173147
0.0157625 0.00033396 -0.044421
-0.0174182 0.000408903 -0.0543895
-0.0438788 0.000326089 -0.0433739
-0.0534107 0.000117466 -0.0156245
-0.0423361 -0.000136472 0.0181525
-0.0148607 -0.000336236 0.0447237
0.0162556 -0.0101562 0.053292
0.0426879 -0.00823402 0.0432063
0.0525774 -0.00308931 0.0162105
0.0421821 0.0032474 -0.0170401
0.0155125 0.00833124 -0.0437163
-0.0171419 0.0102008 -0.0535267
-0.0431828 0.00813485 -0.0426859
-0.0525634 0.0029304 -0.0153766
-0.0416647 -0.00340454 0.0178646
-0.0146251 -0.00838814 0.0440146
0.00972219 -0.015987 0.031873
0.0254157 -0.012903 0.0257245
0.0313036 -0.004841 0.00965142
0.0251144 0.00508873 -0.0101453
0.00923583 0.0130552 -0.0260279
-0.010206 0.0159849 -0.0318687
-0.0257102 0.0127474 -0.0254144
-0.0312953 0.00459198 -0.00915496
-0.0248064 -0.0053351 0.0106365
-0.008747 -0.0132039 0.0263243
0 0.0183881 0
0 0.015613 0
0 0.00585772 0
0 -0.00615748 0
0 -0.0157971 0
0 -0.0193421 0
0 -0.0154247 0
0 -0.00555641 0
0 0.0064556 0
0 0.015187 0
-0.0100199 0.0112938 -0.0062441
-0.0263126 0.00915888 -0.00506264
-0.0324084 0.00343631 -0.00189944
-0.0260007 -0.00361215 0.00199664
-0.0095618 -0.00926702 0.00512241
0.0105662 -0.0113466 0.00627192
0.0266176 -0.00904858 0.00500166
0.0323998 -0.00325955 0.00180174
0.0256818 0.00378694 -0.00209325
0.00901482 0.00932772 -0.00515709
-0.016174 -0.000157676 -0.0100792
-0.0424735 -0.000127826 -0.00817206
-0.0523134 -4.79588e-05 -0.00306607
-0.0419702 5.0413e-05 0.00322296
-0.0154346 0.000129335 0.00826855
0.0170559 0.000158359 0.0101241
0.042966 0.000126286 0.00807365
0.0522995 4.54919e-05 0.00290835
0.0414554 -5.28524e-05 -0.00337892
0.0145517 -0.000130227 -0.00832454
-0.0160881 -0.0115483 -0.0100256
-0.0422479 -0.00936258 -0.00812865
-0.0520355 -0.00351273 -0.00304978
-0.0417473 0.00369249 0.00320584
-0.0153526 0.00947311 0.00822462
0.0169653 0.011599 0.0100703
0.0427377 0.00924982 0.00803077
0.0520217 0.00333204 0.0028929
0.0412352 -0.00387116 -0.00336097
0.0144744 -0.00953793 -0.00828032
-0.00979526 -0.0184836 -0.00610413
-0.0257227 -0.0149852 -0.00494915
-0.031682 -0.00562227 -0.00185686
-0.0254179 0.00590997 0.00195188
-0.00934746 0.0151621 0.00500758
0.0103293 0.0185646 0.00613132
0.026021 0.0148047 0.00488954
0.0316736 0.00533306 0.00176135
0.0251062 -0.00619594 -0.00204633
0.00881274 -0.0152658 -0.00504149
0.000276644 -0.0182877 0.000172397
0.000726479 -0.0148264 0.000139777
0.000894782 -0.00556269 5.24428e-05
0.000717871 0.00584735 -5.51264e-05
0.000263997 0.0150014 -0.000141428
-0.000291728 0.0183679 -0.000173165
-0.000734901 0.0146478 -0.000138094
-0.000894545 0.00527655 -4.97452e-05
-0.000709065 -0.00613029 5.77939e-05
-0.000248895 -0.0151041 0.000142385
0.0102418 -0.0110363 0.00638241
0.0268955 -0.00894747 0.00517477
0.0331263 -0.00335698 0.00194151
0.0265767 0.00352877 -0.00204087
0.00977359 0.0090531 -0.00523587
-0.0108002 0.0110847 -0.00641082
-0.0272073 0.0088397 -0.00511246
-0.0331175 0.00318431 -0.00184165
-0.0262507 -0.00369952 0.00213962
-0.0092145 -0.00911503 0.00527132
0.0162556 0.000472991 0.01013
0.0426879 0.000383468 0.0082133
0.0525774 0.000143872 0.00308154
0.0421821 -0.000151235 -0.00323923
0.0155125 -0.000387995 -0.00831028
-0.0171419 -0.000475063 -0.0101752
-0.0431828 -0.000378849 -0.00811438
-0.0525634 -0.000136472 -0.00292303
-0.0416647 0.000158553 0.00339597
-0.0146251 0.000390649 0.00836655
0.0159979 0.0117998 0.00996944
0.0420108 0.00956627 0.00808302
0.0517435 0.00358915 0.00303266
0.041513 -0.00377282 -0.00318785
0.0152664 -0.00967921 -0.00817846
-0.01687 -0.0118513 -0.0100138
-0.0424978 -0.00945106 -0.00798568
-0.0517297 -0.00340453 -0.00287666
-0.0410038 0.00395538 0.0033421
-0.0143932 0.0097456 0.0082339
0.00956804 0.0185742 0.00596254
0.0250127 0.0149911 0.00481234
0.0308073 0.00562442 0.00180551
0.0247162 -0.00591224 -0.0018979
0.00908939 -0.0151679 -0.00486909
-0.0100442 -0.0185717 -0.00596175
-0.0253026 -0.0148104 -0.00475432
-0.0307991 -0.0053351 -0.00171264
-0.0244131 0.00619848 0.00198979
-0.00860832 0.0153406 0.00492454
0 0.0455087 0
0 0.0367299 0
0 0.0137804 0
0 -0.0144856 0
0 -0.037163 0
0 -0.0455026 0
0 -0.036287 0
0 -0.0130716 0
0 0.015187 0
0 0.0375863 0
-0.0059927 0.0279511 0.0232989
-0.0156661 0.0225592 0.0188045
-0.0192953 0.00846384 0.00705512
-0.0154803 -0.00889696 -0.00741615
-0.0056929 -0.0228253 -0.0190262
0.00629089 -0.0279474 -0.0232958
0.0158476 -0.0222872 -0.0185777
0.0192902 -0.00802847 -0.00669221
0.0152905 0.00932772 0.00777521
0.0053916 0.0230852 0.0192429
-0.00967337 -0.000390233 0.0376089
-0.025288 -0.000314955 0.030354
-0.0311464 -0.000118166 0.0113883
-0.0249883 0.000124213 -0.0119711
-0.00918945 0.000318669 -0.030712
0.0101547 0.000390181 -0.037604
0.0255811 0.000311158 -0.029988
0.0311381 0.000112088 -0.0108025
0.0246818 -0.000130227 0.0125507
0.00870308 -0.000322299 0.0310618
-0.00962199 -0.028581 0.0374092
-0.0251537 -0.0230676 0.0301928
-0.0309809 -0.00865458 0.0113278
-0.0248555 0.00909746 -0.0119075
-0.00914063 0.0233396 -0.0305488
0.0101008 0.0285772 -0.0374042
0.0254452 0.0227895 -0.0298287
0.0309727 0.0082094 -0.0107451
0.0245507 -0.00953793 0.012484
0.00865685 -0.0236055 0.0308967
-0.00585837 -0.0457451 0.0227766
-0.0153149 -0.0369206 0.0183829
-0.0188628 -0.013852 0.00689697
-0.0151333 0.0145608 -0.00724991
-0.00556529 0.037356 -0.0185997
0.00614987 0.045739 -0.0227736
0.0154924 0.0364755 -0.0181613
0.0188578 0.0131395 -0.0065422
0.0149477 -0.0152658 0.00760092
0.00527074 -0.0377815 0.0188115
0.000165456 -0.0452603 -0.000643273
0.000432533 -0.0365294 -0.000519183
0.000532736 -0.0137052 -0.000194789
0.000427405 0.0144065 0.000204757
0.000157179 0.0369602 0.000525306
-0.000173689 0.0452543 0.000643188
-0.000437546 0.0360889 0.000512923
-0.000532595 0.0130002 0.000184769
-0.000422164 -0.0151041 -0.00021467
-0.00014886 -0.0373811 -0.000531288
0.00612544 -0.0273138 -0.023815
0.0160131 -0.0220448 -0.019221
0.0197228 -0.00827085 -0.0072114
0.0158232 0.0086941 0.00758042
0.00581901 0.0223048 0.0194477
-0.00643024 0.0273101 0.0238118
-0.0161987 0.021779 0.0189892
-0.0197175 0.00784541 0.00684045
-0.0156292 -0.00911503 -0.00794744
-0.00551103 -0.0225588 -0.0196691
0.00972219 0.00117061 -0.0377987
0.0254157 0.000944792 -0.0305072
0.0313036 0.00035447 -0.0114458
0.0251144 -0.000372609 0.0120315
0.00923582 -0.000955933 0.030867
-0.010206 -0.00117045 0.0377937
-0.0257102 -0.0009334 0.0301394
-0.0312953 -0.000336236 0.010857
-0.0248064 0.000390649 -0.012614
-0.008747 0.00096682 -0.0312185
0.00956804 0.0292033 -0.0371994
0.0250127 0.0235699 -0.0300235
0.0308073 0.00884302 -0.0112643
0.0247162 -0.00929555 0.0118407
0.00908938 -0.0238478 0.0303776
-0.0100441 -0.0291994 0.0371945
-0.0253026 -0.0232857 0.0296615
-0.0307991 -0.00838815 0.0106849
-0.0244131 0.0097456 -0.012414
-0.00860832 0.0241194 -0.0307235
0.00572247 0.0459692 -0.0222483
0.0149596 0.0371016 -0.0179565
0.0184253 0.0139199 -0.00673698
0.0147823 -0.0146322 0.00708174
0.0054362 -0.0375391 0.0181683
-0.00600723 -0.0459631 0.0222454
-0.015133 -0.0366542 0.01774
-0.0184204 -0.0132039 0.00639044
-0.014601 0.0153406 -0.00742461
-0.00514848 0.0379666 -0.0183752
