# vtk DataFile Version 3.0
Velocity field
ASCII
DATASET STRUCTURED_POINTS
DIMENSIONS 8 8 8
SPACING 0.8 0.8 0.8
ORIGIN 0 0 0
POINT_DATA 512
VECTORS velocity float
0 0.178471 0
0 0.124342 0
0 -0.00521126 0
0 -0.131603 0
0 -0.178166 0
0 -0.116656 0
0 0.015616 0
0 0.138416 0
0 0.0702127 0.182156
0 0.0489177 0.134554
0 -0.00205018 -0.00563926
0 -0.0517744 -0.142412
0 -0.070093 -0.192799
0 -0.0458941 -0.126237
0 0.00614356 0.0168986
0 0.0544546 0.141274
0 -0.0806353 0.253819
0 -0.0561791 0.187489
0 0.00235451 -0.00785783
0 0.0594599 -0.198438
0 0.0804978 -0.268649
0 0.0527067 -0.175901
0 -0.00705552 0.0235467
0 -0.062538 0.196853
0 -0.182571 0.171518
0 -0.127198 0.126696
0 0.00533099 -0.00530993
0 0.134627 -0.134095
0 0.18226 -0.18154
0 0.119336 -0.118865
0 -0.0159748 0.0159117
0 -0.141596 0.133024
0 -0.173762 -0.0148228
0 -0.121061 -0.0109492
0 0.00507376 0.00045889
0 0.128131 0.0115886
0 0.173465 0.0156888
0 0.113578 0.0102724
0 -0.015204 -0.00137511
0 -0.134764 -0.011496
0 -0.0595508 -0.192172
0 -0.0414894 -0.141953
0 0.00173886 0.00594936
0 0.0439124 0.150243
0 0.0594492 0.203401
0 0.038925 0.133179
0 -0.00521064 -0.0178278
0 -0.0461855 -0.149042
0 0.0907828 -0.252953
0 0.063249 -0.18685
0 -0.00265082 0.00783103
0 -0.0669427 0.197762
0 -0.090628 0.267733
0 -0.0593396 0.175301
0 0.00794342 -0.0234664
0 0.0704081 -0.196182
0 0.186049 -0.160296
0 0.129621 -0.111679
0 -0.00543254 0.00468056
0 -0.137191 0.118201
0 -0.185731 0.160022
0 -0.12161 0.104776
0 0.0162791 -0.0140257
0 0.144293 -0.12432
0 0.124342 0
0 0.0940542 0
0 -0.00394189 0
0 -0.0995469 0
0 -0.134768 0
0 -0.0882408 0
0 0.0118122 0
0 0.0964351 0
0.0388297 0.0489177 0.179921
0.0943571 0.034645 0.127307
0.092058 -0.00145218 -0.00533622
0.0339145 -0.0366725 -0.134757
-0.044801 -0.0496479 -0.182436
-0.0963408 -0.0325074 -0.119452
-0.0894393 0.00434842 0.0159793
-0.0278611 0.0379389 0.13954
0.0541059 -0.0561791 0.250704
0.131479 -0.0397316 0.177392
0.128274 0.00166538 -0.00743553
0.0472567 0.0420563 -0.187771
-0.0624268 0.0569364 -0.25421
-0.134243 0.0372797 -0.166446
-0.124627 -0.00498711 0.0222658
-0.0388221 -0.0435706 0.194437
0.0365621 -0.127198 0.169413
0.0888467 -0.0899587 0.119873
0.0866822 0.00377071 -0.00502458
0.0319337 0.0952228 -0.126888
-0.0421849 0.128914 -0.171783
-0.0907146 0.0844078 -0.112476
-0.0842165 -0.0112917 0.0150461
-0.0262341 -0.0986507 0.131391
-0.00315973 -0.121061 -0.0146409
-0.00767828 -0.0856181 -0.0103595
-0.00749116 0.00358875 0.000434229
-0.00275975 0.0906279 0.0109658
0.00364565 0.122694 0.0148456
0.0078397 0.0803353 0.00972029
0.00727805 -0.0107468 -0.0013003
0.00226717 -0.0938907 -0.011355
-0.0409649 -0.0414894 -0.189814
-0.0995463 -0.0293428 -0.134308
-0.09712 0.00122993 0.00562963
-0.0357794 0.0310597 0.142167
0.0472645 0.042049 0.192467
0.101639 0.027532 0.126021
0.0943574 -0.00368311 -0.016858
0.0293932 -0.0321778 -0.147213
-0.0539213 0.063249 -0.249849
-0.131024 0.0447248 -0.176778
-0.127831 -0.00187468 0.00740982
-0.0470933 -0.0473419 0.187122
0.0622108 -0.064092 0.25333
0.133778 -0.0419649 0.16587
0.124196 0.00561392 -0.0221889
0.0386897 0.0490538 -0.193774
-0.0341698 0.129621 -0.158328
-0.0817825 0.0903081 -0.110308
-0.079787 -0.00378489 0.00462312
-0.0293938 -0.095582 0.11675
0.0388293 -0.1294 0.158058
0.0834991 -0.0847262 0.10349
0.0775194 0.0113418 -0.0138536
0.0245175 0.10053 -0.122794
0 -0.00521126 0
0 -0.00394189 0
0 0.000165208 0
0 0.00417209 0
0 0.00564824 0
0 0.00369824 0
0 -0.000495061 0
0 -0.00404168 0
0.0541059 -0.00205018 0.0685477
0.131479 -0.00145218 0.0484848
0.128274 6.08703e-05 -0.00203228
0.0472567 0.00153718 -0.0513221
-0.0624268 0.00208105 -0.0694803
-0.134243 0.0013626 -0.0454929
-0.124627 -0.000182268 0.00608577
-0.0388221 -0.00159005 0.0531632
0.0753918 0.00235451 0.0955153
0.183204 0.00166538 0.0675593
0.178739 -6.98057e-05 -0.0028318
0.0658483 -0.00176282 -0.0715126
-0.0869863 -0.00238654 -0.0968146
-0.187055 -0.00156262 -0.0633909
-0.173657 0.000209038 0.00848
-0.0540952 0.00182608 0.0740784
0.0509461 0.00533099 0.0645446
0.123801 0.00377071 0.0456531
0.120784 -0.000158053 -0.00191361
0.0444969 -0.00399134 -0.0483246
-0.0587809 -0.00540356 -0.0654226
-0.126404 -0.00353801 -0.0428363
-0.117348 0.000473297 0.00573036
-0.0365549 0.00413453 0.0500585
-0.00440282 0.00507376 -0.005578
-0.010699 0.00358875 -0.00394541
-0.0104383 -0.000150426 0.000165375
-0.0038455 -0.00379877 0.00417626
0.00507992 -0.00514284 0.00565388
0.0109239 -0.00336731 0.00370195
0.0101414 0.000450458 -0.000495226
0.00315911 0.00393503 -0.00432611
-0.0570811 0.00173886 -0.072317
-0.138709 0.00122993 -0.051151
-0.135329 -5.15535e-05 0.00214403
-0.0498556 -0.0013019 0.0541436
0.0658592 -0.00176252 0.0733011
0.141625 -0.00115403 0.0479944
0.131479 0.000154379 -0.00642045
0.0409568 0.0013486 -0.0560866
-0.0751347 -0.00265082 -0.0951895
-0.182571 -0.00187468 -0.0673256
-0.178121 7.85788e-05 0.00282201
-0.0656205 0.00198438 0.0712653
0.0866852 0.00268648 0.0964798
0.186408 0.00175899 0.0631714
0.173055 -0.00023531 -0.0084507
0.0539107 -0.00205588 -0.0738257
-0.0476127 -0.00543254 -0.0603213
-0.113957 -0.00378489 -0.0420263
-0.111176 0.000158628 0.00176136
-0.0409577 0.00400592 0.0444806
0.0541053 0.00542327 0.0602185
0.116349 0.00355094 0.0394287
0.108017 -0.000475343 -0.00527807
0.0341631 -0.00421329 -0.0467832
0 -0.131603 0
0 -0.0995469 0
0 0.00417209 0
0 0.10536 0
0 0.142638 0
0 0.093394 0
0 -0.0125021 0
0 -0.102067 0
0.0365621 -0.0517744 -0.0844053
0.0888467 -0.0366725 -0.0597009
0.0866822 0.00153718 0.00250241
0.0319337 0.0388188 0.0631945
-0.0421849 0.0525536 0.0855534
-0.0907146 0.0344099 0.0560167
-0.0842165 -0.00460288 -0.00749361
-0.0262341 -0.0401545 -0.0654619
0.0509461 0.0594599 -0.117611
0.123801 0.0420563 -0.083188
0.120784 -0.00176282 0.00348688
0.0444969 -0.0445171 0.088056
-0.0587809 -0.0602684 0.119211
-0.126404 -0.0394613 0.0780546
-0.117348 0.00527889 -0.0104417
-0.0365549 0.0461151 -0.0912154
0.0344269 0.134627 -0.0794761
0.0836585 0.0952228 -0.0562142
0.0816201 -0.00399134 0.00235626
0.0300691 -0.100795 0.0595038
-0.0397213 -0.136458 0.0805573
-0.0854174 -0.0893468 0.0527458
-0.0792983 0.0119523 -0.00705596
-0.024702 0.104412 -0.0616389
-0.00297521 0.128131 0.0068684
-0.00722984 0.0906279 0.00485809
-0.00705364 -0.00379877 -0.000203632
-0.00259861 -0.0959311 -0.00514239
0.00343274 -0.129873 -0.00696179
0.00738184 -0.0850361 -0.00455833
0.006853 0.0113756 0.000609785
0.00213477 0.0993738 0.0053269
-0.0385726 0.0439124 0.0890466
-0.0937322 0.0310597 0.0629837
-0.0914482 -0.0013019 -0.00264001
-0.0336899 -0.0328771 -0.066669
0.0445043 -0.0445094 -0.0902574
0.0957028 -0.0291431 -0.0590972
0.0888469 0.00389861 0.00790569
0.0276766 0.0340569 0.0690615
-0.0507724 -0.0669427 0.11721
-0.123373 -0.0473419 0.0829003
-0.120366 0.00198438 -0.00347482
-0.044343 0.0501121 -0.0877512
0.0585776 0.0678425 -0.118799
0.125966 0.0444204 -0.0777847
0.116942 -0.00594238 0.0104056
0.0364302 -0.0519184 0.0909043
-0.0321743 -0.137191 0.0742759
-0.0770064 -0.095582 0.0517485
-0.0751275 0.00400592 -0.00216882
-0.0276772 0.101164 -0.0547706
0.0365617 0.136957 -0.0741492
0.0786228 0.0896741 -0.0485499
0.0729923 -0.0120041 0.00649908
0.0230857 -0.106401 0.0576058
0 -0.178166 0
0 -0.134768 0
0 0.00564824 0
0 0.142638 0
0 0.193106 0
0 0.126438 0
0 -0.0169255 0
0 -0.13818 0
-0.00315973 -0.070093 -0.186159
-0.00767828 -0.0496479 -0.131672
-0.00749116 0.00208105 0.00551915
-0.00275975 0.0525536 0.139377
0.00364565 0.0711478 0.18869
0.0078397 0.0465845 0.123548
0.00727805 -0.00623146 -0.0165274
0.00226717 -0.0543617 -0.144379
-0.00440282 0.0804978 -0.259397
-0.010699 0.0569364 -0.183473
-0.0104383 -0.00238654 0.00769049
-0.0038455 -0.0602684 0.19421
0.00507992 -0.0815923 0.262924
0.0109239 -0.0534235 0.172153
0.0101414 0.00714663 -0.0230295
0.00315911 0.0624313 -0.201179
-0.00297521 0.18226 -0.175288
-0.00722984 0.128914 -0.123983
-0.00705364 -0.00540356 0.00519687
-0.0025986 -0.136458 0.131237
0.00343274 -0.184738 0.177671
0.00738184 -0.12096 0.116332
0.006853 0.0161812 -0.0155623
0.00213477 0.141354 -0.135947
0.00025712 0.173465 0.0151485
0.000624813 0.122694 0.0107147
0.000609585 -0.00514284 -0.000449115
0.000224572 -0.129873 -0.0113417
-0.000296661 -0.175825 -0.0153546
-0.000637948 -0.115123 -0.0100536
-0.000592244 0.0154005 0.00134491
-0.000184489 0.134534 0.0117487
0.00333348 0.0594492 0.196396
0.00810045 0.042049 0.138913
0.00790311 -0.00176252 -0.00582262
0.0029115 -0.0445094 -0.147041
-0.00384613 -0.060258 -0.199067
-0.00827075 -0.0394545 -0.130341
-0.0076783 0.00527798 0.0174362
-0.00239184 0.0461068 0.152318
0.0043878 -0.090628 0.258512
0.010662 -0.064092 0.182839
0.0104022 0.00268648 -0.0076639
0.0038322 0.0678425 -0.193538
-0.00506235 0.091846 -0.262015
-0.0108861 0.0601372 -0.171558
-0.0101063 -0.00804486 0.0229499
-0.00314833 -0.070288 0.200493
0.00278054 -0.185731 0.163818
0.00665497 -0.1294 0.114133
0.00649259 0.00542327 -0.00478342
0.00239189 0.136957 -0.120799
-0.0031597 0.185415 -0.163539
-0.00679466 0.121402 -0.107079
-0.00630807 -0.0162513 0.014334
-0.00199509 -0.144047 0.127052
0 -0.116656 0
0 -0.0882408 0
0 0.00369824 0
0 0.093394 0
0 0.126438 0
0 0.0827866 0
0 -0.0110821 0
0 -0.0904745 0
-0.0409649 -0.0458941 -0.174991
-0.0995463 -0.0325074 -0.123773
-0.09712 0.0013626 0.00518809
-0.0357794 0.0344099 0.131016
0.0472645 0.0465845 0.17737
0.101639 0.0305019 0.116135
0.0943574 -0.0040801 -0.015536
0.0293932 -0.0355939 -0.135717
-0.0570811 0.0527067 -0.243835
-0.138709 0.0372797 -0.172467
-0.135329 -0.00156262 0.0072291
-0.0498556 -0.0394613 0.182559
0.0658592 -0.0534235 0.247152
0.141625 -0.0349794 0.161826
0.131479 0.00467933 -0.021648
0.0409568 0.0408775 -0.18911
-0.0385726 0.119336 -0.164772
-0.0937322 0.0844078 -0.116545
-0.0914482 -0.00353801 0.00488508
-0.0336899 -0.0893468 0.123365
0.0445043 -0.12096 0.167013
0.0957028 -0.0791996 0.109353
0.0888469 0.0105948 -0.0146287
0.0276766 0.0925532 -0.127792
0.00333348 0.113578 0.0142398
0.00810045 0.0803353 0.010072
0.00790311 -0.00336731 -0.000422173
0.0029115 -0.0850361 -0.0106613
-0.00384613 -0.115123 -0.0144334
-0.00827075 -0.0753777 -0.00945041
-0.0076783 0.0100836 0.00126422
-0.00239184 0.0880873 0.0110439
0.0432175 0.038925 0.184614
0.10502 0.027532 0.130579
0.102461 -0.00115403 -0.00547337
0.0377467 -0.0291431 -0.13822
-0.0498639 -0.0394545 -0.187124
-0.107228 -0.0258332 -0.122522
-0.0995465 0.0034558 0.0163902
-0.0310094 0.0301889 0.14318
0.0568864 -0.0593396 0.243004
0.138229 -0.0419649 0.171871
0.13486 0.00175899 -0.0072041
0.0496832 0.0444204 -0.181928
-0.0656314 0.0601372 -0.246298
-0.141135 0.0393755 -0.161266
-0.131024 -0.00526746 0.0215732
-0.0408171 -0.0460218 0.188465
0.0360488 -0.12161 0.153991
0.0862796 -0.0847262 0.107286
0.0841744 0.00355094 -0.00449646
0.0310101 0.0896741 -0.113552
-0.0409645 0.121402 -0.153728
-0.0880905 0.0794893 -0.100655
-0.0817821 -0.0106407 0.0134741
-0.0258657 -0.0943162 0.11943
0 0.015616 0
0 0.0118122 0
0 -0.00049506 0
0 -0.0125021 0
0 -0.0169255 0
0 -0.0110821 0
0 0.00148349 0
0 0.0121113 0
-0.0539213 0.00614356 -0.0576761
-0.131024 0.00434837 -0.0408001
-0.127831 -0.000182266 0.00171017
-0.0470933 -0.00460282 0.0431876
0.0622108 -0.00623138 0.0584678
0.133778 -0.00408005 0.0382824
0.124196 0.000545801 -0.00512116
0.0386897 0.00476473 -0.0447316
-0.0751347 -0.00705552 -0.0803667
-0.182571 -0.00498705 -0.0568513
-0.178121 0.000209035 0.00238297
-0.0656205 0.00527883 0.0601781
0.0866852 0.00714654 0.0814701
0.186408 0.00467927 0.0533435
0.173055 -0.000625995 -0.00713589
0.0539107 -0.00547202 -0.0623296
-0.0507724 -0.0159748 -0.0543079
-0.123373 -0.0112915 -0.0384173
-0.120366 0.000473291 0.0016103
-0.044343 0.0119522 0.0406655
0.0585776 0.016181 0.0550533
0.125966 0.0105947 0.0360469
0.116942 -0.00141736 -0.00482208
0.0364302 -0.0123895 -0.0421193
0.0043878 -0.015204 0.00469334
0.010662 -0.0107467 0.00332007
0.0104022 0.000450453 -0.000139164
0.0038322 0.0113754 -0.00351435
-0.00506235 0.0154003 -0.00475777
-0.0108861 0.0100835 -0.0031152
-0.0101063 -0.00134897 0.00041673
-0.00314833 -0.0117917 0.00363999
0.0568864 -0.00521064 0.0608476
0.138229 -0.00368307 0.0430436
0.13486 0.000154377 -0.00180421
0.0496832 0.00389856 -0.0455623
-0.0656314 0.00527791 -0.0616831
-0.141135 0.00345576 -0.0403876
-0.131024 -0.000462313 0.00540277
-0.0408171 -0.00404119 0.0471914
0.0748785 0.00794342 0.0800926
0.181939 0.00561385 0.0566547
0.177505 -0.000235307 -0.00237473
0.0653936 -0.0059423 -0.05997
-0.086385 -0.00804476 -0.0811883
-0.185764 -0.00526739 -0.0531588
-0.172456 0.00070468 0.00711123
-0.0537268 0.00616064 0.0621171
0.0474503 0.0162791 0.0507544
0.113568 0.0113418 0.035361
0.110797 -0.000475343 -0.00148201
0.040818 -0.0120041 -0.037426
-0.0539207 -0.0162513 -0.0506679
-0.115952 -0.0106407 -0.0331753
-0.107648 0.00142441 0.00444097
-0.0340465 0.0126255 0.0393634
0 0.138416 0
0 0.0964352 0
0 -0.00404168 0
0 -0.102067 0
0 -0.13818 0
0 -0.0904746 0
0 0.0121113 0
0 0.10735 0
-0.0341698 0.0544546 0.0946246
-0.0817825 0.0379389 0.0659256
-0.079787 -0.00159005 -0.00276299
-0.0293938 -0.0401545 -0.0697756
0.0388293 -0.0543617 -0.0944632
0.083499 -0.0355939 -0.0618507
0.0775194 0.00476473 0.00827957
0.0245175 0.0422331 0.0733876
-0.0476127 -0.062538 0.131851
-0.113957 -0.0435706 0.0918616
-0.111176 0.00182608 -0.00384999
-0.0409577 0.0461151 -0.0972262
0.0541053 0.0624313 -0.131626
0.116349 0.0408775 -0.0861837
0.108017 -0.00547202 0.0115369
0.0341631 -0.0485023 0.102259
-0.0321743 -0.141596 0.0890986
-0.0770064 -0.0986508 0.0620756
-0.0751275 0.00413453 -0.00260164
-0.0276772 0.104412 -0.0657007
0.0365617 0.141354 -0.0889466
0.0786228 0.0925532 -0.0582387
0.0729923 -0.0123895 0.00779605
0.0230857 -0.109817 0.0691018
0.00278054 -0.134764 -0.00769999
0.00665497 -0.0938907 -0.00536463
0.00649259 0.00393503 0.000224836
0.00239189 0.0993738 0.00567792
-0.0031597 0.134534 0.00768686
-0.00679466 0.0880873 0.00503305
-0.00630807 -0.0117917 -0.000673742
-0.00199509 -0.104518 -0.00597185
0.0360488 -0.0461855 -0.0998278
0.0862796 -0.0321778 -0.0695507
0.0841743 0.0013486 0.00291493
0.0310101 0.0340569 0.0736124
-0.0409645 0.0461068 0.0996576
-0.0880905 0.0301889 0.0652518
-0.0817821 -0.0040412 -0.00873485
-0.0258657 -0.0358199 -0.0774231
0.0474503 0.0704081 -0.131401
0.113568 0.0490538 -0.0915483
0.110797 -0.00205588 0.00383686
0.040818 -0.0519185 0.0968946
-0.0539207 -0.070288 0.131177
-0.115952 -0.0460218 0.0858897
-0.107648 0.00616065 -0.0114975
-0.0340465 0.0546061 -0.101911
0.0300691 0.144293 -0.0832687
0.0719678 0.10053 -0.0580139
0.0702118 -0.00421329 0.00243141
0.0258662 -0.106401 0.0614019
-0.0341694 -0.144047 0.0831268
-0.0734784 -0.0943162 0.0544281
-0.0682163 0.0126255 -0.00728595
-0.0215752 0.111909 -0.0645804
