# vtk DataFile Version 3.0
Velocity field
ASCII
DATASET STRUCTURED_POINTS
DIMENSIONS 8 8 8
SPACING 0.8 0.8 0.8
ORIGIN 0 0 0
POINT_DATA 512
VECTORS velocity float
0 0.106832 0
0 0.0744307 0
0 -0.00311945 0
0 -0.0787775 0
0 -0.10665 0
0 -0.0698302 0
0 0.00934773 0
0 0.0828555 0
0 0.0420292 0.109038
0 0.0292821 0.0805438
0 -0.00122723 -0.00337565
0 -0.0309921 -0.0852475
0 -0.0419576 -0.115409
0 -0.0274721 -0.0755654
0 0.00367752 0.0101155
0 0.0325964 0.0845664
0 -0.0482681 0.151935
0 -0.0336287 0.112231
0 0.00140941 -0.00470368
0 0.0355926 -0.118785
0 0.0481858 -0.160813
0 0.0315502 -0.105294
0 -0.00422342 0.014095
0 -0.0374351 0.117836
0 -0.109287 0.102671
0 -0.0761408 0.0758401
0 0.00319112 -0.00317852
0 0.0805874 -0.0802691
0 0.1091 -0.108669
0 0.0714346 -0.0711525
0 -0.0095625 0.00952473
0 -0.0847591 0.0796278
0 -0.104013 -0.00887289
0 -0.0724669 -0.00655417
0 0.00303715 0.000274691
0 0.0766989 0.00693693
0 0.103836 0.00939132
0 0.0679877 0.00614907
0 -0.00910109 -0.000823136
0 -0.0806693 -0.00688151
0 -0.035647 -0.115034
0 -0.0248355 -0.0849727
0 0.00104088 0.00356128
0 0.0262859 0.089935
0 0.0355862 0.121755
0 0.0233004 0.0797206
0 -0.00311908 -0.0106717
0 -0.0276466 -0.0892166
0 0.0543425 -0.151417
0 0.0378608 -0.111848
0 -0.00158678 0.00468764
0 -0.0400718 0.11838
0 -0.0542498 0.160264
0 -0.0355206 0.104935
0 0.00475492 -0.014047
0 0.0421462 -0.117434
0 0.111368 -0.0959527
0 0.0775912 -0.0668509
0 -0.00325191 0.00280177
0 -0.0821224 0.0707549
0 -0.111179 0.0957891
0 -0.0727953 0.0627189
0 0.00974465 -0.00839578
0 0.0863736 -0.0744176
0 0.0744307 0
0 0.0563007 0
0 -0.00235961 0
0 -0.0595886 0
0 -0.0806719 0
0 -0.0528208 0
0 0.00707079 0
0 0.0577259 0
0.0232434 0.0292821 0.1077
0.0561419 0.0206056 0.075741
0.0547729 -0.000863635 -0.0031745
0.0201784 -0.0218099 -0.0801674
-0.0266559 -0.0295265 -0.108532
-0.0573209 -0.0193328 -0.0710625
-0.0532157 0.00258728 0.00951031
-0.0166776 0.0227101 0.0835286
0.0323877 -0.0336287 0.150071
0.078229 -0.0236429 0.105539
0.076321 0.000990933 -0.0044234
0.0281169 0.0250245 -0.111706
-0.0371426 0.0338786 -0.15123
-0.0798718 0.0221824 -0.0990194
-0.0741514 -0.00296871 0.0132518
-0.0232388 -0.0260813 0.11639
0.021886 -0.0761408 0.101411
0.0528634 -0.0535314 0.0713178
0.051574 0.00224364 -0.00298912
0.019 0.0566597 -0.0754858
-0.0250991 0.0767068 -0.102194
-0.0539737 0.0502245 -0.0669125
-0.0501078 -0.00672164 0.00895493
-0.0157037 -0.0590522 0.0786506
-0.00189141 -0.0724669 -0.008764
-0.0045685 -0.0509483 -0.00616335
-0.0044571 0.00213537 0.000258323
-0.001642 0.0539259 0.00652355
0.00216909 0.0730057 0.00883169
0.00466446 0.0478012 0.00578263
0.00433037 -0.0063973 -0.000773894
0.00135713 -0.0562028 -0.00679706
-0.0245215 -0.0248355 -0.113622
-0.0592293 -0.0174608 -0.0799058
-0.0577846 0.000731827 0.00334907
-0.0212881 0.0184812 0.0845759
0.0281215 0.0250201 0.1145
0.0604732 0.0163822 0.07497
0.0561418 -0.00219246 -0.0100333
0.0175947 -0.0192616 -0.0881217
-0.0322772 0.0378608 -0.149559
-0.0779608 0.0266168 -0.105177
-0.0760594 -0.00111558 0.00440823
-0.0280205 -0.0281722 0.111323
0.0370153 -0.03814 0.150711
0.0795979 -0.0249725 0.0986798
0.0738972 0.00334213 -0.0132064
0.0231596 0.0293635 -0.115993
-0.020454 0.0775912 -0.0947751
-0.0489549 0.0540583 -0.0660305
-0.0477604 -0.00226563 0.00276739
-0.0175951 -0.0572152 0.0698866
0.0232432 -0.0774589 0.0946135
0.0499824 -0.050717 0.0619492
0.046403 0.00678916 -0.00829274
0.0146762 0.0601771 -0.0735044
0 -0.00311945 0
0 -0.00235961 0
0 9.88931e-05 0
0 0.00249741 0
0 0.00338103 0
0 0.00221376 0
0 -0.000296342 0
0 -0.00241934 0
0.0323877 -0.00122723 0.0410325
0.078229 -0.000863635 0.0288494
0.076321 3.61973e-05 -0.00120915
0.0281169 0.000914111 -0.0305355
-0.0371426 0.00123753 -0.0413394
-0.0798718 0.00081029 -0.0270674
-0.0741514 -0.00010844 0.00362246
-0.0232388 -0.000951801 0.0318234
0.0451294 0.00140941 0.0571753
0.109006 0.000990933 0.0401991
0.106347 -4.15326e-05 -0.00168486
0.0391786 -0.00104885 -0.0425485
-0.0517549 -0.00141994 -0.0576026
-0.111294 -0.000929724 -0.0377161
-0.103323 0.000124426 0.00504758
-0.0323813 0.00109309 0.0443432
0.0304963 0.00319112 0.0386363
0.0736605 0.00224364 0.0271646
0.0718642 -9.40368e-05 -0.00113854
0.026475 -0.00237476 -0.0287521
-0.0349735 -0.00321497 -0.0389251
-0.0752076 -0.00210504 -0.0254866
-0.069821 0.000281721 0.00341092
-0.0218817 0.00247492 0.029965
-0.00263552 0.00303715 -0.00333899
-0.00636581 0.00213537 -0.0023476
-0.00621055 -8.9499e-05 9.83936e-05
-0.00228799 -0.00226018 0.00248478
0.00302245 -0.00305986 0.00336396
0.0064995 -0.00200347 0.00220258
0.00603401 0.000268127 -0.000294775
0.00189104 0.0023555 -0.0025896
-0.0341686 0.00104088 -0.0432889
-0.0825309 0.000731827 -0.0304359
-0.0805178 -3.06727e-05 0.00127564
-0.0296631 -0.000774597 0.0322145
0.039185 -0.00104866 0.0436126
0.0842643 -0.000686618 0.0285557
0.0782289 9.18914e-05 -0.00382167
0.0245167 0.000807267 -0.0335734
-0.0449755 -0.00158678 -0.0569803
-0.108632 -0.00111558 -0.0400614
-0.105983 4.67567e-05 0.00167908
-0.0390442 0.00118077 0.0424027
0.0515775 0.00159855 0.0574052
0.110913 0.00104667 0.0375867
0.102969 -0.000140077 -0.00503029
0.0322709 -0.00123065 -0.044192
-0.0285009 -0.00325191 -0.0361083
-0.0682144 -0.00226563 -0.0251569
-0.0665499 9.49543e-05 0.00105434
-0.0245172 0.00239794 0.026626
0.0323873 0.00324636 0.0360467
0.0696461 0.00212559 0.0236019
0.0646585 -0.000284539 -0.00315944
0.0204499 -0.00252207 -0.0280043
0 -0.0787775 0
0 -0.0595886 0
0 0.00249741 0
0 0.0630685 0
0 0.0853831 0
0 0.0559055 0
0 -0.00748371 0
0 -0.0610971 0
0.021886 -0.0309921 -0.0505249
0.0528634 -0.0218099 -0.0355233
0.051574 0.000914111 0.00148888
0.019 0.0230845 0.0375994
-0.0250991 0.0312522 0.0509025
-0.0539737 0.0204627 0.033329
-0.0501078 -0.00273849 -0.00446047
-0.0157037 -0.0240364 -0.0391854
0.0304963 0.0355926 -0.070402
0.0736605 0.0250245 -0.0494987
0.0718642 -0.00104885 0.00207462
0.026475 -0.0264871 0.0523914
-0.0349735 -0.0358587 0.0709284
-0.0752076 -0.0234788 0.046441
-0.069821 0.00314219 -0.00621525
-0.0218817 0.0276044 -0.0546014
0.0206079 0.0805874 -0.0475743
0.049776 0.0566597 -0.0334488
0.0485623 -0.00237476 0.00140192
0.0178905 -0.0599712 0.0354036
-0.0236334 -0.0811896 0.04793
-0.0508215 -0.0531599 0.0313825
-0.0471817 0.00711445 -0.00419997
-0.0147866 0.0625008 -0.036897
-0.00178096 0.0766989 0.00411142
-0.0043017 0.0539259 0.00289067
-0.00419679 -0.00226018 -0.000121155
-0.00154612 -0.0570772 -0.00305962
0.00204242 -0.0772721 -0.00414215
0.00439205 -0.0505947 -0.00271212
0.00407749 0.00677118 0.000362966
0.00127787 0.059485 0.00318867
-0.0230895 0.0262859 0.0533032
-0.0557701 0.0184812 0.0374767
-0.0544102 -0.000774597 -0.00157074
-0.0200448 -0.0195613 -0.0396667
0.0264793 -0.0264824 -0.0537017
0.0569414 -0.0173396 -0.0351617
0.0528633 0.00232058 0.00470574
0.0165672 0.0203864 0.0413401
-0.0303923 -0.0400718 0.0701619
-0.073408 -0.0281722 0.0493289
-0.0716179 0.00118077 -0.0020675
-0.0263842 0.0298187 -0.0522118
0.0348536 0.040369 -0.0706853
0.0749496 0.026432 -0.0462818
0.0695816 -0.00353744 0.00619397
0.0218071 -0.0310783 0.0544152
-0.0192595 -0.0821224 0.0444614
-0.0460959 -0.0572152 0.0309766
-0.0449712 0.00239794 -0.00129825
-0.0165675 0.0605566 -0.0327856
0.0218858 0.0819824 -0.0443856
0.0470635 0.0536788 -0.0290619
0.0436931 -0.00718564 0.00389034
0.0138191 -0.0636914 0.0344828
0 -0.10665 0
0 -0.080672 0
0 0.00338103 0
0 0.0853831 0
0 0.115593 0
0 0.0756857 0
0 -0.0101316 0
0 -0.0827141 0
-0.00189141 -0.0419576 -0.111435
-0.0045685 -0.0295265 -0.0783479
-0.0044571 0.00123753 0.00328377
-0.001642 0.0312522 0.0829269
0.00216909 0.0423098 0.112267
0.00466446 0.0277027 0.0735082
0.00433037 -0.00370741 -0.00983773
0.00135713 -0.0325408 -0.0864248
-0.00263552 0.0481858 -0.155274
-0.00636581 0.0338786 -0.109171
-0.00621055 -0.00141994 0.00457564
-0.00228799 -0.0358587 0.115551
0.00302245 -0.0485459 0.156435
0.0064995 -0.0317859 0.102427
0.00603401 0.00425395 -0.013708
0.00189104 0.0373713 -0.120426
-0.00178096 0.1091 -0.104927
-0.0043017 0.0767068 -0.0737724
-0.00419679 -0.00321497 0.00309201
-0.00154612 -0.0811896 0.0780839
0.00204242 -0.109916 0.105711
0.00439205 -0.0719687 0.0692153
0.00407749 0.00963165 -0.00926321
0.00127787 0.0846145 -0.0813777
0.000153912 0.103836 0.00906788
0.000371759 0.0730057 0.00637549
0.000362691 -0.00305986 -0.000267213
0.000133616 -0.0772721 -0.00674811
-0.000176508 -0.104612 -0.00913567
-0.000379566 -0.0684958 -0.00598168
-0.00035238 0.0091669 0.000800534
-0.000110435 0.0805317 0.00703274
0.00199542 0.0355862 0.117562
0.00481972 0.0250201 0.0826564
0.00470218 -0.00104866 -0.00346434
0.00173229 -0.0264824 -0.0874867
-0.00228837 -0.0358523 -0.118441
-0.00492094 -0.0234746 -0.0775504
-0.00456849 0.00314164 0.0103787
-0.00143175 0.0275994 0.0911772
0.00262653 -0.0542498 0.154745
0.00634398 -0.03814 0.108797
0.00618927 0.00159855 -0.00455997
0.00228015 0.040369 -0.115155
-0.00301209 0.0546522 -0.155899
-0.00647722 0.0357841 -0.102076
-0.00601333 -0.00478904 0.013661
-0.00188459 -0.0420743 0.120015
0.00166443 -0.111179 0.0980614
0.00398366 -0.0774589 0.06832
0.00388646 0.00324636 -0.00286335
0.00143178 0.0819824 -0.0723099
-0.00189139 0.110989 -0.0978942
-0.00406727 0.0726712 -0.0640972
-0.003776 -0.00972803 0.00858029
-0.00119426 -0.0862263 0.0760531
0 -0.0698302 0
0 -0.0528208 0
0 0.00221376 0
0 0.0559055 0
0 0.0756857 0
0 0.049556 0
0 -0.00663375 0
0 -0.0541579 0
-0.0245215 -0.0274721 -0.10475
-0.0592293 -0.0193328 -0.0736477
-0.0577846 0.00081029 0.00308678
-0.0212881 0.0204627 0.0779519
0.0281215 0.0277027 0.105533
0.0604732 0.0181387 0.0690983
0.0561418 -0.00242746 -0.00924755
0.0175947 -0.0213064 -0.0812402
-0.0341686 0.0315502 -0.145959
-0.0825309 0.0221824 -0.102622
-0.0805178 -0.000929724 0.00430114
-0.0296631 -0.0234788 0.108619
0.039185 -0.0317859 0.14705
0.0842643 -0.0208122 0.096283
0.0782289 0.00278532 -0.0128856
0.0245167 0.0244692 -0.113201
-0.0230895 0.0714346 -0.0986322
-0.0557701 0.0502245 -0.0693468
-0.0544102 -0.00210504 0.0029065
-0.0200448 -0.0531599 0.0733995
0.0264793 -0.0719687 0.0993691
0.0569414 -0.0471222 0.0650632
0.0528633 0.00630642 -0.0087075
0.0165672 0.0554022 -0.0764958
0.00199542 0.0679877 0.0085239
0.00481972 0.0478012 0.00599303
0.00470218 -0.00200347 -0.000251183
0.00173229 -0.0505947 -0.00634326
-0.00228837 -0.0684958 -0.0085876
-0.00492094 -0.0448483 -0.00562282
-0.00456849 0.00600214 0.000752513
-0.00143175 0.0527289 0.00661084
0.02587 0.0233004 0.11051
0.062486 0.0163822 0.0776976
0.0609624 -0.000686618 -0.0032565
0.0224586 -0.0173396 -0.0822385
-0.029668 -0.0234746 -0.111335
-0.0637984 -0.0153702 -0.0728984
-0.0592292 0.00205702 0.00975606
-0.0185622 0.018071 0.0857074
0.0340521 -0.0355206 0.145462
0.0822479 -0.0249725 0.10227
0.0802418 0.00104667 -0.0042864
0.0295614 0.026432 -0.108247
-0.0390507 0.0357841 -0.146546
-0.0839753 0.02343 -0.0959529
-0.0779606 -0.00313567 0.0128415
-0.0244331 -0.0275486 0.112815
0.0215787 -0.0727953 0.0921786
0.0516468 -0.050717 0.0642215
0.0503866 0.00212559 -0.00269157
0.0185626 0.0536788 -0.0679719
-0.0245213 0.0726712 -0.0920214
-0.0527309 0.0475822 -0.060252
-0.0489546 -0.00636953 0.00806555
-0.0154832 -0.0564575 0.0714906
0 0.00934773 0
0 0.00707078 0
0 -0.000296342 0
0 -0.00748371 0
0 -0.0101316 0
0 -0.00663374 0
0 0.000888017 0
0 0.00724978 0
-0.0322772 0.00367752 -0.0345248
-0.0779608 0.00258726 -0.024275
-0.0760594 -0.000108439 0.00101743
-0.0280205 -0.00273847 0.0256937
0.0370153 -0.00370738 0.0347844
0.0795979 -0.00242744 0.0227755
0.0738972 0.000324864 -0.00304808
0.0231596 0.00285216 -0.0267763
-0.0449755 -0.00422342 -0.0481074
-0.108632 -0.00296869 -0.0338251
-0.105983 0.000124425 0.0014177
-0.0390442 0.00314217 0.035802
0.0515775 0.00425392 0.0484692
0.110913 0.0027853 0.0317357
0.102969 -0.000372765 -0.00424722
0.0322709 -0.00327554 -0.0373104
-0.0303923 -0.0095625 -0.0325086
-0.073408 -0.00672159 -0.0228573
-0.0716179 0.000281719 0.000958013
-0.0263842 0.0071144 0.0241932
0.0348536 0.00963158 0.0327531
0.0749496 0.00630637 0.0214455
0.0695816 -0.000844001 -0.00287006
0.0218071 -0.00741634 -0.0252126
0.00262653 -0.00910109 0.00280943
0.00634398 -0.00639726 0.00197536
0.00618928 0.000268125 -8.27925e-05
0.00228015 0.00677113 -0.0020908
-0.00301209 0.00916683 -0.00283056
-0.00647722 0.00600209 -0.00185334
-0.00601333 -0.000803274 0.000248034
-0.00188459 -0.00705849 0.0021789
0.0340521 -0.00311908 0.0364233
0.0822479 -0.00219244 0.0256099
0.0802418 9.18907e-05 -0.00107337
0.0295614 0.00232057 -0.0271066
-0.0390507 0.00314161 -0.0366972
-0.0839753 0.00205701 -0.0240279
-0.0779606 -0.000275295 0.00321568
-0.0244331 -0.00241905 0.0282487
0.0448221 0.00475492 0.0479433
0.10826 0.0033421 0.0337091
0.105619 -0.000140076 -0.00141284
0.0389104 -0.00353741 -0.0356792
-0.0514007 -0.004789 -0.0483031
-0.110533 -0.00313565 -0.0316269
-0.102616 0.000419654 0.00423267
-0.0321608 0.00368775 0.0371832
0.0284037 0.00974465 0.0303815
0.0679817 0.00678916 0.021167
0.066323 -0.000284539 -0.000887127
0.0244336 -0.00718564 -0.0224032
-0.0322769 -0.00972803 -0.0303297
-0.0694086 -0.00636953 -0.0198587
-0.064438 0.000852649 0.00265836
-0.0203802 0.00755762 0.0235629
0 0.0828555 0
0 0.0577259 0
0 -0.00241934 0
0 -0.0610971 0
0 -0.0827141 0
0 -0.0541579 0
0 0.00724978 0
0 0.0642598 0
-0.020454 0.0325964 0.0566421
-0.0489548 0.0227102 0.039463
-0.0477603 -0.000951801 -0.00165392
-0.0175951 -0.0240364 -0.0417676
0.0232431 -0.0325408 -0.0565455
0.0499824 -0.0213064 -0.0370238
0.046403 0.00285216 0.00495614
0.0146762 0.0252807 0.0439297
-0.0285009 -0.0374351 0.0789259
-0.0682143 -0.0260813 0.0549882
-0.0665499 0.00109309 -0.0023046
-0.0245172 0.0276044 -0.0581995
0.0323873 0.0373713 -0.0787913
0.0696461 0.0244692 -0.0515894
0.0646585 -0.00327554 0.00690595
0.0204499 -0.0290334 0.0612122
-0.0192595 -0.0847591 0.0533343
-0.0460959 -0.0590522 0.0371583
-0.0449712 0.00247493 -0.00155734
-0.0165675 0.0625008 -0.0393284
0.0218858 0.0846145 -0.0532433
0.0470634 0.0554022 -0.0348616
0.0436931 -0.00741634 0.0046667
0.0138191 -0.0657362 0.0413642
0.00166443 -0.0806693 -0.0046092
0.00398366 -0.0562028 -0.00321126
0.00388645 0.00235551 0.000134587
0.00143178 0.059485 0.0033988
-0.00189139 0.0805317 0.00460134
-0.00406727 0.0527289 0.00301277
-0.003776 -0.00705849 -0.000403301
-0.00119426 -0.0625643 -0.00357474
0.0215787 -0.0276466 -0.0597568
0.0516468 -0.0192616 -0.041633
0.0503866 0.000807268 0.00174487
0.0185626 0.0203864 0.0440643
-0.0245213 0.0275994 0.0596549
-0.0527308 0.018071 0.0390597
-0.0489546 -0.00241905 -0.00522867
-0.0154832 -0.0214417 -0.0463453
0.0284037 0.0421462 -0.0786567
0.0679817 0.0293635 -0.0548007
0.0663229 -0.00123065 0.00229674
0.0244336 -0.0310783 0.058001
-0.0322769 -0.0420743 0.0785226
-0.0694086 -0.0275486 0.0514135
-0.064438 0.00368775 -0.0068824
-0.0203802 0.0326871 -0.0610035
0.0179993 0.0863736 -0.0498445
0.0430798 0.0601771 -0.034727
0.0420287 -0.00252207 0.00145544
0.0154835 -0.0636914 0.0367551
-0.0204538 -0.0862263 0.0497595
-0.0439841 -0.0564575 0.0325806
-0.0408342 0.00755762 -0.00436136
-0.0129149 0.0669884 -0.0386577
