# vtk DataFile Version 3.0
Velocity field
ASCII
DATASET STRUCTURED_POINTS
DIMENSIONS 8 8 8
SPACING 0.8 0.8 0.8
ORIGIN 0 0 0
POINT_DATA 512
VECTORS velocity float
0 0.125107 0
0 0.0871626 0
0 -0.00365305 0
0 -0.0922528 0
0 -0.124893 0
0 -0.0817751 0
0 0.0109467 0
0 0.0970284 0
0 0.0492186 0.12769
0 0.0342909 0.0943212
0 -0.00143716 -0.00395308
0 -0.0362935 -0.0998295
0 -0.0491347 -0.135151
0 -0.0321714 -0.0884913
0 0.00430659 0.0118458
0 0.0381723 0.0990319
0 -0.0565247 0.177925
0 -0.0393811 0.131428
0 0.0016505 -0.00550827
0 0.041681 -0.139104
0 0.0564283 -0.188321
0 0.036947 -0.123305
0 -0.00494586 0.0165061
0 -0.0438386 0.137992
0 -0.127981 0.120233
0 -0.0891651 0.088813
0 0.00373698 -0.00372222
0 0.0943723 -0.0939996
0 0.127763 -0.127258
0 0.0836539 -0.0833235
0 -0.0111982 0.011154
0 -0.0992576 0.0932486
0 -0.121806 -0.0103906
0 -0.0848628 -0.0076753
0 0.00355667 0.000321678
0 0.0898187 0.00812353
0 0.121598 0.0109978
0 0.0796174 0.0072009
0 -0.0106579 -0.000963939
0 -0.0944682 -0.00805863
0 -0.0417446 -0.134711
0 -0.0290838 -0.0995078
0 0.00121892 0.00417046
0 0.0307822 0.105319
0 0.0416734 0.142582
0 0.0272861 0.0933573
0 -0.00365262 -0.0124972
0 -0.0323757 -0.104478
0 0.0636381 -0.177318
0 0.0443371 -0.13098
0 -0.0018582 0.00548949
0 -0.0469263 0.138629
0 -0.0635295 0.187679
0 -0.0415966 0.122884
0 0.00556828 -0.0164498
0 0.0493555 -0.137522
0 0.130419 -0.112366
0 0.0908636 -0.0782861
0 -0.00380817 0.00328103
0 -0.0961699 0.0828579
0 -0.130196 0.112174
0 -0.0852474 0.0734473
0 0.0114115 -0.00983193
0 0.101148 -0.0871472
0 0.0871626 0
0 0.0659313 0
0 -0.00276323 0
0 -0.0697816 0
0 -0.0944714 0
0 -0.0618561 0
0 0.00828028 0
0 0.0676003 0
0.0272193 0.0342909 0.126123
0.0658466 0.0241702 0.0888358
0.0642413 -0.00101305 -0.0037234
0.0236666 -0.0255832 -0.0940289
-0.0312638 -0.0346349 -0.127298
-0.0672297 -0.0226775 -0.0833496
-0.0624147 0.00303461 0.0111537
-0.0195304 0.0265949 0.0978166
0.0379278 -0.0393811 0.175741
0.0917517 -0.0277291 0.123785
0.0895141 0.00116222 -0.00518824
0.0329773 0.0293499 -0.131021
-0.0435633 0.0397344 -0.177379
-0.0936788 0.0260165 -0.116141
-0.0869695 -0.00348154 0.0155417
-0.027214 -0.0305426 0.136299
0.0256298 -0.0891651 0.118757
0.0620014 -0.0627832 0.0836479
0.0604893 0.00263145 -0.00350596
0.0222844 0.0664532 -0.0885379
-0.0294378 0.0899653 -0.119864
-0.0633039 0.0589057 -0.0784821
-0.0587694 -0.00788277 0.0105023
-0.0183899 -0.0691534 0.0921042
-0.00221495 -0.0848628 -0.0102631
-0.00535822 -0.0597538 -0.00722893
-0.00522757 0.00250447 0.000302989
-0.00192585 0.0632468 0.00765152
0.00254405 0.0856246 0.0103587
0.00547079 0.0560636 0.0067825
0.00507892 -0.00750241 -0.000907623
0.00158927 -0.0658166 -0.00795974
-0.0287161 -0.0290838 -0.133058
-0.0694677 -0.0204786 -0.0937208
-0.0677735 0.000858323 0.00392815
-0.024968 0.0216756 0.0991997
0.0329828 0.0293447 0.134297
0.070927 0.0192138 0.0879329
0.0658465 -0.00257119 -0.011767
0.0206044 -0.0225564 -0.103195
-0.0377984 0.0443371 -0.175142
-0.0914365 0.0312163 -0.12336
-0.0892067 -0.00130838 0.00517042
-0.032864 -0.0330411 0.130571
0.0434137 -0.0447315 0.176769
0.0933571 -0.0292884 0.115741
0.0866708 0.00391938 -0.0154884
0.0271211 0.0343863 -0.135834
-0.0239528 0.0908636 -0.110987
-0.0573289 0.0633053 -0.0773254
-0.0559301 -0.00265318 0.00324077
-0.0206048 -0.0670022 0.0818411
0.027219 -0.0907087 0.110798
0.0585322 -0.0593924 0.0725459
0.0543405 0.00795049 -0.00971127
0.0171866 0.0704707 -0.0860777
0 -0.00365305 0
0 -0.00276323 0
0 0.000115809 0
0 0.0029246 0
0 0.00395937 0
0 0.00259244 0
0 -0.000347034 0
0 -0.00283318 0
0.0379278 -0.00143716 0.0480514
0.0917517 -0.00101305 0.033836
0.0895141 4.24606e-05 -0.00141818
0.0329773 0.00107228 -0.0358141
-0.0435633 0.00145166 -0.0484856
-0.0936788 0.000950493 -0.0317465
-0.0869695 -0.000127191 0.00424828
-0.027214 -0.00111461 0.037267
0.0528491 0.0016505 0.0669555
0.127848 0.00116222 0.0471475
0.124731 -4.87123e-05 -0.00197611
0.0459511 -0.00123015 -0.0499037
-0.0607015 -0.0016654 -0.0675602
-0.130533 -0.00109044 -0.044236
-0.121184 0.000145922 0.00591961
-0.0379203 0.00128007 0.0519284
0.0357128 0.00373698 0.0452452
0.0863936 0.00263145 0.03186
0.0842871 -0.000110293 -0.00133536
0.0310516 -0.00278527 -0.0337224
-0.0410192 -0.00377074 -0.0456539
-0.0882085 -0.00246893 -0.0298924
-0.0818904 0.000330392 0.0040002
-0.0256247 0.00289828 0.0350907
-0.00308634 0.00355667 -0.00391014
-0.0074662 0.00250447 -0.00275338
-0.00728413 -0.000104971 0.000115403
-0.0026835 -0.00265089 0.00291432
0.00354493 -0.00358881 0.00394547
0.00762304 -0.0023498 0.00258333
0.00707706 0.000314449 -0.000345701
0.00221451 0.00275843 -0.00303257
-0.0400134 0.00121892 -0.0506937
-0.0967972 0.000858323 -0.0356967
-0.0944365 -3.59751e-05 0.00149616
-0.0347908 -0.000908498 0.0377832
0.0459587 -0.00122994 0.0511518
0.0988306 -0.000805311 0.033492
0.0917515 0.000107767 -0.0044819
0.0287104 0.000945355 -0.0393163
-0.0526689 -0.0018582 -0.0667271
-0.127409 -0.00130838 -0.0469856
-0.124302 5.48383e-05 0.00196933
-0.0457932 0.00138486 0.0497324
0.0604931 0.00187484 0.0673282
0.130085 0.00122757 0.0440839
0.120768 -0.000164274 -0.00589929
0.037791 -0.00144116 -0.0517513
-0.0333761 -0.00380817 -0.0422848
-0.0798828 -0.00265318 -0.0294601
-0.0779337 0.000111197 0.0012347
-0.028711 0.00280812 0.0311805
0.0379274 0.00380167 0.0422127
0.0815595 0.00248918 0.0276392
0.0757188 -0.000333212 -0.00369988
0.023948 -0.00295348 -0.0327946
0 -0.0922528 0
0 -0.0697816 0
0 0.0029246 0
0 0.0738568 0
0 0.0999884 0
0 0.0654684 0
0 -0.00876385 0
0 -0.0715481 0
0.0256298 -0.0362935 -0.0591675
0.0620014 -0.0255832 -0.0416635
0.0604893 0.00107228 0.00174625
0.0222844 0.0270787 0.044099
-0.0294378 0.0366597 0.0597017
-0.0633039 0.0240033 0.0390904
-0.0587694 -0.00321201 -0.00523106
-0.0183899 -0.028148 -0.0458883
0.0357128 0.041681 -0.0824447
0.0863936 0.0293499 -0.0580544
0.0842871 -0.00123015 0.00243325
0.0310516 -0.0310658 0.061448
-0.0410192 -0.0420574 0.0831895
-0.0882085 -0.0275374 0.054469
-0.0818903 0.00368504 -0.007289
-0.0256247 0.0323263 -0.0639413
0.024133 0.0943723 -0.0557121
0.0583803 0.0664532 -0.0392303
0.0569571 -0.00278527 0.00164427
0.0209832 -0.0703382 0.0415237
-0.0277188 -0.0952245 0.0562154
-0.0596067 -0.0623494 0.0368076
-0.0553376 0.00834355 -0.00492556
-0.0173159 0.0731919 -0.0432084
-0.0020856 0.0898187 0.0048147
-0.00504529 0.0632468 0.00339032
-0.00492227 -0.00265089 -0.000142099
-0.00181339 -0.0669439 -0.00358852
0.00239548 -0.0906297 -0.00485818
0.00515128 -0.0593407 -0.00318095
0.00478232 0.00794097 0.000425672
0.00149646 0.0696602 0.00373411
-0.0270391 0.0307822 0.062421
-0.0654105 0.0216756 0.0439545
-0.0638158 -0.000908499 -0.00184227
-0.0235099 -0.0229427 -0.0465237
0.0310567 -0.0310603 -0.0629849
0.0667846 -0.020337 -0.0412399
0.0620013 0.00272149 0.00551872
0.0194011 0.0238736 0.0484116
-0.0355911 -0.0469263 0.0821635
-0.0860969 -0.0330411 0.057855
-0.0839976 0.00138486 -0.00242489
-0.0309449 0.0349726 -0.061237
0.0408783 0.0473464 -0.0829038
0.0879053 0.0310005 -0.0542819
0.0816091 -0.00414849 0.00726399
0.0255373 -0.0363944 0.0637232
-0.022554 -0.0961699 0.0520668
-0.0539809 -0.0670022 0.0362753
-0.0526638 0.00280812 -0.00152033
-0.0194015 0.0709151 -0.0383937
0.0256295 0.096006 -0.051978
0.055114 0.0628609 -0.0340331
0.0511671 -0.00841479 0.0045558
0.0161829 -0.0745861 0.0403812
0 -0.124893 0
0 -0.0944714 0
0 0.00395937 0
0 0.0999884 0
0 0.135366 0
0 0.0886321 0
0 -0.0118646 0
0 -0.0968629 0
-0.00221495 -0.0491347 -0.130496
-0.00535822 -0.0346349 -0.0918902
-0.00522757 0.00145166 0.00385142
-0.00192585 0.0366597 0.0972621
0.00254405 0.0496306 0.131674
0.00547079 0.032496 0.0862153
0.00507892 -0.00434847 -0.0115373
0.00158927 -0.0381071 -0.101208
-0.00308634 0.0564283 -0.181835
-0.0074662 0.0397344 -0.128041
-0.00728413 -0.0016654 0.00536662
-0.0026835 -0.0420574 0.135526
0.00354493 -0.0569378 0.183477
0.00762304 -0.0372806 0.120133
0.00707707 0.00498886 -0.0160762
0.00221451 0.0437638 -0.141025
-0.0020856 0.127763 -0.122875
-0.00504529 0.0899653 -0.0865239
-0.00492227 -0.00377074 0.00362651
-0.00181339 -0.0952245 0.0915818
0.00239548 -0.128917 0.123985
0.00515128 -0.0844096 0.0811803
0.00478232 0.0112956 -0.0108635
0.00149646 0.0990883 -0.0952978
0.000180239 0.121598 0.010619
0.000436021 0.0856245 0.00747748
0.000425387 -0.00358881 -0.000313405
0.000156714 -0.0906297 -0.00791462
-0.00020702 -0.122696 -0.0107149
-0.00044518 -0.0803363 -0.00701571
-0.000413292 0.0107506 0.000938835
-0.000129325 0.0943071 0.00823573
0.00233675 0.0416734 0.137672
0.00565285 0.0293447 0.0969434
0.00551503 -0.00122994 -0.0040632
0.00203175 -0.0310603 -0.10261
-0.00268395 -0.0420499 -0.138916
-0.0057716 -0.0275326 -0.090956
-0.00535822 0.00368439 0.0121717
-0.00167666 0.0323205 0.106774
0.00307581 -0.0635295 0.181215
0.00744056 -0.0447315 0.127601
0.00725914 0.00187484 -0.00534821
0.00267429 0.0473464 -0.13506
-0.00353276 0.0640984 -0.182847
-0.00759686 0.041969 -0.119721
-0.00705276 -0.00561629 0.016021
-0.00220696 -0.0492713 0.140544
0.00194913 -0.130196 0.114835
0.00466509 -0.0907087 0.0800066
0.00455126 0.00380167 -0.00335314
0.0016767 0.096006 -0.0846789
-0.00221492 0.129974 -0.11464
-0.004763 0.085102 -0.0750614
-0.00442191 -0.0113921 0.010048
-0.00139854 -0.100976 0.0890624
0 -0.0817751 0
0 -0.0618561 0
0 0.00259244 0
0 0.0654684 0
0 0.0886321 0
0 0.0580328 0
0 -0.00776849 0
0 -0.0634219 0
-0.0287161 -0.0321714 -0.122668
-0.0694677 -0.0226775 -0.0863777
-0.0677735 0.000950493 0.00362039
-0.024968 0.0240033 0.091427
0.0329828 0.032496 0.123775
0.070927 0.0212771 0.081043
0.0658465 -0.0028472 -0.0108452
0.0206044 -0.024951 -0.0951368
-0.0400134 0.036947 -0.170927
-0.0967972 0.0260165 -0.12036
-0.0944365 -0.00109044 0.00504467
-0.0347908 -0.0275374 0.127396
0.0459587 -0.0372806 0.17247
0.0988306 -0.0244099 0.112927
0.0917515 0.00326651 -0.0151118
0.0287104 0.0286548 -0.132565
-0.0270391 0.0836539 -0.115504
-0.0654105 0.0589057 -0.0813333
-0.0638158 -0.00246893 0.00340894
-0.0235099 -0.0623494 0.0860879
0.0310567 -0.0844096 0.116546
0.0667846 -0.055268 0.0763103
0.0620013 0.00739592 -0.0102118
0.0194011 0.0648791 -0.0895809
0.00233675 0.0796174 0.00998196
0.00565285 0.0560636 0.00702892
0.00551503 -0.0023498 -0.000294604
0.00203175 -0.0593407 -0.00743978
-0.00268395 -0.0803363 -0.0100721
-0.0057716 -0.052601 -0.00659481
-0.00535822 0.00703908 0.000882518
-0.00167666 0.0617485 0.00774167
0.0302952 0.0272861 0.129413
0.0732875 0.0192138 0.0911274
0.0715007 -0.000805311 -0.00381945
0.0263409 -0.020337 -0.0964546
-0.0347966 -0.0275326 -0.130581
-0.0748271 -0.0180272 -0.0855
-0.0694676 0.0024124 0.0114415
-0.0217374 0.0211622 0.100368
0.0398769 -0.0415966 0.170344
0.0964647 -0.0292884 0.119946
0.0941122 0.00122757 -0.00502734
0.0346714 0.0310005 -0.126959
-0.0458008 0.041969 -0.171878
-0.0984911 0.0274796 -0.112539
-0.0914364 -0.00367732 0.0150599
-0.0286125 -0.0322609 0.132113
0.0252699 -0.0852474 0.107946
0.0604813 -0.0593924 0.0752069
0.0590056 0.00248918 -0.00315198
0.0217378 0.0628609 -0.0795989
-0.0287158 0.085102 -0.107762
-0.0617508 0.0557214 -0.0705584
-0.0573286 -0.00745907 0.00944521
-0.0181317 -0.0661149 0.0837195
0 0.0109467 0
0 0.00828028 0
0 -0.000347033 0
0 -0.00876384 0
0 -0.0118646 0
0 -0.00776848 0
0 0.00103992 0
0 0.0084899 0
-0.0377984 0.00430659 -0.0404305
-0.0914365 0.00303458 -0.0284713
-0.0892067 -0.00012719 0.00119333
-0.032864 -0.00321198 0.0301357
0.0434137 -0.00434843 0.0407981
0.0933571 -0.00284718 0.026713
0.0866708 0.000381003 -0.00357472
0.0271211 0.00334004 -0.0313565
-0.0526689 -0.00494586 -0.0563364
-0.127409 -0.00348151 -0.0396723
-0.124302 0.000145921 0.0016628
-0.0457932 0.003685 0.0419916
0.0604931 0.00498882 0.0568488
0.130085 0.00326648 0.0372224
0.120768 -0.000437127 -0.00498105
0.037791 -0.00383584 -0.0436926
-0.0355911 -0.0111982 -0.0380694
-0.0860969 -0.0078827 -0.0268086
-0.0839976 0.000330389 0.00112364
-0.0309449 0.00834347 0.0283759
0.0408783 0.0112955 0.0384156
0.0879053 0.00739585 0.0251531
0.0816091 -0.000989727 -0.00336595
0.0255373 -0.00868495 -0.0295253
0.00307581 -0.0106579 0.00329
0.00744056 -0.00750234 0.00231683
0.00725914 0.000314447 -9.71062e-05
0.0026743 0.00794091 -0.00245227
-0.00353276 0.0107505 -0.00331992
-0.00759686 0.00703901 -0.00217375
-0.00705276 -0.00094197 0.00029089
-0.00220696 -0.00826589 0.00255161
0.0398769 -0.00365262 0.0426537
0.0964647 -0.00257117 0.030037
0.0941122 0.000107766 -0.00125895
0.0346714 0.00272147 -0.0317929
-0.0458008 0.00368435 -0.0430417
-0.0984911 0.00241237 -0.028182
-0.0914364 -0.000322828 0.00377129
-0.0286125 -0.00283285 0.0330808
0.0524892 0.00556828 0.0561443
0.126972 0.00391935 0.0395361
0.123875 -0.000164272 -0.00165709
0.045636 -0.00414846 -0.0418474
-0.0602853 -0.00561624 -0.0566536
-0.129638 -0.00367729 -0.0370945
-0.120353 0.000492103 0.00496395
-0.0376621 0.00431856 0.0435436
0.0332623 0.0114115 0.0355785
0.0796104 0.00795049 0.0247878
0.0776679 -0.000333212 -0.00103888
0.0286131 -0.00841479 -0.0262353
-0.037798 -0.0113921 -0.0355178
-0.0812814 -0.00745907 -0.0232556
-0.0754605 0.000998499 0.00311309
-0.0238664 0.00885039 0.0275935
0 0.0970284 0
0 0.0676003 0
0 -0.00283318 0
0 -0.0715481 0
0 -0.0968629 0
0 -0.063422 0
0 0.0084899 0
0 0.0752519 0
-0.0239528 0.0381723 0.0663311
-0.0573289 0.0265949 0.0462133
-0.05593 -0.00111461 -0.00193684
-0.0206048 -0.028148 -0.0489121
0.027219 -0.0381071 -0.066218
0.0585322 -0.024951 -0.0433569
0.0543405 0.00334004 0.00580392
0.0171866 0.0296051 0.0514441
-0.0333761 -0.0438386 0.0924266
-0.0798828 -0.0305427 0.0643943
-0.0779337 0.00128007 -0.00269882
-0.028711 0.0323263 -0.0681548
0.0379274 0.0437639 -0.092269
0.0815595 0.0286548 -0.0604141
0.0757187 -0.00383584 0.00808725
0.023948 -0.0339997 0.0716829
-0.022554 -0.0992576 0.0624574
-0.0539809 -0.0691534 0.0435145
-0.0526638 0.00289828 -0.00182373
-0.0194015 0.0731919 -0.0460557
0.0256295 0.0990883 -0.0623509
0.0551139 0.0648791 -0.0408249
0.051167 -0.00868496 0.00546497
0.0161829 -0.0769808 0.0484398
0.00194913 -0.0944682 -0.00539763
0.00466508 -0.0658166 -0.00376057
0.00455126 0.00275843 0.000157608
0.0016767 0.0696603 0.00398018
-0.00221492 0.0943071 0.00538843
-0.004763 0.0617485 0.00352813
-0.00442191 -0.00826589 -0.000472288
-0.00139854 -0.0732663 -0.00418622
0.0252699 -0.0323757 -0.0699786
0.0604813 -0.0225564 -0.0487545
0.0590056 0.000945355 0.00204334
0.0217378 0.0238736 0.0516017
-0.0287158 0.0323205 0.0698592
-0.0617508 0.0211622 0.045741
-0.0573286 -0.00283285 -0.00612307
-0.0181317 -0.0251095 -0.054273
0.0332623 0.0493555 -0.0921114
0.0796104 0.0343863 -0.0641746
0.0776679 -0.00144116 0.00268961
0.0286131 -0.0363944 0.0679224
-0.037798 -0.0492713 0.0919544
-0.0812813 -0.0322609 0.060208
-0.0754605 0.00431856 -0.00805967
-0.0238664 0.0382784 -0.0714385
0.0210782 0.101148 -0.0583707
0.0504489 0.0704707 -0.0406673
0.0492179 -0.00295348 0.0017044
0.018132 -0.0745861 0.0430422
-0.0239525 -0.100976 0.0582712
-0.0515078 -0.0661149 0.0381537
-0.0478191 0.00885039 -0.00510739
-0.015124 0.0784472 -0.0452704
