# vtk DataFile Version 3.0
Velocity field
ASCII
DATASET STRUCTURED_POINTS
DIMENSIONS 5 5 5
SPACING 1.33333 1.33333 1.33333
ORIGIN 0 0 0
POINT_DATA 125
VECTORS velocity float
0 0.498731 0
0 0.11732 0
0 -0.443534 0
0 -0.325992 0
0 0.290163 0
0 -0.26409 0.866145
0 -0.0621239 0.234817
0 0.234862 -0.887735
0 0.172621 -0.652474
0 -0.153649 0.503927
0 -0.622978 0.4075
0 -0.146548 0.110475
0 0.554031 -0.417657
0 0.407206 -0.306973
0 -0.362451 0.237085
0 -0.0290058 -0.674427
0 -0.00682324 -0.182841
0 0.0257956 0.691237
0 0.0189594 0.508051
0 -0.0168756 -0.392384
0 0.609332 -0.724801
0 0.143338 -0.1705
0 -0.541895 0.644585
0 -0.398286 0.473761
0 0.354512 -0.421692
0 0.11732 0
0 0.0351171 0
0 -0.132762 0
0 -0.0975782 0
0 0.0682572 0
0.370707 -0.0621239 0.304175
0.577186 -0.0153709 0.0758853
-0.120995 0.0581912 -0.287351
-0.63419 0.0427819 -0.211267
-0.167507 -0.0361439 0.17697
0.174408 -0.146548 0.143107
0.271553 -0.0364002 0.0357024
-0.0569255 0.137817 -0.135191
-0.29837 0.101324 -0.0993966
-0.0788079 -0.0852621 0.0832601
-0.288652 -0.00682324 -0.236847
-0.449253 -0.00170669 -0.0590656
0.0941765 0.00646368 0.223656
0.493621 0.00475243 0.164437
0.13043 -0.00396978 -0.137798
-0.310212 0.143338 -0.254537
-0.456159 0.0337184 -0.0598768
0.0956007 -0.127474 0.226367
0.501137 -0.0936918 0.166377
0.140172 0.0833944 -0.148091
0 -0.443534 0
0 -0.132762 0
0 0.501913 0
0 0.368899 0
0 -0.25805 0
0.174408 0.234862 -0.723039
0.271553 0.0581912 -0.179857
-0.0569255 -0.220313 0.681011
-0.29837 -0.161975 0.500692
-0.0788079 0.136644 -0.420667
0.0820549 0.554031 -0.340172
0.127759 0.137817 -0.0846189
-0.0267821 -0.521828 0.320401
-0.140377 -0.383657 0.235563
-0.0370772 0.322337 -0.197913
-0.135804 0.0257956 0.562996
-0.211363 0.00646368 0.139995
0.0443079 -0.0244814 -0.530067
0.232237 -0.0180003 -0.389713
0.061364 0.015008 0.327553
-0.145947 -0.541895 0.605047
-0.214612 -0.127474 0.14233
0.0449777 0.481922 -0.538085
0.235772 0.354206 -0.395485
0.0659474 -0.315277 0.352019
0 -0.325992 0
0 -0.0975783 0
0 0.368899 0
0 0.271136 0
0 -0.189663 0
-0.288652 0.172621 -0.644347
-0.449253 0.0427822 -0.16032
0.0941765 -0.161976 0.60704
0.493621 -0.119085 0.446308
0.13043 0.100431 -0.374883
-0.135804 0.407206 -0.303149
-0.211363 0.101325 -0.075427
0.0443079 -0.38366 0.2856
0.232237 -0.282074 0.209978
0.061364 0.236914 -0.176373
0.22476 0.0189594 0.501723
0.34968 0.00475246 0.124788
-0.0733024 -0.0180004 -0.472491
-0.384211 -0.0132351 -0.347384
-0.10156 0.0110307 0.291904
0.241548 -0.398286 0.539197
0.35519 -0.0936918 0.126839
-0.0744397 0.354206 -0.479522
-0.390212 0.260337 -0.352443
-0.109145 -0.231724 0.313707
0 0.290163 0
0 0.0682573 0
0 -0.25805 0
0 -0.189663 0
0 0.168818 0
-0.310212 -0.153649 0.419889
-0.456159 -0.0361439 0.0987737
0.0956006 0.136644 -0.373419
0.501137 0.100431 -0.274458
0.140172 -0.0893933 0.244293
-0.145947 -0.362451 0.197547
-0.214612 -0.0852621 0.0464706
0.0449777 0.322337 -0.175684
0.235772 0.236914 -0.129126
0.0659474 -0.210875 0.114934
0.241548 -0.0168756 -0.326948
0.35519 -0.00396978 -0.0769105
-0.0744397 0.015008 0.290764
-0.390212 0.0110307 0.213708
-0.109145 -0.00981831 -0.19022
0.259589 0.354512 -0.351368
0.38172 0.0833944 -0.0826551
-0.0799998 -0.315277 0.312481
-0.419358 -0.231724 0.22967
-0.117298 0.206256 -0.204427
