# vtk DataFile Version 3.0
Velocity field
ASCII
DATASET STRUCTURED_POINTS
DIMENSIONS 10 10 10
SPACING 0.631579 0.631579 0.631579
ORIGIN 0 0 0
POINT_DATA 1000
VECTORS velocity float
0 0.66086 0
0 0.533378 0
0 0.200114 0
0 -0.210355 0
0 -0.539667 0
0 -0.660772 0
0 -0.526946 0
0 -0.189821 0
0 0.220539 0
0 0.545814 0
0 0.405895 0.517667
0 0.327597 0.434189
0 0.122909 0.162901
0 -0.129198 -0.171237
0 -0.33146 -0.43931
0 -0.405841 -0.537893
0 -0.323647 -0.428954
0 -0.116586 -0.154521
0 0.135454 0.179527
0 0.335235 0.427549
0 -0.00566681 0.835615
0 -0.00457366 0.700866
0 -0.00171596 0.262953
0 0.00180377 -0.276409
0 0.0046276 -0.70913
0 0.00566606 -0.868264
0 0.00451851 -0.692415
0 0.00162769 -0.249427
0 -0.0018911 0.289792
0 -0.0046803 0.690146
0 -0.415043 0.831176
0 -0.334979 0.697143
0 -0.125679 0.261556
0 0.13211 -0.274941
0 0.33893 -0.705363
0 0.414988 -0.863652
0 0.33094 -0.688736
0 0.119214 -0.248102
0 -0.138506 0.288252
0 -0.34279 0.68648
0 -0.664292 0.506063
0 -0.536148 0.424457
0 -0.201153 0.159249
0 0.211447 -0.167398
0 0.54247 -0.429462
0 0.664204 -0.525836
0 0.529683 -0.419338
0 0.190806 -0.151057
0 -0.221685 0.175503
0 -0.548648 0.417964
0 -0.657252 -0.0142926
0 -0.530466 -0.0119878
0 -0.199022 -0.00449761
0 0.209206 0.00472777
0 0.536721 0.0121291
0 0.657165 0.014851
0 0.52407 0.0118432
0 0.188784 0.00426626
0 -0.219335 -0.00495667
0 -0.542834 -0.0118044
0 -0.39664 -0.529134
0 -0.320127 -0.443807
0 -0.120106 -0.166509
0 0.126252 0.17503
0 0.323902 0.449041
0 0.396588 0.549808
0 0.316267 0.438456
0 0.113928 0.157944
0 -0.132365 -0.183504
0 -0.327591 -0.437019
0 0.0169991 -0.839831
0 0.0137199 -0.704403
0 0.00514748 -0.26428
0 -0.00541089 0.277804
0 -0.0138817 0.712709
0 -0.0169968 0.872646
0 -0.0135545 0.695909
0 -0.0048827 0.250686
0 0.00567286 -0.291254
0 0.0140398 -0.693629
0 0.42408 -0.826516
0 0.342273 -0.693234
0 0.128415 -0.26009
0 -0.134986 0.273399
0 -0.346309 0.701408
0 -0.424023 0.858809
0 -0.338146 0.684875
0 -0.12181 0.246711
0 0.141522 -0.286636
0 0.350253 -0.682631
0 0.667547 -0.494324
0 0.538775 -0.398967
0 0.202139 -0.149686
0 -0.212483 0.157346
0 -0.545128 0.403672
0 -0.667459 0.494259
0 -0.532279 0.394157
0 -0.191741 0.141986
0 0.222771 -0.164964
0 0.551337 -0.408269
0 0.533378 0
0 0.452881 0
0 0.169913 0
0 -0.178608 0
0 -0.458222 0
0 -0.56105 0
0 -0.44742 0
0 -0.161173 0
0 0.187256 0
0 0.440524 0
0.0752681 0.327597 0.572912
0.208422 0.279314 0.489045
0.256876 0.104995 0.183853
0.20609 -0.110383 -0.193287
0.0757897 -0.283187 -0.49588
-0.083751 -0.346736 -0.607158
-0.210979 -0.276512 -0.484191
-0.256808 -0.0996178 -0.174439
-0.203437 0.115259 0.201783
-0.0677183 0.270567 0.473176
0.121497 -0.00457366 0.924791
0.336433 -0.00388341 0.789412
0.414648 -0.00145963 0.296774
0.33267 0.00153453 -0.312002
0.122339 0.00393684 -0.800445
-0.13519 0.00482024 -0.980071
-0.340562 0.00384402 -0.781578
-0.414538 0.00138487 -0.281579
-0.328386 -0.00160265 0.325716
-0.10931 -0.00377745 0.763797
0.120852 -0.334979 0.919878
0.334646 -0.285353 0.785218
0.412445 -0.107267 0.295197
0.330903 0.112772 -0.310345
0.121689 0.289317 -0.796192
-0.134472 0.354239 -0.974864
-0.338753 0.282496 -0.777426
-0.412336 0.101774 -0.280083
-0.326641 -0.117748 0.323985
-0.10873 -0.276664 0.75974
0.0735809 -0.536148 0.560069
0.20375 -0.45672 0.478081
0.251118 -0.171686 0.179731
0.201471 0.180495 -0.188955
0.0740908 0.463061 -0.484763
-0.0818737 0.566976 -0.593549
-0.20625 0.452148 -0.473337
-0.251051 0.162894 -0.170529
-0.198876 -0.188461 0.197259
-0.0662003 -0.442812 0.462569
-0.00207812 -0.530466 -0.0158179
-0.00575443 -0.45188 -0.0135023
-0.00709224 -0.169867 -0.0050761
-0.00569003 0.178582 0.00533658
-0.00209253 0.458155 0.013691
0.00231231 0.560967 0.0167634
0.00582504 0.447356 0.0133683
0.00709037 0.161167 0.00481617
0.0056168 -0.186464 -0.00557111
0.00186967 -0.438119 -0.0130642
-0.0769354 -0.320127 -0.585603
-0.213039 -0.272701 -0.499877
-0.262565 -0.102512 -0.187925
-0.210655 0.107771 0.197569
-0.0774684 0.276488 0.506864
0.0856058 0.338535 0.620605
0.215653 0.269971 0.494917
0.262496 0.0972617 0.178303
0.207942 -0.112528 -0.206252
0.0692183 -0.264397 -0.483657
-0.12211 0.0137199 -0.929457
-0.338123 0.0116706 -0.793377
-0.41673 0.00438668 -0.298264
-0.33434 -0.00461173 0.313569
-0.122954 -0.0118314 0.804466
0.135869 -0.0144864 0.984994
0.342272 -0.0115525 0.785503
0.41662 -0.00416198 0.282993
0.330035 0.00481622 -0.327353
0.109862 0.0113315 -0.767652
-0.120174 0.342273 -0.914721
-0.332425 0.290844 -0.780056
-0.4097 0.109317 -0.293241
-0.3287 -0.114925 0.308286
-0.120879 -0.294839 0.790913
0.133577 -0.361003 0.968399
0.336499 -0.287891 0.77227
0.409592 -0.103716 0.278224
0.324472 0.120031 -0.321872
0.10812 0.282688 -0.755481
-0.0718741 0.538775 -0.547078
-0.187893 0.434843 -0.441545
-0.231421 0.163146 -0.16566
-0.185665 -0.171495 0.174137
-0.0682785 -0.439971 0.446751
0.0754505 -0.538704 0.547005
0.19007 -0.4296 0.43622
0.231359 -0.154754 0.157139
0.183388 0.179798 -0.182568
0.0646647 0.444982 -0.451839
0 0.200114 0
0 0.169913 0
0 0.0637486 0
0 -0.0670108 0
0 -0.171917 0
0 -0.210496 0
0 -0.167865 0
0 -0.0604695 0
0 0.0702552 0
0 0.165277 0
0.121497 0.122909 0.407123
0.336433 0.104995 0.347533
0.414648 0.0394722 0.130656
0.33267 -0.0414977 -0.137361
0.122339 -0.106462 -0.352401
-0.13519 -0.130353 -0.431482
-0.340562 -0.103953 -0.344095
-0.414538 -0.037451 -0.123967
-0.328386 0.0433217 0.143389
-0.10931 0.101512 0.336249
0.19612 -0.00171596 0.657175
0.543069 -0.00145963 0.560984
0.669323 -0.00054868 0.210904
0.536993 0.000576829 -0.221728
0.197479 0.00147986 -0.568844
-0.218222 0.00181197 -0.696496
-0.549732 0.00144499 -0.555435
-0.669145 0.00052058 -0.200107
-0.530077 -0.000602319 0.231458
-0.176448 -0.00141724 0.54277
0.195078 -0.125679 0.653684
0.540184 -0.107267 0.558004
0.665767 -0.0403272 0.209783
0.53414 0.0423967 -0.22055
0.19643 0.108769 -0.565823
-0.217063 0.133178 -0.692796
-0.546812 0.106205 -0.552484
-0.66559 0.0382625 -0.199044
-0.52726 -0.044258 0.230228
-0.175511 -0.1038 0.539887
0.118774 -0.201153 0.397997
0.328892 -0.171686 0.339743
0.405354 -0.0645452 0.127727
0.325213 0.0678578 -0.134282
0.119597 0.174089 -0.344502
-0.132159 0.213156 -0.421809
-0.332928 0.169986 -0.336382
-0.405246 0.0612409 -0.121188
-0.321024 -0.0708368 0.140175
-0.10686 -0.166135 0.328711
-0.00335449 -0.199022 -0.0112405
-0.00928875 -0.169867 -0.00959522
-0.0114482 -0.0638611 -0.00360737
-0.00918482 0.0671388 0.00379248
-0.00337773 0.172244 0.00972966
0.00373253 0.210897 0.0119131
0.00940273 0.168185 0.00950026
0.0114452 0.0605919 0.00342267
0.00906662 -0.0700862 -0.00395892
0.00301801 -0.164375 -0.00928368
-0.124188 -0.120106 -0.416141
-0.343885 -0.102512 -0.35523
-0.423832 -0.0385391 -0.13355
-0.340038 0.0405171 0.140404
-0.125049 0.103947 0.360207
0.138184 0.127273 0.44104
0.348105 0.101497 0.351716
0.423719 0.0365662 0.126713
0.335659 -0.0422959 -0.146565
0.111732 -0.0991973 -0.343697
-0.19711 0.00514748 -0.660492
-0.545796 0.00438668 -0.563803
-0.672683 0.00164901 -0.211963
-0.53969 -0.00173362 0.222842
-0.198471 -0.0044476 0.571702
0.219318 -0.00544569 0.699994
0.552492 -0.00434277 0.558225
0.672505 -0.00156456 0.201112
0.532739 0.00181012 -0.232621
0.177339 0.00425137 -0.545509
-0.193984 0.128415 -0.650019
-0.536597 0.109317 -0.554326
-0.661336 0.0410918 -0.20839
-0.530584 -0.0432001 0.219084
-0.195123 -0.11083 0.562061
0.215618 -0.135701 0.68819
0.543173 -0.108218 0.548812
0.661161 -0.0389873 0.19772
0.523761 0.0451103 -0.228724
0.174527 0.10606 -0.53686
-0.116019 0.202139 -0.388765
-0.303295 0.163146 -0.313771
-0.373558 0.0612096 -0.117721
-0.299699 -0.0643418 0.123746
-0.110215 -0.16507 0.317471
0.121792 -0.202112 0.388713
0.30681 -0.161179 0.309987
0.373459 -0.058061 0.111666
0.296024 0.067457 -0.129737
0.104381 0.16695 -0.321086
0 -0.210355 0
0 -0.178608 0
0 -0.0670108 0
0 0.07044 0
0 0.180715 0
0 0.221268 0
0 0.176455 0
0 0.0635639 0
0 -0.0738504 0
0 -0.173735 0
0.120852 -0.129198 0.0842632
0.334646 -0.110383 0.0719289
0.412445 -0.0414977 0.0270418
0.330903 0.0436273 -0.0284296
0.121689 0.111926 -0.0729366
-0.134472 0.137043 -0.0893038
-0.338753 0.109288 -0.0712172
-0.412336 0.0393731 -0.0256574
-0.326641 -0.0455441 0.0296772
-0.10873 -0.106707 0.0695941
0.195078 0.00180377 0.136017
0.540184 0.00153453 0.116107
0.665767 0.000576829 0.0436506
0.53414 -0.000606431 -0.0458909
0.19643 -0.00155579 -0.117733
-0.217063 -0.00190494 -0.144154
-0.546812 -0.00151914 -0.114958
-0.66559 -0.000547289 -0.041416
-0.52726 0.000633216 0.0479046
-0.175511 0.00148976 0.112338
0.194042 0.13211 0.135294
0.537314 0.112772 0.11549
0.66223 0.0423967 0.0434188
0.531302 -0.0445726 -0.0456471
0.195387 -0.114351 -0.117108
-0.21591 -0.140013 -0.143388
-0.543908 -0.111656 -0.114347
-0.662055 -0.0402262 -0.041196
-0.52446 0.0465286 0.0476502
-0.174578 0.109111 0.111742
0.118143 0.211447 0.0823743
0.327145 0.180495 0.0703162
0.4032 0.0678578 0.0264356
0.323485 -0.0713404 -0.0277924
0.118962 -0.183024 -0.0713015
-0.131457 -0.224096 -0.0873018
-0.33116 -0.17871 -0.0696207
-0.403093 -0.0643838 -0.0250823
-0.319318 0.0744709 0.0290119
-0.106292 0.174637 0.0680341
-0.00333667 0.209206 -0.00232647
-0.0092394 0.178582 -0.00198592
-0.0113874 0.0671388 -0.000746613
-0.00913609 -0.0705844 0.000784929
-0.0033598 -0.181084 0.00201374
0.0037127 -0.221721 0.00246564
0.00935279 -0.176816 0.00196628
0.0113844 -0.0637015 0.000708388
0.00901844 0.0736817 -0.000819374
0.00300198 0.172786 -0.00192146
-0.123529 0.126252 -0.0861297
-0.342058 0.107771 -0.0735219
-0.42158 0.0405171 -0.0276408
-0.338232 -0.0425964 0.0290593
-0.124385 -0.109281 0.0745517
0.13745 -0.133805 0.0912818
0.346256 -0.106705 0.0727949
0.421469 -0.0384427 0.0262257
0.333876 0.0444656 -0.0303345
0.111138 0.104274 -0.0711357
-0.196063 -0.00541089 -0.136703
-0.542897 -0.00461173 -0.11669
-0.66911 -0.00173362 -0.0438698
-0.536823 0.00182257 0.0461214
-0.197417 0.00467582 0.118324
0.218153 0.0057251 0.144878
0.549558 0.00456561 0.115535
0.668933 0.00164484 0.0416241
0.529909 -0.00190297 -0.0481453
0.176396 -0.00446893 -0.112905
-0.192954 -0.134986 -0.134536
-0.533747 -0.114925 -0.114729
-0.657823 -0.0432001 -0.0431304
-0.527765 0.0454166 0.0453436
-0.194086 0.116517 0.116329
0.214473 0.142664 0.142435
0.540287 0.11377 0.113588
0.657649 0.0409876 0.040922
0.520978 -0.0474241 -0.0473391
0.1736 -0.111487 -0.111115
-0.115402 -0.212483 -0.0804635
-0.301684 -0.171495 -0.0649418
-0.371573 -0.0643418 -0.0243651
-0.298107 0.0676344 0.0256119
-0.109629 0.173517 0.0657076
0.121145 0.212455 0.0804528
0.30518 0.169427 0.0641587
0.371475 0.0610322 0.0231118
0.294452 -0.070909 -0.0268519
0.103827 -0.175493 -0.0664559
0 -0.539667 0
0 -0.458222 0
0 -0.171917 0
0 0.180715 0
0 0.463625 0
0 0.567666 0
0 0.452697 0
0 0.163074 0
0 -0.189464 0
0 -0.445719 0
0.0735809 -0.33146 -0.271106
0.20375 -0.283187 -0.231421
0.251118 -0.106462 -0.0870033
0.201471 0.111926 0.0914685
0.0740908 0.287147 0.234663
-0.0818737 0.351584 0.287324
-0.20625 0.280378 0.229132
-0.251051 0.101012 0.0825494
-0.198876 -0.116844 -0.0954823
-0.0662003 -0.273757 -0.22391
0.118774 0.0046276 -0.437618
0.328892 0.00393684 -0.373558
0.405354 0.00147986 -0.14044
0.325213 -0.00155579 0.147648
0.119597 -0.00399142 0.378791
-0.132159 -0.00488715 0.463794
-0.332928 -0.00389733 0.369863
-0.405246 -0.00140407 0.13325
-0.321024 0.00162451 -0.154127
-0.10686 0.00382199 -0.361435
0.118143 0.33893 -0.435293
0.327145 0.289317 -0.371574
0.4032 0.108769 -0.139694
0.323485 -0.114351 0.146864
0.118962 -0.293369 0.376779
-0.131457 -0.359203 0.461331
-0.33116 -0.286454 0.367898
-0.403094 -0.103201 0.132542
-0.319318 0.119369 -0.153308
-0.106292 0.279926 -0.359515
0.0719315 0.54247 -0.265029
0.199182 0.463061 -0.226234
0.245489 0.174089 -0.085053
0.196954 -0.183024 0.0894181
0.0724304 -0.469549 0.229402
-0.080038 -0.57492 0.280882
-0.201627 -0.458481 0.223996
-0.245424 -0.165177 0.0806988
-0.194418 0.191055 -0.0933421
-0.0647163 0.448033 -0.218891
-0.00203154 0.536721 0.00748513
-0.00562545 0.458155 0.00638941
-0.00693323 0.172244 0.00240213
-0.0055625 -0.181084 -0.0025254
-0.0020456 -0.464573 -0.00647893
0.00226051 -0.568827 -0.00793284
0.00569445 -0.453623 -0.00632621
0.0069314 -0.163427 -0.00227916
0.00549089 0.189031 0.00263622
0.00182776 0.443285 0.00618207
-0.0752107 0.323902 0.277111
-0.208263 0.276488 0.236547
-0.25668 0.103947 0.0889305
-0.205933 -0.109281 -0.0934945
-0.0757319 -0.280362 -0.23986
0.0836871 -0.343276 -0.293687
0.210818 -0.273753 -0.234207
0.256612 -0.0986251 -0.0843779
0.203281 0.114077 0.0975972
0.0676667 0.267515 0.22887
-0.119373 -0.0138817 0.439826
-0.330543 -0.0118314 0.375435
-0.407389 -0.0044476 0.141146
-0.326846 0.00467582 -0.148389
-0.120197 0.0119958 -0.380693
0.132823 0.0146878 -0.466123
0.3346 0.0117131 -0.37172
0.407282 0.00421984 -0.133919
0.322637 -0.00488208 0.154902
0.107399 -0.0114651 0.363258
-0.11748 -0.346309 0.432853
-0.324973 -0.294839 0.369125
-0.400516 -0.11083 0.138766
-0.321331 0.116517 -0.145888
-0.11817 0.298923 -0.374275
0.130582 0.366004 -0.458264
0.328956 0.291879 -0.365452
0.40041 0.105154 -0.131661
0.317198 -0.121667 0.152307
0.105696 -0.286021 0.357499
-0.0702629 -0.545128 0.258881
-0.183681 -0.439971 0.208942
-0.226233 -0.16507 0.0783916
-0.181503 0.173517 -0.0824031
-0.0667479 0.445159 -0.211406
0.0737592 0.545056 -0.258847
0.185809 0.434666 -0.206423
0.226173 0.156579 -0.0743592
0.179277 -0.181918 0.0863927
0.0632152 -0.450229 0.213814
0 -0.660772 0
0 -0.56105 0
0 -0.210496 0
0 0.221268 0
0 0.567666 0
0 0.695054 0
0 0.554285 0
0 0.199669 0
0 -0.231981 0
0 -0.545741 0
-0.00207812 -0.405841 -0.521881
-0.00575443 -0.346736 -0.445487
-0.00709224 -0.130353 -0.167482
-0.00569003 0.137043 0.176077
-0.00209253 0.351584 0.451728
0.00231231 0.430482 0.553098
0.00582504 0.343297 0.441079
0.00709036 0.123679 0.158907
0.0056168 -0.143064 -0.183804
0.00186967 -0.33519 -0.431029
-0.00335449 0.00566606 -0.842416
-0.00928875 0.00482024 -0.7191
-0.0114482 0.00181197 -0.270348
-0.00918482 -0.00190494 0.284223
-0.00337773 -0.00488715 0.729175
0.00373253 -0.00598384 0.892808
0.00940273 -0.00477193 0.711987
0.0114452 -0.00171915 0.256508
0.00906662 0.00198908 -0.296695
0.00301801 0.00467968 -0.695763
-0.00333667 0.414988 -0.837941
-0.0092394 0.354239 -0.71528
-0.0113874 0.133178 -0.268912
-0.00913609 -0.140013 0.282713
-0.0033598 -0.359203 0.725301
0.0037127 -0.43981 0.888064
0.00935279 -0.350736 0.708204
0.0113844 -0.12636 0.255145
0.00901844 0.146157 -0.295119
0.00300198 0.342744 -0.692067
-0.00203154 0.664204 -0.510182
-0.00562545 0.566976 -0.435499
-0.00693323 0.213156 -0.163728
-0.00556251 -0.224096 0.17213
-0.0020456 -0.57492 0.441601
0.00226051 -0.703933 0.5407
0.00569445 -0.561367 0.431191
0.0069314 -0.202244 0.155345
0.00549089 0.23393 -0.179684
0.00182776 0.548575 -0.421367
5.7376e-05 0.657165 0.0144089
0.000158876 0.560967 0.0122997
0.000195816 0.210897 0.00462407
0.000157101 -0.221721 -0.00486143
5.7774e-05 -0.568827 -0.012472
-6.38408e-05 -0.696474 -0.0152708
-0.00016083 -0.555418 -0.0121781
-0.000195765 -0.200101 -0.00438738
-0.000155077 0.231451 0.00507475
-5.16209e-05 0.542762 0.0119005
0.00212415 0.396588 0.533441
0.00588188 0.338535 0.455355
0.00724936 0.127273 0.171191
0.00581609 -0.133805 -0.179977
0.00213887 -0.343276 -0.461733
-0.00236354 -0.42031 -0.56535
-0.0059541 -0.335186 -0.45085
-0.00724744 -0.120757 -0.162428
-0.0057412 0.139677 0.187876
-0.00191109 0.327547 0.440576
0.00337141 -0.0169968 0.846667
0.00933543 -0.0144864 0.722713
0.0115057 -0.00544569 0.271706
0.00923092 0.0057251 -0.285651
0.00339469 0.0146878 -0.732836
-0.00375127 0.0179839 -0.897292
-0.00944995 0.0143416 -0.715563
-0.0115027 0.0051668 -0.257796
-0.00911212 -0.00597765 0.298186
-0.00303324 -0.0140379 0.699274
0.00331796 -0.424023 0.833243
0.00917811 -0.361003 0.710567
0.0113116 -0.135701 0.267126
0.00907533 0.142664 -0.280834
0.00333744 0.366004 -0.72048
-0.00368799 0.448138 -0.882161
-0.00929052 0.357378 -0.703497
-0.0113086 0.128751 -0.253448
-0.00895854 -0.14897 0.293191
-0.00298515 -0.350207 0.688187
0.00198441 -0.667459 0.498348
0.00518764 -0.538704 0.402215
0.00638943 -0.202112 0.150904
0.00512614 0.212455 -0.158626
0.00188514 0.545056 -0.406958
-0.00208316 0.66737 -0.498282
-0.00524775 0.532208 -0.397365
-0.00638773 0.191716 -0.143142
-0.00506327 -0.222741 0.166306
-0.00178537 -0.551263 0.411592
0 -0.526946 0
0 -0.447421 0
0 -0.167865 0
0 0.176455 0
0 0.452697 0
0 0.554285 0
0 0.442026 0
0 0.15923 0
0 -0.184998 0
0 -0.435212 0
-0.0769354 -0.323647 -0.57131
-0.213039 -0.276512 -0.48768
-0.262565 -0.103953 -0.183345
-0.210655 0.109288 0.192754
-0.0774684 0.280378 0.494513
0.0856058 0.343297 0.605483
0.215653 0.273769 0.482855
0.262496 0.0986307 0.173958
0.207942 -0.114089 -0.201213
0.0692183 -0.267304 -0.471853
-0.124188 0.00451851 -0.922204
-0.343885 0.00384402 -0.787208
-0.423832 0.00144499 -0.295953
-0.340038 -0.00151914 0.311142
-0.125049 -0.00389733 0.798238
0.138184 -0.00477193 0.977367
0.348105 -0.00380548 0.779421
0.423719 -0.00137099 0.280802
0.335659 0.00158623 -0.324796
0.111732 0.0037319 -0.761661
-0.123529 0.33094 -0.917305
-0.342058 0.282496 -0.783026
-0.42158 0.106205 -0.294381
-0.338232 -0.111656 0.309489
-0.124385 -0.286454 0.793997
0.13745 -0.350736 0.972175
0.346256 -0.279702 0.775281
0.421469 -0.100768 0.279311
0.333876 0.116556 -0.323071
0.111138 0.273328 -0.757615
-0.0752107 0.529683 -0.558503
-0.208263 0.452148 -0.476747
-0.25668 0.169986 -0.179235
-0.205933 -0.17871 0.188433
-0.0757319 -0.458481 0.483426
0.0836871 -0.561367 0.591911
0.210818 -0.447675 0.472032
0.256612 -0.161283 0.170059
0.203281 0.186552 -0.196702
0.0676667 0.437472 -0.461276
0.00212415 0.52407 0.0157736
0.00588189 0.447356 0.0134647
0.00724936 0.168185 0.00506206
0.00581608 -0.176816 -0.00532186
0.00213887 -0.453623 -0.0136532
-0.00236354 -0.555418 -0.0167172
-0.0059541 -0.44293 -0.0133315
-0.00724744 -0.159574 -0.00480292
-0.0057412 0.184575 0.0055554
-0.00191109 0.432836 0.0130277
0.0786395 0.316267 0.583965
0.217757 0.269971 0.498483
0.268382 0.101497 0.187406
0.215321 -0.106705 -0.197024
0.0791843 -0.273753 -0.505465
-0.0875021 -0.335186 -0.618893
-0.22043 -0.267301 -0.493552
-0.268311 -0.0963004 -0.177812
-0.212548 0.111388 0.20567
-0.0707516 0.261209 0.482305
0.124815 -0.0135545 0.926858
0.345613 -0.0115525 0.791162
0.42596 -0.00434277 0.297439
0.341745 0.00456561 -0.312705
0.125677 0.0117131 -0.802247
-0.138878 0.0143416 -0.982276
-0.349854 0.011437 -0.783336
-0.425848 0.00412037 -0.282213
-0.337345 -0.00476699 0.326429
-0.112296 -0.0111948 0.765505
0.122836 -0.338146 0.912163
0.339788 -0.28789 0.777867
0.418775 -0.108218 0.292427
0.335981 0.11377 -0.307432
0.123557 0.291879 -0.788719
-0.136535 0.357378 -0.965713
-0.343951 0.284999 -0.770127
-0.418664 0.102675 -0.277453
-0.33166 -0.118799 0.320959
-0.110515 -0.279279 0.753368
0.0734661 -0.532279 0.545548
0.192055 -0.4296 0.44031
0.236547 -0.161179 0.165197
0.189778 0.169427 -0.17365
0.0697909 0.434666 -0.445502
-0.0771218 0.532208 -0.545476
-0.19428 0.42442 -0.435001
-0.236484 0.152888 -0.156699
-0.187451 -0.17763 0.182058
-0.0660971 -0.439616 0.450576
0 -0.189821 0
0 -0.161173 0
0 -0.0604695 0
0 0.0635639 0
0 0.163074 0
0 0.199669 0
0 0.15923 0
0 0.057359 0
0 -0.0666414 0
0 -0.156775 0
-0.12211 -0.116586 -0.400323
-0.338123 -0.099618 -0.341732
-0.41673 -0.0374511 -0.128475
-0.33434 0.0393731 0.135069
-0.122954 0.101012 0.34652
0.135869 0.12368 0.424281
0.342272 0.0986309 0.338353
0.41662 0.0355336 0.121898
0.330035 -0.0411023 -0.140995
0.109862 -0.0962903 -0.330633
-0.19711 0.00162769 -0.646199
-0.545796 0.00138487 -0.55162
-0.672683 0.000520581 -0.207384
-0.53969 -0.00054729 0.218027
-0.198471 -0.00140408 0.55935
0.219318 -0.00171916 0.684871
0.552493 -0.001371 0.546165
0.672505 -0.000493927 0.196767
0.532739 0.000571462 -0.227594
0.177339 0.00134433 -0.533705
-0.196063 0.119214 -0.642766
-0.542897 0.101774 -0.548689
-0.66911 0.0382626 -0.206282
-0.536823 -0.0402263 0.216869
-0.197417 -0.103201 0.556379
0.218153 -0.12636 0.681233
0.549558 -0.100768 0.543264
0.668933 -0.0363039 0.195722
0.529909 0.041991 -0.226385
0.176396 0.0984603 -0.53087
-0.119373 0.190806 -0.391349
-0.330543 0.162894 -0.334072
-0.407389 0.061241 -0.125595
-0.326846 -0.0643839 0.132041
-0.120197 -0.165177 0.338753
0.132823 -0.202244 0.414771
0.3346 -0.161284 0.330768
0.407282 -0.0581058 0.119166
0.322637 0.0672082 -0.137835
0.107399 0.15759 -0.323221
0.00337141 0.188784 0.0110528
0.00933543 0.161168 0.00943507
0.0115057 0.0605919 0.00354715
0.00923092 -0.0637016 -0.00372919
0.00339469 -0.163427 -0.00956722
-0.00375127 -0.200101 -0.0117142
-0.00944995 -0.159574 -0.00934173
-0.0115027 -0.05749 -0.00336556
-0.00911213 0.066496 0.00389284
-0.00303324 0.15592 0.00912862
0.124815 0.113928 0.409191
0.345613 0.0972618 0.349301
0.42596 0.0365663 0.131321
0.341745 -0.0384428 -0.138061
0.125677 -0.0986253 -0.354195
-0.138878 -0.120757 -0.433679
-0.349854 -0.0963005 -0.345846
-0.425848 -0.0346942 -0.124598
-0.337345 0.0401291 0.144119
-0.112296 0.0940947 0.337956
0.198104 -0.0048827 0.64946
0.548536 -0.00416198 0.554391
0.676061 -0.00156456 0.208426
0.542399 0.00164484 -0.219122
0.199468 0.00421985 -0.56216
-0.22042 0.00516681 -0.688311
-0.555268 0.00412037 -0.548908
-0.675882 0.00148444 -0.197755
-0.535415 -0.00171737 0.228738
-0.178233 -0.00403268 0.536398
0.194963 -0.12181 0.639163
0.539293 -0.103716 0.545074
0.664658 -0.0389873 0.204912
0.533249 0.0409876 -0.215427
0.196103 0.105154 -0.55268
-0.216701 0.128751 -0.676706
-0.5459 0.102675 -0.539653
-0.664482 0.0369905 -0.19442
-0.526391 -0.0427987 0.224906
-0.175408 -0.100604 0.527893
0.116604 -0.191741 0.382272
0.304826 -0.154754 0.30853
0.375443 -0.058061 0.115755
0.301212 0.0610322 -0.121679
0.110771 0.156579 -0.312168
-0.122406 0.191716 -0.382221
-0.308358 0.152888 -0.30481
-0.375343 0.0550744 -0.109801
-0.297518 -0.0639871 0.12757
-0.104908 -0.158362 0.315724
0 0.220539 0
0 0.187256 0
0 0.0702552 0
0 -0.0738504 0
0 -0.189464 0
0 -0.231981 0
0 -0.184998 0
0 -0.0666414 0
0 0.077426 0
0 0.182146 0
-0.120174 0.135454 -0.0748893
-0.332425 0.115254 -0.0643244
-0.4097 0.0433197 -0.024191
-0.3287 -0.0455421 0.0254333
-0.120879 -0.116839 0.065249
0.133577 -0.143058 0.0798914
0.336499 -0.114084 0.0637111
0.409592 -0.0411005 0.0229538
0.324472 0.0475653 -0.0265303
0.10812 0.111873 -0.0618521
-0.193984 -0.0018911 -0.120886
-0.536598 -0.00160257 -0.103832
-0.661336 -0.000602291 -0.039049
-0.530584 0.000633184 0.0410543
-0.195123 0.00162443 0.105325
0.215618 0.00198898 0.12896
0.543173 0.00158615 0.102842
0.661161 0.000571432 0.0370518
0.523761 -0.000661453 -0.042825
0.174527 -0.00156189 -0.0998412
-0.192954 -0.138506 -0.120244
-0.533747 -0.117743 -0.10328
-0.657823 -0.0442559 -0.0388415
-0.527765 0.0465265 0.0408362
-0.194086 0.119364 0.104765
0.214473 0.14615 0.128275
0.540287 0.11655 0.102296
0.657649 0.041989 0.036855
0.520978 -0.0485917 -0.0425975
0.1736 -0.114394 -0.0993108
-0.11748 -0.221685 -0.0732105
-0.324973 -0.188453 -0.0628825
-0.400517 -0.0708336 -0.0236487
-0.321331 0.0744674 0.0248631
-0.11817 0.191046 0.0637864
0.130582 0.233919 0.0781005
0.328956 0.186544 0.062283
0.40041 0.067205 0.0224392
0.317198 -0.0777727 -0.0259356
0.105696 -0.183092 -0.0604656
0.00331796 -0.219335 0.00206766
0.00917811 -0.186456 0.00177597
0.0113116 -0.0700829 0.000667903
0.00907533 0.0736783 -0.0007022
0.00333744 0.189022 -0.0018015
-0.00368799 0.23144 -0.00220577
-0.00929052 0.184567 -0.00175904
-0.0113086 0.0664928 -0.000633743
-0.00895854 -0.0769484 0.00073249
-0.00298515 -0.181152 0.00170771
0.122836 -0.132365 0.0765481
0.339788 -0.112523 0.0657492
0.418775 -0.0422939 0.0247269
0.335981 0.0444636 -0.0259966
0.123557 0.114072 -0.0666943
-0.136535 0.13967 -0.0816612
-0.343951 0.111383 -0.0651222
-0.418664 0.0401272 -0.0234622
-0.33166 -0.046437 0.0271179
-0.110515 -0.109322 0.0632222
0.194963 0.00567286 0.121496
0.539293 0.00481602 0.104353
0.664658 0.00181004 0.039245
0.533249 -0.00190288 -0.0412602
0.196103 -0.00488186 -0.105853
-0.216701 -0.00597738 -0.129607
-0.5459 -0.00476678 -0.103358
-0.664482 -0.00171729 -0.0372376
-0.526391 0.00198772 0.04304
-0.175408 0.00468529 0.100345
0.191872 0.141522 0.119569
0.530219 0.120026 0.102584
0.653462 0.0451083 0.0385769
0.524268 -0.0474221 -0.0405577
0.1928 -0.121662 -0.104051
-0.213052 -0.148963 -0.1274
-0.536706 -0.118794 -0.101598
-0.653289 -0.0427968 -0.0366036
-0.517534 0.0495402 0.0423128
-0.172626 0.116885 0.0987541
0.114755 0.222771 0.0715123
0.299992 0.179798 0.0577173
0.36949 0.067457 0.0216546
0.296436 -0.070909 -0.0227627
0.109015 -0.181918 -0.0583979
-0.120466 -0.222741 -0.0715028
-0.303469 -0.17763 -0.0570214
-0.369392 -0.0639871 -0.0205407
-0.292801 0.0743422 0.0238648
-0.103245 0.18399 0.059063
0 0.545814 0
0 0.440524 0
0 0.165277 0
0 -0.173735 0
0 -0.445719 0
0 -0.545741 0
0 -0.435212 0
0 -0.156775 0
0 0.182146 0
0 0.450795 0
-0.0718741 0.335235 0.279438
-0.187893 0.270567 0.225533
-0.231421 0.101512 0.0846163
-0.185665 -0.106707 -0.0889464
-0.0682785 -0.273757 -0.228193
0.0754505 -0.33519 -0.279401
0.19007 -0.267304 -0.222814
0.231359 -0.0962903 -0.0802637
0.183388 0.111873 0.0932528
0.0646647 0.276875 0.230792
-0.116019 -0.0046803 0.451067
-0.303295 -0.00377745 0.364054
-0.373558 -0.00141724 0.136587
-0.299699 0.00148976 -0.143577
-0.110215 0.00382199 -0.368347
0.121792 0.00467968 -0.451007
0.30681 0.0037319 -0.359665
0.373459 0.00134433 -0.129561
0.296024 -0.00156189 0.150528
0.104381 -0.00386552 0.372542
-0.115402 -0.34279 0.448671
-0.301684 -0.276664 0.36212
-0.371573 -0.1038 0.135861
-0.298107 0.109111 -0.142814
-0.109629 0.279927 -0.366391
0.121145 0.342744 -0.448611
0.30518 0.273328 -0.357754
0.371475 0.0984603 -0.128873
0.294452 -0.114394 0.149728
0.103827 -0.283115 0.370563
-0.0702629 -0.548648 0.273174
-0.183681 -0.442812 0.220478
-0.226233 -0.166135 0.0827195
-0.181503 0.174637 -0.0869525
-0.0667479 0.448033 -0.223078
0.0737592 0.548575 -0.273138
0.185809 0.437472 -0.217819
0.226173 0.15759 -0.0784645
0.179277 -0.183092 0.0911624
0.0632152 -0.453136 0.225618
0.00198441 -0.542834 -0.00771516
0.00518763 -0.438119 -0.00622688
0.00638943 -0.164375 -0.00233622
0.00512613 0.172786 0.00245577
0.00188514 0.443286 0.00630031
-0.00208316 0.542762 0.00771414
-0.00524775 0.432836 0.0061518
-0.00638773 0.15592 0.00221605
-0.00506327 -0.181152 -0.00257467
-0.00178537 -0.448334 -0.00637206
0.0734661 -0.327591 -0.285628
0.192055 -0.264397 -0.230529
0.236547 -0.0991973 -0.0864906
0.189778 0.104274 0.0909166
0.0697909 0.267515 0.233248
-0.0771218 0.327547 0.28559
-0.19428 0.261209 0.227749
-0.236484 0.0940947 0.0820416
-0.187451 -0.109322 -0.0953185
-0.0660971 -0.270562 -0.235904
0.116604 0.0140398 -0.453343
0.304825 0.0113315 -0.365892
0.375443 0.00425137 -0.137276
0.301212 -0.00446893 0.144301
0.110771 -0.0114651 0.370206
-0.122406 -0.0140379 0.453283
-0.308358 -0.0111948 0.36148
-0.375343 -0.00403269 0.130215
-0.297518 0.0046853 -0.151288
-0.104908 0.0115957 -0.374422
0.114755 0.350253 -0.446155
0.299992 0.282688 -0.36009
0.36949 0.10606 -0.1351
0.296436 -0.111487 0.142013
0.109015 -0.286021 0.364336
-0.120466 -0.350207 0.446096
-0.303469 -0.279279 0.355748
-0.369392 -0.100604 0.12815
-0.292801 0.116885 -0.148889
-0.103245 0.289279 -0.368486
0.0686331 0.551337 -0.266837
0.17942 0.444982 -0.215363
0.220985 0.16695 -0.0808007
0.177293 -0.175493 0.0849356
0.0651996 -0.450229 0.217903
-0.0720483 -0.551263 0.266802
-0.181499 -0.439616 0.212767
-0.220927 -0.158362 0.0766444
-0.175119 0.18399 -0.0890478
-0.0617488 0.455357 -0.220385
