# vtk DataFile Version 3.0
Velocity field
ASCII
DATASET STRUCTURED_POINTS
DIMENSIONS 8 8 8
SPACING 0.8 0.8 0.8
ORIGIN 0 0 0
POINT_DATA 512
VECTORS velocity float
0 0.223409 0
0 0.155651 0
0 -0.00652344 0
0 -0.16474 0
0 -0.223028 0
0 -0.14603 0
0 0.0195481 0
0 0.173268 0
0 0.0878921 0.228022
0 0.061235 0.168434
0 -0.00256641 -0.00705921
0 -0.0648111 -0.178271
0 -0.0877422 -0.241345
0 -0.0574501 -0.158023
0 0.00769048 0.0211536
0 0.0681661 0.176846
0 -0.100939 0.317729
0 -0.0703249 0.234698
0 0.00294737 -0.0098364
0 0.0744318 -0.248405
0 0.100767 -0.336294
0 0.0659781 -0.220192
0 -0.00883208 0.0294757
0 -0.0782848 0.24642
0 -0.228542 0.214706
0 -0.159227 0.158598
0 0.00667332 -0.00664696
0 0.168525 -0.16786
0 0.228152 -0.227251
0 0.149385 -0.148795
0 -0.0199972 0.0199182
0 -0.177249 0.166519
0 -0.217514 -0.0185551
0 -0.151544 -0.0137062
0 0.00635132 0.000574437
0 0.160394 0.0145066
0 0.217143 0.0196392
0 0.142177 0.012859
0 -0.0190323 -0.00172135
0 -0.168697 -0.0143907
0 -0.0745454 -0.240561
0 -0.0519363 -0.177696
0 0.00217669 0.00744739
0 0.0549693 0.188073
0 0.0744183 0.254617
0 0.0487262 0.166713
0 -0.00652267 -0.0223168
0 -0.0578149 -0.186571
0 0.113642 -0.316646
0 0.0791749 -0.233898
0 -0.00331828 0.00980285
0 -0.0837987 0.247557
0 -0.113448 0.335147
0 -0.0742811 0.219441
0 0.00994355 -0.0293752
0 0.0881366 -0.24558
0 0.232895 -0.200657
0 0.16226 -0.139799
0 -0.00680043 0.00585911
0 -0.171735 0.147964
0 -0.232498 0.200315
0 -0.15223 0.131158
0 0.0203781 -0.0175574
0 0.180626 -0.155623
0 0.155651 0
0 0.117737 0
0 -0.00493444 0
0 -0.124612 0
0 -0.168702 0
0 -0.11046 0
0 0.0147865 0
0 0.120717 0
0.0486069 0.061235 0.225224
0.118567 0.0435417 0.159975
0.11568 -0.00182524 -0.00670603
0.0426171 -0.046093 -0.169348
-0.0562968 -0.0624015 -0.229265
-0.121062 -0.0408578 -0.150114
-0.112388 0.00546326 0.0200732
-0.0348765 0.0474918 0.174676
0.0677296 -0.0703249 0.31383
0.165214 -0.0499205 0.222911
0.16119 0.0020926 -0.00934422
0.0593827 0.0528445 -0.23597
-0.0784456 0.0715416 -0.319463
-0.16869 0.0468426 -0.209171
-0.156604 -0.00626405 0.0279703
-0.0485973 -0.0545415 0.243396
0.0457683 -0.159227 0.212071
0.111642 -0.113028 0.150633
0.108925 0.00473803 -0.00631438
0.0401281 0.119649 -0.159458
-0.0530096 0.161983 -0.215877
-0.113992 0.10606 -0.141347
-0.105825 -0.0141829 0.0189009
-0.0328397 -0.123491 0.164475
-0.00395534 -0.151544 -0.0183274
-0.00964836 -0.107574 -0.0130178
-0.00941339 0.00450939 0.000545694
-0.0034679 0.113876 0.0137806
0.00458112 0.154168 0.0186562
0.00985139 0.100943 0.0122153
0.00914547 -0.0134986 -0.00163344
0.00283804 -0.117532 -0.0142141
-0.0512798 -0.0519363 -0.237609
-0.125088 -0.0368677 -0.168772
-0.122041 0.00154544 0.00707474
-0.0449602 0.0390273 0.178659
0.0593926 0.0528356 0.241871
0.12772 0.0345945 0.158369
0.118568 -0.00462618 -0.0211771
0.0367943 -0.04028 -0.184281
-0.0674986 0.0791749 -0.31276
-0.164638 0.0561895 -0.222134
-0.160628 -0.00235539 0.00931164
-0.0591757 -0.059481 0.235147
0.0781721 -0.0805259 0.318348
0.168101 -0.0527252 0.208442
0.156058 0.00705082 -0.0278729
0.0484316 0.0614053 -0.242566
-0.0427737 0.16226 -0.198195
-0.102375 0.113047 -0.138084
-0.0998771 -0.00473791 0.0057872
-0.036795 -0.119649 0.146148
0.0486064 -0.161983 0.197857
0.104524 -0.10606 0.129549
0.0970385 0.0141976 -0.0173419
0.030691 0.125843 -0.153713
0 -0.00652344 0
0 -0.00493444 0
0 0.000206807 0
0 0.00522261 0
0 0.00707045 0
0 0.00462945 0
0 -0.000619715 0
0 -0.00505936 0
0.0677296 -0.00256641 0.0858078
0.165214 -0.00182524 0.0609223
0.16119 7.65134e-05 -0.0025538
0.0593827 0.0019322 -0.0644915
-0.0784456 0.00261584 -0.0873087
-0.16869 0.00171276 -0.0571664
-0.156604 -0.000229013 0.00764448
-0.0485973 -0.00199042 0.0665496
0.0943753 0.00294737 0.119566
0.23021 0.0020926 0.0848901
0.224603 -8.77188e-05 -0.00355847
0.0827453 -0.00221517 -0.0898626
-0.109307 -0.00299894 -0.121658
-0.235053 -0.0019636 -0.0796573
-0.218214 0.000262578 0.010652
-0.0677162 0.00228588 0.0927311
0.0637742 0.00667332 0.0807967
0.155566 0.00473803 0.0573642
0.151777 -0.000198613 -0.00240467
0.0559147 -0.00501559 -0.0607249
-0.0738641 -0.0067902 -0.0822105
-0.158839 -0.00444591 -0.0538284
-0.147458 0.000594523 0.00719804
-0.0457593 0.0051756 0.0626631
-0.00551143 0.00635132 -0.00698253
-0.0134442 0.00450939 -0.00495752
-0.0131167 -0.000189029 0.000207813
-0.00483226 -0.00477359 0.00524793
0.00638343 -0.00646256 0.00710467
0.0137271 -0.00423141 0.00465188
0.0127435 0.000565835 -0.000622066
0.00395456 0.00492586 -0.00541541
-0.0714539 0.00217669 -0.0905262
-0.174297 0.00154544 -0.0642724
-0.170055 -6.47835e-05 0.00269423
-0.0626485 -0.00163598 0.0680369
0.082759 -0.0022148 0.0921101
0.177965 -0.00145016 0.0603099
0.165215 0.000193921 -0.00806487
0.0512696 0.00168817 -0.070209
-0.0940534 -0.00331828 -0.119158
-0.229407 -0.00235539 -0.084594
-0.22382 9.87351e-05 0.00354607
-0.0824568 0.00249337 0.0895495
0.108926 0.00337556 0.121234
0.234234 0.00221018 0.0793794
0.217453 -0.000295557 -0.0106149
0.0674852 -0.00257355 -0.0924148
-0.0596014 -0.00680043 -0.07551
-0.142651 -0.00473791 -0.0526084
-0.13917 0.00019857 0.00220486
-0.0512707 0.0050146 0.0556806
0.0677288 0.00678884 0.0753813
0.145645 0.00444506 0.0493567
0.135215 -0.000595032 -0.00660707
0.0427652 -0.00527418 -0.058563
0 -0.16474 0
0 -0.124612 0
0 0.00522261 0
0 0.13189 0
0 0.178554 0
0 0.11691 0
0 -0.01565 0
0 -0.127767 0
0.0457683 -0.0648111 -0.105658
0.111642 -0.046093 -0.0750155
0.108925 0.0019322 0.00314457
0.0401281 0.0487939 0.0794103
-0.0530096 0.0660581 0.107507
-0.113992 0.0432519 0.0703906
-0.105825 -0.00578329 -0.00941288
-0.0328397 -0.0502652 -0.0819449
0.0637742 0.0744318 -0.147226
0.155566 0.0528445 -0.104527
0.151777 -0.00221517 0.00438165
0.0559147 -0.0559399 0.110651
-0.0738641 -0.0757331 0.149801
-0.158839 -0.0495869 0.0980834
-0.147458 0.00663092 -0.013116
-0.0457593 0.0577267 -0.114183
0.0430955 0.168525 -0.0994879
0.105124 0.119649 -0.0706343
0.102564 -0.00501559 0.0029609
0.0377848 -0.126659 0.0747725
-0.0499138 -0.171474 0.101228
-0.107336 -0.112273 0.0662803
-0.099645 0.0150135 -0.00886315
-0.0309219 0.130702 -0.0771594
-0.00372436 0.160394 0.00859784
-0.00908484 0.113876 0.0061043
-0.00886359 -0.00477359 -0.000255886
-0.00326541 -0.120547 -0.00646193
0.00431357 -0.163199 -0.00874817
0.00927601 -0.106857 -0.00572798
0.00861135 0.0142891 0.000765963
0.0026723 0.124396 0.00666819
-0.0482851 0.0549693 0.111468
-0.117782 0.0390273 0.0791406
-0.114914 -0.00163598 -0.00331748
-0.0423349 -0.0413136 -0.0837766
0.0559239 -0.0559304 -0.113417
0.12026 -0.0366213 -0.0742615
0.111643 0.00489712 0.0099305
0.0346455 0.0426323 0.086451
-0.0635567 -0.0837987 0.146724
-0.155024 -0.059481 0.104163
-0.151248 0.00249337 -0.00436637
-0.0557198 0.0629652 -0.110265
0.0736066 0.0852435 -0.149279
0.158285 0.0558136 -0.0977415
0.146944 -0.00746376 0.0130704
0.0456032 -0.0649913 0.113794
-0.0402757 -0.171735 0.0929783
-0.0963964 -0.119649 0.0647786
-0.0940444 0.0050146 -0.00271492
-0.0346462 0.126637 -0.0685616
0.0457678 0.171443 -0.0928197
0.0984197 0.112254 -0.0607747
0.0913715 -0.0150267 0.00813552
0.0288986 -0.133192 0.0721108
0 -0.223028 0
0 -0.168702 0
0 0.00707045 0
0 0.178554 0
0 0.24173 0
0 0.158275 0
0 -0.0211873 0
0 -0.172973 0
-0.00395534 -0.0877422 -0.233033
-0.00964836 -0.0624015 -0.165449
-0.00941339 0.00261584 0.00693544
-0.0034679 0.0660581 0.17514
0.00458112 0.08943 0.237108
0.00985139 0.0585551 0.15525
0.00914547 -0.00782952 -0.0207605
0.00283804 -0.0680498 -0.180733
-0.00551143 0.100767 -0.324712
-0.0134442 0.0715416 -0.230538
-0.0131167 -0.00299894 0.00966397
-0.00483226 -0.0757331 0.244044
0.00638343 -0.102529 0.330392
0.0137271 -0.0671317 0.216328
0.0127435 0.00897701 -0.0289278
0.00395456 0.0781513 -0.251835
-0.00372436 0.228152 -0.219424
-0.00908484 0.161983 -0.155787
-0.00886359 -0.0067902 0.00653045
-0.00326541 -0.171474 0.164914
0.00431357 -0.232142 0.22326
0.00927601 -0.151998 0.146183
0.00861135 0.0203256 -0.0195481
0.0026723 0.176947 -0.170178
0.000321863 0.217143 0.0189629
0.000785125 0.154168 0.0134633
0.000766004 -0.00646256 -0.000564362
0.000282197 -0.163199 -0.0142519
-0.000372784 -0.220943 -0.0192946
-0.000801646 -0.144663 -0.0126333
-0.000744204 0.0193449 0.00168937
-0.000230943 0.168409 0.014707
0.00417284 0.0744183 0.245848
0.0101789 0.0528356 0.174546
0.00993106 -0.0022148 -0.00731676
0.00365859 -0.0559304 -0.184771
-0.00483306 -0.0757203 -0.250148
-0.0103931 -0.0495785 -0.163787
-0.00964842 0.0066298 0.021902
-0.0029941 0.0577163 0.190671
0.00549263 -0.113448 0.323604
0.0133973 -0.0805259 0.229735
0.013071 0.00337556 -0.0096303
0.00481542 0.0852435 -0.243193
-0.00636118 0.115403 -0.32924
-0.0136791 0.0755619 -0.215573
-0.0126991 -0.0101045 0.0288271
-0.00394107 -0.0879863 0.250977
0.00348067 -0.232498 0.205067
0.00833067 -0.161983 0.142872
0.00812741 0.00678884 -0.00598787
0.00299416 0.171443 -0.151215
-0.0039553 0.232102 -0.204718
-0.00850553 0.151971 -0.134041
-0.00789642 -0.0203434 0.0179432
-0.00249745 -0.180318 0.159043
0 -0.14603 0
0 -0.11046 0
0 0.00462945 0
0 0.11691 0
0 0.158275 0
0 0.103632 0
0 -0.0138726 0
0 -0.113256 0
-0.0512798 -0.0574501 -0.219054
-0.125088 -0.0408578 -0.155524
-0.122041 0.00171276 0.00651942
-0.0449602 0.0432519 0.164635
0.0593926 0.0585551 0.222883
0.12772 0.0383398 0.145936
0.118568 -0.00512646 -0.0195151
0.0367943 -0.0445563 -0.16989
-0.0714539 0.0659781 -0.305232
-0.174297 0.0468426 -0.216709
-0.170055 -0.0019636 0.00908417
-0.0626485 -0.0495869 0.229403
0.082759 -0.0671317 0.310572
0.177965 -0.0439548 0.20335
0.165215 0.00587778 -0.0271926
0.0512696 0.0511704 -0.236728
-0.0482851 0.149385 -0.206261
-0.117782 0.10606 -0.146441
-0.114914 -0.00444591 0.00613865
-0.0423349 -0.112273 0.155021
0.0559239 -0.151998 0.209869
0.12026 -0.0995222 0.137413
0.111643 0.0133084 -0.0183754
0.0346455 0.115858 -0.159969
0.00417284 0.142177 0.0178253
0.0101789 0.100943 0.0126556
0.00993106 -0.00423141 -0.000530507
0.00365859 -0.106857 -0.013397
-0.00483306 -0.144663 -0.018137
-0.0103931 -0.0947196 -0.0118754
-0.00964843 0.0126663 0.00158802
-0.0029941 0.110267 0.0138247
0.0540996 0.0487262 0.231099
0.131966 0.0345945 0.164076
0.128753 -0.00145016 -0.00687792
0.0474324 -0.0366213 -0.173686
-0.0626589 -0.0495785 -0.235139
-0.134743 -0.0324621 -0.153962
-0.125088 0.00434091 0.0205881
-0.0388175 0.0377903 0.179232
0.0712102 -0.0742811 0.304191
0.17369 -0.0527252 0.215953
0.169461 0.00221018 -0.00905251
0.0624301 0.0558136 -0.228603
-0.0824705 0.0755619 -0.309489
-0.177345 0.0494749 -0.202642
-0.164639 -0.00661605 0.0270978
-0.0510948 -0.0576099 0.23592
0.0451257 -0.15223 0.192765
0.108004 -0.10606 0.134301
0.105369 0.00444506 -0.00562865
0.0388183 0.112254 -0.142144
-0.0512792 0.151971 -0.192436
-0.110271 0.0995045 -0.126
-0.102375 -0.01332 0.0168668
-0.0323786 -0.118065 0.149502
0 0.0195481 0
0 0.0147865 0
0 -0.000619715 0
0 -0.01565 0
0 -0.0211873 0
0 -0.0138726 0
0 0.00185703 0
0 0.0151608 0
-0.0674986 0.00769048 -0.0721988
-0.164638 0.00546318 -0.0512697
-0.160628 -0.000229009 0.00214917
-0.0591757 -0.0057832 0.0542735
0.0781721 -0.0078294 0.0734758
0.168101 -0.00512638 0.048109
0.156058 0.000685523 -0.00643321
0.0484316 0.00596448 -0.0559949
-0.0940534 -0.00883208 -0.100603
-0.229407 -0.00626396 -0.0714398
-0.22382 0.000262574 0.00299468
-0.0824568 0.00663082 0.0756252
0.108926 0.00897687 0.102383
0.234234 0.00587769 0.0670363
0.217453 -0.000786054 -0.0089641
0.0674852 -0.00684985 -0.0780241
-0.0635567 -0.0199972 -0.0679824
-0.155024 -0.0141827 -0.0482755
-0.151248 0.000594513 0.00202367
-0.0557198 0.0150133 0.0511038
0.0736066 0.0203253 0.0691848
0.158285 0.0133082 0.0452997
0.146944 -0.00177976 -0.00605748
0.0456032 -0.0155092 -0.0527248
0.00549263 -0.0190323 0.00587511
0.0133973 -0.0134984 0.00417203
0.013071 0.000565826 -0.000174887
0.00481542 0.0142889 -0.00441643
-0.00636118 0.0193445 -0.00597903
-0.0136791 0.0126661 -0.00391484
-0.0126991 -0.0016939 0.000523497
-0.00394107 -0.0147608 0.00455653
0.0712102 -0.00652267 0.0761689
0.17369 -0.00462611 0.0540889
0.169461 0.000193918 -0.00226735
0.0624301 0.00489705 -0.0572576
-0.0824705 0.00662969 -0.0775164
-0.177345 0.00434084 -0.0507547
-0.164639 -0.000580525 0.00678696
-0.0510948 -0.00505876 0.059074
0.0937326 0.00994355 0.10026
0.228608 0.00705071 0.0711909
0.22304 -0.000295553 -0.00298424
0.0821695 -0.00746365 -0.0753615
-0.108545 -0.0101044 -0.102026
-0.233417 -0.00661595 -0.0668023
-0.216694 0.000884799 0.00893291
-0.0672551 0.00771188 0.0777579
0.0593981 0.0203781 0.0635343
0.142164 0.0141976 0.0442647
0.138695 -0.000595032 -0.00185517
0.0510958 -0.0150267 -0.0468498
-0.0674978 -0.0203434 -0.0634259
-0.145148 -0.01332 -0.0415288
-0.134754 0.00178307 0.00555919
-0.0426193 0.0158046 0.049275
0 0.173268 0
0 0.120717 0
0 -0.00505936 0
0 -0.127767 0
0 -0.172973 0
0 -0.113256 0
0 0.0151608 0
0 0.134381 0
-0.0427737 0.0681661 0.118451
-0.102375 0.0474918 0.0825254
-0.0998771 -0.00199042 -0.00345871
-0.036795 -0.0502652 -0.0873448
0.0486064 -0.0680498 -0.118249
0.104524 -0.0445563 -0.0774246
0.0970385 0.00596448 0.0103643
0.030691 0.0528673 0.0918663
-0.0596014 -0.0782848 0.165051
-0.142651 -0.0545415 0.114992
-0.13917 0.00228588 -0.00481941
-0.0512707 0.0577267 -0.121707
0.0677288 0.0781513 -0.164769
0.145645 0.0511704 -0.107884
0.135215 -0.00684986 0.0144418
0.0427652 -0.060715 0.128008
-0.0402757 -0.177249 0.111533
-0.0963964 -0.123491 0.077706
-0.0940443 0.0051756 -0.00325672
-0.0346462 0.130702 -0.082244
0.0457678 0.176947 -0.111343
0.0984197 0.115858 -0.072903
0.0913715 -0.0155092 0.00975907
0.0288986 -0.137468 0.0865014
0.00348067 -0.168697 -0.00963882
0.00833067 -0.117532 -0.00671543
0.00812741 0.00492586 0.000281449
0.00299416 0.124396 0.00710761
-0.0039553 0.168409 0.00962238
-0.00850553 0.110267 0.00630035
-0.00789642 -0.0147608 -0.000843389
-0.00249745 -0.130835 -0.00747554
0.0451257 -0.0578149 -0.124964
0.108004 -0.04028 -0.0870634
0.105369 0.00168817 0.0036489
0.0388183 0.0426323 0.0921478
-0.0512792 0.0577163 0.124751
-0.110271 0.0377903 0.081682
-0.102375 -0.00505876 -0.0109343
-0.0323786 -0.0448393 -0.0969179
0.0593981 0.0881366 -0.164488
0.142164 0.0614053 -0.1146
0.138695 -0.00257355 0.00480297
0.0510958 -0.0649913 0.121292
-0.0674978 -0.0879863 0.164207
-0.145148 -0.0576099 0.107516
-0.134754 0.00771188 -0.0143926
-0.0426193 0.0683557 -0.127571
0.0376404 0.180626 -0.104236
0.0900891 0.125843 -0.0726216
0.0878909 -0.00527418 0.00304363
0.0323793 -0.133192 0.0768626
-0.0427732 -0.180318 0.104058
-0.09198 -0.118065 0.0681329
-0.085393 0.0158046 -0.00912052
-0.0270078 0.140087 -0.0808415
