# vtk DataFile Version 3.0
Velocity field
ASCII
DATASET STRUCTURED_POINTS
DIMENSIONS 5 5 5
SPACING 1.33333 1.33333 1.33333
ORIGIN 0 0 0
POINT_DATA 125
VECTORS velocity float
0 0.330736 0
0 0.0778015 0
0 -0.294132 0
0 -0.216183 0
0 0.192423 0
0 -0.175133 0.574389
0 -0.0411978 0.15572
0 0.15575 -0.588706
0 0.114475 -0.432692
0 -0.101893 0.334182
0 -0.413132 0.270236
0 -0.0971841 0.0732623
0 0.367409 -0.276972
0 0.270041 -0.203571
0 -0.240361 0.157224
0 -0.0192353 -0.44725
0 -0.00452487 -0.121252
0 0.0171065 0.458398
0 0.012573 0.336917
0 -0.0111912 -0.260212
0 0.404082 -0.480656
0 0.0950552 -0.113068
0 -0.359361 0.42746
0 -0.264126 0.314178
0 0.235096 -0.279647
0 0.0778015 0
0 0.0232881 0
0 -0.0880417 0
0 -0.0647095 0
0 0.0452652 0
0.245837 -0.0411978 0.201715
0.374811 -0.01001 0.0492768
-0.0785598 0.0378647 -0.186416
-0.411793 0.0278333 -0.137031
-0.111083 -0.023969 0.117359
0.11566 -0.0971841 0.0949021
0.17634 -0.0236765 0.0231836
-0.0369606 0.0895647 -0.0877042
-0.193738 0.0658368 -0.06447
-0.0522619 -0.056542 0.0552144
-0.191421 -0.00452487 -0.157066
-0.291802 -0.0011056 -0.0383635
0.0611612 0.00418262 0.145129
0.320593 0.0030746 0.106683
0.0864953 -0.00263258 -0.0913818
-0.205719 0.0950552 -0.168798
-0.302505 0.0223606 -0.0397076
0.0633981 -0.0845351 0.150116
0.332332 -0.0621322 0.110334
0.0929558 0.0553035 -0.0982072
0 -0.294132 0
0 -0.0880417 0
0 0.332846 0
0 0.244638 0
0 -0.171127 0
0.11566 0.15575 -0.479487
0.17634 0.0378647 -0.116886
-0.0369606 -0.143232 0.44217
-0.193738 -0.105286 0.32503
-0.0522619 0.090616 -0.278967
0.0544151 0.367409 -0.225587
0.0829631 0.0895647 -0.0549921
-0.017389 -0.338814 0.20803
-0.0911486 -0.249055 0.152918
-0.0245879 0.21376 -0.131247
-0.090059 0.0171065 0.373354
-0.137286 0.00418262 0.0909999
0.0287748 -0.0158237 -0.344243
0.150831 -0.0116319 -0.253046
0.0406939 0.00995261 0.217219
-0.0967856 -0.359361 0.401241
-0.142321 -0.0845351 0.0943868
0.0298272 0.319589 -0.356834
0.156354 0.234894 -0.262268
0.0437334 -0.209077 0.233443
0 -0.216183 0
0 -0.0647096 0
0 0.244638 0
0 0.179805 0
0 -0.125776 0
-0.191421 0.114475 -0.427302
-0.291802 0.0278334 -0.104175
0.0611612 -0.105287 0.394084
0.320593 -0.0773934 0.289684
0.0864953 0.0666016 -0.248606
-0.090059 0.270041 -0.201035
-0.137286 0.065837 -0.0490117
0.0287748 -0.249056 0.185407
0.150831 -0.183076 0.136289
0.0406939 0.157111 -0.116963
0.149051 0.012573 0.33272
0.227178 0.00307461 0.0811038
-0.0476158 -0.0116319 -0.306807
-0.249591 -0.00855055 -0.225528
-0.0673499 0.00731504 0.193578
0.160184 -0.264126 0.357572
0.235546 -0.0621322 0.0841143
-0.0493651 0.234894 -0.317998
-0.258771 0.172644 -0.233724
-0.0723803 -0.153669 0.208036
0 0.192423 0
0 0.0452652 0
0 -0.171127 0
0 -0.125776 0
0 0.111953 0
-0.205719 -0.101893 0.278452
-0.302504 -0.023969 0.0655024
0.0633981 0.0906161 -0.247635
0.332332 0.0666016 -0.182008
0.0929558 -0.0592817 0.162004
-0.0967856 -0.240361 0.131005
-0.142321 -0.056542 0.0308172
0.0298272 0.21376 -0.116506
0.156354 0.157111 -0.0856304
0.0437334 -0.139843 0.076219
0.160184 -0.0111912 -0.216818
0.235546 -0.00263258 -0.0510036
-0.0493651 0.00995261 0.192822
-0.258771 0.00731504 0.141721
-0.0723803 -0.00651107 -0.126145
0.172148 0.235096 -0.233012
0.25314 0.0553035 -0.0548132
-0.0530523 -0.209077 0.207224
-0.278099 -0.153669 0.152307
-0.0777865 0.13678 -0.135567
