# vtk DataFile Version 3.0
Velocity field
ASCII
DATASET STRUCTURED_POINTS
DIMENSIONS 10 10 10
SPACING 0.631579 0.631579 0.631579
ORIGIN 0 0 0
POINT_DATA 1000
VECTORS velocity float
0 0.0114063 0
0 0.00920602 0
0 0.00345394 0
0 -0.00363069 0
0 -0.00931458 0
0 -0.0114048 0
0 -0.00909502 0
0 -0.00327628 0
0 0.00380648 0
0 0.00942066 0
0 0.00700569 0.00893486
0 0.00565427 0.00749405
0 0.00212139 0.00281164
0 -0.00222994 -0.00295552
0 -0.00572094 -0.00758242
0 -0.00700476 -0.00928396
0 -0.00558609 -0.00740368
0 -0.00201226 -0.00266701
0 0.00233791 0.00309861
0 0.0057861 0.00737942
0 -9.78083e-05 0.0144226
0 -7.89407e-05 0.0120968
0 -2.96172e-05 0.00453853
0 3.11328e-05 -0.00477078
0 7.98716e-05 -0.0122395
0 9.77953e-05 -0.0149861
0 7.79889e-05 -0.011951
0 2.80937e-05 -0.00430507
0 -3.26402e-05 0.00500176
0 -8.07813e-05 0.0119118
0 -0.00716357 0.014346
0 -0.00578169 0.0120326
0 -0.00216919 0.00451442
0 0.0022802 -0.00474543
0 0.00584987 -0.0121745
0 0.00716262 -0.0149065
0 0.00571198 -0.0118875
0 0.00205761 -0.0042822
0 -0.0023906 0.00497519
0 -0.0059165 0.0118485
0 -0.0114656 0.00873457
0 -0.00925383 0.00732606
0 -0.00347188 0.00274861
0 0.00364955 -0.00288927
0 0.00936295 -0.00741245
0 0.0114641 -0.00907585
0 0.00914225 -0.00723772
0 0.00329329 -0.00260723
0 -0.00382624 0.00302915
0 -0.00946958 0.007214
0 -0.0113441 -0.000246688
0 -0.00915576 -0.000206907
0 -0.00343509 -7.76283e-05
0 0.00361087 8.16007e-05
0 0.00926373 0.000209347
0 0.0113426 0.000256326
0 0.00904537 0.000204413
0 0.00325839 7.36351e-05
0 -0.0037857 -8.55513e-05
0 -0.00936923 -0.000203743
0 -0.00684595 -0.00913277
0 -0.00552534 -0.00766004
0 -0.00207301 -0.00287392
0 0.0021791 0.00302099
0 0.0055905 0.00775037
0 0.00684504 0.00948961
0 0.00545872 0.00756768
0 0.00196638 0.00272609
0 -0.0022846 -0.00316725
0 -0.00565417 -0.00754288
0 0.000293402 -0.0144954
0 0.000236804 -0.0121579
0 8.88447e-05 -0.00456143
0 -9.33911e-05 0.00479485
0 -0.000239596 0.0123012
0 -0.000293363 0.0150617
0 -0.000233948 0.0120113
0 -8.42746e-05 0.0043268
0 9.79128e-05 -0.005027
0 0.000242325 -0.0119719
0 0.00731955 -0.0142655
0 0.00590758 -0.0119651
0 0.00221642 -0.00448911
0 -0.00232985 0.00471883
0 -0.00597724 0.0121062
0 -0.00731858 0.0148229
0 -0.00583635 0.0118208
0 -0.00210241 0.00425819
0 0.00244265 -0.0049473
0 0.00604532 -0.0117821
0 0.0115218 -0.00853196
0 0.00929918 -0.00688611
0 0.00348889 -0.00258355
0 -0.00366743 0.00271576
0 -0.00940883 0.00696732
0 -0.0115202 0.00853083
0 -0.00918705 0.00680308
0 -0.00330943 0.00245066
0 0.00384499 -0.00284725
0 0.00951599 -0.00704667
0 0.00920602 0
0 0.00781663 0
0 0.00293267 0
0 -0.00308274 0
0 -0.0079088 0
0 -0.00968359 0
0 -0.00772238 0
0 -0.00278181 0
0 0.003232 0
0 0.00760335 0
0.00129912 0.00565427 0.00988838
0.00339955 0.00456842 0.0079891
0.0041871 0.00171399 0.00299738
0.00335925 -0.00180171 -0.00315076
0.00123536 -0.00462229 -0.00808331
-0.00136513 -0.00565957 -0.00989726
-0.00343894 -0.00451334 -0.00789278
-0.00418599 -0.00162583 -0.0028432
-0.00331805 0.00188893 0.00330331
-0.00116881 0.00466992 0.00816695
0.00209702 -7.89407e-05 0.0159617
0.00548752 -6.37764e-05 0.0128959
0.00675879 -2.39278e-05 0.00483834
0.00542247 2.51523e-05 -0.00508594
0.00199412 6.45285e-05 -0.013048
-0.00220358 7.90091e-05 -0.0159761
-0.00555112 6.30075e-05 -0.0127405
-0.006757 2.2697e-05 -0.00458946
-0.00535597 -2.63701e-05 0.00533217
-0.00188668 -6.5198e-05 0.013183
0.00208588 -0.00578169 0.015877
0.00545837 -0.00467106 0.0128274
0.00672289 -0.0017525 0.00481264
0.00539366 0.00184218 -0.00505892
0.00198352 0.00472614 -0.0129787
-0.00219187 0.00578672 -0.0158912
-0.00552163 0.00461474 -0.0126728
-0.0067211 0.00166236 -0.00456508
-0.00532752 -0.00193137 0.00530385
-0.00187666 -0.00477516 0.013113
0.00126999 -0.00925383 0.00966671
0.00332334 -0.00747621 0.00781001
0.00409324 -0.00280495 0.00293019
0.00328394 0.00294849 -0.00308013
0.00120767 0.00756437 -0.00790212
-0.00133453 0.00926187 -0.0096754
-0.00336186 0.00738607 -0.00771584
-0.00409216 0.00266067 -0.00277946
-0.00324367 -0.00309124 0.00322926
-0.00114261 -0.00764283 0.00798387
-3.5868e-05 -0.00915576 -0.000273014
-9.386e-05 -0.00739699 -0.000220576
-0.000115604 -0.00277523 -8.27562e-05
-9.27473e-05 0.00291724 8.69912e-05
-3.41079e-05 0.00748422 0.000223177
3.76906e-05 0.00916373 0.000273259
9.49477e-05 0.0073078 0.000217916
0.000115573 0.00263247 7.84993e-05
9.16099e-05 -0.00305848 -9.12028e-05
3.22703e-05 -0.00756184 -0.000225486
-0.00132789 -0.00552534 -0.0101074
-0.00347485 -0.00446395 -0.00816606
-0.00427985 -0.0016748 -0.00306377
-0.00343365 0.0017605 0.00322055
-0.00126273 0.00451659 0.00826236
0.00139537 0.00553015 0.0101165
0.00351512 0.00441013 0.0080676
0.00427871 0.00158865 0.00290617
0.00339155 -0.00184574 -0.00337648
0.0011947 -0.00456344 -0.00834785
-0.00210761 0.000236804 -0.0160423
-0.00551521 0.000191315 -0.012961
-0.0067929 7.17781e-05 -0.00486276
-0.00544983 -7.54512e-05 0.0051116
-0.00200418 -0.000193571 0.0131139
0.0022147 -0.000237009 0.0160567
0.00557913 -0.000189008 0.0128047
0.00679109 -6.80859e-05 0.00461262
0.005383 7.91042e-05 -0.00535908
0.0018962 0.000195579 -0.0132496
-0.00207419 0.00590758 -0.0157879
-0.00542777 0.00477276 -0.0127555
-0.00668519 0.00179066 -0.00478566
-0.00536342 -0.00188229 0.00503055
-0.0019724 -0.00482904 0.0129059
0.00217959 -0.00591271 0.0158021
0.00549067 -0.00471521 0.0126017
0.00668342 -0.00169855 0.00453949
0.00529765 0.00197342 -0.00527411
0.00186614 0.00487913 -0.0130395
-0.00124054 0.00929918 -0.00944248
-0.003243 0.00750533 -0.00762099
-0.00399429 0.00281587 -0.00285927
-0.00320455 -0.00295997 0.00300559
-0.00117848 -0.00759383 0.00771086
0.00130227 -0.00929794 0.00944123
0.00328058 -0.00741483 0.0075291
0.00399323 -0.00267103 0.00271219
0.00316526 0.00310328 -0.0031511
0.0011161 0.00768032 -0.00779868
0 0.00345394 0
0 0.00293267 0
0 0.00110029 0
0 -0.00115659 0
0 -0.00296725 0
0 -0.00363312 0
0 -0.00289731 0
0 -0.00104369 0
0 0.00121259 0
0 0.00285265 0
0.00209702 0.00212139 0.00702689
0.00548752 0.00171399 0.00567706
0.00675879 0.000643062 0.00212994
0.00542247 -0.00067597 -0.00223893
0.00199412 -0.00173421 -0.005744
-0.00220358 -0.00212337 -0.007033
-0.00555112 -0.00169333 -0.00560861
-0.00675699 -0.000609984 -0.00202038
-0.00535597 0.000708697 0.00234733
-0.00188668 0.00175207 0.0058036
0.003385 -2.96172e-05 0.0113427
0.00885792 -2.39278e-05 0.00916386
0.01091 -8.97733e-06 0.00343813
0.00875291 9.43672e-06 -0.00361407
0.00321889 2.421e-05 -0.00927194
-0.003557 2.96429e-05 -0.0113526
-0.00896057 2.36393e-05 -0.00905338
-0.0109071 8.51554e-06 -0.00326128
-0.00864557 -9.89361e-06 0.00378904
-0.00304547 -2.44612e-05 0.00936813
0.00336702 -0.00216919 0.0112825
0.00881087 -0.0017525 0.00911518
0.010852 -0.00065751 0.00341987
0.00870641 0.000691157 -0.00359487
0.00320179 0.00177317 -0.00922268
-0.00353811 0.00217108 -0.0112923
-0.00891297 0.00173137 -0.00900528
-0.0108492 0.000623689 -0.00324395
-0.00859964 -0.000724619 0.00376892
-0.00302929 -0.00179156 0.00931837
0.00205002 -0.00347188 0.00686937
0.00536451 -0.00280495 0.0055498
0.00660729 -0.00105237 0.00208219
0.00530091 0.00110622 -0.00218874
0.00194941 0.00283803 -0.00561525
-0.00215418 0.0034749 -0.00687534
-0.00542668 0.00277113 -0.00548288
-0.00660553 0.000998237 -0.00197509
-0.00523591 -0.00115978 0.00229471
-0.00184439 -0.00286746 0.00567351
-5.78979e-05 -0.00343509 -0.000194009
-0.000151508 -0.00277523 -0.000156741
-0.000186607 -0.00104122 -5.88067e-05
-0.000149712 0.0010945 6.1816e-05
-5.50567e-05 0.00280795 0.00015859
6.08399e-05 0.00343808 0.000194178
0.000153264 0.00274176 0.000154851
0.000186558 0.00098766 5.57817e-05
0.000147876 -0.00114749 -6.48088e-05
5.20905e-05 -0.00283708 -0.000160235
-0.00214347 -0.00207301 -0.00718254
-0.00560907 -0.0016748 -0.00580281
-0.0069085 -0.000628357 -0.00217712
-0.00554258 0.000660512 0.00228853
-0.00203829 0.00169455 0.00587124
0.00225239 0.00207482 0.00718879
0.00567408 0.00165461 0.00573284
0.00690667 0.000596035 0.00206513
0.00547461 -0.00069249 -0.00239933
0.00192847 -0.00171212 -0.00593216
-0.00340208 8.88447e-05 -0.0114
-0.00890262 7.17781e-05 -0.00921011
-0.010965 2.69299e-05 -0.00345548
-0.00879708 -2.8308e-05 0.00363231
-0.00323513 -7.26245e-05 0.00931872
0.00357495 -8.8922e-05 0.0114099
0.00900579 -7.09126e-05 0.00909906
0.0109621 -2.55447e-05 0.00327773
0.0086892 2.96786e-05 -0.00380817
0.00306084 7.33778e-05 -0.00941541
-0.00334814 0.00221642 -0.0112192
-0.00876146 0.00179066 -0.00906408
-0.0107912 0.000671825 -0.00340069
-0.0086576 -0.000706205 0.00357472
-0.00318384 -0.00181178 0.00917097
0.00351827 -0.00221835 0.011229
0.008863 -0.00176907 0.00895479
0.0107883 -0.000637268 0.00322576
0.00855143 0.000740396 -0.00374778
0.00301231 0.00183057 -0.00926613
-0.00200246 0.00348889 -0.00671002
-0.00523482 0.00281587 -0.00541564
-0.00644755 0.00105647 -0.00203185
-0.00517277 -0.00111053 0.00213583
-0.00190229 -0.00284908 0.0054795
0.00210211 -0.00348843 0.00670913
0.00529549 -0.00278192 0.00535034
0.00644584 -0.00100212 0.00192734
0.00510933 0.0011643 -0.00223924
0.00180161 0.00288153 -0.0055419
0 -0.00363069 0
0 -0.00308274 0
0 -0.00115659 0
0 0.00121578 0
0 0.00311909 0
0 0.00381904 0
0 0.00304557 0
0 0.0010971 0
0 -0.00127464 0
0 -0.00299863 0
0.00208588 -0.00222994 0.00145437
0.00545837 -0.00180171 0.00117499
0.00672289 -0.00067597 0.000440838
0.00539366 0.000710561 -0.000463397
0.00198352 0.00182295 -0.00118885
-0.00219187 0.00223204 -0.00145564
-0.00552163 0.00177998 -0.00116083
-0.0067211 0.000641199 -0.000418161
-0.00532752 -0.000744963 0.000485832
-0.00187666 -0.00184173 0.00120118
0.00336702 3.11328e-05 0.00234763
0.00881087 2.51523e-05 0.00189666
0.010852 9.43672e-06 0.000711597
0.00870641 -9.91963e-06 -0.000748011
0.00320179 -2.54489e-05 -0.00191903
-0.00353811 -3.11598e-05 -0.00234968
-0.00891297 -2.4849e-05 -0.0018738
-0.0108492 -8.95131e-06 -0.000674993
-0.00859964 1.03999e-05 0.000784227
-0.00302929 2.57129e-05 0.00193894
0.00334913 0.0022802 0.00233516
0.00876406 0.00184218 0.00188659
0.0107944 0.000691157 0.000707817
0.00866016 -0.000726525 -0.000744038
0.00318478 -0.00186391 -0.00190884
-0.00351931 -0.00228218 -0.00233719
-0.00886563 -0.00181997 -0.00186384
-0.0107915 -0.000655605 -0.000671407
-0.00855396 0.0007617 0.000780061
-0.0030132 0.00188324 0.00192864
0.00203913 0.00364955 0.00142177
0.00533602 0.00294849 0.00114865
0.00657218 0.00110622 0.000430956
0.00527276 -0.00116283 -0.000453009
0.00193906 -0.00298326 -0.0011622
-0.00214274 -0.00365272 -0.00142301
-0.00539785 -0.00291294 -0.0011348
-0.00657044 -0.00104932 -0.000408788
-0.0052081 0.00121913 0.000474941
-0.00183459 0.0030142 0.00117426
-5.75904e-05 0.00361087 -4.01545e-05
-0.000150703 0.00291724 -3.2441e-05
-0.000185616 0.0010945 -1.21713e-05
-0.000148917 -0.00115051 1.27942e-05
-5.47642e-05 -0.00295165 3.28236e-05
6.05167e-05 -0.00361401 4.01894e-05
0.00015245 -0.00288207 3.20499e-05
0.000185567 -0.0010382 1.15453e-05
0.00014709 0.00120621 -1.34136e-05
5.18137e-05 0.00298226 -3.31642e-05
-0.00213209 0.0021791 -0.00148658
-0.00557928 0.0017605 -0.00120102
-0.0068718 0.000660512 -0.000450603
-0.00551314 -0.000694313 0.000473661
-0.00202746 -0.00178127 0.00121518
0.00224043 -0.00218099 0.00148788
0.00564394 -0.00173928 0.00118654
0.00686998 -0.000626536 0.000427424
0.00544553 0.000727927 -0.000496594
0.00191823 0.00179974 -0.00122779
-0.00338401 -9.33911e-05 -0.00235948
-0.00885533 -7.54512e-05 -0.00190624
-0.0109068 -2.8308e-05 -0.000715188
-0.00875035 2.97566e-05 0.000751786
-0.00321795 7.6341e-05 0.00192872
0.00355596 9.34724e-05 0.00236153
0.00895795 7.45415e-05 0.00188325
0.0109039 2.68519e-05 0.0006784
0.00864304 -3.11973e-05 -0.000788184
0.00304458 -7.71327e-05 -0.00194873
-0.00333036 -0.00232985 -0.00232207
-0.00871492 -0.00188229 -0.00187601
-0.0107339 -0.000706205 -0.000703848
-0.00861161 0.000742343 0.000739867
-0.00316692 0.00190449 0.00189813
0.00349958 0.00233187 0.00232409
0.00881592 0.0018596 0.00185339
0.010731 0.000669879 0.000667643
0.008506 -0.000778284 -0.000775687
0.0029963 -0.00192424 -0.00191783
-0.00199183 -0.00366743 -0.00138879
-0.00520702 -0.00295997 -0.00112089
-0.0064133 -0.00111053 -0.000420537
-0.00514529 0.00116736 0.000442058
-0.00189218 0.00299487 0.0011341
0.00209094 0.00366694 0.0013886
0.00526736 0.00292428 0.00110737
0.0064116 0.00105341 0.000398905
0.00508219 -0.00122388 -0.00046346
0.00179204 -0.00302898 -0.00114702
0 -0.00931458 0
0 -0.00790881 0
0 -0.00296725 0
0 0.00311909 0
0 0.00800207 0
0 0.00979779 0
0 0.00781345 0
0 0.00281462 0
0 -0.00327011 0
0 -0.00769301 0
0.00126999 -0.00572094 -0.00467925
0.00332334 -0.0046223 -0.00378039
0.00409324 -0.00173421 -0.00141834
0.00328394 0.00182295 0.00149092
0.00120767 0.0046768 0.00382498
-0.00133453 0.00572631 0.00468332
-0.00336186 0.00456656 0.00373481
-0.00409216 0.001645 0.00134538
-0.00324367 -0.00191121 -0.0015631
-0.00114261 -0.00472499 -0.00386466
0.00205002 7.98716e-05 -0.00755322
0.00536451 6.45285e-05 -0.00610228
0.00660729 2.421e-05 -0.00228947
0.00530091 -2.54489e-05 0.00240663
0.00194941 -6.52895e-05 0.00617424
-0.00215418 -7.99409e-05 0.00755979
-0.00542668 -6.37505e-05 0.00602871
-0.00660553 -2.29647e-05 0.00217171
-0.00523591 2.6681e-05 -0.00252315
-0.00184439 6.59668e-05 -0.00623831
0.00203913 0.00584987 -0.00751309
0.00533602 0.00472614 -0.00606986
0.00657218 0.00177317 -0.00227731
0.00527276 -0.00186391 0.00239385
0.00193906 -0.00478188 0.00614145
-0.00214274 -0.00585496 0.00751963
-0.00539785 -0.00466916 0.00599668
-0.00657044 -0.00168196 0.00216017
-0.0052081 0.00195415 -0.00250975
-0.00183459 0.00483147 -0.00620517
0.00124153 0.00936295 -0.00457436
0.00324884 0.00756437 -0.00369565
0.00400149 0.00283803 -0.00138655
0.00321033 -0.00298326 0.0014575
0.0011806 -0.00765358 0.00373923
-0.00130461 -0.00937109 0.00457834
-0.00328649 -0.00747317 0.00365109
-0.00400042 -0.00269204 0.00131522
-0.00317096 0.00312769 -0.00152806
-0.00111699 0.00773296 -0.00377803
-3.5064e-05 0.00926373 0.000129192
-9.1756e-05 0.00748422 0.000104375
-0.000113013 0.00280795 3.91598e-05
-9.06683e-05 -0.00295165 -4.11637e-05
-3.33433e-05 -0.00757247 -0.000105606
3.68457e-05 -0.00927179 -0.000129305
9.28193e-05 -0.00739398 -0.000103117
0.000112983 -0.00266352 -3.71454e-05
8.95564e-05 0.00309455 4.31566e-05
3.15469e-05 0.00765101 0.000106702
-0.00129813 0.0055905 0.0047829
-0.00339695 0.00451659 0.00386413
-0.00418391 0.00169455 0.00144976
-0.00335669 -0.00178127 -0.00152395
-0.00123442 -0.00456986 -0.0039097
0.00136409 -0.00559536 -0.00478706
0.00343632 -0.00446214 -0.00381754
0.0041828 -0.00160738 -0.00137518
0.00331552 0.00186751 0.00159773
0.00116792 0.00461725 0.00395027
-0.00206036 -0.000239596 0.00759133
-0.00539158 -0.000193571 0.00613308
-0.00664062 -7.26246e-05 0.00230103
-0.00532767 7.6341e-05 -0.00241878
-0.00195925 0.000195854 -0.0062054
0.00216505 0.000239804 -0.00759794
0.00545407 0.000191237 -0.00605913
0.00663886 6.88888e-05 -0.00218267
0.00526233 -8.0037e-05 0.00253588
0.0018537 -0.000197885 0.00626979
-0.00202769 -0.00597724 0.00747097
-0.0053061 -0.00482904 0.00603584
-0.00653533 -0.00181178 0.00226454
-0.0052432 0.00190449 -0.00238043
-0.00192819 0.00488599 -0.00610701
0.00213073 0.00598244 -0.00747747
0.00536759 0.00477082 -0.00596306
0.0065336 0.00171858 -0.00214806
0.0051789 -0.0019967 0.00249568
0.00182431 -0.00493667 0.00617038
-0.00121273 -0.00940883 0.00446825
-0.0031703 -0.00759383 0.00360631
-0.00390475 -0.00284908 0.00135303
-0.00313272 0.00299487 -0.00142227
-0.00115206 0.00768338 -0.00364884
0.00127307 0.00940758 -0.00446766
0.00320704 0.00750227 -0.00356283
0.00390371 0.00270252 -0.00128343
0.0030943 -0.00313987 0.00149113
0.00109108 -0.00777089 0.00369039
0 -0.0114048 0
0 -0.0096836 0
0 -0.00363312 0
0 0.00381904 0
0 0.00979779 0
0 0.0119965 0
0 0.00956684 0
0 0.00344624 0
0 -0.00400394 0
0 -0.00941937 0
-3.5868e-05 -0.00700476 -0.00900759
-9.386e-05 -0.00565957 -0.00727728
-0.000115604 -0.00212337 -0.00273031
-9.27473e-05 0.00223204 0.00287003
-3.41079e-05 0.00572631 0.00736309
3.76906e-05 0.00701133 0.00901542
9.49477e-05 0.00559133 0.00718954
0.000115573 0.00201415 0.00258987
9.16099e-05 -0.0023401 -0.00300898
3.22703e-05 -0.00578531 -0.00743949
-5.78979e-05 9.77953e-05 -0.01454
-0.000151508 7.90091e-05 -0.0117469
-0.000186607 2.96429e-05 -0.00440725
-0.000149712 -3.11598e-05 0.00463278
-5.50567e-05 -7.99409e-05 0.0118855
6.08399e-05 -9.78802e-05 0.0145526
0.000153264 -7.80565e-05 0.0116053
0.000186558 -2.81181e-05 0.00418055
0.000147876 3.26684e-05 -0.00485708
5.20905e-05 8.07702e-05 -0.0120088
-5.75904e-05 0.00716262 -0.0144627
-0.000150703 0.00578672 -0.0116845
-0.000185616 0.00217108 -0.00438384
-0.000148917 -0.00228218 0.00460817
-5.47642e-05 -0.00585496 0.0118223
6.05167e-05 -0.00716886 0.0144753
0.00015245 -0.00571695 0.0115436
0.000185567 -0.0020594 0.00415834
0.00014709 0.00239267 -0.00483128
5.18137e-05 0.00591569 -0.011945
-3.5064e-05 0.0114641 -0.00880567
-9.1756e-05 0.00926187 -0.00711414
-0.000113013 0.0034749 -0.00266911
-9.06683e-05 -0.00365272 0.00280569
-3.33433e-05 -0.00937109 0.00719804
3.68457e-05 -0.011474 0.00881333
9.28193e-05 -0.0091502 0.00702837
0.000112983 -0.00329616 0.00253181
8.95564e-05 0.00382957 -0.00294153
3.15469e-05 0.00946829 -0.00727272
9.90301e-07 0.0113426 0.000248696
2.59143e-06 0.00916372 0.000200922
3.19178e-06 0.00343808 7.53827e-05
2.56071e-06 -0.00361401 -7.92403e-05
9.41704e-07 -0.00927179 -0.000203292
-1.04062e-06 -0.0113524 -0.000248912
-2.62147e-06 -0.00905324 -0.0001985
-3.19093e-06 -0.00326123 -7.15051e-05
-2.52931e-06 0.00378899 8.30767e-05
-8.90969e-07 0.00936795 0.000205401
3.66625e-05 0.00684504 0.00920711
9.59391e-05 0.00553015 0.00743847
0.000118165 0.00207482 0.00279079
9.48017e-05 -0.00218099 -0.0029336
3.48634e-05 -0.00559536 -0.00752619
-3.85255e-05 -0.006851 -0.00921512
-9.70509e-05 -0.00546347 -0.00734878
-0.000118133 -0.00196809 -0.00264723
-9.36391e-05 0.00228659 0.00307563
-3.29851e-05 0.00565339 0.00760428
5.81901e-05 -0.000293363 0.0146134
0.000152273 -0.000237009 0.0118062
0.000187549 -8.8922e-05 0.00442949
0.000150468 9.34724e-05 -0.00465616
5.53345e-05 0.000239804 -0.0119454
-6.11469e-05 0.000293618 -0.0146261
-0.000154037 0.000234152 -0.0116639
-0.000187499 8.43479e-05 -0.00420164
-0.000148622 -9.79979e-05 0.00488159
-5.23533e-05 -0.000242291 0.0120694
5.72675e-05 -0.00731858 0.0143817
0.000149858 -0.00591271 0.011619
0.000184575 -0.00221835 0.00435926
0.000148082 0.00233187 -0.00458234
5.44572e-05 0.00598244 -0.011756
-6.01774e-05 0.00732494 -0.0143942
-0.000151595 0.00584142 -0.0114789
-0.000184526 0.00210424 -0.00413502
-0.000146266 -0.00244477 0.00480419
-5.15233e-05 -0.00604449 0.011878
3.42507e-05 -0.0115202 0.00860141
8.95378e-05 -0.00929794 0.00694216
0.000110281 -0.00348843 0.00260458
8.84763e-05 0.00366694 -0.00273787
3.25372e-05 0.00940758 -0.00702403
-3.5955e-05 0.0115187 -0.00860027
-9.05755e-05 0.00918583 -0.00685846
-0.000110251 0.00330899 -0.00247061
-8.73914e-05 -0.00384448 0.00287042
-3.08151e-05 -0.00951472 0.00710402
0 -0.00909502 0
0 -0.00772238 0
0 -0.00289731 0
0 0.00304557 0
0 0.00781345 0
0 0.00956684 0
0 0.00762927 0
0 0.00274827 0
0 -0.00319303 0
0 -0.00751167 0
-0.00132789 -0.00558609 -0.00986073
-0.00347485 -0.00451334 -0.00796653
-0.00427985 -0.00169333 -0.00298891
-0.00343365 0.00177998 0.00314186
-0.00126273 0.00456656 0.00806048
0.00139537 0.00559133 0.0098693
0.00351512 0.00445892 0.00787048
0.00427871 0.00160623 0.00283516
0.00339155 -0.00186616 -0.00329397
0.0011947 -0.00461361 -0.00814411
-0.00214347 7.79889e-05 -0.0159171
-0.00560907 6.30075e-05 -0.0128595
-0.0069085 2.36393e-05 -0.00482467
-0.00554258 -2.4849e-05 0.00507157
-0.00203829 -6.37505e-05 0.0130112
0.00225239 -7.80565e-05 0.015931
0.00567408 -6.22478e-05 0.0127045
0.00690667 -2.24234e-05 0.0045765
0.00547461 2.60521e-05 -0.00531711
0.00192847 6.44118e-05 -0.0131462
-0.00213209 0.00571198 -0.0158326
-0.00557928 0.00461474 -0.0127912
-0.0068718 0.00173137 -0.00479904
-0.00551314 -0.00181997 0.00504463
-0.00202746 -0.00466916 0.012942
0.00224043 -0.00571695 0.0158463
0.00564394 -0.0045591 0.012637
0.00686998 -0.00164231 0.00455219
0.00544553 0.00190809 -0.00528886
0.00191823 0.00471758 -0.0130763
-0.00129813 0.00914225 -0.00963968
-0.00339695 0.00738607 -0.00778795
-0.00418391 0.00277113 -0.00292191
-0.00335669 -0.00291294 0.00307143
-0.00123442 -0.00747317 0.0078798
0.00136409 -0.0091502 0.00964806
0.00343632 -0.00729702 0.00769405
0.0041828 -0.00262859 0.00277161
0.00331552 0.00305397 -0.00322013
0.00116792 0.00755068 -0.00796155
3.66625e-05 0.00904537 0.00027225
9.59391e-05 0.0073078 0.000219952
0.000118165 0.00274176 8.25225e-05
9.48017e-05 -0.00288207 -8.67455e-05
3.48634e-05 -0.00739398 -0.000222546
-3.85255e-05 -0.00905324 -0.000272487
-9.70509e-05 -0.00721969 -0.000217301
-0.000118133 -0.00260073 -7.82776e-05
-9.36391e-05 0.0030216 9.09452e-05
-3.29851e-05 0.00747066 0.000224855
0.00135731 0.00545872 0.0100791
0.00355182 0.00441013 0.008143
0.00437465 0.00165461 0.00305512
0.00350971 -0.00173928 -0.00321145
0.0012907 -0.00446214 -0.00823903
-0.00142628 -0.00546347 -0.0100879
-0.00359298 -0.00435695 -0.00804481
-0.00437349 -0.0015695 -0.00289797
-0.00346667 0.00182349 0.00336694
-0.00122116 0.00450841 0.00832451
0.00215429 -0.000233948 0.0159974
0.00563738 -0.000189008 0.0129244
0.00694337 -7.09127e-05 0.00484902
0.00557055 7.45415e-05 -0.00509716
0.00204857 0.000191237 -0.0130768
-0.00226376 0.000234152 -0.0160114
-0.00570272 0.000186729 -0.0127686
-0.00694152 6.7265e-05 -0.00459959
-0.00550224 -7.81504e-05 0.00534394
-0.0019382 -0.00019322 0.0132125
0.00212013 -0.00583635 0.0157438
0.005548 -0.00471521 0.0127195
0.00683328 -0.00176907 0.00477214
0.00548223 0.0018596 -0.00501635
0.00201609 0.00477082 -0.0128695
-0.00222787 0.00584142 -0.0157575
-0.00561229 0.00465836 -0.0125661
-0.00683146 0.00167807 -0.00452667
-0.005415 -0.00194963 0.00525921
-0.00190747 -0.0048203 0.013003
0.00126801 -0.00918705 0.00941608
0.00331483 -0.00741483 0.00759968
0.00408277 -0.00278192 0.00285127
0.00327554 0.00292428 -0.00299718
0.00120458 0.00750227 -0.0076893
-0.00133111 0.00918583 -0.00941483
-0.00335325 0.00732543 -0.00750805
-0.00408168 0.00263882 -0.00270461
-0.00323537 -0.00306586 0.00314229
-0.00114083 -0.00758771 0.00777687
0 -0.00327628 0
0 -0.00278182 0
0 -0.00104369 0
0 0.0010971 0
0 0.00281462 0
0 0.00344624 0
0 0.00274827 0
0 0.000990004 0
0 -0.00115022 0
0 -0.00270591 0
-0.00210761 -0.00201226 -0.00690952
-0.00551521 -0.00162583 -0.00558224
-0.0067929 -0.000609984 -0.00209436
-0.00544984 0.000641199 0.00220154
-0.00200418 0.001645 0.00564807
0.0022147 0.00201415 0.00691553
0.00557913 0.00160623 0.00551493
0.00679109 0.000578607 0.00198663
0.005383 -0.000672242 -0.00230813
0.0018962 -0.00166195 -0.00570667
-0.00340208 2.80937e-05 -0.0111533
-0.00890262 2.2697e-05 -0.00901081
-0.010965 8.51554e-06 -0.0033807
-0.00879708 -8.95131e-06 0.0035537
-0.00323513 -2.29647e-05 0.00911707
0.00357495 -2.81181e-05 0.011163
0.00900579 -2.24234e-05 0.00890216
0.0109621 -8.07751e-06 0.0032068
0.0086892 9.38469e-06 -0.00372576
0.00306084 2.32029e-05 -0.00921166
-0.00338401 0.00205761 -0.011094
-0.00885533 0.00166236 -0.00896294
-0.0109068 0.000623689 -0.00336275
-0.00875035 -0.000655605 0.00353483
-0.00321795 -0.00168196 0.00906864
0.00355596 -0.0020594 0.0111037
0.00895795 -0.00164231 0.00885487
0.0109039 -0.000591606 0.00318977
0.00864304 0.000687345 -0.00370597
0.00304458 0.0016994 -0.00916273
-0.00206036 0.00329329 -0.00675463
-0.00539158 0.00266067 -0.0054571
-0.00664062 0.000998237 -0.00204741
-0.00532767 -0.00104932 0.00215219
-0.00195925 -0.00269204 0.00552146
0.00216505 -0.00329616 0.00676051
0.00545407 -0.00262859 0.00539131
0.00663886 -0.000946889 0.0019421
0.00526233 0.00110012 -0.00225639
0.0018537 0.00271996 -0.00557875
5.81901e-05 0.00325839 0.000190769
0.000152273 0.00263247 0.000154123
0.000187549 0.00098766 5.78245e-05
0.000150468 -0.0010382 -6.07835e-05
5.53346e-05 -0.00266352 -0.000155941
-6.11469e-05 -0.00326123 -0.000190935
-0.000154037 -0.00260073 -0.000152265
-0.000187499 -0.000936855 -5.485e-05
-0.000148622 0.00108847 6.37263e-05
-5.23533e-05 0.00269114 0.000157559
0.00215429 0.00196638 0.00706257
0.00563738 0.00158865 0.00570589
0.00694337 0.000596035 0.00214075
0.00557055 -0.000626536 -0.0022503
0.00204857 -0.00160738 -0.00577318
-0.00226376 -0.00196809 -0.00706872
-0.00570272 -0.0015695 -0.00563709
-0.00694152 -0.000565376 -0.00203064
-0.00550224 0.000656869 0.00235925
-0.0019382 0.00162405 0.00583308
0.00341925 -8.42746e-05 0.0112096
0.00894754 -6.80859e-05 0.00905628
0.0110204 -2.55447e-05 0.00339776
0.00884148 2.68519e-05 -0.00357164
0.00325146 6.88888e-05 -0.00916308
-0.003593 8.43479e-05 -0.0112193
-0.00905124 6.7265e-05 -0.00894708
-0.0110175 2.42307e-05 -0.00322299
-0.00873305 -2.81519e-05 0.00374456
-0.00307628 -6.96033e-05 0.00925815
0.00336504 -0.00210241 0.0110319
0.00880568 -0.00169855 0.00891269
0.0108456 -0.000637268 0.00334389
0.00870129 0.000669879 -0.00351501
0.0031999 0.00171858 -0.0090178
-0.00353603 0.00210424 -0.0110414
-0.00890773 0.00167807 -0.00880523
-0.0108428 0.000604487 -0.00317189
-0.00859458 -0.000702311 0.00368519
-0.00302751 -0.00173641 0.00911136
0.00201257 -0.00330943 0.00659795
0.00526124 -0.00267103 0.00532518
0.00648009 -0.00100212 0.00199792
0.00519887 0.00105341 -0.00210016
0.00191189 0.00270252 -0.00538798
-0.00211272 0.00330899 -0.00659708
-0.00532222 0.00263882 -0.00526097
-0.00647837 0.000950576 -0.00189515
-0.00513512 -0.00110441 0.00220184
-0.0018107 -0.0027333 0.00544934
0 0.00380648 0
0 0.00323199 0
0 0.00121259 0
0 -0.00127464 0
0 -0.0032701 0
0 -0.00400394 0
0 -0.00319302 0
0 -0.00115021 0
0 0.00133635 0
0 0.00314381 0
-0.00207419 0.00233791 -0.00129258
-0.00542777 0.00188893 -0.00104428
-0.00668519 0.000708696 -0.000391798
-0.00536342 -0.000744963 0.000411847
-0.0019724 -0.00191121 0.0010566
0.00217959 -0.0023401 0.00129371
0.00549067 -0.00186616 0.00103169
0.00668342 -0.000672242 0.000371644
0.00529765 0.00078103 -0.000431787
0.00186614 0.0019309 -0.00106756
-0.00334814 -3.26402e-05 -0.00208647
-0.00876146 -2.637e-05 -0.00168567
-0.0107912 -9.8936e-06 -0.000632436
-0.0086576 1.03999e-05 0.000664801
-0.00318384 2.6681e-05 0.00170555
0.00351827 3.26684e-05 0.00208829
0.008863 2.60521e-05 0.00166535
0.0107883 9.38469e-06 0.000599905
0.00855143 -1.09034e-05 -0.000696987
0.00301231 -2.69579e-05 -0.00172324
-0.00333036 -0.0023906 -0.00207539
-0.00871492 -0.00193137 -0.00167672
-0.0107339 -0.000724619 -0.000629077
-0.00861161 0.0007617 0.000661269
-0.00316692 0.00195415 0.00169649
0.00349958 0.00239267 0.0020772
0.00881592 0.00190809 0.0016565
0.010731 0.000687345 0.000596718
0.008506 -0.000798577 -0.000693284
0.0029963 -0.00197442 -0.00171409
-0.00202769 -0.00382624 -0.0012636
-0.0053061 -0.00309124 -0.00102087
-0.00653534 -0.00115978 -0.000383015
-0.00524319 0.00121913 0.000402615
-0.00192819 0.00312769 0.00103291
0.00213073 0.00382957 0.00126471
0.00536759 0.00305397 0.00100856
0.0065336 0.00110012 0.000363313
0.0051789 -0.00127815 -0.000422107
0.00182431 -0.00316013 -0.00104363
5.72675e-05 -0.0037857 3.56875e-05
0.000149858 -0.00305848 2.88322e-05
0.000184575 -0.00114749 1.08174e-05
0.000148082 0.00120621 -1.13709e-05
5.44572e-05 0.00309455 -2.91722e-05
-6.01774e-05 0.00378898 -3.57187e-05
-0.000151595 0.0030216 -2.84846e-05
-0.000184526 0.00108846 -1.02609e-05
-0.000146266 -0.00126461 1.19214e-05
-5.15233e-05 -0.00312665 2.94748e-05
0.00212013 -0.0022846 0.00132121
0.005548 -0.00184574 0.00106741
0.00683328 -0.00069249 0.000400476
0.00548223 0.000727927 -0.00042097
0.00201609 0.0018675 -0.00108
-0.00222787 0.00228659 -0.00132236
-0.00561229 0.00182348 -0.00105454
-0.00683146 0.000656869 -0.000379876
-0.005415 -0.00076317 0.000441351
-0.00190747 -0.00188688 0.00109121
0.00336504 9.79128e-05 0.002097
0.00880568 7.91041e-05 0.00169418
0.0108456 2.96785e-05 0.000635628
0.00870129 -3.11973e-05 -0.000668155
0.0031999 -8.0037e-05 -0.00171416
-0.00353603 -9.79978e-05 -0.00209883
-0.00890773 -7.81504e-05 -0.00167375
-0.0108428 -2.81519e-05 -0.000602932
-0.00859458 3.27077e-05 0.000700504
-0.00302751 8.08672e-05 0.00173194
0.00331169 0.00244265 0.00206375
0.00866606 0.00197342 0.00166732
0.0106737 0.000740396 0.00062555
0.00856333 -0.000778284 -0.000657561
0.00314917 -0.0019967 -0.00168698
-0.00347996 -0.00244477 -0.00206555
-0.00876649 -0.00194963 -0.00164722
-0.0106709 -0.00070231 -0.000593373
-0.00845831 0.000815965 0.000689397
-0.00297951 0.00201741 0.00170448
0.00198066 0.00384499 0.00123429
0.00517782 0.00310328 0.000996193
0.00637735 0.0011643 0.000373755
0.00511644 -0.00122388 -0.000392881
0.00188157 -0.00313987 -0.00100794
-0.00207922 -0.00384448 -0.00123413
-0.00523783 -0.00306586 -0.000984181
-0.00637565 -0.00110441 -0.000354529
-0.0050537 0.00128313 0.000411903
-0.00178199 0.00317563 0.00101942
0 0.00942066 0
0 0.00760336 0
0 0.00285265 0
0 -0.00299863 0
0 -0.00769302 0
0 -0.00941938 0
0 -0.00751168 0
0 -0.00270591 0
0 0.00314381 0
0 0.00778063 0
-0.00124054 0.0057861 0.00482306
-0.00324299 0.00466993 0.00389267
-0.00399428 0.00175208 0.00146046
-0.00320454 -0.00184174 -0.0015352
-0.00117847 -0.00472499 -0.00393858
0.00130226 -0.00578531 -0.00482242
0.00328057 -0.00461362 -0.00384574
0.00399321 -0.00166195 -0.00138534
0.00316525 0.00193091 0.00160953
0.0011161 0.00477881 0.00398343
-0.00200246 -8.07813e-05 0.00778535
-0.00523481 -6.51981e-05 0.00628352
-0.00644753 -2.44612e-05 0.00235747
-0.00517275 2.5713e-05 -0.00247811
-0.00190228 6.59669e-05 -0.00635762
0.0021021 8.07703e-05 -0.00778431
0.00529547 6.44119e-05 -0.00620776
0.00644582 2.3203e-05 -0.00223621
0.00510932 -2.69579e-05 0.00259809
0.00180161 -6.67182e-05 0.00643002
-0.00199183 -0.0059165 0.00774399
-0.005207 -0.00477517 0.00625014
-0.00641328 -0.00179156 0.00234495
-0.00514527 0.00188324 -0.00246495
-0.00189218 0.00483148 -0.00632385
0.00209093 0.00591569 -0.00774296
0.00526734 0.00471759 -0.00617478
0.00641157 0.00169941 -0.00222433
0.00508217 -0.00197442 0.00258429
0.00179204 -0.0048865 0.00639587
-0.00121273 -0.00946958 0.00471494
-0.00317029 -0.00764284 0.00380541
-0.00390474 -0.00286747 0.00142773
-0.00313271 0.0030142 -0.00150079
-0.00115206 0.00773297 -0.00385029
0.00127307 0.0094683 -0.00471432
0.00320703 0.00755069 -0.00375953
0.0039037 0.00271997 -0.00135429
0.00309429 -0.00316014 0.00157345
0.00109108 -0.00782104 0.00389414
3.42507e-05 -0.00936923 -0.000133163
8.95375e-05 -0.00756185 -0.000107475
0.00011028 -0.00283708 -4.03228e-05
8.8476e-05 0.00298226 4.23862e-05
3.25371e-05 0.00765102 0.000108742
-3.59549e-05 0.00936796 0.000133145
-9.05752e-05 0.00747067 0.000106179
-0.000110251 0.00269114 3.82486e-05
-8.73911e-05 -0.00312665 -4.44384e-05
-3.08151e-05 -0.00773816 -0.000109981
0.00126801 -0.00565417 -0.00492989
0.00331482 -0.00456344 -0.0039789
0.00408275 -0.00171213 -0.00149282
0.00327553 0.00179974 0.00156921
0.00120458 0.00461726 0.00402582
-0.00133111 0.0056534 0.00492924
-0.00335324 0.00450842 0.00393092
-0.00408167 0.00162406 0.00141603
-0.00323536 -0.00188688 -0.00164518
-0.00114083 -0.00466984 -0.00407167
0.00201257 0.000242325 -0.00782463
0.00526122 0.000195579 -0.00631523
0.00648007 7.33779e-05 -0.00236937
0.00519885 -7.71328e-05 0.00249062
0.00191188 -0.000197885 0.0063897
-0.00211271 -0.000242292 0.00782359
-0.0053222 -0.000193221 0.00623908
-0.00647835 -6.96034e-05 0.00224749
-0.0051351 8.08673e-05 -0.0026112
-0.0018107 0.000200139 -0.00646247
0.00198066 0.00604532 -0.00770057
0.00517781 0.00487914 -0.0062151
0.00637732 0.00183057 -0.0023318
0.00511642 -0.00192425 0.00245113
0.00188157 -0.00493668 0.00628839
-0.00207921 -0.0060445 0.00769955
-0.00523781 -0.00482031 0.00614016
-0.00637563 -0.00173641 0.00221186
-0.00505368 0.00201741 -0.0025698
-0.00178199 0.0049929 -0.00636001
0.0011846 0.00951599 -0.00460557
0.00309676 0.00768032 -0.00371714
0.00381418 0.00288153 -0.00139461
0.00306005 -0.00302898 0.00146597
0.00112534 -0.00777089 0.00376097
-0.00124354 -0.00951472 0.00460496
-0.00313265 -0.00758771 0.00367232
-0.00381316 -0.0027333 0.00132287
-0.00302253 0.00317563 -0.00153695
-0.00106578 0.00785939 -0.00380381
