# vtk DataFile Version 3.0
Velocity field
ASCII
DATASET STRUCTURED_POINTS
DIMENSIONS 8 8 8
SPACING 0.8 0.8 0.8
ORIGIN 0 0 0
POINT_DATA 512
VECTORS velocity float
0 0.265585 0
0 0.185035 0
0 -0.00775496 0
0 -0.195841 0
0 -0.265132 0
0 -0.173598 0
0 0.0232385 0
0 0.205979 0
0 0.104485 0.271069
0 0.0727952 0.200232
0 -0.0030509 -0.00839187
0 -0.0770463 -0.211925
0 -0.104306 -0.286907
0 -0.0682957 -0.187855
0 0.00914232 0.025147
0 0.0810347 0.210232
0 -0.119995 0.377711
0 -0.083601 0.279006
0 0.00350379 -0.0116934
0 0.0884833 -0.295299
0 0.11979 -0.399781
0 0.0784337 -0.26176
0 -0.0104994 0.0350402
0 -0.0930637 0.29294
0 -0.271687 0.255239
0 -0.189286 0.188538
0 0.00793313 -0.0079018
0 0.20034 -0.199549
0 0.271223 -0.270152
0 0.177586 -0.176885
0 -0.0237724 0.0236785
0 -0.210711 0.197955
0 -0.258577 -0.022058
0 -0.180153 -0.0162937
0 0.00755034 0.00068288
0 0.190673 0.0172452
0 0.258136 0.0233468
0 0.169017 0.0152866
0 -0.0226253 -0.00204632
0 -0.200544 -0.0171074
0 -0.0886184 -0.285975
0 -0.061741 -0.211242
0 0.00258762 0.00885333
0 0.0653467 0.223578
0 0.0884673 0.302684
0 0.0579248 0.198185
0 -0.00775404 -0.0265298
0 -0.0687294 -0.221792
0 0.135095 -0.376423
0 0.0941218 -0.278054
0 -0.00394472 0.0116535
0 -0.0996184 0.294292
0 -0.134865 0.398417
0 -0.0883042 0.260868
0 0.0118207 -0.0349207
0 0.104775 -0.291941
0 0.276862 -0.238538
0 0.192892 -0.166191
0 -0.00808424 0.00696521
0 -0.204156 0.175897
0 -0.27639 0.238131
0 -0.180969 0.155919
0 0.0242252 -0.0208719
0 0.214725 -0.185002
0 0.185035 0
0 0.139964 0
0 -0.00586599 0
0 -0.148137 0
0 -0.20055 0
0 -0.131312 0
0 0.017578 0
0 0.143507 0
0.0577831 0.0727952 0.267742
0.141461 0.051955 0.190864
0.138019 -0.00217811 -0.00800157
0.0508469 -0.0550034 -0.202062
-0.0671681 -0.0744644 -0.273552
-0.14444 -0.0487562 -0.179112
-0.134088 0.00651639 0.0239402
-0.0414605 0.0564574 0.207652
0.0805158 -0.083601 0.373076
0.197114 -0.0595519 0.265953
0.192317 0.00249653 -0.0111494
0.0708502 0.0630444 -0.281553
-0.093594 0.0853503 -0.381174
-0.201266 0.0558839 -0.249577
-0.186842 -0.00746992 0.0333585
-0.0577717 -0.0648381 0.289345
0.0544086 -0.189286 0.252107
0.133199 -0.134836 0.179718
0.129959 0.00565264 -0.00753425
0.0478772 0.142744 -0.190261
-0.0632462 0.193249 -0.257579
-0.136004 0.126532 -0.168651
-0.126259 -0.0169132 0.022542
-0.0390393 -0.146804 0.195525
-0.00470205 -0.180153 -0.0217873
-0.0115113 -0.12833 -0.0155314
-0.0112312 0.00537987 0.000651114
-0.00413759 0.135856 0.0164426
0.00546576 0.183926 0.02226
0.0117538 0.120427 0.014575
0.0109113 -0.0160971 -0.00194811
0.00337381 -0.13972 -0.0168975
-0.0609605 -0.061741 -0.282465
-0.149239 -0.0439809 -0.20136
-0.145608 0.00184377 0.00844151
-0.0536422 0.0465606 0.213171
0.0708619 0.0630341 0.288595
0.152382 0.041272 0.188961
0.141462 -0.00551676 -0.0252567
0.0437404 -0.0478842 -0.21907
-0.0802412 0.0941218 -0.371804
-0.196421 0.067024 -0.265017
-0.191641 -0.00280979 0.0111102
-0.070601 -0.0709549 0.280563
0.0932647 -0.0960594 0.379832
0.200557 -0.062896 0.248699
0.186185 0.00840744 -0.0332415
0.0575747 0.0729977 -0.288358
-0.0508486 0.192892 -0.235611
-0.121702 0.134389 -0.164152
-0.118732 -0.00563235 0.00687973
-0.0437413 -0.142237 0.173738
0.0577825 -0.192563 0.235209
0.124256 -0.126082 0.154006
0.115358 0.0168779 -0.0206158
0.0364849 0.1496 -0.182732
0 -0.00775496 0
0 -0.00586599 0
0 0.000245848 0
0 0.00620855 0
0 0.00840523 0
0 0.00550341 0
0 -0.000736707 0
0 -0.00601448 0
0.0805158 -0.0030509 0.102007
0.197114 -0.00217811 0.072682
0.192317 9.13141e-05 -0.00304701
0.0708502 0.00230593 -0.076945
-0.093594 0.0031218 -0.104169
-0.201266 0.00204404 -0.0682059
-0.186842 -0.00027318 0.00911671
-0.0577717 -0.00236618 0.079113
0.112192 0.00350379 0.142138
0.274659 0.00249653 0.101276
0.267976 -0.00010466 -0.00424571
0.0987241 -0.00264296 -0.107216
-0.130415 -0.00357809 -0.145151
-0.280444 -0.0023428 -0.09504
-0.260349 0.000313148 0.0127034
-0.0804998 0.00271742 0.110237
0.0758137 0.00793313 0.0960497
0.185603 0.00565264 0.068437
0.181087 -0.000236973 -0.00286907
0.0667122 -0.00598422 -0.0724518
-0.0881277 -0.00810156 -0.0980864
-0.189512 -0.00530451 -0.0642233
-0.17593 0.000709025 0.00858427
-0.0543979 0.00615266 0.0744929
-0.0065519 0.00755034 -0.00830071
-0.01604 0.00537987 -0.00591444
-0.0156497 -0.000225537 0.000247947
-0.0057654 -0.00569547 0.00626137
0.00761611 -0.00771062 0.00847666
0.0163778 -0.00504857 0.0055502
0.0152041 0.000674811 -0.000741867
0.00470112 0.00585578 -0.00643775
-0.0849432 0.00258762 -0.107616
-0.20795 0.00184377 -0.0766782
-0.202894 -7.72954e-05 0.00321456
-0.0747459 -0.00195193 0.0811754
0.0987405 -0.00264253 0.109897
0.21233 -0.00173022 0.0719567
0.197116 0.000231269 -0.009618
0.0609485 0.00200687 -0.0834633
-0.111809 -0.00394472 -0.141653
-0.273694 -0.00280979 -0.100919
-0.267033 0.000117792 0.00423078
-0.0983769 0.00297459 0.106839
0.129956 0.00402706 0.144641
0.279458 0.00263674 0.0947055
0.259432 -0.000352449 -0.0126588
0.0802253 -0.00305939 -0.109861
-0.0708531 -0.00808424 -0.0897651
-0.169581 -0.00563235 -0.0625399
-0.165443 0.000236056 0.0026211
-0.0609497 0.00596127 0.0661922
0.0805149 0.00807046 0.089612
0.17314 0.00528421 0.0586744
0.160741 -0.000707365 -0.00785437
0.0508386 -0.00626986 -0.0696187
0 -0.195841 0
0 -0.148137 0
0 0.00620855 0
0 0.156788 0
0 0.212262 0
0 0.138981 0
0 -0.0186045 0
0 -0.151887 0
0.0544086 -0.0770463 -0.125605
0.133199 -0.0550034 -0.0894951
0.129959 0.00230593 0.00375185
0.0478772 0.0582309 0.094745
-0.0632462 0.0788339 0.128267
-0.136004 0.0516171 0.0839834
-0.126259 -0.00689858 -0.0112256
-0.0390393 -0.0597545 -0.0974148
0.0758137 0.0884833 -0.175019
0.185603 0.0630444 -0.124703
0.181087 -0.00264296 0.00522784
0.0667122 -0.066742 0.132019
-0.0881277 -0.0903573 0.178728
-0.189512 -0.0591622 0.117024
-0.17593 0.00790789 -0.0156419
-0.0543979 0.0686246 -0.135739
0.0512312 0.20034 -0.11827
0.125421 0.142744 -0.0842682
0.12237 -0.00598422 0.00353272
0.0450813 -0.151117 0.0892115
-0.0595525 -0.204587 0.120776
-0.128063 -0.133954 0.0790791
-0.118885 0.0179049 -0.01057
-0.0367594 0.155377 -0.0917258
-0.00442745 0.190673 0.010221
-0.0108389 0.135856 0.00728257
-0.0105752 -0.00569547 -0.000305302
-0.00389598 -0.143826 -0.00770977
0.00514654 -0.194714 -0.0104375
0.0110673 -0.127492 -0.00683407
0.0102741 0.0170409 0.000913474
0.00317679 0.14788 0.00792704
-0.0574005 0.0653467 0.132512
-0.140523 0.0465606 0.0944164
-0.137104 -0.00195193 -0.00395816
-0.0505101 -0.0492917 -0.0999546
0.0667232 -0.0667311 -0.135319
0.143484 -0.0436931 -0.0886018
0.1332 0.00584023 0.0118429
0.041186 0.0506806 0.102771
-0.0755552 -0.0996184 0.174423
-0.18495 -0.0709549 0.124265
-0.18045 0.00297459 -0.00520945
-0.0664776 0.0751162 -0.131554
0.0878177 0.101694 -0.1781
0.188845 0.0665848 -0.116612
0.175311 -0.00890036 0.0155871
0.0542123 -0.0772606 0.135276
-0.0478791 -0.204156 0.110531
-0.114594 -0.142237 0.0770077
-0.111798 0.00596127 -0.00322746
-0.0411869 0.150544 -0.0815049
0.054408 0.203808 -0.110343
0.117 0.133445 -0.0722479
0.108621 -0.0178635 0.00967138
0.0343542 -0.158337 0.0857241
0 -0.265132 0
0 -0.20055 0
0 0.00840523 0
0 0.212262 0
0 0.287364 0
0 0.188155 0
0 -0.0251871 0
0 -0.205627 0
-0.00470205 -0.104306 -0.277026
-0.0115113 -0.0744644 -0.197384
-0.0112312 0.0031218 0.00827485
-0.00413759 0.0788339 0.208961
0.00546576 0.106726 0.282896
0.0117538 0.0698801 0.18523
0.0109113 -0.00933941 -0.0247586
0.00337381 -0.0808965 -0.214852
-0.0065519 0.11979 -0.386012
-0.01604 0.0853503 -0.275037
-0.0156497 -0.00357809 0.0115303
-0.0057654 -0.0903573 0.291172
0.00761611 -0.122327 0.394193
0.0163778 -0.0800947 0.258103
0.0152041 0.0107058 -0.0344988
0.00470112 0.092905 -0.299378
-0.00442745 0.271223 -0.260848
-0.0108389 0.193249 -0.185858
-0.0105752 -0.00810156 0.00779163
-0.00389598 -0.204587 0.19676
0.00514654 -0.27697 0.266374
0.0110673 -0.18135 0.174412
0.0102741 0.02424 -0.0233127
0.00317679 0.210352 -0.202305
0.000382625 0.258136 0.0225428
0.000936719 0.183926 0.016062
0.000913925 -0.00771062 -0.000673353
0.000336691 -0.194714 -0.017004
-0.000444772 -0.263609 -0.0230205
-0.000956448 -0.172598 -0.0150729
-0.000887901 0.0230703 0.00201471
-0.000274541 0.200202 0.0174834
0.00496061 0.0884673 0.292259
0.0121443 0.0630341 0.208237
0.0118488 -0.00264253 -0.00872982
0.0043651 -0.0667311 -0.220451
-0.00576635 -0.0903424 -0.298451
-0.0124001 -0.0591525 -0.195415
-0.0115114 0.00790659 0.0261198
-0.00355934 0.0686122 0.226666
0.00652955 -0.134865 0.384696
0.0159835 -0.0960594 0.27407
0.0155947 0.00402705 -0.0114898
0.00574512 0.101694 -0.290147
-0.00758933 0.137674 -0.392807
-0.0163201 0.0901443 -0.257194
-0.0151506 -0.0120494 0.0343778
-0.00468508 -0.104597 0.298357
0.00413776 -0.27639 0.24378
0.00990337 -0.192563 0.169843
0.00966173 0.00807046 -0.00711828
0.00355941 0.203808 -0.179762
-0.004702 0.275919 -0.243365
-0.0101112 0.18066 -0.159346
-0.00938713 -0.0241839 0.0213306
-0.00296893 -0.214359 0.189068
0 -0.173598 0
0 -0.131312 0
0 0.00550341 0
0 0.138981 0
0 0.188155 0
0 0.123196 0
0 -0.0164915 0
0 -0.134637 0
-0.0609605 -0.0682957 -0.260407
-0.149239 -0.0487562 -0.185544
-0.145608 0.00204404 0.00777846
-0.0536422 0.0516171 0.196427
0.0708619 0.0698801 0.265924
0.152382 0.0457549 0.174117
0.141462 -0.00611508 -0.0232733
0.0437404 -0.0529678 -0.201963
-0.0849432 0.0784337 -0.362855
-0.20795 0.0558839 -0.258539
-0.202894 -0.0023428 0.0108385
-0.0747459 -0.0591622 0.273703
0.0987405 -0.0800947 0.370545
0.21233 -0.0524425 0.242619
0.197116 0.00700971 -0.0324294
0.0609485 0.0608305 -0.281418
-0.0574005 0.177586 -0.2452
-0.140523 0.126532 -0.174708
-0.137104 -0.00530451 0.00732416
-0.0505101 -0.133954 0.184956
0.0667232 -0.18135 0.250396
0.143484 -0.118741 0.163948
0.1332 0.0158714 -0.0219141
0.041186 0.13773 -0.190168
0.00496061 0.169017 0.0211904
0.0121443 0.120427 0.0150985
0.0118488 -0.00504858 -0.000632958
0.0043651 -0.127492 -0.0159841
-0.00576635 -0.172598 -0.0216394
-0.0124001 -0.113011 -0.0141686
-0.0115114 0.0151056 0.00189384
-0.00355934 0.131084 0.0164345
0.0643127 0.0579248 0.274727
0.157445 0.041272 0.195746
0.153615 -0.00173022 -0.0082062
0.0565919 -0.0436931 -0.207226
-0.0747582 -0.0591525 -0.280547
-0.160762 -0.0387306 -0.183693
-0.14924 0.00517689 0.0245531
-0.0461456 0.0449245 0.213069
0.0846535 -0.0883042 0.361617
0.207219 -0.062896 0.257629
0.202179 0.00263674 -0.0108004
0.074483 0.0665848 -0.27274
-0.0983931 0.0901443 -0.369242
-0.211584 0.0590228 -0.241765
-0.196423 -0.00788949 0.0323155
-0.0607406 -0.0684857 0.280458
0.0536447 -0.180969 0.229156
0.128394 -0.126082 0.159654
0.125261 0.00528421 -0.00669125
0.0461466 0.133445 -0.168978
-0.0609599 0.18066 -0.228765
-0.131089 0.118289 -0.149786
-0.121701 -0.0158346 0.020051
-0.0384912 -0.140353 0.177726
0 0.0232385 0
0 0.017578 0
0 -0.000736707 0
0 -0.0186045 0
0 -0.0251871 0
0 -0.0164915 0
0 0.00220761 0
0 0.018023 0
-0.0802412 0.00914232 -0.0858287
-0.196421 0.00651628 -0.0611706
-0.191641 -0.000273175 0.00256443
-0.070601 -0.00689845 0.0647594
0.0932647 -0.00933924 0.0876715
0.200557 -0.00611497 0.0574039
0.186185 0.00081739 -0.00767266
0.0575747 0.00709047 -0.0665658
-0.111809 -0.0104994 -0.119595
-0.273694 -0.00746979 -0.0852359
-0.267033 0.000313142 0.00357331
-0.0983769 0.00790775 0.0902362
0.129956 0.0107056 0.122163
0.279458 0.00700958 0.0799879
0.259432 -0.000937075 -0.0106912
0.0802253 -0.00814299 -0.0927537
-0.0755552 -0.0237724 -0.0808164
-0.18495 -0.0169129 -0.0575983
-0.18045 0.000709012 0.00241468
-0.0664777 0.0179046 0.0609773
0.0878177 0.0242395 0.0825515
0.188845 0.0158711 0.0540517
0.175311 -0.0021217 -0.00722456
0.0542123 -0.018437 -0.0626784
0.00652955 -0.0226253 0.00698423
0.0159835 -0.0160968 0.00497771
0.0155947 0.000674798 -0.000208678
0.00574513 0.0170406 -0.00526969
-0.00758933 0.0230699 -0.0071342
-0.0163201 0.0151053 -0.00467119
-0.0151506 -0.00201934 0.000624358
-0.00468508 -0.0175474 0.00541673
0.0846535 -0.00775404 0.0905483
0.207219 -0.00551666 0.0645344
0.202179 0.000231265 -0.00270544
0.074483 0.00584012 -0.06832
-0.0983932 0.00790644 -0.0924929
-0.211584 0.0051768 -0.0605607
-0.196423 -0.000692058 0.00809458
-0.0607406 -0.00601376 0.0702262
0.111428 0.0118207 0.119187
0.272731 0.00840728 0.0849362
0.266094 -0.000352443 -0.00356074
0.0980309 -0.0089002 -0.0899187
-0.129498 -0.0120492 -0.121733
-0.278475 -0.00788935 -0.0797062
-0.258518 0.00105471 0.0106537
-0.0799517 0.00916775 0.0924374
0.0706115 0.0242252 0.0755285
0.169003 0.0168779 0.0526212
0.164879 -0.000707365 -0.0022054
0.0607419 -0.0178635 -0.0556942
-0.0802403 -0.0241839 -0.0753997
-0.17255 -0.0158346 -0.0493687
-0.160193 0.00211968 0.00660868
-0.0506652 0.0187882 0.0585773
0 0.205979 0
0 0.143507 0
0 -0.00601448 0
0 -0.151887 0
0 -0.205627 0
0 -0.134637 0
0 0.018023 0
0 0.15975 0
-0.0508486 0.0810347 0.140812
-0.121702 0.0564574 0.0981048
-0.118732 -0.00236618 -0.00411165
-0.0437413 -0.0597545 -0.103834
0.0577825 -0.0808965 -0.140572
0.124256 -0.0529678 -0.092041
0.115358 0.00709047 0.012321
0.0364849 0.0628478 0.109209
-0.0708531 -0.0930637 0.19621
-0.169581 -0.0648381 0.136701
-0.165443 0.00271742 -0.00572923
-0.0609497 0.0686246 -0.144684
0.0805149 0.092905 -0.195875
0.17314 0.0608305 -0.128251
0.160741 -0.00814299 0.0171682
0.0508386 -0.072177 0.152174
-0.0478791 -0.210711 0.132589
-0.114594 -0.146804 0.0923756
-0.111798 0.00615266 -0.00387154
-0.0411869 0.155377 -0.0977703
0.054408 0.210352 -0.132363
0.117 0.13773 -0.0866659
0.108621 -0.018437 0.0116014
0.0343542 -0.16342 0.102831
0.00413776 -0.200544 -0.0114585
0.00990337 -0.13972 -0.00798319
0.00966172 0.00585578 0.000334582
0.00355941 0.14788 0.0084494
-0.00470199 0.200202 0.0114389
-0.0101112 0.131084 0.00748975
-0.00938713 -0.0175474 -0.00100261
-0.00296893 -0.155535 -0.0088868
0.0536447 -0.0687294 -0.148555
0.128394 -0.0478842 -0.1035
0.125261 0.00200687 0.00433775
0.0461466 0.0506806 0.109544
-0.0609598 0.0686122 0.148302
-0.131089 0.0449245 0.0971022
-0.121701 -0.00601376 -0.0129985
-0.0384912 -0.0533042 -0.115214
0.0706115 0.104775 -0.195541
0.169002 0.0729977 -0.136234
0.164879 -0.00305939 0.00570969
0.0607419 -0.0772606 0.14419
-0.0802403 -0.104597 0.195207
-0.17255 -0.0684857 0.127814
-0.160193 0.00916775 -0.0171096
-0.0506652 0.0812601 -0.151655
0.0447463 0.214725 -0.123913
0.107096 0.1496 -0.0863314
0.104483 -0.00626986 0.00361822
0.038492 -0.158337 0.091373
-0.050848 -0.214359 0.123702
-0.109344 -0.140353 0.0809953
-0.101514 0.0187882 -0.0108423
-0.0321064 0.166533 -0.0961031
