# vtk DataFile Version 3.0
Velocity field
ASCII
DATASET STRUCTURED_POINTS
DIMENSIONS 8 8 8
SPACING 0.8 0.8 0.8
ORIGIN 0 0 0
POINT_DATA 512
VECTORS velocity float
0 0.000172699 0
0 0.00012032 0
0 -5.04273e-06 0
0 -0.000127347 0
0 -0.000172404 0
0 -0.000112884 0
0 1.5111e-05 0
0 0.000133939 0
0 6.79421e-05 0.000176265
0 4.73357e-05 0.000130202
0 -1.98388e-06 -5.45689e-06
0 -5.01001e-05 -0.000137806
0 -6.78262e-05 -0.000186564
0 -4.44099e-05 -0.000122155
0 5.94487e-06 1.63521e-05
0 5.26935e-05 0.000136705
0 -7.80275e-05 0.00024561
0 -5.43623e-05 0.000181426
0 2.27837e-06 -7.6037e-06
0 5.7537e-05 -0.000192021
0 7.78945e-05 -0.000259961
0 5.10022e-05 -0.000170212
0 -6.82734e-06 2.27852e-05
0 -6.05155e-05 0.000190487
0 -0.000176667 0.000165971
0 -0.000123085 0.000122599
0 5.15859e-06 -5.13821e-06
0 0.000130273 -0.000129758
0 0.000176365 -0.000175669
0 0.000115477 -0.000115021
0 -1.54582e-05 1.53971e-05
0 -0.000137017 0.000128722
0 -0.000168142 -1.43434e-05
0 -0.000117146 -1.05951e-05
0 4.90967e-06 4.44049e-07
0 0.000123987 1.12139e-05
0 0.000167855 1.51815e-05
0 0.000109905 9.94023e-06
0 -1.47123e-05 -1.33064e-06
0 -0.000130405 -1.11243e-05
0 -5.76249e-05 -0.000185958
0 -4.01476e-05 -0.000137362
0 1.68262e-06 5.75696e-06
0 4.24922e-05 0.000145384
0 5.75266e-05 0.000196823
0 3.76661e-05 0.000128872
0 -5.04213e-06 -1.72513e-05
0 -4.46919e-05 -0.000144222
0 8.78469e-05 -0.000244772
0 6.12035e-05 -0.000180807
0 -2.56509e-06 7.57777e-06
0 -6.47778e-05 0.000191366
0 -8.76971e-05 0.000259074
0 -5.74206e-05 0.000169631
0 7.68653e-06 -2.27075e-05
0 6.81311e-05 -0.000189837
0 0.000180032 -0.000155112
0 0.000125429 -0.000108067
0 -5.25685e-06 4.52919e-06
0 -0.000132754 0.000114378
0 -0.000179725 0.000154847
0 -0.000117677 0.000101388
0 1.57526e-05 -1.35721e-05
0 0.000139627 -0.000120299
0 0.00012032 0
0 9.10125e-05 0
0 -3.81441e-06 0
0 -9.63276e-05 0
0 -0.00013041 0
0 -8.53871e-05 0
0 1.14302e-05 0
0 9.33164e-05 0
3.7574e-05 4.73357e-05 0.000174102
8.99315e-05 3.29797e-05 0.0001213
8.77372e-05 -1.38221e-06 -5.08378e-06
3.23226e-05 -3.49057e-05 -0.000128384
-4.26984e-05 -4.72558e-05 -0.000173808
-9.18192e-05 -3.09412e-05 -0.000113802
-8.52437e-05 4.14191e-06 1.5234e-05
-2.69601e-05 3.67119e-05 0.000135027
5.23561e-05 -5.43623e-05 0.000242596
0.000125312 -3.78752e-05 0.000169021
0.000122254 1.58738e-06 -7.0838e-06
4.50388e-05 4.00871e-05 -0.000178892
-5.94964e-05 5.42704e-05 -0.000242186
-0.000127942 3.55341e-05 -0.000158574
-0.00011878 -4.75673e-06 2.12273e-05
-3.75665e-05 -4.21615e-05 0.000188149
3.53797e-05 -0.000123085 0.000163934
8.46796e-05 -8.57554e-05 0.000114216
8.26134e-05 3.59408e-06 -4.78689e-06
3.0435e-05 9.07635e-05 -0.000120886
-4.02048e-05 0.000122877 -0.000163658
-8.6457e-05 8.04549e-05 -0.000107157
-8.02655e-05 -1.077e-05 1.43444e-05
-2.53856e-05 -9.54604e-05 0.000127142
-3.05755e-06 -0.000117146 -1.41674e-05
-7.3181e-06 -8.16176e-05 -9.87067e-06
-7.13953e-06 3.42066e-06 4.13688e-07
-2.63023e-06 8.6384e-05 1.04471e-05
3.47454e-06 0.000116948 1.41434e-05
7.47169e-06 7.65728e-05 9.26057e-06
6.93662e-06 -1.02503e-05 -1.23965e-06
2.19385e-06 -9.08543e-05 -1.09877e-05
-3.96401e-05 -4.01476e-05 -0.000183675
-9.48767e-05 -2.79716e-05 -0.00012797
-9.25618e-05 1.17231e-06 5.36333e-06
-3.41e-05 2.96051e-05 0.000135443
4.50463e-05 4.00798e-05 0.000183365
9.68682e-05 2.62427e-05 0.00012006
8.99311e-05 -3.51294e-06 -1.60717e-05
2.84426e-05 -3.11371e-05 -0.000142452
-5.21775e-05 6.12035e-05 -0.000241769
-0.000124884 4.26416e-05 -0.000168445
-0.000121837 -1.78714e-06 7.05964e-06
-4.48852e-05 -4.51318e-05 0.000178282
5.92935e-05 -6.11001e-05 0.00024136
0.000127506 -4.00059e-05 0.000158033
0.000118374 5.35535e-06 -2.11549e-05
3.74384e-05 4.74674e-05 -0.000187507
-3.30648e-05 0.000125429 -0.000153208
-7.91376e-05 8.73875e-05 -0.000106741
-7.72067e-05 -3.66248e-06 4.47361e-06
-2.84432e-05 -9.24909e-05 0.000112975
3.75736e-05 -0.000125216 0.000152947
8.07987e-05 -8.19862e-05 0.000100143
7.50124e-05 1.0975e-05 -1.34056e-05
2.37246e-05 9.72788e-05 -0.000118823
0 -5.04273e-06 0
0 -3.81441e-06 0
0 1.59865e-07 0
0 4.03717e-06 0
0 5.46558e-06 0
0 3.57864e-06 0
0 -4.7905e-07 0
0 -3.91097e-06 0
5.23561e-05 -1.98388e-06 6.63309e-05
0.000125312 -1.38221e-06 4.62139e-05
0.000122254 5.79293e-08 -1.93686e-06
4.50388e-05 1.46293e-06 -4.89128e-05
-5.94964e-05 1.98053e-06 -6.62188e-05
-0.000127942 1.29677e-06 -4.33575e-05
-0.00011878 -1.73591e-07 5.80399e-06
-3.75665e-05 -1.53863e-06 5.14439e-05
7.29537e-05 2.27837e-06 9.24263e-05
0.000174611 1.58738e-06 6.4395e-05
0.000170351 -6.65284e-08 -2.69885e-06
6.27577e-05 -1.68008e-06 -6.81557e-05
-8.29032e-05 -2.27452e-06 -9.22702e-05
-0.000178276 -1.48927e-06 -6.04148e-05
-0.000165509 1.99358e-07 8.08735e-06
-5.23457e-05 1.76702e-06 7.16827e-05
4.92985e-05 5.15859e-06 6.24572e-05
0.000117994 3.59408e-06 4.35151e-05
0.000115115 -1.50631e-07 -1.82375e-06
4.24086e-05 -3.80397e-06 -4.60563e-05
-5.60219e-05 -5.14987e-06 -6.23517e-05
-0.00012047 -3.37193e-06 -4.08254e-05
-0.000111843 4.51379e-07 5.46504e-06
-3.53727e-05 4.00082e-06 4.84397e-05
-4.26043e-06 4.90967e-06 -5.39761e-06
-1.01971e-05 3.42066e-06 -3.76061e-06
-9.94832e-06 -1.43363e-07 1.5761e-07
-3.66499e-06 -3.62042e-06 3.98023e-06
4.84147e-06 -4.90138e-06 5.3885e-06
1.04112e-05 -3.20923e-06 3.52817e-06
9.66558e-06 4.29599e-07 -4.72294e-07
3.05694e-06 3.80778e-06 -4.1862e-06
-5.52351e-05 1.68262e-06 -6.99783e-05
-0.000132202 1.17231e-06 -4.87551e-05
-0.000128977 -4.91326e-08 2.04337e-06
-4.75155e-05 -1.24077e-06 5.16024e-05
6.27681e-05 -1.67978e-06 6.98601e-05
0.000134977 -1.09985e-06 4.57416e-05
0.000125311 1.4723e-07 -6.12314e-06
3.96323e-05 1.30498e-06 -5.42728e-05
-7.27049e-05 -2.56509e-06 -9.21111e-05
-0.000174016 -1.78714e-06 -6.41754e-05
-0.00016977 7.49007e-08 2.68965e-06
-6.25437e-05 1.89151e-06 6.79232e-05
8.26205e-05 2.56076e-06 9.19555e-05
0.000177668 1.67668e-06 6.02088e-05
0.000164945 -2.24447e-07 -8.05977e-06
5.21672e-05 -1.9894e-06 -7.14382e-05
-4.60729e-05 -5.25685e-06 -5.83705e-05
-0.000110271 -3.66248e-06 -4.06671e-05
-0.000107581 1.53498e-07 1.70439e-06
-3.96331e-05 3.87637e-06 4.30421e-05
5.23555e-05 5.24789e-06 5.8271e-05
0.000112586 3.43611e-06 3.81535e-05
0.000104523 -4.5997e-07 -5.10737e-06
3.30582e-05 -4.07703e-06 -4.52702e-05
0 -0.000127347 0
0 -9.63276e-05 0
0 4.03717e-06 0
0 0.000101953 0
0 0.000138026 0
0 9.03736e-05 0
0 -1.20978e-05 0
0 -9.87661e-05 0
3.53797e-05 -5.01001e-05 -8.16756e-05
8.46796e-05 -3.49057e-05 -5.69048e-05
8.26134e-05 1.46293e-06 2.38493e-06
3.0435e-05 3.69441e-05 6.0228e-05
-4.02048e-05 5.00155e-05 8.15377e-05
-8.6457e-05 3.27482e-05 5.33876e-05
-8.02655e-05 -4.38379e-06 -7.14666e-06
-2.53856e-05 -3.88559e-05 -6.33448e-05
4.92985e-05 5.7537e-05 -0.000113808
0.000117994 4.00871e-05 -7.9292e-05
0.000115115 -1.68008e-06 3.32319e-06
4.24086e-05 -4.24281e-05 8.39226e-05
-5.60219e-05 -5.74398e-05 0.000113616
-0.00012047 -3.76093e-05 7.4391e-05
-0.000111843 5.03452e-06 -9.95826e-06
-3.53727e-05 4.46237e-05 -8.82655e-05
3.33136e-05 0.000130273 -7.69058e-05
7.97344e-05 9.07635e-05 -5.35817e-05
7.77889e-05 -3.80397e-06 2.24565e-06
2.86576e-05 -9.6064e-05 5.67108e-05
-3.78569e-05 -0.000130053 7.67759e-05
-8.1408e-05 -8.51535e-05 5.02698e-05
-7.5578e-05 1.1399e-05 -6.7293e-06
-2.39031e-05 0.000101035 -5.96455e-05
-2.87899e-06 0.000123987 6.64628e-06
-6.89072e-06 8.6384e-05 4.63058e-06
-6.7226e-06 -3.62042e-06 -1.94071e-07
-2.47662e-06 -9.14287e-05 -4.901e-06
3.27163e-06 -0.000123778 -6.63505e-06
7.03536e-06 -8.10446e-05 -4.34437e-06
6.53153e-06 1.08489e-05 5.81553e-07
2.06573e-06 9.61601e-05 5.15463e-06
-3.73252e-05 4.24922e-05 8.61668e-05
-8.9336e-05 2.96051e-05 6.00339e-05
-8.71563e-05 -1.24077e-06 -2.51607e-06
-3.21086e-05 -3.1334e-05 -6.35399e-05
4.24156e-05 -4.24205e-05 -8.60213e-05
9.12111e-05 -2.77752e-05 -5.63233e-05
8.46792e-05 3.71809e-06 7.53964e-06
2.67816e-05 3.29555e-05 6.68281e-05
-4.91304e-05 -6.47778e-05 0.00011342
-0.000117591 -4.51318e-05 7.90216e-05
-0.000114722 1.89151e-06 -3.31186e-06
-4.2264e-05 4.77675e-05 -8.36364e-05
5.58308e-05 6.46683e-05 -0.000113228
0.000120059 4.23423e-05 -7.41373e-05
0.000111462 -5.66809e-06 9.9243e-06
3.52521e-05 -5.02394e-05 8.79645e-05
-3.11338e-05 -0.000132754 7.18738e-05
-7.45161e-05 -9.24909e-05 5.00749e-05
-7.26979e-05 3.87637e-06 -2.09868e-06
-2.67821e-05 9.78923e-05 -5.29993e-05
3.53793e-05 0.000132528 -7.17512e-05
7.60801e-05 8.67741e-05 -4.69798e-05
7.06317e-05 -1.16159e-05 6.2889e-06
2.23391e-05 -0.00010296 5.57428e-05
0 -0.000172404 0
0 -0.00013041 0
0 5.46558e-06 0
0 0.000138026 0
0 0.000186861 0
0 0.000122349 0
0 -1.63781e-05 0
0 -0.000133711 0
-3.05755e-06 -6.78262e-05 -0.000180139
-7.3181e-06 -4.72558e-05 -0.000125506
-7.13953e-06 1.98053e-06 5.26005e-06
-2.63023e-06 5.00155e-05 0.000132835
3.47454e-06 6.77117e-05 0.000179834
7.47169e-06 4.4335e-05 0.000117748
6.93662e-06 -5.93484e-06 -1.57622e-05
2.19385e-06 -5.26037e-05 -0.000139709
-4.26043e-06 7.78945e-05 -0.000251008
-1.01971e-05 5.42704e-05 -0.000174882
-9.94832e-06 -2.27452e-06 7.32943e-06
-3.66499e-06 -5.74398e-05 0.000185095
4.84147e-06 -7.77629e-05 0.000250584
1.04112e-05 -5.09161e-05 0.000164072
9.66558e-06 6.81581e-06 -2.19633e-05
3.05694e-06 6.04123e-05 -0.000194673
-2.87899e-06 0.000176365 -0.000169619
-6.89072e-06 0.000122877 -0.000118176
-6.7226e-06 -5.14987e-06 4.95287e-06
-2.47662e-06 -0.000130053 0.000125078
3.27163e-06 -0.000176067 0.000169332
7.03536e-06 -0.000115282 0.000110872
6.53153e-06 1.54321e-05 -1.48417e-05
2.06573e-06 0.000136783 -0.000131551
2.48805e-07 0.000167855 1.46586e-05
5.95503e-07 0.000116948 1.02129e-05
5.80973e-07 -4.90138e-06 -4.28032e-07
2.14032e-07 -0.000123778 -1.08094e-05
-2.82737e-07 -0.000167572 -1.46339e-05
-6.08002e-07 -0.000109719 -9.58167e-06
-5.64461e-07 1.46875e-05 1.28264e-06
-1.78523e-07 0.000130183 1.13687e-05
3.22568e-06 5.75266e-05 0.000190044
7.72051e-06 4.00798e-05 0.000132407
7.53212e-06 -1.67978e-06 -5.5493e-06
2.77486e-06 -4.24205e-05 -0.00014014
-3.6656e-06 -5.74294e-05 -0.000189723
-7.88255e-06 -3.76025e-05 -0.000124223
-7.31806e-06 5.03361e-06 1.6629e-05
-2.31449e-06 4.46157e-05 0.000147392
4.2459e-06 -8.76971e-05 0.000250152
1.01624e-05 -6.11001e-05 0.000174285
9.91439e-06 2.56076e-06 -7.30443e-06
3.65249e-06 6.46683e-05 -0.000184463
-4.82496e-06 8.7549e-05 -0.000249729
-1.03757e-05 5.73236e-05 -0.000163513
-9.63262e-06 -7.67355e-06 2.18884e-05
-3.04652e-06 -6.80149e-05 0.000194009
2.69061e-06 -0.000179725 0.00015852
6.43975e-06 -0.000125216 0.000110442
6.28262e-06 5.24789e-06 -4.62872e-06
2.31454e-06 0.000132528 -0.000116892
-3.05751e-06 0.000179418 -0.00015825
-6.57492e-06 0.000117476 -0.000103616
-6.10407e-06 -1.57258e-05 1.38704e-05
-1.93057e-06 -0.000139389 0.000122943
0 -0.000112884 0
0 -8.53871e-05 0
0 3.57864e-06 0
0 9.03736e-05 0
0 0.000122349 0
0 8.01094e-05 0
0 -1.07237e-05 0
0 -8.75486e-05 0
-3.96401e-05 -4.44099e-05 -0.000169332
-9.48767e-05 -3.09412e-05 -0.000117977
-9.25618e-05 1.29677e-06 4.9445e-06
-3.41e-05 3.27482e-05 0.000124866
4.50463e-05 4.4335e-05 0.000169046
9.68682e-05 2.90288e-05 0.000110685
8.99311e-05 -3.8859e-06 -1.48166e-05
2.84426e-05 -3.44428e-05 -0.000131328
-5.52351e-05 5.10022e-05 -0.00023595
-0.000132202 3.55341e-05 -0.00016439
-0.000128977 -1.48927e-06 6.88973e-06
-4.75155e-05 -3.76093e-05 0.000173991
6.27681e-05 -5.09161e-05 0.000235551
0.000134977 -3.33378e-05 0.000154229
0.000125311 4.46272e-06 -2.06457e-05
3.96323e-05 3.95556e-05 -0.000182994
-3.73252e-05 0.000115477 -0.000159443
-8.9336e-05 8.0455e-05 -0.000111087
-8.71563e-05 -3.37193e-06 4.65575e-06
-3.21086e-05 -8.51535e-05 0.000117574
4.24156e-05 -0.000115282 0.000159174
9.12111e-05 -7.54821e-05 0.000104221
8.46792e-05 1.01043e-05 -1.39514e-05
2.67816e-05 8.956e-05 -0.000123659
3.22568e-06 0.000109905 1.37792e-05
7.72051e-06 7.65728e-05 9.60025e-06
7.53212e-06 -3.20923e-06 -4.02354e-07
2.77486e-06 -8.10446e-05 -1.01609e-05
-3.6656e-06 -0.000109719 -1.3756e-05
-7.88255e-06 -7.18399e-05 -9.00686e-06
-7.31806e-06 9.61676e-06 1.20569e-06
-2.31449e-06 8.52386e-05 1.06867e-05
4.18199e-05 3.76661e-05 0.000178643
0.000100094 2.62427e-05 0.000124464
9.76516e-05 -1.09985e-06 -5.21639e-06
3.59751e-05 -2.77752e-05 -0.000131733
-4.75233e-05 -3.76025e-05 -0.000178342
-0.000102195 -2.46206e-05 -0.000116771
-9.48763e-05 3.29581e-06 1.56314e-05
-3.00066e-05 2.92126e-05 0.00013855
5.50467e-05 -5.74206e-05 0.000235145
0.000131752 -4.00059e-05 0.00016383
0.000128537 1.67668e-06 -6.86623e-06
4.73534e-05 4.23423e-05 -0.000173397
-6.25541e-05 5.73236e-05 -0.000234748
-0.000134517 3.75332e-05 -0.000153703
-0.000124884 -5.02433e-06 2.05753e-05
-3.94971e-05 -4.45334e-05 0.00018237
3.48829e-05 -0.000117677 0.000149011
8.34893e-05 -8.19862e-05 0.000103817
8.14522e-05 3.43611e-06 -4.35104e-06
3.00072e-05 8.67741e-05 -0.00010988
-3.96397e-05 0.000117476 -0.000148757
-8.52417e-05 7.69186e-05 -9.73999e-05
-7.91372e-05 -1.02966e-05 1.30383e-05
-2.50292e-05 -9.1266e-05 0.000115568
0 1.5111e-05 0
0 1.14302e-05 0
0 -4.7905e-07 0
0 -1.20977e-05 0
0 -1.63781e-05 0
0 -1.07237e-05 0
0 1.43552e-06 0
0 1.17196e-05 0
-5.21775e-05 5.94487e-06 -5.58109e-05
-0.000124884 4.14191e-06 -3.88844e-05
-0.000121837 -1.73591e-07 1.62968e-06
-4.48852e-05 -4.38379e-06 4.11553e-05
5.92935e-05 -5.93484e-06 5.57166e-05
0.000127506 -3.8859e-06 3.6481e-05
0.000118374 5.20181e-07 -4.88348e-06
3.74384e-05 4.61064e-06 -4.3285e-05
-7.27049e-05 -6.82734e-06 -7.77676e-05
-0.000174016 -4.75673e-06 -5.41821e-05
-0.00016977 1.99358e-07 2.27082e-06
-6.25437e-05 5.03452e-06 5.73463e-05
8.26205e-05 6.81581e-06 7.76363e-05
0.000177668 4.46272e-06 5.08332e-05
0.000164945 -5.97397e-07 -6.80471e-06
5.21672e-05 -5.29505e-06 -6.03139e-05
-4.91304e-05 -1.54582e-05 -5.25516e-05
-0.000117591 -1.077e-05 -3.66136e-05
-0.000114722 4.5138e-07 1.53451e-06
-4.2264e-05 1.1399e-05 3.87518e-05
5.58308e-05 1.54321e-05 5.24628e-05
0.000120059 1.01043e-05 3.43505e-05
0.000111461 -1.3526e-06 -4.59829e-06
3.52521e-05 -1.19888e-05 -4.07572e-05
4.2459e-06 -1.47123e-05 4.54156e-06
1.01624e-05 -1.02503e-05 3.16419e-06
9.91439e-06 4.29599e-07 -1.32614e-07
3.65249e-06 1.08489e-05 -3.34897e-06
-4.82496e-06 1.46875e-05 -4.53389e-06
-1.03757e-05 9.61676e-06 -2.96861e-06
-9.63262e-06 -1.28734e-06 3.97389e-07
-3.04652e-06 -1.14104e-05 3.52228e-06
5.50467e-05 -5.04213e-06 5.88798e-05
0.000131752 -3.51294e-06 4.10226e-05
0.000128537 1.4723e-07 -1.71929e-06
4.73534e-05 3.71809e-06 -4.34183e-05
-6.25541e-05 5.03361e-06 -5.87804e-05
-0.000134517 3.29581e-06 -3.84871e-05
-0.000124884 -4.41189e-07 5.15202e-06
-3.94971e-05 -3.9105e-06 4.56652e-05
7.24569e-05 7.68653e-06 7.75024e-05
0.000173422 5.35535e-06 5.39973e-05
0.000169191 -2.24447e-07 -2.26307e-06
6.23304e-05 -5.66809e-06 -5.71507e-05
-8.23387e-05 -7.67355e-06 -7.73715e-05
-0.000177062 -5.02433e-06 -5.06598e-05
-0.000164382 6.72576e-07 6.78151e-06
-5.19893e-05 5.96141e-06 6.01082e-05
4.59157e-05 1.57526e-05 4.9113e-05
0.000109895 1.0975e-05 3.42174e-05
0.000107214 -4.5997e-07 -1.43408e-06
3.94979e-05 -1.16159e-05 -3.62157e-05
-5.21769e-05 -1.57258e-05 -4.90293e-05
-0.000112202 -1.02966e-05 -3.21024e-05
-0.000104167 1.37834e-06 4.29735e-06
-3.29455e-05 1.22172e-05 3.80904e-05
0 0.000133939 0
0 9.33164e-05 0
0 -3.91097e-06 0
0 -9.87661e-05 0
0 -0.000133711 0
0 -8.75486e-05 0
0 1.17196e-05 0
0 0.000103879 0
-3.30648e-05 5.26935e-05 9.15644e-05
-7.91376e-05 3.67119e-05 6.37935e-05
-7.72067e-05 -1.53863e-06 -2.67364e-06
-2.84432e-05 -3.88559e-05 -6.7519e-05
3.75736e-05 -5.26037e-05 -9.14083e-05
8.07987e-05 -3.44428e-05 -5.98505e-05
7.50124e-05 4.61064e-06 8.01181e-06
2.37246e-05 4.08673e-05 7.10142e-05
-4.60729e-05 -6.05155e-05 0.000127587
-0.000110271 -4.21615e-05 8.88908e-05
-0.000107581 1.76702e-06 -3.72548e-06
-3.96331e-05 4.46237e-05 -9.40819e-05
5.23555e-05 6.04123e-05 -0.00012737
0.000112586 3.95556e-05 -8.33965e-05
0.000104523 -5.29505e-06 1.11638e-05
3.30582e-05 -4.69337e-05 9.89522e-05
-3.11338e-05 -0.000137017 8.62171e-05
-7.45161e-05 -9.54604e-05 6.0068e-05
-7.26979e-05 4.00082e-06 -2.5175e-06
-2.67821e-05 0.000101035 -6.3576e-05
3.53793e-05 0.000136783 -8.60701e-05
7.60801e-05 8.956e-05 -5.63553e-05
7.06317e-05 -1.19888e-05 7.54393e-06
2.23391e-05 -0.000106265 6.68671e-05
2.69061e-06 -0.000130405 -7.45097e-06
6.43975e-06 -9.08543e-05 -5.19114e-06
6.28262e-06 3.80778e-06 2.17565e-07
2.31454e-06 9.61601e-05 5.4943e-06
-3.05751e-06 0.000130183 7.43826e-06
-6.57492e-06 8.52386e-05 4.87028e-06
-6.10407e-06 -1.14104e-05 -6.51954e-07
-1.93057e-06 -0.000101138 -5.77872e-06
3.48829e-05 -4.46919e-05 -9.65994e-05
8.34893e-05 -3.11371e-05 -6.73015e-05
8.14522e-05 1.30498e-06 2.82066e-06
3.00072e-05 3.29555e-05 7.12318e-05
-3.96397e-05 4.46157e-05 9.64347e-05
-8.52417e-05 2.92126e-05 6.31416e-05
-7.91372e-05 -3.9105e-06 -8.45237e-06
-2.50292e-05 -3.46615e-05 -7.49192e-05
4.59157e-05 6.81311e-05 -0.000127152
0.000109895 4.74674e-05 -8.85876e-05
0.000107214 -1.9894e-06 3.71278e-06
3.94979e-05 -5.02394e-05 9.3761e-05
-5.21769e-05 -6.80149e-05 0.000126935
-0.000112202 -4.45334e-05 8.31121e-05
-0.000104167 5.96141e-06 -1.11257e-05
-3.29455e-05 5.28401e-05 -9.86147e-05
2.90967e-05 0.000139627 -8.05758e-05
6.96404e-05 9.72788e-05 -5.61377e-05
6.79412e-05 -4.07703e-06 2.35278e-06
2.50297e-05 -0.00010296 5.94161e-05
-3.30644e-05 -0.000139389 8.04384e-05
-7.11021e-05 -9.1266e-05 5.26679e-05
-6.60102e-05 1.22172e-05 -7.05032e-06
-2.08775e-05 0.00010829 -6.24919e-05
