# vtk DataFile Version 3.0
Velocity field
ASCII
DATASET STRUCTURED_POINTS
DIMENSIONS 10 10 10
SPACING 0.631579 0.631579 0.631579
ORIGIN 0 0 0
POINT_DATA 1000
VECTORS velocity float
0 0.607807 0
0 0.490559 0
0 0.184049 0
0 -0.193468 0
0 -0.496344 0
0 -0.607727 0
0 -0.484644 0
0 -0.174582 0
0 0.202835 0
0 0.501997 0
0 0.373311 0.47611
0 0.301298 0.399333
0 0.113042 0.149823
0 -0.118827 -0.15749
0 -0.304851 -0.404043
0 -0.373261 -0.494712
0 -0.297665 -0.394519
0 -0.107227 -0.142116
0 0.12458 0.165115
0 0.308323 0.393226
0 -0.00521189 0.768533
0 -0.0042065 0.644601
0 -0.00157821 0.241844
0 0.00165897 -0.254219
0 0.0042561 -0.652203
0 0.0052112 -0.798561
0 0.00415578 -0.636829
0 0.00149703 -0.229403
0 -0.00173929 0.266528
0 -0.00430457 0.634742
0 -0.381724 0.76445
0 -0.308088 0.641177
0 -0.115589 0.240559
0 0.121504 -0.252869
0 0.311721 -0.648738
0 0.381673 -0.794319
0 0.304373 -0.633446
0 0.109644 -0.228185
0 -0.127387 0.265112
0 -0.315271 0.63137
0 -0.610964 0.465437
0 -0.493107 0.390382
0 -0.185005 0.146465
0 0.194473 -0.15396
0 0.498921 -0.394985
0 0.610883 -0.483623
0 0.487161 -0.385675
0 0.175489 -0.138931
0 -0.203888 0.161414
0 -0.504604 0.384411
0 -0.604489 -0.0131452
0 -0.487881 -0.0110254
0 -0.183045 -0.00413655
0 0.192412 0.00434823
0 0.493634 0.0111554
0 0.604409 0.0136588
0 0.481998 0.0108925
0 0.173629 0.00392378
0 -0.201728 -0.00455876
0 -0.499256 -0.0108568
0 -0.364799 -0.486656
0 -0.294428 -0.408179
0 -0.110464 -0.153142
0 0.116117 0.160979
0 0.2979 0.412992
0 0.36475 0.50567
0 0.290878 0.403257
0 0.104782 0.145264
0 -0.121739 -0.168773
0 -0.301292 -0.401936
0 0.0156344 -0.772411
0 0.0126185 -0.647854
0 0.00473425 -0.243064
0 -0.00497651 0.255502
0 -0.0127673 0.655494
0 -0.0156324 0.802591
0 -0.0124663 0.640043
0 -0.00449072 0.230561
0 0.00521746 -0.267873
0 0.0129127 -0.637945
0 0.390035 -0.760165
0 0.314796 -0.637582
0 0.118106 -0.23921
0 -0.12415 0.251451
0 -0.318508 0.6451
0 -0.389983 0.789866
0 -0.311 0.629894
0 -0.112031 0.226905
0 0.130161 -0.263626
0 0.322136 -0.627831
0 0.613958 -0.454641
0 0.495523 -0.366939
0 0.185912 -0.137669
0 -0.195426 0.144714
0 -0.501366 0.371266
0 -0.613876 0.45458
0 -0.489548 0.362514
0 -0.176349 0.130588
0 0.204887 -0.151721
0 0.507076 -0.375494
0 0.490559 0
0 0.416525 0
0 0.156273 0
0 -0.16427 0
0 -0.421436 0
0 -0.516009 0
0 -0.411502 0
0 -0.148234 0
0 0.172223 0
0 0.405159 0
0.0692257 0.301298 0.52692
0.190602 0.255636 0.447416
0.234885 0.0960636 0.168143
0.188446 -0.100989 -0.176765
0.0693011 -0.259089 -0.453494
-0.0765809 -0.31723 -0.555259
-0.192917 -0.252981 -0.442803
-0.234823 -0.0911383 -0.159523
-0.186041 0.105526 0.184677
-0.062282 0.248846 0.43519
0.111744 -0.0042065 0.85055
0.307668 -0.00355446 0.722215
0.37915 -0.00133555 0.271415
0.304189 0.00140403 -0.285334
0.111866 0.00360207 -0.732024
-0.123616 0.00441036 -0.896297
-0.311405 0.00351715 -0.714769
-0.379049 0.00126707 -0.257502
-0.300306 -0.00146742 0.298105
-0.100535 -0.0034742 0.702481
0.11115 -0.308088 0.846032
0.306034 -0.261125 0.718378
0.377136 -0.0981264 0.269973
0.302573 0.103158 -0.283817
0.111271 0.264654 -0.728135
-0.12296 0.324042 -0.891535
-0.309751 0.258415 -0.710972
-0.377036 0.0930958 -0.256135
-0.298711 -0.10779 0.296521
-0.100001 -0.254454 0.698749
0.0676739 -0.493107 0.515108
0.18633 -0.417942 0.437386
0.22962 -0.157055 0.164374
0.184222 0.165109 -0.172803
0.0677475 0.423587 -0.443327
-0.0748644 0.518644 -0.542812
-0.188593 0.413604 -0.432877
-0.229559 0.149004 -0.155948
-0.18187 -0.172523 0.180537
-0.0608859 -0.407263 0.425435
-0.00191129 -0.487881 -0.014548
-0.00526244 -0.413513 -0.012353
-0.00648508 -0.155391 -0.00464237
-0.0052029 0.163359 0.00488041
-0.00191339 0.419099 0.0125207
0.00211434 0.513147 0.0153305
0.00532636 0.409221 0.0122257
0.00648336 0.147425 0.00440437
0.00513652 -0.170695 -0.00509884
0.00171958 -0.402948 -0.0120154
-0.0707591 -0.294428 -0.538591
-0.194824 -0.249547 -0.457327
-0.240088 -0.0937761 -0.171868
-0.19262 0.0985842 0.180681
-0.0708362 0.252919 0.463538
0.0782768 0.309676 0.567558
0.19719 0.246958 0.452612
0.240024 0.0889679 0.163057
0.190162 -0.103012 -0.188768
0.0636616 -0.243172 -0.44483
-0.112308 0.0126185 -0.854842
-0.309216 0.0106836 -0.725846
-0.381056 0.00401444 -0.27278
-0.305719 -0.00422026 0.286768
-0.112428 -0.0108271 0.735706
0.124238 -0.0132568 0.900805
0.312971 -0.0105719 0.718364
0.380955 -0.00380859 0.258797
0.301816 0.00441037 -0.299605
0.101043 0.0104218 -0.706026
-0.110527 0.314796 -0.841289
-0.30406 0.266265 -0.713778
-0.374698 0.100048 -0.268234
-0.300618 -0.105177 0.281987
-0.110552 -0.269833 0.723441
0.122165 -0.330385 0.885787
0.30775 -0.263473 0.70639
0.374599 -0.0949172 0.254483
0.296783 0.109924 -0.294634
0.0994405 0.259994 -0.694832
-0.0661041 0.495523 -0.503159
-0.172809 0.399935 -0.406098
-0.212843 0.150049 -0.152361
-0.17076 -0.157727 0.160158
-0.0627972 -0.404651 0.410887
0.0693935 -0.495457 0.503093
0.174812 -0.395113 0.401201
0.212786 -0.14233 0.144524
0.168666 0.165364 -0.167912
0.0594736 0.409259 -0.415566
0 0.184049 0
0 0.156273 0
0 0.058631 0
0 -0.0616313 0
0 -0.158116 0
0 -0.193598 0
0 -0.154389 0
0 -0.0556151 0
0 0.0646153 0
0 0.152009 0
0.111744 0.113042 0.37444
0.307668 0.0960636 0.317907
0.37915 0.0361019 0.119475
0.304189 -0.0379531 -0.125601
0.111866 -0.0973689 -0.322231
-0.123616 -0.119219 -0.394542
-0.311405 -0.0950738 -0.314636
-0.379049 -0.0342511 -0.113351
-0.300306 0.0396514 0.131218
-0.100535 0.0933627 0.309255
0.180376 -0.00157821 0.604418
0.496637 -0.00133555 0.513164
0.612022 -0.000501862 0.192855
0.49102 0.00052759 -0.202745
0.180573 0.00135354 -0.520144
-0.19954 0.0016573 -0.636867
-0.502668 0.00132164 -0.507883
-0.61186 0.00047613 -0.182969
-0.484751 -0.000551332 0.211811
-0.162283 -0.00130346 0.499198
0.179418 -0.115589 0.601208
0.493999 -0.0981264 0.510437
0.608771 -0.0368774 0.191831
0.488412 0.0387684 -0.201668
0.179613 0.0994606 -0.517381
-0.19848 0.121781 -0.633483
-0.499998 0.0971163 -0.505185
-0.608609 0.0349869 -0.181997
-0.482176 -0.0405025 0.210686
-0.161421 -0.0954668 0.496546
0.109239 -0.185005 0.366046
0.300772 -0.157055 0.310781
0.370651 -0.0590236 0.116796
0.297371 0.0620505 -0.122786
0.109358 0.159191 -0.315008
-0.120845 0.194914 -0.385698
-0.304426 0.155438 -0.307584
-0.370553 0.0559982 -0.11081
-0.293574 -0.0648261 0.128277
-0.0982815 -0.152798 0.302323
-0.00308519 -0.183045 -0.0103381
-0.00849456 -0.155391 -0.00877729
-0.0104681 -0.0583981 -0.00329865
-0.00839847 0.0613931 0.0034678
-0.00308856 0.157504 0.00889672
0.00341298 0.192849 0.0108932
0.00859774 0.153791 0.00868693
0.0104654 0.0554047 0.00312955
0.00829135 -0.0641391 -0.00362288
0.00277573 -0.151179 -0.0085384
-0.114219 -0.110464 -0.382734
-0.314483 -0.0937761 -0.324948
-0.387548 -0.0352423 -0.122121
-0.310926 0.0370497 0.128384
-0.114343 0.0950509 0.329369
0.126354 0.116381 0.403282
0.318303 0.0928105 0.321605
0.387446 0.0334358 0.115861
0.306958 -0.0387068 -0.134125
0.102762 -0.0912339 -0.316105
-0.181286 0.00473425 -0.607469
-0.499133 0.00401444 -0.515745
-0.615099 0.00150858 -0.193825
-0.493489 -0.00158593 0.203765
-0.18148 -0.00406871 0.52276
0.200543 -0.00498177 0.640069
0.505195 -0.00397281 0.510437
0.614936 -0.00143124 0.18389
0.487189 0.00165711 -0.212877
0.163102 0.00391008 -0.501717
-0.178412 0.118106 -0.597837
-0.490812 0.100048 -0.507164
-0.604837 0.0375954 -0.190593
-0.485254 -0.039523 0.200366
-0.178452 -0.101396 0.514041
0.197197 -0.124151 0.629393
0.496767 -0.0990067 0.501924
0.604677 -0.0356678 0.180822
0.479065 0.0413003 -0.209344
0.160516 0.0975454 -0.493762
-0.106705 0.185912 -0.357556
-0.278947 0.150049 -0.288582
-0.343569 0.0562958 -0.108271
-0.27564 -0.0591766 0.113812
-0.101367 -0.151818 0.291985
0.112014 -0.185887 0.357508
0.28218 -0.14824 0.285102
0.343478 -0.0534 0.102702
0.27226 0.0620417 -0.119322
0.0960018 0.153547 -0.29531
0 -0.193468 0
0 -0.16427 0
0 -0.0616313 0
0 0.0647852 0
0 0.166207 0
0 0.203505 0
0 0.162289 0
0 0.0584611 0
0 -0.0679218 0
0 -0.159788 0
0.11115 -0.118827 0.0774987
0.306034 -0.100989 0.0657973
0.377136 -0.0379531 0.0247275
0.302573 0.0398994 -0.0259956
0.111271 0.102362 -0.0666922
-0.12296 0.125333 -0.0816582
-0.309751 0.0999494 -0.06512
-0.377036 0.0360077 -0.0234601
-0.298711 -0.0416843 0.0271582
-0.100001 -0.0981404 0.0640072
0.179418 0.00165897 0.125098
0.493999 0.00140403 0.106209
0.608771 0.00052759 0.039915
0.488412 -0.000554647 -0.0419621
0.179613 -0.00142294 -0.107654
-0.19848 -0.00174228 -0.131812
-0.499998 -0.00138941 -0.105116
-0.608609 -0.00050054 -0.0378691
-0.482175 0.000579595 0.0438385
-0.161421 0.00137016 0.10332
0.178464 0.121504 0.124433
0.491374 0.103158 0.105645
0.605537 0.0387684 0.039703
0.485817 -0.0407566 -0.0417391
0.178659 -0.104561 -0.107082
-0.197426 -0.128026 -0.131112
-0.497343 -0.102097 -0.104558
-0.605376 -0.0367812 -0.037668
-0.479615 0.0425792 0.0436056
-0.160564 0.100352 0.102771
0.108658 0.194473 0.0757614
0.299174 0.165109 0.0643221
0.368682 0.0620505 0.0241733
0.295791 -0.0652326 -0.025413
0.108777 -0.167355 -0.0651971
-0.120203 -0.204911 -0.0798275
-0.302808 -0.16341 -0.0636602
-0.368584 -0.0588698 -0.0229342
-0.292014 0.0681495 0.0265493
-0.0977594 0.160617 0.0625724
-0.0030688 0.192412 -0.0021397
-0.00844943 0.163359 -0.00181662
-0.0104125 0.0613931 -0.000682718
-0.00835392 -0.0645413 0.000717728
-0.00307216 -0.165581 0.00184134
0.00339485 -0.202739 0.00225455
0.00855206 -0.161678 0.00179794
0.0104098 -0.058246 0.000647721
0.00824729 0.0674274 -0.000749825
0.00276099 0.158915 -0.00176721
-0.113612 0.116117 -0.0792153
-0.312813 0.0985842 -0.0672543
-0.385489 0.0370497 -0.0252753
-0.309275 -0.0389495 0.0265714
-0.113736 -0.0999253 0.068169
0.125683 -0.122349 0.083467
0.316612 -0.09757 0.0665626
0.385387 -0.0351504 0.0239797
0.305327 0.0406913 -0.0277597
0.102216 0.0959027 -0.065425
-0.180323 -0.00497651 -0.125729
-0.496482 -0.00422026 -0.106743
-0.611832 -0.00158593 -0.0401157
-0.490868 0.00166725 0.0421731
-0.180516 0.00427734 0.108195
0.199478 0.00523721 0.132475
0.502512 0.00417653 0.105645
0.611669 0.00150462 0.0380596
0.484601 -0.00174207 -0.0440589
0.162236 -0.00411017 -0.103841
-0.177464 -0.12415 -0.123736
-0.488204 -0.105177 -0.104968
-0.601624 -0.039523 -0.0394467
-0.482676 0.0415495 0.0414696
-0.177504 0.106596 0.106391
0.19615 0.130516 0.130265
0.494129 0.104083 0.103883
0.601464 0.0374966 0.0374247
0.47652 -0.0434174 -0.043328
0.159663 -0.102537 -0.102195
-0.106138 -0.195426 -0.074004
-0.277465 -0.157727 -0.0597284
-0.341744 -0.0591766 -0.0224091
-0.274176 0.0622048 0.0235558
-0.100828 0.159587 0.0604327
0.111419 0.1954 0.0739942
0.280681 0.155825 0.0590082
0.341653 0.0561326 0.0212564
0.270814 -0.0652166 -0.0246963
0.0954918 -0.161405 -0.061121
0 -0.496344 0
0 -0.421436 0
0 -0.158116 0
0 0.166207 0
0 0.426406 0
0 0.522094 0
0 0.416355 0
0 0.149982 0
0 -0.174254 0
0 -0.409937 0
0.0676739 -0.304851 -0.249342
0.18633 -0.259089 -0.211693
0.22962 -0.0973689 -0.0795576
0.184222 0.102362 0.0836377
0.0677475 0.262611 0.214573
-0.0748644 0.321542 0.262725
-0.188593 0.256421 0.209515
-0.229559 0.0923779 0.0754798
-0.18187 -0.106941 -0.0873777
-0.0608859 -0.25178 -0.205935
0.109239 0.0042561 -0.402487
0.300772 0.00360207 -0.341714
0.370651 0.00135354 -0.128421
0.297371 -0.00142293 0.135007
0.109358 -0.00365058 0.346362
-0.120845 -0.00446984 0.424087
-0.304425 -0.00356452 0.338198
-0.370553 -0.00128414 0.121839
-0.293574 0.00148695 -0.141045
-0.0982815 0.00351517 -0.332419
0.108658 0.311721 -0.400348
0.299174 0.264654 -0.339899
0.368682 0.0994606 -0.127739
0.295791 -0.104561 0.13429
0.108777 -0.268253 0.344522
-0.120203 -0.328451 0.421834
-0.302808 -0.26193 0.336402
-0.368584 -0.0943625 0.121191
-0.292014 0.109237 -0.140295
-0.0977594 0.257454 -0.330653
0.0661569 0.498921 -0.243753
0.182152 0.423587 -0.206948
0.224473 0.159191 -0.0777741
0.180092 -0.167355 0.0817627
0.0662293 -0.429349 0.209762
-0.0731859 -0.525699 0.256835
-0.184365 -0.419228 0.204819
-0.224414 -0.151031 0.0737878
-0.177794 0.174838 -0.0854192
-0.059521 0.412066 -0.201319
-0.00186845 0.493634 0.00688423
-0.00514448 0.419099 0.00584475
-0.00633968 0.157504 0.00219656
-0.00508628 -0.165581 -0.00230919
-0.00187048 -0.424799 -0.00592426
0.00206698 -0.520127 -0.00725369
0.00520694 -0.414787 -0.0057846
0.006338 -0.149431 -0.00208397
0.00502136 0.172986 0.00241246
0.00168103 0.407699 0.00568578
-0.0691729 0.2979 0.254865
-0.190456 0.252919 0.216382
-0.234706 0.0950509 0.0813199
-0.188303 -0.0999253 -0.0854902
-0.0692483 -0.256359 -0.219325
0.0765224 -0.313887 -0.268544
0.19277 -0.250316 -0.214156
0.234644 -0.0901787 -0.0771517
0.185899 0.104394 0.089313
0.0622345 0.246039 0.210497
-0.10979 -0.0127673 0.404518
-0.302284 -0.0108271 0.343433
-0.372515 -0.00406871 0.129067
-0.298866 0.00427734 -0.135685
-0.109908 0.0109735 -0.348104
0.121453 0.0134361 -0.42622
0.305956 0.0107149 -0.339899
0.372416 0.00386013 -0.122451
0.29505 -0.00446929 0.141754
0.0987775 -0.0105447 0.334097
-0.108049 -0.318508 0.398104
-0.297244 -0.269833 0.33772
-0.366299 -0.101396 0.126915
-0.293878 0.106596 -0.133424
-0.108074 0.273471 -0.342299
0.119426 0.33484 -0.419112
0.300852 0.267026 -0.33423
0.366202 0.0961978 -0.120409
0.29013 -0.111388 0.139401
0.0972114 -0.26306 0.3288
-0.0646223 -0.501366 0.238099
-0.168935 -0.404651 0.192169
-0.208072 -0.151818 0.0720984
-0.166932 0.159587 -0.0757879
-0.0613895 0.409423 -0.194435
0.067838 0.5013 -0.238067
0.170893 0.399772 -0.189852
0.208016 0.144009 -0.0683898
0.164885 -0.167314 0.0794573
0.0581404 -0.414085 0.196649
0 -0.607727 0
0 -0.51601 0
0 -0.193598 0
0 0.203505 0
0 0.522094 0
0 0.639256 0
0 0.509788 0
0 0.18364 0
0 -0.213358 0
0 -0.50193 0
-0.00191129 -0.373261 -0.479985
-0.00526244 -0.31723 -0.407511
-0.00648508 -0.119219 -0.153149
-0.0052029 0.125333 0.161002
-0.00191339 0.321542 0.413054
0.00211434 0.393698 0.505745
0.00532636 0.313963 0.403317
0.00648336 0.113108 0.145299
0.00513652 -0.13094 -0.168203
0.00171958 -0.308281 -0.396426
-0.00308519 0.0052112 -0.774788
-0.00849456 0.00441036 -0.6578
-0.0104681 0.0016573 -0.247212
-0.00839847 -0.00174228 0.25989
-0.00308856 -0.00446984 0.666749
0.00341298 -0.00547287 0.816372
0.00859774 -0.00436444 0.651031
0.0104654 -0.0015723 0.23454
0.00829135 0.00182065 -0.271511
0.00277573 0.004304 -0.639909
-0.0030688 0.381673 -0.770673
-0.00844943 0.324042 -0.654306
-0.0104125 0.121781 -0.245899
-0.00835392 -0.128026 0.258509
-0.00307216 -0.328451 0.663206
0.00339485 -0.402157 0.812034
0.00855206 -0.320707 0.647572
0.0104098 -0.115538 0.233294
0.00824729 0.133751 -0.270069
0.00276099 0.315229 -0.636509
-0.00186845 0.610883 -0.469226
-0.00514448 0.518644 -0.398375
-0.00633968 0.194914 -0.149716
-0.00508628 -0.204911 0.157393
-0.00187048 -0.525699 0.403795
0.00206698 -0.643666 0.494409
0.00520694 -0.513307 0.394276
0.006338 -0.184923 0.142041
0.00502137 0.214073 -0.164432
0.00168103 0.504536 -0.38754
5.27699e-05 0.604409 0.0132522
0.000145292 0.513147 0.0112512
0.000179052 0.192849 0.00422834
0.000143651 -0.202739 -0.00444523
5.28277e-05 -0.520127 -0.0114042
-5.83756e-05 -0.636846 -0.0139634
-0.000147061 -0.507867 -0.0111355
-0.000179005 -0.182964 -0.00401164
-0.000141817 0.211805 0.004644
-4.74768e-05 0.49919 0.0109452
0.00195363 0.36475 0.490617
0.00537899 0.309676 0.416538
0.00662874 0.116381 0.156541
0.00531817 -0.122349 -0.164569
0.00195576 -0.313887 -0.422202
-0.00216119 -0.384326 -0.516948
-0.00544436 -0.30649 -0.412252
-0.00662698 -0.110415 -0.148517
-0.00525028 0.127821 0.171929
-0.00175767 0.301252 0.405208
0.00310076 -0.0156324 0.778698
0.0085373 -0.0132568 0.661109
0.0105208 -0.00498177 0.248455
0.00844067 0.00523721 -0.261196
0.00310408 0.0134361 -0.670102
-0.00343014 0.0164513 -0.820478
-0.00864097 0.0131194 -0.654306
-0.010518 0.00472636 -0.235719
-0.00833301 -0.00547223 0.272877
-0.00278974 -0.012911 0.643138
0.0030516 -0.389983 0.766352
0.00839497 -0.330385 0.650109
0.0103452 -0.124151 0.244312
0.00829996 0.130516 -0.25684
0.00305231 0.33484 -0.658925
-0.00337291 0.409981 -0.806792
-0.00849677 0.326949 -0.643391
-0.0103425 0.117785 -0.231788
-0.00819406 -0.136384 0.268349
-0.00274551 -0.322093 0.632941
0.00182511 -0.613876 0.458341
0.00477118 -0.495457 0.369926
0.0058765 -0.185887 0.13879
0.00471462 0.1954 -0.145892
0.0017338 0.5013 -0.374288
-0.00191592 0.613795 -0.45828
-0.00482647 0.489483 -0.365465
-0.00587494 0.176325 -0.131651
-0.0046568 -0.20486 0.152956
-0.00164204 -0.507009 0.37855
0 -0.484644 0
0 -0.411502 0
0 -0.154389 0
0 0.162289 0
0 0.416355 0
0 0.509788 0
0 0.406541 0
0 0.146447 0
0 -0.170147 0
0 -0.400274 0
-0.0707591 -0.297665 -0.525446
-0.194824 -0.252981 -0.446108
-0.240088 -0.0950738 -0.167654
-0.19262 0.0999494 0.176252
-0.0708363 0.256421 0.452177
0.0782768 0.313963 0.553645
0.19719 0.250376 0.441517
0.240024 0.0902003 0.15906
0.190162 -0.10442 -0.184134
0.0636616 -0.245845 -0.433973
-0.114219 0.00415578 -0.848171
-0.314483 0.00351715 -0.720102
-0.387548 0.00132164 -0.270625
-0.310926 -0.00138941 0.284505
-0.114343 -0.00356452 0.729898
0.126354 -0.00436444 0.893693
0.318303 -0.00348052 0.712692
0.387446 -0.00125388 0.256754
0.306958 0.0014519 -0.297228
0.102762 0.00343231 -0.700517
-0.113612 0.304373 -0.843666
-0.312813 0.258415 -0.716276
-0.385489 0.0971163 -0.269188
-0.309275 -0.102097 0.282993
-0.113736 -0.26193 0.72602
0.125683 -0.320707 0.888945
0.316612 -0.255755 0.708907
0.385387 -0.0921383 0.25539
0.305327 0.106662 -0.295649
0.102216 0.251386 -0.696795
-0.0691729 0.487161 -0.513668
-0.190456 0.413604 -0.436107
-0.234706 0.155438 -0.163896
-0.188303 -0.16341 0.172301
-0.0692483 -0.419228 0.442039
0.0765224 -0.513307 0.541234
0.19277 -0.409348 0.43162
0.234644 -0.147471 0.155495
0.185899 0.170718 -0.180006
0.0622345 0.402353 -0.424245
0.00195363 0.481998 0.0145073
0.00537899 0.409221 0.0123169
0.00662874 0.153791 0.00462885
0.00531817 -0.161678 -0.00486623
0.00195576 -0.414787 -0.0124843
-0.00216119 -0.507867 -0.015286
-0.00544436 -0.405009 -0.0121901
-0.00662698 -0.145908 -0.00439159
-0.00525028 0.168909 0.00508385
-0.00175767 0.398089 0.0119818
0.0723265 0.290878 0.537085
0.199139 0.246958 0.45599
0.245406 0.0928105 0.171368
0.196887 -0.09757 -0.180156
0.0724053 -0.250316 -0.462191
-0.0800107 -0.30649 -0.565909
-0.201558 -0.244417 -0.451298
-0.245341 -0.0880531 -0.162584
-0.194374 0.101933 0.188212
-0.0650718 0.24024 0.443586
0.114795 -0.0124663 0.852452
0.316065 -0.0105719 0.723723
0.389497 -0.00397281 0.271986
0.312489 0.00417653 -0.285936
0.114918 0.0107149 -0.733568
-0.126989 0.0131194 -0.898187
-0.319903 0.0104623 -0.716276
-0.389394 0.00376913 -0.258045
-0.308501 -0.00436393 0.298723
-0.103281 -0.0102961 0.704052
0.112975 -0.311 0.838936
0.310795 -0.263473 0.711683
0.382998 -0.0990067 0.267452
0.307277 0.104083 -0.281166
0.113001 0.267026 -0.721333
-0.124871 0.326949 -0.883206
-0.314565 0.260732 -0.70433
-0.382897 0.0939302 -0.253741
-0.303358 -0.108762 0.293764
-0.101643 -0.256859 0.692889
0.0675684 -0.489548 0.501752
0.176637 -0.395113 0.404963
0.217557 -0.14824 0.151935
0.174543 0.155825 -0.15971
0.0641882 0.399772 -0.409738
-0.0709306 0.489483 -0.501686
-0.178684 0.390348 -0.40008
-0.2175 0.140614 -0.14412
-0.172402 -0.16337 0.167443
-0.0607909 -0.404325 0.414404
0 -0.174582 0
0 -0.148234 0
0 -0.0556151 0
0 0.0584611 0
0 0.149982 0
0 0.18364 0
0 0.146447 0
0 0.0527543 0
0 -0.0612915 0
0 -0.14419 0
-0.112308 -0.107227 -0.368186
-0.309216 -0.0911384 -0.312598
-0.381056 -0.0342512 -0.11748
-0.305719 0.0360077 0.123505
-0.112428 0.0923781 0.316851
0.124238 0.113108 0.387955
0.312971 0.0902004 0.309383
0.380956 0.0324955 0.111458
0.301816 -0.0376181 -0.129027
0.101043 -0.0885603 -0.30409
-0.181286 0.00149703 -0.594323
-0.499133 0.00126707 -0.504593
-0.615099 0.000476131 -0.189635
-0.493489 -0.00050054 0.19936
-0.18148 -0.00128414 0.511458
0.200543 -0.00157231 0.626232
0.505195 -0.00125388 0.499403
0.614936 -0.000451721 0.179914
0.487189 0.000523057 -0.208274
0.163102 0.00123641 -0.49086
-0.180323 0.109644 -0.591166
-0.496482 0.0930959 -0.501913
-0.611832 0.034987 -0.188627
-0.490868 -0.0367813 0.198301
-0.180516 -0.0943626 0.508742
0.199478 -0.115538 0.622906
0.502512 -0.0921384 0.49675
0.611669 -0.0331938 0.178959
0.484601 0.0384258 -0.207168
0.162236 0.0905561 -0.488252
-0.10979 0.175489 -0.359933
-0.302284 0.149004 -0.305592
-0.372515 0.0559982 -0.114846
-0.298866 -0.0588699 0.120736
-0.109908 -0.151032 0.309749
0.121453 -0.184924 0.379258
0.305956 -0.147471 0.302448
0.372416 -0.0531278 0.108959
0.29505 0.061502 -0.126135
0.0987775 0.144939 -0.297273
0.00310076 0.173629 0.0101655
0.0085373 0.147425 0.00863071
0.0105208 0.0554048 0.00324356
0.00844067 -0.058246 -0.00340989
0.00310408 -0.149431 -0.00874809
-0.00343014 -0.182964 -0.0107112
-0.00864097 -0.145908 -0.00854187
-0.010518 -0.0525648 -0.00307731
-0.00833301 0.0608502 0.00356239
-0.00278974 0.143403 0.00839579
0.114795 0.104782 0.376342
0.316065 0.0889681 0.319522
0.389497 0.0334359 0.120082
0.312489 -0.0351504 -0.12624
0.114918 -0.0901788 -0.323869
-0.126989 -0.110416 -0.396548
-0.319903 -0.0880532 -0.316235
-0.389394 -0.031722 -0.113927
-0.308501 0.036722 0.131885
-0.103281 0.086541 0.310826
0.182201 -0.00449072 0.597322
0.501643 -0.0038086 0.507132
0.618191 -0.00143124 0.190588
0.49597 0.00150463 -0.200362
0.182393 0.00386013 -0.514031
-0.201552 0.00472637 -0.629381
-0.507736 0.00376913 -0.501914
-0.618027 0.00135786 -0.180819
-0.489639 -0.00157213 0.209322
-0.163925 -0.00370895 0.493337
0.179312 -0.112031 0.587852
0.49328 -0.0949174 0.498695
0.607879 -0.0356679 0.18741
0.487695 0.0374967 -0.19702
0.17935 0.0961979 -0.505457
-0.198189 0.117785 -0.618886
-0.499264 0.0939303 -0.493544
-0.607717 0.0338391 -0.177803
-0.481474 -0.0391819 0.205848
-0.161326 -0.0925278 0.485515
0.107243 -0.176349 0.351584
0.280355 -0.14233 0.283762
0.345303 -0.0534 0.106463
0.277031 0.0561326 -0.111911
0.101878 0.144009 -0.287108
-0.11258 0.176325 -0.351537
-0.283604 0.140614 -0.28034
-0.345211 0.0506531 -0.100986
-0.273634 -0.0588503 0.117329
-0.0964862 -0.145649 0.290378
0 0.202835 0
0 0.172223 0
0 0.0646152 0
0 -0.0679218 0
0 -0.174254 0
0 -0.213358 0
0 -0.170147 0
0 -0.0612915 0
0 0.0712103 0
0 0.167524 0
-0.110527 0.12458 -0.0688773
-0.304061 0.105521 -0.058776
-0.374699 0.0396497 -0.0220944
-0.300618 -0.0416826 0.023228
-0.110552 -0.106937 0.0595914
0.122165 -0.130934 0.0729642
0.30775 -0.104416 0.0581867
0.374599 -0.0376165 0.0209627
0.296783 0.0435626 -0.0242537
0.0994405 0.102892 -0.0568867
-0.178412 -0.00173929 -0.111181
-0.490812 -0.00146735 -0.0948755
-0.604837 -0.000551308 -0.0356647
-0.485254 0.000579569 0.0374945
-0.178452 0.00148688 0.0961921
0.197197 0.00182056 0.117778
0.496767 0.00145184 0.0939247
0.604677 0.000523032 0.0338377
0.479065 -0.000605841 -0.0391501
0.160516 -0.0014365 -0.0918261
-0.177464 -0.127387 -0.110591
-0.488204 -0.107786 -0.0943715
-0.601624 -0.0405008 -0.0354752
-0.482676 0.0425774 0.0372953
-0.177504 0.109232 0.0956811
0.19615 0.133745 0.117152
0.494129 0.106658 0.0934259
0.601464 0.0384241 0.033658
0.47652 -0.0444974 -0.0389422
0.159663 -0.105211 -0.0913383
-0.108049 -0.203888 -0.0673333
-0.297244 -0.172516 -0.0574583
-0.366299 -0.0648234 -0.0215992
-0.293878 0.0681466 0.0227072
-0.108074 0.174831 0.0582556
0.119426 0.214064 0.0713286
0.300852 0.17071 0.0568825
0.366202 0.0614993 0.0204927
0.29013 -0.0712197 -0.02371
0.0972114 -0.168394 -0.0556115
0.0030516 -0.201728 0.00190167
0.00839497 -0.170688 0.00162278
0.0103452 -0.0641364 0.000610017
0.00829996 0.0674246 -0.000641313
0.00305231 0.172979 -0.00164529
-0.00337291 0.211796 -0.00201451
-0.00849677 0.168901 -0.00160651
-0.0103425 0.0608475 -0.00057877
-0.00819407 -0.0704649 0.000669635
-0.00274551 -0.166609 0.00157062
0.112975 -0.121739 0.070403
0.310795 -0.103007 0.0600779
0.382998 -0.0387052 0.0225838
0.307277 0.0406896 -0.0237424
0.113001 0.104389 -0.0609114
-0.124871 0.127815 -0.0745805
-0.314565 0.101929 -0.0594756
-0.382897 0.0367204 -0.021427
-0.303358 -0.0425243 0.024791
-0.101643 -0.100546 0.0581468
0.179312 0.00521746 0.111742
0.49328 0.0044102 0.0953524
0.607879 0.00165705 0.035844
0.487695 -0.00174199 -0.0376828
0.17935 -0.0044691 -0.0966754
-0.198189 -0.005472 -0.11837
-0.499264 -0.00436375 -0.0943967
-0.607717 -0.00157206 -0.0340077
-0.481474 0.00182078 0.039347
-0.161326 0.00430917 0.0922895
0.176469 0.130161 0.109971
0.485065 0.109919 0.0937556
0.597747 0.0412986 0.0352418
0.479566 -0.0434157 -0.0370497
0.17636 -0.111383 -0.0950513
-0.194886 -0.136378 -0.116381
-0.490945 -0.108758 -0.0928108
-0.597589 -0.0391803 -0.0334364
-0.473456 0.0453826 0.0386897
-0.158768 0.107502 0.0908263
0.105543 0.204887 0.0657714
0.27591 0.165364 0.0530839
0.339828 0.0620417 0.0199162
0.272639 -0.0652166 -0.0209353
0.100263 -0.167314 -0.0537099
-0.110795 -0.20486 -0.0657627
-0.279107 -0.16337 -0.0524438
-0.339738 -0.0588503 -0.0188917
-0.269295 0.0683741 0.021949
-0.0949564 0.169219 0.0543215
0 0.501997 0
0 0.405159 0
0 0.152009 0
0 -0.159788 0
0 -0.409937 0
0 -0.50193 0
0 -0.400274 0
0 -0.14419 0
0 0.167524 0
0 0.414606 0
-0.0661041 0.308323 0.257005
-0.172809 0.248846 0.207428
-0.212843 0.0933628 0.0778235
-0.17076 -0.0981404 -0.0818059
-0.0627972 -0.25178 -0.209874
0.0693935 -0.308282 -0.256971
0.174812 -0.245845 -0.204927
0.212786 -0.0885603 -0.0738203
0.168666 0.102892 0.0857667
0.0594736 0.254648 0.212264
-0.106705 -0.00430457 0.414856
-0.278947 -0.0034742 0.334829
-0.343569 -0.00130346 0.125622
-0.27564 0.00137016 -0.132051
-0.101367 0.00351517 -0.338777
0.112014 0.004304 -0.414801
0.28218 0.00343231 -0.330791
0.343478 0.00123641 -0.11916
0.27226 -0.0014365 0.138444
0.0960018 -0.00355521 0.342635
-0.106138 -0.315271 0.412652
-0.277465 -0.254454 0.33305
-0.341744 -0.0954668 0.124955
-0.274176 0.100352 -0.131349
-0.100828 0.257454 -0.336977
0.111419 0.315229 -0.412597
0.280681 0.251386 -0.329034
0.341653 0.0905561 -0.118527
0.270814 -0.105211 0.137708
0.0954918 -0.260387 0.340815
-0.0646223 -0.504604 0.251244
-0.168935 -0.407263 0.202778
-0.208072 -0.152798 0.0760789
-0.166932 0.160618 -0.0799721
-0.0613895 0.412066 -0.205169
0.0678379 0.504536 -0.251211
0.170893 0.402353 -0.200333
0.208016 0.144939 -0.0721655
0.164885 -0.168394 0.0838441
0.0581404 -0.416759 0.207506
0.00182511 -0.499256 -0.0070958
0.00477118 -0.402948 -0.005727
0.0058765 -0.151179 -0.00214867
0.00471462 0.158915 0.00225863
0.0017338 0.407699 0.00579453
-0.00191592 0.49919 0.00709486
-0.00482647 0.398089 0.00565794
-0.00587493 0.143403 0.00203815
-0.0046568 -0.16661 -0.00236798
-0.00164204 -0.412343 -0.00586052
0.0675684 -0.301292 -0.262698
0.176637 -0.243172 -0.212023
0.217557 -0.0912339 -0.0795473
0.174543 0.0959027 0.083618
0.0641882 0.246039 0.214523
-0.0709306 0.301252 0.262663
-0.178684 0.24024 0.209466
-0.2175 0.086541 0.0754555
-0.172402 -0.100546 -0.0876664
-0.0607909 -0.248841 -0.216966
0.107243 0.0129127 -0.416949
0.280355 0.0104218 -0.336518
0.345303 0.00391008 -0.126256
0.277031 -0.00411017 0.132717
0.101878 -0.0105447 0.340487
-0.11258 -0.012911 0.416894
-0.283604 -0.0102961 0.332461
-0.345211 -0.00370895 0.119762
-0.273634 0.00430917 -0.139143
-0.0964862 0.0106648 -0.344364
0.105543 0.322136 -0.410339
0.27591 0.259994 -0.331183
0.339828 0.0975455 -0.124254
0.272639 -0.102537 0.130613
0.100263 -0.26306 0.335088
-0.110795 -0.322093 0.410284
-0.279107 -0.256859 0.327189
-0.339738 -0.0925278 0.117863
-0.269295 0.107502 -0.136936
-0.0949564 0.266056 -0.338904
0.0631233 0.507076 -0.245416
0.165017 0.409259 -0.198074
0.203245 0.153547 -0.0743142
0.16306 -0.161405 0.0781171
0.0599655 -0.414085 0.20041
-0.0662644 -0.507009 0.245384
-0.166929 -0.404325 0.195686
-0.203191 -0.145649 0.0704915
-0.161061 0.169219 -0.0818992
-0.0567917 0.418801 -0.202693
