# vtk DataFile Version 3.0
Velocity field
ASCII
DATASET STRUCTURED_POINTS
DIMENSIONS 8 8 8
SPACING 0.8 0.8 0.8
ORIGIN 0 0 0
POINT_DATA 512
VECTORS velocity float
0 0.129668 0
0 0.0903403 0
0 -0.00378623 0
0 -0.0956161 0
0 -0.129446 0
0 -0.0847564 0
0 0.0113458 0
0 0.100566 0
0 0.051013 0.132345
0 0.0355411 0.0977599
0 -0.00148956 -0.0040972
0 -0.0376166 -0.103469
0 -0.050926 -0.140078
0 -0.0333443 -0.0917174
0 0.00446359 0.0122776
0 0.0395639 0.102642
0 -0.0585854 0.184412
0 -0.0408169 0.13622
0 0.00171067 -0.00570909
0 0.0432005 -0.144175
0 0.0584855 -0.195186
0 0.038294 -0.1278
0 -0.00512618 0.0171078
0 -0.0454369 0.143023
0 -0.132647 0.124616
0 -0.0924159 0.0920509
0 0.00387322 -0.00385793
0 0.0978129 -0.0974265
0 0.132421 -0.131898
0 0.0867037 -0.0863613
0 -0.0116065 0.0115606
0 -0.102876 0.0966481
0 -0.126246 -0.0107695
0 -0.0879566 -0.00795512
0 0.00368633 0.000333406
0 0.0930932 0.00841969
0 0.126031 0.0113987
0 0.08252 0.00746342
0 -0.0110464 -0.000999082
0 -0.0979123 -0.00835243
0 -0.0432665 -0.139623
0 -0.0301441 -0.103136
0 0.00126336 0.0043225
0 0.0319045 0.109159
0 0.0431927 0.147781
0 0.0282809 0.0967608
0 -0.00378578 -0.0129528
0 -0.033556 -0.108287
0 0.0659581 -0.183783
0 0.0459535 -0.135755
0 -0.00192595 0.00568962
0 -0.0486371 0.143683
0 -0.0658457 0.194521
0 -0.0431131 0.127364
0 0.00577128 -0.0170495
0 0.0511549 -0.142536
0 0.135173 -0.116463
0 0.0941762 -0.0811402
0 -0.003947 0.00340065
0 -0.099676 0.0858787
0 -0.134943 0.116264
0 -0.0883553 0.076125
0 0.0118276 -0.0101904
0 0.104836 -0.0903243
0 0.0903403 0
0 0.0683349 0
0 -0.00286397 0
0 -0.0723256 0
0 -0.0979155 0
0 -0.0641112 0
0 0.00858216 0
0 0.0700648 0
0.0282117 0.0355411 0.130721
0.0682734 0.0250616 0.0921104
0.066609 -0.00105042 -0.00386066
0.0245389 -0.0265269 -0.0974954
-0.032416 -0.0359125 -0.131991
-0.0697076 -0.023514 -0.0864224
-0.064715 0.00314647 0.0115646
-0.0202425 0.0275644 0.101383
0.0393105 -0.0408169 0.182148
0.0951332 -0.0287509 0.128348
0.0928133 0.00120505 -0.00537951
0.0341927 0.0304316 -0.135851
-0.045169 0.0411987 -0.183918
-0.0971315 0.0269753 -0.120422
-0.0901748 -0.00360975 0.0161143
-0.0282061 -0.0316561 0.141268
0.0265641 -0.0924159 0.123087
0.0642865 -0.0650966 0.0867313
0.0627188 0.00272843 -0.00363521
0.0231057 0.0689022 -0.091802
-0.0305228 0.0932807 -0.124283
-0.0656371 0.0610765 -0.0813754
-0.0609354 -0.00817307 0.0108893
-0.0190603 -0.0716745 0.0954621
-0.0022957 -0.0879566 -0.0106373
-0.00555571 -0.0619556 -0.0074954
-0.00542025 0.00259677 0.000314159
-0.00199683 0.0655776 0.00793361
0.00263782 0.08878 0.0107406
0.00567242 0.0581297 0.00703254
0.00526611 -0.0077787 -0.00094106
0.00164721 -0.0682161 -0.00824993
-0.029763 -0.0301441 -0.137909
-0.072028 -0.0212332 -0.0971755
-0.0702714 0.000889955 0.00407297
-0.0258883 0.0224745 0.102857
0.0341984 0.0304262 0.139248
0.0735411 0.0199219 0.0911747
0.0682733 -0.00266589 -0.0122005
0.0213556 -0.0233787 -0.106958
-0.0391765 0.0459535 -0.181527
-0.0948062 0.0323664 -0.127907
-0.0924944 -0.00135659 0.00536102
-0.0340752 -0.0342586 0.135384
0.0450138 -0.0463797 0.183286
0.0967977 -0.0303676 0.120008
0.089865 0.00406371 -0.016059
0.0281099 0.0356399 -0.140786
-0.024826 0.0941762 -0.115033
-0.0594189 0.0656132 -0.0801444
-0.0579691 -0.0027499 0.00335892
-0.021356 -0.069445 0.0848248
0.0282114 -0.0940156 0.114837
0.0606661 -0.0615577 0.0751907
0.0563216 0.00824034 -0.0100653
0.0178132 0.0730399 -0.0892159
0 -0.00378623 0
0 -0.00286397 0
0 0.000120031 0
0 0.00303123 0
0 0.00410372 0
0 0.00268695 0
0 -0.000359685 0
0 -0.00293647 0
0.0393105 -0.00148956 0.0498032
0.0951332 -0.00105042 0.035083
0.0928133 4.40271e-05 -0.00147045
0.0341927 0.00111184 -0.0371341
-0.045169 0.00150522 -0.0502726
-0.0971315 0.000985559 -0.0329165
-0.0901748 -0.00013188 0.00440476
-0.0282061 -0.00115525 0.0386257
0.0547758 0.00171067 0.0693965
0.13256 0.00120505 0.048885
0.129328 -5.05077e-05 -0.00204895
0.0476447 -0.00127549 -0.051743
-0.0629388 -0.00172678 -0.0700503
-0.135344 -0.00113063 -0.0458664
-0.12565 0.000151297 0.00613764
-0.0393028 0.00132674 0.0538215
0.0370148 0.00387322 0.0468948
0.0895777 0.00272843 0.0330341
0.0873936 -0.000114358 -0.00138458
0.032196 -0.00288793 -0.0349653
-0.0425311 -0.00390971 -0.0473365
-0.0914596 -0.00255992 -0.0309941
-0.0849085 0.000342561 0.00414753
-0.0265589 0.00300394 0.03637
-0.00319886 0.00368633 -0.00405269
-0.00774137 0.00259677 -0.00285485
-0.00755259 -0.00010884 0.000119656
-0.00278241 -0.00274859 0.00302173
0.00367558 -0.00372109 0.00409089
0.007904 -0.00243641 0.00267855
0.0073379 0.000326031 -0.000358434
0.00229525 0.00285899 -0.00314313
-0.0414722 0.00126336 -0.0525418
-0.100365 0.000889955 -0.0370122
-0.0979172 -3.73011e-05 0.0015513
-0.0360731 -0.000941983 0.0391758
0.0476526 -0.00127527 0.0530372
0.102473 -0.000834993 0.0347264
0.0951331 0.000111736 -0.00464698
0.0297571 0.00097982 -0.0407496
-0.054589 -0.00192595 -0.0691598
-0.132105 -0.00135659 -0.0487171
-0.128884 5.68592e-05 0.00204191
-0.0474809 0.0014359 0.0515653
0.0627225 0.00194393 0.0698096
0.134879 0.00127281 0.0457086
0.125219 -0.000170323 -0.00611656
0.0391687 -0.0014937 -0.053638
-0.0345929 -0.003947 -0.0438264
-0.0827951 -0.0027499 -0.0305341
-0.0807749 0.000115251 0.00127971
-0.0297577 0.0029105 0.0323173
0.0393101 0.00394027 0.0437516
0.084533 0.00257993 0.0286468
0.0784793 -0.000345359 -0.00383477
0.0248211 -0.00306116 -0.0339902
0 -0.0956161 0
0 -0.0723256 0
0 0.00303123 0
0 0.0765494 0
0 0.103634 0
0 0.0678552 0
0 -0.00908335 0
0 -0.0741565 0
0.0265641 -0.0376166 -0.0613245
0.0642865 -0.0265269 -0.0431989
0.0627188 0.00111184 0.00181062
0.0231057 0.0280777 0.0457244
-0.0305228 0.0380121 0.0619021
-0.0656371 0.0248888 0.0405311
-0.0609354 -0.00333042 -0.00542373
-0.0190603 -0.0291742 -0.0475612
0.0370148 0.0432005 -0.0854504
0.0895777 0.0304316 -0.0601939
0.0873936 -0.00127549 0.00252293
0.032196 -0.0322107 0.0637128
-0.0425311 -0.0436075 0.0862555
-0.0914596 -0.0285524 0.0564765
-0.0849085 0.00382076 -0.00755747
-0.0265589 0.0335048 -0.0662724
0.0250128 0.0978129 -0.0577432
0.0605319 0.0689022 -0.040676
0.0590563 -0.00288793 0.00170487
0.0217565 -0.0729306 0.0430541
-0.0287405 -0.0987342 0.0582874
-0.0618036 -0.0646473 0.0381642
-0.0573771 0.00865085 -0.00510698
-0.0179472 0.0758603 -0.0447837
-0.00216163 0.0930932 0.00499023
-0.00523124 0.0655776 0.00351526
-0.00510368 -0.00274859 -0.000147337
-0.00188022 -0.0694112 -0.00372078
0.00248377 -0.09397 -0.00503723
0.00534114 -0.0615278 -0.00329819
0.00495858 0.00823345 0.00044135
0.00155102 0.0721999 0.00387025
-0.0280249 0.0319045 0.0646967
-0.0678212 0.0224745 0.0455743
-0.0661678 -0.000941983 -0.00191017
-0.0243764 -0.0237883 -0.0482384
0.0322013 -0.032205 -0.0653062
0.0692461 -0.0210865 -0.0427599
0.0642864 0.00282173 0.00572198
0.0201084 0.024744 0.0501765
-0.0368886 -0.0486371 0.085159
-0.0892699 -0.0342586 0.059987
-0.0870934 0.0014359 -0.00251426
-0.0320854 0.0362614 -0.0634939
0.0423849 0.0490912 -0.0859592
0.0911451 0.0321429 -0.0562825
0.0846167 -0.00430127 0.00753153
0.0264683 -0.0377213 0.0660464
-0.0233762 -0.099676 0.053965
-0.0559489 -0.069445 0.0375978
-0.0545838 0.0029105 -0.00157575
-0.0201088 0.0735005 -0.0397935
0.0265638 0.0995061 -0.053873
0.0571233 0.0651526 -0.0352739
0.0530325 -0.00872157 0.00472189
0.0167729 -0.0773053 0.0418534
0 -0.129446 0
0 -0.0979155 0
0 0.00410372 0
0 0.103634 0
0 0.140301 0
0 0.0918634 0
0 -0.0122972 0
0 -0.100394 0
-0.0022957 -0.050926 -0.135254
-0.00555571 -0.0359125 -0.0952766
-0.00542025 0.00150522 0.00399337
-0.00199683 0.0380121 0.100847
0.00263782 0.0514615 0.136527
0.00567242 0.0336948 0.089393
0.00526611 -0.00450877 -0.0119622
0.00164721 -0.0394964 -0.104898
-0.00319886 0.0584855 -0.188464
-0.00774137 0.0411987 -0.13276
-0.00755259 -0.00172678 0.00556442
-0.00278241 -0.0436075 0.140521
0.00367558 -0.0590364 0.190239
0.007904 -0.0386547 0.124561
0.0073379 0.00517261 -0.0166684
0.00229525 0.0453594 -0.146166
-0.00216163 0.132421 -0.127355
-0.00523124 0.0932807 -0.0897126
-0.00510368 -0.00390971 0.00376018
-0.00188022 -0.0987342 0.0949572
0.00248377 -0.133668 0.128555
0.00534114 -0.0875207 0.0841723
0.00495858 0.0117116 -0.0112637
0.00155102 0.102701 -0.0987721
0.00018681 0.126031 0.0110061
0.000452091 0.08878 0.00775304
0.000441066 -0.00372109 -0.000324956
0.00016249 -0.09397 -0.00820632
-0.00021465 -0.127218 -0.0111098
-0.000461588 -0.0832972 -0.00727429
-0.000428525 0.0111466 0.000973414
-0.00013404 0.0977453 0.00853598
0.00242194 0.0431927 0.142691
0.00586119 0.0304262 0.100516
0.0057183 -0.00127527 -0.00421296
0.00210663 -0.032205 -0.106392
-0.00278287 -0.0435998 -0.144036
-0.00598432 -0.0285473 -0.0943084
-0.0055557 0.00382009 0.01262
-0.00173779 0.0334988 0.110666
0.00318795 -0.0658457 0.187821
0.00771477 -0.0463797 0.132304
0.00752667 0.00194393 -0.00554532
0.00277286 0.0490912 -0.140038
-0.00366296 0.0664604 -0.189586
-0.00787684 0.0435156 -0.124133
-0.00731268 -0.00582311 0.0166111
-0.00228742 -0.0510676 0.145668
0.00202019 -0.134943 0.119022
0.00483516 -0.0940156 0.0829234
0.00471718 0.00394027 -0.00347539
0.00173783 0.0995061 -0.087766
-0.00229567 0.134713 -0.118819
-0.00493665 0.0882046 -0.0777979
-0.00458312 -0.0118074 0.0104143
-0.00144953 -0.104657 0.0923093
0 -0.0847564 0
0 -0.0641112 0
0 0.00268695 0
0 0.0678552 0
0 0.0918634 0
0 0.0601485 0
0 -0.00805171 0
0 -0.0657341 0
-0.029763 -0.0333443 -0.12714
-0.072028 -0.023514 -0.0895609
-0.0702714 0.000985559 0.00375382
-0.0258883 0.0248888 0.0947966
0.0341984 0.0336948 0.128337
0.0735411 0.0220621 0.08403
0.0682733 -0.00295216 -0.0112446
0.0213556 -0.0258607 -0.0986052
-0.0414722 0.038294 -0.177158
-0.100365 0.0269753 -0.124795
-0.0979172 -0.00113063 0.0052306
-0.0360731 -0.0285524 0.132091
0.0476526 -0.0386547 0.178827
0.102473 -0.0253096 0.117089
0.0951331 0.00338682 -0.0156684
0.0297571 0.0296995 -0.137398
-0.0280249 0.0867037 -0.119715
-0.0678212 0.0610765 -0.0843307
-0.0661678 -0.00255992 0.00353459
-0.0243764 -0.0646473 0.0892608
0.0322013 -0.0875207 0.120842
0.0692461 -0.057305 0.0791228
0.0642864 0.00766832 -0.0105879
0.0201084 0.0672444 -0.0928467
0.00242194 0.08252 0.0103459
0.00586119 0.0581297 0.00728795
0.0057183 -0.00243641 -0.000305462
0.00210663 -0.0615278 -0.00771399
-0.00278287 -0.0832972 -0.0104433
-0.00598432 -0.0545397 -0.00683787
-0.0055557 0.00729834 0.000915022
-0.00173779 0.0639997 0.00802391
0.0313996 0.0282809 0.134131
0.0759886 0.0199219 0.0944856
0.074136 -0.000834993 -0.00396022
0.0273118 -0.0210865 -0.10001
-0.0360791 -0.0285473 -0.135394
-0.077585 -0.0186916 -0.0886513
-0.0720279 0.00250125 0.0118629
-0.0225299 0.0219337 0.104027
0.0413307 -0.0431131 0.176554
0.10002 -0.0303676 0.124367
0.0975807 0.00127281 -0.00521263
0.0359492 0.0321429 -0.131638
-0.0474888 0.0435156 -0.178213
-0.102121 0.0284923 -0.116687
-0.0948062 -0.00381274 0.0156146
-0.0296556 -0.033437 0.136929
0.0261912 -0.0883553 0.111882
0.0626863 -0.0615577 0.0779488
0.0611568 0.00257993 -0.0032669
0.0225303 0.0651526 -0.0825009
-0.0297627 0.0882046 -0.111691
-0.064002 0.0577528 -0.0731308
-0.0594186 -0.00773101 0.00978956
-0.0187927 -0.0685253 0.0867717
0 0.0113458 0
0 0.00858216 0
0 -0.000359685 0
0 -0.00908335 0
0 -0.0122972 0
0 -0.0080517 0
0 0.00107783 0
0 0.00879942 0
-0.0391765 0.00446359 -0.0419045
-0.0948062 0.00314644 -0.0295207
-0.0924944 -0.000131878 0.00123732
-0.0340752 -0.00333039 0.0312465
0.0450138 -0.00450873 0.042302
0.0967977 -0.00295213 0.0276977
0.089865 0.000395039 -0.0037064
0.0281099 0.00346181 -0.0324997
-0.054589 -0.00512618 -0.0583903
-0.132105 -0.00360972 -0.0411345
-0.128884 0.000151295 0.00172409
-0.0474809 0.00382073 0.0435395
0.0627225 0.00517256 0.0589444
0.134879 0.00338679 0.0385944
0.125219 -0.000453217 -0.00516453
0.0391687 -0.00397569 -0.0452855
-0.0368886 -0.0116065 -0.0394573
-0.0892699 -0.008173 -0.0277967
-0.0870934 0.000342558 0.00116506
-0.0320854 0.00865078 0.0294218
0.0423849 0.0117115 0.0398317
0.0911451 0.00766825 0.0260803
0.0846167 -0.00102616 -0.00348994
0.0264683 -0.00900158 -0.0306017
0.00318795 -0.0110464 0.00340994
0.00771477 -0.00777864 0.00240222
0.00752667 0.000326028 -0.000100686
0.00277286 0.00823338 -0.00254267
-0.00366296 0.0111465 -0.00344229
-0.00787684 0.00729827 -0.00225388
-0.00731268 -0.000976642 0.000301605
-0.00228742 -0.00856724 0.00264463
0.0413307 -0.00378578 0.0442088
0.10002 -0.00266586 0.0311441
0.0975807 0.000111735 -0.00130535
0.0359492 0.00282171 -0.0329648
-0.0474888 0.00382005 -0.0446282
-0.102121 0.00250122 -0.0292208
-0.0948062 -0.00033471 0.0039102
-0.0296556 -0.00293612 0.0342868
0.0544029 0.00577128 0.0581911
0.131651 0.00406367 0.0409932
0.128441 -0.000170322 -0.00171817
0.0473178 -0.00430123 -0.0433899
-0.062507 -0.00582306 -0.0587418
-0.134416 -0.00381271 -0.0384618
-0.124788 0.000510213 0.0051468
-0.0390351 0.00447601 0.0451311
0.0344749 0.0118276 0.0368756
0.0825128 0.00824034 0.0256915
0.0804995 -0.000345359 -0.00107675
0.0296563 -0.00872157 -0.0271918
-0.039176 -0.0118074 -0.0368127
-0.0842447 -0.00773101 -0.0241035
-0.0782116 0.0010349 0.00322658
-0.0247365 0.00917305 0.0285994
0 0.100566 0
0 0.0700648 0
0 -0.00293647 0
0 -0.0741565 0
0 -0.100394 0
0 -0.0657341 0
0 0.00879942 0
0 0.0779953 0
-0.024826 0.0395639 0.0687493
-0.0594189 0.0275644 0.0478981
-0.0579691 -0.00115525 -0.00200745
-0.021356 -0.0291742 -0.0506953
0.0282114 -0.0394964 -0.0686321
0.0606661 -0.0258607 -0.0449376
0.0563216 0.00346181 0.00601551
0.0178132 0.0306844 0.0533196
-0.0345929 -0.0454369 0.0957963
-0.0827951 -0.0316562 0.0667419
-0.0807749 0.00132674 -0.00279721
-0.0297577 0.0335048 -0.0706396
0.0393101 0.0453594 -0.0956329
0.0845329 0.0296995 -0.0626166
0.0784792 -0.00397569 0.00838209
0.0248211 -0.0352393 0.0742963
-0.0233762 -0.102876 0.0647344
-0.0559489 -0.0716745 0.0451009
-0.0545837 0.00300394 -0.00189022
-0.0201088 0.0758603 -0.0477348
0.0265638 0.102701 -0.064624
0.0571232 0.0672444 -0.0423132
0.0530324 -0.00900158 0.00566421
0.0167729 -0.0797873 0.0502058
0.00202019 -0.0979123 -0.00559441
0.00483516 -0.0682161 -0.00389767
0.00471718 0.00285899 0.000163354
0.00173782 0.0721999 0.00412529
-0.00229567 0.0977453 0.00558487
-0.00493665 0.0639997 0.00365675
-0.00458312 -0.00856724 -0.000489507
-0.00144953 -0.0759374 -0.00433884
0.0261912 -0.033556 -0.0725298
0.0626863 -0.0233787 -0.050532
0.0611567 0.00097982 0.00211784
0.0225303 0.024744 0.053483
-0.0297627 0.0334988 0.0724061
-0.064002 0.0219337 0.0474086
-0.0594186 -0.00293612 -0.0063463
-0.0187927 -0.0260249 -0.0562516
0.0344749 0.0511549 -0.0954695
0.0825127 0.0356399 -0.0665143
0.0804994 -0.0014937 0.00278767
0.0296562 -0.0377213 0.0703986
-0.039176 -0.0510676 0.0953067
-0.0842446 -0.033437 0.0624031
-0.0782116 0.00447601 -0.00835351
-0.0247365 0.039674 -0.0740429
0.0218467 0.104836 -0.0604988
0.0522881 0.0730399 -0.0421499
0.0510123 -0.00306116 0.00176654
0.0187931 -0.0773053 0.0446114
-0.0248257 -0.104657 0.0603956
-0.0533856 -0.0685253 0.0395446
-0.0495625 0.00917305 -0.00529359
-0.0156754 0.0813071 -0.0469208
