# vtk DataFile Version 3.0
Velocity field
ASCII
DATASET STRUCTURED_POINTS
DIMENSIONS 5 5 5
SPACING 1.33333 1.33333 1.33333
ORIGIN 0 0 0
POINT_DATA 125
VECTORS velocity float
0 0.423263 0
0 0.0995674 0
0 -0.376419 0
0 -0.276663 0
0 0.246256 0
0 -0.224128 0.735081
0 -0.0527234 0.199284
0 0.199323 -0.753404
0 0.1465 -0.553742
0 -0.130399 0.427673
0 -0.52871 0.345838
0 -0.124372 0.0937583
0 0.470196 -0.354458
0 0.345588 -0.260522
0 -0.307605 0.201209
0 -0.0246166 -0.572373
0 -0.00579076 -0.155173
0 0.0218922 0.58664
0 0.0160905 0.431173
0 -0.014322 -0.333009
0 0.517129 -0.615125
0 0.121648 -0.1447
0 -0.459896 0.547047
0 -0.338018 0.402073
0 0.300867 -0.357882
0 0.0995674 0
0 0.0298032 0
0 -0.112672 0
0 -0.0828128 0
0 0.0579286 0
0.314612 -0.0527234 0.258148
0.48501 -0.0129343 0.0637707
-0.101664 0.0489458 -0.241356
-0.532886 0.0359815 -0.177433
-0.14216 -0.0306747 0.150191
0.148017 -0.124372 0.121452
0.228186 -0.0306137 0.0300027
-0.0478309 0.115855 -0.113552
-0.25071 0.0851694 -0.0834781
-0.0668828 -0.0723603 0.0706613
-0.244974 -0.00579076 -0.201008
-0.377554 -0.00143233 -0.049642
0.0791401 0.00542147 0.18788
0.414822 0.00398567 0.138121
0.110693 -0.00336908 -0.116947
-0.263271 0.121648 -0.216021
-0.387134 0.0286162 -0.0508163
0.0811345 -0.108185 0.192113
0.425306 -0.0795145 0.141201
0.118961 0.0707753 -0.125682
0 -0.376419 0
0 -0.112673 0
0 0.425964 0
0 0.313078 0
0 -0.219002 0
0.148017 0.199323 -0.613629
0.228186 0.0489458 -0.151196
-0.0478309 -0.185224 0.572211
-0.25071 -0.136165 0.420659
-0.0668828 0.115967 -0.357012
0.0696384 0.470196 -0.288697
0.107356 0.115855 -0.0711342
-0.0225031 -0.438459 0.269212
-0.117953 -0.32233 0.197909
-0.0314667 0.273562 -0.167965
-0.115254 0.0218922 0.477804
-0.17763 0.00542147 0.117699
0.0372336 -0.0205214 -0.445436
0.195163 -0.0150867 -0.327459
0.0520785 0.012737 0.277988
-0.123863 -0.459896 0.513492
-0.182137 -0.108185 0.120793
0.0381718 0.408998 -0.456662
0.200096 0.300608 -0.335641
0.0559683 -0.267569 0.298752
0 -0.276663 0
0 -0.0828129 0
0 0.313078 0
0 0.230108 0
0 -0.160964 0
-0.244974 0.1465 -0.546845
-0.377554 0.0359816 -0.134763
0.0791401 -0.136166 0.51002
0.414822 -0.1001 0.374939
0.110693 0.0852342 -0.318157
-0.115254 0.345588 -0.257277
-0.17763 0.0851698 -0.0634026
0.0372336 -0.322332 0.239952
0.195163 -0.236961 0.1764
0.0520785 0.201064 -0.149685
0.19075 0.0160905 0.425803
0.293907 0.00398569 0.104906
-0.0616063 -0.0150868 -0.397023
-0.322917 -0.0110914 -0.291869
-0.0861918 0.00936151 0.247734
0.204997 -0.338018 0.457607
0.301443 -0.0795145 0.107646
-0.0631756 0.300608 -0.406962
-0.331166 0.220943 -0.299112
-0.0926296 -0.19666 0.266237
0 0.246256 0
0 0.0579286 0
0 -0.219002 0
0 -0.160964 0
0 0.143273 0
-0.263271 -0.130399 0.356352
-0.387134 -0.0306747 0.0838274
0.0811344 0.115967 -0.316914
0.425305 0.0852343 -0.232927
0.118961 -0.0758664 0.207327
-0.123863 -0.307605 0.167655
-0.182137 -0.0723603 0.0394387
0.0381717 0.273562 -0.1491
0.200096 0.201064 -0.109587
0.0559683 -0.178966 0.0975422
0.204997 -0.014322 -0.277475
0.301443 -0.00336908 -0.0652725
-0.0631756 0.012737 0.246766
-0.331165 0.00936151 0.18137
-0.0926296 -0.00833262 -0.161436
0.220309 0.300867 -0.2982
0.323958 0.0707753 -0.0701478
-0.0678943 -0.267569 0.265197
-0.355901 -0.19666 0.194916
-0.0995483 0.175046 -0.173494
