# vtk DataFile Version 3.0
Velocity field
ASCII
DATASET STRUCTURED_POINTS
DIMENSIONS 8 8 8
SPACING 0.8 0.8 0.8
ORIGIN 0 0 0
POINT_DATA 512
VECTORS velocity float
0 0.249003 0
0 0.173482 0
0 -0.00727077 0
0 -0.183613 0
0 -0.248578 0
0 -0.162759 0
0 0.0217875 0
0 0.193118 0
0 0.097961 0.254145
0 0.0682501 0.18773
0 -0.00286042 -0.00786792
0 -0.0722359 -0.198693
0 -0.097794 -0.268994
0 -0.0640316 -0.176127
0 0.00857151 0.023577
0 0.0759752 0.197106
0 -0.112503 0.354128
0 -0.0783813 0.261586
0 0.00328502 -0.0109633
0 0.0829587 -0.276862
0 0.112311 -0.37482
0 0.0735366 -0.245417
0 -0.00984388 0.0328524
0 -0.0872532 0.27465
0 -0.254724 0.239303
0 -0.177468 0.176767
0 0.00743782 -0.00740844
0 0.187832 -0.18709
0 0.254289 -0.253285
0 0.166499 -0.165841
0 -0.0222881 0.0222001
0 -0.197555 0.185595
0 -0.242433 -0.0206808
0 -0.168905 -0.0152764
0 0.00707893 0.000640244
0 0.178768 0.0161685
0 0.242019 0.0218891
0 0.158465 0.0143321
0 -0.0212127 -0.00191855
0 -0.188023 -0.0160393
0 -0.0830854 -0.26812
0 -0.0578862 -0.198053
0 0.00242606 0.00830056
0 0.0612667 0.209619
0 0.0829437 0.283786
0 0.0543083 0.185812
0 -0.0072699 -0.0248734
0 -0.0644382 -0.207944
0 0.12666 -0.352921
0 0.0882452 -0.260693
0 -0.00369843 0.0109259
0 -0.0933987 0.275918
0 -0.126445 0.373541
0 -0.0827908 0.24458
0 0.0110827 -0.0327404
0 0.0982336 -0.273713
0 0.259576 -0.223645
0 0.180848 -0.155815
0 -0.00757949 0.00653033
0 -0.19141 0.164914
0 -0.259133 0.223264
0 -0.16967 0.146184
0 0.0227127 -0.0195687
0 0.201318 -0.173451
0 0.173482 0
0 0.131225 0
0 -0.00549974 0
0 -0.138888 0
0 -0.188029 0
0 -0.123114 0
0 0.0164805 0
0 0.134547 0
0.0541754 0.0682501 0.251026
0.132439 0.0486398 0.178693
0.129216 -0.00203905 -0.00749104
0.047604 -0.0514921 -0.189171
-0.0628842 -0.0697108 -0.2561
-0.135228 -0.0456437 -0.167685
-0.125537 0.00610156 0.022417
-0.0388719 0.0529324 0.194687
0.0754887 -0.0783813 0.349782
0.184544 -0.0557571 0.248993
0.180052 0.00233737 -0.010438
0.0663314 0.0590254 -0.26359
-0.0876248 0.0799093 -0.356856
-0.188429 0.0523214 -0.233655
-0.174927 -0.00699497 0.0312361
-0.0541646 -0.0607898 0.271279
0.0510116 -0.177468 0.236366
0.124704 -0.126243 0.168258
0.121671 0.00529226 -0.00705354
0.0448236 0.133644 -0.178123
-0.0592125 0.18093 -0.241146
-0.12733 0.118466 -0.157892
-0.118207 -0.0158378 0.0211078
-0.0366018 -0.137638 0.183317
-0.00440847 -0.168905 -0.020427
-0.0107772 -0.120152 -0.014541
-0.0105149 0.00503687 0.000609572
-0.0038737 0.127195 0.0153936
0.00511717 0.1722 0.0208399
0.0110041 0.11275 0.0136452
0.0102155 -0.0150736 -0.00182416
0.00316317 -0.130997 -0.0158425
-0.0571544 -0.0578862 -0.264829
-0.139722 -0.0411783 -0.188519
-0.136322 0.00172622 0.00790291
-0.050221 0.0435923 0.199571
0.0663423 0.0590156 0.270183
0.142664 0.0386409 0.176906
0.132441 -0.00516599 -0.0236498
0.0410094 -0.0448945 -0.205392
-0.0752312 0.0882452 -0.34859
-0.183897 0.0627555 -0.24812
-0.179421 -0.00263076 0.0104015
-0.0660989 -0.0664343 0.262667
0.0873176 -0.0899393 0.355604
0.187768 -0.0588888 0.232836
0.174314 0.00787315 -0.0311269
0.0539799 0.06844 -0.270354
-0.0476738 0.180848 -0.2209
-0.114103 0.125998 -0.153903
-0.111319 -0.00528068 0.00645019
-0.0410103 -0.133356 0.16289
0.0541748 -0.18054 0.220524
0.116498 -0.11821 0.14439
0.108155 0.0158241 -0.0193286
0.0342069 0.14026 -0.171323
0 -0.00727077 0
0 -0.00549974 0
0 0.000230498 0
0 0.00582092 0
0 0.00788044 0
0 0.0051598 0
0 -0.00069071 0
0 -0.00563896 0
0.0754887 -0.00286042 0.0956379
0.184544 -0.00203905 0.0680484
0.180052 8.5481e-05 -0.00285266
0.0663314 0.00215864 -0.0720377
-0.0876248 0.0029224 -0.0975249
-0.188429 0.00191348 -0.0638557
-0.174927 -0.000255781 0.00853681
-0.0541646 -0.00221844 0.0741735
0.105187 0.00328502 0.133263
0.257144 0.00233737 0.0948196
0.250884 -9.79841e-05 -0.00397489
0.0924277 -0.00247439 -0.100378
-0.122098 -0.00334987 -0.135894
-0.262557 -0.00219337 -0.0889784
-0.243746 0.000293229 0.0118954
-0.0754737 0.00254775 0.103354
0.0710802 0.00743782 0.0900528
0.173767 0.00529226 0.064074
0.169537 -0.000221856 -0.00268607
0.0624573 -0.00560252 -0.0678307
-0.0825071 -0.00758481 -0.0918305
-0.177425 -0.00496617 -0.0601272
-0.164711 0.000663923 0.00803824
-0.0510015 0.00576851 0.0698418
-0.00614282 0.00707893 -0.00778245
-0.0150171 0.00503687 -0.00553739
-0.0146516 -0.000211151 0.000232132
-0.00539769 -0.0053322 0.00586202
0.00713037 -0.00721881 0.00793601
0.0153333 -0.00472656 0.00519622
0.0142345 0.000631885 -0.000694678
0.0044076 0.00549017 -0.0060358
-0.0796397 0.00242606 -0.100897
-0.19469 0.00172622 -0.07179
-0.189953 -7.23649e-05 0.00300952
-0.0699789 -0.00182743 0.0759982
0.092443 -0.00247398 0.102888
0.198789 -0.00161986 0.0673672
0.184546 0.000216558 -0.00900623
0.0571431 0.00188157 -0.0782522
-0.104828 -0.00369843 -0.132809
-0.256243 -0.00263076 -0.094487
-0.250005 0.000110283 0.00396097
-0.0921038 0.00278498 0.100026
0.121669 0.00377035 0.135417
0.261638 0.00246867 0.0886664
0.242891 -0.000330042 -0.0118537
0.0752164 -0.00286837 -0.103002
-0.0664293 -0.00757949 -0.0841605
-0.158993 -0.00528068 -0.0586352
-0.155113 0.000221318 0.00245745
-0.0571443 0.00558907 0.0620594
0.0754878 0.00756657 0.084017
0.16233 0.00495429 0.055011
0.150705 -0.0006632 -0.00736398
0.0476644 -0.0058784 -0.065272
0 -0.183613 0
0 -0.138888 0
0 0.00582092 0
0 0.146999 0
0 0.19901 0
0 0.130304 0
0 -0.0174429 0
0 -0.142404 0
0.0510116 -0.0722359 -0.117763
0.124704 -0.0514921 -0.0837898
0.121671 0.00215864 0.00351255
0.0448236 0.0545118 0.0887024
-0.0592125 0.073799 0.120086
-0.12733 0.0483204 0.0786271
-0.118207 -0.00645923 -0.0105116
-0.0366018 -0.0560237 -0.0913326
0.0710802 0.0829587 -0.164092
0.173767 0.0590254 -0.116754
0.169537 -0.00247439 0.00489439
0.0624573 -0.0624853 0.123599
-0.0825071 -0.0845946 0.167329
-0.177425 -0.0553891 0.10956
-0.164711 0.0074049 -0.014647
-0.0510015 0.0643399 -0.127264
0.0480325 0.187832 -0.110885
0.117423 0.133644 -0.0788961
0.114565 -0.00560252 0.00330739
0.0422061 -0.14148 0.0835218
-0.0557544 -0.191539 0.113073
-0.119895 -0.12541 0.0740357
-0.111304 0.016766 -0.0098977
-0.0344643 0.145676 -0.0859988
-0.00415102 0.178768 0.00958282
-0.0101478 0.127195 0.0068183
-0.00990073 -0.0053322 -0.000285829
-0.0036475 -0.134653 -0.00721806
0.0048183 -0.182296 -0.00977181
0.0103614 -0.11936 -0.00639821
0.00961889 0.015957 0.000855371
0.00297844 0.138647 0.0074321
-0.0538166 0.0612667 0.124238
-0.131562 0.0435923 0.0883974
-0.12836 -0.00182743 -0.00370569
-0.0472887 -0.0461479 -0.0935797
0.0624677 -0.062475 -0.126688
0.134332 -0.0409064 -0.082951
0.124705 0.00546875 0.0110896
0.0386145 0.0475163 0.0963548
-0.0708378 -0.0933987 0.163532
-0.173158 -0.0664343 0.116345
-0.168943 0.00278498 -0.00487724
-0.0622385 0.0703285 -0.123165
0.082218 0.0952125 -0.166743
0.176803 0.0623408 -0.109177
0.164133 -0.00833454 0.0145958
0.0508275 -0.0724368 0.12683
-0.0448897 -0.19141 0.10363
-0.10744 -0.133356 0.0721997
-0.104818 0.00558907 -0.00302595
-0.0386153 0.141144 -0.0764161
0.051011 0.191083 -0.103453
0.109695 0.125114 -0.067737
0.101839 -0.0167482 0.00906753
0.0322093 -0.148451 0.0803718
0 -0.248578 0
0 -0.188029 0
0 0.00788044 0
0 0.19901 0
0 0.269422 0
0 0.176407 0
0 -0.0236145 0
0 -0.192789 0
-0.00440847 -0.097794 -0.25973
-0.0107772 -0.0697108 -0.184801
-0.0105149 0.0029224 0.00774705
-0.0038737 0.073799 0.195634
0.00511717 0.0999098 0.264853
0.0110041 0.0654169 0.173416
0.0102155 -0.00874462 -0.0231838
0.00316317 -0.0758457 -0.201438
-0.00614282 0.112311 -0.361911
-0.0150171 0.0799093 -0.257503
-0.0146516 -0.00334987 0.0107949
-0.00539769 -0.0845946 0.272601
0.00713037 -0.114525 0.369052
0.0153333 -0.0749867 0.241641
0.0142345 0.0100248 -0.0323044
0.0044076 0.0871044 -0.280686
-0.00415102 0.254289 -0.244562
-0.0101478 0.18093 -0.174009
-0.00990073 -0.00758481 0.00729466
-0.0036475 -0.191539 0.184211
0.0048183 -0.259305 0.249384
0.0103614 -0.169784 0.163288
0.00961889 0.0226981 -0.0218299
0.00297844 0.197218 -0.189674
0.000358735 0.242019 0.0211353
0.000876985 0.1722 0.015038
0.000855636 -0.00721881 -0.000630404
0.000315217 -0.182296 -0.0159195
-0.000416405 -0.246796 -0.0215523
-0.000895448 -0.16159 -0.0141116
-0.000831278 0.0216029 0.00188656
-0.0002574 0.187702 0.0163918
0.00465089 0.0829437 0.274012
0.0113698 0.0590156 0.194962
0.0110931 -0.00247398 -0.00817299
0.00408669 -0.062475 -0.206391
-0.00539859 -0.0845805 -0.279417
-0.0116092 -0.0553799 -0.182952
-0.0107773 0.00740367 0.0244584
-0.0033371 0.0643283 0.212514
0.00612187 -0.126445 0.360677
0.0149645 -0.0899393 0.256601
0.0146003 0.00377035 -0.0107571
0.00537878 0.0952125 -0.271645
-0.00710539 0.128899 -0.367759
-0.0152795 0.0843986 -0.240794
-0.0141846 -0.0112834 0.0321915
-0.00439257 -0.098066 0.279728
0.00387941 -0.259133 0.22856
0.00928504 -0.18054 0.159239
0.00905849 0.00756657 -0.00667384
0.00333717 0.191083 -0.168539
-0.00440842 0.258691 -0.22817
-0.00947993 0.169381 -0.149397
-0.00880104 -0.0226739 0.0199988
-0.00278356 -0.200975 0.177263
0 -0.162759 0
0 -0.123114 0
0 0.0051598 0
0 0.130304 0
0 0.176407 0
0 0.115504 0
0 -0.0154618 0
0 -0.12623 0
-0.0571544 -0.0640316 -0.244148
-0.139722 -0.0456437 -0.173715
-0.136322 0.00191348 0.00728233
-0.050221 0.0483204 0.1839
0.0663423 0.0654169 0.248963
0.142664 0.0428327 0.163012
0.132441 -0.00572564 -0.021793
0.0410094 -0.0496607 -0.189353
-0.0796397 0.0735366 -0.3402
-0.19469 0.0523214 -0.242057
-0.189953 -0.00219337 0.0101472
-0.0699789 -0.0553891 0.256246
0.092443 -0.0749867 0.346913
0.198789 -0.0490979 0.227145
0.184546 0.00656385 -0.0303666
0.0571431 0.0570325 -0.263847
-0.0538166 0.166499 -0.22989
-0.131562 0.118466 -0.16357
-0.12836 -0.00496617 0.006857
-0.0472887 -0.12541 0.17316
0.0624677 -0.169784 0.234426
0.134332 -0.111168 0.153492
0.124705 0.0148619 -0.0205202
0.0386145 0.129131 -0.178295
0.00465089 0.158465 0.0198674
0.0113698 0.11275 0.0141359
0.0110931 -0.00472657 -0.000592586
0.00408669 -0.11936 -0.0149647
-0.00539859 -0.16159 -0.0202592
-0.0116092 -0.105803 -0.013265
-0.0107773 0.0141447 0.00177338
-0.0033371 0.1229 0.0154084
0.0602972 0.0543083 0.257574
0.147405 0.0386409 0.183267
0.143818 -0.00161986 -0.00768278
0.0529826 -0.0409064 -0.19401
-0.0699905 -0.0553799 -0.262654
-0.150509 -0.0362605 -0.171977
-0.139723 0.00484761 0.0229913
-0.0432645 0.0421196 0.199765
0.0793681 -0.0827908 0.339039
0.194007 -0.0588888 0.241208
0.189287 0.00246867 -0.0101117
0.0697337 0.0623408 -0.255348
-0.092119 0.0843986 -0.345697
-0.198092 0.0552608 -0.226349
-0.183899 -0.00738793 0.0302604
-0.0569482 -0.0642097 0.262947
0.0502953 -0.16967 0.214848
0.120378 -0.11821 0.149686
0.11744 0.00495429 -0.00627347
0.0432654 0.125114 -0.158428
-0.0571538 0.169381 -0.214482
-0.122904 0.110904 -0.140434
-0.114103 -0.014846 0.0187991
-0.0360879 -0.13159 0.166629
0 0.0217875 0
0 0.0164805 0
0 -0.00069071 0
0 -0.0174429 0
0 -0.0236145 0
0 -0.0154618 0
0 0.00206978 0
0 0.0168977 0
-0.0752312 0.00857151 -0.0804699
-0.183897 0.00610146 -0.0572692
-0.179421 -0.000255777 0.00240078
-0.066099 -0.00645912 0.0606271
0.0873176 -0.00874447 0.0820772
0.187768 -0.00572554 0.053741
0.174314 0.000765462 -0.00718442
0.0539799 0.00664777 -0.0624097
-0.104828 -0.00984388 -0.112128
-0.256243 -0.00699485 -0.0797995
-0.250005 0.000293224 0.00334528
-0.0921038 0.00740478 0.0844783
0.121669 0.0100247 0.114368
0.261638 0.00656374 0.0748839
0.242891 -0.000877609 -0.0100108
0.0752164 -0.00763458 -0.0869625
-0.0708378 -0.0222881 -0.0757705
-0.173158 -0.0158375 -0.0539246
-0.168943 0.000663912 0.00226059
-0.0622386 0.0167657 0.0570863
0.082218 0.0226977 0.0772839
0.176803 0.0148616 0.0506027
0.164133 -0.00198706 -0.00676483
0.0508275 -0.0172859 -0.058765
0.00612187 -0.0212127 0.00654816
0.0149645 -0.0150734 0.00466023
0.0146003 0.000631874 -0.000195361
0.00537878 0.0159567 -0.00493344
-0.00710539 0.0216025 -0.00667897
-0.0152795 0.0141445 -0.00437313
-0.0141846 -0.00189119 0.000584627
-0.00439257 -0.0164518 0.00507853
0.0793681 -0.0072699 0.0848948
0.194007 -0.0051659 0.0604183
0.189287 0.000216554 -0.00253279
0.0697337 0.00546865 -0.0639605
-0.092119 0.00740354 -0.086591
-0.198092 0.00484752 -0.0566963
-0.183899 -0.000648141 0.00757949
-0.0569482 -0.00563829 0.0658415
0.104471 0.0110827 0.111745
0.255345 0.00787301 0.07952
0.249129 -0.000330036 -0.00333356
0.0917811 -0.0083344 -0.0841821
-0.121242 -0.0112832 -0.113967
-0.260721 -0.0073878 -0.0746211
-0.242038 0.000987811 0.00997585
-0.0749598 0.00859535 0.0866659
0.0662028 0.0227127 0.0708128
0.158451 0.0158241 0.0493357
0.154584 -0.0006632 -0.0020677
0.0569494 -0.0167482 -0.0522169
-0.0752304 -0.0226739 -0.070692
-0.161776 -0.014846 -0.0462863
-0.150191 0.00198734 0.00619606
-0.0475018 0.0176152 0.05492
0 0.193118 0
0 0.134547 0
0 -0.00563896 0
0 -0.142404 0
0 -0.192789 0
0 -0.12623 0
0 0.0168977 0
0 0.149776 0
-0.0476738 0.0759752 0.132021
-0.114103 0.0529324 0.0919796
-0.111319 -0.00221844 -0.00385494
-0.0410103 -0.0560237 -0.0973511
0.0541748 -0.0758457 -0.131795
0.116498 -0.0496607 -0.0862944
0.108155 0.00664777 0.0115517
0.0342069 0.0589238 0.102391
-0.0664293 -0.0872532 0.183959
-0.158993 -0.0607898 0.128166
-0.155113 0.00254775 -0.00537152
-0.0571443 0.0643399 -0.13565
0.0754878 0.0871044 -0.183645
0.16233 0.0570325 -0.120244
0.150705 -0.00763458 0.0160963
0.0476644 -0.0676705 0.142672
-0.0448897 -0.197555 0.124311
-0.10744 -0.137638 0.086608
-0.104818 0.00576851 -0.00362981
-0.0386153 0.145676 -0.0916659
0.051011 0.197218 -0.124099
0.109695 0.129131 -0.0812548
0.101839 -0.0172859 0.0108771
0.0322093 -0.153217 0.0964111
0.00387941 -0.188023 -0.010743
0.00928504 -0.130997 -0.00748475
0.00905848 0.00549017 0.000313692
0.00333717 0.138647 0.00792186
-0.00440842 0.187702 0.0107247
-0.00947993 0.1229 0.00702212
-0.00880104 -0.0164518 -0.000940008
-0.00278356 -0.145824 -0.00833194
0.0502953 -0.0644382 -0.13928
0.120378 -0.0448945 -0.0970374
0.11744 0.00188157 0.00406692
0.0432654 0.0475163 0.102704
-0.0571538 0.0643283 0.139043
-0.122904 0.0421196 0.0910396
-0.114103 -0.00563829 -0.0121869
-0.0360879 -0.0499761 -0.108021
0.0662028 0.0982336 -0.183332
0.158451 0.06844 -0.127728
0.154584 -0.00286837 0.0053532
0.0569494 -0.0724368 0.135188
-0.0752304 -0.098066 0.183019
-0.161776 -0.0642097 0.119834
-0.150191 0.00859535 -0.0160414
-0.0475018 0.0761866 -0.142186
0.0419525 0.201318 -0.116177
0.10041 0.14026 -0.0809412
0.0979597 -0.0058784 0.00339231
0.0360887 -0.148451 0.0856681
-0.0476733 -0.200975 0.115979
-0.102517 -0.13159 0.0759382
-0.0951757 0.0176152 -0.0101654
-0.0301018 0.156135 -0.0901028
