# vtk DataFile Version 3.0
Velocity field
ASCII
DATASET STRUCTURED_POINTS
DIMENSIONS 5 5 5
SPACING 1.33333 1.33333 1.33333
ORIGIN 0 0 0
POINT_DATA 125
VECTORS velocity float
0 0.614078 0
0 0.144454 0
0 -0.546116 0
0 -0.401388 0
0 0.357273 0
0 -0.32517 1.06647
0 -0.0764921 0.289125
0 0.289182 -1.09305
0 0.212545 -0.803379
0 -0.189185 0.620476
0 -0.767062 0.501747
0 -0.180442 0.136026
0 0.682169 -0.514254
0 0.501385 -0.37797
0 -0.44628 0.291918
0 -0.0357143 -0.83041
0 -0.00840134 -0.225128
0 0.0317616 0.851108
0 0.0233444 0.625554
0 -0.0207787 -0.483136
0 0.75026 -0.892435
0 0.176489 -0.209934
0 -0.667226 0.793666
0 -0.490403 0.583334
0 0.436504 -0.519222
0 0.144454 0
0 0.0432391 0
0 -0.163467 0
0 -0.120146 0
0 0.084044 0
0.456445 -0.0764921 0.374526
0.723636 -0.0192168 0.0950967
-0.151723 0.0728227 -0.360501
-0.795185 0.0535493 -0.265109
-0.206249 -0.0445034 0.2179
0.214746 -0.180442 0.176205
0.340455 -0.0455471 0.0447409
-0.0713822 0.172625 -0.169607
-0.374117 0.126942 -0.124728
-0.0970348 -0.104982 0.102517
-0.355413 -0.00840134 -0.291625
-0.563088 -0.00214555 -0.0739992
0.118061 0.0081368 0.280512
0.618762 0.00598424 0.206286
0.160596 -0.00488793 -0.169669
-0.381959 0.176489 -0.313407
-0.561661 0.0415169 -0.0737252
0.117711 -0.156957 0.278722
0.617041 -0.115361 0.204857
0.172591 0.102682 -0.182342
0 -0.546116 0
0 -0.163467 0
0 0.617996 0
0 0.454219 0
0 -0.317732 0
0.214746 0.289182 -0.890265
0.340455 0.0728227 -0.225284
-0.0713822 -0.275997 0.853955
-0.374117 -0.202957 0.627984
-0.0970348 0.168247 -0.517959
0.101033 0.682169 -0.418847
0.160176 0.172625 -0.105992
-0.0335838 -0.654348 0.401768
-0.176014 -0.481196 0.295452
-0.0456525 0.396888 -0.243687
-0.167213 0.0317616 0.693208
-0.264921 0.0081368 0.175308
0.0555449 -0.0308636 -0.664495
0.291114 -0.0226996 -0.488653
0.0755565 0.018479 0.403311
-0.179702 -0.667226 0.744984
-0.264248 -0.156957 0.175248
0.0553803 0.593382 -0.662534
0.290303 0.436128 -0.486954
0.0811999 -0.388194 0.433435
0 -0.401388 0
0 -0.120146 0
0 0.454219 0
0 0.333845 0
0 -0.233529 0
-0.355413 0.212545 -0.793373
-0.563088 0.0535498 -0.200845
0.118061 -0.202959 0.76133
0.618762 -0.149248 0.559871
0.160596 0.123659 -0.461587
-0.167213 0.501385 -0.373262
-0.264921 0.126943 -0.0944932
0.0555449 -0.4812 0.35819
0.291114 -0.353867 0.263408
0.0755565 0.291708 -0.217165
0.276743 0.0233444 0.617762
0.438166 0.0059843 0.156289
-0.0918676 -0.0226998 -0.592417
-0.481484 -0.0166954 -0.435652
-0.125049 0.0135819 0.359416
0.297413 -0.490403 0.663904
0.437339 -0.115361 0.156175
-0.0916564 0.436128 -0.590428
-0.480461 0.320548 -0.433957
-0.134389 -0.285318 0.386262
0 0.357273 0
0 0.084044 0
0 -0.317732 0
0 -0.233529 0
0 0.207863 0
-0.381959 -0.189185 0.517002
-0.561661 -0.0445034 0.121618
0.117711 0.168247 -0.459784
0.617041 0.123659 -0.337935
0.172591 -0.110068 0.300794
-0.179702 -0.44628 0.243237
-0.264247 -0.104982 0.0572184
0.0553803 0.396888 -0.216317
0.290302 0.291708 -0.15899
0.0811999 -0.259647 0.141516
0.297413 -0.0207787 -0.402566
0.437339 -0.00488793 -0.0946985
-0.0916563 0.018479 0.358012
-0.480461 0.0135819 0.263134
-0.134389 -0.0120891 -0.234214
0.319628 0.436504 -0.432634
0.470005 0.102682 -0.101772
-0.0985023 -0.388194 0.384753
-0.516348 -0.285318 0.282788
-0.144426 0.25396 -0.251708
