# vtk DataFile Version 3.0
Velocity field
ASCII
DATASET STRUCTURED_POINTS
DIMENSIONS 8 8 8
SPACING 0.8 0.8 0.8
ORIGIN 0 0 0
POINT_DATA 512
VECTORS velocity float
0 0.131947 0
0 0.0919283 0
0 -0.00385279 0
0 -0.0972968 0
0 -0.131722 0
0 -0.0862462 0
0 0.0115452 0
0 0.102334 0
0 0.0519097 0.134672
0 0.0361658 0.0994784
0 -0.00151574 -0.00416922
0 -0.0382779 -0.105288
0 -0.0518212 -0.14254
0 -0.0339304 -0.0933297
0 0.00454205 0.0124935
0 0.0402594 0.104447
0 -0.0596153 0.187653
0 -0.0415343 0.138614
0 0.00174074 -0.00580944
0 0.0439599 -0.146709
0 0.0595136 -0.198617
0 0.0389671 -0.130047
0 -0.00521629 0.0174085
0 -0.0462356 0.145537
0 -0.134978 0.126807
0 -0.0940403 0.0936689
0 0.00394131 -0.00392574
0 0.0995322 -0.0991391
0 0.134748 -0.134216
0 0.0882278 -0.0878793
0 -0.0118105 0.0117639
0 -0.104685 0.098347
0 -0.128465 -0.0109588
0 -0.0895027 -0.00809496
0 0.00375113 0.000339266
0 0.0947296 0.00856769
0 0.128246 0.0115991
0 0.0839706 0.00759462
0 -0.0112406 -0.00101664
0 -0.0996334 -0.00849925
0 -0.0440271 -0.142077
0 -0.0306739 -0.104949
0 0.00128557 0.00439848
0 0.0324653 0.111077
0 0.043952 0.150378
0 0.028778 0.0984617
0 -0.00385233 -0.0131804
0 -0.0341459 -0.11019
0 0.0671175 -0.187013
0 0.0467612 -0.138142
0 -0.0019598 0.00578963
0 -0.0494921 0.146209
0 -0.0670031 0.19794
0 -0.043871 0.129603
0 0.00587273 -0.0173492
0 0.0520541 -0.145041
0 0.13755 -0.11851
0 0.0958317 -0.0825665
0 -0.00401638 0.00346043
0 -0.101428 0.0873883
0 -0.137315 0.118308
0 -0.0899084 0.0774631
0 0.0120355 -0.0103695
0 0.106679 -0.0919121
0 0.0919283 0
0 0.0695361 0
0 -0.00291432 0
0 -0.073597 0
0 -0.0996367 0
0 -0.0652381 0
0 0.00873302 0
0 0.0712964 0
0.0287076 0.0361658 0.133019
0.0694868 0.0255074 0.0937478
0.0677929 -0.00106911 -0.0039293
0.024975 -0.0269988 -0.0992287
-0.0329922 -0.0365513 -0.134337
-0.0709466 -0.0239323 -0.0879588
-0.0658652 0.0032024 0.01177
-0.0205983 0.028049 0.103165
0.0400015 -0.0415343 0.18535
0.0968241 -0.0292618 0.13063
0.094463 0.00122646 -0.00547515
0.0348005 0.0309724 -0.138266
-0.0459718 0.0419309 -0.187188
-0.0988579 0.0274547 -0.122563
-0.0917776 -0.00367386 0.0164006
-0.0287019 -0.0322126 0.143751
0.0270311 -0.0940403 0.125251
0.0654291 -0.0662534 0.0882731
0.0638336 0.00277692 -0.00369984
0.0235164 0.0701267 -0.0934341
-0.0310653 0.0949385 -0.126492
-0.0668037 0.0621619 -0.0828221
-0.0620185 -0.00831822 0.0110827
-0.0193954 -0.0729344 0.0971401
-0.00233605 -0.0895027 -0.0108243
-0.00565445 -0.0630566 -0.00762864
-0.00551659 0.00264292 0.000319744
-0.00203232 0.0667431 0.00807466
0.0026847 0.0903578 0.0109316
0.00577325 0.0591628 0.00715757
0.00535971 -0.00791685 -0.000957778
0.00167617 -0.0694152 -0.00839494
-0.0302862 -0.0306739 -0.140333
-0.0733082 -0.0216105 -0.0989029
-0.0715205 0.000905772 0.00414538
-0.0263484 0.0228739 0.104685
0.0348062 0.0309669 0.141724
0.0748482 0.0202759 0.0927956
0.0694868 -0.00271323 -0.0124173
0.0217309 -0.0237897 -0.108838
-0.0398651 0.0467612 -0.184718
-0.0964912 0.0329415 -0.130181
-0.0941383 -0.00138069 0.00545633
-0.0346809 -0.0348673 0.137791
0.0458138 -0.0472038 0.186544
0.0985182 -0.0309072 0.122142
0.0914622 0.00413586 -0.0163442
0.028604 0.0362664 -0.143261
-0.0252624 0.0958317 -0.117055
-0.0604634 0.0667666 -0.0815532
-0.0589881 -0.00279824 0.00341796
-0.0217314 -0.0706657 0.0863159
0.0287073 -0.0956683 0.116856
0.0617325 -0.0626398 0.0765124
0.0573116 0.00838519 -0.0102422
0.0181263 0.0743238 -0.0907841
0 -0.00385279 0
0 -0.00291432 0
0 0.000122141 0
0 0.00308451 0
0 0.00417586 0
0 0.00273418 0
0 -0.000366008 0
0 -0.00298809 0
0.0400015 -0.00151574 0.0506787
0.0968241 -0.00106911 0.0357065
0.094463 4.48104e-05 -0.00149658
0.0348005 0.00113162 -0.0377942
-0.0459718 0.001532 -0.0511662
-0.0988579 0.00100309 -0.0335016
-0.0917776 -0.000134224 0.00448299
-0.0287019 -0.00117555 0.0393046
0.0557387 0.00174074 0.0706163
0.134916 0.00122646 0.0497538
0.131627 -5.14054e-05 -0.00208536
0.0484916 -0.00129816 -0.0526627
-0.0640575 -0.00175747 -0.0712954
-0.13775 -0.00115073 -0.0466816
-0.127884 0.000153984 0.00624665
-0.0399936 0.00135006 0.0547676
0.0376655 0.00394131 0.0477191
0.0911699 0.00277692 0.0336212
0.088947 -0.000116391 -0.00140919
0.0327683 -0.00293926 -0.0355868
-0.043287 -0.00397921 -0.0481779
-0.0930852 -0.00260542 -0.031545
-0.0864176 0.000348646 0.00422119
-0.0270257 0.00305674 0.0370093
-0.00325509 0.00375113 -0.00412393
-0.00787896 0.00264292 -0.00290559
-0.00768683 -0.000110774 0.000121783
-0.00283187 -0.00279745 0.00307544
0.00374091 -0.00378723 0.0041636
0.00804449 -0.00247972 0.00272616
0.00746832 0.000331822 -0.0003648
0.00233559 0.00290925 -0.00319838
-0.0422012 0.00128557 -0.0534654
-0.102149 0.000905772 -0.03767
-0.0996576 -3.79641e-05 0.00157888
-0.0367143 -0.000958727 0.0398721
0.0484996 -0.00129794 0.0539799
0.104295 -0.000849834 0.0353436
0.096824 0.000113721 -0.00472952
0.0302802 0.000997044 -0.0414659
-0.0555486 -0.0019598 -0.0703755
-0.134453 -0.00138069 -0.0495829
-0.131174 5.78697e-05 0.0020782
-0.0483248 0.00146142 0.0524818
0.0638373 0.00197848 0.0710503
0.137276 0.00129543 0.046521
0.127444 -0.000173348 -0.0062252
0.0398572 -0.00151995 -0.0545808
-0.035201 -0.00401638 -0.0445968
-0.0842505 -0.00279824 -0.0310709
-0.0821948 0.000117277 0.00130221
-0.0302808 0.00296166 0.0328854
0.0400011 0.00400953 0.0445207
0.0860189 0.00262528 0.0291504
0.0798588 -0.00035143 -0.00390218
0.0252574 -0.00311497 -0.0345877
0 -0.0972968 0
0 -0.073597 0
0 0.00308451 0
0 0.077895 0
0 0.105455 0
0 0.069048 0
0 -0.00924302 0
0 -0.0754601 0
0.0270311 -0.0382779 -0.0624025
0.0654291 -0.0269988 -0.0439666
0.0638336 0.00113162 0.0018428
0.0235164 0.0285773 0.0465371
-0.0310653 0.0386884 0.0630024
-0.0668037 0.0253316 0.0412515
-0.0620185 -0.00338962 -0.00552006
-0.0193954 -0.029687 -0.0483972
0.0376655 0.0439599 -0.0869525
0.0911699 0.0309724 -0.0612637
0.088947 -0.00129816 0.00256777
0.0327683 -0.0327832 0.0648453
-0.043287 -0.0443825 0.0877887
-0.0930852 -0.0290599 0.0574804
-0.0864176 0.00388862 -0.0076917
-0.0270257 0.0340938 -0.0674374
0.0254525 0.0995322 -0.0587582
0.0616078 0.0701267 -0.0413989
0.060106 -0.00293926 0.00173517
0.0221433 -0.0742269 0.0438193
-0.0292513 -0.100489 0.0593234
-0.0629021 -0.0657964 0.0388425
-0.0583969 0.00880451 -0.00519768
-0.0182627 0.0771938 -0.0455709
-0.00219963 0.0947296 0.00507795
-0.00532422 0.0667431 0.00357774
-0.0051944 -0.00279745 -0.000149956
-0.00191364 -0.0706449 -0.00378692
0.00252792 -0.0956402 -0.00512677
0.00543608 -0.0626214 -0.00335682
0.00504671 0.00837969 0.00044919
0.00157828 0.073469 0.00393828
-0.0285175 0.0324653 0.0658339
-0.0690266 0.0228739 0.0463843
-0.0673439 -0.000958727 -0.00194412
-0.0248096 -0.0242111 -0.0490958
0.0327737 -0.0327774 -0.066467
0.0704768 -0.0214613 -0.0435199
0.065429 0.00287185 0.00582361
0.0204619 0.025179 0.0510585
-0.037537 -0.0494921 0.0866559
-0.0908565 -0.0348673 0.061053
-0.0886413 0.00146142 -0.00255895
-0.0326556 0.0369058 -0.0646224
0.0431382 0.0499636 -0.087487
0.092765 0.0327141 -0.0572828
0.0861206 -0.00437765 0.00766529
0.0269336 -0.0383843 0.0672074
-0.0237871 -0.101428 0.0549136
-0.0569324 -0.0706657 0.0382587
-0.0555433 0.00296166 -0.00160345
-0.0204623 0.0747925 -0.040493
0.0270308 0.101255 -0.05482
0.0581274 0.0662979 -0.0358939
0.0539647 -0.00887488 0.0048049
0.0170677 -0.0786642 0.0425891
0 -0.131722 0
0 -0.0996367 0
0 0.00417586 0
0 0.105455 0
0 0.142767 0
0 0.0934782 0
0 -0.0125133 0
0 -0.102159 0
-0.00233605 -0.0518212 -0.137631
-0.00565445 -0.0365513 -0.0969698
-0.00551659 0.001532 0.00406435
-0.00203232 0.0386884 0.102639
0.0026847 0.0523771 0.138954
0.00577325 0.0342943 0.0909819
0.00535971 -0.00458892 -0.0121747
0.00167617 -0.0401907 -0.106742
-0.00325509 0.0595136 -0.191777
-0.00787896 0.0419309 -0.135119
-0.00768683 -0.00175747 0.00566333
-0.00283187 -0.0443825 0.143019
0.00374091 -0.0600857 0.193621
0.00804449 -0.0393417 0.126775
0.00746832 0.00526448 -0.0169644
0.00233559 0.0461567 -0.148736
-0.00219963 0.134748 -0.129594
-0.00532422 0.0949385 -0.091307
-0.0051944 -0.00397921 0.00382701
-0.00191364 -0.100489 0.0966449
0.00252792 -0.136044 0.13084
0.00543608 -0.0890763 0.0856684
0.00504671 0.0119197 -0.0114637
0.00157828 0.104506 -0.100508
0.000190094 0.128246 0.0111996
0.000460126 0.0903578 0.00789083
0.000448905 -0.00378723 -0.000330732
0.000165378 -0.0956402 -0.00835218
-0.000218465 -0.129479 -0.0113073
-0.000469792 -0.0847778 -0.00740358
-0.000436141 0.0113445 0.000990703
-0.000136396 0.0994634 0.00868603
0.00246451 0.043952 0.145199
0.00596536 0.0309669 0.102302
0.00581994 -0.00129794 -0.00428784
0.00214407 -0.0327774 -0.108283
-0.00283234 -0.0443747 -0.146596
-0.00609069 -0.0290547 -0.0959846
-0.00565445 0.00388794 0.0128442
-0.00176834 0.0340876 0.112612
0.00324399 -0.0670031 0.191123
0.00785188 -0.0472038 0.134655
0.00766044 0.00197848 -0.00564388
0.00282214 0.0499636 -0.142527
-0.00372806 0.0676415 -0.192955
-0.00801683 0.044289 -0.126339
-0.00744265 -0.00592652 0.0169061
-0.00232763 -0.0519653 0.148228
0.00205571 -0.137315 0.121114
0.00492015 -0.0956683 0.084381
0.0048001 0.00400953 -0.00353648
0.00176837 0.101255 -0.0893088
-0.00233603 0.137081 -0.120908
-0.00502342 0.0897551 -0.0791655
-0.00466368 -0.0120149 0.0105974
-0.00147501 -0.106497 0.093932
0 -0.0862462 0
0 -0.0652381 0
0 0.00273418 0
0 0.069048 0
0 0.0934782 0
0 0.0612058 0
0 -0.00819324 0
0 -0.0668896 0
-0.0302862 -0.0339304 -0.129375
-0.0733082 -0.0239323 -0.0911526
-0.0715205 0.00100309 0.00382055
-0.0263484 0.0253316 0.0964816
0.0348062 0.0342943 0.130618
0.0748482 0.0224546 0.0855236
0.0694868 -0.00300464 -0.0114443
0.0217309 -0.0263153 -0.100338
-0.0422012 0.0389671 -0.180272
-0.102149 0.0274547 -0.127013
-0.0996576 -0.00115073 0.00532357
-0.0367143 -0.0290599 0.134439
0.0484996 -0.0393417 0.182006
0.104295 -0.0257594 0.11917
0.096824 0.00344697 -0.0159467
0.0302802 0.0302216 -0.139813
-0.0285175 0.0882278 -0.121819
-0.0690266 0.0621619 -0.0858294
-0.0673439 -0.00260542 0.00359741
-0.0248096 -0.0657964 0.0908474
0.0327737 -0.0890763 0.12299
0.0704768 -0.0583235 0.0805291
0.065429 0.00780452 -0.010776
0.0204619 0.0684264 -0.0944788
0.00246451 0.0839706 0.0105277
0.00596536 0.0591628 0.00741747
0.00581994 -0.00247972 -0.000310892
0.00214407 -0.0626214 -0.0078511
-0.00283234 -0.0847778 -0.0106289
-0.00609068 -0.0555091 -0.00695941
-0.00565445 0.00742797 0.000931274
-0.00176834 0.0651247 0.00816495
0.0319516 0.028778 0.136489
0.0773392 0.0202759 0.0961648
0.0754537 -0.000849834 -0.00403061
0.0277972 -0.0214613 -0.101787
-0.0367204 -0.0290547 -0.1378
-0.078964 -0.0190238 -0.090227
-0.0733081 0.00254567 0.0120736
-0.0229259 0.0223192 0.105856
0.0420573 -0.043871 0.179657
0.101797 -0.0309072 0.126577
0.099315 0.00129543 -0.00530527
0.0365881 0.0327141 -0.133977
-0.0483329 0.044289 -0.18138
-0.103936 0.0289986 -0.118761
-0.0964911 -0.00388045 0.0158919
-0.0301769 -0.0340248 0.139336
0.0266516 -0.0899084 0.113848
0.0637882 -0.0626398 0.0793189
0.0622318 0.00262528 -0.00332432
0.0229264 0.0662979 -0.0839511
-0.0302858 0.0897551 -0.113654
-0.0651271 0.058768 -0.0744163
-0.0604631 -0.00786691 0.00996164
-0.019123 -0.0697299 0.0882969
0 0.0115452 0
0 0.00873302 0
0 -0.000366008 0
0 -0.00924302 0
0 -0.0125133 0
0 -0.00819323 0
0 0.00109678 0
0 0.00895409 0
-0.0398651 0.00454205 -0.0426411
-0.0964912 0.00320237 -0.0300454
-0.0941383 -0.000134223 0.00125931
-0.0346809 -0.00338959 0.031802
0.0458138 -0.00458888 0.043054
0.0985182 -0.00300461 0.0281901
0.0914622 0.000402056 -0.00377224
0.028604 0.00352266 -0.033071
-0.0555486 -0.00521629 -0.0594167
-0.134453 -0.00367383 -0.0418657
-0.131174 0.000153983 0.00175474
-0.0483248 0.00388859 0.0443134
0.0638373 0.00526443 0.0599922
0.137276 0.00344694 0.0392805
0.127444 -0.000461261 -0.00525627
0.0398572 -0.00404557 -0.0460815
-0.037537 -0.0118105 -0.0401509
-0.0908565 -0.00831814 -0.0282908
-0.0886413 0.000348642 0.00118577
-0.0326556 0.00880443 0.0299449
0.0431382 0.0119196 0.0405397
0.092765 0.00780444 0.0265439
0.0861206 -0.00104437 -0.00355194
0.0269336 -0.00915981 -0.0311397
0.00324399 -0.0112406 0.00346988
0.00785188 -0.00791678 0.00244492
0.00766045 0.000331819 -0.000102476
0.00282214 0.00837961 -0.00258787
-0.00372806 0.0113444 -0.00350349
-0.00801683 0.00742789 -0.00229394
-0.00744265 -0.000993977 0.000306963
-0.00232763 -0.00871783 0.00269112
0.0420573 -0.00385233 0.0449859
0.101797 -0.00271321 0.0316976
0.099315 0.00011372 -0.00132856
0.0365881 0.00287182 -0.0335508
-0.0483329 0.0038879 -0.0454216
-0.103936 0.00254565 -0.0297403
-0.0964911 -0.000340651 0.00397966
-0.0301769 -0.00298773 0.0348895
0.0553592 0.00587273 0.059214
0.13399 0.00413583 0.0417218
0.130723 -0.000173347 -0.00174871
0.0481587 -0.00437761 -0.0441611
-0.0636179 -0.00592647 -0.059786
-0.136805 -0.00388042 -0.0391455
-0.127006 0.000519268 0.00523822
-0.0397213 0.00455469 0.0459244
0.0350809 0.0120355 0.0375238
0.0839632 0.00838519 0.0261431
0.0819145 -0.00035143 -0.00109568
0.0301776 -0.00887488 -0.0276698
-0.0398647 -0.0120149 -0.0374598
-0.0857255 -0.00786691 -0.0245272
-0.0795864 0.00105309 0.0032833
-0.0251713 0.0093343 0.0291022
0 0.102334 0
0 0.0712964 0
0 -0.00298809 0
0 -0.0754601 0
0 -0.102159 0
0 -0.0668896 0
0 0.00895409 0
0 0.0793663 0
-0.0252624 0.0402594 0.0699578
-0.0604634 0.028049 0.0487401
-0.0589881 -0.00117556 -0.00204274
-0.0217314 -0.029687 -0.0515865
0.0287073 -0.0401907 -0.0698385
0.0617325 -0.0263153 -0.0457275
0.0573116 0.00352266 0.00612125
0.0181263 0.0312238 0.0542569
-0.035201 -0.0462356 0.0974802
-0.0842505 -0.0322126 0.0679151
-0.0821948 0.00135006 -0.00284638
-0.0302808 0.0340938 -0.0718813
0.0400011 0.0461567 -0.0973139
0.0860189 0.0302216 -0.0637173
0.0798587 -0.00404557 0.00852943
0.0252574 -0.0358587 0.0756023
-0.0237871 -0.104685 0.0658723
-0.0569324 -0.0729344 0.0458937
-0.0555432 0.00305674 -0.00192344
-0.0204623 0.0771938 -0.0485739
0.0270308 0.104506 -0.06576
0.0581274 0.0684264 -0.043057
0.0539646 -0.00915982 0.00576378
0.0170677 -0.0811898 0.0510883
0.00205571 -0.0996334 -0.00569275
0.00492015 -0.0694152 -0.00396618
0.0048001 0.00290925 0.000166226
0.00176837 0.073469 0.0041978
-0.00233603 0.0994634 0.00568305
-0.00502342 0.0651247 0.00372103
-0.00466368 -0.00871784 -0.000498111
-0.00147501 -0.0772722 -0.00441511
0.0266516 -0.0341459 -0.0738047
0.0637882 -0.0237897 -0.0514202
0.0622318 0.000997044 0.00215506
0.0229264 0.025179 0.0544231
-0.0302858 0.0340876 0.0736789
-0.0651271 0.0223192 0.048242
-0.0604631 -0.00298774 -0.00645785
-0.019123 -0.0264824 -0.0572404
0.0350809 0.0520541 -0.0971477
0.0839631 0.0362664 -0.0676835
0.0819145 -0.00151995 0.00283667
0.0301775 -0.0383843 0.0716361
-0.0398647 -0.0519653 0.0969821
-0.0857255 -0.0340248 0.0635
-0.0795864 0.00455469 -0.00850035
-0.0251713 0.0403713 -0.0753445
0.0222307 0.106679 -0.0615622
0.0532072 0.0743238 -0.0428908
0.051909 -0.00311497 0.00179759
0.0191234 -0.0786642 0.0453956
-0.0252621 -0.106497 0.0614573
-0.054324 -0.0697299 0.0402398
-0.0504337 0.0093343 -0.00538664
-0.015951 0.0827364 -0.0477456
