# vtk DataFile Version 3.0
Velocity field
ASCII
DATASET STRUCTURED_POINTS
DIMENSIONS 5 5 5
SPACING 1.33333 1.33333 1.33333
ORIGIN 0 0 0
POINT_DATA 125
VECTORS velocity float
0 0.292414 0
0 0.0687867 0
0 -0.260052 0
0 -0.191135 0
0 0.170127 0
0 -0.15484 0.507835
0 -0.0364243 0.137677
0 0.137704 -0.520494
0 0.10121 -0.382556
0 -0.0900867 0.29546
0 -0.365263 0.238924
0 -0.0859235 0.0647735
0 0.324838 -0.244879
0 0.238752 -0.179983
0 -0.212511 0.139007
0 -0.0170066 -0.395428
0 -0.00400058 -0.107202
0 0.0151244 0.405284
0 0.0111162 0.297879
0 -0.00989447 -0.230061
0 0.357261 -0.424963
0 0.0840413 -0.0999672
0 -0.317722 0.377931
0 -0.233522 0.277774
0 0.207856 -0.247245
0 0.0687867 0
0 0.0205897 0
0 -0.0778404 0
0 -0.0572117 0
0 0.0400203 0
0.217352 -0.0364243 0.178343
0.329942 -0.00881643 0.0433741
-0.0691538 0.0333455 -0.164062
-0.362492 0.0245107 -0.120596
-0.0982122 -0.0211918 0.103761
0.102259 -0.0859235 0.0839059
0.15523 -0.0208474 0.0204065
-0.0325352 0.0788521 -0.0771872
-0.170543 0.0579607 -0.0567373
-0.0462064 -0.0499905 0.0488168
-0.169242 -0.00400058 -0.138867
-0.256879 -0.000972867 -0.0337693
0.0538403 0.0036799 0.127731
0.282221 0.00270497 0.0938905
0.0764732 -0.00232755 -0.0807935
-0.181883 0.0840413 -0.14924
-0.267454 0.0197697 -0.0351067
0.0560522 -0.0747402 0.132723
0.293825 -0.0549331 0.0975495
0.0821851 0.0488955 -0.0868281
0 -0.260052 0
0 -0.0778404 0
0 0.294279 0
0 0.216292 0
0 -0.151299 0
0.102259 0.137704 -0.42393
0.15523 0.0333455 -0.102906
-0.0325352 -0.126121 0.389229
-0.170543 -0.0927056 0.286106
-0.0462064 0.0801165 -0.246644
0.0481101 0.324838 -0.199448
0.0730315 0.0788521 -0.0484147
-0.015307 -0.298248 0.183123
-0.0802362 -0.219229 0.134606
-0.021739 0.188992 -0.11604
-0.079624 0.0151244 0.330094
-0.120856 0.0036799 0.0801185
0.0253305 -0.0139195 -0.303037
0.132778 -0.0102318 -0.22275
0.0359787 0.00879941 0.19205
-0.0855712 -0.317722 0.354749
-0.12583 -0.0747402 0.0834504
0.0263712 0.282559 -0.315488
0.138237 0.207677 -0.23188
0.0386661 -0.184852 0.206394
0 -0.191135 0
0 -0.0572117 0
0 0.216292 0
0 0.158972 0
0 -0.111203 0
-0.169242 0.10121 -0.377791
-0.256879 0.0245108 -0.0917131
0.0538403 -0.0927059 0.346893
0.282221 -0.0681437 0.254987
0.0764732 0.0588846 -0.2198
-0.079624 0.238752 -0.177741
-0.120856 0.0579609 -0.0431487
0.0253305 -0.21923 0.163205
0.132778 -0.161147 0.119965
0.0359787 0.138906 -0.103411
0.131781 0.0111162 0.294168
0.199996 0.00270497 0.0714041
-0.0419177 -0.0102318 -0.270076
-0.219725 -0.00752107 -0.198523
-0.0595461 0.00646745 0.171148
0.141623 -0.233522 0.31614
0.208254 -0.0549331 0.0743681
-0.0436453 0.207677 -0.281152
-0.228788 0.15264 -0.206643
-0.0639937 -0.135864 0.183932
0 0.170127 0
0 0.0400203 0
0 -0.151299 0
0 -0.111203 0
0 0.0989807 0
-0.181883 -0.0900867 0.246188
-0.267454 -0.0211918 0.0579127
0.0560522 0.0801165 -0.218942
0.293825 0.0588846 -0.160919
0.0821851 -0.0524128 0.143233
-0.0855712 -0.212511 0.115825
-0.12583 -0.0499905 0.0272465
0.0263712 0.188992 -0.103007
0.138237 0.138906 -0.0757085
0.0386661 -0.12364 0.0673876
0.141623 -0.00989447 -0.191695
0.208254 -0.00232755 -0.0450939
-0.0436452 0.00879941 0.17048
-0.228788 0.00646745 0.1253
-0.0639937 -0.00575664 -0.111529
0.152202 0.207856 -0.206013
0.223809 0.0488955 -0.048462
-0.0469052 -0.184852 0.183213
-0.245876 -0.135864 0.134659
-0.0687735 0.120931 -0.119859
