# vtk DataFile Version 3.0
Velocity field
ASCII
DATASET STRUCTURED_POINTS
DIMENSIONS 10 10 10
SPACING 0.631579 0.631579 0.631579
ORIGIN 0 0 0
POINT_DATA 1000
VECTORS velocity float
0 0.0731201 0
0 0.059015 0
0 0.0221414 0
0 -0.0232745 0
0 -0.0597109 0
0 -0.0731104 0
0 -0.0583034 0
0 -0.0210025 0
0 0.0244013 0
0 0.0603909 0
0 0.0449098 0.0572767
0 0.0362466 0.0480404
0 0.0135991 0.018024
0 -0.014295 -0.0189463
0 -0.036674 -0.0486069
0 -0.0449039 -0.0595146
0 -0.0358095 -0.0474612
0 -0.0128996 -0.0170968
0 0.0149871 0.0198636
0 0.0370917 0.0473056
0 -0.000626998 0.0924557
0 -0.000506048 0.0775465
0 -0.000189861 0.0290941
0 0.000199576 -0.030583
0 0.000512015 -0.0784609
0 0.000626915 -0.0960681
0 0.000499946 -0.0766115
0 0.000180094 -0.0275976
0 -0.000209239 0.0320637
0 -0.000517847 0.0763604
0 -0.0459219 0.0919645
0 -0.0370634 0.0771346
0 -0.0139056 0.0289396
0 0.0146172 -0.0304205
0 0.0375005 -0.0780441
0 0.0459158 -0.0955578
0 0.0366165 -0.0762045
0 0.0131903 -0.027451
0 -0.0153249 0.0318934
0 -0.0379276 0.0759548
0 -0.0734999 0.0559928
0 -0.0593215 0.0469635
0 -0.0222564 0.0176199
0 0.0233953 -0.0185216
0 0.060021 -0.0475173
0 0.0734901 -0.0581805
0 0.0586062 -0.0463973
0 0.0211116 -0.0167136
0 -0.0245281 0.0194183
0 -0.0607046 0.0462452
0 -0.072721 -0.00158139
0 -0.0586928 -0.00132637
0 -0.0220206 -0.000497633
0 0.0231474 0.000523099
0 0.0593849 0.00134202
0 0.0727113 0.00164317
0 0.0579851 0.00131038
0 0.0208878 0.000472036
0 -0.0242681 -0.000548426
0 -0.0600613 -0.00130609
0 -0.0438858 -0.0585455
0 -0.0354201 -0.0491046
0 -0.013289 -0.0184232
0 0.0139691 0.019366
0 0.0358378 0.0496836
0 0.04388 0.0608329
0 0.034993 0.0485125
0 0.0126054 0.0174755
0 -0.0146454 -0.0203036
0 -0.0362459 -0.0483535
0 0.00188085 -0.0929222
0 0.00151802 -0.0779379
0 0.000569537 -0.029241
0 -0.000598682 0.0307373
0 -0.00153592 0.0788569
0 -0.0018806 0.0965529
0 -0.00149972 0.0769981
0 -0.000540241 0.0277368
0 0.000627668 -0.0322255
0 0.00155342 -0.0767458
0 0.0469218 -0.0914489
0 0.0378704 -0.0767021
0 0.0142083 -0.0287773
0 -0.0149354 0.03025
0 -0.038317 0.0776066
0 -0.0469156 0.0950221
0 -0.0374138 0.0757773
0 -0.0134775 0.0272971
0 0.0156585 -0.0317145
0 0.0387534 -0.075529
0 0.0738601 -0.054694
0 0.0596122 -0.0441433
0 0.0223655 -0.0165618
0 -0.02351 0.0174093
0 -0.0603151 0.0446638
0 -0.0738502 0.0546867
0 -0.0588934 0.043611
0 -0.021215 0.0157099
0 0.0246483 -0.0182522
0 0.061002 -0.0451725
0 0.059015 0
0 0.0501085 0
0 0.0187999 0
0 -0.0197619 0
0 -0.0506994 0
0 -0.0620767 0
0 -0.0495043 0
0 -0.0178328 0
0 0.0207187 0
0 0.0487413 0
0.00832796 0.0362466 0.0633892
0.0219014 0.0294397 0.0514749
0.0269754 0.0110455 0.019313
0.0216419 -0.0116108 -0.0203013
0.00795883 -0.0297876 -0.0520832
-0.00879483 -0.0364721 -0.063771
-0.0221554 -0.0290854 -0.0508555
-0.0269683 -0.0104774 -0.0183196
-0.0213764 0.0121723 0.0212832
-0.00749262 0.0299365 0.0523541
0.0134429 -0.000506048 0.102322
0.0353531 -0.000410825 0.0830904
0.0435436 -0.000154138 0.0311748
0.0349342 0.000162026 -0.0327702
0.0128471 0.000415679 -0.0840724
-0.0141965 0.00050896 -0.102939
-0.0357631 0.00040588 -0.0820905
-0.043532 0.000146209 -0.0295713
-0.0345055 -0.000169863 0.0343552
-0.0120945 -0.000417952 0.0845095
0.0133715 -0.0370634 0.101779
0.0351653 -0.0300919 0.082649
0.0433122 -0.0112902 0.0310093
0.0347486 0.011868 -0.0325961
0.0127788 0.0304475 -0.0836257
-0.0141211 0.03728 -0.102392
-0.0355731 0.0297298 -0.0816545
-0.0433007 0.0107095 -0.0294142
-0.0343222 -0.012442 0.0341726
-0.0120303 -0.0306112 0.0840606
0.00814127 -0.0593215 0.0619683
0.0214105 -0.0481633 0.050321
0.0263707 -0.0180705 0.0188801
0.0211568 0.0189952 -0.0198462
0.00778041 0.0487324 -0.0509156
-0.00859767 0.0596683 -0.0623414
-0.0216588 0.0475837 -0.0497156
-0.0263637 0.0171409 -0.0179089
-0.0208972 -0.0199139 0.0208061
-0.00732466 -0.0489944 0.0511805
-0.000229931 -0.0586928 -0.00175015
-0.000604687 -0.0476529 -0.0014212
-0.00074478 -0.017879 -0.000533222
-0.000597525 0.0187939 0.000560511
-0.000219739 0.048216 0.00143799
0.000242822 0.0590359 0.00176069
0.000611701 0.0470794 0.0014041
0.000744582 0.0169593 0.000505795
0.000590193 -0.0197029 -0.00058762
0.000206868 -0.0484752 -0.00144547
-0.00851243 -0.0354201 -0.0647933
-0.0223865 -0.0287576 -0.0526152
-0.027573 -0.0107896 -0.0197408
-0.0221213 0.0113418 0.020751
-0.00813512 0.0290974 0.0532369
0.00898966 0.0356272 0.0651836
0.0226461 0.0284115 0.0519819
0.0275656 0.0102346 0.0187253
0.0218499 -0.0118904 -0.0217546
0.00765859 -0.0292539 -0.0535137
-0.0135108 0.00151802 -0.102839
-0.0355315 0.00123248 -0.0835098
-0.0437633 0.000462419 -0.0313322
-0.0351105 -0.000486081 0.0329356
-0.0129119 -0.00124705 0.0844967
0.0142682 -0.00152689 0.103458
0.0359436 -0.00121765 0.0825048
0.0437517 -0.000438632 0.0297206
0.0346797 0.000509592 -0.0345286
0.0121556 0.00125376 -0.084936
-0.0132966 0.0378704 -0.101208
-0.0349677 0.0307461 -0.0821848
-0.0430689 0.0115357 -0.030835
-0.0345534 -0.012126 0.032413
-0.012707 -0.0311094 0.0831559
0.0140418 -0.0380906 0.101817
0.0353732 -0.0303761 0.0811957
0.0430575 -0.0109423 0.029249
0.0341294 0.0127125 -0.0339807
0.0119628 0.0312777 -0.0835893
-0.00795243 0.0596122 -0.0605308
-0.0207892 0.0481128 -0.0488542
-0.0256053 0.0180511 -0.0183293
-0.0205427 -0.0189748 0.0192672
-0.0075546 -0.0486801 0.0494303
0.00834814 -0.0596043 0.0605228
0.0210301 -0.0475326 0.0482651
0.0255985 -0.0171226 0.0173864
0.0202908 0.0198935 -0.0202001
0.00715476 0.0492345 -0.0499933
0 0.0221414 0
0 0.0187999 0
0 0.00705339 0
0 -0.00741434 0
0 -0.0190216 0
0 -0.0232901 0
0 -0.0185732 0
0 -0.00669058 0
0 0.00777331 0
0 0.0182869 0
0.0134429 0.0135991 0.0450457
0.0353531 0.0110455 0.0365736
0.0435436 0.00414421 0.0137222
0.0349342 -0.00435627 -0.0144243
0.0128471 -0.0111761 -0.0370058
-0.0141965 -0.0136841 -0.0453101
-0.0357631 -0.0109126 -0.0361335
-0.043532 -0.00393102 -0.0130162
-0.0345055 0.00456696 0.015122
-0.0120945 0.0112317 0.0372039
0.0216995 -0.000189861 0.0727124
0.0570666 -0.000154138 0.0590369
0.0702875 -5.78313e-05 0.0221502
0.0563904 6.07907e-05 -0.0232836
0.0207377 0.000155959 -0.0597345
-0.022916 0.000190958 -0.0731394
-0.0577284 0.000152283 -0.0583263
-0.0702688 5.48566e-05 -0.0210108
-0.0556988 -6.37311e-05 0.0244098
-0.0195229 -0.000156808 0.0600542
0.0215842 -0.0139056 0.0723262
0.0567634 -0.0112902 0.0587232
0.0699141 -0.00423601 0.0220325
0.0560911 0.00445278 -0.0231599
0.0206275 0.0114236 -0.0594172
-0.0227942 0.0139872 -0.0727509
-0.0574217 0.0111543 -0.0580164
-0.0698955 0.00401811 -0.0208992
-0.0554029 -0.00466814 0.0242802
-0.0194192 -0.0114848 0.0597352
0.0131416 -0.0222564 0.0440359
0.0345605 -0.0180705 0.0357538
0.0425675 -0.0067799 0.0134145
0.034151 0.00712683 -0.0141009
0.0125591 0.018284 -0.0361763
-0.0138784 0.022387 -0.0442945
-0.0349613 0.017853 -0.0353235
-0.0425562 0.00643113 -0.0127245
-0.0337322 -0.00747154 0.014783
-0.0118234 -0.0183819 0.0363699
-0.000371153 -0.0220206 -0.00124369
-0.000976081 -0.017879 -0.00100978
-0.00120221 -0.00670805 -0.000378863
-0.000964522 0.00705129 0.000398249
-0.000354702 0.0180903 0.00102171
0.000391962 0.0221498 0.00125099
0.000987402 0.0176638 0.000997628
0.0012019 0.00636298 0.000359373
0.000952686 -0.00739237 -0.000417512
0.000333925 -0.0181871 -0.00102718
-0.0137407 -0.013289 -0.0460435
-0.0361363 -0.0107896 -0.0373837
-0.0445079 -0.00404818 -0.0140261
-0.0357081 0.00425534 0.0147438
-0.0131316 0.0109172 0.0378255
0.014511 0.013367 0.0463137
0.0365553 0.0106598 0.036934
0.0444961 0.00383996 0.0133046
0.0352699 -0.00446117 -0.015457
0.0123624 -0.0109756 -0.038028
-0.021809 0.000569537 -0.0730794
-0.0573546 0.000462419 -0.0593348
-0.0706422 0.000173495 -0.0222619
-0.056675 -0.000182374 0.0234011
-0.0208423 -0.000467883 0.060036
0.0230316 -0.00057288 0.0735085
0.0580197 -0.000456853 0.0586207
0.0706235 -0.000164572 0.0211168
0.0559798 0.000191195 -0.024533
0.0196214 0.000470388 -0.0603573
-0.0214632 0.0142083 -0.0719207
-0.0564445 0.0115357 -0.0583933
-0.0695214 0.0043281 -0.0219087
-0.0557759 -0.00454959 0.0230298
-0.0205116 -0.011672 0.0590834
0.0226662 -0.0142913 0.0723422
0.0570991 -0.0113969 0.0576906
0.0695029 -0.00410547 0.0207818
0.0550917 0.00476964 -0.0241438
0.0193103 0.0117349 -0.0594003
-0.0128368 0.0223655 -0.0430145
-0.0335577 0.0180511 -0.0347168
-0.0413319 0.00677246 -0.0130252
-0.0331599 -0.00711903 0.0136917
-0.0121946 -0.018264 0.0351262
0.0134755 -0.0223625 0.0430088
0.0339466 -0.0178334 0.0342982
0.0413209 -0.0064241 0.0123552
0.0327533 0.00746371 -0.0143546
0.0115492 0.018472 -0.0355263
0 -0.0232745 0
0 -0.0197619 0
0 -0.00741434 0
0 0.00779375 0
0 0.019995 0
0 0.024482 0
0 0.0195236 0
0 0.00703295 0
0 -0.0081711 0
0 -0.0192227 0
0.0133715 -0.014295 0.00932321
0.0351653 -0.0116108 0.00756972
0.0433122 -0.00435627 0.00284009
0.0347486 0.00457921 -0.00298544
0.0127788 0.011748 -0.00765918
-0.0141211 0.0143843 -0.00937793
-0.0355731 0.0114711 -0.00747863
-0.0433007 0.0041322 -0.00269401
-0.0343222 -0.00480067 0.00312984
-0.0120303 -0.0118064 0.00770017
0.0215842 0.000199576 0.0150495
0.0567634 0.000162026 0.012219
0.0699141 6.07907e-05 0.00458447
0.0560912 -6.39016e-05 -0.00481905
0.0206275 -0.000163941 -0.0123634
-0.0227942 -0.000200729 -0.0151378
-0.0574217 -0.000160076 -0.012072
-0.0698955 -5.76638e-05 -0.00434864
-0.0554029 6.69924e-05 0.00505214
-0.0194192 0.000164833 0.0124296
0.0214695 0.0146172 0.0149695
0.0564619 0.011868 0.0121541
0.0695427 0.00445278 0.00456011
0.0557932 -0.00468064 -0.00479347
0.0205179 -0.0120082 -0.0122977
-0.0226731 -0.0147029 -0.0150574
-0.0571167 -0.0117252 -0.0120078
-0.0695242 -0.00422374 -0.00432553
-0.0551086 0.00490703 0.0050253
-0.019316 0.0120725 0.0123635
0.0130718 0.0233953 0.00911421
0.0343769 0.0189952 0.00740003
0.0423414 0.00712683 0.00277642
0.0339698 -0.00749155 -0.00291851
0.0124924 -0.0192196 -0.00748748
-0.0138046 -0.0235326 -0.00916773
-0.0347756 -0.0187666 -0.00731096
-0.0423301 -0.00676025 -0.00263362
-0.033553 0.00785388 0.00305967
-0.0117606 0.0193225 0.00752756
-0.000369182 0.0231474 -0.00025741
-0.000970898 0.0187939 -0.000208997
-0.00119583 0.00705129 -7.84136e-05
-0.000959397 -0.00741216 8.24267e-05
-0.000352818 -0.019016 0.000211466
0.00038988 -0.0232832 0.000258921
0.000982156 -0.0185677 0.000206481
0.00119551 -0.00668861 7.43803e-05
0.000947626 0.00777066 -8.64134e-05
0.000332151 0.0191178 -0.000212598
-0.0136677 0.0139691 -0.00952972
-0.0359443 0.0113418 -0.0077374
-0.0442716 0.00425534 -0.002903
-0.0355184 -0.00447311 0.00305157
-0.0130619 -0.0114758 0.0078288
0.0144339 -0.014051 0.00958566
0.0363611 -0.0112053 0.00764429
0.0442599 -0.00403646 0.00275368
0.0350825 0.00468946 -0.00319915
0.0122968 0.0115372 -0.00787073
-0.0216931 -0.000598682 -0.0151254
-0.0570499 -0.000486081 -0.0122806
-0.070267 -0.000182374 -0.00460761
-0.0563739 0.000191707 0.00484338
-0.0207316 0.000491825 0.0124258
0.0229093 0.000602193 0.0152142
0.0577115 0.000480233 0.0121329
0.0702483 0.000172993 0.00437058
0.0556825 -0.000200979 -0.00507764
0.0195172 -0.000494459 -0.0124923
-0.0213492 -0.0149354 -0.0148856
-0.0561447 -0.012126 -0.0120858
-0.069152 -0.00454959 -0.0045345
-0.0554797 0.00478241 0.00476654
-0.0204026 0.0122693 0.0122286
0.0225458 0.0150226 0.0149728
0.0567958 0.0119801 0.0119404
0.0691337 0.00431556 0.00430124
0.054799 -0.00501372 -0.00499708
0.0192077 -0.0123354 -0.0122942
-0.0127686 -0.02351 -0.0089028
-0.0333795 -0.0189748 -0.00718541
-0.0411123 -0.00711903 -0.00269585
-0.0329838 0.00748334 0.0028338
-0.0121298 0.0191986 0.00727015
0.0134039 0.0235069 0.00890161
0.0337663 0.018746 0.00709877
0.0411014 0.00675284 0.00255717
0.0325793 -0.00784565 -0.002971
0.0114878 -0.0194172 -0.00735294
0 -0.0597109 0
0 -0.0506994 0
0 -0.0190216 0
0 0.019995 0
0 0.0512973 0
0 0.0628087 0
0 0.0500881 0
0 0.0180431 0
0 -0.020963 0
0 -0.049316 0
0.00814127 -0.036674 -0.0299963
0.0214105 -0.0297876 -0.0243546
0.0263707 -0.0111761 -0.00913767
0.0211568 0.011748 0.00960527
0.00778041 0.0301396 0.0246424
-0.00859767 0.0369032 0.0301724
-0.0216588 0.0294291 0.0240616
-0.0263637 0.0106012 0.00866761
-0.0208972 -0.0123162 -0.0100698
-0.00732466 -0.0302895 -0.0247743
0.0131416 0.000512015 -0.0484197
0.0345605 0.000415679 -0.039313
0.0425675 0.000155959 -0.0147499
0.034151 -0.000163941 0.0155048
0.0125591 -0.000420591 0.0397776
-0.0138784 -0.000514974 0.048704
-0.0349613 -0.000410676 0.0388399
-0.0425562 -0.000147937 0.0139913
-0.0337322 0.00017187 -0.0162546
-0.0118234 0.00042288 -0.0399905
0.0130718 0.0375005 -0.0481625
0.0343769 0.0304475 -0.0391042
0.0423414 0.0114236 -0.0146716
0.0339698 -0.0120082 0.0154224
0.0124924 -0.0308073 0.0395662
-0.0138046 -0.0377206 0.0484453
-0.0347756 -0.0300811 0.0386335
-0.0423301 -0.010836 0.0139169
-0.033553 0.012589 -0.0161683
-0.0117606 0.0309722 -0.0397781
0.00795878 0.060021 -0.0293238
0.0209305 0.0487324 -0.0238087
0.0257795 0.018284 -0.00893283
0.0206825 -0.0192196 0.00938994
0.00760603 -0.0493082 0.02409
-0.00840497 -0.0603734 0.0294959
-0.0211733 -0.048146 0.0235221
-0.0257727 -0.0173435 0.00847334
-0.0204287 0.0201492 -0.0098441
-0.00716047 0.0495721 -0.024219
-0.000224777 0.0593849 0.000828184
-0.000591134 0.048216 0.00067242
-0.000728083 0.0180903 0.000252287
-0.00058413 -0.019016 -0.000265198
-0.000214814 -0.0487858 -0.000680366
0.000237379 -0.0597336 -0.000833044
0.000597989 -0.0476357 -0.000664329
0.00072789 -0.0171597 -0.00023931
0.000576964 0.0199357 0.000278024
0.000202231 0.0490468 0.000684008
-0.00832161 0.0358378 0.0306607
-0.0218848 0.0290974 0.0248941
-0.0269549 0.0109172 0.00934006
-0.0216254 -0.0114758 -0.00981802
-0.00795276 -0.0294413 -0.0251882
0.00878812 -0.0360482 -0.0308407
0.0221385 -0.0287473 -0.0245945
0.0269477 -0.0103556 -0.00885962
0.0213601 0.0120309 0.0102929
0.00748691 0.0295989 0.0253231
-0.0132079 -0.00153592 0.0486641
-0.034735 -0.00124705 0.0395114
-0.0427823 -0.000467883 0.0148244
-0.0343234 0.000491825 -0.0155829
-0.0126224 0.00126178 -0.0399782
0.0139484 0.00154494 -0.0489498
0.0351378 0.00123204 -0.0390359
0.042771 0.000443814 -0.0140618
0.0339023 -0.000515614 0.0163367
0.0118831 -0.00126854 0.0401923
-0.0129985 -0.038317 0.0478925
-0.0341838 -0.0311094 0.0388845
-0.0421035 -0.011672 0.0145891
-0.0337789 0.0122693 -0.0153357
-0.0124222 0.031477 -0.039344
0.0137271 0.0385407 -0.0481731
0.0345803 0.0307351 -0.0384165
0.0420923 0.0110716 -0.0138387
0.0333645 -0.0128627 0.0160775
0.0116947 -0.0316465 0.0395551
-0.00777416 -0.0603151 0.0286436
-0.0203232 -0.0486801 0.0231182
-0.0250313 -0.018264 0.00867355
-0.0200822 0.0191986 -0.0091174
-0.00738525 0.0492542 -0.0233908
0.00816101 0.0603071 -0.0286398
0.0205587 0.0480931 -0.0228394
0.0250247 0.0173245 -0.00822739
0.019836 -0.0201281 0.00955883
0.00699437 -0.0498151 0.0236572
0 -0.0731104 0
0 -0.0620767 0
0 -0.0232901 0
0 0.024482 0
0 0.0628087 0
0 0.0769034 0
0 0.0613282 0
0 0.0220921 0
0 -0.0256673 0
0 -0.0603829 0
-0.000229931 -0.0449039 -0.0577429
-0.000604687 -0.0364721 -0.0468827
-0.00074478 -0.0136841 -0.01759
-0.000597525 0.0143843 0.0184902
-0.000219739 0.0369032 0.0474367
0.000242822 0.0451844 0.0580817
0.000611701 0.0360333 0.0463185
0.000744582 0.0129802 0.0166852
0.000590193 -0.01508 -0.0193845
0.000206868 -0.0370867 -0.0476907
-0.000371153 0.000626915 -0.0932082
-0.000976081 0.00050896 -0.0756777
-0.00120221 0.000190958 -0.0283936
-0.000964522 -0.000200729 0.0298467
-0.000354702 -0.000514974 0.0765721
0.000391962 -0.000630536 0.0937551
0.000987402 -0.000502835 0.074767
0.0012019 -0.000181135 0.0269332
0.000952686 0.000210438 -0.0312902
0.000333925 0.000517777 -0.076982
-0.000369182 0.0459158 -0.0927131
-0.000970898 0.03728 -0.0752757
-0.00119583 0.0139872 -0.0282428
-0.000959397 -0.0147029 0.0296881
-0.000352818 -0.0377206 0.0761653
0.00038988 -0.0461852 0.0932571
0.000982156 -0.0368315 0.0743698
0.00119551 -0.0132677 0.0267901
0.000947626 0.0154141 -0.031124
0.000332151 0.0379225 -0.076573
-0.000224777 0.0734901 -0.0564485
-0.000591134 0.0596683 -0.0458318
-0.000728083 0.022387 -0.0171957
-0.00058413 -0.0235326 0.0180757
-0.000214814 -0.0603734 0.0463733
0.000237379 -0.0739216 0.0567797
0.000597989 -0.0589501 0.0452802
0.00072789 -0.0212355 0.0163112
0.000576964 0.0246709 -0.01895
0.000202231 0.0606965 -0.0466216
6.3483e-06 0.0727113 0.00159426
1.66952e-05 0.0590359 0.00129441
2.05631e-05 0.0221498 0.000485653
1.64974e-05 -0.0232832 -0.000510505
6.06694e-06 -0.0597336 -0.00130971
-6.70421e-06 -0.0731382 -0.00160361
-1.68888e-05 -0.0583254 -0.00127883
-2.05576e-05 -0.0210105 -0.000460671
-1.6295e-05 0.0244094 0.000535196
-5.71154e-06 0.0600533 0.00131672
0.000235024 0.04388 0.059022
0.000618083 0.0356272 0.0479213
0.000761278 0.013367 0.0179797
0.000610759 -0.014051 -0.0188997
0.000224607 -0.0360482 -0.0484876
-0.0002482 -0.0441376 -0.0593684
-0.000625249 -0.0351983 -0.0473445
-0.000761076 -0.0126794 -0.0170548
-0.000603265 0.0147306 0.0198139
-0.00021145 0.0362411 0.0487471
0.000373026 -0.0018806 0.0936786
0.000981008 -0.00152689 0.0760597
0.00120828 -0.00057288 0.0285369
0.000969389 0.000602193 -0.0299974
0.000356492 0.00154494 -0.0769583
-0.000393938 0.00189163 -0.0942283
-0.000992385 0.00150852 -0.0751444
-0.00120796 0.00054341 -0.0270691
-0.000957495 -0.00063132 0.0314482
-0.00033561 -0.00155321 0.0773704
0.000367112 -0.0469156 0.0921933
0.000965443 -0.0380906 0.0748529
0.00118911 -0.0142913 0.0280842
0.000954007 0.0150226 -0.0295214
0.000350836 0.0385407 -0.0757374
-0.000387689 0.0471895 -0.0927332
-0.000976638 0.0376322 -0.0739522
-0.0011888 0.0135562 -0.0266396
-0.000942302 -0.0157492 0.0309492
-0.000330289 -0.0387482 0.0761437
0.000219563 -0.0738502 0.0551392
0.00057398 -0.0596043 0.0445026
0.000706952 -0.0223625 0.0166966
0.000567176 0.0235069 -0.017551
0.000208579 0.0603071 -0.0450274
-0.000230489 0.0738404 -0.0551318
-0.000580632 0.0588856 -0.043966
-0.000706764 0.0212122 -0.0158378
-0.00056022 -0.024645 0.0184008
-0.00019754 -0.0609939 0.0455402
0 -0.0583034 0
0 -0.0495044 0
0 -0.0185732 0
0 0.0195236 0
0 0.0500881 0
0 0.0613282 0
0 0.0489074 0
0 0.0176178 0
0 -0.0204689 0
0 -0.0481536 0
-0.00851243 -0.0358095 -0.063212
-0.0223865 -0.0290854 -0.0513231
-0.027573 -0.0109126 -0.019256
-0.0221214 0.0114711 0.0202414
-0.00813512 0.0294291 0.0519295
0.00898966 0.0360333 0.0635829
0.0226461 0.0287354 0.0507054
0.0275656 0.0103513 0.0182656
0.0218499 -0.0120258 -0.0212205
0.00765859 -0.0295756 -0.0522076
-0.0137407 0.000499946 -0.102036
-0.0361363 0.00040588 -0.0828455
-0.0445079 0.000152283 -0.0310829
-0.0357081 -0.000160076 0.0326736
-0.0131316 -0.000410676 0.0838245
0.014511 -0.000502835 0.102635
0.0365553 -0.000400995 0.0818484
0.0444961 -0.00014445 0.0294841
0.0352699 0.000167819 -0.0342539
0.0123624 0.000412912 -0.0842732
-0.0136677 0.0366165 -0.101494
-0.0359443 0.0297298 -0.0824054
-0.0442716 0.0111543 -0.0309179
-0.0355184 -0.0117252 0.0325
-0.0130619 -0.0300811 0.0833792
0.0144339 -0.0368315 0.10209
0.0363611 -0.0293719 0.0814136
0.0442599 -0.0105806 0.0293274
0.0350825 0.0122923 -0.0340719
0.0122968 0.0302421 -0.0838255
-0.00832161 0.0586062 -0.061795
-0.0218848 0.0475837 -0.0501727
-0.0269549 0.017853 -0.0188244
-0.0216254 -0.0187666 0.0197877
-0.00795276 -0.048146 0.0507654
0.00878812 -0.0589501 0.0621576
0.0221385 -0.047011 0.049569
0.0269477 -0.0169347 0.0178561
0.0213601 0.0196743 -0.0207448
0.00748691 0.0484036 -0.0510373
0.000235024 0.0579851 0.00174526
0.000618082 0.0470794 0.00141701
0.000761278 0.0176638 0.000531651
0.00061076 -0.0185677 -0.000558858
0.000224607 -0.0476357 -0.00143375
-0.0002482 -0.0583254 -0.0017555
-0.000625249 -0.0465128 -0.00139996
-0.000761076 -0.0167552 -0.000504303
-0.000603265 0.0194658 0.000585888
-0.00021145 0.0478907 0.00144143
0.00870098 0.034993 0.0646122
0.0228824 0.0284115 0.05246
0.0281836 0.0106598 0.0196826
0.0226113 -0.0112053 -0.0206898
0.00831534 -0.0287473 -0.0530799
-0.0091888 -0.0351983 -0.0649913
-0.0231477 -0.0280697 -0.0518286
-0.0281761 -0.0101115 -0.0186701
-0.0223338 0.0117473 0.0216905
-0.00782823 0.0289012 0.0533641
0.01381 -0.00149972 0.102551
0.0363186 -0.00121765 0.0832636
0.0447325 -0.000456853 0.0312397
0.0358883 0.000480233 -0.0328385
0.0131979 0.00123204 -0.0842476
-0.0145842 0.00150852 -0.103153
-0.0367398 0.001203 -0.0822614
-0.0447206 0.000433355 -0.0296329
-0.0354479 -0.00050346 0.0344267
-0.0124248 -0.00123864 0.0846985
0.0135911 -0.0374138 0.100925
0.0357423 -0.0303761 0.0819424
0.0440229 -0.0113969 0.0307442
0.0353188 0.0119801 -0.0323174
0.0129885 0.0307351 -0.0829107
-0.0143528 0.0376322 -0.101516
-0.0361568 0.0300106 -0.0809562
-0.0440112 0.0108106 -0.0291627
-0.0348854 -0.0125595 0.0338805
-0.0122278 -0.0309006 0.0833556
0.00812858 -0.0588934 0.0603616
0.0212497 -0.0475326 0.0487176
0.0261725 -0.0178334 0.018278
0.0209978 0.018746 -0.0192134
0.00772194 0.0480931 -0.0492921
-0.00853306 0.0588856 -0.0603535
-0.0214959 0.0469595 -0.0481302
-0.0261655 0.0169161 -0.0173378
-0.0207403 -0.0196536 0.0201436
-0.00731324 -0.0486409 0.0498535
0 -0.0210025 0
0 -0.0178328 0
0 -0.00669058 0
0 0.00703295 0
0 0.0180431 0
0 0.0220921 0
0 0.0176178 0
0 0.00634642 0
0 -0.00737346 0
0 -0.0173462 0
-0.0135108 -0.0128996 -0.0442933
-0.0355315 -0.0104774 -0.0359628
-0.0437633 -0.00393102 -0.0134929
-0.0351105 0.0041322 0.0141834
-0.0129119 0.0106012 0.0363877
0.0142682 0.0129802 0.0445532
0.0359436 0.0103513 0.0355299
0.0437517 0.00372883 0.0127988
0.0346797 -0.00433204 -0.0148694
0.0121556 -0.0106539 -0.0365825
-0.021809 0.000180094 -0.071498
-0.0573546 0.000146209 -0.0580507
-0.0706422 5.48566e-05 -0.0217802
-0.056675 -5.76638e-05 0.0228947
-0.0208423 -0.000147937 0.0587366
0.0230316 -0.000181135 0.0719177
0.0580197 -0.00014445 0.0573521
0.0706235 -5.20348e-05 0.0206598
0.0559798 6.04529e-05 -0.0240021
0.0196214 0.000148742 -0.0590512
-0.0216931 0.0131903 -0.0711182
-0.0570499 0.0107095 -0.0577423
-0.070267 0.00401811 -0.0216645
-0.0563739 -0.00422374 0.0227731
-0.0207316 -0.010836 0.0584246
0.0229093 -0.0132677 0.0715356
0.0577115 -0.0105806 0.0570474
0.0702483 -0.00381143 0.0205501
0.0556825 0.00442802 -0.0238746
0.0195172 0.010894 -0.0587375
-0.0132079 0.0211116 -0.0433004
-0.034735 0.0171409 -0.0351565
-0.0427823 0.00643113 -0.0131904
-0.0343234 -0.00676025 0.0138655
-0.0126224 -0.0173435 0.035572
0.0139484 -0.0212355 0.0435546
0.0351378 -0.0169347 0.0347334
0.042771 -0.00610035 0.012512
0.0339023 0.00708721 -0.0145361
0.0118831 0.0174363 -0.0357624
0.000373026 0.0208878 0.00122292
0.000981008 0.0169593 0.000992914
0.00120828 0.00636298 0.000372534
0.000969389 -0.00668861 -0.000391598
0.000356492 -0.0171597 -0.00100465
-0.000393938 -0.0210105 -0.0012301
-0.000992385 -0.0167552 -0.000980965
-0.00120796 -0.0060357 -0.000353371
-0.000957495 0.00701213 0.000410538
-0.00033561 0.0172516 0.00101003
0.01381 0.0126054 0.0452745
0.0363186 0.0102346 0.0367594
0.0447325 0.00383996 0.0137918
0.0358883 -0.00403646 -0.0144975
0.0131979 -0.0103556 -0.0371936
-0.0145842 -0.0126794 -0.0455401
-0.0367398 -0.0101115 -0.036317
-0.0447206 -0.00364242 -0.0130823
-0.0354479 0.00423169 0.0151988
-0.0124248 0.010411 0.0373928
0.021919 -0.000540241 0.0718588
0.057644 -0.000438632 0.0583437
0.0709988 -0.000164572 0.0218901
0.0569611 0.000172993 -0.0230102
0.0209475 0.000443814 -0.0590331
-0.0231478 0.00054341 -0.0722807
-0.0583125 0.000433355 -0.0576415
-0.0709799 0.000156106 -0.0207641
-0.0562621 -0.00018136 0.0241232
-0.0197204 -0.000446192 0.0593492
0.0215715 -0.0134775 0.0707195
0.0567294 -0.0109423 0.0574179
0.0698722 -0.00410547 0.0215428
0.0560574 0.00431556 -0.0226452
0.0206151 0.0110716 -0.0580964
-0.0227806 0.0135562 -0.0711337
-0.0573873 0.0108106 -0.0567269
-0.0698536 0.00389428 -0.0204346
-0.0553697 -0.00452429 0.0237405
-0.0194078 -0.0111312 0.0584082
0.0129015 -0.021215 0.042296
0.0337271 -0.0171226 0.034137
0.0415405 -0.0064241 0.0128076
0.0333272 0.00675284 -0.013463
0.0122561 0.0173245 -0.0345395
-0.0135435 0.0212122 -0.0422904
-0.034118 0.0169161 -0.0337254
-0.0415294 0.00609365 -0.0121488
-0.0329186 -0.00707978 0.0141148
-0.0116074 -0.0175218 0.0349329
0 0.0244013 0
0 0.0207187 0
0 0.00777331 0
0 -0.0081711 0
0 -0.020963 0
0 -0.0256673 0
0 -0.0204689 0
0 -0.00737346 0
0 0.00856671 0
0 0.0201534 0
-0.0132966 0.0149871 -0.00828604
-0.0349677 0.0121723 -0.00672812
-0.0430689 0.00456696 -0.00252433
-0.0345534 -0.00480066 0.00265352
-0.012707 -0.0123162 0.00680762
0.0140418 -0.01508 0.00833529
0.0353732 -0.0120258 0.00664714
0.0430575 -0.00433204 0.00239449
0.0341294 0.00503285 -0.00278185
0.0119628 0.0123781 -0.00684356
-0.0214632 -0.000209239 -0.0133753
-0.0564445 -0.000169862 -0.0108604
-0.0695214 -6.3731e-05 -0.00407476
-0.0557759 6.69923e-05 0.00428327
-0.0205116 0.00017187 0.0109888
0.0226662 0.000210438 0.0134548
0.0570992 0.000167818 0.0107298
0.0695029 6.04528e-05 0.00386517
0.0550917 -7.02326e-05 -0.00449045
0.0193103 -0.000172813 -0.0110468
-0.0213492 -0.0153249 -0.0133042
-0.0561447 -0.012442 -0.0108027
-0.069152 -0.00466813 -0.00405311
-0.0554797 0.00490702 0.00426052
-0.0204026 0.012589 0.0109304
0.0225458 0.0154141 0.0133833
0.0567958 0.0122923 0.0106728
0.0691337 0.00442801 0.00384463
0.054799 -0.00514437 -0.00446659
0.0192077 -0.012657 -0.0109881
-0.0129985 -0.0245281 -0.0081003
-0.0341838 -0.0199139 -0.00657729
-0.0421035 -0.00747153 -0.00246775
-0.0337789 0.00785387 0.00259403
-0.0124222 0.0201492 0.00665501
0.0137271 0.0246708 0.00814844
0.0345803 0.0196742 0.00649813
0.0420923 0.0070872 0.00234081
0.0333645 -0.00823374 -0.00271949
0.0116947 -0.020258 -0.00669015
0.000367112 -0.0242681 0.000228774
0.000965443 -0.0197028 0.00018576
0.00118911 -0.00739235 6.96958e-05
0.000954007 0.00777064 -7.32622e-05
0.000350836 0.0199357 -0.000187956
-0.000387689 0.0244094 -0.000230133
-0.000976638 0.0194657 -0.000183525
-0.0011888 0.00701211 -6.61108e-05
-0.000942302 -0.00814649 7.68057e-05
-0.000330289 -0.0200434 0.000188948
0.0135911 -0.0146454 0.00846959
0.0357423 -0.0118903 0.00687714
0.0440229 -0.00446116 0.00258025
0.0353188 0.00468945 -0.00271229
0.0129885 0.0120308 -0.00695841
-0.0143528 0.0147306 -0.0085199
-0.0361569 0.0117472 -0.00679439
-0.0440112 0.00423169 -0.00244752
-0.0348854 -0.00491627 0.00284347
-0.0122278 -0.0120958 0.00699515
0.0215715 0.000627668 0.0134428
0.0567294 0.000509591 0.0109153
0.0698722 0.000191195 0.00409532
0.0560574 -0.000200979 -0.00430489
0.0206151 -0.000515613 -0.0110443
-0.0227806 -0.00063132 -0.0135227
-0.0573873 -0.000503459 -0.0107839
-0.0698536 -0.00018136 -0.00388466
-0.0553697 0.000210699 0.00451311
-0.0194078 0.000518399 0.0111026
0.0212295 0.0156585 0.0132296
0.0558292 0.0127125 0.0107421
0.0687635 0.00476963 0.00403034
0.055168 -0.00501371 -0.00423659
0.020288 -0.0128627 -0.010869
-0.0224191 -0.0157492 -0.0133081
-0.0564767 -0.0125595 -0.0106128
-0.0687453 -0.00452429 -0.00382303
-0.0544912 0.0052562 0.0044415
-0.0191001 0.0129326 0.0109265
0.012697 0.0246483 0.0079124
0.0331923 0.0198935 0.00638607
0.0408818 0.00746371 0.00239595
0.0327988 -0.00784565 -0.00251855
0.0120618 -0.0201281 -0.00646138
-0.0133288 -0.024645 -0.00791135
-0.033577 -0.0196536 -0.00630907
-0.040871 -0.00707978 -0.0022727
-0.0323966 0.00822551 0.00264049
-0.0114234 0.0203573 0.00653496
0 0.0603909 0
0 0.0487413 0
0 0.0182869 0
0 -0.0192227 0
0 -0.049316 0
0 -0.0603829 0
0 -0.0481536 0
0 -0.0173462 0
0 0.0201534 0
0 0.0498777 0
-0.00795243 0.0370917 0.0309181
-0.0207892 0.0299365 0.0249539
-0.0256053 0.0112317 0.00936228
-0.0205427 -0.0118064 -0.00984138
-0.0075546 -0.0302895 -0.0252482
0.00834814 -0.0370867 -0.030914
0.0210301 -0.0295756 -0.024653
0.0255985 -0.0106539 -0.00888069
0.0202908 0.0123781 0.0103179
0.00715476 0.0306345 0.0255357
-0.0128368 -0.000517847 0.0499078
-0.0335577 -0.000417952 0.0402804
-0.0413319 -0.000156808 0.0151125
-0.0331599 0.000164833 -0.0158859
-0.0121946 0.00042288 -0.0407554
0.0134755 0.000517778 -0.0499012
0.0339466 0.000412912 -0.0397947
0.0413209 0.000148742 -0.0143351
0.0327533 -0.000172813 0.016655
0.0115492 -0.000427697 0.0412195
-0.0127686 -0.0379276 0.0496427
-0.0333795 -0.0306112 0.0400664
-0.0411123 -0.0114848 0.0150322
-0.0329837 0.0120725 -0.0158015
-0.0121298 0.0309722 -0.0405389
0.0134039 0.0379225 -0.0496361
0.0337663 0.0302421 -0.0395833
0.0411014 0.010894 -0.014259
0.0325793 -0.012657 0.0165665
0.0114878 -0.0313249 0.0410006
-0.00777416 -0.0607046 0.030225
-0.0203231 -0.0489944 0.0243945
-0.0250313 -0.0183819 0.00915241
-0.0200822 0.0193225 -0.00962077
-0.00738525 0.0495722 -0.0246822
0.008161 0.0606965 -0.030221
0.0205587 0.0484036 -0.0241004
0.0250247 0.0174363 -0.00868162
0.019836 -0.0202581 0.0100866
0.00699437 -0.0501367 0.0249633
0.000219563 -0.0600613 -0.000853636
0.00057398 -0.0484752 -0.000688966
0.000706951 -0.0181871 -0.000258488
0.000567175 0.0191178 0.000271716
0.000208579 0.0490468 0.000697091
-0.000230488 0.0600533 0.000853522
-0.000580632 0.0478907 0.000680659
-0.000706763 0.0172516 0.000245192
-0.00056022 -0.0200434 -0.000284872
-0.00019754 -0.0496054 -0.00070503
0.00812858 -0.0362459 -0.031603
0.0212497 -0.0292539 -0.0255066
0.0261725 -0.0109756 -0.00956966
0.0209977 0.0115372 0.0100594
0.00772194 0.0295989 0.0258074
-0.00853306 0.0362411 0.0315988
-0.0214959 0.0289012 0.0251991
-0.0261655 0.010411 0.00907741
-0.0207403 -0.0120958 -0.0105464
-0.00731324 -0.029936 -0.0261013
0.0129015 0.00155342 -0.0501596
0.0337271 0.00125376 -0.0404837
0.0415405 0.000470388 -0.0151888
0.0333272 -0.00049446 0.015966
0.0122561 -0.00126854 0.0409611
-0.0135435 -0.00155321 0.050153
-0.0341179 -0.00123864 0.0399955
-0.0415294 -0.000446192 0.0144075
-0.0329185 0.000518399 -0.0167391
-0.0116074 0.00128299 -0.0414276
0.012697 0.0387534 -0.0493644
0.0331923 0.0312777 -0.0398418
0.0408818 0.0117349 -0.014948
0.0327988 -0.0123354 0.0157129
0.0120618 -0.0316465 0.0403116
-0.0133288 -0.0387482 0.0493578
-0.033577 -0.0309006 0.0393614
-0.040871 -0.0111312 0.0141791
-0.0323966 0.0129326 -0.0164737
-0.0114234 0.0320069 -0.0407707
0.00759383 0.061002 -0.0295239
0.0198517 0.0492345 -0.0238287
0.0244507 0.018472 -0.00894011
0.0196164 -0.0194172 0.0093976
0.00721394 -0.0498151 0.0241096
-0.0079717 -0.0609939 0.02952
-0.0200818 -0.0486409 0.0235413
-0.0244442 -0.0175218 0.00848024
-0.0193758 0.0203573 -0.0098526
-0.00683213 0.0503824 -0.0243842
