# vtk DataFile Version 3.0
Velocity field
ASCII
DATASET STRUCTURED_POINTS
DIMENSIONS 8 8 8
SPACING 0.8 0.8 0.8
ORIGIN 0 0 0
POINT_DATA 512
VECTORS velocity float
0 0.000725335 0
0 0.000505346 0
0 -2.11795e-05 0
0 -0.000534858 0
0 -0.000724098 0
0 -0.000474111 0
0 6.34662e-05 0
0 0.000562545 0
0 0.000285357 0.000740313
0 0.00019881 0.00054685
0 -8.33228e-06 -2.29189e-05
0 -0.00021042 -0.000578785
0 -0.00028487 -0.000783569
0 -0.000186521 -0.000513049
0 2.49685e-05 6.86787e-05
0 0.000221313 0.000574161
0 -0.000327715 0.00103156
0 -0.000228322 0.000761988
0 9.56914e-06 -3.19355e-05
0 0.000241655 -0.000806488
0 0.000327157 -0.00109183
0 0.000214209 -0.00071489
0 -2.86748e-05 9.56978e-05
0 -0.000254165 0.000800044
0 -0.000742 0.000697079
0 -0.000516956 0.000514914
0 2.16661e-05 -2.15805e-05
0 0.000547146 -0.000544985
0 0.000740734 -0.000737809
0 0.000485003 -0.000483088
0 -6.49244e-05 6.46679e-05
0 -0.00057547 0.000540631
0 -0.000706197 -6.02423e-05
0 -0.000492012 -4.44994e-05
0 2.06206e-05 1.86501e-06
0 0.000520745 4.70981e-05
0 0.000704993 6.37621e-05
0 0.000461601 4.17489e-05
0 -6.17916e-05 -5.58867e-06
0 -0.000547702 -4.67218e-05
0 -0.000242024 -0.000781022
0 -0.00016862 -0.00057692
0 7.067e-06 2.41792e-05
0 0.000178467 0.000610612
0 0.000241612 0.000826656
0 0.000158198 0.000541261
0 -2.11769e-05 -7.24553e-05
0 -0.000187706 -0.000605734
0 0.000368957 -0.00102804
0 0.000257055 -0.000759389
0 -1.07734e-05 3.18266e-05
0 -0.000272066 0.000803737
0 -0.000368328 0.00108811
0 -0.000241166 0.000712452
0 3.22834e-05 -9.53715e-05
0 0.00028615 -0.000797316
0 0.000756134 -0.000651468
0 0.000526803 -0.000453882
0 -2.20788e-05 1.90226e-05
0 -0.000557568 0.000480389
0 -0.000754844 0.000650358
0 -0.000494242 0.000425828
0 6.61611e-05 -5.70029e-05
0 0.000586431 -0.000505257
0 0.000505346 0
0 0.000382252 0
0 -1.60205e-05 0
0 -0.000404576 0
0 -0.000547721 0
0 -0.000358626 0
0 4.8007e-05 0
0 0.000391929 0
0.000157811 0.00019881 0.000731228
0.000377731 0.000138522 0.000509485
0.000368514 -5.80557e-06 -2.13529e-05
0.000135762 -0.000146612 -0.000539239
-0.000179342 -0.000198485 -0.000730029
-0.000385659 -0.00012996 -0.000477994
-0.000358041 1.73969e-05 6.39861e-05
-0.000113232 0.00015419 0.000567115
0.000219895 -0.000228322 0.0010189
0.000526335 -0.000159084 0.000709923
0.000513493 6.66732e-06 -2.97535e-05
0.000189172 0.000168374 -0.000751382
-0.000249897 0.000227947 -0.00101723
-0.000537382 0.000149251 -0.000666044
-0.000498899 -1.99792e-05 8.91591e-05
-0.000157779 -0.000177078 0.000790226
0.000148595 -0.000516956 0.000688524
0.000355672 -0.00036019 0.000479732
0.000346993 1.50959e-05 -2.01059e-05
0.000127833 0.000381225 -0.000507748
-0.000168868 0.000516108 -0.000687396
-0.000363137 0.000337927 -0.00045008
-0.000337131 -4.52362e-05 6.02493e-05
-0.00010662 -0.000400934 0.000533996
-1.28417e-05 -0.000492012 -5.9503e-05
-3.07375e-05 -0.00034281 -4.14589e-05
-2.99875e-05 1.43675e-05 1.73758e-06
-1.10475e-05 0.00036283 4.38801e-05
1.45938e-05 0.000491205 5.94055e-05
3.13826e-05 0.000321621 3.88963e-05
2.91352e-05 -4.30534e-05 -5.20681e-06
9.21418e-06 -0.000381588 -4.61485e-05
-0.000166488 -0.00016862 -0.000771437
-0.000398502 -0.000117486 -0.000537501
-0.000388778 4.92395e-06 2.25271e-05
-0.000143227 0.000124347 0.000568891
0.000189204 0.000168343 0.000770173
0.000406866 0.000110225 0.000504278
0.000377729 -1.47551e-05 -6.75046e-05
0.000119459 -0.000130776 -0.0005983
-0.000219146 0.000257055 -0.00101543
-0.00052454 0.000179103 -0.000707502
-0.000511741 -7.50637e-06 2.9652e-05
-0.000188527 -0.000189563 0.00074882
0.000249045 -0.000256633 0.00101376
0.00053555 -0.000168033 0.000663772
0.000497197 2.24935e-05 -8.8855e-05
0.000157241 0.000199363 -0.000787531
-0.000138872 0.000526803 -0.000643473
-0.000332378 0.000367027 -0.000448312
-0.000324268 -1.53824e-05 1.87891e-05
-0.000119461 -0.000388462 0.000474493
0.000157809 -0.000525905 0.000642376
0.000339354 -0.000344342 0.000420602
0.000315052 4.60949e-05 -5.63034e-05
9.96434e-05 0.000408571 -0.000499056
0 -2.11795e-05 0
0 -1.60205e-05 0
0 6.71433e-07 0
0 1.69561e-05 0
0 2.29554e-05 0
0 1.50303e-05 0
0 -2.01201e-06 0
0 -1.64261e-05 0
0.000219895 -8.33228e-06 0.000278589
0.000526335 -5.80557e-06 0.000194108
0.000513493 2.43316e-07 -8.13521e-06
0.000189172 6.14461e-06 -0.000205444
-0.000249897 8.31867e-06 -0.000278132
-0.000537382 5.44673e-06 -0.00018211
-0.000498899 -7.2912e-07 2.43779e-05
-0.000157779 -6.46223e-06 0.000216064
0.000306405 9.56914e-06 0.00038819
0.000733402 6.66732e-06 0.000270472
0.000715507 -2.79433e-07 -1.13357e-05
0.000263595 -7.05668e-06 -0.000286268
-0.00034821 -9.55345e-06 -0.000387554
-0.000748796 -6.25521e-06 -0.000253755
-0.000695172 8.37346e-07 3.39685e-05
-0.000219852 7.4215e-06 0.000301067
0.000207054 2.16661e-05 0.00026232
0.000495597 1.50959e-05 0.000182772
0.000483505 -6.3268e-07 -7.66012e-06
0.000178125 -1.59774e-05 -0.000193446
-0.000235303 -2.16305e-05 -0.00026189
-0.000506 -1.41628e-05 -0.000171475
-0.000469763 1.89589e-06 2.29543e-05
-0.000148565 1.68035e-05 0.000203446
-1.78938e-05 2.06206e-05 -2.267e-05
-4.283e-05 1.43675e-05 -1.57953e-05
-4.1785e-05 -6.02152e-07 6.61996e-07
-1.53937e-05 -1.52065e-05 1.67178e-05
2.03352e-05 -2.05868e-05 2.26328e-05
4.3729e-05 -1.34794e-05 1.4819e-05
4.05974e-05 1.8044e-06 -1.98373e-06
1.28392e-05 1.59927e-05 -1.7582e-05
-0.000231987 7.067e-06 -0.000293909
-0.000555277 4.92395e-06 -0.000204781
-0.000541729 -2.06367e-07 8.58256e-06
-0.000199575 -5.2115e-06 0.000216741
0.000263639 -7.05541e-06 0.000293427
0.000566932 -4.6196e-06 0.000192124
0.000526332 6.18397e-07 -2.57184e-05
0.000166455 5.48093e-06 -0.000227946
-0.00030536 -1.07734e-05 -0.000386866
-0.000730901 -7.50637e-06 -0.00026955
-0.000713067 3.14598e-07 1.12971e-05
-0.000262696 7.94473e-06 0.000285291
0.000347023 1.07557e-05 0.000386232
0.000746242 7.0424e-06 0.000252889
0.000692801 -9.42723e-07 -3.38527e-05
0.000219102 -8.35546e-06 -0.00030004
-0.000193506 -2.20788e-05 -0.000245156
-0.00046314 -1.53824e-05 -0.000170802
-0.000451839 6.4469e-07 7.15845e-06
-0.000166459 1.62807e-05 0.000180777
0.000219893 2.20411e-05 0.000244738
0.000472861 1.44316e-05 0.000160245
0.000438998 -1.93187e-06 -2.1451e-05
0.000138844 -1.71235e-05 -0.000190135
0 -0.000534858 0
0 -0.000404576 0
0 1.69561e-05 0
0 0.000428203 0
0 0.000579707 0
0 0.000379569 0
0 -5.08105e-05 0
0 -0.000414817 0
0.000148595 -0.00021042 -0.000343037
0.000355672 -0.000146612 -0.000239012
0.000346993 6.14461e-06 1.00172e-05
0.000127833 0.000155174 0.00025297
-0.000168868 0.000210076 0.000342475
-0.000363137 0.00013755 0.000224239
-0.000337131 -1.84129e-05 -3.00174e-05
-0.00010662 -0.000163195 -0.000266048
0.000207054 0.000241655 -0.000477993
0.000495597 0.000168374 -0.000333043
0.000483505 -7.05668e-06 1.39581e-05
0.000178125 -0.000178207 0.000352492
-0.000235303 -0.000241259 0.000477209
-0.000506 -0.000157967 0.000312457
-0.000469763 2.1146e-05 -4.18267e-05
-0.000148565 0.00018742 -0.000370715
0.000139917 0.000547146 -0.000323004
0.000334901 0.000381225 -0.000225054
0.000326729 -1.59774e-05 9.43219e-06
0.000120368 -0.000403488 0.000238197
-0.000159007 -0.000546248 0.000322475
-0.00034193 -0.000357662 0.000211143
-0.000317443 4.78779e-05 -2.82644e-05
-0.000100393 0.000424348 -0.000250511
-1.20918e-05 0.000520745 2.79144e-05
-2.89424e-05 0.00036283 1.94494e-05
-2.82363e-05 -1.52065e-05 -8.15139e-07
-1.04023e-05 -0.000384019 -2.05852e-05
1.37415e-05 -0.000519891 -2.78686e-05
2.95499e-05 -0.000340404 -1.82472e-05
2.74338e-05 4.55677e-05 2.44264e-06
8.67607e-06 0.000403872 2.16494e-05
-0.000156766 0.000178467 0.000361901
-0.000375229 0.000124347 0.000252155
-0.000366074 -5.2115e-06 -1.0568e-05
-0.000134863 -0.000131609 -0.000266881
0.000178154 -0.000178175 -0.000361307
0.000383105 -0.000116662 -0.000236569
0.00035567 1.56168e-05 3.16681e-05
0.000112483 0.000138413 0.000280678
-0.000206348 -0.000272066 0.000476363
-0.000493907 -0.000189563 0.000331907
-0.000481856 7.94473e-06 -1.39105e-05
-0.000177517 0.000200633 -0.00035129
0.000234501 0.00027162 -0.000475581
0.000504274 0.000177846 -0.000311392
0.000468161 -2.38071e-05 4.16841e-05
0.000148059 -0.000211005 0.000369451
-0.000130762 -0.000557568 0.00030187
-0.000312967 -0.000388462 0.000210315
-0.000305331 1.62807e-05 -8.81446e-06
-0.000112485 0.000411147 -0.000222597
0.000148593 0.000556617 -0.000301355
0.000319536 0.000364451 -0.000197315
0.000296653 -4.87868e-05 2.64134e-05
9.38243e-05 -0.000432431 0.00023412
0 -0.000724098 0
0 -0.000547721 0
0 2.29554e-05 0
0 0.000579707 0
0 0.000784816 0
0 0.000513866 0
0 -6.87881e-05 0
0 -0.000561586 0
-1.28417e-05 -0.00028487 -0.000756582
-3.07375e-05 -0.000198485 -0.00052715
-2.99875e-05 8.31867e-06 2.20933e-05
-1.10475e-05 0.000210076 0.000557935
1.45938e-05 0.000284405 0.000755341
3.13826e-05 0.000186217 0.000494567
2.91352e-05 -2.49277e-05 -6.62046e-05
9.21418e-06 -0.000220935 -0.000586779
-1.78938e-05 0.000327157 -0.00105423
-4.283e-05 0.000227947 -0.000734538
-4.1785e-05 -9.55345e-06 3.07851e-05
-1.53937e-05 -0.000241259 0.000777434
2.03352e-05 -0.00032662 0.0010525
4.3729e-05 -0.000213858 0.000689137
4.05974e-05 2.86278e-05 -9.22504e-05
1.28392e-05 0.000253731 -0.000817626
-1.20918e-05 0.000740734 -0.000712398
-2.89424e-05 0.000516108 -0.000496365
-2.82363e-05 -2.16305e-05 2.08031e-05
-1.04023e-05 -0.000546248 0.000525352
1.37415e-05 -0.000739519 0.00071123
2.95499e-05 -0.000484208 0.000465685
2.74338e-05 6.48179e-05 -6.23383e-05
8.67607e-06 0.000574488 -0.000552512
1.04498e-06 0.000704993 6.15662e-05
2.50123e-06 0.000491205 4.28964e-05
2.4402e-06 -2.05868e-05 -1.79782e-06
8.98979e-07 -0.000519891 -4.54015e-05
-1.18756e-06 -0.000703836 -6.14652e-05
-2.55373e-06 -0.000460844 -4.0245e-05
-2.37085e-06 6.16903e-05 5.38734e-06
-7.49795e-07 0.000546768 4.77486e-05
1.35478e-05 0.000241612 0.000798186
3.24277e-05 0.000168343 0.000556137
3.16365e-05 -7.05541e-06 -2.33082e-05
1.1655e-05 -0.000178175 -0.000588615
-1.53963e-05 -0.000241215 -0.000796876
-3.31083e-05 -0.000157938 -0.000521763
-3.07373e-05 2.11422e-05 6.98451e-05
-9.72085e-06 0.000187386 0.000619045
1.78328e-05 -0.000368328 0.00105064
4.2684e-05 -0.000256633 0.000732033
4.16425e-05 1.07557e-05 -3.06801e-05
1.53412e-05 0.00027162 -0.000774783
-2.02658e-05 0.000367724 -0.00104891
-4.35799e-05 0.000240771 -0.000686786
-4.0459e-05 -3.22305e-05 9.19358e-05
-1.27954e-05 -0.000285662 0.000814838
1.13006e-05 -0.000754844 0.000665785
2.70469e-05 -0.000525905 0.000463857
2.6387e-05 2.20411e-05 -1.94406e-05
9.72105e-06 0.000556617 -0.000490946
-1.28416e-05 0.000753557 -0.00066465
-2.76146e-05 0.000493399 -0.000435186
-2.56371e-05 -6.60483e-05 5.82557e-05
-8.10839e-06 -0.000585431 0.00051636
0 -0.000474111 0
0 -0.000358626 0
0 1.50303e-05 0
0 0.000379569 0
0 0.000513866 0
0 0.000336459 0
0 -4.50397e-05 0
0 -0.000367704 0
-0.000166488 -0.000186521 -0.000711194
-0.000398502 -0.00012996 -0.000495526
-0.000388778 5.44673e-06 2.07679e-05
-0.000143227 0.00013755 0.000524464
0.000189204 0.000186217 0.000710028
0.000406866 0.000121927 0.000464898
0.000377729 -1.63216e-05 -6.2233e-05
0.000119459 -0.00014466 -0.000551578
-0.000231987 0.000214209 -0.000990988
-0.000555277 0.000149251 -0.000690473
-0.000541729 -6.25521e-06 2.89383e-05
-0.000199575 -0.000157967 0.000730796
0.000263639 -0.000213858 0.000989363
0.000566932 -0.000140026 0.000647795
0.000526332 1.87443e-05 -8.67163e-05
0.000166455 0.000166133 -0.000768576
-0.000156766 0.000485003 -0.000669661
-0.000375229 0.000337927 -0.000466588
-0.000366074 -1.41628e-05 1.95551e-05
-0.000134863 -0.000357662 0.000493836
0.000178154 -0.000484208 0.000668563
0.000383105 -0.00031704 0.000437748
0.00035567 4.24402e-05 -5.85986e-05
0.000112483 0.000376152 -0.000519366
1.35478e-05 0.000461601 5.78728e-05
3.24277e-05 0.000321621 4.0323e-05
3.16365e-05 -1.34794e-05 -1.68997e-06
1.1655e-05 -0.000340404 -4.26778e-05
-1.53963e-05 -0.000460844 -5.77778e-05
-3.31083e-05 -0.000301742 -3.78306e-05
-3.07373e-05 4.03923e-05 5.06415e-06
-9.72085e-06 0.000358002 4.48842e-05
0.000175643 0.000158198 0.000750302
0.000420415 0.000110225 0.000522774
0.000410157 -4.6196e-06 -2.19099e-05
0.000151103 -0.000116662 -0.000553304
-0.000199608 -0.000157938 -0.000749071
-0.000429239 -0.000103412 -0.000490462
-0.0003985 1.38431e-05 6.56551e-05
-0.000126028 0.000122693 0.000581909
0.000231196 -0.000241166 0.000987608
0.000553384 -0.000168033 0.000688118
0.000539881 7.0424e-06 -2.88396e-05
0.000198894 0.000177846 -0.000728303
-0.00026274 0.000240771 -0.000985988
-0.000564999 0.000157647 -0.000645586
-0.000524537 -2.11032e-05 8.64205e-05
-0.000165888 -0.00018704 0.000765955
0.000146508 -0.000494242 0.000625845
0.000350655 -0.000344342 0.00043603
0.000342099 1.44316e-05 -1.82744e-05
0.00012603 0.000364451 -0.000461494
-0.000166487 0.000493399 -0.000624777
-0.000358015 0.000323058 -0.000409079
-0.000332376 -4.32458e-05 5.47609e-05
-0.000105123 -0.000383317 0.000485384
0 6.34662e-05 0
0 4.8007e-05 0
0 -2.01201e-06 0
0 -5.08105e-05 0
0 -6.87881e-05 0
0 -4.50397e-05 0
0 6.02918e-06 0
0 4.92222e-05 0
-0.000219146 2.49685e-05 -0.000234406
-0.00052454 1.73969e-05 -0.000163323
-0.000511741 -7.2912e-07 6.84498e-06
-0.000188527 -1.84129e-05 0.00017286
0.000249045 -2.49277e-05 0.000234021
0.00053555 -1.63216e-05 0.000153228
0.000497197 2.18488e-06 -2.05116e-05
0.000157241 1.93647e-05 -0.000181797
-0.00030536 -2.86748e-05 -0.000326624
-0.000730901 -1.99792e-05 -0.000227576
-0.000713067 8.37346e-07 9.53789e-06
-0.000262696 2.1146e-05 0.000240866
0.000347023 2.86278e-05 0.000326088
0.000746242 1.87443e-05 0.000213509
0.000692801 -2.50919e-06 -2.85812e-05
0.000219102 -2.22392e-05 -0.000253318
-0.000206348 -6.49244e-05 -0.000220716
-0.000493907 -4.52362e-05 -0.000153785
-0.000481856 1.89589e-06 6.44524e-06
-0.000177517 4.78779e-05 0.000162766
0.000234501 6.48179e-05 0.000220354
0.000504274 4.24402e-05 0.000144279
0.000468161 -5.6812e-06 -1.93138e-05
0.000148059 -5.03531e-05 -0.00017118
1.78328e-05 -6.17916e-05 1.90745e-05
4.2684e-05 -4.30534e-05 1.32902e-05
4.16425e-05 1.8044e-06 -5.57004e-07
1.53412e-05 4.55677e-05 -1.40664e-05
-2.02658e-05 6.16903e-05 -1.90432e-05
-4.35799e-05 4.03923e-05 -1.24688e-05
-4.0459e-05 -5.40707e-06 1.66911e-06
-1.27954e-05 -4.79235e-05 1.47936e-05
0.000231196 -2.11769e-05 0.000247295
0.000553384 -1.47551e-05 0.000172303
0.000539881 6.18397e-07 -7.22138e-06
0.000198894 1.56168e-05 -0.000182366
-0.00026274 2.11422e-05 -0.00024689
-0.000564999 1.38431e-05 -0.000161653
-0.000524537 -1.85308e-06 2.16395e-05
-0.000165888 -1.64241e-05 0.000191794
0.000304319 3.22834e-05 0.00032551
0.000728408 2.24935e-05 0.0002268
0.000710635 -9.42723e-07 -9.50536e-06
0.0002618 -2.38071e-05 -0.000240044
-0.000345839 -3.22305e-05 -0.000324976
-0.000743697 -2.11032e-05 -0.000212781
-0.000690438 2.82496e-06 2.84837e-05
-0.000218355 2.50379e-05 0.000252454
0.000192846 6.61611e-05 0.000206275
0.00046156 4.60949e-05 0.000143713
0.000450298 -1.93187e-06 -6.02313e-06
0.000165891 -4.87868e-05 -0.000152106
-0.000219143 -6.60483e-05 -0.000205923
-0.000471248 -4.32458e-05 -0.00013483
-0.0004375 5.78904e-06 1.80489e-05
-0.000138371 5.13123e-05 0.00015998
0 0.000562545 0
0 0.000391929 0
0 -1.64261e-05 0
0 -0.000414817 0
0 -0.000561586 0
0 -0.000367704 0
0 4.92222e-05 0
0 0.000436291 0
-0.000138872 0.000221313 0.00038457
-0.000332378 0.00015419 0.000267933
-0.000324268 -6.46223e-06 -1.12293e-05
-0.000119461 -0.000163195 -0.00028358
0.000157809 -0.000220935 -0.000383915
0.000339354 -0.00014466 -0.000251372
0.000315052 1.93647e-05 3.36496e-05
9.96434e-05 0.000171643 0.00029826
-0.000193506 -0.000254165 0.000535866
-0.00046314 -0.000177078 0.000373341
-0.000451839 7.4215e-06 -1.5647e-05
-0.000166459 0.00018742 -0.000395144
0.000219893 0.000253731 -0.000534952
0.000472861 0.000166133 -0.000350265
0.000438998 -2.22392e-05 4.68878e-05
0.000138844 -0.000197122 0.000415599
-0.000130762 -0.00057547 0.000362112
-0.000312967 -0.000400934 0.000252286
-0.000305331 1.68035e-05 -1.05735e-05
-0.000112485 0.000424348 -0.000267019
0.000148593 0.000574488 -0.000361494
0.000319536 0.000376152 -0.000236692
0.000296653 -5.03531e-05 3.16845e-05
9.38243e-05 -0.000446315 0.000280842
1.13006e-05 -0.000547702 -3.12941e-05
2.70469e-05 -0.000381588 -2.18028e-05
2.6387e-05 1.59927e-05 9.13772e-07
9.72105e-06 0.000403872 2.3076e-05
-1.28416e-05 0.000546768 3.12407e-05
-2.76146e-05 0.000358002 2.04552e-05
-2.56371e-05 -4.79235e-05 -2.7382e-06
-8.10839e-06 -0.000424779 -2.42706e-05
0.000146508 -0.000187706 -0.000405717
0.000350655 -0.000130776 -0.000282666
0.000342099 5.48093e-06 1.18468e-05
0.00012603 0.000138413 0.000299173
-0.000166487 0.000187386 0.000405025
-0.000358015 0.000122693 0.000265195
-0.000332376 -1.64241e-05 -3.54999e-05
-0.000105123 -0.000145578 -0.00031466
0.000192846 0.00028615 -0.000534038
0.00046156 0.000199363 -0.000372068
0.000450298 -8.35546e-06 1.55937e-05
0.000165891 -0.000211005 0.000393796
-0.000219143 -0.000285662 0.000533127
-0.000471248 -0.00018704 0.00034907
-0.0004375 2.50379e-05 -4.67279e-05
-0.000138371 0.000221928 -0.000414182
0.000122206 0.000586431 -0.000338418
0.000292489 0.000408571 -0.000235778
0.000285353 -1.71235e-05 9.88166e-06
0.000105125 -0.000432431 0.000249548
-0.00013887 -0.000585431 0.000337841
-0.000298629 -0.000383317 0.000221205
-0.000277243 5.13123e-05 -2.96113e-05
-8.76853e-05 0.000454816 -0.000262466
