# vtk DataFile Version 3.0
Velocity field
ASCII
DATASET STRUCTURED_POINTS
DIMENSIONS 8 8 8
SPACING 0.8 0.8 0.8
ORIGIN 0 0 0
POINT_DATA 512
VECTORS velocity float
0 0.000598689 0
0 0.000417111 0
0 -1.74815e-05 0
0 -0.00044147 0
0 -0.000597669 0
0 -0.00039133 0
0 5.23848e-05 0
0 0.000464323 0
0 0.000235532 0.000611052
0 0.000164097 0.000451368
0 -6.87744e-06 -1.89172e-05
0 -0.00017368 -0.000477728
0 -0.000235131 -0.000646755
0 -0.000153954 -0.000423469
0 2.06089e-05 5.66872e-05
0 0.000182671 0.000473911
0 -0.000270495 0.000851448
0 -0.000188456 0.000628943
0 7.89834e-06 -2.63595e-05
0 0.000199462 -0.000665672
0 0.000270034 -0.000901197
0 0.000176808 -0.000590068
0 -2.36681e-05 7.89887e-05
0 -0.000209787 0.000660354
0 -0.000612444 0.000575367
0 -0.000426694 0.000425009
0 1.78831e-05 -1.78125e-05
0 0.000451613 -0.000449829
0 0.0006114 -0.000608985
0 0.00040032 -0.000398739
0 -5.35884e-05 5.33767e-05
0 -0.000474991 0.000446235
0 -0.000582893 -4.97238e-05
0 -0.000406105 -3.67297e-05
0 1.70202e-05 1.53937e-06
0 0.000429821 3.88747e-05
0 0.000581899 5.26291e-05
0 0.000381004 3.44594e-05
0 -5.10026e-05 -4.61287e-06
0 -0.000452072 -3.85641e-05
0 -0.000199766 -0.000644653
0 -0.000139178 -0.000476188
0 5.83308e-06 1.99574e-05
0 0.000147306 0.000503997
0 0.000199426 0.000682319
0 0.000130576 0.000446755
0 -1.74794e-05 -5.98044e-05
0 -0.000154932 -0.000499971
0 0.000304536 -0.000848544
0 0.000212172 -0.000626797
0 -8.89231e-06 2.62696e-05
0 -0.000224563 0.000663402
0 -0.000304017 0.000898124
0 -0.000199058 0.000588056
0 2.66466e-05 -7.87193e-05
0 0.000236188 -0.000658102
0 0.00062411 -0.00053772
0 0.000434822 -0.000374633
0 -1.82237e-05 1.57012e-05
0 -0.000460215 0.000396511
0 -0.000623046 0.000536803
0 -0.000407946 0.000351477
0 5.46092e-05 -4.70501e-05
0 0.000484039 -0.000417037
0 0.000417111 0
0 0.00031551 0
0 -1.32233e-05 0
0 -0.000333936 0
0 -0.000452087 0
0 -0.000296009 0
0 3.96248e-05 0
0 0.000323497 0
0.000130256 0.000164097 0.000603553
0.000311774 0.000114334 0.000420523
0.000304167 -4.79184e-06 -1.76245e-05
0.000112056 -0.000121011 -0.000445081
-0.000148027 -0.000163827 -0.000602557
-0.000318318 -0.000107267 -0.00039453
-0.000295522 1.43592e-05 5.28133e-05
-9.34616e-05 0.000127268 0.000468095
0.000181501 -0.000188456 0.000840999
0.00043443 -0.000131306 0.000585962
0.00042383 5.50312e-06 -2.45581e-05
0.00015614 0.000138974 -0.000620182
-0.000206262 0.000188145 -0.000839611
-0.000443549 0.00012319 -0.000549744
-0.000411785 -1.64906e-05 7.35908e-05
-0.000130231 -0.00014616 0.00065225
0.00012265 -0.000426694 0.000568306
0.000293567 -0.000297297 0.000395964
0.000286404 1.24599e-05 -1.65952e-05
0.000105512 0.000314659 -0.000419088
-0.000139382 0.000425989 -0.000567368
-0.000299729 0.000278921 -0.00037149
-0.000278264 -3.73374e-05 4.97291e-05
-8.80035e-05 -0.000330929 0.000440759
-1.05995e-05 -0.000406105 -4.91136e-05
-2.53704e-05 -0.000282952 -3.42197e-05
-2.47513e-05 1.18587e-05 1.43417e-06
-9.11846e-06 0.000299476 3.62181e-05
1.20455e-05 0.000405435 4.90325e-05
2.59029e-05 0.000265462 3.21045e-05
2.40479e-05 -3.55358e-05 -4.29763e-06
7.60535e-06 -0.000314961 -3.80908e-05
-0.000137419 -0.000139178 -0.000636742
-0.000328918 -9.69718e-05 -0.000443647
-0.000320893 4.06417e-06 1.85936e-05
-0.000118218 0.000102635 0.000469555
0.000156166 0.000138949 0.000635691
0.000335822 9.0978e-05 0.000416225
0.000311773 -1.21787e-05 -5.57174e-05
9.86009e-05 -0.000107942 -0.000493835
-0.000180882 0.000212172 -0.000838131
-0.000432949 0.00014783 -0.000583964
-0.000422385 -6.19567e-06 2.44744e-05
-0.000155608 -0.000156463 0.000618067
0.000205559 -0.000211822 0.000836748
0.000442036 -0.000138692 0.000547869
0.00041038 1.85659e-05 -7.33398e-05
0.000129787 0.000164554 -0.000650025
-0.000114624 0.000434822 -0.000531121
-0.000274344 0.000302943 -0.000370036
-0.00026765 -1.26966e-05 1.55085e-05
-9.8603e-05 -0.000320635 0.000391645
0.000130255 -0.00043408 0.000530215
0.000280102 -0.000284219 0.000347164
0.000260043 3.80466e-05 -4.64727e-05
8.22454e-05 0.000337233 -0.000411919
0 -1.74815e-05 0
0 -1.32233e-05 0
0 5.54199e-07 0
0 1.39955e-05 0
0 1.89473e-05 0
0 1.2406e-05 0
0 -1.66071e-06 0
0 -1.3558e-05 0
0.000181501 -6.87744e-06 0.000229947
0.00043443 -4.79184e-06 0.000160214
0.00042383 2.0083e-07 -6.71471e-06
0.00015614 5.07168e-06 -0.000169571
-0.000206262 6.86612e-06 -0.000229567
-0.000443549 4.49566e-06 -0.000150311
-0.000411785 -6.01806e-07 2.01212e-05
-0.000130231 -5.33391e-06 0.000178339
0.000252906 7.89834e-06 0.000320411
0.000605341 5.50312e-06 0.000223245
0.000590571 -2.3064e-07 -9.35636e-06
0.000217568 -5.8245e-06 -0.000236282
-0.000287409 -7.8853e-06 -0.000319882
-0.000618047 -5.16298e-06 -0.000209446
-0.000573787 6.91135e-07 2.80372e-05
-0.000181465 6.12568e-06 0.0002485
0.000170902 1.78831e-05 0.000216518
0.00040906 1.24599e-05 0.000150858
0.000399079 -5.22206e-07 -6.32257e-06
0.000147022 -1.31876e-05 -0.000159668
-0.000194217 -1.78536e-05 -0.000216161
-0.000417646 -1.16898e-05 -0.000141533
-0.000387737 1.56484e-06 1.89462e-05
-0.000122625 1.38695e-05 0.000167924
-1.47695e-05 1.70202e-05 -1.87117e-05
-3.53514e-05 1.18587e-05 -1.30373e-05
-3.44888e-05 -4.97009e-07 5.46403e-07
-1.27058e-05 -1.25513e-05 1.37986e-05
1.67844e-05 -1.69921e-05 1.86808e-05
3.60934e-05 -1.11257e-05 1.22314e-05
3.35086e-05 1.48933e-06 -1.63735e-06
1.05974e-05 1.32003e-05 -1.45122e-05
-0.000191482 5.83308e-06 -0.000242591
-0.000458319 4.06417e-06 -0.000169024
-0.000447136 -1.70333e-07 7.08394e-06
-0.000164726 -4.30151e-06 0.000178895
0.000217604 -5.82345e-06 0.000242191
0.000467939 -3.81296e-06 0.000158577
0.000434428 5.10418e-07 -2.12277e-05
0.000137392 4.52394e-06 -0.000188146
-0.000252044 -8.89231e-06 -0.000319318
-0.000603277 -6.19567e-06 -0.000222483
-0.000588557 2.59665e-07 9.32445e-06
-0.000216826 6.55749e-06 0.000235476
0.000286428 8.87763e-06 0.000318791
0.000615939 5.81271e-06 0.000208732
0.00057183 -7.78112e-07 -2.79416e-05
0.000180846 -6.89657e-06 -0.000247652
-0.000159719 -1.82237e-05 -0.000202351
-0.000382274 -1.26966e-05 -0.000140979
-0.000372947 5.32125e-07 5.90856e-06
-0.000137395 1.34381e-05 0.000149212
0.000181499 1.81927e-05 0.000202006
0.000390298 1.19118e-05 0.000132266
0.000362347 -1.59456e-06 -1.77056e-05
0.000114602 -1.41337e-05 -0.000156937
0 -0.00044147 0
0 -0.000333936 0
0 1.39955e-05 0
0 0.000353437 0
0 0.000478488 0
0 0.000313295 0
0 -4.19389e-05 0
0 -0.000342389 0
0.00012265 -0.00017368 -0.000283142
0.000293567 -0.000121011 -0.000197278
0.000286404 5.07168e-06 8.26807e-06
0.000105512 0.000128078 0.000208798
-0.000139382 0.000173394 0.000282675
-0.000299729 0.000113532 0.000185084
-0.000278264 -1.51978e-05 -2.4776e-05
-8.80035e-05 -0.0001347 -0.000219595
0.000170902 0.000199462 -0.000394534
0.00040906 0.000138974 -0.000274889
0.000399079 -5.8245e-06 1.15208e-05
0.000147022 -0.00014709 0.000290943
-0.000194217 -0.000199132 0.000393882
-0.000417646 -0.000130384 0.000257898
-0.000387737 1.74537e-05 -3.45233e-05
-0.000122625 0.000154696 -0.000305987
0.000115487 0.000451613 -0.000266607
0.000276423 0.000314659 -0.000185757
0.000269678 -1.31876e-05 7.78522e-06
9.93503e-05 -0.000333034 0.000196605
-0.000131242 -0.000450867 0.000266167
-0.000282225 -0.00029521 0.000174275
-0.000262014 3.95179e-05 -2.33291e-05
-8.28642e-05 0.000350255 -0.000206771
-9.9805e-06 0.000429821 2.30404e-05
-2.38887e-05 0.000299476 1.60533e-05
-2.33059e-05 -1.25513e-05 -6.72806e-07
-8.58595e-06 -0.000316965 -1.69908e-05
1.13421e-05 -0.000429112 -2.30024e-05
2.43901e-05 -0.000280965 -1.5061e-05
2.26435e-05 3.76111e-05 2.01613e-06
7.16121e-06 0.000333355 1.78694e-05
-0.000129394 0.000147306 0.000298712
-0.00030971 0.000102635 0.000208126
-0.000302153 -4.30151e-06 -8.72271e-06
-0.000111314 -0.000108629 -0.00022028
0.000147046 -0.000147063 -0.000298218
0.00031621 -9.62911e-05 -0.000195261
0.000293566 1.28899e-05 2.61384e-05
9.28427e-05 0.000114246 0.000231671
-0.000170319 -0.000224563 0.000393188
-0.000407665 -0.000156463 0.000273952
-0.000397718 6.55749e-06 -1.14815e-05
-0.000146521 0.0001656 -0.00028995
0.000193554 0.000224192 -0.000392539
0.000416222 0.000146792 -0.000257019
0.000386415 -1.96501e-05 3.44055e-05
0.000122207 -0.000174163 0.000304943
-0.00010793 -0.000460215 0.000249162
-0.000258322 -0.000320635 0.000173593
-0.000252019 1.34381e-05 -7.27543e-06
-9.28447e-05 0.00033936 -0.000183731
0.000122648 0.00045943 -0.000248738
0.000263744 0.000300817 -0.000162863
0.000244857 -4.02684e-05 2.18015e-05
7.74423e-05 -0.000356927 0.000193242
0 -0.000597669 0
0 -0.000452087 0
0 1.89473e-05 0
0 0.000478488 0
0 0.000647785 0
0 0.000424144 0
0 -5.67775e-05 0
0 -0.000463531 0
-1.05995e-05 -0.000235131 -0.000624481
-2.53704e-05 -0.000163827 -0.000435103
-2.47513e-05 6.86612e-06 1.82355e-05
-9.11846e-06 0.000173394 0.000460513
1.20455e-05 0.000234744 0.00062345
2.59029e-05 0.000153701 0.00040821
2.40479e-05 -2.0575e-05 -5.46445e-05
7.60535e-06 -0.000182359 -0.000484326
-1.47695e-05 0.000270034 -0.00087016
-3.53514e-05 0.000188145 -0.000606279
-3.44888e-05 -7.8853e-06 2.54096e-05
-1.27058e-05 -0.000199132 0.000641685
1.67844e-05 -0.000269588 0.000868723
3.60934e-05 -0.000176516 0.000568805
3.35086e-05 2.3629e-05 -7.61424e-05
1.05974e-05 0.000209429 -0.000674866
-9.9805e-06 0.0006114 -0.000588012
-2.38887e-05 0.000425989 -0.000409694
-2.33059e-05 -1.78536e-05 1.71706e-05
-8.58595e-06 -0.000450867 0.000433619
1.13421e-05 -0.00061039 0.00058704
2.43901e-05 -0.000399659 0.000384371
2.26435e-05 5.34999e-05 -5.14533e-05
7.16121e-06 0.000474181 -0.000456042
8.62524e-07 0.000581899 5.08165e-05
2.06449e-06 0.000405435 3.54061e-05
2.01411e-06 -1.69921e-05 -1.4839e-06
7.42006e-07 -0.000429112 -3.74738e-05
-9.80193e-07 -0.000580938 -5.07326e-05
-2.10782e-06 -0.000380375 -3.32177e-05
-1.95687e-06 5.09184e-05 4.44665e-06
-6.18879e-07 0.000451301 3.94116e-05
1.11823e-05 0.000199426 0.00065882
2.67654e-05 0.000138949 0.000459029
2.61123e-05 -5.82345e-06 -1.92383e-05
9.61987e-06 -0.000147063 -0.000485836
-1.27079e-05 -0.000199096 -0.000657732
-2.73272e-05 -0.00013036 -0.000430657
-2.53702e-05 1.74505e-05 5.76493e-05
-8.02356e-06 0.000154668 0.000510958
1.47191e-05 -0.000304017 0.000867192
3.52308e-05 -0.000211822 0.000604211
3.43712e-05 8.87763e-06 -2.5323e-05
1.26624e-05 0.000224192 -0.000639496
-1.67272e-05 0.000303515 -0.00086576
-3.59703e-05 0.000198729 -0.000566865
-3.33943e-05 -2.66026e-05 7.58827e-05
-1.05613e-05 -0.000235785 0.000672565
9.32746e-06 -0.000623046 0.000549537
2.23245e-05 -0.00043408 0.000382866
2.17798e-05 1.81927e-05 -1.60462e-05
8.02373e-06 0.00045943 -0.000405225
-1.05994e-05 0.000621984 -0.0005486
-2.2793e-05 0.00040725 -0.000359202
-2.11608e-05 -5.4516e-05 4.80841e-05
-6.69264e-06 -0.000483213 0.000426202
0 -0.00039133 0
0 -0.000296009 0
0 1.2406e-05 0
0 0.000313295 0
0 0.000424144 0
0 0.000277712 0
0 -3.71756e-05 0
0 -0.000303502 0
-0.000137419 -0.000153954 -0.000587018
-0.000328918 -0.000107267 -0.000409001
-0.000320893 4.49566e-06 1.71416e-05
-0.000118218 0.000113532 0.000432887
0.000156166 0.000153701 0.000586048
0.000335822 0.000100637 0.000383721
0.000311773 -1.34717e-05 -5.13663e-05
9.86009e-05 -0.000119402 -0.000455271
-0.000191482 0.000176808 -0.000817958
-0.000458319 0.00012319 -0.000569908
-0.000447136 -5.16298e-06 2.38853e-05
-0.000164726 -0.000130384 0.00060319
0.000217604 -0.000176516 0.000816608
0.000467939 -0.000115575 0.000534682
0.000434428 1.54713e-05 -7.15745e-05
0.000137392 0.000137126 -0.000634381
-0.000129394 0.00040032 -0.000552736
-0.00030971 0.000278921 -0.000385116
-0.000302153 -1.16898e-05 1.61405e-05
-0.000111314 -0.00029521 0.000407606
0.000147046 -0.000399659 0.000551824
0.00031621 -0.000261681 0.000361312
0.000293566 3.50296e-05 -4.83666e-05
9.28427e-05 0.000310475 -0.000428684
1.11823e-05 0.000381004 4.7768e-05
2.67654e-05 0.000265462 3.32821e-05
2.61123e-05 -1.11257e-05 -1.39488e-06
9.61987e-06 -0.000280965 -3.52258e-05
-1.27079e-05 -0.000380375 -4.76891e-05
-2.73272e-05 -0.000249054 -3.1225e-05
-2.53702e-05 3.33393e-05 4.17989e-06
-8.02356e-06 0.000295494 3.70473e-05
0.000144976 0.000130576 0.000619297
0.000347005 9.0978e-05 0.000431492
0.000338538 -3.81296e-06 -1.80842e-05
0.000124719 -9.62911e-05 -0.00045669
-0.000164754 -0.00013036 -0.000618274
-0.000354288 -8.53547e-05 -0.000404822
-0.000328917 1.14259e-05 5.41909e-05
-0.000104023 0.00010127 0.000480306
0.000190829 -0.000199058 0.000815169
0.000456756 -0.000138692 0.000567964
0.000445611 5.81271e-06 -2.38038e-05
0.000164165 0.000146792 -0.000601133
-0.000216862 0.000198729 -0.000813823
-0.000466343 0.00013012 -0.000532859
-0.000432947 -1.74183e-05 7.13304e-05
-0.000136923 -0.000154383 0.000632217
0.000120927 -0.000407946 0.00051657
0.00028943 -0.000284219 0.000359898
0.000282367 1.19118e-05 -1.50836e-05
0.000104025 0.000300817 -0.000380916
-0.000137418 0.00040725 -0.000515689
-0.000295504 0.000266651 -0.000337653
-0.000274342 -3.56949e-05 4.51995e-05
-8.67679e-05 -0.000316389 0.000400634
0 5.23848e-05 0
0 3.96248e-05 0
0 -1.66071e-06 0
0 -4.19389e-05 0
0 -5.67775e-05 0
0 -3.71756e-05 0
0 4.97647e-06 0
0 4.06279e-05 0
-0.000180882 2.06089e-05 -0.000193478
-0.000432949 1.43592e-05 -0.000134804
-0.000422385 -6.01806e-07 5.64976e-06
-0.000155608 -1.51978e-05 0.000142677
0.000205559 -2.0575e-05 0.000193158
0.000442036 -1.34717e-05 0.000126472
0.00041038 1.80337e-06 -1.693e-05
0.000129787 1.59836e-05 -0.000150055
-0.000252044 -2.36681e-05 -0.000269594
-0.000603277 -1.64906e-05 -0.000187838
-0.000588557 6.91135e-07 7.87246e-06
-0.000216826 1.74537e-05 0.000198808
0.000286428 2.3629e-05 0.000269149
0.000615939 1.54713e-05 0.000176228
0.00057183 -2.07105e-06 -2.35905e-05
0.000180846 -1.83562e-05 -0.000209088
-0.000170319 -5.35884e-05 -0.000182179
-0.000407665 -3.73374e-05 -0.000126932
-0.000397718 1.56484e-06 5.31982e-06
-0.000146521 3.95179e-05 0.000134345
0.000193554 5.34999e-05 0.000181878
0.000416222 3.50296e-05 0.000119086
0.000386415 -4.68919e-06 -1.59413e-05
0.000122207 -4.15613e-05 -0.000141292
1.47191e-05 -5.10026e-05 1.57441e-05
3.52308e-05 -3.55358e-05 1.09696e-05
3.43712e-05 1.48933e-06 -4.59744e-07
1.26624e-05 3.76111e-05 -1.16102e-05
-1.67272e-05 5.09184e-05 -1.57181e-05
-3.59703e-05 3.33393e-05 -1.02916e-05
-3.33943e-05 -4.46293e-06 1.37767e-06
-1.05613e-05 -3.95559e-05 1.22106e-05
0.000190829 -1.74794e-05 0.000204117
0.000456756 -1.21787e-05 0.000142217
0.000445611 5.10418e-07 -5.96043e-06
0.000164165 1.28899e-05 -0.000150523
-0.000216862 1.74505e-05 -0.00020378
-0.000466343 1.14259e-05 -0.000133427
-0.000432947 -1.52951e-06 1.7861e-05
-0.000136923 -1.35564e-05 0.000158306
0.000251184 2.66466e-05 0.000268675
0.000601219 1.85659e-05 0.000187198
0.00058655 -7.78112e-07 -7.84561e-06
0.000216087 -1.96501e-05 -0.00019813
-0.000285451 -2.66026e-05 -0.000268231
-0.000613839 -1.74183e-05 -0.000175627
-0.000569879 2.33168e-06 2.35101e-05
-0.00018023 2.06662e-05 0.000208375
0.000159175 5.46092e-05 0.000170259
0.00038097 3.80466e-05 0.00011862
0.000371675 -1.59456e-06 -4.97147e-06
0.000136926 -4.02684e-05 -0.000125548
-0.00018088 -5.4516e-05 -0.000169968
-0.000388967 -3.56949e-05 -0.000111288
-0.000361112 4.77826e-06 1.48975e-05
-0.000114211 4.2353e-05 0.000132047
0 0.000464323 0
0 0.000323497 0
0 -1.3558e-05 0
0 -0.000342389 0
0 -0.000463531 0
0 -0.000303502 0
0 4.06279e-05 0
0 0.000360113 0
-0.000114624 0.000182671 0.000317423
-0.000274344 0.000127268 0.000221151
-0.00026765 -5.33391e-06 -9.26861e-06
-9.8603e-05 -0.0001347 -0.000234066
0.000130255 -0.000182359 -0.000316882
0.000280102 -0.000119402 -0.000207482
0.000260043 1.59836e-05 2.77743e-05
8.22454e-05 0.000141673 0.000246183
-0.000159719 -0.000209787 0.000442302
-0.000382274 -0.00014616 0.000308155
-0.000372947 6.12568e-06 -1.2915e-05
-0.000137395 0.000154696 -0.000326151
0.000181499 0.000209429 -0.000441548
0.000390298 0.000137126 -0.000289108
0.000362347 -1.83562e-05 3.8701e-05
0.000114602 -0.000162704 0.000343034
-0.00010793 -0.000474991 0.000298886
-0.000258322 -0.000330929 0.000208236
-0.000252019 1.38695e-05 -8.72733e-06
-9.28447e-05 0.000350255 -0.000220397
0.000122648 0.000474181 -0.000298376
0.000263744 0.000310475 -0.000195365
0.000244857 -4.15613e-05 2.61523e-05
7.74423e-05 -0.000368387 0.000231806
9.32746e-06 -0.000452072 -2.583e-05
2.23245e-05 -0.000314961 -1.79959e-05
2.17798e-05 1.32003e-05 7.54225e-07
8.02373e-06 0.000333355 1.90469e-05
-1.05994e-05 0.000451301 2.5786e-05
-2.2793e-05 0.000295494 1.68836e-05
-2.11608e-05 -3.95559e-05 -2.26011e-06
-6.69264e-06 -0.000350611 -2.00329e-05
0.000120927 -0.000154932 -0.000334878
0.00028943 -0.000107942 -0.000233312
0.000282367 4.52394e-06 9.77828e-06
0.000104025 0.000114246 0.000246937
-0.000137418 0.000154668 0.000334307
-0.000295504 0.00010127 0.000218891
-0.000274342 -1.35564e-05 -2.93015e-05
-8.67679e-05 -0.00012016 -0.00025972
0.000159175 0.000236188 -0.000440793
0.00038097 0.000164554 -0.000307104
0.000371675 -6.89657e-06 1.2871e-05
0.000136926 -0.000174163 0.000325038
-0.00018088 -0.000235785 0.000440042
-0.000388967 -0.000154383 0.000288122
-0.000361112 2.06662e-05 -3.85691e-05
-0.000114211 0.000183179 -0.000341864
0.000100868 0.000484039 -0.00027933
0.00024142 0.000337233 -0.000194611
0.000235529 -1.41337e-05 8.15629e-06
8.67697e-05 -0.000356927 0.000205976
-0.000114623 -0.000483213 0.000278853
-0.000246487 -0.000316389 0.000182582
-0.000228835 4.2353e-05 -2.44411e-05
-7.23752e-05 0.000375404 -0.000216638
