# vtk DataFile Version 3.0
Velocity field
ASCII
DATASET STRUCTURED_POINTS
DIMENSIONS 10 10 10
SPACING 0.631579 0.631579 0.631579
ORIGIN 0 0 0
POINT_DATA 1000
VECTORS velocity float
0 0.791741 0
0 0.639011 0
0 0.239746 0
0 -0.252015 0
0 -0.646546 0
0 -0.791636 0
0 -0.631306 0
0 -0.227414 0
0 0.264216 0
0 0.65391 0
0 0.486281 0.620189
0 0.392476 0.520179
0 0.14725 0.195162
0 -0.154786 -0.20515
0 -0.397104 -0.526313
0 -0.486217 -0.644421
0 -0.387743 -0.513907
0 -0.139676 -0.185123
0 0.16228 0.215082
0 0.401627 0.512223
0 -0.0067891 1.0011
0 -0.00547946 0.839669
0 -0.0020558 0.31503
0 0.002161 -0.331151
0 0.00554407 -0.849571
0 0.0067882 -1.04022
0 0.00541339 -0.829545
0 0.00195005 -0.298825
0 -0.00226563 0.347184
0 -0.00560721 0.826826
0 -0.49724 0.995787
0 -0.401321 0.835209
0 -0.150569 0.313356
0 0.158274 -0.329392
0 0.406053 -0.845057
0 0.497174 -1.03469
0 0.396482 -0.825137
0 0.142824 -0.297237
0 -0.165937 0.34534
0 -0.410678 0.822434
0 -0.795852 0.606287
0 -0.64233 0.508519
0 -0.240991 0.190787
0 0.253323 -0.200551
0 0.649904 -0.514515
0 0.795747 -0.629975
0 0.634584 -0.502387
0 0.228595 -0.180974
0 -0.265588 0.210261
0 -0.657306 0.500741
0 -0.787419 -0.0171232
0 -0.635523 -0.0143619
0 -0.238437 -0.00538835
0 0.250639 0.00566408
0 0.643017 0.0145313
0 0.787314 0.0177922
0 0.62786 0.0141887
0 0.226172 0.00511118
0 -0.262774 -0.00593833
0 -0.65034 -0.0141423
0 -0.475193 -0.633927
0 -0.383527 -0.531701
0 -0.143893 -0.199485
0 0.151256 0.209694
0 0.388049 0.537971
0 0.47513 0.658696
0 0.378902 0.52529
0 0.136491 0.189224
0 -0.158579 -0.219846
0 -0.392469 -0.523569
0 0.0203657 -1.00616
0 0.0164371 -0.843907
0 0.00616691 -0.316619
0 -0.00648249 0.332822
0 -0.0166309 0.853858
0 -0.020363 1.04547
0 -0.0162389 0.833731
0 -0.00584969 0.300333
0 0.00679635 -0.348936
0 0.0168203 -0.830999
0 0.508067 -0.990204
0 0.410059 -0.830526
0 0.153847 -0.311599
0 -0.16172 0.327545
0 -0.414894 0.84032
0 -0.507999 1.02889
0 -0.405114 0.820512
0 -0.145933 0.295571
0 0.16955 -0.343403
0 0.41962 -0.817823
0 0.799753 -0.592223
0 0.645477 -0.477981
0 0.242172 -0.17933
0 -0.254565 0.188507
0 -0.653089 0.483618
0 -0.799646 0.592145
0 -0.637694 0.472218
0 -0.229715 0.170106
0 0.26689 -0.197634
0 0.660527 -0.489125
0 0.639011 0
0 0.542573 0
0 0.203564 0
0 -0.213981 0
0 -0.548971 0
0 -0.672163 0
0 -0.53603 0
0 -0.193093 0
0 0.224341 0
0 0.527768 0
0.0901747 0.392476 0.686375
0.253965 0.339355 0.595004
0.313139 0.127702 0.223957
0.251233 -0.134271 -0.235484
0.0923908 -0.344474 -0.604133
-0.102096 -0.421775 -0.739705
-0.257193 -0.336354 -0.589892
-0.313056 -0.12119 -0.212547
-0.247898 0.139868 0.245173
-0.0811297 0.324151 0.566887
0.145559 -0.00547946 1.10794
0.409948 -0.00472128 0.960451
0.505466 -0.00177665 0.361509
0.405538 0.00186809 -0.380116
0.149136 0.00479257 -0.975187
-0.164802 0.005868 -1.19402
-0.415159 0.00467958 -0.952201
-0.505333 0.00168611 -0.343091
-0.400156 -0.00194587 0.395757
-0.130959 -0.00452556 0.915064
0.144786 -0.401321 1.10206
0.407771 -0.346924 0.955349
0.50278 -0.130562 0.359588
0.403383 0.137281 -0.378097
0.148344 0.352193 -0.970006
-0.163927 0.431226 -1.18768
-0.412953 0.343891 -0.947143
-0.502648 0.123907 -0.341269
-0.39803 -0.142973 0.393654
-0.130263 -0.331456 0.910203
0.0881533 -0.64233 0.670989
0.248272 -0.555267 0.581666
0.306119 -0.208969 0.218936
0.245601 0.219723 -0.230205
0.0903197 0.563698 -0.590589
-0.0998073 0.690196 -0.723123
-0.251428 0.550413 -0.576669
-0.306038 0.198319 -0.207782
-0.242341 -0.228835 0.239677
-0.079311 -0.530509 0.554179
-0.00248968 -0.635523 -0.0189505
-0.00701185 -0.549383 -0.0164278
-0.00864557 -0.206755 -0.00618334
-0.00693636 0.217394 0.00650159
-0.00255088 0.557725 0.0166799
0.00281879 0.682882 0.0204229
0.00710095 0.54458 0.0162868
0.00864329 0.196217 0.0058683
0.00684437 -0.22641 -0.00676913
0.00223996 -0.524887 -0.0156515
-0.0921721 -0.383527 -0.701579
-0.25959 -0.331544 -0.608183
-0.320074 -0.124774 -0.228917
-0.256797 0.131194 0.2407
-0.0944371 0.336578 0.617515
0.104357 0.412109 0.756087
0.262889 0.328645 0.602959
0.319989 0.118414 0.217254
0.253389 -0.136635 -0.250604
0.0829268 -0.31676 -0.579444
-0.146294 0.0164371 -1.11353
-0.411996 0.014168 -0.965254
-0.50799 0.00533074 -0.363315
-0.407563 -0.0056049 0.382016
-0.149882 -0.0143794 0.98006
0.165625 -0.0176062 1.19999
0.417232 -0.0140404 0.956959
0.507857 -0.00505879 0.344805
0.402155 0.00584034 -0.397738
0.13162 0.0135756 -0.919682
-0.143974 0.410059 -1.09588
-0.404797 0.353077 -0.94851
-0.499097 0.132842 -0.356977
-0.400427 -0.139674 0.375346
-0.147257 -0.358333 0.96295
0.162726 -0.438746 1.17904
0.409928 -0.349888 0.940254
0.498965 -0.126065 0.338783
0.395126 0.14555 -0.39088
0.129533 0.338673 -0.905101
-0.0861084 0.645477 -0.655425
-0.225104 0.520962 -0.528991
-0.277253 0.195456 -0.198468
-0.222435 -0.205458 0.208625
-0.0818008 -0.527106 0.535229
0.0903932 -0.645392 0.655338
0.227713 -0.514681 0.522612
0.277179 -0.185402 0.188259
0.219708 0.215406 -0.218725
0.0774713 0.533109 -0.541324
0 0.239746 0
0 0.203564 0
0 0.0763738 0
0 -0.0802821 0
0 -0.205965 0
0 -0.252184 0
0 -0.20111 0
0 -0.0724452 0
0 0.084169 0
0 0.19801 0
0.145559 0.14725 0.487752
0.409948 0.127702 0.423056
0.505466 0.0480645 0.159249
0.405538 -0.050538 -0.167447
0.149136 -0.129655 -0.429585
-0.164802 -0.15875 -0.525987
-0.415159 -0.126599 -0.41946
-0.505333 -0.0456151 -0.151138
-0.400156 0.0526222 0.174306
-0.130959 0.121616 0.402841
0.234961 -0.0020558 0.787326
0.661736 -0.00177664 0.682894
0.81592 -0.000668702 0.257058
0.654616 0.000703129 -0.270293
0.240735 0.00180388 -0.693434
-0.266023 0.00220869 -0.849044
-0.670146 0.00176137 -0.677089
-0.815705 0.000634647 -0.243966
-0.645928 -0.000732087 0.281362
-0.211393 -0.00169791 0.650264
0.233713 -0.150569 0.783144
0.658221 -0.130562 0.679265
0.811585 -0.0491457 0.255692
0.651138 0.0516757 -0.268857
0.239457 0.132574 -0.68975
-0.26461 0.162324 -0.844534
-0.666586 0.129449 -0.673492
-0.811371 0.0466425 -0.24267
-0.642496 -0.0537946 0.279868
-0.21027 -0.124357 0.646809
0.142296 -0.240991 0.476819
0.400759 -0.208969 0.413572
0.494136 -0.0786597 0.155679
0.396447 0.0827092 -0.163694
0.145793 0.21219 -0.419955
-0.161108 0.259807 -0.514196
-0.405853 0.207189 -0.410058
-0.494005 0.0746535 -0.14775
-0.391185 -0.0861006 0.170398
-0.128023 -0.199038 0.393811
-0.00401883 -0.238437 -0.0134666
-0.0113185 -0.206755 -0.0116804
-0.0139556 -0.0778261 -0.00439678
-0.0111966 0.0818329 0.00462313
-0.00411761 0.209941 0.0118607
0.00455009 0.257054 0.0145223
0.0114623 0.204993 0.011581
0.0139519 0.0738623 0.00417287
0.0110482 -0.0851884 -0.0048125
0.00361572 -0.196929 -0.0111223
-0.148784 -0.143893 -0.498556
-0.419028 -0.124773 -0.432426
-0.516661 -0.0469668 -0.162776
-0.414519 0.0493849 0.171156
-0.15244 0.126696 0.4391
0.168452 0.155128 0.537638
0.424354 0.12371 0.42875
0.516525 0.0445748 0.154486
0.409019 -0.0514098 -0.178166
0.13386 -0.118843 -0.411765
-0.236146 0.00616691 -0.791299
-0.665042 0.00533074 -0.686308
-0.819995 0.00200608 -0.258342
-0.657886 -0.00210929 0.271643
-0.241938 -0.00541136 0.696898
0.267352 -0.0066257 0.853286
0.673493 -0.00528381 0.680471
0.819779 -0.00190379 0.245185
0.649155 0.00219701 -0.28277
0.21246 0.00509334 -0.653545
-0.232402 0.153847 -0.778753
-0.65342 0.132842 -0.674375
-0.805638 0.04999 -0.253824
-0.646366 -0.0525619 0.26689
-0.237701 -0.134847 0.684703
0.26267 -0.165108 0.838354
0.661701 -0.131669 0.668564
0.805426 -0.0474412 0.240892
0.63781 0.0547513 -0.277886
0.209091 0.127064 -0.643183
-0.138996 0.242172 -0.465758
-0.363361 0.195456 -0.375912
-0.44754 0.0733319 -0.141036
-0.359054 -0.0770845 0.148253
-0.132042 -0.197761 0.380345
0.145912 -0.24214 0.465696
0.367572 -0.193099 0.371379
0.447421 -0.0695598 0.133781
0.354651 0.0808166 -0.155431
0.125054 0.200013 -0.384676
0 -0.252015 0
0 -0.213981 0
0 -0.0802821 0
0 0.0843903 0
0 0.216504 0
0 0.265089 0
0 0.211401 0
0 0.0761525 0
0 -0.0884762 0
0 -0.208142 0
0.144786 -0.154786 0.100951
0.407771 -0.134271 0.087561
0.50278 -0.050538 0.0329601
0.403383 0.0531393 -0.034657
0.148344 0.136329 -0.0889127
-0.163927 0.166921 -0.108865
-0.412954 0.133115 -0.0868168
-0.502648 0.0479631 -0.0312815
-0.39803 -0.055328 0.0360764
-0.130263 -0.127839 0.083377
0.233713 0.002161 0.162955
0.658221 0.00186809 0.14134
0.811585 0.000703129 0.0532039
0.651139 -0.00073933 -0.0559432
0.239457 -0.00189672 -0.143522
-0.26461 -0.0023224 -0.175729
-0.666586 -0.00185205 -0.140139
-0.811371 -0.000667317 -0.0504944
-0.642496 0.000769745 0.0582341
-0.21027 0.0017848 0.134586
0.232471 0.158274 0.162089
0.654724 0.137281 0.140589
0.807274 0.0516757 0.0529213
0.647679 -0.0543363 -0.055646
0.238184 -0.139399 -0.142759
-0.263204 -0.170682 -0.174796
-0.663045 -0.136114 -0.139394
-0.807061 -0.049044 -0.0502262
-0.639083 0.0565616 0.0579248
-0.209153 0.13072 0.133872
0.14154 0.253323 0.0986882
0.39863 0.219723 0.085598
0.491511 0.0827092 0.0322213
0.394341 -0.0869676 -0.0338803
0.145019 -0.223115 -0.0869194
-0.160252 -0.273184 -0.106425
-0.403697 -0.217856 -0.0848706
-0.491381 -0.0784971 -0.0305803
-0.389107 0.090529 0.0352676
-0.127343 0.209223 0.0815079
-0.00399748 0.250639 -0.00278722
-0.0112583 0.217394 -0.00241751
-0.0138814 0.0818329 -0.000910013
-0.0111372 -0.086046 0.000956862
-0.00409575 -0.22075 0.00245483
0.00452592 -0.270289 0.00300572
0.0114014 -0.215547 0.00239698
0.0138778 -0.0776653 0.000863667
0.0109895 0.0895696 -0.000996053
0.00359651 0.207006 -0.002302
-0.147993 0.151256 -0.103187
-0.416802 0.131194 -0.0895002
-0.513916 0.0493849 -0.0336902
-0.412318 -0.0519274 0.0354246
-0.15163 -0.13322 0.0908816
0.167557 -0.163115 0.111276
0.4221 -0.130079 0.0887398
0.513781 -0.0468697 0.0319744
0.406846 0.0540538 -0.0368754
0.133149 0.124925 -0.0852238
-0.234892 -0.00648249 -0.163777
-0.661509 -0.0056049 -0.142047
-0.815639 -0.00210929 -0.0534697
-0.654391 0.00221781 0.0562226
-0.240653 0.00568978 0.144238
0.265931 0.00696661 0.176607
0.669915 0.00555568 0.140839
0.815424 0.00200175 0.0507467
0.645706 -0.00230996 -0.0585254
0.211331 -0.00535398 -0.135266
-0.231168 -0.16172 -0.16118
-0.64995 -0.139674 -0.139577
-0.801358 -0.0525619 -0.0525346
-0.642932 0.0552663 0.0552387
-0.236439 0.141785 0.141715
0.261275 0.173603 0.173516
0.658187 0.138443 0.138375
0.801147 0.0498822 0.0498582
0.634421 -0.0575658 -0.0575148
0.20798 -0.133567 -0.133121
-0.138257 -0.254565 -0.096399
-0.361431 -0.205458 -0.0778033
-0.445162 -0.0770845 -0.0291905
-0.357146 0.0810291 0.0306842
-0.131341 0.207881 0.0787207
0.145137 0.254531 0.0963862
0.36562 0.202981 0.0768651
0.445044 0.0731193 0.0276889
0.352767 -0.0849523 -0.0321698
0.124389 -0.210249 -0.0796173
0 -0.646546 0
0 -0.548971 0
0 -0.205965 0
0 0.216504 0
0 0.555444 0
0 0.68009 0
0 0.542351 0
0 0.19537 0
0 -0.226987 0
0 -0.533991 0
0.0881533 -0.397104 -0.324798
0.248272 -0.344474 -0.281715
0.306119 -0.129655 -0.106045
0.245601 0.136329 0.111504
0.0903197 0.34975 0.286063
-0.0998073 0.428236 0.350259
-0.251428 0.341506 0.279321
-0.306038 0.123049 0.100644
-0.242341 -0.141944 -0.116071
-0.079311 -0.327974 -0.268255
0.142296 0.00554407 -0.524286
0.400759 0.00479257 -0.454743
0.494136 0.00180388 -0.171177
0.396447 -0.00189672 0.179989
0.145793 -0.00486612 0.461762
-0.161108 -0.00595813 0.565383
-0.405853 -0.00475142 0.450879
-0.494005 -0.001712 0.162459
-0.391185 0.00197477 -0.187361
-0.128023 0.00457893 -0.433015
0.14154 0.406053 -0.521501
0.39863 0.352193 -0.452327
0.491511 0.132574 -0.170267
0.394341 -0.139399 0.179034
0.145019 -0.357629 0.459309
-0.160252 -0.437883 0.56238
-0.403697 -0.349199 0.448483
-0.491381 -0.125822 0.161596
-0.389107 0.145108 -0.186366
-0.127343 0.335365 -0.430715
0.0861772 0.649904 -0.317517
0.242706 0.563697 -0.275401
0.299257 0.21219 -0.103667
0.240095 -0.223115 0.109005
0.0882955 -0.572398 0.279651
-0.0975697 -0.700851 0.342407
-0.245792 -0.558907 0.273061
-0.299178 -0.201384 0.098388
-0.236909 0.232252 -0.113469
-0.0775332 0.536765 -0.262242
-0.00243387 0.643017 0.00896753
-0.00685468 0.557725 0.00777799
-0.00845179 0.209941 0.00292785
-0.00678092 -0.22075 -0.00307858
-0.00249367 -0.566332 -0.00789808
0.00275565 -0.693423 -0.00967048
0.00694176 -0.552985 -0.00771191
0.00844956 -0.19925 -0.00277875
0.00669094 0.229791 0.00320465
0.00218974 0.531076 0.0074064
-0.0901059 0.388049 0.331992
-0.253771 0.336578 0.287955
-0.312899 0.126696 0.108393
-0.251041 -0.13322 -0.113974
-0.0923203 -0.341773 -0.292399
0.102018 -0.418469 -0.358016
0.256996 -0.333718 -0.285507
0.312817 -0.120244 -0.102873
0.247709 0.138675 0.118641
0.0810678 0.320495 0.274197
-0.143014 -0.0166309 0.526932
-0.402761 -0.0143794 0.457016
-0.496604 -0.00541136 0.172032
-0.398428 0.00568978 -0.180888
-0.146521 0.0145971 -0.464068
0.161913 0.0178728 -0.568207
0.40788 0.0142531 -0.45313
0.496473 0.00513548 -0.16327
0.39314 -0.00592621 0.188299
0.128669 -0.0137357 0.4352
-0.140747 -0.414894 0.518577
-0.395723 -0.358333 0.449071
-0.487909 -0.134847 0.169023
-0.39145 0.141785 -0.177724
-0.143956 0.363749 -0.455948
0.159078 0.445378 -0.558266
0.400738 0.355177 -0.445201
0.48778 0.127973 -0.160412
0.386269 -0.147685 0.185046
0.126629 -0.342667 0.4283
-0.0841782 -0.653089 0.310152
-0.220058 -0.527106 0.250322
-0.271038 -0.197761 0.0939167
-0.217449 0.207881 -0.0987227
-0.0799671 0.533321 -0.253274
0.0883669 0.653002 -0.310111
0.222608 0.52075 -0.247304
0.270966 0.187588 -0.0890857
0.214783 -0.217946 0.103502
0.0757347 -0.539395 0.256159
0 -0.791636 0
0 -0.672163 0
0 -0.252184 0
0 0.265089 0
0 0.68009 0
0 0.832706 0
0 0.664059 0
0 0.239212 0
0 -0.277924 0
0 -0.653823 0
-0.00248968 -0.486217 -0.625237
-0.00701185 -0.421775 -0.542304
-0.00864557 -0.15875 -0.204137
-0.00693636 0.166921 0.214646
-0.00255088 0.428236 0.550675
0.00281879 0.524334 0.674249
0.00710095 0.418142 0.537697
0.00864329 0.150661 0.19374
0.00684437 -0.173797 -0.223437
0.00223996 -0.401573 -0.516392
-0.00401883 0.0067882 -1.00925
-0.0113185 0.00586799 -0.875382
-0.0139556 0.00220869 -0.329516
-0.0111966 -0.0023224 0.346481
-0.00411761 -0.00595813 0.888894
0.00455009 -0.00729516 1.08837
0.0114623 -0.00581767 0.867943
0.0139519 -0.00209619 0.312734
0.0110482 0.00241794 -0.36067
0.00361572 0.00560647 -0.833556
-0.00399748 0.497174 -1.00389
-0.0112583 0.431225 -0.870731
-0.0138814 0.162324 -0.327766
-0.0111372 -0.170682 0.34464
-0.00409574 -0.437883 0.884172
0.00452592 -0.536148 1.08259
0.0114014 -0.427561 0.863332
0.0138778 -0.154058 0.311073
0.0109895 0.177672 -0.358754
0.00359651 0.410623 -0.829128
-0.00243387 0.795747 -0.611222
-0.00685468 0.690196 -0.530146
-0.00845179 0.259807 -0.199561
-0.00678092 -0.273184 0.209835
-0.00249367 -0.70085 0.538332
0.00275565 -0.858124 0.659135
0.00694176 -0.68433 0.525642
0.00844956 -0.246576 0.189397
0.00669094 0.284371 -0.218428
0.00218974 0.657218 -0.504817
6.87391e-05 0.787314 0.0172625
0.000193592 0.682882 0.0149728
0.000238705 0.257054 0.00563608
0.000191511 -0.270289 -0.0059263
7.04292e-05 -0.693423 -0.0152038
-7.78239e-05 -0.849031 -0.0186156
-0.00019606 -0.677078 -0.0148456
-0.000238642 -0.243963 -0.00534909
-0.000188969 0.281357 0.006169
-6.18442e-05 0.650254 0.0142574
0.00254483 0.47513 0.639087
0.00716714 0.412109 0.554315
0.00883709 0.155128 0.208658
0.00709002 -0.163115 -0.219401
0.00260736 -0.418469 -0.56287
-0.00288124 -0.512377 -0.689183
-0.00725827 -0.408607 -0.549605
-0.00883476 -0.147227 -0.198032
-0.00699594 0.169795 0.228386
-0.00228957 0.392417 0.527831
0.00403911 -0.020363 1.01435
0.011375 -0.0176062 0.879758
0.0140253 -0.0066257 0.331162
0.0112525 0.00696661 -0.348212
0.00413817 0.0178728 -0.893334
-0.00457282 0.0218837 -1.09381
-0.0115195 0.0174515 -0.872279
-0.0140216 0.00628792 -0.314296
-0.0111033 -0.00725607 0.362475
-0.00363397 -0.0168181 0.837763
0.00397507 -0.507999 0.998264
0.0111763 -0.438746 0.864462
0.0137798 -0.165108 0.325371
0.0110557 0.173603 -0.342118
0.00406573 0.445378 -0.877702
-0.00449275 0.545325 -1.07467
-0.0113178 0.434881 -0.857014
-0.0137762 0.15669 -0.308793
-0.0109093 -0.180826 0.356214
-0.00357635 -0.419564 0.82448
0.00237742 -0.799646 0.597044
0.00621503 -0.645392 0.481872
0.00765483 -0.24214 0.18079
0.00614135 0.254531 -0.190042
0.00225848 0.653002 -0.487554
-0.00249572 0.79954 -0.596964
-0.00628705 0.63761 -0.476061
-0.0076528 0.229685 -0.17149
-0.00606604 -0.266854 0.199243
-0.00213895 -0.660439 0.493107
0 -0.631306 0
0 -0.53603 0
0 -0.20111 0
0 0.211401 0
0 0.542351 0
0 0.664059 0
0 0.529567 0
0 0.190765 0
0 -0.221636 0
0 -0.521404 0
-0.0921721 -0.387743 -0.684456
-0.25959 -0.336354 -0.593666
-0.320074 -0.126599 -0.223471
-0.256797 0.133115 0.234976
-0.0944371 0.341506 0.602831
0.104357 0.418142 0.738109
0.262889 0.333457 0.58862
0.319989 0.120149 0.21209
0.253389 -0.138598 -0.2446
0.0829268 -0.320243 -0.565301
-0.148784 0.00541339 -1.10484
-0.419028 0.00467957 -0.958291
-0.516661 0.00176137 -0.360725
-0.414519 -0.00185205 0.379297
-0.15244 -0.00475142 0.973085
0.168452 -0.00581767 1.19145
0.424354 -0.00463942 0.950148
0.516525 -0.00167167 0.342355
0.409019 0.00192823 -0.39483
0.13386 0.00447099 -0.912505
-0.147993 0.396482 -1.09897
-0.416802 0.343891 -0.9532
-0.513916 0.129449 -0.358809
-0.412318 -0.136114 0.377282
-0.15163 -0.349199 0.967915
0.167557 -0.427561 1.18512
0.4221 -0.340968 0.945101
0.513781 -0.122857 0.340536
0.406846 0.141688 -0.392733
0.133149 0.32746 -0.907658
-0.0901059 0.634584 -0.669113
-0.253771 0.550413 -0.580358
-0.312899 0.207189 -0.218462
-0.251041 -0.217856 0.229709
-0.0923203 -0.558907 0.589315
0.102018 -0.68433 0.721564
0.256996 -0.545736 0.575426
0.312817 -0.196637 0.207336
0.247709 0.226778 -0.239116
0.0810678 0.524112 -0.552629
0.00254483 0.62786 0.0188975
0.00716715 0.54458 0.016391
0.00883709 0.204993 0.00616992
0.00709002 -0.215547 -0.0064876
0.00260736 -0.552985 -0.0166439
-0.00288124 -0.677078 -0.0203789
-0.00725827 -0.539953 -0.0162517
-0.00883476 -0.194553 -0.00585573
-0.00699594 0.224375 0.0067533
-0.00228957 0.518558 0.0156077
0.0942138 0.378902 0.699617
0.26534 0.328645 0.606816
0.327163 0.12371 0.228421
0.262485 -0.130079 -0.240181
0.0965288 -0.333717 -0.616183
-0.106668 -0.408607 -0.754457
-0.268713 -0.325852 -0.60166
-0.327077 -0.11741 -0.216788
-0.259001 0.135407 0.250018
-0.0847636 0.312941 0.577823
0.149534 -0.0162389 1.11042
0.421122 -0.0140404 0.963082
0.519241 -0.00528381 0.362527
0.416589 0.00555568 -0.381192
0.153201 0.0142531 -0.977946
-0.169294 0.0174515 -1.1974
-0.426474 0.0139171 -0.954895
-0.519105 0.00501443 -0.344065
-0.411062 -0.00578649 0.396806
-0.134535 -0.0134119 0.91711
0.147163 -0.405114 1.09281
0.413763 -0.349888 0.946338
0.510151 -0.131669 0.356188
0.409297 0.138443 -0.374521
0.150519 0.355177 -0.960832
-0.166329 0.434881 -1.17645
-0.419006 0.346805 -0.938185
-0.510016 0.124956 -0.33804
-0.403878 -0.144204 0.389951
-0.132402 -0.33459 0.902569
0.0880158 -0.637694 0.653592
0.23009 -0.514681 0.527511
0.283394 -0.193099 0.197913
0.227363 0.202981 -0.208041
0.0836127 0.52075 -0.533732
-0.0923955 0.63761 -0.653505
-0.232757 0.508475 -0.521151
-0.283319 0.183167 -0.187733
-0.224574 -0.212809 0.218114
-0.0791874 -0.526681 0.53981
0 -0.227414 0
0 -0.193093 0
0 -0.0724452 0
0 0.0761525 0
0 0.19537 0
0 0.239212 0
0 0.190765 0
0 0.0687187 0
0 -0.0798395 0
0 -0.187824 0
-0.146294 -0.139676 -0.479606
-0.411996 -0.12119 -0.416012
-0.50799 -0.0456152 -0.156598
-0.407563 0.0479632 0.164661
-0.149882 0.123049 0.422436
0.165625 0.150662 0.517233
0.417232 0.120149 0.412479
0.507857 0.0432911 0.148623
0.402155 -0.0499368 -0.171402
0.13162 -0.11536 -0.396113
-0.236146 0.00195005 -0.774176
-0.665042 0.00168611 -0.671522
-0.819995 0.000634649 -0.252779
-0.657886 -0.000667318 0.265794
-0.241938 -0.001712 0.681892
0.267352 -0.0020962 0.834913
0.673493 -0.00167167 0.66582
0.819779 -0.000602338 0.239906
0.649155 0.000694749 -0.276676
0.21246 0.00161057 -0.639403
-0.234892 0.142824 -0.770064
-0.661509 0.123907 -0.667955
-0.815639 0.0466427 -0.251437
-0.654391 -0.0490441 0.264382
-0.240653 -0.125823 0.67827
0.265931 -0.154058 0.830478
0.669915 -0.122857 0.662284
0.815424 -0.0442676 0.238632
0.645706 0.0510507 -0.275206
0.211331 0.11796 -0.636006
-0.143014 0.228595 -0.468855
-0.402761 0.198319 -0.406687
-0.496604 0.0746536 -0.153088
-0.398428 -0.0784973 0.160969
-0.146521 -0.201384 0.412966
0.161913 -0.246576 0.505639
0.40788 -0.196638 0.403233
0.496473 -0.0708519 0.145291
0.39314 0.0817087 -0.16756
0.128669 0.1888 -0.387234
0.00403911 0.226172 0.0132417
0.011375 0.196217 0.0114859
0.0140253 0.0738625 0.00432359
0.0112525 -0.0776655 -0.00454618
0.00413817 -0.19925 -0.0116632
-0.00457282 -0.243963 -0.0142805
-0.0115195 -0.194554 -0.0113883
-0.0140216 -0.0701012 -0.00410343
-0.0111033 0.0808428 0.00473235
-0.00363397 0.186799 0.0109365
0.149534 0.136491 0.490229
0.421122 0.118414 0.425226
0.519242 0.0445749 0.160066
0.416589 -0.0468698 -0.168308
0.153201 -0.120244 -0.431792
-0.169294 -0.147228 -0.52869
-0.426474 -0.11741 -0.421615
-0.519105 -0.0423049 -0.151915
-0.411062 0.0487872 0.175199
-0.134535 0.11273 0.404887
0.237338 -0.00584969 0.778083
0.668364 -0.0050588 0.67488
0.82409 -0.0019038 0.254042
0.661171 0.00200176 -0.267122
0.243146 0.00513549 -0.685299
-0.268687 0.00628794 -0.839084
-0.676857 0.00501444 -0.669146
-0.823873 0.00180674 -0.241104
-0.652398 -0.00208485 0.27806
-0.213532 -0.00483134 0.64263
0.233575 -0.145933 0.765746
0.656687 -0.126065 0.663146
0.809664 -0.0474413 0.249599
0.649596 0.0498823 -0.262446
0.238889 0.127973 -0.673305
-0.263983 0.156691 -0.8244
-0.665007 0.124957 -0.657436
-0.809451 0.0450228 -0.236882
-0.640997 -0.0519559 0.273258
-0.210146 -0.120528 0.632441
0.139697 -0.229715 0.457979
0.365195 -0.185402 0.369633
0.449798 -0.0695598 0.13868
0.360866 0.0731193 -0.145777
0.132709 0.187588 -0.373992
-0.146648 0.229685 -0.457918
-0.369427 0.183167 -0.365176
-0.449678 0.0659817 -0.131547
-0.35644 -0.0766595 0.152835
-0.125685 -0.189725 0.378251
0 0.264216 0
0 0.224341 0
0 0.084169 0
0 -0.0884762 0
0 -0.226987 0
0 -0.277924 0
0 -0.221636 0
0 -0.0798395 0
0 0.0927599 0
0 0.21822 0
-0.143974 0.16228 -0.0897208
-0.404797 0.139861 -0.0786029
-0.499097 0.0526194 -0.0296078
-0.400427 -0.0553251 0.0311345
-0.147257 -0.141936 0.0798749
0.162726 -0.173788 0.0977994
0.409928 -0.138591 0.0779925
0.498965 -0.049934 0.0281037
0.395126 0.0576584 -0.0323618
0.129533 0.134029 -0.0741017
-0.232402 -0.00226563 -0.144827
-0.65342 -0.00194575 -0.12688
-0.805638 -0.000732042 -0.0477927
-0.646366 0.000769694 0.050257
-0.237701 0.00197463 0.128934
0.26267 0.00241777 0.157867
0.661701 0.00192811 0.125895
0.805426 0.000694701 0.0453647
0.63781 -0.000802162 -0.0522382
0.209091 -0.00187121 -0.119614
-0.231168 -0.165937 -0.144057
-0.64995 -0.142965 -0.126206
-0.801358 -0.0537915 -0.0475388
-0.642932 0.0565583 0.04999
-0.236439 0.1451 0.128249
0.261275 0.177661 0.157029
0.658187 0.14168 0.125226
0.801147 0.0510476 0.0451238
0.634421 -0.0589332 -0.0519607
0.20798 -0.137049 -0.118979
-0.140747 -0.265588 -0.0877096
-0.395723 -0.228822 -0.0768409
-0.487909 -0.0860957 -0.0289441
-0.39145 0.0905237 0.0304365
-0.143956 0.232238 0.0780845
0.159078 0.284354 0.0956072
0.400739 0.226765 0.0762443
0.48778 0.0817039 0.0274737
0.386269 -0.0943248 -0.0316363
0.126629 -0.219353 -0.0724406
0.00397507 -0.262774 0.00247715
0.0111763 -0.226397 0.00217018
0.0137798 -0.0851835 0.000817457
0.0110557 0.0895645 -0.000859604
0.00406573 0.229778 -0.0022053
-0.00449275 0.281341 -0.0027002
-0.0113178 0.224362 -0.00215332
-0.0137762 0.080838 -0.000775929
-0.0109093 -0.0933251 0.000893497
-0.00357635 -0.217029 0.00204592
0.147163 -0.158579 0.0917082
0.413763 -0.136628 0.0803437
0.510151 -0.0514069 0.0302635
0.409297 0.0540507 -0.031824
0.150519 0.138667 -0.0816441
-0.166329 0.169785 -0.0999657
-0.419006 0.135399 -0.0797198
-0.510016 0.0487843 -0.0287261
-0.403878 -0.0563202 0.0330786
-0.132402 -0.130973 0.0757431
0.233575 0.00679635 0.145558
0.656687 0.00584003 0.127513
0.809664 0.00219689 0.0480309
0.649596 -0.00230984 -0.0505074
0.238889 -0.00592588 -0.129576
-0.263983 -0.00725568 -0.158654
-0.665007 -0.00578618 -0.126522
-0.809451 -0.00208473 -0.0455907
-0.640997 0.00240796 0.052499
-0.210146 0.0056132 0.120218
0.229872 0.16955 0.14325
0.645246 0.145543 0.125257
0.795531 0.0547483 0.0471749
0.638258 -0.0575627 -0.0496066
0.234719 -0.147677 -0.127265
-0.259374 -0.180817 -0.155825
-0.6534 -0.144196 -0.124266
-0.795322 -0.051953 -0.0447772
-0.629828 0.0600115 0.0515773
-0.206814 0.140034 0.118312
0.137482 0.26689 0.0856751
0.359405 0.215406 0.069148
0.442666 0.0808166 0.0259432
0.355144 -0.0849523 -0.0272708
0.130604 -0.217946 -0.0699634
-0.144323 -0.266854 -0.0856637
-0.36357 -0.212809 -0.0683143
-0.442549 -0.0766595 -0.0246087
-0.350789 0.0890653 0.0285911
-0.123692 0.220428 0.0707602
0 0.65391 0
0 0.527768 0
0 0.19801 0
0 -0.208142 0
0 -0.533992 0
0 -0.653823 0
0 -0.521404 0
0 -0.187824 0
0 0.21822 0
0 0.540073 0
-0.0861084 0.401627 0.33478
-0.225104 0.324151 0.270199
-0.277253 0.121616 0.101374
-0.222435 -0.12784 -0.106562
-0.0818008 -0.327974 -0.273386
0.0903932 -0.401573 -0.334735
0.227713 -0.320243 -0.266941
0.277179 -0.11536 -0.0961597
0.219708 0.134029 0.111721
0.0774713 0.331709 0.276499
-0.138996 -0.00560721 0.540399
-0.363361 -0.00452556 0.436154
-0.44754 -0.00169791 0.163638
-0.359054 0.0017848 -0.172011
-0.132042 0.00457893 -0.441297
0.145912 0.00560647 -0.540327
0.367572 0.00447099 -0.430895
0.447421 0.00161057 -0.15522
0.354651 -0.00187121 0.18034
0.125054 -0.00463108 0.446323
-0.138257 -0.410678 0.537528
-0.361431 -0.331456 0.433837
-0.445162 -0.124357 0.162768
-0.357146 0.130721 -0.171098
-0.131341 0.335365 -0.438953
0.145137 0.410623 -0.537457
0.36562 0.32746 -0.428606
0.445044 0.11796 -0.154396
0.352767 -0.13705 0.179382
0.124389 -0.339184 0.443952
-0.0841782 -0.657306 0.327275
-0.220058 -0.530509 0.264142
-0.271038 -0.199038 0.0991018
-0.217449 0.209223 -0.104173
-0.0799671 0.536765 -0.267257
0.0883669 0.657218 -0.327232
0.222608 0.524112 -0.260958
0.270966 0.1888 -0.0940041
0.214783 -0.219353 0.109217
0.0757347 -0.542878 0.270301
0.00237742 -0.65034 -0.00924312
0.00621503 -0.524887 -0.00746009
0.00765483 -0.196929 -0.0027989
0.00614135 0.207006 0.00294213
0.00225848 0.531076 0.00754806
-0.00249572 0.650254 0.00924189
-0.00628705 0.518558 0.00737014
-0.0076528 0.186799 0.00265493
-0.00606604 -0.217029 -0.00308457
-0.00213895 -0.537125 -0.00763402
0.0880158 -0.392469 -0.342195
0.23009 -0.31676 -0.276184
0.283394 -0.118843 -0.10362
0.227363 0.124925 0.108922
0.0836127 0.320495 0.279441
-0.0923955 0.392417 0.34215
-0.232757 0.312941 0.272854
-0.283319 0.11273 0.0982897
-0.224574 -0.130973 -0.114196
-0.0791874 -0.324145 -0.282624
0.139697 0.0168203 -0.543126
0.365195 0.0135756 -0.438355
0.449798 0.00509334 -0.164463
0.360866 -0.00535398 0.172879
0.132709 -0.0137357 0.443524
-0.146648 -0.0168181 0.543054
-0.369427 -0.0134119 0.433069
-0.449678 -0.00483134 0.156004
-0.35644 0.0056132 -0.18125
-0.125685 0.0138921 -0.448575
0.137482 0.41962 -0.534515
0.359405 0.338673 -0.431405
0.442666 0.127064 -0.161856
0.355144 -0.133567 0.170138
0.130604 -0.342667 0.436492
-0.144323 -0.419564 0.534443
-0.36357 -0.33459 0.426203
-0.442549 -0.120528 0.15353
-0.350789 0.140034 -0.178376
-0.123692 0.34657 -0.441463
0.0822256 0.660527 -0.319684
0.214954 0.533109 -0.258015
0.264751 0.200013 -0.096803
0.212405 -0.210249 0.101757
0.0781122 -0.539395 0.261058
-0.0863172 -0.660439 0.319641
-0.217445 -0.526681 0.254904
-0.26468 -0.189725 0.0918236
-0.209801 0.220428 -0.106683
-0.0739779 0.545538 -0.264031
