# vtk DataFile Version 3.0
Velocity field
ASCII
DATASET STRUCTURED_POINTS
DIMENSIONS 10 10 10
SPACING 0.631579 0.631579 0.631579
ORIGIN 0 0 0
POINT_DATA 1000
VECTORS velocity float
0 0.766223 0
0 0.618416 0
0 0.232019 0
0 -0.243892 0
0 -0.625708 0
0 -0.766121 0
0 -0.610959 0
0 -0.220084 0
0 0.255701 0
0 0.632834 0
0 0.470608 0.6002
0 0.379826 0.503414
0 0.142504 0.188872
0 -0.149797 -0.198538
0 -0.384305 -0.50935
0 -0.470546 -0.623651
0 -0.375246 -0.497344
0 -0.135174 -0.179157
0 0.157049 0.20815
0 0.388682 0.495714
0 -0.00657029 0.968839
0 -0.00530286 0.812607
0 -0.00198954 0.304876
0 0.00209135 -0.320478
0 0.00536539 -0.822189
0 0.00656942 -1.00669
0 0.00523891 -0.802809
0 0.0018872 -0.289194
0 -0.00219261 0.335994
0 -0.00542649 0.800178
0 -0.481214 0.963693
0 -0.388386 0.808291
0 -0.145716 0.303257
0 0.153173 -0.318775
0 0.392966 -0.817821
0 0.48115 -1.00135
0 0.383703 -0.798543
0 0.13822 -0.287657
0 -0.160589 0.334209
0 -0.397442 0.795927
0 -0.770202 0.586746
0 -0.621627 0.492129
0 -0.233224 0.184638
0 0.245159 -0.194087
0 0.628958 -0.497932
0 0.7701 -0.609671
0 0.614132 -0.486195
0 0.221227 -0.175141
0 -0.257028 0.203484
0 -0.636121 0.484602
0 -0.76204 -0.0165713
0 -0.61504 -0.013899
0 -0.230753 -0.00521468
0 0.242561 0.00548153
0 0.622292 0.0140629
0 0.761939 0.0172187
0 0.607624 0.0137314
0 0.218883 0.00494644
0 -0.254305 -0.00574693
0 -0.62938 -0.0136864
0 -0.459878 -0.613495
0 -0.371166 -0.514565
0 -0.139255 -0.193056
0 0.146381 0.202935
0 0.375543 0.520632
0 0.459817 0.637466
0 0.36669 0.50836
0 0.132092 0.183125
0 -0.153468 -0.212761
0 -0.37982 -0.506694
0 0.0197093 -0.973728
0 0.0159073 -0.816708
0 0.00596815 -0.306415
0 -0.00627356 0.322095
0 -0.0160949 0.826339
0 -0.0197067 1.01177
0 -0.0157155 0.80686
0 -0.00566116 0.290653
0 0.00657731 -0.33769
0 0.0162782 -0.804216
0 0.491692 -0.95829
0 0.396843 -0.803758
0 0.148889 -0.301557
0 -0.156508 0.316988
0 -0.401522 0.813236
0 -0.491627 0.995732
0 -0.392058 0.794067
0 -0.14123 0.286045
0 0.164085 -0.332335
0 0.406095 -0.791465
0 0.773977 -0.573136
0 0.624674 -0.462576
0 0.234367 -0.173551
0 -0.24636 0.182432
0 -0.63204 0.468031
0 -0.773874 0.57306
0 -0.617141 0.456998
0 -0.222311 0.164623
0 0.258288 -0.191264
0 0.639238 -0.473361
0 0.618416 0
0 0.525086 0
0 0.197003 0
0 -0.207084 0
0 -0.531277 0
0 -0.6505 0
0 -0.518754 0
0 -0.18687 0
0 0.217111 0
0 0.510758 0
0.0872683 0.379826 0.664253
0.244854 0.327417 0.573873
0.301875 0.123178 0.215942
0.242195 -0.129511 -0.227047
0.0890672 -0.332261 -0.582491
-0.0984231 -0.406821 -0.713205
-0.247941 -0.324428 -0.56876
-0.301796 -0.11689 -0.204926
-0.239004 0.134985 0.236543
-0.0785149 0.313704 0.548616
0.140868 -0.00530286 1.07223
0.395243 -0.00455396 0.926343
0.487284 -0.00171319 0.348571
0.390949 0.00180129 -0.366499
0.143772 0.00462122 -0.940251
-0.158874 0.00565819 -1.15125
-0.400224 0.00451226 -0.918089
-0.487155 0.00162576 -0.330789
-0.385798 -0.00187753 0.381825
-0.126738 -0.0043797 0.885572
0.14012 -0.388386 1.06654
0.393143 -0.33466 0.921422
0.484695 -0.125912 0.346719
0.388873 0.132387 -0.364552
0.143008 0.339638 -0.935256
-0.15803 0.415854 -1.14513
-0.398098 0.331632 -0.913212
-0.484568 0.119487 -0.329032
-0.383749 -0.137961 0.379797
-0.126065 -0.320773 0.880867
0.0853121 -0.621627 0.649363
0.239366 -0.535638 0.561009
0.295108 -0.201527 0.211101
0.236766 0.21189 -0.221958
0.0870705 0.543603 -0.569432
-0.0962169 0.665592 -0.697217
-0.242383 0.530792 -0.55601
-0.295031 0.191243 -0.200332
-0.233646 -0.220813 0.23124
-0.0767548 -0.51341 0.536318
-0.00240944 -0.61504 -0.0183397
-0.00676031 -0.529962 -0.0158444
-0.00833457 -0.199392 -0.00596205
-0.00668684 0.209645 0.00626867
-0.00245912 0.537843 0.0160824
0.00271739 0.658539 0.0196912
0.00684551 0.525167 0.0157033
0.00833238 0.189217 0.00565789
0.00659879 -0.218473 -0.00653083
0.00216776 -0.50797 -0.015147
-0.0892014 -0.371166 -0.678967
-0.250278 -0.319823 -0.586584
-0.308561 -0.12033 -0.220724
-0.247559 0.126517 0.232077
-0.09104 0.324579 0.595394
0.100603 0.397418 0.729001
0.253432 0.31693 0.581359
0.308479 0.114189 0.209464
0.244297 -0.131845 -0.241782
0.080254 -0.306551 -0.560768
-0.141579 0.0159073 -1.07764
-0.39722 0.0136723 -0.93098
-0.489721 0.00514304 -0.350315
-0.392905 -0.00540738 0.368332
-0.144491 -0.0138727 0.944957
0.159668 -0.0169857 1.15701
0.402226 -0.0135457 0.922683
0.489592 -0.0048804 0.332444
0.387728 0.00563747 -0.383738
0.127378 0.0131381 -0.890041
-0.139334 0.396843 -1.06056
-0.390338 0.340715 -0.914953
-0.481222 0.128161 -0.344254
-0.386086 -0.134747 0.361956
-0.141983 -0.345694 0.928597
0.156897 -0.423271 1.13698
0.395246 -0.337547 0.90671
0.481096 -0.121615 0.326687
0.381009 0.140492 -0.377167
0.125358 0.327758 -0.875929
-0.0833332 0.624674 -0.6343
-0.217849 0.504172 -0.511941
-0.268317 0.189157 -0.192072
-0.215266 -0.198836 0.201901
-0.0791643 -0.510117 0.517978
0.0874799 -0.624591 0.634216
0.220374 -0.498093 0.505768
0.268246 -0.179427 0.182192
0.212627 0.208463 -0.211676
0.0749744 0.515927 -0.523877
0 0.232019 0
0 0.197003 0
0 0.0739123 0
0 -0.0776946 0
0 -0.199326 0
0 -0.244056 0
0 -0.194628 0
0 -0.0701103 0
0 0.0814562 0
0 0.191628 0
0.140868 0.142504 0.472032
0.395242 0.123178 0.407977
0.487284 0.0463492 0.153527
0.390949 -0.0487326 -0.161424
0.143772 -0.125023 -0.414133
-0.158874 -0.15308 -0.507068
-0.400224 -0.122077 -0.404372
-0.487155 -0.0439842 -0.145697
-0.385798 0.0507739 0.16815
-0.126738 0.117696 0.389858
0.227388 -0.00198954 0.761951
0.637998 -0.00171319 0.658553
0.786571 -0.000644614 0.247821
0.631067 0.00067777 -0.26057
0.232075 0.00173882 -0.668491
-0.256453 0.00212904 -0.818505
-0.646038 0.00169784 -0.652734
-0.786363 0.000611736 -0.235183
-0.622751 -0.000706192 0.271425
-0.20458 -0.00164319 0.629306
0.22618 -0.145716 0.757903
0.634609 -0.125912 0.655054
0.782392 -0.0473815 0.246505
0.627715 0.0498187 -0.259186
0.230843 0.12781 -0.66494
-0.25509 0.156491 -0.814156
-0.642606 0.124797 -0.649267
-0.782186 0.0449649 -0.233934
-0.619442 -0.0518961 0.269983
-0.203493 -0.120349 0.625963
0.13771 -0.233224 0.461451
0.386383 -0.201527 0.398831
0.476361 -0.075836 0.150085
0.382186 0.0797369 -0.157806
0.140549 0.204565 -0.40485
-0.155312 0.25047 -0.4957
-0.391253 0.199743 -0.395308
-0.476236 0.0719683 -0.142431
-0.377149 -0.083062 0.16438
-0.123897 -0.192623 0.381119
-0.0038893 -0.230753 -0.0130326
-0.0109124 -0.199392 -0.0112641
-0.0134536 -0.0750323 -0.0042388
-0.0107938 0.078892 0.00445684
-0.00396948 0.202397 0.0114341
0.00438641 0.247816 0.0139999
0.01105 0.197627 0.0111645
0.0134501 0.0712056 0.00402263
0.0106517 -0.082182 -0.00464255
0.00349918 -0.190582 -0.0107638
-0.143988 -0.139255 -0.482488
-0.403997 -0.12033 -0.417013
-0.498076 -0.0452808 -0.156927
-0.399607 0.0476101 0.165
-0.146956 0.122143 0.423306
0.162392 0.149553 0.5183
0.409088 0.119265 0.413328
0.497945 0.0429715 0.148924
0.394343 -0.0495955 -0.171874
0.129545 -0.115013 -0.398493
-0.228535 0.00596815 -0.765796
-0.641189 0.00514304 -0.661849
-0.790505 0.00193495 -0.249061
-0.634224 -0.00203443 0.261873
-0.233236 -0.00521932 0.671836
0.257736 -0.00639057 0.822599
0.649269 -0.00509629 0.655999
0.790297 -0.00183618 0.23636
0.625867 0.00212026 -0.272785
0.205612 0.00492918 -0.632481
-0.224912 0.148889 -0.753654
-0.630081 0.128161 -0.650434
-0.776786 0.0482157 -0.244744
-0.623216 -0.0506946 0.257331
-0.229188 -0.130057 0.660182
0.253262 -0.159242 0.80833
0.638002 -0.126992 0.644621
0.776581 -0.0457545 0.232258
0.615022 0.0528372 -0.268107
0.202352 0.122969 -0.622453
-0.134516 0.234367 -0.450747
-0.35165 0.189157 -0.363796
-0.433115 0.0709684 -0.13649
-0.347481 -0.0746 0.143475
-0.127787 -0.191387 0.368086
0.141209 -0.234336 0.450687
0.355725 -0.186876 0.35941
0.433 -0.0673178 0.129469
0.34322 0.0782119 -0.150421
0.121023 0.193567 -0.372278
0 -0.243892 0
0 -0.207084 0
0 -0.0776946 0
0 0.0816704 0
0 0.209526 0
0 0.256546 0
0 0.204587 0
0 0.0736981 0
0 -0.0856246 0
0 -0.201434 0
0.14012 -0.149797 0.0976975
0.393143 -0.129511 0.0844397
0.484695 -0.0487326 0.0317756
0.388873 0.051239 -0.0334102
0.143008 0.131454 -0.0857141
-0.15803 0.160953 -0.104949
-0.398098 0.128355 -0.0836936
-0.484568 0.0462466 -0.0301552
-0.383749 -0.053383 0.0348021
-0.126065 -0.123719 0.0806897
0.22618 0.00209135 0.157703
0.634609 0.00180129 0.136301
0.782392 0.00067777 0.051292
0.627715 -0.000712634 -0.0539306
0.230843 -0.00182824 -0.138359
-0.25509 -0.00223855 -0.169408
-0.642606 -0.00178518 -0.135097
-0.782186 -0.000643198 -0.0486763
-0.619442 0.000742491 0.0561773
-0.203493 0.00172728 0.130249
0.224978 0.153173 0.156865
0.631238 0.132387 0.135577
0.778236 0.0498187 0.0510195
0.62438 -0.0523814 -0.0536441
0.229616 -0.134384 -0.137623
-0.253735 -0.164541 -0.168508
-0.639193 -0.131217 -0.134379
-0.778031 -0.0472781 -0.0484177
-0.616152 0.0545637 0.0558789
-0.202412 0.126507 0.129557
0.136979 0.245159 0.0955075
0.38433 0.21189 0.0825466
0.473831 0.0797369 0.0310634
0.380155 -0.0838388 -0.0326614
0.139802 -0.215088 -0.0837925
-0.154487 -0.263356 -0.102596
-0.389175 -0.210018 -0.0818175
-0.473706 -0.0756707 -0.0294792
-0.375145 0.0873313 0.0340219
-0.123239 0.20248 0.0788809
-0.00386864 0.242561 -0.00269739
-0.0108544 0.209645 -0.00233134
-0.0133821 0.078892 -0.000877312
-0.0107366 -0.0829503 0.000922441
-0.0039484 -0.212809 0.00236652
0.00436311 -0.260565 0.00289759
0.0109913 -0.207793 0.00231076
0.0133786 -0.0748688 0.000832569
0.0105951 0.0864059 -0.000960872
0.0034806 0.200334 -0.00222781
-0.143223 0.146381 -0.0998616
-0.40185 0.126517 -0.0863097
-0.49543 0.0476101 -0.0324795
-0.397485 -0.0500592 0.0341502
-0.146176 -0.128427 0.0876122
0.16153 -0.157247 0.107273
0.406915 -0.1254 0.0855475
0.4953 -0.045182 0.0308231
0.392248 0.0521445 -0.035573
0.128857 0.120898 -0.0824771
-0.227321 -0.00627356 -0.158498
-0.637783 -0.00540738 -0.136984
-0.786306 -0.00203443 -0.0515486
-0.630855 0.00213902 0.0542004
-0.231997 0.00548768 0.139051
0.256366 0.00671915 0.170255
0.64582 0.00535834 0.135773
0.786098 0.00193059 0.0489198
0.622542 -0.0022292 -0.0564586
0.20452 -0.00518142 -0.130906
-0.223717 -0.156508 -0.155985
-0.626734 -0.134747 -0.134622
-0.77266 -0.0506946 -0.0506549
-0.619905 0.053301 0.0532601
-0.22797 0.136743 0.136639
0.251917 0.16743 0.167302
0.634613 0.13352 0.133418
0.772456 0.048107 0.0480709
0.611755 -0.0555518 -0.0554907
0.201277 -0.129262 -0.128831
-0.133801 -0.24636 -0.0932921
-0.349782 -0.198836 -0.0752957
-0.430815 -0.0746 -0.0282497
-0.345635 0.0784176 0.0296953
-0.127108 0.201181 0.0761836
0.140459 0.246327 0.0932797
0.353836 0.196439 0.0743878
0.4307 0.0707627 0.0267965
0.341397 -0.0822143 -0.031133
0.12038 -0.203472 -0.0770512
0 -0.625708 0
0 -0.531277 0
0 -0.199326 0
0 0.209526 0
0 0.537542 0
0 0.65817 0
0 0.524871 0
0 0.189073 0
0 -0.219671 0
0 -0.516781 0
0.0853121 -0.384305 -0.31433
0.239366 -0.33226 -0.271672
0.295108 -0.125023 -0.102234
0.236766 0.131454 0.107493
0.0870705 0.337243 0.275772
-0.0962169 0.412923 0.337658
-0.242383 0.329295 0.269272
-0.295031 0.118646 0.0970203
-0.233646 -0.136954 -0.111971
-0.0767548 -0.317403 -0.259609
0.13771 0.00536539 -0.507388
0.386383 0.00462122 -0.438533
0.476361 0.00173882 -0.165025
0.382186 -0.00182824 0.173514
0.140549 -0.00469042 0.445151
-0.155312 -0.00574301 0.545044
-0.391253 -0.00457986 0.434659
-0.476236 -0.00165012 0.156609
-0.377149 0.00190485 -0.180743
-0.123897 0.00443135 -0.419059
0.136979 0.392966 -0.504693
0.38433 0.339638 -0.436203
0.473831 0.12781 -0.164149
0.380155 -0.134384 0.172593
0.139802 -0.344763 0.442786
-0.154487 -0.42213 0.542148
-0.389175 -0.336637 0.43235
-0.473706 -0.121292 0.155777
-0.375145 0.139983 -0.179783
-0.123239 0.324556 -0.416833
0.0833997 0.628958 -0.307283
0.234 0.543603 -0.265583
0.288493 0.204565 -0.0999421
0.231458 -0.215088 0.105083
0.0851191 -0.551806 0.26959
-0.0940598 -0.675638 0.330089
-0.23695 -0.538799 0.263237
-0.288417 -0.194133 0.0948454
-0.228408 0.224049 -0.109461
-0.0750343 0.519465 -0.25379
-0.00235543 0.622292 0.0086785
-0.00660878 0.537843 0.00750074
-0.00814776 0.202397 0.00282264
-0.00653698 -0.212809 -0.00296783
-0.00240396 -0.545959 -0.00761396
0.00265652 -0.668477 -0.00932261
0.00669204 -0.533091 -0.00743449
0.00814562 -0.192076 -0.00267869
0.00645086 0.221675 0.00309146
0.00211917 0.51396 0.0071677
-0.0872018 0.375543 0.321292
-0.244667 0.324579 0.27769
-0.301644 0.122143 0.104498
-0.24201 -0.128427 -0.109874
-0.0889992 -0.329478 -0.28188
0.0983479 -0.403415 -0.345137
0.247751 -0.321712 -0.275236
0.301565 -0.115914 -0.0991692
0.238821 0.133777 0.114451
0.078455 0.310166 0.26536
-0.138405 -0.0160949 0.509949
-0.388315 -0.0138727 0.440728
-0.478744 -0.00521932 0.165851
-0.384098 0.00548768 -0.174382
-0.141252 0.0140786 -0.447377
0.156089 0.017238 -0.54777
0.39321 0.0137469 -0.436833
0.478618 0.00495293 -0.157393
0.379036 -0.00571902 0.181649
0.124522 -0.013293 0.421174
-0.136211 -0.401522 0.501864
-0.381588 -0.345694 0.433127
-0.470435 -0.130057 0.162975
-0.377431 0.136743 -0.171358
-0.1388 0.350815 -0.439618
0.15338 0.429541 -0.53827
0.386386 0.342548 -0.429255
0.470311 0.123418 -0.154662
0.372468 -0.142518 0.178533
0.122548 -0.331623 0.414496
-0.0814651 -0.63204 0.300156
-0.212966 -0.510117 0.242254
-0.262302 -0.191387 0.0908898
-0.210441 0.201181 -0.0955409
-0.0773898 0.516132 -0.245111
0.0855189 0.631956 -0.300116
0.215434 0.503966 -0.239333
0.262233 0.181542 -0.0862145
0.20786 -0.210922 0.100167
0.0732938 -0.52201 0.247903
0 -0.766121 0
0 -0.6505 0
0 -0.244056 0
0 0.256546 0
0 0.65817 0
0 0.805868 0
0 0.642656 0
0 0.231502 0
0 -0.268966 0
0 -0.63275 0
-0.00240944 -0.470546 -0.605086
-0.00676031 -0.406821 -0.522973
-0.00833457 -0.15308 -0.196801
-0.00668684 0.160953 0.206924
-0.00245912 0.412923 0.530864
0.00271739 0.505585 0.649994
0.00684551 0.40319 0.518353
0.00833238 0.14527 0.186764
0.00659879 -0.167688 -0.215545
0.00216776 -0.38863 -0.499749
-0.0038893 0.00656942 -0.976725
-0.0109124 0.00565819 -0.844177
-0.0134536 0.00212904 -0.317674
-0.0107938 -0.00223855 0.334016
-0.00396948 -0.00574301 0.856917
0.00438641 -0.00703175 1.04922
0.01105 -0.00560761 0.836719
0.0134501 -0.00202043 0.301474
0.0106517 0.00233233 -0.347931
0.00349918 0.00542577 -0.806691
-0.00386864 0.48115 -0.971537
-0.0108544 0.415854 -0.839692
-0.0133821 0.156491 -0.315987
-0.0107366 -0.164541 0.332242
-0.0039484 -0.42213 0.852364
0.00436311 -0.51686 1.04364
0.0109913 -0.41218 0.832274
0.0133786 -0.148511 0.299873
0.0105951 0.171396 -0.346083
0.0034806 0.397389 -0.802406
-0.00235543 0.7701 -0.591522
-0.00660878 0.665592 -0.511248
-0.00814776 0.25047 -0.192389
-0.00653698 -0.263356 0.202286
-0.00240396 -0.675638 0.518965
0.00265652 -0.827254 0.635424
0.00669204 -0.659712 0.506732
0.00814562 -0.237697 0.182578
0.00645086 0.274326 -0.210713
0.00211917 0.636036 -0.488546
6.65236e-05 0.761939 0.0167062
0.000186647 0.658539 0.014439
0.000230119 0.247816 0.00543354
0.000184622 -0.260565 -0.00571312
6.78955e-05 -0.668477 -0.0146569
-7.50245e-05 -0.818488 -0.017946
-0.000189006 -0.652721 -0.0143115
-0.000230059 -0.235178 -0.00515649
-0.000182189 0.271419 0.00595111
-5.9851e-05 0.629296 0.0137978
0.00246281 0.459817 0.618489
0.00691004 0.397418 0.534555
0.00851921 0.149553 0.201159
0.00683498 -0.157247 -0.211508
0.00251357 -0.403415 -0.54262
-0.00277759 -0.493944 -0.664391
-0.00699717 -0.393907 -0.529833
-0.00851697 -0.141926 -0.190901
-0.00674492 0.163798 0.22032
-0.00221578 0.379769 0.510819
0.00390893 -0.0197067 0.981654
0.010967 -0.0169857 0.848402
0.0135209 -0.00639057 0.319263
0.0108478 0.00671915 -0.335687
0.00398933 0.017238 -0.861204
-0.00440835 0.0211064 -1.05446
-0.0111052 0.0168316 -0.840905
-0.0135174 0.00606441 -0.302982
-0.010705 -0.00700239 0.349674
-0.00351684 -0.016276 0.810762
0.00384695 -0.491627 0.96609
0.010777 -0.423271 0.833769
0.0132863 -0.159242 0.313729
0.0106597 0.16743 -0.329864
0.00392011 0.429541 -0.846265
-0.00433184 0.525933 -1.03617
-0.0109125 0.419417 -0.826318
-0.0132828 0.151114 -0.297724
-0.0105195 -0.1745 0.343677
-0.00346108 -0.406041 0.797907
0.00230079 -0.773874 0.577801
0.00601472 -0.624591 0.466341
0.00740812 -0.234336 0.174963
0.00594341 0.246327 -0.183917
0.00218569 0.631956 -0.47184
-0.00241528 0.773771 -0.577724
-0.00608442 0.617059 -0.460718
-0.00740615 0.222282 -0.165963
-0.00587053 -0.258254 0.192821
-0.00207001 -0.639153 0.477214
0 -0.610959 0
0 -0.518754 0
0 -0.194628 0
0 0.204587 0
0 0.524871 0
0 0.642656 0
0 0.512499 0
0 0.184616 0
0 -0.214493 0
0 -0.504599 0
-0.0892014 -0.375246 -0.662396
-0.250278 -0.324428 -0.572504
-0.308561 -0.122077 -0.215441
-0.247559 0.128355 0.226523
-0.09104 0.329295 0.581146
0.100603 0.40319 0.711557
0.253432 0.321533 0.567446
0.308479 0.115849 0.204454
0.244297 -0.133726 -0.235961
0.080254 -0.309921 -0.547082
-0.143988 0.00523891 -1.06923
-0.403997 0.00451225 -0.924132
-0.498076 0.00169784 -0.347762
-0.399607 -0.00178518 0.365652
-0.146956 -0.00457986 0.93808
0.162392 -0.00560761 1.14859
0.409088 -0.00447191 0.915968
0.497945 -0.00161125 0.330028
0.394343 0.00185996 -0.380885
0.129545 0.00432689 -0.883095
-0.143223 0.383703 -1.06355
-0.40185 0.331632 -0.919223
-0.49543 0.124797 -0.345915
-0.397485 -0.131217 0.363709
-0.146176 -0.336637 0.933096
0.16153 -0.41218 1.14249
0.406915 -0.328702 0.911102
0.4953 -0.118433 0.328274
0.392248 0.136683 -0.378862
0.128857 0.316906 -0.878404
-0.0872018 0.614132 -0.647547
-0.244667 0.530792 -0.55967
-0.301644 0.199743 -0.210611
-0.24201 -0.210018 0.221445
-0.0889992 -0.538799 0.568116
0.0983479 -0.659712 0.695606
0.247751 -0.526103 0.554725
0.301565 -0.189557 0.19987
0.238821 0.218768 -0.230671
0.078455 0.50722 -0.534818
0.00246281 0.607624 0.0182885
0.00691004 0.525167 0.0158067
0.00851921 0.197627 0.0059482
0.00683498 -0.207793 -0.00625421
0.00251357 -0.533091 -0.0160452
-0.00277759 -0.652721 -0.0196458
-0.00699717 -0.520528 -0.015667
-0.00851697 -0.187548 -0.00564488
-0.00674492 0.21645 0.00651476
-0.00221578 0.501845 0.0151047
0.0911773 0.36669 0.677068
0.255821 0.31693 0.585186
0.315396 0.119265 0.220212
0.253042 -0.1254 -0.231541
0.0930565 -0.321712 -0.594018
-0.102831 -0.393907 -0.727317
-0.259046 -0.31413 -0.580017
-0.315312 -0.113182 -0.208982
-0.249708 0.130624 0.241187
-0.0820317 0.302854 0.5592
0.144715 -0.0157155 1.07463
0.406018 -0.0135457 0.928758
0.500567 -0.0050963 0.349502
0.401606 0.00535834 -0.367481
0.147692 0.0137469 -0.942773
-0.163205 0.0168316 -1.15434
-0.411135 0.0134228 -0.92055
-0.500436 0.00483619 -0.331678
-0.396316 -0.00558419 0.382793
-0.130199 -0.0129797 0.887552
0.14242 -0.392058 1.05759
0.398984 -0.337547 0.912739
0.491881 -0.126992 0.343443
0.394637 0.13352 -0.361107
0.145128 0.342548 -0.926418
-0.160372 0.419417 -1.13431
-0.403999 0.334474 -0.904582
-0.491751 0.120509 -0.325922
-0.389449 -0.139159 0.376228
-0.128135 -0.323806 0.873479
0.0851791 -0.617141 0.632526
0.222674 -0.498093 0.51051
0.27426 -0.186876 0.191535
0.220035 0.196439 -0.201336
0.0809179 0.503966 -0.51653
-0.0894176 0.617059 -0.632442
-0.225255 0.492087 -0.504354
-0.274188 0.177263 -0.181682
-0.217336 -0.20595 0.211084
-0.0766352 -0.509706 0.522412
0 -0.220084 0
0 -0.18687 0
0 -0.0701103 0
0 0.0736981 0
0 0.189073 0
0 0.231502 0
0 0.184616 0
0 0.0665039 0
0 -0.0772662 0
0 -0.181771 0
-0.141579 -0.135174 -0.464148
-0.39722 -0.11689 -0.40118
-0.489721 -0.0439843 -0.15097
-0.392905 0.0462467 0.158736
-0.144491 0.118646 0.407236
0.159668 0.14527 0.498622
0.402226 0.115849 0.397637
0.489592 0.0417405 0.14327
0.387728 -0.0481802 -0.165347
0.127378 -0.111642 -0.383346
-0.228535 0.0018872 -0.749224
-0.641189 0.00162577 -0.64758
-0.790505 0.000611738 -0.243694
-0.634224 -0.000643199 0.25623
-0.233236 -0.00165012 0.657356
0.257736 -0.00202043 0.804872
0.649269 -0.00161125 0.641863
0.790297 -0.000580545 0.231266
0.625867 0.000670131 -0.266902
0.205612 0.00155867 -0.618795
-0.227321 0.13822 -0.745244
-0.637783 0.119487 -0.64414
-0.786306 0.044965 -0.242399
-0.630855 -0.0472782 0.254869
-0.231997 -0.121292 0.653864
0.256366 -0.148511 0.800596
0.64582 -0.118433 0.638453
0.786098 -0.0426721 0.230037
0.622542 0.0492462 -0.265484
0.20452 0.114158 -0.615508
-0.138405 0.221227 -0.453744
-0.388315 0.191244 -0.392187
-0.478744 0.0719685 -0.147585
-0.384098 -0.0756709 0.155177
-0.141252 -0.194133 0.398107
0.156089 -0.237698 0.487445
0.39321 -0.189557 0.388724
0.478618 -0.0682984 0.140059
0.379036 0.0788207 -0.161641
0.124522 0.182715 -0.374753
0.00390893 0.218883 0.0128149
0.010967 0.189217 0.0110764
0.0135209 0.0712058 0.00416818
0.0108478 -0.074869 -0.0043826
0.00398933 -0.192076 -0.0112435
-0.00440835 -0.235179 -0.0137667
-0.0111052 -0.187548 -0.0109785
-0.0135174 -0.0675746 -0.00395565
-0.010705 0.0779853 0.00456518
-0.00351684 0.180778 0.010584
0.144715 0.132092 0.474429
0.406018 0.114189 0.410066
0.500568 0.0429716 0.154313
0.401606 -0.0451821 -0.162251
0.147692 -0.115915 -0.416255
-0.163205 -0.141927 -0.509666
-0.411135 -0.113183 -0.406444
-0.500436 -0.0407802 -0.146444
-0.396316 0.0470627 0.16901
-0.130199 0.109097 0.391838
0.229689 -0.00566116 0.753005
0.644397 -0.00488041 0.650822
0.794458 -0.00183619 0.244913
0.637395 0.0019306 -0.257512
0.234403 0.00495295 -0.660645
-0.259025 0.00606442 -0.808897
-0.652517 0.0048362 -0.645073
-0.794249 0.00174247 -0.232423
-0.628998 -0.00201192 0.268239
-0.20665 -0.00467563 0.621918
0.226047 -0.14123 0.741066
0.633234 -0.121615 0.639597
0.780673 -0.0457546 0.240666
0.626335 0.0481072 -0.253044
0.230335 0.123419 -0.649184
-0.254529 0.151115 -0.794867
-0.641194 0.12051 -0.633884
-0.780467 0.0434193 -0.228389
-0.6181 -0.050137 0.263639
-0.203373 -0.116644 0.612057
0.135195 -0.222311 0.443218
0.353425 -0.179427 0.35772
0.435301 -0.0673178 0.13421
0.349235 0.0707627 -0.141078
0.128431 0.181542 -0.361938
-0.141922 0.222282 -0.443159
-0.357521 0.177263 -0.353407
-0.435185 0.0638551 -0.127307
-0.344952 -0.0741888 0.147909
-0.121634 -0.18361 0.36606
0 0.255701 0
0 0.217111 0
0 0.0814562 0
0 -0.0856246 0
0 -0.219671 0
0 -0.268966 0
0 -0.214493 0
0 -0.0772662 0
0 0.0897702 0
0 0.211187 0
-0.139334 0.157049 -0.0868291
-0.390338 0.134979 -0.0757321
-0.481223 0.0507713 -0.0285154
-0.386086 -0.0533803 0.0299842
-0.141983 -0.136947 0.076924
0.156897 -0.167679 0.0941863
0.395246 -0.133719 0.075111
0.481096 -0.0481777 0.0270642
0.381009 0.0556598 -0.0311934
0.125358 0.129709 -0.0717134
-0.224912 -0.00219261 -0.140159
-0.630081 -0.00187741 -0.122246
-0.776786 -0.000706151 -0.0460294
-0.623216 0.000742444 0.0484002
-0.229188 0.00190473 0.12417
0.253262 0.00233218 0.152035
0.638002 0.00185985 0.121244
0.776582 0.000670087 0.0436868
0.615022 -0.000774213 -0.0503522
0.202352 -0.0018109 -0.115759
-0.223717 -0.160589 -0.139414
-0.626734 -0.137953 -0.121596
-0.77266 -0.0518933 -0.0457848
-0.619905 0.0545608 0.0481431
-0.22797 0.139975 0.123511
0.251917 0.171387 0.151227
0.634613 0.136676 0.1206
0.772456 0.0492434 0.0434548
0.611755 -0.0568827 -0.0500847
0.201277 -0.132632 -0.115144
-0.136211 -0.257028 -0.0848827
-0.381588 -0.220801 -0.0740344
-0.470435 -0.0830575 -0.0278762
-0.377431 0.0873265 0.029312
-0.1388 0.224036 0.0751997
0.15338 0.274311 0.0920751
0.386386 0.218756 0.0734274
0.470311 0.0788162 0.0264575
0.372468 -0.0910428 -0.0304941
0.122548 -0.212283 -0.0701058
0.00384695 -0.254305 0.00239731
0.010777 -0.218461 0.00209092
0.0132863 -0.0821775 0.000787298
0.0106597 0.0864011 -0.000827846
0.00392011 0.221663 -0.00212383
-0.00433184 0.271404 -0.00260044
-0.0109125 0.216438 -0.00207377
-0.0132828 0.0779809 -0.00074723
-0.0105195 -0.0900779 0.000861239
-0.00346108 -0.210034 0.00197998
0.14242 -0.153468 0.0887524
0.398984 -0.131838 0.0774093
0.491881 -0.0495928 0.029147
0.394637 0.0521417 -0.0306482
0.145128 0.133769 -0.0786278
-0.160372 0.163789 -0.0962726
-0.403999 0.130617 -0.0767745
-0.491751 0.0470601 -0.0276636
-0.389449 -0.0543606 0.0318844
-0.128135 -0.126752 0.0733019
0.226047 0.00657731 0.140866
0.633234 0.00563719 0.122857
0.780674 0.00212014 0.0462592
0.626335 -0.00222908 -0.0486418
0.230335 -0.00571872 -0.12479
-0.254529 -0.00700203 -0.152794
-0.641194 -0.00558389 -0.121849
-0.780467 -0.00201181 -0.0439048
-0.6181 0.00232486 0.050604
-0.203373 0.00543229 0.116343
0.222463 0.164085 0.138633
0.622292 0.140485 0.120705
0.767161 0.0528344 0.0454438
0.615494 -0.0555489 -0.0477839
0.226348 -0.142511 -0.122589
-0.250124 -0.174491 -0.150099
-0.630097 -0.139151 -0.1197
-0.766959 -0.0501344 -0.0431302
-0.607418 0.0579397 0.0497235
-0.200149 0.13552 0.114499
0.133051 0.258288 0.0829137
0.347821 0.208463 0.0669194
0.428399 0.0782119 0.025107
0.343698 -0.0822143 -0.0263918
0.126395 -0.210922 -0.0677085
-0.139672 -0.258254 -0.0829027
-0.351852 -0.20595 -0.0661125
-0.428285 -0.0741888 -0.0238155
-0.339483 0.0861947 0.0276696
-0.119705 0.213324 0.0684796
0 0.632834 0
0 0.510758 0
0 0.191628 0
0 -0.201434 0
0 -0.516781 0
0 -0.63275 0
0 -0.504599 0
0 -0.181771 0
0 0.211187 0
0 0.522667 0
-0.0833332 0.388682 0.32399
-0.217849 0.313704 0.261491
-0.268317 0.117696 0.0981069
-0.215266 -0.123719 -0.103127
-0.0791643 -0.317403 -0.264574
0.0874799 -0.38863 -0.323947
0.220374 -0.309921 -0.258338
0.268246 -0.111642 -0.0930604
0.212627 0.129709 0.10812
0.0749744 0.321018 0.267588
-0.134516 -0.00542649 0.522982
-0.35165 -0.0043797 0.422097
-0.433115 -0.00164319 0.158363
-0.347481 0.00172728 -0.166467
-0.127787 0.00443135 -0.427074
0.141209 0.00542577 -0.522912
0.355725 0.00432689 -0.417007
0.433 0.00155867 -0.150217
0.34322 -0.00181091 0.174527
0.121023 -0.00448182 0.431938
-0.133801 -0.397442 0.520204
-0.349782 -0.320773 0.419854
-0.430815 -0.120349 0.157522
-0.345635 0.126507 -0.165583
-0.127108 0.324556 -0.424805
0.140459 0.397389 -0.520134
0.353836 0.316906 -0.414792
0.4307 0.114158 -0.149419
0.341397 -0.132632 0.1736
0.12038 -0.328252 0.429643
-0.0814651 -0.636121 0.316727
-0.212966 -0.51341 0.255629
-0.262302 -0.192623 0.0959077
-0.210441 0.20248 -0.100816
-0.0773898 0.519465 -0.258644
0.0855189 0.636036 -0.316685
0.215434 0.50722 -0.252547
0.262233 0.182715 -0.0909743
0.20786 -0.212283 0.105697
0.0732938 -0.525381 0.261589
0.00230079 -0.62938 -0.00894521
0.00601472 -0.50797 -0.00721965
0.00740812 -0.190582 -0.00270869
0.00594341 0.200334 0.0028473
0.00218569 0.51396 0.00730478
-0.00241528 0.629296 0.00894403
-0.00608442 0.501845 0.0071326
-0.00740615 0.180778 0.00256936
-0.00587053 -0.210034 -0.00298516
-0.00207001 -0.519813 -0.00738798
0.0851791 -0.37982 -0.331166
0.222674 -0.306551 -0.267283
0.27426 -0.115013 -0.10028
0.220035 0.120898 0.105412
0.0809179 0.310166 0.270435
-0.0894176 0.379769 0.331122
-0.225255 0.302855 0.26406
-0.274188 0.109097 0.0951218
-0.217336 -0.126752 -0.110515
-0.0766352 -0.313698 -0.273515
0.135195 0.0162782 -0.525621
0.353425 0.0131381 -0.424227
0.435301 0.00492918 -0.159163
0.349235 -0.00518142 0.167307
0.128431 -0.013293 0.429229
-0.141922 -0.016276 0.525551
-0.357521 -0.0129797 0.419111
-0.435185 -0.00467563 0.150976
-0.344952 0.00543229 -0.175408
-0.121634 0.0134444 -0.434118
0.133051 0.406095 -0.517287
0.347821 0.327758 -0.417501
0.428399 0.122969 -0.156639
0.343698 -0.129262 0.164655
0.126395 -0.331623 0.422424
-0.139672 -0.406041 0.517218
-0.351852 -0.323806 0.412466
-0.428285 -0.116644 0.148582
-0.339483 0.13552 -0.172627
-0.119705 0.3354 -0.427235
0.0795755 0.639238 -0.30938
0.208026 0.515927 -0.2497
0.256218 0.193567 -0.093683
0.205559 -0.203472 0.0984771
0.0755946 -0.52201 0.252644
-0.0835351 -0.639153 0.309339
-0.210436 -0.509706 0.246689
-0.25615 -0.18361 0.0888641
-0.203039 0.213324 -0.103245
-0.0715936 0.527956 -0.255521
