# vtk DataFile Version 3.0
Velocity field
ASCII
DATASET STRUCTURED_POINTS
DIMENSIONS 5 5 5
SPACING 1.33333 1.33333 1.33333
ORIGIN 0 0 0
POINT_DATA 125
VECTORS velocity float
0 0.0706344 0
0 0.0166159 0
0 -0.0628171 0
0 -0.0461697 0
0 0.0410954 0
0 -0.0374027 0.122671
0 -0.00879851 0.0332567
0 0.0332632 -0.125728
0 0.024448 -0.0924088
0 -0.021761 0.0713703
0 -0.0882314 0.0577136
0 -0.0207553 0.0156464
0 0.0784666 -0.0591521
0 0.0576719 -0.043476
0 -0.0513334 0.033578
0 -0.00410804 -0.095518
0 -0.000966365 -0.0258954
0 0.00365339 0.0978989
0 0.00268519 0.0719544
0 -0.00239007 -0.0555727
0 0.0862987 -0.102652
0 0.0203007 -0.0241477
0 -0.0767477 0.0912915
0 -0.0564086 0.0670981
0 0.0502089 -0.0597235
0 0.0166159 0
0 0.00497358 0
0 -0.0188028 0
0 -0.0138199 0
0 0.00966717 0
0.0525027 -0.00879851 0.0430798
0.0778003 -0.0020843 0.0102174
-0.0163053 0.00788001 -0.0386287
-0.0854714 0.00579172 -0.0283918
-0.0237238 -0.005119 0.025064
0.0247012 -0.0207553 0.020268
0.0366031 -0.00491991 0.00480705
-0.00767121 0.0186004 -0.0181738
-0.0402124 0.0136712 -0.0133576
-0.0111614 -0.0120755 0.011792
-0.0408814 -0.000966365 -0.0335443
-0.0605789 -0.000229101 -0.0079558
0.012696 0.000866154 0.0300781
0.0665522 0.000636616 0.0221072
0.0184726 -0.000562234 -0.0195162
-0.0439349 0.0203007 -0.0360497
-0.0646051 0.00477549 -0.00848025
0.0135398 -0.018054 0.03206
0.0709753 -0.0132694 0.0235637
0.0198523 0.011811 -0.0209739
0 -0.0628171 0
0 -0.0188029 0
0 0.0710851 0
0 0.0522466 0
0 -0.0365472 0
0.0247012 0.0332632 -0.102403
0.0366031 0.00788001 -0.0242746
-0.00767121 -0.0297915 0.0917733
-0.0402124 -0.0218965 0.0674526
-0.0111614 0.0193526 -0.0595783
0.0116213 0.0784666 -0.048178
0.0172208 0.0186004 -0.0114205
-0.00360913 -0.0703217 0.043177
-0.0189189 -0.0516858 0.0317349
-0.00525118 0.0456521 -0.0280301
-0.0192337 0.00365339 0.0797363
-0.028501 0.000866154 0.0189013
0.00597319 -0.00327462 -0.0714593
0.0313112 -0.00240682 -0.0525218
0.00869089 0.00212555 0.0463909
-0.0206703 -0.0767477 0.0856919
-0.0303951 -0.018054 0.020158
0.00637012 0.0682538 -0.0762081
0.0333921 0.0501657 -0.056012
0.00934003 -0.0446521 0.0498559
0 -0.0461697 0
0 -0.0138199 0
0 0.0522466 0
0 0.0384006 0
0 -0.0268617 0
-0.0408814 0.024448 -0.0912578
-0.0605789 0.00579173 -0.0216327
0.012696 -0.0218965 0.0817859
0.0665522 -0.0160937 0.0601117
0.0184726 0.0142239 -0.0530941
-0.0192337 0.0576719 -0.0429345
-0.028501 0.0136712 -0.0101777
0.00597319 -0.0516858 0.0384781
0.0313112 -0.0379886 0.0282812
0.00869089 0.0335537 -0.0249795
0.0318324 0.00268519 0.0710582
0.0471698 0.000636616 0.0168442
-0.00988577 -0.00240682 -0.0636824
-0.0518207 -0.001769 -0.0468059
-0.0143837 0.00156225 0.0413419
0.03421 -0.0564086 0.0763657
0.050305 -0.0132694 0.0179641
-0.0105428 0.0501657 -0.067914
-0.0552651 0.0368711 -0.0499159
-0.0154581 -0.0328187 0.0444298
0 0.0410954 0
0 0.00966717 0
0 -0.0365472 0
0 -0.0268617 0
0 0.0239094 0
-0.0439349 -0.021761 0.0594683
-0.0646051 -0.00511901 0.0139892
0.0135398 0.0193526 -0.0528867
0.0709752 0.0142239 -0.0388711
0.0198523 -0.0126606 0.0345989
-0.0206703 -0.0513334 0.0279783
-0.0303951 -0.0120755 0.00658156
0.00637012 0.0456521 -0.0248819
0.0333921 0.0335537 -0.0182879
0.00934003 -0.0298659 0.0162779
0.03421 -0.00239007 -0.0463052
0.050305 -0.000562234 -0.0108927
-0.0105428 0.00212555 0.0411804
-0.0552651 0.00156225 0.0302671
-0.0154581 -0.00139055 -0.0269405
0.0367652 0.0502089 -0.0497638
0.0540623 0.011811 -0.0117063
-0.0113302 -0.0446521 0.0442562
-0.0593929 -0.0328187 0.0325278
-0.0166127 0.0292117 -0.0289527
