# vtk DataFile Version 3.0
Velocity field
ASCII
DATASET STRUCTURED_POINTS
DIMENSIONS 5 5 5
SPACING 1.33333 1.33333 1.33333
ORIGIN 0 0 0
POINT_DATA 125
VECTORS velocity float
0 0.0439867 0
0 0.0103473 0
0 -0.0391185 0
0 -0.0287516 0
0 0.0255916 0
0 -0.023292 0.0763917
0 -0.00547916 0.0207102
0 0.0207142 -0.0782958
0 0.0152247 -0.0575464
0 -0.0135514 0.0444449
0 -0.054945 0.0359404
0 -0.0129251 0.00974362
0 0.048864 -0.0368362
0 0.0359144 -0.0270741
0 -0.0319672 0.0209102
0 -0.00255823 -0.0594826
0 -0.000601791 -0.016126
0 0.0022751 0.0609652
0 0.00167217 0.0448087
0 -0.00148839 -0.0346072
0 0.0537414 -0.0639255
0 0.012642 -0.0150377
0 -0.0477937 0.0568506
0 -0.0351277 0.0417845
0 0.0312669 -0.0371921
0 0.0103473 0
0 0.00309723 0
0 -0.0117092 0
0 -0.00860613 0
0 0.0060201 0
0.0326954 -0.00547916 0.0268274
0.0483107 -0.0012946 0.00634347
-0.0101248 0.00489436 -0.0239821
-0.0530742 0.00359729 -0.0176266
-0.0147737 -0.00318779 0.0156083
0.0153823 -0.0129251 0.0126216
0.022729 -0.00305515 0.00298445
-0.00476348 0.0115502 -0.011283
-0.0249701 0.00848931 -0.00829286
-0.00695064 -0.00751988 0.00734331
-0.0254583 -0.000601791 -0.0208892
-0.0376171 -0.000142255 -0.00493935
0.00788372 0.000537807 0.0186737
0.0413262 0.000395282 0.013725
0.0115036 -0.000350124 -0.0121534
-0.0273599 0.012642 -0.0224495
-0.040232 0.00297387 -0.00528097
0.00843171 -0.0112429 0.0199649
0.0441989 -0.00826336 0.014674
0.0123628 0.00735516 -0.0130612
0 -0.0391185 0
0 -0.0117092 0
0 0.0442673 0
0 0.0325359 0
0 -0.0227593 0
0.0153823 0.0207142 -0.06377
0.022729 0.00489436 -0.0150737
-0.00476348 -0.0185035 0.0569872
-0.0249701 -0.0135999 0.041885
-0.00695064 0.0120516 -0.0371016
0.00723701 0.048864 -0.0300022
0.0106934 0.0115502 -0.00709177
-0.0022411 -0.0436668 0.0268111
-0.0117478 -0.0320946 0.0197059
-0.0032701 0.0284292 -0.0174554
-0.0119775 0.0022751 0.0496547
-0.0176979 0.000537807 0.0117371
0.0037091 -0.00203323 -0.0443733
0.019443 -0.0014944 -0.0326138
0.00541214 0.00132366 0.0288893
-0.0128721 -0.0477937 0.0533635
-0.0189282 -0.0112429 0.0125531
0.00396691 0.0425042 -0.0474576
0.0207945 0.03124 -0.0348807
0.00581638 -0.0278065 0.0310471
0 -0.0287516 0
0 -0.00860613 0
0 0.0325359 0
0 0.0239135 0
0 -0.0167278 0
-0.0254583 0.0152247 -0.0568296
-0.0376171 0.00359729 -0.0134332
0.00788372 -0.0135999 0.0507852
0.0413262 -0.00999577 0.0373266
0.0115036 0.00885777 -0.0330637
-0.0119775 0.0359144 -0.0267369
-0.0176979 0.00848931 -0.00631996
0.0037091 -0.0320946 0.0238931
0.019443 -0.0235891 0.0175612
0.00541214 0.0208951 -0.0155556
0.0198232 0.00167217 0.0442506
0.0292907 0.000395282 0.0104597
-0.00613867 -0.0014944 -0.039544
-0.0321788 -0.00109837 -0.0290643
-0.00895728 0.000972873 0.0257451
0.0213038 -0.0351277 0.0475557
0.0313268 -0.00826336 0.0111869
-0.00656538 0.03124 -0.0422926
-0.0344156 0.022961 -0.0310845
-0.00962632 -0.0204374 0.0276681
0 0.0255916 0
0 0.0060201 0
0 -0.0227593 0
0 -0.0167278 0
0 0.0148893 0
-0.0273599 -0.0135514 0.0370331
-0.040232 -0.00318779 0.00871157
0.00843171 0.0120516 -0.0329345
0.0441989 0.00885777 -0.0242064
0.0123628 -0.00788424 0.021546
-0.0128721 -0.0319672 0.0174231
-0.0189281 -0.00751988 0.00409858
0.00396691 0.0284293 -0.0154949
0.0207945 0.0208951 -0.0113885
0.00581638 -0.0185986 0.0101369
0.0213038 -0.00148839 -0.0288359
0.0313267 -0.000350124 -0.00678329
-0.00656538 0.00132366 0.0256446
-0.0344156 0.000972874 0.0188484
-0.00962632 -0.000865948 -0.0167769
0.0228951 0.0312669 -0.0309897
0.0336666 0.00735516 -0.00728995
-0.00705576 -0.0278065 0.02756
-0.0369862 -0.0204374 0.0202562
-0.0103453 0.0181912 -0.0180299
