# vtk DataFile Version 3.0
Velocity field
ASCII
DATASET STRUCTURED_POINTS
DIMENSIONS 10 10 10
SPACING 0.631579 0.631579 0.631579
ORIGIN 0 0 0
POINT_DATA 1000
VECTORS velocity float
0 0.0161586 0
0 0.0130415 0
0 0.00489297 0
0 -0.00514336 0
0 -0.0131953 0
0 -0.0161565 0
0 -0.0128843 0
0 -0.00464128 0
0 0.00539238 0
0 0.0133456 0
0 0.00992449 0.0126574
0 0.00801002 0.0106163
0 0.00300522 0.00398306
0 -0.00315901 -0.00418688
0 -0.00810448 -0.0107415
0 -0.00992317 -0.013152
0 -0.00791344 -0.0104883
0 -0.00285064 -0.00377818
0 0.00331196 0.0043896
0 0.00819678 0.0104539
0 -0.000138558 0.0204315
0 -0.00011183 0.0171368
0 -4.19567e-05 0.00642942
0 4.41038e-05 -0.00675844
0 0.000113149 -0.0173388
0 0.00013854 -0.0212298
0 0.000110482 -0.0169301
0 3.97985e-05 -0.0060987
0 -4.62391e-05 0.00708566
0 -0.000114437 0.0168747
0 -0.0101482 0.020323
0 -0.00819054 0.0170457
0 -0.00307295 0.00639527
0 0.0032302 -0.00672254
0 0.00828712 -0.0172467
0 0.0101468 -0.021117
0 0.00809178 -0.0168402
0 0.00291488 -0.0060663
0 -0.0033866 0.00704802
0 -0.0083815 0.016785
0 -0.0162425 0.0123737
0 -0.0131093 0.0103783
0 -0.00491838 0.00389377
0 0.00517006 -0.00409303
0 0.0132639 -0.0105007
0 0.0162404 -0.0128571
0 0.0129512 -0.0102532
0 0.00466538 -0.00369348
0 -0.00542038 0.0042912
0 -0.0134149 0.0102196
0 -0.0160704 -0.000349466
0 -0.0129704 -0.000293112
0 -0.00486626 -0.000109971
0 0.00511528 0.000115598
0 0.0131233 0.000296568
0 0.0160683 0.000363119
0 0.012814 0.000289578
0 0.00461594 0.000104314
0 -0.00536294 -0.000121195
0 -0.0132728 -0.000288629
0 -0.0096982 -0.0129378
0 -0.00782738 -0.0108515
0 -0.0029367 -0.00407129
0 0.00308698 0.00427963
0 0.00791968 0.0109794
0 0.00969691 0.0134433
0 0.007733 0.0107206
0 0.00278564 0.00386186
0 -0.00323644 -0.00448683
0 -0.00800988 -0.0106855
0 0.000415643 -0.0205346
0 0.000335464 -0.0172233
0 0.00012586 -0.00646187
0 -0.000132301 0.00679255
0 -0.000339419 0.0174263
0 -0.000415587 0.0213369
0 -0.000331419 0.0170156
0 -0.000119386 0.00612948
0 0.000138706 -0.00712141
0 0.000343285 -0.0169598
0 0.0103691 -0.020209
0 0.00836887 -0.0169502
0 0.00313986 -0.00635942
0 -0.00330054 0.00668485
0 -0.00846756 0.01715
0 -0.0103677 0.0209986
0 -0.00826796 0.0167458
0 -0.00297835 0.00603229
0 0.00346033 -0.0070085
0 0.00856399 -0.0166909
0 0.0163221 -0.0120867
0 0.0131735 -0.00975509
0 0.00494248 -0.00365995
0 -0.0051954 0.00384724
0 -0.0133289 0.00987013
0 -0.0163199 0.012085
0 -0.0130147 0.00963747
0 -0.00468824 0.00347168
0 0.00544694 -0.0040335
0 0.0134807 -0.00998254
0 0.0130415 0
0 0.0110733 0
0 0.00415452 0
0 -0.00436712 0
0 -0.0112039 0
0 -0.0137181 0
0 -0.0109398 0
0 -0.00394081 0
0 0.00457856 0
0 0.0107712 0
0.00184037 0.00801002 0.0140082
0.00481776 0.00647442 0.0113221
0.00593387 0.0024291 0.00424786
0.00476065 -0.0025534 -0.00446524
0.00175073 -0.00655078 -0.0114556
-0.00193463 -0.00802082 -0.0140263
-0.00487359 -0.00639636 -0.0111856
-0.0059323 -0.00230415 -0.00402936
-0.00470227 0.00267702 0.00468142
-0.00165577 0.00661557 0.0115696
0.00297071 -0.00011183 0.0226119
0.00777679 -9.03822e-05 0.018276
0.00957841 -3.39099e-05 0.00685687
0.0076846 3.56452e-05 -0.00720775
0.00282602 9.14481e-05 -0.0184916
-0.00312287 0.00011197 -0.0226412
-0.00786693 8.92925e-05 -0.0180557
-0.00957587 3.21656e-05 -0.00650416
-0.00759037 -3.73709e-05 0.00755671
-0.00267273 -9.23617e-05 0.0186755
0.00295493 -0.00819054 0.0224918
0.00773549 -0.00661971 0.0181789
0.00952753 -0.00248361 0.00682044
0.00764378 0.0026107 -0.00716946
0.00281101 0.00669778 -0.0183933
-0.00310628 0.00820081 -0.0225209
-0.00782513 0.0065399 -0.0179598
-0.009525 0.00235585 -0.0064696
-0.00755005 -0.0027371 0.00751656
-0.00265854 -0.00676466 0.0185763
0.00179912 -0.0131093 0.0136942
0.00470976 -0.0105951 0.0110683
0.00580085 -0.00397511 0.00415264
0.00465393 0.00417853 -0.00436514
0.00171149 0.0107201 -0.0111988
-0.00189126 0.0131257 -0.0137119
-0.00476435 0.0104674 -0.0109348
-0.00579931 0.00377064 -0.00393903
-0.00459686 -0.00438083 0.00457647
-0.00161866 -0.0108271 0.0113102
-5.08118e-05 -0.0129704 -0.00038676
-0.000133016 -0.0104828 -0.000312598
-0.000163832 -0.00393299 -0.000117282
-0.000131439 0.00413425 0.000123283
-4.83369e-05 0.0106065 0.000316285
5.34143e-05 0.0129866 0.000387261
0.000134558 0.0103564 0.000308829
0.000163788 0.00373068 0.000111249
0.000129828 -0.0043344 -0.000129252
4.57151e-05 -0.0107124 -0.000319431
-0.00188114 -0.00782738 -0.0143185
-0.00492448 -0.0063262 -0.0115729
-0.00606531 -0.00237349 -0.00434195
-0.0048661 0.00249495 0.00456414
-0.00178951 0.00640081 0.0117094
0.00197748 0.0078372 0.014337
0.00498155 0.00624993 0.0114333
0.0060637 0.0022514 0.00411861
0.00480643 -0.00261574 -0.00478511
0.00169245 -0.00646472 -0.0118258
-0.0029857 0.000335464 -0.022726
-0.00781604 0.000271127 -0.0183683
-0.00962675 0.000101722 -0.00689147
-0.00772339 -0.000106928 0.00724413
-0.00284028 -0.000274324 0.0185849
0.00313863 -0.000335884 0.0227554
0.00790663 -0.000267858 0.0181468
0.00962419 -9.64897e-05 0.00653698
0.00762867 0.000112104 -0.00759484
0.00268622 0.000277063 -0.0187697
-0.00293836 0.00836887 -0.0223657
-0.00769211 0.00676383 -0.018077
-0.00947411 0.00253768 -0.0067822
-0.00760092 -0.00266754 0.00712926
-0.00279525 -0.0068436 0.0182902
0.00308886 -0.00837935 0.0223947
0.00778125 -0.00668229 0.0178591
0.00947159 -0.00240714 0.00643333
0.00750771 0.00279669 -0.00747442
0.00264363 0.00691195 -0.0184721
-0.00175738 0.0131735 -0.0133765
-0.00459414 0.0106323 -0.0107961
-0.00565844 0.00398906 -0.00405053
-0.00453967 -0.00419319 0.00425781
-0.00166947 -0.0107577 0.0109235
0.00184483 -0.0131718 0.0133747
0.00464738 -0.0105041 0.010666
0.00565694 -0.00378386 0.00384218
0.00448401 0.00439621 -0.00446396
0.00158111 0.0108802 -0.0110479
0 0.00489297 0
0 0.00415452 0
0 0.0015587 0
0 -0.00163847 0
0 -0.00420351 0
0 -0.00514681 0
0 -0.00410442 0
0 -0.00147853 0
0 0.0017178 0
0 0.00404116 0
0.00297071 0.00300522 0.00995451
0.00777679 0.0024291 0.0080454
0.00957842 0.000911357 0.0030185
0.0076846 -0.000957994 -0.00317297
0.00282602 -0.00245774 -0.00814028
-0.00312287 -0.00300928 -0.00996702
-0.00786693 -0.00239981 -0.0079484
-0.00957587 -0.000864478 -0.00286323
-0.00759037 0.00100437 0.00332658
-0.00267273 0.00248205 0.00822157
0.0047953 -4.19567e-05 0.0160685
0.0125532 -3.39099e-05 0.0129868
0.0154614 -1.27224e-05 0.00487244
0.0124044 1.33735e-05 -0.00512178
0.00456174 3.43098e-05 -0.01314
-0.0050409 4.20092e-05 -0.0160887
-0.0126987 3.35011e-05 -0.0128303
-0.0154573 1.2068e-05 -0.00462181
-0.0122523 -1.40209e-05 0.00536974
-0.00431431 -3.46525e-05 0.0132712
0.00476983 -0.00307295 0.0159831
0.0124866 -0.00248361 0.0129178
0.0153793 -0.000931808 0.00484656
0.0123385 0.000979492 -0.00509457
0.0045375 0.0025129 -0.0130702
-0.00501413 0.00307681 -0.0160032
-0.0126313 0.00245366 -0.0127621
-0.0153752 0.000883878 -0.00459726
-0.0121872 -0.00102691 0.00534122
-0.00429139 -0.00253798 0.0132007
0.00290412 -0.00491838 0.00973137
0.00760247 -0.00397511 0.00786505
0.0093637 -0.0014914 0.00295084
0.00751234 0.00156772 -0.00310184
0.00276267 0.00402199 -0.0079578
-0.00305286 0.00492455 -0.00974358
-0.00769057 0.00392718 -0.00777022
-0.00936121 0.00141468 -0.00279905
-0.00742022 -0.00164361 0.00325201
-0.00261282 -0.00406214 0.00803727
-8.20201e-05 -0.00486626 -0.00027484
-0.000214714 -0.00393299 -0.00022213
-0.000264456 -0.00147559 -8.33395e-05
-0.000212168 0.0015511 8.76043e-05
-7.80251e-05 0.00397937 0.00022475
8.62209e-05 0.00487236 0.000275185
0.000217202 0.00388557 0.000219452
0.000264385 0.00139969 7.90526e-05
0.000209567 -0.0016262 -9.18455e-05
7.3793e-05 -0.0040191 -0.000226994
-0.00303652 -0.0029367 -0.010175
-0.00794905 -0.00237349 -0.00822361
-0.00979058 -0.000890493 -0.00308536
-0.00785482 0.000936062 0.00324325
-0.00288862 0.00240148 0.00832059
0.00319204 0.00294039 0.0101878
0.00804118 0.00234487 0.00812446
0.00978798 0.000844688 0.00292665
0.0077585 -0.000981381 -0.00340027
0.00273194 -0.00242545 -0.00840369
-0.0048195 0.00012586 -0.0161496
-0.0126166 0.000101722 -0.0130524
-0.0155394 3.81645e-05 -0.00489703
-0.012467 -4.01175e-05 0.00514762
-0.00458476 -0.000102922 0.0132063
0.00506634 -0.000126018 0.0161699
0.0127628 -0.000100496 0.012895
0.0155353 -3.62014e-05 0.00464513
0.0123141 4.20597e-05 -0.00539684
0.00433608 0.000103949 -0.0133382
-0.00474309 0.00313986 -0.0158935
-0.0124165 0.00253768 -0.0128454
-0.015293 0.000952095 -0.00481938
-0.0122693 -0.00100082 0.00506601
-0.00451206 -0.00256761 0.0129969
0.00498601 -0.0031438 0.0159135
0.0125605 -0.00250708 0.0126905
0.015289 -0.000903121 0.00457148
0.0121189 0.00104927 -0.00531127
0.00426733 0.00259325 -0.0131267
-0.00283676 0.00494248 -0.00950564
-0.00741582 0.00398906 -0.00767197
-0.00913381 0.00149663 -0.00287839
-0.00732791 -0.00157321 0.00302569
-0.00269484 -0.0040361 0.00776243
0.00297791 -0.00494182 0.00950438
0.00750177 -0.00394096 0.00757946
0.00913139 -0.00141964 0.00273033
0.00723805 0.00164938 -0.00317218
0.00255221 0.00408206 -0.00785084
0 -0.00514336 0
0 -0.00436712 0
0 -0.00163847 0
0 0.00172231 0
0 0.00441862 0
0 0.00541018 0
0 0.00431446 0
0 0.00155419 0
0 -0.0018057 0
0 -0.00424796 0
0.00295493 -0.00315901 0.00206031
0.00773549 -0.0025534 0.00166517
0.00952753 -0.000957994 0.000624745
0.00764378 0.00100702 -0.000656716
0.00281101 0.00258351 -0.00168481
-0.00310628 0.00316327 -0.00206289
-0.00782513 0.00252262 -0.0016451
-0.009525 0.000908716 -0.000592609
-0.00755005 -0.00105577 0.00068851
-0.00265854 -0.00260906 0.00170164
0.00476983 4.41038e-05 0.00332573
0.0124866 3.56452e-05 0.00268791
0.0153793 1.33735e-05 0.00100846
0.0123385 -1.40579e-05 -0.00106007
0.0045375 -3.60656e-05 -0.00271961
-0.00501413 -4.41589e-05 -0.00332991
-0.0126313 -3.52154e-05 -0.0026555
-0.0153752 -1.26856e-05 -0.000956585
-0.0121872 1.47384e-05 0.00111139
-0.00429139 3.64258e-05 0.00274677
0.00474449 0.0032302 0.00330807
0.0124202 0.0026107 0.00267363
0.0152976 0.000979492 0.0010031
0.012273 -0.00102962 -0.00105443
0.0045134 -0.00264149 -0.00270516
-0.00498749 -0.00323426 -0.00331222
-0.0125642 -0.00257922 -0.0026414
-0.0152935 -0.000929108 -0.000951504
-0.0121225 0.00107946 0.00110548
-0.00426859 0.00266786 0.00273218
0.00288869 0.00517006 0.00201412
0.00756208 0.00417853 0.00162785
0.00931396 0.00156772 0.000610741
0.00747243 -0.00164794 -0.000641995
0.00274799 -0.00422781 -0.00164704
-0.00303665 -0.00517656 -0.00201665
-0.00764972 -0.00412815 -0.00160822
-0.00931148 -0.00148707 -0.000579325
-0.0073808 0.00172772 0.000673076
-0.00259894 0.00427002 0.00166349
-8.15844e-05 0.00511528 -5.68842e-05
-0.000213573 0.00413425 -4.59747e-05
-0.000263051 0.0015511 -1.7249e-05
-0.000211042 -0.00163048 1.81316e-05
-7.76107e-05 -0.00418301 4.65169e-05
8.57629e-05 -0.0051217 5.69556e-05
0.000216049 -0.0040844 4.54204e-05
0.000262981 -0.00147132 1.63617e-05
0.000208453 0.00170941 -1.90095e-05
7.3401e-05 0.00422477 -4.69814e-05
-0.00302039 0.00308698 -0.00210594
-0.00790683 0.00249495 -0.00170206
-0.00973856 0.000936062 -0.000638584
-0.00781309 -0.000983964 0.000671262
-0.00287327 -0.00252437 0.00172213
0.00317508 -0.00309085 0.00210859
0.00799846 -0.00246487 0.00168154
0.00973598 -0.000887913 0.000605736
0.00771729 0.0010316 -0.000703761
0.00271742 0.00254957 -0.00173933
-0.0047939 -0.000132301 -0.00334252
-0.0125496 -0.000106928 -0.00270147
-0.0154569 -4.01175e-05 -0.00101355
-0.0124008 4.21704e-05 0.00106542
-0.0045604 0.000108189 0.00273333
0.00503943 0.000132467 0.00334671
0.012695 0.000105639 0.0026689
0.0154528 3.80539e-05 0.000961413
0.0122487 -4.42121e-05 -0.001117
0.00431305 -0.000109269 -0.00276063
-0.00471789 -0.00330054 -0.00328952
-0.0123506 -0.00266754 -0.00265864
-0.0152118 -0.00100082 -0.000997478
-0.0122042 0.00105203 0.00104852
-0.00448809 0.002699 0.00268999
0.00495953 0.00330467 0.00329365
0.0124937 0.00263538 0.00262659
0.0152077 0.000949336 0.000946169
0.0120545 -0.00110297 -0.00109928
0.00424466 -0.00272595 -0.00271686
-0.00282169 -0.0051954 -0.0019674
-0.00737643 -0.00419319 -0.00158788
-0.00908529 -0.00157321 -0.000595747
-0.00728898 0.00165372 0.000626233
-0.00268053 0.00424264 0.00160661
0.00296209 0.00519471 0.00196714
0.00746192 0.00414263 0.00156874
0.00908288 0.00149229 0.000565102
0.0071996 -0.00173379 -0.000656553
0.00253866 -0.00429095 -0.0016249
0 -0.0131953 0
0 -0.0112039 0
0 -0.00420351 0
0 0.00441862 0
0 0.011336 0
0 0.0138799 0
0 0.0110688 0
0 0.00398729 0
0 -0.00463255 0
0 -0.0108982 0
0.00179912 -0.00810448 -0.00662878
0.00470976 -0.00655078 -0.00535748
0.00580086 -0.00245774 -0.00201004
0.00465393 0.00258351 0.0021129
0.00171149 0.00662803 0.00542067
-0.00189126 0.00811541 0.0066371
-0.00476435 0.0064718 0.0052929
-0.00579931 0.00233132 0.00190665
-0.00459686 -0.00270859 -0.00221519
-0.00161866 -0.00669358 -0.0054748
0.00290412 0.000113149 -0.0107001
0.00760247 9.14481e-05 -0.00864801
0.0093637 3.43098e-05 -0.00324459
0.00751234 -3.60656e-05 0.00341063
0.00276267 -9.25266e-05 0.00875
-0.00305286 -0.00011329 0.0107136
-0.00769057 -9.03456e-05 0.00854375
-0.00936121 -3.2545e-05 0.00307769
-0.00742022 3.78116e-05 -0.00357575
-0.00261282 9.34508e-05 -0.00883739
0.00288869 0.00828712 -0.0106433
0.00756208 0.00669778 -0.00860207
0.00931396 0.0025129 -0.00322736
0.00747243 -0.00264149 0.00339251
0.00274799 -0.00677677 0.00870352
-0.00303665 -0.00829752 0.0106566
-0.00764972 -0.00661703 0.00849836
-0.00931148 -0.00238364 0.00306135
-0.0073808 0.00276937 -0.00355675
-0.00259894 0.00684443 -0.00879044
0.00175879 0.0132639 -0.00648019
0.00460419 0.0107201 -0.00523739
0.00567082 0.00402199 -0.00196498
0.0045496 -0.00422781 0.00206554
0.00167312 -0.0108465 0.00529916
-0.00184887 -0.0132805 0.00648832
-0.00465755 -0.0105908 0.00517425
-0.00566931 -0.0038151 0.00186391
-0.00449381 0.00443249 -0.00216554
-0.00158237 0.0109548 -0.00535208
-4.96728e-05 0.0131233 0.000183018
-0.000130035 0.0106065 0.000147918
-0.000160159 0.00397937 5.54964e-05
-0.000128493 -0.00418301 -5.83363e-05
-4.72534e-05 -0.0107315 -0.000149662
5.22169e-05 -0.0131398 -0.000183247
0.000131542 -0.0104786 -0.000146135
0.000160117 -0.00377468 -5.26417e-05
0.000126917 0.00438552 6.11606e-05
4.46904e-05 0.0108387 0.000151157
-0.00183897 0.00791968 0.00677561
-0.00481409 0.00640081 0.00547616
-0.00592935 0.00240148 0.00205457
-0.00475702 -0.00252437 -0.0021597
-0.0017494 -0.0064763 -0.00554074
0.00193316 -0.00792963 -0.00678412
0.00486988 -0.00632364 -0.00541014
0.00592778 -0.00227795 -0.00194888
0.00469868 0.00264658 0.00226426
0.00165451 0.00654096 0.00559607
-0.00291877 -0.000339419 0.0107541
-0.00764083 -0.000274324 0.00869166
-0.00941094 -0.000102922 0.00326097
-0.00755026 0.000108189 -0.00342784
-0.00277661 0.000277559 -0.00879416
0.00306827 0.000339846 -0.0107676
0.00772939 0.000271017 -0.00858687
0.00940844 9.76278e-05 -0.00309322
0.00745766 -0.000113427 0.0035938
0.00262601 -0.00028033 0.00888198
-0.0028725 -0.00846756 0.0105836
-0.00751968 -0.0068436 0.00855385
-0.00926173 -0.00256761 0.00320926
-0.00743054 0.002699 -0.00337349
-0.00273259 0.00692431 -0.00865472
0.00301962 0.00847817 -0.0105969
0.00760683 0.00676109 -0.00845071
0.00925927 0.00243553 -0.00304418
0.00733941 -0.00282967 0.00353681
0.00258437 -0.00699345 0.00874116
-0.00171799 -0.0133289 0.00632987
-0.00449115 -0.0107577 0.00510882
-0.0055316 -0.0040361 0.00191674
-0.00443791 0.00424264 -0.00201483
-0.00163204 0.0108845 -0.00516906
0.00180348 0.0133271 -0.00632903
0.0045432 0.010628 -0.00504721
0.00553013 0.00382848 -0.00181815
0.00438349 -0.00444805 0.00211238
0.00154567 -0.0110085 0.00522793
0 -0.0161565 0
0 -0.0137181 0
0 -0.00514681 0
0 0.00541018 0
0 0.0138799 0
0 0.0169946 0
0 0.0135527 0
0 0.00488206 0
0 -0.00567212 0
0 -0.0133438 0
-5.08118e-05 -0.00992317 -0.0127604
-0.000133016 -0.00802082 -0.0103132
-0.000163832 -0.00300928 -0.00386934
-0.000131439 0.00316327 0.00406734
-4.83369e-05 0.00811541 0.0104348
5.34143e-05 0.00993656 0.0127765
0.000134558 0.00792412 0.0101889
0.000163788 0.00285448 0.0036703
0.000129828 -0.00331642 -0.00426426
4.57151e-05 -0.00819566 -0.010539
-8.20201e-05 0.00013854 -0.0205978
-0.000214714 0.00011197 -0.0166475
-0.000264456 4.20092e-05 -0.00624586
-0.000212168 -4.41589e-05 0.00656548
-7.80251e-05 -0.00011329 0.0168438
8.62209e-05 -0.000138713 0.0206237
0.000217202 -0.00011062 0.0164468
0.000264385 -3.98483e-05 0.00592458
0.000209567 4.62968e-05 -0.00688334
7.3793e-05 0.000114422 -0.017012
-8.15844e-05 0.0101468 -0.0204884
-0.000213573 0.00820081 -0.016559
-0.000263051 0.00307681 -0.00621268
-0.000211042 -0.00323426 0.0065306
-7.76107e-05 -0.00829752 0.0167543
8.57629e-05 -0.0101595 0.0205141
0.000216049 -0.00810193 0.0163594
0.000262981 -0.00291854 0.00589311
0.000208453 0.00339084 -0.00684677
7.3401e-05 0.00838036 -0.0169216
-4.96728e-05 0.0162404 -0.0124744
-0.000130035 0.0131257 -0.010082
-0.000160159 0.00492455 -0.0037826
-0.000128493 -0.00517656 0.00397617
-4.72534e-05 -0.0132805 0.0102009
5.22169e-05 -0.0162607 0.0124901
0.000131542 -0.0129675 0.00996045
0.000160117 -0.00467124 0.00358803
0.000126917 0.00542717 -0.00416867
4.46904e-05 0.0134131 -0.0103028
1.40289e-06 0.0160683 0.00035231
3.67252e-06 0.0129866 0.000284743
4.52332e-06 0.00487236 0.000106831
3.62899e-06 -0.0051217 -0.000112298
1.33456e-06 -0.0131398 -0.000288101
-1.47475e-06 -0.0160884 -0.000352752
-3.71508e-06 -0.0128301 -0.00028131
-4.52212e-06 -0.00462174 -0.000101335
-3.58448e-06 0.00536966 0.000117734
-1.26218e-06 0.013271 0.000290978
5.19373e-05 0.00969691 0.0130431
0.000135963 0.0078372 0.0105416
0.000167461 0.00294039 0.00395505
0.000134351 -0.00309085 -0.00415744
4.94076e-05 -0.00792963 -0.010666
-5.45975e-05 -0.00970908 -0.0130595
-0.000137538 -0.00774271 -0.0104145
-0.000167416 -0.00278914 -0.0037516
-0.000132703 0.00324049 0.00435872
-4.67278e-05 0.00800879 0.0107725
8.2434e-05 -0.000415587 0.0207018
0.000215798 -0.000335884 0.0167315
0.00026579 -0.000126018 0.00627738
0.000213239 0.000132467 -0.00659861
7.84189e-05 0.000339846 -0.0169288
-8.66561e-05 0.000416109 -0.0207277
-0.000218298 0.000331835 -0.0165298
-0.00026572 0.000119536 -0.00595448
-0.000210624 -0.00013888 0.00691808
-7.41654e-05 -0.000343238 0.0170979
8.1127e-05 -0.0103677 0.0203735
0.000212376 -0.00837935 0.0164662
0.000261576 -0.0031438 0.00617784
0.000209858 0.00330467 -0.00649398
7.71755e-05 0.00847817 -0.0166604
-8.52821e-05 0.0103807 -0.0203991
-0.000214837 0.00827832 -0.0162677
-0.000261507 0.00298208 -0.00586006
-0.000207285 -0.00346466 0.00680838
-7.29895e-05 -0.00856283 0.0168268
4.85206e-05 -0.0163199 0.012185
0.000126842 -0.0131718 0.0098345
0.000156227 -0.00494182 0.00368974
0.000125338 0.00519471 -0.00387855
4.60933e-05 0.0133271 -0.00995047
-5.0935e-05 0.0163178 -0.0121834
-0.000128312 0.0130129 -0.00971591
-0.000156186 0.00468762 -0.00349994
-0.000123801 -0.00544622 0.00406634
-4.36537e-05 -0.0134789 0.0100638
0 -0.0128843 0
0 -0.0109398 0
0 -0.00410442 0
0 0.00431446 0
0 0.0110688 0
0 0.0135527 0
0 0.0108079 0
0 0.0038933 0
0 -0.00452335 0
0 -0.0106413 0
-0.00188114 -0.00791344 -0.013969
-0.00492448 -0.00639636 -0.01129
-0.00606531 -0.00239981 -0.00423581
-0.0048661 0.00252262 0.00445258
-0.00178951 0.0064718 0.0114231
0.00197748 0.00792412 0.0139866
0.00498155 0.00631924 0.0111539
0.0060637 0.00227637 0.00401793
0.00480643 -0.00264474 -0.00466814
0.00169245 -0.0065358 -0.0115372
-0.00303652 0.000110482 -0.0225487
-0.00794905 8.92925e-05 -0.0182242
-0.00979058 3.35011e-05 -0.00683742
-0.00785482 -3.52154e-05 0.00718731
-0.00288862 -9.03456e-05 0.0184391
0.00319204 -0.00011062 0.022577
0.00804118 -8.82159e-05 0.0180045
0.00978798 -3.17778e-05 0.00648571
0.0077585 3.69204e-05 -0.00753528
0.00273194 9.1248e-05 -0.0186233
-0.00302039 0.00809178 -0.0224289
-0.00790683 0.0065399 -0.0181274
-0.00973857 0.00245366 -0.0068011
-0.00781309 -0.00257922 0.00714913
-0.00287327 -0.00661703 0.0183412
0.00317508 -0.00810193 0.0224571
0.00799846 -0.00646105 0.0179089
0.00973598 -0.00232745 0.00645126
0.00771729 0.0027041 -0.00749525
0.00271742 0.00668309 -0.0185243
-0.00183897 0.0129512 -0.0136559
-0.00481409 0.0104674 -0.0110369
-0.00592935 0.00392718 -0.00414086
-0.00475702 -0.00412815 0.00435277
-0.0017494 -0.0105908 0.0111671
0.00193316 -0.0129675 0.013673
0.00486988 -0.0103412 0.0109038
0.00592778 -0.00372517 0.00392786
0.00469868 0.00432801 -0.0045635
0.00165451 0.0106965 -0.0112786
5.19373e-05 0.012814 0.000385679
0.000135963 0.0103564 0.000311712
0.000167461 0.00388557 0.000116949
0.000134351 -0.0040844 -0.000122934
4.94076e-05 -0.0104786 -0.000315388
-5.45975e-05 -0.0128301 -0.000386163
-0.000137538 -0.0102316 -0.000307954
-0.000167416 -0.0036857 -0.000110933
-0.000132703 0.00428215 0.000128885
-4.67278e-05 0.0105832 0.000318537
0.0019228 0.007733 0.0142784
0.00503356 0.00624993 0.0115401
0.00619966 0.00234487 0.00432964
0.00497389 -0.00246487 -0.0045512
0.00182915 -0.00632364 -0.0116762
-0.00202129 -0.00774271 -0.0142964
-0.0050919 -0.00617458 -0.0114009
-0.00619801 -0.00222426 -0.00410693
-0.00491289 0.0025842 0.00477155
-0.00172994 0.00638677 0.0117928
0.00305184 -0.000331419 0.0226625
0.00798917 -0.000267858 0.0183162
0.00983999 -0.000100496 0.00687193
0.00789446 0.000105639 -0.00722359
0.00290319 0.000271017 -0.0185322
-0.00320815 0.000331835 -0.0226909
-0.00808176 0.000264628 -0.0180954
-0.00983738 9.53265e-05 -0.00651844
-0.00779765 -0.000110753 0.00757331
-0.00274572 -0.000273722 0.0187173
0.00300345 -0.00826796 0.0223032
0.0078625 -0.00668229 0.0180258
0.00968397 -0.00250708 0.00676297
0.00776928 0.00263538 -0.00710905
0.00285716 0.00676109 -0.0182383
-0.00315728 0.00827832 -0.0223312
-0.00795362 0.00660172 -0.0178084
-0.00968139 0.00237812 -0.00641509
-0.00767401 -0.00276297 0.00745322
-0.00270219 -0.00682861 0.0184205
0.00179631 -0.0130147 0.0133391
0.0046959 -0.0105041 0.010766
0.00578378 -0.00394096 0.0040392
0.00464023 0.00414263 -0.0042459
0.00170645 0.010628 -0.0108929
-0.0018857 0.0130129 -0.0133373
-0.00475032 0.0103774 -0.0106361
-0.00578224 0.00373824 -0.00383143
-0.00458333 -0.0043432 0.00445147
-0.00161613 -0.010749 0.011017
0 -0.00464128 0
0 -0.00394082 0
0 -0.00147853 0
0 0.00155419 0
0 0.00398729 0
0 0.00488206 0
0 0.0038933 0
0 0.00140247 0
0 -0.00162944 0
0 -0.00383329 0
-0.0029857 -0.00285064 -0.00978825
-0.00781604 -0.00230415 -0.00791102
-0.00962675 -0.000864478 -0.00296809
-0.00772339 0.000908716 0.00311997
-0.00284028 0.00233132 0.00800432
0.00313863 0.00285448 0.00980054
0.00790663 0.00227637 0.00781564
0.00962419 0.00082001 0.00281541
0.00762867 -0.00095271 -0.00327102
0.00268622 -0.00235438 -0.00808425
-0.0048195 3.97985e-05 -0.0158001
-0.0126166 3.21656e-05 -0.0127699
-0.0155394 1.2068e-05 -0.00479106
-0.012467 -1.26856e-05 0.00503623
-0.00458476 -3.2545e-05 0.0129205
0.00506634 -3.98483e-05 0.01582
0.0127628 -3.17778e-05 0.0126159
0.0155353 -1.14472e-05 0.00454461
0.0123141 1.32997e-05 -0.00528006
0.00433608 3.28701e-05 -0.0130495
-0.0047939 0.00291488 -0.0157162
-0.0125496 0.00235585 -0.0127021
-0.0154569 0.000883878 -0.00476561
-0.0124008 -0.000929108 0.00500948
-0.0045604 -0.00238364 0.0128519
0.00503943 -0.00291854 0.0157359
0.012695 -0.00232745 0.0125489
0.0154528 -0.000838412 0.00452047
0.0122487 0.000974089 -0.00525201
0.00431305 0.00240743 -0.0129802
-0.00291877 0.00466538 -0.00956883
-0.00764083 0.00377064 -0.00773368
-0.00941094 0.00141468 -0.00290155
-0.00755026 -0.00148707 0.00305003
-0.00277661 -0.0038151 0.00782489
0.00306827 -0.00467124 0.00958085
0.00772939 -0.00372517 0.00764044
0.00940844 -0.00134191 0.0027523
0.00745766 0.00155907 -0.0031977
0.00262601 0.00385319 -0.00790303
8.2434e-05 0.00461594 0.000270249
0.000215798 0.00373068 0.00021842
0.00026579 0.00139969 8.19475e-05
0.000213239 -0.00147132 -8.6141e-05
7.84189e-05 -0.00377468 -0.000220996
-8.66561e-05 -0.00462174 -0.000270589
-0.000218298 -0.0036857 -0.000215787
-0.00026572 -0.00132769 -7.77323e-05
-0.000210624 0.00154255 9.03114e-05
-7.41654e-05 0.00381236 0.000223203
0.00305184 0.00278564 0.0100051
0.00798917 0.0022514 0.00808626
0.00983999 0.000844688 0.00303383
0.00789446 -0.000887913 -0.00318908
0.00290319 -0.00227795 -0.00818162
-0.00320815 -0.00278914 -0.0100176
-0.00808176 -0.00222426 -0.00798876
-0.00983738 -0.000801238 -0.00287777
-0.00779765 0.0009309 0.00334348
-0.00274572 0.00230069 0.00826333
0.00484382 -0.000119386 0.0158799
0.0126803 -9.64897e-05 0.0128344
0.0156178 -3.62014e-05 0.00481524
0.0125299 3.80539e-05 -0.00506165
0.0046079 9.76278e-05 -0.0129857
-0.00509192 0.000119536 -0.0158998
-0.0128272 9.53265e-05 -0.0126796
-0.0156137 3.43392e-05 -0.00456755
-0.0123763 -3.98963e-05 0.0053067
-0.00435796 -9.86024e-05 0.0131154
0.00476702 -0.00297835 0.0156281
0.0124792 -0.00240714 0.0126309
0.0153702 -0.000903121 0.00473889
0.0123313 0.000949336 -0.00498139
0.00453483 0.00243553 -0.0127798
-0.00501118 0.00298208 -0.0156477
-0.0126238 0.00237812 -0.0124786
-0.0153661 0.000856665 -0.00449512
-0.0121801 -0.000995297 0.00522256
-0.00428887 -0.00245985 0.0129074
0.00285107 -0.00468824 0.00934687
0.00745325 -0.00378386 0.00754383
0.00917991 -0.00141964 0.00283032
0.00736489 0.00149229 -0.00297515
0.00270844 0.00382848 -0.00763278
-0.00299294 0.00468762 -0.00934563
-0.00753962 0.00373824 -0.00745286
-0.00917746 0.00134662 -0.00268473
-0.00727457 -0.00156454 0.0031192
-0.00256509 -0.00387209 0.00771971
0 0.00539238 0
0 0.00457855 0
0 0.0017178 0
0 -0.0018057 0
0 -0.00463254 0
0 -0.00567212 0
0 -0.00452335 0
0 -0.00162943 0
0 0.00189313 0
0 0.00445363 0
-0.00293836 0.00331196 -0.00183111
-0.00769211 0.00267702 -0.00147994
-0.00947411 0.00100437 -0.000555248
-0.00760092 -0.00105577 0.000583662
-0.00279525 -0.00270859 0.00149739
0.00308886 -0.00331642 0.00183341
0.00778125 -0.00264474 0.00146209
0.00947159 -0.00095271 0.000526686
0.00750771 0.00110688 -0.000611919
0.00264363 0.00273538 -0.00151234
-0.00474309 -4.62391e-05 -0.00295576
-0.0124165 -3.73709e-05 -0.0023889
-0.015293 -1.40209e-05 -0.000896277
-0.0122693 1.47384e-05 0.000942142
-0.00451206 3.78116e-05 0.00241708
0.00498601 4.62968e-05 0.00295948
0.0125605 3.69203e-05 0.0023601
0.015289 1.32997e-05 0.000850173
0.0121189 -1.5452e-05 -0.000987755
0.00426733 -3.81894e-05 -0.0024412
-0.00471789 -0.0033866 -0.00294006
-0.0123506 -0.00273709 -0.00237621
-0.0152118 -0.00102691 -0.000891515
-0.0122042 0.00107946 0.000937137
-0.00448809 0.00276937 0.00240424
0.00495953 0.00339084 0.00294376
0.0124937 0.00270409 0.00234756
0.0152077 0.000974089 0.000845657
0.0120545 -0.00113172 -0.000982508
0.00424466 -0.00279703 -0.00242824
-0.0028725 -0.00542038 -0.00179006
-0.00751968 -0.00438083 -0.00144676
-0.00926173 -0.00164361 -0.000542801
-0.00743054 0.00172772 0.000570578
-0.00273258 0.00443249 0.00146382
0.00301962 0.00542717 0.00179232
0.00760683 0.00432801 0.00142932
0.00925927 0.00155907 0.00051488
0.00733941 -0.00181137 -0.000598202
0.00258437 -0.00447675 -0.00147844
8.1127e-05 -0.00536294 5.05561e-05
0.000212376 -0.0043344 4.08604e-05
0.000261576 -0.0016262 1.53302e-05
0.000209858 0.00170941 -1.61146e-05
7.71755e-05 0.00438552 -4.13423e-05
-8.52821e-05 0.00536966 -5.06198e-05
-0.000214837 0.00428215 -4.03678e-05
-0.000261507 0.00154255 -1.45416e-05
-0.000207285 -0.00179217 1.68948e-05
-7.29895e-05 -0.00442931 4.1755e-05
0.00300345 -0.00323644 0.00187167
0.0078625 -0.00261574 0.00151272
0.00968396 -0.000981381 0.000567547
0.00776928 0.0010316 -0.00059659
0.00285716 0.00264658 -0.00153056
-0.00315728 0.00324049 -0.00187403
-0.00795362 0.0025842 -0.00149448
-0.00968139 0.000930899 -0.000538353
-0.00767401 -0.00108154 0.000625473
-0.00270219 -0.00267301 0.00154584
0.00476702 0.000138706 0.00297068
0.0124792 0.000112104 0.00240096
0.0153702 4.20597e-05 0.0009008
0.0123313 -4.4212e-05 -0.000946897
0.00453483 -0.000113427 -0.00242927
-0.00501118 -0.00013888 -0.00297442
-0.0126238 -0.000110753 -0.00237201
-0.0153661 -3.98962e-05 -0.000854463
-0.0121801 4.63525e-05 0.000992739
-0.00428887 0.000114559 0.00245352
0.00469144 0.00346033 0.00292358
0.0122813 0.00279668 0.00236289
0.0151265 0.00104927 0.000886517
0.0121358 -0.00110296 -0.000931883
0.00446293 -0.00282967 -0.00239076
-0.00493172 -0.00346466 -0.00292726
-0.0124237 -0.00276297 -0.0023344
-0.0151225 -0.000995297 -0.000840916
-0.0119869 0.00115636 0.000976999
-0.00422086 0.00285793 0.00241462
0.00280587 0.00544694 0.00174854
0.00733507 0.00439621 0.00141124
0.00903436 0.00164938 0.000529473
0.00724812 -0.00173379 -0.000556568
0.0026655 -0.00444805 -0.00142788
-0.00294549 -0.00544622 -0.00174831
-0.00742008 -0.0043432 -0.00139422
-0.00903196 -0.00156454 -0.000502237
-0.00715923 0.00181773 0.000583514
-0.00252442 0.00449871 0.00144414
0 0.0133456 0
0 0.0107712 0
0 0.00404116 0
0 -0.00424796 0
0 -0.0108982 0
0 -0.0133438 0
0 -0.0106413 0
0 -0.00383329 0
0 0.00445363 0
0 0.0110223 0
-0.00175738 0.00819678 0.0068325
-0.00459413 0.00661557 0.00551449
-0.00565843 0.00248205 0.00206894
-0.00453966 -0.00260907 -0.00217482
-0.00166946 -0.00669359 -0.00557951
0.00184483 -0.00819567 -0.00683159
0.00464737 -0.0065358 -0.00544799
0.00565692 -0.00235438 -0.00196252
0.00448399 0.00273539 0.00228011
0.00158111 0.00676982 0.00564306
-0.00283676 -0.000114437 0.011029
-0.00741581 -9.23618e-05 0.00890144
-0.00913379 -3.46526e-05 0.00333967
-0.00732789 3.64259e-05 -0.00351057
-0.00269484 9.34509e-05 -0.00900641
0.00297791 0.000114422 -0.0110275
0.00750175 9.12481e-05 -0.00879411
0.00913136 3.28701e-05 -0.00316788
0.00723803 -3.81895e-05 0.00368054
0.00255221 -9.45152e-05 0.00910898
-0.00282169 -0.0083815 0.0109704
-0.00737641 -0.00676466 0.00885416
-0.00908527 -0.00253799 0.00332193
-0.00728896 0.00266786 -0.00349192
-0.00268052 0.00684443 -0.00895857
0.00296209 0.00838037 -0.0109689
0.0074619 0.0066831 -0.0087474
0.00908285 0.00240744 -0.00315105
0.00719958 -0.00279703 0.00366099
0.00253866 -0.00692238 0.00906059
-0.00171799 -0.0134149 0.00667934
-0.00449114 -0.0108271 0.00539087
-0.00553158 -0.00406215 0.00202256
-0.0044379 0.00427002 -0.00212606
-0.00163204 0.0109548 -0.00545444
0.00180347 0.0134131 -0.00667845
0.00454319 0.0106966 -0.00532587
0.00553011 0.0038532 -0.00191852
0.00438348 -0.00447676 0.002229
0.00154567 -0.0110795 0.00551656
4.85206e-05 -0.0132728 -0.000188642
0.000126842 -0.0107124 -0.000152253
0.000156227 -0.0040191 -5.71226e-05
0.000125338 0.00422477 6.00457e-05
4.60932e-05 0.0108387 0.000154048
-5.09349e-05 0.013271 0.000188617
-0.000128312 0.0105832 0.000150417
-0.000156185 0.00381236 5.41843e-05
-0.000123801 -0.00442932 -6.29529e-05
-4.36537e-05 -0.0109621 -0.000155802
0.00179631 -0.00800988 -0.00698385
0.00469589 -0.00646473 -0.00563664
0.00578376 -0.00242546 -0.00211477
0.00464022 0.00254957 0.00222299
0.00170644 0.00654096 0.0057031
-0.00188569 0.0080088 0.00698292
-0.00475031 0.00638678 0.00556867
-0.00578223 0.00230069 0.00200599
-0.00458332 -0.00267302 -0.00233062
-0.00161613 -0.00661546 -0.00576806
0.00285107 0.000343285 -0.0110846
0.00745323 0.000277063 -0.00894636
0.00917988 0.00010395 -0.00335652
0.00736487 -0.000109269 0.00352829
0.00270844 -0.000280331 0.00905186
-0.00299293 -0.000343239 0.0110832
-0.0075396 -0.000273723 0.00883849
-0.00917744 -9.86025e-05 0.00318387
-0.00727456 0.000114559 -0.00369911
-0.00256509 0.000283523 -0.00915495
0.00280587 0.00856399 -0.0109089
0.00733506 0.00691195 -0.00880452
0.00903433 0.00259325 -0.00330331
0.0072481 -0.00272595 0.00347235
0.00266549 -0.00699346 0.00890834
-0.00294548 -0.00856284 0.0109074
-0.00742006 -0.00682861 0.00869835
-0.00903193 -0.00245985 0.00313339
-0.00715922 0.00285793 -0.00364046
-0.00252442 0.00707311 -0.0090098
0.00167814 0.0134807 -0.00652441
0.00438698 0.0108802 -0.00526582
0.00540329 0.00408206 -0.00197565
0.00433497 -0.00429095 0.00207675
0.00159419 -0.0110085 0.00532792
-0.00176164 -0.0134789 0.00652354
-0.00443782 -0.010749 0.00520233
-0.00540185 -0.00387209 0.00187402
-0.00428181 0.00449871 -0.0021773
-0.00150981 0.0111339 -0.0053886
