# vtk DataFile Version 3.0
Velocity field
ASCII
DATASET STRUCTURED_POINTS
DIMENSIONS 10 10 10
SPACING 0.631579 0.631579 0.631579
ORIGIN 0 0 0
POINT_DATA 1000
VECTORS velocity float
0 0.410781 0
0 0.33154 0
0 0.124388 0
0 -0.130753 0
0 -0.335449 0
0 -0.410726 0
0 -0.327542 0
0 -0.11799 0
0 0.137084 0
0 0.33927 0
0 0.252299 0.321774
0 0.203629 0.269886
0 0.0763982 0.101257
0 -0.0803078 -0.106438
0 -0.20603 -0.273068
0 -0.252265 -0.334347
0 -0.201174 -0.266632
0 -0.0724684 -0.0960481
0 0.084196 0.111592
0 0.208377 0.265758
0 -0.00352241 0.519406
0 -0.00284292 0.435648
0 -0.00106662 0.163448
0 0.0011212 -0.171812
0 0.00287645 -0.440785
0 0.00352194 -0.5397
0 0.00280864 -0.430395
0 0.00101175 -0.15504
0 -0.00117548 0.18013
0 -0.0029092 0.428984
0 -0.257984 0.516647
0 -0.208218 0.433334
0 -0.07812 0.162579
0 0.0821176 -0.170899
0 0.210674 -0.438443
0 0.25795 -0.536833
0 0.205708 -0.428108
0 0.0741016 -0.154216
0 -0.0860934 0.179173
0 -0.213073 0.426706
0 -0.412914 0.314561
0 -0.333261 0.263836
0 -0.125034 0.0989868
0 0.131432 -0.104052
0 0.337191 -0.266947
0 0.412859 -0.326852
0 0.329243 -0.260655
0 0.118602 -0.093895
0 -0.137796 0.10909
0 -0.341031 0.259801
0 -0.408538 -0.00888405
0 -0.32973 -0.00745143
0 -0.123709 -0.00279565
0 0.13004 0.00293871
0 0.333618 0.0075393
0 0.408484 0.00923116
0 0.325754 0.00736159
0 0.117346 0.00265185
0 -0.136336 -0.003081
0 -0.337418 -0.00733746
0 -0.246546 -0.328902
0 -0.198986 -0.275864
0 -0.0746562 -0.103499
0 0.0784766 0.108796
0 0.201333 0.279117
0 0.246513 0.341753
0 0.196587 0.272538
0 0.070816 0.0981756
0 -0.0822762 -0.114063
0 -0.203626 -0.271645
0 0.0105664 -0.522027
0 0.00852809 -0.437846
0 0.0031996 -0.164272
0 -0.00336333 0.172679
0 -0.00862866 0.443009
0 -0.010565 0.542424
0 -0.00842526 0.432567
0 -0.00303501 0.155822
0 0.00352617 -0.181039
0 0.00872693 -0.431149
0 0.263602 -0.51375
0 0.212752 -0.430904
0 0.0798209 -0.161668
0 -0.0839056 0.169941
0 -0.215261 0.435985
0 -0.263567 0.533823
0 -0.210187 0.425708
0 -0.075715 0.153352
0 0.087968 -0.178169
0 0.217712 -0.424313
0 0.414938 -0.307265
0 0.334895 -0.247992
0 0.125647 -0.0930424
0 -0.132077 0.0978037
0 -0.338844 0.250916
0 -0.414882 0.307224
0 -0.330857 0.245002
0 -0.119184 0.0882564
0 0.138471 -0.102539
0 0.342703 -0.253774
0 0.33154 0
0 0.281504 0
0 0.105616 0
0 -0.11102 0
0 -0.284824 0
0 -0.34874 0
0 -0.27811 0
0 -0.100183 0
0 0.116395 0
0 0.273823 0
0.0467856 0.203629 0.356114
0.126475 0.169941 0.297172
0.155811 0.0638049 0.111575
0.125005 -0.0670719 -0.117288
0.0459706 -0.172074 -0.300905
-0.0507996 -0.210688 -0.368429
-0.127971 -0.168017 -0.293811
-0.15577 -0.0605259 -0.105841
-0.123446 0.0702162 0.122784
-0.0420927 0.16818 0.294119
0.0755209 -0.00284292 0.574836
0.204156 -0.00236536 0.479692
0.251509 -0.000888021 0.180103
0.201782 0.000933489 -0.189326
0.0742057 0.00239488 -0.485717
-0.0820004 0.0029323 -0.594716
-0.206569 0.00233843 -0.474268
-0.251442 0.000842382 -0.170848
-0.199265 -0.000977389 0.198197
-0.0679457 -0.00234801 0.474765
0.0751197 -0.208218 0.571782
0.203071 -0.173562 0.477144
0.250173 -0.0651634 0.179147
0.20071 0.0685001 -0.18832
0.0738115 0.175738 -0.483136
-0.081565 0.215174 -0.591557
-0.205472 0.171595 -0.471748
-0.250106 0.0618146 -0.169941
-0.198206 -0.0717133 0.197144
-0.0675848 -0.17197 0.472243
0.0457368 -0.333261 0.348131
0.12364 -0.277792 0.290509
0.152318 -0.104296 0.109074
0.122203 0.109637 -0.114659
0.0449401 0.281274 -0.294159
-0.0496607 0.344394 -0.360169
-0.125102 0.274645 -0.287225
-0.152277 0.0989367 -0.103469
-0.120678 -0.11478 0.120031
-0.0411491 -0.275245 0.287526
-0.00129173 -0.32973 -0.00983214
-0.00349192 -0.274849 -0.00820476
-0.00430187 -0.103191 -0.00308055
-0.00345132 0.108475 0.00323828
-0.00126924 0.278293 0.00830783
0.00140254 0.340745 0.0101722
0.00353321 0.271734 0.008112
0.00430073 0.0978882 0.00292223
0.00340828 -0.113564 -0.00339
0.00116216 -0.272328 -0.0081205
-0.0478219 -0.198986 -0.364002
-0.129277 -0.165866 -0.303753
-0.159262 -0.0622741 -0.114047
-0.127774 0.0654627 0.119886
-0.046989 0.167945 0.307569
0.0519246 0.205633 0.37659
0.130805 0.163987 0.30032
0.15922 0.0590738 0.108186
0.12618 -0.0685337 -0.125503
0.0430251 -0.164345 -0.300634
-0.075902 0.00852809 -0.577737
-0.205185 0.00710645 -0.482109
-0.252777 0.00266807 -0.181012
-0.2028 -0.00280467 0.190281
-0.0745799 -0.00719542 0.488166
0.0824136 -0.00881011 0.597715
0.207611 -0.00702581 0.476659
0.25271 -0.00253095 0.171709
0.200269 0.00293632 -0.199196
0.0682886 0.00704346 -0.477161
-0.0746986 0.212752 -0.568577
-0.201859 0.177182 -0.474303
-0.248679 0.0665204 -0.178079
-0.199512 -0.0699262 0.187196
-0.0733707 -0.179396 0.480255
0.0810778 -0.219654 0.588027
0.204246 -0.175168 0.468933
0.248613 -0.0631016 0.168927
0.197024 0.073211 -0.195972
0.0672059 0.175715 -0.469596
-0.0446759 0.334895 -0.340056
-0.116791 0.270292 -0.274458
-0.143848 0.101409 -0.102972
-0.115407 -0.106598 0.108241
-0.0424409 -0.273479 0.277694
0.0468989 -0.33485 0.34001
0.118145 -0.267033 0.271148
0.14381 -0.0961927 0.0976751
0.113992 0.11176 -0.113482
0.0401946 0.276594 -0.280857
0 0.124388 0
0 0.105616 0
0 0.0396252 0
0 -0.0416529 0
0 -0.106861 0
0 -0.130841 0
0 -0.104342 0
0 -0.0375869 0
0 0.0436696 0
0 0.102734 0
0.0755209 0.0763982 0.253062
0.204156 0.0638049 0.211099
0.251509 0.0239563 0.0792585
0.201782 -0.025183 -0.0833165
0.0742057 -0.0646072 -0.21375
-0.0820004 -0.0791054 -0.261717
-0.206569 -0.0630842 -0.208711
-0.251442 -0.0227252 -0.0751858
-0.199265 0.0263623 0.087221
-0.0679457 0.0630983 0.209007
0.121905 -0.00106662 0.40849
0.329546 -0.000888021 0.340754
0.405985 -0.000333396 0.127939
0.325717 0.000350463 -0.134489
0.119782 0.000899119 -0.345034
-0.132364 0.00110089 -0.422461
-0.333442 0.000877928 -0.3369
-0.405877 0.000316261 -0.121364
-0.321652 -0.000366931 0.140791
-0.109678 -0.000880932 0.337378
0.121258 -0.07812 0.40632
0.327796 -0.0651634 0.338944
0.403828 -0.024466 0.127259
0.323986 0.0257187 -0.133775
0.119146 0.0659817 -0.343201
-0.131661 0.0807887 -0.420217
-0.331671 0.0644265 -0.33511
-0.403721 0.0232087 -0.120719
-0.319942 -0.026924 0.140043
-0.109095 -0.0645203 0.335586
0.073828 -0.125034 0.247389
0.199579 -0.104296 0.206367
0.245872 -0.0391589 0.0774818
0.197259 0.0411639 -0.0814495
0.072542 0.105606 -0.208958
-0.080162 0.129305 -0.25585
-0.201939 0.103117 -0.204034
-0.245806 0.0371466 -0.0735001
-0.194798 -0.0430929 0.0852658
-0.0664226 -0.103267 0.204322
-0.0020851 -0.123709 -0.00698693
-0.00563662 -0.103191 -0.00582836
-0.00694404 -0.0387438 -0.00218829
-0.00557111 0.0407278 0.00230034
-0.00204878 0.104487 0.00590158
0.00226399 0.127935 0.00722592
0.00570328 0.102025 0.00576242
0.00694219 0.0367529 0.00207584
0.00550164 -0.0426362 -0.00240812
0.00187595 -0.102173 -0.0057706
-0.0771937 -0.0746562 -0.258667
-0.208677 -0.0622741 -0.215775
-0.25708 -0.0233812 -0.0810145
-0.206252 0.0245784 0.0851624
-0.0758491 0.0630562 0.218485
0.0838162 0.0772064 0.267514
0.211145 0.0615699 0.213335
0.257012 0.0221798 0.0768507
0.203679 -0.0257302 -0.089153
0.0694508 -0.0616596 -0.213637
-0.12252 0.0031996 -0.410552
-0.331207 0.00266807 -0.342472
-0.408032 0.00100173 -0.128584
-0.327359 -0.00105302 0.135168
-0.120386 -0.00270153 0.346773
0.133031 -0.00330777 0.424592
0.335123 -0.00263785 0.338599
0.407924 -0.000950251 0.121976
0.323274 0.0011024 -0.141501
0.110231 0.00264259 -0.339081
-0.120578 0.0798209 -0.404043
-0.32584 0.0665204 -0.336926
-0.401417 0.0249747 -0.1265
-0.322051 -0.0262535 0.132977
-0.118434 -0.0673536 0.341154
0.130875 -0.0824681 0.41771
0.329692 -0.0657659 0.333111
0.40131 -0.0236913 0.119999
0.318034 0.0274855 -0.139211
0.108483 0.0659251 -0.333704
-0.0721154 0.125647 -0.241651
-0.188524 0.101409 -0.195035
-0.232198 0.038047 -0.0731739
-0.186289 -0.0399939 0.0769185
-0.0685078 -0.102605 0.197335
0.0757039 -0.12563 0.241618
0.190708 -0.100186 0.192684
0.232136 -0.0360899 0.0694099
0.184004 0.0419303 -0.0806426
0.0648819 0.103773 -0.199583
0 -0.130753 0
0 -0.11102 0
0 -0.0416529 0
0 0.0437844 0
0 0.112329 0
0 0.137537 0
0 0.109682 0
0 0.0395103 0
0 -0.0459043 0
0 -0.107991 0
0.0751197 -0.0803078 0.0523767
0.203071 -0.0670719 0.0436912
0.250173 -0.025183 0.0164041
0.20071 0.0264724 -0.017244
0.0738114 0.0679154 -0.04424
-0.081565 0.0831557 -0.0541676
-0.205473 0.0663143 -0.0431969
-0.250106 0.0238889 -0.0155611
-0.198206 -0.027712 0.0180521
-0.0675848 -0.0663272 0.0432587
0.121258 0.0011212 0.0845461
0.327796 0.000933489 0.0705257
0.403828 0.000350463 0.0264794
0.323986 -0.00036841 -0.0278352
0.119146 -0.000945151 -0.0714116
-0.131661 -0.00115726 -0.0874369
-0.331671 -0.000922879 -0.069728
-0.403721 -0.000332451 -0.0251186
-0.319942 0.000385717 0.0291396
-0.109095 0.000926012 0.0698278
0.120614 0.0821176 0.084097
0.326055 0.0685001 0.070151
0.401682 0.0257187 0.0263387
0.322265 -0.0270357 -0.0276873
0.118513 -0.06936 -0.0710322
-0.130961 -0.084925 -0.0869723
-0.32991 -0.0677254 -0.0693576
-0.401575 -0.024397 -0.0249852
-0.318243 0.0283025 0.0289848
-0.108515 0.067822 0.0694569
0.0734358 0.131432 0.0512026
0.198518 0.109637 0.0427116
0.244566 0.0411639 0.0160364
0.196211 -0.0432715 -0.0168575
0.0721568 -0.111014 -0.043248
-0.0797361 -0.135926 -0.0529532
-0.200866 -0.108397 -0.0422286
-0.244501 -0.0390485 -0.0152123
-0.193763 0.0452992 0.0176474
-0.0660698 0.108552 0.042289
-0.00207402 0.13004 -0.0014461
-0.00560668 0.108475 -0.00120629
-0.00690714 0.0407278 -0.000452911
-0.00554155 -0.042813 0.000476102
-0.0020379 -0.109837 0.00122144
0.00225196 -0.134486 0.00149554
0.00567299 -0.107248 0.00119265
0.00690531 -0.0386346 0.000429635
0.0054724 0.0448192 -0.00049841
0.00186599 0.107401 -0.00119435
-0.0767837 0.0784766 -0.0535369
-0.207569 0.0654627 -0.0446588
-0.255714 0.0245784 -0.0167675
-0.205157 -0.0258369 0.017626
-0.0754464 -0.0662849 0.0452196
0.083371 -0.0811599 0.0553673
0.210023 -0.0647225 0.044154
0.255646 -0.0233153 0.0159058
0.202597 0.0270476 -0.018452
0.0690819 0.0648149 -0.0442169
-0.12187 -0.00336333 -0.0849728
-0.329448 -0.00280467 -0.0708812
-0.405864 -0.00105302 -0.0266129
-0.32562 0.00110694 0.0279755
-0.119746 0.00283985 0.0717716
0.132325 0.00347713 0.0878779
0.333343 0.00277292 0.0700796
0.405757 0.000998904 0.0252453
0.321556 -0.00115884 -0.0292864
0.109645 -0.00277782 -0.0701802
-0.119937 -0.0839056 -0.0836255
-0.324109 -0.0699262 -0.0697336
-0.399284 -0.0262535 -0.0261816
-0.32034 0.0275977 0.0275222
-0.117805 0.0708021 0.0706085
0.13018 0.0866906 0.0864535
0.327941 0.0691332 0.0689441
0.399178 0.0249042 0.0248362
0.316344 -0.0288928 -0.0288126
0.107907 -0.0692987 -0.0690675
-0.0717323 -0.132077 -0.0500149
-0.187522 -0.106598 -0.0403669
-0.230965 -0.0399939 -0.015145
-0.185299 0.0420406 0.01592
-0.0681439 0.107855 0.0408429
0.0753018 0.132059 0.0500083
0.189695 0.105313 0.0398801
0.230903 0.0379367 0.0143659
0.183027 -0.044076 -0.0166908
0.0645372 -0.109084 -0.041308
0 -0.335449 0
0 -0.284824 0
0 -0.106861 0
0 0.112329 0
0 0.288182 0
0 0.352852 0
0 0.281389 0
0 0.101364 0
0 -0.117768 0
0 -0.277052 0
0.0457368 -0.20603 -0.168516
0.12364 -0.172074 -0.14057
0.152318 -0.0646072 -0.0527781
0.122203 0.0679154 0.0554804
0.0449401 0.174237 0.142336
-0.0496607 0.213337 0.174277
-0.125102 0.17013 0.13898
-0.152277 0.0612871 0.0500658
-0.120678 -0.0710954 -0.0580804
-0.0411491 -0.170163 -0.139179
0.073828 0.00287645 -0.272017
0.199578 0.00239488 -0.226907
0.245872 0.000899119 -0.0851941
0.197259 -0.000945151 0.0895562
0.072542 -0.00242481 0.229758
-0.080162 -0.00296898 0.281316
-0.201939 -0.00236764 0.224342
-0.245806 -0.000852908 0.0808162
-0.194798 0.000989559 -0.0937528
-0.0664226 0.00237569 -0.224662
0.0734358 0.210674 -0.270572
0.198518 0.175738 -0.225702
0.244566 0.0659817 -0.0847414
0.196211 -0.06936 0.0890806
0.0721568 -0.177945 0.228537
-0.0797361 -0.217877 0.279821
-0.200866 -0.17375 0.22315
-0.244501 -0.0625909 0.0803867
-0.193763 0.0726103 -0.0932546
-0.0660698 0.173998 -0.223469
0.0447115 0.337191 -0.164738
0.120868 0.281274 -0.13742
0.148904 0.105606 -0.0515949
0.119464 -0.111014 0.054237
0.0439329 -0.284807 0.139145
-0.0485474 -0.34872 0.17037
-0.122298 -0.278092 0.135866
-0.148865 -0.100179 0.0489435
-0.117973 0.116216 -0.0567783
-0.0402267 0.278491 -0.13606
-0.00126277 0.333618 0.00465264
-0.00341366 0.278293 0.00388109
-0.00420544 0.104487 0.00145718
-0.00337396 -0.109837 -0.00153179
-0.00124077 -0.281788 -0.00392983
0.00137112 -0.345024 -0.00481169
0.003454 -0.275147 -0.0038372
0.00420432 -0.0991177 -0.00138231
0.00333187 0.114984 0.00160357
0.00113611 0.27554 0.00384268
-0.0467499 0.201333 0.172248
-0.126379 0.167945 0.143684
-0.155692 0.0630562 0.0539473
-0.12491 -0.0662849 -0.0567094
-0.0459356 -0.170054 -0.145489
0.0507609 -0.208215 -0.178137
0.127873 -0.166046 -0.142059
0.155651 -0.0598158 -0.051175
0.123352 0.0693908 0.0593668
0.0420606 0.166283 0.142262
-0.0742005 -0.00862866 0.273389
-0.200585 -0.00719542 0.228051
-0.247111 -0.00270153 0.0856235
-0.198253 0.00283985 -0.0900075
-0.0729077 0.00728568 -0.230916
0.0805663 0.00892066 -0.282734
0.202958 0.00711396 -0.225473
0.247045 0.00256271 -0.0812236
0.19578 -0.00297302 0.0942256
0.0667578 -0.00712652 0.225796
-0.0730241 -0.215261 0.269055
-0.197334 -0.179396 0.224359
-0.243105 -0.0673536 0.084236
-0.195039 0.0708021 -0.0885495
-0.0717259 0.181643 -0.227174
0.0792601 0.222406 -0.278153
0.199667 0.177363 -0.221819
0.243041 0.0638921 -0.0799072
0.192607 -0.0741246 0.0927007
0.0656994 -0.177787 0.222216
-0.0436744 -0.338844 0.160917
-0.114173 -0.273479 0.129875
-0.140623 -0.102605 0.048727
-0.11282 0.107855 -0.0512205
-0.0414895 0.276704 -0.131407
0.0458476 0.338799 -0.160895
0.115496 0.270182 -0.128309
0.140586 0.097327 -0.0462206
0.111436 -0.113077 0.0537005
0.0392936 -0.279856 0.132903
0 -0.410726 0
0 -0.34874 0
0 -0.130841 0
0 0.137537 0
0 0.352852 0
0 0.432035 0
0 0.344535 0
0 0.124111 0
0 -0.144196 0
0 -0.339224 0
-0.00129173 -0.252265 -0.324393
-0.00349192 -0.210688 -0.270599
-0.00430187 -0.0791054 -0.101598
-0.00345132 0.0831557 0.1068
-0.00126924 0.213337 0.273998
0.00140254 0.261212 0.335483
0.00353321 0.208308 0.267539
0.00430073 0.0750405 0.0963771
0.00340828 -0.0870497 -0.111805
0.00116216 -0.208349 -0.267921
-0.0020851 0.00352194 -0.523633
-0.00563662 0.0029323 -0.436799
-0.00694404 0.00110089 -0.163999
-0.00557111 -0.00115726 0.172396
-0.00204878 -0.00296898 0.442284
0.00226399 -0.00363522 0.541537
0.00570328 -0.00289897 0.431859
0.00694219 -0.00104431 0.155571
0.00550164 0.00121163 -0.180474
0.00187595 0.00290882 -0.432476
-0.00207402 0.25795 -0.520852
-0.00560668 0.215174 -0.434479
-0.00690714 0.0807887 -0.163128
-0.00554155 -0.084925 0.17148
-0.0020379 -0.217877 0.439934
0.00225196 -0.266769 0.538659
0.00567299 -0.21274 0.429565
0.00690531 -0.0766365 0.154745
0.0054724 0.0889047 -0.179516
0.00186599 0.213044 -0.430179
-0.00126277 0.412859 -0.317122
-0.00341366 0.344394 -0.264533
-0.00420544 0.129305 -0.0993207
-0.00337396 -0.135926 0.104406
-0.00124077 -0.34872 0.267855
0.00137112 -0.426974 0.327965
0.00345401 -0.3405 0.261541
0.00420432 -0.12266 0.0942167
0.00333187 0.142295 -0.109299
0.00113611 0.340986 -0.261915
3.56641e-05 0.408484 0.00895636
9.64097e-05 0.340744 0.0074711
0.000118773 0.127935 0.00280506
9.529e-05 -0.134486 -0.00294872
3.50429e-05 -0.345024 -0.00756493
-3.87235e-05 -0.422449 -0.00926257
-9.75516e-05 -0.336891 -0.00738664
-0.000118742 -0.12136 -0.00266093
-9.4101e-05 0.140787 0.00308688
-3.20868e-05 0.337372 0.00739718
0.00132034 0.246513 0.331579
0.00356926 0.205633 0.276592
0.00439717 0.0772063 0.103848
0.00352778 -0.0811599 -0.109166
0.00129734 -0.208215 -0.280066
-0.00143362 -0.254941 -0.342915
-0.0036115 -0.203309 -0.273466
-0.004396 -0.0732388 -0.0985118
-0.00348377 0.0849627 0.114281
-0.0011879 0.203598 0.273856
0.00209562 -0.010565 0.526276
0.00566505 -0.0088101 0.439
0.00697907 -0.00330777 0.164826
0.00559918 0.00347713 -0.173265
0.00205911 0.00892066 -0.444513
-0.0022754 0.0109225 -0.544268
-0.00573204 0.00871035 -0.434037
-0.00697721 0.00313779 -0.156356
-0.00552937 -0.00364018 0.181384
-0.00188542 -0.00872576 0.434659
0.00206239 -0.263567 0.517932
0.00557325 -0.219654 0.431893
0.00686592 -0.0824681 0.162155
0.00550847 0.0866906 -0.170458
0.00202573 0.222406 -0.437311
-0.00223851 0.272316 -0.535447
-0.00563911 0.217164 -0.427002
-0.0068641 0.0782301 -0.153821
-0.00543973 -0.0907587 0.17845
-0.00185553 -0.217683 0.427767
0.00123348 -0.414882 0.309766
0.00322456 -0.33485 0.250011
0.00397158 -0.12563 0.0937998
0.00318633 0.132059 -0.0985998
0.00117178 0.338799 -0.252959
-0.00129486 0.414827 -0.309724
-0.00326193 0.330813 -0.246996
-0.00397052 0.119168 -0.0889748
-0.00314726 -0.138453 0.103374
-0.00110976 -0.342657 0.25584
0 -0.327542 0
0 -0.27811 0
0 -0.104342 0
0 0.109682 0
0 0.281389 0
0 0.344535 0
0 0.274756 0
0 0.0989749 0
0 -0.114992 0
0 -0.270521 0
-0.0478219 -0.201174 -0.355118
-0.129277 -0.168017 -0.296228
-0.159262 -0.0630842 -0.111221
-0.127774 0.0663144 0.116916
-0.046989 0.17013 0.29995
0.0519246 0.208308 0.367259
0.130805 0.16612 0.292878
0.15922 0.0598424 0.105505
0.12618 -0.0694196 -0.122394
0.0430251 -0.166152 -0.293297
-0.0771937 0.00280864 -0.573229
-0.208677 0.00233843 -0.478169
-0.25708 0.000877928 -0.179531
-0.206252 -0.000922879 0.188725
-0.0758491 -0.00236764 0.484174
0.0838162 -0.00289897 0.592827
0.211145 -0.00231185 0.472761
0.257012 -0.000832809 0.170306
0.203679 0.000966237 -0.197568
0.0694508 0.00231969 -0.473437
-0.0767837 0.205708 -0.570183
-0.207569 0.171595 -0.475629
-0.255714 0.0644265 -0.178578
-0.205157 -0.0677254 0.187722
-0.0754464 -0.17375 0.481602
0.083371 -0.21274 0.589678
0.210023 -0.169654 0.47025
0.255646 -0.0611157 0.169401
0.202597 0.0708987 -0.196518
0.0690819 0.169897 -0.470922
-0.0467499 0.329243 -0.347157
-0.126379 0.274645 -0.289587
-0.155692 0.103117 -0.108728
-0.12491 -0.108397 0.114295
-0.0459356 -0.278092 0.293225
0.0507609 -0.3405 0.359026
0.127873 -0.271539 0.286313
0.155651 -0.0978178 0.10314
0.123352 0.113476 -0.119651
0.0420606 0.271926 -0.286722
0.00132034 0.325754 0.00980465
0.00356926 0.271734 0.00817873
0.00439717 0.102025 0.00307075
0.00352778 -0.107248 -0.00322799
0.00129734 -0.275147 -0.00828143
-0.00143362 -0.336891 -0.0101399
-0.0036115 -0.268661 -0.00808626
-0.004396 -0.0967812 -0.00291296
-0.00348377 0.112274 0.00337925
-0.0011879 0.269045 0.0080978
0.0488812 0.196587 0.362984
0.13214 0.163987 0.30279
0.162791 0.0615699 0.113684
0.130604 -0.0647225 -0.119505
0.0480298 -0.166046 -0.306591
-0.0530749 -0.203309 -0.375394
-0.133703 -0.162133 -0.299367
-0.162748 -0.0584059 -0.107842
-0.128975 0.0677553 0.125105
-0.0439781 0.162364 0.299794
0.0775833 -0.00842526 0.576121
0.209729 -0.00702581 0.480579
0.258377 -0.00263785 0.180436
0.207291 0.00277292 -0.189677
0.0762313 0.00711396 -0.486616
-0.0842389 0.00871035 -0.595817
-0.21221 0.00694624 -0.475145
-0.258308 0.00250229 -0.171164
-0.204706 -0.00290293 0.198564
-0.0698013 -0.00695853 0.475827
0.0763532 -0.210187 0.566987
0.20633 -0.175168 0.472798
0.254188 -0.0657659 0.177514
0.203932 0.0691332 -0.186602
0.0749961 0.177363 -0.47873
-0.0828733 0.217164 -0.58616
-0.208769 0.173181 -0.467445
-0.254121 0.0623861 -0.16839
-0.201388 -0.0723774 0.195351
-0.0686946 -0.173596 0.468282
0.0456655 -0.330857 0.339105
0.119378 -0.267033 0.27369
0.147034 -0.100186 0.102684
0.117963 0.105313 -0.107939
0.043381 0.270182 -0.276917
-0.0479378 0.330813 -0.33906
-0.120762 0.263813 -0.27039
-0.146995 0.0950328 -0.0974019
-0.116517 -0.110412 0.113164
-0.041085 -0.273259 0.280071
0 -0.11799 0
0 -0.100183 0
0 -0.0375869 0
0 0.0395103 0
0 0.101364 0
0 0.124111 0
0 0.0989749 0
0 0.0356535 0
0 -0.0414233 0
0 -0.0974492 0
-0.075902 -0.0724684 -0.248835
-0.205185 -0.0605259 -0.207571
-0.252777 -0.0227252 -0.0779342
-0.2028 0.0238889 0.081925
-0.0745799 0.0612872 0.210178
0.0824136 0.0750405 0.257344
0.207611 0.0598425 0.205225
0.25271 0.0215574 0.0739293
0.200269 -0.0250074 -0.0857635
0.0682886 -0.0598526 -0.205516
-0.12252 0.00101175 -0.401668
-0.331207 0.000842382 -0.335059
-0.408032 0.000316261 -0.125801
-0.327359 -0.000332451 0.132242
-0.120386 -0.000852909 0.339268
0.133031 -0.00104431 0.415402
0.335123 -0.000832809 0.331271
0.407924 -0.000300007 0.119336
0.323274 0.000348073 -0.138439
0.110231 0.000835618 -0.331743
-0.12187 0.0741016 -0.399534
-0.329448 0.0618146 -0.333279
-0.405864 0.0232087 -0.125132
-0.32562 -0.0243971 0.13154
-0.119746 -0.0625909 0.337466
0.132325 -0.0766366 0.413196
0.333343 -0.0611157 0.329512
0.405757 -0.0220161 0.118702
0.321556 0.0255403 -0.137703
0.109645 0.0612014 -0.329981
-0.0742005 0.118602 -0.243257
-0.200585 0.0989368 -0.202919
-0.247111 0.0371466 -0.0761869
-0.198253 -0.0390485 0.0800882
-0.0729077 -0.100179 0.205468
0.0805663 -0.122661 0.251575
0.202958 -0.0978179 0.200624
0.247045 -0.0352375 0.0722719
0.19578 0.0408783 -0.0838408
0.0667578 0.0979553 -0.200909
0.00209562 0.117346 0.00687023
0.00566505 0.0978883 0.00573095
0.00697906 0.0367529 0.00215173
0.00559918 -0.0386347 -0.0022619
0.00205911 -0.0991178 -0.00580292
-0.0022754 -0.12136 -0.00710514
-0.00573204 -0.0967813 -0.00566614
-0.00697721 -0.0348641 -0.00204116
-0.00552937 0.0404451 0.0023679
-0.00188542 0.0969173 0.00567422
0.0775833 0.070816 0.254347
0.209729 0.0590739 0.212169
0.258377 0.0221798 0.0796604
0.207291 -0.0233154 -0.0837391
0.0762313 -0.0598158 -0.214834
-0.0842389 -0.0732389 -0.263044
-0.21221 -0.0584059 -0.20977
-0.258308 -0.0210399 -0.0755669
-0.204706 0.0244078 0.0876634
-0.0698013 0.0584879 0.210069
0.123139 -0.00303501 0.403695
0.332876 -0.00253095 0.336749
0.410089 -0.000950251 0.126435
0.329008 0.000998905 -0.132909
0.120993 0.00256271 -0.340979
-0.133702 0.00313779 -0.417496
-0.336813 0.00250229 -0.33294
-0.40998 0.000901416 -0.119938
-0.324904 -0.00104574 0.139137
-0.110787 -0.00250666 0.333417
0.121186 -0.075715 0.397294
0.327483 -0.0631017 0.331296
0.403441 -0.0236913 0.124386
0.323676 0.0249043 -0.130755
0.119031 0.0638922 -0.335453
-0.131535 0.0782301 -0.410732
-0.331353 0.0623861 -0.327547
-0.403334 0.0224737 -0.117994
-0.319637 -0.0260729 0.136885
-0.109031 -0.062534 0.328131
0.0724794 -0.119184 0.237614
0.189475 -0.0961927 0.191778
0.23337 -0.0360899 0.0719517
0.187229 0.0379367 -0.0756337
0.0688535 0.097327 -0.194039
-0.076086 0.119168 -0.237583
-0.191671 0.0950328 -0.189465
-0.233308 0.0342334 -0.0682506
-0.184933 -0.0397734 0.0792956
-0.0652093 -0.0984354 0.196249
0 0.137084 0
0 0.116395 0
0 0.0436696 0
0 -0.0459043 0
0 -0.117768 0
0 -0.144196 0
0 -0.114992 0
0 -0.0414233 0
0 0.0481268 0
0 0.113219 0
-0.0746986 0.084196 -0.0465501
-0.201859 0.0702143 -0.0389162
-0.248679 0.0263615 -0.0146124
-0.199512 -0.0277113 0.0153607
-0.0733707 -0.0710935 0.039408
0.0810778 -0.0870474 0.0482514
0.204246 -0.0694177 0.038479
0.248613 -0.0250067 0.0138616
0.197024 0.0290118 -0.0160781
0.0672059 0.0695386 -0.0384464
-0.120578 -0.00117548 -0.0751408
-0.32584 -0.00097736 -0.0628183
-0.401417 -0.000366921 -0.0235873
-0.322051 0.000385706 0.0247951
-0.118434 0.00098953 0.0636121
0.130875 0.00121159 0.077887
0.329692 0.000966209 0.0621125
0.40131 0.000348063 0.0223753
0.318034 -0.000403863 -0.0259531
0.108483 -0.000970846 -0.0620598
-0.119937 -0.0860934 -0.0747416
-0.324109 -0.0717113 -0.0624845
-0.399284 -0.0269232 -0.023462
-0.32034 0.0283017 0.0246634
-0.117805 0.0726082 0.0632742
0.13018 0.0889022 0.0774733
0.327941 0.0708967 0.0617827
0.399178 0.0255396 0.0222565
0.316344 -0.0296308 -0.0258152
0.107907 -0.0711057 -0.0617302
-0.0730241 -0.137796 -0.0455066
-0.197334 -0.114777 -0.0380438
-0.243105 -0.0430916 -0.0142849
-0.195039 0.0452979 0.0150164
-0.0717259 0.116213 0.0385246
0.0792601 0.142291 0.0471699
0.199667 0.113473 0.0376165
0.243041 0.0408771 0.0135509
0.192607 -0.0474254 -0.0157176
0.0656994 -0.113807 -0.0375845
0.00206239 -0.136336 0.00128523
0.00557325 -0.113561 0.00107446
0.00686592 -0.042635 0.000403442
0.00550847 0.0448179 -0.000424102
0.00202573 0.114981 -0.00108804
-0.00223851 0.140783 -0.0013322
-0.00563911 0.112271 -0.00106239
-0.0068641 0.0404439 -0.000382712
-0.00543974 -0.0469228 0.000443908
-0.00185553 -0.112601 0.00106149
0.0763532 -0.0822762 0.0475812
0.20633 -0.0685318 0.0397783
0.254188 -0.0257295 0.0149361
0.203932 0.0270469 -0.0157009
0.0749961 0.0693889 -0.0402809
-0.0828733 0.0849603 -0.0493202
-0.208769 0.0677534 -0.0393314
-0.254121 0.0244071 -0.0141686
-0.201388 -0.0283171 0.0164342
-0.0686946 -0.067953 0.039298
0.121186 0.00352617 0.07552
0.327483 0.00293624 0.0631349
0.403441 0.00110237 0.0237062
0.323676 -0.00115881 -0.0249201
0.119031 -0.00297293 -0.0639327
-0.131535 -0.00364007 -0.0782797
-0.331353 -0.00290285 -0.0624257
-0.403334 -0.00104571 -0.022488
-0.319637 0.00121326 0.0260839
-0.109031 0.00291231 0.062373
0.119265 0.087968 0.0743226
0.322177 0.0732091 0.0621104
0.396903 0.0274847 0.0233212
0.318429 -0.028892 -0.0245154
0.117102 -0.0741226 -0.0628945
-0.129403 -0.0907562 -0.0770084
-0.325985 -0.0723754 -0.0614119
-0.396797 -0.0260721 -0.0221229
-0.314459 0.0302506 0.0256609
-0.107302 0.0726539 0.0613841
0.0713302 0.138471 0.044451
0.186471 0.11176 0.0358762
0.22967 0.0419303 0.0134602
0.18426 -0.044076 -0.014149
0.0677618 -0.113077 -0.0362993
-0.0748796 -0.138453 -0.0444451
-0.188632 -0.110412 -0.0354437
-0.229609 -0.0397734 -0.0127678
-0.182001 0.04621 0.014834
-0.0641754 0.114365 0.0367127
0 0.33927 0
0 0.273823 0
0 0.102734 0
0 -0.107991 0
0 -0.277052 0
0 -0.339224 0
0 -0.270521 0
0 -0.0974493 0
0 0.113219 0
0 0.280207 0
-0.0446759 0.208377 0.173695
-0.116791 0.16818 0.140188
-0.143848 0.0630983 0.0525962
-0.115407 -0.0663273 -0.0552878
-0.0424409 -0.170163 -0.141841
0.0468989 -0.208349 -0.173671
0.118145 -0.166152 -0.138498
0.143809 -0.0598526 -0.0498908
0.113991 0.0695386 0.0579646
0.0401946 0.172101 0.143457
-0.0721154 -0.0029092 0.280376
-0.188524 -0.00234801 0.226291
-0.232198 -0.000880932 0.0849005
-0.186289 0.000926012 -0.0892451
-0.0685078 0.00237569 -0.228959
0.0757039 0.00290882 -0.280339
0.190708 0.0023197 -0.223562
0.232136 0.000835618 -0.0805333
0.184004 -0.000970846 0.093566
0.0648819 -0.00240275 0.231567
-0.0717323 -0.213073 0.278887
-0.187522 -0.17197 0.225089
-0.230964 -0.0645203 0.0844495
-0.185299 0.067822 -0.088771
-0.0681438 0.173998 -0.227743
0.0753017 0.213044 -0.27885
0.189695 0.169897 -0.222375
0.230903 0.0612015 -0.0801055
0.183027 -0.0711057 0.093069
0.0645372 -0.17598 0.230337
-0.0436744 -0.341031 0.169801
-0.114173 -0.275245 0.137046
-0.140623 -0.103267 0.0514172
-0.11282 0.108552 -0.0540484
-0.0414895 0.278491 -0.138662
0.0458476 0.340986 -0.169778
0.115496 0.271926 -0.135393
0.140586 0.0979553 -0.0487724
0.111436 -0.113807 0.0566652
0.0392936 -0.281662 0.140241
0.00123348 -0.337418 -0.00479563
0.00322456 -0.272328 -0.00387054
0.00397157 -0.102173 -0.00145216
0.00318633 0.107401 0.00152647
0.00117177 0.27554 0.00391618
-0.00129486 0.337373 0.00479499
-0.00326192 0.269045 0.00382387
-0.00397052 0.0969173 0.00137746
-0.00314725 -0.112601 -0.00160038
-0.00110976 -0.278678 -0.00396078
0.0456655 -0.203626 -0.177542
0.119378 -0.164345 -0.143293
0.147034 -0.0616596 -0.0537613
0.117963 0.0648149 0.0565124
0.043381 0.166283 0.144983
-0.0479378 0.203598 0.177518
-0.120762 0.162364 0.141566
-0.146995 0.0584879 0.0509959
-0.116516 -0.067953 -0.0592485
-0.041085 -0.168177 -0.146634
0.0724794 0.00872693 -0.281791
0.189475 0.00704347 -0.227433
0.23337 0.00264259 -0.0853289
0.187229 -0.00277782 0.0896955
0.0688535 -0.00712652 0.230115
-0.0760859 -0.00872576 0.281754
-0.191671 -0.00695854 0.22469
-0.233308 -0.00250666 0.0809397
-0.184933 0.00291231 -0.0940382
-0.0652093 0.00720769 -0.232735
0.0713302 0.217712 -0.277324
0.186471 0.175715 -0.223827
0.22967 0.0659251 -0.083976
0.18426 -0.0692987 0.0882733
0.0677618 -0.177787 0.226466
-0.0748796 -0.217683 0.277287
-0.188632 -0.173596 0.221128
-0.229609 -0.062534 0.0796564
-0.182001 0.0726539 -0.0925472
-0.0641754 0.179811 -0.229045
0.0426613 0.342703 -0.165862
0.111525 0.276594 -0.133867
0.137361 0.103773 -0.0502245
0.110203 -0.109084 0.0527947
0.0405271 -0.279856 0.135445
-0.0447841 -0.342657 0.16584
-0.112817 -0.273259 0.132253
-0.137325 -0.0984354 0.047641
-0.108851 0.114365 -0.0553508
-0.0383822 0.283043 -0.136988
