# vtk DataFile Version 3.0
Velocity field
ASCII
DATASET STRUCTURED_POINTS
DIMENSIONS 8 8 8
SPACING 0.8 0.8 0.8
ORIGIN 0 0 0
POINT_DATA 512
VECTORS velocity float
0 0.400629 0
0 0.279121 0
0 -0.0116982 0
0 -0.295422 0
0 -0.399946 0
0 -0.261869 0
0 0.0350547 0
0 0.310715 0
0 0.157613 0.408902
0 0.10981 0.302045
0 -0.00460223 -0.012659
0 -0.116223 -0.319685
0 -0.157344 -0.432794
0 -0.103023 -0.283376
0 0.013791 0.0379338
0 0.122239 0.317131
0 -0.181009 0.56977
0 -0.12611 0.420874
0 0.00528539 -0.0176392
0 0.133475 -0.445453
0 0.180701 -0.603061
0 0.118316 -0.39486
0 -0.0158382 0.0528575
0 -0.140385 0.441894
0 -0.409834 0.385023
0 -0.285534 0.284406
0 0.011967 -0.0119197
0 0.302209 -0.301015
0 0.409135 -0.407519
0 0.267885 -0.266827
0 -0.0358601 0.0357185
0 -0.317853 0.29861
0 -0.390059 -0.033274
0 -0.271757 -0.0245787
0 0.0113895 0.00103011
0 0.287627 0.026014
0 0.389394 0.0352182
0 0.254959 0.0230595
0 -0.0341298 -0.00308683
0 -0.302516 -0.0258062
0 -0.133679 -0.431387
0 -0.0931351 -0.318654
0 0.00390337 0.0133551
0 0.0985741 0.337264
0 0.133451 0.456593
0 0.0873785 0.298959
0 -0.0116968 -0.0400197
0 -0.103677 -0.334569
0 0.203789 -0.567827
0 0.141981 -0.419439
0 -0.00595053 0.017579
0 -0.150272 0.443934
0 -0.203441 0.601004
0 -0.133205 0.393514
0 0.0178313 -0.0526772
0 0.158051 -0.440387
0 0.417641 -0.35983
0 0.290973 -0.250696
0 -0.0121949 0.0105069
0 -0.307966 0.265337
0 -0.416928 0.359217
0 -0.272988 0.235201
0 0.0365432 -0.0314848
0 0.323908 -0.279072
0 0.279121 0
0 0.211132 0
0 -0.00884872 0
0 -0.223462 0
0 -0.302526 0
0 -0.198082 0
0 0.026516 0
0 0.216477 0
0.0871647 0.10981 0.403884
0.215955 0.0793205 0.291336
0.210719 -0.00332675 -0.0122188
0.0776293 -0.0840022 -0.308529
-0.102549 -0.113724 -0.417694
-0.220524 -0.0744618 -0.27349
-0.204705 0.00993188 0.0364811
-0.0625424 0.0851649 0.313239
0.121456 -0.12611 0.562777
0.300911 -0.090861 0.405956
0.293616 0.00381055 -0.0170257
0.108171 0.0962201 -0.429912
-0.142892 0.130263 -0.582016
-0.307278 0.0852914 -0.381085
-0.285237 -0.0113788 0.0508336
-0.0871474 -0.0978069 0.436471
0.0820743 -0.285534 0.380298
0.203342 -0.205726 0.274325
0.198414 0.00862805 -0.0115051
0.0730955 0.217863 -0.290511
-0.0965603 0.294944 -0.393301
-0.207644 0.193121 -0.257516
-0.192751 -0.025764 0.0343509
-0.05889 -0.22145 0.294946
-0.00709294 -0.271757 -0.0328657
-0.0175729 -0.195802 -0.0237075
-0.0171471 0.00821165 0.000994279
-0.00631703 0.20735 0.0251065
0.0083448 0.280714 0.0339893
0.0179447 0.183802 0.0222548
0.0166576 -0.0245208 -0.00296863
0.00508933 -0.210765 -0.0254895
-0.0919577 -0.0931351 -0.426093
-0.227827 -0.067105 -0.307357
-0.222307 0.0028143 0.0128906
-0.0818969 0.0710629 0.325491
0.108188 0.0962065 0.440663
0.232645 0.0629917 0.288526
0.215962 -0.00840371 -0.0384873
0.0659815 -0.0722324 -0.330463
-0.121042 0.141981 -0.560858
-0.299811 0.102219 -0.404474
-0.292542 -0.00428683 0.0169633
-0.107775 -0.108246 0.428338
0.142369 -0.146544 0.579885
0.306151 -0.0959527 0.379689
0.284193 0.0128024 -0.0506494
0.0868502 0.110115 -0.434982
-0.0767041 0.290973 -0.355414
-0.183585 0.202723 -0.247619
-0.179105 -0.00849628 0.0103779
-0.0659829 -0.214562 0.26208
0.0871637 -0.290477 0.354808
0.187438 -0.190193 0.232314
0.174015 0.0254599 -0.0310984
0.0550367 0.225669 -0.275647
0 -0.0116982 0
0 -0.00884872 0
0 0.000370857 0
0 0.00936548 0
0 0.0126791 0
0 0.00830179 0
0 -0.00111131 0
0 -0.00907272 0
0.121456 -0.00460223 0.153875
0.300911 -0.00332675 0.110932
0.293616 0.00013953 -0.00465239
0.108171 0.0035232 -0.117475
-0.142892 0.00476969 -0.159039
-0.307278 0.00312305 -0.104135
-0.285237 -0.00041651 0.0138913
-0.0871474 -0.00356933 0.11934
0.169239 0.00528539 0.214412
0.419297 0.00381055 0.154573
0.409131 -0.000159812 -0.00648273
0.150725 -0.00403538 -0.163691
-0.19911 -0.00546318 -0.221612
-0.428168 -0.00357711 -0.145102
-0.397457 0.000477166 0.0193562
-0.121432 0.00409917 0.166291
0.114363 0.011967 0.144889
0.283338 0.00862805 0.104453
0.276472 -0.000361855 -0.00438074
0.101853 -0.00913706 -0.110617
-0.134548 -0.01237 -0.149753
-0.289333 -0.0080993 -0.0980535
-0.26858 0.00108042 0.01308
-0.0820581 0.00928117 0.112371
-0.0098834 0.0113895 -0.0125215
-0.0244865 0.00821165 -0.00902689
-0.0238929 -0.000344395 0.000378587
-0.00880218 -0.00869627 0.00955948
0.0116278 -0.0117731 0.0129419
0.0250046 -0.00770848 0.00847384
0.023211 0.00102828 -0.00113038
0.00709154 0.00883333 -0.00971122
-0.128135 0.00390337 -0.162337
-0.317454 0.0028143 -0.11703
-0.309762 -0.000118031 0.00490821
-0.114118 -0.00298036 0.123934
0.150749 -0.00403481 0.167785
0.32417 -0.00264184 0.109861
0.300921 0.000352409 -0.0146549
0.0919395 0.00302732 -0.125903
-0.168662 -0.00595053 -0.213681
-0.417763 -0.00428683 -0.154007
-0.407634 0.000179784 0.00645903
-0.150173 0.00453967 0.163092
0.198381 0.0061459 0.2208
0.426601 0.00402408 0.144571
0.396002 -0.000536861 -0.019286
0.121018 -0.00461503 -0.165723
-0.106881 -0.0121949 -0.135409
-0.255809 -0.00849628 -0.0943402
-0.249568 0.000356086 0.00395388
-0.0919415 0.00899246 0.0998496
0.121455 0.0121741 0.135178
0.261179 0.00797113 0.0885091
0.242475 -0.00106705 -0.0118482
0.0766889 -0.00945796 -0.105018
0 -0.295422 0
0 -0.223462 0
0 0.00936548 0
0 0.236512 0
0 0.320194 0
0 0.20965 0
0 -0.0280645 0
0 -0.229119 0
0.0820743 -0.116223 -0.189472
0.203342 -0.0840022 -0.136591
0.198414 0.0035232 0.00572856
0.0730955 0.0889614 0.144649
-0.0965603 0.120437 0.19583
-0.207644 0.0788575 0.128221
-0.192751 -0.0105172 -0.0171045
-0.05889 -0.0901385 -0.146948
0.114363 0.133475 -0.264013
0.283338 0.0962201 -0.190328
0.276472 -0.00403538 0.0079822
0.101853 -0.101897 0.201559
-0.134548 -0.13795 0.272872
-0.289333 -0.0903238 0.178665
-0.26858 0.0120491 -0.0238335
-0.0820581 0.103519 -0.20476
0.0772813 0.302209 -0.178407
0.191467 0.217863 -0.128614
0.186826 -0.00913706 0.00539398
0.0688275 -0.230716 0.136203
-0.0909208 -0.312348 0.184393
-0.195518 -0.204514 0.120732
-0.181493 0.0272818 -0.0161055
-0.0554509 0.234383 -0.138367
-0.00667872 0.287627 0.0154181
-0.0165467 0.20735 0.011115
-0.0161455 -0.00869627 -0.000466154
-0.00594813 -0.219586 -0.0117708
0.00785738 -0.297276 -0.0159353
0.0168968 -0.194647 -0.0104338
0.0156846 0.0259653 0.00139186
0.00479212 0.223073 0.0119578
-0.0865875 0.0985741 0.199891
-0.214524 0.0710629 0.144101
-0.209323 -0.00298036 -0.00604357
-0.077115 -0.0752556 -0.152603
0.101869 -0.101882 -0.206597
0.219063 -0.0667088 -0.135272
0.203348 0.00889874 0.0180449
0.0621283 0.0764507 0.155029
-0.113973 -0.150272 0.263113
-0.282302 -0.108246 0.189633
-0.27546 0.00453967 -0.00795299
-0.10148 0.11463 -0.200821
0.134055 0.155188 -0.271873
0.288274 0.101611 -0.178011
0.267597 -0.0135564 0.0237473
0.0817782 -0.116546 0.204061
-0.0722246 -0.307966 0.166734
-0.172863 -0.214562 0.116165
-0.168646 0.00899246 -0.00486855
-0.0621296 0.227092 -0.122948
0.0820734 0.30744 -0.16645
0.176492 0.2013 -0.108985
0.163853 -0.0269467 0.0145891
0.0518226 -0.238848 0.129313
0 -0.399946 0
0 -0.302526 0
0 0.0126791 0
0 0.320194 0
0 0.433483 0
0 0.283827 0
0 -0.0379942 0
0 -0.310185 0
-0.00709294 -0.157344 -0.417888
-0.0175729 -0.113724 -0.301255
-0.0171471 0.00476969 0.0126346
-0.00631703 0.120437 0.319026
0.0083448 0.163049 0.431911
0.0179447 0.10676 0.282796
0.0166576 -0.0142385 -0.0377244
0.00508933 -0.122031 -0.3241
-0.0098834 0.180701 -0.582291
-0.0244865 0.130263 -0.419774
-0.0238929 -0.00546318 0.0176052
-0.00880218 -0.13795 0.444546
0.0116278 -0.186758 0.601825
0.0250046 -0.122281 0.394056
0.023211 0.0163121 -0.052566
0.00709154 0.140145 -0.451605
-0.00667872 0.409135 -0.393484
-0.0165467 0.294944 -0.283663
-0.0161455 -0.01237 0.0118968
-0.00594813 -0.312348 0.300399
0.00785738 -0.422864 0.406685
0.0168968 -0.276876 0.266282
0.0156846 0.0369342 -0.0355213
0.00479212 0.317311 -0.305173
0.000577182 0.389394 0.0340053
0.00142999 0.280715 0.0245146
0.00139532 -0.0117731 -0.00102812
0.000514038 -0.297276 -0.0259609
-0.000679049 -0.402461 -0.035146
-0.00146024 -0.263514 -0.0230124
-0.00135549 0.0351522 0.0030698
-0.00041414 0.302 0.0263733
0.00748298 0.133451 0.440867
0.0185392 0.0962065 0.317818
0.0180898 -0.00403481 -0.0133293
0.00666439 -0.101882 -0.336569
-0.00880361 -0.137931 -0.455658
-0.0189314 -0.0903111 -0.298346
-0.0175735 0.0120473 0.0397986
-0.00536919 0.1035 0.341922
0.0098497 -0.203441 0.580305
0.0243969 -0.146544 0.418241
0.0238055 0.0061459 -0.0175408
0.00876999 0.155188 -0.442916
-0.0115853 0.210096 -0.599624
-0.0249131 0.137563 -0.392614
-0.0231261 -0.0183527 0.0523757
-0.00706736 -0.157782 0.450065
0.00624173 -0.416928 0.367738
0.014939 -0.290477 0.256205
0.0145745 0.0121741 -0.0107378
0.0053693 0.30744 -0.271168
-0.00709287 0.416218 -0.367111
-0.0152526 0.272523 -0.24037
-0.0141603 -0.0364809 0.0321768
-0.00447856 -0.323355 0.285205
0 -0.261869 0
0 -0.198082 0
0 0.00830179 0
0 0.20965 0
0 0.283827 0
0 0.185839 0
0 -0.0248771 0
0 -0.203097 0
-0.0919577 -0.103023 -0.392819
-0.227827 -0.0744618 -0.283184
-0.222307 0.00312305 0.0118767
-0.0818969 0.0788575 0.299891
0.108188 0.10676 0.405999
0.232645 0.0699021 0.265833
0.215962 -0.00932282 -0.0354613
0.0659815 -0.0799009 -0.304657
-0.128135 0.118316 -0.547359
-0.317454 0.0852914 -0.394596
-0.309762 -0.00357711 0.016549
-0.114118 -0.0903238 0.417876
0.150749 -0.122281 0.565722
0.32417 -0.0800646 0.370416
0.300921 0.0106806 -0.0494126
0.0919395 0.0917615 -0.424513
-0.0865875 0.267885 -0.369879
-0.214524 0.193121 -0.266647
-0.209323 -0.0080993 0.011183
-0.077115 -0.204514 0.282378
0.101869 -0.276876 0.38229
0.219063 -0.181286 0.250306
0.203348 0.0241832 -0.0333905
0.0621283 0.207763 -0.286865
0.00748298 0.254959 0.0319653
0.0185392 0.183802 0.023044
0.0180898 -0.00770848 -0.00096644
0.00666439 -0.194647 -0.0244035
-0.00880361 -0.263514 -0.0330377
-0.0189314 -0.172538 -0.0216318
-0.0175735 0.0230163 0.00288564
-0.00536919 0.197738 0.0247912
0.0970144 0.0873785 0.41442
0.240352 0.0629917 0.298754
0.234525 -0.00264184 -0.0125298
0.0864003 -0.0667088 -0.316379
-0.114136 -0.0903111 -0.428325
-0.245437 -0.0591317 -0.28045
-0.227834 0.00788806 0.0374112
-0.0696098 0.0677677 0.32141
0.127698 -0.133205 0.545493
0.316293 -0.0959527 0.393153
0.308627 0.00402408 -0.0164884
0.1137 0.101611 -0.416347
-0.150198 0.137563 -0.563653
-0.322984 0.0900712 -0.369061
-0.29982 -0.0120167 0.0492335
-0.091626 -0.103309 0.423065
0.0809219 -0.272988 0.345677
0.19368 -0.190193 0.240836
0.188954 0.00797113 -0.0100936
0.0696112 0.2013 -0.2549
-0.0919567 0.272523 -0.345088
-0.197745 0.178437 -0.22595
-0.183584 -0.0238862 0.0302465
-0.0580631 -0.21172 0.268095
0 0.0350547 0
0 0.026516 0
0 -0.00111131 0
0 -0.0280645 0
0 -0.0379942 0
0 -0.0248771 0
0 0.00333014 0
0 0.0271873 0
-0.121042 0.013791 -0.129471
-0.299811 0.00993162 -0.0933947
-0.292542 -0.000416499 0.003917
-0.107775 -0.010517 0.098907
0.142369 -0.0142381 0.133901
0.306151 -0.00932257 0.087673
0.284193 0.00124404 -0.0116943
0.0868502 0.0106958 -0.100413
-0.168662 -0.0158382 -0.180406
-0.417763 -0.0113785 -0.130138
-0.407634 0.000477153 0.00545798
-0.150173 0.0120487 0.137818
0.198381 0.0163117 0.186579
0.426601 0.0106803 0.122165
0.396002 -0.00142549 -0.016295
0.121018 -0.0122835 -0.139917
-0.113973 -0.0358601 -0.12191
-0.282302 -0.0257633 -0.0879404
-0.27546 0.00108039 0.00368826
-0.10148 0.0272811 0.0931304
0.134055 0.0369331 0.126081
0.288274 0.0241825 0.0825531
0.267597 -0.00322758 -0.0110113
0.0817782 -0.0278119 -0.0945491
0.0098497 -0.0341298 0.0105356
0.0243969 -0.0245201 0.00759991
0.0238055 0.00102825 -0.000318741
0.00876999 0.0259646 -0.00804843
-0.0115853 0.0351512 -0.010896
-0.0249131 0.0230157 -0.00713437
-0.0231261 -0.00307185 0.000951615
-0.00706736 -0.0264699 0.00817103
0.127698 -0.0116968 0.13659
0.316293 -0.00840349 0.0985306
0.308627 0.0003524 -0.00413239
0.1137 0.0088985 -0.104345
-0.150198 0.012047 -0.141263
-0.322984 0.00788784 -0.0924941
-0.29982 -0.00105278 0.0123373
-0.091626 -0.00907164 0.105935
0.168087 0.0178313 0.179791
0.416236 0.012802 0.129662
0.406144 -0.000536846 -0.00543797
0.149624 -0.013556 -0.137313
-0.197655 -0.0183522 -0.185896
-0.425042 -0.0120164 -0.121717
-0.394553 0.00160395 0.0162359
-0.120606 0.0138294 0.13944
0.106516 0.0365432 0.113933
0.254937 0.0254599 0.079378
0.248716 -0.00106705 -0.0033268
0.0916279 -0.0269467 -0.0840136
-0.121041 -0.0364809 -0.113739
-0.260288 -0.0238862 -0.0744717
-0.241648 0.0031975 0.00996906
-0.0764274 0.0283417 0.0883627
0 0.310715 0
0 0.216477 0
0 -0.00907272 0
0 -0.229119 0
0 -0.310185 0
0 -0.203097 0
0 0.0271873 0
0 0.24098 0
-0.0767041 0.122239 0.212412
-0.183585 0.0851649 0.147989
-0.179105 -0.00356933 -0.00620235
-0.0659829 -0.0901385 -0.156632
0.0871637 -0.122031 -0.21205
0.187438 -0.0799009 -0.138842
0.174015 0.0106958 0.0185859
0.0550367 0.0948046 0.16474
-0.106881 -0.140385 0.295978
-0.255809 -0.0978069 0.20621
-0.249568 0.00409917 -0.00864243
-0.0919414 0.103519 -0.218253
0.121455 0.140145 -0.295474
0.261179 0.0917615 -0.193464
0.242475 -0.0122835 0.0258979
0.0766889 -0.108878 0.229551
-0.0722246 -0.317853 0.200008
-0.172863 -0.22145 0.139347
-0.168646 0.00928117 -0.00584014
-0.0621295 0.234383 -0.147484
0.0820734 0.317311 -0.199667
0.176492 0.207763 -0.130734
0.163853 -0.0278119 0.0175005
0.0518226 -0.246516 0.155119
0.00624173 -0.302516 -0.0172849
0.014939 -0.210765 -0.0120425
0.0145745 0.00883333 0.00050471
0.0053693 0.223073 0.0127458
-0.00709286 0.302 0.0172554
-0.0152526 0.197738 0.0112981
-0.0141603 -0.0264699 -0.00151241
-0.00447856 -0.234621 -0.0134056
0.0809219 -0.103677 -0.224093
0.19368 -0.0722324 -0.156127
0.188954 0.00302732 0.00654341
0.0696112 0.0764507 0.165245
-0.0919567 0.1035 0.223711
-0.197745 0.0677677 0.146477
-0.183584 -0.00907164 -0.0196079
-0.0580631 -0.0804083 -0.173799
0.106516 0.158051 -0.294969
0.254937 0.110115 -0.205507
0.248716 -0.00461503 0.00861296
0.0916279 -0.116546 0.217508
-0.121041 -0.157782 0.294466
-0.260288 -0.103309 0.192805
-0.241648 0.0138294 -0.0258095
-0.0764274 0.122579 -0.228768
0.0674989 0.323908 -0.186921
0.161553 0.225669 -0.130229
0.157611 -0.00945796 0.00545801
0.0580643 -0.238848 0.137834
-0.0767032 -0.323355 0.186602
-0.164944 -0.21172 0.12218
-0.153131 0.0283417 -0.0163554
-0.0484318 0.251212 -0.14497
