# vtk DataFile Version 3.0
Velocity field
ASCII
DATASET STRUCTURED_POINTS
DIMENSIONS 8 8 8
SPACING 0.8 0.8 0.8
ORIGIN 0 0 0
POINT_DATA 512
VECTORS velocity float
0 0.211102 0
0 0.147076 0
0 -0.00616408 0
0 -0.155665 0
0 -0.210742 0
0 -0.137985 0
0 0.0184712 0
0 0.163723 0
0 0.0830503 0.215461
0 0.0578617 0.159155
0 -0.00242503 -0.00667033
0 -0.0612408 -0.16845
0 -0.0829087 -0.22805
0 -0.0542853 -0.149318
0 0.00726683 0.0199883
0 0.064411 0.167104
0 -0.0953785 0.300226
0 -0.0664508 0.221769
0 0.00278501 -0.00929454
0 0.0703315 -0.23472
0 0.0952158 -0.317768
0 0.0623435 -0.208062
0 -0.00834554 0.027852
0 -0.0739723 0.232845
0 -0.215952 0.202878
0 -0.150455 0.149861
0 0.0063057 -0.00628079
0 0.159242 -0.158613
0 0.215584 -0.214732
0 0.141156 -0.140598
0 -0.0188956 0.018821
0 -0.167485 0.157345
0 -0.205532 -0.0175329
0 -0.143195 -0.0129511
0 0.00600144 0.000542792
0 0.151558 0.0137075
0 0.205181 0.0185574
0 0.134345 0.0121506
0 -0.0179839 -0.00162653
0 -0.159403 -0.013598
0 -0.0704389 -0.227309
0 -0.0490753 -0.167907
0 0.00205678 0.00703713
0 0.0519412 0.177713
0 0.0703188 0.24059
0 0.0460419 0.157529
0 -0.00616335 -0.0210874
0 -0.05463 -0.176293
0 0.107381 -0.299202
0 0.0748133 -0.221013
0 -0.00313549 0.00926284
0 -0.0791824 0.23392
0 -0.107198 0.316684
0 -0.0701892 0.207352
0 0.00939578 -0.027757
0 0.0832813 -0.232051
0 0.220066 -0.189604
0 0.153321 -0.132098
0 -0.00642581 0.00553634
0 -0.162275 0.139813
0 -0.21969 0.18928
0 -0.143844 0.123933
0 0.0192555 -0.0165902
0 0.170675 -0.14705
0 0.147076 0
0 0.111251 0
0 -0.00466262 0
0 -0.117748 0
0 -0.159409 0
0 -0.104375 0
0 0.013972 0
0 0.114067 0
0.0459293 0.0578617 0.212817
0.111918 0.0410982 0.151004
0.109192 -0.00172277 -0.00632981
0.0402271 -0.0435055 -0.159848
-0.0531396 -0.0588986 -0.216403
-0.114272 -0.0385643 -0.141693
-0.106085 0.00515719 0.0189493
-0.0329552 0.0448755 0.165053
0.0639985 -0.0664508 0.296542
0.155949 -0.0471226 0.21041
0.15215 0.00197528 -0.00882
0.0560525 0.0498819 -0.222732
-0.0740463 0.0675308 -0.301541
-0.15923 0.0442164 -0.197437
-0.147822 -0.00591353 0.0264042
-0.0459202 -0.051537 0.229988
0.0432471 -0.150455 0.200388
0.105382 -0.106693 0.142185
0.102816 0.00447238 -0.00596014
0.0378776 0.112941 -0.150513
-0.0500367 0.152902 -0.203767
-0.107599 0.100114 -0.133418
-0.0998907 -0.0133892 0.0178427
-0.0310306 -0.116688 0.155414
-0.00373745 -0.143195 -0.0173178
-0.00910732 -0.101545 -0.0122878
-0.00888547 0.00425656 0.00051508
-0.00327341 0.107492 0.0130075
0.00432421 0.145525 0.0176096
0.0092989 0.0952838 0.0115301
0.00863261 -0.0127432 -0.00154199
0.0026817 -0.111057 -0.0134311
-0.0484549 -0.0490753 -0.224519
-0.118073 -0.0348014 -0.159307
-0.115197 0.0014588 0.00667784
-0.0424388 0.0368393 0.168637
0.0560618 0.0498734 0.228302
0.120557 0.032655 0.149485
0.111919 -0.00436731 -0.0199914
0.0347673 -0.0380611 -0.17413
-0.0637802 0.0748133 -0.29553
-0.155407 0.0530416 -0.209679
-0.151621 -0.00222339 0.00878932
-0.0558575 -0.0561477 0.221957
0.0737886 -0.0760133 0.300491
0.158675 -0.0497705 0.19675
0.147308 0.00665642 -0.0263125
0.0457636 0.0580226 -0.229203
-0.0404174 0.153321 -0.187277
-0.0967354 0.10682 -0.130477
-0.0943751 -0.00447691 0.0054684
-0.0347681 -0.113058 0.138097
0.0459288 -0.15306 0.186957
0.0987659 -0.100217 0.122412
0.0916929 0.0134155 -0.0163866
0.0290003 0.118911 -0.145246
0 -0.00616408 0
0 -0.00466262 0
0 0.000195414 0
0 0.00493491 0
0 0.00668095 0
0 0.00437442 0
0 -0.000585576 0
0 -0.00478065 0
0.0639985 -0.00242503 0.0810808
0.155949 -0.00172277 0.0575067
0.15215 7.22164e-05 -0.00241057
0.0560525 0.00182369 -0.0608748
-0.0740463 0.00246894 -0.0824124
-0.15923 0.00161657 -0.0539604
-0.147822 -0.000216178 0.00721658
-0.0459202 -0.00188077 0.0628835
0.0891763 0.00278501 0.112979
0.217301 0.00197528 0.0801307
0.212007 -8.27991e-05 -0.0033589
0.0781048 -0.00209094 -0.084823
-0.103177 -0.00283075 -0.114835
-0.221871 -0.00185347 -0.0751899
-0.205977 0.00024788 0.0100557
-0.0639858 0.00215996 0.0876227
0.060261 0.0063057 0.0763458
0.146842 0.00447238 0.0541481
0.143266 -0.000187473 -0.0022698
0.052779 -0.00473429 -0.0573193
-0.0697217 -0.00640938 -0.0775999
-0.149931 -0.00419656 -0.0508096
-0.139189 0.000561243 0.00679513
-0.0432385 0.00489048 0.0592112
-0.00520782 0.00600144 -0.00659788
-0.0126903 0.00425656 -0.00467958
-0.0123811 -0.000178427 0.000196158
-0.00456125 -0.00450586 0.00495361
0.00602544 -0.00610011 0.00670623
0.0129572 -0.0039941 0.00439099
0.0120289 0.000534161 -0.000587245
0.00373671 0.00465451 -0.00511709
-0.0675177 0.00205678 -0.0855393
-0.164524 0.0014588 -0.060669
-0.160518 -6.115e-05 0.00254312
-0.0591351 -0.00154423 0.0642213
0.0781177 -0.00209059 0.0869445
0.167985 -0.00136883 0.0569276
0.15595 0.000183066 -0.00761344
0.0484453 0.00159517 -0.0663414
-0.0888722 -0.00313549 -0.112594
-0.216545 -0.00222339 -0.0798519
-0.21127 9.31998e-05 0.00334722
-0.0778331 0.0023536 0.0845281
0.102818 0.00318633 0.114435
0.221099 0.00208628 0.0749282
0.20526 -0.000279019 -0.0100208
0.0637676 -0.00243178 -0.0873239
-0.0563181 -0.00642581 -0.0713504
-0.134792 -0.00447691 -0.0497103
-0.131503 0.000187631 0.0020834
-0.0484463 0.00473835 0.0526133
0.0639978 0.00641486 0.0712287
0.137622 0.00420019 0.0466377
0.127766 -0.000562253 -0.0062431
0.0404094 -0.00498364 -0.0553369
0 -0.155665 0
0 -0.117748 0
0 0.00493491 0
0 0.124624 0
0 0.168718 0
0 0.11047 0
0 -0.0147879 0
0 -0.120729 0
0.0432471 -0.0612408 -0.0998378
0.105382 -0.0435055 -0.0708098
0.102816 0.00182369 0.00296821
0.0378776 0.0460539 0.0749569
-0.0500367 0.0623487 0.101478
-0.107599 0.0408232 0.066443
-0.0998907 -0.00545919 -0.008886
-0.0310306 -0.0474962 -0.0774308
0.060261 0.0703315 -0.139115
0.146842 0.0498819 -0.0986672
0.143266 -0.00209094 0.00413591
0.052779 -0.0528028 0.104446
-0.0697217 -0.0714859 0.1414
-0.149931 -0.046806 0.0925827
-0.139189 0.00625976 -0.0123819
-0.0432385 0.0545467 -0.107893
0.0407215 0.159242 -0.0940073
0.0992286 0.112941 -0.0666743
0.096812 -0.00473429 0.00279484
0.0356658 -0.119556 0.0705791
-0.0471146 -0.161857 0.0955512
-0.101316 -0.105977 0.0625633
-0.0940571 0.0141732 -0.00836703
-0.0292185 0.123502 -0.0729089
-0.00351919 0.151558 0.00812421
-0.0085754 0.107492 0.00576207
-0.00836651 -0.00450586 -0.000241535
-0.00308228 -0.113787 -0.00609954
0.00407166 -0.154046 -0.00825757
0.0087558 -0.100864 -0.00540675
0.00812845 0.0134893 0.000723088
0.00252509 0.117543 0.00630086
-0.0456252 0.0519412 0.105328
-0.111177 0.0368393 0.0747036
-0.108469 -0.00154423 -0.00313142
-0.0399607 -0.0389966 -0.0790782
0.0527877 -0.0527938 -0.107057
0.113516 -0.0345675 -0.0700968
0.105383 0.00462301 0.00937465
0.032737 0.0402838 0.0816886
-0.0600555 -0.0791824 0.138641
-0.146332 -0.0561477 0.0983242
-0.142767 0.0023536 -0.00412152
-0.0525954 0.0594356 -0.104082
0.0694792 0.080465 -0.140908
0.149409 0.0526849 -0.0922608
0.138705 -0.00704614 0.0123389
0.043091 -0.0614111 0.107525
-0.038057 -0.162275 0.0878563
-0.0910861 -0.113058 0.0612101
-0.0888637 0.00473835 -0.00256536
-0.0327376 0.119661 -0.0647847
0.0432466 0.161998 -0.0877065
0.092998 0.10607 -0.0574267
0.0863381 -0.0141989 0.00768736
0.0273067 -0.125855 0.0681384
0 -0.210742 0
0 -0.159409 0
0 0.00668095 0
0 0.168718 0
0 0.228413 0
0 0.149556 0
0 -0.0200201 0
0 -0.163444 0
-0.00373745 -0.0829087 -0.220196
-0.00910732 -0.0588986 -0.156173
-0.00888547 0.00246894 0.00654647
-0.00327342 0.0623487 0.165319
0.00432421 0.0844082 0.223811
0.0092989 0.055267 0.146544
0.00863261 -0.00739076 -0.0195984
0.0026817 -0.0643011 -0.170777
-0.00520782 0.0952158 -0.306824
-0.0126903 0.0675308 -0.217613
-0.0123811 -0.00283075 0.00912197
-0.00456125 -0.0714859 0.230358
0.00602544 -0.0967787 0.311863
0.0129572 -0.063367 0.204196
0.0120289 0.00847453 -0.0273086
0.00373671 0.0738461 -0.237962
-0.00351919 0.215584 -0.207337
-0.0085754 0.152902 -0.147053
-0.00836651 -0.00640938 0.0061642
-0.00308228 -0.161857 0.155665
0.00407166 -0.219123 0.21074
0.0087558 -0.143474 0.137985
0.00812845 0.0191879 -0.0184539
0.00252509 0.167199 -0.160803
0.000304132 0.205181 0.0179182
0.000741098 0.145525 0.0127085
0.000723046 -0.00610011 -0.000532711
0.000266371 -0.154046 -0.0134526
-0.000351878 -0.208552 -0.0182125
-0.000756688 -0.13655 -0.0119248
-0.000702471 0.018262 0.00159481
-0.000218221 0.159132 0.0138968
0.00394297 0.0703188 0.232304
0.00960808 0.0498734 0.164761
0.00937411 -0.00209059 -0.00690641
0.00345341 -0.0527938 -0.174409
-0.00456201 -0.0714738 -0.236119
-0.0098102 -0.0467981 -0.154601
-0.00910736 0.00625869 0.020676
-0.00282916 0.0545368 0.180167
0.00519006 -0.107198 0.305778
0.0126461 -0.0760133 0.216857
0.0123381 0.00318633 -0.00909026
0.0045454 0.080465 -0.229557
-0.00600449 0.108934 -0.310778
-0.0129121 0.0713261 -0.203485
-0.011987 -0.00953914 0.0272138
-0.00372397 -0.0831393 0.237151
0.00328892 -0.21969 0.19377
0.00787176 -0.15306 0.135001
0.00767969 0.00641486 -0.00565801
0.00282922 0.161998 -0.142885
-0.00373741 0.219316 -0.19344
-0.00803698 0.143599 -0.126657
-0.00746142 -0.0192227 0.0169548
-0.00235987 -0.170384 0.150282
0 -0.137985 0
0 -0.104375 0
0 0.00437442 0
0 0.11047 0
0 0.149556 0
0 0.0979232 0
0 -0.0131084 0
0 -0.107017 0
-0.0484549 -0.0542853 -0.206986
-0.118073 -0.0385643 -0.146805
-0.115197 0.00161657 0.00615378
-0.0424388 0.0408232 0.155402
0.0560618 0.055267 0.210384
0.120557 0.0361869 0.137752
0.111919 -0.00483917 -0.0184227
0.0347673 -0.0421018 -0.160532
-0.0675177 0.0623435 -0.288418
-0.164524 0.0442164 -0.20456
-0.160518 -0.00185347 0.00857469
-0.0591351 -0.046806 0.216538
0.0781177 -0.063367 0.293154
0.167985 -0.0414899 0.191946
0.15595 0.00554878 -0.0256705
0.0484453 0.0483515 -0.223687
-0.0456252 0.141156 -0.194899
-0.111177 0.100114 -0.138231
-0.108469 -0.00419656 0.00579437
-0.0399607 -0.105977 0.146327
0.0527877 -0.143474 0.198099
0.113516 -0.0939409 0.129707
0.105383 0.0125635 -0.0173468
0.032737 0.109475 -0.151157
0.00394297 0.134345 0.0168433
0.00960808 0.0952838 0.0119461
0.00937411 -0.0039941 -0.000500754
0.00345341 -0.100864 -0.0126457
-0.00456201 -0.13655 -0.0171199
-0.0098102 -0.0894076 -0.0112094
-0.00910736 0.0119573 0.00149913
-0.00282916 0.104193 0.0130631
0.0511193 0.0460419 0.218368
0.124566 0.032655 0.154877
0.121532 -0.00136883 -0.00649217
0.0447724 -0.0345675 -0.163946
-0.0591449 -0.0467981 -0.221952
-0.127186 -0.0306416 -0.145327
-0.118074 0.00409793 0.0194357
-0.0366792 0.0357085 0.169359
0.0672874 -0.0701892 0.287434
0.163951 -0.0497705 0.203848
0.159959 0.00208628 -0.00854488
0.0589294 0.0526849 -0.215785
-0.077846 0.0713261 -0.292135
-0.1674 0.0467015 -0.191279
-0.155408 -0.00624587 0.0255813
-0.0482801 -0.0544363 0.222924
0.0426398 -0.143844 0.182146
0.102055 -0.100217 0.126902
0.0995646 0.00420019 -0.00531858
0.0366799 0.10607 -0.134313
-0.0484543 0.143599 -0.181835
-0.104197 0.094023 -0.119059
-0.0967349 -0.0125863 0.0159376
-0.0305949 -0.111561 0.141266
0 0.0184712 0
0 0.013972 0
0 -0.000585576 0
0 -0.0147879 0
0 -0.0200201 0
0 -0.0131084 0
0 0.00175473 0
0 0.0143257 0
-0.0637802 0.00726683 -0.0682215
-0.155407 0.00515712 -0.0483944
-0.151621 -0.000216175 0.00202859
-0.0558576 -0.00545911 0.0512287
0.0737886 -0.00739065 0.0693537
0.158675 -0.0048391 0.04541
0.147308 0.000647175 -0.006073
0.0457636 0.00563591 -0.0529103
-0.0888722 -0.00834554 -0.0950608
-0.216545 -0.00591344 -0.0674332
-0.21127 0.000247877 0.00282666
-0.0778331 0.00625967 0.0713825
0.102818 0.00847441 0.0966388
0.221099 0.0055487 0.0632755
0.20526 -0.00074213 -0.00846218
0.0637676 -0.00647251 -0.0737259
-0.0600555 -0.0188956 -0.0642374
-0.146332 -0.013389 -0.0455681
-0.142767 0.000561235 0.00191013
-0.0525954 0.014173 0.0482369
0.0694792 0.0191876 0.0653035
0.149409 0.0125633 0.0427583
0.138705 -0.00168031 -0.00571832
0.043091 -0.0146548 -0.0498204
0.00519006 -0.0179839 0.00555146
0.0126461 -0.012743 0.00393805
0.0123381 0.000534153 -0.000165075
0.0045454 0.0134891 -0.00416867
-0.00600449 0.0182618 -0.00564359
-0.0129121 0.0119571 -0.00369521
-0.011987 -0.00159924 0.000494185
-0.00372397 -0.0139477 0.00430552
0.0672874 -0.00616335 0.0719729
0.163951 -0.00436724 0.0510555
0.159959 0.000183063 -0.00214014
0.0589294 0.00462294 -0.0540454
-0.077846 0.0062586 -0.0731677
-0.1674 0.00409787 -0.0479073
-0.155408 -0.000548084 0.00640695
-0.0482801 -0.00478008 0.0558197
0.0885691 0.00939578 0.0947366
0.215792 0.00665632 0.0671988
0.210535 -0.000279015 -0.00281683
0.0775625 -0.00704604 -0.0711342
-0.10246 -0.009539 -0.0963027
-0.220331 -0.00624577 -0.0630551
-0.204545 0.000835374 0.0084328
-0.0635501 0.00728705 0.0734744
0.056126 0.0192555 0.0600343
0.134333 0.0134155 0.0418263
0.131055 -0.000562253 -0.00175297
0.0482811 -0.0141989 -0.0442689
-0.0637795 -0.0192227 -0.0599319
-0.137152 -0.0125863 -0.039241
-0.12733 0.00168484 0.00525295
-0.0402715 0.0149339 0.0465605
0 0.163723 0
0 0.114067 0
0 -0.00478065 0
0 -0.120729 0
0 -0.163444 0
0 -0.107017 0
0 0.0143257 0
0 0.126978 0
-0.0404174 0.064411 0.111926
-0.0967354 0.0448756 0.0779793
-0.0943751 -0.00188077 -0.00326818
-0.0347681 -0.0474962 -0.0825332
0.0459288 -0.0643011 -0.111735
0.0987658 -0.0421018 -0.0731594
0.0916929 0.00563591 0.00979339
0.0290003 0.0499549 0.0868056
-0.0563181 -0.0739723 0.155959
-0.134792 -0.051537 0.108657
-0.131503 0.00215996 -0.00455392
-0.0484463 0.0545467 -0.115003
0.0639978 0.0738461 -0.155693
0.137622 0.0483515 -0.101941
0.127766 -0.00647251 0.0136462
0.0404094 -0.0573704 0.120956
-0.038057 -0.167485 0.105389
-0.0910861 -0.116688 0.0734254
-0.0888636 0.00489048 -0.00307732
-0.0327376 0.123502 -0.0777133
0.0432466 0.167199 -0.105209
0.092998 0.109475 -0.068887
0.0863381 -0.0146548 0.00922147
0.0273067 -0.129896 0.0817363
0.00328892 -0.159403 -0.00910784
0.00787175 -0.111057 -0.00634549
0.00767968 0.00465451 0.000265945
0.00282922 0.117543 0.00671606
-0.00373741 0.159132 0.00909231
-0.00803698 0.104193 0.00595328
-0.00746142 -0.0139477 -0.000796928
-0.00235987 -0.123628 -0.00706373
0.0426398 -0.05463 -0.11808
0.102055 -0.0380611 -0.0822672
0.0995646 0.00159517 0.00344789
0.0366799 0.0402838 0.0870716
-0.0484543 0.0545368 0.117879
-0.104197 0.0357086 0.0771824
-0.0967349 -0.00478008 -0.0103319
-0.0305949 -0.0423692 -0.0915789
0.056126 0.0832813 -0.155427
0.134333 0.0580227 -0.108287
0.131055 -0.00243178 0.00453839
0.0482811 -0.0614111 0.114611
-0.0637795 -0.0831393 0.155162
-0.137152 -0.0544363 0.101594
-0.12733 0.00728705 -0.0135997
-0.0402715 0.0645901 -0.120544
0.0355669 0.170675 -0.0984934
0.0851263 0.118911 -0.068621
0.0830492 -0.00498364 0.00287596
0.0305956 -0.125855 0.0726284
-0.0404169 -0.170384 0.0983255
-0.086913 -0.111561 0.0643796
-0.0806889 0.0149339 -0.00861809
-0.02552 0.13237 -0.0763882
