# vtk DataFile Version 3.0
Velocity field
ASCII
DATASET STRUCTURED_POINTS
DIMENSIONS 8 8 8
SPACING 0.8 0.8 0.8
ORIGIN 0 0 0
POINT_DATA 512
VECTORS velocity float
0 0.28536 0
0 0.198812 0
0 -0.00833237 0
0 -0.210422 0
0 -0.284873 0
0 -0.186523 0
0 0.0249687 0
0 0.221315 0
0 0.112264 0.291252
0 0.0782153 0.21514
0 -0.00327807 -0.00901671
0 -0.082783 -0.227704
0 -0.112073 -0.30827
0 -0.0733808 -0.201843
0 0.00982303 0.0270194
0 0.0870683 0.225885
0 -0.128929 0.405835
0 -0.0898257 0.299779
0 0.00376467 -0.012564
0 0.0950715 -0.317286
0 0.128709 -0.429547
0 0.0842737 -0.28125
0 -0.0112812 0.0376492
0 -0.0999929 0.314752
0 -0.291916 0.274243
0 -0.20338 0.202576
0 0.00852381 -0.00849014
0 0.215257 -0.214407
0 0.291418 -0.290267
0 0.190809 -0.190055
0 -0.0255424 0.0254415
0 -0.2264 0.212694
0 -0.27783 -0.0237004
0 -0.193566 -0.0175069
0 0.00811252 0.000733726
0 0.20487 0.0185292
0 0.277357 0.0250852
0 0.181602 0.0164248
0 -0.0243099 -0.00219868
0 -0.215476 -0.0183812
0 -0.0952167 -0.307268
0 -0.0663381 -0.226971
0 0.00278028 0.00951252
0 0.0702122 0.240226
0 0.0950543 0.325221
0 0.0622378 0.212942
0 -0.00833138 -0.0285052
0 -0.0738468 -0.238306
0 0.145154 -0.404451
0 0.10113 -0.298757
0 -0.00423844 0.0125212
0 -0.107036 0.316204
0 -0.144907 0.428082
0 -0.0948791 0.280291
0 0.0127009 -0.0375208
0 0.112577 -0.313678
0 0.297476 -0.256299
0 0.207254 -0.178565
0 -0.00868617 0.00748382
0 -0.219357 0.188993
0 -0.296969 0.255862
0 -0.194444 0.167528
0 0.0260289 -0.022426
0 0.230712 -0.198777
0 0.198812 0
0 0.150385 0
0 -0.00630275 0
0 -0.159167 0
0 -0.215483 0
0 -0.14109 0
0 0.0188868 0
0 0.154192 0
0.0620855 0.0782153 0.287678
0.152253 0.055921 0.205425
0.14855 -0.00234449 -0.00861239
0.0547268 -0.0592045 -0.217485
-0.0722935 -0.0801519 -0.294433
-0.155462 -0.0524802 -0.192783
-0.144319 0.00701242 0.0257614
-0.0445476 0.0606611 0.223113
0.0865108 -0.0898257 0.400854
0.212153 -0.064091 0.286242
0.206992 0.00268694 -0.0120005
0.0762565 0.0678524 -0.303044
-0.100736 0.0918592 -0.410269
-0.216624 0.0601458 -0.268627
-0.201098 -0.00803776 0.0358962
-0.0620732 -0.0696657 0.310889
0.0584598 -0.20338 0.270878
0.143361 -0.145113 0.193428
0.139876 0.00608378 -0.0081094
0.0515305 0.153631 -0.204784
-0.0680721 0.207987 -0.27724
-0.146382 0.136182 -0.181524
-0.135892 -0.0181989 0.0242569
-0.041946 -0.157734 0.210083
-0.00505215 -0.193566 -0.0234095
-0.0123895 -0.138112 -0.0167162
-0.0120881 0.0057902 0.000700819
-0.00445331 0.146217 0.0176977
0.00588282 0.197953 0.0239591
0.0126506 0.129612 0.0156875
0.0117438 -0.0173208 -0.00209631
0.00362502 -0.150123 -0.0181556
-0.0654995 -0.0663381 -0.303497
-0.160624 -0.0473333 -0.216721
-0.156719 0.0019844 0.00908593
-0.0577352 0.0501115 0.229441
0.0762691 0.0678414 0.310623
0.164009 0.0444196 0.203385
0.152255 -0.00593614 -0.0271781
0.0469972 -0.0514496 -0.235382
-0.0862157 0.10113 -0.399487
-0.211403 0.0721291 -0.285231
-0.206261 -0.00302394 0.0119581
-0.075987 -0.0763621 0.301973
0.10038 -0.10338 0.408818
0.215856 -0.0676892 0.267678
0.200387 0.00904614 -0.0357698
0.0618615 0.0784329 -0.309829
-0.0546347 0.207254 -0.253154
-0.130763 0.144395 -0.176374
-0.127573 -0.00605172 0.00739198
-0.0469982 -0.152828 0.186674
0.0620848 -0.2069 0.252722
0.133508 -0.13547 0.165472
0.123947 0.0181345 -0.0221507
0.0392015 0.160739 -0.196337
0 -0.00833237 0
0 -0.00630275 0
0 0.000264153 0
0 0.00667083 0
0 0.00903106 0
0 0.00591318 0
0 -0.000791561 0
0 -0.0064623 0
0.0865108 -0.00327807 0.109602
0.212153 -0.00234449 0.0782251
0.206992 9.82942e-05 -0.00327954
0.0762565 0.00248218 -0.0828163
-0.100736 0.00336041 -0.112117
-0.216624 0.00220027 -0.0734105
-0.201098 -0.000293987 0.00981009
-0.0620732 -0.00254236 0.0850036
0.120545 0.00376467 0.152721
0.295615 0.00268694 0.109
0.288424 -0.000112648 -0.00456972
0.106257 -0.00284465 -0.115397
-0.140367 -0.00385114 -0.156228
-0.301844 -0.00252158 -0.102292
-0.280212 0.000336965 0.0136695
-0.0864936 0.00291975 0.118445
0.0814586 0.00852381 0.103201
0.199763 0.00608378 0.0736563
0.194904 -0.000255059 -0.00308802
0.0718028 -0.00644089 -0.0779804
-0.0948522 -0.00871982 -0.105571
-0.203973 -0.00570931 -0.069124
-0.189353 0.000762954 0.00923715
-0.0584482 0.00661077 0.0800394
-0.00703973 0.00811252 -0.00891876
-0.0172637 0.0057902 -0.0063655
-0.0168438 -0.000242751 0.000266869
-0.00620532 -0.00613011 0.00673915
0.00819725 -0.00829904 0.00912349
0.0176276 -0.00543384 0.00597372
0.0163641 0.000726136 -0.000798289
0.00505115 0.00629179 -0.00691709
-0.0912679 0.00278028 -0.115629
-0.223815 0.0019844 -0.0825259
-0.218375 -8.31947e-05 0.00345988
-0.0804491 -0.00210089 0.0873695
0.106275 -0.00284419 0.118283
0.228532 -0.00186226 0.0774476
0.212156 0.00024886 -0.0103495
0.0654865 0.00215629 -0.0896778
-0.120134 -0.00423844 -0.1522
-0.29457 -0.00302394 -0.108614
-0.287405 0.000126775 0.00455358
-0.105882 0.00320141 0.114989
0.13987 0.00433413 0.155675
0.300777 0.0028378 0.10193
0.279221 -0.000379239 -0.0136213
0.0861987 -0.00328718 -0.118041
-0.0761287 -0.00868617 -0.0964487
-0.182207 -0.00605172 -0.0671965
-0.177762 0.000253632 0.00281626
-0.0654879 0.00640513 0.0711207
0.0865098 0.00867136 0.0962843
0.186032 0.00567766 0.0630431
0.172709 -0.000760033 -0.00843919
0.0546239 -0.0067367 -0.0748024
0 -0.210422 0
0 -0.159167 0
0 0.00667083 0
0 0.168462 0
0 0.228067 0
0 0.149329 0
0 -0.0199898 0
0 -0.163196 0
0.0584598 -0.082783 -0.134957
0.143361 -0.0592045 -0.0963203
0.139876 0.00248218 0.00403817
0.0515305 0.062681 0.101974
-0.0680721 0.0848585 0.138054
-0.146382 0.0555619 0.0903917
-0.135892 -0.00742395 -0.0120794
-0.041946 -0.0642036 -0.104668
0.0814586 0.0950715 -0.188051
0.199763 0.0678524 -0.134214
0.194904 -0.00284465 0.00562679
0.0718028 -0.0718347 0.142093
-0.0948522 -0.0972517 0.192366
-0.203973 -0.0636764 0.125953
-0.189353 0.00850929 -0.0168316
-0.0584482 0.0737342 -0.145846
0.0550458 0.215257 -0.127076
0.13499 0.153631 -0.0906947
0.131707 -0.00644089 0.00380231
0.0485212 -0.162648 0.0960187
-0.0640966 -0.220198 0.129992
-0.137835 -0.144175 0.0851131
-0.127955 0.0192666 -0.0113739
-0.0394964 0.166946 -0.0985555
-0.00475711 0.20487 0.010982
-0.0116659 0.146217 0.00783796
-0.0113821 -0.00613011 -0.0003286
-0.00419326 -0.154801 -0.00829806
0.00553924 -0.209572 -0.0112339
0.0119117 -0.13722 -0.00735554
0.0110579 0.0183369 0.000982946
0.00341332 0.15889 0.00851726
-0.0616744 0.0702122 0.142378
-0.151245 0.0501115 0.101617
-0.147566 -0.00210089 -0.00426022
-0.0543643 -0.0530529 -0.107582
0.0718146 -0.0718231 -0.145644
0.154432 -0.0470271 -0.0953625
0.143363 0.00628439 0.0127436
0.0442526 0.0544542 0.110424
-0.0811808 -0.107036 0.18741
-0.199057 -0.0763621 0.13374
-0.194215 0.00320141 -0.0056069
-0.0715491 0.0808434 -0.14159
0.094517 0.109448 -0.191686
0.203252 0.0716616 -0.125508
0.188683 -0.00957681 0.0167723
0.0582489 -0.0830132 0.145348
-0.051444 -0.219357 0.118761
-0.123127 -0.152828 0.0827415
-0.120123 0.00640513 -0.00346776
-0.0442535 0.161753 -0.0875735
0.0584591 0.218983 -0.118558
0.125711 0.143381 -0.0776273
0.116709 -0.0191936 0.0103915
0.0369121 -0.170126 0.0921069
0 -0.284873 0
0 -0.215483 0
0 0.00903106 0
0 0.228067 0
0 0.30876 0
0 0.202164 0
0 -0.0270624 0
0 -0.220938 0
-0.00505215 -0.112073 -0.297653
-0.0123895 -0.0801519 -0.212438
-0.0120881 0.00336041 0.00890633
-0.00445331 0.0848585 0.224905
0.00588282 0.114882 0.304483
0.0126506 0.0752207 0.199364
0.0117438 -0.0100507 -0.0266416
0.00362502 -0.0869199 -0.230849
-0.00703973 0.128709 -0.414753
-0.0172637 0.0918592 -0.296012
-0.0168438 -0.00385114 0.0124102
-0.00620532 -0.0972517 0.31339
0.00819725 -0.131661 0.424272
0.0176276 -0.086206 0.277797
0.0163641 0.0115199 -0.0371226
0.00505115 0.0998224 -0.321669
-0.00475711 0.291418 -0.28027
-0.0116659 0.207987 -0.200032
-0.0113821 -0.00871982 0.00838624
-0.00419326 -0.220198 0.211774
0.00553924 -0.298105 0.2867
0.0119117 -0.195188 0.18772
0.0110579 0.0260835 -0.0250857
0.00341332 0.226014 -0.217368
0.000411114 0.277357 0.0242212
0.00100818 0.197953 0.017287
0.000983661 -0.00829904 -0.000724738
0.000362382 -0.209572 -0.0183016
-0.00047871 -0.283723 -0.0247771
-0.00102943 -0.185768 -0.0162231
-0.000955644 0.0248249 0.00216793
-0.000294983 0.215108 0.0187852
0.00532996 0.0950543 0.31402
0.0130708 0.0678414 0.224117
0.0127529 -0.00284419 -0.00939603
0.00469818 -0.0718231 -0.237272
-0.00620635 -0.097236 -0.321223
-0.0133462 -0.0636661 -0.210327
-0.0123897 0.0085079 0.0281062
-0.00382435 0.0737209 0.243543
0.00701573 -0.144907 0.413339
0.0172027 -0.10338 0.294967
0.0167843 0.00433413 -0.0123664
0.0061834 0.109448 -0.312281
-0.00816829 0.148172 -0.422773
-0.0175652 0.0970174 -0.276815
-0.0163063 -0.0129652 0.0369919
-0.00503392 -0.112385 0.320572
0.00444584 -0.296969 0.261932
0.0106407 -0.2069 0.18249
0.0103811 0.00867136 -0.00764829
0.00382443 0.218983 -0.193147
-0.00505209 0.296463 -0.261485
-0.0108641 0.194112 -0.17121
-0.0100861 -0.0259845 0.0229188
-0.00318998 -0.230319 0.203145
0 -0.186523 0
0 -0.14109 0
0 0.00591318 0
0 0.149329 0
0 0.202164 0
0 0.132369 0
0 -0.0177194 0
0 -0.144661 0
-0.0654995 -0.0733808 -0.279796
-0.160624 -0.0524802 -0.199694
-0.156719 0.00220027 0.00837206
-0.0577352 0.0555619 0.211416
0.0762691 0.0752207 0.286216
0.164009 0.0492517 0.187403
0.152255 -0.00658078 -0.0250433
0.0469972 -0.0569117 -0.217001
-0.0912679 0.0842737 -0.389872
-0.223815 0.0601458 -0.278256
-0.218375 -0.00252158 0.0116656
-0.0804491 -0.0636764 0.294588
0.106275 -0.086206 0.39882
0.228532 -0.0564439 0.261132
0.212156 0.00754281 -0.0348957
0.0654865 0.0653597 -0.302372
-0.0616744 0.190809 -0.263457
-0.151245 0.136182 -0.188032
-0.147566 -0.00570931 0.00788309
-0.0543643 -0.144175 0.199069
0.0718146 -0.195188 0.269503
0.154432 -0.127801 0.176458
0.143363 0.0170784 -0.0235807
0.0442526 0.147985 -0.204328
0.00532996 0.181602 0.0227682
0.0130708 0.129612 0.0162499
0.0127529 -0.00543384 -0.000681261
0.00469818 -0.13722 -0.0172038
-0.00620635 -0.185769 -0.0232905
-0.0133462 -0.121634 -0.0152497
-0.0123897 0.0162544 0.00203788
-0.00382435 0.140844 0.0176582
0.0691012 0.0622378 0.295182
0.169457 0.0444196 0.210674
0.165336 -0.00186226 -0.00883244
0.06091 -0.0470271 -0.223039
-0.0804624 -0.0636661 -0.301955
-0.173028 -0.0416859 -0.197709
-0.160626 0.0055706 0.0264204
-0.0495815 0.0482695 0.228933
0.0909566 -0.0948791 0.388542
0.223025 -0.0676892 0.277272
0.217602 0.0028378 -0.0116244
0.0801648 0.0716616 -0.293547
-0.105899 0.0970174 -0.397411
-0.227724 0.063523 -0.260209
-0.211406 -0.00848912 0.0347727
-0.0652632 -0.073585 0.30134
0.0576389 -0.194444 0.246218
0.137954 -0.13547 0.171542
0.134588 0.00567766 -0.00718946
0.0495825 0.143381 -0.18156
-0.0654988 0.194112 -0.245798
-0.140849 0.127097 -0.160939
-0.130763 -0.0170136 0.0215439
-0.0413571 -0.150804 0.190958
0 0.0249687 0
0 0.0188868 0
0 -0.00079156 0
0 -0.0199897 0
0 -0.0270624 0
0 -0.0177194 0
0 0.00237198 0
0 0.0193649 0
-0.0862157 0.00982303 -0.0922193
-0.211403 0.00701228 -0.0658385
-0.206261 -0.000293981 0.00276025
-0.075987 -0.0074238 0.0697039
0.10038 -0.0100505 0.0943653
0.215856 -0.00658065 0.0617868
0.200387 0.000879453 -0.00825649
0.0618615 0.00761841 -0.0715221
-0.120134 -0.0112812 -0.1285
-0.29457 -0.0080376 -0.0917401
-0.287405 0.000336958 0.00384617
-0.105882 0.00850912 0.0971258
0.13987 0.0115197 0.131491
0.300777 0.00754266 0.086095
0.279221 -0.00100814 -0.0115047
0.0861987 -0.0087493 -0.0996599
-0.0811808 -0.0255424 -0.0868337
-0.199057 -0.0181986 -0.0619937
-0.194215 0.000762938 0.00259906
-0.0715492 0.0192663 0.0656329
0.094517 0.026083 0.0888545
0.203252 0.0170781 0.0581786
0.188683 -0.0022826 -0.00777429
0.0582489 -0.0198098 -0.0673453
0.00701573 -0.0243099 0.00750426
0.0172027 -0.0173205 0.00535756
0.0167843 0.000726122 -0.000224613
0.0061834 0.0183366 -0.00567204
-0.00816829 0.0248244 -0.00767891
-0.0175652 0.0162541 -0.00502784
-0.0163063 -0.00217248 0.000671867
-0.00503392 -0.0188539 0.00582005
0.0909566 -0.00833138 0.0972903
0.223025 -0.00593602 0.069459
0.217602 0.000248855 -0.00291202
0.0801648 0.00628427 -0.0735364
-0.105899 0.00850773 -0.0995548
-0.227724 0.0055705 -0.0651845
-0.211406 -0.000744542 0.0087105
-0.0652632 -0.00646153 0.075455
0.119724 0.0127009 0.128061
0.293529 0.00904596 0.091416
0.286389 -0.000379232 -0.00383258
0.105508 -0.00957662 -0.0967824
-0.139375 -0.0129649 -0.131026
-0.299715 -0.00848896 -0.0857903
-0.278233 0.00113465 0.0114641
-0.0859047 0.00985036 0.09932
0.075869 0.0260289 0.0811521
0.181586 0.0181345 0.0565392
0.177155 -0.000760033 -0.0023696
0.0652645 -0.0191936 -0.0598411
-0.0862148 -0.0259845 -0.0810137
-0.185397 -0.0170136 -0.0530446
-0.17212 0.00227751 0.00710074
-0.0544376 0.0201872 0.0629388
0 0.221315 0
0 0.154192 0
0 -0.0064623 0
0 -0.163196 0
0 -0.220938 0
0 -0.144661 0
0 0.0193649 0
0 0.171644 0
-0.0546347 0.0870683 0.151297
-0.130763 0.0606611 0.105409
-0.127573 -0.00254236 -0.0044178
-0.0469982 -0.0642037 -0.111565
0.0620848 -0.0869199 -0.151039
0.133508 -0.0569117 -0.0988942
0.123947 0.00761841 0.0132383
0.0392015 0.0675272 0.117341
-0.0761287 -0.0999929 0.210819
-0.182207 -0.0696658 0.146879
-0.177761 0.00291975 -0.00615582
-0.0654879 0.0737342 -0.155457
0.0865098 0.0998224 -0.210459
0.186032 0.0653597 -0.1378
0.172709 -0.0087493 0.0184465
0.0546239 -0.0775511 0.163504
-0.051444 -0.2264 0.142461
-0.123127 -0.157734 0.0992536
-0.120123 0.00661077 -0.0041598
-0.0442535 0.166946 -0.10505
0.0584591 0.226014 -0.142218
0.125711 0.147985 -0.0931188
0.116709 -0.0198098 0.0124652
0.0369121 -0.175588 0.110488
0.00444584 -0.215476 -0.0123116
0.0106407 -0.150123 -0.0085776
0.0103811 0.00629179 0.000359494
0.00382443 0.15889 0.00907852
-0.00505209 0.215108 0.0122906
-0.0108641 0.140844 0.00804742
-0.0100861 -0.0188539 -0.00107726
-0.00318998 -0.167116 -0.00954848
0.0576389 -0.0738468 -0.159616
0.137954 -0.0514496 -0.111206
0.134588 0.00215629 0.00466073
0.0495825 0.0544542 0.1177
-0.0654987 0.0737209 0.159344
-0.140849 0.0482695 0.104332
-0.130763 -0.00646153 -0.0139663
-0.0413571 -0.057273 -0.123793
0.075869 0.112577 -0.2101
0.181586 0.0784329 -0.146378
0.177155 -0.00328719 0.00613482
0.0652645 -0.0830133 0.154926
-0.0862147 -0.112385 0.209742
-0.185397 -0.073585 0.13733
-0.17212 0.00985036 -0.0183836
-0.0544376 0.0873105 -0.162946
0.048078 0.230712 -0.13314
0.115071 0.160739 -0.0927594
0.112263 -0.0067367 0.00388762
0.041358 -0.170126 0.0981764
-0.054634 -0.230319 0.132913
-0.117486 -0.150804 0.087026
-0.109072 0.0201872 -0.0116496
-0.0344969 0.178933 -0.103259
