# vtk DataFile Version 3.0
Velocity field
ASCII
DATASET STRUCTURED_POINTS
DIMENSIONS 5 5 5
SPACING 1.33333 1.33333 1.33333
ORIGIN 0 0 0
POINT_DATA 125
VECTORS velocity float
0 0.285562 0
0 0.067175 0
0 -0.253958 0
0 -0.186656 0
0 0.166141 0
0 -0.151212 0.495936
0 -0.0355708 0.134451
0 0.134477 -0.508298
0 0.098839 -0.373592
0 -0.0879759 0.288538
0 -0.356704 0.233326
0 -0.0839102 0.0632558
0 0.317226 -0.239142
0 0.233157 -0.175766
0 -0.207532 0.13575
0 -0.0166081 -0.386162
0 -0.00390684 -0.104691
0 0.01477 0.395788
0 0.0108558 0.290899
0 -0.00966264 -0.224671
0 0.34889 -0.415006
0 0.0820721 -0.0976249
0 -0.310278 0.369076
0 -0.22805 0.271266
0 0.202986 -0.241452
0 0.067175 0
0 0.0201073 0
0 -0.0760165 0
0 -0.0558712 0
0 0.0390826 0
0.212259 -0.0355708 0.174164
0.321964 -0.00860404 0.0423246
-0.0674814 0.0325415 -0.160088
-0.353726 0.0239196 -0.117674
-0.095911 -0.0206952 0.101329
0.0998626 -0.0839102 0.0819399
0.151476 -0.0203442 0.0199127
-0.0317484 0.0769469 -0.0753176
-0.166419 0.05656 -0.0553628
-0.0451237 -0.0488192 0.0476729
-0.165276 -0.00390684 -0.135614
-0.250669 -0.000949282 -0.0329523
0.0525385 0.0035906 0.124638
0.275397 0.00263931 0.0916165
0.0746814 -0.00227301 -0.0789004
-0.177621 0.0820721 -0.145743
-0.261187 0.0193064 -0.0342842
0.0547389 -0.0729889 0.129613
0.28694 -0.0536459 0.0952638
0.0802595 0.0477499 -0.0847936
0 -0.253958 0
0 -0.0760166 0
0 0.287384 0
0 0.211224 0
0 -0.147754 0
0.0998626 0.134477 -0.413997
0.151476 0.0325415 -0.10042
-0.0317484 -0.123077 0.379816
-0.166419 -0.090468 0.279186
-0.0451237 0.0782393 -0.240865
0.0469829 0.317226 -0.194775
0.0712656 0.0769469 -0.047245
-0.0149368 -0.291035 0.178694
-0.0782958 -0.213927 0.13135
-0.0212296 0.184563 -0.113321
-0.0777583 0.01477 0.32236
-0.117934 0.0035906 0.0781832
0.0247181 -0.0135814 -0.29571
0.129567 -0.00998313 -0.217363
0.0351357 0.00859323 0.18755
-0.0835662 -0.310278 0.346437
-0.122882 -0.0729889 0.0814951
0.0257533 0.275938 -0.308096
0.134998 0.202811 -0.226447
0.0377601 -0.180521 0.201558
0 -0.186656 0
0 -0.0558712 0
0 0.211224 0
0 0.155247 0
0 -0.108597 0
-0.165276 0.098839 -0.368939
-0.250669 0.0239197 -0.0894969
0.0525385 -0.0904683 0.338502
0.275397 -0.0664987 0.248818
0.0746814 0.0575049 -0.21465
-0.0777583 0.233157 -0.173577
-0.117934 0.0565602 -0.042106
0.0247181 -0.213927 0.159257
0.129567 -0.157249 0.117063
0.0351357 0.135652 -0.100988
0.128693 0.0108558 0.287276
0.195163 0.00263932 0.0696791
-0.0409045 -0.00998317 -0.263546
-0.214414 -0.00733827 -0.193721
-0.0581509 0.00631591 0.167138
0.138305 -0.22805 0.308733
0.203374 -0.0536459 0.0726256
-0.0426226 0.202811 -0.274564
-0.223427 0.149063 -0.201801
-0.0624943 -0.13268 0.179622
0 0.166141 0
0 0.0390826 0
0 -0.147754 0
0 -0.108597 0
0 0.0966615 0
-0.177621 -0.0879759 0.24042
-0.261187 -0.0206952 0.0565557
0.0547389 0.0782393 -0.213812
0.28694 0.0575049 -0.157149
0.0802595 -0.0511847 0.139877
-0.0835662 -0.207532 0.113111
-0.122882 -0.0488192 0.0266081
0.0257533 0.184563 -0.100593
0.134998 0.135652 -0.0739346
0.0377601 -0.120743 0.0658087
0.138305 -0.00966264 -0.187204
0.203374 -0.00227301 -0.0440373
-0.0426226 0.00859324 0.166485
-0.223427 0.00631592 0.122364
-0.0624943 -0.00562175 -0.108916
0.148635 0.202986 -0.201186
0.218565 0.0477499 -0.0473265
-0.0458062 -0.180521 0.17892
-0.240115 -0.13268 0.131504
-0.0671621 0.118098 -0.117051
