# vtk DataFile Version 3.0
Velocity field
ASCII
DATASET STRUCTURED_POINTS
DIMENSIONS 8 8 8
SPACING 0.8 0.8 0.8
ORIGIN 0 0 0
POINT_DATA 512
VECTORS velocity float
0 0.386055 0
0 0.268967 0
0 -0.0112726 0
0 -0.284674 0
0 -0.385397 0
0 -0.252342 0
0 0.0337795 0
0 0.299411 0
0 0.151879 0.394027
0 0.105815 0.291057
0 -0.0044348 -0.0121984
0 -0.111995 -0.308055
0 -0.15162 -0.417049
0 -0.0992749 -0.273067
0 0.0132893 0.0365538
0 0.117792 0.305594
0 -0.174424 0.549042
0 -0.121523 0.405563
0 0.00509311 -0.0169975
0 0.128619 -0.429248
0 0.174127 -0.581122
0 0.114011 -0.380496
0 -0.015262 0.0509346
0 -0.135278 0.425818
0 -0.394925 0.371016
0 -0.275147 0.27406
0 0.0115316 -0.0114861
0 0.291215 -0.290065
0 0.394251 -0.392694
0 0.25814 -0.25712
0 -0.0345556 0.0344191
0 -0.30629 0.287747
0 -0.375869 -0.0320636
0 -0.26187 -0.0236845
0 0.0109752 0.000992637
0 0.277163 0.0250677
0 0.375228 0.033937
0 0.245684 0.0222206
0 -0.0328882 -0.00297453
0 -0.291511 -0.0248674
0 -0.128816 -0.415694
0 -0.0897469 -0.307062
0 0.00376137 0.0128692
0 0.0949881 0.324994
0 0.128596 0.439982
0 0.0841997 0.288083
0 -0.0112713 -0.0385638
0 -0.0999052 -0.322398
0 0.196375 -0.54717
0 0.136816 -0.40418
0 -0.00573406 0.0169395
0 -0.144806 0.427784
0 -0.19604 0.57914
0 -0.128359 0.379198
0 0.0171826 -0.0507609
0 0.152302 -0.424366
0 0.402447 -0.34674
0 0.280388 -0.241576
0 -0.0117513 0.0101246
0 -0.296762 0.255684
0 -0.401761 0.346149
0 -0.263057 0.226644
0 0.0352138 -0.0303395
0 0.312124 -0.26892
0 0.268967 0
0 0.203451 0
0 -0.00852681 0
0 -0.215333 0
0 -0.291521 0
0 -0.190876 0
0 0.0255514 0
0 0.208602 0
0.0839937 0.105815 0.389191
0.207822 0.0763346 0.280372
0.202782 -0.00320134 -0.0117583
0.0747052 -0.0808367 -0.296905
-0.0986859 -0.109438 -0.401957
-0.212217 -0.0716558 -0.263185
-0.196995 0.00956011 0.0351159
-0.0602672 0.0820667 0.301843
0.117038 -0.121523 0.542304
0.28958 -0.0874458 0.390678
0.282556 0.00366713 -0.016384
0.104096 0.0925997 -0.413714
-0.13751 0.125362 -0.560089
-0.295704 0.0820822 -0.366726
-0.274495 -0.0109534 0.0489312
-0.0839771 -0.0942488 0.420593
0.0790885 -0.275147 0.366463
0.195685 -0.197993 0.264001
0.19094 0.00830328 -0.0110715
0.0703422 0.209666 -0.279566
-0.092923 0.283846 -0.378483
-0.199823 0.185854 -0.247813
-0.185492 -0.0248008 0.0330653
-0.0567476 -0.213394 0.284216
-0.00683491 -0.26187 -0.0316701
-0.0169112 -0.188442 -0.0228152
-0.0165011 0.00790256 0.000956805
-0.00607908 0.199548 0.0241605
0.00803045 0.270152 0.0327087
0.0172688 0.176886 0.0214164
0.0160302 -0.0236041 -0.00285753
0.00490419 -0.203098 -0.0245622
-0.0886124 -0.0897469 -0.410592
-0.219247 -0.0645826 -0.29579
-0.213933 0.00270837 0.0124048
-0.078812 0.068389 0.313227
0.104113 0.0925863 0.42406
0.223881 0.0606214 0.277656
0.207828 -0.00808954 -0.037047
0.0635812 -0.0696047 -0.318441
-0.116639 0.136816 -0.540455
-0.288527 0.0983819 -0.389259
-0.281528 -0.00412572 0.0163243
-0.103717 -0.104179 0.412207
0.137009 -0.141038 0.558048
0.294625 -0.0923475 0.365391
0.273496 0.0123243 -0.0487546
0.0836907 0.10611 -0.419158
-0.0739137 0.280388 -0.342485
-0.176906 0.195348 -0.238611
-0.17259 -0.00818719 0.0100004
-0.0635825 -0.206756 0.252546
0.0839928 -0.27991 0.341901
0.180619 -0.183274 0.223863
0.167684 0.0245337 -0.0299671
0.0530346 0.217459 -0.265619
0 -0.0112726 0
0 -0.00852681 0
0 0.000357366 0
0 0.00902477 0
0 0.0122179 0
0 0.00799978 0
0 -0.00107088 0
0 -0.00874266 0
0.117038 -0.0044348 0.148277
0.28958 -0.00320134 0.106758
0.282556 0.000134262 -0.00447708
0.104096 0.00339024 -0.11305
-0.13751 0.00458969 -0.153049
-0.295704 0.00300519 -0.100212
-0.274495 -0.000400901 0.0133715
-0.0839771 -0.00343948 0.114999
0.163082 0.00509311 0.206612
0.403507 0.00366713 0.148756
0.393719 -0.000153789 -0.00623845
0.145047 -0.00388332 -0.157525
-0.19161 -0.00525733 -0.213264
-0.412039 -0.00344232 -0.139636
-0.382488 0.000459308 0.0186319
-0.117015 0.00395004 0.160241
0.110203 0.0115316 0.139618
0.272669 0.00830328 0.100522
0.266057 -0.000348216 -0.00421566
0.0980161 -0.00879277 -0.10645
-0.12948 -0.0119039 -0.144112
-0.278434 -0.00779408 -0.0943598
-0.258465 0.00103998 0.0125906
-0.0790729 0.00894353 0.108283
-0.00952386 0.0109752 -0.0120659
-0.0235644 0.00790256 -0.00868723
-0.0229929 -0.000331413 0.000364321
-0.00847062 -0.00836857 0.00919939
0.0111898 -0.0113294 0.0124543
0.0240627 -0.00741801 0.00815461
0.0223369 0.000989792 -0.00108809
0.00683356 0.00851199 -0.00935793
-0.123474 0.00376137 -0.156431
-0.3055 0.00270837 -0.112626
-0.298094 -0.000113581 0.00472327
-0.109819 -0.00286806 0.119266
0.145071 -0.00388276 0.161464
0.311959 -0.00254229 0.105723
0.289589 0.00033922 -0.0141066
0.0885949 0.00291719 -0.121323
-0.162526 -0.00573406 -0.205907
-0.402039 -0.00412572 -0.148215
-0.392286 0.000173018 0.00621575
-0.144519 0.00436888 0.156952
0.190912 0.00591468 0.212486
0.410539 0.00387268 0.139128
0.381096 -0.000516793 -0.0185646
0.116616 -0.00444714 -0.159695
-0.102992 -0.0117513 -0.130483
-0.246503 -0.00818719 -0.0909082
-0.240489 0.000343132 0.00381004
-0.0885967 0.00866532 0.0962172
0.117037 0.0117312 0.13026
0.251677 0.00768115 0.0852892
0.233654 -0.00102823 -0.0114171
0.0738991 -0.00911389 -0.101198
0 -0.284674 0
0 -0.215333 0
0 0.00902477 0
0 0.227908 0
0 0.308545 0
0 0.202023 0
0 -0.0270436 0
0 -0.220784 0
0.0790885 -0.111995 -0.182579
0.195685 -0.0808367 -0.131452
0.19094 0.00339024 0.00551271
0.0703422 0.0856052 0.139201
-0.092923 0.115894 0.188453
-0.199823 0.0758825 0.12339
-0.185492 -0.0101232 -0.0164645
-0.0567476 -0.0868593 -0.141602
0.110203 0.128619 -0.254409
0.272669 0.0925997 -0.183167
0.266057 -0.00388332 0.00768141
0.0980161 -0.0980585 0.193966
-0.12948 -0.132754 0.262593
-0.278434 -0.0869216 0.171935
-0.258465 0.0115982 -0.0229418
-0.0790729 0.0997529 -0.197311
0.0744698 0.291215 -0.171917
0.184257 0.209666 -0.123774
0.179788 -0.00879277 0.00519073
0.0662347 -0.222025 0.131072
-0.087496 -0.300583 0.177447
-0.188154 -0.19681 0.116184
-0.174658 0.026261 -0.0155029
-0.0534336 0.225856 -0.133333
-0.00643576 0.277163 0.0148572
-0.0159236 0.199548 0.0106967
-0.0155373 -0.00836857 -0.000448589
-0.00572407 -0.211315 -0.0113274
0.0075614 -0.286078 -0.015335
0.0162603 -0.187315 -0.0100408
0.015094 0.0249938 0.00133978
0.00461779 0.214958 0.0115228
-0.0834375 0.0949881 0.192619
-0.206445 0.068389 0.138679
-0.201438 -0.00286806 -0.00581584
-0.0742103 -0.0724208 -0.146855
0.0980321 -0.0980444 -0.198815
0.210811 -0.0641957 -0.130176
0.19569 0.00856579 0.0173698
0.0598681 0.0736695 0.149389
-0.109827 -0.144806 0.253541
-0.271677 -0.104179 0.182501
-0.265088 0.00436888 -0.00765345
-0.0976593 0.110318 -0.19326
0.129008 0.149351 -0.261637
0.27742 0.0977893 -0.171309
0.257524 -0.0130498 0.0228591
0.0788032 -0.112306 0.196638
-0.0695972 -0.296762 0.160668
-0.166575 -0.206756 0.111939
-0.16251 0.00866532 -0.00469144
-0.0598693 0.218831 -0.118476
0.0790877 0.296256 -0.160394
0.170071 0.193977 -0.10502
0.157892 -0.0259664 0.0140583
0.0499374 -0.230159 0.124609
0 -0.385397 0
0 -0.291521 0
0 0.0122179 0
0 0.308545 0
0 0.417713 0
0 0.273502 0
0 -0.036612 0
0 -0.2989 0
-0.00683491 -0.15162 -0.402686
-0.0169112 -0.109438 -0.28992
-0.0165011 0.00458969 0.0121585
-0.00607908 0.115894 0.307009
0.00803045 0.156897 0.415642
0.0172688 0.102732 0.272144
0.0160302 -0.013705 -0.036313
0.00490419 -0.117591 -0.31231
-0.00952386 0.174127 -0.561108
-0.0235644 0.125362 -0.403979
-0.0229929 -0.00525733 0.0169418
-0.00847062 -0.132754 0.427801
0.0111898 -0.179724 0.579156
0.0240627 -0.117675 0.379213
0.0223369 0.0157018 -0.0505992
0.00683356 0.135047 -0.435176
-0.00643576 0.394251 -0.379169
-0.0159236 0.283846 -0.27299
-0.0155373 -0.0119039 0.0114485
-0.00572407 -0.300583 0.289084
0.0075614 -0.406935 0.391366
0.0162603 -0.266445 0.256251
0.015094 0.0355523 -0.0341923
0.00461779 0.305768 -0.294071
0.000556185 0.375228 0.0327682
0.00137614 0.270152 0.0235921
0.00134276 -0.0113294 -0.000989377
0.000494674 -0.286078 -0.0249829
-0.00065347 -0.387301 -0.0338222
-0.00140524 -0.253587 -0.0221456
-0.00130445 0.0338369 0.00295494
-0.000399074 0.291014 0.0254139
0.00721075 0.128596 0.424829
0.0178411 0.0925863 0.30586
0.0174084 -0.00388276 -0.0128271
0.00641335 -0.0980444 -0.323891
-0.00847201 -0.132735 -0.438493
-0.0182183 -0.0869091 -0.287108
-0.0169117 0.0115965 0.0383095
-0.00517386 0.0997349 0.329483
0.00949138 -0.19604 0.559195
0.0234787 -0.141038 0.402511
0.0229092 0.00591468 -0.0168801
0.0084398 0.149351 -0.42624
-0.0111491 0.202194 -0.577049
-0.0239751 0.132389 -0.377832
-0.0222556 -0.0176669 0.0504167
-0.00681025 -0.152042 0.433692
0.00601466 -0.401761 0.35436
0.0143956 -0.27991 0.246885
0.0140443 0.0117312 -0.0103472
0.00517397 0.296256 -0.261303
-0.00683483 0.401076 -0.353756
-0.0146977 0.262609 -0.231625
-0.0136452 -0.0351538 0.0310062
-0.00431564 -0.311592 0.274829
0 -0.252342 0
0 -0.190876 0
0 0.00799978 0
0 0.202023 0
0 0.273502 0
0 0.179078 0
0 -0.0239721 0
0 -0.195708 0
-0.0886124 -0.0992749 -0.378529
-0.219247 -0.0716558 -0.272529
-0.213933 0.00300519 0.0114291
-0.078812 0.0758825 0.288595
0.104113 0.102732 0.390706
0.223881 0.0672647 0.255818
0.207828 -0.00897353 -0.0341345
0.0635812 -0.0769942 -0.293574
-0.123474 0.114011 -0.527447
-0.3055 0.0820822 -0.379748
-0.298094 -0.00344232 0.0159254
-0.109819 -0.0869216 0.402135
0.145071 -0.117675 0.544413
0.311959 -0.0770488 0.356462
0.289589 0.010281 -0.0475637
0.0885949 0.0884233 -0.40907
-0.0834375 0.25814 -0.356423
-0.206445 0.185854 -0.256613
-0.201438 -0.00779408 0.0107616
-0.0742103 -0.19681 0.271742
0.0980321 -0.266445 0.367889
0.210811 -0.174458 0.240877
0.19569 0.0232784 -0.0321412
0.0598681 0.200204 -0.276429
0.00721075 0.245684 0.0308024
0.0178411 0.176886 0.0221769
0.0174084 -0.00741801 -0.000930023
0.00641335 -0.187315 -0.0234843
-0.00847201 -0.253587 -0.0317931
-0.0182183 -0.166038 -0.0208169
-0.0169117 0.0221551 0.00277767
-0.00517386 0.190544 0.0238893
0.0934851 0.0841997 0.399343
0.231301 0.0606214 0.287513
0.225691 -0.00254229 -0.0120576
0.0831458 -0.0641957 -0.304462
-0.109837 -0.0869091 -0.412191
-0.236192 -0.0569042 -0.269885
-0.219254 0.00759291 0.0360115
-0.0670774 0.0653024 0.309717
0.123053 -0.128359 0.525648
0.304388 -0.0923475 0.378366
0.297007 0.00387268 -0.0158674
0.109419 0.0977893 -0.400671
-0.144543 0.132389 -0.542432
-0.310823 0.0866835 -0.355165
-0.288535 -0.0115677 0.047392
-0.0882927 -0.099551 0.407675
0.0779781 -0.263057 0.333102
0.186634 -0.183274 0.232074
0.18208 0.00768115 -0.00972642
0.0670788 0.193977 -0.245627
-0.0886114 0.262609 -0.332534
-0.190551 0.171946 -0.21773
-0.176905 -0.0230173 0.0291461
-0.0559508 -0.204018 0.258342
0 0.0337795 0
0 0.0255514 0
0 -0.00107088 0
0 -0.0270436 0
0 -0.036612 0
0 -0.0239721 0
0 0.00320899 0
0 0.0261982 0
-0.116639 0.0132893 -0.124761
-0.288527 0.00955987 -0.0898763
-0.281528 -0.000400891 0.00376922
-0.103717 -0.010123 0.0951767
0.137009 -0.0137047 0.128851
0.294625 -0.0089733 0.0843663
0.273496 0.00119769 -0.0112563
0.0836907 0.0103067 -0.0967603
-0.162526 -0.015262 -0.173843
-0.402039 -0.0109531 -0.125235
-0.392286 0.000459296 0.00525206
-0.144519 0.0115979 0.13262
0.190912 0.0157014 0.179543
0.410539 0.0102807 0.117558
0.381096 -0.00137244 -0.0156847
0.116616 -0.0118367 -0.134827
-0.109827 -0.0345556 -0.117475
-0.271677 -0.0248002 -0.0846274
-0.265088 0.00103995 0.00354911
-0.0976594 0.0262603 0.089618
0.129008 0.0355513 0.121326
0.27742 0.0232777 0.0794395
0.257524 -0.00310745 -0.0105989
0.0788032 -0.0268001 -0.0911095
0.00949138 -0.0328882 0.0101523
0.0234787 -0.0236035 0.0073136
0.0229092 0.000989766 -0.000306716
0.0084398 0.0249931 -0.00774487
-0.0111491 0.033836 -0.0104851
-0.0239751 0.0221545 -0.00686528
-0.0222556 -0.00295752 0.000915974
-0.00681025 -0.025507 0.00787378
0.123053 -0.0112713 0.131621
0.304388 -0.00808933 0.0948186
0.297007 0.000339211 -0.00397647
0.109419 0.00856556 -0.10041
-0.144543 0.0115962 -0.135936
-0.310823 0.00759271 -0.0890057
-0.288535 -0.0010136 0.0118753
-0.0882927 -0.00874162 0.102081
0.161972 0.0171826 0.173251
0.400577 0.012324 0.124779
0.390859 -0.00051678 -0.00523291
0.143994 -0.0130494 -0.132136
-0.190216 -0.0176664 -0.178888
-0.409046 -0.0115674 -0.117129
-0.379708 0.00154431 0.0156281
-0.116218 0.0133263 0.134367
0.102641 0.0352138 0.109788
0.245663 0.0245337 0.0764903
0.239668 -0.00102823 -0.00320577
0.0882946 -0.0259664 -0.0809573
-0.116637 -0.0351538 -0.109601
-0.250819 -0.0230173 -0.0717625
-0.232857 0.00308118 0.00960639
-0.073647 0.0273106 0.0851481
0 0.299411 0
0 0.208602 0
0 -0.00874266 0
0 -0.220784 0
0 -0.2989 0
0 -0.195708 0
0 0.0261982 0
0 0.232213 0
-0.0739137 0.117792 0.204685
-0.176906 0.0820667 0.142605
-0.172589 -0.00343948 -0.00597671
-0.0635825 -0.0868593 -0.150934
0.0839928 -0.117591 -0.204336
0.180619 -0.0769942 -0.133791
0.167684 0.0103067 0.0179098
0.0530346 0.0913557 0.158747
-0.102992 -0.135278 0.285211
-0.246503 -0.0942488 0.198708
-0.240488 0.00395004 -0.00832803
-0.0885967 0.0997529 -0.210313
0.117037 0.135047 -0.284725
0.251677 0.0884233 -0.186426
0.233654 -0.0118367 0.0249557
0.0738991 -0.104917 0.2212
-0.0695972 -0.30629 0.192732
-0.166575 -0.213394 0.134277
-0.16251 0.00894353 -0.00562768
-0.0598693 0.225856 -0.142119
0.0790877 0.305768 -0.192403
0.170071 0.200204 -0.125978
0.157892 -0.0268001 0.0168639
0.0499374 -0.237548 0.149476
0.00601466 -0.291511 -0.0166561
0.0143956 -0.203098 -0.0116044
0.0140443 0.00851199 0.000486349
0.00517397 0.214958 0.0122821
-0.00683483 0.291014 0.0166277
-0.0146977 0.190544 0.0108871
-0.0136452 -0.025507 -0.00145739
-0.00431564 -0.226086 -0.0129179
0.0779781 -0.0999052 -0.21594
0.186634 -0.0696047 -0.150447
0.18208 0.00291719 0.00630536
0.0670788 0.0736695 0.159233
-0.0886114 0.0997349 0.215572
-0.190551 0.0653024 0.141148
-0.176905 -0.00874162 -0.0188946
-0.0559508 -0.0774831 -0.167476
0.102641 0.152302 -0.284238
0.245662 0.10611 -0.198031
0.239668 -0.00444714 0.00829963
0.0882946 -0.112306 0.209596
-0.116637 -0.152042 0.283754
-0.250819 -0.099551 0.185791
-0.232857 0.0133263 -0.0248706
-0.073647 0.11812 -0.220445
0.0650434 0.312124 -0.180121
0.155676 0.217459 -0.125492
0.151877 -0.00911389 0.00525945
0.055952 -0.230159 0.13282
-0.0739129 -0.311592 0.179814
-0.158943 -0.204018 0.117735
-0.147561 0.0273106 -0.0157604
-0.0466699 0.242073 -0.139696
