# vtk DataFile Version 3.0
Velocity field
ASCII
DATASET STRUCTURED_POINTS
DIMENSIONS 5 5 5
SPACING 1.33333 1.33333 1.33333
ORIGIN 0 0 0
POINT_DATA 125
VECTORS velocity float
0 0.3083 0
0 0.0725237 0
0 -0.274179 0
0 -0.201518 0
0 0.17937 0
0 -0.163252 0.535424
0 -0.0384031 0.145156
0 0.145185 -0.54877
0 0.106709 -0.403339
0 -0.0949808 0.311512
0 -0.385106 0.251904
0 -0.0905914 0.0682924
0 0.342485 -0.258183
0 0.251722 -0.189761
0 -0.224056 0.146559
0 -0.0179305 -0.41691
0 -0.00421792 -0.113026
0 0.015946 0.427301
0 0.0117201 0.314061
0 -0.010432 -0.24256
0 0.37667 -0.448049
0 0.088607 -0.105398
0 -0.334983 0.398462
0 -0.246208 0.292865
0 0.219148 -0.260677
0 0.0725237 0
0 0.0217083 0
0 -0.0820692 0
0 -0.0603198 0
0 0.0421945 0
0.22916 -0.0384031 0.188032
0.348491 -0.00931004 0.0458143
-0.0730421 0.0352142 -0.173302
-0.382873 0.0258846 -0.127389
-0.103548 -0.022343 0.109398
0.107814 -0.0905914 0.0884642
0.163957 -0.0220172 0.0215546
-0.0343646 0.0832812 -0.0815344
-0.180132 0.0612169 -0.0599335
-0.0487166 -0.0527063 0.0514688
-0.178436 -0.00421792 -0.146411
-0.271316 -0.00102772 -0.0356686
0.0568667 0.00388762 0.134923
0.298084 0.00285769 0.0991781
0.0806277 -0.002454 -0.0851827
-0.191764 0.088607 -0.157347
-0.281984 0.0208437 -0.037014
0.0590974 -0.0788005 0.139933
0.309787 -0.0579174 0.102849
0.08665 0.0515518 -0.0915451
0 -0.274179 0
0 -0.0820692 0
0 0.310267 0
0 0.228042 0
0 -0.159518 0
0.107814 0.145185 -0.44696
0.163957 0.0352142 -0.108686
-0.0343646 -0.133196 0.411115
-0.180132 -0.097907 0.302197
-0.0487166 0.0844689 -0.260043
0.0507238 0.342485 -0.210284
0.0771372 0.0832812 -0.0511341
-0.0161677 -0.315017 0.193419
-0.0847473 -0.231559 0.142176
-0.02292 0.199259 -0.122344
-0.0839496 0.015946 0.348027
-0.127648 0.00388762 0.0846175
0.0267544 -0.0147062 -0.320072
0.140241 -0.0108102 -0.235274
0.0379333 0.00927745 0.202483
-0.09022 -0.334983 0.374022
-0.132666 -0.0788005 0.0879839
0.0278038 0.297909 -0.332627
0.145747 0.218959 -0.244477
0.0407666 -0.194894 0.217607
0 -0.201518 0
0 -0.0603198 0
0 0.228042 0
0 0.167608 0
0 -0.117244 0
-0.178436 0.106709 -0.398315
-0.271316 0.0258847 -0.0968653
0.0568667 -0.0979074 0.366401
0.298084 -0.0719678 0.269329
0.0806277 0.0620835 -0.231741
-0.0839496 0.251722 -0.187397
-0.127648 0.0612171 -0.0455726
0.0267544 -0.23156 0.172383
0.140241 -0.170212 0.126713
0.0379333 0.146453 -0.109029
0.13894 0.0117201 0.310149
0.211234 0.0028577 0.0754144
-0.0442734 -0.0108102 -0.28526
-0.232072 -0.00794635 -0.209686
-0.062781 0.00681881 0.180446
0.149317 -0.246208 0.333315
0.219567 -0.0579174 0.0784082
-0.0460163 0.218959 -0.296426
-0.241217 0.160932 -0.217869
-0.0674703 -0.143245 0.193924
0 0.17937 0
0 0.0421945 0
0 -0.159518 0
0 -0.117244 0
0 0.104358 0
-0.191764 -0.0949808 0.259563
-0.281983 -0.022343 0.0610589
0.0590973 0.0844689 -0.230836
0.309787 0.0620836 -0.169661
0.08665 -0.0552602 0.151014
-0.09022 -0.224056 0.122118
-0.132666 -0.0527064 0.0287267
0.0278038 0.199259 -0.108603
0.145747 0.146453 -0.0798215
0.0407666 -0.130357 0.0710485
0.149317 -0.010432 -0.202109
0.219567 -0.002454 -0.0475437
-0.0460163 0.00927745 0.179741
-0.241217 0.00681881 0.132107
-0.0674703 -0.00606937 -0.117588
0.16047 0.219148 -0.217205
0.235967 0.0515518 -0.0510948
-0.0494534 -0.194894 0.193166
-0.259234 -0.143245 0.141975
-0.0725097 0.127501 -0.126371
