# vtk DataFile Version 3.0
Velocity field
ASCII
DATASET STRUCTURED_POINTS
DIMENSIONS 8 8 8
SPACING 0.8 0.8 0.8
ORIGIN 0 0 0
POINT_DATA 512
VECTORS velocity float
0 0.13878 0
0 0.0966888 0
0 -0.00405231 0
0 -0.102335 0
0 -0.138543 0
0 -0.0907125 0
0 0.0121431 0
0 0.107633 0
0 0.0545978 0.141646
0 0.0380387 0.10463
0 -0.00159423 -0.00438512
0 -0.0402601 -0.11074
0 -0.0545047 -0.149922
0 -0.0356875 -0.0981628
0 0.00477727 0.0131404
0 0.0423442 0.109855
0 -0.0627025 0.197371
0 -0.0436852 0.145793
0 0.00183088 -0.00611029
0 0.0462364 -0.154307
0 0.0625955 -0.208903
0 0.0409851 -0.136781
0 -0.00548641 0.0183101
0 -0.0486299 0.153074
0 -0.141968 0.133374
0 -0.0989103 0.0985196
0 0.00414541 -0.00412904
0 0.104687 -0.104273
0 0.141726 -0.141166
0 0.0927967 -0.0924302
0 -0.0124221 0.012373
0 -0.110106 0.10344
0 -0.135118 -0.0115263
0 -0.0941377 -0.00851416
0 0.00394539 0.000356835
0 0.0996352 0.00901137
0 0.134888 0.0121997
0 0.088319 0.00798791
0 -0.0118227 -0.00106929
0 -0.104793 -0.00893939
0 -0.046307 -0.149434
0 -0.0322624 -0.110383
0 0.00135214 0.00462626
0 0.0341465 0.11683
0 0.0462281 0.158166
0 0.0302683 0.103561
0 -0.00405183 -0.013863
0 -0.0359141 -0.115896
0 0.0705933 -0.196698
0 0.0491828 -0.145295
0 -0.00206129 0.00608945
0 -0.052055 0.153781
0 -0.0704729 0.20819
0 -0.0461428 0.136315
0 0.00617685 -0.0182476
0 0.0547497 -0.152552
0 0.144673 -0.124647
0 0.100794 -0.0868422
0 -0.00422437 0.00363963
0 -0.106681 0.0919137
0 -0.144426 0.124434
0 -0.0945643 0.0814746
0 0.0126587 -0.0109065
0 0.112203 -0.0966718
0 0.0966888 0
0 0.0731371 0
0 -0.00306524 0
0 -0.0774082 0
0 -0.104796 0
0 -0.0686165 0
0 0.00918526 0
0 0.0749885 0
0.0301942 0.0380387 0.139907
0.0731273 0.0268448 0.0986602
0.0713447 -0.00112517 -0.00413523
0.0262835 -0.0284145 -0.104429
-0.0347207 -0.038468 -0.141377
-0.0746637 -0.0251873 -0.0925684
-0.0693159 0.00337019 0.0123864
-0.021665 0.0295015 0.108507
0.042073 -0.0436852 0.194949
0.101897 -0.0307945 0.137475
0.0994121 0.00129071 -0.00576208
0.0366238 0.0325949 -0.145512
-0.0483804 0.0441275 -0.196998
-0.104037 0.0288929 -0.128986
-0.096586 -0.00386617 0.0172594
-0.0301883 -0.0338807 0.151195
0.0284309 -0.0989103 0.131737
0.0688569 -0.0697237 0.0928986
0.0671781 0.0029224 -0.00389374
0.0247485 0.0738004 -0.0983307
-0.032693 0.099912 -0.133121
-0.0703037 0.0654184 -0.0871625
-0.0652678 -0.00875365 0.011663
-0.0203998 -0.0767114 0.102171
-0.00245703 -0.0941377 -0.0113848
-0.0059507 -0.0663594 -0.00802838
-0.00580562 0.00278138 0.000336501
-0.0021388 0.0702395 0.00849783
0.00282536 0.0950914 0.0115045
0.00607573 0.0622621 0.00753267
0.00564051 -0.00833127 -0.00100793
0.00176297 -0.0730099 -0.00882968
-0.0318546 -0.0322624 -0.147601
-0.0771489 -0.0227425 -0.104085
-0.0752676 0.000953223 0.00436262
-0.0277289 0.0240722 0.110172
0.0366298 0.0325892 0.149151
0.0787698 0.0213381 0.0976588
0.0731273 -0.00285526 -0.0130675
0.0228563 -0.0250216 -0.114474
-0.0419296 0.0491828 -0.194284
-0.101546 0.0346666 -0.137002
-0.0990702 -0.00145301 0.00574226
-0.0364978 -0.0366936 0.145012
0.048214 -0.0496762 0.19632
0.10368 -0.032526 0.128542
0.0962538 0.00435232 -0.0172001
0.0300853 0.0381445 -0.15068
-0.0265706 0.100794 -0.123117
-0.0635945 0.0702241 -0.0857765
-0.0620428 -0.00294315 0.00359496
-0.0228568 -0.0743251 0.0907858
0.0301939 -0.100622 0.122907
0.0649294 -0.0658836 0.0804747
0.0602795 0.00881942 -0.0107726
0.019065 0.0781727 -0.0954854
0 -0.00405231 0
0 -0.00306524 0
0 0.000128467 0
0 0.00324424 0
0 0.0043921 0
0 0.00287577 0
0 -0.000384962 0
0 -0.00314283 0
0.042073 -0.00159423 0.0533031
0.101897 -0.00112517 0.037577
0.0994121 4.71606e-05 -0.00157499
0.0366238 0.00119097 -0.0397743
-0.0483804 0.00161235 -0.0538469
-0.104037 0.0010557 -0.0352568
-0.096586 -0.000141258 0.00471768
-0.0301883 -0.00123643 0.04134
0.0586251 0.00183088 0.0742732
0.141985 0.00129071 0.0523603
0.138523 -5.40988e-05 -0.00219462
0.0510322 -0.00136618 -0.0554219
-0.0674138 -0.00184955 -0.0750308
-0.144967 -0.00121102 -0.0491275
-0.134584 0.000162046 0.00657368
-0.0420647 0.00141997 0.0576038
0.039616 0.00414541 0.0501902
0.0959464 0.0029224 0.0353825
0.0936072 -0.000122489 -0.00148302
0.0344851 -0.00309326 -0.0374513
-0.045555 -0.0041877 -0.0507021
-0.0979623 -0.00274193 -0.0331978
-0.0909452 0.000366898 0.00444218
-0.0284253 0.00321504 0.0389258
-0.00342365 0.00394539 -0.00433749
-0.00829176 0.00278138 -0.0030578
-0.00808958 -0.000116578 0.000128164
-0.00298024 -0.00294402 0.00323657
0.00393691 -0.00398565 0.00438174
0.00846598 -0.00260964 0.00286899
0.0078596 0.000349194 -0.000383899
0.00245654 0.0030599 -0.00336401
-0.0443866 0.00135214 -0.0562341
-0.1075 0.000953223 -0.0396435
-0.104879 -3.99532e-05 0.0016616
-0.0386379 -0.00100896 0.0419611
0.0510406 -0.00136594 0.0568081
0.109759 -0.00089436 0.0371954
0.101897 0.000119674 -0.00497712
0.0318483 0.00104868 -0.0436133
-0.0584252 -0.00206129 -0.0740199
-0.141496 -0.00145301 -0.0521802
-0.138046 6.09012e-05 0.00218708
-0.0508566 0.00153797 0.0552314
0.0671818 0.00208212 0.0747727
0.144468 0.00136329 0.0489583
0.134121 -0.000182422 -0.00655109
0.0419213 -0.00159867 -0.0574073
-0.0370239 -0.00422437 -0.0469062
-0.0886135 -0.00294315 -0.0326799
-0.0864513 0.00012335 0.00136964
-0.0318489 0.00311503 0.0345884
0.0420726 0.00421717 0.0468262
0.0904734 0.00276123 0.0306599
0.0839943 -0.000369629 -0.00410426
0.0265654 -0.00327628 -0.0363789
0 -0.102335 0
0 -0.0774082 0
0 0.00324424 0
0 0.0819288 0
0 0.110916 0
0 0.0726237 0
0 -0.00972168 0
0 -0.0793678 0
0.0284309 -0.0402601 -0.065634
0.0688569 -0.0284145 -0.0462699
0.0671781 0.00119097 0.00193935
0.0247485 0.030076 0.0489754
-0.032693 0.0407175 0.0663033
-0.0703037 0.0266602 0.0434128
-0.0652678 -0.00356724 -0.00580905
-0.0203998 -0.0312243 -0.0509035
0.039616 0.0462364 -0.0914553
0.0959464 0.0325949 -0.0644731
0.0936072 -0.00136618 0.00270231
0.0344851 -0.0345008 0.0682428
-0.045555 -0.0467079 0.0923882
-0.0979623 -0.0305824 0.0604919
-0.0909452 0.0040922 -0.00809438
-0.0284253 0.0358594 -0.0709296
0.0267706 0.104687 -0.0618011
0.0648355 0.0738004 -0.0435677
0.0632552 -0.00309326 0.00182608
0.0233034 -0.0781159 0.0461152
-0.0307839 -0.105754 0.0624315
-0.0661978 -0.0692436 0.0408776
-0.0614565 0.00926544 -0.00546979
-0.0192084 0.0811913 -0.0479308
-0.00231354 0.0996352 0.00534091
-0.00560316 0.0702395 0.00376516
-0.00546655 -0.00294402 -0.000157813
-0.00201391 -0.0743463 -0.00398533
0.00266036 -0.100651 -0.00539537
0.00572089 -0.0659024 -0.00353269
0.00531111 0.00881838 0.000472706
0.00166001 0.0772736 0.00414223
-0.0299943 0.0341465 0.0692432
-0.072643 0.0240722 0.0488142
-0.0708722 -0.00100896 -0.00204598
-0.0261095 -0.0254796 -0.0516681
0.0344908 -0.0344947 -0.0699494
0.0741693 -0.0225858 -0.0458001
0.0688569 0.0030222 0.00612849
0.0215215 0.0264829 0.0537026
-0.0394809 -0.052055 0.0911435
-0.0956163 -0.0366936 0.0642512
-0.0932852 0.00153797 -0.00269301
-0.0343664 0.0388391 -0.068008
0.0453982 0.0525809 -0.0920704
0.097625 0.0344278 -0.0602839
0.0906324 -0.0046068 0.00806657
0.0283283 -0.0403721 0.0706877
-0.0250189 -0.106681 0.0577573
-0.0598807 -0.0743251 0.0402399
-0.0584196 0.00311503 -0.00168649
-0.021522 0.0786656 -0.0425899
0.0284306 0.106499 -0.0576589
0.0611375 0.0697311 -0.0377527
0.0567593 -0.00933447 0.00505372
0.0179516 -0.0827379 0.0447946
0 -0.138543 0
0 -0.104796 0
0 0.0043921 0
0 0.110916 0
0 0.15016 0
0 0.098319 0
0 -0.0131614 0
0 -0.107449 0
-0.00245703 -0.0545047 -0.144758
-0.0059507 -0.038468 -0.10205
-0.00580562 0.00161235 0.0042773
-0.0021388 0.0407175 0.108017
0.00282536 0.0551241 0.146234
0.00607573 0.0360928 0.0957487
0.00564051 -0.00482939 -0.0128121
0.00176297 -0.042272 -0.11227
-0.00342365 0.0625955 -0.201708
-0.00829176 0.0441275 -0.142198
-0.00808958 -0.00184955 0.00596005
-0.00298024 -0.0467079 0.150512
0.00393691 -0.0632338 0.203765
0.00846598 -0.041403 0.133417
0.0078596 0.00554009 -0.0178525
0.00245654 0.0485469 -0.156438
-0.00231354 0.141726 -0.136305
-0.00560316 0.099912 -0.0960902
-0.00546655 -0.0041877 0.00402753
-0.0020139 -0.105754 0.101708
0.00266036 -0.143172 0.137695
0.00572089 -0.0937433 0.0901569
0.00531111 0.0125437 -0.0120639
0.00166001 0.109918 -0.105713
0.000199938 0.134888 0.0117796
0.000484233 0.0950914 0.00830421
0.000472425 -0.00398565 -0.000348061
0.000174043 -0.100651 -0.00878977
-0.000229911 -0.136263 -0.0118997
-0.000494406 -0.0892196 -0.00779148
-0.000458991 0.0119385 0.00104257
-0.00014346 0.104614 0.00913584
0.00259214 0.0462281 0.152718
0.00627789 0.0325892 0.107662
0.00612487 -0.00136594 -0.00451249
0.00225641 -0.0344947 -0.113956
-0.00298073 -0.0466997 -0.154276
-0.00640979 -0.030577 -0.101014
-0.00595069 0.00409148 0.0135166
-0.00185991 0.0358529 0.118443
0.00341198 -0.0704729 0.20102
0.00826324 -0.0496762 0.141708
0.00806178 0.00208212 -0.00593957
0.00296999 0.0525809 -0.149994
-0.00392337 0.0711848 -0.203064
-0.00843684 0.046609 -0.132959
-0.00783256 -0.00623674 0.0177911
-0.00244816 -0.0546563 0.155905
0.00216216 -0.144426 0.127386
0.00517495 -0.100622 0.0887507
0.00504868 0.00421717 -0.00371961
0.00185995 0.106499 -0.0939337
-0.002457 0.14418 -0.127169
-0.00528356 0.0944031 -0.0832651
-0.00490519 -0.0126371 0.0111462
-0.00155139 -0.112012 0.0987963
0 -0.0907125 0
0 -0.0686165 0
0 0.00287577 0
0 0.0726237 0
0 0.098319 0
0 0.0643754 0
0 -0.00861753 0
0 -0.0703535 0
-0.0318546 -0.0356875 -0.136074
-0.0771489 -0.0251873 -0.0959278
-0.0752676 0.0010557 0.00402072
-0.0277289 0.0266602 0.101537
0.0366298 0.0360929 0.137462
0.0787698 0.0236323 0.0900045
0.0731273 -0.00316209 -0.0120435
0.0228563 -0.027678 -0.105535
-0.0443866 0.0409851 -0.189608
-0.1075 0.0288929 -0.133667
-0.104879 -0.00121102 0.00560249
-0.0386379 -0.0305824 0.141483
0.0510406 -0.041403 0.191542
0.109759 -0.027109 0.125414
0.101897 0.00362743 -0.0167815
0.0318483 0.0317866 -0.147053
-0.0299943 0.0927967 -0.128128
-0.072643 0.0654184 -0.0903257
-0.0708722 -0.00274193 0.00378589
-0.0261095 -0.0692436 0.0956072
0.0344908 -0.0937433 0.129434
0.0741693 -0.0613793 0.0847483
0.0688569 0.0082131 -0.0113401
0.0215215 0.0719699 -0.0993714
0.00259214 0.088319 0.0110729
0.00627789 0.0622621 0.00780605
0.00612487 -0.00260964 -0.000327181
0.00225641 -0.0659024 -0.00826245
-0.00298073 -0.0892196 -0.0111858
-0.00640979 -0.0584174 -0.00732403
-0.0059507 0.00781684 0.000980029
-0.00185991 0.0684972 0.00858778
0.0336062 0.0302683 0.143557
0.0813911 0.0213381 0.101203
0.079407 -0.00089436 -0.0042418
0.0292536 -0.0225858 -0.10712
-0.0386443 -0.030577 -0.14502
-0.0831012 -0.0200206 -0.0949543
-0.0771488 0.00267894 0.0127057
-0.0241131 0.023475 0.111338
0.0442352 -0.0461428 0.188961
0.10713 -0.032526 0.133207
0.104518 0.00136329 -0.00558322
0.038505 0.0344278 -0.140996
-0.050865 0.046609 -0.190883
-0.109381 0.0305177 -0.124983
-0.101546 -0.00408357 0.0167238
-0.0317396 -0.0357868 0.146552
0.0280317 -0.0945643 0.119744
0.0670915 -0.0658836 0.0834265
0.0654545 0.00276123 -0.00349647
0.0241136 0.0697311 -0.0882986
-0.0318542 0.0944031 -0.11954
-0.0684997 0.0618114 -0.07827
-0.0635942 -0.0082743 0.0104775
-0.0201133 -0.0733408 0.0928694
0 0.0121431 0
0 0.00918526 0
0 -0.000384962 0
0 -0.00972167 0
0 -0.0131613 0
0 -0.00861752 0
0 0.00115357 0
0 0.00941778 0
-0.0419296 0.00477727 -0.0448493
-0.101546 0.00337015 -0.0316196
-0.0990702 -0.000141256 0.0013253
-0.0364978 -0.00356721 0.0334685
0.048214 -0.00482934 0.0453101
0.10368 -0.00316206 0.0296672
0.0962538 0.000423108 -0.00396975
0.0300853 0.00370508 -0.0347836
-0.0584252 -0.00548641 -0.0624936
-0.141496 -0.00386613 -0.0440592
-0.138046 0.000162044 0.00184669
-0.0508566 0.00409216 0.0466355
0.0671818 0.00554003 0.0631358
0.144468 0.00362739 0.0413389
0.134121 -0.000485391 -0.00553149
0.0419213 -0.00425507 -0.0484679
-0.0394809 -0.0124221 -0.0422301
-0.0956163 -0.00875356 -0.0297731
-0.0932852 0.000366895 0.00124791
-0.0343664 0.00926535 0.031514
0.0453982 0.0125436 0.0426641
0.097625 0.00821303 0.0279348
0.0906324 -0.00109901 -0.00373792
0.0283283 -0.00963416 -0.0327522
0.00341198 -0.0118227 0.00364957
0.00826324 -0.00833119 0.00257302
0.00806178 0.00034919 -0.000107845
0.00296999 0.00881829 -0.00272347
-0.00392337 0.0119383 -0.00368707
-0.00843684 0.00781676 -0.00241415
-0.00783256 -0.00104598 0.000323035
-0.00244816 -0.00916929 0.00283048
0.0442352 -0.00405183 0.0473155
0.10713 -0.00285523 0.0333584
0.104518 0.000119673 -0.00139818
0.038505 0.00302217 -0.0353089
-0.050865 0.00409144 -0.0478017
-0.109381 0.00267892 -0.0312987
-0.101546 -0.000358472 0.00418804
-0.0317396 -0.00314246 0.0366963
0.0582259 0.00617685 0.0622805
0.14101 0.00435228 0.0439077
0.137571 -0.00018242 -0.00184034
0.0506816 -0.00460675 -0.0464751
-0.0669506 -0.00623668 -0.0629187
-0.143972 -0.00408353 -0.0411966
-0.133659 0.000546429 0.00551248
-0.0417783 0.00479055 0.0483026
0.0368976 0.0126587 0.039467
0.0883113 0.00881942 0.0274969
0.0861565 -0.000369629 -0.00115242
0.0317403 -0.00933447 -0.0291027
-0.0419291 -0.0126371 -0.0393997
-0.0901649 -0.0082743 -0.0257973
-0.0837078 0.00110763 0.00345333
-0.0264748 0.00981768 0.0306092
0 0.107633 0
0 0.0749885 0
0 -0.00314283 0
0 -0.0793678 0
0 -0.107449 0
0 -0.0703535 0
0 0.00941779 0
0 0.0834764 0
-0.0265706 0.0423442 0.0735806
-0.0635945 0.0295015 0.0512641
-0.0620428 -0.00123643 -0.00214852
-0.0228568 -0.0312244 -0.0542579
0.0301939 -0.042272 -0.0734551
0.0649293 -0.027678 -0.0480955
0.0602795 0.00370508 0.00643824
0.019065 0.0328407 0.0570666
-0.0370239 -0.0486299 0.102528
-0.0886134 -0.0338808 0.0714321
-0.0864513 0.00141997 -0.00299378
-0.0318489 0.0358594 -0.0756037
0.0420726 0.0485469 -0.102353
0.0904734 0.0317866 -0.0670169
0.0839943 -0.00425507 0.00897113
0.0265654 -0.0377157 0.0795174
-0.0250189 -0.110106 0.0692836
-0.0598806 -0.0767114 0.0482703
-0.0584196 0.00321504 -0.00202305
-0.0215219 0.0811913 -0.0510893
0.0284306 0.109918 -0.0691654
0.0611375 0.0719699 -0.0452868
0.0567592 -0.00963416 0.00606226
0.0179516 -0.0853942 0.053734
0.00216216 -0.104793 -0.00598756
0.00517494 -0.0730099 -0.00417157
0.00504868 0.00305991 0.000174834
0.00185995 0.0772736 0.00441519
-0.002457 0.104614 0.00597734
-0.00528356 0.0684972 0.00391373
-0.00490519 -0.00916929 -0.000523906
-0.00155139 -0.0812738 -0.00464374
0.0280317 -0.0359141 -0.0776267
0.0670915 -0.0250216 -0.0540831
0.0654545 0.00104868 0.00226666
0.0241136 0.0264829 0.0572415
-0.0318542 0.0358529 0.0774943
-0.0684997 0.023475 0.0507402
-0.0635942 -0.00314246 -0.00679227
-0.0201133 -0.0278538 -0.0602046
0.0368976 0.0547497 -0.102179
0.0883112 0.0381445 -0.0711885
0.0861564 -0.00159867 0.00298357
0.0317403 -0.0403721 0.0753458
-0.0419291 -0.0546563 0.102004
-0.0901648 -0.0357868 0.0667884
-0.0837078 0.00479055 -0.00894054
-0.0264748 0.042462 -0.0792462
0.0233819 0.112203 -0.0647503
0.0559626 0.0781727 -0.0451119
0.0545971 -0.00327628 0.00189068
0.0201137 -0.0827379 0.0477464
-0.0265703 -0.112012 0.0646398
-0.0571372 -0.0733408 0.0423236
-0.0530454 0.00981768 -0.00566559
-0.016777 0.0870209 -0.0502181
