# vtk DataFile Version 3.0
Velocity field
ASCII
DATASET STRUCTURED_POINTS
DIMENSIONS 8 8 8
SPACING 0.8 0.8 0.8
ORIGIN 0 0 0
POINT_DATA 512
VECTORS velocity float
0 0.278784 0
0 0.19423 0
0 -0.00814035 0
0 -0.205573 0
0 -0.278308 0
0 -0.182225 0
0 0.0243933 0
0 0.216215 0
0 0.109677 0.28454
0 0.0764128 0.210183
0 -0.00320252 -0.00880892
0 -0.0808753 -0.222457
0 -0.10949 -0.301166
0 -0.0716898 -0.197191
0 0.00959666 0.0263968
0 0.0850619 0.22068
0 -0.125958 0.396482
0 -0.0877557 0.292871
0 0.00367791 -0.0122745
0 0.0928806 -0.309975
0 0.125743 -0.419648
0 0.0823316 -0.274769
0 -0.0110212 0.0367816
0 -0.0976886 0.307498
0 -0.285189 0.267923
0 -0.198693 0.197908
0 0.00832738 -0.00829449
0 0.210296 -0.209466
0 0.284702 -0.283578
0 0.186412 -0.185675
0 -0.0249538 0.0248552
0 -0.221183 0.207792
0 -0.271428 -0.0231542
0 -0.189106 -0.0171034
0 0.00792557 0.000716818
0 0.200149 0.0181022
0 0.270965 0.0245071
0 0.177417 0.0160463
0 -0.0237497 -0.00214801
0 -0.21051 -0.0179576
0 -0.0930224 -0.300187
0 -0.0648094 -0.22174
0 0.00271621 0.00929331
0 0.0685942 0.23469
0 0.0928638 0.317726
0 0.0608035 0.208035
0 -0.00813939 -0.0278483
0 -0.072145 -0.232815
0 0.141809 -0.39513
0 0.0987994 -0.291872
0 -0.00414076 0.0122326
0 -0.104569 0.308918
0 -0.141567 0.418217
0 -0.0926926 0.273832
0 0.0124082 -0.0366562
0 0.109982 -0.306449
0 0.290621 -0.250393
0 0.202478 -0.17445
0 -0.008486 0.00731136
0 -0.214302 0.184638
0 -0.290125 0.249966
0 -0.189963 0.163668
0 0.0254291 -0.0219092
0 0.225396 -0.194196
0 0.19423 0
0 0.146919 0
0 -0.00615751 0
0 -0.155499 0
0 -0.210517 0
0 -0.137838 0
0 0.0184515 0
0 0.150638 0
0.0606548 0.0764128 0.281048
0.14866 0.0546006 0.200577
0.145044 -0.0022891 -0.00840902
0.053435 -0.0578058 -0.21235
-0.070587 -0.0782582 -0.287481
-0.151792 -0.0512403 -0.188231
-0.140913 0.00684731 0.0251552
-0.043521 0.0592632 0.217972
0.0845172 -0.0877557 0.391617
0.207146 -0.0625799 0.279487
0.202106 0.00262354 -0.0117171
0.0744565 0.0662517 -0.295889
-0.0983579 0.0896922 -0.400582
-0.21151 0.0587269 -0.262285
-0.196352 -0.00784875 0.0350515
-0.0606428 -0.0680603 0.303724
0.0571126 -0.198693 0.264635
0.139978 -0.141692 0.188864
0.136574 0.00594024 -0.0079179
0.0503141 0.150006 -0.199949
-0.0664654 0.203081 -0.270694
-0.142927 0.13297 -0.177238
-0.132685 -0.017771 0.0236861
-0.0409794 -0.154099 0.205242
-0.00493572 -0.189106 -0.0228701
-0.0120971 -0.134855 -0.0163218
-0.0118028 0.00565359 0.00068427
-0.00434819 0.142768 0.0172798
0.00574397 0.193283 0.0233934
0.012352 0.126554 0.0153171
0.0114667 -0.0169135 -0.00204698
0.00354148 -0.146664 -0.0177372
-0.0639901 -0.0648094 -0.296503
-0.156834 -0.0462173 -0.211607
-0.15302 0.00193758 0.00887137
-0.0563725 0.0489293 0.224024
0.0744688 0.0662409 0.303289
0.160138 0.0433717 0.198582
0.148662 -0.00579655 -0.0265385
0.0459142 -0.0502639 -0.229957
-0.0842289 0.0987994 -0.390281
-0.206415 0.0704297 -0.278501
-0.201393 -0.00295265 0.0116758
-0.0741938 -0.074562 0.294845
0.0980108 -0.100943 0.399167
0.210763 -0.0660935 0.261359
0.195659 0.00883355 -0.0349282
0.0604359 0.0766254 -0.302689
-0.0533756 0.202478 -0.24732
-0.12775 0.141068 -0.172309
-0.124633 -0.00591226 0.00722163
-0.0459151 -0.149306 0.182372
0.0606541 -0.202132 0.246898
0.130431 -0.132348 0.161659
0.121091 0.0177166 -0.0216403
0.0382981 0.157035 -0.191813
0 -0.00814035 0
0 -0.00615751 0
0 0.000258066 0
0 0.0065171 0
0 0.00882295 0
0 0.00577691 0
0 -0.000773319 0
0 -0.00631338 0
0.0845172 -0.00320252 0.107076
0.207146 -0.0022891 0.0763796
0.202106 9.59701e-05 -0.00320212
0.0744565 0.0024235 -0.0808615
-0.0983579 0.00328096 -0.109471
-0.21151 0.00214825 -0.0716777
-0.196352 -0.000287061 0.00957929
-0.0606428 -0.00248377 0.0830447
0.117767 0.00367791 0.149201
0.288638 0.00262354 0.106428
0.281616 -0.000109988 -0.00446184
0.103749 -0.0027775 -0.112673
-0.137054 -0.00376023 -0.15254
-0.294719 -0.00246206 -0.0998776
-0.273599 0.000329037 0.0133479
-0.0845004 0.00285246 0.115716
0.0795814 0.00832738 0.100823
0.195048 0.00594024 0.0719187
0.190304 -0.000249037 -0.00301512
0.0701079 -0.00628884 -0.0761397
-0.0926134 -0.00851397 -0.103079
-0.199158 -0.00557453 -0.0674923
-0.184884 0.000745003 0.00901983
-0.0571013 0.00645843 0.0781949
-0.00687751 0.00792557 -0.00871323
-0.0168563 0.00565359 -0.00621533
-0.0164462 -0.00023702 0.000260569
-0.00605885 -0.0059854 0.00658008
0.00800377 -0.00810313 0.00890813
0.0172115 -0.00530557 0.00583271
0.0159779 0.000709052 -0.000779508
0.00493475 0.0061468 -0.00675769
-0.0891646 0.00271621 -0.112964
-0.218533 0.00193758 -0.080579
-0.213221 -8.12305e-05 0.0033782
-0.0785503 -0.0020513 0.0853072
0.103766 -0.00277705 0.115491
0.223138 -0.0018183 0.0756194
0.207148 0.000243004 -0.010106
0.0639774 0.0021066 -0.0876112
-0.117366 -0.00414076 -0.148693
-0.28762 -0.00295265 -0.106053
-0.280622 0.000123785 0.00444611
-0.103383 0.0031259 0.112276
0.136569 0.0042319 0.152001
0.293679 0.00277086 0.099525
0.272633 -0.000370322 -0.0133009
0.0842122 -0.00321143 -0.115321
-0.0743743 -0.008486 -0.0942261
-0.178008 -0.00591226 -0.065648
-0.173665 0.000247787 0.00275136
-0.0639787 0.00625753 0.0694818
0.0845162 0.00847153 0.0940655
0.181745 0.00554682 0.0615903
0.168729 -0.000742518 -0.00824471
0.0533651 -0.00658145 -0.0730786
0 -0.205573 0
0 -0.155499 0
0 0.0065171 0
0 0.16458 0
0 0.222811 0
0 0.145888 0
0 -0.0195291 0
0 -0.159436 0
0.0571126 -0.0808753 -0.131847
0.139978 -0.0578058 -0.094048
0.136574 0.0024235 0.00394284
0.0503141 0.0611993 0.0995675
-0.0664654 0.0828526 0.134796
-0.142927 0.0542485 0.0882581
-0.132685 -0.00724906 -0.0117952
-0.0409794 -0.0627241 -0.102256
0.0795814 0.0928806 -0.183717
0.195048 0.0662517 -0.131048
0.190304 -0.0027775 0.00549396
0.0701079 -0.0701392 0.138739
-0.0926134 -0.0949563 0.187825
-0.199158 -0.0621735 0.12298
-0.184884 0.00830911 -0.0164356
-0.0571013 0.072035 -0.142485
0.0537772 0.210296 -0.124147
0.131804 0.150006 -0.0885552
0.128598 -0.00628884 0.00371255
0.0473759 -0.158809 0.0937523
-0.0625837 -0.215 0.126923
-0.134581 -0.140772 0.0831041
-0.124936 0.0188134 -0.0111063
-0.0385863 0.163099 -0.0962843
-0.00464748 0.200149 0.0107289
-0.0113906 0.142768 0.00765305
-0.0111135 -0.0059854 -0.000320843
-0.00409429 -0.151147 -0.00810219
0.00540849 -0.204625 -0.0109687
0.0116306 -0.133981 -0.00718192
0.010797 0.0179055 0.000959821
0.00333466 0.155229 0.00832099
-0.0602531 0.0685942 0.139097
-0.147675 0.0489293 0.0992196
-0.144083 -0.0020513 -0.00415965
-0.0530811 -0.0518007 -0.105042
0.0701195 -0.0701278 -0.142207
0.150787 -0.0459171 -0.0931116
0.139979 0.00613655 0.0124438
0.0432328 0.0531993 0.107879
-0.07931 -0.104569 0.183091
-0.19436 -0.074562 0.130585
-0.189632 0.0031259 -0.00547458
-0.0698606 0.0789366 -0.138249
0.0922866 0.106867 -0.187163
0.198455 0.0699714 -0.122547
0.184231 -0.00935166 0.0163778
0.0569065 -0.0811002 0.141999
-0.0502585 -0.214302 0.116024
-0.120289 -0.149306 0.0808348
-0.117354 0.00625753 -0.00338785
-0.0432337 0.158025 -0.0855554
0.0571119 0.213937 -0.115826
0.122814 0.140077 -0.0758384
0.114019 -0.0187513 0.010152
0.0360615 -0.166205 0.0899843
0 -0.278308 0
0 -0.210517 0
0 0.00882295 0
0 0.222811 0
0 0.301645 0
0 0.197505 0
0 -0.0264388 0
0 -0.215846 0
-0.00493572 -0.10949 -0.290794
-0.0120971 -0.0782582 -0.207426
-0.0118028 0.00328096 0.00869608
-0.0043482 0.0828526 0.219596
0.00574397 0.112167 0.297296
0.012352 0.0734425 0.194658
0.0114667 -0.0098139 -0.0260148
0.00354148 -0.0849168 -0.225529
-0.00687751 0.125743 -0.405196
-0.0168563 0.0896922 -0.289029
-0.0164462 -0.00376023 0.0121173
-0.00605885 -0.0949563 0.305993
0.00800377 -0.128553 0.414258
0.0172115 -0.0841713 0.27124
0.0159779 0.0112489 -0.0362492
0.00493475 0.0975221 -0.314256
-0.00464748 0.284702 -0.273811
-0.0113906 0.203081 -0.195313
-0.0111135 -0.00851397 0.00818827
-0.00409429 -0.215 0.206775
0.00540849 -0.291068 0.279932
0.0116306 -0.190581 0.183289
0.010797 0.0254698 -0.0244955
0.00333466 0.220805 -0.212359
0.00040164 0.270965 0.0236631
0.00098439 0.193283 0.0168791
0.000960443 -0.00810313 -0.000707629
0.000353828 -0.204625 -0.0178696
-0.00046741 -0.277026 -0.0241923
-0.00100513 -0.181384 -0.0158401
-0.000933089 0.0242409 0.00211693
-0.000288185 0.210151 0.0183523
0.00520713 0.0928638 0.306784
0.0127623 0.0662409 0.21883
0.0124519 -0.00277705 -0.00917422
0.00458728 -0.0701278 -0.231672
-0.00605985 -0.0949408 -0.313641
-0.0130312 -0.0621634 -0.205362
-0.0120973 0.00830775 0.027445
-0.00373622 0.072022 0.237931
0.00685405 -0.141567 0.403814
0.0167968 -0.100943 0.28801
0.0163882 0.0042319 -0.0120745
0.00603748 0.106867 -0.304912
-0.00797553 0.144677 -0.412797
-0.0171507 0.0947292 -0.270282
-0.0159215 -0.0126604 0.0361218
-0.00491792 -0.109795 0.313184
0.00434339 -0.290125 0.255896
0.0103955 -0.202132 0.178284
0.0101419 0.00847153 -0.00747204
0.0037363 0.213937 -0.188696
-0.00493567 0.289631 -0.255459
-0.0106137 0.189639 -0.167264
-0.00985364 -0.0253857 0.0223907
-0.00311647 -0.225011 0.198464
0 -0.182225 0
0 -0.137838 0
0 0.00577691 0
0 0.145888 0
0 0.197505 0
0 0.129319 0
0 -0.0173111 0
0 -0.141328 0
-0.0639901 -0.0716898 -0.273349
-0.156834 -0.0512403 -0.194983
-0.15302 0.00214825 0.00817443
-0.0563725 0.0542485 0.206426
0.0744688 0.0734425 0.27946
0.160138 0.0480874 0.18298
0.148662 -0.00642576 -0.0244542
0.0459142 -0.0556001 -0.212
-0.0891646 0.0823316 -0.380888
-0.218533 0.0587269 -0.271692
-0.213221 -0.00246206 0.0113902
-0.0785503 -0.0621735 0.287634
0.103766 -0.0841713 0.389406
0.223138 -0.0551117 0.254968
0.207148 0.00736536 -0.0340748
0.0639774 0.0638535 -0.295403
-0.0602531 0.186412 -0.257385
-0.147675 0.13297 -0.183596
-0.144083 -0.00557453 0.007697
-0.0530811 -0.140772 0.19437
0.0701195 -0.190581 0.263141
0.150787 -0.124785 0.172293
0.139979 0.0166767 -0.023026
0.0432328 0.144575 -0.199619
0.00520713 0.177417 0.0222435
0.0127623 0.126554 0.0158666
0.0124519 -0.00530557 -0.000665179
0.00458728 -0.133981 -0.0167977
-0.00605985 -0.181384 -0.0227408
-0.0130312 -0.118763 -0.0148898
-0.0120973 0.015872 0.00198993
-0.00373622 0.137599 0.0172513
0.0675088 0.0608035 0.28838
0.165458 0.0433717 0.205704
0.161433 -0.0018183 -0.00862394
0.0594724 -0.0459171 -0.217774
-0.0785632 -0.0621634 -0.294827
-0.168944 -0.040702 -0.193043
-0.156835 0.00543955 0.0257988
-0.0484389 0.0471571 0.223657
0.0888605 -0.0926926 0.379589
0.217762 -0.0660935 0.270733
0.212467 0.00277086 -0.0113501
0.0782732 0.0699714 -0.28662
-0.1034 0.0947292 -0.388032
-0.22235 0.0620248 -0.254068
-0.206418 -0.00828954 0.0339548
-0.0637592 -0.0718892 0.294396
0.0563107 -0.189963 0.240544
0.134775 -0.132348 0.167589
0.131486 0.00554682 -0.00702378
0.0484399 0.140077 -0.177376
-0.0639894 0.189639 -0.240134
-0.137604 0.124168 -0.15723
-0.127749 -0.0166216 0.0210474
-0.040404 -0.147329 0.186558
0 0.0243933 0
0 0.0184515 0
0 -0.000773319 0
0 -0.0195291 0
0 -0.0264388 0
0 -0.0173111 0
0 0.00231732 0
0 0.0189186 0
-0.0842289 0.00959666 -0.0900941
-0.206415 0.00684718 -0.0642844
-0.201393 -0.000287055 0.00269505
-0.0741938 -0.00724893 0.0680576
0.0980108 -0.00981371 0.0921365
0.210763 -0.00642564 0.0603275
0.195659 0.000858797 -0.00806215
0.0604359 0.00744284 -0.0698739
-0.117366 -0.0110212 -0.125538
-0.28762 -0.0078486 -0.0895746
-0.280622 0.000329031 0.00375532
-0.103383 0.00830895 0.0948319
0.136569 0.0112487 0.128385
0.293679 0.00736522 0.0840616
0.272633 -0.00098449 -0.0112339
0.0842122 -0.00854767 -0.0973633
-0.07931 -0.0249538 -0.0848327
-0.19436 -0.0177706 -0.0605303
-0.189632 0.000744988 0.00253767
-0.0698607 0.018813 0.0640828
0.0922866 0.0254694 0.0867559
0.198455 0.0166763 0.0568045
0.184231 -0.00222905 -0.0075913
0.0569065 -0.0193533 -0.0657933
0.00685405 -0.0237497 0.00733133
0.0167968 -0.0169132 0.00523109
0.0163882 0.000709038 -0.000219307
0.00603748 0.0179052 -0.00553808
-0.00797553 0.0242404 -0.00749755
-0.0171507 0.0158717 -0.00490909
-0.0159215 -0.00212152 0.000656052
-0.00491792 -0.0184195 0.00568593
0.0888605 -0.00813939 0.0950483
0.217762 -0.00579644 0.0678194
0.212467 0.000243 -0.00284324
0.0782732 0.00613643 -0.0717996
-0.1034 0.00830758 -0.0972035
-0.22235 0.00543945 -0.063645
-0.206418 -0.000727075 0.00850547
-0.0637592 -0.00631263 0.0737162
0.116965 0.0124082 0.12511
0.286605 0.00883339 0.0892586
0.279632 -0.000370315 -0.00374207
0.103018 -0.00935148 -0.0944971
-0.136087 -0.0126601 -0.127932
-0.292643 -0.00828938 -0.0837646
-0.27167 0.00110805 0.0111944
-0.083925 0.00962336 0.0970312
0.0741207 0.0254291 0.079282
0.177401 0.0177166 0.0552363
0.173073 -0.000742518 -0.002315
0.0637605 -0.0187513 -0.058462
-0.084228 -0.0253857 -0.0791468
-0.181125 -0.0166216 -0.0518222
-0.168154 0.00222503 0.00693711
-0.0531831 0.0197219 0.0614884
0 0.216215 0
0 0.150638 0
0 -0.00631338 0
0 -0.159436 0
0 -0.215846 0
0 -0.141328 0
0 0.0189186 0
0 0.167689 0
-0.0533756 0.0850619 0.14781
-0.12775 0.0592632 0.10298
-0.124633 -0.00248377 -0.00431599
-0.0459151 -0.0627241 -0.108994
0.0606541 -0.0849168 -0.147558
0.130431 -0.0556002 -0.0966152
0.121091 0.00744284 0.0129333
0.0382981 0.0659711 0.114637
-0.0743743 -0.0976886 0.205961
-0.178008 -0.0680603 0.143494
-0.173665 0.00285246 -0.00601396
-0.0639787 0.072035 -0.151874
0.0845162 0.0975221 -0.205609
0.181745 0.0638536 -0.134625
0.168729 -0.00854767 0.0180214
0.0533651 -0.075764 0.159736
-0.0502585 -0.221183 0.139178
-0.120289 -0.154099 0.0969664
-0.117354 0.00645843 -0.00406394
-0.0432337 0.163099 -0.102629
0.0571119 0.220805 -0.138941
0.122814 0.144575 -0.0909729
0.114019 -0.0193533 0.012178
0.0360615 -0.171542 0.107942
0.00434339 -0.21051 -0.0120279
0.0103955 -0.146664 -0.00837993
0.0101419 0.0061468 0.00035121
0.0037363 0.155229 0.00886931
-0.00493567 0.210151 0.0120074
-0.0106137 0.137599 0.00786197
-0.00985364 -0.0184195 -0.00105243
-0.00311647 -0.163264 -0.00932844
0.0563107 -0.072145 -0.155938
0.134775 -0.0502639 -0.108643
0.131486 0.0021066 0.00455332
0.0484399 0.0531993 0.114988
-0.0639893 0.072022 0.155672
-0.137604 0.0471571 0.101928
-0.127749 -0.00631263 -0.0136445
-0.040404 -0.0559532 -0.12094
0.0741207 0.109982 -0.205258
0.177401 0.0766254 -0.143005
0.173073 -0.00321143 0.00599345
0.0637605 -0.0811002 0.151356
-0.0842279 -0.109795 0.204908
-0.181125 -0.0718892 0.134166
-0.168154 0.00962336 -0.0179599
-0.0531831 0.0852985 -0.159191
0.04697 0.225396 -0.130072
0.112419 0.157035 -0.0906218
0.109676 -0.00658145 0.00379803
0.0404049 -0.166205 0.095914
-0.053375 -0.225011 0.12985
-0.114778 -0.147329 0.0850205
-0.106559 0.0197219 -0.0113812
-0.033702 0.174809 -0.100879
