# vtk DataFile Version 3.0
Velocity field
ASCII
DATASET STRUCTURED_POINTS
DIMENSIONS 8 8 8
SPACING 0.8 0.8 0.8
ORIGIN 0 0 0
POINT_DATA 512
VECTORS velocity float
0 0.368199 0
0 0.256527 0
0 -0.0107512 0
0 -0.271508 0
0 -0.367571 0
0 -0.240671 0
0 0.0322171 0
0 0.285562 0
0 0.144854 0.375802
0 0.100921 0.277595
0 -0.00422968 -0.0116342
0 -0.106815 -0.293807
0 -0.144607 -0.39776
0 -0.0946831 -0.260437
0 0.0126746 0.0348631
0 0.112344 0.291459
0 -0.166357 0.523647
0 -0.115902 0.386805
0 0.00485754 -0.0162113
0 0.12267 -0.409394
0 0.166073 -0.554244
0 0.108738 -0.362897
0 -0.0145561 0.0485787
0 -0.129021 0.406123
0 -0.376658 0.353855
0 -0.26242 0.261384
0 0.0109982 -0.0109548
0 0.277745 -0.276648
0 0.376016 -0.374531
0 0.2462 -0.245228
0 -0.0329573 0.0328271
0 -0.292123 0.274438
0 -0.358484 -0.0305805
0 -0.249758 -0.0225891
0 0.0104676 0.000946725
0 0.264344 0.0239082
0 0.357872 0.0323673
0 0.234321 0.0211928
0 -0.031367 -0.00283695
0 -0.278028 -0.0237172
0 -0.122858 -0.396467
0 -0.0855959 -0.29286
0 0.00358739 0.012274
0 0.0905946 0.309963
0 0.122648 0.419632
0 0.0803052 0.274758
0 -0.01075 -0.0367801
0 -0.0952843 -0.307486
0 0.187292 -0.521862
0 0.130488 -0.385486
0 -0.00546884 0.016156
0 -0.138108 0.407998
0 -0.186973 0.552353
0 -0.122422 0.361659
0 0.0163879 -0.048413
0 0.145257 -0.404738
0 0.383833 -0.330702
0 0.267419 -0.230402
0 -0.0112077 0.00965635
0 -0.283036 0.243858
0 -0.383178 0.330138
0 -0.25089 0.216161
0 0.0335851 -0.0289362
0 0.297688 -0.256481
0 0.256527 0
0 0.194041 0
0 -0.00813242 0
0 -0.205373 0
0 -0.278037 0
0 -0.182048 0
0 0.0243696 0
0 0.198953 0
0.0801088 0.100921 0.37119
0.197891 0.0726875 0.266981
0.193088 -0.00304819 -0.0111959
0.0711344 -0.0769706 -0.28271
-0.0939685 -0.104204 -0.382738
-0.202073 -0.0682288 -0.250601
-0.187581 0.00910568 0.0334472
-0.0574796 0.0782709 0.287882
0.111625 -0.115902 0.517221
0.275743 -0.083274 0.372017
0.269051 0.00349197 -0.0156004
0.0991199 0.0881778 -0.393933
-0.130937 0.119376 -0.533311
-0.281569 0.0781626 -0.349192
-0.261378 -0.0104334 0.046606
-0.0800929 -0.0898895 0.401139
0.0754305 -0.26242 0.349513
0.186333 -0.188547 0.251391
0.181813 0.00790665 -0.010542
0.0669799 0.199653 -0.2662
-0.0884812 0.270292 -0.360387
-0.190271 0.176978 -0.235965
-0.176627 -0.0236234 0.031494
-0.0541229 -0.203524 0.27107
-0.00651878 -0.249758 -0.0302052
-0.0161031 -0.179452 -0.0217254
-0.0157123 0.00752508 0.000911045
-0.00578849 0.190019 0.0230054
0.00764657 0.257252 0.0311447
0.0164434 0.168439 0.0203924
0.0152641 -0.0224835 -0.00272174
0.00467735 -0.193704 -0.0234262
-0.0845138 -0.0855959 -0.391601
-0.20877 -0.0615014 -0.281662
-0.203707 0.00257899 0.0118115
-0.0750447 0.0651232 0.298252
0.0991361 0.0881648 0.403785
0.21318 0.0577264 0.264381
0.197896 -0.0077055 -0.0352865
0.0606404 -0.0663852 -0.303712
-0.111244 0.130488 -0.515457
-0.274745 0.0936945 -0.370673
-0.268077 -0.00392892 0.0155439
-0.0987611 -0.0992105 0.392507
0.130463 -0.134312 0.53138
0.280548 -0.0879434 0.347928
0.260432 0.0117399 -0.0464386
0.0798198 0.101202 -0.399771
-0.070495 0.267419 -0.326644
-0.168724 0.186313 -0.227575
-0.164607 -0.00780851 0.00953785
-0.0606416 -0.197193 0.240865
0.0801079 -0.266963 0.326087
0.172265 -0.174797 0.213509
0.159929 0.0233989 -0.0285811
0.0505816 0.207401 -0.253334
0 -0.0107512 0
0 -0.00813243 0
0 0.000340837 0
0 0.00860735 0
0 0.0116528 0
0 0.00762976 0
0 -0.00102135 0
0 -0.00833829 0
0.111625 -0.00422968 0.141419
0.275743 -0.00304819 0.101659
0.269051 0.00012783 -0.00426301
0.0991199 0.00322788 -0.107646
-0.130937 0.0043699 -0.145733
-0.281569 0.00286127 -0.0954213
-0.261378 -0.000381825 0.0127362
-0.0800929 -0.0032804 0.10968
0.155539 0.00485754 0.197055
0.384224 0.00349197 0.141653
0.374899 -0.000146434 -0.00594014
0.138114 -0.00369765 -0.149995
-0.182451 -0.00500596 -0.203069
-0.392343 -0.00327773 -0.132961
-0.364209 0.000437482 0.0177467
-0.111603 0.00376734 0.152829
0.105106 0.0109982 0.13316
0.259639 0.00790665 0.0957217
0.253339 -0.000331561 -0.00401408
0.0933307 -0.00837235 -0.101361
-0.12329 -0.0113347 -0.137223
-0.265126 -0.00742141 -0.0898491
-0.246112 0.000990557 0.0119924
-0.0754156 0.00852986 0.103275
-0.00908335 0.0104676 -0.0115079
-0.0224384 0.00752508 -0.00827238
-0.0218938 -0.000315562 0.0003469
-0.00806574 -0.0079684 0.00875966
0.0106549 -0.0107877 0.011859
0.0229125 -0.00706332 0.00776478
0.0212694 0.000942755 -0.00103639
0.00651749 0.00811828 -0.0089251
-0.117763 0.00358739 -0.149196
-0.290901 0.00257899 -0.107248
-0.283846 -0.000108149 0.00449743
-0.104569 -0.00273092 0.113564
0.138137 -0.00369711 0.153746
0.297047 -0.00242072 0.100669
0.27575 0.0003231 -0.0134364
0.0844971 0.00278226 -0.115711
-0.155009 -0.00546884 -0.196383
-0.382834 -0.00392892 -0.14114
-0.373543 0.000164755 0.00591866
-0.137615 0.00416028 0.149452
0.18179 0.00563227 0.202333
0.390923 0.00368777 0.13248
0.36289 -0.000492262 -0.0176829
0.111222 -0.00424145 -0.152308
-0.0982286 -0.0112077 -0.124448
-0.235102 -0.00780851 -0.0867035
-0.229365 0.000327261 0.00363381
-0.0844989 0.00826452 0.0917669
0.111623 0.0111886 0.124235
0.240036 0.00732587 0.0813444
0.222847 -0.000980669 -0.0108891
0.070481 -0.00869235 -0.0965173
0 -0.271508 0
0 -0.205373 0
0 0.00860735 0
0 0.217367 0
0 0.294274 0
0 0.192679 0
0 -0.0257927 0
0 -0.210572 0
0.0754305 -0.106815 -0.174135
0.186333 -0.0769706 -0.125174
0.181813 0.00322788 0.00524912
0.0669799 0.0815069 0.132547
-0.0884812 0.110345 0.179445
-0.190271 0.0722497 0.117492
-0.176627 -0.00964163 -0.0156822
-0.0541229 -0.0828418 -0.135053
0.105106 0.12267 -0.242642
0.259639 0.0881778 -0.17442
0.253339 -0.00369765 0.00731413
0.0933307 -0.0933714 0.184694
-0.12329 -0.126408 0.25004
-0.265126 -0.0827668 0.163716
-0.246112 0.0110472 -0.0218518
-0.0754156 0.095139 -0.188184
0.0710254 0.277745 -0.163965
0.175452 0.199653 -0.117863
0.171194 -0.00837235 0.00494253
0.0630685 -0.211411 0.124806
-0.0833136 -0.286215 0.168965
-0.17916 -0.187402 0.110631
-0.166311 0.0250133 -0.0147663
-0.0509622 0.21541 -0.127166
-0.00613809 0.264344 0.01417
-0.0151626 0.190019 0.0101859
-0.0147946 -0.0079684 -0.000427139
-0.00545046 -0.201214 -0.0107859
0.00719996 -0.272404 -0.014602
0.015483 -0.178361 -0.00956082
0.0143726 0.0238063 0.00127612
0.0044042 0.205016 0.0109898
-0.0795783 0.0905946 0.18371
-0.19658 0.0651232 0.132057
-0.191809 -0.00273092 -0.00553776
-0.0706631 -0.068959 -0.139835
0.093346 -0.0933576 -0.189311
0.200734 -0.0611268 -0.123953
0.186338 0.00815883 0.0165445
0.057099 0.0702621 0.142479
-0.104747 -0.138108 0.241814
-0.2587 -0.0992105 0.173789
-0.252422 0.00416028 -0.00728766
-0.0929931 0.105052 -0.184026
0.122844 0.142222 -0.249135
0.264166 0.0931213 -0.163124
0.245222 -0.0124305 0.0217734
0.0751583 -0.107112 0.187543
-0.0663781 -0.283036 0.153237
-0.15887 -0.197193 0.106761
-0.154994 0.00826452 -0.00447445
-0.0571002 0.208709 -0.112996
0.0754296 0.282553 -0.152976
0.162205 0.185005 -0.100162
0.150589 -0.0247654 0.0134081
0.0476276 -0.219513 0.118845
0 -0.367571 0
0 -0.278037 0
0 0.0116528 0
0 0.294274 0
0 0.398393 0
0 0.260852 0
0 -0.0349186 0
0 -0.285075 0
-0.00651878 -0.144607 -0.384061
-0.0161031 -0.104204 -0.276075
-0.0157123 0.0043699 0.0115772
-0.00578849 0.110345 0.292334
0.00764657 0.149386 0.395773
0.0164434 0.0978136 0.259136
0.0152641 -0.013053 -0.0345877
0.00467735 -0.112152 -0.297864
-0.00908335 0.166073 -0.535155
-0.0224384 0.119376 -0.384687
-0.0218938 -0.00500596 0.0161318
-0.00806574 -0.126408 0.407351
0.0106549 -0.171133 0.551473
0.0229125 -0.11205 0.361086
0.0212694 0.0149558 -0.0481951
0.00651749 0.128801 -0.415048
-0.00613809 0.376016 -0.361632
-0.0151626 0.270292 -0.259954
-0.0147946 -0.0113347 0.0109011
-0.00545046 -0.286215 0.275266
0.00719996 -0.387483 0.372658
0.015483 -0.253708 0.244001
0.0143726 0.0338632 -0.0325678
0.0044042 0.291625 -0.280469
0.000530459 0.357872 0.0312526
0.00131038 0.257252 0.0224655
0.00127858 -0.0107877 -0.000942069
0.000471028 -0.272404 -0.0237887
-0.000622233 -0.368788 -0.0322055
-0.00133807 -0.241465 -0.021087
-0.00124211 0.0322293 0.00281454
-0.000380615 0.277554 0.0242384
0.00687724 0.122648 0.40518
0.0169885 0.0881648 0.291254
0.0165763 -0.00369711 -0.0122137
0.00610678 -0.0933576 -0.308409
-0.00806707 -0.126389 -0.417532
-0.0173475 -0.0827546 -0.273385
-0.0161035 0.0110455 0.0364894
-0.00493455 0.0951219 0.314243
0.00905237 -0.186973 0.53333
0.0223572 -0.134312 0.383297
0.0218146 0.00563227 -0.0160734
0.00803656 0.142222 -0.405874
-0.0106164 0.192543 -0.549478
-0.0228295 0.12607 -0.359778
-0.0211925 -0.0168284 0.0480221
-0.00649526 -0.14501 0.413633
0.00573646 -0.383178 0.33797
0.0137297 -0.266963 0.235466
0.0133947 0.0111886 -0.00986857
0.00493466 0.282553 -0.249217
-0.0065187 0.382525 -0.337393
-0.0140179 0.250462 -0.220912
-0.013014 -0.0335278 0.0295721
-0.00411603 -0.29718 0.262118
0 -0.240671 0
0 -0.182048 0
0 0.00762976 0
0 0.192679 0
0 0.260852 0
0 0.170795 0
0 -0.0228633 0
0 -0.186656 0
-0.0845138 -0.0946831 -0.361021
-0.20877 -0.0682288 -0.259515
-0.203707 0.00286127 0.0108827
-0.0750447 0.0722497 0.274801
0.0991361 0.0978136 0.372029
0.21318 0.0640444 0.243589
0.197896 -0.00854662 -0.0325128
0.0606404 -0.073433 -0.279995
-0.117763 0.108738 -0.503051
-0.290901 0.0781626 -0.361613
-0.283846 -0.00327773 0.0151639
-0.104569 -0.0827668 0.382912
0.138137 -0.11205 0.518391
0.297047 -0.0733659 0.339423
0.27575 0.00979251 -0.0453039
0.0844971 0.0843335 -0.390149
-0.0795783 0.2462 -0.339937
-0.19658 0.176978 -0.244359
-0.191809 -0.00742141 0.0102471
-0.0706631 -0.187402 0.258753
0.093346 -0.253708 0.350304
0.200734 -0.166118 0.229362
0.186338 0.0221724 -0.0306141
0.057099 0.190944 -0.263644
0.00687724 0.234321 0.0293777
0.0169885 0.168439 0.0211178
0.0165763 -0.00706332 -0.000885554
0.00610678 -0.178361 -0.0223617
-0.00806707 -0.241465 -0.0302733
-0.0173475 -0.158102 -0.0198218
-0.0161035 0.0211025 0.0026457
-0.00493455 0.181731 0.0227844
0.0891611 0.0803052 0.380873
0.220249 0.0577264 0.273783
0.214903 -0.00242072 -0.0114811
0.0791714 -0.0611268 -0.289909
-0.104586 -0.0827546 -0.392487
-0.224903 -0.054184 -0.256985
-0.208775 0.00723215 0.0343006
-0.0639749 0.062282 0.295392
0.117361 -0.122422 0.501335
0.289849 -0.0879434 0.360305
0.282817 0.00368777 -0.015109
0.104191 0.0931213 -0.381527
-0.137637 0.12607 -0.516516
-0.295972 0.0825457 -0.338195
-0.274752 -0.0110187 0.0451411
-0.0842089 -0.0949465 0.388819
0.0743714 -0.25089 0.317695
0.178001 -0.174797 0.22134
0.173658 0.00732587 -0.00927654
0.0639762 0.185005 -0.234266
-0.0845129 0.250462 -0.317153
-0.181738 0.163993 -0.207659
-0.168723 -0.0219527 0.027798
-0.053363 -0.194582 0.246393
0 0.0322171 0
0 0.0243696 0
0 -0.00102135 0
0 -0.0257927 0
0 -0.0349186 0
0 -0.0228633 0
0 0.00306057 0
0 0.0249865 0
-0.111244 0.0126746 -0.11899
-0.274745 0.00910546 -0.0855797
-0.268077 -0.000381815 0.00358879
-0.0987611 -0.0096414 0.090622
0.130463 -0.0130527 0.122684
0.280548 -0.00854641 0.080329
0.260432 0.001141 -0.010721
0.0798198 0.00983001 -0.0922848
-0.155009 -0.0145561 -0.165803
-0.382834 -0.0104332 -0.119248
-0.373543 0.00043747 0.00500065
-0.137615 0.0110469 0.126273
0.18179 0.0149554 0.170951
0.390923 0.00979227 0.111932
0.36289 -0.00130755 -0.0149388
0.111222 -0.0112892 -0.128591
-0.104747 -0.0329573 -0.112041
-0.2587 -0.0236228 -0.0805818
-0.252422 0.000990531 0.00337922
-0.0929931 0.0250127 0.0853294
0.122844 0.0338623 0.11552
0.264166 0.0221718 0.0756378
0.245222 -0.00296053 -0.0100949
0.0751583 -0.0255605 -0.0868955
0.00905237 -0.031367 0.00968273
0.0223572 -0.0224829 0.00696397
0.0218146 0.000942731 -0.000292033
0.00803656 0.0238057 -0.00737424
-0.0106164 0.0322284 -0.00998332
-0.0228295 0.0211019 -0.00653674
-0.0211925 -0.00281769 0.000872417
-0.00649526 -0.0243272 0.00750959
0.117361 -0.01075 0.125533
0.289849 -0.00770531 0.0902858
0.282817 0.000323091 -0.00378612
0.104191 0.00815862 -0.0956049
-0.137637 0.0110453 -0.129431
-0.295972 0.00723197 -0.0847464
-0.274752 -0.000965671 0.0113106
-0.0842089 -0.0083373 0.0973594
0.15448 0.0163879 0.165237
0.38145 0.0117396 0.118817
0.372192 -0.00049225 -0.00498253
0.137117 -0.0124301 -0.125816
-0.181132 -0.016828 -0.170331
-0.38951 -0.0110184 -0.111526
-0.361577 0.00147136 0.0148851
-0.110843 0.0127099 0.128152
0.0978936 0.0335851 0.10471
0.2343 0.0233989 0.0729524
0.228583 -0.000980669 -0.0030575
0.0842107 -0.0247654 -0.0772128
-0.111243 -0.0335278 -0.104532
-0.239218 -0.0219527 -0.0684433
-0.222087 0.00293867 0.00916207
-0.0702406 0.0260474 0.0812098
0 0.285562 0
0 0.198953 0
0 -0.00833829 0
0 -0.210572 0
0 -0.285075 0
0 -0.186656 0
0 0.0249865 0
0 0.221472 0
-0.070495 0.112344 0.195218
-0.168724 0.0782709 0.13601
-0.164607 -0.0032804 -0.00570027
-0.0606416 -0.0828418 -0.143952
0.0801079 -0.112152 -0.194885
0.172265 -0.073433 -0.127603
0.159929 0.00983001 0.0170814
0.0505816 0.0871302 0.151404
-0.0982286 -0.129021 0.272019
-0.235102 -0.0898895 0.189518
-0.229365 0.00376734 -0.00794284
-0.0844989 0.095139 -0.200585
0.111623 0.128801 -0.271555
0.240036 0.0843335 -0.177804
0.222846 -0.0112892 0.0238014
0.070481 -0.100064 0.210969
-0.0663781 -0.292123 0.183817
-0.15887 -0.203524 0.128067
-0.154994 0.00852986 -0.00536738
-0.0571002 0.21541 -0.135546
0.0754296 0.291625 -0.183504
0.162205 0.190944 -0.120151
0.150589 -0.0255605 0.0160839
0.0476276 -0.226561 0.142562
0.00573646 -0.278028 -0.0158857
0.0137297 -0.193704 -0.0110677
0.0133947 0.00811828 0.000463854
0.00493466 0.205016 0.011714
-0.0065187 0.277554 0.0158586
-0.0140179 0.181731 0.0103836
-0.013014 -0.0243272 -0.00138998
-0.00411603 -0.215629 -0.0123204
0.0743714 -0.0952843 -0.205953
0.178001 -0.0663852 -0.143489
0.173658 0.00278226 0.00601372
0.0639762 0.0702621 0.151868
-0.0845129 0.0951219 0.205601
-0.181738 0.062282 0.13462
-0.168723 -0.0083373 -0.0180207
-0.053363 -0.0738993 -0.15973
0.0978936 0.145257 -0.271091
0.2343 0.101202 -0.188871
0.228583 -0.00424145 0.00791575
0.0842107 -0.107112 0.199901
-0.111243 -0.14501 0.270629
-0.239218 -0.0949465 0.177197
-0.222087 0.0127099 -0.0237203
-0.0702406 0.112657 -0.210249
0.0620349 0.297688 -0.17179
0.148475 0.207401 -0.119687
0.144852 -0.00869235 0.00501619
0.0533641 -0.219513 0.126677
-0.0704942 -0.29718 0.171497
-0.151592 -0.194582 0.112289
-0.140736 0.0260474 -0.0150315
-0.0445113 0.230876 -0.133234
