# vtk DataFile Version 3.0
Velocity field
ASCII
DATASET STRUCTURED_POINTS
DIMENSIONS 10 10 10
SPACING 0.631579 0.631579 0.631579
ORIGIN 0 0 0
POINT_DATA 1000
VECTORS velocity float
0 0.0104559 0
0 0.00843888 0
0 0.00316613 0
0 -0.00332815 0
0 -0.0085384 0
0 -0.0104545 0
0 -0.00833713 0
0 -0.00300326 0
0 0.00348928 0
0 0.00863564 0
0 0.00642191 0.00819032
0 0.0051831 0.00686957
0 0.00194461 0.00257735
0 -0.00204412 -0.00270924
0 -0.00524422 -0.00695057
0 -0.00642106 -0.00851033
0 -0.0051206 -0.00678674
0 -0.00184458 -0.00244477
0 0.00214309 0.00284041
0 0.00530394 0.0067645
0 -8.9658e-05 0.0132208
0 -7.23626e-05 0.0110888
0 -2.71492e-05 0.00416033
0 2.85385e-05 -0.00437323
0 7.32159e-05 -0.0112196
0 8.96461e-05 -0.0137373
0 7.14901e-05 -0.0109551
0 2.57527e-05 -0.00394633
0 -2.99203e-05 0.00458496
0 -7.40498e-05 0.0109192
0 -0.00656663 0.0131505
0 -0.00529991 0.0110299
0 -0.00198844 0.00413823
0 0.00209019 -0.00435
0 0.0053624 -0.01116
0 0.00656576 -0.0136643
0 0.005236 -0.0108969
0 0.00188615 -0.00392537
0 -0.00219139 0.00456061
0 -0.00542348 0.0108612
0 -0.0105102 0.00800672
0 -0.00848271 0.00671558
0 -0.00318257 0.00251957
0 0.00334543 -0.00264851
0 0.00858274 -0.00679477
0 0.0105088 -0.00831956
0 0.00838042 -0.0066346
0 0.00301886 -0.00238997
0 -0.0035074 0.00277674
0 -0.00868048 0.00661286
0 -0.0103988 -0.000226131
0 -0.00839282 -0.000189665
0 -0.00314884 -7.11594e-05
0 0.00330998 7.48008e-05
0 0.00849179 0.000191902
0 0.0103974 0.000234966
0 0.00829162 0.000187379
0 0.00298687 6.7499e-05
0 -0.00347024 -7.84223e-05
0 -0.0085885 -0.000186765
0 -0.00627548 -0.00837174
0 -0.00506492 -0.00702173
0 -0.00190027 -0.00263444
0 0.00199751 0.00276925
0 0.00512464 0.00710453
0 0.00627465 0.00869884
0 0.00500384 0.00693707
0 0.00180252 0.00249892
0 -0.00209423 -0.00290332
0 -0.00518301 -0.00691434
0 0.000268953 -0.0132875
0 0.000217071 -0.0111448
0 8.14413e-05 -0.00418133
0 -8.56089e-05 0.0043953
0 -0.00021963 0.0112762
0 -0.000268917 0.0138066
0 -0.000214453 0.0110104
0 -7.7252e-05 0.00396624
0 8.97537e-05 -0.0046081
0 0.000222132 -0.0109743
0 0.00670961 -0.0130768
0 0.0054153 -0.0109681
0 0.00203173 -0.00411503
0 -0.0021357 0.00432561
0 -0.00547916 0.0110974
0 -0.00670872 0.0135877
0 -0.00535001 0.0108358
0 -0.00192722 0.00390336
0 0.0022391 -0.00453504
0 0.00554156 -0.0108003
0 0.0105617 -0.007821
0 0.00852428 -0.0063123
0 0.00319816 -0.00236827
0 -0.00336182 0.00248946
0 -0.0086248 0.00638673
0 -0.0105603 0.00781996
0 -0.00842149 0.00623618
0 -0.00303365 0.00224645
0 0.00352459 -0.00260999
0 0.00872302 -0.00645947
0 0.00843888 0
0 0.00716527 0
0 0.00268829 0
0 -0.00282586 0
0 -0.00724976 0
0 -0.00887666 0
0 -0.00707887 0
0 -0.00255 0
0 0.00296267 0
0 0.00696976 0
0.00119086 0.0051831 0.00906438
0.00311602 0.00418739 0.00732279
0.0038379 0.00157104 0.00274739
0.00307908 -0.00165143 -0.00288798
0.00113233 -0.00423677 -0.00740914
-0.00125128 -0.00518753 -0.0090718
-0.00315213 -0.0041369 -0.0072345
-0.00383688 -0.00149023 -0.00260607
-0.00304132 0.00173139 0.0030278
-0.00107141 0.00428078 0.0074864
0.00192228 -7.23626e-05 0.0146317
0.00502986 -5.84575e-05 0.0118204
0.0061951 -2.19323e-05 0.00443481
0.00497023 2.30546e-05 -0.00466176
0.00182781 5.91468e-05 -0.0119598
-0.0020198 7.24198e-05 -0.0146436
-0.00508815 5.77526e-05 -0.0116779
-0.00619346 2.08041e-05 -0.00420669
-0.00490928 -2.41708e-05 0.00488746
-0.00172946 -5.9765e-05 0.0120845
0.00191207 -0.00529991 0.0145539
0.00500314 -0.00428149 0.0117576
0.0061622 -0.00160634 0.00441125
0.00494383 0.00168855 -0.00463699
0.0018181 0.00433198 -0.0118963
-0.00200907 0.00530411 -0.0145658
-0.00506112 0.00422987 -0.0116158
-0.00616056 0.00152371 -0.00418434
-0.0048832 -0.0017703 0.00486149
-0.00172028 -0.00437725 0.0120203
0.00116417 -0.00848271 0.00886119
0.00304617 -0.00685269 0.00715864
0.00375187 -0.00257102 0.0026858
0.00301006 0.00270258 -0.00282324
0.00110695 0.0069335 -0.00724306
-0.00122323 0.00848943 -0.00886845
-0.00308148 0.00677007 -0.00707232
-0.00375087 0.00243877 -0.00254765
-0.00297315 -0.00283343 0.00295993
-0.00104739 -0.00700596 0.00731858
-3.28792e-05 -0.00839282 -0.000250264
-8.6032e-05 -0.00678008 -0.000202179
-0.000105963 -0.00254377 -7.58542e-05
-8.50121e-05 0.00267394 7.97359e-05
-3.12633e-05 0.00686003 0.000204563
3.45472e-05 0.00839947 0.000250469
8.70291e-05 0.00669833 0.000199741
0.000105935 0.00241292 7.19523e-05
8.39696e-05 -0.0028034 -8.35963e-05
2.95812e-05 -0.00693171 -0.000206696
-0.00121724 -0.00506492 -0.00926516
-0.00318505 -0.00409166 -0.00748499
-0.00392291 -0.00153512 -0.00280824
-0.00314729 0.00161368 0.00295195
-0.00115742 0.00413991 0.00757326
0.00127899 0.00506893 0.00927275
0.00322196 0.00404232 0.00739474
0.00392187 0.00145616 0.00266379
0.00310869 -0.0016918 -0.00309487
0.00109514 -0.00418317 -0.00765223
-0.00193198 0.000217071 -0.0147055
-0.00505524 0.000175359 -0.01188
-0.00622637 6.57917e-05 -0.00445719
-0.00499532 -6.91585e-05 0.00468528
-0.00183703 -0.000177427 0.0120201
0.00202999 -0.000217243 0.0147175
0.00511383 -0.000173245 0.0117368
0.00622471 -6.24075e-05 0.00422792
0.00493406 7.25069e-05 -0.00491212
0.00173819 0.000179281 -0.0121455
-0.00190135 0.0054153 -0.0144723
-0.00497509 0.00437471 -0.0116917
-0.00612765 0.00164132 -0.00438652
-0.00491611 -0.00172531 0.00461099
-0.0018079 -0.0044263 0.0118296
0.00199781 -0.00541959 0.0144842
0.00503275 -0.00432196 0.0115507
0.00612602 -0.00155689 0.00416088
0.00485582 0.00180884 -0.00483424
0.00171063 0.00447256 -0.0119529
-0.00113716 0.00852428 -0.00865564
-0.00297276 0.00687991 -0.00698594
-0.00366145 0.00258123 -0.00262101
-0.00293752 -0.00271332 0.00275513
-0.00108027 -0.00696104 0.00706832
0.00119375 -0.00852315 0.00865449
0.00300721 -0.00679696 0.0069017
0.00366047 -0.00244845 0.00248618
0.0029015 0.00284468 -0.00288852
0.0010231 0.00704032 -0.00714882
0 0.00316613 0
0 0.00268829 0
0 0.0010086 0
0 -0.00106021 0
0 -0.00271999 0
0 -0.00333037 0
0 -0.00265587 0
0 -0.000956719 0
0 0.00111155 0
0 0.00261494 0
0.00192228 0.00194461 0.00644134
0.00502986 0.00157104 0.00520359
0.00619511 0.000589428 0.0019523
0.00497023 -0.00061959 -0.0020522
0.00182781 -0.00158957 -0.00526495
-0.0020198 -0.00194627 -0.00644644
-0.00508815 -0.0015521 -0.00514085
-0.00619346 -0.000559108 -0.00185188
-0.00490928 0.000649588 0.00215156
-0.00172946 0.00160607 0.00531999
0.00310293 -2.71492e-05 0.0103976
0.00811916 -2.19323e-05 0.00839959
0.0100001 -8.22862e-06 0.00315139
0.00802291 8.6497e-06 -0.00331265
0.00295043 2.21909e-05 -0.00849865
-0.00326035 2.71707e-05 -0.0104058
-0.00821326 2.16678e-05 -0.00829832
-0.00999744 7.80535e-06 -0.00298928
-0.00792453 -9.06848e-06 0.00347304
-0.00279169 -2.24228e-05 0.00858749
0.00308645 -0.00198844 0.0103423
0.00807604 -0.00160634 0.00835497
0.00994697 -0.000602673 0.00313465
0.00798029 0.000633514 -0.00329506
0.00293476 0.00162529 -0.0084535
-0.00324303 0.00199001 -0.0103505
-0.00816963 0.00158698 -0.00825424
-0.00994433 0.000571673 -0.00297341
-0.00788243 -0.000664186 0.00345459
-0.00277686 -0.00164227 0.00854187
0.00187919 -0.00318257 0.00629695
0.00491711 -0.00257102 0.00508694
0.00605624 -0.000964602 0.00190854
0.00485882 0.00101396 -0.0020062
0.00178683 0.00260134 -0.00514693
-0.00197452 0.00318509 -0.00630194
-0.00497409 0.00254002 -0.00502561
-0.00605463 0.000914984 -0.00181036
-0.00479923 -0.00106306 0.00210333
-0.0016907 -0.00262852 0.00520073
-5.30733e-05 -0.00314884 -0.000177843
-0.000138872 -0.00254377 -0.000143669
-0.000171044 -0.00095438 -5.39022e-05
-0.000137226 0.00100322 5.66605e-05
-5.04649e-05 0.00257377 0.000145363
5.57658e-05 0.00315134 0.000177984
0.000140482 0.0025131 0.000141937
0.000170999 0.000905288 5.11295e-05
0.000135543 -0.00105179 -5.94037e-05
4.77498e-05 -0.00260066 -0.000146883
-0.00196486 -0.00190027 -0.00658402
-0.00514127 -0.00153512 -0.00531885
-0.00633233 -0.000575952 -0.00199554
-0.00508033 0.000605425 0.00209766
-0.00186829 0.00155322 0.00538157
0.00206454 0.00190178 0.00658924
0.00520086 0.00151661 0.00525472
0.00633065 0.000546325 0.0018929
0.00501803 -0.000634737 -0.00219922
0.00176777 -0.00156945 -0.00543783
-0.00311859 8.14413e-05 -0.01045
-0.00816014 6.57917e-05 -0.00844198
-0.0100506 2.4684e-05 -0.00316729
-0.0080634 -2.59471e-05 0.00332937
-0.00296532 -6.65676e-05 0.00854154
0.0032768 -8.15059e-05 0.0104583
0.00825471 -6.49985e-05 0.0083402
0.0100479 -2.34142e-05 0.00300437
0.00796452 2.72034e-05 -0.00349056
0.00280578 6.72632e-05 -0.00863082
-0.00306914 0.00203173 -0.0102843
-0.00803075 0.00164132 -0.00830813
-0.0098912 0.000615795 -0.00311707
-0.00793555 -0.000647307 0.00327658
-0.0029183 -0.00166067 0.00840611
0.00322485 -0.00203334 0.0102925
0.00812382 -0.00162153 0.00820796
0.00988857 -0.000584119 0.00295673
0.00783824 0.000678647 -0.00343522
0.00276129 0.00167803 -0.00849398
-0.0018356 0.00319816 -0.00615088
-0.00479861 0.00258123 -0.00496435
-0.00591028 0.000968432 -0.00186254
-0.00474172 -0.00101799 0.00195785
-0.00174377 -0.00261166 0.00502289
0.00192694 -0.00319774 0.00615006
0.00485422 -0.0025501 0.00490449
0.00590871 -0.000918617 0.00176673
0.00468357 0.00106728 -0.00205264
0.00165148 0.00264141 -0.0050801
0 -0.00332815 0
0 -0.00282586 0
0 -0.00106021 0
0 0.00111447 0
0 0.00285918 0
0 0.0035008 0
0 0.00279178 0
0 0.00100568 0
0 -0.00116843 0
0 -0.00274875 0
0.00191207 -0.00204412 0.00133318
0.00500314 -0.00165143 0.001077
0.0061622 -0.00061959 0.000404072
0.00494383 0.000651297 -0.000424749
0.0018181 0.00167091 -0.0010897
-0.00200907 0.00204587 -0.00133423
-0.00506112 0.00163152 -0.00106401
-0.00616056 0.000587719 -0.000383287
-0.0048832 -0.000682829 0.000445314
-0.00172028 -0.00168826 0.00110109
0.00308645 2.85385e-05 0.002152
0.00807604 2.30546e-05 0.00173848
0.00994697 8.6497e-06 0.000652249
0.00798029 -9.09233e-06 -0.000685627
0.00293476 -2.33265e-05 -0.00175898
-0.00324303 -2.85611e-05 -0.00215371
-0.00816963 -2.27766e-05 -0.00171752
-0.00994433 -8.20477e-06 -0.000618698
-0.00788243 9.53254e-06 0.000718822
-0.00277686 2.35703e-05 0.00177737
0.00307005 0.00209019 0.00214057
0.00803313 0.00168854 0.00172925
0.00989413 0.000633514 0.000648785
0.0079379 -0.000665933 -0.000681985
0.00291917 -0.00170846 -0.00174964
-0.0032258 -0.00209185 -0.00214227
-0.00812623 -0.00166819 -0.0017084
-0.0098915 -0.000600927 -0.000615412
-0.00784056 0.000698174 0.000715003
-0.00276211 0.00172631 0.00176793
0.00186921 0.00334543 0.00130329
0.00489099 0.00270258 0.00105286
0.00602406 0.00101396 0.000395014
0.00483301 -0.00106585 -0.000415228
0.00177734 -0.00273445 -0.00106527
-0.00196404 -0.00334808 -0.00130433
-0.00494767 -0.00267 -0.00104016
-0.00602246 -0.000961806 -0.000374695
-0.00477374 0.00111745 0.000435331
-0.00168171 0.00276303 0.00107641
-5.27914e-05 0.00330998 -3.68084e-05
-0.000138134 0.00267394 -2.97354e-05
-0.000170136 0.00100322 -1.11562e-05
-0.000136497 -0.00105456 1.17271e-05
-5.01968e-05 -0.00270548 3.00861e-05
5.54696e-05 -0.0033126 3.68376e-05
0.000139736 -0.0026417 2.93769e-05
0.00017009 -0.000951614 1.05824e-05
0.000134823 0.00110561 -1.22949e-05
4.74961e-05 0.00273375 -3.04006e-05
-0.00195442 0.00199751 -0.00136271
-0.00511396 0.00161368 -0.00110085
-0.00629869 0.000605425 -0.000413022
-0.00505334 -0.000636407 0.000434158
-0.00185837 -0.00163271 0.00111384
0.00205357 -0.0019991 0.00136379
0.00517323 -0.00159422 0.00108758
0.00629702 -0.000574282 0.000391777
0.00499137 0.000667218 -0.000455178
0.00175838 0.00164977 -0.00112548
-0.00310202 -8.56089e-05 -0.00216286
-0.00811679 -6.91585e-05 -0.00174726
-0.00999717 -2.59471e-05 -0.000655541
-0.00802056 2.72749e-05 0.000689087
-0.00294957 6.99741e-05 0.00176786
0.00325939 8.56767e-05 0.00216458
0.00821085 6.83247e-05 0.00172619
0.00999452 2.46124e-05 0.000621821
0.00792221 -2.85954e-05 -0.000722449
0.00279087 -7.07052e-05 -0.00178634
-0.00305284 -0.0021357 -0.00212857
-0.00798809 -0.00172531 -0.00171955
-0.00983866 -0.000647307 -0.000645147
-0.00789339 0.000680432 0.000678162
-0.0029028 0.00174566 0.00173983
0.00320771 0.00213739 0.00213026
0.00808067 0.00170451 0.00169882
0.00983604 0.00061401 0.000611962
0.0077966 -0.000713375 -0.000710995
0.00274662 -0.0017639 -0.00175802
-0.00182585 -0.00336182 -0.00127306
-0.00477312 -0.00271332 -0.00102748
-0.00587888 -0.00101799 -0.000385494
-0.00471653 0.00107008 0.000405221
-0.00173451 0.00274531 0.0010396
0.0019167 0.00336138 0.00127289
0.00482843 0.0026806 0.00101509
0.00587732 0.000965626 0.000365665
0.00465869 -0.00112189 -0.00042484
0.00164271 -0.00277658 -0.00105144
0 -0.0085384 0
0 -0.00724977 0
0 -0.00271999 0
0 0.00285918 0
0 0.00733526 0
0 0.00898134 0
0 0.00716235 0
0 0.00258008 0
0 -0.00299761 0
0 -0.00705195 0
0.00116417 -0.00524422 -0.00428933
0.00304617 -0.00423677 -0.00346511
0.00375187 -0.00158957 -0.00130005
0.00301006 0.00167091 0.00136658
0.00110695 0.00428674 0.00350597
-0.00122323 0.00524871 0.00429273
-0.00308148 0.00418569 0.00342333
-0.00375087 0.0015078 0.00123318
-0.00297315 -0.00175181 -0.00143274
-0.00104739 -0.00433125 -0.00354262
0.00187919 7.32159e-05 -0.00692381
0.00491711 5.91468e-05 -0.00559335
0.00605624 2.21909e-05 -0.00209853
0.00485882 -2.33265e-05 0.00220592
0.00178683 -5.98444e-05 0.00565931
-0.00197452 -7.32738e-05 0.0069293
-0.00497409 -5.84337e-05 0.00552591
-0.00605463 -2.10494e-05 0.00199059
-0.00479923 2.44558e-05 -0.00231272
-0.0016907 6.04698e-05 -0.00571847
0.00186921 0.0053624 -0.00688703
0.00489099 0.00433198 -0.00556364
0.00602406 0.00162529 -0.00208738
0.00483301 -0.00170846 0.0021942
0.00177734 -0.00438307 0.00562925
-0.00196404 -0.00536665 0.00689249
-0.00494767 -0.00427975 0.00549655
-0.00602246 -0.00154168 0.00198001
-0.00477374 0.00179117 -0.00230043
-0.00168171 0.00442886 -0.00568809
0.00113807 0.00858274 -0.00419318
0.00297789 0.0069335 -0.00338743
0.00366776 0.00260134 -0.00127091
0.00294258 -0.00273445 0.00133594
0.00108214 -0.00701527 0.00342738
-0.00119581 -0.00858954 0.00419651
-0.0030124 -0.0068499 0.00334659
-0.00366679 -0.00246752 0.00120553
-0.0029065 0.00286684 -0.00140062
-0.00102392 0.00708857 -0.00346321
-3.21421e-05 0.00849179 0.000118427
-8.41035e-05 0.00686003 9.56701e-05
-0.000103587 0.00257377 3.58938e-05
-8.31065e-05 -0.00270548 -3.77306e-05
-3.05625e-05 -0.00694093 -9.67983e-05
3.37728e-05 -0.00849852 -0.00011852
8.50782e-05 -0.00677732 -9.45166e-05
0.00010356 -0.00244138 -3.40475e-05
8.20873e-05 0.00283646 3.95574e-05
2.89181e-05 0.00701345 9.78102e-05
-0.00118995 0.00512464 0.00438434
-0.00311365 0.00413991 0.00354186
-0.00383497 0.00155322 0.00132885
-0.00307674 -0.00163271 -0.00139685
-0.00113147 -0.00418873 -0.00358363
0.00125032 -0.00512871 -0.00438782
0.00314973 -0.00408999 -0.00349916
0.00383395 -0.00147333 -0.00126049
0.003039 0.00171175 0.00146448
0.00107059 0.0042325 0.00362109
-0.00188867 -0.00021963 0.00695875
-0.00494192 -0.000177427 0.00562158
-0.00608679 -6.65676e-05 0.00210912
-0.00488334 6.99741e-05 -0.00221705
-0.00179585 0.000179519 -0.00568787
0.00198449 0.000219805 -0.00696426
0.0049992 0.000175288 -0.0055538
0.00608518 6.31435e-05 -0.00200063
0.00482345 -7.33619e-05 0.00232439
0.00169923 -0.000181395 0.00574733
-0.00185873 -0.00547916 0.00684842
-0.00486357 -0.0044263 0.00553245
-0.00599029 -0.00166067 0.00207568
-0.00480591 0.00174566 -0.0021819
-0.00176738 0.0044785 -0.00559769
0.00195302 0.0054835 -0.00685384
0.00491993 0.00437293 -0.00546574
0.00598869 0.00157525 -0.00196891
0.00474697 -0.00183017 0.00228754
0.00167229 -0.0045253 0.0056562
-0.00111167 -0.0086248 0.00409591
-0.00290612 -0.00696104 0.0033058
-0.00357937 -0.00261166 0.00124028
-0.00287167 0.00274531 -0.00130375
-0.00105606 0.00704313 -0.00334478
0.00116699 0.00862365 -0.00409537
0.0029398 0.00687711 -0.00326594
0.00357842 0.00247732 -0.00117648
0.00283646 -0.00287823 0.00136687
0.00100016 -0.00712334 0.00338287
0 -0.0104545 0
0 -0.00887666 0
0 -0.00333037 0
0 0.0035008 0
0 0.00898134 0
0 0.0109968 0
0 0.00876963 0
0 0.00315906 0
0 -0.00367029 0
0 -0.00863445 0
-3.28792e-05 -0.00642106 -0.00825698
-8.6032e-05 -0.00518753 -0.00667035
-0.000105963 -0.00194627 -0.0025026
-8.50121e-05 0.00204587 0.00263067
-3.12633e-05 0.00524871 0.00674901
3.45472e-05 0.00642655 0.00826353
8.70291e-05 0.00512499 0.00658993
0.000105935 0.00184616 0.00237387
8.39696e-05 -0.00214492 -0.00275803
2.95812e-05 -0.00530322 -0.00681956
-5.30733e-05 8.96461e-05 -0.0133284
-0.000138872 7.24198e-05 -0.0107672
-0.000171044 2.71707e-05 -0.00403968
-0.000137226 -2.85611e-05 0.00424641
-5.04649e-05 -7.32738e-05 0.0108942
5.57658e-05 -8.9717e-05 0.0133389
0.000140482 -7.15466e-05 0.0106374
0.000170999 -2.57731e-05 0.00383189
0.000135543 2.99439e-05 -0.004452
4.77498e-05 7.40396e-05 -0.0110081
-5.27914e-05 0.00656576 -0.0132576
-0.000138135 0.00530411 -0.01071
-0.000170136 0.00199001 -0.00401822
-0.000136497 -0.00209185 0.00422385
-5.01968e-05 -0.00536665 0.0108363
5.54696e-05 -0.00657097 0.0132681
0.000139736 -0.00524015 0.0105809
0.00017009 -0.00188765 0.00381153
0.000134823 0.00219312 -0.00442835
4.74961e-05 0.00542273 -0.0109496
-3.21421e-05 0.0105088 -0.00807189
-8.41035e-05 0.00848943 -0.00652082
-0.000103587 0.00318509 -0.0024465
-8.31065e-05 -0.00334808 0.0025717
-3.05625e-05 -0.00858954 0.00659772
3.37728e-05 -0.0105171 0.0080783
8.50782e-05 -0.00838707 0.0064422
0.00010356 -0.00302125 0.00232066
8.20873e-05 0.00351018 -0.00269621
2.89181e-05 0.00867929 -0.00666669
9.07779e-07 0.0103974 0.000227972
2.37531e-06 0.00839947 0.000184165
2.92558e-06 0.00315134 6.90958e-05
2.34715e-06 -0.0033126 -7.26316e-05
8.63165e-07 -0.00849852 -0.000186337
-9.53833e-07 -0.0104056 -0.000228153
-2.40284e-06 -0.0082982 -0.000181945
-2.92481e-06 -0.00298924 -6.55416e-05
-2.31836e-06 0.00347298 7.61481e-05
-8.16724e-07 0.00858732 0.000188285
3.36075e-05 0.00627465 0.00843988
8.79377e-05 0.00506893 0.0068181
0.00010831 0.00190178 0.00255804
8.68952e-05 -0.0019991 -0.00268894
3.19558e-05 -0.00512871 -0.00689851
-3.53124e-05 -0.00627962 -0.00844657
-8.89568e-05 -0.00500781 -0.00673589
-0.000108281 -0.00180395 -0.00242645
-8.58296e-05 0.00209588 0.00281913
-3.02365e-05 0.00518229 0.00697062
5.33411e-05 -0.000268917 0.0133956
0.000139573 -0.000217243 0.0108216
0.000171907 -8.15059e-05 0.00406007
0.000137918 8.56767e-05 -0.00426784
5.07196e-05 0.000219805 -0.0109492
-5.60472e-05 0.00026913 -0.0134063
-0.000141191 0.000214623 -0.0106911
-0.000171862 7.73132e-05 -0.00385122
-0.000136227 -8.98248e-05 0.00447446
-4.79907e-05 -0.000222101 0.0110636
5.24954e-05 -0.00670872 0.0131832
0.00013736 -0.00541959 0.01065
0.000169182 -0.00203334 0.00399569
0.000135732 0.00213739 -0.00420017
4.99154e-05 0.0054835 -0.0107756
-5.51586e-05 0.00671404 -0.0131937
-0.000138952 0.00535424 -0.0105216
-0.000169137 0.00192875 -0.00379016
-0.000134067 -0.00224087 0.00440352
-4.72298e-05 -0.0055408 0.0108882
3.13966e-05 -0.0105603 0.00788466
8.20766e-05 -0.00852315 0.00636368
0.000101091 -0.00319774 0.00238754
8.11036e-05 0.00336138 -0.00250972
2.98259e-05 0.00862365 -0.00643872
-3.29589e-05 0.0105589 -0.00788361
-8.30278e-05 0.00842038 -0.00628694
-0.000101064 0.00303325 -0.00226473
-8.01091e-05 -0.00352412 0.00263123
-2.82473e-05 -0.00872186 0.00651205
0 -0.00833713 0
0 -0.00707888 0
0 -0.00265587 0
0 0.00279178 0
0 0.00716235 0
0 0.00876963 0
0 0.00699352 0
0 0.00251926 0
0 -0.00292695 0
0 -0.00688572 0
-0.00121724 -0.0051206 -0.00903903
-0.00318505 -0.0041369 -0.00730212
-0.00392291 -0.0015521 -0.00273963
-0.00314729 0.00163152 0.00287983
-0.00115742 0.00418569 0.00738823
0.00127899 0.00512499 0.0090462
0.00322196 0.00408702 0.00721408
0.00392187 0.00147226 0.00259871
0.00310869 -0.00171051 -0.00301926
0.00109514 -0.00422916 -0.00746546
-0.00196486 7.14901e-05 -0.0145907
-0.00514127 5.77526e-05 -0.011787
-0.00633233 2.16678e-05 -0.00442229
-0.00508033 -2.27766e-05 0.0046486
-0.00186829 -5.84337e-05 0.011926
0.00206454 -7.15466e-05 0.0146023
0.00520086 -5.70563e-05 0.0116449
0.00633065 -2.05532e-05 0.00419482
0.00501803 2.38794e-05 -0.00487366
0.00176777 5.90444e-05 -0.0120507
-0.00195442 0.005236 -0.0145132
-0.00511397 0.00422987 -0.0117244
-0.00629869 0.00158698 -0.0043988
-0.00505334 -0.00166819 0.0046239
-0.00185837 -0.00427975 0.0118627
0.00205357 -0.00524015 0.0145247
0.00517323 -0.00417887 0.011583
0.00629702 -0.00150534 0.00417253
0.00499137 0.00174895 -0.00484777
0.00175838 0.00432447 -0.0119867
-0.00118995 0.00838042 -0.00883641
-0.00311365 0.00677007 -0.00713843
-0.00383497 0.00254002 -0.00267822
-0.00307674 -0.00267 0.00281527
-0.00113147 -0.0068499 0.00722262
0.00125032 -0.00838707 0.00884341
0.00314973 -0.00668844 0.00705236
0.00383395 -0.00240936 0.00254046
0.003039 0.00279927 -0.00295157
0.00107059 0.00692148 -0.00729811
3.36075e-05 0.00829162 0.000249564
8.79377e-05 0.00669833 0.000201608
0.00010831 0.0025131 7.56401e-05
8.68952e-05 -0.0026417 -7.95108e-05
3.19558e-05 -0.00677732 -0.000203986
-3.53124e-05 -0.0082982 -0.000249762
-8.89568e-05 -0.00661756 -0.000199178
-0.000108281 -0.00238383 -7.17492e-05
-8.58296e-05 0.0027696 8.33604e-05
-3.02365e-05 0.00684813 0.000206118
0.0012442 0.00500384 0.00923925
0.00325559 0.00404232 0.00746387
0.0040098 0.00151661 0.00280032
0.003217 -0.00159422 -0.00294362
0.00118305 -0.00408999 -0.00755189
-0.00130732 -0.00500781 -0.00924658
-0.00329333 -0.00399358 -0.00737387
-0.00400874 -0.0014386 -0.00265627
-0.00317755 0.00167141 0.00308614
-0.0011194 0.00413273 0.00763083
0.00197477 -0.000214453 0.0146644
0.00516722 -0.000173245 0.0118465
0.00636429 -6.49985e-05 0.00444461
0.00510597 6.83247e-05 -0.00467206
0.00187772 0.000175288 -0.0119862
-0.00207496 0.000214623 -0.014676
-0.00522711 0.000171156 -0.0117037
-0.0063626 6.16551e-05 -0.00421599
-0.00504335 -7.16326e-05 0.00489826
-0.00177669 -0.000177119 0.0121115
0.00194346 -0.00535001 0.0144319
0.00508529 -0.00432196 0.0116587
0.00626338 -0.00162153 0.00437414
0.00502501 0.00170451 -0.00459798
0.00184795 0.00437293 -0.0117962
-0.00204206 0.00535424 -0.0144433
-0.00514423 0.00426985 -0.0115181
-0.00626172 0.00153812 -0.00414914
-0.00496338 -0.00178703 0.00482059
-0.00174852 -0.00441863 0.0119195
0.00116235 -0.00842149 0.00863144
0.00303861 -0.00679696 0.0069664
0.00374255 -0.0025501 0.00261368
0.00300259 0.0026806 -0.00274743
0.0011042 0.00687711 -0.00704855
-0.00122019 0.00842038 -0.00863029
-0.00307382 0.006715 -0.0068824
-0.00374156 0.00241893 -0.00247923
-0.00296577 -0.00281038 0.00288045
-0.00104576 -0.00695543 0.00712882
0 -0.00300326 0
0 -0.00255001 0
0 -0.000956719 0
0 0.00100568 0
0 0.00258008 0
0 0.00315906 0
0 0.00251926 0
0 0.000907507 0
0 -0.00105437 0
0 -0.00248043 0
-0.00193198 -0.00184458 -0.00633375
-0.00505524 -0.00149023 -0.00511668
-0.00622637 -0.000559108 -0.00191969
-0.00499532 0.000587719 0.00201793
-0.00183703 0.0015078 0.00517702
0.00202999 0.00184616 0.00633877
0.00511383 0.00147226 0.00505498
0.00622471 0.000530348 0.00182094
0.00493406 -0.000616174 -0.00211563
0.00173819 -0.00152346 -0.00523113
-0.00311859 2.57527e-05 -0.0102239
-0.00816014 2.08041e-05 -0.0082593
-0.0100506 7.80535e-06 -0.00309875
-0.0080634 -8.20477e-06 0.00325732
-0.00296532 -2.10494e-05 0.0083567
0.0032768 -2.57731e-05 0.010232
0.00825471 -2.05532e-05 0.00815972
0.0100479 -7.40385e-06 0.00293935
0.00796452 8.60201e-06 -0.00341503
0.00280578 2.12694e-05 -0.00844406
-0.00310202 0.00188615 -0.0101696
-0.00811679 0.00152371 -0.00821543
-0.00999717 0.000571673 -0.00308229
-0.00802056 -0.000600927 0.00324002
-0.00294957 -0.00154168 0.00831231
0.00325939 -0.00188765 0.0101776
0.00821085 -0.00150534 0.00811637
0.00999451 -0.000542266 0.00292374
0.00792221 0.000630021 -0.00339689
0.00279087 0.00155779 -0.0083992
-0.00188867 0.00301886 -0.00619177
-0.00494192 0.00243877 -0.00500198
-0.00608679 0.000914984 -0.00187666
-0.00488334 -0.000961806 0.00197269
-0.00179585 -0.00246752 0.00506097
0.00198449 -0.00302125 0.00619668
0.0049992 -0.00240936 0.00494167
0.00608518 -0.000867918 0.00178013
0.00482345 0.00100837 -0.0020682
0.00169923 0.00249331 -0.00511387
5.33411e-05 0.00298687 0.000174872
0.000139573 0.00241292 0.000141269
0.000171907 0.000905288 5.30019e-05
0.000137918 -0.000951614 -5.57141e-05
5.07196e-05 -0.00244138 -0.000142935
-5.60472e-05 -0.00298924 -0.000175011
-0.000141191 -0.00238383 -0.000139566
-0.000171862 -0.000858721 -5.02755e-05
-0.000136227 0.000997687 5.84115e-05
-4.79907e-05 0.00246689 0.000144429
0.00197477 0.00180252 0.00647405
0.00516722 0.00145616 0.00523002
0.00636429 0.000546325 0.00196221
0.00510597 -0.000574282 -0.00206263
0.00187772 -0.00147333 -0.00529169
-0.00207496 -0.00180395 -0.00647918
-0.00522711 -0.0014386 -0.00516695
-0.0063626 -0.000518223 -0.00186128
-0.00504335 0.000602086 0.00216249
-0.00177669 0.00148872 0.00534701
0.00313433 -7.7252e-05 0.0102755
0.00820131 -6.24075e-05 0.00830098
0.0101013 -2.34142e-05 0.00311439
0.00810409 2.46124e-05 -0.00327376
0.00298029 6.31435e-05 -0.00839888
-0.00329334 7.73132e-05 -0.0102836
-0.00829637 6.1655e-05 -0.00820089
-0.0100986 2.22098e-05 -0.00295419
-0.00800471 -2.58041e-05 0.00343226
-0.00281994 -6.38032e-05 0.00848667
0.00308463 -0.00192722 0.0101126
0.00807128 -0.00155689 0.00816937
0.00994112 -0.000584119 0.00306501
0.0079756 0.00061401 -0.00322186
0.00293303 0.00157525 -0.00826571
-0.00324112 0.00192875 -0.0101206
-0.00816482 0.00153812 -0.00807087
-0.00993848 0.000554073 -0.00290735
-0.00787779 -0.000643738 0.00337784
-0.00277523 -0.00159171 0.00835211
0.00184486 -0.00303365 0.00604815
0.00482282 -0.00244845 0.00488144
0.00594011 -0.000918617 0.00183143
0.00476565 0.000965626 -0.00192515
0.00175257 0.00247732 -0.004939
-0.00193666 0.00303325 -0.00604734
-0.00487872 0.00241893 -0.00482258
-0.00593853 0.000871365 -0.00173723
-0.00470721 -0.00101238 0.00201836
-0.00165981 -0.00250554 0.00499525
0 0.00348928 0
0 0.00296267 0
0 0.00111154 0
0 -0.00116842 0
0 -0.00299761 0
0 -0.00367029 0
0 -0.00292695 0
0 -0.00105437 0
0 0.001225 0
0 0.00288183 0
-0.00190135 0.00214309 -0.00118487
-0.00497509 0.00173139 -0.000957189
-0.00612765 0.000649588 -0.000359121
-0.00491611 -0.000682829 0.000377499
-0.0018079 -0.00175181 0.000968477
0.00199781 -0.00214492 0.00118581
0.00503275 -0.00171051 0.000945648
0.00612602 -0.000616174 0.000340648
0.00485582 0.000715888 -0.000395775
0.00171063 0.00177 -0.000978599
-0.00306914 -2.99203e-05 -0.0019126
-0.00803075 -2.41708e-05 -0.00154509
-0.0098912 -9.06848e-06 -0.000579691
-0.00793555 9.53254e-06 0.000609356
-0.0029183 2.44558e-05 0.00156331
0.00322485 2.99439e-05 0.00191413
0.00812382 2.38794e-05 0.00152646
0.00988857 8.602e-06 0.000549872
0.00783824 -9.99406e-06 -0.000638857
0.00276129 -2.47115e-05 -0.00157965
-0.00305284 -0.00219139 -0.00190244
-0.00798809 -0.0017703 -0.00153688
-0.00983866 -0.000664185 -0.000576611
-0.0078934 0.000698174 0.000606118
-0.0029028 0.00179117 0.001555
0.00320771 0.00219312 0.00190396
0.00808067 0.00174895 0.00151835
0.00983604 0.00063002 0.000546951
0.0077966 -0.000731976 -0.000635464
0.00274662 -0.00180989 -0.00157126
-0.00185873 -0.0035074 -0.00115831
-0.00486357 -0.00283343 -0.000935732
-0.00599029 -0.00106305 -0.000351071
-0.00480591 0.00111745 0.000369036
-0.00176738 0.00286684 0.000946767
0.00195302 0.00351018 0.00115923
0.00491993 0.00279926 0.00092445
0.00598869 0.00100837 0.000333012
0.00474697 -0.00117156 -0.000386903
0.00167229 -0.0028968 -0.000956662
5.24954e-05 -0.00347024 3.27137e-05
0.00013736 -0.0028034 2.64276e-05
0.000169182 -0.00105179 9.91518e-06
0.000135732 0.00110561 -1.04226e-05
4.99154e-05 0.00283646 -2.67392e-05
-5.51586e-05 0.00347298 -3.27397e-05
-0.000138952 0.0027696 -2.61089e-05
-0.000169137 0.000997687 -9.40516e-06
-0.000134067 -0.00115914 1.09272e-05
-4.72298e-05 -0.0028661 2.70187e-05
0.00194346 -0.00209423 0.00121111
0.00508529 -0.0016918 0.000978392
0.00626338 -0.000634736 0.000367076
0.00502501 0.000667218 -0.000385861
0.00184795 0.00171175 -0.000989929
-0.00204206 0.00209588 -0.00121208
-0.00514423 0.00167141 -0.000966595
-0.00626172 0.000602086 -0.000348194
-0.00496338 -0.000699521 0.000404542
-0.00174852 -0.00172964 0.00100028
0.00308463 8.97537e-05 0.00192226
0.00807128 7.25068e-05 0.00155288
0.00994112 2.72033e-05 0.000582616
0.0079756 -2.85954e-05 -0.000612431
0.00293303 -7.33619e-05 -0.0015712
-0.00324112 -8.98248e-05 -0.00192378
-0.00816482 -7.16326e-05 -0.00153416
-0.00993848 -2.5804e-05 -0.000552647
-0.00787779 2.99799e-05 0.000642081
-0.00277523 7.41285e-05 0.00158762
0.00303572 0.0022391 0.00189178
0.00794331 0.00180884 0.00152826
0.0097835 0.000678646 0.000573379
0.00784914 -0.000713375 -0.00060272
0.00288653 -0.00183017 -0.00154628
-0.00318973 -0.00224087 -0.00189328
-0.00803536 -0.00178703 -0.00150984
-0.0097809 -0.000643738 -0.000543885
-0.00775289 0.000747913 0.000631901
-0.00273122 0.0018493 0.00156245
0.00181561 0.00352459 0.00113144
0.00474636 0.00284468 0.00091318
0.00584592 0.00106728 0.00034261
0.00469009 -0.00112189 -0.000360142
0.00172478 -0.00287823 -0.000923948
-0.00190596 -0.00352412 -0.00113129
-0.00480136 -0.00281038 -0.000902169
-0.00584437 -0.00101238 -0.000324986
-0.00463258 0.00117621 0.000377579
-0.0016335 0.00291101 0.000934471
0 0.00863564 0
0 0.00696977 0
0 0.00261494 0
0 -0.00274875 0
0 -0.00705196 0
0 -0.00863447 0
0 -0.00688573 0
0 -0.00248043 0
0 0.00288184 0
0 0.00713227 0
-0.00113716 0.00530394 0.00442115
-0.00297275 0.00428078 0.0035683
-0.00366143 0.00160608 0.00133876
-0.00293751 -0.00168826 -0.00140727
-0.00108027 -0.00433126 -0.00361037
0.00119374 -0.00530322 -0.00442057
0.0030072 -0.00422916 -0.00352527
0.00366046 -0.00152346 -0.0012699
0.00290149 0.00177 0.00147541
0.0010231 0.00438059 0.00365149
-0.0018356 -7.40498e-05 0.00713659
-0.00479859 -5.97651e-05 0.00575992
-0.00591026 -2.24229e-05 0.00216102
-0.0047417 2.35703e-05 -0.00227161
-0.00174376 6.04699e-05 -0.00582784
0.00192693 7.40397e-05 -0.00713565
0.0048542 5.90445e-05 -0.00569047
0.00590869 2.12695e-05 -0.00204986
0.00468356 -2.47115e-05 0.00238159
0.00165148 -6.11586e-05 0.00589421
-0.00182585 -0.00542348 0.00709868
-0.0047731 -0.00437725 0.00572932
-0.00587886 -0.00164227 0.00214954
-0.00471651 0.00172631 -0.00225954
-0.0017345 0.00442887 -0.00579688
0.00191669 0.00542274 -0.00709774
0.00482842 0.00432447 -0.00566024
0.0058773 0.00155779 -0.00203897
0.00465868 -0.00180989 0.00236894
0.00164271 -0.00447931 0.0058629
-0.00111167 -0.00868048 0.00432205
-0.00290611 -0.00700596 0.00348831
-0.00357936 -0.00262852 0.00130875
-0.00287166 0.00276303 -0.00137573
-0.00105605 0.00708858 -0.00352944
0.00116698 0.0086793 -0.00432147
0.00293979 0.00692149 -0.00344625
0.0035784 0.00249331 -0.00124143
0.00283644 -0.0028968 0.00144233
0.00100016 -0.00716931 0.00356964
3.13966e-05 -0.0085885 -0.000122066
8.20763e-05 -0.00693172 -9.85191e-05
0.000101091 -0.00260066 -3.69627e-05
8.11033e-05 0.00273375 3.88542e-05
2.98258e-05 0.00701346 9.96809e-05
-3.29587e-05 0.00858733 0.00012205
-8.30275e-05 0.00684814 9.73312e-05
-0.000101064 0.00246689 3.50614e-05
-8.01088e-05 -0.00286611 -4.07354e-05
-2.82473e-05 -0.00709334 -0.000100816
0.00116235 -0.00518301 -0.00451909
0.0030386 -0.00418317 -0.00364734
0.00374254 -0.00156946 -0.00136842
0.00300258 0.00164977 0.00143845
0.0011042 0.0042325 0.00369035
-0.00122019 0.0051823 0.00451849
-0.00307381 0.00413273 0.00360336
-0.00374154 0.00148872 0.00129803
-0.00296576 -0.00172964 -0.00150809
-0.00104576 -0.0042807 -0.00373238
0.00184486 0.000222132 -0.00717261
0.00482281 0.000179281 -0.00578899
0.00594008 6.72633e-05 -0.00217193
0.00476563 -7.07053e-05 0.00228307
0.00175256 -0.000181395 0.00585725
-0.00193666 -0.000222102 0.00717166
-0.0048787 -0.000177119 0.00571918
-0.0059385 -6.38033e-05 0.00206021
-0.00470719 7.41286e-05 -0.00239361
-0.00165981 0.000183461 -0.00592396
0.00181561 0.00554156 -0.00705888
0.00474634 0.00447256 -0.0056972
0.0058459 0.00167803 -0.00213749
0.00469007 -0.0017639 0.00224688
0.00172478 -0.0045253 0.00576438
-0.00190595 -0.00554081 0.00705795
-0.00480135 -0.00441863 0.0056285
-0.00584435 -0.00159171 0.00202754
-0.00463256 0.0018493 -0.00235566
-0.0016335 0.00457684 -0.00583003
0.00108588 0.00872302 -0.00422179
0.00283871 0.00704032 -0.00340739
0.00349634 0.00264141 -0.0012784
0.00280506 -0.00277658 0.00134382
0.00103156 -0.00712334 0.00344757
-0.00113992 -0.00872186 0.00422123
-0.00287161 -0.00695543 0.00336631
-0.00349541 -0.00250554 0.00121264
-0.00277066 0.00291101 -0.00140888
-0.000976965 0.00720447 -0.00348684
