# vtk DataFile Version 3.0
Velocity field
ASCII
DATASET STRUCTURED_POINTS
DIMENSIONS 5 5 5
SPACING 1.33333 1.33333 1.33333
ORIGIN 0 0 0
POINT_DATA 125
VECTORS velocity float
0 0.0541832 0
0 0.0127459 0
0 -0.0481865 0
0 -0.0354165 0
0 0.031524 0
0 -0.0286913 0.0940999
0 -0.00674928 0.025511
0 0.025516 -0.0964454
0 0.0187539 -0.0708862
0 -0.0166927 0.0547477
0 -0.0676817 0.0442717
0 -0.0159213 0.0120023
0 0.0601912 -0.0453752
0 0.0442397 -0.0333502
0 -0.0393775 0.0257574
0 -0.00315125 -0.0732712
0 -0.000741292 -0.0198642
0 0.00280249 0.0750976
0 0.00205979 0.0551957
0 -0.00183341 -0.0426295
0 0.0661992 -0.078744
0 0.0155725 -0.0185235
0 -0.0588727 0.0700291
0 -0.0432707 0.0514705
0 0.0385149 -0.0458135
0 0.0127459 0
0 0.0038152 0
0 -0.0144235 0
0 -0.0106011 0
0 0.00741562 0
0.0402744 -0.00674928 0.0330463
0.0595748 -0.00159629 0.00782305
-0.0124856 0.00603496 -0.029576
-0.065449 0.00443562 -0.0217381
-0.0181983 -0.00392675 0.0192264
0.0189481 -0.0159213 0.0155474
0.0280285 -0.00376745 0.00368056
-0.00587414 0.0142432 -0.0139148
-0.0307922 0.0104686 -0.0102272
-0.00856186 -0.00926305 0.00904556
-0.0313598 -0.000741292 -0.0257316
-0.0463878 -0.000175426 -0.00609143
0.00972186 0.000663218 0.0230293
0.0509618 0.000487458 0.0169263
0.0141702 -0.000431286 -0.0149707
-0.0337021 0.0155725 -0.0276535
-0.0495581 0.00366324 -0.00650514
0.0103863 -0.0138491 0.024593
0.0544446 -0.0101789 0.0180755
0.0152286 0.00906015 -0.0160889
0 -0.0481865 0
0 -0.0144235 0
0 0.0545289 0
0 0.040078 0
0 -0.0280351 0
0.0189481 0.025516 -0.0785525
0.0280285 0.00603496 -0.0185882
-0.00587414 -0.0228158 0.0702744
-0.0307922 -0.0167694 0.051651
-0.00856186 0.0148453 -0.0457021
0.00891462 0.0601912 -0.036957
0.0131867 0.0142432 -0.00874525
-0.00276364 -0.0538481 0.0330624
-0.0144869 -0.0395778 0.0243006
-0.00402814 0.0350194 -0.0215017
-0.014754 0.00280249 0.0611652
-0.0218244 0.000663218 0.0144736
0.00457391 -0.00250737 -0.0547194
0.0239763 -0.00184289 -0.040218
0.00666672 0.0016305 0.0355861
-0.015856 -0.0588727 0.0657337
-0.0233159 -0.0138491 0.015463
0.00488648 0.052357 -0.0584587
0.0256148 0.0384817 -0.0429664
0.00716467 -0.0342523 0.0382441
0 -0.0354165 0
0 -0.0106011 0
0 0.040078 0
0 0.0294568 0
0 -0.0206054 0
-0.0313598 0.0187539 -0.0700033
-0.0463878 0.00443562 -0.0165652
0.00972186 -0.0167694 0.0626264
0.0509618 -0.0123253 0.0460297
0.0141702 0.0109111 -0.0407282
-0.014754 0.0442397 -0.0329348
-0.0218244 0.0104686 -0.0077935
0.00457391 -0.0395778 0.0294641
0.0239763 -0.0290892 0.0216559
0.00666672 0.0257388 -0.0191616
0.0244184 0.00205979 0.0545083
0.03612 0.000487458 0.0128984
-0.00756995 -0.00184289 -0.0487641
-0.0396814 -0.00135451 -0.035841
-0.0110337 0.00119839 0.0317131
0.0262423 -0.0432707 0.0585796
0.0385886 -0.0101789 0.0137801
-0.0080873 0.0384817 -0.0520964
-0.0423935 0.0282836 -0.0382902
-0.0118578 -0.025175 0.0340818
0 0.031524 0
0 0.00741562 0
0 -0.0280351 0
0 -0.0206054 0
0 0.0183408 0
-0.0337021 -0.0166927 0.0456177
-0.0495581 -0.00392675 0.010731
0.0103863 0.0148453 -0.040569
0.0544446 0.0109111 -0.0298177
0.0152286 -0.00971188 0.0265405
-0.015856 -0.0393775 0.021462
-0.0233159 -0.00926306 0.00504867
0.00488648 0.0350194 -0.0190867
0.0256148 0.0257388 -0.0140285
0.00716467 -0.02291 0.0124867
0.0262423 -0.00183341 -0.0355204
0.0385886 -0.000431286 -0.00835572
-0.00808729 0.0016305 0.0315892
-0.0423935 0.00119839 0.0232177
-0.0118578 -0.00106668 -0.0206659
0.0282024 0.0385149 -0.0381734
0.0414709 0.00906015 -0.00897983
-0.00869135 -0.0342523 0.0339487
-0.0455599 -0.025175 0.0249518
-0.0127435 0.0224081 -0.0222094
