# vtk DataFile Version 3.0
Velocity field
ASCII
DATASET STRUCTURED_POINTS
DIMENSIONS 5 5 5
SPACING 1.33333 1.33333 1.33333
ORIGIN 0 0 0
POINT_DATA 125
VECTORS velocity float
0 0.344044 0
0 0.0809321 0
0 -0.305968 0
0 -0.224882 0
0 0.200166 0
0 -0.18218 0.597501
0 -0.0428555 0.161986
0 0.162017 -0.612395
0 0.119081 -0.450102
0 -0.105993 0.347628
0 -0.429755 0.28111
0 -0.101095 0.0762102
0 0.382193 -0.288116
0 0.280907 -0.211762
0 -0.250033 0.163551
0 -0.0200093 -0.465246
0 -0.00470694 -0.126131
0 0.0177948 0.476843
0 0.013079 0.350473
0 -0.0116415 -0.270682
0 0.420341 -0.499996
0 0.09888 -0.117618
0 -0.373821 0.44466
0 -0.274753 0.326819
0 0.244556 -0.2909
0 0.0809321 0
0 0.0242251 0
0 -0.0915843 0
0 -0.0673133 0
0 0.0470865 0
0.255728 -0.0428555 0.209832
0.390493 -0.0104268 0.0513397
-0.0818474 0.0394433 -0.194231
-0.429024 0.0289939 -0.142778
-0.115553 -0.0249335 0.122081
0.120314 -0.101095 0.0987208
0.183718 -0.0246647 0.0241542
-0.0385074 0.0933078 -0.091381
-0.201845 0.068589 -0.0671735
-0.0543648 -0.0588171 0.0574361
-0.199124 -0.00470694 -0.163386
-0.304007 -0.00115202 -0.039969
0.0637199 0.00435854 0.151212
0.334003 0.00320395 0.111155
0.0899757 -0.00273851 -0.0950588
-0.213997 0.09888 -0.17559
-0.314677 0.0232603 -0.0413054
0.0659491 -0.0879367 0.156157
0.345704 -0.0646323 0.114773
0.0966962 0.0575288 -0.102159
0 -0.305968 0
0 -0.0915844 0
0 0.346239 0
0 0.254481 0
0 -0.178013 0
0.120314 0.162017 -0.498781
0.183718 0.0394433 -0.121771
-0.0385074 -0.149211 0.460674
-0.201845 -0.109682 0.338636
-0.0543648 0.0942622 -0.290192
0.0566047 0.382193 -0.234664
0.0864343 0.0933078 -0.0572903
-0.0181167 -0.352993 0.216736
-0.0949628 -0.25948 0.159319
-0.0255773 0.222361 -0.136528
-0.0936828 0.0177948 0.388377
-0.143028 0.00435854 0.0948018
0.0299786 -0.0164903 -0.358644
0.15714 -0.012122 -0.263635
0.0423313 0.0103531 0.225959
-0.10068 -0.373821 0.417386
-0.148048 -0.0879367 0.0981848
0.0310274 0.332449 -0.371192
0.162645 0.244346 -0.272821
0.0454931 -0.21749 0.242836
0 -0.224882 0
0 -0.0673133 0
0 0.254481 0
0 0.18704 0
0 -0.130837 0
-0.199124 0.119081 -0.444496
-0.304007 0.028994 -0.10853
0.0637199 -0.109683 0.41058
0.334003 -0.0806256 0.301812
0.0899757 0.0692815 -0.258609
-0.0936828 0.280907 -0.209124
-0.143028 0.0685893 -0.0510605
0.0299786 -0.259482 0.193168
0.15714 -0.190742 0.141996
0.0423313 0.163432 -0.121669
0.155048 0.013079 0.346108
0.236676 0.00320396 0.0844929
-0.0496071 -0.0121221 -0.319645
-0.260028 -0.00891098 -0.234968
-0.0700599 0.00760938 0.201367
0.166629 -0.274753 0.37196
0.245024 -0.0646323 0.0874989
-0.0513515 0.244346 -0.330794
-0.269184 0.179591 -0.243129
-0.0752928 -0.159853 0.216407
0 0.200166 0
0 0.0470865 0
0 -0.178013 0
0 -0.130837 0
0 0.116457 0
-0.213997 -0.105993 0.289656
-0.314677 -0.0249335 0.068138
0.0659491 0.0942623 -0.257599
0.345704 0.0692815 -0.189332
0.0966962 -0.061667 0.168523
-0.10068 -0.250033 0.136276
-0.148047 -0.0588171 0.0320572
0.0310274 0.222361 -0.121194
0.162645 0.163432 -0.089076
0.0454931 -0.14547 0.0792859
0.166629 -0.0116415 -0.225542
0.245024 -0.00273851 -0.0530559
-0.0513514 0.0103531 0.20058
-0.269183 0.00760938 0.147424
-0.0752928 -0.00677306 -0.131221
0.179075 0.244556 -0.242388
0.263325 0.0575288 -0.0570187
-0.055187 -0.21749 0.215562
-0.289289 -0.159853 0.158435
-0.0809165 0.142284 -0.141022
