# vtk DataFile Version 3.0
Velocity field
ASCII
DATASET STRUCTURED_POINTS
DIMENSIONS 5 5 5
SPACING 1.33333 1.33333 1.33333
ORIGIN 0 0 0
POINT_DATA 125
VECTORS velocity float
0 0.0659369 0
0 0.0155108 0
0 -0.0586395 0
0 -0.0430992 0
0 0.0383623 0
0 -0.0349152 0.114513
0 -0.00821337 0.031045
0 0.0310511 -0.117367
0 0.0228221 -0.0862633
0 -0.0203138 0.0666239
0 -0.0823637 0.0538754
0 -0.019375 0.0146059
0 0.0732482 -0.0552182
0 0.0538365 -0.0405847
0 -0.0479195 0.0313449
0 -0.00383484 -0.0891657
0 -0.000902097 -0.0241733
0 0.00341042 0.0913882
0 0.00250662 0.0671691
0 -0.00223112 -0.0518769
0 0.0805595 -0.0958256
0 0.0189506 -0.0225418
0 -0.0716437 0.0852202
0 -0.0526572 0.0626358
0 0.0468698 -0.0557517
0 0.0155108 0
0 0.00464281 0
0 -0.0175524 0
0 -0.0129008 0
0 0.00902426 0
0.049011 -0.00821337 0.0402149
0.0725897 -0.0019448 0.00953285
-0.0152132 0.00735257 -0.0360403
-0.079747 0.00540406 -0.0264894
-0.022146 -0.00477857 0.0233971
0.0230585 -0.019375 0.0189201
0.0341517 -0.00459043 0.00448497
-0.00715743 0.0173547 -0.0169561
-0.0375192 0.0127556 -0.0124625
-0.0104192 -0.0112725 0.0110078
-0.0381626 -0.000902097 -0.0313134
-0.0565217 -0.000213755 -0.00742274
0.0118457 0.000808132 0.0280627
0.0620949 0.00059397 0.0206259
0.0172441 -0.000524843 -0.0182183
-0.041013 0.0189506 -0.0336523
-0.0603086 0.0044579 -0.00791628
0.0126393 -0.0168533 0.0299279
0.0662551 -0.0123869 0.0219966
0.0185321 0.0110255 -0.019579
0 -0.0586395 0
0 -0.0175524 0
0 0.0663576 0
0 0.048772 0
0 -0.0341166 0
0.0230585 0.0310511 -0.0955926
0.0341517 0.00735257 -0.0226488
-0.00715743 -0.0277973 0.0856268
-0.0375192 -0.0204308 0.0629349
-0.0104192 0.0180656 -0.0556161
0.0108484 0.0732482 -0.0449739
0.0160675 0.0173547 -0.0106557
-0.0033674 -0.065612 0.0402853
-0.0176518 -0.0482241 0.0296094
-0.00490195 0.0426161 -0.026166
-0.0179545 0.00341042 0.0744335
-0.0265922 0.000808132 0.0176354
0.00557314 -0.00305525 -0.0666734
0.0292142 -0.00224558 -0.0490042
0.00811291 0.00198419 0.0433057
-0.0192956 -0.0716437 0.079993
-0.0283737 -0.0168533 0.0188174
0.00594648 0.0637146 -0.0711399
0.0311714 0.0468294 -0.0522869
0.00871888 -0.0416826 0.0465402
0 -0.0430992 0
0 -0.0129008 0
0 0.048772 0
0 0.0358468 0
0 -0.0250753 0
-0.0381626 0.0228221 -0.0851888
-0.0565217 0.00540406 -0.0201839
0.0118457 -0.0204308 0.0763082
0.0620949 -0.0150164 0.0560856
0.0172441 0.013278 -0.0495632
-0.0179545 0.0538365 -0.0400792
-0.0265922 0.0127556 -0.00949604
0.00557314 -0.0482242 0.035901
0.0292142 -0.0354443 0.026387
0.00811291 0.0313222 -0.0233182
0.0297154 0.00250662 0.0663325
0.0440107 0.00059397 0.0157161
-0.00922368 -0.00224558 -0.0594173
-0.0483502 -0.00165049 -0.0436711
-0.0134272 0.00145836 0.0385925
0.0319349 -0.0526572 0.071287
0.0469595 -0.0123869 0.0167694
-0.00984164 0.0468294 -0.0633974
-0.0515897 0.034419 -0.0465963
-0.0144301 -0.0306361 0.041475
0 0.0383623 0
0 0.00902426 0
0 -0.0341166 0
0 -0.0250753 0
0 0.0223193 0
-0.041013 -0.0203138 0.0555134
-0.0603086 -0.00477857 0.0130588
0.0126393 0.0180656 -0.0493695
0.0662551 0.013278 -0.036286
0.0185321 -0.0118186 0.0322979
-0.0192956 -0.0479195 0.0261177
-0.0283737 -0.0112725 0.00614385
0.00594648 0.0426161 -0.0232271
0.0311714 0.0313223 -0.0170716
0.00871888 -0.0278797 0.0151953
0.0319349 -0.00223112 -0.0432257
0.0469595 -0.000524843 -0.0101683
-0.00984164 0.0019842 0.0384417
-0.0515897 0.00145836 0.0282542
-0.0144301 -0.00129807 -0.0251488
0.0343202 0.0468698 -0.0464543
0.050467 0.0110255 -0.0109278
-0.0105767 -0.0416826 0.041313
-0.0554431 -0.0306361 0.0303645
-0.0155079 0.027269 -0.0270273
