# vtk DataFile Version 3.0
Velocity field
ASCII
DATASET STRUCTURED_POINTS
DIMENSIONS 8 8 8
SPACING 0.8 0.8 0.8
ORIGIN 0 0 0
POINT_DATA 512
VECTORS velocity float
0 0.405805 0
0 0.282727 0
0 -0.0118493 0
0 -0.299238 0
0 -0.405113 0
0 -0.265252 0
0 0.0355076 0
0 0.314729 0
0 0.159649 0.414185
0 0.111229 0.305947
0 -0.00466168 -0.0128225
0 -0.117724 -0.323815
0 -0.159377 -0.438385
0 -0.104354 -0.287037
0 0.0139692 0.0384239
0 0.123818 0.321228
0 -0.183348 0.577131
0 -0.12774 0.426311
0 0.00535367 -0.0178671
0 0.1352 -0.451208
0 0.183035 -0.610852
0 0.119844 -0.399961
0 -0.0160428 0.0535403
0 -0.142198 0.447603
0 -0.415129 0.389997
0 -0.289223 0.288081
0 0.0121216 -0.0120737
0 0.306113 -0.304904
0 0.414421 -0.412784
0 0.271346 -0.270274
0 -0.0363234 0.0361799
0 -0.321959 0.302468
0 -0.395098 -0.0337039
0 -0.275267 -0.0248962
0 0.0115367 0.00104342
0 0.291343 0.0263501
0 0.394424 0.0356732
0 0.258253 0.0233574
0 -0.0345707 -0.00312671
0 -0.306424 -0.0261396
0 -0.135406 -0.43696
0 -0.0943383 -0.322771
0 0.00395379 0.0135276
0 0.0998476 0.341621
0 0.135175 0.462491
0 0.0885073 0.302821
0 -0.0118479 -0.0405367
0 -0.105016 -0.338891
0 0.206421 -0.575162
0 0.143815 -0.424858
0 -0.00602741 0.0178061
0 -0.152214 0.449669
0 -0.206069 0.608768
0 -0.134926 0.398597
0 0.0180617 -0.0533577
0 0.160093 -0.446076
0 0.423036 -0.364479
0 0.294732 -0.253935
0 -0.0123525 0.0106426
0 -0.311944 0.268764
0 -0.422315 0.363857
0 -0.276515 0.238239
0 0.0370153 -0.0318916
0 0.328092 -0.282677
0 0.282727 0
0 0.21386 0
0 -0.00896304 0
0 -0.226349 0
0 -0.306435 0
0 -0.200641 0
0 0.0268586 0
0 0.219274 0
0.0882907 0.111229 0.409102
0.218848 0.0803828 0.295237
0.213544 -0.00337138 -0.0123826
0.0786698 -0.0851285 -0.312665
-0.103923 -0.115249 -0.423294
-0.22348 -0.0754602 -0.277157
-0.207448 0.0100641 0.0369666
-0.0633504 0.0862651 0.317285
0.123025 -0.12774 0.570048
0.304943 -0.092076 0.411392
0.297551 0.00386158 -0.0172541
0.10962 0.0975083 -0.435675
-0.144808 0.132007 -0.589818
-0.311396 0.0864332 -0.386194
-0.289059 -0.01153 0.0515102
-0.0882733 -0.0990705 0.44211
0.0831346 -0.289223 0.385211
0.206067 -0.208477 0.277999
0.201073 0.00874361 -0.0116594
0.0740752 0.22078 -0.294405
-0.0978546 0.298892 -0.398574
-0.210428 0.195706 -0.260969
-0.195333 -0.0261065 0.0348081
-0.0596508 -0.224311 0.298756
-0.00718458 -0.275267 -0.0332903
-0.0178084 -0.198421 -0.0240249
-0.0173769 0.00832163 0.00100761
-0.0064017 0.210126 0.025443
0.00845666 0.284473 0.034445
0.0181852 0.186263 0.0225532
0.0168808 -0.0248468 -0.00300814
0.00515508 -0.213488 -0.0258188
-0.0931457 -0.0943383 -0.431598
-0.230879 -0.0680024 -0.311472
-0.225287 0.00285199 0.0130635
-0.0829946 0.0720142 0.329854
0.109638 0.0974945 0.44657
0.235763 0.0638351 0.292394
0.218856 -0.00851544 -0.0389995
0.0668339 -0.0731656 -0.334732
-0.122606 0.143815 -0.568104
-0.303826 0.103583 -0.409888
-0.296461 -0.00434415 0.0171907
-0.109219 -0.109692 0.434078
0.144277 -0.148502 0.587655
0.310253 -0.0972352 0.384777
0.287999 0.0129723 -0.0513232
0.0879722 0.111538 -0.440602
-0.077695 0.294732 -0.360006
-0.185956 0.205342 -0.250818
-0.181419 -0.00860604 0.010512
-0.0668353 -0.217334 0.265466
0.0882898 -0.29423 0.359392
0.189859 -0.19265 0.235315
0.176263 0.0257888 -0.0315002
0.0557478 0.228584 -0.279208
0 -0.0118493 0
0 -0.00896304 0
0 0.000375648 0
0 0.00948647 0
0 0.0128429 0
0 0.00840904 0
0 -0.00112566 0
0 -0.00918993 0
0.123025 -0.00466168 0.155863
0.304943 -0.00337138 0.112417
0.297551 0.000141405 -0.00471477
0.10962 0.00357052 -0.11905
-0.144808 0.00483375 -0.161171
-0.311396 0.00316499 -0.105531
-0.289059 -0.000422061 0.0140762
-0.0882733 -0.00361544 0.120882
0.171425 0.00535367 0.217182
0.424915 0.00386158 0.156642
0.414615 -0.000161956 -0.00656966
0.152745 -0.00408949 -0.165885
-0.201779 -0.00553643 -0.224583
-0.433907 -0.00362508 -0.147047
-0.402783 0.000483517 0.0196138
-0.123001 0.00415213 0.168439
0.115841 0.0121216 0.146761
0.287134 0.00874361 0.105851
0.280178 -0.000366709 -0.00443949
0.103218 -0.00925957 -0.1121
-0.136352 -0.0125359 -0.15176
-0.293211 -0.0082079 -0.0993679
-0.27218 0.0010948 0.0132541
-0.0831182 0.00940107 0.113823
-0.0100111 0.0115367 -0.0126832
-0.0248146 0.00832163 -0.00914774
-0.0242132 -0.000349015 0.000383663
-0.00892016 -0.00881288 0.00968761
0.0117836 -0.0119309 0.0131153
0.0253398 -0.00781185 0.00858744
0.023522 0.00104196 -0.00114542
0.00718316 0.00894745 -0.00983667
-0.12979 0.00395379 -0.164434
-0.321707 0.00285199 -0.118597
-0.313914 -0.000119614 0.00497402
-0.115647 -0.00302033 0.125595
0.15277 -0.00408892 0.170034
0.328515 -0.00267726 0.111334
0.304953 0.0003571 -0.01485
0.0931273 0.00306643 -0.127529
-0.170841 -0.00602741 -0.216441
-0.423358 -0.00434415 -0.156068
-0.413095 0.000182192 0.00654559
-0.152185 0.00460044 0.165277
0.201039 0.00622817 0.223758
0.432317 0.00407795 0.146508
0.401306 -0.000543997 -0.0195425
0.122582 -0.00467465 -0.167864
-0.108261 -0.0123525 -0.137158
-0.259114 -0.00860604 -0.095559
-0.252792 0.000360686 0.00400496
-0.0931292 0.00910863 0.10114
0.123024 0.0123314 0.136924
0.264553 0.00807411 0.0896526
0.245607 -0.00108083 -0.0120012
0.0776797 -0.00958015 -0.106375
0 -0.299238 0
0 -0.226349 0
0 0.00948647 0
0 0.239568 0
0 0.32433 0
0 0.212358 0
0 -0.0284271 0
0 -0.232079 0
0.0831346 -0.117724 -0.19192
0.206067 -0.0851285 -0.13842
0.201073 0.00357052 0.00580538
0.0740752 0.0901557 0.146588
-0.0978546 0.122054 0.198455
-0.210428 0.0799161 0.129939
-0.195333 -0.0106574 -0.0173321
-0.0596508 -0.0913029 -0.148847
0.115841 0.1352 -0.267424
0.287134 0.0975083 -0.192876
0.280178 -0.00408949 0.00808924
0.103218 -0.103262 0.20426
-0.136352 -0.139799 0.27653
-0.293211 -0.0915345 0.18106
-0.27218 0.0122094 -0.0241507
-0.0831182 0.104856 -0.207405
0.0782796 0.306113 -0.180712
0.194033 0.22078 -0.130336
0.18933 -0.00925957 0.00546631
0.0697501 -0.233808 0.138029
-0.0921395 -0.316534 0.186865
-0.198139 -0.207255 0.12235
-0.183925 0.0276449 -0.0163198
-0.0561672 0.237411 -0.140154
-0.006765 0.291343 0.0156173
-0.0167684 0.210126 0.0112638
-0.0163619 -0.00881288 -0.000472404
-0.00602786 -0.22253 -0.0119285
0.00796271 -0.30126 -0.0161489
0.0171233 -0.197256 -0.0105737
0.0158948 0.0263108 0.00141038
0.00485403 0.225955 0.0121123
-0.0877061 0.0998476 0.202473
-0.217398 0.0720142 0.14603
-0.212129 -0.00302033 -0.00612461
-0.0781486 -0.0762643 -0.154648
0.103235 -0.103248 -0.209367
0.221999 -0.067603 -0.137085
0.206073 0.00901716 0.018285
0.0629309 0.0774384 0.157031
-0.115446 -0.152214 0.266512
-0.286082 -0.109692 0.192171
-0.27915 0.00460044 -0.00805958
-0.10284 0.116164 -0.203511
0.135851 0.157265 -0.275515
0.292135 0.102971 -0.180396
0.271181 -0.0137365 0.0240631
0.0828347 -0.118052 0.206698
-0.0731577 -0.311944 0.168888
-0.175097 -0.217334 0.117665
-0.170824 0.00910863 -0.00493145
-0.0629322 0.230026 -0.124537
0.0831337 0.311412 -0.1686
0.178772 0.2039 -0.110392
0.165969 -0.0272949 0.0147775
0.0524921 -0.241933 0.130984
0 -0.405113 0
0 -0.306435 0
0 0.0128429 0
0 0.32433 0
0 0.439083 0
0 0.287494 0
0 -0.038485 0
0 -0.314192 0
-0.00718458 -0.159377 -0.423287
-0.0178084 -0.115249 -0.305288
-0.0173769 0.00483375 0.012804
-0.00640171 0.122054 0.323302
0.00845666 0.165237 0.437701
0.0181852 0.108193 0.286587
0.0168808 -0.0144282 -0.0382264
0.00515508 -0.123607 -0.328287
-0.0100111 0.183035 -0.589814
-0.0248146 0.132007 -0.425394
-0.0242132 -0.00553643 0.0178413
-0.00892016 -0.139799 0.450505
0.0117836 -0.189261 0.609892
0.0253398 -0.12392 0.399338
0.023522 0.0165292 -0.0532655
0.00718316 0.141956 -0.457439
-0.006765 0.414421 -0.398567
-0.0167684 0.298892 -0.28746
-0.0163619 -0.0125359 0.0120563
-0.00602786 -0.316534 0.304425
0.00796271 -0.428532 0.412136
0.0171233 -0.280587 0.269852
0.0158948 0.0374256 -0.035994
0.00485403 0.32141 -0.309115
0.000584638 0.394424 0.0344446
0.00144915 0.284473 0.0248428
0.00141402 -0.0119309 -0.00104191
0.000520929 -0.30126 -0.0263088
-0.00068815 -0.407856 -0.0356172
-0.00147982 -0.267046 -0.0233209
-0.00137366 0.03562 0.00311065
-0.00041949 0.305902 0.0267141
0.00757965 0.135175 0.446563
0.0187876 0.0974945 0.322073
0.0183322 -0.00408892 -0.0135081
0.00675372 -0.103248 -0.34108
-0.00892161 -0.13978 -0.461766
-0.0191851 -0.0915217 -0.302345
-0.017809 0.0122076 0.0403281
-0.00543855 0.104837 0.346339
0.00997694 -0.206069 0.587802
0.0247237 -0.148502 0.423838
0.0241244 0.00622817 -0.0177759
0.00888748 0.157265 -0.44885
-0.0117405 0.212907 -0.607657
-0.0252468 0.139404 -0.397874
-0.0234359 -0.0185966 0.0530723
-0.00715866 -0.15982 0.455879
0.00632236 -0.422315 0.372489
0.015132 -0.29423 0.259515
0.0147628 0.0123314 -0.0108765
0.00543866 0.311412 -0.274671
-0.0071845 0.421595 -0.371854
-0.0154496 0.276043 -0.243475
-0.0143432 -0.0369522 0.0325925
-0.00453642 -0.327533 0.288889
0 -0.265252 0
0 -0.200641 0
0 0.00840904 0
0 0.212358 0
0 0.287494 0
0 0.18824 0
0 -0.0251985 0
0 -0.20572 0
-0.0931457 -0.104354 -0.397894
-0.230879 -0.0754602 -0.286975
-0.225287 0.00316499 0.0120359
-0.0829946 0.0799161 0.303911
0.109638 0.108193 0.411441
0.235764 0.0708406 0.269396
0.218856 -0.00944704 -0.0359332
0.0668339 -0.0809331 -0.308593
-0.12979 0.119844 -0.554431
-0.321707 0.0864332 -0.399879
-0.313914 -0.00362508 0.0167709
-0.115647 -0.0915345 0.423477
0.15277 -0.12392 0.573304
0.328515 -0.0811377 0.375381
0.304953 0.0108227 -0.0500701
0.0931273 0.092947 -0.429997
-0.0877061 0.271346 -0.374657
-0.217398 0.195706 -0.270217
-0.212129 -0.00820791 0.011333
-0.0781486 -0.207255 0.286163
0.103235 -0.280587 0.387414
0.221999 -0.183716 0.253661
0.206073 0.024505 -0.0338349
0.0629309 0.210447 -0.290571
0.00757965 0.258253 0.0323782
0.0187876 0.186263 0.0233525
0.0183322 -0.00781185 -0.0009794
0.00675372 -0.197256 -0.0247306
-0.00892161 -0.267046 -0.0334806
-0.0191851 -0.174851 -0.0219217
-0.017809 0.0233226 0.00292404
-0.00543855 0.200292 0.0251115
0.0982677 0.0885073 0.419773
0.243572 0.0638351 0.302753
0.237669 -0.00267726 -0.0126978
0.0875584 -0.067603 -0.32062
-0.115666 -0.0915217 -0.434066
-0.248727 -0.0599243 -0.284209
-0.230887 0.00799303 0.037909
-0.070509 0.0686432 0.325562
0.129348 -0.134926 0.55254
0.320528 -0.0972352 0.398414
0.312761 0.00407795 -0.0167094
0.115223 0.102971 -0.421925
-0.15221 0.139404 -0.571204
-0.32731 0.0912765 -0.374005
-0.303836 -0.0121764 0.0498884
-0.0928097 -0.104644 0.428531
0.0819674 -0.276515 0.350143
0.196182 -0.19265 0.243947
0.191395 0.00807411 -0.010224
0.0705105 0.2039 -0.258193
-0.0931447 0.276043 -0.349546
-0.2003 0.180742 -0.228869
-0.185955 -0.0241948 0.0306372
-0.0588132 -0.214455 0.271559
0 0.0355076 0
0 0.0268586 0
0 -0.00112566 0
0 -0.0284271 0
0 -0.038485 0
0 -0.0251985 0
0 0.00337316 0
0 0.0275385 0
-0.122606 0.0139692 -0.131143
-0.303826 0.0100638 -0.0946467
-0.296461 -0.000422049 0.0039696
-0.109219 -0.0106571 0.100234
0.144277 -0.0144278 0.135698
0.310253 -0.00944678 0.0888497
0.287999 0.00126052 -0.01185
0.0879722 0.010834 -0.10171
-0.170841 -0.0160428 -0.182737
-0.423358 -0.0115297 -0.131882
-0.413095 0.000483503 0.00553126
-0.152185 0.012209 0.139668
0.201039 0.0165287 0.189084
0.432317 0.0108224 0.123805
0.401306 -0.00144435 -0.016512
0.122582 -0.0124422 -0.141725
-0.115446 -0.0363234 -0.123485
-0.286082 -0.0261058 -0.0891192
-0.27915 0.00109477 0.00373779
-0.10284 0.0276441 0.0943804
0.135851 0.0374245 0.127773
0.292135 0.0245043 0.0836611
0.271181 -0.00327028 -0.011158
0.0828347 -0.0281712 -0.0957706
0.00997694 -0.0345707 0.0106717
0.0247237 -0.0248461 0.00770179
0.0241244 0.00104193 -0.000323021
0.00888748 0.0263101 -0.00815646
-0.0117405 0.0356189 -0.0110423
-0.0252468 0.0233219 -0.00723013
-0.0234359 -0.0031125 0.000964291
-0.00715866 -0.0268119 0.00827659
0.129348 -0.0118479 0.138355
0.320528 -0.00851521 0.0998514
0.312761 0.00035709 -0.00418787
0.115223 0.0090169 -0.105746
-0.15221 0.0122073 -0.143159
-0.32731 0.00799281 -0.0937356
-0.303836 -0.00106671 0.0125017
-0.0928097 -0.00918884 0.107303
0.170258 0.0180617 0.182114
0.421808 0.012972 0.131399
0.411582 -0.000543982 -0.00551094
0.151628 -0.0137362 -0.139155
-0.200302 -0.0185961 -0.188389
-0.430733 -0.0121761 -0.12335
-0.399835 0.00162515 0.0164521
-0.122164 0.014008 0.141241
0.107892 0.0370153 0.115405
0.25823 0.0257888 0.0804035
0.25193 -0.00108083 -0.00336978
0.0928116 -0.0272949 -0.085099
-0.122605 -0.0369522 -0.115208
-0.26365 -0.0241948 -0.0754338
-0.24477 0.00323881 0.0100978
-0.0774147 0.0287078 0.0895042
0 0.314729 0
0 0.219274 0
0 -0.00918993 0
0 -0.232079 0
0 -0.314192 0
0 -0.20572 0
0 0.0275385 0
0 0.244093 0
-0.077695 0.123818 0.215157
-0.185956 0.0862651 0.149901
-0.181419 -0.00361544 -0.00628248
-0.0668353 -0.0913029 -0.158655
0.0882897 -0.123607 -0.21479
0.189859 -0.0809331 -0.140636
0.176263 0.010834 0.018826
0.0557478 0.0960293 0.166868
-0.108261 -0.142198 0.299802
-0.259114 -0.0990705 0.208874
-0.252792 0.00415213 -0.00875408
-0.0931292 0.104856 -0.221072
0.123024 0.141956 -0.299291
0.264553 0.092947 -0.195964
0.245607 -0.0124422 0.0262324
0.0776797 -0.110284 0.232516
-0.0731577 -0.321959 0.202592
-0.175097 -0.224311 0.141147
-0.170824 0.00940107 -0.00591558
-0.0629322 0.237411 -0.14939
0.0831337 0.32141 -0.202246
0.178772 0.210447 -0.132423
0.165969 -0.0281712 0.0177266
0.0524921 -0.249701 0.157123
0.00632236 -0.306424 -0.0175082
0.015132 -0.213488 -0.0121981
0.0147628 0.00894745 0.000511231
0.00543866 0.225955 0.0129104
-0.0071845 0.305902 0.0174783
-0.0154496 0.200292 0.0114441
-0.0143432 -0.0268119 -0.00153195
-0.00453642 -0.237652 -0.0135787
0.0819674 -0.105016 -0.226988
0.196182 -0.0731656 -0.158144
0.191395 0.00306643 0.00662794
0.0705105 0.0774384 0.167379
-0.0931447 0.104837 0.226601
-0.2003 0.0686432 0.148369
-0.185955 -0.00918884 -0.0198612
-0.0588132 -0.081447 -0.176044
0.107892 0.160093 -0.29878
0.25823 0.111538 -0.208162
0.25193 -0.00467465 0.00872423
0.0928116 -0.118052 0.220318
-0.122605 -0.15982 0.29827
-0.26365 -0.104644 0.195295
-0.244769 0.014008 -0.026143
-0.0774147 0.124163 -0.231723
0.0683709 0.328092 -0.189336
0.16364 0.228584 -0.131912
0.159647 -0.00958015 0.00552852
0.0588145 -0.241933 0.139615
-0.0776942 -0.327533 0.189013
-0.167075 -0.214455 0.123758
-0.15511 0.0287078 -0.0165667
-0.0490575 0.254457 -0.146842
