# vtk DataFile Version 3.0
Velocity field
ASCII
DATASET STRUCTURED_POINTS
DIMENSIONS 10 10 10
SPACING 0.631579 0.631579 0.631579
ORIGIN 0 0 0
POINT_DATA 1000
VECTORS velocity float
0 0.311951 0
0 0.251775 0
0 0.0944615 0
0 -0.0992954 0
0 -0.254743 0
0 -0.31191 0
0 -0.248739 0
0 -0.0896025 0
0 0.104103 0
0 0.257645 0
0 0.191598 0.244359
0 0.154638 0.204954
0 0.0580176 0.0768952
0 -0.0609865 -0.0808302
0 -0.156462 -0.207371
0 -0.191573 -0.253906
0 -0.152773 -0.202483
0 -0.0550332 -0.0729398
0 0.0639392 0.0847437
0 0.158243 0.201819
0 -0.00267495 0.394442
0 -0.00215894 0.330835
0 -0.000809999 0.124124
0 0.000851449 -0.130476
0 0.0021844 -0.334736
0 0.00267459 -0.409853
0 0.00213291 -0.326846
0 0.000768333 -0.117739
0 -0.000892673 0.136793
0 -0.00220928 0.325775
0 -0.195916 0.392346
0 -0.158123 0.329078
0 -0.0593251 0.123464
0 0.0623609 -0.129782
0 0.159988 -0.332958
0 0.19589 -0.407676
0 0.156216 -0.32511
0 0.0562734 -0.117113
0 -0.0653802 0.136066
0 -0.16181 0.324044
0 -0.313571 0.238881
0 -0.253082 0.20036
0 -0.0949521 0.0751715
0 0.0998111 -0.0790183
0 0.256066 -0.202722
0 0.313529 -0.248214
0 0.25003 -0.197944
0 0.0900678 -0.0713048
0 -0.104644 0.0828441
0 -0.258983 0.197295
0 -0.310248 -0.00674663
0 -0.2504 -0.00565868
0 -0.0939459 -0.00212305
0 0.0987534 0.00223168
0 0.253353 0.00572541
0 0.310207 0.00701024
0 0.247381 0.00559046
0 0.0891134 0.00201384
0 -0.103535 -0.00233974
0 -0.256238 -0.00557214
0 -0.187229 -0.249771
0 -0.151112 -0.209494
0 -0.0566947 -0.0785985
0 0.0595959 0.0826207
0 0.152894 0.211964
0 0.187204 0.25953
0 0.14929 0.206968
0 0.0537784 0.0745555
0 -0.0624813 -0.0866208
0 -0.154635 -0.20629
0 0.00802422 -0.396432
0 0.00647632 -0.332505
0 0.0024298 -0.12475
0 -0.00255414 0.131134
0 -0.00655269 0.336426
0 -0.00802315 0.411922
0 -0.00639823 0.328495
0 -0.00230482 0.118333
0 0.00267781 -0.137483
0 0.00662731 -0.327419
0 0.200182 -0.390147
0 0.161566 -0.327233
0 0.0606168 -0.122772
0 -0.0637187 0.129055
0 -0.163471 0.331091
0 -0.200155 0.405391
0 -0.159618 0.323287
0 -0.0574987 0.116457
0 0.0668037 -0.135303
0 0.165333 -0.322228
0 0.315108 -0.23334
0 0.254322 -0.188328
0 0.0954174 -0.0706574
0 -0.1003 0.0742731
0 -0.257321 0.190548
0 -0.315066 0.233309
0 -0.251256 0.186057
0 -0.0905092 0.0670228
0 0.105156 -0.0778691
0 0.260252 -0.192719
0 0.251775 0
0 0.213777 0
0 0.0802055 0
0 -0.0843098 0
0 -0.216298 0
0 -0.264836 0
0 -0.211199 0
0 -0.0760798 0
0 0.0883918 0
0 0.207944 0
0.0355294 0.154638 0.270436
0.0952546 0.128046 0.223867
0.117337 0.0480611 0.0840267
0.0941377 -0.0505211 -0.0883275
0.0346193 -0.129612 -0.226606
-0.0382558 -0.158698 -0.277458
-0.0963714 -0.126557 -0.221264
-0.117306 -0.0455899 -0.0797064
-0.0929721 0.0529223 0.0925256
-0.0319656 0.127718 0.223357
0.0573513 -0.00215894 0.436536
0.153759 -0.00178356 0.361365
0.189405 -0.000669417 0.135635
0.151957 0.000703682 -0.142578
0.0558822 0.00180531 -0.365786
-0.0617522 0.00221042 -0.44787
-0.155561 0.00176275 -0.357163
-0.189355 0.000634997 -0.128661
-0.150075 -0.000737189 0.149354
-0.0515987 -0.0017831 0.360541
0.0570466 -0.158123 0.434217
0.152943 -0.130788 0.359445
0.188398 -0.0490895 0.134915
0.151149 0.0516022 -0.141821
0.0555854 0.132386 -0.363842
-0.0614242 0.162095 -0.445492
-0.154735 0.129265 -0.355265
-0.188348 0.0465654 -0.127978
-0.149278 -0.0540563 0.148561
-0.0513246 -0.130596 0.358626
0.034733 -0.253082 0.264374
0.0931194 -0.209331 0.218848
0.114707 -0.0785696 0.0821431
0.0920279 0.0825913 -0.0863478
0.0338431 0.211889 -0.221526
-0.0373982 0.259438 -0.271237
-0.0942108 0.206894 -0.216304
-0.114676 0.0745299 -0.0779194
-0.0908879 -0.0865192 0.0904516
-0.0312491 -0.209024 0.21835
-0.000980951 -0.2504 -0.00746663
-0.00262993 -0.207113 -0.00618086
-0.00323962 -0.0777369 -0.00231995
-0.00259909 0.0817164 0.00243869
-0.000955824 0.209643 0.00625649
0.00105622 0.256689 0.0076605
0.00266077 0.204702 0.00610901
0.00323876 0.07374 0.00220065
0.00256692 -0.0856023 -0.00255459
0.000882557 -0.206809 -0.00616679
-0.0363164 -0.151112 -0.276427
-0.0973647 -0.124989 -0.228826
-0.119936 -0.0469129 -0.0858881
-0.0962231 0.0493141 0.0902844
-0.0353861 0.126516 0.231625
0.039103 0.154907 0.283603
0.0985057 0.123534 0.226166
0.119904 0.0445007 0.0814719
0.0950314 -0.0516594 -0.094575
0.0326737 -0.124805 -0.228305
-0.0576407 0.00647632 -0.438739
-0.154535 0.00535602 -0.363188
-0.190361 0.0020103 -0.136319
-0.152724 -0.0021132 0.143297
-0.0561642 -0.00542143 0.367631
0.0620636 -0.00663804 0.45013
0.156346 -0.00529364 0.358965
0.19031 -0.00190693 0.12931
0.150832 0.00221371 -0.150108
0.0518591 0.00534887 -0.362361
-0.0567268 0.161566 -0.431783
-0.152054 0.133566 -0.357358
-0.187303 0.0501316 -0.134131
-0.150271 -0.0526976 0.140996
-0.0552622 -0.135196 0.361728
0.061067 -0.165535 0.442902
0.153836 -0.132009 0.3532
0.187253 -0.0475539 0.127234
0.14841 0.0552052 -0.147699
0.0510368 0.133439 -0.356615
-0.0339273 0.254322 -0.258242
-0.0886925 0.205263 -0.208426
-0.109239 0.077011 -0.0781978
-0.087641 -0.0809519 0.0821995
-0.03223 -0.207683 0.210884
0.0356155 -0.254288 0.258207
0.0897203 -0.202788 0.205913
0.10921 -0.0730497 0.0741754
0.0865663 0.0848713 -0.0861792
0.0305242 0.210048 -0.213285
0 0.0944615 0
0 0.0802055 0
0 0.0300917 0
0 -0.0316316 0
0 -0.0811513 0
0 -0.0993622 0
0 -0.0792384 0
0 -0.0285439 0
0 0.0331631 0
0 0.078017 0
0.0573513 0.0580176 0.192178
0.153759 0.0480611 0.159024
0.189405 0.0180395 0.0596881
0.151957 -0.0189629 -0.0627432
0.0558822 -0.0486495 -0.160969
-0.0617522 -0.0595667 -0.197091
-0.155561 -0.0475028 -0.157174
-0.189355 -0.017112 -0.0566193
-0.150075 0.0198637 0.0657258
-0.0515987 0.0479175 0.158722
0.092576 -0.000809999 0.310212
0.248197 -0.000669417 0.256696
0.305737 -0.000251253 0.0963483
0.245288 0.000264112 -0.10128
0.0902047 0.000677585 -0.259834
-0.0996796 0.000829641 -0.318143
-0.251106 0.000661612 -0.25371
-0.305656 0.000238333 -0.0913943
-0.242249 -0.000276684 0.106094
-0.0832902 -0.000668988 0.256208
0.0920843 -0.0593251 0.308564
0.246879 -0.0490895 0.255332
0.304112 -0.0184253 0.0958365
0.243985 0.0193684 -0.100742
0.0897254 0.0496898 -0.258454
-0.0991499 0.0608407 -0.316453
-0.249772 0.0485187 -0.252362
-0.304031 0.0174779 -0.0909087
-0.240962 -0.0202891 0.10553
-0.0828477 -0.0489973 0.254847
0.0560657 -0.0949521 0.18787
0.150312 -0.0785696 0.155459
0.185159 -0.0294905 0.0583503
0.148551 0.0309999 -0.061337
0.0546293 0.0795307 -0.15736
-0.0603677 0.0973779 -0.192673
-0.152075 0.0776556 -0.153652
-0.18511 0.0279741 -0.0553499
-0.14671 -0.0324734 0.0642525
-0.050442 -0.0784221 0.155164
-0.00158344 -0.0939459 -0.00530594
-0.00424521 -0.0777369 -0.00439058
-0.00522937 -0.0291779 -0.00164796
-0.00419545 0.0306715 0.00173232
-0.00154288 0.0786877 0.00444429
0.00170494 0.096346 0.00544162
0.004295 0.0768331 0.00433952
0.00522798 0.0276776 0.00156323
0.00414351 -0.0321294 -0.00181466
0.00142462 -0.0775911 -0.00438225
-0.0586217 -0.0566947 -0.196434
-0.157165 -0.0469129 -0.162547
-0.193601 -0.0176083 -0.0610104
-0.155322 0.0185097 0.0641333
-0.0571198 0.0474867 0.164534
0.0631199 0.0581431 0.201457
0.159008 0.0463673 0.160656
0.193549 0.016703 0.0578732
0.153399 -0.0193894 -0.0671816
0.0527416 -0.0468249 -0.162238
-0.0930432 0.0024298 -0.311777
-0.249449 0.0020103 -0.25799
-0.307279 0.000754545 -0.0968344
-0.246525 -0.000793165 0.101791
-0.0906596 -0.00203487 0.261145
0.100183 -0.00249152 0.319749
0.252373 -0.00198691 0.25499
0.307197 -0.000715747 0.0918554
0.243472 0.000830876 -0.106629
0.0837105 0.00200681 -0.257501
-0.091568 0.0606168 -0.306834
-0.245444 0.0501316 -0.25385
-0.302344 0.0188161 -0.0952798
-0.242566 -0.0197793 0.100157
-0.0892036 -0.0507439 0.256953
0.0985735 -0.0621312 0.314614
0.248321 -0.0495477 0.250896
0.302264 -0.0178487 0.0903806
0.239562 0.02072 -0.104918
0.0823833 0.0500642 -0.253418
-0.0547652 0.0954174 -0.183512
-0.143167 0.077011 -0.148112
-0.176333 0.0288932 -0.055569
-0.141469 -0.0303718 0.0584126
-0.0520255 -0.0779191 0.149858
0.0574903 -0.0954047 0.183487
0.144826 -0.0760824 0.146326
0.176287 -0.027407 0.0527106
0.139735 0.0318423 -0.0612407
0.0492719 0.0788066 -0.151565
0 -0.0992954 0
0 -0.0843099 0
0 -0.0316316 0
0 0.0332503 0
0 0.085304 0
0 0.104447 0
0 0.0832933 0
0 0.0300045 0
0 -0.0348602 0
0 -0.0820094 0
0.0570466 -0.0609865 0.0397754
0.152943 -0.0505211 0.0329133
0.188398 -0.0189629 0.0123536
0.151149 0.0199335 -0.012986
0.0555854 0.0511398 -0.0333158
-0.0614242 0.0626157 -0.0407922
-0.154735 0.0499342 -0.0325304
-0.188348 0.0179879 -0.0117184
-0.149278 -0.0208805 0.0136033
-0.0513246 -0.0503695 0.0328511
0.0920843 0.000851449 0.0642052
0.246879 0.000703682 0.0531284
0.304112 0.000264112 0.0199413
0.243985 -0.000277632 -0.0209619
0.0897254 -0.000712265 -0.0537782
-0.09915 -0.000872106 -0.0658463
-0.249772 -0.000695476 -0.0525103
-0.304031 -0.000250532 -0.0189159
-0.240962 0.000290846 0.0219583
-0.0828477 0.000703222 0.0530279
0.0915951 0.0623609 0.0638641
0.245567 0.0516022 0.0528461
0.302496 0.0193684 0.0198353
0.242688 -0.0203598 -0.0208505
0.0892486 -0.0522331 -0.0534925
-0.0986231 -0.0639549 -0.0654964
-0.248446 -0.0510021 -0.0522313
-0.302416 -0.0183725 -0.0188154
-0.239683 0.0213276 0.0218417
-0.0824076 0.0515047 0.0527462
0.0557679 0.0998111 0.0388838
0.149514 0.0825913 0.0321755
0.184176 0.0309999 0.0120768
0.147761 -0.0325866 -0.0126949
0.0543393 -0.0836012 -0.0325689
-0.060047 -0.102362 -0.0398777
-0.151267 -0.081631 -0.0318013
-0.184127 -0.029406 -0.0114558
-0.145931 0.0341356 0.0132984
-0.0501741 0.0824352 0.0321147
-0.00157503 0.0987534 -0.00109818
-0.00422266 0.0817163 -0.000908721
-0.00520158 0.0306715 -0.00034108
-0.00417318 -0.0322414 0.00035854
-0.00153469 -0.0827153 0.000919837
0.00169589 -0.101277 0.00112625
0.00427218 -0.0807658 0.000898149
0.0052002 -0.0290944 0.000323541
0.00412149 0.0337739 -0.000375581
0.00141705 0.0815617 -0.000907004
-0.0583103 0.0595959 -0.0406565
-0.15633 0.0493141 -0.0336423
-0.192572 0.0185097 -0.0126273
-0.154498 -0.019457 0.0132737
-0.0568166 -0.0499173 0.0340537
0.0627845 -0.0611192 0.0416955
0.158163 -0.0487408 0.0332511
0.192521 -0.0175579 0.0119781
0.152584 0.020382 -0.0139046
0.0524614 0.049221 -0.0335787
-0.092549 -0.00255414 -0.0645292
-0.248124 -0.00211319 -0.0533963
-0.305647 -0.000793166 -0.0200418
-0.245215 0.000833765 0.0210677
-0.0901781 0.00213903 0.0540494
0.0996502 0.00261904 0.0661785
0.251032 0.00208861 0.0527753
0.305566 0.000752383 0.0190113
0.242178 -0.000873404 -0.022069
0.0832658 -0.0021095 -0.0532955
-0.0910816 -0.0637187 -0.0635061
-0.24414 -0.0526976 -0.0525393
-0.300738 -0.0197793 -0.0197201
-0.241277 0.0207916 0.0207294
-0.0887297 0.0533413 0.0531817
0.0980501 0.0653113 0.0651158
0.247002 0.0520838 0.0519279
0.300658 0.0187622 0.0187061
0.23829 -0.0217806 -0.0217151
0.0819456 -0.0526261 -0.0524505
-0.0544743 -0.1003 -0.0379818
-0.142406 -0.0809519 -0.030655
-0.175397 -0.0303718 -0.0115012
-0.140718 0.031926 0.0120898
-0.0517491 0.0819065 0.0310165
0.0571849 0.100287 0.0379768
0.144057 0.0799758 0.0302854
0.17535 0.0288095 0.0109096
0.138992 -0.0334717 -0.0126751
0.0490102 -0.0828393 -0.0313697
0 -0.254743 0
0 -0.216298 0
0 -0.0811513 0
0 0.085304 0
0 0.218848 0
0 0.267959 0
0 0.21369 0
0 0.0769769 0
0 -0.0894341 0
0 -0.210396 0
0.034733 -0.156462 -0.127972
0.0931194 -0.129612 -0.105894
0.114707 -0.0486495 -0.0397465
0.0920279 0.0511398 0.0417807
0.0338431 0.131199 0.107189
-0.0373982 0.160641 0.131243
-0.0942108 0.128107 0.104662
-0.114676 0.0461482 0.0377027
-0.0908879 -0.0535691 -0.0437669
-0.0312491 -0.129224 -0.105694
0.0560657 0.0021844 -0.206572
0.150312 0.00180531 -0.170934
0.185159 0.000677585 -0.0641585
0.148551 -0.000712265 0.0674423
0.0546293 -0.00182733 0.173024
-0.0603677 -0.0022374 0.211852
-0.152075 -0.00178424 0.168946
-0.18511 -0.000642742 0.0608596
-0.14671 0.000746167 -0.0706482
-0.050442 0.00180412 -0.170611
0.0557679 0.159988 -0.205475
0.149514 0.132386 -0.170026
0.184176 0.0496898 -0.0638176
0.147761 -0.0522331 0.0670841
0.0543393 -0.134005 0.172105
-0.060047 -0.164077 0.210726
-0.151267 -0.130846 0.168048
-0.184127 -0.0471348 0.0605361
-0.145931 0.054716 -0.0702728
-0.0501741 0.132136 -0.169704
0.0339544 0.256066 -0.125104
0.0910319 0.211889 -0.10352
0.112136 0.0795307 -0.0388553
0.0899648 -0.0836012 0.0408444
0.0330847 -0.214481 0.104786
-0.0365597 -0.262611 0.128302
-0.0920995 -0.209424 0.102317
-0.112106 -0.0754413 0.0368576
-0.0888505 0.0875754 -0.0427858
-0.0305486 0.211489 -0.103325
-0.000958962 0.253353 0.00353326
-0.00257099 0.209643 0.00292368
-0.00316701 0.0786877 0.00109738
-0.00254084 -0.0827153 -0.00115355
-0.000934393 -0.212208 -0.00295945
0.00103255 -0.259828 -0.00362356
0.00260112 -0.207205 -0.00288969
0.00316617 -0.074642 -0.00104096
0.00250938 0.0866474 0.00120839
0.000862773 0.209247 0.00291817
-0.0355023 0.152894 0.130807
-0.095182 0.126516 0.10824
-0.117248 0.0474867 0.0406269
-0.0940659 -0.0499173 -0.0427064
-0.0345929 -0.128064 -0.109563
0.0382267 -0.156801 -0.13415
0.0962979 -0.125044 -0.106981
0.117217 -0.0450451 -0.038538
0.0929012 0.05229 0.0447363
0.0319412 0.126277 0.108035
-0.0563486 -0.00655269 0.207615
-0.151071 -0.00542143 0.171796
-0.186093 -0.00203487 0.064482
-0.1493 0.00213903 -0.0677823
-0.0549049 0.0054877 -0.173897
0.0606724 0.0067192 -0.212921
0.152842 0.00535836 -0.169798
0.186044 0.00193025 -0.0611665
0.147451 -0.00224073 0.0710046
0.0506966 -0.00541195 0.171472
-0.0554552 -0.163471 0.204323
-0.148645 -0.135196 0.169039
-0.183105 -0.0507439 0.0634469
-0.146902 0.0533413 -0.0666945
-0.0540234 0.136848 -0.171105
0.059698 0.167557 -0.209502
0.150388 0.133622 -0.167071
0.183057 0.0481348 -0.0601844
0.145083 -0.0558783 0.0698653
0.0498928 -0.135013 0.168753
-0.0331668 -0.257321 0.122202
-0.0867043 -0.207683 0.0986286
-0.106791 -0.0779191 0.0370038
-0.0856764 0.0819065 -0.0388974
-0.0315076 0.210132 -0.0997917
0.0348171 0.257287 -0.122186
0.0877091 0.205179 -0.0974394
0.106762 0.0739111 -0.0351004
0.0846258 -0.0858721 0.0407807
0.02984 -0.212525 0.100928
0 -0.31191 0
0 -0.264836 0
0 -0.0993622 0
0 0.104447 0
0 0.267959 0
0 0.328091 0
0 0.261643 0
0 0.0942511 0
0 -0.109504 0
0 -0.25761 0
-0.000980951 -0.191573 -0.246348
-0.00262993 -0.158698 -0.203847
-0.00323962 -0.0595667 -0.0765122
-0.00259909 0.0626157 0.0804284
-0.000955825 0.160641 0.20634
0.00105622 0.19669 0.252644
0.00266077 0.156855 0.201476
0.00323876 0.0565041 0.0725778
0.00256692 -0.0655903 -0.0842514
0.000882557 -0.158222 -0.203462
-0.00158344 0.00267459 -0.397652
-0.00424521 0.00221042 -0.329048
-0.00522937 0.000829641 -0.123505
-0.00419545 -0.000872106 0.129827
-0.00154288 -0.0022374 0.333071
0.00170494 -0.00273949 0.407817
0.004295 -0.00218465 0.325222
0.00522798 -0.000786978 0.117155
0.00414351 0.000913614 -0.135998
0.00142462 0.00220898 -0.328427
-0.00157503 0.19589 -0.39554
-0.00422266 0.162094 -0.327301
-0.00520158 0.0608407 -0.122849
-0.00417318 -0.0639549 0.129137
-0.00153469 -0.164077 0.331302
0.00169589 -0.200897 0.40565
0.00427218 -0.160209 0.323494
0.0052002 -0.0577122 0.116533
0.00412149 0.0669948 -0.135275
0.00141705 0.161788 -0.326682
-0.000958962 0.313529 -0.240825
-0.00257099 0.259438 -0.199277
-0.00316701 0.0973779 -0.074797
-0.00254084 -0.102362 0.0786253
-0.000934393 -0.262611 0.201715
0.00103255 -0.321543 0.246981
0.00260112 -0.256422 0.196959
0.00316617 -0.0923711 0.0709511
0.00250938 0.107228 -0.0823629
0.000862773 0.258948 -0.198901
2.70836e-05 0.310207 0.00680155
7.26112e-05 0.256689 0.00562813
8.94453e-05 0.096346 0.00211245
7.17604e-05 -0.101277 -0.0022206
2.63899e-05 -0.259828 -0.00569696
-2.91617e-05 -0.318136 -0.00697539
-7.34631e-05 -0.253704 -0.00556266
-8.94215e-05 -0.091392 -0.00200385
-7.08713e-05 0.106092 0.00232615
-2.4367e-05 0.256204 0.00561749
0.00100268 0.187204 0.251804
0.00268819 0.154907 0.208362
0.0033114 0.0581431 0.0782066
0.00265668 -0.0611192 -0.08221
0.000976991 -0.156801 -0.21091
-0.00107962 -0.191989 -0.25824
-0.00271972 -0.153106 -0.205939
-0.00331052 -0.0551534 -0.0741857
-0.00262378 0.0640244 0.0861177
-0.000902106 0.154615 0.207969
0.00159144 -0.00802315 0.399659
0.00426664 -0.00663803 0.330707
0.00525577 -0.00249152 0.124128
0.0042166 0.00261904 -0.130482
0.00155066 0.0067192 -0.334752
-0.00171355 0.00822702 -0.409874
-0.00431667 0.00656079 -0.326863
-0.00525437 0.00236341 -0.117746
-0.00416441 -0.00274356 0.136684
-0.00143181 -0.00662642 0.330084
0.0015662 -0.200155 0.393322
0.00419813 -0.165535 0.325401
0.00517135 -0.0621312 0.122136
0.00414892 0.0653113 -0.128387
0.00152576 0.167557 -0.329378
-0.00168603 0.205158 -0.403294
-0.00424734 0.163608 -0.321614
-0.00516998 0.0589366 -0.115855
-0.00409753 -0.0684178 0.134491
-0.0014091 -0.165311 0.32485
0.000936718 -0.315066 0.235239
0.00244876 -0.254288 0.189861
0.00301605 -0.0954047 0.0712325
0.00241973 0.100287 -0.0748777
0.000889857 0.257287 -0.192099
-0.000983329 0.315024 -0.235208
-0.00247714 0.251222 -0.187571
-0.00301525 0.0904972 -0.0675684
-0.00239006 -0.105142 0.078503
-0.00084276 -0.260217 0.194287
0 -0.248739 0
0 -0.211199 0
0 -0.0792384 0
0 0.0832933 0
0 0.21369 0
0 0.261643 0
0 0.208653 0
0 0.0751624 0
0 -0.087326 0
0 -0.205436 0
-0.0363164 -0.152773 -0.26968
-0.0973647 -0.126557 -0.223154
-0.119936 -0.0475028 -0.0837586
-0.0962231 0.0499342 0.0880457
-0.0353861 0.128107 0.225884
0.039103 0.156855 0.276573
0.0985057 0.125087 0.220558
0.119904 0.0450603 0.0794522
0.0950314 -0.0523063 -0.0922314
0.0326737 -0.126178 -0.222732
-0.0586217 0.00213291 -0.435315
-0.157165 0.00176275 -0.360214
-0.193601 0.000661612 -0.135202
-0.155322 -0.000695476 0.142123
-0.0571198 -0.00178424 0.364619
0.0631199 -0.00218465 0.446442
0.159008 -0.0017422 0.356023
0.193549 -0.000627593 0.128251
0.153399 0.00072858 -0.148879
0.0527416 0.0017616 -0.359533
-0.0583103 0.156216 -0.433003
-0.15633 0.129265 -0.3583
-0.192572 0.0485187 -0.134484
-0.154498 -0.0510021 0.141368
-0.0568166 -0.130846 0.362682
0.0627845 -0.160209 0.44407
0.158163 -0.127762 0.354132
0.192521 -0.046024 0.12757
0.152584 0.0534264 -0.148088
0.0524614 0.129021 -0.357623
-0.0355023 0.25003 -0.263635
-0.095182 0.206894 -0.218151
-0.117248 0.0776556 -0.0818813
-0.0940659 -0.081631 0.0860724
-0.0345929 -0.209424 0.220819
0.0382267 -0.256422 0.270372
0.0962979 -0.204489 0.215615
0.117217 -0.0736629 0.0776708
0.0929012 0.085511 -0.0901638
0.0319412 0.206503 -0.21774
0.00100268 0.247381 0.00744575
0.00268819 0.204702 0.00616117
0.0033114 0.0768331 0.00231254
0.00265668 -0.0807658 -0.00243091
0.000976991 -0.207205 -0.00623652
-0.00107962 -0.253704 -0.00763606
-0.00271972 -0.202321 -0.00608954
-0.00331052 -0.0728822 -0.00219364
-0.00262378 0.0846049 0.00254647
-0.000902106 0.204315 0.00614955
0.0371208 0.14929 0.275654
0.0995209 0.123534 0.228097
0.122593 0.0463673 0.0856141
0.0983544 -0.0487408 -0.0899964
0.0361699 -0.125044 -0.230886
-0.0399694 -0.153106 -0.282699
-0.100688 -0.122097 -0.225445
-0.122561 -0.0439832 -0.0812121
-0.0971366 0.0510576 0.094274
-0.0333974 0.1233 0.227666
0.0589175 -0.00639823 0.437512
0.157958 -0.00529364 0.362031
0.194578 -0.00198691 0.135884
0.156106 0.00208861 -0.142841
0.057408 0.00535836 -0.366459
-0.0634384 0.00656079 -0.448694
-0.15981 0.00523203 -0.35782
-0.194526 0.00188474 -0.128898
-0.154173 -0.00218791 0.14963
-0.0530078 -0.00528438 0.361347
0.0579834 -0.159618 0.430575
0.155421 -0.132009 0.35622
0.191453 -0.0495477 0.133703
0.1536 0.0520838 -0.140547
0.0564863 0.133622 -0.360575
-0.0624195 0.163608 -0.44149
-0.157243 0.130472 -0.352074
-0.191402 0.047 -0.126829
-0.151697 -0.0545611 0.147229
-0.0521673 -0.13183 0.355618
0.0346788 -0.251256 0.257519
0.0906571 -0.202788 0.207843
0.111659 -0.0760824 0.0779791
0.0895823 0.0799758 -0.0819696
0.032944 0.205179 -0.210294
-0.0364044 0.251222 -0.257485
-0.0917077 0.200342 -0.205337
-0.111629 0.0721689 -0.073968
-0.0884838 -0.0838479 0.0859382
-0.0312003 -0.207516 0.212689
0 -0.0896025 0
0 -0.0760798 0
0 -0.0285439 0
0 0.0300045 0
0 0.0769769 0
0 0.0942511 0
0 0.0751624 0
0 0.0270756 0
0 -0.0314572 0
0 -0.0740039 0
-0.0576407 -0.0550332 -0.188968
-0.154535 -0.0455899 -0.156366
-0.190361 -0.017112 -0.058691
-0.152724 0.0179879 0.0616951
-0.0561642 0.0461482 0.158279
0.0620636 0.0565041 0.193798
0.156346 0.0450603 0.154548
0.19031 0.0162321 0.0556732
0.150832 -0.0188424 -0.0646276
0.0518591 -0.0454526 -0.156071
-0.0930432 0.000768333 -0.30503
-0.249449 0.000634997 -0.252406
-0.307279 0.000238333 -0.0947383
-0.246525 -0.000250532 0.0995874
-0.0906596 -0.000642742 0.255493
0.100183 -0.000786978 0.312826
0.252373 -0.000627593 0.24947
0.307197 -0.000226078 0.0898672
0.243472 0.000262457 -0.104321
0.0837105 0.000634576 -0.251929
-0.092549 0.0562734 -0.30341
-0.248124 0.0465654 -0.251065
-0.305647 0.0174779 -0.0942349
-0.245215 -0.0183725 0.0990583
-0.0901781 -0.0471348 0.254136
0.0996502 -0.0577122 0.311165
0.251032 -0.046024 0.248145
0.305566 -0.0165793 0.0893896
0.242178 0.0192459 -0.103767
0.0832658 0.046477 -0.250591
-0.0563486 0.0900678 -0.184732
-0.151071 0.0745299 -0.152862
-0.186093 0.0279741 -0.0573751
-0.1493 -0.029406 0.0603119
-0.0549049 -0.0754413 0.154731
0.0606724 -0.0923711 0.189454
0.152842 -0.073663 0.151084
0.186044 -0.0265358 0.0544251
0.147451 0.0308038 -0.0631789
0.0506966 0.0743882 -0.152573
0.00159144 0.0891134 0.00521732
0.00426664 0.07374 0.00431722
0.00525576 0.0276776 0.00162042
0.0042166 -0.0290944 -0.00170337
0.00155066 -0.074642 -0.00437001
-0.00171355 -0.0913921 -0.00535067
-0.00431667 -0.0728822 -0.00426701
-0.00525437 -0.0262545 -0.00153711
-0.00416441 0.0304773 0.00178434
-0.00143181 0.0735999 0.00430906
0.0589175 0.0537784 0.193154
0.157958 0.0445007 0.159831
0.194578 0.016703 0.0599907
0.156106 -0.0175579 -0.0630615
0.057408 -0.0450451 -0.161785
-0.0634384 -0.0551534 -0.19809
-0.15981 -0.0439832 -0.157971
-0.194526 -0.0158441 -0.0569063
-0.154173 0.0183925 0.0660592
-0.0530078 0.0444162 0.159528
0.0935128 -0.00230482 0.30657
0.250707 -0.00190693 0.25368
0.308828 -0.000715748 0.0952164
0.247768 0.000752383 -0.10009
0.091117 0.00193025 -0.256782
-0.100688 0.00236341 -0.314405
-0.253647 0.00188474 -0.250728
-0.308746 0.000678944 -0.0903206
-0.2447 -0.000788153 0.104848
-0.0841329 -0.00190358 0.2532
0.0920301 -0.0574987 0.301709
0.246682 -0.0475539 0.249608
0.30387 -0.0178487 0.0936874
0.24379 0.0187622 -0.0984829
0.0896537 0.0481348 -0.25266
-0.0990708 0.0589366 -0.309358
-0.249573 0.047 -0.246704
-0.303789 0.0169309 -0.0888702
-0.24077 -0.0196546 0.103165
-0.082799 -0.0474889 0.249186
0.0550415 -0.0905092 0.180447
0.143889 -0.0730497 0.145638
0.177223 -0.027407 0.0546409
0.142183 0.0288095 -0.057437
0.052288 0.0739111 -0.147355
-0.0577804 0.0904972 -0.180423
-0.145557 0.0721689 -0.143882
-0.177176 0.0259972 -0.0518302
-0.14044 -0.0302043 0.0602179
-0.0495206 -0.0747528 0.149033
0 0.104103 0
0 0.0883918 0
0 0.0331631 0
0 -0.0348602 0
0 -0.0894341 0
0 -0.109504 0
0 -0.087326 0
0 -0.0314572 0
0 0.0365479 0
0 0.0859799 0
-0.0567268 0.0639392 -0.0353506
-0.152054 0.0529212 -0.0292889
-0.187303 0.0198633 -0.0109936
-0.150271 -0.02088 0.0115564
-0.0552622 -0.0535679 0.0296481
0.061067 -0.0655889 0.0363012
0.153836 -0.0523052 0.0289492
0.187253 -0.018842 0.0104284
0.14841 0.0218729 -0.0121049
0.0510368 0.0528082 -0.0291965
-0.091568 -0.000892673 -0.0570627
-0.245444 -0.000737172 -0.0472779
-0.302344 -0.000276678 -0.0177459
-0.242566 0.000290839 0.0186543
-0.0892036 0.00074615 0.0478578
0.0985735 0.000913593 0.0585973
0.248321 0.000728564 0.0467295
0.302264 0.000262451 0.0168335
0.239562 -0.000304695 -0.0195397
0.0823833 -0.00073727 -0.0471288
-0.0910816 -0.0653802 -0.0567595
-0.24414 -0.0540551 -0.0470267
-0.300738 -0.0202887 -0.0176516
-0.241277 0.0213271 0.0185552
-0.0887297 0.0547148 0.0476035
0.0980501 0.0669933 0.0582861
0.247002 0.0534252 0.0464813
0.300658 0.0192454 0.0167441
0.23829 -0.0223418 -0.0194359
0.0819456 -0.0539983 -0.0468785
-0.0554552 -0.104644 -0.0345582
-0.148645 -0.0865173 -0.0286323
-0.183105 -0.0324727 -0.0107472
-0.146902 0.0341348 0.0112974
-0.0540234 0.0875734 0.0289835
0.059698 0.107226 0.0354876
0.150388 0.0855091 0.0283003
0.183057 0.0308031 0.0101947
0.145083 -0.035759 -0.0118336
0.0498928 -0.0864264 -0.0285421
0.0015662 -0.103535 0.000976014
0.00419813 -0.0856004 0.000808653
0.00517135 -0.0321287 0.00030353
0.00414892 0.0337731 -0.000319068
0.00152576 0.0866455 -0.000818569
-0.00168603 0.106089 -0.00100226
-0.00424734 0.0846031 -0.000799277
-0.00516998 0.0304766 -0.000287924
-0.00409753 -0.03538 0.000334212
-0.0014091 -0.0855106 0.000806104
0.0579834 -0.0624813 0.0361336
0.155421 -0.0516583 0.0299376
0.191453 -0.019389 0.0112372
0.1536 0.0203815 -0.0118124
0.0564863 0.0522889 -0.0303048
-0.0624195 0.064023 -0.0371054
-0.157243 0.0510565 -0.0295905
-0.191402 0.0183921 -0.0106594
-0.151697 -0.0213512 0.0123731
-0.0521673 -0.0516041 0.0298433
0.0920301 0.00267781 0.0573506
0.246682 0.00221367 0.0475164
0.30387 0.000830857 0.0178354
0.24379 -0.000873385 -0.0187483
0.0896537 -0.00224068 -0.0480991
-0.0990708 -0.0027435 -0.0588929
-0.249573 -0.00218786 -0.0469652
-0.303789 -0.000788136 -0.0169184
-0.24077 0.000914947 0.0196382
-0.082799 0.00221164 0.0473667
0.090571 0.0668037 0.0564413
0.242722 0.055204 0.0467531
0.29899 0.0207196 0.0175488
0.239875 -0.0217802 -0.0184471
0.088214 -0.0558771 -0.0473262
-0.0974803 -0.0684163 -0.0579465
-0.245566 -0.05456 -0.0462106
-0.298911 -0.0196542 -0.0166465
-0.236905 0.022817 0.0193229
-0.0814862 0.0551741 0.0466157
0.0541689 0.105156 0.0337565
0.141608 0.0848713 0.0272448
0.174413 0.0318423 0.0102218
0.139929 -0.0334717 -0.0107449
0.051459 -0.0858721 -0.027566
-0.0568643 -0.105142 -0.033752
-0.143249 -0.0838479 -0.0269163
-0.174367 -0.0302043 -0.00969598
-0.138213 0.0350923 0.0112651
-0.0487354 0.0868501 0.02788
0 0.257645 0
0 0.207944 0
0 0.078017 0
0 -0.0820094 0
0 -0.210396 0
0 -0.25761 0
0 -0.205437 0
0 -0.0740039 0
0 0.08598 0
0 0.212792 0
-0.0339273 0.158243 0.131905
-0.0886924 0.127718 0.10646
-0.109239 0.0479175 0.0399421
-0.0876409 -0.0503696 -0.0419861
-0.03223 -0.129224 -0.107716
0.0356155 -0.158222 -0.131888
0.0897202 -0.126178 -0.105177
0.10921 -0.0454527 -0.0378875
0.0865662 0.0528083 0.0440189
0.0305242 0.130695 0.108942
-0.0547652 -0.00220928 0.212921
-0.143167 -0.0017831 0.171847
-0.176333 -0.000668989 0.0644742
-0.141469 0.000703223 -0.0677736
-0.0520254 0.00180413 -0.173874
0.0574903 0.00220898 -0.212892
0.144826 0.0017616 -0.169775
0.176286 0.000634576 -0.0611578
0.139735 -0.00073727 0.0710549
0.0492719 -0.00182467 0.175854
-0.0544743 -0.16181 0.21179
-0.142406 -0.130596 0.170935
-0.175397 -0.0489974 0.0641318
-0.140718 0.0515047 -0.0674136
-0.0517491 0.132136 -0.17295
0.0571849 0.161788 -0.211761
0.144056 0.129021 -0.168873
0.17535 0.046477 -0.0608329
0.138992 -0.0539984 0.0706775
0.0490102 -0.133641 0.17492
-0.0331668 -0.258983 0.128948
-0.0867042 -0.209024 0.104074
-0.106791 -0.0784222 0.0390467
-0.0856763 0.0824353 -0.0410449
-0.0315075 0.211489 -0.105301
0.0348171 0.258948 -0.128931
0.087709 0.206503 -0.102819
0.106762 0.0743882 -0.0370382
0.0846257 -0.0864265 0.0430321
0.02984 -0.213897 0.1065
0.000936718 -0.256238 -0.00364185
0.00244876 -0.206809 -0.00293932
0.00301605 -0.0775911 -0.00110278
0.00241973 0.0815617 0.00115922
0.000889857 0.209247 0.00297398
-0.000983328 0.256204 0.00364137
-0.00247714 0.204315 0.00290388
-0.00301525 0.0735999 0.00104606
-0.00239006 -0.0855106 -0.00121534
-0.00084276 -0.211631 -0.00300785
0.0346788 -0.154635 -0.134827
0.090657 -0.124805 -0.108818
0.111659 -0.0468249 -0.0408268
0.0895822 0.0492211 0.0429161
0.0329439 0.126277 0.110102
-0.0364044 0.154615 0.134809
-0.0917076 0.123301 0.107506
-0.111629 0.0444163 0.0387268
-0.0884837 -0.0516042 -0.0449939
-0.0312003 -0.127715 -0.111356
0.0550415 0.00662731 -0.213995
0.143889 0.00534888 -0.172715
0.177223 0.00200681 -0.0647996
0.142183 -0.0021095 0.0681156
0.052288 -0.00541195 0.174751
-0.0577804 -0.00662643 0.213967
-0.145557 -0.00528438 0.170632
-0.177176 -0.00190358 0.0614664
-0.14044 0.00221164 -0.0714135
-0.0495206 0.00547359 -0.176742
0.0541689 0.165333 -0.210602
0.141608 0.133439 -0.169976
0.174413 0.0500642 -0.0637722
0.139929 -0.0526261 0.0670356
0.051459 -0.135013 0.171981
-0.0568643 -0.165311 0.210574
-0.143249 -0.13183 0.167927
-0.174367 -0.0474889 0.0604918
-0.138213 0.0551741 -0.0702812
-0.0487354 0.136551 -0.173939
0.0323974 0.260252 -0.125957
0.0846931 0.210048 -0.10166
0.104314 0.0788066 -0.038141
0.083689 -0.0828393 0.0400928
0.0307767 -0.212525 0.102859
-0.0340095 -0.260217 0.125941
-0.0856746 -0.207516 0.100434
-0.104286 -0.0747528 0.0361791
-0.0826628 0.0868501 -0.0420339
-0.0291478 0.214946 -0.10403
