# vtk DataFile Version 3.0
Velocity field
ASCII
DATASET STRUCTURED_POINTS
DIMENSIONS 8 8 8
SPACING 0.8 0.8 0.8
ORIGIN 0 0 0
POINT_DATA 512
VECTORS velocity float
0 0.000322371 0
0 0.000224598 0
0 -9.4131e-06 0
0 -0.000237715 0
0 -0.000321822 0
0 -0.000210716 0
0 2.82072e-05 0
0 0.00025002 0
0 0.000126825 0.000329028
0 8.836e-05 0.000243045
0 -3.70324e-06 -1.01862e-05
0 -9.35201e-05 -0.000257238
0 -0.000126609 -0.000348253
0 -8.28985e-05 -0.000228022
0 1.10971e-05 3.05239e-05
0 9.83613e-05 0.000255183
0 -0.000145651 0.000458472
0 -0.000101476 0.000338661
0 4.25295e-06 -1.41936e-05
0 0.000107402 -0.000358439
0 0.000145403 -0.00048526
0 9.52041e-05 -0.000317729
0 -1.27444e-05 4.25324e-05
0 -0.000112962 0.000355575
0 -0.000329778 0.000309813
0 -0.000229758 0.000228851
0 9.62936e-06 -9.59133e-06
0 0.000243176 -0.000242216
0 0.000329215 -0.000327915
0 0.000215557 -0.000214706
0 -2.88553e-05 2.87413e-05
0 -0.000255764 0.00024028
0 -0.000313865 -2.67744e-05
0 -0.000218672 -1.97775e-05
0 9.16473e-06 8.28892e-07
0 0.000231442 2.09325e-05
0 0.00031333 2.83388e-05
0 0.000205156 1.85551e-05
0 -2.7463e-05 -2.48385e-06
0 -0.000243423 -2.07653e-05
0 -0.000107566 -0.000347121
0 -7.49423e-05 -0.000256409
0 3.14089e-06 1.07463e-05
0 7.93188e-05 0.000271383
0 0.000107383 0.000367403
0 7.03101e-05 0.000240561
0 -9.41198e-06 -3.22023e-05
0 -8.34249e-05 -0.000269215
0 0.000163981 -0.000456909
0 0.000114247 -0.000337507
0 -4.78817e-06 1.41452e-05
0 -0.000120919 0.000357217
0 -0.000163701 0.000483605
0 -0.000107185 0.000316645
0 1.43482e-05 -4.23873e-05
0 0.000127178 -0.000354363
0 0.00033606 -0.000289542
0 0.000234135 -0.000201726
0 -9.81279e-06 8.45449e-06
0 -0.000247808 0.000213506
0 -0.000335487 0.000289048
0 -0.000219663 0.000189257
0 2.94049e-05 -2.53347e-05
0 0.000260636 -0.000224559
0 0.000224598 0
0 0.00016989 0
0 -7.12023e-06 0
0 -0.000179812 0
0 -0.000243432 0
0 -0.000159389 0
0 2.13364e-05 0
0 0.000174191 0
7.01381e-05 8.836e-05 0.00032499
0.000167874 6.1563e-05 0.00022643
0.000163778 -2.58015e-06 -9.48985e-06
6.03364e-05 -6.51582e-05 -0.000239653
-7.97047e-05 -8.82122e-05 -0.000324446
-0.000171398 -5.77578e-05 -0.000212434
-0.000159124 7.73167e-06 2.84372e-05
-5.03255e-05 6.8529e-05 0.000252051
9.77314e-05 -0.000101476 0.000452846
0.000233918 -7.07013e-05 0.00031551
0.000228211 2.96315e-06 -1.32233e-05
8.40736e-05 7.48302e-05 -0.000333936
-0.000111062 0.000101306 -0.000452087
-0.000238828 6.63313e-05 -0.000296009
-0.000221725 -8.87935e-06 3.96248e-05
-7.01242e-05 -7.87015e-05 0.000351212
6.60421e-05 -0.000229758 0.000306011
0.000158071 -0.000160079 0.000213206
0.000154214 6.70904e-06 -8.93566e-06
5.68128e-05 0.000169427 -0.000225657
-7.505e-05 0.000229373 -0.000305499
-0.000161389 0.000150185 -0.000200028
-0.000149831 -2.01043e-05 2.67765e-05
-4.73865e-05 -0.000178193 0.000237332
-5.70742e-06 -0.000218672 -2.64458e-05
-1.36606e-05 -0.000152355 -1.84255e-05
-1.33273e-05 6.38531e-06 7.72228e-07
-4.90982e-06 0.000161252 1.95015e-05
6.48589e-06 0.000218306 2.64015e-05
1.39474e-05 0.000142938 1.72866e-05
1.29485e-05 -1.91342e-05 -2.31405e-06
4.09519e-06 -0.000169595 -2.05104e-05
-7.39949e-05 -7.49423e-05 -0.000342861
-0.000177106 -5.22143e-05 -0.000238881
-0.000172784 2.18835e-06 1.00117e-05
-6.36543e-05 5.52636e-05 0.000252831
8.40876e-05 7.48167e-05 0.000342287
0.000180823 4.8987e-05 0.000224116
0.000167874 -6.55758e-06 -3.0001e-05
5.30928e-05 -5.81227e-05 -0.000265911
-9.73981e-05 0.000114247 -0.000451301
-0.000233121 7.95987e-05 -0.000314434
-0.000227433 -3.33605e-06 1.31782e-05
-8.37869e-05 -8.42472e-05 0.000332797
0.000110683 -0.000114055 0.000450545
0.000238014 -7.46788e-05 0.000294999
0.000220969 9.99678e-06 -3.94897e-05
6.98851e-05 8.86058e-05 -0.000350014
-6.17209e-05 0.000234135 -0.000285988
-0.000147724 0.000163123 -0.00019925
-0.000144119 -6.83664e-06 8.35073e-06
-5.30939e-05 -0.00017265 0.000210886
7.01373e-05 -0.000233736 0.000285501
0.000150824 -0.000153041 0.000186934
0.000140023 2.04866e-05 -2.50237e-05
4.4286e-05 0.000181587 -0.000221803
0 -9.4131e-06 0
0 -7.12023e-06 0
0 2.98415e-07 0
0 7.53605e-06 0
0 1.02024e-05 0
0 6.68013e-06 0
0 -8.94228e-07 0
0 -7.30048e-06 0
9.77314e-05 -3.70324e-06 0.000123818
0.000233918 -2.58015e-06 8.62671e-05
0.000228211 1.08136e-07 -3.61552e-06
8.40736e-05 2.73083e-06 -9.13051e-05
-0.000111062 3.69704e-06 -0.00012361
-0.000238828 2.42068e-06 -8.0935e-05
-0.000221725 -3.24041e-07 1.08343e-05
-7.01242e-05 -2.87211e-06 9.60287e-05
0.00013618 4.25295e-06 0.000172529
0.000325945 2.96315e-06 0.000120206
0.000317992 -1.24188e-07 -5.03792e-06
0.000117149 -3.1362e-06 -0.000127226
-0.000154755 -4.24583e-06 -0.00017224
-0.000332787 -2.78e-06 -0.000112776
-0.000308955 3.72141e-07 1.50966e-05
-9.7712e-05 3.29845e-06 0.000133808
9.2024e-05 9.62936e-06 0.000116587
0.000220258 6.70904e-06 8.12292e-05
0.000214884 -2.81181e-07 -3.40438e-06
7.91638e-05 -7.10084e-06 -8.59729e-05
-0.000104576 -9.61323e-06 -0.000116391
-0.000224881 -6.29436e-06 -7.62084e-05
-0.000208776 8.42586e-07 1.02015e-05
-6.6029e-05 7.46821e-06 9.04207e-05
-7.9528e-06 9.16473e-06 -1.00755e-05
-1.90349e-05 6.38531e-06 -7.0199e-06
-1.85705e-05 -2.67614e-07 2.9421e-07
-6.84141e-06 -6.75821e-06 7.42986e-06
9.03753e-06 -9.14937e-06 1.00587e-05
1.94344e-05 -5.99064e-06 6.58601e-06
1.80427e-05 8.01929e-07 -8.81627e-07
5.70629e-06 7.10785e-06 -7.81425e-06
-0.000103105 3.14089e-06 -0.000130626
-0.000246781 2.18835e-06 -9.10108e-05
-0.00024076 -9.17153e-08 3.81434e-06
-8.86967e-05 -2.31614e-06 9.63257e-05
0.000117169 -3.13563e-06 0.000130407
0.000251961 -2.05308e-06 8.53855e-05
0.000233917 2.74834e-07 -1.143e-05
7.39803e-05 2.43597e-06 -0.000101309
-0.000135716 -4.78817e-06 -0.000171941
-0.000324834 -3.33605e-06 -0.000119796
-0.000316908 1.39816e-07 5.02074e-06
-0.00011675 3.53087e-06 0.000126792
0.000154227 4.78014e-06 0.000171653
0.000331652 3.12985e-06 0.000112391
0.000307901 -4.18973e-07 -1.50451e-05
9.73788e-05 -3.71354e-06 -0.000133351
-8.60027e-05 -9.81279e-06 -0.000108958
-0.00020584 -6.83664e-06 -7.5912e-05
-0.000200818 2.86529e-07 3.18153e-06
-7.39818e-05 7.23589e-06 8.03452e-05
9.77303e-05 9.79605e-06 0.000108773
0.00021016 6.41407e-06 7.12199e-05
0.00019511 -8.58611e-07 -9.53377e-06
6.17087e-05 -7.61046e-06 -8.45044e-05
0 -0.000237715 0
0 -0.000179812 0
0 7.53605e-06 0
0 0.000190312 0
0 0.000257648 0
0 0.000168697 0
0 -2.25825e-05 0
0 -0.000184363 0
6.60421e-05 -9.35201e-05 -0.000152461
0.000158071 -6.51582e-05 -0.000106224
0.000154214 2.73083e-06 4.45193e-06
5.68128e-05 6.89634e-05 0.000112427
-7.505e-05 9.33637e-05 0.000152206
-0.000161389 6.11308e-05 9.96581e-05
-0.000149831 -8.1832e-06 -1.33406e-05
-4.73865e-05 -7.2531e-05 -0.000118244
9.2024e-05 0.000107402 -0.000212441
0.000220258 7.48302e-05 -0.000148014
0.000214884 -3.1362e-06 6.20337e-06
7.91638e-05 -7.92002e-05 0.000156658
-0.000104576 -0.000107222 0.000212085
-0.000224881 -7.0205e-05 0.000138865
-0.000208776 9.3979e-06 -1.8589e-05
-6.6029e-05 8.32977e-05 -0.000164762
6.21853e-05 0.000243176 -0.000143558
0.00014884 0.000169427 -0.00010002
0.000145208 -7.10084e-06 4.19194e-06
5.3495e-05 -0.000179322 0.000105862
-7.06672e-05 -0.000242769 0.000143317
-0.000151964 -0.000158955 9.38383e-05
-0.000141081 2.12783e-05 -1.25615e-05
-4.46192e-05 0.000188599 -0.000111338
-5.37411e-06 0.000231442 1.24064e-05
-1.28629e-05 0.000161252 8.64387e-06
-1.2549e-05 -6.75821e-06 -3.62271e-07
-4.62309e-06 -0.000170669 -9.14866e-06
6.10713e-06 -0.000231055 -1.23856e-05
1.31328e-05 -0.000151285 -8.1096e-06
1.21924e-05 2.02516e-05 1.08558e-06
3.85604e-06 0.000179499 9.62197e-06
-6.96737e-05 7.93188e-05 0.000160845
-0.000166763 5.52636e-05 0.000112065
-0.000162694 -2.31614e-06 -4.69673e-06
-5.99369e-05 -5.84909e-05 -0.000118609
7.91769e-05 -7.91859e-05 -0.000160575
0.000170263 -5.18478e-05 -0.000105138
0.00015807 6.94054e-06 1.40742e-05
4.99923e-05 6.1517e-05 0.000124746
-9.17101e-05 -0.000120919 0.000211717
-0.000219507 -8.42472e-05 0.000147509
-0.000214151 3.53087e-06 -6.18222e-06
-7.88938e-05 8.91672e-05 -0.000156123
0.000104219 0.000120716 -0.000211362
0.000224114 7.90399e-05 -0.000138391
0.000208064 -1.05806e-05 1.85256e-05
6.58038e-05 -9.37803e-05 0.0001642
-5.81164e-05 -0.000247808 0.000134164
-0.000139097 -0.00017265 9.34732e-05
-0.000135703 7.23589e-06 -3.91754e-06
-4.99933e-05 0.000182732 -9.8932e-05
6.60414e-05 0.000247386 -0.000133936
0.000142016 0.000161978 -8.76957e-05
0.000131846 -2.1683e-05 1.17393e-05
4.16997e-05 -0.000192192 0.000104053
0 -0.000321822 0
0 -0.000243432 0
0 1.02024e-05 0
0 0.000257648 0
0 0.000348807 0
0 0.000228385 0
0 -3.05725e-05 0
0 -0.000249594 0
-5.70742e-06 -0.000126609 -0.000336259
-1.36606e-05 -8.82122e-05 -0.000234281
-1.33273e-05 3.69704e-06 9.8189e-06
-4.90982e-06 9.33637e-05 0.000247963
6.48589e-06 0.000126397 0.000335696
1.39474e-05 8.27598e-05 0.0002198
1.29485e-05 -1.10785e-05 -2.94232e-05
4.09519e-06 -9.81936e-05 -0.000260791
-7.9528e-06 0.000145403 -0.000468548
-1.90349e-05 0.000101306 -0.00032645
-1.85705e-05 -4.24583e-06 1.36818e-05
-6.84141e-06 -0.000107222 0.000345514
9.03753e-06 -0.000145159 0.000467762
1.94344e-05 -9.50446e-05 0.000306272
1.80427e-05 1.2723e-05 -4.09988e-05
5.70629e-06 0.00011277 -0.00036339
-5.37411e-06 0.000329215 -0.000316622
-1.28629e-05 0.000229373 -0.000220599
-1.2549e-05 -9.61323e-06 9.24548e-06
-4.62309e-06 -0.000242769 0.000233482
6.10713e-06 -0.000328664 0.000316091
1.31328e-05 -0.000215196 0.000206964
1.21924e-05 2.88069e-05 -2.77049e-05
3.85604e-06 0.000255328 -0.000245561
4.64436e-07 0.00031333 2.73628e-05
1.11162e-06 0.000218306 1.90644e-05
1.0845e-06 -9.14937e-06 -7.99004e-07
3.99532e-07 -0.000231055 -2.01777e-05
-5.27784e-07 -0.000312805 -2.73169e-05
-1.13495e-06 -0.000204812 -1.7886e-05
-1.05368e-06 2.7417e-05 2.39429e-06
-3.33242e-07 0.000243008 2.12216e-05
6.02127e-06 0.000107383 0.000354749
1.44118e-05 7.48167e-05 0.000247164
1.40602e-05 -3.13563e-06 -1.03588e-05
5.17981e-06 -7.91859e-05 -0.000261598
-6.84255e-06 -0.000107203 -0.000354155
-1.47143e-05 -7.01923e-05 -0.000231887
-1.36606e-05 9.39621e-06 3.10412e-05
-4.32038e-06 8.32826e-05 0.000275131
7.92568e-06 -0.000163701 0.00046695
1.897e-05 -0.000114055 0.000325337
1.85071e-05 4.78014e-06 -1.36351e-05
6.81808e-06 0.000120716 -0.000344336
-9.00671e-06 0.000163427 -0.000466167
-1.93682e-05 0.000107005 -0.000305228
-1.79811e-05 -1.43241e-05 4.08589e-05
-5.68683e-06 -0.000126961 0.00036215
5.02248e-06 -0.000335487 0.000295905
1.20209e-05 -0.000233736 0.000206159
1.17276e-05 9.79605e-06 -8.64028e-06
4.32047e-06 0.000247386 -0.000218198
-5.70736e-06 0.000334914 -0.0002954
-1.22732e-05 0.000219289 -0.000193416
-1.13943e-05 -2.93548e-05 2.58914e-05
-3.60373e-06 -0.000260192 0.000229494
0 -0.000210716 0
0 -0.000159389 0
0 6.68013e-06 0
0 0.000168697 0
0 0.000228385 0
0 0.000149537 0
0 -2.00176e-05 0
0 -0.000163424 0
-7.39949e-05 -8.28985e-05 -0.000316087
-0.000177106 -5.77578e-05 -0.000220226
-0.000172784 2.42068e-06 9.22986e-06
-6.36543e-05 6.11308e-05 0.000233087
8.40876e-05 8.27598e-05 0.000315557
0.000180823 5.41878e-05 0.000206614
0.000167874 -7.25379e-06 -2.76581e-05
5.30928e-05 -6.42932e-05 -0.000245146
-0.000103105 9.52041e-05 -0.000440439
-0.000246781 6.63313e-05 -0.000306866
-0.00024076 -2.78e-06 1.2861e-05
-8.86967e-05 -7.0205e-05 0.000324787
0.000117169 -9.50446e-05 0.000439701
0.000251961 -6.22314e-05 0.000287899
0.000233917 8.33053e-06 -3.85392e-05
7.39803e-05 7.38371e-05 -0.00034159
-6.96737e-05 0.000215557 -0.000297627
-0.000166763 0.000150185 -0.000207365
-0.000162694 -6.29436e-06 8.69084e-06
-5.99369e-05 -0.000158955 0.000219475
7.91769e-05 -0.000215196 0.000297129
0.000170263 -0.000140902 0.000194548
0.00015807 1.88616e-05 -2.60429e-05
4.99923e-05 0.000167179 -0.00023083
6.02127e-06 0.000205156 2.57213e-05
1.44118e-05 0.000142938 1.79207e-05
1.40602e-05 -5.99064e-06 -7.51071e-07
5.17981e-06 -0.000151285 -1.89673e-05
-6.84255e-06 -0.000204812 -2.56781e-05
-1.47143e-05 -0.000134103 -1.6813e-05
-1.36606e-05 1.79515e-05 2.25066e-06
-4.32038e-06 0.000159112 1.99485e-05
7.80638e-05 7.03101e-05 0.000333468
0.000186844 4.8987e-05 0.000232336
0.000182285 -2.05308e-06 -9.7374e-06
6.71545e-05 -5.18478e-05 -0.000245904
-8.87114e-05 -7.01923e-05 -0.000332909
-0.000190766 -4.59591e-05 -0.000217976
-0.000177105 6.15226e-06 2.9179e-05
-5.60123e-05 5.45301e-05 0.000258626
0.000102754 -0.000107185 0.000438937
0.00024594 -7.46788e-05 0.00030582
0.000239939 3.12985e-06 -1.28171e-05
8.83942e-05 7.90399e-05 -0.000323679
-0.000116769 0.000107005 -0.000438202
-0.000251102 7.00629e-05 -0.000286917
-0.00023312 -9.37888e-06 3.84078e-05
-7.3728e-05 -8.31291e-05 0.000340425
6.51148e-05 -0.000219663 0.000278153
0.000155847 -0.000153041 0.000193791
0.000152044 6.41407e-06 -8.12195e-06
5.60135e-05 0.000161978 -0.000205109
-7.39941e-05 0.000219289 -0.000277679
-0.000159118 0.000143581 -0.000181813
-0.000147723 -1.92203e-05 2.43382e-05
-4.67212e-05 -0.000170363 0.000215726
0 2.82072e-05 0
0 2.13364e-05 0
0 -8.94228e-07 0
0 -2.25825e-05 0
0 -3.05725e-05 0
0 -2.00176e-05 0
0 2.67964e-06 0
0 2.18766e-05 0
-9.73981e-05 1.10971e-05 -0.00010418
-0.000233121 7.73167e-06 -7.25853e-05
-0.000227433 -3.24041e-07 3.04211e-06
-8.37869e-05 -8.1832e-06 7.68242e-05
0.000110683 -1.10785e-05 0.000104006
0.000238014 -7.25379e-06 6.80988e-05
0.000220969 9.71018e-07 -9.11596e-06
6.98851e-05 8.60653e-06 -8.07987e-05
-0.000135716 -1.27444e-05 -0.000145166
-0.000324834 -8.87935e-06 -0.000101141
-0.000316908 3.72141e-07 4.23891e-06
-0.00011675 9.3979e-06 0.000107048
0.000154227 1.2723e-05 0.000144923
0.000331652 8.33053e-06 9.48898e-05
0.000307901 -1.11516e-06 -1.27023e-05
9.73788e-05 -9.8841e-06 -0.000112586
-9.17101e-05 -2.88553e-05 -9.80963e-05
-0.000219507 -2.01043e-05 -6.83464e-05
-0.000214151 8.42586e-07 2.86445e-06
-7.88938e-05 2.12783e-05 7.23377e-05
0.000104219 2.88069e-05 9.79319e-05
0.000224114 1.88616e-05 6.41219e-05
0.000208064 -2.52489e-06 -8.5836e-06
6.58038e-05 -2.23792e-05 -7.60801e-05
7.92568e-06 -2.7463e-05 8.47758e-06
1.897e-05 -1.91342e-05 5.90656e-06
1.85071e-05 8.01929e-07 -2.47549e-07
6.81808e-06 2.02516e-05 -6.2515e-06
-9.00671e-06 2.7417e-05 -8.46337e-06
-1.93682e-05 1.79515e-05 -5.54148e-06
-1.79811e-05 -2.40306e-06 7.41803e-07
-5.68683e-06 -2.12993e-05 6.57492e-06
0.000102754 -9.41198e-06 0.000109909
0.00024594 -6.55758e-06 7.65766e-05
0.000239939 2.74834e-07 -3.20939e-06
8.83942e-05 6.94054e-06 -8.10487e-05
-0.000116769 9.39621e-06 -0.000109725
-0.000251102 6.15226e-06 -7.18435e-05
-0.00023312 -8.23564e-07 9.61723e-06
-7.3728e-05 -7.29961e-06 8.52417e-05
0.000135253 1.43482e-05 0.000144671
0.000323726 9.99678e-06 0.000100796
0.000315827 -4.18973e-07 -4.22446e-06
0.000116352 -1.05806e-05 -0.000106683
-0.000153701 -1.43241e-05 -0.000144429
-0.000330521 -9.37888e-06 -9.45662e-05
-0.000306851 1.25549e-06 1.2659e-05
-9.70467e-05 1.1128e-05 0.000112202
8.57094e-05 2.94049e-05 9.16777e-05
0.000205138 2.04866e-05 6.38725e-05
0.000200133 -8.58611e-07 -2.67695e-06
7.37295e-05 -2.1683e-05 -6.76026e-05
-9.7397e-05 -2.93548e-05 -9.15214e-05
-0.000209444 -1.92203e-05 -5.99245e-05
-0.000194445 2.57291e-06 8.02172e-06
-6.14982e-05 2.28055e-05 7.11021e-05
0 0.00025002 0
0 0.000174191 0
0 -7.30048e-06 0
0 -0.000184363 0
0 -0.000249594 0
0 -0.000163424 0
0 2.18766e-05 0
0 0.000193907 0
-6.17209e-05 9.83613e-05 0.00017092
-0.000147724 6.8529e-05 0.000119081
-0.000144119 -2.87211e-06 -4.99079e-06
-5.30939e-05 -7.2531e-05 -0.000126036
7.01373e-05 -9.81936e-05 -0.000170629
0.000150824 -6.42932e-05 -0.000111721
0.000140023 8.60653e-06 1.49554e-05
4.4286e-05 7.62857e-05 0.00013256
-8.60027e-05 -0.000112962 0.000238163
-0.00020584 -7.87015e-05 0.000165929
-0.000200818 3.29845e-06 -6.95424e-06
-7.39818e-05 8.32977e-05 -0.00017562
9.77303e-05 0.00011277 -0.000237756
0.00021016 7.38371e-05 -0.000155673
0.00019511 -9.8841e-06 2.0839e-05
6.17087e-05 -8.76097e-05 0.000184711
-5.81164e-05 -0.000255764 0.000160939
-0.000139097 -0.000178193 0.000112127
-0.000135703 7.46821e-06 -4.69934e-06
-4.99933e-05 0.000188599 -0.000118675
6.60414e-05 0.000255328 -0.000160664
0.000142016 0.000167179 -0.000105197
0.000131846 -2.23792e-05 1.4082e-05
4.16997e-05 -0.000198362 0.000124819
5.02248e-06 -0.000243423 -1.39085e-05
1.20209e-05 -0.000169595 -9.69013e-06
1.17276e-05 7.10785e-06 4.06121e-07
4.32047e-06 0.000179499 1.0256e-05
-5.70736e-06 0.000243008 1.38848e-05
-1.22732e-05 0.000159112 9.09119e-06
-1.13943e-05 -2.12993e-05 -1.21698e-06
-3.60373e-06 -0.000188791 -1.07869e-05
6.51148e-05 -8.34249e-05 -0.000180319
0.000155847 -5.81227e-05 -0.000125629
0.000152044 2.43597e-06 5.26523e-06
5.60135e-05 6.1517e-05 0.000132966
-7.39941e-05 8.32826e-05 0.000180011
-0.000159118 5.45301e-05 0.000117864
-0.000147723 -7.29961e-06 -1.57778e-05
-4.67212e-05 -6.47015e-05 -0.000139849
8.57094e-05 0.000127178 -0.00023735
0.000205138 8.86058e-05 -0.000165364
0.000200133 -3.71354e-06 6.93052e-06
7.37295e-05 -9.37803e-05 0.000175021
-9.7397e-05 -0.000126961 0.000236946
-0.000209444 -8.31291e-05 0.000155143
-0.000194445 1.1128e-05 -2.0768e-05
-6.14982e-05 9.86349e-05 -0.000184081
5.43138e-05 0.000260636 -0.000150408
0.000129995 0.000181587 -0.00010479
0.000126824 -7.61046e-06 4.39185e-06
4.67222e-05 -0.000192192 0.00011091
-6.17202e-05 -0.000260192 0.000150152
-0.000132724 -0.000170363 9.83134e-05
-0.000123219 2.28055e-05 -1.31606e-05
-3.89712e-05 0.000202141 -0.000116651
