# vtk DataFile Version 3.0
Velocity field
ASCII
DATASET STRUCTURED_POINTS
DIMENSIONS 10 10 10
SPACING 0.631579 0.631579 0.631579
ORIGIN 0 0 0
POINT_DATA 1000
VECTORS velocity float
0 0.405415 0
0 0.327209 0
0 0.122763 0
0 -0.129046 0
0 -0.331068 0
0 -0.405361 0
0 -0.323264 0
0 -0.116449 0
0 0.135293 0
0 0.334838 0
0 0.249003 0.317571
0 0.200969 0.266361
0 0.0754003 0.099934
0 -0.0792588 -0.105048
0 -0.203339 -0.269502
0 -0.24897 -0.329979
0 -0.198546 -0.263149
0 -0.0715218 -0.0947935
0 0.0830962 0.110134
0 0.205655 0.262287
0 -0.0034764 0.512621
0 -0.00280579 0.429957
0 -0.00105268 0.161313
0 0.00110655 -0.169568
0 0.00283887 -0.435027
0 0.00347594 -0.53265
0 0.00277196 -0.424773
0 0.000998535 -0.153015
0 -0.00116013 0.177777
0 -0.00287121 0.423381
0 -0.254615 0.509898
0 -0.205499 0.427673
0 -0.0770996 0.160456
0 0.081045 -0.168667
0 0.207922 -0.432716
0 0.254581 -0.529821
0 0.203021 -0.422516
0 0.0731336 -0.152202
0 -0.0849689 0.176833
0 -0.21029 0.421132
0 -0.407521 0.310453
0 -0.328908 0.26039
0 -0.123401 0.0976938
0 0.129716 -0.102693
0 0.332787 -0.26346
0 0.407467 -0.322583
0 0.324942 -0.25725
0 0.117053 -0.0926685
0 -0.135996 0.107665
0 -0.336577 0.256407
0 -0.403202 -0.00876801
0 -0.325423 -0.00735409
0 -0.122093 -0.00275914
0 0.128341 0.00290032
0 0.32926 0.00744081
0 0.403149 0.00911058
0 0.321499 0.00726542
0 0.115813 0.00261721
0 -0.134555 -0.00304075
0 -0.33301 -0.00724162
0 -0.243325 -0.324606
0 -0.196387 -0.272261
0 -0.0736811 -0.102148
0 0.0774516 0.107375
0 0.198703 0.275471
0 0.243293 0.337289
0 0.194019 0.268978
0 0.069891 0.0968932
0 -0.0812015 -0.112573
0 -0.200966 -0.268096
0 0.0104284 -0.515208
0 0.0084167 -0.432127
0 0.0031578 -0.162127
0 -0.0033194 0.170423
0 -0.00851595 0.437223
0 -0.010427 0.535339
0 -0.00831521 0.426917
0 -0.00299537 0.153787
0 0.00348011 -0.178675
0 0.00861294 -0.425518
0 0.260158 -0.50704
0 0.209973 -0.425276
0 0.0787783 -0.159556
0 -0.0828096 0.167721
0 -0.212449 0.43029
0 -0.260124 0.526851
0 -0.207441 0.420148
0 -0.074726 0.151349
0 0.0868189 -0.175842
0 0.214869 -0.418771
0 0.409518 -0.303251
0 0.33052 -0.244753
0 0.124006 -0.0918271
0 -0.130351 0.0965262
0 -0.334418 0.247639
0 -0.409463 0.303211
0 -0.326535 0.241802
0 -0.117627 0.0871037
0 0.136662 -0.1012
0 0.338226 -0.250459
0 0.327209 0
0 0.277827 0
0 0.104236 0
0 -0.10957 0
0 -0.281103 0
0 -0.344185 0
0 -0.274477 0
0 -0.0988742 0
0 0.114875 0
0 0.270246 0
0.0461744 0.200969 0.351462
0.124766 0.167649 0.29316
0.153704 0.0629433 0.110067
0.123315 -0.0661661 -0.115702
0.045349 -0.16975 -0.296836
-0.0501127 -0.207843 -0.363448
-0.12624 -0.165748 -0.289839
-0.153663 -0.0597085 -0.10441
-0.121777 0.0692706 0.121129
-0.0415429 0.165983 0.290278
0.0745344 -0.00280579 0.567328
0.201396 -0.00233355 0.473216
0.248108 -0.000876065 0.177669
0.199054 0.000920919 -0.186766
0.0732023 0.00236263 -0.47915
-0.0808915 0.00289281 -0.586676
-0.203776 0.00230694 -0.467856
-0.248042 0.000831038 -0.168538
-0.196571 -0.000964262 0.195525
-0.0670582 -0.00231734 0.468564
0.0741385 -0.205499 0.564314
0.200326 -0.171222 0.470702
0.24679 -0.0642837 0.176725
0.197996 0.0675752 -0.185774
0.0728134 0.173365 -0.476604
-0.080462 0.212268 -0.583559
-0.202694 0.169278 -0.46537
-0.246724 0.0609799 -0.167643
-0.195527 -0.0707477 0.194486
-0.066702 -0.169724 0.466075
0.0451394 -0.328908 0.343584
0.121969 -0.274047 0.286587
0.150258 -0.102888 0.1076
0.120551 0.108157 -0.113109
0.0443324 0.277476 -0.290182
-0.0489892 0.339744 -0.3553
-0.12341 0.270936 -0.283342
-0.150218 0.0976008 -0.10207
-0.119047 -0.113235 0.118413
-0.0406117 -0.27165 0.283771
-0.00127486 -0.325423 -0.00970372
-0.00344472 -0.271143 -0.008094
-0.0042437 -0.101798 -0.0030389
-0.00340465 0.107011 0.00319449
-0.00125207 0.274536 0.00819551
0.00138358 0.336144 0.0100347
0.00348544 0.268065 0.00800233
0.00424258 0.0965664 0.00288272
0.00336222 -0.112035 -0.0033443
0.00114698 -0.268771 -0.00801444
-0.0471972 -0.196387 -0.359247
-0.12753 -0.16363 -0.299653
-0.157109 -0.0614334 -0.112505
-0.126046 0.0645788 0.118265
-0.0463536 0.165677 0.303411
0.0512225 0.202857 0.371498
0.129037 0.161773 0.29626
0.157067 0.0582762 0.106723
0.124474 -0.067611 -0.123812
0.0424631 -0.162199 -0.296707
-0.0749106 0.0084167 -0.570191
-0.202412 0.00701072 -0.475601
-0.249359 0.00263208 -0.178565
-0.200058 -0.00276684 0.187708
-0.0735714 -0.00709836 0.481566
0.0812992 -0.00869126 0.589634
0.204803 -0.00693104 0.470215
0.249293 -0.00249681 0.169388
0.197562 0.00289682 -0.196511
0.0673967 0.00695146 -0.470928
-0.0737228 0.209973 -0.56115
-0.199133 0.174797 -0.467905
-0.245319 0.0656239 -0.175673
-0.196816 -0.0689838 0.184667
-0.0723793 -0.176979 0.473767
0.0799823 -0.216694 0.580083
0.201486 -0.172807 0.462598
0.245254 -0.0622511 0.166645
0.194362 0.0722269 -0.193332
0.0663281 0.173419 -0.463462
-0.0440923 0.33052 -0.335614
-0.115266 0.266762 -0.270873
-0.141969 0.100084 -0.101627
-0.113899 -0.105206 0.106827
-0.0418865 -0.269907 0.274067
0.0462864 -0.330476 0.335569
0.116602 -0.263545 0.267606
0.141931 -0.0949362 0.0963992
0.112503 0.1103 -0.112
0.0396696 0.272981 -0.277188
0 0.122763 0
0 0.104236 0
0 0.0391076 0
0 -0.0411089 0
0 -0.105465 0
0 -0.129132 0
0 -0.102979 0
0 -0.0370959 0
0 0.0430992 0
0 0.101392 0
0.0745344 0.0754003 0.249756
0.201396 0.0629433 0.208249
0.248108 0.0236323 0.0781868
0.199054 -0.0248424 -0.0821899
0.0732023 -0.0637335 -0.21086
-0.0808915 -0.0780356 -0.258178
-0.203776 -0.0622311 -0.205889
-0.248042 -0.0224179 -0.074169
-0.196571 0.0260068 0.086045
-0.0670582 0.0622741 0.206277
0.120313 -0.00105268 0.403155
0.325092 -0.000876064 0.336153
0.400496 -0.000328901 0.126209
0.321312 0.000345738 -0.132671
0.118162 0.000886997 -0.340368
-0.130574 0.00108605 -0.416749
-0.328933 0.000866091 -0.332345
-0.400389 0.000311996 -0.119723
-0.317304 -0.000361997 0.138893
-0.108245 -0.000869425 0.332971
0.119674 -0.0770996 0.401013
0.323366 -0.0642836 0.334367
0.398368 -0.0241352 0.125538
0.319605 0.025371 -0.131966
0.117535 0.0650895 -0.33856
-0.12988 0.0796964 -0.414535
-0.327186 0.0635554 -0.330578
-0.398262 0.0228949 -0.119087
-0.315618 -0.026561 0.138155
-0.10767 -0.0636775 0.331202
0.0728636 -0.123401 0.244158
0.196881 -0.102888 0.20358
0.242547 -0.0386294 0.0764341
0.194591 0.0406073 -0.0803481
0.0715611 0.104178 -0.206133
-0.079078 0.127557 -0.25239
-0.199209 0.101723 -0.201275
-0.242483 0.0366443 -0.0725062
-0.192165 -0.0425119 0.0841162
-0.065555 -0.101918 0.201653
-0.00205786 -0.122093 -0.00689566
-0.00556044 -0.101798 -0.00574966
-0.00685014 -0.03822 -0.0021587
-0.00549578 0.0401771 0.00226924
-0.00202107 0.103074 0.00582178
0.00223337 0.126205 0.00712821
0.00562616 0.100645 0.0056845
0.00684832 0.0362559 0.00204776
0.00542728 -0.0420614 -0.00237566
0.00185145 -0.100838 -0.00569522
-0.0761854 -0.0736811 -0.255289
-0.205857 -0.0614334 -0.212861
-0.253604 -0.0230651 -0.079919
-0.203463 0.0242461 0.0840108
-0.0748234 0.0622036 0.215531
0.0826828 0.0761625 0.263897
0.20829 0.0607375 0.21045
0.253537 0.0218798 0.0758114
0.200926 -0.0253833 -0.087951
0.0685436 -0.0608542 -0.210846
-0.12092 0.0031578 -0.405189
-0.326731 0.00263208 -0.337848
-0.402515 0.000988201 -0.126845
-0.322932 -0.0010388 0.13334
-0.118758 -0.00266504 0.342084
0.131232 -0.00326309 0.41885
0.330591 -0.00260222 0.33402
0.402408 -0.000937414 0.120326
0.318904 0.00108755 -0.139593
0.108791 0.00260807 -0.334651
-0.119003 0.0787783 -0.398765
-0.321439 0.0656239 -0.33238
-0.395993 0.0246377 -0.124791
-0.3177 -0.0258992 0.13118
-0.116834 -0.0664446 0.336544
0.129106 -0.0813552 0.412066
0.325237 -0.0648784 0.32861
0.395887 -0.0233715 0.118377
0.313738 0.0271156 -0.137336
0.107066 0.065064 -0.329346
-0.0711735 0.124006 -0.238494
-0.186061 0.100084 -0.192488
-0.229165 0.03755 -0.0722181
-0.183855 -0.0394715 0.0759138
-0.067613 -0.101265 0.194758
0.0747151 -0.123989 0.238462
0.188217 -0.0988777 0.190167
0.229104 -0.0356185 0.0685033
0.181601 0.0413826 -0.0795892
0.0640344 0.102418 -0.196976
0 -0.129046 0
0 -0.10957 0
0 -0.0411089 0
0 0.0432125 0
0 0.110862 0
0 0.13574 0
0 0.108249 0
0 0.0389943 0
0 -0.0453047 0
0 -0.10658 0
0.0741385 -0.0792588 0.0516926
0.200326 -0.0661661 0.0431012
0.24679 -0.0248424 0.0161823
0.197996 0.0261144 -0.0170108
0.0728134 0.0669969 -0.0436417
-0.080462 0.082031 -0.0534352
-0.202694 0.0654175 -0.0426128
-0.246724 0.0235658 -0.0153507
-0.195527 -0.0273383 0.0178087
-0.066702 -0.0654609 0.0426936
0.119674 0.00110655 0.0834418
0.323366 0.000920919 0.0695734
0.398368 0.000345738 0.0261214
0.319605 -0.000363442 -0.0274588
0.117535 -0.000932408 -0.070446
-0.12988 -0.00114166 -0.0862546
-0.327186 -0.000910435 -0.0687851
-0.398262 -0.000327968 -0.0247789
-0.315618 0.000380531 0.0287467
-0.10767 0.000913917 0.0689158
0.119038 0.081045 0.0829986
0.321648 0.0675752 0.0692038
0.396251 0.025371 0.0259826
0.317907 -0.0266701 -0.0273129
0.11691 -0.0684221 -0.0700717
-0.12919 -0.0837767 -0.0857962
-0.325449 -0.0668096 -0.0684197
-0.396145 -0.0240671 -0.0246473
-0.313942 0.0279209 0.028594
-0.107098 0.0669361 0.0685497
0.0724766 0.129716 0.0505338
0.195835 0.108157 0.0421349
0.241259 0.0406073 0.0158196
0.193558 -0.0426864 -0.0166296
0.0711811 -0.109512 -0.0426632
-0.0786579 -0.134088 -0.0522372
-0.19815 -0.106932 -0.0416576
-0.241195 -0.0385204 -0.0150066
-0.191144 0.0446884 0.0174095
-0.0652068 0.107134 0.0417366
-0.00204693 0.128341 -0.00142721
-0.0055309 0.107011 -0.00119
-0.00681374 0.0401771 -0.000446787
-0.00546662 -0.0422341 0.000469664
-0.00201034 -0.108352 0.00120493
0.00222151 -0.132667 0.00147532
0.00559627 -0.105798 0.00117652
0.00681194 -0.0381122 0.000423825
0.00539843 0.0442149 -0.00049169
0.00184161 0.105999 -0.00117875
-0.0757807 0.0774516 -0.0528376
-0.204763 0.0645788 -0.0440558
-0.252257 0.0242461 -0.0165408
-0.202383 -0.0254875 0.0173877
-0.0744262 -0.0653886 0.0446081
0.0822436 -0.0800624 0.0546186
0.207183 -0.0638474 0.0435569
0.25219 -0.0230001 0.0156907
0.199858 0.026683 -0.0182032
0.0681795 0.0639683 -0.0436393
-0.120278 -0.0033194 -0.0838629
-0.324996 -0.00276684 -0.0699242
-0.400376 -0.0010388 -0.026253
-0.321217 0.00109198 0.0275972
-0.118127 0.00280149 0.0708011
0.130535 0.00343016 0.0866896
0.328835 0.00273546 0.069132
0.40027 0.000985409 0.0249039
0.31721 -0.00114323 -0.0288916
0.108213 -0.00274153 -0.0692635
-0.118371 -0.0828096 -0.0825332
-0.319731 -0.0689838 -0.0687927
-0.393889 -0.0258992 -0.0258279
-0.316011 0.0272252 0.0271503
-0.116213 0.0698466 0.0696544
0.128421 0.0855205 0.0852853
0.32351 0.0682001 0.0680125
0.393784 0.0245681 0.0245005
0.312072 -0.0285039 -0.0284244
0.106498 -0.0683936 -0.0681653
-0.0707954 -0.130351 -0.0493616
-0.185073 -0.105206 -0.0398396
-0.227948 -0.0394715 -0.0149471
-0.182879 0.0414914 0.015712
-0.0672538 0.106447 0.0403094
0.0743182 0.130334 0.0493551
0.187218 0.103938 0.0393592
0.227887 0.0374412 0.0141783
0.180636 -0.0435003 -0.0164727
0.0636942 -0.107659 -0.0407685
0 -0.331068 0
0 -0.281103 0
0 -0.105465 0
0 0.110862 0
0 0.284418 0
0 0.348243 0
0 0.277714 0
0 0.10004 0
0 -0.11623 0
0 -0.273433 0
0.0451394 -0.203339 -0.166315
0.121969 -0.16975 -0.138672
0.150258 -0.0637335 -0.0520645
0.120551 0.0669969 0.0547302
0.0443324 0.171881 0.140411
-0.0489892 0.210452 0.17192
-0.12341 0.167829 0.137101
-0.150218 0.0604582 0.0493888
-0.119047 -0.0701367 -0.0572973
-0.0406117 -0.167941 -0.137361
0.0728636 0.00283887 -0.268464
0.196881 0.00236263 -0.223844
0.242547 0.000886997 -0.0840422
0.194591 -0.000932407 0.0883452
0.0715611 -0.00239211 0.226651
-0.079078 -0.00292894 0.277512
-0.199209 -0.00233572 0.221308
-0.242483 -0.000841407 0.0797233
-0.192165 0.000976252 -0.0924888
-0.065555 0.00234466 -0.221728
0.0724766 0.207922 -0.267038
0.195835 0.173365 -0.222655
0.241259 0.0650895 -0.0835957
0.193558 -0.0684221 0.0878761
0.0711811 -0.175538 0.225447
-0.0786579 -0.214931 0.276038
-0.19815 -0.1714 0.220132
-0.241195 -0.0617445 0.0792996
-0.191144 0.0716313 -0.0919974
-0.0652068 0.171725 -0.22055
0.0441275 0.332787 -0.162586
0.119235 0.277476 -0.135564
0.146891 0.104178 -0.0508973
0.117848 -0.109512 0.0535036
0.0433389 -0.280956 0.137263
-0.0478909 -0.344004 0.168067
-0.120644 -0.274332 0.134028
-0.146852 -0.0988245 0.0482817
-0.116379 0.114649 -0.0560128
-0.0397013 0.274853 -0.134282
-0.00124628 0.32926 0.00459187
-0.00336752 0.274536 0.00382868
-0.00414857 0.103074 0.00143748
-0.00332834 -0.108352 -0.00151107
-0.001224 -0.277978 -0.00387669
0.00135258 -0.340358 -0.00474663
0.0034073 -0.271426 -0.00378532
0.00414747 -0.0977774 -0.00136361
0.00328684 0.113434 0.00158195
0.00112127 0.27194 0.00379249
-0.0461392 0.198703 0.169998
-0.12467 0.165677 0.141744
-0.153587 0.0622036 0.0532179
-0.123221 -0.0653886 -0.0559426
-0.0453144 -0.167755 -0.143521
0.0500745 -0.2054 -0.175729
0.126144 -0.1638 -0.140138
0.153546 -0.0590069 -0.050483
0.121684 0.0684553 0.0585664
0.0415112 0.164111 0.140404
-0.0732313 -0.00851595 0.269818
-0.197874 -0.00709836 0.224972
-0.24377 -0.00266504 0.0844658
-0.195573 0.00280149 -0.0887904
-0.0719219 0.00718726 -0.227794
0.0794769 0.00880015 -0.278911
0.200213 0.00701786 -0.222424
0.243705 0.00252808 -0.0801252
0.193134 -0.00293297 0.0929552
0.0658859 -0.00703343 0.222847
-0.0720702 -0.212449 0.26554
-0.194669 -0.176978 0.221332
-0.239821 -0.0664446 0.0830979
-0.192404 0.0698466 -0.087353
-0.0707567 0.179192 -0.224104
0.0781891 0.219404 -0.274394
0.196969 0.174969 -0.218821
0.239757 0.0630297 -0.0788273
0.190005 -0.073127 0.0914517
0.0648412 -0.175464 0.219314
-0.0431039 -0.334418 0.158815
-0.112682 -0.269907 0.128179
-0.138786 -0.101265 0.0480906
-0.111346 0.106447 -0.0505515
-0.0409476 0.27309 -0.12969
0.0452488 0.334373 -0.158794
0.113988 0.266653 -0.126633
0.13875 0.0960557 -0.0456168
0.109981 -0.1116 0.052999
0.0387804 -0.2762 0.131167
0 -0.405361 0
0 -0.344185 0
0 -0.129132 0
0 0.13574 0
0 0.348243 0
0 0.426392 0
0 0.340035 0
0 0.12249 0
0 -0.142312 0
0 -0.334793 0
-0.00127486 -0.24897 -0.320156
-0.00344472 -0.207843 -0.266945
-0.0042437 -0.0780356 -0.100225
-0.00340465 0.082031 0.105356
-0.00125208 0.210452 0.270293
0.00138358 0.257679 0.330947
0.00348544 0.205491 0.263921
0.00424258 0.0740255 0.0950738
0.00336222 -0.0858759 -0.110297
0.00114698 -0.205628 -0.264421
-0.00205786 0.00347594 -0.516794
-0.00556044 0.00289281 -0.430901
-0.00685014 0.00108605 -0.161782
-0.00549578 -0.00114166 0.170065
-0.00202107 -0.00292894 0.436303
0.00223337 -0.0035862 0.534214
0.00562616 -0.00285988 0.42602
0.00684832 -0.00103022 0.153467
0.00542728 0.00119533 -0.178041
0.00185145 0.00287082 -0.426827
-0.00204693 0.254581 -0.514049
-0.0055309 0.212268 -0.428613
-0.00681374 0.0796964 -0.160923
-0.00546662 -0.0837767 0.169162
-0.00201034 -0.214931 0.433986
0.00222151 -0.263162 0.531375
0.00559628 -0.209864 0.423756
0.00681194 -0.0756002 0.152652
0.00539844 0.0877061 -0.177095
0.00184161 0.210262 -0.42456
-0.00124628 0.407467 -0.312979
-0.00336752 0.339744 -0.260961
-0.00414857 0.127557 -0.0979778
-0.00332834 -0.134088 0.102994
-0.001224 -0.344004 0.264233
0.00135258 -0.4212 0.32353
0.0034073 -0.335895 0.258004
0.00414747 -0.121002 0.0929427
0.00328684 0.140377 -0.107825
0.00112127 0.336532 -0.258494
3.51982e-05 0.403149 0.00883938
9.51067e-05 0.336144 0.00737023
0.000117167 0.126205 0.00276714
9.40015e-05 -0.132667 -0.00290885
3.4569e-05 -0.340358 -0.00746264
-3.81999e-05 -0.416737 -0.00913732
-9.62325e-05 -0.332335 -0.00728675
-0.000117136 -0.119719 -0.00262495
-9.28291e-05 0.138889 0.00304526
-3.16677e-05 0.332966 0.00730056
0.0013031 0.243293 0.327248
0.00352102 0.202857 0.272858
0.00433771 0.0761625 0.102444
0.00348008 -0.0800624 -0.10769
0.0012798 -0.2054 -0.276279
-0.00141423 -0.251493 -0.338278
-0.00356266 -0.200559 -0.269768
-0.00433656 -0.0722484 -0.0971796
-0.00343668 0.0838172 0.112741
-0.00117239 0.200939 0.270279
0.00206825 -0.010427 0.519402
0.00558848 -0.00869126 0.433073
0.00688469 -0.00326309 0.162597
0.00552347 0.00343016 -0.170922
0.00203126 0.00880015 -0.438503
-0.00224463 0.010775 -0.536908
-0.00565453 0.00859268 -0.428168
-0.00688287 0.0030954 -0.154241
-0.00545463 -0.00359114 0.178939
-0.00186079 -0.00861178 0.428981
0.00203546 -0.260124 0.511167
0.00549798 -0.216694 0.426065
0.00677315 -0.0813552 0.159964
0.00543404 0.0855205 -0.168154
0.00199836 0.219404 -0.431402
-0.00220827 0.26864 -0.528212
-0.00556291 0.214233 -0.421233
-0.00677135 0.0771742 -0.151743
-0.00536626 -0.0895371 0.176045
-0.00183129 -0.21484 0.42218
0.00121737 -0.409463 0.30572
0.00318244 -0.330476 0.246745
0.0039197 -0.123989 0.0925746
0.00314471 0.130334 -0.0973119
0.00115647 0.334373 -0.249655
-0.00127795 0.409409 -0.305679
-0.00321932 0.326492 -0.24377
-0.00391866 0.117611 -0.0878126
-0.00310615 -0.136644 0.102023
-0.00109526 -0.338181 0.252498
0 -0.323264 0
0 -0.274477 0
0 -0.102979 0
0 0.108249 0
0 0.277714 0
0 0.340035 0
0 0.271168 0
0 0.0976821 0
0 -0.11349 0
0 -0.266988 0
-0.0471972 -0.198546 -0.350479
-0.12753 -0.165748 -0.292229
-0.157109 -0.0622311 -0.109717
-0.126046 0.0654175 0.115335
-0.0463536 0.167829 0.295894
0.0512225 0.205491 0.362292
0.129036 0.163873 0.288918
0.157067 0.059033 0.104078
0.124474 -0.0684835 -0.120744
0.0424631 -0.163982 -0.289466
-0.0761854 0.00277196 -0.565741
-0.205857 0.00230694 -0.471713
-0.253604 0.000866091 -0.177104
-0.203463 -0.000910435 0.186173
-0.0748234 -0.00233572 0.477627
0.0826828 -0.00285988 0.584811
0.20829 -0.00228068 0.466368
0.253537 -0.000821579 0.168003
0.200926 0.000953244 -0.194904
0.0685436 0.00228939 -0.467254
-0.0757807 0.203021 -0.562736
-0.204763 0.169278 -0.469207
-0.252257 0.0635554 -0.176163
-0.202383 -0.0668096 0.185184
-0.0744262 -0.1714 0.475089
0.0822436 -0.209864 0.581704
0.207183 -0.16736 0.463891
0.25219 -0.0602892 0.16711
0.199858 0.0699428 -0.193869
0.0681795 0.167677 -0.464771
-0.0461392 0.324942 -0.342623
-0.12467 0.270936 -0.285677
-0.153587 0.101723 -0.107258
-0.123221 -0.106932 0.112749
-0.0453144 -0.274332 0.289259
0.0500745 -0.335895 0.354171
0.126144 -0.267867 0.282442
0.153546 -0.096495 0.101745
0.121684 0.111946 -0.118037
0.0415112 0.268374 -0.282977
0.0013031 0.321499 0.00967658
0.00352102 0.268065 0.0080683
0.00433771 0.100645 0.00302923
0.00348008 -0.105798 -0.00318434
0.0012798 -0.271426 -0.00816945
-0.00141423 -0.332335 -0.0100028
-0.00356266 -0.265028 -0.00797692
-0.00433656 -0.0954724 -0.00287357
-0.00343668 0.11076 0.00333369
-0.00117239 0.26553 0.00799202
0.0482427 0.194019 0.358243
0.130354 0.161773 0.298702
0.16059 0.0607374 0.112147
0.128838 -0.0638474 -0.117889
0.0473803 -0.1638 -0.302445
-0.0523572 -0.200559 -0.370318
-0.131895 -0.15994 -0.295319
-0.160547 -0.057616 -0.106384
-0.127232 0.0668418 0.123419
-0.0434037 0.160243 0.295878
0.0765699 -0.00831521 0.568596
0.206895 -0.00693104 0.474091
0.254883 -0.00260222 0.177997
0.204488 0.00273546 -0.187112
0.0752005 0.00701786 -0.480036
-0.0830999 0.00859268 -0.58776
-0.20934 0.0068524 -0.46872
-0.254815 0.00246848 -0.16885
-0.201939 -0.00286383 0.195887
-0.0688895 -0.00686764 0.469611
0.0753559 -0.207441 0.559581
0.203543 -0.172807 0.466418
0.250753 -0.0648784 0.175115
0.201176 0.0682001 -0.184081
0.0739827 0.174969 -0.472261
-0.0817535 0.214233 -0.57824
-0.205948 0.170844 -0.461129
-0.250687 0.0615441 -0.166115
-0.198668 -0.0714032 0.192719
-0.0677973 -0.171328 0.462166
0.045069 -0.326535 0.334675
0.117819 -0.263545 0.270115
0.145114 -0.0988777 0.101343
0.116422 0.103938 -0.106529
0.0428144 0.266653 -0.2733
-0.0473116 0.326492 -0.334631
-0.119184 0.260367 -0.266858
-0.145075 0.0937915 -0.0961297
-0.114995 -0.10897 0.111686
-0.0405483 -0.26969 0.276413
0 -0.116449 0
0 -0.0988743 0
0 -0.0370959 0
0 0.0389943 0
0 0.10004 0
0 0.12249 0
0 0.0976821 0
0 0.0351878 0
0 -0.0408822 0
0 -0.0961764 0
-0.0749106 -0.0715218 -0.245585
-0.202412 -0.0597085 -0.204768
-0.249359 -0.0224179 -0.0768804
-0.200058 0.0235658 0.0808171
-0.0735714 0.0604582 0.207336
0.0812992 0.0740256 0.253864
0.204803 0.0590331 0.20245
0.249293 0.0212658 0.0729295
0.197562 -0.0246702 -0.0846072
0.0673967 -0.0590708 -0.202832
-0.12092 0.000998535 -0.396421
-0.326731 0.000831038 -0.330535
-0.402515 0.000311997 -0.1241
-0.322932 -0.000327968 0.130454
-0.118758 -0.000841408 0.334681
0.131232 -0.00103022 0.409785
0.330591 -0.000821579 0.326791
0.402408 -0.000295962 0.117722
0.318904 0.000343392 -0.136572
0.108791 0.000824703 -0.32741
-0.120278 0.0731336 -0.394315
-0.324996 0.06098 -0.328779
-0.400376 0.0228949 -0.12344
-0.321217 -0.0240671 0.129761
-0.118127 -0.0617445 0.332903
0.130535 -0.0756002 0.407608
0.328835 -0.0602893 0.325056
0.40027 -0.0217184 0.117097
0.31721 0.025196 -0.135847
0.108213 0.060402 -0.325671
-0.0732313 0.117053 -0.24008
-0.197874 0.0976008 -0.200179
-0.24377 0.0366443 -0.0751568
-0.195573 -0.0385205 0.0790052
-0.0719219 -0.0988246 0.202689
0.0794769 -0.121002 0.248173
0.200213 -0.096495 0.197911
0.243705 -0.034761 0.0712946
0.193134 0.0403272 -0.0827104
0.0658859 0.0966758 -0.198285
0.00206825 0.115813 0.00678049
0.00558848 0.0965665 0.00565357
0.00688469 0.0362559 0.00212263
0.00552347 -0.0381122 -0.00223131
0.00203126 -0.0977774 -0.00572445
-0.00224463 -0.119719 -0.00700906
-0.00565453 -0.0954725 -0.00558952
-0.00688287 -0.0343926 -0.00201355
-0.00545463 0.0398998 0.00233597
-0.00186079 0.0956514 0.0056001
0.0765699 0.069891 0.251025
0.206895 0.0582762 0.209305
0.254883 0.0218799 0.0785833
0.204488 -0.0230001 -0.0826067
0.0752005 -0.0590069 -0.211929
-0.0830999 -0.0722485 -0.259487
-0.20934 -0.0576161 -0.206933
-0.254815 -0.0207553 -0.074545
-0.201939 0.0240787 0.0864815
-0.0688895 0.0577239 0.207325
0.12153 -0.00299537 0.398422
0.328377 -0.00249681 0.332202
0.404544 -0.000937415 0.124725
0.324559 0.00098541 -0.131112
0.119357 0.00252809 -0.336368
-0.131894 0.0030954 -0.411851
-0.332259 0.00246848 -0.328438
-0.404436 0.000889238 -0.118316
-0.320512 -0.00103165 0.137261
-0.10934 -0.00247391 0.329062
0.119603 -0.074726 0.392105
0.32306 -0.0622512 0.326826
0.39799 -0.0233716 0.122705
0.319302 0.0245681 -0.128988
0.117423 0.0630298 -0.33092
-0.129757 0.0771742 -0.405182
-0.326875 0.0615441 -0.323121
-0.397884 0.0221704 -0.116399
-0.31532 -0.0257219 0.135041
-0.107607 -0.0617172 0.323845
0.0715327 -0.117627 0.234511
0.187 -0.0949362 0.189273
0.230322 -0.0356185 0.0710119
0.184783 0.0374412 -0.0746458
0.0679542 0.0960557 -0.191505
-0.0750921 0.117611 -0.23448
-0.189167 0.0937915 -0.186991
-0.23026 0.0337863 -0.0673591
-0.182517 -0.0392539 0.0782599
-0.0643576 -0.0971497 0.193686
0 0.135293 0
0 0.114875 0
0 0.0430992 0
0 -0.0453047 0
0 -0.11623 0
0 -0.142312 0
0 -0.11349 0
0 -0.0408822 0
0 0.0474982 0
0 0.111741 0
-0.0737228 0.0830962 -0.045942
-0.199133 0.0692688 -0.0383885
-0.245319 0.0260061 -0.014414
-0.196816 -0.0273376 0.0151521
-0.0723793 -0.0701349 0.0388727
0.0799823 -0.0858736 0.047596
0.201486 -0.0684816 0.0379564
0.245254 -0.0246695 0.0136733
0.194362 0.0286216 -0.0158604
0.0663281 0.0686302 -0.0379442
-0.119003 -0.00116013 -0.0741593
-0.321439 -0.000964234 -0.0619665
-0.395993 -0.000361987 -0.023267
-0.3177 0.000380519 0.0244583
-0.116834 0.000976224 0.0627481
0.129106 0.0011953 0.0768291
0.325237 0.000953216 0.0612689
0.395888 0.000343382 0.0220713
0.313738 -0.000398446 -0.0256017
0.107066 -0.000958165 -0.0612492
-0.118371 -0.0849689 -0.0737654
-0.319731 -0.0707458 -0.0616373
-0.393889 -0.0265603 -0.0231433
-0.316011 0.0279201 0.0243284
-0.116213 0.0716293 0.0624147
0.128421 0.0877036 0.076421
0.32351 0.0699409 0.0609435
0.393784 0.0251952 0.0219541
0.312072 -0.0292324 -0.0254657
0.106498 -0.0701769 -0.0609238
-0.0720702 -0.135996 -0.0449122
-0.194669 -0.113231 -0.0375279
-0.239821 -0.0425107 -0.0140909
-0.192404 0.0446872 0.0148124
-0.0707567 0.114646 0.0380013
0.0781891 0.140373 0.0465292
0.196969 0.111943 0.0371056
0.239757 0.040326 0.0133668
0.190005 -0.0467877 -0.0155049
0.0648412 -0.112321 -0.0370936
0.00203546 -0.134555 0.00126844
0.00549798 -0.112032 0.00105989
0.00677315 -0.0420603 0.000397963
0.00543404 0.0442137 -0.000418342
0.00199836 0.113431 -0.00107326
-0.00220827 0.138885 -0.00131411
-0.00556291 0.110757 -0.00104796
-0.00677135 0.0398986 -0.000377514
-0.00536626 -0.0462919 0.000437899
-0.00183129 -0.111131 0.00104762
0.0753559 -0.0812015 0.0469597
0.203543 -0.0676091 0.0392389
0.250753 -0.0253826 0.0147332
0.201176 0.0266822 -0.0154877
0.0739827 0.0684534 -0.0397338
-0.0817535 0.0838149 -0.0486503
-0.205948 0.06684 -0.0387972
-0.250687 0.0240781 -0.0139762
-0.198668 -0.0279363 0.0162117
-0.0677973 -0.0670654 0.0387847
0.119603 0.00348011 0.0745336
0.32306 0.00289674 0.0622789
0.39799 0.00108752 0.0233843
0.319302 -0.0011432 -0.0245816
0.117423 -0.00293289 -0.0630644
-0.129757 -0.00359104 -0.0772165
-0.326875 -0.00286375 -0.0615778
-0.397884 -0.00103162 -0.0221826
-0.31532 0.00119696 0.0257308
-0.107607 0.00287427 0.0615583
0.117707 0.0868189 0.0733518
0.317829 0.072225 0.0612689
0.391543 0.0271148 0.0230047
0.31413 -0.0285031 -0.0241826
0.115521 -0.073125 -0.0620409
-0.127656 -0.0895348 -0.0759633
-0.321583 -0.0714013 -0.0605785
-0.391439 -0.0257212 -0.0218226
-0.310214 0.0298445 0.0253138
-0.1059 0.0717049 0.0605823
0.0703985 0.136662 0.0438704
0.184035 0.1103 0.0354076
0.22667 0.0413826 0.0132843
0.181853 -0.0435003 -0.0139641
0.0668767 -0.1116 -0.0358252
-0.0739015 -0.136644 -0.0438646
-0.186168 -0.10897 -0.0349807
-0.22661 -0.0392539 -0.012601
-0.179623 0.0456064 0.0146402
-0.0633372 0.112871 0.0362332
0 0.334838 0
0 0.270246 0
0 0.101392 0
0 -0.10658 0
0 -0.273433 0
0 -0.334793 0
0 -0.266988 0
0 -0.0961764 0
0 0.111741 0
0 0.276547 0
-0.0440923 0.205655 0.171426
-0.115266 0.165983 0.138357
-0.141969 0.0622741 0.0519092
-0.113899 -0.0654609 -0.0545656
-0.0418865 -0.167941 -0.139989
0.0462863 -0.205628 -0.171403
0.116602 -0.163982 -0.136689
0.141931 -0.0590708 -0.0492391
0.112503 0.0686303 0.0572075
0.0396696 0.169853 0.141583
-0.0711735 -0.00287121 0.276714
-0.186061 -0.00231734 0.223335
-0.229165 -0.000869426 0.0837915
-0.183855 0.000913917 -0.0880794
-0.0676129 0.00234466 -0.225969
0.074715 0.00287082 -0.276677
0.188217 0.0022894 -0.220642
0.229104 0.000824703 -0.0794814
0.181601 -0.000958165 0.0923439
0.0640344 -0.00237137 0.228542
-0.0707954 -0.21029 0.275244
-0.185073 -0.169724 0.222149
-0.227948 -0.0636776 0.0833464
-0.182879 0.0669361 -0.0876115
-0.0672537 0.171725 -0.224768
0.0743181 0.210262 -0.275208
0.187218 0.167677 -0.21947
0.227887 0.0604021 -0.0790591
0.180636 -0.0701769 0.0918533
0.0636942 -0.173681 0.227328
-0.0431039 -0.336577 0.167583
-0.112682 -0.27165 0.135256
-0.138786 -0.101918 0.0507456
-0.111346 0.107134 -0.0533424
-0.0409476 0.274853 -0.136851
0.0452488 0.336532 -0.167561
0.113988 0.268374 -0.133625
0.138749 0.0966759 -0.0481353
0.109981 -0.112321 0.0559251
0.0387804 -0.277983 0.138409
0.00121737 -0.33301 -0.00473299
0.00318244 -0.268771 -0.00381998
0.0039197 -0.100838 -0.00143319
0.00314471 0.105999 0.00150653
0.00115647 0.271941 0.00386503
-0.00127795 0.332966 0.00473236
-0.00321932 0.26553 0.00377392
-0.00391865 0.0956514 0.00135947
-0.00310615 -0.111131 -0.00157947
-0.00109526 -0.275038 -0.00390904
0.045069 -0.200966 -0.175223
0.117819 -0.162199 -0.141422
0.145113 -0.0608542 -0.0530591
0.116422 0.0639683 0.0557743
0.0428143 0.164111 0.143089
-0.0473116 0.200939 0.1752
-0.119184 0.160243 0.139717
-0.145075 0.0577239 0.0503298
-0.114995 -0.0670654 -0.0584746
-0.0405483 -0.16598 -0.144719
0.0715327 0.00861294 -0.278111
0.187 0.00695146 -0.224462
0.230321 0.00260807 -0.0842144
0.184783 -0.00274153 0.0885239
0.0679541 -0.00703344 0.227109
-0.0750921 -0.00861179 0.278074
-0.189167 -0.00686765 0.221756
-0.23026 -0.00247392 0.0798825
-0.182517 0.00287427 -0.0928099
-0.0643576 0.00711354 -0.229695
0.0703985 0.214869 -0.273701
0.184035 0.173419 -0.220903
0.22667 0.065064 -0.0828791
0.181853 -0.0683936 0.0871203
0.0668767 -0.175464 0.223508
-0.0739015 -0.21484 0.273665
-0.186168 -0.171328 0.21824
-0.226609 -0.0617172 0.0786159
-0.179623 0.0717049 -0.0913383
-0.0633372 0.177463 -0.226054
0.0421041 0.338226 -0.163696
0.110068 0.272981 -0.132118
0.135567 0.102418 -0.0495685
0.108763 -0.107659 0.0521051
0.0399978 -0.2762 0.133676
-0.0441992 -0.338181 0.163674
-0.111344 -0.26969 0.130525
-0.135531 -0.0971497 0.0470188
-0.10743 0.112871 -0.0546278
-0.0378808 0.279346 -0.135199
