# vtk DataFile Version 3.0
Velocity field
ASCII
DATASET STRUCTURED_POINTS
DIMENSIONS 8 8 8
SPACING 0.8 0.8 0.8
ORIGIN 0 0 0
POINT_DATA 512
VECTORS velocity float
0 0.164897 0
0 0.114885 0
0 -0.00481492 0
0 -0.121594 0
0 -0.164616 0
0 -0.107784 0
0 0.0144284 0
0 0.127889 0
0 0.0648727 0.168302
0 0.0451972 0.12432
0 -0.00189425 -0.00521037
0 -0.0478367 -0.131581
0 -0.0647621 -0.178136
0 -0.0424036 -0.116636
0 0.00567631 0.0156134
0 0.050313 0.130529
0 -0.0745025 0.234514
0 -0.0519064 0.17323
0 0.00217544 -0.0072602
0 0.0549377 -0.183346
0 0.0743755 -0.248217
0 0.0486981 -0.162522
0 -0.00651891 0.0217559
0 -0.0577816 0.181881
0 -0.168686 0.158473
0 -0.117524 0.11706
0 0.00492554 -0.00490609
0 0.124388 -0.123896
0 0.168398 -0.167733
0 0.11026 -0.109825
0 -0.0147598 0.0147016
0 -0.130827 0.122907
0 -0.160546 -0.0136954
0 -0.111854 -0.0101165
0 0.00468788 0.000423989
0 0.118386 0.0107072
0 0.160272 0.0144956
0 0.10494 0.00949116
0 -0.0140477 -0.00127052
0 -0.124514 -0.0106217
0 -0.0550216 -0.177557
0 -0.0383339 -0.131157
0 0.00160661 0.00549688
0 0.0405726 0.138816
0 0.0549278 0.187931
0 0.0359645 0.12305
0 -0.00481435 -0.0164719
0 -0.0426729 -0.137707
0 0.0838783 -0.233715
0 0.0584386 -0.172639
0 -0.00244921 0.00723544
0 -0.0618514 0.182721
0 -0.0837353 0.24737
0 -0.0548265 0.161968
0 0.00733928 -0.0216817
0 0.0650532 -0.181261
0 0.171899 -0.148104
0 0.119763 -0.103185
0 -0.00501937 0.00432458
0 -0.126757 0.109211
0 -0.171606 0.147852
0 -0.112361 0.0968074
0 0.015041 -0.012959
0 0.133319 -0.114865
0 0.114885 0
0 0.0869009 0
0 -0.00364209 0
0 -0.0919758 0
0 -0.124518 0
0 -0.0815296 0
0 0.0109139 0
0 0.0891007 0
0.0358765 0.0451972 0.166237
0.0870809 0.0319714 0.117489
0.0849587 -0.00134009 -0.00492457
0.031299 -0.0338419 -0.124362
-0.0413461 -0.0458157 -0.168363
-0.0889111 -0.0299982 -0.110238
-0.0825422 0.0040132 0.0147481
-0.0257421 0.0350534 0.128927
0.0499908 -0.0519064 0.231636
0.12134 -0.0366688 0.163711
0.118382 0.00153697 -0.00686195
0.0436124 0.0388136 -0.173287
-0.0576125 0.0525465 -0.2346
-0.12389 0.0344053 -0.153607
-0.115016 -0.00460303 0.0205503
-0.0358694 -0.0402568 0.179649
0.0337814 -0.117524 0.156529
0.0819954 -0.0830239 0.110628
0.0799973 0.00347997 -0.00463698
0.029471 0.0878807 -0.1171
-0.0389316 0.118974 -0.158531
-0.0837189 0.0778996 -0.1038
-0.077722 -0.010422 0.0138869
-0.0242388 -0.0911478 0.121398
-0.00291942 -0.111854 -0.0135274
-0.00708617 -0.0790179 -0.00956056
-0.00691346 0.00331204 0.000400732
-0.00254692 0.0836402 0.0101199
0.0033645 0.113234 0.0137004
0.00723512 0.0741411 0.00897047
0.0067168 -0.00991915 -0.00120012
0.00209474 -0.0867498 -0.0104914
-0.0378493 -0.0383339 -0.175378
-0.0918699 -0.0270808 -0.123949
-0.0896303 0.00113509 0.00519536
-0.0330202 0.0286649 0.131201
0.0436196 0.0388069 0.177621
0.0938008 0.0254092 0.1163
0.087081 -0.00339946 -0.0155592
0.0271577 -0.0297305 -0.136017
-0.0498203 0.0584386 -0.230846
-0.120921 0.0412779 -0.163146
-0.117973 -0.00173017 0.00683826
-0.0434618 -0.0436926 0.172689
0.0574136 -0.0591516 0.23379
0.123462 -0.0387301 0.153076
0.114619 0.00518167 -0.0204794
0.0357471 0.045323 -0.179037
-0.031571 0.119763 -0.146287
-0.0755625 0.0834397 -0.101919
-0.0737188 -0.00349703 0.0042715
-0.0271582 -0.0883125 0.107871
0.0358761 -0.119559 0.146037
0.0771485 -0.0782823 0.0956193
0.0716236 0.0104792 -0.0128
0.0226528 0.0928841 -0.113455
0 -0.00481492 0
0 -0.00364209 0
0 0.000152643 0
0 0.00385478 0
0 0.00521866 0
0 0.00341697 0
0 -0.000457409 0
0 -0.00373428 0
0.0499908 -0.00189425 0.0633343
0.12134 -0.00134009 0.0447464
0.118382 5.61706e-05 -0.00187554
0.0436124 0.0014185 -0.0473642
-0.0576125 0.00192038 -0.0641222
-0.12389 0.00125739 -0.0419845
-0.115016 -0.000168214 0.00561699
-0.0358694 -0.00146912 0.0491199
0.0696579 0.00217544 0.0882508
0.169077 0.00153697 0.0623501
0.164955 -6.44223e-05 -0.00261341
0.0607702 -0.00162688 -0.0659977
-0.080278 -0.00220249 -0.0893484
-0.172629 -0.00144211 -0.0585022
-0.160265 0.000192936 0.00782679
-0.049981 0.0016872 0.0684443
0.0470714 0.00492554 0.0596356
0.114254 0.00347997 0.0421331
0.11147 -0.000145863 -0.00176603
0.0410654 -0.00368353 -0.0445979
-0.0542478 -0.00498683 -0.0603772
-0.116656 -0.00326516 -0.0395328
-0.108299 0.000436839 0.00528897
-0.0337747 0.00382008 0.0462513
-0.00406796 0.00468788 -0.00515377
-0.00987395 0.00331204 -0.0036412
-0.00963326 -0.000138825 0.000152621
-0.00354894 -0.00350581 0.00385419
0.00468816 -0.00474622 0.00521787
0.0100815 -0.00310762 0.00341646
0.00935933 0.000415759 -0.000457079
0.00291884 0.00363575 -0.00399709
-0.0527398 0.00160661 -0.0668169
-0.128013 0.00113509 -0.047207
-0.124892 -4.75776e-05 0.00197868
-0.0460108 -0.00120149 0.0499682
0.0607802 -0.00162659 0.0676483
0.130703 -0.00106503 0.0442931
0.12134 0.000142487 -0.00592589
0.0378418 0.00124603 -0.0518209
-0.0694203 -0.00244921 -0.0879499
-0.168493 -0.00173017 -0.062135
-0.164386 7.25202e-05 0.00260439
-0.0605603 0.00183139 0.06577
0.0800006 0.00247935 0.08904
0.172034 0.00162338 0.0583001
0.159711 -0.000217189 -0.0077998
0.0498105 -0.00189952 -0.0682109
-0.0439915 -0.00501937 -0.0557336
-0.10529 -0.00349703 -0.03883
-0.102721 0.000146563 0.0016274
-0.0378426 0.00370125 0.0410976
0.0499903 0.00501081 0.0556385
0.1075 0.00328088 0.0364299
0.0998013 -0.00043919 -0.00487664
0.0315648 -0.00389285 -0.0432251
0 -0.121594 0
0 -0.0919758 0
0 0.00385478 0
0 0.0973471 0
0 0.13179 0
0 0.0862909 0
0 -0.0115512 0
0 -0.0943042 0
0.0337814 -0.0478367 -0.0779858
0.0819954 -0.0338419 -0.0550977
0.0799973 0.0014185 0.00230943
0.029471 0.0358218 0.058321
-0.0389316 0.0484963 0.0789556
-0.0837189 0.0317534 0.0516968
-0.077722 -0.00424797 -0.0069164
-0.0242388 -0.0371005 -0.0604831
0.0470714 0.0549377 -0.108666
0.114254 0.0388136 -0.0767739
0.11147 -0.00162688 0.00321797
0.0410654 -0.0410841 0.0812652
-0.0542478 -0.0556207 0.110018
-0.116656 -0.0364181 0.0720351
-0.108299 0.00487227 -0.00963737
-0.0337747 0.0426078 -0.084278
0.0318086 0.124388 -0.0734315
0.0772072 0.0878807 -0.0518799
0.0753257 -0.00368353 0.00217455
0.0277502 -0.0930222 0.054915
-0.0366581 -0.125934 0.0743448
-0.07883 -0.0824566 0.048678
-0.0731832 0.0110316 -0.00651246
-0.0228233 0.0964708 -0.056951
-0.00274893 0.118386 0.00634602
-0.00667231 0.0836402 0.00448352
-0.00650968 -0.00350581 -0.000187927
-0.0023982 -0.0885331 -0.00474582
0.00316801 -0.119857 -0.00642492
0.00681256 -0.0784782 -0.0042068
0.00632454 0.0104994 0.000562814
0.00197241 0.0918159 0.00492176
-0.035639 0.0405726 0.0822741
-0.0865041 0.0286649 0.0581274
-0.084396 -0.0012015 -0.00243641
-0.0310917 -0.0303417 -0.0615275
0.0410722 -0.041077 -0.083297
0.0883224 -0.0268956 -0.0545397
0.0819955 0.0035983 0.00729673
0.0255717 0.0314667 0.063809
-0.0469109 -0.0618514 0.108296
-0.11386 -0.0436926 0.0765089
-0.111085 0.00183139 -0.00320686
-0.0409237 0.0462486 -0.0809845
0.0540606 0.062612 -0.109638
0.116253 0.0409957 -0.0717865
0.107925 -0.00548476 0.00960415
0.0336595 -0.0479698 0.0839906
-0.0297273 -0.126757 0.0686268
-0.0711497 -0.0883125 0.0478127
-0.0694137 0.00370125 -0.00200387
-0.0255722 0.0934699 -0.050605
0.033781 0.126541 -0.0685098
0.0726431 0.082854 -0.0448575
0.0674409 -0.0110911 0.00600479
0.0213299 -0.0983085 0.0532246
0 -0.164616 0
0 -0.124518 0
0 0.00521866 0
0 0.13179 0
0 0.178419 0
0 0.116822 0
0 -0.0156382 0
0 -0.12767 0
-0.00291942 -0.0647621 -0.172001
-0.00708617 -0.0458157 -0.12152
-0.00691346 0.00192038 0.00509351
-0.00254692 0.0484963 0.128629
0.0033645 0.065655 0.174139
0.00723512 0.042988 0.11402
0.0067168 -0.00575097 -0.0152543
0.00209474 -0.0502272 -0.133398
-0.00406796 0.0743755 -0.239668
-0.00987395 0.0525465 -0.169327
-0.00963326 -0.00220249 0.00709739
-0.00354894 -0.0556207 0.179233
0.00468816 -0.0753001 0.242648
0.0100815 -0.0493036 0.158877
0.00935933 0.00659615 -0.0212556
0.00291884 0.0576831 -0.185878
-0.00274893 0.168398 -0.161956
-0.00667231 0.118974 -0.114423
-0.00650967 -0.00498683 0.00479609
-0.0023982 -0.125934 0.121117
0.00316801 -0.170492 0.163969
0.00681256 -0.111632 0.107361
0.00632454 0.0149348 -0.0143635
0.00197241 0.130604 -0.125608
0.000237565 0.160272 0.0139964
0.000576631 0.113234 0.00988857
0.000562574 -0.00474622 -0.000414479
0.000207254 -0.119857 -0.010467
-0.000273783 -0.162266 -0.0141705
-0.00058875 -0.106245 -0.00927827
-0.000546573 0.0142142 0.00124131
-0.000170458 0.124302 0.0108551
0.00307995 0.0549278 0.181459
0.00747578 0.0388069 0.128202
0.00729364 -0.00162659 -0.00537358
0.00268697 -0.041077 -0.135701
-0.00354953 -0.055611 -0.183715
-0.00763291 -0.0364118 -0.120289
-0.00708618 0.00487142 0.0160932
-0.00220993 0.0426001 0.140733
0.00405408 -0.0837353 0.238851
0.00983987 -0.0591516 0.168743
0.00960004 0.00247935 -0.00707291
0.00353669 0.062612 -0.178614
-0.00467199 0.084765 -0.24181
-0.0100467 0.0555008 -0.158328
-0.00932702 -0.00742534 0.0211823
-0.00290889 -0.0649422 0.185244
0.00256906 -0.171606 0.151359
0.00614883 -0.119559 0.105453
0.0059988 0.00501081 -0.00441962
0.00220998 0.126541 -0.111611
-0.00291939 0.171313 -0.151101
-0.00627789 0.112169 -0.0989349
-0.00582831 -0.0150153 0.0132438
-0.00184335 -0.133091 0.117389
0 -0.107784 0
0 -0.0815296 0
0 0.00341697 0
0 0.0862909 0
0 0.116822 0
0 0.0764903 0
0 -0.0102393 0
0 -0.0835935 0
-0.0378493 -0.0424036 -0.161682
-0.0918699 -0.0299982 -0.11423
-0.0896303 0.00125739 0.00478798
-0.0330202 0.0317534 0.120912
0.0436196 0.042988 0.163692
0.0938008 0.028147 0.107179
0.087081 -0.0037655 -0.0143393
0.0271577 -0.0328868 -0.125395
-0.0527398 0.0486981 -0.22529
-0.128013 0.0344053 -0.159169
-0.124892 -0.00144211 0.00667159
-0.0460108 -0.0364181 0.16848
0.0607802 -0.0493036 0.228092
0.130703 -0.032282 0.149346
0.12134 0.00431889 -0.0199805
0.0378418 0.0377686 -0.174727
-0.035639 0.11026 -0.15224
-0.0865041 0.0778996 -0.107559
-0.084396 -0.00326516 0.00450834
-0.0310917 -0.0824566 0.113851
0.0410722 -0.111632 0.154133
0.0883224 -0.0730918 0.10092
0.0819955 0.00977873 -0.0135018
0.0255717 0.085514 -0.118072
0.00307995 0.10494 0.0131568
0.00747578 0.0741411 0.00929537
0.00729364 -0.00310762 -0.000389615
0.00268697 -0.0784782 -0.00983913
-0.00354953 -0.106245 -0.0133203
-0.00763291 -0.0695647 -0.00872161
-0.00708618 0.0093069 0.00116684
-0.00220993 0.0813878 0.0102039
0.0399306 0.0359645 0.170573
0.0969217 0.0254092 0.120511
0.0945596 -0.00106503 -0.00505125
0.0348358 -0.0268956 -0.127561
-0.0460184 -0.0364118 -0.172693
-0.0989589 -0.023841 -0.113074
-0.09187 0.00318961 0.0151277
-0.028651 0.0278928 0.132291
0.0525599 -0.0548265 0.224522
0.127571 -0.0387301 0.15862
0.124461 0.00162338 -0.00664857
0.045852 0.0409957 -0.167899
-0.0605704 0.0555008 -0.227305
-0.130252 0.0363397 -0.14883
-0.120921 -0.00486182 0.0199116
-0.0377128 -0.0425216 0.174132
0.0333071 -0.112361 0.142279
0.0797176 -0.0782823 0.0991267
0.0777725 0.00328088 -0.00415448
0.0286516 0.082854 -0.104916
-0.0378489 0.112169 -0.142036
-0.0813908 0.0734437 -0.0929997
-0.0755621 -0.00983145 0.0124493
-0.0238985 -0.087143 0.110347
0 0.0144284 0
0 0.0109139 0
0 -0.000457408 0
0 -0.0115512 0
0 -0.0156382 0
0 -0.0102393 0
0 0.00137067 0
0 0.0111901 0
-0.0498203 0.00567631 -0.0532895
-0.120921 0.00401315 -0.0376535
-0.117973 -0.000168212 0.00157825
-0.0434618 -0.00424792 0.0398563
0.0574136 -0.0057509 0.0539578
0.123462 -0.00376546 0.0353295
0.114619 0.000503765 -0.00472661
0.0357471 0.00440235 -0.0413296
-0.0694203 -0.00651891 -0.0742544
-0.168493 -0.00460298 -0.0524669
-0.164386 0.000192934 0.00219916
-0.0605603 0.00487222 0.0555363
0.0800006 0.00659607 0.0751859
0.172034 0.00431884 0.0492288
0.159711 -0.000577828 -0.00658611
0.0498105 -0.00505584 -0.0575892
-0.0469109 -0.0147598 -0.0501775
-0.11386 -0.0104219 -0.0354546
-0.111085 0.000436834 0.00148609
-0.0409237 0.0110315 0.0375287
0.0540606 0.0149346 0.0508068
0.116253 0.00977862 0.0332664
0.107925 -0.0013083 -0.00445057
0.0336595 -0.0114472 -0.0389159
0.00405408 -0.0140477 0.00433639
0.00983987 -0.00991904 0.00306402
0.00960005 0.000415755 -0.000128429
0.00353669 0.0104992 -0.00324327
-0.00467199 0.014214 -0.00439078
-0.0100467 0.00930679 -0.00287491
-0.00932702 -0.00124517 0.000384624
-0.00290889 -0.0108949 0.00336315
0.0525599 -0.00481435 0.0562199
0.127571 -0.00339942 0.039724
0.124461 0.000142486 -0.00166504
0.045852 0.00359826 -0.0420479
-0.0605704 0.00487137 -0.0569251
-0.130252 0.00318957 -0.0372723
-0.120921 -0.00042674 0.00498652
-0.0377128 -0.00373384 0.0436022
0.0691836 0.00733928 0.0740011
0.167911 0.00518161 0.0522858
0.163819 -0.000217186 -0.00219157
0.0603513 -0.0054847 -0.0553446
-0.0797243 -0.00742525 -0.0749264
-0.17144 -0.00486176 -0.0490587
-0.159159 0.00065047 0.0065634
-0.0496406 0.0056921 0.0573927
0.0438414 0.015041 0.0468943
0.104931 0.0104792 0.0326716
0.10237 -0.00043919 -0.00136929
0.0377136 -0.0110911 -0.0345796
-0.0498198 -0.0150153 -0.0468143
-0.107133 -0.00983145 -0.0306522
-0.099461 0.00131607 0.00410321
-0.0314571 0.0116653 0.0363696
0 0.127889 0
0 0.0891008 0
0 -0.00373429 0
0 -0.0943042 0
0 -0.12767 0
0 -0.0835935 0
0 0.0111901 0
0 0.0991859 0
-0.031571 0.050313 0.0874279
-0.0755625 0.0350534 0.0609116
-0.0737188 -0.00146912 -0.00255285
-0.0271582 -0.0371005 -0.0644688
0.0358761 -0.0502272 -0.0872788
0.0771485 -0.0328868 -0.0571467
0.0716236 0.00440235 0.00764987
0.0226528 0.0390211 0.0678061
-0.0439915 -0.0577816 0.121823
-0.10529 -0.0402568 0.084875
-0.102721 0.0016872 -0.00355718
-0.0378426 0.0426078 -0.0898317
0.0499903 0.0576831 -0.121615
0.1075 0.0377686 -0.079629
0.0998013 -0.00505584 0.0106594
0.0315648 -0.0448134 0.0944819
-0.0297273 -0.130827 0.0823222
-0.0711497 -0.0911478 0.0573544
-0.0694136 0.00382008 -0.00240377
-0.0255722 0.0964708 -0.0607038
0.033781 0.130604 -0.0821818
0.0726431 0.085514 -0.0538094
0.0674408 -0.0114472 0.00720312
0.0213299 -0.101465 0.0638463
0.00256906 -0.124514 -0.00711436
0.00614883 -0.0867498 -0.00495662
0.0059988 0.00363575 0.000207736
0.00220997 0.0918159 0.00524609
-0.00291939 0.124302 0.00710223
-0.00627789 0.0813878 0.00465026
-0.0058283 -0.0108949 -0.000622501
-0.00184335 -0.0965689 -0.00551766
0.0333071 -0.0426729 -0.0922354
0.0797175 -0.0297305 -0.064261
0.0777724 0.00124603 0.00269323
0.0286516 0.0314667 0.0680138
-0.0378489 0.0426001 0.0920781
-0.0813908 0.0278929 0.0602891
-0.0755621 -0.00373384 -0.00807052
-0.0238985 -0.0330956 -0.0715346
0.0438414 0.0650532 -0.121408
0.104931 0.045323 -0.0845856
0.10237 -0.00189952 0.00354505
0.0377136 -0.0479698 0.0895253
-0.0498198 -0.0649422 0.121201
-0.107133 -0.0425216 0.0793574
-0.0994609 0.0056921 -0.0106231
-0.0314571 0.050453 -0.0941597
0.0277822 0.133319 -0.0769357
0.0664943 0.0928841 -0.0536016
0.0648718 -0.00389285 0.00224649
0.023899 -0.0983085 0.0567319
-0.0315707 -0.133091 0.0768045
-0.06789 -0.087143 0.0502885
-0.0630281 0.0116653 -0.00673181
-0.0199343 0.103398 -0.0596687
