# vtk DataFile Version 3.0
Velocity field
ASCII
DATASET STRUCTURED_POINTS
DIMENSIONS 8 8 8
SPACING 0.8 0.8 0.8
ORIGIN 0 0 0
POINT_DATA 512
VECTORS velocity float
0 0.389188 0
0 0.27115 0
0 -0.0113641 0
0 -0.286985 0
0 -0.388525 0
0 -0.25439 0
0 0.0340536 0
0 0.301841 0
0 0.153112 0.397225
0 0.106674 0.293419
0 -0.0044708 -0.0122974
0 -0.112904 -0.310555
0 -0.152851 -0.420434
0 -0.100081 -0.275283
0 0.0133972 0.0368505
0 0.118748 0.308074
0 -0.17584 0.553498
0 -0.122509 0.408855
0 0.00513445 -0.0171354
0 0.129663 -0.432731
0 0.17554 -0.585839
0 0.114937 -0.383584
0 -0.0153859 0.0513479
0 -0.136376 0.429274
0 -0.39813 0.374027
0 -0.27738 0.276284
0 0.0116252 -0.0115793
0 0.293578 -0.292419
0 0.397451 -0.395881
0 0.260235 -0.259207
0 -0.034836 0.0346984
0 -0.308776 0.290083
0 -0.378919 -0.0323238
0 -0.263996 -0.0238767
0 0.0110643 0.00100069
0 0.279413 0.0252711
0 0.378273 0.0342124
0 0.247678 0.0224009
0 -0.0331551 -0.00299867
0 -0.293877 -0.0250692
0 -0.129861 -0.419067
0 -0.0904753 -0.309554
0 0.00379189 0.0129737
0 0.095759 0.327632
0 0.12964 0.443553
0 0.0848831 0.290421
0 -0.0113628 -0.0388768
0 -0.100716 -0.325014
0 0.197969 -0.551611
0 0.137926 -0.40746
0 -0.0057806 0.017077
0 -0.145981 0.431256
0 -0.197631 0.58384
0 -0.129401 0.382276
0 0.0173221 -0.0511728
0 0.153538 -0.42781
0 0.405714 -0.349554
0 0.282663 -0.243537
0 -0.0118467 0.0102068
0 -0.299171 0.257759
0 -0.405022 0.348958
0 -0.265192 0.228484
0 0.0354996 -0.0305857
0 0.314658 -0.271102
0 0.27115 0
0 0.205103 0
0 -0.00859602 0
0 -0.21708 0
0 -0.293887 0
0 -0.192425 0
0 0.0257588 0
0 0.210295 0
0.0846754 0.106674 0.39235
0.209569 0.0769758 0.282727
0.204486 -0.00322827 -0.0118571
0.0753331 -0.0815164 -0.299401
-0.0995154 -0.110359 -0.405336
-0.214001 -0.0722584 -0.265398
-0.198651 0.00963997 0.0354092
-0.0607563 0.0827327 0.304293
0.117988 -0.122509 0.546705
0.292013 -0.0881792 0.393959
0.284931 0.00369793 -0.0165218
0.104971 0.0933772 -0.417192
-0.138666 0.126415 -0.564797
-0.298189 0.0827713 -0.36981
-0.276802 -0.0110448 0.0493399
-0.0846586 -0.0950137 0.424006
0.0797304 -0.27738 0.369437
0.197329 -0.199654 0.266218
0.192545 0.00837302 -0.0111646
0.0709334 0.211426 -0.281916
-0.093704 0.286229 -0.381665
-0.201502 0.187414 -0.249897
-0.18705 -0.0250077 0.0333415
-0.0572082 -0.215126 0.286523
-0.00689038 -0.263996 -0.0319271
-0.0170533 -0.190023 -0.0230068
-0.0166398 0.00796893 0.000964851
-0.00613017 0.201223 0.0243637
0.00809795 0.27242 0.0329837
0.0174139 0.178371 0.0215964
0.016165 -0.023801 -0.0028814
0.00494399 -0.204746 -0.0247616
-0.0893316 -0.0904753 -0.413925
-0.22109 -0.0651243 -0.298274
-0.215731 0.00273111 0.0125091
-0.0794744 0.0689631 0.315861
0.104988 0.0933637 0.427625
0.225763 0.0611304 0.27999
0.209575 -0.00815703 -0.0373563
0.0640972 -0.0701696 -0.321026
-0.117585 0.137926 -0.544841
-0.29095 0.0992059 -0.392526
-0.283893 -0.00416032 0.0164615
-0.104588 -0.105052 0.415671
0.13816 -0.14222 0.562737
0.2971 -0.0931217 0.368461
0.275793 0.012427 -0.0491617
0.0843699 0.106971 -0.42256
-0.0745136 0.282663 -0.345264
-0.178342 0.196933 -0.240548
-0.17399 -0.00825364 0.0100816
-0.0640985 -0.208434 0.254596
0.0846744 -0.282181 0.344675
0.182085 -0.184761 0.22568
0.169045 0.0247328 -0.0302103
0.053465 0.219224 -0.267775
0 -0.0113641 0
0 -0.00859602 0
0 0.000360266 0
0 0.00909802 0
0 0.012317 0
0 0.0080647 0
0 -0.00107957 0
0 -0.00881362 0
0.117988 -0.0044708 0.149481
0.292013 -0.00322827 0.107654
0.284931 0.000135394 -0.00451472
0.104971 0.00341879 -0.114
-0.138666 0.00462834 -0.154335
-0.298189 0.00303049 -0.101054
-0.276802 -0.000404254 0.0134832
-0.0846586 -0.0034674 0.115932
0.164406 0.00513445 0.208289
0.406898 0.00369793 0.150005
0.397029 -0.000155082 -0.0062909
0.146266 -0.00391597 -0.158849
-0.19322 -0.00530153 -0.215057
-0.415502 -0.00347127 -0.14081
-0.385703 0.000463144 0.0187875
-0.117964 0.0039821 0.161542
0.111097 0.0116252 0.140751
0.27496 0.00837302 0.101366
0.268294 -0.000351144 -0.0042511
0.0988399 -0.0088667 -0.107345
-0.130568 -0.012004 -0.145323
-0.280775 -0.00785962 -0.095153
-0.260637 0.00104867 0.0126957
-0.0797147 0.00901611 0.109162
-0.00960115 0.0110643 -0.0121639
-0.0237624 0.00796893 -0.00876017
-0.0231862 -0.000334201 0.000367384
-0.00854182 -0.00843893 0.00927672
0.0112838 -0.0114247 0.012559
0.024265 -0.00748038 0.00822316
0.0225246 0.000998059 -0.00109717
0.00688902 0.00858107 -0.00943388
-0.124476 0.00379189 -0.157701
-0.308067 0.00273111 -0.113572
-0.3006 -0.000114537 0.00476298
-0.110742 -0.00289217 0.120268
0.14629 -0.00391541 0.162822
0.314581 -0.00256366 0.106611
0.292022 0.000342053 -0.0142244
0.0893139 0.00294086 -0.122307
-0.163845 -0.0057806 -0.207578
-0.405415 -0.00416032 -0.149459
-0.395582 0.000174471 0.00626799
-0.145734 0.00440556 0.15827
0.192516 0.00596433 0.214271
0.413988 0.00390519 0.140297
0.384297 -0.000521104 -0.0187196
0.117562 -0.00448323 -0.160991
-0.103828 -0.0118467 -0.131542
-0.248504 -0.00825364 -0.091646
-0.24244 0.000345917 0.00384096
-0.0893158 0.00873565 0.0969981
0.117987 0.0118265 0.131317
0.25372 0.00774349 0.0859814
0.23555 -0.00103657 -0.0115098
0.0744988 -0.00918786 -0.102019
0 -0.286985 0
0 -0.21708 0
0 0.00909802 0
0 0.229758 0
0 0.311049 0
0 0.203663 0
0 -0.0272631 0
0 -0.222576 0
0.0797304 -0.112904 -0.184061
0.197329 -0.0815164 -0.132555
0.192545 0.00341879 0.00555906
0.0709334 0.0863258 0.140371
-0.093704 0.116869 0.190037
-0.201502 0.0765213 0.124428
-0.18705 -0.0102079 -0.016602
-0.0572082 -0.0875642 -0.142752
0.111097 0.129663 -0.256473
0.27496 0.0933772 -0.184704
0.268294 -0.00391597 0.007746
0.0988399 -0.0988827 0.195597
-0.130568 -0.13387 0.2648
-0.280775 -0.0876522 0.17338
-0.260637 0.0116951 -0.0231333
-0.0797147 0.100562 -0.198912
0.0750742 0.293578 -0.173312
0.185805 0.211426 -0.124813
0.181299 -0.0088667 0.00523437
0.0667915 -0.223891 0.132174
-0.0882314 -0.303109 0.178939
-0.189735 -0.198464 0.117161
-0.176126 0.0264803 -0.0156323
-0.0538673 0.227689 -0.134415
-0.00648799 0.279413 0.0149778
-0.0160574 0.201223 0.0107865
-0.0156679 -0.00843893 -0.00045236
-0.00577219 -0.213091 -0.0114226
0.00762496 -0.288483 -0.0154639
0.016397 -0.188889 -0.0101252
0.0152208 0.0252025 0.00135096
0.00465526 0.216703 0.0116163
-0.0841147 0.095759 0.194183
-0.20818 0.0689631 0.139843
-0.203131 -0.00289217 -0.00586474
-0.074834 -0.0730295 -0.148089
0.0988561 -0.0988686 -0.200486
0.212583 -0.0647353 -0.131271
0.197335 0.00863731 0.0175148
0.060354 0.0742674 0.150601
-0.110719 -0.145981 0.255599
-0.273958 -0.105052 0.184033
-0.267316 0.00440556 -0.00771776
-0.0984798 0.111244 -0.194884
0.130092 0.150605 -0.263835
0.279751 0.09861 -0.172748
0.259687 -0.0131586 0.0230499
0.0794428 -0.113218 0.198234
-0.070162 -0.299171 0.161972
-0.167927 -0.208434 0.112847
-0.163829 0.00873565 -0.00472951
-0.0603552 0.220607 -0.119437
0.0797295 0.29866 -0.161696
0.171451 0.195551 -0.105872
0.159173 -0.0261772 0.0141724
0.0503427 -0.232027 0.12562
0 -0.388525 0
0 -0.293887 0
0 0.012317 0
0 0.311049 0
0 0.421103 0
0 0.275722 0
0 -0.0369091 0
0 -0.301326 0
-0.00689038 -0.152851 -0.405954
-0.0170533 -0.110359 -0.292354
-0.0166398 0.00462834 0.0122607
-0.00613017 0.116869 0.30959
0.00809795 0.158218 0.419135
0.0174139 0.103597 0.274432
0.016165 -0.0138196 -0.0366162
0.00494399 -0.118546 -0.314844
-0.00960115 0.17554 -0.565662
-0.0237624 0.126415 -0.407371
-0.0231862 -0.00530153 0.0170843
-0.00854182 -0.13387 0.431397
0.0112838 -0.181234 0.584024
0.024265 -0.118664 0.3824
0.0225246 0.0158329 -0.0510216
0.00688902 0.136143 -0.438708
-0.00648799 0.397451 -0.382247
-0.0160574 0.286229 -0.275282
-0.0156679 -0.012004 0.0115447
-0.00577219 -0.303109 0.291513
0.00762496 -0.410356 0.394655
0.016397 -0.268685 0.258405
0.0152208 0.0358491 -0.0344778
0.00465526 0.308249 -0.296458
0.000560699 0.378273 0.0330342
0.0013877 0.27242 0.0237902
0.00135405 -0.0114247 -0.000997696
0.000498832 -0.288483 -0.0251929
-0.000658962 -0.390556 -0.0341064
-0.00141705 -0.255718 -0.0223317
-0.00131541 0.0341194 0.00297961
-0.000402312 0.293376 0.0256202
0.00726927 0.12964 0.428277
0.017991 0.0933637 0.308428
0.0175547 -0.00391541 -0.0129349
0.00646725 -0.0988686 -0.326613
-0.00854322 -0.13385 -0.442179
-0.0183714 -0.0876396 -0.289522
-0.0170538 0.0116933 0.0386293
-0.00521585 0.100544 0.332157
0.00956841 -0.197631 0.563733
0.0236759 -0.14222 0.405889
0.0231017 0.00596433 -0.017022
0.0085107 0.150605 -0.429821
-0.0112427 0.203891 -0.581897
-0.0241765 0.1335 -0.381006
-0.0224425 -0.0178142 0.0508375
-0.00686552 -0.153276 0.437212
0.00606347 -0.405022 0.357236
0.0145124 -0.282181 0.248889
0.0141583 0.0118265 -0.0104311
0.00521596 0.29866 -0.263424
-0.00689031 0.404331 -0.356627
-0.014817 0.26474 -0.233505
-0.0137559 -0.0354391 0.0312579
-0.00435066 -0.314121 0.27706
0 -0.25439 0
0 -0.192425 0
0 0.0080647 0
0 0.203663 0
0 0.275722 0
0 0.180532 0
0 -0.0241666 0
0 -0.197296 0
-0.0893316 -0.100081 -0.381601
-0.22109 -0.0722584 -0.274817
-0.215731 0.00303049 0.0115252
-0.0794744 0.0765213 0.291021
0.104988 0.103597 0.39399
0.225763 0.0678311 0.257969
0.209575 -0.00904856 -0.0344195
0.0640972 -0.0776191 -0.295957
-0.124476 0.114937 -0.531728
-0.308067 0.0827713 -0.382936
-0.3006 -0.00347127 0.0160593
-0.110742 -0.0876522 0.405515
0.14629 -0.118664 0.548989
0.314581 -0.0776964 0.359459
0.292022 0.0103668 -0.0479608
0.0893139 0.089141 -0.41239
-0.0841147 0.260235 -0.359316
-0.20818 0.187414 -0.258768
-0.203131 -0.00785962 0.0108521
-0.074834 -0.198464 0.274025
0.0988561 -0.268685 0.370982
0.212583 -0.175924 0.242901
0.197335 0.0234727 -0.0324095
0.060354 0.201829 -0.278673
0.00726927 0.247678 0.0310524
0.017991 0.178371 0.0223631
0.0175547 -0.00748038 -0.000937843
0.00646725 -0.188889 -0.0236817
-0.00854322 -0.255718 -0.0320604
-0.0183714 -0.167434 -0.0209919
-0.0170538 0.0223401 0.00280086
-0.00521585 0.192091 0.0240832
0.0942438 0.0848831 0.402585
0.233245 0.0611304 0.289926
0.227588 -0.00256366 -0.012159
0.0838447 -0.0647353 -0.307021
-0.11076 -0.0876396 -0.415655
-0.238178 -0.0573825 -0.272154
-0.221096 0.00765631 0.0363121
-0.0676218 0.0658324 0.312231
0.124051 -0.129401 0.529914
0.306944 -0.0931217 0.381542
0.299502 0.00390519 -0.0160008
0.110338 0.09861 -0.404038
-0.145757 0.1335 -0.546989
-0.313435 0.087411 -0.358149
-0.290958 -0.0116641 0.0477876
-0.0890093 -0.100359 0.410983
0.078611 -0.265192 0.335805
0.188149 -0.184761 0.233958
0.183558 0.00774349 -0.00980536
0.0676232 0.195551 -0.247621
-0.0893306 0.26474 -0.335233
-0.192098 0.173341 -0.219497
-0.178341 -0.0232041 0.0293827
-0.0564049 -0.205674 0.260439
0 0.0340536 0
0 0.0257588 0
0 -0.00107957 0
0 -0.0272631 0
0 -0.0369091 0
0 -0.0241666 0
0 0.00323504 0
0 0.0264108 0
-0.117585 0.0133972 -0.125773
-0.29095 0.00963973 -0.0906318
-0.283893 -0.000404243 0.00380095
-0.104588 -0.0102076 0.0959776
0.13816 -0.0138193 0.129935
0.2971 -0.00904832 0.0850763
0.275793 0.00120765 -0.0113504
0.0843699 0.0103904 -0.0975455
-0.163845 -0.0153859 -0.175254
-0.405415 -0.0110445 -0.126288
-0.395582 0.000463131 0.00529627
-0.145734 0.0116948 0.133736
0.192516 0.0158325 0.181054
0.413988 0.0103665 0.118547
0.384297 -0.00138384 -0.0158158
0.117562 -0.0119327 -0.135921
-0.110719 -0.034836 -0.118428
-0.273958 -0.0250071 -0.0853388
-0.267316 0.00104864 0.00357899
-0.0984799 0.0264796 0.0903722
0.130092 0.0358481 0.122347
0.279751 0.0234721 0.080108
0.259687 -0.00313326 -0.0106875
0.0794428 -0.0270176 -0.091849
0.00956841 -0.0331551 0.0102347
0.0236759 -0.0238004 0.00737508
0.0231017 0.000998031 -0.000309298
0.0085107 0.0252018 -0.00781004
-0.0112427 0.0341185 -0.0105733
-0.0241765 0.0223395 -0.00692306
-0.0224425 -0.00298209 0.00092363
-0.00686552 -0.025714 0.00793768
0.124051 -0.0113628 0.132689
0.306944 -0.00815682 0.0956157
0.299502 0.000342044 -0.00400995
0.110338 0.00863707 -0.101255
-0.145757 0.011693 -0.13708
-0.313435 0.0076561 -0.0897547
-0.290958 -0.00102201 0.0119745
-0.0890093 -0.00881257 0.102909
0.163286 0.0173221 0.174657
0.40394 0.0124267 0.125828
0.394141 -0.00052109 -0.00527694
0.145203 -0.0131583 -0.133248
-0.191814 -0.0178137 -0.180393
-0.412481 -0.0116638 -0.118114
-0.382896 0.00155712 0.0157586
-0.117161 0.0134344 0.135458
0.103474 0.0354996 0.110679
0.247656 0.0247328 0.0771111
0.241613 -0.00103657 -0.00323179
0.0890112 -0.0261772 -0.0816143
-0.117584 -0.0354391 -0.110491
-0.252854 -0.0232041 -0.0723449
-0.234747 0.00310619 0.00968436
-0.0742447 0.0275323 0.0858392
0 0.301841 0
0 0.210295 0
0 -0.00881362 0
0 -0.222576 0
0 -0.301326 0
0 -0.197296 0
0 0.0264108 0
0 0.234098 0
-0.0745136 0.118748 0.206346
-0.178342 0.0827327 0.143763
-0.17399 -0.0034674 -0.00602522
-0.0640985 -0.0875643 -0.152158
0.0846744 -0.118546 -0.205994
0.182085 -0.0776191 -0.134877
0.169045 0.0103904 0.0180551
0.053465 0.0920971 0.160035
-0.103828 -0.136376 0.287526
-0.248504 -0.0950137 0.200321
-0.24244 0.0039821 -0.00839562
-0.0893157 0.100562 -0.21202
0.117987 0.136143 -0.287035
0.25372 0.089141 -0.187939
0.23555 -0.0119327 0.0251583
0.0744988 -0.105768 0.222995
-0.070162 -0.308776 0.194296
-0.167927 -0.215126 0.135367
-0.163829 0.00901611 -0.00567335
-0.0603552 0.227689 -0.143273
0.0797295 0.308249 -0.193965
0.171451 0.201829 -0.127
0.159173 -0.0270176 0.0170007
0.0503427 -0.239476 0.150689
0.00606347 -0.293877 -0.0167912
0.0145124 -0.204746 -0.0116986
0.0141583 0.00858107 0.000490297
0.00521596 0.216703 0.0123818
-0.0068903 0.293376 0.0167626
-0.014817 0.192091 0.0109755
-0.0137559 -0.025714 -0.00146922
-0.00435066 -0.227921 -0.0130227
0.078611 -0.100716 -0.217693
0.188148 -0.0701696 -0.151668
0.183558 0.00294086 0.00635654
0.0676232 0.0742674 0.160525
-0.0893306 0.100544 0.217322
-0.192098 0.0658324 0.142294
-0.178341 -0.00881257 -0.019048
-0.0564049 -0.0781119 -0.168835
0.103474 0.153538 -0.286545
0.247656 0.106971 -0.199638
0.241613 -0.00448323 0.00836699
0.0890111 -0.113218 0.211297
-0.117584 -0.153276 0.286056
-0.252854 -0.100359 0.187298
-0.234747 0.0134344 -0.0250725
-0.0742447 0.119079 -0.222235
0.0655712 0.314658 -0.181583
0.156939 0.219224 -0.12651
0.15311 -0.00918786 0.00530214
0.0564061 -0.232027 0.133898
-0.0745127 -0.314121 0.181273
-0.160233 -0.205674 0.11869
-0.148758 0.0275323 -0.0158883
-0.0470487 0.244038 -0.140829
