# vtk DataFile Version 3.0
Velocity field
ASCII
DATASET STRUCTURED_POINTS
DIMENSIONS 10 10 10
SPACING 0.631579 0.631579 0.631579
ORIGIN 0 0 0
POINT_DATA 1000
VECTORS velocity float
0 0.00760433 0
0 0.00613743 0
0 0.00230266 0
0 -0.00242049 0
0 -0.0062098 0
0 -0.00760332 0
0 -0.00606342 0
0 -0.00218421 0
0 0.00253768 0
0 0.00628052 0
0 0.00467052 0.00595665
0 0.00376956 0.0049961
0 0.00141428 0.00187445
0 -0.00148665 -0.00197037
0 -0.00381401 -0.00505501
0 -0.0046699 -0.00618939
0 -0.00372411 -0.00493586
0 -0.00134153 -0.00177803
0 0.00155863 0.00206577
0 0.00385745 0.00491968
0 -6.52064e-05 0.00961518
0 -5.26279e-05 0.00806466
0 -1.97451e-05 0.00302572
0 2.07555e-05 -0.00318056
0 5.32485e-05 -0.00815976
0 6.51978e-05 -0.00999087
0 5.19933e-05 -0.00796742
0 1.87294e-05 -0.00287009
0 -2.17604e-05 0.00333455
0 -5.38549e-05 0.00794131
0 -0.00477578 0.00956411
0 -0.00385451 0.00802182
0 -0.00144615 0.00300965
0 0.00152015 -0.00316366
0 0.00389997 -0.00811642
0 0.00477515 -0.00993779
0 0.00380804 -0.0079251
0 0.00137176 -0.00285484
0 -0.00159375 0.00331684
0 -0.00394438 0.00789913
0 -0.00764382 0.00582313
0 -0.0061693 0.0048841
0 -0.00231462 0.00183243
0 0.00243306 -0.0019262
0 0.00624205 -0.0049417
0 0.00764281 -0.00605065
0 0.00609491 -0.00482521
0 0.00219556 -0.00173817
0 -0.00255086 0.00201946
0 -0.00631314 0.0048094
0 -0.00756282 -0.000164461
0 -0.00610392 -0.00013794
0 -0.00229009 -5.1753e-05
0 0.00240728 5.44011e-05
0 0.0061759 0.000139567
0 0.00756182 0.000170886
0 0.00603033 0.000136277
0 0.00217229 4.90906e-05
0 -0.00252383 -5.70349e-05
0 -0.00624624 -0.00013583
0 -0.00456403 -0.0060886
0 -0.00368361 -0.00510676
0 -0.00138203 -0.00191597
0 0.00145275 0.00201402
0 0.00372705 0.00516698
0 0.00456342 0.00632649
0 0.00363919 0.00504519
0 0.00131094 0.00181742
0 -0.00152309 -0.00211153
0 -0.00376949 -0.00502866
0 0.000195604 -0.00966371
0 0.000157871 -0.00810536
0 5.92306e-05 -0.00304099
0 -6.22616e-05 0.00319661
0 -0.000159733 0.00820094
0 -0.000195578 0.0100413
0 -0.000155968 0.00800763
0 -5.61838e-05 0.00288457
0 6.52761e-05 -0.00335138
0 0.000161552 -0.00798139
0 0.00487977 -0.00951049
0 0.00393844 -0.00797685
0 0.00147764 -0.00299278
0 -0.00155325 0.00314593
0 -0.00398488 0.00807091
0 -0.00487912 0.00988208
0 -0.00389095 0.00788067
0 -0.00140163 0.00283883
0 0.00162845 -0.00329824
0 0.00403027 -0.00785484
0 0.00768128 -0.00568805
0 0.00619953 -0.0045908
0 0.00232596 -0.00172239
0 -0.00244499 0.00181053
0 -0.00627264 0.00464494
0 -0.00768026 0.00568729
0 -0.00612478 0.00453545
0 -0.00220631 0.00163379
0 0.00256336 -0.00189819
0 0.00634408 -0.00469784
0 0.00613743 0
0 0.00521114 0
0 0.00195513 0
0 -0.00205518 0
0 -0.00527259 0
0 -0.0064558 0
0 -0.00514831 0
0 -0.00185456 0
0 0.00215469 0
0 0.00506896 0
0.000866089 0.00376956 0.00659234
0.0022657 0.00304466 0.00532445
0.00279058 0.0011423 0.00199764
0.00223884 -0.00120076 -0.00209987
0.000823333 -0.00308056 -0.00538724
-0.000909818 -0.00377186 -0.00659617
-0.00229195 -0.00300794 -0.00526025
-0.00278984 -0.00108354 -0.00189489
-0.00221138 0.00125889 0.00220154
-0.000779216 0.00311332 0.00544471
0.00139803 -5.26279e-05 0.0106413
0.00365727 -4.25052e-05 0.00859469
0.00450453 -1.59472e-05 0.00322458
0.00361391 1.67633e-05 -0.0033896
0.00132902 4.30064e-05 -0.00869604
-0.00146862 5.26573e-05 -0.0106475
-0.00369966 4.19927e-05 -0.00849106
-0.00450334 1.51269e-05 -0.00305871
-0.0035696 -1.75749e-05 0.0035537
-0.0012578 -4.34658e-05 0.0087888
0.00139061 -0.00385451 0.0105848
0.00363784 -0.00311312 0.00854903
0.00448061 -0.00116799 0.00320745
0.00359472 0.00122776 -0.00337159
0.00132196 0.00314983 -0.00864985
-0.00146082 0.00385668 -0.0105909
-0.00368 0.00307559 -0.00844595
-0.00447941 0.00110791 -0.00304247
-0.00355063 -0.0012872 0.00353483
-0.00125112 -0.00318348 0.00874211
0.000846675 -0.0061693 0.00644456
0.00221491 -0.00498267 0.0052051
0.00272802 -0.00186942 0.00195286
0.00218865 0.00196508 -0.0020528
0.000804877 0.00504143 -0.00526648
-0.000889423 0.00617276 -0.00644831
-0.00224058 0.0049226 -0.00514233
-0.0027273 0.00177326 -0.00185241
-0.00216181 -0.00206022 0.00215219
-0.000761749 -0.00509528 0.00532265
-2.39123e-05 -0.00610392 -0.000182012
-6.25549e-05 -0.00492987 -0.000147006
-7.70467e-05 -0.00184961 -5.51541e-05
-6.18133e-05 0.00194426 5.79765e-05
-2.27319e-05 0.00498801 0.000148739
2.51197e-05 0.00610735 0.000182117
6.32798e-05 0.00487043 0.000145233
7.70262e-05 0.00175446 5.2317e-05
6.10553e-05 -0.00203839 -6.07835e-05
2.15138e-05 -0.00504129 -0.000150326
-0.000885274 -0.00368361 -0.00673836
-0.00231588 -0.00297509 -0.00544239
-0.00285239 -0.0011162 -0.00204189
-0.00228843 0.00117332 0.00214638
-0.000841571 0.00301018 0.00550657
0.00092997 0.00368568 0.00674228
0.00234272 0.00293922 0.00537677
0.00285164 0.00105879 0.00193686
0.00226037 -0.00123013 -0.0022503
0.000796476 -0.00304233 -0.00556531
-0.00140509 0.000157871 -0.010695
-0.00367573 0.000127506 -0.00863806
-0.00452726 4.7838e-05 -0.00324086
-0.00363215 -5.0286e-05 0.0034067
-0.00133573 -0.000129009 0.00873992
0.00147603 -0.00015796 0.0107012
0.00371832 -0.000125968 0.00853391
0.00452606 -4.53772e-05 0.00307415
0.00358761 5.27206e-05 -0.00357164
0.00126415 0.000130387 -0.00883315
-0.00138281 0.00393844 -0.0105254
-0.00361745 0.0031809 -0.00850111
-0.00445548 0.00119342 -0.00318947
-0.00357456 -0.00125449 0.00335269
-0.00131455 -0.00321841 0.00860135
0.00145263 -0.00394065 0.0105316
0.00365937 -0.00314255 0.0083986
0.0044543 -0.00113203 0.00302541
0.00353073 0.00131523 -0.00351501
0.00124411 0.00325279 -0.0086931
-0.000827035 0.00619953 -0.00629507
-0.00216203 0.00500362 -0.00508073
-0.0026629 0.00187727 -0.0019062
-0.0021364 -0.00197334 0.00200375
-0.000785662 -0.00506262 0.00514064
0.000868188 -0.00619871 0.00629424
0.00218708 -0.00494329 0.00501947
0.00266219 -0.00178071 0.00180815
0.0021102 0.00206888 -0.00210076
0.000744079 0.00512028 -0.00519919
0 0.00230266 0
0 0.00195513 0
0 0.000733533 0
0 -0.000771071 0
0 -0.00197819 0
0 -0.00242211 0
0 -0.00193156 0
0 -0.000695801 0
0 0.000808403 0
0 0.00190179 0
0.00139803 0.00141428 0.00468465
0.00365727 0.0011423 0.00378359
0.00450453 0.000428573 0.00141954
0.00361391 -0.000450504 -0.00149218
0.00132902 -0.00115577 -0.00382821
-0.00146862 -0.00141514 -0.00468728
-0.00369966 -0.00112853 -0.00373797
-0.00450334 -0.000406528 -0.00134652
-0.0035696 0.000472316 0.00156443
-0.0012578 0.00116806 0.00386912
0.0022567 -1.97451e-05 0.00756193
0.00590354 -1.59472e-05 0.00610744
0.00727119 -5.98313e-06 0.00229141
0.00583355 6.2893e-06 -0.00240867
0.00214529 1.61353e-05 -0.00617947
-0.00237064 1.97561e-05 -0.00756618
-0.00597195 1.57549e-05 -0.00603381
-0.00726925 5.67537e-06 -0.00217354
-0.00576201 -6.59381e-06 0.00252529
-0.00203034 -1.63076e-05 0.00624551
0.00224471 -0.00144615 0.00752176
0.00587218 -0.00116799 0.006075
0.00723256 -0.000438211 0.00227924
0.00580256 0.000460635 -0.00239587
0.0021339 0.00118176 -0.00614664
-0.00235804 0.00144696 -0.00752598
-0.00594023 0.00115391 -0.00600175
-0.00723063 0.00041567 -0.002162
-0.00573141 -0.000482937 0.00251187
-0.00201955 -0.00119439 0.00621233
0.0013667 -0.00231462 0.00457964
0.00357529 -0.00186942 0.00369878
0.00440356 -0.000701373 0.00138772
0.0035329 0.000737265 -0.00145873
0.00129923 0.00189146 -0.00374239
-0.0014357 0.00231592 -0.00458221
-0.00361672 0.00184688 -0.00365418
-0.00440239 0.000665295 -0.00131634
-0.00348958 -0.00077296 0.00152936
-0.00122961 -0.00191166 0.00378239
-3.85991e-05 -0.00229009 -0.000129341
-0.000100976 -0.00184961 -0.000104463
-0.000124368 -0.000693941 -3.91929e-05
-9.97786e-05 0.000729452 4.11985e-05
-3.66936e-05 0.00187142 0.000105695
4.0548e-05 0.00229137 0.000129414
0.000102146 0.0018273 0.000103204
0.000124335 0.000658245 3.71768e-05
9.8555e-05 -0.000764769 -4.31931e-05
3.47274e-05 -0.0018914 -0.000106825
-0.001429 -0.00138203 -0.00478842
-0.00373828 -0.0011162 -0.0038674
-0.00460431 -0.000418781 -0.00145098
-0.00369396 0.000440211 0.00152524
-0.00135846 0.00112937 0.00391301
0.00150115 0.0013828 0.00479111
0.00378161 0.00110275 0.00382077
0.00460309 0.000397239 0.00137635
0.00364866 -0.000461524 -0.00159908
0.00128567 -0.00114143 -0.00395482
-0.00226809 5.92306e-05 -0.00760009
-0.00593333 4.7838e-05 -0.00613826
-0.00730788 1.7948e-05 -0.00230297
-0.00586299 -1.88664e-05 0.00242082
-0.00215612 -4.84021e-05 0.00621065
0.0023826 -5.92638e-05 0.00760436
0.00600209 -4.72612e-05 0.00606425
0.00730593 -1.70248e-05 0.00218451
0.00579109 1.97799e-05 -0.00253803
0.00204058 4.89191e-05 -0.00627702
-0.00223212 0.00147764 -0.00747959
-0.00583925 0.00119342 -0.00604094
-0.00719201 0.000447752 -0.00226646
-0.00577003 -0.000470665 0.00238244
-0.00212193 -0.00120749 0.00611218
0.00234482 -0.00147847 0.00748379
0.00590693 -0.00117903 0.0059681
0.0071901 -0.00042472 0.00214988
0.00569927 0.000493452 -0.00249779
0.00200823 0.00122039 -0.0061775
-0.00133499 0.00232596 -0.00447341
-0.00348993 0.00187727 -0.00361047
-0.00429843 0.000704321 -0.00135459
-0.00344856 -0.000740363 0.00142391
-0.00126821 -0.00189941 0.00365305
0.00140142 -0.00232565 0.00447281
0.00353038 -0.00185464 0.00356694
0.00429728 -0.000668092 0.00128491
0.00340627 0.000776209 -0.00149285
0.00120109 0.00192104 -0.00369465
0 -0.00242049 0
0 -0.00205519 0
0 -0.000771071 0
0 0.000810529 0
0 0.00207942 0
0 0.00254606 0
0 0.0020304 0
0 0.000731408 0
0 -0.000849771 0
0 -0.00199911 0
0.00139061 -0.00148665 0.000969593
0.00363784 -0.00120076 0.000783098
0.00448061 -0.000450504 0.000293805
0.00359472 0.000473558 -0.00030884
0.00132196 0.00121492 -0.000792333
-0.00146082 0.00148755 -0.000970137
-0.00368 0.00118628 -0.000773656
-0.00447941 0.000427331 -0.000278692
-0.00355063 -0.000496486 0.000323793
-0.00125112 -0.00122784 0.0008008
0.00224471 2.07555e-05 0.00156511
0.00587218 1.67633e-05 0.00126407
0.00723256 6.2893e-06 0.000474258
0.00580256 -6.61115e-06 -0.000498527
0.0021339 -1.6961e-05 -0.00127898
-0.00235804 -2.07671e-05 -0.00156599
-0.00594023 -1.65612e-05 -0.00124883
-0.00723063 -5.96579e-06 -0.000449863
-0.00573141 6.93123e-06 0.000522664
-0.00201955 1.71422e-05 0.00129265
0.00223278 0.00152015 0.00155679
0.00584098 0.00122776 0.00125736
0.00719414 0.000460635 0.000471739
0.00577174 -0.000484207 -0.000495879
0.00212256 -0.00124224 -0.00127218
-0.00234552 -0.00152101 -0.00155767
-0.00590867 -0.00121296 -0.0012422
-0.00719223 -0.000436941 -0.000447473
-0.00570096 0.000507651 0.000519887
-0.00200882 0.00125551 0.00128578
0.00135944 0.00243306 0.000947858
0.00355629 0.00196508 0.000765543
0.00438016 0.000737265 0.000287219
0.00351414 -0.000774993 -0.000301917
0.00129233 -0.00198825 -0.000774571
-0.00142807 -0.00243443 -0.00094839
-0.00359751 -0.00194139 -0.000756313
-0.004379 -0.000699341 -0.000272445
-0.00347104 0.000812515 0.000316534
-0.00122308 0.00200949 0.000782849
-3.83941e-05 0.00240728 -2.677e-05
-0.000100439 0.00194426 -2.1621e-05
-0.000123708 0.000729452 -8.11183e-06
-9.92485e-05 -0.00076678 8.52694e-06
-3.64987e-05 -0.00196718 2.1876e-05
4.03326e-05 -0.00240863 2.67851e-05
0.000101603 -0.00192081 2.13603e-05
0.000123675 -0.00069193 7.69457e-06
9.80314e-05 0.000803904 -8.93978e-06
3.4543e-05 0.00198819 -2.21097e-05
-0.00142141 0.00145275 -0.00099107
-0.00371842 0.00117332 -0.000800444
-0.00457985 0.000440211 -0.000300313
-0.00367434 -0.000462739 0.000315681
-0.00135124 -0.00118716 0.000809883
0.00149318 -0.00145357 0.000991626
0.00376152 -0.00115918 0.000790793
0.00457863 -0.000417567 0.000284865
0.00362928 0.000485142 -0.000330965
0.00127884 0.00119984 -0.000818538
-0.00225604 -6.22616e-05 -0.00157301
-0.00590181 -5.0286e-05 -0.00127045
-0.00726906 -1.88664e-05 -0.000476651
-0.00583184 1.98319e-05 0.000501043
-0.00214466 5.0879e-05 0.00128543
0.00236994 6.22965e-05 0.00157389
0.00597021 4.96796e-05 0.00125513
0.00726713 1.7896e-05 0.000452133
0.00576033 -2.07921e-05 -0.000525301
0.00202974 -5.14224e-05 -0.00129917
-0.00222027 -0.00155325 -0.00154807
-0.00580823 -0.00125449 -0.00125031
-0.0071538 -0.000470665 -0.000469094
-0.00573938 0.00049475 0.000493099
-0.00211066 0.00126929 0.00126505
0.00233237 0.00155412 0.00154894
0.00587555 0.00123937 0.00123523
0.0071519 0.000446454 0.000444964
0.005669 -0.000518704 -0.000516973
0.00199756 -0.00128284 -0.00127857
-0.0013279 -0.00244499 -0.000925871
-0.00347139 -0.00197334 -0.000747267
-0.00427559 -0.000740363 -0.000280362
-0.00343024 0.00077825 0.000294709
-0.00126147 0.00199661 0.000756079
0.00139398 0.00244466 0.000925748
0.00351162 0.00194955 0.000738257
0.00427445 0.00070228 0.00026594
0.00338817 -0.00081593 -0.000308978
0.00119471 -0.00201935 -0.00076469
0 -0.0062098 0
0 -0.0052726 0
0 -0.00197819 0
0 0.00207942 0
0 0.00533477 0
0 0.00653193 0
0 0.00520902 0
0 0.00187643 0
0 -0.0021801 0
0 -0.00512873 0
0.000846675 -0.00381401 -0.00311954
0.00221491 -0.00308056 -0.00251952
0.00272802 -0.00115577 -0.000945282
0.00218865 0.00121492 0.000993655
0.000804877 0.00311689 0.00254923
-0.000889423 0.00381634 0.0031213
-0.00224058 0.00304342 0.00248914
-0.0027273 0.00109632 0.000896657
-0.00216181 -0.00127374 -0.00104176
-0.000761749 -0.00315003 -0.00257647
0.0013667 5.32485e-05 -0.00503554
0.00357529 4.30064e-05 -0.00406699
0.00440356 1.61353e-05 -0.00152587
0.0035329 -1.6961e-05 0.00160395
0.00129923 -4.35136e-05 0.00411495
-0.0014357 -5.32783e-05 0.00503837
-0.00361672 -4.24878e-05 0.00401795
-0.00440239 -1.53053e-05 0.00144738
-0.00348958 1.77821e-05 -0.00168161
-0.00122961 4.39784e-05 -0.00415893
0.00135944 0.00389997 -0.00500879
0.00355629 0.00314983 -0.00404538
0.00438016 0.00118176 -0.00151776
0.00351414 -0.00124224 0.00159543
0.00129233 -0.00318698 0.00409309
-0.00142807 -0.00390216 0.00501161
-0.00359751 -0.00311185 0.00399661
-0.004379 -0.00112098 0.00143969
-0.00347104 0.00130238 -0.00167267
-0.00122308 0.00322102 -0.00413683
0.000827695 0.00624205 -0.00304961
0.00216526 0.00504143 -0.00246304
0.00266687 0.00189146 -0.000924092
0.00213959 -0.00198825 0.00097138
0.000786835 -0.00510088 0.00249209
-0.000869485 -0.00624556 0.00305133
-0.00219035 -0.00498064 0.00243334
-0.00266616 -0.00179417 0.000876558
-0.00211335 0.00208452 -0.00101841
-0.000744673 0.00515536 -0.00251872
-2.33763e-05 0.0061759 8.61293e-05
-6.11526e-05 0.00498801 6.95628e-05
-7.53196e-05 0.00187142 2.60988e-05
-6.04277e-05 -0.00196718 -2.74344e-05
-2.22223e-05 -0.00504683 -7.03832e-05
2.45566e-05 -0.00617937 -8.61776e-05
6.18613e-05 -0.00492787 -6.87241e-05
7.52996e-05 -0.00177515 -2.47563e-05
5.96867e-05 0.00206243 2.87626e-05
2.10315e-05 0.00510073 7.11354e-05
-0.000865429 0.00372705 0.00318864
-0.00226397 0.00301018 0.00257533
-0.00278845 0.00112937 0.00096622
-0.00223713 -0.00118716 -0.00101566
-0.000822706 -0.00304567 -0.0026057
0.000909124 -0.00372914 -0.00319043
0.00229021 -0.00297388 -0.00254428
0.00278771 -0.00107127 -0.000916519
0.0022097 0.00124464 0.00106484
0.000778622 0.0030782 0.00263355
-0.00137359 -0.000159733 0.00506096
-0.00359333 -0.000129009 0.00408752
-0.00442578 -4.84021e-05 0.00153357
-0.00355073 5.0879e-05 -0.00161204
-0.00130578 0.000130531 -0.00413572
0.00144294 0.000159822 -0.0050638
0.00363497 0.000127454 -0.00403823
0.0044246 4.59123e-05 -0.00145468
0.00350719 -5.33423e-05 0.00169009
0.00123581 -0.000131925 0.00417991
-0.00135181 -0.00398488 0.00498071
-0.00353636 -0.00321841 0.00402271
-0.00435561 -0.00120749 0.00150925
-0.00349443 0.00126929 -0.00158648
-0.00128508 0.00325637 -0.00407014
0.00142007 0.00398712 -0.00498351
0.00357734 0.00317961 -0.0039742
0.00435445 0.00114538 -0.00143162
0.00345158 -0.00133074 0.0016633
0.00121622 -0.00329115 0.00411364
-0.000808496 -0.00627264 0.00297888
-0.00211356 -0.00506262 0.00240424
-0.0026032 -0.00189941 0.00090203
-0.00208851 0.00199661 -0.000948189
-0.00076805 0.00512232 -0.00243259
0.000848727 0.00627181 -0.00297848
0.00213806 0.00500158 -0.00237525
0.00260251 0.00180171 -0.00085563
0.0020629 -0.00209328 0.000994097
0.000727399 -0.00518066 0.00246029
0 -0.00760332 0
0 -0.00645581 0
0 -0.00242211 0
0 0.00254606 0
0 0.00653193 0
0 0.00799774 0
0 0.00637796 0
0 0.00229752 0
0 -0.00266933 0
0 -0.00627965 0
-2.39123e-05 -0.0046699 -0.00600514
-6.25549e-05 -0.00377186 -0.00485009
-7.70467e-05 -0.00141514 -0.00181967
-6.18133e-05 0.00148755 0.00191279
-2.27319e-05 0.00381634 0.00490728
2.51197e-05 0.00467275 0.00600851
6.32799e-05 0.00372638 0.00479161
7.70262e-05 0.00134234 0.00172607
6.10553e-05 -0.00155957 -0.0020054
2.15138e-05 -0.00385692 -0.00495973
-3.85991e-05 6.51978e-05 -0.00969345
-0.000100976 5.26573e-05 -0.00782898
-0.000124368 1.97561e-05 -0.0029373
-9.97786e-05 -2.07671e-05 0.00308761
-3.66936e-05 -5.32783e-05 0.0079213
4.0548e-05 -6.52343e-05 0.00969889
0.000102146 -5.20224e-05 0.00773458
0.000124335 -1.87399e-05 0.00278621
9.8555e-05 2.17726e-05 -0.0032371
3.47274e-05 5.38474e-05 -0.00800595
-3.83941e-05 0.00477515 -0.00964195
-0.000100439 0.00385668 -0.00778739
-0.000123708 0.00144696 -0.0029217
-9.92485e-05 -0.00152101 0.00307121
-3.64987e-05 -0.00390216 0.00787922
4.03326e-05 -0.00477783 0.00964737
0.000101603 -0.00381018 0.00769349
0.000123675 -0.00137253 0.00277141
9.80314e-05 0.00159465 -0.0032199
3.4543e-05 0.00394383 -0.00796342
-2.33763e-05 0.00764281 -0.00587052
-6.11526e-05 0.00617276 -0.00474137
-7.53196e-05 0.00231592 -0.00177888
-6.04277e-05 -0.00243443 0.00186991
-2.22223e-05 -0.00624556 0.00479728
2.45566e-05 -0.0076471 0.00587382
6.18613e-05 -0.00609834 0.0046842
7.52996e-05 -0.00219679 0.00168738
5.96867e-05 0.00255229 -0.00196044
2.10315e-05 0.00631226 -0.00484855
6.60209e-07 0.00756182 0.000165799
1.72711e-06 0.00610735 0.000133909
2.12723e-06 0.00229137 5.02403e-05
1.70664e-06 -0.00240863 -5.28113e-05
6.27617e-07 -0.00617937 -0.000135488
-6.93543e-07 -0.00756606 -0.000165892
-1.74713e-06 -0.00603371 -0.000132294
-2.12666e-06 -0.00217351 -4.7656e-05
-1.68571e-06 0.00252525 5.53682e-05
-5.93987e-07 0.00624537 0.000136936
2.4442e-05 0.00456342 0.00613815
6.39405e-05 0.00368568 0.00495752
7.87533e-05 0.0013828 0.00185998
6.31825e-05 -0.00145357 -0.00195516
2.32354e-05 -0.00372914 -0.00501598
-2.56761e-05 -0.00456599 -0.0061416
-6.46815e-05 -0.00364124 -0.00489775
-7.87324e-05 -0.00131167 -0.0017643
-6.24077e-05 0.00152394 0.00204982
-2.19904e-05 0.00376897 0.00506959
3.87939e-05 -0.000195578 0.00974237
0.000101485 -0.00015796 0.00786849
0.000124996 -5.92638e-05 0.00295212
0.000100282 6.22965e-05 -0.00310319
3.68788e-05 0.000159822 -0.00796127
-4.07526e-05 0.000195688 -0.00974784
-0.000102661 0.000156055 -0.00777361
-0.000124963 5.62154e-05 -0.00280027
-9.90524e-05 -6.53127e-05 0.00325344
-3.49027e-05 -0.000161529 0.00804636
3.81788e-05 -0.00487912 0.0095879
9.98761e-05 -0.00394065 0.00774373
0.000123014 -0.00147847 0.00290532
9.86921e-05 0.00155412 -0.00305399
3.62941e-05 0.00398712 -0.00783504
-4.01064e-05 0.00488185 -0.00959328
-0.000101034 0.00389313 -0.00765036
-0.000122981 0.00140241 -0.00275587
-9.74818e-05 -0.00162937 0.00320185
-3.43493e-05 -0.00402971 0.00791878
2.28341e-05 -0.00768026 0.00573435
5.96927e-05 -0.00619871 0.00462817
7.35214e-05 -0.00232565 0.00173641
5.8985e-05 0.00244466 -0.00182527
2.16918e-05 0.00627181 -0.00468275
-2.39703e-05 0.00767924 -0.00573359
-6.03844e-05 0.00612397 -0.00457237
-7.35018e-05 0.00220602 -0.00164709
-5.82617e-05 -0.00256302 0.00191364
-2.05437e-05 -0.00634323 0.00473608
0 -0.00606342 0
0 -0.00514831 0
0 -0.00193156 0
0 0.0020304 0
0 0.00520902 0
0 0.00637796 0
0 0.00508624 0
0 0.0018322 0
0 -0.00212871 0
0 -0.00500784 0
-0.000885274 -0.00372411 -0.0065739
-0.00231588 -0.00300794 -0.00530946
-0.00285239 -0.00112853 -0.00199202
-0.00228843 0.00118628 0.00209396
-0.000841571 0.00304342 0.00537207
0.00092997 0.00372638 0.0065776
0.00234272 0.00297168 0.00524544
0.00285164 0.00107048 0.00188955
0.00226036 -0.00124371 -0.00219534
0.000796476 -0.00307578 -0.00542948
-0.001429 5.19933e-05 -0.0106115
-0.00373828 4.19927e-05 -0.00857048
-0.00460431 1.57549e-05 -0.0032155
-0.00369396 -1.65612e-05 0.00338005
-0.00135846 -4.24878e-05 0.00867155
0.00150115 -5.20224e-05 0.0106175
0.00378161 -4.14863e-05 0.00846715
0.00460309 -1.49445e-05 0.0030501
0.00364866 1.7363e-05 -0.0035437
0.00128567 4.29417e-05 -0.00876423
-0.00142141 0.00380804 -0.0105552
-0.00371842 0.00307559 -0.00852496
-0.00457985 0.00115391 -0.00319842
-0.00367434 -0.00121296 0.00336209
-0.00135124 -0.00311185 0.00862549
0.00149318 -0.00381018 0.0105611
0.00376152 -0.0030385 0.00842217
0.00457863 -0.00109455 0.0030339
0.00362928 0.00127168 -0.00352487
0.00127884 0.00314509 -0.00871767
-0.000865429 0.00609491 -0.00642654
-0.00226397 0.0049226 -0.00519044
-0.00278845 0.00184688 -0.00194737
-0.00223713 -0.00194139 0.00204702
-0.000822706 -0.00498064 0.00525165
0.000909124 -0.00609834 0.00643015
0.00229021 -0.00486324 0.00512785
0.00278771 -0.00175187 0.00184719
0.0022097 0.00203538 -0.00214613
0.000778622 0.00503384 -0.00530777
2.4442e-05 0.00603033 0.000181503
6.39405e-05 0.00487043 0.000146592
7.87533e-05 0.0018273 5.49988e-05
6.31825e-05 -0.00192081 -5.78132e-05
2.32354e-05 -0.00492787 -0.00014832
-2.56761e-05 -0.00603371 -0.000181605
-6.46815e-05 -0.00481171 -0.000144824
-7.87324e-05 -0.00173331 -5.21697e-05
-6.24077e-05 0.00201381 6.06123e-05
-2.19904e-05 0.0049805 0.000149906
0.000904883 0.00363919 0.00671952
0.00236718 0.00293922 0.00542706
0.00291557 0.00110275 0.00203614
0.00233912 -0.00115918 -0.00214034
0.000860212 -0.00297388 -0.00549106
-0.00095057 -0.00364124 -0.0067233
-0.00239462 -0.00290378 -0.00536163
-0.0029148 -0.00104602 -0.00193141
-0.00231043 0.0012153 0.00224397
-0.000814119 0.00300564 0.00554975
0.00143621 -0.000155968 0.0106651
0.00375715 -0.000125968 0.00861374
0.00462755 -4.72612e-05 0.00323173
0.00371261 4.96796e-05 -0.00339711
0.00136531 0.000127454 -0.00871531
-0.00150873 0.000156055 -0.0106711
-0.00380069 0.000124449 -0.00850988
-0.00462632 4.48301e-05 -0.00306549
-0.00366708 -5.20849e-05 0.00356158
-0.00129215 -0.000128815 0.00880845
0.00141344 -0.00389095 0.010496
0.00369758 -0.00314255 0.00847716
0.00455418 -0.00117903 0.00318049
0.00365374 0.00123937 -0.00334324
0.00134367 0.00317961 -0.00857713
-0.00148481 0.00389313 -0.0105019
-0.00374043 0.00310466 -0.00837495
-0.00455297 0.00111838 -0.00301689
-0.00360893 -0.00129937 0.00350511
-0.00127167 -0.00321357 0.00866879
0.000845354 -0.00612478 0.00627747
0.00220992 -0.00494329 0.00506652
0.00272188 -0.00185464 0.00190087
0.00218372 0.00194955 -0.00199815
0.000803064 0.00500158 -0.00512627
-0.000887419 0.00612397 -0.00627663
-0.00223553 0.00488368 -0.00500543
-0.00272116 0.00175924 -0.00180309
-0.00215694 -0.00204394 0.00209489
-0.000760561 -0.00505854 0.00518465
0 -0.00218421 0
0 -0.00185456 0
0 -0.000695801 0
0 0.000731408 0
0 0.00187643 0
0 0.00229752 0
0 0.0018322 0
0 0.00066001 0
0 -0.00076682 0
0 -0.00180396 0
-0.00140509 -0.00134153 -0.00460641
-0.00367573 -0.00108354 -0.0037204
-0.00452726 -0.000406528 -0.00139583
-0.00363215 0.000427331 0.00146726
-0.00133573 0.00109632 0.00376427
0.00147603 0.00134234 0.004609
0.00371832 0.00107048 0.00367554
0.00452606 0.000385616 0.00132403
0.00358761 -0.00044802 -0.0015383
0.00126415 -0.00110798 -0.0038045
-0.00226809 1.87294e-05 -0.00743563
-0.00593333 1.51269e-05 -0.00600544
-0.00730788 5.67536e-06 -0.00225314
-0.00586299 -5.96579e-06 0.00236844
-0.00215612 -1.53053e-05 0.00607625
0.0023826 -1.87399e-05 0.0074398
0.00600209 -1.49445e-05 0.00593303
0.00730593 -5.38343e-06 0.00213724
0.00579109 6.25463e-06 -0.00248311
0.00204058 1.54688e-05 -0.00614119
-0.00225604 0.00137176 -0.00739613
-0.00590181 0.00110791 -0.00597353
-0.00726906 0.00041567 -0.00224117
-0.00583184 -0.000436941 0.00235586
-0.00214466 -0.00112098 0.00604397
0.00236994 -0.00137253 0.00740029
0.00597021 -0.00109455 0.00590151
0.00726713 -0.000394288 0.00212589
0.00576033 0.000458095 -0.00246992
0.00202974 0.00113295 -0.00610857
-0.00137359 0.00219556 -0.00450315
-0.00359333 0.00177326 -0.003637
-0.00442578 0.000665295 -0.00136454
-0.00355073 -0.000699341 0.00143437
-0.00130578 -0.00179417 0.00367989
0.00144294 -0.00219679 0.00450568
0.00363497 -0.00175187 0.00359315
0.0044246 -0.000631073 0.00129435
0.00350719 0.0007332 -0.00150381
0.00123581 0.00181333 -0.00371921
3.87939e-05 0.00217229 0.000127181
0.000101485 0.00175446 0.000102719
0.000124996 0.000658245 3.85383e-05
0.000100282 -0.00069193 -4.05104e-05
3.68788e-05 -0.00177515 -0.00010393
-4.07526e-05 -0.00217351 -0.000127252
-0.000102661 -0.00173331 -0.00010148
-0.000124963 -0.000624386 -3.65559e-05
-9.90524e-05 0.00072543 4.24717e-05
-3.49027e-05 0.00179411 0.000105041
0.00143621 0.00131094 0.00470844
0.00375715 0.00105879 0.0038028
0.00462755 0.000397239 0.00142675
0.00371261 -0.000417567 -0.00149976
0.00136531 -0.00107127 -0.00384765
-0.00150873 -0.00131167 -0.00471109
-0.00380069 -0.00104602 -0.00375695
-0.00462632 -0.000376806 -0.00135336
-0.00366708 0.000437784 0.00157237
-0.00129215 0.00108272 0.00388877
0.00227953 -5.61838e-05 0.00747315
0.00596327 -4.53772e-05 0.00603574
0.00734476 -1.70248e-05 0.00226451
0.00589258 1.7896e-05 -0.00238039
0.002167 4.59123e-05 -0.00610692
-0.00239462 5.62154e-05 -0.00747735
-0.00603238 4.48301e-05 -0.00596296
-0.00734281 1.6149e-05 -0.00214802
-0.00582032 -1.87624e-05 0.00249564
-0.00205088 -4.64027e-05 0.00617218
0.00224339 -0.00140163 0.00735467
0.00586872 -0.00113203 0.00594005
0.0072283 -0.00042472 0.0022286
0.00579915 0.000446454 -0.00234265
0.00213264 0.00114538 -0.00601009
-0.00235666 0.00140241 -0.00735879
-0.00593674 0.00111838 -0.00586842
-0.00722638 0.000402873 -0.00211397
-0.00572803 -0.00046807 0.00245607
-0.00201837 -0.00115762 0.00607432
0.00134173 -0.00220631 0.00439869
0.00350754 -0.00178071 0.00355017
0.00432012 -0.000668092 0.00133196
0.00346596 0.00070228 -0.00140012
0.00127461 0.00180171 -0.00359203
-0.0014085 0.00220602 -0.00439811
-0.00354819 0.00175924 -0.00350736
-0.00431897 0.000633726 -0.00126345
-0.00342346 -0.000736282 0.00146791
-0.00120715 -0.00182223 0.00363294
0 0.00253768 0
0 0.00215469 0
0 0.000808401 0
0 -0.00084977 0
0 -0.00218009 0
0 -0.00266932 0
0 -0.0021287 0
0 -0.000766818 0
0 0.000890912 0
0 0.0020959 0
-0.00138281 0.00155863 -0.00086173
-0.00361745 0.00125889 -0.000695983
-0.00445548 0.000472316 -0.000261121
-0.00357456 -0.000496486 0.000274483
-0.00131455 -0.00127374 0.00070419
0.00145263 -0.00155957 0.000862215
0.00365937 -0.00124371 0.000687591
0.0044543 -0.00044802 0.000247689
0.00353073 0.000520523 -0.000287773
0.00124411 0.00128728 -0.000711715
-0.00223212 -2.17604e-05 -0.001391
-0.00583925 -1.75749e-05 -0.00112345
-0.00719201 -6.5938e-06 -0.0004215
-0.00577003 6.93123e-06 0.000443069
-0.00212193 1.77821e-05 0.0011367
0.00234482 2.17726e-05 0.00139178
0.00590693 1.7363e-05 0.0011099
0.0071901 6.25463e-06 0.000399818
0.00569927 -7.26681e-06 -0.000464521
0.00200823 -1.79721e-05 -0.00114884
-0.00222027 -0.00159375 -0.00138361
-0.00580823 -0.0012872 -0.00111748
-0.0071538 -0.000482937 -0.000419261
-0.00573938 0.00050765 0.000440715
-0.00211066 0.00130238 0.00113066
0.00233237 0.00159465 0.00138439
0.00587555 0.00127168 0.00110401
0.0071519 0.000458095 0.000397694
0.005669 -0.000532229 -0.000462053
0.00199756 -0.00131629 -0.00114274
-0.00135181 -0.00255086 -0.000842413
-0.00353636 -0.00206022 -0.000680381
-0.00435561 -0.00077296 -0.000255268
-0.00349443 0.000812515 0.00026833
-0.00128508 0.00208451 0.000688404
0.00142007 0.00255229 0.000842887
0.00357734 0.00203538 0.000672178
0.00435445 0.0007332 0.000242137
0.00345158 -0.000851853 -0.000281322
0.00121622 -0.00210678 -0.000695761
3.81788e-05 -0.00252383 2.3792e-05
9.98761e-05 -0.00203839 1.92158e-05
0.000123014 -0.000764769 7.20944e-06
9.86921e-05 0.000803904 -7.57837e-06
3.62941e-05 0.00206243 -1.94424e-05
-4.01064e-05 0.00252525 -2.38054e-05
-0.000101034 0.00201381 -1.89841e-05
-0.000122981 0.00072543 -6.83859e-06
-9.74818e-05 -0.000842826 7.94528e-06
-3.43493e-05 -0.00208445 1.96501e-05
0.00141344 -0.00152309 0.000880818
0.00369758 -0.00123013 0.000711399
0.00455418 -0.000461524 0.000266905
0.00365374 0.000485142 -0.000280563
0.00134367 0.00124464 -0.000719788
-0.00148481 0.00152394 -0.000881314
-0.00374043 0.0012153 -0.000702822
-0.00455297 0.000437784 -0.000253176
-0.00360893 -0.00050863 0.000294147
-0.00127167 -0.00125793 0.00072748
0.00224339 6.52761e-05 0.00139802
0.00586872 5.27206e-05 0.00112912
0.0072283 1.97799e-05 0.000423627
0.00579915 -2.07921e-05 -0.000445305
0.00213264 -5.33423e-05 -0.00114243
-0.00235666 -6.53127e-05 -0.0013988
-0.00593674 -5.20849e-05 -0.00111551
-0.00722638 -1.87624e-05 -0.000401836
-0.00572803 2.17987e-05 0.000466865
-0.00201837 5.39121e-05 0.00115464
0.00220782 0.00162845 0.00137585
0.00577567 0.00131523 0.00111122
0.0071137 0.000493452 0.00041691
0.0057072 -0.000518704 -0.000438245
0.00209883 -0.00133074 -0.00112432
-0.00231929 -0.00162937 -0.00137663
-0.00584261 -0.00129937 -0.00109782
-0.0071118 -0.000468069 -0.000395465
-0.00563722 0.000543817 0.000459462
-0.00198636 0.00134495 0.00113634
0.00132046 0.00256336 0.000822872
0.00345193 0.00206888 0.000664137
0.00425162 0.000776209 0.000249173
0.00341101 -0.00081593 -0.000261924
0.0012544 -0.00209328 -0.000671969
-0.00138616 -0.00256302 -0.000822763
-0.00349193 -0.00204394 -0.000656129
-0.00425049 -0.000736282 -0.000236356
-0.00336918 0.000855434 0.000274605
-0.00118801 0.00211712 0.000679622
0 0.00628052 0
0 0.00506897 0
0 0.00190179 0
0 -0.00199911 0
0 -0.00512874 0
0 -0.00627966 0
0 -0.00500785 0
0 -0.00180396 0
0 0.0020959 0
0 0.00518715 0
-0.000827035 0.00385745 0.00321542
-0.00216202 0.00311332 0.00259515
-0.00266288 0.00116807 0.000973656
-0.00213639 -0.00122784 -0.00102348
-0.000785657 -0.00315003 -0.00262575
0.000868184 -0.00385692 -0.00321499
0.00218707 -0.00307578 -0.00256386
0.00266217 -0.00110798 -0.000923572
0.00211019 0.00128729 0.00107303
0.000744079 0.00318591 0.00265566
-0.00133499 -5.38549e-05 0.0051903
-0.00348991 -4.34659e-05 0.00418907
-0.0042984 -1.63077e-05 0.00157167
-0.00344854 1.71422e-05 -0.0016521
-0.0012682 4.39785e-05 -0.00423847
0.00140142 5.38475e-05 -0.00518961
0.00353036 4.29418e-05 -0.00413856
0.00429726 1.54688e-05 -0.00149082
0.00340625 -1.79721e-05 0.00173208
0.00120109 -4.44793e-05 0.00428674
-0.0013279 -0.00394438 0.00516273
-0.00347137 -0.00318348 0.00416682
-0.00427557 -0.00119439 0.00156332
-0.00343022 0.00125551 -0.00164332
-0.00126147 0.00322102 -0.00421595
0.00139397 0.00394384 -0.00516204
0.0035116 0.0031451 -0.00411658
0.00427443 0.00113295 -0.0014829
0.00338816 -0.0013163 0.00172288
0.00119471 -0.00325771 0.00426397
-0.000808496 -0.00631314 0.00314334
-0.00211355 -0.00509529 0.00253698
-0.00260319 -0.00191167 0.00095183
-0.0020885 0.00200949 -0.00100054
-0.000768046 0.00515537 -0.00256689
0.000848722 0.00631227 -0.00314292
0.00213805 0.00503385 -0.00250639
0.0026025 0.00181333 -0.000902869
0.00206289 -0.00210678 0.00104898
0.000727399 -0.00521409 0.00259613
2.28341e-05 -0.00624624 -8.87762e-05
5.96923e-05 -0.0050413 -7.1651e-05
7.3521e-05 -0.00189141 -2.68822e-05
5.89847e-05 0.0019882 2.82579e-05
2.16917e-05 0.00510074 7.24959e-05
-2.39702e-05 0.00624538 8.87644e-05
-6.03841e-05 0.00498051 7.0787e-05
-7.35015e-05 0.00179412 2.54994e-05
-5.82614e-05 -0.00208446 -2.9626e-05
-2.05437e-05 -0.00515883 -7.33215e-05
0.000845354 -0.00376949 -0.00328664
0.00220991 -0.00304233 -0.00265263
0.00272187 -0.00114143 -0.000995223
0.00218371 0.00119984 0.00104615
0.00080306 0.00307821 0.00268391
-0.000887415 0.00376898 0.0032862
-0.00223552 0.00300565 0.00262065
-0.00272114 0.00108272 0.00094403
-0.00215693 -0.00125793 -0.0010968
-0.000760561 -0.00311326 -0.00271448
0.00134173 0.000161552 -0.00521649
0.00350752 0.000130387 -0.00421021
0.0043201 4.89192e-05 -0.0015796
0.00346594 -5.14225e-05 0.00166043
0.0012746 -0.000131925 0.00425986
-0.00140849 -0.00016153 0.0052158
-0.00354817 -0.000128815 0.00415945
-0.00431895 -4.64028e-05 0.00149835
-0.00342344 5.39122e-05 -0.00174082
-0.00120715 0.000133427 -0.00430837
0.00132046 0.00403027 -0.00513378
0.00345191 0.0032528 -0.00414346
0.0042516 0.00122039 -0.00155456
0.00341099 -0.00128285 0.00163411
0.00125439 -0.00329116 0.00419232
-0.00138616 -0.00402971 0.0051331
-0.00349192 -0.00321358 0.0040935
-0.00425047 -0.00115762 0.00147459
-0.00336916 0.00134496 -0.00171322
-0.00118801 0.00332864 -0.00424006
0.000789742 0.00634408 -0.00307042
0.00206454 0.00512028 -0.00247813
0.00254282 0.00192104 -0.000929751
0.00204006 -0.00201935 0.00097733
0.000750234 -0.00518066 0.00250735
-0.000829039 -0.00634323 0.00307002
-0.00208846 -0.00505854 0.00244825
-0.00254214 -0.00182223 0.000881926
-0.00201504 0.00211712 -0.00102465
-0.000710526 0.00523966 -0.00253591
