# vtk DataFile Version 3.0
Velocity field
ASCII
DATASET STRUCTURED_POINTS
DIMENSIONS 10 10 10
SPACING 0.631579 0.631579 0.631579
ORIGIN 0 0 0
POINT_DATA 1000
VECTORS velocity float
0 0.455719 0
0 0.367809 0
0 0.137996 0
0 -0.145058 0
0 -0.372147 0
0 -0.455659 0
0 -0.363374 0
0 -0.130897 0
0 0.152081 0
0 0.376385 0
0 0.279899 0.356976
0 0.225906 0.299411
0 0.084756 0.112334
0 -0.0890932 -0.118082
0 -0.22857 -0.302941
0 -0.279862 -0.370923
0 -0.223182 -0.295801
0 -0.0803963 -0.106555
0 0.0934068 0.123799
0 0.231173 0.294831
0 -0.00390775 0.576227
0 -0.00315393 0.483306
0 -0.0011833 0.181328
0 0.00124385 -0.190608
0 0.00319112 -0.489006
0 0.00390723 -0.598742
0 0.0031159 -0.477479
0 0.00112243 -0.172001
0 -0.00130408 0.199836
0 -0.00322746 0.475914
0 -0.286207 0.573166
0 -0.230997 0.480739
0 -0.0866661 0.180365
0 0.0911011 -0.189595
0 0.233721 -0.486408
0 0.286169 -0.595562
0 0.228212 -0.474942
0 0.0822081 -0.171087
0 -0.0955118 0.198774
0 -0.236383 0.473386
0 -0.458086 0.348974
0 -0.369719 0.292699
0 -0.138712 0.109816
0 0.145811 -0.115435
0 0.374079 -0.29615
0 0.458025 -0.362609
0 0.365261 -0.28917
0 0.131577 -0.104167
0 -0.15287 0.121024
0 -0.37834 0.288222
0 -0.453232 -0.00985594
0 -0.365802 -0.0082666
0 -0.137243 -0.00310149
0 0.144266 0.0032602
0 0.370115 0.00836408
0 0.453171 0.010241
0 0.361391 0.00816693
0 0.130183 0.00294195
0 -0.15125 -0.00341805
0 -0.37433 -0.00814016
0 -0.273517 -0.364883
0 -0.220755 -0.306043
0 -0.0828234 -0.114822
0 0.0870618 0.120698
0 0.223358 0.309652
0 0.273481 0.37914
0 0.218093 0.302353
0 0.0785631 0.108916
0 -0.091277 -0.126542
0 -0.225902 -0.301362
0 0.0117223 -0.579135
0 0.00946104 -0.485746
0 0.00354962 -0.182244
0 -0.00373127 0.191569
0 -0.00957261 0.491473
0 -0.0117208 0.601764
0 -0.00934697 0.479888
0 -0.00336703 0.172869
0 0.00391192 -0.200845
0 0.00968163 -0.478316
0 0.292439 -0.569953
0 0.236026 -0.478044
0 0.0885531 -0.179354
0 -0.0930846 0.188532
0 -0.23881 0.483681
0 -0.2924 0.592222
0 -0.23318 0.47228
0 -0.083998 0.170128
0 0.0975914 -0.19766
0 0.241529 -0.470732
0 0.460331 -0.340879
0 0.371531 -0.275122
0 0.139392 -0.103221
0 -0.146525 0.108503
0 -0.375912 0.278366
0 -0.46027 0.340833
0 -0.367051 0.271805
0 -0.132222 0.0979115
0 0.15362 -0.113757
0 0.380194 -0.281536
0 0.367809 0
0 0.3123 0
0 0.11717 0
0 -0.123166 0
0 -0.315983 0
0 -0.386891 0
0 -0.308534 0
0 -0.111143 0
0 0.129129 0
0 0.303779 0
0.0519038 0.225906 0.395072
0.140861 0.189216 0.330923
0.173544 0.0710535 0.124269
0.139232 -0.0746924 -0.130633
0.0512027 -0.191624 -0.335141
-0.0565813 -0.234626 -0.410349
-0.142535 -0.187107 -0.327241
-0.173498 -0.0674032 -0.117885
-0.137488 0.0781671 0.136705
-0.0466976 0.186579 0.326295
0.0837827 -0.00315393 0.637722
0.227378 -0.00263285 0.534174
0.280133 -0.000988591 0.200594
0.224748 0.00103922 -0.210867
0.0826513 0.00266613 -0.540982
-0.0913332 0.00326441 -0.662382
-0.23008 0.00260328 -0.52823
-0.280059 0.0009378 -0.190289
-0.221932 -0.00108774 0.220668
-0.0753788 -0.00260487 0.526703
0.0833376 -0.230997 0.634334
0.22617 -0.193246 0.531336
0.278645 -0.0725657 0.199528
0.223553 0.0762823 -0.209747
0.0822122 0.195703 -0.538107
-0.0908481 0.239619 -0.658863
-0.228858 0.191089 -0.525423
-0.278572 0.0688379 -0.189279
-0.220753 -0.0798326 0.219495
-0.0749784 -0.190783 0.523905
0.0507403 -0.369719 0.386216
0.137704 -0.309298 0.323504
0.169654 -0.116144 0.121483
0.136112 0.122092 -0.127705
0.0500549 0.313228 -0.327628
-0.0553128 0.38352 -0.40115
-0.13934 0.305847 -0.319905
-0.169609 0.110178 -0.115243
-0.134406 -0.127775 0.13364
-0.0456508 -0.305356 0.318981
-0.00143304 -0.365802 -0.0109078
-0.00388913 -0.306021 -0.00913662
-0.00479149 -0.114913 -0.00343101
-0.00384413 0.120799 0.00360673
-0.00141369 0.30991 0.00925308
0.00156217 0.379456 0.0113296
0.00393535 0.302606 0.00903498
0.00479022 0.10901 0.00325475
0.00379599 -0.126422 -0.00377434
0.0012893 -0.30212 -0.00900887
-0.0530535 -0.220755 -0.403823
-0.143982 -0.184677 -0.338253
-0.177388 -0.0693483 -0.127021
-0.142316 0.0728997 0.133527
-0.0523369 0.187025 0.342564
0.0578344 0.228995 0.419438
0.145693 0.182617 0.33449
0.177341 0.0657857 0.120496
0.140533 -0.0762933 -0.139733
0.0477319 -0.182324 -0.333523
-0.0842055 0.00946104 -0.64094
-0.228524 0.0079115 -0.536865
-0.281545 0.00297078 -0.201605
-0.225881 -0.00312292 0.21193
-0.083068 -0.00801189 0.543709
0.0917933 -0.00980979 0.665721
0.231239 -0.00782304 0.530892
0.28147 -0.00281816 0.191248
0.22305 0.00326842 -0.22178
0.0757592 0.007814 -0.529361
-0.0828704 0.236026 -0.630778
-0.224801 0.197235 -0.528129
-0.276958 0.0740605 -0.198321
-0.222199 -0.0778532 0.208477
-0.081714 -0.199733 0.534851
0.0902975 -0.244554 0.654875
0.227472 -0.195025 0.522243
0.276884 -0.0702555 0.188133
0.219417 0.0814838 -0.218174
0.0745581 0.194937 -0.520968
-0.0495633 0.371531 -0.377257
-0.129568 0.299862 -0.304483
-0.159584 0.112503 -0.114237
-0.128032 -0.11826 0.120083
-0.0470838 -0.303398 0.308073
0.0520296 -0.371482 0.377207
0.13107 -0.296246 0.300811
0.159542 -0.106716 0.10836
0.126462 0.123986 -0.125896
0.0445918 0.306853 -0.311582
0 0.137996 0
0 0.11717 0
0 0.0439601 0
0 -0.0462097 0
0 -0.118551 0
0 -0.145155 0
0 -0.115757 0
0 -0.0416988 0
0 0.0484469 0
0 0.113973 0
0.0837827 0.084756 0.280746
0.227378 0.0710535 0.235082
0.280133 0.0266825 0.0882783
0.224748 -0.028049 -0.0927994
0.0826513 -0.07196 -0.238078
-0.0913332 -0.0881082 -0.291504
-0.23008 -0.0702637 -0.232466
-0.280059 -0.0253118 -0.0837439
-0.221932 0.0293519 0.0971124
-0.0753788 0.0700011 0.231872
0.135241 -0.0011833 0.453178
0.367032 -0.000988591 0.379467
0.452191 -0.000371212 0.142498
0.362787 0.00039022 -0.149797
0.133415 0.00100111 -0.384304
-0.147429 0.00122578 -0.470545
-0.371393 0.00097752 -0.375245
-0.452071 0.00035214 -0.135178
-0.358241 -0.000408419 0.156758
-0.121676 -0.000977304 0.374286
0.134523 -0.0866661 0.450771
0.365083 -0.0725657 0.377451
0.449788 -0.02725 0.141741
0.36086 0.0286456 -0.149001
0.132706 0.0734905 -0.382262
-0.146646 0.0899826 -0.468045
-0.36942 0.0717582 -0.373251
-0.449669 0.0258501 -0.13446
-0.356337 -0.029977 0.155925
-0.12103 -0.0715787 0.372298
0.0819046 -0.138712 0.274453
0.222281 -0.116144 0.229812
0.273855 -0.0436147 0.0862994
0.21971 0.0458484 -0.0907197
0.0807982 0.117624 -0.232741
-0.0892855 0.14402 -0.284969
-0.224922 0.114852 -0.227256
-0.273783 0.0413743 -0.0818663
-0.216957 -0.0479793 0.0949355
-0.0736891 -0.114564 0.226674
-0.0023132 -0.137243 -0.00775128
-0.0062778 -0.114913 -0.00649051
-0.00773436 -0.0431524 -0.00243733
-0.00620518 0.0453627 0.00256216
-0.00228196 0.116378 0.00657326
0.00252166 0.142494 0.00804833
0.0063524 0.113635 0.00641827
0.0077323 0.0409358 0.00231212
0.00612748 -0.0474709 -0.00268123
0.00208118 -0.11335 -0.00640189
-0.0856385 -0.0828234 -0.286965
-0.232415 -0.0693483 -0.240289
-0.286339 -0.0260418 -0.0902341
-0.229726 0.0273755 0.0948551
-0.0844818 0.070232 0.243352
0.0933558 0.0859925 0.297962
0.235176 0.0685768 0.237615
0.286263 0.0247041 0.0855984
0.226848 -0.0286479 -0.0992636
0.0770485 -0.068405 -0.237008
-0.135924 0.00354962 -0.455465
-0.368881 0.00297078 -0.381379
-0.45447 0.00111557 -0.143216
-0.364616 -0.0011727 0.150552
-0.134087 -0.00300858 0.38624
0.148172 -0.00368373 0.472916
0.373264 -0.00293766 0.377136
0.454349 -0.00105826 0.13586
0.360047 0.00122726 -0.157548
0.12229 0.00293168 -0.376175
-0.133769 0.0885531 -0.448244
-0.362873 0.0740605 -0.375172
-0.447063 0.0278101 -0.140883
-0.358673 -0.0292343 0.148099
-0.131902 -0.075001 0.379949
0.145757 -0.0918317 0.465211
0.367183 -0.0732331 0.370992
0.446944 -0.0263815 0.133646
0.354181 0.0305958 -0.154987
0.120351 0.0731372 -0.370211
-0.0800047 0.139392 -0.268087
-0.209148 0.112503 -0.216372
-0.2576 0.0422092 -0.081179
-0.206668 -0.0443692 0.0853332
-0.0760024 -0.11383 0.218923
0.0839858 -0.139374 0.268051
0.211572 -0.111146 0.213763
0.257531 -0.040038 0.0770032
0.204134 0.0465174 -0.0894646
0.0719798 0.115126 -0.221416
0 -0.145058 0
0 -0.123166 0
0 -0.0462097 0
0 0.0485743 0
0 0.124618 0
0 0.152583 0
0 0.121681 0
0 0.0438327 0
0 -0.0509261 0
0 -0.119805 0
0.0833376 -0.0890932 0.0581066
0.22617 -0.0746924 0.0486548
0.278645 -0.028049 0.0182709
0.223553 0.0294855 -0.0192067
0.0822122 0.0756457 -0.0492751
-0.0908481 0.0926207 -0.0603326
-0.228858 0.0738623 -0.0481133
-0.278572 0.0266082 -0.0173324
-0.220753 -0.030855 0.0200993
-0.0749784 -0.0735833 0.0479911
0.134523 0.00124385 0.0937953
0.365083 0.00103922 0.0785379
0.449788 0.00039022 0.0294928
0.36086 -0.000410206 -0.0310032
0.132706 -0.00105238 -0.0795391
-0.146646 -0.00128855 -0.0973884
-0.36942 -0.00102758 -0.0776641
-0.449669 -0.000370171 -0.0279777
-0.356337 0.000429333 0.0324442
-0.12103 0.00102732 0.0774668
0.133808 0.0911011 0.093297
0.363143 0.0762823 0.0781206
0.447398 0.0286456 0.0293361
0.358942 -0.0301127 -0.0308385
0.132001 -0.0772543 -0.0791165
-0.145866 -0.0945906 -0.0968709
-0.367458 -0.0754335 -0.0772516
-0.447279 -0.027174 -0.0278291
-0.354445 0.0315121 0.0322718
-0.120387 0.0752416 0.0770553
0.0814695 0.145811 0.0568041
0.2211 0.122092 0.047564
0.272401 0.0458484 0.0178613
0.218543 -0.0481964 -0.0187762
0.0803691 -0.123648 -0.0481702
-0.0888111 -0.151397 -0.0589801
-0.223727 -0.120734 -0.0470348
-0.272328 -0.0434931 -0.0169438
-0.215805 0.0504364 0.0196487
-0.0732977 0.120427 0.0469153
-0.00230092 0.144266 -0.0016043
-0.00624444 0.120799 -0.00134333
-0.00769326 0.0453627 -0.000504453
-0.00617225 -0.0476857 0.000530289
-0.00226984 -0.122338 0.00136046
0.00250826 -0.149792 0.00166576
0.00631866 -0.119454 0.00132839
0.00769122 -0.0430322 0.000478538
0.00609491 0.049902 -0.000554933
0.00207012 0.119151 -0.00132501
-0.0851836 0.0870618 -0.0593937
-0.23118 0.0728997 -0.0497324
-0.284817 0.0273755 -0.0186757
-0.228506 -0.0287775 0.0196321
-0.0840333 -0.073829 0.0503663
0.0928599 -0.090397 0.0616689
0.233927 -0.0720888 0.0491793
0.284742 -0.0259692 0.0177162
0.225643 0.030115 -0.0205445
0.0766392 0.0719055 -0.0490541
-0.135202 -0.00373127 -0.0942686
-0.366922 -0.00312292 -0.0789337
-0.452055 -0.0011727 -0.0296414
-0.362679 0.00123276 0.0311595
-0.133375 0.00316266 0.0799399
0.147385 0.00387238 0.0978794
0.371281 0.00308811 0.0780554
0.451935 0.00111246 0.0281188
0.358133 -0.00129011 -0.0326076
0.12164 -0.0030817 -0.0778578
-0.133058 -0.0930846 -0.092774
-0.360945 -0.0778531 -0.0776495
-0.444688 -0.0292343 -0.0291586
-0.356767 0.0307315 0.0306519
-0.131201 0.0788418 0.0786376
0.144983 0.0965344 0.0962845
0.365233 0.0769835 0.0767842
0.44457 0.0277324 0.0276607
0.352299 -0.0321626 -0.0320776
0.119712 -0.0768798 -0.0766233
-0.0795797 -0.146525 -0.0554864
-0.208037 -0.11826 -0.0447829
-0.256232 -0.0443692 -0.0168018
-0.20557 0.0466397 0.0176616
-0.0755986 0.119655 0.045311
0.0835396 0.146506 0.0554791
0.210448 0.116834 0.0442429
0.256163 0.0420869 0.0159375
0.20305 -0.0488978 -0.0185167
0.0715974 -0.121017 -0.045827
0 -0.372147 0
0 -0.315983 0
0 -0.118551 0
0 0.124618 0
0 0.319709 0
0 0.391454 0
0 0.312173 0
0 0.112453 0
0 -0.130652 0
0 -0.307361 0
0.0507403 -0.22857 -0.186951
0.137704 -0.191624 -0.15654
0.169654 -0.07196 -0.0587844
0.136112 0.0756457 0.0617949
0.0500549 0.194069 0.158535
-0.0553128 0.237619 0.194112
-0.13934 0.189494 0.154798
-0.169609 0.0682636 0.0557645
-0.134406 -0.0791588 -0.064667
-0.0456508 -0.188779 -0.154405
0.0819046 0.00319112 -0.301775
0.222281 0.00266613 -0.252686
0.273855 0.00100111 -0.0948892
0.21971 -0.00105238 0.099749
0.0807982 -0.0026999 0.255907
-0.0892855 -0.00330581 0.313333
-0.224922 -0.00263626 0.249875
-0.273783 -0.000949678 0.090015
-0.216957 0.00110146 -0.104385
-0.0736891 0.00263559 -0.24924
0.0814695 0.233721 -0.300172
0.2211 0.195703 -0.251344
0.272401 0.0734905 -0.0943851
0.218543 -0.0772543 0.0992193
0.0803691 -0.198197 0.254547
-0.0888111 -0.242674 0.311669
-0.223727 -0.193525 0.248547
-0.272328 -0.0697153 0.0895366
-0.215805 0.0808447 -0.10383
-0.0732977 0.193033 -0.247916
0.0496029 0.374079 -0.18276
0.134617 0.313228 -0.153032
0.165852 0.117624 -0.0574665
0.13306 -0.123648 0.0604099
0.0489331 -0.317221 0.154982
-0.0540728 -0.388408 0.189761
-0.136217 -0.309744 0.151329
-0.165808 -0.111582 0.0545145
-0.131393 0.129395 -0.0632173
-0.0446274 0.308957 -0.150944
-0.00140092 0.370115 0.00516163
-0.00380196 0.30991 0.00432202
-0.00468407 0.116378 0.00162301
-0.00375796 -0.122338 -0.00170613
-0.00138199 -0.313859 -0.00437709
0.00152717 -0.384292 -0.00535933
0.00384712 -0.306463 -0.00427393
0.00468283 -0.1104 -0.00153964
0.00371089 0.128024 0.00178543
0.0012604 0.305683 0.00426306
-0.0518642 0.223358 0.191092
-0.140754 0.187025 0.160008
-0.173412 0.070232 0.0600865
-0.139126 -0.073829 -0.0631637
-0.0511637 -0.189409 -0.162047
0.0565381 -0.231913 -0.198412
0.142427 -0.184944 -0.158227
0.173366 -0.0666243 -0.0569999
0.137383 0.0772603 0.0660993
0.046662 0.184474 0.157825
-0.0823179 -0.00957261 0.303298
-0.223401 -0.00801189 0.253959
-0.275235 -0.00300858 0.0953673
-0.220817 0.00316266 -0.100252
-0.0812055 0.00811383 -0.257197
0.0897356 0.00993464 -0.314912
0.226056 0.0079226 -0.251134
0.275162 0.00285403 -0.0904686
0.218051 -0.00330979 0.104911
0.074061 -0.00790615 0.250498
-0.0810127 -0.23881 0.298489
-0.219762 -0.199733 0.249827
-0.27075 -0.075001 0.0938139
-0.217218 0.0788418 -0.0986189
-0.0798821 0.20227 -0.253007
0.088273 0.24766 -0.309783
0.222372 0.197503 -0.247043
0.270678 0.0711478 -0.0889946
0.214498 -0.0825134 0.103205
0.0728867 -0.197236 0.246526
-0.0484523 -0.375912 0.178521
-0.126664 -0.303398 0.144083
-0.156007 -0.11383 0.0540577
-0.125162 0.119655 -0.056824
-0.0460284 0.306975 -0.145782
0.0508633 0.375862 -0.178497
0.128131 0.299739 -0.142346
0.155966 0.107974 -0.051277
0.123627 -0.125448 0.0595752
0.0435922 -0.310471 0.147443
0 -0.455659 0
0 -0.386891 0
0 -0.145155 0
0 0.152583 0
0 0.391454 0
0 0.479298 0
0 0.382226 0
0 0.137688 0
0 -0.159971 0
0 -0.376335 0
-0.00143304 -0.279862 -0.359881
-0.00388913 -0.234626 -0.301342
-0.00479149 -0.0881082 -0.11316
-0.00384413 0.0926207 0.118955
-0.00141369 0.237619 0.305183
0.00156217 0.290943 0.373666
0.00393535 0.232018 0.297988
0.00479022 0.0835825 0.107347
0.00379599 -0.0969225 -0.124484
0.0012893 -0.231142 -0.297231
-0.0023132 0.00390723 -0.580918
-0.0062778 0.00326441 -0.486422
-0.00773436 0.00122578 -0.182663
-0.00620518 -0.00128855 0.192017
-0.00228196 -0.00330581 0.492622
0.00252166 -0.00404763 0.603172
0.0063524 -0.00322786 0.48101
0.0077323 -0.00116279 0.173279
0.00612748 0.00134864 -0.200941
0.00208118 0.00322703 -0.479788
-0.00230092 0.286169 -0.577832
-0.00624444 0.239619 -0.483839
-0.00769326 0.0899826 -0.181693
-0.00617225 -0.0945906 0.190997
-0.00226984 -0.242674 0.490005
0.00250826 -0.297131 0.599967
0.00631866 -0.236953 0.478455
0.00769122 -0.0853598 0.172358
0.00609491 0.098987 -0.199874
0.00207012 0.236351 -0.477239
-0.00140092 0.458025 -0.351814
-0.00380196 0.38352 -0.294586
-0.00468407 0.14402 -0.110623
-0.00375796 -0.151397 0.116289
-0.00138199 -0.388408 0.298341
0.00152717 -0.475569 0.365291
0.00384712 -0.379253 0.291308
0.00468283 -0.136622 0.104941
0.00371089 0.158432 -0.121694
0.0012604 0.378289 -0.290568
3.95656e-05 0.453171 0.00993617
0.000107376 0.379456 0.00831988
0.000132291 0.142494 0.00312429
0.000106135 -0.149792 -0.00328433
3.90312e-05 -0.384292 -0.00842592
-4.31307e-05 -0.47053 -0.0103168
-0.000108654 -0.375234 -0.00822735
-0.000132256 -0.135174 -0.00296381
-0.000104805 0.156753 0.00343695
-3.5597e-05 0.37428 0.00820642
0.00146478 0.273481 0.367853
0.00397526 0.228995 0.308016
0.00489762 0.0859925 0.115667
0.0039293 -0.090397 -0.121591
0.001445 -0.231913 -0.311941
-0.00159678 -0.283956 -0.381943
-0.00402253 -0.226448 -0.30459
-0.00489632 -0.0815752 -0.109725
-0.00388007 0.094598 0.127242
-0.00131786 0.225872 0.303815
0.00232488 -0.0117208 0.583849
0.00630945 -0.00980979 0.488873
0.00777336 -0.00368373 0.183583
0.00623644 0.00387238 -0.192985
0.00229346 0.00993464 -0.495104
-0.00253436 0.0121641 -0.606212
-0.00638441 0.00970045 -0.483435
-0.00777129 0.00349449 -0.174152
-0.00615835 -0.00405252 0.201954
-0.00209168 -0.00968034 0.482209
0.00228802 -0.2924 0.574592
0.00620667 -0.244554 0.480918
0.00764666 -0.0918317 0.180593
0.00613487 0.0965344 -0.189841
0.00225609 0.24766 -0.48704
-0.00249306 0.303238 -0.596335
-0.00628036 0.241823 -0.475559
-0.00764464 0.0871139 -0.171315
-0.006058 -0.10103 0.198671
-0.00205852 -0.241497 0.474564
0.00136842 -0.46027 0.343653
0.00357732 -0.371482 0.277361
0.00440606 -0.139374 0.104061
0.00353491 0.146506 -0.109386
0.00129996 0.375862 -0.280632
-0.00143651 0.460208 -0.343608
-0.00361877 0.367003 -0.274017
-0.00440488 0.132204 -0.0987085
-0.00349156 -0.153599 0.114682
-0.00123116 -0.380143 0.283828
0 -0.363374 0
0 -0.308534 0
0 -0.115757 0
0 0.121681 0
0 0.312173 0
0 0.382226 0
0 0.304814 0
0 0.109802 0
0 -0.127572 0
0 -0.300116 0
-0.0530535 -0.223182 -0.393967
-0.143982 -0.187107 -0.329882
-0.177388 -0.0702637 -0.123878
-0.142316 0.0738623 0.130222
-0.0523369 0.189494 0.334088
0.0578344 0.232018 0.409058
0.145693 0.185028 0.326212
0.177341 0.0666544 0.117514
0.140533 -0.0772929 -0.136275
0.0477319 -0.184329 -0.325383
-0.0856385 0.0031159 -0.635938
-0.232415 0.00260328 -0.532493
-0.286339 0.00097752 -0.199963
-0.229726 -0.00102758 0.210204
-0.0844818 -0.00263626 0.53928
0.0933558 -0.00322786 0.660299
0.235176 -0.00257413 0.526568
0.286263 -0.000927301 0.189691
0.226848 0.0010755 -0.219973
0.0770485 0.00257346 -0.52523
-0.0851836 0.228212 -0.63256
-0.23118 0.191089 -0.529664
-0.284817 0.0717582 -0.198901
-0.228506 -0.0754335 0.209087
-0.0840333 -0.193525 0.536415
0.0928599 -0.236953 0.656791
0.233927 -0.188963 0.523771
0.284742 -0.0680722 0.188683
0.225643 0.0789389 -0.218805
0.0766392 0.188483 -0.52244
-0.0518642 0.365261 -0.385136
-0.140754 0.305847 -0.322487
-0.173412 0.114852 -0.121101
-0.139126 -0.120734 0.127303
-0.0511637 -0.309744 0.326597
0.0565381 -0.379253 0.399888
0.142427 -0.302444 0.318899
0.173366 -0.108952 0.11488
0.137384 0.126345 -0.13322
0.046662 0.301674 -0.318089
0.00146478 0.361391 0.0108773
0.00397526 0.302606 0.0091079
0.00489762 0.113635 0.0034202
0.0039293 -0.119454 -0.00359538
0.001445 -0.306463 -0.00922396
-0.00159678 -0.375234 -0.011294
-0.00402253 -0.299238 -0.00900658
-0.00489632 -0.107797 -0.00324452
-0.00388007 0.125006 0.00376247
-0.00131786 0.298477 0.00898368
0.0542287 0.218093 0.402694
0.147171 0.182617 0.33719
0.181318 0.0685767 0.126622
0.145469 -0.0720888 -0.133107
0.0534962 -0.184944 -0.341486
-0.0591156 -0.226448 -0.418119
-0.14892 -0.180585 -0.333439
-0.18127 -0.0650538 -0.120117
-0.143646 0.0754392 0.139293
-0.0487892 0.180126 0.33259
0.0860707 -0.00934697 0.639148
0.233586 -0.00782304 0.535176
0.287782 -0.00293766 0.20097
0.230883 0.00308811 -0.211264
0.0849075 0.0079226 -0.541999
-0.0938264 0.00970045 -0.663628
-0.236362 0.00773581 -0.529222
-0.287706 0.00278674 -0.190647
-0.227992 -0.00323176 0.221082
-0.0774374 -0.00771978 0.527881
0.084706 -0.23318 0.629014
0.22978 -0.195025 0.526467
0.283092 -0.0732331 0.197697
0.227122 0.0769835 -0.207822
0.0835243 0.197503 -0.533169
-0.0922973 0.241823 -0.652816
-0.232509 0.192846 -0.5206
-0.283017 0.0694708 -0.187541
-0.224277 -0.0805684 0.217487
-0.0762096 -0.192587 0.519511
0.0506612 -0.367051 0.376202
0.132438 -0.296246 0.303631
0.163119 -0.111146 0.113917
0.130868 0.116834 -0.119747
0.0481268 0.299739 -0.307212
-0.0531821 0.367003 -0.376152
-0.133973 0.292674 -0.29997
-0.163076 0.105429 -0.108057
-0.129263 -0.122491 0.125544
-0.0455796 -0.303153 0.31071
0 -0.130897 0
0 -0.111143 0
0 -0.0416988 0
0 0.0438327 0
0 0.112453 0
0 0.137688 0
0 0.109802 0
0 0.0395539 0
0 -0.0459549 0
0 -0.10811 0
-0.0842055 -0.0803963 -0.276057
-0.228524 -0.0674033 -0.231153
-0.281545 -0.0253118 -0.0868033
-0.225881 0.0266082 0.0912494
-0.083068 0.0682636 0.2341
0.0917933 0.0835825 0.286634
0.231239 0.0666544 0.228583
0.28147 0.0240115 0.0823444
0.22305 -0.0278439 -0.0954897
0.0757592 -0.0664003 -0.227999
-0.135924 0.00112243 -0.445609
-0.368882 0.0009378 -0.373126
-0.45447 0.00035214 -0.140117
-0.364616 -0.000370171 0.147293
-0.134087 -0.000949679 0.377882
0.148172 -0.00116279 0.462682
0.373264 -0.000927301 0.368975
0.454349 -0.00033405 0.13292
0.360047 0.000387436 -0.154139
0.12229 0.000927033 -0.368035
-0.135202 0.0822081 -0.443242
-0.366922 0.068838 -0.371144
-0.452055 0.0258501 -0.139373
-0.362679 -0.0271741 0.146511
-0.133375 -0.0697153 0.375875
0.147385 -0.0853599 0.460224
0.371281 -0.0680722 0.367016
0.451935 -0.0245223 0.132213
0.358133 0.0284369 -0.15332
0.12164 0.0678967 -0.36608
-0.0823179 0.131577 -0.269869
-0.223401 0.110178 -0.225972
-0.275235 0.0413743 -0.0848574
-0.220817 -0.0434932 0.0892035
-0.0812055 -0.111582 0.228853
0.0897356 -0.136622 0.280208
0.226056 -0.108952 0.223458
0.275162 -0.0392488 0.0804983
0.218051 0.0455145 -0.0933492
0.074061 0.108671 -0.222888
0.00232488 0.130183 0.00762181
0.00630945 0.10901 0.00638205
0.00777336 0.0409358 0.0023966
0.00623644 -0.0430323 -0.00251934
0.00229346 -0.1104 -0.00646338
-0.00253436 -0.135174 -0.00791382
-0.00638441 -0.107797 -0.00631105
-0.00777129 -0.0388329 -0.00227349
-0.00615835 0.0450322 0.00263644
-0.00209168 0.10752 0.00629496
0.0860707 0.0785631 0.282172
0.233586 0.0657857 0.236274
0.287782 0.0247041 0.088726
0.230883 -0.0259692 -0.0932701
0.0849075 -0.0666244 -0.239285
-0.0938264 -0.0815753 -0.292983
-0.236362 -0.0650539 -0.233645
-0.287706 -0.023435 -0.0841685
-0.227992 0.0271761 0.097605
-0.0774374 0.0648863 0.23305
0.13661 -0.00336703 0.447858
0.37074 -0.00281816 0.375007
0.45676 -0.00105826 0.140823
0.366452 0.00111246 -0.148036
0.134763 0.00285403 -0.379787
-0.148919 0.00349449 -0.465014
-0.375146 0.00278674 -0.370834
-0.456639 0.0010039 -0.133589
-0.361861 -0.00116421 0.154916
-0.122907 -0.00278088 0.369892
0.134444 -0.083998 0.440757
0.364701 -0.0702556 0.368904
0.449317 -0.0263815 0.138529
0.360481 0.0277325 -0.145624
0.132567 0.0711478 -0.3736
-0.146492 0.0871141 -0.457439
-0.369032 0.0694709 -0.364795
-0.449197 0.0250261 -0.131413
-0.355965 -0.0290238 0.152397
-0.120958 -0.0693751 0.364027
0.0804084 -0.132222 0.263609
0.210203 -0.106716 0.212758
0.2589 -0.040038 0.0798231
0.207711 0.0420869 -0.0839079
0.0763859 0.107974 -0.215267
-0.0844096 0.132204 -0.263574
-0.212639 0.105429 -0.210192
-0.258831 0.0379785 -0.0757171
-0.205164 -0.0441246 0.0879704
-0.0723431 -0.109204 0.217718
0 0.152081 0
0 0.129129 0
0 0.0484469 0
0 -0.0509261 0
0 -0.130652 0
0 -0.159971 0
0 -0.127572 0
0 -0.0459549 0
0 0.0533918 0
0 0.125605 0
-0.0828704 0.0934068 -0.0516425
-0.224801 0.0781647 -0.0433601
-0.276958 0.029351 -0.0162843
-0.222199 -0.0308541 0.0171185
-0.081714 -0.0791564 0.0439174
0.0902975 -0.0969196 0.0537728
0.227472 -0.0772906 0.0428822
0.276884 -0.027843 0.015448
0.219417 0.0322916 -0.0179103
0.0745581 0.0771459 -0.0426523
-0.133769 -0.00130408 -0.083361
-0.362873 -0.00108771 -0.0699916
-0.447063 -0.000408406 -0.0262861
-0.358673 0.000429319 0.0276324
-0.131902 0.00110142 0.0708912
0.145757 0.00134859 0.0867996
0.367183 0.00107546 0.0692202
0.446944 0.000387422 0.024936
0.354181 -0.000449395 -0.0289106
0.120351 -0.00107705 -0.068849
-0.133058 -0.0955118 -0.0829182
-0.360945 -0.0798302 -0.0696198
-0.444688 -0.0299761 -0.0261464
-0.356767 0.0315112 0.0274856
-0.131201 0.0808421 0.0705146
0.144983 0.0989839 0.0863385
0.365233 0.0789365 0.0688526
0.44457 0.028436 0.0248036
0.352299 -0.0329803 -0.0287571
0.119712 -0.0788845 -0.0684833
-0.0810127 -0.15287 -0.0504849
-0.219762 -0.127772 -0.0423882
-0.27075 -0.0479778 -0.0159193
-0.217218 0.0504348 0.0167347
-0.0798821 0.129391 0.042933
0.088273 0.158427 0.0525675
0.222372 0.126341 0.0419211
0.270678 0.0455131 0.0151017
0.214498 -0.0527862 -0.0175088
0.0728867 -0.126258 -0.0416962
0.00228802 -0.15125 0.00142583
0.00620667 -0.126418 0.00119716
0.00764666 -0.0474694 0.000449603
0.00613487 0.0499004 -0.000472632
0.00225609 0.12802 -0.00121254
-0.00249306 0.156748 -0.00148464
-0.00628036 0.125002 -0.00118396
-0.00764464 0.0450307 -0.000426511
-0.006058 -0.0522267 0.000494495
-0.00205852 -0.12492 0.00117761
0.084706 -0.091277 0.0527865
0.22978 -0.076291 0.0443207
0.283092 -0.028647 0.016645
0.227122 0.030114 -0.0174976
0.0835243 0.0772579 -0.0448903
-0.0922973 0.094595 -0.0549639
-0.232509 0.0754369 -0.0438321
-0.283017 0.0271752 -0.0157901
-0.224277 -0.031518 0.018307
-0.0762096 -0.0753869 0.0435971
0.134444 0.00391192 0.0837817
0.364701 0.00326832 0.0703443
0.449317 0.00122722 0.0264186
0.360481 -0.00129007 -0.0277716
0.132567 -0.00330969 -0.0712484
-0.146492 -0.0040524 -0.0872371
-0.369032 -0.00323166 -0.0695689
-0.449197 -0.00116417 -0.0250616
-0.355965 0.00135026 0.0290563
-0.120958 0.00323091 0.0691965
0.132312 0.0975914 0.0824533
0.358763 0.0814815 0.0691964
0.441997 0.0305948 0.0259869
0.354608 -0.0321616 -0.0273179
0.130407 -0.0825109 -0.0700843
-0.144105 -0.101027 -0.0858117
-0.363023 -0.080566 -0.0684324
-0.44188 -0.0290229 -0.0246522
-0.350169 0.0336637 0.0285826
-0.119041 0.0806021 0.0680993
0.0791336 0.15362 0.0493138
0.20687 0.123986 0.039801
0.254795 0.0465174 0.0149327
0.204418 -0.0488978 -0.0156968
0.0751748 -0.125448 -0.0402704
-0.0830713 -0.153599 -0.0493073
-0.209268 -0.122491 -0.0393211
-0.254727 -0.0441246 -0.0141645
-0.201911 0.0512652 0.0164568
-0.071196 0.126877 0.040729
0 0.376385 0
0 0.303779 0
0 0.113973 0
0 -0.119805 0
0 -0.307361 0
0 -0.376335 0
0 -0.300116 0
0 -0.10811 0
0 0.125605 0
0 0.310861 0
-0.0495633 0.231173 0.192696
-0.129568 0.186579 0.155524
-0.159584 0.0700011 0.0583501
-0.128032 -0.0735833 -0.0613361
-0.0470838 -0.188779 -0.157358
0.0520296 -0.231142 -0.192671
0.13107 -0.184329 -0.153649
0.159542 -0.0664004 -0.0553487
0.126462 0.0771459 0.0643058
0.0445918 0.190929 0.159151
-0.0800047 -0.00322746 0.311049
-0.209148 -0.00260487 0.251046
-0.2576 -0.000977304 0.0941884
-0.206668 0.00102732 -0.0990083
-0.0760024 0.00263559 -0.254007
0.0839857 0.00322703 -0.311008
0.211571 0.00257346 -0.248019
0.257531 0.000927033 -0.0893434
0.204134 -0.00107705 0.103802
0.0719798 -0.00266561 0.2569
-0.0795797 -0.236383 0.309397
-0.208037 -0.190783 0.249713
-0.256231 -0.0715787 0.093688
-0.20557 0.0752416 -0.0984823
-0.0755986 0.193033 -0.252658
0.0835396 0.236351 -0.309355
0.210448 0.188483 -0.246702
0.256163 0.0678968 -0.0888688
0.203049 -0.0788845 0.10325
0.0715974 -0.195232 0.255535
-0.0484523 -0.37834 0.188377
-0.126663 -0.305356 0.152038
-0.156007 -0.114564 0.0570421
-0.125162 0.120427 -0.0599612
-0.0460284 0.308957 -0.153831
0.0508632 0.378289 -0.188352
0.128131 0.301674 -0.150205
0.155966 0.108671 -0.054108
0.123627 -0.126258 0.0628643
0.0435922 -0.312476 0.155583
0.00136842 -0.37433 -0.00532026
0.00357731 -0.30212 -0.00429396
0.00440605 -0.11335 -0.00161102
0.00353491 0.119151 0.00169346
0.00129996 0.305683 0.0043446
-0.00143651 0.37428 0.00531955
-0.00361877 0.298478 0.00424219
-0.00440488 0.10752 0.00152815
-0.00349156 -0.12492 -0.00177545
-0.00123116 -0.309164 -0.00439408
0.0506612 -0.225902 -0.196965
0.132438 -0.182324 -0.158969
0.163119 -0.068405 -0.0596426
0.130868 0.0719055 0.0626948
0.0481268 0.184474 0.160844
-0.053182 0.225872 0.196939
-0.133973 0.180126 0.157053
-0.163076 0.0648863 0.0565747
-0.129263 -0.0753869 -0.0657302
-0.0455796 -0.186575 -0.162676
0.0804084 0.00968163 -0.312619
0.210203 0.007814 -0.252313
0.2589 0.00293168 -0.0946637
0.207711 -0.00308171 0.0995079
0.0763859 -0.00790615 0.255289
-0.0844095 -0.00968034 0.312577
-0.212639 -0.00771978 0.249271
-0.258831 -0.00278088 0.0897943
-0.205164 0.00323091 -0.104326
-0.0723431 0.00799619 -0.258196
0.0791336 0.241529 -0.307662
0.20687 0.194937 -0.248313
0.254795 0.0731372 -0.0931628
0.204418 -0.0768799 0.0979302
0.0751748 -0.197236 0.251241
-0.0830712 -0.241497 0.307621
-0.209268 -0.192587 0.245319
-0.254727 -0.0693751 0.0883706
-0.201911 0.0806021 -0.102672
-0.071196 0.199482 -0.254102
0.0473284 0.380194 -0.184007
0.123725 0.306853 -0.148511
0.152388 0.115126 -0.055719
0.122259 -0.121017 0.0585703
0.0449607 -0.310471 0.150263
-0.0496834 -0.380143 0.183983
-0.125159 -0.303153 0.146721
-0.152348 -0.109204 0.0528529
-0.120759 0.126877 -0.061406
-0.0425811 0.314007 -0.151974
