# vtk DataFile Version 3.0
Velocity field
ASCII
DATASET STRUCTURED_POINTS
DIMENSIONS 8 8 8
SPACING 0.8 0.8 0.8
ORIGIN 0 0 0
POINT_DATA 512
VECTORS velocity float
0 0.233447 0
0 0.162644 0
0 -0.00681655 0
0 -0.172142 0
0 -0.233049 0
0 -0.152591 0
0 0.0204264 0
0 0.181054 0
0 0.0918412 0.238268
0 0.0639864 0.176002
0 -0.00268172 -0.00737639
0 -0.0677231 -0.186281
0 -0.0916846 -0.252189
0 -0.0600314 -0.165124
0 0.00803603 0.0221041
0 0.0712289 0.184792
0 -0.105474 0.332005
0 -0.0734847 0.245244
0 0.0030798 -0.0102784
0 0.0777761 -0.259566
0 0.105294 -0.351404
0 0.0689426 -0.230085
0 -0.00922892 0.0308001
0 -0.0818023 0.257492
0 -0.238811 0.224353
0 -0.166381 0.165724
0 0.00697316 -0.00694562
0 0.176097 -0.175402
0 0.238403 -0.237462
0 0.156097 -0.15548
0 -0.0208957 0.0208132
0 -0.185213 0.174001
0 -0.227288 -0.0193888
0 -0.158353 -0.014322
0 0.00663669 0.000600247
0 0.1676 0.0151584
0 0.2269 0.0205217
0 0.148565 0.0134368
0 -0.0198875 -0.0017987
0 -0.176276 -0.0150373
0 -0.0778949 -0.25137
0 -0.0542699 -0.18568
0 0.0022745 0.00778201
0 0.0574392 0.196524
0 0.0777621 0.266057
0 0.0509155 0.174204
0 -0.00681574 -0.0233195
0 -0.0604126 -0.194954
0 0.118748 -0.330873
0 0.0827324 -0.244407
0 -0.00346738 0.0102433
0 -0.0875639 0.258681
0 -0.118545 0.350206
0 -0.0776187 0.229301
0 0.0103903 -0.030695
0 0.0920967 -0.256614
0 0.24336 -0.209673
0 0.16955 -0.146081
0 -0.00710599 0.00612237
0 -0.179452 0.154612
0 -0.242945 0.209316
0 -0.15907 0.137052
0 0.0212938 -0.0183462
0 0.188741 -0.162615
0 0.162644 0
0 0.123027 0
0 -0.00515616 0
0 -0.130212 0
0 -0.176282 0
0 -0.115423 0
0 0.0154509 0
0 0.126141 0
0.0507909 0.0639864 0.235344
0.124 0.0455385 0.167307
0.120981 -0.00190898 -0.00701349
0.0445703 -0.0482076 -0.177112
-0.0588769 -0.0652643 -0.239775
-0.12661 -0.0427323 -0.156996
-0.117538 0.00571332 0.0209914
-0.0364435 0.0496256 0.182524
0.0707728 -0.0734847 0.327931
0.172785 -0.0522067 0.233127
0.168578 0.00218847 -0.00977264
0.0621043 0.0552655 -0.246788
-0.0820409 0.0748192 -0.334109
-0.176422 0.0489886 -0.218761
-0.163781 -0.00655041 0.0292497
-0.0507809 -0.0569922 0.254332
0.0478248 -0.166381 0.2216
0.116759 -0.118205 0.157536
0.113917 0.00495511 -0.00660389
0.0419672 0.125131 -0.166769
-0.0554391 0.169404 -0.225774
-0.119216 0.110919 -0.147827
-0.110675 -0.0148312 0.0197655
-0.0343152 -0.129039 0.171865
-0.00413306 -0.158353 -0.0191509
-0.0100905 -0.112501 -0.0136144
-0.00984481 0.004716 0.000570713
-0.00362684 0.119093 0.0144124
0.00479108 0.161231 0.0195115
0.0103029 0.105568 0.0127754
0.00956458 -0.0141156 -0.00170816
0.00296556 -0.122813 -0.0148528
-0.0535839 -0.0542699 -0.248285
-0.13082 -0.0385562 -0.176507
-0.127634 0.00161625 0.00739911
-0.0470208 0.0408154 0.18685
0.0621146 0.0552562 0.25296
0.133573 0.0361795 0.165629
0.124001 -0.00483767 -0.0221458
0.0384475 -0.0420899 -0.192561
-0.0705314 0.0827324 -0.326813
-0.172182 0.0587616 -0.232313
-0.167989 -0.00246326 0.0097385
-0.0618874 -0.0622047 0.245926
0.0817542 -0.0842132 0.33294
0.175804 -0.0551395 0.217996
0.163209 0.00737301 -0.0291477
0.0506077 0.0641644 -0.253465
-0.0446955 0.16955 -0.2071
-0.106975 0.118127 -0.144288
-0.104365 -0.00495079 0.00604723
-0.0384483 -0.125025 0.152714
0.0507904 -0.169261 0.206747
0.10922 -0.110825 0.13537
0.101399 0.0148355 -0.0181211
0.03207 0.131497 -0.16062
0 -0.00681655 0
0 -0.00515616 0
0 0.000216099 0
0 0.00545727 0
0 0.00738814 0
0 0.00483746 0
0 -0.00064756 0
0 -0.00528668 0
0.0707728 -0.00268172 0.0896633
0.172785 -0.00190898 0.0637135
0.168578 8.00255e-05 -0.00267085
0.0621043 0.00202088 -0.0674472
-0.0820409 0.0027359 -0.0913102
-0.176422 0.00179137 -0.0597864
-0.163781 -0.000239499 0.00799406
-0.0507809 -0.00207985 0.0695398
0.0986157 0.0030798 0.124938
0.240759 0.00218847 0.0887794
0.234897 -9.17394e-05 -0.00372157
0.0865377 -0.0023167 -0.0939811
-0.114317 -0.00313639 -0.127233
-0.245826 -0.0020536 -0.0833082
-0.228214 0.000274586 0.0111391
-0.0707588 0.00238859 0.0968976
0.0666397 0.00697316 0.084427
0.162695 0.00495511 0.0599924
0.158734 -0.000207717 -0.00251488
0.0584773 -0.00524547 -0.063508
-0.0772494 -0.00710143 -0.0859784
-0.166119 -0.00464968 -0.0562955
-0.154215 0.000621711 0.0075272
-0.0478153 0.00540814 0.0654787
-0.00575907 0.00663669 -0.00729627
-0.0140603 0.004716 -0.00518466
-0.0137179 -0.000197693 0.000217338
-0.00505372 -0.00499238 0.00548845
0.00667599 -0.00675876 0.00743028
0.0143562 -0.00442535 0.00486508
0.0133275 0.000591711 -0.000650513
0.00413225 0.00514719 -0.00565873
-0.0746645 0.0022745 -0.0945937
-0.182285 0.00161625 -0.0672169
-0.177848 -6.77529e-05 0.00281772
-0.0655197 -0.00171097 0.0711552
0.086552 -0.00231631 0.0963316
0.186121 -0.00151663 0.063074
0.172787 0.000202789 -0.00843366
0.0535732 0.00176402 -0.0733636
-0.0982794 -0.00346738 -0.124512
-0.239918 -0.00246326 -0.088469
-0.234077 0.000103258 0.00370858
-0.0862354 0.00260759 0.093653
0.113917 0.0035302 0.126789
0.244967 0.00231143 0.0830169
0.227416 -0.000309068 -0.0111002
0.0705174 -0.00268918 -0.0965672
-0.0622794 -0.00710599 -0.0789028
-0.14906 -0.00495079 -0.0549721
-0.145423 0.000207492 0.00230393
-0.0535744 0.00523991 0.0581825
0.070772 0.00709387 0.0787683
0.152189 0.00464478 0.0515743
0.14129 -0.000621768 -0.00690393
0.0446867 -0.00551116 -0.0611943
0 -0.172142 0
0 -0.130212 0
0 0.00545727 0
0 0.137816 0
0 0.186577 0
0 0.122163 0
0 -0.0163532 0
0 -0.133508 0
0.0478248 -0.0677231 -0.110406
0.116759 -0.0482076 -0.0784523
0.113917 0.00202088 0.00328869
0.0419672 0.0510333 0.0830498
-0.0554391 0.0690898 0.112434
-0.119216 0.0452369 0.0736166
-0.110675 -0.00604808 -0.00984332
-0.0343152 -0.0525237 -0.0856269
0.0666397 0.0777761 -0.153841
0.162695 0.0552655 -0.109316
0.158734 -0.0023167 0.00458247
0.0584773 -0.0585036 0.115723
-0.0772494 -0.0792039 0.156666
-0.166119 -0.0518595 0.102579
-0.154215 0.00693414 -0.0137158
-0.0478153 0.0603205 -0.119314
0.0450319 0.176097 -0.103958
0.109941 0.125131 -0.0738704
0.107264 -0.00524547 0.00309661
0.0395165 -0.132464 0.0781994
-0.0522014 -0.179333 0.105868
-0.112255 -0.117418 0.0693179
-0.104211 0.0157001 -0.00926845
-0.0323113 0.136575 -0.0806263
-0.0038917 0.1676 0.00898416
-0.00950116 0.119093 0.00638397
-0.00926981 -0.00499238 -0.000267614
-0.00341507 -0.126072 -0.00675809
0.00451126 -0.170679 -0.00914911
0.00970114 -0.111754 -0.00599049
0.00900598 0.0149425 0.00080099
0.00279237 0.129985 0.00696781
-0.0504546 0.0574392 0.116477
-0.123179 0.0408154 0.0827664
-0.12018 -0.00171097 -0.00346953
-0.0442752 -0.0432071 -0.0876163
0.058487 -0.0584938 -0.118615
0.125772 -0.0382997 -0.077665
0.116759 0.00512107 0.0103846
0.0362022 0.0445479 0.0903354
-0.0664124 -0.0875639 0.153316
-0.162127 -0.0622047 0.108935
-0.158179 0.00260759 -0.00456647
-0.058273 0.0658494 -0.115318
0.0769795 0.0891483 -0.156119
0.165538 0.0583703 -0.10222
0.153677 -0.00780492 0.013668
0.0476522 -0.0679115 0.118907
-0.0420854 -0.179452 0.097156
-0.100728 -0.125025 0.0676892
-0.0982699 0.00523991 -0.00283691
-0.0362029 0.132327 -0.0716422
0.0478242 0.179146 -0.0969903
0.102842 0.117298 -0.0635054
0.095477 -0.0157019 0.00850107
0.0301971 -0.139177 0.0753508
0 -0.233049 0
0 -0.176282 0
0 0.00738814 0
0 0.186577 0
0 0.252591 0
0 0.165386 0
0 -0.0221392 0
0 -0.180745 0
-0.00413306 -0.0916846 -0.243504
-0.0100905 -0.0652643 -0.173029
-0.00984481 0.0027359 0.00725332
-0.00362685 0.0690898 0.183167
0.00479108 0.0935344 0.247975
0.0103029 0.0612425 0.162365
0.00956458 -0.00818801 -0.0217099
0.00296556 -0.0711074 -0.188853
-0.00575907 0.105294 -0.339302
-0.0140603 0.0748192 -0.2411
-0.0137179 -0.00313639 0.0101069
-0.00505372 -0.0792039 0.255229
0.00667599 -0.107227 0.345534
0.0143562 -0.0702083 0.226243
0.0133275 0.00938751 -0.0302507
0.00413225 0.0816628 -0.263151
-0.0038917 0.238403 -0.229284
-0.00950116 0.169404 -0.162925
-0.00926981 -0.00710143 0.00682977
-0.00341507 -0.179333 0.172472
0.00451126 -0.242781 0.233492
0.00970114 -0.158964 0.152883
0.00900598 0.0212551 -0.020442
0.00279237 0.184897 -0.177824
0.000336324 0.2269 0.0198149
0.000821105 0.161231 0.0140801
0.000801111 -0.00675876 -0.000590229
0.00029513 -0.170679 -0.0149051
-0.00038987 -0.231069 -0.0201789
-0.000838386 -0.151293 -0.0132123
-0.000778309 0.0202295 0.00176662
-0.00024132 0.175976 0.0153678
0.00436034 0.0777621 0.256894
0.0106453 0.0552562 0.182543
0.0103862 -0.00231631 -0.00765212
0.00382626 -0.0584938 -0.193239
-0.00505456 -0.0791906 -0.261612
-0.0108694 -0.0518508 -0.171293
-0.0100906 0.00693297 0.0229035
-0.00312863 0.0603096 0.199238
0.00573943 -0.118545 0.338144
0.0140111 -0.0842132 0.240258
0.01367 0.0035302 -0.0100716
0.00503608 0.0891483 -0.254338
-0.00665267 0.12069 -0.344327
-0.014306 0.0790232 -0.225452
-0.013281 -0.0105664 0.0301452
-0.00411815 -0.0919397 0.262253
0.00363706 -0.242945 0.214281
0.00870499 -0.169261 0.149291
0.00849259 0.00709387 -0.00625691
0.00312869 0.179146 -0.15801
-0.00413302 0.24253 -0.213916
-0.0088877 0.158799 -0.140064
-0.00825122 -0.0212575 0.0187494
-0.00260966 -0.18842 0.166189
0 -0.152591 0
0 -0.115423 0
0 0.00483746 0
0 0.122163 0
0 0.165386 0
0 0.108288 0
0 -0.0144959 0
0 -0.118345 0
-0.0535839 -0.0600314 -0.228896
-0.13082 -0.0427323 -0.16265
-0.127634 0.00179137 0.00681823
-0.0470208 0.0452369 0.17218
0.0621146 0.0612425 0.233098
0.133573 0.0400995 0.152624
0.124001 -0.00536118 -0.0204075
0.0384475 -0.0465583 -0.177524
-0.0746645 0.0689426 -0.318947
-0.182285 0.0489886 -0.226638
-0.177848 -0.0020536 0.00950053
-0.0655197 -0.0518595 0.239917
0.086552 -0.0702083 0.324806
0.186121 -0.0459693 0.21267
0.172787 0.00614656 -0.0284361
0.0535732 0.0534695 -0.247364
-0.0504546 0.156097 -0.215529
-0.123179 0.110919 -0.153151
-0.12018 -0.00464968 0.00642001
-0.0442752 -0.117418 0.162125
0.058487 -0.158964 0.219487
0.125772 -0.104083 0.143711
0.116759 0.013917 -0.0192156
0.0362022 0.121063 -0.167157
0.00436034 0.148565 0.0186262
0.0106453 0.105568 0.0132355
0.0103862 -0.00442535 -0.000554822
0.00382626 -0.111754 -0.014011
-0.00505456 -0.151293 -0.0189682
-0.0108694 -0.0990607 -0.0124196
-0.0100906 0.0132455 0.00166064
-0.00312863 0.115222 0.0144458
0.0565303 0.0509155 0.241483
0.138013 0.0361795 0.171593
0.134653 -0.00151663 -0.00719316
0.0496063 -0.0382997 -0.181647
-0.0655305 -0.0518508 -0.245916
-0.140918 -0.0339498 -0.161018
-0.130821 0.00453941 0.0215296
-0.0405617 0.0394883 0.187286
0.0744098 -0.0776187 0.317859
0.181648 -0.0551395 0.225845
0.177226 0.00231143 -0.00946735
0.0652908 0.0583703 -0.239079
-0.0862496 0.0790232 -0.323671
-0.185471 0.0517412 -0.211927
-0.172183 -0.00691846 0.0283368
-0.0533905 -0.0601984 0.246521
0.0471533 -0.15907 0.201426
0.112857 -0.110825 0.140335
0.110104 0.00464478 -0.00588156
0.0405625 0.117298 -0.148531
-0.0535833 0.158799 -0.201083
-0.115226 0.103975 -0.131661
-0.106974 -0.0139185 0.0176246
-0.0338334 -0.12337 0.156219
0 0.0204264 0
0 0.0154509 0
0 -0.00064756 0
0 -0.0163532 0
0 -0.0221392 0
0 -0.0144959 0
0 0.00194047 0
0 0.015842 0
-0.0705314 0.00803603 -0.0754428
-0.172182 0.00571323 -0.0536196
-0.167989 -0.000239495 0.00224771
-0.0618874 -0.00604799 0.0567619
0.0817542 -0.00818788 0.0768446
0.175804 -0.0053611 0.0503148
0.163209 0.000716845 -0.0067275
0.0506077 0.00623247 -0.0585108
-0.0982794 -0.00922892 -0.105123
-0.239918 -0.00655031 -0.0747141
-0.234077 0.000274581 0.00313199
-0.0862354 0.00693403 0.0790926
0.113917 0.00938736 0.107077
0.244967 0.00614646 0.0701098
0.227416 -0.00082193 -0.00937417
0.0705174 -0.00715763 -0.0815298
-0.0664124 -0.0208957 -0.071037
-0.162127 -0.014831 -0.0504881
-0.158179 0.000621701 0.00211646
-0.0582731 0.0156998 0.0534469
0.0769795 0.0212547 0.0723568
0.165538 0.0139168 0.0473766
0.153677 -0.00186099 -0.00633459
0.0476522 -0.016206 -0.0550939
0.00573943 -0.0198875 0.00613909
0.0140111 -0.0141154 0.00436324
0.01367 0.000591702 -0.000182906
0.00503608 0.0149423 -0.00461892
-0.00665267 0.0202291 -0.00625317
-0.014306 0.0132453 -0.00409433
-0.013281 -0.0017712 0.000547445
-0.00411815 -0.015424 0.00476127
0.0744098 -0.00681574 0.0795913
0.181648 -0.00483759 0.056568
0.177226 0.000202786 -0.00237131
0.0652908 0.00512098 -0.0598828
-0.0862496 0.00693286 -0.0810706
-0.185471 0.00453934 -0.0530818
-0.172183 -0.00060702 0.00709744
-0.0533905 -0.00528605 0.0617283
0.0979442 0.0103903 0.104764
0.239081 0.00737289 0.0744532
0.233259 -0.000309063 -0.00312105
0.0859342 -0.0078048 -0.0788162
-0.113519 -0.0105662 -0.106703
-0.244112 -0.00691835 -0.0698646
-0.226621 0.000925165 0.00934149
-0.0702769 0.00805838 0.0812517
0.062067 0.0212938 0.066389
0.148552 0.0148355 0.0462536
0.144927 -0.000621768 -0.00193853
0.0533917 -0.0157019 -0.0489548
-0.0705306 -0.0212575 -0.0662757
-0.15167 -0.0139185 -0.0433947
-0.140808 0.00186319 0.00580898
-0.0445343 0.0165147 0.051489
0 0.181054 0
0 0.126141 0
0 -0.00528668 0
0 -0.133508 0
0 -0.180745 0
0 -0.118345 0
0 0.015842 0
0 0.140419 0
-0.0446955 0.0712289 0.123773
-0.106975 0.0496257 0.0862334
-0.104365 -0.00207985 -0.00361411
-0.0384483 -0.0525237 -0.0912694
0.0507903 -0.0711074 -0.123562
0.10922 -0.0465583 -0.0809034
0.101399 0.00623247 0.01083
0.03207 0.0552427 0.0959941
-0.0622794 -0.0818023 0.172467
-0.14906 -0.0569922 0.120159
-0.145423 0.00238859 -0.00503595
-0.0535744 0.0603205 -0.127176
0.070772 0.0816628 -0.172173
0.152189 0.0534695 -0.112732
0.14129 -0.00715763 0.0150907
0.0446867 -0.063443 0.133759
-0.0420854 -0.185213 0.116545
-0.100728 -0.129039 0.0811975
-0.0982699 0.00540814 -0.00340305
-0.0362029 0.136575 -0.0859393
0.0478242 0.184897 -0.116346
0.102842 0.121063 -0.0761787
0.095477 -0.016206 0.0101976
0.0301971 -0.143645 0.0903881
0.00363706 -0.176276 -0.0100719
0.00870498 -0.122813 -0.00701717
0.00849258 0.00514719 0.000294095
0.00312869 0.129985 0.00742696
-0.00413302 0.175976 0.0100547
-0.0088877 0.115222 0.00658344
-0.00825122 -0.015424 -0.000881284
-0.00260966 -0.136714 -0.00781143
0.0471533 -0.0604126 -0.130579
0.112857 -0.0420899 -0.0909753
0.110104 0.00176402 0.00381285
0.0405625 0.0445479 0.0962882
-0.0535832 0.0603096 0.130356
-0.115226 0.0394883 0.0853521
-0.106974 -0.00528605 -0.0114256
-0.0338334 -0.046854 -0.101273
0.062067 0.0920967 -0.171879
0.148552 0.0641644 -0.119749
0.144927 -0.00268918 0.00501878
0.0533916 -0.0679115 0.126742
-0.0705306 -0.0919397 0.171586
-0.15167 -0.0601984 0.112347
-0.140808 0.00805838 -0.0150392
-0.0445343 0.071427 -0.133303
0.0393317 0.188741 -0.108919
0.0941369 0.131497 -0.0758846
0.09184 -0.00551116 0.00318039
0.0338341 -0.139177 0.0803162
-0.044695 -0.18842 0.108733
-0.0961128 -0.12337 0.0711942
-0.0892298 0.0165147 -0.00953032
-0.0282213 0.146381 -0.0844739
