# vtk DataFile Version 3.0
Velocity field
ASCII
DATASET STRUCTURED_POINTS
DIMENSIONS 10 10 10
SPACING 0.631579 0.631579 0.631579
ORIGIN 0 0 0
POINT_DATA 1000
VECTORS velocity float
0 0.337078 0
0 0.272054 0
0 0.10207 0
0 -0.107293 0
0 -0.275263 0
0 -0.337033 0
0 -0.268774 0
0 -0.0968198 0
0 0.112488 0
0 0.278397 0
0 0.207031 0.264041
0 0.167094 0.221463
0 0.0626907 0.083089
0 -0.0658988 -0.0873409
0 -0.169064 -0.224074
0 -0.207003 -0.274358
0 -0.165079 -0.218792
0 -0.059466 -0.078815
0 0.0690894 0.0915696
0 0.17099 0.218075
0 -0.00289041 0.426213
0 -0.00233284 0.357483
0 -0.000875242 0.134122
0 0.000920031 -0.140985
0 0.00236035 -0.361699
0 0.00289003 -0.442866
0 0.00230471 -0.353173
0 0.000830221 -0.127223
0 -0.000964576 0.147811
0 -0.00238723 0.352015
0 -0.211696 0.423949
0 -0.170859 0.355584
0 -0.0641036 0.133409
0 0.067384 -0.140236
0 0.172874 -0.359777
0 0.211668 -0.440514
0 0.168799 -0.351297
0 0.0608062 -0.126547
0 -0.0706464 0.147026
0 -0.174843 0.350145
0 -0.338829 0.258122
0 -0.273467 0.216498
0 -0.1026 0.0812264
0 0.107851 -0.085383
0 0.276692 -0.219051
0 0.338783 -0.268208
0 0.27017 -0.213888
0 0.0973226 -0.0770482
0 -0.113072 0.089517
0 -0.279843 0.213187
0 -0.335238 -0.00729006
0 -0.270569 -0.00611449
0 -0.101513 -0.00229405
0 0.106708 0.00241144
0 0.27376 0.00618659
0 0.335193 0.00757489
0 0.267307 0.00604077
0 0.0962913 0.00217605
0 -0.111874 -0.0025282
0 -0.276878 -0.00602096
0 -0.20231 -0.26989
0 -0.163284 -0.226368
0 -0.0612613 -0.0849295
0 0.0643962 0.0892756
0 0.165209 0.229037
0 0.202283 0.280435
0 0.161315 0.223639
0 0.0581101 0.0805608
0 -0.0675141 -0.0935979
0 -0.167091 -0.222906
0 0.00867055 -0.428364
0 0.00699797 -0.359287
0 0.00262552 -0.134798
0 -0.00275988 0.141697
0 -0.00708049 0.363524
0 -0.0086694 0.445101
0 -0.00691359 0.354955
0 -0.00249047 0.127865
0 0.0028935 -0.148557
0 0.00716113 -0.353792
0 0.216306 -0.421572
0 0.17458 -0.353591
0 0.0654993 -0.132661
0 -0.0688511 0.13945
0 -0.176638 0.35776
0 -0.216277 0.438044
0 -0.172475 0.349327
0 -0.0621301 0.125837
0 0.0721846 -0.146202
0 0.17865 -0.348182
0 0.340489 -0.252135
0 0.274807 -0.203497
0 0.103103 -0.0763487
0 -0.108379 0.0802557
0 -0.278048 0.205897
0 -0.340444 0.252101
0 -0.271494 0.201043
0 -0.0977996 0.0724214
0 0.113626 -0.0841413
0 0.281215 -0.208242
0 0.272054 0
0 0.230996 0
0 0.0866659 0
0 -0.0911008 0
0 -0.23372 0
0 -0.286168 0
0 -0.228211 0
0 -0.0822079 0
0 0.0955116 0
0 0.224693 0
0.0383912 0.167094 0.292219
0.10314 0.138635 0.242389
0.127054 0.0520391 0.0909851
0.101933 -0.0547029 -0.0956424
0.0374862 -0.140341 -0.245372
-0.0414239 -0.171834 -0.300436
-0.104352 -0.137033 -0.239588
-0.12702 -0.0493636 -0.0863075
-0.100669 0.0572948 0.100174
-0.0345404 0.138005 0.241348
0.0619708 -0.00233284 0.471698
0.166489 -0.00193068 0.391263
0.20509 -0.000724679 0.146867
0.164541 0.000761774 -0.154386
0.0605099 0.00195434 -0.396078
-0.0668659 0.0023929 -0.48496
-0.168444 0.00190827 -0.386741
-0.205035 0.00068742 -0.139317
-0.162499 -0.000797946 0.1617
-0.0557548 -0.00192672 0.389582
0.0616416 -0.170859 0.469193
0.165604 -0.141598 0.389184
0.204 -0.0531506 0.146087
0.163666 0.0558714 -0.153565
0.0601885 0.143339 -0.393974
-0.0665109 0.175505 -0.482385
-0.16755 0.13996 -0.384686
-0.203946 0.050418 -0.138577
-0.161636 -0.0585204 0.160841
-0.0554586 -0.141115 0.387513
0.0375306 -0.273467 0.285669
0.100828 -0.226634 0.236955
0.124206 -0.0850696 0.0889455
0.0996489 0.0894244 -0.0934987
0.0366457 0.229419 -0.239872
-0.0404952 0.280902 -0.2937
-0.102013 0.224011 -0.234218
-0.124173 0.0806961 -0.0843725
-0.0984124 -0.0936642 0.0979282
-0.0337661 -0.22586 0.235938
-0.00105996 -0.270569 -0.00806805
-0.00284766 -0.224232 -0.00669224
-0.0035079 -0.084168 -0.00251206
-0.00281433 0.0884769 0.00264065
-0.00103498 0.226988 0.00677461
0.00114368 0.277926 0.0082949
0.00288112 0.221638 0.00661493
0.00350697 0.0798408 0.00238291
0.00277944 -0.0926716 -0.00276575
0.000953645 -0.223467 -0.00666351
-0.0392416 -0.163284 -0.298692
-0.105425 -0.13532 -0.247758
-0.129868 -0.050794 -0.0930005
-0.104191 0.0533941 0.0977613
-0.0383165 0.136983 0.250807
0.0423411 0.167723 0.30709
0.106663 0.133754 0.244895
0.129834 0.0481825 0.0882192
0.102899 -0.0559256 -0.102393
0.0353055 -0.134858 -0.246694
-0.0622836 0.00699797 -0.474079
-0.167329 0.00579853 -0.393236
-0.206124 0.00217653 -0.147608
-0.165371 -0.00228794 0.155165
-0.0608152 -0.00586974 0.398076
0.0672031 -0.00718695 0.487407
0.169293 -0.00573139 0.388692
0.20607 -0.00206463 0.140019
0.163319 0.00239645 -0.162515
0.0560362 0.00577971 -0.391548
-0.061296 0.17458 -0.466562
-0.164636 0.144594 -0.386912
-0.202807 0.0542741 -0.145233
-0.162709 -0.0570522 0.152668
-0.0598364 -0.146368 0.391671
0.0661217 -0.179214 0.479564
0.16657 -0.142918 0.382437
0.202753 -0.0514836 0.137767
0.160691 0.0597592 -0.159902
0.0551477 0.144188 -0.38534
-0.0366601 0.274807 -0.279042
-0.0958365 0.221796 -0.225214
-0.118038 0.0832141 -0.0844965
-0.0947003 -0.0874724 0.0888204
-0.0348261 -0.224411 0.22787
0.0384843 -0.274771 0.279005
0.0969471 -0.219122 0.222498
0.118007 -0.0789337 0.0801501
0.093539 0.0917075 -0.0931208
0.0329829 0.226967 -0.230465
0 0.10207 0
0 0.0866659 0
0 0.0325156 0
0 -0.0341795 0
0 -0.0876878 0
0 -0.107366 0
0 -0.0856209 0
0 -0.030843 0
0 0.0358343 0
0 0.0843011 0
0.0619708 0.0626907 0.207657
0.166489 0.0520391 0.172181
0.20509 0.019534 0.0646308
0.164541 -0.020534 -0.0679391
0.0605099 -0.0526802 -0.174299
-0.0668659 -0.0645018 -0.213413
-0.168444 -0.0514384 -0.17019
-0.205035 -0.0185297 -0.0613082
-0.162499 0.0215063 0.0711585
-0.0557548 0.0517771 0.171507
0.100033 -0.000875242 0.335199
0.268745 -0.000724679 0.277933
0.331056 -0.000272012 0.104327
0.265601 0.000285934 -0.109667
0.0976747 0.000733569 -0.281352
-0.107934 0.000898189 -0.34449
-0.271901 0.000716277 -0.27472
-0.330968 0.000258026 -0.0989631
-0.262305 -0.000299505 0.114863
-0.089999 -0.000722874 0.276845
0.0995015 -0.0641036 0.333418
0.267317 -0.0531506 0.276456
0.329296 -0.019951 0.103773
0.26419 0.0209722 -0.109085
0.0971557 0.0538044 -0.279858
-0.107361 0.0658788 -0.342659
-0.270456 0.0525364 -0.27326
-0.329209 0.0189253 -0.0984374
-0.260911 -0.021966 0.114253
-0.0895209 -0.052944 0.275375
0.0605817 -0.1026 0.203002
0.162756 -0.0850696 0.16832
0.200493 -0.0319324 0.0631822
0.160852 0.0335669 -0.0664165
0.0591533 0.0861164 -0.170391
-0.0653669 0.105442 -0.208629
-0.164669 0.0840861 -0.166376
-0.20044 0.0302907 -0.0599337
-0.158856 -0.0351574 0.0695634
-0.054505 -0.0847389 0.167662
-0.00171099 -0.101513 -0.00573332
-0.00459666 -0.084168 -0.00475384
-0.00566242 -0.031594 -0.00178443
-0.00454287 0.0332113 0.00187578
-0.00167065 0.0852036 0.00481234
0.00184614 0.104324 0.00589226
0.00465068 0.0831955 0.00469889
0.00566091 0.0299696 0.00169269
0.00448655 -0.0347849 -0.00196465
0.00153937 -0.0838409 -0.00473523
-0.0633435 -0.0612613 -0.212257
-0.170176 -0.050794 -0.175995
-0.209633 -0.0190664 -0.0660627
-0.168185 0.0200424 0.0694444
-0.0618501 0.051419 0.17816
0.0683469 0.0629578 0.21814
0.172175 0.050207 0.17396
0.209577 0.0180862 0.062666
0.166099 -0.020992 -0.0727346
0.0569898 -0.0505965 -0.175306
-0.100538 0.00262552 -0.33689
-0.2701 0.00217653 -0.279335
-0.332725 0.000816994 -0.104853
-0.26694 -0.000858813 0.11022
-0.0981672 -0.00220329 0.282771
0.108479 -0.00269773 0.346228
0.273272 -0.00215136 0.276106
0.332637 -0.000774989 0.0994624
0.263628 0.000899518 -0.115443
0.0904532 0.00216845 -0.278242
-0.0989436 0.0654993 -0.331549
-0.265754 0.0542741 -0.274842
-0.32737 0.0203723 -0.103166
-0.262644 -0.0214152 0.108447
-0.0965873 -0.0549408 0.278222
0.106733 -0.0672699 0.340656
0.268875 -0.0536457 0.271663
0.327283 -0.019325 0.0978621
0.259386 0.0224307 -0.113587
0.0890191 0.0540967 -0.273831
-0.0591764 0.103103 -0.198293
-0.154698 0.0832141 -0.160042
-0.190537 0.0312205 -0.060045
-0.152865 -0.0328182 0.0631176
-0.056216 -0.0841954 0.161929
0.062121 -0.103089 0.198267
0.156491 -0.0822107 0.158112
0.190486 -0.0296146 0.0569563
0.15099 0.0344071 -0.0661736
0.0532407 0.0851543 -0.163773
0 -0.107293 0
0 -0.0911008 0
0 -0.0341795 0
0 0.0359286 0
0 0.0921751 0
0 0.11286 0
0 0.0900024 0
0 0.0324213 0
0 -0.0376681 0
0 -0.088615 0
0.0616416 -0.0658988 0.0429792
0.165604 -0.0547029 0.0356363
0.204 -0.020534 0.0133766
0.163666 0.0215851 -0.0140614
0.0601885 0.0553769 -0.0360748
-0.0665109 0.0678035 -0.0441702
-0.16755 0.0540714 -0.0352243
-0.203946 0.0194783 -0.0126889
-0.161636 -0.0226071 0.0147277
-0.0554586 -0.0544267 0.0354971
0.0995015 0.000920031 0.0693768
0.267317 0.000761774 0.0575238
0.329296 0.000285934 0.0215926
0.26419 -0.000300572 -0.0226978
0.0971557 -0.000771116 -0.0582317
-0.107361 -0.000944165 -0.0712992
-0.270456 -0.000752941 -0.0568588
-0.329209 -0.000271233 -0.0204824
-0.260911 0.000314836 0.0237733
-0.0895209 0.000759866 0.0572992
0.0989729 0.067384 0.0690082
0.265897 0.0558714 0.0572182
0.327546 0.0209722 0.0214778
0.262786 -0.0220459 -0.0225772
0.0966394 -0.0565587 -0.0579222
-0.10679 -0.0692511 -0.0709203
-0.26902 -0.0552257 -0.0565567
-0.327459 -0.019894 -0.0203736
-0.259526 0.0230904 0.0236471
-0.0890454 0.0556533 0.0569948
0.0602598 0.107851 0.0420158
0.161892 0.0894243 0.0348374
0.199428 0.0335669 0.0130768
0.159998 -0.0352851 -0.0137462
0.0588393 -0.0905243 -0.035266
-0.0650196 -0.110839 -0.04318
-0.163794 -0.0883911 -0.0344348
-0.199375 -0.0318412 -0.0124045
-0.158012 0.036957 0.0143975
-0.0542155 0.0890752 0.0347014
-0.0017019 0.106708 -0.00118664
-0.00457224 0.0884769 -0.000983901
-0.00563233 0.0332113 -0.000369324
-0.00451877 -0.0349113 0.000388231
-0.00166178 -0.0895652 0.00099601
0.00183633 -0.109664 0.00121952
0.00462597 -0.0874541 0.000972527
0.00563084 -0.0315038 0.000350336
0.00446271 0.0365654 -0.000406625
0.00153119 0.0881313 -0.000980061
-0.063007 0.0643962 -0.0439313
-0.169272 0.0533941 -0.0364255
-0.208519 0.0200424 -0.013673
-0.167292 -0.0210683 0.0143729
-0.0615217 -0.054051 0.0368737
0.0679838 -0.0661806 0.0451484
0.171261 -0.0527771 0.0360047
0.208464 -0.019012 0.01297
0.165217 0.0220667 -0.0150539
0.0566871 0.0531857 -0.0362834
-0.100004 -0.00275988 -0.0697269
-0.268665 -0.00228794 -0.0578139
-0.330958 -0.000858813 -0.0217014
-0.265522 0.000902775 0.0228123
-0.0976458 0.00231608 0.0585253
0.107902 0.00283582 0.0716589
0.27182 0.00226148 0.0571457
0.33087 0.000814659 0.0205857
0.262228 -0.000945563 -0.0238932
0.0899727 -0.00227942 -0.0575884
-0.098418 -0.0688511 -0.0686213
-0.264342 -0.0570522 -0.0568841
-0.325631 -0.0214152 -0.0213523
-0.261248 0.0225113 0.0224452
-0.0960741 0.0577532 0.0575837
0.106166 0.0707133 0.0705058
0.267447 0.0563918 0.0562262
0.325544 0.0203141 0.0202545
0.258008 -0.0235789 -0.0235092
0.0885462 -0.056865 -0.0566753
-0.058862 -0.108379 -0.0410412
-0.153877 -0.0874724 -0.0331242
-0.189525 -0.0328182 -0.0124276
-0.152053 0.0344976 0.0130636
-0.0559174 0.0885039 0.0335148
0.061791 0.108365 0.0410357
0.15566 0.0864177 0.0327248
0.189474 0.03113 0.0117884
0.150188 -0.0361678 -0.0136961
0.0529579 -0.0895119 -0.0338965
0 -0.275263 0
0 -0.23372 0
0 -0.0876878 0
0 0.0921751 0
0 0.236476 0
0 0.289543 0
0 0.230902 0
0 0.0831773 0
0 -0.0966379 0
0 -0.227343 0
0.0375306 -0.169064 -0.13828
0.100828 -0.140341 -0.114655
0.124206 -0.0526802 -0.0430378
0.0996489 0.0553769 0.0452406
0.0366457 0.14207 0.116066
-0.0404952 0.173951 0.142112
-0.102013 0.138721 0.11333
-0.124173 0.0499718 0.0408251
-0.0984124 -0.057999 -0.0473845
-0.0337661 -0.139632 -0.114208
0.0605817 0.00236035 -0.223211
0.162756 0.00195434 -0.185075
0.200493 0.000733569 -0.0694713
0.160852 -0.000771116 0.0730272
0.0591533 -0.00197831 0.187353
-0.0653669 -0.00242227 0.229396
-0.164669 -0.00193167 0.182936
-0.20044 -0.000695851 0.0658997
-0.158856 0.000807713 -0.0764877
-0.054505 0.00194944 -0.184353
0.0602598 0.172874 -0.222025
0.161892 0.143339 -0.184092
0.199428 0.0538044 -0.0691022
0.159998 -0.0565587 0.0726393
0.0588393 -0.145102 0.186357
-0.0650196 -0.177665 0.228177
-0.163794 -0.141682 0.181964
-0.199375 -0.0510382 0.0655494
-0.158012 0.0592386 -0.0760812
-0.0542155 0.142779 -0.183374
0.0366893 0.276692 -0.135181
0.0985681 0.229419 -0.112085
0.121422 0.0861164 -0.0420728
0.0974149 -0.0905243 0.0442268
0.0358245 -0.232242 0.113464
-0.0395873 -0.284358 0.138926
-0.0997264 -0.226767 0.11079
-0.12139 -0.0816889 0.0399099
-0.0962063 0.094814 -0.0463222
-0.0330092 0.228523 -0.111648
-0.0010362 0.27376 0.00381786
-0.00278384 0.226988 0.00316557
-0.00342927 0.0852036 0.00118825
-0.00275125 -0.0895652 -0.00124908
-0.00101177 -0.229781 -0.00320452
0.00111806 -0.281345 -0.00392363
0.00281651 -0.224364 -0.003129
0.00342836 -0.0808234 -0.00112717
0.00271713 0.0938093 0.00130827
0.000932268 0.226102 0.00315322
-0.038362 0.165209 0.141343
-0.103062 0.136983 0.117195
-0.126957 0.051419 0.0439911
-0.101856 -0.054051 -0.0462429
-0.0374576 -0.138669 -0.118636
0.0413923 -0.169786 -0.145259
0.104273 -0.135399 -0.11584
0.126924 -0.0487754 -0.0417295
0.100592 0.0566121 0.048434
0.0345141 0.136448 0.116737
-0.0608874 -0.00708049 0.224338
-0.163577 -0.00586974 0.186009
-0.201504 -0.00220329 0.0698216
-0.161664 0.00231608 -0.0733954
-0.0594517 0.00594192 -0.188298
0.0656967 0.00727535 -0.230553
0.165499 0.00580187 -0.183859
0.20145 0.00209002 -0.066232
0.159658 -0.00242585 0.0768735
0.0547801 -0.00584787 0.185283
-0.059922 -0.176638 0.220781
-0.160945 -0.146368 0.183018
-0.198261 -0.0549408 0.0686984
-0.159062 0.0577532 -0.0722151
-0.0584951 0.148166 -0.185268
0.0646394 0.181416 -0.226843
0.162836 0.144674 -0.180901
0.198209 0.0521162 -0.0651663
0.157089 -0.0604918 0.0756376
0.0539115 -0.145888 0.182346
-0.0358383 -0.278048 0.132045
-0.0936881 -0.224411 0.106573
-0.115392 -0.0841954 0.0399844
-0.0925775 0.0885039 -0.0420305
-0.0340454 0.227058 -0.10783
0.0376216 0.278011 -0.132027
0.0947739 0.221706 -0.105288
0.115362 0.0798644 -0.0379276
0.0914422 -0.0927889 0.0440654
0.0322435 -0.229644 0.109058
0 -0.337033 0
0 -0.286169 0
0 -0.107366 0
0 0.11286 0
0 0.289543 0
0 0.354518 0
0 0.282718 0
0 0.101843 0
0 -0.118324 0
0 -0.27836 0
-0.00105996 -0.207003 -0.26619
-0.00284766 -0.171834 -0.220712
-0.0035079 -0.0645018 -0.0828481
-0.00281433 0.0678035 0.0870888
-0.00103498 0.173951 0.223427
0.00114368 0.212987 0.273566
0.00288112 0.16985 0.218161
0.00350697 0.0611858 0.0785883
0.00277944 -0.0710143 -0.0912152
0.000953645 -0.170967 -0.21985
-0.00171099 0.00289003 -0.429682
-0.00459666 0.0023929 -0.356271
-0.00566242 0.000898189 -0.133732
-0.00454287 -0.000944165 0.140578
-0.00167065 -0.00242227 0.360653
0.00184614 -0.00296584 0.441589
0.00465068 -0.00236516 0.352154
0.00566091 -0.000852005 0.126857
0.00448655 0.000988972 -0.147239
0.00153937 0.00238691 -0.354881
-0.0017019 0.211668 -0.4274
-0.00457224 0.175505 -0.354379
-0.00563233 0.0658788 -0.133022
-0.00451877 -0.0692511 0.139831
-0.00166178 -0.177665 0.358738
0.00183633 -0.217533 0.439242
0.00462597 -0.173476 0.350283
0.00563083 -0.0624916 0.126183
0.00446271 0.0725323 -0.146456
0.00153119 0.17482 -0.352996
-0.0010362 0.338783 -0.260223
-0.00278384 0.280902 -0.215764
-0.00342927 0.105442 -0.0809908
-0.00275125 -0.110839 0.0851364
-0.00101177 -0.284358 0.218419
0.00111806 -0.34817 0.267433
0.00281651 -0.277656 0.21327
0.00342836 -0.100021 0.0768269
0.00271713 0.116091 -0.0891707
0.000932268 0.279806 -0.214922
2.92652e-05 0.335193 0.0073494
7.86224e-05 0.277926 0.00609375
9.68524e-05 0.104324 0.00228738
7.77029e-05 -0.109664 -0.00240449
2.85753e-05 -0.281345 -0.00616873
-3.15767e-05 -0.344481 -0.00755303
-7.95469e-05 -0.274713 -0.00602332
-9.68266e-05 -0.0989606 -0.0021698
-7.67387e-05 0.114861 0.00251842
-2.63297e-05 0.276841 0.00606997
0.00108344 0.202283 0.272087
0.00291073 0.167723 0.2256
0.00358562 0.0629578 0.0846827
0.00287669 -0.0661806 -0.089018
0.0010579 -0.169786 -0.228376
-0.00116903 -0.207888 -0.279626
-0.00294495 -0.165785 -0.222993
-0.00358466 -0.0597209 -0.0803293
-0.002841 0.0693163 0.0932358
-0.000974769 0.167068 0.22472
0.00171962 -0.0086694 0.431851
0.00461986 -0.00718695 0.358067
0.005691 -0.00269773 0.134407
0.00456578 0.00283582 -0.141287
0.00167907 0.00727535 -0.362473
-0.00185545 0.00890797 -0.443816
-0.00467413 0.00710382 -0.353931
-0.00568949 0.00255903 -0.127497
-0.00450918 -0.00297023 0.147982
-0.00154714 -0.00716017 0.356672
0.00169236 -0.216277 0.425004
0.00454552 -0.179214 0.352311
0.00559941 -0.0672699 0.132245
0.00449234 0.0707133 -0.139014
0.00165206 0.181416 -0.356642
-0.00182559 0.222127 -0.436676
-0.0045989 0.17714 -0.348235
-0.00559792 0.0638115 -0.125446
-0.00443661 -0.0740665 0.145603
-0.0015226 -0.178626 0.351017
0.00101217 -0.340444 0.254187
0.002646 -0.274771 0.205153
0.00325899 -0.103089 0.0769701
0.00261463 0.108365 -0.0809089
0.000961534 0.278011 -0.207573
-0.00106253 0.340398 -0.254153
-0.00267667 0.271458 -0.20268
-0.00325812 0.0977866 -0.0730108
-0.00258257 -0.113611 0.0848262
-0.000910643 -0.281177 0.209937
0 -0.268774 0
0 -0.228211 0
0 -0.0856209 0
0 0.0900024 0
0 0.230902 0
0 0.282718 0
0 0.225459 0
0 0.0812166 0
0 -0.0943599 0
0 -0.221984 0
-0.0392416 -0.165079 -0.291402
-0.105425 -0.137033 -0.241616
-0.129868 -0.0514384 -0.0906944
-0.104191 0.0540714 0.095337
-0.0383165 0.138721 0.244589
0.0423411 0.16985 0.299476
0.106663 0.135451 0.238823
0.129834 0.0487938 0.0860319
0.102899 -0.0566318 -0.0998548
0.0353055 -0.136341 -0.240673
-0.0633435 0.00230471 -0.470379
-0.170176 0.00190827 -0.390015
-0.209633 0.000716277 -0.146398
-0.168185 -0.000752941 0.153893
-0.06185 -0.00193167 0.394814
0.0683469 -0.00236517 0.483412
0.172175 -0.00188615 0.385506
0.209577 -0.000679451 0.138872
0.166099 0.000788677 -0.161185
0.0569898 0.00190349 -0.388493
-0.063007 0.168799 -0.46788
-0.169272 0.13996 -0.387943
-0.208519 0.0525364 -0.145621
-0.167292 -0.0552257 0.153075
-0.0615217 -0.141682 0.392716
0.0679838 -0.173476 0.480844
0.171261 -0.138342 0.383458
0.208464 -0.0498355 0.138134
0.165217 0.0578423 -0.160328
0.0566871 0.139413 -0.386429
-0.038362 0.27017 -0.28487
-0.103062 0.224011 -0.236199
-0.126957 0.0840861 -0.0886618
-0.101856 -0.0883911 0.0932002
-0.0374576 -0.226767 0.239106
0.0413923 -0.277656 0.292762
0.104273 -0.221423 0.23347
0.126924 -0.0797633 0.0841031
0.100592 0.0925789 -0.0976163
0.0345141 0.223137 -0.235278
0.00108344 0.267307 0.00804549
0.00291073 0.221638 0.00667091
0.00358562 0.0831955 0.00250404
0.00287669 -0.0874541 -0.00263221
0.0010579 -0.224364 -0.00675297
-0.00116903 -0.274713 -0.00826842
-0.00294495 -0.219076 -0.00659383
-0.00358466 -0.0789179 -0.00237531
-0.002841 0.0915979 0.00275694
-0.000974769 0.220772 0.00664488
0.0401108 0.161315 0.297857
0.10776 0.133754 0.246968
0.132745 0.050207 0.0927036
0.106499 -0.0527771 -0.0974491
0.0391651 -0.135399 -0.250006
-0.0432793 -0.165785 -0.30611
-0.109026 -0.132208 -0.244114
-0.13271 -0.0476257 -0.0879377
-0.105178 0.0552778 0.102066
-0.0360875 0.133232 0.246004
0.0636632 -0.00691359 0.472753
0.171034 -0.00573138 0.391982
0.210691 -0.00215136 0.147137
0.169033 0.00226148 -0.15467
0.062162 0.00580187 -0.396805
-0.0686918 0.00710382 -0.485851
-0.173044 0.00566508 -0.387451
-0.210635 0.00204075 -0.139573
-0.166937 -0.00236867 0.161998
-0.0572774 -0.00571002 0.390453
0.0626538 -0.172475 0.465257
0.168282 -0.142918 0.385678
0.2073 -0.0536457 0.14477
0.166314 0.0563918 -0.152181
0.0611619 0.144674 -0.390421
-0.0675861 0.17714 -0.478034
-0.170259 0.141263 -0.381217
-0.207245 0.0508876 -0.137327
-0.16425 -0.0590659 0.159393
-0.0563693 -0.142449 0.384262
0.0374721 -0.271494 0.278262
0.0979593 -0.219122 0.224584
0.120653 -0.0822107 0.0842602
0.096798 0.0864177 -0.088572
0.0355975 0.221706 -0.227233
-0.0393367 0.271458 -0.278225
-0.0990946 0.21648 -0.221876
-0.120621 0.0779819 -0.0799259
-0.095611 -0.0906017 0.0928604
-0.0337135 -0.22423 0.22982
0 -0.0968198 0
0 -0.0822079 0
0 -0.030843 0
0 0.0324213 0
0 0.0831773 0
0 0.101843 0
0 0.0812166 0
0 0.0292565 0
0 -0.0339911 0
0 -0.0799647 0
-0.0622836 -0.059466 -0.204189
-0.167329 -0.0493637 -0.169303
-0.206124 -0.0185298 -0.0635511
-0.165371 0.0194783 0.0668042
-0.0608152 0.0499719 0.171387
0.0672031 0.0611859 0.209847
0.169293 0.0487938 0.167347
0.20607 0.0175771 0.0602837
0.163319 -0.0204006 -0.0699695
0.0560362 -0.0491138 -0.168642
-0.100538 0.000830221 -0.3296
-0.2701 0.00068742 -0.273288
-0.332725 0.000258026 -0.102583
-0.26694 -0.000271233 0.107834
-0.0981672 -0.000695851 0.276651
0.108479 -0.000852005 0.338732
0.273272 -0.000679451 0.270129
0.332637 -0.00024476 0.0973095
0.263628 0.000284107 -0.112944
0.0904532 0.00068569 -0.272221
-0.100004 0.0608062 -0.327849
-0.268665 0.0504181 -0.271836
-0.330958 0.0189253 -0.102038
-0.265522 -0.019894 0.107262
-0.0976458 -0.0510382 0.275182
0.107902 -0.0624916 0.336933
0.27182 -0.0498355 0.268695
0.33087 -0.0179523 0.0967924
0.262228 0.0208367 -0.112344
0.0899727 0.0502206 -0.270775
-0.0608874 0.0973226 -0.199612
-0.163577 0.0806962 -0.165509
-0.201504 0.0302907 -0.0621263
-0.161664 -0.0318413 0.0653065
-0.0594517 -0.0816889 0.167545
0.0656967 -0.100021 0.205143
0.165499 -0.0797633 0.163595
0.20145 -0.0287334 0.0589323
0.159658 0.03335 -0.0684009
0.0547801 0.08038 -0.164862
0.00171962 0.0962913 0.00563756
0.00461986 0.0798409 0.0046744
0.005691 0.0299697 0.00175461
0.00456578 -0.0315038 -0.00184443
0.00167907 -0.0808234 -0.0047319
-0.00185545 -0.0989607 -0.00579377
-0.00467413 -0.0789179 -0.00462037
-0.00568949 -0.0284288 -0.00166441
-0.00450918 0.0329965 0.00193183
-0.00154714 0.0795282 0.00465614
0.0636632 0.0581101 0.208712
0.171034 0.0481825 0.173054
0.210691 0.0180862 0.0649586
0.169033 -0.019012 -0.0682838
0.062162 -0.0487755 -0.175183
-0.0686918 -0.0597209 -0.214495
-0.173044 -0.0476257 -0.171053
-0.210635 -0.0171563 -0.0616191
-0.166937 0.0199128 0.0715195
-0.0572774 0.0479939 0.172378
0.101045 -0.00249047 0.331263
0.271462 -0.00206463 0.274667
0.334403 -0.00077499 0.103101
0.268286 0.00081466 -0.108379
0.0986624 0.00209002 -0.278047
-0.109026 0.00255903 -0.340441
-0.274651 0.00204075 -0.271492
-0.334314 0.000735145 -0.0978004
-0.264958 -0.00085327 0.113514
-0.0909097 -0.00205691 0.273595
0.0994429 -0.0621301 0.326011
0.267095 -0.0514837 0.27025
0.329022 -0.019325 0.101442
0.263969 0.0203141 -0.106635
0.0970746 0.0521162 -0.273573
-0.107271 0.0638115 -0.334965
-0.270231 0.0508876 -0.267125
-0.328934 0.0183313 -0.0962266
-0.260694 -0.0212774 0.111689
-0.0894683 -0.0513141 0.269257
0.059475 -0.0977996 0.194981
0.155479 -0.0789337 0.157369
0.191498 -0.0296146 0.0590421
0.153636 0.03113 -0.0620634
0.0564997 0.0798644 -0.159224
-0.0624345 0.0977866 -0.194955
-0.157281 0.0779819 -0.155471
-0.191447 0.0280912 -0.056005
-0.151752 -0.0326372 0.0650683
-0.0535094 -0.080774 0.161038
0 0.112488 0
0 0.0955116 0
0 0.0358343 0
0 -0.0376681 0
0 -0.0966378 0
0 -0.118324 0
0 -0.0943599 0
0 -0.033991 0
0 0.0394918 0
0 0.0929054 0
-0.061296 0.0690894 -0.038198
-0.164636 0.0572935 -0.0317187
-0.202807 0.0215058 -0.0119066
-0.162709 -0.0226066 0.0125162
-0.0598364 -0.0579977 0.0321103
0.0661217 -0.0710127 0.039316
0.16657 -0.0566305 0.0313534
0.202753 -0.0204001 0.0112945
0.160691 0.0236785 -0.0131081
0.0551477 0.0570618 -0.0315483
-0.0989436 -0.000964576 -0.0616589
-0.265754 -0.000797927 -0.0512001
-0.32737 -0.000299498 -0.0192196
-0.262644 0.000314829 0.0202035
-0.0965873 0.000807694 0.0518323
0.106733 0.000988948 0.0634638
0.268875 0.000788658 0.0506103
0.327283 0.0002841 0.0182315
0.259386 -0.000329786 -0.021159
0.0890191 -0.000796655 -0.050925
-0.098418 -0.0706464 -0.0613314
-0.264342 -0.058519 -0.0509281
-0.325631 -0.0219655 -0.0191175
-0.261248 0.0230899 0.0200962
-0.0960741 0.0592372 0.051557
0.106166 0.0725306 0.0631267
0.267447 0.057841 0.0503416
0.325544 0.0208362 0.0181347
0.258008 -0.0241852 -0.0210466
0.0885462 -0.0583478 -0.0506544
-0.059922 -0.113072 -0.0373417
-0.160945 -0.093662 -0.0310077
-0.198261 -0.0351566 -0.0116397
-0.159062 0.0369562 0.0122356
-0.0584951 0.0948117 0.0313905
0.0646394 0.116088 0.0384348
0.162836 0.0925767 0.0306506
0.198209 0.0333492 0.0110414
0.157089 -0.0387095 -0.0128143
0.0539115 -0.0933879 -0.0308411
0.00169236 -0.111874 0.00105463
0.00454552 -0.0926694 0.00087574
0.00559941 -0.0347841 0.000328736
0.00449234 0.0365645 -0.000345566
0.00165206 0.0938071 -0.000886551
-0.00182559 0.114858 -0.0010855
-0.0045989 0.0915958 -0.000865656
-0.00559792 0.0329957 -0.000311837
-0.00443661 -0.0382993 0.000361909
-0.0015226 -0.0923983 0.000871034
0.0626538 -0.0675141 0.0390441
0.168282 -0.0559243 0.0324213
0.2073 -0.0209915 0.0121704
0.166314 0.0220661 -0.0127934
0.0611619 0.0566107 -0.0328216
-0.0675861 0.0693147 -0.040187
-0.170259 0.0552765 -0.0320479
-0.207245 0.0199123 -0.0115447
-0.16425 -0.0231129 0.0133985
-0.0563693 -0.0557607 0.0322471
0.0994429 0.0028935 0.0619701
0.267094 0.00239639 0.0514584
0.329022 0.000899497 0.0193166
0.263969 -0.00094554 -0.0203054
0.0970746 -0.00242579 -0.0520937
-0.107271 -0.00297015 -0.0637839
-0.270231 -0.00236861 -0.0508656
-0.328934 -0.00085325 -0.0183235
-0.260694 0.000990408 0.0212657
-0.0894683 0.00238978 0.051182
0.0978663 0.0721846 0.0609875
0.262798 0.0597579 0.0506298
0.323727 0.0224301 0.0190054
0.259721 -0.0235784 -0.0199783
0.0955125 -0.0604904 -0.0512546
-0.105545 -0.0740648 -0.0627565
-0.265884 -0.0590645 -0.0500464
-0.323641 -0.0212769 -0.0180284
-0.2565 0.0246976 0.0209235
-0.0880498 0.0596182 0.0503705
0.058532 0.113626 0.0364755
0.153014 0.0917075 0.0294393
0.188462 0.0344071 0.0110451
0.1512 -0.0361678 -0.0116103
0.0556039 -0.0927889 -0.0297864
-0.0614446 -0.113611 -0.0364707
-0.154787 -0.0906017 -0.0290843
-0.188412 -0.0326372 -0.010477
-0.149346 0.0379189 0.0121725
-0.052661 0.0938457 0.0301257
0 0.278397 0
0 0.224693 0
0 0.0843011 0
0 -0.0886151 0
0 -0.227343 0
0 -0.27836 0
0 -0.221984 0
0 -0.0799648 0
0 0.0929055 0
0 0.229932 0
-0.0366601 0.17099 0.14253
-0.0958364 0.138005 0.115035
-0.118038 0.0517771 0.0431594
-0.0947002 -0.0544267 -0.045368
-0.0348261 -0.139632 -0.116392
0.0384842 -0.170967 -0.142511
0.096947 -0.136341 -0.113648
0.118007 -0.0491138 -0.0409393
0.0935389 0.0570619 0.0475645
0.0329829 0.141223 0.117718
-0.0591764 -0.00238723 0.230071
-0.154698 -0.00192672 0.185689
-0.190537 -0.000722874 0.0696675
-0.152864 0.000759866 -0.0732326
-0.056216 0.00194944 -0.187879
0.062121 0.00238691 -0.23004
0.156491 0.00190349 -0.18345
0.190486 0.00068569 -0.0660839
0.15099 -0.000796656 0.0767783
0.0532407 -0.00197165 0.190019
-0.058862 -0.174843 0.228849
-0.153877 -0.141115 0.184703
-0.189524 -0.052944 0.0692974
-0.152052 0.0556533 -0.0728436
-0.0559174 0.142779 -0.186881
0.061791 0.17482 -0.228818
0.15566 0.139414 -0.182476
0.189474 0.0502206 -0.0657328
0.150188 -0.0583478 0.0763704
0.0529579 -0.144405 0.189009
-0.0358383 -0.279843 0.139335
-0.0936881 -0.22586 0.112457
-0.115392 -0.0847389 0.0421919
-0.0925774 0.0890753 -0.044351
-0.0340454 0.228524 -0.113783
0.0376216 0.279806 -0.139317
0.0947738 0.223137 -0.111101
0.115362 0.08038 -0.0400216
0.0914421 -0.093388 0.0464983
0.0322435 -0.231126 0.115079
0.00101217 -0.276878 -0.00393519
0.002646 -0.223467 -0.00317608
0.00325899 -0.0838409 -0.00119161
0.00261463 0.0881313 0.00125259
0.000961533 0.226102 0.00321353
-0.00106253 0.276841 0.00393467
-0.00267667 0.220772 0.00313778
-0.00325812 0.0795283 0.00113032
-0.00258257 -0.0923983 -0.00131324
-0.000910643 -0.228677 -0.00325013
0.0374721 -0.167091 -0.145687
0.0979592 -0.134858 -0.117584
0.120653 -0.0505965 -0.0441154
0.0967979 0.0531857 0.0463729
0.0355975 0.136449 0.11897
-0.0393367 0.167068 0.145668
-0.0990945 0.133232 0.116166
-0.120621 0.0479939 0.0418461
-0.0956109 -0.0557608 -0.0486181
-0.0337135 -0.138002 -0.120325
0.059475 0.00716113 -0.231232
0.155479 0.00577972 -0.186626
0.191498 0.00216845 -0.0700191
0.153636 -0.00227942 0.0736022
0.0564997 -0.00584787 0.188827
-0.0624345 -0.00716017 0.231201
-0.157281 -0.00571003 0.184376
-0.191447 -0.00205691 0.0664174
-0.151752 0.00238978 -0.0771657
-0.0535094 0.00591447 -0.190978
0.058532 0.17865 -0.227566
0.153014 0.144188 -0.183667
0.188462 0.0540968 -0.0689089
0.1512 -0.0568651 0.0724352
0.0556039 -0.145888 0.185833
-0.0614446 -0.178626 0.227536
-0.154787 -0.142449 0.181453
-0.188412 -0.0513141 0.0653643
-0.149346 0.0596182 -0.0759422
-0.052661 0.147549 -0.18795
0.035007 0.281215 -0.136103
0.0915149 0.226967 -0.109848
0.112716 0.0851543 -0.0412132
0.09043 -0.0895119 0.0433222
0.0332557 -0.229644 0.111144
-0.0367489 -0.281177 0.136085
-0.0925755 -0.22423 0.108524
-0.112686 -0.080774 0.0390932
-0.0893211 0.0938457 -0.0454197
-0.0314956 0.232259 -0.112409
