# vtk DataFile Version 3.0
Velocity field
ASCII
DATASET STRUCTURED_POINTS
DIMENSIONS 8 8 8
SPACING 0.8 0.8 0.8
ORIGIN 0 0 0
POINT_DATA 512
VECTORS velocity float
0 0.336287 0
0 0.234294 0
0 -0.00981944 0
0 -0.247976 0
0 -0.335714 0
0 -0.219812 0
0 0.0294249 0
0 0.260813 0
0 0.1323 0.343232
0 0.0921743 0.253536
0 -0.0038631 -0.0106259
0 -0.0975572 -0.268343
0 -0.132074 -0.363286
0 -0.086477 -0.237865
0 0.0115761 0.0318415
0 0.102607 0.266199
0 -0.151939 0.478264
0 -0.105857 0.353281
0 0.00443655 -0.0148063
0 0.112039 -0.373912
0 0.15168 -0.506208
0 0.0993139 -0.331445
0 -0.0132945 0.0443684
0 -0.117839 0.370925
0 -0.344014 0.323187
0 -0.239677 0.23873
0 0.010045 -0.0100054
0 0.253674 -0.252672
0 0.343427 -0.342071
0 0.224862 -0.223974
0 -0.0301009 0.029982
0 -0.266805 0.250653
0 -0.327414 -0.0279302
0 -0.228112 -0.0206313
0 0.00956035 0.000864674
0 0.241433 0.0218361
0 0.326856 0.0295621
0 0.214012 0.0193561
0 -0.0286485 -0.00259108
0 -0.253931 -0.0216617
0 -0.11221 -0.362105
0 -0.0781774 -0.267478
0 0.00327648 0.0112102
0 0.0827429 0.283098
0 0.112019 0.383263
0 0.0733453 0.250945
0 -0.00981827 -0.0335925
0 -0.0870262 -0.280837
0 0.17106 -0.476632
0 0.119178 -0.352076
0 -0.00499486 0.0147558
0 -0.126138 0.372637
0 -0.170768 0.504481
0 -0.111812 0.330314
0 0.0149676 -0.0442171
0 0.132668 -0.36966
0 0.350567 -0.302041
0 0.244242 -0.210434
0 -0.0102364 0.00881945
0 -0.258506 0.222723
0 -0.349969 0.301526
0 -0.229146 0.197427
0 0.0306743 -0.0264283
0 0.271887 -0.234252
0 0.234294 0
0 0.177224 0
0 -0.0074276 0
0 -0.187574 0
0 -0.25394 0
0 -0.16627 0
0 0.0222575 0
0 0.18171 0
0.0731658 0.0921743 0.339019
0.180227 0.0661992 0.243159
0.175849 -0.00277581 -0.0101958
0.0647836 -0.0700942 -0.257464
-0.0855788 -0.0948947 -0.348558
-0.184031 -0.0621332 -0.228221
-0.170836 0.00829639 0.0304757
-0.052498 0.0714872 0.262932
0.10195 -0.105857 0.472394
0.251131 -0.0758516 0.338823
0.24503 0.0031804 -0.0142069
0.0902702 0.080312 -0.358753
-0.119247 0.108727 -0.485686
-0.256431 0.0711901 -0.318008
-0.238047 -0.00950733 0.0424653
-0.0731514 -0.0820989 0.366373
0.068893 -0.239677 0.319221
0.169701 -0.171741 0.228959
0.16558 0.00720116 -0.00960037
0.061 0.181843 -0.242428
-0.0805815 0.24618 -0.328203
-0.173283 0.16119 -0.214892
-0.16086 -0.0215264 0.0286959
-0.0494321 -0.185885 0.247577
-0.0059538 -0.228112 -0.0275874
-0.0146658 -0.163456 -0.0197869
-0.0143095 0.00685364 0.000829668
-0.00527168 0.173068 0.0209509
0.00696388 0.234303 0.0283634
0.0149753 0.153413 0.0185713
0.0139016 -0.0204877 -0.00247993
0.00427197 -0.176916 -0.0213958
-0.0771891 -0.0781774 -0.357662
-0.190135 -0.0560193 -0.25653
-0.185519 0.00234887 0.0107564
-0.0683448 0.0593138 0.271617
0.090285 0.0802996 0.367725
0.194147 0.0525767 0.240772
0.180231 -0.0070215 -0.0321516
0.0553847 -0.0606317 -0.27739
-0.101603 0.119178 -0.470783
-0.250231 0.0853523 -0.33761
-0.244152 -0.00357876 0.014156
-0.0899467 -0.0903704 0.357467
0.11882 -0.122344 0.483945
0.255511 -0.080107 0.316868
0.237194 0.0106987 -0.0423139
0.0729019 0.0924307 -0.365123
-0.0643853 0.244242 -0.298334
-0.154101 0.170165 -0.207851
-0.15034 -0.00713176 0.00871122
-0.0553859 -0.180103 0.21999
0.073165 -0.243826 0.297825
0.157335 -0.159647 0.195004
0.146068 0.021371 -0.026104
0.0461977 0.189426 -0.231378
0 -0.00981944 0
0 -0.0074276 0
0 0.000311297 0
0 0.00786136 0
0 0.0106428 0
0 0.0069685 0
0 -0.00093283 0
0 -0.00761562 0
0.10195 -0.0038631 0.129163
0.251131 -0.00277581 0.0925903
0.24503 0.000116394 -0.00388233
0.0902702 0.00293918 -0.098035
-0.119247 0.00397909 -0.132721
-0.256431 0.00260536 -0.0869016
-0.238047 -0.000347858 0.0116049
-0.0731514 -0.00299609 0.100174
0.142059 0.00443655 0.179977
0.349928 0.0031804 0.129016
0.341427 -0.000133355 -0.00540966
0.125784 -0.00336746 -0.136603
-0.166161 -0.00455894 -0.184938
-0.357314 -0.00298503 -0.121091
-0.331698 0.000398617 0.0161704
-0.10193 0.00344083 0.139584
0.0959964 0.010045 0.12162
0.236465 0.00720116 0.0871824
0.230721 -0.000301946 -0.00365561
0.0849979 -0.00762471 -0.0923112
-0.112283 -0.0103225 -0.124972
-0.241456 -0.00675866 -0.081827
-0.224143 0.000902555 0.0109271
-0.0688794 0.00779059 0.094324
-0.00829611 0.00956035 -0.0105105
-0.0204355 0.00685364 -0.00753443
-0.0199391 -0.000287376 0.000315921
-0.00734564 -0.00725681 0.0079776
0.00970362 -0.00982438 0.0108002
0.0208669 -0.00643256 0.00707151
0.0193708 0.000859 -0.000944336
0.00595262 0.00741468 -0.00815157
-0.107556 0.00327648 -0.136265
-0.264936 0.00234887 -0.0976803
-0.258505 -9.84882e-05 0.00409581
-0.0952329 -0.00248704 0.103425
0.125805 -0.00336695 0.140019
0.270527 -0.00220455 0.0916805
0.251136 0.000294395 -0.0122429
0.0771738 0.00254112 -0.105682
-0.141574 -0.00499486 -0.179363
-0.348675 -0.00357876 -0.128554
-0.340204 0.000150056 0.00539029
-0.125333 0.00378921 0.136114
0.165565 0.0051299 0.184275
0.356034 0.00335884 0.120656
0.330509 -0.000448571 -0.0161127
0.101582 -0.00387385 -0.139108
-0.0897153 -0.0102364 -0.113662
-0.214726 -0.00713176 -0.079189
-0.209486 0.000298898 0.00331887
-0.0771755 0.00754825 0.0838135
0.101949 0.0102189 0.113468
0.219233 0.00669095 0.0742944
0.203533 -0.000895675 -0.00994532
0.0643725 -0.00793899 -0.0881523
0 -0.247976 0
0 -0.187574 0
0 0.00786136 0
0 0.198528 0
0 0.26877 0
0 0.17598 0
0 -0.0235573 0
0 -0.192322 0
0.068893 -0.0975572 -0.159043
0.169701 -0.0700942 -0.114008
0.16558 0.00293918 0.00478037
0.061 0.0742189 0.120714
-0.0805815 0.100479 0.163424
-0.173283 0.0657896 0.107002
-0.16086 -0.00878412 -0.0142893
-0.0494321 -0.075662 -0.123348
0.0959964 0.112039 -0.221612
0.236465 0.080312 -0.15886
0.230721 -0.00336746 0.00666097
0.0849979 -0.0850353 0.168205
-0.112283 -0.115123 0.227716
-0.241456 -0.0753776 0.149099
-0.224143 0.010066 -0.0199108
-0.0688794 0.0868934 -0.171875
0.0648697 0.253674 -0.149755
0.159791 0.181843 -0.107349
0.15591 -0.00762471 0.00450116
0.0574376 -0.192536 0.113664
-0.0758753 -0.260662 0.15388
-0.163164 -0.17067 0.100754
-0.151465 0.0227915 -0.0134547
-0.0465453 0.196741 -0.116145
-0.00560611 0.241433 0.0129419
-0.0138092 0.173068 0.00927727
-0.0134737 -0.00725681 -0.000388995
-0.00496384 -0.183249 -0.00982295
0.00655715 -0.248084 -0.0132983
0.0141007 -0.162436 -0.00870723
0.0130897 0.0216917 0.00116277
0.00402249 0.187247 0.0100373
-0.0726813 0.0827429 0.167788
-0.179033 0.0593138 0.120277
-0.174684 -0.00248704 -0.00504323
-0.0643545 -0.0628024 -0.127351
0.0850119 -0.0850223 -0.172409
0.182812 -0.0556692 -0.112887
0.169704 0.00743413 0.015075
0.0521503 0.0641725 0.130131
-0.095669 -0.126138 0.220856
-0.235618 -0.0903704 0.158292
-0.229894 0.00378921 -0.0066371
-0.0846934 0.0956841 -0.167602
0.11188 0.12954 -0.2269
0.24059 0.0848171 -0.148565
0.22334 -0.0113274 0.01984
0.0686445 -0.0978286 0.171289
-0.0606252 -0.258506 0.139956
-0.145101 -0.180103 0.0975083
-0.141561 0.00754825 -0.00408665
-0.0521514 0.19062 -0.103203
0.0688922 0.258065 -0.139717
0.148147 0.168971 -0.0914814
0.137537 -0.022619 0.012246
0.0434998 -0.200488 0.108545
0 -0.335714 0
0 -0.25394 0
0 0.0106428 0
0 0.26877 0
0 0.363865 0
0 0.238244 0
0 -0.0318922 0
0 -0.260368 0
-0.0059538 -0.132074 -0.350775
-0.0146658 -0.0948947 -0.251448
-0.0143095 0.00397909 0.0105433
-0.00527168 0.100479 0.266234
0.00696388 0.136029 0.360438
0.0149753 0.0890673 0.236
0.0139016 -0.0118921 -0.0315156
0.00427197 -0.102432 -0.272049
-0.00829611 0.15168 -0.488774
-0.0204355 0.108727 -0.35037
-0.0199391 -0.00455894 0.0146912
-0.00734564 -0.115123 0.370982
0.00970362 -0.155855 0.502239
0.0208669 -0.102047 0.328847
0.0193708 0.0136274 -0.0439141
0.00595262 0.117638 -0.379076
-0.00560611 0.343427 -0.33029
-0.0138092 0.24618 -0.236765
-0.0134737 -0.0103225 0.0099276
-0.00496384 -0.260662 0.250691
0.00655715 -0.352887 0.339386
0.0141007 -0.231057 0.222217
0.0130897 0.0308554 -0.0296751
0.00402249 0.26635 -0.256161
0.000484485 0.326856 0.028544
0.00119341 0.234303 0.0204614
0.00116442 -0.00982438 -0.000857942
0.000428974 -0.248084 -0.0216648
-0.00056668 -0.335862 -0.0293303
-0.0012186 -0.219906 -0.0192043
-0.00113123 0.0293666 0.00256454
-0.000347628 0.253498 0.0221377
0.00628119 0.112019 0.370063
0.0154722 0.0802996 0.265272
0.0150965 -0.00336695 -0.011123
0.00556156 -0.0850223 -0.280874
-0.00734685 -0.115105 -0.380254
-0.0157988 -0.075366 -0.248978
-0.0146661 0.0100644 0.0332482
-0.00450688 0.0868778 0.287008
0.00826781 -0.170768 0.487107
0.0203623 -0.122344 0.349116
0.0198677 0.0051299 -0.0146386
0.00731933 0.12954 -0.36965
-0.00966886 0.175373 -0.50044
-0.020792 0.114827 -0.327668
-0.0193014 -0.0153351 0.0437577
-0.00593232 -0.132442 0.377784
0.00523929 -0.349969 0.308678
0.0125398 -0.243826 0.215058
0.0122338 0.0102189 -0.00901327
0.00450698 0.258065 -0.227618
-0.00595374 0.349372 -0.308152
-0.012803 0.228755 -0.201766
-0.0118861 -0.030622 0.0270091
-0.0037593 -0.271424 0.2394
0 -0.219812 0
0 -0.16627 0
0 0.0069685 0
0 0.17598 0
0 0.238244 0
0 0.155993 0
0 -0.0208818 0
0 -0.170479 0
-0.0771891 -0.086477 -0.329731
-0.190135 -0.0621332 -0.236365
-0.185519 0.00260536 0.00991083
-0.0683448 0.0657896 0.250267
0.090285 0.0890673 0.338813
0.194147 0.0583177 0.221841
0.180231 -0.00778648 -0.0296249
0.0553847 -0.0670686 -0.255728
-0.107556 0.0993139 -0.459452
-0.264936 0.0711901 -0.329354
-0.258505 -0.00298503 0.0138097
-0.0952329 -0.0753776 0.348724
0.125805 -0.102047 0.472109
0.270527 -0.066816 0.309119
0.251136 0.00892271 -0.0412798
0.0771738 0.0770244 -0.356335
-0.0726813 0.224862 -0.310475
-0.179033 0.16119 -0.22256
-0.174684 -0.00675867 0.00933199
-0.0643545 -0.17067 0.235651
0.0850119 -0.231057 0.319028
0.182812 -0.151287 0.208885
0.169704 0.0202029 -0.0278948
0.0521503 0.174396 -0.240794
0.00628119 0.214012 0.0268316
0.0154722 0.153413 0.019234
0.0150965 -0.00643256 -0.000806473
0.00556156 -0.162436 -0.0203652
-0.00734685 -0.219906 -0.0275705
-0.0157988 -0.143986 -0.0180521
-0.0146661 0.0192281 0.0024107
-0.00450688 0.165981 0.0208097
0.0814336 0.0733453 0.347863
0.20059 0.0525767 0.24936
0.195717 -0.00220455 -0.0104558
0.072103 -0.0556692 -0.264026
-0.0952485 -0.075366 -0.357445
-0.204824 -0.0493463 -0.234041
-0.190139 0.00658974 0.0312539
-0.0584303 0.0568841 0.269791
0.10719 -0.111812 0.457885
0.263987 -0.080107 0.328174
0.257577 0.00335884 -0.0137603
0.0948917 0.0848171 -0.347475
-0.125354 0.114827 -0.470418
-0.269558 0.0751845 -0.308012
-0.250237 -0.0100409 0.0411326
-0.0769107 -0.0867176 0.35512
0.0679257 -0.229146 0.290161
0.162574 -0.159647 0.202157
0.158608 0.00669095 -0.00847256
0.0584315 0.168971 -0.213963
-0.0771883 0.228755 -0.289666
-0.165987 0.14978 -0.189662
-0.1541 -0.0200501 0.0253888
-0.0487381 -0.177718 0.225039
0 0.0294249 0
0 0.0222575 0
0 -0.000932829 0
0 -0.0235573 0
0 -0.0318922 0
0 -0.0208818 0
0 0.00279531 0
0 0.0228209 0
-0.101603 0.0115761 -0.108678
-0.250231 0.00829621 -0.0779383
-0.244152 -0.00034785 0.003268
-0.0899467 -0.00878392 0.0825236
0.11882 -0.0118918 0.111721
0.255511 -0.00778631 0.0731504
0.237194 0.00103995 -0.00976801
0.0729019 0.00897806 -0.0842866
-0.141574 -0.0132945 -0.151433
-0.348675 -0.00950711 -0.1086
-0.340204 0.000398608 0.00455367
-0.125333 0.0100657 0.114989
0.165565 0.0136271 0.155674
0.356034 0.00892251 0.101929
0.330509 -0.00119189 -0.0136108
0.101582 -0.0103108 -0.117446
-0.095669 -0.0301009 -0.102331
-0.235618 -0.0215259 -0.0733868
-0.229894 0.000902534 0.00307716
-0.0846935 0.022791 0.0777039
0.11188 0.0308547 0.105196
0.24059 0.0202024 0.0688785
0.22334 -0.00269865 -0.00919756
0.0686445 -0.0233452 -0.0793643
0.00826781 -0.0286485 0.00884354
0.0203623 -0.0204872 0.00634217
0.0198677 0.00085898 -0.00026593
0.00731933 0.0216911 -0.00671523
-0.00966886 0.0293659 -0.00909117
-0.020792 0.0192276 -0.00595256
-0.0193014 -0.00256845 0.000794866
-0.00593232 -0.0222188 0.00685874
0.10719 -0.00981827 0.114654
0.263987 -0.00702134 0.0822242
0.257577 0.000294388 -0.00344769
0.0948917 0.00743395 -0.0870611
-0.125354 0.0100642 -0.117864
-0.269558 0.00658959 -0.077173
-0.250237 -0.00088025 0.0103051
-0.0769107 -0.00761472 0.0889214
0.141092 0.0149676 0.150916
0.347426 0.0106985 0.108211
0.338986 -0.000448561 -0.00453733
0.124884 -0.0113271 -0.114576
-0.164972 -0.0153348 -0.155115
-0.354758 -0.0100406 -0.101563
-0.329324 0.00134131 0.0135623
-0.101236 0.0116083 0.117046
0.0894093 0.0306743 0.0956353
0.213993 0.021371 0.0666297
0.208772 -0.000895675 -0.00279251
0.0769122 -0.022619 -0.0705208
-0.101601 -0.030622 -0.0954722
-0.218485 -0.0200501 -0.0625114
-0.202839 0.00268398 0.00836801
-0.064153 0.0237899 0.0741714
0 0.260813 0
0 0.18171 0
0 -0.00761562 0
0 -0.192322 0
0 -0.260368 0
0 -0.170479 0
0 0.0228209 0
0 0.202278 0
-0.0643853 0.102607 0.178299
-0.154101 0.0714872 0.124222
-0.15034 -0.00299609 -0.00520624
-0.0553859 -0.075662 -0.131476
0.073165 -0.102432 -0.177995
0.157335 -0.0670686 -0.116544
0.146068 0.00897806 0.015601
0.0461977 0.0795787 0.138282
-0.0897153 -0.117839 0.248444
-0.214726 -0.0820989 0.173092
-0.209486 0.00344083 -0.00725444
-0.0771754 0.0868934 -0.183201
0.101949 0.117638 -0.24802
0.219233 0.0770244 -0.162394
0.203533 -0.0103108 0.0217386
0.0643725 -0.0913916 0.192684
-0.0606252 -0.266805 0.167886
-0.145101 -0.185885 0.116967
-0.141561 0.00779059 -0.0049022
-0.0521514 0.196741 -0.123798
0.0688922 0.26635 -0.1676
0.148147 0.174396 -0.109738
0.137537 -0.0233452 0.0146899
0.0434998 -0.206925 0.130207
0.00523929 -0.253931 -0.0145089
0.0125398 -0.176916 -0.0101084
0.0122338 0.00741468 0.000423653
0.00450698 0.187247 0.0106988
-0.00595373 0.253498 0.0144841
-0.012803 0.165981 0.00948364
-0.0118861 -0.0222188 -0.00126952
-0.0037593 -0.19694 -0.0112526
0.0679257 -0.0870262 -0.188103
0.162574 -0.0606317 -0.131053
0.158607 0.00254112 0.00549252
0.0584315 0.0641726 0.138706
-0.0771883 0.0868778 0.187782
-0.165987 0.0568841 0.122952
-0.1541 -0.00761472 -0.0164589
-0.0487381 -0.0674945 -0.145886
0.0894093 0.132668 -0.247596
0.213993 0.0924307 -0.172502
0.208772 -0.00387385 0.0072297
0.0769122 -0.0978286 0.182576
-0.101601 -0.132442 0.247174
-0.218485 -0.0867176 0.16184
-0.202839 0.0116083 -0.0216645
-0.064153 0.102893 -0.192027
0.0566584 0.271887 -0.156901
0.135607 0.189426 -0.109314
0.132298 -0.00793899 0.00458144
0.0487391 -0.200488 0.115698
-0.0643845 -0.271424 0.156634
-0.138453 -0.177718 0.102557
-0.128538 0.0237899 -0.0137287
-0.0406536 0.210867 -0.121687
