# vtk DataFile Version 3.0
Velocity field
ASCII
DATASET STRUCTURED_POINTS
DIMENSIONS 5 5 5
SPACING 1.33333 1.33333 1.33333
ORIGIN 0 0 0
POINT_DATA 125
VECTORS velocity float
0 0.0494781 0
0 0.0116391 0
0 -0.0440022 0
0 -0.0323411 0
0 0.0287865 0
0 -0.0261999 0.0859287
0 -0.0061632 0.0232957
0 0.0233003 -0.0880705
0 0.0171254 -0.0647307
0 -0.0152432 0.0499936
0 -0.0618045 0.0404273
0 -0.0145387 0.01096
0 0.0549644 -0.041435
0 0.0403981 -0.0304542
0 -0.0359581 0.0235207
0 -0.00287761 -0.0669086
0 -0.000676921 -0.0181393
0 0.00255913 0.0685764
0 0.00188093 0.0504027
0 -0.0016742 -0.0389277
0 0.0604507 -0.0719061
0 0.0142203 -0.016915
0 -0.0537604 0.063948
0 -0.0395132 0.047001
0 0.0351704 -0.0418352
0 0.0116391 0
0 0.0034839 0
0 -0.013171 0
0 -0.00968055 0
0 0.00677167 0
0.0367772 -0.0061632 0.0301766
0.0543741 -0.00145701 0.00713989
-0.0113956 0.00550836 -0.0269931
-0.0597355 0.00404858 -0.0198397
-0.0166181 -0.00358577 0.0175569
0.0173027 -0.0145387 0.0141974
0.0255817 -0.00343858 0.00335915
-0.00536134 0.0129998 -0.0126996
-0.0281041 0.00955477 -0.00933406
-0.00781838 -0.00845869 0.00826008
-0.0286367 -0.000676921 -0.0234971
-0.0423383 -0.00016011 -0.00555949
0.00887318 0.000605314 0.0210182
0.046513 0.000444899 0.0154482
0.0129397 -0.000393835 -0.0136707
-0.0307756 0.0142203 -0.0252522
-0.0452547 0.00334514 -0.00594026
0.00948436 -0.0126465 0.0224574
0.0497169 -0.00929499 0.0165059
0.0139062 0.0082734 -0.0146918
0 -0.0440022 0
0 -0.0131711 0
0 0.0497938 0
0 0.0365978 0
0 -0.0256006 0
0.0173027 0.0233003 -0.0717313
0.0255817 0.00550836 -0.0169655
-0.00536134 -0.0208249 0.0641396
-0.0281041 -0.0153061 0.0471419
-0.00781838 0.0135562 -0.0417335
0.00814051 0.0549644 -0.0337478
0.0120355 0.0129998 -0.00798183
-0.00252238 -0.0491473 0.0301762
-0.0132222 -0.0361227 0.0221792
-0.00367836 0.0319785 -0.0196346
-0.0134728 0.00255913 0.0558538
-0.0199192 0.000605314 0.0132102
0.00417462 -0.00228845 -0.0499425
0.0218832 -0.00168198 -0.0367071
0.00608781 0.00148891 0.0324959
-0.0144791 -0.0537604 0.0600256
-0.0212912 -0.0126465 0.0141203
0.00446216 0.0478105 -0.0533824
0.0233905 0.0351401 -0.0392354
0.00654252 -0.031278 0.0349231
0 -0.0323411 0
0 -0.00968056 0
0 0.0365978 0
0 0.0268989 0
0 -0.0188161 0
-0.0286367 0.0171254 -0.0639245
-0.0423383 0.00404858 -0.0151191
0.00887318 -0.0153061 0.0571592
0.046513 -0.0112498 0.0420114
0.0129397 0.00996361 -0.0371915
-0.0134728 0.0403981 -0.0300749
-0.0199192 0.00955477 -0.00711316
0.00417462 -0.0361228 0.0268919
0.0218832 -0.0265498 0.0197653
0.00608781 0.0235038 -0.0174977
0.022298 0.00188093 0.049775
0.0329669 0.000444899 0.0117725
-0.00690912 -0.00168198 -0.0445071
-0.0362174 -0.00123624 -0.0327122
-0.0100755 0.00109433 0.0289593
0.0239635 -0.0395132 0.0534927
0.0352377 -0.00929499 0.0125835
-0.00738503 0.0351401 -0.0475725
-0.0387122 0.0258276 -0.0349652
-0.0108281 -0.0229889 0.0311223
0 0.0287865 0
0 0.00677167 0
0 -0.0256006 0
0 -0.0188161 0
0 0.0167481 0
-0.0307756 -0.0152432 0.0416564
-0.0452547 -0.00358577 0.00979916
0.00948436 0.0135562 -0.0370462
0.0497168 0.00996361 -0.0272285
0.0139062 -0.00886854 0.0242359
-0.0144791 -0.0359581 0.0195983
-0.0212912 -0.00845869 0.00461026
0.00446215 0.0319785 -0.0174293
0.0233905 0.0235038 -0.0128103
0.00654252 -0.0209205 0.0114024
0.0239635 -0.0016742 -0.0324359
0.0352377 -0.000393835 -0.00763014
-0.00738502 0.00148891 0.0288461
-0.0387122 0.00109433 0.0212015
-0.0108281 -0.000974056 -0.0188713
0.0257534 0.0351704 -0.0348586
0.0378697 0.0082734 -0.00820005
-0.00793663 -0.031278 0.0310007
-0.0416037 -0.0229889 0.0227851
-0.0116369 0.0204623 -0.0202809
