# vtk DataFile Version 3.0
Velocity field
ASCII
DATASET STRUCTURED_POINTS
DIMENSIONS 8 8 8
SPACING 0.8 0.8 0.8
ORIGIN 0 0 0
POINT_DATA 512
VECTORS velocity float
0 0.414053 0
0 0.288474 0
0 -0.0120902 0
0 -0.30532 0
0 -0.413347 0
0 -0.270643 0
0 0.0362293 0
0 0.321125 0
0 0.162894 0.422603
0 0.113489 0.312166
0 -0.00475643 -0.0130831
0 -0.120117 -0.330396
0 -0.162616 -0.447295
0 -0.106475 -0.292871
0 0.0142531 0.0392048
0 0.126335 0.327757
0 -0.187074 0.588861
0 -0.130336 0.434976
0 0.00546249 -0.0182302
0 0.137947 -0.460378
0 0.186755 -0.623268
0 0.12228 -0.408091
0 -0.0163689 0.0546285
0 -0.145088 0.4567
0 -0.423566 0.397923
0 -0.295101 0.293936
0 0.0123679 -0.0123191
0 0.312335 -0.311101
0 0.422844 -0.421174
0 0.276861 -0.275768
0 -0.0370617 0.0369153
0 -0.328503 0.308616
0 -0.403128 -0.0343889
0 -0.280862 -0.0254022
0 0.0117712 0.00106463
0 0.297264 0.0268857
0 0.402441 0.0363982
0 0.263502 0.0238321
0 -0.0352734 -0.00319026
0 -0.312652 -0.0266709
0 -0.138158 -0.445841
0 -0.0962557 -0.329331
0 0.00403416 0.0138026
0 0.101877 0.348564
0 0.137923 0.471891
0 0.0903062 0.308976
0 -0.0120887 -0.0413606
0 -0.107151 -0.345779
0 0.210617 -0.586853
0 0.146738 -0.433493
0 -0.00614991 0.018168
0 -0.155308 0.458808
0 -0.210258 0.621142
0 -0.137668 0.406699
0 0.0184288 -0.0544422
0 0.163347 -0.455143
0 0.431634 -0.371887
0 0.300723 -0.259096
0 -0.0126035 0.0108589
0 -0.318284 0.274227
0 -0.430898 0.371253
0 -0.282135 0.243081
0 0.0377676 -0.0325398
0 0.334761 -0.288423
0 0.288474 0
0 0.218206 0
0 -0.00914521 0
0 -0.23095 0
0 -0.312663 0
0 -0.204719 0
0 0.0274045 0
0 0.22373 0
0.0900853 0.113489 0.417417
0.223466 0.0820779 0.301462
0.218051 -0.00344259 -0.0126442
0.0803302 -0.0869259 -0.319266
-0.106117 -0.117682 -0.43223
-0.228197 -0.0770534 -0.283008
-0.211825 0.010275 0.0377411
-0.064638 0.0880185 0.323734
0.125526 -0.130336 0.581634
0.311377 -0.0940147 0.420066
0.303831 0.00394302 -0.0176185
0.111934 0.0995638 -0.444873
-0.147864 0.13479 -0.602269
-0.317969 0.0882553 -0.394347
-0.295158 -0.0117713 0.0525894
-0.0900674 -0.101084 0.451096
0.0848244 -0.295101 0.39304
0.210414 -0.212867 0.283861
0.205317 0.00892801 -0.0119057
0.0756386 0.225434 -0.30062
-0.09992 0.305193 -0.406989
-0.214869 0.199832 -0.266478
-0.199455 -0.0266529 0.0355374
-0.0608632 -0.22887 0.304828
-0.0073306 -0.280862 -0.0339669
-0.0181842 -0.202599 -0.0245315
-0.0177437 0.00849713 0.0010289
-0.00653683 0.214556 0.0259802
0.00863516 0.29047 0.0351722
0.018569 0.190189 0.0230293
0.0172371 -0.0253668 -0.00307116
0.00525986 -0.217827 -0.0263436
-0.0950389 -0.0962557 -0.44037
-0.235751 -0.0694343 -0.31804
-0.230042 0.00291214 0.0133394
-0.0847463 0.0735324 0.336818
0.111952 0.0995499 0.455998
0.24074 0.0651809 0.298566
0.223474 -0.00869364 -0.0398165
0.0681923 -0.0746526 -0.341536
-0.125098 0.146738 -0.579651
-0.310233 0.105761 -0.418526
-0.302715 -0.00443561 0.0175536
-0.111523 -0.112001 0.443237
0.14732 -0.151628 0.600054
0.316798 -0.0992817 0.392896
0.294073 0.0132435 -0.0523981
0.0897603 0.113805 -0.449557
-0.0792742 0.300723 -0.367323
-0.189736 0.209515 -0.255916
-0.185106 -0.00878096 0.0107257
-0.0681938 -0.221751 0.270862
0.0900842 -0.30021 0.366697
0.193718 -0.196565 0.240098
0.179846 0.026313 -0.0321405
0.0568808 0.23323 -0.284883
0 -0.0120902 0
0 -0.00914521 0
0 0.000383283 0
0 0.00967928 0
0 0.013104 0
0 0.00857995 0
0 -0.00114854 0
0 -0.00937672 0
0.125526 -0.00475643 0.159031
0.311377 -0.00344259 0.114787
0.303831 0.000144397 -0.00481433
0.111934 0.00364603 -0.121563
-0.147864 0.00493597 -0.164573
-0.317969 0.00323193 -0.107758
-0.295158 -0.000430916 0.014371
-0.0900674 -0.00368893 0.123339
0.17491 0.00546249 0.221596
0.433881 0.00394302 0.159944
0.423366 -0.000165377 -0.00670839
0.155969 -0.00417584 -0.169387
-0.206038 -0.00565332 -0.229324
-0.443066 -0.00370162 -0.150151
-0.411282 0.000493648 0.0200246
-0.125501 0.00423652 0.171862
0.118195 0.0123679 0.149744
0.293192 0.00892801 0.108083
0.286092 -0.000374455 -0.00453324
0.105397 -0.00945509 -0.114466
-0.13923 -0.0128006 -0.154963
-0.299399 -0.00838123 -0.101465
-0.277923 0.00111774 0.0135317
-0.0848076 0.00959215 0.116136
-0.0102146 0.0117712 -0.012941
-0.0253382 0.00849713 -0.00934058
-0.0247242 -0.000356387 0.000391765
-0.00910845 -0.00899898 0.00989209
0.0120324 -0.0121829 0.0133922
0.0258746 -0.0079768 0.00876871
0.0240184 0.0010638 -0.00116942
0.00732915 0.00912931 -0.0100366
-0.132428 0.00403416 -0.167776
-0.328495 0.00291214 -0.121097
-0.320539 -0.000122141 0.00507905
-0.118088 -0.00308411 0.128247
0.155994 -0.00417527 0.173623
0.335449 -0.0027338 0.113684
0.311388 0.000364583 -0.015161
0.0950201 0.00312875 -0.130121
-0.174313 -0.00614991 -0.22084
-0.432286 -0.00443561 -0.159357
-0.42181 0.000186033 0.00668374
-0.155395 0.00469741 0.168764
0.20528 0.00635944 0.228478
0.441437 0.0041639 0.149598
0.409769 -0.00055538 -0.0199517
0.125073 -0.00476966 -0.171276
-0.110462 -0.0126035 -0.139946
-0.264381 -0.00878096 -0.0975012
-0.25793 0.000368017 0.00408636
-0.0950221 0.00929376 0.103195
0.125525 0.012582 0.139707
0.26993 0.00823821 0.0914747
0.250599 -0.0011028 -0.0122452
0.0792585 -0.00977486 -0.108537
0 -0.30532 0
0 -0.23095 0
0 0.00967928 0
0 0.244437 0
0 0.330922 0
0 0.216675 0
0 -0.0290049 0
0 -0.236796 0
0.0848244 -0.120117 -0.195821
0.210414 -0.0869259 -0.141338
0.205317 0.00364603 0.00592796
0.0756386 0.0920615 0.149682
-0.09992 0.124634 0.202644
-0.214869 0.0816056 0.132682
-0.199455 -0.0108809 -0.0176952
-0.0608632 -0.0931587 -0.151872
0.118195 0.137947 -0.272859
0.293192 0.0995638 -0.196942
0.286092 -0.00417584 0.00826006
0.105397 -0.105442 0.208572
-0.13923 -0.14275 0.282366
-0.299399 -0.0934664 0.184881
-0.277923 0.0124651 -0.0246566
-0.0848076 0.106987 -0.21162
0.0798707 0.312335 -0.184385
0.198127 0.225434 -0.133083
0.193326 -0.00945509 0.00558173
0.0712224 -0.238744 0.140942
-0.0940843 -0.323215 0.190809
-0.202321 -0.21163 0.124933
-0.187806 0.0282239 -0.0166617
-0.0573088 0.242236 -0.143003
-0.0069025 0.297264 0.0159347
-0.0171223 0.214556 0.0115012
-0.0167073 -0.00899898 -0.00048238
-0.00615509 -0.227227 -0.0121803
0.00813079 -0.307618 -0.0164897
0.0174848 -0.201419 -0.0107968
0.0162303 0.026862 0.00143992
0.00495269 0.230548 0.0123584
-0.0894887 0.101877 0.206589
-0.221985 0.0735324 0.149108
-0.216606 -0.00308411 -0.00625393
-0.079798 -0.077874 -0.157912
0.105414 -0.105427 -0.213786
0.226685 -0.0690301 -0.139979
0.210422 0.00920605 0.018668
0.06421 0.0790123 0.160223
-0.117792 -0.155308 0.271929
-0.292115 -0.112001 0.19622
-0.285039 0.00469741 -0.00822968
-0.105009 0.118611 -0.207805
0.138717 0.160578 -0.281328
0.298298 0.10514 -0.184202
0.276901 -0.0140239 0.024567
0.0845183 -0.120451 0.210899
-0.0746446 -0.318284 0.172321
-0.178655 -0.221751 0.120057
-0.174296 0.00929376 -0.00503168
-0.0642113 0.234701 -0.127068
0.0848234 0.317742 -0.172027
0.182405 0.208045 -0.112636
0.169343 -0.0278496 0.0150779
0.053559 -0.246851 0.133646
0 -0.413347 0
0 -0.312663 0
0 0.013104 0
0 0.330922 0
0 0.448007 0
0 0.293337 0
0 -0.0392672 0
0 -0.320578 0
-0.0073306 -0.162616 -0.43189
-0.0181842 -0.117682 -0.311724
-0.0177437 0.00493597 0.0130744
-0.00653683 0.124634 0.330126
0.00863516 0.168731 0.44694
0.018569 0.11048 0.292636
0.0172371 -0.0147309 -0.0390271
0.00525986 -0.12612 -0.334959
-0.0102146 0.186755 -0.601802
-0.0253382 0.13479 -0.434362
-0.0247242 -0.00565333 0.018218
-0.00910845 -0.14275 0.460014
0.0120324 -0.193256 0.622764
0.0258746 -0.126536 0.407767
0.0240184 0.0168754 -0.0543813
0.00732915 0.144841 -0.466737
-0.0069025 0.422844 -0.406668
-0.0171223 0.305193 -0.29352
-0.0167073 -0.0128006 0.0123109
-0.00615509 -0.323215 0.31085
0.00813079 -0.437577 0.420836
0.0174848 -0.28651 0.275548
0.0162303 0.0382096 -0.036748
0.00495269 0.327943 -0.315398
0.000596521 0.402441 0.0351447
0.00147972 0.29047 0.0253665
0.00144387 -0.0121829 -0.00106391
0.000531925 -0.307618 -0.0268641
-0.000702675 -0.416464 -0.036369
-0.00151105 -0.272683 -0.0238131
-0.00140264 0.0363661 0.00317581
-0.000428016 0.312119 0.027257
0.0077337 0.137923 0.455639
0.019184 0.0995499 0.328863
0.0187192 -0.00417527 -0.0137933
0.00689627 -0.105427 -0.348279
-0.00910993 -0.14273 -0.471512
-0.0195901 -0.0934535 -0.308727
-0.0181848 0.0124633 0.0411729
-0.00554909 0.106968 0.353378
0.0101797 -0.210258 0.59975
0.0252451 -0.151628 0.432768
0.0246333 0.00635944 -0.018151
0.00907497 0.160578 -0.458319
-0.0119881 0.217393 -0.620476
-0.0257794 0.142341 -0.406268
-0.0239301 -0.0189856 0.0541836
-0.00730416 -0.163069 0.465145
0.00645086 -0.430898 0.38006
0.0154396 -0.30021 0.26479
0.0150629 0.012582 -0.0110976
0.0055492 0.317742 -0.280254
-0.00733052 0.430164 -0.379411
-0.0157637 0.281654 -0.248423
-0.0146348 -0.0377032 0.0332549
-0.00462862 -0.33419 0.294761
0 -0.270643 0
0 -0.204719 0
0 0.00857995 0
0 0.216675 0
0 0.293337 0
0 0.192066 0
0 -0.0257106 0
0 -0.209902 0
-0.0950389 -0.106475 -0.405981
-0.235751 -0.0770534 -0.293025
-0.230042 0.00323193 0.0122901
-0.0847463 0.0816056 0.310325
0.111952 0.11048 0.420126
0.24074 0.0723384 0.275083
0.223474 -0.0096452 -0.036686
0.0681923 -0.0825781 -0.314865
-0.132428 0.12228 -0.5657
-0.328495 0.0882553 -0.408309
-0.320539 -0.00370162 0.0171251
-0.118088 -0.0934664 0.432415
0.155994 -0.126536 0.585405
0.335449 -0.0828502 0.383304
0.311388 0.0110494 -0.0511189
0.0950201 0.0948362 -0.438737
-0.0894887 0.276861 -0.382272
-0.221985 0.199832 -0.275914
-0.216606 -0.00838123 0.0115723
-0.079798 -0.21163 0.292203
0.105414 -0.28651 0.395591
0.226685 -0.187594 0.259015
0.210422 0.0250183 -0.0345436
0.06421 0.214724 -0.296477
0.0077337 0.263502 0.0330363
0.019184 0.190189 0.0238448
0.0187192 -0.0079768 -0.00100008
0.00689627 -0.201419 -0.0252526
-0.00910993 -0.272683 -0.0341873
-0.0195901 -0.178541 -0.0223844
-0.0181848 0.0238111 0.00298529
-0.00554909 0.204363 0.0256219
0.100265 0.0903062 0.428305
0.248712 0.0651809 0.309135
0.242685 -0.0027338 -0.0129659
0.0894065 -0.0690301 -0.327387
-0.118107 -0.0934535 -0.443228
-0.253977 -0.0611892 -0.290209
-0.235759 0.00816047 0.0387031
-0.0719421 0.0700384 0.332179
0.131977 -0.137668 0.56377
0.327288 -0.0992817 0.406809
0.319359 0.0041639 -0.0170621
0.117654 0.10514 -0.430826
-0.155421 0.142342 -0.583255
-0.334215 0.0931998 -0.381895
-0.310243 -0.0124312 0.050933
-0.0946961 -0.106771 0.437241
0.0836334 -0.282135 0.35726
0.200169 -0.196565 0.248905
0.195285 0.00823821 -0.0104318
0.0719436 0.208045 -0.263441
-0.0950379 0.281654 -0.35665
-0.204371 0.184416 -0.23352
-0.189735 -0.0246866 0.0312599
-0.0600086 -0.218814 0.277078
0 0.0362293 0
0 0.0274045 0
0 -0.00114854 0
0 -0.0290049 0
0 -0.0392672 0
0 -0.0257106 0
0 0.00344172 0
0 0.0280982 0
-0.125098 0.0142531 -0.133809
-0.310233 0.0102747 -0.0966447
-0.302715 -0.000430904 0.00405354
-0.111523 -0.0108806 0.102353
0.14732 -0.0147304 0.138567
0.316798 -0.00964493 0.0907277
0.294073 0.0012868 -0.0120985
0.0897603 0.0110542 -0.103778
-0.174313 -0.0163689 -0.186451
-0.432286 -0.011771 -0.134666
-0.42181 0.000493634 0.00564822
-0.155395 0.0124648 0.14262
0.20528 0.0168749 0.19308
0.441437 0.0110491 0.126422
0.409769 -0.00147443 -0.0168583
0.125073 -0.0126951 -0.144605
-0.117792 -0.0370617 -0.125995
-0.292115 -0.0266521 -0.0910005
-0.285039 0.00111771 0.00381682
-0.105009 0.0282231 0.0963753
0.138717 0.0382085 0.130474
0.298298 0.0250176 0.0854295
0.276901 -0.00333839 -0.011392
0.0845183 -0.0287438 -0.0977172
0.0101797 -0.0352734 0.0108886
0.0252451 -0.025366 0.00786437
0.0246333 0.00106377 -0.000329851
0.00907497 0.0268612 -0.00832886
-0.0119881 0.0363651 -0.0112757
-0.0257794 0.0238104 -0.00738295
-0.0239301 -0.00317731 0.000984512
-0.00730416 -0.0273568 0.00844481
0.131977 -0.0120887 0.141167
0.327288 -0.00869341 0.101959
0.319359 0.000364572 -0.00427643
0.117654 0.00920578 -0.107981
-0.155421 0.012463 -0.146185
-0.334215 0.00816024 -0.0957168
-0.310243 -0.00108892 0.0127638
-0.0946961 -0.0093756 0.109484
0.173719 0.0184288 0.185815
0.430699 0.0132431 0.134171
0.42026 -0.000555365 -0.0056274
0.154825 -0.0140235 -0.142094
-0.204525 -0.0189851 -0.192369
-0.439815 -0.0124308 -0.125956
-0.408263 0.00165896 0.0167969
-0.124647 0.0142927 0.144112
0.110085 0.0377676 0.117751
0.263479 0.026313 0.0820377
0.25705 -0.0011028 -0.00343827
0.094698 -0.0278496 -0.0868286
-0.125096 -0.0377032 -0.11755
-0.269009 -0.0246866 -0.076967
-0.249745 0.00330464 0.0103031
-0.0789882 0.0292913 0.0913234
0 0.321125 0
0 0.22373 0
0 -0.00937672 0
0 -0.236796 0
0 -0.320578 0
0 -0.209902 0
0 0.0280982 0
0 0.249054 0
-0.0792742 0.126335 0.21953
-0.189736 0.0880185 0.152948
-0.185106 -0.00368893 -0.00641017
-0.0681937 -0.0931587 -0.16188
0.0900842 -0.12612 -0.219155
0.193718 -0.0825781 -0.143494
0.179846 0.0110542 0.0192087
0.0568808 0.0979812 0.17026
-0.110462 -0.145088 0.305896
-0.264381 -0.101084 0.213119
-0.25793 0.00423652 -0.00893201
-0.0950221 0.106987 -0.225566
0.125525 0.144841 -0.305374
0.26993 0.0948362 -0.199947
0.250599 -0.0126951 0.0267656
0.0792585 -0.112526 0.237242
-0.0746446 -0.328503 0.206709
-0.178655 -0.22887 0.144016
-0.174296 0.00959215 -0.00603582
-0.0642113 0.242236 -0.152426
0.0848234 0.327943 -0.206357
0.182405 0.214724 -0.135114
0.169343 -0.0287438 0.0180869
0.053559 -0.254776 0.160317
0.00645086 -0.312652 -0.017864
0.0154396 -0.217827 -0.012446
0.0150629 0.00912931 0.000521621
0.0055492 0.230548 0.0131728
-0.00733052 0.312119 0.0178336
-0.0157637 0.204363 0.0116767
-0.0146348 -0.0273568 -0.00156309
-0.00462862 -0.242483 -0.0138547
0.0836334 -0.107151 -0.231601
0.200169 -0.0746526 -0.161358
0.195285 0.00312875 0.00676265
0.0719436 0.0790123 0.170781
-0.0950379 0.106968 0.231206
-0.204371 0.0700384 0.151385
-0.189735 -0.0093756 -0.0202649
-0.0600086 -0.0831025 -0.179622
0.110085 0.163347 -0.304852
0.263479 0.113805 -0.212393
0.25705 -0.00476966 0.00890155
0.094698 -0.120451 0.224796
-0.125096 -0.163069 0.304332
-0.269009 -0.106771 0.199265
-0.249744 0.0142927 -0.0266743
-0.0789882 0.126686 -0.236433
0.0697605 0.334761 -0.193184
0.166966 0.23323 -0.134593
0.162892 -0.00977486 0.00564089
0.0600099 -0.246851 0.142453
-0.0792733 -0.33419 0.192855
-0.17047 -0.218814 0.126274
-0.158262 0.0292913 -0.0169034
-0.0500546 0.259629 -0.149827
