# vtk DataFile Version 3.0
Velocity field
ASCII
DATASET STRUCTURED_POINTS
DIMENSIONS 8 8 8
SPACING 0.8 0.8 0.8
ORIGIN 0 0 0
POINT_DATA 512
VECTORS velocity float
0 0.250111 0
0 0.174254 0
0 -0.00730313 0
0 -0.18443 0
0 -0.249685 0
0 -0.163484 0
0 0.0218845 0
0 0.193978 0
0 0.098397 0.255276
0 0.0685539 0.188566
0 -0.00287315 -0.00790294
0 -0.0725574 -0.199578
0 -0.0982293 -0.270191
0 -0.0643166 -0.17691
0 0.00860966 0.0236819
0 0.0763134 0.197983
0 -0.113003 0.355705
0 -0.0787302 0.26275
0 0.00329965 -0.0110121
0 0.0833279 -0.278094
0 0.112811 -0.376488
0 0.0738639 -0.246509
0 -0.0098877 0.0329987
0 -0.0876415 0.275872
0 -0.255857 0.240368
0 -0.178258 0.177554
0 0.00747092 -0.00744141
0 0.188668 -0.187922
0 0.255421 -0.254412
0 0.16724 -0.166579
0 -0.0223873 0.0222989
0 -0.198434 0.186421
0 -0.243512 -0.0207728
0 -0.169656 -0.0153444
0 0.00711043 0.000643094
0 0.179564 0.0162404
0 0.243097 0.0219866
0 0.15917 0.0143959
0 -0.0213071 -0.00192709
0 -0.188859 -0.0161107
0 -0.0834552 -0.269313
0 -0.0581438 -0.198935
0 0.00243685 0.00833751
0 0.0615393 0.210552
0 0.0833129 0.285049
0 0.05455 0.186639
0 -0.00730226 -0.0249841
0 -0.064725 -0.20887
0 0.127224 -0.354492
0 0.088638 -0.261854
0 -0.00371489 0.0109745
0 -0.0938144 0.277146
0 -0.127007 0.375204
0 -0.0831593 0.245669
0 0.011132 -0.0328861
0 0.0986708 -0.274932
0 0.260731 -0.22464
0 0.181653 -0.156508
0 -0.00761323 0.00655939
0 -0.192261 0.165648
0 -0.260286 0.224257
0 -0.170425 0.146835
0 0.0228138 -0.0196558
0 0.202214 -0.174223
0 0.174254 0
0 0.131809 0
0 -0.00552421 0
0 -0.139506 0
0 -0.188866 0
0 -0.123662 0
0 0.0165538 0
0 0.135145 0
0.0544165 0.0685539 0.252143
0.133042 0.048861 0.179505
0.129803 -0.00204833 -0.00752511
0.0478204 -0.0517264 -0.190031
-0.0631701 -0.0700281 -0.257265
-0.135843 -0.0458515 -0.168447
-0.126108 0.00612925 0.0225187
-0.0390449 0.053168 0.195553
0.0758247 -0.0787302 0.351339
0.185383 -0.0560104 0.250125
0.18087 0.00234799 -0.0104855
0.066633 0.0592937 -0.264789
-0.0880232 0.0802725 -0.358479
-0.189286 0.0525592 -0.234718
-0.175722 -0.00702668 0.0313778
-0.0544057 -0.0610604 0.272487
0.0512386 -0.178258 0.237418
0.125271 -0.126817 0.169022
0.122224 0.00531631 -0.00708563
0.0450274 0.134252 -0.178933
-0.0594817 0.181752 -0.242243
-0.127909 0.119004 -0.15861
-0.118744 -0.0159096 0.0212036
-0.0367647 -0.13825 0.184133
-0.00442809 -0.169656 -0.0205179
-0.0108262 -0.120698 -0.0146071
-0.0105627 0.00505977 0.000612344
-0.00389131 0.127773 0.0154636
0.00514044 0.172983 0.0209347
0.0110542 0.113263 0.0137072
0.010262 -0.015142 -0.00183244
0.00317725 -0.13158 -0.015913
-0.0574088 -0.0581438 -0.266008
-0.140357 -0.0413654 -0.189376
-0.136942 0.00173407 0.00793886
-0.0504494 0.0437904 0.200479
0.066644 0.0592838 0.271412
0.143312 0.0388166 0.177711
0.133043 -0.00518941 -0.023757
0.041192 -0.0450943 -0.206307
-0.0755661 0.088638 -0.350141
-0.184733 0.0630405 -0.249248
-0.180236 -0.00264271 0.0104488
-0.0663994 -0.0667361 0.263861
0.0877145 -0.0903479 0.357222
0.188622 -0.0591562 0.233895
0.175106 0.00790882 -0.0312681
0.0542202 0.0687446 -0.271557
-0.047886 0.181653 -0.221883
-0.114611 0.126559 -0.154588
-0.111815 -0.00530419 0.0064789
-0.0411928 -0.13395 0.163615
0.0544159 -0.181343 0.221505
0.117017 -0.118736 0.145033
0.108637 0.0158945 -0.0194146
0.0343592 0.140884 -0.172085
0 -0.00730313 0
0 -0.00552421 0
0 0.000231524 0
0 0.00584682 0
0 0.00791552 0
0 0.00518277 0
0 -0.000693784 0
0 -0.00566406 0
0.0758247 -0.00287315 0.0960636
0.185383 -0.00204833 0.0683576
0.18087 8.58703e-05 -0.00286563
0.066633 0.00216847 -0.0723652
-0.0880232 0.00293571 -0.0979684
-0.189286 0.00192219 -0.064146
-0.175722 -0.000256943 0.00857552
-0.0544057 -0.00222832 0.0745037
0.105655 0.00329965 0.133856
0.258313 0.00234799 0.0952505
0.252025 -9.84297e-05 -0.00399297
0.0928479 -0.00248564 -0.100834
-0.122653 -0.0033651 -0.136512
-0.263751 -0.00220335 -0.089383
-0.244854 0.000294558 0.0119493
-0.0758097 0.00255909 0.103814
0.0713966 0.00747092 0.0904536
0.174557 0.00531631 0.0643652
0.170308 -0.000222865 -0.00269828
0.0627413 -0.005628 -0.0681392
-0.0828823 -0.0076193 -0.092248
-0.178232 -0.00498875 -0.0604006
-0.165459 0.000666934 0.00807469
-0.0512285 0.00579419 0.0701527
-0.00617016 0.00711043 -0.00781709
-0.0150854 0.00505977 -0.00556256
-0.0147182 -0.000212111 0.000233188
-0.00542223 -0.00535644 0.00588867
0.00716279 -0.00725164 0.0079721
0.015403 -0.00474806 0.00521984
0.0142992 0.000634751 -0.000697828
0.00442722 0.00551461 -0.00606267
-0.0799942 0.00243685 -0.101346
-0.195575 0.00173407 -0.0721162
-0.190817 -7.2694e-05 0.00302321
-0.0702971 -0.00183574 0.0763437
0.0928633 -0.00248523 0.103356
0.199693 -0.00162723 0.0676735
0.185385 0.00021754 -0.00904708
0.0573974 0.00188994 -0.0786005
-0.105295 -0.00371489 -0.1334
-0.257408 -0.00264271 -0.0949163
-0.251142 0.000110784 0.00397898
-0.0925225 0.00279764 0.100481
0.122222 0.00378749 0.136033
0.262827 0.00247988 0.0890695
0.243995 -0.000331538 -0.0119075
0.0755511 -0.00288114 -0.10346
-0.066725 -0.00761323 -0.0845351
-0.159701 -0.00530419 -0.0588962
-0.155804 0.000222303 0.00246839
-0.0573986 0.00561395 0.0623356
0.0758238 0.00760025 0.084391
0.163053 0.00497634 0.0552558
0.151376 -0.000666151 -0.00739675
0.0478765 -0.00590456 -0.0655625
0 -0.18443 0
0 -0.139506 0
0 0.00584682 0
0 0.147653 0
0 0.199895 0
0 0.130884 0
0 -0.0175206 0
0 -0.143038 0
0.0512386 -0.0725574 -0.118287
0.125271 -0.0517264 -0.0841706
0.122224 0.00216847 0.00352852
0.0450274 0.05476 0.0891057
-0.0594817 0.0741351 0.120632
-0.127909 0.0485404 0.0789846
-0.118744 -0.00648856 -0.0105593
-0.0367647 -0.056273 -0.0917391
0.0713966 0.0833279 -0.164822
0.174557 0.0592937 -0.117284
0.170308 -0.00248564 0.00491664
0.0627413 -0.0627695 0.124161
-0.0828823 -0.0849792 0.16809
-0.178232 -0.0556409 0.110059
-0.165459 0.00743848 -0.0147134
-0.0512285 0.0646263 -0.12783
0.0482463 0.188668 -0.111379
0.117957 0.134252 -0.0792547
0.115086 -0.005628 0.00332243
0.042398 -0.142123 0.0839015
-0.0560079 -0.19241 0.113587
-0.120441 -0.12598 0.0743723
-0.11181 0.0168421 -0.00994258
-0.0346177 0.146324 -0.0863816
-0.0041695 0.179564 0.00962547
-0.0101939 0.127773 0.00684929
-0.00994575 -0.00535644 -0.000287129
-0.00366409 -0.135265 -0.00725088
0.00484021 -0.183124 -0.00981624
0.0104085 -0.119903 -0.00642731
0.00966262 0.0160293 0.00085925
0.0029917 0.139264 0.00746518
-0.0540562 0.0615393 0.124791
-0.13216 0.0437904 0.0887992
-0.128944 -0.00183574 -0.00372254
-0.0475037 -0.0463577 -0.0940052
0.0627517 -0.062759 -0.127264
0.134943 -0.0410924 -0.0833282
0.125272 0.00549355 0.0111399
0.0387864 0.0477278 0.0967837
-0.0711531 -0.0938144 0.16426
-0.173945 -0.0667361 0.116873
-0.169711 0.00279764 -0.00489941
-0.0625215 0.0706481 -0.123725
0.0825917 0.0956451 -0.167501
0.177607 0.062624 -0.109673
0.164879 -0.00837232 0.014662
0.0510538 -0.0727592 0.127395
-0.0450895 -0.192261 0.104091
-0.107918 -0.13395 0.072521
-0.105285 0.00561395 -0.00303941
-0.0387872 0.141772 -0.0767562
0.051238 0.191934 -0.103914
0.110183 0.12567 -0.0680385
0.102292 -0.0168227 0.00910789
0.0323526 -0.149111 0.0807295
0 -0.249685 0
0 -0.188866 0
0 0.00791552 0
0 0.199895 0
0 0.270621 0
0 0.177192 0
0 -0.0237196 0
0 -0.193647 0
-0.00442809 -0.0982293 -0.260886
-0.0108262 -0.0700281 -0.185641
-0.0105627 0.00293571 0.00778227
-0.00389131 0.0741351 0.196523
0.00514044 0.100365 0.266057
0.0110542 0.0657148 0.174205
0.010262 -0.00878433 -0.0232889
0.00317725 -0.0761832 -0.202334
-0.00617016 0.112811 -0.363522
-0.0150854 0.0802725 -0.258673
-0.0147182 -0.00336511 0.0108439
-0.00542223 -0.0849792 0.27384
0.00716279 -0.115046 0.37073
0.015403 -0.0753276 0.24274
0.0142992 0.0100703 -0.0324509
0.00442722 0.087492 -0.281935
-0.0041695 0.255421 -0.24565
-0.0101939 0.181752 -0.1748
-0.00994575 -0.0076193 0.00732783
-0.00366409 -0.19241 0.185048
0.00484021 -0.260484 0.250518
0.0104085 -0.170556 0.164031
0.00966262 0.022801 -0.0219289
0.0029917 0.198096 -0.190518
0.000360332 0.243097 0.0212293
0.000880971 0.172983 0.0151064
0.000859527 -0.00725164 -0.000633271
0.000316651 -0.183124 -0.0159919
-0.000418298 -0.247918 -0.0216503
-0.00089952 -0.162325 -0.0141758
-0.000835057 0.0217009 0.00189511
-0.000258545 0.188537 0.0164648
0.00467159 0.0833129 0.275231
0.0114215 0.0592838 0.195848
0.0111436 -0.00248523 -0.00821015
0.00410528 -0.062759 -0.20733
-0.00542313 -0.0849651 -0.280687
-0.011662 -0.0556317 -0.183784
-0.0108263 0.00743724 0.0245694
-0.00335196 0.0646146 0.21346
0.00614912 -0.127007 0.362282
0.0150325 -0.0903479 0.257767
0.0146666 0.00378749 -0.010806
0.00540323 0.0956451 -0.27288
-0.00713769 0.129485 -0.369431
-0.0153489 0.0847821 -0.241888
-0.0142491 -0.0113345 0.0323375
-0.00441212 -0.0985025 0.280973
0.00389668 -0.260286 0.229577
0.00932637 -0.181343 0.159948
0.0090988 0.00760025 -0.00670355
0.00335203 0.191934 -0.169289
-0.00442804 0.259843 -0.229186
-0.00952212 0.170135 -0.150062
-0.00884021 -0.0227749 0.0200878
-0.00279595 -0.201869 0.178052
0 -0.163484 0
0 -0.123662 0
0 0.00518277 0
0 0.130884 0
0 0.177192 0
0 0.116018 0
0 -0.0155306 0
0 -0.126792 0
-0.0574088 -0.0643166 -0.245235
-0.140357 -0.0458515 -0.174505
-0.136942 0.00192219 0.00731544
-0.0504494 0.0485404 0.184736
0.066644 0.0657148 0.250095
0.143312 0.0430277 0.163753
0.133043 -0.00575163 -0.0218918
0.041192 -0.0498817 -0.190196
-0.0799942 0.0738639 -0.341714
-0.195575 0.0525592 -0.243157
-0.190817 -0.00220335 0.0101933
-0.0702971 -0.0556409 0.257411
0.0928633 -0.0753276 0.34849
0.199693 -0.0493212 0.228178
0.185385 0.00659362 -0.0305044
0.0573974 0.0572863 -0.265022
-0.0540562 0.16724 -0.230914
-0.13216 0.119004 -0.164313
-0.128944 -0.00498875 0.00688818
-0.0475037 -0.12598 0.173947
0.0627517 -0.170556 0.235492
0.134943 -0.111673 0.15419
0.125272 0.0149293 -0.0206133
0.0387864 0.129705 -0.179089
0.00467159 0.15917 0.0199558
0.0114215 0.113263 0.0142002
0.0111436 -0.00474806 -0.000595281
0.00410528 -0.119903 -0.0150327
-0.00542313 -0.162325 -0.0203514
-0.011662 -0.106284 -0.0133253
-0.0108263 0.0142089 0.00178143
-0.00335196 0.123447 0.015477
0.0605656 0.05455 0.25872
0.148076 0.0388166 0.1841
0.144472 -0.00162723 -0.00771772
0.0532235 -0.0410924 -0.194892
-0.0703087 -0.0556317 -0.263848
-0.151193 -0.0364253 -0.172759
-0.140359 0.00486959 0.0230956
-0.043457 0.0423071 0.200655
0.0797213 -0.0831593 0.340548
0.194889 -0.0591562 0.242304
0.190147 0.00247988 -0.0101576
0.0700507 0.062624 -0.256509
-0.0925378 0.0847821 -0.347269
-0.198993 0.0555119 -0.227378
-0.184735 -0.00742141 0.0303976
-0.0572017 -0.0644955 0.264118
0.0505192 -0.170425 0.215805
0.120913 -0.118736 0.150352
0.117963 0.00497634 -0.0063014
0.0434579 0.12567 -0.159133
-0.0574081 0.170135 -0.215437
-0.123451 0.111397 -0.141059
-0.11461 -0.0149121 0.0188827
-0.0362485 -0.132176 0.167371
0 0.0218845 0
0 0.0165538 0
0 -0.000693784 0
0 -0.0175206 0
0 -0.0237196 0
0 -0.0155306 0
0 0.00207899 0
0 0.0169729 0
-0.0755661 0.00860966 -0.0808281
-0.184733 0.00612915 -0.0575296
-0.180236 -0.000256938 0.0024117
-0.0663994 -0.00648845 0.0609029
0.0877145 -0.00878418 0.0824506
0.188622 -0.00575154 0.0539854
0.175106 0.000768929 -0.00721701
0.0542202 0.00667736 -0.0626875
-0.105295 -0.0098877 -0.112627
-0.257408 -0.00702656 -0.0801624
-0.251142 0.000294553 0.0033605
-0.0925225 0.00743836 0.0848626
0.122222 0.0100701 0.114888
0.262827 0.0065935 0.0752245
0.243995 -0.00088158 -0.0100563
0.0755511 -0.00766856 -0.0873496
-0.0711531 -0.0223873 -0.0761078
-0.173945 -0.0159093 -0.0541698
-0.169711 0.000666922 0.00227087
-0.0625215 0.0168418 0.057346
0.0825917 0.0228006 0.0776355
0.177607 0.014929 0.0508329
0.164879 -0.00199605 -0.00679552
0.0510538 -0.0173628 -0.0590266
0.00614912 -0.0213071 0.00657731
0.0150325 -0.0151417 0.00468142
0.0146666 0.00063474 -0.00019625
0.00540324 0.0160291 -0.00495588
-0.00713769 0.0217005 -0.00670935
-0.0153489 0.0142086 -0.00439302
-0.0142491 -0.00189975 0.00058728
-0.00441212 -0.016525 0.00510114
0.0797213 -0.00730226 0.0852727
0.194889 -0.00518932 0.060693
0.190147 0.000217536 -0.00254431
0.0700507 0.00549345 -0.0642514
-0.0925378 0.00743711 -0.0869849
-0.198993 0.00486951 -0.0569542
-0.184735 -0.000651073 0.00761388
-0.0572017 -0.00566338 0.0661346
0.104936 0.011132 0.112243
0.256506 0.00790869 0.0798815
0.250262 -0.000331532 -0.00334872
0.0921982 -0.00837217 -0.084565
-0.121793 -0.0113343 -0.114486
-0.261906 -0.00742129 -0.0749605
-0.243138 0.000992279 0.0100211
-0.0752935 0.00863361 0.0870517
0.0664974 0.0228138 0.0711279
0.159156 0.0158945 0.0495553
0.155272 -0.000666151 -0.0020769
0.0572029 -0.0168227 -0.0524493
-0.0755652 -0.0227749 -0.0710066
-0.162496 -0.0149121 -0.0464923
-0.15086 0.00199618 0.00622364
-0.0477133 0.0176936 0.0551644
0 0.193978 0
0 0.135145 0
0 -0.00566406 0
0 -0.143038 0
0 -0.193647 0
0 -0.126792 0
0 0.0169729 0
0 0.150442 0
-0.047886 0.0763134 0.132608
-0.114611 0.053168 0.0923889
-0.111814 -0.00222832 -0.0038721
-0.0411928 -0.056273 -0.0977844
0.0544159 -0.0761832 -0.132382
0.117017 -0.0498817 -0.0866784
0.108637 0.00667736 0.0116031
0.0343592 0.059186 0.102846
-0.066725 -0.0876415 0.184778
-0.159701 -0.0610604 0.128736
-0.155804 0.00255909 -0.00539543
-0.0573986 0.0646263 -0.136254
0.0758238 0.087492 -0.184463
0.163053 0.0572863 -0.120779
0.151376 -0.00766856 0.0161679
0.0478765 -0.0679717 0.143307
-0.0450895 -0.198434 0.124864
-0.107918 -0.13825 0.0869935
-0.105285 0.00579419 -0.00364597
-0.0387872 0.146324 -0.0920739
0.051238 0.198096 -0.124651
0.110183 0.129705 -0.0816165
0.102292 -0.0173628 0.0109255
0.0323526 -0.153899 0.0968402
0.00389668 -0.188859 -0.0107909
0.00932636 -0.13158 -0.00751807
0.0090988 0.00551461 0.000315088
0.00335203 0.139264 0.00795711
-0.00442804 0.188537 0.0107725
-0.00952212 0.123447 0.00705338
-0.00884021 -0.016525 -0.000944191
-0.00279595 -0.146473 -0.00836902
0.0505192 -0.064725 -0.1399
0.120913 -0.0450943 -0.0974693
0.117963 0.00188994 0.00408502
0.0434579 0.0477278 0.103161
-0.0574081 0.0646146 0.139661
-0.123451 0.0423071 0.0914448
-0.11461 -0.00566338 -0.0122411
-0.0362485 -0.0501985 -0.108502
0.0664974 0.0986708 -0.184148
0.159156 0.0687446 -0.128297
0.155272 -0.00288114 0.00537703
0.0572028 -0.0727592 0.135789
-0.0755652 -0.0985025 0.183834
-0.162496 -0.0644955 0.120367
-0.15086 0.00863361 -0.0161128
-0.0477133 0.0765257 -0.142819
0.0421392 0.202214 -0.116694
0.100857 0.140884 -0.0813014
0.0983957 -0.00590456 0.00340741
0.0362493 -0.149111 0.0860493
-0.0478855 -0.201869 0.116495
-0.102974 -0.132176 0.0762762
-0.0955993 0.0176936 -0.0102106
-0.0302358 0.15683 -0.0905038
