# vtk DataFile Version 3.0
Velocity field
ASCII
DATASET STRUCTURED_POINTS
DIMENSIONS 10 10 10
SPACING 0.631579 0.631579 0.631579
ORIGIN 0 0 0
POINT_DATA 1000
VECTORS velocity float
0 0.73715 0
0 0.594951 0
0 0.223216 0
0 -0.234638 0
0 -0.601967 0
0 -0.737052 0
0 -0.587777 0
0 -0.211734 0
0 0.245998 0
0 0.608822 0
0 0.452752 0.577427
0 0.365415 0.484312
0 0.137097 0.181706
0 -0.144113 -0.191004
0 -0.369723 -0.490024
0 -0.452692 -0.599988
0 -0.361008 -0.478473
0 -0.130045 -0.172359
0 0.15109 0.200252
0 0.373934 0.476905
0 -0.00632099 0.932078
0 -0.00510165 0.781774
0 -0.00191405 0.293308
0 0.002012 -0.308318
0 0.00516181 -0.790993
0 0.00632015 -0.968497
0 0.00504013 -0.772348
0 0.0018156 -0.278221
0 -0.00210941 0.323245
0 -0.00522059 0.769817
0 -0.462955 0.927127
0 -0.37365 0.777621
0 -0.140187 0.29175
0 0.147361 -0.30668
0 0.378056 -0.78679
0 0.462894 -0.963352
0 0.369144 -0.768244
0 0.132976 -0.276743
0 -0.154495 0.321528
0 -0.382361 0.765727
0 -0.740978 0.564483
0 -0.598041 0.473456
0 -0.224375 0.177633
0 0.235857 -0.186723
0 0.605093 -0.479039
0 0.74088 -0.586538
0 0.59083 -0.467747
0 0.212833 -0.168495
0 -0.247276 0.195763
0 -0.611984 0.466214
0 -0.733126 -0.0159425
0 -0.591703 -0.0133717
0 -0.221997 -0.00501682
0 0.233357 0.00527354
0 0.598681 0.0135293
0 0.733029 0.0165654
0 0.584569 0.0132104
0 0.210578 0.00475876
0 -0.244656 -0.00552887
0 -0.605499 -0.0131671
0 -0.442429 -0.590217
0 -0.357082 -0.49504
0 -0.133971 -0.185731
0 0.140827 0.195235
0 0.361293 0.500878
0 0.44237 0.613278
0 0.352777 0.489071
0 0.12708 0.176177
0 -0.147645 -0.204688
0 -0.365408 -0.487469
0 0.0189615 -0.936782
0 0.0153037 -0.785719
0 0.0057417 -0.294788
0 -0.00603552 0.309874
0 -0.0154842 0.794985
0 -0.018959 0.973384
0 -0.0151192 0.776245
0 -0.00544636 0.279625
0 0.00632774 -0.324877
0 0.0156606 -0.773701
0 0.473035 -0.921929
0 0.381785 -0.773261
0 0.143239 -0.290115
0 -0.150569 0.304961
0 -0.386287 0.782379
0 -0.472973 0.957951
0 -0.377182 0.763938
0 -0.135871 0.275191
0 0.157859 -0.319726
0 0.390687 -0.761434
0 0.744609 -0.551389
0 0.600971 -0.445024
0 0.225474 -0.166966
0 -0.237013 0.17551
0 -0.608058 0.450272
0 -0.74451 0.551316
0 -0.593725 0.439658
0 -0.213876 0.158377
0 0.248488 -0.184007
0 0.614983 -0.4554
0 0.594951 0
0 0.505162 0
0 0.189528 0
0 -0.199227 0
0 -0.511119 0
0 -0.625817 0
0 -0.499071 0
0 -0.179779 0
0 0.208873 0
0 0.491378 0
0.0839571 0.365415 0.639049
0.234632 0.313972 0.550119
0.289243 0.11809 0.206943
0.232059 -0.124157 -0.217578
0.0853399 -0.318524 -0.558199
-0.0943041 -0.390003 -0.683462
-0.237565 -0.311016 -0.54504
-0.289167 -0.112055 -0.196373
-0.229024 0.12948 0.226825
-0.0755358 0.301801 0.5278
0.135523 -0.00510165 1.03155
0.378742 -0.00436605 0.887999
0.466893 -0.00164203 0.334046
0.374588 0.00172641 -0.351214
0.137755 0.00442912 -0.901038
-0.152225 0.00542298 -1.10324
-0.383474 0.00432469 -0.8798
-0.46677 0.00155813 -0.316984
-0.369688 -0.00180064 0.366139
-0.121929 -0.00421352 0.85197
0.134803 -0.37365 1.02607
0.37673 -0.320863 0.883281
0.464413 -0.120688 0.332272
0.372598 0.12689 -0.349348
0.137023 0.325535 -0.896251
-0.151417 0.398587 -1.09738
-0.381438 0.317861 -0.875126
-0.46429 0.114522 -0.3153
-0.367725 -0.132314 0.364193
-0.121282 -0.308602 0.847445
0.0820751 -0.598041 0.624724
0.229373 -0.513555 0.537787
0.28276 -0.193166 0.202304
0.226857 0.203092 -0.212701
0.0834268 0.521032 -0.545684
-0.0921903 0.637954 -0.668141
-0.232239 0.508752 -0.532822
-0.282685 0.183297 -0.191971
-0.223889 -0.211774 0.22174
-0.0738425 -0.49393 0.515968
-0.00231802 -0.591703 -0.0176439
-0.00647809 -0.508113 -0.0151886
-0.00798582 -0.191119 -0.00571361
-0.00640701 0.20094 0.00600723
-0.0023562 0.515511 0.0154116
0.00260367 0.631193 0.01887
0.00655904 0.503361 0.0150484
0.00798372 0.181354 0.00542176
0.00632325 -0.20953 -0.00626253
0.00208551 -0.488696 -0.0145723
-0.0858168 -0.357082 -0.653205
-0.239829 -0.306638 -0.562305
-0.295649 -0.115337 -0.211527
-0.237199 0.121264 0.222398
-0.0872301 0.311101 0.570563
0.0963926 0.380916 0.698599
0.242826 0.30377 0.557114
0.295571 0.109444 0.200722
0.234096 -0.126448 -0.231849
0.0772089 -0.294919 -0.539491
-0.136207 0.0153037 -1.03675
-0.380639 0.0131134 -0.892449
-0.469231 0.00493163 -0.33572
-0.376464 -0.00518494 0.352973
-0.138445 -0.013302 0.905553
0.152987 -0.016287 1.10877
0.385395 -0.0129885 0.884208
0.469108 -0.00467954 0.318572
0.37154 0.00540847 -0.367975
0.122545 0.0126396 -0.85627
-0.134047 0.381785 -1.02032
-0.374102 0.326785 -0.877205
-0.461161 0.122891 -0.32996
-0.369989 -0.129203 0.346914
-0.136064 -0.33147 0.890009
0.150356 -0.405855 1.08973
0.378767 -0.323658 0.869031
0.461039 -0.116608 0.313102
0.365158 0.134784 -0.361718
0.120602 0.315322 -0.842694
-0.0801712 0.600971 -0.610233
-0.209583 0.485042 -0.492517
-0.258136 0.181979 -0.184784
-0.207098 -0.191292 0.19424
-0.0761606 -0.490761 0.498324
0.0841606 -0.600892 0.610152
0.212012 -0.479193 0.486578
0.258068 -0.172619 0.175279
0.204559 0.200554 -0.203644
0.0721297 0.496351 -0.504
0 0.223216 0
0 0.189528 0
0 0.0711078 0
0 -0.0747466 0
0 -0.191763 0
0 -0.234796 0
0 -0.187243 0
0 -0.0674501 0
0 0.0783655 0
0 0.184357 0
0.135523 0.137097 0.454122
0.378742 0.11809 0.391038
0.466893 0.0444221 0.147108
0.374588 -0.0467047 -0.154669
0.137755 -0.119821 -0.396804
-0.152225 -0.14671 -0.485849
-0.383474 -0.116997 -0.38745
-0.46677 -0.0421528 -0.139596
-0.369689 0.0486916 0.161223
-0.121929 0.113231 0.375065
0.21876 -0.00191405 0.73304
0.611363 -0.00164203 0.63121
0.753656 -0.000617648 0.23746
0.604657 0.000649388 -0.249666
0.222363 0.00166601 -0.640518
-0.24572 0.00203989 -0.784254
-0.619001 0.00162675 -0.625419
-0.753457 0.000586099 -0.225335
-0.596747 -0.000677099 0.260244
-0.196817 -0.00158084 0.605428
0.217598 -0.140187 0.729146
0.608115 -0.120688 0.627856
0.749652 -0.045402 0.236199
0.601445 0.0477356 -0.24834
0.221182 0.122466 -0.637115
-0.244415 0.149948 -0.780087
-0.615713 0.119579 -0.622097
-0.749454 0.0430834 -0.224137
-0.593577 -0.0497596 0.258862
-0.195772 -0.115782 0.602212
0.132485 -0.224375 0.443942
0.370252 -0.193166 0.382272
0.456427 -0.0726677 0.14381
0.366192 0.0764027 -0.151202
0.134667 0.196011 -0.387908
-0.148813 0.239998 -0.474958
-0.374879 0.191391 -0.378766
-0.456307 0.068957 -0.136467
-0.361401 -0.0796425 0.157609
-0.119196 -0.185314 0.366658
-0.00374173 -0.221997 -0.0125381
-0.0104569 -0.191119 -0.0107964
-0.0128907 -0.0718976 -0.00406159
-0.0103422 0.0755932 0.00427035
-0.00380336 0.193934 0.0109556
0.00420285 0.237454 0.0134141
0.0105875 0.189363 0.0106973
0.0128873 0.0682262 0.00385417
0.010207 -0.0787987 -0.0044513
0.00336641 -0.18335 -0.0103554
-0.138525 -0.133971 -0.464181
-0.38713 -0.115337 -0.399699
-0.477234 -0.0433891 -0.150366
-0.382884 0.0456193 0.158095
-0.140807 0.117036 0.405593
0.155596 0.1433 0.496611
0.391968 0.114278 0.396033
0.477109 0.0411734 0.142688
0.377877 -0.0475537 -0.164794
0.12463 -0.110649 -0.383373
-0.219864 0.0057417 -0.736739
-0.614424 0.00493163 -0.634373
-0.75743 0.00185493 -0.23865
-0.607686 -0.00195023 0.250917
-0.223477 -0.00500331 0.643727
0.246951 -0.0061261 0.788183
0.622101 -0.00488538 0.628552
0.75723 -0.00176014 0.226463
0.599737 0.00203369 -0.261549
0.197811 0.00474215 -0.608483
-0.216378 0.143239 -0.725058
-0.603872 0.122891 -0.623521
-0.744403 0.0462209 -0.234549
-0.597233 -0.0485956 0.246603
-0.219633 -0.124672 0.632659
0.242703 -0.152649 0.774632
0.611402 -0.121734 0.617747
0.744206 -0.043859 0.222569
0.589436 0.0506796 -0.257097
0.194674 0.118303 -0.598835
-0.129412 0.225474 -0.433644
-0.338307 0.181979 -0.349993
-0.416682 0.0682756 -0.131311
-0.334297 -0.0717695 0.138031
-0.122938 -0.184125 0.35412
0.135851 -0.225444 0.433587
0.342228 -0.179785 0.345772
0.416571 -0.0647636 0.124557
0.330197 0.0752443 -0.144714
0.116431 0.186222 -0.358153
0 -0.234638 0
0 -0.199227 0
0 -0.0747466 0
0 0.0785716 0
0 0.201576 0
0 0.246811 0
0 0.196825 0
0 0.0709017 0
0 -0.0823757 0
0 -0.193791 0
0.134803 -0.144113 0.0939905
0.37673 -0.124157 0.0809335
0.464413 -0.0467047 0.030447
0.372598 0.0491051 -0.032012
0.137023 0.125979 -0.0821271
-0.151417 0.15425 -0.100557
-0.381438 0.12301 -0.080191
-0.46429 0.0443193 -0.0288923
-0.367725 -0.0511924 0.0333684
-0.121282 -0.119025 0.0776281
0.217598 0.002012 0.151719
0.608115 0.00172641 0.130642
0.749652 0.000649388 0.0491473
0.601445 -0.000682765 -0.0516737
0.221182 -0.00175161 -0.132569
-0.244415 -0.00214472 -0.162318
-0.615713 -0.00171036 -0.129444
-0.749454 -0.000616217 -0.0466377
-0.593577 0.000711878 0.0538629
-0.195772 0.00166174 0.125307
0.216442 0.147361 0.150913
0.604885 0.12689 0.129948
0.74567 0.0477356 0.0488862
0.59825 -0.0501893 -0.0513991
0.220007 -0.12876 -0.131864
-0.243116 -0.157655 -0.161456
-0.612443 -0.125726 -0.128756
-0.745473 -0.045298 -0.04639
-0.590424 0.0523159 0.0535769
-0.194732 0.121707 0.124641
0.131781 0.235857 0.0918836
0.368285 0.203092 0.079119
0.454003 0.0764027 0.0297645
0.364246 -0.08033 -0.0312945
0.133952 -0.206087 -0.0802858
-0.148022 -0.252334 -0.0983025
-0.372888 -0.201229 -0.0783933
-0.453883 -0.0725015 -0.0282446
-0.359481 0.0837335 0.0326203
-0.118563 0.194797 0.0758879
-0.00372185 0.233357 -0.00259504
-0.0104013 0.20094 -0.00223454
-0.0128222 0.0755932 -0.000840629
-0.0102873 -0.0794786 0.000883837
-0.00378316 -0.203903 0.00226749
0.00418053 -0.24966 0.00277633
0.0105313 -0.199097 0.00221406
0.0128188 -0.0717332 0.000797701
0.0101527 0.0828461 -0.000921286
0.00334853 0.192733 -0.00214328
-0.137789 0.140827 -0.0960725
-0.385074 0.121264 -0.082726
-0.474699 0.0456193 -0.0311214
-0.380851 -0.0479641 0.032721
-0.140059 -0.123052 0.0839458
0.15477 -0.150666 0.102784
0.389886 -0.120152 0.0819675
0.474574 -0.0432897 0.0295322
0.375869 0.0499962 -0.0341075
0.123968 0.116311 -0.0793476
-0.218696 -0.00603552 -0.152484
-0.611161 -0.00518494 -0.131297
-0.753407 -0.00195023 -0.0493935
-0.604458 0.00205043 0.0519325
-0.22229 0.0052604 0.133233
0.245639 0.00644087 0.163131
0.618797 0.00513641 0.130092
0.753207 0.00185058 0.0468714
0.596551 -0.00213813 -0.054133
0.19676 -0.00498482 -0.125939
-0.215229 -0.150569 -0.150067
-0.600664 -0.129203 -0.129051
-0.740448 -0.0485956 -0.0485447
-0.59406 0.0510925 0.0510396
-0.218466 0.131078 0.130942
0.241414 0.160493 0.160326
0.608155 0.127988 0.127856
0.740253 0.0461124 0.0460653
0.586305 -0.053282 -0.0532117
0.19364 -0.124357 -0.123942
-0.128724 -0.237013 -0.0897522
-0.33651 -0.191292 -0.0724387
-0.414468 -0.0717695 -0.0271778
-0.332521 0.0754422 0.0285685
-0.122285 0.193548 0.0732929
0.13513 0.236981 0.0897403
0.34041 0.188985 0.0715653
0.414358 0.0680777 0.0257798
0.328443 -0.0790948 -0.0299517
0.115813 -0.195752 -0.0741276
0 -0.601967 0
0 -0.511119 0
0 -0.191763 0
0 0.201576 0
0 0.517146 0
0 0.633197 0
0 0.504956 0
0 0.181899 0
0 -0.211336 0
0 -0.497173 0
0.0820751 -0.369723 -0.302403
0.229373 -0.318524 -0.260392
0.28276 -0.119821 -0.0979592
0.226857 0.125979 0.102994
0.0834268 0.323199 0.264232
-0.0921903 0.395727 0.323528
-0.232239 0.315581 0.258004
-0.282685 0.113701 0.0929571
-0.223889 -0.131334 -0.107358
-0.0738425 -0.30536 -0.249759
0.132485 0.00516181 -0.488136
0.370252 0.00442912 -0.420324
0.456427 0.00166601 -0.158125
0.366192 -0.00175161 0.166253
0.134667 -0.00449383 0.426522
-0.148813 -0.0055023 0.522235
-0.374879 -0.00438791 0.416469
-0.456307 -0.00158091 0.15005
-0.361401 0.00182631 -0.173297
-0.119196 0.00426321 -0.403159
0.131781 0.378056 -0.485543
0.368285 0.325535 -0.418091
0.454003 0.122466 -0.157285
0.364246 -0.12876 0.16537
0.133952 -0.330335 0.424256
-0.148022 -0.404465 0.519461
-0.372888 -0.322549 0.414256
-0.453883 -0.116212 0.149253
-0.359481 0.134216 -0.172377
-0.118563 0.312241 -0.401017
0.0802352 0.605093 -0.295624
0.224231 0.521031 -0.254556
0.276421 0.196011 -0.0957632
0.221772 -0.206087 0.100686
0.081557 -0.528715 0.258308
-0.0901235 -0.647363 0.316275
-0.227034 -0.516252 0.252221
-0.276348 -0.186002 0.0908733
-0.218871 0.214818 -0.104952
-0.0721872 0.499754 -0.24416
-0.00226606 0.598681 0.00834921
-0.00633288 0.515511 0.00718929
-0.00780681 0.193934 0.00270462
-0.00626342 -0.203903 -0.00284363
-0.00230336 -0.523112 -0.00729532
0.00254535 -0.640501 -0.00893247
0.006412 -0.510782 -0.00712335
0.00780475 -0.184032 -0.00256651
0.0061815 0.212543 0.00296411
0.00203876 0.494459 0.00689573
-0.0838931 0.361293 0.309101
-0.234453 0.311101 0.26616
-0.289022 0.117036 0.100129
-0.231882 -0.123052 -0.105276
-0.0852747 -0.315689 -0.270085
0.0942321 -0.386532 -0.330694
0.237383 -0.308248 -0.263718
0.288946 -0.11106 -0.095016
0.228849 0.128265 0.109736
0.0754782 0.298397 0.255291
-0.133154 -0.0154842 0.4906
-0.372106 -0.013302 0.42243
-0.458714 -0.00500331 0.158917
-0.368026 0.0052604 -0.167085
-0.135341 0.0134955 -0.428658
0.149558 0.016524 -0.524851
0.376757 0.0131775 -0.418555
0.458593 0.00474767 -0.150802
0.363212 -0.00548539 0.174166
0.119798 -0.0127886 0.405193
-0.131042 -0.386287 0.482821
-0.365715 -0.33147 0.415204
-0.450823 -0.124672 0.156186
-0.361695 0.131078 -0.164213
-0.133013 0.336279 -0.42129
0.146986 0.411744 -0.515828
0.370277 0.328354 -0.411359
0.450704 0.118301 -0.148209
0.356973 -0.136695 0.171201
0.117898 -0.31904 0.398769
-0.0783741 -0.608058 0.288767
-0.204885 -0.490761 0.233063
-0.25235 -0.184125 0.0874411
-0.202456 0.193548 -0.0919157
-0.0744533 0.496549 -0.235811
0.082274 0.607977 -0.288728
0.207259 0.484844 -0.230252
0.252283 0.174654 -0.0829432
0.199973 -0.202918 0.096366
0.0705128 -0.502204 0.238496
0 -0.737052 0
0 -0.625818 0
0 -0.234796 0
0 0.246811 0
0 0.633197 0
0 0.775291 0
0 0.618272 0
0 0.222718 0
0 -0.258761 0
0 -0.608741 0
-0.00231802 -0.452692 -0.582127
-0.00647809 -0.390003 -0.501257
-0.00798582 -0.14671 -0.188572
-0.00640701 0.15425 0.198265
-0.0023562 0.395727 0.508648
0.00260367 0.484531 0.622791
0.00655904 0.386399 0.496659
0.00798372 0.139216 0.178943
0.00632325 -0.160806 -0.206666
0.00208551 -0.373884 -0.480787
-0.00374173 0.00632015 -0.939665
-0.0104569 0.00542298 -0.809125
-0.0128907 0.00203989 -0.304391
-0.0103422 -0.00214472 0.320037
-0.00380335 -0.0055023 0.821057
0.00420285 -0.00673703 1.00531
0.0105875 -0.00537258 0.801703
0.0128873 -0.00193567 0.288848
0.010207 0.00223617 -0.333597
0.00336641 0.0052199 -0.776082
-0.00372185 0.462894 -0.934673
-0.0104013 0.398586 -0.804826
-0.0128222 0.149948 -0.302775
-0.0102873 -0.157655 0.318337
-0.00378316 -0.404465 0.816695
0.00418053 -0.495229 0.999967
0.0105313 -0.394931 0.797444
0.0128188 -0.142291 0.287314
0.0101527 0.164335 -0.331825
0.00334853 0.38231 -0.77196
-0.00226606 0.74088 -0.569078
-0.00633288 0.637954 -0.49002
-0.00780681 0.239998 -0.184345
-0.00626342 -0.252334 0.19382
-0.00230336 -0.647363 0.497246
0.00254535 -0.792634 0.608831
0.006412 -0.632102 0.485525
0.00780475 -0.227743 0.174931
0.0061815 0.263025 -0.202032
0.00203876 0.611903 -0.470009
6.39995e-05 0.733029 0.0160723
0.000178855 0.631193 0.0138395
0.000220489 0.237454 0.00520635
0.000176896 -0.24966 -0.00547403
6.50542e-05 -0.640501 -0.0140435
-7.18849e-05 -0.784234 -0.017195
-0.000181096 -0.625404 -0.0137126
-0.000220432 -0.225329 -0.00494053
-0.000174581 0.260238 0.00570594
-5.758e-05 0.605418 0.0132743
0.00236936 0.44237 0.595021
0.00662156 0.380916 0.512359
0.00816274 0.1433 0.192748
0.00654895 -0.150666 -0.202656
0.00240838 -0.386532 -0.519913
-0.00266136 -0.473273 -0.636586
-0.00670435 -0.377422 -0.50766
-0.00816059 -0.135982 -0.182906
-0.00646329 0.157049 0.211243
-0.00213171 0.365359 0.491437
0.00376061 -0.018959 0.944407
0.0105093 -0.016287 0.81318
0.0129552 -0.0061261 0.305916
0.0103939 0.00644087 -0.32164
0.0038224 0.016524 -0.825169
-0.0042239 0.0202322 -1.01034
-0.0106406 0.0161345 -0.80572
-0.0129518 0.00581308 -0.290295
-0.0102581 -0.00671634 0.33527
-0.0033834 -0.0156585 0.779999
0.00370099 -0.472973 0.929433
0.0103288 -0.405855 0.799268
0.0127324 -0.152649 0.300659
0.0102153 0.160493 -0.31611
0.00375668 0.411744 -0.810983
-0.00415124 0.504142 -0.992973
-0.0104575 0.402039 -0.791867
-0.0127291 0.144849 -0.285303
-0.0100818 -0.16737 0.329562
-0.00332976 -0.390635 0.767632
0.00221349 -0.74451 0.555877
0.0057865 -0.600892 0.448647
0.00712703 -0.225444 0.168325
0.0057179 0.236981 -0.176938
0.00210276 0.607977 -0.453937
-0.00232364 0.744412 -0.555803
-0.00585356 0.593646 -0.443237
-0.00712513 0.213848 -0.159666
-0.00564778 -0.248455 0.185505
-0.00199147 -0.614902 0.459107
0 -0.587777 0
0 -0.499071 0
0 -0.187243 0
0 0.196825 0
0 0.504956 0
0 0.618272 0
0 0.493053 0
0 0.177611 0
0 -0.206354 0
0 -0.485453 0
-0.0858168 -0.361008 -0.637262
-0.239829 -0.311016 -0.548732
-0.295649 -0.116997 -0.206433
-0.237199 0.12301 0.217043
-0.0872301 0.315581 0.556826
0.0963926 0.386399 0.681779
0.242826 0.308143 0.543699
0.295571 0.111021 0.195891
0.234096 -0.128238 -0.22624
0.0772089 -0.298162 -0.526324
-0.138525 0.00504013 -1.02866
-0.38713 0.00432468 -0.88576
-0.477234 0.00162675 -0.333221
-0.382884 -0.00171036 0.35035
-0.140807 -0.00438791 0.898821
0.155596 -0.00537258 1.10052
0.391968 -0.00428448 0.877635
0.477109 -0.00154366 0.316205
0.377877 0.00178327 -0.365194
0.12463 0.00416272 -0.849588
-0.137789 0.369144 -1.0232
-0.385074 0.317861 -0.881054
-0.474699 0.119579 -0.331452
-0.380851 -0.125726 0.348488
-0.140059 -0.322549 0.894046
0.15477 -0.394931 1.09468
0.389886 -0.314946 0.872973
0.474574 -0.113473 0.314526
0.375869 0.131052 -0.363254
0.123968 0.304881 -0.845075
-0.0838931 0.59083 -0.622977
-0.234453 0.508752 -0.536431
-0.289022 0.191391 -0.201805
-0.231882 -0.201229 0.212178
-0.0852748 -0.516252 0.544342
0.0942321 -0.632102 0.666496
0.237383 -0.504085 0.531511
0.288946 -0.181618 0.1915
0.228849 0.209756 -0.221168
0.0754782 0.487974 -0.514525
0.00236936 0.584569 0.0175945
0.00662156 0.503361 0.0151503
0.00816274 0.189363 0.00569949
0.00654895 -0.199097 -0.00599246
0.00240838 -0.510782 -0.0153737
-0.00266136 -0.625404 -0.0188236
-0.00670435 -0.498743 -0.0150114
-0.00816059 -0.179693 -0.00540848
-0.00646329 0.207533 0.00624637
-0.00213171 0.482803 0.0145316
0.0877177 0.352777 0.651378
0.245141 0.30377 0.560888
0.302198 0.114278 0.211005
0.242453 -0.120152 -0.221851
0.0891622 -0.308248 -0.569159
-0.0985278 -0.377422 -0.69688
-0.248205 -0.300983 -0.555744
-0.302118 -0.108442 -0.20023
-0.239281 0.125242 0.231251
-0.0789192 0.291363 0.537982
0.139224 -0.0151192 1.03386
0.38907 -0.0129885 0.890198
0.479625 -0.00488538 0.33489
0.384802 0.00513641 -0.352105
0.141512 0.0131775 -0.903324
-0.156376 0.0161345 -1.10604
-0.393932 0.0128668 -0.882031
-0.479499 0.00463576 -0.317789
-0.379769 -0.00535607 0.367025
-0.125259 -0.0124872 0.853875
0.137016 -0.377182 1.01746
0.382387 -0.323658 0.874969
0.471375 -0.121734 0.329136
0.378184 0.127988 -0.346051
0.139078 0.328354 -0.887794
-0.153686 0.402039 -1.08702
-0.387155 0.320614 -0.866867
-0.471251 0.115513 -0.312324
-0.373246 -0.133473 0.360776
-0.123273 -0.31152 0.840337
0.0819471 -0.593725 0.608526
0.214225 -0.479193 0.491139
0.263854 -0.179785 0.184267
0.211686 0.188985 -0.193697
0.0778476 0.484844 -0.496931
-0.0860248 0.593646 -0.608446
-0.216708 0.473415 -0.485217
-0.263784 0.170537 -0.174789
-0.20909 -0.198135 0.203075
-0.0737274 -0.490366 0.50259
0 -0.211734 0
0 -0.179779 0
0 -0.0674501 0
0 0.0709017 0
0 0.181899 0
0 0.222718 0
0 0.177611 0
0 0.0639805 0
0 -0.0743345 0
0 -0.174874 0
-0.136207 -0.130045 -0.446537
-0.380639 -0.112055 -0.384519
-0.469231 -0.0421528 -0.144656
-0.376464 0.0443194 0.152091
-0.138445 0.113701 0.39019
0.152987 0.139216 0.477751
0.385395 0.111021 0.380993
0.469108 0.0399997 0.137269
0.37154 -0.046202 -0.158534
0.122545 -0.107406 -0.368801
-0.219864 0.0018156 -0.720796
-0.614424 0.00155813 -0.620686
-0.75743 0.000586101 -0.233502
-0.607686 -0.000616218 0.245505
-0.223477 -0.00158091 0.62984
0.246951 -0.00193568 0.771181
0.622101 -0.00154367 0.614995
0.75723 -0.000556173 0.221579
0.599737 0.000642484 -0.255905
0.197811 0.00149952 -0.595316
-0.218696 0.132976 -0.716967
-0.611161 0.114522 -0.617389
-0.753407 0.0430835 -0.232262
-0.604458 -0.0452981 0.2442
-0.22229 -0.116212 0.626495
0.245639 -0.142291 0.767085
0.618797 -0.113473 0.611729
0.753207 -0.0408837 0.220402
0.596551 0.0472162 -0.254545
0.19676 0.109827 -0.592153
-0.133154 0.212833 -0.436527
-0.372106 0.183297 -0.3759
-0.458714 0.0689571 -0.141413
-0.368026 -0.0725017 0.148682
-0.135341 -0.186003 0.381443
0.149558 -0.227743 0.467042
0.376757 -0.181619 0.372453
0.458593 -0.0654358 0.134192
0.363212 0.0755715 -0.154981
0.119798 0.175782 -0.360534
0.00376061 0.210578 0.0123287
0.0105093 0.181355 0.0106164
0.0129552 0.0682263 0.00399387
0.0103939 -0.0717334 -0.00419916
0.0038224 -0.184032 -0.0107729
-0.0042239 -0.225329 -0.0131905
-0.0106406 -0.179694 -0.010519
-0.0129518 -0.0647424 -0.00378995
-0.0102581 0.0747706 0.00437708
-0.0033834 0.173919 0.0101824
0.139224 0.12708 0.456428
0.38907 0.109445 0.393036
0.479625 0.0411735 0.14786
0.384802 -0.0432898 -0.15546
0.141512 -0.11106 -0.398832
-0.156376 -0.135983 -0.488333
-0.393932 -0.108442 -0.389431
-0.479499 -0.039071 -0.14031
-0.379769 0.0451227 0.162046
-0.125259 0.104957 0.37697
0.220974 -0.00544636 0.724434
0.617502 -0.00467954 0.623796
0.761223 -0.00176015 0.234672
0.610729 0.00185058 -0.246734
0.224596 0.00474768 -0.632996
-0.248188 0.00581309 -0.775044
-0.625217 0.00463577 -0.618076
-0.761022 0.00167021 -0.222689
-0.602741 -0.00192968 0.257188
-0.198809 -0.00449822 0.59832
0.21747 -0.135871 0.712948
0.606898 -0.116608 0.613126
0.748133 -0.0438591 0.230639
0.600225 0.0461125 -0.242492
0.220733 0.118302 -0.622113
-0.243919 0.144849 -0.76172
-0.614464 0.115513 -0.607451
-0.747935 0.0416178 -0.218858
-0.592389 -0.0480874 0.252809
-0.195657 -0.112218 0.588834
0.130065 -0.213876 0.426401
0.340015 -0.172619 0.344147
0.418784 -0.0647636 0.129118
0.335984 0.0680777 -0.135725
0.123558 0.174654 -0.348205
-0.136537 0.213848 -0.426345
-0.343955 0.170537 -0.339997
-0.418673 0.0614322 -0.122476
-0.331864 -0.0713738 0.142297
-0.117019 -0.176643 0.352171
0 0.245998 0
0 0.208873 0
0 0.0783655 0
0 -0.0823757 0
0 -0.211336 0
0 -0.258761 0
0 -0.206354 0
0 -0.0743345 0
0 0.0863641 0
0 0.203173 0
-0.134047 0.15109 -0.0835345
-0.374102 0.129474 -0.0725208
-0.461161 0.0486892 -0.0272957
-0.369989 -0.0511899 0.0287002
-0.136064 -0.131328 0.0736301
0.150356 -0.160799 0.0901533
0.378767 -0.128232 0.0718948
0.461039 -0.0461997 0.0259042
0.365158 0.0534034 -0.0298836
0.120602 0.124788 -0.0689923
-0.216378 -0.00210941 -0.134841
-0.603872 -0.00180054 -0.117062
-0.744403 -0.000677062 -0.0440606
-0.597233 0.000711835 0.0463276
-0.219633 0.0018262 0.118853
0.242703 0.00223603 0.145525
0.611402 0.00178317 0.116052
0.744206 0.000642444 0.0418144
0.589436 -0.000742721 -0.048238
0.194674 -0.00174219 -0.111367
-0.215229 -0.154495 -0.134125
-0.600664 -0.132307 -0.11644
-0.740448 -0.0497571 -0.0438265
-0.59406 0.0523131 0.0460816
-0.218466 0.134209 0.118222
0.241414 0.164327 0.144752
0.608155 0.131046 0.115436
0.740253 0.0472136 0.0415923
0.586305 -0.0545697 -0.0479817
0.19364 -0.1276 -0.110775
-0.131042 -0.247276 -0.081662
-0.365715 -0.211764 -0.0708951
-0.450823 -0.0796384 -0.0266839
-0.361695 0.0837291 0.0280568
-0.133013 0.214807 0.0719797
0.146986 0.263011 0.0881324
0.370277 0.209745 0.0702833
0.450704 0.0755674 0.0253235
0.356973 -0.0873406 -0.0292137
0.117898 -0.204229 -0.0674458
0.00370099 -0.244656 0.00230635
0.0103288 -0.20952 0.00200226
0.0127324 -0.0787945 0.000753623
0.0102153 0.0828418 -0.000792398
0.00375668 0.212531 -0.00203289
-0.00415124 0.260224 -0.00248909
-0.0104575 0.207522 -0.00198497
-0.0127291 0.0747666 -0.000715204
-0.0100819 -0.0864149 0.000825076
-0.00332976 -0.202064 0.00190485
0.137016 -0.147645 0.0853849
0.382387 -0.126442 0.0741269
0.471375 -0.0475513 0.0279003
0.378184 0.0499936 -0.0293358
0.139078 0.128259 -0.075261
-0.153686 0.157041 -0.0921502
-0.387155 0.125236 -0.073487
-0.471251 0.0451203 -0.026478
-0.373246 -0.05215 0.0305456
-0.123273 -0.121942 0.0705206
0.21747 0.00632774 0.135521
0.606898 0.00540821 0.117648
0.748133 0.00203359 0.0442809
0.600225 -0.00213803 -0.0465592
0.220733 -0.00548511 -0.119448
-0.243919 -0.006716 -0.146252
-0.614464 -0.0053558 -0.116632
-0.747935 -0.00192958 -0.0420234
-0.592389 0.00223096 0.0484796
-0.195657 0.00522617 0.111929
0.214022 0.157859 0.133373
0.596499 0.134778 0.115609
0.735294 0.0506771 0.043509
0.589926 -0.0532794 -0.0457473
0.216945 -0.136688 -0.117364
-0.239733 -0.167362 -0.143702
-0.603921 -0.133466 -0.114598
-0.7351 -0.0480849 -0.0412903
-0.582237 0.0555996 0.0476438
-0.192554 0.130378 0.110154
0.128003 0.248488 0.0797677
0.334624 0.200554 0.0643803
0.412144 0.0752443 0.0241544
0.330657 -0.0790948 -0.0253904
0.121599 -0.202918 -0.0651394
-0.134372 -0.248455 -0.0797571
-0.338502 -0.198135 -0.063604
-0.412035 -0.0713738 -0.0229119
-0.326602 0.0829242 0.0266197
-0.115163 0.20523 0.0658813
0 0.608822 0
0 0.491378 0
0 0.184357 0
0 -0.193791 0
0 -0.497173 0
0 -0.608741 0
0 -0.485453 0
0 -0.174874 0
0 0.203174 0
0 0.502835 0
-0.0801712 0.373934 0.311696
-0.209583 0.301801 0.251569
-0.258136 0.113231 0.0943844
-0.207098 -0.119025 -0.0992144
-0.0761606 -0.30536 -0.254536
0.0841606 -0.373884 -0.311655
0.212012 -0.298162 -0.248536
0.258068 -0.107406 -0.0895294
0.204559 0.124788 0.104018
0.0721297 0.308837 0.257434
-0.129412 -0.00522059 0.503138
-0.338307 -0.00421352 0.406081
-0.416681 -0.00158084 0.152355
-0.334297 0.00166174 -0.160151
-0.122938 0.00426321 -0.410869
0.135851 0.0052199 -0.503071
0.342228 0.00416272 -0.401184
0.416571 0.00149953 -0.144518
0.330197 -0.00174219 0.167905
0.116431 -0.00431176 0.415549
-0.128724 -0.382361 0.500465
-0.33651 -0.308602 0.403924
-0.414468 -0.115782 0.151545
-0.332521 0.121707 -0.1593
-0.122285 0.312241 -0.408687
0.13513 0.38231 -0.500399
0.34041 0.304881 -0.399053
0.414358 0.109827 -0.14375
0.328443 -0.1276 0.167013
0.115813 -0.315797 0.413341
-0.0783741 -0.611984 0.304709
-0.204885 -0.49393 0.24593
-0.25235 -0.185314 0.0922687
-0.202456 0.194797 -0.0969904
-0.0744533 0.499754 -0.24883
0.082274 0.611903 -0.304669
0.207259 0.487974 -0.242964
0.252283 0.175782 -0.0875225
0.199973 -0.204229 0.101686
0.0705128 -0.505446 0.251664
0.00221349 -0.605499 -0.0086058
0.0057865 -0.488696 -0.00694571
0.00712703 -0.18335 -0.00260591
0.0057179 0.192733 0.00273927
0.00210276 0.494459 0.00702762
-0.00232364 0.605418 0.00860466
-0.00585356 0.482803 0.00686196
-0.00712513 0.173919 0.00247187
-0.00564778 -0.202064 -0.00287189
-0.00199147 -0.50009 -0.00710765
0.0819471 -0.365408 -0.318601
0.214225 -0.294919 -0.257142
0.263854 -0.110649 -0.0964751
0.211686 0.116311 0.101412
0.0778476 0.298397 0.260174
-0.0860248 0.365359 0.318558
-0.216708 0.291363 0.254041
-0.263784 0.104957 0.0915126
-0.20909 -0.121942 -0.106322
-0.0737274 -0.301795 -0.263137
0.130065 0.0156606 -0.505677
0.340015 0.0126396 -0.40813
0.418784 0.00474215 -0.153124
0.335984 -0.00498482 0.160959
0.123558 -0.0127886 0.412943
-0.136537 -0.0156585 0.50561
-0.343955 -0.0124872 0.403209
-0.418673 -0.00449822 0.145247
-0.331864 0.00522617 -0.168752
-0.117019 0.0129343 -0.417646
0.128003 0.390687 -0.49766
0.334624 0.315322 -0.401659
0.412144 0.118303 -0.150696
0.330657 -0.124357 0.158407
0.121599 -0.31904 0.406396
-0.134372 -0.390635 0.497593
-0.338502 -0.31152 0.396816
-0.412035 -0.112218 0.142944
-0.326602 0.130378 -0.166077
-0.115163 0.322673 -0.411024
0.0765561 0.614983 -0.297641
0.200132 0.496351 -0.240225
0.246496 0.186222 -0.0901284
0.19776 -0.195752 0.0947405
0.0727263 -0.502204 0.243058
-0.0803656 -0.614902 0.297602
-0.202452 -0.490366 0.237329
-0.246431 -0.176643 0.0854923
-0.195335 0.20523 -0.0993275
-0.0688771 0.507923 -0.245826
