# vtk DataFile Version 3.0
Velocity field
ASCII
DATASET STRUCTURED_POINTS
DIMENSIONS 5 5 5
SPACING 1.33333 1.33333 1.33333
ORIGIN 0 0 0
POINT_DATA 125
VECTORS velocity float
0 0.548142 0
0 0.128944 0
0 -0.487477 0
0 -0.358289 0
0 0.318911 0
0 -0.290255 0.951958
0 -0.0682788 0.258081
0 0.258131 -0.975686
0 0.189723 -0.717117
0 -0.168871 0.553853
0 -0.684699 0.447872
0 -0.161067 0.121421
0 0.608921 -0.459036
0 0.447549 -0.337386
0 -0.398361 0.260574
0 -0.0318795 -0.741245
0 -0.00749925 -0.200955
0 0.0283513 0.759721
0 0.0208378 0.558385
0 -0.0185476 -0.431259
0 0.669701 -0.79661
0 0.157539 -0.187393
0 -0.595583 0.708446
0 -0.437746 0.520699
0 0.389634 -0.46347
0 0.128944 0
0 0.0385963 0
0 -0.145915 0
0 -0.107246 0
0 0.0750198 0
0.407435 -0.0682788 0.334311
0.638938 -0.016997 0.0839934
-0.133949 0.0643708 -0.318185
-0.702065 0.0473285 -0.233956
-0.184103 -0.0397248 0.194503
0.191688 -0.161067 0.157285
0.300606 -0.0402657 0.039517
-0.0630201 0.152509 -0.149698
-0.330306 0.112135 -0.110071
-0.0866157 -0.0937093 0.091509
-0.31725 -0.00749925 -0.260312
-0.497268 -0.00189121 -0.06537
0.104248 0.00716603 0.247629
0.546398 0.00526936 0.182078
0.143352 -0.00436309 -0.151451
-0.340946 0.157539 -0.279755
-0.501353 0.037059 -0.065809
0.105072 -0.140103 0.248794
0.550787 -0.102974 0.18286
0.154059 0.0916566 -0.162763
0 -0.487477 0
0 -0.145915 0
0 0.551639 0
0 0.405448 0
0 -0.283616 0
0.191688 0.258131 -0.794673
0.300606 0.0643708 -0.199032
-0.0630201 -0.243802 0.75392
-0.330306 -0.179258 0.554342
-0.0866157 0.150182 -0.462344
0.0901844 0.608921 -0.373874
0.141427 0.152509 -0.0936404
-0.0296494 -0.577693 0.354702
-0.155402 -0.424766 0.260804
-0.0407505 0.354272 -0.217521
-0.149258 0.0283513 0.618775
-0.233953 0.00716603 0.154905
0.0490466 -0.027156 -0.586756
0.257068 -0.0199689 -0.431426
0.0674436 0.0164949 0.360005
-0.160407 -0.595583 0.664992
-0.235874 -0.140103 0.156431
0.0494339 0.529668 -0.591395
0.259131 0.389299 -0.434668
0.0724811 -0.346512 0.386895
0 -0.358289 0
0 -0.107246 0
0 0.405448 0
0 0.297999 0
0 -0.208454 0
-0.31725 0.189723 -0.708185
-0.497268 0.0473288 -0.177423
0.104248 -0.17926 0.672073
0.546398 -0.131803 0.494162
0.143352 0.110382 -0.412025
-0.149258 0.447549 -0.333183
-0.233953 0.112136 -0.0834736
0.0490466 -0.424769 0.316196
0.257068 -0.312324 0.232492
0.0674436 0.260386 -0.193847
0.247028 0.0208378 0.55143
0.387013 0.0052694 0.138086
-0.0811338 -0.0199691 -0.523054
-0.425248 -0.0146842 -0.38459
-0.111622 0.0121235 0.320824
0.265479 -0.437746 0.592618
0.39038 -0.102974 0.139406
-0.0818148 0.389299 -0.527031
-0.428872 0.28613 -0.387361
-0.119959 -0.254682 0.344787
0 0.318911 0
0 0.0750198 0
0 -0.283616 0
0 -0.208454 0
0 0.185543 0
-0.340946 -0.168871 0.46149
-0.501353 -0.0397248 0.10856
0.105072 0.150182 -0.410415
0.550787 0.110382 -0.30165
0.154059 -0.0982499 0.268496
-0.160407 -0.398361 0.217119
-0.235874 -0.0937093 0.0510746
0.0494338 0.354273 -0.19309
0.259131 0.260386 -0.141919
0.0724811 -0.231768 0.126321
0.265479 -0.0185476 -0.35934
0.39038 -0.00436309 -0.0845303
-0.0818148 0.0164949 0.319571
-0.428872 0.0121235 0.23488
-0.119959 -0.0107911 -0.209065
0.285308 0.389634 -0.38618
0.419538 0.0916566 -0.090844
-0.0879257 -0.346512 0.34344
-0.460905 -0.254682 0.252424
-0.128919 0.226691 -0.224681
