# vtk DataFile Version 3.0
Velocity field
ASCII
DATASET STRUCTURED_POINTS
DIMENSIONS 8 8 8
SPACING 0.8 0.8 0.8
ORIGIN 0 0 0
POINT_DATA 512
VECTORS velocity float
0 0.399592 0
0 0.278399 0
0 -0.0116679 0
0 -0.294657 0
0 -0.398911 0
0 -0.261191 0
0 0.034964 0
0 0.30991 0
0 0.157205 0.407844
0 0.109526 0.301264
0 -0.00459032 -0.0126262
0 -0.115922 -0.318857
0 -0.156937 -0.431674
0 -0.102756 -0.282643
0 0.0137553 0.0378356
0 0.121923 0.31631
0 -0.180541 0.568295
0 -0.125784 0.419785
0 0.00527171 -0.0175935
0 0.13313 -0.4443
0 0.180233 -0.6015
0 0.118009 -0.393838
0 -0.0157972 0.0527206
0 -0.140021 0.44075
0 -0.408773 0.384026
0 -0.284795 0.28367
0 0.011936 -0.0118888
0 0.301427 -0.300236
0 0.408076 -0.406464
0 0.267192 -0.266137
0 -0.0357673 0.035626
0 -0.31703 0.297837
0 -0.389049 -0.0331879
0 -0.271053 -0.0245151
0 0.0113601 0.00102745
0 0.286882 0.0259467
0 0.388386 0.035127
0 0.254299 0.0229998
0 -0.0340415 -0.00307884
0 -0.301733 -0.0257394
0 -0.133333 -0.430271
0 -0.092894 -0.31783
0 0.00389326 0.0133205
0 0.0983189 0.336391
0 0.133106 0.455411
0 0.0871523 0.298185
0 -0.0116665 -0.0399161
0 -0.103409 -0.333703
0 0.203261 -0.566357
0 0.141613 -0.418353
0 -0.00593513 0.0175335
0 -0.149883 0.442785
0 -0.202914 0.599448
0 -0.13286 0.392495
0 0.0177852 -0.0525409
0 0.157642 -0.439247
0 0.41656 -0.358899
0 0.29022 -0.250047
0 -0.0121634 0.0104797
0 -0.307168 0.26465
0 -0.415849 0.358287
0 -0.272282 0.234592
0 0.0364486 -0.0314033
0 0.323069 -0.27835
0 0.278399 0
0 0.210586 0
0 -0.00882582 0
0 -0.222884 0
0 -0.301743 0
0 -0.197569 0
0 0.0264474 0
0 0.215917 0
0.086939 0.109526 0.402839
0.215375 0.0791078 0.290555
0.210154 -0.00331782 -0.012186
0.077421 -0.0837767 -0.307701
-0.102274 -0.113419 -0.416573
-0.219932 -0.0742619 -0.272756
-0.204155 0.0099054 0.0363839
-0.0623805 0.0849444 0.312428
0.121142 -0.125784 0.561321
0.300104 -0.0906176 0.404868
0.292828 0.00380033 -0.01698
0.10788 0.0959622 -0.428758
-0.142509 0.129914 -0.580453
-0.306453 0.0850627 -0.380062
-0.284472 -0.0113485 0.0506981
-0.0869218 -0.0975538 0.435341
0.0818619 -0.284795 0.379313
0.202796 -0.205175 0.27359
0.197881 0.00860491 -0.0114742
0.0728993 0.217279 -0.289731
-0.0963011 0.294153 -0.392246
-0.207087 0.192603 -0.256825
-0.192233 -0.0256954 0.0342593
-0.0587375 -0.220877 0.294182
-0.00707458 -0.271053 -0.0327806
-0.0175258 -0.195278 -0.0236439
-0.0171011 0.00818963 0.000991609
-0.00630008 0.206794 0.0250391
0.0083224 0.279962 0.0338981
0.0178965 0.183309 0.0221951
0.0166129 -0.0244555 -0.00296072
0.00507616 -0.210219 -0.0254235
-0.0917197 -0.092894 -0.42499
-0.227215 -0.0669253 -0.306533
-0.22171 0.00280675 0.012856
-0.0816771 0.0708724 0.324617
0.107898 0.0959486 0.43948
0.232021 0.0628229 0.287752
0.215382 -0.00838134 -0.0383847
0.0658107 -0.0720454 -0.329608
-0.120729 0.141613 -0.559406
-0.299007 0.101945 -0.40339
-0.291757 -0.00427535 0.0169178
-0.107486 -0.107956 0.427189
0.141987 -0.146151 0.578329
0.30533 -0.0956958 0.378671
0.283431 0.0127683 -0.0505145
0.0866254 0.10983 -0.433856
-0.0765056 0.29022 -0.354494
-0.183109 0.202198 -0.246979
-0.178642 -0.00847429 0.0103511
-0.0658121 -0.214006 0.261402
0.0869381 -0.289725 0.35389
0.186953 -0.1897 0.231713
0.173564 0.025394 -0.031018
0.0548943 0.225085 -0.274934
0 -0.0116679 0
0 -0.00882582 0
0 0.000369897 0
0 0.00934124 0
0 0.0126463 0
0 0.0082803 0
0 -0.00110843 0
0 -0.00904924 0
0.121142 -0.00459032 0.153477
0.300104 -0.00331782 0.110634
0.292828 0.000139155 -0.0046399
0.10788 0.00351373 -0.11716
-0.142509 0.00475687 -0.158613
-0.306453 0.00311465 -0.103855
-0.284472 -0.000415398 0.0138543
-0.0869218 -0.00356009 0.119032
0.168801 0.00527171 0.213857
0.418172 0.00380033 0.154158
0.408033 -0.000159383 -0.00646533
0.15032 -0.00402454 -0.163252
-0.198576 -0.00544851 -0.221018
-0.427019 -0.00356751 -0.144712
-0.39639 0.000475894 0.0193046
-0.121118 0.00408856 0.16586
0.114067 0.011936 0.144514
0.282578 0.00860491 0.104173
0.27573 -0.000360883 -0.00436898
0.101579 -0.00911253 -0.11032
-0.134187 -0.0123368 -0.149351
-0.288556 -0.00807755 -0.0977903
-0.26786 0.00107754 0.0130452
-0.0818457 0.00925714 0.11208
-0.00985782 0.0113601 -0.012489
-0.0244208 0.00818963 -0.00900269
-0.0238288 -0.00034347 0.00037757
-0.00877855 -0.00867292 0.00953383
0.0115966 -0.0117415 0.0129071
0.0249375 -0.00768779 0.0084511
0.0231487 0.00102554 -0.00112737
0.00707319 0.00881047 -0.00968608
-0.127803 0.00389326 -0.161916
-0.316602 0.00280675 -0.116716
-0.308931 -0.000117714 0.00489503
-0.113811 -0.00297236 0.123601
0.150345 -0.00402398 0.167335
0.3233 -0.00263475 0.109566
0.300113 0.00035147 -0.0146159
0.0917016 0.00301948 -0.125577
-0.168225 -0.00593513 -0.213128
-0.416643 -0.00427535 -0.153595
-0.406541 0.000179302 0.00644169
-0.14977 0.00452751 0.162655
0.197849 0.00612942 0.220207
0.425457 0.00401329 0.144183
0.39494 -0.000535432 -0.0192346
0.120705 -0.00460308 -0.165294
-0.106604 -0.0121634 -0.135058
-0.255147 -0.00847429 -0.094096
-0.248922 0.000355164 0.00394364
-0.0917035 0.00896918 0.0995912
0.121141 0.0121426 0.134828
0.260503 0.0079505 0.08828
0.241847 -0.00106428 -0.0118175
0.0764904 -0.00943348 -0.104747
0 -0.294657 0
0 -0.222884 0
0 0.00934124 0
0 0.2359 0
0 0.319365 0
0 0.209107 0
0 -0.0279919 0
0 -0.228526 0
0.0818619 -0.115922 -0.188982
0.202796 -0.0837767 -0.136225
0.197881 0.00351373 0.00571318
0.0728993 0.0887222 0.144261
-0.0963011 0.120114 0.195305
-0.207087 0.0786455 0.127876
-0.192233 -0.0104892 -0.0170589
-0.0587375 -0.0899051 -0.146568
0.114067 0.13313 -0.26333
0.282578 0.0959622 -0.189818
0.27573 -0.00402454 0.00796077
0.101579 -0.101623 0.201018
-0.134187 -0.13758 0.272139
-0.288556 -0.0900814 0.178185
-0.26786 0.012017 -0.02377
-0.0818457 0.103251 -0.20423
0.0770812 0.301427 -0.177945
0.190954 0.217279 -0.128269
0.186324 -0.00911253 0.0053795
0.0686428 -0.230097 0.135837
-0.0906768 -0.31151 0.183898
-0.194994 -0.203965 0.120408
-0.181006 0.0272091 -0.0160626
-0.0553073 0.233776 -0.138008
-0.00666144 0.286882 0.0153782
-0.0165023 0.206794 0.0110852
-0.0161022 -0.00867292 -0.000464902
-0.00593217 -0.218997 -0.0117392
0.00783629 -0.296478 -0.0158925
0.0168515 -0.194124 -0.0104058
0.0156426 0.0258961 0.00138815
0.00477971 0.222496 0.0119268
-0.0863633 0.0983189 0.199374
-0.213948 0.0708724 0.143714
-0.208761 -0.00297236 -0.00602734
-0.076908 -0.0750536 -0.152194
0.101596 -0.101609 -0.206043
0.218475 -0.0665297 -0.134909
0.202803 0.00887503 0.0179968
0.0619674 0.0762528 0.154627
-0.113678 -0.149883 0.262432
-0.281545 -0.107956 0.189125
-0.274721 0.00452751 -0.00793165
-0.101208 0.114323 -0.200282
0.133696 0.154772 -0.271144
0.2875 0.101339 -0.177534
0.266879 -0.0135203 0.023684
0.0815665 -0.116244 0.203533
-0.0720377 -0.307168 0.166302
-0.172416 -0.214006 0.115864
-0.168209 0.00896918 -0.00485595
-0.0619687 0.226504 -0.12263
0.081861 0.306645 -0.166019
0.176035 0.200779 -0.108702
0.163428 -0.026877 0.0145513
0.0516885 -0.238229 0.128978
0 -0.398911 0
0 -0.301743 0
0 0.0126463 0
0 0.319365 0
0 0.432361 0
0 0.283093 0
0 -0.0378958 0
0 -0.309382 0
-0.00707458 -0.156937 -0.416807
-0.0175258 -0.113419 -0.300447
-0.0171011 0.00475687 0.0126007
-0.00630008 0.120114 0.31817
0.0083224 0.16261 0.430752
0.0178965 0.106473 0.282037
0.0166129 -0.0142005 -0.0376239
0.00507616 -0.121715 -0.323261
-0.00985782 0.180233 -0.580784
-0.0244208 0.129914 -0.418649
-0.0238288 -0.00544851 0.0175579
-0.00877855 -0.13758 0.443353
0.0115966 -0.186257 0.60021
0.0249375 -0.121953 0.392999
0.0231487 0.0162687 -0.0524259
0.00707319 0.139783 -0.450436
-0.00666144 0.408076 -0.392466
-0.0165023 0.294153 -0.282903
-0.0161022 -0.0123368 0.0118648
-0.00593217 -0.31151 0.299592
0.00783629 -0.421729 0.405594
0.0168515 -0.276132 0.265567
0.0156426 0.0368357 -0.0354267
0.00477971 0.31649 -0.304383
0.000575688 0.388386 0.0339173
0.00142615 0.279962 0.0244489
0.00139158 -0.0117415 -0.00102536
0.000512659 -0.296478 -0.0258912
-0.000677226 -0.401381 -0.0350517
-0.00145632 -0.262806 -0.0229507
-0.00135186 0.0350585 0.00306162
-0.000413068 0.301219 0.0263051
0.00746361 0.133106 0.439726
0.0184894 0.0959486 0.316966
0.0180412 -0.00402398 -0.0132936
0.0066465 -0.101609 -0.335666
-0.00877998 -0.13756 -0.454435
-0.0188806 -0.0900687 -0.297546
-0.0175263 0.0120152 0.0396925
-0.00535529 0.103232 0.341037
0.0098242 -0.202914 0.578803
0.0243315 -0.146151 0.41712
0.0237416 0.00612942 -0.0174937
0.00874646 0.154772 -0.441728
-0.0115542 0.209533 -0.598016
-0.0248462 0.137195 -0.391561
-0.0230641 -0.0183039 0.0522361
-0.00704906 -0.157373 0.4489
0.00622557 -0.415849 0.366786
0.0149004 -0.289725 0.255542
0.0145368 0.0121426 -0.01071
0.0053554 0.306645 -0.270466
-0.00707451 0.41514 -0.366161
-0.0152131 0.271817 -0.239747
-0.0141236 -0.0363865 0.0320935
-0.00446697 -0.322518 0.284467
0 -0.261191 0
0 -0.197569 0
0 0.0082803 0
0 0.209107 0
0 0.283093 0
0 0.185358 0
0 -0.0248127 0
0 -0.202571 0
-0.0917197 -0.102756 -0.391802
-0.227215 -0.0742619 -0.282425
-0.22171 0.00311465 0.0118448
-0.0816771 0.0786455 0.299086
0.107898 0.106473 0.40491
0.232021 0.0697142 0.265119
0.215382 -0.00929794 -0.0353668
0.0658107 -0.0796941 -0.303868
-0.127803 0.118009 -0.545943
-0.316602 0.0850627 -0.393538
-0.308931 -0.00356751 0.0165046
-0.113811 -0.0900814 0.416754
0.150345 -0.121953 0.564204
0.3233 -0.0798497 0.369421
0.300113 0.0106521 -0.0492809
0.0917016 0.091524 -0.423414
-0.0863633 0.267192 -0.368921
-0.213948 0.192603 -0.265932
-0.208761 -0.00807755 0.011153
-0.076908 -0.203965 0.28162
0.101596 -0.276132 0.381264
0.218475 -0.1808 0.249634
0.202803 0.0241188 -0.0333016
0.0619674 0.207225 -0.286123
0.00746361 0.254299 0.0318825
0.0184894 0.183309 0.0229822
0.0180412 -0.00768779 -0.000963846
0.0066465 -0.194124 -0.0243381
-0.00877998 -0.262806 -0.032949
-0.0188806 -0.172075 -0.0215737
-0.0175263 0.022955 0.00287795
-0.00535529 0.197226 0.024727
0.0967632 0.0871523 0.413347
0.239707 0.0628229 0.297953
0.233896 -0.00263475 -0.0124961
0.0861684 -0.0665297 -0.31553
-0.11383 -0.0900687 -0.427176
-0.244779 -0.058973 -0.279697
-0.227222 0.00786704 0.0373115
-0.0694296 0.0675923 0.320578
0.127368 -0.13286 0.544081
0.315444 -0.0956958 0.3921
0.307799 0.00401329 -0.0164442
0.113395 0.101339 -0.415231
-0.149795 0.137195 -0.562141
-0.322117 0.0898299 -0.368071
-0.299016 -0.0119848 0.0491023
-0.0913888 -0.103042 0.42197
0.0807125 -0.272282 0.344782
0.193178 -0.1897 0.240212
0.188465 0.0079505 -0.0100675
0.069431 0.200779 -0.25424
-0.0917187 0.271817 -0.344194
-0.197233 0.177975 -0.225365
-0.183108 -0.0238244 0.0301682
-0.0579128 -0.211172 0.267401
0 0.034964 0
0 0.0264474 0
0 -0.00110843 0
0 -0.0279919 0
0 -0.0378958 0
0 -0.0248127 0
0 0.00332152 0
0 0.0271169 0
-0.120729 0.0137553 -0.129136
-0.299007 0.00990515 -0.093144
-0.291757 -0.000415387 0.00390647
-0.107486 -0.0104889 0.0986412
0.141987 -0.0142001 0.133541
0.30533 -0.00929769 0.0874373
0.283431 0.00124074 -0.0116631
0.0866254 0.0106681 -0.100153
-0.168225 -0.0157972 -0.179939
-0.416643 -0.0113482 -0.129788
-0.406541 0.000475881 0.0054433
-0.14977 0.0120166 0.137448
0.197849 0.0162682 0.186078
0.425457 0.0106518 0.121837
0.39494 -0.00142172 -0.0162515
0.120705 -0.0122517 -0.139555
-0.113678 -0.0357673 -0.121594
-0.281545 -0.0256947 -0.0877043
-0.274721 0.00107751 0.00367835
-0.101208 0.0272084 0.0928801
0.133696 0.0368347 0.125742
0.2875 0.0241181 0.0823312
0.266879 -0.00321903 -0.0109819
0.0815665 -0.0277399 -0.0943044
0.0098242 -0.0340415 0.0105083
0.0243315 -0.0244548 0.00757951
0.0237417 0.00102551 -0.000317884
0.00874646 0.0258954 -0.0080268
-0.0115542 0.0350575 -0.0108667
-0.0248462 0.0229543 -0.00711519
-0.0230641 -0.00306371 0.000949077
-0.00704906 -0.0264014 0.00814988
0.127368 -0.0116665 0.136237
0.315444 -0.00838112 0.0982661
0.307799 0.00035146 -0.00412128
0.113395 0.00887478 -0.104065
-0.149795 0.0120149 -0.140884
-0.322117 0.00786682 -0.0922456
-0.299016 -0.00104999 0.0123044
-0.0913888 -0.00904816 0.105661
0.167652 0.0177852 0.179326
0.415121 0.012768 0.129314
0.405055 -0.000535417 -0.00542335
0.149223 -0.0135199 -0.136944
-0.197125 -0.0183034 -0.185396
-0.423902 -0.0119844 -0.12139
-0.393495 0.0015997 0.0161926
-0.120293 0.0137936 0.139079
0.10624 0.0364486 0.113638
0.254277 0.025394 0.0791725
0.248073 -0.00106428 -0.00331819
0.0913907 -0.026877 -0.0837961
-0.120728 -0.0363865 -0.113444
-0.259614 -0.0238244 -0.0742789
-0.241022 0.00318922 0.00994325
-0.0762295 0.0282683 0.0881339
0 0.30991 0
0 0.215917 0
0 -0.00904924 0
0 -0.228526 0
0 -0.309382 0
0 -0.202571 0
0 0.0271169 0
0 0.240356 0
-0.0765056 0.121923 0.211863
-0.183109 0.0849444 0.147606
-0.178642 -0.00356009 -0.00618629
-0.0658121 -0.0899051 -0.156226
0.0869381 -0.121715 -0.211501
0.186953 -0.0796941 -0.138483
0.173564 0.0106681 0.0185378
0.0548943 0.0945592 0.164313
-0.106604 -0.140021 0.295212
-0.255147 -0.0975538 0.205676
-0.248921 0.00408856 -0.00862006
-0.0917035 0.103251 -0.217688
0.121141 0.139783 -0.294709
0.260503 0.091524 -0.192964
0.241847 -0.0122517 0.0258308
0.0764904 -0.108596 0.228957
-0.0720377 -0.31703 0.19949
-0.172416 -0.220877 0.138986
-0.168209 0.00925714 -0.00582502
-0.0619687 0.233776 -0.147103
0.081861 0.31649 -0.19915
0.176035 0.207225 -0.130395
0.163428 -0.0277399 0.0174552
0.0516885 -0.245878 0.154718
0.00622557 -0.301733 -0.0172401
0.0149004 -0.210219 -0.0120113
0.0145368 0.00881047 0.000503404
0.0053554 0.222496 0.0127128
-0.0070745 0.301219 0.0172107
-0.0152131 0.197226 0.0112689
-0.0141236 -0.0264014 -0.0015085
-0.00446697 -0.234014 -0.0133709
0.0807125 -0.103409 -0.223513
0.193178 -0.0720454 -0.155723
0.188465 0.00301948 0.00652647
0.069431 0.0762528 0.164817
-0.0917187 0.103232 0.223132
-0.197233 0.0675923 0.146098
-0.183108 -0.00904816 -0.0195572
-0.0579128 -0.0802001 -0.173349
0.10624 0.157642 -0.294205
0.254277 0.10983 -0.204975
0.248073 -0.00460308 0.00859066
0.0913907 -0.116244 0.216945
-0.120728 -0.157374 0.293704
-0.259614 -0.103042 0.192305
-0.241022 0.0137936 -0.0257427
-0.0762295 0.122262 -0.228176
0.0673242 0.323069 -0.186437
0.161135 0.225085 -0.129892
0.157203 -0.00943348 0.00544388
0.057914 -0.238229 0.137478
-0.0765047 -0.322518 0.186119
-0.164517 -0.211172 0.121863
-0.152735 0.0282683 -0.0163131
-0.0483065 0.250562 -0.144594
