# vtk DataFile Version 3.0
Velocity field
ASCII
DATASET STRUCTURED_POINTS
DIMENSIONS 10 10 10
SPACING 0.631579 0.631579 0.631579
ORIGIN 0 0 0
POINT_DATA 1000
VECTORS velocity float
0 0.48412 0
0 0.390731 0
0 0.146596 0
0 -0.154097 0
0 -0.395339 0
0 -0.484055 0
0 -0.38602 0
0 -0.139055 0
0 0.161558 0
0 0.399841 0
0 0.297343 0.379222
0 0.239984 0.31807
0 0.090038 0.119334
0 -0.0946455 -0.125441
0 -0.242814 -0.321821
0 -0.297303 -0.394039
0 -0.237091 -0.314235
0 -0.0854066 -0.113196
0 0.0992279 0.131515
0 0.24558 0.313205
0 -0.00415128 0.612138
0 -0.00335048 0.513426
0 -0.00125704 0.192629
0 0.00132137 -0.202486
0 0.00338999 -0.519481
0 0.00415073 -0.636055
0 0.00331008 -0.507235
0 0.00119238 -0.18272
0 -0.00138535 0.21229
0 -0.0034286 0.505573
0 -0.304044 0.608886
0 -0.245393 0.510699
0 -0.0920671 0.191605
0 0.0967785 -0.201411
0 0.248286 -0.516721
0 0.304003 -0.632677
0 0.242434 -0.504541
0 0.0873313 -0.18175
0 -0.101464 0.211162
0 -0.251114 0.502888
0 -0.486634 0.370722
0 -0.39276 0.31094
0 -0.147357 0.116659
0 0.154898 -0.122629
0 0.397392 -0.314607
0 0.486569 -0.385206
0 0.388025 -0.307191
0 0.139777 -0.110659
0 -0.162397 0.128566
0 -0.401918 0.306184
0 -0.481477 -0.0104702
0 -0.388598 -0.00878176
0 -0.145795 -0.00329478
0 0.153256 0.00346337
0 0.393181 0.00888532
0 0.481413 0.0108793
0 0.383913 0.00867588
0 0.138296 0.00312529
0 -0.160676 -0.00363105
0 -0.397659 -0.00864746
0 -0.290563 -0.387622
0 -0.234512 -0.325115
0 -0.087985 -0.121978
0 0.0924875 0.12822
0 0.237278 0.328949
0 0.290524 0.402767
0 0.231685 0.321195
0 0.0834591 0.115703
0 -0.0969654 -0.134428
0 -0.23998 -0.320143
0 0.0124529 -0.615227
0 0.0100507 -0.516017
0 0.00377084 -0.193601
0 -0.0039638 0.203508
0 -0.0101692 0.522102
0 -0.0124512 0.639266
0 -0.00992947 0.509795
0 -0.00357687 0.183642
0 0.00415571 -0.213361
0 0.010285 -0.508125
0 0.310664 -0.605473
0 0.250736 -0.507836
0 0.0940717 -0.190531
0 -0.0988857 0.200281
0 -0.253692 0.513824
0 -0.310623 0.629129
0 -0.247712 0.501712
0 -0.0892328 0.180731
0 0.103673 -0.209978
0 0.256582 -0.500068
0 0.489019 -0.362122
0 0.394685 -0.292268
0 0.148079 -0.109654
0 -0.155657 0.115265
0 -0.399339 0.295714
0 -0.488954 0.362074
0 -0.389926 0.288743
0 -0.140462 0.104013
0 0.163193 -0.120846
0 0.403887 -0.299082
0 0.390731 0
0 0.331763 0
0 0.124472 0
0 -0.130841 0
0 -0.335675 0
0 -0.411002 0
0 -0.327762 0
0 -0.118069 0
0 0.137176 0
0 0.32271 0
0.0551384 0.239984 0.419693
0.150021 0.201475 0.3524
0.184836 0.0756653 0.13235
0.148291 -0.0795411 -0.139129
0.0545342 -0.204063 -0.356937
-0.0602626 -0.249857 -0.437036
-0.151809 -0.199253 -0.348523
-0.184786 -0.0717793 -0.125553
-0.146428 0.0832213 0.145558
-0.0496077 0.198206 0.34663
0.089004 -0.00335048 0.677465
0.242162 -0.00280293 0.56884
0.29836 -0.00105256 0.213637
0.239371 0.00110648 -0.224581
0.0880289 0.00283869 -0.576164
-0.0972756 0.00347568 -0.70546
-0.24505 0.00277176 -0.562583
-0.298281 0.0009985 -0.202666
-0.236363 -0.00115788 0.234959
-0.0800764 -0.00276721 0.559527
0.0885312 -0.245393 0.673866
0.240876 -0.205767 0.565818
0.296775 -0.0772763 0.212503
0.238099 0.081235 -0.223388
0.0875612 0.208409 -0.573103
-0.096759 0.255176 -0.701712
-0.243748 0.203496 -0.559594
-0.296697 0.0733078 -0.20159
-0.235108 -0.0849951 0.233711
-0.0796511 -0.202673 0.556555
0.0539024 -0.39276 0.410285
0.146658 -0.329339 0.344499
0.180692 -0.123684 0.129383
0.144968 0.130019 -0.13601
0.0533117 0.333565 -0.348935
-0.0589117 0.40842 -0.427238
-0.148407 0.325704 -0.340709
-0.180644 0.117332 -0.122738
-0.143145 -0.136038 0.142295
-0.0484957 -0.324386 0.33886
-0.00152235 -0.388598 -0.0115875
-0.00414201 -0.32585 -0.00972956
-0.00510324 -0.122373 -0.00365412
-0.00409424 0.128642 0.00384129
-0.00150567 0.330031 0.00985485
0.00166382 0.404092 0.0120664
0.00419139 0.322253 0.00962256
0.00510189 0.116088 0.00346645
0.00404282 -0.134597 -0.00401878
0.00136965 -0.320948 -0.0095703
-0.0563598 -0.234512 -0.428989
-0.153344 -0.196643 -0.360205
-0.188929 -0.0738502 -0.135281
-0.151575 0.0776327 0.142211
-0.0557421 0.199168 0.364843
0.0615973 0.243862 0.446715
0.155172 0.194473 0.356244
0.188879 0.0700573 0.128334
0.149672 -0.0812269 -0.148782
0.0507066 -0.193687 -0.354308
-0.0894532 0.0100507 -0.680883
-0.243383 0.00842339 -0.571706
-0.299863 0.00316334 -0.214714
-0.240577 -0.00332536 0.225712
-0.0884725 -0.00853127 0.579068
0.0977656 -0.0104457 0.709015
0.246284 -0.00833018 0.565418
0.299784 -0.00300087 0.203687
0.237554 0.00347948 -0.236143
0.0804806 0.00830097 -0.562351
-0.0880349 0.250736 -0.670088
-0.239403 0.209984 -0.56237
-0.294959 0.0788561 -0.211204
-0.236642 -0.0828949 0.222022
-0.0870252 -0.212667 0.5696
0.0961666 -0.260391 0.697422
0.242257 -0.207655 0.556172
0.294881 -0.0748057 0.200357
0.23367 0.0867411 -0.232291
0.0792045 0.207086 -0.553435
-0.0526521 0.394685 -0.400767
-0.137643 0.318549 -0.323458
-0.16953 0.119514 -0.121356
-0.136011 -0.12563 0.127566
-0.0500181 -0.322305 0.327272
0.0552721 -0.394633 0.400714
0.139238 -0.314708 0.319558
0.169485 -0.113366 0.115114
0.134343 0.131713 -0.133742
0.0473708 0.325976 -0.330999
0 0.146596 0
0 0.124472 0
0 0.0466997 0
0 -0.0490894 0
0 -0.125939 0
0 -0.154201 0
0 -0.122971 0
0 -0.0442975 0
0 0.0514662 0
0 0.121075 0
0.089004 0.090038 0.298242
0.242162 0.0756653 0.250345
0.29836 0.0284178 0.0940213
0.239371 -0.0298734 -0.0988374
0.0880289 -0.0766405 -0.253569
-0.0972756 -0.0938391 -0.310471
-0.24505 -0.074834 -0.247592
-0.298281 -0.0269584 -0.0891933
-0.236363 0.0312531 0.103404
-0.0800764 0.0743636 0.246322
0.14367 -0.00125704 0.48142
0.390897 -0.00105256 0.404105
0.481612 -0.000395278 0.151768
0.386392 0.000415521 -0.159543
0.142095 0.00106603 -0.409308
-0.157021 0.00130526 -0.501161
-0.395557 0.0010409 -0.399661
-0.481484 0.000374975 -0.143975
-0.381535 -0.000434797 0.166914
-0.129259 -0.00103821 0.397612
0.142906 -0.0920671 0.478863
0.388821 -0.0772763 0.401958
0.479053 -0.0290225 0.150962
0.384339 0.0305091 -0.158695
0.141341 0.0782714 -0.407134
-0.156187 0.0958363 -0.498498
-0.393456 0.0764264 -0.397537
-0.478926 0.027532 -0.14321
-0.379508 -0.0319189 0.166028
-0.128572 -0.0760395 0.3955
0.0870089 -0.147357 0.291557
0.236734 -0.123684 0.244733
0.291673 -0.0464516 0.0919137
0.234005 0.0488311 -0.0966223
0.0860553 0.125277 -0.247885
-0.0950947 0.153389 -0.303511
-0.239557 0.122323 -0.242042
-0.291596 0.0440662 -0.0871935
-0.231065 -0.0510875 0.101086
-0.0782814 -0.121704 0.240801
-0.00245736 -0.145795 -0.00823434
-0.00668599 -0.122373 -0.00691193
-0.00823759 -0.0459593 -0.00259589
-0.00660892 0.0483138 0.00272886
-0.00243043 0.123949 0.00700095
0.00268572 0.151764 0.00857199
0.00676572 0.121027 0.00683588
0.0082354 0.0435992 0.00246257
0.00652591 -0.0505461 -0.00285495
0.00221088 -0.120414 -0.00680086
-0.0909755 -0.087985 -0.304848
-0.247526 -0.0738502 -0.25589
-0.304969 -0.0277357 -0.0961044
-0.244673 0.0291564 0.101027
-0.0899786 0.074801 0.259186
0.09943 0.0915868 0.317349
0.250478 0.0730381 0.253076
0.304888 0.0263114 0.0911686
0.241599 -0.0305037 -0.105695
0.0818502 -0.072668 -0.251779
-0.144395 0.00377084 -0.48385
-0.392866 0.00316334 -0.40614
-0.484038 0.00118802 -0.152533
-0.388338 -0.00124887 0.160347
-0.142811 -0.00320398 0.41137
0.157812 -0.00392298 0.503686
0.39755 -0.00312846 0.401674
0.48391 -0.001127 0.1447
0.383458 0.00130665 -0.167755
0.129911 0.00311438 -0.399618
-0.142105 0.0940717 -0.476178
-0.386443 0.0788561 -0.399508
-0.476121 0.0296142 -0.15004
-0.381986 -0.0311311 0.157725
-0.140475 -0.079867 0.404645
0.155231 -0.0977898 0.495449
0.391049 -0.0779845 0.395106
0.475994 -0.0280933 0.142334
0.377188 0.0325731 -0.165019
0.127851 0.0776951 -0.393282
-0.0849906 0.148079 -0.284794
-0.222182 0.119514 -0.229856
-0.273654 0.0448397 -0.086238
-0.219548 -0.0471343 0.0906511
-0.0807388 -0.120923 0.232566
0.0892197 -0.148059 0.284756
0.224757 -0.118073 0.227084
0.273581 -0.0425332 0.0818021
0.216856 0.0494163 -0.0950401
0.0764656 0.122301 -0.235215
0 -0.154097 0
0 -0.130841 0
0 -0.0490894 0
0 0.0516015 0
0 0.132384 0
0 0.162092 0
0 0.129264 0
0 0.0465643 0
0 -0.0540999 0
0 -0.127271 0
0.0885312 -0.0946455 0.0617278
0.240876 -0.0795411 0.0518138
0.296775 -0.0298734 0.0194595
0.238099 0.0314037 -0.0204564
0.0875612 0.0805666 -0.0524811
-0.096759 0.098646 -0.0642581
-0.243748 0.0786673 -0.0512437
-0.296697 0.0283393 -0.0184602
-0.235108 -0.0328538 0.0214015
-0.0796511 -0.078169 0.0509819
0.142906 0.00132137 0.0996406
0.388821 0.00110648 0.083637
0.479053 0.000415521 0.0314115
0.384339 -0.000436806 -0.0330205
0.141341 -0.00112062 -0.0847142
-0.156187 -0.00137211 -0.103725
-0.393456 -0.00109422 -0.0827174
-0.478926 -0.000394178 -0.0297983
-0.379508 0.000457066 0.0345462
-0.128572 0.00109134 0.0822946
0.142147 0.0967785 0.0991113
0.386755 0.081235 0.0831927
0.476508 0.0305091 0.0312446
0.382296 -0.0320719 -0.0328451
0.14059 -0.0822808 -0.0842642
-0.155357 -0.100745 -0.103174
-0.391367 -0.0803415 -0.082278
-0.476381 -0.0289423 -0.02964
-0.377492 0.0335538 0.0343627
-0.127889 0.0799306 0.0818574
0.0865467 0.154898 0.0603441
0.235476 0.130019 0.0506522
0.290124 0.0488311 0.0190233
0.232762 -0.0513322 -0.0199978
0.0855982 -0.131694 -0.0513044
-0.0945894 -0.161247 -0.0628176
-0.238284 -0.12859 -0.0500952
-0.290047 -0.0463233 -0.0180464
-0.229837 0.0537042 0.0209217
-0.0778656 0.127932 0.049839
-0.00244431 0.153256 -0.00170428
-0.00665047 0.128642 -0.00143055
-0.00819381 0.0483138 -0.00053727
-0.00657384 -0.0507884 0.000564792
-0.00241752 -0.130298 0.00144898
0.00267146 -0.159538 0.00177414
0.00672978 -0.127227 0.00141482
0.00819164 -0.0458324 0.000509677
0.00649122 0.0531351 -0.000590887
0.00219913 0.126576 -0.00140759
-0.0904922 0.0924875 -0.0630951
-0.246211 0.0776327 -0.0529613
-0.303348 0.0291564 -0.0198906
-0.243373 -0.0306499 0.0209094
-0.0895009 -0.0786326 0.0536434
0.0989017 -0.0962785 0.0656814
0.249147 -0.0767791 0.0523791
0.303268 -0.0276591 0.0188691
0.240315 0.0320661 -0.0218756
0.0814154 0.0763866 -0.0521112
-0.143628 -0.0039638 -0.100143
-0.39078 -0.00332536 -0.0840584
-0.481467 -0.00124887 -0.0315697
-0.386275 0.00131284 0.0331868
-0.142053 0.0033681 0.0851409
0.156974 0.00412392 0.104248
0.395438 0.00328871 0.0831341
0.481339 0.00118473 0.0299484
0.38142 -0.00137357 -0.0347202
0.129221 -0.00327376 -0.0827099
-0.14135 -0.0988857 -0.0985556
-0.38439 -0.0828949 -0.0826861
-0.473591 -0.0311311 -0.0310535
-0.379956 0.0327256 0.0326442
-0.139729 0.0839578 0.0837489
0.154406 0.102798 0.102543
0.388972 0.0819789 0.0817751
0.473465 0.0295322 0.0294588
0.375184 -0.0342413 -0.034154
0.127172 -0.081671 -0.0813985
-0.0845391 -0.155657 -0.0589444
-0.221002 -0.12563 -0.0475738
-0.2722 -0.0471343 -0.0178489
-0.218382 0.0495463 0.0187623
-0.0803099 0.127111 0.0481348
0.0887458 0.155636 0.0589365
0.223563 0.124115 0.0470001
0.272128 0.0447097 0.0169307
0.215704 -0.0519451 -0.0196707
0.0760594 -0.128559 -0.048683
0 -0.395339 0
0 -0.335675 0
0 -0.125939 0
0 0.132384 0
0 0.339633 0
0 0.415849 0
0 0.331627 0
0 0.119461 0
0 -0.138794 0
0 -0.326516 0
0.0539024 -0.242814 -0.198602
0.146658 -0.204063 -0.166703
0.180692 -0.0766405 -0.0626086
0.144968 0.0805666 0.0658156
0.0533117 0.206694 0.16885
-0.0589117 0.253077 0.206742
-0.148407 0.201822 0.16487
-0.180644 0.0727049 0.0593933
-0.143145 -0.0842869 -0.0688567
-0.0484957 -0.200543 -0.164028
0.0870089 0.00338999 -0.320581
0.236734 0.00283869 -0.269092
0.291673 0.00106602 -0.101062
0.234005 -0.00112062 0.106239
0.0860553 -0.00287499 0.272557
-0.0950947 -0.00352018 0.333721
-0.239557 -0.00280721 0.266133
-0.291596 -0.00101127 0.0958723
-0.231065 0.0011726 -0.111148
-0.0782814 0.00279984 -0.264773
0.0865467 0.248286 -0.318878
0.235476 0.208409 -0.267662
0.290124 0.0782714 -0.100525
0.232762 -0.0822808 0.105675
0.0855982 -0.211093 0.271109
-0.0945894 -0.258463 0.331948
-0.238284 -0.206116 0.264719
-0.290047 -0.0742518 0.0953629
-0.229837 0.0860825 -0.110557
-0.0778656 0.205063 -0.263366
0.0526941 0.397392 -0.19415
0.14337 0.333565 -0.162967
0.176642 0.125277 -0.061205
0.141718 -0.131694 0.0643404
0.0521168 -0.337861 0.165065
-0.057591 -0.41368 0.202107
-0.14508 -0.329897 0.161175
-0.176596 -0.118843 0.0580619
-0.139937 0.137779 -0.067313
-0.0474086 0.328211 -0.160351
-0.00148822 0.393181 0.0054833
-0.00404916 0.330031 0.00460262
-0.00498883 0.123949 0.0017286
-0.00400247 -0.130298 -0.00181713
-0.00147191 -0.334281 -0.00466189
0.00162654 -0.409295 -0.00570804
0.00409743 -0.326402 -0.00455201
0.0049875 -0.117584 -0.00163983
0.0039522 0.136319 0.0019011
0.00133895 0.324733 0.00452874
-0.0550964 0.237278 0.203001
-0.149906 0.199168 0.170396
-0.184695 0.074801 0.0639954
-0.148178 -0.0786326 -0.0672733
-0.0544926 -0.201733 -0.17259
0.0602167 -0.247003 -0.211321
0.151693 -0.196977 -0.168522
0.184646 -0.0709597 -0.060709
0.146317 0.0822659 0.0703818
0.0495699 0.195971 0.167661
-0.087448 -0.0101692 0.322199
-0.237926 -0.00853127 0.270447
-0.293143 -0.00320398 0.101571
-0.235184 0.0033681 -0.106774
-0.0864888 0.00864087 -0.27393
0.095574 0.01058 -0.335402
0.240764 0.00843723 -0.267473
0.293065 0.00303944 -0.0963554
0.232229 -0.00352392 0.111708
0.0786765 -0.00839886 0.266109
-0.0860615 -0.253692 0.317091
-0.234036 -0.212667 0.266032
-0.288348 -0.079867 0.0999108
-0.231337 0.0839578 -0.105029
-0.0850741 0.215394 -0.269452
0.0940104 0.263731 -0.329919
0.236826 0.210318 -0.2631
0.288271 0.075765 -0.0947796
0.228432 -0.0878464 0.109886
0.077429 -0.209528 0.261889
-0.0514718 -0.399339 0.189646
-0.134557 -0.322305 0.153063
-0.165729 -0.120923 0.0574265
-0.132962 0.127111 -0.0603652
-0.0488969 0.326106 -0.154868
0.0540331 0.399286 -0.189621
0.136117 0.318419 -0.151217
0.165685 0.114703 -0.0544726
0.131332 -0.133266 0.0632879
0.0463089 -0.32982 0.156631
0 -0.484055 0
0 -0.411002 0
0 -0.154201 0
0 0.162092 0
0 0.415849 0
0 0.509168 0
0 0.406047 0
0 0.146269 0
0 -0.16994 0
0 -0.399788 0
-0.00152235 -0.297303 -0.382309
-0.00414201 -0.249857 -0.320906
-0.00510324 -0.0938391 -0.120522
-0.00409424 0.098646 0.126695
-0.00150567 0.253077 0.325039
0.00166382 0.309869 0.397979
0.00419139 0.247112 0.317377
0.00510189 0.0890203 0.114332
0.00404282 -0.103201 -0.132549
0.00136965 -0.245547 -0.315754
-0.00245736 0.00415073 -0.617121
-0.00668599 0.00347568 -0.518004
-0.00823759 0.00130526 -0.194546
-0.00660892 -0.00137211 0.20451
-0.00243043 -0.00352018 0.524674
0.00268572 -0.00431011 0.642416
0.00676572 -0.00343718 0.512307
0.0082354 -0.0012382 0.184554
0.00652591 0.00143575 -0.21396
0.00221088 0.00342814 -0.509688
-0.00244431 0.304003 -0.613842
-0.00665047 0.255176 -0.515252
-0.00819381 0.0958363 -0.193513
-0.00657384 -0.100745 0.203424
-0.00241752 -0.258463 0.521887
0.00267146 -0.316464 0.639003
0.00672978 -0.25237 0.509585
0.00819164 -0.0909143 0.183574
0.00649122 0.1054 -0.212823
0.00219913 0.25108 -0.506981
-0.00148822 0.486569 -0.373739
-0.00404916 0.40842 -0.313712
-0.00498883 0.153389 -0.11782
-0.00400247 -0.161247 0.123855
-0.00147191 -0.41368 0.317752
0.00162654 -0.506512 0.389059
0.00409743 -0.403929 0.310261
0.0049875 -0.145513 0.111769
0.0039522 0.168697 -0.129578
0.00133895 0.401864 -0.308676
4.20314e-05 0.481413 0.0105554
0.000114358 0.404092 0.00886006
0.000140899 0.151764 0.00332754
0.000113041 -0.159538 -0.00349802
4.15707e-05 -0.409295 -0.00897414
-4.59368e-05 -0.501145 -0.010988
-0.000115724 -0.399648 -0.00876266
-0.000140861 -0.14397 -0.00315667
-0.00011162 0.166909 0.00365963
-3.78154e-05 0.397605 0.00871784
0.00155607 0.290524 0.390777
0.00423374 0.243862 0.328014
0.00521628 0.0915868 0.123191
0.00418495 -0.0962785 -0.129502
0.00153901 -0.247003 -0.332238
-0.00170068 -0.302431 -0.406794
-0.00428425 -0.241181 -0.324408
-0.0052149 -0.0868834 -0.116865
-0.00413237 0.100727 0.135485
-0.00139999 0.239948 0.322749
0.00246976 -0.0124512 0.620235
0.00671969 -0.0104457 0.520613
0.00827911 -0.00392298 0.195526
0.00664219 0.00412392 -0.205541
0.00244267 0.01058 -0.527318
-0.00269925 0.0129542 -0.645654
-0.0067998 0.0103306 -0.514889
-0.00827691 0.00372151 -0.185484
-0.00655878 -0.00431471 0.215038
-0.00222203 -0.0102836 0.512261
0.00243061 -0.310623 0.610401
0.00660982 -0.260391 0.512112
0.00814367 -0.0977898 0.192329
0.00653362 0.102798 -0.20218
0.00240273 0.263731 -0.518696
-0.0026551 0.322914 -0.635096
-0.00668857 0.257514 -0.506469
-0.00814151 0.0927672 -0.182451
-0.00645152 -0.10756 0.211531
-0.0021868 -0.256547 0.504139
0.0014537 -0.488954 0.36507
0.00380025 -0.394633 0.294646
0.00468064 -0.148059 0.110546
0.0037552 0.155636 -0.116203
0.00138098 0.399286 -0.298121
-0.00152604 0.488889 -0.365021
-0.0038443 0.389874 -0.291094
-0.0046794 0.140443 -0.10486
-0.00370915 -0.163171 0.121829
-0.00130789 -0.403834 0.301516
0 -0.38602 0
0 -0.327762 0
0 -0.122971 0
0 0.129264 0
0 0.331627 0
0 0.406047 0
0 0.32381 0
0 0.116645 0
0 -0.135522 0
0 -0.318819 0
-0.0563598 -0.237091 -0.418519
-0.153344 -0.199253 -0.3513
-0.188929 -0.074834 -0.131937
-0.151575 0.0786673 0.138695
-0.0557421 0.201822 0.355825
0.0615973 0.247112 0.435673
0.155172 0.197064 0.347436
0.188879 0.0709909 0.125161
0.149672 -0.0823001 -0.145104
0.0507066 -0.195816 -0.345661
-0.0909755 0.00331008 -0.67557
-0.247526 0.00277176 -0.567065
-0.304969 0.0010409 -0.212971
-0.244673 -0.00109422 0.223881
-0.0899786 -0.00280721 0.574368
0.09943 -0.00343718 0.703261
0.250478 -0.00274106 0.560828
0.304888 -0.000987441 0.202034
0.241599 0.00114497 -0.234225
0.0818502 0.00273384 -0.557963
-0.0904922 0.242434 -0.671981
-0.246211 0.203496 -0.564053
-0.303348 0.0764264 -0.21184
-0.243374 -0.0803415 0.222691
-0.0895009 -0.206116 0.571317
0.0989017 -0.25237 0.699525
0.249147 -0.201258 0.557849
0.303268 -0.0725018 0.200961
0.240315 0.0840534 -0.232981
0.0814154 0.200229 -0.554999
-0.0550964 0.388025 -0.409137
-0.149906 0.325704 -0.343424
-0.184695 0.122323 -0.128979
-0.148178 -0.12859 0.135586
-0.0544926 -0.329897 0.347847
0.0602167 -0.403929 0.425906
0.151693 -0.322123 0.339647
0.184646 -0.116042 0.122355
0.146317 0.134531 -0.141851
0.0495699 0.320475 -0.337912
0.00155607 0.383913 0.0115551
0.00423374 0.322253 0.00969923
0.00521628 0.121028 0.00364271
0.00418494 -0.127227 -0.00382931
0.00153901 -0.326402 -0.00982411
-0.00170068 -0.399648 -0.0120288
-0.00428425 -0.318708 -0.00959258
-0.0052149 -0.114812 -0.00345565
-0.00413237 0.133105 0.00400624
-0.00139999 0.317079 0.00954354
0.0576082 0.231685 0.427789
0.15674 0.194473 0.359082
0.193115 0.0730381 0.134859
0.154933 -0.0767791 -0.141767
0.0569769 -0.196977 -0.363705
-0.0629619 -0.241181 -0.445323
-0.15861 -0.192335 -0.355134
-0.193064 -0.0692869 -0.127934
-0.152987 0.0803269 0.148318
-0.0518298 0.191351 0.353317
0.0914346 -0.00992947 0.678979
0.248773 -0.00833018 0.569922
0.306505 -0.00312846 0.214044
0.245905 0.00328871 -0.225009
0.0904318 0.00843723 -0.577263
-0.099931 0.0103306 -0.706805
-0.25174 0.00823831 -0.563654
-0.306424 0.00296778 -0.203052
-0.242816 -0.00344084 0.235405
-0.0822633 -0.00820088 0.560778
0.0899849 -0.247712 0.668214
0.244706 -0.207655 0.560615
0.301492 -0.0779845 0.210546
0.241884 0.0819789 -0.22133
0.0889531 0.210318 -0.567824
-0.0982964 0.257514 -0.695247
-0.247622 0.205359 -0.554438
-0.301412 0.0739792 -0.199732
-0.238846 -0.0857758 0.231565
-0.080959 -0.204589 0.551887
0.0538184 -0.389926 0.399647
0.140692 -0.314708 0.322553
0.173285 -0.118073 0.121017
0.139024 0.124115 -0.127209
0.051126 0.318419 -0.326357
-0.0564964 0.389874 -0.399594
-0.142322 0.310913 -0.318664
-0.173239 0.112 -0.114792
-0.137319 -0.130124 0.133368
-0.0484201 -0.322045 0.330074
0 -0.139055 0
0 -0.118069 0
0 -0.0442975 0
0 0.0465643 0
0 0.119461 0
0 0.146269 0
0 0.116645 0
0 0.0420189 0
0 -0.0488188 0
0 -0.114847 0
-0.0894532 -0.0854066 -0.293261
-0.243383 -0.0717793 -0.246162
-0.299863 -0.0269584 -0.0924505
-0.240577 0.0283394 0.0971866
-0.0884725 0.0727049 0.249332
0.0977656 0.0890204 0.305283
0.246284 0.070991 0.243455
0.299784 0.0255739 0.0877028
0.237554 -0.0296478 -0.101677
0.0804806 -0.0705384 -0.242208
-0.144395 0.00119238 -0.47338
-0.392866 0.000998501 -0.397352
-0.484038 0.000374975 -0.149233
-0.388338 -0.000394179 0.156877
-0.142811 -0.00101127 0.40247
0.157812 -0.0012382 0.492786
0.39755 -0.000987441 0.392983
0.48391 -0.000355717 0.141569
0.383458 0.000412464 -0.164126
0.129911 0.000984805 -0.390971
-0.143628 0.0873313 -0.470865
-0.39078 0.0733078 -0.395241
-0.481467 0.027532 -0.14844
-0.386275 -0.0289423 0.156044
-0.142053 -0.0742519 0.400332
0.156974 -0.0909144 0.490169
0.395438 -0.0725018 0.390896
0.481339 -0.0261182 0.140817
0.38142 0.0302795 -0.163254
0.129221 0.0721281 -0.388894
-0.087448 0.139777 -0.286687
-0.237926 0.117332 -0.240644
-0.293143 0.0440662 -0.090378
-0.235184 -0.0463234 0.0950075
-0.0864888 -0.118843 0.243743
0.095574 -0.145513 0.298441
0.240764 -0.116042 0.237997
0.293065 -0.0418031 0.0857366
0.232229 0.0484636 -0.0993974
0.0786765 0.115444 -0.236779
0.00246976 0.138296 0.00809681
0.00671969 0.116089 0.00679643
0.0082791 0.0435992 0.00255252
0.00664219 -0.0458325 -0.00268326
0.00244267 -0.117584 -0.00688393
-0.00269925 -0.14397 -0.00842873
-0.0067998 -0.114812 -0.00672168
-0.00827691 -0.0413602 -0.00242144
-0.00655878 0.04795 0.00280726
-0.00222203 0.11422 0.00668727
0.0914346 0.0834591 0.299757
0.248773 0.0700573 0.251615
0.306505 0.0263114 0.0944982
0.245905 -0.0276591 -0.0993389
0.0904318 -0.0709597 -0.254855
-0.099931 -0.0868835 -0.312046
-0.25174 -0.069287 -0.248847
-0.306424 -0.0249601 -0.0896456
-0.242816 0.028937 0.103929
-0.0822633 0.06893 0.247573
0.145123 -0.00357687 0.475768
0.394845 -0.00300087 0.399354
0.486477 -0.001127 0.149985
0.390294 0.00118473 -0.157668
0.143531 0.00303944 -0.404498
-0.158607 0.00372151 -0.495269
-0.399553 0.00296779 -0.394963
-0.486347 0.00106912 -0.142282
-0.38539 -0.00123953 0.164953
-0.130567 -0.00295418 0.392944
0.142822 -0.0892328 0.468225
0.38839 -0.0748058 0.392833
0.47852 -0.0280933 0.147533
0.383911 0.0295322 -0.155089
0.141183 0.075765 -0.397884
-0.156013 0.0927674 -0.487172
-0.393018 0.0739792 -0.388507
-0.478393 0.0266503 -0.139956
-0.379088 -0.0308999 0.162262
-0.128497 -0.0736985 0.386714
0.0854195 -0.140462 0.280037
0.223303 -0.113366 0.226017
0.275035 -0.0425332 0.0847977
0.220656 0.0447097 -0.089137
0.0811463 0.114703 -0.228682
-0.08967 0.140443 -0.28
-0.225891 0.112 -0.223292
-0.274961 0.0403453 -0.0804358
-0.21795 -0.0468744 0.0934527
-0.0768515 -0.11601 0.231286
0 0.161558 0
0 0.137176 0
0 0.0514662 0
0 -0.0540998 0
0 -0.138794 0
0 -0.16994 0
0 -0.135522 0
0 -0.0488188 0
0 0.0567191 0
0 0.133433 0
-0.0880349 0.0992279 -0.0548609
-0.239403 0.0832187 -0.0461924
-0.294959 0.0312521 -0.0173505
-0.236642 -0.0328528 0.0182394
-0.0870252 -0.0842842 0.0467931
0.0961666 -0.103198 0.0572939
0.242257 -0.0822975 0.0456902
0.294881 -0.0296469 0.0164596
0.23367 0.0343757 -0.0190773
0.0792045 0.0819537 -0.0453104
-0.142105 -0.00138535 -0.0885561
-0.386443 -0.00115784 -0.0745633
-0.476121 -0.000434782 -0.028007
-0.381986 0.000457049 0.0294418
-0.140475 0.00117256 0.0755331
0.155231 0.0014357 0.0924833
0.391049 0.00114493 0.0737528
0.475994 0.000412449 0.026569
0.377188 -0.000478322 -0.0307944
0.127851 -0.00114418 -0.0731397
-0.14135 -0.101464 -0.0880856
-0.38439 -0.0849923 -0.0741672
-0.473591 -0.0319179 -0.0278582
-0.379956 0.0335527 0.0292854
-0.139729 0.0860796 0.0751319
0.154406 0.105397 0.0919921
0.388972 0.0840506 0.0733612
0.473465 0.0302785 0.0264279
0.375184 -0.0351089 -0.0306308
0.127172 -0.0838006 -0.0727512
-0.0860615 -0.162397 -0.0536311
-0.234036 -0.136034 -0.0451569
-0.288348 -0.0510858 -0.0169615
-0.231337 0.0537024 0.0178305
-0.0850741 0.137774 0.0457442
0.0940104 0.168691 0.0560096
0.236826 0.134526 0.0446661
0.288271 0.048462 0.0160907
0.228432 -0.0561932 -0.0186496
0.077429 -0.134126 -0.0442947
0.00243061 -0.160676 0.00151469
0.00660982 -0.134592 0.00127535
0.00814367 -0.0505445 0.000479038
0.00653362 0.0531333 -0.00050358
0.00240273 0.136314 -0.00129194
-0.0026551 0.166904 -0.00158186
-0.00668857 0.133101 -0.00126149
-0.00814151 0.0479484 -0.000454443
-0.00645152 -0.0555976 0.000526715
-0.0021868 -0.132705 0.001251
0.0899849 -0.0969654 0.0560761
0.244706 -0.0812243 0.0472156
0.301492 -0.0305027 0.0177348
0.241884 0.0320651 -0.0186433
0.0889531 0.0822632 -0.0478297
-0.0982964 0.100724 -0.058563
-0.247622 0.0803242 -0.0467022
-0.301412 0.028936 -0.0168242
-0.238846 -0.0335522 0.0194999
-0.080959 -0.080085 0.046314
0.142822 0.00415571 0.089003
0.38839 0.00347937 0.0749388
0.47852 0.00130661 0.0281481
0.383911 -0.00137353 -0.0295901
0.141183 -0.0035238 -0.0759136
-0.156013 -0.00431456 -0.0929491
-0.393018 -0.00344073 -0.0741242
-0.478393 -0.00123949 -0.0267028
-0.379088 0.0014373 0.0309495
-0.128497 0.00343226 0.0735088
0.140558 0.103673 0.0875918
0.382043 0.0867384 0.0737111
0.470697 0.032572 0.0276862
0.377634 -0.0342402 -0.0291046
0.138875 -0.0878436 -0.074668
-0.153462 -0.107557 -0.091424
-0.386595 -0.085773 -0.0729081
-0.470572 -0.0308988 -0.0262647
-0.372893 0.0358319 0.0304431
-0.126459 0.0856252 0.0723433
0.0840652 0.163193 0.0523871
0.219763 0.131713 0.0422814
0.270674 0.0494163 0.0158633
0.217157 -0.0519451 -0.016675
0.0798597 -0.133266 -0.04278
-0.0882483 -0.163171 -0.0523801
-0.222309 -0.130124 -0.0417716
-0.270602 -0.0468744 -0.0150473
-0.214494 0.0544601 0.0174824
-0.075633 0.134783 0.0432672
0 0.399841 0
0 0.32271 0
0 0.121075 0
0 -0.127271 0
0 -0.326516 0
0 -0.399788 0
0 -0.318819 0
0 -0.114847 0
0 0.133433 0
0 0.330234 0
-0.0526521 0.24558 0.204705
-0.137643 0.198206 0.165217
-0.16953 0.0743636 0.0619865
-0.136011 -0.078169 -0.0651586
-0.0500181 -0.200543 -0.167165
0.055272 -0.245547 -0.204678
0.139238 -0.195816 -0.163225
0.169485 -0.0705384 -0.058798
0.134343 0.0819537 0.0683133
0.0473708 0.202827 0.169069
-0.0849906 -0.0034286 0.330434
-0.222182 -0.00276721 0.266692
-0.273653 -0.00103821 0.100058
-0.219548 0.00109134 -0.105178
-0.0807388 0.00279984 -0.269837
0.0892197 0.00342814 -0.33039
0.224757 0.00273384 -0.263476
0.273581 0.000984806 -0.0949113
0.216855 -0.00114418 0.110271
0.0764656 -0.00283173 0.27291
-0.0845391 -0.251114 0.328678
-0.221001 -0.202673 0.265275
-0.2722 -0.0760395 0.0995267
-0.218381 0.0799307 -0.10462
-0.0803099 0.205063 -0.268403
0.0887458 0.25108 -0.328635
0.223563 0.200229 -0.262076
0.272127 0.0721281 -0.0944071
0.215703 -0.0838006 0.109685
0.0760594 -0.207398 0.27146
-0.0514718 -0.401918 0.200116
-0.134557 -0.324386 0.161513
-0.165729 -0.121704 0.060597
-0.132962 0.127932 -0.0636979
-0.0488969 0.328211 -0.163418
0.054033 0.401864 -0.20009
0.136117 0.320475 -0.159566
0.165685 0.115444 -0.05748
0.131331 -0.134126 0.066782
0.0463089 -0.331949 0.165279
0.0014537 -0.397659 -0.00565182
0.00380025 -0.320949 -0.00456156
0.00468064 -0.120414 -0.00171142
0.0037552 0.126576 0.001799
0.00138098 0.324733 0.00461535
-0.00152604 0.397605 0.00565107
-0.00384429 0.317079 0.00450656
-0.0046794 0.11422 0.00162339
-0.00370915 -0.132705 -0.0018861
-0.00130789 -0.328432 -0.00466792
0.0538184 -0.23998 -0.20924
0.140691 -0.193687 -0.168876
0.173285 -0.072668 -0.0633596
0.139024 0.0763866 0.0666019
0.051126 0.195971 0.170868
-0.0564964 0.239948 0.209212
-0.142322 0.191351 0.16684
-0.173239 0.06893 0.0601004
-0.137319 -0.080085 -0.0698265
-0.0484201 -0.198203 -0.172814
0.0854195 0.010285 -0.332101
0.223303 0.00830097 -0.268038
0.275034 0.00311438 -0.100563
0.220656 -0.00327376 0.105709
0.0811463 -0.00839886 0.271198
-0.08967 -0.0102836 0.332057
-0.225891 -0.00820088 0.264806
-0.274961 -0.00295418 0.0953903
-0.21795 0.00343226 -0.110827
-0.0768515 0.00849451 -0.274287
0.0840652 0.256582 -0.326836
0.219762 0.207086 -0.263788
0.270674 0.0776951 -0.0989687
0.217157 -0.081671 0.104033
0.0798597 -0.209528 0.266898
-0.0882482 -0.256547 0.326792
-0.222309 -0.204589 0.260607
-0.270602 -0.0736986 0.0938779
-0.214494 0.0856252 -0.10907
-0.075633 0.211914 -0.269938
0.0502779 0.403887 -0.195474
0.131436 0.325976 -0.157767
0.161885 0.122301 -0.0591914
0.129878 -0.128559 0.0622204
0.0477627 -0.32982 0.159627
-0.0527797 -0.403834 0.195448
-0.132959 -0.322045 0.155864
-0.161842 -0.11601 0.0561467
-0.128285 0.134783 -0.0652329
-0.0452347 0.333576 -0.161445
