# vtk DataFile Version 3.0
Velocity field
ASCII
DATASET STRUCTURED_POINTS
DIMENSIONS 10 10 10
SPACING 0.631579 0.631579 0.631579
ORIGIN 0 0 0
POINT_DATA 1000
VECTORS velocity float
0 0.612363 0
0 0.494236 0
0 0.185429 0
0 -0.194918 0
0 -0.500064 0
0 -0.612282 0
0 -0.488277 0
0 -0.175891 0
0 0.204355 0
0 0.505759 0
0 0.376109 0.479679
0 0.303556 0.402327
0 0.113889 0.150946
0 -0.119717 -0.158671
0 -0.307136 -0.407071
0 -0.376059 -0.49842
0 -0.299896 -0.397476
0 -0.108031 -0.143182
0 0.125513 0.166353
0 0.310634 0.396173
0 -0.00525096 0.774293
0 -0.00423803 0.649433
0 -0.00159004 0.243656
0 0.0016714 -0.256125
0 0.004288 -0.657091
0 0.00525026 -0.804547
0 0.00418693 -0.641602
0 0.00150825 -0.231123
0 -0.00175233 0.268526
0 -0.00433684 0.6395
0 -0.384585 0.77018
0 -0.310397 0.645983
0 -0.116456 0.242362
0 0.122415 -0.254764
0 0.314057 -0.6536
0 0.384534 -0.800273
0 0.306654 -0.638194
0 0.110465 -0.229895
0 -0.128342 0.267099
0 -0.317634 0.636103
0 -0.615543 0.468926
0 -0.496803 0.393308
0 -0.186392 0.147562
0 0.19593 -0.155114
0 0.502661 -0.397946
0 0.615461 -0.487248
0 0.490812 -0.388566
0 0.176804 -0.139972
0 -0.205416 0.162624
0 -0.508386 0.387292
0 -0.60902 -0.0132437
0 -0.491538 -0.0111081
0 -0.184417 -0.00416756
0 0.193854 0.00438082
0 0.497334 0.0112391
0 0.608939 0.0137612
0 0.485611 0.0109741
0 0.174931 0.00395319
0 -0.20324 -0.00459293
0 -0.502998 -0.0109382
0 -0.367533 -0.490304
0 -0.296635 -0.411239
0 -0.111292 -0.15429
0 0.116987 0.162185
0 0.300132 0.416088
0 0.367484 0.509461
0 0.293058 0.40628
0 0.105567 0.146353
0 -0.122652 -0.170038
0 -0.303551 -0.404949
0 0.0157516 -0.778201
0 0.0127131 -0.65271
0 0.00476973 -0.244886
0 -0.00501381 0.257418
0 -0.012863 0.660407
0 -0.0157495 0.808607
0 -0.0125598 0.64484
0 -0.00452438 0.232289
0 0.00525656 -0.269881
0 0.0130095 -0.642727
0 0.392959 -0.765862
0 0.317156 -0.642361
0 0.118991 -0.241003
0 -0.125081 0.253336
0 -0.320895 0.649936
0 -0.392907 0.795786
0 -0.313331 0.634616
0 -0.112871 0.228606
0 0.131136 -0.265601
0 0.32455 -0.632536
0 0.61856 -0.458049
0 0.499237 -0.369689
0 0.187305 -0.138701
0 -0.19689 0.145799
0 -0.505124 0.374049
0 -0.618478 0.457988
0 -0.493218 0.365232
0 -0.177671 0.131567
0 0.206423 -0.152858
0 0.510877 -0.378309
0 0.494236 0
0 0.419647 0
0 0.157444 0
0 -0.165501 0
0 -0.424595 0
0 -0.519877 0
0 -0.414587 0
0 -0.149346 0
0 0.173514 0
0 0.408196 0
0.0697446 0.303556 0.530869
0.192121 0.257658 0.450968
0.236759 0.0968258 0.169483
0.18995 -0.101791 -0.178174
0.0698542 -0.261145 -0.457108
-0.077192 -0.319747 -0.559684
-0.194457 -0.254989 -0.446332
-0.236697 -0.0918618 -0.160795
-0.187524 0.106357 0.186138
-0.0627489 0.250711 0.438452
0.112581 -0.00423803 0.856925
0.310121 -0.00358253 0.727948
0.382176 -0.00134614 0.273578
0.306617 0.00141516 -0.287607
0.112758 0.00363062 -0.737858
-0.124603 0.00444531 -0.90344
-0.31389 0.00354502 -0.720466
-0.382074 0.00127712 -0.259555
-0.3027 -0.00147897 0.300463
-0.101289 -0.00350024 0.707746
0.111983 -0.310397 0.852373
0.308474 -0.263193 0.724081
0.380145 -0.0989061 0.272124
0.304988 0.103978 -0.286079
0.112159 0.266757 -0.733938
-0.123941 0.326617 -0.89864
-0.312223 0.260469 -0.716638
-0.380045 0.093836 -0.258176
-0.301092 -0.108641 0.298866
-0.100751 -0.256361 0.703987
0.0681812 -0.496803 0.518969
0.187815 -0.421251 0.440858
0.231452 -0.158303 0.165683
0.185692 0.166421 -0.17418
0.0682882 0.426954 -0.44686
-0.0754618 0.522766 -0.547138
-0.190098 0.416892 -0.436327
-0.231391 0.150189 -0.157191
-0.18332 -0.173884 0.181965
-0.0613422 -0.410316 0.428624
-0.00192562 -0.491538 -0.0146571
-0.00530438 -0.416787 -0.012451
-0.00653683 -0.156626 -0.00467936
-0.00524442 0.164657 0.00491931
-0.00192866 0.422431 0.0126205
0.00213121 0.517226 0.0154527
0.00536886 0.412474 0.0123231
0.0065351 0.148597 0.00443948
0.00517746 -0.172042 -0.00513916
0.00173247 -0.405968 -0.0121055
-0.0712895 -0.296635 -0.542628
-0.196377 -0.251523 -0.460957
-0.242004 -0.0945212 -0.173237
-0.194157 0.0993678 0.182121
-0.0714016 0.254929 0.467233
0.0789015 0.312137 0.572081
0.198764 0.248921 0.456219
0.24194 0.0896753 0.164357
0.191677 -0.103824 -0.190261
0.0641388 -0.244994 -0.448164
-0.113149 0.0127131 -0.86125
-0.31168 0.0107679 -0.731608
-0.384097 0.00404622 -0.274953
-0.308158 -0.00425368 0.289054
-0.113326 -0.0109129 0.741569
0.125229 -0.0133617 0.907983
0.315468 -0.0106556 0.724088
0.383995 -0.00383876 0.26086
0.304222 0.00444506 -0.301974
0.1018 0.0104999 -0.711318
-0.111355 0.317156 -0.847594
-0.306479 0.268364 -0.719434
-0.377683 0.100839 -0.270367
-0.303012 -0.106009 0.28423
-0.111433 -0.271967 0.729196
0.123138 -0.332999 0.892833
0.310201 -0.265557 0.712009
0.377583 -0.0956683 0.256508
0.299145 0.110787 -0.29696
0.100186 0.261943 -0.70004
-0.0665996 0.499237 -0.506931
-0.174104 0.402933 -0.409142
-0.214438 0.151173 -0.153503
-0.17204 -0.158909 0.161358
-0.0632679 -0.407684 0.413967
0.0699136 -0.499171 0.506864
0.176122 -0.398074 0.404209
0.214381 -0.143397 0.145607
0.169931 0.166603 -0.169171
0.0599193 0.412327 -0.418681
0 0.185429 0
0 0.157444 0
0 0.0590704 0
0 -0.0620933 0
0 -0.159301 0
0 -0.195049 0
0 -0.155546 0
0 -0.0560319 0
0 0.0650996 0
0 0.153148 0
0.112581 0.113889 0.377247
0.310121 0.0968258 0.320434
0.382176 0.0363894 0.120428
0.306617 -0.0382554 -0.126604
0.112758 -0.0981445 -0.324803
-0.124603 -0.120169 -0.397691
-0.31389 -0.0958311 -0.317147
-0.382074 -0.034524 -0.114256
-0.3027 0.0399648 0.132257
-0.101289 0.0940626 0.311573
0.181728 -0.00159004 0.608949
0.500595 -0.00134614 0.517243
0.616906 -0.000505852 0.194394
0.494939 0.000531787 -0.204363
0.182014 0.00136431 -0.524296
-0.201132 0.00167048 -0.641949
-0.50668 0.00133216 -0.511937
-0.616743 0.000479918 -0.18443
-0.488615 -0.000555683 0.213488
-0.1635 -0.00131323 0.502939
0.180762 -0.116456 0.605714
0.497936 -0.0989061 0.514494
0.613629 -0.0371715 0.193361
0.492309 0.0390777 -0.203278
0.181047 0.100254 -0.52151
-0.200064 0.122752 -0.638539
-0.503988 0.097891 -0.509217
-0.613466 0.0352661 -0.18345
-0.486019 -0.0408231 0.212354
-0.162631 -0.0961824 0.500268
0.110058 -0.186392 0.36879
0.303169 -0.158303 0.313251
0.373609 -0.0594943 0.117728
0.299744 0.0625455 -0.123766
0.110231 0.160461 -0.317522
-0.121809 0.196469 -0.388776
-0.306855 0.156678 -0.310038
-0.37351 0.056445 -0.111694
-0.295914 -0.0653391 0.129292
-0.0990182 -0.153944 0.304589
-0.00310832 -0.184417 -0.0104156
-0.00856227 -0.156626 -0.00884706
-0.0105517 -0.0588638 -0.00332497
-0.0084655 0.0618828 0.00349548
-0.00311321 0.15876 0.00896772
0.00344022 0.194387 0.0109801
0.00866635 0.155018 0.00875626
0.0105489 0.0558469 0.00315454
0.00835744 -0.0646467 -0.00365156
0.00279654 -0.152312 -0.0086024
-0.115075 -0.111292 -0.385603
-0.31699 -0.0945212 -0.327531
-0.390641 -0.0355233 -0.123096
-0.313407 0.0373453 0.129408
-0.115256 0.0958092 0.331998
0.127362 0.117309 0.4065
0.320843 0.093551 0.324171
0.390538 0.0337027 0.116786
0.309405 -0.0390132 -0.135187
0.103532 -0.0919178 -0.318475
-0.182645 0.00476973 -0.612022
-0.503112 0.00404622 -0.519844
-0.620007 0.00152056 -0.195371
-0.497427 -0.00159853 0.205391
-0.182929 -0.00410104 0.526932
0.202144 -0.00502135 0.645177
0.509227 -0.00400437 0.514511
0.619843 -0.00144261 0.185358
0.491072 0.00167018 -0.214562
0.164325 0.00393939 -0.505477
-0.179749 0.118991 -0.602318
-0.494716 0.100839 -0.511188
-0.609654 0.0378937 -0.192111
-0.489119 -0.0398367 0.201962
-0.179874 -0.102201 0.518136
0.198768 -0.125136 0.634407
0.500724 -0.0997926 0.505922
0.609493 -0.035951 0.182263
0.482877 0.0416257 -0.210999
0.161719 0.0982766 -0.497463
-0.107505 0.187305 -0.360236
-0.281038 0.151173 -0.290745
-0.346144 0.0567177 -0.109083
-0.277706 -0.0596201 0.114665
-0.102127 -0.152956 0.294173
0.112854 -0.18728 0.360188
0.284295 -0.149351 0.287239
0.346053 -0.0538002 0.103471
0.274301 0.0625067 -0.120216
0.0967214 0.154698 -0.297524
0 -0.194918 0
0 -0.165501 0
0 -0.0620933 0
0 0.0652708 0
0 0.167453 0
0 0.20503 0
0 0.163506 0
0 0.0588993 0
0 -0.0684309 0
0 -0.160985 0
0.111983 -0.119717 0.0780796
0.308474 -0.101791 0.0663203
0.380145 -0.0382554 0.0249248
0.304988 0.0402173 -0.0262031
0.112159 0.103178 -0.0672245
-0.123941 0.126331 -0.0823098
-0.312223 0.100746 -0.0656397
-0.380045 0.0362946 -0.0236474
-0.301092 -0.0420138 0.0273732
-0.100751 -0.098876 0.064487
0.180762 0.0016714 0.126035
0.497936 0.00141516 0.107053
0.613629 0.000531787 0.0402334
0.492309 -0.00055906 -0.042297
0.181047 -0.00143426 -0.108513
-0.200064 -0.00175614 -0.132864
-0.503988 -0.00140047 -0.105955
-0.613466 -0.000504523 -0.0381714
-0.486019 0.000584171 0.0441855
-0.162631 0.00138043 0.104094
0.179802 0.122415 0.125366
0.495291 0.103978 0.106484
0.610369 0.0390777 0.0400197
0.489694 -0.0410818 -0.0420722
0.180085 -0.105396 -0.107936
-0.199001 -0.129047 -0.132158
-0.501312 -0.102912 -0.105392
-0.610207 -0.0370749 -0.0379687
-0.483438 0.0429163 0.0439508
-0.161767 0.101104 0.103541
0.109473 0.19593 0.0763293
0.301559 0.166421 0.0648333
0.371624 0.0625455 0.0243661
0.298151 -0.0657532 -0.0256158
0.109645 -0.16869 -0.0657174
-0.121162 -0.206546 -0.0804646
-0.305225 -0.164714 -0.0641683
-0.371526 -0.0593398 -0.0231173
-0.294342 0.068689 0.0267595
-0.0984922 0.161821 0.0630414
-0.00309181 0.193854 -0.00215574
-0.00851678 0.164657 -0.00183106
-0.0104956 0.0618828 -0.000688164
-0.00842059 -0.0650564 0.000723456
-0.00309668 -0.166903 0.00185603
0.00342194 -0.204357 0.00227254
0.00862031 -0.162968 0.00181229
0.0104928 -0.058711 0.000652891
0.00831303 0.0679612 -0.000755761
0.00278168 0.160107 -0.00178046
-0.114464 0.116987 -0.0798091
-0.315306 0.0993678 -0.0677889
-0.388565 0.0373453 -0.0254769
-0.311743 -0.0392603 0.0267835
-0.114644 -0.100723 0.068713
0.126686 -0.123326 0.0841331
0.319138 -0.0983487 0.0670938
0.388463 -0.035431 0.0241711
0.307761 0.0410134 -0.0279795
0.102982 0.0966215 -0.0659154
-0.181675 -0.00501381 -0.126671
-0.500439 -0.00425368 -0.107591
-0.616714 -0.00159853 -0.0404357
-0.494785 0.0016805 0.0425097
-0.181957 0.00431133 0.109058
0.20107 0.00527883 0.133532
0.506522 0.00420972 0.106488
0.61655 0.00151659 0.0383634
0.488463 -0.00175581 -0.0444077
0.163452 -0.00414098 -0.10462
-0.178794 -0.125081 -0.124663
-0.492088 -0.106009 -0.105801
-0.606415 -0.0398367 -0.0397609
-0.48652 0.0418794 0.0417999
-0.178918 0.107442 0.107238
0.197712 0.131553 0.131303
0.498064 0.104909 0.10471
0.606255 0.0377944 0.0377229
0.480312 -0.0437596 -0.0436704
0.16086 -0.103306 -0.102961
-0.106934 -0.19689 -0.0745587
-0.279545 -0.158909 -0.0601761
-0.344306 -0.0596201 -0.022577
-0.276231 0.0626711 0.0237324
-0.101584 0.160783 0.0608857
0.112255 0.196864 0.0745488
0.282785 0.156993 0.0594505
0.344214 0.0565534 0.0214157
0.272843 -0.0657054 -0.0248814
0.0962075 -0.162614 -0.0615791
0 -0.500064 0
0 -0.424595 0
0 -0.159301 0
0 0.167453 0
0 0.429602 0
0 0.526008 0
0 0.419476 0
0 0.151107 0
0 -0.17556 0
0 -0.41301 0
0.0681812 -0.307136 -0.251211
0.187815 -0.261145 -0.213376
0.231452 -0.0981445 -0.0801923
0.185692 0.103178 0.0843051
0.0682882 0.264704 0.216285
-0.0754618 0.324104 0.264821
-0.190098 0.258464 0.211187
-0.231391 0.0931142 0.0760824
-0.18332 -0.107787 -0.0880695
-0.0613422 -0.253667 -0.207479
0.110058 0.004288 -0.405503
0.303169 0.00363062 -0.34443
0.373609 0.00136431 -0.129446
0.299744 -0.00143426 0.136084
0.110231 -0.00367963 0.349126
-0.121809 -0.0045054 0.427472
-0.306855 -0.00359288 0.340897
-0.37351 -0.00129436 0.122811
-0.295914 0.00149869 -0.142161
-0.0990182 0.00354152 -0.334911
0.109473 0.314057 -0.403349
0.301559 0.266757 -0.342601
0.371624 0.100254 -0.128758
0.298151 -0.105396 0.135362
0.109645 -0.270394 0.347271
-0.121162 -0.331072 0.425201
-0.305225 -0.26402 0.339086
-0.371526 -0.0951158 0.122159
-0.294342 0.110102 -0.141406
-0.0984922 0.259384 -0.333132
0.0666528 0.502661 -0.24558
0.183604 0.426954 -0.208593
0.226264 0.160461 -0.0783946
0.18153 -0.16869 0.0824152
0.0667579 -0.432776 0.211436
-0.0737699 -0.529895 0.258885
-0.185837 -0.422574 0.206453
-0.226205 -0.152237 0.0743768
-0.179211 0.176223 -0.0860954
-0.0599672 0.415155 -0.202828
-0.00188245 0.497334 0.00693583
-0.00518548 0.422431 0.0058912
-0.00639027 0.15876 0.00221408
-0.00512687 -0.166903 -0.00232762
-0.0018854 -0.428189 -0.00597153
0.00208348 -0.524278 -0.00731158
0.0052485 -0.418097 -0.00583077
0.00638858 -0.150624 -0.00210061
0.00506139 0.174356 0.00243156
0.00169363 0.410755 0.0057284
-0.0696914 0.300132 0.256776
-0.191974 0.254929 0.218102
-0.236579 0.0958092 0.0819687
-0.189805 -0.100723 -0.0861725
-0.0698009 -0.258405 -0.221076
0.0771331 -0.316392 -0.270687
0.194308 -0.252314 -0.215865
0.236516 -0.0908986 -0.0777676
0.187381 0.10522 0.0900201
0.062701 0.247883 0.212075
-0.110613 -0.012863 0.40755
-0.304693 -0.0109129 0.346162
-0.375488 -0.00410104 0.130097
-0.301251 0.00431133 -0.136768
-0.110785 0.0110608 -0.350882
0.122422 0.0135429 -0.429621
0.308398 0.0108001 -0.342611
0.375388 0.00389081 -0.123429
0.297402 -0.00450455 0.142876
0.0995179 -0.0106237 0.336601
-0.108859 -0.320895 0.401088
-0.299609 -0.271967 0.340399
-0.369216 -0.102201 0.127926
-0.296219 0.107442 -0.134486
-0.108935 0.275642 -0.345025
0.120377 0.337499 -0.42245
0.303248 0.269147 -0.336892
0.369119 0.0969618 -0.121368
0.292439 -0.112266 0.140503
0.09794 -0.265032 0.331264
-0.0651067 -0.505124 0.239883
-0.170201 -0.407684 0.193609
-0.209631 -0.152956 0.0726388
-0.168184 0.160783 -0.076356
-0.0618497 0.412491 -0.195892
0.0683464 0.505057 -0.239852
0.172174 0.402768 -0.191275
0.209576 0.145088 -0.0689024
0.166121 -0.168568 0.0800529
0.0585762 -0.417189 0.198123
0 -0.612282 0
0 -0.519877 0
0 -0.195049 0
0 0.20503 0
0 0.526008 0
0 0.644047 0
0 0.513609 0
0 0.185016 0
0 -0.214957 0
0 -0.505692 0
-0.00192562 -0.376059 -0.483583
-0.00530438 -0.319747 -0.41075
-0.00653683 -0.120169 -0.154371
-0.00524442 0.126331 0.162287
-0.00192866 0.324104 0.416351
0.00213121 0.396835 0.509782
0.00536886 0.316464 0.406536
0.0065351 0.11401 0.146459
0.00517746 -0.131975 -0.169535
0.00173247 -0.310592 -0.399398
-0.00310832 0.00525026 -0.780596
-0.00856227 0.00444531 -0.663029
-0.0105517 0.00167048 -0.249184
-0.0084655 -0.00175614 0.261964
-0.0031132 -0.0045054 0.67207
0.00344022 -0.00551641 0.822887
0.00866635 -0.00439917 0.656227
0.0105489 -0.00158482 0.236412
0.00835745 0.00183502 -0.27366
0.00279654 0.00433626 -0.644705
-0.00309181 0.384534 -0.776449
-0.00851678 0.326617 -0.659506
-0.0104956 0.122752 -0.247861
-0.00842059 -0.129047 0.260572
-0.00309668 -0.331072 0.668499
0.00342194 -0.405366 0.818515
0.00862031 -0.323267 0.65274
0.0104928 -0.11646 0.235156
0.00831303 0.13481 -0.272207
0.00278168 0.317592 -0.64128
-0.00188245 0.615461 -0.472743
-0.00518548 0.522766 -0.401542
-0.00639028 0.196469 -0.150911
-0.00512687 -0.206546 0.158649
-0.0018854 -0.529895 0.407017
0.00208348 -0.648803 0.498355
0.0052485 -0.517403 0.397423
0.00638858 -0.1864 0.143175
0.00506139 0.215768 -0.165734
0.00169363 0.508318 -0.390445
5.31655e-05 0.608939 0.0133515
0.00014645 0.517226 0.0113406
0.000180481 0.194387 0.00426207
0.000144798 -0.204357 -0.00448071
5.32493e-05 -0.524278 -0.0114952
-5.88415e-05 -0.641928 -0.0140748
-0.000148235 -0.51192 -0.0112243
-0.000180433 -0.184424 -0.00404366
-0.000142947 0.213481 0.00468077
-4.78327e-05 0.502931 0.0110272
0.00196827 0.367484 0.494295
0.00542186 0.312137 0.419849
0.00668164 0.117309 0.15779
0.00536061 -0.123326 -0.165882
0.00197136 -0.316392 -0.425571
-0.00217843 -0.387393 -0.521074
-0.0054878 -0.308936 -0.415542
-0.00667987 -0.111297 -0.149703
-0.00529214 0.128832 0.17329
-0.00177084 0.30351 0.408245
0.003124 -0.0157495 0.784535
0.00860534 -0.0133617 0.666363
0.0106048 -0.00502135 0.250437
0.00850803 0.00527883 -0.263281
0.00312885 0.0135429 -0.675449
-0.00345751 0.0165821 -0.827025
-0.00870993 0.0132237 -0.659527
-0.0106019 0.00476394 -0.237601
-0.00839943 -0.0055154 0.275037
-0.00281065 -0.0130078 0.647959
0.00307447 -0.392907 0.772096
0.00846176 -0.332999 0.655267
0.0104276 -0.125136 0.246258
0.00836607 0.131553 -0.258886
0.00307662 0.337499 -0.664173
-0.00339977 0.413237 -0.813218
-0.00856445 0.329545 -0.648516
-0.0104249 0.118721 -0.233634
-0.00825926 -0.137459 0.27047
-0.00276609 -0.324507 0.637685
0.00183879 -0.618478 0.461777
0.00480694 -0.499171 0.372698
0.00592055 -0.18728 0.13983
0.00474996 0.196864 -0.146986
0.0017468 0.505057 -0.377093
-0.00193029 0.618395 -0.461715
-0.00486265 0.493152 -0.368204
-0.00591897 0.177647 -0.132637
-0.00469171 -0.206396 0.154102
-0.00165435 -0.510809 0.381388
0 -0.488277 0
0 -0.414587 0
0 -0.155546 0
0 0.163506 0
0 0.419476 0
0 0.513609 0
0 0.409588 0
0 0.147545 0
0 -0.171422 0
0 -0.403274 0
-0.0712895 -0.299896 -0.529385
-0.196377 -0.254989 -0.449654
-0.242004 -0.0958311 -0.168992
-0.194157 0.100746 0.177658
-0.0714016 0.258464 0.455785
0.0789015 0.316464 0.558064
0.198764 0.252371 0.44504
0.24194 0.0909192 0.16033
0.191677 -0.105246 -0.185592
0.0641388 -0.247688 -0.437226
-0.115075 0.00418693 -0.854529
-0.31699 0.00354502 -0.725826
-0.390641 0.00133215 -0.272784
-0.313407 -0.00140047 0.286775
-0.115256 -0.00359288 0.735723
0.127362 -0.00439917 0.900825
0.320843 -0.00350822 0.71838
0.390538 -0.00126386 0.258804
0.309405 0.00146337 -0.299581
0.103532 0.00345804 -0.705767
-0.114464 0.306654 -0.849989
-0.315306 0.260469 -0.72197
-0.388565 0.097891 -0.271336
-0.311743 -0.102912 0.285251
-0.114644 -0.26402 0.731814
0.126686 -0.323267 0.89604
0.319138 -0.257796 0.714564
0.388463 -0.0928738 0.257429
0.307761 0.107507 -0.297989
0.102982 0.25327 -0.702018
-0.0696914 0.490812 -0.517518
-0.191974 0.416892 -0.439573
-0.236579 0.156678 -0.165204
-0.189805 -0.164714 0.173676
-0.0698009 -0.422574 0.445567
0.0771331 -0.517403 0.545554
0.194308 -0.412615 0.435064
0.236516 -0.148648 0.156736
0.187381 0.172069 -0.181431
0.062701 0.405369 -0.427425
0.00196827 0.485611 0.0146161
0.00542186 0.412474 0.0124148
0.00668164 0.155018 0.00466578
0.00536061 -0.162968 -0.00490507
0.00197136 -0.418097 -0.012584
-0.00217844 -0.51192 -0.015408
-0.0054878 -0.408242 -0.0122874
-0.00667987 -0.147073 -0.00442665
-0.00529214 0.170246 0.00512409
-0.00177084 0.401073 0.0120716
0.0728686 0.293058 0.541111
0.200727 0.248921 0.459614
0.247365 0.0935509 0.172735
0.198458 -0.0983487 -0.181594
0.0729831 -0.252314 -0.465879
-0.0806493 -0.308936 -0.570426
-0.203167 -0.246367 -0.4549
-0.247299 -0.088756 -0.163881
-0.195923 0.10274 0.189702
-0.0655595 0.24204 0.446911
0.115656 -0.0125598 0.858841
0.318584 -0.0106556 0.729476
0.392605 -0.00400438 0.274156
0.314983 0.00420972 -0.288217
0.115835 0.0108001 -0.739422
-0.128003 0.0132237 -0.905355
-0.322456 0.0105455 -0.721993
-0.392501 0.00379909 -0.260105
-0.31096 -0.00439835 0.301088
-0.104055 -0.0103733 0.709329
0.113822 -0.313331 0.845224
0.313268 -0.265557 0.71733
0.386049 -0.0997926 0.269582
0.309724 0.104909 -0.283405
0.113901 0.269147 -0.727079
-0.125865 0.329545 -0.890241
-0.317071 0.262802 -0.70994
-0.385947 0.0946762 -0.255763
-0.305771 -0.109619 0.296086
-0.102405 -0.258785 0.698082
0.0680749 -0.493218 0.505513
0.177961 -0.398074 0.407998
0.219188 -0.149351 0.153074
0.175851 0.156993 -0.160907
0.0646693 0.402768 -0.412809
-0.0714623 0.493152 -0.505446
-0.180023 0.393274 -0.403078
-0.21913 0.141668 -0.1452
-0.173695 -0.164594 0.168698
-0.0612466 -0.407355 0.41751
0 -0.175891 0
0 -0.149346 0
0 -0.0560319 0
0 0.0588993 0
0 0.151107 0
0 0.185016 0
0 0.147545 0
0 0.0531497 0
0 -0.0617509 0
0 -0.145271 0
-0.113149 -0.108031 -0.370946
-0.31168 -0.091862 -0.315083
-0.384097 -0.0345241 -0.118417
-0.308158 0.0362947 0.12449
-0.113326 0.0931143 0.31938
0.125229 0.11401 0.391051
0.315468 0.0909193 0.311852
0.383995 0.0327545 0.112348
0.304222 -0.0379155 -0.130048
0.1018 -0.0892241 -0.306369
-0.182645 0.00150825 -0.598778
-0.503112 0.00127712 -0.508605
-0.620007 0.000479919 -0.191148
-0.497427 -0.000504524 0.200951
-0.182929 -0.00129436 0.51554
0.202144 -0.00158482 0.63123
0.509227 -0.00126386 0.503389
0.619843 -0.000455317 0.181351
0.491073 0.000527188 -0.209923
0.164325 0.00124568 -0.494539
-0.181675 0.110465 -0.595597
-0.500439 0.0938361 -0.505903
-0.616714 0.0352662 -0.190132
-0.494785 -0.0370749 0.199883
-0.181957 -0.0951159 0.512802
0.20107 -0.11646 0.627877
0.506522 -0.092874 0.500715
0.61655 -0.0334588 0.180387
0.488463 0.0387301 -0.208808
0.163452 0.0912348 -0.491912
-0.110613 0.176804 -0.362631
-0.304693 0.150189 -0.308021
-0.375488 0.0564451 -0.115762
-0.301251 -0.0593399 0.121699
-0.110785 -0.152237 0.312221
0.122422 -0.1864 0.382285
0.308398 -0.148649 0.304862
0.375388 -0.0535521 0.109829
0.297402 0.061989 -0.127133
0.0995179 0.146025 -0.299502
0.003124 0.174931 0.0102417
0.00860534 0.148597 0.00869931
0.0106047 0.0558469 0.00326944
0.00850803 -0.058711 -0.00343711
0.00312886 -0.150624 -0.0088179
-0.00345751 -0.184424 -0.0107967
-0.00870993 -0.147073 -0.00861005
-0.0106019 -0.0529846 -0.00310188
-0.00839944 0.061332 0.00359059
-0.00281065 0.144478 0.00845872
0.115656 0.105567 0.379163
0.318584 0.0896754 0.322062
0.392605 0.0337027 0.12104
0.314983 -0.035431 -0.127247
0.115835 -0.0908987 -0.326454
-0.128003 -0.111297 -0.399713
-0.322456 -0.0887561 -0.318759
-0.392501 -0.0319753 -0.114836
-0.31096 0.0370128 0.132929
-0.104055 0.0871896 0.313156
0.183567 -0.00452438 0.6018
0.505641 -0.00383876 0.511163
0.623124 -0.00144261 0.192109
0.499927 0.00151659 -0.201961
0.183848 0.00389082 -0.518133
-0.20316 0.00476394 -0.634404
-0.511788 0.0037991 -0.505919
-0.622959 0.00136866 -0.182262
-0.493542 -0.00158453 0.210979
-0.165154 -0.00373675 0.497035
0.180656 -0.112871 0.592258
0.497204 -0.0956684 0.502652
0.61272 -0.035951 0.188903
0.491579 0.0377945 -0.19859
0.180778 0.0969619 -0.509484
-0.199767 0.118721 -0.623816
-0.503241 0.0946763 -0.497475
-0.612557 0.0341079 -0.179219
-0.485305 -0.0394908 0.207475
-0.162535 -0.0932213 0.489154
0.108047 -0.177671 0.354219
0.282456 -0.143397 0.285889
0.347891 -0.0538002 0.107261
0.279108 0.0565534 -0.112749
0.102642 0.145088 -0.28926
-0.113424 0.177647 -0.354172
-0.285729 0.141668 -0.282442
-0.347799 0.0510328 -0.101743
-0.275685 -0.0592914 0.118208
-0.0972095 -0.146741 0.292554
0 0.204355 0
0 0.173514 0
0 0.0650996 0
0 -0.0684309 0
0 -0.17556 0
0 -0.214957 0
0 -0.171422 0
0 -0.0617509 0
0 0.0717441 0
0 0.16878 0
-0.111355 0.125513 -0.0693936
-0.306479 0.106353 -0.0592484
-0.377683 0.0399631 -0.0222728
-0.303012 -0.0420122 0.0234156
-0.111433 -0.107783 0.0600727
0.123138 -0.13197 0.0735535
0.310201 -0.105242 0.0586567
0.377583 -0.037914 0.021132
0.299145 0.0439047 -0.0244477
0.100186 0.103663 -0.0573131
-0.179749 -0.00175233 -0.112015
-0.494716 -0.0014789 -0.0956381
-0.609654 -0.000555659 -0.0359527
-0.489119 0.000584144 0.0377973
-0.179874 0.00149862 0.096969
0.198768 0.00183493 0.118729
0.500724 0.0014633 0.0946833
0.609493 0.000527162 0.0341111
0.482877 -0.000610592 -0.0394633
0.161719 -0.00144727 -0.0925144
-0.178794 -0.128342 -0.11142
-0.492088 -0.108636 -0.09513
-0.606415 -0.0408214 -0.0357616
-0.48652 0.0429145 0.0375965
-0.178918 0.110097 0.0964539
0.197712 0.134804 0.118099
0.498064 0.107502 0.0941804
0.606255 0.0387284 0.03393
0.480312 -0.0448473 -0.0392536
0.16086 -0.105999 -0.092023
-0.108859 -0.205416 -0.067838
-0.299609 -0.173877 -0.0579202
-0.369216 -0.0653364 -0.0217735
-0.296219 0.0686861 0.0228906
-0.108935 0.176215 0.0587261
0.120377 0.215759 0.0719047
0.303248 0.172062 0.0573419
0.369119 0.0619863 0.0206583
0.292439 -0.0717796 -0.0238997
0.09794 -0.169656 -0.0560284
0.00307447 -0.20324 0.00191593
0.00846176 -0.172035 0.00163582
0.0104276 -0.064644 0.000614942
0.00836607 0.0679583 -0.000646492
0.00307662 0.174348 -0.00165858
-0.00339977 0.213472 -0.00203078
-0.00856445 0.170239 -0.00161949
-0.0104249 0.0613294 -0.000583446
-0.00825926 -0.0710189 0.000674991
-0.00276609 -0.167858 0.00158239
0.113822 -0.122652 0.0709307
0.313268 -0.10382 0.0605608
0.386049 -0.0390115 0.0227662
0.309724 0.0410117 -0.0239342
0.113901 0.105216 -0.0614034
-0.125865 0.128827 -0.0751829
-0.317071 0.102736 -0.059956
-0.385947 0.0370111 -0.0216001
-0.305771 -0.0428587 0.0249892
-0.102405 -0.1013 0.0585826
0.180656 0.00525656 0.11258
0.497204 0.00444488 0.0961187
0.61272 0.00167011 0.0361333
0.491579 -0.00175574 -0.0379872
0.180778 -0.00450436 -0.0974562
-0.199767 -0.00551517 -0.119326
-0.503241 -0.00439817 -0.095159
-0.612557 -0.00158446 -0.0342825
-0.485305 0.00183505 0.0396617
-0.162535 0.00434147 0.0929813
0.177792 0.131136 0.110795
0.488917 0.110783 0.0945075
0.602499 0.041624 0.0355257
0.483378 -0.0437579 -0.0373483
0.177763 -0.112261 -0.0958172
-0.196435 -0.137453 -0.117319
-0.494848 -0.109615 -0.0935587
-0.602339 -0.0394892 -0.0337059
-0.477216 0.045738 0.0389985
-0.159958 0.108307 0.0915071
0.106334 0.206423 0.0662644
0.277978 0.166603 0.0534818
0.342375 0.0625067 0.0200655
0.274682 -0.0657054 -0.0210923
0.101015 -0.168568 -0.0541124
-0.111625 -0.206396 -0.0662556
-0.281199 -0.164594 -0.0528369
-0.342284 -0.0592914 -0.0190333
-0.271314 0.0688866 0.0221135
-0.0956682 0.170488 0.0547287
0 0.505759 0
0 0.408196 0
0 0.153148 0
0 -0.160985 0
0 -0.41301 0
0 -0.505692 0
0 -0.403274 0
0 -0.145271 0
0 0.16878 0
0 0.417713 0
-0.0665996 0.310634 0.258932
-0.174104 0.250711 0.208983
-0.214438 0.0940626 0.0784068
-0.17204 -0.0988761 -0.0824191
-0.0632679 -0.253668 -0.211447
0.0699136 -0.310592 -0.258897
0.176122 -0.247688 -0.206463
0.214381 -0.0892241 -0.0743736
0.169931 0.103663 0.0864095
0.0599193 0.256557 0.213855
-0.107505 -0.00433684 0.417966
-0.281038 -0.00350024 0.337338
-0.346144 -0.00131323 0.126564
-0.277706 0.00138043 -0.13304
-0.102127 0.00354152 -0.341316
0.112854 0.00433626 -0.41791
0.284295 0.00345804 -0.333271
0.346052 0.00124568 -0.120053
0.274301 -0.00144727 0.139482
0.0967214 -0.00358185 0.345204
-0.106934 -0.317634 0.415745
-0.279545 -0.256361 0.335546
-0.344306 -0.0961824 0.125891
-0.276231 0.101104 -0.132334
-0.101584 0.259384 -0.339503
0.112255 0.317592 -0.41569
0.282784 0.25327 -0.3315
0.344214 0.0912349 -0.119416
0.272843 -0.105999 0.138741
0.0962075 -0.262338 0.34337
-0.0651067 -0.508386 0.253127
-0.170201 -0.410316 0.204298
-0.209631 -0.153944 0.0766492
-0.168184 0.161821 -0.0805716
-0.0618497 0.415155 -0.206707
0.0683464 0.508318 -0.253094
0.172174 0.405369 -0.201835
0.209575 0.146025 -0.0727064
0.166121 -0.169656 0.0844725
0.0585762 -0.419883 0.209061
0.00183879 -0.502998 -0.00714899
0.00480694 -0.405968 -0.00576992
0.00592054 -0.152312 -0.00216478
0.00474996 0.160107 0.00227556
0.0017468 0.410755 0.00583796
-0.00193029 0.502931 0.00714804
-0.00486265 0.401073 0.00570035
-0.00591897 0.144478 0.00205342
-0.00469171 -0.167858 -0.00238573
-0.00165435 -0.415433 -0.00590445
0.0680749 -0.303551 -0.264667
0.177961 -0.244995 -0.213612
0.219188 -0.0919178 -0.0801435
0.175851 0.0966215 0.0842447
0.0646693 0.247884 0.216131
-0.0714623 0.30351 0.264632
-0.180023 0.24204 0.211036
-0.21913 0.0871896 0.0760211
-0.173695 -0.1013 -0.0883236
-0.0612466 -0.250707 -0.218592
0.108047 0.0130095 -0.420075
0.282456 0.0104999 -0.339041
0.347891 0.00393939 -0.127202
0.279107 -0.00414098 0.133712
0.102642 -0.0106237 0.343039
-0.113424 -0.0130078 0.420019
-0.285729 -0.0103733 0.334953
-0.347799 -0.00373675 0.120659
-0.275685 0.00434147 -0.140185
-0.0972095 0.0107447 -0.346946
0.106334 0.32455 -0.413414
0.277978 0.261943 -0.333665
0.342375 0.0982766 -0.125186
0.274682 -0.103306 0.131592
0.101015 -0.265032 0.3376
-0.111625 -0.324507 0.413359
-0.281199 -0.258785 0.329642
-0.342284 -0.0932214 0.118746
-0.271314 0.108307 -0.137963
-0.0956682 0.26805 -0.341445
0.0635965 0.510877 -0.247256
0.166253 0.412327 -0.199559
0.204769 0.154698 -0.0748712
0.164282 -0.162614 0.0787026
0.060415 -0.417189 0.201912
-0.0667611 -0.510809 0.247223
-0.16818 -0.407355 0.197153
-0.204714 -0.146741 0.0710199
-0.162268 0.170488 -0.0825131
-0.0572174 0.421941 -0.204212
