# vtk DataFile Version 3.0
Velocity field
ASCII
DATASET STRUCTURED_POINTS
DIMENSIONS 5 5 5
SPACING 1.33333 1.33333 1.33333
ORIGIN 0 0 0
POINT_DATA 125
VECTORS velocity float
0 0.412866 0
0 0.0971215 0
0 -0.367172 0
0 -0.269867 0
0 0.240207 0
0 -0.218623 0.717024
0 -0.0514282 0.194389
0 0.194427 -0.734896
0 0.142901 -0.540139
0 -0.127195 0.417167
0 -0.515722 0.337342
0 -0.121317 0.0914551
0 0.458645 -0.34575
0 0.337098 -0.254122
0 -0.300049 0.196267
0 -0.0240119 -0.558313
0 -0.0056485 -0.151361
0 0.0213544 0.572229
0 0.0156952 0.420581
0 -0.0139702 -0.324828
0 0.504425 -0.600014
0 0.11866 -0.141146
0 -0.448599 0.533609
0 -0.329714 0.392195
0 0.293476 -0.34909
0 0.0971215 0
0 0.0290711 0
0 -0.109905 0
0 -0.0807785 0
0 0.0565056 0
0.306884 -0.0514282 0.251806
0.472483 -0.0126025 0.0621236
-0.0990376 0.0476876 -0.235109
-0.51912 0.0350562 -0.172838
-0.138668 -0.0299211 0.146502
0.144381 -0.121317 0.118469
0.222292 -0.029826 0.0292277
-0.0465951 0.112868 -0.110613
-0.244233 0.0829728 -0.0813162
-0.0652398 -0.0705827 0.0689254
-0.238956 -0.0056485 -0.19607
-0.367808 -0.00139513 -0.0483605
0.0770965 0.0052803 0.183019
0.404112 0.00388183 0.134546
0.107974 -0.00328632 -0.114074
-0.256804 0.11866 -0.210715
-0.377624 0.0279132 -0.049568
0.0791414 -0.105527 0.187394
0.414858 -0.0775612 0.137732
0.116039 0.0690367 -0.122594
0 -0.367172 0
0 -0.109905 0
0 0.4155 0
0 0.305387 0
0 -0.213622 0
0.144381 0.194427 -0.598555
0.222292 0.0476876 -0.147298
-0.0465951 -0.180454 0.557428
-0.244233 -0.132656 0.409786
-0.0652398 0.113118 -0.348242
0.0679277 0.458645 -0.281605
0.104583 0.112868 -0.0693003
-0.0219217 -0.427131 0.262257
-0.114906 -0.313999 0.192794
-0.0306937 0.266841 -0.163839
-0.112423 0.0213544 0.466067
-0.173045 0.0052803 0.114667
0.0362721 -0.0199856 -0.433934
0.190125 -0.0146926 -0.319
0.0507992 0.0124241 0.271159
-0.12082 -0.448599 0.500878
-0.177663 -0.105527 0.117825
0.037234 0.398951 -0.445444
0.19518 0.293224 -0.327396
0.0545934 -0.260996 0.291413
0 -0.269867 0
0 -0.0807785 0
0 0.305387 0
0 0.224455 0
0 -0.157009 0
-0.238956 0.142901 -0.533412
-0.367808 0.0350564 -0.131288
0.0770965 -0.132657 0.496838
0.404112 -0.0975198 0.365244
0.107974 0.0831404 -0.310341
-0.112423 0.337098 -0.250957
-0.173045 0.0829732 -0.0617675
0.0362721 -0.314001 0.233751
0.190125 -0.230834 0.171839
0.0507992 0.196125 -0.146008
0.186064 0.0156952 0.415343
0.286324 0.00388185 0.102202
-0.0600163 -0.0146927 -0.386768
-0.314584 -0.0108016 -0.284327
-0.0840745 0.00913154 0.241648
0.199961 -0.329714 0.446365
0.294038 -0.0775612 0.105002
-0.0616237 0.293224 -0.396965
-0.32303 0.215516 -0.291764
-0.0903541 -0.191829 0.259697
0 0.240207 0
0 0.0565056 0
0 -0.213622 0
0 -0.157009 0
0 0.139753 0
-0.256804 -0.127195 0.347598
-0.377624 -0.0299211 0.0817682
0.0791413 0.113118 -0.309128
0.414858 0.0831404 -0.227205
0.116039 -0.0740027 0.202234
-0.12082 -0.300049 0.163536
-0.177662 -0.0705827 0.0384699
0.037234 0.266841 -0.145437
0.19518 0.196125 -0.106894
0.0545934 -0.17457 0.095146
0.199961 -0.0139702 -0.270659
0.294038 -0.00328632 -0.063669
-0.0616236 0.0124241 0.240704
-0.32303 0.00913154 0.176914
-0.0903541 -0.00812792 -0.15747
0.214897 0.293476 -0.290874
0.316 0.0690367 -0.0684246
-0.0662265 -0.260996 0.258682
-0.347158 -0.191829 0.190128
-0.0971028 0.170746 -0.169232
