# vtk DataFile Version 3.0
Velocity field
ASCII
DATASET STRUCTURED_POINTS
DIMENSIONS 5 5 5
SPACING 1.33333 1.33333 1.33333
ORIGIN 0 0 0
POINT_DATA 125
VECTORS velocity float
0 0.274088 0
0 0.0644758 0
0 -0.243754 0
0 -0.179156 0
0 0.159465 0
0 -0.145136 0.476009
0 -0.0341415 0.129048
0 0.129074 -0.487873
0 0.0948675 -0.358581
0 -0.0844408 0.276944
0 -0.342371 0.22395
0 -0.0805385 0.060714
0 0.30448 -0.229532
0 0.223789 -0.168703
0 -0.199193 0.130295
0 -0.0159407 -0.370646
0 -0.00374986 -0.100484
0 0.0141765 0.379884
0 0.0104196 0.27921
0 -0.00927437 -0.215643
0 0.334871 -0.39833
0 0.0787743 -0.0937021
0 -0.29781 0.354245
0 -0.218886 0.260366
0 0.194829 -0.23175
0 0.0644758 0
0 0.0192993 0
0 -0.072962 0
0 -0.0536261 0
0 0.0375122 0
0.20373 -0.0341415 0.167166
0.308632 -0.008249 0.0405706
-0.0646866 0.0311977 -0.153448
-0.339077 0.0229317 -0.112792
-0.0920571 -0.0198636 0.0972577
0.0958499 -0.0805385 0.0786474
0.145204 -0.019503 0.0190875
-0.0304335 0.0737628 -0.0721936
-0.159527 0.0542192 -0.053066
-0.0433106 -0.0468575 0.0457573
-0.158635 -0.00374986 -0.130164
-0.240291 -0.000909877 -0.0315871
0.0503631 0.00344141 0.119469
0.263995 0.00252963 0.0878166
0.0716805 -0.00218168 -0.07573
-0.170484 0.0787743 -0.139886
-0.250692 0.0185307 -0.0329065
0.0525394 -0.0700561 0.124405
0.27541 -0.0514903 0.0914359
0.0770345 0.0458312 -0.0813864
0 -0.243754 0
0 -0.0729621 0
0 0.275836 0
0 0.202736 0
0 -0.141817 0
0.0958499 0.129074 -0.397361
0.145204 0.0311977 -0.0962642
-0.0304335 -0.11799 0.364086
-0.159527 -0.0867284 0.267621
-0.0433106 0.0750954 -0.231186
0.045095 0.30448 -0.186949
0.0683145 0.0737628 -0.0452899
-0.0143182 -0.278982 0.171293
-0.0750534 -0.205065 0.125909
-0.0203765 0.177147 -0.108767
-0.0746338 0.0141765 0.309407
-0.113051 0.00344141 0.0749487
0.0236946 -0.0130165 -0.283466
0.124203 -0.00956785 -0.208361
0.0337239 0.00824793 0.180014
-0.0802083 -0.29781 0.332517
-0.117944 -0.0700561 0.0782204
0.0247185 0.26485 -0.295716
0.129574 0.194662 -0.217347
0.0362428 -0.173267 0.193459
0 -0.179156 0
0 -0.0536262 0
0 0.202736 0
0 0.149009 0
0 -0.104233 0
-0.158635 0.0948675 -0.354115
-0.240291 0.0229318 -0.085793
0.050363 -0.0867287 0.324481
0.263995 -0.0637495 0.23851
0.0716805 0.0551942 -0.206025
-0.0746338 0.223789 -0.166602
-0.113051 0.0542193 -0.0403634
0.0236946 -0.205066 0.152661
0.124203 -0.150734 0.112213
0.0337239 0.130201 -0.0969297
0.123522 0.0104196 0.275732
0.187084 0.00252963 0.0667959
-0.0392111 -0.00956788 -0.252632
-0.205538 -0.00703295 -0.185698
-0.0558143 0.00606213 0.160422
0.132748 -0.218886 0.296327
0.195202 -0.0514903 0.0697073
-0.0409099 0.194662 -0.263532
-0.214449 0.143074 -0.193692
-0.0599831 -0.127349 0.172404
0 0.159465 0
0 0.0375122 0
0 -0.141817 0
0 -0.104233 0
0 0.0927774 0
-0.170484 -0.0844408 0.230759
-0.250692 -0.0198636 0.0542832
0.0525393 0.0750954 -0.20522
0.27541 0.0551942 -0.150834
0.0770345 -0.049128 0.134256
-0.0802083 -0.199193 0.108566
-0.117944 -0.0468576 0.0255389
0.0247184 0.177147 -0.096551
0.129574 0.130201 -0.0709637
0.0362428 -0.115891 0.0631643
0.132748 -0.00927437 -0.179681
0.195202 -0.00218168 -0.0422678
-0.0409099 0.00824794 0.159795
-0.214449 0.00606213 0.117448
-0.0599831 -0.00539586 -0.104539
0.142663 0.194829 -0.193102
0.209782 0.0458312 -0.0454248
-0.0439656 -0.173267 0.171731
-0.230467 -0.127349 0.12622
-0.0644634 0.113352 -0.112347
