# vtk DataFile Version 3.0
Velocity field
ASCII
DATASET STRUCTURED_POINTS
DIMENSIONS 5 5 5
SPACING 1.33333 1.33333 1.33333
ORIGIN 0 0 0
POINT_DATA 125
VECTORS velocity float
0 0.562048 0
0 0.132215 0
0 -0.499844 0
0 -0.367379 0
0 0.327002 0
0 -0.297619 0.976109
0 -0.070011 0.264628
0 0.26468 -1.00044
0 0.194536 -0.73531
0 -0.173156 0.567904
0 -0.70207 0.459235
0 -0.165153 0.124501
0 0.62437 -0.470682
0 0.458904 -0.345945
0 -0.408467 0.267185
0 -0.0326883 -0.760051
0 -0.0076895 -0.206054
0 0.0290705 0.778995
0 0.0213665 0.572552
0 -0.0190181 -0.4422
0 0.686691 -0.81682
0 0.161536 -0.192147
0 -0.610693 0.72642
0 -0.448851 0.533909
0 0.39952 -0.475229
0 0.132215 0
0 0.0395755 0
0 -0.149617 0
0 -0.109967 0
0 0.076923 0
0.417771 -0.070011 0.342793
0.656559 -0.0174599 0.0863053
-0.137646 0.0661316 -0.326986
-0.721436 0.0486242 -0.240434
-0.188773 -0.0407327 0.199438
0.196551 -0.165153 0.161275
0.308896 -0.0413666 0.0406047
-0.0647595 0.156698 -0.153838
-0.339419 0.115218 -0.113119
-0.0888132 -0.0960868 0.0938306
-0.325299 -0.0076895 -0.266917
-0.510965 -0.00194399 -0.0671672
0.107122 0.0073672 0.25447
0.561456 0.00541746 0.187113
0.146989 -0.00447378 -0.155293
-0.349596 0.161536 -0.286853
-0.514072 0.0379992 -0.0674786
0.107738 -0.143658 0.255106
0.56476 -0.105587 0.1875
0.157968 0.093982 -0.166892
0 -0.499844 0
0 -0.149617 0
0 0.565634 0
0 0.415734 0
0 -0.290811 0
0.196551 0.26468 -0.814834
0.308896 0.0661316 -0.204499
-0.0647595 -0.250502 0.774728
-0.339419 -0.184189 0.569656
-0.0888132 0.153992 -0.474073
0.0924724 0.62437 -0.383359
0.145328 0.156698 -0.0962123
-0.0304678 -0.593637 0.364492
-0.159689 -0.436501 0.26801
-0.0417844 0.363261 -0.22304
-0.153045 0.0290705 0.634473
-0.240398 0.0073672 0.159155
0.0503987 -0.0279231 -0.60293
0.264152 -0.0205337 -0.443331
0.0691547 0.0169133 0.369139
-0.164476 -0.610693 0.681863
-0.241858 -0.143658 0.1604
0.050688 0.543105 -0.606399
0.265706 0.399176 -0.445695
0.07432 -0.355303 0.39671
0 -0.367379 0
0 -0.109967 0
0 0.415734 0
0 0.305559 0
0 -0.213742 0
-0.325299 0.194536 -0.726152
-0.510965 0.0486246 -0.182299
0.107122 -0.184191 0.690636
0.561456 -0.135432 0.507824
0.146989 0.113182 -0.422478
-0.153045 0.458904 -0.341636
-0.240398 0.115218 -0.0857679
0.0503987 -0.436504 0.324929
0.264152 -0.320962 0.23892
0.0691547 0.266992 -0.198765
0.253295 0.0213665 0.56542
0.397661 0.0054175 0.141877
-0.0833677 -0.0205339 -0.537484
-0.436953 -0.0151 -0.39521
-0.114453 0.0124311 0.328964
0.272214 -0.448851 0.607653
0.400284 -0.105587 0.142943
-0.0838905 0.399176 -0.540402
-0.439752 0.293389 -0.397188
-0.123002 -0.261143 0.353534
0 0.327002 0
0 0.0769231 0
0 -0.290811 0
0 -0.213743 0
0 0.190251 0
-0.349596 -0.173156 0.473198
-0.514072 -0.0407327 0.111314
0.107738 0.153992 -0.420827
0.56476 0.113182 -0.309303
0.157968 -0.100742 0.275308
-0.164476 -0.408467 0.222628
-0.241858 -0.0960868 0.0523704
0.050688 0.363261 -0.197989
0.265706 0.266992 -0.145519
0.07432 -0.237648 0.129526
0.272214 -0.0190181 -0.368457
0.400284 -0.00447378 -0.0866749
-0.0838904 0.0169133 0.327678
-0.439752 0.0124311 0.240839
-0.123002 -0.0110648 -0.21437
0.292546 0.39952 -0.395977
0.430182 0.093982 -0.0931488
-0.0901564 -0.355303 0.352153
-0.472598 -0.261143 0.258828
-0.132189 0.232442 -0.230381
