# vtk DataFile Version 3.0
Velocity field
ASCII
DATASET STRUCTURED_POINTS
DIMENSIONS 8 8 8
SPACING 0.8 0.8 0.8
ORIGIN 0 0 0
POINT_DATA 512
VECTORS velocity float
0 0.228989 0
0 0.159538 0
0 -0.00668638 0
0 -0.168855 0
0 -0.228599 0
0 -0.149677 0
0 0.0200364 0
0 0.177596 0
0 0.0900875 0.233718
0 0.0627645 0.172641
0 -0.00263051 -0.00723553
0 -0.0664299 -0.182723
0 -0.0899338 -0.247374
0 -0.0588851 -0.16197
0 0.00788258 0.021682
0 0.0698688 0.181264
0 -0.10346 0.325666
0 -0.0720814 0.240561
0 0.00302099 -0.0100821
0 0.0762909 -0.254609
0 0.103284 -0.344694
0 0.0676261 -0.225692
0 -0.00905268 0.0302119
0 -0.0802402 0.252575
0 -0.23425 0.220069
0 -0.163204 0.162559
0 0.00684 -0.00681299
0 0.172735 -0.172052
0 0.233851 -0.232927
0 0.153116 -0.152511
0 -0.0204967 0.0204158
0 -0.181677 0.170678
0 -0.222947 -0.0190186
0 -0.155329 -0.0140485
0 0.00650996 0.000588785
0 0.1644 0.0148689
0 0.222567 0.0201298
0 0.145728 0.0131802
0 -0.0195077 -0.00176435
0 -0.17291 -0.0147502
0 -0.0764074 -0.24657
0 -0.0532336 -0.182135
0 0.00223106 0.00763341
0 0.0563424 0.192771
0 0.0762772 0.260976
0 0.0499432 0.170877
0 -0.00668559 -0.0228742
0 -0.059259 -0.191231
0 0.11648 -0.324555
0 0.0811525 -0.23974
0 -0.00340117 0.0100477
0 -0.0858918 0.253741
0 -0.116282 0.343518
0 -0.0761365 0.224922
0 0.0101919 -0.0301089
0 0.0903381 -0.251714
0 0.238712 -0.20567
0 0.166313 -0.143291
0 -0.0069703 0.00600546
0 -0.176025 0.151659
0 -0.238305 0.205319
0 -0.156033 0.134435
0 0.0208871 -0.0179959
0 0.185137 -0.15951
0 0.159538 0
0 0.120678 0
0 -0.0050577 0
0 -0.127725 0
0 -0.172916 0
0 -0.113219 0
0 0.0151559 0
0 0.123732 0
0.049821 0.0627645 0.23085
0.121586 0.0446513 0.164049
0.118626 -0.00187177 -0.00687688
0.0437025 -0.0472681 -0.173662
-0.0577306 -0.0639923 -0.235105
-0.124145 -0.0418995 -0.153938
-0.11525 0.00560222 0.0205835
-0.0357476 0.048678 0.179039
0.0694213 -0.0720814 0.321669
0.169421 -0.051191 0.228588
0.165295 0.00214587 -0.00958229
0.0608951 0.0541899 -0.241981
-0.0804435 0.0733629 -0.327601
-0.172987 0.0480351 -0.2145
-0.160592 -0.00642319 0.0286813
-0.0498112 -0.0559039 0.249475
0.0469115 -0.163204 0.217368
0.114485 -0.115905 0.154469
0.111699 0.00485866 -0.00647526
0.0411501 0.122696 -0.163521
-0.0543597 0.166107 -0.221377
-0.116895 0.108761 -0.144948
-0.10852 -0.0145432 0.0193814
-0.03366 -0.126575 0.168583
-0.00405414 -0.155329 -0.0187852
-0.00989406 -0.110312 -0.0133494
-0.00965313 0.0046242 0.000559597
-0.00355623 0.116775 0.0141316
0.00469779 0.158093 0.0191315
0.0101023 0.103513 0.0125265
0.00937837 -0.0138415 -0.00167496
0.00290893 -0.120468 -0.0145691
-0.0525606 -0.0532336 -0.243544
-0.128273 -0.037806 -0.17307
-0.125149 0.00158479 0.00725499
-0.0461052 0.040021 0.183211
0.0609052 0.0541808 0.248033
0.130972 0.0354753 0.162403
0.121587 -0.00474371 -0.0217154
0.0377133 -0.0412861 -0.188884
-0.0691846 0.0811525 -0.320572
-0.16883 0.0576188 -0.227791
-0.164719 -0.00241533 0.00954884
-0.0606826 -0.0609946 0.241137
0.0801627 -0.082575 0.326457
0.172382 -0.0540668 0.213751
0.160032 0.00722987 -0.0285814
0.0496413 0.0629391 -0.248625
-0.0438421 0.166313 -0.203145
-0.104932 0.115871 -0.141533
-0.102372 -0.00485625 0.00593176
-0.0377141 -0.122638 0.149798
0.0498205 -0.166029 0.202799
0.107135 -0.108709 0.132785
0.0994624 0.0145522 -0.0177751
0.0314576 0.128986 -0.157553
0 -0.00668638 0
0 -0.0050577 0
0 0.000211972 0
0 0.00535306 0
0 0.00724706 0
0 0.00474508 0
0 -0.000635195 0
0 -0.00518573 0
0.0694213 -0.00263051 0.0879511
0.169421 -0.00187177 0.0624734
0.165295 7.8465e-05 -0.00261885
0.0608951 0.00198148 -0.066134
-0.0804435 0.00268255 -0.0895323
-0.172987 0.00175644 -0.0586223
-0.160592 -0.00023484 0.00783875
-0.0498112 -0.00204014 0.0682119
0.0967326 0.00302099 0.122552
0.236072 0.00214587 0.0870514
0.230323 -8.9953e-05 -0.0036491
0.0848527 -0.00227159 -0.0921512
-0.112091 -0.00307532 -0.124756
-0.241039 -0.00201361 -0.0816861
-0.223771 0.000269251 0.0109227
-0.0694076 0.00234298 0.0950473
0.0653672 0.00684 0.0828148
0.159527 0.00485866 0.0588247
0.155643 -0.000203672 -0.00246591
0.0573387 -0.00514333 -0.0622714
-0.0757453 -0.00696315 -0.0843043
-0.162885 -0.00455914 -0.0551994
-0.151213 0.000609632 0.00738096
-0.0469023 0.00530487 0.0642283
-0.00564909 0.00650996 -0.00715694
-0.0137865 0.0046242 -0.00508374
-0.0134508 -0.000193843 0.000213106
-0.00495532 -0.00489517 0.00538159
0.00654601 -0.00662716 0.00728561
0.0140767 -0.00433918 0.00477036
0.013068 0.000580215 -0.000637875
0.00405334 0.0050489 -0.00555068
-0.0732387 0.00223106 -0.0927874
-0.178736 0.00158479 -0.0659087
-0.174386 -6.64335e-05 0.00276285
-0.064244 -0.00167765 0.0697697
0.0848667 -0.00227121 0.094456
0.182497 -0.0014871 0.0618459
0.169422 0.000198849 -0.00826982
0.0525502 0.00173034 -0.0719627
-0.0964027 -0.00340117 -0.122134
-0.235248 -0.00241533 -0.0867473
-0.22952 0.000101249 0.00363638
-0.0845566 0.00255685 0.0918298
0.111699 0.0034615 0.124321
0.240198 0.00226644 0.0814008
0.222989 -0.000303065 -0.0108846
0.0691709 -0.00263783 -0.0947232
-0.0610901 -0.0069703 -0.0773961
-0.146214 -0.00485625 -0.0539224
-0.142646 0.000203529 0.00225993
-0.0525513 0.00513985 0.0570714
0.0694205 0.00695841 0.0772642
0.149283 0.00455609 0.0505895
0.138592 -0.000609895 -0.0067721
0.0438334 -0.00540592 -0.0600258
0 -0.168855 0
0 -0.127725 0
0 0.00535306 0
0 0.135184 0
0 0.183014 0
0 0.11983 0
0 -0.016041 0
0 -0.130958 0
0.0469115 -0.0664299 -0.108297
0.114485 -0.0472681 -0.0769253
0.111699 0.00198148 0.00322466
0.0411501 0.0500383 0.0814328
-0.0543597 0.0677428 0.110245
-0.116895 0.044355 0.0721833
-0.10852 -0.00593044 -0.00965209
-0.03366 -0.0515208 -0.0839918
0.0653672 0.0762909 -0.150903
0.159527 0.0541899 -0.107189
0.155643 -0.00227159 0.00449324
0.0573387 -0.0573645 0.11347
-0.0757453 -0.0776618 0.153616
-0.162885 -0.0508498 0.100581
-0.151213 0.00679943 -0.0134494
-0.0469023 0.0591686 -0.117035
0.0441719 0.172735 -0.101973
0.107801 0.122696 -0.0724326
0.105176 -0.00514333 0.00303632
0.0387471 -0.129885 0.0766768
-0.051185 -0.175841 0.103806
-0.110069 -0.115132 0.0679683
-0.102183 0.0153951 -0.00908839
-0.0316943 0.133967 -0.0790867
-0.00381738 0.1644 0.0088126
-0.00931619 0.116775 0.00625971
-0.00908933 -0.00489517 -0.000262403
-0.00334857 -0.123617 -0.0066265
0.00442343 -0.167355 -0.00897097
0.00951225 -0.109578 -0.00587386
0.00883064 0.0146522 0.000785429
0.00273905 0.127503 0.00683475
-0.0494911 0.0563424 0.114253
-0.120781 0.040021 0.0811555
-0.11784 -0.00167765 -0.00340197
-0.0434131 -0.0423658 -0.0859103
0.0573482 -0.0573549 -0.116306
0.123323 -0.0375539 -0.0761528
0.114486 0.00502157 0.0101829
0.0355109 0.0436972 0.0886103
-0.0651442 -0.0858918 0.150388
-0.158971 -0.0609946 0.106815
-0.1551 0.00255685 -0.00447757
-0.0571386 0.0645679 -0.113073
0.0754809 0.0874134 -0.15308
0.162316 0.0572343 -0.10023
0.150685 -0.00765336 0.0134025
0.0467423 -0.0666147 0.116636
-0.0412817 -0.176025 0.0953007
-0.0988042 -0.122638 0.0663966
-0.0963934 0.00513985 -0.00278274
-0.0355116 0.1298 -0.0702741
0.046911 0.175725 -0.0951382
0.100878 0.115058 -0.0622927
0.0936538 -0.015402 0.00833873
0.0296205 -0.136519 0.073912
0 -0.228599 0
0 -0.172916 0
0 0.00724706 0
0 0.183014 0
0 0.247767 0
0 0.162228 0
0 -0.0217165 0
0 -0.177293 0
-0.00405414 -0.0899338 -0.238854
-0.00989406 -0.0639923 -0.169661
-0.00965313 0.00268255 0.00711209
-0.00355623 0.0677428 0.179601
0.00469779 0.0917108 0.243147
0.0101023 0.0600484 0.159204
0.00937837 -0.00802874 -0.0212881
0.00290893 -0.0697496 -0.185247
-0.00564909 0.103284 -0.332822
-0.0137865 0.0733629 -0.236407
-0.0134508 -0.00307532 0.0099101
-0.00495532 -0.0776618 0.250259
0.00654601 -0.10514 0.338806
0.0140767 -0.0688414 0.221838
0.013068 0.00920514 -0.029663
0.00405334 0.0801034 -0.258126
-0.00381738 0.233851 -0.224905
-0.00931619 0.166107 -0.159754
-0.00908933 -0.00696315 0.00669678
-0.00334857 -0.175841 0.169114
0.00442343 -0.238054 0.228946
0.00951225 -0.155869 0.149906
0.00883064 0.0208421 -0.0200449
0.00273905 0.181367 -0.174429
0.000329902 0.222567 0.0194365
0.000805119 0.158093 0.0138061
0.000785513 -0.00662716 -0.000578737
0.000289384 -0.167355 -0.0146149
-0.000382279 -0.22657 -0.019786
-0.000822062 -0.148347 -0.0129551
-0.000763156 0.0198365 0.0017323
-0.000236711 0.172615 0.0150743
0.00427707 0.0762772 0.251988
0.0104381 0.0541808 0.17899
0.010184 -0.00227121 -0.00750312
0.00375177 -0.0573549 -0.189477
-0.00495614 -0.0776487 -0.256518
-0.0106578 -0.0508412 -0.167958
-0.00989413 0.00679828 0.0224586
-0.00306889 0.0591579 0.195434
0.00562983 -0.116282 0.331687
0.0137384 -0.082575 0.235583
0.0134039 0.0034615 -0.00987554
0.00493804 0.0874134 -0.249386
-0.00652316 0.118341 -0.337624
-0.0140275 0.0774853 -0.221063
-0.0130224 -0.0103612 0.0295596
-0.00403952 -0.090184 0.257245
0.00356761 -0.238305 0.210189
0.00853876 -0.166029 0.14644
0.00833041 0.00695841 -0.00613743
0.00306895 0.175725 -0.154992
-0.0040541 0.237899 -0.209831
-0.00871798 0.155767 -0.137389
-0.00809366 -0.0208515 0.0183914
-0.00255983 -0.184822 0.163016
0 -0.149677 0
0 -0.113219 0
0 0.00474508 0
0 0.11983 0
0 0.162228 0
0 0.106221 0
0 -0.0142191 0
0 -0.116085 0
-0.0525606 -0.0588851 -0.224525
-0.128273 -0.0418995 -0.159484
-0.125149 0.00175644 0.00668546
-0.0461052 0.044355 0.168828
0.0609052 0.0600484 0.228559
0.130972 0.0393176 0.149653
0.121587 -0.0052569 -0.020011
0.0377133 -0.0456692 -0.174134
-0.0732387 0.0676261 -0.312856
-0.178736 0.0480351 -0.222226
-0.174386 -0.00201361 0.00931554
-0.064244 -0.0508498 0.235245
0.0848667 -0.0688414 0.318482
0.182497 -0.0450742 0.208529
0.169422 0.00602715 -0.0278836
0.0525502 0.0524485 -0.242641
-0.0494911 0.153116 -0.211413
-0.120781 0.108761 -0.15017
-0.11784 -0.00455914 0.006295
-0.0434131 -0.115132 0.158969
0.0573482 -0.155869 0.215214
0.123323 -0.102057 0.140912
0.114486 0.0136466 -0.0188423
0.0355109 0.118752 -0.163965
0.00427707 0.145728 0.0182705
0.0104381 0.103513 0.0129779
0.010184 -0.00433918 -0.000544018
0.00375177 -0.109578 -0.0137382
-0.00495614 -0.148347 -0.0185989
-0.0106578 -0.0971319 -0.0121778
-0.00989413 0.0129882 0.00162838
-0.00306889 0.113022 0.01417
0.0554509 0.0499432 0.236871
0.135327 0.0354753 0.168253
0.132032 -0.0014871 -0.0070531
0.0486404 -0.0375539 -0.17811
-0.0642546 -0.0508412 -0.241128
-0.138174 -0.0332888 -0.157883
-0.128274 0.00445122 0.0211113
-0.0397871 0.0387343 0.183709
0.0729889 -0.0761365 0.311789
0.178112 -0.0540668 0.22145
0.173776 0.00226644 -0.00928304
0.0640198 0.0572343 -0.234425
-0.0845705 0.0774853 -0.31737
-0.18186 0.0507343 -0.207802
-0.168831 -0.00678411 0.0277864
-0.052371 -0.0590489 0.241813
0.0462529 -0.156033 0.19758
0.110702 -0.108709 0.137655
0.108001 0.00455609 -0.00576925
0.0397879 0.115058 -0.145694
-0.05256 0.155767 -0.197243
-0.113026 0.10199 -0.129147
-0.104932 -0.0136527 0.0172881
-0.0331874 -0.121014 0.153236
0 0.0200364 0
0 0.0151559 0
0 -0.000635194 0
0 -0.0160409 0
0 -0.0217165 0
0 -0.0142191 0
0 0.00190342 0
0 0.0155395 0
-0.0691846 0.00788258 -0.0740022
-0.16883 0.00560214 -0.0525755
-0.164719 -0.000234836 0.00220393
-0.0606826 -0.00593035 0.0556563
0.0801627 -0.00802861 0.0753478
0.172382 -0.00525682 0.0493347
0.160032 0.00070293 -0.00659675
0.0496413 0.00611346 -0.0573935
-0.0964027 -0.00905268 -0.103116
-0.235248 -0.0064231 -0.0732593
-0.22952 0.000269247 0.00307098
-0.0845566 0.00679932 0.077552
0.111699 0.00920499 0.104991
0.240198 0.00602705 0.0687442
0.222989 -0.000805992 -0.00919199
0.0691709 -0.00702095 -0.0799729
-0.0651442 -0.0204967 -0.0696805
-0.158971 -0.014543 -0.049505
-0.1551 0.000609622 0.00207523
-0.0571386 0.0153948 0.0524059
0.0754809 0.0208418 0.0709475
0.162316 0.0136464 0.0464538
0.150685 -0.00182491 -0.00621148
0.0467423 -0.0158965 -0.0540418
0.00562983 -0.0195077 0.00602186
0.0137384 -0.0138413 0.00427829
0.0134039 0.000580206 -0.000179343
0.00493804 0.014652 -0.00452895
-0.00652316 0.0198361 -0.00613136
-0.0140275 0.0129879 -0.00401458
-0.0130224 -0.00173686 0.000536806
-0.00403952 -0.0151295 0.00467035
0.0729889 -0.00668559 0.0780714
0.178112 -0.00474364 0.0554665
0.173776 0.000198846 -0.00232512
0.0640198 0.00502149 -0.0587164
-0.0845705 0.00679817 -0.0794914
-0.18186 0.00445115 -0.0520478
-0.168831 -0.00059525 0.0069595
-0.052371 -0.00518511 0.0605495
0.0960739 0.0101919 0.102764
0.234428 0.00722976 0.0730037
0.228719 -0.000303061 -0.00306026
0.0842615 -0.00765324 -0.0772813
-0.111309 -0.010361 -0.104625
-0.23936 -0.00678401 -0.068504
-0.22221 0.000907233 0.00915997
-0.068935 0.0079045 0.0797002
0.0608818 0.0208871 0.0651212
0.145715 0.0145522 0.0453704
0.14216 -0.000609895 -0.00190151
0.0523721 -0.015402 -0.04802
-0.0691838 -0.0208515 -0.0650102
-0.148774 -0.0136527 -0.0425661
-0.13812 0.00182761 0.00569805
-0.0436839 0.0161994 0.0505058
0 0.177596 0
0 0.123732 0
0 -0.00518573 0
0 -0.130958 0
0 -0.177293 0
0 -0.116085 0
0 0.0155395 0
0 0.137738 0
-0.0438421 0.0698688 0.121409
-0.104932 0.048678 0.0845867
-0.102372 -0.00204014 -0.0035451
-0.0377141 -0.0515208 -0.0895265
0.0498205 -0.0697496 -0.121202
0.107135 -0.0456693 -0.0793585
0.0994623 0.00611346 0.0106232
0.0314576 0.0541878 0.094161
-0.0610901 -0.0802402 0.169173
-0.146214 -0.0559039 0.117864
-0.142646 0.00234298 -0.00493979
-0.0525513 0.0591686 -0.124747
0.0694205 0.0801034 -0.168885
0.149283 0.0524485 -0.110579
0.138592 -0.00702095 0.0148025
0.0438334 -0.0622316 0.131205
-0.0412817 -0.181677 0.114319
-0.0988042 -0.126575 0.079647
-0.0963934 0.00530487 -0.00333807
-0.0355116 0.133967 -0.0842983
0.046911 0.181367 -0.114124
0.100878 0.118752 -0.074724
0.0936538 -0.0158965 0.0100028
0.0296205 -0.140902 0.0886621
0.00356761 -0.17291 -0.00987958
0.00853876 -0.120468 -0.00688317
0.00833041 0.0050489 0.000288479
0.00306895 0.127503 0.00728514
-0.0040541 0.172615 0.00986273
-0.00871798 0.113022 0.00645772
-0.00809366 -0.0151295 -0.000864455
-0.00255983 -0.134103 -0.00766226
0.0462529 -0.059259 -0.128086
0.110702 -0.0412861 -0.0892381
0.108001 0.00173034 0.00374004
0.0397879 0.0436972 0.0944495
-0.05256 0.0591579 0.127867
-0.113026 0.0387343 0.0837223
-0.104932 -0.00518511 -0.0112074
-0.0331874 -0.0459592 -0.0993388
0.0608818 0.0903381 -0.168597
0.145715 0.0629391 -0.117462
0.14216 -0.00263783 0.00492294
0.0523721 -0.0666147 0.124322
-0.0691838 -0.090184 0.168309
-0.148774 -0.0590489 0.110202
-0.138119 0.0079045 -0.0147521
-0.0436839 0.0700631 -0.130758
0.0385806 0.185137 -0.106839
0.0923393 0.128986 -0.0744356
0.0900863 -0.00540592 0.00311965
0.0331881 -0.136519 0.0787825
-0.0438416 -0.184822 0.106657
-0.0942775 -0.121014 0.0698347
-0.0875259 0.0161994 -0.00934834
-0.0276824 0.143586 -0.0828608
