# vtk DataFile Version 3.0
Velocity field
ASCII
DATASET STRUCTURED_POINTS
DIMENSIONS 10 10 10
SPACING 0.631579 0.631579 0.631579
ORIGIN 0 0 0
POINT_DATA 1000
VECTORS velocity float
0 0.309144 0
0 0.249509 0
0 0.0936114 0
0 -0.0984018 0
0 -0.252451 0
0 -0.309102 0
0 -0.2465 0
0 -0.0887961 0
0 0.103166 0
0 0.255326 0
0 0.189874 0.242159
0 0.153246 0.203109
0 0.0574954 0.0762032
0 -0.0604376 -0.0801028
0 -0.155053 -0.205505
0 -0.189848 -0.251621
0 -0.151399 -0.20066
0 -0.0545379 -0.0722834
0 0.0633638 0.083981
0 0.156819 0.200003
0 -0.00265088 0.390892
0 -0.00213951 0.327858
0 -0.000802709 0.123007
0 0.000843786 -0.129301
0 0.00216474 -0.331724
0 0.00265052 -0.406165
0 0.00211371 -0.323904
0 0.000761418 -0.116679
0 -0.000884639 0.135562
0 -0.0021894 0.322843
0 -0.194153 0.388815
0 -0.1567 0.326116
0 -0.0587911 0.122353
0 0.0617997 -0.128614
0 0.158548 -0.329962
0 0.194127 -0.404007
0 0.15481 -0.322184
0 0.055767 -0.116059
0 -0.0647918 0.134841
0 -0.160353 0.321128
0 -0.310749 0.236731
0 -0.250804 0.198556
0 -0.0940975 0.074495
0 0.0989128 -0.0783071
0 0.253762 -0.200898
0 0.310708 -0.245981
0 0.24778 -0.196162
0 0.0892573 -0.070663
0 -0.103702 0.0820985
0 -0.256652 0.195519
0 -0.307456 -0.00668592
0 -0.248147 -0.00560777
0 -0.0931004 -0.00210394
0 0.0978646 0.0022116
0 0.251073 0.00567389
0 0.307415 0.00694714
0 0.245154 0.00554014
0 0.0883114 0.00199571
0 -0.102603 -0.00231868
0 -0.253932 -0.00552199
0 -0.185544 -0.247523
0 -0.149752 -0.207608
0 -0.0561844 -0.0778911
0 0.0590596 0.0818771
0 0.151518 0.210057
0 0.18552 0.257195
0 0.147946 0.205105
0 0.0532944 0.0738845
0 -0.061919 -0.0858413
0 -0.153244 -0.204433
0 0.007952 -0.392865
0 0.00641803 -0.329512
0 0.00240794 -0.123627
0 -0.00253116 0.129954
0 -0.00649371 0.333398
0 -0.00795094 0.408215
0 -0.00634064 0.325539
0 -0.00228407 0.117268
0 0.00265371 -0.136246
0 0.00656767 -0.324472
0 0.19838 -0.386636
0 0.160112 -0.324288
0 0.0600712 -0.121667
0 -0.0631453 0.127893
0 -0.162 0.328112
0 -0.198354 0.401742
0 -0.158181 0.320377
0 -0.0569812 0.115409
0 0.0662025 -0.134085
0 0.163845 -0.319328
0 0.312272 -0.23124
0 0.252033 -0.186633
0 0.0945587 -0.0700215
0 -0.0993975 0.0736047
0 -0.255005 0.188834
0 -0.31223 0.231209
0 -0.248994 0.184382
0 -0.0896947 0.0664196
0 0.10421 -0.0771683
0 0.25791 -0.190984
0 0.249509 0
0 0.211853 0
0 0.0794836 0
0 -0.0835511 0
0 -0.214351 0
0 -0.262453 0
0 -0.209298 0
0 -0.0753951 0
0 0.0875963 0
0 0.206072 0
0.0352097 0.153246 0.268002
0.0943756 0.126866 0.221803
0.116254 0.0476176 0.0832511
0.0932688 -0.050055 -0.0875122
0.0342998 -0.128417 -0.224514
-0.0379027 -0.157234 -0.274897
-0.0954819 -0.12539 -0.219222
-0.116223 -0.0451692 -0.0789706
-0.0921142 0.0524348 0.0916729
-0.0316779 0.126568 0.221347
0.0568352 -0.00213951 0.432607
0.152341 -0.00176716 0.358032
0.187657 -0.000663256 0.134383
0.150554 0.000697205 -0.141262
0.0553664 0.00178869 -0.362409
-0.0611822 0.00219008 -0.443736
-0.154125 0.00174652 -0.353866
-0.187607 0.000629152 -0.127474
-0.14869 -0.000730413 0.147978
-0.0511343 -0.00176705 0.357296
0.0565332 -0.1567 0.430309
0.151531 -0.129583 0.35613
0.186659 -0.0486368 0.133669
0.149754 0.0511263 -0.140511
0.0550723 0.131165 -0.360484
-0.0608572 0.1606 -0.441379
-0.153307 0.128073 -0.351986
-0.18661 0.0461359 -0.126797
-0.1479 -0.0535585 0.147192
-0.0508627 -0.12942 0.355399
0.0344204 -0.250804 0.261995
0.0922601 -0.207402 0.21683
0.113648 -0.077845 0.0813849
0.0911785 0.0818296 -0.0855508
0.0335307 0.209935 -0.219481
-0.037053 0.257046 -0.268734
-0.0933412 0.204986 -0.214308
-0.113618 0.0738425 -0.0772001
-0.0900492 -0.0857226 0.089618
-0.0309678 -0.207143 0.216385
-0.000972123 -0.248147 -0.00739943
-0.00260566 -0.205204 -0.00612385
-0.00320972 -0.07702 -0.00229853
-0.0025751 0.0809627 0.00241618
-0.000947002 0.20771 0.00619873
0.00104647 0.254322 0.00758978
0.00263621 0.202814 0.00605262
0.00320887 0.0730599 0.00218034
0.00254324 -0.0848141 -0.00253105
0.000874614 -0.204947 -0.00611129
-0.0359896 -0.149752 -0.273939
-0.0964663 -0.123837 -0.226715
-0.118829 -0.0464803 -0.0850953
-0.095335 0.0488593 0.089451
-0.0350595 0.125349 0.229487
0.038742 0.153478 0.280986
0.0975964 0.122395 0.224078
0.118797 0.0440903 0.0807198
0.0941544 -0.0511838 -0.0937035
0.0323796 -0.123682 -0.22625
-0.057122 0.00641803 -0.434791
-0.153109 0.00530668 -0.359838
-0.188604 0.00199177 -0.135061
-0.151314 -0.00209371 0.141975
-0.0556458 -0.00537145 0.364238
0.0614907 -0.00657684 0.445975
0.154903 -0.00524484 0.355651
0.188553 -0.00188935 0.128117
0.14944 0.00219334 -0.148724
0.0513923 0.00530073 -0.3591
-0.0562163 0.160112 -0.427897
-0.150651 0.132337 -0.354063
-0.185575 0.0496698 -0.132893
-0.148884 -0.0522121 0.139695
-0.0547523 -0.13395 0.358391
0.0605035 -0.16401 0.438815
0.152417 -0.130793 0.349941
0.185525 -0.0471157 0.12606
0.147041 0.0546973 -0.146338
0.0505775 0.132238 -0.353406
-0.033622 0.252033 -0.255917
-0.0878943 0.203415 -0.20655
-0.108256 0.0763179 -0.0774941
-0.0868523 -0.0802234 0.0814597
-0.03194 -0.205814 0.208986
0.035295 -0.252 0.255883
0.0889129 -0.200962 0.204059
0.108228 -0.0723922 0.0735078
0.0857872 0.0841075 -0.0854036
0.0302495 0.208158 -0.211366
0 0.0936114 0
0 0.0794837 0
0 0.0298209 0
0 -0.0313469 0
0 -0.0804209 0
0 -0.0984679 0
0 -0.0785253 0
0 -0.028287 0
0 0.0328646 0
0 0.0773149 0
0.0568352 0.0574954 0.190448
0.152341 0.0476176 0.157557
0.187657 0.0178729 0.0591372
0.150554 -0.0187878 -0.0621641
0.0553664 -0.0482003 -0.159483
-0.0611822 -0.0590166 -0.195271
-0.154125 -0.0470641 -0.155723
-0.187607 -0.0169539 -0.0560966
-0.14869 0.0196806 0.0651201
-0.0511343 0.0474862 0.157294
0.0917429 -0.000802709 0.30742
0.245907 -0.000663256 0.254328
0.302915 -0.000248939 0.095459
0.243024 0.000261679 -0.100345
0.0893721 0.000671343 -0.257436
-0.0987595 0.000821999 -0.315207
-0.248789 0.000655518 -0.251368
-0.302834 0.000236138 -0.0905507
-0.240014 -0.000274139 0.105116
-0.0825406 -0.000662967 0.253902
0.0912555 -0.0587911 0.305787
0.244601 -0.0486368 0.252977
0.301305 -0.0182552 0.0949519
0.241733 0.0191896 -0.0998121
0.0888973 0.0492311 -0.256069
-0.0982348 0.0602791 -0.313532
-0.247467 0.0480709 -0.250032
-0.301225 0.0173166 -0.0900696
-0.238739 -0.0201021 0.104558
-0.0821021 -0.0485564 0.252554
0.0555611 -0.0940975 0.186179
0.148925 -0.077845 0.154025
0.18345 -0.0292183 0.0578117
0.147179 0.0307138 -0.0607708
0.0541251 0.0787966 -0.155908
-0.0598105 0.0964791 -0.190895
-0.150671 0.0769389 -0.152233
-0.183402 0.0277159 -0.054839
-0.145357 -0.0321742 0.0636605
-0.049988 -0.0777164 0.153768
-0.00156919 -0.0931004 -0.00525819
-0.00420604 -0.07702 -0.00435009
-0.0051811 -0.0289086 -0.00163275
-0.00415672 0.0303884 0.00171633
-0.00152863 0.0779614 0.00440327
0.00168921 0.0954567 0.0053914
0.00425536 0.0761239 0.00429947
0.00517973 0.0274222 0.0015488
0.00410528 -0.0318333 -0.00179794
0.0014118 -0.0768928 -0.00434281
-0.0580941 -0.0561844 -0.194667
-0.155715 -0.0464803 -0.161048
-0.191814 -0.0174458 -0.0604473
-0.153888 0.0183388 0.0635414
-0.0565926 0.0470484 0.163016
0.0625373 0.0576064 0.199598
0.15754 0.0459394 0.159173
0.191763 0.0165488 0.057339
0.151984 -0.0192108 -0.0665626
0.052267 -0.0464034 -0.160778
-0.0922059 0.00240794 -0.308971
-0.247147 0.00199177 -0.255611
-0.304443 0.000747584 -0.0959406
-0.24425 -0.000785848 0.100851
-0.0898228 -0.0020161 0.258734
0.0992579 -0.00246853 0.316797
0.250044 -0.00196858 0.252636
0.304362 -0.000709144 0.0910076
0.241225 0.000823222 -0.105647
0.0829571 0.00198875 -0.255184
-0.0907439 0.0600712 -0.304072
-0.24318 0.0496698 -0.25151
-0.299554 0.0186427 -0.0944007
-0.240328 -0.0195969 0.0992325
-0.0883806 -0.0502761 0.254582
0.097664 -0.0615583 0.311711
0.24603 -0.0490909 0.248581
0.299475 -0.0176841 0.0895467
0.237352 0.0205293 -0.103952
0.0816418 0.0496136 -0.251138
-0.0542723 0.0945587 -0.18186
-0.141878 0.0763179 -0.146779
-0.174747 0.0286332 -0.0550689
-0.140196 -0.0300984 0.0578869
-0.0515573 -0.0772179 0.14851
0.0569729 -0.0945461 0.181836
0.143523 -0.0753977 0.145009
0.1747 -0.0271603 0.0522362
0.138477 0.0315557 -0.0606896
0.0488285 0.0780973 -0.150201
0 -0.0984018 0
0 -0.0835511 0
0 -0.0313469 0
0 0.0329511 0
0 0.0845363 0
0 0.103507 0
0 0.0825436 0
0 0.0297345 0
0 -0.0345464 0
0 -0.0812713 0
0.0565332 -0.0604376 0.0394174
0.151531 -0.0500549 0.0326097
0.186659 -0.0187878 0.0122396
0.149754 0.0197495 -0.0128661
0.0550723 0.0506675 -0.0330083
-0.0608572 0.0620374 -0.0404156
-0.153307 0.0494731 -0.0322301
-0.18661 0.0178218 -0.0116103
-0.1479 -0.020688 0.0134779
-0.0508627 -0.0499162 0.0325554
0.0912555 0.000843786 0.0636273
0.244601 0.000697205 0.0526384
0.301305 0.000261679 0.0197572
0.241733 -0.000275074 -0.0207684
0.0888973 -0.000705704 -0.0532818
-0.0982348 -0.000864073 -0.0652385
-0.247467 -0.000689069 -0.0520257
-0.301225 -0.000248224 -0.0187413
-0.238739 0.000288171 0.021756
-0.0821021 0.000696894 0.0525507
0.0907708 0.0617997 0.0632893
0.243301 0.0511263 0.0523587
0.299704 0.0191896 0.0196522
0.240448 -0.0201719 -0.0206581
0.0884249 -0.051751 -0.0529987
-0.0977128 -0.0633646 -0.0648918
-0.246153 -0.0505314 -0.0517492
-0.299625 -0.0182029 -0.0186417
-0.237471 0.021131 0.0216404
-0.081666 0.0510411 0.0522715
0.055266 0.0989128 0.0385338
0.148135 0.0818296 0.0318787
0.182476 0.0307138 0.0119653
0.146397 -0.0322858 -0.0125777
0.0538377 -0.0828295 -0.0322682
-0.0594927 -0.101418 -0.0395096
-0.149871 -0.0808776 -0.0315077
-0.182428 -0.0291346 -0.0113501
-0.144584 0.033821 0.0131758
-0.0497225 0.0816933 0.0318256
-0.00156086 0.0978646 -0.0010883
-0.00418369 0.0809627 -0.00090034
-0.00515357 0.0303884 -0.000337932
-0.00413466 -0.0319438 0.00035523
-0.00152052 -0.0819518 0.000911347
0.00168024 -0.100343 0.00111585
0.00423275 -0.0800203 0.000889859
0.00515221 -0.0288258 0.000320555
0.00408346 0.0334626 -0.00037212
0.0014043 0.0808276 -0.000898841
-0.0577855 0.0590596 -0.0402906
-0.154887 0.0488593 -0.033332
-0.190795 0.0183388 -0.0125108
-0.153072 -0.0192774 0.0131512
-0.0562922 -0.0494565 0.0337393
0.062205 -0.060555 0.0413106
0.156703 -0.0482909 0.0329442
0.190744 -0.0173958 0.0118675
0.151176 0.0201942 -0.0137765
0.0519893 0.0487781 -0.0332765
-0.091716 -0.00253116 -0.0639484
-0.245835 -0.00209371 -0.0529039
-0.302826 -0.000785848 -0.0198568
-0.242952 0.000826072 0.0208732
-0.0893458 0.00211929 0.0535505
0.0987304 0.00259487 0.0655677
0.248715 0.00206934 0.0522882
0.302745 0.000745441 0.0188358
0.239943 -0.000865359 -0.0218657
0.0825164 -0.00209052 -0.0528159
-0.0902619 -0.0631453 -0.0629345
-0.241888 -0.0522121 -0.052055
-0.297963 -0.0195969 -0.0195381
-0.239051 0.0205999 0.0205381
-0.087911 0.0528495 0.052691
0.0971454 0.0647091 0.064515
0.244723 0.0516036 0.0514488
0.297884 0.0185892 0.0185335
0.236092 -0.0215801 -0.021515
0.0812081 -0.0521525 -0.0519785
-0.053984 -0.0993975 -0.03764
-0.141125 -0.0802234 -0.0303791
-0.173818 -0.0300984 -0.0113977
-0.139452 0.0316387 0.011981
-0.0512834 0.0811694 0.0307373
0.0566703 0.0993843 0.037635
0.14276 0.0792561 0.0300128
0.173772 0.0285502 0.0108114
0.137741 -0.0331705 -0.0125611
0.0485691 -0.0820938 -0.0310874
0 -0.252451 0
0 -0.214351 0
0 -0.0804209 0
0 0.0845363 0
0 0.216879 0
0 0.265548 0
0 0.211767 0
0 0.0762842 0
0 -0.0886293 0
0 -0.208502 0
0.0344204 -0.155053 -0.126821
0.0922601 -0.128417 -0.104918
0.113648 -0.0482003 -0.0393796
0.0911785 0.0506675 0.0413951
0.0335307 0.129988 0.1062
-0.037053 0.159158 0.130032
-0.0933412 0.126924 0.103696
-0.113618 0.045722 0.0373547
-0.0900492 -0.0530752 -0.0433636
-0.0309678 -0.128061 -0.104743
0.0555611 0.00216474 -0.204713
0.148925 0.00178869 -0.169357
0.18345 0.000671343 -0.0635663
0.147179 -0.000705704 0.0668198
0.0541251 -0.0018105 0.171427
-0.0598105 -0.00221679 0.209897
-0.150671 -0.00176781 0.167386
-0.183402 -0.000636821 0.0602978
-0.145357 0.000739304 -0.0699971
-0.049988 0.00178789 -0.169075
0.055266 0.158548 -0.203626
0.148135 0.131165 -0.168458
0.182476 0.0492311 -0.0632286
0.146397 -0.051751 0.0664649
0.0538377 -0.132768 0.170517
-0.0594927 -0.162563 0.208781
-0.149871 -0.129638 0.166497
-0.182428 -0.0466997 0.0599774
-0.144584 0.0542118 -0.0696252
-0.0497225 0.130947 -0.168177
0.0336488 0.253762 -0.123978
0.0901918 0.209935 -0.102566
0.111101 0.0787966 -0.0384967
0.0891345 -0.0828295 0.0404674
0.0327793 -0.212501 0.103819
-0.0362223 -0.260187 0.127117
-0.0912494 -0.207491 0.101372
-0.111071 -0.0747449 0.0365173
-0.0880305 0.0867684 -0.0423915
-0.0302736 0.209585 -0.102395
-0.000950332 0.251073 0.00350146
-0.00254726 0.20771 0.00289672
-0.00313778 0.0779614 0.00108725
-0.00251739 -0.0819518 -0.0011429
-0.000925769 -0.210249 -0.00293213
0.00102302 -0.25743 -0.00359012
0.00257711 -0.205293 -0.00286302
0.00313694 -0.073953 -0.00103135
0.00248622 0.085849 0.00119725
0.000855008 0.207364 0.00289191
-0.0351828 0.151518 0.12963
-0.0943037 0.125349 0.107242
-0.116166 0.0470484 0.0402519
-0.0931977 -0.0494565 -0.0423122
-0.0342736 -0.126882 -0.108552
0.0378738 -0.155354 -0.132912
0.0954091 -0.12389 -0.105994
0.116135 -0.0446293 -0.0381822
0.0920439 0.0518082 0.0443241
0.0316538 0.125141 0.107063
-0.0558415 -0.00649371 0.205746
-0.149676 -0.00537145 0.170212
-0.184375 -0.0020161 0.0638868
-0.147922 0.00211929 -0.0671567
-0.0543981 0.00543707 -0.172292
0.0601124 0.0066572 -0.210955
0.151432 0.00530892 -0.168231
0.184327 0.00191244 -0.0606019
0.14609 -0.00222009 0.0703503
0.0502403 -0.00536324 0.169929
-0.0549561 -0.162 0.202484
-0.147274 -0.13395 0.16748
-0.181416 -0.0502761 0.0628616
-0.145547 0.0528495 -0.0660791
-0.0535249 0.135586 -0.169527
0.0591472 0.166012 -0.207569
0.149 0.13239 -0.16553
0.181368 0.0476909 -0.0596291
0.143745 -0.0553639 0.0692217
0.0494437 -0.133798 0.167234
-0.0328683 -0.255005 0.121102
-0.085924 -0.205814 0.097741
-0.10583 -0.0772179 0.0366708
-0.0849053 0.0811694 -0.0385473
-0.031224 0.208241 -0.0988936
0.0345038 0.254972 -0.121086
0.0869198 0.203332 -0.0965625
0.105801 0.0732459 -0.0347845
0.0838642 -0.0850993 0.0404136
0.0295714 -0.210613 0.10002
0 -0.309102 0
0 -0.262453 0
0 -0.0984679 0
0 0.103507 0
0 0.265548 0
0 0.325139 0
0 0.259288 0
0 0.0934028 0
0 -0.108518 0
0 -0.255292 0
-0.000972123 -0.189848 -0.24413
-0.00260566 -0.157234 -0.201967
-0.00320972 -0.0590166 -0.075806
-0.0025751 0.0620374 0.079686
-0.000947002 0.159158 0.204435
0.00104647 0.194874 0.250312
0.00263621 0.155406 0.199617
0.00320887 0.0559823 0.0719079
0.00254324 -0.0649856 -0.0834751
0.000874614 -0.156798 -0.201631
-0.00156919 0.00265052 -0.394074
-0.00420604 0.00219008 -0.326014
-0.0051811 0.000821999 -0.122365
-0.00415672 -0.000864073 0.128628
-0.00152863 -0.00221679 0.329997
0.00168921 -0.00271425 0.404052
0.00425536 -0.00216453 0.32222
0.00517973 -0.000779729 0.116073
0.00410528 0.000905211 -0.134745
0.0014118 0.0021891 -0.325471
-0.00156086 0.194127 -0.39198
-0.00418369 0.1606 -0.324283
-0.00515357 0.0602791 -0.121716
-0.00413466 -0.0633646 0.127945
-0.00152052 -0.162563 0.328244
0.00168024 -0.199042 0.401905
0.00423275 -0.15873 0.320508
0.00515221 -0.0571795 0.115457
0.00408346 0.0663774 -0.134029
0.0014043 0.160332 -0.323742
-0.000950332 0.310708 -0.238658
-0.00254726 0.257045 -0.197439
-0.00313778 0.0964791 -0.0741066
-0.00251739 -0.101418 0.0778996
-0.000925769 -0.260187 0.199853
0.00102302 -0.318575 0.244701
0.00257711 -0.254055 0.195141
0.00313694 -0.0915184 0.0702962
0.00248622 0.10624 -0.0816039
0.000855008 0.256617 -0.197111
2.68399e-05 0.307415 0.00674034
7.19412e-05 0.254322 0.00557622
8.86197e-05 0.0954567 0.00209296
7.1098e-05 -0.100343 -0.0022001
2.61463e-05 -0.25743 -0.00564437
-2.88926e-05 -0.315199 -0.006911
-7.2785e-05 -0.251362 -0.00551132
-8.85961e-05 -0.0905484 -0.00198536
-7.02174e-05 0.105114 0.00230471
-2.41477e-05 0.253898 0.00556694
0.000993656 0.18552 0.249538
0.00266338 0.153478 0.20644
0.00328083 0.0576064 0.0774847
0.00263216 -0.060555 -0.0814512
0.000967973 -0.155354 -0.208964
-0.00106966 -0.190217 -0.255857
-0.00269462 -0.151693 -0.204038
-0.00327996 -0.0546443 -0.0735009
-0.00259956 0.0634344 0.0853241
-0.000893987 0.153223 0.206097
0.00157711 -0.00795094 0.396062
0.00422727 -0.00657684 0.327657
0.00520725 -0.00246853 0.122982
0.00417768 0.00259487 -0.129277
0.00153635 0.0066572 -0.331662
-0.00169773 0.00815111 -0.406091
-0.00427682 0.00650026 -0.323846
-0.00520587 0.0023416 -0.116659
-0.00412598 -0.00271829 0.135425
-0.00141892 -0.00656679 0.327113
0.00155211 -0.198354 0.389783
0.00415941 -0.16401 0.322401
0.00512364 -0.0615583 0.121009
0.00411064 0.0647091 -0.127203
0.00151169 0.166012 -0.326339
-0.00167048 0.203267 -0.399573
-0.00420815 0.162099 -0.318647
-0.00512228 0.0583932 -0.114787
-0.00405973 -0.0677879 0.133252
-0.00139642 -0.163823 0.321927
0.000928287 -0.31223 0.233122
0.00242672 -0.252 0.188152
0.00298891 -0.0945461 0.0705914
0.00239795 0.0993843 -0.0742038
0.000881849 0.254972 -0.190371
-0.000974479 0.312189 -0.233091
-0.00245485 0.248961 -0.185883
-0.00298811 0.0896828 -0.0669603
-0.00236855 -0.104196 0.0777964
-0.000835175 -0.257875 0.192539
0 -0.2465 0
0 -0.209299 0
0 -0.0785253 0
0 0.0825436 0
0 0.211767 0
0 0.259288 0
0 0.206775 0
0 0.074486 0
0 -0.0865401 0
0 -0.203588 0
-0.0359896 -0.151399 -0.267253
-0.0964662 -0.12539 -0.221096
-0.118829 -0.0470641 -0.0829855
-0.095335 0.0494731 0.087233
-0.0350595 0.126924 0.223799
0.038742 0.155406 0.27402
0.0975964 0.123932 0.218523
0.118797 0.0446442 0.0787188
0.0941544 -0.0518241 -0.0913815
0.0323796 -0.125042 -0.220728
-0.0580941 0.00211371 -0.431398
-0.155715 0.00174652 -0.356892
-0.191814 0.000655518 -0.133954
-0.153888 -0.000689069 0.140812
-0.0565926 -0.00176781 0.361253
0.0625373 -0.00216453 0.442321
0.15754 -0.00172615 0.352737
0.191763 -0.000621812 0.127067
0.151984 0.000721878 -0.147507
0.052267 0.00174574 -0.356297
-0.0577855 0.15481 -0.429106
-0.154887 0.128073 -0.354996
-0.190795 0.0480709 -0.133243
-0.153072 -0.0505314 0.140063
-0.0562922 -0.129638 0.359334
0.062205 -0.15873 0.439972
0.156703 -0.126583 0.350863
0.190744 -0.0455992 0.126392
0.151176 0.0529341 -0.146723
0.0519893 0.12786 -0.354405
-0.0351828 0.24778 -0.261262
-0.0943037 0.204986 -0.216139
-0.116166 0.0769389 -0.0811256
-0.0931977 -0.0808776 0.085278
-0.0342736 -0.207491 0.218781
0.0378738 -0.254055 0.267877
0.0954091 -0.202601 0.213625
0.116135 -0.072983 0.0769539
0.0920439 0.084723 -0.0893329
0.0316538 0.204645 -0.21578
0.000993656 0.245154 0.00737874
0.00266338 0.202814 0.00610435
0.00328083 0.0761239 0.0022912
0.00263216 -0.0800203 -0.00240847
0.000967973 -0.205293 -0.00617896
-0.00106966 -0.251362 -0.00756558
-0.00269462 -0.200454 -0.00603333
-0.00327996 -0.0722095 -0.00217339
-0.00259956 0.0838253 0.002523
-0.000893987 0.202476 0.0060942
0.0367868 0.147946 0.273173
0.0986025 0.122395 0.225993
0.121462 0.0459394 0.0848238
0.0974465 -0.0482909 -0.0891657
0.035836 -0.12389 -0.228755
-0.0396005 -0.151693 -0.28009
-0.0997588 -0.12097 -0.223364
-0.121429 -0.0435772 -0.0804625
-0.0962403 0.0505871 0.0934053
-0.0330969 0.122191 0.225617
0.0583873 -0.00634064 0.433575
0.1565 -0.00524484 0.358692
0.192782 -0.00196858 0.13463
0.154665 0.00206934 -0.141522
0.0568781 0.00530892 -0.363076
-0.0628529 0.00650026 -0.444553
-0.158335 0.00518376 -0.354517
-0.19273 0.00186735 -0.127708
-0.15275 -0.00216775 0.148251
-0.0525307 -0.00523682 0.358095
0.0574615 -0.158181 0.4267
0.153988 -0.130793 0.352936
0.189686 -0.0490909 0.13247
0.152182 0.0516036 -0.13925
0.0559651 0.13239 -0.357248
-0.0618436 0.162099 -0.437417
-0.155792 0.129269 -0.348826
-0.189636 0.0465667 -0.125658
-0.150298 -0.0540588 0.145873
-0.0516978 -0.130644 0.352418
0.0343667 -0.248994 0.255202
0.0898412 -0.200962 0.205972
0.110654 -0.0753977 0.0772773
0.0887761 0.0792561 -0.0812319
0.0326475 0.203332 -0.208401
-0.0360768 0.248961 -0.255168
-0.0908823 0.198539 -0.203489
-0.110625 0.0715194 -0.0733023
-0.0876875 -0.0830933 0.0851648
-0.0309195 -0.205648 0.210775
0 -0.0887961 0
0 -0.0753951 0
0 -0.028287 0
0 0.0297345 0
0 0.0762842 0
0 0.0934028 0
0 0.074486 0
0 0.0268319 0
0 -0.0311741 0
0 -0.0733379 0
-0.057122 -0.0545379 -0.187267
-0.153109 -0.0451692 -0.154924
-0.188604 -0.016954 -0.0581492
-0.151314 0.0178218 0.0611257
-0.0556458 0.045722 0.156818
0.0614907 0.0559823 0.19201
0.154903 0.0446442 0.153122
0.188553 0.0160822 0.0551593
0.14944 -0.0186687 -0.0640321
0.0513923 -0.0450436 -0.154667
-0.0922059 0.000761418 -0.302285
-0.247147 0.000629152 -0.250078
-0.304443 0.000236138 -0.0938639
-0.24425 -0.000248224 0.0986682
-0.0898228 -0.000636822 0.253135
0.0992579 -0.000779729 0.309939
0.250044 -0.000621812 0.247167
0.304362 -0.000223996 0.0890377
0.241225 0.000260043 -0.10336
0.0829571 0.000628865 -0.249662
-0.091716 0.055767 -0.300679
-0.245835 0.046136 -0.24875
-0.302826 0.0173166 -0.0933651
-0.242952 -0.0182029 0.098144
-0.0893458 -0.0466997 0.25179
0.0987304 -0.0571795 0.308293
0.248715 -0.0455992 0.245855
0.302745 -0.0164262 0.0885645
0.239943 0.0190685 -0.102811
0.0825164 0.0460587 -0.248335
-0.0558415 0.0892573 -0.183069
-0.149676 0.0738425 -0.151452
-0.184375 0.0277159 -0.0568455
-0.147922 -0.0291346 0.0597552
-0.0543981 -0.0747449 0.153303
0.0601124 -0.0915185 0.187705
0.151432 -0.072983 0.149689
0.184327 -0.0262908 0.0539227
0.14609 0.0305199 -0.0625967
0.0502403 0.0737187 -0.151199
0.00157711 0.0883114 0.00517036
0.00422727 0.0730599 0.00427741
0.00520725 0.0274222 0.00160547
0.00417768 -0.0288258 -0.00168765
0.00153635 -0.073953 -0.00432968
-0.00169773 -0.0905485 -0.00530129
-0.00427682 -0.0722095 -0.00422762
-0.00520587 -0.0260121 -0.00152292
-0.00412598 0.0301965 0.0017679
-0.00141892 0.0729375 0.00427028
0.0583873 0.0532944 0.191415
0.1565 0.0440903 0.158357
0.192782 0.0165488 0.059437
0.154665 -0.0173959 -0.0624795
0.0568781 -0.0446293 -0.160292
-0.0628529 -0.0546443 -0.196262
-0.158335 -0.0435772 -0.156513
-0.19273 -0.0156979 -0.0563811
-0.15275 0.018223 0.0654505
-0.0525307 0.0440165 0.158092
0.0926712 -0.00228407 0.303811
0.248393 -0.00188935 0.25134
0.305978 -0.000709144 0.0943375
0.245481 0.000745441 -0.0991661
0.090276 0.00191244 -0.254412
-0.0997587 0.0023416 -0.311503
-0.251306 0.00186735 -0.248414
-0.305896 0.00067268 -0.0894869
-0.242442 -0.000780893 0.103881
-0.0833758 -0.00188645 0.250921
0.0912019 -0.0569812 0.298994
0.244406 -0.0471157 0.247307
0.301066 -0.0176841 0.092823
0.241541 0.0185892 -0.0975742
0.0888265 0.047691 -0.250328
-0.0981568 0.0583932 -0.306504
-0.24727 0.0465667 -0.244428
-0.300986 0.0167748 -0.0880502
-0.238549 -0.0194737 0.102215
-0.0820538 -0.0470615 0.246943
0.0545462 -0.0896947 0.178823
0.142594 -0.0723922 0.144327
0.175628 -0.0271603 0.0541491
0.140904 0.0285502 -0.0569201
0.0518175 0.0732459 -0.146029
-0.0572604 0.0896828 -0.178799
-0.144247 0.0715194 -0.142587
-0.175582 0.0257632 -0.0513637
-0.139176 -0.0299325 0.0596759
-0.0490749 -0.0740801 0.147692
0 0.103166 0
0 0.0875963 0
0 0.0328646 0
0 -0.0345464 0
0 -0.0886292 0
0 -0.108518 0
0 -0.08654 0
0 -0.0311741 0
0 0.036219 0
0 0.0852061 0
-0.0562163 0.0633638 -0.0350324
-0.150651 0.0524337 -0.0290181
-0.185575 0.0196802 -0.0108919
-0.148884 -0.0206875 0.0114495
-0.0547523 -0.0530741 0.0293737
0.0605035 -0.0649842 0.0359653
0.152417 -0.051823 0.0286813
0.185525 -0.0186683 0.0103319
0.147041 0.0216715 -0.0119931
0.0505775 0.052333 -0.0289338
-0.0907439 -0.000884639 -0.0565491
-0.24318 -0.000730397 -0.0468408
-0.299554 -0.000274133 -0.0175817
-0.240328 0.000288164 0.0184817
-0.0883806 0.000739287 0.0474149
0.097664 0.00090519 0.0580551
0.24603 0.000721863 0.0462971
0.299475 0.000260037 0.0166777
0.237352 -0.000301896 -0.0193592
0.0816418 -0.000730634 -0.0467047
-0.0902619 -0.0647918 -0.0562487
-0.241888 -0.0535574 -0.046592
-0.297963 -0.0201017 -0.0174883
-0.239051 0.0211306 0.0183835
-0.087911 0.0542106 0.047163
0.0971454 0.066376 0.0577467
0.244723 0.0529329 0.0460512
0.297884 0.0190681 0.0165891
0.236092 -0.0221363 -0.0192563
0.0812081 -0.0535124 -0.0464566
-0.0549561 -0.103702 -0.0342471
-0.147274 -0.0857207 -0.0283676
-0.181416 -0.0321735 -0.0106478
-0.145547 0.0338203 0.0111928
-0.0535249 0.0867665 0.0287153
0.0591472 0.106238 0.0351592
0.149 0.0847212 0.0280384
0.181368 0.0305192 0.0101003
0.143745 -0.03543 -0.0117243
0.0494437 -0.0856486 -0.0282852
0.00155211 -0.102603 0.00096723
0.00415941 -0.0848123 0.000801178
0.00512364 -0.0318326 0.000300721
0.00411064 0.0334619 -0.000316115
0.00151169 0.0858471 -0.000810995
-0.00167048 0.105112 -0.000992991
-0.00420815 0.0838235 -0.000791881
-0.00512228 0.0301958 -0.00028526
-0.00405973 -0.0350545 0.000331125
-0.00139642 -0.084741 0.000798849
0.0574615 -0.061919 0.0358084
0.153988 -0.0511827 0.0296609
0.189686 -0.0192104 0.0111332
0.152183 0.0201937 -0.0117031
0.0559651 0.051807 -0.0300244
-0.0618436 0.0634331 -0.0367621
-0.155792 0.050586 -0.0293167
-0.189636 0.0182226 -0.0105608
-0.150298 -0.0211548 0.0122588
-0.0516978 -0.0511397 0.0295747
0.0912019 0.00265371 0.0568345
0.244406 0.00219329 0.0470771
0.301066 0.000823204 0.0176704
0.241541 -0.00086534 -0.0185749
0.0888265 -0.00222004 -0.047654
-0.0981568 -0.00271823 -0.058348
-0.24727 -0.00216771 -0.0465306
-0.300986 -0.000780876 -0.0167618
-0.238549 0.000906532 0.0194569
-0.0820538 0.00219173 0.0469404
0.0897558 0.0662025 0.0559334
0.240484 0.0546962 0.046321
0.296233 0.0205288 0.0173865
0.237663 -0.0215797 -0.0182764
0.0874004 -0.0553627 -0.0468884
-0.0965813 -0.0677865 -0.0574106
-0.243301 -0.0540577 -0.0457832
-0.296154 -0.0194732 -0.0164925
-0.23472 0.0226072 0.0191445
-0.0807529 0.0546775 0.0461961
0.0536813 0.10421 0.0334527
0.140333 0.0841075 0.0269996
0.172844 0.0315557 0.0101298
0.13867 -0.0331705 -0.0106482
0.0509959 -0.0850993 -0.027318
-0.0563525 -0.104196 -0.0334483
-0.14196 -0.0830933 -0.026674
-0.172798 -0.0299325 -0.00960872
-0.136969 0.0347765 0.0111637
-0.0482968 0.0860685 0.0276291
0 0.255326 0
0 0.206072 0
0 0.0773149 0
0 -0.0812713 0
0 -0.208502 0
0 -0.255292 0
0 -0.203588 0
0 -0.0733379 0
0 0.0852062 0
0 0.210877 0
-0.033622 0.156819 0.130718
-0.0878942 0.126568 0.105502
-0.108256 0.0474862 0.0395826
-0.0868522 -0.0499162 -0.0416082
-0.0319399 -0.128061 -0.106746
0.035295 -0.156798 -0.130701
0.0889128 -0.125042 -0.10423
0.108227 -0.0450436 -0.0375465
0.0857871 0.052333 0.0436227
0.0302495 0.129519 0.107962
-0.0542723 -0.0021894 0.211004
-0.141878 -0.00176705 0.170301
-0.174746 -0.000662968 0.063894
-0.140196 0.000696894 -0.0671637
-0.0515572 0.00178789 -0.172309
0.0569729 0.0021891 -0.210976
0.143522 0.00174574 -0.168247
0.1747 0.000628865 -0.0606074
0.138477 -0.000730635 0.0704155
0.0488285 -0.00180825 0.174271
-0.053984 -0.160353 0.209883
-0.141124 -0.129421 0.169396
-0.173818 -0.0485564 0.0635546
-0.139451 0.0510412 -0.0668069
-0.0512833 0.130947 -0.171394
0.0566702 0.160332 -0.209856
0.14276 0.12786 -0.167354
0.173772 0.0460587 -0.0602854
0.137741 -0.0535124 0.0700414
0.0485691 -0.132438 0.173346
-0.0328683 -0.256652 0.127788
-0.0859239 -0.207143 0.103137
-0.105829 -0.0777164 0.0386953
-0.0849053 0.0816934 -0.0406755
-0.031224 0.209585 -0.104353
0.0345038 0.256618 -0.127771
0.0869197 0.204645 -0.101894
0.105801 0.0737187 -0.0367049
0.0838641 -0.0856487 0.0426448
0.0295714 -0.211972 0.105542
0.000928287 -0.253932 -0.00360907
0.00242672 -0.204948 -0.00291287
0.00298891 -0.0768928 -0.00109286
0.00239795 0.0808277 0.00114878
0.000881848 0.207364 0.00294722
-0.000974478 0.253898 0.00360859
-0.00245484 0.202476 0.00287775
-0.00298811 0.0729375 0.00103664
-0.00236855 -0.084741 -0.0012044
-0.000835175 -0.209726 -0.00298078
0.0343667 -0.153244 -0.133614
0.0898411 -0.123682 -0.107839
0.110654 -0.0464035 -0.0404594
0.088776 0.0487781 0.0425299
0.0326474 0.125141 0.109111
-0.0360768 0.153223 0.133596
-0.0908823 0.122191 0.106539
-0.110625 0.0440165 0.0383782
-0.0876874 -0.0511397 -0.044589
-0.0309195 -0.126566 -0.110353
0.0545462 0.00656767 -0.212069
0.142594 0.00530074 -0.17116
0.175628 0.00198875 -0.0642164
0.140904 -0.00209052 0.0675026
0.0518174 -0.00536324 0.173179
-0.0572604 -0.00656679 0.212041
-0.144247 -0.00523682 0.169096
-0.175582 -0.00188645 0.0609132
-0.139176 0.00219173 -0.0707708
-0.0490749 0.00542432 -0.175151
0.0536813 0.163845 -0.208707
0.140333 0.132238 -0.168447
0.172844 0.0496136 -0.0631983
0.13867 -0.0521525 0.0664323
0.0509958 -0.133798 0.170433
-0.0563525 -0.163823 0.208679
-0.14196 -0.130644 0.166415
-0.172798 -0.0470616 0.0599474
-0.136969 0.0546775 -0.0696487
-0.0482968 0.135322 -0.172374
0.0321058 0.25791 -0.124824
0.0839309 0.208158 -0.100745
0.103375 0.0780973 -0.0377977
0.0829359 -0.0820938 0.039732
0.0304997 -0.210613 0.101933
-0.0337034 -0.257875 0.124807
-0.0849036 -0.205648 0.0995301
-0.103347 -0.0740801 0.0358535
-0.0819188 0.0860685 -0.0416556
-0.0288855 0.213011 -0.103094
