# vtk DataFile Version 3.0
Velocity field
ASCII
DATASET STRUCTURED_POINTS
DIMENSIONS 10 10 10
SPACING 0.631579 0.631579 0.631579
ORIGIN 0 0 0
POINT_DATA 1000
VECTORS velocity float
0 0.0332625 0
0 0.026846 0
0 0.0100722 0
0 -0.0105876 0
0 -0.0271626 0
0 -0.0332581 0
0 -0.0265223 0
0 -0.00955408 0
0 0.0111002 0
0 0.027472 0
0 0.0204296 0.0260553
0 0.0164886 0.0218537
0 0.00618626 0.00819913
0 -0.00650283 -0.00861871
0 -0.0166831 -0.0221114
0 -0.0204269 -0.0270733
0 -0.0162898 -0.0215902
0 -0.00586805 -0.00777738
0 0.00681767 0.009036
0 0.0168731 0.0215194
0 -0.000285223 0.0420583
0 -0.000230202 0.0352761
0 -8.6368e-05 0.013235
0 9.07877e-05 -0.0139123
0 0.000232917 -0.0356921
0 0.000285185 -0.0437016
0 0.000227427 -0.0348507
0 8.19253e-05 -0.0125542
0 -9.51833e-05 0.0145858
0 -0.00023557 0.0347365
0 -0.02089 0.0418349
0 -0.0168602 0.0350887
0 -0.00632567 0.0131647
0 0.00664938 -0.0138384
0 0.0170591 -0.0355024
0 0.0208872 -0.0434694
0 0.0166569 -0.0346656
0 0.00600029 -0.0124875
0 -0.00697132 0.0145084
0 -0.0172533 0.034552
0 -0.0334352 0.0254712
0 -0.0269855 0.0213638
0 -0.0101245 0.00801534
0 0.0106426 -0.00842551
0 0.0273037 -0.0216157
0 0.0334308 -0.0264664
0 0.0266601 -0.0211062
0 0.0096037 -0.00760304
0 -0.0111579 0.00883344
0 -0.0276146 0.0210371
0 -0.0330809 -0.000719376
0 -0.0266995 -0.000603372
0 -0.0100172 -0.000226375
0 0.0105298 0.000237959
0 0.0270143 0.000610486
0 0.0330765 0.000747483
0 0.0263776 0.000596096
0 0.00950193 0.000214731
0 -0.0110396 -0.00024948
0 -0.027322 -0.000594143
0 -0.0199638 -0.0266325
0 -0.0161127 -0.0223378
0 -0.0060452 -0.00838075
0 0.00635455 0.00880962
0 0.0163027 0.0226012
0 0.0199611 0.027673
0 0.0159184 0.0220684
0 0.00573424 0.00794965
0 -0.00666222 -0.00923615
0 -0.0164883 -0.0219961
0 0.000855601 -0.0422705
0 0.000690553 -0.0354541
0 0.000259084 -0.0133018
0 -0.000272342 0.0139825
0 -0.000698695 0.0358722
0 -0.000855487 0.0439221
0 -0.000682226 0.0350266
0 -0.000245757 0.0126175
0 0.000285527 -0.0146594
0 0.000706653 -0.0349118
0 0.0213448 -0.0416003
0 0.0172273 -0.034892
0 0.00646341 -0.0130909
0 -0.00679416 0.0137608
0 -0.0174305 0.0353034
0 -0.021342 0.0432257
0 -0.0170196 0.0344712
0 -0.00613094 0.0124175
0 0.00712311 -0.014427
0 0.017629 -0.0343583
0 0.0335991 -0.0248804
0 0.0271177 -0.0200809
0 0.0101741 -0.00753401
0 -0.0106947 0.00791954
0 -0.0274375 0.0203177
0 -0.0335946 0.0248771
0 -0.0267907 0.0198388
0 -0.00965076 0.00714647
0 0.0112125 -0.00830298
0 0.02775 -0.0205491
0 0.026846 0
0 0.0227945 0
0 0.0085521 0
0 -0.00898973 0
0 -0.0230633 0
0 -0.0282388 0
0 -0.0225196 0
0 -0.00811219 0
0 0.00942498 0
0 0.0221725 0
0.00378841 0.0164886 0.0288359
0.00993108 0.0133471 0.0233396
0.0122318 0.00500765 0.00875666
0.00981337 -0.0052639 -0.00920476
0.00360888 -0.0135046 -0.0236149
-0.00398795 -0.0165351 -0.0289143
-0.0100462 -0.0131863 -0.0230583
-0.0122286 -0.00475007 -0.00830622
-0.00969302 0.00551871 0.00965033
-0.00340841 0.0136182 0.023816
0.00611522 -0.000230202 0.0465467
0.0160307 -0.000186305 0.0376746
0.0197445 -6.98989e-05 0.0141349
0.0158407 7.34759e-05 -0.0148583
0.00582542 0.000188503 -0.0381191
-0.00643733 0.000230805 -0.0466732
-0.0162165 0.00018406 -0.0372205
-0.0197392 6.63034e-05 -0.0134078
-0.0156464 -7.70325e-05 0.0155775
-0.00550183 -0.000190127 0.0384436
0.00608273 -0.0168602 0.0462994
0.0159455 -0.0136454 0.0374744
0.0196396 -0.00511957 0.0140598
0.0157565 0.00538155 -0.0147793
0.00579448 0.0138064 -0.0379165
-0.00640313 0.0169047 -0.0464253
-0.0161304 0.013481 -0.0370227
-0.0196344 0.00485623 -0.0133366
-0.0155633 -0.00564205 0.0154947
-0.0054726 -0.0139251 0.0382393
0.00370348 -0.0269855 0.0281895
0.00970847 -0.0218401 0.0228164
0.0119576 -0.00819407 0.00856037
0.0095934 0.00861338 -0.00899843
0.00352798 0.0220977 -0.0230856
-0.00389856 0.0270566 -0.0282661
-0.00982099 0.0215769 -0.0225414
-0.0119544 0.00777258 -0.00812003
-0.00947574 -0.00903032 0.009434
-0.003332 -0.0222876 0.0232821
-0.000104596 -0.0266995 -0.000796147
-0.000274193 -0.0216087 -0.000644395
-0.000337715 -0.00810724 -0.000241767
-0.000270943 0.00852211 0.00025414
-9.96394e-05 0.0218636 0.000651998
0.000110106 0.0267699 0.00079831
0.000277371 0.0213482 0.000636629
0.000337625 0.00769021 0.000229331
0.00026762 -0.00893463 -0.000266441
9.41047e-05 -0.0220515 -0.000657549
-0.00387232 -0.0161127 -0.0294746
-0.0101511 -0.0130404 -0.0238566
-0.0125027 -0.00489257 -0.00895063
-0.0100307 0.00514294 0.00940865
-0.00368881 0.0131943 0.024138
0.00407629 0.0161552 0.0295547
0.0102687 0.0128833 0.023569
0.0124994 0.0046409 0.00849022
0.00990773 -0.00539189 -0.00986409
0.00348391 -0.0133077 -0.0243435
-0.00614608 0.000690553 -0.0467816
-0.0161116 0.000558883 -0.0378647
-0.0198441 0.000209684 -0.0142063
-0.0159206 -0.000220415 0.0149333
-0.00585482 -0.000565477 0.0383114
0.00646982 -0.000692373 0.0469088
0.0162984 -0.000552147 0.0374083
0.0198388 -0.000198899 0.0134755
0.0157254 0.000231084 -0.0156561
0.00552959 0.000570336 -0.0386376
-0.00604863 0.0172273 -0.0460399
-0.0158561 0.0139425 -0.0372642
-0.0195294 0.005231 -0.013981
-0.0156682 -0.00549869 0.0146964
-0.00576198 -0.014107 0.0377039
0.00636721 -0.0172726 0.0461649
0.0160399 -0.0137744 0.0368151
0.0195242 -0.00496193 0.0132618
0.015476 0.00576486 -0.0154078
0.00544192 0.0142283 -0.038025
-0.00361758 0.0271177 -0.0275356
-0.00945704 0.0218866 -0.0222239
-0.0116479 0.00821148 -0.00833803
-0.00934493 -0.00863169 0.00876471
-0.0034366 -0.0221447 0.022486
0.00379759 -0.0271141 0.027532
0.00956664 -0.0216227 0.0219559
0.0116448 -0.00778909 0.00790913
0.00923033 0.0090496 -0.00918906
0.00325471 0.0223969 -0.022742
0 0.0100722 0
0 0.0085521 0
0 0.0032086 0
0 -0.0033728 0
0 -0.00865295 0
0 -0.0105947 0
0 -0.00844898 0
0 -0.00304356 0
0 0.00353609 0
0 0.00831874 0
0.00611522 0.00618626 0.0204914
0.0160307 0.00500765 0.0165843
0.0197445 0.0018788 0.0062222
0.0158407 -0.00197494 -0.00654061
0.00582542 -0.00506673 -0.01678
-0.00643733 -0.00620374 -0.0205455
-0.0162165 -0.0049473 -0.0163845
-0.0197392 -0.00178215 -0.00590212
-0.0156464 0.00207054 0.00685721
-0.00550183 0.00510931 0.0169241
0.00987114 -8.6368e-05 0.033077
0.0258766 -6.98989e-05 0.0267703
0.0318714 -2.6225e-05 0.0100438
0.0255699 2.7567e-05 -0.0105578
0.00940335 7.07236e-05 -0.0270861
-0.0103911 8.65945e-05 -0.0331644
-0.0261766 6.90565e-05 -0.0264476
-0.0318629 2.4876e-05 -0.00952718
-0.0252563 -2.89015e-05 0.0110689
-0.00888101 -7.13324e-05 0.0273188
0.0098187 -0.00632567 0.0329013
0.0257392 -0.00511957 0.0266281
0.031702 -0.00192078 0.00999045
0.0254341 0.00201908 -0.0105017
0.00935339 0.00517997 -0.0269422
-0.0103359 0.00634238 -0.0329883
-0.0260375 0.00505786 -0.0263071
-0.0316936 0.00182198 -0.00947657
-0.0251221 -0.00211681 0.0110101
-0.00883383 -0.00522445 0.0271737
0.00597814 -0.0101245 0.020032
0.0156714 -0.00819407 0.0162126
0.0193019 -0.00307429 0.00608272
0.0154856 0.00323162 -0.00639398
0.00569483 0.00829073 -0.0164039
-0.00629302 0.0101512 -0.020085
-0.015853 0.00809531 -0.0160172
-0.0192968 0.00291616 -0.00576983
-0.0152957 -0.00338804 0.00670349
-0.0053785 -0.00836194 0.0165447
-0.000168838 -0.0100172 -0.000565758
-0.000442601 -0.00810724 -0.000457886
-0.000545136 -0.00304172 -0.000171792
-0.000437354 0.00319737 0.000180583
-0.000160837 0.00820289 0.000463288
0.000177732 0.0100437 0.000567253
0.000447731 0.00800952 0.000452367
0.000544991 0.00288525 0.000162955
0.00043199 -0.00335214 -0.000189324
0.000151903 -0.00827333 -0.000467268
-0.00625067 -0.0060452 -0.0209453
-0.0163858 -0.00489257 -0.0169517
-0.0201818 -0.00183562 -0.00636002
-0.0161916 0.00192955 0.00668548
-0.00595445 0.00495029 0.0171517
0.00657991 0.00606117 0.0210006
0.0165757 0.00483361 0.0167474
0.0201765 0.0017412 0.00603286
0.015993 -0.00202296 -0.0070091
0.0056237 -0.00499281 -0.017299
-0.00992095 0.000259084 -0.033244
-0.0260072 0.000209684 -0.0269054
-0.0320322 7.86705e-05 -0.0100945
-0.0256989 -8.26963e-05 0.0106111
-0.0094508 -0.000212158 0.0272228
0.0104435 -0.000259768 0.0333318
0.0263086 -0.000207157 0.0265811
0.0320237 -7.46239e-05 0.00957526
0.0253837 8.66993e-05 -0.0111247
0.00892583 0.00021398 -0.0274567
-0.00976366 0.00646341 -0.0327169
-0.0255948 0.005231 -0.0264787
-0.0315243 0.00196259 -0.00993442
-0.0252914 -0.00206303 0.0104428
-0.00930092 -0.00529272 0.0267911
0.0102779 -0.00648044 0.0328033
0.0258915 -0.00516796 0.0261596
0.0315159 -0.00186164 0.00942342
0.0249812 0.00216289 -0.0109483
0.00878431 0.00533821 -0.0270213
-0.00583947 0.0101741 -0.0195674
-0.0152655 0.00821148 -0.0157928
-0.018802 0.00308081 -0.00592517
-0.0150845 -0.00323846 0.00622838
-0.00554734 -0.00830831 0.015979
0.00613004 -0.0101728 0.0195648
0.0154424 -0.00811247 0.0156023
0.018797 -0.00292234 0.00562039
0.0148995 0.00339526 -0.00652994
0.00525374 0.00840293 -0.016161
0 -0.0105876 0
0 -0.00898974 0
0 -0.0033728 0
0 0.00354539 0
0 0.00909574 0
0 0.0111369 0
0 0.00888134 0
0 0.0031993 0
0 -0.00371705 0
0 -0.00874444 0
0.00608273 -0.00650283 0.00424115
0.0159455 -0.0052639 0.0034325
0.0196396 -0.00197494 0.00128782
0.0157565 0.002076 -0.00135372
0.00579448 0.005326 -0.00347299
-0.00640313 0.0065212 -0.00425235
-0.0161304 0.00520047 -0.00339113
-0.0196344 0.00187335 -0.00122158
-0.0155633 -0.00217649 0.00141925
-0.0054726 -0.00537077 0.00350282
0.0098187 9.07877e-05 0.00684603
0.0257392 7.34759e-05 0.00554071
0.031702 2.7567e-05 0.00207879
0.0254341 -2.89778e-05 -0.00218517
0.00935339 -7.43428e-05 -0.00560607
-0.0103359 -9.10258e-05 -0.00686412
-0.0260375 -7.25902e-05 -0.00547393
-0.0316936 -2.6149e-05 -0.00197186
-0.0251221 3.03804e-05 0.00229094
-0.00883383 7.49828e-05 0.00565423
0.00976654 0.00664938 0.00680966
0.0256024 0.00538155 0.00551127
0.0315337 0.00201908 0.00206774
0.0252989 -0.0021224 -0.00217356
0.0093037 -0.00544505 -0.00557629
-0.010281 -0.00666694 -0.00682765
-0.0258992 -0.00531669 -0.00544485
-0.0315253 -0.00191522 -0.00196139
-0.0249887 0.00222514 0.00227877
-0.00878691 0.00549181 0.00562419
0.00594638 0.0106426 0.00414607
0.0155881 0.00861338 0.00335555
0.0191994 0.00323162 0.00125895
0.0154033 -0.00339699 -0.00132338
0.00566458 -0.008715 -0.00339514
-0.00625959 -0.0106707 -0.00415703
-0.0157688 -0.00850958 -0.0033151
-0.0191943 -0.00306539 -0.00119419
-0.0152144 0.00356142 0.00138744
-0.00534993 0.00878985 0.0034243
-0.000167942 0.0105298 -0.000117096
-0.000440249 0.00852211 -9.47697e-05
-0.00054224 0.00319737 -3.55561e-05
-0.00043503 -0.00336099 3.73757e-05
-0.000159983 -0.00862264 9.58878e-05
0.000176787 -0.0105576 0.000117406
0.000445353 -0.00841939 9.36274e-05
0.000542096 -0.0030329 3.37272e-05
0.000429696 0.00352368 -3.91849e-05
0.000151096 0.00869671 -9.67114e-05
-0.00621747 0.00635455 -0.00433509
-0.0162988 0.00514294 -0.00350853
-0.0200746 0.00192955 -0.00131635
-0.0161055 -0.0020283 0.00138371
-0.00592282 -0.00520362 0.00354992
0.00654497 -0.00637134 0.00434654
0.0164877 -0.00508096 0.00346624
0.0200693 -0.0018303 0.00124863
0.015908 0.00212648 -0.00145069
0.00559382 0.00524831 -0.00358041
-0.00986825 -0.000272342 -0.00688057
-0.0258691 -0.000220415 -0.00556866
-0.031862 -8.26963e-05 -0.00208928
-0.0255624 8.6928e-05 0.0021962
-0.00940059 0.000223015 0.00563436
0.0103881 0.000273061 0.00689875
0.0261689 0.000217758 0.00550155
0.0318536 7.84424e-05 0.00198181
0.0252489 -9.1136e-05 -0.0023025
0.00887841 -0.000224931 -0.00568276
-0.00971179 -0.00679416 -0.00677148
-0.0254588 -0.00549869 -0.00548036
-0.0313568 -0.00206303 -0.00205615
-0.025157 0.0021686 0.00216137
-0.00925152 0.00556356 0.00554502
0.0102233 0.00681206 0.00678936
0.0257539 0.00543242 0.00541431
0.0313485 0.00195691 0.00195039
0.0248485 -0.00227357 -0.00226599
0.00873765 -0.00561138 -0.00559266
-0.00580845 -0.0106947 -0.0040499
-0.0151844 -0.00863169 -0.00326866
-0.0187021 -0.00323846 -0.00122635
-0.0150044 0.00340419 0.0012891
-0.00551787 0.00873347 0.0033072
0.00609748 0.0106933 0.00404936
0.0153604 0.00852761 0.00322925
0.0186971 0.00307188 0.00116326
0.0148204 -0.003569 -0.00135152
0.00522583 -0.00883294 -0.00334487
0 -0.0271626 0
0 -0.0230633 0
0 -0.00865295 0
0 0.00909574 0
0 0.0233352 0
0 0.0285718 0
0 0.0227852 0
0 0.00820785 0
0 -0.00953612 0
0 -0.022434 0
0.00370348 -0.0166831 -0.0136454
0.00970847 -0.0135046 -0.0110436
0.0119576 -0.00506673 -0.0041434
0.0095934 0.005326 0.00435543
0.00352798 0.0136639 0.0111739
-0.00389856 0.0167302 0.0136814
-0.00982099 0.0133418 0.0109105
-0.0119544 0.0048061 0.00393027
-0.00947574 -0.00558382 -0.00456626
-0.003332 -0.0137788 -0.0112699
0.00597814 0.000232917 -0.0220262
0.0156714 0.000188503 -0.0178265
0.0193019 7.07236e-05 -0.00668825
0.0154856 -7.43428e-05 0.0070305
0.00569483 -0.000190727 0.0180368
-0.00629302 -0.000233528 0.0220844
-0.015853 -0.000186231 0.0176117
-0.0192968 -6.70856e-05 0.00634421
-0.0152957 7.79413e-05 -0.00737082
-0.0053785 0.000192369 -0.0181918
0.00594638 0.0170591 -0.0219092
0.0155881 0.0138064 -0.0177318
0.0191994 0.00517997 -0.00665271
0.0154033 -0.00544505 0.00699315
0.00566458 -0.0139693 0.017941
-0.00625959 -0.0171041 0.0219671
-0.0157688 -0.01364 0.0175181
-0.0191943 -0.00491351 0.00631051
-0.0152144 0.00570861 -0.00733167
-0.00534993 0.0140893 -0.0180951
0.00362046 0.0273037 -0.0133395
0.00949085 0.0220977 -0.0107961
0.0116896 0.00829073 -0.00405052
0.00937834 -0.008715 0.0042578
0.00344889 -0.0223584 0.0109234
-0.00381116 -0.0273758 0.0133747
-0.00960086 -0.0218314 0.0106659
-0.0116865 -0.00786428 0.00384216
-0.00926331 0.00913686 -0.0044639
-0.00325731 0.0225505 -0.0110173
-0.000102252 0.0270143 0.000376743
-0.000268047 0.0218636 0.00030491
-0.000330144 0.00820289 0.000114397
-0.00026487 -0.00862264 -0.000120252
-9.74058e-05 -0.0221215 -0.000308507
0.000107638 -0.0270857 -0.000377738
0.000271153 -0.0216001 -0.000301235
0.000330056 -0.00778094 -0.000108513
0.000261621 0.00904004 0.000126072
9.19952e-05 0.0223115 0.000311157
-0.00378552 0.0163027 0.0139476
-0.00992352 0.0131943 0.0112882
-0.0122225 0.00495029 0.00423518
-0.00980589 -0.00520362 -0.00445191
-0.00360613 -0.0133499 -0.0114214
0.00398491 -0.0163458 -0.0139844
0.0100385 -0.0130353 -0.0111522
0.0122192 -0.00469565 -0.00401733
0.00968563 0.00545551 0.00466741
0.00340581 0.0134646 0.0115195
-0.0060083 -0.000698695 0.0221374
-0.0157504 -0.000565476 0.0179165
-0.0193993 -0.000212158 0.006722
-0.0155637 0.000223015 -0.00706599
-0.00572357 0.000572147 -0.0181279
0.00632477 0.000700541 -0.0221959
0.015933 0.000558661 -0.0177006
0.0193941 0.000201245 -0.00637623
0.0153728 -0.00023381 0.00740802
0.00540564 -0.000577061 0.0182836
-0.00591304 -0.0174305 0.0217864
-0.0155007 -0.014107 0.0176324
-0.0190917 -0.00529272 0.0066154
-0.0153169 0.00556356 -0.00695393
-0.00563281 0.0142734 -0.0178404
0.00622448 0.0174764 -0.0218439
0.0156803 0.0139369 -0.0174199
0.0190866 0.00502046 -0.00627511
0.0151291 -0.00583287 0.00729055
0.00531993 -0.0143961 0.0179937
-0.00353648 -0.0274375 0.0130301
-0.00924505 -0.0221447 0.0105165
-0.0113868 -0.00830831 0.00394562
-0.00913545 0.00873347 -0.00414753
-0.00335957 0.0224058 -0.0106405
0.00371246 0.0274338 -0.0130283
0.00935219 0.0218777 -0.0103897
0.0113838 0.00788094 -0.00374266
0.00902342 -0.00915631 0.00434833
0.00318176 -0.022661 0.0107617
0 -0.0332581 0
0 -0.0282388 0
0 -0.0105947 0
0 0.0111369 0
0 0.0285718 0
0 0.0349835 0
0 0.0278983 0
0 0.0100497 0
0 -0.0116761 0
0 -0.0274683 0
-0.000104596 -0.0204269 -0.0262674
-0.000274193 -0.0165351 -0.021259
-0.000337715 -0.00620374 -0.00797606
-0.000270943 0.0065212 0.00838423
-9.96394e-05 0.0167302 0.0215098
0.000110106 0.0204846 0.0263367
0.000277371 0.0163359 0.0210028
0.000337625 0.00588462 0.0075658
0.00026762 -0.00683686 -0.00879008
9.41047e-05 -0.0168708 -0.0216946
-0.000168838 0.000285185 -0.0424006
-0.000442601 0.000230805 -0.0343161
-0.000545136 8.65945e-05 -0.0128749
-0.000437354 -9.10258e-05 0.0135338
-0.000160837 -0.000233528 0.034721
0.000177732 -0.000285933 0.0425126
0.000447731 -0.000228022 0.0339026
0.000544991 -8.21401e-05 0.0122127
0.00043199 9.54319e-05 -0.0141889
0.000151903 0.000235538 -0.0350193
-0.000167942 0.0208872 -0.0421754
-0.000440249 0.0169047 -0.0341339
-0.00054224 0.00634238 -0.0128065
-0.00043503 -0.00666694 0.0134619
-0.000159983 -0.0171041 0.0345365
0.000176787 -0.0209424 0.0422868
0.000445353 -0.0167009 0.0337225
0.000542096 -0.00601614 0.0121478
0.000429696 0.00698966 -0.0141135
0.000151096 0.017251 -0.0348332
-0.000102252 0.0334308 -0.0256786
-0.000268047 0.0270566 -0.0207825
-0.000330144 0.0101512 -0.00779728
-0.00026487 -0.0106707 0.00819629
-9.74058e-05 -0.0273758 0.0210276
0.000107638 -0.0335191 0.0257464
0.000271153 -0.0267305 0.020532
0.000330056 -0.00962907 0.00739619
0.000261621 0.0111872 -0.00859303
9.19952e-05 0.0276109 -0.0212083
2.88786e-06 0.0330765 0.000725231
7.57035e-06 0.0267699 0.000586953
9.32417e-06 0.0100437 0.000220216
7.48061e-06 -0.0105576 -0.000231485
2.751e-06 -0.0270857 -0.000593878
-3.03997e-06 -0.0331639 -0.000727147
-7.6581e-06 -0.0264472 -0.000579878
-9.32169e-06 -0.00952704 -0.000208888
-7.38887e-06 0.0110687 0.00024269
-2.59819e-06 0.0273183 0.000598979
0.000106913 0.0199611 0.0268492
0.000280267 0.0161552 0.0217299
0.000345196 0.00606117 0.00815275
0.000276945 -0.00637134 -0.00856994
0.000101847 -0.0163458 -0.0219863
-0.000112545 -0.0200138 -0.0269202
-0.000283515 -0.0159604 -0.021468
-0.000345104 -0.0057494 -0.00773337
-0.000273548 0.00667975 0.00898478
-9.61892e-05 0.0164861 0.0221752
0.000169691 -0.000855487 0.0426146
0.000444834 -0.000692373 0.0344893
0.000547888 -0.000259768 0.0129399
0.000439561 0.000273061 -0.0136021
0.000161649 0.000700541 -0.0348962
-0.000178629 0.000857748 -0.0427271
-0.00044999 0.000684029 -0.0340737
-0.000547742 0.000246406 -0.0122743
-0.00043417 -0.000286279 0.0142605
-0.00015267 -0.000706558 0.035196
0.000167 -0.021342 0.0419389
0.00043778 -0.0172726 0.0339424
0.000539199 -0.00648044 0.0127347
0.00043259 0.00681206 -0.0133864
0.000159086 0.0174764 -0.0343428
-0.000175796 0.0213982 -0.0420496
-0.000442854 0.0170645 -0.0335333
-0.000539056 0.00614709 -0.0120796
-0.000427286 -0.0071418 0.0140343
-0.000150249 -0.0176266 0.0346379
9.98797e-05 -0.0335946 0.0250829
0.000261105 -0.0271141 0.0202443
0.000321594 -0.0101728 0.00759533
0.000258009 0.0106933 -0.00798401
9.48831e-05 0.0274338 -0.0204831
-0.00010485 0.0335902 -0.0250796
-0.000264131 0.0267872 -0.0200002
-0.000321508 0.00964948 -0.00720463
-0.000254846 -0.0112111 0.00837056
-8.98613e-05 -0.0277463 0.0207163
0 -0.0265223 0
0 -0.0225196 0
0 -0.00844898 0
0 0.00888134 0
0 0.0227852 0
0 0.0278983 0
0 0.0222481 0
0 0.00801437 0
0 -0.00931134 0
0 -0.0219051 0
-0.00387232 -0.0162898 -0.0287553
-0.0101511 -0.0131863 -0.0232725
-0.0125027 -0.0049473 -0.00873151
-0.0100307 0.00520047 0.00917833
-0.00368881 0.0133418 0.0235471
0.00407629 0.0163359 0.0288313
0.0102687 0.0130274 0.0229921
0.0124994 0.00469281 0.00828237
0.00990773 -0.00545219 -0.00962262
0.00348391 -0.013454 -0.0237494
-0.00625067 0.000227427 -0.0464165
-0.0163858 0.00018406 -0.0375664
-0.0201818 6.90565e-05 -0.0140943
-0.0161916 -7.25902e-05 0.0148156
-0.00595445 -0.000186231 0.0380096
0.00657991 -0.000228022 0.0465392
0.0165757 -0.000181841 0.0371136
0.0201765 -6.55043e-05 0.0133693
0.015993 7.61042e-05 -0.0155328
0.0056237 0.000187835 -0.0383361
-0.00621747 0.0166569 -0.04617
-0.0162988 0.013481 -0.0373668
-0.0200746 0.00505786 -0.0140195
-0.0161055 -0.00531669 0.0147369
-0.00592282 -0.01364 0.0378076
0.00654497 -0.0167009 0.046292
0.0164877 -0.0133185 0.0369164
0.0200693 -0.0047977 0.0132983
0.015908 0.00557405 -0.0154502
0.00559382 0.0137572 -0.0381324
-0.00378552 0.0266601 -0.0281107
-0.00992352 0.0215769 -0.0227509
-0.0122225 0.00809531 -0.00853578
-0.00980589 -0.00850958 0.00897258
-0.00360613 -0.0218314 0.0230193
0.00398491 -0.0267305 0.0281849
0.0100385 -0.0213168 0.0224766
0.0122192 -0.00767889 0.00809671
0.00968563 0.00892149 -0.00940691
0.00340581 0.0220189 -0.023217
0.000106913 0.0263776 0.00079392
0.000280267 0.0213482 0.000642545
0.000345196 0.00800952 0.000241073
0.000276945 -0.00841939 -0.00025341
0.000101847 -0.0216001 -0.000650125
-0.000112545 -0.0264472 -0.000796017
-0.000283515 -0.0210909 -0.000634801
-0.000345104 -0.00759751 -0.000228673
-0.000273548 0.00882695 0.000265676
-9.61892e-05 0.0217856 0.00065571
0.0039581 0.0159184 0.0293922
0.0103759 0.0128833 0.023788
0.0127797 0.00483361 0.00892492
0.0102529 -0.00508096 -0.00938163
0.00377053 -0.0130353 -0.0240687
-0.00416658 -0.0159604 -0.0294698
-0.0104962 -0.012728 -0.0235014
-0.0127763 -0.00458497 -0.00846583
-0.0101272 0.0053269 0.00983576
-0.00356108 0.0131472 0.0242754
0.00628222 -0.000682226 0.0466508
0.0164685 -0.000552147 0.037756
0.0202837 -0.000207157 0.0141655
0.0162733 0.000217758 -0.0148904
0.0059845 0.000558661 -0.0382014
-0.00661312 0.000684029 -0.046774
-0.0166594 0.000545492 -0.0373009
-0.0202783 0.000196501 -0.0134368
-0.0160737 -0.000228299 0.0156111
-0.00565208 -0.000563459 0.0385295
0.00618261 -0.0170196 0.0459111
0.0162073 -0.0137744 0.0371572
0.019962 -0.00516796 0.0139408
0.0160152 0.00543242 -0.0146542
0.0058896 0.0139369 -0.0375956
-0.00650826 0.0170645 -0.0460323
-0.0163952 0.0136084 -0.0367094
-0.0199567 0.00490212 -0.0132237
-0.0158188 -0.00569538 0.0153636
-0.00556246 -0.0140567 0.0379186
0.00369771 -0.0267907 0.0274586
0.00966652 -0.0216227 0.0221617
0.0119059 -0.00811247 0.00831471
0.00955193 0.00852761 -0.0087402
0.00351273 0.0218777 -0.0224231
-0.00388171 0.0267872 -0.027455
-0.00977855 0.021362 -0.0218945
-0.0119028 0.00769517 -0.00788701
-0.00943479 -0.00894048 0.00916337
-0.00332681 -0.0221268 0.0226784
0 -0.00955408 0
0 -0.00811219 0
0 -0.00304356 0
0 0.0031993 0
0 0.00820785 0
0 0.0100497 0
0 0.00801437 0
0 0.002887 0
0 -0.0033542 0
0 -0.00789084 0
-0.00614608 -0.00586805 -0.0201491
-0.0161116 -0.00475007 -0.0163073
-0.0198441 -0.00178215 -0.00611827
-0.0159206 0.00187335 0.00643136
-0.00585482 0.0048061 0.0164997
0.00646982 0.00588462 0.0202024
0.0162984 0.00469281 0.0161108
0.0198388 0.00169048 0.00580356
0.0157254 -0.00196403 -0.00674267
0.00552959 -0.00484649 -0.0166414
-0.00992095 8.19253e-05 -0.0325246
-0.0260072 6.63034e-05 -0.0263232
-0.0320322 2.4876e-05 -0.00987606
-0.0256989 -2.6149e-05 0.0103815
-0.0094508 -6.70856e-05 0.0266337
0.0104435 -8.21401e-05 0.0326105
0.0263086 -6.55043e-05 0.0260059
0.0320237 -2.35964e-05 0.00936804
0.0253837 2.74148e-05 -0.010884
0.00892583 6.76632e-05 -0.0268625
-0.00986825 0.00600029 -0.0323518
-0.0258691 0.00485623 -0.0261834
-0.031862 0.00182198 -0.00982359
-0.0255624 -0.00191522 0.0103263
-0.00940059 -0.00491351 0.0264922
0.0103881 -0.00601614 0.0324373
0.0261689 -0.0047977 0.0258678
0.0318536 -0.00172826 0.00931828
0.0252489 0.00200793 -0.0108262
0.00887841 0.00495572 -0.0267198
-0.0060083 0.0096037 -0.0196975
-0.0157504 0.00777258 -0.0159418
-0.0193993 0.00291616 -0.00598111
-0.0155637 -0.00306539 0.00628719
-0.00572357 -0.00786428 0.0161298
0.00632477 -0.00962907 0.0197495
0.015933 -0.00767889 0.0157497
0.0193941 -0.00276615 0.00567345
0.0153728 0.00321377 -0.00659152
0.00540564 0.00793181 -0.0162684
0.000169691 0.00950193 0.000556309
0.000444834 0.00769021 0.000450239
0.000547888 0.00288525 0.000168923
0.000439561 -0.0030329 -0.000177567
0.000161649 -0.00778094 -0.00045555
-0.000178629 -0.00952704 -0.000557779
-0.00044999 -0.00759751 -0.000444812
-0.000547742 -0.00273684 -0.000160234
-0.00043417 0.00317971 0.000186162
-0.00015267 0.00784776 0.000459463
0.00628222 0.00573424 0.0205955
0.0164685 0.0046409 0.0166686
0.0202837 0.0017412 0.00625378
0.0162733 -0.0018303 -0.00657381
0.0059845 -0.00469565 -0.0168652
-0.00661312 -0.0057494 -0.0206499
-0.0166594 -0.00458497 -0.0164677
-0.0202783 -0.00165163 -0.0059321
-0.0160737 0.0019189 0.00689203
-0.00565208 0.00473599 0.0170101
0.00997102 -0.000245757 0.0326887
0.0261385 -0.000198899 0.026456
0.0321939 -7.46239e-05 0.00992589
0.0258286 7.84424e-05 -0.0104338
0.0094985 0.000201245 -0.0267681
-0.0104962 0.000246406 -0.0327751
-0.0264414 0.000196501 -0.0261372
-0.0321853 7.07852e-05 -0.00941532
-0.0255118 -8.22395e-05 0.0109389
-0.00897087 -0.000202974 0.0269981
0.00981293 -0.00613094 0.0321704
0.025724 -0.00496193 0.0260365
0.0316833 -0.00186164 0.00976849
0.025419 0.00195691 -0.0102684
0.00934786 0.00502046 -0.0263436
-0.0103298 0.00614709 -0.0322553
-0.0260221 0.00490212 -0.0257227
-0.0316749 0.00176588 -0.00926601
-0.0251073 -0.00205163 0.0107654
-0.00882864 -0.00506362 0.02657
0.00586893 -0.00965076 0.0192406
0.0153425 -0.00778909 0.015529
0.0188969 -0.00292234 0.00582621
0.0151606 0.00307188 -0.00612436
0.00557534 0.00788094 -0.0157121
-0.00616097 0.00964948 -0.019238
-0.0155203 0.00769517 -0.0153417
-0.0188918 0.00277201 -0.00552652
-0.0149747 -0.00322061 0.00642087
-0.00528025 -0.0079707 0.015891
0 0.0111002 0
0 0.00942498 0
0 0.00353609 0
0 -0.00371705 0
0 -0.00953612 0
0 -0.0116761 0
0 -0.00931134 0
0 -0.0033542 0
0 0.00389701 0
0 0.00916781 0
-0.00604863 0.00681767 -0.00376934
-0.0158561 0.0055187 -0.0030507
-0.0195294 0.00207053 -0.00114457
-0.0156682 -0.00217649 0.00120315
-0.00576198 -0.00558381 0.00308669
0.00636721 -0.00683686 0.00377936
0.0160399 -0.00545219 0.00301392
0.0195242 -0.00196403 0.0010857
0.015476 0.00228184 -0.00126139
0.00544192 0.0056308 -0.00311315
-0.00976366 -9.51833e-05 -0.00608444
-0.0255948 -7.70325e-05 -0.00492441
-0.0315243 -2.89014e-05 -0.00184756
-0.0252914 3.03804e-05 0.00194211
-0.00930092 7.79413e-05 0.0049825
0.0102779 9.54318e-05 0.00610062
0.0258915 7.61041e-05 0.00486506
0.0315159 2.74148e-05 0.00175253
0.0249812 -3.1851e-05 -0.00203612
0.00878431 -7.86131e-05 -0.00502522
-0.00971179 -0.00697132 -0.00605212
-0.0254588 -0.00564205 -0.00489825
-0.0313568 -0.00211681 -0.00183775
-0.025157 0.00222514 0.00193179
-0.00925152 0.00570861 0.00495604
0.0102233 0.00698966 0.00606821
0.0257539 0.00557404 0.00483921
0.0313485 0.00200792 0.00174322
0.0248485 -0.00233285 -0.0020253
0.00873765 -0.0057577 -0.00499853
-0.00591304 -0.0111579 -0.00368484
-0.0155007 -0.00903032 -0.00298231
-0.0190917 -0.00338804 -0.00111892
-0.0153169 0.00356142 0.00117618
-0.00563281 0.00913685 0.00301749
0.00622449 0.0111872 0.00369464
0.0156803 0.00892148 0.00294636
0.0190866 0.00321376 0.00106136
0.0151291 -0.00373381 -0.00123311
0.00531993 -0.00921542 -0.00304336
0.000167 -0.0110396 0.00010407
0.00043778 -0.00893462 8.42284e-05
0.000539199 -0.00335214 3.16012e-05
0.00043259 0.00352368 -3.32184e-05
0.000159086 0.00904003 -8.52221e-05
-0.000175796 0.0110687 -0.000104346
-0.000442854 0.00882694 -8.32131e-05
-0.000539056 0.00317971 -2.99757e-05
-0.000427286 -0.00369424 3.48263e-05
-0.000150249 -0.00911777 8.59527e-05
0.00618261 -0.00666222 0.00385283
0.0162073 -0.00539189 0.00311827
0.019962 -0.00202296 0.00116993
0.0160152 0.00212648 -0.0012298
0.0058896 0.0054555 -0.00315506
-0.00650826 0.00667975 -0.00386307
-0.0163952 0.0053269 -0.00308069
-0.0199567 0.0019189 -0.00110975
-0.0158188 -0.00222941 0.00128933
-0.00556246 -0.00550241 0.00318211
0.00981293 0.000285527 0.00611514
0.025724 0.000231084 0.00494926
0.0316833 8.66992e-05 0.00185689
0.025419 -9.11359e-05 -0.00195191
0.00934786 -0.00023381 -0.00500764
-0.0103298 -0.000286279 -0.0061314
-0.0260221 -0.000228299 -0.00488961
-0.0316749 -8.22395e-05 -0.00176137
-0.0251073 9.55474e-05 0.00204639
-0.00882864 0.000235821 0.00505058
0.00965734 0.00712311 0.00601819
0.025316 0.00576486 0.00487077
0.031181 0.00216289 0.00182744
0.0250159 -0.00227357 -0.00192096
0.00919963 -0.00583286 -0.00492824
-0.010166 -0.0071418 -0.00603417
-0.0256095 -0.00569538 -0.00481207
-0.0311727 -0.00205163 -0.00173344
-0.0247092 0.00238362 0.00201394
-0.00868866 0.00588306 0.0049705
0.00577588 0.0112125 0.00359937
0.0150993 0.0090496 0.00290504
0.0185972 0.00339526 0.00108992
0.0149203 -0.003569 -0.0011457
0.00548694 -0.00915631 -0.00293929
-0.00606329 -0.0112111 -0.00359889
-0.0152743 -0.00894048 -0.00287001
-0.0185923 -0.00322061 -0.00103386
-0.0147373 0.0037418 0.00120117
-0.00519653 0.0092606 0.00297277
0 0.027472 0
0 0.0221725 0
0 0.00831875 0
0 -0.00874444 0
0 -0.022434 0
0 -0.0274683 0
0 -0.0219052 0
0 -0.00789084 0
0 0.00916782 0
0 0.0226895 0
-0.00361758 0.0168731 0.0140647
-0.00945703 0.0136182 0.0113516
-0.0116479 0.00510931 0.00425892
-0.00934492 -0.00537077 -0.00447686
-0.0034366 -0.0137788 -0.0114854
0.00379758 -0.0168708 -0.0140628
0.00956663 -0.013454 -0.0112147
0.0116448 -0.0048465 -0.00403985
0.00923032 0.00563081 0.00469362
0.00325471 0.0139357 0.0116162
-0.00583947 -0.00023557 0.0227032
-0.0152655 -0.000190127 0.0183236
-0.0188019 -7.13325e-05 0.00687472
-0.0150845 7.49828e-05 -0.00722652
-0.00554733 0.000192369 -0.0185397
0.00613003 0.000235538 -0.0227001
0.0154424 0.000187835 -0.0181027
0.018797 6.76632e-05 -0.00652109
0.0148995 -7.86132e-05 0.0075764
0.00525374 -0.00019456 0.0187509
-0.00580845 -0.0172533 0.0225826
-0.0151844 -0.0139251 0.0182263
-0.0187021 -0.00522446 0.0068382
-0.0150044 0.00549181 -0.00718813
-0.00551786 0.0140893 -0.0184412
0.00609747 0.017251 -0.0225796
0.0153604 0.0137572 -0.0180065
0.0186971 0.00495572 -0.00648645
0.0148204 -0.0057577 0.00753615
0.00522583 -0.0142498 0.0186512
-0.00353648 -0.0276146 0.0137494
-0.00924504 -0.0222876 0.0110971
-0.0113868 -0.00836195 0.00416345
-0.00913544 0.00878986 -0.00437651
-0.00335956 0.0225505 -0.011228
0.00371246 0.0276109 -0.0137476
0.00935218 0.0220189 -0.0109633
0.0113838 0.00793182 -0.00394929
0.00902341 -0.00921543 0.0045884
0.00318176 -0.0228073 0.0113558
9.98797e-05 -0.027322 -0.000388321
0.000261105 -0.0220515 -0.000313412
0.000321593 -0.00827334 -0.000117587
0.000258009 0.00869671 0.000123604
9.4883e-05 0.0223115 0.000317108
-0.00010485 0.0273183 0.000388269
-0.000264131 0.0217856 0.000309633
-0.000321508 0.00784777 0.000111538
-0.000254845 -0.00911777 -0.000129589
-8.98613e-05 -0.0225656 -0.000320719
0.00369771 -0.0164883 -0.0143763
0.00966651 -0.0133077 -0.011603
0.0119059 -0.00499281 -0.00435326
0.00955191 0.00524831 0.00457603
0.00351272 0.0134646 0.0117399
-0.0038817 0.0164861 0.0143744
-0.00977854 0.0131472 0.0114631
-0.0119027 0.00473599 0.00412933
-0.00943478 -0.00550241 -0.00479758
-0.00332681 -0.0136179 -0.0118736
0.00586893 0.000706653 -0.0228177
0.0153425 0.000570336 -0.0184161
0.0188968 0.000213981 -0.00690941
0.0151606 -0.000224931 0.00726299
0.00557533 -0.000577062 0.0186333
-0.00616097 -0.000706558 0.0228147
-0.0155203 -0.000563459 0.018194
-0.0188918 -0.000202974 0.006554
-0.0149747 0.000235821 -0.00761463
-0.00528025 0.000583634 -0.0188455
0.00577588 0.017629 -0.022456
0.0150992 0.0142283 -0.0181241
0.0185972 0.00533821 -0.00679986
0.0149202 -0.00561138 0.00714783
0.00548693 -0.0143961 0.0183378
-0.00606328 -0.0176266 0.022453
-0.0152742 -0.0140567 0.0179056
-0.0185923 -0.00506362 0.00645008
-0.0147373 0.00588307 -0.0074939
-0.00519653 0.01456 -0.0185467
0.00345445 0.02775 -0.0134305
0.0090306 0.0223969 -0.0108397
0.0111227 0.00840293 -0.00406687
0.00892354 -0.00883294 0.00427499
0.00328164 -0.022661 0.0109675
-0.00362634 -0.0277463 0.0134287
-0.00913525 -0.0221268 0.010709
-0.0111197 -0.0079707 0.00385768
-0.00881411 0.0092606 -0.00448197
-0.00310795 0.0229191 -0.0110924
