# vtk DataFile Version 3.0
Velocity field
ASCII
DATASET STRUCTURED_POINTS
DIMENSIONS 8 8 8
SPACING 0.8 0.8 0.8
ORIGIN 0 0 0
POINT_DATA 512
VECTORS velocity float
0 0.195381 0
0 0.136123 0
0 -0.00570503 0
0 -0.144073 0
0 -0.195048 0
0 -0.127709 0
0 0.0170957 0
0 0.151531 0
0 0.0768654 0.199415
0 0.0535527 0.147303
0 -0.00224444 -0.00617359
0 -0.0566801 -0.155905
0 -0.0767344 -0.211067
0 -0.0502426 -0.138198
0 0.00672566 0.0184997
0 0.0596142 0.15466
0 -0.0882755 0.277868
0 -0.0615021 0.205254
0 0.0025776 -0.00860236
0 0.0650938 -0.217241
0 0.088125 -0.294104
0 0.0577007 -0.192567
0 -0.00772403 0.0257778
0 -0.0684635 0.215505
0 -0.19987 0.18777
0 -0.139251 0.138701
0 0.00583611 -0.00581305
0 0.147383 -0.146801
0 0.199529 -0.198741
0 0.130644 -0.130128
0 -0.0174884 0.0174194
0 -0.155012 0.145628
0 -0.190226 -0.0162272
0 -0.132531 -0.0119866
0 0.0055545 0.00050237
0 0.140271 0.0126866
0 0.189901 0.0171754
0 0.12434 0.0112458
0 -0.0166446 -0.0015054
0 -0.147533 -0.0125853
0 -0.0651932 -0.210381
0 -0.0454206 -0.155403
0 0.00190361 0.00651307
0 0.0480731 0.164478
0 0.0650821 0.222673
0 0.0426131 0.145798
0 -0.00570435 -0.019517
0 -0.0505616 -0.163164
0 0.0993846 -0.27692
0 0.0692419 -0.204554
0 -0.00290198 0.00857302
0 -0.0732856 0.2165
0 -0.0992151 0.293101
0 -0.0649621 0.191911
0 0.00869607 -0.0256899
0 0.0770793 -0.21477
0 0.203677 -0.175484
0 0.141903 -0.122261
0 -0.00594727 0.00512404
0 -0.15019 0.129401
0 -0.20333 0.175184
0 -0.133132 0.114704
0 0.0178216 -0.0153547
0 0.157965 -0.136099
0 0.136123 0
0 0.102966 0
0 -0.00431539 0
0 -0.108979 0
0 -0.147537 0
0 -0.0966016 0
0 0.0129315 0
0 0.105572 0
0.0425089 0.0535527 0.196968
0.103445 0.0379846 0.139571
0.100925 -0.00159221 -0.00585041
0.0371814 -0.0402086 -0.147742
-0.0491165 -0.0544351 -0.200015
-0.105621 -0.0356418 -0.130962
-0.098054 0.00476704 0.0175166
-0.030501 0.0415336 0.152762
0.0592324 -0.0615021 0.274458
0.144143 -0.0435569 0.19448
0.140631 0.00182576 -0.00815201
0.0518087 0.0461064 -0.205864
-0.0684401 0.0624194 -0.278705
-0.147174 0.0408697 -0.182484
-0.136631 -0.00546666 0.0244079
-0.0425005 -0.0476989 0.21286
0.0400264 -0.139251 0.185465
0.0974042 -0.0986197 0.13142
0.0950321 0.00413385 -0.00550874
0.0350098 0.104393 -0.139114
-0.0462484 0.141328 -0.188335
-0.0994526 0.0925364 -0.123314
-0.0923283 -0.0123774 0.0164937
-0.0287197 -0.107998 0.143841
-0.00345912 -0.132531 -0.0160281
-0.00841784 -0.0938613 -0.0113575
-0.00821275 0.00393437 0.00047607
-0.00302558 0.0993555 0.0120224
0.00399682 0.13451 0.016276
0.00859487 0.0880717 0.0106569
0.00797907 -0.0117802 -0.0014254
0.00248199 -0.102787 -0.0124308
-0.0448464 -0.0454206 -0.207799
-0.109134 -0.0321679 -0.147246
-0.106475 0.00134837 0.00617209
-0.0392258 0.0340509 0.155866
0.0518173 0.0460984 0.211013
0.11143 0.0301834 0.138164
0.103446 -0.00403727 -0.0184799
0.0321782 -0.0352266 -0.161162
-0.0590304 0.0692419 -0.273522
-0.143643 0.0490294 -0.193805
-0.140143 -0.00205516 0.00812374
-0.0516291 -0.0518994 0.20515
0.0682027 -0.070262 0.277737
0.146663 -0.0460047 0.181851
0.136157 0.00615357 -0.0243234
0.0423555 0.0537016 -0.212134
-0.0374074 0.141903 -0.17333
-0.0895314 0.0988648 -0.12076
-0.0873469 -0.00414351 0.00506116
-0.0321788 -0.104638 0.127813
0.0425084 -0.141661 0.173035
0.0914106 -0.0927541 0.113296
0.0848644 0.0124164 -0.0151662
0.0268406 0.110055 -0.134429
0 -0.00570503 0
0 -0.00431539 0
0 0.000180861 0
0 0.0045674 0
0 0.00618341 0
0 0.00404865 0
0 -0.000541968 0
0 -0.00442463 0
0.0592324 -0.00224444 0.0750426
0.144143 -0.00159221 0.053154
0.140631 6.67416e-05 -0.00222805
0.0518087 0.00168544 -0.0562658
-0.0684401 0.00228177 -0.0761729
-0.147174 0.00149402 -0.049875
-0.136631 -0.000199819 0.0066711
-0.0425005 -0.00174071 0.0582005
0.0825353 0.0025776 0.104565
0.20085 0.00182576 0.0740655
0.195956 -7.653e-05 -0.00310458
0.0721913 -0.00193263 -0.078401
-0.0953654 -0.00261643 -0.10614
-0.205073 -0.00171314 -0.0694972
-0.190383 0.000229143 0.00929562
-0.0592207 0.0019991 0.0810973
0.0557733 0.00583611 0.0706602
0.135726 0.00413385 0.0500496
0.132419 -0.000173278 -0.00209794
0.0487831 -0.00437583 -0.0529796
-0.064443 -0.00592409 -0.0717246
-0.13858 -0.00387883 -0.0469627
-0.128651 0.00051882 0.00628151
-0.0400185 0.00452628 0.0548016
-0.00481999 0.0055545 -0.00610652
-0.0117295 0.00393437 -0.00432537
-0.0114437 -0.000164917 0.000181306
-0.00421592 -0.00416471 0.00457856
0.00556925 -0.00563825 0.0061985
0.0119762 -0.00369169 0.00405855
0.0111182 0.000493784 -0.000542857
0.00345844 0.00430788 -0.00473601
-0.0624895 0.00190361 -0.0791691
-0.152069 0.00134837 -0.0560769
-0.148364 -5.65199e-05 0.00235057
-0.054658 -0.00142731 0.0593591
0.0722033 -0.0019323 0.0803619
0.155267 -0.00126519 0.0526175
0.144143 0.000169228 -0.00703797
0.0448375 0.00147638 -0.0614009
-0.0822538 -0.00290198 -0.104209
-0.200153 -0.00205516 -0.0738085
-0.195277 8.61457e-05 0.00309382
-0.0719409 0.00217547 0.0781292
0.0950343 0.00294517 0.105772
0.204362 0.00192838 0.0692559
0.189722 -0.000257936 -0.00926341
0.0590188 -0.00225068 -0.0808208
-0.052124 -0.00594727 -0.0660368
-0.124754 -0.00414351 -0.0460083
-0.12171 0.000173658 0.00192825
-0.0448384 0.00438548 0.0486951
0.0592318 0.00593713 0.0659242
0.127373 0.0038874 0.0431645
0.118251 -0.000520382 -0.00577817
0.0374 -0.0046125 -0.0512159
0 -0.144073 0
0 -0.108979 0
0 0.0045674 0
0 0.115343 0
0 0.156154 0
0 0.102243 0
0 -0.0136866 0
0 -0.111738 0
0.0400264 -0.0566801 -0.0924027
0.0974042 -0.0402086 -0.0654502
0.0950321 0.00168544 0.00274347
0.0350098 0.0425628 0.0692818
-0.0462484 0.0576224 0.0937945
-0.0994526 0.0377286 0.0614125
-0.0923283 -0.0050461 -0.00821435
-0.0287197 -0.0439591 -0.0716644
0.0557733 0.0650938 -0.128755
0.135726 0.0461064 -0.0911991
0.132419 -0.00193263 0.00382276
0.0487831 -0.0488052 0.0965381
-0.064443 -0.0660737 0.130694
-0.13858 -0.0432624 0.0855732
-0.128651 0.00578661 -0.011446
-0.0400185 0.0504845 -0.0998581
0.0376889 0.147383 -0.0870065
0.0917165 0.104393 -0.0616277
0.0894823 -0.00437583 0.00258324
0.0329655 -0.110505 0.0652355
-0.0435475 -0.149603 0.088317
-0.0936453 -0.0979531 0.0578266
-0.0869364 0.0131019 -0.0077346
-0.0270425 0.114305 -0.0674793
-0.00325711 0.140271 0.00751919
-0.0079262 0.0993555 0.00532594
-0.00773308 -0.00416471 -0.000223248
-0.00284892 -0.105172 -0.00563773
0.00376339 -0.142383 -0.00763239
0.00809289 -0.0932274 -0.00499741
0.00751308 0.0124697 0.000668433
0.00233704 0.10879 0.00583162
-0.0422274 0.0480731 0.0974838
-0.10276 0.0340509 0.0690492
-0.100257 -0.00142731 -0.00289432
-0.0369352 -0.0360441 -0.0730911
0.0487912 -0.0487968 -0.0989514
0.104921 -0.0319503 -0.0647897
0.0974045 0.00427357 0.00866605
0.030299 0.0372838 0.0756051
-0.0555831 -0.0732856 0.128316
-0.135255 -0.0518994 0.0908829
-0.13196 0.00217547 -0.0038095
-0.0486139 0.0549374 -0.096203
0.0642195 0.0743752 -0.130241
0.138099 0.0486976 -0.0852765
0.128205 -0.00651373 0.0114063
0.039882 -0.0568378 0.0995176
-0.0352229 -0.15019 0.0813136
-0.0843029 -0.104638 0.0566517
-0.0822459 0.00438548 -0.00237432
-0.0302996 0.110749 -0.0599601
0.0400259 0.149934 -0.0811749
0.0860723 0.0981708 -0.0531501
0.0799084 -0.0131415 0.00711487
0.0252731 -0.116482 0.063064
0 -0.195048 0
0 -0.147537 0
0 0.00618341 0
0 0.156154 0
0 0.211403 0
0 0.138418 0
0 -0.0185292 0
0 -0.151272 0
-0.00345912 -0.0767344 -0.203798
-0.00841784 -0.0544351 -0.144352
-0.00821275 0.00228177 0.00605081
-0.00302558 0.0576224 0.152802
0.00399682 0.0780098 0.206866
0.00859487 0.0510775 0.135449
0.00797907 -0.00683149 -0.018117
0.00248199 -0.0595125 -0.158059
-0.00481999 0.088125 -0.283975
-0.0117295 0.0624194 -0.201142
-0.0114437 -0.00261643 0.0084313
-0.00421592 -0.0660737 0.212917
0.00556925 -0.0894516 0.288251
0.0119762 -0.0585695 0.188736
0.0111182 0.00783398 -0.0252445
0.00345844 0.0683467 -0.220241
-0.00325711 0.199529 -0.191896
-0.0079262 0.141328 -0.135923
-0.00773308 -0.00592409 0.00569748
-0.00284892 -0.149603 0.143879
0.00376339 -0.202533 0.194785
0.00809289 -0.132611 0.127538
0.00751308 0.0177375 -0.017059
0.00233704 0.154748 -0.148828
0.000281483 0.189901 0.0165839
0.000684994 0.13451 0.0117466
0.000668303 -0.00563825 -0.000492377
0.000246204 -0.142383 -0.0124341
-0.000325237 -0.192762 -0.0168337
-0.000699399 -0.126212 -0.011022
-0.000649289 0.0168817 0.00147426
-0.00020197 0.147281 0.0128619
0.00364933 0.0650821 0.215004
0.00888069 0.0460984 0.15229
0.00866439 -0.0019323 -0.0063835
0.00319195 -0.0487968 -0.161204
-0.00421662 -0.0660624 -0.218242
-0.00906745 -0.0432549 -0.142896
-0.00841788 0.00578562 0.0191132
-0.00261847 0.0504754 0.16675
0.00480355 -0.0992151 0.283006
0.0116889 -0.070262 0.200445
0.0114041 0.00294517 -0.00840208
0.0042013 0.0743752 -0.212179
-0.00554993 0.10069 -0.287251
-0.0119346 0.065928 -0.188081
-0.0110796 -0.00881837 0.025157
-0.00344664 -0.0769478 0.21949
0.00304399 -0.20333 0.17934
0.00728554 -0.141661 0.124947
0.00710777 0.00593713 -0.00523665
0.00261852 0.149934 -0.132244
-0.00345908 0.202983 -0.179034
-0.00743846 0.132905 -0.117225
-0.00690576 -0.0177912 0.0156921
-0.00218413 -0.157696 0.13909
0 -0.127709 0
0 -0.0966017 0
0 0.00404865 0
0 0.102243 0
0 0.138418 0
0 0.0906307 0
0 -0.0121322 0
0 -0.0990471 0
-0.0448464 -0.0502426 -0.191572
-0.109134 -0.0356418 -0.135693
-0.106475 0.00149402 0.00568785
-0.0392258 0.0377286 0.143636
0.0518173 0.0510775 0.194456
0.11143 0.0334438 0.127322
0.103446 -0.00447298 -0.0170302
0.0321782 -0.0389664 -0.148577
-0.0624895 0.0577007 -0.266939
-0.152069 0.0408697 -0.189076
-0.148364 -0.00171314 0.00792547
-0.054658 -0.0432624 0.200144
0.0722033 -0.0585695 0.270959
0.155267 -0.0383487 0.177414
0.144143 0.00512938 -0.0237301
0.0448375 0.0447507 -0.207029
-0.0422274 0.130644 -0.180384
-0.10276 0.0925364 -0.127768
-0.100257 -0.00387883 0.00535565
-0.0369352 -0.0979531 0.135248
0.0487912 -0.132611 0.183101
0.104921 -0.0868285 0.119886
0.0974045 0.0116139 -0.0160356
0.030299 0.101323 -0.1399
0.00364933 0.12434 0.015589
0.00888069 0.0880717 0.0110419
0.00866439 -0.00369169 -0.00046284
0.00319195 -0.0932274 -0.0116883
-0.00421662 -0.126212 -0.0158237
-0.00906745 -0.0826385 -0.0103607
-0.00841788 0.0110535 0.00138582
-0.00261847 0.0964337 0.0120903
0.0473124 0.0426131 0.202106
0.115136 0.0301834 0.143154
0.112331 -0.00126519 -0.00600062
0.0413827 -0.0319503 -0.151534
-0.054667 -0.0432549 -0.205148
-0.117557 -0.0283216 -0.134324
-0.109135 0.00378818 0.0179666
-0.0339476 0.0330493 0.156747
0.0622764 -0.0649621 0.266028
0.151541 -0.0460047 0.18842
0.147849 0.00192838 -0.00789799
0.0544684 0.0486976 -0.19945
-0.0719528 0.065928 -0.27002
-0.154728 0.043167 -0.176798
-0.143643 -0.00577392 0.0236479
-0.0446846 -0.0503824 0.206323
0.0394644 -0.133132 0.168581
0.0944546 -0.0927541 0.117452
0.0921499 0.0038874 -0.0049225
0.0339483 0.0981708 -0.124311
-0.0448459 0.132905 -0.168294
-0.0964372 0.087021 -0.110192
-0.089531 -0.011649 0.0147507
-0.0283165 -0.103253 0.130746
0 0.0170957 0
0 0.0129315 0
0 -0.000541968 0
0 -0.0136866 0
0 -0.0185292 0
0 -0.0121322 0
0 0.00162406 0
0 0.0132588 0
-0.0590304 0.00672566 -0.063141
-0.143643 0.00476698 -0.0447303
-0.140143 -0.000199817 0.00187495
-0.0516291 -0.00504603 0.0473489
0.0682027 -0.0068314 0.0641013
0.146663 -0.00447292 0.041971
0.136157 0.00059828 -0.00561384
0.0423555 0.00521619 -0.04897
-0.0822538 -0.00772403 -0.0879815
-0.200153 -0.00546659 -0.0623277
-0.195277 0.00022914 0.00261258
-0.0719409 0.00578654 0.0659765
0.0950343 0.00783387 0.08932
0.204362 0.00512931 0.0584834
0.189722 -0.000686119 -0.00782239
0.0590188 -0.0059905 -0.0682354
-0.0555831 -0.0174884 -0.0594536
-0.135255 -0.0123773 -0.042118
-0.13196 0.000518813 0.00176546
-0.0486139 0.0131017 0.0445837
0.0642195 0.0177373 0.0603578
0.138099 0.0116137 0.0395201
0.128205 -0.00155349 -0.00528598
0.039882 -0.0135634 -0.0461102
0.00480355 -0.0166446 0.00513804
0.0116889 -0.0117801 0.00363988
0.0114041 0.000493778 -0.000152573
0.0042013 0.0124695 -0.00385296
-0.00554994 0.0168815 -0.00521619
-0.0119346 0.0110533 -0.00341536
-0.0110796 -0.00147854 0.000456822
-0.00344664 -0.012909 0.00398489
0.0622764 -0.00570435 0.066613
0.151541 -0.00403722 0.0471899
0.147849 0.000169225 -0.00197805
0.0544684 0.00427351 -0.0499523
-0.0719528 0.00578554 -0.0676264
-0.154728 0.00378813 -0.0442791
-0.143643 -0.000506717 0.00592255
-0.0446846 -0.0044241 0.0516628
0.0819733 0.00869607 0.0876814
0.199459 0.00615349 0.0621116
0.194599 -0.000257932 -0.00260352
0.0716914 -0.00651364 -0.0657476
-0.0947043 -0.00881824 -0.0890102
-0.203653 -0.00577385 -0.0582803
-0.189064 0.000772344 0.0077953
-0.0588175 0.00674437 0.0680027
0.0519462 0.0178216 0.0555635
0.124329 0.0124164 0.0387114
0.121295 -0.000520382 -0.00162243
0.0446855 -0.0131415 -0.0409722
-0.0590298 -0.0177912 -0.0554687
-0.126938 -0.011649 -0.0363187
-0.117848 0.00155937 0.00486176
-0.0372725 0.0138218 0.0430931
0 0.151531 0
0 0.105572 0
0 -0.00442463 0
0 -0.111738 0
0 -0.151272 0
0 -0.0990471 0
0 0.0132588 0
0 0.117522 0
-0.0374074 0.0596142 0.10359
-0.0895314 0.0415336 0.0721721
-0.0873468 -0.00174071 -0.00302479
-0.0321788 -0.0439591 -0.0763869
0.0425084 -0.0595125 -0.103414
0.0914106 -0.0389664 -0.0677111
0.0848644 0.00521619 0.00906407
0.0268406 0.0462347 0.0803411
-0.052124 -0.0684635 0.144344
-0.124754 -0.0476989 0.100566
-0.12171 0.0019991 -0.00421478
-0.0448384 0.0504845 -0.106438
0.0592318 0.0683467 -0.144098
0.127373 0.0447507 -0.0943496
0.118251 -0.0059905 0.01263
0.0374 -0.0530979 0.111948
-0.0352229 -0.155012 0.0975407
-0.0843028 -0.107998 0.0679573
-0.0822459 0.00452628 -0.00284814
-0.0302996 0.114305 -0.0719259
0.0400259 0.154748 -0.0973744
0.0860723 0.101323 -0.0637569
0.0799084 -0.0135634 0.00853473
0.0252731 -0.120222 0.0756493
0.00304399 -0.147533 -0.00842957
0.00728553 -0.102787 -0.00587294
0.00710777 0.00430788 0.00024614
0.00261852 0.10879 0.00621591
-0.00345908 0.147281 0.00841519
-0.00743845 0.0964337 0.00550993
-0.00690576 -0.012909 -0.00073758
-0.00218413 -0.114421 -0.00653768
0.0394644 -0.0505616 -0.109287
0.0944546 -0.0352266 -0.0761407
0.0921499 0.00147638 0.00319112
0.0339483 0.0372838 0.0805873
-0.0448459 0.0504754 0.1091
-0.0964371 0.0330493 0.0714345
-0.089531 -0.0044241 -0.00956249
-0.0283165 -0.0392139 -0.084759
0.0519462 0.0770793 -0.143852
0.124329 0.0537016 -0.100223
0.121295 -0.00225068 0.00420041
0.0446855 -0.0568378 0.106075
-0.0590298 -0.0769478 0.143607
-0.126938 -0.0503824 0.0940278
-0.117848 0.00674437 -0.0125869
-0.0372725 0.05978 -0.111567
0.0329182 0.157965 -0.0911585
0.0787868 0.110055 -0.0635108
0.0768644 -0.0046125 0.00266179
0.0283171 -0.116482 0.0672197
-0.037407 -0.157696 0.0910031
-0.0804405 -0.103253 0.0595852
-0.0746799 0.0138218 -0.00797629
-0.0236195 0.122512 -0.0706994
