# vtk DataFile Version 3.0
Velocity field
ASCII
DATASET STRUCTURED_POINTS
DIMENSIONS 8 8 8
SPACING 0.8 0.8 0.8
ORIGIN 0 0 0
POINT_DATA 512
VECTORS velocity float
0 0.343777 0
0 0.239512 0
0 -0.0100381 0
0 -0.253499 0
0 -0.343191 0
0 -0.224708 0
0 0.0300802 0
0 0.266622 0
0 0.135247 0.350876
0 0.0942272 0.259183
0 -0.00394914 -0.0108626
0 -0.09973 -0.274319
0 -0.135016 -0.371378
0 -0.0884031 -0.243163
0 0.011834 0.0325507
0 0.104893 0.272128
0 -0.155323 0.488916
0 -0.108215 0.361149
0 0.00453536 -0.0151361
0 0.114534 -0.38224
0 0.155058 -0.517483
0 0.101526 -0.338827
0 -0.0135906 0.0453566
0 -0.120463 0.379186
0 -0.351676 0.330385
0 -0.245015 0.244047
0 0.0102688 -0.0102282
0 0.259323 -0.258299
0 0.351076 -0.349689
0 0.229871 -0.228963
0 -0.0307713 0.0306498
0 -0.272748 0.256236
0 -0.334707 -0.0285522
0 -0.233192 -0.0210908
0 0.00977328 0.000883932
0 0.246811 0.0223225
0 0.334136 0.0302205
0 0.218779 0.0197872
0 -0.0292866 -0.00264879
0 -0.259587 -0.0221441
0 -0.114709 -0.37017
0 -0.0799186 -0.273435
0 0.00334945 0.0114599
0 0.0845858 0.289404
0 0.114513 0.391799
0 0.0749789 0.256534
0 -0.0100369 -0.0343406
0 -0.0889644 -0.287092
0 0.17487 -0.487248
0 0.121833 -0.359918
0 -0.00510611 0.0150844
0 -0.128948 0.380937
0 -0.174571 0.515717
0 -0.114302 0.337671
0 0.0153009 -0.0452019
0 0.135623 -0.377893
0 0.358375 -0.308768
0 0.249682 -0.215121
0 -0.0104644 0.00901588
0 -0.264263 0.227683
0 -0.357763 0.308241
0 -0.234249 0.201824
0 0.0313575 -0.0270169
0 0.277943 -0.23947
0 0.239512 0
0 0.181171 0
0 -0.00759303 0
0 -0.191751 0
0 -0.259596 0
0 -0.169973 0
0 0.0227532 0
0 0.185757 0
0.0747954 0.0942272 0.34657
0.184363 0.0677187 0.248738
0.179886 -0.00283959 -0.01043
0.0662707 -0.0717044 -0.263376
-0.0875434 -0.0970748 -0.356561
-0.188256 -0.0635606 -0.233462
-0.174757 0.00848601 0.031172
-0.0536672 0.0730794 0.268788
0.104221 -0.108215 0.482915
0.256894 -0.07759 0.346596
0.250655 0.00325336 -0.0145332
0.0923424 0.082154 -0.366991
-0.121985 0.111221 -0.496839
-0.262318 0.072823 -0.32531
-0.24351 -0.00972433 0.0434354
-0.0747806 -0.0839275 0.374533
0.0704274 -0.245015 0.326331
0.173596 -0.175677 0.234212
0.169381 0.00736637 -0.00982086
0.0624003 0.186014 -0.247995
-0.0824313 0.251827 -0.335739
-0.177261 0.164888 -0.219827
-0.164552 -0.0220178 0.0293515
-0.0505331 -0.190025 0.253091
-0.00608641 -0.233192 -0.0282018
-0.0150024 -0.167202 -0.0202409
-0.014638 0.00701088 0.000848722
-0.0053927 0.177037 0.021432
0.00712374 0.239678 0.0290147
0.0153191 0.156932 0.0189977
0.0142206 -0.0209554 -0.00253659
0.00436712 -0.180856 -0.0218724
-0.0789083 -0.0799186 -0.365628
-0.194499 -0.0573032 -0.262416
-0.189778 0.00240276 0.0110035
-0.0699136 0.0606743 0.277854
0.0923576 0.0821415 0.376169
0.198604 0.0537826 0.2463
0.184367 -0.00718177 -0.0328861
0.0566183 -0.0619821 -0.283568
-0.103865 0.121833 -0.481269
-0.255972 0.0873063 -0.345353
-0.249755 -0.00366077 0.014481
-0.0920108 -0.0924409 0.365672
0.121547 -0.125147 0.495053
0.261374 -0.0819424 0.324141
0.242636 0.0109427 -0.0432804
0.0745256 0.0944893 -0.373255
-0.0658193 0.249682 -0.304979
-0.157533 0.173955 -0.212481
-0.153689 -0.0072906 0.00890523
-0.0566195 -0.184114 0.224889
0.0747946 -0.249256 0.304458
0.160839 -0.163203 0.199347
0.149321 0.021847 -0.0266854
0.0472267 0.193645 -0.236531
0 -0.0100381 0
0 -0.00759303 0
0 0.00031823 0
0 0.00803645 0
0 0.0108799 0
0 0.00712371 0
0 -0.000953606 0
0 -0.00778524 0
0.104221 -0.00394914 0.132039
0.256894 -0.00283959 0.0947141
0.250655 0.000119072 -0.00397147
0.0923424 0.00300678 -0.100285
-0.121985 0.00407059 -0.135768
-0.262318 0.00266528 -0.0888965
-0.24351 -0.000355816 0.01187
-0.0747806 -0.00306282 0.102405
0.145223 0.00453536 0.183985
0.357959 0.00325336 0.131975
0.349265 -0.000136417 -0.00553388
0.128671 -0.00344478 -0.139739
-0.169976 -0.00466361 -0.189184
-0.365516 -0.00305356 -0.12387
-0.339311 0.000407723 0.0165397
-0.1042 0.00351747 0.142693
0.0981345 0.0102688 0.124328
0.241892 0.00736637 0.0891822
0.236017 -0.00030888 -0.00373954
0.0869491 -0.00779978 -0.0944304
-0.11486 -0.0105595 -0.127841
-0.246999 -0.00691385 -0.0837055
-0.229288 0.000923173 0.0111767
-0.0704135 0.00796411 0.0964248
-0.00848088 0.00977328 -0.0107446
-0.0209045 0.00701088 -0.00770725
-0.0203969 -0.000293975 0.000323175
-0.00751426 -0.00742343 0.00816073
0.00992638 -0.01005 0.0110481
0.0213459 -0.00658025 0.00723385
0.0198154 0.000878623 -0.000965905
0.0060852 0.00757982 -0.00833313
-0.109952 0.00334945 -0.1393
-0.271016 0.00240276 -0.0999208
-0.264439 -0.00010075 0.00418985
-0.0974191 -0.00254414 0.105799
0.128692 -0.00344425 0.143234
0.276737 -0.00225516 0.0937852
0.2569 0.00030112 -0.0125225
0.0788927 0.00259772 -0.108036
-0.144728 -0.00510611 -0.183358
-0.356674 -0.00366077 -0.131501
-0.348011 0.000153498 0.00551402
-0.128209 0.00387611 0.139237
0.169365 0.00524755 0.188503
0.364204 0.00343587 0.123425
0.338092 -0.000458809 -0.0164806
0.103845 -0.00396013 -0.142206
-0.0917135 -0.0104644 -0.116193
-0.219508 -0.0072906 -0.0809527
-0.214152 0.000305555 0.00339279
-0.0788943 0.00771637 0.0856803
0.10422 0.0104465 0.115995
0.224116 0.00683997 0.0759491
0.208066 -0.000915624 -0.0101668
0.0658062 -0.00811581 -0.0901156
0 -0.253499 0
0 -0.191751 0
0 0.00803645 0
0 0.202949 0
0 0.274756 0
0 0.179899 0
0 -0.024082 0
0 -0.196605 0
0.0704274 -0.09973 -0.162585
0.173596 -0.0717044 -0.116623
0.169381 0.00300678 0.00489013
0.0624003 0.0759254 0.123485
-0.0824313 0.102789 0.167176
-0.177261 0.0673022 0.109459
-0.164552 -0.00898502 -0.0146156
-0.0505331 -0.0773472 -0.126095
0.0981345 0.114534 -0.226548
0.241892 0.082154 -0.162504
0.236017 -0.00344478 0.00681391
0.0869491 -0.0869873 0.172066
-0.11486 -0.117765 0.232943
-0.246999 -0.0771078 0.152522
-0.229288 0.0102959 -0.0203656
-0.0704135 0.0888288 -0.175703
0.0663145 0.259323 -0.15309
0.163458 0.186014 -0.109811
0.159489 -0.00779978 0.00460451
0.0587561 -0.196956 0.116273
-0.077617 -0.266646 0.157412
-0.16691 -0.174588 0.103066
-0.154942 0.0233121 -0.013762
-0.047582 0.201122 -0.118731
-0.00573097 0.246811 0.0132302
-0.0141261 0.177037 0.00949006
-0.013783 -0.00742343 -0.000397927
-0.00507779 -0.187455 -0.0100484
0.00670767 -0.253779 -0.0136036
0.0144244 -0.166165 -0.00890711
0.0133901 0.0221871 0.00118933
0.00411208 0.191418 0.0102609
-0.0743001 0.0845858 0.171525
-0.183142 0.0606743 0.123035
-0.178694 -0.00254414 -0.00515903
-0.0658318 -0.0642441 -0.130275
0.0869634 -0.0869741 -0.176367
0.187009 -0.0569472 -0.115478
0.173599 0.00760393 0.0154193
0.0533118 0.0656018 0.133029
-0.0977998 -0.128948 0.225775
-0.241023 -0.0924409 0.161921
-0.235169 0.00387611 -0.00678944
-0.086637 0.0978781 -0.171448
0.114448 0.13251 -0.232107
0.246111 0.0867619 -0.151974
0.228464 -0.0115858 0.020293
0.0701733 -0.100007 0.175104
-0.0619755 -0.264263 0.143073
-0.148333 -0.184114 0.0996801
-0.144714 0.00771637 -0.00417767
-0.0533129 0.194866 -0.105501
0.0704266 0.263813 -0.142829
0.151446 0.172734 -0.0935189
0.140601 -0.0231228 0.0125188
0.0444687 -0.204954 0.110963
0 -0.343191 0
0 -0.259596 0
0 0.0108799 0
0 0.274756 0
0 0.371969 0
0 0.24355 0
0 -0.0326026 0
0 -0.266167 0
-0.00608641 -0.135016 -0.358587
-0.0150024 -0.0970747 -0.257215
-0.014638 0.00407059 0.0107854
-0.0053927 0.102789 0.272346
0.00712374 0.139156 0.368712
0.0153191 0.0911152 0.241418
0.0142206 -0.0121641 -0.0322354
0.00436712 -0.104714 -0.278108
-0.00848088 0.155058 -0.49966
-0.0209045 0.111221 -0.358407
-0.0203969 -0.00466361 0.0150285
-0.00751426 -0.117765 0.379498
0.00992638 -0.159432 0.513768
0.0213459 -0.104389 0.336396
0.0198154 0.0139387 -0.0449172
0.0060852 0.120258 -0.387519
-0.00573097 0.351076 -0.337646
-0.0141261 0.251827 -0.242196
-0.013783 -0.0105595 0.0101555
-0.00507778 -0.266646 0.256445
0.00670767 -0.360988 0.347177
0.0144244 -0.236361 0.227318
0.0133901 0.0315601 -0.0303529
0.00411208 0.272283 -0.261867
0.000495276 0.334136 0.0291797
0.0012208 0.239678 0.0209307
0.00119115 -0.01005 -0.00087764
0.000438822 -0.253779 -0.0221621
-0.000579688 -0.343572 -0.0300035
-0.00124658 -0.224954 -0.0196451
-0.00115719 0.0300373 0.00262312
-0.00035537 0.259144 0.0226308
0.00642109 0.114513 0.378305
0.0158273 0.0821415 0.271357
0.015443 -0.00344425 -0.0113784
0.00568923 -0.0869741 -0.287322
-0.0075155 -0.117747 -0.388983
-0.0161615 -0.0770961 -0.254693
-0.0150027 0.0102943 0.0340076
-0.00460726 0.0888127 0.293401
0.00845196 -0.174571 0.497956
0.0208295 -0.125147 0.357121
0.0203236 0.00524755 -0.0149745
0.00748729 0.13251 -0.378133
-0.00989074 0.179394 -0.511924
-0.0212691 0.11746 -0.335188
-0.0197442 -0.015685 0.0447569
-0.00606445 -0.135392 0.386198
0.00535598 -0.357763 0.315553
0.0128191 -0.249256 0.219848
0.0125063 0.0104465 -0.00921402
0.00460736 0.263813 -0.232687
-0.00608634 0.357153 -0.315015
-0.0130881 0.23385 -0.206259
-0.0121509 -0.031304 0.0276107
-0.00384303 -0.277469 0.244732
0 -0.224708 0
0 -0.169973 0
0 0.00712371 0
0 0.179899 0
0 0.24355 0
0 0.159467 0
0 -0.0213469 0
0 -0.174276 0
-0.0789083 -0.0884031 -0.337075
-0.194499 -0.0635606 -0.241786
-0.189778 0.00266528 0.0101384
-0.0699136 0.0673022 0.256012
0.0923576 0.0911152 0.346591
0.198604 0.0596586 0.226934
0.184367 -0.00796457 -0.0303016
0.0566183 -0.0685624 -0.261424
-0.109952 0.101526 -0.469685
-0.271016 0.072823 -0.336908
-0.264439 -0.00305356 0.0141268
-0.0974192 -0.0771078 0.35673
0.128692 -0.104389 0.482947
0.276737 -0.0683497 0.316215
0.2569 0.00912651 -0.0422226
0.0788927 0.0787399 -0.364272
-0.0743001 0.229871 -0.31739
-0.183142 0.164888 -0.227665
-0.178694 -0.00691385 0.00954625
-0.0658318 -0.174588 0.241061
0.0869634 -0.236361 0.326352
0.187009 -0.15476 0.21368
0.173599 0.0206643 -0.0285319
0.0533118 0.17828 -0.246157
0.00642109 0.218779 0.0274292
0.0158273 0.156932 0.0196751
0.015443 -0.00658025 -0.00082499
0.00568923 -0.166165 -0.0208327
-0.0075155 -0.224954 -0.0282034
-0.0161615 -0.147291 -0.0184665
-0.0150027 0.0196673 0.00246576
-0.00460726 0.169677 0.0212731
0.0832474 0.0749789 0.355611
0.205193 0.0537826 0.25508
0.20021 -0.00225516 -0.0106959
0.0737582 -0.0569472 -0.270087
-0.0974351 -0.0770961 -0.36565
-0.209525 -0.0504791 -0.239414
-0.194503 0.00674026 0.0319678
-0.0597317 0.058151 0.275799
0.109577 -0.114302 0.468084
0.270043 -0.0819424 0.335699
0.263487 0.00343587 -0.0140761
0.0970692 0.0867619 -0.355449
-0.12823 0.11746 -0.481213
-0.275743 0.0769084 -0.31508
-0.255978 -0.01027 0.0420718
-0.0786236 -0.088649 0.36303
0.0694386 -0.234249 0.296623
0.166195 -0.163203 0.206659
0.16214 0.00683997 -0.00866126
0.0597329 0.172734 -0.218728
-0.0789074 0.23385 -0.296117
-0.169684 0.153116 -0.193886
-0.157532 -0.0204966 0.0259543
-0.0498236 -0.181676 0.230051
0 0.0300802 0
0 0.0227532 0
0 -0.000953606 0
0 -0.024082 0
0 -0.0326025 0
0 -0.0213468 0
0 0.00285757 0
0 0.0233292 0
-0.103865 0.011834 -0.111098
-0.255972 0.00848582 -0.0797276
-0.249755 -0.000355808 0.00334311
-0.0920108 -0.00898482 0.0844197
0.121547 -0.0121638 0.114288
0.261374 -0.00796439 0.0748312
0.242636 0.00106364 -0.00999128
0.0745256 0.00917802 -0.0861639
-0.144728 -0.0135906 -0.154806
-0.356674 -0.0097241 -0.111094
-0.348011 0.000407713 0.00465832
-0.128209 0.0102956 0.117631
0.169365 0.0139383 0.159251
0.364204 0.00912629 0.104271
0.338092 -0.001219 -0.013922
0.103845 -0.0105404 -0.120062
-0.0977998 -0.0307713 -0.10461
-0.241023 -0.0220173 -0.0750715
-0.235169 0.000923151 0.00314788
-0.086637 0.0233115 0.0794893
0.114448 0.0315594 0.107613
0.246111 0.0206638 0.0704611
0.228464 -0.00276004 -0.00940778
0.0701733 -0.0238652 -0.081132
0.00845196 -0.0292866 0.0090405
0.0208295 -0.0209549 0.00648777
0.0203236 0.000878602 -0.000272041
0.00748729 0.0221866 -0.00686953
-0.00989074 0.0300366 -0.00930006
-0.0212691 0.0196668 -0.00608933
-0.0197442 -0.00262687 0.000813035
-0.00606445 -0.0227137 0.00701151
0.109577 -0.0100369 0.117207
0.270043 -0.00718161 0.0841119
0.263487 0.000301113 -0.00352692
0.0970693 0.00760374 -0.0890615
-0.12823 0.010294 -0.120573
-0.275743 0.0067401 -0.0789462
-0.255978 -0.000900273 0.0105407
-0.0786236 -0.00778431 0.0909019
0.144234 0.0153009 0.154278
0.355394 0.0109425 0.110695
0.346762 -0.000458798 -0.00464157
0.127749 -0.0115856 -0.117208
-0.168756 -0.0156847 -0.158678
-0.362896 -0.0102698 -0.103896
-0.336877 0.0013718 0.0138723
-0.103491 0.0118669 0.119652
0.0914007 0.0313575 0.0977653
0.21876 0.021847 0.0681137
0.213422 -0.000915624 -0.0028547
0.0786253 -0.0231228 -0.0720915
-0.103864 -0.031304 -0.0975986
-0.223351 -0.0204966 -0.0639036
-0.207356 0.00274375 0.00855438
-0.0655818 0.0243198 0.0758234
0 0.266622 0
0 0.185757 0
0 -0.00778524 0
0 -0.196605 0
0 -0.266167 0
0 -0.174276 0
0 0.0233292 0
0 0.206783 0
-0.0658193 0.104893 0.18227
-0.157533 0.0730794 0.126989
-0.153689 -0.00306282 -0.00532219
-0.0566195 -0.0773472 -0.134405
0.0747946 -0.104714 -0.181959
0.160839 -0.0685624 -0.119139
0.149321 0.00917802 0.0159484
0.0472267 0.0813512 0.141362
-0.0917135 -0.120463 0.253977
-0.219508 -0.0839275 0.176947
-0.214152 0.00351747 -0.00741601
-0.0788943 0.0888288 -0.187281
0.10422 0.120258 -0.253544
0.224116 0.07874 -0.16601
0.208066 -0.0105404 0.0222228
0.0658062 -0.0934271 0.196976
-0.0619755 -0.272748 0.171625
-0.148333 -0.190025 0.119572
-0.144714 0.00796411 -0.00501138
-0.0533129 0.201122 -0.126555
0.0704266 0.272283 -0.171333
0.151446 0.17828 -0.112182
0.140601 -0.0238652 0.0150171
0.0444687 -0.211534 0.133107
0.00535598 -0.259587 -0.014832
0.0128191 -0.180856 -0.0103336
0.0125063 0.00757982 0.000433088
0.00460736 0.191418 0.010937
-0.00608634 0.259144 0.0148067
-0.0130881 0.169677 0.00969486
-0.0121509 -0.0227137 -0.00129779
-0.00384303 -0.201327 -0.0115032
0.0694386 -0.0889644 -0.192292
0.166195 -0.0619821 -0.133971
0.16214 0.00259772 0.00561485
0.0597329 0.0656018 0.141795
-0.0789074 0.0888127 0.191965
-0.169684 0.058151 0.125691
-0.157532 -0.00778431 -0.0168254
-0.0498236 -0.0689978 -0.149135
0.0914007 0.135623 -0.253111
0.21876 0.0944893 -0.176344
0.213422 -0.00396013 0.00739072
0.0786253 -0.100007 0.186642
-0.103864 -0.135392 0.252679
-0.223351 -0.088649 0.165444
-0.207356 0.0118669 -0.022147
-0.0655818 0.105184 -0.196304
0.0579203 0.277943 -0.160396
0.138627 0.193645 -0.111749
0.135245 -0.00811581 0.00468348
0.0498246 -0.204954 0.118275
-0.0658185 -0.277469 0.160122
-0.141537 -0.181676 0.104842
-0.131401 0.0243198 -0.0140345
-0.041559 0.215563 -0.124397
