# vtk DataFile Version 3.0
Velocity field
ASCII
DATASET STRUCTURED_POINTS
DIMENSIONS 5 5 5
SPACING 1.33333 1.33333 1.33333
ORIGIN 0 0 0
POINT_DATA 125
VECTORS velocity float
0 0.0643706 0
0 0.0151424 0
0 -0.0572464 0
0 -0.0420754 0
0 0.037451 0
0 -0.0340858 0.111792
0 -0.00801826 0.0303075
0 0.0303134 -0.114579
0 0.02228 -0.084214
0 -0.0198312 0.0650412
0 -0.0804071 0.0525955
0 -0.0189148 0.0142589
0 0.0715081 -0.0539065
0 0.0525576 -0.0396206
0 -0.0467811 0.0306003
0 -0.00374374 -0.0870475
0 -0.000880668 -0.023599
0 0.00332941 0.0892172
0 0.00244707 0.0655735
0 -0.00217812 -0.0506445
0 0.0786457 -0.0935492
0 0.0185004 -0.0220063
0 -0.0699418 0.0831958
0 -0.0514063 0.0611478
0 0.0457564 -0.0544273
0 0.0151424 0
0 0.00453252 0
0 -0.0171354 0
0 -0.0125943 0
0 0.00880988 0
0.0478467 -0.00801826 0.0392595
0.0708534 -0.00189831 0.00930473
-0.0148493 0.0071768 -0.0351778
-0.0778395 0.00527487 -0.0258554
-0.0216199 -0.00466505 0.0228413
0.0225107 -0.0189148 0.0184706
0.0333348 -0.00448064 0.00437765
-0.00698622 0.0169396 -0.0165503
-0.0366217 0.0124505 -0.0121643
-0.0101716 -0.0110047 0.0107463
-0.037256 -0.000880668 -0.0305696
-0.0551697 -0.000208641 -0.00724512
0.0115624 0.000788798 0.0273911
0.0606096 0.000579759 0.0201323
0.0168344 -0.000512375 -0.0177855
-0.0400387 0.0185004 -0.0328528
-0.0588759 0.004352 -0.00772822
0.0123391 -0.0164529 0.0292169
0.0646812 -0.0120927 0.0214741
0.0180918 0.0107636 -0.0191139
0 -0.0572464 0
0 -0.0171354 0
0 0.0647812 0
0 0.0476134 0
0 -0.0333062 0
0.0225107 0.0303134 -0.0933217
0.0333348 0.0071768 -0.0221071
-0.00698622 -0.0271328 0.0835786
-0.0366217 -0.0199423 0.0614295
-0.0101716 0.0176364 -0.0542949
0.0105907 0.0715081 -0.0439055
0.0156831 0.0169396 -0.0104008
-0.00328685 -0.0640426 0.0393217
-0.0172295 -0.0470706 0.0289012
-0.00478551 0.0416037 -0.0255444
-0.017528 0.00332941 0.0726653
-0.0259561 0.000788798 0.0172136
0.00543983 -0.00298215 -0.0650786
0.0285154 -0.00219185 -0.047832
0.00792018 0.00193706 0.0422769
-0.0188372 -0.0699418 0.0780928
-0.0276997 -0.0164529 0.0183703
0.00580522 0.0622011 -0.06945
0.0304309 0.045717 -0.0510448
0.00851175 -0.0406924 0.0454346
0 -0.0420754 0
0 -0.0125943 0
0 0.0476134 0
0 0.0349952 0
0 -0.0244796 0
-0.037256 0.02228 -0.0831651
-0.0551697 0.00527487 -0.0197011
0.0115624 -0.0199423 0.0744829
0.0606096 -0.0146574 0.0547441
0.0168344 0.0129626 -0.0483858
-0.017528 0.0525576 -0.0391271
-0.0259561 0.0124505 -0.00926891
0.00543983 -0.0470706 0.0350423
0.0285154 -0.0345965 0.0257558
0.00792018 0.0305782 -0.0227643
0.0290095 0.00244707 0.0647568
0.042958 0.000579759 0.0153402
-0.00900306 -0.00219185 -0.057996
-0.0471937 -0.001611 -0.0426265
-0.0131082 0.00142371 0.0376757
0.0311763 -0.0514063 0.0695936
0.0458439 -0.0120927 0.016371
-0.00960785 0.045717 -0.0618914
-0.0503642 0.0336014 -0.0454894
-0.0140873 -0.0299084 0.0404898
0 0.037451 0
0 0.00880988 0
0 -0.0333062 0
0 -0.0244796 0
0 0.0217891 0
-0.0400387 -0.0198312 0.0541946
-0.0588759 -0.00466505 0.0127486
0.0123391 0.0176364 -0.0481967
0.0646811 0.0129626 -0.035424
0.0180918 -0.0115379 0.0315306
-0.0188372 -0.0467811 0.0254972
-0.0276997 -0.0110047 0.0059979
0.00580522 0.0416037 -0.0226754
0.0304309 0.0305782 -0.0166661
0.00851175 -0.0272174 0.0148344
0.0311763 -0.00217812 -0.0421988
0.0458439 -0.000512375 -0.00992674
-0.00960784 0.00193706 0.0375285
-0.0503642 0.00142371 0.027583
-0.0140873 -0.00126724 -0.0245514
0.0335049 0.0457564 -0.0453507
0.0492681 0.0107636 -0.0106682
-0.0103255 -0.0406924 0.0403316
-0.054126 -0.0299084 0.0296432
-0.0151395 0.0266212 -0.0263852
