# vtk DataFile Version 3.0
Velocity field
ASCII
DATASET STRUCTURED_POINTS
DIMENSIONS 5 5 5
SPACING 1.33333 1.33333 1.33333
ORIGIN 0 0 0
POINT_DATA 125
VECTORS velocity float
0 0.0776758 0
0 0.0182723 0
0 -0.0690792 0
0 -0.0507723 0
0 0.0451921 0
0 -0.0411313 0.1349
0 -0.00967562 0.036572
0 0.0365791 -0.138262
0 0.0268852 -0.101621
0 -0.0239303 0.0784851
0 -0.0970271 0.0634669
0 -0.0228244 0.0172062
0 0.0862888 -0.0650489
0 0.0634211 -0.0478101
0 -0.0564507 0.0369253
0 -0.00451756 -0.10504
0 -0.0010627 -0.0284769
0 0.00401759 0.107658
0 0.00295288 0.0791274
0 -0.00262833 -0.0611127
0 0.0949017 -0.112886
0 0.0223244 -0.0265549
0 -0.0843986 0.100392
0 -0.0620319 0.073787
0 0.0552141 -0.0656773
0 0.0182723 0
0 0.00546939 0
0 -0.0206773 0
0 -0.0151975 0
0 0.0106309 0
0.0577366 -0.00967562 0.0473744
0.0856207 -0.00229365 0.011245
-0.0179443 0.00867154 -0.0425137
-0.0940629 0.00637349 -0.0312474
-0.0260887 -0.00562931 0.0275626
0.0271636 -0.0228244 0.0222885
0.0402824 -0.0054144 0.00529049
-0.00844232 0.02047 -0.0200016
-0.0442545 0.0150453 -0.0147011
-0.0122741 -0.0132793 0.0129675
-0.0449568 -0.0010627 -0.0368882
-0.0666681 -0.000252134 -0.00875589
0.0139722 0.000953241 0.0331031
0.073242 0.000700625 0.0243306
0.0203141 -0.000618282 -0.0214617
-0.0483147 0.0223244 -0.0396435
-0.0710455 0.00525155 -0.00932563
0.0148895 -0.0198537 0.035256
0.0780506 -0.0145922 0.0259127
0.0218314 0.0129884 -0.0230647
0 -0.0690792 0
0 -0.0206773 0
0 0.0781714 0
0 0.057455 0
0 -0.0401905 0
0.0271636 0.0365791 -0.112611
0.0402824 0.00867154 -0.0267145
-0.00844232 -0.0327841 0.100998
-0.0442545 -0.024096 0.0742331
-0.0122741 0.0212819 -0.0655176
0.0127798 0.0862888 -0.0529807
0.0189519 0.02047 -0.0125685
-0.00397192 -0.0773904 0.0475172
-0.0208206 -0.0568813 0.0349249
-0.00577466 0.0502031 -0.0308244
-0.021151 0.00401759 0.087685
-0.0313658 0.000953241 0.0208011
0.0065736 -0.00360389 -0.0786422
0.0344586 -0.00264883 -0.0578013
0.00955727 0.00233745 0.0510155
-0.0227308 -0.0843986 0.0942344
-0.0334251 -0.0198537 0.0221675
0.00700515 0.0750579 -0.0838051
0.0367209 0.0551666 -0.0615957
0.0102711 -0.0491034 0.0548259
0 -0.0507723 0
0 -0.0151975 0
0 0.057455 0
0 0.0422287 0
0 -0.0295395 0
-0.0449568 0.0268852 -0.100355
-0.0666681 0.00637349 -0.023807
0.0139722 -0.0240961 0.0900071
0.073242 -0.0177104 0.0661542
0.0203141 0.0156419 -0.058387
-0.021151 0.0634211 -0.0472146
-0.0313658 0.0150453 -0.0112007
0.0065736 -0.0568813 0.0423459
0.0344586 -0.0418074 0.0311241
0.00955727 0.0368986 -0.0274696
0.0350057 0.00295288 0.0781419
0.0519111 0.000700626 0.0185373
-0.0108795 -0.00264883 -0.0700837
-0.0570296 -0.00194688 -0.0515109
-0.0158176 0.00171799 0.0454632
0.0376204 -0.0620319 0.0839784
0.0553198 -0.0145922 0.0197549
-0.0115938 0.0551666 -0.0746842
-0.0607744 0.0405467 -0.0548919
-0.0169991 -0.0360904 0.0488589
0 0.0451921 0
0 0.0106309 0
0 -0.0401905 0
0 -0.0295395 0
0 0.0262929 0
-0.0483147 -0.0239303 0.0653966
-0.0710455 -0.00562931 0.0153837
0.0148895 0.0212819 -0.0581589
0.0780506 0.0156419 -0.042746
0.0218314 -0.0139228 0.038048
-0.0227308 -0.0564507 0.0307674
-0.0334251 -0.0132793 0.00723766
0.00700515 0.0502031 -0.0273623
0.0367209 0.0368986 -0.0201109
0.0102711 -0.0328432 0.0179006
0.0376204 -0.00262833 -0.0509212
0.0553198 -0.000618283 -0.0119786
-0.0115938 0.00233745 0.0452856
-0.0607744 0.00171799 0.0332843
-0.0169991 -0.00152917 -0.0296262
0.0404303 0.0552141 -0.0547246
0.0594517 0.0129884 -0.0128733
-0.0124597 -0.0491034 0.0486681
-0.0653137 -0.0360904 0.0357704
-0.0182688 0.0321238 -0.031839
