# vtk DataFile Version 3.0
Velocity field
ASCII
DATASET STRUCTURED_POINTS
DIMENSIONS 8 8 8
SPACING 0.8 0.8 0.8
ORIGIN 0 0 0
POINT_DATA 512
VECTORS velocity float
0 0.000333885 0
0 0.00023262 0
0 -9.74928e-06 0
0 -0.000246204 0
0 -0.000333315 0
0 -0.000218242 0
0 2.92146e-05 0
0 0.000258949 0
0 0.000131355 0.000340779
0 9.15157e-05 0.000251725
0 -3.8355e-06 -1.055e-05
0 -9.68601e-05 -0.000266425
0 -0.000131131 -0.00036069
0 -8.58591e-05 -0.000236166
0 1.14934e-05 3.1614e-05
0 0.000101874 0.000264297
0 -0.000150853 0.000474846
0 -0.0001051 0.000350757
0 4.40485e-06 -1.47005e-05
0 0.000111238 -0.00037124
0 0.000150596 -0.000502591
0 9.86043e-05 -0.000329076
0 -1.31995e-05 4.40514e-05
0 -0.000116997 0.000368274
0 -0.000341556 0.000320878
0 -0.000237964 0.000237024
0 9.97327e-06 -9.93388e-06
0 0.000251861 -0.000250866
0 0.000340973 -0.000339626
0 0.000223256 -0.000222374
0 -2.98858e-05 2.97678e-05
0 -0.000264899 0.000248862
0 -0.000325075 -2.77306e-05
0 -0.000226482 -2.04839e-05
0 9.49204e-06 8.58495e-07
0 0.000239708 2.16801e-05
0 0.000324521 2.93508e-05
0 0.000212483 1.92178e-05
0 -2.84438e-05 -2.57256e-06
0 -0.000252117 -2.15069e-05
0 -0.000111408 -0.000359518
0 -7.76188e-05 -0.000265567
0 3.25307e-06 1.11301e-05
0 8.21517e-05 0.000281076
0 0.000111218 0.000380524
0 7.28212e-05 0.000249152
0 -9.74812e-06 -3.33524e-05
0 -8.64043e-05 -0.00027883
0 0.000169837 -0.000473227
0 0.000118327 -0.00034956
0 -4.95917e-06 1.46504e-05
0 -0.000125237 0.000369974
0 -0.000169548 0.000500877
0 -0.000111013 0.000327954
0 1.48606e-05 -4.39012e-05
0 0.00013172 -0.000367018
0 0.000348062 -0.000299882
0 0.000242497 -0.00020893
0 -1.01632e-05 8.75643e-06
0 -0.000256659 0.000221131
0 -0.000347468 0.000299371
0 -0.000227508 0.000196016
0 3.04551e-05 -2.62395e-05
0 0.000269945 -0.000232579
0 0.00023262 0
0 0.000175958 0
0 -7.37453e-06 0
0 -0.000186233 0
0 -0.000252125 0
0 -0.000165082 0
0 2.20985e-05 0
0 0.000180412 0
7.2643e-05 9.15157e-05 0.000336597
0.00017387 6.37618e-05 0.000234517
0.000169628 -2.67231e-06 -9.82879e-06
6.24914e-05 -6.74854e-05 -0.000248212
-8.25514e-05 -9.13627e-05 -0.000336034
-0.00017752 -5.98207e-05 -0.000220021
-0.000164807 8.00781e-06 2.94529e-05
-5.21228e-05 7.09764e-05 0.000261053
0.000101222 -0.0001051 0.000469019
0.000242273 -7.32264e-05 0.000326779
0.000236362 3.06898e-06 -1.36956e-05
8.70763e-05 7.75028e-05 -0.000345862
-0.000115028 0.000104924 -0.000468234
-0.000247358 6.87003e-05 -0.000306581
-0.000229644 -9.19648e-06 4.104e-05
-7.26287e-05 -8.15123e-05 0.000363755
6.84007e-05 -0.000237964 0.00031694
0.000163716 -0.000165796 0.000220821
0.000159722 6.94866e-06 -9.2548e-06
5.88419e-05 0.000175479 -0.000233717
-7.77304e-05 0.000237566 -0.00031641
-0.000167153 0.000155548 -0.000207172
-0.000155182 -2.08223e-05 2.77329e-05
-4.90789e-05 -0.000184557 0.000245808
-5.91126e-06 -0.000226482 -2.73903e-05
-1.41485e-05 -0.000157796 -1.90836e-05
-1.38033e-05 6.61337e-06 7.99809e-07
-5.08518e-06 0.000167011 2.01981e-05
6.71754e-06 0.000226103 2.73444e-05
1.44455e-05 0.000148043 1.7904e-05
1.3411e-05 -1.98176e-05 -2.3967e-06
4.24145e-06 -0.000175652 -2.1243e-05
-7.66376e-05 -7.76188e-05 -0.000355106
-0.000183431 -5.40792e-05 -0.000247412
-0.000178955 2.2665e-06 1.03693e-05
-6.59277e-05 5.72373e-05 0.000261861
8.70908e-05 7.74888e-05 0.000354512
0.000187281 5.07366e-05 0.00023212
0.000173869 -6.79179e-06 -3.10725e-05
5.4989e-05 -6.01985e-05 -0.000275408
-0.000100877 0.000118327 -0.000467419
-0.000241447 8.24416e-05 -0.000325664
-0.000235555 -3.45519e-06 1.36488e-05
-8.67794e-05 -8.72562e-05 0.000344683
0.000114636 -0.000118129 0.000466637
0.000246515 -7.73459e-05 0.000305535
0.000228861 1.03538e-05 -4.09001e-05
7.2381e-05 9.17703e-05 -0.000362514
-6.39252e-05 0.000242497 -0.000296202
-0.000152999 0.000168949 -0.000206366
-0.000149266 -7.0808e-06 8.64897e-06
-5.49901e-05 -0.000178816 0.000218418
7.26422e-05 -0.000242083 0.000295697
0.000156211 -0.000158507 0.000193611
0.000145024 2.12183e-05 -2.59175e-05
4.58676e-05 0.000188072 -0.000229724
0 -9.74928e-06 0
0 -7.37453e-06 0
0 3.09072e-07 0
0 7.80519e-06 0
0 1.05668e-05 0
0 6.91871e-06 0
0 -9.26164e-07 0
0 -7.56121e-06 0
0.000101222 -3.8355e-06 0.00012824
0.000242273 -2.67231e-06 8.93482e-05
0.000236362 1.11998e-07 -3.74465e-06
8.70763e-05 2.82837e-06 -9.4566e-05
-0.000115028 3.82909e-06 -0.000128025
-0.000247358 2.50713e-06 -8.38256e-05
-0.000229644 -3.35614e-07 1.12212e-05
-7.26287e-05 -2.97468e-06 9.94583e-05
0.000141044 4.40485e-06 0.000178691
0.000337586 3.06898e-06 0.000124499
0.000329349 -1.28623e-07 -5.21785e-06
0.000121333 -3.24821e-06 -0.00013177
-0.000160282 -4.39747e-06 -0.000178392
-0.000344672 -2.87929e-06 -0.000116804
-0.000319989 3.85432e-07 1.56358e-05
-0.000101202 3.41625e-06 0.000138587
9.53105e-05 9.97327e-06 0.000120751
0.000228124 6.94866e-06 8.41303e-05
0.000222558 -2.91224e-07 -3.52597e-06
8.19912e-05 -7.35445e-06 -8.90435e-05
-0.000108311 -9.95657e-06 -0.000120548
-0.000232913 -6.51916e-06 -7.89303e-05
-0.000216233 8.7268e-07 1.05659e-05
-6.83872e-05 7.73493e-06 9.365e-05
-8.23683e-06 9.49204e-06 -1.04354e-05
-1.97147e-05 6.61337e-06 -7.27062e-06
-1.92337e-05 -2.77172e-07 3.04718e-07
-7.08576e-06 -6.99958e-06 7.69522e-06
9.36031e-06 -9.47614e-06 1.04179e-05
2.01285e-05 -6.2046e-06 6.82123e-06
1.86871e-05 8.30571e-07 -9.13115e-07
5.91009e-06 7.3617e-06 -8.09333e-06
-0.000106788 3.25307e-06 -0.000135291
-0.000255595 2.2665e-06 -9.42613e-05
-0.000249359 -9.4991e-08 3.95057e-06
-9.18645e-05 -2.39886e-06 9.9766e-05
0.000121353 -3.24762e-06 0.000135065
0.00026096 -2.12641e-06 8.8435e-05
0.000242272 2.84649e-07 -1.18382e-05
7.66224e-05 2.52297e-06 -0.000104927
-0.000140563 -4.95917e-06 -0.000178081
-0.000336435 -3.45519e-06 -0.000124074
-0.000328226 1.4481e-07 5.20006e-06
-0.000120919 3.65698e-06 0.00013132
0.000159735 4.95087e-06 0.000177783
0.000343497 3.24163e-06 0.000116405
0.000318898 -4.33937e-07 -1.55825e-05
0.000100857 -3.84617e-06 -0.000138114
-8.90742e-05 -1.01632e-05 -0.00011285
-0.000213191 -7.0808e-06 -7.86231e-05
-0.00020799 2.96762e-07 3.29516e-06
-7.6624e-05 7.49431e-06 8.32147e-05
0.000101221 1.01459e-05 0.000112657
0.000217666 6.64314e-06 7.37635e-05
0.000202078 -8.89275e-07 -9.87426e-06
6.39126e-05 -7.88226e-06 -8.75224e-05
0 -0.000246204 0
0 -0.000186233 0
0 7.80519e-06 0
0 0.000197109 0
0 0.000266849 0
0 0.000174722 0
0 -2.3389e-05 0
0 -0.000190948 0
6.84007e-05 -9.68601e-05 -0.000157906
0.000163716 -6.74854e-05 -0.000110018
0.000159722 2.82837e-06 4.61093e-06
5.88419e-05 7.14264e-05 0.000116443
-7.77304e-05 9.66982e-05 0.000157642
-0.000167153 6.33141e-05 0.000103217
-0.000155182 -8.47546e-06 -1.38171e-05
-4.90789e-05 -7.51214e-05 -0.000122467
9.53105e-05 0.000111238 -0.000220029
0.000228124 7.75028e-05 -0.0001533
0.000222558 -3.24821e-06 6.42493e-06
8.19912e-05 -8.20289e-05 0.000162253
-0.000108311 -0.000111052 0.00021966
-0.000232913 -7.27124e-05 0.000143825
-0.000216233 9.73355e-06 -1.92529e-05
-6.83872e-05 8.62726e-05 -0.000170647
6.44062e-05 0.000251861 -0.000148685
0.000154155 0.000175479 -0.000103593
0.000150394 -7.35445e-06 4.34166e-06
5.54056e-05 -0.000185726 0.000109642
-7.31911e-05 -0.000251439 0.000148436
-0.000157391 -0.000164632 9.71897e-05
-0.00014612 2.20383e-05 -1.30102e-05
-4.62127e-05 0.000195335 -0.000115315
-5.56605e-06 0.000239708 1.28495e-05
-1.33223e-05 0.000167011 8.95259e-06
-1.29972e-05 -6.99958e-06 -3.7521e-07
-4.78821e-06 -0.000176765 -9.47541e-06
6.32524e-06 -0.000239307 -1.28279e-05
1.36019e-05 -0.000156689 -8.39923e-06
1.26278e-05 2.09749e-05 1.12435e-06
3.99375e-06 0.000185909 9.96561e-06
-7.2162e-05 8.21517e-05 0.000166589
-0.000172719 5.72373e-05 0.000116067
-0.000168504 -2.39886e-06 -4.86448e-06
-6.20776e-05 -6.058e-05 -0.000122846
8.20047e-05 -8.20141e-05 -0.00016631
0.000176344 -5.36995e-05 -0.000108893
0.000163715 7.18842e-06 1.45769e-05
5.17777e-05 6.3714e-05 0.000129201
-9.49855e-05 -0.000125237 0.000219278
-0.000227346 -8.72562e-05 0.000152777
-0.000221799 3.65698e-06 -6.40302e-06
-8.17115e-05 9.23518e-05 -0.000161699
0.000107941 0.000125027 -0.000218911
0.000232118 8.18629e-05 -0.000143334
0.000215495 -1.09585e-05 1.91873e-05
6.8154e-05 -9.71296e-05 0.000170065
-6.0192e-05 -0.000256659 0.000138956
-0.000144064 -0.000178816 9.68116e-05
-0.000140549 7.49431e-06 -4.05745e-06
-5.17788e-05 0.000189258 -0.000102465
6.84e-05 0.000256221 -0.000138719
0.000147088 0.000167763 -9.08277e-05
0.000136555 -2.24574e-05 1.21585e-05
4.3189e-05 -0.000199056 0.00010777
0 -0.000333315 0
0 -0.000252125 0
0 1.05668e-05 0
0 0.000266849 0
0 0.000361265 0
0 0.000236542 0
0 -3.16644e-05 0
0 -0.000258508 0
-5.91126e-06 -0.000131131 -0.000348268
-1.41485e-05 -9.13627e-05 -0.000242648
-1.38033e-05 3.82909e-06 1.01696e-05
-5.08518e-06 9.66982e-05 0.000256819
6.71754e-06 0.000130911 0.000347685
1.44455e-05 8.57156e-05 0.00022765
1.3411e-05 -1.14742e-05 -3.04741e-05
4.24145e-06 -0.0001017 -0.000270105
-8.23683e-06 0.000150596 -0.000485282
-1.97147e-05 0.000104924 -0.000338109
-1.92337e-05 -4.39747e-06 1.41704e-05
-7.08576e-06 -0.000111052 0.000357855
9.36031e-06 -0.000150344 0.000484469
2.01285e-05 -9.84391e-05 0.000317211
1.86871e-05 1.31774e-05 -4.2463e-05
5.91009e-06 0.000116797 -0.000376368
-5.56605e-06 0.000340973 -0.00032793
-1.33223e-05 0.000237566 -0.000228478
-1.29972e-05 -9.95657e-06 9.57569e-06
-4.78821e-06 -0.000251439 0.000241821
6.32524e-06 -0.000340402 0.00032738
1.36019e-05 -0.000222882 0.000214356
1.26278e-05 2.98358e-05 -2.86944e-05
3.99375e-06 0.000264447 -0.000254331
4.81023e-07 0.000324521 2.834e-05
1.15132e-06 0.000226103 1.97453e-05
1.12323e-06 -9.47614e-06 -8.2754e-07
4.13801e-07 -0.000239307 -2.08984e-05
-5.46634e-07 -0.000323977 -2.82925e-05
-1.17549e-06 -0.000212127 -1.85248e-05
-1.09131e-06 2.83962e-05 2.4798e-06
-3.45144e-07 0.000251687 2.19795e-05
6.23631e-06 0.000111218 0.000367419
1.49265e-05 7.74888e-05 0.000255991
1.45623e-05 -3.24762e-06 -1.07288e-05
5.36481e-06 -8.20141e-05 -0.000270941
-7.08693e-06 -0.000111032 -0.000366804
-1.52398e-05 -7.26992e-05 -0.000240168
-1.41485e-05 9.73179e-06 3.21498e-05
-4.47468e-06 8.6257e-05 0.000284958
8.20874e-06 -0.000169548 0.000483627
1.96475e-05 -0.000118129 0.000336956
1.91681e-05 4.95087e-06 -1.41221e-05
7.06159e-06 0.000125027 -0.000356634
-9.32839e-06 0.000169264 -0.000482817
-2.00599e-05 0.000110827 -0.000316129
-1.86233e-05 -1.48357e-05 4.23182e-05
-5.88993e-06 -0.000131495 0.000375084
5.20185e-06 -0.000347468 0.000306473
1.24502e-05 -0.000242083 0.000213522
1.21464e-05 1.01459e-05 -8.94887e-06
4.47477e-06 0.000256221 -0.000225991
-5.91119e-06 0.000346876 -0.00030595
-1.27115e-05 0.00022712 -0.000200324
-1.18012e-05 -3.04032e-05 2.68161e-05
-3.73244e-06 -0.000269484 0.00023769
0 -0.000218242 0
0 -0.000165082 0
0 6.91871e-06 0
0 0.000174722 0
0 0.000236542 0
0 0.000154878 0
0 -2.07326e-05 0
0 -0.000169261 0
-7.66376e-05 -8.58591e-05 -0.000327375
-0.000183431 -5.98207e-05 -0.000228092
-0.000178955 2.50713e-06 9.55951e-06
-6.59277e-05 6.33141e-05 0.000241412
8.70908e-05 8.57156e-05 0.000326827
0.000187281 5.61232e-05 0.000213993
0.000173869 -7.51286e-06 -2.86459e-05
5.4989e-05 -6.65894e-05 -0.000253901
-0.000106788 9.86043e-05 -0.000456169
-0.000255595 6.87003e-05 -0.000317826
-0.000249359 -2.87929e-06 1.33203e-05
-9.18645e-05 -7.27124e-05 0.000336387
0.000121353 -9.84391e-05 0.000455406
0.00026096 -6.4454e-05 0.000298181
0.000242272 8.62805e-06 -3.99157e-05
7.66224e-05 7.64741e-05 -0.000353789
-7.2162e-05 0.000223256 -0.000308257
-0.000172719 0.000155548 -0.000214771
-0.000168504 -6.51916e-06 9.00124e-06
-6.20776e-05 -0.000164632 0.000227314
8.20047e-05 -0.000222882 0.000307741
0.000176344 -0.000145934 0.000201496
0.000163715 1.95353e-05 -2.6973e-05
5.17777e-05 0.000173149 -0.000239074
6.23631e-06 0.000212483 2.66399e-05
1.49265e-05 0.000148043 1.85607e-05
1.45623e-05 -6.2046e-06 -7.77896e-07
5.36481e-06 -0.000156689 -1.96447e-05
-7.08693e-06 -0.000212127 -2.65952e-05
-1.52398e-05 -0.000138892 -1.74135e-05
-1.41485e-05 1.85927e-05 2.33104e-06
-4.47468e-06 0.000164795 2.0661e-05
8.08518e-05 7.28212e-05 0.000345377
0.000193518 5.07366e-05 0.000240634
0.000188796 -2.12641e-06 -1.00852e-05
6.9553e-05 -5.36995e-05 -0.000254687
-9.18798e-05 -7.26992e-05 -0.000344799
-0.000197579 -4.76006e-05 -0.000225761
-0.00018343 6.37199e-06 3.02212e-05
-5.80128e-05 5.64776e-05 0.000267863
0.000106424 -0.000111013 0.000454614
0.000254724 -7.73459e-05 0.000316742
0.000248508 3.24163e-06 -1.32749e-05
9.15513e-05 8.18629e-05 -0.000335239
-0.00012094 0.000110827 -0.000453852
-0.00026007 7.25652e-05 -0.000297164
-0.000241446 -9.71385e-06 3.97795e-05
-7.63611e-05 -8.6098e-05 0.000352583
6.74404e-05 -0.000227508 0.000288087
0.000161413 -0.000158507 0.000200712
0.000157474 6.64314e-06 -8.41202e-06
5.8014e-05 0.000167763 -0.000212434
-7.66367e-05 0.00022712 -0.000287596
-0.000164801 0.000148709 -0.000188306
-0.000152999 -1.99068e-05 2.52074e-05
-4.83898e-05 -0.000176448 0.000223431
0 2.92146e-05 0
0 2.20985e-05 0
0 -9.26164e-07 0
0 -2.3389e-05 0
0 -3.16644e-05 0
0 -2.07326e-05 0
0 2.77534e-06 0
0 2.26579e-05 0
-0.000100877 1.14934e-05 -0.000107901
-0.000241447 8.00781e-06 -7.51777e-05
-0.000235555 -3.35614e-07 3.15076e-06
-8.67794e-05 -8.47546e-06 7.9568e-05
0.000114636 -1.14742e-05 0.00010772
0.000246515 -7.51286e-06 7.0531e-05
0.000228861 1.0057e-06 -9.44154e-06
7.2381e-05 8.91391e-06 -8.36843e-05
-0.000140563 -1.31995e-05 -0.000150351
-0.000336435 -9.19648e-06 -0.000104754
-0.000328226 3.85432e-07 4.39031e-06
-0.000120919 9.73355e-06 0.000110871
0.000159735 1.31774e-05 0.000150099
0.000343497 8.62805e-06 9.82788e-05
0.000318898 -1.15498e-06 -1.3156e-05
0.000100857 -1.02371e-05 -0.000116607
-9.49855e-05 -2.98858e-05 -0.0001016
-0.000227346 -2.08223e-05 -7.07874e-05
-0.000221799 8.7268e-07 2.96676e-06
-8.17115e-05 2.20383e-05 7.49213e-05
0.000107941 2.98358e-05 0.00010143
0.000232118 1.95353e-05 6.6412e-05
0.000215495 -2.61507e-06 -8.89016e-06
6.8154e-05 -2.31784e-05 -7.87973e-05
8.20874e-06 -2.84438e-05 8.78035e-06
1.96475e-05 -1.98176e-05 6.11751e-06
1.91681e-05 8.30571e-07 -2.5639e-07
7.06159e-06 2.09749e-05 -6.47477e-06
-9.32839e-06 2.83962e-05 -8.76564e-06
-2.00599e-05 1.85927e-05 -5.73939e-06
-1.86233e-05 -2.48888e-06 7.68297e-07
-5.88993e-06 -2.206e-05 6.80974e-06
0.000106424 -9.74812e-06 0.000113834
0.000254724 -6.79179e-06 7.93116e-05
0.000248508 2.84649e-07 -3.32401e-06
9.15513e-05 7.18842e-06 -8.39433e-05
-0.00012094 9.73179e-06 -0.000113644
-0.00026007 6.37199e-06 -7.44094e-05
-0.000241446 -8.52978e-07 9.96072e-06
-7.63611e-05 -7.56031e-06 8.8286e-05
0.000140083 1.48606e-05 0.000149838
0.000335288 1.03538e-05 0.000104396
0.000327107 -4.33937e-07 -4.37533e-06
0.000120507 -1.09585e-05 -0.000110493
-0.00015919 -1.48357e-05 -0.000149587
-0.000342325 -9.71385e-06 -9.79436e-05
-0.00031781 1.30033e-06 1.31111e-05
-0.000100513 1.15254e-05 0.000116209
8.87705e-05 3.04551e-05 9.49519e-05
0.000212464 2.12183e-05 6.61536e-05
0.00020728 -8.89275e-07 -2.77255e-06
7.63627e-05 -2.24574e-05 -7.00169e-05
-0.000100875 -3.04032e-05 -9.479e-05
-0.000216924 -1.99068e-05 -6.20647e-05
-0.000201389 2.6648e-06 8.30821e-06
-6.36946e-05 2.36199e-05 7.36415e-05
0 0.000258949 0
0 0.000180412 0
0 -7.56121e-06 0
0 -0.000190948 0
0 -0.000258508 0
0 -0.000169261 0
0 2.26579e-05 0
0 0.000200832 0
-6.39252e-05 0.000101874 0.000177025
-0.000152999 7.09764e-05 0.000123334
-0.000149266 -2.97468e-06 -5.16904e-06
-5.49901e-05 -7.51214e-05 -0.000130537
7.26422e-05 -0.0001017 -0.000176723
0.000156211 -6.65894e-05 -0.000115711
0.000145024 8.91391e-06 1.54895e-05
4.58676e-05 7.90101e-05 0.000137294
-8.90742e-05 -0.000116997 0.000246668
-0.000213191 -8.15123e-05 0.000171856
-0.00020799 3.41625e-06 -7.20261e-06
-7.6624e-05 8.62726e-05 -0.000181892
0.000101221 0.000116797 -0.000246248
0.000217666 7.64741e-05 -0.000161233
0.000202078 -1.02371e-05 2.15833e-05
6.39126e-05 -9.07386e-05 0.000191308
-6.0192e-05 -0.000264899 0.000166686
-0.000144064 -0.000184557 0.000116132
-0.000140549 7.73493e-06 -4.86717e-06
-5.17788e-05 0.000195335 -0.000122914
6.84e-05 0.000264447 -0.000166402
0.000147088 0.000173149 -0.000108954
0.000136555 -2.31784e-05 1.45849e-05
4.3189e-05 -0.000205447 0.000129276
5.20185e-06 -0.000252117 -1.44052e-05
1.24502e-05 -0.000175652 -1.00362e-05
1.21464e-05 7.3617e-06 4.20626e-07
4.47477e-06 0.000185909 1.06223e-05
-5.91119e-06 0.000251687 1.43806e-05
-1.27115e-05 0.000164795 9.41587e-06
-1.18012e-05 -2.206e-05 -1.26044e-06
-3.73244e-06 -0.000195533 -1.11722e-05
6.74404e-05 -8.64043e-05 -0.000186759
0.000161413 -6.01985e-05 -0.000130116
0.000157474 2.52297e-06 5.45327e-06
5.8014e-05 6.3714e-05 0.000137715
-7.66367e-05 8.6257e-05 0.00018644
-0.000164801 5.64776e-05 0.000122074
-0.000152999 -7.56031e-06 -1.63412e-05
-4.83898e-05 -6.70122e-05 -0.000144844
8.87705e-05 0.00013172 -0.000245827
0.000212464 9.17703e-05 -0.000171269
0.00020728 -3.84617e-06 7.17804e-06
7.63627e-05 -9.71296e-05 0.000181271
-0.000100875 -0.000131495 0.000245408
-0.000216924 -8.6098e-05 0.000160683
-0.000201389 1.15254e-05 -2.15097e-05
-6.36946e-05 0.000102158 -0.000190655
5.62536e-05 0.000269945 -0.00015578
0.000134638 0.000188072 -0.000108533
0.000131353 -7.88226e-06 4.5487e-06
4.83908e-05 -0.000199056 0.000114871
-6.39245e-05 -0.000269484 0.000155514
-0.000137464 -0.000176448 0.000101825
-0.00012762 2.36199e-05 -1.36306e-05
-4.03631e-05 0.00020936 -0.000120818
