# vtk DataFile Version 3.0
Velocity field
ASCII
DATASET STRUCTURED_POINTS
DIMENSIONS 8 8 8
SPACING 0.8 0.8 0.8
ORIGIN 0 0 0
POINT_DATA 512
VECTORS velocity float
0 0.222292 0
0 0.154872 0
0 -0.00649082 0
0 -0.163917 0
0 -0.221913 0
0 -0.1453 0
0 0.0194504 0
0 0.172402 0
0 0.0874526 0.226882
0 0.0609288 0.167592
0 -0.00255358 -0.00702391
0 -0.064487 -0.177379
0 -0.0873035 -0.240139
0 -0.0571628 -0.157233
0 0.00765203 0.0210478
0 0.0678252 0.175962
0 -0.100434 0.316141
0 -0.0699732 0.233525
0 0.00293263 -0.00978722
0 0.0740596 -0.247162
0 0.100263 -0.334612
0 0.0656482 -0.219091
0 -0.00878791 0.0293283
0 -0.0778934 0.245188
0 -0.227399 0.213632
0 -0.15843 0.157805
0 0.00663995 -0.00661372
0 0.167683 -0.16702
0 0.227011 -0.226115
0 0.148638 -0.148051
0 -0.0198972 0.0198186
0 -0.176363 0.165686
0 -0.216427 -0.0184623
0 -0.150786 -0.0136376
0 0.00631956 0.000571564
0 0.159592 0.0144341
0 0.216058 0.019541
0 0.141466 0.0127947
0 -0.0189371 -0.00171275
0 -0.167853 -0.0143187
0 -0.0741727 -0.239358
0 -0.0516766 -0.176808
0 0.00216581 0.00741015
0 0.0546945 0.187133
0 0.0740462 0.253343
0 0.0484825 0.165879
0 -0.00649005 -0.0222052
0 -0.0575258 -0.185638
0 0.113073 -0.315062
0 0.078779 -0.232728
0 -0.00330169 0.00975384
0 -0.0833796 0.24632
0 -0.112881 0.333471
0 -0.0739097 0.218344
0 0.00989383 -0.0292283
0 0.0876959 -0.244352
0 0.231731 -0.199654
0 0.161448 -0.1391
0 -0.00676643 0.00582981
0 -0.170877 0.147224
0 -0.231335 0.199314
0 -0.151469 0.130503
0 0.0202762 -0.0174696
0 0.179722 -0.154845
0 0.154872 0
0 0.117148 0
0 -0.00490977 0
0 -0.123989 0
0 -0.167859 0
0 -0.109907 0
0 0.0147126 0
0 0.120114 0
0.0483639 0.0609288 0.224098
0.117963 0.0433197 0.15916
0.11509 -0.00181593 -0.00667184
0.0424 -0.0458579 -0.168485
-0.05601 -0.0620832 -0.228096
-0.120445 -0.0406495 -0.149349
-0.111815 0.00543545 0.0199711
-0.0347021 0.0472543 0.173803
0.0673909 -0.0699732 0.312261
0.164372 -0.0496663 0.221776
0.160369 0.00208194 -0.00929659
0.0590802 0.0525754 -0.234767
-0.0780459 0.0711772 -0.317834
-0.167831 0.046604 -0.208105
-0.155806 -0.00623221 0.027828
-0.0483543 -0.0542688 0.242179
0.0455395 -0.15843 0.211011
0.111074 -0.112453 0.149865
0.10837 0.00471389 -0.0062822
0.0399236 0.11904 -0.158646
-0.0527395 0.161158 -0.214777
-0.113411 0.10552 -0.140626
-0.105286 -0.0141108 0.0188048
-0.0326755 -0.122873 0.163653
-0.00393557 -0.150786 -0.0182357
-0.00959921 -0.107027 -0.0129515
-0.00936542 0.00448642 0.000542912
-0.00345023 0.113296 0.0137103
0.00455778 0.153383 0.0185611
0.00980119 0.100429 0.0121531
0.00909887 -0.0134299 -0.00162513
0.00282385 -0.116944 -0.014143
-0.0510233 -0.0516766 -0.236421
-0.12445 -0.03668 -0.167912
-0.121419 0.00153757 0.00703868
-0.0447311 0.0388286 0.177749
0.0590899 0.0525665 0.240638
0.127069 0.0344183 0.157562
0.117964 -0.00460267 -0.0210694
0.0366103 -0.0400786 -0.18336
-0.0671611 0.078779 -0.311196
-0.163799 0.0559035 -0.221003
-0.15981 -0.0023434 0.00926419
-0.0588743 -0.0591781 0.233948
0.0777738 -0.0801159 0.316725
0.167245 -0.0524567 0.207379
0.155263 0.00701499 -0.0277312
0.0481894 0.0610983 -0.241353
-0.0425598 0.161448 -0.197204
-0.101863 0.112482 -0.137393
-0.0993777 -0.00471422 0.00575827
-0.036611 -0.119051 0.145417
0.0483633 -0.161173 0.196868
0.104001 -0.10553 0.128901
0.0965533 0.0141266 -0.0172552
0.0305375 0.125214 -0.152945
0 -0.00649082 0
0 -0.00490977 0
0 0.000205772 0
0 0.0051965 0
0 0.0070351 0
0 0.0046063 0
0 -0.000616616 0
0 -0.00503406 0
0.0673909 -0.00255358 0.0853787
0.164372 -0.00181593 0.060612
0.160369 7.6123e-05 -0.00254079
0.0590802 0.00192234 -0.0641629
-0.0780459 0.00260249 -0.0868639
-0.167831 0.00170402 -0.0568751
-0.155806 -0.000227847 0.00760561
-0.0483543 -0.00198047 0.0662168
0.0939034 0.00293263 0.118968
0.229037 0.00208194 0.0844577
0.223459 -8.72718e-05 -0.00354034
0.0823237 -0.00220389 -0.0894047
-0.10875 -0.00298366 -0.121038
-0.233855 -0.00195359 -0.0792514
-0.217102 0.000261243 0.0105978
-0.0673776 0.00227445 0.0922674
0.0634553 0.00663995 0.0803927
0.154773 0.00471389 0.057072
0.151004 -0.000197601 -0.00239241
0.0556298 -0.00499003 -0.0604155
-0.0734877 -0.0067556 -0.0817916
-0.15803 -0.00442325 -0.0535541
-0.146706 0.0005915 0.00716143
-0.0455305 0.00514972 0.0623498
-0.00548387 0.00631956 -0.00694761
-0.0133757 0.00448642 -0.00493227
-0.0130499 -0.000188065 0.000206754
-0.00480763 -0.00474926 0.00522119
0.0063509 -0.00642962 0.00706847
0.0136571 -0.00420985 0.00462818
0.0126786 0.000562957 -0.000618902
0.00393479 0.00490123 -0.00538833
-0.0710966 0.00216581 -0.0900736
-0.173409 0.00153757 -0.063945
-0.169188 -6.44533e-05 0.0026805
-0.0623293 -0.00162765 0.0676903
0.0823373 -0.00220352 0.0916408
0.177058 -0.00144277 0.0600026
0.164373 0.000192935 -0.00802386
0.0510132 0.00167973 -0.069858
-0.0935831 -0.00330169 -0.118562
-0.228239 -0.0023434 -0.0841631
-0.22268 9.82321e-05 0.003528
-0.0820367 0.00248067 0.0890933
0.108371 0.00335837 0.120616
0.23304 0.00219892 0.078975
0.216345 -0.000294055 -0.0105609
0.0671478 -0.00256068 -0.0919527
-0.0593034 -0.00676643 -0.0751325
-0.141937 -0.00471422 -0.0523453
-0.138474 0.000197577 0.00219383
-0.0510143 0.00498952 0.0554022
0.0673901 0.00675489 0.0750044
0.144917 0.00442283 0.0491099
0.134539 -0.000592057 -0.00657403
0.0425514 -0.00524781 -0.0582702
0 -0.163917 0
0 -0.123989 0
0 0.0051965 0
0 0.13123 0
0 0.177661 0
0 0.116326 0
0 -0.0155718 0
0 -0.127128 0
0.0455395 -0.064487 -0.10513
0.111074 -0.0458579 -0.0746334
0.10837 0.00192234 0.00312854
0.0399236 0.0485449 0.0790057
-0.0527395 0.0657211 0.106959
-0.113411 0.0430312 0.0700319
-0.105286 -0.00575384 -0.00936501
-0.0326755 -0.0500139 -0.0815352
0.0634553 0.0740596 -0.146489
0.154773 0.0525754 -0.103995
0.151004 -0.00220389 0.00435932
0.0556298 -0.0556549 0.110088
-0.0734877 -0.0753472 0.149038
-0.15803 -0.0493342 0.0975836
-0.146706 0.0065972 -0.0130493
-0.0455305 0.0574381 -0.113612
0.04288 0.167683 -0.0989904
0.104588 0.11904 -0.0702745
0.102041 -0.00499003 0.00294582
0.0375923 -0.126014 0.0743915
-0.0496595 -0.1706 0.100712
-0.106789 -0.111701 0.0659426
-0.0991373 0.0149372 -0.00881808
-0.0307673 0.130049 -0.0767736
-0.00370573 0.159592 0.00855485
-0.00903856 0.113296 0.00607321
-0.00881843 -0.00474926 -0.000254582
-0.00324877 -0.119933 -0.006429
0.00429159 -0.162367 -0.0087036
0.00922875 -0.106312 -0.00569879
0.00856747 0.0142164 0.000762068
0.00265894 0.123774 0.00663485
-0.0480436 0.0546945 0.110911
-0.117182 0.0388286 0.0787375
-0.114328 -0.00162765 -0.00330057
-0.0421192 -0.0411031 -0.0833497
0.055639 -0.0556455 -0.112839
0.119647 -0.0364347 -0.0738831
0.111074 0.00487222 0.00988
0.0344723 0.0424192 0.0860187
-0.0632389 -0.0833796 0.14599
-0.154234 -0.0591781 0.103633
-0.150478 0.00248067 -0.00434413
-0.0554359 0.0626445 -0.109704
0.0732316 0.0848094 -0.148518
0.157479 0.0555293 -0.0972436
0.146195 -0.00742582 0.013004
0.0453752 -0.0646664 0.113225
-0.0400743 -0.170877 0.0925134
-0.0959144 -0.119051 0.0644547
-0.0935741 0.00498952 -0.00270135
-0.034473 0.126003 -0.0682188
0.045539 0.170585 -0.0923556
0.0979276 0.111692 -0.0604708
0.0909147 -0.0149516 0.00809484
0.0287541 -0.132526 0.0717502
0 -0.221913 0
0 -0.167859 0
0 0.0070351 0
0 0.177661 0
0 0.240521 0
0 0.157483 0
0 -0.0210813 0
0 -0.172108 0
-0.00393557 -0.0873035 -0.231868
-0.00959921 -0.0620832 -0.164606
-0.00936542 0.00260249 0.0069001
-0.00345023 0.0657211 0.174248
0.00455778 0.0889737 0.2359
0.00980119 0.0582563 0.154459
0.00909887 -0.00778966 -0.0206549
0.00282385 -0.0677096 -0.179829
-0.00548387 0.100263 -0.323088
-0.0133757 0.0711772 -0.229364
-0.0130499 -0.00298366 0.00961472
-0.00480763 -0.0753472 0.2428
0.0063509 -0.102006 0.328708
0.0136571 -0.0667897 0.215226
0.0126786 0.00893136 -0.0287807
0.00393479 0.0777605 -0.250576
-0.00370573 0.227011 -0.218327
-0.00903856 0.161158 -0.154994
-0.00881843 -0.0067556 0.00649718
-0.00324877 -0.1706 0.164073
0.00429159 -0.230959 0.222123
0.00922875 -0.151224 0.145438
0.00856747 0.0202222 -0.0194487
0.00265894 0.176062 -0.169327
0.000320253 0.216058 0.0188681
0.000781125 0.153383 0.0133947
0.000762101 -0.00642962 -0.000561487
0.000280759 -0.162367 -0.0141793
-0.000370885 -0.219817 -0.0191963
-0.000797561 -0.143926 -0.012569
-0.000740412 0.0192465 0.00168078
-0.000229788 0.167567 0.0146334
0.00415198 0.0740462 0.244618
0.010127 0.0525665 0.173657
0.00988046 -0.00220352 -0.00727948
0.00363995 -0.0556455 -0.183829
-0.00480843 -0.0753344 -0.248873
-0.0103401 -0.0493259 -0.162952
-0.00959926 0.00659608 0.0217906
-0.00297913 0.0574277 0.189718
0.00546517 -0.112881 0.321986
0.013329 -0.0801159 0.228565
0.0130044 0.00335837 -0.00958123
0.00479088 0.0848094 -0.241954
-0.00632877 0.114816 -0.327563
-0.0136094 0.075177 -0.214475
-0.0126344 -0.0100532 0.0286806
-0.00392137 -0.0875463 0.249722
0.00346326 -0.231335 0.204042
0.00828902 -0.161173 0.142157
0.00808677 0.00675489 -0.00595793
0.00297919 0.170585 -0.150459
-0.00393552 0.230941 -0.203694
-0.008463 0.151211 -0.133371
-0.00785694 -0.0202417 0.0178535
-0.00248496 -0.179416 0.158248
0 -0.1453 0
0 -0.109907 0
0 0.0046063 0
0 0.116326 0
0 0.157483 0
0 0.103114 0
0 -0.0138032 0
0 -0.112689 0
-0.0510233 -0.0571628 -0.217958
-0.12445 -0.0406495 -0.154732
-0.121419 0.00170402 0.0064862
-0.0447311 0.0430312 0.163796
0.0590899 0.0582563 0.221747
0.127069 0.0381442 0.145192
0.117964 -0.00510036 -0.0194158
0.0366103 -0.0443335 -0.169041
-0.0710966 0.0656482 -0.303706
-0.173409 0.046604 -0.215605
-0.169188 -0.00195359 0.00903788
-0.0623293 -0.0493342 0.228234
0.0823373 -0.0667897 0.308989
0.177058 -0.0437309 0.202314
0.164373 0.00584789 -0.0270543
0.0510132 0.0509145 -0.235544
-0.0480436 0.148638 -0.20523
-0.117182 0.10552 -0.145695
-0.114328 -0.00442325 0.00610737
-0.0421192 -0.111701 0.154231
0.055639 -0.151224 0.208799
0.119647 -0.0990151 0.136713
0.111074 0.0132407 -0.0182819
0.0344723 0.115278 -0.159169
0.00415198 0.141466 0.0177361
0.010127 0.100429 0.0125912
0.00988046 -0.00420985 -0.000527803
0.00363995 -0.106312 -0.0133288
-0.00480843 -0.143926 -0.0180446
-0.0103401 -0.0942369 -0.0118149
-0.00959927 0.0126019 0.00157995
-0.00297913 0.109716 0.0137556
0.053829 0.0484825 0.229943
0.131294 0.0344183 0.16324
0.128097 -0.00144277 -0.00684287
0.0471908 -0.0364347 -0.172801
-0.0623396 -0.0493259 -0.233941
-0.134056 -0.0322967 -0.153177
-0.124451 0.00431883 0.0204834
-0.0386234 0.0376014 0.178336
0.0708541 -0.0739097 0.30267
0.172805 -0.0524567 0.214853
0.168598 0.00219892 -0.00900639
0.0621121 0.0555293 -0.227439
-0.0820503 0.075177 -0.307913
-0.176441 0.049223 -0.201609
-0.1638 -0.00658242 0.0269601
-0.0508393 -0.0573218 0.234741
0.0449001 -0.151469 0.191801
0.107464 -0.10553 0.133629
0.104842 0.00442283 -0.00560051
0.0386242 0.111692 -0.141433
-0.0510228 0.151211 -0.191474
-0.10972 0.0990069 -0.12537
-0.101863 -0.0132534 0.0167824
-0.0322167 -0.117474 0.148754
0 0.0194504 0
0 0.0147126 0
0 -0.000616616 0
0 -0.0155718 0
0 -0.0210813 0
0 -0.0138032 0
0 0.00184775 0
0 0.015085 0
-0.0671611 0.00765203 -0.0718378
-0.163799 0.00543537 -0.0510085
-0.15981 -0.000227843 0.00213821
-0.0588743 -0.00575376 0.0539968
0.0777738 -0.00778954 0.0731013
0.167245 -0.00510028 0.0478638
0.155263 0.000682039 -0.00640048
0.0481894 0.00593465 -0.0557149
-0.0935831 -0.00878791 -0.1001
-0.228239 -0.00623212 -0.0710758
-0.22268 0.000261239 0.00297941
-0.0820367 0.0065971 0.0752397
0.108371 0.00893122 0.101861
0.23304 0.0058478 0.0666946
0.216345 -0.000782065 -0.0089185
0.0671478 -0.0068156 -0.0776339
-0.0632389 -0.0198972 -0.0676425
-0.154234 -0.0141106 -0.0480295
-0.150478 0.00059149 0.00201335
-0.0554359 0.014937 0.0508433
0.0732316 0.0202219 0.0688321
0.157479 0.0132405 0.0450688
0.146195 -0.00177073 -0.00602667
0.0453752 -0.0154316 -0.0524612
0.00546517 -0.0189371 0.00584573
0.013329 -0.0134297 0.00415077
0.0130045 0.000562949 -0.000173995
0.00479089 0.0142162 -0.00439392
-0.00632877 0.0192462 -0.00594855
-0.0136094 0.0126017 -0.00389488
-0.0126344 -0.0016853 0.000520834
-0.00392137 -0.014687 0.00453375
0.0708541 -0.00649005 0.075788
0.172805 -0.0046026 0.0538133
0.168598 0.000192932 -0.00225579
0.0621121 0.00487215 -0.0569657
-0.0820503 0.00659598 -0.0771213
-0.176441 0.00431877 -0.050496
-0.1638 -0.000577578 0.00675244
-0.0508393 -0.00503346 0.0587786
0.093264 0.00989383 0.0997583
0.227443 0.00701489 0.0708282
0.221904 -0.00029405 -0.00296903
0.0817509 -0.00742571 -0.0749774
-0.107992 -0.010053 -0.101506
-0.232228 -0.00658232 -0.0664618
-0.21559 0.00088031 0.00888748
-0.0669188 0.00767331 0.0773691
0.0591011 0.0202762 0.0632166
0.141453 0.0141266 0.0440434
0.138002 -0.000592057 -0.00184589
0.0508403 -0.0149516 -0.0466155
-0.0671603 -0.0202417 -0.0631088
-0.144422 -0.0132534 -0.0413211
-0.13408 0.00177415 0.0055314
-0.0424062 0.0157256 0.0490286
0 0.172402 0
0 0.120114 0
0 -0.00503406 0
0 -0.127128 0
0 -0.172108 0
0 -0.112689 0
0 0.015085 0
0 0.133709 0
-0.0425598 0.0678252 0.117858
-0.101863 0.0472543 0.0821128
-0.0993777 -0.00198047 -0.00344141
-0.036611 -0.0500139 -0.0869081
0.0483633 -0.0677096 -0.117657
0.104001 -0.0443335 -0.0770374
0.0965533 0.00593465 0.0103125
0.0305375 0.0526029 0.091407
-0.0593034 -0.0778934 0.164226
-0.141937 -0.0542688 0.114417
-0.138474 0.00227445 -0.00479531
-0.0510143 0.0574381 -0.121099
0.0673901 0.0777605 -0.163945
0.144917 0.0509145 -0.107345
0.134539 -0.0068156 0.0143696
0.0425514 -0.0604114 0.127368
-0.0400743 -0.176363 0.110976
-0.0959144 -0.122873 0.0773175
-0.0935741 0.00514972 -0.00324044
-0.034473 0.130049 -0.0818327
0.045539 0.176062 -0.110786
0.0979276 0.115278 -0.0725385
0.0909146 -0.0154316 0.00971027
0.0287541 -0.136781 0.0860689
0.00346326 -0.167853 -0.00959062
0.00828902 -0.116944 -0.00668185
0.00808677 0.00490123 0.000280042
0.00297919 0.123774 0.00707207
-0.00393552 0.167567 0.00957427
-0.008463 0.109716 0.00626885
-0.00785693 -0.014687 -0.000839171
-0.00248496 -0.130181 -0.00743816
0.0449001 -0.0575258 -0.124339
0.107464 -0.0400786 -0.086628
0.104842 0.00167973 0.00363065
0.0386242 0.0424192 0.091687
-0.0510228 0.0574277 0.124127
-0.10972 0.0376014 0.0812736
-0.101863 -0.00503346 -0.0108796
-0.0322167 -0.044615 -0.0964333
0.0591011 0.0876959 -0.163665
0.141453 0.0610983 -0.114027
0.138002 -0.00256068 0.00477896
0.0508403 -0.0646664 0.120686
-0.0671603 -0.0875463 0.163386
-0.144422 -0.0573218 0.106979
-0.13408 0.00767331 -0.0143206
-0.0424062 0.0680139 -0.126933
0.0374522 0.179722 -0.103714
0.0896386 0.125214 -0.0722585
0.0874514 -0.00524781 0.00302841
0.0322174 -0.132526 0.0764783
-0.0425593 -0.179416 0.103537
-0.0915201 -0.117474 0.0677922
-0.084966 0.0157256 -0.00907492
-0.0268727 0.139387 -0.0804373
