# vtk DataFile Version 3.0
Velocity field
ASCII
DATASET STRUCTURED_POINTS
DIMENSIONS 10 10 10
SPACING 0.631579 0.631579 0.631579
ORIGIN 0 0 0
POINT_DATA 1000
VECTORS velocity float
0 0.781739 0
0 0.630939 0
0 0.236718 0
0 -0.248831 0
0 -0.638379 0
0 -0.781635 0
0 -0.623331 0
0 -0.224541 0
0 0.260879 0
0 0.645649 0
0 0.480139 0.612355
0 0.387518 0.513608
0 0.14539 0.192697
0 -0.15283 -0.202558
0 -0.392088 -0.519665
0 -0.480075 -0.636281
0 -0.382845 -0.507415
0 -0.137911 -0.182785
0 0.16023 0.212365
0 0.396553 0.505752
0 -0.00670334 0.988459
0 -0.00541024 0.829063
0 -0.00202983 0.31105
0 0.0021337 -0.326968
0 0.00547404 -0.838839
0 0.00670245 -1.02708
0 0.00534501 -0.819066
0 0.00192542 -0.29505
0 -0.00223701 0.342798
0 -0.00553638 0.816382
0 -0.490959 0.983208
0 -0.396251 0.824659
0 -0.148667 0.309398
0 0.156274 -0.325231
0 0.400924 -0.834382
0 0.490894 -1.02162
0 0.391473 -0.814714
0 0.141019 -0.293483
0 -0.163841 0.340977
0 -0.40549 0.812045
0 -0.785799 0.598628
0 -0.634215 0.502095
0 -0.237947 0.188377
0 0.250123 -0.198017
0 0.641694 -0.508016
0 0.785695 -0.622017
0 0.626568 -0.49604
0 0.225707 -0.178687
0 -0.262233 0.207605
0 -0.649002 0.494415
0 -0.777472 -0.0169069
0 -0.627495 -0.0141805
0 -0.235425 -0.00532029
0 0.247473 0.00559254
0 0.634894 0.0143477
0 0.777369 0.0175674
0 0.619928 0.0140095
0 0.223315 0.00504661
0 -0.259455 -0.0058633
0 -0.642125 -0.0139636
0 -0.469191 -0.625919
0 -0.378682 -0.524985
0 -0.142075 -0.196965
0 0.149345 0.207045
0 0.383147 0.531175
0 0.469128 0.650375
0 0.374116 0.518655
0 0.134767 0.186834
0 -0.156576 -0.217069
0 -0.387511 -0.516955
0 0.0201084 -0.993447
0 0.0162294 -0.833246
0 0.00608901 -0.31262
0 -0.00640061 0.328618
0 -0.0164208 0.843072
0 -0.0201058 1.03226
0 -0.0160338 0.823199
0 -0.0057758 0.296539
0 0.0067105 -0.344528
0 0.0166078 -0.820502
0 0.501649 -0.977696
0 0.404879 -0.820035
0 0.151904 -0.307663
0 -0.159677 0.323407
0 -0.409653 0.829704
0 -0.501582 1.0159
0 -0.399997 0.810147
0 -0.14409 0.291837
0 0.167408 -0.339065
0 0.414319 -0.807492
0 0.78965 -0.584742
0 0.637323 -0.471943
0 0.239113 -0.177065
0 -0.251349 0.186126
0 -0.644839 0.477508
0 -0.789545 0.584664
0 -0.629639 0.466253
0 -0.226813 0.167957
0 0.263518 -0.195138
0 0.652183 -0.482947
0 0.630939 0
0 0.535719 0
0 0.200993 0
0 -0.211278 0
0 -0.542036 0
0 -0.663672 0
0 -0.529259 0
0 -0.190654 0
0 0.221507 0
0 0.521101 0
0.0890356 0.387518 0.677705
0.250377 0.334659 0.586687
0.308702 0.125922 0.220801
0.247673 -0.132398 -0.232162
0.0910817 -0.339667 -0.595611
-0.100649 -0.41589 -0.72927
-0.253549 -0.331661 -0.581571
-0.308621 -0.119498 -0.209545
-0.244396 0.137948 0.241778
-0.0801048 0.320056 0.559726
0.143721 -0.00541024 1.09395
0.404157 -0.0046554 0.947027
0.498304 -0.00175165 0.356415
0.399792 0.00184177 -0.374754
0.147023 0.00472506 -0.96143
-0.162467 0.00578534 -1.17718
-0.409276 0.00461366 -0.938769
-0.498173 0.00166233 -0.338247
-0.394501 -0.00191898 0.390276
-0.129305 -0.00446839 0.903505
0.142957 -0.396251 1.08813
0.40201 -0.342098 0.941996
0.495657 -0.128731 0.354521
0.397668 0.135354 -0.372763
0.146242 0.34725 -0.956322
-0.161604 0.425174 -1.17093
-0.407102 0.339065 -0.933782
-0.495527 0.122167 -0.33645
-0.392406 -0.141002 0.388203
-0.128618 -0.327269 0.898705
0.0870397 -0.634215 0.662513
0.244765 -0.547543 0.573536
0.301782 -0.20604 0.215851
0.242121 0.216639 -0.226958
0.0890399 0.555787 -0.582258
-0.0983932 0.68051 -0.712922
-0.247865 0.542689 -0.568534
-0.301703 0.195533 -0.204848
-0.238917 -0.225679 0.236358
-0.0783092 -0.523807 0.547179
-0.00245823 -0.627495 -0.0187111
-0.00691279 -0.541741 -0.0161982
-0.00852307 -0.203857 -0.00609621
-0.00683808 0.214344 0.00640987
-0.00251474 0.549898 0.0164446
0.00277885 0.673298 0.0201348
0.00700033 0.536938 0.016057
0.00852083 0.193461 0.00578544
0.00674766 -0.223288 -0.00667539
0.00221166 -0.518256 -0.0154538
-0.0910078 -0.378682 -0.692716
-0.255923 -0.326932 -0.599682
-0.315539 -0.123024 -0.225691
-0.253158 0.129353 0.237304
-0.0930991 0.331854 0.608804
0.102878 0.406325 0.745421
0.259164 0.324033 0.594454
0.315456 0.11675 0.214187
0.249808 -0.134751 -0.247134
0.0818792 -0.312759 -0.572124
-0.144446 0.0162294 -1.09947
-0.406177 0.0139731 -0.951764
-0.500794 0.00525691 -0.358197
-0.40179 -0.0055272 0.376628
-0.147758 -0.0141801 0.966238
0.163279 -0.0173621 1.18307
0.411322 -0.0138458 0.943462
0.500663 -0.00498862 0.339938
0.396473 0.0057606 -0.392231
0.129957 0.0134041 -0.908065
-0.142156 0.404879 -1.08203
-0.399104 0.348215 -0.935306
-0.492058 0.131 -0.351968
-0.39478 -0.137736 0.370074
-0.14518 -0.353361 0.949426
0.160431 -0.432657 1.16248
0.404146 -0.345032 0.927048
0.491928 -0.124314 0.334021
0.389568 0.143562 -0.385487
0.127897 0.334395 -0.893667
-0.0850207 0.637323 -0.647145
-0.222261 0.514381 -0.522308
-0.273751 0.192987 -0.195961
-0.219626 -0.202863 0.205989
-0.0807675 -0.520447 0.528467
0.0892514 -0.637239 0.647059
0.224836 -0.508179 0.516011
0.273678 -0.18306 0.185881
0.216932 0.212685 -0.215962
0.0764927 0.526374 -0.534486
0 0.236718 0
0 0.200993 0
0 0.075409 0
0 -0.0792679 0
0 -0.203363 0
0 -0.248999 0
0 -0.198569 0
0 -0.0715301 0
0 0.0831058 0
0 0.195508 0
0.143721 0.14539 0.481591
0.404157 0.125922 0.41712
0.498304 0.0473893 0.156995
0.399792 -0.0498273 -0.165075
0.147023 -0.127832 -0.423499
-0.162467 -0.156518 -0.518535
-0.409276 -0.124819 -0.413517
-0.498173 -0.044973 -0.148995
-0.394501 0.0518952 0.171883
-0.129305 0.12008 0.397753
0.231993 -0.00202983 0.777381
0.652388 -0.00175165 0.673311
0.80436 -0.000659208 0.25342
0.645341 0.000693134 -0.266463
0.237324 0.00177824 -0.68361
-0.262253 0.00217729 -0.837016
-0.66065 0.00173633 -0.667496
-0.804148 0.000625615 -0.240507
-0.6368 -0.000721893 0.277452
-0.208723 -0.00167646 0.642049
0.23076 -0.148667 0.773251
0.648922 -0.128731 0.669734
0.800087 -0.0484509 0.252074
0.641912 0.0509443 -0.265048
0.236064 0.130698 -0.679978
-0.26086 0.160027 -0.832569
-0.657141 0.127617 -0.66395
-0.799876 0.0459817 -0.239229
-0.633417 -0.0530476 0.275979
-0.207614 -0.122786 0.638639
0.140499 -0.237947 0.470795
0.395097 -0.20604 0.407769
0.487135 -0.0775477 0.153476
0.39083 0.0815386 -0.161375
0.143727 0.209187 -0.414006
-0.158825 0.25613 -0.506911
-0.400102 0.204256 -0.404248
-0.487006 0.0735959 -0.145655
-0.385657 -0.0849051 0.168031
-0.126406 -0.196524 0.388836
-0.00396806 -0.235425 -0.0132965
-0.0111586 -0.203857 -0.0115165
-0.0137579 -0.0767259 -0.00433456
-0.011038 0.0806746 0.00455763
-0.00405926 0.20697 0.0116927
0.00448562 0.253416 0.0143165
0.0112999 0.202092 0.011417
0.0137543 0.0728159 0.00411369
0.010892 -0.0840055 -0.00474563
0.00357004 -0.194441 -0.0109818
-0.146904 -0.142075 -0.492259
-0.413109 -0.123024 -0.426358
-0.509341 -0.0463028 -0.160472
-0.408646 0.0486859 0.168731
-0.15028 0.124903 0.432879
0.166065 0.152933 0.530021
0.418341 0.121959 0.422676
0.509207 0.0439433 0.152295
0.403239 -0.050696 -0.17569
0.132169 -0.117342 -0.406563
-0.233163 0.00608901 -0.781304
-0.655648 0.00525691 -0.676679
-0.80838 0.00197809 -0.254687
-0.648566 -0.00207983 0.267795
-0.23851 -0.00533579 0.687027
0.263564 -0.00653318 0.841199
0.663952 -0.00521002 0.670833
0.808167 -0.00187719 0.241709
0.639984 0.00216683 -0.278841
0.209776 0.005029 -0.645289
-0.229467 0.151904 -0.768916
-0.644231 0.131 -0.664953
-0.794277 0.0492917 -0.250249
-0.63725 -0.0518269 0.263126
-0.234349 -0.132962 0.675047
0.258965 -0.162799 0.826531
0.652369 -0.129828 0.659136
0.794068 -0.0467773 0.237492
0.628838 0.0539986 -0.274039
0.20645 0.125459 -0.635058
-0.13724 0.239113 -0.459875
-0.358771 0.192987 -0.371163
-0.441886 0.0724055 -0.139254
-0.354518 -0.0761107 0.14638
-0.130374 -0.195263 0.37554
0.144069 -0.239081 0.459814
0.362929 -0.19066 0.366688
0.441769 -0.0686811 0.132091
0.350171 0.0797957 -0.153467
0.123474 0.197487 -0.379817
0 -0.248831 0
0 -0.211278 0
0 -0.0792679 0
0 0.0833243 0
0 0.213769 0
0 0.261741 0
0 0.20873 0
0 0.0751905 0
0 -0.0873586 0
0 -0.205513 0
0.142957 -0.15283 0.0996759
0.40201 -0.132398 0.0863323
0.495657 -0.0498273 0.0324936
0.397668 0.0523911 -0.0341659
0.146242 0.13441 -0.0876528
-0.161604 0.164571 -0.107322
-0.407102 0.131241 -0.0855866
-0.495527 0.0472872 -0.0308379
-0.392406 -0.054563 0.035575
-0.128618 -0.126225 0.0823237
0.23076 0.0021337 0.160896
0.648922 0.00184178 0.139356
0.800087 0.000693134 0.0524509
0.641913 -0.000728807 -0.0551505
0.236064 -0.00186973 -0.141488
-0.26086 -0.00228935 -0.173239
-0.657141 -0.00182569 -0.138153
-0.799876 -0.000657809 -0.0497783
-0.633417 0.000759015 0.0574248
-0.207614 0.00176225 0.132886
0.229534 0.156274 0.160041
0.645475 0.135354 0.138616
0.795837 0.0509443 0.0521723
0.638502 -0.0535663 -0.0548575
0.234809 -0.137424 -0.140736
-0.259474 -0.168263 -0.172319
-0.653651 -0.134185 -0.137419
-0.795627 -0.0483484 -0.0495138
-0.630052 0.0557755 0.0571198
-0.206511 0.129069 0.13218
0.139752 0.250123 0.0974415
0.392999 0.216639 0.0843967
0.484547 0.0815386 0.0317652
0.388753 -0.0857352 -0.0334002
0.142964 -0.219953 -0.0856878
-0.157981 -0.269313 -0.104917
-0.397977 -0.214769 -0.0836681
-0.484419 -0.0773838 -0.0301466
-0.383609 0.0892708 0.0347774
-0.125735 0.20658 0.0804783
-0.00394698 0.247473 -0.00275201
-0.0110993 0.214344 -0.00238359
-0.0136848 0.0806746 -0.000897134
-0.0109794 -0.0848266 0.000943304
-0.00403771 -0.217622 0.00242005
0.00446179 -0.266459 0.00296313
0.0112398 -0.212493 0.00236302
0.0136812 -0.0765637 0.000851417
0.0108342 0.0883248 -0.000982211
0.00355108 0.204391 -0.00227292
-0.146124 0.149345 -0.101884
-0.410914 0.129353 -0.0882442
-0.506635 0.0486859 -0.0332133
-0.406475 -0.0511915 0.0349226
-0.149482 -0.131332 0.0895938
0.165183 -0.160803 0.1097
0.416119 -0.128236 0.0874824
0.506502 -0.0462049 0.0315209
0.401097 0.0533026 -0.0363629
0.131467 0.123346 -0.0841473
-0.231925 -0.00640061 -0.161708
-0.652165 -0.0055272 -0.140054
-0.804085 -0.00207983 -0.0527131
-0.645121 0.0021868 0.0554261
-0.237243 0.00561025 0.142195
0.262164 0.00686923 0.174105
0.660425 0.00547802 0.138843
0.803873 0.00197375 0.0500271
0.636584 -0.00227821 -0.0577122
0.208661 -0.00528635 -0.133557
-0.228248 -0.159677 -0.159144
-0.640809 -0.137736 -0.137627
-0.790057 -0.0518269 -0.0517945
-0.633865 0.0544927 0.0544596
-0.233104 0.139801 0.139716
0.25759 0.171173 0.171069
0.648904 0.136506 0.136423
0.789849 0.0491834 0.0491543
0.625497 -0.0567738 -0.0567185
0.205353 -0.131879 -0.131439
-0.136511 -0.251349 -0.0951813
-0.356865 -0.202863 -0.0768204
-0.439539 -0.0761107 -0.0288217
-0.352635 0.0800056 0.0302966
-0.129682 0.205255 0.0777263
0.143304 0.251316 0.0951686
0.361001 0.200417 0.0758941
0.439422 0.0721957 0.0273392
0.34831 -0.0838791 -0.0317635
0.122818 -0.207593 -0.0786115
0 -0.638379 0
0 -0.542036 0
0 -0.203363 0
0 0.213769 0
0 0.548428 0
0 0.671499 0
0 0.5355 0
0 0.192902 0
0 -0.224119 0
0 -0.527246 0
0.0870397 -0.392088 -0.320695
0.244765 -0.339667 -0.277762
0.301782 -0.127832 -0.104544
0.242121 0.13441 0.109924
0.0890399 0.344826 0.28201
-0.0983932 0.422207 0.345296
-0.247865 0.336699 0.275363
-0.301703 0.121315 0.0992167
-0.238917 -0.139981 -0.114458
-0.0783092 -0.323831 -0.264866
0.140499 0.00547404 -0.517663
0.395097 0.00472506 -0.448361
0.487135 0.00177824 -0.168754
0.39083 -0.00186973 0.177439
0.143727 -0.00479686 0.455219
-0.158825 -0.00587333 0.557372
-0.400102 -0.00468379 0.44449
-0.487006 -0.0016876 0.160155
-0.385657 0.00194724 -0.184757
-0.126406 0.00452108 -0.427545
0.139752 0.400924 -0.514913
0.392999 0.34725 -0.44598
0.484547 0.130698 -0.167857
0.388753 -0.137424 0.176497
0.142964 -0.352561 0.452801
-0.157981 -0.431678 0.554411
-0.397977 -0.344251 0.442128
-0.484419 -0.124038 0.159304
-0.383609 0.143091 -0.183776
-0.125735 0.331128 -0.425274
0.0850886 0.641694 -0.313506
0.239278 0.555787 -0.271536
0.295017 0.209187 -0.1022
0.236693 -0.219953 0.10746
0.0870444 -0.564287 0.275688
-0.0961872 -0.69092 0.337555
-0.242309 -0.550987 0.269191
-0.294939 -0.198528 0.0969926
-0.233561 0.229024 -0.111892
-0.0765537 0.529984 -0.258929
-0.00240313 0.634894 0.00885425
-0.00675784 0.549898 0.00766885
-0.00833204 0.20697 0.00288641
-0.00668483 -0.217622 -0.00303496
-0.00245833 -0.558307 -0.00778617
0.0027166 -0.683597 -0.00953346
0.0068434 -0.545149 -0.00760264
0.00832985 -0.196424 -0.00273934
0.00659639 0.226598 0.00316012
0.00216208 0.524368 0.00731284
-0.0889677 0.383147 0.327798
-0.250186 0.331854 0.283914
-0.308466 0.124903 0.106859
-0.247483 -0.131332 -0.112359
-0.0910121 -0.336931 -0.288256
0.100572 -0.41254 -0.352943
0.253355 -0.328989 -0.281462
0.308385 -0.118539 -0.101414
0.244209 0.136748 0.116993
0.0800438 0.316447 0.270733
-0.141208 -0.0164208 0.520276
-0.397072 -0.0141801 0.450604
-0.489569 -0.00533579 0.169597
-0.392783 0.00561025 -0.178326
-0.144446 0.014393 -0.457494
0.159619 0.017623 -0.560157
0.402102 0.0140539 -0.446711
0.48944 0.00506364 -0.160955
0.387586 -0.00584475 0.185682
0.127044 -0.0135622 0.429703
-0.138969 -0.409653 0.512027
-0.390157 -0.353361 0.442795
-0.481028 -0.132962 0.166642
-0.38593 0.139801 -0.175217
-0.141926 0.358658 -0.449517
0.156834 0.439144 -0.550392
0.395087 0.350206 -0.438922
0.480901 0.12618 -0.158147
0.380835 -0.145653 0.182484
0.12503 -0.338338 0.42289
-0.0831148 -0.644839 0.306234
-0.217278 -0.520447 0.24716
-0.267614 -0.195263 0.0927303
-0.214702 0.205255 -0.0974756
-0.0789569 0.526584 -0.250075
0.0872507 0.644753 -0.306193
0.219796 0.514172 -0.24418
0.267543 0.185219 -0.0879604
0.21207 -0.215193 0.102195
0.074778 -0.532581 0.252923
0 -0.781635 0
0 -0.663672 0
0 -0.248999 0
0 0.261741 0
0 0.671499 0
0 0.822187 0
0 0.65567 0
0 0.23619 0
0 -0.274413 0
0 -0.645563 0
-0.00245823 -0.480075 -0.617339
-0.00691279 -0.41589 -0.534694
-0.00852307 -0.156518 -0.201248
-0.00683808 0.164571 0.211605
-0.00251474 0.422207 0.542872
0.00277885 0.516953 0.664695
0.00700034 0.412255 0.530078
0.00852083 0.148539 0.190992
0.00674766 -0.171394 -0.220332
0.00221166 -0.3965 -0.509869
-0.00396806 0.00670245 -0.996504
-0.0111586 0.00578534 -0.863097
-0.0137579 0.00217729 -0.324852
-0.011038 -0.00228935 0.341571
-0.00405926 -0.00587333 0.876299
0.00448562 -0.00719133 1.07295
0.0112999 -0.00573486 0.855645
0.0137543 -0.00206633 0.308299
0.010892 0.00238423 -0.355658
0.00357004 0.00553564 -0.823027
-0.00394698 0.490894 -0.991211
-0.0110993 0.425174 -0.858512
-0.0136848 0.160027 -0.323127
-0.0109794 -0.168263 0.339757
-0.00403771 -0.431678 0.871644
0.00446179 -0.528551 1.06725
0.0112398 -0.421503 0.851099
0.0136812 -0.151873 0.306661
0.0108342 0.175202 -0.353768
0.00355108 0.405436 -0.818655
-0.00240313 0.785695 -0.603501
-0.00675784 0.68051 -0.522707
-0.00833204 0.25613 -0.196736
-0.00668484 -0.269313 0.206861
-0.00245834 -0.69092 0.530704
0.0027166 -0.845965 0.649796
0.0068434 -0.674634 0.518194
0.00832985 -0.243079 0.186711
0.00659639 0.280418 -0.215393
0.00216208 0.648916 -0.49844
6.78708e-05 0.777369 0.0170445
0.000190857 0.673298 0.0147627
0.000235323 0.253416 0.00555631
0.000188798 -0.266459 -0.00584233
6.94312e-05 -0.683597 -0.0149884
-7.67213e-05 -0.837001 -0.0183519
-0.000193281 -0.667484 -0.0146352
-0.000235261 -0.240502 -0.00527323
-0.000186299 0.277447 0.00608326
-6.1063e-05 0.642039 0.0140773
0.00251268 0.469128 0.631014
0.00706589 0.406325 0.546536
0.00871188 0.152933 0.205704
0.00698956 -0.160803 -0.216292
0.00257042 -0.41254 -0.554894
-0.00284041 -0.505116 -0.679418
-0.00715543 -0.402817 -0.541817
-0.00870959 -0.145139 -0.195223
-0.00689709 0.167435 0.225212
-0.00226065 0.387459 0.521163
0.00398809 -0.0201058 1.00153
0.0112144 -0.0173621 0.867414
0.0138266 -0.00653318 0.326475
0.0110931 0.00686923 -0.343279
0.00407955 0.017623 -0.880679
-0.00450804 0.0215778 -1.07831
-0.0113564 0.0172076 -0.859922
-0.013823 0.00619996 -0.30984
-0.0109464 -0.00715632 0.357438
-0.00358806 -0.0166056 0.82718
0.00392485 -0.501582 0.985654
0.0110191 -0.432657 0.852382
0.0135855 -0.162799 0.320787
0.0108998 0.171173 -0.337292
0.00400839 0.439144 -0.865323
-0.00442938 0.537692 -1.05951
-0.0111582 0.428794 -0.844927
-0.0135819 0.154496 -0.304434
-0.0107558 -0.178339 0.351282
-0.00353117 -0.414264 0.814065
0.00234738 -0.789545 0.589502
0.00613652 -0.637239 0.475785
0.00755813 -0.239081 0.178506
0.00606377 0.251316 -0.187641
0.00222995 0.644753 -0.481395
-0.00246419 0.78944 -0.589423
-0.00620763 0.629555 -0.470048
-0.00755612 0.226783 -0.169324
-0.00598941 -0.263483 0.196726
-0.00211193 -0.652096 0.486878
0 -0.623331 0
0 -0.529259 0
0 -0.198569 0
0 0.20873 0
0 0.5355 0
0 0.65567 0
0 0.522877 0
0 0.188355 0
0 -0.218836 0
0 -0.514818 0
-0.0910078 -0.382845 -0.67581
-0.255923 -0.331661 -0.585335
-0.315539 -0.124819 -0.220308
-0.253158 0.131241 0.231647
-0.0930991 0.336699 0.59429
0.102878 0.412255 0.72765
0.259164 0.328763 0.58028
0.315456 0.118456 0.209082
0.249808 -0.136681 -0.241201
0.0818792 -0.316197 -0.55816
-0.146904 0.00534501 -1.09089
-0.413109 0.00461366 -0.944844
-0.509341 0.00173633 -0.35562
-0.408646 -0.00182569 0.373922
-0.15028 -0.00468379 0.959297
0.166065 -0.00573486 1.17457
0.418341 -0.00457338 0.936686
0.509207 -0.00164785 0.337499
0.403239 0.00190135 -0.389343
0.132169 0.00441451 -0.900978
-0.146124 0.391473 -1.08509
-0.410914 0.339065 -0.939824
-0.506635 0.127617 -0.353731
-0.406476 -0.134185 0.371936
-0.149482 -0.344251 0.954201
0.165183 -0.421503 1.16833
0.416119 -0.336137 0.931709
0.506502 -0.121114 0.335706
0.401097 0.139719 -0.387275
0.131467 0.323323 -0.896192
-0.0889677 0.626568 -0.66066
-0.250186 0.542688 -0.572213
-0.308466 0.204256 -0.21537
-0.247484 -0.214769 0.226454
-0.0910121 -0.550987 0.580965
0.100572 -0.674634 0.71134
0.253355 -0.538003 0.567272
0.308385 -0.193848 0.204395
0.244209 0.223626 -0.235793
0.0800438 0.517491 -0.545648
0.00251268 0.619928 0.0186588
0.00706589 0.536938 0.0161609
0.00871188 0.202092 0.0060826
0.00698956 -0.212493 -0.00639567
0.00257042 -0.545149 -0.0164081
-0.00284042 -0.667484 -0.0200901
-0.00715543 -0.532302 -0.0160214
-0.00870959 -0.191794 -0.00577267
-0.00689709 0.221257 0.00665945
-0.00226065 0.512007 0.0154106
0.0930236 0.374116 0.690779
0.261591 0.324033 0.598301
0.322528 0.121959 0.225188
0.258765 -0.128236 -0.236778
0.0951611 -0.328989 -0.607453
-0.105157 -0.402817 -0.743767
-0.264905 -0.321235 -0.593135
-0.322443 -0.115745 -0.213713
-0.255341 0.133525 0.246543
-0.0836929 0.308987 0.570524
0.147645 -0.0160338 1.09639
0.415174 -0.0138458 0.94957
0.511886 -0.00521002 0.357397
0.410688 0.00547802 -0.375792
0.151031 0.0140539 -0.964092
-0.166895 0.0172076 -1.18044
-0.420432 0.0137226 -0.941368
-0.511752 0.00494428 -0.339186
-0.405255 -0.00570695 0.391293
-0.132836 -0.0132425 0.905525
0.145304 -0.399997 1.07901
0.407944 -0.345032 0.933114
0.502957 -0.129828 0.35117
0.403524 0.136506 -0.369238
0.148396 0.350206 -0.947281
-0.163984 0.428794 -1.15985
-0.413097 0.341951 -0.924953
-0.502824 0.123206 -0.333268
-0.398197 -0.14222 0.384553
-0.13073 -0.330363 0.891168
0.086904 -0.629639 0.645335
0.227184 -0.508179 0.520848
0.279814 -0.19066 0.195413
0.22449 0.200417 -0.205413
0.0825565 0.514172 -0.52699
-0.0912283 0.629555 -0.64525
-0.229817 0.502052 -0.514567
-0.27974 0.180853 -0.185361
-0.221738 -0.21012 0.215358
-0.078187 -0.520027 0.532991
0 -0.224541 0
0 -0.190654 0
0 -0.0715301 0
0 0.0751905 0
0 0.192902 0
0 0.23619 0
0 0.188355 0
0 0.0678506 0
0 -0.0788309 0
0 -0.185452 0
-0.144446 -0.137911 -0.473547
-0.406177 -0.119498 -0.410173
-0.500794 -0.0449731 -0.154381
-0.40179 0.0472874 0.162327
-0.147758 0.121316 0.416449
0.163279 0.148539 0.509902
0.411322 0.118456 0.406633
0.500663 0.0426805 0.146515
0.396473 -0.0492459 -0.16902
0.129957 -0.113903 -0.391109
-0.233163 0.00192542 -0.764396
-0.655648 0.00166234 -0.662097
-0.80838 0.000625618 -0.249201
-0.648566 -0.00065781 0.262027
-0.23851 -0.00168761 0.672228
0.263564 -0.00206633 0.82308
0.663952 -0.00164785 0.656384
0.808167 -0.000593745 0.236503
0.639984 0.000685056 -0.27283
0.209776 0.00159023 -0.631326
-0.231925 0.141019 -0.760336
-0.652165 0.122167 -0.65858
-0.804085 0.0459819 -0.247877
-0.645121 -0.0483485 0.260635
-0.237243 -0.124038 0.668657
0.262164 -0.151873 0.818708
0.660425 -0.121114 0.652897
0.803873 -0.0436391 0.235246
0.636584 0.0503406 -0.271381
0.208661 0.11647 -0.627972
-0.141208 0.225707 -0.462932
-0.397072 0.195534 -0.400979
-0.489569 0.073596 -0.150921
-0.392783 -0.077384 0.158688
-0.144446 -0.198528 0.407114
0.159619 -0.243079 0.498473
0.402102 -0.193849 0.397518
0.48944 -0.069846 0.14323
0.387586 0.0805723 -0.165231
0.127044 0.186415 -0.382342
0.00398809 0.223315 0.0130744
0.0112144 0.193461 0.0113247
0.0138266 0.0728161 0.00426238
0.0110931 -0.0765639 -0.00448175
0.00407955 -0.196424 -0.0114979
-0.00450804 -0.240503 -0.0140781
-0.0113564 -0.191794 -0.0112269
-0.013823 -0.0691059 -0.00404522
-0.0109464 0.0797184 0.00466657
-0.00358806 0.184439 0.0107984
0.147645 0.134767 0.484037
0.415174 0.116751 0.419258
0.511886 0.0439434 0.1578
0.410688 -0.046205 -0.165922
0.151031 -0.118539 -0.425672
-0.166895 -0.14514 -0.521197
-0.420432 -0.115745 -0.415639
-0.511752 -0.0417043 -0.14976
-0.405255 0.0481087 0.172764
-0.132836 0.111306 0.399773
0.23434 -0.0057758 0.768254
0.658926 -0.00498863 0.665409
0.812419 -0.00187719 0.250447
0.651807 0.00197375 -0.263337
0.239702 0.00506366 -0.675588
-0.264882 0.00619997 -0.827194
-0.66727 0.00494429 -0.659664
-0.812205 0.00178145 -0.237685
-0.643183 -0.00205617 0.274196
-0.210834 -0.00477031 0.634512
0.230625 -0.14409 0.756073
0.647453 -0.124314 0.653877
0.798249 -0.0467774 0.246082
0.640436 0.0491835 -0.258744
0.235521 0.12618 -0.663807
-0.26026 0.154496 -0.81277
-0.65563 0.123206 -0.648162
-0.798038 0.0443916 -0.233538
-0.631982 -0.0512406 0.269473
-0.207492 -0.119006 0.624451
0.137932 -0.226813 0.452194
0.360582 -0.18306 0.364964
0.444116 -0.0686811 0.136928
0.356307 0.0721957 -0.143935
0.131032 0.185219 -0.369268
-0.144796 0.226783 -0.452134
-0.364761 0.180853 -0.360563
-0.443998 0.0651482 -0.129885
-0.351938 -0.0756911 0.150904
-0.124097 -0.187328 0.373473
0 0.260879 0
0 0.221507 0
0 0.0831058 0
0 -0.0873586 0
0 -0.224119 0
0 -0.274413 0
0 -0.218836 0
0 -0.0788309 0
0 0.0915881 0
0 0.215463 0
-0.142156 0.16023 -0.0885874
-0.399104 0.137941 -0.0774713
-0.492058 0.0518925 -0.0291769
-0.39478 -0.0545601 0.0306807
-0.14518 -0.139974 0.0787109
0.160431 -0.171385 0.0963742
0.404146 -0.136674 0.0768559
0.491928 -0.0492432 0.0276936
0.389568 0.0568728 -0.0319015
0.127897 0.132336 -0.0731656
-0.229467 -0.00223701 -0.142997
-0.644231 -0.00191886 -0.125053
-0.794277 -0.000721849 -0.0470972
-0.63725 0.000758966 0.0495246
-0.234349 0.00194711 0.127055
0.258965 0.00238407 0.155566
0.652369 0.00190123 0.12406
0.794068 0.00068501 0.0447028
0.628838 -0.000791169 -0.0514953
0.20645 -0.00184758 -0.118103
-0.228248 -0.163841 -0.142238
-0.640809 -0.140994 -0.124389
-0.790057 -0.0530447 -0.046847
-0.633865 0.0557724 0.0492615
-0.233104 0.143083 0.12638
0.25759 0.175192 0.15474
0.648904 0.139711 0.123401
0.789849 0.0503377 0.0444654
0.625497 -0.058127 -0.0512217
0.205353 -0.135318 -0.117476
-0.138969 -0.262233 -0.0866016
-0.390157 -0.225667 -0.0757346
-0.481028 -0.0849004 -0.0285229
-0.38593 0.0892657 0.0299929
-0.141926 0.229011 0.0769466
0.156834 0.280403 0.0942139
0.395087 0.223614 0.0751331
0.480901 0.0805676 0.0270728
0.380835 -0.0930345 -0.0311864
0.12503 -0.216582 -0.0715255
0.00392485 -0.259455 0.00244586
0.0110191 -0.223276 0.00213894
0.0135855 -0.0840008 0.000805561
0.0108998 0.0883198 -0.000847077
0.00400839 0.226585 -0.00217316
-0.00442938 0.277431 -0.00266085
-0.0111582 0.221244 -0.00212194
-0.0135819 0.0797138 -0.000764608
-0.0107558 -0.0920485 0.00088079
-0.00353117 -0.214287 0.00202007
0.145304 -0.156576 0.0905497
0.407944 -0.134744 0.079187
0.502957 -0.0506931 0.0298232
0.403524 0.0532996 -0.0313602
0.148396 0.13674 -0.0804543
-0.163984 0.167426 -0.0985089
-0.413097 0.133517 -0.078558
-0.502824 0.0481059 -0.028307
-0.398197 -0.0555498 0.0326082
-0.13073 -0.129318 0.0747863
0.230625 0.0067105 0.143719
0.647453 0.0057603 0.125677
0.798249 0.00216671 0.0473321
0.640436 -0.00227809 -0.0497715
0.235521 -0.00584443 -0.127688
-0.26026 -0.00715594 -0.156342
-0.65563 -0.00570664 -0.124679
-0.798038 -0.00205606 -0.0449257
-0.631982 0.0023753 0.0517525
-0.207492 0.00554229 0.118699
0.226968 0.167408 0.14144
0.636211 0.143554 0.123463
0.784362 0.0539957 0.0464924
0.629296 -0.0567708 -0.0488878
0.231424 -0.145645 -0.125421
-0.255733 -0.178329 -0.153567
-0.644226 -0.142212 -0.122465
-0.784156 -0.0512377 -0.0441277
-0.621007 0.0591973 0.0508472
-0.204202 0.138265 0.116817
0.135745 0.263518 0.0845928
0.354865 0.212685 0.0682745
0.437075 0.0797957 0.0256154
0.350658 -0.0838791 -0.0269263
0.128955 -0.215193 -0.0690796
-0.1425 -0.263483 -0.0845816
-0.358977 -0.21012 -0.0674513
-0.436958 -0.0756911 -0.0242978
-0.346358 0.0879402 0.0282299
-0.122129 0.217644 0.0698664
0 0.645649 0
0 0.521101 0
0 0.195508 0
0 -0.205513 0
0 -0.527246 0
0 -0.645563 0
0 -0.514818 0
0 -0.185452 0
0 0.215463 0
0 0.533251 0
-0.0850207 0.396553 0.330551
-0.222261 0.320056 0.266786
-0.273751 0.12008 0.100094
-0.219626 -0.126225 -0.105216
-0.0807675 -0.323831 -0.269932
0.0892514 -0.3965 -0.330507
0.224836 -0.316197 -0.263569
0.273678 -0.113903 -0.0949449
0.216932 0.132336 0.11031
0.0764927 0.327519 0.273006
-0.13724 -0.00553638 0.533572
-0.358771 -0.00446839 0.430644
-0.441886 -0.00167647 0.16157
-0.354518 0.00176226 -0.169838
-0.130374 0.00452108 -0.435722
0.144069 0.00553565 -0.533501
0.362929 0.00441451 -0.425452
0.441769 0.00159023 -0.153259
0.350171 -0.00184758 0.178061
0.123474 -0.00457257 0.440685
-0.136511 -0.40549 0.530738
-0.356865 -0.327269 0.428357
-0.439539 -0.122786 0.160712
-0.352635 0.129069 -0.168936
-0.129682 0.331128 -0.433408
0.143304 0.405436 -0.530667
0.361001 0.323323 -0.423192
0.439422 0.11647 -0.152445
0.34831 -0.135318 0.177116
0.122818 -0.3349 0.438344
-0.0831148 -0.649002 0.323141
-0.217278 -0.523807 0.260806
-0.267614 -0.196524 0.0978499
-0.214702 0.20658 -0.102857
-0.0789569 0.529984 -0.263881
0.0872507 0.648916 -0.323098
0.219796 0.517491 -0.257661
0.267543 0.186415 -0.0928166
0.21207 -0.216582 0.107837
0.074778 -0.53602 0.266887
0.00234738 -0.642125 -0.00912636
0.00613652 -0.518256 -0.00736585
0.00755813 -0.194441 -0.00276354
0.00606377 0.204391 0.00290496
0.00222995 0.524368 0.00745271
-0.00246419 0.642039 0.00912515
-0.00620763 0.512008 0.00727703
-0.00755612 0.184439 0.00262139
-0.00598941 -0.214287 -0.00304561
-0.00211193 -0.53034 -0.00753759
0.086904 -0.387511 -0.337873
0.227184 -0.312759 -0.272696
0.279814 -0.117342 -0.102311
0.22449 0.123346 0.107546
0.0825565 0.316447 0.275911
-0.0912283 0.387459 0.337828
-0.229817 0.308987 0.269408
-0.27974 0.111306 0.097048
-0.221738 -0.129318 -0.112753
-0.078187 -0.320051 -0.279054
0.137932 0.0166078 -0.536265
0.360582 0.0134041 -0.432817
0.444116 0.005029 -0.162386
0.356307 -0.00528635 0.170696
0.131032 -0.0135622 0.437921
-0.144796 -0.0166056 0.536194
-0.364761 -0.0132425 0.427599
-0.443998 -0.00477031 0.154033
-0.351938 0.00554229 -0.17896
-0.124097 0.0137166 -0.442909
0.135745 0.414319 -0.527762
0.354865 0.334395 -0.425955
0.437075 0.125459 -0.159811
0.350658 -0.13188 0.167989
0.128955 -0.338338 0.430978
-0.1425 -0.414264 0.527692
-0.358977 -0.330363 0.420819
-0.436958 -0.119006 0.151591
-0.346358 0.138265 -0.176123
-0.122129 0.342192 -0.435886
0.0811869 0.652183 -0.315645
0.212238 0.526374 -0.254756
0.261406 0.197487 -0.0955802
0.209722 -0.207593 0.100471
0.0771254 -0.532581 0.25776
-0.0852268 -0.652096 0.315603
-0.214698 -0.520027 0.251684
-0.261337 -0.187328 0.0906636
-0.20715 0.217644 -0.105336
-0.0730434 0.538647 -0.260696
