# vtk DataFile Version 3.0
Velocity field
ASCII
DATASET STRUCTURED_POINTS
DIMENSIONS 10 10 10
SPACING 0.631579 0.631579 0.631579
ORIGIN 0 0 0
POINT_DATA 1000
VECTORS velocity float
0 0.0465584 0
0 0.0375771 0
0 0.0140983 0
0 -0.0148197 0
0 -0.0380202 0
0 -0.0465522 0
0 -0.037124 0
0 -0.0133731 0
0 0.0155373 0
0 0.0384532 0
0 0.0285958 0.0364703
0 0.0230796 0.0305892
0 0.00865906 0.0114765
0 -0.00910217 -0.0120638
0 -0.0233517 -0.0309499
0 -0.028592 -0.0378952
0 -0.0228013 -0.0302203
0 -0.00821365 -0.0108862
0 0.00954287 0.0126479
0 0.0236177 0.0301213
0 -0.000399234 0.05887
0 -0.00032222 0.0493768
0 -0.000120891 0.0185253
0 0.000127078 -0.0194733
0 0.00032602 -0.0499591
0 0.00039918 -0.0611702
0 0.000318335 -0.0487814
0 0.000114673 -0.0175724
0 -0.00013323 0.0204162
0 -0.000329733 0.0486216
0 -0.0292402 0.0585573
0 -0.0235997 0.0491145
0 -0.0088542 0.0184269
0 0.0093073 -0.0193699
0 0.023878 -0.0496937
0 0.0292364 -0.0608452
0 0.0233151 -0.0485223
0 0.00839875 -0.0174791
0 -0.00975792 0.0203077
0 -0.0241499 0.0483633
0 -0.0468001 0.0356527
0 -0.0377722 0.0299035
0 -0.0141715 0.0112193
0 0.0148967 -0.0117934
0 0.0382176 -0.0302561
0 0.0467939 -0.0370457
0 0.0373168 -0.0295429
0 0.0134425 -0.0106422
0 -0.0156179 0.0123644
0 -0.0386529 0.0294461
0 -0.0463042 -0.00100693
0 -0.037372 -0.000844554
0 -0.0140213 -0.000316863
0 0.0147388 0.000333077
0 0.0378126 0.000854513
0 0.0462981 0.00104627
0 0.0369213 0.00083437
0 0.0133001 0.000300564
0 -0.0154524 -0.000349204
0 -0.0382433 -0.000831636
0 -0.0279438 -0.0372781
0 -0.0225533 -0.0312667
0 -0.00846162 -0.0117307
0 0.00889463 0.012331
0 0.0228193 0.0316354
0 0.0279401 0.0387346
0 0.0222814 0.0308897
0 0.00802636 0.0111273
0 -0.00932527 -0.0129281
0 -0.0230792 -0.0307885
0 0.00119761 -0.0591671
0 0.000966584 -0.049626
0 0.000362646 -0.0186188
0 -0.000381203 0.0195716
0 -0.000977981 0.0502112
0 -0.00119745 0.0614789
0 -0.000954929 0.0490276
0 -0.000343992 0.0176611
0 0.00039966 -0.0205192
0 0.00098912 -0.0488669
0 0.0298769 -0.058229
0 0.0241135 -0.0488391
0 0.00904699 -0.0183236
0 -0.00950995 0.0192613
0 -0.0243979 0.0494151
0 -0.0298729 0.0605041
0 -0.0238228 0.0482503
0 -0.00858162 0.0173811
0 0.00997039 -0.0201938
0 0.0246757 -0.0480921
0 0.0470295 -0.0348257
0 0.0379573 -0.0281077
0 0.0142409 -0.0105455
0 -0.0149697 0.0110852
0 -0.0384049 0.0284392
0 -0.0470232 0.0348211
0 -0.0374996 0.0277688
0 -0.0135084 0.0100031
0 0.0156945 -0.0116219
0 0.0388423 -0.028763
0 0.0375771 0
0 0.031906 0
0 0.0119706 0
0 -0.0125832 0
0 -0.0322822 0
0 -0.0395266 0
0 -0.0315213 0
0 -0.0113548 0
0 0.0131924 0
0 0.0310354 0
0.00530273 0.0230796 0.0403623
0.0139157 0.0187035 0.0327048
0.0171396 0.0070173 0.0122704
0.0137508 -0.00737639 -0.0128983
0.00505686 -0.0189242 -0.0330908
-0.00558803 -0.0231709 -0.0405166
-0.014077 -0.0184781 -0.0323108
-0.017135 -0.00665634 -0.0116392
-0.0135821 0.00773337 0.0135226
-0.00477084 0.0190617 0.0333358
0.00855962 -0.00032222 0.0651526
0.0224626 -0.000261049 0.0527919
0.0276665 -9.79422e-05 0.0198068
0.0221964 0.000102954 -0.0208204
0.00816275 0.00026413 -0.053415
-0.00902016 0.000323403 -0.0654016
-0.022723 0.000257904 -0.0521558
-0.0276592 9.29041e-05 -0.018788
-0.0219241 -0.000107937 0.021828
-0.00770105 -0.000266126 0.0538104
0.00851415 -0.0235997 0.0648065
0.0223433 -0.0191202 0.0525114
0.0275195 -0.00717366 0.0197016
0.0220785 0.00754075 -0.0207098
0.00811939 0.0193459 -0.0531312
-0.00897224 0.0236872 -0.0650542
-0.0226023 0.0188899 -0.0518787
-0.0275122 0.00680465 -0.0186882
-0.0218077 -0.0079057 0.021712
-0.00766014 -0.0194913 0.0535246
0.00518386 -0.0377722 0.0394575
0.0136038 -0.0306027 0.0319717
0.0167553 -0.0114817 0.0119953
0.0134426 0.0120693 -0.0126092
0.0049435 0.0309639 -0.032349
-0.00546277 0.0379124 -0.0396083
-0.0137614 0.030234 -0.0315865
-0.0167509 0.0108911 -0.0113783
-0.0132777 -0.0126534 0.0132194
-0.00466389 -0.0311966 0.0325885
-0.000146406 -0.037372 -0.00111439
-0.000384207 -0.0302784 -0.000902966
-0.000473216 -0.0113601 -0.00033878
-0.000379653 0.0119414 0.000356118
-0.000139618 0.0306357 0.000913622
0.000154283 0.0375106 0.00111864
0.000388661 0.0299136 0.000892087
0.00047309 0.0107757 0.000321354
0.000374996 -0.0125193 -0.000373352
0.000131721 -0.030866 -0.000920387
-0.00542019 -0.0225533 -0.0412564
-0.014224 -0.0182724 -0.0334293
-0.0175192 -0.00685557 -0.0125422
-0.0140554 0.00720641 0.013184
-0.00516887 0.0184881 0.0338238
0.00571182 0.022637 0.0414141
0.0143889 0.0180523 0.0330265
0.0175145 0.00650294 0.011897
0.013883 -0.00755517 -0.0138221
0.00487651 -0.0186271 -0.0340742
-0.00860282 0.000966584 -0.0654813
-0.022576 0.000783115 -0.0530583
-0.0278061 0.000293815 -0.0199068
-0.0223084 -0.00030885 0.0209255
-0.00820395 -0.000792358 0.0536845
0.00906569 -0.000970168 0.0657317
0.0228377 -0.000773681 0.052419
0.0277987 -0.000278701 0.0188828
0.0220348 0.000323797 -0.0219382
0.00773991 0.000798314 -0.054082
-0.00846642 0.0241135 -0.0644431
-0.0222179 0.0195363 -0.0522168
-0.0273651 0.00732975 -0.019591
-0.0219546 -0.00770484 0.0205936
-0.00807383 -0.0197668 0.0528331
0.00892191 -0.0242027 0.0646892
0.0224755 -0.0193009 0.0515876
0.0273578 -0.00695272 0.0185833
0.0216853 0.00807772 -0.0215902
0.00761719 0.0199157 -0.0532245
-0.00506361 0.0379573 -0.0385423
-0.0132373 0.0306352 -0.0311073
-0.0163039 0.0114938 -0.0116709
-0.0130803 -0.012082 0.0122682
-0.0048103 -0.0309965 0.0314742
0.00531558 -0.0379523 0.0385372
0.0133907 -0.0302658 0.0307322
0.0162995 -0.0109026 0.0110706
0.0129199 0.012667 -0.0128622
0.00455571 0.0313495 -0.0318326
0 0.0140983 0
0 0.0119706 0
0 0.00449116 0
0 -0.00472099 0
0 -0.0121117 0
0 -0.0148297 0
0 -0.0118262 0
0 -0.00426014 0
0 0.00494956 0
0 0.011644 0
0.00855962 0.00865906 0.0286823
0.0224626 0.00701729 0.0232383
0.0276665 0.0026328 0.00871873
0.0221964 -0.00276753 -0.00916489
0.00816275 -0.00710012 -0.0235126
-0.00902016 -0.00869344 -0.028789
-0.022723 -0.00693275 -0.0229584
-0.0276591 -0.00249737 -0.00827022
-0.0219241 0.00290146 0.00960843
-0.00770105 0.00715163 0.0236891
0.0138169 -0.000120891 0.0462988
0.036259 -9.79422e-05 0.0375112
0.0446591 -3.67466e-05 0.0140737
0.0358292 3.8627e-05 -0.0147939
0.0131762 9.90982e-05 -0.0379539
-0.0145603 0.000121336 -0.046471
-0.0366793 9.67623e-05 -0.0370592
-0.0446472 3.48564e-05 -0.0133498
-0.0353898 -4.04965e-05 0.0155099
-0.012431 -9.98458e-05 0.0382388
0.0137435 -0.0088542 0.0460528
0.0360664 -0.00717366 0.0373119
0.0444218 -0.00269146 0.0139989
0.035639 0.00282919 -0.0147153
0.0131062 0.00725833 -0.0377523
-0.014483 0.00888713 -0.0462241
-0.0364845 0.00708723 -0.0368623
-0.04441 0.00255301 -0.0132788
-0.0352018 -0.00296611 0.0154275
-0.0123649 -0.0073128 0.0380357
0.00836775 -0.0141715 0.0280394
0.0219591 -0.0114817 0.0227174
0.0270464 -0.00430779 0.00852328
0.0216988 0.00452823 -0.00895943
0.00797976 0.0116172 -0.0229856
-0.00881797 0.0142242 -0.0281436
-0.0222136 0.0113434 -0.0224437
-0.0270392 0.0040862 -0.00808485
-0.0214327 -0.00474738 0.00939304
-0.00752842 -0.0117044 0.0231581
-0.000236327 -0.0140213 -0.000791906
-0.000620183 -0.0113601 -0.0006416
-0.000763861 -0.00426214 -0.00024072
-0.000612833 0.00448024 0.000253039
-0.00022537 0.0114941 0.000649173
0.000249043 0.0140735 0.000794851
0.000627373 0.0112232 0.00063387
0.000763658 0.0040429 0.000228337
0.000605316 -0.00469707 -0.000265284
0.000212623 -0.0115804 -0.000654046
-0.00874922 -0.00846162 -0.0293176
-0.0229602 -0.00685557 -0.0237531
-0.0282794 -0.00257212 -0.00891185
-0.0226881 0.00270375 0.00936789
-0.00834354 0.00693649 0.0240334
0.00921995 0.00849309 0.0294266
0.0232264 0.006773 0.0234669
0.0282719 0.00243982 0.00845342
0.0224098 -0.0028346 -0.00982126
0.00787163 -0.00698856 -0.0242138
-0.0138866 0.000362646 -0.0465324
-0.036442 0.000293815 -0.0377005
-0.0448844 0.000110235 -0.0141447
-0.0360101 -0.000115876 0.0148685
-0.0132427 -0.000297282 0.0381455
0.0146337 -0.000363995 0.0467055
0.0368644 -0.000290274 0.0372462
0.0448725 -0.000104565 0.0134171
0.0355684 0.000121484 -0.0155881
0.0124937 0.000299514 -0.0384318
-0.0136664 0.00904699 -0.0457946
-0.035864 0.00732975 -0.0371025
-0.0441726 0.00275002 -0.0139204
-0.0354389 -0.00289075 0.0146327
-0.0130327 -0.00741626 0.0375404
0.0144017 -0.00908052 0.0459648
0.0362798 -0.00724145 0.0366555
0.0441608 -0.00260857 0.0132043
0.0350043 0.00303066 -0.0153409
0.0122956 0.00747203 -0.0378224
-0.00817365 0.0142409 -0.0273889
-0.0213675 0.0114938 -0.0221055
-0.0263176 0.00431228 -0.00829361
-0.0211142 -0.00453296 0.00871802
-0.00776475 -0.0116294 0.0223662
0.00858037 -0.0142391 0.0273853
0.0216151 -0.0113552 0.021839
0.0263106 -0.00409047 0.007867
0.0208553 0.00475243 -0.00914012
0.00735379 0.0117618 -0.0226209
0 -0.0148197 0
0 -0.0125832 0
0 -0.00472099 0
0 0.00496258 0
0 0.0127315 0
0 0.0155886 0
0 0.0124314 0
0 0.00447815 0
0 -0.00520285 0
0 -0.0122398 0
0.00851415 -0.00910217 0.00593644
0.0223433 -0.00737639 0.00480969
0.0275195 -0.00276752 0.00180453
0.0220785 0.00290915 -0.00189688
0.00811939 0.00746345 -0.00486645
-0.00897224 0.0091383 -0.00595851
-0.0226023 0.00728753 -0.00475174
-0.0275122 0.00262517 -0.0017117
-0.0218077 -0.00304994 0.00198868
-0.00766014 -0.0075176 0.00490299
0.0137435 0.000127078 0.00958255
0.0360664 0.000102954 0.00776376
0.0444218 3.8627e-05 0.00291286
0.035639 -4.06037e-05 -0.00306192
0.0131062 -0.000104169 -0.00785538
-0.014483 -0.000127546 -0.00961821
-0.0364845 -0.000101714 -0.00767023
-0.04441 -3.66401e-05 -0.00276303
-0.0352018 4.25688e-05 0.0032101
-0.0123649 0.000104955 0.00791437
0.0136705 0.0093073 0.00953165
0.0358748 0.00754075 0.00772252
0.0441859 0.00282919 0.00289739
0.0354496 -0.00297397 -0.00304565
0.0130366 -0.00762976 -0.00781365
-0.014406 -0.00934191 -0.00956711
-0.0362907 -0.00744989 -0.00762949
-0.0441741 -0.00268366 -0.00274835
-0.0350148 0.0031179 0.00319305
-0.0122993 0.00768702 0.00787232
0.0083233 0.0148967 0.00580336
0.0218424 0.0120693 0.00470187
0.0269027 0.00452823 0.00176408
0.0215836 -0.00475996 -0.00185435
0.00793737 -0.0122117 -0.00475737
-0.00877112 -0.0149521 -0.00582495
-0.0220957 -0.0119238 -0.00464522
-0.0268956 -0.00429531 -0.00167334
-0.0213188 0.00499031 0.0019441
-0.00748842 0.0123034 0.00479308
-0.000235072 0.0147388 -0.000163902
-0.000616889 0.0119414 -0.000132793
-0.000759802 0.00448024 -4.98222e-05
-0.000609578 -0.00470951 5.2372e-05
-0.000224173 -0.0120823 0.000134361
0.00024772 -0.0147936 0.000164512
0.00062404 -0.0117975 0.000131193
0.0007596 -0.00424979 4.72595e-05
0.000602102 0.00493743 -5.49065e-05
0.000211493 0.012173 -0.000135369
-0.00870275 0.00889463 -0.00606793
-0.0228383 0.00720641 -0.00491623
-0.0281291 0.00270375 -0.0018445
-0.0225675 -0.00284211 0.00193889
-0.00829922 -0.00729146 0.00497424
0.009171 -0.00892771 0.0060905
0.023103 -0.00711959 0.00485699
0.0281216 -0.00256467 0.00174962
0.0222907 0.00297965 -0.00203273
0.00782981 0.00734619 -0.00501159
-0.0138128 -0.000381203 -0.00963091
-0.0362484 -0.00030885 -0.00780293
-0.044646 -0.000115876 -0.00292756
-0.0358187 0.000121806 0.00307737
-0.0131724 0.000312495 0.00789503
0.014556 0.000382621 0.00966673
0.0366686 0.000305129 0.00770894
0.0446341 0.000109916 0.00277697
0.0353794 -0.000127701 -0.0032263
0.0124273 -0.000314841 -0.00795431
-0.0135938 -0.00950995 -0.00947821
-0.0356735 -0.00770483 -0.00767919
-0.0439379 -0.00289075 -0.00288113
-0.0352507 0.00303868 0.00302856
-0.0129635 0.00779576 0.00776981
0.0143252 0.00954521 0.00951343
0.0360871 0.00761202 0.00758668
0.0439263 0.00274206 0.00273293
0.0348183 -0.00318574 -0.00317514
0.0122303 -0.00785439 -0.00782819
-0.00813023 -0.0149697 -0.00566875
-0.021254 -0.012082 -0.00457523
-0.0261778 -0.00453296 -0.00171655
-0.021002 0.00476492 0.00180439
-0.0077235 0.0122245 0.00462918
0.00853479 0.0149677 0.00566799
0.0215003 0.0119363 0.00452006
0.0261708 0.00429979 0.00162825
0.0207445 -0.00499562 -0.00189175
0.00731472 -0.0123637 -0.0046819
0 -0.0380202 0
0 -0.0322822 0
0 -0.0121117 0
0 0.0127315 0
0 0.0326629 0
0 0.0399927 0
0 0.031893 0
0 0.0114887 0
0 -0.013348 0
0 -0.0314014 0
0.00518386 -0.0233517 -0.0190998
0.0136038 -0.0189242 -0.0154746
0.0167553 -0.00710012 -0.00580586
0.0134426 0.00746345 0.00610296
0.0049435 0.0191476 0.0156572
-0.00546277 0.0234444 0.0191708
-0.0137614 0.0186962 0.0152882
-0.0167509 0.0067349 0.0055072
-0.0132777 -0.00782465 -0.00639831
-0.00466389 -0.0192865 -0.0157748
0.00836775 0.00032602 -0.0308307
0.0219591 0.00026413 -0.024979
0.0270464 9.90982e-05 -0.00937176
0.0216988 -0.000104169 0.00985136
0.00797976 -0.000267247 0.0252738
-0.00881797 -0.00032722 0.0309454
-0.0222136 -0.000260948 0.024678
-0.0270392 -9.40005e-05 0.0088897
-0.0214327 0.000109211 -0.0103281
-0.00752842 0.000269264 -0.0254635
0.0083233 0.023878 -0.0306669
0.0218424 0.0193459 -0.0248463
0.0269027 0.00725833 -0.00932197
0.0215836 -0.00762976 0.00979902
0.00793737 -0.0195742 0.0251395
-0.00877112 -0.0239668 0.030781
-0.0220957 -0.0191128 0.0245469
-0.0268956 -0.00688495 0.00884247
-0.0213188 0.007999 -0.0102733
-0.00748842 0.0197211 -0.0253282
0.00506765 0.0382176 -0.0186716
0.0132988 0.0309639 -0.0151277
0.0163798 0.0116172 -0.00567571
0.0131412 -0.0122117 0.00596615
0.00483269 -0.0313292 0.0153062
-0.00534032 -0.0383598 0.018741
-0.013453 -0.0305908 0.0149454
-0.0163754 -0.0110196 0.00538376
-0.01298 0.0128027 -0.00625489
-0.00455934 0.0315645 -0.0154211
-0.000143124 0.0378126 0.000527336
-0.000375594 0.0306357 0.000427246
-0.000462607 0.0114941 0.000160297
-0.000371142 -0.0120823 -0.0001685
-0.000136488 -0.0309973 -0.000432288
0.000150825 -0.0379533 -0.000529297
0.000379948 -0.0302666 -0.000422099
0.000462484 -0.0109029 -0.000152052
0.000366591 0.0126671 0.000176655
0.000128768 0.03123 0.000435534
-0.00529868 0.0228193 0.0195228
-0.0139051 0.0184881 0.0158173
-0.0171265 0.00693649 0.00593445
-0.0137403 -0.00729146 -0.00623815
-0.005053 -0.0187063 -0.016004
0.00558377 -0.0229042 -0.0195954
0.0140663 -0.0182654 -0.0156268
0.017122 -0.00657969 -0.00562919
0.0135718 0.00764434 0.00654004
0.0047672 0.0188467 0.0161242
-0.00840997 -0.000977981 0.0309863
-0.0220699 -0.000792358 0.025105
-0.0271829 -0.000297282 0.00941906
-0.0218083 0.000312495 -0.00990105
-0.00802003 0.000801708 -0.0254013
0.00886246 0.000981617 -0.0311015
0.0223257 0.000782812 -0.0248026
0.0271757 0.00028199 -0.00893455
0.0215409 -0.000327619 0.0103802
0.00756641 -0.000807728 0.025592
-0.00827663 -0.0243979 0.030495
-0.0217199 -0.0197668 0.0247069
-0.0267518 -0.00741626 0.00926967
-0.0214625 0.00779576 -0.00974404
-0.00789283 0.0200001 -0.0249984
0.00872191 0.0244883 -0.0306083
0.0219717 0.0195287 -0.0244092
0.0267446 0.00703478 -0.00879285
0.0211992 -0.00817306 0.0102156
0.00744644 -0.0201505 0.0251862
-0.0049501 -0.0384049 0.0182385
-0.0129405 -0.0309965 0.0147202
-0.0159384 -0.0116294 0.00552278
-0.0127871 0.0122245 -0.00580539
-0.00470247 0.031362 -0.0148938
0.00519642 0.0383998 -0.0182361
0.0130905 0.0306227 -0.0145427
0.0159342 0.0110312 -0.00523869
0.0126303 -0.0128163 0.00608647
0.00445358 -0.0317192 0.0150634
0 -0.0465522 0
0 -0.0395266 0
0 -0.0148297 0
0 0.0155886 0
0 0.0399927 0
0 0.0489673 0
0 0.03905 0
0 0.0140669 0
0 -0.0163433 0
0 -0.0384481 0
-0.000146406 -0.028592 -0.0367671
-0.000384207 -0.0231709 -0.0297886
-0.000473216 -0.00869344 -0.0111763
-0.000379653 0.0091383 0.0117482
-0.000139618 0.0234444 0.0301402
0.000154283 0.0287055 0.0369038
0.000388661 0.0228918 0.0294297
0.00047309 0.00824625 0.0106014
0.000374996 -0.00958056 -0.0123168
0.000131721 -0.0236145 -0.0303665
-0.000236327 0.00039918 -0.0593492
-0.000620183 0.000323403 -0.0480845
-0.000763861 0.000121336 -0.0180407
-0.000612833 -0.000127546 0.0189639
-0.00022537 -0.00032722 0.048652
0.000249043 -0.000400649 0.0595698
0.000627373 -0.000319506 0.0475052
0.000763658 -0.000115095 0.0171127
0.000605316 0.000133718 -0.0198817
0.000212623 0.000329688 -0.0490173
-0.000235072 0.0292364 -0.0590339
-0.000616889 0.0236872 -0.0478291
-0.000759802 0.00888713 -0.0179448
-0.000609578 -0.00934191 0.0188632
-0.000224173 -0.0239668 0.0483936
0.00024772 -0.029345 0.0592534
0.00062404 -0.0234019 0.0472528
0.0007596 -0.00842998 0.0170218
0.000602102 0.00979403 -0.019776
0.000211493 0.0241467 -0.0487569
-0.000143124 0.0467939 -0.0359429
-0.000375594 0.0379124 -0.0291209
-0.000462607 0.0142242 -0.0109258
-0.000371142 -0.0149521 0.0114849
-0.000136488 -0.0383598 0.0294645
0.000150825 -0.046968 0.0360766
0.000379948 -0.0374555 0.0287701
0.000462484 -0.0134925 0.0103638
0.000366591 0.0156757 -0.0120407
0.000128768 0.0386477 -0.0296858
4.04221e-06 0.0462981 0.00101512
1.06078e-05 0.0375106 0.000822451
1.30653e-05 0.0140735 0.000308573
1.04821e-05 -0.0147936 -0.000324363
3.85478e-06 -0.0379533 -0.000832159
-4.25969e-06 -0.0464703 -0.0010189
-1.07307e-05 -0.0370586 -0.000812541
-1.30618e-05 -0.0133496 -0.0002927
-1.03535e-05 0.0155096 0.000340061
-3.63675e-06 0.0382382 0.000838405
0.000149649 0.0279401 0.0375815
0.000392718 0.022637 0.0304485
0.000483698 0.00849309 0.0114239
0.000388063 -0.00892771 -0.0120084
0.00014271 -0.0229042 -0.0308079
-0.000157701 -0.0280439 -0.0377213
-0.000397269 -0.0223642 -0.0300816
-0.00048357 -0.00805622 -0.0108362
-0.000383303 0.00935977 0.0125896
-0.000134638 0.0230761 0.0310391
0.00023752 -0.00119745 0.0596487
0.000623313 -0.000970168 0.0483272
0.000767716 -0.000363995 0.0181317
0.000615927 0.000382621 -0.0190596
0.000226507 0.000981617 -0.0488976
-0.0002503 0.0012019 -0.0598705
-0.000630539 0.000958481 -0.0477449
-0.000767512 0.000345271 -0.0171991
-0.000608371 -0.000401138 0.019982
-0.000213696 -0.000988987 0.0492647
0.000233754 -0.0298729 0.058703
0.000613427 -0.0242027 0.0475607
0.000755539 -0.00908052 0.0178442
0.000606157 0.00954521 -0.0187573
0.000222915 0.0244883 -0.048122
-0.00024633 0.0299836 -0.0589209
-0.000620538 0.0239111 -0.0469878
-0.000755338 0.00861343 -0.0169263
-0.000598723 -0.0100071 0.0196651
-0.000210307 -0.0246724 0.0484836
0.000139804 -0.0470232 0.0351092
0.000365475 -0.0379523 0.0283365
0.000450143 -0.0142391 0.0106314
0.000361142 0.0149677 -0.0111754
0.00013281 0.0383998 -0.0286706
-0.000146761 0.047017 -0.0351045
-0.00036971 0.0374947 -0.0279948
-0.000450023 0.0135066 -0.0100845
-0.000356714 -0.0156924 0.0117165
-0.000125781 -0.0388372 0.0289972
0 -0.037124 0
0 -0.0315213 0
0 -0.0118262 0
0 0.0124314 0
0 0.031893 0
0 0.03905 0
0 0.0311412 0
0 0.0112179 0
0 -0.0130333 0
0 -0.0306612 0
-0.00542019 -0.0228013 -0.0402495
-0.014224 -0.0184781 -0.03261
-0.0175192 -0.00693275 -0.0122348
-0.0140554 0.00728753 0.0128609
-0.00516887 0.0186962 0.0329948
0.00571182 0.0228918 0.0403991
0.0143889 0.0182555 0.0322171
0.0175145 0.00657615 0.0116055
0.013883 -0.00764021 -0.0134834
0.00487651 -0.0188319 -0.0332426
-0.00874922 0.000318335 -0.0649704
-0.0229602 0.000257904 -0.0526388
-0.0282794 9.67623e-05 -0.0197494
-0.0226881 -0.000101714 0.02076
-0.00834354 -0.000260948 0.0532601
0.00921995 -0.000319506 0.065212
0.0232264 -0.000254797 0.0520046
0.0282719 -9.1785e-05 0.0187335
0.0224098 0.000106636 -0.0217647
0.00787163 0.000262917 -0.0536599
-0.00870275 0.0233151 -0.0646252
-0.0228383 0.0188899 -0.0523592
-0.0281291 0.00708723 -0.0196445
-0.0225675 -0.00744989 0.0206497
-0.00829922 -0.0191128 0.0529772
0.009171 -0.0234019 0.0648656
0.023103 -0.0186623 0.0517283
0.0281216 -0.00672268 0.018634
0.0222907 0.00781044 -0.0216491
0.00782981 0.0192563 -0.0533749
-0.00529868 0.0373168 -0.0393472
-0.0139051 0.030234 -0.031879
-0.0171265 0.0113434 -0.0119606
-0.0137403 -0.0119238 0.0125727
-0.005053 -0.0305908 0.0322553
0.00558377 -0.0374555 0.0394936
0.0140663 -0.0298697 0.0314949
0.017122 -0.0107599 0.0113453
0.0135718 0.0125009 -0.0131811
0.0047672 0.0308204 -0.0324974
0.000149649 0.0369213 0.00111127
0.000392718 0.0299136 0.000900348
0.000483698 0.0112232 0.000337799
0.000388063 -0.0117975 -0.000355085
0.00014271 -0.0302666 -0.000910974
-0.000157701 -0.0370586 -0.0011154
-0.000397269 -0.0295531 -0.000889502
-0.00048357 -0.0106459 -0.000320422
-0.000383303 0.0123685 0.00037227
-0.000134638 0.0304938 0.000917813
0.00554025 0.0222814 0.041141
0.014539 0.0180523 0.0333323
0.0179072 0.006773 0.0125059
0.0143667 -0.00711959 -0.0131458
0.00528337 -0.0182654 -0.0337257
-0.00583834 -0.0223642 -0.041294
-0.0147075 -0.0178348 -0.0329308
-0.0179025 -0.00642459 -0.0118626
-0.0141905 0.00746414 0.013782
-0.00498453 0.0184025 0.0339789
0.00879338 -0.000954929 0.0652982
0.0230761 -0.000773681 0.0529045
0.0284221 -0.000290274 0.019849
0.0228026 0.000305129 -0.0208648
0.00838565 0.000782812 -0.0535289
-0.00926649 0.000958481 -0.0655412
-0.0233436 0.000764359 -0.052267
-0.0284145 0.000275343 -0.018828
-0.0225229 -0.000319896 0.0218746
-0.00791136 -0.000788688 0.0539307
0.00865396 -0.0238228 0.0642629
0.0227101 -0.0193009 0.0520654
0.0279713 -0.00724145 0.0195343
0.0224409 0.00761202 -0.0205339
0.00825265 0.0195287 -0.0526799
-0.00911953 0.0239111 -0.0645017
-0.0229734 0.0190684 -0.0514381
-0.0279638 0.00686895 -0.0185294
-0.0221656 -0.00798041 0.0215276
-0.00778592 -0.0196755 0.0530756
0.00517577 -0.0374996 0.0384345
0.0135305 -0.0302658 0.0310203
0.016665 -0.0113552 0.0116383
0.0133701 0.0119363 -0.0122339
0.00491685 0.0306227 -0.0313861
-0.00543332 0.0374947 -0.0384294
-0.0136873 0.0299009 -0.0306463
-0.0166606 0.0107711 -0.0110396
-0.0132061 -0.0125142 0.0128262
-0.00465662 -0.0309715 0.0317436
0 -0.0133731 0
0 -0.0113548 0
0 -0.00426014 0
0 0.00447815 0
0 0.0114887 0
0 0.0140669 0
0 0.0112179 0
0 0.004041 0
0 -0.00469496 0
0 -0.011045 0
-0.00860282 -0.00821365 -0.0282032
-0.022576 -0.00665634 -0.0228502
-0.0278061 -0.00249737 -0.0085731
-0.0223084 0.00262517 0.0090118
-0.00820395 0.0067349 0.0231199
0.00906569 0.00824625 0.0283081
0.0228377 0.00657615 0.0225749
0.0277987 0.00236891 0.00813211
0.0220348 -0.00275221 -0.00944794
0.00773991 -0.00678376 -0.0232935
-0.0138866 0.000114673 -0.0455255
-0.036442 9.29041e-05 -0.0368846
-0.0448844 3.48564e-05 -0.0138386
-0.0360101 -3.66401e-05 0.0145468
-0.0132427 -9.40005e-05 0.0373199
0.0146337 -0.000115095 0.0456948
0.0368644 -9.1785e-05 0.0364402
0.0448725 -3.30634e-05 0.0131268
0.0355684 3.84134e-05 -0.0152508
0.0124937 9.47099e-05 -0.0376001
-0.0138128 0.00839875 -0.0452836
-0.0362484 0.00680465 -0.0366887
-0.044646 0.00255301 -0.0137651
-0.0358187 -0.00268366 0.0144695
-0.0131724 -0.00688495 0.0371216
0.014556 -0.00842998 0.0454521
0.0366686 -0.00672268 0.0362467
0.0446341 -0.00242169 0.013057
0.0353794 0.00281354 -0.0151698
0.0124273 0.00693664 -0.0374004
-0.00840997 0.0134425 -0.027571
-0.0220699 0.0108911 -0.022338
-0.0271829 0.0040862 -0.0083809
-0.0218083 -0.00429531 0.00880979
-0.00802003 -0.0110196 0.0226016
0.00886246 -0.0134925 0.0276735
0.0223257 -0.0107599 0.0220688
0.0271757 -0.00387602 0.00794981
0.0215409 0.00450318 -0.00923614
0.00756641 0.0111024 -0.0227713
0.00023752 0.0133001 0.000778679
0.000623313 0.0107757 0.000630884
0.000767716 0.0040429 0.000236699
0.000615927 -0.00424979 -0.000248812
0.000226507 -0.0109029 -0.000638329
-0.0002503 -0.0133496 -0.000781577
-0.000630539 -0.0106459 -0.000623283
-0.000767512 -0.00383494 -0.000224524
-0.000608371 0.00445546 0.000260854
-0.000213696 0.0109847 0.000643122
0.00879338 0.00802636 0.028828
0.0230761 0.00650293 0.0233564
0.0284221 0.00243982 0.00876299
0.0228026 -0.00256467 -0.00921141
0.00838565 -0.00657969 -0.023632
-0.00926649 -0.00805622 -0.0289352
-0.0233436 -0.00642459 -0.023075
-0.0284145 -0.00231431 -0.00831223
-0.0225229 0.00268879 0.00965723
-0.00791136 0.00662908 0.0238094
0.0139567 -0.000343992 0.0457552
0.0366259 -0.000278701 0.0370707
0.045111 -0.000104565 0.0139084
0.0361918 0.000109916 -0.0146202
0.0133096 0.00028199 -0.0375082
-0.0147076 0.000345271 -0.0459254
-0.0370504 0.000275343 -0.0366241
-0.045099 9.91862e-05 -0.013193
-0.0357479 -0.000115235 0.0153278
-0.0125568 -0.000284107 0.0377899
0.0137354 -0.00858162 0.0450298
0.036045 -0.00695272 0.0364828
0.0443955 -0.00260857 0.0136879
0.0356178 0.00274206 -0.0143883
0.0130985 0.00703478 -0.0369133
-0.0144744 0.00861343 -0.045197
-0.0364628 0.00686895 -0.0360433
-0.0443837 0.00247439 -0.0129838
-0.0351809 -0.00287476 0.0150847
-0.0123577 -0.00708767 0.0371907
0.00821489 -0.0135084 0.0269315
0.0214753 -0.0109026 0.0217363
0.0264504 -0.00409047 0.00815509
0.0212207 0.00429979 -0.00857241
0.00780394 0.0110312 -0.0219926
-0.00862367 0.0135066 -0.0269279
-0.0217242 0.0107711 -0.0214742
-0.0264434 0.00388006 -0.0077356
-0.0209605 -0.00450797 0.00898746
-0.0073909 -0.0111568 0.0222431
0 0.0155373 0
0 0.0131924 0
0 0.00494956 0
0 -0.00520284 0
0 -0.013348 0
0 -0.0163433 0
0 -0.0130333 0
0 -0.00469496 0
0 0.00545475 0
0 0.0128324 0
-0.00846642 0.00954287 -0.00527604
-0.0222179 0.00773336 -0.00427477
-0.0273651 0.00290146 -0.00160383
-0.0219546 -0.00304993 0.00168591
-0.00807383 -0.00782464 0.00432522
0.00892191 -0.00958055 0.00529582
0.0224755 -0.0076402 0.00422326
0.0273578 -0.00275221 0.00152133
0.0216853 0.00319754 -0.0017675
0.00761719 0.00788158 -0.00435755
-0.0136664 -0.00013323 -0.00851654
-0.035864 -0.000107937 -0.00690028
-0.0441726 -4.04964e-05 -0.0025889
-0.0354389 4.25687e-05 0.00272138
-0.0130327 0.000109211 0.00698172
0.0144017 0.000133718 0.00854848
0.0362798 0.000106636 0.00681716
0.0441608 3.84133e-05 0.00245573
0.0350043 -4.46289e-05 -0.00285308
0.0122956 -0.000110037 -0.00703393
-0.0135938 -0.00975792 -0.0084713
-0.0356735 -0.00790568 -0.00686363
-0.0439379 -0.00296611 -0.00257514
-0.0352507 0.0031179 0.00270692
-0.0129635 0.00799899 0.00694464
0.0143252 0.00979402 0.00850307
0.0360871 0.00781043 0.00678095
0.0439263 0.00281354 0.00244268
0.0348183 -0.00326879 -0.00283793
0.0122303 -0.0080592 -0.00699656
-0.00827663 -0.0156179 -0.00515777
-0.0217199 -0.0126534 -0.00417894
-0.0267518 -0.00474737 -0.00156788
-0.0214625 0.00499031 0.00164812
-0.00789283 0.0128027 0.00422826
0.00872191 0.0156757 0.00517711
0.0219717 0.0125009 0.00412858
0.0267446 0.00450317 0.00148723
0.0211992 -0.00523182 -0.00172788
0.00744644 -0.0128991 -0.00425987
0.000233754 -0.0154524 0.000145669
0.000613427 -0.0125193 0.000118024
0.000755539 -0.00469707 4.42812e-05
0.000606157 0.00493743 -4.65471e-05
0.000222915 0.012667 -0.000119417
-0.00024633 0.0155096 -0.000146215
-0.000620538 0.0123684 -0.000116602
-0.000755338 0.00445546 -4.20034e-05
-0.000598723 -0.00517638 4.87999e-05
-0.000210307 -0.0127624 0.00012031
0.00865396 -0.00932527 0.00539291
0.0227101 -0.00755516 0.00436945
0.0279713 -0.0028346 0.00163936
0.0224409 0.00297965 -0.00172325
0.00825265 0.00764433 -0.00442102
-0.00911953 0.00935976 -0.00541312
-0.0229734 0.00746413 -0.00431681
-0.0279638 0.00268879 -0.00155504
-0.0221656 -0.00312386 0.00180665
-0.00778592 -0.00770187 0.00445408
0.0137354 0.00039966 0.00855952
0.036045 0.000323797 0.00693511
0.0443955 0.000121484 0.00260196
0.0356178 -0.000127701 -0.00273511
0.0130985 -0.000327618 -0.00701696
-0.0144744 -0.000401138 -0.00859162
-0.0364628 -0.000319896 -0.00685155
-0.0443837 -0.000115235 -0.00246812
-0.0351809 0.000133881 0.00286748
-0.0123577 0.000330084 0.00706943
0.0135176 0.00997039 0.00842381
0.0354733 0.00807772 0.00682511
0.0436914 0.00303065 0.00256069
0.0350529 -0.00318574 -0.00269173
0.0128907 -0.00817305 -0.00690567
-0.0142448 -0.0100071 -0.00845536
-0.0358845 -0.0079804 -0.0067429
-0.0436798 -0.00287476 -0.00242898
-0.034623 0.00333992 0.00282201
-0.0121617 0.00823467 0.00695734
0.00808465 0.0156945 0.00503813
0.0211348 0.012667 0.00406625
0.026031 0.00475243 0.00152559
0.0208843 -0.00499562 -0.00160366
0.0076802 -0.0128163 -0.0041142
-0.00848694 -0.0156924 -0.00503746
-0.0213798 -0.0125142 -0.00401722
-0.0260241 -0.00450797 -0.00144711
-0.0206282 0.00523749 0.0016813
-0.00727371 0.0129623 0.00416106
0 0.0384532 0
0 0.0310354 0
0 0.011644 0
0 -0.0122398 0
0 -0.0314014 0
0 -0.0384481 0
0 -0.0306612 0
0 -0.011045 0
0 0.0128324 0
0 0.031759 0
-0.00506361 0.0236177 0.0196867
-0.0132372 0.0190617 0.0158891
-0.0163039 0.00715163 0.00596132
-0.0130803 -0.00751761 -0.00626638
-0.0048103 -0.0192865 -0.0160765
0.00531557 -0.0236145 -0.0196841
0.0133907 -0.0188319 -0.0156975
0.0162995 -0.00678376 -0.00565467
0.0129199 0.00788158 0.00656977
0.00455571 0.0195062 0.0162595
-0.00817365 -0.000329733 0.0317782
-0.0213675 -0.000266126 0.0256481
-0.0263176 -9.98459e-05 0.00962271
-0.0211142 0.000104955 -0.0101151
-0.00776474 0.000269264 -0.0259505
0.00858036 0.000329689 -0.031774
0.0216151 0.000262917 -0.0253388
0.0263106 9.47099e-05 -0.00912773
0.0208552 -0.000110037 0.0106049
0.00735379 -0.000272331 0.026246
-0.00813023 -0.0241499 0.0316094
-0.021254 -0.0194913 0.0255118
-0.0261778 -0.0073128 0.0095716
-0.021002 0.00768702 -0.0100614
-0.0077235 0.0197211 -0.0258126
0.00853478 0.0241467 -0.0316052
0.0215003 0.0192563 -0.0252042
0.0261708 0.00693664 -0.00907924
0.0207444 -0.0080592 0.0105485
0.00731472 -0.0199457 0.0261066
-0.0049501 -0.0386529 0.0192454
-0.0129405 -0.0311966 0.0155329
-0.0159384 -0.0117044 0.00582769
-0.0127871 0.0123034 -0.00612591
-0.00470247 0.0315645 -0.0157161
0.00519642 0.0386477 -0.0192429
0.0130905 0.0308204 -0.0153456
0.0159341 0.0111024 -0.00552792
0.0126303 -0.0128991 0.0064225
0.00445358 -0.0319239 0.0158951
0.000139804 -0.0382433 -0.000543542
0.000365475 -0.030866 -0.000438691
0.000450142 -0.0115804 -0.000164589
0.000361142 0.012173 0.000173012
0.00013281 0.03123 0.000443864
-0.000146761 0.0382382 0.00054347
-0.00036971 0.0304938 0.000433401
-0.000450023 0.0109847 0.000156123
-0.000356713 -0.0127624 -0.000181389
-0.000125781 -0.0315856 -0.000448919
0.00517577 -0.0230792 -0.0201228
0.0135305 -0.0186271 -0.016241
0.016665 -0.00698857 -0.00609336
0.0133701 0.00734619 0.00640518
0.00491685 0.0188467 0.0164326
-0.00543332 0.0230761 0.0201201
-0.0136873 0.0184025 0.0160452
-0.0166606 0.00662908 0.00577993
-0.0132061 -0.00770187 -0.0067153
-0.00465662 -0.0190614 -0.0166197
0.00821489 0.00098912 -0.0319385
0.0214753 0.000798314 -0.0257775
0.0264504 0.000299514 -0.00967128
0.0212207 -0.000314841 0.0101662
0.00780393 -0.000807728 0.0260815
-0.00862366 -0.000988988 0.0319343
-0.0217242 -0.000788688 0.0254667
-0.0264433 -0.000284107 0.0091738
-0.0209605 0.000330084 -0.0106584
-0.0073909 0.000816927 -0.0263785
0.00808465 0.0246757 -0.0314322
0.0211348 0.0199157 -0.0253688
0.026031 0.00747203 -0.00951794
0.0208842 -0.0078544 0.010005
0.0076802 -0.0201505 0.0256679
-0.00848693 -0.0246725 0.031428
-0.0213797 -0.0196756 0.0250629
-0.0260241 -0.00708768 0.00902834
-0.0206281 0.00823468 -0.0104894
-0.00727371 0.02038 -0.0259603
0.00483528 0.0388423 -0.018799
0.0126404 0.0313495 -0.0151726
0.0155687 0.0117618 -0.00569251
0.0124905 -0.0123637 0.00598381
0.00459339 -0.0317192 0.0153515
-0.00507589 -0.0388372 0.0187965
-0.0127868 -0.0309715 0.0149897
-0.0155645 -0.0111568 0.00539969
-0.0123373 0.0129623 -0.00627352
-0.00435028 0.0320804 -0.0155264
