# vtk DataFile Version 3.0
Velocity field
ASCII
DATASET STRUCTURED_POINTS
DIMENSIONS 8 8 8
SPACING 0.8 0.8 0.8
ORIGIN 0 0 0
POINT_DATA 512
VECTORS velocity float
0 0.418162 0
0 0.291336 0
0 -0.0122101 0
0 -0.30835 0
0 -0.417449 0
0 -0.273329 0
0 0.0365888 0
0 0.324312 0
0 0.16451 0.426796
0 0.114615 0.315263
0 -0.00480363 -0.0132129
0 -0.121309 -0.333675
0 -0.16423 -0.451734
0 -0.107531 -0.295777
0 0.0143945 0.0395939
0 0.127589 0.331009
0 -0.188931 0.594704
0 -0.131629 0.439292
0 0.00551669 -0.0184111
0 0.139316 -0.464947
0 0.188608 -0.629452
0 0.123493 -0.41214
0 -0.0165313 0.0551706
0 -0.146528 0.461232
0 -0.427769 0.401872
0 -0.29803 0.296852
0 0.0124907 -0.0124413
0 0.315434 -0.314188
0 0.42704 -0.425353
0 0.279608 -0.278504
0 -0.0374294 0.0372816
0 -0.331763 0.311678
0 -0.407128 -0.0347302
0 -0.283649 -0.0256543
0 0.011888 0.00107519
0 0.300214 0.0271525
0 0.406434 0.0367594
0 0.266117 0.0240686
0 -0.0356234 -0.00322191
0 -0.315755 -0.0269355
0 -0.139529 -0.450265
0 -0.0972109 -0.332599
0 0.00407419 0.0139395
0 0.102888 0.352023
0 0.139291 0.476574
0 0.0912023 0.312042
0 -0.0122087 -0.041771
0 -0.108214 -0.349211
0 0.212707 -0.592676
0 0.148194 -0.437794
0 -0.00621094 0.0183483
0 -0.156849 0.463361
0 -0.212344 0.627305
0 -0.139034 0.410735
0 0.0186117 -0.0549825
0 0.164968 -0.459659
0 0.435917 -0.375577
0 0.303706 -0.261667
0 -0.0127286 0.0109667
0 -0.321443 0.276948
0 -0.435174 0.374936
0 -0.284935 0.245494
0 0.0381424 -0.0328627
0 0.338083 -0.291285
0 0.291336 0
0 0.220372 0
0 -0.00923596 0
0 -0.233241 0
0 -0.315765 0
0 -0.206751 0
0 0.0276764 0
0 0.22595 0
0.0909791 0.114615 0.421559
0.225769 0.0829233 0.304567
0.220299 -0.0034781 -0.0127746
0.0811584 -0.0878223 -0.322558
-0.107211 -0.118896 -0.436687
-0.23055 -0.077848 -0.285927
-0.214009 0.0103801 0.0381272
-0.0652794 0.0888918 0.326947
0.126772 -0.131629 0.587406
0.314586 -0.0949815 0.424392
0.306964 0.00398363 -0.0178002
0.113088 0.100589 -0.44946
-0.149388 0.136178 -0.608479
-0.321247 0.089164 -0.398413
-0.2982 -0.0118916 0.0531275
-0.0909611 -0.102087 0.455572
0.085666 -0.29803 0.39694
0.212583 -0.215056 0.286784
0.207434 0.00901998 -0.0120285
0.0764184 0.227756 -0.30372
-0.10095 0.308336 -0.411185
-0.217084 0.20189 -0.269227
-0.201511 -0.0269253 0.035901
-0.0614671 -0.231141 0.307853
-0.00740334 -0.283649 -0.034304
-0.0183716 -0.204683 -0.0247841
-0.0179267 0.00858466 0.00103951
-0.00660422 0.216765 0.0262481
0.00872419 0.293461 0.0355349
0.0187605 0.192148 0.0232668
0.0174147 -0.025626 -0.00310258
0.00531205 -0.219988 -0.026605
-0.095982 -0.0972109 -0.44474
-0.23818 -0.0701484 -0.321315
-0.232414 0.00294214 0.013477
-0.08562 0.0742896 0.340291
0.113107 0.100575 0.4607
0.243222 0.0658522 0.301645
0.225777 -0.00878249 -0.0402239
0.068869 -0.0753934 -0.344925
-0.126339 0.148194 -0.585402
-0.313428 0.106847 -0.422834
-0.305834 -0.00448122 0.0177345
-0.112672 -0.113152 0.447805
0.148838 -0.153186 0.606237
0.320062 -0.100302 0.396945
0.297102 0.0133786 -0.052934
0.0906509 0.114934 -0.454018
-0.0800608 0.303706 -0.370968
-0.191619 0.211594 -0.258456
-0.186943 -0.00886809 0.0108321
-0.0688704 -0.223951 0.273549
0.0909781 -0.303189 0.370335
0.195641 -0.198516 0.242481
0.18163 0.0265741 -0.0324594
0.0574452 0.235544 -0.28771
0 -0.0122101 0
0 -0.00923596 0
0 0.000387086 0
0 0.00977533 0
0 0.013234 0
0 0.00866509 0
0 -0.00115994 0
0 -0.00946976 0
0.126772 -0.00480363 0.160609
0.314586 -0.0034781 0.115969
0.306964 0.00014589 -0.00486399
0.113088 0.0036837 -0.122816
-0.149388 0.00498696 -0.16627
-0.321247 0.00326532 -0.108869
-0.2982 -0.000435332 0.014518
-0.0909611 -0.00372553 0.124563
0.176645 0.00551669 0.223795
0.438352 0.00398363 0.161591
0.427731 -0.000167083 -0.00677758
0.157577 -0.00421891 -0.171133
-0.208162 -0.00571163 -0.231688
-0.447634 -0.0037398 -0.151699
-0.415521 0.000498699 0.0202295
-0.126746 0.00427856 0.173568
0.119368 0.0124907 0.15123
0.296214 0.00901998 0.109196
0.289042 -0.000378319 -0.00458
0.106483 -0.00955261 -0.115646
-0.140665 -0.0129326 -0.156561
-0.302486 -0.00846768 -0.102512
-0.280788 0.00112918 0.0136702
-0.0856491 0.00968733 0.117289
-0.0103159 0.011888 -0.0130694
-0.0255993 0.00858466 -0.00943676
-0.0249791 -0.000360065 0.000395806
-0.00920236 -0.0090918 0.00999408
0.0121564 -0.0123085 0.0135303
0.0261414 -0.00805908 0.00885912
0.0242659 0.00107468 -0.00118138
0.00740188 0.0092199 -0.0101362
-0.133743 0.00407419 -0.169441
-0.331881 0.00294214 -0.122344
-0.323844 -0.000123401 0.00513144
-0.119306 -0.00311592 0.129569
0.157602 -0.00421833 0.175413
0.338907 -0.002762 0.114856
0.314597 0.000368313 -0.0153161
0.095963 0.0031598 -0.131412
-0.176043 -0.00621094 -0.223032
-0.436739 -0.00448122 -0.160997
-0.426156 0.000187949 0.00675264
-0.156997 0.00474577 0.170503
0.207395 0.00642492 0.230832
0.445985 0.00420677 0.15114
0.413991 -0.000561055 -0.0201557
0.126314 -0.00481699 -0.172976
-0.111558 -0.0127286 -0.141335
-0.267004 -0.00886809 -0.0984687
-0.260489 0.000371669 0.0041269
-0.095965 0.00938598 0.104219
0.12677 0.0127069 0.141094
0.272608 0.00831996 0.0923824
0.253086 -0.00111374 -0.0123667
0.080045 -0.00987186 -0.109614
0 -0.30835 0
0 -0.233241 0
0 0.00977533 0
0 0.246862 0
0 0.334206 0
0 0.218825 0
0 -0.0292927 0
0 -0.239146 0
0.085666 -0.121309 -0.197764
0.212583 -0.0878223 -0.142794
0.207434 0.0036837 0.0059891
0.0764184 0.0930122 0.151225
-0.10095 0.125921 0.204733
-0.217084 0.0824482 0.13405
-0.201511 -0.0109924 -0.0178762
-0.0614671 -0.0940831 -0.153379
0.119368 0.139316 -0.275567
0.296214 0.100589 -0.19897
0.289042 -0.00421891 0.00834526
0.106483 -0.106529 0.210722
-0.140665 -0.144222 0.285278
-0.302486 -0.09443 0.186788
-0.280788 0.0125926 -0.0249088
-0.0856491 0.108049 -0.21372
0.0806632 0.315434 -0.186215
0.200169 0.227756 -0.134454
0.195319 -0.00955261 0.0056393
0.0719567 -0.241205 0.142395
-0.0950543 -0.326548 0.192776
-0.204407 -0.213812 0.126221
-0.189742 0.0285127 -0.0168321
-0.0578775 0.24464 -0.144422
-0.006971 0.300214 0.0160929
-0.0172987 0.216765 0.0116196
-0.0168796 -0.00909181 -0.000487355
-0.00621855 -0.22957 -0.0123059
0.00821462 -0.31079 -0.0166598
0.017665 -0.203496 -0.0109082
0.0163976 0.0271368 0.00145465
0.00500183 0.232836 0.0124811
-0.0903767 0.102888 0.208639
-0.224273 0.0742896 0.150643
-0.218839 -0.00311592 -0.00631843
-0.0806207 -0.0786768 -0.15954
0.106501 -0.106514 -0.21599
0.229022 -0.0697418 -0.141422
0.21259 0.00930023 0.018859
0.0648471 0.0797963 0.161813
-0.118961 -0.156849 0.274627
-0.295124 -0.113152 0.198239
-0.287976 0.00474577 -0.00831452
-0.106091 0.119832 -0.209946
0.140147 0.162231 -0.284227
0.301372 0.106222 -0.1861
0.279753 -0.0141672 0.0248182
0.085357 -0.121646 0.212991
-0.0753853 -0.321443 0.17403
-0.180428 -0.223951 0.121248
-0.176026 0.00938598 -0.00508161
-0.0648485 0.23703 -0.128329
0.0856651 0.320895 -0.173734
0.184215 0.210109 -0.113754
0.171023 -0.028126 0.0152275
0.0540905 -0.2493 0.134972
0 -0.417449 0
0 -0.315765 0
0 0.013234 0
0 0.334206 0
0 0.452453 0
0 0.296248 0
0 -0.0396569 0
0 -0.323759 0
-0.00740334 -0.16423 -0.436176
-0.0183716 -0.118896 -0.314933
-0.0179267 0.00498696 0.0132092
-0.00660422 0.125921 0.33353
0.00872419 0.170473 0.451548
0.0187605 0.111621 0.295653
0.0174147 -0.0148817 -0.0394264
0.00531205 -0.127371 -0.338283
-0.0103159 0.188608 -0.607773
-0.0255993 0.136178 -0.438835
-0.0249791 -0.00571163 0.0184059
-0.00920236 -0.144222 0.464757
0.0121564 -0.195248 0.629184
0.0261414 -0.12784 0.411971
0.0242659 0.0170481 -0.0549376
0.00740188 0.146278 -0.471368
-0.006971 0.42704 -0.410704
-0.0172987 0.308336 -0.296543
-0.0168796 -0.0129326 0.0124378
-0.00621855 -0.326548 0.314055
0.00821462 -0.442089 0.425175
0.017665 -0.289464 0.278389
0.0163976 0.0386004 -0.0371239
0.00500183 0.331197 -0.318528
0.00060244 0.406434 0.0354934
0.00149497 0.293461 0.0256277
0.00145875 -0.0123085 -0.00107488
0.000537409 -0.31079 -0.0271411
-0.00070992 -0.420758 -0.036744
-0.00152663 -0.275494 -0.0240586
-0.0014171 0.0367381 0.00320829
-0.000432263 0.315216 0.0275275
0.00781044 0.139291 0.460161
0.0193817 0.100575 0.332249
0.0189121 -0.00421834 -0.0139356
0.00696737 -0.106514 -0.35187
-0.00920385 -0.144202 -0.476374
-0.019792 -0.0944171 -0.311909
-0.0183722 0.0125908 0.0415941
-0.00560415 0.108029 0.356885
0.0102807 -0.212344 0.605701
0.0255051 -0.153186 0.437222
0.0248872 0.00642492 -0.0183381
0.00916848 0.162231 -0.463041
-0.0121117 0.219631 -0.626869
-0.026045 0.143806 -0.410454
-0.0241766 -0.0191795 0.0547377
-0.00737664 -0.164687 0.469761
0.00651487 -0.435174 0.383831
0.0155928 -0.303189 0.267417
0.0152123 0.0127069 -0.0112077
0.00560427 0.320895 -0.283034
-0.00740326 0.434432 -0.383176
-0.0159201 0.284449 -0.250889
-0.01478 -0.0380774 0.0335849
-0.00467455 -0.337506 0.297686
0 -0.273329 0
0 -0.206751 0
0 0.00866509 0
0 0.218825 0
0 0.296248 0
0 0.193971 0
0 -0.0259657 0
0 -0.211984 0
-0.095982 -0.107531 -0.41001
-0.23818 -0.077848 -0.296042
-0.232414 0.00326532 0.0124168
-0.08562 0.0824482 0.313525
0.113107 0.111621 0.424457
0.243222 0.0730854 0.277919
0.225777 -0.00974399 -0.0370613
0.068869 -0.0833975 -0.317989
-0.133743 0.123493 -0.571313
-0.331881 0.089164 -0.412513
-0.323844 -0.0037398 0.0173017
-0.119306 -0.09443 0.436874
0.157602 -0.12784 0.591441
0.338907 -0.0837044 0.387256
0.314597 0.0111624 -0.0516419
0.095963 0.0957772 -0.443091
-0.0903767 0.279608 -0.386065
-0.224273 0.20189 -0.278755
-0.218839 -0.00846768 0.0116916
-0.0806207 -0.213812 0.295216
0.106501 -0.289464 0.39967
0.229022 -0.189528 0.261686
0.21259 0.0252743 -0.034897
0.0648471 0.216855 -0.299419
0.00781044 0.266117 0.0333641
0.0193817 0.192148 0.0240903
0.0189121 -0.00805908 -0.0010104
0.00696737 -0.203496 -0.025513
-0.00920385 -0.275494 -0.0345398
-0.019792 -0.180382 -0.0226152
-0.0183722 0.0240547 0.00301583
-0.00560415 0.206391 0.0258761
0.10126 0.0912023 0.432555
0.251275 0.0658522 0.312319
0.245188 -0.002762 -0.0130996
0.0903282 -0.0697418 -0.330762
-0.119325 -0.0944171 -0.447798
-0.256596 -0.0618202 -0.293201
-0.238189 0.00824396 0.039099
-0.072656 0.0707334 0.335475
0.133286 -0.139034 0.569364
0.330659 -0.100302 0.410996
0.32265 0.00420677 -0.0172379
0.118866 0.106222 -0.435266
-0.157022 0.143806 -0.589265
-0.337659 0.094159 -0.38583
-0.313439 -0.0125581 0.0514538
-0.0956357 -0.10783 0.441579
0.0844632 -0.284935 0.360805
0.202155 -0.198516 0.251375
0.197223 0.00831996 -0.0105353
0.0726575 0.210109 -0.266055
-0.0959809 0.284449 -0.360189
-0.206399 0.186246 -0.235838
-0.191618 -0.0249315 0.0315701
-0.0606041 -0.220986 0.279828
0 0.0365888 0
0 0.0276764 0
0 -0.00115994 0
0 -0.0292927 0
0 -0.0396569 0
0 -0.0259657 0
0 0.00347587 0
0 0.028377 0
-0.126339 0.0143945 -0.135137
-0.313428 0.0103798 -0.0976412
-0.305834 -0.000435319 0.00409541
-0.112672 -0.0109921 0.10341
0.148838 -0.0148813 0.139998
0.320062 -0.00974372 0.0916644
0.297102 0.0012999 -0.0122224
0.0906509 0.0111639 -0.104807
-0.176043 -0.0165313 -0.188301
-0.436739 -0.0118913 -0.136055
-0.426156 0.000498685 0.00570656
-0.156997 0.0125923 0.144093
0.207395 0.0170476 0.195074
0.445985 0.0111621 0.127727
0.413991 -0.00148942 -0.017031
0.126314 -0.0128211 -0.14604
-0.118961 -0.0374294 -0.127245
-0.295124 -0.0269245 -0.0919388
-0.287976 0.00112914 0.00385625
-0.106091 0.0285118 0.0973703
0.140147 0.0385993 0.131821
0.301372 0.0252735 0.0863115
0.279753 -0.00337233 -0.0115086
0.085357 -0.029029 -0.0986868
0.0102807 -0.0356234 0.0109966
0.0255051 -0.0256253 0.00794546
0.0248872 0.00107465 -0.000333258
0.00916848 0.027136 -0.00841486
-0.0121117 0.0367371 -0.0113921
-0.026045 0.024054 -0.00745918
-0.0241766 -0.00320962 0.000994595
-0.00737664 -0.0276283 0.00852861
0.133286 -0.0122087 0.142568
0.330659 -0.00878225 0.103011
0.32265 0.000368303 -0.0043206
0.118866 0.00929996 -0.109096
-0.157022 0.0125905 -0.147695
-0.337659 0.00824372 -0.0967051
-0.313439 -0.00109999 0.0128945
-0.0956357 -0.00946863 0.110571
0.175442 0.0186117 0.187659
0.435133 0.0133783 0.135554
0.424588 -0.000561039 -0.0056855
0.156419 -0.0141668 -0.143561
-0.206631 -0.019179 -0.194354
-0.444344 -0.0125578 -0.127256
-0.412466 0.00167581 0.0169689
-0.125883 0.0144346 0.145542
0.111177 0.0381424 0.118919
0.266093 0.0265741 0.0828517
0.259601 -0.00111374 -0.00347238
0.0956377 -0.028126 -0.0876902
-0.126338 -0.0380774 -0.118716
-0.271678 -0.0249315 -0.0777307
-0.252223 0.00333743 0.0104053
-0.079772 0.0295819 0.0922296
0 0.324312 0
0 0.22595 0
0 -0.00946976 0
0 -0.239146 0
0 -0.323759 0
0 -0.211984 0
0 0.028377 0
0 0.251525 0
-0.0800608 0.127589 0.221708
-0.191619 0.0888919 0.154465
-0.186943 -0.00372553 -0.00647377
-0.0688704 -0.0940831 -0.163486
0.0909781 -0.127371 -0.22133
0.195641 -0.0833975 -0.144918
0.18163 0.0111639 0.0193993
0.0574452 0.0989534 0.171949
-0.111558 -0.146528 0.308931
-0.267004 -0.102087 0.215234
-0.260489 0.00427856 -0.00902064
-0.095965 0.108049 -0.227804
0.12677 0.146278 -0.308404
0.272608 0.0957772 -0.201931
0.253086 -0.0128211 0.0270312
0.080045 -0.113642 0.239596
-0.0753853 -0.331763 0.20876
-0.180428 -0.231142 0.145445
-0.176026 0.00968733 -0.00609571
-0.0648484 0.24464 -0.153939
0.0856651 0.331197 -0.208404
0.184215 0.216855 -0.136455
0.171023 -0.029029 0.0182664
0.0540905 -0.257304 0.161907
0.00651487 -0.315755 -0.0180413
0.0155928 -0.219988 -0.0125695
0.0152123 0.0092199 0.000526797
0.00560427 0.232836 0.0133035
-0.00740326 0.315216 0.0180105
-0.0159201 0.206391 0.0117926
-0.01478 -0.0276283 -0.0015786
-0.00467455 -0.244889 -0.0139922
0.0844632 -0.108214 -0.233899
0.202155 -0.0753934 -0.162959
0.197223 0.0031598 0.00682976
0.0726575 0.0797963 0.172476
-0.0959809 0.108029 0.233501
-0.206399 0.0707334 0.152887
-0.191618 -0.00946863 -0.020466
-0.0606041 -0.0839271 -0.181404
0.111177 0.164968 -0.307877
0.266093 0.114934 -0.2145
0.259601 -0.00481699 0.00898988
0.0956377 -0.121646 0.227027
-0.126338 -0.164687 0.307352
-0.271678 -0.10783 0.201242
-0.252223 0.0144346 -0.026939
-0.079772 0.127944 -0.238779
0.0704528 0.338083 -0.195101
0.168623 0.235544 -0.135928
0.164508 -0.00987186 0.00569686
0.0606053 -0.2493 0.143866
-0.0800599 -0.337506 0.194768
-0.172162 -0.220986 0.127527
-0.159833 0.0295819 -0.0170712
-0.0505513 0.262205 -0.151314
