# vtk DataFile Version 3.0
Velocity field
ASCII
DATASET STRUCTURED_POINTS
DIMENSIONS 8 8 8
SPACING 0.8 0.8 0.8
ORIGIN 0 0 0
POINT_DATA 512
VECTORS velocity float
0 0.351241 0
0 0.244712 0
0 -0.0102561 0
0 -0.259003 0
0 -0.350642 0
0 -0.229586 0
0 0.0307333 0
0 0.272411 0
0 0.138183 0.358494
0 0.096273 0.26481
0 -0.00403488 -0.0110984
0 -0.101895 -0.280275
0 -0.137947 -0.37944
0 -0.0903224 -0.248442
0 0.0120909 0.0332574
0 0.10717 0.278036
0 -0.158695 0.49953
0 -0.110564 0.36899
0 0.00463382 -0.0154647
0 0.117021 -0.390539
0 0.158424 -0.528717
0 0.10373 -0.346183
0 -0.0138857 0.0463413
0 -0.123078 0.387419
0 -0.359311 0.337558
0 -0.250334 0.249346
0 0.0104917 -0.0104503
0 0.264954 -0.263907
0 0.358698 -0.357281
0 0.234861 -0.233934
0 -0.0314394 0.0313152
0 -0.278669 0.261799
0 -0.341973 -0.0291721
0 -0.238255 -0.0215487
0 0.00998547 0.000903123
0 0.252169 0.0228071
0 0.34139 0.0308766
0 0.223529 0.0202168
0 -0.0299224 -0.00270629
0 -0.265223 -0.0226249
0 -0.117199 -0.378207
0 -0.0816537 -0.279372
0 0.00342217 0.0117087
0 0.0864222 0.295687
0 0.117 0.400305
0 0.0766067 0.262104
0 -0.0102549 -0.0350862
0 -0.0908959 -0.293324
0 0.178666 -0.497827
0 0.124478 -0.367732
0 -0.00521697 0.0154119
0 -0.131747 0.389207
0 -0.178361 0.526914
0 -0.116784 0.345002
0 0.0156331 -0.0461833
0 0.138567 -0.386097
0 0.366155 -0.315471
0 0.255103 -0.219791
0 -0.0106916 0.00921162
0 -0.27 0.232627
0 -0.365531 0.314933
0 -0.239335 0.206206
0 0.0320383 -0.0276035
0 0.283977 -0.244669
0 0.244712 0
0 0.185104 0
0 -0.00775788 0
0 -0.195914 0
0 -0.265232 0
0 -0.173663 0
0 0.0232472 0
0 0.18979 0
0.0764193 0.096273 0.354094
0.188491 0.0692349 0.254304
0.183914 -0.00290324 -0.0106637
0.0677547 -0.0733113 -0.269275
-0.0895038 -0.0992502 -0.364548
-0.192472 -0.064985 -0.238691
-0.17867 0.00867517 0.0318665
-0.0548324 0.074666 0.274624
0.106484 -0.110564 0.4934
0.262645 -0.0793245 0.354353
0.256268 0.00332617 -0.0148588
0.0944103 0.0839921 -0.375211
-0.124716 0.113709 -0.507967
-0.268192 0.0744523 -0.332597
-0.248962 -0.00994079 0.0444032
-0.0764041 -0.0857496 0.382664
0.0719564 -0.250334 0.333416
0.177482 -0.179605 0.239454
0.173174 0.00753122 -0.0100409
0.0637976 0.190176 -0.25355
-0.0842772 0.257461 -0.34326
-0.18123 0.168577 -0.224751
-0.168236 -0.0225079 0.0300055
-0.0516302 -0.194151 0.258586
-0.00621855 -0.238255 -0.0288141
-0.0153382 -0.17094 -0.0206939
-0.0149658 0.00716777 0.000867738
-0.00551346 0.180998 0.0219121
0.00728326 0.24504 0.0296646
0.0156622 0.160443 0.0194232
0.014539 -0.0214218 -0.0025931
0.00446193 -0.184783 -0.0223472
-0.0806215 -0.0816537 -0.373566
-0.198853 -0.0585843 -0.268288
-0.194028 0.00245653 0.01125
-0.0714792 0.0620318 0.284078
0.0944258 0.0839794 0.384595
0.203051 0.054986 0.251817
0.188495 -0.00734165 -0.0336188
0.0578475 -0.0633278 -0.289725
-0.10612 0.124478 -0.491717
-0.2617 0.0892559 -0.353079
-0.255346 -0.0037426 0.0148053
-0.0940705 -0.0945067 0.37386
0.124267 -0.127944 0.506137
0.267224 -0.0837737 0.331399
0.248066 0.0111861 -0.0442444
0.0761436 0.0965408 -0.381359
-0.0672482 0.255103 -0.3116
-0.160953 0.177732 -0.217094
-0.157026 -0.00744888 0.00909857
-0.0578487 -0.188111 0.229772
0.0764184 -0.254668 0.311068
0.164331 -0.166746 0.203675
0.152563 0.0223213 -0.0272647
0.048252 0.197849 -0.241666
0 -0.0102561 0
0 -0.00775788 0
0 0.000325139 0
0 0.00821093 0
0 0.0111161 0
0 0.00727837 0
0 -0.000974309 0
0 -0.00795426 0
0.106484 -0.00403488 0.134906
0.262645 -0.00290324 0.0968333
0.256268 0.000121744 -0.00406042
0.0944103 0.00307423 -0.102531
-0.124716 0.00416191 -0.138808
-0.268192 0.00272508 -0.0908874
-0.248962 -0.000363755 0.0121344
-0.0764041 -0.00312931 0.104628
0.148376 0.00463382 0.18798
0.365973 0.00332617 0.134928
0.357086 -0.000139473 -0.00565783
0.131552 -0.00352193 -0.142868
-0.173782 -0.00476806 -0.193421
-0.373701 -0.00312196 -0.126644
-0.346908 0.000416806 0.0169081
-0.106463 0.00359384 0.145791
0.100265 0.0104917 0.127028
0.247307 0.00753122 0.0911776
0.241302 -0.0003158 -0.00382331
0.0888963 -0.00797447 -0.0965451
-0.117432 -0.010796 -0.130704
-0.25253 -0.00706871 -0.08558
-0.234421 0.000943741 0.0114257
-0.0719422 0.00813701 0.0985183
-0.00866501 0.00998547 -0.0109778
-0.0213725 0.00716777 -0.0078797
-0.0208536 -0.000300561 0.000330414
-0.00768253 -0.00758971 0.00834347
0.0101487 -0.0102751 0.0112955
0.0218239 -0.00672764 0.00739584
0.020259 0.000898198 -0.000987421
0.00621732 0.00774439 -0.00851405
-0.112339 0.00342217 -0.142324
-0.277083 0.00245653 -0.102156
-0.27036 -0.000103007 0.00428369
-0.0996008 -0.00260113 0.108169
0.131574 -0.0035214 0.146441
0.282934 -0.00230568 0.0958854
0.262651 0.000307829 -0.0128015
0.0806055 0.00265412 -0.110382
-0.14787 -0.00521697 -0.187339
-0.364656 -0.0037426 -0.134442
-0.355801 0.000156933 0.00563748
-0.131079 0.00396282 0.142354
0.173156 0.00536494 0.192723
0.372357 0.00351274 0.126188
0.345658 -0.000469021 -0.0168476
0.106099 -0.0040461 -0.145293
-0.0937046 -0.0106916 -0.118716
-0.224274 -0.00744888 -0.0827102
-0.218802 0.000312189 0.00346645
-0.0806072 0.00788389 0.0875404
0.106482 0.0106733 0.118514
0.228981 0.00698847 0.077598
0.212583 -0.000935503 -0.0103876
0.0672349 -0.00829201 -0.0920721
0 -0.259003 0
0 -0.195914 0
0 0.00821093 0
0 0.207356 0
0 0.280721 0
0 0.183805 0
0 -0.0246048 0
0 -0.200874 0
0.0719564 -0.101895 -0.166115
0.177482 -0.0733113 -0.119232
0.173174 0.00307423 0.00499966
0.0637976 0.0776283 0.12625
-0.0842772 0.105094 0.170919
-0.18123 0.0688117 0.11191
-0.168236 -0.00918545 -0.0149412
-0.0516302 -0.0790264 -0.128833
0.100265 0.117021 -0.231466
0.247307 0.0839921 -0.16614
0.241302 -0.00352193 0.00696653
0.0888963 -0.0889352 0.175919
-0.117432 -0.120402 0.23816
-0.25253 -0.0788345 0.155938
-0.234421 0.0105252 -0.0208192
-0.0719422 0.0907573 -0.179517
0.0677543 0.264954 -0.156414
0.167118 0.190176 -0.112268
0.16306 -0.00797447 0.00470765
0.0600719 -0.201366 0.118876
-0.0793552 -0.272617 0.160937
-0.170647 -0.178498 0.105374
-0.158411 0.0238314 -0.0140686
-0.048615 0.205489 -0.121309
-0.00585539 0.252169 0.0135174
-0.0144424 0.180998 0.00970239
-0.0140917 -0.00758971 -0.00040684
-0.00519149 -0.191653 -0.0102735
0.00685788 -0.259462 -0.0139082
0.0147474 -0.169886 -0.00910657
0.0136899 0.0226814 0.00121583
0.00420136 0.195574 0.0104837
-0.0759132 0.0864222 0.175249
-0.187242 0.0620318 0.125788
-0.182696 -0.00260113 -0.00527458
-0.0673059 -0.0656827 -0.133192
0.0889109 -0.0889218 -0.180317
0.191197 -0.0582225 -0.118064
0.177486 0.00777331 0.0157628
0.0544693 0.0670261 0.135917
-0.0999231 -0.131747 0.230677
-0.246417 -0.0945067 0.165543
-0.240434 0.00396282 -0.00694145
-0.0885764 0.100067 -0.175286
0.11701 0.135474 -0.237303
0.25162 0.0887025 -0.155376
0.233578 -0.0118437 0.0207449
0.0716968 -0.102179 0.178905
-0.063321 -0.27 0.146179
-0.151553 -0.188111 0.101844
-0.147855 0.00788389 -0.00426837
-0.0544704 0.199097 -0.107792
0.0719556 0.26954 -0.14593
0.154734 0.176484 -0.0955492
0.143653 -0.0236248 0.0127906
0.0454341 -0.209403 0.113372
0 -0.350642 0
0 -0.265232 0
0 0.0111161 0
0 0.280721 0
0 0.380044 0
0 0.248838 0
0 -0.0333104 0
0 -0.271946 0
-0.00621855 -0.137947 -0.366372
-0.0153382 -0.0992502 -0.26297
-0.0149658 0.00416191 0.011027
-0.00551346 0.105094 0.278445
0.00728326 0.142278 0.376969
0.0156622 0.0931589 0.246824
0.014539 -0.0124354 -0.0329534
0.00446193 -0.106987 -0.284146
-0.00866501 0.158424 -0.510508
-0.0213725 0.113709 -0.366426
-0.0208536 -0.00476807 0.0153651
-0.00768253 -0.120402 0.387996
0.0101487 -0.163002 0.525272
0.0218239 -0.106727 0.343929
0.020259 0.0142491 -0.0459177
0.00621732 0.122869 -0.395933
-0.00585539 0.358698 -0.344976
-0.0144424 0.257461 -0.247614
-0.0140917 -0.010796 0.010383
-0.00519149 -0.272617 0.262188
0.00685788 -0.369072 0.354952
0.0147474 -0.241654 0.232408
0.0136899 0.0322631 -0.031029
0.00420136 0.278194 -0.267552
0.000506029 0.34139 0.0298132
0.00124813 0.24504 0.0213991
0.00121783 -0.0102751 -0.000897298
0.000448648 -0.259462 -0.0226584
-0.00059267 -0.351266 -0.0306754
-0.00127449 -0.229992 -0.0200851
-0.0011831 0.0307064 0.00268155
-0.000363086 0.264771 0.0231221
0.0065605 0.117 0.386519
0.0161816 0.0839794 0.277428
0.0157888 -0.0035214 -0.0116333
0.00581663 -0.0889218 -0.293756
-0.0076838 -0.120384 -0.397694
-0.0165233 -0.0788226 -0.260396
-0.0153386 0.0105236 0.0347652
-0.00470729 0.0907409 0.299771
0.00863546 -0.178361 0.508767
0.0212956 -0.127944 0.365109
0.0207786 0.00536494 -0.0153098
0.00765489 0.135474 -0.386597
-0.0101121 0.183406 -0.523383
-0.0217453 0.120087 -0.342691
-0.0201861 -0.0160341 0.0457536
-0.00619611 -0.138331 0.394582
0.00547226 -0.365531 0.322404
0.0130974 -0.254668 0.224621
0.0127778 0.0106733 -0.00941406
0.00470739 0.26954 -0.237739
-0.00621848 0.364907 -0.321854
-0.0133723 0.238927 -0.210737
-0.0124147 -0.0319836 0.0282101
-0.00392646 -0.283493 0.250046
0 -0.229586 0
0 -0.173663 0
0 0.00727837 0
0 0.183805 0
0 0.248838 0
0 0.162929 0
0 -0.0218103 0
0 -0.178059 0
-0.0806215 -0.0903224 -0.344393
-0.198853 -0.064985 -0.247196
-0.194028 0.00272508 0.0103655
-0.0714792 0.0688117 0.261745
0.0944258 0.0931589 0.354353
0.203051 0.0609967 0.232016
0.188495 -0.00814223 -0.0309766
0.0578475 -0.0700509 -0.2671
-0.112339 0.10373 -0.479883
-0.277084 0.0744523 -0.344447
-0.27036 -0.00312196 0.0144432
-0.0996008 -0.0788345 0.364718
0.131574 -0.106727 0.493762
0.282934 -0.0698802 0.323296
0.262651 0.0093298 -0.0431632
0.0806055 0.0804494 -0.37218
-0.0759132 0.234861 -0.324281
-0.187242 0.168577 -0.232759
-0.182696 -0.00706871 0.00976008
-0.0673059 -0.178498 0.246459
0.0889109 -0.241654 0.33366
0.191197 -0.158225 0.218465
0.177486 0.0211247 -0.0291675
0.0544693 0.18215 -0.251501
0.0065605 0.223529 0.0280247
0.0161816 0.160443 0.0201153
0.0157888 -0.00672764 -0.000843469
0.00581663 -0.169886 -0.0212992
-0.0076838 -0.229992 -0.028835
-0.0165233 -0.15059 -0.0188801
-0.0153386 0.0201054 0.00252069
-0.00470729 0.173361 0.021735
0.0850547 0.0766067 0.363331
0.209787 0.054986 0.260787
0.204693 -0.00230568 -0.0109355
0.0754099 -0.0582225 -0.276135
-0.0996171 -0.0788226 -0.373839
-0.214217 -0.0516096 -0.244775
-0.198858 0.0068904 0.0326798
-0.0610285 0.0594135 0.281787
0.111956 -0.116784 0.478246
0.276086 -0.0837737 0.343207
0.269385 0.00351274 -0.0143913
0.0992422 0.0887025 -0.363406
-0.1311 0.120087 -0.491985
-0.281916 0.0786286 -0.322133
-0.261706 -0.0104985 0.0430087
-0.0803306 -0.0905736 0.370911
0.0709461 -0.239335 0.303063
0.169803 -0.166746 0.211146
0.16566 0.00698847 -0.0088493
0.0610297 0.176484 -0.223477
-0.0806206 0.238927 -0.302546
-0.173368 0.15644 -0.198095
-0.160952 -0.0209416 0.0265178
-0.0509053 -0.18562 0.235045
0 0.0307333 0
0 0.0232472 0
0 -0.000974309 0
0 -0.0246048 0
0 -0.0333104 0
0 -0.0218103 0
0 0.00291961 0
0 0.0238357 0
-0.10612 0.0120909 -0.11351
-0.2617 0.00867497 -0.0815132
-0.255346 -0.000363746 0.00341806
-0.0940705 -0.00918523 0.086312
0.124267 -0.0124351 0.116849
0.267224 -0.00814204 0.0765085
0.248066 0.00108726 -0.010214
0.0761436 0.00937728 -0.0880345
-0.14787 -0.0138857 -0.158166
-0.364656 -0.00994054 -0.113582
-0.355801 0.000416796 0.00476276
-0.131079 0.010525 0.120268
0.173156 0.0142488 0.16282
0.372357 0.00932958 0.106609
0.345658 -0.00124604 -0.0142323
0.106099 -0.0107693 -0.122669
-0.0999231 -0.0314394 -0.106881
-0.246417 -0.0225074 -0.0767528
-0.240434 0.000943718 0.00321846
-0.0885764 0.0238308 0.0812711
0.11701 0.0322623 0.110026
0.25162 0.0211241 0.0720404
0.233578 -0.00282125 -0.00961751
0.0716968 -0.0243833 -0.0828934
0.00863546 -0.0299224 0.00923678
0.0212956 -0.0214213 0.00663306
0.0207786 0.000898177 -0.00027814
0.00765489 0.0226808 -0.00702351
-0.0101121 0.0307056 -0.00950852
-0.0217453 0.0201049 -0.00622583
-0.0201861 -0.00268514 0.00083116
-0.00619611 -0.0232068 0.00716373
0.111956 -0.0102549 0.119752
0.276086 -0.00734147 0.0859957
0.269385 0.000307822 -0.003606
0.0992422 0.00777312 -0.0910579
-0.1311 0.0105233 -0.123275
-0.281916 0.00689024 -0.0807158
-0.261706 -0.000920241 0.0107757
-0.0803306 -0.00795332 0.0928754
0.147365 0.0156331 0.157627
0.363345 0.0111858 0.113173
0.354521 -0.000469009 -0.0047456
0.130607 -0.0118434 -0.119834
-0.172532 -0.0160337 -0.162234
-0.371017 -0.0104983 -0.106224
-0.344414 0.0014022 0.0141814
-0.105738 0.0121245 0.12225
0.093385 0.0320383 0.0998878
0.223509 0.0223213 0.0695925
0.218055 -0.000935503 -0.00291668
0.0803323 -0.0236248 -0.0736567
-0.106119 -0.0319836 -0.0997175
-0.2282 -0.0209416 -0.065291
-0.211858 0.00280332 0.0087401
-0.0670056 0.0248478 0.0774696
0 0.272411 0
0 0.18979 0
0 -0.00795426 0
0 -0.200874 0
0 -0.271946 0
0 -0.178059 0
0 0.0238357 0
0 0.211272 0
-0.0672482 0.10717 0.186227
-0.160953 0.074666 0.129745
-0.157026 -0.00312931 -0.00543774
-0.0578487 -0.0790265 -0.137323
0.0764184 -0.106987 -0.185909
0.164331 -0.0700509 -0.121726
0.152563 0.00937728 0.0162947
0.048252 0.0831173 0.144431
-0.0937046 -0.123078 0.259491
-0.224274 -0.0857496 0.180789
-0.218802 0.00359384 -0.00757702
-0.0806072 0.0907573 -0.191347
0.106482 0.122869 -0.259049
0.228981 0.0804494 -0.169615
0.212583 -0.0107693 0.0227052
0.0672349 -0.0954554 0.201252
-0.063321 -0.278669 0.175351
-0.151553 -0.194151 0.122168
-0.147855 0.00813701 -0.00512018
-0.0544704 0.205489 -0.129303
0.0719556 0.278194 -0.175052
0.154734 0.18215 -0.114617
0.143653 -0.0243833 0.0153431
0.0454341 -0.216126 0.135997
0.00547226 -0.265223 -0.015154
0.0130974 -0.184783 -0.0105579
0.0127778 0.00774439 0.000442491
0.00470739 0.195574 0.0111745
-0.00621848 0.264771 0.0151282
-0.0133723 0.173361 0.00990534
-0.0124147 -0.0232068 -0.00132597
-0.00392646 -0.205698 -0.011753
0.0709461 -0.0908959 -0.196467
0.169803 -0.0633278 -0.13688
0.16566 0.00265412 0.00573675
0.0610297 0.0670261 0.144874
-0.0806205 0.0907409 0.196132
-0.173367 0.0594135 0.12842
-0.160952 -0.00795332 -0.0171907
-0.0509053 -0.0704958 -0.152373
0.093385 0.138567 -0.258606
0.223509 0.0965408 -0.180173
0.218055 -0.0040461 0.00755118
0.0803323 -0.102179 0.190694
-0.106119 -0.138331 0.258165
-0.2282 -0.0905736 0.169036
-0.211858 0.0121245 -0.0226278
-0.0670056 0.107468 -0.200566
0.0591778 0.283977 -0.163878
0.141637 0.197849 -0.114175
0.138181 -0.00829201 0.00478516
0.0509063 -0.209403 0.120843
-0.0672475 -0.283493 0.163598
-0.14461 -0.18562 0.107118
-0.134254 0.0248478 -0.0143392
-0.0424613 0.220243 -0.127098
