# vtk DataFile Version 3.0
Velocity field
ASCII
DATASET STRUCTURED_POINTS
DIMENSIONS 10 10 10
SPACING 0.631579 0.631579 0.631579
ORIGIN 0 0 0
POINT_DATA 1000
VECTORS velocity float
0 0.742744 0
0 0.599466 0
0 0.224909 0
0 -0.236419 0
0 -0.606535 0
0 -0.742645 0
0 -0.592238 0
0 -0.21334 0
0 0.247865 0
0 0.613442 0
0 0.456188 0.581809
0 0.368187 0.487988
0 0.138138 0.183085
0 -0.145207 -0.192454
0 -0.372529 -0.493742
0 -0.456127 -0.604541
0 -0.363748 -0.482104
0 -0.131032 -0.173667
0 0.152237 0.201772
0 0.376772 0.480524
0 -0.00636896 0.939151
0 -0.00514036 0.787706
0 -0.00192858 0.295534
0 0.00202727 -0.310657
0 0.00520098 -0.796995
0 0.00636811 -0.975846
0 0.00507838 -0.778209
0 0.00182937 -0.280332
0 -0.00212542 0.325698
0 -0.00526021 0.775658
0 -0.466468 0.934162
0 -0.376485 0.783522
0 -0.141251 0.293964
0 0.148479 -0.309007
0 0.380924 -0.792761
0 0.466406 -0.970662
0 0.371945 -0.774074
0 0.133985 -0.278843
0 -0.155668 0.323968
0 -0.385263 0.771538
0 -0.746601 0.568767
0 -0.602579 0.477049
0 -0.226077 0.178981
0 0.237646 -0.18814
0 0.609685 -0.482674
0 0.746502 -0.590989
0 0.595313 -0.471296
0 0.214448 -0.169774
0 -0.249152 0.197249
0 -0.616628 0.469752
0 -0.738689 -0.0160635
0 -0.596193 -0.0134731
0 -0.223682 -0.00505489
0 0.235128 0.00531356
0 0.603224 0.013632
0 0.738591 0.0166911
0 0.589005 0.0133107
0 0.212176 0.00479487
0 -0.246512 -0.00557082
0 -0.610094 -0.0132671
0 -0.445786 -0.594696
0 -0.359792 -0.498797
0 -0.134988 -0.18714
0 0.141896 0.196717
0 0.364035 0.504679
0 0.445727 0.617932
0 0.355454 0.492783
0 0.128044 0.177514
0 -0.148766 -0.206241
0 -0.368181 -0.491168
0 0.0191054 -0.943891
0 0.0154199 -0.791681
0 0.00578527 -0.297025
0 -0.00608132 0.312225
0 -0.0156017 0.801017
0 -0.0191028 0.980771
0 -0.0152339 0.782136
0 -0.00548769 0.281747
0 0.00637576 -0.327342
0 0.0157794 -0.779572
0 0.476625 -0.928925
0 0.384682 -0.779129
0 0.144326 -0.292316
0 -0.151712 0.307275
0 -0.389219 0.788316
0 -0.476562 0.96522
0 -0.380044 0.769735
0 -0.136902 0.27728
0 0.159057 -0.322152
0 0.393651 -0.767212
0 0.75026 -0.555573
0 0.605532 -0.448401
0 0.227185 -0.168233
0 -0.238811 0.176842
0 -0.612672 0.453689
0 -0.75016 0.5555
0 -0.59823 0.442994
0 -0.215499 0.159579
0 0.250373 -0.185404
0 0.61965 -0.458856
0 0.599466 0
0 0.508995 0
0 0.190966 0
0 -0.200739 0
0 -0.514998 0
0 -0.630566 0
0 -0.502858 0
0 -0.181143 0
0 0.210458 0
0 0.495107 0
0.0845942 0.368187 0.643899
0.236587 0.316547 0.554666
0.291659 0.119064 0.208665
0.233997 -0.125182 -0.21939
0.0860527 -0.321154 -0.562846
-0.0950918 -0.393222 -0.689151
-0.239549 -0.313584 -0.549578
-0.291582 -0.11298 -0.198009
-0.230932 0.130535 0.228686
-0.076109 0.304091 0.531805
0.136551 -0.00514036 1.03938
0.381898 -0.00440201 0.895338
0.470792 -0.00165564 0.336825
0.377717 0.00174073 -0.354138
0.138906 0.00446585 -0.908539
-0.153496 0.00546796 -1.11242
-0.386677 0.00436055 -0.887125
-0.470668 0.00157106 -0.319624
-0.37277 -0.00181536 0.369143
-0.122855 -0.0042455 0.858436
0.135826 -0.376485 1.03386
0.379869 -0.323504 0.890582
0.468291 -0.121688 0.335036
0.375711 0.127941 -0.352256
0.138168 0.328234 -0.903712
-0.152681 0.401891 -1.10651
-0.384624 0.320496 -0.882412
-0.468168 0.115472 -0.317927
-0.37079 -0.133396 0.367182
-0.122202 -0.310944 0.853875
0.0826979 -0.602579 0.629465
0.231284 -0.517783 0.542232
0.285121 -0.194766 0.203987
0.228752 0.204775 -0.214472
0.0841236 0.525351 -0.550227
-0.0929604 0.643243 -0.673703
-0.234179 0.512969 -0.537258
-0.285046 0.184818 -0.19357
-0.225755 -0.213506 0.223559
-0.0744029 -0.497678 0.519884
-0.00233561 -0.596193 -0.0177778
-0.00653207 -0.512296 -0.0153141
-0.00805251 -0.192702 -0.00576114
-0.00646052 0.202605 0.00605724
-0.00237588 0.519784 0.0155399
0.00262542 0.636426 0.0190271
0.00661382 0.507533 0.0151737
0.00805039 0.182859 0.00546693
0.00637595 -0.211243 -0.00631391
0.00210134 -0.492404 -0.0146829
-0.086468 -0.359792 -0.658161
-0.241828 -0.309162 -0.566952
-0.298118 -0.116293 -0.213286
-0.23918 0.122269 0.224249
-0.0879587 0.31368 0.575313
0.0971978 0.384074 0.704414
0.244855 0.306288 0.561752
0.298039 0.110352 0.202395
0.236047 -0.127482 -0.233752
0.0777948 -0.297157 -0.543585
-0.13724 0.0154199 -1.04462
-0.38381 0.0132205 -0.899824
-0.47315 0.00497212 -0.338512
-0.379608 -0.00522754 0.355911
-0.139601 -0.0134113 0.913091
0.154265 -0.0164209 1.118
0.388614 -0.0130952 0.891568
0.473025 -0.004718 0.321225
0.374636 0.00545237 -0.370994
0.123474 0.0127355 -0.862768
-0.135064 0.384682 -1.02806
-0.377208 0.329454 -0.884432
-0.464998 0.1239 -0.332695
-0.373068 -0.130265 0.349792
-0.137196 -0.334194 0.897393
0.151607 -0.40919 1.09877
0.381919 -0.326318 0.876241
0.464876 -0.117567 0.315701
0.368191 0.135878 -0.364678
0.121517 0.317714 -0.849088
-0.0807796 0.605532 -0.614864
-0.211173 0.488723 -0.496254
-0.260095 0.18336 -0.186186
-0.20867 -0.192744 0.195714
-0.0767385 -0.494486 0.502106
0.0847992 -0.605451 0.614782
0.213621 -0.48283 0.49027
0.260026 -0.173929 0.176609
0.206111 0.202075 -0.20519
0.072677 0.500117 -0.507824
0 0.224909 0
0 0.190966 0
0 0.0716474 0
0 -0.0753138 0
0 -0.193218 0
0 -0.236578 0
0 -0.188664 0
0 -0.0679619 0
0 0.0789602 0
0 0.185756 0
0.136551 0.138138 0.457568
0.381898 0.119064 0.394279
0.470792 0.0447908 0.148335
0.377717 -0.0470927 -0.155961
0.138906 -0.120816 -0.400118
-0.153496 -0.147929 -0.489907
-0.386677 -0.117969 -0.390686
-0.470668 -0.0425032 -0.140763
-0.37277 0.0490905 0.162549
-0.122855 0.11409 0.377912
0.22042 -0.00192858 0.738602
0.616457 -0.00165564 0.636442
0.75995 -0.000622802 0.239442
0.609708 0.000654812 -0.251751
0.22422 0.00167992 -0.645867
-0.247773 0.00205692 -0.790803
-0.624172 0.00164033 -0.630643
-0.759749 0.000590998 -0.227218
-0.601721 -0.000682667 0.262385
-0.198311 -0.00159284 0.610022
0.219249 -0.141251 0.734679
0.613183 -0.121688 0.63306
0.755913 -0.0457806 0.23817
0.606469 0.0481339 -0.250414
0.223029 0.123488 -0.642436
-0.246456 0.151199 -0.786602
-0.620856 0.120577 -0.627293
-0.755714 0.0434432 -0.226011
-0.598524 -0.0501687 0.260991
-0.197257 -0.116661 0.606781
0.13349 -0.226077 0.447311
0.373337 -0.194766 0.385441
0.460239 -0.0732737 0.14501
0.36925 0.0770404 -0.152465
0.135792 0.197647 -0.391148
-0.150055 0.242001 -0.478925
-0.37801 0.192988 -0.38193
-0.460118 0.0695329 -0.137607
-0.364413 -0.0802973 0.158905
-0.120101 -0.18672 0.36944
-0.00377012 -0.223682 -0.0126332
-0.010544 -0.192702 -0.0108859
-0.0129983 -0.0724972 -0.00409548
-0.0104285 0.0762241 0.00430601
-0.00383512 0.195553 0.0110471
0.00423796 0.239436 0.0135261
0.010676 0.190944 0.0107867
0.0129949 0.0687959 0.00388638
0.010292 -0.0794465 -0.00448792
0.00339196 -0.184742 -0.010434
-0.139576 -0.134988 -0.467703
-0.390356 -0.116293 -0.403012
-0.48122 -0.0437509 -0.151621
-0.386082 0.0460001 0.159415
-0.141983 0.118013 0.408981
0.156896 0.144496 0.500758
0.395242 0.115231 0.39934
0.481093 0.0415173 0.143881
0.381026 -0.0479447 -0.16615
0.125576 -0.111488 -0.386283
-0.221532 0.00578527 -0.74233
-0.619543 0.00497212 -0.63963
-0.763755 0.00187025 -0.240641
-0.612761 -0.00196635 0.253012
-0.225343 -0.00504466 0.649102
0.249013 -0.00617673 0.794764
0.627297 -0.00492576 0.633801
0.763554 -0.0017747 0.228356
0.604735 0.00205028 -0.263701
0.199312 0.00477814 -0.6131
-0.21802 0.144326 -0.73056
-0.608886 0.1239 -0.628672
-0.750597 0.0466028 -0.236499
-0.602203 -0.0489974 0.248655
-0.22146 -0.125703 0.637924
0.244723 -0.153911 0.781078
0.61649 -0.12274 0.622888
0.750399 -0.0442218 0.224422
0.594331 0.051093 -0.259205
0.196151 0.119201 -0.60338
-0.130394 0.227185 -0.436935
-0.340875 0.18336 -0.352648
-0.419843 0.0687937 -0.132308
-0.336834 -0.0723141 0.139078
-0.123871 -0.185523 0.356807
0.136882 -0.227155 0.436877
0.344825 -0.181149 0.348396
0.419732 -0.065255 0.125502
0.332703 0.0758153 -0.145812
0.117315 0.187635 -0.360871
0 -0.236419 0
0 -0.200739 0
0 -0.0753138 0
0 0.0791678 0
0 0.203106 0
0 0.248684 0
0 0.198318 0
0 0.0714397 0
0 -0.0830009 0
0 -0.195261 0
0.135826 -0.145207 0.0947038
0.379869 -0.125182 0.0816044
0.468291 -0.0470927 0.0307011
0.375711 0.0495134 -0.0322794
0.138168 0.127027 -0.082813
-0.152681 0.155532 -0.101397
-0.384624 0.124032 -0.0808607
-0.468168 0.044688 -0.0291338
-0.37079 -0.051612 0.0336429
-0.122202 -0.119928 0.0782172
0.219249 0.00202727 0.15287
0.613183 0.00174073 0.131725
0.755913 0.000654812 0.0495575
0.606469 -0.000688473 -0.0521053
0.223029 -0.00176626 -0.133676
-0.246456 -0.00216265 -0.163674
-0.620856 -0.00172465 -0.130525
-0.755714 -0.000621372 -0.0470276
-0.598524 0.000717736 0.0543061
-0.197257 0.00167435 0.126258
0.218085 0.148479 0.152058
0.609925 0.127941 0.131025
0.751898 0.048134 0.0492942
0.603247 -0.0506085 -0.0518285
0.221844 -0.129836 -0.132966
-0.245147 -0.158972 -0.162804
-0.617559 -0.126776 -0.129831
-0.751699 -0.0456767 -0.0467777
-0.595345 0.0527463 0.0540176
-0.19621 0.122631 0.125587
0.132781 0.237646 0.0925808
0.371354 0.204775 0.0797749
0.457795 0.0770404 0.0300129
0.367288 -0.0810009 -0.0315558
0.13507 -0.207808 -0.0809563
-0.149258 -0.254442 -0.0991235
-0.376002 -0.20291 -0.0790481
-0.457674 -0.0731075 -0.0284807
-0.362477 0.0844224 0.0328887
-0.119463 0.196275 0.0764638
-0.0037501 0.235128 -0.00261473
-0.010488 0.202605 -0.00225306
-0.0129292 0.0762241 -0.000847645
-0.0103732 -0.0801425 0.000891219
-0.00381476 -0.205606 0.00228643
0.00421545 -0.251745 0.00279952
0.0106193 -0.200759 0.00223255
0.0129259 -0.0723328 0.000804368
0.0102373 0.0835277 -0.000928865
0.00337394 0.194196 -0.00215954
-0.138835 0.141896 -0.0968015
-0.388283 0.122269 -0.0834118
-0.478663 0.0460001 -0.0313811
-0.384032 -0.0483647 0.0329943
-0.141229 -0.12408 0.084647
0.156062 -0.151924 0.103643
0.393142 -0.121155 0.0826521
0.478537 -0.0436516 0.0297791
0.379002 0.0504075 -0.0343881
0.124909 0.117194 -0.0799497
-0.220356 -0.00608132 -0.153642
-0.616253 -0.00522754 -0.132385
-0.759698 -0.00196635 -0.0498057
-0.609506 0.00206739 0.0523662
-0.224146 0.00530391 0.134345
0.24769 0.00649414 0.164494
0.623965 0.00517889 0.131178
0.759497 0.0018659 0.0472631
0.601522 -0.00215559 -0.0545783
0.198253 -0.00502265 -0.126895
-0.216862 -0.151712 -0.151206
-0.605652 -0.130265 -0.130117
-0.74661 -0.0489974 -0.0489484
-0.599004 0.0515151 0.0514644
-0.220284 0.132162 0.132032
0.243423 0.16182 0.16166
0.613216 0.129047 0.12892
0.746413 0.0464942 0.0464489
0.591174 -0.0537169 -0.0536482
0.195109 -0.125301 -0.124883
-0.129701 -0.238811 -0.0904333
-0.339064 -0.192744 -0.0729884
-0.417613 -0.0723141 -0.027384
-0.335044 0.0760146 0.0287853
-0.123213 0.195016 0.0738491
0.136155 0.238779 0.0904213
0.342993 0.190419 0.0721083
0.417502 0.0685943 0.0259754
0.330936 -0.079695 -0.030179
0.116691 -0.197237 -0.0746901
0 -0.606535 0
0 -0.514998 0
0 -0.193218 0
0 0.203106 0
0 0.52107 0
0 0.638002 0
0 0.508788 0
0 0.183279 0
0 -0.21294 0
0 -0.500945 0
0.0826979 -0.372529 -0.304698
0.231284 -0.321154 -0.262551
0.285121 -0.120816 -0.0987767
0.228752 0.127027 0.103855
0.0841236 0.325886 0.266439
-0.0929604 0.399017 0.32623
-0.234179 0.318205 0.260158
-0.285046 0.114647 0.093734
-0.225755 -0.132411 -0.108241
-0.0744029 -0.307677 -0.251654
0.13349 0.00520098 -0.491841
0.373337 0.00446585 -0.423808
0.460239 0.00167992 -0.159445
0.36925 -0.00176625 0.167641
0.135792 -0.0045314 0.430084
-0.150055 -0.0055483 0.526597
-0.37801 -0.00442459 0.419947
-0.460118 -0.00159413 0.151305
-0.364413 0.00184134 -0.174723
-0.120101 0.00429556 -0.406218
0.132781 0.380924 -0.489228
0.371354 0.328234 -0.421557
0.457795 0.123488 -0.158598
0.367288 -0.129836 0.166751
0.13507 -0.333094 0.427799
-0.149258 -0.407843 0.523799
-0.376002 -0.325243 0.417716
-0.457674 -0.117183 0.150501
-0.362477 0.13532 -0.173795
-0.119463 0.314611 -0.40406
0.0808441 0.609685 -0.297867
0.226099 0.52535 -0.256666
0.278729 0.197647 -0.0965624
0.223624 -0.207808 0.101527
0.0822381 -0.533131 0.260466
-0.0908763 -0.65277 0.318916
-0.22893 -0.520564 0.254327
-0.278656 -0.187557 0.0916328
-0.220695 0.216586 -0.105815
-0.072735 0.503547 -0.246013
-0.00228325 0.603224 0.00841257
-0.00638565 0.519784 0.00724888
-0.00787201 0.195553 0.00272719
-0.00631573 -0.205606 -0.00286738
-0.0023226 -0.527481 -0.00735625
0.0025666 -0.645851 -0.00900708
0.00646555 -0.515048 -0.00718285
0.00786993 -0.18557 -0.00258796
0.00623302 0.214291 0.00298849
0.00205423 0.498211 0.00694806
-0.0845297 0.364035 0.311447
-0.236406 0.31368 0.268366
-0.291436 0.118013 0.100965
-0.233818 -0.12408 -0.106155
-0.085987 -0.318326 -0.27234
0.0950192 -0.38976 -0.333456
0.239366 -0.310823 -0.265921
0.291359 -0.111988 -0.0958101
0.230756 0.129321 0.110639
0.0760509 0.300661 0.257228
-0.134164 -0.0156017 0.494323
-0.375207 -0.0134113 0.425932
-0.462544 -0.00504466 0.160243
-0.3711 0.00530391 -0.168481
-0.136472 0.0136071 -0.432238
0.150807 0.0166607 -0.529234
0.379903 0.0132865 -0.42205
0.462422 0.00478696 -0.152062
0.366239 -0.00553016 0.175599
0.120707 -0.0128857 0.408268
-0.132037 -0.389219 0.486485
-0.368752 -0.334194 0.418634
-0.454575 -0.125703 0.157485
-0.364705 0.132162 -0.16558
-0.13412 0.339061 -0.424796
0.148209 0.41515 -0.520121
0.373358 0.331071 -0.414782
0.454455 0.119281 -0.149443
0.359937 -0.137811 0.172605
0.118793 -0.321461 0.401795
-0.0789688 -0.612672 0.290958
-0.20644 -0.494486 0.234831
-0.254265 -0.185523 0.0881046
-0.203992 0.195016 -0.0926132
-0.0750183 0.500317 -0.2376
0.0828983 0.612591 -0.290919
0.208832 0.488523 -0.232
0.254197 0.17598 -0.0835726
0.201491 -0.204458 0.0970972
0.0710478 -0.506015 0.240306
0 -0.742645 0
0 -0.630566 0
0 -0.236578 0
0 0.248684 0
0 0.638002 0
0 0.781174 0
0 0.622963 0
0 0.224409 0
0 -0.260725 0
0 -0.613361 0
-0.00233561 -0.456127 -0.586544
-0.00653207 -0.393222 -0.505412
-0.00805251 -0.147929 -0.190146
-0.00646052 0.155532 0.199921
-0.00237588 0.399017 0.512896
0.00262542 0.488559 0.627993
0.00661382 0.389612 0.500808
0.00805039 0.140374 0.180438
0.00637595 -0.162125 -0.208366
0.00210134 -0.376722 -0.484435
-0.00377012 0.00636811 -0.946796
-0.010544 0.00546795 -0.815832
-0.0129983 0.00205692 -0.306932
-0.0104285 -0.00216265 0.32271
-0.00383512 -0.0055483 0.827915
0.00423796 -0.00679334 1.0137
0.010676 -0.00541749 0.808399
0.0129949 -0.00195187 0.291263
0.010292 0.00225457 -0.336342
0.00339196 0.00525951 -0.781972
-0.0037501 0.466406 -0.941766
-0.010488 0.401891 -0.811498
-0.0129292 0.151199 -0.305302
-0.0103732 -0.158972 0.320996
-0.00381476 -0.407843 0.823516
0.00421545 -0.499365 1.00832
0.0106193 -0.398229 0.804104
0.0129259 -0.14348 0.289715
0.0102373 0.165687 -0.334555
0.00337394 0.385211 -0.777818
-0.00228325 0.746502 -0.573396
-0.00638565 0.643242 -0.494082
-0.00787201 0.242001 -0.185883
-0.00631573 -0.254442 0.195439
-0.0023226 -0.65277 0.501399
0.0025666 -0.799254 0.613917
0.00646555 -0.637382 0.489581
0.00786993 -0.229646 0.176393
0.00623302 0.265189 -0.203695
0.00205423 0.616546 -0.473576
6.44852e-05 0.738591 0.0161942
0.000180345 0.636426 0.0139542
0.000222331 0.239436 0.0052498
0.000178374 -0.251745 -0.00551975
6.55975e-05 -0.645851 -0.0141608
-7.24853e-05 -0.790784 -0.0173386
-0.000182609 -0.630628 -0.0138271
-0.000222273 -0.227212 -0.00498182
-0.000176036 0.262379 0.00575288
-5.8017e-05 0.610012 0.013375
0.00238734 0.445727 0.599537
0.00667674 0.384074 0.516607
0.00823091 0.144496 0.194357
0.00660365 -0.151924 -0.204349
0.00242849 -0.38976 -0.524256
-0.00268359 -0.477226 -0.641903
-0.00676035 -0.380575 -0.5119
-0.00822874 -0.137119 -0.184435
-0.00651716 0.158342 0.212981
-0.00214788 0.368132 0.495166
0.00378915 -0.0191028 0.951574
0.0105968 -0.0164209 0.81992
0.0130634 -0.00617673 0.308468
0.0104807 0.00649414 -0.324326
0.00385432 0.0166607 -0.83206
-0.00425918 0.0203995 -1.01878
-0.0107294 0.016268 -0.812448
-0.01306 0.00586119 -0.292721
-0.0103435 -0.00677115 0.338028
-0.00340908 -0.0157773 0.785918
0.00372907 -0.476562 0.936486
0.0104145 -0.40919 0.805871
0.0128384 -0.153911 0.30316
0.0103003 0.16182 -0.318741
0.00378794 0.41515 -0.817732
-0.00418579 0.508312 -1.00124
-0.0105445 0.405365 -0.798457
-0.012835 0.146048 -0.287679
-0.0101656 -0.168736 0.332265
-0.00335503 -0.393599 0.773457
0.00223029 -0.75016 0.560096
0.00583041 -0.605451 0.452051
0.00718111 -0.227155 0.169602
0.00576129 0.238779 -0.178281
0.00211872 0.612591 -0.457382
-0.00234127 0.75006 -0.560021
-0.00589798 0.598151 -0.4466
-0.0071792 0.21547 -0.160878
-0.00569064 -0.25034 0.186913
-0.00200658 -0.619568 0.462591
0 -0.592238 0
0 -0.502858 0
0 -0.188664 0
0 0.198318 0
0 0.508788 0
0 0.622963 0
0 0.496795 0
0 0.178959 0
0 -0.20792 0
0 -0.489137 0
-0.086468 -0.363748 -0.642098
-0.241828 -0.313584 -0.553281
-0.298118 -0.117969 -0.208155
-0.23918 0.124032 0.218856
-0.0879587 0.318205 0.561477
0.0971977 0.389612 0.687474
0.244855 0.310705 0.54824
0.298039 0.111945 0.197528
0.236047 -0.129289 -0.228101
0.0777948 -0.300424 -0.530318
-0.139576 0.00507838 -1.03647
-0.390356 0.00436055 -0.893102
-0.48122 0.00164033 -0.336002
-0.386082 -0.00172465 0.353276
-0.141983 -0.00442459 0.906329
0.156896 -0.00541749 1.10972
0.395242 -0.00432029 0.884965
0.481093 -0.00155657 0.318848
0.381026 0.00179795 -0.368198
0.125576 0.0041943 -0.856035
-0.138835 0.371945 -1.03096
-0.388283 0.320496 -0.888358
-0.478663 0.120577 -0.334218
-0.384032 -0.126776 0.351399
-0.141229 -0.325243 0.901514
0.156062 -0.398229 1.10382
0.393142 -0.317576 0.880264
0.478537 -0.114421 0.317154
0.379002 0.132131 -0.366242
0.124909 0.307195 -0.851487
-0.0845297 0.595313 -0.627704
-0.236406 0.512969 -0.540878
-0.291436 0.192988 -0.203489
-0.233819 -0.20291 0.21395
-0.085987 -0.520564 0.548888
0.0950192 -0.637382 0.672063
0.239366 -0.508295 0.535951
0.291359 -0.183136 0.1931
0.230756 0.211481 -0.222987
0.0760509 0.491677 -0.51843
0.00238734 0.589005 0.017728
0.00667674 0.507533 0.0152759
0.00823091 0.190944 0.00574705
0.00660365 -0.200759 -0.00604252
0.00242849 -0.515048 -0.0155021
-0.00268359 -0.630628 -0.0189808
-0.00676035 -0.502909 -0.0151368
-0.00822874 -0.181195 -0.00545368
-0.00651716 0.20924 0.00629776
-0.00214788 0.486467 0.0146418
0.0883833 0.355454 0.656321
0.247184 0.306288 0.565538
0.304721 0.115231 0.212766
0.244478 -0.121155 -0.223704
0.0899069 -0.310823 -0.573913
-0.0993507 -0.380575 -0.702701
-0.250278 -0.303497 -0.560386
-0.304641 -0.109348 -0.201903
-0.241276 0.126273 0.233153
-0.079518 0.293574 0.542065
0.14028 -0.0152339 1.0417
0.392311 -0.0130952 0.897577
0.48363 -0.00492576 0.337685
0.388015 0.00517889 -0.355045
0.142694 0.0132865 -0.910868
-0.157682 0.016268 -1.11527
-0.397221 0.0129733 -0.889398
-0.483503 0.00467413 -0.320445
-0.382934 -0.00539978 0.370044
-0.12621 -0.0125819 0.860355
0.138056 -0.380044 1.02518
0.385563 -0.326318 0.882199
0.475298 -0.12274 0.331873
0.381332 0.129047 -0.348931
0.140235 0.331071 -0.895182
-0.154965 0.405365 -1.09607
-0.390377 0.323267 -0.874082
-0.475172 0.116469 -0.314925
-0.376346 -0.134562 0.363735
-0.124208 -0.313883 0.846714
0.0825689 -0.59823 0.613144
0.215851 -0.48283 0.494866
0.265856 -0.181149 0.185665
0.213292 0.190419 -0.195167
0.0784383 0.488523 -0.500702
-0.0866776 0.598151 -0.613063
-0.218353 0.477008 -0.488899
-0.265786 0.171831 -0.176115
-0.210677 -0.199639 0.204616
-0.0742868 -0.494087 0.506404
0 -0.21334 0
0 -0.181143 0
0 -0.0679619 0
0 0.0714397 0
0 0.183279 0
0 0.224409 0
0 0.178959 0
0 0.064466 0
0 -0.0748986 0
0 -0.176201 0
-0.13724 -0.131032 -0.449925
-0.38381 -0.11298 -0.387707
-0.47315 -0.0425033 -0.145863
-0.379608 0.0446881 0.153362
-0.139601 0.114647 0.393449
0.154265 0.140375 0.481742
0.388614 0.111945 0.384176
0.473025 0.0403328 0.138417
0.374636 -0.0465809 -0.159839
0.123474 -0.108221 -0.3716
-0.221532 0.00182937 -0.726266
-0.619543 0.00157107 -0.625832
-0.763755 0.000591 -0.235451
-0.612761 -0.000621373 0.247556
-0.225343 -0.00159413 0.635102
0.249013 -0.00195187 0.777624
0.627297 -0.00155658 0.620133
0.763554 -0.000560829 0.223431
0.604735 0.000647774 -0.25801
0.199312 0.0015109 -0.599833
-0.220356 0.133985 -0.722408
-0.616253 0.115472 -0.622507
-0.759698 0.0434433 -0.234201
-0.609506 -0.0456768 0.24624
-0.224146 -0.117184 0.631729
0.24769 -0.143481 0.773493
0.623965 -0.114422 0.616839
0.759497 -0.0412256 0.222244
0.601522 0.0476049 -0.25664
0.198253 0.11066 -0.596647
-0.134164 0.214448 -0.43984
-0.375207 0.184818 -0.379016
-0.462544 0.069533 -0.142594
-0.3711 -0.0731077 0.149924
-0.136472 -0.187558 0.38463
0.150807 -0.229647 0.470943
0.379903 -0.183137 0.375564
0.462422 -0.0659831 0.135314
0.366238 0.0761936 -0.156256
0.120707 0.177116 -0.36327
0.00378915 0.212176 0.0124222
0.0105968 0.182859 0.0107044
0.0130634 0.0687961 0.00402721
0.0104807 -0.072333 -0.00423424
0.00385432 -0.18557 -0.0108629
-0.00425918 -0.227213 -0.0133007
-0.0107294 -0.181196 -0.0106069
-0.01306 -0.0652839 -0.00382163
-0.0103435 0.0753861 0.0044131
-0.00340908 0.175239 0.0102597
0.14028 0.128044 0.459891
0.392311 0.110352 0.396294
0.48363 0.0415174 0.149094
0.388015 -0.0436516 -0.156759
0.142694 -0.111988 -0.402164
-0.157682 -0.137119 -0.492412
-0.397221 -0.109349 -0.392685
-0.483503 -0.0393978 -0.141483
-0.382934 0.0454941 0.163379
-0.12621 0.105754 0.379831
0.22265 -0.00548769 0.729931
0.622646 -0.00471801 0.628968
0.767579 -0.0017747 0.23663
0.615828 0.0018659 -0.248795
0.226471 0.00478697 -0.638283
-0.25026 0.0058612 -0.781518
-0.630438 0.00467414 -0.623238
-0.767376 0.00168404 -0.22455
-0.607764 -0.00194544 0.259304
-0.200317 -0.00453235 0.60286
0.21912 -0.136902 0.718358
0.611937 -0.117567 0.618192
0.754357 -0.0442219 0.232557
0.60522 0.0464943 -0.24451
0.22257 0.119281 -0.627291
-0.245949 0.146049 -0.768061
-0.619577 0.116469 -0.612507
-0.754158 0.0419626 -0.220681
-0.597308 -0.0484801 0.254883
-0.197141 -0.113069 0.593302
0.131052 -0.215499 0.429637
0.342595 -0.173929 0.346758
0.421962 -0.065255 0.130098
0.338533 0.0685943 -0.136755
0.124496 0.17598 -0.350847
-0.137573 0.21547 -0.42958
-0.346565 0.171831 -0.342577
-0.42185 0.0618984 -0.123406
-0.334382 -0.0719154 0.143377
-0.117907 -0.177984 0.354843
0 0.247865 0
0 0.210458 0
0 0.0789602 0
0 -0.0830008 0
0 -0.21294 0
0 -0.260725 0
0 -0.20792 0
0 -0.0748986 0
0 0.0870194 0
0 0.204715 0
-0.135064 0.152237 -0.0841684
-0.377208 0.130529 -0.0731343
-0.464998 0.0490881 -0.0275286
-0.373068 -0.0516095 0.0289453
-0.137196 -0.132404 0.0742589
0.151607 -0.162117 0.0909231
0.381919 -0.129283 0.0725087
0.464876 -0.0465785 0.0261256
0.368191 0.053836 -0.0301341
0.121517 0.125735 -0.0695159
-0.21802 -0.00212542 -0.135864
-0.608887 -0.00181526 -0.118052
-0.750597 -0.000682629 -0.0444364
-0.602203 0.000717692 0.0467233
-0.22146 0.00184123 0.119868
0.244723 0.00225443 0.146767
0.61649 0.00179785 0.117043
0.750399 0.000647734 0.0421718
0.594331 -0.000748755 -0.0486422
0.196151 -0.00175541 -0.112212
-0.216862 -0.155668 -0.135142
-0.605652 -0.133389 -0.117425
-0.74661 -0.0501661 -0.0442003
-0.599004 0.0527435 0.0464751
-0.220284 0.135313 0.119231
0.243423 0.165678 0.145988
0.613216 0.132124 0.116421
0.746413 0.0476023 0.0419478
0.591174 -0.055013 -0.0483838
0.195109 -0.128568 -0.111616
-0.132037 -0.249152 -0.0822817
-0.368752 -0.213495 -0.0714948
-0.454575 -0.0802931 -0.0269115
-0.364705 0.0844179 0.0282964
-0.13412 0.216574 0.0725944
0.148209 0.265175 0.088885
0.373358 0.21147 0.0708835
0.454455 0.0761894 0.02554
0.359937 -0.0880502 -0.0294585
0.118793 -0.205778 -0.0679576
0.00372907 -0.246512 0.00232385
0.0104145 -0.211233 0.0020192
0.0128384 -0.0794423 0.000760051
0.0103003 0.0835233 -0.000799164
0.00378794 0.21428 -0.00205025
-0.00418579 0.262365 -0.00251035
-0.0105445 0.209229 -0.00200192
-0.012835 0.075382 -0.000721317
-0.0101656 -0.0871169 0.000831991
-0.00335503 -0.203598 0.0019193
0.138056 -0.148766 0.0860328
0.385563 -0.127476 0.0747539
0.475298 -0.0479422 0.0281383
0.381332 0.0504049 -0.0295864
0.140235 0.129314 -0.0759036
-0.154965 0.158333 -0.0929371
-0.390377 0.126266 -0.0741146
-0.475172 0.0454917 -0.0267043
-0.376346 -0.0525737 0.0308016
-0.124208 -0.122868 0.0710557
0.21912 0.00637576 0.13655
0.611937 0.00545211 0.118643
0.754357 0.00205018 0.0446586
0.60522 -0.00215548 -0.0469568
0.22257 -0.00552988 -0.120467
-0.245949 -0.00677081 -0.147501
-0.619578 -0.00539951 -0.117628
-0.754158 -0.00194534 -0.0423825
-0.597308 0.00224897 0.0488857
-0.197141 0.00526583 0.112778
0.215646 0.159057 0.134385
0.601435 0.135872 0.116583
0.741392 0.0510905 0.0438785
0.594818 -0.0537142 -0.0461361
0.218744 -0.137804 -0.118362
-0.241721 -0.168728 -0.144924
-0.60893 -0.134555 -0.115572
-0.741196 -0.0484776 -0.0416416
-0.587056 0.0560483 0.0480416
-0.194016 0.131368 0.11099
0.128974 0.250373 0.080373
0.337163 0.202075 0.0648688
0.415272 0.0758153 0.0243377
0.333166 -0.079695 -0.0255831
0.122522 -0.204458 -0.0656337
-0.135392 -0.25034 -0.0803624
-0.34107 -0.199639 -0.0640866
-0.415162 -0.0719154 -0.0230858
-0.32908 0.0835535 0.0268217
-0.116037 0.206787 0.0663812
0 0.613442 0
0 0.495107 0
0 0.185756 0
0 -0.195261 0
0 -0.500945 0
0 -0.613361 0
0 -0.489137 0
0 -0.176201 0
0 0.204715 0
0 0.506651 0
-0.0807796 0.376772 0.314062
-0.211173 0.304091 0.253478
-0.260095 0.11409 0.0951007
-0.20867 -0.119928 -0.0999673
-0.0767385 -0.307677 -0.256467
0.0847992 -0.376722 -0.31402
0.213621 -0.300424 -0.250422
0.260026 -0.108221 -0.0902088
0.206111 0.125735 0.104807
0.072677 0.311181 0.259388
-0.130394 -0.00526021 0.506956
-0.340875 -0.0042455 0.409162
-0.419843 -0.00159284 0.153511
-0.336834 0.00167435 -0.161366
-0.123871 0.00429556 -0.413987
0.136882 0.00525951 -0.506889
0.344825 0.0041943 -0.404229
0.419732 0.0015109 -0.145614
0.332703 -0.00175541 0.169179
0.117315 -0.00434448 0.418702
-0.129701 -0.385263 0.504263
-0.339064 -0.310944 0.406989
-0.417613 -0.116661 0.152695
-0.335044 0.122631 -0.160509
-0.123213 0.314611 -0.411788
0.136155 0.385212 -0.504196
0.342993 0.307195 -0.402081
0.417502 0.11066 -0.144841
0.330936 -0.128568 0.16828
0.116691 -0.318194 0.416478
-0.0789688 -0.616628 0.307022
-0.20644 -0.497678 0.247796
-0.254265 -0.18672 0.0929689
-0.203992 0.196275 -0.0977264
-0.0750183 0.503547 -0.250718
0.0828983 0.616546 -0.306981
0.208832 0.491677 -0.244808
0.254197 0.177116 -0.0881866
0.201491 -0.205778 0.102458
0.0710478 -0.509282 0.253573
0.00223029 -0.610094 -0.00867111
0.00583041 -0.492404 -0.00699842
0.00718111 -0.184742 -0.00262569
0.00576129 0.194196 0.00276005
0.00211872 0.498211 0.00708095
-0.00234127 0.610013 0.00866996
-0.00589798 0.486467 0.00691403
-0.0071792 0.175239 0.00249063
-0.00569064 -0.203598 -0.00289368
-0.00200658 -0.503885 -0.00716159
0.0825689 -0.368181 -0.321018
0.215851 -0.297157 -0.259093
0.265856 -0.111488 -0.0972072
0.213292 0.117194 0.102182
0.0784383 0.300661 0.262148
-0.0866776 0.368132 0.320976
-0.218353 0.293574 0.255969
-0.265786 0.105754 0.092207
-0.210677 -0.122868 -0.107129
-0.0742868 -0.304086 -0.265134
0.131052 0.0157794 -0.509514
0.342595 0.0127355 -0.411227
0.421962 0.00477814 -0.154285
0.338533 -0.00502265 0.162181
0.124496 -0.0128857 0.416076
-0.137573 -0.0157773 0.509447
-0.346565 -0.0125819 0.406269
-0.42185 -0.00453236 0.146349
-0.334382 0.00526583 -0.170033
-0.117907 0.0130324 -0.420815
0.128974 0.393651 -0.501436
0.337163 0.317714 -0.404707
0.415272 0.119201 -0.151839
0.333166 -0.125301 0.159609
0.122522 -0.321461 0.409479
-0.135392 -0.393599 0.501369
-0.34107 -0.313883 0.399827
-0.415161 -0.113069 0.144029
-0.32908 0.131368 -0.167337
-0.116037 0.325122 -0.414143
0.077137 0.61965 -0.2999
0.201651 0.500117 -0.242048
0.248367 0.187635 -0.0908123
0.199261 -0.197237 0.0954595
0.0732782 -0.506015 0.244902
-0.0809754 -0.619568 0.29986
-0.203988 -0.494087 0.239129
-0.248301 -0.177984 0.086141
-0.196817 0.206787 -0.100081
-0.0693998 0.511778 -0.247691
