# vtk DataFile Version 3.0
Velocity field
ASCII
DATASET STRUCTURED_POINTS
DIMENSIONS 8 8 8
SPACING 0.8 0.8 0.8
ORIGIN 0 0 0
POINT_DATA 512
VECTORS velocity float
0 0.000391451 0
0 0.000272726 0
0 -1.14302e-05 0
0 -0.000288653 0
0 -0.000390783 0
0 -0.000255869 0
0 3.42516e-05 0
0 0.000303596 0
0 0.000154002 0.000399534
0 0.000107294 0.000295126
0 -4.49679e-06 -1.2369e-05
0 -0.00011356 -0.000312361
0 -0.000153739 -0.000422878
0 -0.000100662 -0.000276884
0 1.34751e-05 3.70647e-05
0 0.000119439 0.000309865
0 -0.000176862 0.000556716
0 -0.000123221 0.000411232
0 5.1643e-06 -1.72351e-05
0 0.000130417 -0.000435247
0 0.000176561 -0.000589245
0 0.000115605 -0.000385814
0 -1.54753e-05 5.16465e-05
0 -0.000137168 0.00043177
0 -0.000400445 0.000376202
0 -0.000278992 0.000277891
0 1.16928e-05 -1.16466e-05
0 0.000295285 -0.000294119
0 0.000399762 -0.000398183
0 0.000261748 -0.000260714
0 -3.50386e-05 3.49002e-05
0 -0.000310571 0.000291769
0 -0.000381122 -3.25117e-05
0 -0.000265531 -2.40156e-05
0 1.11286e-05 1.00651e-06
0 0.000281037 2.54181e-05
0 0.000380472 3.44113e-05
0 0.000249118 2.25312e-05
0 -3.33479e-05 -3.01611e-06
0 -0.000295585 -2.5215e-05
0 -0.000130616 -0.000421504
0 -9.10014e-05 -0.000311354
0 3.81394e-06 1.30491e-05
0 9.63158e-05 0.000329537
0 0.000130394 0.000446132
0 8.53766e-05 0.000292109
0 -1.14288e-05 -3.91029e-05
0 -0.000101302 -0.000326904
0 0.00019912 -0.000554818
0 0.000138728 -0.000409829
0 -5.8142e-06 1.71763e-05
0 -0.00014683 0.000433763
0 -0.00019878 0.000587235
0 -0.000130153 0.000384498
0 1.74228e-05 -5.14703e-05
0 0.00015443 -0.000430298
0 0.000408072 -0.000351586
0 0.000284307 -0.000244953
0 -1.19155e-05 1.02662e-05
0 -0.00030091 0.000259258
0 -0.000407377 0.000350987
0 -0.000266734 0.000229812
0 3.5706e-05 -3.07635e-05
0 0.000316487 -0.000272678
0 0.000272726 0
0 0.000206295 0
0 -8.646e-06 0
0 -0.000218343 0
0 -0.000295595 0
0 -0.000193544 0
0 2.59085e-05 0
0 0.000211517 0
8.51677e-05 0.000107294 0.000394631
0.000203849 7.47556e-05 0.000274952
0.000198875 -3.13307e-06 -1.15235e-05
7.32661e-05 -7.91212e-05 -0.000291009
-9.67849e-05 -0.000107115 -0.000393972
-0.000208127 -7.0135e-05 -0.000257957
-0.000193223 9.38852e-06 3.45311e-05
-6.11095e-05 8.32138e-05 0.000306062
0.000118674 -0.000123221 0.000549884
0.000284046 -8.58521e-05 0.000383122
0.000277115 3.59813e-06 -1.60569e-05
0.00010209 9.08658e-05 -0.000405496
-0.000134861 0.000123015 -0.000548966
-0.000290008 8.05456e-05 -0.000359441
-0.000269239 -1.07821e-05 4.81162e-05
-8.51509e-05 -9.55662e-05 0.000426471
8.0194e-05 -0.000278992 0.000371585
0.000191944 -0.000194383 0.000258895
0.000187261 8.14674e-06 -1.08505e-05
6.89874e-05 0.000205735 -0.000274014
-9.11327e-05 0.000278527 -0.000370965
-0.000195973 0.000182368 -0.000242893
-0.000181939 -2.44125e-05 3.25146e-05
-5.75408e-05 -0.000216377 0.000288189
-6.93044e-06 -0.000265531 -3.21127e-05
-1.6588e-05 -0.000185003 -2.2374e-05
-1.61833e-05 7.75364e-06 9.37711e-07
-5.96196e-06 0.000195808 2.36806e-05
7.87578e-06 0.000265087 3.20591e-05
1.69362e-05 0.000173568 2.0991e-05
1.57233e-05 -2.32345e-05 -2.80994e-06
4.97273e-06 -0.000205936 -2.49055e-05
-8.9851e-05 -9.10014e-05 -0.000416331
-0.000215058 -6.34035e-05 -0.000290071
-0.000209811 2.65729e-06 1.21571e-05
-7.72949e-05 6.71062e-05 0.000307011
0.000102107 9.08494e-05 0.000415636
0.000219572 5.94846e-05 0.000272142
0.000203848 -7.96282e-06 -3.643e-05
6.44699e-05 -7.05775e-05 -0.000322892
-0.000118269 0.000138728 -0.000548009
-0.000283077 9.66562e-05 -0.000381815
-0.00027617 -4.05094e-06 1.60022e-05
-0.000101742 -0.000102301 0.000404113
0.000134401 -0.000138496 0.000547094
0.000289018 -9.06819e-05 0.000358216
0.000268321 1.2139e-05 -4.79521e-05
8.48605e-05 0.000107593 -0.000425017
-7.49468e-05 0.000284307 -0.000347272
-0.000179379 0.000198078 -0.000241946
-0.000175002 -8.30163e-06 1.01402e-05
-6.44712e-05 -0.000209646 0.000256076
8.51668e-05 -0.000283822 0.000346679
0.000183144 -0.000185835 0.000226992
0.000170028 2.48766e-05 -3.0386e-05
5.37758e-05 0.000220499 -0.000269332
0 -1.14302e-05 0
0 -8.646e-06 0
0 3.62361e-07 0
0 9.15092e-06 0
0 1.23886e-05 0
0 8.11159e-06 0
0 -1.08585e-06 0
0 -8.86487e-06 0
0.000118674 -4.49679e-06 0.00015035
0.000284046 -3.13307e-06 0.000104754
0.000277115 1.31309e-07 -4.39031e-06
0.00010209 3.31603e-06 -0.000110871
-0.000134861 4.4893e-06 -0.000150099
-0.000290008 2.93941e-06 -9.82788e-05
-0.000269239 -3.93481e-07 1.3156e-05
-8.51509e-05 -3.48756e-06 0.000116606
0.000165362 5.1643e-06 0.0002095
0.000395793 3.59813e-06 0.000145965
0.000386136 -1.50801e-07 -6.11751e-06
0.000142254 -3.80826e-06 -0.000154489
-0.000187918 -5.15568e-06 -0.00020915
-0.000404101 -3.37573e-06 -0.000136943
-0.000375161 4.51888e-07 1.83317e-05
-0.00011865 4.00526e-06 0.000162481
0.000111743 1.16928e-05 0.00014157
0.000267458 8.14674e-06 9.8636e-05
0.000260932 -3.41437e-07 -4.13391e-06
9.6128e-05 -8.6225e-06 -0.000104396
-0.000126985 -1.16733e-05 -0.000141333
-0.000273071 -7.6432e-06 -9.25394e-05
-0.000253516 1.02315e-06 1.23877e-05
-8.01781e-05 9.06854e-06 0.000109797
-9.65697e-06 1.11286e-05 -1.22346e-05
-2.3114e-05 7.75364e-06 -8.52422e-06
-2.255e-05 -3.24962e-07 3.57257e-07
-8.30748e-06 -8.20645e-06 9.02203e-06
1.09742e-05 -1.111e-05 1.22142e-05
2.35991e-05 -7.27439e-06 7.99734e-06
2.19091e-05 9.73777e-07 -1.07055e-06
6.92907e-06 8.63096e-06 -9.48873e-06
-0.0001252 3.81394e-06 -0.000158618
-0.000299665 2.65729e-06 -0.000110514
-0.000292353 -1.11369e-07 4.63172e-06
-0.000107704 -2.81248e-06 0.000116968
0.000142277 -3.80757e-06 0.000158353
0.000305955 -2.49305e-06 0.000103683
0.000284044 3.33729e-07 -1.38794e-05
8.98332e-05 2.95796e-06 -0.000123018
-0.000164798 -5.8142e-06 -0.000208785
-0.000394443 -4.05094e-06 -0.000145467
-0.000384819 1.69778e-07 6.09665e-06
-0.000141768 4.28751e-06 0.000153962
0.000187277 5.8045e-06 0.000208437
0.000402722 3.80055e-06 0.000136476
0.000373882 -5.08756e-07 -1.82692e-05
0.000118246 -4.5093e-06 -0.000161927
-0.000104432 -1.19155e-05 -0.000132307
-0.000249949 -8.30163e-06 -9.21789e-05
-0.00024385 3.47928e-07 3.86329e-06
-8.98351e-05 8.78644e-06 9.7562e-05
0.000118672 1.18952e-05 0.000132081
0.000255195 7.78851e-06 8.64813e-05
0.000236919 -1.0426e-06 -1.15767e-05
7.4932e-05 -9.24128e-06 -0.000102612
0 -0.000288653 0
0 -0.000218343 0
0 9.15092e-06 0
0 0.000231094 0
0 0.000312858 0
0 0.000204847 0
0 -2.74216e-05 0
0 -0.00022387 0
8.0194e-05 -0.00011356 -0.000185131
0.000191944 -7.91212e-05 -0.000128987
0.000187261 3.31603e-06 5.40595e-06
6.89874e-05 8.37418e-05 0.00013652
-9.11327e-05 0.000113371 0.000184822
-0.000195973 7.42308e-05 0.000121014
-0.000181939 -9.93681e-06 -1.61994e-05
-5.75408e-05 -8.80734e-05 -0.000143582
0.000111743 0.000130417 -0.000257965
0.000267458 9.08658e-05 -0.000179732
0.000260932 -3.80826e-06 7.53271e-06
9.6128e-05 -9.61723e-05 0.000190228
-0.000126985 -0.000130199 0.000257534
-0.000273071 -8.52494e-05 0.000168623
-0.000253516 1.14118e-05 -2.25725e-05
-8.01781e-05 0.000101147 -0.000200069
7.55107e-05 0.000295285 -0.00017432
0.000180735 0.000205735 -0.000121454
0.000176325 -8.6225e-06 5.09024e-06
6.49586e-05 -0.000217749 0.000128547
-8.58106e-05 -0.000294792 0.000174029
-0.000184528 -0.000193018 0.000113947
-0.000171314 2.58381e-05 -1.52534e-05
-5.41805e-05 0.000229013 -0.000135197
-6.52571e-06 0.000281037 1.50649e-05
-1.56193e-05 0.000195808 1.04962e-05
-1.52382e-05 -8.20645e-06 -4.39904e-07
-5.61379e-06 -0.000207242 -1.11092e-05
7.41584e-06 -0.000280568 -1.50397e-05
1.59471e-05 -0.000183705 -9.84742e-06
1.48051e-05 2.45914e-05 1.31821e-06
4.68233e-06 0.000217963 1.16838e-05
-8.46037e-05 9.63158e-05 0.000195312
-0.000202499 6.71062e-05 0.00013608
-0.000197558 -2.81248e-06 -5.70321e-06
-7.2781e-05 -7.10251e-05 -0.000144027
9.6144e-05 -9.61549e-05 -0.000194985
0.000206749 -6.29584e-05 -0.000127669
0.000191943 8.42785e-06 1.70902e-05
6.07049e-05 7.46992e-05 0.000151477
-0.000111362 -0.00014683 0.000257085
-0.000266545 -0.000102301 0.000179119
-0.000260042 4.28751e-06 -7.50702e-06
-9.58002e-05 0.000108275 -0.00018958
0.000126552 0.000146584 -0.000256655
0.00027214 9.59776e-05 -0.000168048
0.000252651 -1.28479e-05 2.24955e-05
7.99047e-05 -0.000113876 0.000199386
-7.057e-05 -0.00030091 0.000162914
-0.000168903 -0.000209646 0.000113503
-0.000164782 8.78644e-06 -4.75701e-06
-6.07062e-05 0.000221889 -0.000120132
8.01931e-05 0.000300397 -0.000162636
0.000172448 0.000196688 -0.000106488
0.000160099 -2.63294e-05 1.42548e-05
5.06354e-05 -0.000233376 0.00012635
0 -0.000390783 0
0 -0.000295595 0
0 1.23886e-05 0
0 0.000312858 0
0 0.000423552 0
0 0.000277325 0
0 -3.71237e-05 0
0 -0.000303078 0
-6.93044e-06 -0.000153739 -0.000408315
-1.6588e-05 -0.000107115 -0.000284485
-1.61833e-05 4.4893e-06 1.1923e-05
-5.96196e-06 0.000113371 0.000301099
7.87578e-06 0.000153483 0.000407633
1.69362e-05 0.000100495 0.000266902
1.57233e-05 -1.34526e-05 -3.57284e-05
4.97273e-06 -0.000119235 -0.000316675
-9.65697e-06 0.000176561 -0.000568951
-2.3114e-05 0.000123015 -0.000396406
-2.255e-05 -5.15568e-06 1.66137e-05
-8.30748e-06 -0.000130199 0.000419556
1.09742e-05 -0.000176266 0.000568001
2.35991e-05 -0.000115412 0.000371904
2.19091e-05 1.54495e-05 -4.97845e-05
6.92907e-06 0.000136935 -0.000441259
-6.52571e-06 0.000399762 -0.000384469
-1.56193e-05 0.000278527 -0.000267872
-1.52382e-05 -1.16733e-05 1.12267e-05
-5.61379e-06 -0.000294792 0.000283515
7.41584e-06 -0.000399094 0.000383827
1.59471e-05 -0.000261311 0.000251315
1.48051e-05 3.49801e-05 -3.36419e-05
4.68233e-06 0.000310042 -0.000298181
5.63958e-07 0.000380472 3.32262e-05
1.34983e-06 0.000265087 2.31497e-05
1.3169e-06 -1.111e-05 -9.70225e-07
4.85149e-07 -0.000280568 -2.45017e-05
-6.40884e-07 -0.000379837 -3.31707e-05
-1.37817e-06 -0.000248702 -2.17189e-05
-1.27947e-06 3.32922e-05 2.90737e-06
-4.04652e-07 0.000295081 2.57691e-05
7.31154e-06 0.000130394 0.000430767
1.75002e-05 9.08494e-05 0.000300129
1.70731e-05 -3.80757e-06 -1.25787e-05
6.2898e-06 -9.61549e-05 -0.000317656
-8.30886e-06 -0.000130176 -0.000430048
-1.78675e-05 -8.5234e-05 -0.000281578
-1.65879e-05 1.14097e-05 3.76931e-05
-5.24618e-06 0.000101129 0.000334088
9.62404e-06 -0.00019878 0.00056701
2.30351e-05 -0.000138496 0.000395054
2.24731e-05 5.8045e-06 -1.6557e-05
8.27915e-06 0.000146584 -0.000418125
-1.09368e-05 0.000198448 -0.000566064
-2.35186e-05 0.000129936 -0.000370636
-2.18344e-05 -1.73937e-05 4.96147e-05
-6.90544e-06 -0.000154167 0.000439754
6.09873e-06 -0.000407377 0.000359313
1.45968e-05 -0.000283822 0.000250336
1.42406e-05 1.18952e-05 -1.04918e-05
5.24629e-06 0.000300397 -0.000264955
-6.93037e-06 0.000406682 -0.0003587
-1.49032e-05 0.000266279 -0.000234863
-1.38359e-05 -3.56451e-05 3.14396e-05
-4.37596e-06 -0.000315947 0.000278671
0 -0.000255869 0
0 -0.000193544 0
0 8.11159e-06 0
0 0.000204847 0
0 0.000277325 0
0 0.000181581 0
0 -2.43071e-05 0
0 -0.000198444 0
-8.9851e-05 -0.000100662 -0.00038382
-0.000215058 -7.0135e-05 -0.000267419
-0.000209811 2.93941e-06 1.12078e-05
-7.72949e-05 7.42308e-05 0.000283036
0.000102107 0.000100495 0.000383179
0.000219572 6.58e-05 0.00025089
0.000203848 -8.80823e-06 -3.35851e-05
6.44699e-05 -7.80704e-05 -0.000297677
-0.0001252 0.000115605 -0.000534819
-0.000299665 8.05456e-05 -0.000372625
-0.000292353 -3.37573e-06 1.5617e-05
-0.000107704 -8.52494e-05 0.000394386
0.000142277 -0.000115412 0.000533926
0.000305955 -7.55671e-05 0.000349594
0.000284044 1.01157e-05 -4.67979e-05
8.98332e-05 8.96593e-05 -0.000414788
-8.46037e-05 0.000261748 -0.000361405
-0.000202499 0.000182368 -0.000251802
-0.000197558 -7.6432e-06 1.05532e-05
-7.2781e-05 -0.000193018 0.000266507
9.6144e-05 -0.000261311 0.000360801
0.000206749 -0.000171096 0.000236238
0.000191943 2.29036e-05 -3.16237e-05
6.07049e-05 0.000203003 -0.000280293
7.31154e-06 0.000249118 3.1233e-05
1.75002e-05 0.000173568 2.1761e-05
1.70731e-05 -7.27439e-06 -9.1202e-07
6.2898e-06 -0.000183705 -2.30318e-05
-8.30886e-06 -0.000248702 -3.11808e-05
-1.78675e-05 -0.00016284 -2.04159e-05
-1.65879e-05 2.17984e-05 2.73295e-06
-5.24618e-06 0.000193208 2.42232e-05
9.47917e-05 8.53766e-05 0.000404925
0.000226884 5.94846e-05 0.000282124
0.000221348 -2.49305e-06 -1.18241e-05
8.15453e-05 -6.29584e-05 -0.0002986
-0.000107722 -8.5234e-05 -0.000404249
-0.000231646 -5.58079e-05 -0.000264686
-0.000215057 7.47065e-06 3.54319e-05
-6.8015e-05 6.62152e-05 0.000314046
0.000124773 -0.000130153 0.000532995
0.000298643 -9.06819e-05 0.000371355
0.000291356 3.80055e-06 -1.55638e-05
0.000107336 9.59776e-05 -0.000393041
-0.000141792 0.000129936 -0.000532105
-0.000304911 8.50769e-05 -0.000348401
-0.000283076 -1.13887e-05 4.66383e-05
-8.95268e-05 -0.000100942 0.000413373
7.9068e-05 -0.000266734 0.000337758
0.000189242 -0.000185835 0.000235318
0.000184625 7.78851e-06 -9.86237e-06
6.80164e-05 0.000196688 -0.00024906
-8.985e-05 0.000266279 -0.000337182
-0.000193215 0.000174349 -0.000220773
-0.000179378 -2.3339e-05 2.95535e-05
-5.67329e-05 -0.00020687 0.000261953
0 3.42516e-05 0
0 2.59085e-05 0
0 -1.08585e-06 0
0 -2.74216e-05 0
0 -3.71237e-05 0
0 -2.43071e-05 0
0 3.25384e-06 0
0 2.65644e-05 0
-0.000118269 1.34751e-05 -0.000126505
-0.000283077 9.38852e-06 -8.81398e-05
-0.00027617 -3.93481e-07 3.69401e-06
-0.000101742 -9.93681e-06 9.32871e-05
0.000134401 -1.34526e-05 0.000126293
0.000289018 -8.80823e-06 8.26919e-05
0.000268321 1.1791e-06 -1.10694e-05
8.48605e-05 1.04508e-05 -9.81127e-05
-0.000164798 -1.54753e-05 -0.000176273
-0.000394443 -1.07821e-05 -0.000122815
-0.000384819 4.51888e-07 5.14728e-06
-0.000141768 1.14118e-05 0.000129987
0.000187277 1.54495e-05 0.000175979
0.000402722 1.01157e-05 0.000115224
0.000373882 -1.35413e-06 -1.54243e-05
0.000118246 -1.20021e-05 -0.000136712
-0.000111362 -3.50386e-05 -0.000119117
-0.000266545 -2.44125e-05 -8.29925e-05
-0.000260042 1.02315e-06 3.47828e-06
-9.58002e-05 2.58381e-05 8.78392e-05
0.000126552 3.49801e-05 0.000118918
0.00027214 2.29036e-05 7.78628e-05
0.000252651 -3.06596e-06 -1.0423e-05
7.99047e-05 -2.71747e-05 -9.2383e-05
9.62404e-06 -3.33479e-05 1.02942e-05
2.30351e-05 -2.32345e-05 7.17229e-06
2.24731e-05 9.73777e-07 -3.00597e-07
8.27915e-06 2.45914e-05 -7.59115e-06
-1.09368e-05 3.32922e-05 -1.0277e-05
-2.35186e-05 2.17984e-05 -6.72898e-06
-2.18344e-05 -2.91802e-06 9.00766e-07
-6.90544e-06 -2.58635e-05 7.98383e-06
0.000124773 -1.14288e-05 0.000133461
0.000298643 -7.96282e-06 9.29865e-05
0.000291356 3.33729e-07 -3.89714e-06
0.000107336 8.42785e-06 -9.84168e-05
-0.000141792 1.14097e-05 -0.000133238
-0.000304911 7.47065e-06 -8.7239e-05
-0.000283076 -1.00005e-06 1.16781e-05
-8.95268e-05 -8.86381e-06 0.000103508
0.000164236 1.74228e-05 0.000175672
0.000393098 1.2139e-05 0.000122396
0.000383506 -5.08756e-07 -5.12973e-06
0.000141285 -1.28479e-05 -0.000129544
-0.000186638 -1.73937e-05 -0.000175379
-0.000401349 -1.13887e-05 -0.000114831
-0.000372607 1.52454e-06 1.53717e-05
-0.000117842 1.35125e-05 0.000136245
0.000104076 3.5706e-05 0.000111323
0.000249096 2.48766e-05 7.75594e-05
0.000243018 -1.0426e-06 -3.25058e-06
8.95287e-05 -2.63294e-05 -8.20888e-05
-0.000118268 -3.56451e-05 -0.000111133
-0.000254325 -2.3339e-05 -7.27655e-05
-0.000236112 3.12425e-06 9.74066e-06
-7.46764e-05 2.76924e-05 8.63383e-05
0 0.000303596 0
0 0.000211517 0
0 -8.86487e-06 0
0 -0.00022387 0
0 -0.000303078 0
0 -0.000198444 0
0 2.65644e-05 0
0 0.000235459 0
-7.49468e-05 0.000119439 0.000207546
-0.000179379 8.32138e-05 0.000144599
-0.000175002 -3.48756e-06 -6.06025e-06
-6.44712e-05 -8.80734e-05 -0.000153043
8.51668e-05 -0.000119235 -0.000207192
0.000183144 -7.80704e-05 -0.000135661
0.000170028 1.04508e-05 1.81601e-05
5.37758e-05 9.26326e-05 0.000160966
-0.000104432 -0.000137168 0.000289197
-0.000249949 -9.55662e-05 0.000201486
-0.00024385 4.00526e-06 -8.44443e-06
-8.98351e-05 0.000101147 -0.000213252
0.000118672 0.000136935 -0.000288704
0.000255195 8.96593e-05 -0.000189032
0.000236919 -1.20021e-05 2.53045e-05
7.4932e-05 -0.000106383 0.000224292
-7.057e-05 -0.000310571 0.000195426
-0.000168903 -0.000216377 0.000136154
-0.000164782 9.06854e-06 -5.70634e-06
-6.07062e-05 0.000229013 -0.000144106
8.01931e-05 0.000310042 -0.000195092
0.000172448 0.000203003 -0.000127739
0.000160099 -2.71747e-05 1.70996e-05
5.06354e-05 -0.000240868 0.000151565
6.09873e-06 -0.000295585 -1.68889e-05
1.45968e-05 -0.000205936 -1.17666e-05
1.42406e-05 8.63096e-06 4.93147e-07
5.24629e-06 0.000217963 1.24537e-05
-6.93037e-06 0.000295081 1.68601e-05
-1.49032e-05 0.000193208 1.10393e-05
-1.38359e-05 -2.58635e-05 -1.47776e-06
-4.37596e-06 -0.000229246 -1.30984e-05
7.9068e-05 -0.000101302 -0.000218959
0.000189242 -7.05775e-05 -0.00015255
0.000184625 2.95796e-06 6.39349e-06
6.80164e-05 7.46992e-05 0.000161459
-8.985e-05 0.000101129 0.000218585
-0.000193215 6.62152e-05 0.000143121
-0.000179378 -8.86381e-06 -1.91587e-05
-5.67329e-05 -7.85661e-05 -0.000169817
0.000104076 0.00015443 -0.000288211
0.000249096 0.000107593 -0.000200799
0.000243018 -4.5093e-06 8.41563e-06
8.95287e-05 -0.000113876 0.000212525
-0.000118268 -0.000154167 0.00028772
-0.000254325 -0.000100942 0.000188387
-0.000236112 1.35125e-05 -2.52182e-05
-7.46764e-05 0.000119771 -0.000223527
6.59525e-05 0.000316487 -0.000182639
0.000157852 0.000220499 -0.000127246
0.000154 -9.24128e-06 5.33296e-06
5.67341e-05 -0.000233376 0.000134677
-7.4946e-05 -0.000315947 0.000182327
-0.000161165 -0.00020687 0.000119381
-0.000149623 2.76924e-05 -1.59807e-05
-4.73222e-05 0.000245456 -0.000141648
