# vtk DataFile Version 3.0
Velocity field
ASCII
DATASET STRUCTURED_POINTS
DIMENSIONS 10 10 10
SPACING 0.631579 0.631579 0.631579
ORIGIN 0 0 0
POINT_DATA 1000
VECTORS velocity float
0 0.708219 0
0 0.571601 0
0 0.214455 0
0 -0.225429 0
0 -0.578342 0
0 -0.708125 0
0 -0.564709 0
0 -0.203424 0
0 0.236344 0
0 0.584928 0
0 0.434983 0.554765
0 0.351073 0.465305
0 0.131717 0.174574
0 -0.138457 -0.183508
0 -0.355213 -0.470792
0 -0.434925 -0.576441
0 -0.34684 -0.459694
0 -0.124941 -0.165595
0 0.145161 0.192393
0 0.359259 0.458188
0 -0.00607291 0.895497
0 -0.00490143 0.751092
0 -0.00183893 0.281797
0 0.00193304 -0.296217
0 0.00495922 -0.759949
0 0.00607211 -0.930486
0 0.00484233 -0.742036
0 0.00174434 -0.267302
0 -0.00202663 0.310559
0 -0.0050157 0.739604
0 -0.444786 0.89074
0 -0.358985 0.747102
0 -0.134685 0.2803
0 0.141577 -0.294644
0 0.363218 -0.755911
0 0.444727 -0.925543
0 0.354656 -0.738093
0 0.127757 -0.265882
0 -0.148432 0.308909
0 -0.367355 0.735675
0 -0.711897 0.542329
0 -0.57457 0.454874
0 -0.215569 0.170661
0 0.2266 -0.179394
0 0.581345 -0.460238
0 0.711803 -0.563519
0 0.567642 -0.44939
0 0.20448 -0.161883
0 -0.237571 0.18808
0 -0.587966 0.447917
0 -0.704353 -0.0153168
0 -0.568481 -0.0128469
0 -0.213284 -0.00481993
0 0.224199 0.00506657
0 0.575184 0.0129984
0 0.70426 0.0159153
0 0.561626 0.012692
0 0.202313 0.00457199
0 -0.235054 -0.00531188
0 -0.581735 -0.0126504
0 -0.425065 -0.567053
0 -0.343068 -0.475612
0 -0.128713 -0.178441
0 0.1353 0.187573
0 0.347114 0.48122
0 0.425008 0.589209
0 0.338932 0.469877
0 0.122092 0.169263
0 -0.141851 -0.196654
0 -0.351067 -0.468337
0 0.0182173 -0.900016
0 0.0147031 -0.754882
0 0.00551636 -0.283219
0 -0.00579865 0.297712
0 -0.0148765 0.763784
0 -0.0182149 0.935182
0 -0.0145258 0.74578
0 -0.0052326 0.26865
0 0.0060794 -0.312126
0 0.0150459 -0.743336
0 0.45447 -0.885747
0 0.366801 -0.742913
0 0.137618 -0.278729
0 -0.14466 0.292992
0 -0.371127 0.751674
0 -0.45441 0.920354
0 -0.362379 0.733955
0 -0.130539 0.264391
0 0.151664 -0.307177
0 0.375353 -0.73155
0 0.715386 -0.529749
0 0.577385 -0.427558
0 0.216625 -0.160413
0 -0.227711 0.168622
0 -0.584194 0.4326
0 -0.715291 0.529679
0 -0.570423 0.422403
0 -0.205482 0.152161
0 0.238735 -0.176786
0 0.590847 -0.437527
0 0.571601 0
0 0.485336 0
0 0.18209 0
0 -0.191408 0
0 -0.491059 0
0 -0.601256 0
0 -0.479484 0
0 -0.172723 0
0 0.200675 0
0 0.472093 0
0.0806621 0.351073 0.613969
0.224599 0.300732 0.526766
0.27685 0.113084 0.198107
0.222115 -0.118891 -0.208281
0.0816831 -0.305015 -0.534348
-0.0902631 -0.373462 -0.654258
-0.227385 -0.297825 -0.521752
-0.276776 -0.1073 -0.187977
-0.219229 0.124052 0.217258
-0.0725712 0.289956 0.507085
0.130204 -0.00490143 0.991064
0.362546 -0.00418146 0.8503
0.446888 -0.00157221 0.319783
0.358537 0.00165295 -0.336206
0.131852 0.00424066 -0.862538
-0.145702 0.00519223 -1.0561
-0.367043 0.00414067 -0.842207
-0.44677 0.00149179 -0.303432
-0.353877 -0.00172498 0.350696
-0.117144 -0.00404815 0.818533
0.129512 -0.358985 0.985799
0.36062 -0.30729 0.845783
0.444514 -0.115554 0.318084
0.356632 0.121489 -0.33442
0.131152 0.31168 -0.857955
-0.144928 0.381622 -1.05049
-0.365093 0.304332 -0.837733
-0.444397 0.109645 -0.30182
-0.351997 -0.126751 0.348832
-0.116522 -0.296491 0.814185
0.0788539 -0.57457 0.600206
0.219564 -0.491831 0.514957
0.270644 -0.18495 0.193666
0.217137 0.194447 -0.203613
0.0798519 0.498855 -0.522368
-0.0882398 0.610802 -0.639593
-0.222288 0.487098 -0.510056
-0.270572 0.175491 -0.183764
-0.214314 -0.202871 0.212387
-0.0709444 -0.474545 0.495718
-0.00222704 -0.568481 -0.0169514
-0.00620107 -0.48662 -0.0145438
-0.00764366 -0.18299 -0.00546964
-0.00613247 0.192387 0.00575055
-0.00225524 0.49357 0.0147531
0.00249211 0.604328 0.0180637
0.00627798 0.481936 0.0144054
0.00764165 0.173631 0.00518996
0.00605282 -0.200722 -0.00599838
0.00200366 -0.469516 -0.0140004
-0.0824488 -0.343068 -0.627569
-0.229574 -0.293666 -0.538434
-0.282981 -0.110431 -0.202495
-0.227035 0.116102 0.212895
-0.0834923 0.29786 0.546184
0.0922623 0.364703 0.668748
0.232421 0.29084 0.533309
0.282906 0.104783 0.192141
0.224084 -0.121132 -0.22207
0.0741787 -0.283345 -0.518318
-0.130861 0.0147031 -0.996065
-0.364364 0.0125626 -0.854566
-0.449129 0.00472346 -0.321386
-0.360335 -0.00496595 0.337892
-0.132514 -0.0127402 0.866865
0.146432 -0.0155991 1.0614
0.368883 -0.0124399 0.846431
0.44901 -0.00448179 0.304953
0.355651 0.00518254 -0.352456
0.117735 0.0121435 -0.822664
-0.128786 0.366801 -0.980272
-0.358155 0.31306 -0.840071
-0.441465 0.117704 -0.315914
-0.354185 -0.123747 0.332137
-0.130252 -0.317473 0.852099
0.143934 -0.388716 1.04332
0.362589 -0.30999 0.832013
0.441349 -0.111681 0.299757
0.34959 0.129155 -0.346501
0.115868 0.302946 -0.809621
-0.0770248 0.577385 -0.586283
-0.201358 0.466006 -0.473187
-0.248005 0.174837 -0.177532
-0.198971 -0.183784 0.186617
-0.0731715 -0.471501 0.478767
0.0808576 -0.577309 0.586205
0.203691 -0.460387 0.467481
0.247939 -0.165844 0.1684
0.196531 0.192682 -0.195652
0.0692988 0.476871 -0.48422
0 0.214455 0
0 0.18209 0
0 0.068317 0
0 -0.071813 0
0 -0.184237 0
0 -0.225581 0
0 -0.179894 0
0 -0.0648029 0
0 0.0752899 0
0 0.177121 0
0.130204 0.131717 0.436299
0.362546 0.113084 0.374395
0.446888 0.0425285 0.140809
0.358537 -0.0447126 -0.148042
0.131852 -0.11471 -0.379802
-0.145702 -0.140452 -0.465032
-0.367043 -0.112006 -0.370849
-0.44677 -0.0403538 -0.133611
-0.353877 0.0466407 0.154407
-0.117144 0.108787 0.360345
0.210174 -0.00183893 0.70427
0.585219 -0.00157221 0.604345
0.721363 -0.000591224 0.227293
0.578747 0.000621584 -0.238968
0.212835 0.00159468 -0.613074
-0.235191 0.00195255 -0.750651
-0.592476 0.0015571 -0.598622
-0.721172 0.00056099 -0.215674
-0.571225 -0.000648504 0.249243
-0.189093 -0.0015188 0.581667
0.209058 -0.134685 0.700529
0.58211 -0.115554 0.601134
0.717531 -0.0434593 0.226085
0.575672 0.0456915 -0.237699
0.211704 0.117222 -0.609817
-0.233942 0.143527 -0.746663
-0.589329 0.114459 -0.595441
-0.717341 0.0412374 -0.214528
-0.56819 -0.0476572 0.247919
-0.188088 -0.111238 0.578577
0.127285 -0.215569 0.426519
0.354419 -0.18495 0.366003
0.436871 -0.0695582 0.137653
0.3505 0.0731311 -0.144723
0.128896 0.187618 -0.371288
-0.142436 0.229721 -0.454607
-0.358815 0.183196 -0.362537
-0.436755 0.0660025 -0.130616
-0.345944 -0.0762774 0.150946
-0.114518 -0.178041 0.352268
-0.00359488 -0.213284 -0.012046
-0.0100097 -0.18299 -0.0103369
-0.0123383 -0.068821 -0.00388769
-0.009899 0.0723562 0.00408737
-0.00364038 0.18563 0.0104862
0.00402276 0.227287 0.0128393
0.0101339 0.181255 0.010239
0.0123351 0.0653029 0.00368893
0.00977043 -0.0754692 -0.00426313
0.00323429 -0.176154 -0.00994898
-0.133088 -0.128713 -0.445963
-0.370576 -0.110431 -0.382688
-0.456786 -0.0415324 -0.143928
-0.366478 0.0436658 0.151321
-0.134773 0.112025 0.388215
0.148929 0.137164 0.475332
0.375173 0.109384 0.379064
0.456666 0.0394093 0.13657
0.361715 -0.0455444 -0.157827
0.119739 -0.106306 -0.368327
-0.211235 0.00551636 -0.707825
-0.588153 0.00472346 -0.607377
-0.72498 0.00177621 -0.228433
-0.581648 -0.00186742 0.240167
-0.213902 -0.00479086 0.616149
0.23637 -0.00586597 0.754416
0.595447 -0.00467793 0.601624
0.724789 -0.00168536 0.216755
0.574089 0.00194835 -0.250494
0.190047 0.00455604 -0.584602
-0.207886 0.137618 -0.696602
-0.57813 0.117704 -0.597061
-0.712609 0.0442597 -0.224538
-0.571724 -0.0465323 0.23607
-0.210252 -0.119379 0.605639
0.232337 -0.146168 0.741548
0.585287 -0.116565 0.591362
0.712421 -0.0419958 0.213057
0.564306 0.0485533 -0.246257
0.187034 0.11366 -0.575333
-0.124333 0.216625 -0.416625
-0.32503 0.174837 -0.336257
-0.400328 0.065596 -0.126158
-0.321177 -0.0689528 0.132614
-0.118113 -0.176899 0.340222
0.13052 -0.216596 0.41657
0.328797 -0.172729 0.332202
0.400222 -0.0622218 0.119668
0.317238 0.0722912 -0.139034
0.111862 0.178914 -0.344096
0 -0.225429 0
0 -0.191408 0
0 -0.071813 0
0 0.0754879 0
0 0.193665 0
0 0.237125 0
0 0.1891 0
0 0.0681191 0
0 -0.0791428 0
0 -0.186185 0
0.129512 -0.138457 0.0903017
0.36062 -0.118891 0.0774889
0.444514 -0.0447126 0.0291433
0.356632 0.0470091 -0.0306403
0.131152 0.120602 -0.078608
-0.144928 0.147666 -0.0962479
-0.365093 0.117759 -0.0767548
-0.444397 0.0424266 -0.0276535
-0.351997 -0.049035 0.0319577
-0.116522 -0.114354 0.0745815
0.209058 0.00193304 0.145764
0.58211 0.00165295 0.125081
0.717531 0.000621584 0.0470429
0.575672 -0.00065351 -0.0494594
0.211704 -0.00167656 -0.126888
-0.233942 -0.00205283 -0.155363
-0.589329 -0.00163707 -0.123897
-0.717341 -0.000589797 -0.044638
-0.56819 0.000681794 0.0515857
-0.188088 0.00159652 0.120389
0.207947 0.141577 0.14499
0.579018 0.121489 0.124417
0.713719 0.0456915 0.046793
0.572614 -0.0480386 -0.0491966
0.210579 -0.123243 -0.126214
-0.232699 -0.150899 -0.154537
-0.586199 -0.120338 -0.123239
-0.71353 -0.0433557 -0.0444009
-0.565172 0.0501041 0.0513117
-0.187089 0.116931 0.119749
0.126609 0.2266 0.0882775
0.352536 0.194447 0.0757514
0.43455 0.0731311 0.02849
0.348638 -0.0768878 -0.0299534
0.128212 -0.197256 -0.0768456
-0.141679 -0.241521 -0.0940902
-0.356909 -0.192606 -0.0750341
-0.434435 -0.0693928 -0.0270336
-0.344106 0.0801935 0.0312413
-0.11391 0.187152 0.0729096
-0.00357578 0.224199 -0.00249319
-0.00995652 0.192387 -0.00213943
-0.0122728 0.0723562 -0.000804633
-0.00984648 -0.0760729 0.000845964
-0.00362105 -0.195165 0.00217032
0.0040014 -0.238962 0.00265736
0.01008 -0.190565 0.00211918
0.0122695 -0.0686575 0.000763499
0.00971852 0.0793437 -0.000882337
0.00321711 0.185169 -0.00205916
-0.132381 0.1353 -0.092302
-0.368607 0.116102 -0.079205
-0.454359 0.0436658 -0.0297888
-0.364531 -0.0459087 0.0313189
-0.134057 -0.117779 0.0803488
0.148138 -0.144209 0.0983798
0.37318 -0.115003 0.0784552
0.45424 -0.0414336 0.028266
0.359794 0.0478825 -0.0326655
0.119103 0.111746 -0.0762335
-0.210113 -0.00579865 -0.1465
-0.585029 -0.00496595 -0.125709
-0.721129 -0.00186742 -0.0472787
-0.578559 0.00196331 0.0497074
-0.212766 0.00503689 0.127524
0.235114 0.00616719 0.156142
0.592284 0.00491817 0.124518
0.720938 0.00177191 0.0448619
0.57104 -0.00204836 -0.0518446
0.189038 -0.00478918 -0.120996
-0.206782 -0.14466 -0.144177
-0.57506 -0.123747 -0.123574
-0.708824 -0.0465323 -0.0464727
-0.568686 0.0489217 0.0488595
-0.209135 0.125509 0.125349
0.231102 0.153674 0.153478
0.582178 0.12255 0.122395
0.708636 0.0441522 0.0440965
0.561308 -0.0510454 -0.0509681
0.18604 -0.119477 -0.119078
-0.123672 -0.227711 -0.0862298
-0.323303 -0.183784 -0.0695957
-0.398202 -0.0689528 -0.0261111
-0.319471 0.0724813 0.0274473
-0.117486 0.185952 0.0704164
0.129826 0.22768 0.0862183
0.32705 0.181568 0.0687566
0.398096 0.0654059 0.024768
0.315553 -0.0759906 -0.0287762
0.111267 -0.188069 -0.0712184
0 -0.578342 0
0 -0.491059 0
0 -0.184237 0
0 0.193665 0
0 0.49685 0
0 0.608346 0
0 0.485138 0
0 0.17476 0
0 -0.203042 0
0 -0.47766 0
0.0788539 -0.355213 -0.290535
0.219564 -0.305015 -0.249309
0.270644 -0.11471 -0.0937646
0.217137 0.120602 0.0985811
0.0798519 0.309405 0.25291
-0.0882398 0.378837 0.309665
-0.222288 0.302111 0.246948
-0.270572 0.108845 0.0889713
-0.214314 -0.1258 -0.102819
-0.0709444 -0.293375 -0.239957
0.127285 0.00495922 -0.468979
0.354419 0.00424066 -0.402434
0.436871 0.00159468 -0.151354
0.3505 -0.00167656 0.159129
0.128896 -0.00430129 0.408245
-0.142436 -0.00526655 0.499858
-0.358815 -0.0041999 0.398623
-0.436755 -0.00151313 0.143617
-0.345944 0.00174914 -0.165971
-0.114518 0.00409589 -0.387336
0.126609 0.363218 -0.466487
0.352536 0.31168 -0.400296
0.43455 0.117222 -0.15055
0.348638 -0.123243 0.158284
0.128212 -0.316181 0.406076
-0.141679 -0.387134 0.497202
-0.356909 -0.308728 0.396505
-0.434435 -0.111229 0.142854
-0.344106 0.128542 -0.165089
-0.11391 0.299987 -0.385278
0.0770863 0.581345 -0.284022
0.214642 0.498855 -0.243721
0.264577 0.187618 -0.0916626
0.212269 -0.197256 0.0963712
0.0780623 -0.506059 0.24724
-0.0862616 -0.619624 0.302723
-0.217305 -0.494131 0.241413
-0.264507 -0.178027 0.0869769
-0.20951 0.205736 -0.100515
-0.0693541 0.480141 -0.234578
-0.00217712 0.575184 0.00802153
-0.00606207 0.49357 0.00688329
-0.0074723 0.18563 0.0025888
-0.00599503 -0.195165 -0.00272177
-0.00220466 -0.500697 -0.00698272
0.00243628 -0.613057 -0.00854971
0.00613724 -0.488895 -0.00681812
0.00747033 -0.176141 -0.00245647
0.00591713 0.203557 0.00283879
0.00195875 0.475053 0.0066251
-0.0806006 0.347114 0.29697
-0.224427 0.29786 0.254831
-0.276638 0.112025 0.0958415
-0.221946 -0.117779 -0.100765
-0.0816207 -0.302162 -0.258511
0.0901942 -0.369969 -0.316524
0.227211 -0.295039 -0.252418
0.276565 -0.106298 -0.090942
0.219061 0.122843 0.105097
0.0725159 0.286686 0.245272
-0.127928 -0.0148765 0.471345
-0.356196 -0.0127402 0.404453
-0.439062 -0.00479086 0.152113
-0.352258 0.00503689 -0.159927
-0.129543 0.0129221 -0.410292
0.14315 0.015822 -0.502364
0.360614 0.0126176 -0.400621
0.438946 0.00454583 -0.144337
0.347679 -0.00525509 0.166804
0.115096 -0.0122867 0.389291
-0.125899 -0.371127 0.463872
-0.350126 -0.317473 0.397584
-0.431569 -0.119379 0.14952
-0.346246 0.125509 -0.1572
-0.127332 0.321992 -0.403295
0.140707 0.394251 -0.493796
0.354461 0.314404 -0.393789
0.431455 0.113273 -0.141875
0.341753 -0.130957 0.163983
0.113271 -0.306519 0.383118
-0.0752982 -0.584194 0.277434
-0.196844 -0.471501 0.223916
-0.242446 -0.176899 0.0840093
-0.19451 0.185952 -0.0883084
-0.0715313 0.477061 -0.226556
0.079045 0.584116 -0.277397
0.199125 0.465815 -0.221216
0.242381 0.1678 -0.079688
0.192125 -0.194955 0.0925839
0.0677454 -0.482494 0.229136
0 -0.708125 0
0 -0.601256 0
0 -0.225581 0
0 0.237125 0
0 0.608346 0
0 0.744863 0
0 0.594006 0
0 0.213978 0
0 -0.248606 0
0 -0.58485 0
-0.00222704 -0.434925 -0.55928
-0.00620107 -0.373462 -0.479922
-0.00764366 -0.140452 -0.180497
-0.00613247 0.147666 0.189769
-0.00225524 0.378837 0.486853
0.00249211 0.46385 0.596104
0.00627798 0.369907 0.475377
0.00764164 0.133271 0.17127
0.00605281 -0.154029 -0.197929
0.00200366 -0.359211 -0.461918
-0.00359488 0.00607211 -0.902786
-0.0100097 0.00519222 -0.774686
-0.0123383 0.00195255 -0.291357
-0.009899 -0.00205283 0.306324
-0.00364038 -0.00526655 0.785874
0.00402276 -0.00644837 0.962229
0.0101339 -0.00514238 0.76735
0.0123351 -0.00185268 0.276464
0.00977043 0.00214168 -0.319494
0.00323429 0.00501504 -0.745624
-0.00357578 0.444727 -0.897991
-0.00995652 0.381622 -0.770571
-0.0122728 0.143527 -0.28981
-0.00984648 -0.150899 0.304696
-0.00362105 -0.387134 0.781699
0.0040014 -0.474008 0.957117
0.01008 -0.378008 0.763273
0.0122695 -0.13619 0.274995
0.00971851 0.157388 -0.317797
0.00321711 0.367306 -0.741663
-0.00217712 0.711803 -0.546743
-0.00606208 0.610802 -0.469163
-0.0074723 0.229721 -0.176451
-0.00599503 -0.241521 0.185515
-0.00220466 -0.619624 0.475939
0.00243628 -0.75867 0.582741
0.00613724 -0.605017 0.46472
0.00747033 -0.217978 0.167431
0.00591713 0.251905 -0.193491
0.00195875 0.587887 -0.451563
6.14877e-05 0.70426 0.0154415
0.000171207 0.604328 0.0132504
0.000211042 0.227287 0.00498342
0.000169316 -0.238962 -0.00523946
6.22666e-05 -0.613057 -0.0134417
-6.88047e-05 -0.75063 -0.0164582
-0.000173336 -0.598605 -0.013125
-0.000210986 -0.215668 -0.0047287
-0.000167115 0.249236 0.00546471
-5.53202e-05 0.581658 0.0127533
0.00227638 0.425008 0.571669
0.00633841 0.364703 0.490552
0.00781301 0.137164 0.184495
0.00626833 -0.144209 -0.193972
0.00230518 -0.369969 -0.497635
-0.00254732 -0.452993 -0.609309
-0.00641706 -0.361249 -0.485907
-0.00781094 -0.130152 -0.175064
-0.00618687 0.15041 0.202313
-0.00204804 0.35102 0.472149
0.00361302 -0.0182149 0.907342
0.0100599 -0.0155991 0.778572
0.0124002 -0.00586597 0.292818
0.00994861 0.00616719 -0.30786
0.00365863 0.015822 -0.789815
-0.00404293 0.0193725 -0.967055
-0.0101847 0.015449 -0.771199
-0.012397 0.00556595 -0.27785
-0.00981939 -0.00643435 0.321098
-0.00325062 -0.0150439 0.749387
0.00355574 -0.45441 0.892956
0.00988849 -0.388716 0.765349
0.0121886 -0.146168 0.287826
0.00977899 0.153674 -0.302608
0.00359622 0.394251 -0.776344
-0.00397394 0.482723 -0.950561
-0.0100109 0.384959 -0.758045
-0.0121854 0.138692 -0.27311
-0.00965203 -0.160345 0.315667
-0.00319908 -0.375303 0.737505
0.00212662 -0.715291 0.534061
0.0055594 -0.577309 0.431039
0.00684732 -0.216596 0.161718
0.00549349 0.22768 -0.169994
0.00202023 0.584116 -0.436121
-0.00223244 0.715196 -0.53399
-0.00562382 0.570348 -0.425841
-0.0068455 0.205455 -0.1534
-0.00542612 -0.238704 0.178224
-0.00191331 -0.590769 0.441088
0 -0.564709 0
0 -0.479484 0
0 -0.179894 0
0 0.1891 0
0 0.485138 0
0 0.594006 0
0 0.473703 0
0 0.170641 0
0 -0.198256 0
0 -0.466401 0
-0.0824488 -0.34684 -0.612252
-0.229574 -0.297825 -0.525377
-0.282981 -0.112006 -0.197593
-0.227035 0.117759 0.207742
-0.0834923 0.302111 0.532966
0.0922622 0.369907 0.652565
0.232421 0.29499 0.520401
0.282906 0.10628 0.187492
0.224084 -0.122834 -0.216675
0.0741787 -0.28646 -0.505667
-0.133088 0.00484233 -0.988292
-0.370576 0.00414067 -0.848058
-0.456786 0.0015571 -0.318953
-0.366478 -0.00163707 0.335337
-0.134773 -0.0041999 0.860306
0.148929 -0.00514238 1.05337
0.375173 -0.00410091 0.840026
0.456666 -0.00147748 0.302648
0.361715 0.00170792 -0.349754
0.119739 0.00399934 -0.816244
-0.132381 0.354656 -0.983042
-0.368607 0.304332 -0.843553
-0.454359 0.114459 -0.317259
-0.364531 -0.120338 0.333555
-0.134057 -0.308728 0.855736
0.148138 -0.378008 1.04777
0.37318 -0.30145 0.835564
0.45424 -0.108608 0.30104
0.359794 0.125512 -0.347896
0.119103 0.292916 -0.811908
-0.0806006 0.567642 -0.598527
-0.224427 0.487098 -0.513599
-0.276638 0.183196 -0.193164
-0.221946 -0.192606 0.203086
-0.0816207 -0.494131 0.521017
0.0901942 -0.605017 0.637937
0.227211 -0.482485 0.508736
0.276565 -0.173831 0.183289
0.219061 0.200888 -0.211817
0.0725159 0.468823 -0.494332
0.00227638 0.561626 0.016904
0.00633841 0.481936 0.0145055
0.00781301 0.181255 0.00545544
0.00626833 -0.190565 -0.00573568
0.00230518 -0.488895 -0.0147149
-0.00254732 -0.598605 -0.018017
-0.00641706 -0.477371 -0.0143681
-0.00781094 -0.171989 -0.00517658
-0.00618687 0.198759 0.0059823
-0.00204804 0.463855 0.0139613
0.0842751 0.338932 0.625814
0.234659 0.29084 0.537015
0.289249 0.109384 0.201969
0.232064 -0.115003 -0.212344
0.0853415 -0.295039 -0.54477
-0.094306 -0.361249 -0.667018
-0.237569 -0.288085 -0.53193
-0.289172 -0.103792 -0.191645
-0.229048 0.119947 0.221474
-0.0758218 0.279928 0.516868
0.13376 -0.0145258 0.99328
0.372434 -0.0124399 0.852313
0.459077 -0.00467793 0.320552
0.368315 0.00491817 -0.337018
0.135449 0.0126176 -0.864621
-0.149676 0.015449 -1.05865
-0.377054 0.0123201 -0.84424
-0.458956 0.00443869 -0.304165
-0.363529 -0.0051312 0.35151
-0.120343 -0.0119971 0.820363
0.131639 -0.362379 0.977531
0.366087 -0.30999 0.837838
0.451244 -0.116565 0.315088
0.362031 0.12255 -0.33127
0.133137 0.314404 -0.849874
-0.147122 0.384959 -1.04059
-0.37062 0.306993 -0.829841
-0.451124 0.110603 -0.298976
-0.357333 -0.12787 0.345564
-0.118435 -0.299293 0.807356
0.0787309 -0.570423 0.584644
0.205818 -0.460387 0.471864
0.253499 -0.172729 0.177035
0.203378 0.181568 -0.186095
0.0747923 0.465815 -0.477428
-0.0826486 0.570348 -0.584566
-0.208203 0.454835 -0.466174
-0.253431 0.163844 -0.167929
-0.200884 -0.190359 0.195105
-0.0708338 -0.471121 0.482865
0 -0.203424 0
0 -0.172723 0
0 -0.0648029 0
0 0.0681191 0
0 0.17476 0
0 0.213978 0
0 0.170641 0
0 0.0614695 0
0 -0.0714171 0
0 -0.16801 0
-0.130861 -0.124941 -0.429012
-0.364364 -0.1073 -0.36815
-0.449129 -0.0403539 -0.138461
-0.360335 0.0424266 0.145573
-0.132514 0.108846 0.373468
0.146432 0.133271 0.457277
0.368883 0.10628 0.364665
0.44901 0.0382905 0.131383
0.355651 -0.044254 -0.151831
0.117735 -0.103191 -0.354327
-0.211235 0.00174434 -0.692508
-0.588153 0.00149179 -0.594263
-0.72498 0.000560992 -0.223502
-0.581649 -0.000589798 0.234983
-0.213902 -0.00151313 0.602848
0.23637 -0.00185269 0.738131
0.595447 -0.00147748 0.588638
0.724789 -0.000532312 0.212077
0.57409 0.00061532 -0.245085
0.190047 0.00144067 -0.571952
-0.210113 0.127757 -0.688829
-0.585029 0.109645 -0.591106
-0.721129 0.0412375 -0.222315
-0.578559 -0.0433558 0.233735
-0.212766 -0.11123 0.599645
0.235114 -0.13619 0.73421
0.592284 -0.108608 0.585511
0.720938 -0.0391296 0.21095
0.57104 0.045219 -0.243783
0.189038 0.105516 -0.568913
-0.127928 0.20448 -0.419395
-0.356196 0.175491 -0.359898
-0.439062 0.0660026 -0.135357
-0.352258 -0.069393 0.14231
-0.129543 -0.178028 0.365096
0.14315 -0.217978 0.447026
0.360614 -0.173831 0.35649
0.438946 -0.0626285 0.128437
0.347679 0.0723749 -0.148428
0.115096 0.168883 -0.346384
0.00361302 0.202313 0.0118448
0.0100599 0.173631 0.0101645
0.0124002 0.0653031 0.00382283
0.00994861 -0.0686576 -0.0040192
0.00365863 -0.176141 -0.0103112
-0.00404293 -0.215668 -0.0126252
-0.0101847 -0.171989 -0.0100682
-0.0123969 -0.0619648 -0.00362743
-0.00981939 0.0716079 0.00419201
-0.00325062 0.167093 0.00978281
0.13376 0.122092 0.438515
0.372435 0.104784 0.376305
0.459077 0.0394094 0.141527
0.368315 -0.0414336 -0.148797
0.135449 -0.106298 -0.38174
-0.149676 -0.130152 -0.467405
-0.377054 -0.103792 -0.372742
-0.458956 -0.0373947 -0.134293
-0.363529 0.0432141 0.155194
-0.120343 0.100838 0.362175
0.212301 -0.0052326 0.696002
0.591103 -0.0044818 0.597245
0.728615 -0.00168537 0.224623
0.584565 0.00177191 -0.236161
0.214974 0.00454584 -0.605872
-0.237555 0.00556596 -0.741833
-0.598434 0.00443869 -0.59159
-0.728423 0.00159917 -0.21314
-0.576969 -0.00184863 0.246315
-0.191006 -0.00432168 0.574838
0.208935 -0.130539 0.684967
0.581031 -0.111681 0.587102
0.716184 -0.0419959 0.220793
0.574591 0.0441523 -0.232133
0.211306 0.113273 -0.595536
-0.233502 0.138692 -0.729181
-0.588222 0.110603 -0.5815
-0.715994 0.0398478 -0.209504
-0.567136 -0.0460679 0.242149
-0.187978 -0.107814 0.565724
0.12496 -0.205482 0.409666
0.32667 -0.165844 0.33064
0.402348 -0.0622218 0.124051
0.322798 0.0654059 -0.130399
0.118709 0.1678 -0.334539
-0.131178 0.205455 -0.409612
-0.330456 0.163844 -0.326653
-0.402241 0.0590212 -0.11767
-0.318839 -0.0685726 0.136712
-0.112426 -0.169711 0.338349
0 0.236344 0
0 0.200675 0
0 0.0752899 0
0 -0.0791428 0
0 -0.203042 0
0 -0.248605 0
0 -0.198256 0
0 -0.0714171 0
0 0.0829745 0
0 0.1952 0
-0.128786 0.145161 -0.0802561
-0.358155 0.124046 -0.0693774
-0.441465 0.0466385 -0.0261038
-0.354185 -0.0490327 0.0274458
-0.130252 -0.125794 0.0704119
0.143934 -0.154022 0.086213
0.362589 -0.122828 0.0687525
0.441349 -0.0442518 0.0247712
0.34959 0.0511766 -0.0285992
0.115868 0.11989 -0.0662846
-0.207886 -0.00202663 -0.129549
-0.578131 -0.00172489 -0.111988
-0.712609 -0.00064847 -0.0421366
-0.571724 0.000681756 0.0443028
-0.210252 0.00174904 0.113659
0.232337 0.00214155 0.139164
0.585287 0.00170782 0.11098
0.712421 0.000615284 0.0399855
0.564306 -0.000711694 -0.0461646
0.187034 -0.00167382 -0.106996
-0.206782 -0.148432 -0.128861
-0.57506 -0.126745 -0.111393
-0.708824 -0.0476549 -0.0419127
-0.568686 0.0501016 0.0440674
-0.209135 0.128535 0.113055
0.231102 0.15738 0.138425
0.582178 0.125506 0.11039
0.708636 0.0452167 0.0397731
0.561308 -0.0522885 -0.0459194
0.18604 -0.122592 -0.106428
-0.125899 -0.237571 -0.078457
-0.350126 -0.202862 -0.0678222
-0.431569 -0.0762736 -0.0255186
-0.346246 0.0801895 0.0268305
-0.127332 0.205726 0.0688337
0.140707 0.251893 0.0842805
0.354461 0.200878 0.0672115
0.431455 0.0723712 0.0242159
0.341753 -0.0836896 -0.0279581
0.113271 -0.196213 -0.0647988
0.00355574 -0.235054 0.00221584
0.0098885 -0.200712 0.00191548
0.0121886 -0.0754654 0.000720715
0.00977899 0.0793397 -0.000757764
0.00359622 0.203547 -0.00194405
-0.00397394 0.249224 -0.00238031
-0.0100109 0.198749 -0.00189822
-0.0121854 0.0716042 -0.000683921
-0.00965203 -0.0828025 0.000789613
-0.00319908 -0.194134 0.00183009
0.131639 -0.141851 0.0820338
0.366087 -0.121126 0.0709139
0.451244 -0.0455422 0.026682
0.362031 0.0478802 -0.0280537
0.133137 0.122837 -0.0719716
-0.147122 0.150402 -0.0881227
-0.37062 0.119942 -0.0702751
-0.451124 0.0432119 -0.0253198
-0.357333 -0.0499699 0.0292327
-0.118435 -0.117156 0.0677529
0.208935 0.0060794 0.130203
0.581031 0.0051823 0.112549
0.716184 0.00194826 0.0423476
0.574591 -0.00204826 -0.0445246
0.211306 -0.00525483 -0.114228
-0.233502 -0.00643404 -0.139861
-0.588222 -0.00513095 -0.111535
-0.715994 -0.00184854 -0.0401857
-0.567136 0.00213823 0.0463961
-0.187978 0.00502106 0.107536
0.205622 0.151664 0.128138
0.571149 0.129149 0.110616
0.703987 0.048551 0.0416166
0.564807 -0.051043 -0.0437557
0.207707 -0.130951 -0.112255
-0.229525 -0.160337 -0.137446
-0.578206 -0.127864 -0.10961
-0.703801 -0.0460657 -0.0394916
-0.55749 0.0532891 0.0456028
-0.184997 0.125261 0.105831
0.122979 0.238735 0.0766371
0.321491 0.192682 0.0618535
0.395969 0.0722912 0.0232064
0.31768 -0.0759906 -0.0243939
0.116827 -0.194955 -0.0625829
-0.129098 -0.238704 -0.0766269
-0.325217 -0.190359 -0.0611077
-0.395864 -0.0685726 -0.0220127
-0.313784 0.0796697 0.025575
-0.110644 0.197175 0.0632957
0 0.584928 0
0 0.472093 0
0 0.177121 0
0 -0.186185 0
0 -0.47766 0
0 -0.58485 0
0 -0.466401 0
0 -0.16801 0
0 0.1952 0
0 0.4831 0
-0.0770248 0.359259 0.299463
-0.201358 0.289956 0.241696
-0.248005 0.108787 0.0906802
-0.198971 -0.114354 -0.0953206
-0.0731715 -0.293375 -0.244546
0.0808576 -0.359211 -0.299424
0.203691 -0.28646 -0.238781
0.247939 -0.103191 -0.0860157
0.196531 0.11989 0.0999356
0.0692988 0.296717 0.247331
-0.124333 -0.0050157 0.483392
-0.32503 -0.00404816 0.390144
-0.400328 -0.0015188 0.146375
-0.321177 0.00159652 -0.153866
-0.118113 0.00409589 -0.394744
0.13052 0.00501504 -0.483327
0.328797 0.00399934 -0.385439
0.400222 0.00144067 -0.138846
0.317238 -0.00167382 0.161315
0.111862 -0.00414254 0.39924
-0.123672 -0.367355 0.480824
-0.323303 -0.296491 0.388071
-0.398202 -0.111238 0.145598
-0.319471 0.116931 -0.153048
-0.117486 0.299987 -0.392647
0.129826 0.367306 -0.48076
0.32705 0.292916 -0.383392
0.398096 0.105516 -0.138108
0.315553 -0.122592 0.160458
0.111267 -0.303403 0.397119
-0.0752982 -0.587966 0.292751
-0.196844 -0.474545 0.236278
-0.242446 -0.178041 0.0886474
-0.19451 0.187152 -0.0931838
-0.0715313 0.480141 -0.239064
0.079045 0.587888 -0.292712
0.199125 0.468823 -0.233429
0.242381 0.168883 -0.0840875
0.192125 -0.196213 0.0976954
0.0677454 -0.485609 0.241787
0.00212662 -0.581735 -0.00826806
0.0055594 -0.469516 -0.00667312
0.00684732 -0.176155 -0.00250364
0.00549349 0.185169 0.00263176
0.00202023 0.475053 0.00675181
-0.00223244 0.581658 0.00826696
-0.00562382 0.463855 0.00659265
-0.0068455 0.167093 0.00237486
-0.00542612 -0.194134 -0.00275918
-0.00191331 -0.480463 -0.0068287
0.0787309 -0.351067 -0.306097
0.205818 -0.283345 -0.24705
0.253499 -0.106306 -0.0926888
0.203378 0.111746 0.097432
0.0747923 0.286686 0.249963
-0.0826486 0.35102 0.306056
-0.208203 0.279928 0.244071
-0.253431 0.100838 0.087921
-0.200884 -0.117156 -0.102149
-0.0708338 -0.289951 -0.25281
0.12496 0.0150459 -0.485831
0.32667 0.0121435 -0.392112
0.402348 0.00455604 -0.147114
0.322798 -0.00478919 0.154642
0.118709 -0.0122867 0.396736
-0.131178 -0.0150439 0.485766
-0.330456 -0.0119971 0.387384
-0.402241 -0.00432168 0.139547
-0.318839 0.00502106 -0.162129
-0.112426 0.0124266 -0.401255
0.122979 0.375353 -0.478128
0.321491 0.302946 -0.385895
0.395969 0.11366 -0.144781
0.31768 -0.119477 0.15219
0.116827 -0.306519 0.390446
-0.129098 -0.375304 0.478065
-0.325217 -0.299293 0.381242
-0.395864 -0.107814 0.137334
-0.313784 0.125261 -0.159559
-0.110644 0.31001 -0.394893
0.0735515 0.590847 -0.28596
0.192278 0.476871 -0.230797
0.236822 0.178914 -0.0865912
0.189998 -0.188069 0.0910223
0.069872 -0.482494 0.233519
-0.0772115 -0.590769 0.285922
-0.194506 -0.471121 0.228014
-0.236759 -0.169711 0.082137
-0.187669 0.197175 -0.0954292
-0.0661739 0.487989 -0.236178
