# vtk DataFile Version 3.0
Velocity field
ASCII
DATASET STRUCTURED_POINTS
DIMENSIONS 8 8 8
SPACING 0.8 0.8 0.8
ORIGIN 0 0 0
POINT_DATA 512
VECTORS velocity float
0 0.433475 0
0 0.302005 0
0 -0.0126573 0
0 -0.319642 0
0 -0.432736 0
0 -0.283338 0
0 0.0379287 0
0 0.336188 0
0 0.170535 0.442426
0 0.118813 0.326808
0 -0.00497954 -0.0136968
0 -0.125751 -0.345894
0 -0.170244 -0.468276
0 -0.111469 -0.306609
0 0.0149217 0.0410438
0 0.132261 0.34313
0 -0.195849 0.616482
0 -0.13645 0.455379
0 0.00571871 -0.0190853
0 0.144418 -0.481973
0 0.195515 -0.652503
0 0.128016 -0.427233
0 -0.0171367 0.0571909
0 -0.151894 0.478122
0 -0.443434 0.416588
0 -0.308943 0.307723
0 0.0129481 -0.0128969
0 0.326985 -0.325694
0 0.442678 -0.440929
0 0.289848 -0.288703
0 -0.0388001 0.0386469
0 -0.343912 0.323092
0 -0.422037 -0.036002
0 -0.294036 -0.0265937
0 0.0123233 0.00111456
0 0.311208 0.0281468
0 0.421318 0.0381055
0 0.275862 0.02495
0 -0.0369279 -0.0033399
0 -0.327318 -0.0279219
0 -0.144639 -0.466754
0 -0.100771 -0.344779
0 0.00422338 0.01445
0 0.106656 0.364914
0 0.144392 0.494026
0 0.0945421 0.323469
0 -0.0126558 -0.0433007
0 -0.112177 -0.361999
0 0.220496 -0.61438
0 0.153621 -0.453826
0 -0.00643838 0.0190202
0 -0.162592 0.480329
0 -0.22012 0.650277
0 -0.144126 0.425776
0 0.0192932 -0.0569959
0 0.171009 -0.476492
0 0.451881 -0.389331
0 0.314828 -0.271249
0 -0.0131947 0.0113683
0 -0.333214 0.28709
0 -0.45111 0.388667
0 -0.295369 0.254483
0 0.0395392 -0.0340661
0 0.350463 -0.301951
0 0.302005 0
0 0.228442 0
0 -0.00957418 0
0 -0.241782 0
0 -0.327329 0
0 -0.214322 0
0 0.0286899 0
0 0.234225 0
0.0943108 0.118813 0.436996
0.234371 0.08608 0.31616
0.228695 -0.00361074 -0.0132618
0.0842514 -0.09117 -0.334853
-0.111297 -0.123428 -0.453333
-0.239336 -0.0808154 -0.296826
-0.222163 0.0107725 0.0395684
-0.0676699 0.0921471 0.338919
0.131414 -0.13645 0.608916
0.32657 -0.0985917 0.440547
0.318662 0.00413531 -0.0184791
0.117398 0.104417 -0.466593
-0.155082 0.141361 -0.631673
-0.33349 0.0925575 -0.4136
-0.309561 -0.0123406 0.0551357
-0.0942921 -0.105826 0.472255
0.0888031 -0.308943 0.411476
0.220682 -0.223231 0.297701
0.21534 0.00936345 -0.0124872
0.0793308 0.236424 -0.315297
-0.104798 0.320071 -0.426859
-0.225358 0.209574 -0.27949
-0.209189 -0.0279419 0.0372581
-0.063718 -0.239606 0.319127
-0.00767445 -0.294036 -0.0355602
-0.0190715 -0.212463 -0.0257276
-0.0186099 0.00891154 0.00107915
-0.00685593 0.225015 0.0272486
0.00905671 0.304631 0.0368895
0.0194754 0.199461 0.0241537
0.0180783 -0.0265935 -0.00321987
0.00550658 -0.228044 -0.0275792
-0.0994968 -0.100771 -0.461026
-0.247254 -0.0728149 -0.333546
-0.241271 0.00305417 0.0139909
-0.0888831 0.0771173 0.353262
0.117417 0.104403 0.478261
0.252492 0.0683587 0.313143
0.234379 -0.00911409 -0.0417443
0.071391 -0.0781543 -0.357556
-0.130966 0.153621 -0.60684
-0.325361 0.110901 -0.438921
-0.317482 -0.00465153 0.0184104
-0.116964 -0.117451 0.464864
0.154507 -0.159006 0.629331
0.332252 -0.104113 0.412067
0.308415 0.013883 -0.054934
0.0939706 0.119143 -0.470644
-0.0829926 0.314828 -0.384553
-0.198636 0.219343 -0.26792
-0.193789 -0.00919284 0.0112288
-0.0713925 -0.232152 0.283567
0.0943097 -0.314291 0.383897
0.202805 -0.205785 0.25136
0.188281 0.0275472 -0.033648
0.0595489 0.24417 -0.298246
0 -0.0126573 0
0 -0.00957418 0
0 0.000401262 0
0 0.0101333 0
0 0.0137186 0
0 0.0089824 0
0 -0.00120242 0
0 -0.00981654 0
0.131414 -0.00497954 0.166491
0.32657 -0.00361074 0.120383
0.318662 0.000151464 -0.00504945
0.117398 0.00382438 -0.127497
-0.155082 0.00517741 -0.172607
-0.33349 0.00339002 -0.113019
-0.309561 -0.000451812 0.0150668
-0.0942921 -0.00386196 0.129124
0.183114 0.00571871 0.23199
0.455053 0.00413531 0.167742
0.444033 -0.000173456 -0.00703602
0.163582 -0.00437977 -0.177655
-0.216096 -0.0059294 -0.240519
-0.464694 -0.00388239 -0.15748
-0.431353 0.000517553 0.020994
-0.131388 0.00443524 0.179924
0.123739 0.0129481 0.156768
0.307499 0.00936345 0.113352
0.300058 -0.00039275 -0.00475465
0.110542 -0.00991684 -0.120054
-0.146027 -0.0134257 -0.162528
-0.314014 -0.00879057 -0.106419
-0.291487 0.00117187 0.0141868
-0.0887856 0.0100421 0.121584
-0.0106937 0.0123233 -0.013548
-0.0265746 0.00891154 -0.00979593
-0.0259311 -0.0003738 0.000410898
-0.00955311 -0.00943849 0.010375
0.0126197 -0.0127778 0.0140459
0.0271377 -0.00836639 0.0091968
0.0251905 0.00111532 -0.00122603
0.00767294 0.00955753 -0.0105074
-0.13864 0.00422338 -0.175646
-0.344524 0.00305417 -0.127001
-0.336186 -0.000128109 0.0053271
-0.123853 -0.00323473 0.134507
0.163609 -0.00437919 0.182098
0.351823 -0.00286732 0.119234
0.326583 0.000382239 -0.015895
0.0994771 0.00327551 -0.136225
-0.182489 -0.00643838 -0.231199
-0.453368 -0.00465153 -0.167121
-0.442389 0.000195105 0.00700997
-0.162976 0.00492637 0.176998
0.215295 0.00666941 0.239625
0.462973 0.00436687 0.156897
0.429755 -0.000582236 -0.0209172
0.13094 -0.00499339 -0.17931
-0.115643 -0.0131947 -0.14651
-0.276782 -0.00919284 -0.102075
-0.270028 0.00038528 0.00427803
-0.0994792 0.0097297 0.108036
0.131412 0.0131722 0.14626
0.282591 0.00862464 0.0957655
0.262354 -0.00115453 -0.0128195
0.0829762 -0.0102334 -0.113628
0 -0.319642 0
0 -0.241783 0
0 0.0101333 0
0 0.255902 0
0 0.346444 0
0 0.226838 0
0 -0.0303654 0
0 -0.247903 0
0.0888031 -0.125751 -0.205006
0.220682 -0.09117 -0.148229
0.21534 0.00382438 0.00621746
0.0793308 0.0965626 0.156989
-0.104798 0.130728 0.212536
-0.225358 0.0855954 0.13916
-0.209189 -0.0114083 -0.0185518
-0.063718 -0.0975284 -0.158996
0.123739 0.144418 -0.285658
0.307499 0.104417 -0.206543
0.300058 -0.00437977 0.00866347
0.110542 -0.110589 0.218753
-0.146027 -0.149718 0.296151
-0.314014 -0.0980288 0.193907
-0.291487 0.0130686 -0.0258502
-0.0887856 0.112006 -0.221547
0.0836171 0.326985 -0.193034
0.207795 0.236424 -0.139571
0.202763 -0.00991684 0.00585432
0.0746993 -0.250398 0.147823
-0.098677 -0.338993 0.200123
-0.212198 -0.221961 0.131032
-0.196971 0.0295903 -0.0174683
-0.059997 0.253599 -0.14971
-0.00722627 0.311208 0.0166822
-0.0179578 0.225015 0.0120619
-0.0175229 -0.00943849 -0.000505938
-0.00645555 -0.238319 -0.0127749
0.00852771 -0.322634 -0.0172947
0.0183383 -0.211252 -0.0113239
0.0170224 0.0281624 0.00150963
0.005185 0.241362 0.0129381
-0.0936863 0.106656 0.216279
-0.232817 0.0771173 0.156377
-0.22718 -0.00323473 -0.00655935
-0.0836932 -0.0816754 -0.165621
0.11056 -0.110574 -0.224222
0.237751 -0.0724001 -0.146813
0.22069 0.00965176 0.0195717
0.0672218 0.0827185 0.167739
-0.123317 -0.162592 0.284684
-0.306361 -0.117451 0.20578
-0.298945 0.00492637 -0.00863137
-0.110132 0.124391 -0.217943
0.145485 0.168402 -0.295053
0.31285 0.110263 -0.193189
0.290406 -0.0147018 0.0257558
0.0884828 -0.126101 0.220791
-0.0781459 -0.333214 0.180403
-0.187036 -0.232152 0.125688
-0.182472 0.0097297 -0.0052677
-0.0672232 0.24571 -0.133028
0.0888021 0.332646 -0.180096
0.190961 0.217803 -0.11792
0.177286 -0.0291559 0.0157851
0.0560713 -0.258429 0.139915
0 -0.432736 0
0 -0.327329 0
0 0.0137186 0
0 0.346444 0
0 0.469022 0
0 0.307097 0
0 -0.0411091 0
0 -0.335615 0
-0.00767445 -0.170244 -0.452149
-0.0190715 -0.123428 -0.32692
-0.0186099 0.00517741 0.0137129
-0.00685593 0.130728 0.346241
0.00905671 0.17698 0.468757
0.0194754 0.115882 0.306922
0.0180783 -0.0154449 -0.0409165
0.00550658 -0.132035 -0.350671
-0.0106937 0.195515 -0.63003
-0.0265746 0.141361 -0.455537
-0.0259311 -0.0059294 0.0191078
-0.00955311 -0.149718 0.48247
0.0126197 -0.202689 0.653163
0.0271377 -0.132712 0.427673
0.0251905 0.0176924 -0.057014
0.00767294 0.151635 -0.48863
-0.00722627 0.442678 -0.425744
-0.0179578 0.320071 -0.30783
-0.0175229 -0.0134257 0.0129121
-0.00645555 -0.338993 0.326024
0.00852771 -0.458938 0.441379
0.0183383 -0.300497 0.288999
0.0170224 0.0400593 -0.0385271
0.005185 0.343326 -0.330192
0.000624502 0.421318 0.0367932
0.00155193 0.304631 0.0266031
0.00151435 -0.0127778 -0.00111587
0.000557892 -0.322634 -0.0281755
-0.000736976 -0.436794 -0.0381444
-0.00158481 -0.285995 -0.0249756
-0.00147109 0.0381267 0.00332955
-0.000448093 0.32676 0.0285355
0.00809646 0.144392 0.477012
0.02012 0.104403 0.344894
0.0196329 -0.00437919 -0.0144669
0.00723291 -0.110574 -0.36528
-0.00955465 -0.149698 -0.49453
-0.0205463 -0.0980157 -0.323797
-0.0190722 0.0130667 0.0431661
-0.00580937 0.111985 0.369954
0.0106572 -0.22012 0.627881
0.0264762 -0.159006 0.453853
0.0258351 0.00666942 -0.0190369
0.00951771 0.168402 -0.480678
-0.012573 0.227985 -0.650745
-0.0270371 0.149277 -0.426088
-0.0250972 -0.0199033 0.0568056
-0.00764677 -0.170718 0.486963
0.00675345 -0.45111 0.397887
0.0161638 -0.314291 0.27721
0.0157694 0.0131722 -0.0116181
0.0058095 0.332646 -0.293399
-0.00767437 0.450341 -0.397208
-0.0165031 0.294865 -0.260076
-0.0153212 -0.0394718 0.0348148
-0.00484574 -0.349866 0.308587
0 -0.283338 0
0 -0.214322 0
0 0.0089824 0
0 0.226838 0
0 0.307097 0
0 0.201075 0
0 -0.0269166 0
0 -0.219747 0
-0.0994968 -0.111469 -0.425024
-0.247254 -0.0808154 -0.30731
-0.241271 0.00339002 0.0128903
-0.0888831 0.0855954 0.325473
0.117417 0.115882 0.440635
0.252492 0.0758754 0.288512
0.234379 -0.0101128 -0.0384621
0.071391 -0.0864515 -0.329634
-0.13864 0.128016 -0.592234
-0.344524 0.0925575 -0.428214
-0.336186 -0.00388239 0.0179614
-0.123853 -0.0980288 0.453524
0.163609 -0.132712 0.613984
0.351823 -0.0868944 0.402015
0.326583 0.0115843 -0.0535937
0.0994771 0.0992846 -0.459317
-0.0936863 0.289848 -0.400203
-0.232817 0.209574 -0.289365
-0.22718 -0.00879057 0.0121374
-0.0836932 -0.221961 0.306468
0.11056 -0.300497 0.414902
0.237751 -0.196752 0.27166
0.22069 0.0262295 -0.036216
0.0672218 0.224796 -0.310384
0.00809646 0.275862 0.0345859
0.02012 0.199461 0.0250072
0.0196329 -0.00836639 -0.00104892
0.00723291 -0.211252 -0.0264854
-0.00955465 -0.285995 -0.0358562
-0.0205463 -0.187257 -0.0234772
-0.0190722 0.0249638 0.00312981
-0.00580937 0.213949 0.0268237
0.104968 0.0945421 0.448396
0.260848 0.0683587 0.324205
0.254532 -0.00286732 -0.0135991
0.0937707 -0.0724001 -0.343368
-0.123873 -0.0980157 -0.464865
-0.266375 -0.0641766 -0.304376
-0.247264 0.00855556 0.0405767
-0.0753167 0.0733236 0.34776
0.138167 -0.144126 0.590214
0.343248 -0.104113 0.42663
0.334939 0.00436687 -0.0178949
0.123393 0.110263 -0.451845
-0.163003 0.149277 -0.61171
-0.35052 0.0977408 -0.400527
-0.325374 -0.0130321 0.0533976
-0.0991379 -0.111779 0.45775
0.0875563 -0.295369 0.374017
0.209558 -0.205785 0.26058
0.204445 0.00862464 -0.0109211
0.0753182 0.217803 -0.275798
-0.0994957 0.294865 -0.373379
-0.213957 0.193066 -0.244474
-0.198635 -0.0258445 0.0327262
-0.0628234 -0.229078 0.290075
0 0.0379287 0
0 0.0286899 0
0 -0.00120242 0
0 -0.0303654 0
0 -0.0411091 0
0 -0.0269166 0
0 0.00360316 0
0 0.0294162 0
-0.130966 0.0149217 -0.140085
-0.325361 0.0107722 -0.101363
-0.317482 -0.000451799 0.00425182
-0.116964 -0.011408 0.107357
0.154507 -0.0154445 0.145342
0.332252 -0.0101125 0.0951634
0.308415 0.00134877 -0.0126849
0.0939706 0.0115727 -0.108645
-0.182489 -0.0171367 -0.195197
-0.453368 -0.0123402 -0.141241
-0.442389 0.000517538 0.00592449
-0.162976 0.0130682 0.149593
0.215295 0.0176918 0.20252
0.462973 0.0115839 0.132603
0.429755 -0.00154535 -0.0176754
0.13094 -0.0132906 -0.151388
-0.123317 -0.0388001 -0.131905
-0.306361 -0.027941 -0.0954432
-0.298945 0.00117183 0.00400352
-0.110132 0.0295894 0.101087
0.145485 0.0400581 0.136853
0.31285 0.0262287 0.0896062
0.290406 -0.00349897 -0.0119441
0.0884828 -0.030092 -0.102301
0.0106572 -0.0369279 0.0113993
0.0264762 -0.0265928 0.00824832
0.0258351 0.00111528 -0.000345985
0.00951771 0.0281616 -0.00873608
-0.012573 0.0381256 -0.0118269
-0.0270371 0.0249631 -0.00774392
-0.0250972 -0.00333015 0.00103223
-0.00764677 -0.02864 0.00884093
0.138167 -0.0126558 0.147789
0.343248 -0.00911383 0.106937
0.334939 0.000382227 -0.00448561
0.123393 0.00965147 -0.11326
-0.163003 0.0130663 -0.153332
-0.35052 0.00855531 -0.100396
-0.325374 -0.0011413 0.0133825
-0.0991379 -0.00981538 0.11462
0.181867 0.0192932 0.194531
0.451691 0.0138826 0.140718
0.440751 -0.000582219 -0.00590249
0.162373 -0.0147014 -0.149037
-0.214497 -0.0199028 -0.201768
-0.46126 -0.0130317 -0.132111
-0.428163 0.00173867 0.0176107
-0.130493 0.0149632 0.150872
0.115249 0.0395392 0.123274
0.275838 0.0275472 0.0858858
0.269107 -0.00115453 -0.00359954
0.0991399 -0.0291559 -0.0909014
-0.130964 -0.0394718 -0.123064
-0.281627 -0.0258445 -0.0805772
-0.261459 0.00345965 0.0107864
-0.0826932 0.0306652 0.095607
0 0.336188 0
0 0.234225 0
0 -0.00981654 0
0 -0.247903 0
0 -0.335615 0
0 -0.219747 0
0 0.0294162 0
0 0.260736 0
-0.0829926 0.132261 0.229827
-0.198636 0.0921471 0.160122
-0.193789 -0.00386196 -0.00671084
-0.0713924 -0.0975284 -0.169473
0.0943097 -0.132035 -0.229435
0.202805 -0.0864515 -0.150225
0.188281 0.0115727 0.0201097
0.0595489 0.102577 0.178246
-0.115643 -0.151894 0.320244
-0.276782 -0.105826 0.223116
-0.270028 0.00443524 -0.00935098
-0.0994792 0.112006 -0.236146
0.131412 0.151635 -0.319698
0.282591 0.0992846 -0.209325
0.262354 -0.0132906 0.0280211
0.0829762 -0.117804 0.24837
-0.0781459 -0.343912 0.216405
-0.187036 -0.239606 0.150771
-0.182472 0.0100421 -0.00631894
-0.0672232 0.253599 -0.159576
0.0888021 0.343326 -0.216036
0.190961 0.224796 -0.141452
0.177286 -0.030092 0.0189353
0.0560713 -0.266726 0.167837
0.00675345 -0.327318 -0.018702
0.0161638 -0.228044 -0.0130298
0.0157694 0.00955753 0.000546089
0.0058095 0.241362 0.0137907
-0.00767437 0.32676 0.0186701
-0.0165031 0.213949 0.0122244
-0.0153212 -0.02864 -0.00163641
-0.00484574 -0.253856 -0.0145046
0.0875563 -0.112177 -0.242465
0.209558 -0.0781543 -0.168927
0.204445 0.00327551 0.00707986
0.0753182 0.0827185 0.178792
-0.0994957 0.111985 0.242051
-0.213957 0.0733236 0.158486
-0.198635 -0.00981538 -0.0212155
-0.0628234 -0.0870005 -0.188047
0.115249 0.171009 -0.319152
0.275838 0.119143 -0.222355
0.269107 -0.00499339 0.00931909
0.0991399 -0.126101 0.235341
-0.130964 -0.170718 0.318608
-0.281627 -0.111779 0.208612
-0.261459 0.0149632 -0.0279255
-0.0826932 0.132629 -0.247523
0.0730327 0.350463 -0.202246
0.174798 0.24417 -0.140906
0.170533 -0.0102334 0.00590548
0.0628247 -0.258429 0.149135
-0.0829917 -0.349866 0.201901
-0.178466 -0.229078 0.132197
-0.165686 0.0306652 -0.0176963
-0.0524025 0.271807 -0.156855
