# vtk DataFile Version 3.0
Velocity field
ASCII
DATASET STRUCTURED_POINTS
DIMENSIONS 10 10 10
SPACING 0.631579 0.631579 0.631579
ORIGIN 0 0 0
POINT_DATA 1000
VECTORS velocity float
0 0.740886 0
0 0.597967 0
0 0.224347 0
0 -0.235828 0
0 -0.605018 0
0 -0.740788 0
0 -0.590757 0
0 -0.212807 0
0 0.247245 0
0 0.611908 0
0 0.455047 0.580354
0 0.367267 0.486767
0 0.137792 0.182627
0 -0.144844 -0.191973
0 -0.371598 -0.492508
0 -0.454986 -0.603029
0 -0.362838 -0.480898
0 -0.130704 -0.173233
0 0.151856 0.201267
0 0.37583 0.479322
0 -0.00635303 0.936803
0 -0.00512751 0.785737
0 -0.00192375 0.294795
0 0.0020222 -0.309881
0 0.00518797 -0.795002
0 0.00635219 -0.973405
0 0.00506568 -0.776262
0 0.0018248 -0.279631
0 -0.00212011 0.324884
0 -0.00524706 0.773718
0 -0.465302 0.931826
0 -0.375544 0.781563
0 -0.140898 0.293229
0 0.148108 -0.308234
0 0.379972 -0.790778
0 0.46524 -0.968235
0 0.371015 -0.772138
0 0.13365 -0.278146
0 -0.155279 0.323158
0 -0.384299 0.769608
0 -0.744734 0.567344
0 -0.601072 0.475856
0 -0.225512 0.178533
0 0.237052 -0.187669
0 0.60816 -0.481467
0 0.744635 -0.589511
0 0.593824 -0.470118
0 0.213912 -0.169349
0 -0.248529 0.196755
0 -0.615086 0.468578
0 -0.736842 -0.0160233
0 -0.594702 -0.0134394
0 -0.223122 -0.00504225
0 0.23454 0.00530028
0 0.601715 0.0135979
0 0.736744 0.0166494
0 0.587532 0.0132774
0 0.211645 0.00478288
0 -0.245896 -0.0055569
0 -0.608568 -0.0132339
0 -0.444671 -0.593209
0 -0.358892 -0.49755
0 -0.13465 -0.186672
0 0.141541 0.196225
0 0.363125 0.503417
0 0.444612 0.616387
0 0.354565 0.49155
0 0.127724 0.17707
0 -0.148394 -0.205725
0 -0.36726 -0.48994
0 0.0190576 -0.94153
0 0.0153813 -0.789702
0 0.00577081 -0.296283
0 -0.00606612 0.311444
0 -0.0155627 0.799014
0 -0.0190551 0.978318
0 -0.0151958 0.78018
0 -0.00547396 0.281042
0 0.00635982 -0.326523
0 0.0157399 -0.777623
0 0.475433 -0.926602
0 0.38372 -0.777181
0 0.143965 -0.291585
0 -0.151333 0.306506
0 -0.388245 0.786345
0 -0.47537 0.962806
0 -0.379094 0.76781
0 -0.13656 0.276586
0 0.158659 -0.321346
0 0.392667 -0.765294
0 0.748384 -0.554184
0 0.604018 -0.44728
0 0.226617 -0.167812
0 -0.238214 0.176399
0 -0.61114 0.452554
0 -0.748284 0.55411
0 -0.596735 0.441887
0 -0.21496 0.15918
0 0.249747 -0.18494
0 0.6181 -0.457708
0 0.597967 0
0 0.507723 0
0 0.190489 0
0 -0.200237 0
0 -0.51371 0
0 -0.62899 0
0 -0.501601 0
0 -0.18069 0
0 0.209932 0
0 0.493869 0
0.0843827 0.367267 0.642289
0.235937 0.315691 0.553155
0.290856 0.11874 0.208093
0.233353 -0.124841 -0.218788
0.0858158 -0.32028 -0.561301
-0.09483 -0.392152 -0.687261
-0.238889 -0.312731 -0.54807
-0.290779 -0.112673 -0.197465
-0.230298 0.130184 0.228068
-0.0759186 0.303331 0.530475
0.13621 -0.00512751 1.03678
0.380849 -0.00439006 0.892899
0.469496 -0.00165112 0.335902
0.376677 0.00173597 -0.353166
0.138523 0.00445364 -0.906046
-0.153074 0.00545301 -1.10937
-0.385613 0.00434863 -0.884691
-0.469373 0.00156677 -0.318747
-0.371746 -0.00181047 0.368145
-0.122547 -0.00423488 0.856289
0.135486 -0.375544 1.03127
0.378826 -0.322627 0.888156
0.467002 -0.121355 0.334117
0.374676 0.127592 -0.35129
0.137787 0.327337 -0.901233
-0.152261 0.400793 -1.10348
-0.383565 0.319621 -0.879991
-0.466879 0.115156 -0.317054
-0.369771 -0.133036 0.366189
-0.121896 -0.310166 0.85174
0.0824911 -0.601072 0.627891
0.230649 -0.516378 0.540755
0.284336 -0.194234 0.203428
0.228122 0.204216 -0.213884
0.083892 0.523915 -0.548717
-0.0927044 0.641485 -0.671854
-0.233534 0.511567 -0.535784
-0.284261 0.184312 -0.193039
-0.225135 -0.212931 0.222955
-0.0742168 -0.496434 0.518584
-0.00232977 -0.594702 -0.0177333
-0.00651413 -0.510906 -0.0152724
-0.00803035 -0.192176 -0.00574534
-0.00644274 0.202052 0.00604062
-0.00236934 0.518364 0.0154973
0.00261819 0.634687 0.0189749
0.00659562 0.506146 0.015132
0.00802823 0.182359 0.00545192
0.00635844 -0.210674 -0.00629684
0.00209608 -0.491173 -0.0146462
-0.0862518 -0.358892 -0.656516
-0.241164 -0.308324 -0.565408
-0.297297 -0.115975 -0.212701
-0.238521 0.121935 0.223634
-0.0877166 0.312823 0.573735
0.0969302 0.383024 0.702482
0.244181 0.305451 0.560211
0.297219 0.11005 0.201839
0.235399 -0.127138 -0.23312
0.0776003 -0.296414 -0.542225
-0.136897 0.0153813 -1.04201
-0.382756 0.013185 -0.897373
-0.471847 0.00495867 -0.337584
-0.378563 -0.00521339 0.354935
-0.139217 -0.013375 0.910586
0.15384 -0.0163764 1.11493
0.387544 -0.0130597 0.889122
0.471723 -0.00470522 0.320343
0.373607 0.00543779 -0.369991
0.123166 0.0127036 -0.86061
-0.134727 0.38372 -1.02549
-0.376176 0.328567 -0.88203
-0.463723 0.123565 -0.331786
-0.372045 -0.129912 0.348836
-0.13682 -0.333289 0.894939
0.151191 -0.408082 1.09577
0.380872 -0.325434 0.873845
0.463601 -0.117248 0.314837
0.367183 0.135515 -0.363695
0.121213 0.31692 -0.846965
-0.0805776 0.604018 -0.613326
-0.210645 0.4875 -0.495013
-0.259445 0.182902 -0.185721
-0.208148 -0.192262 0.195224
-0.0765466 -0.493249 0.50085
0.0845872 -0.603937 0.613244
0.213087 -0.481622 0.489044
0.259376 -0.173494 0.176167
0.205596 0.20157 -0.204676
0.0724953 0.498867 -0.506554
0 0.224347 0
0 0.190489 0
0 0.0714682 0
0 -0.0751255 0
0 -0.192735 0
0 -0.235986 0
0 -0.188192 0
0 -0.067792 0
0 0.0787627 0
0 0.185291 0
0.13621 0.137792 0.456424
0.380849 0.11874 0.393202
0.469496 0.0446683 0.147927
0.376677 -0.0469638 -0.155531
0.138523 -0.120486 -0.399016
-0.153074 -0.147524 -0.488558
-0.385613 -0.117646 -0.389611
-0.469373 -0.0423867 -0.140375
-0.371746 0.048958 0.162108
-0.122547 0.113804 0.376967
0.219869 -0.00192375 0.736755
0.614764 -0.00165111 0.634703
0.757859 -0.000621089 0.238783
0.608029 0.000653009 -0.251058
0.223603 0.0016753 -0.644089
-0.24709 0.00205126 -0.788627
-0.622453 0.00163582 -0.628907
-0.757658 0.00058937 -0.226592
-0.600068 -0.000680816 0.261674
-0.197815 -0.00158885 0.608497
0.218701 -0.140898 0.732842
0.611499 -0.121355 0.631331
0.753832 -0.0456548 0.237515
0.604799 0.0480015 -0.249725
0.222415 0.123148 -0.640667
-0.245778 0.150783 -0.784437
-0.619147 0.120245 -0.625566
-0.753633 0.0433236 -0.225388
-0.59688 -0.0500328 0.260284
-0.196764 -0.116369 0.605264
0.133157 -0.225512 0.446192
0.372312 -0.194234 0.384388
0.458973 -0.0730723 0.144612
0.368234 0.0768285 -0.152045
0.135418 0.197103 -0.390071
-0.149642 0.241335 -0.477607
-0.37697 0.192458 -0.380878
-0.458851 0.0693415 -0.137228
-0.363412 -0.0800797 0.158474
-0.1198 -0.186253 0.368516
-0.00376069 -0.223122 -0.0126017
-0.010515 -0.192176 -0.0108561
-0.0129625 -0.0722979 -0.00408422
-0.0103998 0.0760144 0.00429416
-0.00382456 0.195015 0.0110167
0.00422629 0.238778 0.0134889
0.0106466 0.190418 0.010757
0.0129591 0.0686066 0.00387568
0.0102638 -0.0792313 -0.00447575
0.00338348 -0.18428 -0.0104079
-0.139227 -0.13465 -0.466534
-0.389284 -0.115975 -0.401911
-0.479895 -0.0436306 -0.151204
-0.385019 0.0458735 0.158977
-0.141592 0.117688 0.407855
0.156464 0.144099 0.49938
0.394154 0.114914 0.398241
0.479769 0.041403 0.143484
0.379979 -0.0478148 -0.165699
0.125262 -0.11121 -0.385317
-0.220978 0.00577081 -0.740473
-0.617842 0.00495867 -0.637883
-0.761653 0.00186516 -0.239979
-0.611074 -0.00196099 0.252316
-0.224723 -0.00503092 0.647316
0.248328 -0.00615991 0.792577
0.62557 -0.00491234 0.632056
0.761452 -0.00176986 0.227727
0.603074 0.00204477 -0.262986
0.198813 0.00476619 -0.611567
-0.217475 0.143965 -0.728733
-0.60722 0.123565 -0.62696
-0.748539 0.0464759 -0.235851
-0.600552 -0.0488639 0.247973
-0.220853 -0.12536 0.636174
0.244052 -0.153492 0.778935
0.614799 -0.122406 0.621179
0.748341 -0.0441012 0.223806
0.592704 0.0509557 -0.258505
0.195661 0.118903 -0.601871
-0.130068 0.226617 -0.435842
-0.340022 0.182902 -0.351767
-0.418794 0.0686217 -0.131977
-0.335991 -0.0721333 0.138731
-0.123561 -0.185059 0.355915
0.13654 -0.226587 0.435784
0.343963 -0.180696 0.347525
0.418682 -0.0650919 0.125188
0.331871 0.0756257 -0.145447
0.117021 0.187166 -0.359968
0 -0.235828 0
0 -0.200237 0
0 -0.0751255 0
0 0.0789699 0
0 0.202598 0
0 0.248062 0
0 0.197822 0
0 0.0712611 0
0 -0.0827933 0
0 -0.194773 0
0.135486 -0.144844 0.0944669
0.378826 -0.124841 0.0813814
0.467002 -0.0469638 0.0306167
0.374676 0.0493777 -0.0321905
0.137787 0.126679 -0.0825851
-0.152261 0.155106 -0.101117
-0.383565 0.123693 -0.0806381
-0.466879 0.0445655 -0.0290535
-0.369771 -0.0514726 0.0335517
-0.121896 -0.119628 0.0780216
0.218701 0.0020222 0.152488
0.611499 0.00173597 0.131365
0.753832 0.000653009 0.0494212
0.604799 -0.000686575 -0.0519618
0.222415 -0.00176139 -0.133308
-0.245778 -0.00215669 -0.163223
-0.619147 -0.0017199 -0.130165
-0.753633 -0.000619658 -0.046898
-0.59688 0.000715789 0.0541588
-0.196764 0.00167016 0.125942
0.217539 0.148108 0.151678
0.60825 0.127592 0.130667
0.749828 0.0480015 0.0491586
0.601586 -0.0504691 -0.0516858
0.221234 -0.129478 -0.1326
-0.244472 -0.158534 -0.162356
-0.615859 -0.126427 -0.129474
-0.74963 -0.0455508 -0.0466489
-0.59371 0.0526033 0.0538712
-0.195719 0.122324 0.125273
0.132449 0.237052 0.0923493
0.370334 0.204216 0.0795569
0.456534 0.0768285 0.0299304
0.366277 -0.0807779 -0.031469
0.134699 -0.207236 -0.0807335
-0.148847 -0.253741 -0.0988506
-0.374967 -0.202351 -0.0788305
-0.456414 -0.0729061 -0.0284022
-0.361481 0.0841935 0.0327995
-0.119164 0.195785 0.0762726
-0.00374072 0.23454 -0.00260819
-0.0104592 0.202052 -0.00224691
-0.0128937 0.0760144 -0.000845313
-0.0103446 -0.0799218 0.000888766
-0.00380426 -0.20504 0.00228013
0.00420384 -0.251052 0.00279182
0.01059 -0.200207 0.0022264
0.0128903 -0.0721335 0.000802152
0.0102092 0.0833012 -0.000926347
0.0033655 0.19371 -0.00215414
-0.138487 0.141541 -0.0965595
-0.387216 0.121935 -0.0831839
-0.477346 0.0458735 -0.0312948
-0.382974 -0.0482315 0.0329035
-0.14084 -0.123738 0.0844139
0.155633 -0.151506 0.103357
0.39206 -0.120822 0.0824245
0.47722 -0.0435313 0.029697
0.377961 0.0502709 -0.0342949
0.124596 0.1169 -0.0797498
-0.219805 -0.00606612 -0.153257
-0.61456 -0.00521339 -0.132023
-0.757607 -0.00196099 -0.0496687
-0.607828 0.00206176 0.0522221
-0.223529 0.00528945 0.133975
0.247009 0.00647644 0.164041
0.622247 0.00516477 0.130817
0.757407 0.00186081 0.0471329
0.59987 -0.00214979 -0.0544303
0.197757 -0.00501009 -0.126577
-0.21632 -0.151333 -0.150827
-0.603995 -0.129912 -0.129763
-0.744562 -0.0488639 -0.0488143
-0.597361 0.0513747 0.0513232
-0.21968 0.131802 0.13167
0.242755 0.161379 0.161217
0.611534 0.128695 0.128566
0.744366 0.0463673 0.0463214
0.589556 -0.0535724 -0.0535032
0.194622 -0.124988 -0.12457
-0.129377 -0.238214 -0.0902072
-0.338216 -0.192262 -0.0728059
-0.416569 -0.0721333 -0.0273155
-0.334206 0.0758246 0.0287134
-0.122905 0.194529 0.0736644
0.135815 0.238182 0.0901952
0.342136 0.189943 0.071928
0.416458 0.0684228 0.0259105
0.330108 -0.0794957 -0.0301035
0.1164 -0.196744 -0.0745034
0 -0.605018 0
0 -0.51371 0
0 -0.192735 0
0 0.202598 0
0 0.519767 0
0 0.636407 0
0 0.507516 0
0 0.182821 0
0 -0.212407 0
0 -0.499693 0
0.0824911 -0.371598 -0.303936
0.230649 -0.32028 -0.261833
0.284336 -0.120486 -0.098505
0.228122 0.126679 0.103569
0.083892 0.324993 0.265705
-0.0927044 0.397924 0.325332
-0.233534 0.317333 0.259442
-0.284261 0.114333 0.0934758
-0.225135 -0.132053 -0.107948
-0.0742168 -0.306907 -0.251025
0.133157 0.00518797 -0.490611
0.372312 0.00445364 -0.42265
0.458973 0.0016753 -0.159006
0.368234 -0.00176139 0.16718
0.135418 -0.00451891 0.4289
-0.149642 -0.00553301 0.525147
-0.37697 -0.0044124 0.418791
-0.458851 -0.00158973 0.150888
-0.363412 0.00183635 -0.174249
-0.1198 0.00428482 -0.405202
0.132449 0.379972 -0.488004
0.370334 0.327337 -0.420405
0.456534 0.123148 -0.158161
0.366277 -0.129478 0.166292
0.134699 -0.332178 0.426622
-0.148847 -0.40672 0.522357
-0.374967 -0.324347 0.416566
-0.456414 -0.116861 0.150086
-0.361481 0.134953 -0.173324
-0.119164 0.313824 -0.40305
0.0806419 0.60816 -0.297123
0.225478 0.523915 -0.255964
0.277962 0.197103 -0.0962968
0.223008 -0.207236 0.101247
0.0820117 -0.531663 0.259749
-0.0906261 -0.650973 0.318038
-0.2283 -0.519131 0.253627
-0.277889 -0.18704 0.0913804
-0.220089 0.215999 -0.105529
-0.0725531 0.502288 -0.245398
-0.00227754 0.601715 0.00839153
-0.00636811 0.518364 0.00722908
-0.00785034 0.195015 0.00271969
-0.00629835 -0.20504 -0.00285948
-0.0023162 -0.526029 -0.007336
0.00255954 -0.644073 -0.00898229
0.00644775 -0.51363 -0.00716308
0.00784827 -0.185059 -0.00258083
0.00621589 0.21371 0.00298039
0.00204909 0.496965 0.00693068
-0.0843183 0.363125 0.310668
-0.235757 0.312823 0.267633
-0.290634 0.117688 0.100687
-0.233175 -0.123738 -0.105863
-0.0857503 -0.31745 -0.271591
0.0947576 -0.388687 -0.332538
0.238707 -0.309967 -0.265189
0.290557 -0.11168 -0.0955462
0.230122 0.12897 0.110339
0.0758608 0.29991 0.256585
-0.133828 -0.0155627 0.493087
-0.374176 -0.013375 0.424768
-0.461271 -0.00503092 0.159802
-0.370078 0.00528945 -0.168017
-0.136096 0.01357 -0.431048
0.150392 0.0166153 -0.527777
0.378857 0.0132503 -0.420888
0.461149 0.0047739 -0.151643
0.365233 -0.00551529 0.175123
0.120405 -0.0128534 0.407247
-0.131707 -0.388245 0.485269
-0.367743 -0.333289 0.417494
-0.453328 -0.12536 0.157053
-0.363705 0.131802 -0.165126
-0.133752 0.338137 -0.42363
0.147802 0.414018 -0.518695
0.372334 0.330168 -0.413645
0.453208 0.118955 -0.149033
0.358952 -0.13744 0.172139
0.118496 -0.320657 0.40079
-0.0787713 -0.61114 0.29023
-0.205923 -0.493249 0.234244
-0.253629 -0.185059 0.0878843
-0.203482 0.194529 -0.0923816
-0.0748307 0.499065 -0.237006
0.082691 0.611059 -0.290192
0.20831 0.487302 -0.231419
0.253561 0.175539 -0.0833637
0.200987 -0.203947 0.0968544
0.0708702 -0.504749 0.239705
0 -0.740788 0
0 -0.62899 0
0 -0.235986 0
0 0.248062 0
0 0.636407 0
0 0.779221 0
0 0.621405 0
0 0.223847 0
0 -0.260073 0
0 -0.611827 0
-0.00232977 -0.454986 -0.585078
-0.00651413 -0.392152 -0.504031
-0.00803035 -0.147524 -0.189623
-0.00644274 0.155106 0.19937
-0.00236934 0.397924 0.511485
0.00261819 0.48722 0.626264
0.00659562 0.388544 0.499429
0.00802823 0.139989 0.179941
0.00635844 -0.161687 -0.207801
0.00209608 -0.37578 -0.483224
-0.00376069 0.00635219 -0.944428
-0.010515 0.005453 -0.813603
-0.0129625 0.00205126 -0.306087
-0.0103998 -0.00215669 0.321822
-0.00382456 -0.00553301 0.825635
0.00422629 -0.00677462 1.01091
0.0106466 -0.00540256 0.806174
0.0129591 -0.00194649 0.29046
0.0102638 0.00224846 -0.33543
0.00338348 0.00524636 -0.780016
-0.00374072 0.46524 -0.939411
-0.0104592 0.400793 -0.809281
-0.0128937 0.150783 -0.304462
-0.0103446 -0.158534 0.320112
-0.00380426 -0.40672 0.821249
0.00420384 -0.497991 1.00554
0.01059 -0.397133 0.80189
0.0128903 -0.143085 0.288917
0.0102092 0.165238 -0.333648
0.0033655 0.384248 -0.775873
-0.00227754 0.744635 -0.571962
-0.00636811 0.641485 -0.492732
-0.00785034 0.241335 -0.185372
-0.00629835 -0.253741 0.194901
-0.0023162 -0.650973 0.500019
0.00255954 -0.797054 0.612227
0.00644775 -0.635628 0.488233
0.00784827 -0.229013 0.175908
0.0062159 0.26447 -0.203142
0.00204909 0.615004 -0.472392
6.43239e-05 0.736744 0.0161537
0.00017985 0.634687 0.0139161
0.000221719 0.238778 0.00523536
0.000177883 -0.251052 -0.00550455
6.54169e-05 -0.644073 -0.0141218
-7.22858e-05 -0.788607 -0.0172909
-0.000182106 -0.628892 -0.0137891
-0.000221661 -0.226586 -0.0049681
-0.000175553 0.261667 0.00573728
-5.78719e-05 0.608487 0.0133416
0.00238137 0.444612 0.598037
0.0066584 0.383024 0.515195
0.00820826 0.144099 0.193822
0.00658547 -0.151506 -0.203786
0.00242181 -0.388687 -0.522812
-0.0026762 -0.475912 -0.640136
-0.00674174 -0.379527 -0.510491
-0.00820609 -0.136741 -0.183927
-0.00649926 0.157912 0.212404
-0.00214251 0.367211 0.493928
0.00377967 -0.0190551 0.949194
0.0105677 -0.0163764 0.81768
0.0130275 -0.0061599 0.30762
0.0104519 0.00647644 -0.323434
0.00384371 0.0166153 -0.82977
-0.00424745 0.0203439 -1.01598
-0.0106999 0.0162236 -0.810212
-0.013024 0.0058452 -0.291915
-0.0103151 -0.00675294 0.337112
-0.00340055 -0.0157378 0.783953
0.00371975 -0.47537 0.934144
0.010386 -0.408082 0.803677
0.0128032 -0.153492 0.302329
0.010272 0.161379 -0.317867
0.00377755 0.414018 -0.815489
-0.00417431 0.506926 -0.99849
-0.0105156 0.40426 -0.796267
-0.0127998 0.14565 -0.286889
-0.0101378 -0.168282 0.331367
-0.00334664 -0.392615 0.771523
0.00222471 -0.748284 0.558695
0.00581583 -0.603937 0.450921
0.00716315 -0.226587 0.169178
0.00574688 0.238182 -0.177835
0.00211342 0.611059 -0.456238
-0.00233542 0.748185 -0.558621
-0.00588323 0.596655 -0.445483
-0.00716125 0.214932 -0.160475
-0.00567641 -0.249714 0.186445
-0.00200156 -0.618018 0.461434
0 -0.590757 0
0 -0.501601 0
0 -0.188192 0
0 0.197822 0
0 0.507516 0
0 0.621405 0
0 0.495552 0
0 0.178512 0
0 -0.2074 0
0 -0.487914 0
-0.0862518 -0.362838 -0.640492
-0.241164 -0.312731 -0.551769
-0.297297 -0.117646 -0.207583
-0.238521 0.123693 0.218254
-0.0877166 0.317333 0.559931
0.0969302 0.388544 0.685581
0.24418 0.309853 0.546731
0.297219 0.111638 0.196984
0.235399 -0.12894 -0.227483
0.0776003 -0.299673 -0.528992
-0.139227 0.00506568 -1.03388
-0.389284 0.00434863 -0.890662
-0.479895 0.00163582 -0.335078
-0.385019 -0.0017199 0.352303
-0.141592 -0.0044124 0.903834
0.156464 -0.00540256 1.10666
0.394154 -0.00430839 0.882529
0.479769 -0.00155228 0.31797
0.379979 0.00179307 -0.3672
0.125262 0.00418382 -0.853894
-0.138487 0.371015 -1.02839
-0.387216 0.31962 -0.88593
-0.477346 0.120245 -0.333298
-0.382975 -0.126427 0.350432
-0.14084 -0.324348 0.899032
0.155633 -0.397133 1.10078
0.39206 -0.316702 0.877841
0.47722 -0.114106 0.316281
0.377961 0.131772 -0.365249
0.124596 0.306427 -0.849358
-0.0843183 0.593824 -0.626135
-0.235757 0.511567 -0.5394
-0.290634 0.192458 -0.202929
-0.233175 -0.202351 0.213361
-0.0857503 -0.519131 0.547377
0.0947576 -0.635628 0.670213
0.238707 -0.506896 0.534475
0.290557 -0.182632 0.192568
0.230122 0.210908 -0.222383
0.0758608 0.490448 -0.517133
0.00238137 0.587532 0.0176837
0.0066584 0.506146 0.0152342
0.00820826 0.190418 0.00573125
0.00658547 -0.200207 -0.00602588
0.00242181 -0.51363 -0.0154594
-0.0026762 -0.628892 -0.0189286
-0.00674174 -0.501524 -0.0150951
-0.00820609 -0.180696 -0.00543866
-0.00649925 0.208673 0.00628068
-0.00214251 0.48525 0.0146052
0.0881623 0.354565 0.65468
0.246505 0.305451 0.563993
0.303883 0.114914 0.21218
0.243805 -0.120822 -0.223088
0.0896594 -0.309967 -0.572333
-0.0990772 -0.379527 -0.700766
-0.249589 -0.302662 -0.558843
-0.303802 -0.109047 -0.201347
-0.240613 0.125931 0.232521
-0.0793192 0.29284 0.540709
0.13993 -0.0151958 1.0391
0.391234 -0.0130597 0.895125
0.482299 -0.00491234 0.336756
0.386947 0.00516477 -0.354068
0.142301 0.0132503 -0.908361
-0.157248 0.0162236 -1.1122
-0.396128 0.0129379 -0.886949
-0.482172 0.00466138 -0.319562
-0.381882 -0.00538526 0.369041
-0.125894 -0.0125505 0.858203
0.137711 -0.379094 1.02262
0.384507 -0.325434 0.879796
0.473994 -0.122406 0.330964
0.380286 0.128695 -0.347974
0.13985 0.330168 -0.892727
-0.15454 0.40426 -1.09306
-0.389307 0.322385 -0.871684
-0.473869 0.116151 -0.314061
-0.375316 -0.1342 0.362752
-0.123898 -0.313099 0.844596
0.0823625 -0.596735 0.611611
0.215311 -0.481622 0.493629
0.265191 -0.180696 0.185201
0.212759 0.189943 -0.194678
0.0782422 0.487302 -0.49945
-0.0864608 0.596655 -0.61153
-0.217807 0.475815 -0.487677
-0.265121 0.171402 -0.175675
-0.21015 -0.19914 0.204104
-0.0741011 -0.492851 0.505138
0 -0.212807 0
0 -0.18069 0
0 -0.067792 0
0 0.0712611 0
0 0.182821 0
0 0.223847 0
0 0.178512 0
0 0.0643048 0
0 -0.0747113 0
0 -0.17576 0
-0.136897 -0.130704 -0.4488
-0.382756 -0.112673 -0.386647
-0.471847 -0.0423868 -0.145462
-0.378563 0.0445656 0.15294
-0.139217 0.114333 0.392366
0.15384 0.13999 0.480416
0.387544 0.111638 0.383118
0.471723 0.0402221 0.138035
0.373607 -0.046455 -0.159405
0.123166 -0.107951 -0.37067
-0.220978 0.0018248 -0.72445
-0.617842 0.00156677 -0.624122
-0.761653 0.000589371 -0.234803
-0.611074 -0.00061966 0.246874
-0.224723 -0.00158974 0.633353
0.248328 -0.00194649 0.775483
0.62557 -0.00155229 0.618426
0.761452 -0.000559282 0.222816
0.603074 0.000646016 -0.257311
0.198813 0.00150713 -0.598333
-0.219805 0.13365 -0.720601
-0.61456 0.115156 -0.620806
-0.757607 0.0433237 -0.233556
-0.607828 -0.0455509 0.245562
-0.223529 -0.116861 0.629989
0.247009 -0.143085 0.771363
0.622247 -0.114106 0.615141
0.757407 -0.041112 0.221632
0.59987 0.0474757 -0.255944
0.197757 0.110383 -0.595155
-0.133828 0.213912 -0.43874
-0.374176 0.184313 -0.37798
-0.461271 0.0693416 -0.142201
-0.370078 -0.0729063 0.149511
-0.136096 -0.187041 0.383571
0.150392 -0.229014 0.469647
0.378857 -0.182632 0.37453
0.461149 -0.0658012 0.134941
0.365233 0.0759869 -0.155832
0.120405 0.176673 -0.362361
0.00377967 0.211645 0.0123912
0.0105677 0.182359 0.0106752
0.0130275 0.0686067 0.00401613
0.0104519 -0.0721337 -0.00422258
0.00384371 -0.185059 -0.010833
-0.00424745 -0.226587 -0.013264
-0.0106999 -0.180697 -0.0105777
-0.013024 -0.0651039 -0.0038111
-0.0103151 0.0751816 0.00440113
-0.00340055 0.174801 0.010234
0.13993 0.127724 0.458741
0.391234 0.110051 0.395211
0.482299 0.0414031 0.148684
0.386947 -0.0435314 -0.156327
0.142301 -0.11168 -0.401057
-0.157248 -0.136741 -0.491057
-0.396128 -0.109047 -0.391603
-0.482172 -0.0392892 -0.141093
-0.381882 0.0453707 0.162936
-0.125894 0.105489 0.378881
0.222094 -0.00547396 0.728106
0.620936 -0.00470523 0.627249
0.765467 -0.00176987 0.23598
0.614133 0.00186081 -0.24811
0.225848 0.00477392 -0.636526
-0.249572 0.00584522 -0.779366
-0.628703 0.00466139 -0.621522
-0.765265 0.00167944 -0.223931
-0.606095 -0.0019402 0.258601
-0.199816 -0.00452102 0.601353
0.218572 -0.13656 0.716562
0.610262 -0.117248 0.616508
0.752289 -0.0441013 0.23192
0.60356 0.0463674 -0.24384
0.221959 0.118955 -0.62557
-0.245274 0.14565 -0.765954
-0.617878 0.116152 -0.610827
-0.75209 0.041848 -0.220075
-0.595673 -0.0483496 0.254194
-0.196648 -0.112787 0.591818
0.130724 -0.21496 0.428563
0.341738 -0.173494 0.345891
0.420907 -0.0650919 0.129773
0.337687 0.0684228 -0.136413
0.124185 0.175539 -0.34997
-0.137229 0.214932 -0.428506
-0.345699 0.171402 -0.341721
-0.420795 0.0617436 -0.123097
-0.333546 -0.0717356 0.143018
-0.117612 -0.177539 0.353956
0 0.247245 0
0 0.209932 0
0 0.0787627 0
0 -0.0827933 0
0 -0.212407 0
0 -0.260073 0
0 -0.2074 0
0 -0.0747113 0
0 0.0868018 0
0 0.204203 0
-0.134727 0.151856 -0.083958
-0.376176 0.130178 -0.0729303
-0.463723 0.0489556 -0.0274512
-0.372045 -0.0514701 0.0288638
-0.13682 -0.132047 0.0740498
0.151191 -0.161679 0.0906672
0.380872 -0.128934 0.0723046
0.463601 -0.0464526 0.026052
0.367183 0.0536922 -0.0300508
0.121213 0.12542 -0.069342
-0.217475 -0.00212011 -0.135524
-0.60722 -0.00181037 -0.117723
-0.748539 -0.000680779 -0.0443115
-0.600552 0.000715746 0.0465917
-0.220853 0.00183624 0.119531
0.244052 0.00224832 0.146354
0.614799 0.00179297 0.116713
0.748341 0.000645976 0.0420529
0.592704 -0.00074675 -0.0485079
0.195661 -0.00175102 -0.111931
-0.21632 -0.155279 -0.134804
-0.603995 -0.13303 -0.117098
-0.744562 -0.0500302 -0.044076
-0.597361 0.0526005 0.0463443
-0.21968 0.134946 0.118896
0.242755 0.165229 0.145577
0.611534 0.131765 0.116094
0.744366 0.0474731 0.0418296
0.589556 -0.0548657 -0.0482502
0.194622 -0.128247 -0.111337
-0.131707 -0.248529 -0.0820759
-0.367743 -0.21292 -0.0712955
-0.453328 -0.0800755 -0.0268358
-0.363705 0.084189 0.0282167
-0.133752 0.215987 0.0723901
0.147802 0.264456 0.0886348
0.372334 0.210897 0.070684
0.453208 0.0759827 0.025468
0.358952 -0.0878145 -0.0293772
0.118496 -0.205264 -0.0677876
0.00371975 -0.245896 0.00231804
0.010386 -0.210664 0.00201357
0.0128032 -0.0792271 0.000757914
0.010272 0.0832969 -0.000796915
0.00377755 0.213699 -0.00204448
-0.0041743 0.261653 -0.00250328
-0.0105156 0.208662 -0.00199629
-0.0127998 0.0751775 -0.000719284
-0.0101378 -0.0868837 0.000829693
-0.00334664 -0.203089 0.0019145
0.137711 -0.148394 0.0858177
0.384507 -0.127132 0.0745455
0.473994 -0.0478123 0.0280592
0.380286 0.0502682 -0.0295031
0.13985 0.128963 -0.07569
-0.15454 0.157904 -0.0926755
-0.389307 0.125924 -0.0739059
-0.473869 0.0453682 -0.0266291
-0.375316 -0.0524329 0.0307165
-0.123898 -0.12256 0.070878
0.218572 0.00635982 0.136208
0.610262 0.00543752 0.118312
0.752289 0.00204467 0.044533
0.60356 -0.00214968 -0.0468246
0.221959 -0.00551501 -0.120128
-0.245274 -0.0067526 -0.147086
-0.617878 -0.00538499 -0.117297
-0.75209 -0.0019401 -0.0422631
-0.595673 0.00224299 0.0487507
-0.196648 0.00525266 0.112496
0.215107 0.158659 0.134049
0.599795 0.135508 0.116259
0.739365 0.0509531 0.0437557
0.593192 -0.0535697 -0.0460069
0.218146 -0.137433 -0.118031
-0.241061 -0.168274 -0.144518
-0.607266 -0.134193 -0.115249
-0.73917 -0.0483471 -0.0415248
-0.585454 0.0558992 0.0479094
-0.19353 0.131039 0.110713
0.128652 0.249747 0.0801721
0.33632 0.20157 0.0647066
0.414233 0.0756257 0.0242768
0.332333 -0.0794957 -0.0255191
0.122216 -0.203947 -0.0654696
-0.135053 -0.249714 -0.0801614
-0.340217 -0.19914 -0.0639264
-0.414123 -0.0717356 -0.023028
-0.328257 0.0833446 0.0267547
-0.115747 0.20627 0.0662152
0 0.611908 0
0 0.493869 0
0 0.185291 0
0 -0.194773 0
0 -0.499693 0
0 -0.611827 0
0 -0.487914 0
0 -0.17576 0
0 0.204203 0
0 0.505384 0
-0.0805776 0.37583 0.313276
-0.210645 0.303331 0.252844
-0.259445 0.113805 0.0948629
-0.208148 -0.119628 -0.0997173
-0.0765466 -0.306908 -0.255826
0.0845872 -0.37578 -0.313235
0.213087 -0.299673 -0.249795
0.259376 -0.107951 -0.0899832
0.205596 0.12542 0.104545
0.0724953 0.310403 0.258739
-0.130068 -0.00524706 0.505688
-0.340022 -0.00423488 0.408139
-0.418794 -0.00158885 0.153127
-0.335991 0.00167016 -0.160963
-0.123561 0.00428482 -0.412952
0.13654 0.00524636 -0.505621
0.343963 0.00418382 -0.403218
0.418682 0.00150713 -0.14525
0.331871 -0.00175102 0.168756
0.117021 -0.00433362 0.417655
-0.129377 -0.384299 0.503002
-0.338216 -0.310167 0.405971
-0.416569 -0.116369 0.152313
-0.334206 0.122324 -0.160108
-0.122905 0.313824 -0.410758
0.135815 0.384248 -0.502935
0.342136 0.306427 -0.401076
0.416458 0.110383 -0.144479
0.330108 -0.128247 0.16786
0.1164 -0.317398 0.415436
-0.0787713 -0.615086 0.306254
-0.205923 -0.496434 0.247176
-0.253629 -0.186253 0.0927364
-0.203482 0.195785 -0.097482
-0.0748307 0.502288 -0.250091
0.082691 0.615004 -0.306213
0.20831 0.490448 -0.244196
0.253561 0.176673 -0.0879661
0.200987 -0.205264 0.102202
0.0708702 -0.508008 0.252939
0.00222471 -0.608568 -0.00864942
0.00581583 -0.491173 -0.00698092
0.00716315 -0.18428 -0.00261912
0.00574688 0.19371 0.00275315
0.00211342 0.496965 0.00706324
-0.00233542 0.608487 0.00864828
-0.00588323 0.485251 0.00689674
-0.00716125 0.174801 0.0024844
-0.00567641 -0.203089 -0.00288645
-0.00200156 -0.502625 -0.00714368
0.0823625 -0.36726 -0.320216
0.215311 -0.296414 -0.258445
0.265191 -0.11121 -0.0969641
0.212759 0.116901 0.101926
0.0782422 0.29991 0.261492
-0.0864608 0.367211 0.320173
-0.217807 0.29284 0.255329
-0.265121 0.105489 0.0919764
-0.21015 -0.12256 -0.106861
-0.0741011 -0.303325 -0.264471
0.130724 0.0157399 -0.50824
0.341738 0.0127036 -0.410199
0.420907 0.00476619 -0.1539
0.337687 -0.00501009 0.161775
0.124185 -0.0128534 0.415036
-0.137229 -0.0157378 0.508173
-0.345699 -0.0125505 0.405253
-0.420795 -0.00452102 0.145983
-0.333546 0.00525266 -0.169608
-0.117612 0.0129998 -0.419763
0.128652 0.392667 -0.500182
0.33632 0.31692 -0.403695
0.414233 0.118903 -0.15146
0.332333 -0.124988 0.15921
0.122216 -0.320657 0.408456
-0.135053 -0.392615 0.500116
-0.340217 -0.313099 0.398827
-0.414123 -0.112787 0.143669
-0.328257 0.131039 -0.166919
-0.115747 0.324309 -0.413107
0.0769442 0.6181 -0.29915
0.201147 0.498867 -0.241443
0.247746 0.187166 -0.0905852
0.198762 -0.196744 0.0952208
0.0730949 -0.504749 0.24429
-0.0807729 -0.618018 0.29911
-0.203478 -0.492851 0.238532
-0.24768 -0.177539 0.0859256
-0.196325 0.20627 -0.099831
-0.0692263 0.510498 -0.247072
