# vtk DataFile Version 3.0
Velocity field
ASCII
DATASET STRUCTURED_POINTS
DIMENSIONS 8 8 8
SPACING 0.8 0.8 0.8
ORIGIN 0 0 0
POINT_DATA 512
VECTORS velocity float
0 0.263379 0
0 0.183498 0
0 -0.00769055 0
0 -0.194214 0
0 -0.26293 0
0 -0.172156 0
0 0.0230455 0
0 0.204268 0
0 0.103617 0.268818
0 0.0721906 0.198569
0 -0.00302557 -0.00832218
0 -0.0764065 -0.210165
0 -0.10344 -0.284525
0 -0.0677285 -0.186295
0 0.00906639 0.0249382
0 0.0803617 0.208486
0 -0.118998 0.374574
0 -0.0829067 0.276688
0 0.00347469 -0.0115962
0 0.0877484 -0.292847
0 0.118795 -0.39646
0 0.0777823 -0.259586
0 -0.0104122 0.0347492
0 -0.0922908 0.290507
0 -0.26943 0.253119
0 -0.187714 0.186973
0 0.00786724 -0.00783617
0 0.198676 -0.197892
0 0.268971 -0.267909
0 0.176111 -0.175416
0 -0.0235749 0.0234818
0 -0.208961 0.196311
0 -0.25643 -0.0218748
0 -0.178656 -0.0161584
0 0.00748764 0.000677209
0 0.18909 0.017102
0 0.255993 0.0231529
0 0.167614 0.0151596
0 -0.0224374 -0.00202932
0 -0.198878 -0.0169654
0 -0.0878824 -0.2836
0 -0.0612283 -0.209488
0 0.00256613 0.0087798
0 0.064804 0.221722
0 0.0877326 0.30017
0 0.0574438 0.196539
0 -0.00768964 -0.0263095
0 -0.0681586 -0.21995
0 0.133973 -0.373297
0 0.0933401 -0.275745
0 -0.00391196 0.0115567
0 -0.0987911 0.291848
0 -0.133745 0.395108
0 -0.0875708 0.258701
0 0.0117226 -0.0346307
0 0.103905 -0.289516
0 0.274563 -0.236557
0 0.19129 -0.164811
0 -0.0080171 0.00690736
0 -0.202461 0.174436
0 -0.274094 0.236154
0 -0.179466 0.154624
0 0.024024 -0.0206986
0 0.212941 -0.183466
0 0.183498 0
0 0.138801 0
0 -0.00581727 0
0 -0.146907 0
0 -0.198885 0
0 -0.130222 0
0 0.017432 0
0 0.142315 0
0.0573032 0.0721906 0.265519
0.140259 0.0515134 0.189243
0.136846 -0.00215959 -0.00793357
0.050415 -0.0545357 -0.200345
-0.0665976 -0.0738313 -0.271228
-0.143213 -0.0483417 -0.17759
-0.132949 0.00646116 0.0237374
-0.0411162 0.0559885 0.205927
0.0798471 -0.0829067 0.369978
0.19544 -0.0590465 0.263694
0.190684 0.00247533 -0.0110547
0.0702484 0.0625092 -0.279161
-0.092799 0.0846257 -0.377935
-0.199556 0.0554095 -0.247457
-0.185256 -0.00740668 0.0330759
-0.0572919 -0.0642996 0.286942
0.0539568 -0.187714 0.250013
0.132067 -0.133691 0.178192
0.128856 0.00560465 -0.00747023
0.0474705 0.141533 -0.188645
-0.0627089 0.191609 -0.25539
-0.134849 0.125458 -0.167218
-0.125187 -0.01677 0.0223511
-0.0387151 -0.145585 0.193901
-0.004663 -0.178656 -0.0216064
-0.0114135 -0.127241 -0.0153995
-0.0111358 0.00533419 0.000645581
-0.00410244 0.134703 0.0163029
0.00541933 0.182364 0.0220709
0.0116539 0.119405 0.0144512
0.0108187 -0.0159609 -0.00193161
0.00334579 -0.13856 -0.0167571
-0.0604543 -0.0612283 -0.280119
-0.147971 -0.0436077 -0.19965
-0.144372 0.00182812 0.00836978
-0.0531865 0.0461652 0.211359
0.0702599 0.0624989 0.286143
0.151088 0.0409216 0.187356
0.140261 -0.00547006 -0.0250427
0.0433771 -0.0474865 -0.217251
-0.0795748 0.0933401 -0.368716
-0.194753 0.0664556 -0.262767
-0.190013 -0.00278595 0.0110158
-0.0700014 -0.0703529 0.278179
0.0924726 -0.0952444 0.376605
0.198853 -0.0623623 0.246586
0.184604 0.0083363 -0.0329599
0.0570965 0.0723914 -0.285963
-0.0504263 0.19129 -0.233654
-0.120691 0.133273 -0.162788
-0.117746 -0.00558557 0.00682259
-0.043378 -0.141056 0.172295
0.0573026 -0.190963 0.233256
0.123224 -0.125035 0.152727
0.1144 0.0167377 -0.0204445
0.0361819 0.148358 -0.181214
0 -0.00769055 0
0 -0.00581727 0
0 0.000243806 0
0 0.00615699 0
0 0.00833543 0
0 0.00545771 0
0 -0.000730589 0
0 -0.00596453 0
0.0798471 -0.00302557 0.10116
0.19544 -0.00215959 0.0720649
0.190684 9.05371e-05 -0.00302112
0.0702484 0.00228631 -0.0762915
-0.092799 0.00309524 -0.103284
-0.199556 0.00202665 -0.0676265
-0.185256 -0.000270863 0.0090395
-0.0572919 -0.00234653 0.078456
0.11126 0.00347469 0.140957
0.272327 0.00247533 0.100416
0.265699 -0.000103771 -0.00420964
0.0978855 -0.00262051 -0.106305
-0.129308 -0.00354769 -0.143918
-0.278062 -0.0023229 -0.0942327
-0.258138 0.000310496 0.0125958
-0.0798313 0.00269485 0.109322
0.0751841 0.00786724 0.0952521
0.184026 0.00560465 0.0678559
0.179548 -0.000234959 -0.0028447
0.0661455 -0.00593338 -0.0718363
-0.0873791 -0.00803274 -0.0972532
-0.187902 -0.00525945 -0.0636778
-0.174436 0.00070302 0.00851157
-0.0539461 0.00610156 0.0738742
-0.00649748 0.00748764 -0.00823178
-0.0159038 0.00533419 -0.00586423
-0.0155167 -0.000223621 0.000245841
-0.00571642 -0.00564709 0.00620818
0.00755142 -0.00764512 0.00840465
0.0162387 -0.00500569 0.00550306
0.015075 0.000669095 -0.000735583
0.00466208 0.00580715 -0.00638428
-0.0842378 0.00256613 -0.106722
-0.206184 0.00182812 -0.0760272
-0.20117 -7.66387e-05 0.00318725
-0.074111 -0.00193535 0.0804859
0.0979017 -0.00262008 0.108964
0.210527 -0.00171552 0.0713454
0.195442 0.00022931 -0.00953655
0.0604423 0.0019902 -0.0827702
-0.110881 -0.00391196 -0.140477
-0.271369 -0.00278595 -0.100063
-0.264765 0.000116792 0.00419485
-0.0975414 0.00294934 0.105931
0.128852 0.00399287 0.143412
0.277085 0.00261436 0.0939012
0.257229 -0.000349466 -0.0125516
0.079559 -0.00303398 -0.108949
-0.0702647 -0.0080171 -0.0890196
-0.168172 -0.00558557 -0.0620205
-0.164069 0.000234096 0.00259933
-0.0604436 0.00591176 0.0656425
0.0798462 0.00800343 0.0888678
0.171702 0.00524033 0.0581871
0.159406 -0.00070149 -0.00778914
0.0504163 -0.00621779 -0.0690405
0 -0.194214 0
0 -0.146907 0
0 0.00615699 0
0 0.155486 0
0 0.2105 0
0 0.137827 0
0 -0.01845 0
0 -0.150626 0
0.0539568 -0.0764065 -0.124562
0.132067 -0.0545357 -0.0887353
0.128856 0.00228631 0.00371998
0.0474705 0.0577355 0.0939402
-0.0627089 0.0781633 0.127177
-0.134849 0.051178 0.08327
-0.125187 -0.00684007 -0.0111305
-0.0387151 -0.0592582 -0.0966057
0.0751841 0.0877484 -0.173566
0.184026 0.0625092 -0.123645
0.179548 -0.00262051 0.00518343
0.0661455 -0.0661751 0.130898
-0.0873791 -0.0895898 0.17721
-0.187902 -0.0586597 0.11603
-0.174436 0.00784092 -0.0155095
-0.0539461 0.0680546 -0.134612
0.0508057 0.198676 -0.117287
0.124356 0.141533 -0.0835527
0.12133 -0.00593338 0.00350271
0.0446984 -0.149834 0.0884537
-0.0590466 -0.202849 0.11975
-0.126975 -0.132816 0.0784074
-0.117875 0.0177533 -0.0104805
-0.0364541 0.154087 -0.090964
-0.00439068 0.18909 0.0101361
-0.0107469 0.134703 0.00722073
-0.0104854 -0.00564709 -0.000302709
-0.00386289 -0.142604 -0.00764428
0.00510282 -0.19306 -0.0103488
0.0109733 -0.126409 -0.00677602
0.0101868 0.0168966 0.000905737
0.0031504 0.146652 0.0078612
-0.0569238 0.064804 0.131411
-0.13933 0.0461652 0.0936148
-0.13594 -0.00193535 -0.00392453
-0.0500811 -0.048873 -0.0991056
0.0661565 -0.0661642 -0.134169
0.142265 -0.043322 -0.0878492
0.132069 0.00579076 0.0117426
0.040844 0.0502597 0.101918
-0.0749277 -0.0987911 0.172974
-0.18338 -0.0703529 0.12321
-0.178917 0.00294934 -0.00516521
-0.0659131 0.0744786 -0.130437
0.0870719 0.100831 -0.176587
0.187241 0.0660196 -0.115622
0.173822 -0.00882502 0.0154551
0.0537621 -0.076619 0.134153
-0.0474815 -0.202461 0.109613
-0.113643 -0.141056 0.0763682
-0.11087 0.00591176 -0.00320065
-0.0408448 0.149293 -0.080828
0.0539562 0.202116 -0.109426
0.116028 0.132337 -0.0716479
0.107719 -0.0177151 0.00959105
0.0340689 -0.157022 0.0850122
0 -0.26293 0
0 -0.198885 0
0 0.00833543 0
0 0.2105 0
0 0.284978 0
0 0.186592 0
0 -0.0249779 0
0 -0.20392 0
-0.004663 -0.10344 -0.274726
-0.0114135 -0.0738313 -0.195709
-0.0111358 0.00309524 0.00820455
-0.00410245 0.0781633 0.207186
0.00541933 0.105818 0.280493
0.0116539 0.0692856 0.183657
0.0108187 -0.00926021 -0.0245489
0.00334579 -0.0802247 -0.213068
-0.00649748 0.118795 -0.382806
-0.0159038 0.0846257 -0.272702
-0.0155167 -0.00354769 0.0114323
-0.00571642 -0.0895898 0.288698
0.00755142 -0.121288 0.390845
0.0162387 -0.0794144 0.25591
0.015075 0.0106151 -0.0342066
0.00466208 0.0921334 -0.296891
-0.00439068 0.268971 -0.258682
-0.0107469 0.191609 -0.18428
-0.0104854 -0.00803274 0.00772544
-0.00386289 -0.202849 0.195089
0.00510282 -0.274618 0.264111
0.0109733 -0.17981 0.17293
0.0101868 0.0240347 -0.0231153
0.0031504 0.208605 -0.200625
0.000379447 0.255993 0.0223555
0.000928763 0.182364 0.0159256
0.000906162 -0.00764512 -0.000667632
0.000333831 -0.19306 -0.0168596
-0.000440993 -0.261369 -0.022825
-0.000948324 -0.171132 -0.0149449
-0.000880359 0.0228749 0.00199764
-0.000272261 0.198539 0.0173382
0.00491941 0.0877326 0.289832
0.0120411 0.0624989 0.206469
0.0117482 -0.00262008 -0.00865566
0.00432802 -0.0661642 -0.218578
-0.00571737 -0.089575 -0.295916
-0.0122947 -0.05865 -0.193756
-0.0114136 0.00783962 0.0258986
-0.00352977 0.0680424 0.224784
0.00647532 -0.133745 0.381501
0.0158478 -0.0952444 0.271744
0.0154622 0.00399287 -0.0113922
0.00569633 0.100831 -0.287683
-0.00752487 0.136506 -0.389471
-0.0161815 0.0893791 -0.25501
-0.015022 -0.0119474 0.0340867
-0.00464618 -0.103728 0.295879
0.00410339 -0.274094 0.241756
0.00982112 -0.190963 0.168433
0.00958149 0.00800343 -0.00705916
0.00352985 0.202116 -0.178269
-0.00466295 0.273627 -0.241344
-0.0100273 0.17916 -0.158022
-0.00930917 -0.023983 0.0211534
-0.00294427 -0.212578 0.187498
0 -0.172156 0
0 -0.130222 0
0 0.00545771 0
0 0.137827 0
0 0.186592 0
0 0.122173 0
0 -0.0163545 0
0 -0.133518 0
-0.0604543 -0.0677285 -0.258245
-0.147971 -0.0483417 -0.183969
-0.144372 0.00202665 0.00771239
-0.0531865 0.051178 0.194759
0.0702599 0.0692856 0.263665
0.151088 0.0453657 0.172638
0.140261 -0.00606322 -0.0230762
0.0433771 -0.0525279 -0.200286
-0.0842378 0.0777823 -0.359841
-0.206184 0.0554095 -0.256344
-0.20117 -0.0023229 0.0107464
-0.074111 -0.0586597 0.271378
0.0979017 -0.0794144 0.367398
0.210527 -0.051997 0.240558
0.195442 0.00695034 -0.0321547
0.0604423 0.0603253 -0.279081
-0.0569238 0.176111 -0.243163
-0.13933 0.125458 -0.173224
-0.13594 -0.00525945 0.00726194
-0.0500811 -0.132816 0.183385
0.0661565 -0.17981 0.248269
0.142265 -0.117732 0.162555
0.132069 0.015737 -0.0217285
0.040844 0.136586 -0.188589
0.00491941 0.167614 0.0210144
0.0120411 0.119405 0.0149703
0.0117482 -0.00500569 -0.000627581
0.00432802 -0.126409 -0.0158483
-0.00571737 -0.171132 -0.0214555
-0.0122947 -0.112051 -0.0140482
-0.0114136 0.0149776 0.0018778
-0.00352977 0.129995 0.0162981
0.0637785 0.0574438 0.272445
0.156108 0.0409216 0.194084
0.15231 -0.00171552 -0.00813649
0.0561112 -0.043322 -0.205466
-0.0741232 -0.0586501 -0.278164
-0.159396 -0.0384016 -0.182132
-0.147973 0.00513305 0.0243451
-0.0457624 0.0445514 0.211299
0.0839505 -0.0875708 0.358614
0.20546 -0.0623623 0.255442
0.200462 0.00261436 -0.0107087
0.0738505 0.0660196 -0.270424
-0.0975575 0.0893791 -0.366107
-0.209787 0.0585218 -0.239712
-0.194755 -0.00782271 0.0320419
-0.0602362 -0.0679169 0.278129
0.0531992 -0.179466 0.227253
0.127328 -0.125035 0.158329
0.124221 0.00524033 -0.00663568
0.0457633 0.132337 -0.167575
-0.0604536 0.17916 -0.226865
-0.13 0.117307 -0.148542
-0.12069 -0.0157031 0.0198844
-0.0381715 -0.139188 0.17625
0 0.0230455 0
0 0.017432 0
0 -0.000730589 0
0 -0.01845 0
0 -0.0249779 0
0 -0.0163545 0
0 0.00218928 0
0 0.0178733 0
-0.0795748 0.00906639 -0.0851159
-0.194753 0.00646104 -0.060651
-0.190013 -0.000270859 0.00254263
-0.0700014 -0.00683995 0.064209
0.0924726 -0.00926004 0.0869264
0.198853 -0.00606312 0.056916
0.184604 0.000810476 -0.00760765
0.0570965 0.00703158 -0.066013
-0.110881 -0.0104122 -0.118602
-0.271369 -0.00740655 -0.0845119
-0.264765 0.00031049 0.00354294
-0.0975414 0.00784077 0.0894693
0.128852 0.0106149 0.121125
0.277085 0.00695022 0.079308
0.257229 -0.000929158 -0.0106006
0.079559 -0.00807537 -0.0919834
-0.0749277 -0.0235749 -0.0801452
-0.18338 -0.0167697 -0.0571091
-0.178917 0.000703007 0.00239415
-0.0659131 0.0177529 0.060459
0.0870719 0.0240342 0.0818499
0.187241 0.0157367 0.0535923
0.173822 -0.00210378 -0.00716334
0.0537621 -0.0182839 -0.0621579
0.00647532 -0.0224374 0.00692623
0.0158478 -0.0159606 0.00493543
0.0154622 0.000669083 -0.000206904
0.00569633 0.0168963 -0.00522491
-0.00752487 0.0228745 -0.00707357
-0.0161815 0.0149773 -0.00463149
-0.015022 -0.00200228 0.000619068
-0.00464618 -0.0174017 0.00537175
0.0839505 -0.00768964 0.0897963
0.20546 -0.00546996 0.0639862
0.200462 0.000229306 -0.00268244
0.0738505 0.00579066 -0.0677394
-0.0975576 0.00783948 -0.0917068
-0.209787 0.00513295 -0.060046
-0.194755 -0.000686211 0.00802599
-0.0602362 -0.00596382 0.0696429
0.110502 0.0117226 0.118197
0.270416 0.00833615 0.0842148
0.263835 -0.000349459 -0.00353048
0.0971986 -0.00882486 -0.0891546
-0.128399 -0.0119472 -0.120699
-0.276111 -0.00782257 -0.0790289
-0.256323 0.0010458 0.0105634
-0.0792877 0.00909161 0.0916697
0.0700251 0.024024 0.0749012
0.167599 0.0167377 0.0521842
0.16351 -0.00070149 -0.00218708
0.0602374 -0.0177151 -0.0552317
-0.0795739 -0.023983 -0.0747735
-0.171117 -0.0157031 -0.0489587
-0.158862 0.00210208 0.00655379
-0.0502444 0.0186322 0.0580908
0 0.204268 0
0 0.142315 0
0 -0.00596453 0
0 -0.150626 0
0 -0.20392 0
0 -0.133518 0
0 0.0178733 0
0 0.158423 0
-0.0504263 0.0803617 0.139643
-0.120691 0.0559886 0.0972901
-0.117746 -0.00234653 -0.00407751
-0.043378 -0.0592582 -0.102972
0.0573026 -0.0802247 -0.139405
0.123224 -0.0525279 -0.0912766
0.1144 0.00703158 0.0122186
0.0361819 0.0623258 0.108302
-0.0702647 -0.0922908 0.19458
-0.168172 -0.0642996 0.135565
-0.164069 0.00269485 -0.00568165
-0.0604435 0.0680546 -0.143482
0.0798462 0.0921334 -0.194248
0.171702 0.0603253 -0.127186
0.159406 -0.00807537 0.0170256
0.0504163 -0.0715776 0.15091
-0.0474815 -0.208961 0.131488
-0.113643 -0.145585 0.0916084
-0.11087 0.00610156 -0.00383938
-0.0408448 0.154087 -0.0969583
0.0539562 0.208605 -0.131264
0.116028 0.136586 -0.0859462
0.107719 -0.0182839 0.0115051
0.0340689 -0.162063 0.101977
0.00410339 -0.198878 -0.0113633
0.00982112 -0.13856 -0.00791689
0.00958148 0.00580715 0.000331803
0.00352985 0.146652 0.00837923
-0.00466294 0.198539 0.0113439
-0.0100273 0.129995 0.00742755
-0.00930917 -0.0174017 -0.00099428
-0.00294427 -0.154243 -0.00881299
0.0531992 -0.0681586 -0.147322
0.127328 -0.0474866 -0.10264
0.124221 0.0019902 0.00430172
0.0457633 0.0502597 0.108634
-0.0604536 0.0680424 0.14707
-0.13 0.0445514 0.0962958
-0.12069 -0.00596382 -0.0128905
-0.0381715 -0.0528615 -0.114258
0.0700251 0.103905 -0.193917
0.167599 0.0723914 -0.135103
0.16351 -0.00303398 0.00566228
0.0602374 -0.076619 0.142993
-0.0795739 -0.103728 0.193586
-0.171117 -0.0679169 0.126752
-0.158862 0.00909161 -0.0169675
-0.0502444 0.0805853 -0.150395
0.0443747 0.212941 -0.122884
0.106207 0.148358 -0.0856144
0.103616 -0.00621779 0.00358817
0.0381723 -0.157022 0.0906142
-0.0504257 -0.212578 0.122675
-0.108436 -0.139188 0.0803226
-0.100671 0.0186322 -0.0107523
-0.0318397 0.16515 -0.0953049
