# vtk DataFile Version 3.0
Velocity field
ASCII
DATASET STRUCTURED_POINTS
DIMENSIONS 8 8 8
SPACING 0.8 0.8 0.8
ORIGIN 0 0 0
POINT_DATA 512
VECTORS velocity float
0 0.435505 0
0 0.303419 0
0 -0.0127166 0
0 -0.321139 0
0 -0.434763 0
0 -0.284665 0
0 0.0381063 0
0 0.337763 0
0 0.171334 0.444498
0 0.119369 0.328339
0 -0.00500286 -0.013761
0 -0.12634 -0.347514
0 -0.171041 -0.47047
0 -0.111991 -0.308045
0 0.0149915 0.041236
0 0.13288 0.344737
0 -0.196767 0.61937
0 -0.137089 0.457512
0 0.0057455 -0.0191747
0 0.145094 -0.48423
0 0.196431 -0.655559
0 0.128615 -0.429234
0 -0.0172169 0.0574588
0 -0.152605 0.480362
0 -0.445511 0.41854
0 -0.31039 0.309165
0 0.0130087 -0.0129573
0 0.328517 -0.327219
0 0.444751 -0.442995
0 0.291205 -0.290055
0 -0.0389818 0.0388279
0 -0.345523 0.324605
0 -0.424014 -0.0361706
0 -0.295413 -0.0267183
0 0.012381 0.00111978
0 0.312665 0.0282786
0 0.423291 0.038284
0 0.277154 0.0250669
0 -0.0371009 -0.00335554
0 -0.328851 -0.0280527
0 -0.145316 -0.46894
0 -0.101243 -0.346394
0 0.00424316 0.0145177
0 0.107155 0.366623
0 0.145068 0.49634
0 0.0949849 0.324984
0 -0.012715 -0.0435035
0 -0.112702 -0.363694
0 0.221529 -0.617257
0 0.154341 -0.455952
0 -0.00646854 0.0191093
0 -0.163354 0.482579
0 -0.221151 0.653323
0 -0.144801 0.42777
0 0.0193836 -0.0572629
0 0.17181 -0.478724
0 0.453997 -0.391154
0 0.316303 -0.27252
0 -0.0132565 0.0114215
0 -0.334775 0.288435
0 -0.453223 0.390487
0 -0.296752 0.255675
0 0.0397244 -0.0342257
0 0.352105 -0.303366
0 0.303419 0
0 0.229512 0
0 -0.00961902 0
0 -0.242915 0
0 -0.328862 0
0 -0.215326 0
0 0.0288243 0
0 0.235322 0
0.0947525 0.119369 0.439043
0.235513 0.0864992 0.3177
0.229811 -0.00362836 -0.0133265
0.0846623 -0.0916146 -0.336486
-0.11184 -0.12403 -0.455544
-0.240504 -0.0812096 -0.298274
-0.223246 0.0108246 0.0397598
-0.0679869 0.0925787 0.340507
0.132029 -0.137089 0.611768
0.328162 -0.0990712 0.442693
0.320216 0.00415546 -0.0185693
0.117971 0.104926 -0.468869
-0.155838 0.142049 -0.634753
-0.335116 0.0930082 -0.415617
-0.311071 -0.0124002 0.0554024
-0.0947338 -0.106321 0.474467
0.0892191 -0.31039 0.413403
0.221758 -0.224316 0.299151
0.21639 0.00940907 -0.0125481
0.0797176 0.237576 -0.316834
-0.105309 0.32163 -0.428941
-0.226457 0.210595 -0.280853
-0.210209 -0.0280768 0.0374383
-0.0640165 -0.240728 0.320622
-0.0077104 -0.295413 -0.0357267
-0.0191645 -0.213497 -0.0258529
-0.0187007 0.00895496 0.00108442
-0.00688936 0.226111 0.0273815
0.00910088 0.306114 0.0370695
0.0195704 0.200433 0.0242715
0.0181664 -0.026722 -0.00323544
0.00553237 -0.229113 -0.0277084
-0.0999629 -0.101243 -0.463185
-0.24846 -0.073169 -0.33517
-0.242448 0.00306905 0.0140592
-0.0893166 0.0774929 0.354985
0.11799 0.104912 0.480594
0.253723 0.0686917 0.31467
0.235522 -0.00915811 -0.0419462
0.0717254 -0.0785204 -0.359231
-0.131579 0.154341 -0.609682
-0.326946 0.111439 -0.441058
-0.319029 -0.00467415 0.0185002
-0.117534 -0.118022 0.46713
0.15526 -0.159778 0.632399
0.333872 -0.104619 0.414076
0.309918 0.01395 -0.0551995
0.0944107 0.119701 -0.472849
-0.0833814 0.316303 -0.386354
-0.199566 0.22037 -0.269175
-0.194697 -0.0092359 0.0112814
-0.0717269 -0.23324 0.284895
0.0947515 -0.315764 0.385695
0.203755 -0.206749 0.252538
0.189163 0.0276762 -0.0338056
0.0598278 0.245314 -0.299643
0 -0.0127166 0
0 -0.00961902 0
0 0.000403141 0
0 0.0101808 0
0 0.0137829 0
0 0.00902448 0
0 -0.00120805 0
0 -0.00986252 0
0.132029 -0.00500286 0.16727
0.328162 -0.00362836 0.120969
0.320216 0.000152204 -0.00507409
0.117971 0.00384307 -0.128119
-0.155838 0.00520271 -0.173449
-0.335116 0.00340659 -0.11357
-0.311071 -0.000454 0.0151396
-0.0947338 -0.00388005 0.129729
0.183972 0.0057455 0.233077
0.457271 0.00415546 0.168559
0.446199 -0.000174303 -0.00707035
0.16438 -0.00440114 -0.178522
-0.21715 -0.00595833 -0.241692
-0.46696 -0.00390134 -0.158248
-0.433456 0.000520056 0.0210956
-0.132003 0.00445601 0.180766
0.124319 0.0130087 0.157502
0.308998 0.00940907 0.113904
0.301522 -0.000394667 -0.00477785
0.111081 -0.00996522 -0.120639
-0.146739 -0.0134912 -0.163321
-0.315545 -0.00883346 -0.106938
-0.292908 0.00117754 0.0142554
-0.0892014 0.0100891 0.122153
-0.0107438 0.012381 -0.0136115
-0.0267041 0.00895496 -0.00984364
-0.0260576 -0.000375625 0.000412903
-0.0095997 -0.00948454 0.0104256
0.0126813 -0.0128402 0.0141144
0.02727 -0.00840722 0.00924166
0.0253133 0.00112071 -0.00123196
0.00770888 0.0096023 -0.0105566
-0.13929 0.00424316 -0.176468
-0.346203 0.00306905 -0.127619
-0.337825 -0.000128734 0.00535309
-0.124457 -0.00325051 0.135163
0.164407 -0.00440056 0.182986
0.353539 -0.00288131 0.119815
0.328175 0.000384088 -0.0159719
0.0999431 0.00329085 -0.136863
-0.183344 -0.00646854 -0.232282
-0.455577 -0.00467415 -0.167934
-0.444545 0.000196055 0.00704415
-0.163771 0.00495036 0.17786
0.216344 0.00670189 0.240793
0.465229 0.00438813 0.157661
0.431849 -0.000585048 -0.0210183
0.131553 -0.00501678 -0.18015
-0.116185 -0.0132565 -0.147196
-0.278078 -0.0092359 -0.102553
-0.271293 0.000387084 0.00429807
-0.0999452 0.00977527 0.108542
0.132028 0.0132339 0.146945
0.283915 0.00866503 0.096214
0.263583 -0.00115993 -0.0128796
0.0833649 -0.0102813 -0.114161
0 -0.321139 0
0 -0.242915 0
0 0.0101808 0
0 0.257101 0
0 0.348067 0
0 0.227901 0
0 -0.0305076 0
0 -0.249064 0
0.0892191 -0.12634 -0.205966
0.221758 -0.0916146 -0.148951
0.21639 0.00384307 0.00624779
0.0797176 0.0970342 0.157754
-0.105309 0.131367 0.213572
-0.226457 0.0860135 0.139838
-0.210209 -0.0114636 -0.0186415
-0.0640165 -0.0979852 -0.15974
0.124319 0.145094 -0.286996
0.308998 0.104926 -0.207549
0.301522 -0.00440114 0.00870575
0.111081 -0.111128 0.21982
-0.146739 -0.150448 0.297595
-0.315545 -0.0985068 0.194852
-0.292908 0.0131317 -0.0259752
-0.0892014 0.11253 -0.222584
0.0840088 0.328517 -0.193938
0.208808 0.237576 -0.140251
0.203752 -0.00996522 0.00588289
0.0750636 -0.251619 0.148544
-0.0991582 -0.340646 0.201099
-0.213232 -0.223044 0.131671
-0.197932 0.0297334 -0.0175528
-0.060278 0.254787 -0.150412
-0.00726012 0.312665 0.0167603
-0.0180454 0.226111 0.0121206
-0.0176084 -0.00948454 -0.000508407
-0.00648703 -0.239481 -0.0128372
0.0085693 -0.324208 -0.0173791
0.0184278 -0.212282 -0.0113791
0.0171053 0.0282986 0.00151693
0.00520928 0.242493 0.0129987
-0.0941251 0.107155 0.217292
-0.233952 0.0774929 0.157138
-0.228288 -0.00325051 -0.00659135
-0.0841013 -0.0820737 -0.166428
0.111099 -0.111113 -0.225315
0.23891 -0.0727533 -0.147529
0.221766 0.00969843 0.0196664
0.0675367 0.0831059 0.168524
-0.123895 -0.163354 0.286017
-0.307853 -0.118022 0.206782
-0.300402 0.00495036 -0.00867346
-0.110669 0.124996 -0.219005
0.146194 0.169221 -0.296491
0.314375 0.1108 -0.19413
0.291821 -0.0147728 0.0258802
0.0888972 -0.126692 0.221825
-0.078512 -0.334775 0.181248
-0.187912 -0.23324 0.126277
-0.183327 0.00977527 -0.00529237
-0.0675381 0.246861 -0.133651
0.0892181 0.334204 -0.180939
0.191856 0.218823 -0.118472
0.178116 -0.0292925 0.0158591
0.0563339 -0.25964 0.14057
0 -0.434763 0
0 -0.328862 0
0 0.0137829 0
0 0.348067 0
0 0.471219 0
0 0.308535 0
0 -0.0413017 0
0 -0.337187 0
-0.0077104 -0.171041 -0.454267
-0.0191645 -0.12403 -0.328512
-0.0187007 0.00520271 0.0137798
-0.00688936 0.131367 0.34793
0.00910088 0.177844 0.471043
0.0195704 0.116448 0.308419
0.0181664 -0.0155197 -0.0411143
0.00553237 -0.132654 -0.352314
-0.0107438 0.196431 -0.632981
-0.0267041 0.142049 -0.457755
-0.0260576 -0.00595833 0.019201
-0.0095997 -0.150448 0.484823
0.0126813 -0.203678 0.656348
0.02727 -0.13336 0.429759
0.0253133 0.0177779 -0.0572896
0.00770888 0.152345 -0.490918
-0.00726012 0.444751 -0.427738
-0.0180453 0.32163 -0.309329
-0.0176084 -0.0134912 0.0129751
-0.00648703 -0.340646 0.327614
0.0085693 -0.461176 0.443532
0.0184278 -0.301962 0.290409
0.0171053 0.040253 -0.0387134
0.00520928 0.344934 -0.331739
0.000627427 0.423291 0.0369655
0.00155949 0.306114 0.0267327
0.00152174 -0.0128402 -0.00112131
0.000560613 -0.324208 -0.0283129
-0.00074057 -0.438924 -0.0383305
-0.00159254 -0.28739 -0.0250974
-0.00147827 0.0383111 0.00334565
-0.000450191 0.32829 0.0286692
0.00813439 0.145068 0.479246
0.0202181 0.104912 0.346574
0.0197286 -0.00440056 -0.0145375
0.00726818 -0.111113 -0.367062
-0.00960125 -0.150428 -0.496941
-0.0206465 -0.0984937 -0.325376
-0.0191652 0.0131299 0.0433748
-0.00583659 0.11251 0.371687
0.0107071 -0.221151 0.630822
0.0266052 -0.159778 0.456062
0.025961 0.00670189 -0.0191298
0.0095641 0.169221 -0.483021
-0.0126343 0.229095 -0.653917
-0.0271689 0.150003 -0.428165
-0.0252195 -0.0199994 0.0570801
-0.00768258 -0.171517 0.489244
0.00678508 -0.453223 0.39975
0.0162395 -0.315764 0.278509
0.0158433 0.0132339 -0.0116725
0.00583671 0.334204 -0.294773
-0.00771031 0.45245 -0.399069
-0.0165804 0.296246 -0.261294
-0.015393 -0.0396566 0.0349778
-0.00486843 -0.351504 0.310033
0 -0.284665 0
0 -0.215326 0
0 0.00902448 0
0 0.227901 0
0 0.308535 0
0 0.202017 0
0 -0.0270427 0
0 -0.220777 0
-0.0999629 -0.111991 -0.427015
-0.24846 -0.0812096 -0.308807
-0.242448 0.00340659 0.0129532
-0.0893166 0.0860134 0.327061
0.11799 0.116448 0.442784
0.253723 0.076246 0.289919
0.235522 -0.0101617 -0.038648
0.0717254 -0.0868564 -0.331178
-0.13929 0.128615 -0.595008
-0.346203 0.0930082 -0.430299
-0.337825 -0.00390134 0.0180491
-0.124457 -0.0985068 0.455736
0.164407 -0.13336 0.616978
0.353539 -0.0873182 0.403976
0.328175 0.0116403 -0.0538528
0.0999431 0.0997496 -0.461468
-0.0941251 0.291205 -0.402078
-0.233952 0.210595 -0.290774
-0.228288 -0.00883346 0.0121966
-0.0841013 -0.223044 0.307962
0.111099 -0.301962 0.416926
0.23891 -0.197712 0.272985
0.221766 0.0263563 -0.0363911
0.0675367 0.225849 -0.311838
0.00813439 0.277154 0.0347479
0.0202181 0.200433 0.025129
0.0197286 -0.00840722 -0.00105404
0.00726818 -0.212282 -0.0266145
-0.00960125 -0.28739 -0.0360311
-0.0206465 -0.18817 -0.0235917
-0.0191652 0.0250845 0.00314494
-0.00583659 0.214951 0.0269493
0.10546 0.0949849 0.450496
0.26212 0.0686917 0.325784
0.255774 -0.00288131 -0.0136654
0.094228 -0.0727533 -0.345043
-0.124477 -0.0984937 -0.467132
-0.267674 -0.0644896 -0.305861
-0.248469 0.00859693 0.0407729
-0.0756694 0.0736671 0.349389
0.138815 -0.144801 0.592979
0.344921 -0.104619 0.428707
0.336571 0.00438813 -0.0179821
0.123995 0.1108 -0.454047
-0.163797 0.150004 -0.614692
-0.352228 0.0982166 -0.402479
-0.326959 -0.013095 0.0536557
-0.0996022 -0.112303 0.459894
0.0879664 -0.296752 0.375769
0.21054 -0.206749 0.261801
0.205403 0.00866503 -0.0109723
0.075671 0.218823 -0.27709
-0.0999617 0.296246 -0.375128
-0.214959 0.19397 -0.245619
-0.199565 -0.0259656 0.0328795
-0.0631177 -0.230151 0.291434
0 0.0381063 0
0 0.0288243 0
0 -0.00120805 0
0 -0.0305076 0
0 -0.0413017 0
0 -0.0270427 0
0 0.00362003 0
0 0.029554 0
-0.131579 0.0149915 -0.140742
-0.326946 0.0108243 -0.101857
-0.319029 -0.000453987 0.0042726
-0.117534 -0.0114632 0.107881
0.15526 -0.0155193 0.146052
0.333872 -0.0101614 0.0956283
0.309918 0.00135526 -0.0127463
0.0944107 0.0116269 -0.109154
-0.183344 -0.0172169 -0.196111
-0.455577 -0.0123998 -0.14193
-0.444545 0.000520041 0.00595345
-0.163771 0.0131313 0.150324
0.216344 0.0177774 0.203509
0.465229 0.0116399 0.133251
0.431849 -0.00155277 -0.017761
0.131553 -0.0133529 -0.152097
-0.123895 -0.0389818 -0.132522
-0.307853 -0.028076 -0.0959088
-0.300402 0.0011775 0.00402308
-0.110669 0.0297325 0.101581
0.146194 0.0402517 0.137522
0.314375 0.0263555 0.0900439
0.291821 -0.00351578 -0.0120019
0.0888972 -0.030233 -0.10278
0.0107071 -0.0371009 0.0114527
0.0266052 -0.0267212 0.00828855
0.025961 0.00112068 -0.000347676
0.0095641 0.0282977 -0.00877875
-0.0126343 0.0383099 -0.0118847
-0.0271689 0.0250838 -0.00778174
-0.0252195 -0.00334614 0.00103723
-0.00768258 -0.0287742 0.00888234
0.138815 -0.012715 0.148481
0.344921 -0.00915785 0.107459
0.336571 0.000384076 -0.00450753
0.123995 0.00969813 -0.113813
-0.163797 0.0131295 -0.154081
-0.352228 0.00859667 -0.100887
-0.326959 -0.00114678 0.0134473
-0.0996022 -0.00986135 0.115157
0.182719 0.0193836 0.195442
0.45389 0.0139496 0.141404
0.442898 -0.00058503 -0.00593131
0.163164 -0.0147723 -0.149765
-0.215542 -0.0199988 -0.202753
-0.463506 -0.0130946 -0.132755
-0.430248 0.00174701 0.0176959
-0.131104 0.0150332 0.151578
0.115788 0.0397244 0.123851
0.27713 0.0276762 0.086288
0.270368 -0.00115993 -0.0036164
0.0996043 -0.0292925 -0.0913272
-0.131578 -0.0396566 -0.12364
-0.282946 -0.0259656 -0.0809546
-0.262684 0.00347585 0.0108369
-0.0830806 0.0308089 0.0960548
0 0.337763 0
0 0.235322 0
0 -0.00986252 0
0 -0.249064 0
0 -0.337187 0
0 -0.220777 0
0 0.029554 0
0 0.261957 0
-0.0833814 0.13288 0.230903
-0.199566 0.0925787 0.160872
-0.194697 -0.00388005 -0.00674228
-0.0717268 -0.0979852 -0.170267
0.0947515 -0.132654 -0.23051
0.203755 -0.0868564 -0.150929
0.189163 0.0116269 0.0202039
0.0598278 0.103058 0.179081
-0.116185 -0.152605 0.321744
-0.278078 -0.106321 0.224161
-0.271293 0.00445601 -0.00939478
-0.0999452 0.11253 -0.237252
0.132028 0.152345 -0.321195
0.283915 0.0997496 -0.210306
0.263583 -0.0133529 0.0281523
0.0833649 -0.118356 0.249534
-0.078512 -0.345523 0.217419
-0.187912 -0.240728 0.151477
-0.183327 0.0100891 -0.00634853
-0.0675381 0.254787 -0.160323
0.0892181 0.344934 -0.217048
0.191856 0.225849 -0.142114
0.178116 -0.030233 0.019024
0.0563339 -0.267976 0.168623
0.00678508 -0.328851 -0.0187896
0.0162395 -0.229113 -0.0130908
0.0158433 0.0096023 0.000548646
0.00583671 0.242493 0.0138553
-0.00771031 0.32829 0.0187575
-0.0165804 0.214951 0.0122817
-0.015393 -0.0287742 -0.00164407
-0.00486843 -0.255045 -0.0145725
0.0879664 -0.112702 -0.2436
0.21054 -0.0785204 -0.169718
0.205403 0.00329085 0.00711302
0.075671 0.0831059 0.179629
-0.0999617 0.11251 0.243185
-0.214959 0.0736671 0.159228
-0.199565 -0.00986135 -0.0213148
-0.0631177 -0.087408 -0.188928
0.115788 0.17181 -0.320647
0.27713 0.119701 -0.223397
0.270368 -0.00501678 0.00936274
0.0996043 -0.126692 0.236443
-0.131578 -0.171517 0.3201
-0.282946 -0.112303 0.209589
-0.262684 0.0150332 -0.0280563
-0.0830806 0.13325 -0.248683
0.0733748 0.352105 -0.203193
0.175616 0.245314 -0.141566
0.171331 -0.0102813 0.00593314
0.063119 -0.25964 0.149833
-0.0833804 -0.351504 0.202846
-0.179302 -0.230151 0.132816
-0.166462 0.0308089 -0.0177792
-0.0526479 0.27308 -0.157589
