# vtk DataFile Version 3.0
Velocity field
ASCII
DATASET STRUCTURED_POINTS
DIMENSIONS 5 5 5
SPACING 1.33333 1.33333 1.33333
ORIGIN 0 0 0
POINT_DATA 125
VECTORS velocity float
0 0.62016 0
0 0.145885 0
0 -0.551525 0
0 -0.405364 0
0 0.360812 0
0 -0.32839 1.07703
0 -0.0772497 0.291989
0 0.292046 -1.10388
0 0.21465 -0.811337
0 -0.191059 0.626622
0 -0.77466 0.506717
0 -0.182229 0.137374
0 0.688926 -0.519347
0 0.506352 -0.381714
0 -0.4507 0.29481
0 -0.036068 -0.838635
0 -0.00848455 -0.227358
0 0.0320762 0.859538
0 0.0235756 0.63175
0 -0.0209845 -0.487921
0 0.757691 -0.901274
0 0.178237 -0.212013
0 -0.673835 0.801527
0 -0.49526 0.589112
0 0.440827 -0.524365
0 0.145885 0
0 0.0436673 0
0 -0.165086 0
0 -0.121336 0
0 0.0848764 0
0.460966 -0.0772497 0.378235
0.731615 -0.0194252 0.0961413
-0.153398 0.0736172 -0.364489
-0.803959 0.0541343 -0.268046
-0.208291 -0.0449442 0.220059
0.216873 -0.182229 0.17795
0.344209 -0.0460432 0.0452324
-0.0721701 0.174518 -0.171483
-0.378245 0.128335 -0.12611
-0.0979959 -0.106022 0.103532
-0.358933 -0.00848455 -0.294514
-0.569286 -0.00216961 -0.0748108
0.119362 0.00822882 0.28361
0.625578 0.00605203 0.208567
0.162187 -0.00493634 -0.171349
-0.385742 0.178237 -0.316512
-0.567224 0.0419281 -0.0744554
0.118877 -0.158511 0.281482
0.623153 -0.116504 0.206886
0.174301 0.103699 -0.184148
0 -0.551525 0
0 -0.165087 0
0 0.624117 0
0 0.458718 0
0 -0.320879 0
0.216873 0.292046 -0.899083
0.344209 0.0736172 -0.227754
-0.0721701 -0.279028 0.863382
-0.378245 -0.20519 0.634926
-0.0979959 0.169914 -0.52309
0.102033 0.688926 -0.422996
0.161943 0.174518 -0.107153
-0.0339546 -0.661572 0.406203
-0.177956 -0.486515 0.298718
-0.0461046 0.400819 -0.246101
-0.168869 0.0320762 0.700074
-0.267837 0.00822882 0.177227
0.056157 -0.0312159 -0.671817
0.29432 -0.0229592 -0.494046
0.0763048 0.0186621 0.407305
-0.181482 -0.673835 0.752363
-0.266865 -0.158511 0.176984
0.0559288 0.599259 -0.669097
0.293178 0.440448 -0.491777
0.0820042 -0.392039 0.437728
0 -0.405364 0
0 -0.121336 0
0 0.458718 0
0 0.337152 0
0 -0.235842 0
-0.358933 0.21465 -0.801231
-0.569286 0.0541347 -0.203049
0.119362 -0.205191 0.769744
0.625578 -0.150892 0.566067
0.162187 0.124884 -0.466159
-0.168869 0.506352 -0.376959
-0.267837 0.128336 -0.0955301
0.056157 -0.486519 0.362149
0.29432 -0.357785 0.266323
0.0763048 0.294597 -0.219316
0.279484 0.0235756 0.623881
0.442981 0.00605209 0.158002
-0.0928782 -0.0229594 -0.598952
-0.486778 -0.0168867 -0.440465
-0.126287 0.0137164 0.362976
0.300359 -0.49526 0.67048
0.441671 -0.116504 0.157722
-0.0925642 0.440448 -0.596276
-0.48522 0.323723 -0.438255
-0.13572 -0.288144 0.390088
0 0.360812 0
0 0.0848764 0
0 -0.320879 0
0 -0.235842 0
0 0.209921 0
-0.385742 -0.191059 0.522123
-0.567224 -0.0449442 0.122823
0.118877 0.169914 -0.464338
0.623153 0.124884 -0.341283
0.174301 -0.111159 0.303773
-0.181482 -0.4507 0.245646
-0.266865 -0.106022 0.0577852
0.0559288 0.400819 -0.21846
0.293178 0.294597 -0.160565
0.0820042 -0.262219 0.142918
0.300359 -0.0209845 -0.406553
0.441671 -0.00493634 -0.0956365
-0.0925642 0.0186621 0.361558
-0.48522 0.0137164 0.265741
-0.13572 -0.0122089 -0.236534
0.322794 0.440827 -0.436919
0.47466 0.103699 -0.10278
-0.099478 -0.392039 0.388564
-0.521462 -0.288144 0.285589
-0.145857 0.256475 -0.254201
