# vtk DataFile Version 3.0
Velocity field
ASCII
DATASET STRUCTURED_POINTS
DIMENSIONS 5 5 5
SPACING 1.33333 1.33333 1.33333
ORIGIN 0 0 0
POINT_DATA 125
VECTORS velocity float
0 0.0533991 0
0 0.0125615 0
0 -0.0474893 0
0 -0.034904 0
0 0.0310678 0
0 -0.0282762 0.0927383
0 -0.00665162 0.0251418
0 0.0251467 -0.0950499
0 0.0184825 -0.0698604
0 -0.0164512 0.0539555
0 -0.0667024 0.0436311
0 -0.0156909 0.0118286
0 0.0593202 -0.0447186
0 0.0435996 -0.0328676
0 -0.0388077 0.0253847
0 -0.00310565 -0.072211
0 -0.000730565 -0.0195768
0 0.00276194 0.0740109
0 0.00202999 0.054397
0 -0.00180688 -0.0420126
0 0.0652412 -0.0776045
0 0.0153472 -0.0182555
0 -0.0580208 0.0690157
0 -0.0426445 0.0507257
0 0.0379576 -0.0451506
0 0.0125615 0
0 0.00375999 0
0 -0.0142148 0
0 -0.0104477 0
0 0.00730831 0
0.0396917 -0.00665162 0.0325681
0.0587078 -0.00157307 0.00770916
-0.0123039 0.00594717 -0.0291454
-0.0644965 0.0043711 -0.0214216
-0.017935 -0.00386993 0.0189482
0.0186739 -0.0156909 0.0153225
0.0276206 -0.00371263 0.00362697
-0.00578865 0.0140359 -0.0137122
-0.0303441 0.0103163 -0.0100783
-0.00843797 -0.00912902 0.00891467
-0.030906 -0.000730565 -0.0253592
-0.0457127 -0.000172872 -0.00600275
0.00958038 0.000653564 0.022694
0.0502201 0.000480363 0.0166799
0.0139651 -0.000425045 -0.0147541
-0.0332145 0.0153472 -0.0272534
-0.048841 0.00361023 -0.00641101
0.010236 -0.0136487 0.0242371
0.0536568 -0.0100316 0.017814
0.0150082 0.00892905 -0.0158561
0 -0.0474893 0
0 -0.0142148 0
0 0.0537398 0
0 0.0394981 0
0 -0.0276294 0
0.0186739 0.0251467 -0.0774158
0.0276206 0.00594717 -0.0183177
-0.00578865 -0.0224839 0.0692517
-0.0303441 -0.0165254 0.0508993
-0.00843797 0.0146305 -0.0450408
0.00878562 0.0593202 -0.0364222
0.0129948 0.0140359 -0.00861798
-0.00272342 -0.0530645 0.0325812
-0.0142761 -0.0390018 0.0239469
-0.00396986 0.0345127 -0.0211906
-0.0145405 0.00276194 0.0602801
-0.0215068 0.000653564 0.014263
0.00450735 -0.00247087 -0.053923
0.0236274 -0.00181606 -0.0396327
0.00657025 0.0016069 0.0350712
-0.0156266 -0.0580208 0.0647825
-0.0229785 -0.0136487 0.0152393
0.00481577 0.0515994 -0.0576128
0.0252442 0.0379249 -0.0423447
0.007061 -0.0337567 0.0376907
0 -0.034904 0
0 -0.0104477 0
0 0.0394981 0
0 0.0290306 0
0 -0.0203073 0
-0.030906 0.0184825 -0.0689903
-0.0457127 0.0043711 -0.0163241
0.00958038 -0.0165254 0.061715
0.0502201 -0.012146 0.0453598
0.0139651 0.0107532 -0.0401388
-0.0145405 0.0435996 -0.0324582
-0.0215068 0.0103163 -0.00768008
0.00450735 -0.0390018 0.0290353
0.0236274 -0.0286659 0.0213407
0.00657025 0.0253664 -0.0188843
0.0240651 0.00202999 0.0537195
0.0355943 0.000480363 0.0127107
-0.00745979 -0.00181606 -0.0480544
-0.039104 -0.00133479 -0.0353194
-0.010874 0.00118105 0.0312542
0.0258625 -0.0426445 0.0577319
0.0380302 -0.0100316 0.0135807
-0.00797027 0.0379249 -0.0513425
-0.04178 0.0278743 -0.0377361
-0.0116862 -0.0248107 0.0335886
0 0.0310678 0
0 0.00730831 0
0 -0.0276294 0
0 -0.0203073 0
0 0.0180754 0
-0.0332145 -0.0164512 0.0449576
-0.048841 -0.00386993 0.0105757
0.010236 0.0146305 -0.039982
0.0536568 0.0107532 -0.0293863
0.0150082 -0.00957135 0.0261565
-0.0156266 -0.0388077 0.0211514
-0.0229785 -0.00912902 0.00497561
0.00481577 0.0345127 -0.0188105
0.0252442 0.0253664 -0.0138255
0.007061 -0.0225784 0.012306
0.0258625 -0.00180688 -0.0350064
0.0380302 -0.000425045 -0.00823481
-0.00797027 0.0016069 0.0311321
-0.04178 0.00118105 0.0228817
-0.0116862 -0.00105125 -0.0203668
0.0277943 0.0379576 -0.0376211
0.0408708 0.00892905 -0.00884989
-0.00856558 -0.0337567 0.0334574
-0.0449007 -0.0248107 0.0245908
-0.0125591 0.0220839 -0.0218881
