# vtk DataFile Version 3.0
Velocity field
ASCII
DATASET STRUCTURED_POINTS
DIMENSIONS 5 5 5
SPACING 1.33333 1.33333 1.33333
ORIGIN 0 0 0
POINT_DATA 125
VECTORS velocity float
0 0.296967 0
0 0.0698579 0
0 -0.264101 0
0 -0.194111 0
0 0.172777 0
0 -0.157252 0.515743
0 -0.0369915 0.139821
0 0.139848 -0.528599
0 0.102787 -0.388513
0 -0.0914895 0.300061
0 -0.37095 0.242644
0 -0.0872614 0.0657821
0 0.329896 -0.248693
0 0.242469 -0.182786
0 -0.21582 0.141171
0 -0.0172714 -0.401585
0 -0.00406288 -0.108872
0 0.0153599 0.411595
0 0.0112893 0.302517
0 -0.0100485 -0.233644
0 0.362825 -0.43158
0 0.08535 -0.101524
0 -0.32267 0.383816
0 -0.237158 0.2821
0 0.211093 -0.251095
0 0.0698579 0
0 0.0209103 0
0 -0.0790525 0
0 -0.0581026 0
0 0.0406435 0
0.220736 -0.0369915 0.18112
0.335252 -0.00895775 0.0440726
-0.0702668 0.0338805 -0.166707
-0.368326 0.024904 -0.12254
-0.0997415 -0.0215218 0.105376
0.103851 -0.0872614 0.0852125
0.157728 -0.0211823 0.0207351
-0.0330589 0.08012 -0.0784315
-0.173288 0.0588928 -0.0576521
-0.0469259 -0.050769 0.0495769
-0.171877 -0.00406288 -0.14103
-0.261012 -0.000988565 -0.034313
0.0547066 0.00373935 0.12979
0.286761 0.00274867 0.095404
0.0776641 -0.00236379 -0.0820516
-0.184715 0.08535 -0.151563
-0.271619 0.0200775 -0.0356534
0.0569251 -0.075904 0.134789
0.2984 -0.0557885 0.0990685
0.0834649 0.0496569 -0.0881802
0 -0.264101 0
0 -0.0790526 0
0 0.298862 0
0 0.21966 0
0 -0.153655 0
0.103851 0.139848 -0.430531
0.157728 0.0338805 -0.10456
-0.0330589 -0.128146 0.395494
-0.173288 -0.0941945 0.290712
-0.0469259 0.081364 -0.250484
0.0488593 0.329896 -0.202554
0.0742067 0.08012 -0.0491932
-0.0155534 -0.303048 0.18607
-0.0815274 -0.222759 0.136772
-0.0220775 0.191934 -0.117847
-0.0808639 0.0153599 0.335234
-0.1228 0.00373935 0.0814064
0.0257381 -0.0141446 -0.307913
0.134914 -0.0103973 -0.226335
0.036539 0.00893643 0.19504
-0.0869037 -0.32267 0.360273
-0.12779 -0.075904 0.0847498
0.0267818 0.286959 -0.320401
0.14039 0.210911 -0.23549
0.0392682 -0.18773 0.209608
0 -0.194111 0
0 -0.0581026 0
0 0.21966 0
0 0.161447 0
0 -0.112934 0
-0.171877 0.102787 -0.383674
-0.261012 0.0249041 -0.093188
0.0547066 -0.0941949 0.352477
0.286761 -0.0692384 0.259092
0.0776641 0.0598015 -0.223223
-0.0808639 0.242469 -0.180509
-0.1228 0.058893 -0.0438425
0.0257381 -0.222759 0.165832
0.134914 -0.163742 0.121897
0.036539 0.141069 -0.105021
0.133833 0.0112893 0.298749
0.203213 0.00274868 0.0725521
-0.042592 -0.0103973 -0.274423
-0.22326 -0.00764276 -0.201718
-0.0604734 0.00656816 0.173813
0.143829 -0.237158 0.321063
0.211497 -0.0557885 0.0755261
-0.0443249 0.210911 -0.28553
-0.23235 0.155017 -0.209861
-0.0649902 -0.137979 0.186796
0 0.172777 0
0 0.0406435 0
0 -0.153655 0
0 -0.112934 0
0 0.100522 0
-0.184715 -0.0914895 0.250022
-0.271618 -0.0215218 0.0588145
0.056925 0.081364 -0.222351
0.2984 0.0598015 -0.163425
0.0834649 -0.0532289 0.145464
-0.0869037 -0.21582 0.117629
-0.12779 -0.050769 0.0276707
0.0267818 0.191935 -0.104611
0.14039 0.141069 -0.0768874
0.0392682 -0.125565 0.068437
0.143829 -0.0100485 -0.19468
0.211496 -0.00236379 -0.0457961
-0.0443249 0.00893643 0.173134
-0.23235 0.00656816 0.127251
-0.0649902 -0.00584628 -0.113266
0.154572 0.211093 -0.209221
0.227294 0.0496569 -0.0492167
-0.0476356 -0.18773 0.186066
-0.249705 -0.137979 0.136756
-0.0698444 0.122814 -0.121726
