# vtk DataFile Version 3.0
Velocity field
ASCII
DATASET STRUCTURED_POINTS
DIMENSIONS 8 8 8
SPACING 0.8 0.8 0.8
ORIGIN 0 0 0
POINT_DATA 512
VECTORS velocity float
0 0.221174 0
0 0.154094 0
0 -0.00645819 0
0 -0.163093 0
0 -0.220797 0
0 -0.144569 0
0 0.0193526 0
0 0.171535 0
0 0.087013 0.225742
0 0.0606225 0.166749
0 -0.00254074 -0.0069886
0 -0.0641628 -0.176487
0 -0.0868646 -0.238931
0 -0.0568755 -0.156443
0 0.00761356 0.020942
0 0.0674843 0.175077
0 -0.0999294 0.314551
0 -0.0696215 0.232351
0 0.00291789 -0.00973802
0 0.0736873 -0.24592
0 0.0997589 -0.33293
0 0.0653182 -0.217989
0 -0.00874374 0.0291809
0 -0.0775018 0.243955
0 -0.226256 0.212558
0 -0.157634 0.157011
0 0.00660657 -0.00658048
0 0.16684 -0.166181
0 0.22587 -0.224978
0 0.147891 -0.147307
0 -0.0197972 0.019719
0 -0.175476 0.164853
0 -0.215339 -0.0183695
0 -0.150028 -0.0135691
0 0.00628779 0.000568691
0 0.158789 0.0143615
0 0.214971 0.0194428
0 0.140755 0.0127304
0 -0.018842 -0.00170414
0 -0.167009 -0.0142468
0 -0.0737998 -0.238155
0 -0.0514168 -0.175919
0 0.00215492 0.0073729
0 0.0544195 0.186192
0 0.073674 0.25207
0 0.0482388 0.165045
0 -0.00645742 -0.0220936
0 -0.0572366 -0.184705
0 0.112505 -0.313479
0 0.078383 -0.231558
0 -0.00328509 0.0097048
0 -0.0829605 0.245081
0 -0.112313 0.331795
0 -0.0735382 0.217246
0 0.00984409 -0.0290814
0 0.087255 -0.243123
0 0.230566 -0.19865
0 0.160637 -0.138401
0 -0.00673241 0.0058005
0 -0.170018 0.146484
0 -0.230173 0.198312
0 -0.150708 0.129847
0 0.0201743 -0.0173817
0 0.178819 -0.154067
0 0.154094 0
0 0.116559 0
0 -0.00488509 0
0 -0.123366 0
0 -0.167015 0
0 -0.109355 0
0 0.0146386 0
0 0.11951 0
0.0481208 0.0606225 0.222971
0.117359 0.0430976 0.158345
0.114501 -0.00180662 -0.00663766
0.0421828 -0.0456228 -0.167622
-0.0557231 -0.0617649 -0.226927
-0.119828 -0.040441 -0.148583
-0.111242 0.00540765 0.019869
-0.0345276 0.0470167 0.172929
0.0670521 -0.0696215 0.310691
0.16353 -0.0494121 0.22064
0.159547 0.00207128 -0.00924895
0.0587775 0.0523062 -0.233564
-0.0776461 0.0708127 -0.316206
-0.166971 0.0463653 -0.207039
-0.155008 -0.00620036 0.0276857
-0.0481112 -0.053996 0.240961
0.0453105 -0.157634 0.20995
0.110505 -0.111877 0.149098
0.107815 0.00468975 -0.00625001
0.0397191 0.11843 -0.157833
-0.0524694 0.160333 -0.213676
-0.11283 0.10498 -0.139906
-0.104747 -0.0140387 0.0187087
-0.0325112 -0.122256 0.16283
-0.00391578 -0.150028 -0.0181441
-0.00955004 -0.106479 -0.0128852
-0.00931745 0.00446345 0.00054013
-0.00343256 0.112716 0.0136401
0.00453443 0.152597 0.018466
0.00975099 0.0999147 0.0120908
0.00905227 -0.0133613 -0.00161682
0.00280965 -0.116356 -0.0140719
-0.0507669 -0.0514168 -0.235232
-0.123813 -0.0364922 -0.167052
-0.120797 0.0015297 0.00700261
-0.044502 0.0386297 0.176838
0.0587873 0.0522973 0.239405
0.126418 0.0342421 0.156754
0.117359 -0.00457914 -0.0209616
0.0364262 -0.0398771 -0.182438
-0.0668234 0.078383 -0.309631
-0.16296 0.0556174 -0.219871
-0.158991 -0.00233141 0.00921672
-0.0585727 -0.0588753 0.23275
0.0773755 -0.0797059 0.315103
0.166388 -0.0521882 0.206317
0.154468 0.00697916 -0.0275894
0.0479472 0.0607911 -0.24014
-0.0423458 0.160637 -0.196213
-0.101351 0.111917 -0.136703
-0.0988781 -0.00469052 0.00572932
-0.036427 -0.118452 0.144686
0.0481202 -0.160363 0.195878
0.103478 -0.104999 0.128253
0.0960679 0.0140556 -0.0171684
0.030384 0.124584 -0.152176
0 -0.00645819 0
0 -0.00488509 0
0 0.000204738 0
0 0.00517037 0
0 0.00699973 0
0 0.00458314 0
0 -0.000613517 0
0 -0.00500875 0
0.0670521 -0.00254074 0.0849495
0.16353 -0.00180662 0.0603016
0.159547 7.57325e-05 -0.00252777
0.0587775 0.00191248 -0.0638343
-0.0776461 0.00258914 -0.0864189
-0.166971 0.00169528 -0.0565838
-0.155008 -0.00022668 0.00756673
-0.0481112 -0.00197051 0.0658839
0.0934313 0.00291789 0.11837
0.227864 0.00207128 0.0840252
0.222314 -8.68248e-05 -0.0035222
0.081902 -0.0021926 -0.0889468
-0.108193 -0.00296838 -0.120418
-0.232657 -0.00194359 -0.0788455
-0.21599 0.000259907 0.0105436
-0.0670388 0.00226302 0.0918036
0.0631363 0.00660657 0.0799885
0.153981 0.00468975 0.0567798
0.150231 -0.000196588 -0.00238016
0.0553448 -0.00496447 -0.060106
-0.0731113 -0.006721 -0.0813727
-0.15722 -0.00440059 -0.0532798
-0.145955 0.000588476 0.00712483
-0.0453016 0.00512383 0.0620364
-0.0054563 0.00628779 -0.00691269
-0.0133072 0.00446345 -0.00490702
-0.0129831 -0.000187102 0.000205695
-0.00478301 -0.00472493 0.00519444
0.00631837 -0.00639669 0.00703226
0.0135872 -0.00418828 0.00460447
0.0126136 0.00056008 -0.000615739
0.00391501 0.00487659 -0.00536124
-0.0707392 0.00215492 -0.0896208
-0.172521 0.0015297 -0.0636176
-0.168321 -6.41232e-05 0.00266677
-0.06201 -0.00161931 0.0673435
0.0819156 -0.00219223 0.0911714
0.176151 -0.00143538 0.0596953
0.163531 0.000191948 -0.00798284
0.0507568 0.00167128 -0.0695068
-0.0931127 -0.00328509 -0.117966
-0.22707 -0.00233141 -0.0837322
-0.22154 9.77292e-05 0.00350993
-0.0816166 0.00246797 0.088637
0.107816 0.00334118 0.119998
0.231847 0.00218766 0.0785705
0.215237 -0.000292552 -0.0105069
0.0668102 -0.00254781 -0.0914905
-0.0590052 -0.00673241 -0.0747548
-0.141224 -0.00469052 -0.0520822
-0.137778 0.000196583 0.00218281
-0.0507579 0.00496444 0.0551237
0.0670514 0.00672093 0.0746273
0.144188 0.0044006 0.048863
0.133862 -0.000589081 -0.00654098
0.0423374 -0.00522143 -0.0579772
0 -0.163093 0
0 -0.123366 0
0 0.00517037 0
0 0.130571 0
0 0.176768 0
0 0.115741 0
0 -0.0154935 0
0 -0.126489 0
0.0453105 -0.0641628 -0.104601
0.110505 -0.0456228 -0.0742512
0.107815 0.00191248 0.00311252
0.0397191 0.0482959 0.078601
-0.0524694 0.065384 0.106411
-0.11283 0.0428105 0.0696732
-0.104747 -0.0057244 -0.00931714
-0.0325112 -0.0497625 -0.0811253
0.0631363 0.0736873 -0.145753
0.153981 0.0523062 -0.103463
0.150231 -0.0021926 0.00433699
0.0553448 -0.0553698 0.109524
-0.0731113 -0.0749612 0.148274
-0.15722 -0.0490815 0.0970838
-0.145955 0.00656348 -0.0129826
-0.0453016 0.0571493 -0.113041
0.0426645 0.16684 -0.0984928
0.104052 0.11843 -0.0699147
0.101519 -0.00496447 0.00293073
0.0373997 -0.125369 0.0740104
-0.0494051 -0.169726 0.100197
-0.106242 -0.111129 0.0656048
-0.0986295 0.0148608 -0.008773
-0.0306126 0.129395 -0.0763877
-0.0036871 0.158789 0.00851185
-0.00899226 0.112716 0.00604211
-0.00877326 -0.00472493 -0.000253278
-0.00323213 -0.119319 -0.00639607
0.00426961 -0.161536 -0.00865902
0.00918148 -0.105768 -0.0056696
0.00852359 0.0141438 0.000758173
0.00264557 0.123152 0.0066015
-0.0478021 0.0544195 0.110353
-0.116581 0.0386297 0.0783343
-0.113742 -0.00161931 -0.00328366
-0.0419034 -0.0408925 -0.0829228
0.055354 -0.0553604 -0.112261
0.119034 -0.036248 -0.0735047
0.110505 0.00484732 0.0098295
0.034299 0.0422059 0.0855863
-0.062921 -0.0829605 0.145256
-0.153444 -0.0588753 0.103102
-0.149707 0.00246797 -0.00432188
-0.055152 0.0623238 -0.109142
0.0728565 0.0843752 -0.147758
0.156672 0.055245 -0.0967455
0.145446 -0.00738788 0.0129375
0.0451471 -0.0643413 0.112656
-0.0398729 -0.170018 0.0920483
-0.0954322 -0.118452 0.0641307
-0.0931037 0.00496444 -0.00268777
-0.0342997 0.12537 -0.0678758
0.04531 0.169728 -0.0918913
0.0974353 0.111131 -0.0601668
0.0904576 -0.0148764 0.00805415
0.0286096 -0.13186 0.0713895
0 -0.220797 0
0 -0.167015 0
0 0.00699973 0
0 0.176768 0
0 0.239312 0
0 0.156692 0
0 -0.0209753 0
0 -0.171243 0
-0.00391578 -0.0868646 -0.230703
-0.00955004 -0.0617649 -0.163763
-0.00931745 0.00258914 0.00686475
-0.00343256 0.065384 0.173356
0.00453443 0.0885174 0.234691
0.00975099 0.0579575 0.153668
0.00905227 -0.00774979 -0.0205493
0.00280965 -0.0673692 -0.178925
-0.0054563 0.0997589 -0.321464
-0.0133072 0.0708127 -0.228189
-0.0129831 -0.00296838 0.00956547
-0.00478301 -0.0749612 0.241557
0.00631837 -0.101484 0.327024
0.0135872 -0.0664476 0.214123
0.0126136 0.00888571 -0.0286336
0.00391501 0.0773696 -0.249316
-0.0036871 0.22587 -0.21723
-0.00899226 0.160333 -0.1542
-0.00877326 -0.006721 0.0064639
-0.00323213 -0.169726 0.163233
0.00426961 -0.229776 0.220985
0.00918148 -0.150449 0.144693
0.00852359 0.0201189 -0.0193493
0.00264557 0.175177 -0.168476
0.000318643 0.214971 0.0187732
0.000777125 0.152597 0.0133261
0.000758197 -0.00639669 -0.00055861
0.000279321 -0.161536 -0.0141067
-0.000368985 -0.218691 -0.019098
-0.000793476 -0.143189 -0.0125046
-0.00073662 0.0191481 0.00167218
-0.000228633 0.166724 0.0145599
0.00413111 0.073674 0.243388
0.0100752 0.0522973 0.172768
0.00982985 -0.00219223 -0.00724219
0.0036213 -0.0553604 -0.182888
-0.0047838 -0.0749486 -0.247598
-0.0102871 -0.0490732 -0.162118
-0.0095501 0.00656237 0.0216792
-0.00296415 0.057139 0.188764
0.0054377 -0.112313 0.320368
0.0132608 -0.0797059 0.227395
0.0129378 0.00334118 -0.00953216
0.00476635 0.0843752 -0.240715
-0.00629636 0.114228 -0.325885
-0.0135397 0.0747921 -0.213377
-0.0125697 -0.0100018 0.028534
-0.00390166 -0.0871062 0.248466
0.00344585 -0.230173 0.203016
0.00824735 -0.160363 0.141443
0.00804611 0.00672093 -0.00592798
0.00296421 0.169728 -0.149703
-0.00391574 0.22978 -0.20267
-0.00842046 0.150451 -0.1327
-0.00781744 -0.0201399 0.0177637
-0.00247247 -0.178514 0.157452
0 -0.144569 0
0 -0.109355 0
0 0.00458314 0
0 0.115741 0
0 0.156692 0
0 0.102596 0
0 -0.0137338 0
0 -0.112123 0
-0.0507669 -0.0568755 -0.216863
-0.123813 -0.040441 -0.15394
-0.120797 0.00169528 0.00645297
-0.044502 0.0428105 0.162957
0.0587873 0.0579575 0.220612
0.126418 0.0379486 0.144449
0.117359 -0.00507425 -0.0193166
0.0364262 -0.0441107 -0.168191
-0.0707392 0.0653182 -0.302179
-0.172521 0.0463653 -0.214501
-0.168321 -0.00194359 0.00899158
-0.06201 -0.0490815 0.227065
0.0819156 -0.0664476 0.307407
0.176151 -0.0435069 0.201278
0.163531 0.005818 -0.026916
0.0507568 0.0506585 -0.23436
-0.0478021 0.147891 -0.204198
-0.116581 0.10498 -0.144949
-0.113742 -0.00440059 0.00607608
-0.0419034 -0.111129 0.153441
0.055354 -0.150449 0.20773
0.119034 -0.098508 0.136012
0.110505 0.0131731 -0.0181885
0.034299 0.114699 -0.158369
0.00413111 0.140755 0.017647
0.0100751 0.0999147 0.0125267
0.00982985 -0.00418828 -0.0005251
0.0036213 -0.105768 -0.0132605
-0.0047838 -0.143189 -0.0179522
-0.0102871 -0.0937542 -0.0117544
-0.0095501 0.0125374 0.00157187
-0.00296415 0.109165 0.0136864
0.0535585 0.0482388 0.228788
0.130621 0.0342421 0.162404
0.12744 -0.00143538 -0.00680782
0.046949 -0.036248 -0.171916
-0.0620203 -0.0490732 -0.232743
-0.13337 -0.0321312 -0.152393
-0.123814 0.00429676 0.0203787
-0.0384293 0.0374123 0.17744
0.070498 -0.0735382 0.301149
0.17192 -0.0521882 0.213753
0.167734 0.00218766 -0.00896026
0.061794 0.055245 -0.226274
-0.0816301 0.0747921 -0.306336
-0.175537 0.0489709 -0.200577
-0.162961 -0.00654879 0.0268223
-0.0505837 -0.0570337 0.233561
0.0446744 -0.150708 0.190837
0.106924 -0.104999 0.132957
0.104315 0.0044006 -0.00557235
0.0384301 0.111131 -0.140722
-0.0507663 0.150451 -0.190512
-0.109168 0.0985092 -0.124739
-0.101351 -0.0131868 0.0166981
-0.0320548 -0.116884 0.148007
0 0.0193526 0
0 0.0146386 0
0 -0.000613516 0
0 -0.0154935 0
0 -0.0209753 0
0 -0.0137338 0
0 0.00183846 0
0 0.0150092 0
-0.0668234 0.00761356 -0.0714766
-0.16296 0.00540756 -0.0507472
-0.158991 -0.000226677 0.00212725
-0.0585727 -0.00572431 0.0537202
0.0773755 -0.00774968 0.0727267
0.166388 -0.00507418 0.0476185
0.154468 0.000678555 -0.00636775
0.0479472 0.00590482 -0.0554348
-0.0931127 -0.00874374 -0.0995965
-0.22707 -0.00620027 -0.0707117
-0.22154 0.000259903 0.00296414
-0.0816166 0.00656338 0.0748541
0.107816 0.00888557 0.101339
0.231847 0.00581791 0.0663528
0.215237 -0.000778074 -0.0088729
0.0668102 -0.00678134 -0.0772436
-0.062921 -0.0197972 -0.0673025
-0.153444 -0.0140385 -0.0477835
-0.149707 0.000588467 0.00200304
-0.055152 0.0148606 0.0505828
0.0728565 0.0201185 0.0684794
0.156672 0.0131729 0.0448378
0.145446 -0.0017617 -0.00599586
0.0451471 -0.015354 -0.0521975
0.0054377 -0.018842 0.00581634
0.0132608 -0.0133611 0.00412951
0.0129378 0.000560071 -0.000173104
0.00476635 0.0141435 -0.00437141
-0.00629636 0.0191478 -0.00591807
-0.0135397 0.0125372 -0.00387493
-0.0125697 -0.0016767 0.000518171
-0.00390166 -0.0146132 0.00451096
0.070498 -0.00645742 0.075407
0.17192 -0.00457908 0.0535377
0.167734 0.000191945 -0.00224423
0.061794 0.00484724 -0.0566738
-0.0816301 0.00656227 -0.0767261
-0.175537 0.00429669 -0.0502372
-0.162961 -0.000574631 0.00671791
-0.0505837 -0.00500816 0.0584831
0.0927951 0.00984409 0.0992568
0.226279 0.00697906 0.0704654
0.220768 -0.000292548 -0.00295382
0.0813323 -0.00738777 -0.0745933
-0.107439 -0.0100016 -0.100986
-0.231039 -0.00654869 -0.0661213
-0.214486 0.00087582 0.00884204
-0.0665824 0.00763474 0.0769802
0.058804 0.0201743 0.0628988
0.140742 0.0140556 0.043822
0.137308 -0.000589081 -0.00183662
0.0505848 -0.0148764 -0.0463812
-0.0668227 -0.0201399 -0.0627915
-0.143696 -0.0131868 -0.0411134
-0.133406 0.00176524 0.00550359
-0.0421931 0.0156465 0.0487821
0 0.171535 0
0 0.11951 0
0 -0.00500875 0
0 -0.126489 0
0 -0.171243 0
0 -0.112123 0
0 0.0150092 0
0 0.133037 0
-0.0423458 0.0674843 0.117266
-0.101351 0.0470167 0.0817
-0.0988781 -0.00197051 -0.00342411
-0.036427 -0.0497625 -0.0864712
0.0481202 -0.0673692 -0.117066
0.103478 -0.0441107 -0.0766501
0.0960679 0.00590482 0.0102607
0.030384 0.0523385 0.0909475
-0.0590052 -0.0775018 0.1634
-0.141224 -0.053996 0.113842
-0.137778 0.00226302 -0.00477121
-0.0507579 0.0571493 -0.12049
0.0670514 0.0773696 -0.163121
0.144188 0.0506585 -0.106805
0.133862 -0.00678134 0.0142974
0.0423374 -0.0601077 0.126727
-0.0398729 -0.175476 0.110418
-0.0954322 -0.122256 0.0769288
-0.0931037 0.00512383 -0.00322415
-0.0342997 0.129395 -0.0814213
0.04531 0.175177 -0.110229
0.0974353 0.114699 -0.0721738
0.0904576 -0.015354 0.00966146
0.0286096 -0.136093 0.0856362
0.00344585 -0.167009 -0.00954241
0.00824735 -0.116356 -0.00664826
0.00804611 0.00487659 0.000278634
0.00296421 0.123152 0.00703651
-0.00391574 0.166724 0.00952614
-0.00842045 0.109165 0.00623734
-0.00781744 -0.0146132 -0.000834953
-0.00247247 -0.129527 -0.00740077
0.0446744 -0.0572366 -0.123714
0.106924 -0.0398771 -0.0861926
0.104315 0.00167128 0.0036124
0.0384301 0.0422059 0.0912261
-0.0507663 0.057139 0.123503
-0.109168 0.0374123 0.080865
-0.101351 -0.00500816 -0.0108249
-0.0320548 -0.0443908 -0.0959486
0.058804 0.087255 -0.162843
0.140742 0.0607911 -0.113454
0.137308 -0.00254781 0.00475493
0.0505847 -0.0643413 0.120079
-0.0668227 -0.0871062 0.162565
-0.143696 -0.0570337 0.106441
-0.133406 0.00763474 -0.0142486
-0.0421931 0.067672 -0.126295
0.0372639 0.178819 -0.103193
0.089188 0.124584 -0.0718952
0.0870118 -0.00522143 0.00301319
0.0320554 -0.13186 0.0760938
-0.0423454 -0.178514 0.103017
-0.09106 -0.116884 0.0674514
-0.0845389 0.0156465 -0.0090293
-0.0267376 0.138686 -0.0800329
