# vtk DataFile Version 3.0
Velocity field
ASCII
DATASET STRUCTURED_POINTS
DIMENSIONS 10 10 10
SPACING 0.631579 0.631579 0.631579
ORIGIN 0 0 0
POINT_DATA 1000
VECTORS velocity float
0 0.0323125 0
0 0.0260793 0
0 0.00978452 0
0 -0.0102852 0
0 -0.0263868 0
0 -0.0323082 0
0 -0.0257649 0
0 -0.00928121 0
0 0.0107832 0
0 0.0266874 0
0 0.0198461 0.0253112
0 0.0160177 0.0212295
0 0.00600958 0.00796497
0 -0.00631711 -0.00837256
0 -0.0162066 -0.0214799
0 -0.0198435 -0.0263001
0 -0.0158246 -0.0209736
0 -0.00570045 -0.00755526
0 0.00662296 0.00877793
0 0.0163912 0.0209048
0 -0.000277077 0.0408571
0 -0.000223628 0.0342686
0 -8.39013e-05 0.012857
0 8.81948e-05 -0.0135149
0 0.000226265 -0.0346727
0 0.00027704 -0.0424535
0 0.000220931 -0.0338554
0 7.95855e-05 -0.0121956
0 -9.24649e-05 0.0141693
0 -0.000228842 0.0337444
0 -0.0202934 0.0406401
0 -0.0163787 0.0340865
0 -0.00614501 0.0127887
0 0.00645947 -0.0134431
0 0.0165718 -0.0344885
0 0.0202907 -0.0422279
0 0.0161812 -0.0336755
0 0.00582892 -0.0121309
0 -0.00677221 0.014094
0 -0.0167606 0.0335652
0 -0.0324803 0.0247438
0 -0.0262148 0.0207537
0 -0.00983533 0.00778642
0 0.0103386 -0.00818488
0 0.0265239 -0.0209984
0 0.032476 -0.0257106
0 0.0258987 -0.0205034
0 0.00932941 -0.0073859
0 -0.0108392 0.00858115
0 -0.026826 0.0204362
0 -0.0321361 -0.00069883
0 -0.025937 -0.000586139
0 -0.00973111 -0.00021991
0 0.0102291 0.000231163
0 0.0262428 0.00059305
0 0.0321319 0.000726135
0 0.0256242 0.000579072
0 0.00923055 0.000208598
0 -0.0107243 -0.000242355
0 -0.0265417 -0.000577174
0 -0.0193936 -0.0258718
0 -0.0156525 -0.0216998
0 -0.00587255 -0.0081414
0 0.00617307 0.00855802
0 0.0158371 0.0219557
0 0.019391 0.0268827
0 0.0154638 0.0214381
0 0.00557047 0.00772261
0 -0.00647194 -0.00897236
0 -0.0160174 -0.0213679
0 0.000831165 -0.0410633
0 0.00067083 -0.0344415
0 0.000251684 -0.0129219
0 -0.000264564 0.0135831
0 -0.000678741 0.0348477
0 -0.000831055 0.0426677
0 -0.000662741 0.0340262
0 -0.000238738 0.0122572
0 0.000277373 -0.0142408
0 0.000686471 -0.0339147
0 0.0207352 -0.0404122
0 0.0167353 -0.0338954
0 0.00627881 -0.012717
0 -0.00660012 0.0133678
0 -0.0169327 0.0342951
0 -0.0207325 0.0419912
0 -0.0165335 0.0334867
0 -0.00595583 0.0120628
0 0.00691967 -0.014015
0 0.0171255 -0.033377
0 0.0326395 -0.0241698
0 0.0263432 -0.0195074
0 0.00988353 -0.00731883
0 -0.0103893 0.00769336
0 -0.0266539 0.0197374
0 -0.0326352 0.0241666
0 -0.0260256 0.0192722
0 -0.00937513 0.00694236
0 0.0108923 -0.00806584
0 0.0269574 -0.0199622
0 0.0260793 0
0 0.0221434 0
0 0.00830785 0
0 -0.00873298 0
0 -0.0224046 0
0 -0.0274323 0
0 -0.0218764 0
0 -0.0078805 0
0 0.0091558 0
0 0.0215392 0
0.00368021 0.0160177 0.0280123
0.00964671 0.0129649 0.0226712
0.0118816 0.00486423 0.00850589
0.00953237 -0.00511315 -0.00894117
0.00350554 -0.0131179 -0.0229386
-0.00387376 -0.0160616 -0.0280863
-0.00975852 -0.0128086 -0.022398
-0.0118784 -0.00461403 -0.00806836
-0.00941546 0.00536066 0.00937398
-0.00331106 0.0132292 0.0231358
0.00594057 -0.000223628 0.0452173
0.0155716 -0.000180971 0.0365957
0.0191791 -6.78975e-05 0.0137302
0.0153871 7.1372e-05 -0.0144328
0.00565861 0.000183106 -0.0370274
-0.006253 0.000224196 -0.0453366
-0.0157521 0.00017879 -0.0361546
-0.019174 6.44049e-05 -0.0130239
-0.0151984 -7.48269e-05 0.0151314
-0.0053447 -0.000184697 0.0373456
0.00590901 -0.0163787 0.0449771
0.0154889 -0.0132547 0.0364013
0.0190772 -0.00497298 0.0136572
0.0153054 0.00522746 -0.0143561
0.00562856 0.0134111 -0.0368307
-0.00621978 0.0164206 -0.0450958
-0.0156685 0.013095 -0.0359625
-0.0190721 0.00471717 -0.0129547
-0.0151176 -0.0054805 0.015051
-0.0053163 -0.0135274 0.0371472
0.00359771 -0.0262148 0.0273844
0.00943047 -0.0212147 0.022163
0.0116152 -0.00795944 0.00831523
0.0093187 0.00836674 -0.00874074
0.00342695 0.021465 -0.0224245
-0.00378693 0.0262819 -0.0274567
-0.00953977 0.020959 -0.0218959
-0.0116121 0.00755002 -0.0078875
-0.00920441 -0.00877175 0.00916385
-0.00323684 -0.0216511 0.0226172
-0.000101609 -0.025937 -0.000773409
-0.000266342 -0.0209899 -0.000625942
-0.000328044 -0.0078751 -0.000234844
-0.000263184 0.00827808 0.000246862
-9.67863e-05 0.0212375 0.000633327
0.000106953 0.0260033 0.000775449
0.000269429 0.0207369 0.000618398
0.000327957 0.00747 0.000222764
0.000259957 -0.0086788 -0.000258812
9.14171e-05 -0.0214217 -0.000638769
-0.00376173 -0.0156525 -0.0286328
-0.0098604 -0.012667 -0.0231734
-0.0121447 -0.00475248 -0.00869431
-0.00974351 0.00499568 0.00913922
-0.00358318 0.0128165 0.0234468
0.00395957 0.0156926 0.0287084
0.0099747 0.0125144 0.0228941
0.0121415 0.00450801 0.00824708
0.00962402 -0.0052375 -0.00958162
0.00338441 -0.0129276 -0.0236483
-0.00597054 0.00067083 -0.0454455
-0.0156502 0.00054288 -0.0367804
-0.0192759 0.00020368 -0.0137995
-0.0154647 -0.000214103 0.0145056
-0.00568717 -0.000549284 0.0372143
0.00628456 -0.000672547 0.0455654
0.0158317 -0.000536337 0.0363371
0.0192708 -0.000193203 0.0130896
0.0152751 0.000224467 -0.0152078
0.00537167 0.000554047 -0.0375341
-0.00587588 0.0167353 -0.044725
-0.015402 0.0135432 -0.0361971
-0.0189702 0.00508122 -0.0135806
-0.0152195 -0.00534124 0.0142756
-0.00559699 -0.013703 0.0366241
0.00618489 -0.016778 0.0448429
0.0155806 -0.01338 0.0357608
0.0189652 -0.00481985 0.012882
0.0150328 0.00559979 -0.0149666
0.0052865 0.0138219 -0.036939
-0.00351426 0.0263432 -0.0267492
-0.00918695 0.0212615 -0.0215892
-0.0113152 0.00797696 -0.00809989
-0.00907804 -0.00838517 0.00851439
-0.00333845 -0.0215122 0.0218438
0.00368913 -0.0263397 0.0267456
0.00929342 -0.0210051 0.0213288
0.0113122 -0.00756663 0.00768324
0.00896671 0.00879114 -0.00892662
0.00316176 0.0217572 -0.0220925
0 0.00978452 0
0 0.00830785 0
0 0.00311696 0
0 -0.00327647 0
0 -0.00840581 0
0 -0.0102921 0
0 -0.00820767 0
0 -0.00295663 0
0 0.0034351 0
0 0.00808116 0
0.00594057 0.00600958 0.0199061
0.0155716 0.00486423 0.0161094
0.0191791 0.00182499 0.00604403
0.0153871 -0.00191838 -0.00635332
0.00565861 -0.00492162 -0.0162995
-0.006253 -0.00602607 -0.0199572
-0.0157521 -0.00480561 -0.0159153
-0.019174 -0.00173111 -0.00573312
-0.0151984 0.00201124 0.00666086
-0.0053447 0.00496339 0.0164408
0.00958922 -8.39013e-05 0.0321324
0.0251357 -6.78975e-05 0.0260037
0.0309587 -2.54741e-05 0.00975621
0.0248377 2.67777e-05 -0.0102555
0.00913408 6.86985e-05 -0.0263105
-0.0100935 8.41149e-05 -0.0322148
-0.025427 6.70792e-05 -0.0256903
-0.0309505 2.41637e-05 -0.00925437
-0.0245331 -2.80739e-05 0.0107519
-0.00862737 -6.92952e-05 0.0265386
0.00953828 -0.00614501 0.0319617
0.0250021 -0.00497298 0.0258656
0.0307943 -0.00186578 0.00970438
0.0247058 0.00196126 -0.010201
0.00908555 0.00503164 -0.0261708
-0.0100399 0.00616077 -0.0320437
-0.0252919 0.00491303 -0.0255538
-0.0307861 0.00176981 -0.00920521
-0.0244028 -0.0020562 0.0106948
-0.00858154 -0.00507524 0.0263976
0.0058074 -0.00983533 0.0194599
0.0152226 -0.00795944 0.0157483
0.0187492 -0.00298626 0.00590854
0.0150422 0.00313908 -0.00621089
0.00553176 0.00805333 -0.0159341
-0.00611282 0.00986056 -0.0195098
-0.015399 0.0078635 -0.0155585
-0.0187442 0.00283265 -0.00560461
-0.0148577 -0.00329103 0.00651154
-0.00522489 -0.00812312 0.0160722
-0.000164016 -0.00973111 -0.0005496
-0.000429927 -0.0078751 -0.000444775
-0.000529526 -0.00295462 -0.000166873
-0.00042483 0.00310581 0.000175412
-0.000156232 0.007968 0.000450022
0.000172642 0.00975606 0.00055101
0.00043491 0.00778017 0.000439414
0.000529386 0.00280264 0.000158289
0.00041962 -0.00325615 -0.000183903
0.000147565 -0.00803704 -0.000453922
-0.00607215 -0.00587255 -0.0203471
-0.0159166 -0.00475248 -0.0164663
-0.0196039 -0.00178306 -0.0061779
-0.0157279 0.0018743 0.00649404
-0.00578395 0.00480854 0.0166605
0.0063915 0.00588761 0.0203993
0.0161011 0.0046952 0.0162678
0.0195987 0.00169134 0.00586011
0.015535 -0.00196503 -0.0068084
0.00546308 -0.00485021 -0.0168049
-0.00963761 0.000251684 -0.0322945
-0.0252625 0.00020368 -0.026135
-0.031115 7.64177e-05 -0.00980545
-0.0249631 -8.03283e-05 0.0103072
-0.00918018 -0.000206083 0.0264433
0.0101445 -0.000252329 0.0323773
0.0255553 -0.000201225 0.02582
0.0311067 -7.2487e-05 0.00930108
0.0246569 8.42167e-05 -0.0108062
0.00867091 0.000207869 -0.0266725
-0.0094848 0.00627881 -0.0317825
-0.0248619 0.00508122 -0.0257205
-0.0306216 0.0019064 -0.00964995
-0.0245672 -0.00200395 0.0101438
-0.0090346 -0.00514116 0.026024
0.00998361 -0.00629487 0.031864
0.0251501 -0.00501997 0.0254105
0.0306135 -0.00180833 0.00915358
0.0242659 0.00210096 -0.0106348
0.00853343 0.00518575 -0.0262496
-0.00567269 0.00988353 -0.0190085
-0.0148295 0.00797696 -0.0153417
-0.018265 0.00299282 -0.00575595
-0.0146537 -0.00314597 0.0060505
-0.00538891 -0.00807102 0.0155226
0.00595496 -0.00988222 0.019006
0.0150014 -0.00788078 0.0151567
0.0182601 -0.00283887 0.00545987
0.014474 0.00329829 -0.00634344
0.00510369 0.00816294 -0.0156994
0 -0.0102852 0
0 -0.00873299 0
0 -0.00327647 0
0 0.00344414 0
0 0.00883597 0
0 0.0108188 0
0 0.00862769 0
0 0.00310793 0
0 -0.00361089 0
0 -0.0084947 0
0.00590901 -0.00631711 0.00412002
0.0154889 -0.00511315 0.00333421
0.0190772 -0.00191838 0.00125094
0.0153054 0.00201655 -0.00131496
0.00562856 0.00517347 -0.00337354
-0.00621978 0.00633444 -0.00413059
-0.0156685 0.00505153 -0.00329402
-0.0190721 0.0018197 -0.0011866
-0.0151176 -0.00211416 0.00137861
-0.0053163 -0.00521738 0.00340278
0.00953828 8.81948e-05 0.0066505
0.0250021 7.1372e-05 0.00538205
0.0307943 2.67777e-05 0.00201926
0.0247058 -2.8148e-05 -0.0021226
0.00908555 -7.22141e-05 -0.00544554
-0.0100399 -8.84193e-05 -0.00666757
-0.0252919 -7.05117e-05 -0.00531719
-0.0307861 -2.54003e-05 -0.0019154
-0.0244028 2.95106e-05 0.00222534
-0.00858154 7.28412e-05 0.00549274
0.00948761 0.00645947 0.00661517
0.0248693 0.00522746 0.00535346
0.0306307 0.00196126 0.00200854
0.0245745 -0.00206163 -0.00211132
0.00903729 -0.00528913 -0.00541661
-0.00998659 -0.00647603 -0.00663215
-0.0251576 -0.00516444 -0.00528894
-0.0306226 -0.00186038 -0.00190522
-0.0242731 0.00216142 0.00221352
-0.00853595 0.00533496 0.00546356
0.00577655 0.0103386 0.00402766
0.0151417 0.00836674 0.00325946
0.0186496 0.00313908 0.0012229
0.0149622 -0.00329972 -0.00128548
0.00550237 -0.00846544 -0.00329792
-0.00608035 -0.0103651 -0.00403799
-0.0153173 -0.00826591 -0.00322018
-0.0186446 -0.00297761 -0.00116
-0.0147787 0.00345944 0.00134771
-0.00519713 0.00853881 0.0033265
-0.000163145 0.0102291 -0.000113752
-0.000427643 0.00827808 -9.2056e-05
-0.000526713 0.00310581 -3.4538e-05
-0.000422573 -0.00326475 3.63055e-05
-0.000155402 -0.00837573 9.31421e-05
0.000171725 -0.0102553 0.000114044
0.0004326 -0.00817831 9.09464e-05
0.000526573 -0.00294605 3.27614e-05
0.000417391 0.00342278 -3.80629e-05
0.000146781 0.00844833 -9.39493e-05
-0.0060399 0.00617307 -0.00421128
-0.015832 0.00499568 -0.00340806
-0.0194998 0.0018743 -0.00127865
-0.0156444 -0.00197022 0.00134409
-0.00575322 -0.00505461 0.00344827
0.00635756 -0.0061889 0.00422208
0.0160155 -0.00493547 0.00336698
0.0194946 -0.00177789 0.00121288
0.0154525 0.00206559 -0.00140915
0.00543406 0.00509842 -0.00347815
-0.00958641 -0.000264564 -0.00668406
-0.0251283 -0.000214103 -0.00540921
-0.0309497 -8.03283e-05 -0.00202945
-0.0248304 8.44389e-05 0.00213331
-0.00913141 0.000216629 0.00547302
0.0100906 0.000265242 0.00670121
0.0254196 0.000211523 0.00534402
0.0309415 7.61963e-05 0.00192506
0.0245259 -8.85264e-05 -0.00223657
0.00862484 -0.000218506 -0.00552046
-0.00943442 -0.00660012 -0.00657809
-0.0247298 -0.00534124 -0.00532344
-0.0304589 -0.00200395 -0.00199727
-0.0244367 0.0021065 0.00209948
-0.0089866 0.00540425 0.00538624
0.00993058 0.006617 0.00659495
0.0250165 0.00527687 0.00525928
0.0304508 0.00190087 0.00189454
0.024137 -0.00220847 -0.00220111
0.0084881 -0.00545112 -0.00543293
-0.00564256 -0.0103893 -0.00393424
-0.0147507 -0.00838517 -0.00317531
-0.018168 -0.00314597 -0.00119132
-0.0145759 0.00330696 0.00125228
-0.00536028 0.00848404 0.00321275
0.00592333 0.0103879 0.00393371
0.0149217 0.00828406 0.00313702
0.0181631 0.00298415 0.00113004
0.0143971 -0.00346707 -0.00131292
0.00507658 -0.00858067 -0.00324934
0 -0.0263868 0
0 -0.0224046 0
0 -0.00840581 0
0 0.00883597 0
0 0.0226688 0
0 0.0277558 0
0 0.0221344 0
0 0.00797343 0
0 -0.00926377 0
0 -0.0217932 0
0.00359771 -0.0162066 -0.0132556
0.00943047 -0.0131179 -0.0107274
0.0116152 -0.00492162 -0.00402475
0.0093187 0.00517347 0.00423071
0.00342695 0.0132726 0.0108539
-0.00378693 0.0162511 0.0132897
-0.00953977 0.0129597 0.0105981
-0.0116121 0.00466846 0.00381773
-0.00920441 -0.0054239 -0.00443551
-0.00323684 -0.0133852 -0.010948
0.0058074 0.000226265 -0.0213972
0.0152226 0.000183106 -0.0173161
0.0187492 6.86985e-05 -0.00649673
0.0150422 -7.22141e-05 0.00682919
0.00553176 -0.000185266 0.0175204
-0.00611282 -0.000226841 0.0214521
-0.015399 -0.000180899 0.0171074
-0.0187442 -6.51647e-05 0.00616254
-0.0148577 7.57096e-05 -0.00715977
-0.00522489 0.000186875 -0.0176722
0.00577655 0.0165718 -0.0212835
0.0151417 0.0134111 -0.0172241
0.0186496 0.00503164 -0.00646221
0.0149622 -0.00528913 0.00679291
0.00550237 -0.0135693 0.0174273
-0.00608035 -0.0166144 0.0213381
-0.0153173 -0.0132495 0.0170165
-0.0186446 -0.00477282 0.00612981
-0.0147787 0.00554515 -0.00712173
-0.00519713 0.0136869 -0.0175783
0.00351706 0.0265239 -0.0129585
0.00921908 0.021465 -0.0104869
0.0113548 0.00805333 -0.00393454
0.00910979 -0.00846544 0.00413588
0.00335013 -0.0217182 0.0106107
-0.00370203 -0.0265919 0.0129917
-0.00932594 -0.0212063 0.0103605
-0.0113518 -0.00763909 0.00373214
-0.00899806 0.00887523 -0.00433608
-0.00316428 0.0219064 -0.0107026
-9.93312e-05 0.0262428 0.000365983
-0.000260371 0.0212375 0.000296179
-0.000320691 0.007968 0.000111122
-0.000257285 -0.00837573 -0.000116808
-9.46166e-05 -0.0214881 -0.000299673
0.000104555 -0.0263101 -0.000366921
0.000263389 -0.0209815 -0.000292609
0.000320605 -0.00755813 -0.000105406
0.000254129 0.00878118 0.000122463
8.93678e-05 0.0216743 0.00030227
-0.0036774 0.0158371 0.0135493
-0.00963936 0.0128165 0.010965
-0.0118725 0.00480854 0.00411391
-0.0095251 -0.00505461 -0.00432443
-0.00350287 -0.0129676 -0.0110944
0.0038708 -0.0158777 -0.013584
0.00975108 -0.012662 -0.0108328
0.0118693 -0.0045612 -0.00390229
0.00940829 0.00529929 0.00453376
0.00330854 0.01308 0.0111905
-0.00583671 -0.000678741 0.0215051
-0.0152994 -0.000549284 0.0174035
-0.0188438 -0.000206083 0.00652952
-0.0151181 0.000216629 -0.00686365
-0.00555968 0.000555764 -0.0176088
0.00614367 0.000680481 -0.0215603
0.0154767 0.000542664 -0.0171937
0.0188388 0.000195483 -0.00619364
0.0149326 -0.000227115 0.0071959
0.00525125 -0.00056058 0.0177614
-0.00574416 -0.0169327 0.0211642
-0.0150568 -0.013703 0.0171275
-0.018545 -0.00514116 0.00642597
-0.0148783 0.00540425 -0.00675481
-0.00547151 0.0138647 -0.0173295
0.00604625 0.016976 -0.0212184
0.0152313 0.0135378 -0.016921
0.0185401 0.00487671 -0.00609543
0.0146958 -0.00566585 0.00708179
0.00516799 -0.0139849 0.0174798
-0.00343548 -0.0266539 0.0126579
-0.00898101 -0.0215122 0.0102162
-0.0110616 -0.00807102 0.00383293
-0.00887454 0.00848404 -0.00402907
-0.00326362 0.0217659 -0.0103366
0.00360643 0.0266503 -0.0126562
0.00908509 0.0212528 -0.010093
0.0110587 0.00765586 -0.00363577
0.00876571 -0.00889481 0.00422414
0.00309088 -0.0220138 0.0104543
0 -0.0323082 0
0 -0.0274323 0
0 -0.0102921 0
0 0.0108188 0
0 0.0277558 0
0 0.0339844 0
0 0.0271015 0
0 0.00976272 0
0 -0.0113426 0
0 -0.0266838 0
-0.000101609 -0.0198435 -0.0255172
-0.000266342 -0.0160616 -0.0206503
-0.000328044 -0.00602607 -0.00774767
-0.000263184 0.00633444 0.00814415
-9.67863e-05 0.0162511 0.0208939
0.000106953 0.0198979 0.0255826
0.000269429 0.015868 0.0204014
0.000327957 0.00571609 0.00734915
0.000259957 -0.00664106 -0.00853838
9.14171e-05 -0.016389 -0.021075
-0.000164016 0.00027704 -0.0411896
-0.000429927 0.000224196 -0.0333335
-0.000529526 8.41149e-05 -0.0125062
-0.00042483 -8.84193e-05 0.0131462
-0.000156232 -0.000226841 0.0337268
0.000172642 -0.000277745 0.0412952
0.00043491 -0.000221493 0.0329318
0.000529386 -7.97881e-05 0.0118629
0.00041962 9.26994e-05 -0.0137826
0.000147565 0.000228811 -0.0340191
-0.000163145 0.0202907 -0.0409708
-0.000427643 0.0164206 -0.0331565
-0.000526713 0.00616077 -0.0124398
-0.000422573 -0.00647603 0.0130764
-0.000155402 -0.0166144 0.0335476
0.000171725 -0.0203427 0.0410759
0.0004326 -0.0162227 0.0327568
0.000526573 -0.00584387 0.0117999
0.000417391 0.00678952 -0.0137094
0.000146781 0.0167583 -0.0338384
-9.93312e-05 0.032476 -0.0249452
-0.000260371 0.0262819 -0.0201874
-0.000320691 0.00986056 -0.00757401
-0.000257285 -0.0103651 0.00796159
-9.46166e-05 -0.0265919 0.0204255
0.000104555 -0.0325593 0.0250092
0.000263389 -0.0259651 0.0199441
0.000320605 -0.00935334 0.0071844
0.000254129 0.0108669 -0.00834697
8.93678e-05 0.0268224 -0.0206026
2.80538e-06 0.0321319 0.000704518
7.35358e-06 0.0260033 0.000570145
9.05717e-06 0.00975606 0.00021391
7.26641e-06 -0.0102553 -0.000224856
2.67223e-06 -0.0263101 -0.000576872
-2.95292e-06 -0.0322143 -0.000706326
-7.43882e-06 -0.0256899 -0.000563273
-9.05476e-06 -0.00925423 -0.000202907
-7.17729e-06 0.0107517 0.000235741
-2.52399e-06 0.0265381 0.000581872
0.00010386 0.019391 0.0260824
0.000272241 0.0156926 0.0211077
0.000335311 0.00588761 0.0079193
0.000269015 -0.0061889 -0.00832454
9.89303e-05 -0.0158777 -0.0213567
-0.000109322 -0.0194407 -0.0261493
-0.000275397 -0.0155034 -0.0208533
-0.000335222 -0.00558476 -0.00751193
-0.000265715 0.00648848 0.00872751
-9.3442e-05 0.0160153 0.0215418
0.000164844 -0.000831055 0.0413975
0.000432097 -0.000672547 0.0335017
0.000532199 -0.000252329 0.0125694
0.000426974 0.000265242 -0.0132126
0.00015702 0.000680481 -0.033897
-0.000173514 0.000833187 -0.0415037
-0.000437105 0.000664442 -0.033098
-0.000532057 0.00023935 -0.0119228
-0.000421738 -0.000278081 0.0138521
-0.000148309 -0.000686379 0.0341908
0.00016223 -0.0207325 0.0407411
0.000425244 -0.016778 0.0329705
0.000523759 -0.00629487 0.01237
0.000420203 0.006617 -0.013003
0.00015453 0.016976 -0.0333594
-0.000170762 0.0207855 -0.0408455
-0.000430173 0.0165758 -0.0325731
-0.00052362 0.00597107 -0.0117337
-0.000415051 -0.00693731 0.0136325
-0.000145958 -0.0171232 0.0336487
9.70271e-05 -0.0326352 0.0243665
0.000253648 -0.0263397 0.0196661
0.000312409 -0.00988222 0.00737841
0.000250641 0.0103879 -0.00775598
9.21733e-05 0.0266503 -0.0198981
-0.000101855 0.0326308 -0.0243633
-0.000256587 0.0260221 -0.019429
-0.000312326 0.00937389 -0.00699887
-0.000247567 -0.0108909 0.0081315
-8.72948e-05 -0.0269538 0.0201247
0 -0.0257649 0
0 -0.0218765 0
0 -0.00820767 0
0 0.00862769 0
0 0.0221344 0
0 0.0271015 0
0 0.0216127 0
0 0.00778548 0
0 -0.00904541 0
0 -0.0212795 0
-0.00376173 -0.0158246 -0.027934
-0.0098604 -0.0128086 -0.0226061
-0.0121447 -0.00480561 -0.00848148
-0.00974351 0.00505153 0.00891551
-0.00358318 0.0129597 0.0228728
0.00395957 0.015868 0.0280057
0.0099747 0.0126543 0.0223337
0.0121415 0.00455841 0.0080452
0.00962402 -0.00529605 -0.00934708
0.00338441 -0.0130697 -0.0230711
-0.00607215 0.000220931 -0.0450909
-0.0159166 0.000178789 -0.0364907
-0.0196039 6.70792e-05 -0.0136907
-0.0157279 -7.05117e-05 0.0143913
-0.00578395 -0.000180899 0.0369212
0.0063915 -0.000221493 0.0452065
0.0161011 -0.000176635 0.0360508
0.0195987 -6.36287e-05 0.0129865
0.015535 7.3925e-05 -0.015088
0.00546308 0.00018247 -0.0372412
-0.0060399 0.0161812 -0.0448513
-0.015832 0.013095 -0.0362968
-0.0194998 0.00491303 -0.013618
-0.0156444 -0.00516444 0.0143149
-0.00575322 -0.0132495 0.036725
0.00635756 -0.0162227 0.0449664
0.0160155 -0.0129371 0.0358594
0.0194946 -0.00466032 0.0129175
0.0154525 0.00541444 -0.0150078
0.00543406 0.0133643 -0.0370433
-0.0036774 0.0258987 -0.0273078
-0.00963936 0.020959 -0.0220994
-0.0118725 0.0078635 -0.00829136
-0.0095251 -0.00826591 0.00871565
-0.00350287 -0.0212063 0.0223601
0.0038708 -0.0259651 0.0273778
0.00975108 -0.0207064 0.021833
0.0118693 -0.00745901 0.00786486
0.00940829 0.00866603 -0.00913755
0.00330854 0.02139 -0.0225539
0.00010386 0.0256242 0.000771246
0.000272241 0.0207369 0.000624146
0.000335311 0.00778017 0.00023417
0.000269015 -0.00817831 -0.000246153
9.89303e-05 -0.0209815 -0.000631509
-0.000109322 -0.0256899 -0.000773223
-0.000275397 -0.020487 -0.000616624
-0.000335222 -0.00737996 -0.000222125
-0.000265715 0.0085742 0.000258069
-9.3442e-05 0.0211634 0.000636983
0.00384505 0.0154638 0.0285528
0.0100788 0.0125144 0.0231069
0.0124137 0.0046952 0.00866936
0.00995935 -0.00493547 -0.00911299
0.00366256 -0.012662 -0.0233795
-0.00404727 -0.0155034 -0.028626
-0.0101956 -0.0123635 -0.0228284
-0.0124104 -0.00445368 -0.00822342
-0.0098372 0.00517437 0.00955412
-0.00345937 0.0127717 0.0235821
0.0061028 -0.000662741 0.0453184
0.0159969 -0.000536337 0.0366748
0.0197029 -0.000201225 0.0137598
0.0158073 0.000211523 -0.014464
0.00581313 0.000542664 -0.0371075
-0.00642375 0.000664442 -0.0454347
-0.0161823 0.000529872 -0.0362328
-0.0196976 0.000190874 -0.013052
-0.0156134 -0.000221762 0.0151641
-0.00549065 -0.000547367 0.0374291
0.00600603 -0.0165335 0.0445999
0.0157432 -0.01338 0.0360932
0.0193904 -0.00501997 0.0135416
0.0155566 0.00527687 -0.0142346
0.00572095 0.0135378 -0.036519
-0.0063219 0.0165758 -0.0447142
-0.0159257 0.0132187 -0.0356582
-0.0193853 0.00476175 -0.0128451
-0.0153658 -0.0055323 0.0149237
-0.0054036 -0.0136553 0.0368357
0.0035921 -0.0260256 0.0266744
0.00939044 -0.0210051 0.0215288
0.0115659 -0.00788078 0.00807724
0.00927912 0.00828406 -0.00849058
0.0034124 0.0212528 -0.0217827
-0.00377085 0.0260221 -0.0266708
-0.00949927 0.0207519 -0.0212692
-0.0115628 0.0074754 -0.00766176
-0.00916533 -0.00868514 0.00890166
-0.0032318 -0.0214949 0.0220307
0 -0.00928121 0
0 -0.0078805 0
0 -0.00295663 0
0 0.00310793 0
0 0.00797343 0
0 0.00976272 0
0 0.00778548 0
0 0.00280454 0
0 -0.0032584 0
0 -0.00766547 0
-0.00597054 -0.00570045 -0.0195737
-0.0156502 -0.00461403 -0.0158404
-0.0192759 -0.00173111 -0.00594308
-0.0154647 0.0018197 0.0062472
-0.00568717 0.00466846 0.0160273
0.00628456 0.00571609 0.0196239
0.0158317 0.00455841 0.0156495
0.0192708 0.00164207 0.00563737
0.0152751 -0.00190778 -0.0065496
0.00537167 -0.00470808 -0.0161662
-0.00963761 7.95855e-05 -0.0315957
-0.0252625 6.44049e-05 -0.0255694
-0.031115 2.41637e-05 -0.00959326
-0.0249631 -2.54003e-05 0.0100842
-0.00918018 -6.51647e-05 0.025871
0.0101445 -7.97881e-05 0.0316767
0.0255553 -6.36287e-05 0.0252613
0.0311067 -2.29208e-05 0.00909979
0.0246569 2.66298e-05 -0.0105723
0.00867091 6.57307e-05 -0.0260953
-0.00958641 0.00582892 -0.0314278
-0.0251283 0.00471717 -0.0254336
-0.0309497 0.00176981 -0.0095423
-0.0248304 -0.00186038 0.0100306
-0.00913141 -0.00477282 0.0257336
0.0100906 -0.00584387 0.0315084
0.0254196 -0.00466032 0.0251271
0.0309415 -0.00167877 0.00905145
0.0245259 0.00195043 -0.0105162
0.00862484 0.00481418 -0.0259567
-0.00583671 0.00932941 -0.0191349
-0.0152994 0.00755002 -0.0154853
-0.0188438 0.00283265 -0.00580984
-0.0151181 -0.00297761 0.00610715
-0.00555968 -0.00763909 0.015668
0.00614367 -0.00935334 0.019184
0.0154767 -0.00745901 0.0152987
0.0188388 -0.00268694 0.00551099
0.0149326 0.00312174 -0.00640278
0.00525125 0.00770528 -0.0158038
0.000164844 0.00923055 0.000540421
0.000432097 0.00747 0.000437346
0.000532199 0.00280264 0.000164086
0.000426974 -0.00294605 -0.000172482
0.00015702 -0.00755813 -0.000442505
-0.000173514 -0.00925423 -0.000541807
-0.000437105 -0.00737996 -0.000432075
-0.000532058 -0.00265847 -0.000155645
-0.000421738 0.00308866 0.000180832
-0.000148309 0.00762363 0.000446341
0.0061028 0.00557047 0.0200072
0.0159969 0.00450801 0.0161913
0.0197029 0.00169134 0.00607471
0.0158073 -0.00177789 -0.00638557
0.00581313 -0.0045612 -0.0163823
-0.00642375 -0.00558476 -0.0200586
-0.0161823 -0.00445368 -0.0159961
-0.0196976 -0.00160434 -0.00576224
-0.0156134 0.00186395 0.00669469
-0.00549065 0.00460072 0.0165243
0.00968624 -0.000238738 0.0317551
0.02539 -0.000193203 0.0256984
0.031272 -7.2487e-05 0.00964167
0.025089 7.61963e-05 -0.0101351
0.00922651 0.000195483 -0.0260016
-0.0101957 0.00023935 -0.0318366
-0.0256843 0.000190874 -0.0253887
-0.0312637 6.87583e-05 -0.00914572
-0.0247813 -7.98847e-05 0.0106257
-0.00871466 -0.000197177 0.026227
0.00953267 -0.00595583 0.0312516
0.0249874 -0.00481985 0.025291
0.0307761 -0.00180833 0.00948878
0.0246912 0.00190087 -0.00997436
0.00908019 0.00487671 -0.0255893
-0.010034 0.00597107 -0.0313317
-0.025277 0.00476175 -0.0249861
-0.0307679 0.00171532 -0.00900068
-0.0243883 -0.00199289 0.0104572
-0.00857649 -0.004919 0.0258112
0.00570132 -0.00937513 0.018691
0.0149043 -0.00756663 0.0150855
0.0183572 -0.00283887 0.00565981
0.0147276 0.00298415 -0.00594944
0.0054161 0.00765586 -0.0152634
-0.00598502 0.00937389 -0.0186886
-0.0150771 0.0074754 -0.0149036
-0.0183523 0.00269284 -0.00536868
-0.014547 -0.00312863 0.00623749
-0.00512944 -0.00774305 0.0154372
0 0.0107832 0
0 0.0091558 0
0 0.0034351 0
0 -0.00361089 0
0 -0.00926377 0
0 -0.0113426 0
0 -0.0090454 0
0 -0.0032584 0
0 0.00378571 0
0 0.00890598 0
-0.00587588 0.00662296 -0.00366169
-0.015402 0.00536065 -0.00296334
-0.0189702 0.00201124 -0.0011118
-0.0152195 -0.00211416 0.00116869
-0.00559699 -0.0054239 0.0029983
0.00618489 -0.00664106 0.00367114
0.0155806 -0.00529604 0.00292762
0.0189652 -0.00190778 0.00105461
0.0150328 0.0022165 -0.00122527
0.0052865 0.00546999 -0.00302424
-0.0094848 -9.24649e-05 -0.00591067
-0.0248619 -7.48268e-05 -0.00478339
-0.0306216 -2.80739e-05 -0.00179466
-0.0245672 2.95105e-05 0.0018865
-0.0090346 7.57096e-05 0.00483982
0.00998361 9.26993e-05 0.00592592
0.0251501 7.3925e-05 0.00472574
0.0306135 2.66298e-05 0.00170234
0.0242659 -3.0939e-05 -0.00197782
0.00853343 -7.63679e-05 -0.0048817
-0.00943442 -0.00677221 -0.00587927
-0.0247298 -0.00548049 -0.00475799
-0.0304589 -0.0020562 -0.00178512
-0.0244367 0.00216142 0.00187647
-0.0089866 0.00554515 0.00481412
0.00993058 0.00678951 0.00589444
0.0250165 0.00541443 0.00470064
0.0304508 0.00195043 0.0016933
0.024137 -0.00226605 -0.00196731
0.0084881 -0.00559326 -0.00485577
-0.00574416 -0.0108392 -0.0035796
-0.0150568 -0.00877174 -0.00289691
-0.018545 -0.00329103 -0.00108688
-0.0148783 0.00345944 0.0011425
-0.00547151 0.00887522 0.00293108
0.00604625 0.0108669 0.00358884
0.0152313 0.00866602 0.00286199
0.0185401 0.00312174 0.00103097
0.0146958 -0.0036269 -0.0011978
0.00516799 -0.00895223 -0.00295644
0.00016223 -0.0107243 0.000101098
0.000425244 -0.00867879 8.18165e-05
0.000523759 -0.00325615 3.06963e-05
0.000420203 0.00342278 -3.22671e-05
0.00015453 0.00878117 -8.27817e-05
-0.000170762 0.0107517 -0.000101358
-0.000430173 0.00857419 -8.08303e-05
-0.00052362 0.00308866 -2.91173e-05
-0.000415051 -0.00358846 3.3829e-05
-0.000145958 -0.00885736 8.34979e-05
0.00600603 -0.00647194 0.00374279
0.0157432 -0.0052375 0.00302897
0.0193904 -0.00196503 0.00113643
0.0155566 0.00206559 -0.00119458
0.00572095 0.00529929 -0.00306471
-0.0063219 0.00648848 -0.00375245
-0.0159257 0.00517437 -0.00299247
-0.0193853 0.00186395 -0.00107797
-0.0153658 -0.00216557 0.00125241
-0.0054036 -0.00534526 0.00309123
0.00953267 0.000277373 0.00594049
0.0249874 0.000224467 0.00480753
0.0307761 8.42166e-05 0.00180372
0.0246912 -8.85263e-05 -0.00189602
0.00908019 -0.000227115 -0.00486425
-0.010034 -0.000278081 -0.00595583
-0.025277 -0.000221762 -0.00474959
-0.0307679 -7.98846e-05 -0.00171093
-0.0243883 9.28115e-05 0.0019878
-0.00857649 0.000229086 0.00490634
0.00938153 0.00691967 0.00584631
0.0245911 0.00559979 0.0047313
0.0302881 0.00210096 0.00177511
0.0242996 -0.00220847 -0.00186595
0.0089362 -0.00566585 -0.00478712
-0.00987489 -0.0069373 -0.00586138
-0.0248762 -0.0055323 -0.00467427
-0.0302801 -0.00199289 -0.0016838
-0.0240016 0.00231537 0.00195627
-0.00844051 0.00571504 0.00482855
0.00561092 0.0108923 0.00349657
0.014668 0.00879114 0.00282207
0.0180661 0.00329829 0.00105879
0.0144941 -0.00346707 -0.00111297
0.00533023 -0.00889481 -0.00285535
-0.00589012 -0.0108909 -0.00349611
-0.014838 -0.00868514 -0.00278804
-0.0180613 -0.00312863 -0.00100433
-0.0143164 0.00363493 0.00116686
-0.00504812 0.00899611 0.00288787
0 0.0266874 0
0 0.0215393 0
0 0.00808116 0
0 -0.0084947 0
0 -0.0217932 0
0 -0.0266838 0
0 -0.0212795 0
0 -0.00766548 0
0 0.00890598 0
0 0.0220414 0
-0.00351426 0.0163912 0.013663
-0.00918694 0.0132292 0.0110274
-0.0113152 0.00496339 0.00413728
-0.00907802 -0.00521738 -0.004349
-0.00333845 -0.0133852 -0.0111574
0.00368912 -0.016389 -0.0136612
0.0092934 -0.0130697 -0.0108944
0.0113122 -0.00470808 -0.00392447
0.0089667 0.00546999 0.00455956
0.00316176 0.0135377 0.0112845
-0.00567269 -0.000228842 0.0220548
-0.0148295 -0.000184697 0.0178003
-0.018265 -6.92952e-05 0.00667837
-0.0146537 7.28413e-05 -0.00702013
-0.0053889 0.000186875 -0.0180102
0.00595496 0.000228811 -0.0220518
0.0150013 0.00018247 -0.0175857
0.0182601 6.57307e-05 -0.00633485
0.014474 -7.63679e-05 0.00736002
0.00510369 -0.000189003 0.0182153
-0.00564256 -0.0167606 0.0219376
-0.0147507 -0.0135274 0.0177058
-0.0181679 -0.00507524 0.0066429
-0.0145758 0.00533496 -0.00698284
-0.00536027 0.0136869 -0.0179145
0.00592332 0.0167583 -0.0219347
0.0149217 0.0133643 -0.0174923
0.0181631 0.00481418 -0.00630119
0.0143971 -0.00559326 0.00732092
0.00507658 -0.0138428 0.0181186
-0.00343548 -0.026826 0.0133567
-0.008981 -0.0216511 0.0107802
-0.0110616 -0.00812313 0.00404454
-0.00887453 0.00853881 -0.00425151
-0.00326361 0.0219064 -0.0109073
0.00360643 0.0268224 -0.013355
0.00908508 0.02139 -0.0106502
0.0110586 0.00770528 -0.00383649
0.0087657 -0.00895223 0.00445736
0.00309088 -0.0221559 0.0110315
9.70271e-05 -0.0265417 -0.00037723
0.000253647 -0.0214217 -0.000304461
0.000312409 -0.00803705 -0.000114229
0.00025064 0.00844833 0.000120074
9.21731e-05 0.0216743 0.000308051
-0.000101855 0.0265381 0.00037718
-0.000256587 0.0211634 0.00030079
-0.000312326 0.00762363 0.000108353
-0.000247567 -0.00885737 -0.000125888
-8.72948e-05 -0.0219211 -0.00031156
0.0035921 -0.0160174 -0.0139657
0.00939043 -0.0129276 -0.0112716
0.0115659 -0.00485022 -0.00422893
0.00927911 0.00509842 0.00444534
0.0034124 0.01308 0.0114046
-0.00377084 0.0160153 0.0139638
-0.00949926 0.0127717 0.0111357
-0.0115628 0.00460073 0.0040114
-0.00916532 -0.00534526 -0.00466056
-0.0032318 -0.013229 -0.0115344
0.00570132 0.000686471 -0.0221661
0.0149043 0.000554047 -0.0178901
0.0183571 0.000207869 -0.00671208
0.0147276 -0.000218507 0.00705556
0.0054161 -0.000560581 0.0181011
-0.00598501 -0.000686379 0.0221631
-0.015077 -0.000547367 0.0176744
-0.0183523 -0.000197177 0.00636681
-0.014547 0.000229086 -0.00739716
-0.00512944 0.000566965 -0.0183072
0.00561092 0.0171255 -0.0218146
0.014668 0.0138219 -0.0176065
0.0180661 0.00518575 -0.00660566
0.0144941 -0.00545112 0.00694369
0.00533022 -0.0139849 0.0178141
-0.00589012 -0.0171232 0.0218117
-0.014838 -0.0136553 0.0173942
-0.0180613 -0.004919 0.00626587
-0.0143164 0.00571504 -0.00727988
-0.00504812 0.0141442 -0.018017
0.00335579 0.0269574 -0.0130469
0.00877268 0.0217572 -0.0105301
0.010805 0.00816294 -0.00395072
0.00866868 -0.00858067 0.00415289
0.00318791 -0.0220138 0.0106543
-0.00352278 -0.0269538 0.0130452
-0.00887435 -0.0214949 0.0104032
-0.0108021 -0.00774305 0.0037475
-0.00856238 0.00899611 -0.00435396
-0.00301919 0.0222645 -0.0107756
