# vtk DataFile Version 3.0
Velocity field
ASCII
DATASET STRUCTURED_POINTS
DIMENSIONS 10 10 10
SPACING 0.631579 0.631579 0.631579
ORIGIN 0 0 0
POINT_DATA 1000
VECTORS velocity float
0 0.400034 0
0 0.322866 0
0 0.121134 0
0 -0.127333 0
0 -0.326673 0
0 -0.399981 0
0 -0.318973 0
0 -0.114903 0
0 0.133498 0
0 0.330394 0
0 0.245698 0.313356
0 0.198302 0.262825
0 0.0743995 0.0986075
0 -0.0782067 -0.103654
0 -0.20064 -0.265924
0 -0.245665 -0.325599
0 -0.195911 -0.259656
0 -0.0705725 -0.0935352
0 0.0819932 0.108672
0 0.202925 0.258805
0 -0.00343025 0.505817
0 -0.00276854 0.42425
0 -0.00103871 0.159171
0 0.00109186 -0.167317
0 0.00280119 -0.429253
0 0.0034298 -0.52558
0 0.00273516 -0.419135
0 0.000985281 -0.150984
0 -0.00114473 0.175418
0 -0.00283309 0.417761
0 -0.251235 0.50313
0 -0.202771 0.421997
0 -0.0760762 0.158326
0 0.0799692 -0.166428
0 0.205162 -0.426973
0 0.251202 -0.522788
0 0.200326 -0.416908
0 0.0721629 -0.150182
0 -0.083841 0.174486
0 -0.207498 0.415542
0 -0.402111 0.306332
0 -0.324543 0.256933
0 -0.121763 0.096397
0 0.127994 -0.10133
0 0.32837 -0.259963
0 0.402058 -0.318301
0 0.320629 -0.253835
0 0.1155 -0.0914385
0 -0.134191 0.106236
0 -0.332109 0.253004
0 -0.39785 -0.00865162
0 -0.321103 -0.00725648
0 -0.120473 -0.00272251
0 0.126638 0.00286183
0 0.32489 0.00734206
0 0.397797 0.00898966
0 0.317232 0.00716898
0 0.114276 0.00258247
0 -0.132769 -0.00300039
0 -0.32859 -0.0071455
0 -0.240096 -0.320297
0 -0.19378 -0.268647
0 -0.0727031 -0.100792
0 0.0764235 0.10595
0 0.196065 0.271815
0 0.240064 0.332812
0 0.191444 0.265407
0 0.0689633 0.0956071
0 -0.0801236 -0.111079
0 -0.198298 -0.264538
0 0.0102899 -0.508369
0 0.00830498 -0.426391
0 0.00311589 -0.159975
0 -0.00327534 0.168161
0 -0.00840291 0.431419
0 -0.0102886 0.528233
0 -0.00820484 0.42125
0 -0.00295561 0.151746
0 0.00343392 -0.176303
0 0.00849861 -0.419869
0 0.256705 -0.500309
0 0.207186 -0.419631
0 0.0777326 -0.157438
0 -0.0817104 0.165495
0 -0.209629 0.424579
0 -0.256671 0.519857
0 -0.204688 0.414571
0 -0.0737341 0.14934
0 0.0856665 -0.173507
0 0.212016 -0.413212
0 0.404082 -0.299226
0 0.326133 -0.241504
0 0.12236 -0.0906082
0 -0.128621 0.095245
0 -0.329979 0.244352
0 -0.404028 0.299186
0 -0.322201 0.238592
0 -0.116066 0.0859475
0 0.134848 -0.0998564
0 0.333737 -0.247135
0 0.322866 0
0 0.274139 0
0 0.102852 0
0 -0.108116 0
0 -0.277372 0
0 -0.339616 0
0 -0.270834 0
0 -0.0975618 0
0 0.11335 0
0 0.266659 0
0.0455615 0.198302 0.346797
0.123053 0.165353 0.28914
0.151593 0.06208 0.108556
0.121621 -0.0652585 -0.114114
0.0447262 -0.167421 -0.29276
-0.0494245 -0.204992 -0.358458
-0.124507 -0.163475 -0.285859
-0.151553 -0.0588894 -0.102977
-0.120105 0.068323 0.11947
-0.0409915 0.16378 0.286424
0.0735451 -0.00276854 0.559797
0.198632 -0.00230168 0.466727
0.244701 -0.000864083 0.175229
0.19632 0.000908324 -0.184202
0.0721969 0.00233032 -0.472571
-0.0797806 0.00285325 -0.57862
-0.200977 0.00227538 -0.461432
-0.244636 0.000819671 -0.166224
-0.193873 -0.000951106 0.192848
-0.0661681 -0.00228658 0.462344
0.0731544 -0.202771 0.556823
0.197576 -0.168877 0.464248
0.243401 -0.0634022 0.174298
0.195277 0.0666484 -0.183223
0.0718134 0.170987 -0.47006
-0.079357 0.209357 -0.575546
-0.19991 0.166956 -0.45898
-0.243336 0.0601436 -0.165341
-0.192843 -0.0697802 0.191823
-0.0658166 -0.167471 0.459888
0.0445402 -0.324543 0.339023
0.120295 -0.270294 0.282658
0.148195 -0.101477 0.106122
0.118895 0.106673 -0.111556
0.0437235 0.273671 -0.286197
-0.0483164 0.335085 -0.350421
-0.121715 0.267221 -0.279451
-0.148155 0.0962622 -0.100668
-0.117413 -0.111686 0.116792
-0.0400726 -0.268044 0.280004
-0.00125793 -0.321103 -0.00957491
-0.00339743 -0.26743 -0.00798301
-0.00418542 -0.100402 -0.00299718
-0.00335789 0.105543 0.00315063
-0.00123488 0.270771 0.00808297
0.00136458 0.331534 0.00989688
0.00343757 0.264389 0.00789245
0.00418431 0.095242 0.00284314
0.00331606 -0.110502 -0.00329851
0.00113176 -0.265204 -0.00790805
-0.0465708 -0.19378 -0.354479
-0.125779 -0.161389 -0.295544
-0.154951 -0.0605909 -0.11096
-0.124315 0.0636932 0.116641
-0.045717 0.163405 0.299244
0.050519 0.200075 0.366397
0.127264 0.159554 0.292192
0.15491 0.0574769 0.105258
0.122765 -0.0666863 -0.122116
0.0418995 -0.160046 -0.292769
-0.0739162 0.00830498 -0.562622
-0.199633 0.00691479 -0.46908
-0.245934 0.00259602 -0.176113
-0.19731 -0.00272893 0.185131
-0.072561 -0.0070011 0.474954
0.0801826 -0.00857218 0.581538
0.201991 -0.00683607 0.463758
0.245869 -0.00246259 0.167062
0.19485 0.00285723 -0.19382
0.066502 0.00685919 -0.464677
-0.0727443 0.207186 -0.553702
-0.196401 0.172407 -0.461493
-0.241952 0.0647256 -0.173262
-0.194115 -0.0680394 0.182133
-0.071386 -0.174556 0.467266
0.0788846 -0.213727 0.572123
0.198721 -0.170441 0.45625
0.241888 -0.0613989 0.164358
0.191696 0.0712407 -0.190687
0.0654476 0.171117 -0.45731
-0.043507 0.326133 -0.331159
-0.113736 0.263221 -0.267277
-0.140084 0.098756 -0.100278
-0.112387 -0.10381 0.105409
-0.0413306 -0.266325 0.270429
0.045672 -0.32609 0.331115
0.115054 -0.260047 0.264054
0.140047 -0.0936761 0.0951197
0.111009 0.108836 -0.110513
0.0391431 0.269358 -0.273509
0 0.121134 0
0 0.102852 0
0 0.0385885 0
0 -0.0405632 0
0 -0.104065 0
0 -0.127418 0
0 -0.101612 0
0 -0.0366035 0
0 0.0425271 0
0 0.100046 0
0.0735451 0.0743995 0.246441
0.198632 0.06208 0.205393
0.244701 0.0233077 0.0771131
0.19632 -0.0245012 -0.081061
0.0721969 -0.0628581 -0.207964
-0.0797806 -0.0769637 -0.254632
-0.200977 -0.0613763 -0.203061
-0.244636 -0.0221099 -0.0731503
-0.193873 0.0256506 0.0848667
-0.0661681 0.0614475 0.203539
0.118716 -0.00103871 0.397803
0.320629 -0.000864083 0.331543
0.394996 -0.000324398 0.124475
0.316899 0.000341003 -0.130849
0.116539 0.00087485 -0.335693
-0.128781 0.00107118 -0.411025
-0.324415 0.00085423 -0.32778
-0.39489 0.000307724 -0.118078
-0.312948 -0.000357053 0.136991
-0.106808 -0.000857885 0.328551
0.118085 -0.0760762 0.39569
0.318927 -0.0634021 0.329782
0.392897 -0.0238038 0.123814
0.315216 0.0250226 -0.130154
0.11592 0.0641957 -0.33391
-0.128097 0.0786019 -0.408841
-0.322692 0.0626826 -0.326038
-0.392792 0.0225805 -0.117451
-0.311285 -0.0261973 0.136263
-0.106241 -0.0628323 0.326806
0.0718965 -0.121763 0.240917
0.194178 -0.101477 0.200788
0.239216 -0.038099 0.0753845
0.191919 0.0400496 -0.0792446
0.0705783 0.102748 -0.203302
-0.077992 0.125805 -0.248924
-0.196473 0.100326 -0.198511
-0.239152 0.036141 -0.0715103
-0.189527 -0.0419298 0.0829642
-0.0646849 -0.100566 0.198977
-0.00203055 -0.120473 -0.00680413
-0.00548411 -0.100402 -0.00567081
-0.00675606 -0.0376952 -0.00212906
-0.0054203 0.0396254 0.00223807
-0.00199332 0.101659 0.00574182
0.0022027 0.124472 0.00703031
0.00554889 0.0992629 0.00560644
0.00675427 0.035758 0.00201964
0.00535277 -0.0414855 -0.00234312
0.00182687 -0.0994999 -0.00561963
-0.0751742 -0.0727031 -0.2519
-0.203031 -0.0605909 -0.209942
-0.250121 -0.0227484 -0.0788215
-0.200668 0.0239131 0.082857
-0.0737958 0.0613494 0.212571
0.0815473 0.0751166 0.260273
0.205429 0.0599034 0.207559
0.250055 0.0215793 0.0747701
0.198168 -0.0250357 -0.0867465
0.0676338 -0.0600464 -0.208048
-0.119315 0.00311589 -0.399811
-0.322245 0.00259602 -0.333215
-0.396987 0.000974644 -0.125103
-0.318497 -0.00102454 0.131509
-0.117127 -0.00262847 0.337386
0.12943 -0.00321832 0.413098
0.326051 -0.00256652 0.329433
0.396881 -0.000924552 0.118674
0.314526 0.00107267 -0.137682
0.107347 0.00257345 -0.330209
-0.117423 0.0777326 -0.393472
-0.31703 0.0647256 -0.327825
-0.390558 0.0243 -0.123078
-0.31334 -0.0255442 0.12938
-0.11523 -0.0655338 0.331925
0.127334 -0.08024 0.406411
0.320773 -0.0639891 0.3241
0.390454 -0.0230512 0.116753
0.309434 0.0267449 -0.135456
0.105645 0.0642004 -0.324974
-0.0702287 0.12236 -0.235328
-0.183591 0.098756 -0.189933
-0.226123 0.0370516 -0.0712595
-0.181415 -0.0389476 0.0749061
-0.0667155 -0.0999205 0.192172
0.0737233 -0.122343 0.235297
0.185719 -0.0975652 0.187643
0.226063 -0.0351457 0.067594
0.17919 0.0408333 -0.0785328
0.0631844 0.101058 -0.194361
0 -0.127333 0
0 -0.108116 0
0 -0.0405632 0
0 0.0426389 0
0 0.109391 0
0 0.133939 0
0 0.106812 0
0 0.0384767 0
0 -0.0447033 0
0 -0.105166 0
0.0731544 -0.0782067 0.0510064
0.197576 -0.0652585 0.0425101
0.243401 -0.0245012 0.0159601
0.195277 0.0257557 -0.0167772
0.0718134 0.0660765 -0.0430424
-0.079357 0.0809042 -0.0527013
-0.19991 0.0645188 -0.0420276
-0.243336 0.023242 -0.0151398
-0.192843 -0.0269638 0.0175648
-0.0658166 -0.064592 0.0421269
0.118085 0.00109186 0.0823342
0.318927 0.000908323 0.0686193
0.392897 0.000341003 0.0257627
0.315216 -0.000358465 -0.0270817
0.11592 -0.000919638 -0.0694785
-0.128097 -0.00112602 -0.08507
-0.322692 -0.000897966 -0.0678405
-0.392792 -0.000323477 -0.0244386
-0.311285 0.000375333 0.028353
-0.106241 0.000901786 0.068001
0.117458 0.0799692 0.0818968
0.317233 0.0666484 0.0682548
0.390809 0.0250226 0.0256258
0.313541 -0.0263038 -0.0269378
0.115304 -0.0674824 -0.0691093
-0.127416 -0.0826261 -0.0846179
-0.320979 -0.0658921 -0.0674801
-0.390705 -0.0237366 -0.0243088
-0.309632 0.0275385 0.0282024
-0.105676 0.0660476 0.0676397
0.0715145 0.127994 0.0498631
0.193147 0.106673 0.0415571
0.237945 0.0400496 0.0156023
0.190899 -0.0421002 -0.0164012
0.0702035 -0.108008 -0.0420773
-0.0775776 -0.132247 -0.0515198
-0.195429 -0.105463 -0.0410855
-0.237882 -0.0379914 -0.0148005
-0.18852 0.0440765 0.0171711
-0.0643413 0.105712 0.0411826
-0.00201976 0.126638 -0.00140827
-0.00545497 0.105543 -0.00117368
-0.00672017 0.0396254 -0.000440651
-0.00539154 -0.0416541 0.000463214
-0.00198273 -0.106864 0.00118838
0.002191 -0.130845 0.00145506
0.00551942 -0.104345 0.00116036
0.00671838 -0.0375887 0.000418004
0.00532432 0.0436094 -0.000484957
0.00181717 0.104592 -0.00116311
-0.0747748 0.0764235 -0.0521363
-0.201952 0.0636932 -0.0434516
-0.248792 0.0239131 -0.0163136
-0.199603 -0.0251375 0.0171489
-0.0734041 -0.0644905 0.0439955
0.0811141 -0.0789629 0.0538685
0.204338 -0.0629705 0.0429587
0.248726 -0.0226842 0.0154752
0.197115 0.0263176 -0.0179539
0.0672745 0.0631192 -0.0430601
-0.118681 -0.00327534 -0.0827497
-0.320534 -0.00272893 -0.0689653
-0.394878 -0.00102454 -0.0258925
-0.316805 0.001077 0.0272182
-0.116505 0.00276305 0.0698287
0.128742 0.0033831 0.0854991
0.324319 0.00269793 0.0681826
0.394773 0.000971888 0.0245619
0.312855 -0.00112759 -0.0284959
0.106777 -0.00270514 -0.0683441
-0.116799 -0.0817104 -0.0814377
-0.315345 -0.0680394 -0.0678499
-0.388483 -0.0255442 -0.0254734
-0.311674 0.026852 0.0267776
-0.114618 0.0688891 0.0686984
0.126658 0.0843482 0.0841148
0.31907 0.0672652 0.067079
0.38838 0.0242313 0.0241643
0.30779 -0.0281142 -0.0280354
0.105084 -0.0674857 -0.0672605
-0.0698557 -0.128621 -0.0487064
-0.182616 -0.10381 -0.0393108
-0.224922 -0.0389476 -0.0147487
-0.180451 0.0409407 0.0155035
-0.0663611 0.105034 0.0397743
0.0733317 0.128604 0.0487
0.184733 0.102558 0.0388368
0.224862 0.0369442 0.0139901
0.178238 -0.0429229 -0.0162541
0.0628488 -0.10623 -0.0402273
0 -0.326673 0
0 -0.277372 0
0 -0.104065 0
0 0.109391 0
0 0.280643 0
0 0.343621 0
0 0.274028 0
0 0.0987123 0
0 -0.114687 0
0 -0.269804 0
0.0445402 -0.20064 -0.164107
0.120295 -0.167421 -0.13677
0.148195 -0.0628581 -0.0513495
0.118895 0.0660765 0.0539786
0.0437235 0.16952 0.138483
-0.0483164 0.207561 0.169559
-0.121715 0.165524 0.135218
-0.148155 0.0596276 0.0487105
-0.117413 -0.069176 -0.0565127
-0.0400726 -0.165711 -0.135538
0.0718965 0.00280119 -0.2649
0.194178 0.00233032 -0.220774
0.239216 0.00087485 -0.0828881
0.191919 -0.000919638 0.0871319
0.0705783 -0.00235935 0.223538
-0.077992 -0.00288883 0.273701
-0.196473 -0.00230373 0.218269
-0.239152 -0.000829883 0.0786283
-0.189527 0.000962917 -0.0912222
-0.0646849 0.00231354 -0.218785
0.0715145 0.205162 -0.263493
0.193147 0.170987 -0.219601
0.237945 0.0641956 -0.0824477
0.190899 -0.0674824 0.0866692
0.0702035 -0.173128 0.22235
-0.0775776 -0.211979 0.272247
-0.195429 -0.169046 0.217109
-0.237882 -0.0608964 0.0782105
-0.18852 0.0706504 -0.0907375
-0.0643413 0.169446 -0.217622
0.0435418 0.32837 -0.160428
0.117598 0.273671 -0.133705
0.144873 0.102748 -0.0501984
0.11623 -0.108008 0.0527688
0.0427437 -0.277097 0.135378
-0.0472332 -0.33928 0.165758
-0.118987 -0.270565 0.132188
-0.144835 -0.0974672 0.0476185
-0.114781 0.113079 -0.0552457
-0.0391743 0.271205 -0.1325
-0.00122974 0.32489 0.00453092
-0.00332129 0.270771 0.00377618
-0.0040916 0.101659 0.00141774
-0.00328263 -0.106864 -0.00149032
-0.00120719 -0.27416 -0.00382345
0.00133401 -0.335684 -0.00468144
0.0033605 -0.267698 -0.00373333
0.00409051 -0.0964344 -0.00134488
0.00324172 0.111881 0.00156029
0.00110639 0.268331 0.00374215
-0.0455268 0.196065 0.167742
-0.122959 0.163405 0.1398
-0.151478 0.0613494 0.052487
-0.121528 -0.0644905 -0.0551743
-0.0446921 -0.165451 -0.14155
0.0493868 -0.202579 -0.173315
0.124412 -0.161551 -0.138214
0.151437 -0.0581964 -0.0497896
0.120014 0.0675178 0.0577643
0.0409602 0.161933 0.13854
-0.0722593 -0.00840291 0.266237
-0.195157 -0.0070011 0.221887
-0.240422 -0.00262847 0.0833059
-0.192887 0.00276305 -0.087571
-0.0709341 0.00708865 -0.224666
0.0783854 0.00867941 -0.275081
0.197464 0.00692157 -0.219369
0.240358 0.00249339 -0.0790248
0.190482 -0.00289284 0.0916823
0.0650113 -0.00694007 0.219889
-0.0711136 -0.209629 0.262016
-0.191998 -0.174556 0.218298
-0.236529 -0.0655338 0.0819575
-0.189763 0.0688891 -0.0861541
-0.0697857 0.176735 -0.221029
0.077116 0.216396 -0.270628
0.194266 0.17257 -0.215818
0.236466 0.0621656 -0.0777454
0.187399 -0.0721272 0.0902001
0.0639805 -0.173135 0.216402
-0.0425318 -0.329979 0.156707
-0.111186 -0.266325 0.126478
-0.136944 -0.0999205 0.0474522
-0.109868 0.105034 -0.0498805
-0.0404041 0.269465 -0.127969
0.0446482 0.329935 -0.156686
0.112475 0.263113 -0.124952
0.136908 0.0947807 -0.0450113
0.108521 -0.110119 0.0522955
0.0382656 -0.272534 0.129426
0 -0.399981 0
0 -0.339616 0
0 -0.127418 0
0 0.133939 0
0 0.343621 0
0 0.420732 0
0 0.335521 0
0 0.120864 0
0 -0.140423 0
0 -0.330349 0
-0.00125793 -0.245665 -0.315907
-0.00339744 -0.204992 -0.263285
-0.00418542 -0.0769637 -0.0988484
-0.00335789 0.0809042 0.103909
-0.00123488 0.207561 0.266581
0.00136458 0.254139 0.326402
0.00343757 0.202668 0.260296
0.00418431 0.0730086 0.0937679
0.00331606 -0.0846996 -0.108787
0.00113176 -0.202898 -0.260912
-0.00203055 0.0034298 -0.509934
-0.00548411 0.00285325 -0.424992
-0.00675606 0.00107118 -0.15956
-0.0054203 -0.00112602 0.167729
-0.00199332 -0.00288883 0.430311
0.0022027 -0.00353709 0.526877
0.00554889 -0.00282072 0.420169
0.00675427 -0.00101611 0.151359
0.00535277 0.00117901 -0.175603
0.00182687 0.00283271 -0.421162
-0.00201976 0.251202 -0.507225
-0.00545497 0.209357 -0.422735
-0.00672017 0.0786019 -0.158713
-0.00539154 -0.0826261 0.166838
-0.00198273 -0.211979 0.428025
0.002191 -0.259548 0.524078
0.00551942 -0.206981 0.417936
0.00671838 -0.0745618 0.150555
0.00532433 0.086505 -0.17467
0.00181717 0.207471 -0.418924
-0.00122974 0.402058 -0.308825
-0.00332129 0.335085 -0.257382
-0.0040916 0.125805 -0.0966323
-0.00328263 -0.132247 0.10158
-0.00120719 -0.33928 0.260604
0.00133401 -0.415416 0.319086
0.0033605 -0.331282 0.254461
0.00409051 -0.11934 0.0916661
0.00324172 0.138454 -0.106349
0.00110639 0.332065 -0.255063
3.4731e-05 0.397797 0.00872204
9.38012e-05 0.331534 0.00726915
0.000115558 0.124472 0.00272914
9.27105e-05 -0.130845 -0.0028689
3.40943e-05 -0.335684 -0.00736015
-3.76753e-05 -0.411013 -0.00901183
-9.49109e-05 -0.327771 -0.00718668
-0.000115528 -0.118075 -0.00258889
-9.15547e-05 0.136987 0.00300356
-3.12473e-05 0.328546 0.00720366
0.0012858 0.240064 0.322904
0.00347268 0.200075 0.269116
0.00427813 0.0751165 0.101037
0.00343229 -0.0789629 -0.106211
0.00126222 -0.202579 -0.272484
-0.00139481 -0.248039 -0.333632
-0.00351373 -0.197805 -0.266063
-0.004277 -0.0712561 -0.0958449
-0.00338951 0.0826694 0.111197
-0.00115683 0.198272 0.266691
0.0020408 -0.0102886 0.512507
0.00551176 -0.00857218 0.427134
0.00679014 -0.00321832 0.160364
0.00544761 0.0033831 -0.168575
0.00200337 0.00867941 -0.43248
-0.00221381 0.0106271 -0.529535
-0.00557687 0.00847478 -0.422288
-0.00678834 0.00305292 -0.152123
-0.00537975 -0.003542 0.176488
-0.00183609 -0.00849747 0.423287
0.00200844 -0.256671 0.504381
0.00542255 -0.213727 0.420226
0.00668019 -0.08024 0.157769
0.00535946 0.0843482 -0.165847
0.00197093 0.216396 -0.425481
-0.00217796 0.264958 -0.520962
-0.00548656 0.211296 -0.415452
-0.00667842 0.0761162 -0.14966
-0.00529264 -0.088313 0.173636
-0.00180698 -0.211988 0.416576
0.00120121 -0.404028 0.301661
0.0031402 -0.32609 0.24347
0.00386767 -0.122343 0.0913457
0.00310297 0.128604 -0.0960202
0.00114112 0.329935 -0.246341
-0.00126098 0.403975 -0.301621
-0.00317659 0.322158 -0.240534
-0.00386664 0.11605 -0.086647
-0.00306492 -0.134831 0.100669
-0.00108072 -0.333692 0.249146
0 -0.318973 0
0 -0.270834 0
0 -0.101612 0
0 0.106812 0
0 0.274028 0
0 0.335521 0
0 0.267568 0
0 0.0963854 0
0 -0.111984 0
0 -0.263444 0
-0.0465708 -0.195911 -0.345827
-0.125779 -0.163475 -0.288221
-0.154951 -0.0613763 -0.10821
-0.124315 0.0645188 0.113751
-0.045717 0.165524 0.29183
0.050519 0.202668 0.357317
0.127264 0.161622 0.28495
0.15491 0.058222 0.102649
0.122765 -0.0675454 -0.119091
0.0418995 -0.161805 -0.285623
-0.0751742 0.00273516 -0.558232
-0.203031 0.00227538 -0.465244
-0.250121 0.00085423 -0.174672
-0.200668 -0.000897966 0.183616
-0.0737958 -0.00230373 0.471068
0.0815473 -0.00282072 0.576779
0.205429 -0.00224945 0.459963
0.250055 -0.000810326 0.165695
0.198168 0.000940223 -0.192235
0.0676338 0.00225901 -0.461051
-0.0747748 0.200326 -0.555266
-0.201952 0.166956 -0.462772
-0.248792 0.0626826 -0.173744
-0.199603 -0.0658921 0.18264
-0.0734041 -0.169046 0.468565
0.081114 -0.206981 0.573715
0.204338 -0.165062 0.45752
0.248726 -0.0594612 0.164815
0.197115 0.068985 -0.191214
0.0672745 0.165452 -0.458602
-0.0455268 0.320629 -0.338075
-0.122959 0.267221 -0.28176
-0.151478 0.100326 -0.105785
-0.121528 -0.105463 0.111201
-0.0446921 -0.270565 0.285287
0.0493868 -0.331282 0.349306
0.124412 -0.264188 0.278563
0.151437 -0.0951696 0.100348
0.120014 0.110413 -0.116421
0.0409602 0.264812 -0.279221
0.0012858 0.317232 0.00954814
0.00347269 0.264389 0.00795765
0.00427813 0.099263 0.00298763
0.00343229 -0.104345 -0.00314061
0.00126222 -0.267698 -0.00805725
-0.00139481 -0.327771 -0.00986541
-0.00351373 -0.261388 -0.00786736
-0.004277 -0.0941611 -0.0028341
-0.0033895 0.109243 0.00328804
-0.00115683 0.262006 0.00788594
0.0476023 0.191444 0.353487
0.128565 0.159554 0.294605
0.158384 0.0599034 0.110607
0.127069 -0.0629705 -0.11627
0.0467296 -0.161551 -0.298292
-0.0516382 -0.197805 -0.365232
-0.130084 -0.157744 -0.291263
-0.158342 -0.0568247 -0.104923
-0.125485 0.0659265 0.121728
-0.0428276 0.158116 0.29195
0.0755535 -0.00820484 0.561049
0.204054 -0.00683607 0.467589
0.251383 -0.00256652 0.175552
0.20168 0.00269793 -0.184542
0.0741677 0.00692157 -0.473443
-0.0819586 0.00847478 -0.579688
-0.206465 0.00675838 -0.462283
-0.251316 0.00243461 -0.166531
-0.199167 -0.00282464 0.193204
-0.0679751 -0.00677648 0.463378
0.0743556 -0.204688 0.552153
0.200751 -0.170441 0.460026
0.247312 -0.0639891 0.172712
0.198415 0.0672652 -0.181554
0.0729674 0.17257 -0.46578
-0.0806315 0.211296 -0.570304
-0.203122 0.168502 -0.4548
-0.247246 0.0607003 -0.163835
-0.195942 -0.070427 0.190081
-0.0668974 -0.169054 0.456031
0.0444707 -0.322201 0.330233
0.116255 -0.260047 0.26653
0.143187 -0.0975652 0.0999974
0.114877 0.102558 -0.105115
0.0422461 0.263113 -0.269673
-0.0466836 0.322158 -0.330189
-0.117602 0.256911 -0.263316
-0.143149 0.0925465 -0.0948537
-0.113468 -0.107523 0.110204
-0.0400101 -0.26611 0.272744
0 -0.114903 0
0 -0.0975618 0
0 -0.0366035 0
0 0.0384767 0
0 0.0987123 0
0 0.120864 0
0 0.0963854 0
0 0.0347207 0
0 -0.0403396 0
0 -0.0948997 0
-0.0739162 -0.0705725 -0.242325
-0.199633 -0.0588894 -0.20196
-0.245934 -0.0221099 -0.0758246
-0.19731 0.0232421 0.0797072
-0.072561 0.0596277 0.204489
0.0801826 0.0730086 0.250378
0.201991 0.0582221 0.199669
0.245869 0.0209737 0.0719279
0.19485 -0.0243323 -0.0834486
0.066502 -0.0582867 -0.20014
-0.119315 0.000985281 -0.391159
-0.322245 0.000819671 -0.326002
-0.396987 0.000307724 -0.122395
-0.318497 -0.000323477 0.128662
-0.117127 -0.000829884 0.330084
0.12943 -0.00101611 0.404157
0.326051 -0.000810326 0.322303
0.396881 -0.000291908 0.116105
0.314526 0.000338702 -0.134702
0.107347 0.000813756 -0.323064
-0.118681 0.0721629 -0.389081
-0.320534 0.0601436 -0.32427
-0.394878 0.0225805 -0.121745
-0.316805 -0.0237366 0.127979
-0.116505 -0.0608965 0.328331
0.128742 -0.0745619 0.40201
0.324319 -0.0594612 0.320592
0.394773 -0.0214201 0.115488
0.312855 0.0248509 -0.133986
0.106777 0.0596003 -0.321348
-0.0722593 0.1155 -0.236893
-0.195157 0.0962622 -0.197434
-0.240422 0.036141 -0.0741246
-0.192887 -0.0379914 0.0779201
-0.0709341 -0.0974673 0.199905
0.0783854 -0.11934 0.244765
0.197464 -0.0951697 0.195193
0.240358 -0.0342835 0.0703154
0.190482 0.0397749 -0.0815777
0.0650113 0.0953926 -0.195653
0.0020408 0.114276 0.00669049
0.00551176 0.0952421 0.00557604
0.00679014 0.035758 0.00209348
0.00544761 -0.0375887 -0.00220067
0.00200337 -0.0964345 -0.00564583
-0.00221381 -0.118075 -0.0069128
-0.00557687 -0.0941612 -0.00551275
-0.00678834 -0.0339202 -0.0019859
-0.00537975 0.0393534 0.00230398
-0.00183609 0.0943817 0.00552577
0.0755535 0.0689633 0.247693
0.204054 0.0574769 0.206434
0.251383 0.0215794 0.0775041
0.20168 -0.0226842 -0.0814722
0.0741677 -0.0581965 -0.209018
-0.0819586 -0.0712562 -0.255923
-0.206465 -0.0568247 -0.204091
-0.251316 -0.0204702 -0.0735211
-0.199167 0.023749 0.0852971
-0.0679751 0.0569577 0.204573
0.119917 -0.00295561 0.393133
0.323869 -0.0024626 0.327646
0.398988 -0.000924553 0.123013
0.320102 0.000971888 -0.129311
0.117718 0.0024934 -0.331749
-0.130083 0.00305292 -0.406194
-0.327696 0.00243461 -0.323927
-0.398882 0.000877035 -0.116691
-0.316112 -0.00101754 0.135381
-0.107889 -0.00244108 0.324694
0.118016 -0.0737341 0.3869
0.318628 -0.0613989 0.322347
0.392528 -0.0230512 0.121021
0.31492 0.0242313 -0.127218
0.115812 0.0621657 -0.326378
-0.127976 0.0761162 -0.399621
-0.322389 0.0607003 -0.318687
-0.392424 0.0218664 -0.114802
-0.310994 -0.0253703 0.133193
-0.106178 -0.060898 0.319546
0.0705831 -0.116066 0.231398
0.184518 -0.0936761 0.18676
0.227264 -0.0351457 0.0700693
0.18233 0.0369442 -0.073655
0.0670521 0.0947807 -0.188963
-0.0740954 0.11605 -0.231367
-0.186656 0.0925465 -0.184508
-0.227204 0.0333378 -0.066465
-0.180095 -0.0387329 0.0772211
-0.0635033 -0.0958601 0.191115
0 0.133498 0
0 0.11335 0
0 0.0425271 0
0 -0.0447033 0
0 -0.114687 0
0 -0.140423 0
0 -0.111983 0
0 -0.0403395 0
0 0.0468677 0
0 0.110257 0
-0.0727443 0.0819932 -0.0453322
-0.196401 0.0683212 -0.0378599
-0.241952 0.0256499 -0.0142152
-0.194115 -0.0269631 0.0149431
-0.071386 -0.0691742 0.0383365
0.0788846 -0.0846974 0.0469394
0.198721 -0.0675436 0.0374328
0.241888 -0.0243316 0.0134847
0.191696 0.0282306 -0.0156424
0.0654476 0.0677193 -0.0374405
-0.117423 -0.00114473 -0.0731749
-0.31703 -0.000951079 -0.0611132
-0.390558 -0.000357043 -0.0229461
-0.31334 0.000375322 0.024121
-0.115231 0.000962889 0.0618826
0.127334 0.00117897 0.0757694
0.320773 0.000940196 0.0604238
0.390454 0.000338692 0.0217669
0.309434 -0.000393016 -0.0252497
0.105645 -0.000945446 -0.0604362
-0.116799 -0.083841 -0.0727862
-0.315345 -0.0697783 -0.0607885
-0.388483 -0.0261966 -0.0228241
-0.311674 0.0275378 0.0239928
-0.114618 0.0706484 0.0615538
0.126658 0.0865026 0.0753669
0.31907 0.0689831 0.0601029
0.38838 0.0248502 0.0216513
0.30779 -0.0288331 -0.0251156
0.105084 -0.0692454 -0.0601152
-0.0711136 -0.134191 -0.044316
-0.191998 -0.111683 -0.0370111
-0.236529 -0.0419286 -0.0138965
-0.189763 0.0440752 0.0146081
-0.0697857 0.113076 0.0374771
0.077116 0.138451 0.0458874
0.194266 0.11041 0.0365938
0.236466 0.0397737 0.0131824
0.187399 -0.0461487 -0.0152917
0.0639805 -0.11083 -0.0366012
0.00200844 -0.132769 0.0012516
0.00542256 -0.110499 0.0010453
0.00668019 -0.0414843 0.000392474
0.00535946 0.0436082 -0.000412571
0.00197093 0.111878 -0.00105845
-0.00217796 0.136983 -0.00129598
-0.00548656 0.10924 -0.00103351
-0.00667842 0.0393522 -0.000372306
-0.00529264 -0.0456596 0.000431878
-0.00180698 -0.109655 0.00103372
0.0743556 -0.0801236 0.0463364
0.200751 -0.0666845 0.0386985
0.247312 -0.025035 0.01453
0.198415 0.0263169 -0.015274
0.0729674 0.067516 -0.0391858
-0.0806315 0.0826671 -0.0479792
-0.203122 0.0659247 -0.038262
-0.247246 0.0237483 -0.0137834
-0.195942 -0.0275547 0.0159888
-0.0668974 -0.0661752 0.0382698
0.118016 0.00343392 0.0735442
0.318628 0.00285716 0.0614213
0.392528 0.00107264 0.0230618
0.31492 -0.00112755 -0.0242425
0.115812 -0.00289276 -0.0621945
-0.127976 -0.00354191 -0.0761514
-0.322389 -0.00282456 -0.0607284
-0.392424 -0.00101751 -0.0218766
-0.310994 0.00118062 0.025377
-0.106178 0.00283612 0.0607412
0.116145 0.0856665 0.0723782
0.313472 0.0712388 0.0604258
0.386173 0.0267442 0.0226877
0.309821 -0.0281135 -0.0238494
0.113937 -0.0721253 -0.0611858
-0.125905 -0.0883107 -0.0749163
-0.317173 -0.0704251 -0.0597435
-0.386071 -0.0253695 -0.0215218
-0.305961 0.0294375 0.0249661
-0.104495 0.0707531 0.0597781
0.069464 0.134848 0.0432881
0.181592 0.108836 0.0349376
0.223661 0.0408333 0.013108
0.17944 -0.0429229 -0.0137788
0.065989 -0.110119 -0.0353496
-0.0729206 -0.134831 -0.0432823
-0.183697 -0.107523 -0.0345164
-0.223602 -0.0387329 -0.0124337
-0.177239 0.045001 0.0144459
-0.0624964 0.111373 0.0357522
0 0.330394 0
0 0.266659 0
0 0.100046 0
0 -0.105166 0
0 -0.269804 0
0 -0.330349 0
0 -0.263444 0
0 -0.0948998 0
0 0.110257 0
0 0.272876 0
-0.043507 0.202925 0.16915
-0.113736 0.16378 0.136521
-0.140084 0.0614475 0.0512202
-0.112387 -0.064592 -0.0538413
-0.0413305 -0.165711 -0.13813
0.0456719 -0.202898 -0.169128
0.115054 -0.161805 -0.134874
0.140047 -0.0582867 -0.0485855
0.111009 0.0677193 0.0564481
0.0391431 0.167599 0.139704
-0.0702287 -0.00283309 0.273041
-0.183591 -0.00228658 0.220371
-0.226123 -0.000857885 0.0826793
-0.181415 0.000901786 -0.0869102
-0.0667154 0.00231354 -0.222969
0.0737233 0.00283272 -0.273005
0.185719 0.00225901 -0.217713
0.226063 0.000813756 -0.0784263
0.17919 -0.000945447 0.0911181
0.0631844 -0.00233989 0.225509
-0.0698557 -0.207498 0.271591
-0.182616 -0.167471 0.2192
-0.224922 -0.0628323 0.0822401
-0.180451 0.0660476 -0.0864486
-0.066361 0.169446 -0.221785
0.0733317 0.207471 -0.271555
0.184732 0.165452 -0.216557
0.224862 0.0596003 -0.0780097
0.178238 -0.0692454 0.0906341
0.0628488 -0.171376 0.224311
-0.0425318 -0.332109 0.165359
-0.111186 -0.268044 0.13346
-0.136944 -0.100566 0.050072
-0.109868 0.105712 -0.0526344
-0.040404 0.271205 -0.135034
0.0446481 0.332065 -0.165337
0.112475 0.264812 -0.131851
0.136908 0.0953926 -0.0474964
0.108521 -0.11083 0.0551827
0.0382656 -0.274294 0.136572
0.00120121 -0.32859 -0.00467017
0.00314019 -0.265204 -0.00376927
0.00386767 -0.0994999 -0.00141417
0.00310297 0.104592 0.00148653
0.00114112 0.268331 0.00381372
-0.00126098 0.328546 0.00466955
-0.00317659 0.262006 0.00372382
-0.00386664 0.0943817 0.00134142
-0.00306492 -0.109656 -0.00155851
-0.00108072 -0.271387 -0.00385716
0.0444707 -0.198298 -0.172897
0.116255 -0.160046 -0.139545
0.143187 -0.0600464 -0.0523548
0.114877 0.0631192 0.0550339
0.042246 0.161933 0.14119
-0.0466836 0.198272 0.172874
-0.117602 0.158116 0.137862
-0.143149 0.0569577 0.0496617
-0.113468 -0.0661752 -0.0576985
-0.0400101 -0.163777 -0.142798
0.0705831 0.00849861 -0.274419
0.184518 0.00685919 -0.221483
0.227264 0.00257345 -0.0830965
0.18233 -0.00270514 0.0873488
0.0670521 -0.00694008 0.224094
-0.0740953 -0.00849748 0.274383
-0.186656 -0.00677649 0.218812
-0.227204 -0.00244108 0.0788221
-0.180094 0.00283612 -0.0915779
-0.0635033 0.00701912 -0.226647
0.069464 0.212016 -0.270068
0.181592 0.171118 -0.217971
0.223661 0.0642004 -0.081779
0.179439 -0.0674857 0.0859639
0.065989 -0.173135 0.220541
-0.0729205 -0.211988 0.270032
-0.183697 -0.169054 0.215343
-0.223601 -0.060898 0.0775724
-0.177239 0.0707531 -0.0901259
-0.0624964 0.175107 -0.223053
0.0415452 0.333737 -0.161523
0.108607 0.269358 -0.130365
0.133768 0.101058 -0.0489106
0.10732 -0.10623 0.0514135
0.0394669 -0.272534 0.131902
-0.0436125 -0.333692 0.161501
-0.109866 -0.26611 0.128793
-0.133732 -0.0958601 0.0463946
-0.106004 0.111373 -0.0539027
-0.037378 0.275638 -0.133404
