# vtk DataFile Version 3.0
Velocity field
ASCII
DATASET STRUCTURED_POINTS
DIMENSIONS 5 5 5
SPACING 1.33333 1.33333 1.33333
ORIGIN 0 0 0
POINT_DATA 125
VECTORS velocity float
0 0.654587 0
0 0.153984 0
0 -0.582142 0
0 -0.427867 0
0 0.380841 0
0 -0.34662 1.13682
0 -0.0815381 0.308198
0 0.308259 -1.16516
0 0.226566 -0.856377
0 -0.201665 0.661407
0 -0.817664 0.534846
0 -0.192345 0.145
0 0.72717 -0.548178
0 0.534461 -0.402904
0 -0.47572 0.311176
0 -0.0380703 -0.88519
0 -0.00895555 -0.23998
0 0.0338569 0.907254
0 0.0248844 0.66682
0 -0.0221494 -0.515007
0 0.799753 -0.951306
0 0.188132 -0.223783
0 -0.711241 0.846022
0 -0.522753 0.621815
0 0.465299 -0.553473
0 0.153984 0
0 0.0460915 0
0 -0.174251 0
0 -0.128072 0
0 0.0895881 0
0.486556 -0.0815381 0.399232
0.777463 -0.0206191 0.102137
-0.163023 0.0781752 -0.38741
-0.854379 0.0574911 -0.284931
-0.219854 -0.0474391 0.232275
0.228912 -0.192345 0.187829
0.365781 -0.0488869 0.0480534
-0.0766992 0.185379 -0.182268
-0.401967 0.136335 -0.134055
-0.103436 -0.111907 0.109279
-0.378858 -0.00895555 -0.310863
-0.604888 -0.00230821 -0.0794673
0.126836 0.00875991 0.301408
0.66473 0.00644343 0.221677
0.17119 -0.00521037 -0.180861
-0.407156 0.188132 -0.334082
-0.598712 0.0442557 -0.0785887
0.125477 -0.167311 0.297108
0.657746 -0.122971 0.218371
0.183977 0.109456 -0.19437
0 -0.582142 0
0 -0.174251 0
0 0.658764 0
0 0.484183 0
0 -0.338692 0
0.228912 0.308259 -0.948993
0.365781 0.0781752 -0.241928
-0.0766992 -0.296443 0.917559
-0.401967 -0.218016 0.674833
-0.103436 0.179346 -0.552128
0.107698 0.72717 -0.446478
0.172092 0.185379 -0.113822
-0.0360855 -0.703086 0.431693
-0.189118 -0.517095 0.317494
-0.048664 0.42307 -0.259762
-0.178243 0.0338569 0.738937
-0.284588 0.00875991 0.188235
0.0596738 -0.0332528 -0.713887
0.312741 -0.0244606 -0.525033
0.0805407 0.0196981 0.429916
-0.191557 -0.711241 0.794129
-0.281679 -0.167311 0.186809
0.0590336 0.632526 -0.70624
0.309453 0.464898 -0.519077
0.0865564 -0.413803 0.462027
0 -0.427867 0
0 -0.128072 0
0 0.484183 0
0 0.355868 0
0 -0.248934 0
-0.378858 0.226566 -0.84571
-0.604888 0.0574916 -0.2157
0.126836 -0.218018 0.818107
0.66473 -0.16034 0.601693
0.17119 0.131817 -0.492037
-0.178243 0.534461 -0.397885
-0.284588 0.136336 -0.101483
0.0596738 -0.5171 0.384903
0.312741 -0.380312 0.283085
0.0805407 0.310951 -0.231491
0.294999 0.0248844 0.658515
0.470628 0.00644349 0.167827
-0.0986826 -0.0244609 -0.636506
-0.517183 -0.0179936 -0.468126
-0.133298 0.0144778 0.383126
0.317033 -0.522753 0.7077
0.466189 -0.122971 0.166478
-0.0977027 0.464898 -0.629377
-0.512156 0.341694 -0.462584
-0.143254 -0.30414 0.411743
0 0.380841 0
0 0.0895882 0
0 -0.338692 0
0 -0.248934 0
0 0.221575 0
-0.407156 -0.201665 0.551108
-0.598712 -0.0474392 0.129641
0.125477 0.179346 -0.490115
0.657746 0.131817 -0.360228
0.183977 -0.117329 0.320637
-0.191557 -0.47572 0.259282
-0.281679 -0.111907 0.060993
0.0590336 0.42307 -0.230587
0.309453 0.310951 -0.169478
0.0865564 -0.276775 0.150852
0.317033 -0.0221494 -0.429122
0.466189 -0.00521037 -0.100946
-0.0977027 0.0196981 0.381629
-0.512156 0.0144778 0.280493
-0.143254 -0.0128866 -0.249665
0.340713 0.465299 -0.461174
0.50101 0.109456 -0.108485
-0.105 -0.413803 0.410134
-0.55041 -0.30414 0.301443
-0.153954 0.270713 -0.268313
