# vtk DataFile Version 3.0
Velocity field
ASCII
DATASET STRUCTURED_POINTS
DIMENSIONS 8 8 8
SPACING 0.8 0.8 0.8
ORIGIN 0 0 0
POINT_DATA 512
VECTORS velocity float
0 0.383963 0
0 0.26751 0
0 -0.0112115 0
0 -0.283132 0
0 -0.383308 0
0 -0.250975 0
0 0.0335965 0
0 0.297789 0
0 0.151056 0.391892
0 0.105242 0.28948
0 -0.00441077 -0.0121323
0 -0.111388 -0.306386
0 -0.150799 -0.41479
0 -0.0987369 -0.271588
0 0.0132173 0.0363557
0 0.117154 0.303938
0 -0.173479 0.546067
0 -0.120864 0.403366
0 0.00506552 -0.0169054
0 0.127923 -0.426922
0 0.173184 -0.577973
0 0.113394 -0.378434
0 -0.0151793 0.0506586
0 -0.134545 0.423511
0 -0.392785 0.369006
0 -0.273656 0.272575
0 0.0114691 -0.0114238
0 0.289637 -0.288493
0 0.392115 -0.390566
0 0.256741 -0.255727
0 -0.0343683 0.0342326
0 -0.30463 0.286188
0 -0.373832 -0.0318898
0 -0.260451 -0.0235562
0 0.0109157 0.000987259
0 0.275661 0.0249318
0 0.373195 0.0337531
0 0.244353 0.0221002
0 -0.03271 -0.00295842
0 -0.289931 -0.0247327
0 -0.128118 -0.413441
0 -0.0892606 -0.305398
0 0.00374099 0.0127995
0 0.0944734 0.323233
0 0.127899 0.437598
0 0.0837435 0.286522
0 -0.0112102 -0.0383549
0 -0.0993639 -0.320651
0 0.195311 -0.544205
0 0.136074 -0.40199
0 -0.00570299 0.0168477
0 -0.144021 0.425466
0 -0.194978 0.576002
0 -0.127664 0.377143
0 0.0170895 -0.0504858
0 0.151476 -0.422067
0 0.400267 -0.344861
0 0.278868 -0.240267
0 -0.0116876 0.0100698
0 -0.295154 0.254298
0 -0.399584 0.344273
0 -0.261632 0.225416
0 0.035023 -0.0301751
0 0.310433 -0.267462
0 0.26751 0
0 0.202349 0
0 -0.00848061 0
0 -0.214166 0
0 -0.289941 0
0 -0.189842 0
0 0.0254129 0
0 0.207471 0
0.0835386 0.105242 0.387082
0.206657 0.0759068 0.278801
0.201644 -0.00318338 -0.0116923
0.0742863 -0.0803831 -0.29524
-0.0981324 -0.108824 -0.399702
-0.211027 -0.0712537 -0.261709
-0.195891 0.00950682 0.0349202
-0.0599406 0.081622 0.300208
0.116404 -0.120864 0.539366
0.287957 -0.0869564 0.388488
0.280972 0.00364658 -0.0162921
0.103512 0.0920809 -0.411393
-0.136739 0.12466 -0.556947
-0.294045 0.0816223 -0.364669
-0.272956 -0.0108924 0.0486585
-0.0835221 -0.0937381 0.418314
0.07866 -0.273656 0.364477
0.194587 -0.196885 0.262521
0.189869 0.00825675 -0.0110094
0.0699477 0.208491 -0.277998
-0.0924018 0.282256 -0.37636
-0.198702 0.184812 -0.246423
-0.184452 -0.0246627 0.032881
-0.0564401 -0.212238 0.282676
-0.00679788 -0.260451 -0.0314985
-0.0168164 -0.187388 -0.0226874
-0.0164086 0.00785827 0.000951436
-0.00604498 0.19843 0.024025
0.0079854 0.268638 0.0325252
0.0171719 0.175895 0.0212962
0.0159403 -0.0234727 -0.00284161
0.00487761 -0.201997 -0.0244291
-0.0881323 -0.0892606 -0.408367
-0.218018 -0.0642211 -0.294132
-0.212733 0.00269319 0.0123351
-0.07837 0.0680058 0.31147
0.103529 0.0920675 0.421681
0.222626 0.0602817 0.276098
0.206663 -0.0080445 -0.0368405
0.0632367 -0.0692275 -0.316716
-0.116007 0.136074 -0.537526
-0.28691 0.097832 -0.387078
-0.27995 -0.00410263 0.0162327
-0.103135 -0.103596 0.409896
0.136241 -0.140249 0.554919
0.292973 -0.0918308 0.363342
0.271963 0.0122558 -0.048483
0.0832372 0.105535 -0.416887
-0.0735132 0.278868 -0.340629
-0.175947 0.19429 -0.237318
-0.171654 -0.00814283 0.00994621
-0.063238 -0.205636 0.251178
0.0835377 -0.278393 0.340048
0.17964 -0.182281 0.22265
0.166776 0.0244008 -0.0298047
0.0527472 0.216281 -0.26418
0 -0.0112115 0
0 -0.00848061 0
0 0.000355429 0
0 0.00897587 0
0 0.0121517 0
0 0.00795643 0
0 -0.00106508 0
0 -0.00869529 0
0.116404 -0.00441077 0.147474
0.287957 -0.00318338 0.106159
0.280972 0.000133508 -0.00445196
0.103512 0.00337118 -0.112416
-0.136739 0.0045639 -0.15219
-0.294045 0.0029883 -0.0996497
-0.272956 -0.000398664 0.013297
-0.0835221 -0.00342084 0.114376
0.162199 0.00506552 0.205492
0.401245 0.00364658 0.147923
0.391511 -0.000152926 -0.00620344
0.144234 -0.00386154 -0.156641
-0.190535 -0.00522783 -0.212068
-0.409728 -0.00342301 -0.138853
-0.380344 0.000456748 0.0185281
-0.116381 0.00392864 0.159373
0.109606 0.0114691 0.138862
0.27114 0.00825675 0.099959
0.264565 -0.000346262 -0.004192
0.0974663 -0.00874344 -0.105853
-0.128753 -0.0118371 -0.143304
-0.276873 -0.00775035 -0.0938306
-0.257016 0.00103418 0.0125204
-0.0786444 0.00889507 0.107696
-0.00947225 0.0109157 -0.0120006
-0.0234323 0.00785827 -0.00863856
-0.022864 -0.000329553 0.000362277
-0.00842312 -0.00832161 0.0091478
0.011127 -0.0112659 0.0123845
0.0239278 -0.00737639 0.00810887
0.0222116 0.000984275 -0.00108203
0.00679653 0.00846586 -0.00930723
-0.122805 0.00374099 -0.155583
-0.303787 0.00269319 -0.111995
-0.296422 -0.000112944 0.00469677
-0.109203 -0.00285197 0.118597
0.144258 -0.00386098 0.160559
0.310209 -0.00252802 0.10513
0.287965 0.000337329 -0.014028
0.0881148 0.00290138 -0.120665
-0.161645 -0.00570299 -0.204791
-0.399786 -0.00410263 -0.147385
-0.390087 0.000172049 0.00618089
-0.143709 0.00434441 0.156072
0.189841 0.00588154 0.211295
0.408238 0.00385099 0.138348
0.37896 -0.000513916 -0.0184612
0.115984 -0.00442304 -0.158829
-0.102434 -0.0116876 -0.129776
-0.245168 -0.00814283 -0.0904156
-0.239185 0.000341273 0.00378939
-0.0881167 0.00861837 0.0956958
0.116402 0.0116677 0.129554
0.250313 0.00763953 0.0848271
0.232388 -0.00102266 -0.0113553
0.0734986 -0.00906451 -0.10065
0 -0.283132 0
0 -0.214166 0
0 0.00897587 0
0 0.226673 0
0 0.306873 0
0 0.200929 0
0 -0.026897 0
0 -0.219587 0
0.07866 -0.111388 -0.18159
0.194587 -0.0803831 -0.130715
0.189869 0.00337118 0.00548178
0.0699477 0.0851243 0.13842
-0.0924018 0.115243 0.187396
-0.198702 0.0754562 0.122698
-0.184452 -0.0100667 -0.0163727
-0.0564401 -0.0863887 -0.140835
0.109606 0.127923 -0.25303
0.27114 0.0920809 -0.18214
0.264565 -0.00386154 0.00763832
0.0974663 -0.0975086 0.192878
-0.128753 -0.132009 0.26112
-0.276873 -0.0864341 0.17097
-0.257016 0.0115336 -0.0228139
-0.0786444 0.0992124 -0.196242
0.0740663 0.289637 -0.170985
0.183224 0.208491 -0.123081
0.17878 -0.00874344 0.00516161
0.0658632 -0.220779 0.130337
-0.0870052 -0.298897 0.176452
-0.187098 -0.195706 0.115533
-0.173679 0.0261147 -0.0154165
-0.0531441 0.224633 -0.13261
-0.00640089 0.275661 0.0147767
-0.0158343 0.19843 0.0106368
-0.0154502 -0.00832161 -0.000446072
-0.00569197 -0.21013 -0.0112639
0.00751899 -0.284474 -0.015249
0.0161691 -0.186264 -0.00998447
0.0150093 0.0248545 0.00133231
0.00459276 0.213794 0.0114603
-0.0829854 0.0944734 0.191576
-0.205288 0.0680058 0.137902
-0.200308 -0.00285197 -0.00578321
-0.0737941 -0.0720146 -0.146031
0.0974822 -0.0974945 -0.1977
0.209629 -0.0638356 -0.129446
0.194593 0.00851806 0.017273
0.0595437 0.0732703 0.148579
-0.109232 -0.144021 0.252167
-0.270154 -0.103596 0.181479
-0.263602 0.00434441 -0.00761053
-0.0971119 0.109701 -0.192176
0.128285 0.148515 -0.26017
0.275865 0.0972416 -0.170349
0.256081 -0.0129771 0.0227317
0.0783762 -0.111698 0.195572
-0.0692201 -0.295154 0.159798
-0.165672 -0.205636 0.111332
-0.16163 0.00861837 -0.00466602
-0.0595449 0.217645 -0.117834
0.0786591 0.294651 -0.159525
0.16915 0.192926 -0.104451
0.157036 -0.0258257 0.0139822
0.0496668 -0.228911 0.123934
0 -0.383308 0
0 -0.289941 0
0 0.0121517 0
0 0.306873 0
0 0.41545 0
0 0.27202 0
0 -0.0364136 0
0 -0.297281 0
-0.00679788 -0.150799 -0.400504
-0.0168164 -0.108824 -0.288295
-0.0164086 0.0045639 0.0120903
-0.00604498 0.115243 0.305287
0.0079854 0.156016 0.41331
0.0171719 0.102155 0.270618
0.0159404 -0.0136286 -0.0361106
0.00487761 -0.116954 -0.310617
-0.00947225 0.173184 -0.558068
-0.0234323 0.12466 -0.401715
-0.022864 -0.00522783 0.0168468
-0.00842312 -0.132009 0.425401
0.011127 -0.178716 0.575908
0.0239278 -0.117015 0.377086
0.0222116 0.0156143 -0.0503172
0.00679653 0.134315 -0.432818
-0.00640089 0.392115 -0.377115
-0.0158343 0.282256 -0.27146
-0.0154502 -0.0118371 0.0113842
-0.00569197 -0.298897 0.287462
0.00751899 -0.404653 0.389171
0.0161691 -0.264951 0.254814
0.0150093 0.0353542 -0.0340018
0.00459276 0.304111 -0.292477
0.000553171 0.373195 0.0325907
0.00136842 0.268638 0.02346
0.00133523 -0.0112659 -0.000983826
0.0004919 -0.284474 -0.0248428
-0.000649805 -0.385129 -0.0336325
-0.00139736 -0.252164 -0.0220214
-0.00129713 0.0336483 0.00293847
-0.000396911 0.289437 0.0252762
0.00717168 0.127899 0.422527
0.0177411 0.0920675 0.304146
0.0173108 -0.00386098 -0.0127551
0.00637738 -0.0974945 -0.322074
-0.0084245 -0.13199 -0.436034
-0.0181162 -0.0864216 -0.285498
-0.0168169 0.0115319 0.038096
-0.00514582 0.0991945 0.327698
0.00943995 -0.194978 0.556165
0.0233471 -0.140249 0.400256
0.0227808 0.00588154 -0.0167855
0.00839248 0.148515 -0.42385
-0.0110866 0.201062 -0.573814
-0.0238407 0.131648 -0.375714
-0.0221309 -0.0175685 0.0501358
-0.00677335 -0.151218 0.431342
0.00598207 -0.399584 0.35244
0.0143176 -0.278393 0.245547
0.0139682 0.0116677 -0.0102911
0.00514593 0.294651 -0.259887
-0.0067978 0.398903 -0.351839
-0.0146181 0.261186 -0.23037
-0.0135712 -0.0349633 0.0308382
-0.00429225 -0.309904 0.27334
0 -0.250975 0
0 -0.189842 0
0 0.00795643 0
0 0.200929 0
0 0.27202 0
0 0.178108 0
0 -0.0238422 0
0 -0.194648 0
-0.0881323 -0.0987369 -0.376478
-0.218018 -0.0712537 -0.271002
-0.212733 0.0029883 0.011365
-0.07837 0.0754562 0.286977
0.103529 0.102155 0.388514
0.222626 0.0668869 0.254383
0.206663 -0.00892346 -0.0339443
0.0632367 -0.076577 -0.291983
-0.122805 0.113394 -0.524589
-0.303787 0.0816223 -0.37762
-0.296422 -0.00342301 0.015836
-0.109203 -0.0864341 0.399879
0.144258 -0.117015 0.54136
0.310209 -0.0766167 0.354463
0.287965 0.0102237 -0.0472987
0.0881148 0.0879442 -0.406853
-0.0829854 0.256741 -0.354492
-0.205288 0.184812 -0.255176
-0.200308 -0.00775035 0.0107012
-0.0737941 -0.195706 0.270217
0.0974822 -0.264951 0.365826
0.209629 -0.173479 0.239526
0.194593 0.0231486 -0.0319621
0.0595437 0.19912 -0.274932
0.00717168 0.244353 0.0306355
0.0177411 0.175895 0.0220526
0.0173108 -0.00737639 -0.000924805
0.00637738 -0.186264 -0.0233526
-0.0084245 -0.252164 -0.0316148
-0.0181162 -0.165107 -0.0207002
-0.0168169 0.0220317 0.00276219
-0.00514582 0.189512 0.0237599
0.0929785 0.0837435 0.39718
0.230005 0.0602817 0.285902
0.224426 -0.00252802 -0.01199
0.0826795 -0.0638356 -0.302754
-0.109221 -0.0864216 -0.409879
-0.234868 -0.056585 -0.268372
-0.218024 0.0075506 0.0358108
-0.066714 0.0649486 0.308039
0.122386 -0.127664 0.5228
0.302682 -0.0918308 0.376247
0.295342 0.00385099 -0.0157784
0.108805 0.0972416 -0.398425
-0.143733 0.131648 -0.539391
-0.309081 0.0861981 -0.353174
-0.286918 -0.0115033 0.047128
-0.0878143 -0.0990116 0.405466
0.0775556 -0.261632 0.331297
0.185623 -0.182281 0.230817
0.181093 0.00763953 -0.00967372
0.0667153 0.192926 -0.244296
-0.0881313 0.261186 -0.330732
-0.189519 0.171014 -0.21655
-0.175947 -0.0228926 0.0289882
-0.0556477 -0.202913 0.256943
0 0.0335965 0
0 0.0254129 0
0 -0.00106508 0
0 -0.026897 0
0 -0.0364136 0
0 -0.0238422 0
0 0.0031916 0
0 0.0260563 0
-0.116007 0.0132173 -0.124085
-0.28691 0.00950658 -0.0893721
-0.27995 -0.000398653 0.00374805
-0.103135 -0.0100665 0.0946422
0.136241 -0.0136282 0.128127
0.292973 -0.00892323 0.0838926
0.271963 0.00119104 -0.0111935
0.0832372 0.0102509 -0.096236
-0.161645 -0.0151793 -0.172901
-0.399786 -0.0108921 -0.124532
-0.390087 0.000456736 0.00522256
-0.143709 0.0115333 0.131875
0.189841 0.0156139 0.178534
0.408238 0.0102234 0.116898
0.37896 -0.00136483 -0.0155972
0.115984 -0.0117725 -0.134096
-0.109232 -0.0343683 -0.116838
-0.270154 -0.0246621 -0.0841527
-0.263602 0.00103416 0.00352918
-0.0971119 0.026114 0.0891147
0.128285 0.0353532 0.120645
0.275865 0.023148 0.0789934
0.256081 -0.00309023 -0.0105398
0.0783762 -0.0266549 -0.0906159
0.00943995 -0.03271 0.0100973
0.0233471 -0.023472 0.00727258
0.0227808 0.000984249 -0.000304993
0.00839248 0.0248538 -0.00770138
-0.0110866 0.0336474 -0.0104262
-0.0238407 0.0220311 -0.00682673
-0.0221309 -0.00294113 0.000910866
-0.00677335 -0.0253688 0.00783111
0.122386 -0.0112102 0.130908
0.302682 -0.0080443 0.0942868
0.295342 0.00033732 -0.00395413
0.108805 0.00851783 -0.0998462
-0.143733 0.0115316 -0.135173
-0.309081 0.0075504 -0.0885059
-0.286918 -0.00100798 0.011809
-0.0878143 -0.00869426 0.101528
0.161094 0.0170895 0.172312
0.398333 0.0122555 0.12408
0.388669 -0.000513903 -0.00520353
0.143187 -0.0129768 -0.131395
-0.189151 -0.0175681 -0.177884
-0.406754 -0.011503 -0.116472
-0.377581 0.00153576 0.0155409
-0.115588 0.0132541 0.133639
0.102085 0.035023 0.109194
0.244331 0.0244008 0.0760759
0.23837 -0.00102266 -0.0031884
0.0878161 -0.0258257 -0.0805186
-0.116005 -0.0349633 -0.109007
-0.24946 -0.0228926 -0.0713736
-0.231595 0.00306448 0.00955434
-0.073248 0.0271626 0.0846868
0 0.297789 0
0 0.207471 0
0 -0.00869529 0
0 -0.219587 0
0 -0.297281 0
0 -0.194648 0
0 0.0260563 0
0 0.230955 0
-0.0735132 0.117154 0.203576
-0.175947 0.081622 0.141833
-0.171654 -0.00342084 -0.00594433
-0.063238 -0.0863887 -0.150116
0.0835376 -0.116954 -0.203229
0.17964 -0.076577 -0.133066
0.166776 0.0102509 0.0178127
0.0527472 0.0908607 0.157887
-0.102434 -0.134545 0.283666
-0.245167 -0.0937381 0.197632
-0.239185 0.00392864 -0.00828291
-0.0881166 0.0992124 -0.209173
0.116402 0.134315 -0.283182
0.250313 0.0879442 -0.185416
0.232388 -0.0117725 0.0248205
0.0734986 -0.104348 0.220001
-0.0692201 -0.30463 0.191687
-0.165672 -0.212238 0.13355
-0.16163 0.00889507 -0.00559718
-0.0595449 0.224633 -0.141349
0.0786591 0.304111 -0.19136
0.16915 0.19912 -0.125295
0.157036 -0.0266549 0.0167725
0.0496668 -0.236261 0.148666
0.00598207 -0.289931 -0.0165658
0.0143176 -0.201997 -0.0115415
0.0139682 0.00846586 0.000483714
0.00514593 0.213794 0.0122155
-0.0067978 0.289437 0.0165376
-0.0146181 0.189512 0.0108281
-0.0135712 -0.0253688 -0.00144949
-0.00429225 -0.224861 -0.0128479
0.0775556 -0.0993639 -0.21477
0.185623 -0.0692275 -0.149632
0.181093 0.00290138 0.0062712
0.0667153 0.0732703 0.15837
-0.0881313 0.0991945 0.214404
-0.189519 0.0649486 0.140383
-0.175947 -0.00869426 -0.0187922
-0.0556477 -0.0770632 -0.166569
0.102085 0.151476 -0.282698
0.244331 0.105535 -0.196958
0.23837 -0.00442304 0.00825466
0.0878161 -0.111698 0.20846
-0.116005 -0.151218 0.282216
-0.24946 -0.0990116 0.184784
-0.231595 0.0132541 -0.0247359
-0.073248 0.11748 -0.219251
0.0646909 0.310433 -0.179145
0.154832 0.216281 -0.124812
0.151054 -0.00906451 0.00523095
0.0556488 -0.228911 0.1321
-0.0735124 -0.309904 0.17884
-0.158082 -0.202913 0.117097
-0.146761 0.0271626 -0.015675
-0.046417 0.240761 -0.138939
