# vtk DataFile Version 3.0
Velocity field
ASCII
DATASET STRUCTURED_POINTS
DIMENSIONS 10 10 10
SPACING 0.631579 0.631579 0.631579
ORIGIN 0 0 0
POINT_DATA 1000
VECTORS velocity float
0 0.553754 0
0 0.446933 0
0 0.167682 0
0 -0.176263 0
0 -0.452203 0
0 -0.553681 0
0 -0.441544 0
0 -0.159056 0
0 0.184796 0
0 0.457353 0
0 0.340112 0.433769
0 0.274503 0.36382
0 0.102989 0.136499
0 -0.108259 -0.143484
0 -0.27774 -0.368111
0 -0.340067 -0.450717
0 -0.271193 -0.359434
0 -0.0976912 -0.129478
0 0.113501 0.150431
0 0.280903 0.358256
0 -0.00474839 0.700186
0 -0.00383241 0.587276
0 -0.00143785 0.220336
0 0.00151143 -0.231611
0 0.0038776 -0.594201
0 0.00474776 -0.727544
0 0.0037862 -0.580195
0 0.00136389 -0.209002
0 -0.00158461 0.242825
0 -0.00392176 0.578294
0 -0.347777 0.696467
0 -0.280689 0.584157
0 -0.10531 0.219166
0 0.110699 -0.230381
0 0.283999 -0.591045
0 0.34773 -0.72368
0 0.277305 -0.577113
0 0.0998928 -0.207892
0 -0.116058 0.241535
0 -0.287234 0.575222
0 -0.55663 0.424045
0 -0.449254 0.355665
0 -0.168553 0.133439
0 0.177178 -0.140268
0 0.454552 -0.359859
0 0.556556 -0.440614
0 0.443837 -0.351376
0 0.159882 -0.126575
0 -0.185756 0.147059
0 -0.459729 0.350225
0 -0.550731 -0.0119762
0 -0.444493 -0.0100449
0 -0.166766 -0.00376869
0 0.1753 0.00396154
0 0.449735 0.0101634
0 0.550658 0.0124441
0 0.439134 0.00992382
0 0.158188 0.00357483
0 -0.183788 -0.00415334
0 -0.454857 -0.00989129
0 -0.332357 -0.443377
0 -0.268244 -0.371879
0 -0.100641 -0.139523
0 0.105791 0.146663
0 0.271407 0.376265
0 0.332313 0.460701
0 0.265009 0.367395
0 0.0954637 0.132346
0 -0.110913 -0.153763
0 -0.274498 -0.366191
0 0.0142441 -0.70372
0 0.0114963 -0.59024
0 0.00431322 -0.221448
0 -0.00453395 0.23278
0 -0.0116319 0.5972
0 -0.0142422 0.731216
0 -0.0113577 0.583123
0 -0.00409136 0.210057
0 0.00475346 -0.244051
0 0.0117644 -0.581212
0 0.355349 -0.692562
0 0.286801 -0.580882
0 0.107603 -0.217937
0 -0.113109 0.229089
0 -0.290183 0.587731
0 -0.355302 0.719622
0 -0.283343 0.573877
0 -0.102068 0.206726
0 0.118585 -0.240181
0 0.293488 -0.571997
0 0.559358 -0.414209
0 0.451456 -0.334307
0 0.169379 -0.125426
0 -0.178046 0.131845
0 -0.456779 0.338249
0 -0.559284 0.414154
0 -0.446012 0.330276
0 -0.160666 0.118974
0 0.186666 -0.138228
0 0.461982 -0.342101
0 0.446933 0
0 0.379483 0
0 0.142375 0
0 -0.149661 0
0 -0.383958 0
0 -0.47012 0
0 -0.374907 0
0 -0.135052 0
0 0.156907 0
0 0.369128 0
0.0630694 0.274503 0.48006
0.172718 0.231803 0.405575
0.212824 0.0870826 0.152372
0.170747 -0.0915455 -0.16018
0.0627921 -0.234861 -0.410946
-0.0693879 -0.287565 -0.503164
-0.174797 -0.229324 -0.401258
-0.212768 -0.0826139 -0.144553
-0.168584 0.0957167 0.167462
-0.0567432 0.226716 0.396488
0.101806 -0.00383241 0.77491
0.2788 -0.00322368 0.654674
0.34354 -0.00121093 0.245957
0.275618 0.00127298 -0.258563
0.101359 0.00326586 -0.663344
-0.112006 0.00399871 -0.812203
-0.282156 0.00318887 -0.647707
-0.343448 0.00114878 -0.233337
-0.272127 -0.00133126 0.270317
-0.0915945 -0.00316524 0.640009
0.101265 -0.280689 0.770793
0.277319 -0.236757 0.651196
0.341715 -0.0889428 0.24465
0.274154 0.0935015 -0.257189
0.10082 0.239879 -0.65982
-0.111411 0.293708 -0.807888
-0.280657 0.234224 -0.644265
-0.341624 0.0843791 -0.232098
-0.270681 -0.0977622 0.268881
-0.0911079 -0.231825 0.636609
0.0616556 -0.449254 0.469299
0.168847 -0.378939 0.396482
0.208053 -0.142357 0.148956
0.166919 0.149653 -0.15659
0.0613844 0.383934 -0.401733
-0.0678327 0.470092 -0.491884
-0.170879 0.374886 -0.392263
-0.207998 0.135052 -0.141313
-0.164804 -0.156473 0.163708
-0.0554712 -0.371045 0.387601
-0.00174132 -0.444493 -0.0132543
-0.00476867 -0.374923 -0.0111977
-0.00587599 -0.140848 -0.00420692
-0.00471422 0.148067 0.00442251
-0.00173367 0.379867 0.011346
0.00191576 0.465111 0.0138922
0.00482608 0.370913 0.0110786
0.00587443 0.133621 0.00399105
0.00465452 -0.154815 -0.00462355
0.00156666 -0.367113 -0.0109469
-0.0644664 -0.268244 -0.490694
-0.176544 -0.226259 -0.414558
-0.217538 -0.0849997 -0.155747
-0.174528 0.0893554 0.163729
-0.064183 0.229242 0.420048
0.0709246 0.280686 0.514309
0.178669 0.223839 0.410147
0.21748 0.0806376 0.147755
0.172318 -0.093428 -0.171172
0.0580001 -0.221546 -0.405271
-0.10232 0.0114963 -0.77882
-0.280203 0.00968934 -0.65797
-0.345268 0.00363985 -0.247195
-0.277005 -0.00382637 0.259864
-0.101869 -0.0098166 0.666684
0.112569 -0.0120195 0.816292
0.283576 -0.00958523 0.650968
0.345177 -0.00345306 0.234511
0.273496 0.00400111 -0.271678
0.0920567 0.00949496 -0.643238
-0.100698 0.286801 -0.766472
-0.275576 0.241508 -0.647123
-0.339563 0.0907214 -0.243113
-0.272427 -0.0953703 0.255572
-0.100185 -0.244673 0.655672
0.110709 -0.299579 0.802809
0.27889 -0.238906 0.640216
0.339473 -0.0860652 0.230638
0.268978 0.099732 -0.267206
0.0905971 0.236873 -0.63304
-0.0602254 0.451456 -0.458413
-0.157441 0.364368 -0.369983
-0.193914 0.136705 -0.138811
-0.155574 -0.1437 0.145915
-0.0572126 -0.368665 0.374346
0.0632223 -0.451396 0.458352
0.159265 -0.359975 0.365522
0.193863 -0.129673 0.131671
0.153667 0.150658 -0.15298
0.0541845 0.372864 -0.37861
0 0.167682 0
0 0.142375 0
0 0.0534169 0
0 -0.0561504 0
0 -0.144054 0
0 -0.176381 0
0 -0.140659 0
0 -0.0506691 0
0 0.0588689 0
0 0.138491 0
0.101806 0.102989 0.341141
0.2788 0.0870826 0.288147
0.34354 0.0327167 0.108256
0.275618 -0.0343934 -0.113804
0.101359 -0.0882366 -0.291966
-0.112006 -0.108038 -0.357485
-0.282156 -0.0861568 -0.285083
-0.343448 -0.031038 -0.102702
-0.272127 0.0359562 0.118975
-0.0915945 0.0850599 0.281753
0.164335 -0.00143785 0.550667
0.450037 -0.00121093 0.465126
0.554538 -0.000454894 0.174746
0.444901 0.000478203 -0.183702
0.163612 0.00122684 -0.47129
-0.180798 0.00150216 -0.57705
-0.455455 0.00119792 -0.46018
-0.554391 0.000431549 -0.16578
-0.439264 -0.000500046 0.192049
-0.147851 -0.00118754 0.454803
0.163462 -0.10531 0.547742
0.447647 -0.0889428 0.462654
0.551592 -0.0334155 0.173818
0.442537 0.035128 -0.182726
0.162743 0.0901212 -0.468786
-0.179837 0.110345 -0.573984
-0.453035 0.087997 -0.457735
-0.551446 0.031701 -0.164899
-0.43693 -0.0367245 0.191029
-0.147066 -0.0869768 0.452387
0.099524 -0.168553 0.333494
0.272551 -0.142357 0.281688
0.335839 -0.0534828 0.105829
0.26944 0.0562239 -0.111254
0.0990864 0.144243 -0.285421
-0.109495 0.176612 -0.349472
-0.275832 0.140843 -0.278693
-0.33575 0.0507387 -0.100399
-0.266026 -0.058779 0.116308
-0.0895412 -0.13921 0.275437
-0.00281082 -0.166766 -0.00941875
-0.00769754 -0.140848 -0.00795565
-0.00948495 -0.052916 -0.00298891
-0.00760967 0.0556282 0.00314208
-0.00279846 0.142714 0.0080611
0.00309241 0.17474 0.00987003
0.00779022 0.13935 0.00787103
0.00948244 0.050201 0.00283554
0.00751332 -0.0581561 -0.00328485
0.00252888 -0.137735 -0.00777907
-0.104061 -0.100641 -0.348697
-0.284976 -0.0849997 -0.29453
-0.351149 -0.0319339 -0.110654
-0.281722 0.0335707 0.116325
-0.103604 0.0861257 0.298434
0.114486 0.105453 0.365403
0.288407 0.0840958 0.291399
0.351056 0.0302955 0.104976
0.278154 -0.0350962 -0.121611
0.0936233 -0.0831204 -0.287994
-0.165164 0.00431322 -0.553446
-0.452302 0.00363985 -0.467467
-0.557329 0.00136741 -0.175626
-0.44714 -0.00143749 0.184627
-0.164436 -0.00368789 0.473662
0.181708 -0.00451548 0.579955
0.457747 -0.00360096 0.462497
0.557181 -0.00129725 0.166615
0.441475 0.00150296 -0.193016
0.148597 0.00356235 -0.457099
-0.162545 0.107603 -0.544671
-0.444832 0.0907214 -0.459758
-0.548119 0.0340809 -0.172725
-0.43975 -0.0358274 0.181577
-0.161718 -0.0919155 0.465837
0.178705 -0.112542 0.570372
0.450183 -0.089749 0.454856
0.547974 -0.032332 0.163862
0.434182 0.0374618 -0.189839
0.146241 0.0888706 -0.449851
-0.0972154 0.169379 -0.325758
-0.25414 0.136705 -0.262918
-0.313015 0.0512893 -0.0986423
-0.251127 -0.0539139 0.10369
-0.0923521 -0.138317 0.266018
0.102053 -0.169356 0.325714
0.257085 -0.135056 0.259748
0.312932 -0.048651 0.0935683
0.248048 0.0565243 -0.10871
0.0874642 0.139892 -0.269048
0 -0.176263 0
0 -0.149661 0
0 -0.0561504 0
0 0.0590238 0
0 0.151426 0
0 0.185407 0
0 0.147857 0
0 0.0532621 0
0 -0.0618815 0
0 -0.145578 0
0.101265 -0.108259 0.0706066
0.277319 -0.0915454 0.0596378
0.341715 -0.0343934 0.0224056
0.274154 0.0361562 -0.023554
0.10082 0.0927592 -0.0604281
-0.111411 0.113575 -0.0739885
-0.280657 0.0905724 -0.0590035
-0.341624 0.0326288 -0.0212561
-0.270681 -0.0377987 0.0246242
-0.0911079 -0.0894127 0.058315
0.163462 0.00151143 0.113973
0.447647 0.00127298 0.0962664
0.551592 0.000478203 0.036167
0.442537 -0.000502713 -0.0380208
0.162743 -0.0012897 -0.0975424
-0.179837 -0.00157914 -0.119432
-0.453035 -0.00125931 -0.0952431
-0.551446 -0.000453661 -0.0343114
-0.43693 0.000525668 0.0397482
-0.147066 0.00124831 0.0941316
0.162593 0.110699 0.113367
0.445269 0.0935015 0.095755
0.548662 0.035128 0.0359749
0.440186 -0.0369285 -0.0378188
0.161878 -0.0947403 -0.0970242
-0.178882 -0.116001 -0.118797
-0.450629 -0.0925073 -0.0947371
-0.548517 -0.0333257 -0.0341291
-0.43461 0.0386064 0.0395371
-0.146284 0.0914277 0.0936316
0.0989953 0.177178 0.0690239
0.271103 0.149653 0.0583007
0.334055 0.0562239 0.0219034
0.268008 -0.0591055 -0.023026
0.0985601 -0.151636 -0.0590733
-0.108913 -0.185664 -0.0723298
-0.274367 -0.148062 -0.0576809
-0.333966 -0.0533392 -0.0207796
-0.264613 0.061791 0.0240722
-0.0890656 0.146334 0.0570078
-0.00279589 0.1753 -0.00194942
-0.00765664 0.148067 -0.00164656
-0.00943455 0.0556282 -0.00061861
-0.00756929 -0.0584792 0.000650316
-0.0027836 -0.150029 0.00166839
0.00307599 -0.183696 0.00204279
0.00774884 -0.146492 0.00162906
0.00943205 -0.0527739 0.00058687
0.00747339 0.0611362 -0.000679864
0.00251545 0.144783 -0.00161005
-0.103508 0.105791 -0.0721706
-0.283462 0.0893554 -0.0609585
-0.349283 0.0335707 -0.0229019
-0.280226 -0.0352911 0.0240757
-0.103054 -0.0905396 0.0617664
0.113878 -0.110858 0.0756274
0.286874 -0.0884056 0.0603106
0.349191 -0.0318481 0.0217269
0.276676 0.0368947 -0.0251696
0.093126 0.0873739 -0.0596067
-0.164287 -0.00453395 -0.114548
-0.4499 -0.00382637 -0.096751
-0.554368 -0.00143749 -0.036349
-0.444765 0.00151116 0.0382122
-0.163562 0.00387689 0.0980333
0.180743 0.0047469 0.120033
0.455315 0.00378551 0.0957225
0.554221 0.00136373 0.0344841
0.43913 -0.00157998 -0.0399482
0.147808 -0.00374465 -0.0946067
-0.161682 -0.113109 -0.112732
-0.442469 -0.0953703 -0.0951561
-0.545208 -0.0358274 -0.0357486
-0.437413 0.0376635 0.0375808
-0.160858 0.0966261 0.0964139
0.177756 0.118309 0.11805
0.447792 0.0943484 0.0941414
0.545063 0.0339889 0.0339144
0.431876 -0.0393813 -0.0392909
0.145464 -0.0934184 -0.0931066
-0.096699 -0.178046 -0.0674228
-0.25279 -0.1437 -0.0544167
-0.311352 -0.0539139 -0.0204162
-0.249793 0.0566729 0.021461
-0.0918616 0.145395 0.0550584
0.101511 0.178022 0.0674138
0.255719 0.141968 0.0537605
0.31127 0.0511407 0.019366
0.24673 -0.0594168 -0.0225
0.0869996 -0.147051 -0.0556854
0 -0.452203 0
0 -0.383958 0
0 -0.144054 0
0 0.151426 0
0 0.388485 0
0 0.475664 0
0 0.379328 0
0 0.136644 0
0 -0.158758 0
0 -0.373481 0
0.0616556 -0.27774 -0.227168
0.168847 -0.234861 -0.191876
0.208053 -0.0882366 -0.0720872
0.166919 0.0927592 0.075782
0.0613844 0.237974 0.194419
-0.0678327 0.291377 0.238048
-0.170879 0.232365 0.189836
-0.207998 0.0837095 0.0683886
-0.164804 -0.096973 -0.0792252
-0.0554712 -0.229389 -0.187621
0.099524 0.0038776 -0.366693
0.272551 0.00326586 -0.309725
0.335839 0.00122684 -0.116363
0.26944 -0.0012897 0.122326
0.0990864 -0.00330877 0.31383
-0.109495 -0.00405131 0.384255
-0.275832 -0.00323076 0.306433
-0.33575 -0.00116387 0.110392
-0.266026 0.0013486 -0.127885
-0.0895412 0.00320256 -0.302857
0.0989953 0.283999 -0.364745
0.271103 0.239879 -0.30808
0.334055 0.0901212 -0.115745
0.268008 -0.0947403 0.121677
0.0985601 -0.243057 0.312162
-0.108913 -0.297601 0.382214
-0.274367 -0.237328 0.304805
-0.333966 -0.0854975 0.109806
-0.264613 0.099045 -0.127205
-0.0890656 0.234559 -0.301248
0.0602735 0.454552 -0.222076
0.165061 0.383934 -0.187576
0.20339 0.144243 -0.0704711
0.163177 -0.151636 0.0740832
0.0600087 -0.389023 0.190061
-0.0663119 -0.476322 0.232712
-0.167049 -0.379853 0.185581
-0.203336 -0.136842 0.0668556
-0.16111 0.158526 -0.0774493
-0.0542278 0.37542 -0.183415
-0.00170228 0.449735 0.00627201
-0.00466178 0.379867 0.00529762
-0.00574424 0.142714 0.0019903
-0.00460856 -0.150029 -0.0020923
-0.00169479 -0.3849 -0.00536783
0.00187284 -0.471274 -0.00657239
0.00471789 -0.375828 -0.00524129
0.00574272 -0.135392 -0.00188819
0.00455018 0.156846 0.00218737
0.00153154 0.371442 0.00518014
-0.0630213 0.271407 0.2322
-0.172586 0.229242 0.196126
-0.212662 0.0861257 0.0736841
-0.170617 -0.0905396 -0.0774605
-0.0627443 -0.232281 -0.198725
0.0693349 -0.284405 -0.243321
0.174664 -0.226805 -0.194041
0.212606 -0.0817066 -0.0699034
0.168455 0.0946536 0.0809798
0.0567 0.224159 0.191777
-0.100026 -0.0116319 0.368543
-0.273922 -0.0098166 0.311285
-0.33753 -0.00368789 0.116948
-0.270796 0.00387689 -0.122942
-0.0995851 0.00994617 -0.315409
0.110046 0.0121782 -0.386189
0.27722 0.00971178 -0.307975
0.33744 0.00349866 -0.110948
0.267365 -0.00405344 0.128529
0.0899931 -0.00960693 0.304385
-0.0984403 -0.290183 0.3627
-0.269398 -0.244673 0.306152
-0.331951 -0.0919155 0.115017
-0.26632 0.0966261 -0.120912
-0.0979393 0.247894 -0.3102
0.108227 0.303524 -0.37981
0.272639 0.242052 -0.302887
0.331863 0.0871988 -0.109115
0.262949 -0.101033 0.126413
0.0885663 -0.239666 0.299559
-0.0588754 -0.456779 0.216924
-0.153912 -0.368665 0.175079
-0.189568 -0.138317 0.0656866
-0.152087 0.145395 -0.069048
-0.0559301 0.373012 -0.177143
0.061805 0.456719 -0.216896
0.155695 0.36422 -0.172968
0.189517 0.131202 -0.0623078
0.150222 -0.152434 0.0723911
0.0529699 -0.37726 0.179161
0 -0.553681 0
0 -0.47012 0
0 -0.176381 0
0 0.185407 0
0 0.475664 0
0 0.582406 0
0 0.464452 0
0 0.167308 0
0 -0.194384 0
0 -0.457292 0
-0.00174132 -0.340067 -0.4373
-0.00476867 -0.287565 -0.369363
-0.00587599 -0.108038 -0.138768
-0.00471422 0.113574 0.14588
-0.00173367 0.291377 0.374259
0.00191576 0.356763 0.458243
0.00482608 0.284508 0.365435
0.00587443 0.102495 0.131648
0.00465452 -0.118734 -0.152509
0.00156666 -0.280866 -0.361172
-0.00281082 0.00474776 -0.705886
-0.00769754 0.00399871 -0.596223
-0.00948495 0.00150216 -0.223999
-0.00760967 -0.00157914 0.235479
-0.00279846 -0.00405131 0.604125
0.00309242 -0.00496042 0.739694
0.00779022 -0.00395578 0.589884
0.00948244 -0.00142505 0.212506
0.00751332 0.00165125 -0.246178
0.00252888 0.00392124 -0.583001
-0.00279589 0.34773 -0.702136
-0.00765664 0.293708 -0.593056
-0.00943455 0.110345 -0.222809
-0.00756929 -0.116001 0.234228
-0.0027836 -0.297601 0.600915
0.00307599 -0.364384 0.735763
0.00774884 -0.290586 0.58675
0.00943205 -0.104683 0.211377
0.00747339 0.121271 -0.244871
0.00251545 0.287195 -0.579904
-0.00170228 0.556556 -0.427497
-0.00466178 0.470092 -0.361082
-0.00574424 0.176612 -0.135658
-0.00460856 -0.185664 0.14261
-0.00169479 -0.476322 0.365868
0.00187284 -0.583211 0.447972
0.00471789 -0.465095 0.357243
0.00574272 -0.167551 0.128697
0.00455019 0.1941 -0.14909
0.00153154 0.459667 -0.353076
4.80771e-05 0.550658 0.0120737
0.00013166 0.465111 0.0101979
0.000162235 0.17474 0.00383131
0.000130159 -0.183696 -0.00402772
4.78658e-05 -0.471274 -0.0103331
-5.28929e-05 -0.577031 -0.0126519
-0.000133248 -0.460166 -0.0100895
-0.000162192 -0.165775 -0.00363476
-0.000128509 0.192043 0.0042107
-4.32547e-05 0.454796 0.0099718
0.00177989 0.332313 0.446986
0.00487429 0.280686 0.377545
0.00600616 0.105453 0.141842
0.00481866 -0.110858 -0.149112
0.00177206 -0.284405 -0.382547
-0.0019582 -0.348228 -0.468394
-0.00493299 -0.277702 -0.373531
-0.00600456 -0.100042 -0.134565
-0.00475762 0.115895 0.155887
-0.00160136 0.274461 0.369172
0.00282501 -0.0142422 0.709448
0.00773631 -0.0120195 0.599224
0.00953271 -0.00451548 0.225126
0.00764795 0.0047469 -0.236664
0.00281254 0.0121782 -0.607166
-0.00310798 0.0149111 -0.743418
-0.00782943 0.0118911 -0.592854
-0.00953019 0.00428378 -0.213576
-0.00755112 -0.00496306 0.247418
-0.00254165 -0.0117628 0.585943
0.00278022 -0.355302 0.698199
0.00760852 -0.299579 0.589343
0.00937515 -0.112542 0.221408
0.00752163 0.118309 -0.232755
0.00276608 0.303524 -0.597135
-0.00305662 0.371637 -0.731135
-0.00770001 0.29637 -0.583058
-0.00937267 0.106767 -0.210047
-0.00742637 -0.123706 0.243346
-0.00250135 -0.293448 0.576653
0.0016628 -0.559284 0.417581
0.00434687 -0.451396 0.337028
0.00535389 -0.169356 0.126447
0.00429534 0.178022 -0.132918
0.00157961 0.456719 -0.341002
-0.00174554 0.559209 -0.417525
-0.00439725 0.445953 -0.332964
-0.00535247 0.160645 -0.119943
-0.00424267 -0.186642 0.139353
-0.00149601 -0.46192 0.344886
0 -0.441544 0
0 -0.374907 0
0 -0.140659 0
0 0.147857 0
0 0.379328 0
0 0.464452 0
0 0.370386 0
0 0.133423 0
0 -0.155015 0
0 -0.364677 0
-0.0644664 -0.271193 -0.478718
-0.176544 -0.229324 -0.404347
-0.217538 -0.0861568 -0.151912
-0.174528 0.0905724 0.159697
-0.064183 0.232365 0.409706
0.0709246 0.284508 0.501645
0.178669 0.226887 0.400047
0.21748 0.0817361 0.144117
0.172318 -0.094687 -0.166954
0.0580001 -0.223982 -0.39538
-0.104061 0.0037862 -0.772743
-0.284976 0.00318886 -0.652692
-0.351149 0.00119792 -0.245214
-0.281722 -0.00125931 0.257783
-0.103604 -0.00323076 0.661342
0.114486 -0.00395578 0.809752
0.288407 -0.00315462 0.645751
0.351056 -0.00113645 0.232633
0.278154 0.00131682 -0.269495
0.0936233 0.00312707 -0.638219
-0.103508 0.277305 -0.768638
-0.283462 0.234224 -0.649224
-0.349283 0.087997 -0.243912
-0.280226 -0.0925073 0.256413
-0.103054 -0.237328 0.657828
0.113878 -0.290586 0.80545
0.286874 -0.231734 0.642321
0.349191 -0.0834822 0.231397
0.276676 0.0967103 -0.268064
0.093126 0.22903 -0.634829
-0.0630213 0.443837 -0.467987
-0.172586 0.374886 -0.395282
-0.212662 0.140843 -0.148507
-0.170617 -0.148062 0.156117
-0.0627443 -0.379853 0.40052
0.0693349 -0.465095 0.490399
0.174664 -0.3709 0.39108
0.212605 -0.133617 0.140886
0.168455 0.154789 -0.163211
0.0567 0.366571 -0.386517
0.00177989 0.439134 0.0132172
0.00487429 0.370913 0.0111638
0.00600616 0.13935 0.0041942
0.00481866 -0.146492 -0.00440917
0.00177206 -0.375828 -0.0113117
-0.0019582 -0.460166 -0.0138502
-0.00493299 -0.366968 -0.0110452
-0.00600456 -0.132201 -0.00397902
-0.00475762 0.153149 0.00460951
-0.00160136 0.362686 0.0109163
0.0658944 0.265009 0.489322
0.180454 0.223839 0.413304
0.222357 0.0840958 0.155276
0.178394 -0.0884056 -0.163235
0.0656047 -0.226805 -0.41878
-0.0724959 -0.277702 -0.512757
-0.182627 -0.22146 -0.408909
-0.222298 -0.0797806 -0.14731
-0.176135 0.0924226 0.170652
-0.0592849 0.218875 0.404138
0.104586 -0.0113577 0.776642
0.28641 -0.00958523 0.655977
0.352916 -0.00360096 0.246448
0.28314 0.00378551 -0.25908
0.104125 0.00971178 -0.664672
-0.115063 0.0118911 -0.813828
-0.289858 0.00948283 -0.649002
-0.352823 0.00341618 -0.233804
-0.279554 -0.00395789 0.270852
-0.0940958 -0.00938048 0.641439
0.102928 -0.283343 0.764328
0.281679 -0.238906 0.64516
0.347084 -0.089749 0.242378
0.278462 0.0943484 -0.2548
0.102405 0.242052 -0.65369
-0.113161 0.29637 -0.800383
-0.285067 0.236346 -0.63828
-0.346992 0.0851434 -0.229941
-0.274936 -0.0986516 0.266394
-0.0926039 -0.234016 0.631269
0.0615595 -0.446012 0.457131
0.160928 -0.359975 0.368949
0.19821 -0.135056 0.138423
0.15902 0.141968 -0.145507
0.0584799 0.36422 -0.373299
-0.0646227 0.445953 -0.45707
-0.162793 0.355634 -0.3645
-0.198157 0.128109 -0.131303
-0.15707 -0.148841 0.152552
-0.0553847 -0.368368 0.377551
0 -0.159056 0
0 -0.135052 0
0 -0.0506691 0
0 0.0532621 0
0 0.136644 0
0 0.167308 0
0 0.133423 0
0 0.0480628 0
0 -0.0558408 0
0 -0.131367 0
-0.10232 -0.0976912 -0.335443
-0.280204 -0.0826139 -0.283333
-0.345268 -0.031038 -0.106448
-0.277005 0.0326289 0.111904
-0.101869 0.0837096 0.287089
0.112569 0.102495 0.351514
0.283576 0.0817362 0.280322
0.345177 0.0294455 0.100986
0.273496 -0.0341108 -0.116988
0.0920567 -0.0806845 -0.277047
-0.165164 0.00136389 -0.541469
-0.452302 0.00114878 -0.457355
-0.557329 0.00043155 -0.171827
-0.44714 -0.000453662 0.180633
-0.164436 -0.00116387 0.463417
0.181708 -0.00142505 0.567409
0.457747 -0.00113645 0.452493
0.557181 -0.000409405 0.163011
0.441475 0.000474381 -0.188841
0.148597 0.00112646 -0.447207
-0.164287 0.0998928 -0.538593
-0.4499 0.0843792 -0.454925
-0.554368 0.031701 -0.170914
-0.444765 -0.0333258 0.179674
-0.163562 -0.0854976 0.460955
0.180743 -0.104684 0.564395
0.455315 -0.0834823 0.45009
0.554221 -0.0300746 0.162145
0.43913 0.0348398 -0.187838
0.147808 0.0825028 -0.444831
-0.100026 0.159882 -0.327923
-0.273922 0.135052 -0.276983
-0.33753 0.0507388 -0.104061
-0.270796 -0.0533393 0.109395
-0.0995851 -0.136842 0.280653
0.110046 -0.167551 0.343635
0.27722 -0.133617 0.274038
0.33744 -0.0481355 0.0987223
0.267365 0.0557625 -0.114365
0.0899931 0.132049 -0.270837
0.00282501 0.158188 0.00926143
0.0077363 0.133621 0.00782273
0.00953271 0.0502011 0.00293898
0.00764795 -0.052774 -0.0030896
0.00281254 -0.135392 -0.00792639
-0.00310798 -0.165775 -0.00970513
-0.00782943 -0.132201 -0.00773956
-0.00953019 -0.0476253 -0.00278819
-0.00755112 0.0551716 0.00322999
-0.00254165 0.13065 0.00764915
0.104586 0.0954637 0.342873
0.28641 0.0806377 0.28961
0.352916 0.0302955 0.108805
0.28314 -0.0318482 -0.114382
0.104125 -0.0817067 -0.293448
-0.115063 -0.100042 -0.359299
-0.289858 -0.0797807 -0.286531
-0.352823 -0.0287411 -0.103223
-0.279554 0.033295 0.119579
-0.0940958 0.0788448 0.283184
0.165998 -0.00409136 0.544202
0.454579 -0.00345306 0.459658
0.560134 -0.00129725 0.172692
0.44939 0.00136373 -0.181543
0.165263 0.00349866 -0.46575
-0.182623 0.00428378 -0.570266
-0.460052 0.00341618 -0.454771
-0.559985 0.00123068 -0.163831
-0.443697 -0.00142582 0.189792
-0.149347 -0.00337911 0.449464
0.163366 -0.102068 0.535573
0.447071 -0.0860653 0.452078
0.550878 -0.0323321 0.16984
0.441964 0.0339889 -0.178543
0.162532 0.0871989 -0.458055
-0.179604 0.106767 -0.560845
-0.452448 0.0851434 -0.44726
-0.550732 0.0306728 -0.161124
-0.436368 -0.0355388 0.186668
-0.146979 -0.0842992 0.442338
0.097706 -0.160666 0.320317
0.255422 -0.129673 0.258527
0.314595 -0.048651 0.0969948
0.252394 0.0511407 -0.101958
0.0928182 0.131202 -0.261575
-0.102568 0.160645 -0.320274
-0.258383 0.128109 -0.255409
-0.314511 0.0461485 -0.0920055
-0.249299 -0.0536167 0.106895
-0.0879056 -0.132696 0.264554
0 0.184796 0
0 0.156907 0
0 0.0588689 0
0 -0.0618814 0
0 -0.158758 0
0 -0.194384 0
0 -0.155015 0
0 -0.0558408 0
0 0.0648775 0
0 0.152626 0
-0.100698 0.113501 -0.062752
-0.275576 0.0957133 -0.0532227
-0.339563 0.0359549 -0.0199992
-0.272427 -0.0377973 0.0210246
-0.100185 -0.0969695 0.0539386
0.110709 -0.11873 0.0660428
0.278891 -0.0946836 0.0526672
0.339473 -0.0341096 0.0189736
0.268978 0.0395246 -0.0219713
0.0905971 0.0937417 -0.0518277
-0.162545 -0.00158461 -0.101294
-0.444832 -0.00133121 -0.0859115
-0.548119 -0.000500027 -0.0322827
-0.43975 0.000525646 0.0339377
-0.161718 0.00134855 0.0870673
0.178705 0.00165118 0.106606
0.450183 0.00131676 0.085015
0.547974 0.000474361 0.030627
0.434182 -0.000549782 -0.0354658
0.146241 -0.00130875 -0.0836599
-0.161682 -0.116058 -0.100756
-0.442469 -0.0977586 -0.0854551
-0.545208 -0.0367231 -0.0321112
-0.437413 0.038605 0.0337574
-0.160858 0.0990413 0.0866048
0.177756 0.121267 0.106039
0.447792 0.0967067 0.0845636
0.545063 0.0348384 0.0304643
0.431876 -0.0403696 -0.0352774
0.145464 -0.0958543 -0.0832155
-0.0984403 -0.185756 -0.0613453
-0.269398 -0.156467 -0.0520296
-0.331951 -0.0587768 -0.0195509
-0.26632 0.0617887 0.0205532
-0.0979393 0.158519 0.0527295
0.108227 0.194092 0.0645624
0.272639 0.154783 0.0514866
0.331863 0.0557603 0.0185483
0.262949 -0.0646131 -0.0214787
0.0885663 -0.153418 -0.0506659
0.00278022 -0.183788 0.00173255
0.00760852 -0.154809 0.00146945
0.00937515 -0.0581539 0.00055217
0.00752164 0.0611339 -0.000580478
0.00276608 0.15684 -0.00148922
-0.00305662 0.192036 -0.00182341
-0.00770001 0.153143 -0.00145412
-0.00937267 0.0551694 -0.000523852
-0.00742637 -0.0639283 0.000606617
-0.00250135 -0.151793 0.00143094
0.102928 -0.110913 0.064142
0.281679 -0.0934245 0.0544016
0.347084 -0.0350948 0.0204423
0.278462 0.0368933 -0.0214902
0.102405 0.09465 -0.0551333
-0.113161 0.11589 -0.0675058
-0.285067 0.0924191 -0.0538338
-0.346992 0.0332937 -0.0193939
-0.274936 -0.0385796 0.0224579
-0.0926039 -0.0916042 0.0529757
0.163366 0.00475346 0.101805
0.447071 0.00400097 0.0863438
0.550878 0.00150291 0.0324451
0.441964 -0.00157991 -0.0341084
0.162532 -0.00405329 -0.0875053
-0.179604 -0.00496288 -0.107142
-0.452448 -0.00395774 -0.0854427
-0.550732 -0.00142576 -0.030781
-0.436368 0.00165227 0.0356443
-0.146979 0.00392595 0.0840821
0.160775 0.118585 0.100191
0.439693 0.0997284 0.0849131
0.541782 0.0374604 0.0319063
0.434664 -0.0393799 -0.0335419
0.159848 -0.101029 -0.0860519
-0.176639 -0.123701 -0.105362
-0.444979 -0.098648 -0.0840237
-0.541638 -0.0355375 -0.0302698
-0.429166 0.0411861 0.0350547
-0.144649 0.0979413 0.082749
0.0961569 0.186666 0.0599223
0.251373 0.150658 0.0483631
0.309607 0.0565243 0.018145
0.248393 -0.0594168 -0.0190735
0.0913465 -0.152434 -0.0489334
-0.100942 -0.186642 -0.0599144
-0.254286 -0.148841 -0.0477799
-0.309525 -0.0536167 -0.0172116
-0.245347 0.0622935 0.019997
-0.0865119 0.15417 0.0494907
0 0.457353 0
0 0.369128 0
0 0.138491 0
0 -0.145578 0
0 -0.373481 0
0 -0.457292 0
0 -0.364677 0
0 -0.131367 0
0 0.152626 0
0 0.377734 0
-0.0602254 0.280903 0.234149
-0.157441 0.226716 0.188981
-0.193914 0.0850599 0.0709025
-0.155574 -0.0894127 -0.0745308
-0.0572126 -0.229389 -0.19121
0.0632223 -0.280866 -0.234118
0.159265 -0.223982 -0.186702
0.193863 -0.0806845 -0.0672554
0.153667 0.0937417 0.0781393
0.0541845 0.232002 0.193387
-0.0972154 -0.00392176 0.377962
-0.25414 -0.00316524 0.305052
-0.313015 -0.00118754 0.11445
-0.251127 0.00124831 -0.120307
-0.0923521 0.00320256 -0.308649
0.102053 0.00392124 -0.377912
0.257085 0.00312707 -0.301374
0.312932 0.00112646 -0.108563
0.248047 -0.00130875 0.126132
0.0874642 -0.00323904 0.312164
-0.096699 -0.287234 0.375955
-0.25279 -0.231825 0.303432
-0.311352 -0.0869768 0.113842
-0.249793 0.0914277 -0.119668
-0.0918615 0.234559 -0.30701
0.101511 0.287195 -0.375905
0.255719 0.22903 -0.299773
0.31127 0.0825028 -0.107986
0.24673 -0.0958543 0.125462
0.0869996 -0.23723 0.310506
-0.0588754 -0.459729 0.228901
-0.153912 -0.371045 0.184745
-0.189568 -0.13921 0.0693131
-0.152087 0.146334 -0.0728601
-0.0559301 0.37542 -0.186923
0.061805 0.459667 -0.22887
0.155695 0.366571 -0.182517
0.189517 0.132049 -0.0657478
0.150222 -0.153419 0.0763877
0.0529699 -0.379696 0.189052
0.0016628 -0.454857 -0.00646477
0.00434687 -0.367113 -0.00521769
0.00535389 -0.137735 -0.00195759
0.00429534 0.144783 0.00205776
0.00157961 0.371442 0.00527922
-0.00174554 0.454796 0.00646391
-0.00439725 0.362687 0.00515477
-0.00535247 0.13065 0.00185689
-0.00424267 -0.151793 -0.00215739
-0.00149601 -0.375672 -0.00533934
0.0615595 -0.274498 -0.239336
0.160928 -0.221546 -0.193167
0.19821 -0.0831204 -0.0724731
0.15902 0.0873739 0.0761817
0.0584799 0.224159 0.195445
-0.0646227 0.274461 0.239304
-0.162793 0.218875 0.190838
-0.198157 0.0788448 0.0687451
-0.15707 -0.0916043 -0.0798702
-0.0553847 -0.226712 -0.197671
0.097706 0.0117644 -0.37987
0.255422 0.00949497 -0.306591
0.314595 0.00356235 -0.115028
0.252394 -0.00374465 0.120914
0.0928182 -0.00960693 0.310207
-0.102568 -0.0117628 0.379819
-0.258382 -0.00938048 0.302895
-0.314511 -0.00337911 0.109111
-0.249299 0.00392595 -0.126768
-0.0879056 0.00971634 -0.31374
0.0961569 0.293488 -0.373847
0.251373 0.236873 -0.30173
0.309607 0.0888706 -0.113204
0.248393 -0.0934184 0.118997
0.0913465 -0.239666 0.305288
-0.100942 -0.293449 0.373797
-0.254286 -0.234017 0.298092
-0.309525 -0.0842992 0.107381
-0.245347 0.0979414 -0.124759
-0.0865119 0.242395 -0.308765
0.0575097 0.461982 -0.223591
0.150341 0.372864 -0.180459
0.18517 0.139892 -0.0677053
0.148559 -0.147051 0.07117
0.0546327 -0.37726 0.182587
-0.0603714 -0.46192 0.223561
-0.152084 -0.368368 0.178284
-0.185121 -0.132696 0.0642227
-0.146737 0.15417 -0.0746158
-0.0517412 0.381557 -0.184667
