# vtk DataFile Version 3.0
Velocity field
ASCII
DATASET STRUCTURED_POINTS
DIMENSIONS 10 10 10
SPACING 0.631579 0.631579 0.631579
ORIGIN 0 0 0
POINT_DATA 1000
VECTORS velocity float
0 0.621403 0
0 0.501532 0
0 0.188166 0
0 -0.197795 0
0 -0.507446 0
0 -0.62132 0
0 -0.495485 0
0 -0.178487 0
0 0.207372 0
0 0.513225 0
0 0.381661 0.48676
0 0.308037 0.408266
0 0.11557 0.153174
0 -0.121484 -0.161013
0 -0.31167 -0.41308
0 -0.38161 -0.505778
0 -0.304323 -0.403343
0 -0.109626 -0.145295
0 0.127366 0.168808
0 0.315219 0.402021
0 -0.00532847 0.785724
0 -0.00430059 0.65902
0 -0.00161351 0.247253
0 0.00169608 -0.259906
0 0.0043513 -0.666791
0 0.00532776 -0.816424
0 0.00424873 -0.651074
0 0.00153051 -0.234535
0 -0.00177819 0.272489
0 -0.00440086 0.64894
0 -0.390262 0.78155
0 -0.314979 0.655519
0 -0.118175 0.24594
0 0.124222 -0.258525
0 0.318693 -0.663249
0 0.39021 -0.812087
0 0.311181 -0.647615
0 0.112096 -0.233289
0 -0.130237 0.271042
0 -0.322323 0.645493
0 -0.62463 0.475848
0 -0.504137 0.399114
0 -0.189143 0.149741
0 0.198823 -0.157403
0 0.510081 -0.40382
0 0.624547 -0.49444
0 0.498058 -0.394302
0 0.179414 -0.142038
0 -0.208449 0.165024
0 -0.515891 0.39301
0 -0.618011 -0.0134392
0 -0.498794 -0.011272
0 -0.187139 -0.00422908
0 0.196716 0.00444549
0 0.504676 0.011405
0 0.617929 0.0139643
0 0.49278 0.0111361
0 0.177513 0.00401154
0 -0.20624 -0.00466073
0 -0.510424 -0.0110996
0 -0.372959 -0.497542
0 -0.301013 -0.417309
0 -0.112935 -0.156567
0 0.118714 0.164579
0 0.304563 0.42223
0 0.372909 0.516981
0 0.297384 0.412277
0 0.107126 0.148514
0 -0.124462 -0.172548
0 -0.308032 -0.410927
0 0.0159842 -0.789689
0 0.0129007 -0.662346
0 0.00484014 -0.248501
0 -0.00508783 0.261218
0 -0.0130529 0.670156
0 -0.015982 0.820544
0 -0.0127452 0.654359
0 -0.00459117 0.235718
0 0.00533416 -0.273865
0 0.0132015 -0.652215
0 0.39876 -0.777168
0 0.321837 -0.651844
0 0.120748 -0.244561
0 -0.126927 0.257076
0 -0.325633 0.65953
0 -0.398707 0.807534
0 -0.317957 0.643984
0 -0.114537 0.231981
0 0.133072 -0.269522
0 0.329341 -0.641874
0 0.627691 -0.46481
0 0.506607 -0.375147
0 0.19007 -0.140749
0 -0.199797 0.147951
0 -0.512581 0.37957
0 -0.627608 0.464748
0 -0.500499 0.370623
0 -0.180293 0.133509
0 0.20947 -0.155114
0 0.518419 -0.383893
0 0.501532 0
0 0.425842 0
0 0.159769 0
0 -0.167944 0
0 -0.430863 0
0 -0.527552 0
0 -0.420707 0
0 -0.15155 0
0 0.176076 0
0 0.414222 0
0.0707742 0.308037 0.538706
0.195141 0.261675 0.458028
0.240486 0.0983407 0.172146
0.19294 -0.103384 -0.180975
0.0709537 -0.265233 -0.464292
-0.0784071 -0.324752 -0.568481
-0.197518 -0.25898 -0.453348
-0.240423 -0.0932999 -0.163323
-0.190472 0.108009 0.18904
-0.0636752 0.254412 0.444925
0.114243 -0.00430059 0.869575
0.314996 -0.00363832 0.739344
0.388191 -0.00136717 0.277876
0.311443 0.00143728 -0.292128
0.114533 0.00368737 -0.749456
-0.126564 0.00451479 -0.91764
-0.318831 0.00360044 -0.73179
-0.388088 0.00129708 -0.263636
-0.307459 -0.00150191 0.305147
-0.102784 -0.00355191 0.718194
0.113636 -0.314979 0.864956
0.313323 -0.267303 0.735416
0.386129 -0.100456 0.2764
0.309789 0.105608 -0.290576
0.113925 0.270939 -0.745474
-0.125892 0.331737 -0.912765
-0.317138 0.264552 -0.727903
-0.386027 0.0953074 -0.262236
-0.305826 -0.110331 0.303526
-0.102238 -0.260146 0.714379
0.0691877 -0.504137 0.52663
0.190767 -0.427829 0.447759
0.235095 -0.160784 0.168287
0.188615 0.16903 -0.176918
0.0693631 0.433647 -0.453884
-0.0766497 0.530961 -0.555738
-0.19309 0.423427 -0.443185
-0.235033 0.152544 -0.159662
-0.186202 -0.176589 0.184802
-0.0622478 -0.416373 0.434951
-0.00195404 -0.498794 -0.0148734
-0.00538777 -0.423295 -0.0126459
-0.00663972 -0.15908 -0.00475288
-0.00532697 0.167238 0.00499663
-0.00195902 0.429053 0.0128189
0.00216476 0.525334 0.0156956
0.00545337 0.41894 0.0125168
0.00663797 0.150927 0.00450928
0.00525886 -0.174718 -0.00521929
0.00175804 -0.411961 -0.0122842
-0.0723419 -0.301013 -0.550639
-0.199464 -0.255451 -0.468173
-0.245813 -0.0960024 -0.175959
-0.197214 0.100925 0.184983
-0.0725255 0.258925 0.474576
0.0801435 0.31703 0.581073
0.201893 0.252823 0.46339
0.245748 0.0910814 0.166941
0.194691 -0.105439 -0.193227
0.0650856 -0.248611 -0.45478
-0.11482 0.0129007 -0.873963
-0.31658 0.0109354 -0.74306
-0.390143 0.00410937 -0.279273
-0.313009 -0.00432009 0.293597
-0.115109 -0.0110832 0.753224
0.1272 -0.0135704 0.922254
0.320434 -0.010822 0.735469
0.390039 -0.00389871 0.264961
0.309005 0.00451396 -0.306682
0.103303 0.0106549 -0.721819
-0.112999 0.321837 -0.860107
-0.311288 0.272536 -0.730677
-0.383616 0.102412 -0.274607
-0.307772 -0.107663 0.288689
-0.113183 -0.276209 0.740635
0.125072 -0.338193 0.90684
0.315075 -0.2697 0.723178
0.383514 -0.097161 0.260533
0.303839 0.112503 -0.301582
0.101665 0.26581 -0.710374
-0.0675828 0.506607 -0.514414
-0.176674 0.408881 -0.415182
-0.217604 0.153405 -0.155769
-0.17458 -0.161255 0.16374
-0.0642019 -0.413702 0.420078
0.0709457 -0.50654 0.514346
0.178722 -0.40395 0.410176
0.217546 -0.145514 0.147757
0.172439 0.169063 -0.171668
0.0608039 0.418414 -0.424862
0 0.188166 0
0 0.159769 0
0 0.0599425 0
0 -0.0630099 0
0 -0.161653 0
0 -0.197928 0
0 -0.157842 0
0 -0.0568591 0
0 0.0660606 0
0 0.155409 0
0.114243 0.11557 0.382816
0.314996 0.0983407 0.325457
0.388191 0.0369608 0.122323
0.311443 -0.0388563 -0.128597
0.114533 -0.0996861 -0.329915
-0.126564 -0.122056 -0.403951
-0.318831 -0.0973364 -0.322139
-0.388088 -0.0350665 -0.116055
-0.307459 0.0405876 0.134322
-0.102784 0.0954511 0.316173
0.18441 -0.00161351 0.617938
0.508465 -0.00136717 0.525351
0.626617 -0.000513786 0.197452
0.50273 0.00054013 -0.20758
0.184879 0.00138571 -0.532549
-0.204298 0.00169669 -0.652054
-0.514655 0.00135305 -0.519995
-0.626451 0.000487449 -0.187334
-0.496297 -0.000564332 0.216821
-0.165913 -0.00133262 0.510364
0.183431 -0.118175 0.614655
0.505764 -0.100456 0.522559
0.623288 -0.0377562 0.196404
0.500059 0.0396926 -0.206477
0.183897 0.101832 -0.52972
-0.203213 0.124684 -0.648591
-0.511922 0.0994314 -0.517232
-0.623123 0.0358212 -0.186339
-0.49366 -0.0414601 0.215669
-0.165032 -0.0976022 0.507653
0.111682 -0.189143 0.374234
0.307935 -0.160784 0.318162
0.37949 -0.0604302 0.119581
0.304462 0.0635297 -0.125714
0.111966 0.162986 -0.32252
-0.123727 0.199561 -0.394896
-0.311685 0.159144 -0.314919
-0.379389 0.0573335 -0.113453
-0.300566 -0.0663588 0.131311
-0.10048 -0.156216 0.309085
-0.0031542 -0.187139 -0.0105694
-0.00869688 -0.15908 -0.00898573
-0.0107178 -0.0597897 -0.00337729
-0.00859876 0.0628566 0.0035505
-0.00316221 0.161258 0.00910887
0.00349437 0.197446 0.0111529
0.00880276 0.157458 0.00889408
0.0107149 0.0567259 0.00320421
0.00848885 -0.0656556 -0.00370856
0.00283782 -0.154561 -0.00872939
-0.116774 -0.112935 -0.391295
-0.321973 -0.0960023 -0.332665
-0.39679 -0.0360821 -0.125032
-0.318341 0.0379329 0.131445
-0.11707 0.0973168 0.337224
0.129367 0.119155 0.412899
0.325893 0.095023 0.329274
0.396685 0.0342331 0.118625
0.314269 -0.039622 -0.137297
0.105061 -0.0932747 -0.323176
-0.185341 0.00484014 -0.621056
-0.51102 0.00410937 -0.527992
-0.629766 0.00154438 -0.198445
-0.505257 -0.00162358 0.208624
-0.185808 -0.0041653 0.535226
0.205326 -0.00510002 0.655332
0.517242 -0.00406712 0.522609
0.629599 -0.00146522 0.188276
0.498793 0.00169615 -0.217911
0.16675 0.00399754 -0.512939
-0.182402 0.120748 -0.61121
-0.502479 0.102412 -0.519186
-0.619231 0.0384866 -0.195128
-0.496803 -0.0404603 0.205135
-0.182699 -0.103801 0.526275
0.20189 -0.127095 0.644373
0.50859 -0.101355 0.51387
0.619067 -0.0365139 0.185127
0.490454 0.0422724 -0.214287
0.164107 0.0997273 -0.504807
-0.109092 0.19007 -0.365553
-0.285186 0.153405 -0.295037
-0.351254 0.057555 -0.110693
-0.281806 -0.0605003 0.116357
-0.103634 -0.155214 0.298516
0.11452 -0.190045 0.365505
0.288492 -0.151555 0.291479
0.351161 -0.0545944 0.104999
0.27835 0.0634295 -0.121991
0.0981492 0.156982 -0.301916
0 -0.197795 0
0 -0.167944 0
0 -0.0630099 0
0 0.0662343 0
0 0.169925 0
0 0.208057 0
0 0.165919 0
0 0.0597687 0
0 -0.0694411 0
0 -0.163362 0
0.113636 -0.121484 0.0792322
0.313323 -0.103384 0.0673599
0.386129 -0.0388563 0.025317
0.309789 0.0408493 -0.0266156
0.113925 0.104799 -0.0682827
-0.125892 0.128317 -0.0836054
-0.317138 0.102329 -0.066673
-0.386027 0.0368651 -0.0240197
-0.305826 -0.0426688 0.0278005
-0.102238 -0.100336 0.0654389
0.183431 0.00169608 0.127896
0.505764 0.00143728 0.108731
0.623288 0.00054013 0.0408665
0.500059 -0.000567833 -0.0429628
0.183897 -0.00145677 -0.110221
-0.203213 -0.0017837 -0.134956
-0.511922 -0.00142245 -0.107623
-0.623123 -0.000512444 -0.0387725
-0.49366 0.000593266 0.0448753
-0.165032 0.00140081 0.105631
0.182456 0.124222 0.127217
0.503077 0.105608 0.108154
0.619977 0.0396926 0.0406494
0.497402 -0.0417285 -0.0427345
0.18292 -0.107055 -0.109635
-0.202134 -0.131079 -0.134239
-0.509203 -0.104532 -0.107051
-0.619813 -0.0376586 -0.0385665
-0.491038 0.0435863 0.0446369
-0.164155 0.102597 0.10507
0.111089 0.198823 0.0774561
0.3063 0.16903 0.0658496
0.377474 0.0635297 0.0247495
0.302844 -0.0667883 -0.026019
0.111371 -0.171346 -0.0667519
-0.123069 -0.209797 -0.0817312
-0.31003 -0.167307 -0.0651784
-0.377374 -0.0602742 -0.0234813
-0.29897 0.0697613 0.0271772
-0.0999461 0.16421 0.063972
-0.00313745 0.196716 -0.00218757
-0.00865067 0.167238 -0.00185976
-0.0106608 0.0628566 -0.000698993
-0.00855314 -0.0660805 0.000734845
-0.00314542 -0.16953 0.00188525
0.00347581 -0.207574 0.00230832
0.008756 -0.165533 0.00184081
0.010658 -0.0596354 0.000663172
0.00844374 0.0690222 -0.000767559
0.00282275 0.16247 -0.00180674
-0.116153 0.118714 -0.0809872
-0.320263 0.100925 -0.0688516
-0.394682 0.0379329 -0.0258778
-0.31665 -0.0398784 0.0272051
-0.116449 -0.102308 0.0697947
0.12868 -0.125267 0.0854575
0.324162 -0.0998968 0.06815
0.394577 -0.0359889 0.0245517
0.3126 0.0416536 -0.0284162
0.104503 0.0980478 -0.0668885
-0.184356 -0.00508783 -0.128541
-0.508306 -0.00432009 -0.109278
-0.626421 -0.00162358 -0.0410719
-0.502573 0.00170684 0.0431788
-0.184821 0.00437891 0.110775
0.204235 0.00536157 0.135634
0.514495 0.0042757 0.108164
0.626255 0.00154036 0.0389674
0.496143 -0.00178312 -0.0451009
0.165865 -0.00420211 -0.106164
-0.181433 -0.126927 -0.126503
-0.499809 -0.107663 -0.107456
-0.615942 -0.0404603 -0.0403853
-0.494163 0.0425351 0.0424566
-0.181729 0.109124 0.108923
0.200818 0.133613 0.133366
0.505889 0.106552 0.106355
0.615779 0.0383863 0.0383157
0.487849 -0.0444397 -0.044351
0.163235 -0.104831 -0.104481
-0.108512 -0.199797 -0.0756594
-0.283672 -0.161255 -0.0610644
-0.349388 -0.0605003 -0.0229103
-0.280309 0.0635962 0.0240827
-0.103084 0.163157 0.0617845
0.113912 0.19977 0.0756493
0.286959 0.159311 0.0603281
0.349296 0.0573882 0.0217318
0.276871 -0.0666753 -0.0252487
0.0976278 -0.165015 -0.0624881
0 -0.507446 0
0 -0.430863 0
0 -0.161653 0
0 0.169925 0
0 0.435944 0
0 0.533773 0
0 0.425668 0
0 0.153337 0
0 -0.178152 0
0 -0.419107 0
0.0691877 -0.31167 -0.25492
0.190767 -0.265233 -0.21672
0.235095 -0.0996861 -0.0814541
0.188615 0.104799 0.0856322
0.0693631 0.268863 0.21969
-0.0766497 0.329197 0.26899
-0.19309 0.262525 0.214511
-0.235033 0.0945778 0.0772804
-0.186202 -0.109467 -0.0894443
-0.0622478 -0.257412 -0.210542
0.111682 0.0043513 -0.411489
0.307935 0.00368737 -0.349829
0.37949 0.00138571 -0.131483
0.304462 -0.00145677 0.138227
0.111966 -0.00373738 0.354622
-0.123727 -0.00457611 0.4342
-0.311685 -0.00364927 0.346263
-0.379389 -0.00131468 0.124745
-0.300566 0.00152202 -0.14438
-0.10048 0.0035938 -0.339855
0.111089 0.318693 -0.409303
0.3063 0.270939 -0.347971
0.377474 0.101832 -0.130784
0.302844 -0.107055 0.137493
0.111371 -0.27465 0.352738
-0.123069 -0.336283 0.431894
-0.31003 -0.268176 0.344424
-0.377374 -0.0966134 0.124082
-0.29897 0.111821 -0.143613
-0.0999461 0.263213 -0.338049
0.0676367 0.510081 -0.249205
0.186491 0.433646 -0.211863
0.229826 0.162986 -0.0796281
0.184387 -0.171346 0.0837125
0.0678088 -0.439588 0.214765
-0.0749311 -0.538236 0.26296
-0.188762 -0.429226 0.209703
-0.229765 -0.154634 0.0755479
-0.182029 0.178974 -0.0874394
-0.0608524 0.421283 -0.205822
-0.00191024 0.504676 0.00703822
-0.005267 0.429053 0.00598355
-0.00649086 0.161258 0.00224892
-0.00520757 -0.16953 -0.00236426
-0.00191508 -0.434929 -0.00606553
0.00211627 -0.532531 -0.00742667
0.00533111 -0.424678 -0.00592255
0.00648914 -0.152996 -0.00213368
0.00514097 0.177077 0.00246952
0.00171863 0.416819 0.00581296
-0.0707202 0.304563 0.260566
-0.194992 0.258925 0.221521
-0.240303 0.0973168 0.0832584
-0.192793 -0.102308 -0.087529
-0.0708996 -0.262473 -0.224556
0.0783473 -0.321373 -0.274948
0.197367 -0.256286 -0.219263
0.240239 -0.0923299 -0.0789921
0.190327 0.106863 0.0914254
0.0636266 0.251543 0.215205
-0.112246 -0.0130529 0.413566
-0.309483 -0.0110832 0.351588
-0.381398 -0.0041653 0.132144
-0.305993 0.00437891 -0.138921
-0.112529 0.0112341 -0.356404
0.124349 0.0137552 -0.436383
0.313252 0.0109694 -0.348004
0.381296 0.00395181 -0.125372
0.302078 -0.00457461 0.145107
0.100987 -0.0107805 0.34157
-0.110466 -0.325633 0.407009
-0.30431 -0.276209 0.345725
-0.375016 -0.103801 0.129935
-0.300873 0.109124 -0.136599
-0.110646 0.279958 -0.350445
0.122268 0.342783 -0.429087
0.308012 0.273361 -0.342184
0.374917 0.0984804 -0.123275
0.297028 -0.11401 0.142693
0.0993858 -0.268944 0.336154
-0.0660678 -0.512581 0.243425
-0.172714 -0.413702 0.196467
-0.212726 -0.155214 0.0737111
-0.170666 0.163157 -0.0774832
-0.0627627 0.418581 -0.198784
0.0693554 0.512513 -0.243392
0.174716 0.408714 -0.194098
0.212669 0.14723 -0.0699195
0.168574 -0.171056 0.0812346
0.0594409 -0.423348 0.201048
0 -0.62132 0
0 -0.527552 0
0 -0.197928 0
0 0.208057 0
0 0.533773 0
0 0.653555 0
0 0.521191 0
0 0.187747 0
0 -0.21813 0
0 -0.513157 0
-0.00195404 -0.38161 -0.490722
-0.00538777 -0.324752 -0.417189
-0.00663972 -0.122056 -0.1568
-0.00532697 0.128317 0.164842
-0.00195902 0.329197 0.422905
0.00216476 0.403071 0.517806
0.00545337 0.321437 0.412935
0.00663797 0.115802 0.148765
0.00525886 -0.134032 -0.172181
0.00175804 -0.315177 -0.405294
-0.0031542 0.00532776 -0.792119
-0.00869688 0.00451479 -0.673422
-0.0107178 0.00169669 -0.253105
-0.00859876 -0.0017837 0.266087
-0.00316221 -0.00457611 0.682649
0.00349437 -0.00560299 0.83584
0.00880276 -0.0044682 0.666556
0.0107149 -0.0016097 0.240135
0.00848885 0.00186359 -0.277932
0.00283782 0.00440027 -0.654222
-0.00313745 0.39021 -0.787911
-0.00865067 0.331737 -0.669844
-0.0106608 0.124684 -0.251761
-0.00855314 -0.131079 0.264674
-0.00314542 -0.336283 0.679022
0.00347581 -0.411747 0.831399
0.008756 -0.328356 0.663015
0.010658 -0.118294 0.238859
0.00844374 0.136914 -0.276456
0.00282275 0.32228 -0.650747
-0.00191024 0.624547 -0.479721
-0.005267 0.530961 -0.407836
-0.00649086 0.199561 -0.153285
-0.00520757 -0.209797 0.161147
-0.00191508 -0.538236 0.413424
0.00211627 -0.659016 0.5062
0.00533111 -0.525548 0.403679
0.00648914 -0.189335 0.14543
0.00514097 0.219136 -0.168321
0.00171863 0.515822 -0.396209
5.39503e-05 0.617929 0.0135486
0.000148753 0.525334 0.0115184
0.000183322 0.197446 0.00432914
0.000147077 -0.207574 -0.00455124
5.40875e-05 -0.532531 -0.0116761
-5.97676e-05 -0.652033 -0.0142964
-0.000150568 -0.519978 -0.011401
-0.000183273 -0.187328 -0.00410734
-0.000145195 0.216814 0.00475384
-4.85388e-05 0.510356 0.01119
0.00199733 0.372909 0.501591
0.0055071 0.31703 0.42643
0.00678681 0.119155 0.160272
0.00544499 -0.125267 -0.168494
0.0020024 -0.321373 -0.43227
-0.00221272 -0.393491 -0.529276
-0.00557419 -0.313799 -0.422083
-0.00678501 -0.113049 -0.15206
-0.00537534 0.130844 0.175995
-0.00179699 0.307991 0.414271
0.00317012 -0.015982 0.796116
0.00874062 -0.0135704 0.676808
0.0107717 -0.00510002 0.254377
0.00864195 0.00536157 -0.267425
0.0031781 0.0137552 -0.686081
-0.00351193 0.016842 -0.840043
-0.00884702 0.0134309 -0.669908
-0.0107688 0.00483862 -0.241342
-0.00853149 -0.00560118 0.27933
-0.00285214 -0.0131998 0.657524
0.00311986 -0.398707 0.783494
0.00859452 -0.338193 0.66552
0.0105914 -0.127095 0.250125
0.0084975 0.133613 -0.262953
0.00312495 0.342783 -0.674607
-0.00345318 0.419707 -0.825994
-0.008699 0.334704 -0.658704
-0.0105886 0.12058 -0.237306
-0.00838886 -0.139595 0.274685
-0.00280692 -0.329297 0.647099
0.00186593 -0.627608 0.468594
0.0048779 -0.50654 0.3782
0.00600794 -0.190045 0.141894
0.00482008 0.19977 -0.149155
0.00177259 0.512513 -0.38266
-0.00195878 0.627524 -0.468531
-0.00493443 0.500432 -0.37364
-0.00600635 0.180269 -0.134595
-0.00476097 -0.209442 0.156377
-0.00167877 -0.51835 0.387018
0 -0.495485 0
0 -0.420707 0
0 -0.157842 0
0 0.165919 0
0 0.425668 0
0 0.521191 0
0 0.415634 0
0 0.149723 0
0 -0.173953 0
0 -0.409227 0
-0.0723419 -0.304323 -0.5372
-0.199464 -0.25898 -0.456702
-0.245813 -0.0973364 -0.171651
-0.197214 0.102329 0.180455
-0.0725255 0.262525 0.46296
0.0801435 0.321437 0.566848
0.201893 0.256337 0.452046
0.245748 0.0923483 0.162855
0.194691 -0.106887 -0.188489
0.0650856 -0.251344 -0.443681
-0.116774 0.00424873 -0.867143
-0.321973 0.00360043 -0.737204
-0.39679 0.00135305 -0.277077
-0.318341 -0.00142245 0.291289
-0.11707 -0.00364927 0.747304
0.129367 -0.00446821 0.915005
0.325893 -0.00356327 0.729688
0.396685 -0.0012837 0.262879
0.314269 0.00148615 -0.304257
0.105061 0.00350909 -0.716186
-0.116153 0.311181 -0.862537
-0.320263 0.264552 -0.733287
-0.394682 0.0994314 -0.275605
-0.31665 -0.104532 0.289741
-0.116448 -0.268176 0.743334
0.12868 -0.328356 0.910144
0.324162 -0.261854 0.725812
0.394577 -0.0943363 0.261483
0.3126 0.109185 -0.302641
0.104503 0.257009 -0.712381
-0.0707202 0.498058 -0.525157
-0.194992 0.423427 -0.446463
-0.240303 0.159144 -0.167803
-0.192793 -0.167307 0.17641
-0.0708996 -0.429226 0.45258
0.0783473 -0.525548 0.554142
0.197367 -0.41911 0.441913
0.240239 -0.150989 0.159204
0.190327 0.174755 -0.184263
0.0636266 0.411353 -0.433735
0.00199733 0.49278 0.0148318
0.0055071 0.418939 0.0126094
0.00678681 0.157458 0.0047392
0.00544499 -0.165533 -0.00498228
0.0020024 -0.424678 -0.0127821
-0.00221272 -0.519978 -0.0156505
-0.00557419 -0.414668 -0.0124808
-0.00678501 -0.149389 -0.00449635
-0.00537534 0.172903 0.00520408
-0.00179699 0.406994 0.0122498
0.0739443 0.297384 0.549099
0.203882 0.252823 0.466819
0.251258 0.095023 0.175453
0.201582 -0.0998968 -0.184452
0.074132 -0.256286 -0.473213
-0.0819188 -0.313799 -0.579404
-0.206365 -0.250245 -0.46206
-0.251192 -0.0901536 -0.166462
-0.199004 0.104344 0.192664
-0.0665273 0.245613 0.453508
0.117363 -0.0127452 0.871519
0.323592 -0.010822 0.74091
0.398785 -0.00406712 0.278469
0.319941 0.0042757 -0.292754
0.117659 0.0109694 -0.751061
-0.130018 0.0134309 -0.919605
-0.327532 0.0107107 -0.733357
-0.398679 0.00385866 -0.264201
-0.315849 -0.00446676 0.305788
-0.105591 -0.0105264 0.7198
0.115502 -0.317957 0.857701
0.318183 -0.2697 0.728554
0.392113 -0.101355 0.273815
0.31459 0.106552 -0.287857
0.11569 0.273361 -0.738501
-0.127842 0.334704 -0.904226
-0.322052 0.266917 -0.721094
-0.392009 0.096159 -0.259782
-0.310569 -0.111323 0.3007
-0.103917 -0.262605 0.708387
0.0690798 -0.500499 0.512976
0.180588 -0.40395 0.414021
0.222424 -0.151555 0.155334
0.178447 0.159311 -0.163282
0.065624 0.408714 -0.418903
-0.0725172 0.500432 -0.512908
-0.182681 0.39908 -0.409029
-0.222365 0.14376 -0.147343
-0.176259 -0.167024 0.171188
-0.0621507 -0.413369 0.423674
0 -0.178487 0
0 -0.15155 0
0 -0.0568591 0
0 0.0597687 0
0 0.153337 0
0 0.187747 0
0 0.149723 0
0 0.0539343 0
0 -0.0626625 0
0 -0.147415 0
-0.11482 -0.109626 -0.376422
-0.31658 -0.0933001 -0.320023
-0.390143 -0.0350665 -0.12028
-0.313009 0.0368652 0.12645
-0.115109 0.0945779 0.324407
0.1272 0.115802 0.397207
0.320434 0.0923484 0.316761
0.390039 0.0332695 0.114117
0.309005 -0.0385067 -0.132079
0.103303 -0.0905412 -0.310892
-0.185341 0.00153051 -0.607617
-0.51102 0.00129708 -0.516578
-0.629766 0.00048745 -0.194156
-0.505257 -0.000512445 0.204114
-0.185808 -0.00131468 0.523656
0.205326 -0.0016097 0.641168
0.517242 -0.00128371 0.511313
0.629599 -0.000462468 0.184207
0.498793 0.000535397 -0.2132
0.16675 0.00126407 -0.501839
-0.184356 0.112096 -0.604389
-0.508306 0.0953075 -0.513833
-0.626421 0.0358213 -0.193124
-0.502573 -0.0376587 0.20303
-0.184821 -0.0966135 0.520875
0.204235 -0.118294 0.637762
0.514495 -0.0943364 0.508597
0.626255 -0.0339859 0.183228
0.496143 0.0393348 -0.212068
0.165865 0.0925817 -0.499174
-0.112246 0.179414 -0.367984
-0.309483 0.152544 -0.31285
-0.381398 0.0573336 -0.117584
-0.305993 -0.0602743 0.123615
-0.112529 -0.154634 0.317136
0.124349 -0.189335 0.388303
0.313252 -0.150989 0.309661
0.381296 -0.0543956 0.111559
0.302078 0.0629569 -0.129118
0.100987 0.148181 -0.303923
0.00317012 0.177513 0.0103928
0.00874061 0.150927 0.00883568
0.0107717 0.056726 0.00332089
0.00864195 -0.0596355 -0.00349122
0.0031781 -0.152996 -0.00895671
-0.00351193 -0.187329 -0.0109667
-0.00884702 -0.149389 -0.00874559
-0.0107688 -0.0538191 -0.00315072
-0.00853149 0.0622897 0.00364665
-0.00285214 0.14661 0.00858359
0.117363 0.107126 0.38476
0.323592 0.0910816 0.327111
0.398785 0.0342332 0.122945
0.319941 -0.0359889 -0.129251
0.117659 -0.0923301 -0.331593
-0.130018 -0.113049 -0.406005
-0.327532 -0.0901537 -0.323777
-0.398679 -0.0324789 -0.116645
-0.315849 0.0375907 0.135005
-0.105591 0.0884767 0.317778
0.186276 -0.00459117 0.610683
0.513589 -0.00389871 0.519176
0.632931 -0.00146522 0.195132
0.507796 0.00154036 -0.20514
0.186742 0.00395182 -0.526289
-0.206358 0.00483863 -0.644391
-0.519843 0.00385866 -0.513883
-0.632763 0.00139012 -0.185132
-0.5013 -0.00160918 0.214273
-0.167592 -0.00379191 0.504372
0.183323 -0.114537 0.601001
0.505005 -0.0971611 0.510517
0.622345 -0.0365139 0.191869
0.499301 0.0383864 -0.20171
0.183618 0.0984805 -0.517488
-0.202905 0.12058 -0.633617
-0.511146 0.0961592 -0.505291
-0.622179 0.0346422 -0.182036
-0.492919 -0.0401046 0.210709
-0.164935 -0.0945975 0.496375
0.109642 -0.180293 0.359448
0.286626 -0.145514 0.290109
0.353027 -0.0545944 0.108844
0.283228 0.0573882 -0.114414
0.104157 0.14723 -0.29353
-0.115098 0.180269 -0.3594
-0.289947 0.14376 -0.286611
-0.352933 0.0517862 -0.103245
-0.279755 -0.0601667 0.119953
-0.0986445 -0.148907 0.296873
0 0.207372 0
0 0.176076 0
0 0.0660606 0
0 -0.0694411 0
0 -0.178152 0
0 -0.21813 0
0 -0.173953 0
0 -0.0626625 0
0 0.0728032 0
0 0.171271 0
-0.112999 0.127366 -0.070418
-0.311288 0.108005 -0.0601879
-0.383616 0.0405858 -0.0226276
-0.307772 -0.042667 0.0237888
-0.113183 -0.109463 0.0610301
0.125072 -0.134027 0.0747257
0.315075 -0.106882 0.0595915
0.383514 -0.0385051 0.0214689
0.303839 0.0445844 -0.0248334
0.101665 0.105194 -0.0581592
-0.182402 -0.00177819 -0.113668
-0.502479 -0.00150184 -0.0971546
-0.619231 -0.000564307 -0.0365254
-0.496803 0.000593238 0.0383997
-0.182699 0.00152195 0.0985144
0.20189 0.0018635 0.120622
0.50859 0.00148608 0.0961923
0.619067 0.000535371 0.034655
0.490454 -0.000620032 -0.0400859
0.164107 -0.00146863 -0.0938801
-0.181433 -0.130237 -0.113064
-0.499809 -0.110326 -0.0966384
-0.615942 -0.0414584 -0.0363313
-0.494163 0.0435844 0.0381957
-0.181729 0.111816 0.097991
0.200818 0.136908 0.119981
0.505889 0.10918 0.0956814
0.615779 0.0393331 0.0344709
0.487849 -0.0455424 -0.039873
0.163235 -0.107564 -0.0933814
-0.110466 -0.208449 -0.0688395
-0.30431 -0.176582 -0.0588386
-0.375016 -0.066356 -0.0221204
-0.300873 0.0697584 0.0232555
-0.110646 0.178966 0.059662
0.122268 0.219127 0.0730506
0.308012 0.174748 0.0582558
0.374917 0.0629541 0.0209877
0.297028 -0.0728921 -0.0242768
0.0993858 -0.172161 -0.0568555
0.00311986 -0.20624 0.00194421
0.00859453 -0.17471 0.00166176
0.0105914 -0.0656528 0.000624738
0.0084975 0.0690192 -0.000656796
0.00312495 0.17707 -0.00168501
-0.00345318 0.216805 -0.00206315
-0.008699 0.172896 -0.0016453
-0.0105886 0.062287 -0.000592748
-0.00838886 -0.0721196 0.000685641
-0.00280692 -0.170336 0.00160575
0.115502 -0.124462 0.0719778
0.318183 -0.105435 0.0615211
0.392113 -0.0396203 0.0231288
0.31459 0.0416519 -0.0243156
0.11569 0.106858 -0.062382
-0.127842 0.130838 -0.0763811
-0.322052 0.10434 -0.0609115
-0.392009 0.037589 -0.0219445
-0.310569 -0.0435229 0.0253835
-0.103917 -0.102795 0.0594474
0.183323 0.00533416 0.114242
0.505005 0.00451378 0.0976428
0.622345 0.00169608 0.0367089
0.499301 -0.00178304 -0.0385925
0.183618 -0.00457441 -0.0990092
-0.202905 -0.00560095 -0.121227
-0.511146 -0.00446658 -0.0966754
-0.622179 -0.00160911 -0.034829
-0.492919 0.0018634 0.0402874
-0.164935 0.00440556 0.0943539
0.180416 0.133072 0.11243
0.496574 0.112499 0.0960027
0.611945 0.0422706 0.0360903
0.490957 -0.0444378 -0.0379421
0.18055 -0.114006 -0.0973405
-0.199515 -0.139589 -0.119184
-0.502606 -0.111318 -0.0950461
-0.611783 -0.0401029 -0.034242
-0.48469 0.0464442 0.0396126
-0.16232 0.109906 0.0928579
0.107904 0.20947 0.0672426
0.282081 0.169063 0.0542713
0.34743 0.0634295 0.0203617
0.278737 -0.0666753 -0.0214036
0.102506 -0.171056 -0.0549113
-0.113273 -0.209442 -0.0672337
-0.28535 -0.167024 -0.0536169
-0.347337 -0.0601667 -0.0193143
-0.275319 0.0699035 0.0224399
-0.0970804 0.173004 0.0555366
0 0.513225 0
0 0.414222 0
0 0.155409 0
0 -0.163362 0
0 -0.419107 0
0 -0.513157 0
0 -0.409227 0
0 -0.147415 0
0 0.171271 0
0 0.42388 0
-0.0675828 0.315219 0.262754
-0.176674 0.254412 0.212068
-0.217604 0.0954511 0.0795642
-0.17458 -0.100336 -0.0836358
-0.0642019 -0.257412 -0.214568
0.0709457 -0.315177 -0.262719
0.178722 -0.251345 -0.209511
0.217546 -0.0905412 -0.0754715
0.172439 0.105194 0.0876851
0.0608039 0.260344 0.217012
-0.109092 -0.00440086 0.424136
-0.285186 -0.00355192 0.342318
-0.351254 -0.00133262 0.128432
-0.281806 0.00140081 -0.135004
-0.103634 0.0035938 -0.346355
0.11452 0.00440027 -0.424079
0.288491 0.00350909 -0.338191
0.351161 0.00126407 -0.121826
0.27835 -0.00146863 0.141541
0.0981492 -0.00363473 0.350299
-0.108512 -0.322323 0.421882
-0.283671 -0.260146 0.3405
-0.349388 -0.0976022 0.12775
-0.280309 0.102597 -0.134287
-0.103084 0.263213 -0.344515
0.113912 0.32228 -0.421826
0.286959 0.257009 -0.336394
0.349295 0.0925817 -0.121178
0.276871 -0.107564 0.140789
0.0976278 -0.266211 0.348439
-0.0660678 -0.515891 0.256864
-0.172714 -0.416373 0.207314
-0.212726 -0.156216 0.0777807
-0.170666 0.16421 -0.081761
-0.0627627 0.421283 -0.209759
0.0693553 0.515822 -0.25683
0.174716 0.411353 -0.204814
0.212669 0.148181 -0.0737797
0.168574 -0.172161 0.0857195
0.0594409 -0.426081 0.212148
0.00186593 -0.510424 -0.00725452
0.0048779 -0.411961 -0.0058551
0.00600794 -0.154561 -0.00219673
0.00482007 0.16247 0.00230915
0.00177259 0.416819 0.00592414
-0.00195878 0.510356 0.00725356
-0.00493443 0.406994 0.0057845
-0.00600635 0.14661 0.00208374
-0.00476097 -0.170336 -0.00242095
-0.00167877 -0.421566 -0.00599161
0.0690798 -0.308032 -0.268574
0.180588 -0.248611 -0.216765
0.222424 -0.0932747 -0.0813266
0.178447 0.0980478 0.0854884
0.065624 0.251543 0.219321
-0.0725172 0.307991 0.268538
-0.182681 0.245613 0.214151
-0.222365 0.0884767 0.0771433
-0.176259 -0.102795 -0.0896274
-0.0621507 -0.254408 -0.221819
0.109642 0.0132015 -0.426276
0.286626 0.0106549 -0.344046
0.353027 0.00399754 -0.12908
0.283228 -0.00420211 0.135686
0.104157 -0.0107805 0.348103
-0.115098 -0.0131998 0.426219
-0.289947 -0.0105264 0.339897
-0.352933 -0.00379191 0.12244
-0.279754 0.00440556 -0.142255
-0.0986445 0.0109033 -0.352067
0.107904 0.329341 -0.419517
0.282081 0.26581 -0.338591
0.34743 0.0997274 -0.127034
0.278737 -0.104831 0.133534
0.102506 -0.268944 0.342583
-0.113273 -0.329297 0.419461
-0.28535 -0.262605 0.334508
-0.347337 -0.0945975 0.120499
-0.275319 0.109906 -0.139999
-0.0970804 0.272007 -0.346485
0.0645353 0.518419 -0.250906
0.168708 0.418414 -0.202505
0.207791 0.156982 -0.0759765
0.166708 -0.165015 0.0798644
0.0613068 -0.423348 0.204893
-0.0677466 -0.51835 0.250872
-0.170663 -0.413369 0.200063
-0.207736 -0.148907 0.0720683
-0.164663 0.173004 -0.0837311
-0.0580621 0.428169 -0.207226
