# vtk DataFile Version 3.0
Velocity field
ASCII
DATASET STRUCTURED_POINTS
DIMENSIONS 5 5 5
SPACING 1.33333 1.33333 1.33333
ORIGIN 0 0 0
POINT_DATA 125
VECTORS velocity float
0 0.0047153 0
0 0.00110921 0
0 -0.00419344 0
0 -0.00308212 0
0 0.00274338 0
0 -0.00249687 0.00818906
0 -0.000587357 0.0022201
0 0.00222053 -0.00839317
0 0.00163206 -0.00616888
0 -0.00145269 0.00476442
0 -0.00589001 0.00385275
0 -0.00138555 0.0010445
0 0.00523814 -0.00394878
0 0.00384997 -0.0029023
0 -0.00342683 0.00224154
0 -0.000274238 -0.00637643
0 -6.4511e-05 -0.00172868
0 0.000243887 0.00653537
0 0.000179254 0.00480341
0 -0.000159552 -0.00370983
0 0.00576099 -0.0068527
0 0.0013552 -0.00161201
0 -0.0051234 0.00609429
0 -0.00376563 0.00447922
0 0.00335176 -0.00398693
0 0.00110921 0
0 0.000332014 0
0 -0.0012552 0
0 -0.000922553 0
0 0.00064534 0
0.00350489 -0.000587357 0.00287585
0.00515692 -0.000138244 0.000676941
-0.00108077 0.000522637 -0.00255921
-0.0056654 0.000384131 -0.00188098
-0.00158371 -0.000341724 0.00167318
0.00164896 -0.00138555 0.00135302
0.0024262 -0.000326128 0.000318484
-0.000508477 0.00123294 -0.00120404
-0.00266543 0.000906197 -0.000884956
-0.000745097 -0.000806113 0.00078719
-0.00272909 -6.4511e-05 -0.00223929
-0.00401545 -1.51845e-05 -0.000527102
0.000841548 5.74056e-05 0.00199273
0.00441138 4.21924e-05 0.00146463
0.00123316 -3.75325e-05 -0.00130283
-0.00293293 0.0013552 -0.00240655
-0.0043128 0.000318794 -0.000566111
0.000903866 -0.00120522 0.00214021
0.00473805 -0.000885818 0.00157303
0.00132527 0.000788461 -0.00140014
0 -0.00419344 0
0 -0.0012552 0
0 0.00474535 0
0 0.00348777 0
0 -0.00243974 0
0.00164896 0.00222053 -0.00683604
0.0024262 0.000522637 -0.00160905
-0.000508477 -0.00197585 0.0060831
-0.00266543 -0.00145223 0.004471
-0.000745097 0.0012919 -0.00397723
0.000775795 0.00523814 -0.00321619
0.00114147 0.00123294 -0.000757019
-0.000239226 -0.0046612 0.00286195
-0.00125402 -0.00342592 0.00210349
-0.00035055 0.00304755 -0.00187119
-0.00128397 0.000243887 0.0053229
-0.00188917 5.74056e-05 0.00125289
0.000395927 -0.000217025 -0.00473662
0.00207544 -0.00015951 -0.00348136
0.000580172 0.000141893 0.00309688
-0.00137987 -0.0051234 0.00572048
-0.00202907 -0.00120522 0.00134567
0.000425246 0.00455638 -0.00508737
0.00222913 0.00334888 -0.00373915
0.000623506 -0.00298081 0.0033282
0 -0.00308212 0
0 -0.000922558 0
0 0.00348777 0
0 0.00256347 0
0 -0.00179318 0
-0.00272909 0.00163206 -0.00609204
-0.00401545 0.000384132 -0.00143393
0.000841548 -0.00145223 0.00542104
0.00441138 -0.00106737 0.0039844
0.00123316 0.000949532 -0.00354437
-0.00128397 0.00384997 -0.00286615
-0.00188917 0.000906197 -0.000674629
0.000395927 -0.00342592 0.00255047
0.00207544 -0.00251801 0.00187456
0.000580172 0.00223991 -0.00166754
0.00212502 0.000179254 0.00474359
0.00312665 4.21924e-05 0.00111653
-0.000655274 -0.00015951 -0.00422111
-0.00343494 -0.000117238 -0.00310246
-0.000960206 0.00010429 0.00275984
0.00228374 -0.00376563 0.00509789
0.00335818 -0.000885818 0.00119922
-0.000703798 0.00334888 -0.00453369
-0.0036893 0.00246138 -0.0033322
-0.00103193 -0.00219086 0.00296597
0 0.00274338 0
0 0.000645342 0
0 -0.00243974 0
0 -0.00179318 0
0 0.0015961 0
-0.00293293 -0.00145269 0.00396988
-0.00431278 -0.000341725 0.000933866
0.00090386 0.00129191 -0.00353052
0.00473802 0.000949535 -0.00259489
0.00132527 -0.000845175 0.00230969
-0.00137987 -0.00342683 0.00186773
-0.00202905 -0.000806116 0.000439361
0.000425243 0.00304756 -0.00166102
0.00222912 0.00223992 -0.00122083
0.000623506 -0.00199373 0.00108665
0.00228374 -0.000159552 -0.00309116
0.00335816 -3.75326e-05 -0.000727158
-0.000703793 0.000141894 0.00274905
-0.00368927 0.00010429 0.00202052
-0.00103193 -9.28278e-05 -0.00179845
0.00245431 0.00335176 -0.00332205
0.003609 0.000788461 -0.00078147
-0.000756366 -0.00298081 0.00295439
-0.00396486 -0.00219086 0.00217143
-0.001109 0.00195007 -0.00193278
