# vtk DataFile Version 3.0
Velocity field
ASCII
DATASET STRUCTURED_POINTS
DIMENSIONS 8 8 8
SPACING 0.8 0.8 0.8
ORIGIN 0 0 0
POINT_DATA 512
VECTORS velocity float
0 0.143331 0
0 0.0998595 0
0 -0.00418519 0
0 -0.105691 0
0 -0.143086 0
0 -0.0936873 0
0 0.0125413 0
0 0.111162 0
0 0.0563883 0.14629
0 0.0392861 0.108061
0 -0.00164651 -0.00452892
0 -0.0415803 -0.114372
0 -0.0562921 -0.154838
0 -0.0368578 -0.101382
0 0.00493393 0.0135713
0 0.0437328 0.113458
0 -0.0647586 0.203843
0 -0.0451178 0.150574
0 0.00189092 -0.00631066
0 0.0477526 -0.159367
0 0.0646482 -0.215753
0 0.0423291 -0.141267
0 -0.00566633 0.0189105
0 -0.0502246 0.158094
0 -0.146624 0.137747
0 -0.102154 0.10175
0 0.00428135 -0.00426444
0 0.108119 -0.107692
0 0.146374 -0.145796
0 0.0958397 -0.0954612
0 -0.0128295 0.0127788
0 -0.113716 0.106832
0 -0.139549 -0.0119043
0 -0.0972247 -0.00879337
0 0.00407477 0.000368537
0 0.102903 0.00930688
0 0.139311 0.0125998
0 0.0912153 0.00824985
0 -0.0122104 -0.00110436
0 -0.108229 -0.00923253
0 -0.0478255 -0.154335
0 -0.0333204 -0.114003
0 0.00139648 0.00477796
0 0.0352663 0.120661
0 0.047744 0.163352
0 0.0312609 0.106957
0 -0.0041847 -0.0143176
0 -0.0370919 -0.119697
0 0.0729082 -0.203148
0 0.0507956 -0.15006
0 -0.00212889 0.00628914
0 -0.0537621 0.158824
0 -0.0727839 0.215018
0 -0.047656 0.140785
0 0.00637941 -0.018846
0 0.0565451 -0.157555
0 0.149417 -0.128734
0 0.1041 -0.08969
0 -0.0043629 0.00375898
0 -0.110179 0.0949278
0 -0.149162 0.128515
0 -0.0976653 0.0841463
0 0.0130738 -0.0112641
0 0.115883 -0.0998419
0 0.0998595 0
0 0.0755355 0
0 -0.00316575 0
0 -0.0799467 0
0 -0.108233 0
0 -0.0708667 0
0 0.00948647 0
0 0.0774476 0
0.0311844 0.0392861 0.144495
0.0755543 0.0277364 0.101935
0.0737126 -0.00116255 -0.00427252
0.0271559 -0.0293584 -0.107896
-0.0358731 -0.0397459 -0.146071
-0.0771418 -0.026024 -0.0956416
-0.0716165 0.00348204 0.0127972
-0.0223754 0.0304689 0.112066
0.0434527 -0.0451178 0.201341
0.105279 -0.0318163 0.142038
0.102712 0.00133355 -0.00595338
0.0378393 0.0336766 -0.150343
-0.0499862 0.0455919 -0.203538
-0.10749 0.0298517 -0.133268
-0.0997917 -0.00399437 0.0178319
-0.0311782 -0.0349918 0.156154
0.0293632 -0.102154 0.136057
0.0711422 -0.0720372 0.0959823
0.0694078 0.00301938 -0.00402301
0.0255699 0.0762495 -0.101595
-0.0337781 0.103228 -0.137541
-0.0726371 0.0675894 -0.0900562
-0.067434 -0.0090439 0.0120499
-0.0210687 -0.079227 0.105521
-0.0025376 -0.0972247 -0.0117582
-0.0061482 -0.0685613 -0.00829488
-0.00599831 0.00287368 0.000347672
-0.00220979 0.0725704 0.00877995
0.00291914 0.0982471 0.0118864
0.00627738 0.0643283 0.00778275
0.00582772 -0.00860752 -0.00104137
0.00182078 -0.0754041 -0.00911923
-0.0328992 -0.0333204 -0.152441
-0.0797094 -0.0234971 -0.10754
-0.0777658 0.000984857 0.00450746
-0.0286493 0.024871 0.113829
0.0378456 0.0336707 0.154103
0.0813842 0.0220462 0.100901
0.0755543 -0.00294993 -0.013501
0.0236058 -0.0258421 -0.118228
-0.0433045 0.0507956 -0.200655
-0.104916 0.0358167 -0.141549
-0.102358 -0.00150122 0.00593289
-0.0377091 -0.037911 0.149826
0.0498142 -0.0513244 0.202837
0.10712 -0.0336052 0.13281
0.0994482 0.00449661 -0.0177706
0.0310719 0.0393953 -0.155621
-0.027442 0.1041 -0.127154
-0.06568 0.0725269 -0.0885893
-0.0640774 -0.00303966 0.00371285
-0.0236063 -0.0767625 0.0937629
0.031184 -0.103922 0.126938
0.0670586 -0.0680441 0.0831137
0.0622563 0.00910863 -0.0111259
0.0196902 0.0807362 -0.0986166
0 -0.00418519 0
0 -0.00316575 0
0 0.000132679 0
0 0.00335063 0
0 0.00453613 0
0 0.00297008 0
0 -0.000397586 0
0 -0.00324589 0
0.0434527 -0.00164651 0.055051
0.105279 -0.00116255 0.038824
0.102712 4.87275e-05 -0.00162727
0.0378393 0.00123054 -0.0410945
-0.0499862 0.00166592 -0.0556342
-0.10749 0.00109078 -0.036427
-0.0997917 -0.000145946 0.00487414
-0.0311782 -0.00127698 0.0426957
0.0605476 0.00189092 0.0767089
0.146697 0.00133355 0.0540979
0.14312 -5.58944e-05 -0.00226746
0.0527259 -0.00141152 -0.0572614
-0.0696513 -0.00191094 -0.0775211
-0.149778 -0.00125121 -0.0507581
-0.139051 0.00016742 0.00679169
-0.0434441 0.00146653 0.0594928
0.0409151 0.00428135 0.0518361
0.0991308 0.00301938 0.0365567
0.0967141 -0.000126554 -0.00153225
0.0356296 -0.00319593 -0.0386943
-0.0470669 -0.0043267 -0.0523849
-0.101214 -0.00283294 -0.0342997
-0.0939636 0.000379066 0.0045895
-0.0293574 0.00332047 0.0402023
-0.00353593 0.00407477 -0.00447973
-0.00856696 0.00287368 -0.00315928
-0.00835808 -0.000120447 0.000132417
-0.00307915 -0.00304173 0.003344
0.00406758 -0.00411794 0.00452717
0.00874697 -0.00269625 0.00296421
0.00812045 0.000360774 -0.00039663
0.0025371 0.00316025 -0.00347432
-0.0458421 0.00139648 -0.0580782
-0.111068 0.000984857 -0.0409591
-0.10836 -4.12794e-05 0.00171675
-0.0399203 -0.00104245 0.0433538
0.0527347 -0.00141128 0.0586936
0.113402 -0.000924045 0.0384299
0.105279 0.000123643 -0.00514218
0.0328927 0.00108307 -0.0450435
-0.0603411 -0.00212889 -0.0764472
-0.146192 -0.00150122 -0.0539118
-0.142628 6.29222e-05 0.00225966
-0.0525444 0.00158901 0.0570644
0.0694115 0.00215122 0.0772543
0.149263 0.00140853 0.0505832
0.138572 -0.00018847 -0.00676833
0.043296 -0.00165109 -0.0592899
-0.038238 -0.0043629 -0.0484444
-0.0915194 -0.00303966 -0.0337515
-0.0892863 0.000127395 0.00141455
-0.0328933 0.00321718 0.0357226
0.0434522 0.00435546 0.0483618
0.0934403 0.00285178 0.0316654
0.0867487 -0.00038175 -0.00423885
0.0274365 -0.00338372 -0.0375718
0 -0.105691 0
0 -0.0799467 0
0 0.00335063 0
0 0.0846155 0
0 0.114554 0
0 0.0750052 0
0 -0.0100405 0
0 -0.0819705 0
0.0293632 -0.0415803 -0.0677864
0.0711422 -0.0293584 -0.0478054
0.0694078 0.00123054 0.00200372
0.0255699 0.0310753 0.0506009
-0.0337781 0.0420703 0.068504
-0.0726371 0.0275459 0.0448537
-0.067434 -0.00368565 -0.00600169
-0.0210687 -0.0322483 -0.0525728
0.0409151 0.0477526 -0.0944544
0.0991308 0.0336766 -0.0666127
0.0967141 -0.00141152 0.002792
0.0356296 -0.0356459 0.0705078
-0.0470669 -0.0482581 0.0954546
-0.101214 -0.0315974 0.0624997
-0.0939636 0.00422791 -0.00836281
-0.0293574 0.0370353 -0.0732556
0.0276485 0.108119 -0.0638277
0.0669874 0.0762495 -0.0450135
0.0653547 -0.00319593 0.00188669
0.0240769 -0.0807086 0.0476458
-0.0318056 -0.109264 0.0645037
-0.068395 -0.0715418 0.0422344
-0.0634962 0.00957271 -0.00565118
-0.0198383 0.0838538 -0.0495026
-0.00238941 0.102903 0.00551605
-0.00578913 0.0725704 0.00389011
-0.00564798 -0.00304173 -0.000163051
-0.00208075 -0.0768138 -0.0041176
0.00274866 -0.103992 -0.00557444
0.00591077 -0.0680898 -0.00364994
0.00548738 0.00911082 0.000488382
0.00171445 0.0798076 0.00427806
-0.0309779 0.0352663 0.0715138
-0.075054 0.024871 0.0504341
-0.0732245 -0.00104245 -0.00211389
-0.0269761 -0.0263253 -0.053383
0.0356355 -0.0356396 -0.072271
0.076631 -0.0233354 -0.0473202
0.0711421 0.00312242 0.00633173
0.0222273 0.0273513 0.0554637
-0.0407756 -0.0537621 0.0941323
-0.0987896 -0.037911 0.0663833
-0.0963812 0.00158901 -0.00278239
-0.035507 0.0401279 -0.0702651
0.0469049 0.0543257 -0.0951261
0.100865 0.0355702 -0.0622846
0.0936402 -0.00475954 0.00833406
0.0292573 -0.041696 0.0730058
-0.0258394 -0.110179 0.0596514
-0.0618443 -0.0767625 0.0415595
-0.0603353 0.00321718 -0.00174179
-0.0222277 0.0812453 -0.0439865
0.0293629 0.109991 -0.0595496
0.0631424 0.0720178 -0.0389907
0.0586205 -0.00964057 0.00521945
0.0185403 -0.0854511 0.0462636
0 -0.143086 0
0 -0.108233 0
0 0.00453613 0
0 0.114554 0
0 0.155085 0
0 0.101543 0
0 -0.0135929 0
0 -0.110973 0
-0.0025376 -0.0562921 -0.149505
-0.0061482 -0.0397459 -0.105436
-0.00599831 0.00166592 0.00441926
-0.00220979 0.0420703 0.111602
0.00291914 0.0569555 0.151088
0.00627738 0.037292 0.0989267
0.00582772 -0.0049897 -0.0132369
0.00182078 -0.0436582 -0.115951
-0.00353593 0.0646482 -0.208323
-0.00856696 0.0455919 -0.146916
-0.00835808 -0.00191094 0.00615787
-0.00307915 -0.0482581 0.155507
0.00406758 -0.0653325 0.210528
0.00874697 -0.0427772 0.137846
0.00812046 0.00572381 -0.0184446
0.0025371 0.0501389 -0.161568
-0.00238941 0.146374 -0.140774
-0.00578913 0.103228 -0.0992791
-0.00564798 -0.0043267 0.0041612
-0.00208075 -0.109264 0.105084
0.00274866 -0.147924 0.142265
0.00591077 -0.0968547 0.0931492
0.00548738 0.0129597 -0.012464
0.00171445 0.113522 -0.10918
0.000206495 0.139311 0.0121659
0.000500304 0.0982471 0.00857979
0.000488105 -0.00411794 -0.000359613
0.000179819 -0.103992 -0.0090815
-0.000237542 -0.140786 -0.0122947
-0.000510816 -0.0921808 -0.00805008
-0.000474225 0.0123344 0.00107714
-0.000148164 0.108045 0.00943543
0.00267714 0.047744 0.157726
0.00648625 0.0336707 0.111235
0.00632816 -0.00141128 -0.00466227
0.0023313 -0.0356396 -0.117738
-0.00307967 -0.0482497 -0.159397
-0.00662254 -0.0315919 -0.104366
-0.0061482 0.00422717 0.0139649
-0.0019209 0.0370286 0.122327
0.00352387 -0.0727839 0.207612
0.00853747 -0.0513244 0.146411
0.00832934 0.00215122 -0.00613669
0.00306856 0.0543257 -0.154972
-0.00405358 0.0735469 -0.209803
-0.00871685 0.0481556 -0.137371
-0.00809251 -0.00644352 0.0183811
-0.00252845 -0.0564487 0.161017
0.00223306 -0.149162 0.131563
0.00534465 -0.103922 0.0916611
0.00521424 0.00435546 -0.00384159
0.00192094 0.109991 -0.097014
-0.00253757 0.148908 -0.131339
-0.00545683 0.0974988 -0.0859956
-0.00506605 -0.0130516 0.0115117
-0.00160227 -0.115685 0.102036
0 -0.0936873 0
0 -0.0708667 0
0 0.00297008 0
0 0.0750052 0
0 0.101543 0
0 0.0664864 0
0 -0.00890012 0
0 -0.0726606 0
-0.0328992 -0.0368578 -0.140537
-0.0797094 -0.026024 -0.0991113
-0.0777658 0.00109078 0.00415417
-0.0286493 0.0275459 0.104907
0.0378456 0.037292 0.142024
0.0813842 0.0244174 0.0929917
0.0755543 -0.00326705 -0.0124429
0.0236058 -0.0285857 -0.108995
-0.0458421 0.0423291 -0.195825
-0.111068 0.0298517 -0.138103
-0.10836 -0.00125121 0.00578845
-0.0399203 -0.0315974 0.146178
0.0527347 -0.0427772 0.197899
0.113402 -0.0280088 0.129577
0.105279 0.00374772 -0.017338
0.0328927 0.032829 -0.151876
-0.0309779 0.0958397 -0.132329
-0.075054 0.0675894 -0.0933232
-0.0732245 -0.00283294 0.00391155
-0.0269761 -0.0715418 0.0987805
0.0356355 -0.0968547 0.13373
0.076631 -0.0634165 0.0875611
0.0711421 0.00848547 -0.0117162
0.0222273 0.07433 -0.10263
0.00267714 0.0912153 0.011436
0.00648625 0.0643283 0.0080651
0.00632816 -0.00269626 -0.00033804
0.0023313 -0.0680898 -0.00853669
-0.00307967 -0.0921808 -0.0115571
-0.00662254 -0.0603563 -0.00756712
-0.0061482 0.00807606 0.00101253
-0.0019209 0.0707434 0.00886939
0.0347082 0.0312609 0.148264
0.0840925 0.0220462 0.104561
0.0820425 -0.000924045 -0.00438259
0.0302245 -0.0233354 -0.110676
-0.0399269 -0.0315919 -0.149833
-0.0858594 -0.0206851 -0.0981058
-0.0797094 0.00276778 0.0131271
-0.0249039 0.0242448 0.114989
0.0456858 -0.047656 0.195158
0.110686 -0.0336052 0.137628
0.107987 0.00140853 -0.00576852
0.0397829 0.0355702 -0.145676
-0.0525531 0.0481556 -0.197218
-0.113012 0.0315304 -0.129131
-0.104916 -0.00421896 0.0172784
-0.0327805 -0.0369603 0.151358
0.028951 -0.0976653 0.123671
0.0692916 -0.0680441 0.0861623
0.0676009 0.00285178 -0.00361113
0.0249044 0.0720178 -0.0911941
-0.0328988 0.0974988 -0.12346
-0.070746 0.0638383 -0.0808367
-0.0656796 -0.00854564 0.0108211
-0.0207729 -0.0757459 0.0959149
0 0.0125413 0
0 0.00948647 0
0 -0.000397586 0
0 -0.0100405 0
0 -0.0135929 0
0 -0.00890012 0
0 0.0011914 0
0 0.00972662 0
-0.0433045 0.00493393 -0.04632
-0.104916 0.00348201 -0.0326691
-0.102358 -0.000145945 0.0013693
-0.0377091 -0.00368562 0.0345795
0.0498142 -0.00498965 0.0468141
0.10712 -0.00326702 0.0306521
0.0994482 0.000437141 -0.00410142
0.0310719 0.00382658 -0.0359242
-0.0603411 -0.00566633 -0.0645429
-0.146192 -0.00399433 -0.0455216
-0.142628 0.000167418 0.001908
-0.0525444 0.00422787 0.0481836
0.0694115 0.00572375 0.0652317
0.149263 0.00374768 0.0427112
0.138572 -0.000501475 -0.00571495
0.043296 -0.00439461 -0.0500573
-0.0407756 -0.0128295 -0.043615
-0.0987896 -0.00904381 -0.0307613
-0.0963812 0.000379062 0.00128933
-0.035507 0.00957261 0.0325601
0.0469049 0.0129595 0.0440803
0.100865 0.00848539 0.0288621
0.0936402 -0.00113542 -0.00386189
0.0292573 -0.00995009 -0.0338263
0.00352387 -0.0122104 0.00376925
0.00853747 -0.00860743 0.00265842
0.00832934 0.00036077 -0.000111426
0.00306856 0.00911073 -0.00281388
-0.00405358 0.0123342 -0.00380947
-0.00871685 0.00807598 -0.00249429
-0.00809251 -0.00108064 0.000333749
-0.00252845 -0.00946998 0.0029233
0.0456858 -0.0041847 0.0488671
0.110686 -0.0029499 0.0344656
0.107987 0.000123642 -0.00144459
0.0397829 0.00312239 -0.036481
-0.0525531 0.00422712 -0.0493885
-0.113012 0.00276776 -0.0323377
-0.104916 -0.000370351 0.00432695
-0.0327805 -0.00324551 0.0378996
0.0601353 0.00637941 0.0643228
0.145689 0.00449657 0.045365
0.142137 -0.000188469 -0.00190143
0.0523636 -0.00475949 -0.0480178
-0.0691725 -0.00644346 -0.0650072
-0.148749 -0.00421892 -0.0425641
-0.138095 0.000564533 0.0056953
-0.0431483 0.00494765 0.0498866
0.0381076 0.0130738 0.0407612
0.0912072 0.00910863 0.0283986
0.0889818 -0.00038175 -0.00119021
0.0327812 -0.00964057 -0.030057
-0.0433041 -0.0130516 -0.0406917
-0.0931216 -0.00854564 -0.0266433
-0.0864529 0.00114395 0.00356657
-0.027343 0.0101396 0.031613
0 0.111162 0
0 0.0774476 0
0 -0.00324589 0
0 -0.0819705 0
0 -0.110973 0
0 -0.0726606 0
0 0.00972662 0
0 0.0862138 0
-0.027442 0.0437328 0.0759935
-0.06568 0.0304689 0.0529452
-0.0640774 -0.00127698 -0.00221898
-0.0236063 -0.0322483 -0.0560372
0.031184 -0.0436582 -0.0758639
0.0670585 -0.0285857 -0.0496727
0.0622562 0.00382658 0.00664937
0.0196902 0.0339177 0.058938
-0.038238 -0.0502246 0.10589
-0.0915193 -0.0349918 0.0737746
-0.0892862 0.00146653 -0.00309195
-0.0328933 0.0370353 -0.0780829
0.0434522 0.0501389 -0.10571
0.0934402 0.032829 -0.0692146
0.0867487 -0.00439461 0.00926532
0.0274365 -0.0389525 0.082125
-0.0258394 -0.113716 0.0715556
-0.0618443 -0.079227 0.0498532
-0.0603353 0.00332047 -0.00208939
-0.0222277 0.0838538 -0.0527646
0.0293629 0.113522 -0.0714336
0.0631424 0.07433 -0.0467718
0.0586205 -0.00995009 0.00626105
0.0185403 -0.0881945 0.0554961
0.00223306 -0.108229 -0.0061839
0.00534465 -0.0754041 -0.00430837
0.00521424 0.00316025 0.000180567
0.00192094 0.0798077 0.00455997
-0.00253757 0.108045 0.00617336
-0.00545683 0.0707434 0.00404207
-0.00506604 -0.00946998 -0.000541086
-0.00160227 -0.083939 -0.00479602
0.028951 -0.0370919 -0.0801723
0.0692916 -0.0258421 -0.0558566
0.0676009 0.00108307 0.002341
0.0249044 0.0273513 0.0591186
-0.0328988 0.0370286 0.0800356
-0.070746 0.0242449 0.0524041
-0.0656796 -0.00324551 -0.00701501
-0.0207729 -0.0287672 -0.0621789
0.0381076 0.0565451 -0.105529
0.0912072 0.0393954 -0.073523
0.0889817 -0.00165109 0.00308141
0.0327811 -0.041696 0.0778166
-0.043304 -0.0564487 0.105349
-0.0931216 -0.0369603 0.0689785
-0.0864528 0.00494765 -0.00923372
-0.027343 0.0438544 -0.0818449
0.0241487 0.115883 -0.0668736
0.0577978 0.0807362 -0.0465913
0.0563875 -0.00338372 0.00195268
0.0207733 -0.0854511 0.0493122
-0.0274417 -0.115685 0.0667596
-0.0590109 -0.0757459 0.0437115
-0.0547849 0.0101396 -0.00585138
-0.0173272 0.0898746 -0.0518649
