# vtk DataFile Version 3.0
Velocity field
ASCII
DATASET STRUCTURED_POINTS
DIMENSIONS 8 8 8
SPACING 0.8 0.8 0.8
ORIGIN 0 0 0
POINT_DATA 512
VECTORS velocity float
0 0.440569 0
0 0.306947 0
0 -0.0128644 0
0 -0.324873 0
0 -0.439818 0
0 -0.287975 0
0 0.0385494 0
0 0.34169 0
0 0.173326 0.449667
0 0.120757 0.332157
0 -0.00506103 -0.013921
0 -0.127809 -0.351555
0 -0.17303 -0.47594
0 -0.113293 -0.311627
0 0.0151659 0.0417155
0 0.134426 0.348746
0 -0.199055 0.626571
0 -0.138683 0.462832
0 0.0058123 -0.0193977
0 0.146782 -0.489861
0 0.198715 -0.663182
0 0.130111 -0.434225
0 -0.0174171 0.0581269
0 -0.15438 0.485947
0 -0.450691 0.423406
0 -0.314 0.312759
0 0.01316 -0.013108
0 0.332337 -0.331024
0 0.449923 -0.448146
0 0.294591 -0.293428
0 -0.0394351 0.0392794
0 -0.349541 0.32838
0 -0.428944 -0.0365912
0 -0.298848 -0.027029
0 0.012525 0.00113281
0 0.316301 0.0286074
0 0.428213 0.0387292
0 0.280377 0.0253583
0 -0.0375323 -0.00339456
0 -0.332675 -0.0283789
0 -0.147006 -0.474393
0 -0.10242 -0.350422
0 0.0042925 0.0146865
0 0.108401 0.370886
0 0.146755 0.502111
0 0.0960894 0.328763
0 -0.0128629 -0.0440093
0 -0.114013 -0.367923
0 0.224105 -0.624435
0 0.156135 -0.461254
0 -0.00654375 0.0193315
0 -0.165253 0.48819
0 -0.223723 0.660919
0 -0.146485 0.432744
0 0.019609 -0.0579287
0 0.173808 -0.48429
0 0.459276 -0.395702
0 0.319981 -0.275689
0 -0.0134107 0.0115543
0 -0.338667 0.291789
0 -0.458493 0.395028
0 -0.300203 0.258648
0 0.0401863 -0.0346236
0 0.356199 -0.306893
0 0.306947 0
0 0.23218 0
0 -0.00973087 0
0 -0.24574 0
0 -0.332686 0
0 -0.217829 0
0 0.0291595 0
0 0.238058 0
0.0958543 0.120757 0.444148
0.238365 0.0875456 0.321544
0.232595 -0.00367234 -0.013488
0.0856878 -0.0927244 -0.340562
-0.113195 -0.125533 -0.461063
-0.243417 -0.0821934 -0.301888
-0.225949 0.0109546 0.0402372
-0.0687774 0.0936552 0.344466
0.133565 -0.138683 0.618882
0.332136 -0.100268 0.448049
0.324095 0.00420575 -0.0187944
0.1194 0.106195 -0.47455
-0.157726 0.143767 -0.642443
-0.339175 0.0941332 -0.420653
-0.314838 -0.0125489 0.0560677
-0.0958353 -0.107558 0.479984
0.0902565 -0.314 0.41821
0.224443 -0.227026 0.30277
0.219011 0.00952294 -0.0127002
0.0806833 0.24045 -0.320673
-0.106584 0.32552 -0.434138
-0.2292 0.213142 -0.284256
-0.212754 -0.0284136 0.0378879
-0.0647609 -0.243527 0.32435
-0.00780006 -0.298848 -0.0361421
-0.0193965 -0.216076 -0.0261657
-0.0189272 0.00906333 0.00109757
-0.00697282 0.228846 0.0277132
0.00921113 0.309817 0.0375186
0.0198074 0.202857 0.0245656
0.0183864 -0.0270425 -0.00327429
0.0055967 -0.231777 -0.0280306
-0.101125 -0.10242 -0.468571
-0.251468 -0.0740529 -0.339225
-0.245385 0.00310619 0.0142296
-0.0903985 0.0784304 0.359285
0.119419 0.106181 0.486416
0.256797 0.0695226 0.318482
0.238374 -0.00926796 -0.0424499
0.0725594 -0.0794334 -0.363408
-0.133109 0.156135 -0.616771
-0.330903 0.112783 -0.44639
-0.322891 -0.0047306 0.0187243
-0.118956 -0.119447 0.472786
0.15714 -0.161707 0.640055
0.337913 -0.105882 0.419089
0.313669 0.0141171 -0.0558621
0.0955085 0.121093 -0.478347
-0.0843509 0.319981 -0.390846
-0.201887 0.222933 -0.272305
-0.196961 -0.00934329 0.0114125
-0.0725609 -0.235952 0.288208
0.0958532 -0.319435 0.39018
0.206124 -0.209153 0.255474
0.191363 0.0279981 -0.0341987
0.0605235 0.248166 -0.303127
0 -0.0128644 0
0 -0.00973087 0
0 0.000407829 0
0 0.0102991 0
0 0.0139431 0
0 0.00912941 0
0 -0.0012221 0
0 -0.0099772 0
0.133565 -0.00506103 0.169215
0.332136 -0.00367234 0.122433
0.324095 0.000154053 -0.00513559
0.1194 0.00388971 -0.129671
-0.157726 0.00526586 -0.17555
-0.339175 0.00344793 -0.114946
-0.314838 -0.00045946 0.0153214
-0.0958353 -0.00392516 0.131238
0.186111 0.0058123 0.235787
0.462808 0.00420575 0.170598
0.451604 -0.000176416 -0.00715605
0.166371 -0.00445448 -0.180684
-0.21978 -0.00603054 -0.244619
-0.472617 -0.00394862 -0.160165
-0.438705 0.000526303 0.0213489
-0.133538 0.00450782 0.182868
0.125765 0.01316 0.159333
0.31274 0.00952294 0.115282
0.305174 -0.000399453 -0.00483576
0.112426 -0.010086 -0.122101
-0.148517 -0.0136548 -0.165299
-0.319367 -0.00894053 -0.108233
-0.296455 0.00119168 0.0144266
-0.0902386 0.0102064 0.123574
-0.0108687 0.012525 -0.0137697
-0.0270275 0.00906333 -0.00996271
-0.0263732 -0.00038018 0.000417907
-0.00971599 -0.00959949 0.0105519
0.0128349 -0.0129958 0.0142854
0.0276004 -0.00850911 0.00935362
0.0256198 0.00113417 -0.00124675
0.00779851 0.00971395 -0.0106793
-0.140909 0.0042925 -0.17852
-0.350395 0.00310619 -0.129163
-0.341917 -0.000130295 0.00541796
-0.125965 -0.00328991 0.136801
0.166398 -0.0044539 0.185203
0.357821 -0.00291623 0.121267
0.332149 0.000388701 -0.0161637
0.101105 0.00332912 -0.138454
-0.185476 -0.00654375 -0.234983
-0.46109 -0.0047306 -0.169965
-0.449926 0.000198428 0.00712947
-0.165753 0.00501023 0.180014
0.218963 0.00678295 0.243708
0.470862 0.00444121 0.15957
0.437075 -0.000592064 -0.0212705
0.133083 -0.00507511 -0.182245
-0.117536 -0.0134107 -0.148908
-0.281311 -0.00934329 -0.103745
-0.274447 0.000391585 0.00434805
-0.101107 0.00988893 0.109804
0.133563 0.0133878 0.148654
0.287216 0.00876579 0.0973328
0.266647 -0.00117342 -0.0130293
0.0843342 -0.0104008 -0.115488
0 -0.324873 0
0 -0.24574 0
0 0.0102991 0
0 0.260091 0
0 0.352114 0
0 0.23055 0
0 -0.0308624 0
0 -0.25196 0
0.0902565 -0.127809 -0.208361
0.224443 -0.0927244 -0.150752
0.219011 0.00388971 0.00632351
0.0806833 0.0982114 0.159665
-0.106584 0.132961 0.216159
-0.2292 0.0870569 0.141532
-0.212754 -0.0116014 -0.0188654
-0.0647609 -0.0991245 -0.161598
0.125765 0.146782 -0.290333
0.31274 0.106195 -0.21006
0.305174 -0.00445448 0.00881126
0.112426 -0.112474 0.222483
-0.148517 -0.152271 0.3012
-0.319367 -0.0997001 0.197213
-0.296455 0.0132894 -0.0262871
-0.0902386 0.113839 -0.225173
0.0849856 0.332337 -0.196193
0.211336 0.24045 -0.141947
0.20622 -0.010086 0.00595418
0.0759729 -0.254668 0.150343
-0.100359 -0.344772 0.203535
-0.215815 -0.225746 0.133266
-0.200328 0.0300904 -0.0177635
-0.0609789 0.257749 -0.152161
-0.00734454 0.316301 0.0169552
-0.0182639 0.228846 0.0122673
-0.0178217 -0.0095995 -0.000514569
-0.00656561 -0.242382 -0.0129927
0.00867311 -0.328135 -0.0175896
0.018651 -0.214854 -0.011517
0.0173125 0.0286384 0.00153514
0.00526985 0.245312 0.0131499
-0.0952196 0.108401 0.219819
-0.236785 0.0784304 0.159039
-0.231053 -0.00328991 -0.00667123
-0.08512 -0.0830679 -0.168444
0.112445 -0.11246 -0.228045
0.241804 -0.0736346 -0.149316
0.224452 0.00981489 0.0199025
0.068322 0.0840722 0.170484
-0.125336 -0.165253 0.289343
-0.311579 -0.119447 0.209282
-0.304039 0.00501023 -0.00877852
-0.112009 0.126507 -0.221656
0.147964 0.171267 -0.30008
0.31818 0.112139 -0.19648
0.295353 -0.0149499 0.0261909
0.0899309 -0.128165 0.224405
-0.0794249 -0.338667 0.183356
-0.190097 -0.235952 0.127745
-0.185458 0.00988893 -0.00535391
-0.0683234 0.249731 -0.135205
0.0902555 0.33809 -0.183043
0.194087 0.221368 -0.119849
0.180187 -0.0296331 0.0160435
0.056989 -0.262659 0.142205
0 -0.439818 0
0 -0.332686 0
0 0.0139431 0
0 0.352114 0
0 0.476698 0
0 0.312123 0
0 -0.0417819 0
0 -0.341108 0
-0.00780006 -0.17303 -0.459549
-0.0193965 -0.125533 -0.332485
-0.0189272 0.00526586 0.0139468
-0.00697282 0.132961 0.352144
0.00921113 0.180002 0.476749
0.0198075 0.117861 0.312155
0.0183864 -0.0157063 -0.0416079
0.0055967 -0.134196 -0.35641
-0.0108687 0.198715 -0.640341
-0.0270275 0.143767 -0.463293
-0.0263732 -0.00603054 0.0194338
-0.00971599 -0.152271 0.490696
0.0128349 -0.206145 0.664299
0.0276004 -0.134975 0.434965
0.0256198 0.0179914 -0.0579775
0.00779851 0.154117 -0.496627
-0.00734454 0.449923 -0.432711
-0.0182639 0.32552 -0.313071
-0.0178217 -0.0136548 0.0131323
-0.00656561 -0.344772 0.331582
0.00867311 -0.466763 0.448904
0.018651 -0.30562 0.293927
0.0173125 0.0407363 -0.0391782
0.00526985 0.348945 -0.335596
0.000634722 0.428213 0.0373953
0.00157838 0.309817 0.027056
0.00154017 -0.0129958 -0.0011349
0.000567404 -0.328135 -0.0286559
-0.000749541 -0.444241 -0.0387948
-0.00161183 -0.290871 -0.0254014
-0.00149617 0.0387711 0.00338582
-0.000455426 0.332107 0.0290026
0.00822897 0.146755 0.484818
0.0204629 0.106181 0.350766
0.0199676 -0.0044539 -0.0147137
0.00735623 -0.11246 -0.371508
-0.00971756 -0.152251 -0.502961
-0.0208966 -0.0996869 -0.329317
-0.0193973 0.0132876 0.0438956
-0.00590445 0.113818 0.376009
0.0108316 -0.223723 0.638157
0.0269271 -0.161707 0.461576
0.0262753 0.00678295 -0.0193615
0.00967988 0.171267 -0.488869
-0.0127872 0.231864 -0.661833
-0.0274978 0.151817 -0.433349
-0.0255247 -0.0202392 0.0577651
-0.00777192 -0.173512 0.494933
0.00686398 -0.458493 0.404399
0.0164283 -0.319435 0.281747
0.0160275 0.0133878 -0.0118083
0.00590457 0.33809 -0.298201
-0.00779997 0.457711 -0.403709
-0.0167732 0.299691 -0.264332
-0.015572 -0.0401178 0.0353845
-0.00492504 -0.355592 0.313638
0 -0.287975 0
0 -0.217829 0
0 0.00912941 0
0 0.23055 0
0 0.312123 0
0 0.204366 0
0 -0.0273571 0
0 -0.223344 0
-0.101125 -0.113293 -0.43198
-0.251468 -0.0821934 -0.312542
-0.245385 0.00344793 0.0131102
-0.0903985 0.0870569 0.331022
0.119419 0.117861 0.448147
0.256797 0.0771711 0.293431
0.238374 -0.0102839 -0.0391121
0.0725594 -0.0878664 -0.335029
-0.140909 0.130111 -0.601927
-0.350395 0.0941332 -0.435504
-0.341917 -0.00394862 0.0182678
-0.125965 -0.0997001 0.461257
0.166398 -0.134975 0.624453
0.357821 -0.0883758 0.40887
0.332149 0.01178 -0.0544995
0.101105 0.100909 -0.466834
-0.0952196 0.294591 -0.406753
-0.236785 0.213142 -0.294291
-0.231053 -0.00894053 0.0123444
-0.08512 -0.225746 0.311693
0.112445 -0.30562 0.421976
0.241804 -0.200107 0.276292
0.224452 0.0266728 -0.0368281
0.068322 0.228475 -0.315464
0.00822897 0.280377 0.035152
0.0204629 0.202857 0.0254329
0.0199676 -0.00850911 -0.00106682
0.00735623 -0.214854 -0.0269369
-0.00971756 -0.290871 -0.0364676
-0.0208966 -0.19045 -0.0238774
-0.0193973 0.0253857 0.00318271
-0.00590445 0.217451 0.0272627
0.106686 0.0960894 0.455734
0.265294 0.0695226 0.329725
0.258872 -0.00291623 -0.0138311
0.0953694 -0.0736347 -0.349222
-0.125985 -0.0996869 -0.472791
-0.270917 -0.0652709 -0.309566
-0.251478 0.00870016 0.0412625
-0.0765493 0.0745237 0.353452
0.140429 -0.146485 0.599874
0.349094 -0.105882 0.433889
0.340645 0.00444121 -0.0181999
0.125496 0.112139 -0.459544
-0.16578 0.151817 -0.622133
-0.356492 0.0994039 -0.407352
-0.330915 -0.013252 0.0542996
-0.10076 -0.113608 0.465242
0.0889892 -0.300203 0.380138
0.212988 -0.209153 0.264845
0.207791 0.00876579 -0.0110999
0.0765509 0.221368 -0.280312
-0.101124 0.299691 -0.37949
-0.217459 0.196226 -0.248475
-0.201886 -0.0262675 0.0332618
-0.0638516 -0.232827 0.294822
0 0.0385494 0
0 0.0291595 0
0 -0.0012221 0
0 -0.0308623 0
0 -0.0417819 0
0 -0.0273571 0
0 0.00366213 0
0 0.0298976 0
-0.133109 0.0151659 -0.142378
-0.330903 0.0109543 -0.103091
-0.322891 -0.000459447 0.00432447
-0.118956 -0.0116011 0.10919
0.15714 -0.0157058 0.147824
0.337913 -0.0102836 0.0967886
0.313669 0.00137144 -0.0128996
0.0955085 0.0117621 -0.110424
-0.185476 -0.0174171 -0.198392
-0.46109 -0.0125485 -0.143649
-0.449926 0.000526287 0.00602572
-0.165753 0.013289 0.152148
0.218963 0.0179908 0.205978
0.470862 0.0117797 0.134868
0.437075 -0.00157129 -0.0179745
0.133083 -0.0135081 -0.153866
-0.125336 -0.0394351 -0.134063
-0.311579 -0.0284127 -0.0970708
-0.304039 0.00119165 0.00407192
-0.112009 0.0300895 0.102813
0.147964 0.040735 0.13919
0.31818 0.026672 0.0911364
0.295353 -0.00355771 -0.0121462
0.0899309 -0.0305845 -0.103975
0.0108316 -0.0375323 0.0115859
0.0269271 -0.0270417 0.00838897
0.0262753 0.00113414 -0.000351897
0.00967989 0.0286375 -0.00888527
-0.0127872 0.0387699 -0.0120289
-0.0274978 0.025385 -0.00787617
-0.0255247 -0.00338605 0.0010497
-0.00777192 -0.0291088 0.00898562
0.140429 -0.0128629 0.150207
0.349094 -0.00926769 0.10876
0.340645 0.000388689 -0.00456225
0.125496 0.00981459 -0.115194
-0.16578 0.0132872 -0.155951
-0.356492 0.0086999 -0.102111
-0.330915 -0.00116046 0.0136089
-0.10076 -0.00997601 0.116496
0.184844 0.019609 0.197715
0.45938 0.0141166 0.143116
0.448257 -0.000592046 -0.00600327
0.165138 -0.0149494 -0.15158
-0.21815 -0.0202386 -0.205212
-0.469114 -0.0132516 -0.134365
-0.435452 0.00176782 0.0179085
-0.132629 0.015208 0.153341
0.117135 0.0401863 0.125291
0.280352 0.0279981 0.0872914
0.273511 -0.00117342 -0.00365845
0.100762 -0.0296331 -0.0923891
-0.133108 -0.0401178 -0.125078
-0.286236 -0.0262675 -0.0818959
-0.265738 0.00351627 0.0109629
-0.0840466 0.0311671 0.0971717
0 0.34169 0
0 0.238058 0
0 -0.0099772 0
0 -0.25196 0
0 -0.341108 0
0 -0.223344 0
0 0.0298976 0
0 0.265003 0
-0.0843509 0.134426 0.233588
-0.201887 0.0936552 0.162743
-0.196961 -0.00392516 -0.00682067
-0.0725609 -0.0991246 -0.172247
0.0958532 -0.134196 -0.23319
0.206124 -0.0878664 -0.152684
0.191363 0.0117621 0.0204388
0.0605235 0.104256 0.181163
-0.117536 -0.15438 0.325485
-0.281311 -0.107558 0.226768
-0.274447 0.00450782 -0.00950402
-0.101107 0.113839 -0.240011
0.133563 0.154117 -0.32493
0.287216 0.100909 -0.212751
0.266647 -0.0135081 0.0284797
0.0843342 -0.119732 0.252435
-0.0794249 -0.349541 0.219947
-0.190097 -0.243527 0.153239
-0.185458 0.0102064 -0.00642235
-0.0683234 0.257749 -0.162188
0.0902555 0.348945 -0.219572
0.194087 0.228475 -0.143767
0.180187 -0.0305845 0.0192452
0.056989 -0.271092 0.170583
0.00686398 -0.332675 -0.019008
0.0164283 -0.231777 -0.013243
0.0160275 0.00971395 0.000555026
0.00590457 0.245312 0.0140164
-0.00779997 0.332107 0.0189756
-0.0167732 0.217451 0.0124245
-0.015572 -0.0291088 -0.00166319
-0.00492504 -0.258011 -0.014742
0.0889892 -0.114013 -0.246433
0.212988 -0.0794334 -0.171692
0.207791 0.00332912 0.00719573
0.0765509 0.0840722 0.181718
-0.101124 0.113818 0.246013
-0.217459 0.0745237 0.161079
-0.201886 -0.00997601 -0.0215627
-0.0638516 -0.0884243 -0.191125
0.117135 0.173808 -0.324375
0.280352 0.121093 -0.225994
0.273511 -0.00507511 0.0094716
0.100762 -0.128165 0.239192
-0.133108 -0.173512 0.323822
-0.286236 -0.113608 0.212026
-0.265738 0.015208 -0.0283825
-0.0840466 0.134799 -0.251574
0.074228 0.356199 -0.205556
0.177658 0.248166 -0.143212
0.173323 -0.0104008 0.00600213
0.0638529 -0.262659 0.151575
-0.08435 -0.355592 0.205205
-0.181387 -0.232827 0.13436
-0.168397 0.0311671 -0.0179859
-0.0532601 0.276256 -0.159422
