# vtk DataFile Version 3.0
Velocity field
ASCII
DATASET STRUCTURED_POINTS
DIMENSIONS 5 5 5
SPACING 1.33333 1.33333 1.33333
ORIGIN 0 0 0
POINT_DATA 125
VECTORS velocity float
0 0.387505 0
0 0.0911557 0
0 -0.344618 0
0 -0.25329 0
0 0.225452 0
0 -0.205193 0.67298
0 -0.0482692 0.182448
0 0.182484 -0.689754
0 0.134123 -0.506961
0 -0.119382 0.391542
0 -0.484043 0.31662
0 -0.113865 0.0858374
0 0.430473 -0.324512
0 0.316392 -0.238512
0 -0.281618 0.184211
0 -0.022537 -0.524018
0 -0.00530154 -0.142064
0 0.0200427 0.537079
0 0.0147311 0.394746
0 -0.0131121 -0.304875
0 0.47344 -0.563158
0 0.111371 -0.132476
0 -0.421043 0.500831
0 -0.309461 0.368104
0 0.275449 -0.327647
0 0.0911557 0
0 0.0272854 0
0 -0.103154 0
0 -0.0758165 0
0 0.0530347 0
0.288033 -0.0482692 0.236339
0.442089 -0.0117967 0.0581264
-0.0926647 0.0446332 -0.219952
-0.48572 0.03281 -0.161691
-0.13015 -0.0280832 0.137503
0.135512 -0.113865 0.111191
0.207993 -0.0279138 0.0273471
-0.0435968 0.105619 -0.103482
-0.228519 0.0776418 -0.0760718
-0.0612324 -0.0662471 0.0646916
-0.224278 -0.00530154 -0.184026
-0.344158 -0.00130493 -0.0452504
0.0721378 0.00493817 0.171226
0.378124 0.0036302 0.125873
0.101342 -0.00308445 -0.107067
-0.241029 0.111371 -0.197771
-0.354428 0.0261986 -0.0465232
0.07428 -0.0990451 0.175883
0.389375 -0.0727969 0.129272
0.108911 0.064796 -0.115064
0 -0.344618 0
0 -0.103154 0
0 0.389977 0
0 0.286628 0
0 -0.2005 0
0.135512 0.182484 -0.561788
0.207993 0.0446332 -0.137838
-0.0435968 -0.168875 0.521559
-0.228519 -0.124141 0.383407
-0.0612324 0.10617 -0.32685
0.0637552 0.430473 -0.264307
0.0978551 0.105619 -0.0648494
-0.0205111 -0.399646 0.245381
-0.107512 -0.293786 0.180383
-0.0288083 0.25045 -0.153775
-0.105517 0.0200427 0.437438
-0.161918 0.00493817 0.107305
0.0339391 -0.0186877 -0.406024
0.177898 -0.013738 -0.298475
0.0476788 0.0116609 0.254503
-0.113398 -0.421043 0.470111
-0.166749 -0.0990451 0.110588
0.0349469 0.374445 -0.418082
0.183191 0.275212 -0.307285
0.05124 -0.244964 0.273512
0 -0.25329 0
0 -0.0758166 0
0 0.286628 0
0 0.210668 0
0 -0.147365 0
-0.224278 0.134123 -0.500646
-0.344158 0.0328102 -0.122853
0.0721378 -0.124142 0.464858
0.378124 -0.0912578 0.341725
0.101342 0.0780334 -0.291278
-0.105517 0.316392 -0.235542
-0.161918 0.0776421 -0.0577992
0.0339391 -0.293788 0.218705
0.177898 -0.215969 0.160774
0.0476788 0.184078 -0.137039
0.174635 0.0147311 0.38983
0.267923 0.00363022 0.0956394
-0.056158 -0.0137381 -0.361884
-0.294363 -0.0100994 -0.266027
-0.0789101 0.00857062 0.226804
0.187678 -0.309461 0.418947
0.275976 -0.0727969 0.098552
-0.0578384 0.275212 -0.372581
-0.303188 0.202277 -0.273842
-0.084804 -0.180046 0.243745
0 0.225452 0
0 0.0530347 0
0 -0.2005 0
0 -0.147365 0
0 0.131169 0
-0.241029 -0.119382 0.326247
-0.354428 -0.0280832 0.0767455
0.07428 0.10617 -0.29014
0.389374 0.0780334 -0.213249
0.108911 -0.069457 0.189811
-0.113398 -0.281618 0.153491
-0.166749 -0.0662471 0.0361068
0.0349469 0.25045 -0.136504
0.183191 0.184078 -0.100328
0.05124 -0.163846 0.0893016
0.187678 -0.0131121 -0.254033
0.275976 -0.00308445 -0.0597581
-0.0578383 0.0116609 0.225918
-0.303188 0.00857063 0.166047
-0.084804 -0.00762865 -0.147797
0.201696 0.275449 -0.273007
0.296589 0.064796 -0.0642215
-0.0621584 -0.244964 0.242793
-0.325833 -0.180046 0.178449
-0.0911381 0.160257 -0.158837
