# vtk DataFile Version 3.0
Velocity field
ASCII
DATASET STRUCTURED_POINTS
DIMENSIONS 8 8 8
SPACING 0.8 0.8 0.8
ORIGIN 0 0 0
POINT_DATA 512
VECTORS velocity float
0 0.225642 0
0 0.157206 0
0 -0.00658865 0
0 -0.166387 0
0 -0.225257 0
0 -0.14749 0
0 0.0197435 0
0 0.175 0
0 0.0887707 0.230302
0 0.0618471 0.170118
0 -0.00259206 -0.00712977
0 -0.0654589 -0.180053
0 -0.0886193 -0.243758
0 -0.0580244 -0.159603
0 0.00776736 0.021365
0 0.0688475 0.178614
0 -0.101948 0.320905
0 -0.0710278 0.237044
0 0.00297683 -0.00993473
0 0.0751758 -0.250888
0 0.101774 -0.339655
0 0.0666376 -0.222393
0 -0.00892036 0.0297703
0 -0.0790673 0.248883
0 -0.230826 0.216852
0 -0.160818 0.160183
0 0.00674002 -0.0067134
0 0.17021 -0.169538
0 0.230433 -0.229523
0 0.150878 -0.150282
0 -0.0201971 0.0201173
0 -0.179021 0.168183
0 -0.219689 -0.0187406
0 -0.153058 -0.0138432
0 0.0064148 0.000580179
0 0.161997 0.0146516
0 0.219314 0.0198356
0 0.143598 0.0129875
0 -0.0192226 -0.00173856
0 -0.170383 -0.0145346
0 -0.0752906 -0.242966
0 -0.0524555 -0.179472
0 0.00219845 0.00752183
0 0.0555188 0.189953
0 0.0751622 0.257162
0 0.0492132 0.168379
0 -0.00658787 -0.0225399
0 -0.0583928 -0.188436
0 0.114778 -0.319811
0 0.0799663 -0.236236
0 -0.00335145 0.00990084
0 -0.0846363 0.250032
0 -0.114582 0.338497
0 -0.0750237 0.221634
0 0.0100429 -0.0296688
0 0.0890176 -0.248034
0 0.235223 -0.202663
0 0.163882 -0.141197
0 -0.00686841 0.00591767
0 -0.173452 0.149443
0 -0.234822 0.202318
0 -0.153752 0.13247
0 0.0205818 -0.0177329
0 0.182431 -0.157179
0 0.157206 0
0 0.118914 0
0 -0.00498377 0
0 -0.125858 0
0 -0.170389 0
0 -0.111564 0
0 0.0149343 0
0 0.121924 0
0.0490928 0.0618471 0.227475
0.119775 0.0439856 0.161605
0.116858 -0.00184386 -0.00677438
0.0430514 -0.0465631 -0.171074
-0.0568704 -0.063038 -0.231601
-0.122295 -0.0412746 -0.151644
-0.113533 0.00551886 0.0202774
-0.0352251 0.0479665 0.176422
0.0684066 -0.0710278 0.316967
0.166897 -0.0504288 0.225183
0.162833 0.00211391 -0.00943946
0.0599878 0.0533828 -0.238375
-0.0792449 0.0722703 -0.322719
-0.170409 0.0473197 -0.211303
-0.1582 -0.00632773 0.0282548
-0.0490831 -0.0550867 0.245829
0.0462258 -0.160818 0.214191
0.11278 -0.114179 0.152168
0.110035 0.00478629 -0.00637875
0.040537 0.120868 -0.161084
-0.0535497 0.163633 -0.218077
-0.115153 0.107141 -0.142788
-0.106903 -0.014327 0.0190932
-0.033168 -0.124725 0.166119
-0.00399488 -0.153058 -0.0185106
-0.00974666 -0.10867 -0.0131505
-0.0095093 0.00455533 0.000551256
-0.00350324 0.115036 0.013921
0.0046278 0.155738 0.0188463
0.00995176 0.101971 0.0123398
0.00923864 -0.0136358 -0.00165006
0.00286641 -0.118707 -0.0143562
-0.0517924 -0.0524555 -0.239984
-0.126362 -0.0372431 -0.170492
-0.123284 0.00156119 0.00714685
-0.0454183 0.0394249 0.18048
0.0599977 0.0533738 0.244336
0.129021 0.0349469 0.159983
0.119776 -0.00467321 -0.0213925
0.0371621 -0.0406827 -0.186123
-0.0681733 0.0799663 -0.315886
-0.166315 0.0567613 -0.224397
-0.162265 -0.00237937 0.00940654
-0.0597786 -0.0600865 0.237543
0.0789684 -0.0813457 0.321592
0.169814 -0.0532619 0.210566
0.157648 0.00712246 -0.0281564
0.0489157 0.0620191 -0.24499
-0.0432012 0.163882 -0.200176
-0.103398 0.114177 -0.139464
-0.100875 -0.00478527 0.00584505
-0.0371628 -0.120845 0.147609
0.0490923 -0.163602 0.199835
0.105569 -0.10712 0.130844
0.0980085 0.0143395 -0.0175152
0.0309977 0.127101 -0.15525
0 -0.00658865 0
0 -0.00498377 0
0 0.000208874 0
0 0.00527482 0
0 0.00714113 0
0 0.00467572 0
0 -0.00062591 0
0 -0.00510993 0
0.0684066 -0.00259206 0.0866655
0.166897 -0.00184386 0.0615429
0.162833 7.72942e-05 -0.00257982
0.0599878 0.00195191 -0.0651486
-0.0792449 0.00264253 -0.0881983
-0.170409 0.00173023 -0.0577488
-0.1582 -0.000231344 0.00772221
-0.0490831 -0.00201031 0.0672148
0.0953186 0.00297683 0.120761
0.232555 0.00211391 0.0857548
0.226892 -8.86127e-05 -0.00359473
0.0835884 -0.00223775 -0.0907782
-0.110421 -0.0030295 -0.122897
-0.237448 -0.00198361 -0.080469
-0.220437 0.000265248 0.0107603
-0.0683931 0.00230873 0.093658
0.0644117 0.00674002 0.0816043
0.157151 0.00478629 0.0579485
0.153324 -0.000200637 -0.00242917
0.0564844 -0.00506669 -0.0613436
-0.0746167 -0.0068594 -0.0830482
-0.160458 -0.00449121 -0.0543769
-0.14896 0.000600568 0.00727122
-0.0462167 0.00522733 0.0632895
-0.00556652 0.0064148 -0.00705233
-0.0135811 0.00455532 -0.00500802
-0.0132504 -0.000190955 0.000209931
-0.00488149 -0.00482223 0.0053014
0.00644847 -0.00652841 0.00717706
0.0138669 -0.00427453 0.00469928
0.0128733 0.000571588 -0.000628391
0.00399409 0.0049751 -0.00546954
-0.0721682 0.00219845 -0.0914311
-0.176073 0.00156119 -0.064927
-0.171787 -6.54436e-05 0.00272168
-0.0632868 -0.00165266 0.0687302
0.0836023 -0.00223737 0.0930486
0.179778 -0.00146494 0.0609244
0.166898 0.000195893 -0.00814687
0.0517821 0.00170504 -0.0709108
-0.0949936 -0.00335145 -0.120349
-0.231744 -0.00237937 -0.0854555
-0.226101 9.97407e-05 0.0035822
-0.0832969 0.00251877 0.0904618
0.110035 0.00340994 0.122469
0.23662 0.00223269 0.0801881
0.219668 -0.000298561 -0.0107228
0.0681598 -0.00259927 -0.0933386
-0.0601972 -0.00686841 -0.0762648
-0.144077 -0.00478527 -0.0531342
-0.140561 0.000200554 0.0022269
-0.0517832 0.00506472 0.0562372
0.0684058 0.0068567 0.0761348
0.147101 0.00448949 0.04985
0.136566 -0.00060098 -0.00667311
0.0431927 -0.0053269 -0.0591484
0 -0.166387 0
0 -0.125858 0
0 0.00527482 0
0 0.133208 0
0 0.180339 0
0 0.118079 0
0 -0.0158065 0
0 -0.129044 0
0.0462258 -0.0654589 -0.106714
0.11278 -0.0465631 -0.0757796
0.110035 0.00195191 0.00317661
0.040537 0.0492917 0.0802195
-0.0535497 0.0667321 0.108602
-0.115153 0.0436932 0.0711078
-0.106903 -0.00584216 -0.00950858
-0.033168 -0.0507677 -0.0827641
0.0644117 0.0751758 -0.148697
0.157151 0.0533828 -0.105592
0.153324 -0.00223775 0.00442629
0.0564844 -0.0565099 0.111779
-0.0746167 -0.0765047 0.151327
-0.160458 -0.0500921 0.0990828
-0.14896 0.00669834 -0.0132494
-0.0462167 0.0583038 -0.115325
0.0435263 0.17021 -0.100482
0.106195 0.120868 -0.0713538
0.103609 -0.00506669 0.00299108
0.0381698 -0.12795 0.0755343
-0.0504224 -0.173221 0.10226
-0.108429 -0.113417 0.0669556
-0.10066 0.0151662 -0.00895326
-0.031231 0.132009 -0.0779307
-0.00376158 0.161997 0.00868379
-0.0091774 0.115036 0.00616648
-0.0089539 -0.00482223 -0.000258493
-0.00329868 -0.121775 -0.00652777
0.00435752 -0.164862 -0.00883731
0.00937053 -0.107945 -0.00578634
0.00869908 0.0144344 0.000773751
0.00269901 0.125639 0.00673485
-0.0487677 0.0555188 0.112582
-0.118982 0.0394249 0.0799467
-0.116084 -0.00165266 -0.00335128
-0.0427663 -0.0417345 -0.0846303
0.0564938 -0.0565003 -0.114573
0.121485 -0.0369944 -0.0750181
0.112781 0.00494691 0.0100315
0.0349918 0.0430585 0.0873151
-0.064192 -0.0846363 0.14819
-0.156603 -0.0600865 0.105224
-0.152789 0.00251877 -0.00441086
-0.0562874 0.0636064 -0.111389
0.0743565 0.0861116 -0.1508
0.159898 0.056382 -0.0987373
0.148441 -0.00753962 0.0132033
0.0460591 -0.065641 0.114931
-0.0406783 -0.173452 0.0939077
-0.09736 -0.120845 0.0654261
-0.0949844 0.00506472 -0.00274206
-0.0349926 0.127903 -0.0692469
0.0462253 0.173156 -0.0937476
0.0994035 0.113376 -0.0613822
0.0922849 -0.0151769 0.00821685
0.0291875 -0.134524 0.0728316
0 -0.225257 0
0 -0.170389 0
0 0.00714113 0
0 0.180339 0
0 0.244146 0
0 0.159857 0
0 -0.0213991 0
0 -0.174702 0
-0.00399488 -0.0886193 -0.235363
-0.00974666 -0.063038 -0.167134
-0.0095093 0.00264253 0.00700611
-0.00350324 0.0667321 0.176925
0.0046278 0.0903425 0.239524
0.00995176 0.0591525 0.156832
0.00923864 -0.00790923 -0.0209716
0.00286641 -0.0687301 -0.182539
-0.00556652 0.101774 -0.327958
-0.0135811 0.0722703 -0.232886
-0.0132504 -0.0030295 0.00976244
-0.00488149 -0.0765047 0.24653
0.00644847 -0.103573 0.333758
0.0138669 -0.0678157 0.218532
0.0128733 0.00906828 -0.0292219
0.00399409 0.0789325 -0.254353
-0.00376158 0.230433 -0.221618
-0.0091774 0.163633 -0.157374
-0.0089539 -0.0068594 0.006597
-0.00329868 -0.173221 0.166594
0.00435752 -0.234507 0.225535
0.00937053 -0.153547 0.147672
0.00869908 0.0205322 -0.0197469
0.00269901 0.178716 -0.171879
0.00032508 0.219314 0.0191524
0.000793124 0.155738 0.0136004
0.000773809 -0.00652841 -0.000570113
0.000285072 -0.164862 -0.0143971
-0.000376583 -0.223194 -0.0194912
-0.000809814 -0.146137 -0.0127621
-0.000751786 0.0195415 0.00170654
-0.000233251 0.170092 0.014854
0.00421456 0.0751622 0.248305
0.0102826 0.0533738 0.176324
0.0100323 -0.00223737 -0.00739132
0.00369587 -0.0565003 -0.186654
-0.0048823 -0.0764918 -0.252696
-0.010499 -0.0500837 -0.165456
-0.00974673 0.00669721 0.0221247
-0.00302403 0.0582932 0.192577
0.00554754 -0.114582 0.326839
0.0135338 -0.0813457 0.232074
0.0132042 0.00340994 -0.00972841
0.00486447 0.0861116 -0.245671
-0.00642599 0.116579 -0.332594
-0.0138185 0.0763314 -0.21777
-0.0128284 -0.0102072 0.0291202
-0.00398047 -0.0888658 0.253485
0.00351546 -0.234822 0.207117
0.00841395 -0.163602 0.1443
0.00820865 0.0068567 -0.00604772
0.00302409 0.173156 -0.152727
-0.00399484 0.234422 -0.206764
-0.00859055 0.15349 -0.135381
-0.00797535 -0.0205467 0.0181226
-0.00252241 -0.18212 0.160633
0 -0.14749 0
0 -0.111564 0
0 0.00467572 0
0 0.118079 0
0 0.159857 0
0 0.104668 0
0 -0.0140112 0
0 -0.114388 0
-0.0517924 -0.0580244 -0.221243
-0.126362 -0.0412746 -0.157108
-0.123284 0.00173023 0.00658585
-0.0454183 0.0436932 0.166312
0.0599977 0.0591525 0.225154
0.129021 0.038731 0.147423
0.119776 -0.00517864 -0.0197135
0.0371621 -0.0450017 -0.171589
-0.0721682 0.0666376 -0.308283
-0.176073 0.0473197 -0.218917
-0.171787 -0.00198361 0.00917673
-0.0632868 -0.0500921 0.23174
0.0836023 -0.0678157 0.313736
0.179778 -0.0444027 0.205422
0.166898 0.00593754 -0.0274691
0.0517821 0.0516819 -0.239094
-0.0487677 0.150878 -0.208323
-0.118982 0.107141 -0.147933
-0.116084 -0.00449121 0.0062012
-0.0427663 -0.113417 0.1566
0.0564938 -0.153547 0.212007
0.121485 -0.100536 0.138813
0.112781 0.0134437 -0.0185622
0.0349918 0.117016 -0.161568
0.00421456 0.143598 0.0180035
0.0102826 0.101971 0.0127846
0.0100323 -0.00427453 -0.000535912
0.00369587 -0.107945 -0.0135335
-0.0048823 -0.146137 -0.0183218
-0.010499 -0.0956847 -0.0119964
-0.00974673 0.012795 0.00160417
-0.00302403 0.11137 0.0139629
0.0546403 0.0492132 0.233409
0.13331 0.0349469 0.165747
0.130064 -0.00146494 -0.006948
0.0479157 -0.0369944 -0.175456
-0.0632973 -0.0500837 -0.237535
-0.136116 -0.0327928 -0.15553
-0.126363 0.00438504 0.0207975
-0.0392055 0.0381681 0.181024
0.071922 -0.0750237 0.307232
0.175459 -0.0532619 0.218153
0.171187 0.00223269 -0.00914474
0.0630661 0.056382 -0.230932
-0.0833107 0.0763314 -0.312642
-0.179151 0.0499788 -0.204706
-0.166316 -0.00668329 0.0273733
-0.0516055 -0.0581858 0.238279
0.0455768 -0.153752 0.194692
0.109084 -0.10712 0.135643
0.106422 0.00448949 -0.00568492
0.0392064 0.113376 -0.143565
-0.0517918 0.15349 -0.19436
-0.111374 0.100499 -0.127259
-0.103398 -0.0134532 0.0170354
-0.0327023 -0.119245 0.150996
0 0.0197435 0
0 0.0149343 0
0 -0.00062591 0
0 -0.0158065 0
0 -0.021399 0
0 -0.0140112 0
0 0.0018756 0
0 0.0153124 0
-0.0681733 0.00776736 -0.0729205
-0.166315 0.00551877 -0.0517921
-0.162265 -0.000231341 0.00217107
-0.0597786 -0.00584207 0.0548267
0.0789684 -0.00790911 0.0742247
0.169814 -0.00517856 0.0485994
0.157648 0.000692487 -0.00649864
0.0489157 0.0060241 -0.0565546
-0.0949936 -0.00892036 -0.101608
-0.231744 -0.00632763 -0.0721678
-0.226101 0.000265244 0.00302521
-0.0832969 0.00669824 0.076396
0.110035 0.00906814 0.103426
0.23662 0.00593745 0.0677196
0.219668 -0.000794032 -0.00905528
0.0681598 -0.00691833 -0.078804
-0.064192 -0.0201971 -0.068662
-0.156603 -0.0143268 -0.0487674
-0.152789 0.000600558 0.0020443
-0.0562874 0.015166 0.0516247
0.0743565 0.0205319 0.06989
0.159898 0.0134435 0.0457614
0.148441 -0.00179783 -0.0061191
0.0460591 -0.0156642 -0.0532519
0.00554754 -0.0192226 0.00593384
0.0135338 -0.0136356 0.00421454
0.0132042 0.000571579 -0.00017667
0.00486448 0.0144341 -0.00446145
-0.00642599 0.0195412 -0.00603997
-0.0138185 0.0127948 -0.00395474
-0.0128284 -0.00171109 0.000528822
-0.00398047 -0.0149084 0.00460208
0.071922 -0.00658787 0.0769303
0.175459 -0.00467313 0.0546401
0.171187 0.000195889 -0.00229046
0.0630661 0.00494684 -0.0578412
-0.0833107 0.0066971 -0.0783066
-0.179151 0.00438498 -0.051272
-0.166316 -0.000586417 0.006856
-0.0516055 -0.00510932 0.0596645
0.0946696 0.0100429 0.101262
0.230936 0.00712235 0.0719161
0.225312 -0.000298557 -0.00301465
0.0830064 -0.0075395 -0.0761295
-0.109651 -0.0102071 -0.103065
-0.235795 -0.00668319 -0.0674831
-0.218901 0.000893775 0.00902376
-0.0679273 0.00778896 0.0785352
0.0599919 0.0205818 0.0641693
0.143585 0.0143395 0.0447072
0.140082 -0.00060098 -0.00187372
0.0516066 -0.0151769 -0.0473181
-0.0681725 -0.0205467 -0.0640599
-0.146599 -0.0134532 -0.0419439
-0.136101 0.00180089 0.00561476
-0.0430454 0.0159626 0.0497676
0 0.175 0
0 0.121924 0
0 -0.00510993 0
0 -0.129044 0
0 -0.174702 0
0 -0.114388 0
0 0.0153124 0
0 0.135724 0
-0.0432012 0.0688475 0.119635
-0.103398 0.0479665 0.0833503
-0.100875 -0.00201031 -0.00349328
-0.0371628 -0.0507677 -0.0882179
0.0490922 -0.0687301 -0.119431
0.105569 -0.0450017 -0.0781985
0.0980085 0.0060241 0.0104679
0.0309977 0.0533957 0.0927846
-0.0601972 -0.0790673 0.166701
-0.144077 -0.0550867 0.116141
-0.140561 0.00230873 -0.00486758
-0.0517832 0.0583038 -0.122924
0.0684058 0.0789325 -0.166416
0.147101 0.0516819 -0.108963
0.136566 -0.00691833 0.0145862
0.0431927 -0.0613219 0.129287
-0.0406783 -0.179021 0.112648
-0.09736 -0.124725 0.0784828
-0.0949844 0.00522733 -0.00328928
-0.0349925 0.132009 -0.0830661
0.0462253 0.178716 -0.112456
0.0994035 0.117016 -0.0736318
0.0922849 -0.0156642 0.00985662
0.0291875 -0.138843 0.0873661
0.00351546 -0.170383 -0.00973517
0.00841395 -0.118707 -0.00678256
0.00820865 0.0049751 0.000284262
0.00302409 0.125639 0.00717865
-0.00399484 0.170092 0.00971857
-0.00859055 0.11137 0.00636333
-0.00797535 -0.0149084 -0.000851819
-0.00252241 -0.132143 -0.00755026
0.0455768 -0.0583928 -0.126213
0.109084 -0.0406827 -0.0879337
0.106422 0.00170504 0.00368537
0.0392064 0.0430585 0.0930689
-0.0517918 0.0582932 0.125998
-0.111374 0.0381681 0.0824985
-0.103398 -0.00510932 -0.0110436
-0.0327023 -0.0452875 -0.0978867
0.0599919 0.0890176 -0.166132
0.143585 0.0620191 -0.115745
0.140082 -0.00259927 0.00485098
0.0516066 -0.065641 0.122505
-0.0681725 -0.0888658 0.165849
-0.146599 -0.0581858 0.108591
-0.136101 0.00778896 -0.0145364
-0.0430454 0.069039 -0.128846
0.0380167 0.182431 -0.105277
0.0909896 0.127101 -0.0733475
0.0887695 -0.0053269 0.00307405
0.0327029 -0.134524 0.077631
-0.0432007 -0.18212 0.105098
-0.0928994 -0.119245 0.068814
-0.0862466 0.0159626 -0.00921169
-0.0272777 0.141487 -0.0816496
