# vtk DataFile Version 3.0
Velocity field
ASCII
DATASET STRUCTURED_POINTS
DIMENSIONS 8 8 8
SPACING 0.8 0.8 0.8
ORIGIN 0 0 0
POINT_DATA 512
VECTORS velocity float
0 0.187498 0
0 0.130631 0
0 -0.00547485 0
0 -0.13826 0
0 -0.187178 0
0 -0.122557 0
0 0.0164059 0
0 0.145417 0
0 0.0737641 0.191369
0 0.0513919 0.14136
0 -0.00215388 -0.00592449
0 -0.0543932 -0.149615
0 -0.0736383 -0.202551
0 -0.0482154 -0.132622
0 0.0064543 0.0177533
0 0.0572089 0.14842
0 -0.0847138 0.266657
0 -0.0590206 0.196972
0 0.0024736 -0.00825527
0 0.0624674 -0.208475
0 0.0845693 -0.282237
0 0.0553726 -0.184798
0 -0.00741238 0.0247377
0 -0.0657011 0.20681
0 -0.191805 0.180194
0 -0.133632 0.133104
0 0.00560063 -0.00557851
0 0.141436 -0.140877
0 0.191478 -0.190722
0 0.125372 -0.124877
0 -0.0167828 0.0167165
0 -0.148758 0.139752
0 -0.18255 -0.0155725
0 -0.127184 -0.011503
0 0.00533039 0.0004821
0 0.134612 0.0121748
0 0.182239 0.0164824
0 0.119323 0.010792
0 -0.015973 -0.00144466
0 -0.14158 -0.0120775
0 -0.0625628 -0.201892
0 -0.0435879 -0.149133
0 0.00182681 0.00625028
0 0.0461334 0.157842
0 0.0624561 0.213689
0 0.0408938 0.139915
0 -0.00547419 -0.0187295
0 -0.0485216 -0.156581
0 0.0953746 -0.265747
0 0.0664481 -0.196301
0 -0.00278489 0.00822712
0 -0.0703286 0.207764
0 -0.0952119 0.281274
0 -0.062341 0.184167
0 0.0083452 -0.0246533
0 0.0739693 -0.206104
0 0.195459 -0.168403
0 0.136178 -0.117328
0 -0.00570731 0.0049173
0 -0.14413 0.124179
0 -0.195126 0.168116
0 -0.127761 0.110076
0 0.0171025 -0.0147351
0 0.151591 -0.130608
0 0.130631 0
0 0.0988114 0
0 -0.00414127 0
0 -0.104582 0
0 -0.141585 0
0 -0.092704 0
0 0.0124097 0
0 0.101313 0
0.0407937 0.0513919 0.189021
0.0992054 0.0364265 0.13385
0.0967884 -0.00152688 -0.00561052
0.0356572 -0.0385588 -0.141684
-0.0471031 -0.0522016 -0.191813
-0.101291 -0.0341794 -0.125592
-0.0940349 0.00457175 0.0167995
-0.0292703 0.0398578 0.146598
0.0568425 -0.0590206 0.263384
0.138235 -0.0417723 0.186508
0.134866 0.00175094 -0.00781774
0.049685 0.0442169 -0.197423
-0.0656347 0.0598614 -0.267277
-0.141141 0.0391948 -0.175002
-0.131031 -0.00524295 0.0234086
-0.0407857 -0.0457744 0.204272
0.0384114 -0.133632 0.177982
0.0934117 -0.0945791 0.126033
0.0911365 0.00396443 -0.00528286
0.0335747 0.100115 -0.13341
-0.0443526 0.135537 -0.180612
-0.095376 0.0887441 -0.118257
-0.0885438 -0.0118709 0.0158184
-0.027561 -0.10364 0.138037
-0.00331955 -0.127184 -0.0153814
-0.00807281 -0.0900156 -0.0108919
-0.0078761 0.00377313 0.000456549
-0.00290156 0.0952838 0.0115294
0.00383298 0.128997 0.0156086
0.00824255 0.0844624 0.0102199
0.00765202 -0.0112981 -0.00136704
0.00238185 -0.0986396 -0.0119293
-0.0430369 -0.0435879 -0.199415
-0.104661 -0.0308499 -0.14121
-0.102111 0.00129311 0.00591901
-0.0376179 0.0326554 0.149475
0.0496932 0.0442092 0.20236
0.106862 0.0289464 0.132498
0.0992057 -0.00387206 -0.0177233
0.0308799 -0.0338053 -0.154659
-0.0566487 0.0664481 -0.262486
-0.137756 0.0470212 -0.185862
-0.134399 -0.00197096 0.00779066
-0.0495129 -0.0497732 0.196739
0.0654072 -0.0673836 0.26635
0.140652 -0.0441201 0.174396
0.130577 0.00590184 -0.0233277
0.0406466 0.0515349 -0.203575
-0.0358981 0.136178 -0.166337
-0.085919 0.0948758 -0.115888
-0.0838226 -0.00397632 0.00485695
-0.0308805 -0.100417 0.122656
0.0407933 -0.135945 0.166053
0.0877224 -0.0890116 0.108725
0.0814403 0.0119154 -0.0145543
0.0257576 0.105615 -0.129005
0 -0.00547485 0
0 -0.00414127 0
0 0.000173564 0
0 0.00438311 0
0 0.00593393 0
0 0.0038853 0
0 -0.0005201 0
0 -0.0042461 0
0.0568425 -0.00215388 0.0720148
0.138235 -0.00152688 0.0509756
0.134866 6.40023e-05 -0.00213671
0.049685 0.00161626 -0.0539594
-0.0656347 0.00218812 -0.0730505
-0.141141 0.0014327 -0.0478305
-0.131031 -0.000191631 0.00639805
-0.0407857 -0.00167047 0.0558522
0.0792051 0.0024736 0.100346
0.192617 0.00175094 0.0710301
0.187924 -7.33928e-05 -0.00297732
0.0692321 -0.00185341 -0.0751873
-0.0914562 -0.00250917 -0.10179
-0.196667 -0.00164292 -0.0666483
-0.18258 0.000219764 0.00891514
-0.0568313 0.00191844 0.0778252
0.053523 0.00560063 0.0678092
0.130162 0.00396443 0.0479985
0.126991 -0.000166175 -0.00201194
0.0467834 -0.00419645 -0.0508078
-0.0618014 -0.00568124 -0.0687844
-0.132899 -0.00371982 -0.0450376
-0.123378 0.000497584 0.0060244
-0.0384038 0.00434366 0.0525905
-0.00462551 0.00533039 -0.00586014
-0.0112488 0.00377313 -0.00414811
-0.0109746 -0.000158156 0.000173873
-0.0040431 -0.00399398 0.00439087
0.00534096 -0.00540712 0.00594441
0.0114853 -0.00354035 0.00389218
0.0106625 0.000473573 -0.000520638
0.0033189 0.00413407 -0.00454492
-0.0599682 0.00182681 -0.0759748
-0.145836 0.00129311 -0.0537788
-0.142283 -5.42029e-05 0.00225421
-0.0524174 -0.0013688 0.0569258
0.0692435 -0.00185309 0.0770677
0.148902 -0.00121333 0.0504607
0.138235 0.000162301 -0.0067499
0.0430284 0.00141681 -0.0589234
-0.078935 -0.00278489 -0.100004
-0.19195 -0.00197096 -0.0707841
-0.187273 8.26155e-05 0.00296701
-0.0689922 0.00208632 0.074927
0.0911391 0.00282448 0.101437
0.195986 0.00184935 0.0664172
0.181947 -0.000247381 -0.00888429
0.0566375 -0.00215987 -0.0775598
-0.0500209 -0.00570731 -0.0633724
-0.119721 -0.00397632 -0.0441519
-0.116799 0.000166651 0.00185044
-0.0430293 0.00420854 0.0467304
0.0568419 0.00569758 0.0632643
0.122234 0.00373055 0.0414229
0.11348 -0.000499385 -0.00554503
0.035891 -0.0044264 -0.0491494
0 -0.13826 0
0 -0.104582 0
0 0.00438311 0
0 0.110689 0
0 0.149853 0
0 0.0981178 0
0 -0.0131344 0
0 -0.107229 0
0.0384114 -0.0543932 -0.0886745
0.0934117 -0.0385588 -0.0627679
0.0911365 0.00161626 0.00263101
0.0335747 0.040816 0.0664418
-0.0443526 0.0552575 0.0899497
-0.095376 0.0361802 0.0588952
-0.0885438 -0.00483933 -0.00787813
-0.027561 -0.0421855 -0.0687729
0.053523 0.0624674 -0.12356
0.130162 0.0442169 -0.0874616
0.126991 -0.00185341 0.00366606
0.0467834 -0.0468046 0.0925808
-0.0618014 -0.0633653 0.125337
-0.132899 -0.041489 0.0820655
-0.123378 0.00554976 -0.0109775
-0.0384038 0.0484476 -0.0958291
0.0361682 0.141436 -0.0834959
0.0879571 0.100115 -0.0591021
0.0858142 -0.00419645 0.00247734
0.0316142 -0.105975 0.0625614
-0.0417624 -0.14347 0.0846967
-0.0898066 -0.0939379 0.0554561
-0.0833729 0.0125656 -0.00741802
-0.0259514 0.109693 -0.0647566
-0.00312569 0.134612 0.0072158
-0.00760132 0.0952838 0.00510767
-0.00741609 -0.00399398 -0.000214096
-0.00273214 -0.100861 -0.00540663
0.00360913 -0.136547 -0.00731953
0.00776116 -0.0894058 -0.00479256
0.00720513 0.0119593 0.000641074
0.00224275 0.1044 0.00559633
-0.0405236 0.0461334 0.0935505
-0.0985483 0.0326554 0.0662195
-0.0961473 -0.0013688 -0.00277568
-0.0354211 -0.0345666 -0.0700949
0.0467912 -0.0467965 -0.0948953
0.100621 -0.0306406 -0.0621339
0.093412 0.00409865 0.00831135
0.0290765 0.0357795 0.0725546
-0.0533404 -0.0703286 0.123139
-0.129711 -0.0497732 0.0871588
-0.126551 0.00208632 -0.00365336
-0.0466214 0.0526863 -0.0922599
0.0615873 0.0713275 -0.124903
0.132438 0.0467022 -0.0817813
0.122951 -0.0062472 0.0109395
0.0382728 -0.0545445 0.0955022
-0.0338017 -0.14413 0.0780327
-0.0809014 -0.100417 0.0543659
-0.0789274 0.00420854 -0.00227852
-0.0290771 0.106281 -0.0575408
0.038411 0.143884 -0.0778996
0.0825995 0.0942098 -0.0510056
0.0766842 -0.0126113 0.0068278
0.0242534 -0.111782 0.0605195
0 -0.187178 0
0 -0.141585 0
0 0.00593393 0
0 0.149853 0
0 0.202873 0
0 0.132833 0
0 -0.0177816 0
0 -0.145169 0
-0.00331955 -0.0736383 -0.195575
-0.00807281 -0.0522016 -0.138437
-0.0078761 0.00218812 0.00580277
-0.00290156 0.0552575 0.146539
0.00383298 0.0748082 0.198386
0.00824255 0.0489812 0.129896
0.00765202 -0.00655157 -0.0173755
0.00238185 -0.0571113 -0.151681
-0.00462551 0.0845693 -0.272517
-0.0112488 0.0598614 -0.192899
-0.0109746 -0.00250917 0.00808568
-0.0040431 -0.0633653 0.204189
0.00534096 -0.0857849 0.276435
0.0114853 -0.0561687 0.180999
0.0106625 0.00751334 -0.0242112
0.0033189 0.065589 -0.211355
-0.00312569 0.191478 -0.184154
-0.00760132 0.135537 -0.130352
-0.00741609 -0.00568124 0.00546392
-0.00273214 -0.14347 0.137981
0.00360913 -0.194231 0.1868
0.00776116 -0.127175 0.12231
0.00720513 0.0170115 -0.0163608
0.00224275 0.148504 -0.142823
0.000270125 0.182239 0.0159147
0.000656917 0.128997 0.0112652
0.000640908 -0.00540712 -0.000472194
0.000236112 -0.136547 -0.0119245
-0.000311905 -0.18486 -0.0161436
-0.000670729 -0.121038 -0.0105702
-0.000622676 0.0161907 0.00141392
-0.00019382 0.141338 0.0123429
0.00350209 0.0624561 0.206329
0.00851667 0.0442092 0.146049
0.00830922 -0.00185309 -0.00612183
0.00306111 -0.0467965 -0.154596
-0.00404377 -0.0633544 -0.209296
-0.00869576 -0.0414818 -0.137038
-0.00807283 0.00554881 0.0183309
-0.00251282 0.0484388 0.160022
0.00460973 -0.0952119 0.271587
0.0112098 -0.0673836 0.192231
0.0109366 0.00282448 -0.00805769
0.0040291 0.0713275 -0.203482
-0.00532246 0.096564 -0.275477
-0.0114455 0.0632264 -0.180372
-0.0106255 -0.00845754 0.0241274
-0.00330758 -0.0738431 0.210634
0.00292117 -0.195126 0.172104
0.00699158 -0.135945 0.119906
0.00682099 0.00569758 -0.00502536
0.00251287 0.143884 -0.126909
-0.00331951 0.194793 -0.171811
-0.00713833 0.127543 -0.112495
-0.00662713 -0.0170733 0.015059
-0.002096 -0.151333 0.133478
0 -0.122557 0
0 -0.092704 0
0 0.0038853 0
0 0.0981178 0
0 0.132833 0
0 0.086974 0
0 -0.0116427 0
0 -0.0950507 0
-0.0430369 -0.0482154 -0.183842
-0.104661 -0.0341794 -0.130132
-0.102111 0.0014327 0.00545469
-0.0376179 0.0361802 0.137748
0.0496932 0.0489813 0.186485
0.106862 0.0320712 0.122103
0.0992057 -0.0042897 -0.0163332
0.0308799 -0.0373942 -0.142582
-0.0599682 0.0553726 -0.256168
-0.145836 0.0391948 -0.181328
-0.142283 -0.00164292 0.00760058
-0.0524174 -0.041489 0.19194
0.0692435 -0.0561687 0.259852
0.148902 -0.0367768 0.170141
0.138235 0.00491944 -0.0227589
0.0430284 0.0429451 -0.198675
-0.0405236 0.125372 -0.173106
-0.0985483 0.0887441 -0.122532
-0.0961473 -0.00371982 0.00513611
-0.0354211 -0.0939379 0.129704
0.0467912 -0.127175 0.175595
0.100621 -0.0832693 0.114972
0.093412 0.0111385 -0.0153793
0.0290765 0.0972345 -0.134255
0.00350209 0.119323 0.01496
0.00851667 0.0844624 0.0105894
0.00830922 -0.00354035 -0.000443867
0.00306111 -0.0894058 -0.0112092
-0.00404377 -0.121038 -0.0151751
-0.00869576 -0.079251 -0.00993602
-0.00807283 0.010601 0.0013291
-0.00251282 0.0925427 0.0116025
0.0454035 0.0408938 0.193952
0.110417 0.0289464 0.137287
0.107726 -0.00121333 -0.00575463
0.0396863 -0.0306406 -0.145322
-0.0524261 -0.0414818 -0.196739
-0.112738 -0.0271607 -0.128818
-0.104661 0.00363313 0.0172312
-0.0325779 0.0317158 0.150422
0.0597637 -0.062341 0.255295
0.145331 -0.0441201 0.180699
0.14179 0.00184935 -0.00757426
0.0522359 0.0467022 -0.191275
-0.0690036 0.0632264 -0.258952
-0.148386 0.0413982 -0.169552
-0.137756 -0.00553767 0.02268
-0.0428817 -0.0483495 0.197998
0.0378721 -0.127761 0.16178
0.0906436 -0.0890116 0.112713
0.0884319 0.00373055 -0.00472389
0.0325786 0.0942098 -0.119295
-0.0430364 0.127543 -0.161504
-0.0925461 0.0835099 -0.105746
-0.0859186 -0.0111789 0.0141556
-0.027174 -0.0990867 0.125471
0 0.0164059 0
0 0.0124097 0
0 -0.0005201 0
0 -0.0131344 0
0 -0.0177816 0
0 -0.0116427 0
0 0.00155853 0
0 0.0127238 0
-0.0566487 0.0064543 -0.0605933
-0.137756 0.0045717 -0.0428967
-0.134399 -0.000191629 0.00179807
-0.0495129 -0.00483927 0.0454074
0.0654072 -0.00655149 0.061473
0.140652 -0.00428965 0.0402501
0.130577 0.0005738 -0.005384
0.0406466 0.00500573 -0.0469941
-0.078935 -0.00741238 -0.0844316
-0.19195 -0.00524289 -0.0597727
-0.187273 0.000219761 0.00250546
-0.0689922 0.00554969 0.0632712
0.0911391 0.00751324 0.0856576
0.195986 0.00491937 0.0560854
0.181947 -0.000658074 -0.00750213
0.0566375 -0.00574879 -0.0654823
-0.0533404 -0.0167828 -0.0570547
-0.129711 -0.0118708 -0.0403914
-0.126551 0.000497577 0.00169307
-0.0466214 0.0125654 0.0427556
0.0615873 0.0170113 0.057883
0.132438 0.0111383 0.0378997
0.122951 -0.00148999 -0.00506957
0.0382728 -0.0130162 -0.0442497
0.00460973 -0.015973 0.00493073
0.0112098 -0.011298 0.00349068
0.0109367 0.000473567 -0.000146317
0.0040291 0.0119591 -0.00369498
-0.00532246 0.0161905 -0.00500231
-0.0114455 0.0106009 -0.00327532
-0.0106255 -0.0014181 0.000438119
-0.00330758 -0.0123881 0.0038241
0.0597637 -0.00547419 0.0639253
0.145331 -0.00387201 0.0452555
0.14179 0.000162299 -0.00189694
0.0522359 0.0040986 -0.0479042
-0.0690036 0.00554874 -0.0648535
-0.148386 0.00363308 -0.0424635
-0.137756 -0.000486005 0.00568007
-0.0428817 -0.0042456 0.0495783
0.0786658 0.0083452 0.0841436
0.191286 0.00590176 0.0595657
0.186624 -0.000247378 -0.00249678
0.0687533 -0.00624712 -0.0630521
-0.090823 -0.00845743 -0.0853609
-0.195307 -0.00553759 -0.0558909
-0.181316 0.000740783 0.00747618
-0.0564443 0.00647225 0.0652589
0.0498503 0.0171025 0.0533216
0.119312 0.0119154 0.0371495
0.116401 -0.000499385 -0.00155697
0.0428825 -0.0126113 -0.039319
-0.056648 -0.0170733 -0.0532307
-0.121817 -0.0111789 -0.0348533
-0.113093 0.00149645 0.0046656
-0.0357686 0.0132641 0.0413544
0 0.145417 0
0 0.101313 0
0 -0.0042461 0
0 -0.107229 0
0 -0.145169 0
0 -0.0950507 0
0 0.0127238 0
0 0.11278 0
-0.0358981 0.0572089 0.0994106
-0.085919 0.0398578 0.0692601
-0.0838226 -0.00167047 -0.00290275
-0.0308805 -0.0421855 -0.0733048
0.0407933 -0.0571113 -0.0992411
0.0877224 -0.0373942 -0.0649791
0.0814403 0.00500573 0.00869835
0.0257576 0.0443693 0.0770995
-0.0500209 -0.0657011 0.13852
-0.119721 -0.0457744 0.0965079
-0.116799 0.00191844 -0.00404473
-0.0430293 0.0484476 -0.102144
0.0568419 0.065589 -0.138284
0.122234 0.0429451 -0.0905428
0.11348 -0.00574879 0.0121204
0.035891 -0.0509555 0.107431
-0.0338017 -0.148758 0.0936051
-0.0809014 -0.10364 0.0652153
-0.0789274 0.00434366 -0.00273323
-0.0290771 0.109693 -0.0690238
0.038411 0.148504 -0.0934455
0.0825995 0.0972345 -0.0611844
0.0766842 -0.0130162 0.00819037
0.0242534 -0.115371 0.072597
0.00292117 -0.14158 -0.00808945
0.00699158 -0.0986396 -0.00563597
0.00682098 0.00413407 0.000236208
0.00251287 0.1044 0.00596511
-0.00331951 0.141338 0.00807565
-0.00713833 0.0925428 0.00528762
-0.00662713 -0.0123881 -0.00070782
-0.002096 -0.109804 -0.0062739
0.0378721 -0.0485216 -0.104877
0.0906435 -0.0338053 -0.0730686
0.0884319 0.00141681 0.00306236
0.0325786 0.0357795 0.0773357
-0.0430364 0.0484388 0.104698
-0.0925461 0.0317158 0.0685522
-0.0859185 -0.0042456 -0.00917666
-0.027174 -0.0376317 -0.0813391
0.0498503 0.0739693 -0.138048
0.119312 0.0515349 -0.0961788
0.116401 -0.00215987 0.00403093
0.0428825 -0.0545445 0.101796
-0.056648 -0.0738431 0.137812
-0.121817 -0.0483495 0.090234
-0.113093 0.00647225 -0.0120791
-0.0357686 0.057368 -0.107065
0.03159 0.151591 -0.0874804
0.0756079 0.105615 -0.0609482
0.0737631 -0.0044264 0.00255439
0.0271745 -0.111782 0.0645075
-0.0358977 -0.151333 0.0873313
-0.0771949 -0.0990867 0.057181
-0.0716667 0.0132641 -0.00765447
-0.0226665 0.117569 -0.0678468
