# vtk DataFile Version 3.0
Velocity field
ASCII
DATASET STRUCTURED_POINTS
DIMENSIONS 8 8 8
SPACING 0.8 0.8 0.8
ORIGIN 0 0 0
POINT_DATA 512
VECTORS velocity float
0 0.19313 0
0 0.134555 0
0 -0.00563931 0
0 -0.142413 0
0 -0.192801 0
0 -0.126238 0
0 0.0168987 0
0 0.149785 0
0 0.0759799 0.197118
0 0.0529357 0.145606
0 -0.00221858 -0.00610246
0 -0.0560271 -0.154109
0 -0.0758504 -0.208635
0 -0.0496638 -0.136606
0 0.00664818 0.0182866
0 0.0589274 0.152878
0 -0.0872586 0.274667
0 -0.0607936 0.202889
0 0.00254791 -0.00850326
0 0.0643439 -0.214738
0 0.0871098 -0.290715
0 0.057036 -0.190349
0 -0.00763505 0.0254808
0 -0.0676747 0.213022
0 -0.197567 0.185606
0 -0.137646 0.137103
0 0.00576887 -0.00574609
0 0.145685 -0.145109
0 0.19723 -0.196451
0 0.129139 -0.128628
0 -0.017287 0.0172187
0 -0.153226 0.14395
0 -0.188034 -0.0160403
0 -0.131005 -0.0118486
0 0.00549051 0.000496582
0 0.138655 0.0125405
0 0.187714 0.0169775
0 0.122907 0.0111162
0 -0.0164528 -0.00148806
0 -0.145833 -0.0124403
0 -0.0644422 -0.207957
0 -0.0448973 -0.153613
0 0.00188168 0.00643803
0 0.0475193 0.162583
0 0.0643323 0.220108
0 0.0421222 0.144118
0 -0.00563864 -0.0192922
0 -0.0499792 -0.161285
0 0.0982396 -0.27373
0 0.0684442 -0.202197
0 -0.00286855 0.00847426
0 -0.0724413 0.214006
0 -0.0980721 0.289724
0 -0.0642137 0.1897
0 0.00859589 -0.0253939
0 0.0761913 -0.212296
0 0.201331 -0.173462
0 0.140268 -0.120852
0 -0.00587876 0.00506501
0 -0.14846 0.12791
0 -0.200987 0.173166
0 -0.131598 0.113382
0 0.0176163 -0.0151778
0 0.156145 -0.134531
0 0.134555 0
0 0.10178 0
0 -0.00426567 0
0 -0.107724 0
0 -0.145838 0
0 -0.0954888 0
0 0.0127825 0
0 0.104356 0
0.0420192 0.0529357 0.194699
0.102234 0.0375395 0.137937
0.0997436 -0.00157355 -0.00578188
0.036746 -0.0397373 -0.146011
-0.0485413 -0.0537971 -0.197672
-0.104384 -0.035224 -0.129428
-0.0969059 0.00471126 0.0173118
-0.0301496 0.0410551 0.151002
0.0585501 -0.0607936 0.271296
0.142455 -0.0430471 0.192202
0.138984 0.00180439 -0.00805652
0.0512021 0.0455666 -0.203453
-0.0676387 0.0616887 -0.27544
-0.145451 0.0403913 -0.180347
-0.135031 -0.00540276 0.0241225
-0.0420108 -0.0471494 0.210408
0.0395653 -0.137646 0.183329
0.0962637 -0.0974655 0.129881
0.0939192 0.00408545 -0.00544422
0.0345999 0.103171 -0.137485
-0.0457068 0.139674 -0.186129
-0.0982881 0.0914531 -0.121869
-0.0912472 -0.0122328 0.0163008
-0.0283889 -0.106754 0.142183
-0.00341927 -0.131005 -0.0158434
-0.00831928 -0.0927627 -0.0112245
-0.00811658 0.00388831 0.000470494
-0.00299015 0.0981924 0.0118816
0.00395002 0.132935 0.0160854
0.00849423 0.0870407 0.0105321
0.00788565 -0.0116425 -0.00140873
0.0024534 -0.101603 -0.0122876
-0.0443297 -0.0448973 -0.205405
-0.107857 -0.0317914 -0.145522
-0.105228 0.00133259 0.00609979
-0.0387665 0.0336522 0.15404
0.0512105 0.0455588 0.208541
0.110125 0.02983 0.136545
0.102235 -0.00399008 -0.0182638
0.0318075 -0.0348208 -0.159305
-0.0583504 0.0684442 -0.270371
-0.141961 0.0484557 -0.191536
-0.138502 -0.0020311 0.00802859
-0.0510246 -0.0512921 0.202747
0.0674041 -0.0694398 0.274484
0.144946 -0.0454664 0.179721
0.134563 0.00608167 -0.024039
0.0418676 0.053083 -0.20969
-0.0369765 0.140268 -0.171333
-0.0885 0.0977259 -0.119369
-0.0863406 -0.00409577 0.00500285
-0.0318081 -0.103433 0.12634
0.0420187 -0.140029 0.171041
0.0903576 -0.0916855 0.111991
0.0838867 0.0122734 -0.0149915
0.0265314 0.108787 -0.13288
0 -0.00563931 0
0 -0.00426567 0
0 0.000178778 0
0 0.00451478 0
0 0.00611218 0
0 0.00400201 0
0 -0.000535724 0
0 -0.00437365 0
0.0585501 -0.00221858 0.0741781
0.142455 -0.00157355 0.0525317
0.138984 6.59591e-05 -0.00220196
0.0512021 0.00166568 -0.055607
-0.0676387 0.00225502 -0.075281
-0.145451 0.00147651 -0.049291
-0.135031 -0.00019748 0.0065931
-0.0420108 -0.00172065 0.05753
0.0815844 0.00254791 0.103361
0.198498 0.00180439 0.0731984
0.193662 -7.56338e-05 -0.00306823
0.071346 -0.00191 -0.077483
-0.0942487 -0.00258579 -0.104898
-0.202672 -0.00169308 -0.0686834
-0.188154 0.000226464 0.00918694
-0.0585385 0.00197607 0.0801631
0.0551308 0.00576887 0.0698462
0.134136 0.00408545 0.0494637
0.130868 -0.000171249 -0.00207338
0.0482118 -0.00432459 -0.0523592
-0.0636884 -0.00585472 -0.0708847
-0.136957 -0.0038334 -0.0464127
-0.127145 0.000512754 0.00620807
-0.0395574 0.00447414 0.0541703
-0.00476446 0.00549051 -0.00603618
-0.0115922 0.00388831 -0.00427474
-0.0113097 -0.000162985 0.000179182
-0.00416655 -0.00411594 0.00452494
0.00550403 -0.00557222 0.00612591
0.011836 -0.00364846 0.00401102
0.010988 0.000488011 -0.00053651
0.00341859 0.00425825 -0.00468145
-0.0617696 0.00188168 -0.0782571
-0.150288 0.00133259 -0.0554204
-0.146627 -5.5858e-05 0.00232304
-0.0540179 -0.0014106 0.058664
0.0713578 -0.00190967 0.0794208
0.153449 -0.00125038 0.0520014
0.142456 0.000167249 -0.00695568
0.044321 0.00145937 -0.0606935
-0.0813062 -0.00286855 -0.103008
-0.19781 -0.0020311 -0.0729446
-0.19299 8.51373e-05 0.00305759
-0.0710986 0.00215 0.0772145
0.0939216 0.0029107 0.104534
0.201969 0.0019058 0.068445
0.187501 -0.000254921 -0.00915512
0.0583388 -0.00222475 -0.0798897
-0.0515235 -0.00587876 -0.065276
-0.123317 -0.00409577 -0.0454783
-0.120308 0.000171657 0.00190603
-0.0443219 0.00433496 0.0481342
0.0585494 0.00586874 0.0651647
0.125905 0.00384261 0.0426673
0.116889 -0.000514387 -0.0057116
0.0369692 -0.00455937 -0.0506259
0 -0.142413 0
0 -0.107724 0
0 0.00451478 0
0 0.114015 0
0 0.154355 0
0 0.101065 0
0 -0.013529 0
0 -0.110451 0
0.0395653 -0.0560271 -0.0913382
0.0962637 -0.0397373 -0.064684
0.0939192 0.00166568 0.00271134
0.0345999 0.0420638 0.0684705
-0.0457068 0.0569468 0.0926962
-0.0982881 0.0372863 0.0606934
-0.0912472 -0.00498703 -0.00811831
-0.0283889 -0.0434527 -0.0708388
0.0551308 0.0643439 -0.127272
0.134136 0.0455666 -0.0901314
0.130868 -0.00191 0.003778
0.0482118 -0.0482337 0.0954077
-0.0636884 -0.0653 0.129164
-0.136957 -0.0427558 0.0845712
-0.127145 0.00571896 -0.0113121
-0.0395574 0.0499029 -0.0987077
0.0372547 0.145685 -0.0860041
0.0906425 0.103171 -0.0609062
0.0884344 -0.00432459 0.00255299
0.0325795 -0.109211 0.0644716
-0.0430376 -0.147851 0.0872828
-0.0925488 -0.0968061 0.0571494
-0.0859185 0.0129487 -0.00764417
-0.026731 0.112988 -0.0667019
-0.00321959 0.138655 0.00743256
-0.0078334 0.0981924 0.00526359
-0.00764253 -0.00411594 -0.000220633
-0.00281556 -0.10394 -0.00557172
0.00371933 -0.140716 -0.00754301
0.00799813 -0.0921357 -0.00493889
0.00742511 0.0123239 0.000660618
0.00231012 0.107536 0.00576444
-0.0417409 0.0475193 0.0963608
-0.101557 0.0336522 0.0682409
-0.099083 -0.0014106 -0.00286043
-0.0365027 -0.035622 -0.0722352
0.0482198 -0.0482254 -0.0977927
0.103693 -0.0315762 -0.0640311
0.096264 0.00422361 0.00856474
0.0299499 0.0368543 0.0747341
-0.0549428 -0.0724413 0.126838
-0.133671 -0.0512921 0.0898191
-0.130415 0.00215 -0.0037649
-0.0480447 0.0542944 -0.0950766
0.0634676 0.0735046 -0.128716
0.136482 0.0481276 -0.084278
0.126704 -0.0064376 0.011273
0.0394225 -0.056183 0.0983711
-0.0348171 -0.14846 0.0803768
-0.0833317 -0.103433 0.055999
-0.0812984 0.00433496 -0.00234697
-0.0299506 0.109473 -0.0592693
0.0395648 0.148207 -0.0802397
0.0850807 0.0970399 -0.0525378
0.0789878 -0.0129901 0.0070329
0.024982 -0.11514 0.0623375
0 -0.192801 0
0 -0.145838 0
0 0.00611218 0
0 0.154355 0
0 0.208968 0
0 0.136824 0
0 -0.0183157 0
0 -0.14953 0
-0.00341927 -0.0758504 -0.20145
-0.00831928 -0.0537971 -0.142663
-0.00811658 0.00225502 0.00597995
-0.00299015 0.0569468 0.151013
0.00395002 0.0770952 0.204443
0.00849423 0.0504787 0.133862
0.00788565 -0.00675153 -0.0179052
0.0024534 -0.0588269 -0.156238
-0.00476446 0.0871098 -0.280703
-0.0115922 0.0616887 -0.198787
-0.0113097 -0.00258579 0.00833257
-0.00416655 -0.0653 0.210424
0.00550403 -0.0884042 0.284875
0.011836 -0.0578837 0.186526
0.010988 0.00774239 -0.0249493
0.00341859 0.0675593 -0.217704
-0.00321959 0.19723 -0.189685
-0.0078334 0.139674 -0.134331
-0.00764253 -0.00585472 0.00563076
-0.00281556 -0.147851 0.142194
0.00371933 -0.200162 0.192504
0.00799813 -0.131059 0.126044
0.00742511 0.0175301 -0.0168596
0.00231012 0.152965 -0.147114
0.00027824 0.187714 0.0163928
0.000676973 0.132935 0.0116091
0.000660477 -0.00557222 -0.000486612
0.000243321 -0.140716 -0.0122885
-0.000321429 -0.190505 -0.0166365
-0.000691209 -0.124734 -0.0108929
-0.000641687 0.0166843 0.00145702
-0.000199643 0.145584 0.0127137
0.00360729 0.0643323 0.212527
0.0087767 0.0455588 0.150507
0.00856293 -0.00190967 -0.00630875
0.00315458 -0.0482254 -0.159317
-0.00416724 -0.0652888 -0.215687
-0.00896127 -0.0427484 -0.141223
-0.00831931 0.00571798 0.0188898
-0.0025883 0.0498939 0.164829
0.00474821 -0.0980721 0.279746
0.011552 -0.0694398 0.198098
0.0112705 0.0029107 -0.0083037
0.00415211 0.0735046 -0.209695
-0.00548495 0.0995113 -0.283888
-0.0117949 0.0651562 -0.185879
-0.0109499 -0.0087153 0.0248629
-0.00340693 -0.0760613 0.216961
0.00300893 -0.200987 0.177274
0.0072016 -0.140029 0.123508
0.00702589 0.00586874 -0.00517632
0.00258836 0.148207 -0.130721
-0.00341923 0.200644 -0.176972
-0.00735276 0.131374 -0.115874
-0.00682621 -0.0175862 0.0155113
-0.00215897 -0.155879 0.137488
0 -0.126238 0
0 -0.0954888 0
0 0.00400201 0
0 0.101065 0
0 0.136824 0
0 0.0895866 0
0 -0.0119924 0
0 -0.097906 0
-0.0443297 -0.0496638 -0.189365
-0.107857 -0.035224 -0.134104
-0.105228 0.00147651 0.00562125
-0.0387665 0.0372863 0.141954
0.0512105 0.0504787 0.192179
0.110125 0.0330517 0.125831
0.102235 -0.00442063 -0.0168311
0.0318075 -0.0385175 -0.146865
-0.0617696 0.057036 -0.263864
-0.150288 0.0403913 -0.186863
-0.146627 -0.00169308 0.00783266
-0.0540179 -0.0427558 0.1978
0.0713578 -0.0578837 0.267787
0.153449 -0.0378997 0.175336
0.142456 0.00506941 -0.0234527
0.044321 0.0442352 -0.204644
-0.0417409 0.129139 -0.178306
-0.101557 0.0914531 -0.126273
-0.099083 -0.00383341 0.00529294
-0.0365027 -0.0968061 0.133665
0.0482198 -0.131059 0.180957
0.103693 -0.0858118 0.118483
0.096264 0.0114781 -0.0158481
0.0299499 0.100155 -0.138288
0.00360729 0.122907 0.0154094
0.0087767 0.0870407 0.0109126
0.00856293 -0.00364846 -0.00045742
0.00315458 -0.0921357 -0.0115514
-0.00416724 -0.124734 -0.0156384
-0.00896127 -0.0816708 -0.0102394
-0.00831931 0.0109242 0.00136962
-0.0025883 0.0953227 0.011951
0.0467674 0.0421222 0.199778
0.113788 0.02983 0.141478
0.111015 -0.00125038 -0.00593035
0.0408981 -0.0315762 -0.149759
-0.0540269 -0.0427484 -0.202746
-0.116181 -0.02799 -0.132752
-0.107857 0.00374389 0.0177566
-0.0335565 0.0326685 0.154941
0.061559 -0.0642137 0.262964
0.149767 -0.0454664 0.186215
0.146118 0.0019058 -0.00780551
0.0538306 0.0481276 -0.197115
-0.0711104 0.0651562 -0.266858
-0.152917 0.0426618 -0.174728
-0.141962 -0.00570644 0.0233714
-0.0441698 -0.0498019 0.203946
0.0390098 -0.131598 0.166639
0.0933665 -0.0916855 0.116099
0.0910883 0.00384261 -0.00486579
0.0335572 0.0970399 -0.122879
-0.0443292 0.131374 -0.166355
-0.0953262 0.0860185 -0.108923
-0.0884995 -0.0115148 0.0145808
-0.0279903 -0.102063 0.12924
0 0.0168987 0
0 0.0127825 0
0 -0.000535724 0
0 -0.013529 0
0 -0.0183157 0
0 -0.0119924 0
0 0.00160535 0
0 0.0131061 0
-0.0583504 0.00664818 -0.0624136
-0.141961 0.0047112 -0.0442065
-0.138502 -0.000197478 0.00185299
-0.0510246 -0.00498697 0.0467943
0.0674041 -0.00675144 0.0633505
0.144946 -0.00442057 0.0414794
0.134563 0.000591288 -0.00554819
0.0418676 0.0051561 -0.0484058
-0.0813062 -0.00763505 -0.0869679
-0.19781 -0.00540269 -0.0615978
-0.19299 0.000226461 0.00258198
-0.0710986 0.00571888 0.0652037
0.0939216 0.00774229 0.0882738
0.201969 0.00506934 0.0577983
0.187501 -0.000678109 -0.00773091
0.0583388 -0.00592148 -0.0674493
-0.0549428 -0.017287 -0.0587687
-0.133671 -0.0122326 -0.0416248
-0.130415 0.000512747 0.00174479
-0.0480447 0.0129485 0.0440615
0.0634676 0.0175299 0.0596509
0.136482 0.0114779 0.0390572
0.126704 -0.00153536 -0.00522416
0.0394225 -0.0134072 -0.045579
0.00474821 -0.0164528 0.00507885
0.011552 -0.0116424 0.00359726
0.0112706 0.000488004 -0.000150786
0.00415211 0.0123237 -0.00380783
-0.00548495 0.0166841 -0.00515509
-0.0117949 0.0109241 -0.00337536
-0.0109499 -0.00146127 0.000451479
-0.00340693 -0.0127603 0.00393898
0.061559 -0.00563864 0.0658456
0.149767 -0.00399003 0.0466373
0.146118 0.000167247 -0.00195488
0.0538306 0.00422355 -0.0493672
-0.0711104 0.0057179 -0.0668343
-0.152917 0.00374384 -0.0437605
-0.141962 -0.000500801 0.00585328
-0.0441698 -0.00437313 0.0510676
0.0810289 0.00859589 0.0866713
0.197124 0.00608159 0.0613844
0.192321 -0.000254918 -0.00257303
0.0708521 -0.00643752 -0.0649776
-0.0935955 -0.00871518 -0.0879677
-0.201269 -0.00570636 -0.0575977
-0.18685 0.00076333 0.00770415
-0.0581399 0.00666667 0.0672193
0.0513478 0.0176163 0.0549234
0.122896 0.0122734 0.0382655
0.119898 -0.000514387 -0.00160374
0.0441707 -0.0129901 -0.0405001
-0.0583497 -0.0175862 -0.0548297
-0.125476 -0.0115148 -0.0359003
-0.11649 0.00154141 0.00480575
-0.0368431 0.0136626 0.0425967
0 0.149785 0
0 0.104356 0
0 -0.00437365 0
0 -0.110451 0
0 -0.14953 0
0 -0.097906 0
0 0.0131061 0
0 0.116168 0
-0.0369765 0.0589274 0.102397
-0.0885 0.0410551 0.0713406
-0.0863406 -0.00172065 -0.00298994
-0.0318081 -0.0434527 -0.0755069
0.0420187 -0.0588269 -0.102222
0.0903575 -0.0385175 -0.0669311
0.0838867 0.0051561 0.00895965
0.0265314 0.0457021 0.0794156
-0.0515235 -0.0676747 0.142681
-0.123317 -0.0471494 0.099407
-0.120308 0.00197607 -0.00416623
-0.0443219 0.0499029 -0.105212
0.0585494 0.0675593 -0.142438
0.125905 0.0442352 -0.0932627
0.116889 -0.00592148 0.0124845
0.0369692 -0.0524862 0.110659
-0.0348171 -0.153226 0.096417
-0.0833316 -0.106754 0.0671744
-0.0812984 0.00447414 -0.00281533
-0.0299506 0.112988 -0.0710973
0.0395648 0.152965 -0.0962526
0.0850807 0.100155 -0.0630224
0.0789878 -0.0134072 0.00843641
0.024982 -0.118837 0.0747778
0.00300893 -0.145833 -0.00833246
0.0072016 -0.101603 -0.00580528
0.00702588 0.00425825 0.000243304
0.00258836 0.107536 0.0061443
-0.00341923 0.145584 0.00831825
-0.00735276 0.0953227 0.00544646
-0.0068262 -0.0127603 -0.000729083
-0.00215897 -0.113103 -0.00646237
0.0390098 -0.0499792 -0.108028
0.0933665 -0.0348208 -0.0752635
0.0910883 0.00145937 0.00315436
0.0335572 0.0368543 0.0796589
-0.0443292 0.0498939 0.107843
-0.0953262 0.0326685 0.0706115
-0.0884995 -0.00437313 -0.00945232
-0.0279903 -0.0387621 -0.0837825
0.0513478 0.0761913 -0.142195
0.122896 0.053083 -0.099068
0.119898 -0.00222475 0.00415202
0.0441707 -0.056183 0.104853
-0.0583497 -0.0760614 0.141952
-0.125476 -0.0498019 0.0929446
-0.11649 0.00666667 -0.0124419
-0.0368431 0.0590913 -0.110281
0.032539 0.156145 -0.0901083
0.0778792 0.108787 -0.0627791
0.0759789 -0.00455937 0.00263112
0.0279909 -0.11514 0.0664453
-0.0369761 -0.155879 0.0899547
-0.0795138 -0.102063 0.0588987
-0.0738195 0.0136626 -0.0078844
-0.0233474 0.121101 -0.0698849
