# vtk DataFile Version 3.0
Velocity field
ASCII
DATASET STRUCTURED_POINTS
DIMENSIONS 10 10 10
SPACING 0.631579 0.631579 0.631579
ORIGIN 0 0 0
POINT_DATA 1000
VECTORS velocity float
0 0.0882739 0
0 0.0712456 0
0 0.0267301 0
0 -0.028098 0
0 -0.0720857 0
0 -0.0882622 0
0 -0.0703865 0
0 -0.0253552 0
0 0.0294584 0
0 0.0729067 0
0 0.0542172 0.0691471
0 0.0437585 0.0579966
0 0.0164174 0.0217593
0 -0.0172576 -0.0228728
0 -0.0442745 -0.0586805
0 -0.05421 -0.0718487
0 -0.0432309 -0.0572973
0 -0.0155729 -0.0206401
0 0.0180931 0.0239802
0 0.0447787 0.0571095
0 -0.000756941 0.111617
0 -0.000610924 0.0936176
0 -0.000229208 0.0351237
0 0.000240938 -0.0369211
0 0.000618128 -0.0947216
0 0.00075684 -0.115978
0 0.000603558 -0.0924888
0 0.000217418 -0.033317
0 -0.000252603 0.0387087
0 -0.000625168 0.0921858
0 -0.055439 0.111024
0 -0.0447446 0.0931203
0 -0.0167874 0.0349372
0 0.0176465 -0.036725
0 0.0452723 -0.0942184
0 0.0554317 -0.115362
0 0.0442051 -0.0919975
0 0.0159239 -0.03314
0 -0.0185009 0.0385031
0 -0.0457879 0.091696
0 -0.0887323 0.067597
0 -0.0716155 0.0566965
0 -0.0268689 0.0212716
0 0.0282439 -0.0223601
0 0.07246 -0.0573651
0 0.0887206 -0.0702382
0 0.070752 -0.0560129
0 0.0254868 -0.0201774
0 -0.0296114 0.0234427
0 -0.0732853 0.0558293
0 -0.0877921 -0.00190912
0 -0.0708566 -0.00160126
0 -0.0265842 -0.000600766
0 0.0279446 0.000631509
0 0.0716922 0.00162014
0 0.0877804 0.00198372
0 0.0700023 0.00158195
0 0.0252167 0.000569864
0 -0.0292976 -0.000662084
0 -0.0725087 -0.00157677
0 -0.052981 -0.0706787
0 -0.0427607 -0.0592812
0 -0.0160431 -0.0222413
0 0.0168641 0.0233795
0 0.043265 0.0599803
0 0.0529739 0.0734402
0 0.0422451 0.0585664
0 0.0152179 0.0210972
0 -0.0176806 -0.0245114
0 -0.0437577 -0.0583745
0 0.00227064 -0.11218
0 0.00183263 -0.0940901
0 0.000687571 -0.035301
0 -0.000722756 0.0371075
0 -0.00185424 0.0951996
0 -0.00227034 0.116563
0 -0.00181053 0.0929556
0 -0.000652203 0.0334852
0 0.000757749 -0.0389041
0 0.00187536 -0.092651
0 0.0566461 -0.110401
0 0.0457189 -0.0925982
0 0.017153 -0.0347413
0 -0.0180307 0.0365191
0 -0.046258 0.0936902
0 -0.0566386 0.114715
0 -0.0451676 0.0914817
0 -0.0162706 0.0329542
0 0.0189037 -0.0382872
0 0.0467848 -0.091182
0 0.0891672 -0.066029
0 0.0719665 -0.0532918
0 0.0270006 -0.0199942
0 -0.0283823 0.0210173
0 -0.0728151 0.0539202
0 -0.0891553 0.0660202
0 -0.0710987 0.0526492
0 -0.0256117 0.0189657
0 0.0297565 -0.0220349
0 0.0736444 -0.0545343
0 0.0712456 0
0 0.0604933 0
0 0.0226961 0
0 -0.0238575 0
0 -0.0612066 0
0 -0.0749418 0
0 -0.0597639 0
0 -0.0215286 0
0 0.0250126 0
0 0.0588427 0
0.0100539 0.0437585 0.0765263
0.0264726 0.0355859 0.0622196
0.0326057 0.0133517 0.0233445
0.026159 -0.0140349 -0.0245392
0.00961999 -0.0360069 -0.0629555
-0.0106305 -0.044087 -0.0770833
-0.0267796 -0.035158 -0.0614715
-0.032597 -0.0126649 -0.0221438
-0.025838 0.0147134 0.0257255
-0.00904543 0.0361407 0.0632042
0.0162289 -0.000610924 0.123528
0.0427317 -0.000496542 0.100434
0.0526319 -0.0001863 0.0376826
0.0422255 0.000195834 -0.039611
0.0155285 0.000502414 -0.101622
-0.0171596 0.000615158 -0.124427
-0.0432275 0.000490571 -0.0992268
-0.0526179 0.000176717 -0.0357443
-0.0417073 -0.000205302 0.0415259
-0.0146011 -0.00050457 0.102024
0.0161427 -0.0447446 0.122872
0.0425047 -0.0363718 0.0999009
0.0523523 -0.0136465 0.0374825
0.0420012 0.0143449 -0.0394005
0.015446 0.036802 -0.101083
-0.0170684 0.0450605 -0.123766
-0.0429978 0.0359345 -0.0986998
-0.0523384 0.0129446 -0.0355544
-0.0414857 -0.0150384 0.0413053
-0.0145235 -0.0369552 0.101482
0.00982851 -0.0716155 0.0748109
0.0258792 -0.0582146 0.0608247
0.0318747 -0.0218419 0.0228213
0.0255726 0.0229596 -0.0239891
0.00940432 0.0589031 -0.0615442
-0.0103922 0.0721213 -0.0753552
-0.0261793 0.0575146 -0.0600937
-0.0318662 0.0207183 -0.0216474
-0.0252588 -0.0240695 0.0251488
-0.00884266 -0.0591482 0.0617874
-0.000277583 -0.0708566 -0.00211286
-0.000730893 -0.0575977 -0.00171786
-0.000900229 -0.0216104 -0.000644532
-0.00072224 0.0227163 0.000677516
-0.000265603 0.0582789 0.00173817
0.000293503 0.071357 0.00212823
0.000739372 0.056905 0.0016972
0.000899989 0.0204988 0.000611381
0.000713376 -0.0238145 -0.00071027
0.00024974 -0.0585215 -0.00174504
-0.0102766 -0.0427607 -0.0782214
-0.0270588 -0.0347591 -0.0635979
-0.0333279 -0.0130415 -0.0238617
-0.0267384 0.0137088 0.0250827
-0.00983304 0.0351702 0.0643501
0.010866 0.0430627 0.0787906
0.0273727 0.0343411 0.0628332
0.033319 0.0123706 0.0226343
0.0264103 -0.0143716 -0.0262953
0.00924579 -0.0353167 -0.0646042
-0.0163108 0.00183263 -0.124152
-0.0429474 0.00148969 -0.100941
-0.0528975 0.000558927 -0.0378728
-0.0424387 -0.000587528 0.0398109
-0.0156068 -0.00150731 0.102135
0.0172462 -0.00184556 0.125055
0.0434456 -0.00147178 0.0997276
0.0528835 -0.000530175 0.0359247
0.0419178 0.000615932 -0.0417355
0.0146747 0.00151359 -0.102539
-0.0160522 0.0457189 -0.122183
-0.0422657 0.0371621 -0.0993392
-0.0520579 0.0139431 -0.0372717
-0.0417651 -0.0146566 0.039179
-0.0153591 -0.0376016 0.100514
0.0169725 -0.0460396 0.12307
0.042756 -0.0367153 0.0981448
0.0520441 -0.0132258 0.0353545
0.0412524 0.0153652 -0.0410731
0.0144421 0.0377598 -0.100913
-0.00960053 0.0719665 -0.0730756
-0.0250976 0.0580839 -0.058979
-0.0309119 0.0217921 -0.0221279
-0.0248001 -0.0229073 0.0232603
-0.00912025 -0.0587688 0.0596745
0.0100783 -0.0719569 0.0730658
0.0253885 -0.0573835 0.0582679
0.0309037 -0.0206711 0.0209897
0.024496 0.0240163 -0.0243865
0.00863755 0.0594381 -0.0603541
0 0.0267301 0
0 0.0226961 0
0 0.00851518 0
0 -0.00895092 0
0 -0.0229637 0
0 -0.0281169 0
0 -0.0224224 0
0 -0.00807717 0
0 0.00938429 0
0 0.0220768 0
0.0162289 0.0164174 0.0543812
0.0427317 0.0133517 0.0442068
0.0526319 0.00500951 0.0165862
0.0422255 -0.00526586 -0.0174349
0.0155285 -0.0135096 -0.0447296
-0.0171596 -0.0165413 -0.054767
-0.0432275 -0.0131912 -0.0436753
-0.0526179 -0.00475183 -0.015733
-0.0417073 0.00552042 0.0182778
-0.0146011 0.0135594 0.0449142
0.0261966 -0.000229208 0.0877817
0.0689771 -0.0001863 0.0713582
0.0849577 -6.9899e-05 0.0267733
0.06816 7.3476e-05 -0.0281433
0.025066 0.000188503 -0.0722022
-0.0276989 0.000230805 -0.0884049
-0.0697773 0.00018406 -0.0705
-0.0849351 6.63035e-05 -0.0253961
-0.0673238 -7.70283e-05 0.029504
-0.0235689 -0.000189306 0.0725002
0.0260574 -0.0167874 0.0873154
0.0686107 -0.0136465 0.070979
0.0845064 -0.00512013 0.0266311
0.0677982 0.00538215 -0.0279938
0.0249328 0.0138079 -0.0718186
-0.0275518 0.0169066 -0.0879353
-0.0694066 0.0134824 -0.0701255
-0.0844839 0.00485676 -0.0252612
-0.0669662 -0.00564235 0.0293473
-0.0234437 -0.013865 0.072115
0.0158651 -0.0268689 0.0531622
0.0417738 -0.0218419 0.0432158
0.0514521 -0.00819498 0.0162144
0.0412789 0.00861431 -0.0170441
0.0151804 0.0221002 -0.043727
-0.016775 0.0270595 -0.0535394
-0.0422584 0.0215792 -0.0426961
-0.0514384 0.00777342 -0.0153803
-0.0407725 -0.00903079 0.0178681
-0.0142738 -0.0221914 0.0439074
-0.000448073 -0.0265842 -0.00150144
-0.0011798 -0.0216104 -0.00122053
-0.00145314 -0.00810813 -0.000457938
-0.00116584 0.00852301 0.00048137
-0.000428734 0.021866 0.00123496
0.000473771 0.0267728 0.00151209
0.00119349 0.0213505 0.00120585
0.00145275 0.00769104 0.00043438
0.00115153 -0.0089351 -0.000504643
0.000403129 -0.0219563 -0.00124006
-0.0165884 -0.0160431 -0.0555858
-0.0436784 -0.0130415 -0.0451859
-0.0537974 -0.00489312 -0.0169536
-0.043161 0.0051435 0.0178211
-0.0158725 0.0131958 0.0457204
0.0175397 0.0161569 0.0559802
0.0441851 0.0128847 0.0446428
0.0537831 0.00464143 0.0160815
0.0426312 -0.00539217 -0.0186827
0.0149245 -0.0132502 -0.0459091
-0.0263288 0.000687571 -0.0882247
-0.0693253 0.000558927 -0.0717183
-0.0853865 0.000209706 -0.0269083
-0.0685041 -0.000220438 0.0282853
-0.0251925 -0.000565537 0.0725666
0.0278386 -0.000692449 0.0888511
0.0701294 -0.000552205 0.0708558
0.0853638 -0.00019892 0.0255243
0.0676635 0.000231096 -0.0296529
0.0236879 0.000567874 -0.072866
-0.0259113 0.017153 -0.0868259
-0.0682249 0.0139431 -0.07058
-0.0840312 0.00523137 -0.0264813
-0.067417 -0.00549909 0.0278364
-0.0247926 -0.014108 0.0714147
0.0273968 -0.0172739 0.0874409
0.0690163 -0.0137754 0.0697312
0.0840089 -0.00496228 0.0251192
0.0665897 0.00576495 -0.0291822
0.0233123 0.0141669 -0.0717107
-0.0154971 0.0270006 -0.051929
-0.0405124 0.0217921 -0.0419117
-0.0498977 0.00817602 -0.0157246
-0.0400321 -0.00859442 0.0165292
-0.0147218 -0.0220491 0.0424059
0.0162682 -0.026997 0.0519221
0.0409819 -0.0215293 0.0414063
0.0498845 -0.00775546 0.0149157
0.0395412 0.00901053 -0.0173295
0.0139427 0.0223002 -0.0428889
0 -0.028098 0
0 -0.0238575 0
0 -0.00895092 0
0 0.00940897 0
0 0.0241388 0
0 0.0295557 0
0 0.0235698 0
0 0.0084905 0
0 -0.00986452 0
0 -0.0232065 0
0.0161427 -0.0172576 0.0112554
0.0425047 -0.0140349 0.00914956
0.0523523 -0.00526586 0.00343287
0.0420012 0.00553535 -0.00360855
0.015446 0.0142009 -0.00925778
-0.0170684 0.0173877 -0.0113353
-0.0429978 0.0138662 -0.00903955
-0.0523384 0.00499499 -0.00325629
-0.0414857 -0.00580292 0.00378301
-0.0145235 -0.0142533 0.00929599
0.0260574 0.000240938 0.0181684
0.0686107 0.000195834 0.0147691
0.0845064 7.3476e-05 0.00554133
0.0677982 -7.7236e-05 -0.00582486
0.0249328 -0.00019815 -0.0149438
-0.0275518 -0.000242616 -0.0182973
-0.0694066 -0.000193479 -0.0145916
-0.0844839 -6.96965e-05 -0.00525627
-0.0669662 8.09701e-05 0.00610649
-0.0234437 0.000198994 0.0150055
0.025919 0.0176465 0.0180719
0.0682462 0.0143449 0.0146907
0.0840575 0.00538215 0.00551189
0.0674382 -0.00565758 -0.00579395
0.0248004 -0.0145146 -0.0148644
-0.0274054 -0.0177717 -0.0182001
-0.0690379 -0.0141724 -0.0145141
-0.0840351 -0.0051053 -0.00522835
-0.0666105 0.00593108 0.00607404
-0.0233192 0.0145745 0.0149258
0.0157808 0.0282439 0.0110031
0.0415518 0.0229596 0.00894445
0.0511788 0.00861431 0.00335591
0.0410598 -0.00905517 -0.00352765
0.0150998 -0.0232311 -0.00905024
-0.0166859 -0.0284443 -0.0110812
-0.0420339 -0.0226835 -0.00883689
-0.0511652 -0.00817123 -0.0031833
-0.0405559 0.00949293 0.0036982
-0.0141979 0.023327 0.0090876
-0.000445693 0.0279446 -0.000310757
-0.00117354 0.0227163 -0.000252615
-0.00144542 0.00852301 -9.47798e-05
-0.00115964 -0.0089592 9.96306e-05
-0.000426457 -0.022985 0.000255603
0.000471255 -0.0281428 0.000312961
0.00118715 -0.0224431 0.000249578
0.00144504 -0.00808463 8.9905e-05
0.00114541 0.00939233 -0.000104447
0.000400988 0.0230798 -0.000256658
-0.0165003 0.0168641 -0.0115047
-0.0434463 0.0137088 -0.00935224
-0.0535118 0.0051435 -0.00350891
-0.0429317 -0.00540672 0.00368849
-0.0157881 -0.013871 0.00946282
0.0174465 -0.0169837 0.0115864
0.0439503 -0.013544 0.00923979
0.0534976 -0.00487894 0.00332843
0.0424047 0.00566811 -0.00386679
0.0148452 0.0139283 -0.0095019
-0.0261889 -0.000722756 -0.0182601
-0.068957 -0.000587528 -0.0148437
-0.0849329 -0.000220438 -0.0055693
-0.0681401 0.000231719 0.00585426
-0.0250587 0.000594477 0.0150193
0.0276908 0.00072788 0.0183897
0.0697569 0.000580466 0.0146652
0.0849103 0.000209099 0.0052828
0.0673041 -0.000242921 -0.0061373
0.023562 -0.000596934 -0.0150812
-0.0257737 -0.0180307 -0.0179705
-0.0678625 -0.0146566 -0.0146081
-0.0835848 -0.00549909 -0.0054809
-0.0670588 0.00578051 0.00576137
-0.0246609 0.0148299 0.0147809
0.0272513 0.0181579 0.0180978
0.0686497 0.0144804 0.0144325
0.0835626 0.00521622 0.00519895
0.0662359 -0.00605996 -0.0060399
0.0231885 -0.0148918 -0.0148421
-0.0154148 -0.0283823 -0.0107479
-0.0402972 -0.0229073 -0.00867456
-0.0496327 -0.00859442 -0.00325455
-0.0398195 0.00903422 0.00342109
-0.0146436 0.0231774 0.00877685
0.0161818 0.0283785 0.0107464
0.0407642 0.0226311 0.00856996
0.0496195 0.00815233 0.00308714
0.0393312 -0.00947162 -0.00358673
0.0138686 -0.0234414 -0.00887681
0 -0.0720857 0
0 -0.0612066 0
0 -0.0229637 0
0 0.0241388 0
0 0.0619284 0
0 0.0758255 0
0 0.0604686 0
0 0.0217825 0
0 -0.0253075 0
0 -0.0595365 0
0.00982851 -0.0442745 -0.0362128
0.0258792 -0.0360069 -0.0294376
0.0318747 -0.0135096 -0.0110449
0.0255726 0.0142009 0.01161
0.00940432 0.0364328 0.0297857
-0.0103922 0.0446086 0.0364699
-0.0261793 0.0355739 0.0290836
-0.0318662 0.0128147 0.0104767
-0.0252588 -0.0148875 -0.0121713
-0.00884266 -0.0365669 -0.0299087
0.0158651 0.000618128 -0.0584545
0.0417738 0.000502414 -0.0475177
0.0514521 0.000188503 -0.0178285
0.0412789 -0.00019815 0.0187409
0.0151804 -0.000508356 0.0480798
-0.016775 -0.000622434 0.0588694
-0.0422584 -0.000496373 0.0469464
-0.0514384 -0.000178807 0.0169115
-0.0407725 0.00020773 -0.0196468
-0.0142738 0.00051052 -0.0482784
0.0157808 0.0452723 -0.058144
0.0415518 0.036802 -0.0472653
0.0511788 0.0138079 -0.0177338
0.0410598 -0.0145146 0.0186413
0.0150998 -0.0372374 0.0478244
-0.0166859 -0.0455936 0.0585567
-0.0420339 -0.0363595 0.046697
-0.0511652 -0.0130977 0.0168216
-0.0405559 0.0152162 -0.0195425
-0.0141979 0.037391 -0.0480219
0.00960819 0.07246 -0.0354011
0.025299 0.0589031 -0.0287777
0.0311602 0.0221002 -0.0107973
0.0249993 -0.0232311 0.0113498
0.00919354 -0.0595998 0.0291181
-0.0101592 -0.0729743 0.0356522
-0.0255925 -0.0581949 0.0284316
-0.0311519 -0.0209633 0.0102419
-0.0246925 0.0243542 -0.0118985
-0.00864444 0.0598457 -0.0292382
-0.000271361 0.0716922 0.000999821
-0.000714513 0.0582789 0.000812757
-0.000880047 0.021866 0.000304944
-0.000706049 -0.022985 -0.000320548
-0.00025965 -0.0589682 -0.000822371
0.000286924 -0.072201 -0.00100691
0.000722801 -0.0575781 -0.000802987
0.000879813 -0.0207412 -0.000289258
0.000697385 0.0240961 0.000336045
0.000244142 0.0592115 0.000825766
-0.0100462 0.043265 0.037015
-0.0264524 0.0351702 0.0300896
-0.0325808 0.0131958 0.0112895
-0.0261391 -0.013871 -0.0118672
-0.00961266 -0.0355862 -0.0304453
0.0106224 -0.043572 -0.0372777
0.0267592 -0.0347473 -0.0297279
0.0325722 -0.012517 -0.0107088
0.0258183 0.0145416 0.0124409
0.00903853 0.0357331 0.0305712
-0.0159452 -0.00185424 0.0587495
-0.0419846 -0.00150731 0.0477575
-0.0517118 -0.000565537 0.0179185
-0.0414873 0.000594477 -0.0188354
-0.015257 0.00152513 -0.0483223
0.0168597 0.00186739 -0.0591665
0.0424716 0.00148919 -0.0471833
0.051698 0.000536445 -0.0169967
0.0409782 -0.000623216 0.019746
0.0143458 -0.00153144 0.048522
-0.0156924 -0.046258 0.057818
-0.0413182 -0.0376016 0.0469996
-0.050891 -0.014108 0.0176341
-0.0408289 0.0148299 -0.0185365
-0.0150149 0.0380463 -0.0475555
0.0165921 0.0465841 -0.0582274
0.0417975 0.0371496 -0.0464345
0.0508774 0.0133823 -0.016727
0.0403278 -0.0155469 0.0194326
0.0141183 -0.0382051 0.0477527
-0.00938532 -0.0728151 0.0345799
-0.024535 -0.0587688 0.0279093
-0.0302189 -0.0220491 0.0104711
-0.0242442 0.0231774 -0.0110069
-0.00891581 0.0594618 -0.0282384
0.00985233 0.0728055 -0.0345753
0.0248194 0.0580602 -0.0275728
0.0302109 0.0209149 -0.00993248
0.0239469 -0.0242995 0.0115399
0.00844392 -0.060139 0.02856
0 -0.0882622 0
0 -0.0749418 0
0 -0.0281169 0
0 0.0295557 0
0 0.0758255 0
0 0.0928413 0
0 0.0740382 0
0 0.0266706 0
0 -0.0309867 0
0 -0.0728969 0
-0.000277583 -0.05421 -0.0697099
-0.000730893 -0.044087 -0.0566673
-0.000900229 -0.0165413 -0.0212614
-0.00072224 0.0173877 0.0223494
-0.000265603 0.0446086 0.0573376
0.000293503 0.0546189 0.0702044
0.000739372 0.043557 0.0559859
0.000899989 0.0156904 0.0201677
0.000713376 -0.0182283 -0.0234298
0.00024974 -0.0447728 -0.0575744
-0.000448073 0.00075684 -0.112525
-0.0011798 0.000615158 -0.0914721
-0.00145314 0.000230805 -0.0343198
-0.00116584 -0.000242616 0.0360763
-0.000428734 -0.000622434 0.0925542
0.000473771 -0.00076211 0.113323
0.00119349 -0.000607763 0.0903723
0.00145275 -0.000218932 0.0325546
0.00115153 0.000254346 -0.0378203
0.000403129 0.000625084 -0.0929361
-0.000445693 0.0554317 -0.111927
-0.00117354 0.0450605 -0.0909861
-0.00144542 0.0169066 -0.0341375
-0.00115964 -0.0177717 0.0358846
-0.000426457 -0.0455936 0.0920625
0.000471255 -0.0558249 0.112721
0.00118715 -0.0445189 0.0898922
0.00144504 -0.0160369 0.0323816
0.00114541 0.0186309 -0.0376194
0.000400988 0.0457818 -0.0924424
-0.000271361 0.0887206 -0.0681472
-0.000714512 0.0721213 -0.055397
-0.000880047 0.0270595 -0.0207847
-0.000706049 -0.0284443 0.0218484
-0.00025965 -0.0729743 0.0560522
0.000286924 -0.0893504 0.0686306
0.000722801 -0.071254 0.0547309
0.000879813 -0.0256677 0.0197156
0.000697385 0.0298195 -0.0229047
0.000244142 0.0732755 -0.0562837
7.66396e-06 0.0877804 0.00192466
2.01796e-05 0.071357 0.00156456
2.4855e-05 0.0267728 0.000587018
1.99407e-05 -0.0281428 -0.000617055
7.33322e-06 -0.072201 -0.00158307
-8.10349e-06 -0.0884035 -0.00193831
-2.04137e-05 -0.0704989 -0.00154575
-2.48484e-05 -0.0253957 -0.000556821
-1.96959e-05 0.0295035 0.000646887
-6.89522e-06 0.072499 0.0015896
0.000283732 0.0529739 0.071254
0.000747084 0.0430627 0.0579227
0.00092017 0.0161569 0.0217324
0.000738235 -0.0169837 -0.0228445
0.000271486 -0.043572 -0.0586078
-0.000300004 -0.05335 -0.0717596
-0.000755749 -0.0425448 -0.0572261
-0.000919926 -0.0153258 -0.0206144
-0.000729173 0.0178048 0.0239488
-0.000255272 0.0437519 0.0588497
0.000450334 -0.00227034 0.113093
0.00118576 -0.00184556 0.0919337
0.00146047 -0.000692449 0.0344931
0.00117172 0.00072788 -0.0362583
0.000430898 0.00186739 -0.0930207
-0.000476159 0.00228645 -0.113895
-0.00119952 0.00182337 -0.0908284
-0.00146008 0.000656828 -0.0327189
-0.00115734 -0.000763071 0.0380112
-0.000405163 -0.00187511 0.0934051
0.000443194 -0.0566386 0.1113
0.00116694 -0.0460396 0.0904746
0.00143729 -0.0172739 0.0339456
0.00115312 0.0181579 -0.0356828
0.000424059 0.0465841 -0.0915446
-0.000468604 0.057038 -0.112088
-0.00118048 0.0454861 -0.0893869
-0.00143691 0.0163853 -0.0321996
-0.00113897 -0.0190357 0.0374079
-0.000398739 -0.0467786 0.0919241
0.000265066 -0.0891553 0.0665665
0.000692935 -0.0719569 0.0537255
0.000853464 -0.026997 0.0201569
0.00068472 0.0283785 -0.0211884
0.000251806 0.0728055 -0.0543591
-0.000278256 0.0891435 -0.0665576
-0.000700965 0.0710893 -0.0530777
-0.000853237 0.0256083 -0.0191201
-0.000676323 -0.0297525 0.0222143
-0.000238479 -0.0736346 0.0549782
0 -0.0703865 0
0 -0.0597639 0
0 -0.0224224 0
0 0.0235698 0
0 0.0604686 0
0 0.0740382 0
0 0.0590433 0
0 0.021269 0
0 -0.024711 0
0 -0.0581332 0
-0.0102766 -0.0432309 -0.0763123
-0.0270588 -0.035158 -0.0620344
-0.0333279 -0.0131912 -0.023275
-0.0267385 0.0138662 0.0244661
-0.00983304 0.0355739 0.0627681
0.010866 0.043557 0.0768539
0.0273727 0.0347354 0.0612885
0.033319 0.0125126 0.0220779
0.0264103 -0.0145365 -0.025649
0.00924579 -0.035705 -0.0630274
-0.0165884 0.000603558 -0.123183
-0.0436784 0.000490571 -0.100136
-0.0537974 0.00018406 -0.0375705
-0.043161 -0.000193479 0.039493
-0.0158725 -0.000496373 0.10132
0.0175397 -0.000607763 0.124057
0.0441851 -0.000484671 0.0989315
0.0537831 -0.000174593 0.0356379
0.0426312 0.000202833 -0.0414023
0.0149245 0.000498486 -0.101738
-0.0165003 0.0442051 -0.122528
-0.0434463 0.0359345 -0.0996038
-0.0535118 0.0134824 -0.037371
-0.0429317 -0.0141724 0.0392832
-0.0157881 -0.0363595 0.100782
0.0174465 -0.0445189 0.123398
0.0439503 -0.0355024 0.098406
0.0534976 -0.012789 0.0354486
0.0424047 0.0148576 -0.0411824
0.0148452 0.0365096 -0.101198
-0.0100462 0.070752 -0.0746017
-0.0264524 0.0575146 -0.060644
-0.0325808 0.0215792 -0.0227534
-0.0261391 -0.0226835 0.0239177
-0.00961266 -0.0581949 0.061361
0.0106224 -0.071254 0.0751311
0.0267592 -0.056823 0.0599149
0.0325722 -0.0204692 0.021583
0.0258183 0.0237801 -0.025074
0.00903853 0.058435 -0.0616146
0.000283732 0.0700023 0.00210695
0.000747084 0.056905 0.00171274
0.00092017 0.0213505 0.000642615
0.000738235 -0.0224431 -0.000675501
0.000271486 -0.0575781 -0.001733
-0.000300004 -0.0704989 -0.0021219
-0.000755749 -0.0562208 -0.00169215
-0.000919926 -0.0202523 -0.000609561
-0.000729173 0.0235281 0.000708158
-0.000255272 0.0578158 0.00174016
0.0105042 0.0422451 0.0780027
0.0276582 0.0343411 0.0634086
0.034066 0.0128847 0.0237906
0.0273306 -0.013544 -0.0250081
0.0100509 -0.0347473 -0.0641586
-0.0111067 -0.0425448 -0.078556
-0.0279791 -0.0339283 -0.0626462
-0.0340569 -0.0122219 -0.0225669
-0.0269952 0.0141988 0.0262172
-0.00945059 0.0348908 0.0644235
0.0166721 -0.00181053 0.123804
0.0438988 -0.00147178 0.100641
0.0540689 -0.000552205 0.0377601
0.0433788 0.000580466 -0.0396923
0.0159526 0.00148919 -0.101832
-0.0176282 0.00182337 -0.124683
-0.0444081 0.00145408 -0.0994308
-0.0540545 0.000523802 -0.0358178
-0.0428464 -0.000608527 0.0416113
-0.0149998 -0.00149534 0.102252
0.0164078 -0.0451676 0.121841
0.043202 -0.0367153 0.0990437
0.053211 -0.0137754 0.0371609
0.0426903 0.0144804 -0.0390625
0.0156993 0.0371496 -0.100215
-0.0173484 0.0454861 -0.122704
-0.0437032 0.0362739 -0.0978527
-0.0531968 0.0130668 -0.0352493
-0.0421663 -0.0151804 0.0409509
-0.014762 -0.0373045 0.100631
0.00981319 -0.0710987 0.0728712
0.0256536 -0.0573835 0.0588141
0.0315966 -0.0215293 0.022066
0.0253494 0.0226311 -0.0231952
0.00932227 0.0580602 -0.0595076
-0.0103015 0.0710893 -0.0728615
-0.0259509 0.0566916 -0.0581049
-0.0315882 0.0204219 -0.020931
-0.0250386 -0.0237268 0.0243183
-0.00882887 -0.0587214 0.0601853
0 -0.0253552 0
0 -0.0215286 0
0 -0.00807717 0
0 0.0084905 0
0 0.0217825 0
0 0.0266706 0
0 0.021269 0
0 0.00766168 0
0 -0.00890158 0
0 -0.0209412 0
-0.0163108 -0.0155729 -0.0534729
-0.0429474 -0.0126649 -0.0434684
-0.0528975 -0.00475183 -0.0163091
-0.0424387 0.00499499 0.0171437
-0.0156068 0.0128147 0.0439825
0.0172462 0.0156904 0.0538522
0.0434456 0.0125126 0.0429457
0.0528835 0.00450741 0.0154702
0.0419178 -0.00523646 -0.0179725
0.0146747 -0.0128619 -0.044164
-0.0263288 0.000217418 -0.0863156
-0.0693253 0.000176717 -0.0701661
-0.0853865 6.63035e-05 -0.0263261
-0.0685041 -6.96965e-05 0.0276732
-0.0251925 -0.000178807 0.070996
0.0278386 -0.000218932 0.0869282
0.0701294 -0.000174593 0.0693224
0.0853638 -6.2893e-05 0.0249719
0.0676635 7.30662e-05 -0.0290111
0.0236879 0.000179569 -0.0712892
-0.0261889 0.0159239 -0.085857
-0.068957 0.0129446 -0.0697934
-0.0849329 0.00485676 -0.0261863
-0.0681401 -0.0051053 0.0275262
-0.0250587 -0.0130977 0.0706188
0.0276908 -0.0160369 0.0864664
0.0697569 -0.012789 0.0689541
0.0849103 -0.00460694 0.0248392
0.0673041 0.00535211 -0.028857
0.023562 0.0131518 -0.0709105
-0.0159452 0.0254868 -0.0522742
-0.0419846 0.0207183 -0.0424939
-0.0517118 0.00777342 -0.0159435
-0.0414873 -0.00817123 0.0167594
-0.015257 -0.0209633 0.0429965
0.0168597 -0.0256677 0.0526453
0.0424716 -0.0204692 0.0419829
0.051698 -0.0073736 0.0151235
0.0409782 0.00856625 -0.0175696
0.0143458 0.0210499 -0.043174
0.000450334 0.0252167 0.00147636
0.00118576 0.0204988 0.00120014
0.00146047 0.00769104 0.000450289
0.00117172 -0.00808463 -0.000473332
0.000430898 -0.0207412 -0.00121434
-0.000476159 -0.0253957 -0.00148684
-0.00119952 -0.0202523 -0.00118571
-0.00146008 -0.00729546 -0.000427125
-0.00115734 0.0084755 0.000496214
-0.000405163 0.0208269 0.00121935
0.0166721 0.0152179 0.0546574
0.0438988 0.0123706 0.0444312
0.0540689 0.00464143 0.0166704
0.0433788 -0.00487894 -0.0175234
0.0159526 -0.012517 -0.0449567
-0.0176282 -0.0153258 -0.0550451
-0.0444081 -0.0122219 -0.043897
-0.0540545 -0.00440266 -0.0158129
-0.0428464 0.00511481 0.0183707
-0.0149998 0.0125686 0.0451423
0.0264616 -0.000652203 0.0867512
0.0696751 -0.000530175 0.0705202
0.0858174 -0.00019892 0.026459
0.0688498 0.000209099 -0.0278128
0.0253196 0.000536445 -0.0713543
-0.0279791 0.000656828 -0.0873669
-0.0704833 0.000523802 -0.0696723
-0.0857946 0.000188687 -0.0250979
-0.0680047 -0.000219208 0.0291576
-0.0238074 -0.000538663 0.071649
0.0260421 -0.0162706 0.0853757
0.0685692 -0.0132258 0.0694009
0.0844553 -0.00496228 0.026039
0.0677572 0.00521622 -0.0273715
0.0249177 0.0133823 -0.0702217
-0.0275351 0.0163853 -0.0859801
-0.0693646 0.0130668 -0.0685664
-0.0844328 0.00470703 -0.0246996
-0.0669257 -0.0054684 0.0286948
-0.0234299 -0.0134381 0.070513
0.0155753 -0.0256117 0.0510617
0.0407169 -0.0206711 0.0412117
0.0501495 -0.00775546 0.0154619
0.0402342 0.00815233 -0.0162532
0.0147961 0.0209149 -0.0416977
-0.0163503 0.0256083 -0.0510549
-0.0411887 0.0204219 -0.0407148
-0.0501362 0.00735653 -0.0146666
-0.0397408 -0.00854703 0.0170401
-0.014013 -0.0211531 0.0421726
0 0.0294584 0
0 0.0250126 0
0 0.00938429 0
0 -0.00986452 0
0 -0.0253075 0
0 -0.0309867 0
0 -0.024711 0
0 -0.00890157 0
0 0.0103421 0
0 0.0243301 0
-0.0160522 0.0180931 -0.0100033
-0.0422657 0.0147134 -0.00813256
-0.0520579 0.00552041 -0.0030513
-0.0417651 -0.00580291 0.00320746
-0.0153591 -0.0148874 0.00822876
0.0169725 -0.0182283 0.0100753
0.042756 -0.0145365 0.00803478
0.0520441 -0.00523645 0.00289435
0.0412524 0.00608344 -0.0033625
0.0144421 0.0149434 -0.00826185
-0.0259113 -0.000252603 -0.0161472
-0.0682249 -0.000205301 -0.0131275
-0.0840312 -7.70281e-05 -0.00492538
-0.067417 8.09699e-05 0.00517743
-0.0247926 0.000207729 0.0132828
0.0273968 0.000254345 0.0162635
0.0690163 0.000202833 0.0129697
0.0840089 7.3066e-05 0.00467204
0.0665897 -8.48846e-05 -0.00542774
0.0233123 -0.000208628 -0.0133362
-0.0257737 -0.0185009 -0.0160615
-0.0678625 -0.0150384 -0.0130578
-0.0835848 -0.00564234 -0.00489923
-0.0670589 0.00593107 0.00514993
-0.0246609 0.0152162 0.0132122
0.0272513 0.0186309 0.0161771
0.0686497 0.0148576 0.0129008
0.0835626 0.0053521 0.00464722
0.0662359 -0.00621782 -0.00539891
0.0231885 -0.0152801 -0.0132654
-0.0156924 -0.0296114 -0.00977905
-0.0413182 -0.0240695 -0.00795025
-0.050891 -0.00903078 -0.0029829
-0.0408289 0.00949291 0.00313555
-0.0150149 0.0243541 0.00804429
0.0165921 0.0298194 0.00984946
0.0417975 0.0237801 0.00785465
0.0508774 0.00856623 0.00282947
0.0403278 -0.00995184 -0.00328713
0.0141183 -0.0244564 -0.00807665
0.000443194 -0.0292976 0.000276186
0.00116694 -0.0238144 0.000224537
0.00143729 -0.00893508 8.42453e-05
0.00115312 0.00939231 -8.85563e-05
0.000424059 0.0240961 -0.000227193
-0.000468604 0.0295034 -0.000278175
-0.00118048 0.023528 -0.000221837
-0.00143691 0.00847548 -7.99118e-05
-0.00113897 -0.00984638 9.28373e-05
-0.000398739 -0.0241973 0.000228106
0.0164078 -0.0176806 0.0102249
0.043202 -0.0143716 0.00831269
0.053211 -0.00539216 0.00311889
0.0426903 0.0056681 -0.0032785
0.0156993 0.0145416 -0.00841103
-0.0173484 0.0178048 -0.0102985
-0.0437032 0.0141988 -0.00821277
-0.0531968 0.0051148 -0.00295846
-0.0421663 -0.00594212 0.00343699
-0.014762 -0.0146026 0.00844486
0.0260421 0.000757749 0.0162287
0.0685692 0.000615931 0.0131937
0.0844553 0.000231095 0.00495024
0.0677572 -0.000242921 -0.00520356
0.0249177 -0.000623215 -0.0133498
-0.0275351 -0.00076307 -0.0163456
-0.0693646 -0.000608526 -0.0130351
-0.0844328 -0.000219208 -0.00469561
-0.0669257 0.000254665 0.00545513
-0.0234299 0.000625835 0.0134035
0.0256292 0.0189037 0.0159714
0.0674808 0.0153651 0.0129843
0.0831148 0.00576494 0.00487168
0.0666818 -0.00605995 -0.00512097
0.0245222 -0.0155469 -0.0131379
-0.0270981 -0.0190357 -0.0160862
-0.0682636 -0.0151804 -0.0128283
-0.0830927 -0.0054684 -0.00462109
-0.0658635 0.00635291 0.00536855
-0.0230585 0.0156128 0.013191
0.0153284 0.0297565 0.00955221
0.0400713 0.0240163 0.00770955
0.0493544 0.00901053 0.00289249
0.0395962 -0.00947162 -0.00304051
0.0145615 -0.0242995 -0.00780046
-0.0160911 -0.0297525 -0.00955094
-0.0405357 -0.0237268 -0.00761659
-0.0493413 -0.00854703 -0.00274371
-0.0391107 0.0099302 0.00318772
-0.0137908 0.0245763 0.0078893
0 0.0729067 0
0 0.0588427 0
0 0.0220768 0
0 -0.0232065 0
0 -0.0595366 0
0 -0.0728969 0
0 -0.0581332 0
0 -0.0209412 0
0 0.0243301 0
0 0.0602146 0
-0.00960053 0.0447787 0.0373257
-0.0250976 0.0361407 0.0301255
-0.0309119 0.0135594 0.0113026
-0.0248001 -0.0142533 -0.011881
-0.00912025 -0.0365669 -0.0304807
0.0100782 -0.0447728 -0.0373208
0.0253885 -0.035705 -0.0297622
0.0309037 -0.0128619 -0.0107212
0.024496 0.0149434 0.0124562
0.00863755 0.0369834 0.0308278
-0.0154971 -0.000625168 0.0602509
-0.0405124 -0.00050457 0.0486283
-0.0498977 -0.000189306 0.0182445
-0.0400321 0.000198994 -0.0191781
-0.0147218 0.00051052 -0.0492017
0.0162682 0.000625084 -0.0602429
0.0409819 0.000498486 -0.048042
0.0498844 0.000179569 -0.017306
0.0395412 -0.000208628 0.0201067
0.0139427 -0.000516335 0.0497621
-0.0154148 -0.0457879 0.0599309
-0.0402972 -0.0369552 0.04837
-0.0496326 -0.013865 0.0181476
-0.0398195 0.0145745 -0.0190763
-0.0146436 0.037391 -0.0489404
0.0161818 0.0457818 -0.0599229
0.0407642 0.0365096 -0.0477867
0.0496195 0.0131518 -0.0172141
0.0393312 -0.0152801 0.0199999
0.0138686 -0.0378168 0.0494977
-0.00938532 -0.0732853 0.036489
-0.024535 -0.0591483 0.0294502
-0.0302189 -0.0221914 0.0110492
-0.0242442 0.023327 -0.0116146
-0.00891581 0.0598457 -0.0297974
0.00985233 0.0732755 -0.0364842
0.0248194 0.0584351 -0.0290951
0.0302109 0.0210499 -0.0104808
0.0239469 -0.0244564 0.012177
0.00844392 -0.0605273 0.0301368
0.000265066 -0.0725087 -0.00103055
0.000692934 -0.0585215 -0.000831751
0.000853463 -0.0219563 -0.000312059
0.00068472 0.0230798 0.000328028
0.000251806 0.0592116 0.000841559
-0.000278256 0.072499 0.00103041
-0.000700965 0.0578158 0.000821722
-0.000853236 0.0208269 0.000296007
-0.000676323 -0.0241973 -0.00034391
-0.000238479 -0.0598859 -0.000851144
0.00981319 -0.0437577 -0.0381525
0.0256536 -0.0353167 -0.0307928
0.0315966 -0.0132502 -0.0115529
0.0253494 0.0139283 0.0121441
0.00932227 0.0357331 0.0311559
-0.0103015 0.0437519 0.0381475
-0.0259509 0.0348908 0.0304215
-0.0315882 0.0125686 0.0109587
-0.0250386 -0.0146026 -0.0127321
-0.00882887 -0.0361401 -0.0315107
0.0155753 0.00187536 -0.060555
0.0407168 0.00151359 -0.0488737
0.0501495 0.000567874 -0.0183366
0.0402341 -0.000596934 0.0192749
0.0147961 -0.00153144 0.04945
-0.0163503 -0.00187511 0.0605469
-0.0411887 -0.00149534 0.0482844
-0.0501362 -0.000538663 0.0173934
-0.0397408 0.000625835 -0.0202081
-0.014013 0.00154888 -0.0500132
0.0153284 0.0467848 -0.0595949
0.0400713 0.0377599 -0.0480988
0.0493544 0.0141669 -0.0180459
0.0395962 -0.0148918 0.0189693
0.0145615 -0.0382051 0.048666
-0.0160911 -0.0467786 0.059587
-0.0405357 -0.0373046 0.0475188
-0.0493413 -0.0134381 0.0171176
-0.0391107 0.0156128 -0.0198877
-0.0137908 0.0386402 -0.0492202
0.00916762 0.0736444 -0.0356426
0.0239659 0.0594381 -0.028767
0.029518 0.0223002 -0.0107929
0.0236818 -0.0234414 0.0113452
0.008709 -0.060139 0.0291063
-0.0096238 -0.0736346 0.0356379
-0.0242437 -0.0587214 0.0284202
-0.0295101 -0.0211531 0.0102377
-0.0233914 0.0245763 -0.0118945
-0.00824806 0.060824 -0.0294377
