# vtk DataFile Version 3.0
Velocity field
ASCII
DATASET STRUCTURED_POINTS
DIMENSIONS 5 5 5
SPACING 1.33333 1.33333 1.33333
ORIGIN 0 0 0
POINT_DATA 125
VECTORS velocity float
0 0.0761116 0
0 0.0179043 0
0 -0.0676881 0
0 -0.0497499 0
0 0.044282 0
0 -0.040303 0.132183
0 -0.00948077 0.0358355
0 0.0358425 -0.135478
0 0.0263438 -0.0995745
0 -0.0234484 0.0769046
0 -0.0950731 0.0621888
0 -0.0223648 0.0168597
0 0.0845511 -0.0637389
0 0.062144 -0.0468473
0 -0.0553139 0.0361817
0 -0.00442659 -0.102925
0 -0.0010413 -0.0279034
0 0.00393668 0.10549
0 0.00289341 0.0775339
0 -0.0025754 -0.059882
0 0.0929905 -0.110612
0 0.0218749 -0.0260202
0 -0.082699 0.0983705
0 -0.0607827 0.0723011
0 0.0541022 -0.0643547
0 0.0179043 0
0 0.00535924 0
0 -0.0202609 0
0 -0.0148915 0
0 0.0104168 0
0.0565739 -0.00948077 0.0464204
0.0838824 -0.00224712 0.0110166
-0.01758 0.00849561 -0.0416501
-0.0921532 0.00624418 -0.0306126
-0.0255634 -0.00551595 0.0270075
0.0266166 -0.0223648 0.0218396
0.0394646 -0.00530449 0.00518303
-0.00827091 0.0200544 -0.0195954
-0.0433561 0.0147399 -0.0144024
-0.0120269 -0.0130119 0.0127064
-0.0440514 -0.0010413 -0.0361454
-0.0653146 -0.000247014 -0.00857804
0.0136885 0.000933883 0.0324307
0.071755 0.000686397 0.0238364
0.019905 -0.000605831 -0.0210295
-0.0473417 0.0218749 -0.0388451
-0.0696148 0.00514579 -0.00913783
0.0145897 -0.0194539 0.034546
0.0764789 -0.0142984 0.0253909
0.0213917 0.0127269 -0.0226002
0 -0.0676881 0
0 -0.0202609 0
0 0.0765972 0
0 0.056298 0
0 -0.0393811 0
0.0266166 0.0358425 -0.110343
0.0394646 0.00849561 -0.0261721
-0.00827091 -0.0321189 0.0989479
-0.0433561 -0.0236071 0.072726
-0.0120269 0.0208533 -0.0641982
0.0125224 0.0845511 -0.0519138
0.0185671 0.0200544 -0.0123133
-0.00389128 -0.0758192 0.0465525
-0.0203979 -0.0557265 0.0342158
-0.00565837 0.0491921 -0.0302037
-0.0207251 0.00393668 0.0859192
-0.030729 0.000933883 0.0203788
0.00644014 -0.0035307 -0.0770456
0.033759 -0.00259503 -0.0566278
0.00936481 0.00229037 0.0499881
-0.0222731 -0.082699 0.0923367
-0.032752 -0.0194539 0.0217211
0.00686408 0.0735464 -0.0821175
0.0359814 0.0540557 -0.0603553
0.0100643 -0.0481146 0.0537218
0 -0.0497499 0
0 -0.0148915 0
0 0.056298 0
0 0.0413783 0
0 -0.0289446 0
-0.0440514 0.0263438 -0.0983342
-0.0653146 0.00624419 -0.0233237
0.0136885 -0.0236072 0.0881797
0.071755 -0.0173511 0.0648111
0.019905 0.0153269 -0.0572112
-0.0207251 0.062144 -0.0462638
-0.030729 0.0147399 -0.0109733
0.00644015 -0.0557265 0.0414862
0.033759 -0.0409585 0.0304922
0.00936481 0.0361556 -0.0269164
0.0343008 0.00289341 0.0765683
0.0508572 0.000686397 0.018161
-0.0106586 -0.00259504 -0.0686609
-0.0558718 -0.00190734 -0.0504651
-0.0154991 0.0016834 0.0445477
0.0368628 -0.0607827 0.0822873
0.0542058 -0.0142984 0.0193571
-0.0113603 0.0540557 -0.0731802
-0.0595505 0.0397302 -0.0537865
-0.0166567 -0.0353636 0.047875
0 0.044282 0
0 0.0104168 0
0 -0.0393812 0
0 -0.0289446 0
0 0.0257634 0
-0.0473417 -0.0234484 0.0640796
-0.0696148 -0.00551595 0.0150739
0.0145897 0.0208533 -0.0569877
0.0764788 0.0153269 -0.0418852
0.0213917 -0.0136424 0.0372817
-0.0222731 -0.0553139 0.0301479
-0.032752 -0.0130119 0.00709191
0.00686408 0.0491921 -0.0268113
0.0359814 0.0361556 -0.019706
0.0100643 -0.0321818 0.0175401
0.0368628 -0.0025754 -0.0498958
0.0542057 -0.000605832 -0.0117374
-0.0113603 0.00229037 0.0443736
-0.0595505 0.0016834 0.0326141
-0.0166567 -0.00149838 -0.0290295
0.0396161 0.0541022 -0.0536226
0.0582545 0.0127269 -0.012614
-0.0122088 -0.0481146 0.047688
-0.0639984 -0.0353636 0.0350501
-0.0179009 0.0314769 -0.0311978
