# vtk DataFile Version 3.0
Velocity field
ASCII
DATASET STRUCTURED_POINTS
DIMENSIONS 10 10 10
SPACING 0.631579 0.631579 0.631579
ORIGIN 0 0 0
POINT_DATA 1000
VECTORS velocity float
0 0.645757 0
0 0.521188 0
0 0.195541 0
0 -0.205547 0
0 -0.527334 0
0 -0.645671 0
0 -0.514904 0
0 -0.185483 0
0 0.215499 0
0 0.53334 0
0 0.396619 0.505837
0 0.32011 0.424267
0 0.1201 0.159178
0 -0.126246 -0.167323
0 -0.323885 -0.42927
0 -0.396567 -0.525601
0 -0.31625 -0.419151
0 -0.113922 -0.15099
0 0.132358 0.175424
0 0.327573 0.417778
0 -0.00553731 0.816518
0 -0.00446914 0.684849
0 -0.00167675 0.256944
0 0.00176255 -0.270092
0 0.00452184 -0.692924
0 0.00553657 -0.848421
0 0.00441525 -0.676591
0 0.0015905 -0.243727
0 -0.00184789 0.283169
0 -0.00457334 0.674374
0 -0.405558 0.812181
0 -0.327324 0.681211
0 -0.122806 0.255579
0 0.129091 -0.268657
0 0.331184 -0.689243
0 0.405504 -0.843914
0 0.323377 -0.672996
0 0.116489 -0.242432
0 -0.135341 0.281665
0 -0.334956 0.670791
0 -0.649111 0.494498
0 -0.523895 0.414756
0 -0.196556 0.15561
0 0.206615 -0.163573
0 0.530073 -0.419647
0 0.649025 -0.513819
0 0.517578 -0.409755
0 0.186446 -0.147605
0 -0.216618 0.171492
0 -0.53611 0.408413
0 -0.642232 -0.0139659
0 -0.518343 -0.0117138
0 -0.194474 -0.00439483
0 0.204425 0.00461972
0 0.524456 0.011852
0 0.642147 0.0145116
0 0.512093 0.0115726
0 0.18447 0.00416877
0 -0.214323 -0.0048434
0 -0.530429 -0.0115347
0 -0.387576 -0.517042
0 -0.312811 -0.433665
0 -0.117361 -0.162704
0 0.123367 0.17103
0 0.3165 0.438779
0 0.387524 0.537243
0 0.309039 0.428436
0 0.111324 0.154334
0 -0.12934 -0.17931
0 -0.320104 -0.427032
0 0.0166106 -0.820639
0 0.0134064 -0.688305
0 0.00502984 -0.25824
0 -0.00528723 0.271455
0 -0.0135645 0.696421
0 -0.0166084 0.852703
0 -0.0132447 0.680005
0 -0.00477111 0.244957
0 0.00554322 -0.284598
0 0.0137189 -0.677777
0 0.414388 -0.807627
0 0.334451 -0.677391
0 0.12548 -0.254146
0 -0.131902 0.267151
0 -0.338395 0.685379
0 -0.414333 0.839183
0 -0.330418 0.669224
0 -0.119026 0.241073
0 0.138288 -0.280086
0 0.342249 -0.667031
0 0.652292 -0.483027
0 0.526462 -0.38985
0 0.19752 -0.146265
0 -0.207627 0.15375
0 -0.53267 0.394447
0 -0.652205 0.482963
0 -0.520114 0.385149
0 -0.18736 0.138741
0 0.21768 -0.161194
0 0.538737 -0.398939
0 0.521188 0
0 0.442531 0
0 0.16603 0
0 -0.174527 0
0 -0.44775 0
0 -0.548228 0
0 -0.437195 0
0 -0.15749 0
0 0.182976 0
0 0.430456 0
0.073548 0.32011 0.559819
0.203319 0.272542 0.477132
0.250578 0.10244 0.179355
0.201037 -0.107695 -0.188557
0.0739314 -0.276292 -0.483744
-0.0816975 -0.338293 -0.592298
-0.205806 -0.269779 -0.472341
-0.250512 -0.0971914 -0.170168
-0.198455 0.112477 0.19689
-0.0661708 0.264383 0.462363
0.118721 -0.00446914 0.903656
0.328197 -0.00378928 0.770182
0.404481 -0.00142411 0.289513
0.324513 0.00149717 -0.304367
0.11934 0.003841 -0.780855
-0.131875 0.00470289 -0.956085
-0.332211 0.00375044 -0.762449
-0.404374 0.00135114 -0.274685
-0.320345 -0.00156397 0.317819
-0.106812 -0.00369112 0.746342
0.11809 -0.327324 0.898856
0.326453 -0.278422 0.766091
0.402332 -0.104651 0.287975
0.322789 0.11002 -0.302749
0.118706 0.282257 -0.776706
-0.131175 0.345596 -0.951005
-0.330447 0.275603 -0.758399
-0.402226 0.0992901 -0.273226
-0.318643 -0.114901 0.31613
-0.106245 -0.270341 0.742377
0.0718993 -0.523895 0.54727
0.198762 -0.445626 0.466435
0.244961 -0.167498 0.175334
0.196531 0.176091 -0.18433
0.0722741 0.451762 -0.472899
-0.0798663 0.553142 -0.579022
-0.201193 0.441115 -0.461753
-0.244896 0.158918 -0.166354
-0.194006 -0.183904 0.192476
-0.0646874 -0.432692 0.451998
-0.00203063 -0.518343 -0.0154564
-0.00561355 -0.440903 -0.0131734
-0.00691835 -0.165723 -0.00495192
-0.00555051 0.174225 0.00520597
-0.00204123 0.446976 0.013356
0.00225561 0.547279 0.0163531
0.00568222 0.43644 0.0130412
0.00691652 0.157233 0.00469826
0.00547927 -0.181955 -0.00543604
0.00182695 -0.428107 -0.0127656
-0.0751771 -0.312811 -0.57222
-0.207823 -0.266077 -0.4877
-0.256128 -0.100011 -0.183328
-0.20549 0.105142 0.192733
-0.0755689 0.269741 0.494459
0.0835068 0.330274 0.605416
0.210365 0.263384 0.482804
0.25606 0.0948876 0.173937
0.202851 -0.109807 -0.201252
0.0676365 -0.258355 -0.472604
-0.11932 0.0134064 -0.908216
-0.329846 0.0113884 -0.774052
-0.406513 0.00428021 -0.290968
-0.326143 -0.00449975 0.305896
-0.119939 -0.0115441 0.784779
0.132538 -0.0141347 0.960889
0.33388 -0.011272 0.76628
0.406405 -0.00406089 0.276065
0.321954 0.00470024 -0.319416
0.107351 0.0110725 -0.750109
-0.117428 0.334451 -0.893816
-0.324305 0.283816 -0.761094
-0.399678 0.106666 -0.286083
-0.32066 -0.112136 0.300758
-0.117923 -0.287686 0.771599
0.130309 -0.352245 0.944752
0.328268 -0.280906 0.753412
0.399573 -0.101199 0.271428
0.316546 0.117142 -0.314083
0.105649 0.276228 -0.738215
-0.0702315 0.526462 -0.534575
-0.183599 0.424906 -0.431454
-0.226132 0.159417 -0.161874
-0.181422 -0.167575 0.170158
-0.0667181 -0.429916 0.436542
0.0737263 -0.526392 0.534504
0.185726 -0.419782 0.426251
0.226072 -0.151217 0.153548
0.179197 0.175689 -0.178396
0.0631869 0.434813 -0.441513
0 0.195541 0
0 0.16603 0
0 0.0622918 0
0 -0.0654794 0
0 -0.167988 0
0 -0.205686 0
0 -0.164028 0
0 -0.0590875 0
0 0.0686497 0
0 0.1615 0
0.118721 0.1201 0.397819
0.328197 0.10244 0.339053
0.404481 0.0385075 0.127454
0.324513 -0.040483 -0.133993
0.11934 -0.103859 -0.343761
-0.131876 -0.127166 -0.420903
-0.332211 -0.101411 -0.335658
-0.404374 -0.036535 -0.120927
-0.320345 0.042272 0.139908
-0.106812 0.0991921 0.328564
0.191638 -0.00167675 0.642157
0.529773 -0.00142411 0.547297
0.652912 -0.00053527 0.205735
0.523827 0.000562725 -0.216291
0.192637 0.00144368 -0.554897
-0.212872 0.00176767 -0.679419
-0.536253 0.00140966 -0.541817
-0.652739 0.000507847 -0.195199
-0.517098 -0.000587731 0.225837
-0.172416 -0.00138485 0.530366
0.19062 -0.122806 0.638745
0.526959 -0.104651 0.544389
0.649444 -0.0393393 0.204642
0.521044 0.0413577 -0.215142
0.191614 0.106103 -0.551949
-0.211741 0.129914 -0.675809
-0.533405 0.103602 -0.538938
-0.649272 0.0373244 -0.194162
-0.51435 -0.0431836 0.224638
-0.1715 -0.101427 0.527549
0.116059 -0.196556 0.388901
0.32084 -0.167498 0.331453
0.395415 -0.0629641 0.124597
0.317239 0.0661947 -0.13099
0.116664 0.169823 -0.336055
-0.128919 0.207932 -0.411467
-0.324765 0.16582 -0.328134
-0.39531 0.0597394 -0.118216
-0.313164 -0.0691174 0.136771
-0.104418 -0.162339 0.321199
-0.00327782 -0.194474 -0.0109836
-0.00906134 -0.165723 -0.0093611
-0.0111675 -0.0622968 -0.00351896
-0.00895962 0.0654933 0.00369949
-0.00329491 0.168023 0.00949111
0.00364101 0.205729 0.011621
0.00917218 0.164063 0.00926732
0.0111646 0.0591063 0.00333872
0.00884462 -0.0683849 -0.00386278
0.00294904 -0.160618 -0.00907152
-0.12135 -0.117361 -0.406631
-0.335466 -0.100011 -0.346562
-0.41344 -0.037595 -0.130277
-0.3317 0.0395241 0.136962
-0.121983 0.101399 0.351375
0.134796 0.124154 0.430226
0.33957 0.0990092 0.343093
0.413331 0.0356697 0.123605
0.327441 -0.0412692 -0.143006
0.109178 -0.0969303 -0.335842
-0.192605 0.00502984 -0.645397
-0.532434 0.00428021 -0.550047
-0.656192 0.00160883 -0.206769
-0.526458 -0.00169135 0.217378
-0.193605 -0.00433918 0.557685
0.213941 -0.00531293 0.682832
0.538947 -0.0042369 0.544539
0.656018 -0.00152641 0.196179
0.519696 0.00176638 -0.226972
0.173286 0.00415421 -0.533043
-0.189551 0.12548 -0.635164
-0.52349 0.106665 -0.54083
-0.645159 0.0400912 -0.203295
-0.517605 -0.0421478 0.213725
-0.19035 -0.10813 0.548312
0.210344 -0.132396 0.671356
0.529886 -0.105582 0.535387
0.644989 -0.0380373 0.192882
0.510965 0.044021 -0.223181
0.170538 0.103636 -0.524591
-0.113367 0.19752 -0.37988
-0.296364 0.159417 -0.3066
-0.365021 0.0598107 -0.115031
-0.29285 -0.0628714 0.120918
-0.107696 -0.161297 0.310216
0.119008 -0.197493 0.37983
0.299798 -0.157495 0.302903
0.364924 -0.0567341 0.109114
0.289259 0.0659154 -0.126772
0.101996 0.163134 -0.313749
0 -0.205547 0
0 -0.174527 0
0 -0.0654794 0
0 0.0688302 0
0 0.176585 0
0 0.216211 0
0 0.172422 0
0 0.0621112 0
0 -0.0721627 0
0 -0.169764 0
0.11809 -0.126246 0.0823375
0.326453 -0.107695 0.0701738
0.402332 -0.040483 0.026379
0.322789 0.0425601 -0.0277326
0.118706 0.109188 -0.0711483
-0.131175 0.133691 -0.0871141
-0.330447 0.106614 -0.069471
-0.402226 0.0384096 -0.0250281
-0.318643 -0.0444402 0.0289566
-0.106245 -0.104268 0.0680037
0.19062 0.00176255 0.132909
0.526959 0.00149717 0.113273
0.649444 0.000562725 0.0425808
0.521044 -0.000591596 -0.0447657
0.191614 -0.00151773 -0.114847
-0.211741 -0.00185834 -0.140619
-0.533405 -0.00148198 -0.112139
-0.649271 -0.000533897 -0.0404002
-0.51435 0.000617874 0.0467414
-0.1715 0.00145571 0.109771
0.189607 0.129091 0.132203
0.52416 0.11002 0.112672
0.645994 0.0413577 0.0423546
0.518275 -0.0434797 -0.0445278
0.190596 -0.111547 -0.114236
-0.210616 -0.136579 -0.139872
-0.530572 -0.108918 -0.111544
-0.645822 -0.0392395 -0.0401855
-0.511618 0.0453988 0.0464931
-0.170589 0.106618 0.109188
0.115443 0.206615 0.0804918
0.319135 0.176091 0.0686005
0.393315 0.0661947 0.0257877
0.315553 -0.0695912 -0.0271109
0.116045 -0.178536 -0.0695532
-0.128234 -0.218602 -0.0851612
-0.32304 -0.174328 -0.0679137
-0.39321 -0.0628045 -0.024467
-0.3115 0.0726625 0.0283074
-0.103863 0.170646 0.0664793
-0.00326041 0.204425 -0.0022733
-0.0090132 0.174225 -0.00193746
-0.0111082 0.0654933 -0.000728315
-0.00891208 -0.0688537 0.000765683
-0.00327742 -0.176644 0.00196436
0.00362167 -0.216285 0.00240519
0.00912346 -0.17248 0.00191807
0.0111052 -0.062139 0.000691012
0.00879763 0.0718925 -0.000799477
0.00293338 0.168838 -0.00187755
-0.120706 0.123367 -0.0841613
-0.333684 0.105142 -0.0717279
-0.411244 0.0395241 -0.0269634
-0.329939 -0.041552 0.0283468
-0.121335 -0.106602 0.0727237
0.13408 -0.130524 0.0890436
0.337766 -0.104089 0.07101
0.411135 -0.0374997 0.0255824
0.325701 0.0433858 -0.0295979
0.108598 0.101891 -0.06951
-0.191582 -0.00528723 -0.133579
-0.529606 -0.00449975 -0.113843
-0.652706 -0.00169135 -0.0427947
-0.523662 0.00177812 0.0449906
-0.192577 0.00456178 0.115423
0.212805 0.00558547 0.141326
0.536084 0.00445426 0.112703
0.652533 0.00160471 0.0406032
0.516935 -0.00185697 -0.0469763
0.172365 -0.0043668 -0.110325
-0.188544 -0.131902 -0.131461
-0.520709 -0.112136 -0.111936
-0.641732 -0.0421478 -0.0420757
-0.514855 0.0443098 0.0442344
-0.189338 0.113677 0.113484
0.209227 0.139187 0.13895
0.527071 0.110998 0.110809
0.641562 0.0399884 0.0399206
0.508251 -0.0462785 -0.0461919
0.169632 -0.108939 -0.108576
-0.112765 -0.207627 -0.0786247
-0.294789 -0.167575 -0.0634577
-0.363082 -0.0628714 -0.0238082
-0.291295 0.0660888 0.0250266
-0.107124 0.169551 0.064206
0.118376 0.2076 0.0786142
0.298206 0.165555 0.0626925
0.362985 0.0596374 0.0225836
0.287723 -0.0692885 -0.0262383
0.101454 -0.171482 -0.0649372
0 -0.527334 0
0 -0.44775 0
0 -0.167988 0
0 0.176585 0
0 0.45303 0
0 0.554693 0
0 0.442351 0
0 0.159347 0
0 -0.185134 0
0 -0.435532 0
0.0718993 -0.323885 -0.264911
0.198762 -0.276292 -0.225774
0.244961 -0.103859 -0.084871
0.196531 0.109188 0.0892257
0.0722741 0.280123 0.228909
-0.0798663 0.342984 0.280279
-0.201193 0.273519 0.223513
-0.244896 0.0985401 0.0805246
-0.194006 -0.114012 -0.0931637
-0.0646874 -0.267501 -0.218793
0.116059 0.00452184 -0.427617
0.32084 0.003841 -0.364443
0.395415 0.00144368 -0.136999
0.317239 -0.00151773 0.144028
0.116664 -0.00389378 0.369503
-0.128919 -0.00476761 0.452422
-0.324765 -0.00380199 0.360794
-0.39531 -0.00136971 0.129982
-0.313164 0.00158515 -0.150384
-0.104418 0.00373465 -0.353175
0.115443 0.331184 -0.425345
0.319135 0.282257 -0.362507
0.393315 0.106103 -0.136271
0.315553 -0.111547 0.143263
0.116045 -0.286176 0.36754
-0.128234 -0.350395 0.450019
-0.32304 -0.279431 0.358877
-0.39321 -0.100669 0.129291
-0.3115 0.11647 -0.149585
-0.103863 0.273529 -0.351298
0.0702876 0.530073 -0.258972
0.194306 0.451762 -0.220714
0.23947 0.169823 -0.0829685
0.192125 -0.178536 0.0872256
0.0706544 -0.458035 0.223778
-0.0780756 -0.560824 0.273995
-0.196684 -0.447239 0.218504
-0.239407 -0.161126 0.0787194
-0.189658 0.186416 -0.0910755
-0.0632374 0.437794 -0.213889
-0.00198511 0.524456 0.00731407
-0.00548772 0.446976 0.00623351
-0.00676324 0.168023 0.00234326
-0.00542611 -0.176644 -0.00246348
-0.00199545 -0.453182 -0.00632007
0.00220508 -0.554879 -0.00773834
0.00555483 -0.4425 -0.0061711
0.00676145 -0.159418 -0.00222326
0.00535644 0.184441 0.00257221
0.00178599 0.433155 0.00604079
-0.0734919 0.3165 0.270779
-0.203164 0.269741 0.230775
-0.250387 0.101399 0.086751
-0.200884 -0.106602 -0.0912021
-0.073875 -0.273488 -0.233979
0.0816352 -0.33486 -0.286486
0.205649 -0.267041 -0.228464
0.250321 -0.096206 -0.0823082
0.198304 0.111307 0.0952273
0.0661203 0.261401 0.22364
-0.116645 -0.0135645 0.429775
-0.322451 -0.0115441 0.366275
-0.397402 -0.00433918 0.137687
-0.318833 0.00456178 -0.144751
-0.117251 0.0117033 -0.37136
0.129567 0.0143296 -0.454695
0.326397 0.0114275 -0.362606
0.397296 0.0041169 -0.130635
0.314737 -0.00476406 0.15114
0.104945 -0.0112031 0.354957
-0.114796 -0.338395 0.422961
-0.317035 -0.287686 0.360138
-0.390719 -0.10813 0.135373
-0.313471 0.113677 -0.142319
-0.115279 0.291639 -0.36512
0.127388 0.357085 -0.447054
0.320909 0.284766 -0.356512
0.390616 0.102591 -0.128439
0.30945 -0.118728 0.148616
0.103281 -0.279485 0.349329
-0.0686572 -0.53267 0.252965
-0.179483 -0.429916 0.204167
-0.221063 -0.161297 0.0766001
-0.177355 0.169551 -0.0805199
-0.0652225 0.434986 -0.206575
0.0720736 0.5326 -0.252931
0.181563 0.424732 -0.201705
0.221004 0.153 -0.0726598
0.17518 -0.17776 0.0844184
0.0617705 -0.43994 0.208927
0 -0.645671 0
0 -0.548228 0
0 -0.205686 0
0 0.216211 0
0 0.554693 0
0 0.679169 0
0 0.541617 0
0 0.195106 0
0 -0.22668 0
0 -0.533269 0
-0.00203063 -0.396567 -0.509954
-0.00561355 -0.338293 -0.434617
-0.00691835 -0.127166 -0.163378
-0.00555051 0.133691 0.17176
-0.00204123 0.342984 0.440652
0.00225561 0.419951 0.539536
0.00568222 0.334899 0.430265
0.00691652 0.120653 0.15501
0.00547927 -0.139596 -0.179341
0.00182695 -0.32753 -0.421178
-0.00327782 0.00553657 -0.823164
-0.00906134 0.00470289 -0.701554
-0.0111675 0.00176767 -0.263723
-0.00895961 -0.00185835 0.277254
-0.00329491 -0.00476761 0.711296
0.00364101 -0.00583747 0.870917
0.00917218 -0.00465519 0.694529
0.0111646 -0.00167708 0.250216
0.00884463 0.00194089 -0.28949
0.00294904 0.00457273 -0.679863
-0.00326041 0.405504 -0.818792
-0.0090132 0.345596 -0.697827
-0.0111082 0.129914 -0.262322
-0.00891208 -0.136579 0.275781
-0.00327742 -0.350395 0.707516
0.00362167 -0.429026 0.866289
0.00912346 -0.342136 0.690839
0.0111052 -0.12326 0.248887
0.00879763 0.142608 -0.287953
0.00293338 0.334911 -0.676251
-0.00198511 0.649025 -0.498523
-0.00548772 0.553142 -0.424873
-0.00676324 0.207932 -0.159715
-0.00542612 -0.218602 0.16791
-0.00199545 -0.560824 0.430774
0.00220508 -0.686673 0.527442
0.00555483 -0.547603 0.420619
0.00676145 -0.197283 0.151535
0.00535644 0.228249 -0.175321
0.00178599 0.536038 -0.411737
5.60648e-05 0.642147 0.0140796
0.000154986 0.547279 0.0119996
0.000191015 0.205729 0.00451074
0.000153249 -0.216285 -0.00474223
5.63573e-05 -0.554879 -0.0121661
-6.22756e-05 -0.679397 -0.0148963
-0.000156887 -0.5418 -0.0118795
-0.000190965 -0.195192 -0.00427977
-0.00015128 0.22583 0.00495152
-5.04412e-05 0.530358 0.0116285
0.00207561 0.387524 0.52125
0.00573788 0.330274 0.444244
0.00707161 0.124154 0.166996
0.00567349 -0.130524 -0.175564
0.00208643 -0.33486 -0.450411
-0.00230558 -0.410004 -0.551488
-0.00580811 -0.326967 -0.439796
-0.00706974 -0.117795 -0.158444
-0.00560062 0.136285 0.183314
-0.00186741 0.320062 0.430508
0.00329437 -0.0166084 0.827318
0.00910689 -0.0141347 0.705079
0.0112236 -0.00531293 0.265047
0.0090046 0.00558547 -0.278647
0.00331146 0.0143296 -0.71487
-0.0036593 0.0175453 -0.875293
-0.00921826 0.0139918 -0.698019
-0.0112207 0.00504075 -0.251473
-0.00888903 -0.00583315 0.290946
-0.00296392 -0.0137171 0.683294
0.00324213 -0.414333 0.814201
0.00895392 -0.352245 0.693265
0.0110349 -0.132396 0.260594
0.00885333 0.139187 -0.273964
0.00325581 0.357085 -0.702855
-0.00359778 0.437218 -0.860581
-0.00906326 0.348669 -0.686288
-0.011032 0.125613 -0.247246
-0.00873969 -0.145371 0.286086
-0.00291693 -0.342203 0.67246
0.00193906 -0.652205 0.486959
0.00506908 -0.526392 0.393023
0.00624341 -0.197493 0.147455
0.00500899 0.2076 -0.155001
0.00184206 0.5326 -0.397657
-0.00203555 0.652119 -0.486894
-0.00512783 0.520045 -0.388284
-0.00624175 0.187335 -0.139871
-0.00494756 -0.217651 0.162506
-0.00174456 -0.538665 0.402186
0 -0.514904 0
0 -0.437196 0
0 -0.164028 0
0 0.172422 0
0 0.442351 0
0 0.541617 0
0 0.431924 0
0 0.155591 0
0 -0.18077 0
0 -0.425266 0
-0.0751771 -0.31625 -0.558254
-0.207823 -0.269779 -0.475781
-0.256128 -0.101411 -0.178851
-0.20549 0.106614 0.188028
-0.075569 0.273519 0.482388
0.0835068 0.334899 0.590636
0.210365 0.267072 0.471016
0.25606 0.0962172 0.169691
0.202851 -0.111324 -0.196327
0.0676365 -0.261195 -0.46107
-0.12135 0.00441525 -0.901129
-0.335466 0.00375044 -0.768
-0.41344 0.00140966 -0.2887
-0.3317 -0.00148198 0.303513
-0.121983 -0.00380199 0.778666
0.134796 -0.00465519 0.953404
0.33957 -0.00371239 0.76031
0.413331 -0.00133744 0.273915
0.327441 0.00154779 -0.316909
0.109178 0.00364662 -0.744255
-0.120706 0.323377 -0.896342
-0.333684 0.275603 -0.76392
-0.411244 0.103602 -0.287167
-0.329939 -0.108918 0.3019
-0.121335 -0.279431 0.774529
0.13408 -0.342136 0.948339
0.337766 -0.272844 0.756272
0.411135 -0.0982966 0.27246
0.325701 0.113725 -0.315226
0.108598 0.267082 -0.740301
-0.0734919 0.517578 -0.54574
-0.203164 0.441115 -0.465114
-0.250387 0.16582 -0.174842
-0.200884 -0.174328 0.183813
-0.073875 -0.447239 0.471573
0.0816352 -0.547603 0.577397
0.205649 -0.436698 0.460458
0.250321 -0.157327 0.165888
0.198304 0.182022 -0.191926
0.0661203 0.427475 -0.450734
0.00207561 0.512093 0.0154131
0.00573788 0.43644 0.0131361
0.00707161 0.164063 0.004938
0.00567348 -0.17248 -0.00519137
0.00208643 -0.4425 -0.0133185
-0.00230558 -0.5418 -0.0163073
-0.00580811 -0.43207 -0.0130046
-0.00706974 -0.15566 -0.00468511
-0.00560062 0.180093 0.0054205
-0.00186741 0.422945 0.0127299
0.0768424 0.309039 0.570619
0.212426 0.263384 0.48632
0.261802 0.0990091 0.182813
0.210041 -0.104089 -0.192193
0.0772429 -0.267041 -0.493071
-0.0853566 -0.326967 -0.603719
-0.215025 -0.260747 -0.481451
-0.261733 -0.0939383 -0.17345
-0.207344 0.108683 0.200676
-0.0691347 0.25524 0.471283
0.121963 -0.0132447 0.905676
0.337152 -0.011272 0.771859
0.415518 -0.0042369 0.29015
0.333366 0.00445426 -0.305038
0.122596 0.0114275 -0.782578
-0.135474 0.0139918 -0.958194
-0.341276 0.011158 -0.764131
-0.415408 0.00401985 -0.275291
-0.329086 -0.00465175 0.318503
-0.109729 -0.010939 0.748011
0.120029 -0.330418 0.891317
0.331488 -0.280906 0.758928
0.408531 -0.105582 0.285276
0.327763 0.110998 -0.299911
0.120535 0.284766 -0.769426
-0.133196 0.348669 -0.942089
-0.335537 0.278054 -0.751288
-0.408423 0.100172 -0.270663
-0.323557 -0.115929 0.313181
-0.107989 -0.272897 0.736151
0.0717872 -0.520114 0.533081
0.187666 -0.419782 0.430247
0.231141 -0.157495 0.161422
0.185441 0.165555 -0.169682
0.068196 0.424732 -0.435321
-0.0753594 0.520045 -0.53301
-0.18984 0.414721 -0.425059
-0.23108 0.149394 -0.153118
-0.183167 -0.17357 0.177897
-0.0645866 -0.42957 0.440279
0 -0.185483 0
0 -0.15749 0
0 -0.0590875 0
0 0.0621112 0
0 0.159347 0
0 0.195106 0
0 0.155591 0
0 0.0560481 0
0 -0.0651184 0
0 -0.153193 0
-0.11932 -0.113922 -0.391175
-0.329846 -0.0971916 -0.333393
-0.406513 -0.036535 -0.125326
-0.326143 0.0384096 0.131757
-0.119939 0.0985402 0.338023
0.132538 0.120653 0.413877
0.33388 0.0962173 0.330056
0.406405 0.0346637 0.118908
0.321954 -0.0401058 -0.137571
0.107351 -0.0940898 -0.323077
-0.192605 0.0015905 -0.631431
-0.532434 0.00135114 -0.538159
-0.656192 0.000507848 -0.202301
-0.526458 -0.000533898 0.212681
-0.193605 -0.00136972 0.545634
0.213941 -0.00167709 0.668077
0.538947 -0.00133745 0.532772
0.656018 -0.000481835 0.19194
0.519696 0.000557611 -0.222067
0.173286 0.00131361 -0.521508
-0.191582 0.116489 -0.628077
-0.529606 0.0992902 -0.5353
-0.652706 0.0373245 -0.201226
-0.523662 -0.0392396 0.211551
-0.192577 -0.100669 0.542736
0.212805 -0.12326 0.664529
0.536084 -0.0982967 0.529943
0.652533 -0.0354131 0.190921
0.516935 0.040971 -0.220887
0.172365 0.0962102 -0.518737
-0.116645 0.186446 -0.382406
-0.322451 0.158918 -0.32592
-0.397402 0.0597395 -0.122517
-0.318833 -0.0628047 0.128803
-0.117251 -0.161126 0.330446
0.129567 -0.197284 0.4046
0.326397 -0.157328 0.322657
0.397296 -0.05668 0.116242
0.314737 0.0655757 -0.134488
0.104945 0.153988 -0.315834
0.00329437 0.18447 0.0108002
0.00910689 0.157234 0.00920482
0.0112236 0.0591064 0.00346021
0.0090046 -0.0621391 -0.00363774
0.00331146 -0.159419 -0.00933261
-0.0036593 -0.195193 -0.0114269
-0.00921826 -0.15566 -0.00911265
-0.0112207 -0.0560793 -0.003283
-0.00888903 0.0648808 0.00379831
-0.00296392 0.152356 0.00892
0.121963 0.111324 0.399839
0.337152 0.0948877 0.340777
0.415518 0.0356697 0.128102
0.333367 -0.0374998 -0.134675
0.122596 -0.0962062 -0.34551
-0.135474 -0.117795 -0.423044
-0.341276 -0.0939384 -0.337366
-0.415408 -0.0338429 -0.121542
-0.329086 0.0391543 0.140619
-0.109729 0.0919444 0.330233
0.193577 -0.00477111 0.634618
0.535109 -0.0040609 0.540864
0.659488 -0.00152641 0.203317
0.529102 0.00160471 -0.213749
0.194578 0.0041169 -0.548376
-0.215016 0.00504076 -0.671434
-0.541655 0.00401985 -0.535449
-0.659313 0.00144821 -0.192905
-0.522308 -0.00167584 0.223183
-0.17416 -0.00394052 0.52414
0.190508 -0.119026 0.624556
0.526121 -0.101199 0.531801
0.648401 -0.0380373 0.199901
0.520206 0.0399885 -0.210157
0.191306 0.102591 -0.539159
-0.211401 0.125613 -0.660151
-0.532548 0.100172 -0.526451
-0.648229 0.0360885 -0.189662
-0.513532 -0.0417645 0.219455
-0.171399 -0.098305 0.515829
0.113939 -0.18736 0.373536
0.297859 -0.151217 0.301479
0.366863 -0.0567341 0.11311
0.294328 0.0596374 -0.118898
0.108239 0.153 -0.305034
-0.119609 0.187335 -0.373486
-0.301311 0.149394 -0.297844
-0.366765 0.0538158 -0.107292
-0.290719 -0.0625248 0.124655
-0.102511 -0.154743 0.308508
0 0.215499 0
0 0.182976 0
0 0.0686497 0
0 -0.0721627 0
0 -0.185134 0
0 -0.226679 0
0 -0.18077 0
0 -0.0651184 0
0 0.0756565 0
0 0.177984 0
-0.117428 0.132358 -0.0731778
-0.324305 0.112472 -0.0627339
-0.399679 0.0422702 -0.0235896
-0.32066 -0.0444383 0.0248007
-0.117923 -0.114007 0.0636261
0.130309 -0.139591 0.0779043
0.328268 -0.111319 0.0621264
0.399573 -0.0401041 0.0223826
0.316546 0.0464215 -0.0258781
0.105649 0.109316 -0.0604386
-0.189551 -0.00184789 -0.118123
-0.52349 -0.0015639 -0.101264
-0.64516 -0.000587704 -0.0380783
-0.517605 0.000617843 0.0400331
-0.19035 0.00158507 0.102705
0.210344 0.00194079 0.125752
0.529886 0.00154772 0.100284
0.644989 0.000557583 0.0361298
0.510965 -0.000645555 -0.0417723
0.170538 -0.00152619 -0.0975595
-0.188544 -0.135341 -0.117496
-0.520709 -0.114896 -0.100726
-0.641732 -0.0431817 -0.037876
-0.514855 0.0453967 0.0398205
-0.189338 0.116465 0.102159
0.209227 0.142601 0.125084
0.527071 0.11372 0.0997514
0.641562 0.0409691 0.0359379
0.508251 -0.0474215 -0.0415504
0.169632 -0.11178 -0.0970413
-0.114796 -0.216618 -0.0715374
-0.317035 -0.183896 -0.0613276
-0.390719 -0.0691143 -0.0230609
-0.313471 0.0726592 0.0242447
-0.115279 0.186408 0.0621999
0.127388 0.228239 0.076158
0.320909 0.182014 0.0607339
0.390616 0.0655727 0.0218808
0.309449 -0.0758997 -0.025298
0.103281 -0.178908 -0.0590838
0.00324213 -0.214323 0.00202041
0.00895392 -0.181947 0.00173206
0.0110349 -0.0683818 0.000651299
0.00885333 0.0718893 -0.000684733
0.00325581 0.184433 -0.00175669
-0.00359778 0.22582 -0.00215091
-0.00906326 0.180085 -0.00171528
-0.011032 0.0648777 -0.000617973
-0.00873969 -0.0750953 0.000714485
-0.00291693 -0.177012 0.00166868
0.120029 -0.12934 0.0747988
0.331488 -0.109802 0.0641235
0.408531 -0.0412673 0.0241122
0.327763 0.0433839 -0.02535
0.120535 0.111302 -0.0650355
-0.133196 0.136279 -0.0796301
-0.335537 0.108678 -0.0635024
-0.408423 0.0391525 -0.0228783
-0.323557 -0.0453187 0.0264514
-0.107989 -0.106824 0.0617773
0.190508 0.00554322 0.118719
0.526121 0.00470004 0.101773
0.648401 0.0017663 0.0382695
0.520206 -0.00185688 -0.040234
0.191306 -0.00476385 -0.10322
-0.211401 -0.00583289 -0.126384
-0.532548 -0.00465155 -0.100787
-0.648229 -0.00167577 -0.0363111
-0.513532 0.00194003 0.0419821
-0.171399 0.00457822 0.0980518
0.187487 0.138288 0.116837
0.517295 0.117137 0.100054
0.637514 0.0440191 0.0376206
0.511472 -0.0462766 -0.0395517
0.188094 -0.118723 -0.10147
-0.207852 -0.145365 -0.124241
-0.523607 -0.115924 -0.0990784
-0.637345 -0.0417627 -0.0356953
-0.504918 0.0483524 0.0412752
-0.168681 0.114214 0.0964972
0.112133 0.21768 0.069878
0.293137 0.175689 0.0563983
0.361046 0.0659154 0.0211597
0.289662 -0.0692885 -0.0222425
0.106523 -0.17776 -0.0570634
-0.117713 -0.217651 -0.0698688
-0.296534 -0.17357 -0.0557183
-0.36095 -0.0625248 -0.0200713
-0.286109 0.0726432 0.0233194
-0.100885 0.179785 0.0577133
0 0.53334 0
0 0.430457 0
0 0.1615 0
0 -0.169764 0
0 -0.435533 0
0 -0.533269 0
0 -0.425266 0
0 -0.153193 0
0 0.177984 0
0 0.440493 0
-0.0702315 0.327573 0.273052
-0.183599 0.264383 0.220379
-0.226132 0.0991921 0.0826825
-0.181422 -0.104268 -0.0869137
-0.0667181 -0.267501 -0.222978
0.0737262 -0.32753 -0.273016
0.185726 -0.261195 -0.217722
0.226072 -0.0940898 -0.0784295
0.179197 0.109316 0.0911217
0.0631869 0.270547 0.225517
-0.113367 -0.00457334 0.440758
-0.296364 -0.00369112 0.355735
-0.365021 -0.00138485 0.133466
-0.29285 0.00145571 -0.140295
-0.107696 0.00373465 -0.359929
0.119008 0.00457273 -0.4407
0.299798 0.00364662 -0.351445
0.364924 0.00131361 -0.1266
0.289259 -0.00152619 0.147088
0.101996 -0.00377718 0.364029
-0.112765 -0.334956 0.438417
-0.294789 -0.270341 0.353845
-0.363082 -0.101428 0.132757
-0.291295 0.106618 -0.13955
-0.107124 0.273529 -0.358017
0.118376 0.334911 -0.438359
0.298206 0.267082 -0.349578
0.362985 0.0962102 -0.125928
0.287722 -0.11178 0.146307
0.101454 -0.276644 0.362095
-0.0686572 -0.53611 0.266931
-0.179483 -0.432692 0.215439
-0.221063 -0.162339 0.0808291
-0.177355 0.170646 -0.0849654
-0.0652225 0.437794 -0.21798
0.0720736 0.536038 -0.266896
0.181563 0.427475 -0.212841
0.221004 0.153988 -0.0766713
0.17518 -0.178908 0.0890791
0.0617705 -0.44278 0.220462
0.00193906 -0.530429 -0.00753885
0.00506908 -0.428107 -0.00608458
0.00624341 -0.160618 -0.00228283
0.00500899 0.168838 0.00239965
0.00184206 0.433155 0.00615632
-0.00203555 0.530358 0.00753784
-0.00512783 0.422945 0.00601121
-0.00624175 0.152356 0.0021654
-0.00494756 -0.177012 -0.00251583
-0.00174456 -0.438088 -0.00622644
0.0717872 -0.320104 -0.2791
0.187666 -0.258355 -0.225261
0.231141 -0.0969304 -0.084514
0.185441 0.101891 0.0888389
0.068196 0.261401 0.227917
-0.0753593 0.320062 0.279063
-0.18984 0.25524 0.222545
-0.23108 0.0919444 0.0801667
-0.183167 -0.106824 -0.0931401
-0.0645866 -0.264378 -0.230513
0.113939 0.0137189 -0.442983
0.297859 0.0110725 -0.35753
0.366863 0.00415421 -0.134139
0.294328 -0.0043668 0.141003
0.108239 -0.0112031 0.361746
-0.119609 -0.0137171 0.442924
-0.301311 -0.010939 0.353219
-0.366765 -0.00394053 0.127239
-0.290719 0.00457822 -0.14783
-0.102511 0.0113307 -0.365866
0.112133 0.342249 -0.435959
0.293137 0.276228 -0.351861
0.361046 0.103636 -0.132012
0.289661 -0.108939 0.138768
0.106523 -0.279485 0.35601
-0.117713 -0.342203 0.435901
-0.296534 -0.272897 0.347618
-0.36095 -0.098305 0.125222
-0.286109 0.114214 -0.145486
-0.100885 0.282668 -0.360065
0.0670646 0.538737 -0.260739
0.17532 0.434813 -0.210442
0.215935 0.163134 -0.0789542
0.173241 -0.171482 0.0829945
0.0637096 -0.43994 0.212923
-0.0704017 -0.538665 0.260705
-0.177352 -0.42957 0.207904
-0.215878 -0.154743 0.0748929
-0.171117 0.179785 -0.0870128
-0.0603377 0.44495 -0.215348
