# vtk DataFile Version 3.0
Velocity field
ASCII
DATASET STRUCTURED_POINTS
DIMENSIONS 5 5 5
SPACING 1.33333 1.33333 1.33333
ORIGIN 0 0 0
POINT_DATA 125
VECTORS velocity float
0 0.0259296 0
0 0.00609961 0
0 -0.0230599 0
0 -0.0169487 0
0 0.0150859 0
0 -0.0137304 0.0450319
0 -0.00322989 0.0122084
0 0.0122108 -0.0461544
0 0.00897476 -0.0339229
0 -0.00798837 0.0261997
0 -0.0323894 0.0211864
0 -0.00761919 0.00574374
0 0.0288047 -0.0217145
0 0.0211711 -0.0159599
0 -0.0188442 0.0123263
0 -0.00150804 -0.0350642
0 -0.000354748 -0.00950609
0 0.00134114 0.0359382
0 0.000985722 0.0264141
0 -0.000877385 -0.0204005
0 0.0316799 -0.0376832
0 0.0074523 -0.00886451
0 -0.0281738 0.0335127
0 -0.0207073 0.0246314
0 0.0184315 -0.0219242
0 0.00609961 0
0 0.00182578 0
0 -0.00690243 0
0 -0.0050732 0
0 0.00354877 0
0.0192735 -0.00322989 0.0158144
0.0284232 -0.000761801 0.00373166
-0.00595686 0.00288003 -0.0141078
-0.0312257 0.00211679 -0.010369
-0.00870889 -0.00187916 0.00920089
0.0090677 -0.00761919 0.00744029
0.0133724 -0.00179749 0.00175565
-0.00280255 0.00679554 -0.00663734
-0.0146909 0.00499463 -0.00487837
-0.00409731 -0.00443287 0.00432879
-0.0150074 -0.000354748 -0.0123139
-0.0221318 -8.36926e-05 -0.00290566
0.00463832 0.000316405 0.010985
0.024314 0.000232554 0.00807387
0.0067812 -0.000206394 -0.0071643
-0.0161283 0.0074523 -0.0132337
-0.0237163 0.00175306 -0.00311306
0.00497039 -0.00662752 0.0117691
0.0260547 -0.00487114 0.00865012
0.0072877 0.00433577 -0.00769941
0 -0.0230599 0
0 -0.00690244 0
0 0.026095 0
0 0.0191795 0
0 -0.0134163 0
0.0090677 0.0122108 -0.0375916
0.0133724 0.00288003 -0.00886851
-0.00280255 -0.0108881 0.0335279
-0.0146909 -0.00800265 0.0246427
-0.00409731 0.00710426 -0.0218709
0.00426613 0.0288047 -0.0176859
0.00629138 0.00679554 -0.00417241
-0.00131853 -0.0256909 0.0157741
-0.00691173 -0.0188825 0.0115938
-0.00192768 0.0167587 -0.0102897
-0.00706059 0.00134114 0.0292708
-0.0104124 0.000316405 0.00690549
0.00218222 -0.00119619 -0.0261066
0.0114391 -0.000879183 -0.0191881
0.00319039 0.00078028 0.0170299
-0.00758796 -0.0281738 0.0314571
-0.0111579 -0.00662752 0.00739989
0.00233844 0.0250557 -0.0279756
0.0122581 0.0184156 -0.0205617
0.00342868 -0.0163916 0.0183019
0 -0.0169487 0
0 -0.0050732 0
0 0.0191795 0
0 0.0140967 0
0 -0.0098608 0
-0.0150074 0.00897476 -0.0335003
-0.0221318 0.00211679 -0.00790332
0.00463832 -0.00800265 0.029879
0.024314 -0.00588185 0.0219607
0.0067812 0.00522154 -0.0194906
-0.00706059 0.0211711 -0.0157611
-0.0104124 0.00499463 -0.00371831
0.00218222 -0.0188825 0.0140573
0.0114391 -0.0138784 0.010332
0.00319039 0.0123174 -0.00916985
0.0116855 0.000985722 0.0260851
0.017233 0.000232554 0.00615394
-0.00361164 -0.000879183 -0.0232653
-0.0189322 -0.00064619 -0.0170997
-0.0052802 0.000573496 0.0151764
0.0125583 -0.0207073 0.0280335
0.0184667 -0.00487114 0.00659453
-0.00387021 0.0184156 -0.0249309
-0.0202876 0.0135352 -0.0183239
-0.00567459 -0.0120476 0.01631
0 0.0150859 0
0 0.00354877 0
0 -0.0134163 0
0 -0.00986081 0
0 0.00877704 0
-0.0161283 -0.00798837 0.0218305
-0.0237162 -0.00187916 0.00513536
0.00497038 0.00710426 -0.0194145
0.0260547 0.00522154 -0.0142694
0.0072877 -0.00464766 0.0127011
-0.00758796 -0.0188442 0.0102707
-0.0111579 -0.00443287 0.00241606
0.00233844 0.0167587 -0.00913403
0.0122581 0.0123174 -0.00671339
0.00342868 -0.0109636 0.00597554
0.0125583 -0.000877385 -0.0169984
0.0184667 -0.000206394 -0.00399867
-0.0038702 0.000780281 0.0151171
-0.0202875 0.000573496 0.0111109
-0.00567459 -0.000510465 -0.00988974
0.0134963 0.0184315 -0.0182681
0.019846 0.00433577 -0.00429733
-0.00415928 -0.0163916 0.0162463
-0.0218029 -0.0120476 0.0119408
-0.00609844 0.0107235 -0.0106284
