# vtk DataFile Version 3.0
Velocity field
ASCII
DATASET STRUCTURED_POINTS
DIMENSIONS 8 8 8
SPACING 0.8 0.8 0.8
ORIGIN 0 0 0
POINT_DATA 512
VECTORS velocity float
0 0.432459 0
0 0.301297 0
0 -0.0126276 0
0 -0.318892 0
0 -0.431721 0
0 -0.282674 0
0 0.0378398 0
0 0.3354 0
0 0.170135 0.441389
0 0.118534 0.326042
0 -0.00496787 -0.0136647
0 -0.125456 -0.345083
0 -0.169845 -0.467178
0 -0.111208 -0.30589
0 0.0148867 0.0409476
0 0.131951 0.342326
0 -0.19539 0.615037
0 -0.13613 0.454312
0 0.0057053 -0.0190406
0 0.14408 -0.480843
0 0.195057 -0.650973
0 0.127716 -0.426231
0 -0.0170965 0.0570569
0 -0.151538 0.477002
0 -0.442394 0.415612
0 -0.308219 0.307002
0 0.0129177 -0.0128667
0 0.326219 -0.32493
0 0.44164 -0.439896
0 0.289168 -0.288026
0 -0.0387091 0.0385563
0 -0.343106 0.322334
0 -0.421048 -0.0359176
0 -0.293347 -0.0265314
0 0.0122944 0.00111195
0 0.310478 0.0280808
0 0.42033 0.0380162
0 0.275215 0.0248915
0 -0.0368413 -0.00333207
0 -0.32655 -0.0278565
0 -0.1443 -0.46566
0 -0.100534 -0.343971
0 0.00421348 0.0144161
0 0.106406 0.364059
0 0.144054 0.492868
0 0.0943205 0.32271
0 -0.0126261 -0.0431992
0 -0.111914 -0.36115
0 0.219979 -0.612939
0 0.153261 -0.452762
0 -0.00642329 0.0189756
0 -0.162211 0.479203
0 -0.219604 0.648753
0 -0.143788 0.424777
0 0.019248 -0.0568623
0 0.170608 -0.475375
0 0.450821 -0.388418
0 0.31409 -0.270613
0 -0.0131638 0.0113416
0 -0.332433 0.286417
0 -0.450053 0.387756
0 -0.294676 0.253887
0 0.0394465 -0.0339862
0 0.349642 -0.301244
0 0.301297 0
0 0.227906 0
0 -0.00955173 0
0 -0.241216 0
0 -0.326561 0
0 -0.213819 0
0 0.0286227 0
0 0.233675 0
0.0940897 0.118534 0.435972
0.233799 0.0858702 0.31539
0.228137 -0.00360193 -0.0132294
0.0840459 -0.0909475 -0.334036
-0.111026 -0.123127 -0.452227
-0.238752 -0.0806182 -0.296102
-0.221621 0.0107465 0.0394727
-0.0675113 0.0919311 0.338125
0.131106 -0.13613 0.607489
0.325774 -0.0983518 0.439474
0.317885 0.00412523 -0.018434
0.117112 0.104163 -0.465455
-0.154703 0.141016 -0.630131
-0.332676 0.092332 -0.412591
-0.308806 -0.0123107 0.0550023
-0.0940711 -0.105577 0.471148
0.088595 -0.308219 0.410511
0.220144 -0.222687 0.296976
0.214814 0.00934062 -0.0124567
0.0791372 0.235848 -0.314527
-0.104542 0.319291 -0.425817
-0.224808 0.209063 -0.278808
-0.208679 -0.0278743 0.0371679
-0.0635687 -0.239044 0.318379
-0.00765646 -0.293347 -0.0354768
-0.019025 -0.211946 -0.0256649
-0.0185645 0.00888982 0.00107652
-0.0068392 0.224467 0.0271821
0.00903461 0.303888 0.0367995
0.0194279 0.198975 0.0240948
0.0180342 -0.0265293 -0.00321207
0.00549367 -0.22751 -0.0275146
-0.0992636 -0.100534 -0.459945
-0.246651 -0.0726377 -0.332733
-0.240683 0.00304672 0.0139567
-0.0886663 0.0769294 0.3524
0.117131 0.104149 0.477094
0.251876 0.0681922 0.312379
0.233808 -0.00909206 -0.0416433
0.0712236 -0.0779711 -0.356718
-0.130659 0.153261 -0.605417
-0.324568 0.110632 -0.437852
-0.316708 -0.00464021 0.0183655
-0.116678 -0.117165 0.463731
0.15413 -0.158619 0.627796
0.331442 -0.10386 0.411062
0.307663 0.0138495 -0.0548012
0.0937503 0.118864 -0.469541
-0.0827981 0.31409 -0.383651
-0.19817 0.218829 -0.267292
-0.193335 -0.00917129 0.0112024
-0.0712251 -0.231608 0.282902
0.0940887 -0.313555 0.382997
0.20233 -0.205303 0.250771
0.18784 0.0274826 -0.0335692
0.0594093 0.243598 -0.297547
0 -0.0126276 0
0 -0.00955173 0
0 0.000400321 0
0 0.0101095 0
0 0.0136865 0
0 0.00896135 0
0 -0.0011996 0
0 -0.00979353 0
0.131106 -0.00496787 0.1661
0.325774 -0.00360193 0.12009
0.317885 0.000151093 -0.00503713
0.117112 0.00381503 -0.127186
-0.154703 0.00516475 -0.172186
-0.332676 0.00338173 -0.112743
-0.308806 -0.000450717 0.0150303
-0.0940711 -0.00385291 0.128822
0.182685 0.0057053 0.231446
0.453943 0.00412523 0.167333
0.44295 -0.000173033 -0.00701885
0.163183 -0.00436908 -0.177222
-0.215569 -0.00591493 -0.239932
-0.46356 -0.00387292 -0.157096
-0.430301 0.000516301 0.0209433
-0.13108 0.00442484 0.179502
0.123449 0.0129177 0.1564
0.306749 0.00934062 0.113076
0.299326 -0.000391791 -0.00474304
0.110272 -0.00989263 -0.119761
-0.14567 -0.013393 -0.162131
-0.313247 -0.00876911 -0.106159
-0.290776 0.00116903 0.0141525
-0.0885774 0.0100185 0.121299
-0.0106686 0.0122944 -0.0135163
-0.0265098 0.00888982 -0.00977206
-0.0258679 -0.000372887 0.000409895
-0.0095298 -0.00941545 0.0103497
0.0125889 -0.0127466 0.0140117
0.0270715 -0.00834597 0.00917436
0.025129 0.00111262 -0.00122306
0.00765495 0.00953512 -0.0104828
-0.138315 0.00421348 -0.175234
-0.343684 0.00304672 -0.126691
-0.335365 -0.000127796 0.00531409
-0.123551 -0.00322683 0.134179
0.16321 -0.0043685 0.181654
0.350965 -0.00286032 0.118943
0.325786 0.000381314 -0.0158566
0.0992439 0.00326783 -0.135905
-0.182062 -0.00642329 -0.230657
-0.452263 -0.00464021 -0.166714
-0.44131 0.000194629 0.00699287
-0.162579 0.00491437 0.176566
0.21477 0.00665317 0.239041
0.461844 0.00435623 0.156514
0.428707 -0.000580829 -0.0208666
0.130633 -0.00498168 -0.17889
-0.115372 -0.0131638 -0.146167
-0.276133 -0.00917129 -0.101835
-0.269395 0.000384376 0.004268
-0.099246 0.00970689 0.107782
0.131104 0.0131413 0.145918
0.281929 0.00860442 0.095541
0.261739 -0.00115182 -0.0127895
0.0827817 -0.0102094 -0.113362
0 -0.318892 0
0 -0.241216 0
0 0.0101095 0
0 0.255302 0
0 0.345632 0
0 0.226306 0
0 -0.0302942 0
0 -0.247322 0
0.088595 -0.125456 -0.204525
0.220144 -0.0909475 -0.147867
0.214814 0.00381503 0.00620228
0.0791372 0.0963266 0.156605
-0.104542 0.130409 0.212017
-0.224808 0.0853862 0.13882
-0.208679 -0.0113807 -0.018507
-0.0635687 -0.0972998 -0.158623
0.123449 0.14408 -0.284988
0.306749 0.104163 -0.20604
0.299326 -0.00436908 0.00864232
0.110272 -0.110319 0.218219
-0.14567 -0.149353 0.295428
-0.313247 -0.0977896 0.193433
-0.290776 0.0130369 -0.0257877
-0.0885774 0.111743 -0.221027
0.0834211 0.326219 -0.192581
0.207288 0.235848 -0.139231
0.202269 -0.00989263 0.00584003
0.074517 -0.249787 0.147462
-0.0984362 -0.338166 0.199635
-0.21168 -0.22142 0.130712
-0.196491 0.0295187 -0.017426
-0.0598563 0.253004 -0.149359
-0.00720933 0.310478 0.0166431
-0.017914 0.224467 0.0120325
-0.0174802 -0.00941545 -0.000504703
-0.00643979 -0.237738 -0.0127437
0.0085069 -0.321847 -0.0172525
0.0182936 -0.210736 -0.0112963
0.0169808 0.0280943 0.00150597
0.00517284 0.240796 0.0129078
-0.0934667 0.106406 0.215772
-0.232249 0.0769294 0.155996
-0.226626 -0.00322683 -0.00654334
-0.083489 -0.0814761 -0.165217
0.11029 -0.110304 -0.223675
0.237171 -0.0722235 -0.146454
0.220152 0.00962841 0.0195244
0.0670642 0.0825245 0.167345
-0.123028 -0.162211 0.284017
-0.305614 -0.117165 0.205279
-0.298216 0.00491437 -0.00861031
-0.109864 0.124088 -0.217411
0.14513 0.167991 -0.294333
0.312087 0.109994 -0.192717
0.289698 -0.0146663 0.0256935
0.0882753 -0.125805 0.220274
-0.0779627 -0.332433 0.17998
-0.186597 -0.231608 0.125394
-0.182044 0.00970689 -0.00525535
-0.0670656 0.245134 -0.132716
0.088594 0.331866 -0.179674
0.190514 0.217293 -0.117643
0.17687 -0.0290876 0.0157481
0.0559398 -0.257824 0.139587
0 -0.431721 0
0 -0.326561 0
0 0.0136865 0
0 0.345632 0
0 0.467922 0
0 0.306377 0
0 -0.0410127 0
0 -0.334828 0
-0.00765646 -0.169845 -0.451089
-0.019025 -0.123127 -0.326123
-0.0185645 0.00516475 0.0136794
-0.0068392 0.130409 0.345396
0.00903461 0.176548 0.467614
0.0194279 0.115599 0.306173
0.0180342 -0.0154075 -0.0408175
0.00549367 -0.131726 -0.349849
-0.0106686 0.195057 -0.628553
-0.0265098 0.141016 -0.454427
-0.0258679 -0.00591493 0.0190612
-0.0095298 -0.149353 0.481293
0.0125889 -0.202195 0.65157
0.0270715 -0.132389 0.426629
0.025129 0.0176496 -0.056876
0.00765495 0.15128 -0.487484
-0.00720933 0.44164 -0.424746
-0.017914 0.319291 -0.307079
-0.0174802 -0.013393 0.0128806
-0.00643979 -0.338166 0.325228
0.0085069 -0.457818 0.440302
0.0182936 -0.299763 0.288294
0.0169808 0.0399624 -0.0384339
0.00517284 0.342521 -0.329418
0.000623038 0.42033 0.0367069
0.00154814 0.303888 0.0265383
0.00151066 -0.0127466 -0.00111314
0.000556531 -0.321847 -0.0281068
-0.000735178 -0.435729 -0.0380514
-0.00158094 -0.285297 -0.0249146
-0.0014675 0.0380345 0.0033215
-0.000447042 0.325994 0.0284686
0.00807748 0.144054 0.475893
0.0200709 0.104149 0.344054
0.019585 -0.0043685 -0.0144316
0.00721526 -0.110304 -0.364389
-0.00953133 -0.149333 -0.493323
-0.0204962 -0.0977765 -0.323006
-0.0190257 0.0130351 0.0430617
-0.00579576 0.111723 0.369087
0.0106322 -0.219604 0.626409
0.0264117 -0.158619 0.452748
0.0257721 0.00665317 -0.0189905
0.0094945 0.167991 -0.479506
-0.0125423 0.22743 -0.649158
-0.0269712 0.148913 -0.425049
-0.025036 -0.0198553 0.0566682
-0.00762884 -0.170317 0.485822
0.00673762 -0.450053 0.396954
0.0161259 -0.313555 0.27656
0.0157324 0.0131413 -0.0115909
0.00579588 0.331866 -0.292711
-0.00765638 0.449285 -0.396277
-0.0164644 0.294174 -0.259466
-0.0152853 -0.0393792 0.0347331
-0.00483438 -0.349045 0.307864
0 -0.282674 0
0 -0.213819 0
0 0.00896135 0
0 0.226306 0
0 0.306377 0
0 0.200603 0
0 -0.0268535 0
0 -0.219232 0
-0.0992636 -0.111208 -0.424028
-0.246651 -0.0806182 -0.306561
-0.240683 0.00338173 0.0128588
-0.0886663 0.0853862 0.324679
0.117131 0.115599 0.43956
0.251876 0.07569 0.287808
0.233808 -0.0100883 -0.038369
0.0712236 -0.0862488 -0.328861
-0.138315 0.127716 -0.590846
-0.343684 0.092332 -0.42717
-0.335365 -0.00387292 0.0179176
-0.123551 -0.0977896 0.452418
0.16321 -0.132389 0.612486
0.350965 -0.0866824 0.401034
0.325786 0.0115562 -0.053464
0.0992439 0.0990518 -0.45824
-0.0934667 0.289168 -0.399265
-0.232249 0.209063 -0.28866
-0.226626 -0.00876911 0.0121078
-0.083489 -0.22142 0.30572
0.11029 -0.299763 0.41389
0.237171 -0.196272 0.270997
0.220152 0.0261661 -0.0361284
0.0670642 0.224269 -0.309656
0.00807748 0.275215 0.0345049
0.0200709 0.198975 0.0249463
0.019585 -0.00834597 -0.00104636
0.00721526 -0.210736 -0.0264207
-0.00953134 -0.285297 -0.0357687
-0.0204962 -0.1868 -0.0234199
-0.0190257 0.0249035 0.00312224
-0.00579576 0.213448 0.0267608
0.104722 0.0943205 0.447344
0.260212 0.0681922 0.323415
0.253911 -0.00286032 -0.0135659
0.0935419 -0.0722235 -0.34253
-0.123571 -0.0977765 -0.463731
-0.265725 -0.0640199 -0.303633
-0.246661 0.00853486 0.0404786
-0.0751401 0.0731517 0.346945
0.137843 -0.143788 0.588831
0.342412 -0.10386 0.425591
0.334122 0.00435623 -0.0178512
0.123093 0.109994 -0.450743
-0.162605 0.148913 -0.610218
-0.349665 0.0975028 -0.39955
-0.32458 -0.0130006 0.0532685
-0.0989055 -0.111517 0.456677
0.087351 -0.294676 0.37314
0.209067 -0.205303 0.259969
0.203966 0.00860442 -0.0108955
0.0751417 0.217293 -0.275151
-0.0992625 0.294174 -0.372504
-0.213455 0.192613 -0.243901
-0.198169 -0.0257839 0.0326495
-0.0626761 -0.228541 0.289395
0 0.0378398 0
0 0.0286227 0
0 -0.0011996 0
0 -0.0302942 0
0 -0.0410127 0
0 -0.0268535 0
0 0.00359471 0
0 0.0293472 0
-0.130659 0.0148867 -0.139757
-0.324568 0.0107462 -0.101116
-0.316708 -0.000450704 0.00424142
-0.116678 -0.0113804 0.107095
0.15413 -0.0154071 0.144986
0.331442 -0.010088 0.0949309
0.307663 0.00134553 -0.0126542
0.0937503 0.0115456 -0.108391
-0.182062 -0.0170965 -0.194739
-0.452263 -0.0123104 -0.140896
-0.44131 0.000516285 0.00591001
-0.162579 0.0130366 0.149228
0.21477 0.017649 0.202025
0.461844 0.0115559 0.132279
0.428707 -0.00154163 -0.0176326
0.130633 -0.0132594 -0.151033
-0.123028 -0.0387091 -0.131595
-0.305614 -0.0278735 -0.0952103
-0.298216 0.001169 0.00399373
-0.109864 0.0295178 0.10084
0.14513 0.0399612 0.136519
0.312087 0.0261653 0.0893872
0.289698 -0.00349056 -0.0119152
0.0882753 -0.0300215 -0.102061
0.0106322 -0.0368413 0.0113726
0.0264117 -0.0265285 0.00822819
0.0257721 0.00111258 -0.000345139
0.0094945 0.0280934 -0.00871473
-0.0125423 0.0380333 -0.011798
-0.0269712 0.0249027 -0.00772499
-0.025036 -0.00332214 0.00102973
-0.00762884 -0.0285729 0.0088202
0.137843 -0.0126261 0.147442
0.342412 -0.00909181 0.106676
0.334122 0.000381302 -0.00447464
0.123093 0.00962812 -0.112983
-0.162605 0.0130347 -0.152958
-0.349665 0.00853461 -0.100151
-0.32458 -0.00113856 0.0133501
-0.0989055 -0.00979237 0.114351
0.181441 0.019248 0.194075
0.450591 0.0138491 0.140375
0.439677 -0.000580812 -0.00588806
0.161977 -0.0146659 -0.148673
-0.213974 -0.0198547 -0.201275
-0.460136 -0.0130002 -0.131788
-0.42712 0.00173449 0.017568
-0.130187 0.0149281 0.150518
0.114978 0.0394465 0.122985
0.275191 0.0274826 0.0856844
0.268476 -0.00115182 -0.0035911
0.0989075 -0.0290876 -0.0906883
-0.130657 -0.0393792 -0.122775
-0.280967 -0.0257839 -0.0803883
-0.260846 0.00345154 0.0107611
-0.0824994 0.0305933 0.0953829
0 0.3354 0
0 0.233675 0
0 -0.00979353 0
0 -0.247322 0
0 -0.334828 0
0 -0.219232 0
0 0.0293472 0
0 0.260125 0
-0.0827981 0.131951 0.229288
-0.19817 0.0919311 0.159747
-0.193335 -0.00385291 -0.00669511
-0.0712251 -0.0972998 -0.169076
0.0940887 -0.131726 -0.228897
0.20233 -0.0862488 -0.149873
0.18784 0.0115456 0.0200625
0.0594093 0.102337 0.177828
-0.115372 -0.151538 0.319493
-0.276133 -0.105577 0.222593
-0.269395 0.00442484 -0.00932906
-0.099246 0.111743 -0.235592
0.131104 0.15128 -0.318948
0.281929 0.0990518 -0.208835
0.261739 -0.0132594 0.0279554
0.0827817 -0.117528 0.247788
-0.0779627 -0.343106 0.215898
-0.186597 -0.239044 0.150418
-0.182044 0.0100185 -0.00630412
-0.0670656 0.253004 -0.159202
0.088594 0.342521 -0.21553
0.190514 0.224269 -0.14112
0.17687 -0.0300215 0.0188909
0.0559398 -0.266101 0.167443
0.00673762 -0.32655 -0.0186581
0.0161259 -0.22751 -0.0129992
0.0157324 0.00953512 0.000544808
0.00579588 0.240796 0.0137584
-0.00765638 0.325994 0.0186263
-0.0164644 0.213448 0.0121958
-0.0152853 -0.0285729 -0.00163257
-0.00483438 -0.253261 -0.0144706
0.087351 -0.111914 -0.241896
0.209067 -0.0779711 -0.168531
0.203966 0.00326783 0.00706326
0.0751417 0.0825245 0.178373
-0.0992625 0.111723 0.241484
-0.213455 0.0731517 0.158114
-0.198169 -0.00979237 -0.0211657
-0.0626761 -0.0867965 -0.187607
0.114978 0.170608 -0.318404
0.275191 0.118864 -0.221834
0.268476 -0.00498168 0.00929724
0.0989075 -0.125805 0.234789
-0.130657 -0.170317 0.317861
-0.280967 -0.111517 0.208122
-0.260846 0.0149281 -0.0278601
-0.0824994 0.132318 -0.246943
0.0728615 0.349642 -0.201771
0.174388 0.243598 -0.140576
0.170133 -0.0102094 0.00589164
0.0626774 -0.257824 0.148785
-0.0827971 -0.349045 0.201427
-0.178048 -0.228541 0.131887
-0.165297 0.0305933 -0.0176548
-0.0522796 0.27117 -0.156487
