# vtk DataFile Version 3.0
Velocity field
ASCII
DATASET STRUCTURED_POINTS
DIMENSIONS 10 10 10
SPACING 0.631579 0.631579 0.631579
ORIGIN 0 0 0
POINT_DATA 1000
VECTORS velocity float
0 0.0901666 0
0 0.0727732 0
0 0.0273033 0
0 -0.0287004 0
0 -0.0736313 0
0 -0.0901547 0
0 -0.0718957 0
0 -0.0258988 0
0 0.03009 0
0 0.0744699 0
0 0.0553797 0.0706297
0 0.0446967 0.0592401
0 0.0167695 0.0222259
0 -0.0176276 -0.0233632
0 -0.0452238 -0.0599387
0 -0.0553723 -0.0733893
0 -0.0441578 -0.0585258
0 -0.0159069 -0.0210826
0 0.0184811 0.0244944
0 0.0457389 0.058334
0 -0.00077317 0.11401
0 -0.000624023 0.0956249
0 -0.000234123 0.0358768
0 0.000246104 -0.0377128
0 0.000631381 -0.0967525
0 0.000773068 -0.118464
0 0.000616499 -0.0944719
0 0.00022208 -0.0340314
0 -0.000258019 0.0395387
0 -0.000638572 0.0941623
0 -0.0566277 0.113404
0 -0.045704 0.0951169
0 -0.0171474 0.0356863
0 0.0180249 -0.0375124
0 0.046243 -0.0962386
0 0.0566202 -0.117835
0 0.0451529 -0.0939701
0 0.0162653 -0.0338506
0 -0.0188976 0.0393286
0 -0.0467696 0.0936621
0 -0.0906349 0.0690464
0 -0.0731511 0.0579121
0 -0.027445 0.0217277
0 0.0288495 -0.0228395
0 0.0740137 -0.0585951
0 0.0906228 -0.0717442
0 0.072269 -0.0572139
0 0.0260333 -0.02061
0 -0.0302463 0.0239453
0 -0.0748566 0.0570264
0 -0.0896744 -0.00195005
0 -0.0723759 -0.00163559
0 -0.0271542 -0.000613647
0 0.0285438 0.000645049
0 0.0732294 0.00165488
0 0.0896625 0.00202625
0 0.0715032 0.00161587
0 0.0257574 0.000582082
0 -0.0299258 -0.00067628
0 -0.0740634 -0.00161058
0 -0.0541169 -0.0721942
0 -0.0436776 -0.0605523
0 -0.0163871 -0.0227182
0 0.0172257 0.0238808
0 0.0441926 0.0612663
0 0.0541097 0.0750149
0 0.0431509 0.0598222
0 0.0155442 0.0215496
0 -0.0180597 -0.025037
0 -0.0446959 -0.0596262
0 0.00231933 -0.114585
0 0.00187192 -0.0961075
0 0.000702313 -0.0360579
0 -0.000738253 0.0379031
0 -0.00189399 0.0972408
0 -0.00231902 0.119062
0 -0.00184935 0.0949487
0 -0.000666187 0.0342031
0 0.000773996 -0.0397382
0 0.00191557 -0.0946375
0 0.0578607 -0.112768
0 0.0466992 -0.0945837
0 0.0175207 -0.0354862
0 -0.0184173 0.0373021
0 -0.0472498 0.095699
0 -0.057853 0.117175
0 -0.0461361 0.0934432
0 -0.0166195 0.0336608
0 0.019309 -0.0391082
0 0.047788 -0.093137
0 0.091079 -0.0674448
0 0.0735096 -0.0544344
0 0.0275795 -0.0204229
0 -0.0289909 0.021468
0 -0.0743764 0.0550763
0 -0.091067 0.0674358
0 -0.0726232 0.0537781
0 -0.0261609 0.0193723
0 0.0303945 -0.0225074
0 0.0752235 -0.0557036
0 0.0727732 0
0 0.0617904 0
0 0.0231827 0
0 -0.024369 0
0 -0.062519 0
0 -0.0765487 0
0 -0.0610453 0
0 -0.0219902 0
0 0.0255489 0
0 0.0601043 0
0.0102695 0.0446967 0.0781672
0.0270443 0.0363546 0.0635634
0.0333098 0.0136401 0.0238488
0.026724 -0.0143381 -0.0250692
0.00982776 -0.0367848 -0.0643154
-0.01086 -0.0450395 -0.0787483
-0.0273579 -0.0359176 -0.0627993
-0.033301 -0.0129385 -0.0226221
-0.026396 0.0150312 0.0262811
-0.00923937 0.0369156 0.0645593
0.0165769 -0.000624023 0.126177
0.0436546 -0.000507261 0.102604
0.0537686 -0.000190322 0.0384965
0.0431375 0.000200062 -0.0404666
0.0158638 0.000513261 -0.103817
-0.0175302 0.00062844 -0.127115
-0.0441611 0.000501162 -0.10137
-0.0537543 0.000180532 -0.0365164
-0.042608 -0.000209734 0.0424228
-0.0149141 -0.000515389 0.104211
0.0164888 -0.045704 0.125507
0.0434227 -0.0371573 0.102059
0.0534829 -0.0139412 0.0382921
0.0429083 0.0146547 -0.0402516
0.0157796 0.0375968 -0.103266
-0.017437 0.0460337 -0.126439
-0.0439264 0.0367105 -0.100832
-0.0534687 0.0132242 -0.0363224
-0.0423817 -0.0153631 0.0421974
-0.0148349 -0.0377476 0.103658
0.0100393 -0.0731511 0.0764149
0.0264381 -0.0594717 0.0621385
0.0325631 -0.0223136 0.0233142
0.0261249 0.0234554 -0.0245073
0.00960743 0.0601751 -0.0628736
-0.0106166 0.0736788 -0.0769829
-0.0267447 0.0587567 -0.0613917
-0.0325545 0.0211657 -0.022115
-0.0258043 -0.0245893 0.0256919
-0.00903226 -0.0604165 0.0631122
-0.000283535 -0.0723759 -0.00215816
-0.000746677 -0.0588415 -0.00175496
-0.000919671 -0.0220771 -0.000658454
-0.000737838 0.0232068 0.000692151
-0.000271339 0.0595374 0.00177572
0.000299842 0.072898 0.0021742
0.00075534 0.0581339 0.00173386
0.000919426 0.0209414 0.000624587
0.000728782 -0.0243287 -0.00072561
0.000255095 -0.0597762 -0.00178246
-0.0104969 -0.0436776 -0.0798986
-0.0276432 -0.0355097 -0.0649715
-0.0340477 -0.0133231 -0.0243771
-0.0273159 0.0140049 0.0256245
-0.0100454 0.0359297 0.06574
0.0111006 0.0439927 0.0804924
0.0279639 0.0350827 0.0641904
0.0340386 0.0126378 0.0231232
0.0269807 -0.014682 -0.0268632
0.00944403 -0.0360739 -0.0659894
-0.0166605 0.00187192 -0.126814
-0.0438749 0.00152186 -0.103121
-0.0540399 0.000570997 -0.0386908
-0.0433552 -0.000600216 0.0406708
-0.0159439 -0.00153986 0.104341
0.0176186 -0.00188542 0.127756
0.0443839 -0.00150356 0.101882
0.0540256 -0.000541624 0.0367007
0.0428231 0.000629231 -0.0426368
0.0149894 0.00154604 -0.104737
-0.0163964 0.0466992 -0.124803
-0.0431785 0.0379645 -0.101485
-0.0531822 0.0142441 -0.0380767
-0.042667 -0.0149731 0.0400253
-0.0156908 -0.0384135 0.102685
0.017339 -0.0470338 0.125728
0.0436794 -0.0375081 0.100265
0.053168 -0.0135114 0.0361181
0.0421433 0.0156969 -0.0419601
0.0147517 0.0385695 -0.103076
-0.00980638 0.0735096 -0.0746424
-0.0256358 0.0593293 -0.0602436
-0.0315747 0.0222593 -0.0226024
-0.0253318 -0.0233984 0.023759
-0.0093158 -0.0600289 0.060954
0.0102943 -0.0734998 0.0746325
0.0259329 -0.0586139 0.0595172
0.0315663 -0.0211143 0.0214397
0.0250212 0.0245313 -0.0249093
0.00882275 0.0607126 -0.0616482
0 0.0273033 0
0 0.0231827 0
0 0.00869775 0
0 -0.00914284 0
0 -0.0234561 0
0 -0.0287198 0
0 -0.0229032 0
0 -0.00825035 0
0 0.00958551 0
0 0.0225501 0
0.0165769 0.0167695 0.0555472
0.0436546 0.0136401 0.0451614
0.0537686 0.00511774 0.0169444
0.0431375 -0.00537963 -0.0178115
0.0158638 -0.0138015 -0.0456957
-0.0175302 -0.0168987 -0.0559498
-0.0441611 -0.0134762 -0.0446185
-0.0537543 -0.00485449 -0.0160728
-0.042608 0.00563967 0.0186725
-0.0149141 0.0138501 0.0458772
0.0267583 -0.000234123 0.0896639
0.0704668 -0.000190322 0.0728992
0.0867926 -7.14083e-05 0.0273515
0.0696321 7.50625e-05 -0.0287511
0.0256073 0.000192573 -0.0737615
-0.0282971 0.000235789 -0.0903142
-0.0712843 0.000188034 -0.0720226
-0.0867695 6.77351e-05 -0.0259446
-0.0687777 -7.86912e-05 0.0301411
-0.0240743 -0.000193365 0.0740547
0.0266161 -0.0171474 0.0891876
0.0700924 -0.0139412 0.0725119
0.0863314 -0.00523071 0.0272063
0.0692625 0.00549838 -0.0285984
0.0254713 0.0141061 -0.0733696
-0.0281468 0.0172717 -0.0898344
-0.0709056 0.0137736 -0.07164
-0.0863085 0.00496166 -0.0258068
-0.0684125 -0.00576419 0.029981
-0.0239464 -0.0141622 0.0736613
0.0162053 -0.027445 0.054302
0.0426759 -0.0223136 0.0441491
0.0525633 -0.00837196 0.0165646
0.0421704 0.00880035 -0.0174122
0.0155083 0.0225775 -0.0446713
-0.0171373 0.0276439 -0.0546957
-0.043171 0.0220453 -0.0436182
-0.0525493 0.0079413 -0.0157125
-0.041653 -0.0092258 0.018254
-0.0145798 -0.0226672 0.0448488
-0.00045768 -0.0271542 -0.00153363
-0.00120528 -0.0220771 -0.00124689
-0.00148452 -0.00828324 -0.000467828
-0.00119101 0.00870708 0.000491766
-0.000437993 0.0223382 0.00126163
0.000484003 0.027351 0.00154475
0.00121927 0.0218116 0.0012319
0.00148412 0.00785714 0.000443762
0.00117639 -0.00912804 -0.00051554
0.000411773 -0.022427 -0.00126665
-0.0169441 -0.0163871 -0.0567776
-0.0446217 -0.0133231 -0.0461617
-0.0549593 -0.0049988 -0.0173197
-0.0440931 0.00525458 0.018206
-0.0162152 0.0134807 0.0467078
0.0179185 0.0165059 0.0571892
0.0451393 0.013163 0.0456069
0.0549447 0.00474167 0.0164288
0.0435519 -0.00550861 -0.0190862
0.0152445 -0.0135343 -0.0468934
-0.0268933 0.000702313 -0.0901164
-0.0708224 0.000570997 -0.0732671
-0.0872306 0.000214235 -0.0274894
-0.0699835 -0.000225199 0.0288962
-0.0257366 -0.000577751 0.0741338
0.0284399 -0.000707403 0.09077
0.0716439 -0.000564131 0.0723861
0.0872074 -0.000203216 0.0260756
0.0691248 0.000236086 -0.0302932
0.0241958 0.00058005 -0.0744284
-0.0264669 0.0175207 -0.0886876
-0.0696982 0.0142441 -0.0721041
-0.085846 0.00534435 -0.0270532
-0.0688729 -0.00561785 0.0284376
-0.025328 -0.0144126 0.072957
0.0279885 -0.0176469 0.0893292
0.0705068 -0.0140729 0.0712371
0.0858232 -0.00506944 0.0256617
0.0680277 0.00588943 -0.0298124
0.0238121 0.0144706 -0.0732483
-0.0158294 0.0275795 -0.0530424
-0.0413811 0.0222593 -0.0428104
-0.0509676 0.00835133 -0.0160617
-0.0408905 -0.00877869 0.0168836
-0.0150375 -0.0225218 0.0433152
0.0166171 -0.0275759 0.0530354
0.0418606 -0.0219909 0.0422942
0.0509541 -0.00792175 0.0152355
0.040389 0.00920372 -0.0177011
0.0142416 0.0227783 -0.0438085
0 -0.0287004 0
0 -0.024369 0
0 -0.00914284 0
0 0.00961071 0
0 0.0246564 0
0 0.0301894 0
0 0.0240752 0
0 0.00867255 0
0 -0.010076 0
0 -0.0237041 0
0.0164888 -0.0176276 0.0114967
0.0434227 -0.0143381 0.00934715
0.0534829 -0.00537963 0.003507
0.0429083 0.00565494 -0.00368648
0.0157796 0.0145078 -0.00945772
-0.017437 0.0177634 -0.0115801
-0.0439264 0.0141658 -0.00923477
-0.0534687 0.00510291 -0.00332662
-0.0423817 -0.00592828 0.0038647
-0.0148349 -0.0145589 0.0094953
0.0266161 0.000246104 0.0185579
0.0700924 0.000200062 0.0150881
0.0863314 7.50625e-05 0.00566101
0.0692625 -7.89036e-05 -0.00595066
0.0254713 -0.000202429 -0.0152666
-0.0281468 -0.000247854 -0.0186925
-0.0709056 -0.000197656 -0.0149067
-0.0863085 -7.12013e-05 -0.00536979
-0.0684125 8.27181e-05 0.00623835
-0.0239464 0.00020326 0.0153273
0.0264747 0.0180249 0.0184593
0.06972 0.0146547 0.0150079
0.0858729 0.00549838 0.00563093
0.0688946 -0.00577976 -0.00591908
0.025336 -0.014828 -0.0151855
-0.0279973 -0.0181555 -0.0185932
-0.0705289 -0.0144785 -0.0148275
-0.08585 -0.00521556 -0.00534126
-0.068049 0.00605915 0.00620521
-0.0238192 0.014887 0.0152458
0.0161192 0.0288495 0.011239
0.0424492 0.0234554 0.00913761
0.0522841 0.00880035 0.00342838
0.0419465 -0.00925073 -0.00360383
0.0154259 -0.0237328 -0.0092457
-0.0170462 -0.0290586 -0.0113205
-0.0429417 -0.0231734 -0.00902774
-0.0522702 -0.0083477 -0.00325205
-0.0414317 0.00969792 0.00377806
-0.0145024 0.0238272 0.00928245
-0.000455249 0.0285438 -0.00031742
-0.00119888 0.0232068 -0.00025807
-0.00147664 0.00870708 -9.68268e-05
-0.00118469 -0.00915269 0.000101782
-0.000435667 -0.0234814 0.000261123
0.000481432 -0.0287506 0.00031972
0.00121279 -0.0229278 0.000254968
0.00147625 -0.00825923 9.18467e-05
0.00117015 0.00959515 -0.000106703
0.000409585 0.0235747 -0.000262161
-0.0168541 0.0172257 -0.0117514
-0.0443846 0.0140049 -0.0095542
-0.0546675 0.00525458 -0.00358469
-0.0438589 -0.00552349 0.00376815
-0.0161291 -0.0141705 0.00966719
0.0178233 -0.0173505 0.0118366
0.0448995 -0.0138365 0.00943934
0.054653 -0.00498432 0.00340031
0.0433205 0.00579051 -0.00395029
0.0151635 0.0142269 -0.00970563
-0.0267504 -0.000738253 -0.0186516
-0.0704462 -0.000600216 -0.0151642
-0.0867672 -0.000225199 -0.00568958
-0.0696117 0.000236724 0.0059807
-0.0255998 0.000607316 0.0153436
0.0282888 0.000743599 0.0187868
0.0712634 0.000593002 0.0149819
0.0867441 0.000213615 0.00539689
0.0687576 -0.000248167 -0.00626983
0.0240672 -0.000609733 -0.0154046
-0.0263263 -0.0184173 -0.0183559
-0.069328 -0.0149731 -0.0149236
-0.0853899 -0.00561785 -0.00559927
-0.068507 0.00590534 0.00588579
-0.0251935 0.0151502 0.0151001
0.0278398 0.01855 0.0184886
0.0701322 0.0147931 0.0147441
0.0853672 0.00532886 0.00531123
0.0676663 -0.0061908 -0.00617032
0.0236856 -0.0152111 -0.0151604
-0.0157453 -0.0289909 -0.0109783
-0.0411612 -0.0233984 -0.00886055
-0.0506969 -0.00877869 -0.00332433
-0.0406733 0.00922793 0.00349444
-0.0149576 0.0236743 0.00896503
0.0165288 0.028987 0.0109768
0.0416383 0.0231163 0.00875371
0.0506834 0.00832713 0.00315333
0.0401745 -0.00967471 -0.00366363
0.014166 -0.023944 -0.00906714
0 -0.0736313 0
0 -0.062519 0
0 -0.0234561 0
0 0.0246564 0
0 0.0632562 0
0 0.0774513 0
0 0.0617652 0
0 0.0222495 0
0 -0.0258502 0
0 -0.0608131 0
0.0100393 -0.0452238 -0.0369893
0.0264381 -0.0367848 -0.0300733
0.0325631 -0.0138015 -0.0112834
0.0261249 0.0145078 0.0118608
0.00960743 0.03722 0.030429
-0.0106166 0.0455724 0.0372575
-0.0267447 0.0363425 0.0297117
-0.0325545 0.0130916 0.010703
-0.0258043 -0.0152091 -0.0124341
-0.00903226 -0.0373509 -0.03055
0.0162053 0.000631381 -0.0597078
0.0426759 0.000513261 -0.0485439
0.0525633 0.000192573 -0.0182135
0.0421704 -0.000202429 0.0191456
0.0155083 -0.000519332 0.0491182
-0.0171373 -0.000635873 0.0601408
-0.043171 -0.00050709 0.0479603
-0.0525493 -0.000182668 0.0172767
-0.041653 0.000212215 -0.0200711
-0.0145798 0.000521466 -0.0493135
0.0161192 0.046243 -0.0593906
0.0424492 0.0375967 -0.048286
0.0522841 0.0141061 -0.0181168
0.0419465 -0.014828 0.0190439
0.0154259 -0.0380416 0.0488572
-0.0170462 -0.0465783 0.0598213
-0.0429417 -0.0371448 0.0477055
-0.0522702 -0.0133806 0.0171849
-0.0414317 0.0155448 -0.0199645
-0.0145024 0.0381927 -0.0490516
0.00981421 0.0740137 -0.0361601
0.0258454 0.0601751 -0.0293991
0.0318331 0.0225775 -0.0110304
0.0255392 -0.0237328 0.0115949
0.0093921 -0.0608869 0.0297469
-0.0103786 -0.0745504 0.0364222
-0.0261452 -0.0594517 0.0290456
-0.0318247 -0.0214161 0.0104631
-0.0252258 0.0248801 -0.0121554
-0.00882979 0.0611289 -0.0298651
-0.000277179 0.0732294 0.00102126
-0.000729943 0.0595374 0.000830309
-0.000899053 0.0223382 0.00031153
-0.000721297 -0.0234814 -0.000327471
-0.000265257 -0.0602418 -0.000840132
0.000293121 -0.0737603 -0.00102866
0.000738411 -0.0588216 -0.000820329
0.000898814 -0.0211891 -0.000295505
0.000712446 0.0246165 0.000343302
0.000249377 0.0604811 0.000843471
-0.0102616 0.0441926 0.0378086
-0.0270237 0.0359297 0.0307394
-0.0332844 0.0134807 0.0115333
-0.0267036 -0.0141705 -0.0121235
-0.00982026 -0.0363547 -0.0311029
0.0108518 -0.0445131 -0.0380828
0.0273371 -0.0354977 -0.0303699
0.0332756 -0.0127873 -0.01094
0.0263759 0.0148556 0.0127096
0.00923233 0.0364993 0.0312267
-0.0162871 -0.00189399 0.0600091
-0.0428913 -0.00153986 0.0487889
-0.0528286 -0.000577751 0.0183055
-0.0423833 0.000607316 -0.0192422
-0.0155865 0.00155807 -0.049366
0.0172238 0.00190772 -0.0604443
0.0433889 0.00152135 -0.0482023
0.0528146 0.00054803 -0.0173638
0.0418631 -0.000636674 0.0201724
0.0146534 -0.00156428 0.0495624
-0.0160288 -0.0472498 0.0590577
-0.0422105 -0.0384135 0.0480145
-0.05199 -0.0144126 0.0180149
-0.0417106 0.0151502 -0.0189368
-0.0153391 0.0388679 -0.0485825
0.0169504 0.04759 -0.0594849
0.0427002 0.0379518 -0.0474373
0.0519762 0.0136713 -0.0170883
0.0411987 -0.0158826 0.0198522
0.0144211 -0.0390243 0.0487766
-0.00958655 -0.0743764 0.0353213
-0.0250611 -0.0600289 0.0285077
-0.0308669 -0.0225218 0.0106956
-0.024764 0.0236743 -0.0112429
-0.00910698 0.0607368 -0.0288439
0.0100636 0.0743665 -0.0353166
0.0253515 0.0593051 -0.028164
0.0308587 0.0213633 -0.0101454
0.0244603 -0.0248206 0.0117873
0.00862497 -0.0614285 0.0291724
0 -0.0901547 0
0 -0.0765487 0
0 -0.0287198 0
0 0.0301894 0
0 0.0774513 0
0 0.0948319 0
0 0.0756257 0
0 0.0272425 0
0 -0.0316511 0
0 -0.0744599 0
-0.000283535 -0.0553723 -0.0712046
-0.000746677 -0.0450395 -0.0578911
-0.000919671 -0.0168987 -0.0217205
-0.000737838 0.0177634 0.0228321
-0.000271339 0.0455724 0.0585759
0.000299842 0.055799 0.0717206
0.00075534 0.0444981 0.057195
0.000919426 0.0160294 0.0206033
0.000728782 -0.0186221 -0.0239358
0.000255095 -0.0457327 -0.0588088
-0.00045768 0.000773068 -0.114938
-0.00120528 0.00062844 -0.0934474
-0.00148452 0.000235789 -0.035061
-0.00119101 -0.000247854 0.0368554
-0.000437993 -0.000635873 0.0945531
0.000484003 -0.000778565 0.115771
0.00121927 -0.000620885 0.0923241
0.00148412 -0.000223659 0.0332577
0.00117639 0.000259837 -0.038637
0.000411773 0.000638487 -0.0949288
-0.000455249 0.0566202 -0.114327
-0.00119888 0.0460337 -0.092951
-0.00147664 0.0172717 -0.0348748
-0.00118469 -0.0181555 0.0366596
-0.000435667 -0.0465783 0.0940508
0.000481432 -0.0570305 0.115156
0.00121279 -0.0454804 0.0918336
0.00147625 -0.0163833 0.033081
0.00117015 0.0190332 -0.0384317
0.000409585 0.0467634 -0.0944245
-0.000277179 0.0906228 -0.0696084
-0.000729943 0.0736788 -0.0565933
-0.000899053 0.0276439 -0.0212336
-0.000721297 -0.0290586 0.0223203
-0.000265257 -0.0745504 0.0572627
0.000293121 -0.0912801 0.0701128
0.000738411 -0.0727929 0.0559129
0.000898814 -0.0262221 0.0201414
0.000712446 0.0304634 -0.0233993
0.000249377 0.0748466 -0.0574905
7.82828e-06 0.0896625 0.00196593
2.06154e-05 0.0728979 0.00159835
2.53918e-05 0.027351 0.000599696
2.03713e-05 -0.0287506 -0.000630382
7.49159e-06 -0.0737603 -0.00161726
-8.2785e-06 -0.0903127 -0.00198017
-2.08546e-05 -0.0720214 -0.00157913
-2.5385e-05 -0.0259442 -0.000568847
-2.01213e-05 0.0301406 0.000660856
-7.04307e-06 0.0740535 0.00162369
0.000289816 0.0541097 0.0727818
0.000763218 0.0439927 0.0591735
0.000940043 0.0165059 0.0222017
0.000754178 -0.0173505 -0.0233379
0.00027735 -0.0445131 -0.0598735
-0.000306484 -0.0545022 -0.0733094
-0.00077207 -0.0434637 -0.0584621
-0.000939793 -0.0156568 -0.0210596
-0.000744921 0.0181893 0.024466
-0.000260746 0.04469 0.0601115
0.00045999 -0.00231902 0.115518
0.00121137 -0.00188542 0.0939191
0.00149201 -0.000707403 0.035238
0.00119702 0.000743599 -0.0370414
0.000440204 0.00190772 -0.0950296
-0.000486442 0.00233583 -0.116355
-0.00122542 0.00186275 -0.0927901
-0.00149161 0.000671013 -0.0334255
-0.00118233 -0.000779548 0.038832
-0.000413851 -0.00191531 0.0954078
0.000452697 -0.057853 0.113686
0.00119214 -0.0470338 0.0924283
0.00146833 -0.0176469 0.0346787
0.00117802 0.01855 -0.0364534
0.000433217 0.04759 -0.0935216
-0.000478724 0.0582697 -0.114508
-0.00120597 0.0464684 -0.0913173
-0.00146794 0.0167392 -0.0328949
-0.00116356 -0.0194467 0.0382157
-0.000407289 -0.0477816 0.0938951
0.00027075 -0.091067 0.0679937
0.000707792 -0.0734998 0.0548775
0.000871763 -0.0275759 0.0205891
0.000699401 0.028987 -0.0216427
0.000257205 0.0743665 -0.0555246
-0.000284222 0.0910548 -0.0679847
-0.000715995 0.0726136 -0.0542158
-0.000871531 0.0261574 -0.01953
-0.000690825 -0.0303905 0.0226906
-0.000243592 -0.0752135 0.056157
0 -0.0718957 0
0 -0.0610453 0
0 -0.0229032 0
0 0.0240752 0
0 0.0617652 0
0 0.0756257 0
0 0.0603092 0
0 0.021725 0
0 -0.0252408 0
0 -0.0593796 0
-0.0104969 -0.0441578 -0.0779486
-0.0276432 -0.0359176 -0.0633741
-0.0340477 -0.0134762 -0.0237777
-0.0273159 0.0141658 0.0249945
-0.0100454 0.0363425 0.0641237
0.0111006 0.0444981 0.0785137
0.0279639 0.0354858 0.0626121
0.0340386 0.012783 0.0225547
0.0269807 -0.0148505 -0.0262029
0.00944403 -0.0364705 -0.0643788
-0.0169441 0.000616499 -0.125824
-0.0446217 0.000501162 -0.102298
-0.0549593 0.000188034 -0.0383819
-0.0440931 -0.000197656 0.0403459
-0.0162152 -0.00050709 0.103508
0.0179185 -0.000620885 0.126736
0.0451393 -0.000495136 0.101068
0.0549447 -0.000178363 0.0364076
0.0435519 0.000207212 -0.0422964
0.0152445 0.000509175 -0.10392
-0.0168541 0.0451529 -0.125156
-0.0443846 0.0367105 -0.101755
-0.0546675 0.0137736 -0.0381781
-0.0438589 -0.0144785 0.0401316
-0.0161291 -0.0371448 0.102958
0.0178233 -0.0454804 0.126063
0.0448995 -0.0362691 0.100531
0.054653 -0.0130652 0.0362142
0.0433205 0.0151784 -0.0420717
0.0151635 0.0372924 -0.103368
-0.0102616 0.072269 -0.0762012
-0.0270237 0.0587567 -0.0619536
-0.0332844 0.0220453 -0.0232448
-0.0267036 -0.0231734 0.0244342
-0.00982026 -0.0594517 0.0626862
0.0108518 -0.0727929 0.0767537
0.0273371 -0.0580502 0.0612089
0.0332756 -0.0209113 0.0220491
0.0263759 0.0242936 -0.0256155
0.00923233 0.059688 -0.0629357
0.000289816 0.0715032 0.00215213
0.000763218 0.0581339 0.00174973
0.000940043 0.0218116 0.000656493
0.000754178 -0.0229278 -0.00069009
0.00027735 -0.0588216 -0.00177043
-0.000306484 -0.0720214 -0.00216772
-0.00077207 -0.057435 -0.00172869
-0.000939793 -0.0206897 -0.000622726
-0.000744921 0.0240362 0.00072345
-0.000260746 0.0590555 0.00177747
0.0107294 0.0431509 0.0796752
0.0282556 0.0350827 0.0647779
0.0348017 0.013163 0.0243044
0.0279209 -0.0138365 -0.0255482
0.0102679 -0.0354977 -0.0655442
-0.0113465 -0.0434637 -0.0802526
-0.0285833 -0.034661 -0.0639991
-0.0347924 -0.0124858 -0.0230543
-0.0275782 0.0145054 0.0267833
-0.00965323 0.0356389 0.0658049
0.0170296 -0.00184935 0.126459
0.0448469 -0.00150356 0.102815
0.0552366 -0.000564131 0.0385756
0.0443157 0.000593002 -0.0405496
0.0162971 0.00152135 -0.104031
-0.0180089 0.00186275 -0.127376
-0.0453671 0.00148548 -0.101578
-0.0552219 0.000535115 -0.0365913
-0.0437717 -0.000621667 0.0425098
-0.0153214 -0.0015274 0.104444
0.0167596 -0.0461361 0.124454
0.044135 -0.0375081 0.101183
0.0543601 -0.0140729 0.0379634
0.0436122 0.0147931 -0.0399061
0.0160384 0.0379518 -0.102379
-0.0177231 0.0464684 -0.125354
-0.044647 0.0370572 -0.099966
-0.0543457 0.013349 -0.0360105
-0.0430769 -0.0155082 0.0418352
-0.0150785 -0.0381044 0.102788
0.0100236 -0.0726232 0.0744337
0.0262036 -0.0586139 0.0600751
0.0322741 -0.0219909 0.0225392
0.025893 0.0231163 -0.0236926
0.00952216 0.0593051 -0.0607835
-0.0105224 0.0726136 -0.0744238
-0.0265073 0.0579072 -0.0593508
-0.0322655 0.0208598 -0.0213798
-0.0255754 -0.0242355 0.0248397
-0.00901818 -0.0599805 0.0614758
0 -0.0258988 0
0 -0.0219902 0
0 -0.00825035 0
0 0.00867255 0
0 0.0222495 0
0 0.0272425 0
0 0.021725 0
0 0.00782596 0
0 -0.00909244 0
0 -0.0213902 0
-0.0166605 -0.0159069 -0.0546194
-0.0438749 -0.0129385 -0.0444071
-0.0540399 -0.00485449 -0.0166614
-0.0433552 0.00510291 0.0175139
-0.0159439 0.0130916 0.0449324
0.0176186 0.0160294 0.0550152
0.0443839 0.012783 0.0438731
0.0540256 0.00460479 0.0158043
0.0428231 -0.00534958 -0.0183606
0.0149894 -0.0131377 -0.045111
-0.0268933 0.00022208 -0.0881663
-0.0708224 0.000180532 -0.0716814
-0.0872306 6.77351e-05 -0.0268947
-0.0699835 -7.12013e-05 0.0282709
-0.0257366 -0.000182668 0.0725293
0.0284399 -0.000223659 0.0888056
0.0716439 -0.000178363 0.0708196
0.0872074 -6.42509e-05 0.0255112
0.0691248 7.46435e-05 -0.0296376
0.0241958 0.000183419 -0.0728178
-0.0267504 0.0162653 -0.0876979
-0.0704462 0.0132242 -0.0713006
-0.0867672 0.00496166 -0.0267518
-0.0696117 -0.00521556 0.0281207
-0.0255998 -0.0133806 0.072144
0.0282888 -0.0163833 0.0883338
0.0712634 -0.0130652 0.0704433
0.0867441 -0.00470644 0.0253757
0.0687576 0.00546768 -0.0294802
0.0240672 0.0134338 -0.072431
-0.0162871 0.0260333 -0.0533951
-0.0428913 0.0211657 -0.0434115
-0.0528286 0.0079413 -0.0162879
-0.0423833 -0.0083477 0.0171214
-0.0155865 -0.0214161 0.0439251
0.0172238 -0.0262221 0.0537823
0.0433889 -0.0209113 0.0428896
0.0528146 -0.00753285 0.0154501
0.0418631 0.00875123 -0.017949
0.0146534 0.0215013 -0.0440997
0.00045999 0.0257574 0.00150802
0.00121137 0.0209414 0.00122606
0.00149201 0.00785714 0.000460013
0.00119702 -0.00825923 -0.000483555
0.000440204 -0.0211891 -0.00124056
-0.000486442 -0.0259442 -0.00151895
-0.00122542 -0.0206897 -0.00121132
-0.00149161 -0.00745302 -0.000436349
-0.00118233 0.00865851 0.000506929
-0.000413851 0.0212734 0.00124549
0.0170296 0.0155442 0.0558293
0.0448469 0.0126378 0.0453907
0.0552366 0.00474167 0.0170304
0.0443157 -0.00498432 -0.0179019
0.0162971 -0.0127873 -0.0459276
-0.0180089 -0.0156568 -0.0562339
-0.0453671 -0.0124858 -0.0448451
-0.0552219 -0.00449775 -0.0161544
-0.0437717 0.00522526 0.0187673
-0.0153214 0.0128381 0.0461102
0.027029 -0.000666187 0.0886112
0.0711798 -0.000541624 0.0720431
0.0876708 -0.000203216 0.0270304
0.0703367 0.000213615 -0.0284135
0.0258665 0.00054803 -0.0728954
-0.0285834 0.000671013 -0.0892538
-0.0720055 0.000535115 -0.071177
-0.0876475 0.000192762 -0.02564
-0.0694734 -0.000223941 0.0297872
-0.0243179 -0.000550213 0.0731852
0.0266005 -0.0166195 0.0872063
0.07005 -0.0135114 0.0708996
0.0862792 -0.00506944 0.0266014
0.0692205 0.00532886 -0.0279626
0.0254559 0.0136713 -0.0717383
-0.0281297 0.0167392 -0.087837
-0.0708626 0.013349 -0.0700472
-0.0862562 0.00480868 -0.025233
-0.068371 -0.00558648 0.0293144
-0.0239323 -0.0137263 0.0720249
0.0159093 -0.0261609 0.0521565
0.0415899 -0.0211143 0.0420953
0.0512248 -0.00792175 0.0157935
0.0410968 0.00832713 -0.0166017
0.0151134 0.0213633 -0.0425917
-0.0167009 0.0261574 -0.0521496
-0.0420719 0.0208598 -0.0415877
-0.0512112 0.00751426 -0.0149811
-0.0405929 -0.00873029 0.0174054
-0.0143135 -0.0216066 0.0430768
0 0.03009 0
0 0.0255489 0
0 0.0095855 0
0 -0.010076 0
0 -0.0258502 0
0 -0.0316511 0
0 -0.0252408 0
0 -0.00909244 0
0 0.0105639 0
0 0.0248518 0
-0.0163964 0.0184811 -0.0102178
-0.0431785 0.0150312 -0.00830822
-0.0531822 0.00563966 -0.00311721
-0.042667 -0.00592826 0.00327674
-0.0156908 -0.015209 0.00840651
0.017339 -0.018622 0.010293
0.0436794 -0.0148505 0.00820834
0.053168 -0.00534957 0.00295688
0.0421433 0.00621483 -0.00343513
0.0147517 0.0152638 -0.008439
-0.0264669 -0.000258019 -0.0164934
-0.0696982 -0.000209733 -0.013411
-0.085846 -7.86911e-05 -0.00503178
-0.0688729 8.27179e-05 0.00528927
-0.025328 0.000212214 0.0135697
0.0279885 0.000259836 0.0166148
0.0705068 0.000207212 0.0132499
0.0858232 7.46434e-05 0.00477297
0.0680277 -8.67169e-05 -0.00554497
0.0238121 -0.000213101 -0.0136222
-0.0263263 -0.0188976 -0.0164058
-0.069328 -0.0153631 -0.0133398
-0.0853899 -0.00576418 -0.00500506
-0.0685071 0.00605914 0.00526117
-0.0251935 0.0155448 0.0134976
0.0278398 0.0190332 0.0165266
0.0701322 0.0151784 0.0131795
0.0853672 0.00546767 0.00474761
0.0676663 -0.00635206 -0.00551551
0.0236856 -0.0156077 -0.0135498
-0.0160288 -0.0302463 -0.00998872
-0.0422105 -0.0245892 -0.00812197
-0.05199 -0.00922579 -0.00304734
-0.0417106 0.0096979 0.00320328
-0.0153391 0.02488 0.00821805
0.0169504 0.0304634 0.0100622
0.0427002 0.0242936 0.00802432
0.0519762 0.00875121 0.00289059
0.0411987 -0.0101667 -0.00335813
0.0144211 -0.0249808 -0.00824983
0.000452697 -0.0299258 0.000282108
0.00119214 -0.0243286 0.000229387
0.00146833 -0.00912802 8.60651e-05
0.00117802 0.00959513 -9.04692e-05
0.000433217 0.0246164 -0.0002321
-0.000478724 0.0301405 -0.000284184
-0.00120597 0.0240361 -0.000226629
-0.00146794 0.00865849 -8.1638e-05
-0.00116356 -0.010059 9.48425e-05
-0.000407289 -0.0247161 0.000232997
0.0167596 -0.0180597 0.0104441
0.044135 -0.0146819 0.00849224
0.0543601 -0.00550859 0.00318627
0.0436122 0.0057905 -0.00334932
0.0160384 0.0148556 -0.00859272
-0.0177231 0.0181893 -0.0105209
-0.044647 0.0145054 -0.00839017
-0.0543457 0.00522525 -0.00302236
-0.0430769 -0.00607042 0.00351122
-0.0150785 -0.0149157 0.00862593
0.0266005 0.000773996 0.0165767
0.07005 0.00062923 0.0134787
0.0862792 0.000236085 0.00505717
0.0692205 -0.000248166 -0.00531596
0.0254559 -0.000636673 -0.0136382
-0.0281297 -0.000779547 -0.0166987
-0.0708626 -0.000621666 -0.0133167
-0.0862562 -0.000223941 -0.00479705
-0.068371 0.000260163 0.00557295
-0.0239323 0.000639254 0.0136909
0.0261787 0.019309 0.0163139
0.0689381 0.0156969 0.0132648
0.0849097 0.00588941 0.00497691
0.0681218 -0.00619079 -0.00523159
0.0250518 -0.0158825 -0.0134217
-0.0276833 -0.0194467 -0.0164336
-0.0697378 -0.0155082 -0.0131054
-0.0848871 -0.00558647 -0.00472091
-0.0672858 0.00649006 0.0054845
-0.0235529 0.0159476 0.0134738
0.015657 0.0303945 0.00975702
0.0409305 0.0245313 0.00787486
0.0504126 0.00920372 0.00295451
0.0404452 -0.00967471 -0.0031057
0.0148738 -0.0248206 -0.00796772
-0.0164361 -0.0303905 -0.00975573
-0.0414048 -0.0242355 -0.0077799
-0.0503992 -0.00873029 -0.00280254
-0.0399493 0.0101431 0.00325607
-0.0140865 0.0251032 0.00805846
0 0.0744699 0
0 0.0601044 0
0 0.0225501 0
0 -0.0237041 0
0 -0.0608131 0
0 -0.07446 0
0 -0.0593796 0
0 -0.0213902 0
0 0.0248518 0
0 0.0615057 0
-0.00980638 0.0457389 0.0381261
-0.0256357 0.0369156 0.0307714
-0.0315747 0.0138501 0.0115449
-0.0253318 -0.0145589 -0.0121357
-0.0093158 -0.037351 -0.0311343
0.0102943 -0.0457328 -0.038121
0.0259328 -0.0364705 -0.0304004
0.0315663 -0.0131377 -0.010951
0.0250212 0.0152638 0.0127233
0.00882275 0.0377763 0.0314888
-0.0158294 -0.000638572 0.0615428
-0.041381 -0.000515389 0.049671
-0.0509676 -0.000193365 0.0186357
-0.0408905 0.00020326 -0.0195894
-0.0150375 0.000521467 -0.0502567
0.0166171 0.000638487 -0.0615346
0.0418606 0.000509175 -0.049072
0.050954 0.000183419 -0.0176771
0.040389 -0.000213101 0.0205378
0.0142416 -0.000527406 0.0508291
-0.0157453 -0.0467696 0.0612159
-0.0411612 -0.0377476 0.0494071
-0.0506968 -0.0141623 0.0185367
-0.0406732 0.014887 -0.0194853
-0.0149576 0.0381927 -0.0499897
0.0165288 0.0467634 -0.0612077
0.0416382 0.0372924 -0.0488114
0.0506834 0.0134338 -0.0175832
0.0401745 -0.0156078 0.0204287
0.014166 -0.0386277 0.050559
-0.00958655 -0.0748566 0.0372714
-0.0250611 -0.0604165 0.0300816
-0.0308669 -0.0226672 0.0112861
-0.024764 0.0238272 -0.0118637
-0.00910697 0.0611289 -0.0304363
0.0100636 0.0748466 -0.0372665
0.0253515 0.059688 -0.0297189
0.0308587 0.0215013 -0.0107056
0.0244603 -0.0249808 0.012438
0.00862497 -0.0618251 0.030783
0.00027075 -0.0740634 -0.00105264
0.000707792 -0.0597762 -0.000849585
0.000871763 -0.022427 -0.00031875
0.000699401 0.0235747 0.000335061
0.000257205 0.0604811 0.000859603
-0.000284222 0.0740535 0.0010525
-0.000715995 0.0590555 0.000839341
-0.000871531 0.0212734 0.000302354
-0.000690824 -0.0247161 -0.000351284
-0.000243592 -0.0611699 -0.000869393
0.0100236 -0.0446959 -0.0389706
0.0262036 -0.0360739 -0.031453
0.0322741 -0.0135343 -0.0118006
0.025893 0.0142269 0.0124045
0.00952215 0.0364993 0.0318239
-0.0105224 0.04469 0.0389654
-0.0265073 0.0356389 0.0310738
-0.0322655 0.0128381 0.0111936
-0.0255754 -0.0149157 -0.0130051
-0.00901818 -0.036915 -0.0321863
0.0159093 0.00191557 -0.0618534
0.0415899 0.00154605 -0.0499216
0.0512248 0.00058005 -0.0187297
0.0410968 -0.000609733 0.0196882
0.0151134 -0.00156428 0.0505103
-0.0167009 -0.00191531 0.0618451
-0.0420719 -0.0015274 0.0493197
-0.0512112 -0.000550213 0.0177663
-0.0405929 0.000639254 -0.0206414
-0.0143135 0.00158209 -0.0510856
0.015657 0.047788 -0.0608727
0.0409304 0.0385695 -0.0491301
0.0504126 0.0144706 -0.0184328
0.0404452 -0.0152111 0.019376
0.0148738 -0.0390243 0.0497095
-0.0164361 -0.0477816 0.0608646
-0.0414048 -0.0381044 0.0485377
-0.0503992 -0.0137263 0.0174846
-0.0399492 0.0159476 -0.0203142
-0.0140865 0.0394687 -0.0502756
0.00936418 0.0752235 -0.0364069
0.0244798 0.0607126 -0.0293838
0.0301509 0.0227783 -0.0110243
0.0241896 -0.023944 0.0115885
0.00889573 -0.0614285 0.0297303
-0.00983015 -0.0752135 0.036402
-0.0247635 -0.0599805 0.0290295
-0.0301429 -0.0216066 0.0104572
-0.0238929 0.0251032 -0.0121495
-0.00842491 0.0621281 -0.0300689
