# vtk DataFile Version 3.0
Velocity field
ASCII
DATASET STRUCTURED_POINTS
DIMENSIONS 5 5 5
SPACING 1.33333 1.33333 1.33333
ORIGIN 0 0 0
POINT_DATA 125
VECTORS velocity float
0 0.0502624 0
0 0.0118236 0
0 -0.0446997 0
0 -0.0328537 0
0 0.0292429 0
0 -0.0266152 0.0872908
0 -0.00626089 0.023665
0 0.0236696 -0.0894665
0 0.0173969 -0.0657568
0 -0.0154848 0.0507861
0 -0.0627842 0.0410681
0 -0.0147692 0.0111338
0 0.0558357 -0.0420918
0 0.0410385 -0.0309369
0 -0.0365281 0.0238936
0 -0.00292322 -0.0679692
0 -0.000687651 -0.0184268
0 0.0025997 0.0696634
0 0.00191074 0.0512017
0 -0.00170074 -0.0395447
0 0.0614089 -0.073046
0 0.0144457 -0.0171831
0 -0.0546126 0.0649617
0 -0.0401395 0.047746
0 0.0357279 -0.0424984
0 0.0118236 0
0 0.00353913 0
0 -0.0133798 0
0 -0.009834 0
0 0.00687901 0
0.0373601 -0.00626089 0.030655
0.0552406 -0.00148022 0.00725372
-0.0115772 0.00559611 -0.0274235
-0.0606875 0.00411307 -0.020156
-0.0168815 -0.00364261 0.0178352
0.017577 -0.0147692 0.0144224
0.0259894 -0.00349338 0.0034127
-0.00544678 0.013207 -0.0129021
-0.028552 0.00970704 -0.00948288
-0.00794232 -0.00859277 0.00839101
-0.0290906 -0.000687651 -0.0238696
-0.0430131 -0.000162662 -0.00564812
0.00901459 0.000614962 0.0213533
0.0472542 0.00045199 0.0156945
0.0131448 -0.000400078 -0.0138874
-0.0312634 0.0144457 -0.0256525
-0.0459721 0.00339817 -0.00603442
0.0096347 -0.0128469 0.0228134
0.050505 -0.00944233 0.0167676
0.0141266 0.00840455 -0.0149247
0 -0.0446997 0
0 -0.0133798 0
0 0.0505831 0
0 0.0371779 0
0 -0.0260064 0
0.017577 0.0236696 -0.0728684
0.0259894 0.00559611 -0.0172359
-0.00544678 -0.0211566 0.0651618
-0.028552 -0.0155499 0.0478932
-0.00794232 0.0137711 -0.0423951
0.00826955 0.0558357 -0.0342827
0.0122273 0.013207 -0.00810903
-0.00256258 -0.0499306 0.0306571
-0.013433 -0.0366984 0.0225326
-0.00373666 0.0324854 -0.0199458
-0.0136864 0.0025997 0.0567392
-0.0202366 0.000614962 0.0134207
0.00424115 -0.00232492 -0.0507384
0.022232 -0.00170879 -0.0372921
0.00618431 0.00151251 0.0330111
-0.0147087 -0.0546126 0.0609771
-0.0216287 -0.0128469 0.0143441
0.00453289 0.0485684 -0.0542286
0.0237613 0.0356972 -0.0398573
0.00664623 -0.0317738 0.0354767
0 -0.0328537 0
0 -0.00983401 0
0 0.0371779 0
0 0.0273253 0
0 -0.0191144 0
-0.0290906 0.0173969 -0.0649378
-0.0430131 0.00411307 -0.01536
0.00901459 -0.0155499 0.0580702
0.0472542 -0.011429 0.0426809
0.0131448 0.0101215 -0.037781
-0.0136864 0.0410385 -0.0305516
-0.0202366 0.00970704 -0.00722652
0.00424115 -0.0366984 0.0273205
0.022232 -0.0269729 0.0200804
0.00618431 0.0238763 -0.017775
0.0226515 0.00191074 0.050564
0.0334922 0.00045199 0.0119601
-0.00701923 -0.00170879 -0.0452164
-0.0367946 -0.00125595 -0.0332335
-0.0102353 0.00111168 0.0294183
0.0243434 -0.0401395 0.0543407
0.0357963 -0.00944233 0.012783
-0.00750209 0.0356972 -0.0483266
-0.0393258 0.026237 -0.0355194
-0.0109997 -0.0233533 0.0316156
0 0.0292429 0
0 0.00687901 0
0 -0.0260064 0
0 -0.0191144 0
0 0.0170136 0
-0.0312634 -0.0154848 0.0423168
-0.045972 -0.00364261 0.00995449
0.0096347 0.0137711 -0.0376334
0.0505049 0.0101216 -0.0276601
0.0141266 -0.00900912 0.02462
-0.0147087 -0.0365281 0.019909
-0.0216287 -0.00859277 0.00468334
0.00453288 0.0324854 -0.0177056
0.0237613 0.0238763 -0.0130134
0.00664623 -0.0212522 0.0115831
0.0243434 -0.00170074 -0.0329501
0.0357963 -0.000400078 -0.00775109
-0.00750209 0.00151251 0.0293034
-0.0393258 0.00111168 0.0215376
-0.0109997 -0.000989496 -0.0191705
0.0261616 0.0357279 -0.0354112
0.03847 0.00840455 -0.00833004
-0.00806243 -0.0317738 0.0314921
-0.0422632 -0.0233533 0.0231463
-0.0118213 0.0207866 -0.0206023
