# vtk DataFile Version 3.0
Velocity field
ASCII
DATASET STRUCTURED_POINTS
DIMENSIONS 8 8 8
SPACING 0.8 0.8 0.8
ORIGIN 0 0 0
POINT_DATA 512
VECTORS velocity float
0 0.236787 0
0 0.164971 0
0 -0.00691406 0
0 -0.174605 0
0 -0.236383 0
0 -0.154774 0
0 0.0207186 0
0 0.183644 0
0 0.093155 0.241676
0 0.0649017 0.17852
0 -0.00272008 -0.00748191
0 -0.0686919 -0.188945
0 -0.0929962 -0.255797
0 -0.0608902 -0.167486
0 0.00815099 0.0224203
0 0.0722479 0.187436
0 -0.106983 0.336755
0 -0.0745359 0.248752
0 0.00312386 -0.0104254
0 0.0788887 -0.263279
0 0.106801 -0.356431
0 0.0699289 -0.233377
0 -0.00936094 0.0312407
0 -0.0829725 0.261176
0 -0.242227 0.227562
0 -0.168761 0.168095
0 0.00707291 -0.00704498
0 0.178617 -0.177911
0 0.241814 -0.240859
0 0.15833 -0.157705
0 -0.0211946 0.0211109
0 -0.187863 0.17649
0 -0.230539 -0.0196662
0 -0.160618 -0.0145269
0 0.00673163 0.000608834
0 0.169998 0.0153752
0 0.230146 0.0208152
0 0.15069 0.013629
0 -0.020172 -0.00182443
0 -0.178798 -0.0152524
0 -0.0790092 -0.254966
0 -0.0550463 -0.188337
0 0.00230703 0.00789334
0 0.0582609 0.199335
0 0.0788745 0.269863
0 0.0516439 0.176696
0 -0.00691324 -0.0236531
0 -0.0612768 -0.197743
0 0.120446 -0.335606
0 0.0839159 -0.247904
0 -0.00351698 0.0103898
0 -0.0888165 0.262381
0 -0.120241 0.355215
0 -0.0787291 0.232581
0 0.010539 -0.0311342
0 0.0934142 -0.260285
0 0.246841 -0.212673
0 0.171976 -0.148171
0 -0.00720764 0.00620995
0 -0.182019 0.156824
0 -0.24642 0.21231
0 -0.161346 0.139012
0 0.0215984 -0.0186087
0 0.191441 -0.164942
0 0.164971 0
0 0.124787 0
0 -0.00522992 0
0 -0.132074 0
0 -0.178804 0
0 -0.117074 0
0 0.0156719 0
0 0.127946 0
0.0515175 0.0649017 0.23871
0.12581 0.0462036 0.169749
0.122747 -0.00193687 -0.0071159
0.0452209 -0.048912 -0.179698
-0.0597363 -0.0662178 -0.243276
-0.128458 -0.0433567 -0.159288
-0.119253 0.00579659 0.0212972
-0.0369648 0.0503356 0.185136
0.0717852 -0.0745359 0.332622
0.175307 -0.0529682 0.23653
0.171038 0.0022204 -0.00991533
0.0630108 0.0560719 -0.250391
-0.0832384 0.0759108 -0.338987
-0.178997 0.0497033 -0.221955
-0.166171 -0.00664577 0.0296758
-0.0515073 -0.0578075 0.25797
0.0485089 -0.168761 0.22477
0.118463 -0.119929 0.159835
0.11558 0.00502742 -0.00670032
0.0425798 0.126957 -0.169204
-0.0562483 0.171876 -0.229071
-0.120956 0.112538 -0.149985
-0.11229 -0.0150471 0.0200534
-0.0348061 -0.130885 0.174324
-0.00419219 -0.160618 -0.0194248
-0.0102378 -0.114142 -0.0138131
-0.00998851 0.00478481 0.000579046
-0.00367978 0.120831 0.0146228
0.00486101 0.163584 0.0197964
0.0104533 0.107108 0.0129619
0.00970417 -0.0143211 -0.00173304
0.00300798 -0.12457 -0.0150652
-0.0543504 -0.0550463 -0.251837
-0.132729 -0.0391185 -0.179083
-0.129497 0.00163984 0.00750715
-0.0477071 0.0414109 0.189578
0.0630212 0.0560625 0.256653
0.135522 0.0367074 0.168048
0.125811 -0.00490809 -0.0224684
0.0389975 -0.042692 -0.195316
-0.0715404 0.0839159 -0.331488
-0.174694 0.0596182 -0.235703
-0.17044 -0.00249918 0.00988067
-0.0627906 -0.0631118 0.249516
0.0829473 -0.0854413 0.337801
0.17837 -0.0559436 0.221179
0.16559 0.00748029 -0.0295723
0.0513317 0.0650823 -0.257091
-0.0453349 0.171976 -0.210063
-0.108505 0.119817 -0.146352
-0.105858 -0.00502161 0.00613374
-0.0389983 -0.126814 0.154899
0.0515169 -0.171682 0.209705
0.110783 -0.112411 0.137306
0.102849 0.0150477 -0.0183803
0.0325287 0.133378 -0.162918
0 -0.00691406 0
0 -0.00522992 0
0 0.00021919 0
0 0.00553534 0
0 0.00749383 0
0 0.00490666 0
0 -0.000656824 0
0 -0.00536231 0
0.0717852 -0.00272008 0.0909459
0.175307 -0.00193687 0.0646432
0.171038 8.11954e-05 -0.00270984
0.0630108 0.00205042 -0.0684316
-0.0832384 0.00277589 -0.0926429
-0.178997 0.00181755 -0.060659
-0.166171 -0.000242991 0.00811048
-0.0515073 -0.0021096 0.0705346
0.100026 0.00312386 0.126725
0.244273 0.0022204 0.0900748
0.238325 -9.30786e-05 -0.00377589
0.0878008 -0.00235052 -0.0953529
-0.115986 -0.00318217 -0.129091
-0.249414 -0.00208357 -0.0845242
-0.231545 0.000278585 0.0113013
-0.071771 0.00242276 0.0982838
0.067593 0.00707291 0.0856348
0.165069 0.00502742 0.0608677
0.16105 -0.000210749 -0.00255159
0.0593308 -0.00532204 -0.0644351
-0.0783769 -0.00720509 -0.0872334
-0.168544 -0.00471755 -0.0571172
-0.156466 0.000630765 0.00763681
-0.0484993 0.00548551 0.0664154
-0.00584145 0.00673163 -0.00740064
-0.0142655 0.00478481 -0.0052603
-0.0139181 -0.000200579 0.000220511
-0.00512749 -0.00506525 0.00556857
0.00677343 -0.00685742 0.00753874
0.0145657 -0.00448994 0.0049361
0.013522 0.000600328 -0.000659986
0.00419136 0.00522082 -0.00573968
-0.0757326 0.00230703 -0.0959469
-0.184945 0.00163984 -0.0681977
-0.180444 -6.87419e-05 0.00285885
-0.066476 -0.00173594 0.0721938
0.0878153 -0.00235013 0.0977377
0.188838 -0.00153877 0.0639947
0.175308 0.000205742 -0.00855647
0.0543396 0.00178926 -0.0744131
-0.0996853 -0.00351698 -0.126293
-0.243419 -0.00249918 -0.0897597
-0.237493 0.000104765 0.0037627
-0.0874939 0.00264564 0.0950197
0.11558 0.0035817 0.128639
0.248542 0.00234515 0.0842285
0.230735 -0.000313566 -0.0112618
0.0715262 -0.00272765 -0.0979486
-0.0631703 -0.00720764 -0.0800316
-0.151193 -0.00502161 -0.0557585
-0.147504 0.00021046 0.00233689
-0.0543408 0.00531487 0.0590148
0.0717844 0.00719535 0.0798951
0.154366 0.00471123 0.0523121
0.143311 -0.000630663 -0.0070027
0.045326 -0.00559 -0.0620697
0 -0.174605 0
0 -0.132074 0
0 0.00553534 0
0 0.139787 0
0 0.189246 0
0 0.123911 0
0 -0.0165872 0
0 -0.135418 0
0.0485089 -0.0686919 -0.111985
0.118463 -0.048912 -0.079597
0.11558 0.00205042 0.0033367
0.0425798 0.0517792 0.084262
-0.0562483 0.0700997 0.114075
-0.120956 0.0458982 0.0746911
-0.11229 -0.00613627 -0.00998666
-0.0348061 -0.0532751 -0.0868518
0.067593 0.0788887 -0.156041
0.165069 0.0560719 -0.110911
0.16105 -0.00235052 0.00464936
0.0593308 -0.0593575 0.117412
-0.0783769 -0.08036 0.158953
-0.168544 -0.0526164 0.104076
-0.156466 0.00703512 -0.0139155
-0.0484993 0.0611834 -0.12102
0.0456761 0.178617 -0.105445
0.111546 0.126957 -0.0749482
0.10883 -0.00532204 0.00314182
0.0400933 -0.134397 0.0793408
-0.0529634 -0.18195 0.107413
-0.113894 -0.119132 0.0703297
-0.105732 0.0159287 -0.00940342
-0.0327735 0.138529 -0.0817797
-0.00394737 0.169998 0.00911268
-0.00963983 0.120831 0.00647712
-0.00940512 -0.00506525 -0.00027152
-0.00346491 -0.127912 -0.00685673
0.00457711 -0.17317 -0.00928265
0.00984274 -0.113385 -0.00607793
0.00913742 0.0151601 0.000812654
0.00283232 0.131845 0.00706748
-0.0511764 0.0582609 0.118143
-0.124977 0.0414109 0.0839741
-0.121934 -0.00173594 -0.00352018
-0.0449214 -0.0438377 -0.0888951
0.0593406 -0.0593475 -0.120346
0.127608 -0.0388587 -0.0787986
0.118463 0.00519564 0.0105358
0.0367201 0.0451852 0.0916276
-0.0673625 -0.0888165 0.155509
-0.164492 -0.0631118 0.110524
-0.160488 0.00264564 -0.00463312
-0.0591235 0.06681 -0.117001
0.0781029 0.0904488 -0.158398
0.167954 0.0592218 -0.103712
0.155919 -0.00791852 0.013867
0.0483339 -0.068883 0.120608
-0.0426874 -0.182019 0.0985458
-0.102169 -0.126814 0.0686575
-0.0996757 0.00531487 -0.00287749
-0.0367208 0.13422 -0.0726671
0.0485084 0.181709 -0.0983778
0.104313 0.118976 -0.0644138
0.0968429 -0.0159265 0.00862268
0.0306291 -0.141168 0.0764288
0 -0.236383 0
0 -0.178804 0
0 0.00749383 0
0 0.189246 0
0 0.256204 0
0 0.167752 0
0 -0.022456 0
0 -0.18333 0
-0.00419219 -0.0929962 -0.246987
-0.0102378 -0.0662178 -0.175554
-0.00998851 0.00277589 0.0073592
-0.00367978 0.0700997 0.185841
0.00486101 0.0949015 0.251594
0.0104533 0.0621376 0.164735
0.00970417 -0.00830739 -0.022026
0.00300798 -0.0721246 -0.191555
-0.00584145 0.106801 -0.344155
-0.0142655 0.0759108 -0.244618
-0.0139181 -0.00318217 0.0102544
-0.00512749 -0.08036 0.258954
0.00677343 -0.108793 0.350578
0.0145657 -0.0712331 0.229545
0.013522 0.00952421 -0.0306912
0.00419136 0.082831 -0.266915
-0.00394737 0.241814 -0.232563
-0.00963983 0.171876 -0.165302
-0.00940512 -0.00720509 0.00692947
-0.00346491 -0.18195 0.174989
0.00457711 -0.246325 0.2369
0.00984274 -0.161285 0.155114
0.00913742 0.0215646 -0.0207397
0.00283232 0.187542 -0.180368
0.000341136 0.230146 0.0200984
0.000833088 0.163584 0.0142855
0.000812804 -0.00685742 -0.000598845
0.000299438 -0.17317 -0.0151226
-0.00039556 -0.234442 -0.0204734
-0.000850623 -0.153501 -0.0134052
-0.000789668 0.0205241 0.00179235
-0.000244772 0.178493 0.0155876
0.00442271 0.0788745 0.260569
0.0108007 0.0560625 0.185206
0.0105378 -0.00235013 -0.00776382
0.00388211 -0.0593475 -0.19606
-0.00512834 -0.0803465 -0.26543
-0.0110281 -0.0526076 -0.173794
-0.0102379 0.00703393 0.023237
-0.00317339 0.0611723 0.202088
0.00582153 -0.120241 0.342982
0.0142156 -0.0854413 0.243763
0.0138695 0.0035817 -0.0102186
0.00510957 0.0904488 -0.258049
-0.00674976 0.12245 -0.349353
-0.0145147 0.080176 -0.228742
-0.0134748 -0.0107202 0.0305841
-0.00417707 -0.0932549 0.266005
0.00368909 -0.24642 0.217347
0.00882951 -0.171682 0.151427
0.00861407 0.00719535 -0.00634642
0.00317345 0.181709 -0.16027
-0.00419214 0.246 -0.216976
-0.00901484 0.161071 -0.142067
-0.00836926 -0.0215615 0.0190176
-0.002647 -0.191115 0.168567
0 -0.154774 0
0 -0.117074 0
0 0.00490666 0
0 0.123911 0
0 0.167752 0
0 0.109838 0
0 -0.0147033 0
0 -0.120037 0
-0.0543504 -0.0608902 -0.23217
-0.132729 -0.0433567 -0.165023
-0.129497 0.00181755 0.00691775
-0.0477071 0.0458982 0.174694
0.0630212 0.0621377 0.2365
0.135522 0.0406856 0.154852
0.125811 -0.00543935 -0.0207046
0.0389975 -0.0472243 -0.180063
-0.0757326 0.0699289 -0.323509
-0.184945 0.0497033 -0.229944
-0.180444 -0.00208357 0.00963921
-0.066476 -0.0526164 0.243418
0.0878153 -0.0712331 0.329547
0.188838 -0.0466402 0.215774
0.175308 0.00623607 -0.0288502
0.0543396 0.0542344 -0.250903
-0.0511764 0.15833 -0.218612
-0.124977 0.112538 -0.155385
-0.121934 -0.00471755 0.00651372
-0.0449214 -0.119132 0.164492
0.0593406 -0.161285 0.222691
0.127608 -0.105603 0.145808
0.118463 0.0141197 -0.0194955
0.0367201 0.122795 -0.169548
0.00442271 0.15069 0.0188927
0.0108007 0.107108 0.0134286
0.0105378 -0.00448995 -0.00056292
0.00388211 -0.113385 -0.0142156
-0.00512834 -0.153501 -0.0192451
-0.0110281 -0.100507 -0.0126009
-0.0102379 0.0134384 0.00168482
-0.00317339 0.11687 0.0146525
0.057339 0.0516439 0.244937
0.140028 0.0367074 0.174096
0.136619 -0.00153877 -0.00729816
0.0503304 -0.0388587 -0.184298
-0.0664869 -0.0526076 -0.249505
-0.142975 -0.0344453 -0.163368
-0.13273 0.00460552 0.0218431
-0.0411419 0.0400532 0.189965
0.0754743 -0.0787291 0.322406
0.184299 -0.0559436 0.22914
0.179813 0.00234515 -0.00960553
0.0662436 0.0592218 -0.242568
-0.0875084 0.080176 -0.328395
-0.188178 0.052496 -0.21502
-0.174696 -0.00701916 0.0287494
-0.0541543 -0.0610596 0.250047
0.0478278 -0.161346 0.204308
0.114472 -0.112411 0.142343
0.111679 0.00471123 -0.0059657
0.0411428 0.118976 -0.150655
-0.0543498 0.161071 -0.203959
-0.116874 0.105463 -0.133545
-0.108505 -0.0141176 0.0178768
-0.0343174 -0.125134 0.158454
0 0.0207186 0
0 0.0156719 0
0 -0.000656823 0
0 -0.0165872 0
0 -0.0224559 0
0 -0.0147033 0
0 0.00196823 0
0 0.0160687 0
-0.0715404 0.00815099 -0.076522
-0.174694 0.0057965 -0.0544022
-0.17044 -0.000242987 0.00228054
-0.0627906 -0.00613617 0.0575908
0.0829473 -0.00830726 0.0779667
0.17837 -0.00543926 0.0510495
0.16559 0.000727274 -0.0068255
0.0513317 0.00632163 -0.0593479
-0.0996853 -0.00936094 -0.106627
-0.243419 -0.00664566 -0.0758047
-0.237493 0.00027858 0.00317773
-0.0874939 0.007035 0.0802475
0.11558 0.00952405 0.10864
0.248542 0.00623597 0.0711336
0.230735 -0.000833874 -0.00951072
0.0715262 -0.00726002 -0.0826961
-0.0673625 -0.0211946 -0.0720532
-0.164492 -0.0150469 -0.0512251
-0.160488 0.000630755 0.00214737
-0.0591235 0.0159285 0.0542274
0.0781029 0.0215642 0.0734134
0.167954 0.0141194 0.0480684
0.155919 -0.00188804 -0.00642687
0.0483339 -0.0164378 -0.055882
0.00582153 -0.020172 0.00622691
0.0142156 -0.0143209 0.00442693
0.0138695 0.000600318 -0.000185577
0.00510957 0.0151599 -0.00468637
-0.00674976 0.0205237 -0.00634448
-0.0145147 0.0134381 -0.00415412
-0.0134748 -0.00179694 0.00055542
-0.00417707 -0.0156447 0.00482938
0.0754743 -0.00691324 0.0807299
0.184299 -0.00490801 0.0573937
0.179813 0.000205739 -0.00240594
0.0662436 0.00519555 -0.0607572
-0.0875084 0.00703382 -0.0822544
-0.188178 0.00460545 -0.0538569
-0.174696 -0.000615841 0.00720083
-0.0541543 -0.00536167 0.0626113
0.0993453 0.010539 0.106263
0.242569 0.00748017 0.0755398
0.236662 -0.000313561 -0.00316662
0.0871881 -0.0079184 -0.0799669
-0.115175 -0.01072 -0.108261
-0.247674 -0.00701905 -0.0708847
-0.229927 0.000938605 0.00947756
-0.0712823 0.00817366 0.0824141
0.0629549 0.0215984 0.0673387
0.150677 0.0150477 0.0469153
0.147001 -0.000630663 -0.00196626
0.0541554 -0.0159265 -0.0496551
-0.0715396 -0.0215615 -0.0672238
-0.15384 -0.0141176 -0.0440155
-0.142823 0.00188984 0.00589208
-0.0451714 0.016751 0.0522256
0 0.183644 0
0 0.127946 0
0 -0.00536231 0
0 -0.135418 0
0 -0.18333 0
0 -0.120037 0
0 0.0160687 0
0 0.142428 0
-0.0453349 0.0722479 0.125544
-0.108505 0.0503356 0.087467
-0.105858 -0.0021096 -0.00366581
-0.0389983 -0.0532751 -0.092575
0.0515169 -0.0721247 -0.125329
0.110783 -0.0472243 -0.0820607
0.102849 0.00632163 0.010985
0.0325287 0.056033 0.0973673
-0.0631703 -0.0829725 0.174934
-0.151193 -0.0578075 0.121878
-0.147504 0.00242276 -0.005108
-0.0543408 0.0611834 -0.128995
0.0717844 0.082831 -0.174636
0.154366 0.0542344 -0.114345
0.143311 -0.00726002 0.0153066
0.045326 -0.0643506 0.135673
-0.0426874 -0.187863 0.118212
-0.102169 -0.130885 0.082359
-0.0996757 0.00548551 -0.00345173
-0.0367208 0.138529 -0.0871687
0.0485084 0.187542 -0.11801
0.104313 0.122795 -0.0772685
0.0968428 -0.0164378 0.0103434
0.0306291 -0.1457 0.0916811
0.00368909 -0.178798 -0.010216
0.00882951 -0.12457 -0.00711755
0.00861407 0.00522082 0.000298302
0.00317345 0.131845 0.00753321
-0.00419214 0.178493 0.0101986
-0.00901484 0.11687 0.00667762
-0.00836925 -0.0156447 -0.000893891
-0.002647 -0.13867 -0.00792317
0.0478278 -0.0612768 -0.132447
0.114472 -0.042692 -0.0922767
0.111679 0.00178926 0.00386739
0.0411428 0.0451852 0.0976656
-0.0543498 0.0611723 0.132221
-0.116874 0.0400532 0.0865731
-0.108505 -0.00536167 -0.011589
-0.0343174 -0.0475242 -0.102721
0.0629549 0.0934142 -0.174337
0.150677 0.0650823 -0.121462
0.147 -0.00272765 0.00509057
0.0541554 -0.068883 0.128555
-0.0715396 -0.0932549 0.17404
-0.15384 -0.0610596 0.113955
-0.142823 0.00817366 -0.0152544
-0.0451714 0.0724488 -0.13521
0.0398943 0.191441 -0.110477
0.0954836 0.133378 -0.0769702
0.0931538 -0.00559 0.00322588
0.0343181 -0.141168 0.0814652
-0.0453344 -0.191115 0.110289
-0.0974877 -0.125134 0.0722127
-0.0905063 0.016751 -0.00966666
-0.028625 0.148475 -0.0856823
