# vtk DataFile Version 3.0
Velocity field
ASCII
DATASET STRUCTURED_POINTS
DIMENSIONS 10 10 10
SPACING 0.631579 0.631579 0.631579
ORIGIN 0 0 0
POINT_DATA 1000
VECTORS velocity float
0 0.725769 0
0 0.585765 0
0 0.219769 0
0 -0.231015 0
0 -0.592673 0
0 -0.725672 0
0 -0.578702 0
0 -0.208464 0
0 0.2422 0
0 0.599422 0
0 0.445762 0.568512
0 0.359773 0.476835
0 0.134981 0.1789
0 -0.141888 -0.188055
0 -0.364015 -0.482458
0 -0.445702 -0.590724
0 -0.355435 -0.471085
0 -0.128037 -0.169698
0 0.148758 0.19716
0 0.368161 0.469542
0 -0.0062234 0.917687
0 -0.00502288 0.769704
0 -0.0018845 0.28878
0 0.00198094 -0.303557
0 0.00508211 -0.77878
0 0.00622257 -0.953543
0 0.00496231 -0.760423
0 0.00178756 -0.273925
0 -0.00207684 0.318254
0 -0.00513999 0.757931
0 -0.455807 0.912812
0 -0.36788 0.765615
0 -0.138023 0.287246
0 0.145086 -0.301945
0 0.372219 -0.774642
0 0.455747 -0.948478
0 0.363445 -0.756382
0 0.130923 -0.27247
0 -0.15211 0.316564
0 -0.376458 0.753904
0 -0.729538 0.555768
0 -0.588807 0.466146
0 -0.22091 0.17489
0 0.232215 -0.18384
0 0.59575 -0.471643
0 0.729441 -0.577482
0 0.581707 -0.460525
0 0.209547 -0.165894
0 -0.243458 0.192741
0 -0.602535 0.459016
0 -0.721807 -0.0156964
0 -0.582568 -0.0131652
0 -0.218569 -0.00493936
0 0.229754 0.00519212
0 0.589437 0.0133205
0 0.721711 0.0163097
0 0.575543 0.0130065
0 0.207326 0.00468529
0 -0.240878 -0.00544351
0 -0.59615 -0.0129638
0 -0.435598 -0.581105
0 -0.351569 -0.487397
0 -0.131903 -0.182863
0 0.138653 0.192221
0 0.355715 0.493145
0 0.43554 0.603809
0 0.34733 0.48152
0 0.125118 0.173457
0 -0.145366 -0.201527
0 -0.359766 -0.479942
0 0.0186687 -0.922318
0 0.0150675 -0.773588
0 0.00565305 -0.290237
0 -0.00594234 0.305089
0 -0.0152451 0.78271
0 -0.0186662 0.958355
0 -0.0148858 0.76426
0 -0.00536227 0.275307
0 0.00623004 -0.319861
0 0.0154188 -0.761756
0 0.465732 -0.907695
0 0.375891 -0.761322
0 0.141028 -0.285635
0 -0.148245 0.300252
0 -0.380323 0.7703
0 -0.46567 0.94316
0 -0.371358 0.752142
0 -0.133773 0.270942
0 0.155422 -0.314789
0 0.384654 -0.749678
0 0.733113 -0.542876
0 0.591693 -0.438153
0 0.221993 -0.164388
0 -0.233353 0.1728
0 -0.59867 0.44332
0 -0.733015 0.542804
0 -0.584558 0.43287
0 -0.210574 0.155932
0 0.244651 -0.181166
0 0.605488 -0.448369
0 0.585765 0
0 0.497362 0
0 0.186602 0
0 -0.196151 0
0 -0.503227 0
0 -0.616155 0
0 -0.491365 0
0 -0.177003 0
0 0.205648 0
0 0.483791 0
0.0826608 0.359773 0.629183
0.23067 0.308748 0.540901
0.284348 0.116114 0.203454
0.228132 -0.122078 -0.213907
0.0838956 -0.313192 -0.54878
-0.092708 -0.383474 -0.67193
-0.233544 -0.30581 -0.535844
-0.284273 -0.110178 -0.193058
-0.225155 0.127339 0.22305
-0.0743695 0.297141 0.519651
0.13343 -0.00502288 1.01562
0.372345 -0.00429318 0.873118
0.458992 -0.00161445 0.328414
0.368248 0.0016974 -0.345287
0.135424 0.00435468 -0.885834
-0.149649 0.00533184 -1.08462
-0.376984 0.00425201 -0.864955
-0.458871 0.00153193 -0.311632
-0.363444 -0.00177078 0.360045
-0.120047 -0.00414847 0.838816
0.132722 -0.36788 1.01023
0.370368 -0.315506 0.868479
0.456553 -0.118661 0.326669
0.366292 0.124757 -0.343453
0.134704 0.320065 -0.881128
-0.148854 0.391889 -1.07886
-0.374982 0.31252 -0.86036
-0.456433 0.112596 -0.309977
-0.361514 -0.130119 0.358132
-0.119409 -0.303838 0.83436
0.0808079 -0.588807 0.615079
0.225499 -0.504982 0.528775
0.277974 -0.189922 0.198893
0.223018 0.199679 -0.209112
0.0820148 0.512276 -0.536477
-0.09063 0.627234 -0.656867
-0.228309 0.500203 -0.523832
-0.277901 0.180215 -0.18873
-0.220108 -0.208262 0.218049
-0.0727024 -0.486304 0.508002
-0.00228223 -0.582568 -0.0173715
-0.00636869 -0.499631 -0.014934
-0.00785068 -0.18791 -0.00561727
-0.00629858 0.197563 0.00590587
-0.00231632 0.506848 0.0151516
0.00255961 0.620586 0.0185516
0.00644803 0.494902 0.0147945
0.00784861 0.178305 0.00533022
0.00621645 -0.206055 -0.0061583
0.00205331 -0.48115 -0.0143473
-0.0844918 -0.351569 -0.643119
-0.235779 -0.301518 -0.552882
-0.290645 -0.113401 -0.20796
-0.233184 0.119226 0.218645
-0.0857538 0.305873 0.560936
0.0947612 0.374515 0.686811
0.238717 0.298665 0.547714
0.290568 0.107604 0.197334
0.230142 -0.124351 -0.227991
0.0760168 -0.290366 -0.531161
-0.134104 0.0150675 -1.02075
-0.374211 0.0128962 -0.877495
-0.461292 0.00484949 -0.33006
-0.370093 -0.00509853 0.347018
-0.136102 -0.0130803 0.890275
0.150398 -0.0160156 1.09006
0.378873 -0.012772 0.86929
0.46117 -0.00460151 0.313194
0.365265 0.00531937 -0.361852
0.120653 0.0124444 -0.843049
-0.131978 0.375891 -1.00456
-0.367805 0.32137 -0.862549
-0.453383 0.120844 -0.324415
-0.363748 -0.12705 0.34108
-0.133769 -0.325947 0.875041
0.14782 -0.399091 1.07141
0.372378 -0.318264 0.854416
0.453263 -0.114664 0.307833
0.359011 0.132564 -0.355714
0.11874 0.310453 -0.829683
-0.0789334 0.591693 -0.600811
-0.206347 0.477553 -0.484912
-0.254151 0.17917 -0.181931
-0.203901 -0.188338 0.191241
-0.0749847 -0.483184 0.49063
0.0828612 -0.591614 0.600731
0.208739 -0.471795 0.479065
0.254083 -0.169953 0.172573
0.201401 0.197457 -0.2005
0.071016 0.488687 -0.496218
0 0.219769 0
0 0.186602 0
0 0.0700099 0
0 -0.0735925 0
0 -0.188802 0
0 -0.231171 0
0 -0.184352 0
0 -0.0664087 0
0 0.0771556 0
0 0.18151 0
0.13343 0.134981 0.44711
0.372345 0.116114 0.384467
0.458992 0.0436745 0.14462
0.368248 -0.0459182 -0.152051
0.135424 -0.117803 -0.390089
-0.149649 -0.144239 -0.477627
-0.376984 -0.115026 -0.380894
-0.458871 -0.0414424 -0.137232
-0.363444 0.0478825 0.158533
-0.120047 0.111482 0.369274
0.215382 -0.0018845 0.721722
0.601038 -0.00161445 0.620603
0.740901 -0.000607208 0.233445
0.594423 0.000638402 -0.245441
0.2186 0.00163783 -0.629678
-0.241561 0.00200538 -0.770982
-0.608524 0.00159923 -0.614835
-0.740705 0.000576178 -0.221519
-0.586668 -0.000665811 0.255903
-0.193778 -0.00155643 0.59608
0.214238 -0.138023 0.717888
0.597845 -0.118661 0.617305
0.736965 -0.0446347 0.232205
0.591266 0.0469282 -0.244137
0.217438 0.120395 -0.626333
-0.240278 0.147412 -0.766886
-0.605292 0.117557 -0.611568
-0.73677 0.0423543 -0.220342
-0.583551 -0.0489299 0.254543
-0.192749 -0.113995 0.592914
0.130439 -0.22091 0.437088
0.363999 -0.189922 0.375849
0.448703 -0.0714396 0.141378
0.359994 0.0751106 -0.148643
0.132388 0.192696 -0.381344
-0.146294 0.235939 -0.46692
-0.368534 0.188154 -0.372356
-0.448585 0.06779 -0.134156
-0.355297 -0.0783145 0.154979
-0.117356 -0.182453 0.360997
-0.00368396 -0.218569 -0.0123445
-0.0102803 -0.18791 -0.010615
-0.0126725 -0.0706826 -0.00399291
-0.0101671 0.0743148 0.00419808
-0.00373898 0.190654 0.0107702
0.00413172 0.233439 0.0131871
0.0104084 0.186161 0.0105163
0.0126692 0.0670716 0.0037889
0.0100346 -0.0774847 -0.00437704
0.00331444 -0.180519 -0.0101955
-0.136386 -0.131903 -0.457014
-0.380593 -0.1134 -0.392983
-0.469158 -0.0426558 -0.147823
-0.376404 0.0448478 0.155419
-0.138423 0.115057 0.39873
0.152963 0.140877 0.488206
0.385335 0.112345 0.389331
0.469034 0.0404766 0.140272
0.371494 -0.0467608 -0.162045
0.122706 -0.10894 -0.377454
-0.216469 0.00565305 -0.725364
-0.604049 0.00484949 -0.623715
-0.744613 0.00182386 -0.234615
-0.597402 -0.00191754 0.246671
-0.219695 -0.00491946 0.632835
0.242772 -0.00602343 0.774846
0.611573 -0.0048035 0.617916
0.744416 -0.00173063 0.222629
0.589608 0.00200003 -0.257186
0.194756 0.00466893 -0.599088
-0.213037 0.141028 -0.713863
-0.593708 0.120844 -0.613076
-0.731848 0.0454468 -0.230596
-0.58716 -0.0477811 0.242444
-0.215928 -0.122583 0.621989
0.238609 -0.150091 0.761567
0.601089 -0.119693 0.607328
0.731654 -0.0431235 0.218812
0.579513 0.0498408 -0.25282
0.191668 0.116477 -0.58959
-0.127414 0.221993 -0.426949
-0.333084 0.17917 -0.344589
-0.410248 0.0672214 -0.129284
-0.329135 -0.0706614 0.1359
-0.12104 -0.181283 0.348652
0.133754 -0.221964 0.426892
0.336944 -0.177009 0.340434
0.410139 -0.0637637 0.122634
0.325099 0.0740825 -0.142479
0.114633 0.183347 -0.352623
0 -0.231015 0
0 -0.196151 0
0 -0.0735925 0
0 0.0773585 0
0 0.198464 0
0 0.243001 0
0 0.193786 0
0 0.069807 0
0 -0.0811039 0
0 -0.190799 0
0.132722 -0.141888 0.0925393
0.370368 -0.122078 0.0795735
0.456553 -0.0459182 0.0299321
0.366292 0.0482775 -0.0314702
0.134704 0.123856 -0.0807372
-0.148854 0.15165 -0.0988549
-0.374982 0.120937 -0.0788338
-0.456433 0.0435719 -0.028403
-0.361514 -0.0503412 0.0328117
-0.119409 -0.117187 0.0764295
0.214238 0.00198094 0.149376
0.597845 0.0016974 0.128447
0.736965 0.000638402 0.0483162
0.591266 -0.000671205 -0.0507991
0.217438 -0.00172196 -0.130325
-0.240278 -0.00210841 -0.159571
-0.605292 -0.0016814 -0.127253
-0.73677 -0.000605777 -0.0458479
-0.583551 0.000700001 0.0529642
-0.192749 0.00163608 0.123372
0.2131 0.145086 0.148583
0.594669 0.124757 0.127764
0.73305 0.0469282 0.0480595
0.588124 -0.0493398 -0.0505292
0.216283 -0.126581 -0.129633
-0.239002 -0.154987 -0.158723
-0.602077 -0.123598 -0.126577
-0.732857 -0.0445309 -0.0456043
-0.580451 0.051443 0.0526829
-0.191725 0.119828 0.122717
0.129747 0.232215 0.0904649
0.362066 0.199679 0.0777894
0.44632 0.0751106 0.0292611
0.358081 -0.0789704 -0.0307648
0.131685 -0.202599 -0.078927
-0.145517 -0.248063 -0.0966388
-0.366577 -0.197823 -0.0770665
-0.446201 -0.0712736 -0.0277663
-0.353409 0.0823364 0.0320761
-0.116732 0.19179 0.0747163
-0.00366439 0.229754 -0.00255497
-0.0102256 0.197563 -0.00219699
-0.0126052 0.0743148 -0.000826413
-0.0101132 -0.0781335 0.000868878
-0.00371913 -0.200452 0.00222911
0.00410978 -0.245434 0.00272934
0.0103531 -0.195727 0.00217658
0.0126019 -0.0705183 0.000784191
0.00998125 0.0814639 -0.000905914
0.00329683 0.189757 -0.00211019
-0.135662 0.138653 -0.0945892
-0.378571 0.119226 -0.0813359
-0.466666 0.0448478 -0.0305951
-0.374405 -0.0471522 0.0321673
-0.137688 -0.120969 0.0825251
0.15215 -0.148116 0.101045
0.383287 -0.118118 0.0805802
0.466543 -0.0425566 0.0290321
0.36952 0.049162 -0.0335384
0.122054 0.114515 -0.0781225
-0.215319 -0.00594234 -0.15013
-0.600841 -0.00509853 -0.129091
-0.740658 -0.00191754 -0.0485583
-0.594229 0.00201604 0.0510537
-0.218528 0.00517218 0.130978
0.241482 0.00633284 0.160371
0.608325 0.00505026 0.127891
0.740462 0.00181953 0.0460776
0.586476 -0.00210272 -0.0532298
0.193722 -0.00490786 -0.123995
-0.211906 -0.148245 -0.14775
-0.590554 -0.12705 -0.126889
-0.72796 -0.0477811 -0.0477265
-0.58404 0.0502355 0.0501787
-0.214781 0.128879 0.128733
0.237342 0.157801 0.157622
0.597897 0.125841 0.125699
0.727768 0.0453386 0.0452878
0.576435 -0.0523997 -0.0523264
0.19065 -0.122437 -0.122029
-0.126737 -0.233353 -0.0883665
-0.331315 -0.188338 -0.0713203
-0.408069 -0.0706614 -0.0267582
-0.327387 0.0742773 0.0281275
-0.120397 0.190559 0.0721613
0.133043 0.233322 0.0883548
0.335154 0.186067 0.0704603
0.40796 0.0670266 0.0253817
0.323372 -0.0778736 -0.0294893
0.114025 -0.19273 -0.0729831
0 -0.592673 0
0 -0.503227 0
0 -0.188802 0
0 0.198464 0
0 0.509162 0
0 0.623421 0
0 0.49716 0
0 0.179091 0
0 -0.208073 0
0 -0.489496 0
0.0808079 -0.364015 -0.297734
0.225499 -0.313192 -0.256016
0.277974 -0.117803 -0.0963025
0.223018 0.123856 0.101251
0.0820148 0.317752 0.25976
-0.09063 0.389058 0.318052
-0.228309 0.310262 0.253637
-0.277901 0.111784 0.0913828
-0.220108 -0.129151 -0.105567
-0.0727024 -0.300645 -0.245903
0.130439 0.00508211 -0.4806
0.363999 0.00435468 -0.413261
0.448703 0.00163783 -0.155451
0.359994 -0.00172196 0.163439
0.132388 -0.00441775 0.419303
-0.146294 -0.00540915 0.513397
-0.368534 -0.00431362 0.40942
-0.448585 -0.00155412 0.147509
-0.355297 0.00179585 -0.170406
-0.117356 0.00419738 -0.396934
0.129747 0.372219 -0.478047
0.362066 0.320065 -0.411065
0.44632 0.120395 -0.154625
0.358081 -0.126581 0.162571
0.131685 -0.324745 0.417075
-0.145517 -0.39762 0.510669
-0.366577 -0.31709 0.407245
-0.446201 -0.114244 0.146726
-0.353409 0.131977 -0.169501
-0.116732 0.30742 -0.394825
0.0789964 0.59575 -0.29106
0.220444 0.512276 -0.250278
0.271743 0.192696 -0.0941436
0.218018 -0.202599 0.0989816
0.0801767 -0.519767 0.253937
-0.0885982 -0.636407 0.310922
-0.223191 -0.507515 0.247952
-0.271671 -0.182852 0.0893343
-0.215174 0.211234 -0.103201
-0.0710727 0.492038 -0.24039
-0.00223107 0.589437 0.0082203
-0.00622593 0.506848 0.00706848
-0.00767469 0.190654 0.00265888
-0.00615741 -0.200452 -0.0027955
-0.00226438 -0.514258 -0.00717185
0.00250227 -0.629662 -0.00878129
0.00630348 -0.502137 -0.0070028
0.00767266 -0.180915 -0.00252305
0.00607709 0.208997 0.00291465
0.00200728 0.486824 0.00678926
-0.0825978 0.355715 0.304329
-0.230494 0.305873 0.261687
-0.284131 0.115057 0.0984357
-0.227957 -0.120969 -0.103494
-0.0838315 -0.310346 -0.265514
0.0926373 -0.37999 -0.325097
0.233366 -0.303031 -0.259255
0.284056 -0.109179 -0.0934068
0.224983 0.126125 0.107905
0.0743128 0.29379 0.251349
-0.131098 -0.0152451 0.483025
-0.365823 -0.0130803 0.415333
-0.450952 -0.00491946 0.15623
-0.361798 0.00517218 -0.164258
-0.133051 0.0132692 -0.421404
0.147027 0.0162469 -0.515969
0.370381 0.0129565 -0.411472
0.450833 0.004668 -0.148248
0.357078 -0.00539455 0.171261
0.117948 -0.0125912 0.398937
-0.129019 -0.380323 0.475367
-0.35956 -0.325947 0.408248
-0.44322 -0.122583 0.153554
-0.355594 0.128879 -0.161444
-0.13077 0.330639 -0.414184
0.144506 0.404838 -0.507128
0.364031 0.322847 -0.404421
0.443103 0.116316 -0.145707
0.350963 -0.134432 0.168353
0.116078 -0.314114 0.392612
-0.077164 -0.59867 0.284308
-0.201722 -0.483184 0.229464
-0.248453 -0.181283 0.086091
-0.19933 0.190559 -0.0904966
-0.0733038 0.488882 -0.23217
0.0810037 0.59859 -0.28427
0.204059 0.477358 -0.226697
0.248387 0.171958 -0.0816626
0.196886 -0.199785 0.0948781
0.0694241 -0.49445 0.234814
0 -0.725672 0
0 -0.616155 0
0 -0.231171 0
0 0.243001 0
0 0.623421 0
0 0.763321 0
0 0.608726 0
0 0.21928 0
0 -0.254766 0
0 -0.599343 0
-0.00228223 -0.445702 -0.573139
-0.00636869 -0.383474 -0.492834
-0.00785068 -0.144239 -0.185383
-0.00629858 0.15165 0.194909
-0.00231632 0.389058 0.50004
0.00255961 0.476365 0.61225
0.00644803 0.379887 0.488253
0.00784861 0.136868 0.175912
0.00621645 -0.158132 -0.203218
0.00205331 -0.368112 -0.473364
-0.00368396 0.00622257 -0.925157
-0.0102803 0.00533184 -0.795528
-0.0126725 0.00200538 -0.299243
-0.0101671 -0.00210841 0.314621
-0.00373898 -0.00540915 0.807161
0.00413173 -0.00662297 0.988293
0.0104084 -0.00528162 0.788135
0.0126692 -0.00190288 0.283957
0.0100346 0.00219887 -0.328031
0.00331444 0.00513931 -0.7641
-0.00366439 0.455747 -0.920242
-0.0102256 0.391889 -0.791302
-0.0126052 0.147412 -0.297654
-0.0101132 -0.154987 0.312949
-0.00371913 -0.39762 0.802873
0.00410978 -0.486847 0.983042
0.0103531 -0.388247 0.783947
0.0126019 -0.139881 0.282448
0.00998125 0.161593 -0.326289
0.00329683 0.376408 -0.760041
-0.00223107 0.729441 -0.560291
-0.00622593 0.627234 -0.481785
-0.00767469 0.235939 -0.181227
-0.00615742 -0.248063 0.19054
-0.00226438 -0.636407 0.488831
0.00250227 -0.779219 0.598527
0.00630348 -0.621404 0.477308
0.00767266 -0.223886 0.171969
0.00607709 0.258637 -0.198662
0.00200728 0.602455 -0.462752
6.30114e-05 0.721711 0.0158241
0.000175834 0.620586 0.0136069
0.000216758 0.233439 0.00511831
0.000173902 -0.245434 -0.00538138
6.39532e-05 -0.629662 -0.0138058
-7.06683e-05 -0.770962 -0.016904
-0.000178031 -0.614819 -0.0134805
-0.000216701 -0.221513 -0.00485686
-0.000171633 0.255896 0.00561074
-5.6691e-05 0.596071 0.0130694
0.00233278 0.43554 0.585834
0.00650974 0.374515 0.50375
0.00802461 0.140877 0.189489
0.00643811 -0.148115 -0.199226
0.00236761 -0.37999 -0.511114
-0.00261632 -0.465263 -0.625812
-0.00659088 -0.371034 -0.499068
-0.00802249 -0.133679 -0.179809
-0.00635413 0.154429 0.207719
-0.00209879 0.359718 0.483849
0.00370255 -0.0186662 0.929826
0.0103318 -0.0160156 0.799516
0.012736 -0.00602342 0.300743
0.010218 0.00633284 -0.316198
0.00375772 0.0162469 -0.811206
-0.00415243 0.0198929 -0.993246
-0.0104605 0.015864 -0.792085
-0.0127327 0.00571553 -0.285379
-0.0100848 -0.00660511 0.329677
-0.00333116 -0.0154167 0.767956
0.00364384 -0.46567 0.915083
0.0101549 -0.399091 0.785879
0.0125177 -0.150091 0.295592
0.010043 0.157801 -0.310778
0.00369331 0.404838 -0.797305
-0.00408123 0.495686 -0.976224
-0.0102811 0.395297 -0.778511
-0.0125144 0.142418 -0.280488
-0.00991214 -0.164599 0.324079
-0.00327835 -0.384603 0.75578
0.00217932 -0.733015 0.547295
0.00569716 -0.591614 0.44172
0.00701699 -0.221964 0.165726
0.00562962 0.233322 -0.174206
0.00207029 0.59859 -0.446928
-0.00228776 0.732918 -0.547222
-0.00576318 0.58448 -0.436393
-0.00701512 0.210546 -0.157201
-0.00556058 -0.244619 0.182641
-0.00196072 -0.605408 0.452018
0 -0.578702 0
0 -0.491365 0
0 -0.184352 0
0 0.193786 0
0 0.49716 0
0 0.608726 0
0 0.485441 0
0 0.174869 0
0 -0.203168 0
0 -0.477958 0
-0.0844918 -0.355435 -0.627423
-0.235779 -0.305809 -0.539512
-0.290645 -0.115026 -0.202941
-0.233184 0.120937 0.21337
-0.0857538 0.310262 0.547402
0.0947612 0.379887 0.67024
0.238717 0.30295 0.534497
0.290568 0.109149 0.192573
0.230142 -0.126106 -0.222465
0.0760168 -0.293558 -0.518197
-0.136386 0.00496231 -1.01278
-0.380593 0.004252 -0.870875
-0.469158 0.00159923 -0.327586
-0.376404 -0.0016814 0.34442
-0.138423 -0.00431362 0.883609
0.152963 -0.00528162 1.0819
0.385335 -0.00421194 0.862781
0.469034 -0.00151751 0.31085
0.371494 0.00175352 -0.359101
0.122706 0.00409844 -0.83647
-0.135662 0.363445 -1.0074
-0.378571 0.31252 -0.866248
-0.466666 0.117557 -0.325846
-0.374405 -0.123598 0.34259
-0.137688 -0.31709 0.878914
0.15215 -0.388247 1.07615
0.383287 -0.309615 0.858198
0.466543 -0.111551 0.309199
0.36952 0.128866 -0.357193
0.122054 0.300174 -0.832027
-0.0825978 0.581707 -0.613358
-0.230494 0.500202 -0.527416
-0.284131 0.188154 -0.198392
-0.227957 -0.197823 0.208587
-0.0838315 -0.507515 0.535129
0.0926372 -0.621405 0.655216
0.233366 -0.495554 0.522516
0.284056 -0.178542 0.188256
0.224983 0.206256 -0.217478
0.0743128 0.48044 -0.506581
0.00233278 0.575543 0.0173229
0.00650974 0.494902 0.0148957
0.00802461 0.186161 0.0056031
0.00643811 -0.195727 -0.00589104
0.00236761 -0.502137 -0.0151135
-0.00261632 -0.614819 -0.018505
-0.00659088 -0.490302 -0.0147573
-0.00802249 -0.17665 -0.00531688
-0.00635412 0.20407 0.00614215
-0.00209879 0.475349 0.0143072
0.0863634 0.34733 0.641321
0.241001 0.298665 0.551463
0.297083 0.112345 0.207436
0.238349 -0.118118 -0.218096
0.0876532 -0.303031 -0.559526
-0.0968603 -0.371034 -0.685086
-0.244004 -0.295889 -0.546338
-0.297005 -0.106605 -0.196839
-0.23524 0.123153 0.227392
-0.0777007 0.286865 0.529676
0.137074 -0.0148858 1.01789
0.3825 -0.012772 0.875241
0.471509 -0.0048035 0.329228
0.37829 0.00505026 -0.346146
0.139117 0.0129565 -0.888037
-0.153729 0.015864 -1.08732
-0.387266 0.012651 -0.867105
-0.471385 0.00455797 -0.312408
-0.373355 -0.00526737 0.360902
-0.123325 -0.0122944 0.840692
0.134901 -0.371358 1.00175
0.375951 -0.318264 0.860312
0.463426 -0.119693 0.323589
0.371805 0.125841 -0.340214
0.136732 0.322847 -0.872819
-0.151094 0.395297 -1.06869
-0.380625 0.315237 -0.852245
-0.463303 0.113574 -0.307052
-0.366963 -0.131263 0.354774
-0.12137 -0.30671 0.827362
0.0806819 -0.584558 0.599131
0.210918 -0.471795 0.483556
0.25978 -0.177009 0.181422
0.208417 0.186067 -0.190706
0.0766457 0.477358 -0.489258
-0.0846966 0.58448 -0.599051
-0.213362 0.466106 -0.477726
-0.259711 0.167904 -0.17209
-0.205862 -0.195076 0.199939
-0.072589 -0.482795 0.494831
0 -0.208464 0
0 -0.177003 0
0 -0.0664087 0
0 0.069807 0
0 0.179091 0
0 0.21928 0
0 0.174869 0
0 0.0629927 0
0 -0.0731868 0
0 -0.172174 0
-0.134104 -0.128037 -0.439642
-0.374211 -0.110178 -0.378056
-0.461292 -0.0414425 -0.142209
-0.370093 0.043572 0.149517
-0.136102 0.111784 0.383585
0.150398 0.136869 0.469664
0.378873 0.109149 0.374544
0.46117 0.0393248 0.134944
0.365265 -0.0454334 -0.155889
0.120653 -0.105748 -0.363107
-0.216469 0.00178756 -0.709667
-0.604049 0.00153193 -0.610253
-0.744613 0.000576179 -0.229553
-0.597402 -0.000605778 0.241349
-0.219695 -0.00155413 0.619179
0.242772 -0.00190288 0.758127
0.611573 -0.00151751 0.604585
0.744417 -0.000546744 0.217826
0.589608 0.00063176 -0.251635
0.194756 0.00147637 -0.586124
-0.215319 0.130923 -0.705898
-0.600841 0.112596 -0.607012
-0.740658 0.0423544 -0.228333
-0.594229 -0.0445309 0.240067
-0.218528 -0.114244 0.61589
0.241482 -0.139882 0.7541
0.608325 -0.111551 0.601373
0.740462 -0.0401908 0.216668
0.586476 0.046428 -0.250298
0.193722 0.108131 -0.583011
-0.131098 0.209547 -0.429787
-0.365823 0.180215 -0.369582
-0.450952 0.0677902 -0.139021
-0.361798 -0.0712738 0.146165
-0.133051 -0.182853 0.374986
0.147027 -0.223886 0.459136
0.370381 -0.178543 0.366148
0.450833 -0.0643269 0.131919
0.357078 0.0743099 -0.152394
0.117948 0.173068 -0.354967
0.00370255 0.207326 0.0121383
0.0103318 0.178305 0.010438
0.012736 0.0670717 0.00392632
0.010218 -0.0705185 -0.00412808
0.00375772 -0.180915 -0.0105906
-0.00415243 -0.221513 -0.0129672
-0.0104605 -0.17665 -0.010341
-0.0127327 -0.0636452 -0.00372576
-0.0100848 0.0735224 0.00430404
-0.00333116 0.171234 0.0100252
0.137074 0.125118 0.449381
0.3825 0.107604 0.38643
0.471509 0.0404767 0.145359
0.37829 -0.0425566 -0.152828
0.139117 -0.109179 -0.392081
-0.153729 -0.13368 -0.480067
-0.387266 -0.106606 -0.382839
-0.471385 -0.0384088 -0.137933
-0.373355 0.0443694 0.159342
-0.123325 0.103337 0.37115
0.217562 -0.00536227 0.713249
0.607076 -0.00460151 0.613313
0.748344 -0.00173063 0.230703
0.600395 0.00181953 -0.242558
0.220796 0.00466801 -0.622283
-0.243988 0.00571554 -0.761926
-0.614639 0.00455798 -0.607614
-0.748146 0.00164216 -0.218917
-0.592563 -0.00189771 0.252897
-0.195739 -0.00442877 0.589082
0.214112 -0.133773 0.70194
0.596684 -0.114664 0.602853
0.735516 -0.0431236 0.226751
0.590102 0.0453387 -0.238401
0.21701 0.116316 -0.611618
-0.239805 0.142419 -0.74887
-0.604101 0.113575 -0.597203
-0.735321 0.040919 -0.215164
-0.582418 -0.0472907 0.248603
-0.192636 -0.110485 0.579742
0.128057 -0.210574 0.419818
0.334765 -0.169953 0.338833
0.412318 -0.0637637 0.127125
0.330796 0.0670266 -0.13363
0.121651 0.171958 -0.342829
-0.134429 0.210546 -0.419762
-0.338645 0.167904 -0.334748
-0.412209 0.0604837 -0.120585
-0.32674 -0.0702718 0.1401
-0.115212 -0.173916 0.346733
0 0.2422 0
0 0.205648 0
0 0.0771556 0
0 -0.0811039 0
0 -0.208073 0
0 -0.254766 0
0 -0.203168 0
0 -0.0731868 0
0 0.0850306 0
0 0.200037 0
-0.131978 0.148758 -0.0822448
-0.367805 0.127333 -0.0712784
-0.453383 0.0478801 -0.0268244
-0.363748 -0.0503388 0.0282042
-0.133769 -0.129144 0.0723576
0.14782 -0.158125 0.0885952
0.372378 -0.1261 0.0706522
0.453264 -0.0454311 0.0254562
0.359011 0.0525253 -0.0293763
0.11874 0.122861 -0.0679271
-0.213037 -0.00207684 -0.132759
-0.593708 -0.00177069 -0.115057
-0.731848 -0.000665775 -0.0432998
-0.58716 0.00069996 0.0455269
-0.215928 0.00179574 0.116799
0.238609 0.00219874 0.14301
0.601089 0.00175343 0.114046
0.731655 0.000631721 0.0410911
0.579513 -0.000730481 -0.047419
0.191668 -0.00171529 -0.109647
-0.211906 -0.15211 -0.132054
-0.590554 -0.130113 -0.114446
-0.72796 -0.0489275 -0.0430698
-0.58404 0.0514404 0.0452851
-0.214781 0.13197 0.116179
0.237342 0.161585 0.14225
0.597897 0.128859 0.113441
0.727768 0.0464255 0.0408729
0.576435 -0.05367 -0.047167
0.19065 -0.12563 -0.109065
-0.129019 -0.243458 -0.0804012
-0.35956 -0.208252 -0.0696806
-0.44322 -0.0783105 -0.0262231
-0.355594 0.0823322 0.0275719
-0.13077 0.211223 0.0707357
0.144506 0.258623 0.0866093
0.364031 0.206245 0.0690687
0.443103 0.074306 0.0248855
0.350963 -0.0859006 -0.0287177
0.116078 -0.201075 -0.0664044
0.00364384 -0.240878 0.00227074
0.0101549 -0.206045 0.00196796
0.0125177 -0.0774807 0.000740611
0.010043 0.0814597 -0.000778703
0.00369331 0.208986 -0.00199776
-0.00408123 0.255883 -0.00244608
-0.0102811 0.20406 -0.00195067
-0.0125144 0.0735185 -0.000702833
-0.00991214 -0.0849902 0.000811068
-0.00327835 -0.198945 0.00187544
0.134901 -0.145366 0.0840666
0.375951 -0.124345 0.072857
0.463426 -0.0467584 0.0274186
0.371805 0.0491595 -0.0288288
0.136732 0.126119 -0.0739602
-0.151094 0.154421 -0.0905576
-0.380625 0.123147 -0.072217
-0.463303 0.0443671 -0.02602
-0.366963 -0.0512902 0.030027
-0.12137 -0.12006 0.0694318
0.214112 0.00623004 0.133429
0.596684 0.00531912 0.115633
0.735516 0.00199993 0.0435165
0.590102 -0.00210262 -0.0457547
0.21701 -0.00539428 -0.117384
-0.239805 -0.00660478 -0.143725
-0.604101 -0.00526711 -0.114617
-0.735321 -0.00189761 -0.0412967
-0.582418 0.0021944 0.0476566
-0.192636 0.00514548 0.110201
0.210718 0.155422 0.131313
0.586491 0.132558 0.113636
0.722933 0.0498384 0.0427609
0.580008 -0.0523971 -0.04496
0.213298 -0.134425 -0.115345
-0.235703 -0.164591 -0.141229
-0.593769 -0.131256 -0.112626
-0.722742 -0.0472883 -0.0405792
-0.572467 0.0546886 0.0468377
-0.189581 0.128365 0.108454
0.126026 0.244651 0.0785361
0.329457 0.197457 0.0633862
0.405781 0.0740825 0.0237814
0.325551 -0.0778736 -0.0249984
0.119722 -0.199785 -0.0641337
-0.132297 -0.244619 -0.0785257
-0.333275 -0.195076 -0.0626219
-0.405673 -0.0702718 -0.0225581
-0.321559 0.0816439 0.0262087
-0.113385 0.202061 0.0648641
0 0.599422 0
0 0.483791 0
0 0.18151 0
0 -0.190799 0
0 -0.489496 0
0 -0.599343 0
0 -0.477958 0
0 -0.172174 0
0 0.200037 0
0 0.495071 0
-0.0789334 0.368161 0.306884
-0.206347 0.297141 0.247685
-0.254151 0.111482 0.0929272
-0.203901 -0.117187 -0.0976825
-0.0749847 -0.300645 -0.250606
0.0828612 -0.368112 -0.306843
0.208739 -0.293558 -0.244698
0.254083 -0.105748 -0.0881471
0.2014 0.122861 0.102412
0.071016 0.304069 0.25346
-0.127414 -0.00513999 0.49537
-0.333084 -0.00414847 0.399811
-0.410248 -0.00155643 0.150002
-0.329135 0.00163608 -0.157678
-0.12104 0.00419738 -0.404526
0.133754 0.00513931 -0.495304
0.336944 0.00409844 -0.39499
0.410139 0.00147637 -0.142286
0.325099 -0.00171529 0.165313
0.114633 -0.00424519 0.409133
-0.126737 -0.376458 0.492738
-0.331315 -0.303838 0.397687
-0.408069 -0.113995 0.149206
-0.327387 0.119828 -0.156841
-0.120397 0.30742 -0.402377
0.133043 0.376408 -0.492673
0.335154 0.300174 -0.392892
0.40796 0.108131 -0.141531
0.323372 -0.12563 0.164434
0.114025 -0.310922 0.406959
-0.077164 -0.602535 0.300005
-0.201722 -0.486304 0.242133
-0.248453 -0.182453 0.0908441
-0.19933 0.19179 -0.0954928
-0.0733038 0.492038 -0.244988
0.0810037 0.602455 -0.299965
0.204059 0.48044 -0.239213
0.248387 0.173068 -0.0861712
0.196886 -0.201075 0.100116
0.0694241 -0.497642 0.247778
0.00217932 -0.59615 -0.00847293
0.00569716 -0.481151 -0.00683847
0.00701699 -0.18052 -0.00256568
0.00562962 0.189757 0.00269697
0.00207029 0.486824 0.00691911
-0.00228776 0.596071 0.00847181
-0.00576318 0.475349 0.00675602
-0.00701512 0.171234 0.0024337
-0.00556058 -0.198945 -0.00282755
-0.00196072 -0.492369 -0.00699791
0.0806819 -0.359766 -0.313682
0.210918 -0.290366 -0.253171
0.25978 -0.10894 -0.0949856
0.208417 0.114515 0.0998463
0.0766456 0.29379 0.256157
-0.0846966 0.359718 0.31364
-0.213362 0.286865 0.250119
-0.259711 0.103337 0.0900996
-0.205862 -0.12006 -0.10468
-0.072589 -0.297136 -0.259074
0.128057 0.0154188 -0.49787
0.334765 0.0124444 -0.401829
0.412318 0.00466893 -0.150759
0.330796 -0.00490786 0.158474
0.121651 -0.0125912 0.406567
-0.134429 -0.0154167 0.497804
-0.338645 -0.0122944 0.396984
-0.412209 -0.00442877 0.143004
-0.32674 0.00514548 -0.166147
-0.115212 0.0127346 -0.411197
0.126026 0.384654 -0.489976
0.329457 0.310453 -0.395458
0.405781 0.116477 -0.148369
0.325551 -0.122437 0.155962
0.119722 -0.314114 0.400121
-0.132297 -0.384603 0.489911
-0.333275 -0.30671 0.390689
-0.405673 -0.110485 0.140737
-0.321559 0.128365 -0.163513
-0.113385 0.317691 -0.404678
0.0753741 0.605488 -0.293046
0.197042 0.488687 -0.236516
0.24269 0.183347 -0.0887368
0.194706 -0.19273 0.0932778
0.0716034 -0.49445 0.239305
-0.0791247 -0.605408 0.293007
-0.199326 -0.482795 0.233664
-0.242626 -0.173916 0.0841723
-0.192319 0.202061 -0.0977939
-0.0678137 0.500081 -0.242031
