# vtk DataFile Version 3.0
Velocity field
ASCII
DATASET STRUCTURED_POINTS
DIMENSIONS 10 10 10
SPACING 0.631579 0.631579 0.631579
ORIGIN 0 0 0
POINT_DATA 1000
VECTORS velocity float
0 0.764461 0
0 0.616994 0
0 0.231486 0
0 -0.243331 0
0 -0.624269 0
0 -0.76436 0
0 -0.609554 0
0 -0.219578 0
0 0.255113 0
0 0.631379 0
0 0.469526 0.598821
0 0.378953 0.502256
0 0.142177 0.188438
0 -0.149452 -0.198081
0 -0.383422 -0.508179
0 -0.469464 -0.622218
0 -0.374384 -0.4962
0 -0.134863 -0.178745
0 0.156688 0.207671
0 0.387788 0.494574
0 -0.00655518 0.966612
0 -0.00529066 0.810738
0 -0.00198497 0.304175
0 0.00208654 -0.319741
0 0.00535305 -0.820299
0 0.00655431 -1.00438
0 0.00522687 -0.800963
0 0.00188286 -0.288529
0 -0.00218757 0.335221
0 -0.00541402 0.798338
0 -0.480108 0.961477
0 -0.387493 0.806432
0 -0.145381 0.302559
0 0.15282 -0.318042
0 0.392063 -0.815941
0 0.480044 -0.999044
0 0.382821 -0.796707
0 0.137903 -0.286996
0 -0.160219 0.333441
0 -0.396528 0.794097
0 -0.768431 0.585397
0 -0.620198 0.490998
0 -0.232688 0.184214
0 0.244595 -0.193641
0 0.627511 -0.496787
0 0.768329 -0.60827
0 0.61272 -0.485077
0 0.220719 -0.174738
0 -0.256437 0.203016
0 -0.634658 0.483488
0 -0.760288 -0.0165332
0 -0.613626 -0.0138671
0 -0.230222 -0.0052027
0 0.242003 0.00546892
0 0.620862 0.0140306
0 0.760187 0.0171792
0 0.606227 0.0136999
0 0.21838 0.00493507
0 -0.25372 -0.00573371
0 -0.627933 -0.013655
0 -0.45882 -0.612085
0 -0.370312 -0.513382
0 -0.138935 -0.192612
0 0.146045 0.202469
0 0.374679 0.519435
0 0.45876 0.636
0 0.365847 0.507191
0 0.131788 0.182704
0 -0.153116 -0.212271
0 -0.378946 -0.505529
0 0.019664 -0.97149
0 0.0158707 -0.81483
0 0.00595443 -0.30571
0 -0.00625914 0.321354
0 -0.0160579 0.824439
0 -0.0196614 1.00945
0 -0.0156794 0.805005
0 -0.00564814 0.289985
0 0.00656218 -0.336913
0 0.0162408 -0.802367
0 0.490561 -0.956087
0 0.39593 -0.80191
0 0.148546 -0.300863
0 -0.156148 0.316259
0 -0.400599 0.811366
0 -0.490496 0.993443
0 -0.391156 0.792241
0 -0.140905 0.285387
0 0.163708 -0.331571
0 0.405161 -0.789645
0 0.772197 -0.571818
0 0.623237 -0.461512
0 0.233828 -0.173152
0 -0.245794 0.182012
0 -0.630587 0.466954
0 -0.772094 0.571742
0 -0.615722 0.455947
0 -0.2218 0.164245
0 0.257694 -0.190825
0 0.637768 -0.472273
0 0.616994 0
0 0.523878 0
0 0.19655 0
0 -0.206608 0
0 -0.530056 0
0 -0.649004 0
0 -0.517561 0
0 -0.18644 0
0 0.216612 0
0 0.509584 0
0.0870677 0.378953 0.662726
0.24423 0.326597 0.572425
0.301104 0.122868 0.215393
0.241576 -0.129184 -0.22647
0.0888397 -0.331423 -0.581009
-0.0981717 -0.405795 -0.71139
-0.247307 -0.323611 -0.567313
-0.301025 -0.116595 -0.204404
-0.238395 0.13465 0.23595
-0.0783343 0.312982 0.547355
0.140544 -0.00529066 1.06977
0.394235 -0.00454249 0.924005
0.486039 -0.00170884 0.347685
0.389951 0.00179672 -0.365566
0.143404 0.00460949 -0.937858
-0.158468 0.00564383 -1.14832
-0.399201 0.0045008 -0.915753
-0.485911 0.00162163 -0.329947
-0.384815 -0.00187284 0.380869
-0.126447 -0.00436963 0.883536
0.139797 -0.387493 1.06408
0.392141 -0.333819 0.919096
0.483457 -0.125593 0.345838
0.387879 0.132051 -0.363624
0.142643 0.338778 -0.932876
-0.157626 0.4148 -1.14222
-0.397081 0.330792 -0.910888
-0.48333 0.119184 -0.328194
-0.382771 -0.137617 0.378846
-0.125775 -0.320036 0.878842
0.0851159 -0.620198 0.64787
0.238756 -0.534292 0.559593
0.294355 -0.201017 0.210564
0.236161 0.211353 -0.221393
0.086848 0.542226 -0.567983
-0.0959711 0.663906 -0.695443
-0.241764 0.529447 -0.554595
-0.294277 0.190759 -0.199822
-0.23305 -0.220262 0.230661
-0.0765784 -0.51223 0.535085
-0.0024039 -0.613626 -0.0182976
-0.00674309 -0.52863 -0.0158044
-0.00831328 -0.198887 -0.00594689
-0.00666976 0.209114 0.00625272
-0.00245283 0.536481 0.0160414
0.00271044 0.656871 0.0196411
0.00682802 0.523837 0.0156633
0.00831109 0.188737 0.00564348
0.00658197 -0.217928 -0.00651449
0.00216278 -0.506802 -0.0151122
-0.0889963 -0.370312 -0.677406
-0.24964 -0.31902 -0.585104
-0.307773 -0.120025 -0.220163
-0.246926 0.126197 0.231486
-0.0908074 0.323757 0.593879
0.100346 0.396411 0.727146
0.252785 0.316127 0.57988
0.307691 0.1139 0.208931
0.243675 -0.131516 -0.241177
0.0800695 -0.305846 -0.559479
-0.141253 0.0158707 -1.07517
-0.396208 0.0136383 -0.92863
-0.48847 0.00513016 -0.349425
-0.391901 -0.00539382 0.367395
-0.144122 -0.0138379 0.942552
0.15926 -0.0169432 1.15407
0.401198 -0.0135117 0.920335
0.488342 -0.00486816 0.331597
0.38674 0.00562353 -0.382778
0.127085 0.0131079 -0.887994
-0.139014 0.39593 -1.05812
-0.389348 0.339866 -0.912652
-0.479998 0.127839 -0.343382
-0.385103 -0.13441 0.361038
-0.141622 -0.344828 0.926243
0.156498 -0.422209 1.1341
0.39424 -0.3367 0.904411
0.479872 -0.12131 0.325858
0.380042 0.140144 -0.376226
0.12507 0.327004 -0.873915
-0.0831416 0.623237 -0.632842
-0.217348 0.503013 -0.510764
-0.2677 0.188722 -0.19163
-0.214771 -0.198379 0.201436
-0.0789823 -0.508944 0.516787
0.0872787 -0.623155 0.632758
0.219867 -0.496947 0.504606
0.267629 -0.179014 0.181773
0.212138 0.207984 -0.211189
0.074802 0.51474 -0.522673
0 0.231486 0
0 0.19655 0
0 0.0737423 0
0 -0.0775159 0
0 -0.198868 0
0 -0.243495 0
0 -0.19418 0
0 -0.0699491 0
0 0.081269 0
0 0.191187 0
0.140544 0.142177 0.470947
0.394235 0.122868 0.406944
0.486039 0.0462316 0.153135
0.389951 -0.0486089 -0.161012
0.143404 -0.124706 -0.413075
-0.158468 -0.152691 -0.505772
-0.399201 -0.121767 -0.403339
-0.485911 -0.0438725 -0.145325
-0.384815 0.050647 0.167727
-0.126447 0.117426 0.388962
0.226865 -0.00198497 0.760199
0.636373 -0.00170884 0.656885
0.784562 -0.000642967 0.247189
0.629455 0.000676036 -0.259905
0.231482 0.00173437 -0.666784
-0.255798 0.00212359 -0.816414
-0.644388 0.0016935 -0.651067
-0.784355 0.000610169 -0.234582
-0.621164 -0.000704418 0.270744
-0.204109 -0.00163941 0.627859
0.22566 -0.145381 0.75616
0.632992 -0.125593 0.653395
0.780394 -0.0472607 0.245876
0.626111 0.0496915 -0.258524
0.230253 0.127484 -0.663241
-0.254439 0.156092 -0.812077
-0.640965 0.124479 -0.647608
-0.780188 0.04485 -0.233336
-0.617864 -0.0517659 0.269305
-0.203025 -0.120072 0.624524
0.137394 -0.232688 0.46039
0.385398 -0.201017 0.397821
0.475145 -0.0756426 0.149702
0.381209 0.0795333 -0.157403
0.14019 0.204043 -0.403816
-0.154915 0.249831 -0.494434
-0.390253 0.199233 -0.394298
-0.475019 0.0717845 -0.142067
-0.376188 -0.0828536 0.163968
-0.123612 -0.19218 0.380242
-0.00388036 -0.230222 -0.0130026
-0.0108846 -0.198887 -0.0112355
-0.0134193 -0.074841 -0.00422799
-0.0107663 0.0786907 0.00444546
-0.00395934 0.20188 0.0114049
0.00437521 0.247184 0.0139642
0.0110217 0.197122 0.011136
0.0134157 0.0710237 0.00401235
0.0106246 -0.0819758 -0.00463089
0.00349114 -0.190143 -0.0107391
-0.143657 -0.138935 -0.481379
-0.402967 -0.120025 -0.415957
-0.496804 -0.0451653 -0.156527
-0.398587 0.0474886 0.164578
-0.146581 0.121832 0.422225
0.161977 0.149172 0.516976
0.408043 0.11896 0.412272
0.496673 0.0428618 0.148544
0.393338 -0.049471 -0.171442
0.129248 -0.114748 -0.397577
-0.22801 0.00595443 -0.764035
-0.639556 0.00513016 -0.660173
-0.788486 0.00193007 -0.248426
-0.632604 -0.0020293 0.261205
-0.23264 -0.00520615 0.67012
0.257077 -0.00637445 0.820498
0.647611 -0.00508344 0.654324
0.788278 -0.00183155 0.235756
0.624272 0.00211498 -0.2721
0.205139 0.00491785 -0.631027
-0.224395 0.148546 -0.751921
-0.628482 0.127839 -0.648793
-0.77481 0.0480941 -0.244122
-0.621631 -0.0505666 0.256677
-0.228605 -0.129728 0.658502
0.252618 -0.15884 0.806274
0.636379 -0.126671 0.642981
0.774606 -0.0456389 0.231667
0.613461 0.0527058 -0.267436
0.201887 0.122686 -0.621022
-0.134207 0.233828 -0.449711
-0.350842 0.188722 -0.36296
-0.432119 0.0708052 -0.136176
-0.346682 -0.0744285 0.143145
-0.127493 -0.190947 0.36724
0.140885 -0.233797 0.449651
0.354908 -0.186446 0.358583
0.432005 -0.0671631 0.129172
0.342431 0.0780321 -0.150075
0.120745 0.193122 -0.371422
0 -0.243331 0
0 -0.206608 0
0 -0.0775159 0
0 0.0814827 0
0 0.209045 0
0 0.255956 0
0 0.204117 0
0 0.0735286 0
0 -0.0854278 0
0 -0.200971 0
0.139797 -0.149452 0.0974729
0.392141 -0.129184 0.0842258
0.483457 -0.0486089 0.0316946
0.387879 0.0511088 -0.0333248
0.142643 0.13112 -0.0854951
-0.157626 0.160544 -0.104681
-0.397081 0.128029 -0.0834798
-0.48333 0.046129 -0.0300781
-0.382771 -0.0532496 0.0347147
-0.125775 -0.123435 0.0805042
0.22566 0.00208654 0.15734
0.632992 0.00179672 0.135956
0.780394 0.000676036 0.0511611
0.626111 -0.000710809 -0.0537928
0.230253 -0.00182356 -0.138005
-0.254439 -0.00223281 -0.168975
-0.640965 -0.00178061 -0.134752
-0.780188 -0.000641549 -0.0485519
-0.617864 0.000740623 0.0560362
-0.203025 0.00172331 0.129949
0.224461 0.15282 0.156504
0.629629 0.132051 0.135234
0.776248 0.0496915 0.0508893
0.622785 -0.0522476 -0.0535071
0.229029 -0.134041 -0.137272
-0.253087 -0.164121 -0.168077
-0.63756 -0.130882 -0.134036
-0.776043 -0.0471572 -0.0482939
-0.614582 0.0544267 0.0557386
-0.201947 0.126217 0.129259
0.136664 0.244595 0.0952879
0.383351 0.211353 0.0823376
0.472621 0.0795334 0.0309841
0.379184 -0.0836246 -0.0325779
0.139445 -0.214539 -0.0835784
-0.154092 -0.262683 -0.102334
-0.38818 -0.209482 -0.0816084
-0.472496 -0.0754772 -0.0294038
-0.374189 0.087112 0.0339365
-0.122956 0.202014 0.0786996
-0.00385975 0.242003 -0.00269118
-0.0108268 0.209114 -0.00232544
-0.0133479 0.0786907 -0.000875073
-0.0107091 -0.0827384 0.000920084
-0.00393831 -0.212265 0.00236048
0.00435197 -0.259899 0.00289019
0.0109632 -0.207262 0.00230485
0.0133444 -0.0746773 0.00083044
0.0105681 0.0861889 -0.000958459
0.00347259 0.199874 -0.00222269
-0.142894 0.146045 -0.099632
-0.400827 0.126197 -0.0860911
-0.494164 0.0474886 -0.0323966
-0.39647 -0.0499313 0.0340629
-0.145802 -0.128099 0.0873884
0.161117 -0.156845 0.106999
0.405876 -0.125079 0.0853289
0.494034 -0.0450665 0.0307443
0.391248 0.0520136 -0.0354836
0.128561 0.12062 -0.0822874
-0.226799 -0.00625914 -0.158134
-0.636158 -0.00539382 -0.136637
-0.784298 -0.0020293 -0.051417
-0.629243 0.00213362 0.054062
-0.231404 0.00547382 0.138695
0.255711 0.00670219 0.16982
0.644171 0.00534481 0.135426
0.78409 0.00192571 0.0487948
0.620956 -0.00222366 -0.0563169
0.20405 -0.00516951 -0.130605
-0.223203 -0.156148 -0.155627
-0.625143 -0.134409 -0.134282
-0.770694 -0.0505666 -0.0505262
-0.618328 0.0531663 0.0531246
-0.22739 0.136398 0.136291
0.251276 0.167007 0.166876
0.632999 0.133183 0.133079
0.770491 0.0479854 0.0479485
0.610202 -0.0554136 -0.0553518
0.200814 -0.128965 -0.128534
-0.133494 -0.245794 -0.0930776
-0.348978 -0.198379 -0.0751226
-0.429824 -0.0744285 -0.0281847
-0.344841 0.0782373 0.029627
-0.126815 0.200719 0.0760084
0.140136 0.245761 0.0930652
0.353022 0.195987 0.0742167
0.42971 0.0706 0.0267349
0.340612 -0.0820252 -0.0310614
0.120103 -0.203005 -0.076874
0 -0.624269 0
0 -0.530056 0
0 -0.198868 0
0 0.209045 0
0 0.536306 0
0 0.656657 0
0 0.523665 0
0 0.188638 0
0 -0.219166 0
0 -0.515593 0
0.0851159 -0.383422 -0.313607
0.238756 -0.331423 -0.270984
0.294355 -0.124706 -0.101973
0.236161 0.13112 0.107218
0.086848 0.336387 0.275068
-0.0959711 0.411874 0.336796
-0.241764 0.328458 0.268584
-0.294277 0.118344 0.0967723
-0.23305 -0.136612 -0.11169
-0.0765784 -0.316673 -0.259012
0.137394 0.00535305 -0.506222
0.385398 0.00460949 -0.437422
0.475145 0.00173437 -0.164604
0.381209 -0.00182356 0.173071
0.14019 -0.00467841 0.444014
-0.154915 -0.0057283 0.543651
-0.390253 -0.00456813 0.433548
-0.475019 -0.00164589 0.156209
-0.376188 0.00190006 -0.180289
-0.123612 0.00442116 -0.418096
0.136664 0.392063 -0.503533
0.383351 0.338778 -0.435098
0.472621 0.127484 -0.16373
0.379184 -0.134041 0.172152
0.139445 -0.343882 0.441655
-0.154092 -0.421052 0.540763
-0.38818 -0.335777 0.431245
-0.472496 -0.120982 0.155379
-0.374189 0.139631 -0.179332
-0.122956 0.32381 -0.415875
0.0832079 0.627511 -0.306577
0.233404 0.542226 -0.264911
0.287756 0.204043 -0.099687
0.230867 -0.214539 0.104815
0.0849016 -0.550397 0.268901
-0.0938195 -0.673912 0.329246
-0.236345 -0.537423 0.262564
-0.28768 -0.193636 0.0946029
-0.227826 0.223486 -0.109187
-0.0748618 0.51827 -0.253206
-0.00235001 0.620862 0.00865855
-0.00659194 0.536481 0.00748174
-0.00812695 0.20188 0.00281543
-0.00652028 -0.212265 -0.00296025
-0.00239782 -0.544564 -0.00759451
0.00264973 -0.666769 -0.0092988
0.00667494 -0.531729 -0.00741549
0.00812481 -0.191585 -0.00267184
0.00643442 0.221118 0.0030837
0.0021143 0.512778 0.00715122
-0.0870013 0.374679 0.320553
-0.244044 0.323757 0.276987
-0.300874 0.121832 0.104232
-0.241391 -0.128099 -0.109593
-0.0887718 -0.328636 -0.28116
0.0980967 -0.402384 -0.344255
0.247118 -0.32089 -0.274533
0.300795 -0.115618 -0.0989157
0.238212 0.133441 0.114164
0.0782746 0.309453 0.26475
-0.138087 -0.0160579 0.508776
-0.387326 -0.0138379 0.439612
-0.477521 -0.00520615 0.165428
-0.383117 0.00547382 -0.173936
-0.140891 0.014043 -0.446235
0.15569 0.0171944 -0.546371
0.392205 0.0137122 -0.435717
0.477395 0.00494042 -0.15699
0.378071 -0.0057048 0.181193
0.124236 -0.0132624 0.420206
-0.135897 -0.400599 0.50071
-0.380619 -0.344828 0.432034
-0.469238 -0.129728 0.162561
-0.37647 0.136398 -0.170922
-0.138447 0.349928 -0.438499
0.15299 0.428455 -0.5369
0.385403 0.341682 -0.428163
0.469115 0.123106 -0.154268
0.371523 -0.142163 0.178086
0.122266 -0.33086 0.413543
-0.0812778 -0.630587 0.299465
-0.212476 -0.508944 0.241697
-0.261699 -0.190947 0.0906808
-0.209957 0.200719 -0.0953212
-0.0772118 0.514946 -0.244548
0.0853222 0.630503 -0.299426
0.214938 0.502807 -0.238783
0.26163 0.181125 -0.0860163
0.207382 -0.210437 0.0999363
0.0731252 -0.52081 0.247333
0 -0.76436 0
0 -0.649004 0
0 -0.243495 0
0 0.255956 0
0 0.656657 0
0 0.804015 0
0 0.641178 0
0 0.23097 0
0 -0.268348 0
0 -0.631295 0
-0.0024039 -0.469464 -0.603695
-0.00674309 -0.405795 -0.521648
-0.00831328 -0.152691 -0.196299
-0.00666976 0.160544 0.206396
-0.00245283 0.411874 0.529508
0.00271044 0.504301 0.648333
0.00682802 0.402166 0.517029
0.00831109 0.1449 0.186287
0.00658197 -0.167269 -0.215004
0.00216278 -0.387737 -0.4986
-0.00388036 0.00655431 -0.974479
-0.0108846 0.00564383 -0.842039
-0.0134193 0.00212359 -0.316864
-0.0107663 -0.00223281 0.333163
-0.00395934 -0.0057283 0.854728
0.00437521 -0.00701374 1.04654
0.0110217 -0.00559325 0.834582
0.0134157 -0.00201525 0.300703
0.0106246 0.00232647 -0.347057
0.00349114 0.0054133 -0.804836
-0.00385975 0.480044 -0.969303
-0.0108268 0.4148 -0.837565
-0.0133479 0.156092 -0.315181
-0.0107091 -0.164121 0.331393
-0.00393831 -0.421052 0.850187
0.00435197 -0.515539 1.04098
0.0109632 -0.411127 0.830147
0.0133444 -0.148131 0.299106
0.0105681 0.170966 -0.345214
0.00347259 0.396475 -0.800561
-0.00235001 0.768329 -0.590162
-0.00659194 0.663906 -0.509953
-0.00812695 0.249831 -0.191898
-0.00652028 -0.262683 0.201769
-0.00239782 -0.673912 0.517639
0.00264973 -0.82514 0.6338
0.00667494 -0.658027 0.505437
0.00812481 -0.23709 0.182111
0.00643442 0.273637 -0.210184
0.0021143 0.634573 -0.487423
6.63707e-05 0.760187 0.0166677
0.000186172 0.656871 0.0144025
0.000229531 0.247184 0.00541967
0.000184151 -0.259899 -0.00569852
6.77221e-05 -0.666769 -0.0146194
-7.48329e-05 -0.816397 -0.0179001
-0.000188524 -0.651053 -0.014275
-0.000229471 -0.234577 -0.00514331
-0.000181724 0.270738 0.00593616
-5.97133e-05 0.627849 0.0137661
0.00245715 0.45876 0.617067
0.00689243 0.396411 0.533201
0.00849745 0.149172 0.200646
0.00681752 -0.156845 -0.210967
0.00250715 -0.402384 -0.541234
-0.0027705 -0.492682 -0.662693
-0.00697929 -0.392901 -0.528479
-0.00849521 -0.141563 -0.190413
-0.00672774 0.163386 0.219767
-0.00221068 0.378896 0.509644
0.00389994 -0.0196614 0.979397
0.0109391 -0.0169432 0.846254
0.0134864 -0.00637445 0.318448
0.0108201 0.00670219 -0.334829
0.00397914 0.0171944 -0.859004
-0.00439709 0.0210531 -1.05177
-0.0110769 0.0167891 -0.838757
-0.0134829 0.00604908 -0.302207
-0.0106777 -0.00698497 0.348796
-0.00350876 -0.0162386 0.808898
0.00383811 -0.490496 0.963869
0.0107497 -0.422209 0.831665
0.0132525 -0.15884 0.312931
0.0106326 0.167007 -0.329025
0.00391014 0.428455 -0.844112
-0.00432082 0.524604 -1.03354
-0.0108847 0.418357 -0.824216
-0.013249 0.150732 -0.296966
-0.0104928 -0.174066 0.342817
-0.00345313 -0.405107 0.796073
0.0022955 -0.772094 0.576472
0.00600089 -0.623155 0.465269
0.00739108 -0.233797 0.174561
0.00592975 0.245761 -0.183494
0.00218067 0.630503 -0.470755
-0.00240973 0.771992 -0.576396
-0.00607043 0.615641 -0.459659
-0.00738912 0.221771 -0.165582
-0.00585703 -0.25766 0.192378
-0.00206525 -0.637684 0.476117
0 -0.609554 0
0 -0.517561 0
0 -0.19418 0
0 0.204117 0
0 0.523665 0
0 0.641178 0
0 0.511321 0
0 0.184192 0
0 -0.214 0
0 -0.503439 0
-0.0889963 -0.374384 -0.660873
-0.24964 -0.323611 -0.571054
-0.307773 -0.121767 -0.214891
-0.246926 0.128029 0.225944
-0.0908074 0.328458 0.579661
0.100346 0.402166 0.709739
0.252785 0.320717 0.565996
0.307691 0.115554 0.203931
0.243674 -0.133392 -0.235368
0.0800695 -0.309209 -0.545824
-0.143657 0.00522687 -1.06678
-0.402967 0.0045008 -0.921791
-0.496804 0.0016935 -0.346874
-0.398587 -0.00178061 0.364718
-0.146581 -0.00456813 0.935683
0.161978 -0.00559325 1.14566
0.408043 -0.00446045 0.913628
0.496673 -0.00160712 0.329184
0.393338 0.00185528 -0.379929
0.129248 0.00431694 -0.881065
-0.142894 0.382821 -1.06111
-0.400827 0.330792 -0.916894
-0.494164 0.124479 -0.345032
-0.39647 -0.130882 0.36278
-0.145802 -0.335777 0.930712
0.161117 -0.411127 1.13957
0.405876 -0.327862 0.908774
0.494034 -0.11813 0.327435
0.391248 0.13634 -0.37791
0.128561 0.316177 -0.876385
-0.0870013 0.61272 -0.646058
-0.244044 0.529447 -0.558252
-0.300874 0.199233 -0.210074
-0.241391 -0.209482 0.220879
-0.0887718 -0.537423 0.566665
0.0980967 -0.658027 0.693829
0.247118 -0.524758 0.553308
0.300795 -0.189072 0.199359
0.238212 0.218219 -0.230091
0.0782746 0.506054 -0.533589
0.00245715 0.606227 0.0182464
0.00689244 0.523837 0.0157666
0.00849745 0.197122 0.00593302
0.00681752 -0.207262 -0.00623823
0.00250715 -0.531729 -0.0160042
-0.0027705 -0.651053 -0.0195956
-0.00697929 -0.519198 -0.015627
-0.00849521 -0.187068 -0.00563045
-0.00672774 0.215906 0.0064984
-0.00221068 0.500691 0.01507
0.0909676 0.365847 0.675511
0.255169 0.316127 0.583704
0.31459 0.11896 0.21965
0.252396 -0.125079 -0.230949
0.0928187 -0.32089 -0.5925
-0.102568 -0.392901 -0.725459
-0.258384 -0.313327 -0.578535
-0.314507 -0.112893 -0.208448
-0.249072 0.130296 0.240582
-0.0818431 0.302158 0.557914
0.144382 -0.0156794 1.07216
0.404983 -0.0135117 0.926406
0.499289 -0.00508344 0.34861
0.40058 0.00534481 -0.366543
0.147314 0.0137122 -0.940364
-0.162788 0.0167891 -1.15139
-0.410084 0.0133889 -0.918199
-0.499158 0.00482397 -0.33083
-0.395306 -0.0055703 0.381832
-0.1299 -0.0129498 0.885511
0.142093 -0.391156 1.05516
0.397971 -0.3367 0.910436
0.49063 -0.126671 0.34257
0.393633 0.133183 -0.360188
0.144759 0.341682 -0.924061
-0.159964 0.418357 -1.13142
-0.402971 0.333628 -0.902281
-0.4905 0.120205 -0.325092
-0.38846 -0.138812 0.375286
-0.12784 -0.323061 0.871471
0.0849832 -0.615722 0.631072
0.222163 -0.496947 0.509336
0.27363 -0.186446 0.191094
0.219529 0.195987 -0.200873
0.0807318 0.502807 -0.515342
-0.089212 0.615641 -0.630988
-0.224737 0.490955 -0.503195
-0.273557 0.176856 -0.181265
-0.216837 -0.205476 0.210599
-0.076459 -0.508534 0.521211
0 -0.219578 0
0 -0.18644 0
0 -0.0699491 0
0 0.0735286 0
0 0.188638 0
0 0.23097 0
0 0.184192 0
0 0.066351 0
0 -0.0770886 0
0 -0.181353 0
-0.141253 -0.134863 -0.463081
-0.396208 -0.116595 -0.400163
-0.48847 -0.0438726 -0.150584
-0.391901 0.0461291 0.15833
-0.144122 0.118344 0.406195
0.15926 0.144901 0.497348
0.401198 0.115554 0.396621
0.488342 0.0416343 0.142904
0.38674 -0.0480597 -0.164932
0.127085 -0.111385 -0.382465
-0.22801 0.00188286 -0.747502
-0.639556 0.00162164 -0.645939
-0.788486 0.000610171 -0.243072
-0.632604 -0.00064155 0.255575
-0.23264 -0.00164589 0.655676
0.257077 -0.00201525 0.802815
0.647611 -0.00160712 0.640222
0.788278 -0.000579055 0.230675
0.624272 0.000668445 -0.266232
0.205139 0.00155508 -0.617372
-0.226799 0.137903 -0.743531
-0.636158 0.119184 -0.642508
-0.784298 0.0448502 -0.24178
-0.629243 -0.0471573 0.254218
-0.231404 -0.120982 0.652193
0.255711 -0.148131 0.79855
0.644171 -0.11813 0.636822
0.78409 -0.0425629 0.229449
0.620956 0.0491225 -0.264817
0.20405 0.113896 -0.614093
-0.138087 0.220719 -0.4527
-0.387326 0.190759 -0.391193
-0.477521 0.0717847 -0.147209
-0.383117 -0.0754774 0.154781
-0.140891 -0.193637 0.39709
0.15569 -0.23709 0.486199
0.392205 -0.189073 0.387731
0.477395 -0.0681236 0.1397
0.378071 0.0786226 -0.161235
0.124236 0.182294 -0.373891
0.00389994 0.21838 0.0127855
0.0109391 0.188737 0.0110483
0.0134864 0.0710239 0.00415754
0.0108201 -0.0746775 -0.0043714
0.00397914 -0.191585 -0.0112148
-0.00439709 -0.234578 -0.0137315
-0.0110769 -0.187069 -0.0109505
-0.0134829 -0.0674017 -0.00394553
-0.0106777 0.0777894 0.00455371
-0.00350876 0.180363 0.0105597
0.144382 0.131788 0.473338
0.404983 0.1139 0.409027
0.499289 0.0428619 0.153919
0.40058 -0.0450666 -0.161837
0.147314 -0.115618 -0.415192
-0.162788 -0.141564 -0.508364
-0.410085 -0.112893 -0.405406
-0.499158 -0.0406759 -0.146069
-0.395306 0.0469445 0.168585
-0.1299 0.108846 0.390937
0.229161 -0.00564814 0.751274
0.642755 -0.00486817 0.649173
0.79243 -0.00183155 0.244288
0.635768 0.00192572 -0.256854
0.233804 0.00494043 -0.658957
-0.258363 0.0060491 -0.806831
-0.650851 0.00482398 -0.643425
-0.792221 0.00173806 -0.231828
-0.627396 -0.00200691 0.267565
-0.206175 -0.00466488 0.620488
0.225527 -0.140905 0.739362
0.631627 -0.12131 0.637982
0.778688 -0.045639 0.240055
0.624741 0.0479855 -0.2524
0.229749 0.123107 -0.647532
-0.253882 0.150733 -0.792844
-0.639562 0.120205 -0.632271
-0.778482 0.0433094 -0.227807
-0.616531 -0.0500122 0.262979
-0.202906 -0.116376 0.61065
0.134884 -0.2218 0.442199
0.352612 -0.179014 0.356897
0.4343 -0.0671631 0.133902
0.348432 0.0706 -0.140754
0.128136 0.181125 -0.361106
-0.141596 0.221771 -0.442141
-0.356699 0.176856 -0.352594
-0.434185 0.0637083 -0.127014
-0.344159 -0.0740182 0.147569
-0.121354 -0.183188 0.365219
0 0.255113 0
0 0.216612 0
0 0.081269 0
0 -0.0854278 0
0 -0.219166 0
0 -0.268348 0
0 -0.214 0
0 -0.0770886 0
0 0.0895638 0
0 0.210701 0
-0.139014 0.156688 -0.0866295
-0.389348 0.134644 -0.0755358
-0.479998 0.0506444 -0.0284408
-0.385103 -0.0532469 0.0299056
-0.141622 -0.136605 0.0767224
0.156498 -0.16726 0.0939396
0.39424 -0.133385 0.0749142
0.479872 -0.0480572 0.0269932
0.380042 0.0555225 -0.0311134
0.12507 0.129411 -0.0715485
-0.224395 -0.00218757 -0.139837
-0.628482 -0.00187273 -0.121929
-0.77481 -0.000704377 -0.0459089
-0.621631 0.000740577 0.0482734
-0.228605 0.00189994 0.123845
0.252618 0.00232631 0.151636
0.636379 0.00185517 0.120926
0.774606 0.000668401 0.0435722
0.613461 -0.000772295 -0.0502231
0.201887 -0.00180674 -0.115493
-0.223203 -0.160219 -0.139094
-0.625143 -0.137609 -0.121281
-0.770694 -0.0517631 -0.045665
-0.618328 0.0544238 0.048017
-0.22739 0.139624 0.123187
0.251276 0.170956 0.150831
0.632999 0.136333 0.120284
0.770491 0.0491197 0.0433408
0.610202 -0.0567419 -0.0499563
0.200814 -0.132327 -0.11488
-0.135897 -0.256437 -0.0846876
-0.380619 -0.22025 -0.0738425
-0.469238 -0.0828491 -0.0278032
-0.37647 0.0871072 0.0292352
-0.138447 0.223474 0.0750027
0.15299 0.273622 0.0918339
0.385403 0.218207 0.0732351
0.469115 0.0786182 0.0263881
0.371523 -0.0908175 -0.0304159
0.122266 -0.211795 -0.0699446
0.00383811 -0.25372 0.0023918
0.0107497 -0.217916 0.0020855
0.0132525 -0.0819713 0.000785238
0.0106326 0.0861842 -0.000825677
0.00391014 0.221106 -0.00211827
-0.00432081 0.270723 -0.00259363
-0.0108847 0.215895 -0.00206833
-0.013249 0.077785 -0.00074527
-0.0104928 -0.0898549 0.000859031
-0.00345313 -0.209551 0.00197542
0.142093 -0.153116 0.0885484
0.397971 -0.131509 0.0772087
0.49063 -0.0494684 0.0290707
0.393633 0.0520107 -0.0305679
0.144759 0.133433 -0.0784218
-0.159964 0.163377 -0.0960204
-0.402971 0.130289 -0.0765734
-0.4905 0.0469418 -0.0275911
-0.38846 -0.054226 0.0318026
-0.12784 -0.12646 0.0731333
0.225527 0.00656218 0.140542
0.631627 0.00562325 0.122538
0.778688 0.00211487 0.0461382
0.624741 -0.00222354 -0.0485144
0.229749 -0.0057045 -0.124463
-0.253882 -0.00698461 -0.152393
-0.639563 -0.00557001 -0.121529
-0.778482 -0.0020068 -0.0437897
-0.616531 0.00231915 0.0504743
-0.202906 0.0054198 0.116076
0.221951 0.163708 0.138314
0.620719 0.140137 0.120394
0.765217 0.0527031 0.0453255
0.613935 -0.0554107 -0.0476593
0.225774 -0.142156 -0.12227
-0.24949 -0.174057 -0.149708
-0.6285 -0.138805 -0.119388
-0.765015 -0.0500095 -0.0430176
-0.605882 0.0577973 0.0495966
-0.199689 0.135209 0.114235
0.132745 0.257694 0.0827231
0.347021 0.207984 0.0667655
0.427414 0.0780321 0.0250493
0.342907 -0.0820252 -0.0263311
0.126104 -0.210437 -0.0675528
-0.139351 -0.25766 -0.0827121
-0.351043 -0.205476 -0.0659605
-0.427301 -0.0740182 -0.0237608
-0.338702 0.0859966 0.027606
-0.11943 0.212833 0.0683222
0 0.631379 0
0 0.509584 0
0 0.191187 0
0 -0.200971 0
0 -0.515593 0
0 -0.631295 0
0 -0.503439 0
0 -0.181353 0
0 0.210701 0
0 0.521465 0
-0.0831416 0.387788 0.323245
-0.217348 0.312983 0.26089
-0.2677 0.117426 0.0978814
-0.214771 -0.123435 -0.10289
-0.0789823 -0.316673 -0.263966
0.0872787 -0.387737 -0.323202
0.219867 -0.309209 -0.257744
0.267629 -0.111385 -0.0928465
0.212138 0.129411 0.107872
0.074802 0.32028 0.266972
-0.134207 -0.00541402 0.521779
-0.350842 -0.00436963 0.421126
-0.432119 -0.00163941 0.157999
-0.346682 0.00172331 -0.166085
-0.127493 0.00442116 -0.426092
0.140885 0.0054133 -0.52171
0.354908 0.00431694 -0.416048
0.432005 0.00155508 -0.149872
0.342431 -0.00180674 0.174126
0.120745 -0.00447151 0.430945
-0.133494 -0.396528 0.519008
-0.348978 -0.320036 0.418889
-0.429824 -0.120072 0.15716
-0.344841 0.126217 -0.165202
-0.126815 0.32381 -0.423829
0.140136 0.396475 -0.518939
0.353022 0.316177 -0.413838
0.42971 0.113896 -0.149076
0.340612 -0.132327 0.173201
0.120103 -0.327498 0.428656
-0.0812778 -0.634658 0.315999
-0.212476 -0.51223 0.255041
-0.261699 -0.19218 0.0956872
-0.209957 0.202014 -0.100584
-0.0772118 0.51827 -0.258049
0.0853222 0.634574 -0.315957
0.214938 0.506054 -0.251966
0.26163 0.182295 -0.0907652
0.207382 -0.211795 0.105454
0.0731252 -0.524173 0.260988
0.0022955 -0.627933 -0.00892465
0.00600089 -0.506802 -0.00720305
0.00739108 -0.190144 -0.00270246
0.00592975 0.199874 0.00284076
0.00218067 0.512778 0.00728799
-0.00240973 0.627849 0.00892346
-0.00607043 0.500691 0.0071162
-0.00738912 0.180363 0.00256345
-0.00585703 -0.209551 -0.00297829
-0.00206525 -0.518618 -0.00737099
0.0849832 -0.378946 -0.330405
0.222163 -0.305846 -0.266669
0.27363 -0.114748 -0.10005
0.219529 0.12062 0.105169
0.0807318 0.309453 0.269813
-0.089212 0.378896 0.330361
-0.224737 0.302158 0.263453
-0.273557 0.108846 0.0949031
-0.216837 -0.12646 -0.110261
-0.076459 -0.312977 -0.272886
0.134884 0.0162408 -0.524412
0.352612 0.0131079 -0.423251
0.4343 0.00491785 -0.158797
0.348432 -0.00516951 0.166923
0.128136 -0.0132624 0.428242
-0.141596 -0.0162386 0.524343
-0.356699 -0.0129498 0.418148
-0.434185 -0.00466488 0.150628
-0.344159 0.0054198 -0.175005
-0.121354 0.0134135 -0.43312
0.132745 0.405161 -0.516098
0.347021 0.327004 -0.416541
0.427414 0.122686 -0.156279
0.342907 -0.128965 0.164276
0.126104 -0.33086 0.421452
-0.139351 -0.405108 0.516029
-0.351043 -0.323061 0.411518
-0.427301 -0.116376 0.14824
-0.338702 0.135209 -0.17223
-0.11943 0.334628 -0.426252
0.0793925 0.637768 -0.308669
0.207547 0.51474 -0.249125
0.255629 0.193122 -0.0934676
0.205087 -0.203005 0.0982507
0.0754208 -0.52081 0.252063
-0.0833431 -0.637684 0.308628
-0.209953 -0.508534 0.246122
-0.255561 -0.183188 0.0886598
-0.202572 0.212833 -0.103008
-0.071429 0.526742 -0.254934
