# vtk DataFile Version 3.0
Velocity field
ASCII
DATASET STRUCTURED_POINTS
DIMENSIONS 5 5 5
SPACING 1.33333 1.33333 1.33333
ORIGIN 0 0 0
POINT_DATA 125
VECTORS velocity float
0 0.517464 0
0 0.121727 0
0 -0.460194 0
0 -0.338237 0
0 0.301062 0
0 -0.27401 0.89868
0 -0.0644575 0.243637
0 0.243684 -0.92108
0 0.179105 -0.676982
0 -0.15942 0.522855
0 -0.646379 0.422807
0 -0.152053 0.114625
0 0.574842 -0.433345
0 0.422501 -0.318503
0 -0.376066 0.24599
0 -0.0300953 -0.69976
0 -0.00707954 -0.189709
0 0.0267645 0.717202
0 0.0196716 0.527134
0 -0.0175095 -0.407123
0 0.63222 -0.752026
0 0.148722 -0.176905
0 -0.56225 0.668797
0 -0.413247 0.491557
0 0.367828 -0.437532
0 0.121727 0
0 0.0364362 0
0 -0.137749 0
0 -0.101244 0
0 0.0708211 0
0.384632 -0.0644575 0.315601
0.600451 -0.0159842 0.078941
-0.125875 0.0605209 -0.298966
-0.659761 0.0444958 -0.219813
-0.173799 -0.0375016 0.183618
0.18096 -0.152053 0.148482
0.282499 -0.0378578 0.0371401
-0.0592216 0.143355 -0.140656
-0.310401 0.105398 -0.103417
-0.0817681 -0.0884647 0.0863875
-0.299495 -0.00707954 -0.245743
-0.467345 -0.00177614 -0.0614419
0.0979714 0.00672784 0.232688
0.513507 0.00494683 0.171083
0.135329 -0.0041189 -0.142974
-0.321865 0.148722 -0.264098
-0.473294 0.034985 -0.0621259
0.0991916 -0.132262 0.23487
0.519961 -0.0972111 0.172626
0.145437 0.0865269 -0.153653
0 -0.460194 0
0 -0.137749 0
0 0.520766 0
0 0.382756 0
0 -0.267743 0
0.18096 0.243684 -0.750198
0.282499 0.0605209 -0.187084
-0.0592216 -0.229165 0.708478
-0.310401 -0.168487 0.520901
-0.0817681 0.141776 -0.436468
0.085137 0.574842 -0.352949
0.132908 0.143355 -0.0880191
-0.0278623 -0.542874 0.333323
-0.146037 -0.399143 0.245071
-0.0384699 0.334445 -0.205347
-0.140905 0.0267645 0.584144
-0.219875 0.00672784 0.145615
0.0460933 -0.0254867 -0.551426
0.241593 -0.0187401 -0.405428
0.063669 0.0155717 0.339857
-0.151429 -0.56225 0.627774
-0.222673 -0.132262 0.147676
0.0466672 0.500024 -0.558297
0.244629 0.367511 -0.410341
0.0684246 -0.327119 0.365241
0 -0.338237 0
0 -0.101244 0
0 0.382756 0
0 0.281321 0
0 -0.196787 0
-0.299495 0.179105 -0.66855
-0.467345 0.0444961 -0.166766
0.0979714 -0.168488 0.631537
0.513507 -0.123877 0.464333
0.135329 0.104204 -0.388965
-0.140905 0.422501 -0.314536
-0.219875 0.105399 -0.0784596
0.0460933 -0.399145 0.297125
0.241593 -0.293468 0.218458
0.063669 0.245813 -0.182998
0.233203 0.0196716 0.520569
0.363749 0.00494687 0.1298
-0.0762534 -0.0187403 -0.49154
-0.399675 -0.0137796 -0.3614
-0.105374 0.011445 0.302869
0.250621 -0.413247 0.559451
0.368532 -0.0972111 0.131604
-0.0772359 0.367511 -0.497534
-0.404869 0.270116 -0.365681
-0.113245 -0.240428 0.325491
0 0.301062 0
0 0.0708212 0
0 -0.267743 0
0 -0.196787 0
0 0.175159 0
-0.321865 -0.15942 0.435661
-0.473294 -0.0375016 0.102484
0.0991916 0.141776 -0.387445
0.519961 0.104204 -0.284767
0.145437 -0.0927511 0.253469
-0.151429 -0.376066 0.204968
-0.222673 -0.0884647 0.0482161
0.0466672 0.334445 -0.182283
0.244629 0.245813 -0.133976
0.0684246 -0.218796 0.119251
0.250621 -0.0175095 -0.339229
0.368532 -0.0041189 -0.0797994
-0.0772359 0.0155717 0.301686
-0.404869 0.011445 0.221735
-0.113245 -0.0101871 -0.197365
0.26934 0.367828 -0.364567
0.396058 0.0865269 -0.0857598
-0.0830048 -0.327119 0.324219
-0.43511 -0.240428 0.238297
-0.121704 0.214004 -0.212106
