# vtk DataFile Version 3.0
Velocity field
ASCII
DATASET STRUCTURED_POINTS
DIMENSIONS 10 10 10
SPACING 0.631579 0.631579 0.631579
ORIGIN 0 0 0
POINT_DATA 1000
VECTORS velocity float
0 0.721918 0
0 0.582657 0
0 0.218603 0
0 -0.22979 0
0 -0.589528 0
0 -0.721822 0
0 -0.575632 0
0 -0.207358 0
0 0.240915 0
0 0.596242 0
0 0.443397 0.565495
0 0.357864 0.474305
0 0.134264 0.177951
0 -0.141135 -0.187058
0 -0.362084 -0.479898
0 -0.443338 -0.58759
0 -0.353549 -0.468586
0 -0.127358 -0.168798
0 0.147968 0.196114
0 0.366207 0.46705
0 -0.00619038 0.912818
0 -0.00499623 0.76562
0 -0.0018745 0.287248
0 0.00197043 -0.301947
0 0.00505515 -0.774648
0 0.00618955 -0.948484
0 0.00493599 -0.756388
0 0.00177808 -0.272472
0 -0.00206583 0.316566
0 -0.00511272 0.753909
0 -0.453389 0.907969
0 -0.365929 0.761553
0 -0.13729 0.285722
0 0.144316 -0.300343
0 0.370244 -0.770532
0 0.453329 -0.943446
0 0.361516 -0.752369
0 0.130228 -0.271024
0 -0.151303 0.314884
0 -0.37446 0.749904
0 -0.725667 0.552819
0 -0.585683 0.463673
0 -0.219738 0.173962
0 0.230983 -0.182864
0 0.592589 -0.46914
0 0.72557 -0.574419
0 0.578621 -0.458082
0 0.208435 -0.165014
0 -0.242166 0.191718
0 -0.599338 0.456581
0 -0.717977 -0.0156131
0 -0.579477 -0.0130954
0 -0.21741 -0.00491316
0 0.228535 0.00516457
0 0.58631 0.0132498
0 0.717882 0.0162231
0 0.572489 0.0129375
0 0.206226 0.00466042
0 -0.2396 -0.00541462
0 -0.592987 -0.0128951
0 -0.433286 -0.578021
0 -0.349704 -0.484811
0 -0.131203 -0.181893
0 0.137917 0.191201
0 0.353828 0.490528
0 0.433229 0.600606
0 0.345487 0.478965
0 0.124454 0.172537
0 -0.144594 -0.200458
0 -0.357857 -0.477396
0 0.0185697 -0.917425
0 0.0149875 -0.769483
0 0.00562306 -0.288697
0 -0.00591081 0.303471
0 -0.0151642 0.778557
0 -0.0185672 0.953271
0 -0.0148068 0.760205
0 -0.00533382 0.273847
0 0.00619699 -0.318164
0 0.0153369 -0.757714
0 0.463261 -0.902879
0 0.373896 -0.757283
0 0.14028 -0.28412
0 -0.147458 0.298659
0 -0.378305 0.766213
0 -0.463199 0.938156
0 -0.369388 0.748152
0 -0.133064 0.269505
0 0.154597 -0.313119
0 0.382614 -0.7457
0 0.729223 -0.539996
0 0.588553 -0.435828
0 0.220815 -0.163515
0 -0.232115 0.171883
0 -0.595493 0.440968
0 -0.729126 0.539924
0 -0.581457 0.430573
0 -0.209457 0.155104
0 0.243353 -0.180205
0 0.602276 -0.44599
0 0.582657 0
0 0.494724 0
0 0.185612 0
0 -0.19511 0
0 -0.500557 0
0 -0.612886 0
0 -0.488758 0
0 -0.176064 0
0 0.204557 0
0 0.481225 0
0.0822222 0.357864 0.625844
0.229334 0.306985 0.537791
0.282698 0.115448 0.202277
0.226808 -0.121377 -0.212669
0.0834086 -0.311393 -0.545604
-0.0921699 -0.381272 -0.668041
-0.232188 -0.304053 -0.532743
-0.282623 -0.109545 -0.19194
-0.223851 0.126616 0.221776
-0.0739749 0.295565 0.516894
0.132723 -0.00499623 1.01023
0.370189 -0.0042686 0.868098
0.456328 -0.00160516 0.326515
0.366111 0.00168762 -0.343289
0.134638 0.00432959 -0.880708
-0.14878 0.00530112 -1.07835
-0.374796 0.00422751 -0.859949
-0.456207 0.0015231 -0.309827
-0.361339 -0.00176071 0.357989
-0.11941 -0.00412646 0.834366
0.132017 -0.365929 1.00487
0.368222 -0.313699 0.863487
0.453904 -0.117978 0.32478
0.364166 0.124038 -0.341465
0.133922 0.31822 -0.876029
-0.14799 0.38963 -1.07262
-0.372805 0.310718 -0.855381
-0.453784 0.111947 -0.308182
-0.359419 -0.129379 0.356087
-0.118775 -0.302225 0.829933
0.0803791 -0.585683 0.611815
0.224193 -0.502089 0.525735
0.276361 -0.188828 0.197743
0.221723 0.198528 -0.207902
0.0815388 0.509323 -0.533373
-0.090104 0.623618 -0.653066
-0.226984 0.497319 -0.5208
-0.276288 0.179176 -0.187637
-0.218833 -0.207077 0.216804
-0.0723167 -0.483724 0.505307
-0.00227012 -0.579477 -0.0172793
-0.0063318 -0.496769 -0.0148482
-0.00780512 -0.186827 -0.00558479
-0.00626202 0.196424 0.00587169
-0.00230288 0.503927 0.0150639
0.00254475 0.617009 0.0184442
0.00641061 0.492049 0.0147088
0.00780306 0.177277 0.00529936
0.00618044 -0.204882 -0.00612313
0.00204242 -0.478598 -0.0142712
-0.0840435 -0.349704 -0.639707
-0.234414 -0.299791 -0.549703
-0.288958 -0.112747 -0.206757
-0.231831 0.118539 0.21738
-0.0852561 0.30411 0.55769
0.0942112 0.372356 0.682836
0.237331 0.296943 0.544544
0.288882 0.106983 0.196191
0.228809 -0.123643 -0.226689
0.0756135 -0.288825 -0.528343
-0.133392 0.0149875 -1.01533
-0.372044 0.0128228 -0.872451
-0.458615 0.00482177 -0.328151
-0.367945 -0.00506937 0.34501
-0.135313 -0.0130055 0.885124
0.149525 -0.015924 1.08375
0.376675 -0.012699 0.86426
0.458494 -0.00457518 0.31138
0.36315 0.00528929 -0.359785
0.120012 0.0123784 -0.838576
-0.131277 0.373896 -0.999233
-0.365681 0.319543 -0.857604
-0.450761 0.120154 -0.322545
-0.361644 -0.126323 0.339112
-0.132995 -0.324083 0.869993
0.146965 -0.396809 1.06523
0.370224 -0.316444 0.849487
0.450642 -0.114008 0.306056
0.356938 0.131815 -0.353688
0.11811 0.308806 -0.82528
-0.0785146 0.588553 -0.597623
-0.205252 0.475019 -0.48234
-0.252802 0.178219 -0.180966
-0.202819 -0.187339 0.190226
-0.0745868 -0.480621 0.488027
0.0824215 -0.588475 0.597544
0.207631 -0.469291 0.476524
0.252735 -0.169052 0.171657
0.200332 0.196409 -0.199436
0.0706392 0.486094 -0.493585
0 0.218603 0
0 0.185612 0
0 0.0696384 0
0 -0.0732021 0
0 -0.187801 0
0 -0.229944 0
0 -0.183374 0
0 -0.0660563 0
0 0.0767462 0
0 0.180547 0
0.132723 0.134264 0.444738
0.370189 0.115448 0.382251
0.456328 0.0434223 0.143781
0.366111 -0.0456529 -0.151169
0.134638 -0.117123 -0.387825
-0.14878 -0.143406 -0.474855
-0.374796 -0.114362 -0.378683
-0.456207 -0.0412029 -0.136435
-0.361339 0.0476094 0.157625
-0.11941 0.110891 0.367315
0.21424 -0.0018745 0.717893
0.597556 -0.00160516 0.617026
0.736601 -0.000603689 0.232091
0.590973 0.0006347 -0.244016
0.217331 0.00162833 -0.626024
-0.240159 0.00199375 -0.766507
-0.604992 0.00158995 -0.611266
-0.736406 0.000572834 -0.220232
-0.583269 -0.000662003 0.254438
-0.19275 -0.00154818 0.592918
0.213102 -0.13729 0.714079
0.594383 -0.117978 0.613747
0.732688 -0.044376 0.230858
0.587834 0.046656 -0.24272
0.216176 0.119696 -0.622698
-0.238884 0.146557 -0.762435
-0.601779 0.116875 -0.608019
-0.732494 0.0421085 -0.219062
-0.58017 -0.04865 0.253086
-0.191726 -0.11339 0.589768
0.129747 -0.219738 0.434768
0.361891 -0.188828 0.373682
0.446099 -0.0710256 0.140558
0.357904 0.0746749 -0.14778
0.131619 0.191579 -0.379131
-0.145445 0.23457 -0.46421
-0.366395 0.187063 -0.370195
-0.445981 0.0673966 -0.133377
-0.353238 -0.0778664 0.154092
-0.116733 -0.181485 0.359081
-0.00366441 -0.21741 -0.012279
-0.0102207 -0.186827 -0.0105538
-0.012599 -0.0702729 -0.00396975
-0.0101081 0.0738837 0.00417371
-0.00371728 0.189549 0.0107077
0.00410774 0.232085 0.0131106
0.0103479 0.185081 0.0104552
0.0125956 0.0666823 0.0037669
0.00997644 -0.0770414 -0.00435198
0.00329685 -0.179562 -0.0101414
-0.135662 -0.131203 -0.454589
-0.378388 -0.112747 -0.390718
-0.466435 -0.0424086 -0.146966
-0.374219 0.0445877 0.154517
-0.13762 0.11439 0.396415
0.152075 0.140059 0.485373
0.383098 0.111693 0.387071
0.466312 0.0402417 0.139457
0.369342 -0.0464932 -0.161117
0.122055 -0.108362 -0.375452
-0.215321 0.00562306 -0.721515
-0.600551 0.00482177 -0.62012
-0.740292 0.00181338 -0.233254
-0.593935 -0.00190652 0.245239
-0.21842 -0.00489117 0.629162
0.241363 -0.00598879 0.77035
0.608024 -0.00477588 0.61433
0.740097 -0.00172067 0.221336
0.586193 0.00198867 -0.255714
0.193723 0.00464416 -0.59591
-0.211907 0.14028 -0.710076
-0.590281 0.120154 -0.609553
-0.727614 0.0451856 -0.229263
-0.583763 -0.0475064 0.241041
-0.214679 -0.121878 0.618391
0.237229 -0.149228 0.757162
0.597612 -0.119005 0.603814
0.727422 -0.0428754 0.217546
0.576167 0.0495577 -0.251376
0.190652 0.115859 -0.586461
-0.126738 0.220815 -0.424683
-0.331317 0.178219 -0.34276
-0.408071 0.0668648 -0.128598
-0.327389 -0.0702865 0.135179
-0.120398 -0.180321 0.346802
0.133044 -0.220786 0.424627
0.335156 -0.17607 0.338628
0.407963 -0.0634253 0.121983
0.323374 0.0736895 -0.141723
0.114025 0.182374 -0.350752
0 -0.22979 0
0 -0.19511 0
0 -0.0732021 0
0 0.076948 0
0 0.197411 0
0 0.241711 0
0 0.192758 0
0 0.0694366 0
0 -0.0806736 0
0 -0.189786 0
0.132017 -0.141135 0.0920484
0.368222 -0.121377 0.0791149
0.453904 -0.0456529 0.0297585
0.364166 0.0479984 -0.0312876
0.133922 0.12314 -0.0802686
-0.14799 0.150773 -0.0982811
-0.372805 0.120237 -0.0783763
-0.453784 0.0433199 -0.028238
-0.359419 -0.0500539 0.0326238
-0.118775 -0.116565 0.076024
0.213102 0.00197043 0.148584
0.594383 0.00168762 0.127706
0.732688 0.0006347 0.0480359
0.587834 -0.00066731 -0.0505042
0.216176 -0.00171196 -0.129569
-0.238884 -0.00209617 -0.158645
-0.601779 -0.00167164 -0.126514
-0.732494 -0.000602259 -0.0455816
-0.58017 0.000695996 0.052661
-0.191726 0.0016274 0.122717
0.21197 0.144316 0.147794
0.591225 0.124038 0.127028
0.728796 0.046656 0.0477808
0.584711 -0.0490534 -0.0502359
0.215028 -0.125846 -0.12888
-0.237615 -0.154087 -0.157802
-0.598583 -0.12288 -0.125842
-0.728603 -0.0442722 -0.0453395
-0.577089 0.0511485 0.0523813
-0.190708 0.119192 0.122066
0.129058 0.230983 0.089985
0.359969 0.198528 0.077341
0.443729 0.0746749 0.0290914
0.356003 -0.078512 -0.0305862
0.13092 -0.201423 -0.0784689
-0.144672 -0.246624 -0.0960779
-0.364449 -0.196675 -0.0766192
-0.443612 -0.0708597 -0.027605
-0.351362 0.0818651 0.0318924
-0.116113 0.190772 0.0743198
-0.00364495 0.228535 -0.00254142
-0.0101664 0.196424 -0.00218433
-0.012532 0.0738837 -0.00082162
-0.0100545 -0.07768 0.000863835
-0.00369755 -0.199288 0.00221617
0.00408593 -0.24401 0.0027135
0.010293 -0.194591 0.00216395
0.0125287 -0.0701088 0.000779637
0.00992343 0.0809975 -0.000900728
0.00327934 0.18875 -0.00209899
-0.134942 0.137917 -0.0940873
-0.376378 0.118539 -0.0808671
-0.463957 0.0445877 -0.0304177
-0.372232 -0.0468785 0.0319806
-0.136889 -0.120267 0.0820461
0.151267 -0.147256 0.100458
0.381063 -0.117432 0.0801125
0.463835 -0.0423094 0.0288635
0.36738 0.0488806 -0.0333464
0.121406 0.113908 -0.077708
-0.214177 -0.00591081 -0.149334
-0.597361 -0.00506937 -0.128347
-0.73636 -0.00190652 -0.0482767
-0.59078 0.00200444 0.0507574
-0.21726 0.00514242 0.130218
0.240081 0.0062964 0.15944
0.604794 0.0050212 0.127148
0.736165 0.00180905 0.0458101
0.583079 -0.00209077 -0.0529252
0.192694 -0.00488182 -0.123337
-0.210781 -0.147458 -0.146966
-0.587145 -0.126323 -0.12616
-0.723749 -0.0475064 -0.0474506
-0.580662 0.0499465 0.0498884
-0.213538 0.128138 0.127989
0.235969 0.156893 0.15671
0.594438 0.125117 0.124972
0.723558 0.0450776 0.0450256
0.573106 -0.0521019 -0.0520277
0.189639 -0.121788 -0.121381
-0.126064 -0.232115 -0.0878977
-0.329557 -0.187339 -0.0709419
-0.405904 -0.0702865 -0.0266162
-0.32565 0.0738833 0.0279782
-0.119758 0.189548 0.0717784
0.132337 0.232084 0.087886
0.333376 0.18508 0.0700865
0.405796 0.066671 0.0252471
0.321656 -0.0774604 -0.0293328
0.11342 -0.191707 -0.0725959
0 -0.589528 0
0 -0.500557 0
0 -0.187801 0
0 0.197411 0
0 0.50646 0
0 0.620113 0
0 0.494522 0
0 0.17814 0
0 -0.206969 0
0 -0.486899 0
0.0803791 -0.362084 -0.296154
0.224193 -0.311393 -0.254541
0.276361 -0.117123 -0.095744
0.221723 0.12314 0.100664
0.0815388 0.315915 0.258252
-0.090104 0.386809 0.316206
-0.226984 0.308469 0.252165
-0.276288 0.111137 0.090852
-0.218833 -0.128414 -0.104963
-0.0723167 -0.29905 -0.244598
0.129747 0.00505515 -0.47805
0.361891 0.00432959 -0.410878
0.446099 0.00162833 -0.154549
0.357904 -0.00171196 0.16249
0.131619 -0.00439211 0.416869
-0.145445 -0.00537776 0.510417
-0.366395 -0.00428858 0.407044
-0.445981 -0.0015451 0.146652
-0.353238 0.00178557 -0.16943
-0.116733 0.00417511 -0.394828
0.129058 0.370244 -0.47551
0.359969 0.31822 -0.408696
0.443729 0.119696 -0.153728
0.356003 -0.125846 0.161627
0.13092 -0.32286 0.414655
-0.144672 -0.395312 0.507705
-0.364449 -0.31525 0.404881
-0.443612 -0.11358 0.145873
-0.351362 0.131221 -0.16853
-0.116113 0.305789 -0.392731
0.0785773 0.592589 -0.289515
0.219167 0.509323 -0.248835
0.270166 0.191579 -0.0935976
0.216753 -0.201423 0.0984071
0.0797113 -0.51675 0.252463
-0.0880839 -0.632713 0.309117
-0.221896 -0.504569 0.246513
-0.270094 -0.18179 0.0888154
-0.213928 0.210025 -0.10261
-0.0706956 0.489428 -0.239115
-0.00221923 0.58631 0.00817669
-0.00618987 0.503927 0.00702773
-0.00763015 0.189549 0.00264345
-0.00612168 -0.199288 -0.00277927
-0.00225123 -0.511274 -0.00713023
0.00248774 -0.626007 -0.00873032
0.00626689 -0.499223 -0.00696215
0.00762813 -0.179864 -0.00250839
0.00604189 0.2078 0.00289797
0.00199663 0.484241 0.00675324
-0.0821596 0.353828 0.302714
-0.229159 0.30411 0.260179
-0.282482 0.11439 0.0978647
-0.226634 -0.120267 -0.102893
-0.0833449 -0.308545 -0.263972
0.0920996 -0.377784 -0.32321
0.232011 -0.301272 -0.25775
0.282407 -0.108545 -0.0928643
0.22368 0.125403 0.107287
0.0739185 0.292231 0.250016
-0.130402 -0.0151642 0.480462
-0.363704 -0.0130055 0.412939
-0.448335 -0.00489117 0.155324
-0.359698 0.00514242 -0.163305
-0.132279 0.0131928 -0.418958
0.146174 0.0161534 -0.512975
0.368231 0.012882 -0.409084
0.448217 0.00464112 -0.147387
0.355009 -0.00536388 0.170281
0.117322 -0.0125244 0.39682
-0.128335 -0.378305 0.472844
-0.357484 -0.324083 0.405902
-0.440656 -0.121878 0.152666
-0.353537 0.128138 -0.16051
-0.130013 0.328737 -0.411787
0.14367 0.402509 -0.504194
0.361925 0.32099 -0.402081
0.44054 0.115646 -0.144864
0.348937 -0.133668 0.167392
0.115462 -0.312447 0.390529
-0.0767546 -0.595493 0.2828
-0.200651 -0.480621 0.228247
-0.247135 -0.180321 0.0856343
-0.198273 0.189548 -0.0900164
-0.0729149 0.486288 -0.230938
0.0805739 0.595414 -0.282762
0.202977 0.474825 -0.225494
0.24707 0.171045 -0.0812293
0.195841 -0.198725 0.0943747
0.0690557 -0.491826 0.233568
0 -0.721822 0
0 -0.612886 0
0 -0.229944 0
0 0.241711 0
0 0.620113 0
0 0.759271 0
0 0.605496 0
0 0.218116 0
0 -0.253414 0
0 -0.596163 0
-0.00227012 -0.443338 -0.570098
-0.0063318 -0.381272 -0.489993
-0.00780512 -0.143406 -0.184308
-0.00626202 0.150773 0.193778
-0.00230288 0.386809 0.497138
0.00254475 0.473611 0.608696
0.00641061 0.377691 0.485419
0.00780306 0.136077 0.17489
0.00618044 -0.15723 -0.202054
0.00204242 -0.366159 -0.470852
-0.00366441 0.00618955 -0.920248
-0.0102207 0.00530111 -0.790942
-0.012599 0.00199375 -0.297508
-0.0101081 -0.00209618 0.312795
-0.00371728 -0.00537776 0.802476
0.00410774 -0.00658453 0.982556
0.0103479 -0.00525097 0.783561
0.0125956 -0.00189183 0.282307
0.00997644 0.00218629 -0.326153
0.00329685 0.00511204 -0.760046
-0.00364495 0.453329 -0.91536
-0.0101664 0.38963 -0.78674
-0.012532 0.146557 -0.295928
-0.0100545 -0.154087 0.311133
-0.00369755 -0.395312 0.798213
0.00408593 -0.484022 0.977336
0.010293 -0.385993 0.779397
0.0125287 -0.139069 0.280808
0.00992343 0.160668 -0.324421
0.00327934 0.37441 -0.756008
-0.00221923 0.72557 -0.557319
-0.00618987 0.623618 -0.479008
-0.00763015 0.23457 -0.180176
-0.00612168 -0.246624 0.189434
-0.00225123 -0.632713 0.485993
0.00248774 -0.774696 0.595053
0.00626689 -0.617798 0.474537
0.00762813 -0.222585 0.17097
0.00604189 0.257156 -0.197524
0.00199663 0.599258 -0.460297
6.2677e-05 0.717882 0.0157402
0.000174816 0.617009 0.0135285
0.0002155 0.232085 0.00508862
0.000172893 -0.24401 -0.00535014
6.3582e-05 -0.626007 -0.0137257
-7.02582e-05 -0.766487 -0.0168059
-0.000176998 -0.61125 -0.0134023
-0.000215443 -0.220226 -0.00482865
-0.000170638 0.254431 0.00557862
-5.63902e-05 0.592908 0.013
0.00232041 0.433229 0.582726
0.00647203 0.372356 0.500846
0.00797804 0.140059 0.18839
0.00640075 -0.147256 -0.19807
0.00235387 -0.377784 -0.508148
-0.00260113 -0.462562 -0.62218
-0.00655263 -0.36888 -0.496172
-0.00797593 -0.132903 -0.178764
-0.00631732 0.153545 0.20653
-0.00208766 0.35781 0.481282
0.0036829 -0.0185672 0.924892
0.010272 -0.015924 0.794908
0.0126621 -0.00598879 0.298999
0.0101587 0.0062964 -0.314362
0.00373591 0.0161534 -0.806498
-0.00412833 0.0197784 -0.987482
-0.0103998 0.0157727 -0.787488
-0.0126588 0.00568262 -0.283722
-0.0100264 -0.00656756 0.32779
-0.00331349 -0.0153349 0.763881
0.00362451 -0.463199 0.910228
0.0100963 -0.396809 0.781362
0.0124453 -0.149228 0.293883
0.0099849 0.156893 -0.30898
0.00367195 0.402509 -0.792692
-0.00405762 0.492834 -0.970577
-0.0102217 0.393022 -0.774007
-0.012442 0.141598 -0.278864
-0.0098549 -0.163663 0.322229
-0.00326095 -0.382563 0.75177
0.00216775 -0.729126 0.544391
0.00566693 -0.588475 0.439376
0.00697976 -0.220786 0.164846
0.00559975 0.232084 -0.173282
0.00205931 0.595414 -0.444557
-0.00227562 0.729029 -0.544319
-0.0057326 0.581379 -0.434078
-0.0069779 0.209429 -0.156367
-0.00553108 -0.243321 0.181672
-0.00195032 -0.602196 0.44962
0 -0.575632 0
0 -0.488758 0
0 -0.183374 0
0 0.192758 0
0 0.494522 0
0 0.605496 0
0 0.482865 0
0 0.173941 0
0 -0.20209 0
0 -0.475422 0
-0.0840435 -0.353549 -0.624094
-0.234414 -0.304053 -0.536402
-0.288958 -0.114362 -0.201764
-0.231831 0.120237 0.212131
-0.0852561 0.308469 0.544225
0.0942112 0.377691 0.66635
0.237331 0.301198 0.531395
0.288882 0.108517 0.191455
0.228809 -0.125386 -0.221191
0.0756135 -0.292001 -0.515448
-0.135662 0.00493599 -1.00741
-0.378388 0.0042275 -0.865854
-0.466435 0.00158995 -0.325686
-0.374219 -0.00167164 0.342421
-0.13762 -0.00428858 0.87848
0.152075 -0.00525097 1.07562
0.383098 -0.0041875 0.857773
0.466312 -0.0015087 0.309045
0.369342 0.00174349 -0.357045
0.122055 0.0040767 -0.832032
-0.134942 0.361516 -1.00206
-0.376378 0.310718 -0.861255
-0.463957 0.116875 -0.323956
-0.372232 -0.12288 0.340602
-0.136889 -0.31525 0.873813
0.151267 -0.385993 1.0699
0.381063 -0.307818 0.853216
0.463835 -0.110903 0.307403
0.36738 0.128128 -0.355148
0.121406 0.298581 -0.827612
-0.0821596 0.578621 -0.610104
-0.229159 0.497319 -0.524376
-0.282482 0.187063 -0.197242
-0.226634 -0.196675 0.207376
-0.083345 -0.504569 0.532023
0.0920995 -0.617798 0.651413
0.232011 -0.492678 0.519483
0.282407 -0.177505 0.187163
0.22368 0.205075 -0.216233
0.0739185 0.477891 -0.503894
0.00232041 0.572489 0.017231
0.00647204 0.492049 0.0148099
0.00797804 0.185081 0.0055706
0.00640075 -0.194591 -0.00585685
0.00235387 -0.499223 -0.0150257
-0.00260113 -0.61125 -0.0183976
-0.00655263 -0.487456 -0.0146717
-0.00797593 -0.175624 -0.005286
-0.00631732 0.202902 0.00610699
-0.00208766 0.472827 0.0142313
0.0859051 0.345487 0.637918
0.239606 0.296943 0.548284
0.295359 0.111693 0.206233
0.236966 -0.117432 -0.21683
0.0871444 -0.301272 -0.556279
-0.0962982 -0.36888 -0.681109
-0.242588 -0.294171 -0.543167
-0.295281 -0.105986 -0.195696
-0.233877 0.122448 0.226091
-0.0772884 0.285343 0.526866
0.136347 -0.0148068 1.01249
0.380285 -0.012699 0.870196
0.468773 -0.00477588 0.327318
0.376095 0.0050212 -0.344137
0.13831 0.012882 -0.882884
-0.152837 0.0157727 -1.08101
-0.385018 0.0125783 -0.862072
-0.468649 0.00453173 -0.310594
-0.371193 -0.00523743 0.358836
-0.122671 -0.0122291 0.836231
0.134185 -0.369388 0.996439
0.373781 -0.316444 0.855368
0.460745 -0.119005 0.321718
0.369655 0.125117 -0.338246
0.135941 0.32099 -0.86777
-0.15022 0.393022 -1.0625
-0.378424 0.313424 -0.847315
-0.460623 0.112921 -0.305275
-0.364844 -0.130517 0.352748
-0.120726 -0.305082 0.822973
0.0802538 -0.581457 0.595952
0.209799 -0.469291 0.480991
0.258402 -0.17607 0.18046
0.207312 0.18508 -0.189694
0.076239 0.474825 -0.486663
-0.0842472 0.581379 -0.595873
-0.21223 0.463633 -0.475191
-0.258333 0.167013 -0.171177
-0.204769 -0.194041 0.198878
-0.0722039 -0.480233 0.492205
0 -0.207358 0
0 -0.176064 0
0 -0.0660563 0
0 0.0694366 0
0 0.17814 0
0 0.218116 0
0 0.173941 0
0 0.0626585 0
0 -0.0727985 0
0 -0.17126 0
-0.133392 -0.127358 -0.43731
-0.372044 -0.109545 -0.375877
-0.458615 -0.041203 -0.141384
-0.367945 0.04332 0.148649
-0.135313 0.111137 0.381358
0.149525 0.136077 0.466938
0.376675 0.108518 0.372369
0.458494 0.0390972 0.13416
0.36315 -0.045174 -0.154996
0.120012 -0.105187 -0.36118
-0.215321 0.00177808 -0.705902
-0.600551 0.0015231 -0.606735
-0.740292 0.000572836 -0.228221
-0.593935 -0.00060226 0.239948
-0.21842 -0.0015451 0.615584
0.241363 -0.00189183 0.753726
0.608024 -0.0015087 0.601075
0.740097 -0.000543567 0.21656
0.586193 0.000628143 -0.250194
0.193723 0.00146854 -0.583014
-0.214177 0.130228 -0.702152
-0.597361 0.111947 -0.603512
-0.73636 0.0421086 -0.227009
-0.59078 -0.0442723 0.238673
-0.21726 -0.113581 0.612314
0.240081 -0.139069 0.749722
0.604794 -0.110904 0.597882
0.736165 -0.0399572 0.21541
0.583079 0.0461621 -0.248865
0.192694 0.107557 -0.579917
-0.130402 0.208435 -0.427507
-0.363704 0.179176 -0.367451
-0.448335 0.0673967 -0.138215
-0.359698 -0.0708598 0.145316
-0.132279 -0.181791 0.37281
0.146174 -0.222586 0.456471
0.368231 -0.177506 0.364023
0.448217 -0.063953 0.131153
0.355009 0.0738843 -0.151522
0.117322 0.17215 -0.353084
0.0036829 0.206226 0.0120739
0.010272 0.177277 0.0103778
0.0126621 0.0666825 0.00390355
0.0101587 -0.0701089 -0.00410412
0.00373591 -0.179864 -0.0105291
-0.00412833 -0.220227 -0.0128919
-0.0103998 -0.175624 -0.0102809
-0.0126588 -0.0632753 -0.00370411
-0.0100264 0.0731013 0.0042794
-0.00331349 0.170325 0.00997203
0.136347 0.124454 0.446997
0.380285 0.106984 0.384202
0.468773 0.0402418 0.144515
0.376095 -0.0423095 -0.151941
0.13831 -0.108545 -0.389805
-0.152837 -0.132903 -0.47728
-0.385018 -0.105987 -0.380617
-0.468649 -0.0381856 -0.137132
-0.371193 0.0441153 0.15843
-0.122671 0.102788 0.369181
0.216407 -0.00533382 0.709464
0.603561 -0.00457518 0.609778
0.744002 -0.00172067 0.229365
0.59691 0.00180905 -0.24115
0.219515 0.00464113 -0.618671
-0.242573 0.00568264 -0.757504
-0.611072 0.00453174 -0.604087
-0.743805 0.0016327 -0.217645
-0.589132 -0.00188692 0.251449
-0.194701 -0.00440527 0.585957
0.212976 -0.133064 0.698216
0.59324 -0.114008 0.599388
0.731262 -0.0428755 0.22544
0.586689 0.0450777 -0.237022
0.215755 0.115647 -0.608079
-0.238418 0.141599 -0.744538
-0.600607 0.112921 -0.593747
-0.731068 0.0406833 -0.213918
-0.579055 -0.0470218 0.247183
-0.191614 -0.109899 0.576666
0.127377 -0.209457 0.41759
0.332989 -0.169052 0.337036
0.410131 -0.0634253 0.12645
0.329041 0.066671 -0.132921
0.121005 0.171045 -0.34101
-0.133716 0.209429 -0.417535
-0.336848 0.167013 -0.332972
-0.410022 0.0601628 -0.119946
-0.325006 -0.069899 0.139356
-0.114601 -0.172993 0.344894
0 0.240915 0
0 0.204557 0
0 0.0767462 0
0 -0.0806736 0
0 -0.206969 0
0 -0.253414 0
0 -0.20209 0
0 -0.0727985 0
0 0.0845795 0
0 0.198975 0
-0.131277 0.147968 -0.0818084
-0.365682 0.12661 -0.0708598
-0.450761 0.0476071 -0.0266657
-0.361644 -0.0500515 0.0280371
-0.132995 -0.128408 0.071929
0.146965 -0.157223 0.0880704
0.370224 -0.12538 0.0702338
0.450642 -0.0451718 0.0253053
0.356938 0.0522288 -0.0292052
0.11811 0.122209 -0.0675667
-0.211907 -0.00206583 -0.132055
-0.590281 -0.00176061 -0.114381
-0.727614 -0.000661968 -0.0430436
-0.583763 0.000695955 0.0452573
-0.214679 0.00178547 0.116107
0.237229 0.00218615 0.142163
0.597612 0.00174339 0.113371
0.727422 0.000628105 0.0408476
0.576167 -0.00072635 -0.0471429
0.190652 -0.00170619 -0.109066
-0.210781 -0.151303 -0.131353
-0.587145 -0.129372 -0.113774
-0.723749 -0.0486476 -0.0428149
-0.580662 0.0511459 0.0450169
-0.213538 0.131215 0.115491
0.235969 0.16066 0.141407
0.594438 0.128122 0.112769
0.723558 0.0461596 0.0406306
0.573106 -0.0533663 -0.0468924
0.189639 -0.124963 -0.108486
-0.128335 -0.242166 -0.0799746
-0.357484 -0.207066 -0.0692714
-0.440656 -0.0778625 -0.026068
-0.353537 0.0818609 0.0274086
-0.130013 0.210014 0.0703168
0.14367 0.257143 0.0860963
0.361925 0.205065 0.0686596
0.44054 0.0738804 0.024738
0.348937 -0.0854145 -0.0285505
0.115462 -0.200009 -0.0660521
0.00362451 -0.2396 0.0022587
0.0100963 -0.204872 0.00195641
0.0124453 -0.0770375 0.000736228
0.0099849 0.0809934 -0.00077409
0.00367195 0.207789 -0.00198593
-0.00405762 0.254418 -0.00243159
-0.0102217 0.202892 -0.00193911
-0.012442 0.0730974 -0.000698667
-0.0098549 -0.0845092 0.000806345
-0.00326095 -0.197889 0.00186549
0.134185 -0.144594 0.0836205
0.373781 -0.123637 0.0724292
0.460745 -0.0464909 0.0272563
0.369654 0.0488781 -0.0286581
0.135941 0.125397 -0.0735222
-0.15022 0.153537 -0.0900212
-0.378424 0.122442 -0.0717892
-0.460623 0.044113 -0.0258658
-0.364844 -0.0509999 0.0298522
-0.120726 -0.119423 0.0690634
0.212976 0.00619699 0.132721
0.59324 0.00528904 0.114954
0.731262 0.00198857 0.0432591
0.586689 -0.00209067 -0.0454837
0.215755 -0.00536362 -0.116688
-0.238418 -0.00656724 -0.142874
-0.600607 -0.00523717 -0.113938
-0.731068 -0.00188682 -0.041052
-0.579055 0.00218206 0.0473791
-0.191614 0.00511818 0.109616
0.2096 0.154597 0.130617
0.583116 0.131809 0.112971
0.718764 0.0495553 0.0425089
0.576664 -0.0520994 -0.0446947
0.212068 -0.133661 -0.114664
-0.234344 -0.163655 -0.140396
-0.590344 -0.13051 -0.111962
-0.718575 -0.0470195 -0.0403396
-0.569172 0.054381 0.046566
-0.188576 0.127684 0.107878
0.125358 0.243353 0.0781195
0.327709 0.196409 0.0630499
0.403628 0.0736895 0.0236553
0.323824 -0.0774604 -0.0248658
0.119087 -0.198725 -0.0637934
-0.131596 -0.243321 -0.0781091
-0.331507 -0.194041 -0.0622897
-0.403521 -0.069899 -0.0224385
-0.319853 0.0812107 0.0260697
-0.112784 0.200989 0.0645199
0 0.596242 0
0 0.481225 0
0 0.180547 0
0 -0.189786 0
0 -0.486899 0
0 -0.596163 0
0 -0.475422 0
0 -0.17126 0
0 0.198975 0
0 0.492444 0
-0.0785146 0.366207 0.305256
-0.205252 0.295565 0.246371
-0.252802 0.110891 0.0924341
-0.202819 -0.116565 -0.0971643
-0.0745868 -0.29905 -0.249276
0.0824215 -0.366159 -0.305215
0.207631 -0.292001 -0.2434
0.252735 -0.105187 -0.0876794
0.200332 0.122209 0.101869
0.0706392 0.302456 0.252115
-0.126738 -0.00511272 0.492742
-0.331317 -0.00412646 0.39769
-0.408071 -0.00154818 0.149206
-0.327389 0.0016274 -0.156842
-0.120398 0.00417511 -0.402379
0.133044 0.00511204 -0.492676
0.335156 0.0040767 -0.392895
0.407963 0.00146854 -0.141531
0.323374 -0.00170619 0.164436
0.114025 -0.00422266 0.406962
-0.126064 -0.37446 0.490124
-0.329557 -0.302226 0.395577
-0.405904 -0.11339 0.148414
-0.32565 0.119192 -0.156009
-0.119758 0.305789 -0.400242
0.132337 0.374411 -0.490059
0.333376 0.298581 -0.390807
0.405796 0.107557 -0.14078
0.321656 -0.124963 0.163562
0.11342 -0.309272 0.4048
-0.0767546 -0.599338 0.298413
-0.200651 -0.483724 0.240848
-0.247135 -0.181485 0.0903621
-0.198273 0.190772 -0.0949862
-0.0729149 0.489428 -0.243688
0.0805739 0.599259 -0.298373
0.202977 0.477891 -0.237944
0.24707 0.17215 -0.085714
0.195841 -0.200009 0.0995851
0.0690557 -0.495002 0.246463
0.00216775 -0.592987 -0.00842798
0.00566693 -0.478598 -0.00680219
0.00697976 -0.179562 -0.00255207
0.00559975 0.18875 0.00268266
0.00205931 0.484241 0.0068824
-0.00227562 0.592908 0.00842686
-0.0057326 0.472827 0.00672017
-0.0069779 0.170325 0.00242079
-0.00553108 -0.197889 -0.00281255
-0.00195032 -0.489756 -0.00696078
0.0802538 -0.357857 -0.312017
0.209799 -0.288825 -0.251828
0.258402 -0.108362 -0.0944816
0.207312 0.113908 0.0993165
0.076239 0.292231 0.254798
-0.0842472 0.35781 0.311976
-0.21223 0.285343 0.248792
-0.258333 0.102788 0.0896216
-0.204769 -0.119423 -0.104125
-0.0722039 -0.295559 -0.257699
0.127377 0.0153369 -0.495228
0.332989 0.0123784 -0.399697
0.410131 0.00464416 -0.149959
0.329041 -0.00488182 0.157633
0.121005 -0.0125244 0.40441
-0.133716 -0.0153349 0.495162
-0.336848 -0.0122291 0.394877
-0.410022 -0.00440527 0.142246
-0.325006 0.00511818 -0.165265
-0.114601 0.012667 -0.409016
0.125358 0.382614 -0.487376
0.327709 0.308806 -0.39336
0.403628 0.115859 -0.147582
0.323824 -0.121788 0.155134
0.119087 -0.312447 0.397998
-0.131596 -0.382563 0.487311
-0.331507 -0.305082 0.388616
-0.403521 -0.109899 0.13999
-0.319853 0.127684 -0.162645
-0.112784 0.316006 -0.402531
0.0749742 0.602276 -0.291491
0.195997 0.486094 -0.235261
0.241403 0.182374 -0.088266
0.193673 -0.191707 0.0927829
0.0712235 -0.491826 0.238035
-0.0787049 -0.602196 0.291452
-0.198268 -0.480233 0.232424
-0.241339 -0.172993 0.0837257
-0.191298 0.200989 -0.0972751
-0.0674539 0.497428 -0.240746
