# vtk DataFile Version 3.0
Velocity field
ASCII
DATASET STRUCTURED_POINTS
DIMENSIONS 8 8 8
SPACING 0.8 0.8 0.8
ORIGIN 0 0 0
POINT_DATA 512
VECTORS velocity float
0 0.437533 0
0 0.304832 0
0 -0.0127758 0
0 -0.322634 0
0 -0.436787 0
0 -0.28599 0
0 0.0382838 0
0 0.339335 0
0 0.172131 0.446568
0 0.119925 0.329868
0 -0.00502615 -0.013825
0 -0.126928 -0.349132
0 -0.171838 -0.47266
0 -0.112512 -0.309479
0 0.0150613 0.041428
0 0.133499 0.346343
0 -0.197683 0.622253
0 -0.137727 0.459642
0 0.00577225 -0.019264
0 0.14577 -0.486485
0 0.197346 -0.658611
0 0.129214 -0.431232
0 -0.0172971 0.0577263
0 -0.153316 0.482598
0 -0.447585 0.420488
0 -0.311836 0.310604
0 0.0130693 -0.0130177
0 0.330046 -0.328743
0 0.446822 -0.445057
0 0.292561 -0.291405
0 -0.0391633 0.0390086
0 -0.347132 0.326116
0 -0.425988 -0.036339
0 -0.296789 -0.0268427
0 0.0124387 0.001125
0 0.314121 0.0284103
0 0.425262 0.0384622
0 0.278444 0.0251836
0 -0.0372736 -0.00337117
0 -0.330382 -0.0281833
0 -0.145993 -0.471124
0 -0.101714 -0.348007
0 0.00426292 0.0145852
0 0.107654 0.36833
0 0.145744 0.498651
0 0.0954272 0.326497
0 -0.0127742 -0.043706
0 -0.113227 -0.365387
0 0.22256 -0.620131
0 0.155059 -0.458075
0 -0.00649866 0.0191983
0 -0.164114 0.484826
0 -0.222181 0.656365
0 -0.145475 0.429761
0 0.0194738 -0.0575295
0 0.17261 -0.480952
0 0.456111 -0.392975
0 0.317776 -0.273789
0 -0.0133182 0.0114747
0 -0.336333 0.289778
0 -0.455333 0.392305
0 -0.298134 0.256866
0 0.0399093 -0.034385
0 0.353744 -0.304778
0 0.304832 0
0 0.23058 0
0 -0.00966381 0
0 -0.244046 0
0 -0.330393 0
0 -0.216328 0
0 0.0289585 0
0 0.236417 0
0.0951937 0.119925 0.441087
0.236655 0.0869181 0.319239
0.230925 -0.00364596 -0.0133911
0.0850728 -0.0920589 -0.338118
-0.112382 -0.124632 -0.457753
-0.24167 -0.0816034 -0.299721
-0.224328 0.0108767 0.0399509
-0.0683034 0.0930097 0.342092
0.132644 -0.137727 0.614617
0.329753 -0.0995502 0.444837
0.321769 0.00417559 -0.0186594
0.118543 0.105434 -0.471143
-0.156593 0.142737 -0.637831
-0.336741 0.0934586 -0.417633
-0.312579 -0.0124597 0.0556687
-0.0951749 -0.106816 0.476676
0.0896345 -0.311836 0.415328
0.222833 -0.225401 0.3006
0.217439 0.00945465 -0.012609
0.0801042 0.238726 -0.318371
-0.105819 0.323187 -0.431021
-0.227555 0.211614 -0.282215
-0.211228 -0.0282116 0.0376182
-0.0643145 -0.241849 0.322114
-0.0077463 -0.296789 -0.0358931
-0.0192573 -0.214529 -0.0259781
-0.0187914 0.00899834 0.00108968
-0.00692277 0.227206 0.0275143
0.00914501 0.307597 0.0372492
0.0196653 0.201403 0.0243892
0.0182545 -0.0268503 -0.00325099
0.00555813 -0.230179 -0.0278374
-0.100428 -0.101714 -0.465342
-0.249664 -0.0735229 -0.336793
-0.243624 0.00308392 0.0141274
-0.0897496 0.0778681 0.356706
0.118562 0.10542 0.482925
0.254954 0.0690243 0.316196
0.236664 -0.00920209 -0.0421478
0.0720593 -0.078886 -0.360903
-0.132192 0.155059 -0.612521
-0.32853 0.111977 -0.443192
-0.320575 -0.00469674 0.0185899
-0.118103 -0.118592 0.469394
0.156013 -0.160551 0.635464
0.33549 -0.105125 0.416083
0.311419 0.0140169 -0.0554648
0.0948503 0.120259 -0.47505
-0.0837696 0.317776 -0.388153
-0.200495 0.221396 -0.270429
-0.195603 -0.0092789 0.0113339
-0.0720608 -0.234326 0.286221
0.0951926 -0.317234 0.387491
0.204704 -0.207712 0.253713
0.190044 0.0278051 -0.033963
0.0601064 0.246456 -0.301038
0 -0.0127758 0
0 -0.00966381 0
0 0.000405018 0
0 0.0102282 0
0 0.013847 0
0 0.00906649 0
0 -0.00121367 0
0 -0.00990844 0
0.132644 -0.00502615 0.168049
0.329753 -0.00364596 0.121555
0.321769 0.000152944 -0.0050987
0.118543 0.00386174 -0.12874
-0.156593 0.00522798 -0.17429
-0.336741 0.00342314 -0.114121
-0.312579 -0.000456186 0.0152124
-0.0951749 -0.00389811 0.130333
0.184828 0.00577225 0.234162
0.459487 0.00417559 0.169375
0.448362 -0.000175149 -0.00710465
0.165177 -0.00442249 -0.179387
-0.218203 -0.00598723 -0.242864
-0.469225 -0.00392026 -0.159016
-0.435557 0.000522557 0.021197
-0.132618 0.00447676 0.181608
0.124898 0.0130693 0.158235
0.310496 0.00945465 0.114456
0.302984 -0.000396583 -0.00480103
0.111619 -0.0100136 -0.121224
-0.14745 -0.0135567 -0.164112
-0.317075 -0.00887632 -0.107456
-0.294328 0.0011832 0.014324
-0.0896167 0.0101361 0.122722
-0.0107938 0.0124387 -0.0136749
-0.0268336 0.00899834 -0.0098913
-0.0261839 -0.000377448 0.000414906
-0.00964625 -0.00953055 0.0104761
0.0127427 -0.0129024 0.0141829
0.0274023 -0.008448 0.00928647
0.025436 0.0011261 -0.00123788
0.00774477 0.009647 -0.0106057
-0.139938 0.00426292 -0.17729
-0.347881 0.00308392 -0.128237
-0.339463 -0.000129359 0.00537906
-0.12506 -0.00326628 0.135819
0.165204 -0.00442191 0.183874
0.355253 -0.00289528 0.120396
0.329766 0.000385935 -0.0160487
0.100408 0.00330617 -0.1375
-0.184198 -0.00649866 -0.233363
-0.457784 -0.00469674 -0.168747
-0.446699 0.000197005 0.0070783
-0.164564 0.00497432 0.178722
0.217392 0.00673433 0.24196
0.467484 0.00440938 0.158425
0.433941 -0.000587857 -0.0211193
0.132166 -0.00504014 -0.180989
-0.116726 -0.0133182 -0.147882
-0.279373 -0.0092789 -0.10303
-0.272556 0.000388886 0.00431808
-0.10041 0.00982078 0.109047
0.132643 0.0132955 0.14763
0.285237 0.00870538 0.096662
0.26481 -0.00116533 -0.0129395
0.083753 -0.0103292 -0.114692
0 -0.322634 0
0 -0.244046 0
0 0.0102282 0
0 0.258298 0
0 0.349688 0
0 0.228962 0
0 -0.0306497 0
0 -0.250224 0
0.0896345 -0.126928 -0.206925
0.222833 -0.0920589 -0.149672
0.217439 0.00386174 0.0062781
0.0801042 0.0975054 0.158519
-0.105819 0.132005 0.214608
-0.227555 0.0864311 0.140516
-0.211228 -0.0115187 -0.0187311
-0.0643145 -0.0984414 -0.160484
0.124898 0.14577 -0.288332
0.310496 0.105434 -0.208554
0.302984 -0.00442249 0.00874798
0.111619 -0.111667 0.220886
-0.14745 -0.151178 0.299038
-0.317075 -0.0989845 0.195797
-0.294328 0.0131949 -0.0261001
-0.0896167 0.113054 -0.223621
0.0843999 0.330046 -0.194841
0.20982 0.238726 -0.14093
0.20474 -0.0100136 0.00591143
0.0754276 -0.25284 0.149264
-0.099639 -0.342297 0.202074
-0.214266 -0.224125 0.13231
-0.198891 0.0298763 -0.0176371
-0.0605586 0.255973 -0.151112
-0.00729392 0.314121 0.0168383
-0.0181328 0.227206 0.0121793
-0.0176938 -0.00953056 -0.000510873
-0.00651848 -0.240643 -0.0128994
0.00861085 -0.32578 -0.0174634
0.0185171 -0.213311 -0.0114343
0.0171883 0.0284346 0.00152422
0.00523354 0.243622 0.0130592
-0.0945633 0.107654 0.218304
-0.235086 0.0778682 0.157899
-0.229395 -0.00326628 -0.00662333
-0.0845091 -0.0824717 -0.167235
0.111638 -0.111652 -0.226408
0.240068 -0.0731061 -0.148244
0.222841 0.00974505 0.0197609
0.0678511 0.0834928 0.169309
-0.124472 -0.164114 0.287349
-0.309345 -0.118592 0.207782
-0.301858 0.00497432 -0.00871551
-0.111205 0.125601 -0.220066
0.146902 0.17004 -0.297928
0.315898 0.111336 -0.195071
0.293234 -0.0148437 0.0260046
0.0893111 -0.127282 0.222858
-0.0788775 -0.336333 0.182092
-0.188786 -0.234326 0.126865
-0.18418 0.00982078 -0.00531701
-0.0678525 0.24801 -0.134274
0.0896335 0.33576 -0.181782
0.192749 0.219842 -0.119023
0.178946 -0.0294289 0.0159329
0.0565962 -0.260849 0.141225
0 -0.436787 0
0 -0.330393 0
0 0.013847 0
0 0.349688 0
0 0.473413 0
0 0.309972 0
0 -0.041494 0
0 -0.338757 0
-0.0077463 -0.171838 -0.456382
-0.0192573 -0.124632 -0.330102
-0.0187914 0.00522798 0.0138466
-0.00692277 0.132005 0.349617
0.00914501 0.178708 0.473327
0.0196653 0.117014 0.309915
0.0182545 -0.0155944 -0.0413119
0.00555813 -0.133271 -0.353954
-0.0107938 0.197346 -0.635928
-0.0268336 0.142737 -0.459972
-0.0261839 -0.00598723 0.0192942
-0.00964625 -0.151178 0.487174
0.0127427 -0.204665 0.659531
0.0274023 -0.134006 0.431842
0.025436 0.0178634 -0.057565
0.00774477 0.153055 -0.493204
-0.00729392 0.446822 -0.429729
-0.0181328 0.323187 -0.310827
-0.0176938 -0.0135567 0.013038
-0.00651848 -0.342297 0.329202
0.00861085 -0.463412 0.445682
0.0185171 -0.303426 0.291817
0.0171883 0.0404464 -0.0388995
0.00523354 0.34654 -0.333283
0.000630348 0.425262 0.0371376
0.00156705 0.307597 0.0268621
0.00152911 -0.0129024 -0.00112675
0.000563331 -0.32578 -0.0284502
-0.000744161 -0.441053 -0.0385163
-0.00160026 -0.288783 -0.0252191
-0.00148543 0.0384952 0.00336173
-0.000452287 0.329818 0.0288027
0.00817226 0.145744 0.481477
0.0203161 0.10542 0.348252
0.0198243 -0.00442191 -0.014608
0.00730342 -0.111652 -0.368841
-0.0096478 -0.151158 -0.499351
-0.0207466 -0.0989713 -0.326953
-0.0192581 0.013193 0.0435833
-0.00586376 0.113034 0.373417
0.010757 -0.222181 0.633759
0.0267341 -0.160551 0.458269
0.0260868 0.00673434 -0.0192225
0.00961045 0.17004 -0.485362
-0.0126955 0.230203 -0.657085
-0.0273005 0.150729 -0.43024
-0.0253417 -0.0200954 0.0573543
-0.00771835 -0.172316 0.491522
0.00681667 -0.455333 0.401611
0.0163151 -0.317234 0.279805
0.015917 0.0132955 -0.0117269
0.00586388 0.33576 -0.296146
-0.00774621 0.454557 -0.400927
-0.0166576 0.297626 -0.262511
-0.0154647 -0.0398413 0.0351407
-0.0048911 -0.353141 0.311476
0 -0.28599 0
0 -0.216328 0
0 0.00906649 0
0 0.228962 0
0 0.309972 0
0 0.202957 0
0 -0.0271686 0
0 -0.221804 0
-0.100428 -0.112512 -0.429003
-0.249664 -0.0816034 -0.310302
-0.243624 0.00342314 0.013016
-0.0897496 0.0864311 0.328646
0.118562 0.117014 0.444931
0.254954 0.0766163 0.291325
0.236664 -0.0102106 -0.0388338
0.0720593 -0.0872608 -0.33272
-0.139938 0.129214 -0.597778
-0.347881 0.0934586 -0.432383
-0.339463 -0.00392026 0.0181366
-0.12506 -0.0989845 0.457946
0.165204 -0.134006 0.61997
0.355253 -0.0877415 0.405935
0.329766 0.0116962 -0.0541117
0.100408 0.100214 -0.463617
-0.0945633 0.292561 -0.403949
-0.235086 0.211614 -0.292182
-0.229395 -0.00887632 0.0122558
-0.0845091 -0.224125 0.309456
0.111638 -0.303426 0.418947
0.240068 -0.19867 0.274309
0.222841 0.026483 -0.036566
0.0678511 0.2269 -0.313289
0.00817226 0.278444 0.0349097
0.0203161 0.201403 0.0252507
0.0198243 -0.008448 -0.00105916
0.00730342 -0.213311 -0.0267436
-0.0096478 -0.288783 -0.0362058
-0.0207466 -0.189083 -0.0237061
-0.0192581 0.0252051 0.00316006
-0.00586376 0.215952 0.0270748
0.105951 0.0954272 0.452593
0.26339 0.0690243 0.327361
0.257014 -0.00289529 -0.0137317
0.0946849 -0.0731061 -0.346716
-0.125081 -0.0989713 -0.469397
-0.268972 -0.0648023 -0.307344
-0.249674 0.00863825 0.0409689
-0.0760217 0.0740101 0.351016
0.139461 -0.145475 0.59574
0.346591 -0.105125 0.430781
0.338202 0.00440938 -0.0180693
0.124596 0.111336 -0.456248
-0.164591 0.150729 -0.61767
-0.353935 0.0986918 -0.404429
-0.328543 -0.0131579 0.0539135
-0.100066 -0.112825 0.462035
0.0883759 -0.298134 0.377519
0.21152 -0.207712 0.26302
0.206359 0.00870538 -0.0110234
0.0760233 0.219842 -0.27838
-0.100427 0.297626 -0.376875
-0.21596 0.194873 -0.246763
-0.200494 -0.0260865 0.0330326
-0.0634115 -0.231223 0.292791
0 0.0382838 0
0 0.0289585 0
0 -0.00121367 0
0 -0.0306496 0
0 -0.041494 0
0 -0.0271686 0
0 0.00363689 0
0 0.0296916 0
-0.132192 0.0150613 -0.141397
-0.32853 0.0108764 -0.102351
-0.320575 -0.000456173 0.00429336
-0.118103 -0.0115184 0.108405
0.156013 -0.015594 0.146761
0.33549 -0.0102103 0.0960927
0.311419 0.00136174 -0.0128077
0.0948503 0.0116811 -0.109663
-0.184198 -0.0172971 -0.197024
-0.457784 -0.0124593 -0.142618
-0.446699 0.000522541 0.00598237
-0.164564 0.0131945 0.151054
0.217392 0.0178628 0.204497
0.467484 0.0116959 0.133898
0.433941 -0.00156018 -0.0178465
0.132166 -0.013415 -0.152805
-0.124472 -0.0391633 -0.133139
-0.309345 -0.0282108 -0.0963739
-0.301858 0.00118316 0.00404263
-0.111205 0.0298754 0.102074
0.146902 0.0404452 0.13819
0.315898 0.0264822 0.0904812
0.293234 -0.00353257 -0.0120597
0.0893111 -0.0303737 -0.103258
0.010757 -0.0372736 0.011506
0.0267341 -0.0268495 0.00832875
0.0260868 0.00112607 -0.000349365
0.00961045 0.0284337 -0.00882139
-0.0126955 0.038494 -0.0119424
-0.0273005 0.0252044 -0.00781954
-0.0253417 -0.00336212 0.00104222
-0.00771835 -0.0289081 0.00892369
0.139461 -0.0127742 0.149172
0.346591 -0.00920182 0.10798
0.338202 0.000385923 -0.00452943
0.124596 0.00974475 -0.114366
-0.164591 0.0131926 -0.15483
-0.353935 0.00863799 -0.101377
-0.328543 -0.00115226 0.013512
-0.100066 -0.00990726 0.115693
0.18357 0.0194738 0.196352
0.456088 0.0140165 0.142089
0.445043 -0.000587839 -0.00596011
0.163954 -0.0148432 -0.150491
-0.216586 -0.0200948 -0.203737
-0.465751 -0.0131575 -0.1334
-0.432331 0.00175534 0.017781
-0.131715 0.0151032 0.152284
0.116328 0.0399093 0.124428
0.27842 0.0278051 0.0866898
0.271627 -0.00116533 -0.00363324
0.100068 -0.0294289 -0.0917524
-0.13219 -0.0398413 -0.124216
-0.284264 -0.0260865 -0.0813315
-0.263907 0.00349203 0.0108873
-0.0834674 0.0309523 0.0965021
0 0.339335 0
0 0.236417 0
0 -0.00990844 0
0 -0.250224 0
0 -0.338757 0
0 -0.221804 0
0 0.0296916 0
0 0.263177 0
-0.0837696 0.133499 0.231978
-0.200495 0.0930097 0.161621
-0.195603 -0.00389811 -0.00677367
-0.0720608 -0.0984414 -0.171059
0.0951926 -0.133271 -0.231583
0.204703 -0.0872608 -0.151631
0.190044 0.0116811 0.0202979
0.0601064 0.103537 0.179915
-0.116726 -0.153316 0.323242
-0.279373 -0.106816 0.225205
-0.272556 0.00447676 -0.00943852
-0.10041 0.113054 -0.238357
0.132643 0.153055 -0.322691
0.285237 0.100214 -0.211285
0.26481 -0.013415 0.0282834
0.083753 -0.118907 0.250695
-0.0788775 -0.347132 0.218431
-0.188786 -0.241849 0.152182
-0.18418 0.0101361 -0.00637809
-0.0678525 0.255973 -0.16107
0.0896335 0.34654 -0.218059
0.192749 0.2269 -0.142776
0.178946 -0.0303737 0.0191125
0.0565962 -0.269223 0.169408
0.00681667 -0.330382 -0.018877
0.0163151 -0.230179 -0.0131518
0.015917 0.009647 0.000551201
0.00586388 0.243622 0.0139198
-0.00774621 0.329819 0.0188448
-0.0166576 0.215952 0.0123389
-0.0154647 -0.0289081 -0.00165172
-0.0048911 -0.256233 -0.0146404
0.0883759 -0.113227 -0.244735
0.21152 -0.078886 -0.170508
0.206359 0.00330617 0.00714614
0.0760233 0.0834928 0.180466
-0.100427 0.113034 0.244317
-0.21596 0.0740101 0.159969
-0.200494 -0.00990726 -0.0214141
-0.0634115 -0.0878149 -0.189808
0.116328 0.17261 -0.32214
0.27842 0.120259 -0.224437
0.271627 -0.00504014 0.00940633
0.100068 -0.127282 0.237544
-0.13219 -0.172316 0.32159
-0.284264 -0.112825 0.210564
-0.263907 0.0151032 -0.0281869
-0.0834674 0.13387 -0.24984
0.0737164 0.353744 -0.204139
0.176434 0.246456 -0.142225
0.172129 -0.0103292 0.00596076
0.0634128 -0.260849 0.150531
-0.0837686 -0.353141 0.203791
-0.180137 -0.231223 0.133434
-0.167237 0.0309523 -0.017862
-0.052893 0.274352 -0.158323
