# vtk DataFile Version 3.0
Velocity field
ASCII
DATASET STRUCTURED_POINTS
DIMENSIONS 10 10 10
SPACING 0.631579 0.631579 0.631579
ORIGIN 0 0 0
POINT_DATA 1000
VECTORS velocity float
0 0.0797525 0
0 0.0643679 0
0 0.0241497 0
0 -0.0253856 0
0 -0.0651269 0
0 -0.0797419 0
0 -0.0635918 0
0 -0.0229075 0
0 0.0266146 0
0 0.0658687 0
0 0.0489834 0.062472
0 0.0395343 0.0523979
0 0.0148326 0.0196588
0 -0.0155916 -0.0206648
0 -0.0400005 -0.0530158
0 -0.0489769 -0.0649129
0 -0.0390576 -0.0517661
0 -0.0140696 -0.0186476
0 0.0163465 0.0216653
0 0.040456 0.0515965
0 -0.00068387 0.100842
0 -0.000551949 0.0845803
0 -0.000207082 0.0317331
0 0.000217679 -0.033357
0 0.000558457 -0.0855777
0 0.000683779 -0.104782
0 0.000545293 -0.0835605
0 0.00019643 -0.0301008
0 -0.000228218 0.034972
0 -0.000564818 0.0832867
0 -0.0500873 0.100306
0 -0.0404252 0.084131
0 -0.0151669 0.0315645
0 0.015943 -0.0331798
0 0.0409019 -0.0851231
0 0.0500806 -0.104225
0 0.0399378 -0.0831166
0 0.0143867 -0.0299409
0 -0.0167149 0.0347862
0 -0.0413678 0.0828442
0 -0.0801666 0.0610716
0 -0.0647022 0.0512233
0 -0.0242752 0.0192181
0 0.0255174 -0.0202016
0 0.0654652 -0.0518274
0 0.080156 -0.0634578
0 0.063922 -0.0506057
0 0.0230265 -0.0182296
0 -0.0267529 0.0211797
0 -0.0662107 0.0504399
0 -0.0793171 -0.00172482
0 -0.0640165 -0.00144668
0 -0.0240179 -0.000542771
0 0.025247 0.000570546
0 0.0647714 0.00146374
0 0.0793066 0.00179221
0 0.0632446 0.00142924
0 0.0227825 0.000514852
0 -0.0264694 -0.00059817
0 -0.0655091 -0.00142456
0 -0.0478665 -0.0638558
0 -0.0386328 -0.0535585
0 -0.0144944 -0.0200943
0 0.0152361 0.0211226
0 0.0390884 0.0541901
0 0.0478601 0.0663507
0 0.038167 0.0529128
0 0.0137488 0.0190606
0 -0.0159738 -0.0221452
0 -0.0395336 -0.0527394
0 0.00205145 -0.101351
0 0.00165572 -0.0850072
0 0.000621196 -0.0318932
0 -0.000652985 0.0335253
0 -0.00167524 0.0860096
0 -0.00205117 0.105311
0 -0.00163575 0.0839821
0 -0.000589243 0.0302527
0 0.0006846 -0.0351485
0 0.00169432 -0.083707
0 0.0511778 -0.0997438
0 0.0413054 -0.0836593
0 0.0154971 -0.0313876
0 -0.0162901 0.0329938
0 -0.0417925 0.0846459
0 -0.051171 0.103641
0 -0.0408074 0.0826506
0 -0.0146999 0.029773
0 0.0170788 -0.0345912
0 0.0422685 -0.0823798
0 0.0805595 -0.0596549
0 0.0650193 -0.0481473
0 0.0243941 -0.018064
0 -0.0256424 0.0189884
0 -0.065786 0.048715
0 -0.0805488 0.059647
0 -0.0642353 0.0475667
0 -0.0231393 0.0171349
0 0.026884 -0.0199078
0 0.0665352 -0.0492698
0 0.0643679 0
0 0.0546536 0
0 0.0205051 0
0 -0.0215544 0
0 -0.0552981 0
0 -0.0677073 0
0 -0.0539946 0
0 -0.0194503 0
0 0.022598 0
0 0.0531623 0
0.00908334 0.0395343 0.0691389
0.0239007 0.0321278 0.0561743
0.0294379 0.0120542 0.0210762
0.0236176 -0.012671 -0.0221548
0.00868537 -0.0325077 -0.0568383
-0.00959768 -0.0398025 -0.0695933
-0.0241779 -0.0317413 -0.0554985
-0.0294301 -0.0114341 -0.0199922
-0.0233278 0.0132837 0.0232261
-0.00817223 0.0326519 0.0571028
0.0146623 -0.000551949 0.111604
0.0385803 -0.000448316 0.0906761
0.0475185 -0.000168205 0.0340211
0.0381232 0.000176813 -0.0357621
0.0140198 0.000453616 -0.0917481
-0.0154925 0.00055541 -0.112337
-0.0390278 0.000442923 -0.0895853
-0.0475059 0.000159553 -0.0322712
-0.0376554 -0.000185363 0.0374914
-0.0131916 -0.000455862 0.0921749
0.0145844 -0.0404252 0.111011
0.0383753 -0.0328386 0.0901944
0.0472661 -0.0123208 0.0338404
0.0379207 0.0129513 -0.0355721
0.0139454 0.0332268 -0.0912607
-0.0154102 0.040683 -0.11174
-0.0388204 0.0324436 -0.0891095
-0.0472535 0.0116871 -0.0320997
-0.0374553 -0.0135776 0.0372923
-0.0131215 -0.0333878 0.0916853
0.00887972 -0.0647022 0.0675891
0.023365 -0.0525595 0.054915
0.028778 -0.01972 0.0206038
0.0230882 0.0207291 -0.0216582
0.00849066 0.0531808 -0.0555642
-0.00938252 0.0651149 -0.0680331
-0.0236359 0.0519272 -0.0542546
-0.0287703 0.0187055 -0.019544
-0.0228048 -0.0217315 0.0227055
-0.00798904 -0.0534384 0.0558227
-0.000250787 -0.0640165 -0.0019089
-0.000659886 -0.0520026 -0.00155095
-0.000812768 -0.019511 -0.000581905
-0.000652071 0.0205094 0.000611685
-0.000239799 0.0526172 0.00156928
0.000264988 0.0644248 0.00192144
0.00066754 0.0513768 0.00153229
0.000812552 0.0185074 0.000551974
0.000644069 -0.0215012 -0.000641263
0.000225632 -0.0528721 -0.00157658
-0.00928454 -0.0386328 -0.0706704
-0.02443 -0.0313825 -0.0574187
-0.03009 -0.0117745 -0.0215431
-0.0241407 0.0123771 0.0226455
-0.00887774 0.0317535 0.0580974
0.0098103 0.0388793 0.0711348
0.0247134 0.031005 0.0567279
0.030082 0.0111689 0.020435
0.0238445 -0.0129756 -0.0237406
0.00835325 -0.0319074 -0.0583677
-0.0147363 0.00165572 -0.112167
-0.038775 0.00134498 -0.0911338
-0.0477583 0.000504629 -0.0341928
-0.0383156 -0.000530451 0.0359426
-0.0140906 -0.00136088 0.0922111
0.0155707 -0.00166627 0.112904
0.0392248 -0.0013288 0.0900374
0.0477456 -0.00047867 0.032434
0.0378454 0.000556103 -0.0376807
0.0132581 0.00136748 -0.0926401
-0.0145026 0.0413054 -0.110388
-0.0381596 0.0335523 -0.0896876
-0.0470004 0.0125886 -0.0336502
-0.0377076 -0.0132328 0.0353722
-0.013867 -0.0339489 0.0907478
0.0153236 -0.0415673 0.111112
0.0386022 -0.0331487 0.0886087
0.0469879 -0.0119411 0.0319193
0.0372448 0.0138728 -0.0370827
0.0130479 0.0341147 -0.0911712
-0.00867375 0.0650193 -0.0660213
-0.0226748 0.0524768 -0.0532855
-0.0279278 0.0196884 -0.0199918
-0.022406 -0.0206959 0.0210149
-0.00823983 -0.0530956 0.0539139
0.00910536 -0.0650106 0.0660125
0.0229376 -0.051844 0.052643
0.0279204 -0.0186757 0.0189635
0.0221313 0.0216979 -0.0220323
0.00780373 0.0537003 -0.0545279
0 0.0241497 0
0 0.0205051 0
0 0.00769317 0
0 -0.00808685 0
0 -0.0207469 0
0 -0.0254026 0
0 -0.0202579 0
0 -0.00729744 0
0 0.00847839 0
0 0.0199456 0
0.0146623 0.0148326 0.0491315
0.0385803 0.0120542 0.0399122
0.0475185 0.00452265 0.0149748
0.0381232 -0.00475408 -0.0157411
0.0140198 -0.0121967 -0.040384
-0.0154925 -0.0149337 -0.0494463
-0.0390278 -0.0119092 -0.0394321
-0.0475059 -0.00429001 -0.0142045
-0.0376554 0.00498397 0.0165023
-0.0131916 0.0122504 0.0405784
0.0236677 -0.000207082 0.0793078
0.0622759 -0.000168205 0.0644259
0.0767038 -6.31095e-05 0.0241722
0.0615381 6.6339e-05 -0.0254091
0.0226307 0.000170193 -0.0651875
-0.0250079 0.000208387 -0.0798161
-0.0629982 0.000166182 -0.0636507
-0.0766834 5.98633e-05 -0.0229288
-0.0607832 -6.95471e-05 0.0266379
-0.0212937 -0.000171032 0.0655014
0.023542 -0.0151669 0.0788865
0.0619451 -0.0123208 0.0640836
0.0762963 -0.0046227 0.0240438
0.0612115 0.00485925 -0.0252741
0.0225105 0.0124664 -0.0648411
-0.024875 0.0152641 -0.079392
-0.0626635 0.0121726 -0.0633125
-0.076276 0.00438491 -0.022807
-0.0604604 -0.00509424 0.0264964
-0.0211806 -0.0125265 0.0651534
0.0143336 -0.0242752 0.0480302
0.0377154 -0.01972 0.0390175
0.0464533 -0.00739881 0.0146391
0.0372686 0.00777741 -0.0153882
0.0137056 0.0199531 -0.0394787
-0.0151453 0.0244306 -0.0483379
-0.0381528 0.0194827 -0.038548
-0.046441 0.00701821 -0.013886
-0.0368114 -0.00815352 0.0161324
-0.0128959 -0.0200492 0.0396688
-0.000404819 -0.0240179 -0.0013565
-0.00106518 -0.019511 -0.00110196
-0.00131196 -0.0073204 -0.000413448
-0.00105257 0.00769498 0.000434604
-0.000387081 0.0197417 0.00111498
0.000427742 0.0241718 0.00136519
0.00107754 0.0192763 0.0010887
0.00131161 0.00694383 0.000392179
0.00103965 -0.00806712 -0.000455621
0.000364213 -0.0198367 -0.00112035
-0.014987 -0.0144944 -0.0502198
-0.039435 -0.0117745 -0.0407961
-0.0485708 -0.00441773 -0.0153065
-0.0389677 0.00464379 0.0160897
-0.0143304 0.0119137 0.0412785
0.0158356 0.0145872 0.0505415
0.0398923 0.0116329 0.0403056
0.0485579 0.0041905 0.0145191
0.0384895 -0.00486837 -0.0168679
0.0134838 -0.0119711 -0.0414773
-0.0237872 0.000621196 -0.079708
-0.0625902 0.000504629 -0.064751
-0.0770909 0.000189333 -0.0242941
-0.0618487 -0.000199022 0.0255373
-0.022745 -0.000510594 0.0655165
0.025134 -0.000625175 0.0802189
0.0633161 -0.000498557 0.063972
0.0770704 -0.000179595 0.0230445
0.06109 0.000208647 -0.0267723
0.0214012 0.000513054 -0.0658319
-0.02341 0.0154971 -0.0784442
-0.0615969 0.0125886 -0.0637234
-0.0758675 0.00472317 -0.0239086
-0.0608674 -0.00496488 0.0251321
-0.022384 -0.0127374 0.0644767
0.0247352 -0.0155958 0.0789459
0.0623114 -0.0124372 0.0629568
0.0758474 -0.00448022 0.0226788
0.0601206 0.00520497 -0.0263475
0.0210619 0.0127993 -0.0647882
-0.0140011 0.0243941 -0.0469161
-0.0366016 0.0196884 -0.0378658
-0.0450809 0.00738676 -0.0142066
-0.0361677 -0.00776476 0.0149336
-0.0133007 -0.0199206 0.0383123
0.0146978 -0.0243909 0.0469098
0.0370258 -0.019451 0.0374092
0.0450689 -0.00700679 0.0134758
0.0357241 0.0081407 -0.0156566
0.0125967 0.0201474 -0.0387486
0 -0.0253856 0
0 -0.0215544 0
0 -0.00808685 0
0 0.00850068 0
0 0.0218086 0
0 0.0267026 0
0 0.0212945 0
0 0.00767087 0
0 -0.00891225 0
0 -0.0209663 0
0.0145844 -0.0155916 0.0101689
0.0383753 -0.012671 0.0082607
0.0472661 -0.00475408 0.00309935
0.0379207 0.00499738 -0.00325796
0.0139454 0.0128208 -0.00835836
-0.0154102 0.0156979 -0.010234
-0.0388204 0.0125186 -0.00816132
-0.0472535 0.00450954 -0.00293993
-0.0374553 -0.00523902 0.00341552
-0.0131215 -0.0128773 0.0083986
0.023542 0.000217679 0.0164145
0.0619451 0.000176813 0.0133343
0.0762963 6.6339e-05 0.00500297
0.0612115 -6.97338e-05 -0.00525896
0.0225105 -0.000178903 -0.013492
-0.024875 -0.00021905 -0.0165197
-0.0626635 -0.000174686 -0.013174
-0.076276 -6.29267e-05 -0.00474561
-0.0604604 7.31061e-05 0.00551329
-0.0211806 0.000179784 0.013557
0.0234169 0.015943 0.0163273
0.061616 0.0129513 0.0132635
0.075891 0.00485925 0.00497639
0.0608864 -0.00510792 -0.00523105
0.0223909 -0.0131044 -0.0134203
-0.0247429 -0.0160451 -0.0164319
-0.0623307 -0.0127955 -0.013104
-0.0758708 -0.0046093 -0.0047204
-0.0601392 0.00535492 0.005484
-0.0210681 0.0131675 0.0134849
0.0142574 0.0255174 0.00994091
0.037515 0.0207291 0.00807552
0.0462066 0.00777741 0.00302987
0.0370707 -0.00817543 -0.00318493
0.0136328 -0.0209741 -0.00817098
-0.0150648 -0.0256808 -0.0100046
-0.0379502 -0.0204797 -0.00797836
-0.0461943 -0.00737737 -0.00287403
-0.0366158 0.00857076 0.00333895
-0.0128273 0.0210752 0.00821034
-0.000402668 0.025247 -0.000280758
-0.00105953 0.0205094 -0.000228074
-0.001305 0.00769498 -8.55717e-05
-0.00104698 -0.00808879 8.99511e-05
-0.000385025 -0.0207519 0.00023077
0.00042547 -0.0254087 0.000282556
0.00107181 -0.0202627 0.00022533
0.00130465 -0.00729919 8.11703e-05
0.00103413 0.00847994 -9.43009e-05
0.000362278 0.0208518 -0.000231882
-0.0149074 0.0152361 -0.0103941
-0.0392254 0.0123771 -0.00844368
-0.048313 0.00464379 -0.00316801
-0.0387607 -0.00488144 0.00333014
-0.0142543 -0.0125234 0.00854347
0.0157515 -0.0153337 0.0104607
0.0396804 -0.0122282 0.00834211
0.0483002 -0.00440493 0.00300506
0.038285 0.0051175 -0.00349116
0.0134121 0.0125837 -0.00858464
-0.0236608 -0.000652985 -0.0164973
-0.0622577 -0.000530451 -0.0134016
-0.0766814 -0.000199022 -0.00502822
-0.0615201 0.000209207 0.00528551
-0.0226241 0.000536722 0.0135601
0.0250006 0.000657165 0.016603
0.0629798 0.000524072 0.0132404
0.076661 0.000188785 0.00476955
0.0607655 -0.000219323 -0.00554111
0.0212875 -0.000539309 -0.0136254
-0.0232856 -0.0162901 -0.0162358
-0.0612697 -0.0132328 -0.013189
-0.0754645 -0.00496488 -0.00494843
-0.0605441 0.00521895 0.00520165
-0.0222651 0.0133893 0.0133449
0.0246038 0.0163939 0.0163396
0.0619803 0.0130737 0.0130303
0.0754445 0.00470948 0.00469387
0.0598012 -0.00547132 -0.00545318
0.02095 -0.0134542 -0.0134093
-0.0139267 -0.0256424 -0.00971032
-0.0364071 -0.0206959 -0.00783716
-0.0448414 -0.00776476 -0.00294037
-0.0359755 0.00816211 0.00309084
-0.01323 0.02094 0.00792958
0.0146197 0.025639 0.00970903
0.0368291 0.0204464 0.00774266
0.0448295 0.00736535 0.00278912
0.0355344 -0.00855729 -0.00324049
0.0125298 -0.0211785 -0.00801989
0 -0.0651269 0
0 -0.0552981 0
0 -0.0207469 0
0 0.0218086 0
0 0.0559502 0
0 0.0685058 0
0 0.0546313 0
0 0.0196797 0
0 -0.0228645 0
0 -0.0537892 0
0.00887972 -0.0400005 -0.032717
0.023365 -0.0325077 -0.0265778
0.028778 -0.0121967 -0.00997182
0.0230882 0.0128208 0.0104821
0.00849066 0.032892 0.0268919
-0.00938252 0.0402732 0.0329267
-0.0236359 0.0321166 0.0262581
-0.0287703 0.0115693 0.00945885
-0.0228048 -0.0134408 -0.010989
-0.00798904 -0.0330369 -0.0270215
0.0143336 0.000558457 -0.0528116
0.0377154 0.000453616 -0.0429015
0.0464533 0.000170193 -0.0160964
0.0372686 -0.000178903 0.0169201
0.0137056 -0.000458978 0.0434087
-0.0151453 -0.000561975 0.0531501
-0.0381528 -0.000448158 0.0423854
-0.046441 -0.000161439 0.0152685
-0.0368114 0.000187555 -0.0177383
-0.0128959 0.000461237 -0.0436178
0.0142574 0.0409019 -0.0525311
0.037515 0.0332268 -0.0426736
0.0462066 0.0124664 -0.0160109
0.0370707 -0.0131044 0.0168303
0.0136328 -0.0336196 0.0431781
-0.0150648 -0.041164 0.0528677
-0.0379502 -0.0328271 0.0421602
-0.0461943 -0.0118252 0.0151874
-0.0366158 0.0137381 -0.0176441
-0.0128273 0.0337815 -0.0433861
0.00868067 0.0654652 -0.0319836
0.0228412 0.0531808 -0.025982
0.0281329 0.0199531 -0.00974827
0.0225706 -0.0209741 0.0102471
0.00830036 -0.0538094 0.0262891
-0.00917222 -0.0658846 0.0321885
-0.0231061 -0.052541 0.0256694
-0.0281254 -0.0189267 0.00924684
-0.0222936 0.0219884 -0.0107426
-0.00780996 0.0540686 -0.0264157
-0.000245165 0.0647714 0.000903303
-0.000645096 0.0526173 0.000733799
-0.000794547 0.0197417 0.000275317
-0.000637453 -0.0207519 -0.000289406
-0.000234424 -0.0532393 -0.000742475
0.000259048 -0.0651864 -0.00090909
0.000652578 -0.0519842 -0.000724974
0.000794336 -0.0187261 -0.000261156
0.000629633 0.0217554 0.000303401
0.000220574 0.0534956 0.000746051
-0.00907642 0.0390884 0.0334417
-0.0238825 0.0317535 0.0271665
-0.0294155 0.0119137 0.0101927
-0.0235996 -0.0125234 -0.0107143
-0.00867875 -0.0321288 -0.0274875
0.00959036 -0.0393389 -0.0336561
0.0241595 -0.0313715 -0.0268397
0.0294077 -0.0113009 -0.00966838
0.02331 0.013129 0.0112324
0.008166 0.0322836 0.02762
-0.0144059 -0.00167524 0.0530781
-0.0379057 -0.00136088 0.043118
-0.0466878 -0.000510594 0.0161776
-0.0374566 0.000536722 -0.0170055
-0.0137747 0.00137696 -0.0436277
0.0152217 0.00168597 -0.0534182
0.0383454 0.00134451 -0.0425993
0.0466754 0.000484328 -0.0153454
0.0369971 -0.000562677 0.0178278
0.0129609 -0.0013836 0.043838
-0.0141775 -0.0417925 0.0522366
-0.0373042 -0.0339489 0.0424338
-0.0459469 -0.0127374 0.0159209
-0.0368623 0.0133893 -0.0167357
-0.0135562 0.0343502 -0.0429354
0.0149801 0.0420586 -0.0525706
0.0377369 0.0335406 -0.0419233
0.0459347 0.0120822 -0.015102
0.03641 -0.0140367 0.0175449
0.0127554 -0.034517 0.0431429
-0.00847931 -0.065786 0.0312417
-0.0221666 -0.0530956 0.0252151
-0.0273018 -0.0199206 0.00946028
-0.0219038 0.02094 -0.00994439
-0.00805513 0.0537217 -0.0255124
0.00890125 0.0657772 -0.0312376
0.0224234 0.0524554 -0.0249111
0.0272945 0.0188959 -0.00897365
0.0216352 -0.0219538 0.0104259
0.00762879 -0.0543336 0.025803
0 -0.0797419 0
0 -0.0677073 0
0 -0.0254026 0
0 0.0267026 0
0 0.0685058 0
0 0.0838789 0
0 0.0668909 0
0 0.024096 0
0 -0.0279954 0
0 -0.0658599 0
-0.000250787 -0.0489769 -0.0629805
-0.000659886 -0.0398025 -0.0511622
-0.000812768 -0.0149337 -0.0191957
-0.000652072 0.0156979 0.0201781
-0.000239799 0.0402732 0.0517671
0.000264988 0.0493106 0.0633838
0.00066754 0.0393238 0.0505467
0.000812552 0.0141655 0.0182084
0.000644069 -0.016457 -0.0211538
0.000225632 -0.0404506 -0.0520164
-0.000404819 0.000683779 -0.101663
-0.00106518 0.00055541 -0.0825857
-0.00131196 0.000208387 -0.0309856
-0.00105257 -0.00021905 0.0325713
-0.000387081 -0.000561975 0.0835622
0.000427742 -0.000688084 0.102314
0.00107754 -0.000548728 0.0815923
0.00131161 -0.000197667 0.0293918
0.00103965 0.000229643 -0.0341463
0.000364213 0.000564742 -0.0839646
-0.000402668 0.0500806 -0.101123
-0.00105953 0.040683 -0.082147
-0.001305 0.0152641 -0.0308209
-0.00104698 -0.0160451 0.0323983
-0.000385025 -0.041164 0.0831182
0.00042547 -0.0504013 0.10177
0.00107181 -0.0401938 0.0811588
0.00130465 -0.0144789 0.0292357
0.00103413 0.0168211 -0.0339649
0.000362278 0.0413623 -0.0835185
-0.000245165 0.080156 -0.0615687
-0.000645096 0.0651149 -0.0500153
-0.000794547 0.0244306 -0.0187654
-0.000637453 -0.0256808 0.0197258
-0.000234424 -0.0658846 0.0506065
0.000259048 -0.0806697 0.0619629
0.000652578 -0.0643314 0.0494137
0.000794336 -0.023174 0.0178002
0.000629633 0.0269228 -0.0206797
0.000220574 0.0662019 -0.0508504
6.92412e-06 0.0793066 0.00173886
1.82192e-05 0.0644248 0.00141257
2.24402e-05 0.0241718 0.000529987
1.80034e-05 -0.0254087 -0.000557107
6.62077e-06 -0.0651864 -0.00142927
-7.31621e-06 -0.0798148 -0.00175
-1.84305e-05 -0.0636497 -0.00139557
-2.24342e-05 -0.0229284 -0.000502724
-1.77824e-05 0.0266375 0.000584047
-6.2296e-06 0.0655004 0.00143615
0.000256342 0.0478601 0.0643755
0.000674504 0.0388793 0.0522956
0.000830773 0.0145872 0.019621
0.000666513 -0.0153337 -0.020625
0.000245111 -0.0393389 -0.0529138
-0.000270858 -0.0481668 -0.0647879
-0.000682325 -0.0384115 -0.0516664
-0.000830552 -0.0138369 -0.0186116
-0.000658334 0.0160752 0.0216224
-0.00023063 0.0395283 0.0531686
0.000406862 -0.00205117 0.102176
0.00107056 -0.00166627 0.0830026
0.00131858 -0.000625175 0.0311419
0.00105788 0.000657165 -0.0327357
0.000389035 0.00168597 -0.0839835
-0.000429899 0.00206431 -0.10283
-0.00108298 0.00164623 -0.0820041
-0.00131823 0.000593015 -0.0295402
-0.0010449 -0.000688945 0.0343187
-0.000366051 -0.00169409 0.0843883
0.000400411 -0.051171 0.100556
0.00105357 -0.0415673 0.0816854
0.00129766 -0.0155958 0.0306478
0.00104109 0.0163939 -0.0322162
0.000382861 0.0420586 -0.082651
-0.000423078 0.051497 -0.101198
-0.00106579 0.0410673 -0.0807028
-0.00129731 0.0147936 -0.0290714
-0.00102832 -0.0171867 0.0337741
-0.000360247 -0.0422628 0.0830503
0.000239478 -0.0805488 0.0601405
0.000626043 -0.0650106 0.0485392
0.000771075 -0.0243909 0.0182111
0.000618621 0.025639 -0.019143
0.000227498 0.0657772 -0.0491116
-0.000251395 0.0805381 -0.0601325
-0.000633298 0.0642267 -0.0479539
-0.00077087 0.0231362 -0.0172743
-0.000611035 -0.0268804 0.0200698
-0.000215457 -0.0665264 0.0496709
0 -0.0635918 0
0 -0.0539946 0
0 -0.0202579 0
0 0.0212945 0
0 0.0546313 0
0 0.0668909 0
0 0.0533435 0
0 0.0192158 0
0 -0.0223255 0
0 -0.0525213 0
-0.00928454 -0.0390576 -0.0689456
-0.02443 -0.0317413 -0.0560079
-0.03009 -0.0119092 -0.0210138
-0.0241407 0.0125186 0.0220892
-0.00887774 0.0321166 0.05667
0.0098103 0.0393238 0.0693872
0.0247134 0.0313595 0.0553341
0.030082 0.0112966 0.019933
0.0238445 -0.0131239 -0.0231574
0.00835325 -0.0322582 -0.0569431
-0.014987 0.000545293 -0.111291
-0.039435 0.000442923 -0.0904078
-0.0485708 0.000166182 -0.0339204
-0.0389677 -0.000174686 0.0356562
-0.0143304 -0.000448158 0.0914765
0.0158356 -0.000548728 0.112004
0.0398923 -0.000437594 0.08932
0.0485579 -0.000157634 0.0321756
0.0384895 0.000183134 -0.0373804
0.0134838 0.000450365 -0.0919171
-0.0149074 0.0399378 -0.1107
-0.0392254 0.0324436 -0.0899275
-0.048313 0.0121726 -0.0337403
-0.0387607 -0.0127955 0.0354668
-0.0142543 -0.0328271 0.0909906
0.0157515 -0.0401938 0.111409
0.0396804 -0.0320532 0.0888456
0.0483002 -0.0115465 0.0320046
0.038285 0.0134143 -0.0371819
0.0134121 0.0329852 -0.0914289
-0.00907642 0.063922 -0.0674
-0.0238825 0.0519272 -0.0547526
-0.0294155 0.0194827 -0.0205428
-0.0235996 -0.0204797 0.021594
-0.00867875 -0.052541 0.0553996
0.00959036 -0.0643314 0.0678318
0.0241595 -0.0513024 0.054094
0.0294077 -0.0184806 0.0194861
0.02331 0.0214701 -0.0226383
0.008166 0.0527941 -0.0556666
0.000256342 0.0632446 0.00190356
0.000674504 0.0513768 0.00154635
0.000830773 0.0192763 0.000580183
0.000666513 -0.0202627 -0.000609874
0.000245111 -0.0519842 -0.00156463
-0.000270858 -0.0636497 -0.00191575
-0.000682325 -0.0507587 -0.00152775
-0.000830552 -0.0182847 -0.00055034
-0.000658334 0.0212425 0.000639366
-0.00023063 0.0522346 0.00157217
0.0094902 0.038167 0.0704728
0.0249712 0.031005 0.0572486
0.0307564 0.0116329 0.0214793
0.0246754 -0.0122282 -0.0225785
0.00907441 -0.0313715 -0.0579253
-0.0100276 -0.0384115 -0.0709241
-0.0252608 -0.0306321 -0.0565599
-0.0307482 -0.0110345 -0.0203745
-0.0243726 0.0128195 0.0236704
-0.00853828 0.0315227 0.0582044
0.0150627 -0.00163575 0.111853
0.039634 -0.0013288 0.0908641
0.048816 -0.000498557 0.0340915
0.0391644 0.000524072 -0.0358361
0.0144027 0.00134451 -0.0919382
-0.0159156 0.00164623 -0.112569
-0.0400937 0.00131281 -0.0897708
-0.048803 0.000472914 -0.032338
-0.0386838 -0.000549414 0.0375691
-0.0135518 -0.00135099 0.092381
0.0148238 -0.0408074 0.11008
0.039005 -0.0331487 0.0894221
0.0480415 -0.0124372 0.0335506
0.0385429 0.0130737 -0.0352675
0.0141741 0.0335406 -0.0904792
-0.015663 0.0410673 -0.110783
-0.0394574 0.03275 -0.0883463
-0.0480287 0.0117974 -0.0318248
-0.0380699 -0.0137059 0.036973
-0.0133369 -0.0337034 0.0909163
0.00886588 -0.0642353 0.0658366
0.0231771 -0.051844 0.0531365
0.0285464 -0.019451 0.0199359
0.0229023 0.0204464 -0.0209561
0.00842235 0.0524554 -0.0537631
-0.00930705 0.0642267 -0.0658279
-0.0234457 0.0512189 -0.0524958
-0.0285389 0.0184505 -0.0189104
-0.0226215 -0.0214363 0.0219707
-0.00797658 -0.0530528 0.0543754
0 -0.0229075 0
0 -0.0194503 0
0 -0.00729744 0
0 0.00767087 0
0 0.0196797 0
0 0.024096 0
0 0.0192158 0
0 0.00692207 0
0 -0.00804227 0
0 -0.0189196 0
-0.0147363 -0.0140696 -0.0483109
-0.038775 -0.0114341 -0.0392455
-0.0477583 -0.00429001 -0.0147247
-0.0383156 0.00450954 0.0154781
-0.0140906 0.0115693 0.0397094
0.0155707 0.0141655 0.0486203
0.0392248 0.0112966 0.0387733
0.0477456 0.00406935 0.0139672
0.0378454 -0.0047276 -0.0162266
0.0132581 -0.0116203 -0.0399007
-0.0237872 0.00019643 -0.0779831
-0.0625902 0.000159553 -0.0633496
-0.0770909 5.98633e-05 -0.0237685
-0.0618487 -6.29267e-05 0.0249847
-0.022745 -0.000161439 0.0640985
0.025134 -0.000197667 0.0784828
0.0633161 -0.000157634 0.0625875
0.0770704 -5.6784e-05 0.0225458
0.06109 6.59698e-05 -0.0261929
0.0214012 0.000162234 -0.0644074
-0.0236608 0.0143867 -0.0775689
-0.0622577 0.0116871 -0.0630131
-0.0766814 0.00438491 -0.0236422
-0.0615201 -0.0046093 0.024852
-0.0226241 -0.0118252 0.063758
0.0250006 -0.0144789 0.0780659
0.0629798 -0.0115465 0.062255
0.076661 -0.00415936 0.022426
0.0607655 0.0048322 -0.0260538
0.0212875 0.0118822 -0.0640652
-0.0144059 0.0230265 -0.047228
-0.0379057 0.0187055 -0.0383657
-0.0466878 0.00701821 -0.0143946
-0.0374566 -0.00737737 0.0151312
-0.0137747 -0.0189267 0.0388192
0.0152217 -0.023174 0.0475306
0.0383454 -0.0184806 0.0379041
0.0466754 -0.00665723 0.0136542
0.0369971 0.00773411 -0.0158629
0.0129609 0.0190179 -0.0390062
0.000406862 0.0227825 0.00133384
0.00107056 0.0185074 0.00108355
0.00131858 0.00694383 0.000406541
0.00105788 -0.00729919 -0.000427346
0.000389035 -0.0187261 -0.00109636
-0.000429899 -0.0229284 -0.00134239
-0.00108298 -0.0182847 -0.00107051
-0.00131823 -0.00658668 -0.000385628
-0.0010449 0.00765217 0.000448011
-0.000366051 0.0188163 0.00110164
0.0150627 0.0137488 0.0493811
0.039634 0.0111689 0.0401148
0.048816 0.0041905 0.0150508
0.0391644 -0.00440493 -0.015821
0.0144027 -0.0113009 -0.0405889
-0.0159156 -0.0138369 -0.0496973
-0.0400937 -0.0110345 -0.0396323
-0.048803 -0.00397493 -0.0142766
-0.0386838 0.00461795 0.0165861
-0.0135518 0.0113553 0.0407845
0.0239072 -0.000589243 0.0783767
0.0629061 -0.00047867 0.0636694
0.07748 -0.000179595 0.0238884
0.0621608 0.000188785 -0.0251107
0.0228598 0.000484328 -0.064422
-0.0252609 0.000593015 -0.0788789
-0.0636357 0.000472914 -0.0629034
-0.0774594 0.000170356 -0.0226596
-0.061398 -0.000197914 0.0263251
-0.0215092 -0.000486664 0.0647324
0.0235281 -0.0146999 0.077134
0.0619078 -0.0119411 0.062659
0.0762504 -0.00448022 0.0235093
0.0611746 0.00470948 -0.0247123
0.022497 0.0120822 -0.0633997
-0.0248601 0.0147936 -0.0776271
-0.0626258 0.0117974 -0.0619052
-0.0762301 0.00424976 -0.0223
-0.060424 -0.00493723 0.0259074
-0.0211681 -0.0121409 0.0637061
0.0140718 -0.0231393 0.0461325
0.0367863 -0.0186757 0.0372333
0.0453084 -0.00700679 0.0139693
0.0363502 0.00736535 -0.0146842
0.0133678 0.0188959 -0.0376724
-0.014772 0.0231362 -0.0461263
-0.0372126 0.0184505 -0.0367844
-0.0452963 0.00664637 -0.0132508
-0.0359044 -0.00772195 0.0153951
-0.0126603 -0.0191111 0.0381014
0 0.0266146 0
0 0.022598 0
0 0.00847838 0
0 -0.00891225 0
0 -0.0228645 0
0 -0.0279954 0
0 -0.0223255 0
0 -0.00804227 0
0 0.00934375 0
0 0.0219814 0
-0.0145026 0.0163465 -0.00903763
-0.0381596 0.0132837 -0.00734237
-0.0470004 0.00498396 -0.0027548
-0.0377076 -0.00523901 0.00289578
-0.013867 -0.0134407 0.00742917
0.0153236 -0.0164569 0.00909631
0.0386022 -0.0131239 0.00725404
0.0469879 -0.00472759 0.00261311
0.0372448 0.00549234 -0.00303581
0.0130479 0.0135008 -0.0074643
-0.02341 -0.000228218 -0.0145885
-0.0615969 -0.000185363 -0.011852
-0.0758675 -6.9547e-05 -0.00444679
-0.0608674 7.31059e-05 0.00467434
-0.022384 0.000187554 0.0119921
0.0247352 0.000229643 0.0146832
0.0623114 0.000183133 0.0117094
0.0758474 6.59697e-05 0.00421806
0.0601206 -7.66413e-05 -0.00490039
0.0210619 -0.000188488 -0.0120488
-0.0232856 -0.0167149 -0.014511
-0.0612697 -0.0135776 -0.011789
-0.0754645 -0.00509423 -0.00442317
-0.0605441 0.00535491 0.00464951
-0.0222651 0.0137381 0.0119284
0.0246038 0.016821 0.0146052
0.0619803 0.0134143 0.0116472
0.0754445 0.00483219 0.00419565
0.0598012 -0.00561388 -0.00487435
0.02095 -0.0138051 -0.0119848
-0.0141775 -0.0267529 -0.00883503
-0.0373042 -0.0217315 -0.00717777
-0.0459469 -0.00815351 -0.00269305
-0.0368623 0.00857074 0.00283087
-0.0135562 0.0219883 0.00726262
0.0149801 0.0269227 0.00889239
0.0377369 0.02147 0.00709141
0.0459347 0.00773409 0.00255453
0.03641 -0.00898521 -0.00296776
0.0127554 -0.0220955 -0.00729698
0.000400411 -0.0264694 0.000249525
0.00105357 -0.0215012 0.00020272
0.00129766 -0.0080671 7.60591e-05
0.00104109 0.00847992 -7.99512e-05
0.000382861 0.0217553 -0.000205116
-0.000423078 0.0266374 -0.000251145
-0.00106579 0.0212425 -0.000200281
-0.00129731 0.00765215 -7.21467e-05
-0.00102832 -0.00889 8.38174e-05
-0.000360247 -0.0218614 0.000206086
0.0148238 -0.0159738 0.00923781
0.039005 -0.0129756 0.00750499
0.0480415 -0.00486836 0.00281583
0.0385429 0.00511749 -0.00295992
0.0141741 0.013129 -0.00759373
-0.015663 0.0160752 -0.00929778
-0.0394574 0.0128195 -0.00741473
-0.0480287 0.00461794 -0.00267098
-0.0380699 -0.00536496 0.00310305
-0.0133369 -0.013193 0.00762964
0.0235281 0.0006846 0.0146621
0.0619078 0.000556102 0.0119118
0.0762504 0.000208646 0.00446923
0.0611746 -0.000219323 -0.00469793
0.022497 -0.000562676 -0.0120526
-0.0248601 -0.000688944 -0.0147573
-0.0626258 -0.000549413 -0.0117685
-0.0762301 -0.000197914 -0.00423934
-0.060424 0.000229929 0.00492511
-0.0211681 0.00056542 0.0121096
0.0231551 0.0170788 0.0144296
0.0609253 0.0138727 0.0117228
0.0750404 0.00520496 0.00439831
0.0602039 -0.00547131 -0.00462338
0.02214 -0.0140367 -0.0118613
-0.0244656 -0.0171866 -0.0145231
-0.061632 -0.0137058 -0.0115818
-0.0750205 -0.00493722 -0.00417207
-0.0594652 0.00573589 0.00484696
-0.0208325 0.0141056 0.0119176
0.0138486 0.026884 0.00863009
0.036203 0.0216979 0.00696532
0.04459 0.0081407 0.00261327
0.0357738 -0.00855729 -0.002747
0.0131559 -0.0219538 -0.00704745
-0.0145378 -0.0268804 -0.00862895
-0.0366226 -0.0214363 -0.00688133
-0.0445782 -0.00772195 -0.00247884
-0.0353351 0.0089716 0.00288
-0.0124596 0.0222038 0.00712771
0 0.0658687 0
0 0.0531623 0
0 0.0199456 0
0 -0.0209663 0
0 -0.0537892 0
0 -0.0658599 0
0 -0.0525213 0
0 -0.0189196 0
0 0.0219814 0
0 0.0544018 0
-0.00867375 0.040456 0.0337225
-0.0226748 0.0326519 0.0272173
-0.0279278 0.0122504 0.0102115
-0.022406 -0.0128773 -0.010734
-0.00823983 -0.0330369 -0.0275383
0.00910535 -0.0404507 -0.033718
0.0229376 -0.0322582 -0.0268891
0.0279204 -0.0116203 -0.00968621
0.0221313 0.0135008 0.0112537
0.00780373 0.0334132 0.0278519
-0.0140011 -0.000564818 0.0544346
-0.0366016 -0.000455862 0.043934
-0.0450809 -0.000171032 0.0164833
-0.0361676 0.000179784 -0.0173268
-0.0133007 0.000461237 -0.0444521
0.0146978 0.000564742 -0.0544274
0.0370257 0.000450365 -0.0434043
0.0450689 0.000162234 -0.0156354
0.0357241 -0.000188488 0.0181657
0.0125967 -0.000466491 0.0449583
-0.0139267 -0.0413678 0.0541455
-0.0364071 -0.0333878 0.0437006
-0.0448414 -0.0125265 0.0163957
-0.0359755 0.0131675 -0.0172348
-0.01323 0.0337815 -0.0442159
0.0146197 0.0413623 -0.0541383
0.036829 0.0329852 -0.0431737
0.0448295 0.0118822 -0.0155524
0.0355343 -0.0138051 0.0180692
0.0125298 -0.0341662 0.0447195
-0.00847931 -0.0662107 0.0329666
-0.0221665 -0.0534384 0.0266072
-0.0273018 -0.0200492 0.00998257
-0.0219038 0.0210752 -0.0104934
-0.00805512 0.0540686 -0.026921
0.00890124 0.0662019 -0.0329622
0.0224234 0.0527941 -0.0262864
0.0272945 0.0190179 -0.00946908
0.0216352 -0.0220955 0.0110015
0.00762879 -0.0546843 0.0272276
0.000239478 -0.0655091 -0.000931064
0.000626042 -0.0528721 -0.000751459
0.000771075 -0.0198367 -0.000281934
0.000618621 0.0208518 0.000296362
0.000227498 0.0534956 0.00076032
-0.000251395 0.0655004 0.000930941
-0.000633298 0.0522346 0.000742398
-0.00077087 0.0188163 0.000267432
-0.000611035 -0.0218614 -0.000310711
-0.000215457 -0.0541049 -0.000768979
0.00886588 -0.0395336 -0.0344695
0.0231771 -0.0319074 -0.0278202
0.0285464 -0.0119711 -0.0104377
0.0229023 0.0125837 0.0109718
0.00842235 0.0322836 0.0281483
-0.00930704 0.0395283 0.0344649
-0.0234457 0.0315227 0.0274848
-0.0285388 0.0113553 0.00990077
-0.0226215 -0.013193 -0.011503
-0.00797658 -0.0326513 -0.0284688
0.0140718 0.00169432 -0.0547093
0.0367863 0.00136748 -0.0441557
0.0453084 0.000513055 -0.0165665
0.0363502 -0.000539309 0.0174142
0.0133678 -0.0013836 0.0446764
-0.014772 -0.00169409 0.0547021
-0.0372126 -0.00135099 0.0436233
-0.0452963 -0.000486664 0.0157143
-0.0359044 0.00056542 -0.0182574
-0.0126603 0.00139936 -0.0451852
0.0138486 0.0422685 -0.0538419
0.036203 0.0341147 -0.0434556
0.04459 0.0127993 -0.0163038
0.0357738 -0.0134542 0.0171381
0.0131558 -0.034517 0.043968
-0.0145378 -0.0422629 0.0538348
-0.0366226 -0.0337034 0.0429316
-0.0445781 -0.0121409 0.0154652
-0.0353351 0.0141056 -0.0179679
-0.0124596 0.0349101 -0.0444688
0.00828263 0.0665352 -0.0322019
0.0216524 0.0537003 -0.02599
0.0266685 0.0201474 -0.00975101
0.0213957 -0.0211785 0.01025
0.00786828 -0.0543336 0.0262965
-0.00869477 -0.0665264 0.0321976
-0.0219033 -0.0530528 0.0256766
-0.0266614 -0.0191111 0.00924943
-0.0211333 0.0222038 -0.0107463
-0.00745183 0.0549523 -0.026596
