# vtk DataFile Version 3.0
Velocity field
ASCII
DATASET STRUCTURED_POINTS
DIMENSIONS 5 5 5
SPACING 1.33333 1.33333 1.33333
ORIGIN 0 0 0
POINT_DATA 125
VECTORS velocity float
0 0.0408477 0
0 0.00960891 0
0 -0.0363269 0
0 -0.0266998 0
0 0.0237653 0
0 -0.0216299 0.0709402
0 -0.00508816 0.0192323
0 0.019236 -0.0727085
0 0.0141382 -0.0534398
0 -0.0125843 0.0412733
0 -0.051024 0.0333756
0 -0.0120028 0.0090483
0 0.045377 -0.0342075
0 0.0333515 -0.0251421
0 -0.029686 0.019418
0 -0.00237567 -0.0552378
0 -0.000558846 -0.0149753
0 0.00211274 0.0566147
0 0.00155284 0.0416111
0 -0.00138217 -0.0321376
0 0.0499063 -0.0593636
0 0.0117398 -0.0139646
0 -0.044383 0.0527936
0 -0.032621 0.0388027
0 0.0290357 -0.034538
0 0.00960891 0
0 0.00287621 0
0 -0.0108736 0
0 -0.00799198 0
0 0.00559049 0
0.0303622 -0.00508816 0.024913
0.044848 -0.00120185 0.00588867
-0.00939914 0.00454369 -0.0222627
-0.0492701 0.00333955 -0.0163628
-0.0137194 -0.00296031 0.0144945
0.0142846 -0.0120028 0.0117209
0.0210999 -0.00283618 0.00277048
-0.00442206 0.0107224 -0.010474
-0.0231804 0.00788084 -0.00769828
-0.00645463 -0.00698325 0.00681928
-0.0236416 -0.000558846 -0.0193986
-0.0349209 -0.000132058 -0.00458523
0.00731865 0.000499257 0.0173348
0.0383642 0.000366948 0.0127409
0.0106826 -0.000325139 -0.0112862
-0.0254074 0.0117398 -0.0208475
-0.037361 0.00276165 -0.00490411
0.00783001 -0.0104406 0.0185402
0.0410448 -0.00767367 0.0136268
0.0114806 0.00683028 -0.0121291
0 -0.0363269 0
0 -0.0108736 0
0 0.0411083 0
0 0.0302141 0
0 -0.0211351 0
0.0142846 0.019236 -0.0592193
0.0210999 0.00454369 -0.0139933
-0.00442206 -0.0171778 0.0529026
-0.0231804 -0.0126255 0.0388829
-0.00645463 0.0111916 -0.034454
0.00672057 0.045377 -0.0278612
0.00992695 0.0107224 -0.00658348
-0.00208047 -0.0405369 0.0248894
-0.0109058 -0.0297942 0.0182935
-0.00303674 0.0264005 -0.0162097
-0.0111228 0.00211274 0.0461113
-0.0164294 0.000499257 0.0108959
0.00344325 -0.00188748 -0.0411928
0.0180494 -0.00138728 -0.0302762
0.00502592 0.0012292 0.0268277
-0.0119536 -0.044383 0.0495554
-0.0175774 -0.0104406 0.0116573
0.00368383 0.039471 -0.0440709
0.0193106 0.0290107 -0.0323916
0.00540131 -0.0258222 0.0288315
0 -0.0266998 0
0 -0.00799199 0
0 0.0302141 0
0 0.022207 0
0 -0.015534 0
-0.0236416 0.0141382 -0.0527742
-0.0349209 0.00333955 -0.0124703
0.00731865 -0.0126255 0.0471452
0.0383642 -0.00927957 0.0346511
0.0106826 0.00822567 -0.0307042
-0.0111228 0.0333515 -0.0248289
-0.0164294 0.00788084 -0.00586698
0.00344325 -0.0297942 0.0221806
0.0180494 -0.0218984 0.0163025
0.00502592 0.019404 -0.0144456
0.0184086 0.00155284 0.0410928
0.0271913 0.000366948 0.00971003
-0.00569868 -0.00138728 -0.0367097
-0.0298724 -0.00101963 -0.0269811
-0.00831808 0.000903447 0.0239079
0.0197836 -0.032621 0.0441621
0.0290912 -0.00767367 0.0103886
-0.00609687 0.0290107 -0.0392745
-0.0319597 0.0213225 -0.0288663
-0.00893937 -0.018979 0.0256936
0 0.0237653 0
0 0.0055905 0
0 -0.0211351 0
0 -0.0155341 0
0 0.0138268 0
-0.0254074 -0.0125843 0.0343903
-0.037361 -0.00296031 0.0080899
0.00783001 0.0111916 -0.0305843
0.0410448 0.00822567 -0.022479
0.0114806 -0.00732161 0.0200084
-0.0119536 -0.029686 0.0161798
-0.0175774 -0.00698325 0.0038061
0.00368382 0.0264005 -0.0143891
0.0193105 0.019404 -0.0105758
0.00540131 -0.0172714 0.00941347
0.0197836 -0.00138217 -0.0267782
0.0290912 -0.000325139 -0.00629923
-0.00609686 0.0012292 0.0238145
-0.0319596 0.000903448 0.0175034
-0.00893937 -0.000804152 -0.0155796
0.0212612 0.0290357 -0.0287783
0.0312641 0.00683028 -0.00676973
-0.00655225 -0.0258222 0.0255933
-0.0343468 -0.018979 0.0188107
-0.00960706 0.0168931 -0.0167433
