# vtk DataFile Version 3.0
Velocity field
ASCII
DATASET STRUCTURED_POINTS
DIMENSIONS 8 8 8
SPACING 0.8 0.8 0.8
ORIGIN 0 0 0
POINT_DATA 512
VECTORS velocity float
0 0.139918 0
0 0.0974817 0
0 -0.00408554 0
0 -0.103175 0
0 -0.139679 0
0 -0.0914564 0
0 0.0122427 0
0 0.108516 0
0 0.0550456 0.142807
0 0.0383506 0.105488
0 -0.00160731 -0.00442108
0 -0.0405903 -0.111648
0 -0.0549517 -0.151151
0 -0.0359802 -0.0989678
0 0.00481644 0.0132482
0 0.0426915 0.110756
0 -0.0632167 0.198989
0 -0.0440435 0.146988
0 0.0018459 -0.0061604
0 0.0466156 -0.155572
0 0.0631088 -0.210616
0 0.0413212 -0.137903
0 -0.00553141 0.0184602
0 -0.0490287 0.154329
0 -0.143133 0.134467
0 -0.0997214 0.0993275
0 0.0041794 -0.0041629
0 0.105545 -0.105128
0 0.142888 -0.142324
0 0.0935577 -0.0931882
0 -0.012524 0.0124745
0 -0.111009 0.104288
0 -0.136226 -0.0116208
0 -0.0949096 -0.00858398
0 0.00397774 0.000359762
0 0.100452 0.00908528
0 0.135994 0.0122998
0 0.0890433 0.00805341
0 -0.0119197 -0.00107806
0 -0.105652 -0.00901269
0 -0.0466868 -0.15066
0 -0.032527 -0.111289
0 0.00136323 0.00466419
0 0.0344265 0.117788
0 0.0466072 0.159463
0 0.0305165 0.10441
0 -0.00408505 -0.0139767
0 -0.0362087 -0.116847
0 0.0711722 -0.198311
0 0.0495861 -0.146487
0 -0.0020782 0.00613939
0 -0.0524819 0.155042
0 -0.0710508 0.209898
0 -0.0465212 0.137433
0 0.00622751 -0.0183973
0 0.0551987 -0.153803
0 0.145859 -0.125669
0 0.101621 -0.0875544
0 -0.00425902 0.00366948
0 -0.107555 0.0926675
0 -0.14561 0.125455
0 -0.0953398 0.0821427
0 0.0127625 -0.0109959
0 0.113123 -0.0974645
0 0.0974817 0
0 0.0737369 0
0 -0.00309037 0
0 -0.078043 0
0 -0.105656 0
0 -0.0691792 0
0 0.00926059 0
0 0.0756035 0
0.0304418 0.0383506 0.141055
0.0737341 0.0270677 0.0994789
0.0719367 -0.00113451 -0.00416955
0.0265016 -0.0286505 -0.105296
-0.0350088 -0.0387875 -0.142551
-0.0752832 -0.0253964 -0.0933367
-0.0698911 0.00339815 0.0124891
-0.0218426 0.0297434 0.109397
0.0424181 -0.0440435 0.196547
0.102742 -0.03105 0.138615
0.100237 0.00130142 -0.00580991
0.0369277 0.0328653 -0.14672
-0.0487819 0.0444936 -0.198633
-0.104901 0.0291326 -0.130057
-0.0973874 -0.00389822 0.0174025
-0.0304358 -0.0341586 0.152435
0.0286641 -0.0997214 0.132817
0.0694282 -0.0703021 0.0936695
0.0677355 0.00294664 -0.00392606
0.0249539 0.0744127 -0.0991468
-0.0329643 0.100741 -0.134226
-0.070887 0.0659612 -0.0878859
-0.0658093 -0.00882621 0.0117598
-0.020567 -0.0773405 0.103008
-0.00247718 -0.0949096 -0.0114782
-0.00600007 -0.0669099 -0.00809501
-0.00585379 0.00280445 0.000339294
-0.00215655 0.0708222 0.00856836
0.00284881 0.0958803 0.0115999
0.00612614 0.0627786 0.00759519
0.00568731 -0.00840033 -0.00101629
0.00177742 -0.0736086 -0.00890209
-0.0321158 -0.032527 -0.148811
-0.077789 -0.0229311 -0.104949
-0.0758922 0.000961131 0.00439883
-0.027959 0.0242719 0.111086
0.0369338 0.0328595 0.150389
0.0794234 0.0215151 0.0984693
0.073734 -0.00287893 -0.0131759
0.0230437 -0.0252268 -0.115413
-0.0422734 0.0495861 -0.195877
-0.102389 0.0349541 -0.138139
-0.0998922 -0.00146506 0.00578992
-0.0368006 -0.0369979 0.146215
0.0486141 -0.0500883 0.197949
0.10454 -0.0327958 0.129609
0.0970524 0.0043884 -0.0173427
0.030332 0.0384573 -0.151916
-0.0267885 0.101621 -0.124127
-0.064116 0.0708 -0.0864799
-0.0625516 -0.00296728 0.00362444
-0.0230442 -0.0749346 0.0915303
0.0304415 -0.101448 0.123915
0.0654618 -0.0664239 0.0811346
0.0607739 0.00889175 -0.010861
0.0192213 0.0788137 -0.0962684
0 -0.00408554 0
0 -0.00309037 0
0 0.00012952 0
0 0.00327085 0
0 0.00442812 0
0 0.00289936 0
0 -0.000388119 0
0 -0.0031686 0
0.0424181 -0.00160731 0.0537402
0.102742 -0.00113451 0.0378888
0.100237 4.75523e-05 -0.00158806
0.0369277 0.00120086 -0.0401044
-0.0487819 0.00162574 -0.0542938
-0.104901 0.00106447 -0.0355494
-0.0973874 -0.00014243 0.0047568
-0.0304358 -0.00124657 0.0416791
0.0591059 0.0018459 0.0748823
0.143163 0.00130142 0.0527947
0.139672 -5.45477e-05 -0.00221283
0.0514556 -0.00137751 -0.0558818
-0.0679731 -0.0018649 -0.0756534
-0.14617 -0.00122107 -0.0495351
-0.135701 0.000163389 0.00662819
-0.0424097 0.00143161 0.0580762
0.0399409 0.0041794 0.0506018
0.0967425 0.00294664 0.0356761
0.0943839 -0.000123505 -0.00149533
0.0347712 -0.00311893 -0.0377621
-0.045933 -0.00422245 -0.0511228
-0.0987752 -0.00276468 -0.0334733
-0.0916998 0.00036994 0.00447901
-0.0286584 0.0032414 0.039245
-0.00345173 0.00397774 -0.00437306
-0.00836056 0.00280445 -0.00308317
-0.0081567 -0.000117545 0.000129227
-0.00300497 -0.00296844 0.00326343
0.00396958 -0.00401873 0.0044181
0.00853623 -0.00263129 0.0028928
0.00792481 0.000352089 -0.000387082
0.00247669 0.003085 -0.0033916
-0.0447506 0.00136323 -0.0566953
-0.108392 0.000961131 -0.0399724
-0.105749 -4.02848e-05 0.00167539
-0.0389585 -0.00101733 0.0423093
0.0514641 -0.00137727 0.0572794
0.11067 -0.000901781 0.037504
0.102742 0.000120667 -0.00501839
0.0321094 0.00105728 -0.0439709
-0.0589043 -0.0020782 -0.0746269
-0.14267 -0.00146506 -0.0526131
-0.139192 6.14065e-05 0.00220522
-0.0512785 0.00155073 0.0556897
0.0677392 0.0020994 0.0753931
0.145667 0.0013746 0.0493645
0.135234 -0.000183934 -0.0066054
0.042265 -0.00161178 -0.0578781
-0.0373275 -0.00425902 -0.0472909
-0.0893402 -0.00296728 -0.0329479
-0.0871603 0.000124361 0.00138087
-0.0321101 0.00314057 0.034872
0.0424176 0.00425175 0.0472102
0.0912153 0.00278388 0.0309114
0.0846831 -0.00037266 -0.00413791
0.0267832 -0.00330315 -0.0366772
0 -0.103175 0
0 -0.078043 0
0 0.00327085 0
0 0.0826007 0
0 0.111826 0
0 0.0732192 0
0 -0.0098014 0
0 -0.0800187 0
0.0286641 -0.0405903 -0.0661723
0.0694282 -0.0286505 -0.0466538
0.0677355 0.00120086 0.00195544
0.0249539 0.0303258 0.0493818
-0.0329643 0.0410557 0.0668535
-0.070887 0.0268816 0.043773
-0.0658093 -0.00359685 -0.00585721
-0.020567 -0.0314804 -0.051321
0.0399409 0.0466156 -0.0922053
0.0967425 0.0328653 -0.065008
0.0943839 -0.00137751 0.00272473
0.0347712 -0.0347871 0.068809
-0.045933 -0.0470954 0.0931548
-0.0987752 -0.0308362 0.0609939
-0.0916998 0.00412613 -0.00816149
-0.0286584 0.0361534 -0.0715113
0.0269901 0.105545 -0.0623079
0.0653735 0.0744127 -0.0439291
0.0637801 -0.00311893 0.00184124
0.0234968 -0.0787641 0.0464978
-0.0310393 -0.106632 0.0629496
-0.0667471 -0.0698181 0.0412168
-0.0619664 0.00934226 -0.00551514
-0.0193659 0.0818571 -0.0483239
-0.00233251 0.100452 0.00538471
-0.00564965 0.0708222 0.0037964
-0.00551191 -0.00296844 -0.000159122
-0.00203062 -0.0749631 -0.0040184
0.00268244 -0.101486 -0.00544014
0.00576836 -0.0664492 -0.003562
0.00535518 0.00889149 0.000476625
0.00167362 0.0779073 0.0041762
-0.0302403 0.0344265 0.069811
-0.0732457 0.0242719 0.0492192
-0.0714603 -0.00101733 -0.00206296
-0.0263261 -0.025691 -0.0520968
0.034777 -0.0347809 -0.0705298
0.0747848 -0.0227732 -0.0461801
0.0694282 0.00304726 0.0061793
0.021698 0.0267 0.054143
-0.0398047 -0.0524819 0.0918909
-0.0964097 -0.0369979 0.0647843
-0.0940592 0.00155073 -0.00271535
-0.0346516 0.0391613 -0.0685723
0.0457749 0.0530171 -0.0928344
0.098435 0.0347134 -0.0607841
0.0913843 -0.00464498 0.00813344
0.0285607 -0.0407032 0.0712674
-0.0252241 -0.107555 0.058231
-0.0603717 -0.0749346 0.0405699
-0.0588987 0.00314057 -0.00170032
-0.0216984 0.0793107 -0.0429392
0.0286637 0.107372 -0.0581317
0.0616389 0.070303 -0.0380623
0.0572247 -0.00941102 0.00509516
0.0180988 -0.0834164 0.045162
0 -0.139679 0
0 -0.105656 0
0 0.00442812 0
0 0.111826 0
0 0.151392 0
0 0.0991253 0
0 -0.0132693 0
0 -0.10833 0
-0.00247718 -0.0549517 -0.145946
-0.00600007 -0.0387875 -0.102896
-0.00585379 0.00162574 0.00431279
-0.00215655 0.0410557 0.108913
0.00284881 0.0555819 0.147448
0.00612614 0.0363926 0.0965432
0.00568731 -0.00486947 -0.0129183
0.00177742 -0.0426186 -0.11319
-0.00345173 0.0631088 -0.203362
-0.00836056 0.0444936 -0.143377
-0.0081567 -0.0018649 0.00600951
-0.00300497 -0.0470954 0.151761
0.00396958 -0.0637585 0.205456
0.00853623 -0.0417465 0.134524
0.00792481 0.00558602 -0.0180005
0.00247669 0.048945 -0.157721
-0.00233251 0.142888 -0.137422
-0.00564965 0.100741 -0.0968874
-0.00551191 -0.00422245 0.00406095
-0.00203062 -0.106632 0.102552
0.00268244 -0.14436 0.138837
0.00576836 -0.0945212 0.0909049
0.00535518 0.0126477 -0.0121639
0.00167362 0.110819 -0.10658
0.000201578 0.135994 0.0118762
0.000488251 0.0958803 0.0083731
0.000476345 -0.00401873 -0.000350949
0.000175487 -0.101486 -0.00886271
-0.000231819 -0.137394 -0.0119985
-0.000498509 -0.0899599 -0.00785613
-0.0004628 0.0120374 0.00105121
-0.000144636 0.105472 0.00921076
0.00261339 0.0466072 0.153971
0.00632998 0.0328595 0.108555
0.00617569 -0.00137727 -0.00454994
0.00227513 -0.0347809 -0.114902
-0.00300547 -0.0470872 -0.155556
-0.00646298 -0.0308307 -0.101852
-0.00600007 0.0041254 0.0136287
-0.00187516 0.0361469 0.119415
0.00343996 -0.0710508 0.202669
0.0083318 -0.0500883 0.142884
0.00812867 0.0020994 -0.00598885
0.00299463 0.0530171 -0.151239
-0.00395593 0.0717753 -0.204749
-0.00850684 0.0469956 -0.134062
-0.00789755 -0.00628844 0.0179386
-0.00246824 -0.0551045 0.157183
0.00217989 -0.14561 0.128431
0.00521738 -0.101448 0.0894785
0.00509008 0.00425175 -0.00375012
0.0018752 0.107372 -0.094704
-0.00247715 0.145362 -0.128212
-0.00532689 0.0951772 -0.0839479
-0.00494542 -0.0127408 0.0112376
-0.00156412 -0.11293 0.0996064
0 -0.0914564 0
0 -0.0691792 0
0 0.00289936 0
0 0.0732192 0
0 0.0991253 0
0 0.0649033 0
0 -0.0086882 0
0 -0.0709305 0
-0.0321158 -0.0359802 -0.13719
-0.077789 -0.0253964 -0.0967237
-0.0758922 0.00106447 0.00405408
-0.027959 0.0268816 0.102379
0.0369338 0.0363926 0.138602
0.0794234 0.0238285 0.0907513
0.073734 -0.00318833 -0.0121433
0.0230437 -0.027905 -0.1064
-0.0447506 0.0413212 -0.191163
-0.108392 0.0291326 -0.134776
-0.105749 -0.00122107 0.00564898
-0.0389585 -0.0308362 0.142657
0.0514641 -0.0417465 0.193131
0.11067 -0.027334 0.126455
0.102742 0.0036575 -0.0169207
0.0321094 0.0320473 -0.148259
-0.0302403 0.0935577 -0.129178
-0.0732457 0.0659611 -0.0910751
-0.0714603 -0.00276468 0.00381731
-0.0263261 -0.0698181 0.0964005
0.034777 -0.0945212 0.130508
0.0747848 -0.0618886 0.0854515
0.0694282 0.0082812 -0.0114342
0.021698 0.0725601 -0.100186
0.00261339 0.0890433 0.0111637
0.00632998 0.0627786 0.00787081
0.00617569 -0.00263129 -0.000329895
0.00227513 -0.0664492 -0.00833101
-0.00300547 -0.0899599 -0.0112786
-0.00646298 -0.0589021 -0.0073848
-0.00600007 0.00788165 0.000988154
-0.00187516 0.0690589 0.0086582
0.0338818 0.0305165 0.144734
0.0820665 0.0215151 0.102042
0.0800658 -0.000901781 -0.004277
0.0294963 -0.0227732 -0.108009
-0.0389649 -0.0308307 -0.146223
-0.0837908 -0.0201867 -0.0957422
-0.077789 0.00270115 0.012811
-0.0243109 0.0236675 0.112251
0.044598 -0.0465212 0.190511
0.108019 -0.0327958 0.134312
0.105385 0.0013746 -0.00562955
0.0388244 0.0347134 -0.142166
-0.051287 0.0469956 -0.192467
-0.110289 0.0307709 -0.12602
-0.102389 -0.00411742 0.0168625
-0.0319999 -0.0360803 0.147754
0.0282616 -0.0953398 0.120726
0.0676417 -0.0664239 0.0841107
0.0659912 0.00278388 -0.00352515
0.0243114 0.070303 -0.0890226
-0.0321154 0.0951772 -0.12052
-0.0690615 0.0623182 -0.0789118
-0.0641157 -0.00834215 0.0105634
-0.0202783 -0.0739423 0.093631
0 0.0122427 0
0 0.00926058 0
0 -0.000388119 0
0 -0.00980139 0
0 -0.0132693 0
0 -0.00868819 0
0 0.00116303 0
0 0.00949502 0
-0.0422734 0.00481644 -0.0452171
-0.102389 0.00339812 -0.031882
-0.0998922 -0.000142428 0.0013363
-0.0368006 -0.00359681 0.0337462
0.0486141 -0.00486942 0.0456861
0.10454 -0.0031883 0.0299134
0.0970524 0.000426616 -0.00400267
0.030332 0.00373547 -0.0350688
-0.0589043 -0.00553141 -0.0630061
-0.14267 -0.00389818 -0.0444248
-0.139192 0.000163388 0.00186202
-0.0512785 0.00412609 0.0470225
0.0677392 0.00558596 0.0636598
0.145667 0.00365747 0.041682
0.135234 -0.000489412 -0.00557736
0.042265 -0.00428997 -0.0488654
-0.0398047 -0.012524 -0.0425764
-0.0964097 -0.00882613 -0.0300201
-0.0940592 0.000369937 0.00125826
-0.0346516 0.00934217 0.0317755
0.0457749 0.0126476 0.0430181
0.098435 0.00828112 0.0281666
0.0913843 -0.00110811 -0.00376891
0.0285607 -0.00971316 -0.0330208
0.00343996 -0.0119197 0.0036795
0.0083318 -0.00840025 0.00259437
0.00812867 0.000352086 -0.00010874
0.00299464 0.00889141 -0.00274607
-0.00395593 0.0120373 -0.00371767
-0.00850684 0.00788157 -0.00243418
-0.00789755 -0.00105464 0.000325714
-0.00246824 -0.00924448 0.00285369
0.044598 -0.00408505 0.0477035
0.108019 -0.0028789 0.0336352
0.105385 0.000120665 -0.00140978
0.0388244 0.00304723 -0.0356019
-0.051287 0.00412536 -0.0481984
-0.110289 0.00270113 -0.0315584
-0.102389 -0.000361442 0.00422277
-0.0319999 -0.00316823 0.0369972
0.0587034 0.00622751 0.0627912
0.142179 0.00438836 0.044272
0.138713 -0.000183932 -0.00185561
0.0511021 -0.00464494 -0.0468608
-0.0675061 -0.00628837 -0.0634408
-0.145166 -0.00411738 -0.0415385
-0.134768 0.000550955 0.00555818
-0.0421209 0.00482984 0.0486987
0.0372002 0.0127625 0.0397906
0.0890355 0.00889175 0.0277224
0.086863 -0.00037266 -0.00116187
0.0320006 -0.00941102 -0.0293413
-0.0422729 -0.0127408 -0.0397228
-0.0909043 -0.00834215 -0.0260089
-0.0843943 0.00111671 0.00348165
-0.0266919 0.00989819 0.0308602
0 0.108516 0
0 0.0756035 0
0 -0.0031686 0
0 -0.0800187 0
0 -0.10833 0
0 -0.0709305 0
0 0.00949502 0
0 0.0841609 0
-0.0267885 0.0426915 0.074184
-0.064116 0.0297434 0.0516845
-0.0625516 -0.00124657 -0.00216614
-0.0230442 -0.0314804 -0.0547028
0.0304415 -0.0426187 -0.0740575
0.0654618 -0.027905 -0.0484899
0.0607738 0.00373547 0.00649104
0.0192213 0.03311 0.0575346
-0.0373275 -0.0490287 0.103369
-0.0893401 -0.0341586 0.0720179
-0.0871602 0.00143161 -0.00301833
-0.0321101 0.0361534 -0.0762237
0.0424176 0.0489451 -0.103193
0.0912153 0.0320473 -0.0675665
0.0846831 -0.00428997 0.0090447
0.0267832 -0.038025 0.0801695
-0.0252241 -0.111009 0.0698517
-0.0603717 -0.0773405 0.0486662
-0.0588986 0.0032414 -0.00203964
-0.0216984 0.0818571 -0.0515082
0.0286637 0.110819 -0.0697326
0.0616389 0.0725601 -0.0456581
0.0572247 -0.00971317 0.00611197
0.0180988 -0.0860945 0.0541746
0.00217989 -0.105652 -0.00603666
0.00521738 -0.0736087 -0.00420578
0.00509008 0.003085 0.000176268
0.0018752 0.0779073 0.00445139
-0.00247715 0.105472 0.00602636
-0.00532689 0.0690589 0.00394582
-0.00494541 -0.00924449 -0.000528202
-0.00156412 -0.0819403 -0.00468182
0.0282616 -0.0362087 -0.0782633
0.0676417 -0.0252268 -0.0545266
0.0659912 0.00105728 0.00228525
0.0243114 0.0267 0.0577109
-0.0321154 0.0361469 0.0781298
-0.0690614 0.0236675 0.0511563
-0.0641157 -0.00316823 -0.00684797
-0.0202783 -0.0280822 -0.0606983
0.0372002 0.0551987 -0.103016
0.0890354 0.0384573 -0.0717723
0.086863 -0.00161178 0.00300803
0.0320006 -0.0407032 0.0759637
-0.0422729 -0.0551045 0.102841
-0.0909042 -0.0360803 0.0673361
-0.0843943 0.00482984 -0.00901386
-0.0266919 0.0428102 -0.0798961
0.0235737 0.113123 -0.0652812
0.0564215 0.0788137 -0.0454819
0.0550448 -0.00330315 0.00190618
0.0202787 -0.0834164 0.048138
-0.0267882 -0.11293 0.0651699
-0.0576058 -0.0739423 0.0426707
-0.0534804 0.00989819 -0.00571206
-0.0169146 0.0877345 -0.0506299
