# vtk DataFile Version 3.0
Velocity field
ASCII
DATASET STRUCTURED_POINTS
DIMENSIONS 5 5 5
SPACING 1.33333 1.33333 1.33333
ORIGIN 0 0 0
POINT_DATA 125
VECTORS velocity float
0 0.0416325 0
0 0.00979353 0
0 -0.0370249 0
0 -0.0272128 0
0 0.0242219 0
0 -0.0220454 0.0723032
0 -0.00518592 0.0196018
0 0.0196056 -0.0741054
0 0.0144099 -0.0544665
0 -0.0128261 0.0420663
0 -0.0520043 0.0340168
0 -0.0122334 0.00922214
0 0.0462488 -0.0348647
0 0.0339923 -0.0256251
0 -0.0302563 0.0197911
0 -0.00242131 -0.0562991
0 -0.000569583 -0.015263
0 0.00215334 0.0577024
0 0.00158267 0.0424105
0 -0.00140873 -0.032755
0 0.0508652 -0.0605042
0 0.0119654 -0.0142329
0 -0.0452358 0.053808
0 -0.0332477 0.0395482
0 0.0295935 -0.0352015
0 0.00979353 0
0 0.00293147 0
0 -0.0110825 0
0 -0.00814553 0
0 0.0056979 0
0.0309455 -0.00518592 0.0253916
0.0457135 -0.00122503 0.00600235
-0.00958054 0.00463134 -0.0226924
-0.0502209 0.00340398 -0.0166787
-0.013983 -0.00301718 0.0147729
0.0145591 -0.0122334 0.0119461
0.0215071 -0.00289091 0.00282396
-0.0045074 0.0109293 -0.0106762
-0.0236277 0.00803293 -0.0078469
-0.00657864 -0.00711741 0.0069503
-0.0240958 -0.000569583 -0.0197713
-0.0355948 -0.000134607 -0.00467374
0.00745989 0.000508893 0.0176695
0.0391046 0.00037403 0.0129869
0.0108879 -0.000331385 -0.011503
-0.0258956 0.0119654 -0.021248
-0.0380788 0.00281471 -0.00499833
0.00798045 -0.0106411 0.0188964
0.0418334 -0.00782111 0.0138886
0.0117011 0.00696151 -0.0123622
0 -0.0370249 0
0 -0.0110826 0
0 0.0418981 0
0 0.0307946 0
0 -0.0215412 0
0.0145591 0.0196056 -0.0603571
0.0215071 0.00463134 -0.0142633
-0.0045074 -0.0175092 0.0539236
-0.0236277 -0.012869 0.0396333
-0.00657864 0.0114066 -0.035116
0.00684969 0.0462488 -0.0283965
0.0101185 0.0109293 -0.00671053
-0.00212062 -0.0413192 0.0253698
-0.0111162 -0.0303692 0.0186465
-0.00309509 0.0269077 -0.0165212
-0.0113365 0.00215334 0.0469972
-0.0167465 0.000508892 0.0111061
0.0035097 -0.00192391 -0.0419878
0.0183978 -0.00141405 -0.0308605
0.00512248 0.00125282 0.0273432
-0.0121832 -0.0452358 0.0505075
-0.0179151 -0.0106411 0.0118813
0.0037546 0.0402294 -0.0449177
0.0196816 0.0295681 -0.0330139
0.00550509 -0.0263183 0.0293855
0 -0.0272128 0
0 -0.00814554 0
0 0.0307946 0
0 0.0226336 0
0 -0.0158325 0
-0.0240958 0.0144099 -0.0537881
-0.0355948 0.00340398 -0.012711
0.00745989 -0.012869 0.048055
0.0391046 -0.00945859 0.0353199
0.0108879 0.00838371 -0.0312941
-0.0113365 0.0339923 -0.025306
-0.0167465 0.00803293 -0.00598021
0.0035097 -0.0303692 0.0226086
0.0183978 -0.022321 0.0166171
0.00512248 0.0197768 -0.0147231
0.0187623 0.00158267 0.0418823
0.027716 0.00037403 0.00989742
-0.00580866 -0.00141405 -0.0374181
-0.0304489 -0.00103931 -0.0275019
-0.00847789 0.000920805 0.0243673
0.0201637 -0.0332477 0.0450105
0.0296502 -0.00782111 0.0105882
-0.006214 0.0295681 -0.0400291
-0.0325737 0.0217321 -0.0294209
-0.00911112 -0.0193436 0.0261873
0 0.0242219 0
0 0.00569791 0
0 -0.0215412 0
0 -0.0158325 0
0 0.0140924 0
-0.0258956 -0.0128261 0.0350511
-0.0380788 -0.00301718 0.00824533
0.00798045 0.0114066 -0.0311719
0.0418334 0.00838371 -0.0229109
0.0117011 -0.00746228 0.0203928
-0.0121832 -0.0302563 0.0164907
-0.0179151 -0.00711742 0.00387922
0.0037546 0.0269077 -0.0146656
0.0196816 0.0197768 -0.010779
0.00550509 -0.0176032 0.00959433
0.0201637 -0.00140873 -0.0272926
0.0296501 -0.000331385 -0.00642025
-0.006214 0.00125282 0.0242721
-0.0325737 0.000920806 0.0178397
-0.00911112 -0.000819603 -0.015879
0.0216697 0.0295935 -0.0293312
0.0318648 0.00696151 -0.00689979
-0.00667814 -0.0263183 0.026085
-0.0350067 -0.0193436 0.0191721
-0.00979164 0.0172176 -0.017065
