# vtk DataFile Version 3.0
Velocity field
ASCII
DATASET STRUCTURED_POINTS
DIMENSIONS 5 5 5
SPACING 1.33333 1.33333 1.33333
ORIGIN 0 0 0
POINT_DATA 125
VECTORS velocity float
0 0.0133594 0
0 0.00314264 0
0 -0.0118809 0
0 -0.00873231 0
0 0.00777257 0
0 -0.00707416 0.0232013
0 -0.00166411 0.00629
0 0.00629124 -0.0237797
0 0.00462398 -0.0174777
0 -0.00411577 0.0134986
0 -0.0166877 0.0109157
0 -0.00392556 0.00295929
0 0.0148408 -0.0111877
0 0.0109078 -0.00822284
0 -0.00970894 0.00635077
0 -0.000776974 -0.0180658
0 -0.000182773 -0.00489773
0 0.000690984 0.0185161
0 0.000507864 0.0136091
0 -0.000452046 -0.0105108
0 0.0163221 -0.0194152
0 0.00383957 -0.00456718
0 -0.0145157 0.0172664
0 -0.0106688 0.0126906
0 0.00949626 -0.0112958
0 0.00314264 0
0 0.000940675 0
0 -0.00355627 0
0 -0.00261381 0
0 0.0018284 0
0.00993009 -0.00166411 0.00814791
0.0146243 -0.000392009 0.00191984
-0.00306493 0.00148201 -0.00725805
-0.0160663 0.00108926 -0.00533457
-0.004487 -0.000968181 0.00474048
0.00467186 -0.00392556 0.00383339
0.00688039 -0.000924853 0.000903236
-0.00144197 0.00349646 -0.00341473
-0.0075588 0.00256985 -0.00250978
-0.00211102 -0.0022839 0.00223028
-0.0077321 -0.000182773 -0.00634439
-0.0113873 -4.30612e-05 -0.00149489
0.00238652 0.000162795 0.0056515
0.0125101 0.000119652 0.00415378
0.00349381 -0.000106338 -0.00369119
-0.00830962 0.00383957 -0.00681827
-0.0122191 0.000903212 -0.00160391
0.00256084 -0.00341463 0.00606367
0.0134239 -0.00250971 0.00445672
0.00375477 0.00223388 -0.00396689
0 -0.0118809 0
0 -0.00355627 0
0 0.0134447 0
0 0.00988165 0
0 -0.00691234 0
0.00467186 0.00629124 -0.019368
0.00688039 0.00148201 -0.00456305
-0.00144197 -0.00560281 0.0172508
-0.0075588 -0.004118 0.0126792
-0.00211102 0.00366025 -0.0112684
0.00219799 0.0148408 -0.00911214
0.00323705 0.00349646 -0.0021468
-0.000678412 -0.0132185 0.0081161
-0.00355622 -0.00971545 0.00596523
-0.000993182 0.0086344 -0.00530148
-0.00363776 0.000690984 0.0150809
-0.00535743 0.000162795 0.00355303
0.0011228 -0.000615455 -0.0134324
0.00588568 -0.000452352 -0.00987266
0.00164375 0.000402016 0.00877414
-0.00390947 -0.0145157 0.0162073
-0.00574878 -0.00341463 0.00381258
0.00120481 0.0129092 -0.0144136
0.00631561 0.00948809 -0.0105938
0.00176653 -0.00844528 0.00942949
0 -0.00873231 0
0 -0.00261381 0
0 0.00988165 0
0 0.00726289 0
0 -0.00508048 0
-0.0077321 0.00462398 -0.0172601
-0.0113873 0.00108926 -0.00406643
0.00238652 -0.004118 0.0153734
0.0125101 -0.00302667 0.0112992
0.00349381 0.00269024 -0.010042
-0.00363776 0.0109078 -0.00812043
-0.00535743 0.00256985 -0.00191315
0.0011228 -0.00971545 0.00723278
0.00588568 -0.00714073 0.005316
0.00164375 0.00634617 -0.00472449
0.00602062 0.000507864 0.0134396
0.00886675 0.000119652 0.00316634
-0.00185827 -0.000452352 -0.0119705
-0.00974101 -0.000332473 -0.00879817
-0.00272047 0.000295476 0.00781921
0.00647031 -0.0106688 0.0144434
0.00951444 -0.00250971 0.00339763
-0.00199401 0.00948809 -0.0128449
-0.0104526 0.00697362 -0.00944085
-0.00292366 -0.00620717 0.00840323
0 0.00777257 0
0 0.0018284 0
0 -0.00691234 0
0 -0.00508048 0
0 0.0045221 0
-0.00830962 -0.00411577 0.0112475
-0.0122191 -0.000968182 0.00264584
0.00256084 0.00366026 -0.0100027
0.0134239 0.00269024 -0.00735188
0.00375477 -0.00239457 0.00654386
-0.00390947 -0.00970894 0.00529168
-0.00574877 -0.0022839 0.0012448
0.00120481 0.00863441 -0.00470604
0.0063156 0.00634618 -0.00345888
0.00176653 -0.00564869 0.00307872
0.00647031 -0.000452046 -0.00875793
0.00951441 -0.000106338 -0.00206019
-0.00199401 0.000402016 0.00778866
-0.0104525 0.000295477 0.00572456
-0.00292366 -0.000263002 -0.00509539
0.00695359 0.00949626 -0.00941207
0.0102251 0.00223388 -0.00221407
-0.00214295 -0.00844528 0.00837041
-0.0112333 -0.00620717 0.00615214
-0.00314204 0.00552496 -0.00547598
