# vtk DataFile Version 3.0
Velocity field
ASCII
DATASET STRUCTURED_POINTS
DIMENSIONS 8 8 8
SPACING 0.8 0.8 0.8
ORIGIN 0 0 0
POINT_DATA 512
VECTORS velocity float
0 0.273292 0
0 0.190404 0
0 -0.00797999 0
0 -0.201524 0
0 -0.272826 0
0 -0.178635 0
0 0.0239128 0
0 0.211956 0
0 0.107517 0.278935
0 0.0749075 0.206042
0 -0.00313944 -0.00863539
0 -0.079282 -0.218075
0 -0.107333 -0.295233
0 -0.0702775 -0.193307
0 0.00940761 0.0258768
0 0.0833862 0.216332
0 -0.123477 0.388672
0 -0.086027 0.287102
0 0.00360546 -0.0120327
0 0.0910508 -0.303868
0 0.123266 -0.411381
0 0.0807097 -0.269356
0 -0.0108041 0.036057
0 -0.0957642 0.30144
0 -0.27957 0.262645
0 -0.194779 0.194009
0 0.00816333 -0.00813109
0 0.206154 -0.205339
0 0.279094 -0.277991
0 0.182739 -0.182018
0 -0.0244622 0.0243656
0 -0.216825 0.203699
0 -0.266081 -0.0226981
0 -0.18538 -0.0167665
0 0.00776944 0.000702696
0 0.196206 0.0177456
0 0.265627 0.0240243
0 0.173922 0.0157302
0 -0.0232818 -0.0021057
0 -0.206363 -0.0176038
0 -0.0911899 -0.294273
0 -0.0635326 -0.217372
0 0.0026627 0.00911023
0 0.0672429 0.230066
0 0.0910344 0.311467
0 0.0596057 0.203936
0 -0.00797904 -0.0272997
0 -0.0707238 -0.228228
0 0.139015 -0.387346
0 0.096853 -0.286123
0 -0.00405919 0.0119916
0 -0.102509 0.302832
0 -0.138778 0.409978
0 -0.0908666 0.268438
0 0.0121637 -0.035934
0 0.107816 -0.300412
0 0.284896 -0.24546
0 0.198489 -0.171014
0 -0.00831883 0.00716732
0 -0.21008 0.181001
0 -0.28441 0.245042
0 -0.18622 0.160443
0 0.0249282 -0.0214776
0 0.220956 -0.19037
0 0.190404 0
0 0.144025 0
0 -0.0060362 0
0 -0.152436 0
0 -0.20637 0
0 -0.135123 0
0 0.018088 0
0 0.147671 0
0.0594599 0.0749075 0.275512
0.145662 0.053499 0.196533
0.142119 -0.00224288 -0.00823936
0.0523573 -0.0566389 -0.208066
-0.0691634 -0.0766785 -0.281681
-0.148731 -0.050206 -0.184434
-0.138071 0.00670954 0.0246493
-0.0426636 0.0580957 0.213677
0.0828522 -0.086027 0.383902
0.202969 -0.0613191 0.273852
0.19803 0.00257066 -0.0114807
0.0729549 0.0649162 -0.28992
-0.0963743 0.0878843 -0.392501
-0.207245 0.0575431 -0.256994
-0.192392 -0.00769103 0.0343467
-0.0594481 -0.0667195 0.297741
0.0559875 -0.194779 0.259422
0.137155 -0.138837 0.185056
0.13382 0.00582049 -0.00775815
0.0492994 0.146983 -0.195915
-0.0651249 0.198987 -0.265233
-0.140045 0.130289 -0.173662
-0.130009 -0.0174139 0.0232098
-0.0401721 -0.151064 0.201199
-0.00483849 -0.18538 -0.0224195
-0.0118532 -0.132138 -0.0159927
-0.0115648 0.00553962 0.000670464
-0.0042605 0.13989 0.0169312
0.00562813 0.189387 0.0229215
0.0121029 0.124003 0.0150081
0.0112354 -0.0165736 -0.00200582
0.00347171 -0.143775 -0.0173878
-0.0627295 -0.0635326 -0.290662
-0.153671 -0.0452861 -0.20734
-0.149934 0.00189852 0.00869238
-0.0552356 0.047943 0.219505
0.0729669 0.0649056 0.297171
0.156909 0.0424975 0.194576
0.145664 -0.00568007 -0.0260048
0.0450097 -0.0492737 -0.225427
-0.0825696 0.096853 -0.382592
-0.202254 0.0690117 -0.272887
-0.197333 -0.00289317 0.0114403
-0.0726978 -0.0730601 0.288898
0.0960346 -0.0989094 0.391116
0.206513 -0.0647621 0.256088
0.191714 0.00865615 -0.034226
0.0592454 0.0751159 -0.296726
-0.0523241 0.198489 -0.242448
-0.125233 0.138289 -0.168915
-0.122178 -0.00579578 0.00707937
-0.0450106 -0.146364 0.178779
0.0594592 -0.19815 0.242034
0.127862 -0.129741 0.158474
0.118705 0.0173676 -0.021214
0.0375436 0.153941 -0.188034
0 -0.00797999 0
0 -0.0060362 0
0 0.000252982 0
0 0.00638871 0
0 0.00864914 0
0 0.00566311 0
0 -0.000758085 0
0 -0.00618901 0
0.0828522 -0.00313944 0.104967
0.202969 -0.00224288 0.07484
0.19803 9.40313e-05 -0.00313753
0.0729549 0.00237454 -0.0792307
-0.0963743 0.00321469 -0.107263
-0.207245 0.00210486 -0.0702321
-0.192392 -0.000281282 0.0093867
-0.0594481 -0.00243484 0.0814087
0.115447 0.00360546 0.146262
0.282817 0.00257066 0.104283
0.275936 -0.000107769 -0.00437185
0.101657 -0.00272148 -0.110401
-0.134289 -0.00368439 -0.149463
-0.288775 -0.0024124 -0.0978633
-0.268082 0.000322422 0.0130796
-0.0828358 0.00279627 0.113436
0.0780137 0.00816333 0.0988369
0.191115 0.00582049 0.0704689
0.186466 -0.000244013 -0.00295431
0.068694 -0.006162 -0.0746041
-0.0907456 -0.00834225 -0.101
-0.195142 -0.0054621 -0.0661312
-0.181155 0.000730024 0.00883849
-0.0559764 0.0063312 0.0766545
-0.00674202 0.00776944 -0.00854158
-0.0165164 0.00553962 -0.00609005
-0.0161146 -0.000232238 0.000255314
-0.00593666 -0.00586468 0.00644737
0.00784235 -0.00793969 0.00872847
0.0168644 -0.00519856 0.00571508
0.0156557 0.000694796 -0.000763837
0.00483753 0.00602571 -0.00662456
-0.0874081 0.0026627 -0.110739
-0.214127 0.00189852 -0.0789548
-0.208921 -7.95919e-05 0.00331006
-0.0769662 -0.00200992 0.0835868
0.101674 -0.00272103 0.113162
0.218638 -0.00178162 0.0740943
0.202971 0.000238119 -0.00990283
0.0627171 0.0020651 -0.0858853
-0.115054 -0.00405919 -0.145763
-0.281821 -0.00289317 -0.103915
-0.274964 0.00012129 0.00435645
-0.101299 0.0030629 0.110012
0.133815 0.00414661 0.148936
0.287758 0.00271502 0.0975183
0.267136 -0.000362881 -0.0130336
0.0825533 -0.00314817 -0.113049
-0.0729091 -0.00831883 -0.0923699
-0.174502 -0.00579578 -0.0643547
-0.170244 0.000242906 0.00269716
-0.0627184 0.00613425 0.068113
0.0828512 0.00830465 0.0922124
0.178164 0.00543755 0.060377
0.165405 -0.000727891 -0.00808229
0.0523138 -0.0064518 -0.0716389
0 -0.201524 0
0 -0.152436 0
0 0.00638871 0
0 0.161338 0
0 0.218422 0
0 0.143014 0
0 -0.0191444 0
0 -0.156295 0
0.0559875 -0.079282 -0.12925
0.137155 -0.0566389 -0.0921523
0.13382 0.00237454 0.00386331
0.0492994 0.0599632 0.0975594
-0.0651249 0.0811792 0.132077
-0.140045 0.0531528 0.0864781
-0.130009 -0.00710314 -0.0115581
-0.0401721 -0.0614884 -0.100242
0.0780137 0.0910508 -0.180098
0.191115 0.0649162 -0.128406
0.186466 -0.00272148 0.00538315
0.068694 -0.0687246 0.135941
-0.0907456 -0.0930413 0.184037
-0.195142 -0.0609196 0.1205
-0.181155 0.00814207 -0.0161052
-0.0559764 0.0706159 -0.139678
0.0527178 0.206154 -0.121702
0.129146 0.146983 -0.0867701
0.126005 -0.006162 0.00363767
0.0464204 -0.155606 0.0918615
-0.0613215 -0.210664 0.124364
-0.131867 -0.137933 0.0814282
-0.122416 0.0184352 -0.010883
-0.0378261 0.159886 -0.0943875
-0.00455593 0.196206 0.0105176
-0.0111609 0.13989 0.00749879
-0.0108893 -0.00586468 -0.000314372
-0.00401171 -0.148099 -0.00793879
0.00529942 -0.200498 -0.0107475
0.011396 -0.131279 -0.00703708
0.0105792 0.0175456 0.000940526
0.00326897 0.152171 0.00815706
-0.0590661 0.0672429 0.136357
-0.144697 0.047943 0.0972196
-0.141177 -0.00200992 -0.00407575
-0.0520106 -0.0507559 -0.102924
0.0687053 -0.0687134 -0.139339
0.147746 -0.0449911 -0.0912338
0.137156 0.00601318 0.0121937
0.0423811 0.0521513 0.105754
-0.0777476 -0.102509 0.179484
-0.190442 -0.0730601 0.127954
-0.185809 0.0030629 -0.00536418
-0.068452 0.0773459 -0.135461
0.0904258 0.104713 -0.183389
0.194454 0.0685613 -0.120076
0.180517 -0.00916377 0.0160486
0.0557855 -0.0795026 0.139202
-0.0492684 -0.21008 0.113738
-0.11792 -0.146364 0.0792423
-0.115043 0.00613425 -0.00332111
-0.042382 0.154912 -0.08387
0.0559868 0.209722 -0.113544
0.120395 0.137318 -0.0743444
0.111773 -0.0183819 0.00995202
0.0353511 -0.162931 0.0882116
0 -0.272826 0
0 -0.20637 0
0 0.00864914 0
0 0.218422 0
0 0.295703 0
0 0.193614 0
0 -0.0259179 0
0 -0.211594 0
-0.00483849 -0.107333 -0.285065
-0.0118532 -0.0766785 -0.203245
-0.0115648 0.00321469 0.00852068
-0.0042605 0.0811792 0.215168
0.00562813 0.109901 0.2913
0.0121029 0.0719591 0.190732
0.0112354 -0.00961635 -0.0254918
0.00347171 -0.083244 -0.221087
-0.00674202 0.123266 -0.397213
-0.0165164 0.0878843 -0.283203
-0.0161146 -0.00368439 0.0118729
-0.00593666 -0.0930413 0.299821
0.00784235 -0.125961 0.405903
0.0168644 -0.0824739 0.26577
0.0156557 0.0110228 -0.0355205
0.00483753 0.0956009 -0.308065
-0.00455593 0.279094 -0.268417
-0.0111609 0.198987 -0.191376
-0.0108893 -0.00834225 0.00802311
-0.00401171 -0.210664 0.202605
0.00529942 -0.285198 0.274287
0.011396 -0.186737 0.179593
0.0105792 0.0249578 -0.0240031
0.00326897 0.216456 -0.208175
0.000393728 0.265627 0.0231969
0.000964541 0.189387 0.0165389
0.000941073 -0.00793969 -0.000693357
0.000346692 -0.200498 -0.0175092
-0.000457984 -0.271439 -0.0237044
-0.00098486 -0.177726 -0.0155207
-0.000914273 0.0237535 0.00207437
-0.000282508 0.206011 0.0179907
0.00510455 0.0910344 0.30074
0.012505 0.0649056 0.214419
0.0122008 -0.00272103 -0.00898917
0.00449477 -0.0687134 -0.227
-0.00593764 -0.0930261 -0.307316
-0.0127684 -0.0609097 -0.20122
-0.0118533 0.00814073 0.0268933
-0.00366262 0.0706032 0.233244
0.00671903 -0.138778 0.395859
0.0164582 -0.0989094 0.282206
0.0160578 0.00414661 -0.011831
0.00591575 0.104713 -0.298764
-0.00781472 0.141761 -0.404473
-0.0168048 0.0928201 -0.264833
-0.0156005 -0.012406 0.0353957
-0.00482104 -0.107632 0.307014
0.00425783 -0.28441 0.250854
0.0101907 -0.19815 0.174772
0.00994209 0.00830465 -0.00732484
0.0036627 0.209722 -0.184979
-0.00483844 0.283925 -0.250427
-0.0104046 0.185903 -0.163969
-0.00965953 -0.0248856 0.0219496
-0.00305508 -0.220579 0.194554
0 -0.178635 0
0 -0.135123 0
0 0.00566311 0
0 0.143014 0
0 0.193614 0
0 0.126771 0
0 -0.01697 0
0 -0.138543 0
-0.0627295 -0.0702775 -0.267964
-0.153671 -0.050206 -0.191053
-0.149934 0.00210486 0.00800955
-0.0552356 0.0531528 0.202262
0.0729669 0.0719591 0.273823
0.156909 0.0471162 0.179289
0.145664 -0.00629641 -0.0239625
0.0450097 -0.0545048 -0.207823
-0.0874081 0.0807097 -0.373384
-0.214127 0.0575431 -0.266215
-0.208921 -0.0024124 0.0111605
-0.0769662 -0.0609196 0.281833
0.101674 -0.0824739 0.381553
0.218638 -0.0540003 0.249826
0.202971 0.00721729 -0.0333897
0.0627171 0.0625956 -0.289584
-0.0590661 0.182739 -0.252315
-0.144697 0.130289 -0.179895
-0.141177 -0.0054621 0.00754175
-0.0520106 -0.137933 0.19045
0.0687053 -0.186737 0.257834
0.147746 -0.122268 0.168818
0.137156 0.0163414 -0.0225631
0.0423811 0.141726 -0.195687
0.00510455 0.173922 0.0218053
0.012505 0.124003 0.0155467
0.0122008 -0.00519856 -0.000651762
0.00449477 -0.131279 -0.0164589
-0.00593764 -0.177726 -0.0222822
-0.0127684 -0.116368 -0.0145895
-0.0118533 0.0155529 0.00194993
-0.00366262 0.134888 0.0169114
0.0661789 0.0596057 0.282699
0.162122 0.0424975 0.201557
0.158178 -0.00178162 -0.00844999
0.058273 -0.0449911 -0.213382
-0.0769789 -0.0609097 -0.288881
-0.165537 -0.0398811 -0.189149
-0.153673 0.0053302 0.0252802
-0.0474847 0.0462281 0.219251
0.08711 -0.0908666 0.372111
0.213372 -0.0647621 0.265277
0.208183 0.00271502 -0.0111212
0.076695 0.0685613 -0.280841
-0.101315 0.0928202 -0.380209
-0.217867 0.0607748 -0.248946
-0.202256 -0.00812299 0.0332723
-0.0625032 -0.070473 0.288596
0.0552014 -0.18622 0.235806
0.13212 -0.129741 0.164287
0.128896 0.00543755 -0.00688542
0.0474857 0.137318 -0.173882
-0.0627288 0.185903 -0.235403
-0.134893 0.121722 -0.154133
-0.125233 -0.0162941 0.0206328
-0.0396081 -0.144426 0.182883
0 0.0239128 0
0 0.018088 0
0 -0.000758085 0
0 -0.0191444 0
0 -0.0259179 0
0 -0.01697 0
0 0.00227167 0
0 0.0185459 0
-0.0825696 0.00940761 -0.0883193
-0.202254 0.00670941 -0.0629878
-0.197333 -0.000281277 0.00264066
-0.0726978 -0.00710301 0.0666842
0.0960346 -0.00961617 0.0902773
0.206513 -0.0062963 0.0591101
0.191714 0.00084156 -0.00789999
0.0592454 0.00729622 -0.0684974
-0.115054 -0.0108041 -0.123065
-0.281821 -0.00769089 -0.087768
-0.274964 0.000322416 0.00367953
-0.101299 0.00814191 0.0929182
0.133815 0.0110226 0.125794
0.287758 0.00721715 0.0823653
0.267136 -0.000964752 -0.0110079
0.0825533 -0.00837929 -0.0954452
-0.0777476 -0.0244622 -0.0831615
-0.190442 -0.0174135 -0.0593094
-0.185809 0.00073001 0.00248645
-0.0684521 0.0184348 0.0627897
0.0904258 0.0249573 0.0850052
0.194454 0.0163411 0.0556582
0.180517 -0.00218436 -0.00743861
0.0557855 -0.018972 -0.0644972
0.00671903 -0.0232818 0.0071869
0.0164582 -0.0165733 0.00512559
0.0160578 0.000694783 -0.000214881
0.00591575 0.0175452 -0.00542632
-0.00781472 0.0237531 -0.00734625
-0.0168048 0.0155526 -0.00481003
-0.0156005 -0.00207898 0.000642857
-0.00482104 -0.0180566 0.00557391
0.08711 -0.00797904 0.0931758
0.213372 -0.00567996 0.0664515
0.208183 0.000238114 -0.00278586
0.076695 0.00601307 -0.0703507
-0.101315 0.00814058 -0.095242
-0.217867 0.0053301 -0.0623607
-0.202256 -0.000712498 0.0083344
-0.0625032 -0.00618827 0.072264
0.114661 0.0121637 0.122646
0.280828 0.00865599 0.0874588
0.273995 -0.000362875 -0.00366656
0.100942 -0.0091636 -0.0925906
-0.133343 -0.0124058 -0.125351
-0.286744 -0.00812284 -0.0820747
-0.266194 0.00108584 0.0109692
-0.0822717 0.00943378 0.0951197
0.0726605 0.0249282 0.0777201
0.173907 0.0173676 0.0541481
0.169663 -0.000727891 -0.00226939
0.0625045 -0.0183819 -0.0573103
-0.0825687 -0.0248856 -0.0775876
-0.177557 -0.0162941 -0.0508013
-0.164841 0.00218119 0.00680045
-0.0521354 0.0193334 0.0602771
0 0.211956 0
0 0.147671 0
0 -0.00618901 0
0 -0.156295 0
0 -0.211594 0
0 -0.138543 0
0 0.0185459 0
0 0.164385 0
-0.0523241 0.0833862 0.144898
-0.125233 0.0580957 0.100952
-0.122178 -0.00243484 -0.00423097
-0.0450106 -0.0614884 -0.106847
0.0594592 -0.083244 -0.144651
0.127862 -0.0545048 -0.0947119
0.118705 0.00729622 0.0126785
0.0375436 0.0646715 0.112378
-0.0729091 -0.0957642 0.201903
-0.174502 -0.0667195 0.140667
-0.170244 0.00279627 -0.00589548
-0.0627184 0.0706159 -0.148882
0.0828512 0.0956009 -0.201559
0.178164 0.0625956 -0.131973
0.165405 -0.00837929 0.0176664
0.0523138 -0.0742714 0.156589
-0.0492684 -0.216825 0.136436
-0.11792 -0.151064 0.0950562
-0.115043 0.0063312 -0.00398388
-0.042382 0.159886 -0.100607
0.0559868 0.216456 -0.136204
0.120395 0.141726 -0.0891808
0.111773 -0.018972 0.0119381
0.0353511 -0.168162 0.105815
0.00425783 -0.206363 -0.011791
0.0101907 -0.143775 -0.00821485
0.00994209 0.00602571 0.000344291
0.0036627 0.152171 0.00869459
-0.00483844 0.206011 0.0117709
-0.0104046 0.134888 0.00770709
-0.00965953 -0.0180566 -0.0010317
-0.00305508 -0.160048 -0.00914467
0.0552014 -0.0707238 -0.152866
0.13212 -0.0492737 -0.106503
0.128896 0.0020651 0.00446362
0.0474857 0.0521513 0.112723
-0.0627288 0.0706032 0.152605
-0.134893 0.0462281 0.0999199
-0.125233 -0.00618827 -0.0133757
-0.0396081 -0.0548509 -0.118558
0.0726605 0.107816 -0.201215
0.173907 0.0751159 -0.140188
0.169663 -0.00314817 0.00587538
0.0625045 -0.0795026 0.148374
-0.0825687 -0.107632 0.200872
-0.177557 -0.070473 0.131523
-0.164841 0.00943378 -0.0176061
-0.0521354 0.0836181 -0.156055
0.0460447 0.220956 -0.127509
0.110204 0.153941 -0.0888365
0.107515 -0.0064518 0.00372321
0.0396089 -0.162931 0.0940245
-0.0523235 -0.220579 0.127292
-0.112517 -0.144426 0.0833456
-0.104459 0.0193334 -0.0111569
-0.033038 0.171366 -0.0988918
