# vtk DataFile Version 3.0
Velocity field
ASCII
DATASET STRUCTURED_POINTS
DIMENSIONS 10 10 10
SPACING 0.631579 0.631579 0.631579
ORIGIN 0 0 0
POINT_DATA 1000
VECTORS velocity float
0 0.658722 0
0 0.531652 0
0 0.199467 0
0 -0.209674 0
0 -0.537921 0
0 -0.658634 0
0 -0.525241 0
0 -0.189206 0
0 0.219826 0
0 0.544047 0
0 0.404582 0.515992
0 0.326537 0.432785
0 0.122511 0.162373
0 -0.12878 -0.170683
0 -0.330387 -0.437888
0 -0.404528 -0.536153
0 -0.322599 -0.427566
0 -0.116209 -0.154021
0 0.135015 0.178946
0 0.33415 0.426165
0 -0.00564848 0.832911
0 -0.00455886 0.698598
0 -0.00171041 0.262102
0 0.00179794 -0.275515
0 0.00461262 -0.706836
0 0.00564773 -0.865454
0 0.00450389 -0.690174
0 0.00162243 -0.24862
0 -0.00188498 0.288854
0 -0.00466516 0.687913
0 -0.4137 0.828486
0 -0.333896 0.694887
0 -0.125272 0.26071
0 0.131682 -0.274051
0 0.337833 -0.703081
0 0.413645 -0.860857
0 0.329869 -0.686508
0 0.118828 -0.247299
0 -0.138058 0.28732
0 -0.34168 0.684258
0 -0.662143 0.504426
0 -0.534413 0.423083
0 -0.200503 0.158734
0 0.210763 -0.166857
0 0.540715 -0.428072
0 0.662055 -0.524134
0 0.527969 -0.417982
0 0.190189 -0.150569
0 -0.220967 0.174935
0 -0.546873 0.416612
0 -0.655126 -0.0142463
0 -0.52875 -0.011949
0 -0.198378 -0.00448306
0 0.20853 0.00471247
0 0.534985 0.0120899
0 0.655039 0.014803
0 0.522374 0.0118049
0 0.188174 0.00425246
0 -0.218626 -0.00494064
0 -0.541078 -0.0117662
0 -0.395357 -0.527422
0 -0.319091 -0.442371
0 -0.119718 -0.16597
0 0.125844 0.174463
0 0.322854 0.447588
0 0.395304 0.548029
0 0.315244 0.437037
0 0.113559 0.157433
0 -0.131937 -0.18291
0 -0.326531 -0.435605
0 0.0169441 -0.837114
0 0.0136755 -0.702123
0 0.00513082 -0.263425
0 -0.00539338 0.276905
0 -0.0138368 0.710403
0 -0.0169418 0.869822
0 -0.0135106 0.693657
0 -0.0048669 0.249874
0 0.00565451 -0.290312
0 0.0139944 -0.691384
0 0.422707 -0.823842
0 0.341166 -0.690991
0 0.128 -0.259248
0 -0.13455 0.272515
0 -0.345189 0.699139
0 -0.422651 0.856031
0 -0.337052 0.682659
0 -0.121415 0.245913
0 0.141064 -0.285709
0 0.34912 -0.680422
0 0.665387 -0.492725
0 0.537032 -0.397676
0 0.201485 -0.149201
0 -0.211796 0.156837
0 -0.543364 0.402366
0 -0.665299 0.492659
0 -0.530556 0.392881
0 -0.191121 0.141527
0 0.22205 -0.16443
0 0.549553 -0.406948
0 0.531652 0
0 0.451416 0
0 0.169364 0
0 -0.17803 0
0 -0.456739 0
0 -0.559234 0
0 -0.445973 0
0 -0.160652 0
0 0.18665 0
0 0.439098 0
0.0750246 0.326537 0.571058
0.207698 0.278353 0.487355
0.255982 0.104633 0.183215
0.205373 -0.110001 -0.192616
0.075526 -0.282209 -0.494158
-0.0834596 -0.345538 -0.60505
-0.210245 -0.275557 -0.482509
-0.255915 -0.0992736 -0.173833
-0.20273 0.114865 0.201089
-0.0674992 0.269691 0.471645
0.121104 -0.00455886 0.921798
0.335265 -0.00387005 0.786684
0.413205 -0.00145459 0.295743
0.331513 0.00152923 -0.310919
0.121914 0.00392324 -0.797665
-0.13472 0.00480359 -0.976668
-0.339377 0.00383075 -0.778864
-0.413096 0.00138008 -0.2806
-0.327245 -0.00159716 0.324596
-0.108957 -0.00376523 0.761326
0.120461 -0.333896 0.916901
0.333484 -0.28437 0.782505
0.41101 -0.106896 0.294172
0.329751 0.112381 -0.309267
0.121266 0.288315 -0.793427
-0.134004 0.353013 -0.971479
-0.337574 0.281518 -0.774726
-0.410901 0.101422 -0.27911
-0.325507 -0.117344 0.322871
-0.108378 -0.275769 0.757282
0.0733428 -0.534413 0.558257
0.203042 -0.455146 0.476429
0.250244 -0.171092 0.179107
0.20077 0.17987 -0.188299
0.073833 0.461458 -0.48308
-0.0815889 0.565014 -0.591488
-0.205533 0.450583 -0.471694
-0.250178 0.16233 -0.169937
-0.198185 -0.187815 0.196581
-0.0659861 -0.441379 0.461072
-0.0020714 -0.52875 -0.0157667
-0.00573444 -0.450323 -0.0134557
-0.00706757 -0.169279 -0.00505848
-0.00567023 0.177964 0.00531804
-0.00208525 0.456569 0.0136435
0.00230426 0.559025 0.0167051
0.00580478 0.445808 0.0133219
0.0070657 0.160609 0.00479944
0.00559728 -0.185825 -0.00555196
0.00186362 -0.436702 -0.0130219
-0.0766864 -0.319091 -0.583708
-0.212298 -0.271762 -0.49815
-0.261652 -0.102157 -0.187273
-0.209922 0.107398 0.196883
-0.0771989 0.275531 0.505104
0.085308 0.337363 0.61845
0.214902 0.269037 0.493198
0.261583 0.0969248 0.177683
0.20722 -0.112142 -0.205543
0.0689944 -0.263542 -0.482092
-0.121715 0.0136755 -0.92645
-0.336949 0.0116306 -0.790635
-0.41528 0.00437158 -0.297229
-0.333177 -0.00459585 0.312481
-0.122526 -0.0117907 0.801673
0.135396 -0.0144366 0.981574
0.341081 -0.0115128 0.782776
0.41517 -0.00414764 0.28201
0.328888 0.00479978 -0.326227
0.109507 0.0112948 -0.765168
-0.119785 0.341166 -0.911761
-0.331273 0.289847 -0.777366
-0.408278 0.108941 -0.292226
-0.327559 -0.114529 0.307218
-0.12046 -0.293825 0.788173
0.133113 -0.359761 0.965044
0.335331 -0.2869 0.769595
0.40817 -0.103359 0.27726
0.323348 0.119621 -0.320767
0.10777 0.281773 -0.753036
-0.0716415 0.537032 -0.545308
-0.187285 0.433436 -0.440116
-0.230672 0.162618 -0.165124
-0.185064 -0.17094 0.173574
-0.0680576 -0.438547 0.445306
0.0752064 -0.53696 0.545235
0.189455 -0.42821 0.434809
0.230611 -0.154253 0.15663
0.182795 0.179216 -0.181978
0.0644555 0.443542 -0.450377
0 0.199467 0
0 0.169364 0
0 0.0635423 0
0 -0.066794 0
0 -0.171361 0
0 -0.209815 0
0 -0.167321 0
0 -0.0602738 0
0 0.0700279 0
0 0.164742 0
0.121104 0.122511 0.405806
0.335265 0.104633 0.34633
0.413205 0.0393354 0.130201
0.331513 -0.0413538 -0.136883
0.121914 -0.106093 -0.351175
-0.13472 -0.129901 -0.429981
-0.339377 -0.103592 -0.342898
-0.413096 -0.0373211 -0.123536
-0.327245 0.0431728 0.142895
-0.108957 0.101183 0.335161
0.195485 -0.00171041 0.655049
0.541182 -0.00145459 0.559043
0.666994 -0.000546777 0.21017
0.535125 0.000574827 -0.220956
0.196792 0.00147473 -0.566865
-0.217463 0.00180568 -0.694073
-0.547819 0.00143997 -0.553503
-0.666817 0.000518773 -0.19941
-0.528235 -0.00060025 0.230661
-0.175877 -0.00141265 0.541014
0.194447 -0.125272 0.651569
0.538308 -0.106896 0.556072
0.663451 -0.040187 0.209054
0.532282 0.0422493 -0.219783
0.195747 0.108391 -0.563854
-0.216308 0.132715 -0.690385
-0.544909 0.105836 -0.550562
-0.663275 0.0381294 -0.198351
-0.525428 -0.0441056 0.229435
-0.174943 -0.103464 0.53814
0.118389 -0.200503 0.396709
0.327749 -0.171092 0.338566
0.403943 -0.0643208 0.127283
0.324081 0.0676218 -0.133815
0.119181 0.173484 -0.343303
-0.1317 0.212415 -0.420342
-0.33177 0.169395 -0.335212
-0.403836 0.0610278 -0.120766
-0.319909 -0.0705929 0.139692
-0.106514 -0.165598 0.327648
-0.00334363 -0.198378 -0.0112041
-0.00925648 -0.169279 -0.00956201
-0.0114084 -0.0636392 -0.00359482
-0.00915286 0.0669053 0.00377928
-0.00336598 0.171645 0.00969581
0.00371954 0.210164 0.0118716
0.00937002 0.1676 0.00946721
0.0114054 0.0603811 0.00341076
0.00903512 -0.0698449 -0.00394528
0.00300825 -0.163843 -0.00925364
-0.123787 -0.119718 -0.414795
-0.342691 -0.102157 -0.354
-0.422357 -0.0384052 -0.133086
-0.338855 0.0403762 0.139916
-0.124614 0.103585 0.358954
0.137704 0.12683 0.439505
0.346894 0.101144 0.350493
0.422245 0.036439 0.126272
0.334493 -0.0421502 -0.146061
0.11137 -0.0988763 -0.342585
-0.196472 0.00513082 -0.658355
-0.5439 0.00437158 -0.561851
-0.670343 0.00164331 -0.211226
-0.537812 -0.00172762 0.222066
-0.197781 -0.00443222 0.569713
0.218556 -0.00542685 0.697559
0.55057 -0.00432775 0.556283
0.670166 -0.00155915 0.200412
0.530889 0.00180391 -0.23182
0.176765 0.00423761 -0.543744
-0.193357 0.128 -0.647916
-0.534738 0.108941 -0.552412
-0.659041 0.0409498 -0.207667
-0.528742 -0.0430508 0.218323
-0.194445 -0.110447 0.56011
0.21487 -0.135232 0.685802
0.541288 -0.107844 0.546907
0.658867 -0.0388525 0.197033
0.521945 0.0449558 -0.227938
0.173962 0.105717 -0.535123
-0.115643 0.201485 -0.387507
-0.302314 0.162618 -0.312755
-0.372349 0.0610115 -0.117341
-0.29873 -0.0641337 0.123345
-0.109858 -0.164536 0.316444
0.121398 -0.201458 0.387456
0.305817 -0.160657 0.308984
0.37225 -0.0578731 0.111305
0.295066 0.0672388 -0.129317
0.104044 0.166409 -0.320047
0 -0.209674 0
0 -0.17803 0
0 -0.066794 0
0 0.0702121 0
0 0.18013 0
0 0.220552 0
0 0.175884 0
0 0.0633582 0
0 -0.0736115 0
0 -0.173173 0
0.120461 -0.12878 0.0839905
0.333484 -0.110001 0.0716799
0.41101 -0.0413538 0.0269477
0.329751 0.0434759 -0.0283307
0.121266 0.111538 -0.0726829
-0.134004 0.136567 -0.0889931
-0.337574 0.108908 -0.0709694
-0.410901 0.0392364 -0.0255681
-0.325507 -0.0453875 0.029575
-0.108378 -0.106361 0.0693689
0.194447 0.00179794 0.135577
0.538308 0.00152923 0.115705
0.663451 0.000574827 0.0434988
0.532282 -0.000604325 -0.0457312
0.195747 -0.00155039 -0.117324
-0.216308 -0.00189833 -0.143652
-0.544909 -0.00151386 -0.114558
-0.663275 -0.000545389 -0.0412719
-0.525428 0.00063104 0.0477396
-0.174943 0.00148494 0.111975
0.193414 0.131682 0.134857
0.535448 0.112381 0.11509
0.659926 0.0422493 0.0432678
0.529453 -0.0444175 -0.0454883
0.194707 -0.113953 -0.1167
-0.215159 -0.139525 -0.142889
-0.542015 -0.111268 -0.11395
-0.659751 -0.0400862 -0.0410526
-0.522638 0.0463684 0.0474861
-0.174014 0.108758 0.11138
0.11776 0.210763 0.0821077
0.326008 0.17987 0.0700728
0.401798 0.0676218 0.0263437
0.322359 -0.0710922 -0.0276957
0.118548 -0.182387 -0.0710534
-0.131 -0.223317 -0.0869981
-0.330008 -0.178088 -0.0693785
-0.401691 -0.0641597 -0.024995
-0.318209 0.0742144 0.028912
-0.105948 0.174072 0.0678139
-0.00332587 0.20853 -0.00231894
-0.00920731 0.177964 -0.00197904
-0.0113477 0.0669053 -0.000744016
-0.00910431 -0.0703388 0.000782198
-0.00334811 -0.180454 0.00200673
0.00369979 -0.22095 0.00245706
0.00932025 -0.176201 0.00195944
0.0113447 -0.0634798 0.000705922
0.00898711 0.0734279 -0.000816552
0.00299227 0.172227 -0.00191525
-0.123129 0.125844 -0.085851
-0.34087 0.107398 -0.0732674
-0.420113 0.0403762 -0.0275447
-0.337055 -0.0424482 0.0289582
-0.123952 -0.108901 0.0742924
0.136972 -0.133339 0.0909642
0.345051 -0.106334 0.0725416
0.420002 -0.0383089 0.0261344
0.332716 0.0443125 -0.03023
0.110779 0.103936 -0.0709055
-0.195428 -0.00539338 -0.136261
-0.541011 -0.00459585 -0.116286
-0.666782 -0.00172762 -0.0437173
-0.534955 0.00181627 0.0459609
-0.19673 0.00465964 0.117913
0.217394 0.00570529 0.144374
0.547646 0.00454982 0.115133
0.666606 0.00163915 0.0414792
0.528068 -0.00189645 -0.0479795
0.175826 -0.00445447 -0.11254
-0.19233 -0.13455 -0.134101
-0.531897 -0.114529 -0.114333
-0.65554 -0.0430508 -0.0429807
-0.525933 0.0452596 0.0451862
-0.193412 0.116114 0.115926
0.213729 0.142171 0.14194
0.538412 0.113377 0.113193
0.655366 0.0408458 0.0407799
0.519173 -0.0472617 -0.0471764
0.173038 -0.111126 -0.110756
-0.115029 -0.211796 -0.0802032
-0.300708 -0.17094 -0.0647317
-0.370371 -0.0641337 -0.0242862
-0.297143 0.0674156 0.025529
-0.109274 0.172955 0.065495
0.120753 0.211768 0.0801925
0.304193 0.168878 0.0639511
0.370273 0.0608347 0.023037
0.293499 -0.0706796 -0.026765
0.103491 -0.174925 -0.0662409
0 -0.537921 0
0 -0.456739 0
0 -0.171361 0
0 0.18013 0
0 0.462125 0
0 0.565829 0
0 0.451232 0
0 0.162546 0
0 -0.188851 0
0 -0.444276 0
0.0733428 -0.330387 -0.270229
0.203042 -0.282209 -0.23062
0.250244 -0.106093 -0.0867008
0.20077 0.111538 0.0911502
0.073833 0.286151 0.233846
-0.0815889 0.350364 0.286324
-0.205533 0.279405 0.228334
-0.250178 0.100661 0.0822621
-0.198185 -0.116442 -0.0951534
-0.0659861 -0.272871 -0.223186
0.118389 0.00461262 -0.436202
0.327749 0.00392324 -0.372265
0.403943 0.00147473 -0.139952
0.324081 -0.00155039 0.147134
0.119181 -0.00397756 0.377473
-0.131699 -0.00487019 0.462181
-0.33177 -0.0038838 0.368576
-0.403836 -0.0013992 0.132786
-0.319909 0.00161893 -0.153596
-0.106514 0.00380963 -0.360265
0.11776 0.337833 -0.433885
0.326008 0.288315 -0.370288
0.401798 0.108391 -0.139208
0.322359 -0.113953 0.146353
0.118548 -0.292349 0.375468
-0.131 -0.357953 0.459725
-0.330008 -0.285458 0.366618
-0.401691 -0.102842 0.132081
-0.318209 0.118958 -0.15278
-0.105948 0.279021 -0.358351
0.0716987 0.540715 -0.264171
0.198491 0.461458 -0.225451
0.244635 0.173484 -0.0847572
0.196269 -0.182387 0.089107
0.0721784 -0.467915 0.228604
-0.0797596 -0.57292 0.279905
-0.200926 -0.456885 0.223216
-0.24457 -0.164602 0.0804179
-0.193743 0.190397 -0.0930206
-0.0645069 0.446584 -0.218183
-0.00202496 0.534985 0.00746091
-0.00560591 0.456569 0.00636729
-0.00690911 0.171645 0.00239377
-0.00554315 -0.180454 -0.00251661
-0.00203848 -0.462956 -0.00645639
0.00225265 -0.566848 -0.00790524
0.00567464 -0.452045 -0.0063042
0.00690728 -0.162858 -0.00227123
0.00547181 0.18838 0.00262715
0.00182185 0.441851 0.00616207
-0.0749674 0.322854 0.276215
-0.207539 0.275531 0.235728
-0.255787 0.103585 0.0886212
-0.205217 -0.108901 -0.0931692
-0.0754684 -0.279386 -0.239026
0.083396 -0.342082 -0.292666
0.210085 -0.272801 -0.233392
0.255719 -0.0982819 -0.0840842
0.202575 0.113684 0.097261
0.0674478 0.266649 0.22813
-0.118987 -0.0138368 0.438403
-0.329395 -0.0117907 0.374135
-0.405972 -0.00443222 0.140655
-0.325709 0.00465964 -0.147873
-0.119779 0.0119543 -0.379369
0.132361 0.014637 -0.464501
0.333436 0.0116726 -0.370427
0.405865 0.00420524 -0.133453
0.321516 -0.00486534 0.154368
0.107052 -0.011428 0.362083
-0.1171 -0.345189 0.431452
-0.323847 -0.293825 0.36785
-0.399126 -0.110447 0.138285
-0.320216 0.116114 -0.145382
-0.11776 0.29789 -0.372976
0.130129 0.364739 -0.456674
0.327814 0.29087 -0.364184
0.399021 0.10479 -0.131204
0.316099 -0.12125 0.151783
0.105354 -0.285096 0.356342
-0.0700356 -0.543364 0.258044
-0.183086 -0.438547 0.208266
-0.225501 -0.164536 0.0781379
-0.180916 0.172955 -0.0821365
-0.066532 0.443719 -0.210722
0.0735205 0.543292 -0.258009
0.185208 0.43326 -0.205755
0.225441 0.156072 -0.0741186
0.178697 -0.181329 0.0861132
0.0630106 -0.448772 0.213122
0 -0.658634 0
0 -0.559234 0
0 -0.209815 0
0 0.220552 0
0 0.565829 0
0 0.692805 0
0 0.552491 0
0 0.199023 0
0 -0.23123 0
0 -0.543975 0
-0.0020714 -0.404528 -0.520192
-0.00573444 -0.345538 -0.443945
-0.00706757 -0.129901 -0.1669
-0.00567023 0.136567 0.175465
-0.00208525 0.350364 0.450157
0.00230426 0.428988 0.551173
0.00580478 0.342105 0.439545
0.0070657 0.12325 0.158354
0.00559728 -0.142572 -0.183171
0.00186362 -0.334105 -0.429634
-0.00334363 0.00564773 -0.83969
-0.00925649 0.00480359 -0.716611
-0.0114084 0.00180568 -0.269408
-0.00915286 -0.00189833 0.283234
-0.00336598 -0.00487019 0.726638
0.00371954 -0.00596307 0.889701
0.00937002 -0.00475536 0.70951
0.0114053 -0.00171318 0.255615
0.00903512 0.00198225 -0.295673
0.00300825 0.00466453 -0.693512
-0.00332587 0.413645 -0.83523
-0.00920731 0.353013 -0.712804
-0.0113477 0.132715 -0.267977
-0.0091043 -0.139525 0.28173
-0.00334811 -0.357953 0.722777
0.00369979 -0.43828 0.884974
0.00932025 -0.349515 0.70574
0.0113447 -0.12592 0.254257
0.00898711 0.145653 -0.294103
0.00299227 0.341635 -0.689828
-0.00202496 0.662055 -0.508531
-0.00560591 0.565013 -0.433992
-0.00690911 0.212415 -0.163159
-0.00554315 -0.223317 0.171531
-0.00203848 -0.57292 0.440065
0.00225265 -0.701484 0.538818
0.00567464 -0.559414 0.429691
0.00690728 -0.20154 0.154805
0.00547181 0.233124 -0.179065
0.00182185 0.5468 -0.420003
5.71903e-05 0.655039 0.0143623
0.000158324 0.559025 0.0122571
0.000195135 0.210164 0.00460799
0.000156554 -0.22095 -0.00484451
5.7573e-05 -0.566848 -0.0124286
-6.36187e-05 -0.694051 -0.0152176
-0.000160271 -0.553486 -0.0121357
-0.000195083 -0.199404 -0.00437211
-0.000154538 0.230653 0.00505727
-5.14539e-05 0.541005 0.011862
0.00211728 0.395304 0.531715
0.00586145 0.337363 0.453778
0.00722414 0.12683 0.170596
0.00579585 -0.133339 -0.179351
0.00213143 -0.342082 -0.460126
-0.00235531 -0.418847 -0.563383
-0.00593338 -0.33402 -0.449282
-0.00722222 -0.120337 -0.161862
-0.00572125 0.139196 0.187229
-0.0019049 0.326487 0.439151
0.00336051 -0.0169418 0.843928
0.009303 -0.0144366 0.720211
0.0114657 -0.00542685 0.270761
0.0091988 0.00570529 -0.284657
0.00338288 0.014637 -0.730287
-0.00373822 0.0179217 -0.894171
-0.00941707 0.014292 -0.713074
-0.0114627 0.00514892 -0.256899
-0.00908047 -0.00595716 0.297159
-0.00302343 -0.0139925 0.697012
0.00330722 -0.422651 0.830547
0.0091463 -0.359761 0.708112
0.0112723 -0.135232 0.266199
0.00904383 0.142171 -0.279859
0.00332586 0.364739 -0.717979
-0.00367519 0.446589 -0.879099
-0.00925828 0.356143 -0.701055
-0.0112694 0.128306 -0.252568
-0.00892749 -0.148459 0.292184
-0.00297549 -0.349073 0.685961
0.00197799 -0.665299 0.496735
0.00517085 -0.53696 0.400913
0.00636876 -0.201458 0.150416
0.00510955 0.211768 -0.158113
0.00187904 0.543292 -0.405641
-0.00207642 0.665211 -0.496669
-0.00523077 0.530486 -0.396079
-0.00636706 0.191096 -0.142679
-0.00504689 -0.222021 0.165768
-0.00177959 -0.54948 0.410261
0 -0.525241 0
0 -0.445973 0
0 -0.167321 0
0 0.175884 0
0 0.451232 0
0 0.552491 0
0 0.440595 0
0 0.158715 0
0 -0.184399 0
0 -0.433804 0
-0.0766864 -0.322599 -0.569461
-0.212298 -0.275557 -0.485992
-0.261652 -0.103592 -0.182707
-0.209922 0.108909 0.192084
-0.0771989 0.279405 0.492793
0.085308 0.342105 0.603376
0.214902 0.272819 0.481175
0.261583 0.0982883 0.173353
0.20722 -0.113697 -0.20052
0.0689944 -0.266439 -0.470326
-0.123787 0.00450389 -0.91922
-0.342691 0.00383074 -0.784483
-0.422357 0.00143997 -0.294924
-0.338855 -0.00151386 0.310059
-0.124614 -0.0038838 0.795461
0.137704 -0.00475536 0.973967
0.346894 -0.00379227 0.776709
0.422245 -0.00136623 0.279825
0.334493 0.00158077 -0.323678
0.11137 0.00371983 -0.759197
-0.123129 0.329869 -0.914337
-0.34087 0.281518 -0.780316
-0.420113 0.105836 -0.293358
-0.337055 -0.111268 0.308412
-0.123952 -0.285458 0.791235
0.136972 -0.349515 0.968793
0.345051 -0.278728 0.772584
0.420002 -0.100418 0.278339
0.332716 0.116154 -0.321958
0.110779 0.272444 -0.755164
-0.0749674 0.527969 -0.556696
-0.207539 0.450583 -0.475097
-0.255787 0.169395 -0.178612
-0.205217 -0.178088 0.187778
-0.0754684 -0.456885 0.481744
0.083396 -0.559414 0.589852
0.210085 -0.446117 0.470389
0.255719 -0.160722 0.169467
0.202575 0.18591 -0.196025
0.0674478 0.436057 -0.459783
0.00211728 0.522374 0.0157226
0.00586145 0.445807 0.0134181
0.00722414 0.1676 0.00504445
0.00579585 -0.176201 -0.00530335
0.00213143 -0.452045 -0.0136057
-0.00235531 -0.553486 -0.016659
-0.00593338 -0.441389 -0.0132851
-0.00722222 -0.159019 -0.0047862
-0.00572125 0.18394 0.00553627
-0.0019049 0.431436 0.0129855
0.0783851 0.315244 0.582075
0.217001 0.269037 0.496758
0.267448 0.101144 0.186754
0.214572 -0.106334 -0.196338
0.0789088 -0.272801 -0.503707
-0.0871977 -0.33402 -0.61674
-0.219663 -0.266371 -0.491835
-0.267378 -0.0959652 -0.177193
-0.21181 0.111004 0.204962
-0.0705226 0.260364 0.480744
0.124411 -0.0135106 0.923859
0.344412 -0.0115128 0.788424
0.424478 -0.00432775 0.296405
0.340556 0.00454982 -0.311617
0.12524 0.0116726 -0.799456
-0.138395 0.014292 -0.978859
-0.348636 0.0113974 -0.780611
-0.424366 0.00410611 -0.281231
-0.336173 -0.00475065 0.325304
-0.111932 -0.0111586 0.763028
0.122439 -0.337052 0.909211
0.338611 -0.2869 0.775181
0.417322 -0.107844 0.291412
0.334815 0.113377 -0.306365
0.123128 0.29087 -0.785982
-0.136062 0.356143 -0.962361
-0.342757 0.284013 -0.767454
-0.417211 0.10232 -0.27649
-0.33051 -0.118392 0.319856
-0.110158 -0.278376 0.75093
0.0732284 -0.530556 0.543783
0.191433 -0.42821 0.438885
0.235782 -0.160657 0.164662
0.189164 0.168878 -0.173089
0.0695651 0.43326 -0.44406
-0.0768723 0.530486 -0.543711
-0.193652 0.423047 -0.433593
-0.235719 0.152393 -0.156192
-0.186844 -0.177055 0.181469
-0.0658832 -0.438194 0.449118
0 -0.189206 0
0 -0.160652 0
0 -0.0602738 0
0 0.0633582 0
0 0.162546 0
0 0.199023 0
0 0.158715 0
0 0.0571734 0
0 -0.0664258 0
0 -0.156268 0
-0.121715 -0.116209 -0.399028
-0.336949 -0.0992738 -0.340549
-0.41528 -0.0373211 -0.128028
-0.333177 0.0392364 0.134599
-0.122526 0.100661 0.345314
0.135396 0.12325 0.422805
0.341081 0.0982884 0.337175
0.41517 0.0354102 0.121474
0.328888 -0.040961 -0.14051
0.109507 -0.0959787 -0.329563
-0.196472 0.00162243 -0.644108
-0.5439 0.00138009 -0.54971
-0.670343 0.000518774 -0.206663
-0.537812 -0.00054539 0.217268
-0.197781 -0.0013992 0.557404
0.218556 -0.00171319 0.682488
0.550571 -0.00136624 0.544265
0.670166 -0.000492211 0.196082
0.530889 0.000569497 -0.22681
0.176765 0.00133998 -0.531978
-0.195428 0.118828 -0.640686
-0.541011 0.101422 -0.54679
-0.666782 0.0381295 -0.205565
-0.534955 -0.0400863 0.216114
-0.19673 -0.102842 0.554443
0.217394 -0.12592 0.678863
0.547646 -0.100418 0.541374
0.666606 -0.0361775 0.19504
0.528068 0.0418463 -0.225605
0.175826 0.0981417 -0.529152
-0.118987 0.190189 -0.390083
-0.329395 0.16233 -0.332916
-0.405972 0.0610279 -0.125159
-0.325709 -0.0641598 0.131582
-0.119779 -0.164603 0.337574
0.132361 -0.20154 0.413327
0.333436 -0.160722 0.329617
0.405865 -0.0579034 0.118751
0.321516 0.0669767 -0.13736
0.107052 0.15708 -0.322175
0.00336051 0.188174 0.011017
0.009303 0.16061 0.0094024
0.0114657 0.0603811 0.00353481
0.0091988 -0.0634799 -0.00371621
0.00338288 -0.162858 -0.00953393
-0.00373822 -0.199405 -0.0116734
-0.00941707 -0.159019 -0.00930922
-0.0114626 -0.0572898 -0.00335385
-0.00908047 0.0662669 0.00387943
-0.00302343 0.155415 0.00909909
0.124411 0.113559 0.407867
0.344412 0.096925 0.348092
0.424478 0.0364391 0.130864
0.340556 -0.038309 -0.13758
0.12524 -0.098282 -0.352963
-0.138395 -0.120337 -0.43217
-0.348636 -0.0959653 -0.344643
-0.424366 -0.0345734 -0.124165
-0.336173 0.0399908 0.143623
-0.111932 0.0937903 0.336863
0.197463 -0.0048669 0.647359
0.546631 -0.00414765 0.552472
0.673709 -0.00155915 0.207701
0.540513 0.00163915 -0.21836
0.198774 0.00420525 -0.560204
-0.219653 0.00514893 -0.685916
-0.553336 0.00410611 -0.546998
-0.673531 0.0014793 -0.197067
-0.533556 -0.00171148 0.22795
-0.177657 -0.00401964 0.534662
0.194333 -0.121415 0.637095
0.537424 -0.103359 0.543191
0.662352 -0.0388525 0.204201
0.531399 0.0408459 -0.214679
0.195422 0.10479 -0.550761
-0.215949 0.128306 -0.674357
-0.544006 0.10232 -0.53778
-0.662176 0.0368626 -0.193745
-0.524567 -0.042652 0.224133
-0.17484 -0.100279 0.526185
0.116227 -0.191121 0.381035
0.303839 -0.154253 0.307532
0.374228 -0.0578731 0.115381
0.300237 0.0608347 -0.121285
0.110412 0.156072 -0.311158
-0.12201 0.191096 -0.380984
-0.30736 0.152393 -0.303824
-0.374129 0.0548962 -0.109446
-0.296555 -0.0637801 0.127157
-0.104569 -0.15785 0.314702
0 0.219826 0
0 0.18665 0
0 0.0700279 0
0 -0.0736115 0
0 -0.188851 0
0 -0.23123 0
0 -0.184399 0
0 -0.0664257 0
0 0.0771754 0
0 0.181557 0
-0.119785 0.135015 -0.074647
-0.331273 0.11486 -0.0640986
-0.408278 0.0431709 -0.0241056
-0.327559 -0.0453856 0.0253435
-0.12046 -0.116437 0.0650186
0.133113 -0.142566 0.0796093
0.335331 -0.113692 0.0634861
0.40817 -0.0409592 0.0228727
0.323348 0.0474031 -0.0264377
0.10777 0.111511 -0.061652
-0.193357 -0.00188498 -0.120495
-0.534738 -0.00159708 -0.103467
-0.659041 -0.000600222 -0.0389112
-0.528742 0.000631008 0.0409093
-0.194445 0.00161885 0.104953
0.21487 0.00198214 0.128505
0.541288 0.0015807 0.102479
0.658867 0.000569467 0.0369209
0.521945 -0.000659198 -0.0426756
0.173962 -0.00155683 -0.0995182
-0.19233 -0.138058 -0.119855
-0.531897 -0.117339 -0.102918
-0.65554 -0.0441036 -0.0387044
-0.525933 0.0463662 0.040692
-0.193412 0.118953 0.104395
0.213729 0.145647 0.127822
0.538412 0.116149 0.101935
0.655366 0.0418443 0.0367248
0.519173 -0.0484258 -0.0424489
0.173038 -0.114024 -0.0989895
-0.1171 -0.220967 -0.0729737
-0.323846 -0.187807 -0.0626618
-0.399126 -0.0705897 -0.0235653
-0.320216 0.074211 0.0247753
-0.11776 0.190388 0.0635611
0.130129 0.233113 0.0778247
0.327814 0.185901 0.0620631
0.399021 0.0669735 0.0223599
0.316099 -0.0775071 -0.0258451
0.105354 -0.1825 -0.06027
0.00330722 -0.218626 0.00206097
0.00914631 -0.185816 0.00176974
0.0112724 -0.0698417 0.000665546
0.00904383 0.0734246 -0.00069972
0.00332586 0.188371 -0.00179514
-0.00367519 0.230643 -0.00219798
-0.00925828 0.183931 -0.00175282
-0.0112694 0.0662637 -0.000631504
-0.00892749 -0.0766857 0.000729935
-0.00297549 -0.180566 0.00170218
0.122439 -0.131937 0.0763005
0.33861 -0.112137 0.0655185
0.417322 -0.0421483 0.0246396
0.334815 0.0443104 -0.0259048
0.123128 0.113679 -0.0664588
-0.136062 0.139189 -0.0813728
-0.342757 0.110999 -0.0648922
-0.417211 0.039989 -0.0233793
-0.33051 -0.0462785 0.0270234
-0.110158 -0.108968 0.0630176
0.194333 0.00565451 0.121103
0.537424 0.00479958 0.103987
0.662352 0.00180383 0.0391065
0.531399 -0.00189636 -0.0411145
0.195422 -0.00486513 -0.105479
-0.215949 -0.00595689 -0.129149
-0.544006 -0.00475044 -0.102993
-0.662176 -0.0017114 -0.0371061
-0.524567 0.00198096 0.0428899
-0.17484 0.00467013 0.10002
0.191251 0.141064 0.119183
0.528385 0.119616 0.102225
0.651199 0.0449538 0.0384411
0.522453 -0.0472596 -0.0404149
0.192132 -0.121245 -0.103684
-0.212314 -0.148453 -0.126952
-0.534847 -0.118387 -0.101241
-0.651027 -0.0426501 -0.0364746
-0.515744 0.0493718 0.0421656
-0.172068 0.116507 0.0984345
0.114384 0.22205 0.0712809
0.299022 0.179216 0.0575306
0.368295 0.0672388 0.0215845
0.295477 -0.0706796 -0.022689
0.108662 -0.181329 -0.058209
-0.120076 -0.222021 -0.0712715
-0.302487 -0.177055 -0.0568369
-0.368197 -0.0637801 -0.0204742
-0.291853 0.0741016 0.0237876
-0.102911 0.183394 0.0588719
0 0.544047 0
0 0.439099 0
0 0.164742 0
0 -0.173173 0
0 -0.444276 0
0 -0.543975 0
0 -0.433804 0
0 -0.156268 0
0 0.181557 0
0 0.449336 0
-0.0716415 0.33415 0.278534
-0.187285 0.269691 0.224804
-0.230672 0.101184 0.0843425
-0.185064 -0.106361 -0.0886586
-0.0680576 -0.272871 -0.227455
0.0752064 -0.334105 -0.278497
0.189455 -0.266439 -0.222093
0.230611 -0.0959788 -0.080004
0.182795 0.111511 0.0929511
0.0644555 0.275979 0.230045
-0.115643 -0.00466516 0.449607
-0.302314 -0.00376523 0.362876
-0.372349 -0.00141265 0.136145
-0.29873 0.00148494 -0.143112
-0.109858 0.00380963 -0.367155
0.121398 0.00466453 -0.449548
0.305817 0.00371983 -0.358501
0.37225 0.00133998 -0.129142
0.295066 -0.00155683 0.150041
0.104044 -0.00385302 0.371337
-0.115029 -0.34168 0.447219
-0.300708 -0.275769 0.360949
-0.370371 -0.103464 0.135422
-0.297143 0.108758 -0.142352
-0.109274 0.279021 -0.365205
0.120753 0.341635 -0.447159
0.304193 0.272444 -0.356596
0.370273 0.0981417 -0.128456
0.293499 -0.114024 0.149244
0.103491 -0.282198 0.369364
-0.0700356 -0.546873 0.27229
-0.183086 -0.441379 0.219764
-0.225501 -0.165598 0.0824519
-0.180916 0.174072 -0.0866712
-0.066532 0.446584 -0.222356
0.0735205 0.5468 -0.272254
0.185208 0.436057 -0.217114
0.225441 0.15708 -0.0782106
0.178697 -0.1825 0.0908675
0.0630106 -0.45167 0.224888
0.00197799 -0.541078 -0.0076902
0.00517085 -0.436702 -0.00620673
0.00636875 -0.163843 -0.00232866
0.00510955 0.172227 0.00244782
0.00187904 0.441851 0.00627992
-0.00207642 0.541005 0.00768918
-0.00523077 0.431436 0.00613189
-0.00636706 0.155415 0.00220888
-0.00504689 -0.180566 -0.00256634
-0.00177959 -0.446883 -0.00635144
0.0732284 -0.326531 -0.284704
0.191433 -0.263542 -0.229783
0.235782 -0.0988764 -0.0862108
0.189164 0.103936 0.0906224
0.0695651 0.266649 0.232493
-0.0768723 0.326487 0.284666
-0.193652 0.260364 0.227013
-0.235719 0.0937903 0.0817762
-0.186844 -0.108968 -0.09501
-0.0658832 -0.269686 -0.235141
0.116227 0.0139944 -0.451876
0.303839 0.0112948 -0.364708
0.374228 0.00423762 -0.136832
0.300237 -0.00445447 0.143834
0.110412 -0.011428 0.369008
-0.12201 -0.0139925 0.451816
-0.30736 -0.0111586 0.36031
-0.374129 -0.00401964 0.129794
-0.296555 0.00467014 -0.150798
-0.104569 0.0115581 -0.373211
0.114384 0.34912 -0.444712
0.299022 0.281773 -0.358925
0.368295 0.105717 -0.134663
0.295477 -0.111126 0.141554
0.108662 -0.285096 0.363158
-0.120076 -0.349073 0.444653
-0.302487 -0.278376 0.354597
-0.368197 -0.100279 0.127736
-0.291853 0.116507 -0.148407
-0.102911 0.288343 -0.367294
0.068411 0.549553 -0.265974
0.17884 0.443542 -0.214667
0.22027 0.166409 -0.0805393
0.176719 -0.174925 0.0846607
0.0649887 -0.448772 0.217198
-0.0718152 -0.54948 0.265939
-0.180912 -0.438194 0.212078
-0.220212 -0.15785 0.0763964
-0.174552 0.183394 -0.0887597
-0.061549 0.453883 -0.219672
