# vtk DataFile Version 3.0
Velocity field
ASCII
DATASET STRUCTURED_POINTS
DIMENSIONS 5 5 5
SPACING 1.33333 1.33333 1.33333
ORIGIN 0 0 0
POINT_DATA 125
VECTORS velocity float
0 0.414953 0
0 0.0976126 0
0 -0.369029 0
0 -0.271232 0
0 0.241421 0
0 -0.219728 0.720649
0 -0.0516883 0.195372
0 0.19541 -0.738612
0 0.143624 -0.542871
0 -0.127839 0.419276
0 -0.51833 0.339048
0 -0.121931 0.0919176
0 0.460965 -0.347499
0 0.338803 -0.255407
0 -0.301566 0.197259
0 -0.0241333 -0.561136
0 -0.00567707 -0.152127
0 0.0214624 0.575123
0 0.0157746 0.422708
0 -0.0140409 -0.326471
0 0.506976 -0.603048
0 0.11926 -0.14186
0 -0.450867 0.536307
0 -0.331381 0.394179
0 0.29496 -0.350856
0 0.0976126 0
0 0.0292181 0
0 -0.11046 0
0 -0.0811869 0
0 0.0567913 0
0.308435 -0.0516883 0.25308
0.474995 -0.0126691 0.0624539
-0.0995643 0.0479399 -0.236361
-0.521881 0.0352418 -0.173759
-0.139369 -0.0300724 0.147243
0.145111 -0.121931 0.119068
0.223474 -0.029984 0.0293831
-0.0468429 0.113467 -0.111202
-0.245532 0.0834133 -0.0817498
-0.0655697 -0.0709396 0.069274
-0.240164 -0.00567707 -0.197061
-0.369762 -0.00140259 -0.0486175
0.0775064 0.0053086 0.183994
0.40626 0.00390265 0.135263
0.10852 -0.00330294 -0.114651
-0.258102 0.11926 -0.21178
-0.379533 0.0280544 -0.0498186
0.0795416 -0.106061 0.188342
0.416956 -0.0779534 0.138429
0.116626 0.0693857 -0.123214
0 -0.369029 0
0 -0.11046 0
0 0.417601 0
0 0.306931 0
0 -0.214702 0
0.145111 0.19541 -0.601582
0.223474 0.0479399 -0.14808
-0.0468429 -0.18141 0.560392
-0.245532 -0.13336 0.411966
-0.0655697 0.11369 -0.350003
0.0682712 0.460965 -0.283029
0.105139 0.113467 -0.0696681
-0.0220383 -0.429403 0.263652
-0.115517 -0.31567 0.19382
-0.0308489 0.268191 -0.164667
-0.112991 0.0214624 0.468424
-0.173964 0.0053086 0.115275
0.0364649 -0.020093 -0.436241
0.191135 -0.0147716 -0.320697
0.051056 0.0124869 0.272531
-0.121431 -0.450867 0.503411
-0.178561 -0.106061 0.118421
0.0374223 0.400968 -0.447697
0.196167 0.294706 -0.329051
0.0548695 -0.262316 0.292886
0 -0.271232 0
0 -0.081187 0
0 0.306931 0
0 0.22559 0
0 -0.157803 0
-0.240164 0.143624 -0.536109
-0.369762 0.0352419 -0.131985
0.0775064 -0.133361 0.499482
0.40626 -0.0980373 0.367188
0.10852 0.0835608 -0.31191
-0.112991 0.338803 -0.252226
-0.173964 0.0834137 -0.0620954
0.0364649 -0.315671 0.234994
0.191135 -0.232063 0.172754
0.051056 0.197117 -0.146746
0.187005 0.0157746 0.417443
0.287845 0.00390267 0.102745
-0.0603352 -0.0147717 -0.388824
-0.316255 -0.0108597 -0.285839
-0.0844996 0.00917771 0.24287
0.200972 -0.331381 0.448622
0.295525 -0.0779534 0.105533
-0.0619353 0.294706 -0.398972
-0.324664 0.216605 -0.293239
-0.090811 -0.192799 0.26101
0 0.241421 0
0 0.0567913 0
0 -0.214702 0
0 -0.157803 0
0 0.14046 0
-0.258102 -0.127839 0.349356
-0.379533 -0.0300724 0.0821816
0.0795415 0.11369 -0.310692
0.416955 0.0835608 -0.228354
0.116626 -0.0743769 0.203257
-0.121431 -0.301566 0.164363
-0.178561 -0.0709397 0.0386644
0.0374223 0.268191 -0.146173
0.196167 0.197117 -0.107435
0.0548695 -0.175452 0.0956272
0.200972 -0.0140409 -0.272027
0.295525 -0.00330294 -0.063991
-0.0619353 0.0124869 0.241921
-0.324664 0.00917772 0.177809
-0.090811 -0.00816902 -0.158266
0.215983 0.29496 -0.292345
0.317598 0.0693857 -0.0687706
-0.0665613 -0.262316 0.25999
-0.348913 -0.192799 0.19109
-0.0975938 0.171609 -0.170088
