# vtk DataFile Version 3.0
Velocity field
ASCII
DATASET STRUCTURED_POINTS
DIMENSIONS 5 5 5
SPACING 1.33333 1.33333 1.33333
ORIGIN 0 0 0
POINT_DATA 125
VECTORS velocity float
0 0.549899 0
0 0.129357 0
0 -0.48904 0
0 -0.359438 0
0 0.319933 0
0 -0.291185 0.95501
0 -0.0684977 0.258908
0 0.258959 -0.978814
0 0.190331 -0.719416
0 -0.169413 0.555628
0 -0.686894 0.449308
0 -0.161583 0.12181
0 0.610873 -0.460508
0 0.448984 -0.338467
0 -0.399638 0.261409
0 -0.0319817 -0.743621
0 -0.00752329 -0.2016
0 0.0284421 0.762156
0 0.0209046 0.560175
0 -0.018607 -0.432642
0 0.671848 -0.799164
0 0.158044 -0.187993
0 -0.597492 0.710717
0 -0.439149 0.522368
0 0.390884 -0.464956
0 0.129357 0
0 0.03872 0
0 -0.146383 0
0 -0.10759 0
0 0.0752603 0
0.408741 -0.0684977 0.335383
0.641159 -0.0170553 0.0842847
-0.134415 0.0645927 -0.319293
-0.704506 0.0474918 -0.234772
-0.184693 -0.0398522 0.195127
0.192302 -0.161583 0.157789
0.30165 -0.0404045 0.0396541
-0.0632393 0.153037 -0.150219
-0.331454 0.112523 -0.110455
-0.0868934 -0.0940097 0.0918023
-0.318267 -0.00752329 -0.261147
-0.498993 -0.00189786 -0.0655965
0.104611 0.00719136 0.248491
0.548296 0.00528801 0.182712
0.143812 -0.00437707 -0.151936
-0.342039 0.158044 -0.280652
-0.50296 0.0371778 -0.06602
0.105409 -0.140553 0.249592
0.552552 -0.103304 0.183447
0.154553 0.0919505 -0.163285
0 -0.48904 0
0 -0.146383 0
0 0.553407 0
0 0.406747 0
0 -0.284525 0
0.192302 0.258959 -0.797221
0.30165 0.0645927 -0.199721
-0.0632393 -0.244647 0.756542
-0.331454 -0.17988 0.556271
-0.0868934 0.150663 -0.463826
0.0904735 0.610873 -0.375072
0.141919 0.153037 -0.0939645
-0.0297525 -0.579702 0.355936
-0.155942 -0.426245 0.261712
-0.0408812 0.355408 -0.218218
-0.149737 0.0284421 0.620758
-0.234765 0.00719136 0.15544
0.049217 -0.0272525 -0.588794
0.25796 -0.02004 -0.432926
0.0676598 0.0165477 0.361159
-0.160921 -0.597492 0.667124
-0.23663 -0.140553 0.156933
0.0495923 0.531366 -0.593291
0.259962 0.390547 -0.436061
0.0727134 -0.347623 0.388135
0 -0.359438 0
0 -0.10759 0
0 0.406747 0
0 0.298954 0
0 -0.209122 0
-0.318267 0.190331 -0.710455
-0.498994 0.0474921 -0.178037
0.104611 -0.179881 0.674411
0.548296 -0.13226 0.495883
0.143812 0.110735 -0.413345
-0.149737 0.448984 -0.334251
-0.234765 0.112524 -0.0837627
0.049217 -0.426248 0.317296
0.25796 -0.313413 0.233302
0.0676598 0.26122 -0.194469
0.24782 0.0209046 0.553198
0.388355 0.00528805 0.138564
-0.0814153 -0.0200401 -0.524873
-0.426723 -0.0147365 -0.385928
-0.111979 0.0121624 0.321853
0.26633 -0.439149 0.594518
0.391631 -0.103304 0.139853
-0.0820771 0.390547 -0.52872
-0.430247 0.287047 -0.388603
-0.120343 -0.255498 0.345892
0 0.319933 0
0 0.0752603 0
0 -0.284525 0
0 -0.209122 0
0 0.186138 0
-0.342039 -0.169413 0.462969
-0.50296 -0.0398522 0.108908
0.105409 0.150663 -0.411731
0.552552 0.110735 -0.302617
0.154553 -0.0985648 0.269357
-0.160921 -0.399638 0.217815
-0.23663 -0.0940097 0.0512383
0.0495923 0.355408 -0.193709
0.259962 0.261221 -0.142374
0.0727134 -0.232511 0.126726
0.26633 -0.018607 -0.360492
0.391631 -0.00437707 -0.0848013
-0.082077 0.0165477 0.320595
-0.430247 0.0121624 0.235633
-0.120343 -0.0108256 -0.209736
0.286223 0.390884 -0.387418
0.420883 0.0919505 -0.0911353
-0.0882075 -0.347623 0.344541
-0.462382 -0.255498 0.253233
-0.129332 0.227417 -0.225401
