# vtk DataFile Version 3.0
Velocity field
ASCII
DATASET STRUCTURED_POINTS
DIMENSIONS 10 10 10
SPACING 0.631579 0.631579 0.631579
ORIGIN 0 0 0
POINT_DATA 1000
VECTORS velocity float
0 0.57998 0
0 0.4681 0
0 0.175623 0
0 -0.18461 0
0 -0.47362 0
0 -0.579903 0
0 -0.462456 0
0 -0.166589 0
0 0.193548 0
0 0.479014 0
0 0.356219 0.454312
0 0.287503 0.381051
0 0.107866 0.142964
0 -0.113386 -0.15028
0 -0.290894 -0.385544
0 -0.356172 -0.472063
0 -0.284037 -0.376456
0 -0.102318 -0.13561
0 0.118876 0.157556
0 0.294207 0.375223
0 -0.00497327 0.733347
0 -0.00401391 0.61509
0 -0.00150595 0.230771
0 0.00158302 -0.24258
0 0.00406124 -0.622343
0 0.00497261 -0.762001
0 0.00396551 -0.607673
0 0.00142849 -0.218901
0 -0.00165966 0.254325
0 -0.0041075 0.605682
0 -0.364247 0.729451
0 -0.293983 0.611822
0 -0.110297 0.229545
0 0.115942 -0.241292
0 0.297449 -0.619037
0 0.364199 -0.757953
0 0.290438 -0.604445
0 0.104624 -0.217738
0 -0.121555 0.252974
0 -0.300837 0.602464
0 -0.582992 0.444128
0 -0.470531 0.372509
0 -0.176535 0.139759
0 0.185569 -0.146911
0 0.476079 -0.376902
0 0.582915 -0.461481
0 0.464857 -0.368017
0 0.167454 -0.13257
0 -0.194554 0.154024
0 -0.481501 0.366811
0 -0.576814 -0.0125434
0 -0.465544 -0.0105207
0 -0.174664 -0.00394717
0 0.183603 0.00414915
0 0.471034 0.0106447
0 0.576737 0.0130335
0 0.459931 0.0103938
0 0.16568 0.00374413
0 -0.192492 -0.00435004
0 -0.476399 -0.0103597
0 -0.348097 -0.464375
0 -0.280948 -0.389491
0 -0.105407 -0.146131
0 0.110801 0.153609
0 0.284261 0.394084
0 0.348051 0.482519
0 0.27756 0.384795
0 0.0999849 0.138614
0 -0.116165 -0.161046
0 -0.287498 -0.383534
0 0.0149186 -0.737048
0 0.0120408 -0.618194
0 0.0045175 -0.231936
0 -0.00474867 0.243805
0 -0.0121828 0.625484
0 -0.0149167 0.765846
0 -0.0118956 0.61074
0 -0.00428512 0.220005
0 0.00497859 -0.255609
0 0.0123215 -0.608738
0 0.372178 -0.725362
0 0.300384 -0.608392
0 0.112699 -0.228258
0 -0.118466 0.239939
0 -0.303926 0.615566
0 -0.372129 0.753703
0 -0.296762 0.601056
0 -0.106902 0.216517
0 0.124202 -0.251556
0 0.307387 -0.599086
0 0.585849 -0.433826
0 0.472837 -0.350139
0 0.1774 -0.131366
0 -0.186478 0.138089
0 -0.478412 0.354268
0 -0.585771 0.433768
0 -0.467135 0.345917
0 -0.168275 0.124609
0 0.195507 -0.144774
0 0.483861 -0.358303
0 0.4681 0
0 0.397455 0
0 0.149118 0
0 -0.156749 0
0 -0.402142 0
0 -0.492385 0
0 -0.392662 0
0 -0.141448 0
0 0.164338 0
0 0.38661 0
0.0660564 0.287503 0.502796
0.181364 0.243332 0.425809
0.223488 0.0914262 0.159997
0.179302 -0.0961128 -0.168198
0.0659385 -0.246578 -0.431515
-0.0728648 -0.301911 -0.52835
-0.183556 -0.240765 -0.421343
-0.223429 -0.0867364 -0.15179
-0.177023 0.100463 0.17579
-0.0594306 0.237453 0.415266
0.106628 -0.00401391 0.811609
0.292756 -0.00338367 0.687336
0.360753 -0.00127119 0.258265
0.289429 0.00133635 -0.271505
0.106438 0.00342843 -0.696547
-0.117618 0.00419775 -0.852858
-0.296294 0.0033476 -0.680128
-0.360657 0.00120598 -0.245019
-0.285749 -0.00139714 0.283759
-0.0959324 -0.00331514 0.670319
0.106061 -0.293983 0.807298
0.291201 -0.248543 0.683685
0.358837 -0.0933835 0.256893
0.287891 0.0981709 -0.270063
0.105872 0.251858 -0.692846
-0.116993 0.308376 -0.848327
-0.294721 0.245921 -0.676515
-0.358742 0.0885938 -0.243718
-0.284232 -0.102614 0.282252
-0.0954228 -0.242804 0.666758
0.0645756 -0.470531 0.491525
0.177298 -0.397804 0.416263
0.218478 -0.149464 0.15641
0.175283 0.157126 -0.164428
0.0644602 0.403107 -0.421841
-0.0712317 0.493568 -0.516506
-0.179442 0.393607 -0.411898
-0.21842 0.141798 -0.148388
-0.173054 -0.164238 0.171849
-0.0580983 -0.388618 0.405957
-0.00182379 -0.465544 -0.013882
-0.00500737 -0.393588 -0.0117564
-0.00617041 -0.14788 -0.00441745
-0.00495044 0.155461 0.00464388
-0.00182054 0.398837 0.0119139
0.00201175 0.488338 0.0145875
0.0050679 0.389436 0.0116331
0.00616877 0.140295 0.00419086
0.00488753 -0.162498 -0.00485347
0.00164085 -0.384499 -0.0114653
-0.0675196 -0.280948 -0.513933
-0.185381 -0.237523 -0.435241
-0.228438 -0.0892435 -0.163541
-0.183274 0.0938179 0.171924
-0.0673991 0.24069 0.441073
0.0744784 0.294703 0.540052
0.187622 0.235018 0.430677
0.228378 0.0846655 0.155153
0.180944 -0.0980646 -0.179684
0.060747 -0.232039 -0.424464
-0.107166 0.0120408 -0.815705
-0.294229 0.0101704 -0.690794
-0.362568 0.00382105 -0.259564
-0.290885 -0.0040169 0.272871
-0.106973 -0.0103054 0.700053
0.11821 -0.012618 0.85715
0.297785 -0.0100625 0.68355
0.362472 -0.00362503 0.246252
0.287187 0.00419918 -0.285188
0.0964165 0.00994464 -0.673702
-0.105467 0.300384 -0.802772
-0.289348 0.253487 -0.679361
-0.356549 0.0952328 -0.25526
-0.286056 -0.100114 0.268344
-0.105197 -0.256843 0.688439
0.116247 -0.31448 0.84293
0.292843 -0.250789 0.672212
0.356455 -0.0903469 0.242167
0.282422 0.104664 -0.280476
0.0948878 0.248091 -0.66302
-0.0630777 0.472837 -0.480123
-0.164897 0.381625 -0.387506
-0.203098 0.143179 -0.145386
-0.162942 -0.150506 0.152825
-0.0599222 -0.386125 0.392075
0.0662165 -0.472774 0.48006
0.166808 -0.377023 0.382833
0.203044 -0.135814 0.137907
0.160944 0.157793 -0.160225
0.0567507 0.390522 -0.396541
0 0.175623 0
0 0.149118 0
0 0.0559467 0
0 -0.0588096 0
0 -0.150877 0
0 -0.184734 0
0 -0.14732 0
0 -0.0530688 0
0 0.061657 0
0 0.145049 0
0.106628 0.107866 0.357297
0.292756 0.0914262 0.302537
0.360753 0.0343535 0.113679
0.289429 -0.0361145 -0.119507
0.106438 -0.092652 -0.306596
-0.117618 -0.113444 -0.375398
-0.296294 -0.0904681 -0.299368
-0.360657 -0.0325915 -0.107849
-0.285749 0.0377439 0.124897
-0.0959324 0.0890883 0.295097
0.172118 -0.00150595 0.576746
0.472565 -0.00127119 0.488354
0.582325 -0.000477599 0.1835
0.467194 0.000502077 -0.192907
0.17181 0.00128809 -0.494905
-0.189858 0.00157716 -0.605964
-0.478276 0.00125773 -0.483239
-0.58217 0.000453099 -0.174089
-0.461254 -0.000524853 0.201608
-0.154853 -0.00124379 0.476343
0.171203 -0.110297 0.573682
0.470055 -0.0933835 0.485759
0.579232 -0.035089 0.182525
0.464712 0.0368877 -0.191882
0.170898 0.0946358 -0.492276
-0.188849 0.115873 -0.602745
-0.475736 0.0924053 -0.480671
-0.579078 0.0332894 -0.173164
-0.458803 -0.0385519 0.200537
-0.154031 -0.091096 0.473812
0.104237 -0.176535 0.349288
0.286194 -0.149464 0.295755
0.352667 -0.0561613 0.111131
0.282941 0.0590405 -0.116828
0.104051 0.151469 -0.299722
-0.114981 0.185459 -0.366983
-0.289654 0.147898 -0.292658
-0.352573 0.0532811 -0.105431
-0.279343 -0.0617039 0.122097
-0.0937819 -0.145803 0.288482
-0.00294394 -0.174664 -0.00986482
-0.00808284 -0.14788 -0.00835295
-0.00996021 -0.0555661 -0.00313864
-0.00799096 0.0584149 0.00329953
-0.00293869 0.149863 0.00846502
0.00324737 0.183494 0.0103646
0.00818056 0.146331 0.00826542
0.00995757 0.0527164 0.00297766
0.00788943 -0.0610501 -0.00344835
0.00264865 -0.144258 -0.00814749
-0.10899 -0.105407 -0.365211
-0.29924 -0.0892435 -0.309238
-0.368744 -0.0335332 -0.116197
-0.295838 0.0352524 0.122154
-0.108795 0.0904401 0.313388
0.120223 0.110735 0.383713
0.302858 0.0883085 0.306
0.368646 0.0318135 0.110238
0.292078 -0.0368426 -0.127663
0.0980573 -0.087057 -0.301633
-0.172986 0.0045175 -0.579657
-0.474942 0.00382105 -0.490811
-0.585254 0.00143568 -0.184423
-0.469544 -0.00150927 0.193878
-0.172675 -0.00387205 0.497395
0.190813 -0.00474097 0.609013
0.480683 -0.00378078 0.48567
0.585098 -0.00136204 0.174965
0.463575 0.00157755 -0.202622
0.155635 0.00373106 -0.478747
-0.170243 0.112699 -0.570466
-0.467063 0.0952328 -0.482683
-0.57554 0.0357805 -0.181364
-0.461749 -0.0376146 0.190661
-0.169808 -0.0965004 0.489141
0.187645 -0.118156 0.598906
0.472704 -0.0942259 0.477611
0.575387 -0.0339452 0.172061
0.455883 0.0393191 -0.199275
0.153167 0.0930795 -0.471156
-0.10182 0.1774 -0.341186
-0.266176 0.143179 -0.27537
-0.32784 0.0537184 -0.103314
-0.26302 -0.0564673 0.108601
-0.0967259 -0.144867 0.278617
0.106886 -0.177377 0.34114
0.269261 -0.141453 0.272049
0.327753 -0.0509552 0.0979996
0.259795 0.0592012 -0.113859
0.0916065 0.146517 -0.28179
0 -0.18461 0
0 -0.156749 0
0 -0.0588096 0
0 0.0618191 0
0 0.158598 0
0 0.194188 0
0 0.154859 0
0 0.0557845 0
0 -0.0648122 0
0 -0.152472 0
0.106061 -0.113386 0.0739505
0.291201 -0.0961128 0.0626161
0.358837 -0.0361145 0.023528
0.287891 0.0379659 -0.0247342
0.105872 0.0974022 -0.063456
-0.116993 0.119259 -0.0776959
-0.294721 0.095106 -0.0619601
-0.358742 0.0342624 -0.0223214
-0.284232 -0.0396784 0.0258498
-0.0954228 -0.0936472 0.0610768
0.171203 0.00158302 0.11937
0.470055 0.00133635 0.101074
0.579232 0.000502077 0.0379788
0.464712 -0.000527816 -0.0399259
0.170898 -0.0013541 -0.10243
-0.188849 -0.00165799 -0.125416
-0.475736 -0.0013222 -0.100015
-0.579078 -0.000476321 -0.0360311
-0.458803 0.000551752 0.0417266
-0.154031 0.00130743 0.0985897
0.170294 0.115942 0.118736
0.467558 0.0981709 0.100537
0.576155 0.0368877 0.037777
0.462243 -0.0387789 -0.0397138
0.16999 -0.0994875 -0.101886
-0.187846 -0.121813 -0.12475
-0.47321 -0.0971425 -0.0994842
-0.576002 -0.034996 -0.0358397
-0.456366 0.040528 0.041505
-0.153212 0.0957577 0.098066
0.103684 0.185569 0.0722928
0.284674 0.157126 0.0612122
0.350793 0.0590405 0.0230007
0.281438 -0.0620672 -0.0241798
0.103499 -0.159234 -0.0620334
-0.11437 -0.194967 -0.075954
-0.288115 -0.155481 -0.0605712
-0.3507 -0.0560125 -0.021821
-0.277859 0.0648665 0.0252704
-0.0932837 0.153264 0.0597077
-0.00292831 0.183603 -0.00204174
-0.0080399 0.155461 -0.00172879
-0.00990728 0.0584149 -0.000649599
-0.00794856 -0.0614095 0.000682902
-0.00292309 -0.157547 0.00175199
0.00323012 -0.192901 0.00214515
0.00813711 -0.153833 0.00171069
0.00990466 -0.0554189 0.000616283
0.00784751 0.0641792 -0.000713703
0.00263458 0.15164 -0.0016863
-0.108411 0.110801 -0.0755886
-0.29765 0.0938178 -0.0640027
-0.366785 0.0352524 -0.0240492
-0.294267 -0.0370594 0.0252821
-0.108217 -0.0950765 0.0648613
0.119584 -0.116413 0.079417
0.301249 -0.0928355 0.0633327
0.366687 -0.0334443 0.0228158
0.290527 0.038731 -0.0264224
0.0975364 0.0915119 -0.0624297
-0.172067 -0.00474867 -0.119973
-0.472419 -0.0040169 -0.101583
-0.582145 -0.00150927 -0.0381698
-0.46705 0.00158664 0.0401268
-0.171757 0.00407054 0.102945
0.189799 0.004984 0.126047
0.478129 0.00397459 0.100519
0.581991 0.00143186 0.0362124
0.461112 -0.0016584 -0.0419365
0.154808 -0.00392199 -0.0990872
-0.169339 -0.118466 -0.118071
-0.464582 -0.100114 -0.099901
-0.572482 -0.0376146 -0.0375365
-0.459295 0.0395426 0.0394609
-0.168906 0.101447 0.101237
0.186648 0.124212 0.123955
0.470194 0.0990558 0.0988509
0.572331 0.0356851 0.0356114
0.453461 -0.0413342 -0.0412439
0.152354 -0.0978427 -0.0975162
-0.101279 -0.186478 -0.0706159
-0.264762 -0.150506 -0.0569938
-0.326098 -0.0564673 -0.0213831
-0.261623 0.0593569 0.0224774
-0.0962121 0.152281 0.0576659
0.106318 0.186454 0.0706065
0.26783 0.148691 0.0563066
0.326011 0.0535627 0.0202832
0.258415 -0.0622307 -0.0235656
0.0911199 -0.154015 -0.0583227
0 -0.47362 0
0 -0.402142 0
0 -0.150877 0
0 0.158598 0
0 0.406884 0
0 0.498191 0
0 0.397293 0
0 0.143116 0
0 -0.166276 0
0 -0.391169 0
0.0645756 -0.290894 -0.237927
0.177298 -0.246578 -0.201458
0.218478 -0.092652 -0.0756983
0.175283 0.0974021 0.0795793
0.0644602 0.249886 0.204161
-0.0712317 0.305961 0.249976
-0.179442 0.243995 0.199348
-0.21842 0.0879004 0.0718163
-0.173054 -0.101795 -0.0831685
-0.0580983 -0.240253 -0.196507
0.104237 0.00406124 -0.384059
0.286194 0.00342843 -0.325193
0.352667 0.00128809 -0.122192
0.282941 -0.0013541 0.128456
0.104051 -0.00347399 0.329555
-0.114981 -0.00425362 0.403509
-0.289653 -0.00339209 0.321788
-0.352573 -0.00122201 0.115925
-0.279343 0.00141552 -0.13425
-0.0937819 0.00335424 -0.3172
0.103684 0.297449 -0.382019
0.284674 0.251858 -0.323466
0.350793 0.0946358 -0.121543
0.281438 -0.0994875 0.127774
0.103499 -0.255236 0.327804
-0.11437 -0.312513 0.401366
-0.288115 -0.24922 0.320078
-0.3507 -0.0897825 0.115309
-0.277859 0.103975 -0.133537
-0.0932837 0.245667 -0.315515
0.0631281 0.476079 -0.232593
0.173323 0.403107 -0.196943
0.213581 0.151469 -0.0740013
0.171353 -0.159234 0.0777953
0.0630156 -0.408516 0.199584
-0.0696346 -0.50019 0.244372
-0.175419 -0.398886 0.19488
-0.213525 -0.143701 0.0702064
-0.169175 0.166416 -0.0813042
-0.056796 0.3932 -0.192102
-0.0017829 0.471034 0.00656905
-0.00489513 0.398837 0.00556218
-0.00603206 0.149863 0.00209001
-0.00483948 -0.157547 -0.00219714
-0.00177972 -0.404187 -0.00563679
0.00196668 -0.494888 -0.00690171
0.00495429 -0.39466 -0.00550392
0.00603046 -0.142178 -0.00198282
0.00477797 0.164653 0.00229624
0.00160407 0.389033 0.00542547
-0.066006 0.284261 0.243197
-0.181225 0.24069 0.205921
-0.223318 0.0904401 0.0773752
-0.179166 -0.0950765 -0.0813419
-0.0658882 -0.24392 -0.208683
0.0728092 -0.298656 -0.255513
0.183416 -0.23817 -0.203764
0.223258 -0.0858017 -0.073407
0.176888 0.0993648 0.0850105
0.0593853 0.234775 0.20086
-0.104763 -0.0121828 0.385998
-0.287633 -0.0103054 0.326829
-0.354441 -0.00387205 0.122807
-0.284365 0.00407054 -0.129102
-0.104575 0.010443 -0.331213
0.11556 0.0127865 -0.405539
0.291111 0.0101969 -0.323406
0.354347 0.00367345 -0.116508
0.280749 -0.00425465 0.134926
0.0942552 -0.0100619 0.318801
-0.103102 -0.303926 0.379878
-0.282862 -0.256843 0.321418
-0.348556 -0.0965004 0.120769
-0.279643 0.101447 -0.12696
-0.102839 0.260262 -0.325718
0.113641 0.318668 -0.398811
0.286279 0.254129 -0.31804
0.348464 0.0915504 -0.114575
0.276091 -0.106043 0.132696
0.0927607 -0.251016 0.313746
-0.0616637 -0.478412 0.227198
-0.161201 -0.386125 0.183371
-0.198545 -0.144867 0.0687975
-0.15929 0.152281 -0.0723181
-0.0585789 0.390678 -0.185533
0.0647321 0.478349 -0.227168
0.163069 0.381469 -0.18116
0.198493 0.137416 -0.0652587
0.157336 -0.159654 0.0758195
0.0554785 -0.395127 0.187646
0 -0.579903 0
0 -0.492385 0
0 -0.184734 0
0 0.194188 0
0 0.498191 0
0 0.609989 0
0 0.486448 0
0 0.175232 0
0 -0.20359 0
0 -0.47895 0
-0.00182379 -0.356172 -0.45801
-0.00500737 -0.301911 -0.387809
-0.00617041 -0.113444 -0.14572
-0.00495044 0.119259 0.15319
-0.00182054 0.305961 0.393011
0.00201175 0.374621 0.481204
0.0050679 0.298748 0.383747
0.00616877 0.107626 0.138246
0.00488753 -0.124639 -0.1601
0.00164085 -0.294167 -0.378277
-0.00294394 0.00497261 -0.739316
-0.00808284 0.00419775 -0.625998
-0.00996021 0.00157716 -0.23522
-0.00799096 -0.00165799 0.247278
-0.00293869 -0.00425362 0.634396
0.00324737 -0.00520813 0.776758
0.00818056 -0.00415332 0.619442
0.00995757 -0.00149623 0.223156
0.00788943 0.00173318 -0.258431
0.00264865 0.00410695 -0.610612
-0.00292831 0.364199 -0.735389
-0.00803989 0.308375 -0.622672
-0.00990728 0.115873 -0.233971
-0.00794856 -0.121813 0.245965
-0.00292309 -0.312513 0.631026
0.00323012 -0.382643 0.772631
0.00813711 -0.305146 0.61615
0.00990466 -0.10993 0.221971
0.00784751 0.127307 -0.257058
0.00263458 0.300797 -0.607368
-0.0017829 0.582915 -0.447743
-0.00489513 0.493568 -0.379115
-0.00603206 0.185459 -0.142454
-0.00483948 -0.194967 0.149756
-0.00177972 -0.50019 0.384201
0.00196668 -0.612434 0.470419
0.00495429 -0.488399 0.375144
0.00603046 -0.175948 0.135147
0.00477797 0.203761 -0.156511
0.00160407 0.481437 -0.369797
5.0354e-05 0.576737 0.0126455
0.00013825 0.488338 0.0107072
0.000170364 0.183494 0.00402324
0.000136681 -0.192901 -0.00422954
5.02643e-05 -0.494888 -0.0108508
-5.55432e-05 -0.605944 -0.0132858
-0.000139925 -0.483223 -0.0105951
-0.000170319 -0.174083 -0.00381693
-0.000134942 0.201601 0.00442028
-4.53032e-05 0.476335 0.0104441
0.00186419 0.348051 0.468155
0.00511827 0.294703 0.396399
0.0063071 0.110735 0.148947
0.00506011 -0.116413 -0.156584
0.00186085 -0.298656 -0.401716
-0.00205632 -0.365677 -0.491864
-0.00518018 -0.291617 -0.392248
-0.00630543 -0.105056 -0.141309
-0.00499579 0.121663 0.163646
-0.0016772 0.28746 0.386656
0.0029588 -0.0149167 0.743047
0.00812353 -0.012618 0.629148
0.0100103 -0.00474097 0.236403
0.00803114 0.004984 -0.248522
0.00295347 0.0127865 -0.637588
-0.00326371 0.0156559 -0.780667
-0.00822172 0.0124851 -0.622559
-0.0100077 0.0044978 -0.224279
-0.0079291 -0.00520942 0.259732
-0.00266202 -0.0123199 0.613693
0.00291189 -0.372129 0.731266
0.00798876 -0.31448 0.61873
0.00984415 -0.118156 0.232481
0.00789791 0.124212 -0.244399
0.00290446 0.318668 -0.627008
-0.00320953 0.390179 -0.767711
-0.00808521 0.311157 -0.612227
-0.00984154 0.112095 -0.220557
-0.00779754 -0.12984 0.255441
-0.00261981 -0.307346 0.603963
0.00174155 -0.585771 0.437357
0.00455274 -0.472774 0.352989
0.00560745 -0.177377 0.132436
0.00449877 0.186454 -0.139213
0.00165443 0.478349 -0.357152
-0.00182821 0.585693 -0.437299
-0.0046055 0.467073 -0.348733
-0.00560596 0.168253 -0.125623
-0.0044436 -0.195481 0.145953
-0.00156686 -0.483797 0.361219
0 -0.462456 0
0 -0.392662 0
0 -0.14732 0
0 0.154859 0
0 0.397293 0
0 0.486448 0
0 0.387928 0
0 0.139742 0
0 -0.162357 0
0 -0.381948 0
-0.0675196 -0.284037 -0.50139
-0.185381 -0.240765 -0.42454
-0.228438 -0.0904681 -0.159522
-0.183274 0.095106 0.167699
-0.0673991 0.243995 0.430235
0.0744784 0.298748 0.526781
0.187622 0.238244 0.420093
0.228378 0.0858282 0.15134
0.180944 -0.0993957 -0.175263
0.060747 -0.23459 -0.414105
-0.10899 0.00396551 -0.809339
-0.29924 0.0033476 -0.685286
-0.368744 0.00125773 -0.257498
-0.295838 -0.0013222 0.270699
-0.108795 -0.00339209 0.69448
0.120223 -0.00415332 0.850328
0.302858 -0.00331216 0.678109
0.368646 -0.00119321 0.244292
0.292078 0.00138216 -0.282909
0.0980573 0.00327517 -0.668445
-0.108411 0.290438 -0.80504
-0.29765 0.245921 -0.681646
-0.366785 0.0924053 -0.25613
-0.294268 -0.0971425 0.269261
-0.108217 -0.24922 0.69079
0.119584 -0.305146 0.84581
0.301249 -0.243345 0.674507
0.366687 -0.0876663 0.242994
0.290527 0.101524 -0.281406
0.0975364 0.239877 -0.664894
-0.066006 0.464857 -0.49015
-0.181225 0.393607 -0.415022
-0.223318 0.147898 -0.155946
-0.179166 -0.155481 0.16394
-0.0658882 -0.398886 0.42059
0.0728092 -0.488399 0.514972
0.183416 -0.389484 0.410676
0.223258 -0.140313 0.147947
0.176888 0.162493 -0.171334
0.0593853 0.383932 -0.404822
0.00186419 0.459931 0.0138432
0.00511828 0.389436 0.0117214
0.0063071 0.146331 0.00440431
0.00506011 -0.153833 -0.0046301
0.00186085 -0.39466 -0.0118785
-0.00205632 -0.483223 -0.0145443
-0.00518018 -0.385356 -0.0115986
-0.00630543 -0.138826 -0.00417845
-0.00499579 0.160772 0.00483894
-0.0016772 0.379863 0.0114333
0.0690152 0.27756 0.512496
0.189487 0.235018 0.433944
0.233499 0.0883085 0.163055
0.187333 -0.0928355 -0.171414
0.068892 -0.23817 -0.439763
-0.0761284 -0.291617 -0.53845
-0.191778 -0.232557 -0.429399
-0.233437 -0.0837793 -0.154693
-0.184952 0.0970228 0.179146
-0.0620926 0.229241 0.423277
0.10954 -0.0118956 0.813424
0.300746 -0.0100625 0.688735
0.370599 -0.00378078 0.258793
0.297326 0.00397459 -0.272062
0.109342 0.0101969 -0.697975
-0.120828 0.0124851 -0.854606
-0.304381 0.00995648 -0.681521
-0.370501 0.00358685 -0.245521
-0.293548 -0.00415435 0.284333
-0.0985522 -0.00982474 0.671818
0.107803 -0.296762 0.800527
0.295757 -0.250789 0.67733
0.364447 -0.0942259 0.254501
0.292392 0.0990558 -0.267547
0.107528 0.254129 -0.686392
-0.118822 0.311157 -0.840424
-0.299328 0.248138 -0.670213
-0.36435 0.0893923 -0.241447
-0.288678 -0.103544 0.279634
-0.0969896 -0.245099 0.661166
0.0644749 -0.467135 0.478781
0.16855 -0.377023 0.386422
0.207597 -0.141453 0.144979
0.166552 0.148691 -0.152398
0.0612495 0.381469 -0.390979
-0.0676832 0.467073 -0.478717
-0.170503 0.372477 -0.381763
-0.207542 0.134177 -0.137521
-0.164509 -0.15589 0.159777
-0.0580077 -0.385813 0.395432
0 -0.166589 0
0 -0.141448 0
0 -0.0530688 0
0 0.0557845 0
0 0.143116 0
0 0.175232 0
0 0.139742 0
0 0.050339 0
0 -0.0584854 0
0 -0.137588 0
-0.107166 -0.102318 -0.351329
-0.294229 -0.0867365 -0.297484
-0.362568 -0.0325915 -0.11178
-0.290885 0.0342624 0.117511
-0.106973 0.0879005 0.301475
0.11821 0.107626 0.369129
0.297785 0.0858283 0.294369
0.362472 0.03092 0.106048
0.287187 -0.0358075 -0.122811
0.0964165 -0.0845057 -0.290168
-0.172986 0.00142849 -0.567113
-0.474942 0.00120598 -0.480196
-0.585254 0.000453099 -0.180435
-0.469544 -0.000476321 0.189685
-0.172675 -0.00122201 0.486639
0.190813 -0.00149623 0.595842
0.480683 -0.00119321 0.475168
0.585099 -0.000429858 0.171181
0.463575 0.000497925 -0.19824
0.155635 0.00117981 -0.468387
-0.172067 0.104624 -0.564101
-0.472419 0.0885939 -0.477645
-0.582145 0.0332894 -0.179477
-0.46705 -0.0349961 0.188678
-0.171757 -0.0897826 0.484054
0.189799 -0.10993 0.592677
0.478129 -0.0876664 0.472645
0.581991 -0.0315822 0.170272
0.461112 0.0365742 -0.197187
0.154808 0.0864101 -0.465899
-0.104763 0.167454 -0.343454
-0.287633 0.141798 -0.290816
-0.354441 0.0532811 -0.109275
-0.284365 -0.0560126 0.114877
-0.104575 -0.143701 0.294717
0.11556 -0.175948 0.360854
0.291111 -0.140314 0.287771
0.354347 -0.0505485 0.103671
0.280749 0.0585385 -0.120058
0.0942552 0.138303 -0.283663
0.0029588 0.16568 0.00970005
0.00812353 0.140295 0.00821341
0.0100103 0.0527164 0.00308621
0.00803114 -0.055419 -0.00324442
0.00295347 -0.142178 -0.00832358
-0.00326371 -0.174083 -0.0101915
-0.00822172 -0.138826 -0.00812738
-0.0100077 -0.0500128 -0.00292794
-0.0079291 0.0579182 0.00339077
-0.00266202 0.136837 0.00801141
0.10954 0.0999849 0.359112
0.300746 0.0846656 0.304073
0.370599 0.0318135 0.114256
0.297326 -0.0334444 -0.120114
0.109342 -0.0858018 -0.308153
-0.120828 -0.105056 -0.377304
-0.304381 -0.0837794 -0.300889
-0.370501 -0.0301819 -0.108397
-0.293548 0.0349526 0.125531
-0.0985522 0.0825788 0.296595
0.173859 -0.00428512 0.569975
0.477331 -0.00362503 0.482613
0.588197 -0.00136204 0.181343
0.471906 0.00143186 -0.19064
0.173543 0.00367345 -0.489088
-0.191773 0.0044978 -0.59884
-0.483101 0.00358686 -0.477558
-0.588041 0.00129218 -0.172043
-0.465907 -0.00149661 0.199238
-0.15642 -0.00353914 0.47075
0.171103 -0.106902 0.560938
0.469414 -0.090347 0.474622
0.578436 -0.0339452 0.178335
0.464073 0.0356851 -0.187476
0.170662 0.0915505 -0.480972
-0.188589 0.112095 -0.588905
-0.475082 0.0893924 -0.469636
-0.578282 0.0322038 -0.169187
-0.458177 -0.0373015 0.195946
-0.15394 -0.0882916 0.463287
0.102333 -0.168275 0.335487
0.267519 -0.135814 0.27077
0.329494 -0.0509552 0.101588
0.264348 0.0535627 -0.106787
0.097214 0.137416 -0.273963
-0.107426 0.168253 -0.335442
-0.270619 0.134177 -0.267505
-0.329406 0.0483341 -0.0963628
-0.261106 -0.056156 0.111957
-0.0920688 -0.138981 0.277083
0 0.193548 0
0 0.164338 0
0 0.061657 0
0 -0.0648121 0
0 -0.166276 0
0 -0.20359 0
0 -0.162357 0
0 -0.0584854 0
0 0.0679501 0
0 0.159854 0
-0.105467 0.118876 -0.0657239
-0.289348 0.100459 -0.0559056
-0.356549 0.0377424 -0.0210111
-0.286056 -0.0396769 0.0220887
-0.105197 -0.101792 0.0566685
0.116247 -0.124634 0.0693853
0.292843 -0.099392 0.0553327
0.356455 -0.0358061 0.0199341
0.282422 0.041479 -0.0230744
0.0948878 0.0981813 -0.0542823
-0.170243 -0.00165966 -0.106091
-0.467063 -0.00139708 -0.0902422
-0.57554 -0.000524832 -0.033916
-0.461749 0.000551728 0.0356554
-0.169808 0.00141546 0.0914739
0.187645 0.00173311 0.112001
0.472704 0.0013821 0.0893178
0.575387 0.000497902 0.0321775
0.455883 -0.000576911 -0.0372465
0.153167 -0.00137073 -0.0876221
-0.169339 -0.121555 -0.105527
-0.464582 -0.10261 -0.0897628
-0.572482 -0.0385504 -0.0337358
-0.459295 0.0405264 0.035466
-0.168906 0.103971 0.090988
0.186648 0.127302 0.111406
0.470194 0.10152 0.0888434
0.572331 0.0365727 0.0320066
0.453461 -0.0423672 -0.0370486
0.152354 -0.100394 -0.0871566
-0.103102 -0.194554 -0.0642506
-0.282862 -0.164232 -0.0546523
-0.348556 -0.0617015 -0.0205401
-0.279643 0.0648639 0.0215935
-0.102839 0.166409 0.0553982
0.113641 0.203753 0.06783
0.286279 0.162487 0.0540924
0.348464 0.0585361 0.0194873
0.276091 -0.0678103 -0.0225571
0.0927607 -0.160684 -0.0530655
0.00291189 -0.192492 0.00181461
0.00798877 -0.162492 0.00154353
0.00984415 -0.0610477 0.000580107
0.00789791 0.0641766 -0.000609857
0.00290446 0.164646 -0.00156459
-0.00320953 0.201593 -0.0019157
-0.00808521 0.160765 -0.00152771
-0.00984154 0.0579158 -0.000550373
-0.00779755 -0.0670916 0.000637074
-0.00261981 -0.158982 0.00149871
0.107803 -0.116165 0.0671797
0.295757 -0.0980608 0.0571439
0.364447 -0.0368412 0.0214765
0.292392 0.0387295 -0.0225779
0.107528 0.0993608 -0.0579238
-0.118822 0.121658 -0.0709224
-0.299327 0.0970189 -0.0565584
-0.36435 0.0349511 -0.0203757
-0.288678 -0.0404886 0.0235855
-0.0969896 -0.0959426 0.0554847
0.171103 0.00497859 0.106626
0.469413 0.00419902 0.0906961
0.578436 0.00157749 0.0340866
0.464073 -0.00165834 -0.0358346
0.170662 -0.00425448 -0.0919338
-0.188589 -0.00520921 -0.112564
-0.475082 -0.00415419 -0.0897669
-0.578282 -0.00149655 -0.0323392
-0.458177 0.00173384 0.0374339
-0.15394 0.00411188 0.0880642
0.16839 0.124202 0.104936
0.461633 0.10466 0.0891858
0.568842 0.0393176 0.0335175
0.456375 -0.0413326 -0.0352362
0.167832 -0.106039 -0.0903988
-0.185462 -0.129835 -0.110685
-0.467204 -0.10354 -0.0882681
-0.568692 -0.0373 -0.0317992
-0.450583 0.0432175 0.0368118
-0.151499 0.10258 0.086668
0.100711 0.195507 0.0627602
0.263278 0.157793 0.0506535
0.32427 0.0592012 0.0190044
0.260156 -0.0622307 -0.0199769
0.0956727 -0.159654 -0.0512509
-0.105722 -0.195481 -0.0627519
-0.266329 -0.15589 -0.0500428
-0.324184 -0.056156 -0.0180268
-0.256966 0.0652437 0.0209441
-0.090609 0.161472 0.0518345
0 0.479014 0
0 0.38661 0
0 0.14505 0
0 -0.152472 0
0 -0.391169 0
0 -0.47895 0
0 -0.381948 0
0 -0.137588 0
0 0.159854 0
0 0.395624 0
-0.0630777 0.294207 0.245239
-0.164897 0.237453 0.197931
-0.203098 0.0890883 0.0742605
-0.162942 -0.0936473 -0.0780606
-0.0599222 -0.240253 -0.200265
0.0662164 -0.294167 -0.245206
0.166808 -0.23459 -0.195545
0.203044 -0.0845057 -0.0704406
0.160944 0.0981813 0.08184
0.0567507 0.242989 0.202546
-0.10182 -0.0041075 0.395863
-0.266176 -0.00331514 0.319499
-0.32784 -0.00124379 0.119871
-0.26302 0.00130743 -0.126005
-0.0967259 0.00335424 -0.323267
0.106886 0.00410695 -0.39581
0.269261 0.00327517 -0.315647
0.327752 0.00117981 -0.113705
0.259795 -0.00137074 0.132106
0.0916065 -0.00339244 0.326948
-0.101279 -0.300837 0.39376
-0.264762 -0.242804 0.317802
-0.326098 -0.091096 0.119234
-0.261623 0.0957577 -0.125335
-0.0962121 0.245667 -0.32155
0.106318 0.300797 -0.393707
0.26783 0.239877 -0.31397
0.326011 0.0864102 -0.113101
0.258415 -0.100394 0.131404
0.0911199 -0.248465 0.325212
-0.0616637 -0.481501 0.239741
-0.161201 -0.388618 0.193494
-0.198545 -0.145803 0.0725958
-0.15929 0.153264 -0.0763108
-0.0585789 0.3932 -0.195776
0.0647321 0.481437 -0.23971
0.163069 0.383932 -0.191161
0.198493 0.138303 -0.0688616
0.157336 -0.160684 0.0800054
0.0554785 -0.397678 0.198006
0.00174155 -0.476399 -0.00677094
0.00455274 -0.3845 -0.0054648
0.00560745 -0.144258 -0.0020503
0.00449877 0.15164 0.00215522
0.00165442 0.389034 0.00552924
-0.00182821 0.476335 0.00677004
-0.0046055 0.379863 0.0053989
-0.00560596 0.136837 0.00194483
-0.0044436 -0.158982 -0.00225957
-0.00156686 -0.393464 -0.00559221
0.0644749 -0.287498 -0.250671
0.16855 -0.232039 -0.202316
0.207597 -0.087057 -0.0759054
0.166552 0.0915119 0.0797897
0.0612495 0.234775 0.204701
-0.0676832 0.28746 0.250638
-0.170503 0.229241 0.199876
-0.207542 0.0825789 0.0720009
-0.164509 -0.0959426 -0.0836528
-0.0580077 -0.237449 -0.207033
0.102333 0.0123215 -0.39786
0.267519 0.00994465 -0.321112
0.329494 0.00373106 -0.120476
0.264348 -0.00392199 0.126641
0.097214 -0.0100619 0.324898
-0.107425 -0.0123199 0.397807
-0.270619 -0.00982474 0.31724
-0.329406 -0.00353914 0.114278
-0.261106 0.00411188 -0.132772
-0.0920688 0.0101765 -0.328598
0.100711 0.307387 -0.391552
0.263278 0.248091 -0.31602
0.32427 0.0930795 -0.118565
0.260156 -0.0978427 0.124633
0.0956727 -0.251016 0.319747
-0.105722 -0.307346 0.3915
-0.266329 -0.245099 0.31221
-0.324184 -0.0882916 0.112467
-0.256966 0.10258 -0.130667
-0.090609 0.253875 -0.323388
0.0602334 0.483861 -0.23418
0.157462 0.390522 -0.189006
0.19394 0.146517 -0.0709119
0.155595 -0.154015 0.0745406
0.0572201 -0.395127 0.191235
-0.0632306 -0.483797 0.234149
-0.159286 -0.385813 0.186727
-0.193888 -0.138981 0.0672642
-0.153687 0.161472 -0.0781496
-0.0541916 0.399627 -0.193413
