# vtk DataFile Version 3.0
Velocity field
ASCII
DATASET STRUCTURED_POINTS
DIMENSIONS 8 8 8
SPACING 0.8 0.8 0.8
ORIGIN 0 0 0
POINT_DATA 512
VECTORS velocity float
0 0.184115 0
0 0.128274 0
0 -0.00537606 0
0 -0.135765 0
0 -0.183801 0
0 -0.120345 0
0 0.0161099 0
0 0.142793 0
0 0.0724332 0.187917
0 0.0504647 0.138809
0 -0.00211502 -0.0058176
0 -0.0534118 -0.146915
0 -0.0723097 -0.198896
0 -0.0473455 -0.130229
0 0.00633784 0.017433
0 0.0561767 0.145742
0 -0.0831853 0.261845
0 -0.0579558 0.193418
0 0.00242897 -0.00810632
0 0.0613403 -0.204714
0 0.0830434 -0.277145
0 0.0543735 -0.181463
0 -0.00727865 0.0242914
0 -0.0645157 0.203078
0 -0.188345 0.176942
0 -0.131221 0.130703
0 0.00549958 -0.00547786
0 0.138884 -0.138336
0 0.188024 -0.187281
0 0.12311 -0.122624
0 -0.01648 0.0164149
0 -0.146074 0.13723
0 -0.179257 -0.0152915
0 -0.124889 -0.0112955
0 0.00523421 0.000473402
0 0.132183 0.0119551
0 0.178951 0.016185
0 0.11717 0.0105973
0 -0.0156848 -0.00141859
0 -0.139025 -0.0118596
0 -0.061434 -0.19825
0 -0.0428015 -0.146442
0 0.00179385 0.0061375
0 0.0453011 0.154994
0 0.0613293 0.209833
0 0.040156 0.13739
0 -0.00537542 -0.0183916
0 -0.0476461 -0.153756
0 0.0936538 -0.260952
0 0.0652492 -0.192759
0 -0.00273465 0.00807868
0 -0.0690597 0.204016
0 -0.0934941 0.2762
0 -0.0612162 0.180845
0 0.00819463 -0.0242085
0 0.0726347 -0.202386
0 0.191932 -0.165365
0 0.133721 -0.115211
0 -0.00560434 0.00482858
0 -0.14153 0.121939
0 -0.191605 0.165083
0 -0.125455 0.10809
0 0.0167939 -0.0144693
0 0.148856 -0.128251
0 0.128274 0
0 0.0970286 0
0 -0.00406655 0
0 -0.102695 0
0 -0.13903 0
0 -0.0910313 0
0 0.0121858 0
0 0.0994848 0
0.0400577 0.0504647 0.18561
0.0973876 0.0357585 0.131397
0.0950147 -0.00149887 -0.00550767
0.0350038 -0.0378516 -0.139087
-0.04624 -0.0512441 -0.188297
-0.0994351 -0.0335525 -0.12329
-0.0923118 0.00448802 0.016492
-0.0287422 0.0391387 0.143953
0.0558169 -0.0579558 0.258632
0.135702 -0.0410072 0.18309
0.132394 0.00171886 -0.00767443
0.0487745 0.0434068 -0.193804
-0.0644319 0.0587647 -0.262377
-0.138555 0.0384768 -0.171794
-0.12863 -0.00514703 0.0229802
-0.0400498 -0.0449485 0.200586
0.0377184 -0.131221 0.174771
0.0917001 -0.0928468 0.123723
0.0894664 0.0038918 -0.00518602
0.0329594 0.0982805 -0.130965
-0.0435398 0.133053 -0.177302
-0.0936282 0.0871183 -0.11609
-0.0869213 -0.0116537 0.0155289
-0.0270637 -0.10177 0.135546
-0.00325966 -0.124889 -0.0151039
-0.00792488 -0.0883668 -0.0106923
-0.00773177 0.003704 0.00044818
-0.00284839 0.0935381 0.0113181
0.00376274 0.126634 0.0153225
0.00809151 0.082915 0.0100326
0.0075118 -0.0110914 -0.00134202
0.00233887 -0.0968599 -0.011714
-0.0422604 -0.0428015 -0.195817
-0.102743 -0.0302849 -0.138622
-0.100239 0.00126942 0.00581051
-0.0369286 0.0320571 0.146735
0.0487826 0.0433993 0.198651
0.104904 0.0284161 0.13007
0.0973878 -0.00380122 -0.0173989
0.0303227 -0.0331954 -0.151869
-0.0556266 0.0652492 -0.25775
-0.135232 0.0461602 -0.182456
-0.131936 -0.00193486 0.00764787
-0.0486057 -0.0488616 0.193133
0.0642087 -0.0661495 0.261468
0.138075 -0.043312 0.171199
0.128184 0.00579389 -0.0229007
0.0399132 0.050605 -0.199902
-0.0352504 0.133721 -0.163335
-0.0843688 0.093164 -0.113797
-0.0823102 -0.00390458 0.00476932
-0.0303233 -0.0986047 0.120443
0.0400572 -0.133493 0.163057
0.0861396 -0.0874056 0.106763
0.0799709 0.0117004 -0.0142917
0.0252929 0.103709 -0.126677
0 -0.00537606 0
0 -0.00406655 0
0 0.000170432 0
0 0.00430403 0
0 0.00582686 0
0 0.0038152 0
0 -0.000510716 0
0 -0.00416949 0
0.0558169 -0.00211502 0.0707155
0.135702 -0.00149887 0.0500417
0.132394 6.28279e-05 -0.00209755
0.0487745 0.00158661 -0.0529706
-0.0644319 0.00214797 -0.0717119
-0.138555 0.00140642 -0.0469541
-0.12863 -0.000188121 0.00628097
-0.0400498 -0.00164033 0.0548445
0.0777761 0.00242897 0.0985359
0.189088 0.00171886 0.0697288
0.18448 -7.20478e-05 -0.00292276
0.0679634 -0.00181944 -0.0738095
-0.0897803 -0.00246319 -0.0999242
-0.193063 -0.00161281 -0.065427
-0.179234 0.000215743 0.008752
-0.0558059 0.00188383 0.0764211
0.0525573 0.00549958 0.0665857
0.127777 0.0038918 0.0471191
0.124664 -0.00016313 -0.00197507
0.0459261 -0.00411955 -0.0498768
-0.0606689 -0.00557713 -0.0675239
-0.130464 -0.00365165 -0.0442122
-0.121117 0.000488478 0.00591416
-0.0377109 0.00426529 0.0516416
-0.00454205 0.00523421 -0.00575441
-0.0110426 0.003704 -0.00407211
-0.0107735 -0.000155258 0.000170687
-0.00396901 -0.00392079 0.0043104
0.00524308 -0.00530803 0.00583548
0.0112748 -0.00347547 0.00382085
0.0104671 0.000464907 -0.00051111
0.00325901 0.00405948 -0.00446292
-0.0588862 0.00179385 -0.074604
-0.143163 0.00126942 -0.0527935
-0.139675 -5.32095e-05 0.0022129
-0.0514569 -0.00134372 0.0558827
0.0679746 -0.00181913 0.0756555
0.146174 -0.00119109 0.049536
0.135702 0.000159331 -0.00662638
0.0422521 0.00139124 -0.0578603
-0.0775108 -0.00273465 -0.0981998
-0.188433 -0.00193486 -0.0694874
-0.183842 8.1102e-05 0.00291264
-0.067728 0.0020481 0.0735541
0.0894691 0.00277274 0.0995784
0.192395 0.00181548 0.0652002
0.178613 -0.000242855 -0.00872173
0.0556156 -0.0021209 -0.0761604
-0.0491184 -0.00560434 -0.0622289
-0.117561 -0.00390458 -0.0433553
-0.114692 0.000163644 0.00181706
-0.0422529 0.0041326 0.0458872
0.0558163 0.00559478 0.0621228
0.120028 0.00366324 0.0406756
0.111432 -0.000490375 -0.00544498
0.0352434 -0.00434653 -0.0482626
0 -0.135765 0
0 -0.102695 0
0 0.00430403 0
0 0.108692 0
0 0.147149 0
0 0.0963475 0
0 -0.0128974 0
0 -0.105295 0
0.0377184 -0.0534118 -0.0870745
0.0917001 -0.0378516 -0.061618
0.0894664 0.00158661 0.00258279
0.0329594 0.0400671 0.0652243
-0.0435398 0.0542437 0.0883013
-0.0936282 0.0355164 0.0578159
-0.0869213 -0.00475068 -0.00773396
-0.0270637 -0.0414243 -0.067532
0.0525573 0.0613403 -0.121331
0.127777 0.0434068 -0.0858593
0.124664 -0.00181944 0.00359888
0.0459261 -0.045947 0.0908843
-0.0606689 -0.0622042 0.12304
-0.130464 -0.0407287 0.0805616
-0.121117 0.00544821 -0.0107766
-0.0377109 0.0475734 -0.0941
0.0355156 0.138884 -0.0819895
0.0863454 0.0982805 -0.0580193
0.0842417 -0.00411955 0.00243194
0.0310349 -0.104033 0.061415
-0.0409971 -0.140841 0.0831447
-0.0881609 -0.0922165 0.0544399
-0.0818452 0.0123357 -0.00728228
-0.0254832 0.107714 -0.0635882
-0.0030693 0.132183 0.00708561
-0.00746203 0.0935381 0.0050141
-0.00728019 -0.00392079 -0.000210172
-0.00268207 -0.0990123 -0.00530756
0.00354299 -0.134044 -0.0071854
0.00761893 -0.0877674 -0.00470474
0.0070731 0.0117404 0.000629343
0.00220228 0.102516 0.00549536
-0.0397924 0.0453011 0.0918626
-0.0967426 0.0320571 0.0650063
-0.0943854 -0.00134372 -0.00272481
-0.034772 -0.0339331 -0.0688104
0.0459337 -0.045939 -0.0931563
0.0987767 -0.0300791 -0.0609953
0.0917004 0.00402365 0.00815926
0.0285519 0.0351339 0.0712455
-0.052378 -0.0690597 0.120917
-0.127335 -0.0488616 0.0855621
-0.124232 0.0020481 -0.00358642
-0.0457671 0.0517211 -0.0905694
0.0604589 0.0700208 -0.122614
0.130012 0.0458466 -0.0802828
0.120698 -0.00613292 0.0107393
0.0375823 -0.0535603 0.0937791
-0.0331918 -0.14153 0.0766248
-0.0794417 -0.0986047 0.053385
-0.0775034 0.0041326 -0.00223741
-0.0285525 0.104363 -0.0565026
0.0377179 0.141288 -0.0764941
0.0811092 0.09251 -0.0500853
0.0753006 -0.0123837 0.00670461
0.0238158 -0.109766 0.0594276
0 -0.183801 0
0 -0.13903 0
0 0.00582686 0
0 0.147149 0
0 0.199213 0
0 0.130437 0
0 -0.0174607 0
0 -0.142549 0
-0.00325966 -0.0723097 -0.192046
-0.00792488 -0.0512441 -0.1359
-0.00773177 0.00214797 0.00569643
-0.00284839 0.0542437 0.143854
0.00376274 0.0734357 0.194751
0.00809151 0.0480826 0.127516
0.0075118 -0.00643155 -0.0170575
0.00233887 -0.0560809 -0.148944
-0.00454205 0.0830434 -0.2676
-0.0110426 0.0587647 -0.189365
-0.0107735 -0.00246319 0.0079375
-0.00396901 -0.0622042 0.200448
0.00524308 -0.0842129 0.271369
0.0112748 -0.0551394 0.177682
0.0104671 0.00737585 -0.0237682
0.00325901 0.0644056 -0.207541
-0.0030693 0.188024 -0.180831
-0.00746203 0.133053 -0.127964
-0.00728019 -0.00557713 0.00536379
-0.00268207 -0.140841 0.135453
0.00354299 -0.190672 0.183377
0.00761893 -0.124845 0.120069
0.0070731 0.0167002 -0.0160614
0.00220228 0.145825 -0.140246
0.000265252 0.178951 0.0156276
0.00064488 0.126634 0.0110588
0.000629164 -0.00530803 -0.00046354
0.000231785 -0.134044 -0.0117059
-0.00030619 -0.181473 -0.0158478
-0.000658438 -0.11882 -0.0103765
-0.000611266 0.0158944 0.00138804
-0.000190323 0.138788 0.0121202
0.0034389 0.0613293 0.202607
0.00836061 0.0433993 0.143373
0.00815696 -0.00181913 -0.00600964
0.00300502 -0.045939 -0.151763
-0.00396967 -0.0621934 -0.205461
-0.0085364 -0.0407217 -0.134527
-0.0079249 0.00544727 0.0179955
-0.00246748 0.0475649 0.157135
0.00452656 -0.0934941 0.266687
0.0110044 -0.0661495 0.18871
0.0107363 0.00277274 -0.00791004
0.00395528 0.0700208 -0.199754
-0.00522493 0.094795 -0.27043
-0.0112357 0.0620681 -0.177067
-0.0104309 -0.00830282 0.023686
-0.0032479 -0.0725108 0.206833
0.00286847 -0.191605 0.168999
0.00686543 -0.133493 0.117743
0.00669792 0.00559478 -0.00493469
0.00246753 0.141288 -0.124619
-0.00325962 0.191278 -0.168711
-0.00700953 0.125241 -0.110465
-0.00650756 -0.0167653 0.0147873
-0.00205818 -0.148602 0.13107
0 -0.120345 0
0 -0.0910313 0
0 0.0038152 0
0 0.0963475 0
0 0.130437 0
0 0.0854047 0
0 -0.0114326 0
0 -0.0933357 0
-0.0422604 -0.0473455 -0.180525
-0.102743 -0.0335525 -0.127748
-0.100239 0.00140642 0.00535473
-0.0369286 0.0355164 0.135224
0.0487826 0.0480826 0.183067
0.104904 0.0314828 0.119866
0.0973878 -0.00421112 -0.0160343
0.0303227 -0.0367195 -0.140009
-0.0588862 0.0543735 -0.251546
-0.143163 0.0384768 -0.178006
-0.139675 -0.00161281 0.0074613
-0.0514569 -0.0407287 0.188422
0.0679746 -0.0551394 0.255091
0.146174 -0.0361029 0.167023
0.135702 0.00482942 -0.0223424
0.0422521 0.0421702 -0.195091
-0.0397924 0.12311 -0.169983
-0.0967426 0.0871182 -0.120287
-0.0943854 -0.00365165 0.00504199
-0.034772 -0.0922165 0.127327
0.0459337 -0.124845 0.172377
0.0987767 -0.0817434 0.112865
0.0917004 0.0109347 -0.0150979
0.0285519 0.0954801 -0.131833
0.0034389 0.11717 0.0146901
0.00836061 0.082915 0.0103954
0.00815696 -0.00347547 -0.000435733
0.00300502 -0.0877674 -0.0110038
-0.00396967 -0.11882 -0.014897
-0.0085364 -0.0777987 -0.00975394
-0.00792491 0.0104071 0.00130477
-0.00246748 0.090873 0.0113931
0.0445843 0.040156 0.190452
0.108393 0.0284161 0.134772
0.105752 -0.00119109 -0.00564918
0.0389591 -0.0300791 -0.142659
-0.0514654 -0.0407217 -0.193134
-0.110672 -0.026663 -0.126458
-0.102744 0.00356664 0.0169159
-0.0319901 0.0311436 0.147708
0.0586854 -0.0612162 0.250688
0.142668 -0.043312 0.177389
0.139191 0.00181548 -0.00743547
0.0512788 0.0458466 -0.18777
-0.0677392 0.0620681 -0.254208
-0.145668 0.0406398 -0.166445
-0.135232 -0.00543636 0.0222651
-0.042108 -0.0474772 0.194425
0.0371888 -0.125455 0.158861
0.0890081 -0.0874056 0.110679
0.0868363 0.00366324 -0.00463866
0.0319908 0.09251 -0.117143
-0.0422599 0.125241 -0.15859
-0.0908763 0.0820031 -0.103838
-0.0843684 -0.0109772 0.0139002
-0.0266837 -0.0972989 0.123207
0 0.0161099 0
0 0.0121858 0
0 -0.000510716 0
0 -0.0128974 0
0 -0.0174607 0
0 -0.0114326 0
0 0.00153041 0
0 0.0124943 0
-0.0556266 0.00633784 -0.0595001
-0.135232 0.00448797 -0.0421106
-0.131936 -0.000188118 0.00176511
-0.0486057 -0.00475062 0.0445751
0.0642087 -0.00643147 0.0603462
0.138075 -0.00421106 0.0395123
0.128184 0.000563303 -0.00528546
0.0399132 0.00491541 -0.0461462
-0.0775108 -0.00727865 -0.0829082
-0.188433 -0.00514697 -0.0586773
-0.183842 0.00021574 0.00245953
-0.067728 0.00544814 0.0621115
0.0894691 0.00737576 0.0840875
0.192395 0.00482935 0.0550573
0.178613 -0.000646048 -0.00736482
0.0556156 -0.00564507 -0.0643008
-0.052378 -0.01648 -0.0560253
-0.127335 -0.0116536 -0.0396513
-0.124232 0.000488472 0.00166204
-0.0457671 0.0123355 0.0419719
0.0604589 0.0167 0.056822
0.130012 0.0109345 0.037205
0.120698 -0.00146276 -0.00497678
0.0375823 -0.0127813 -0.0434513
0.00452656 -0.0156848 0.00484176
0.0110044 -0.0110913 0.00342671
0.0107363 0.000464901 -0.000143635
0.00395528 0.0117403 -0.00362725
-0.00522494 0.0158942 -0.00491062
-0.0112357 0.0104069 -0.00321528
-0.0104309 -0.00139218 0.0004301
-0.0032479 -0.0121646 0.00375511
0.0586854 -0.00537542 0.0627719
0.142668 -0.00380117 0.0444261
0.139191 0.000159329 -0.00186217
0.0512788 0.0040236 -0.0470261
-0.0677392 0.0054472 -0.0636648
-0.145668 0.0035666 -0.0416852
-0.135232 -0.000477123 0.00557611
-0.042108 -0.00416899 0.0486837
0.0772465 0.00819463 0.0826255
0.187781 0.00579382 0.0584743
0.183205 -0.000242852 -0.00245102
0.0674936 -0.00613284 -0.0618965
-0.089159 -0.00830271 -0.0837964
-0.191729 -0.00543629 -0.0548665
-0.177994 0.000727249 0.00733936
-0.0554259 0.00635547 0.0640815
0.0489509 0.0167939 0.0523595
0.11716 0.0117004 0.0364792
0.114301 -0.000490375 -0.00152887
0.0421088 -0.0123837 -0.0386096
-0.0556259 -0.0167653 -0.0522702
-0.119619 -0.0109772 -0.0342245
-0.111052 0.00146945 0.00458142
-0.0351232 0.0130248 0.0406083
0 0.142793 0
0 0.0994848 0
0 -0.00416949 0
0 -0.105295 0
0 -0.142549 0
0 -0.0933357 0
0 0.0124943 0
0 0.110745 0
-0.0352504 0.0561767 0.097617
-0.0843688 0.0391387 0.0680104
-0.0823102 -0.00164033 -0.00285037
-0.0303233 -0.0414243 -0.0719822
0.0400572 -0.0560809 -0.0974505
0.0861396 -0.0367195 -0.0638067
0.0799709 0.00491541 0.00854141
0.0252929 0.0435687 0.0757084
-0.0491184 -0.0645157 0.136021
-0.117561 -0.0449485 0.0947666
-0.114692 0.00188383 -0.00397175
-0.0422529 0.0475734 -0.100301
0.0558163 0.0644056 -0.135789
0.120028 0.0421702 -0.0889092
0.111432 -0.00564507 0.0119017
0.0352434 -0.0500361 0.105493
-0.0331918 -0.146074 0.0919163
-0.0794417 -0.101771 0.0640387
-0.0775033 0.00426529 -0.00268391
-0.0285525 0.107714 -0.0677785
0.0377179 0.145825 -0.0917595
0.0811091 0.0954801 -0.0600805
0.0753006 -0.0127813 0.0080426
0.0238158 -0.11329 0.0712871
0.00286847 -0.139025 -0.00794349
0.00686543 -0.0968599 -0.00553429
0.00669791 0.00405948 0.000231946
0.00246753 0.102516 0.00585748
-0.00325962 0.138788 0.00792995
-0.00700953 0.090873 0.00519221
-0.00650755 -0.0121646 -0.000695049
-0.00205818 -0.107823 -0.0061607
0.0371888 -0.0476461 -0.102985
0.0890081 -0.0331954 -0.0717502
0.0868363 0.00139124 0.00300711
0.0319908 0.0351339 0.0759404
-0.0422599 0.0475649 0.102809
-0.0908763 0.0311436 0.0673154
-0.0843683 -0.004169 -0.00901109
-0.0266837 -0.0369527 -0.0798715
0.0489509 0.0726347 -0.135557
0.11716 0.050605 -0.0944434
0.114301 -0.0021209 0.0039582
0.0421088 -0.0535603 0.0999589
-0.0556259 -0.0725108 0.135326
-0.119619 -0.0474772 0.0886059
-0.111052 0.00635547 -0.0118611
-0.0351232 0.0563329 -0.105133
0.03102 0.148856 -0.0859021
0.0742438 0.103709 -0.0598485
0.0724322 -0.00434653 0.0025083
0.0266842 -0.109766 0.0633436
-0.03525 -0.148602 0.0857556
-0.0758021 -0.0972989 0.0561493
-0.0703736 0.0130248 -0.00751636
-0.0222575 0.115448 -0.0666227
