# vtk DataFile Version 3.0
Velocity field
ASCII
DATASET STRUCTURED_POINTS
DIMENSIONS 8 8 8
SPACING 0.8 0.8 0.8
ORIGIN 0 0 0
POINT_DATA 512
VECTORS velocity float
0 0.00049507 0
0 0.000344919 0
0 -1.44558e-05 0
0 -0.000365062 0
0 -0.000494226 0
0 -0.0003236 0
0 4.33182e-05 0
0 0.00038396 0
0 0.000194767 0.000505293
0 0.000135696 0.000373247
0 -5.68712e-06 -1.56431e-05
0 -0.00014362 -0.000395044
0 -0.000194435 -0.000534817
0 -0.000127308 -0.000350177
0 1.7042e-05 4.6876e-05
0 0.000151055 0.000391888
0 -0.000223679 0.000704082
0 -0.000155839 0.000520087
0 6.53132e-06 -2.17973e-05
0 0.000164939 -0.00055046
0 0.000223298 -0.000745221
0 0.000146206 -0.000487941
0 -1.95717e-05 6.53176e-05
0 -0.000173478 0.000546062
0 -0.000506445 0.000475785
0 -0.000352843 0.00035145
0 1.4788e-05 -1.47295e-05
0 0.000373449 -0.000371974
0 0.000505581 -0.000503584
0 0.000331034 -0.000329727
0 -4.43135e-05 4.41384e-05
0 -0.000392781 0.000369002
0 -0.000482008 -4.11178e-05
0 -0.000335818 -3.03726e-05
0 1.40744e-05 1.27294e-06
0 0.000355429 3.21464e-05
0 0.000481186 4.35202e-05
0 0.000315061 2.84953e-05
0 -4.21753e-05 -3.81449e-06
0 -0.000373829 -3.18895e-05
0 -0.000165191 -0.000533079
0 -0.00011509 -0.000393771
0 4.82351e-06 1.65033e-05
0 0.000121811 0.000416767
0 0.00016491 0.000564226
0 0.000107976 0.000369432
0 -1.44541e-05 -4.94536e-05
0 -0.000128117 -0.000413437
0 0.000251828 -0.000701681
0 0.00017545 -0.000518314
0 -7.35326e-06 2.17229e-05
0 -0.000185696 0.000548583
0 -0.000251398 0.000742679
0 -0.000164606 0.000486277
0 2.20347e-05 -6.50948e-05
0 0.000195309 -0.0005442
0 0.000516092 -0.000444653
0 0.000359564 -0.000309793
0 -1.50696e-05 1.29837e-05
0 -0.000380563 0.000327885
0 -0.000515211 0.000443895
0 -0.00033734 0.000290645
0 4.51576e-05 -3.89068e-05
0 0.000400263 -0.000344858
0 0.000344919 0
0 0.000260903 0
0 -1.09346e-05 0
0 -0.000276139 0
0 -0.000373841 0
0 -0.000244776 0
0 3.27667e-05 0
0 0.000267507 0
0.000107712 0.000135696 0.000499092
0.000257811 9.45447e-05 0.000347737
0.000251521 -3.96245e-06 -1.45739e-05
9.26609e-05 -0.000100066 -0.000368044
-0.000122406 -0.000135471 -0.000498264
-0.000263222 -8.8701e-05 -0.000326243
-0.000244372 1.18738e-05 4.36721e-05
-7.72856e-05 0.000105241 0.000387079
0.000150087 -0.000155839 0.000695442
0.000359237 -0.000108579 0.000484541
0.000350472 4.55062e-06 -2.03075e-05
0.000129115 0.00011492 -0.000512838
-0.000170561 0.00015558 -0.000694287
-0.000366778 0.000101867 -0.000454592
-0.000340511 -1.36364e-05 6.08534e-05
-0.000107691 -0.000120863 0.000539361
0.000101422 -0.000352843 0.000469946
0.000242755 -0.000245839 0.000327429
0.000236832 1.03033e-05 -1.37228e-05
8.72496e-05 0.000260196 -0.000346551
-0.000115257 0.000352257 -0.000469166
-0.00024785 0.000230644 -0.000307191
-0.000230101 -3.08749e-05 4.11217e-05
-7.27722e-05 -0.000273653 0.000364474
-8.76497e-06 -0.000335818 -4.06132e-05
-2.09791e-05 -0.000233977 -2.82968e-05
-2.04672e-05 9.80616e-06 1.18594e-06
-7.5402e-06 0.000247641 2.99493e-05
9.96063e-06 0.00033526 4.05458e-05
2.14195e-05 0.000219515 2.65477e-05
1.98856e-05 -2.93851e-05 -3.55378e-06
6.28904e-06 -0.000260449 -3.14982e-05
-0.000113635 -0.00011509 -0.000526536
-0.000271988 -8.01875e-05 -0.000366858
-0.000265351 3.36072e-06 1.53753e-05
-9.77562e-05 8.48704e-05 0.000388282
0.000129136 0.000114899 0.000525663
0.000277697 7.52312e-05 0.000344183
0.00025781 -1.00707e-05 -4.60736e-05
8.15354e-05 -8.92598e-05 -0.000408364
-0.000149576 0.00017545 -0.00069307
-0.000358012 0.000122243 -0.000482888
-0.000349277 -5.12329e-06 2.02382e-05
-0.000128675 -0.000129382 0.000511089
0.00016998 -0.000175159 0.00069192
0.000365527 -0.000114687 0.000453041
0.00033935 1.53524e-05 -6.06458e-05
0.000107324 0.000136073 -0.000537521
-9.47856e-05 0.000359564 -0.000439196
-0.000226861 0.000250511 -0.000305991
-0.000221326 -1.04991e-05 1.28243e-05
-8.15371e-05 -0.000265141 0.000323861
0.000107711 -0.000358951 0.000438447
0.000231623 -0.000235027 0.000287078
0.000215036 3.14616e-05 -3.84293e-05
6.80106e-05 0.000278866 -0.000340626
0 -1.44558e-05 0
0 -1.09346e-05 0
0 4.5828e-07 0
0 1.15732e-05 0
0 1.5668e-05 0
0 1.02588e-05 0
0 -1.37328e-06 0
0 -1.12114e-05 0
0.000150087 -5.68712e-06 0.000190148
0.000359237 -3.96245e-06 0.000132484
0.000350472 1.66069e-07 -5.5525e-06
0.000129115 4.19385e-06 -0.000140221
-0.000170561 5.6777e-06 -0.000189833
-0.000366778 3.71753e-06 -0.000124295
-0.000340511 -4.97642e-07 1.66386e-05
-0.000107691 -4.41073e-06 0.000147473
0.000209134 6.53132e-06 0.000264955
0.000500566 4.55062e-06 0.000184604
0.000488352 -1.9072e-07 -7.73692e-06
0.00017991 -4.81637e-06 -0.000195385
-0.000237663 -6.52048e-06 -0.000264515
-0.000511073 -4.26935e-06 -0.000173194
-0.000474473 5.71511e-07 2.31844e-05
-0.000150058 5.06547e-06 0.00020549
0.000141322 1.4788e-05 0.000179044
0.000338258 1.03033e-05 0.000124747
0.000330005 -4.31821e-07 -5.22823e-06
0.000121575 -1.0905e-05 -0.000132032
-0.000160601 -1.47634e-05 -0.000178747
-0.000345358 -9.66648e-06 -0.000117036
-0.000320626 1.29399e-06 1.56669e-05
-0.000101402 1.1469e-05 0.00013886
-1.22132e-05 1.40744e-05 -1.54732e-05
-2.92326e-05 9.80616e-06 -1.07807e-05
-2.85193e-05 -4.10985e-07 4.51829e-07
-1.05066e-05 -1.03788e-05 1.14103e-05
1.38793e-05 -1.4051e-05 1.54475e-05
2.98462e-05 -9.20005e-06 1.01144e-05
2.77088e-05 1.23155e-06 -1.35395e-06
8.76324e-06 1.09156e-05 -1.20005e-05
-0.000158341 4.82351e-06 -0.000200604
-0.000378991 3.36072e-06 -0.000139769
-0.000369744 -1.40851e-07 5.85782e-06
-0.000136215 -3.55699e-06 0.000147931
0.00017994 -4.8155e-06 0.000200271
0.000386946 -3.153e-06 0.00013113
0.000359236 4.22072e-07 -1.75535e-05
0.000113613 3.74095e-06 -0.000155582
-0.000208421 -7.35326e-06 -0.000264052
-0.000498859 -5.12329e-06 -0.000183975
-0.000486687 2.14721e-07 7.71054e-06
-0.000179297 5.42249e-06 0.000194719
0.000236852 7.34105e-06 0.000263613
0.00050933 4.80662e-06 0.000172603
0.000472855 -6.43433e-07 -2.31053e-05
0.000149546 -5.70294e-06 -0.00020479
-0.000132076 -1.50696e-05 -0.000167329
-0.000316112 -1.04991e-05 -0.000116579
-0.000308398 4.40027e-07 4.88593e-06
-0.000113615 1.11123e-05 0.000123387
0.000150086 1.50439e-05 0.000167044
0.000322746 9.85017e-06 0.000109373
0.000299633 -1.31858e-06 -1.46411e-05
9.47669e-05 -1.16875e-05 -0.000129775
0 -0.000365062 0
0 -0.000276139 0
0 1.15732e-05 0
0 0.000292265 0
0 0.000395673 0
0 0.000259071 0
0 -3.46802e-05 0
0 -0.000283129 0
0.000101422 -0.00014362 -0.000234137
0.000242755 -0.000100066 -0.000163132
0.000236832 4.19385e-06 6.83699e-06
8.72496e-05 0.00010591 0.000172659
-0.000115257 0.000143382 0.000233748
-0.00024785 9.3881e-05 0.000153049
-0.000230101 -1.25673e-05 -2.04877e-05
-7.27722e-05 -0.000111387 -0.000181588
0.000141322 0.000164939 -0.000326249
0.000338258 0.00011492 -0.00022731
0.000330005 -4.81637e-06 9.52675e-06
0.000121575 -0.000121631 0.000240585
-0.000160601 -0.000164665 0.000325707
-0.000345358 -0.000107816 0.00021326
-0.000320626 1.44327e-05 -2.85478e-05
-0.000101402 0.000127921 -0.000253028
9.54988e-05 0.000373449 -0.000220463
0.000228578 0.000260196 -0.000153605
0.000223001 -1.0905e-05 6.43772e-06
8.21543e-05 -0.000275391 0.000162575
-0.000108526 -0.000372829 0.000220097
-0.000233376 -0.000244114 0.000144111
-0.000216663 3.26779e-05 -1.92912e-05
-6.85223e-05 0.000289634 -0.000170984
-8.25311e-06 0.000355429 1.90527e-05
-1.9754e-05 0.000247641 1.32747e-05
-1.9272e-05 -1.03788e-05 -5.56354e-07
-7.09986e-06 -0.000262103 -1.40499e-05
9.37894e-06 -0.000354839 -1.9021e-05
2.01686e-05 -0.000232335 -1.24542e-05
1.87243e-05 3.11012e-05 1.66717e-06
5.92177e-06 0.000275659 1.47766e-05
-0.000106999 0.000121811 0.000247012
-0.000256104 8.48704e-05 0.000172102
-0.000249855 -3.55699e-06 -7.21295e-06
-9.20473e-05 -8.98267e-05 -0.000182153
0.000121595 -0.000121609 -0.000246601
0.000261479 -7.96246e-05 -0.000161465
0.000242754 1.06588e-05 2.16143e-05
7.67738e-05 9.44725e-05 0.000191574
-0.000140841 -0.000185696 0.000325137
-0.000337105 -0.000129382 0.000226535
-0.000328879 5.42249e-06 -9.49426e-06
-0.00012116 0.000136937 -0.000239764
0.000160053 0.000185388 -0.000324597
0.00034418 0.000121385 -0.000212533
0.000319532 -1.6249e-05 2.84505e-05
0.000101056 -0.00014402 0.000252165
-8.92503e-05 -0.000380563 0.000206038
-0.000213613 -0.000265141 0.000143548
-0.000208401 1.11123e-05 -6.01622e-06
-7.67754e-05 0.000280625 -0.000151931
0.000101421 0.000379914 -0.000205687
0.000218096 0.000248752 -0.000134676
0.000202478 -3.32989e-05 1.80282e-05
6.40389e-05 -0.000295151 0.000159796
0 -0.000494226 0
0 -0.000373841 0
0 1.5668e-05 0
0 0.000395673 0
0 0.000535669 0
0 0.000350734 0
0 -4.69506e-05 0
0 -0.000383305 0
-8.76497e-06 -0.000194435 -0.000516398
-2.09791e-05 -0.000135471 -0.000359794
-2.04672e-05 5.6777e-06 1.50792e-05
-7.5402e-06 0.000143382 0.000380805
9.96063e-06 0.000194113 0.00051554
2.14195e-05 0.000127098 0.000337555
1.98856e-05 -1.70137e-05 -4.51864e-05
6.28904e-06 -0.000150797 -0.0004005
-1.22132e-05 0.000223298 -0.000719555
-2.92326e-05 0.00015558 -0.000501341
-2.85193e-05 -6.52048e-06 2.10116e-05
-1.05066e-05 -0.000164665 0.000530619
1.38793e-05 -0.000222927 0.00071836
2.98462e-05 -0.000145964 0.000470354
2.77088e-05 1.95392e-05 -6.29633e-05
8.76324e-06 0.000173182 -0.000558063
-8.25311e-06 0.000505581 -0.000486241
-1.9754e-05 0.000352257 -0.000338782
-1.9272e-05 -1.47634e-05 1.41986e-05
-7.09986e-06 -0.000372829 0.000358567
9.37894e-06 -0.000504741 0.000485433
2.01686e-05 -0.000330485 0.000317842
1.87243e-05 4.42399e-05 -4.25475e-05
5.92177e-06 0.000392111 -0.000377112
7.13242e-07 0.000481186 4.20214e-05
1.70716e-06 0.00033526 2.92779e-05
1.6655e-06 -1.4051e-05 -1.22706e-06
6.13576e-07 -0.000354839 -3.09877e-05
-8.10537e-07 -0.000480387 -4.19516e-05
-1.74299e-06 -0.000314538 -2.74682e-05
-1.61817e-06 4.21052e-05 3.677e-06
-5.11765e-07 0.000373191 3.25903e-05
9.24695e-06 0.00016491 0.000544794
2.21328e-05 0.000114899 0.000379578
2.15927e-05 -4.8155e-06 -1.59084e-05
7.95482e-06 -0.000121609 -0.000401745
-1.05084e-05 -0.000164636 -0.000543889
-2.25973e-05 -0.000107797 -0.000356117
-2.0979e-05 1.44301e-05 4.76711e-05
-6.63487e-06 0.000127898 0.000422523
1.21716e-05 -0.000251398 0.000717101
2.91329e-05 -0.000175159 0.000499632
2.84221e-05 7.34105e-06 -2.094e-05
1.04708e-05 0.000185388 -0.00052881
-1.38319e-05 0.000250981 -0.000715911
-2.97444e-05 0.000164332 -0.00046875
-2.76143e-05 -2.19981e-05 6.27486e-05
-8.73335e-06 -0.000194976 0.000556159
7.7131e-06 -0.000515211 0.000454425
1.84606e-05 -0.000358951 0.000316601
1.80102e-05 1.50439e-05 -1.3269e-05
6.63501e-06 0.000379914 -0.00033509
-8.76488e-06 0.000514333 -0.00045365
-1.88481e-05 0.000336765 -0.000297032
-1.74983e-05 -4.50806e-05 3.97618e-05
-5.5343e-06 -0.00039958 0.000352437
0 -0.0003236 0
0 -0.000244776 0
0 1.02588e-05 0
0 0.000259071 0
0 0.000350734 0
0 0.000229647 0
0 -3.07414e-05 0
0 -0.000250973 0
-0.000113635 -0.000127308 -0.000485419
-0.000271988 -8.8701e-05 -0.00033821
-0.000265351 3.71753e-06 1.41746e-05
-9.77562e-05 9.3881e-05 0.000357961
0.000129136 0.000127098 0.000484613
0.000277697 8.32184e-05 0.000317305
0.00025781 -1.11399e-05 -4.24756e-05
8.15354e-05 -9.8736e-05 -0.000376474
-0.000158341 0.000146206 -0.000676389
-0.000378991 0.000101867 -0.000471266
-0.000369744 -4.26935e-06 1.97511e-05
-0.000136215 -0.000107816 0.000498787
0.00017994 -0.000145964 0.000675266
0.000386946 -9.55711e-05 0.000442137
0.000359236 1.27935e-05 -5.91861e-05
0.000113613 0.000113393 -0.000524584
-0.000106999 0.000331034 -0.000457071
-0.000256104 0.000230644 -0.000318458
-0.000249855 -9.66648e-06 1.33469e-05
-9.20473e-05 -0.000244114 0.000337056
0.000121595 -0.000330485 0.000456312
0.000261479 -0.000216388 0.000298775
0.000242754 2.89665e-05 -3.99951e-05
7.67738e-05 0.000256739 -0.000354488
9.24695e-06 0.000315061 3.95005e-05
2.21328e-05 0.000219515 2.75215e-05
2.15927e-05 -9.20005e-06 -1.15345e-06
7.95482e-06 -0.000232335 -2.91287e-05
-1.05084e-05 -0.000314538 -3.94349e-05
-2.25973e-05 -0.000205947 -2.58204e-05
-2.0979e-05 2.75688e-05 3.45642e-06
-6.63487e-06 0.000244351 3.06352e-05
0.000119884 0.000107976 0.000512111
0.000286944 7.52312e-05 0.000356807
0.000279943 -3.153e-06 -1.49541e-05
0.000103132 -7.96246e-05 -0.000377644
-0.000136237 -0.000107797 -0.000511261
-0.000292967 -7.05812e-05 -0.000334753
-0.000271986 9.44826e-06 4.48113e-05
-8.60189e-05 8.37427e-05 0.000397176
0.000157801 -0.000164606 0.000674082
0.000377699 -0.000114687 0.000469659
0.000368483 4.80662e-06 -1.96838e-05
0.00013575 0.000121385 -0.000497086
-0.000179327 0.000164332 -0.000672963
-0.000385626 0.000107598 -0.000440629
-0.000358011 -1.44035e-05 5.89843e-05
-0.000113225 -0.000127663 0.000522795
9.99978e-05 -0.00033734 0.000427164
0.000239336 -0.000235027 0.000297608
0.000233496 9.85017e-06 -1.2473e-05
8.60207e-05 0.000248752 -0.000314988
-0.000113634 0.000336765 -0.000426436
-0.00024436 0.0002205 -0.000279213
-0.00022686 -2.9517e-05 3.73765e-05
-7.17504e-05 -0.000261629 0.000331294
0 4.33182e-05 0
0 3.27667e-05 0
0 -1.37328e-06 0
0 -3.46802e-05 0
0 -4.69506e-05 0
0 -3.07414e-05 0
0 4.11516e-06 0
0 3.35961e-05 0
-0.000149576 1.7042e-05 -0.000159991
-0.000358012 1.18738e-05 -0.000111472
-0.000349277 -4.97642e-07 4.67188e-06
-0.000128675 -1.25673e-05 0.000117982
0.00016998 -1.70137e-05 0.000159725
0.000365527 -1.11399e-05 0.000104582
0.00033935 1.49123e-06 -1.39997e-05
0.000107324 1.32172e-05 -0.000124084
-0.000208421 -1.95717e-05 -0.000222934
-0.000498859 -1.36364e-05 -0.000155326
-0.000486687 5.71511e-07 6.50986e-06
-0.000179297 1.44327e-05 0.000164397
0.000236852 1.95392e-05 0.000222564
0.00050933 1.27935e-05 0.000145726
0.000472855 -1.71259e-06 -1.95074e-05
0.000149546 -1.51792e-05 -0.0001729
-0.000140841 -4.43135e-05 -0.000150648
-0.000337105 -3.08749e-05 -0.000104962
-0.000328879 1.29399e-06 4.39905e-06
-0.00012116 3.26779e-05 0.000111092
0.000160053 4.42399e-05 0.000150398
0.00034418 2.89665e-05 9.84744e-05
0.000319532 -3.87757e-06 -1.31821e-05
0.000101056 -3.4368e-05 -0.000116837
1.21716e-05 -4.21753e-05 1.30191e-05
2.91329e-05 -2.93851e-05 9.07092e-06
2.84221e-05 1.23155e-06 -3.8017e-07
1.04708e-05 3.11012e-05 -9.60066e-06
-1.38319e-05 4.21052e-05 -1.29975e-05
-2.97444e-05 2.75688e-05 -8.51025e-06
-2.76143e-05 -3.69047e-06 1.13921e-06
-8.73335e-06 -3.27097e-05 1.00972e-05
0.000157801 -1.44541e-05 0.000168789
0.000377699 -1.00707e-05 0.000117602
0.000368483 4.22072e-07 -4.92878e-06
0.00013575 1.06588e-05 -0.000124469
-0.000179327 1.44301e-05 -0.000168509
-0.000385626 9.44826e-06 -0.000110333
-0.000358011 -1.26478e-06 1.47695e-05
-0.000113225 -1.12101e-05 0.000130907
0.00020771 2.20347e-05 0.000222174
0.000497158 1.53524e-05 0.000154797
0.000485027 -6.43433e-07 -6.48766e-06
0.000178685 -1.6249e-05 -0.000163837
-0.000236044 -2.19981e-05 -0.000221805
-0.000507593 -1.44035e-05 -0.000145229
-0.000471242 1.92811e-06 1.94409e-05
-0.000149036 1.70894e-05 0.00017231
0.000131625 4.51576e-05 0.000140791
0.000315033 3.14616e-05 9.80899e-05
0.000307347 -1.31858e-06 -4.11103e-06
0.000113227 -3.32989e-05 -0.000103818
-0.000149574 -4.50806e-05 -0.000140551
-0.000321646 -2.9517e-05 -9.2027e-05
-0.000298612 3.95125e-06 1.23191e-05
-9.44437e-05 3.50227e-05 0.000109193
0 0.00038396 0
0 0.000267507 0
0 -1.12114e-05 0
0 -0.000283129 0
0 -0.000383305 0
0 -0.000250973 0
0 3.35961e-05 0
0 0.000297786 0
-9.47856e-05 0.000151055 0.000262485
-0.000226861 0.000105241 0.000182875
-0.000221326 -4.41073e-06 -7.66443e-06
-8.15371e-05 -0.000111387 -0.000193555
0.000107711 -0.000150797 -0.000262037
0.000231623 -9.8736e-05 -0.000171571
0.000215036 1.32172e-05 2.29672e-05
6.80106e-05 0.000117153 0.000203574
-0.000132076 -0.000173478 0.00036575
-0.000316112 -0.000120863 0.00025482
-0.000308398 5.06547e-06 -1.06797e-05
-0.000113615 0.000127921 -0.000269702
0.000150086 0.000173182 -0.000365126
0.000322746 0.000113393 -0.00023907
0.000299633 -1.51792e-05 3.20028e-05
9.47669e-05 -0.000134543 0.000283663
-8.92503e-05 -0.000392781 0.000247156
-0.000213613 -0.000273653 0.000172195
-0.000208401 1.1469e-05 -7.21684e-06
-7.67754e-05 0.000289634 -0.000182251
0.000101421 0.000392111 -0.000246734
0.000218096 0.000256739 -0.000161552
0.000202478 -3.4368e-05 2.16259e-05
6.40389e-05 -0.000304628 0.000191686
7.7131e-06 -0.000373829 -2.13594e-05
1.84606e-05 -0.000260449 -1.48813e-05
1.80102e-05 1.09156e-05 6.23686e-07
6.63501e-06 0.000275659 1.57503e-05
-8.76488e-06 0.000373191 2.1323e-05
-1.88481e-05 0.000244351 1.39615e-05
-1.74983e-05 -3.27097e-05 -1.86893e-06
-5.5343e-06 -0.000289929 -1.65657e-05
9.99978e-05 -0.000128117 -0.000276918
0.000239336 -8.92598e-05 -0.000192931
0.000233496 3.74095e-06 8.08589e-06
8.60207e-05 9.44725e-05 0.000204198
-0.000113634 0.000127898 0.000276446
-0.00024436 8.37427e-05 0.000181006
-0.00022686 -1.12101e-05 -2.42301e-05
-7.17504e-05 -9.9363e-05 -0.000214768
0.000131625 0.000195309 -0.000364502
0.000315033 0.000136073 -0.000253951
0.000307347 -5.70294e-06 1.06433e-05
0.000113227 -0.00014402 0.000268782
-0.000149574 -0.000194976 0.000363881
-0.000321646 -0.000127663 0.000238255
-0.000298612 1.70894e-05 -3.18937e-05
-9.44437e-05 0.000151475 -0.000282696
8.34105e-05 0.000400263 -0.000230984
0.000199636 0.000278866 -0.000160928
0.000194765 -1.16875e-05 6.74463e-06
7.17519e-05 -0.000295151 0.000170326
-9.47846e-05 -0.00039958 0.00023059
-0.000203826 -0.000261629 0.000150981
-0.000189229 3.50227e-05 -2.02109e-05
-5.98487e-05 0.00031043 -0.000179143
