# vtk DataFile Version 3.0
Velocity field
ASCII
DATASET STRUCTURED_POINTS
DIMENSIONS 5 5 5
SPACING 1.33333 1.33333 1.33333
ORIGIN 0 0 0
POINT_DATA 125
VECTORS velocity float
0 0.455829 0
0 0.107228 0
0 -0.405381 0
0 -0.29795 0
0 0.265203 0
0 -0.241373 0.791638
0 -0.0567799 0.214617
0 0.214659 -0.811371
0 0.157772 -0.596347
0 -0.140432 0.460578
0 -0.569389 0.372446
0 -0.133942 0.100972
0 0.506373 -0.38173
0 0.372177 -0.280566
0 -0.331273 0.216691
0 -0.0265106 -0.616412
0 -0.0062363 -0.167112
0 0.0235766 0.631776
0 0.0173285 0.464347
0 -0.015424 -0.358631
0 0.556916 -0.662453
0 0.131008 -0.155834
0 -0.495281 0.589137
0 -0.364025 0.433008
0 0.324016 -0.385417
0 0.107228 0
0 0.0320963 0
0 -0.121341 0
0 -0.0891844 0
0 0.0623857 0
0.338818 -0.0567799 0.27801
0.524502 -0.0139795 0.0689625
-0.109946 0.0529098 -0.261058
-0.576288 0.0388969 -0.191925
-0.153098 -0.0330348 0.161747
0.159406 -0.133942 0.130797
0.246766 -0.033095 0.0324454
-0.0517271 0.125268 -0.122821
-0.271129 0.092093 -0.0902962
-0.0720287 -0.0779277 0.0760979
-0.263822 -0.0062363 -0.216473
-0.408277 -0.00154975 -0.0536811
0.0855828 0.00586722 0.203207
0.448586 0.00431357 0.149394
0.11921 -0.0036283 -0.125945
-0.283527 0.131008 -0.232642
-0.41692 0.0308179 -0.0547261
0.087377 -0.116509 0.206895
0.458029 -0.0856323 0.152065
0.128114 0.0762207 -0.135352
0 -0.405381 0
0 -0.121342 0
0 0.458737 0
0 0.337166 0
0 -0.235852 0
0.159406 0.214659 -0.660842
0.246766 0.0529098 -0.163481
-0.0517271 -0.200262 0.618822
-0.271129 -0.147225 0.454943
-0.0720287 0.124889 -0.38448
0.0749964 0.506373 -0.31091
0.116097 0.125268 -0.0769139
-0.0243363 -0.474176 0.291143
-0.12756 -0.348601 0.214039
-0.0338877 0.294609 -0.180888
-0.124122 0.0235766 0.514567
-0.192085 0.00586722 0.127257
0.0402647 -0.022214 -0.481698
0.211049 -0.0163319 -0.354131
0.0560854 0.013717 0.299377
-0.133393 -0.495281 0.553
-0.19615 -0.116509 0.130086
0.0411087 0.440466 -0.491798
0.215491 0.323737 -0.361465
0.0602745 -0.288156 0.321738
0 -0.29795 0
0 -0.0891845 0
0 0.337166 0
0 0.247813 0
0 -0.173348 0
-0.263822 0.157772 -0.588919
-0.408277 0.0388972 -0.145717
0.0855828 -0.147226 0.551581
0.448586 -0.108235 0.405509
0.11921 0.0917922 -0.342635
-0.124122 0.372177 -0.277072
-0.192085 0.0920935 -0.0685561
0.0402647 -0.348603 0.259507
0.211049 -0.256285 0.190783
0.0560854 0.216534 -0.161201
0.205426 0.0173285 0.458564
0.317809 0.00431359 0.113428
-0.0666183 -0.016332 -0.429356
-0.349183 -0.0120074 -0.315652
-0.0928234 0.0100818 0.266794
0.220769 -0.364025 0.492815
0.324636 -0.0856323 0.115929
-0.0680363 0.323737 -0.438273
-0.356645 0.237943 -0.322125
-0.0997565 -0.211791 0.286721
0 0.265203 0
0 0.0623857 0
0 -0.235852 0
0 -0.173348 0
0 0.154296 0
-0.283527 -0.140432 0.38377
-0.41692 -0.0330348 0.0902771
0.0873769 0.124889 -0.341297
0.458028 0.0917922 -0.250849
0.128114 -0.0817036 0.223279
-0.133393 -0.331273 0.180554
-0.19615 -0.0779277 0.0424731
0.0411087 0.294609 -0.160572
0.215491 0.216534 -0.118018
0.0602745 -0.192736 0.105047
0.220769 -0.015424 -0.298824
0.324636 -0.0036283 -0.0702945
-0.0680363 0.013717 0.265752
-0.356645 0.0100818 0.195324
-0.0997565 -0.00897373 -0.173857
0.237259 0.324016 -0.321143
0.348884 0.0762207 -0.075545
-0.0731181 -0.288156 0.285601
-0.383284 -0.211791 0.209913
-0.107207 0.188514 -0.186842
