# vtk DataFile Version 3.0
Velocity field
ASCII
DATASET STRUCTURED_POINTS
DIMENSIONS 10 10 10
SPACING 0.631579 0.631579 0.631579
ORIGIN 0 0 0
POINT_DATA 1000
VECTORS velocity float
0 0.460924 0
0 0.37201 0
0 0.139572 0
0 -0.146714 0
0 -0.376397 0
0 -0.460863 0
0 -0.367524 0
0 -0.132392 0
0 0.153818 0
0 0.380684 0
0 0.283096 0.361053
0 0.228486 0.30283
0 0.085724 0.113617
0 -0.0901108 -0.119431
0 -0.23118 -0.306401
0 -0.283059 -0.37516
0 -0.225731 -0.299179
0 -0.0813145 -0.107772
0 0.0944736 0.125213
0 0.233813 0.298198
0 -0.00395238 0.582809
0 -0.00318995 0.488826
0 -0.00119682 0.183399
0 0.00125806 -0.192784
0 0.00322757 -0.494591
0 0.00395186 -0.60558
0 0.00315149 -0.482932
0 0.00113525 -0.173965
0 -0.00131897 0.202118
0 -0.00326433 0.48135
0 -0.289476 0.579713
0 -0.233635 0.48623
0 -0.0876559 0.182425
0 0.0921415 -0.19176
0 0.23639 -0.491963
0 0.289438 -0.602363
0 0.230818 -0.480367
0 0.083147 -0.173041
0 -0.0966027 0.201045
0 -0.239082 0.478793
0 -0.463318 0.352959
0 -0.373942 0.296042
0 -0.140297 0.11107
0 0.147476 -0.116754
0 0.378352 -0.299533
0 0.463256 -0.36675
0 0.369433 -0.292472
0 0.13308 -0.105357
0 -0.154616 0.122406
0 -0.382661 0.291514
0 -0.458408 -0.00996851
0 -0.369979 -0.00836101
0 -0.13881 -0.00313691
0 0.145913 0.00329743
0 0.374342 0.00845961
0 0.458347 0.010358
0 0.365518 0.0082602
0 0.13167 0.00297555
0 -0.152978 -0.00345708
0 -0.378606 -0.00823313
0 -0.276641 -0.36905
0 -0.223276 -0.309538
0 -0.0837694 -0.116133
0 0.0880561 0.122076
0 0.225909 0.313188
0 0.276604 0.38347
0 0.220584 0.305806
0 0.0794604 0.11016
0 -0.0923195 -0.127987
0 -0.228482 -0.304804
0 0.0118562 -0.58575
0 0.0095691 -0.491293
0 0.00359016 -0.184325
0 -0.00377388 0.193757
0 -0.00968194 0.497087
0 -0.0118546 0.608636
0 -0.00945372 0.485369
0 -0.00340549 0.174843
0 0.0039566 -0.203138
0 0.0097922 -0.483779
0 0.295779 -0.576463
0 0.238722 -0.483504
0 0.0895645 -0.181402
0 -0.0941478 0.190685
0 -0.241537 0.489205
0 -0.29574 0.598986
0 -0.235844 0.477674
0 -0.0849574 0.172071
0 0.098706 -0.199917
0 0.244288 -0.476108
0 0.465588 -0.344772
0 0.375775 -0.278264
0 0.140984 -0.1044
0 -0.148199 0.109742
0 -0.380206 0.281545
0 -0.465526 0.344726
0 -0.371244 0.274909
0 -0.133732 0.0990297
0 0.155374 -0.115056
0 0.384536 -0.284752
0 0.37201 0
0 0.315867 0
0 0.118508 0
0 -0.124572 0
0 -0.319592 0
0 -0.39131 0
0 -0.312058 0
0 -0.112412 0
0 0.130604 0
0 0.307248 0
0.0524966 0.228486 0.399584
0.142536 0.191458 0.33485
0.175608 0.0718968 0.125746
0.140888 -0.075579 -0.132186
0.0518118 -0.193899 -0.339126
-0.0572543 -0.237411 -0.415228
-0.144231 -0.189328 -0.331132
-0.175562 -0.0682035 -0.119287
-0.139123 0.0790916 0.138324
-0.0472309 0.188709 0.330022
0.0847396 -0.00318995 0.645005
0.230081 -0.00266396 0.540513
0.283466 -0.00100029 0.202978
0.227421 0.00105152 -0.213375
0.0836344 0.00269769 -0.547414
-0.0924195 0.00330305 -0.670258
-0.232816 0.00263409 -0.534511
-0.28339 0.0009489 -0.192552
-0.22457 -0.00110057 0.223282
-0.0762397 -0.00263462 0.532719
0.0842894 -0.233635 0.641579
0.228859 -0.195536 0.537641
0.28196 -0.073427 0.2019
0.226213 0.0771879 -0.212241
0.0831901 0.198026 -0.544506
-0.0919288 0.242464 -0.666698
-0.23158 0.193358 -0.531671
-0.281885 0.0696552 -0.191529
-0.223378 -0.0807769 0.222095
-0.0758347 -0.192962 0.529889
0.0513198 -0.373942 0.390627
0.139341 -0.312963 0.327343
0.171672 -0.117523 0.122927
0.137731 0.123542 -0.129223
0.0506503 0.316947 -0.331524
-0.0559708 0.388073 -0.40592
-0.140998 0.309478 -0.323708
-0.171626 0.111486 -0.116613
-0.136004 -0.129287 0.135223
-0.0461721 -0.308844 0.322624
-0.00144941 -0.369979 -0.0110323
-0.00393536 -0.309647 -0.00924504
-0.00484849 -0.116277 -0.0034718
-0.00388985 0.122233 0.00364961
-0.00143051 0.313589 0.0093631
0.00158076 0.38396 0.0114643
0.00398216 0.306198 0.0091424
0.0048472 0.110304 0.00329345
0.00384112 -0.127917 -0.00381905
0.00130402 -0.305571 -0.00911176
-0.0536594 -0.223276 -0.408435
-0.145694 -0.186866 -0.342267
-0.179498 -0.0701715 -0.128531
-0.144009 0.0737652 0.135114
-0.0529595 0.189245 0.346637
0.0585223 0.231713 0.424425
0.147426 0.184785 0.338467
0.17945 0.0665667 0.121929
0.142204 -0.0771957 -0.141388
0.0482771 -0.184407 -0.337332
-0.0851672 0.0095691 -0.64826
-0.231241 0.00800513 -0.543236
-0.284894 0.003006 -0.204001
-0.228567 -0.00315994 0.21445
-0.084056 -0.00810687 0.550174
0.0928851 -0.00992609 0.673637
0.23399 -0.00791578 0.537205
0.284818 -0.00285158 0.193522
0.225702 0.00330703 -0.224407
0.0766245 0.00790325 -0.535407
-0.0838169 0.238722 -0.637982
-0.227471 0.199567 -0.534391
-0.280249 0.0749376 -0.200677
-0.22484 -0.0787752 0.210954
-0.0826851 -0.202098 0.541205
0.0913706 -0.24745 0.662655
0.230175 -0.197335 0.528446
0.280175 -0.0710877 0.190368
0.222023 0.0824456 -0.220756
0.0754096 0.197164 -0.526918
-0.0501294 0.375775 -0.381565
-0.131048 0.303286 -0.30796
-0.161407 0.113788 -0.115541
-0.129494 -0.119611 0.121454
-0.0476216 -0.306863 0.311592
0.0526238 -0.375725 0.381515
0.132567 -0.299629 0.304247
0.161364 -0.107935 0.109598
0.127906 0.125402 -0.127334
0.0451011 0.310357 -0.31514
0 0.139572 0
0 0.118508 0
0 0.0444621 0
0 -0.0467374 0
0 -0.119905 0
0 -0.146813 0
0 -0.117079 0
0 -0.0421751 0
0 0.0490003 0
0 0.115274 0
0.0847396 0.085724 0.283953
0.230081 0.0718968 0.237873
0.283466 0.0269997 0.0893282
0.227421 -0.0283826 -0.0939033
0.0836344 -0.0728157 -0.24091
-0.0924195 -0.089156 -0.294972
-0.232816 -0.0710993 -0.235231
-0.28339 -0.0256128 -0.0847401
-0.22457 0.0296996 0.0982631
-0.0762397 0.0708006 0.23452
0.136786 -0.00119682 0.458354
0.371396 -0.00100029 0.383972
0.45757 -0.000375612 0.144193
0.367103 0.000394846 -0.151578
0.135002 0.00101298 -0.388875
-0.149182 0.00124031 -0.476142
-0.37581 0.000989109 -0.379709
-0.457448 0.000356315 -0.136786
-0.3625 -0.000413244 0.158615
-0.123066 -0.000988466 0.378561
0.136059 -0.0876559 0.455919
0.369423 -0.073427 0.381932
0.455138 -0.027574 0.143427
0.365152 0.0289863 -0.150773
0.134285 0.0743645 -0.386809
-0.14839 0.0910528 -0.473612
-0.373814 0.0726117 -0.377691
-0.455017 0.0261576 -0.13606
-0.360573 -0.0303322 0.157773
-0.122412 -0.0723962 0.37655
0.08284 -0.140297 0.277587
0.224923 -0.117523 0.23254
0.277113 -0.0441333 0.0873258
0.222323 0.0463937 -0.0917988
0.0817593 0.119023 -0.23551
-0.0903475 0.145733 -0.288359
-0.227598 0.116218 -0.229959
-0.277039 0.0418664 -0.0828402
-0.219536 -0.0485477 0.0960603
-0.0745307 -0.115873 0.229263
-0.00233962 -0.13881 -0.00783981
-0.00635243 -0.116277 -0.00656757
-0.00782636 -0.0436656 -0.00246632
-0.00627899 0.0459022 0.00259263
-0.0023091 0.117762 0.00665145
0.00255165 0.144189 0.00814407
0.00642796 0.114987 0.00649462
0.00782428 0.0414227 0.00233962
0.00620032 -0.0480333 -0.002713
0.00210495 -0.114645 -0.00647501
-0.0866166 -0.0837694 -0.290242
-0.235177 -0.0701714 -0.243141
-0.289745 -0.0263515 -0.0913073
-0.232458 0.0277011 0.0959834
-0.0854867 0.0710673 0.246247
0.0944663 0.0870153 0.301506
0.237974 0.0693924 0.240442
0.289668 0.0249979 0.0866167
0.229545 -0.0289873 -0.10044
0.0779285 -0.0691862 -0.239715
-0.137476 0.00359016 -0.460667
-0.373267 0.003006 -0.385907
-0.459876 0.00112882 -0.14492
-0.368953 -0.00118663 0.152342
-0.135682 -0.00304431 0.390835
0.149934 -0.00372747 0.478541
0.377704 -0.00297254 0.381622
0.459753 -0.00107083 0.137476
0.364327 0.00124178 -0.159415
0.123687 0.00296516 -0.380471
-0.135297 0.0895645 -0.453363
-0.367182 0.0749375 -0.379622
-0.452376 0.02814 -0.142558
-0.362936 -0.0295812 0.149859
-0.133469 -0.0758908 0.384464
0.147489 -0.0929212 0.47074
0.371546 -0.0741019 0.375401
0.452255 -0.0266945 0.135235
0.358387 0.0309575 -0.156822
0.121726 0.0739725 -0.374439
-0.0809184 0.140984 -0.271148
-0.211536 0.113788 -0.218843
-0.260542 0.0426913 -0.0821061
-0.209029 -0.0448759 0.0863077
-0.0768704 -0.11513 0.221423
0.084945 -0.140965 0.271112
0.213988 -0.112416 0.216204
0.260473 -0.0404953 0.0778827
0.206465 0.0470486 -0.0904864
0.0728019 0.116441 -0.223945
0 -0.146714 0
0 -0.124572 0
0 -0.0467374 0
0 0.0491291 0
0 0.126041 0
0 0.154326 0
0 0.12307 0
0 0.0443333 0
0 -0.0515078 0
0 -0.121173 0
0.0842894 -0.0901108 0.0587703
0.228859 -0.075579 0.0492324
0.28196 -0.0283826 0.0184882
0.226213 0.0298362 -0.0194351
0.0831901 0.0765454 -0.0498612
-0.0919288 0.0937224 -0.0610502
-0.23158 0.0747408 -0.0486856
-0.281885 0.0269247 -0.0175386
-0.223378 -0.0312206 0.0203374
-0.0758347 -0.0744237 0.0485392
0.136059 0.00125806 0.0948665
0.369423 0.00105152 0.0794702
0.455138 0.000394846 0.0298436
0.365152 -0.00041507 -0.031372
0.134285 -0.00106486 -0.0804852
-0.14839 -0.00130383 -0.0985468
-0.373814 -0.00103977 -0.0785879
-0.455017 -0.000374561 -0.0283105
-0.360573 0.000434406 0.0328286
-0.122412 0.00103905 0.0783516
0.135337 0.0921415 0.0943626
0.36746 0.0771879 0.0790481
0.45272 0.0289863 0.029685
0.363212 -0.0304709 -0.0312054
0.133571 -0.0781732 -0.0800575
-0.147601 -0.0957158 -0.0980231
-0.371829 -0.0763308 -0.0781705
-0.452599 -0.0274973 -0.0281601
-0.358659 0.0318855 0.0326542
-0.121762 0.0761009 0.0779354
0.0823999 0.147476 0.0574528
0.223729 0.123542 0.0481287
0.275641 0.0463937 0.0180738
0.221142 -0.0487697 -0.0189995
0.0813251 -0.125119 -0.0487432
-0.0898675 -0.153198 -0.0596816
-0.226388 -0.12217 -0.0475943
-0.275567 -0.0440105 -0.0171454
-0.21837 0.051034 0.0198815
-0.0741348 0.121802 0.0474511
-0.00232719 0.145913 -0.00162262
-0.00631868 0.122233 -0.00135928
-0.00778477 0.0459022 -0.000510452
-0.00624567 -0.0482529 0.000536597
-0.00229684 -0.123793 0.00137664
0.0025381 -0.151574 0.00168557
0.00639382 -0.120875 0.00134419
0.0077827 -0.0435441 0.00048423
0.00616736 0.0504933 -0.000561508
0.00209376 0.120512 -0.00134015
-0.0861565 0.0880561 -0.0600721
-0.233928 0.0737651 -0.0503228
-0.288205 0.0277011 -0.0188978
-0.231224 -0.0291198 0.0198656
-0.0850329 -0.0747072 0.0509654
0.0939644 -0.0914722 0.0624024
0.23671 -0.0729463 0.0497643
0.288129 -0.0262781 0.017927
0.228325 0.0304718 -0.020788
0.0775145 0.0727267 -0.0496144
-0.136746 -0.00377388 -0.0953453
-0.371284 -0.00315994 -0.0798707
-0.457432 -0.00118663 -0.0299939
-0.366993 0.0012474 0.0315301
-0.134961 0.00320022 0.0808908
0.149138 0.00391837 0.0990436
0.375698 0.00312479 0.0789839
0.457311 0.00112567 0.0284532
0.362391 -0.00130537 -0.032994
0.12303 -0.0031169 -0.078747
-0.134578 -0.0941478 -0.0938335
-0.365231 -0.0787752 -0.0785705
-0.449972 -0.0295812 -0.029505
-0.361007 0.0310961 0.0310161
-0.13276 0.0797773 0.0795721
0.146706 0.0976798 0.0974287
0.369573 0.077897 0.0776967
0.449853 0.0280615 0.0279894
0.356484 -0.0325428 -0.0324573
0.121079 -0.0777579 -0.0774984
-0.0804886 -0.148199 -0.0561202
-0.210413 -0.119611 -0.0452944
-0.259158 -0.0448759 -0.0169937
-0.207918 0.0471724 0.0178633
-0.0764621 0.121021 0.0458285
0.0844937 0.148179 0.0561127
0.212851 0.118168 0.0447482
0.259089 0.0425676 0.0161195
0.205369 -0.0494563 -0.0187282
0.0724151 -0.122399 -0.0463504
0 -0.376397 0
0 -0.319592 0
0 -0.119905 0
0 0.126041 0
0 0.32336 0
0 0.395924 0
0 0.315738 0
0 0.113738 0
0 -0.132144 0
0 -0.310871 0
0.0513198 -0.23118 -0.189086
0.139341 -0.193899 -0.158398
0.171672 -0.0728157 -0.0594835
0.137731 0.0765454 0.06253
0.0506503 0.196377 0.160421
-0.0559708 0.240446 0.196421
-0.140998 0.191748 0.15664
-0.171626 0.0690756 0.0564279
-0.136004 -0.0800967 -0.0654332
-0.0461721 -0.190935 -0.156169
0.08284 0.00322757 -0.305221
0.224923 0.00269769 -0.255686
0.277113 0.00101298 -0.0960178
0.222323 -0.00106486 0.100935
0.0817593 -0.00273192 0.258951
-0.0903475 -0.003345 0.317061
-0.227598 -0.00266751 0.252847
-0.277039 -0.00096094 0.0910858
-0.219536 0.00111447 -0.105622
-0.0745307 0.00266569 -0.252086
0.0823999 0.23639 -0.3036
0.223729 0.198026 -0.254328
0.275641 0.0743645 -0.0955076
0.221142 -0.0781732 0.100399
0.0813251 -0.200555 0.257575
-0.0898675 -0.24556 0.315376
-0.226388 -0.195827 0.251504
-0.275567 -0.0705446 0.0906017
-0.21837 0.0818025 -0.10506
-0.0741348 0.195238 -0.250747
0.0501694 0.378352 -0.184847
0.136217 0.316947 -0.154848
0.167824 0.119023 -0.05815
0.134643 -0.125119 0.0611284
0.0495151 -0.320995 0.156825
-0.054716 -0.393028 0.192018
-0.137838 -0.313428 0.153129
-0.16778 -0.112909 0.0551631
-0.132955 0.130928 -0.0639663
-0.0451371 0.312486 -0.152668
-0.00141692 0.374342 0.00522058
-0.00384715 0.313589 0.00437332
-0.00473979 0.117762 0.00164232
-0.00380266 -0.123794 -0.00172642
-0.00139843 -0.317593 -0.00442916
0.00154534 -0.388863 -0.00542308
0.00389288 -0.310108 -0.00432477
0.00473853 -0.111713 -0.00155796
0.00375501 0.129541 0.00180658
0.00127479 0.309174 0.00431175
-0.0524566 0.225909 0.193274
-0.142427 0.189245 0.161907
-0.175474 0.0710673 0.0608011
-0.140781 -0.0747072 -0.063915
-0.0517723 -0.191662 -0.163975
0.0572106 -0.234672 -0.200772
0.144121 -0.187144 -0.160109
0.175428 -0.0674169 -0.057678
0.139017 0.0781757 0.0668825
0.0471949 0.186581 0.159628
-0.0832581 -0.00968194 0.306762
-0.226056 -0.00810687 0.256974
-0.278509 -0.00304431 0.0965015
-0.223444 0.00320022 -0.101444
-0.0821714 0.0082102 -0.260256
0.090803 0.0100526 -0.318658
0.228745 0.0080167 -0.254121
0.278435 0.00288793 -0.0915448
0.220643 -0.00334896 0.106154
0.0749068 -0.00799644 0.253359
-0.081938 -0.241537 0.301898
-0.222372 -0.202098 0.25279
-0.273967 -0.0758908 0.0949286
-0.219799 0.0797773 -0.0997909
-0.0808314 0.20467 -0.256014
0.089322 0.250599 -0.313465
0.225015 0.199846 -0.249978
0.273895 0.0719921 -0.0900522
0.217046 -0.0834889 0.104427
0.0737192 -0.199489 0.249342
-0.0490056 -0.380206 0.18056
-0.12811 -0.306863 0.145729
-0.157789 -0.11513 0.054675
-0.126591 0.121021 -0.0574729
-0.0465541 0.310481 -0.147447
0.0514442 0.380155 -0.180536
0.129595 0.303163 -0.143972
0.157747 0.109208 -0.0518626
0.125039 -0.126881 0.0602556
0.0440901 -0.314017 0.149127
0 -0.460863 0
0 -0.39131 0
0 -0.146813 0
0 0.154326 0
0 0.395924 0
0 0.484772 0
0 0.386592 0
0 0.139261 0
0 -0.161798 0
0 -0.380633 0
-0.00144941 -0.283059 -0.363991
-0.00393536 -0.237411 -0.304919
-0.00484849 -0.089156 -0.114506
-0.00388985 0.0937224 0.12037
-0.00143051 0.240446 0.308813
0.00158076 0.294403 0.378111
0.00398216 0.234778 0.301533
0.0048472 0.0845767 0.108624
0.00384112 -0.0980708 -0.125959
0.00130402 -0.233782 -0.300626
-0.00233962 0.00395186 -0.587552
-0.00635243 0.00330305 -0.492197
-0.00782636 0.00124031 -0.184835
-0.00627899 -0.00130383 0.194301
-0.0023091 -0.003345 0.498481
0.00255165 -0.00409563 0.610346
0.00642796 -0.00326613 0.486732
0.00782428 -0.00117658 0.17534
0.00620032 0.00136457 -0.203322
0.00210495 0.00326389 -0.485268
-0.00232719 0.289438 -0.584431
-0.00631868 0.242464 -0.489583
-0.00778477 0.0910528 -0.183854
-0.00624567 -0.0957158 0.193269
-0.00229684 -0.24556 0.495833
0.0025381 -0.300665 0.607103
0.00639382 -0.239772 0.484146
0.0077827 -0.0863752 0.174409
0.00616736 0.10016 -0.202242
0.00209376 0.23905 -0.48269
-0.00141692 0.463256 -0.355832
-0.00384715 0.388073 -0.298083
-0.00473979 0.145733 -0.111939
-0.00380266 -0.153198 0.117672
-0.00139843 -0.393028 0.30189
0.00154534 -0.481226 0.369636
0.00389288 -0.383764 0.294773
0.00473853 -0.138248 0.106189
0.00375501 0.160309 -0.123136
0.00127479 0.382609 -0.293887
4.00175e-05 0.458347 0.0100496
0.000108653 0.38396 0.00841866
0.000133865 0.144189 0.00316145
0.000107398 -0.151574 -0.00332339
3.94955e-05 -0.388863 -0.00852615
-4.36437e-05 -0.476127 -0.0104395
-0.000109947 -0.379697 -0.00832521
-0.000133829 -0.136782 -0.00299906
-0.000106051 0.158611 0.00347768
-3.60035e-05 0.378555 0.00830014
0.00148151 0.276604 0.372054
0.00402252 0.231713 0.311673
0.00495587 0.0870153 0.117042
0.00397603 -0.0914722 -0.123037
0.00146218 -0.234672 -0.315652
-0.00161578 -0.287333 -0.386486
-0.00407038 -0.229141 -0.308213
-0.00495456 -0.0825456 -0.11103
-0.0039262 0.0957188 0.128749
-0.00133291 0.228451 0.307285
0.00235143 -0.0118546 0.590517
0.00638445 -0.00992609 0.494677
0.00786581 -0.00372747 0.185766
0.00631062 0.00391837 -0.19528
0.00232073 0.0100526 -0.500994
-0.00256451 0.0123085 -0.613423
-0.00646035 0.00981567 -0.489186
-0.00786373 0.003536 -0.176224
-0.00623156 -0.00410048 0.204347
-0.00211557 -0.0097909 0.487717
0.00231415 -0.29574 0.581155
0.00628038 -0.24745 0.486622
0.00773753 -0.0929212 0.182739
0.00620777 0.0976798 -0.192097
0.0022829 0.250599 -0.492828
-0.00252269 0.306836 -0.603422
-0.00635499 0.244692 -0.481211
-0.00773548 0.0881477 -0.173351
-0.00612995 -0.102225 0.201023
-0.00208203 -0.244255 0.479984
0.00138405 -0.465526 0.347578
0.00361817 -0.375725 0.280529
0.00445638 -0.140965 0.10525
0.00357528 0.148179 -0.110636
0.00131481 0.380155 -0.283837
-0.00145292 0.465465 -0.347532
-0.0036601 0.371194 -0.277146
-0.00445519 0.133714 -0.0998358
-0.00353144 -0.155353 0.115992
-0.00124522 -0.384485 0.28707
0 -0.367524 0
0 -0.312058 0
0 -0.117079 0
0 0.12307 0
0 0.315738 0
0 0.386592 0
0 0.308295 0
0 0.111057 0
0 -0.129029 0
0 -0.303543 0
-0.0536594 -0.225731 -0.398466
-0.145694 -0.189328 -0.333799
-0.179498 -0.0710993 -0.125351
-0.144009 0.0747408 0.131771
-0.0529595 0.191748 0.338062
0.0585223 0.234778 0.413924
0.147426 0.187229 0.330092
0.17945 0.0674472 0.118912
0.142204 -0.0782087 -0.137889
0.0482771 -0.186434 -0.329099
-0.0866166 0.00315149 -0.643201
-0.235177 0.00263409 -0.538814
-0.289745 0.000989109 -0.202341
-0.232458 -0.00103977 0.212704
-0.0854867 -0.00266751 0.545695
0.0944663 -0.00326613 0.668154
0.237974 -0.00260465 0.532831
0.289668 -0.000938297 0.191947
0.229545 0.0010882 -0.22258
0.0779285 0.00260285 -0.531229
-0.0861565 0.230818 -0.639785
-0.233928 0.193358 -0.535952
-0.288205 0.0726117 -0.201266
-0.231224 -0.0763308 0.211574
-0.0850329 -0.195827 0.542796
0.0939644 -0.239772 0.664604
0.23671 -0.191211 0.530001
0.288129 -0.068882 0.190928
0.228325 0.0798742 -0.221397
0.0775145 0.190636 -0.528407
-0.0524566 0.369433 -0.389534
-0.142427 0.309478 -0.326315
-0.175474 0.116218 -0.122542
-0.140781 -0.12217 0.128817
-0.0517723 -0.313428 0.330482
0.0572106 -0.383764 0.404645
0.144121 -0.306042 0.322692
0.175428 -0.110248 0.116247
0.139017 0.127842 -0.134798
0.0471949 0.30512 -0.321722
0.00148151 0.365518 0.0110015
0.00402252 0.306198 0.00921602
0.00495587 0.114987 0.00346088
0.00397603 -0.120875 -0.00363815
0.00146218 -0.310108 -0.00933368
-0.00161578 -0.379697 -0.0114283
-0.00407038 -0.302798 -0.00911372
-0.00495456 -0.10908 -0.00328312
-0.0039262 0.126487 0.00380706
-0.00133291 0.301886 0.00908628
0.054848 0.220584 0.407293
0.14892 0.184785 0.341193
0.183475 0.0693924 0.128128
0.147199 -0.0729463 -0.13469
0.0541326 -0.187144 -0.345548
-0.0598188 -0.229141 -0.423092
-0.150692 -0.182733 -0.337405
-0.183426 -0.0658277 -0.121546
-0.145354 0.0763331 0.140944
-0.0493465 0.182183 0.336389
0.0870537 -0.00945372 0.646447
0.236362 -0.00791578 0.54153
0.291205 -0.00297254 0.20336
0.23363 0.00312479 -0.213777
0.0859174 0.0080167 -0.548446
-0.0949424 0.00981567 -0.671522
-0.239173 0.00782769 -0.535517
-0.291128 0.00281985 -0.192914
-0.230702 -0.00327 0.223701
-0.0783218 -0.00780795 0.53391
0.0856735 -0.235844 0.636198
0.232509 -0.197335 0.532711
0.286456 -0.0741019 0.200047
0.229821 0.077897 -0.210291
0.0845169 0.199846 -0.539505
-0.0933942 0.244692 -0.660573
-0.235272 0.195134 -0.526787
-0.28638 0.0702952 -0.18977
-0.226941 -0.0815209 0.220062
-0.07708 -0.194786 0.525445
0.0512398 -0.371244 0.380498
0.133951 -0.299629 0.307099
0.164982 -0.112416 0.115218
0.132363 0.118168 -0.121114
0.0486764 0.303163 -0.31072
-0.0537895 0.371194 -0.380448
-0.135503 0.296016 -0.303396
-0.164938 0.106633 -0.109292
-0.130739 -0.12389 0.126978
-0.0461001 -0.306615 0.314259
0 -0.132392 0
0 -0.112412 0
0 -0.0421751 0
0 0.0443333 0
0 0.113738 0
0 0.139261 0
0 0.111057 0
0 0.0400056 0
0 -0.0464797 0
0 -0.109345 0
-0.0851672 -0.0813145 -0.27921
-0.231241 -0.0682035 -0.233898
-0.284894 -0.0256128 -0.0878357
-0.228567 0.0269247 0.0923348
-0.084056 0.0690756 0.236885
0.0928851 0.0845767 0.290043
0.23399 0.0674473 0.231302
0.284818 0.0242972 0.083324
0.225702 -0.0281738 -0.0966211
0.0766245 -0.0671587 -0.230603
-0.137476 0.00113525 -0.450698
-0.373267 0.000948901 -0.377556
-0.459876 0.000356316 -0.141784
-0.368953 -0.000374561 0.149045
-0.135682 -0.00096094 0.382377
0.149934 -0.00117658 0.468185
0.377704 -0.000938297 0.373364
0.459754 -0.000338012 0.134501
0.364327 0.000392013 -0.155965
0.123687 0.00093762 -0.372238
-0.136746 0.083147 -0.448304
-0.371284 0.0696553 -0.37555
-0.457432 0.0261576 -0.14103
-0.366993 -0.0274973 0.148254
-0.134961 -0.0705447 0.380346
0.149138 -0.0863753 0.465699
0.375698 -0.068882 0.371382
0.457311 -0.024814 0.133786
0.362391 0.0287739 -0.155137
0.12303 0.0686722 -0.370261
-0.0832581 0.13308 -0.272951
-0.226056 0.111486 -0.228655
-0.278509 0.0418664 -0.0858667
-0.223444 -0.0440106 0.0902646
-0.0821714 -0.11291 0.231575
0.090803 -0.138248 0.283541
0.228745 -0.110248 0.226116
0.278435 -0.0397158 0.081456
0.220643 0.0460538 -0.0944553
0.0749068 0.109913 -0.225434
0.00235143 0.13167 0.00770886
0.00638445 0.110304 0.00645782
0.00786581 0.0414227 0.00242511
0.00631062 -0.0435442 -0.00254931
0.00232074 -0.111713 -0.00654026
-0.00256451 -0.136782 -0.00800795
-0.00646035 -0.10908 -0.00638612
-0.00786373 -0.0392949 -0.00230054
-0.00623156 0.0455658 0.00266768
-0.00211557 0.108748 0.00636686
0.0870537 0.0794604 0.285395
0.236362 0.0665668 0.239079
0.291205 0.0249979 0.0897813
0.23363 -0.0262781 -0.0943796
0.0859175 -0.0674169 -0.242132
-0.0949424 -0.0825457 -0.296468
-0.239173 -0.0658277 -0.236424
-0.291128 -0.0237138 -0.0851698
-0.230702 0.0274981 0.0987615
-0.0783218 0.0656274 0.235711
0.13817 -0.00340549 0.452973
0.375147 -0.00285158 0.379459
0.462193 -0.00107083 0.142498
0.370811 0.00112567 -0.149797
0.136366 0.00288793 -0.384304
-0.15069 0.003536 -0.470545
-0.379608 0.00281985 -0.375245
-0.46207 0.00101582 -0.135179
-0.366163 -0.00117798 0.156751
-0.124311 -0.00281264 0.374117
0.135979 -0.0849574 0.445791
0.369033 -0.0710877 0.37328
0.454656 -0.0266945 0.140176
0.364765 0.0280615 -0.147355
0.134142 0.0719921 -0.37804
-0.148232 0.0881478 -0.462875
-0.373418 0.0702953 -0.369131
-0.454535 0.0253231 -0.132975
-0.360193 -0.029367 0.154202
-0.12234 -0.0701674 0.368185
0.0813268 -0.133732 0.26662
0.212604 -0.107935 0.215188
0.261857 -0.0404953 0.0807348
0.210083 0.0425676 -0.0848662
0.0772583 0.109208 -0.217725
-0.0853736 0.133714 -0.266584
-0.215068 0.106633 -0.212593
-0.261787 0.0384122 -0.0765819
-0.207507 -0.0446285 0.0889751
-0.0731693 -0.110451 0.220205
0 0.153818 0
0 0.130604 0
0 0.0490002 0
0 -0.0515077 0
0 -0.132144 0
0 -0.161798 0
0 -0.129029 0
0 -0.0464797 0
0 0.0540016 0
0 0.12704 0
-0.0838169 0.0944736 -0.0522324
-0.227471 0.0790892 -0.0438778
-0.280249 0.0296987 -0.0164791
-0.22484 -0.0312196 0.0173233
-0.0826851 -0.0800942 0.0444429
0.0913706 -0.0980679 0.0544162
0.230175 -0.0782063 0.0433953
0.280175 -0.0281729 0.0156328
0.222023 0.0326729 -0.0181236
0.0754096 0.078027 -0.0431394
-0.135297 -0.00131897 -0.0843131
-0.367182 -0.00110054 -0.0708271
-0.452376 -0.00041323 -0.0266005
-0.362936 0.000434391 0.0279631
-0.133469 0.00111443 0.0717394
0.147489 0.00136452 0.0878381
0.371547 0.00108817 0.0700484
0.452255 0.000392 0.0252344
0.358387 -0.000454687 -0.029255
0.121726 -0.00108936 -0.0696354
-0.134578 -0.0966027 -0.0838652
-0.365231 -0.0807744 -0.0704509
-0.449972 -0.0303312 -0.0264592
-0.361007 0.0318845 0.0278145
-0.13276 0.0817999 0.0713583
0.146706 0.100157 0.0873716
0.369573 0.0798717 0.0696765
0.449853 0.028773 0.0251004
0.356484 -0.0333697 -0.0290996
0.121079 -0.0797854 -0.0692654
-0.081938 -0.154616 -0.0510615
-0.222372 -0.129283 -0.0428942
-0.273967 -0.0485462 -0.0161097
-0.219799 0.0510324 0.0169349
-0.0808314 0.130924 0.0434467
0.089322 0.160304 0.0531965
0.225015 0.127838 0.0424227
0.273895 0.0460524 0.0152824
0.217046 -0.0534094 -0.0177173
0.0737192 -0.1277 -0.0421724
0.00231415 -0.152978 0.00144211
0.00628038 -0.127913 0.00121145
0.00773753 -0.0480318 0.000454982
0.00620777 0.0504917 -0.000478287
0.0022829 0.129537 -0.00122705
-0.00252269 0.158606 -0.00150241
-0.00635499 0.126483 -0.00119813
-0.00773548 0.0455643 -0.000431615
-0.00612995 -0.0528434 0.000500385
-0.00208203 -0.126346 0.00119106
0.0856735 -0.0923195 0.0533893
0.232509 -0.0771933 0.0448498
0.286456 -0.0289864 0.0168442
0.229821 0.0304708 -0.0177069
0.0845169 0.0781733 -0.0454274
-0.0933942 0.0957158 -0.0556216
-0.235272 0.0763307 -0.0443565
-0.28638 0.0274972 -0.0159791
-0.226941 -0.0318901 0.0185251
-0.07708 -0.0762479 0.044095
0.135979 0.0039566 0.0847386
0.369033 0.00330693 0.071184
0.454656 0.00124174 0.0267346
0.364765 -0.00130533 -0.0281039
0.134142 -0.00334885 -0.0721009
-0.148232 -0.00410035 -0.0882808
-0.373418 -0.0032699 -0.0704013
-0.454535 -0.00117795 -0.0253615
-0.360193 0.00136619 0.0294024
-0.12234 0.00326781 0.0699867
0.133823 0.098706 0.083395
0.36302 0.0824431 0.0700216
0.447245 0.0309565 0.0262975
0.358819 -0.0325418 -0.0276444
0.131955 -0.0834863 -0.0709219
-0.145816 -0.102221 -0.0868373
-0.367333 -0.0815184 -0.0692503
-0.447126 -0.029366 -0.0249468
-0.354324 0.0340604 0.0289228
-0.1204 0.0815226 0.0688771
0.0800373 0.155374 0.0498771
0.209233 0.125402 0.0402556
0.257705 0.0470486 0.0151032
0.206753 -0.0494563 -0.0158761
0.0760334 -0.126881 -0.0407303
-0.08402 -0.155353 -0.0498704
-0.211658 -0.12389 -0.0397702
-0.257637 -0.0446285 -0.0143263
-0.204217 0.0518507 0.0166448
-0.0720092 0.128326 0.0411942
0 0.380684 0
0 0.307248 0
0 0.115274 0
0 -0.121173 0
0 -0.310871 0
0 -0.380633 0
0 -0.303543 0
0 -0.109345 0
0 0.12704 0
0 0.314412 0
-0.0501294 0.233813 0.194897
-0.131048 0.18871 0.157301
-0.161407 0.0708006 0.0590166
-0.129494 -0.0744237 -0.0620366
-0.0476216 -0.190935 -0.159156
0.0526238 -0.233782 -0.194871
0.132566 -0.186434 -0.155404
0.161364 -0.0671587 -0.0559808
0.127906 0.078027 0.0650402
0.0451011 0.193109 0.160968
-0.0809184 -0.00326433 0.314601
-0.211536 -0.00263462 0.253914
-0.260542 -0.000988466 0.0952641
-0.209029 0.00103905 -0.100139
-0.0768704 0.00266569 -0.256908
0.0849449 0.00326389 -0.31456
0.213988 0.00260286 -0.250852
0.260473 0.000937621 -0.0903638
0.206465 -0.00108936 0.104987
0.0728019 -0.00269605 0.259834
-0.0804886 -0.239082 0.31293
-0.210413 -0.192962 0.252565
-0.259158 -0.0723962 0.094758
-0.207918 0.0761009 -0.0996071
-0.076462 0.195238 -0.255543
0.0844937 0.23905 -0.312889
0.212851 0.190636 -0.249519
0.259089 0.0686722 -0.0898838
0.205368 -0.0797855 0.10443
0.0724151 -0.197461 0.258453
-0.0490056 -0.382661 0.190528
-0.12811 -0.308844 0.153775
-0.157789 -0.115873 0.0576936
-0.126591 0.121803 -0.060646
-0.0465541 0.312486 -0.155588
0.0514441 0.382609 -0.190503
0.129595 0.30512 -0.15192
0.157747 0.109913 -0.0547259
0.125039 -0.1277 0.0635822
0.0440901 -0.316044 0.15736
0.00138405 -0.378606 -0.00538102
0.00361817 -0.305571 -0.004343
0.00445638 -0.114645 -0.00162942
0.00357528 0.120512 0.0017128
0.00131481 0.309174 0.00439422
-0.00145292 0.378555 0.00538031
-0.0036601 0.301886 0.00429064
-0.00445519 0.108748 0.00154561
-0.00353143 -0.126346 -0.00179573
-0.00124522 -0.312695 -0.00444426
0.0512398 -0.228482 -0.199214
0.133951 -0.184407 -0.160785
0.164982 -0.0691863 -0.0603238
0.132363 0.0727267 0.0634108
0.0486764 0.186581 0.162681
-0.0537894 0.228451 0.199188
-0.135503 0.182183 0.158846
-0.164938 0.0656274 0.0572208
-0.130739 -0.0762479 -0.0664809
-0.0461001 -0.188706 -0.164534
0.0813268 0.0097922 -0.316189
0.212604 0.00790325 -0.255195
0.261857 0.00296516 -0.0957448
0.210083 -0.0031169 0.100644
0.0772583 -0.00799644 0.258204
-0.0853736 -0.0097909 0.316147
-0.215068 -0.00780795 0.252118
-0.261787 -0.00281264 0.0908198
-0.207507 0.00326781 -0.105517
-0.0731693 0.00808751 -0.261145
0.0800373 0.244288 -0.311176
0.209233 0.197164 -0.251149
0.257705 0.0739725 -0.0942268
0.206752 -0.0777579 0.0990487
0.0760333 -0.199489 0.25411
-0.08402 -0.244255 0.311134
-0.211658 -0.194786 0.248121
-0.257636 -0.0701674 0.0893799
-0.204217 0.0815227 -0.103844
-0.0720092 0.201761 -0.257004
0.0478689 0.384536 -0.186109
0.125138 0.310357 -0.150208
0.154129 0.116441 -0.0563553
0.123655 -0.122399 0.0592392
0.0454742 -0.314017 0.151979
-0.0502509 -0.384485 0.186084
-0.126589 -0.306615 0.148396
-0.154088 -0.110451 0.0534565
-0.122139 0.128326 -0.0621074
-0.0430674 0.317593 -0.15371
