# vtk DataFile Version 3.0
Velocity field
ASCII
DATASET STRUCTURED_POINTS
DIMENSIONS 8 8 8
SPACING 0.8 0.8 0.8
ORIGIN 0 0 0
POINT_DATA 512
VECTORS velocity float
0 0.163764 0
0 0.114096 0
0 -0.00478184 0
0 -0.120759 0
0 -0.163485 0
0 -0.107043 0
0 0.0143292 0
0 0.12701 0
0 0.064427 0.167146
0 0.0448867 0.123466
0 -0.00188124 -0.00517457
0 -0.0475081 -0.130677
0 -0.0643172 -0.176912
0 -0.0421123 -0.115835
0 0.00563731 0.0155061
0 0.0499674 0.129633
0 -0.0739907 0.232903
0 -0.0515498 0.17204
0 0.00216049 -0.00721032
0 0.0545603 -0.182086
0 0.0738645 -0.246511
0 0.0483636 -0.161406
0 -0.00647413 0.0216064
0 -0.0573847 0.180632
0 -0.167527 0.157385
0 -0.116717 0.116256
0 0.0048917 -0.00487238
0 0.123533 -0.123045
0 0.167241 -0.16658
0 0.109503 -0.10907
0 -0.0146584 0.0146006
0 -0.129928 0.122062
0 -0.159443 -0.0136013
0 -0.111085 -0.010047
0 0.00465567 0.000421076
0 0.117572 0.0106337
0 0.159171 0.014396
0 0.104219 0.00942596
0 -0.0139511 -0.00126179
0 -0.123659 -0.0105487
0 -0.0546436 -0.176337
0 -0.0380706 -0.130256
0 0.00159557 0.00545912
0 0.0402939 0.137862
0 0.0545504 0.18664
0 0.0357175 0.122205
0 -0.00478127 -0.0163587
0 -0.0423797 -0.136761
0 0.0833021 -0.232109
0 0.0580371 -0.171453
0 -0.00243238 0.00718573
0 -0.0614264 0.181466
0 -0.08316 0.245671
0 -0.0544499 0.160855
0 0.00728886 -0.0215327
0 0.0646062 -0.180016
0 0.170718 -0.147087
0 0.11894 -0.102476
0 -0.00498488 0.00429487
0 -0.125886 0.108461
0 -0.170427 0.146836
0 -0.111589 0.0961423
0 0.0149377 -0.01287
0 0.132403 -0.114075
0 0.114096 0
0 0.0863039 0
0 -0.00361707 0
0 -0.091344 0
0 -0.123663 0
0 -0.0809695 0
0 0.0108389 0
0 0.0884886 0
0.0356301 0.0448867 0.165095
0.0864743 0.0317485 0.11667
0.0843669 -0.00133075 -0.00489026
0.031081 -0.0336059 -0.123495
-0.0410581 -0.0454962 -0.16719
-0.0882918 -0.029789 -0.10947
-0.0819673 0.00398525 0.0146455
-0.0255653 0.0348126 0.128042
0.0496474 -0.0515498 0.230045
0.120495 -0.0364134 0.16257
0.117557 0.00152627 -0.00681414
0.0433086 0.0385433 -0.17208
-0.0572112 0.0521805 -0.232966
-0.123027 0.0341657 -0.152537
-0.114215 -0.00457101 0.0204073
-0.035623 -0.0399803 0.178415
0.0335493 -0.116717 0.155453
0.0814243 -0.0824458 0.109857
0.0794401 0.00345573 -0.00460467
0.0292658 0.0872687 -0.116284
-0.0386604 0.118145 -0.157427
-0.0831358 0.0773571 -0.103077
-0.0771807 -0.0103495 0.0137902
-0.0240723 -0.0905216 0.120564
-0.00289936 -0.111085 -0.0134344
-0.00703682 -0.0784677 -0.00949396
-0.0068653 0.00328898 0.00039794
-0.00252918 0.0830578 0.0100494
0.00334107 0.112445 0.0136049
0.00718472 0.0736248 0.00890797
0.00667002 -0.00985015 -0.00119177
0.00208035 -0.0861538 -0.0104193
-0.0375893 -0.0380706 -0.174173
-0.09123 -0.0268922 -0.123086
-0.089006 0.00112719 0.00515916
-0.0327902 0.0284653 0.130287
0.0433157 0.0385366 0.176383
0.0931475 0.0252322 0.115489
0.0864745 -0.00337581 -0.0154509
0.0269711 -0.0295262 -0.135083
-0.0494781 0.0580371 -0.22926
-0.120079 0.0409906 -0.162009
-0.117152 -0.00171812 0.00679062
-0.0431591 -0.0433884 0.171486
0.0570137 -0.0587398 0.232161
0.122602 -0.0384604 0.15201
0.113821 0.00514563 -0.0203369
0.0355015 0.0450116 -0.177807
-0.0313541 0.11894 -0.145282
-0.0750434 0.0828665 -0.101219
-0.0732123 -0.003473 0.00424216
-0.0269716 -0.0877058 0.10713
0.0356297 -0.118737 0.145034
0.0766185 -0.0777445 0.0949624
0.0711316 0.0104072 -0.012712
0.0224972 0.092246 -0.112676
0 -0.00478184 0
0 -0.00361707 0
0 0.000151594 0
0 0.0038283 0
0 0.00518281 0
0 0.0033935 0
0 -0.000454266 0
0 -0.00370863 0
0.0496474 -0.00188124 0.0628992
0.120495 -0.00133075 0.0444347
0.117557 5.57789e-05 -0.00186248
0.0433086 0.0014086 -0.0470343
-0.0572112 0.00190699 -0.0636755
-0.123027 0.00124863 -0.0416921
-0.114215 -0.000167042 0.00557791
-0.035623 -0.00145902 0.0487824
0.0691793 0.00216049 0.0876445
0.167899 0.00152627 0.0619159
0.163806 -6.39735e-05 -0.00259521
0.0603469 -0.00161554 -0.065538
-0.0797188 -0.00218715 -0.088726
-0.171427 -0.00143207 -0.0580947
-0.159149 0.000191593 0.00777233
-0.0496376 0.00167561 0.0679741
0.046748 0.0048917 0.0592259
0.113458 0.00345573 0.0418397
0.110693 -0.000144847 -0.00175372
0.0407794 -0.00365787 -0.0442872
-0.05387 -0.0049521 -0.0599566
-0.115843 -0.00324242 -0.0392574
-0.107545 0.0004338 0.00525217
-0.0335427 0.00379384 0.0459336
-0.00404001 0.00465567 -0.00511836
-0.00980518 0.00328898 -0.00361584
-0.00956616 -0.000137858 0.000151558
-0.00352422 -0.00348139 0.00382734
0.00465551 -0.00471316 0.00518152
0.0100113 -0.00308598 0.00339266
0.00929414 0.000412867 -0.000453899
0.00289879 0.00361078 -0.00396963
-0.0523774 0.00159557 -0.0663579
-0.127121 0.00112719 -0.0468783
-0.124022 -4.72462e-05 0.0019649
-0.0456903 -0.00119313 0.0496201
0.0603568 -0.00161526 0.0671771
0.129793 -0.00105761 0.0439846
0.120495 0.000141496 -0.00588466
0.0375819 0.00123747 -0.0514649
-0.0689434 -0.00243238 -0.0873456
-0.16732 -0.00171812 -0.0617023
-0.163241 7.20152e-05 0.00258625
-0.0601385 0.00181863 0.0653119
0.0794435 0.00246208 0.0884198
0.170836 0.00161207 0.057894
0.158599 -0.000215678 -0.00774554
0.0494683 -0.00188647 -0.0677423
-0.0436893 -0.00498488 -0.0553507
-0.104566 -0.003473 -0.0385632
-0.102015 0.000145556 0.00161621
-0.0375826 0.00367582 0.0408152
0.0496468 0.00497638 0.0552563
0.106761 0.00325834 0.0361796
0.0991157 -0.000436173 -0.00484314
0.0313479 -0.0038661 -0.0429281
0 -0.120759 0
0 -0.091344 0
0 0.0038283 0
0 0.0966784 0
0 0.130885 0
0 0.085698 0
0 -0.0114719 0
0 -0.0936563 0
0.0335493 -0.0475081 -0.0774501
0.0814243 -0.0336059 -0.054714
0.0794401 0.0014086 0.00229334
0.0292658 0.035572 0.0579148
-0.0386604 0.0481581 0.0784056
-0.0831358 0.031532 0.0513367
-0.0771807 -0.00421838 -0.00686827
-0.0240723 -0.0368456 -0.0600676
0.046748 0.0545603 -0.10792
0.113458 0.0385433 -0.0762392
0.110693 -0.00161554 0.00319555
0.0407794 -0.040798 0.0806991
-0.05387 -0.0552333 0.109252
-0.115843 -0.0361645 0.0715334
-0.107545 0.00483837 -0.00957031
-0.0335427 0.0423151 -0.083699
0.03159 0.123533 -0.072927
0.0766694 0.0872687 -0.0515186
0.074801 -0.00365787 0.0021594
0.0275569 -0.0923742 0.0545324
-0.0364028 -0.125057 0.073827
-0.0782809 -0.0818822 0.048339
-0.0726735 0.0109549 -0.00646715
-0.0226665 0.095808 -0.0565597
-0.00273004 0.117572 0.00630243
-0.00662584 0.0830578 0.00445229
-0.00646433 -0.00348139 -0.000186618
-0.0023815 -0.0879164 -0.00471276
0.00314595 -0.119022 -0.00638016
0.00676511 -0.0779315 -0.0041775
0.00628049 0.0104263 0.000558899
0.00195886 0.0911851 0.00488795
-0.0353941 0.0402939 0.0817089
-0.0859016 0.0284653 0.0577226
-0.0838081 -0.00119313 -0.00241944
-0.0308752 -0.0301303 -0.0610989
0.0407862 -0.0407909 -0.0827168
0.0877072 -0.0267083 -0.0541598
0.0814244 0.00357327 0.00724596
0.025396 0.0312505 0.0633707
-0.0465886 -0.0614264 0.107552
-0.113067 -0.0433884 0.0759761
-0.110311 0.00181863 -0.00318453
-0.0406387 0.0459265 -0.0804205
0.053684 0.0621759 -0.108875
0.115443 0.0407102 -0.0712865
0.107173 -0.00544661 0.00953733
0.0334283 -0.0476402 0.0834136
-0.0295231 -0.125886 0.0681553
-0.0706609 -0.0877058 0.0474843
-0.0689368 0.00367582 -0.0019901
-0.0253965 0.0928277 -0.0502573
0.0335489 0.125672 -0.0680391
0.072144 0.0822847 -0.0445493
0.0669775 -0.0110149 0.00596354
0.0211834 -0.0976331 0.0528589
0 -0.163485 0
0 -0.123663 0
0 0.00518281 0
0 0.130885 0
0 0.177194 0
0 0.116019 0
0 -0.0155308 0
0 -0.126793 0
-0.00289936 -0.0643172 -0.170819
-0.00703681 -0.0454962 -0.120673
-0.0068653 0.00190699 0.00505803
-0.00252918 0.0481581 0.127733
0.00334107 0.0651972 0.172926
0.00718472 0.0426883 0.113226
0.00667002 -0.00571092 -0.0151482
0.00208035 -0.0498822 -0.132481
-0.00404001 0.0738645 -0.238022
-0.00980518 0.0521805 -0.168148
-0.00956616 -0.00218715 0.00704795
-0.00352422 -0.0552333 0.177984
0.00465551 -0.0747756 0.240957
0.0100113 -0.0489602 0.15777
0.00929414 0.00655025 -0.0211077
0.00289879 0.0572868 -0.184601
-0.00273004 0.167241 -0.160843
-0.00662584 0.118145 -0.113626
-0.00646433 -0.0049521 0.00476268
-0.0023815 -0.125057 0.120273
0.00314595 -0.169304 0.162827
0.00676511 -0.110854 0.106613
0.00628049 0.0148309 -0.0142636
0.00195886 0.129706 -0.124745
0.000235933 0.159171 0.0139002
0.000572614 0.112445 0.00981971
0.000558656 -0.00471316 -0.000411592
0.00020581 -0.119022 -0.0103941
-0.000271876 -0.161136 -0.0140718
-0.000584649 -0.105505 -0.00921364
-0.000542766 0.0141153 0.00123267
-0.000169287 0.123448 0.0107806
0.0030588 0.0545504 0.180212
0.00742371 0.0385366 0.127309
0.00724283 -0.00161526 -0.00533615
0.00266826 -0.0407909 -0.134756
-0.0035248 -0.0552236 -0.182436
-0.00757975 -0.0361581 -0.119451
-0.00703683 0.00483753 0.0159812
-0.00219475 0.0423074 0.139766
0.00402623 -0.08316 0.23721
0.00977134 -0.0587398 0.167568
0.00953318 0.00246208 -0.00702364
0.00351206 0.0621759 -0.17737
-0.00463945 0.0841747 -0.240126
-0.00997669 0.0551143 -0.157226
-0.00926206 -0.00737369 0.0210349
-0.0028889 -0.064496 0.183972
0.00255141 -0.170427 0.150319
0.00610659 -0.118737 0.104728
0.00595759 0.00497638 -0.00438925
0.00219479 0.125672 -0.110844
-0.00289933 0.170136 -0.150063
-0.00623476 0.111398 -0.0982552
-0.00578827 -0.0149122 0.0131528
-0.00183069 -0.132177 0.116582
0 -0.107043 0
0 -0.0809695 0
0 0.0033935 0
0 0.085698 0
0 0.116019 0
0 0.0759648 0
0 -0.0101689 0
0 -0.0830192 0
-0.0375893 -0.0421123 -0.160572
-0.09123 -0.029789 -0.113434
-0.089006 0.00124863 0.00475463
-0.0327902 0.031532 0.12007
0.0433157 0.0426883 0.162552
0.0931475 0.0279507 0.106433
0.0864745 -0.00373928 -0.0142395
0.0269711 -0.0326608 -0.124534
-0.0523774 0.0483636 -0.223743
-0.127121 0.0341657 -0.158061
-0.124022 -0.00143207 0.00662512
-0.0456903 -0.0361645 0.167307
0.0603568 -0.0489602 0.226503
0.129793 -0.0320571 0.148306
0.120495 0.00428885 -0.0198415
0.0375819 0.0375091 -0.173527
-0.0353941 0.109503 -0.151194
-0.0859016 0.0773571 -0.10681
-0.0838081 -0.00324242 0.00447694
-0.0308752 -0.0818822 0.113058
0.0407862 -0.110854 0.153059
0.0877072 -0.0725827 0.100217
0.0814244 0.00971069 -0.0134079
0.025396 0.0849265 -0.117261
0.0030588 0.104219 0.0130664
0.00742371 0.0736248 0.00923063
0.00724283 -0.00308598 -0.000386901
0.00266826 -0.0779315 -0.00977059
-0.0035248 -0.105505 -0.0132275
-0.00757975 -0.0690802 -0.00866086
-0.00703683 0.00924215 0.00115873
-0.00219475 0.0808287 0.0101338
0.0396563 0.0357175 0.169401
0.0962466 0.0252322 0.119672
0.0939009 -0.00105761 -0.00501607
0.0345931 -0.0267083 -0.126672
-0.0456979 -0.0361581 -0.17149
-0.0982696 -0.0236749 -0.112286
-0.0912301 0.00316742 0.0150224
-0.0284542 0.0277012 0.131382
0.0521988 -0.0544499 0.222979
0.126682 -0.0384604 0.157515
0.123594 0.00161207 -0.00660226
0.0455326 0.0407102 -0.16673
-0.0601485 0.0551143 -0.225722
-0.129345 0.0360867 -0.147794
-0.120079 -0.004828 0.019773
-0.0374537 -0.0422294 0.172935
0.0330782 -0.111589 0.141301
0.0791699 -0.0777445 0.0984457
0.0772382 0.00325834 -0.00412594
0.0284548 0.0822847 -0.104195
-0.0375889 0.111398 -0.141061
-0.0808316 0.0729392 -0.0923608
-0.075043 -0.00976391 0.0123638
-0.0237343 -0.0865443 0.109589
0 0.0143292 0
0 0.0108389 0
0 -0.000454266 0
0 -0.0114719 0
0 -0.0155308 0
0 -0.0101689 0
0 0.00136125 0
0 0.0111133 0
-0.0494781 0.00563731 -0.0529234
-0.120079 0.00398521 -0.0373912
-0.117152 -0.00016704 0.00156725
-0.0431591 -0.00421833 0.0395786
0.0570137 -0.00571085 0.0535819
0.122602 -0.00373923 0.0350833
0.113821 0.00050026 -0.00469372
0.0355015 0.0043721 -0.0410456
-0.0689434 -0.00647413 -0.0737442
-0.16732 -0.00457096 -0.0521014
-0.163241 0.000191591 0.00218383
-0.0601385 0.00483832 0.0551494
0.0794435 0.00655018 0.0746621
0.170836 0.0042888 0.0488859
0.158599 -0.000573812 -0.00654028
0.0494683 -0.00502111 -0.0571935
-0.0465886 -0.0146584 -0.0498328
-0.113067 -0.0103494 -0.0352076
-0.110311 0.000433795 0.00147573
-0.0406387 0.0109548 0.0372673
0.053684 0.0148307 0.0504528
0.115443 0.00971058 0.0330346
0.107173 -0.00129921 -0.0044196
0.0334283 -0.0113686 -0.0386486
0.00402623 -0.0139511 0.0043066
0.00977134 -0.00985004 0.00304268
0.00953318 0.000412862 -0.000127534
0.00351206 0.0104262 -0.00322067
-0.00463945 0.0141151 -0.00436019
-0.00997669 0.00924204 -0.00285488
-0.00926206 -0.00123652 0.000381948
-0.0028889 -0.01082 0.00334005
0.0521988 -0.00478127 0.0558336
0.126682 -0.00337577 0.0394473
0.123594 0.000141494 -0.00165343
0.0455326 0.00357323 -0.0417549
-0.0601485 0.00483747 -0.0565285
-0.129345 0.00316738 -0.0370127
-0.120079 -0.000423774 0.00495182
-0.0374537 -0.00370819 0.0433027
0.0687083 0.00728886 0.0734927
0.166742 0.00514557 0.0519217
0.162678 -0.000215675 -0.0021763
0.059931 -0.00544655 -0.054959
-0.0791691 -0.0073736 -0.0744044
-0.170246 -0.00482794 -0.048717
-0.158051 0.00064595 0.00651773
-0.0492996 0.00565299 0.0569985
0.0435403 0.0149377 0.0465721
0.10421 0.0104072 0.0324471
0.101667 -0.000436173 -0.00135989
0.0374545 -0.0110149 -0.034342
-0.0494775 -0.0149122 -0.0464927
-0.106397 -0.00976391 -0.0304416
-0.0987777 0.00130703 0.00407502
-0.031241 0.0115851 0.0361198
0 0.12701 0
0 0.0884886 0
0 -0.00370863 0
0 -0.0936563 0
0 -0.126793 0
0 -0.0830192 0
0 0.0111133 0
0 0.0985045 0
-0.0313541 0.0499674 0.0868272
-0.0750434 0.0348126 0.0604931
-0.0732123 -0.00145902 -0.00253532
-0.0269716 -0.0368456 -0.0640259
0.0356296 -0.0498822 -0.0866792
0.0766185 -0.0326609 -0.0567541
0.0711316 0.0043721 0.00759731
0.0224972 0.038753 0.0673402
-0.0436893 -0.0573847 0.120986
-0.104566 -0.0399803 0.0842919
-0.102015 0.00167561 -0.00353274
-0.0375826 0.0423151 -0.0892145
0.0496468 0.0572868 -0.12078
0.106761 0.0375091 -0.0790819
0.0991156 -0.00502111 0.0105862
0.0313479 -0.0445056 0.0938328
-0.0295231 -0.129928 0.0817566
-0.0706609 -0.0905217 0.0569604
-0.0689368 0.00379384 -0.00238726
-0.0253965 0.095808 -0.0602868
0.0335489 0.129706 -0.0816172
0.072144 0.0849266 -0.0534397
0.0669775 -0.0113686 0.00715364
0.0211834 -0.100768 0.0634076
0.00255141 -0.123659 -0.00706549
0.00610658 -0.0861538 -0.00492257
0.00595758 0.00361078 0.000206309
0.00219479 0.0911851 0.00521005
-0.00289933 0.123448 0.00705344
-0.00623476 0.0808287 0.00461831
-0.00578826 -0.01082 -0.000618224
-0.00183069 -0.0959054 -0.00547975
0.0330782 -0.0423797 -0.0916018
0.0791699 -0.0295262 -0.0638196
0.0772381 0.00123747 0.00267473
0.0284548 0.0312505 0.0675466
-0.0375889 0.0423074 0.0914456
-0.0808316 0.0277012 0.0598749
-0.075043 -0.00370819 -0.00801508
-0.0237343 -0.0328683 -0.0710432
0.0435403 0.0646062 -0.120574
0.10421 0.0450116 -0.0840045
0.101667 -0.00188647 0.0035207
0.0374545 -0.0476402 0.0889102
-0.0494775 -0.0644961 0.120368
-0.106397 -0.0422294 0.0788122
-0.0987776 0.00565299 -0.0105501
-0.031241 0.0501064 -0.0935128
0.0275913 0.132403 -0.0764072
0.0660375 0.092246 -0.0532334
0.0644262 -0.0038661 0.00223105
0.0237348 -0.0976331 0.0563422
-0.0313538 -0.132177 0.0762769
-0.0674236 -0.0865443 0.0499431
-0.0625951 0.0115851 -0.00668556
-0.0197973 0.102687 -0.0592588
