# vtk DataFile Version 3.0
Velocity field
ASCII
DATASET STRUCTURED_POINTS
DIMENSIONS 10 10 10
SPACING 0.631579 0.631579 0.631579
ORIGIN 0 0 0
POINT_DATA 1000
VECTORS velocity float
0 0.0133073 0
0 0.0107403 0
0 0.00402956 0
0 -0.00423577 0
0 -0.0108669 0
0 -0.0133055 0
0 -0.0106108 0
0 -0.00382229 0
0 0.00444085 0
0 0.0109907 0
0 0.00817324 0.0104239
0 0.00659659 0.00874298
0 0.00247493 0.00328022
0 -0.00260158 -0.00344808
0 -0.00667438 -0.00884608
0 -0.00817215 -0.0108312
0 -0.00651705 -0.00863756
0 -0.00234762 -0.00311149
0 0.00272754 0.00361502
0 0.00675039 0.00860925
0 -0.000114109 0.0168262
0 -9.20967e-05 0.0141128
0 -3.45531e-05 0.0052949
0 3.63213e-05 -0.00556586
0 9.31827e-05 -0.0142793
0 0.000114094 -0.0174836
0 9.09862e-05 -0.0139427
0 3.27758e-05 -0.00502254
0 -3.80799e-05 0.00583534
0 -9.4244e-05 0.013897
0 -0.00835743 0.0167368
0 -0.00674525 0.0140379
0 -0.0025307 0.00526678
0 0.00266021 -0.00553629
0 0.00682479 -0.0142034
0 0.00835632 -0.0173908
0 0.00666392 -0.0138686
0 0.00240053 -0.00499586
0 -0.002789 0.00580434
0 -0.00690252 0.0138232
0 -0.0133764 0.0101902
0 -0.010796 0.00854699
0 -0.00405049 0.00320669
0 0.00425777 -0.00337078
0 0.0109233 -0.00864778
0 0.0133746 -0.0105884
0 0.0106659 -0.00844393
0 0.00384214 -0.00304174
0 -0.00446391 0.00353398
0 -0.0110478 0.00841627
0 -0.0132346 -0.0002878
0 -0.0106816 -0.000241389
0 -0.00400757 -9.05657e-05
0 0.00421265 9.51999e-05
0 0.0108076 0.000244236
0 0.0132329 0.000299045
0 0.0105528 0.000238479
0 0.00380142 8.59068e-05
0 -0.00441661 -9.98092e-05
0 -0.0109307 -0.000237698
0 -0.00798688 -0.0106548
0 -0.00644618 -0.00893664
0 -0.0024185 -0.00335288
0 0.00254226 0.00352445
0 0.00652219 0.00904202
0 0.00798581 0.0110711
0 0.00636845 0.00882888
0 0.00229409 0.00318041
0 -0.00266534 -0.00369509
0 -0.00659647 -0.00879996
0 0.000342299 -0.0169111
0 0.000276268 -0.0141841
0 0.000103651 -0.00532162
0 -0.000108955 0.00559395
0 -0.000279526 0.0143513
0 -0.000342254 0.0175719
0 -0.000272937 0.014013
0 -9.83195e-05 0.00504788
0 0.000114231 -0.00586479
0 0.00028271 -0.0139671
0 0.0085394 -0.016643
0 0.00689212 -0.0139592
0 0.00258581 -0.00523725
0 -0.00271813 0.00550525
0 -0.00697339 0.0141238
0 -0.00853827 0.0172933
0 -0.00680901 0.0137909
0 -0.0024528 0.00496785
0 0.00284973 -0.0057718
0 0.00705281 -0.0137457
0 0.0134419 -0.00995387
0 0.0108489 -0.00803373
0 0.00407034 -0.00301412
0 -0.00427863 0.00316836
0 -0.0109769 0.00812847
0 -0.0134402 0.00995255
0 -0.0107181 0.00793686
0 -0.00386097 0.00285908
0 0.00448579 -0.00332176
0 0.0111019 -0.00822104
0 0.0107403 0
0 0.00911933 0
0 0.00342142 0
0 -0.0035965 0
0 -0.00922686 0
0 -0.0112974 0
0 -0.00900937 0
0 -0.00324542 0
0 0.00377063 0
0 0.0088705 0
0.00151562 0.00659659 0.0115363
0.00396671 0.00533065 0.009322
0.00488567 0.00199997 0.00349746
0.00391969 -0.00210232 -0.00367644
0.00144147 -0.00539351 -0.00943194
-0.00159288 -0.00660386 -0.0115485
-0.00401268 -0.00526638 -0.00920962
-0.00488437 -0.0018971 -0.00331756
-0.00387162 0.0022041 0.00385443
-0.0013636 0.0054482 0.00952802
0.00244651 -9.20967e-05 0.0186219
0.00640304 -7.44165e-05 0.0150475
0.0078864 -2.79199e-05 0.00564558
0.00632713 2.93486e-05 -0.00593448
0.00232681 7.52941e-05 -0.015225
-0.00257122 9.21906e-05 -0.0186416
-0.00647725 7.35193e-05 -0.0148661
-0.00788431 2.64837e-05 -0.00535518
-0.00624955 -3.07695e-05 0.00622179
-0.00220111 -7.60637e-05 0.0153801
0.00243351 -0.00674525 0.018523
0.00636903 -0.00545036 0.0149676
0.00784451 -0.00204488 0.00561559
0.00629352 0.00214953 -0.00590295
0.00231445 0.00551463 -0.0151441
-0.00255756 0.00675216 -0.0185425
-0.00644284 0.00538464 -0.0147871
-0.00784243 0.0019397 -0.00532673
-0.00621635 -0.0022536 0.00618874
-0.00218942 -0.00557098 0.0152984
0.00148165 -0.010796 0.0112777
0.00387779 -0.00872351 0.00911304
0.00477615 -0.00327291 0.00341906
0.00383182 0.0034404 -0.00359403
0.00140916 0.00882638 -0.00922052
-0.00155718 0.0108071 -0.0112897
-0.00392274 0.00861833 -0.00900317
-0.00477488 0.00310456 -0.00324319
-0.00378484 -0.00360697 0.00376803
-0.00133303 -0.00891657 0.00931444
-4.18457e-05 -0.0106816 -0.000318513
-0.000109519 -0.00863107 -0.000257377
-0.000134891 -0.00323823 -9.65634e-05
-0.000108221 0.00340394 0.000101505
-3.97983e-05 0.00873285 0.000260412
4.39788e-05 0.0106926 0.00031885
0.000110788 0.008527 0.000254273
0.000134855 0.00307166 9.15963e-05
0.000106894 -0.00356874 -0.000106419
3.76483e-05 -0.00882208 -0.000263065
-0.00154919 -0.00644618 -0.0117919
-0.00405458 -0.0052087 -0.0095285
-0.00499389 -0.00195422 -0.00357493
-0.00400651 0.00205422 0.00375787
-0.0014734 0.00527012 0.00964086
0.00162817 0.00645277 0.0118043
0.00410157 0.0051459 0.00941361
0.00499256 0.00185369 0.00339104
0.00395738 -0.00215367 -0.00393981
0.0013938 -0.00532397 -0.00973908
-0.00245885 0.000276268 -0.0187158
-0.00643535 0.000223233 -0.0151235
-0.0079262 8.37532e-05 -0.00567407
-0.00635907 -8.80392e-05 0.00596443
-0.00233855 -0.000225865 0.0153018
0.00258419 -0.000276551 0.0187356
0.00650994 -0.000220541 0.0149411
0.00792409 -7.9445e-05 0.0053822
0.00628108 9.23015e-05 -0.00625319
0.00221222 0.000228173 -0.0154577
-0.00241987 0.00689212 -0.0184191
-0.00633332 0.00556902 -0.0148837
-0.00780053 0.00208941 -0.0055841
-0.00625824 -0.00219633 0.00586986
-0.00230147 -0.0056347 0.0150592
0.00254322 -0.00689916 0.0184386
0.00640671 -0.00550188 0.0147042
0.00779845 -0.00198193 0.00529686
0.00618149 0.00230266 -0.00615404
0.00217714 0.00569228 -0.0152126
-0.00144728 0.0108489 -0.0110161
-0.00378347 0.00875614 -0.00889108
-0.00465996 0.00328516 -0.00333578
-0.00373861 -0.00345327 0.00350649
-0.00137488 -0.0088594 0.00899593
0.0015193 -0.0108475 0.0110147
0.00382731 -0.00865056 0.00878387
0.00465873 -0.00311617 0.00316419
0.00369277 0.00362046 -0.00367626
0.00130211 0.0089603 -0.00909838
0 0.00402956 0
0 0.00342142 0
0 0.00128366 0
0 -0.00134935 0
0 -0.00346177 0
0 -0.00423861 0
0 -0.00338016 0
0 -0.00121763 0
0 0.00141468 0
0 0.00332806 0
0.00244651 0.00247493 0.00819796
0.00640304 0.00199997 0.0066242
0.00788641 0.000750356 0.00248529
0.00632713 -0.000788754 -0.00261247
0.00232681 -0.00202356 -0.00670231
-0.00257122 -0.00247766 -0.00820636
-0.00647725 -0.00197586 -0.00654433
-0.00788431 -0.000711759 -0.00235745
-0.00624955 0.000826941 0.00273895
-0.00220111 0.00204407 0.00677081
0.00394913 -3.45531e-05 0.0132331
0.0103357 -2.79199e-05 0.0106927
0.0127302 -1.04751e-05 0.00401173
0.0102132 1.10111e-05 -0.00421703
0.00375591 2.82491e-05 -0.0108188
-0.00415044 3.45884e-05 -0.0132466
-0.0104555 2.75832e-05 -0.0105638
-0.0127268 9.93624e-06 -0.00380537
-0.010088 -1.15442e-05 0.00442119
-0.00355301 -2.85378e-05 0.0109294
0.00392815 -0.0025307 0.0131628
0.0102808 -0.00204488 0.0106359
0.0126625 -0.000767206 0.00399042
0.010159 0.000806467 -0.00419463
0.00373596 0.002069 -0.0107614
-0.00412839 0.0025333 -0.0131763
-0.0104 0.00202023 -0.0105077
-0.0126592 0.000727742 -0.00378516
-0.0100344 -0.000845512 0.00439771
-0.00353414 -0.00209014 0.0108713
0.00239166 -0.00405049 0.00801419
0.00625951 -0.00327291 0.00647571
0.00770962 -0.00122794 0.00242958
0.0061853 0.00129078 -0.00255391
0.00227465 0.00331152 -0.00655207
-0.00251358 0.00405464 -0.0080224
-0.00633205 0.00323345 -0.00639763
-0.00770757 0.00116478 -0.0023046
-0.00610945 -0.00135327 0.00267755
-0.00215177 -0.00334534 0.00661903
-6.7547e-05 -0.00400757 -0.000226342
-0.000176785 -0.00323823 -0.000182891
-0.00021774 -0.00121493 -6.86177e-05
-0.000174689 0.0012771 7.21291e-05
-6.42421e-05 0.00327642 0.000185048
7.09902e-05 0.00401167 0.000226574
0.000178834 0.00319919 0.000180686
0.000217682 0.00115244 6.50881e-05
0.000172547 -0.00133893 -7.56212e-05
6.07717e-05 -0.00330989 -0.000186939
-0.0025007 -0.0024185 -0.00837955
-0.00654487 -0.00195422 -0.00677093
-0.00806109 -0.000733189 -0.00254034
-0.00646728 0.000770709 0.00267034
-0.00237835 0.00197726 0.00685077
0.00262817 0.00242097 0.00838814
0.00662073 0.00193066 0.00668929
0.00805895 0.000695475 0.00240967
0.00638798 -0.000808023 -0.00279962
0.00224987 -0.00199746 -0.00692079
-0.00396906 0.000103651 -0.0132999
-0.0103879 8.37532e-05 -0.0107467
-0.0127944 3.14228e-05 -0.00403198
-0.0102648 -3.30308e-05 0.00423831
-0.00377487 -8.4741e-05 0.0108734
0.00417138 -0.000103757 0.0133135
0.0105083 -8.27435e-05 0.0106171
0.012791 -2.98065e-05 0.00382458
0.0101389 3.463e-05 -0.0044435
0.00357094 8.56067e-05 -0.0109845
-0.00390613 0.00258581 -0.013089
-0.0102232 0.00208941 -0.0105763
-0.0125915 0.00078391 -0.00396805
-0.010102 -0.000824025 0.00417111
-0.00371502 -0.00211405 0.010701
0.00410525 -0.00258845 0.0131024
0.0103417 -0.00206421 0.0104488
0.0125882 -0.000743587 0.00376394
0.00997812 0.00086392 -0.00437305
0.00351433 0.00213565 -0.0108104
-0.00233619 0.00407034 -0.00782829
-0.00610724 0.00328516 -0.00631819
-0.00752208 0.00123253 -0.00237048
-0.00603484 -0.00129561 0.00249178
-0.00221932 -0.0033239 0.00639269
0.00245244 -0.0040698 0.00782725
0.00617802 -0.00324554 0.006242
0.00752008 -0.00116913 0.00224854
0.00596084 0.00135834 -0.00261242
0.00210186 0.00336175 -0.0064655
0 -0.00423577 0
0 -0.0035965 0
0 -0.00134935 0
0 0.0014184 0
0 0.00363891 0
0 0.00445551 0
0 0.00355314 0
0 0.00127994 0
0 -0.00148707 0
0 -0.00349837 0
0.00243351 -0.00260158 0.00169675
0.00636903 -0.00210232 0.00137102
0.00784451 -0.000788754 0.000514385
0.00629352 0.000829117 -0.000540708
0.00231445 0.00212711 -0.00138719
-0.00255756 0.00260445 -0.00169849
-0.00644284 0.00207697 -0.00135449
-0.00784243 0.000748182 -0.000487926
-0.00621635 -0.000869258 0.000566886
-0.00218942 -0.00214867 0.00140137
0.00392815 3.63213e-05 0.00273888
0.0102808 2.93486e-05 0.0022131
0.0126625 1.10111e-05 0.000830317
0.010159 -1.15746e-05 -0.000872807
0.00373596 -2.96947e-05 -0.0022392
-0.00412839 -3.63584e-05 -0.00274169
-0.0104 -2.89947e-05 -0.00218641
-0.0126592 -1.04447e-05 -0.000787606
-0.0100344 1.2135e-05 0.000915064
-0.00353414 2.99982e-05 0.00226208
0.00390729 0.00266021 0.00272433
0.0102262 0.00214953 0.00220134
0.0125953 0.000806467 0.000825906
0.010105 -0.000847736 -0.00086817
0.00371612 -0.00217488 -0.0022273
-0.00410646 -0.00266293 -0.00272712
-0.0103447 -0.00212361 -0.0021748
-0.0125919 -0.000764983 -0.000783422
-0.00998107 0.000888779 0.000910203
-0.00351537 0.0021971 0.00225006
0.00237896 0.00425777 0.00165871
0.00622626 0.0034404 0.00134029
0.00766866 0.00129078 0.000502855
0.00615244 -0.00135683 -0.000528587
0.00226257 -0.00348097 -0.0013561
-0.00250023 -0.00426213 -0.00166041
-0.00629841 -0.00339892 -0.00132413
-0.00766662 -0.00122439 -0.000476988
-0.006077 0.00142253 0.000554179
-0.00214034 0.00351654 0.00136996
-6.71882e-05 0.00421265 -4.68465e-05
-0.000175846 0.00340394 -3.78534e-05
-0.000216583 0.0012771 -1.4202e-05
-0.000173761 -0.00134246 1.49287e-05
-6.39009e-05 -0.00344409 3.82998e-05
7.06131e-05 -0.00421696 4.68945e-05
0.000177884 -0.0033629 3.7397e-05
0.000216526 -0.00121141 1.34714e-05
0.00017163 0.00140745 -1.56515e-05
6.04488e-05 0.00347927 -3.86912e-05
-0.00248741 0.00254226 -0.00173433
-0.00651011 0.00205422 -0.00140139
-0.00801827 0.000770709 -0.00052578
-0.00643293 -0.000810149 0.000552685
-0.00236571 -0.00207844 0.00141792
0.00261421 -0.00254486 0.00173611
0.00658555 -0.00202945 0.0013845
0.00801614 -0.000731065 0.000498734
0.00635404 0.000849372 -0.000579443
0.00223791 0.00209968 -0.00143241
-0.00394798 -0.000108955 -0.0027527
-0.0103327 -8.80392e-05 -0.00222427
-0.0127265 -3.30308e-05 -0.000834507
-0.0102102 3.47211e-05 0.000877212
-0.00375482 8.90774e-05 0.0022505
0.00414922 0.000109067 0.00275552
0.0104525 8.69777e-05 0.00219745
0.0127231 3.13318e-05 0.000791581
0.010085 -3.64021e-05 -0.000919681
0.00355197 -8.99875e-05 -0.0022735
-0.00388538 -0.00271813 -0.00270906
-0.0101689 -0.00219633 -0.002189
-0.0125247 -0.000824025 -0.000821276
-0.0100483 0.000866193 0.000863303
-0.00369528 0.00222223 0.00221481
0.00408344 0.00272091 0.00271183
0.0102867 0.00216985 0.00216261
0.0125213 0.000781638 0.00077903
0.00992511 -0.00090813 -0.000905099
0.00349566 -0.00224493 -0.00223745
-0.00232378 -0.00427863 -0.00162024
-0.0060748 -0.00345327 -0.00130769
-0.00748212 -0.00129561 -0.000490623
-0.00600278 0.00136191 0.000515729
-0.00220753 0.00349399 0.00132311
0.00243941 0.00427806 0.00162002
0.0061452 0.00341163 0.00129192
0.00748013 0.00122896 0.000465386
0.00592917 -0.00142785 -0.000540699
0.00209069 -0.00353378 -0.00133818
0 -0.0108669 0
0 -0.00922687 0
0 -0.00346177 0
0 0.00363891 0
0 0.00933567 0
0 0.0114307 0
0 0.00911561 0
0 0.0032837 0
0 -0.0038151 0
0 -0.0089751 0
0.00148165 -0.00667438 -0.00545908
0.00387779 -0.00539352 -0.0044111
0.00477615 -0.00202356 -0.00165497
0.00383182 0.00212711 0.00173966
0.00140916 0.00545712 0.00446312
-0.00155718 0.00668173 0.00546467
-0.00392274 0.00532849 0.00435791
-0.00477488 0.00191947 0.00156984
-0.00378484 -0.00223009 -0.00182389
-0.00133303 -0.00551244 -0.00450873
0.00239166 9.31827e-05 -0.00881201
0.00625951 7.52941e-05 -0.00712036
0.00770962 2.82491e-05 -0.00267144
0.0061853 -2.96947e-05 0.00280815
0.00227465 -7.61821e-05 0.00720433
-0.00251358 -9.32779e-05 0.00882103
-0.00633205 -7.43863e-05 0.00703452
-0.00770757 -2.6796e-05 0.00253403
-0.00610945 3.11324e-05 -0.0029441
-0.00215177 7.69607e-05 -0.00727796
0.00237896 0.00682479 -0.0087652
0.00622626 0.00551463 -0.00708254
0.00766866 0.002069 -0.00265725
0.00615244 -0.00217488 0.00279323
0.00226257 -0.00557967 0.00716607
-0.00250023 -0.00683178 0.00877418
-0.00629841 -0.00544814 0.00699714
-0.00766662 -0.00196257 0.00252057
-0.006077 0.00228017 -0.00292846
-0.00214034 0.00563667 -0.0072393
0.00144843 0.0109233 -0.00533671
0.00379087 0.00882638 -0.00431222
0.00466908 0.00331152 -0.00161787
0.00374593 -0.00348097 0.00170066
0.00137757 -0.00893048 0.00436307
-0.00152227 -0.0109345 0.00534217
-0.0038348 -0.00871997 0.00426023
-0.00466784 -0.00314117 0.00153465
-0.00369999 0.0036495 -0.001783
-0.00130315 0.00902171 -0.00440766
-4.09076e-05 0.0108076 0.000150723
-0.000107064 0.00873285 0.000121789
-0.000131867 0.00327642 4.56931e-05
-0.000105795 -0.00344409 -4.80313e-05
-3.89062e-05 -0.00883584 -0.000123225
4.29929e-05 -0.0108187 -0.000150877
0.000108305 -0.00862756 -0.00012032
0.000131832 -0.00310789 -4.33427e-05
0.000104498 0.00361083 5.03567e-05
3.68044e-05 0.00892611 0.000124484
-0.00151447 0.00652219 0.00558
-0.00396369 0.00527012 0.00450881
-0.00488194 0.00197726 0.00169163
-0.0039167 -0.00207844 -0.0017782
-0.00144037 -0.00533227 -0.00456198
0.00159167 -0.00652887 -0.00558572
0.00400962 -0.00520658 -0.00445445
0.00488065 -0.00187555 -0.00160461
0.00386867 0.00217907 0.00186429
0.00136256 0.00538675 0.0046086
-0.00240373 -0.000279526 0.00885648
-0.00629109 -0.000225865 0.0071563
-0.00774852 -8.4741e-05 0.00268492
-0.00621652 8.90774e-05 -0.00282232
-0.00228613 0.000228529 -0.00724069
0.00252626 0.000279813 -0.00886555
0.00636401 0.000223142 -0.00707002
0.00774646 8.0382e-05 -0.00254681
0.00614028 -9.33901e-05 0.00295896
0.00216263 -0.000230864 0.00731469
-0.00236562 -0.00697339 0.00871606
-0.00619135 -0.0056347 0.00704283
-0.00762566 -0.00211405 0.00264235
-0.00611795 0.00222223 -0.00277757
-0.00224988 0.00570115 -0.00712588
0.00248621 0.00698052 -0.00872498
0.0062631 0.00556676 -0.00695791
0.00762364 0.0020053 -0.00250643
0.00604292 -0.00232982 0.00291204
0.00212834 -0.0057594 0.00719871
-0.00141484 -0.0109769 0.00521292
-0.00369865 -0.0088594 0.00420733
-0.0045555 -0.0033239 0.00157852
-0.00365481 0.00349399 -0.00165929
-0.00134406 0.00896387 -0.00425694
0.00148524 0.0109754 -0.00521222
0.00374152 0.00875257 -0.00415659
0.00455429 0.00315292 -0.00149732
0.00360999 -0.00366316 0.00173963
0.00127292 -0.00906596 0.00430542
0 -0.0133055 0
0 -0.0112974 0
0 -0.00423861 0
0 0.00445551 0
0 0.0114307 0
0 0.0139958 0
0 0.0111612 0
0 0.00402058 0
0 -0.00467123 0
0 -0.0109892 0
-4.18457e-05 -0.00817215 -0.0105088
-0.000109519 -0.00660386 -0.00849139
-0.000134891 -0.00247766 -0.00318583
-0.000108221 0.00260445 0.00334886
-3.97983e-05 0.00668173 0.00859152
4.39788e-05 0.00818116 0.0105195
0.000110788 0.00652424 0.00838901
0.000134855 0.00235021 0.00302195
0.000106894 -0.00273054 -0.00351099
3.76483e-05 -0.00674947 -0.00867933
-6.7547e-05 0.000114094 -0.0169632
-0.000176785 9.21906e-05 -0.0137067
-0.00021774 3.45884e-05 -0.00514254
-0.000174689 -3.63584e-05 0.0054057
-6.42421e-05 -9.32779e-05 0.0138684
7.09902e-05 -0.00011421 0.0169805
0.000178834 -9.10791e-05 0.0135415
0.000217682 -3.28092e-05 0.00487802
0.000172547 3.81187e-05 -0.00566741
6.07717e-05 9.42311e-05 -0.0140101
-6.71882e-05 0.00835632 -0.016873
-0.000175846 0.00675216 -0.0136339
-0.000216583 0.0025333 -0.00511522
-0.000173761 -0.00266293 0.00537698
-6.39009e-05 -0.00683178 0.0137947
7.06131e-05 -0.00836488 0.0168903
0.000177884 -0.00667074 0.0134695
0.000216526 -0.00240299 0.0048521
0.00017163 0.00279186 -0.00563731
6.04488e-05 0.00690158 -0.0139357
-4.09076e-05 0.0133746 -0.0102732
-0.000107064 0.0108071 -0.00830104
-0.000131867 0.00405464 -0.00311441
-0.000105795 -0.00426213 0.00327379
-3.89062e-05 -0.0109345 0.00839894
4.29929e-05 -0.0133883 0.0102837
0.000108305 -0.0106768 0.00820096
0.000131832 -0.00384607 0.00295421
0.000104498 0.00446848 -0.00343229
3.68044e-05 0.0110462 -0.00848477
1.15534e-06 0.0132329 0.000290142
3.02378e-06 0.0106926 0.000234443
3.72428e-06 0.00401167 8.79593e-05
2.98793e-06 -0.00421696 -9.24604e-05
1.09881e-06 -0.0108187 -0.000237208
-1.21423e-06 -0.0132464 -0.000290439
-3.05882e-06 -0.0105637 -0.000231617
-3.72329e-06 -0.00380532 -8.34348e-05
-2.95129e-06 0.00442112 9.69369e-05
-1.03945e-06 0.0109292 0.000239633
4.27726e-05 0.00798581 0.0107415
0.000111945 0.00645277 0.00867948
0.000137879 0.00242097 0.0032564
0.000110618 -0.00254486 -0.00342303
4.06799e-05 -0.00652887 -0.00878183
-4.49529e-05 -0.00799399 -0.0107525
-0.000113243 -0.00637497 -0.00857483
-0.000137842 -0.00229644 -0.00308889
-0.000109262 0.00266807 0.00358876
-3.84823e-05 0.00659557 0.00887158
6.78879e-05 -0.000342254 0.0170488
0.000177677 -0.000276551 0.0137759
0.000218839 -0.000103757 0.00516849
0.000175571 0.000109067 -0.00543298
6.45664e-05 0.000279813 -0.0139384
-7.13484e-05 0.000342604 -0.0170662
-0.000179736 0.000273217 -0.0136098
-0.000218781 9.84202e-05 -0.00490263
-0.000173418 -0.000114347 0.00569601
-6.10784e-05 -0.000282671 0.0140808
6.68115e-05 -0.00853827 0.0167785
0.00017486 -0.00689916 0.0135575
0.000215369 -0.00258845 0.00508654
0.000172787 0.00272091 -0.00534684
6.35426e-05 0.00698052 -0.0137174
-7.02172e-05 0.008547 -0.0167956
-0.000176887 0.00681598 -0.013394
-0.000215312 0.0024553 -0.00482489
-0.000170668 -0.00285264 0.0056057
-6.01099e-05 -0.00705185 0.0138576
3.99588e-05 -0.0134402 0.0100349
0.00010446 -0.0108475 0.00809912
0.00012866 -0.0040698 0.00303865
0.000103221 0.00427806 -0.00319415
3.79598e-05 0.0109754 -0.00819463
-4.19471e-05 0.0134384 -0.0100336
-0.00010567 0.0107167 -0.00800147
-0.000128625 0.00386045 -0.00288235
-0.000101956 -0.00448519 0.0033488
-3.59507e-05 -0.0111004 0.00828796
0 -0.0106108 0
0 -0.00900937 0
0 -0.00338016 0
0 0.00355314 0
0 0.00911561 0
0 0.0111612 0
0 0.00890074 0
0 0.00320629 0
0 -0.00372517 0
0 -0.00876354 0
-0.00154919 -0.00651705 -0.0115041
-0.00405458 -0.00526638 -0.00929564
-0.00499389 -0.00197586 -0.00348757
-0.00400651 0.00207697 0.00366604
-0.0014734 0.00532849 0.00940526
0.00162817 0.00652424 0.0115159
0.00410157 0.00520288 0.00918356
0.00499256 0.00187422 0.00330817
0.00395738 -0.00217752 -0.00384353
0.0013938 -0.0053825 -0.00950138
-0.0025007 9.09862e-05 -0.0185698
-0.00654487 7.35193e-05 -0.0150049
-0.00806109 2.75832e-05 -0.0056296
-0.00646728 -2.89947e-05 0.00591769
-0.00237835 -7.43863e-05 0.0151819
0.00262817 -9.10791e-05 0.0185888
0.00662073 -7.26329e-05 0.014824
0.00805895 -2.61644e-05 0.00534003
0.00638798 3.03985e-05 -0.00620419
0.00224987 7.51465e-05 -0.0153371
-0.00248741 0.00666392 -0.0184712
-0.00651011 0.00538464 -0.0149252
-0.00801827 0.00202023 -0.0055997
-0.00643293 -0.00212361 0.00588625
-0.00236571 -0.00544814 0.0151013
0.00261421 -0.00667074 0.0184901
0.00658555 -0.00531972 0.0147453
0.00801614 -0.00191631 0.00531166
0.00635404 0.00222642 -0.00617123
0.00223791 0.0055038 -0.0152556
-0.00151447 0.0106659 -0.0112462
-0.00396369 0.00861833 -0.00908726
-0.00488194 0.00323345 -0.00340939
-0.0039167 -0.00339892 0.00358386
-0.00144037 -0.00871997 0.00919443
0.00159167 -0.0106768 0.0112577
0.00400962 -0.00851442 0.0089777
0.00488065 -0.00306713 0.00323401
0.00386867 0.00356348 -0.00375737
0.00136256 0.00880905 -0.00928839
4.27726e-05 0.0105528 0.000317623
0.000111945 0.008527 0.000256648
0.000137879 0.00319919 9.62902e-05
0.000110618 -0.0033629 -0.000101218
4.06799e-05 -0.00862756 -0.000259675
-4.49529e-05 -0.0105637 -0.000317948
-0.000113243 -0.0084242 -0.000253554
-0.000137842 -0.00303463 -9.13372e-05
-0.000109262 0.00352572 0.000106118
-3.84823e-05 0.0087157 0.000262329
0.00158351 0.00636845 0.0117589
0.00414439 0.0051459 0.00950154
0.0051045 0.00193066 0.00356482
0.00409526 -0.00202945 -0.00374724
0.00150603 -0.00520658 -0.00961359
-0.00166423 -0.00637497 -0.0117709
-0.00419242 -0.00508385 -0.00938698
-0.00510315 -0.00183134 -0.00338145
-0.00404504 0.00212771 0.00392867
-0.00142468 0.00525977 0.00971184
0.00251332 -0.000272937 0.0186635
0.0065779 -0.000220541 0.0150807
0.00810178 -8.27435e-05 0.00565802
0.00649992 8.69777e-05 -0.00594756
0.00239035 0.000223142 -0.0152585
-0.00264144 0.000273217 -0.0186826
-0.00665414 0.000217882 -0.0148988
-0.00809962 7.84872e-05 -0.00536697
-0.00642021 -9.11887e-05 0.0062355
-0.00226122 -0.000225422 0.0154145
0.00247347 -0.00680901 0.0183676
0.00647361 -0.00550188 0.0148416
0.00797332 -0.00206421 0.00556831
0.00639686 0.00216985 -0.00585325
0.00235245 0.00556676 -0.0150166
-0.00259955 0.00681598 -0.0183864
-0.00654863 0.00543554 -0.0146626
-0.0079712 0.00195803 -0.00528188
-0.00631841 -0.0022749 0.00613663
-0.00222537 -0.00562364 0.0151701
0.00147934 -0.0107181 0.0109853
0.00386727 -0.00865056 0.00886622
0.00476319 -0.00324554 0.00332645
0.00382143 0.00341163 -0.00349668
0.00140533 0.00875257 -0.00897077
-0.00155295 0.0107167 -0.0109839
-0.00391209 0.00854626 -0.00875931
-0.00476192 0.0030786 -0.00315535
-0.00377456 -0.00357681 0.00366598
-0.00133095 -0.00885225 0.00907294
0 -0.00382229 0
0 -0.00324543 0
0 -0.00121763 0
0 0.00127994 0
0 0.0032837 0
0 0.00402058 0
0 0.00320629 0
0 0.001155 0
0 -0.00134191 0
0 -0.00315687 0
-0.00245885 -0.00234762 -0.00806104
-0.00643535 -0.0018971 -0.00651356
-0.0079262 -0.000711759 -0.00244378
-0.00635907 0.000748182 0.00256884
-0.00233855 0.00191947 0.00659037
0.00258419 0.00235021 0.00806929
0.00650994 0.00187422 0.00643502
0.00792409 0.000675147 0.00231807
0.00628108 -0.000784404 -0.0026932
0.00221222 -0.00193893 -0.00665772
-0.00396906 3.27758e-05 -0.0130121
-0.0103879 2.64837e-05 -0.0105141
-0.0127944 9.93624e-06 -0.00394473
-0.0102648 -1.04447e-05 0.00414659
-0.00377487 -2.6796e-05 0.0106381
0.00417138 -3.28092e-05 0.0130254
0.0105083 -2.61644e-05 0.0103874
0.012791 -9.42512e-06 0.00374181
0.0101389 1.09504e-05 -0.00434735
0.00357094 2.70699e-05 -0.0107468
-0.00394798 0.00240053 -0.0129429
-0.0103327 0.0019397 -0.0104583
-0.0127265 0.000727742 -0.00392378
-0.0102102 -0.000764983 0.00412457
-0.00375482 -0.00196257 0.0105816
0.00414922 -0.00240299 0.0129562
0.0104525 -0.00191631 0.0103322
0.0127231 -0.000690308 0.00372194
0.010085 0.000802019 -0.00432425
0.00355197 0.00198262 -0.0106898
-0.00240373 0.00384214 -0.00788034
-0.00629109 0.00310456 -0.00636755
-0.00774852 0.00116478 -0.002389
-0.00621652 -0.00122439 0.00251125
-0.00228613 -0.00314117 0.00644264
0.00252626 -0.00384607 0.00788841
0.00636401 -0.00306713 0.00629077
0.00774646 -0.00110486 0.00226611
0.00614028 0.00128366 -0.00263283
0.00216263 0.00317326 -0.00650848
6.78879e-05 0.00380142 0.000222562
0.000177677 0.00307166 0.000179836
0.000218839 0.00115244 6.74717e-05
0.000175571 -0.00121141 -7.09244e-05
6.45664e-05 -0.00310789 -0.000181957
-7.13484e-05 -0.00380532 -0.00022279
-0.000179736 -0.00303463 -0.000177668
-0.000218781 -0.00109316 -6.4001e-05
-0.000173418 0.00127006 7.43582e-05
-6.10784e-05 0.00313964 0.000183817
0.00251332 0.00229409 0.0082396
0.0065779 0.00185369 0.00665784
0.00810178 0.000695475 0.00249791
0.00649992 -0.000731065 -0.00262574
0.00239035 -0.00187555 -0.00673635
-0.00264144 -0.00229644 -0.00824804
-0.00665414 -0.00183135 -0.00657756
-0.00809962 -0.000659701 -0.00236942
-0.00642021 0.000766459 0.00275286
-0.00226122 0.00189472 0.0068052
0.00398909 -9.83195e-05 0.0130777
0.0104403 -7.9445e-05 0.0105672
0.012859 -2.98065e-05 0.00396463
0.0103166 3.13318e-05 -0.00416752
0.00379392 8.0382e-05 -0.0106918
-0.00419244 9.84202e-05 -0.0130911
-0.0105613 7.84872e-05 -0.0104398
-0.0128556 2.82732e-05 -0.0037607
-0.01019 -3.28487e-05 0.00436929
-0.00358896 -8.12032e-05 0.0108011
0.00392584 -0.0024528 0.0128704
0.0102748 -0.00198193 0.0103996
0.0126551 -0.000743587 0.00390177
0.010153 0.000781638 -0.00410144
0.00373376 0.0020053 -0.0105223
-0.00412596 0.0024553 -0.0128836
-0.0103939 0.00195803 -0.0102743
-0.0126517 0.000705337 -0.00370107
-0.0100285 -0.000819481 0.00430001
-0.00353206 -0.00202579 0.0106298
0.00234798 -0.00386097 0.00769754
0.00613806 -0.00311617 0.00621266
0.00756004 -0.00116913 0.00233088
0.0060653 0.00122896 -0.00245016
0.00223052 0.00315292 -0.00628592
-0.00246481 0.00386045 -0.00769652
-0.0062092 0.0030786 -0.00613775
-0.00755803 0.001109 -0.00221099
-0.00599092 -0.00128846 0.00256879
-0.00211246 -0.00318883 0.00635751
0 0.00444085 0
0 0.00377063 0
0 0.00141468 0
0 -0.00148707 0
0 -0.00381509 0
0 -0.00467122 0
0 -0.00372516 0
0 -0.00134191 0
0 0.00155907 0
0 0.00366775 0
-0.00241987 0.00272754 -0.00150799
-0.00633332 0.0022041 -0.00121851
-0.00780053 0.000826941 -0.000457164
-0.00625824 -0.000869258 0.000480558
-0.00230147 -0.00223009 0.00123288
0.00254322 -0.00273054 0.00150954
0.00640671 -0.00217752 0.00120382
0.00779845 -0.000784404 0.000433648
0.00618149 0.000911343 -0.000503824
0.00217714 0.0022527 -0.00124547
-0.00390613 -3.80799e-05 -0.00243419
-0.0102232 -3.07695e-05 -0.00196691
-0.0125915 -1.15442e-05 -0.00073795
-0.010102 1.2135e-05 0.000775714
-0.00371502 3.11323e-05 0.0019901
0.00410525 3.81187e-05 0.00243669
0.0103417 3.03985e-05 0.00194319
0.0125882 1.09504e-05 0.000699991
0.00997812 -1.27225e-05 -0.00081327
0.00351433 -3.14506e-05 -0.00201043
-0.00388538 -0.002789 -0.00242126
-0.0101689 -0.00225359 -0.00195646
-0.0125247 -0.000845511 -0.00073403
-0.0100483 0.000888779 0.000771593
-0.00369528 0.00228017 0.00197953
0.00408344 0.00279186 0.00242375
0.0102867 0.00222642 0.00193287
0.0125213 0.000802019 0.000696273
0.00992511 -0.000931808 -0.000808949
0.00349566 -0.00230347 -0.00199975
-0.00236562 -0.00446391 -0.00147419
-0.00619135 -0.00360697 -0.00119119
-0.00762567 -0.00135327 -0.000446916
-0.00611795 0.00142253 0.000469786
-0.00224988 0.0036495 0.00120524
0.00248621 0.00446848 0.0014757
0.0062631 0.00356348 0.00117683
0.00762364 0.00128366 0.000423927
0.00604292 -0.0014914 -0.00049253
0.00212834 -0.00368679 -0.00121755
6.68115e-05 -0.00441661 4.16351e-05
0.00017486 -0.00356874 3.36425e-05
0.000215369 -0.00133893 1.26221e-05
0.000172787 0.00140745 -1.3268e-05
6.35426e-05 0.00361083 -3.40392e-05
-7.02172e-05 0.00442112 -4.16778e-05
-0.000176887 0.00352572 -3.32368e-05
-0.000215312 0.00127006 -1.19728e-05
-0.000170668 -0.00147559 1.39104e-05
-6.01099e-05 -0.00364773 3.4387e-05
0.00247347 -0.00266534 0.0015414
0.0064736 -0.00215367 0.0012455
0.00797332 -0.000808022 0.00046729
0.00639686 0.000849371 -0.000491203
0.00235245 0.00217907 -0.00126019
-0.00259955 0.00266807 -0.00154298
-0.00654863 0.00212771 -0.00123048
-0.0079712 0.000766458 -0.000443253
-0.00631841 -0.000890493 0.000514984
-0.00222537 -0.00220134 0.00127306
0.00392584 0.000114231 0.00244648
0.0102748 9.23015e-05 0.00197683
0.0126551 3.463e-05 0.000741675
0.010153 -3.64021e-05 -0.000779628
0.00373376 -9.339e-05 -0.00200014
-0.00412596 -0.000114347 -0.00244899
-0.0103939 -9.11887e-05 -0.001953
-0.0126517 -3.28487e-05 -0.000703523
-0.0100285 3.81645e-05 0.000817373
-0.00353206 9.43443e-05 0.00202058
0.0038636 0.00284973 0.00240769
0.0101119 0.00230266 0.00194549
0.0124544 0.00086392 0.000729915
0.009992 -0.000908129 -0.000767267
0.00367456 -0.00232981 -0.00196843
-0.00406055 -0.00285264 -0.00241016
-0.0102291 -0.0022749 -0.00192203
-0.0124511 -0.000819481 -0.000692369
-0.00986946 0.000952096 0.000804414
-0.00347606 0.00235362 0.00198854
0.00231075 0.00448579 0.00143999
0.00604074 0.00362046 0.00116221
0.00744017 0.00135834 0.000436043
0.00596913 -0.00142785 -0.000458357
0.00219515 -0.00366316 -0.00117592
-0.00242573 -0.00448519 -0.0014398
-0.00611075 -0.00357681 -0.0011482
-0.0074382 -0.00128846 -0.000413614
-0.00589593 0.00149698 0.000480549
-0.00207897 0.00370487 0.00118931
0 0.0109907 0
0 0.00887051 0
0 0.00332807 0
0 -0.00349837 0
0 -0.00897511 0
0 -0.0109892 0
0 -0.00876355 0
0 -0.00315687 0
0 0.00366775 0
0 0.00907733 0
-0.00144728 0.00675039 0.00562685
-0.00378346 0.0054482 0.00454141
-0.00465995 0.00204407 0.00170386
-0.0037386 -0.00214867 -0.00179105
-0.00137487 -0.00551245 -0.00459496
0.00151929 -0.00674948 -0.00562611
0.0038273 -0.00538251 -0.00448665
0.00465871 -0.00193893 -0.00161622
0.00369276 0.00225271 0.00187777
0.00130211 0.00557523 0.0046473
-0.00233619 -9.4244e-05 0.00908282
-0.00610723 -7.60638e-05 0.00733071
-0.00752206 -2.85378e-05 0.00275036
-0.00603482 2.99982e-05 -0.0028911
-0.00221931 7.69607e-05 -0.00741716
0.00245243 9.42312e-05 -0.00908162
0.006178 7.51466e-05 -0.00724232
0.00752006 2.70699e-05 -0.00260888
0.00596082 -3.14506e-05 0.00303108
0.00210186 -7.78372e-05 0.00750163
-0.00232378 -0.00690252 0.00903457
-0.00607478 -0.00557098 0.00729177
-0.0074821 -0.00209014 0.00273575
-0.00600277 0.0021971 -0.00287575
-0.00220752 0.00563668 -0.00737776
0.0024394 0.00690158 -0.00903337
0.00614518 0.00550381 -0.00720385
0.00748011 0.00198262 -0.00259503
0.00592915 -0.00230347 0.00301498
0.00209069 -0.00570087 0.00746178
-0.00141484 -0.0110478 0.00550072
-0.00369864 -0.00891658 0.00443961
-0.00455549 -0.00334535 0.00166567
-0.0036548 0.00351654 -0.0017509
-0.00134405 0.00902172 -0.00449196
0.00148523 0.0110463 -0.00549999
0.00374151 0.00880906 -0.00438608
0.00455428 0.00317327 -0.00157999
0.00360998 -0.0036868 0.00183568
0.00127292 -0.00912447 0.00454312
3.99588e-05 -0.0109307 -0.000155355
0.00010446 -0.00882209 -0.000125386
0.000128659 -0.0033099 -4.70429e-05
0.000103221 0.00347928 4.94502e-05
3.79597e-05 0.00892612 0.000126865
-4.1947e-05 0.0109292 0.000155334
-0.00010567 0.00871571 0.000123875
-0.000128625 0.00313964 4.4623e-05
-0.000101955 -0.00364773 -5.18444e-05
-3.59507e-05 -0.00902778 -0.00012831
0.00147934 -0.00659647 -0.00575149
0.00386726 -0.00532397 -0.00464201
0.00476317 -0.00199746 -0.0017416
0.00382141 0.00209968 0.00183073
0.00140533 0.00538676 0.00469675
-0.00155295 0.00659558 0.00575073
-0.00391208 0.00525978 0.00458604
-0.00476191 0.00189472 0.00165202
-0.00377455 -0.00220134 -0.00191936
-0.00133095 -0.0054481 -0.00475024
0.00234798 0.00028271 -0.00912866
0.00613805 0.000228173 -0.00736771
0.00756002 8.56068e-05 -0.00276424
0.00606528 -8.99876e-05 0.00290569
0.00223051 -0.000230864 0.00745459
-0.00246481 -0.000282671 0.00912745
-0.00620918 -0.000225422 0.00727887
-0.00755801 -8.12033e-05 0.00262205
-0.0059909 9.43444e-05 -0.00304638
-0.00211246 0.000233493 -0.00753949
0.00231075 0.00705281 -0.00898392
0.00604073 0.00569228 -0.00725089
0.00744015 0.00213565 -0.00272041
0.00596911 -0.00224494 0.00285962
0.00219515 -0.00575941 0.00733639
-0.00242573 -0.00705186 0.00898273
-0.00611073 -0.00562365 0.00716346
-0.00743817 -0.00202579 0.00258048
-0.00589591 0.00235363 -0.00299808
-0.00207897 0.005825 -0.00741995
0.00138202 0.0111019 -0.00537312
0.00361286 0.0089603 -0.00433663
0.00444983 0.00336175 -0.00162703
0.00357003 -0.00353378 0.00171029
0.00131288 -0.00906596 0.00438777
-0.00145079 -0.0111004 0.00537241
-0.00365473 -0.00885225 0.00428434
-0.00444865 -0.00318883 0.00154334
-0.00352625 0.00370487 -0.0017931
-0.00124339 0.00916921 -0.00443774
